{
  "header": {
    "keySignatures": [
      {
        "key": "C",
        "scale": "major",
        "ticks": 0
      }
    ],
    "meta": [
      {
        "text": "Copyright  2001 by Petr Cvikl All Rights Reserved",
        "ticks": 0,
        "type": "marker"
      },
      {
        "text": "Symphony No. 41",
        "ticks": 0,
        "type": "marker"
      },
      {
        "text": "Copyright  2001 by Petr Cvikl All Rights Reserved",
        "ticks": 230400,
        "type": "marker"
      },
      {
        "text": "Symphony No. 41",
        "ticks": 230400,
        "type": "marker"
      }
    ],
    "name": "",
    "ppq": 480,
    "tempos": [
      {
        "bpm": 150,
        "ticks": 0
      },
      {
        "bpm": 130.00013000013,
        "ticks": 827520
      },
      {
        "bpm": 109.99990833340972,
        "ticks": 828480
      },
      {
        "bpm": 100,
        "ticks": 829440
      }
    ],
    "timeSignatures": [
      {
        "ticks": 0,
        "timeSignature": [
          4,
          4
        ],
        "measures": 0
      }
    ]
  },
  "tracks": [
    {
      "channel": 0,
      "controlChanges": {},
      "pitchBends": [],
      "instrument": {
        "family": "piano",
        "number": 0,
        "name": "acoustic grand piano"
      },
      "name": "Flauti",
      "notes": [],
      "endOfTrackTicks": 831360
    },
    {
      "channel": 0,
      "controlChanges": {
        "7": [
          {
            "number": 7,
            "ticks": 0,
            "time": 0,
            "value": 0.6692913385826772
          }
        ],
        "10": [
          {
            "number": 10,
            "ticks": 0,
            "time": 0,
            "value": 0.6299212598425197
          }
        ]
      },
      "pitchBends": [],
      "instrument": {
        "family": "pipe",
        "number": 73,
        "name": "flute"
      },
      "name": "",
      "notes": [
        {
          "duration": 0.33333333333333337,
          "durationTicks": 400,
          "midi": 84,
          "name": "C6",
          "ticks": 0,
          "time": 0,
          "velocity": 0.8267716535433071
        },
        {
          "duration": 0.06666666666666665,
          "durationTicks": 80,
          "midi": 79,
          "name": "G5",
          "ticks": 720,
          "time": 0.6000000000000001,
          "velocity": 0.8267716535433071
        },
        {
          "duration": 0.06666666666666665,
          "durationTicks": 80,
          "midi": 81,
          "name": "A5",
          "ticks": 800,
          "time": 0.6666666666666667,
          "velocity": 0.8267716535433071
        },
        {
          "duration": 0.06666666666666665,
          "durationTicks": 80,
          "midi": 83,
          "name": "B5",
          "ticks": 880,
          "time": 0.7333333333333334,
          "velocity": 0.8267716535433071
        },
        {
          "duration": 0.3333333333333335,
          "durationTicks": 400,
          "midi": 84,
          "name": "C6",
          "ticks": 960,
          "time": 0.8,
          "velocity": 0.8267716535433071
        },
        {
          "duration": 0.06666666666666665,
          "durationTicks": 80,
          "midi": 79,
          "name": "G5",
          "ticks": 1680,
          "time": 1.4000000000000001,
          "velocity": 0.8267716535433071
        },
        {
          "duration": 0.06666666666666665,
          "durationTicks": 80,
          "midi": 81,
          "name": "A5",
          "ticks": 1760,
          "time": 1.4666666666666668,
          "velocity": 0.8267716535433071
        },
        {
          "duration": 0.06666666666666665,
          "durationTicks": 80,
          "midi": 83,
          "name": "B5",
          "ticks": 1840,
          "time": 1.5333333333333334,
          "velocity": 0.8267716535433071
        },
        {
          "duration": 0.33333333333333326,
          "durationTicks": 400,
          "midi": 84,
          "name": "C6",
          "ticks": 1920,
          "time": 1.6,
          "velocity": 0.8267716535433071
        },
        {
          "duration": 0.33333333333333304,
          "durationTicks": 400,
          "midi": 79,
          "name": "G5",
          "ticks": 7680,
          "time": 6.4,
          "velocity": 0.8267716535433071
        },
        {
          "duration": 0.06666666666666732,
          "durationTicks": 80,
          "midi": 74,
          "name": "D5",
          "ticks": 8400,
          "time": 7,
          "velocity": 0.8267716535433071
        },
        {
          "duration": 0.06666666666666554,
          "durationTicks": 80,
          "midi": 76,
          "name": "E5",
          "ticks": 8480,
          "time": 7.066666666666667,
          "velocity": 0.8267716535433071
        },
        {
          "duration": 0.06666666666666732,
          "durationTicks": 80,
          "midi": 78,
          "name": "F#5",
          "ticks": 8560,
          "time": 7.133333333333333,
          "velocity": 0.8267716535433071
        },
        {
          "duration": 0.33333333333333304,
          "durationTicks": 400,
          "midi": 79,
          "name": "G5",
          "ticks": 8640,
          "time": 7.2,
          "velocity": 0.8267716535433071
        },
        {
          "duration": 0.06666666666666643,
          "durationTicks": 80,
          "midi": 74,
          "name": "D5",
          "ticks": 9360,
          "time": 7.800000000000001,
          "velocity": 0.8267716535433071
        },
        {
          "duration": 0.06666666666666643,
          "durationTicks": 80,
          "midi": 76,
          "name": "E5",
          "ticks": 9440,
          "time": 7.866666666666667,
          "velocity": 0.8267716535433071
        },
        {
          "duration": 0.06666666666666643,
          "durationTicks": 80,
          "midi": 78,
          "name": "F#5",
          "ticks": 9520,
          "time": 7.933333333333334,
          "velocity": 0.8267716535433071
        },
        {
          "duration": 0.3333333333333339,
          "durationTicks": 400,
          "midi": 79,
          "name": "G5",
          "ticks": 9600,
          "time": 8,
          "velocity": 0.8267716535433071
        },
        {
          "duration": 0.3333333333333339,
          "durationTicks": 400,
          "midi": 84,
          "name": "C6",
          "ticks": 15360,
          "time": 12.8,
          "velocity": 0.8267716535433071
        },
        {
          "duration": 0.29666666666666686,
          "durationTicks": 356,
          "midi": 84,
          "name": "C6",
          "ticks": 15840,
          "time": 13.200000000000001,
          "velocity": 0.8267716535433071
        },
        {
          "duration": 0.09666666666666757,
          "durationTicks": 116,
          "midi": 84,
          "name": "C6",
          "ticks": 16200,
          "time": 13.5,
          "velocity": 0.8267716535433071
        },
        {
          "duration": 0.3333333333333339,
          "durationTicks": 400,
          "midi": 84,
          "name": "C6",
          "ticks": 16320,
          "time": 13.600000000000001,
          "velocity": 0.8267716535433071
        },
        {
          "duration": 0.3333333333333357,
          "durationTicks": 400,
          "midi": 84,
          "name": "C6",
          "ticks": 16800,
          "time": 14,
          "velocity": 0.8267716535433071
        },
        {
          "duration": 0.3333333333333339,
          "durationTicks": 400,
          "midi": 81,
          "name": "A5",
          "ticks": 17280,
          "time": 14.4,
          "velocity": 0.8267716535433071
        },
        {
          "duration": 0.29666666666666686,
          "durationTicks": 356,
          "midi": 81,
          "name": "A5",
          "ticks": 17760,
          "time": 14.8,
          "velocity": 0.8267716535433071
        },
        {
          "duration": 0.09666666666666579,
          "durationTicks": 116,
          "midi": 81,
          "name": "A5",
          "ticks": 18120,
          "time": 15.100000000000001,
          "velocity": 0.8267716535433071
        },
        {
          "duration": 0.3333333333333339,
          "durationTicks": 400,
          "midi": 81,
          "name": "A5",
          "ticks": 18240,
          "time": 15.200000000000001,
          "velocity": 0.8267716535433071
        },
        {
          "duration": 0.3333333333333339,
          "durationTicks": 400,
          "midi": 81,
          "name": "A5",
          "ticks": 18720,
          "time": 15.600000000000001,
          "velocity": 0.8267716535433071
        },
        {
          "duration": 0.3333333333333357,
          "durationTicks": 400,
          "midi": 83,
          "name": "B5",
          "ticks": 19200,
          "time": 16,
          "velocity": 0.8267716535433071
        },
        {
          "duration": 0.29666666666666686,
          "durationTicks": 356,
          "midi": 83,
          "name": "B5",
          "ticks": 19680,
          "time": 16.400000000000002,
          "velocity": 0.8267716535433071
        },
        {
          "duration": 0.09666666666666757,
          "durationTicks": 116,
          "midi": 83,
          "name": "B5",
          "ticks": 20040,
          "time": 16.7,
          "velocity": 0.8267716535433071
        },
        {
          "duration": 0.3333333333333357,
          "durationTicks": 400,
          "midi": 83,
          "name": "B5",
          "ticks": 20160,
          "time": 16.8,
          "velocity": 0.8267716535433071
        },
        {
          "duration": 0.3333333333333357,
          "durationTicks": 400,
          "midi": 83,
          "name": "B5",
          "ticks": 20640,
          "time": 17.2,
          "velocity": 0.8267716535433071
        },
        {
          "duration": 0.33333333333333215,
          "durationTicks": 400,
          "midi": 84,
          "name": "C6",
          "ticks": 21120,
          "time": 17.6,
          "velocity": 0.8267716535433071
        },
        {
          "duration": 0.29666666666666686,
          "durationTicks": 356,
          "midi": 84,
          "name": "C6",
          "ticks": 21600,
          "time": 18,
          "velocity": 0.8267716535433071
        },
        {
          "duration": 0.09666666666666757,
          "durationTicks": 116,
          "midi": 84,
          "name": "C6",
          "ticks": 21960,
          "time": 18.3,
          "velocity": 0.8267716535433071
        },
        {
          "duration": 0.33333333333333215,
          "durationTicks": 400,
          "midi": 84,
          "name": "C6",
          "ticks": 22080,
          "time": 18.400000000000002,
          "velocity": 0.8267716535433071
        },
        {
          "duration": 0.3333333333333357,
          "durationTicks": 400,
          "midi": 84,
          "name": "C6",
          "ticks": 22560,
          "time": 18.8,
          "velocity": 0.8267716535433071
        },
        {
          "duration": 0.33333333333333215,
          "durationTicks": 400,
          "midi": 81,
          "name": "A5",
          "ticks": 23040,
          "time": 19.200000000000003,
          "velocity": 0.8267716535433071
        },
        {
          "duration": 0.29666666666666686,
          "durationTicks": 356,
          "midi": 81,
          "name": "A5",
          "ticks": 23520,
          "time": 19.6,
          "velocity": 0.8267716535433071
        },
        {
          "duration": 0.09666666666666757,
          "durationTicks": 116,
          "midi": 81,
          "name": "A5",
          "ticks": 23880,
          "time": 19.900000000000002,
          "velocity": 0.8267716535433071
        },
        {
          "duration": 0.3333333333333357,
          "durationTicks": 400,
          "midi": 81,
          "name": "A5",
          "ticks": 24000,
          "time": 20,
          "velocity": 0.8267716535433071
        },
        {
          "duration": 0.33333333333333215,
          "durationTicks": 400,
          "midi": 81,
          "name": "A5",
          "ticks": 24480,
          "time": 20.400000000000002,
          "velocity": 0.8267716535433071
        },
        {
          "duration": 0.3333333333333357,
          "durationTicks": 400,
          "midi": 83,
          "name": "B5",
          "ticks": 24960,
          "time": 20.8,
          "velocity": 0.8267716535433071
        },
        {
          "duration": 0.29666666666666686,
          "durationTicks": 356,
          "midi": 83,
          "name": "B5",
          "ticks": 25440,
          "time": 21.200000000000003,
          "velocity": 0.8267716535433071
        },
        {
          "duration": 0.09666666666666757,
          "durationTicks": 116,
          "midi": 83,
          "name": "B5",
          "ticks": 25800,
          "time": 21.5,
          "velocity": 0.8267716535433071
        },
        {
          "duration": 0.3333333333333357,
          "durationTicks": 400,
          "midi": 83,
          "name": "B5",
          "ticks": 25920,
          "time": 21.6,
          "velocity": 0.8267716535433071
        },
        {
          "duration": 0.3333333333333357,
          "durationTicks": 400,
          "midi": 83,
          "name": "B5",
          "ticks": 26400,
          "time": 22,
          "velocity": 0.8267716535433071
        },
        {
          "duration": 0.33333333333333215,
          "durationTicks": 400,
          "midi": 84,
          "name": "C6",
          "ticks": 26880,
          "time": 22.400000000000002,
          "velocity": 0.8267716535433071
        },
        {
          "duration": 0.3333333333333357,
          "durationTicks": 400,
          "midi": 84,
          "name": "C6",
          "ticks": 27360,
          "time": 22.8,
          "velocity": 0.8267716535433071
        },
        {
          "duration": 0.3333333333333357,
          "durationTicks": 400,
          "midi": 83,
          "name": "B5",
          "ticks": 28320,
          "time": 23.6,
          "velocity": 0.8267716535433071
        },
        {
          "duration": 0.33333333333333215,
          "durationTicks": 400,
          "midi": 84,
          "name": "C6",
          "ticks": 29280,
          "time": 24.400000000000002,
          "velocity": 0.8267716535433071
        },
        {
          "duration": 0.33333333333333215,
          "durationTicks": 400,
          "midi": 83,
          "name": "B5",
          "ticks": 30240,
          "time": 25.200000000000003,
          "velocity": 0.8267716535433071
        },
        {
          "duration": 0.33333333333333215,
          "durationTicks": 400,
          "midi": 84,
          "name": "C6",
          "ticks": 30720,
          "time": 25.6,
          "velocity": 0.8267716535433071
        },
        {
          "duration": 0.19666666666666544,
          "durationTicks": 236,
          "midi": 79,
          "name": "G5",
          "ticks": 31200,
          "time": 26,
          "velocity": 0.8267716535433071
        },
        {
          "duration": 0.19666666666666188,
          "durationTicks": 236,
          "midi": 79,
          "name": "G5",
          "ticks": 31440,
          "time": 26.200000000000003,
          "velocity": 0.8267716535433071
        },
        {
          "duration": 0.19666666666666188,
          "durationTicks": 236,
          "midi": 84,
          "name": "C6",
          "ticks": 31680,
          "time": 26.400000000000002,
          "velocity": 0.8267716535433071
        },
        {
          "duration": 0.19666666666666544,
          "durationTicks": 236,
          "midi": 84,
          "name": "C6",
          "ticks": 31920,
          "time": 26.6,
          "velocity": 0.8267716535433071
        },
        {
          "duration": 0.19666666666666544,
          "durationTicks": 236,
          "midi": 79,
          "name": "G5",
          "ticks": 32160,
          "time": 26.8,
          "velocity": 0.8267716535433071
        },
        {
          "duration": 0.19666666666666544,
          "durationTicks": 236,
          "midi": 79,
          "name": "G5",
          "ticks": 32400,
          "time": 27,
          "velocity": 0.8267716535433071
        },
        {
          "duration": 0.19666666666666188,
          "durationTicks": 236,
          "midi": 84,
          "name": "C6",
          "ticks": 32640,
          "time": 27.200000000000003,
          "velocity": 0.8267716535433071
        },
        {
          "duration": 0.19666666666666188,
          "durationTicks": 236,
          "midi": 84,
          "name": "C6",
          "ticks": 32880,
          "time": 27.400000000000002,
          "velocity": 0.8267716535433071
        },
        {
          "duration": 0.19666666666666544,
          "durationTicks": 236,
          "midi": 79,
          "name": "G5",
          "ticks": 33120,
          "time": 27.6,
          "velocity": 0.8267716535433071
        },
        {
          "duration": 0.19666666666666544,
          "durationTicks": 236,
          "midi": 79,
          "name": "G5",
          "ticks": 33360,
          "time": 27.8,
          "velocity": 0.8267716535433071
        },
        {
          "duration": 0.19666666666666544,
          "durationTicks": 236,
          "midi": 76,
          "name": "E5",
          "ticks": 33600,
          "time": 28,
          "velocity": 0.8267716535433071
        },
        {
          "duration": 0.19666666666666188,
          "durationTicks": 236,
          "midi": 76,
          "name": "E5",
          "ticks": 33840,
          "time": 28.200000000000003,
          "velocity": 0.8267716535433071
        },
        {
          "duration": 0.19666666666666188,
          "durationTicks": 236,
          "midi": 72,
          "name": "C5",
          "ticks": 34080,
          "time": 28.400000000000002,
          "velocity": 0.8267716535433071
        },
        {
          "duration": 0.19666666666666544,
          "durationTicks": 236,
          "midi": 72,
          "name": "C5",
          "ticks": 34320,
          "time": 28.6,
          "velocity": 0.8267716535433071
        },
        {
          "duration": 0.33333333333333215,
          "durationTicks": 400,
          "midi": 67,
          "name": "G4",
          "ticks": 34560,
          "time": 28.8,
          "velocity": 0.8267716535433071
        },
        {
          "duration": 0.3333333333333286,
          "durationTicks": 400,
          "midi": 83,
          "name": "B5",
          "ticks": 35040,
          "time": 29.200000000000003,
          "velocity": 0.8267716535433071
        },
        {
          "duration": 0.33333333333333215,
          "durationTicks": 400,
          "midi": 84,
          "name": "C6",
          "ticks": 36000,
          "time": 30,
          "velocity": 0.8267716535433071
        },
        {
          "duration": 0.33333333333333215,
          "durationTicks": 400,
          "midi": 83,
          "name": "B5",
          "ticks": 36960,
          "time": 30.8,
          "velocity": 0.8267716535433071
        },
        {
          "duration": 0.33333333333333215,
          "durationTicks": 400,
          "midi": 84,
          "name": "C6",
          "ticks": 37920,
          "time": 31.6,
          "velocity": 0.8267716535433071
        },
        {
          "duration": 0.19666666666666544,
          "durationTicks": 236,
          "midi": 83,
          "name": "B5",
          "ticks": 38400,
          "time": 32,
          "velocity": 0.8267716535433071
        },
        {
          "duration": 0.19666666666666544,
          "durationTicks": 236,
          "midi": 84,
          "name": "C6",
          "ticks": 38640,
          "time": 32.2,
          "velocity": 0.8346456692913385
        },
        {
          "duration": 0.19666666666666544,
          "durationTicks": 236,
          "midi": 83,
          "name": "B5",
          "ticks": 38880,
          "time": 32.4,
          "velocity": 0.8503937007874016
        },
        {
          "duration": 0.19666666666666544,
          "durationTicks": 236,
          "midi": 84,
          "name": "C6",
          "ticks": 39120,
          "time": 32.6,
          "velocity": 0.8582677165354331
        },
        {
          "duration": 0.19666666666665833,
          "durationTicks": 236,
          "midi": 83,
          "name": "B5",
          "ticks": 39360,
          "time": 32.800000000000004,
          "velocity": 0.8661417322834646
        },
        {
          "duration": 0.19666666666666544,
          "durationTicks": 236,
          "midi": 84,
          "name": "C6",
          "ticks": 39600,
          "time": 33,
          "velocity": 0.8740157480314961
        },
        {
          "duration": 0.19666666666666544,
          "durationTicks": 236,
          "midi": 83,
          "name": "B5",
          "ticks": 39840,
          "time": 33.2,
          "velocity": 0.8818897637795275
        },
        {
          "duration": 0.19666666666666544,
          "durationTicks": 236,
          "midi": 84,
          "name": "C6",
          "ticks": 40080,
          "time": 33.4,
          "velocity": 0.889763779527559
        },
        {
          "duration": 0.3333333333333286,
          "durationTicks": 400,
          "midi": 83,
          "name": "B5",
          "ticks": 40320,
          "time": 33.6,
          "velocity": 0.905511811023622
        },
        {
          "duration": 0.3333333333333357,
          "durationTicks": 400,
          "midi": 79,
          "name": "G5",
          "ticks": 41280,
          "time": 34.4,
          "velocity": 0.937007874015748
        },
        {
          "duration": 0.3333333333333286,
          "durationTicks": 400,
          "midi": 79,
          "name": "G5",
          "ticks": 41760,
          "time": 34.800000000000004,
          "velocity": 0.952755905511811
        },
        {
          "duration": 1.5,
          "durationTicks": 1800,
          "midi": 79,
          "name": "G5",
          "ticks": 42240,
          "time": 35.2,
          "velocity": 0.9763779527559056
        },
        {
          "duration": 0.7999999999999972,
          "durationTicks": 960,
          "midi": 72,
          "name": "C5",
          "ticks": 44160,
          "time": 36.800000000000004,
          "velocity": 0.4015748031496063
        },
        {
          "duration": 0.9966666666666626,
          "durationTicks": 1196,
          "midi": 84,
          "name": "C6",
          "ticks": 45120,
          "time": 37.6,
          "velocity": 0.4015748031496063
        },
        {
          "duration": 0.06666666666666998,
          "durationTicks": 80,
          "midi": 83,
          "name": "B5",
          "ticks": 46320,
          "time": 38.6,
          "velocity": 0.4015748031496063
        },
        {
          "duration": 0.06666666666666998,
          "durationTicks": 80,
          "midi": 81,
          "name": "A5",
          "ticks": 46560,
          "time": 38.800000000000004,
          "velocity": 0.4015748031496063
        },
        {
          "duration": 0.06666666666666998,
          "durationTicks": 80,
          "midi": 79,
          "name": "G5",
          "ticks": 46800,
          "time": 39,
          "velocity": 0.4015748031496063
        },
        {
          "duration": 0.06666666666666998,
          "durationTicks": 80,
          "midi": 77,
          "name": "F5",
          "ticks": 47040,
          "time": 39.2,
          "velocity": 0.4015748031496063
        },
        {
          "duration": 0.06666666666666288,
          "durationTicks": 80,
          "midi": 76,
          "name": "E5",
          "ticks": 47280,
          "time": 39.400000000000006,
          "velocity": 0.4015748031496063
        },
        {
          "duration": 0.06666666666666998,
          "durationTicks": 80,
          "midi": 74,
          "name": "D5",
          "ticks": 47520,
          "time": 39.6,
          "velocity": 0.4015748031496063
        },
        {
          "duration": 0.06666666666666998,
          "durationTicks": 80,
          "midi": 72,
          "name": "C5",
          "ticks": 47760,
          "time": 39.800000000000004,
          "velocity": 0.4015748031496063
        },
        {
          "duration": 0.8000000000000043,
          "durationTicks": 960,
          "midi": 77,
          "name": "F5",
          "ticks": 48000,
          "time": 40,
          "velocity": 0.4015748031496063
        },
        {
          "duration": 0.6999999999999957,
          "durationTicks": 840,
          "midi": 76,
          "name": "E5",
          "ticks": 48960,
          "time": 40.800000000000004,
          "velocity": 0.4015748031496063
        },
        {
          "duration": 1.1000000000000014,
          "durationTicks": 1320,
          "midi": 74,
          "name": "D5",
          "ticks": 49920,
          "time": 41.6,
          "velocity": 0.4015748031496063
        },
        {
          "duration": 0.7999999999999972,
          "durationTicks": 960,
          "midi": 74,
          "name": "D5",
          "ticks": 51840,
          "time": 43.2,
          "velocity": 0.4015748031496063
        },
        {
          "duration": 0.9966666666666697,
          "durationTicks": 1196,
          "midi": 86,
          "name": "D6",
          "ticks": 52800,
          "time": 44,
          "velocity": 0.4015748031496063
        },
        {
          "duration": 0.06666666666666998,
          "durationTicks": 80,
          "midi": 84,
          "name": "C6",
          "ticks": 54000,
          "time": 45,
          "velocity": 0.4015748031496063
        },
        {
          "duration": 0.06666666666666998,
          "durationTicks": 80,
          "midi": 83,
          "name": "B5",
          "ticks": 54240,
          "time": 45.2,
          "velocity": 0.4015748031496063
        },
        {
          "duration": 0.06666666666666288,
          "durationTicks": 80,
          "midi": 81,
          "name": "A5",
          "ticks": 54480,
          "time": 45.400000000000006,
          "velocity": 0.4015748031496063
        },
        {
          "duration": 0.06666666666666998,
          "durationTicks": 80,
          "midi": 79,
          "name": "G5",
          "ticks": 54720,
          "time": 45.6,
          "velocity": 0.4015748031496063
        },
        {
          "duration": 0.06666666666666998,
          "durationTicks": 80,
          "midi": 77,
          "name": "F5",
          "ticks": 54960,
          "time": 45.800000000000004,
          "velocity": 0.4015748031496063
        },
        {
          "duration": 0.06666666666666998,
          "durationTicks": 80,
          "midi": 76,
          "name": "E5",
          "ticks": 55200,
          "time": 46,
          "velocity": 0.4015748031496063
        },
        {
          "duration": 0.06666666666666998,
          "durationTicks": 80,
          "midi": 74,
          "name": "D5",
          "ticks": 55440,
          "time": 46.2,
          "velocity": 0.4015748031496063
        },
        {
          "duration": 0.7999999999999972,
          "durationTicks": 960,
          "midi": 82,
          "name": "A#5",
          "ticks": 55680,
          "time": 46.400000000000006,
          "velocity": 0.4015748031496063
        },
        {
          "duration": 0.7000000000000028,
          "durationTicks": 840,
          "midi": 81,
          "name": "A5",
          "ticks": 56640,
          "time": 47.2,
          "velocity": 0.4015748031496063
        },
        {
          "duration": 0.10000000000000142,
          "durationTicks": 120,
          "midi": 79,
          "name": "G5",
          "ticks": 57600,
          "time": 48,
          "velocity": 0.4015748031496063
        },
        {
          "duration": 0.09999999999999432,
          "durationTicks": 120,
          "midi": 79,
          "name": "G5",
          "ticks": 58080,
          "time": 48.400000000000006,
          "velocity": 0.4015748031496063
        },
        {
          "duration": 0.10000000000000142,
          "durationTicks": 120,
          "midi": 79,
          "name": "G5",
          "ticks": 58560,
          "time": 48.800000000000004,
          "velocity": 0.4015748031496063
        },
        {
          "duration": 0.10000000000000142,
          "durationTicks": 120,
          "midi": 81,
          "name": "A5",
          "ticks": 59520,
          "time": 49.6,
          "velocity": 0.4015748031496063
        },
        {
          "duration": 0.10000000000000142,
          "durationTicks": 120,
          "midi": 81,
          "name": "A5",
          "ticks": 60000,
          "time": 50,
          "velocity": 0.4015748031496063
        },
        {
          "duration": 0.09999999999999432,
          "durationTicks": 120,
          "midi": 81,
          "name": "A5",
          "ticks": 60480,
          "time": 50.400000000000006,
          "velocity": 0.4015748031496063
        },
        {
          "duration": 0.10000000000000142,
          "durationTicks": 120,
          "midi": 77,
          "name": "F5",
          "ticks": 61440,
          "time": 51.2,
          "velocity": 0.4015748031496063
        },
        {
          "duration": 0.10000000000000142,
          "durationTicks": 120,
          "midi": 77,
          "name": "F5",
          "ticks": 61920,
          "time": 51.6,
          "velocity": 0.4015748031496063
        },
        {
          "duration": 0.10000000000000142,
          "durationTicks": 120,
          "midi": 77,
          "name": "F5",
          "ticks": 62400,
          "time": 52,
          "velocity": 0.4015748031496063
        },
        {
          "duration": 0.10000000000000142,
          "durationTicks": 120,
          "midi": 79,
          "name": "G5",
          "ticks": 63360,
          "time": 52.800000000000004,
          "velocity": 0.4015748031496063
        },
        {
          "duration": 0.10000000000000142,
          "durationTicks": 120,
          "midi": 79,
          "name": "G5",
          "ticks": 63840,
          "time": 53.2,
          "velocity": 0.4015748031496063
        },
        {
          "duration": 0.10000000000000142,
          "durationTicks": 120,
          "midi": 79,
          "name": "G5",
          "ticks": 64320,
          "time": 53.6,
          "velocity": 0.4015748031496063
        },
        {
          "duration": 0.7000000000000028,
          "durationTicks": 840,
          "midi": 79,
          "name": "G5",
          "ticks": 69120,
          "time": 57.6,
          "velocity": 0.9763779527559056
        },
        {
          "duration": 0.86666666666666,
          "durationTicks": 1040,
          "midi": 91,
          "name": "G6",
          "ticks": 70080,
          "time": 58.400000000000006,
          "velocity": 0.9763779527559056
        },
        {
          "duration": 0.06666666666666288,
          "durationTicks": 80,
          "midi": 90,
          "name": "F#6",
          "ticks": 71280,
          "time": 59.400000000000006,
          "velocity": 0.9763779527559056
        },
        {
          "duration": 0.06666666666666288,
          "durationTicks": 80,
          "midi": 88,
          "name": "E6",
          "ticks": 71520,
          "time": 59.6,
          "velocity": 0.9763779527559056
        },
        {
          "duration": 0.06666666666666288,
          "durationTicks": 80,
          "midi": 86,
          "name": "D6",
          "ticks": 71760,
          "time": 59.800000000000004,
          "velocity": 0.9763779527559056
        },
        {
          "duration": 0.06666666666666288,
          "durationTicks": 80,
          "midi": 84,
          "name": "C6",
          "ticks": 72000,
          "time": 60,
          "velocity": 0.9763779527559056
        },
        {
          "duration": 0.06666666666666288,
          "durationTicks": 80,
          "midi": 83,
          "name": "B5",
          "ticks": 72240,
          "time": 60.2,
          "velocity": 0.9763779527559056
        },
        {
          "duration": 0.06666666666666288,
          "durationTicks": 80,
          "midi": 81,
          "name": "A5",
          "ticks": 72480,
          "time": 60.400000000000006,
          "velocity": 0.9763779527559056
        },
        {
          "duration": 0.06666666666666288,
          "durationTicks": 80,
          "midi": 79,
          "name": "G5",
          "ticks": 72720,
          "time": 60.6,
          "velocity": 0.9763779527559056
        },
        {
          "duration": 12.300000000000004,
          "durationTicks": 14760,
          "midi": 91,
          "name": "G6",
          "ticks": 72960,
          "time": 60.800000000000004,
          "velocity": 0.9763779527559056
        },
        {
          "duration": 0.3333333333333428,
          "durationTicks": 400,
          "midi": 83,
          "name": "B5",
          "ticks": 87840,
          "time": 73.2,
          "velocity": 0.9763779527559056
        },
        {
          "duration": 0.3333333333333286,
          "durationTicks": 400,
          "midi": 81,
          "name": "A5",
          "ticks": 88320,
          "time": 73.60000000000001,
          "velocity": 0.9763779527559056
        },
        {
          "duration": 0.3333333333333428,
          "durationTicks": 400,
          "midi": 80,
          "name": "G#5",
          "ticks": 88800,
          "time": 74,
          "velocity": 0.9763779527559056
        },
        {
          "duration": 0.3333333333333286,
          "durationTicks": 400,
          "midi": 81,
          "name": "A5",
          "ticks": 89280,
          "time": 74.4,
          "velocity": 0.9763779527559056
        },
        {
          "duration": 0.3333333333333428,
          "durationTicks": 400,
          "midi": 80,
          "name": "G#5",
          "ticks": 89760,
          "time": 74.8,
          "velocity": 0.9763779527559056
        },
        {
          "duration": 0.3333333333333428,
          "durationTicks": 400,
          "midi": 81,
          "name": "A5",
          "ticks": 90240,
          "time": 75.2,
          "velocity": 0.9763779527559056
        },
        {
          "duration": 0.3333333333333286,
          "durationTicks": 400,
          "midi": 84,
          "name": "C6",
          "ticks": 90720,
          "time": 75.60000000000001,
          "velocity": 0.9763779527559056
        },
        {
          "duration": 0.3333333333333428,
          "durationTicks": 400,
          "midi": 81,
          "name": "A5",
          "ticks": 91200,
          "time": 76,
          "velocity": 0.9763779527559056
        },
        {
          "duration": 0.3333333333333286,
          "durationTicks": 400,
          "midi": 79,
          "name": "G5",
          "ticks": 91680,
          "time": 76.4,
          "velocity": 0.9763779527559056
        },
        {
          "duration": 0.3333333333333286,
          "durationTicks": 400,
          "midi": 78,
          "name": "F#5",
          "ticks": 92160,
          "time": 76.80000000000001,
          "velocity": 0.9763779527559056
        },
        {
          "duration": 0.29666666666666686,
          "durationTicks": 356,
          "midi": 86,
          "name": "D6",
          "ticks": 92640,
          "time": 77.2,
          "velocity": 0.9763779527559056
        },
        {
          "duration": 0.09666666666667822,
          "durationTicks": 116,
          "midi": 86,
          "name": "D6",
          "ticks": 93000,
          "time": 77.5,
          "velocity": 0.9763779527559056
        },
        {
          "duration": 0.3333333333333286,
          "durationTicks": 400,
          "midi": 86,
          "name": "D6",
          "ticks": 93120,
          "time": 77.60000000000001,
          "velocity": 0.9763779527559056
        },
        {
          "duration": 0.3333333333333428,
          "durationTicks": 400,
          "midi": 86,
          "name": "D6",
          "ticks": 93600,
          "time": 78,
          "velocity": 0.9763779527559056
        },
        {
          "duration": 0.3333333333333428,
          "durationTicks": 400,
          "midi": 86,
          "name": "D6",
          "ticks": 94080,
          "time": 78.4,
          "velocity": 0.9763779527559056
        },
        {
          "duration": 0.29666666666666686,
          "durationTicks": 356,
          "midi": 86,
          "name": "D6",
          "ticks": 94560,
          "time": 78.80000000000001,
          "velocity": 0.9763779527559056
        },
        {
          "duration": 0.09666666666666401,
          "durationTicks": 116,
          "midi": 86,
          "name": "D6",
          "ticks": 94920,
          "time": 79.10000000000001,
          "velocity": 0.9763779527559056
        },
        {
          "duration": 0.3333333333333428,
          "durationTicks": 400,
          "midi": 86,
          "name": "D6",
          "ticks": 95040,
          "time": 79.2,
          "velocity": 0.9763779527559056
        },
        {
          "duration": 0.3333333333333286,
          "durationTicks": 400,
          "midi": 86,
          "name": "D6",
          "ticks": 95520,
          "time": 79.60000000000001,
          "velocity": 0.9763779527559056
        },
        {
          "duration": 0.3333333333333428,
          "durationTicks": 400,
          "midi": 86,
          "name": "D6",
          "ticks": 96000,
          "time": 80,
          "velocity": 0.9763779527559056
        },
        {
          "duration": 0.29666666666666686,
          "durationTicks": 356,
          "midi": 86,
          "name": "D6",
          "ticks": 96480,
          "time": 80.4,
          "velocity": 0.9763779527559056
        },
        {
          "duration": 0.09666666666667822,
          "durationTicks": 116,
          "midi": 86,
          "name": "D6",
          "ticks": 96840,
          "time": 80.7,
          "velocity": 0.9763779527559056
        },
        {
          "duration": 0.3333333333333286,
          "durationTicks": 400,
          "midi": 86,
          "name": "D6",
          "ticks": 96960,
          "time": 80.80000000000001,
          "velocity": 0.9763779527559056
        },
        {
          "duration": 0.3333333333333428,
          "durationTicks": 400,
          "midi": 86,
          "name": "D6",
          "ticks": 97440,
          "time": 81.2,
          "velocity": 0.9763779527559056
        },
        {
          "duration": 0.3333333333333286,
          "durationTicks": 400,
          "midi": 86,
          "name": "D6",
          "ticks": 97920,
          "time": 81.60000000000001,
          "velocity": 0.9763779527559056
        },
        {
          "duration": 0.29666666666668107,
          "durationTicks": 356,
          "midi": 86,
          "name": "D6",
          "ticks": 98400,
          "time": 82,
          "velocity": 0.9763779527559056
        },
        {
          "duration": 0.09666666666666401,
          "durationTicks": 116,
          "midi": 86,
          "name": "D6",
          "ticks": 98760,
          "time": 82.30000000000001,
          "velocity": 0.9763779527559056
        },
        {
          "duration": 0.3333333333333428,
          "durationTicks": 400,
          "midi": 86,
          "name": "D6",
          "ticks": 98880,
          "time": 82.4,
          "velocity": 0.9763779527559056
        },
        {
          "duration": 0.3333333333333286,
          "durationTicks": 400,
          "midi": 86,
          "name": "D6",
          "ticks": 99360,
          "time": 82.80000000000001,
          "velocity": 0.9763779527559056
        },
        {
          "duration": 0.3333333333333428,
          "durationTicks": 400,
          "midi": 86,
          "name": "D6",
          "ticks": 99840,
          "time": 83.2,
          "velocity": 0.9763779527559056
        },
        {
          "duration": 0.3333333333333286,
          "durationTicks": 400,
          "midi": 86,
          "name": "D6",
          "ticks": 100320,
          "time": 83.60000000000001,
          "velocity": 0.9763779527559056
        },
        {
          "duration": 0.3333333333333428,
          "durationTicks": 400,
          "midi": 86,
          "name": "D6",
          "ticks": 101280,
          "time": 84.4,
          "velocity": 0.9763779527559056
        },
        {
          "duration": 0.3333333333333428,
          "durationTicks": 400,
          "midi": 86,
          "name": "D6",
          "ticks": 102240,
          "time": 85.2,
          "velocity": 0.9763779527559056
        },
        {
          "duration": 0.3333333333333428,
          "durationTicks": 400,
          "midi": 86,
          "name": "D6",
          "ticks": 103200,
          "time": 86,
          "velocity": 0.9763779527559056
        },
        {
          "duration": 0.3333333333333428,
          "durationTicks": 400,
          "midi": 86,
          "name": "D6",
          "ticks": 103680,
          "time": 86.4,
          "velocity": 0.9763779527559056
        },
        {
          "duration": 0.29999999999999716,
          "durationTicks": 360,
          "midi": 83,
          "name": "B5",
          "ticks": 128160,
          "time": 106.80000000000001,
          "velocity": 0.5433070866141733
        },
        {
          "duration": 0.09666666666666401,
          "durationTicks": 116,
          "midi": 84,
          "name": "C6",
          "ticks": 128520,
          "time": 107.10000000000001,
          "velocity": 0.5433070866141733
        },
        {
          "duration": 0.06666666666667709,
          "durationTicks": 80,
          "midi": 86,
          "name": "D6",
          "ticks": 128640,
          "time": 107.2,
          "velocity": 0.5433070866141733
        },
        {
          "duration": 0.29999999999999716,
          "durationTicks": 360,
          "midi": 86,
          "name": "D6",
          "ticks": 129120,
          "time": 107.60000000000001,
          "velocity": 0.5433070866141733
        },
        {
          "duration": 0.09666666666666401,
          "durationTicks": 116,
          "midi": 88,
          "name": "E6",
          "ticks": 129480,
          "time": 107.9,
          "velocity": 0.5433070866141733
        },
        {
          "duration": 0.06666666666667709,
          "durationTicks": 80,
          "midi": 84,
          "name": "C6",
          "ticks": 129600,
          "time": 108,
          "velocity": 0.5433070866141733
        },
        {
          "duration": 0.29999999999999716,
          "durationTicks": 360,
          "midi": 84,
          "name": "C6",
          "ticks": 130080,
          "time": 108.4,
          "velocity": 0.5433070866141733
        },
        {
          "duration": 0.09666666666667822,
          "durationTicks": 116,
          "midi": 86,
          "name": "D6",
          "ticks": 130440,
          "time": 108.7,
          "velocity": 0.5433070866141733
        },
        {
          "duration": 0.09999999999999432,
          "durationTicks": 120,
          "midi": 83,
          "name": "B5",
          "ticks": 130560,
          "time": 108.80000000000001,
          "velocity": 0.5433070866141733
        },
        {
          "duration": 0.10000000000000853,
          "durationTicks": 120,
          "midi": 83,
          "name": "B5",
          "ticks": 131040,
          "time": 109.2,
          "velocity": 0.5433070866141733
        },
        {
          "duration": 0.20000000000000284,
          "durationTicks": 240,
          "midi": 83,
          "name": "B5",
          "ticks": 131520,
          "time": 109.60000000000001,
          "velocity": 0.5433070866141733
        },
        {
          "duration": 0.19999999999998863,
          "durationTicks": 240,
          "midi": 86,
          "name": "D6",
          "ticks": 131760,
          "time": 109.80000000000001,
          "velocity": 0.5433070866141733
        },
        {
          "duration": 0.20000000000000284,
          "durationTicks": 240,
          "midi": 84,
          "name": "C6",
          "ticks": 132000,
          "time": 110,
          "velocity": 0.5433070866141733
        },
        {
          "duration": 0.19666666666667254,
          "durationTicks": 236,
          "midi": 81,
          "name": "A5",
          "ticks": 132240,
          "time": 110.2,
          "velocity": 0.5433070866141733
        },
        {
          "duration": 1.2000000000000028,
          "durationTicks": 1440,
          "midi": 79,
          "name": "G5",
          "ticks": 132480,
          "time": 110.4,
          "velocity": 0.5433070866141733
        },
        {
          "duration": 0.20000000000000284,
          "durationTicks": 240,
          "midi": 83,
          "name": "B5",
          "ticks": 133920,
          "time": 111.60000000000001,
          "velocity": 0.5433070866141733
        },
        {
          "duration": 0.19666666666665833,
          "durationTicks": 236,
          "midi": 81,
          "name": "A5",
          "ticks": 134160,
          "time": 111.80000000000001,
          "velocity": 0.5433070866141733
        },
        {
          "duration": 0.3333333333333286,
          "durationTicks": 400,
          "midi": 79,
          "name": "G5",
          "ticks": 134400,
          "time": 112,
          "velocity": 0.5433070866141733
        },
        {
          "duration": 1.5,
          "durationTicks": 1800,
          "midi": 87,
          "name": "D#6",
          "ticks": 153600,
          "time": 128,
          "velocity": 0.8267716535433071
        },
        {
          "duration": 0.04666666666668107,
          "durationTicks": 56,
          "midi": 86,
          "name": "D6",
          "ticks": 155520,
          "time": 129.6,
          "velocity": 0.8267716535433071
        },
        {
          "duration": 0.6833333333333371,
          "durationTicks": 820,
          "midi": 87,
          "name": "D#6",
          "ticks": 155580,
          "time": 129.65,
          "velocity": 0.8267716535433071
        },
        {
          "duration": 0.04666666666668107,
          "durationTicks": 56,
          "midi": 86,
          "name": "D6",
          "ticks": 156480,
          "time": 130.4,
          "velocity": 0.8267716535433071
        },
        {
          "duration": 0.6833333333333087,
          "durationTicks": 820,
          "midi": 87,
          "name": "D#6",
          "ticks": 156540,
          "time": 130.45000000000002,
          "velocity": 0.8267716535433071
        },
        {
          "duration": 1.5,
          "durationTicks": 1800,
          "midi": 88,
          "name": "E6",
          "ticks": 157440,
          "time": 131.20000000000002,
          "velocity": 0.8267716535433071
        },
        {
          "duration": 1.5,
          "durationTicks": 1800,
          "midi": 89,
          "name": "F6",
          "ticks": 159360,
          "time": 132.8,
          "velocity": 0.8267716535433071
        },
        {
          "duration": 3.0999999999999943,
          "durationTicks": 3720,
          "midi": 88,
          "name": "E6",
          "ticks": 161280,
          "time": 134.4,
          "velocity": 0.8267716535433071
        },
        {
          "duration": 0.3333333333333428,
          "durationTicks": 400,
          "midi": 86,
          "name": "D6",
          "ticks": 165120,
          "time": 137.6,
          "velocity": 0.8267716535433071
        },
        {
          "duration": 0.3333333333333428,
          "durationTicks": 400,
          "midi": 74,
          "name": "D5",
          "ticks": 165600,
          "time": 138,
          "velocity": 0.8267716535433071
        },
        {
          "duration": 0.3333333333333144,
          "durationTicks": 400,
          "midi": 79,
          "name": "G5",
          "ticks": 166080,
          "time": 138.4,
          "velocity": 0.8267716535433071
        },
        {
          "duration": 0.3333333333333144,
          "durationTicks": 400,
          "midi": 83,
          "name": "B5",
          "ticks": 166560,
          "time": 138.8,
          "velocity": 0.8267716535433071
        },
        {
          "duration": 1.0999999999999943,
          "durationTicks": 1320,
          "midi": 86,
          "name": "D6",
          "ticks": 167040,
          "time": 139.20000000000002,
          "velocity": 0.8267716535433071
        },
        {
          "duration": 0.3333333333333144,
          "durationTicks": 400,
          "midi": 90,
          "name": "F#6",
          "ticks": 168480,
          "time": 140.4,
          "velocity": 0.8267716535433071
        },
        {
          "duration": 4.699999999999989,
          "durationTicks": 5640,
          "midi": 91,
          "name": "G6",
          "ticks": 168960,
          "time": 140.8,
          "velocity": 0.8267716535433071
        },
        {
          "duration": 0.700000000000017,
          "durationTicks": 840,
          "midi": 91,
          "name": "G6",
          "ticks": 174720,
          "time": 145.6,
          "velocity": 0.6771653543307087
        },
        {
          "duration": 0.6999999999999886,
          "durationTicks": 840,
          "midi": 91,
          "name": "G6",
          "ticks": 175680,
          "time": 146.4,
          "velocity": 0.6771653543307087
        },
        {
          "duration": 0.39999999999997726,
          "durationTicks": 480,
          "midi": 88,
          "name": "E6",
          "ticks": 176640,
          "time": 147.20000000000002,
          "velocity": 0.6771653543307087
        },
        {
          "duration": 0.8000000000000114,
          "durationTicks": 960,
          "midi": 84,
          "name": "C6",
          "ticks": 177120,
          "time": 147.6,
          "velocity": 0.6771653543307087
        },
        {
          "duration": 0.3333333333333144,
          "durationTicks": 400,
          "midi": 81,
          "name": "A5",
          "ticks": 178080,
          "time": 148.4,
          "velocity": 0.6771653543307087
        },
        {
          "duration": 0.5999999999999943,
          "durationTicks": 720,
          "midi": 83,
          "name": "B5",
          "ticks": 178560,
          "time": 148.8,
          "velocity": 0.6771653543307087
        },
        {
          "duration": 0.19666666666665833,
          "durationTicks": 236,
          "midi": 81,
          "name": "A5",
          "ticks": 179280,
          "time": 149.4,
          "velocity": 0.6771653543307087
        },
        {
          "duration": 0.30000000000001137,
          "durationTicks": 360,
          "midi": 84,
          "name": "C6",
          "ticks": 179520,
          "time": 149.6,
          "velocity": 0.6771653543307087
        },
        {
          "duration": 0.09666666666666401,
          "durationTicks": 116,
          "midi": 83,
          "name": "B5",
          "ticks": 179880,
          "time": 149.9,
          "velocity": 0.6771653543307087
        },
        {
          "duration": 0.30000000000001137,
          "durationTicks": 360,
          "midi": 88,
          "name": "E6",
          "ticks": 180000,
          "time": 150,
          "velocity": 0.6771653543307087
        },
        {
          "duration": 0.09666666666666401,
          "durationTicks": 116,
          "midi": 86,
          "name": "D6",
          "ticks": 180360,
          "time": 150.3,
          "velocity": 0.6771653543307087
        },
        {
          "duration": 0.5999999999999943,
          "durationTicks": 720,
          "midi": 84,
          "name": "C6",
          "ticks": 180480,
          "time": 150.4,
          "velocity": 0.6771653543307087
        },
        {
          "duration": 0.19666666666668675,
          "durationTicks": 236,
          "midi": 83,
          "name": "B5",
          "ticks": 181200,
          "time": 151,
          "velocity": 0.6771653543307087
        },
        {
          "duration": 0.29999999999998295,
          "durationTicks": 360,
          "midi": 86,
          "name": "D6",
          "ticks": 181440,
          "time": 151.20000000000002,
          "velocity": 0.6771653543307087
        },
        {
          "duration": 0.09666666666666401,
          "durationTicks": 116,
          "midi": 84,
          "name": "C6",
          "ticks": 181800,
          "time": 151.5,
          "velocity": 0.6771653543307087
        },
        {
          "duration": 0.30000000000001137,
          "durationTicks": 360,
          "midi": 89,
          "name": "F6",
          "ticks": 181920,
          "time": 151.6,
          "velocity": 0.6771653543307087
        },
        {
          "duration": 0.09666666666666401,
          "durationTicks": 116,
          "midi": 88,
          "name": "E6",
          "ticks": 182280,
          "time": 151.9,
          "velocity": 0.6771653543307087
        },
        {
          "duration": 0.5999999999999943,
          "durationTicks": 720,
          "midi": 86,
          "name": "D6",
          "ticks": 182400,
          "time": 152,
          "velocity": 0.6771653543307087
        },
        {
          "duration": 0.19666666666668675,
          "durationTicks": 236,
          "midi": 85,
          "name": "C#6",
          "ticks": 183120,
          "time": 152.6,
          "velocity": 0.6771653543307087
        },
        {
          "duration": 0.29999999999998295,
          "durationTicks": 360,
          "midi": 88,
          "name": "E6",
          "ticks": 183360,
          "time": 152.8,
          "velocity": 0.6771653543307087
        },
        {
          "duration": 0.09666666666669244,
          "durationTicks": 116,
          "midi": 86,
          "name": "D6",
          "ticks": 183720,
          "time": 153.1,
          "velocity": 0.6771653543307087
        },
        {
          "duration": 0.29999999999998295,
          "durationTicks": 360,
          "midi": 91,
          "name": "G6",
          "ticks": 183840,
          "time": 153.20000000000002,
          "velocity": 0.6771653543307087
        },
        {
          "duration": 0.09666666666666401,
          "durationTicks": 116,
          "midi": 89,
          "name": "F6",
          "ticks": 184200,
          "time": 153.5,
          "velocity": 0.6771653543307087
        },
        {
          "duration": 0.39999999999997726,
          "durationTicks": 480,
          "midi": 88,
          "name": "E6",
          "ticks": 184320,
          "time": 153.60000000000002,
          "velocity": 0.6771653543307087
        },
        {
          "duration": 0.4000000000000057,
          "durationTicks": 480,
          "midi": 89,
          "name": "F6",
          "ticks": 184800,
          "time": 154,
          "velocity": 0.6771653543307087
        },
        {
          "duration": 0.4000000000000057,
          "durationTicks": 480,
          "midi": 88,
          "name": "E6",
          "ticks": 185280,
          "time": 154.4,
          "velocity": 0.6771653543307087
        },
        {
          "duration": 0.4000000000000057,
          "durationTicks": 480,
          "midi": 86,
          "name": "D6",
          "ticks": 185760,
          "time": 154.8,
          "velocity": 0.6771653543307087
        },
        {
          "duration": 0.3333333333333144,
          "durationTicks": 400,
          "midi": 84,
          "name": "C6",
          "ticks": 186240,
          "time": 155.20000000000002,
          "velocity": 0.6771653543307087
        },
        {
          "duration": 0.39999999999997726,
          "durationTicks": 480,
          "midi": 87,
          "name": "D#6",
          "ticks": 186720,
          "time": 155.60000000000002,
          "velocity": 0.6771653543307087
        },
        {
          "duration": 0.4000000000000057,
          "durationTicks": 480,
          "midi": 86,
          "name": "D6",
          "ticks": 187200,
          "time": 156,
          "velocity": 0.6771653543307087
        },
        {
          "duration": 0.4000000000000057,
          "durationTicks": 480,
          "midi": 87,
          "name": "D#6",
          "ticks": 187680,
          "time": 156.4,
          "velocity": 0.6771653543307087
        },
        {
          "duration": 0.3333333333333144,
          "durationTicks": 400,
          "midi": 86,
          "name": "D6",
          "ticks": 188160,
          "time": 156.8,
          "velocity": 0.6771653543307087
        },
        {
          "duration": 0.5999999999999943,
          "durationTicks": 720,
          "midi": 79,
          "name": "G5",
          "ticks": 207360,
          "time": 172.8,
          "velocity": 0.5433070866141733
        },
        {
          "duration": 0.19666666666668675,
          "durationTicks": 236,
          "midi": 83,
          "name": "B5",
          "ticks": 208080,
          "time": 173.4,
          "velocity": 0.5433070866141733
        },
        {
          "duration": 0.5999999999999943,
          "durationTicks": 720,
          "midi": 76,
          "name": "E5",
          "ticks": 208320,
          "time": 173.60000000000002,
          "velocity": 0.5433070866141733
        },
        {
          "duration": 0.19666666666665833,
          "durationTicks": 236,
          "midi": 84,
          "name": "C6",
          "ticks": 209040,
          "time": 174.20000000000002,
          "velocity": 0.5433070866141733
        },
        {
          "duration": 0.20000000000001705,
          "durationTicks": 240,
          "midi": 81,
          "name": "A5",
          "ticks": 209280,
          "time": 174.4,
          "velocity": 0.5433070866141733
        },
        {
          "duration": 0.19666666666665833,
          "durationTicks": 236,
          "midi": 88,
          "name": "E6",
          "ticks": 209520,
          "time": 174.60000000000002,
          "velocity": 0.5433070866141733
        },
        {
          "duration": 0.06666666666666288,
          "durationTicks": 80,
          "midi": 84,
          "name": "C6",
          "ticks": 209760,
          "time": 174.8,
          "velocity": 0.5433070866141733
        },
        {
          "duration": 0.0666666666666913,
          "durationTicks": 80,
          "midi": 81,
          "name": "A5",
          "ticks": 210000,
          "time": 175,
          "velocity": 0.5433070866141733
        },
        {
          "duration": 0.06666666666666288,
          "durationTicks": 80,
          "midi": 78,
          "name": "F#5",
          "ticks": 210240,
          "time": 175.20000000000002,
          "velocity": 0.5433070866141733
        },
        {
          "duration": 0.0666666666666913,
          "durationTicks": 80,
          "midi": 79,
          "name": "G5",
          "ticks": 210480,
          "time": 175.4,
          "velocity": 0.5433070866141733
        },
        {
          "duration": 0.06666666666666288,
          "durationTicks": 80,
          "midi": 81,
          "name": "A5",
          "ticks": 210720,
          "time": 175.60000000000002,
          "velocity": 0.5433070866141733
        },
        {
          "duration": 0.06666666666666288,
          "durationTicks": 80,
          "midi": 83,
          "name": "B5",
          "ticks": 210960,
          "time": 175.8,
          "velocity": 0.5433070866141733
        },
        {
          "duration": 0.19666666666668675,
          "durationTicks": 236,
          "midi": 79,
          "name": "G5",
          "ticks": 211200,
          "time": 176,
          "velocity": 0.5433070866141733
        },
        {
          "duration": 0.700000000000017,
          "durationTicks": 840,
          "midi": 86,
          "name": "D6",
          "ticks": 211680,
          "time": 176.4,
          "velocity": 0.8267716535433071
        },
        {
          "duration": 0.3333333333333144,
          "durationTicks": 400,
          "midi": 86,
          "name": "D6",
          "ticks": 212640,
          "time": 177.20000000000002,
          "velocity": 0.8267716535433071
        },
        {
          "duration": 0.19666666666665833,
          "durationTicks": 236,
          "midi": 86,
          "name": "D6",
          "ticks": 213120,
          "time": 177.60000000000002,
          "velocity": 0.8267716535433071
        },
        {
          "duration": 0.700000000000017,
          "durationTicks": 840,
          "midi": 86,
          "name": "D6",
          "ticks": 213600,
          "time": 178,
          "velocity": 0.8267716535433071
        },
        {
          "duration": 0.3333333333333144,
          "durationTicks": 400,
          "midi": 86,
          "name": "D6",
          "ticks": 214560,
          "time": 178.8,
          "velocity": 0.8267716535433071
        },
        {
          "duration": 0.19666666666665833,
          "durationTicks": 236,
          "midi": 86,
          "name": "D6",
          "ticks": 215040,
          "time": 179.20000000000002,
          "velocity": 0.8267716535433071
        },
        {
          "duration": 0.04999999999998295,
          "durationTicks": 60,
          "midi": 84,
          "name": "C6",
          "ticks": 215520,
          "time": 179.60000000000002,
          "velocity": 0.8267716535433071
        },
        {
          "duration": 0.05000000000001137,
          "durationTicks": 60,
          "midi": 83,
          "name": "B5",
          "ticks": 215580,
          "time": 179.65,
          "velocity": 0.8267716535433071
        },
        {
          "duration": 0.04999999999998295,
          "durationTicks": 60,
          "midi": 84,
          "name": "C6",
          "ticks": 215640,
          "time": 179.70000000000002,
          "velocity": 0.8267716535433071
        },
        {
          "duration": 0.05000000000001137,
          "durationTicks": 60,
          "midi": 83,
          "name": "B5",
          "ticks": 215700,
          "time": 179.75,
          "velocity": 0.8267716535433071
        },
        {
          "duration": 0.09999999999999432,
          "durationTicks": 120,
          "midi": 81,
          "name": "A5",
          "ticks": 215760,
          "time": 179.8,
          "velocity": 0.8267716535433071
        },
        {
          "duration": 0.09999999999999432,
          "durationTicks": 120,
          "midi": 83,
          "name": "B5",
          "ticks": 215880,
          "time": 179.9,
          "velocity": 0.8267716535433071
        },
        {
          "duration": 0.19666666666668675,
          "durationTicks": 236,
          "midi": 84,
          "name": "C6",
          "ticks": 216000,
          "time": 180,
          "velocity": 0.8267716535433071
        },
        {
          "duration": 0.06666666666666288,
          "durationTicks": 80,
          "midi": 84,
          "name": "C6",
          "ticks": 216240,
          "time": 180.20000000000002,
          "velocity": 0.8267716535433071
        },
        {
          "duration": 0.0666666666666913,
          "durationTicks": 80,
          "midi": 81,
          "name": "A5",
          "ticks": 216480,
          "time": 180.4,
          "velocity": 0.8267716535433071
        },
        {
          "duration": 0.06666666666666288,
          "durationTicks": 80,
          "midi": 81,
          "name": "A5",
          "ticks": 216720,
          "time": 180.60000000000002,
          "velocity": 0.8267716535433071
        },
        {
          "duration": 0.19666666666665833,
          "durationTicks": 236,
          "midi": 83,
          "name": "B5",
          "ticks": 216960,
          "time": 180.8,
          "velocity": 0.8267716535433071
        },
        {
          "duration": 0.6999999999999886,
          "durationTicks": 840,
          "midi": 86,
          "name": "D6",
          "ticks": 217440,
          "time": 181.20000000000002,
          "velocity": 0.8267716535433071
        },
        {
          "duration": 0.3333333333333428,
          "durationTicks": 400,
          "midi": 86,
          "name": "D6",
          "ticks": 218400,
          "time": 182,
          "velocity": 0.8267716535433071
        },
        {
          "duration": 0.19666666666668675,
          "durationTicks": 236,
          "midi": 86,
          "name": "D6",
          "ticks": 218880,
          "time": 182.4,
          "velocity": 0.8267716535433071
        },
        {
          "duration": 0.6999999999999886,
          "durationTicks": 840,
          "midi": 86,
          "name": "D6",
          "ticks": 219360,
          "time": 182.8,
          "velocity": 0.8267716535433071
        },
        {
          "duration": 0.3333333333333144,
          "durationTicks": 400,
          "midi": 86,
          "name": "D6",
          "ticks": 220320,
          "time": 183.60000000000002,
          "velocity": 0.8267716535433071
        },
        {
          "duration": 0.19666666666668675,
          "durationTicks": 236,
          "midi": 86,
          "name": "D6",
          "ticks": 220800,
          "time": 184,
          "velocity": 0.8267716535433071
        },
        {
          "duration": 0.05000000000001137,
          "durationTicks": 60,
          "midi": 84,
          "name": "C6",
          "ticks": 221280,
          "time": 184.4,
          "velocity": 0.8267716535433071
        },
        {
          "duration": 0.04999999999998295,
          "durationTicks": 60,
          "midi": 83,
          "name": "B5",
          "ticks": 221340,
          "time": 184.45000000000002,
          "velocity": 0.8267716535433071
        },
        {
          "duration": 0.05000000000001137,
          "durationTicks": 60,
          "midi": 84,
          "name": "C6",
          "ticks": 221400,
          "time": 184.5,
          "velocity": 0.8267716535433071
        },
        {
          "duration": 0.05000000000001137,
          "durationTicks": 60,
          "midi": 83,
          "name": "B5",
          "ticks": 221460,
          "time": 184.55,
          "velocity": 0.8267716535433071
        },
        {
          "duration": 0.09999999999999432,
          "durationTicks": 120,
          "midi": 81,
          "name": "A5",
          "ticks": 221520,
          "time": 184.60000000000002,
          "velocity": 0.8267716535433071
        },
        {
          "duration": 0.09999999999999432,
          "durationTicks": 120,
          "midi": 83,
          "name": "B5",
          "ticks": 221640,
          "time": 184.70000000000002,
          "velocity": 0.8267716535433071
        },
        {
          "duration": 0.19666666666665833,
          "durationTicks": 236,
          "midi": 84,
          "name": "C6",
          "ticks": 221760,
          "time": 184.8,
          "velocity": 0.8267716535433071
        },
        {
          "duration": 0.0666666666666913,
          "durationTicks": 80,
          "midi": 84,
          "name": "C6",
          "ticks": 222000,
          "time": 185,
          "velocity": 0.8267716535433071
        },
        {
          "duration": 0.06666666666666288,
          "durationTicks": 80,
          "midi": 81,
          "name": "A5",
          "ticks": 222240,
          "time": 185.20000000000002,
          "velocity": 0.8267716535433071
        },
        {
          "duration": 0.0666666666666913,
          "durationTicks": 80,
          "midi": 81,
          "name": "A5",
          "ticks": 222480,
          "time": 185.4,
          "velocity": 0.8267716535433071
        },
        {
          "duration": 0.3333333333333144,
          "durationTicks": 400,
          "midi": 79,
          "name": "G5",
          "ticks": 222720,
          "time": 185.60000000000002,
          "velocity": 0.8267716535433071
        },
        {
          "duration": 0.3333333333333428,
          "durationTicks": 400,
          "midi": 86,
          "name": "D6",
          "ticks": 223680,
          "time": 186.4,
          "velocity": 0.8267716535433071
        },
        {
          "duration": 0.3333333333333144,
          "durationTicks": 400,
          "midi": 86,
          "name": "D6",
          "ticks": 224640,
          "time": 187.20000000000002,
          "velocity": 0.8267716535433071
        },
        {
          "duration": 0.3333333333333428,
          "durationTicks": 400,
          "midi": 86,
          "name": "D6",
          "ticks": 225600,
          "time": 188,
          "velocity": 0.8267716535433071
        },
        {
          "duration": 0.3333333333333144,
          "durationTicks": 400,
          "midi": 86,
          "name": "D6",
          "ticks": 226560,
          "time": 188.8,
          "velocity": 0.8267716535433071
        },
        {
          "duration": 0.3333333333333144,
          "durationTicks": 400,
          "midi": 86,
          "name": "D6",
          "ticks": 227520,
          "time": 189.60000000000002,
          "velocity": 0.8267716535433071
        },
        {
          "duration": 0.09999999999999432,
          "durationTicks": 120,
          "midi": 83,
          "name": "B5",
          "ticks": 228480,
          "time": 190.4,
          "velocity": 0.8267716535433071
        },
        {
          "duration": 0.09999999999999432,
          "durationTicks": 120,
          "midi": 86,
          "name": "D6",
          "ticks": 228960,
          "time": 190.8,
          "velocity": 0.8267716535433071
        },
        {
          "duration": 0.09999999999999432,
          "durationTicks": 120,
          "midi": 83,
          "name": "B5",
          "ticks": 229440,
          "time": 191.20000000000002,
          "velocity": 0.8267716535433071
        },
        {
          "duration": 0.3333333333333428,
          "durationTicks": 400,
          "midi": 84,
          "name": "C6",
          "ticks": 230400,
          "time": 192,
          "velocity": 0.8267716535433071
        },
        {
          "duration": 0.06666666666666288,
          "durationTicks": 80,
          "midi": 79,
          "name": "G5",
          "ticks": 231120,
          "time": 192.60000000000002,
          "velocity": 0.8267716535433071
        },
        {
          "duration": 0.06666666666666288,
          "durationTicks": 80,
          "midi": 81,
          "name": "A5",
          "ticks": 231200,
          "time": 192.66666666666669,
          "velocity": 0.8267716535433071
        },
        {
          "duration": 0.06666666666666288,
          "durationTicks": 80,
          "midi": 83,
          "name": "B5",
          "ticks": 231280,
          "time": 192.73333333333335,
          "velocity": 0.8267716535433071
        },
        {
          "duration": 0.3333333333333144,
          "durationTicks": 400,
          "midi": 84,
          "name": "C6",
          "ticks": 231360,
          "time": 192.8,
          "velocity": 0.8267716535433071
        },
        {
          "duration": 0.0666666666666913,
          "durationTicks": 80,
          "midi": 79,
          "name": "G5",
          "ticks": 232080,
          "time": 193.4,
          "velocity": 0.8267716535433071
        },
        {
          "duration": 0.06666666666663446,
          "durationTicks": 80,
          "midi": 81,
          "name": "A5",
          "ticks": 232160,
          "time": 193.4666666666667,
          "velocity": 0.8267716535433071
        },
        {
          "duration": 0.0666666666666913,
          "durationTicks": 80,
          "midi": 83,
          "name": "B5",
          "ticks": 232240,
          "time": 193.53333333333333,
          "velocity": 0.8267716535433071
        },
        {
          "duration": 0.3333333333333144,
          "durationTicks": 400,
          "midi": 84,
          "name": "C6",
          "ticks": 232320,
          "time": 193.60000000000002,
          "velocity": 0.8267716535433071
        },
        {
          "duration": 0.3333333333333428,
          "durationTicks": 400,
          "midi": 79,
          "name": "G5",
          "ticks": 238080,
          "time": 198.4,
          "velocity": 0.8267716535433071
        },
        {
          "duration": 0.0666666666666913,
          "durationTicks": 80,
          "midi": 74,
          "name": "D5",
          "ticks": 238800,
          "time": 199,
          "velocity": 0.8267716535433071
        },
        {
          "duration": 0.06666666666663446,
          "durationTicks": 80,
          "midi": 76,
          "name": "E5",
          "ticks": 238880,
          "time": 199.0666666666667,
          "velocity": 0.8267716535433071
        },
        {
          "duration": 0.0666666666666913,
          "durationTicks": 80,
          "midi": 78,
          "name": "F#5",
          "ticks": 238960,
          "time": 199.13333333333333,
          "velocity": 0.8267716535433071
        },
        {
          "duration": 0.3333333333333144,
          "durationTicks": 400,
          "midi": 79,
          "name": "G5",
          "ticks": 239040,
          "time": 199.20000000000002,
          "velocity": 0.8267716535433071
        },
        {
          "duration": 0.06666666666666288,
          "durationTicks": 80,
          "midi": 74,
          "name": "D5",
          "ticks": 239760,
          "time": 199.8,
          "velocity": 0.8267716535433071
        },
        {
          "duration": 0.06666666666666288,
          "durationTicks": 80,
          "midi": 76,
          "name": "E5",
          "ticks": 239840,
          "time": 199.86666666666667,
          "velocity": 0.8267716535433071
        },
        {
          "duration": 0.06666666666666288,
          "durationTicks": 80,
          "midi": 78,
          "name": "F#5",
          "ticks": 239920,
          "time": 199.93333333333334,
          "velocity": 0.8267716535433071
        },
        {
          "duration": 0.3333333333333428,
          "durationTicks": 400,
          "midi": 79,
          "name": "G5",
          "ticks": 240000,
          "time": 200,
          "velocity": 0.8267716535433071
        },
        {
          "duration": 0.3333333333333428,
          "durationTicks": 400,
          "midi": 84,
          "name": "C6",
          "ticks": 245760,
          "time": 204.8,
          "velocity": 0.8267716535433071
        },
        {
          "duration": 0.29666666666665265,
          "durationTicks": 356,
          "midi": 84,
          "name": "C6",
          "ticks": 246240,
          "time": 205.20000000000002,
          "velocity": 0.8267716535433071
        },
        {
          "duration": 0.09666666666669244,
          "durationTicks": 116,
          "midi": 84,
          "name": "C6",
          "ticks": 246600,
          "time": 205.5,
          "velocity": 0.8267716535433071
        },
        {
          "duration": 0.3333333333333428,
          "durationTicks": 400,
          "midi": 84,
          "name": "C6",
          "ticks": 246720,
          "time": 205.60000000000002,
          "velocity": 0.8267716535433071
        },
        {
          "duration": 0.33333333333337123,
          "durationTicks": 400,
          "midi": 84,
          "name": "C6",
          "ticks": 247200,
          "time": 206,
          "velocity": 0.8267716535433071
        },
        {
          "duration": 0.3333333333333428,
          "durationTicks": 400,
          "midi": 81,
          "name": "A5",
          "ticks": 247680,
          "time": 206.4,
          "velocity": 0.8267716535433071
        },
        {
          "duration": 0.29666666666668107,
          "durationTicks": 356,
          "midi": 81,
          "name": "A5",
          "ticks": 248160,
          "time": 206.8,
          "velocity": 0.8267716535433071
        },
        {
          "duration": 0.09666666666666401,
          "durationTicks": 116,
          "midi": 81,
          "name": "A5",
          "ticks": 248520,
          "time": 207.10000000000002,
          "velocity": 0.8267716535433071
        },
        {
          "duration": 0.3333333333333428,
          "durationTicks": 400,
          "midi": 81,
          "name": "A5",
          "ticks": 248640,
          "time": 207.20000000000002,
          "velocity": 0.8267716535433071
        },
        {
          "duration": 0.3333333333333428,
          "durationTicks": 400,
          "midi": 81,
          "name": "A5",
          "ticks": 249120,
          "time": 207.60000000000002,
          "velocity": 0.8267716535433071
        },
        {
          "duration": 0.33333333333337123,
          "durationTicks": 400,
          "midi": 83,
          "name": "B5",
          "ticks": 249600,
          "time": 208,
          "velocity": 0.8267716535433071
        },
        {
          "duration": 0.29666666666668107,
          "durationTicks": 356,
          "midi": 83,
          "name": "B5",
          "ticks": 250080,
          "time": 208.4,
          "velocity": 0.8267716535433071
        },
        {
          "duration": 0.09666666666666401,
          "durationTicks": 116,
          "midi": 83,
          "name": "B5",
          "ticks": 250440,
          "time": 208.70000000000002,
          "velocity": 0.8267716535433071
        },
        {
          "duration": 0.3333333333333428,
          "durationTicks": 400,
          "midi": 83,
          "name": "B5",
          "ticks": 250560,
          "time": 208.8,
          "velocity": 0.8267716535433071
        },
        {
          "duration": 0.3333333333333428,
          "durationTicks": 400,
          "midi": 83,
          "name": "B5",
          "ticks": 251040,
          "time": 209.20000000000002,
          "velocity": 0.8267716535433071
        },
        {
          "duration": 0.3333333333333428,
          "durationTicks": 400,
          "midi": 84,
          "name": "C6",
          "ticks": 251520,
          "time": 209.60000000000002,
          "velocity": 0.8267716535433071
        },
        {
          "duration": 0.29666666666668107,
          "durationTicks": 356,
          "midi": 84,
          "name": "C6",
          "ticks": 252000,
          "time": 210,
          "velocity": 0.8267716535433071
        },
        {
          "duration": 0.09666666666666401,
          "durationTicks": 116,
          "midi": 84,
          "name": "C6",
          "ticks": 252360,
          "time": 210.3,
          "velocity": 0.8267716535433071
        },
        {
          "duration": 0.3333333333333428,
          "durationTicks": 400,
          "midi": 84,
          "name": "C6",
          "ticks": 252480,
          "time": 210.4,
          "velocity": 0.8267716535433071
        },
        {
          "duration": 0.3333333333333428,
          "durationTicks": 400,
          "midi": 84,
          "name": "C6",
          "ticks": 252960,
          "time": 210.8,
          "velocity": 0.8267716535433071
        },
        {
          "duration": 0.3333333333333428,
          "durationTicks": 400,
          "midi": 81,
          "name": "A5",
          "ticks": 253440,
          "time": 211.20000000000002,
          "velocity": 0.8267716535433071
        },
        {
          "duration": 0.29666666666665265,
          "durationTicks": 356,
          "midi": 81,
          "name": "A5",
          "ticks": 253920,
          "time": 211.60000000000002,
          "velocity": 0.8267716535433071
        },
        {
          "duration": 0.09666666666666401,
          "durationTicks": 116,
          "midi": 81,
          "name": "A5",
          "ticks": 254280,
          "time": 211.9,
          "velocity": 0.8267716535433071
        },
        {
          "duration": 0.33333333333337123,
          "durationTicks": 400,
          "midi": 81,
          "name": "A5",
          "ticks": 254400,
          "time": 212,
          "velocity": 0.8267716535433071
        },
        {
          "duration": 0.3333333333333428,
          "durationTicks": 400,
          "midi": 81,
          "name": "A5",
          "ticks": 254880,
          "time": 212.4,
          "velocity": 0.8267716535433071
        },
        {
          "duration": 0.3333333333333428,
          "durationTicks": 400,
          "midi": 83,
          "name": "B5",
          "ticks": 255360,
          "time": 212.8,
          "velocity": 0.8267716535433071
        },
        {
          "duration": 0.29666666666665265,
          "durationTicks": 356,
          "midi": 83,
          "name": "B5",
          "ticks": 255840,
          "time": 213.20000000000002,
          "velocity": 0.8267716535433071
        },
        {
          "duration": 0.09666666666669244,
          "durationTicks": 116,
          "midi": 83,
          "name": "B5",
          "ticks": 256200,
          "time": 213.5,
          "velocity": 0.8267716535433071
        },
        {
          "duration": 0.3333333333333428,
          "durationTicks": 400,
          "midi": 83,
          "name": "B5",
          "ticks": 256320,
          "time": 213.60000000000002,
          "velocity": 0.8267716535433071
        },
        {
          "duration": 0.33333333333337123,
          "durationTicks": 400,
          "midi": 83,
          "name": "B5",
          "ticks": 256800,
          "time": 214,
          "velocity": 0.8267716535433071
        },
        {
          "duration": 0.3333333333333428,
          "durationTicks": 400,
          "midi": 84,
          "name": "C6",
          "ticks": 257280,
          "time": 214.4,
          "velocity": 0.8267716535433071
        },
        {
          "duration": 0.3333333333333428,
          "durationTicks": 400,
          "midi": 84,
          "name": "C6",
          "ticks": 257760,
          "time": 214.8,
          "velocity": 0.8267716535433071
        },
        {
          "duration": 0.3333333333333428,
          "durationTicks": 400,
          "midi": 83,
          "name": "B5",
          "ticks": 258720,
          "time": 215.60000000000002,
          "velocity": 0.8267716535433071
        },
        {
          "duration": 0.3333333333333428,
          "durationTicks": 400,
          "midi": 84,
          "name": "C6",
          "ticks": 259680,
          "time": 216.4,
          "velocity": 0.8267716535433071
        },
        {
          "duration": 0.3333333333333428,
          "durationTicks": 400,
          "midi": 83,
          "name": "B5",
          "ticks": 260640,
          "time": 217.20000000000002,
          "velocity": 0.8267716535433071
        },
        {
          "duration": 0.3333333333333428,
          "durationTicks": 400,
          "midi": 84,
          "name": "C6",
          "ticks": 261120,
          "time": 217.60000000000002,
          "velocity": 0.8267716535433071
        },
        {
          "duration": 0.19666666666668675,
          "durationTicks": 236,
          "midi": 79,
          "name": "G5",
          "ticks": 261600,
          "time": 218,
          "velocity": 0.8267716535433071
        },
        {
          "duration": 0.19666666666665833,
          "durationTicks": 236,
          "midi": 79,
          "name": "G5",
          "ticks": 261840,
          "time": 218.20000000000002,
          "velocity": 0.8267716535433071
        },
        {
          "duration": 0.19666666666668675,
          "durationTicks": 236,
          "midi": 84,
          "name": "C6",
          "ticks": 262080,
          "time": 218.4,
          "velocity": 0.8267716535433071
        },
        {
          "duration": 0.19666666666665833,
          "durationTicks": 236,
          "midi": 84,
          "name": "C6",
          "ticks": 262320,
          "time": 218.60000000000002,
          "velocity": 0.8267716535433071
        },
        {
          "duration": 0.19666666666665833,
          "durationTicks": 236,
          "midi": 79,
          "name": "G5",
          "ticks": 262560,
          "time": 218.8,
          "velocity": 0.8267716535433071
        },
        {
          "duration": 0.19666666666668675,
          "durationTicks": 236,
          "midi": 79,
          "name": "G5",
          "ticks": 262800,
          "time": 219,
          "velocity": 0.8267716535433071
        },
        {
          "duration": 0.19666666666665833,
          "durationTicks": 236,
          "midi": 84,
          "name": "C6",
          "ticks": 263040,
          "time": 219.20000000000002,
          "velocity": 0.8267716535433071
        },
        {
          "duration": 0.19666666666668675,
          "durationTicks": 236,
          "midi": 84,
          "name": "C6",
          "ticks": 263280,
          "time": 219.4,
          "velocity": 0.8267716535433071
        },
        {
          "duration": 0.19666666666665833,
          "durationTicks": 236,
          "midi": 79,
          "name": "G5",
          "ticks": 263520,
          "time": 219.60000000000002,
          "velocity": 0.8267716535433071
        },
        {
          "duration": 0.19666666666665833,
          "durationTicks": 236,
          "midi": 79,
          "name": "G5",
          "ticks": 263760,
          "time": 219.8,
          "velocity": 0.8267716535433071
        },
        {
          "duration": 0.19666666666668675,
          "durationTicks": 236,
          "midi": 76,
          "name": "E5",
          "ticks": 264000,
          "time": 220,
          "velocity": 0.8267716535433071
        },
        {
          "duration": 0.19666666666665833,
          "durationTicks": 236,
          "midi": 76,
          "name": "E5",
          "ticks": 264240,
          "time": 220.20000000000002,
          "velocity": 0.8267716535433071
        },
        {
          "duration": 0.19666666666668675,
          "durationTicks": 236,
          "midi": 72,
          "name": "C5",
          "ticks": 264480,
          "time": 220.4,
          "velocity": 0.8267716535433071
        },
        {
          "duration": 0.19666666666665833,
          "durationTicks": 236,
          "midi": 72,
          "name": "C5",
          "ticks": 264720,
          "time": 220.60000000000002,
          "velocity": 0.8267716535433071
        },
        {
          "duration": 0.3333333333333428,
          "durationTicks": 400,
          "midi": 67,
          "name": "G4",
          "ticks": 264960,
          "time": 220.8,
          "velocity": 0.8267716535433071
        },
        {
          "duration": 0.3333333333333428,
          "durationTicks": 400,
          "midi": 83,
          "name": "B5",
          "ticks": 265440,
          "time": 221.20000000000002,
          "velocity": 0.8267716535433071
        },
        {
          "duration": 0.33333333333337123,
          "durationTicks": 400,
          "midi": 84,
          "name": "C6",
          "ticks": 266400,
          "time": 222,
          "velocity": 0.8267716535433071
        },
        {
          "duration": 0.3333333333333428,
          "durationTicks": 400,
          "midi": 83,
          "name": "B5",
          "ticks": 267360,
          "time": 222.8,
          "velocity": 0.8267716535433071
        },
        {
          "duration": 0.3333333333333428,
          "durationTicks": 400,
          "midi": 84,
          "name": "C6",
          "ticks": 268320,
          "time": 223.60000000000002,
          "velocity": 0.8267716535433071
        },
        {
          "duration": 0.19666666666668675,
          "durationTicks": 236,
          "midi": 83,
          "name": "B5",
          "ticks": 268800,
          "time": 224,
          "velocity": 0.8267716535433071
        },
        {
          "duration": 0.19666666666665833,
          "durationTicks": 236,
          "midi": 84,
          "name": "C6",
          "ticks": 269040,
          "time": 224.20000000000002,
          "velocity": 0.8346456692913385
        },
        {
          "duration": 0.19666666666668675,
          "durationTicks": 236,
          "midi": 83,
          "name": "B5",
          "ticks": 269280,
          "time": 224.4,
          "velocity": 0.8503937007874016
        },
        {
          "duration": 0.19666666666665833,
          "durationTicks": 236,
          "midi": 84,
          "name": "C6",
          "ticks": 269520,
          "time": 224.60000000000002,
          "velocity": 0.8582677165354331
        },
        {
          "duration": 0.19666666666665833,
          "durationTicks": 236,
          "midi": 83,
          "name": "B5",
          "ticks": 269760,
          "time": 224.8,
          "velocity": 0.8661417322834646
        },
        {
          "duration": 0.19666666666668675,
          "durationTicks": 236,
          "midi": 84,
          "name": "C6",
          "ticks": 270000,
          "time": 225,
          "velocity": 0.8740157480314961
        },
        {
          "duration": 0.19666666666665833,
          "durationTicks": 236,
          "midi": 83,
          "name": "B5",
          "ticks": 270240,
          "time": 225.20000000000002,
          "velocity": 0.8818897637795275
        },
        {
          "duration": 0.19666666666668675,
          "durationTicks": 236,
          "midi": 84,
          "name": "C6",
          "ticks": 270480,
          "time": 225.4,
          "velocity": 0.889763779527559
        },
        {
          "duration": 0.3333333333333428,
          "durationTicks": 400,
          "midi": 83,
          "name": "B5",
          "ticks": 270720,
          "time": 225.60000000000002,
          "velocity": 0.905511811023622
        },
        {
          "duration": 0.3333333333333428,
          "durationTicks": 400,
          "midi": 79,
          "name": "G5",
          "ticks": 271680,
          "time": 226.4,
          "velocity": 0.937007874015748
        },
        {
          "duration": 0.3333333333333428,
          "durationTicks": 400,
          "midi": 79,
          "name": "G5",
          "ticks": 272160,
          "time": 226.8,
          "velocity": 0.952755905511811
        },
        {
          "duration": 1.5,
          "durationTicks": 1800,
          "midi": 79,
          "name": "G5",
          "ticks": 272640,
          "time": 227.20000000000002,
          "velocity": 0.9763779527559056
        },
        {
          "duration": 0.8000000000000114,
          "durationTicks": 960,
          "midi": 72,
          "name": "C5",
          "ticks": 274560,
          "time": 228.8,
          "velocity": 0.4015748031496063
        },
        {
          "duration": 0.9966666666666697,
          "durationTicks": 1196,
          "midi": 84,
          "name": "C6",
          "ticks": 275520,
          "time": 229.60000000000002,
          "velocity": 0.4015748031496063
        },
        {
          "duration": 0.06666666666663446,
          "durationTicks": 80,
          "midi": 83,
          "name": "B5",
          "ticks": 276720,
          "time": 230.60000000000002,
          "velocity": 0.4015748031496063
        },
        {
          "duration": 0.06666666666666288,
          "durationTicks": 80,
          "midi": 81,
          "name": "A5",
          "ticks": 276960,
          "time": 230.8,
          "velocity": 0.4015748031496063
        },
        {
          "duration": 0.06666666666666288,
          "durationTicks": 80,
          "midi": 79,
          "name": "G5",
          "ticks": 277200,
          "time": 231,
          "velocity": 0.4015748031496063
        },
        {
          "duration": 0.06666666666663446,
          "durationTicks": 80,
          "midi": 77,
          "name": "F5",
          "ticks": 277440,
          "time": 231.20000000000002,
          "velocity": 0.4015748031496063
        },
        {
          "duration": 0.06666666666666288,
          "durationTicks": 80,
          "midi": 76,
          "name": "E5",
          "ticks": 277680,
          "time": 231.4,
          "velocity": 0.4015748031496063
        },
        {
          "duration": 0.06666666666663446,
          "durationTicks": 80,
          "midi": 74,
          "name": "D5",
          "ticks": 277920,
          "time": 231.60000000000002,
          "velocity": 0.4015748031496063
        },
        {
          "duration": 0.06666666666666288,
          "durationTicks": 80,
          "midi": 72,
          "name": "C5",
          "ticks": 278160,
          "time": 231.8,
          "velocity": 0.4015748031496063
        },
        {
          "duration": 0.8000000000000114,
          "durationTicks": 960,
          "midi": 77,
          "name": "F5",
          "ticks": 278400,
          "time": 232,
          "velocity": 0.4015748031496063
        },
        {
          "duration": 0.6999999999999886,
          "durationTicks": 840,
          "midi": 76,
          "name": "E5",
          "ticks": 279360,
          "time": 232.8,
          "velocity": 0.4015748031496063
        },
        {
          "duration": 1.0999999999999943,
          "durationTicks": 1320,
          "midi": 74,
          "name": "D5",
          "ticks": 280320,
          "time": 233.60000000000002,
          "velocity": 0.4015748031496063
        },
        {
          "duration": 0.799999999999983,
          "durationTicks": 960,
          "midi": 74,
          "name": "D5",
          "ticks": 282240,
          "time": 235.20000000000002,
          "velocity": 0.4015748031496063
        },
        {
          "duration": 0.9966666666666697,
          "durationTicks": 1196,
          "midi": 86,
          "name": "D6",
          "ticks": 283200,
          "time": 236,
          "velocity": 0.4015748031496063
        },
        {
          "duration": 0.06666666666666288,
          "durationTicks": 80,
          "midi": 84,
          "name": "C6",
          "ticks": 284400,
          "time": 237,
          "velocity": 0.4015748031496063
        },
        {
          "duration": 0.06666666666663446,
          "durationTicks": 80,
          "midi": 83,
          "name": "B5",
          "ticks": 284640,
          "time": 237.20000000000002,
          "velocity": 0.4015748031496063
        },
        {
          "duration": 0.06666666666666288,
          "durationTicks": 80,
          "midi": 81,
          "name": "A5",
          "ticks": 284880,
          "time": 237.4,
          "velocity": 0.4015748031496063
        },
        {
          "duration": 0.06666666666663446,
          "durationTicks": 80,
          "midi": 79,
          "name": "G5",
          "ticks": 285120,
          "time": 237.60000000000002,
          "velocity": 0.4015748031496063
        },
        {
          "duration": 0.06666666666666288,
          "durationTicks": 80,
          "midi": 77,
          "name": "F5",
          "ticks": 285360,
          "time": 237.8,
          "velocity": 0.4015748031496063
        },
        {
          "duration": 0.06666666666666288,
          "durationTicks": 80,
          "midi": 76,
          "name": "E5",
          "ticks": 285600,
          "time": 238,
          "velocity": 0.4015748031496063
        },
        {
          "duration": 0.06666666666663446,
          "durationTicks": 80,
          "midi": 74,
          "name": "D5",
          "ticks": 285840,
          "time": 238.20000000000002,
          "velocity": 0.4015748031496063
        },
        {
          "duration": 0.8000000000000114,
          "durationTicks": 960,
          "midi": 82,
          "name": "A#5",
          "ticks": 286080,
          "time": 238.4,
          "velocity": 0.4015748031496063
        },
        {
          "duration": 0.6999999999999886,
          "durationTicks": 840,
          "midi": 81,
          "name": "A5",
          "ticks": 287040,
          "time": 239.20000000000002,
          "velocity": 0.4015748031496063
        },
        {
          "duration": 0.10000000000002274,
          "durationTicks": 120,
          "midi": 79,
          "name": "G5",
          "ticks": 288000,
          "time": 240,
          "velocity": 0.4015748031496063
        },
        {
          "duration": 0.09999999999999432,
          "durationTicks": 120,
          "midi": 79,
          "name": "G5",
          "ticks": 288480,
          "time": 240.4,
          "velocity": 0.4015748031496063
        },
        {
          "duration": 0.09999999999999432,
          "durationTicks": 120,
          "midi": 79,
          "name": "G5",
          "ticks": 288960,
          "time": 240.8,
          "velocity": 0.4015748031496063
        },
        {
          "duration": 0.09999999999999432,
          "durationTicks": 120,
          "midi": 81,
          "name": "A5",
          "ticks": 289920,
          "time": 241.60000000000002,
          "velocity": 0.4015748031496063
        },
        {
          "duration": 0.10000000000002274,
          "durationTicks": 120,
          "midi": 81,
          "name": "A5",
          "ticks": 290400,
          "time": 242,
          "velocity": 0.4015748031496063
        },
        {
          "duration": 0.09999999999999432,
          "durationTicks": 120,
          "midi": 81,
          "name": "A5",
          "ticks": 290880,
          "time": 242.4,
          "velocity": 0.4015748031496063
        },
        {
          "duration": 0.09999999999999432,
          "durationTicks": 120,
          "midi": 77,
          "name": "F5",
          "ticks": 291840,
          "time": 243.20000000000002,
          "velocity": 0.4015748031496063
        },
        {
          "duration": 0.09999999999999432,
          "durationTicks": 120,
          "midi": 77,
          "name": "F5",
          "ticks": 292320,
          "time": 243.60000000000002,
          "velocity": 0.4015748031496063
        },
        {
          "duration": 0.10000000000002274,
          "durationTicks": 120,
          "midi": 77,
          "name": "F5",
          "ticks": 292800,
          "time": 244,
          "velocity": 0.4015748031496063
        },
        {
          "duration": 0.09999999999999432,
          "durationTicks": 120,
          "midi": 79,
          "name": "G5",
          "ticks": 293760,
          "time": 244.8,
          "velocity": 0.4015748031496063
        },
        {
          "duration": 0.09999999999999432,
          "durationTicks": 120,
          "midi": 79,
          "name": "G5",
          "ticks": 294240,
          "time": 245.20000000000002,
          "velocity": 0.4015748031496063
        },
        {
          "duration": 0.09999999999999432,
          "durationTicks": 120,
          "midi": 79,
          "name": "G5",
          "ticks": 294720,
          "time": 245.60000000000002,
          "velocity": 0.4015748031496063
        },
        {
          "duration": 0.6999999999999886,
          "durationTicks": 840,
          "midi": 79,
          "name": "G5",
          "ticks": 299520,
          "time": 249.60000000000002,
          "velocity": 0.9763779527559056
        },
        {
          "duration": 0.8666666666666458,
          "durationTicks": 1040,
          "midi": 91,
          "name": "G6",
          "ticks": 300480,
          "time": 250.4,
          "velocity": 0.9763779527559056
        },
        {
          "duration": 0.06666666666666288,
          "durationTicks": 80,
          "midi": 90,
          "name": "F#6",
          "ticks": 301680,
          "time": 251.4,
          "velocity": 0.9763779527559056
        },
        {
          "duration": 0.06666666666663446,
          "durationTicks": 80,
          "midi": 88,
          "name": "E6",
          "ticks": 301920,
          "time": 251.60000000000002,
          "velocity": 0.9763779527559056
        },
        {
          "duration": 0.06666666666666288,
          "durationTicks": 80,
          "midi": 86,
          "name": "D6",
          "ticks": 302160,
          "time": 251.8,
          "velocity": 0.9763779527559056
        },
        {
          "duration": 0.06666666666666288,
          "durationTicks": 80,
          "midi": 84,
          "name": "C6",
          "ticks": 302400,
          "time": 252,
          "velocity": 0.9763779527559056
        },
        {
          "duration": 0.06666666666663446,
          "durationTicks": 80,
          "midi": 83,
          "name": "B5",
          "ticks": 302640,
          "time": 252.20000000000002,
          "velocity": 0.9763779527559056
        },
        {
          "duration": 0.06666666666666288,
          "durationTicks": 80,
          "midi": 81,
          "name": "A5",
          "ticks": 302880,
          "time": 252.4,
          "velocity": 0.9763779527559056
        },
        {
          "duration": 0.06666666666663446,
          "durationTicks": 80,
          "midi": 79,
          "name": "G5",
          "ticks": 303120,
          "time": 252.60000000000002,
          "velocity": 0.9763779527559056
        },
        {
          "duration": 12.300000000000011,
          "durationTicks": 14760,
          "midi": 91,
          "name": "G6",
          "ticks": 303360,
          "time": 252.8,
          "velocity": 0.9763779527559056
        },
        {
          "duration": 0.33333333333337123,
          "durationTicks": 400,
          "midi": 83,
          "name": "B5",
          "ticks": 318240,
          "time": 265.2,
          "velocity": 0.9763779527559056
        },
        {
          "duration": 0.3333333333333144,
          "durationTicks": 400,
          "midi": 81,
          "name": "A5",
          "ticks": 318720,
          "time": 265.6,
          "velocity": 0.9763779527559056
        },
        {
          "duration": 0.33333333333337123,
          "durationTicks": 400,
          "midi": 80,
          "name": "G#5",
          "ticks": 319200,
          "time": 266,
          "velocity": 0.9763779527559056
        },
        {
          "duration": 0.3333333333333144,
          "durationTicks": 400,
          "midi": 81,
          "name": "A5",
          "ticks": 319680,
          "time": 266.40000000000003,
          "velocity": 0.9763779527559056
        },
        {
          "duration": 0.33333333333337123,
          "durationTicks": 400,
          "midi": 80,
          "name": "G#5",
          "ticks": 320160,
          "time": 266.8,
          "velocity": 0.9763779527559056
        },
        {
          "duration": 0.33333333333337123,
          "durationTicks": 400,
          "midi": 81,
          "name": "A5",
          "ticks": 320640,
          "time": 267.2,
          "velocity": 0.9763779527559056
        },
        {
          "duration": 0.3333333333333144,
          "durationTicks": 400,
          "midi": 84,
          "name": "C6",
          "ticks": 321120,
          "time": 267.6,
          "velocity": 0.9763779527559056
        },
        {
          "duration": 0.33333333333337123,
          "durationTicks": 400,
          "midi": 81,
          "name": "A5",
          "ticks": 321600,
          "time": 268,
          "velocity": 0.9763779527559056
        },
        {
          "duration": 0.3333333333333144,
          "durationTicks": 400,
          "midi": 79,
          "name": "G5",
          "ticks": 322080,
          "time": 268.40000000000003,
          "velocity": 0.9763779527559056
        },
        {
          "duration": 0.33333333333337123,
          "durationTicks": 400,
          "midi": 78,
          "name": "F#5",
          "ticks": 322560,
          "time": 268.8,
          "velocity": 0.9763779527559056
        },
        {
          "duration": 0.29666666666668107,
          "durationTicks": 356,
          "midi": 86,
          "name": "D6",
          "ticks": 323040,
          "time": 269.2,
          "velocity": 0.9763779527559056
        },
        {
          "duration": 0.09666666666669244,
          "durationTicks": 116,
          "midi": 86,
          "name": "D6",
          "ticks": 323400,
          "time": 269.5,
          "velocity": 0.9763779527559056
        },
        {
          "duration": 0.3333333333333144,
          "durationTicks": 400,
          "midi": 86,
          "name": "D6",
          "ticks": 323520,
          "time": 269.6,
          "velocity": 0.9763779527559056
        },
        {
          "duration": 0.33333333333337123,
          "durationTicks": 400,
          "midi": 86,
          "name": "D6",
          "ticks": 324000,
          "time": 270,
          "velocity": 0.9763779527559056
        },
        {
          "duration": 0.3333333333333144,
          "durationTicks": 400,
          "midi": 86,
          "name": "D6",
          "ticks": 324480,
          "time": 270.40000000000003,
          "velocity": 0.9763779527559056
        },
        {
          "duration": 0.29666666666668107,
          "durationTicks": 356,
          "midi": 86,
          "name": "D6",
          "ticks": 324960,
          "time": 270.8,
          "velocity": 0.9763779527559056
        },
        {
          "duration": 0.09666666666663559,
          "durationTicks": 116,
          "midi": 86,
          "name": "D6",
          "ticks": 325320,
          "time": 271.1,
          "velocity": 0.9763779527559056
        },
        {
          "duration": 0.33333333333337123,
          "durationTicks": 400,
          "midi": 86,
          "name": "D6",
          "ticks": 325440,
          "time": 271.2,
          "velocity": 0.9763779527559056
        },
        {
          "duration": 0.3333333333333144,
          "durationTicks": 400,
          "midi": 86,
          "name": "D6",
          "ticks": 325920,
          "time": 271.6,
          "velocity": 0.9763779527559056
        },
        {
          "duration": 0.33333333333337123,
          "durationTicks": 400,
          "midi": 86,
          "name": "D6",
          "ticks": 326400,
          "time": 272,
          "velocity": 0.9763779527559056
        },
        {
          "duration": 0.2966666666666242,
          "durationTicks": 356,
          "midi": 86,
          "name": "D6",
          "ticks": 326880,
          "time": 272.40000000000003,
          "velocity": 0.9763779527559056
        },
        {
          "duration": 0.09666666666669244,
          "durationTicks": 116,
          "midi": 86,
          "name": "D6",
          "ticks": 327240,
          "time": 272.7,
          "velocity": 0.9763779527559056
        },
        {
          "duration": 0.33333333333337123,
          "durationTicks": 400,
          "midi": 86,
          "name": "D6",
          "ticks": 327360,
          "time": 272.8,
          "velocity": 0.9763779527559056
        },
        {
          "duration": 0.33333333333337123,
          "durationTicks": 400,
          "midi": 86,
          "name": "D6",
          "ticks": 327840,
          "time": 273.2,
          "velocity": 0.9763779527559056
        },
        {
          "duration": 0.3333333333333144,
          "durationTicks": 400,
          "midi": 86,
          "name": "D6",
          "ticks": 328320,
          "time": 273.6,
          "velocity": 0.9763779527559056
        },
        {
          "duration": 0.29666666666668107,
          "durationTicks": 356,
          "midi": 86,
          "name": "D6",
          "ticks": 328800,
          "time": 274,
          "velocity": 0.9763779527559056
        },
        {
          "duration": 0.09666666666669244,
          "durationTicks": 116,
          "midi": 86,
          "name": "D6",
          "ticks": 329160,
          "time": 274.3,
          "velocity": 0.9763779527559056
        },
        {
          "duration": 0.3333333333333144,
          "durationTicks": 400,
          "midi": 86,
          "name": "D6",
          "ticks": 329280,
          "time": 274.40000000000003,
          "velocity": 0.9763779527559056
        },
        {
          "duration": 0.33333333333337123,
          "durationTicks": 400,
          "midi": 86,
          "name": "D6",
          "ticks": 329760,
          "time": 274.8,
          "velocity": 0.9763779527559056
        },
        {
          "duration": 0.33333333333337123,
          "durationTicks": 400,
          "midi": 86,
          "name": "D6",
          "ticks": 330240,
          "time": 275.2,
          "velocity": 0.9763779527559056
        },
        {
          "duration": 0.3333333333333144,
          "durationTicks": 400,
          "midi": 86,
          "name": "D6",
          "ticks": 330720,
          "time": 275.6,
          "velocity": 0.9763779527559056
        },
        {
          "duration": 0.3333333333333144,
          "durationTicks": 400,
          "midi": 86,
          "name": "D6",
          "ticks": 331680,
          "time": 276.40000000000003,
          "velocity": 0.9763779527559056
        },
        {
          "duration": 0.33333333333337123,
          "durationTicks": 400,
          "midi": 86,
          "name": "D6",
          "ticks": 332640,
          "time": 277.2,
          "velocity": 0.9763779527559056
        },
        {
          "duration": 0.33333333333337123,
          "durationTicks": 400,
          "midi": 86,
          "name": "D6",
          "ticks": 333600,
          "time": 278,
          "velocity": 0.9763779527559056
        },
        {
          "duration": 0.3333333333333144,
          "durationTicks": 400,
          "midi": 86,
          "name": "D6",
          "ticks": 334080,
          "time": 278.40000000000003,
          "velocity": 0.9763779527559056
        },
        {
          "duration": 0.30000000000001137,
          "durationTicks": 360,
          "midi": 83,
          "name": "B5",
          "ticks": 358560,
          "time": 298.8,
          "velocity": 0.5433070866141733
        },
        {
          "duration": 0.09666666666663559,
          "durationTicks": 116,
          "midi": 84,
          "name": "C6",
          "ticks": 358920,
          "time": 299.1,
          "velocity": 0.5433070866141733
        },
        {
          "duration": 0.06666666666666288,
          "durationTicks": 80,
          "midi": 86,
          "name": "D6",
          "ticks": 359040,
          "time": 299.2,
          "velocity": 0.5433070866141733
        },
        {
          "duration": 0.30000000000001137,
          "durationTicks": 360,
          "midi": 86,
          "name": "D6",
          "ticks": 359520,
          "time": 299.6,
          "velocity": 0.5433070866141733
        },
        {
          "duration": 0.09666666666663559,
          "durationTicks": 116,
          "midi": 88,
          "name": "E6",
          "ticks": 359880,
          "time": 299.90000000000003,
          "velocity": 0.5433070866141733
        },
        {
          "duration": 0.06666666666666288,
          "durationTicks": 80,
          "midi": 84,
          "name": "C6",
          "ticks": 360000,
          "time": 300,
          "velocity": 0.5433070866141733
        },
        {
          "duration": 0.2999999999999545,
          "durationTicks": 360,
          "midi": 84,
          "name": "C6",
          "ticks": 360480,
          "time": 300.40000000000003,
          "velocity": 0.5433070866141733
        },
        {
          "duration": 0.09666666666669244,
          "durationTicks": 116,
          "midi": 86,
          "name": "D6",
          "ticks": 360840,
          "time": 300.7,
          "velocity": 0.5433070866141733
        },
        {
          "duration": 0.10000000000002274,
          "durationTicks": 120,
          "midi": 83,
          "name": "B5",
          "ticks": 360960,
          "time": 300.8,
          "velocity": 0.5433070866141733
        },
        {
          "duration": 0.10000000000002274,
          "durationTicks": 120,
          "midi": 83,
          "name": "B5",
          "ticks": 361440,
          "time": 301.2,
          "velocity": 0.5433070866141733
        },
        {
          "duration": 0.19999999999998863,
          "durationTicks": 240,
          "midi": 83,
          "name": "B5",
          "ticks": 361920,
          "time": 301.6,
          "velocity": 0.5433070866141733
        },
        {
          "duration": 0.19999999999998863,
          "durationTicks": 240,
          "midi": 86,
          "name": "D6",
          "ticks": 362160,
          "time": 301.8,
          "velocity": 0.5433070866141733
        },
        {
          "duration": 0.19999999999998863,
          "durationTicks": 240,
          "midi": 84,
          "name": "C6",
          "ticks": 362400,
          "time": 302,
          "velocity": 0.5433070866141733
        },
        {
          "duration": 0.19666666666671517,
          "durationTicks": 236,
          "midi": 81,
          "name": "A5",
          "ticks": 362640,
          "time": 302.2,
          "velocity": 0.5433070866141733
        },
        {
          "duration": 1.1999999999999886,
          "durationTicks": 1440,
          "midi": 79,
          "name": "G5",
          "ticks": 362880,
          "time": 302.40000000000003,
          "velocity": 0.5433070866141733
        },
        {
          "duration": 0.19999999999998863,
          "durationTicks": 240,
          "midi": 83,
          "name": "B5",
          "ticks": 364320,
          "time": 303.6,
          "velocity": 0.5433070866141733
        },
        {
          "duration": 0.19666666666665833,
          "durationTicks": 236,
          "midi": 81,
          "name": "A5",
          "ticks": 364560,
          "time": 303.8,
          "velocity": 0.5433070866141733
        },
        {
          "duration": 0.33333333333337123,
          "durationTicks": 400,
          "midi": 79,
          "name": "G5",
          "ticks": 364800,
          "time": 304,
          "velocity": 0.5433070866141733
        },
        {
          "duration": 1.5,
          "durationTicks": 1800,
          "midi": 87,
          "name": "D#6",
          "ticks": 384000,
          "time": 320,
          "velocity": 0.8267716535433071
        },
        {
          "duration": 0.04666666666668107,
          "durationTicks": 56,
          "midi": 86,
          "name": "D6",
          "ticks": 385920,
          "time": 321.6,
          "velocity": 0.8267716535433071
        },
        {
          "duration": 0.6833333333333371,
          "durationTicks": 820,
          "midi": 87,
          "name": "D#6",
          "ticks": 385980,
          "time": 321.65000000000003,
          "velocity": 0.8267716535433071
        },
        {
          "duration": 0.04666666666668107,
          "durationTicks": 56,
          "midi": 86,
          "name": "D6",
          "ticks": 386880,
          "time": 322.40000000000003,
          "velocity": 0.8267716535433071
        },
        {
          "duration": 0.6833333333333371,
          "durationTicks": 820,
          "midi": 87,
          "name": "D#6",
          "ticks": 386940,
          "time": 322.45000000000005,
          "velocity": 0.8267716535433071
        },
        {
          "duration": 1.5,
          "durationTicks": 1800,
          "midi": 88,
          "name": "E6",
          "ticks": 387840,
          "time": 323.20000000000005,
          "velocity": 0.8267716535433071
        },
        {
          "duration": 1.5,
          "durationTicks": 1800,
          "midi": 89,
          "name": "F6",
          "ticks": 389760,
          "time": 324.8,
          "velocity": 0.8267716535433071
        },
        {
          "duration": 3.099999999999966,
          "durationTicks": 3720,
          "midi": 88,
          "name": "E6",
          "ticks": 391680,
          "time": 326.40000000000003,
          "velocity": 0.8267716535433071
        },
        {
          "duration": 0.33333333333337123,
          "durationTicks": 400,
          "midi": 86,
          "name": "D6",
          "ticks": 395520,
          "time": 329.6,
          "velocity": 0.8267716535433071
        },
        {
          "duration": 0.33333333333337123,
          "durationTicks": 400,
          "midi": 74,
          "name": "D5",
          "ticks": 396000,
          "time": 330,
          "velocity": 0.8267716535433071
        },
        {
          "duration": 0.3333333333333144,
          "durationTicks": 400,
          "midi": 79,
          "name": "G5",
          "ticks": 396480,
          "time": 330.40000000000003,
          "velocity": 0.8267716535433071
        },
        {
          "duration": 0.33333333333337123,
          "durationTicks": 400,
          "midi": 83,
          "name": "B5",
          "ticks": 396960,
          "time": 330.8,
          "velocity": 0.8267716535433071
        },
        {
          "duration": 1.099999999999966,
          "durationTicks": 1320,
          "midi": 86,
          "name": "D6",
          "ticks": 397440,
          "time": 331.20000000000005,
          "velocity": 0.8267716535433071
        },
        {
          "duration": 0.3333333333333144,
          "durationTicks": 400,
          "midi": 90,
          "name": "F#6",
          "ticks": 398880,
          "time": 332.40000000000003,
          "velocity": 0.8267716535433071
        },
        {
          "duration": 4.699999999999989,
          "durationTicks": 5640,
          "midi": 91,
          "name": "G6",
          "ticks": 399360,
          "time": 332.8,
          "velocity": 0.8267716535433071
        },
        {
          "duration": 0.6999999999999886,
          "durationTicks": 840,
          "midi": 91,
          "name": "G6",
          "ticks": 405120,
          "time": 337.6,
          "velocity": 0.6771653543307087
        },
        {
          "duration": 0.6999999999999886,
          "durationTicks": 840,
          "midi": 91,
          "name": "G6",
          "ticks": 406080,
          "time": 338.40000000000003,
          "velocity": 0.6771653543307087
        },
        {
          "duration": 0.39999999999997726,
          "durationTicks": 480,
          "midi": 88,
          "name": "E6",
          "ticks": 407040,
          "time": 339.20000000000005,
          "velocity": 0.6771653543307087
        },
        {
          "duration": 0.8000000000000114,
          "durationTicks": 960,
          "midi": 84,
          "name": "C6",
          "ticks": 407520,
          "time": 339.6,
          "velocity": 0.6771653543307087
        },
        {
          "duration": 0.3333333333333144,
          "durationTicks": 400,
          "midi": 81,
          "name": "A5",
          "ticks": 408480,
          "time": 340.40000000000003,
          "velocity": 0.6771653543307087
        },
        {
          "duration": 0.6000000000000227,
          "durationTicks": 720,
          "midi": 83,
          "name": "B5",
          "ticks": 408960,
          "time": 340.8,
          "velocity": 0.6771653543307087
        },
        {
          "duration": 0.19666666666665833,
          "durationTicks": 236,
          "midi": 81,
          "name": "A5",
          "ticks": 409680,
          "time": 341.40000000000003,
          "velocity": 0.6771653543307087
        },
        {
          "duration": 0.30000000000001137,
          "durationTicks": 360,
          "midi": 84,
          "name": "C6",
          "ticks": 409920,
          "time": 341.6,
          "velocity": 0.6771653543307087
        },
        {
          "duration": 0.09666666666663559,
          "durationTicks": 116,
          "midi": 83,
          "name": "B5",
          "ticks": 410280,
          "time": 341.90000000000003,
          "velocity": 0.6771653543307087
        },
        {
          "duration": 0.30000000000001137,
          "durationTicks": 360,
          "midi": 88,
          "name": "E6",
          "ticks": 410400,
          "time": 342,
          "velocity": 0.6771653543307087
        },
        {
          "duration": 0.09666666666669244,
          "durationTicks": 116,
          "midi": 86,
          "name": "D6",
          "ticks": 410760,
          "time": 342.3,
          "velocity": 0.6771653543307087
        },
        {
          "duration": 0.5999999999999659,
          "durationTicks": 720,
          "midi": 84,
          "name": "C6",
          "ticks": 410880,
          "time": 342.40000000000003,
          "velocity": 0.6771653543307087
        },
        {
          "duration": 0.19666666666671517,
          "durationTicks": 236,
          "midi": 83,
          "name": "B5",
          "ticks": 411600,
          "time": 343,
          "velocity": 0.6771653543307087
        },
        {
          "duration": 0.2999999999999545,
          "durationTicks": 360,
          "midi": 86,
          "name": "D6",
          "ticks": 411840,
          "time": 343.20000000000005,
          "velocity": 0.6771653543307087
        },
        {
          "duration": 0.09666666666669244,
          "durationTicks": 116,
          "midi": 84,
          "name": "C6",
          "ticks": 412200,
          "time": 343.5,
          "velocity": 0.6771653543307087
        },
        {
          "duration": 0.30000000000001137,
          "durationTicks": 360,
          "midi": 89,
          "name": "F6",
          "ticks": 412320,
          "time": 343.6,
          "velocity": 0.6771653543307087
        },
        {
          "duration": 0.09666666666663559,
          "durationTicks": 116,
          "midi": 88,
          "name": "E6",
          "ticks": 412680,
          "time": 343.90000000000003,
          "velocity": 0.6771653543307087
        },
        {
          "duration": 0.6000000000000227,
          "durationTicks": 720,
          "midi": 86,
          "name": "D6",
          "ticks": 412800,
          "time": 344,
          "velocity": 0.6771653543307087
        },
        {
          "duration": 0.19666666666665833,
          "durationTicks": 236,
          "midi": 85,
          "name": "C#6",
          "ticks": 413520,
          "time": 344.6,
          "velocity": 0.6771653543307087
        },
        {
          "duration": 0.30000000000001137,
          "durationTicks": 360,
          "midi": 88,
          "name": "E6",
          "ticks": 413760,
          "time": 344.8,
          "velocity": 0.6771653543307087
        },
        {
          "duration": 0.09666666666669244,
          "durationTicks": 116,
          "midi": 86,
          "name": "D6",
          "ticks": 414120,
          "time": 345.1,
          "velocity": 0.6771653543307087
        },
        {
          "duration": 0.2999999999999545,
          "durationTicks": 360,
          "midi": 91,
          "name": "G6",
          "ticks": 414240,
          "time": 345.20000000000005,
          "velocity": 0.6771653543307087
        },
        {
          "duration": 0.09666666666669244,
          "durationTicks": 116,
          "midi": 89,
          "name": "F6",
          "ticks": 414600,
          "time": 345.5,
          "velocity": 0.6771653543307087
        },
        {
          "duration": 0.39999999999997726,
          "durationTicks": 480,
          "midi": 88,
          "name": "E6",
          "ticks": 414720,
          "time": 345.6,
          "velocity": 0.6771653543307087
        },
        {
          "duration": 0.4000000000000341,
          "durationTicks": 480,
          "midi": 89,
          "name": "F6",
          "ticks": 415200,
          "time": 346,
          "velocity": 0.6771653543307087
        },
        {
          "duration": 0.39999999999997726,
          "durationTicks": 480,
          "midi": 88,
          "name": "E6",
          "ticks": 415680,
          "time": 346.40000000000003,
          "velocity": 0.6771653543307087
        },
        {
          "duration": 0.4000000000000341,
          "durationTicks": 480,
          "midi": 86,
          "name": "D6",
          "ticks": 416160,
          "time": 346.8,
          "velocity": 0.6771653543307087
        },
        {
          "duration": 0.3333333333333144,
          "durationTicks": 400,
          "midi": 84,
          "name": "C6",
          "ticks": 416640,
          "time": 347.20000000000005,
          "velocity": 0.6771653543307087
        },
        {
          "duration": 0.39999999999997726,
          "durationTicks": 480,
          "midi": 87,
          "name": "D#6",
          "ticks": 417120,
          "time": 347.6,
          "velocity": 0.6771653543307087
        },
        {
          "duration": 0.4000000000000341,
          "durationTicks": 480,
          "midi": 86,
          "name": "D6",
          "ticks": 417600,
          "time": 348,
          "velocity": 0.6771653543307087
        },
        {
          "duration": 0.39999999999997726,
          "durationTicks": 480,
          "midi": 87,
          "name": "D#6",
          "ticks": 418080,
          "time": 348.40000000000003,
          "velocity": 0.6771653543307087
        },
        {
          "duration": 0.33333333333337123,
          "durationTicks": 400,
          "midi": 86,
          "name": "D6",
          "ticks": 418560,
          "time": 348.8,
          "velocity": 0.6771653543307087
        },
        {
          "duration": 0.6000000000000227,
          "durationTicks": 720,
          "midi": 79,
          "name": "G5",
          "ticks": 437760,
          "time": 364.8,
          "velocity": 0.5433070866141733
        },
        {
          "duration": 0.19666666666665833,
          "durationTicks": 236,
          "midi": 83,
          "name": "B5",
          "ticks": 438480,
          "time": 365.40000000000003,
          "velocity": 0.5433070866141733
        },
        {
          "duration": 0.6000000000000227,
          "durationTicks": 720,
          "midi": 76,
          "name": "E5",
          "ticks": 438720,
          "time": 365.6,
          "velocity": 0.5433070866141733
        },
        {
          "duration": 0.19666666666665833,
          "durationTicks": 236,
          "midi": 84,
          "name": "C6",
          "ticks": 439440,
          "time": 366.20000000000005,
          "velocity": 0.5433070866141733
        },
        {
          "duration": 0.19999999999998863,
          "durationTicks": 240,
          "midi": 81,
          "name": "A5",
          "ticks": 439680,
          "time": 366.40000000000003,
          "velocity": 0.5433070866141733
        },
        {
          "duration": 0.19666666666665833,
          "durationTicks": 236,
          "midi": 88,
          "name": "E6",
          "ticks": 439920,
          "time": 366.6,
          "velocity": 0.5433070866141733
        },
        {
          "duration": 0.06666666666666288,
          "durationTicks": 80,
          "midi": 84,
          "name": "C6",
          "ticks": 440160,
          "time": 366.8,
          "velocity": 0.5433070866141733
        },
        {
          "duration": 0.06666666666666288,
          "durationTicks": 80,
          "midi": 81,
          "name": "A5",
          "ticks": 440400,
          "time": 367,
          "velocity": 0.5433070866141733
        },
        {
          "duration": 0.06666666666660603,
          "durationTicks": 80,
          "midi": 78,
          "name": "F#5",
          "ticks": 440640,
          "time": 367.20000000000005,
          "velocity": 0.5433070866141733
        },
        {
          "duration": 0.06666666666666288,
          "durationTicks": 80,
          "midi": 79,
          "name": "G5",
          "ticks": 440880,
          "time": 367.40000000000003,
          "velocity": 0.5433070866141733
        },
        {
          "duration": 0.06666666666666288,
          "durationTicks": 80,
          "midi": 81,
          "name": "A5",
          "ticks": 441120,
          "time": 367.6,
          "velocity": 0.5433070866141733
        },
        {
          "duration": 0.06666666666666288,
          "durationTicks": 80,
          "midi": 83,
          "name": "B5",
          "ticks": 441360,
          "time": 367.8,
          "velocity": 0.5433070866141733
        },
        {
          "duration": 0.19666666666671517,
          "durationTicks": 236,
          "midi": 79,
          "name": "G5",
          "ticks": 441600,
          "time": 368,
          "velocity": 0.5433070866141733
        },
        {
          "duration": 0.6999999999999886,
          "durationTicks": 840,
          "midi": 86,
          "name": "D6",
          "ticks": 442080,
          "time": 368.40000000000003,
          "velocity": 0.8267716535433071
        },
        {
          "duration": 0.3333333333333144,
          "durationTicks": 400,
          "midi": 86,
          "name": "D6",
          "ticks": 443040,
          "time": 369.20000000000005,
          "velocity": 0.8267716535433071
        },
        {
          "duration": 0.19666666666665833,
          "durationTicks": 236,
          "midi": 86,
          "name": "D6",
          "ticks": 443520,
          "time": 369.6,
          "velocity": 0.8267716535433071
        },
        {
          "duration": 0.7000000000000455,
          "durationTicks": 840,
          "midi": 86,
          "name": "D6",
          "ticks": 444000,
          "time": 370,
          "velocity": 0.8267716535433071
        },
        {
          "duration": 0.33333333333337123,
          "durationTicks": 400,
          "midi": 86,
          "name": "D6",
          "ticks": 444960,
          "time": 370.8,
          "velocity": 0.8267716535433071
        },
        {
          "duration": 0.19666666666665833,
          "durationTicks": 236,
          "midi": 86,
          "name": "D6",
          "ticks": 445440,
          "time": 371.20000000000005,
          "velocity": 0.8267716535433071
        },
        {
          "duration": 0.05000000000001137,
          "durationTicks": 60,
          "midi": 84,
          "name": "C6",
          "ticks": 445920,
          "time": 371.6,
          "velocity": 0.8267716535433071
        },
        {
          "duration": 0.05000000000001137,
          "durationTicks": 60,
          "midi": 83,
          "name": "B5",
          "ticks": 445980,
          "time": 371.65000000000003,
          "velocity": 0.8267716535433071
        },
        {
          "duration": 0.049999999999954525,
          "durationTicks": 60,
          "midi": 84,
          "name": "C6",
          "ticks": 446040,
          "time": 371.70000000000005,
          "velocity": 0.8267716535433071
        },
        {
          "duration": 0.05000000000001137,
          "durationTicks": 60,
          "midi": 83,
          "name": "B5",
          "ticks": 446100,
          "time": 371.75,
          "velocity": 0.8267716535433071
        },
        {
          "duration": 0.10000000000002274,
          "durationTicks": 120,
          "midi": 81,
          "name": "A5",
          "ticks": 446160,
          "time": 371.8,
          "velocity": 0.8267716535433071
        },
        {
          "duration": 0.0999999999999659,
          "durationTicks": 120,
          "midi": 83,
          "name": "B5",
          "ticks": 446280,
          "time": 371.90000000000003,
          "velocity": 0.8267716535433071
        },
        {
          "duration": 0.19666666666671517,
          "durationTicks": 236,
          "midi": 84,
          "name": "C6",
          "ticks": 446400,
          "time": 372,
          "velocity": 0.8267716535433071
        },
        {
          "duration": 0.06666666666660603,
          "durationTicks": 80,
          "midi": 84,
          "name": "C6",
          "ticks": 446640,
          "time": 372.20000000000005,
          "velocity": 0.8267716535433071
        },
        {
          "duration": 0.06666666666666288,
          "durationTicks": 80,
          "midi": 81,
          "name": "A5",
          "ticks": 446880,
          "time": 372.40000000000003,
          "velocity": 0.8267716535433071
        },
        {
          "duration": 0.06666666666666288,
          "durationTicks": 80,
          "midi": 81,
          "name": "A5",
          "ticks": 447120,
          "time": 372.6,
          "velocity": 0.8267716535433071
        },
        {
          "duration": 0.19666666666665833,
          "durationTicks": 236,
          "midi": 83,
          "name": "B5",
          "ticks": 447360,
          "time": 372.8,
          "velocity": 0.8267716535433071
        },
        {
          "duration": 0.6999999999999886,
          "durationTicks": 840,
          "midi": 86,
          "name": "D6",
          "ticks": 447840,
          "time": 373.20000000000005,
          "velocity": 0.8267716535433071
        },
        {
          "duration": 0.33333333333337123,
          "durationTicks": 400,
          "midi": 86,
          "name": "D6",
          "ticks": 448800,
          "time": 374,
          "velocity": 0.8267716535433071
        },
        {
          "duration": 0.19666666666665833,
          "durationTicks": 236,
          "midi": 86,
          "name": "D6",
          "ticks": 449280,
          "time": 374.40000000000003,
          "velocity": 0.8267716535433071
        },
        {
          "duration": 0.6999999999999886,
          "durationTicks": 840,
          "midi": 86,
          "name": "D6",
          "ticks": 449760,
          "time": 374.8,
          "velocity": 0.8267716535433071
        },
        {
          "duration": 0.33333333333337123,
          "durationTicks": 400,
          "midi": 86,
          "name": "D6",
          "ticks": 450720,
          "time": 375.6,
          "velocity": 0.8267716535433071
        },
        {
          "duration": 0.19666666666671517,
          "durationTicks": 236,
          "midi": 86,
          "name": "D6",
          "ticks": 451200,
          "time": 376,
          "velocity": 0.8267716535433071
        },
        {
          "duration": 0.05000000000001137,
          "durationTicks": 60,
          "midi": 84,
          "name": "C6",
          "ticks": 451680,
          "time": 376.40000000000003,
          "velocity": 0.8267716535433071
        },
        {
          "duration": 0.049999999999954525,
          "durationTicks": 60,
          "midi": 83,
          "name": "B5",
          "ticks": 451740,
          "time": 376.45000000000005,
          "velocity": 0.8267716535433071
        },
        {
          "duration": 0.05000000000001137,
          "durationTicks": 60,
          "midi": 84,
          "name": "C6",
          "ticks": 451800,
          "time": 376.5,
          "velocity": 0.8267716535433071
        },
        {
          "duration": 0.05000000000001137,
          "durationTicks": 60,
          "midi": 83,
          "name": "B5",
          "ticks": 451860,
          "time": 376.55,
          "velocity": 0.8267716535433071
        },
        {
          "duration": 0.10000000000002274,
          "durationTicks": 120,
          "midi": 81,
          "name": "A5",
          "ticks": 451920,
          "time": 376.6,
          "velocity": 0.8267716535433071
        },
        {
          "duration": 0.0999999999999659,
          "durationTicks": 120,
          "midi": 83,
          "name": "B5",
          "ticks": 452040,
          "time": 376.70000000000005,
          "velocity": 0.8267716535433071
        },
        {
          "duration": 0.19666666666665833,
          "durationTicks": 236,
          "midi": 84,
          "name": "C6",
          "ticks": 452160,
          "time": 376.8,
          "velocity": 0.8267716535433071
        },
        {
          "duration": 0.06666666666666288,
          "durationTicks": 80,
          "midi": 84,
          "name": "C6",
          "ticks": 452400,
          "time": 377,
          "velocity": 0.8267716535433071
        },
        {
          "duration": 0.06666666666660603,
          "durationTicks": 80,
          "midi": 81,
          "name": "A5",
          "ticks": 452640,
          "time": 377.20000000000005,
          "velocity": 0.8267716535433071
        },
        {
          "duration": 0.06666666666666288,
          "durationTicks": 80,
          "midi": 81,
          "name": "A5",
          "ticks": 452880,
          "time": 377.40000000000003,
          "velocity": 0.8267716535433071
        },
        {
          "duration": 0.33333333333337123,
          "durationTicks": 400,
          "midi": 79,
          "name": "G5",
          "ticks": 453120,
          "time": 377.6,
          "velocity": 0.8267716535433071
        },
        {
          "duration": 0.3333333333333144,
          "durationTicks": 400,
          "midi": 86,
          "name": "D6",
          "ticks": 454080,
          "time": 378.40000000000003,
          "velocity": 0.8267716535433071
        },
        {
          "duration": 0.3333333333333144,
          "durationTicks": 400,
          "midi": 86,
          "name": "D6",
          "ticks": 455040,
          "time": 379.20000000000005,
          "velocity": 0.8267716535433071
        },
        {
          "duration": 0.33333333333337123,
          "durationTicks": 400,
          "midi": 86,
          "name": "D6",
          "ticks": 456000,
          "time": 380,
          "velocity": 0.8267716535433071
        },
        {
          "duration": 0.33333333333337123,
          "durationTicks": 400,
          "midi": 86,
          "name": "D6",
          "ticks": 456960,
          "time": 380.8,
          "velocity": 0.8267716535433071
        },
        {
          "duration": 0.33333333333337123,
          "durationTicks": 400,
          "midi": 86,
          "name": "D6",
          "ticks": 457920,
          "time": 381.6,
          "velocity": 0.8267716535433071
        },
        {
          "duration": 0.0999999999999659,
          "durationTicks": 120,
          "midi": 83,
          "name": "B5",
          "ticks": 458880,
          "time": 382.40000000000003,
          "velocity": 0.8267716535433071
        },
        {
          "duration": 0.10000000000002274,
          "durationTicks": 120,
          "midi": 86,
          "name": "D6",
          "ticks": 459360,
          "time": 382.8,
          "velocity": 0.8267716535433071
        },
        {
          "duration": 0.0999999999999659,
          "durationTicks": 120,
          "midi": 83,
          "name": "B5",
          "ticks": 459840,
          "time": 383.20000000000005,
          "velocity": 0.8267716535433071
        },
        {
          "duration": 1.6000000000000227,
          "durationTicks": 1920,
          "midi": 79,
          "name": "G5",
          "ticks": 460800,
          "time": 384,
          "velocity": 0.4015748031496063
        },
        {
          "duration": 0.8000000000000114,
          "durationTicks": 960,
          "midi": 77,
          "name": "F5",
          "ticks": 462720,
          "time": 385.6,
          "velocity": 0.4015748031496063
        },
        {
          "duration": 0.6999999999999886,
          "durationTicks": 840,
          "midi": 82,
          "name": "A#5",
          "ticks": 463680,
          "time": 386.40000000000003,
          "velocity": 0.4015748031496063
        },
        {
          "duration": 0.3333333333333144,
          "durationTicks": 400,
          "midi": 75,
          "name": "D#5",
          "ticks": 464640,
          "time": 387.20000000000005,
          "velocity": 0.4015748031496063
        },
        {
          "duration": 6.7333333333333485,
          "durationTicks": 8080,
          "midi": 82,
          "name": "A#5",
          "ticks": 468480,
          "time": 390.40000000000003,
          "velocity": 0.4015748031496063
        },
        {
          "duration": 0.29666666666668107,
          "durationTicks": 356,
          "midi": 82,
          "name": "A#5",
          "ticks": 484320,
          "time": 403.6,
          "velocity": 0.8267716535433071
        },
        {
          "duration": 0.09666666666663559,
          "durationTicks": 116,
          "midi": 82,
          "name": "A#5",
          "ticks": 484680,
          "time": 403.90000000000003,
          "velocity": 0.8267716535433071
        },
        {
          "duration": 0.33333333333337123,
          "durationTicks": 400,
          "midi": 82,
          "name": "A#5",
          "ticks": 484800,
          "time": 404,
          "velocity": 0.8267716535433071
        },
        {
          "duration": 0.3333333333333144,
          "durationTicks": 400,
          "midi": 82,
          "name": "A#5",
          "ticks": 485280,
          "time": 404.40000000000003,
          "velocity": 0.8267716535433071
        },
        {
          "duration": 0.33333333333337123,
          "durationTicks": 400,
          "midi": 82,
          "name": "A#5",
          "ticks": 485760,
          "time": 404.8,
          "velocity": 0.8267716535433071
        },
        {
          "duration": 0.29666666666668107,
          "durationTicks": 356,
          "midi": 85,
          "name": "C#6",
          "ticks": 488160,
          "time": 406.8,
          "velocity": 0.8267716535433071
        },
        {
          "duration": 0.09666666666669244,
          "durationTicks": 116,
          "midi": 85,
          "name": "C#6",
          "ticks": 488520,
          "time": 407.1,
          "velocity": 0.8267716535433071
        },
        {
          "duration": 0.3333333333333144,
          "durationTicks": 400,
          "midi": 84,
          "name": "C6",
          "ticks": 488640,
          "time": 407.20000000000005,
          "velocity": 0.8267716535433071
        },
        {
          "duration": 0.33333333333337123,
          "durationTicks": 400,
          "midi": 84,
          "name": "C6",
          "ticks": 489120,
          "time": 407.6,
          "velocity": 0.8267716535433071
        },
        {
          "duration": 0.33333333333337123,
          "durationTicks": 400,
          "midi": 84,
          "name": "C6",
          "ticks": 489600,
          "time": 408,
          "velocity": 0.8267716535433071
        },
        {
          "duration": 0.2966666666666242,
          "durationTicks": 356,
          "midi": 87,
          "name": "D#6",
          "ticks": 492000,
          "time": 410,
          "velocity": 0.8267716535433071
        },
        {
          "duration": 0.09666666666663559,
          "durationTicks": 116,
          "midi": 87,
          "name": "D#6",
          "ticks": 492360,
          "time": 410.3,
          "velocity": 0.8267716535433071
        },
        {
          "duration": 0.3333333333333144,
          "durationTicks": 400,
          "midi": 86,
          "name": "D6",
          "ticks": 492480,
          "time": 410.40000000000003,
          "velocity": 0.8267716535433071
        },
        {
          "duration": 0.3333333333333144,
          "durationTicks": 400,
          "midi": 86,
          "name": "D6",
          "ticks": 492960,
          "time": 410.8,
          "velocity": 0.8267716535433071
        },
        {
          "duration": 0.33333333333325754,
          "durationTicks": 400,
          "midi": 86,
          "name": "D6",
          "ticks": 493440,
          "time": 411.20000000000005,
          "velocity": 0.8267716535433071
        },
        {
          "duration": 0.10000000000002274,
          "durationTicks": 120,
          "midi": 72,
          "name": "C5",
          "ticks": 497760,
          "time": 414.8,
          "velocity": 0.8267716535433071
        },
        {
          "duration": 1.1999999999999886,
          "durationTicks": 1440,
          "midi": 84,
          "name": "C6",
          "ticks": 498240,
          "time": 415.20000000000005,
          "velocity": 0.8267716535433071
        },
        {
          "duration": 0.3333333333333144,
          "durationTicks": 400,
          "midi": 77,
          "name": "F5",
          "ticks": 499680,
          "time": 416.40000000000003,
          "velocity": 0.8267716535433071
        },
        {
          "duration": 0.10000000000002274,
          "durationTicks": 120,
          "midi": 70,
          "name": "A#4",
          "ticks": 501600,
          "time": 418,
          "velocity": 0.8267716535433071
        },
        {
          "duration": 1.133333333333269,
          "durationTicks": 1360,
          "midi": 82,
          "name": "A#5",
          "ticks": 502080,
          "time": 418.40000000000003,
          "velocity": 0.8267716535433071
        },
        {
          "duration": 0.19666666666665833,
          "durationTicks": 236,
          "midi": 91,
          "name": "G6",
          "ticks": 503760,
          "time": 419.8,
          "velocity": 0.8267716535433071
        },
        {
          "duration": 0.20000000000004547,
          "durationTicks": 240,
          "midi": 87,
          "name": "D#6",
          "ticks": 504000,
          "time": 420,
          "velocity": 0.8267716535433071
        },
        {
          "duration": 0.1966666666666015,
          "durationTicks": 236,
          "midi": 91,
          "name": "G6",
          "ticks": 504240,
          "time": 420.20000000000005,
          "velocity": 0.8267716535433071
        },
        {
          "duration": 0.06666666666666288,
          "durationTicks": 80,
          "midi": 84,
          "name": "C6",
          "ticks": 504480,
          "time": 420.40000000000003,
          "velocity": 0.8267716535433071
        },
        {
          "duration": 0.06666666666671972,
          "durationTicks": 80,
          "midi": 87,
          "name": "D#6",
          "ticks": 504720,
          "time": 420.6,
          "velocity": 0.8267716535433071
        },
        {
          "duration": 0.3333333333333144,
          "durationTicks": 400,
          "midi": 89,
          "name": "F6",
          "ticks": 504960,
          "time": 420.8,
          "velocity": 0.8267716535433071
        },
        {
          "duration": 0.1966666666666015,
          "durationTicks": 236,
          "midi": 89,
          "name": "F6",
          "ticks": 505680,
          "time": 421.40000000000003,
          "velocity": 0.8267716535433071
        },
        {
          "duration": 0.19999999999998863,
          "durationTicks": 240,
          "midi": 86,
          "name": "D6",
          "ticks": 505920,
          "time": 421.6,
          "velocity": 0.8267716535433071
        },
        {
          "duration": 0.19666666666665833,
          "durationTicks": 236,
          "midi": 89,
          "name": "F6",
          "ticks": 506160,
          "time": 421.8,
          "velocity": 0.8267716535433071
        },
        {
          "duration": 0.06666666666671972,
          "durationTicks": 80,
          "midi": 82,
          "name": "A#5",
          "ticks": 506400,
          "time": 422,
          "velocity": 0.8267716535433071
        },
        {
          "duration": 0.06666666666666288,
          "durationTicks": 80,
          "midi": 86,
          "name": "D6",
          "ticks": 506640,
          "time": 422.20000000000005,
          "velocity": 0.8267716535433071
        },
        {
          "duration": 0.19999999999998863,
          "durationTicks": 240,
          "midi": 87,
          "name": "D#6",
          "ticks": 506880,
          "time": 422.40000000000003,
          "velocity": 0.8267716535433071
        },
        {
          "duration": 0.1966666666666015,
          "durationTicks": 236,
          "midi": 91,
          "name": "G6",
          "ticks": 507120,
          "time": 422.6,
          "velocity": 0.8267716535433071
        },
        {
          "duration": 0.06666666666671972,
          "durationTicks": 80,
          "midi": 87,
          "name": "D#6",
          "ticks": 507360,
          "time": 422.8,
          "velocity": 0.8267716535433071
        },
        {
          "duration": 0.06666666666671972,
          "durationTicks": 80,
          "midi": 86,
          "name": "D6",
          "ticks": 507600,
          "time": 423,
          "velocity": 0.8267716535433071
        },
        {
          "duration": 0.19999999999998863,
          "durationTicks": 240,
          "midi": 84,
          "name": "C6",
          "ticks": 507840,
          "time": 423.20000000000005,
          "velocity": 0.8267716535433071
        },
        {
          "duration": 0.1966666666666015,
          "durationTicks": 236,
          "midi": 87,
          "name": "D#6",
          "ticks": 508080,
          "time": 423.40000000000003,
          "velocity": 0.8267716535433071
        },
        {
          "duration": 0.06666666666671972,
          "durationTicks": 80,
          "midi": 84,
          "name": "C6",
          "ticks": 508320,
          "time": 423.6,
          "velocity": 0.8267716535433071
        },
        {
          "duration": 0.06666666666671972,
          "durationTicks": 80,
          "midi": 82,
          "name": "A#5",
          "ticks": 508560,
          "time": 423.8,
          "velocity": 0.8267716535433071
        },
        {
          "duration": 0.20000000000004547,
          "durationTicks": 240,
          "midi": 81,
          "name": "A5",
          "ticks": 508800,
          "time": 424,
          "velocity": 0.8267716535433071
        },
        {
          "duration": 0.1966666666666015,
          "durationTicks": 236,
          "midi": 84,
          "name": "C6",
          "ticks": 509040,
          "time": 424.20000000000005,
          "velocity": 0.8267716535433071
        },
        {
          "duration": 0.06666666666666288,
          "durationTicks": 80,
          "midi": 81,
          "name": "A5",
          "ticks": 509280,
          "time": 424.40000000000003,
          "velocity": 0.8267716535433071
        },
        {
          "duration": 0.06666666666671972,
          "durationTicks": 80,
          "midi": 79,
          "name": "G5",
          "ticks": 509520,
          "time": 424.6,
          "velocity": 0.8267716535433071
        },
        {
          "duration": 0.3333333333333144,
          "durationTicks": 400,
          "midi": 78,
          "name": "F#5",
          "ticks": 509760,
          "time": 424.8,
          "velocity": 0.8267716535433071
        },
        {
          "duration": 0.33333333333325754,
          "durationTicks": 400,
          "midi": 84,
          "name": "C6",
          "ticks": 510240,
          "time": 425.20000000000005,
          "velocity": 0.8267716535433071
        },
        {
          "duration": 0.3333333333333144,
          "durationTicks": 400,
          "midi": 82,
          "name": "A#5",
          "ticks": 510720,
          "time": 425.6,
          "velocity": 0.8267716535433071
        },
        {
          "duration": 0.3333333333333144,
          "durationTicks": 400,
          "midi": 79,
          "name": "G5",
          "ticks": 511680,
          "time": 426.40000000000003,
          "velocity": 0.8267716535433071
        },
        {
          "duration": 0.33333333333325754,
          "durationTicks": 400,
          "midi": 87,
          "name": "D#6",
          "ticks": 512640,
          "time": 427.20000000000005,
          "velocity": 0.8267716535433071
        },
        {
          "duration": 0.3333333333333144,
          "durationTicks": 400,
          "midi": 74,
          "name": "D5",
          "ticks": 513600,
          "time": 428,
          "velocity": 0.8267716535433071
        },
        {
          "duration": 0.3333333333333144,
          "durationTicks": 400,
          "midi": 74,
          "name": "D5",
          "ticks": 514560,
          "time": 428.8,
          "velocity": 0.8267716535433071
        },
        {
          "duration": 0.3333333333333144,
          "durationTicks": 400,
          "midi": 82,
          "name": "A#5",
          "ticks": 515520,
          "time": 429.6,
          "velocity": 0.8267716535433071
        },
        {
          "duration": 0.3333333333333144,
          "durationTicks": 400,
          "midi": 88,
          "name": "E6",
          "ticks": 516480,
          "time": 430.40000000000003,
          "velocity": 0.8267716535433071
        },
        {
          "duration": 0.33333333333325754,
          "durationTicks": 400,
          "midi": 85,
          "name": "C#6",
          "ticks": 517440,
          "time": 431.20000000000005,
          "velocity": 0.8267716535433071
        },
        {
          "duration": 1.2000000000000455,
          "durationTicks": 1440,
          "midi": 86,
          "name": "D6",
          "ticks": 518400,
          "time": 432,
          "velocity": 0.8267716535433071
        },
        {
          "duration": 0.39999999999997726,
          "durationTicks": 480,
          "midi": 80,
          "name": "G#5",
          "ticks": 519840,
          "time": 433.20000000000005,
          "velocity": 0.8267716535433071
        },
        {
          "duration": 0.3333333333333144,
          "durationTicks": 400,
          "midi": 81,
          "name": "A5",
          "ticks": 520320,
          "time": 433.6,
          "velocity": 0.8267716535433071
        },
        {
          "duration": 0.4000000000000341,
          "durationTicks": 480,
          "midi": 89,
          "name": "F6",
          "ticks": 520800,
          "time": 434,
          "velocity": 0.8267716535433071
        },
        {
          "duration": 0.39999999999997726,
          "durationTicks": 480,
          "midi": 88,
          "name": "E6",
          "ticks": 521280,
          "time": 434.40000000000003,
          "velocity": 0.8267716535433071
        },
        {
          "duration": 0.3333333333333144,
          "durationTicks": 400,
          "midi": 87,
          "name": "D#6",
          "ticks": 521760,
          "time": 434.8,
          "velocity": 0.8267716535433071
        },
        {
          "duration": 0.33333333333325754,
          "durationTicks": 400,
          "midi": 88,
          "name": "E6",
          "ticks": 522240,
          "time": 435.20000000000005,
          "velocity": 0.8267716535433071
        },
        {
          "duration": 0.7999999999999545,
          "durationTicks": 960,
          "midi": 87,
          "name": "D#6",
          "ticks": 527040,
          "time": 439.20000000000005,
          "velocity": 0.4015748031496063
        },
        {
          "duration": 0.4000000000000341,
          "durationTicks": 480,
          "midi": 88,
          "name": "E6",
          "ticks": 528000,
          "time": 440,
          "velocity": 0.4015748031496063
        },
        {
          "duration": 0.8000000000000114,
          "durationTicks": 960,
          "midi": 87,
          "name": "D#6",
          "ticks": 528960,
          "time": 440.8,
          "velocity": 0.4015748031496063
        },
        {
          "duration": 0.39999999999997726,
          "durationTicks": 480,
          "midi": 88,
          "name": "E6",
          "ticks": 529920,
          "time": 441.6,
          "velocity": 0.4015748031496063
        },
        {
          "duration": 0.6999999999999886,
          "durationTicks": 840,
          "midi": 67,
          "name": "G4",
          "ticks": 545280,
          "time": 454.40000000000003,
          "velocity": 0.5433070866141733
        },
        {
          "duration": 0.9966666666666129,
          "durationTicks": 1196,
          "midi": 79,
          "name": "G5",
          "ticks": 546240,
          "time": 455.20000000000005,
          "velocity": 0.5433070866141733
        },
        {
          "duration": 0.06666666666666288,
          "durationTicks": 80,
          "midi": 77,
          "name": "F5",
          "ticks": 547440,
          "time": 456.20000000000005,
          "velocity": 0.5433070866141733
        },
        {
          "duration": 0.06666666666666288,
          "durationTicks": 80,
          "midi": 76,
          "name": "E5",
          "ticks": 547680,
          "time": 456.40000000000003,
          "velocity": 0.5433070866141733
        },
        {
          "duration": 0.06666666666671972,
          "durationTicks": 80,
          "midi": 74,
          "name": "D5",
          "ticks": 547920,
          "time": 456.6,
          "velocity": 0.5433070866141733
        },
        {
          "duration": 0.06666666666671972,
          "durationTicks": 80,
          "midi": 72,
          "name": "C5",
          "ticks": 548160,
          "time": 456.8,
          "velocity": 0.5433070866141733
        },
        {
          "duration": 0.06666666666671972,
          "durationTicks": 80,
          "midi": 70,
          "name": "A#4",
          "ticks": 548400,
          "time": 457,
          "velocity": 0.5433070866141733
        },
        {
          "duration": 0.06666666666666288,
          "durationTicks": 80,
          "midi": 69,
          "name": "A4",
          "ticks": 548640,
          "time": 457.20000000000005,
          "velocity": 0.5433070866141733
        },
        {
          "duration": 0.06666666666666288,
          "durationTicks": 80,
          "midi": 67,
          "name": "G4",
          "ticks": 548880,
          "time": 457.40000000000003,
          "velocity": 0.5433070866141733
        },
        {
          "duration": 1.5,
          "durationTicks": 1800,
          "midi": 67,
          "name": "G4",
          "ticks": 549120,
          "time": 457.6,
          "velocity": 0.5433070866141733
        },
        {
          "duration": 1.5,
          "durationTicks": 1800,
          "midi": 66,
          "name": "F#4",
          "ticks": 551040,
          "time": 459.20000000000005,
          "velocity": 0.5433070866141733
        },
        {
          "duration": 0.6999999999999886,
          "durationTicks": 840,
          "midi": 74,
          "name": "D5",
          "ticks": 552960,
          "time": 460.8,
          "velocity": 0.5433070866141733
        },
        {
          "duration": 0.9966666666666129,
          "durationTicks": 1196,
          "midi": 86,
          "name": "D6",
          "ticks": 553920,
          "time": 461.6,
          "velocity": 0.5433070866141733
        },
        {
          "duration": 0.06666666666671972,
          "durationTicks": 80,
          "midi": 84,
          "name": "C6",
          "ticks": 555120,
          "time": 462.6,
          "velocity": 0.5433070866141733
        },
        {
          "duration": 0.06666666666671972,
          "durationTicks": 80,
          "midi": 83,
          "name": "B5",
          "ticks": 555360,
          "time": 462.8,
          "velocity": 0.5433070866141733
        },
        {
          "duration": 0.06666666666671972,
          "durationTicks": 80,
          "midi": 81,
          "name": "A5",
          "ticks": 555600,
          "time": 463,
          "velocity": 0.5433070866141733
        },
        {
          "duration": 0.06666666666666288,
          "durationTicks": 80,
          "midi": 80,
          "name": "G#5",
          "ticks": 555840,
          "time": 463.20000000000005,
          "velocity": 0.5433070866141733
        },
        {
          "duration": 0.06666666666666288,
          "durationTicks": 80,
          "midi": 77,
          "name": "F5",
          "ticks": 556080,
          "time": 463.40000000000003,
          "velocity": 0.5433070866141733
        },
        {
          "duration": 0.06666666666671972,
          "durationTicks": 80,
          "midi": 76,
          "name": "E5",
          "ticks": 556320,
          "time": 463.6,
          "velocity": 0.5433070866141733
        },
        {
          "duration": 0.06666666666671972,
          "durationTicks": 80,
          "midi": 74,
          "name": "D5",
          "ticks": 556560,
          "time": 463.8,
          "velocity": 0.5433070866141733
        },
        {
          "duration": 0.10000000000002274,
          "durationTicks": 120,
          "midi": 72,
          "name": "C5",
          "ticks": 556800,
          "time": 464,
          "velocity": 0.8267716535433071
        },
        {
          "duration": 0.0999999999999659,
          "durationTicks": 120,
          "midi": 84,
          "name": "C6",
          "ticks": 557280,
          "time": 464.40000000000003,
          "velocity": 0.8267716535433071
        },
        {
          "duration": 0.0999999999999659,
          "durationTicks": 120,
          "midi": 84,
          "name": "C6",
          "ticks": 558240,
          "time": 465.20000000000005,
          "velocity": 0.8267716535433071
        },
        {
          "duration": 0.10000000000002274,
          "durationTicks": 120,
          "midi": 83,
          "name": "B5",
          "ticks": 559200,
          "time": 466,
          "velocity": 0.8267716535433071
        },
        {
          "duration": 0.10000000000002274,
          "durationTicks": 120,
          "midi": 87,
          "name": "D#6",
          "ticks": 560160,
          "time": 466.8,
          "velocity": 0.8267716535433071
        },
        {
          "duration": 0.0999999999999659,
          "durationTicks": 120,
          "midi": 88,
          "name": "E6",
          "ticks": 560640,
          "time": 467.20000000000005,
          "velocity": 0.8267716535433071
        },
        {
          "duration": 0.10000000000002274,
          "durationTicks": 120,
          "midi": 83,
          "name": "B5",
          "ticks": 561120,
          "time": 467.6,
          "velocity": 0.8267716535433071
        },
        {
          "duration": 0.0999999999999659,
          "durationTicks": 120,
          "midi": 82,
          "name": "A#5",
          "ticks": 562080,
          "time": 468.40000000000003,
          "velocity": 0.8267716535433071
        },
        {
          "duration": 0.0999999999999659,
          "durationTicks": 120,
          "midi": 81,
          "name": "A5",
          "ticks": 563040,
          "time": 469.20000000000005,
          "velocity": 0.8267716535433071
        },
        {
          "duration": 0.10000000000002274,
          "durationTicks": 120,
          "midi": 85,
          "name": "C#6",
          "ticks": 564000,
          "time": 470,
          "velocity": 0.8267716535433071
        },
        {
          "duration": 0.0999999999999659,
          "durationTicks": 120,
          "midi": 86,
          "name": "D6",
          "ticks": 564480,
          "time": 470.40000000000003,
          "velocity": 0.8267716535433071
        },
        {
          "duration": 0.10000000000002274,
          "durationTicks": 120,
          "midi": 81,
          "name": "A5",
          "ticks": 564960,
          "time": 470.8,
          "velocity": 0.8267716535433071
        },
        {
          "duration": 0.10000000000002274,
          "durationTicks": 120,
          "midi": 80,
          "name": "G#5",
          "ticks": 565920,
          "time": 471.6,
          "velocity": 0.8267716535433071
        },
        {
          "duration": 0.0999999999999659,
          "durationTicks": 120,
          "midi": 79,
          "name": "G5",
          "ticks": 566880,
          "time": 472.40000000000003,
          "velocity": 0.8267716535433071
        },
        {
          "duration": 0.0999999999999659,
          "durationTicks": 120,
          "midi": 83,
          "name": "B5",
          "ticks": 567840,
          "time": 473.20000000000005,
          "velocity": 0.8267716535433071
        },
        {
          "duration": 0.10000000000002274,
          "durationTicks": 120,
          "midi": 84,
          "name": "C6",
          "ticks": 568320,
          "time": 473.6,
          "velocity": 0.8267716535433071
        },
        {
          "duration": 0.10000000000002274,
          "durationTicks": 120,
          "midi": 84,
          "name": "C6",
          "ticks": 568800,
          "time": 474,
          "velocity": 0.8267716535433071
        },
        {
          "duration": 0.10000000000002274,
          "durationTicks": 120,
          "midi": 84,
          "name": "C6",
          "ticks": 569760,
          "time": 474.8,
          "velocity": 0.8267716535433071
        },
        {
          "duration": 0.3333333333333144,
          "durationTicks": 400,
          "midi": 87,
          "name": "D#6",
          "ticks": 570720,
          "time": 475.6,
          "velocity": 0.8267716535433071
        },
        {
          "duration": 0.3333333333333144,
          "durationTicks": 400,
          "midi": 78,
          "name": "F#5",
          "ticks": 571680,
          "time": 476.40000000000003,
          "velocity": 0.8267716535433071
        },
        {
          "duration": 0.3333333333333144,
          "durationTicks": 400,
          "midi": 79,
          "name": "G5",
          "ticks": 572160,
          "time": 476.8,
          "velocity": 0.8267716535433071
        },
        {
          "duration": 0.10000000000002274,
          "durationTicks": 120,
          "midi": 86,
          "name": "D6",
          "ticks": 573120,
          "time": 477.6,
          "velocity": 0.8267716535433071
        },
        {
          "duration": 0.3333333333333144,
          "durationTicks": 400,
          "midi": 78,
          "name": "F#5",
          "ticks": 573600,
          "time": 478,
          "velocity": 0.8267716535433071
        },
        {
          "duration": 0.0999999999999659,
          "durationTicks": 120,
          "midi": 79,
          "name": "G5",
          "ticks": 574080,
          "time": 478.40000000000003,
          "velocity": 0.8267716535433071
        },
        {
          "duration": 0.0999999999999659,
          "durationTicks": 120,
          "midi": 86,
          "name": "D6",
          "ticks": 575040,
          "time": 479.20000000000005,
          "velocity": 0.8267716535433071
        },
        {
          "duration": 0.3333333333333144,
          "durationTicks": 400,
          "midi": 78,
          "name": "F#5",
          "ticks": 575520,
          "time": 479.6,
          "velocity": 0.8267716535433071
        },
        {
          "duration": 0.10000000000002274,
          "durationTicks": 120,
          "midi": 79,
          "name": "G5",
          "ticks": 576000,
          "time": 480,
          "velocity": 0.8267716535433071
        },
        {
          "duration": 0.06666666666666288,
          "durationTicks": 80,
          "midi": 79,
          "name": "G5",
          "ticks": 579840,
          "time": 483.20000000000005,
          "velocity": 0.4015748031496063
        },
        {
          "duration": 0.06666666666666288,
          "durationTicks": 80,
          "midi": 86,
          "name": "D6",
          "ticks": 580080,
          "time": 483.40000000000003,
          "velocity": 0.4015748031496063
        },
        {
          "duration": 0.06666666666671972,
          "durationTicks": 80,
          "midi": 83,
          "name": "B5",
          "ticks": 580320,
          "time": 483.6,
          "velocity": 0.4015748031496063
        },
        {
          "duration": 0.06666666666671972,
          "durationTicks": 80,
          "midi": 79,
          "name": "G5",
          "ticks": 580560,
          "time": 483.8,
          "velocity": 0.4015748031496063
        },
        {
          "duration": 0.19666666666665833,
          "durationTicks": 236,
          "midi": 84,
          "name": "C6",
          "ticks": 580800,
          "time": 484,
          "velocity": 0.4015748031496063
        },
        {
          "duration": 0.19999999999998863,
          "durationTicks": 240,
          "midi": 86,
          "name": "D6",
          "ticks": 581040,
          "time": 484.20000000000005,
          "velocity": 0.4015748031496063
        },
        {
          "duration": 0.19999999999998863,
          "durationTicks": 240,
          "midi": 87,
          "name": "D#6",
          "ticks": 581280,
          "time": 484.40000000000003,
          "velocity": 0.4015748031496063
        },
        {
          "duration": 0.1966666666666015,
          "durationTicks": 236,
          "midi": 84,
          "name": "C6",
          "ticks": 581520,
          "time": 484.6,
          "velocity": 0.4015748031496063
        },
        {
          "duration": 0.06666666666671972,
          "durationTicks": 80,
          "midi": 79,
          "name": "G5",
          "ticks": 581760,
          "time": 484.8,
          "velocity": 0.4015748031496063
        },
        {
          "duration": 0.06666666666671972,
          "durationTicks": 80,
          "midi": 86,
          "name": "D6",
          "ticks": 582000,
          "time": 485,
          "velocity": 0.4015748031496063
        },
        {
          "duration": 0.06666666666666288,
          "durationTicks": 80,
          "midi": 83,
          "name": "B5",
          "ticks": 582240,
          "time": 485.20000000000005,
          "velocity": 0.4015748031496063
        },
        {
          "duration": 0.06666666666666288,
          "durationTicks": 80,
          "midi": 79,
          "name": "G5",
          "ticks": 582480,
          "time": 485.40000000000003,
          "velocity": 0.4015748031496063
        },
        {
          "duration": 0.1966666666666015,
          "durationTicks": 236,
          "midi": 84,
          "name": "C6",
          "ticks": 582720,
          "time": 485.6,
          "velocity": 0.4015748031496063
        },
        {
          "duration": 0.19999999999998863,
          "durationTicks": 240,
          "midi": 86,
          "name": "D6",
          "ticks": 582960,
          "time": 485.8,
          "velocity": 0.4015748031496063
        },
        {
          "duration": 0.20000000000004547,
          "durationTicks": 240,
          "midi": 87,
          "name": "D#6",
          "ticks": 583200,
          "time": 486,
          "velocity": 0.4015748031496063
        },
        {
          "duration": 0.1966666666666015,
          "durationTicks": 236,
          "midi": 84,
          "name": "C6",
          "ticks": 583440,
          "time": 486.20000000000005,
          "velocity": 0.4015748031496063
        },
        {
          "duration": 0.3333333333333144,
          "durationTicks": 400,
          "midi": 83,
          "name": "B5",
          "ticks": 583680,
          "time": 486.40000000000003,
          "velocity": 0.4015748031496063
        },
        {
          "duration": 0.06666666666671972,
          "durationTicks": 80,
          "midi": 84,
          "name": "C6",
          "ticks": 589200,
          "time": 491,
          "velocity": 0.4015748031496063
        },
        {
          "duration": 0.06666666666666288,
          "durationTicks": 80,
          "midi": 83,
          "name": "B5",
          "ticks": 589440,
          "time": 491.20000000000005,
          "velocity": 0.4015748031496063
        },
        {
          "duration": 0.06666666666666288,
          "durationTicks": 80,
          "midi": 81,
          "name": "A5",
          "ticks": 589680,
          "time": 491.40000000000003,
          "velocity": 0.4015748031496063
        },
        {
          "duration": 0.06666666666671972,
          "durationTicks": 80,
          "midi": 79,
          "name": "G5",
          "ticks": 589920,
          "time": 491.6,
          "velocity": 0.4015748031496063
        },
        {
          "duration": 0.06666666666671972,
          "durationTicks": 80,
          "midi": 89,
          "name": "F6",
          "ticks": 590160,
          "time": 491.8,
          "velocity": 0.4015748031496063
        },
        {
          "duration": 0.06666666666671972,
          "durationTicks": 80,
          "midi": 88,
          "name": "E6",
          "ticks": 590400,
          "time": 492,
          "velocity": 0.4015748031496063
        },
        {
          "duration": 0.06666666666666288,
          "durationTicks": 80,
          "midi": 86,
          "name": "D6",
          "ticks": 590640,
          "time": 492.20000000000005,
          "velocity": 0.4015748031496063
        },
        {
          "duration": 0.06666666666666288,
          "durationTicks": 80,
          "midi": 84,
          "name": "C6",
          "ticks": 590880,
          "time": 492.40000000000003,
          "velocity": 0.4015748031496063
        },
        {
          "duration": 0.06666666666671972,
          "durationTicks": 80,
          "midi": 83,
          "name": "B5",
          "ticks": 591120,
          "time": 492.6,
          "velocity": 0.4015748031496063
        },
        {
          "duration": 0.3333333333333144,
          "durationTicks": 400,
          "midi": 84,
          "name": "C6",
          "ticks": 591360,
          "time": 492.8,
          "velocity": 0.8267716535433071
        },
        {
          "duration": 0.06666666666666288,
          "durationTicks": 80,
          "midi": 79,
          "name": "G5",
          "ticks": 592080,
          "time": 493.40000000000003,
          "velocity": 0.8267716535433071
        },
        {
          "duration": 0.06666666666660603,
          "durationTicks": 80,
          "midi": 81,
          "name": "A5",
          "ticks": 592160,
          "time": 493.4666666666667,
          "velocity": 0.8267716535433071
        },
        {
          "duration": 0.06666666666671972,
          "durationTicks": 80,
          "midi": 83,
          "name": "B5",
          "ticks": 592240,
          "time": 493.5333333333333,
          "velocity": 0.8267716535433071
        },
        {
          "duration": 0.3333333333333144,
          "durationTicks": 400,
          "midi": 84,
          "name": "C6",
          "ticks": 592320,
          "time": 493.6,
          "velocity": 0.8267716535433071
        },
        {
          "duration": 0.06666666666666288,
          "durationTicks": 80,
          "midi": 79,
          "name": "G5",
          "ticks": 593040,
          "time": 494.20000000000005,
          "velocity": 0.8267716535433071
        },
        {
          "duration": 0.06666666666660603,
          "durationTicks": 80,
          "midi": 81,
          "name": "A5",
          "ticks": 593120,
          "time": 494.2666666666667,
          "velocity": 0.8267716535433071
        },
        {
          "duration": 0.06666666666671972,
          "durationTicks": 80,
          "midi": 83,
          "name": "B5",
          "ticks": 593200,
          "time": 494.3333333333333,
          "velocity": 0.8267716535433071
        },
        {
          "duration": 0.3333333333333144,
          "durationTicks": 400,
          "midi": 84,
          "name": "C6",
          "ticks": 593280,
          "time": 494.40000000000003,
          "velocity": 0.8267716535433071
        },
        {
          "duration": 0.33333333333325754,
          "durationTicks": 400,
          "midi": 79,
          "name": "G5",
          "ticks": 599040,
          "time": 499.20000000000005,
          "velocity": 0.8267716535433071
        },
        {
          "duration": 0.06666666666671972,
          "durationTicks": 80,
          "midi": 74,
          "name": "D5",
          "ticks": 599760,
          "time": 499.8,
          "velocity": 0.8267716535433071
        },
        {
          "duration": 0.06666666666660603,
          "durationTicks": 80,
          "midi": 76,
          "name": "E5",
          "ticks": 599840,
          "time": 499.86666666666673,
          "velocity": 0.8267716535433071
        },
        {
          "duration": 0.06666666666666288,
          "durationTicks": 80,
          "midi": 78,
          "name": "F#5",
          "ticks": 599920,
          "time": 499.93333333333334,
          "velocity": 0.8267716535433071
        },
        {
          "duration": 0.3333333333333144,
          "durationTicks": 400,
          "midi": 79,
          "name": "G5",
          "ticks": 600000,
          "time": 500,
          "velocity": 0.8267716535433071
        },
        {
          "duration": 0.06666666666671972,
          "durationTicks": 80,
          "midi": 74,
          "name": "D5",
          "ticks": 600720,
          "time": 500.6,
          "velocity": 0.8267716535433071
        },
        {
          "duration": 0.06666666666660603,
          "durationTicks": 80,
          "midi": 76,
          "name": "E5",
          "ticks": 600800,
          "time": 500.66666666666674,
          "velocity": 0.8267716535433071
        },
        {
          "duration": 0.06666666666666288,
          "durationTicks": 80,
          "midi": 78,
          "name": "F#5",
          "ticks": 600880,
          "time": 500.73333333333335,
          "velocity": 0.8267716535433071
        },
        {
          "duration": 0.3333333333333144,
          "durationTicks": 400,
          "midi": 79,
          "name": "G5",
          "ticks": 600960,
          "time": 500.8,
          "velocity": 0.8267716535433071
        },
        {
          "duration": 0.3333333333333144,
          "durationTicks": 400,
          "midi": 84,
          "name": "C6",
          "ticks": 606720,
          "time": 505.6,
          "velocity": 0.8267716535433071
        },
        {
          "duration": 0.2966666666666242,
          "durationTicks": 356,
          "midi": 84,
          "name": "C6",
          "ticks": 607200,
          "time": 506,
          "velocity": 0.8267716535433071
        },
        {
          "duration": 0.09666666666663559,
          "durationTicks": 116,
          "midi": 84,
          "name": "C6",
          "ticks": 607560,
          "time": 506.3,
          "velocity": 0.8267716535433071
        },
        {
          "duration": 0.3333333333333144,
          "durationTicks": 400,
          "midi": 84,
          "name": "C6",
          "ticks": 607680,
          "time": 506.40000000000003,
          "velocity": 0.8267716535433071
        },
        {
          "duration": 0.3333333333333144,
          "durationTicks": 400,
          "midi": 84,
          "name": "C6",
          "ticks": 608160,
          "time": 506.8,
          "velocity": 0.8267716535433071
        },
        {
          "duration": 0.33333333333325754,
          "durationTicks": 400,
          "midi": 81,
          "name": "A5",
          "ticks": 608640,
          "time": 507.20000000000005,
          "velocity": 0.8267716535433071
        },
        {
          "duration": 0.2966666666666242,
          "durationTicks": 356,
          "midi": 81,
          "name": "A5",
          "ticks": 609120,
          "time": 507.6,
          "velocity": 0.8267716535433071
        },
        {
          "duration": 0.09666666666663559,
          "durationTicks": 116,
          "midi": 81,
          "name": "A5",
          "ticks": 609480,
          "time": 507.90000000000003,
          "velocity": 0.8267716535433071
        },
        {
          "duration": 0.3333333333333144,
          "durationTicks": 400,
          "midi": 81,
          "name": "A5",
          "ticks": 609600,
          "time": 508,
          "velocity": 0.8267716535433071
        },
        {
          "duration": 0.3333333333333144,
          "durationTicks": 400,
          "midi": 81,
          "name": "A5",
          "ticks": 610080,
          "time": 508.40000000000003,
          "velocity": 0.8267716535433071
        },
        {
          "duration": 0.3333333333333144,
          "durationTicks": 400,
          "midi": 83,
          "name": "B5",
          "ticks": 610560,
          "time": 508.8,
          "velocity": 0.8267716535433071
        },
        {
          "duration": 0.2966666666666242,
          "durationTicks": 356,
          "midi": 83,
          "name": "B5",
          "ticks": 611040,
          "time": 509.20000000000005,
          "velocity": 0.8267716535433071
        },
        {
          "duration": 0.09666666666663559,
          "durationTicks": 116,
          "midi": 83,
          "name": "B5",
          "ticks": 611400,
          "time": 509.5,
          "velocity": 0.8267716535433071
        },
        {
          "duration": 0.3333333333333144,
          "durationTicks": 400,
          "midi": 83,
          "name": "B5",
          "ticks": 611520,
          "time": 509.6,
          "velocity": 0.8267716535433071
        },
        {
          "duration": 0.3333333333333144,
          "durationTicks": 400,
          "midi": 83,
          "name": "B5",
          "ticks": 612000,
          "time": 510,
          "velocity": 0.8267716535433071
        },
        {
          "duration": 0.3333333333333144,
          "durationTicks": 400,
          "midi": 84,
          "name": "C6",
          "ticks": 612480,
          "time": 510.40000000000003,
          "velocity": 0.8267716535433071
        },
        {
          "duration": 0.2966666666666242,
          "durationTicks": 356,
          "midi": 84,
          "name": "C6",
          "ticks": 612960,
          "time": 510.8,
          "velocity": 0.8267716535433071
        },
        {
          "duration": 0.09666666666663559,
          "durationTicks": 116,
          "midi": 84,
          "name": "C6",
          "ticks": 613320,
          "time": 511.1,
          "velocity": 0.8267716535433071
        },
        {
          "duration": 0.33333333333325754,
          "durationTicks": 400,
          "midi": 84,
          "name": "C6",
          "ticks": 613440,
          "time": 511.20000000000005,
          "velocity": 0.8267716535433071
        },
        {
          "duration": 0.3333333333333144,
          "durationTicks": 400,
          "midi": 84,
          "name": "C6",
          "ticks": 613920,
          "time": 511.6,
          "velocity": 0.8267716535433071
        },
        {
          "duration": 0.33333333333337123,
          "durationTicks": 400,
          "midi": 81,
          "name": "A5",
          "ticks": 614400,
          "time": 512,
          "velocity": 0.8267716535433071
        },
        {
          "duration": 0.2966666666666242,
          "durationTicks": 356,
          "midi": 81,
          "name": "A5",
          "ticks": 614880,
          "time": 512.4,
          "velocity": 0.8267716535433071
        },
        {
          "duration": 0.09666666666657875,
          "durationTicks": 116,
          "midi": 81,
          "name": "A5",
          "ticks": 615240,
          "time": 512.7,
          "velocity": 0.8267716535433071
        },
        {
          "duration": 0.33333333333325754,
          "durationTicks": 400,
          "midi": 81,
          "name": "A5",
          "ticks": 615360,
          "time": 512.8000000000001,
          "velocity": 0.8267716535433071
        },
        {
          "duration": 0.33333333333325754,
          "durationTicks": 400,
          "midi": 81,
          "name": "A5",
          "ticks": 615840,
          "time": 513.2,
          "velocity": 0.8267716535433071
        },
        {
          "duration": 0.33333333333325754,
          "durationTicks": 400,
          "midi": 83,
          "name": "B5",
          "ticks": 616320,
          "time": 513.6,
          "velocity": 0.8267716535433071
        },
        {
          "duration": 0.2966666666666242,
          "durationTicks": 356,
          "midi": 83,
          "name": "B5",
          "ticks": 616800,
          "time": 514,
          "velocity": 0.8267716535433071
        },
        {
          "duration": 0.09666666666657875,
          "durationTicks": 116,
          "midi": 83,
          "name": "B5",
          "ticks": 617160,
          "time": 514.3000000000001,
          "velocity": 0.8267716535433071
        },
        {
          "duration": 0.33333333333337123,
          "durationTicks": 400,
          "midi": 83,
          "name": "B5",
          "ticks": 617280,
          "time": 514.4,
          "velocity": 0.8267716535433071
        },
        {
          "duration": 0.33333333333325754,
          "durationTicks": 400,
          "midi": 83,
          "name": "B5",
          "ticks": 617760,
          "time": 514.8000000000001,
          "velocity": 0.8267716535433071
        },
        {
          "duration": 0.33333333333325754,
          "durationTicks": 400,
          "midi": 84,
          "name": "C6",
          "ticks": 618240,
          "time": 515.2,
          "velocity": 0.8267716535433071
        },
        {
          "duration": 0.33333333333325754,
          "durationTicks": 400,
          "midi": 84,
          "name": "C6",
          "ticks": 618720,
          "time": 515.6,
          "velocity": 0.8267716535433071
        },
        {
          "duration": 0.33333333333337123,
          "durationTicks": 400,
          "midi": 83,
          "name": "B5",
          "ticks": 619680,
          "time": 516.4,
          "velocity": 0.8267716535433071
        },
        {
          "duration": 0.33333333333325754,
          "durationTicks": 400,
          "midi": 84,
          "name": "C6",
          "ticks": 620640,
          "time": 517.2,
          "velocity": 0.8267716535433071
        },
        {
          "duration": 0.33333333333337123,
          "durationTicks": 400,
          "midi": 83,
          "name": "B5",
          "ticks": 621600,
          "time": 518,
          "velocity": 0.8267716535433071
        },
        {
          "duration": 0.33333333333337123,
          "durationTicks": 400,
          "midi": 84,
          "name": "C6",
          "ticks": 622080,
          "time": 518.4,
          "velocity": 0.8267716535433071
        },
        {
          "duration": 0.1966666666666015,
          "durationTicks": 236,
          "midi": 79,
          "name": "G5",
          "ticks": 622560,
          "time": 518.8000000000001,
          "velocity": 0.8267716535433071
        },
        {
          "duration": 0.1966666666666015,
          "durationTicks": 236,
          "midi": 79,
          "name": "G5",
          "ticks": 622800,
          "time": 519,
          "velocity": 0.8267716535433071
        },
        {
          "duration": 0.1966666666666015,
          "durationTicks": 236,
          "midi": 84,
          "name": "C6",
          "ticks": 623040,
          "time": 519.2,
          "velocity": 0.8267716535433071
        },
        {
          "duration": 0.19666666666671517,
          "durationTicks": 236,
          "midi": 84,
          "name": "C6",
          "ticks": 623280,
          "time": 519.4,
          "velocity": 0.8267716535433071
        },
        {
          "duration": 0.1966666666666015,
          "durationTicks": 236,
          "midi": 79,
          "name": "G5",
          "ticks": 623520,
          "time": 519.6,
          "velocity": 0.8267716535433071
        },
        {
          "duration": 0.1966666666666015,
          "durationTicks": 236,
          "midi": 79,
          "name": "G5",
          "ticks": 623760,
          "time": 519.8000000000001,
          "velocity": 0.8267716535433071
        },
        {
          "duration": 0.1966666666666015,
          "durationTicks": 236,
          "midi": 84,
          "name": "C6",
          "ticks": 624000,
          "time": 520,
          "velocity": 0.8267716535433071
        },
        {
          "duration": 0.1966666666666015,
          "durationTicks": 236,
          "midi": 84,
          "name": "C6",
          "ticks": 624240,
          "time": 520.2,
          "velocity": 0.8267716535433071
        },
        {
          "duration": 0.19666666666671517,
          "durationTicks": 236,
          "midi": 79,
          "name": "G5",
          "ticks": 624480,
          "time": 520.4,
          "velocity": 0.8267716535433071
        },
        {
          "duration": 0.1966666666666015,
          "durationTicks": 236,
          "midi": 79,
          "name": "G5",
          "ticks": 624720,
          "time": 520.6,
          "velocity": 0.8267716535433071
        },
        {
          "duration": 0.1966666666666015,
          "durationTicks": 236,
          "midi": 76,
          "name": "E5",
          "ticks": 624960,
          "time": 520.8000000000001,
          "velocity": 0.8267716535433071
        },
        {
          "duration": 0.1966666666666015,
          "durationTicks": 236,
          "midi": 76,
          "name": "E5",
          "ticks": 625200,
          "time": 521,
          "velocity": 0.8267716535433071
        },
        {
          "duration": 0.1966666666666015,
          "durationTicks": 236,
          "midi": 72,
          "name": "C5",
          "ticks": 625440,
          "time": 521.2,
          "velocity": 0.8267716535433071
        },
        {
          "duration": 0.19666666666671517,
          "durationTicks": 236,
          "midi": 72,
          "name": "C5",
          "ticks": 625680,
          "time": 521.4,
          "velocity": 0.8267716535433071
        },
        {
          "duration": 0.33333333333325754,
          "durationTicks": 400,
          "midi": 67,
          "name": "G4",
          "ticks": 625920,
          "time": 521.6,
          "velocity": 0.8267716535433071
        },
        {
          "duration": 0.33333333333337123,
          "durationTicks": 400,
          "midi": 83,
          "name": "B5",
          "ticks": 626400,
          "time": 522,
          "velocity": 0.8267716535433071
        },
        {
          "duration": 0.33333333333325754,
          "durationTicks": 400,
          "midi": 84,
          "name": "C6",
          "ticks": 627360,
          "time": 522.8000000000001,
          "velocity": 0.8267716535433071
        },
        {
          "duration": 0.33333333333325754,
          "durationTicks": 400,
          "midi": 83,
          "name": "B5",
          "ticks": 628320,
          "time": 523.6,
          "velocity": 0.8267716535433071
        },
        {
          "duration": 0.33333333333337123,
          "durationTicks": 400,
          "midi": 84,
          "name": "C6",
          "ticks": 629280,
          "time": 524.4,
          "velocity": 0.8267716535433071
        },
        {
          "duration": 0.1966666666666015,
          "durationTicks": 236,
          "midi": 83,
          "name": "B5",
          "ticks": 629760,
          "time": 524.8000000000001,
          "velocity": 0.8267716535433071
        },
        {
          "duration": 0.1966666666666015,
          "durationTicks": 236,
          "midi": 84,
          "name": "C6",
          "ticks": 630000,
          "time": 525,
          "velocity": 0.8346456692913385
        },
        {
          "duration": 0.1966666666666015,
          "durationTicks": 236,
          "midi": 83,
          "name": "B5",
          "ticks": 630240,
          "time": 525.2,
          "velocity": 0.8503937007874016
        },
        {
          "duration": 0.19666666666671517,
          "durationTicks": 236,
          "midi": 84,
          "name": "C6",
          "ticks": 630480,
          "time": 525.4,
          "velocity": 0.8582677165354331
        },
        {
          "duration": 0.1966666666666015,
          "durationTicks": 236,
          "midi": 83,
          "name": "B5",
          "ticks": 630720,
          "time": 525.6,
          "velocity": 0.8661417322834646
        },
        {
          "duration": 0.1966666666666015,
          "durationTicks": 236,
          "midi": 84,
          "name": "C6",
          "ticks": 630960,
          "time": 525.8000000000001,
          "velocity": 0.8740157480314961
        },
        {
          "duration": 0.1966666666666015,
          "durationTicks": 236,
          "midi": 83,
          "name": "B5",
          "ticks": 631200,
          "time": 526,
          "velocity": 0.8818897637795275
        },
        {
          "duration": 0.1966666666666015,
          "durationTicks": 236,
          "midi": 84,
          "name": "C6",
          "ticks": 631440,
          "time": 526.2,
          "velocity": 0.889763779527559
        },
        {
          "duration": 0.33333333333337123,
          "durationTicks": 400,
          "midi": 83,
          "name": "B5",
          "ticks": 631680,
          "time": 526.4,
          "velocity": 0.905511811023622
        },
        {
          "duration": 0.33333333333325754,
          "durationTicks": 400,
          "midi": 79,
          "name": "G5",
          "ticks": 632640,
          "time": 527.2,
          "velocity": 0.937007874015748
        },
        {
          "duration": 0.33333333333325754,
          "durationTicks": 400,
          "midi": 79,
          "name": "G5",
          "ticks": 633120,
          "time": 527.6,
          "velocity": 0.952755905511811
        },
        {
          "duration": 1.5,
          "durationTicks": 1800,
          "midi": 79,
          "name": "G5",
          "ticks": 633600,
          "time": 528,
          "velocity": 0.9763779527559056
        },
        {
          "duration": 0.7999999999999545,
          "durationTicks": 960,
          "midi": 72,
          "name": "C5",
          "ticks": 635520,
          "time": 529.6,
          "velocity": 0.4015748031496063
        },
        {
          "duration": 0.9966666666666697,
          "durationTicks": 1196,
          "midi": 84,
          "name": "C6",
          "ticks": 636480,
          "time": 530.4,
          "velocity": 0.4015748031496063
        },
        {
          "duration": 0.06666666666671972,
          "durationTicks": 80,
          "midi": 82,
          "name": "A#5",
          "ticks": 637680,
          "time": 531.4,
          "velocity": 0.4015748031496063
        },
        {
          "duration": 0.06666666666671972,
          "durationTicks": 80,
          "midi": 80,
          "name": "G#5",
          "ticks": 637920,
          "time": 531.6,
          "velocity": 0.4015748031496063
        },
        {
          "duration": 0.06666666666660603,
          "durationTicks": 80,
          "midi": 79,
          "name": "G5",
          "ticks": 638160,
          "time": 531.8000000000001,
          "velocity": 0.4015748031496063
        },
        {
          "duration": 0.06666666666671972,
          "durationTicks": 80,
          "midi": 77,
          "name": "F5",
          "ticks": 638400,
          "time": 532,
          "velocity": 0.4015748031496063
        },
        {
          "duration": 0.06666666666671972,
          "durationTicks": 80,
          "midi": 75,
          "name": "D#5",
          "ticks": 638640,
          "time": 532.2,
          "velocity": 0.4015748031496063
        },
        {
          "duration": 0.06666666666671972,
          "durationTicks": 80,
          "midi": 74,
          "name": "D5",
          "ticks": 638880,
          "time": 532.4,
          "velocity": 0.4015748031496063
        },
        {
          "duration": 0.06666666666671972,
          "durationTicks": 80,
          "midi": 72,
          "name": "C5",
          "ticks": 639120,
          "time": 532.6,
          "velocity": 0.4015748031496063
        },
        {
          "duration": 0.7999999999999545,
          "durationTicks": 960,
          "midi": 80,
          "name": "G#5",
          "ticks": 639360,
          "time": 532.8000000000001,
          "velocity": 0.4015748031496063
        },
        {
          "duration": 0.7000000000000455,
          "durationTicks": 840,
          "midi": 79,
          "name": "G5",
          "ticks": 640320,
          "time": 533.6,
          "velocity": 0.4015748031496063
        },
        {
          "duration": 1.1000000000000227,
          "durationTicks": 1320,
          "midi": 77,
          "name": "F5",
          "ticks": 641280,
          "time": 534.4,
          "velocity": 0.4015748031496063
        },
        {
          "duration": 0.8000000000000682,
          "durationTicks": 960,
          "midi": 80,
          "name": "G#5",
          "ticks": 643200,
          "time": 536,
          "velocity": 0.9763779527559056
        },
        {
          "duration": 0.996666666666556,
          "durationTicks": 1196,
          "midi": 89,
          "name": "F6",
          "ticks": 644160,
          "time": 536.8000000000001,
          "velocity": 0.9763779527559056
        },
        {
          "duration": 0.06666666666660603,
          "durationTicks": 80,
          "midi": 87,
          "name": "D#6",
          "ticks": 645360,
          "time": 537.8000000000001,
          "velocity": 0.9763779527559056
        },
        {
          "duration": 0.06666666666671972,
          "durationTicks": 80,
          "midi": 86,
          "name": "D6",
          "ticks": 645600,
          "time": 538,
          "velocity": 0.9763779527559056
        },
        {
          "duration": 0.06666666666671972,
          "durationTicks": 80,
          "midi": 84,
          "name": "C6",
          "ticks": 645840,
          "time": 538.2,
          "velocity": 0.9763779527559056
        },
        {
          "duration": 0.06666666666671972,
          "durationTicks": 80,
          "midi": 82,
          "name": "A#5",
          "ticks": 646080,
          "time": 538.4,
          "velocity": 0.9763779527559056
        },
        {
          "duration": 0.06666666666671972,
          "durationTicks": 80,
          "midi": 80,
          "name": "G#5",
          "ticks": 646320,
          "time": 538.6,
          "velocity": 0.9763779527559056
        },
        {
          "duration": 0.06666666666660603,
          "durationTicks": 80,
          "midi": 79,
          "name": "G5",
          "ticks": 646560,
          "time": 538.8000000000001,
          "velocity": 0.9763779527559056
        },
        {
          "duration": 0.06666666666671972,
          "durationTicks": 80,
          "midi": 77,
          "name": "F5",
          "ticks": 646800,
          "time": 539,
          "velocity": 0.9763779527559056
        },
        {
          "duration": 0.7999999999999545,
          "durationTicks": 960,
          "midi": 82,
          "name": "A#5",
          "ticks": 647040,
          "time": 539.2,
          "velocity": 0.9763779527559056
        },
        {
          "duration": 0.7000000000000455,
          "durationTicks": 840,
          "midi": 80,
          "name": "G#5",
          "ticks": 648000,
          "time": 540,
          "velocity": 0.9763779527559056
        },
        {
          "duration": 0.09999999999990905,
          "durationTicks": 120,
          "midi": 79,
          "name": "G5",
          "ticks": 648960,
          "time": 540.8000000000001,
          "velocity": 0.9763779527559056
        },
        {
          "duration": 0.10000000000002274,
          "durationTicks": 120,
          "midi": 79,
          "name": "G5",
          "ticks": 649440,
          "time": 541.2,
          "velocity": 0.9763779527559056
        },
        {
          "duration": 0.10000000000002274,
          "durationTicks": 120,
          "midi": 79,
          "name": "G5",
          "ticks": 649920,
          "time": 541.6,
          "velocity": 0.9763779527559056
        },
        {
          "duration": 0.33333333333325754,
          "durationTicks": 400,
          "midi": 89,
          "name": "F6",
          "ticks": 652320,
          "time": 543.6,
          "velocity": 0.9763779527559056
        },
        {
          "duration": 0.10000000000002274,
          "durationTicks": 120,
          "midi": 89,
          "name": "F6",
          "ticks": 652800,
          "time": 544,
          "velocity": 0.9763779527559056
        },
        {
          "duration": 0.10000000000002274,
          "durationTicks": 120,
          "midi": 87,
          "name": "D#6",
          "ticks": 654240,
          "time": 545.2,
          "velocity": 0.9763779527559056
        },
        {
          "duration": 0.10000000000002274,
          "durationTicks": 120,
          "midi": 88,
          "name": "E6",
          "ticks": 654720,
          "time": 545.6,
          "velocity": 0.9763779527559056
        },
        {
          "duration": 0.09999999999990905,
          "durationTicks": 120,
          "midi": 86,
          "name": "D6",
          "ticks": 656160,
          "time": 546.8000000000001,
          "velocity": 0.9763779527559056
        },
        {
          "duration": 0.10000000000002274,
          "durationTicks": 120,
          "midi": 86,
          "name": "D6",
          "ticks": 656640,
          "time": 547.2,
          "velocity": 0.9763779527559056
        },
        {
          "duration": 0.20000000000004547,
          "durationTicks": 240,
          "midi": 84,
          "name": "C6",
          "ticks": 658800,
          "time": 549,
          "velocity": 1
        },
        {
          "duration": 0.1999999999999318,
          "durationTicks": 240,
          "midi": 83,
          "name": "B5",
          "ticks": 659040,
          "time": 549.2,
          "velocity": 1
        },
        {
          "duration": 0.20000000000004547,
          "durationTicks": 240,
          "midi": 84,
          "name": "C6",
          "ticks": 659280,
          "time": 549.4,
          "velocity": 1
        },
        {
          "duration": 0.20000000000004547,
          "durationTicks": 240,
          "midi": 86,
          "name": "D6",
          "ticks": 659520,
          "time": 549.6,
          "velocity": 1
        },
        {
          "duration": 0.1999999999999318,
          "durationTicks": 240,
          "midi": 84,
          "name": "C6",
          "ticks": 659760,
          "time": 549.8000000000001,
          "velocity": 1
        },
        {
          "duration": 0.20000000000004547,
          "durationTicks": 240,
          "midi": 87,
          "name": "D#6",
          "ticks": 660000,
          "time": 550,
          "velocity": 1
        },
        {
          "duration": 0.1966666666666015,
          "durationTicks": 236,
          "midi": 84,
          "name": "C6",
          "ticks": 660240,
          "time": 550.2,
          "velocity": 1
        },
        {
          "duration": 0.7000000000000455,
          "durationTicks": 840,
          "midi": 79,
          "name": "G5",
          "ticks": 660480,
          "time": 550.4,
          "velocity": 0.8267716535433071
        },
        {
          "duration": 0.8666666666666742,
          "durationTicks": 1040,
          "midi": 91,
          "name": "G6",
          "ticks": 661440,
          "time": 551.2,
          "velocity": 0.8267716535433071
        },
        {
          "duration": 0.06666666666671972,
          "durationTicks": 80,
          "midi": 90,
          "name": "F#6",
          "ticks": 662640,
          "time": 552.2,
          "velocity": 0.8267716535433071
        },
        {
          "duration": 0.06666666666671972,
          "durationTicks": 80,
          "midi": 88,
          "name": "E6",
          "ticks": 662880,
          "time": 552.4,
          "velocity": 0.8267716535433071
        },
        {
          "duration": 0.06666666666671972,
          "durationTicks": 80,
          "midi": 86,
          "name": "D6",
          "ticks": 663120,
          "time": 552.6,
          "velocity": 0.8267716535433071
        },
        {
          "duration": 0.06666666666660603,
          "durationTicks": 80,
          "midi": 84,
          "name": "C6",
          "ticks": 663360,
          "time": 552.8000000000001,
          "velocity": 0.8267716535433071
        },
        {
          "duration": 0.06666666666671972,
          "durationTicks": 80,
          "midi": 83,
          "name": "B5",
          "ticks": 663600,
          "time": 553,
          "velocity": 0.8267716535433071
        },
        {
          "duration": 0.06666666666671972,
          "durationTicks": 80,
          "midi": 81,
          "name": "A5",
          "ticks": 663840,
          "time": 553.2,
          "velocity": 0.8267716535433071
        },
        {
          "duration": 0.06666666666671972,
          "durationTicks": 80,
          "midi": 79,
          "name": "G5",
          "ticks": 664080,
          "time": 553.4,
          "velocity": 0.8267716535433071
        },
        {
          "duration": 12.700000000000045,
          "durationTicks": 15240,
          "midi": 91,
          "name": "G6",
          "ticks": 664320,
          "time": 553.6,
          "velocity": 0.8267716535433071
        },
        {
          "duration": 0.40000000000009095,
          "durationTicks": 480,
          "midi": 90,
          "name": "F#6",
          "ticks": 679680,
          "time": 566.4,
          "velocity": 0.8267716535433071
        },
        {
          "duration": 0.39999999999997726,
          "durationTicks": 480,
          "midi": 91,
          "name": "G6",
          "ticks": 680160,
          "time": 566.8000000000001,
          "velocity": 0.8267716535433071
        },
        {
          "duration": 0.39999999999997726,
          "durationTicks": 480,
          "midi": 90,
          "name": "F#6",
          "ticks": 680640,
          "time": 567.2,
          "velocity": 0.8267716535433071
        },
        {
          "duration": 0.33333333333325754,
          "durationTicks": 400,
          "midi": 91,
          "name": "G6",
          "ticks": 681120,
          "time": 567.6,
          "velocity": 0.8267716535433071
        },
        {
          "duration": 1.5,
          "durationTicks": 1800,
          "midi": 90,
          "name": "F#6",
          "ticks": 681600,
          "time": 568,
          "velocity": 0.8267716535433071
        },
        {
          "duration": 0.33333333333325754,
          "durationTicks": 400,
          "midi": 91,
          "name": "G6",
          "ticks": 683520,
          "time": 569.6,
          "velocity": 0.8267716535433071
        },
        {
          "duration": 0.2966666666666242,
          "durationTicks": 356,
          "midi": 79,
          "name": "G5",
          "ticks": 684000,
          "time": 570,
          "velocity": 0.8267716535433071
        },
        {
          "duration": 0.09666666666657875,
          "durationTicks": 116,
          "midi": 79,
          "name": "G5",
          "ticks": 684360,
          "time": 570.3000000000001,
          "velocity": 0.8267716535433071
        },
        {
          "duration": 0.33333333333337123,
          "durationTicks": 400,
          "midi": 79,
          "name": "G5",
          "ticks": 684480,
          "time": 570.4,
          "velocity": 0.8267716535433071
        },
        {
          "duration": 0.33333333333325754,
          "durationTicks": 400,
          "midi": 79,
          "name": "G5",
          "ticks": 684960,
          "time": 570.8000000000001,
          "velocity": 0.8267716535433071
        },
        {
          "duration": 0.33333333333325754,
          "durationTicks": 400,
          "midi": 79,
          "name": "G5",
          "ticks": 685440,
          "time": 571.2,
          "velocity": 0.8267716535433071
        },
        {
          "duration": 0.2966666666666242,
          "durationTicks": 356,
          "midi": 79,
          "name": "G5",
          "ticks": 685920,
          "time": 571.6,
          "velocity": 0.8267716535433071
        },
        {
          "duration": 0.09666666666669244,
          "durationTicks": 116,
          "midi": 79,
          "name": "G5",
          "ticks": 686280,
          "time": 571.9,
          "velocity": 0.8267716535433071
        },
        {
          "duration": 0.33333333333337123,
          "durationTicks": 400,
          "midi": 79,
          "name": "G5",
          "ticks": 686400,
          "time": 572,
          "velocity": 0.8267716535433071
        },
        {
          "duration": 0.33333333333337123,
          "durationTicks": 400,
          "midi": 79,
          "name": "G5",
          "ticks": 686880,
          "time": 572.4,
          "velocity": 0.8267716535433071
        },
        {
          "duration": 0.33333333333325754,
          "durationTicks": 400,
          "midi": 79,
          "name": "G5",
          "ticks": 687360,
          "time": 572.8000000000001,
          "velocity": 0.8267716535433071
        },
        {
          "duration": 0.2966666666666242,
          "durationTicks": 356,
          "midi": 79,
          "name": "G5",
          "ticks": 687840,
          "time": 573.2,
          "velocity": 0.8267716535433071
        },
        {
          "duration": 0.09666666666669244,
          "durationTicks": 116,
          "midi": 79,
          "name": "G5",
          "ticks": 688200,
          "time": 573.5,
          "velocity": 0.8267716535433071
        },
        {
          "duration": 0.33333333333325754,
          "durationTicks": 400,
          "midi": 79,
          "name": "G5",
          "ticks": 688320,
          "time": 573.6,
          "velocity": 0.8267716535433071
        },
        {
          "duration": 0.33333333333337123,
          "durationTicks": 400,
          "midi": 79,
          "name": "G5",
          "ticks": 688800,
          "time": 574,
          "velocity": 0.8267716535433071
        },
        {
          "duration": 0.33333333333337123,
          "durationTicks": 400,
          "midi": 79,
          "name": "G5",
          "ticks": 689280,
          "time": 574.4,
          "velocity": 0.8267716535433071
        },
        {
          "duration": 0.2966666666666242,
          "durationTicks": 356,
          "midi": 79,
          "name": "G5",
          "ticks": 689760,
          "time": 574.8000000000001,
          "velocity": 0.8267716535433071
        },
        {
          "duration": 0.09666666666657875,
          "durationTicks": 116,
          "midi": 79,
          "name": "G5",
          "ticks": 690120,
          "time": 575.1,
          "velocity": 0.8267716535433071
        },
        {
          "duration": 0.33333333333325754,
          "durationTicks": 400,
          "midi": 79,
          "name": "G5",
          "ticks": 690240,
          "time": 575.2,
          "velocity": 0.8267716535433071
        },
        {
          "duration": 0.33333333333325754,
          "durationTicks": 400,
          "midi": 79,
          "name": "G5",
          "ticks": 690720,
          "time": 575.6,
          "velocity": 0.8267716535433071
        },
        {
          "duration": 0.33333333333337123,
          "durationTicks": 400,
          "midi": 79,
          "name": "G5",
          "ticks": 691200,
          "time": 576,
          "velocity": 0.8267716535433071
        },
        {
          "duration": 0.33333333333337123,
          "durationTicks": 400,
          "midi": 86,
          "name": "D6",
          "ticks": 691680,
          "time": 576.4,
          "velocity": 0.8267716535433071
        },
        {
          "duration": 0.33333333333325754,
          "durationTicks": 400,
          "midi": 88,
          "name": "E6",
          "ticks": 692640,
          "time": 577.2,
          "velocity": 0.8267716535433071
        },
        {
          "duration": 0.33333333333337123,
          "durationTicks": 400,
          "midi": 86,
          "name": "D6",
          "ticks": 693600,
          "time": 578,
          "velocity": 0.8267716535433071
        },
        {
          "duration": 0.33333333333325754,
          "durationTicks": 400,
          "midi": 88,
          "name": "E6",
          "ticks": 694560,
          "time": 578.8000000000001,
          "velocity": 0.8267716535433071
        },
        {
          "duration": 0.33333333333325754,
          "durationTicks": 400,
          "midi": 86,
          "name": "D6",
          "ticks": 695040,
          "time": 579.2,
          "velocity": 0.8267716535433071
        },
        {
          "duration": 0.1999999999999318,
          "durationTicks": 240,
          "midi": 74,
          "name": "D5",
          "ticks": 706560,
          "time": 588.8000000000001,
          "velocity": 0.9763779527559056
        },
        {
          "duration": 0.20000000000004547,
          "durationTicks": 240,
          "midi": 76,
          "name": "E5",
          "ticks": 706800,
          "time": 589,
          "velocity": 0.9763779527559056
        },
        {
          "duration": 0.1999999999999318,
          "durationTicks": 240,
          "midi": 77,
          "name": "F5",
          "ticks": 707040,
          "time": 589.2,
          "velocity": 0.9763779527559056
        },
        {
          "duration": 0.20000000000004547,
          "durationTicks": 240,
          "midi": 78,
          "name": "F#5",
          "ticks": 707280,
          "time": 589.4,
          "velocity": 0.9763779527559056
        },
        {
          "duration": 0.20000000000004547,
          "durationTicks": 240,
          "midi": 79,
          "name": "G5",
          "ticks": 707520,
          "time": 589.6,
          "velocity": 0.9763779527559056
        },
        {
          "duration": 0.1999999999999318,
          "durationTicks": 240,
          "midi": 80,
          "name": "G#5",
          "ticks": 707760,
          "time": 589.8000000000001,
          "velocity": 0.9763779527559056
        },
        {
          "duration": 0.20000000000004547,
          "durationTicks": 240,
          "midi": 81,
          "name": "A5",
          "ticks": 708000,
          "time": 590,
          "velocity": 0.9763779527559056
        },
        {
          "duration": 0.1966666666666015,
          "durationTicks": 236,
          "midi": 83,
          "name": "B5",
          "ticks": 708240,
          "time": 590.2,
          "velocity": 0.9763779527559056
        },
        {
          "duration": 1.2000000000000455,
          "durationTicks": 1440,
          "midi": 84,
          "name": "C6",
          "ticks": 708480,
          "time": 590.4,
          "velocity": 0.9763779527559056
        },
        {
          "duration": 0.39999999999997726,
          "durationTicks": 480,
          "midi": 85,
          "name": "C#6",
          "ticks": 709920,
          "time": 591.6,
          "velocity": 0.9763779527559056
        },
        {
          "duration": 0.33333333333337123,
          "durationTicks": 400,
          "midi": 86,
          "name": "D6",
          "ticks": 710400,
          "time": 592,
          "velocity": 0.9763779527559056
        },
        {
          "duration": 0.3000000000000682,
          "durationTicks": 360,
          "midi": 89,
          "name": "F6",
          "ticks": 712800,
          "time": 594,
          "velocity": 0.9763779527559056
        },
        {
          "duration": 0.09999999999990905,
          "durationTicks": 120,
          "midi": 86,
          "name": "D6",
          "ticks": 713160,
          "time": 594.3000000000001,
          "velocity": 0.9763779527559056
        },
        {
          "duration": 0.19666666666671517,
          "durationTicks": 236,
          "midi": 83,
          "name": "B5",
          "ticks": 713280,
          "time": 594.4,
          "velocity": 0.9763779527559056
        },
        {
          "duration": 0.1999999999999318,
          "durationTicks": 240,
          "midi": 83,
          "name": "B5",
          "ticks": 713760,
          "time": 594.8000000000001,
          "velocity": 0.9763779527559056
        },
        {
          "duration": 0.049999999999954525,
          "durationTicks": 60,
          "midi": 86,
          "name": "D6",
          "ticks": 714240,
          "time": 595.2,
          "velocity": 0.9763779527559056
        },
        {
          "duration": 0.05000000000006821,
          "durationTicks": 60,
          "midi": 84,
          "name": "C6",
          "ticks": 714300,
          "time": 595.25,
          "velocity": 0.9763779527559056
        },
        {
          "duration": 0.049999999999954525,
          "durationTicks": 60,
          "midi": 86,
          "name": "D6",
          "ticks": 714360,
          "time": 595.3000000000001,
          "velocity": 0.9763779527559056
        },
        {
          "duration": 0.049999999999954525,
          "durationTicks": 60,
          "midi": 84,
          "name": "C6",
          "ticks": 714420,
          "time": 595.35,
          "velocity": 0.9763779527559056
        },
        {
          "duration": 0.05000000000006821,
          "durationTicks": 60,
          "midi": 86,
          "name": "D6",
          "ticks": 714480,
          "time": 595.4,
          "velocity": 0.9763779527559056
        },
        {
          "duration": 0.049999999999954525,
          "durationTicks": 60,
          "midi": 84,
          "name": "C6",
          "ticks": 714540,
          "time": 595.45,
          "velocity": 0.9763779527559056
        },
        {
          "duration": 0.05000000000006821,
          "durationTicks": 60,
          "midi": 86,
          "name": "D6",
          "ticks": 714600,
          "time": 595.5,
          "velocity": 0.9763779527559056
        },
        {
          "duration": 0.049999999999954525,
          "durationTicks": 60,
          "midi": 84,
          "name": "C6",
          "ticks": 714660,
          "time": 595.5500000000001,
          "velocity": 0.9763779527559056
        },
        {
          "duration": 0.049999999999954525,
          "durationTicks": 60,
          "midi": 86,
          "name": "D6",
          "ticks": 714720,
          "time": 595.6,
          "velocity": 0.9763779527559056
        },
        {
          "duration": 0.05000000000006821,
          "durationTicks": 60,
          "midi": 84,
          "name": "C6",
          "ticks": 714780,
          "time": 595.65,
          "velocity": 0.9763779527559056
        },
        {
          "duration": 0.049999999999954525,
          "durationTicks": 60,
          "midi": 86,
          "name": "D6",
          "ticks": 714840,
          "time": 595.7,
          "velocity": 0.9763779527559056
        },
        {
          "duration": 0.05000000000006821,
          "durationTicks": 60,
          "midi": 84,
          "name": "C6",
          "ticks": 714900,
          "time": 595.75,
          "velocity": 0.9763779527559056
        },
        {
          "duration": 0.09999999999990905,
          "durationTicks": 120,
          "midi": 83,
          "name": "B5",
          "ticks": 714960,
          "time": 595.8000000000001,
          "velocity": 0.9763779527559056
        },
        {
          "duration": 0.10000000000002274,
          "durationTicks": 120,
          "midi": 81,
          "name": "A5",
          "ticks": 715080,
          "time": 595.9,
          "velocity": 0.9763779527559056
        },
        {
          "duration": 0.1966666666666015,
          "durationTicks": 236,
          "midi": 79,
          "name": "G5",
          "ticks": 715200,
          "time": 596,
          "velocity": 0.9763779527559056
        },
        {
          "duration": 1.2000000000000455,
          "durationTicks": 1440,
          "midi": 88,
          "name": "E6",
          "ticks": 721920,
          "time": 601.6,
          "velocity": 0.9763779527559056
        },
        {
          "duration": 0.1999999999999318,
          "durationTicks": 240,
          "midi": 89,
          "name": "F6",
          "ticks": 723360,
          "time": 602.8000000000001,
          "velocity": 0.9763779527559056
        },
        {
          "duration": 0.1966666666666015,
          "durationTicks": 236,
          "midi": 86,
          "name": "D6",
          "ticks": 723600,
          "time": 603,
          "velocity": 0.9763779527559056
        },
        {
          "duration": 1.1999999999999318,
          "durationTicks": 1440,
          "midi": 84,
          "name": "C6",
          "ticks": 723840,
          "time": 603.2,
          "velocity": 0.9763779527559056
        },
        {
          "duration": 0.20000000000004547,
          "durationTicks": 240,
          "midi": 88,
          "name": "E6",
          "ticks": 725280,
          "time": 604.4,
          "velocity": 0.9763779527559056
        },
        {
          "duration": 0.1966666666666015,
          "durationTicks": 236,
          "midi": 86,
          "name": "D6",
          "ticks": 725520,
          "time": 604.6,
          "velocity": 0.9763779527559056
        },
        {
          "duration": 0.33333333333325754,
          "durationTicks": 400,
          "midi": 84,
          "name": "C6",
          "ticks": 725760,
          "time": 604.8000000000001,
          "velocity": 0.9763779527559056
        },
        {
          "duration": 1.1999999999999318,
          "durationTicks": 1440,
          "midi": 86,
          "name": "D6",
          "ticks": 735360,
          "time": 612.8000000000001,
          "velocity": 0.9763779527559056
        },
        {
          "duration": 0.20000000000004547,
          "durationTicks": 240,
          "midi": 88,
          "name": "E6",
          "ticks": 736800,
          "time": 614,
          "velocity": 0.9763779527559056
        },
        {
          "duration": 0.20000000000004547,
          "durationTicks": 240,
          "midi": 89,
          "name": "F6",
          "ticks": 737040,
          "time": 614.2,
          "velocity": 0.9763779527559056
        },
        {
          "duration": 0.33333333333325754,
          "durationTicks": 400,
          "midi": 91,
          "name": "G6",
          "ticks": 737280,
          "time": 614.4000000000001,
          "velocity": 0.5511811023622047
        },
        {
          "duration": 0.1999999999999318,
          "durationTicks": 240,
          "midi": 85,
          "name": "C#6",
          "ticks": 737760,
          "time": 614.8000000000001,
          "velocity": 0.9763779527559056
        },
        {
          "duration": 0.20000000000004547,
          "durationTicks": 240,
          "midi": 85,
          "name": "C#6",
          "ticks": 738240,
          "time": 615.2,
          "velocity": 0.9763779527559056
        },
        {
          "duration": 0.16000000000008185,
          "durationTicks": 192,
          "midi": 86,
          "name": "D6",
          "ticks": 739200,
          "time": 616,
          "velocity": 0.9763779527559056
        },
        {
          "duration": 0.15999999999996817,
          "durationTicks": 192,
          "midi": 86,
          "name": "D6",
          "ticks": 739680,
          "time": 616.4000000000001,
          "velocity": 0.9763779527559056
        },
        {
          "duration": 0.15999999999996817,
          "durationTicks": 192,
          "midi": 86,
          "name": "D6",
          "ticks": 740160,
          "time": 616.8000000000001,
          "velocity": 0.9763779527559056
        },
        {
          "duration": 0.16000000000008185,
          "durationTicks": 192,
          "midi": 88,
          "name": "E6",
          "ticks": 741120,
          "time": 617.6,
          "velocity": 0.9763779527559056
        },
        {
          "duration": 0.16000000000008185,
          "durationTicks": 192,
          "midi": 88,
          "name": "E6",
          "ticks": 741600,
          "time": 618,
          "velocity": 0.9763779527559056
        },
        {
          "duration": 0.15999999999996817,
          "durationTicks": 192,
          "midi": 88,
          "name": "E6",
          "ticks": 742080,
          "time": 618.4000000000001,
          "velocity": 0.9763779527559056
        },
        {
          "duration": 1.5,
          "durationTicks": 1800,
          "midi": 80,
          "name": "G#5",
          "ticks": 744960,
          "time": 620.8000000000001,
          "velocity": 0.8267716535433071
        },
        {
          "duration": 0.049999999999954525,
          "durationTicks": 60,
          "midi": 79,
          "name": "G5",
          "ticks": 746880,
          "time": 622.4000000000001,
          "velocity": 0.8267716535433071
        },
        {
          "duration": 0.6833333333332803,
          "durationTicks": 820,
          "midi": 80,
          "name": "G#5",
          "ticks": 746940,
          "time": 622.45,
          "velocity": 0.8267716535433071
        },
        {
          "duration": 0.049999999999954525,
          "durationTicks": 60,
          "midi": 79,
          "name": "G5",
          "ticks": 747840,
          "time": 623.2,
          "velocity": 0.8267716535433071
        },
        {
          "duration": 0.683333333333394,
          "durationTicks": 820,
          "midi": 80,
          "name": "G#5",
          "ticks": 747900,
          "time": 623.25,
          "velocity": 0.8267716535433071
        },
        {
          "duration": 1.5,
          "durationTicks": 1800,
          "midi": 85,
          "name": "C#6",
          "ticks": 748800,
          "time": 624,
          "velocity": 0.8267716535433071
        },
        {
          "duration": 0.05000000000006821,
          "durationTicks": 60,
          "midi": 84,
          "name": "C6",
          "ticks": 750720,
          "time": 625.6,
          "velocity": 0.8267716535433071
        },
        {
          "duration": 0.6833333333332803,
          "durationTicks": 820,
          "midi": 85,
          "name": "C#6",
          "ticks": 750780,
          "time": 625.6500000000001,
          "velocity": 0.8267716535433071
        },
        {
          "duration": 0.049999999999954525,
          "durationTicks": 60,
          "midi": 84,
          "name": "C6",
          "ticks": 751680,
          "time": 626.4000000000001,
          "velocity": 0.8267716535433071
        },
        {
          "duration": 0.6833333333332803,
          "durationTicks": 820,
          "midi": 85,
          "name": "C#6",
          "ticks": 751740,
          "time": 626.45,
          "velocity": 0.8267716535433071
        },
        {
          "duration": 0.7000000000000455,
          "durationTicks": 840,
          "midi": 85,
          "name": "C#6",
          "ticks": 752640,
          "time": 627.2,
          "velocity": 0.8267716535433071
        },
        {
          "duration": 1.5,
          "durationTicks": 1800,
          "midi": 84,
          "name": "C6",
          "ticks": 753600,
          "time": 628,
          "velocity": 0.8267716535433071
        },
        {
          "duration": 0.7000000000000455,
          "durationTicks": 840,
          "midi": 83,
          "name": "B5",
          "ticks": 755520,
          "time": 629.6,
          "velocity": 0.8267716535433071
        },
        {
          "duration": 0.33333333333325754,
          "durationTicks": 400,
          "midi": 84,
          "name": "C6",
          "ticks": 756480,
          "time": 630.4000000000001,
          "velocity": 0.8267716535433071
        },
        {
          "duration": 0.33333333333325754,
          "durationTicks": 400,
          "midi": 81,
          "name": "A5",
          "ticks": 757440,
          "time": 631.2,
          "velocity": 0.8267716535433071
        },
        {
          "duration": 0.33333333333337123,
          "durationTicks": 400,
          "midi": 79,
          "name": "G5",
          "ticks": 758400,
          "time": 632,
          "velocity": 0.8267716535433071
        },
        {
          "duration": 0.33333333333325754,
          "durationTicks": 400,
          "midi": 83,
          "name": "B5",
          "ticks": 759360,
          "time": 632.8000000000001,
          "velocity": 0.8267716535433071
        },
        {
          "duration": 0.6000000000000227,
          "durationTicks": 720,
          "midi": 84,
          "name": "C6",
          "ticks": 760320,
          "time": 633.6,
          "velocity": 0.8267716535433071
        },
        {
          "duration": 0.1966666666666015,
          "durationTicks": 236,
          "midi": 83,
          "name": "B5",
          "ticks": 761040,
          "time": 634.2,
          "velocity": 0.8267716535433071
        },
        {
          "duration": 0.2999999999999545,
          "durationTicks": 360,
          "midi": 86,
          "name": "D6",
          "ticks": 761280,
          "time": 634.4000000000001,
          "velocity": 0.8267716535433071
        },
        {
          "duration": 0.09666666666657875,
          "durationTicks": 116,
          "midi": 84,
          "name": "C6",
          "ticks": 761640,
          "time": 634.7,
          "velocity": 0.8267716535433071
        },
        {
          "duration": 0.2999999999999545,
          "durationTicks": 360,
          "midi": 89,
          "name": "F6",
          "ticks": 761760,
          "time": 634.8000000000001,
          "velocity": 0.8267716535433071
        },
        {
          "duration": 0.09666666666669244,
          "durationTicks": 116,
          "midi": 88,
          "name": "E6",
          "ticks": 762120,
          "time": 635.1,
          "velocity": 0.8267716535433071
        },
        {
          "duration": 0.6000000000000227,
          "durationTicks": 720,
          "midi": 86,
          "name": "D6",
          "ticks": 762240,
          "time": 635.2,
          "velocity": 0.8267716535433071
        },
        {
          "duration": 0.1966666666666015,
          "durationTicks": 236,
          "midi": 85,
          "name": "C#6",
          "ticks": 762960,
          "time": 635.8000000000001,
          "velocity": 0.8267716535433071
        },
        {
          "duration": 0.3000000000000682,
          "durationTicks": 360,
          "midi": 88,
          "name": "E6",
          "ticks": 763200,
          "time": 636,
          "velocity": 0.8267716535433071
        },
        {
          "duration": 0.09666666666657875,
          "durationTicks": 116,
          "midi": 86,
          "name": "D6",
          "ticks": 763560,
          "time": 636.3000000000001,
          "velocity": 0.8267716535433071
        },
        {
          "duration": 0.2999999999999545,
          "durationTicks": 360,
          "midi": 91,
          "name": "G6",
          "ticks": 763680,
          "time": 636.4000000000001,
          "velocity": 0.8267716535433071
        },
        {
          "duration": 0.09666666666657875,
          "durationTicks": 116,
          "midi": 89,
          "name": "F6",
          "ticks": 764040,
          "time": 636.7,
          "velocity": 0.8267716535433071
        },
        {
          "duration": 0.6000000000000227,
          "durationTicks": 720,
          "midi": 88,
          "name": "E6",
          "ticks": 764160,
          "time": 636.8000000000001,
          "velocity": 0.8267716535433071
        },
        {
          "duration": 0.1966666666666015,
          "durationTicks": 236,
          "midi": 87,
          "name": "D#6",
          "ticks": 764880,
          "time": 637.4000000000001,
          "velocity": 0.8267716535433071
        },
        {
          "duration": 0.3000000000000682,
          "durationTicks": 360,
          "midi": 89,
          "name": "F6",
          "ticks": 765120,
          "time": 637.6,
          "velocity": 0.8267716535433071
        },
        {
          "duration": 0.09666666666657875,
          "durationTicks": 116,
          "midi": 88,
          "name": "E6",
          "ticks": 765480,
          "time": 637.9000000000001,
          "velocity": 0.8267716535433071
        },
        {
          "duration": 0.3000000000000682,
          "durationTicks": 360,
          "midi": 93,
          "name": "A6",
          "ticks": 765600,
          "time": 638,
          "velocity": 0.8267716535433071
        },
        {
          "duration": 0.09666666666657875,
          "durationTicks": 116,
          "midi": 91,
          "name": "G6",
          "ticks": 765960,
          "time": 638.3000000000001,
          "velocity": 0.8267716535433071
        },
        {
          "duration": 0.6999999999999318,
          "durationTicks": 840,
          "midi": 89,
          "name": "F6",
          "ticks": 766080,
          "time": 638.4000000000001,
          "velocity": 0.6771653543307087
        },
        {
          "duration": 0.7000000000000455,
          "durationTicks": 840,
          "midi": 88,
          "name": "E6",
          "ticks": 767040,
          "time": 639.2,
          "velocity": 0.6771653543307087
        },
        {
          "duration": 0.6000000000000227,
          "durationTicks": 720,
          "midi": 86,
          "name": "D6",
          "ticks": 768000,
          "time": 640,
          "velocity": 0.6771653543307087
        },
        {
          "duration": 0.10000000000002274,
          "durationTicks": 120,
          "midi": 88,
          "name": "E6",
          "ticks": 768720,
          "time": 640.6,
          "velocity": 0.6771653543307087
        },
        {
          "duration": 0.09666666666657875,
          "durationTicks": 116,
          "midi": 89,
          "name": "F6",
          "ticks": 768840,
          "time": 640.7,
          "velocity": 0.6771653543307087
        },
        {
          "duration": 0.33333333333325754,
          "durationTicks": 400,
          "midi": 79,
          "name": "G5",
          "ticks": 768960,
          "time": 640.8000000000001,
          "velocity": 0.6771653543307087
        },
        {
          "duration": 0.8000000000000682,
          "durationTicks": 960,
          "midi": 88,
          "name": "E6",
          "ticks": 769920,
          "time": 641.6,
          "velocity": 0.6771653543307087
        },
        {
          "duration": 0.39999999999997726,
          "durationTicks": 480,
          "midi": 86,
          "name": "D6",
          "ticks": 770880,
          "time": 642.4000000000001,
          "velocity": 0.6771653543307087
        },
        {
          "duration": 0.33333333333325754,
          "durationTicks": 400,
          "midi": 84,
          "name": "C6",
          "ticks": 771360,
          "time": 642.8000000000001,
          "velocity": 0.6771653543307087
        },
        {
          "duration": 0.7999999999999545,
          "durationTicks": 960,
          "midi": 89,
          "name": "F6",
          "ticks": 771840,
          "time": 643.2,
          "velocity": 0.6771653543307087
        },
        {
          "duration": 0.40000000000009095,
          "durationTicks": 480,
          "midi": 88,
          "name": "E6",
          "ticks": 772800,
          "time": 644,
          "velocity": 0.6771653543307087
        },
        {
          "duration": 0.33333333333325754,
          "durationTicks": 400,
          "midi": 86,
          "name": "D6",
          "ticks": 773280,
          "time": 644.4000000000001,
          "velocity": 0.6771653543307087
        },
        {
          "duration": 0.7999999999999545,
          "durationTicks": 960,
          "midi": 91,
          "name": "G6",
          "ticks": 773760,
          "time": 644.8000000000001,
          "velocity": 0.6771653543307087
        },
        {
          "duration": 0.39999999999997726,
          "durationTicks": 480,
          "midi": 89,
          "name": "F6",
          "ticks": 774720,
          "time": 645.6,
          "velocity": 0.6771653543307087
        },
        {
          "duration": 0.33333333333337123,
          "durationTicks": 400,
          "midi": 88,
          "name": "E6",
          "ticks": 775200,
          "time": 646,
          "velocity": 0.6771653543307087
        },
        {
          "duration": 0.39999999999997726,
          "durationTicks": 480,
          "midi": 89,
          "name": "F6",
          "ticks": 775680,
          "time": 646.4000000000001,
          "velocity": 0.6771653543307087
        },
        {
          "duration": 0.39999999999997726,
          "durationTicks": 480,
          "midi": 88,
          "name": "E6",
          "ticks": 776160,
          "time": 646.8000000000001,
          "velocity": 0.6771653543307087
        },
        {
          "duration": 0.39999999999997726,
          "durationTicks": 480,
          "midi": 86,
          "name": "D6",
          "ticks": 776640,
          "time": 647.2,
          "velocity": 0.6771653543307087
        },
        {
          "duration": 0.33333333333337123,
          "durationTicks": 400,
          "midi": 91,
          "name": "G6",
          "ticks": 777120,
          "time": 647.6,
          "velocity": 0.6771653543307087
        },
        {
          "duration": 0.33333333333337123,
          "durationTicks": 400,
          "midi": 89,
          "name": "F6",
          "ticks": 777600,
          "time": 648,
          "velocity": 0.6771653543307087
        },
        {
          "duration": 0.6999999999999318,
          "durationTicks": 840,
          "midi": 86,
          "name": "D6",
          "ticks": 778080,
          "time": 648.4000000000001,
          "velocity": 0.6771653543307087
        },
        {
          "duration": 0.33333333333325754,
          "durationTicks": 400,
          "midi": 86,
          "name": "D6",
          "ticks": 779040,
          "time": 649.2,
          "velocity": 0.6771653543307087
        },
        {
          "duration": 0.33333333333337123,
          "durationTicks": 400,
          "midi": 86,
          "name": "D6",
          "ticks": 779520,
          "time": 649.6,
          "velocity": 0.6771653543307087
        },
        {
          "duration": 0.06666666666671972,
          "durationTicks": 80,
          "midi": 79,
          "name": "G5",
          "ticks": 791760,
          "time": 659.8000000000001,
          "velocity": 0.9763779527559056
        },
        {
          "duration": 0.20000000000004547,
          "durationTicks": 240,
          "midi": 79,
          "name": "G5",
          "ticks": 792000,
          "time": 660,
          "velocity": 0.9763779527559056
        },
        {
          "duration": 0.1966666666666015,
          "durationTicks": 236,
          "midi": 88,
          "name": "E6",
          "ticks": 792240,
          "time": 660.2,
          "velocity": 0.9763779527559056
        },
        {
          "duration": 0.06666666666660603,
          "durationTicks": 80,
          "midi": 88,
          "name": "E6",
          "ticks": 792480,
          "time": 660.4000000000001,
          "velocity": 0.9763779527559056
        },
        {
          "duration": 0.06666666666671972,
          "durationTicks": 80,
          "midi": 88,
          "name": "E6",
          "ticks": 792720,
          "time": 660.6,
          "velocity": 0.9763779527559056
        },
        {
          "duration": 0.1999999999999318,
          "durationTicks": 240,
          "midi": 88,
          "name": "E6",
          "ticks": 792960,
          "time": 660.8000000000001,
          "velocity": 0.9763779527559056
        },
        {
          "duration": 0.19666666666671517,
          "durationTicks": 236,
          "midi": 86,
          "name": "D6",
          "ticks": 793200,
          "time": 661,
          "velocity": 0.9763779527559056
        },
        {
          "duration": 0.06666666666671972,
          "durationTicks": 80,
          "midi": 86,
          "name": "D6",
          "ticks": 793440,
          "time": 661.2,
          "velocity": 0.9763779527559056
        },
        {
          "duration": 0.06666666666660603,
          "durationTicks": 80,
          "midi": 86,
          "name": "D6",
          "ticks": 793680,
          "time": 661.4000000000001,
          "velocity": 0.9763779527559056
        },
        {
          "duration": 0.05000000000006821,
          "durationTicks": 60,
          "midi": 88,
          "name": "E6",
          "ticks": 793920,
          "time": 661.6,
          "velocity": 0.9763779527559056
        },
        {
          "duration": 0.09999999999990905,
          "durationTicks": 120,
          "midi": 86,
          "name": "D6",
          "ticks": 793980,
          "time": 661.6500000000001,
          "velocity": 0.9763779527559056
        },
        {
          "duration": 0.06666666666671972,
          "durationTicks": 80,
          "midi": 84,
          "name": "C6",
          "ticks": 794160,
          "time": 661.8000000000001,
          "velocity": 0.9763779527559056
        },
        {
          "duration": 0.06666666666671972,
          "durationTicks": 80,
          "midi": 86,
          "name": "D6",
          "ticks": 794400,
          "time": 662,
          "velocity": 0.9763779527559056
        },
        {
          "duration": 0.06666666666671972,
          "durationTicks": 80,
          "midi": 88,
          "name": "E6",
          "ticks": 794640,
          "time": 662.2,
          "velocity": 0.9763779527559056
        },
        {
          "duration": 0.33333333333325754,
          "durationTicks": 400,
          "midi": 84,
          "name": "C6",
          "ticks": 794880,
          "time": 662.4000000000001,
          "velocity": 0.9763779527559056
        },
        {
          "duration": 0.6000000000000227,
          "durationTicks": 720,
          "midi": 84,
          "name": "C6",
          "ticks": 798720,
          "time": 665.6,
          "velocity": 0.9763779527559056
        },
        {
          "duration": 0.1966666666666015,
          "durationTicks": 236,
          "midi": 88,
          "name": "E6",
          "ticks": 799440,
          "time": 666.2,
          "velocity": 0.9763779527559056
        },
        {
          "duration": 0.599999999999909,
          "durationTicks": 720,
          "midi": 81,
          "name": "A5",
          "ticks": 799680,
          "time": 666.4000000000001,
          "velocity": 0.9763779527559056
        },
        {
          "duration": 0.19666666666671517,
          "durationTicks": 236,
          "midi": 89,
          "name": "F6",
          "ticks": 800400,
          "time": 667,
          "velocity": 0.9763779527559056
        },
        {
          "duration": 0.20000000000004547,
          "durationTicks": 240,
          "midi": 86,
          "name": "D6",
          "ticks": 800640,
          "time": 667.2,
          "velocity": 0.9763779527559056
        },
        {
          "duration": 0.1966666666666015,
          "durationTicks": 236,
          "midi": 81,
          "name": "A5",
          "ticks": 800880,
          "time": 667.4000000000001,
          "velocity": 0.9763779527559056
        },
        {
          "duration": 0.06666666666671972,
          "durationTicks": 80,
          "midi": 89,
          "name": "F6",
          "ticks": 801120,
          "time": 667.6,
          "velocity": 0.9763779527559056
        },
        {
          "duration": 0.06666666666671972,
          "durationTicks": 80,
          "midi": 86,
          "name": "D6",
          "ticks": 801360,
          "time": 667.8000000000001,
          "velocity": 0.9763779527559056
        },
        {
          "duration": 0.06666666666671972,
          "durationTicks": 80,
          "midi": 83,
          "name": "B5",
          "ticks": 801600,
          "time": 668,
          "velocity": 0.9763779527559056
        },
        {
          "duration": 0.06666666666671972,
          "durationTicks": 80,
          "midi": 84,
          "name": "C6",
          "ticks": 801840,
          "time": 668.2,
          "velocity": 0.9763779527559056
        },
        {
          "duration": 0.06666666666660603,
          "durationTicks": 80,
          "midi": 86,
          "name": "D6",
          "ticks": 802080,
          "time": 668.4000000000001,
          "velocity": 0.9763779527559056
        },
        {
          "duration": 0.06666666666671972,
          "durationTicks": 80,
          "midi": 88,
          "name": "E6",
          "ticks": 802320,
          "time": 668.6,
          "velocity": 0.9763779527559056
        },
        {
          "duration": 0.1966666666666015,
          "durationTicks": 236,
          "midi": 84,
          "name": "C6",
          "ticks": 802560,
          "time": 668.8000000000001,
          "velocity": 0.9763779527559056
        },
        {
          "duration": 0.1966666666666015,
          "durationTicks": 236,
          "midi": 91,
          "name": "G6",
          "ticks": 803040,
          "time": 669.2,
          "velocity": 0.9763779527559056
        },
        {
          "duration": 0.1966666666666015,
          "durationTicks": 236,
          "midi": 90,
          "name": "F#6",
          "ticks": 803280,
          "time": 669.4000000000001,
          "velocity": 0.9763779527559056
        },
        {
          "duration": 0.1966666666666015,
          "durationTicks": 236,
          "midi": 91,
          "name": "G6",
          "ticks": 803520,
          "time": 669.6,
          "velocity": 0.9763779527559056
        },
        {
          "duration": 0.1966666666666015,
          "durationTicks": 236,
          "midi": 90,
          "name": "F#6",
          "ticks": 803760,
          "time": 669.8000000000001,
          "velocity": 0.9763779527559056
        },
        {
          "duration": 0.19666666666671517,
          "durationTicks": 236,
          "midi": 91,
          "name": "G6",
          "ticks": 804000,
          "time": 670,
          "velocity": 0.9763779527559056
        },
        {
          "duration": 0.1966666666666015,
          "durationTicks": 236,
          "midi": 88,
          "name": "E6",
          "ticks": 804240,
          "time": 670.2,
          "velocity": 0.9763779527559056
        },
        {
          "duration": 0.1966666666666015,
          "durationTicks": 236,
          "midi": 89,
          "name": "F6",
          "ticks": 804480,
          "time": 670.4000000000001,
          "velocity": 0.9763779527559056
        },
        {
          "duration": 0.1966666666666015,
          "durationTicks": 236,
          "midi": 89,
          "name": "F6",
          "ticks": 804960,
          "time": 670.8000000000001,
          "velocity": 0.9763779527559056
        },
        {
          "duration": 0.19666666666671517,
          "durationTicks": 236,
          "midi": 88,
          "name": "E6",
          "ticks": 805200,
          "time": 671,
          "velocity": 0.9763779527559056
        },
        {
          "duration": 0.1966666666666015,
          "durationTicks": 236,
          "midi": 89,
          "name": "F6",
          "ticks": 805440,
          "time": 671.2,
          "velocity": 0.9763779527559056
        },
        {
          "duration": 0.1966666666666015,
          "durationTicks": 236,
          "midi": 88,
          "name": "E6",
          "ticks": 805680,
          "time": 671.4000000000001,
          "velocity": 0.9763779527559056
        },
        {
          "duration": 0.1966666666666015,
          "durationTicks": 236,
          "midi": 89,
          "name": "F6",
          "ticks": 805920,
          "time": 671.6,
          "velocity": 0.9763779527559056
        },
        {
          "duration": 0.1966666666666015,
          "durationTicks": 236,
          "midi": 86,
          "name": "D6",
          "ticks": 806160,
          "time": 671.8000000000001,
          "velocity": 0.9763779527559056
        },
        {
          "duration": 0.19666666666671517,
          "durationTicks": 236,
          "midi": 88,
          "name": "E6",
          "ticks": 806400,
          "time": 672,
          "velocity": 0.9763779527559056
        },
        {
          "duration": 0.049999999999954525,
          "durationTicks": 60,
          "midi": 86,
          "name": "D6",
          "ticks": 806880,
          "time": 672.4000000000001,
          "velocity": 0.9763779527559056
        },
        {
          "duration": 0.049999999999954525,
          "durationTicks": 60,
          "midi": 84,
          "name": "C6",
          "ticks": 806940,
          "time": 672.45,
          "velocity": 0.9763779527559056
        },
        {
          "duration": 0.05000000000006821,
          "durationTicks": 60,
          "midi": 86,
          "name": "D6",
          "ticks": 807000,
          "time": 672.5,
          "velocity": 0.9763779527559056
        },
        {
          "duration": 0.049999999999954525,
          "durationTicks": 60,
          "midi": 84,
          "name": "C6",
          "ticks": 807060,
          "time": 672.5500000000001,
          "velocity": 0.9763779527559056
        },
        {
          "duration": 0.10000000000002274,
          "durationTicks": 120,
          "midi": 83,
          "name": "B5",
          "ticks": 807120,
          "time": 672.6,
          "velocity": 0.9763779527559056
        },
        {
          "duration": 0.10000000000002274,
          "durationTicks": 120,
          "midi": 84,
          "name": "C6",
          "ticks": 807240,
          "time": 672.7,
          "velocity": 0.9763779527559056
        },
        {
          "duration": 0.1966666666666015,
          "durationTicks": 236,
          "midi": 86,
          "name": "D6",
          "ticks": 807360,
          "time": 672.8000000000001,
          "velocity": 0.9763779527559056
        },
        {
          "duration": 0.06666666666671972,
          "durationTicks": 80,
          "midi": 86,
          "name": "D6",
          "ticks": 807600,
          "time": 673,
          "velocity": 0.9763779527559056
        },
        {
          "duration": 0.06666666666671972,
          "durationTicks": 80,
          "midi": 83,
          "name": "B5",
          "ticks": 807840,
          "time": 673.2,
          "velocity": 0.9763779527559056
        },
        {
          "duration": 0.06666666666660603,
          "durationTicks": 80,
          "midi": 83,
          "name": "B5",
          "ticks": 808080,
          "time": 673.4000000000001,
          "velocity": 0.9763779527559056
        },
        {
          "duration": 0.1966666666666015,
          "durationTicks": 236,
          "midi": 84,
          "name": "C6",
          "ticks": 808320,
          "time": 673.6,
          "velocity": 0.9763779527559056
        },
        {
          "duration": 0.19666666666671517,
          "durationTicks": 236,
          "midi": 91,
          "name": "G6",
          "ticks": 808800,
          "time": 674,
          "velocity": 0.9763779527559056
        },
        {
          "duration": 0.1966666666666015,
          "durationTicks": 236,
          "midi": 90,
          "name": "F#6",
          "ticks": 809040,
          "time": 674.2,
          "velocity": 0.9763779527559056
        },
        {
          "duration": 0.1966666666666015,
          "durationTicks": 236,
          "midi": 91,
          "name": "G6",
          "ticks": 809280,
          "time": 674.4000000000001,
          "velocity": 0.9763779527559056
        },
        {
          "duration": 0.1966666666666015,
          "durationTicks": 236,
          "midi": 90,
          "name": "F#6",
          "ticks": 809520,
          "time": 674.6,
          "velocity": 0.9763779527559056
        },
        {
          "duration": 0.1966666666666015,
          "durationTicks": 236,
          "midi": 91,
          "name": "G6",
          "ticks": 809760,
          "time": 674.8000000000001,
          "velocity": 0.9763779527559056
        },
        {
          "duration": 0.19666666666671517,
          "durationTicks": 236,
          "midi": 88,
          "name": "E6",
          "ticks": 810000,
          "time": 675,
          "velocity": 0.9763779527559056
        },
        {
          "duration": 0.1966666666666015,
          "durationTicks": 236,
          "midi": 89,
          "name": "F6",
          "ticks": 810240,
          "time": 675.2,
          "velocity": 0.9763779527559056
        },
        {
          "duration": 0.1966666666666015,
          "durationTicks": 236,
          "midi": 89,
          "name": "F6",
          "ticks": 810720,
          "time": 675.6,
          "velocity": 0.9763779527559056
        },
        {
          "duration": 0.1966666666666015,
          "durationTicks": 236,
          "midi": 88,
          "name": "E6",
          "ticks": 810960,
          "time": 675.8000000000001,
          "velocity": 0.9763779527559056
        },
        {
          "duration": 0.19666666666671517,
          "durationTicks": 236,
          "midi": 89,
          "name": "F6",
          "ticks": 811200,
          "time": 676,
          "velocity": 0.9763779527559056
        },
        {
          "duration": 0.1966666666666015,
          "durationTicks": 236,
          "midi": 88,
          "name": "E6",
          "ticks": 811440,
          "time": 676.2,
          "velocity": 0.9763779527559056
        },
        {
          "duration": 0.1966666666666015,
          "durationTicks": 236,
          "midi": 89,
          "name": "F6",
          "ticks": 811680,
          "time": 676.4000000000001,
          "velocity": 0.9763779527559056
        },
        {
          "duration": 0.1966666666666015,
          "durationTicks": 236,
          "midi": 86,
          "name": "D6",
          "ticks": 811920,
          "time": 676.6,
          "velocity": 0.9763779527559056
        },
        {
          "duration": 0.1966666666666015,
          "durationTicks": 236,
          "midi": 88,
          "name": "E6",
          "ticks": 812160,
          "time": 676.8000000000001,
          "velocity": 0.9763779527559056
        },
        {
          "duration": 0.7999999999999545,
          "durationTicks": 960,
          "midi": 91,
          "name": "G6",
          "ticks": 812640,
          "time": 677.2,
          "velocity": 0.9763779527559056
        },
        {
          "duration": 0.33333333333337123,
          "durationTicks": 400,
          "midi": 89,
          "name": "F6",
          "ticks": 813600,
          "time": 678,
          "velocity": 0.9763779527559056
        },
        {
          "duration": 0.1966666666666015,
          "durationTicks": 236,
          "midi": 88,
          "name": "E6",
          "ticks": 814080,
          "time": 678.4000000000001,
          "velocity": 0.9763779527559056
        },
        {
          "duration": 0.1966666666666015,
          "durationTicks": 236,
          "midi": 88,
          "name": "E6",
          "ticks": 814320,
          "time": 678.6,
          "velocity": 0.9763779527559056
        },
        {
          "duration": 0.1966666666666015,
          "durationTicks": 236,
          "midi": 89,
          "name": "F6",
          "ticks": 814560,
          "time": 678.8000000000001,
          "velocity": 0.9763779527559056
        },
        {
          "duration": 0.19666666666671517,
          "durationTicks": 236,
          "midi": 89,
          "name": "F6",
          "ticks": 814800,
          "time": 679,
          "velocity": 0.9763779527559056
        },
        {
          "duration": 0.1966666666666015,
          "durationTicks": 236,
          "midi": 88,
          "name": "E6",
          "ticks": 815040,
          "time": 679.2,
          "velocity": 0.9763779527559056
        },
        {
          "duration": 0.1966666666666015,
          "durationTicks": 236,
          "midi": 88,
          "name": "E6",
          "ticks": 815280,
          "time": 679.4000000000001,
          "velocity": 0.9763779527559056
        },
        {
          "duration": 0.1966666666666015,
          "durationTicks": 236,
          "midi": 86,
          "name": "D6",
          "ticks": 815520,
          "time": 679.6,
          "velocity": 0.9763779527559056
        },
        {
          "duration": 0.1966666666666015,
          "durationTicks": 236,
          "midi": 86,
          "name": "D6",
          "ticks": 815760,
          "time": 679.8000000000001,
          "velocity": 0.9763779527559056
        },
        {
          "duration": 0.33333333333337123,
          "durationTicks": 400,
          "midi": 84,
          "name": "C6",
          "ticks": 816000,
          "time": 680,
          "velocity": 0.9763779527559056
        },
        {
          "duration": 0.33333333333325754,
          "durationTicks": 400,
          "midi": 83,
          "name": "B5",
          "ticks": 816960,
          "time": 680.8000000000001,
          "velocity": 0.9763779527559056
        },
        {
          "duration": 0.33333333333337123,
          "durationTicks": 400,
          "midi": 84,
          "name": "C6",
          "ticks": 817920,
          "time": 681.6,
          "velocity": 0.9763779527559056
        },
        {
          "duration": 0.33333333333325754,
          "durationTicks": 400,
          "midi": 83,
          "name": "B5",
          "ticks": 818880,
          "time": 682.4000000000001,
          "velocity": 0.9763779527559056
        },
        {
          "duration": 0.33333333333325754,
          "durationTicks": 400,
          "midi": 84,
          "name": "C6",
          "ticks": 819840,
          "time": 683.2,
          "velocity": 0.9763779527559056
        },
        {
          "duration": 0.33333333333337123,
          "durationTicks": 400,
          "midi": 83,
          "name": "B5",
          "ticks": 820800,
          "time": 684,
          "velocity": 0.9763779527559056
        },
        {
          "duration": 0.1966666666666015,
          "durationTicks": 236,
          "midi": 84,
          "name": "C6",
          "ticks": 821760,
          "time": 684.8000000000001,
          "velocity": 0.9763779527559056
        },
        {
          "duration": 0.19666666666671517,
          "durationTicks": 236,
          "midi": 79,
          "name": "G5",
          "ticks": 822000,
          "time": 685,
          "velocity": 0.9763779527559056
        },
        {
          "duration": 0.1966666666666015,
          "durationTicks": 236,
          "midi": 84,
          "name": "C6",
          "ticks": 822240,
          "time": 685.2,
          "velocity": 0.9763779527559056
        },
        {
          "duration": 0.1966666666666015,
          "durationTicks": 236,
          "midi": 79,
          "name": "G5",
          "ticks": 822480,
          "time": 685.4000000000001,
          "velocity": 0.9763779527559056
        },
        {
          "duration": 0.1966666666666015,
          "durationTicks": 236,
          "midi": 84,
          "name": "C6",
          "ticks": 822720,
          "time": 685.6,
          "velocity": 0.9763779527559056
        },
        {
          "duration": 0.1966666666666015,
          "durationTicks": 236,
          "midi": 79,
          "name": "G5",
          "ticks": 822960,
          "time": 685.8000000000001,
          "velocity": 0.9763779527559056
        },
        {
          "duration": 0.19666666666671517,
          "durationTicks": 236,
          "midi": 84,
          "name": "C6",
          "ticks": 823200,
          "time": 686,
          "velocity": 0.984251968503937
        },
        {
          "duration": 0.1966666666666015,
          "durationTicks": 236,
          "midi": 79,
          "name": "G5",
          "ticks": 823440,
          "time": 686.2,
          "velocity": 0.9921259842519685
        },
        {
          "duration": 0.1966666666666015,
          "durationTicks": 236,
          "midi": 84,
          "name": "C6",
          "ticks": 823680,
          "time": 686.4000000000001,
          "velocity": 1
        },
        {
          "duration": 0.1966666666666015,
          "durationTicks": 236,
          "midi": 88,
          "name": "E6",
          "ticks": 823920,
          "time": 686.6,
          "velocity": 1
        },
        {
          "duration": 0.1966666666666015,
          "durationTicks": 236,
          "midi": 91,
          "name": "G6",
          "ticks": 824160,
          "time": 686.8000000000001,
          "velocity": 1
        },
        {
          "duration": 0.19666666666671517,
          "durationTicks": 236,
          "midi": 88,
          "name": "E6",
          "ticks": 824400,
          "time": 687,
          "velocity": 1
        },
        {
          "duration": 0.1966666666666015,
          "durationTicks": 236,
          "midi": 91,
          "name": "G6",
          "ticks": 824640,
          "time": 687.2,
          "velocity": 1
        },
        {
          "duration": 0.1966666666666015,
          "durationTicks": 236,
          "midi": 88,
          "name": "E6",
          "ticks": 824880,
          "time": 687.4000000000001,
          "velocity": 1
        },
        {
          "duration": 0.1966666666666015,
          "durationTicks": 236,
          "midi": 91,
          "name": "G6",
          "ticks": 825120,
          "time": 687.6,
          "velocity": 1
        },
        {
          "duration": 0.1966666666666015,
          "durationTicks": 236,
          "midi": 88,
          "name": "E6",
          "ticks": 825360,
          "time": 687.8000000000001,
          "velocity": 1
        },
        {
          "duration": 0.33333333333337123,
          "durationTicks": 400,
          "midi": 84,
          "name": "C6",
          "ticks": 825600,
          "time": 688,
          "velocity": 1
        },
        {
          "duration": 0.33333333333325754,
          "durationTicks": 400,
          "midi": 84,
          "name": "C6",
          "ticks": 826080,
          "time": 688.4000000000001,
          "velocity": 1
        },
        {
          "duration": 0.33333333333325754,
          "durationTicks": 400,
          "midi": 84,
          "name": "C6",
          "ticks": 826560,
          "time": 688.8000000000001,
          "velocity": 1
        },
        {
          "duration": 0.33333333333325754,
          "durationTicks": 400,
          "midi": 84,
          "name": "C6",
          "ticks": 827040,
          "time": 689.2,
          "velocity": 1
        },
        {
          "duration": 0.38461500000005344,
          "durationTicks": 400,
          "midi": 84,
          "name": "C6",
          "ticks": 827520,
          "time": 689.6,
          "velocity": 1
        },
        {
          "duration": 0.4545458333333272,
          "durationTicks": 400,
          "midi": 84,
          "name": "C6",
          "ticks": 828480,
          "time": 690.5230760000001,
          "velocity": 1
        },
        {
          "duration": 1.0499999999999545,
          "durationTicks": 840,
          "midi": 84,
          "name": "C6",
          "ticks": 829440,
          "time": 691.6139860000001,
          "velocity": 1
        }
      ]
    },
    {
      "channel": 0,
      "controlChanges": {},
      "pitchBends": [],
      "instrument": {
        "family": "piano",
        "number": 0,
        "name": "acoustic grand piano"
      },
      "name": "Oboi",
      "notes": [],
      "endOfTrackTicks": 831360
    },
    {
      "channel": 1,
      "controlChanges": {
        "7": [
          {
            "number": 7,
            "ticks": 0,
            "time": 0,
            "value": 0.6692913385826772
          }
        ],
        "10": [
          {
            "number": 10,
            "ticks": 0,
            "time": 0,
            "value": 0.31496062992125984
          }
        ]
      },
      "pitchBends": [],
      "instrument": {
        "family": "reed",
        "number": 68,
        "name": "oboe"
      },
      "name": "",
      "notes": [
        {
          "duration": 0.33333333333333337,
          "durationTicks": 400,
          "midi": 72,
          "name": "C5",
          "ticks": 0,
          "time": 0,
          "velocity": 0.8267716535433071
        },
        {
          "duration": 0.06666666666666665,
          "durationTicks": 80,
          "midi": 67,
          "name": "G4",
          "ticks": 720,
          "time": 0.6000000000000001,
          "velocity": 0.8267716535433071
        },
        {
          "duration": 0.06666666666666665,
          "durationTicks": 80,
          "midi": 69,
          "name": "A4",
          "ticks": 800,
          "time": 0.6666666666666667,
          "velocity": 0.8267716535433071
        },
        {
          "duration": 0.06666666666666665,
          "durationTicks": 80,
          "midi": 71,
          "name": "B4",
          "ticks": 880,
          "time": 0.7333333333333334,
          "velocity": 0.8267716535433071
        },
        {
          "duration": 0.3333333333333335,
          "durationTicks": 400,
          "midi": 72,
          "name": "C5",
          "ticks": 960,
          "time": 0.8,
          "velocity": 0.8267716535433071
        },
        {
          "duration": 0.06666666666666665,
          "durationTicks": 80,
          "midi": 67,
          "name": "G4",
          "ticks": 1680,
          "time": 1.4000000000000001,
          "velocity": 0.8267716535433071
        },
        {
          "duration": 0.06666666666666665,
          "durationTicks": 80,
          "midi": 69,
          "name": "A4",
          "ticks": 1760,
          "time": 1.4666666666666668,
          "velocity": 0.8267716535433071
        },
        {
          "duration": 0.06666666666666665,
          "durationTicks": 80,
          "midi": 71,
          "name": "B4",
          "ticks": 1840,
          "time": 1.5333333333333334,
          "velocity": 0.8267716535433071
        },
        {
          "duration": 0.33333333333333326,
          "durationTicks": 400,
          "midi": 72,
          "name": "C5",
          "ticks": 1920,
          "time": 1.6,
          "velocity": 0.8267716535433071
        },
        {
          "duration": 0.33333333333333304,
          "durationTicks": 400,
          "midi": 79,
          "name": "G5",
          "ticks": 7680,
          "time": 6.4,
          "velocity": 0.8267716535433071
        },
        {
          "duration": 0.06666666666666732,
          "durationTicks": 80,
          "midi": 74,
          "name": "D5",
          "ticks": 8400,
          "time": 7,
          "velocity": 0.8267716535433071
        },
        {
          "duration": 0.06666666666666554,
          "durationTicks": 80,
          "midi": 76,
          "name": "E5",
          "ticks": 8480,
          "time": 7.066666666666667,
          "velocity": 0.8267716535433071
        },
        {
          "duration": 0.06666666666666732,
          "durationTicks": 80,
          "midi": 78,
          "name": "F#5",
          "ticks": 8560,
          "time": 7.133333333333333,
          "velocity": 0.8267716535433071
        },
        {
          "duration": 0.33333333333333304,
          "durationTicks": 400,
          "midi": 79,
          "name": "G5",
          "ticks": 8640,
          "time": 7.2,
          "velocity": 0.8267716535433071
        },
        {
          "duration": 0.06666666666666643,
          "durationTicks": 80,
          "midi": 74,
          "name": "D5",
          "ticks": 9360,
          "time": 7.800000000000001,
          "velocity": 0.8267716535433071
        },
        {
          "duration": 0.06666666666666643,
          "durationTicks": 80,
          "midi": 76,
          "name": "E5",
          "ticks": 9440,
          "time": 7.866666666666667,
          "velocity": 0.8267716535433071
        },
        {
          "duration": 0.06666666666666643,
          "durationTicks": 80,
          "midi": 78,
          "name": "F#5",
          "ticks": 9520,
          "time": 7.933333333333334,
          "velocity": 0.8267716535433071
        },
        {
          "duration": 0.3333333333333339,
          "durationTicks": 400,
          "midi": 79,
          "name": "G5",
          "ticks": 9600,
          "time": 8,
          "velocity": 0.8267716535433071
        },
        {
          "duration": 0.3333333333333339,
          "durationTicks": 400,
          "midi": 76,
          "name": "E5",
          "ticks": 15360,
          "time": 12.8,
          "velocity": 0.8267716535433071
        },
        {
          "duration": 0.3333333333333339,
          "durationTicks": 400,
          "midi": 79,
          "name": "G5",
          "ticks": 15360,
          "time": 12.8,
          "velocity": 0.8267716535433071
        },
        {
          "duration": 0.29666666666666686,
          "durationTicks": 356,
          "midi": 76,
          "name": "E5",
          "ticks": 15840,
          "time": 13.200000000000001,
          "velocity": 0.8267716535433071
        },
        {
          "duration": 0.29666666666666686,
          "durationTicks": 356,
          "midi": 79,
          "name": "G5",
          "ticks": 15840,
          "time": 13.200000000000001,
          "velocity": 0.8267716535433071
        },
        {
          "duration": 0.09666666666666757,
          "durationTicks": 116,
          "midi": 76,
          "name": "E5",
          "ticks": 16200,
          "time": 13.5,
          "velocity": 0.8267716535433071
        },
        {
          "duration": 0.09666666666666757,
          "durationTicks": 116,
          "midi": 79,
          "name": "G5",
          "ticks": 16200,
          "time": 13.5,
          "velocity": 0.8267716535433071
        },
        {
          "duration": 0.3333333333333339,
          "durationTicks": 400,
          "midi": 76,
          "name": "E5",
          "ticks": 16320,
          "time": 13.600000000000001,
          "velocity": 0.8267716535433071
        },
        {
          "duration": 0.3333333333333339,
          "durationTicks": 400,
          "midi": 79,
          "name": "G5",
          "ticks": 16320,
          "time": 13.600000000000001,
          "velocity": 0.8267716535433071
        },
        {
          "duration": 0.3333333333333357,
          "durationTicks": 400,
          "midi": 76,
          "name": "E5",
          "ticks": 16800,
          "time": 14,
          "velocity": 0.8267716535433071
        },
        {
          "duration": 0.3333333333333357,
          "durationTicks": 400,
          "midi": 79,
          "name": "G5",
          "ticks": 16800,
          "time": 14,
          "velocity": 0.8267716535433071
        },
        {
          "duration": 0.3333333333333339,
          "durationTicks": 400,
          "midi": 69,
          "name": "A4",
          "ticks": 17280,
          "time": 14.4,
          "velocity": 0.8267716535433071
        },
        {
          "duration": 0.3333333333333339,
          "durationTicks": 400,
          "midi": 77,
          "name": "F5",
          "ticks": 17280,
          "time": 14.4,
          "velocity": 0.8267716535433071
        },
        {
          "duration": 0.29666666666666686,
          "durationTicks": 356,
          "midi": 69,
          "name": "A4",
          "ticks": 17760,
          "time": 14.8,
          "velocity": 0.8267716535433071
        },
        {
          "duration": 0.29666666666666686,
          "durationTicks": 356,
          "midi": 77,
          "name": "F5",
          "ticks": 17760,
          "time": 14.8,
          "velocity": 0.8267716535433071
        },
        {
          "duration": 0.09666666666666579,
          "durationTicks": 116,
          "midi": 69,
          "name": "A4",
          "ticks": 18120,
          "time": 15.100000000000001,
          "velocity": 0.8267716535433071
        },
        {
          "duration": 0.09666666666666579,
          "durationTicks": 116,
          "midi": 77,
          "name": "F5",
          "ticks": 18120,
          "time": 15.100000000000001,
          "velocity": 0.8267716535433071
        },
        {
          "duration": 0.3333333333333339,
          "durationTicks": 400,
          "midi": 69,
          "name": "A4",
          "ticks": 18240,
          "time": 15.200000000000001,
          "velocity": 0.8267716535433071
        },
        {
          "duration": 0.3333333333333339,
          "durationTicks": 400,
          "midi": 77,
          "name": "F5",
          "ticks": 18240,
          "time": 15.200000000000001,
          "velocity": 0.8267716535433071
        },
        {
          "duration": 0.3333333333333339,
          "durationTicks": 400,
          "midi": 72,
          "name": "C5",
          "ticks": 18720,
          "time": 15.600000000000001,
          "velocity": 0.8267716535433071
        },
        {
          "duration": 0.3333333333333339,
          "durationTicks": 400,
          "midi": 77,
          "name": "F5",
          "ticks": 18720,
          "time": 15.600000000000001,
          "velocity": 0.8267716535433071
        },
        {
          "duration": 0.3333333333333357,
          "durationTicks": 400,
          "midi": 74,
          "name": "D5",
          "ticks": 19200,
          "time": 16,
          "velocity": 0.8267716535433071
        },
        {
          "duration": 0.3333333333333357,
          "durationTicks": 400,
          "midi": 77,
          "name": "F5",
          "ticks": 19200,
          "time": 16,
          "velocity": 0.8267716535433071
        },
        {
          "duration": 0.29666666666666686,
          "durationTicks": 356,
          "midi": 74,
          "name": "D5",
          "ticks": 19680,
          "time": 16.400000000000002,
          "velocity": 0.8267716535433071
        },
        {
          "duration": 0.29666666666666686,
          "durationTicks": 356,
          "midi": 77,
          "name": "F5",
          "ticks": 19680,
          "time": 16.400000000000002,
          "velocity": 0.8267716535433071
        },
        {
          "duration": 0.09666666666666757,
          "durationTicks": 116,
          "midi": 74,
          "name": "D5",
          "ticks": 20040,
          "time": 16.7,
          "velocity": 0.8267716535433071
        },
        {
          "duration": 0.09666666666666757,
          "durationTicks": 116,
          "midi": 77,
          "name": "F5",
          "ticks": 20040,
          "time": 16.7,
          "velocity": 0.8267716535433071
        },
        {
          "duration": 0.3333333333333357,
          "durationTicks": 400,
          "midi": 74,
          "name": "D5",
          "ticks": 20160,
          "time": 16.8,
          "velocity": 0.8267716535433071
        },
        {
          "duration": 0.3333333333333357,
          "durationTicks": 400,
          "midi": 77,
          "name": "F5",
          "ticks": 20160,
          "time": 16.8,
          "velocity": 0.8267716535433071
        },
        {
          "duration": 0.3333333333333357,
          "durationTicks": 400,
          "midi": 74,
          "name": "D5",
          "ticks": 20640,
          "time": 17.2,
          "velocity": 0.8267716535433071
        },
        {
          "duration": 0.3333333333333357,
          "durationTicks": 400,
          "midi": 77,
          "name": "F5",
          "ticks": 20640,
          "time": 17.2,
          "velocity": 0.8267716535433071
        },
        {
          "duration": 0.33333333333333215,
          "durationTicks": 400,
          "midi": 67,
          "name": "G4",
          "ticks": 21120,
          "time": 17.6,
          "velocity": 0.8267716535433071
        },
        {
          "duration": 0.33333333333333215,
          "durationTicks": 400,
          "midi": 76,
          "name": "E5",
          "ticks": 21120,
          "time": 17.6,
          "velocity": 0.8267716535433071
        },
        {
          "duration": 0.29666666666666686,
          "durationTicks": 356,
          "midi": 76,
          "name": "E5",
          "ticks": 21600,
          "time": 18,
          "velocity": 0.8267716535433071
        },
        {
          "duration": 0.29666666666666686,
          "durationTicks": 356,
          "midi": 79,
          "name": "G5",
          "ticks": 21600,
          "time": 18,
          "velocity": 0.8267716535433071
        },
        {
          "duration": 0.09666666666666757,
          "durationTicks": 116,
          "midi": 76,
          "name": "E5",
          "ticks": 21960,
          "time": 18.3,
          "velocity": 0.8267716535433071
        },
        {
          "duration": 0.09666666666666757,
          "durationTicks": 116,
          "midi": 79,
          "name": "G5",
          "ticks": 21960,
          "time": 18.3,
          "velocity": 0.8267716535433071
        },
        {
          "duration": 0.33333333333333215,
          "durationTicks": 400,
          "midi": 76,
          "name": "E5",
          "ticks": 22080,
          "time": 18.400000000000002,
          "velocity": 0.8267716535433071
        },
        {
          "duration": 0.33333333333333215,
          "durationTicks": 400,
          "midi": 79,
          "name": "G5",
          "ticks": 22080,
          "time": 18.400000000000002,
          "velocity": 0.8267716535433071
        },
        {
          "duration": 0.3333333333333357,
          "durationTicks": 400,
          "midi": 76,
          "name": "E5",
          "ticks": 22560,
          "time": 18.8,
          "velocity": 0.8267716535433071
        },
        {
          "duration": 0.3333333333333357,
          "durationTicks": 400,
          "midi": 79,
          "name": "G5",
          "ticks": 22560,
          "time": 18.8,
          "velocity": 0.8267716535433071
        },
        {
          "duration": 0.33333333333333215,
          "durationTicks": 400,
          "midi": 69,
          "name": "A4",
          "ticks": 23040,
          "time": 19.200000000000003,
          "velocity": 0.8267716535433071
        },
        {
          "duration": 0.33333333333333215,
          "durationTicks": 400,
          "midi": 77,
          "name": "F5",
          "ticks": 23040,
          "time": 19.200000000000003,
          "velocity": 0.8267716535433071
        },
        {
          "duration": 0.29666666666666686,
          "durationTicks": 356,
          "midi": 69,
          "name": "A4",
          "ticks": 23520,
          "time": 19.6,
          "velocity": 0.8267716535433071
        },
        {
          "duration": 0.29666666666666686,
          "durationTicks": 356,
          "midi": 77,
          "name": "F5",
          "ticks": 23520,
          "time": 19.6,
          "velocity": 0.8267716535433071
        },
        {
          "duration": 0.09666666666666757,
          "durationTicks": 116,
          "midi": 69,
          "name": "A4",
          "ticks": 23880,
          "time": 19.900000000000002,
          "velocity": 0.8267716535433071
        },
        {
          "duration": 0.09666666666666757,
          "durationTicks": 116,
          "midi": 77,
          "name": "F5",
          "ticks": 23880,
          "time": 19.900000000000002,
          "velocity": 0.8267716535433071
        },
        {
          "duration": 0.3333333333333357,
          "durationTicks": 400,
          "midi": 69,
          "name": "A4",
          "ticks": 24000,
          "time": 20,
          "velocity": 0.8267716535433071
        },
        {
          "duration": 0.3333333333333357,
          "durationTicks": 400,
          "midi": 77,
          "name": "F5",
          "ticks": 24000,
          "time": 20,
          "velocity": 0.8267716535433071
        },
        {
          "duration": 0.33333333333333215,
          "durationTicks": 400,
          "midi": 72,
          "name": "C5",
          "ticks": 24480,
          "time": 20.400000000000002,
          "velocity": 0.8267716535433071
        },
        {
          "duration": 0.33333333333333215,
          "durationTicks": 400,
          "midi": 77,
          "name": "F5",
          "ticks": 24480,
          "time": 20.400000000000002,
          "velocity": 0.8267716535433071
        },
        {
          "duration": 0.3333333333333357,
          "durationTicks": 400,
          "midi": 74,
          "name": "D5",
          "ticks": 24960,
          "time": 20.8,
          "velocity": 0.8267716535433071
        },
        {
          "duration": 0.3333333333333357,
          "durationTicks": 400,
          "midi": 77,
          "name": "F5",
          "ticks": 24960,
          "time": 20.8,
          "velocity": 0.8267716535433071
        },
        {
          "duration": 0.29666666666666686,
          "durationTicks": 356,
          "midi": 74,
          "name": "D5",
          "ticks": 25440,
          "time": 21.200000000000003,
          "velocity": 0.8267716535433071
        },
        {
          "duration": 0.29666666666666686,
          "durationTicks": 356,
          "midi": 77,
          "name": "F5",
          "ticks": 25440,
          "time": 21.200000000000003,
          "velocity": 0.8267716535433071
        },
        {
          "duration": 0.09666666666666757,
          "durationTicks": 116,
          "midi": 74,
          "name": "D5",
          "ticks": 25800,
          "time": 21.5,
          "velocity": 0.8267716535433071
        },
        {
          "duration": 0.09666666666666757,
          "durationTicks": 116,
          "midi": 77,
          "name": "F5",
          "ticks": 25800,
          "time": 21.5,
          "velocity": 0.8267716535433071
        },
        {
          "duration": 0.3333333333333357,
          "durationTicks": 400,
          "midi": 74,
          "name": "D5",
          "ticks": 25920,
          "time": 21.6,
          "velocity": 0.8267716535433071
        },
        {
          "duration": 0.3333333333333357,
          "durationTicks": 400,
          "midi": 77,
          "name": "F5",
          "ticks": 25920,
          "time": 21.6,
          "velocity": 0.8267716535433071
        },
        {
          "duration": 0.3333333333333357,
          "durationTicks": 400,
          "midi": 74,
          "name": "D5",
          "ticks": 26400,
          "time": 22,
          "velocity": 0.8267716535433071
        },
        {
          "duration": 0.3333333333333357,
          "durationTicks": 400,
          "midi": 77,
          "name": "F5",
          "ticks": 26400,
          "time": 22,
          "velocity": 0.8267716535433071
        },
        {
          "duration": 0.33333333333333215,
          "durationTicks": 400,
          "midi": 72,
          "name": "C5",
          "ticks": 26880,
          "time": 22.400000000000002,
          "velocity": 0.8267716535433071
        },
        {
          "duration": 0.33333333333333215,
          "durationTicks": 400,
          "midi": 76,
          "name": "E5",
          "ticks": 26880,
          "time": 22.400000000000002,
          "velocity": 0.8267716535433071
        },
        {
          "duration": 0.3333333333333357,
          "durationTicks": 400,
          "midi": 72,
          "name": "C5",
          "ticks": 27360,
          "time": 22.8,
          "velocity": 0.8267716535433071
        },
        {
          "duration": 0.3333333333333357,
          "durationTicks": 400,
          "midi": 76,
          "name": "E5",
          "ticks": 27360,
          "time": 22.8,
          "velocity": 0.8267716535433071
        },
        {
          "duration": 0.3333333333333357,
          "durationTicks": 400,
          "midi": 71,
          "name": "B4",
          "ticks": 28320,
          "time": 23.6,
          "velocity": 0.8267716535433071
        },
        {
          "duration": 0.3333333333333357,
          "durationTicks": 400,
          "midi": 74,
          "name": "D5",
          "ticks": 28320,
          "time": 23.6,
          "velocity": 0.8267716535433071
        },
        {
          "duration": 0.33333333333333215,
          "durationTicks": 400,
          "midi": 72,
          "name": "C5",
          "ticks": 29280,
          "time": 24.400000000000002,
          "velocity": 0.8267716535433071
        },
        {
          "duration": 0.33333333333333215,
          "durationTicks": 400,
          "midi": 76,
          "name": "E5",
          "ticks": 29280,
          "time": 24.400000000000002,
          "velocity": 0.8267716535433071
        },
        {
          "duration": 0.33333333333333215,
          "durationTicks": 400,
          "midi": 71,
          "name": "B4",
          "ticks": 30240,
          "time": 25.200000000000003,
          "velocity": 0.8267716535433071
        },
        {
          "duration": 0.33333333333333215,
          "durationTicks": 400,
          "midi": 74,
          "name": "D5",
          "ticks": 30240,
          "time": 25.200000000000003,
          "velocity": 0.8267716535433071
        },
        {
          "duration": 0.33333333333333215,
          "durationTicks": 400,
          "midi": 72,
          "name": "C5",
          "ticks": 30720,
          "time": 25.6,
          "velocity": 0.8267716535433071
        },
        {
          "duration": 0.33333333333333215,
          "durationTicks": 400,
          "midi": 76,
          "name": "E5",
          "ticks": 30720,
          "time": 25.6,
          "velocity": 0.8267716535433071
        },
        {
          "duration": 0.19666666666666544,
          "durationTicks": 236,
          "midi": 79,
          "name": "G5",
          "ticks": 31200,
          "time": 26,
          "velocity": 0.8267716535433071
        },
        {
          "duration": 0.19666666666666188,
          "durationTicks": 236,
          "midi": 79,
          "name": "G5",
          "ticks": 31440,
          "time": 26.200000000000003,
          "velocity": 0.8267716535433071
        },
        {
          "duration": 0.19666666666666188,
          "durationTicks": 236,
          "midi": 84,
          "name": "C6",
          "ticks": 31680,
          "time": 26.400000000000002,
          "velocity": 0.8267716535433071
        },
        {
          "duration": 0.19666666666666544,
          "durationTicks": 236,
          "midi": 84,
          "name": "C6",
          "ticks": 31920,
          "time": 26.6,
          "velocity": 0.8267716535433071
        },
        {
          "duration": 0.19666666666666544,
          "durationTicks": 236,
          "midi": 79,
          "name": "G5",
          "ticks": 32160,
          "time": 26.8,
          "velocity": 0.8267716535433071
        },
        {
          "duration": 0.19666666666666544,
          "durationTicks": 236,
          "midi": 79,
          "name": "G5",
          "ticks": 32400,
          "time": 27,
          "velocity": 0.8267716535433071
        },
        {
          "duration": 0.19666666666666188,
          "durationTicks": 236,
          "midi": 84,
          "name": "C6",
          "ticks": 32640,
          "time": 27.200000000000003,
          "velocity": 0.8267716535433071
        },
        {
          "duration": 0.19666666666666188,
          "durationTicks": 236,
          "midi": 84,
          "name": "C6",
          "ticks": 32880,
          "time": 27.400000000000002,
          "velocity": 0.8267716535433071
        },
        {
          "duration": 0.19666666666666544,
          "durationTicks": 236,
          "midi": 79,
          "name": "G5",
          "ticks": 33120,
          "time": 27.6,
          "velocity": 0.8267716535433071
        },
        {
          "duration": 0.19666666666666544,
          "durationTicks": 236,
          "midi": 79,
          "name": "G5",
          "ticks": 33360,
          "time": 27.8,
          "velocity": 0.8267716535433071
        },
        {
          "duration": 0.19666666666666544,
          "durationTicks": 236,
          "midi": 76,
          "name": "E5",
          "ticks": 33600,
          "time": 28,
          "velocity": 0.8267716535433071
        },
        {
          "duration": 0.19666666666666188,
          "durationTicks": 236,
          "midi": 76,
          "name": "E5",
          "ticks": 33840,
          "time": 28.200000000000003,
          "velocity": 0.8267716535433071
        },
        {
          "duration": 0.19666666666666188,
          "durationTicks": 236,
          "midi": 72,
          "name": "C5",
          "ticks": 34080,
          "time": 28.400000000000002,
          "velocity": 0.8267716535433071
        },
        {
          "duration": 0.19666666666666544,
          "durationTicks": 236,
          "midi": 72,
          "name": "C5",
          "ticks": 34320,
          "time": 28.6,
          "velocity": 0.8267716535433071
        },
        {
          "duration": 0.33333333333333215,
          "durationTicks": 400,
          "midi": 67,
          "name": "G4",
          "ticks": 34560,
          "time": 28.8,
          "velocity": 0.8267716535433071
        },
        {
          "duration": 0.3333333333333286,
          "durationTicks": 400,
          "midi": 74,
          "name": "D5",
          "ticks": 35040,
          "time": 29.200000000000003,
          "velocity": 0.8267716535433071
        },
        {
          "duration": 0.3333333333333286,
          "durationTicks": 400,
          "midi": 79,
          "name": "G5",
          "ticks": 35040,
          "time": 29.200000000000003,
          "velocity": 0.8267716535433071
        },
        {
          "duration": 0.33333333333333215,
          "durationTicks": 400,
          "midi": 76,
          "name": "E5",
          "ticks": 36000,
          "time": 30,
          "velocity": 0.8267716535433071
        },
        {
          "duration": 0.33333333333333215,
          "durationTicks": 400,
          "midi": 79,
          "name": "G5",
          "ticks": 36000,
          "time": 30,
          "velocity": 0.8267716535433071
        },
        {
          "duration": 0.33333333333333215,
          "durationTicks": 400,
          "midi": 74,
          "name": "D5",
          "ticks": 36960,
          "time": 30.8,
          "velocity": 0.8267716535433071
        },
        {
          "duration": 0.33333333333333215,
          "durationTicks": 400,
          "midi": 79,
          "name": "G5",
          "ticks": 36960,
          "time": 30.8,
          "velocity": 0.8267716535433071
        },
        {
          "duration": 0.33333333333333215,
          "durationTicks": 400,
          "midi": 76,
          "name": "E5",
          "ticks": 37920,
          "time": 31.6,
          "velocity": 0.8267716535433071
        },
        {
          "duration": 0.33333333333333215,
          "durationTicks": 400,
          "midi": 79,
          "name": "G5",
          "ticks": 37920,
          "time": 31.6,
          "velocity": 0.8267716535433071
        },
        {
          "duration": 0.19666666666666544,
          "durationTicks": 236,
          "midi": 74,
          "name": "D5",
          "ticks": 38400,
          "time": 32,
          "velocity": 0.8267716535433071
        },
        {
          "duration": 0.19666666666666544,
          "durationTicks": 236,
          "midi": 79,
          "name": "G5",
          "ticks": 38400,
          "time": 32,
          "velocity": 0.8267716535433071
        },
        {
          "duration": 0.19666666666666544,
          "durationTicks": 236,
          "midi": 76,
          "name": "E5",
          "ticks": 38640,
          "time": 32.2,
          "velocity": 0.8346456692913385
        },
        {
          "duration": 0.19666666666666544,
          "durationTicks": 236,
          "midi": 79,
          "name": "G5",
          "ticks": 38640,
          "time": 32.2,
          "velocity": 0.8346456692913385
        },
        {
          "duration": 0.19666666666666544,
          "durationTicks": 236,
          "midi": 74,
          "name": "D5",
          "ticks": 38880,
          "time": 32.4,
          "velocity": 0.8503937007874016
        },
        {
          "duration": 0.19666666666666544,
          "durationTicks": 236,
          "midi": 79,
          "name": "G5",
          "ticks": 38880,
          "time": 32.4,
          "velocity": 0.8503937007874016
        },
        {
          "duration": 0.19666666666666544,
          "durationTicks": 236,
          "midi": 76,
          "name": "E5",
          "ticks": 39120,
          "time": 32.6,
          "velocity": 0.8582677165354331
        },
        {
          "duration": 0.19666666666666544,
          "durationTicks": 236,
          "midi": 79,
          "name": "G5",
          "ticks": 39120,
          "time": 32.6,
          "velocity": 0.8582677165354331
        },
        {
          "duration": 0.19666666666665833,
          "durationTicks": 236,
          "midi": 74,
          "name": "D5",
          "ticks": 39360,
          "time": 32.800000000000004,
          "velocity": 0.8661417322834646
        },
        {
          "duration": 0.19666666666665833,
          "durationTicks": 236,
          "midi": 79,
          "name": "G5",
          "ticks": 39360,
          "time": 32.800000000000004,
          "velocity": 0.8661417322834646
        },
        {
          "duration": 0.19666666666666544,
          "durationTicks": 236,
          "midi": 76,
          "name": "E5",
          "ticks": 39600,
          "time": 33,
          "velocity": 0.8740157480314961
        },
        {
          "duration": 0.19666666666666544,
          "durationTicks": 236,
          "midi": 79,
          "name": "G5",
          "ticks": 39600,
          "time": 33,
          "velocity": 0.8740157480314961
        },
        {
          "duration": 0.19666666666666544,
          "durationTicks": 236,
          "midi": 74,
          "name": "D5",
          "ticks": 39840,
          "time": 33.2,
          "velocity": 0.8818897637795275
        },
        {
          "duration": 0.19666666666666544,
          "durationTicks": 236,
          "midi": 79,
          "name": "G5",
          "ticks": 39840,
          "time": 33.2,
          "velocity": 0.8818897637795275
        },
        {
          "duration": 0.19666666666666544,
          "durationTicks": 236,
          "midi": 76,
          "name": "E5",
          "ticks": 40080,
          "time": 33.4,
          "velocity": 0.889763779527559
        },
        {
          "duration": 0.19666666666666544,
          "durationTicks": 236,
          "midi": 79,
          "name": "G5",
          "ticks": 40080,
          "time": 33.4,
          "velocity": 0.889763779527559
        },
        {
          "duration": 0.3333333333333286,
          "durationTicks": 400,
          "midi": 74,
          "name": "D5",
          "ticks": 40320,
          "time": 33.6,
          "velocity": 0.905511811023622
        },
        {
          "duration": 0.3333333333333286,
          "durationTicks": 400,
          "midi": 79,
          "name": "G5",
          "ticks": 40320,
          "time": 33.6,
          "velocity": 0.905511811023622
        },
        {
          "duration": 0.3333333333333357,
          "durationTicks": 400,
          "midi": 67,
          "name": "G4",
          "ticks": 41280,
          "time": 34.4,
          "velocity": 0.937007874015748
        },
        {
          "duration": 0.3333333333333357,
          "durationTicks": 400,
          "midi": 79,
          "name": "G5",
          "ticks": 41280,
          "time": 34.4,
          "velocity": 0.937007874015748
        },
        {
          "duration": 0.3333333333333286,
          "durationTicks": 400,
          "midi": 67,
          "name": "G4",
          "ticks": 41760,
          "time": 34.800000000000004,
          "velocity": 0.952755905511811
        },
        {
          "duration": 0.3333333333333286,
          "durationTicks": 400,
          "midi": 79,
          "name": "G5",
          "ticks": 41760,
          "time": 34.800000000000004,
          "velocity": 0.952755905511811
        },
        {
          "duration": 1.5,
          "durationTicks": 1800,
          "midi": 67,
          "name": "G4",
          "ticks": 42240,
          "time": 35.2,
          "velocity": 0.9763779527559056
        },
        {
          "duration": 1.5,
          "durationTicks": 1800,
          "midi": 79,
          "name": "G5",
          "ticks": 42240,
          "time": 35.2,
          "velocity": 0.9763779527559056
        },
        {
          "duration": 0.7999999999999972,
          "durationTicks": 960,
          "midi": 64,
          "name": "E4",
          "ticks": 44160,
          "time": 36.800000000000004,
          "velocity": 0.4015748031496063
        },
        {
          "duration": 0.9966666666666626,
          "durationTicks": 1196,
          "midi": 76,
          "name": "E5",
          "ticks": 45120,
          "time": 37.6,
          "velocity": 0.4015748031496063
        },
        {
          "duration": 0.06666666666666998,
          "durationTicks": 80,
          "midi": 79,
          "name": "G5",
          "ticks": 46320,
          "time": 38.6,
          "velocity": 0.4015748031496063
        },
        {
          "duration": 0.06666666666666998,
          "durationTicks": 80,
          "midi": 77,
          "name": "F5",
          "ticks": 46560,
          "time": 38.800000000000004,
          "velocity": 0.4015748031496063
        },
        {
          "duration": 0.06666666666666998,
          "durationTicks": 80,
          "midi": 76,
          "name": "E5",
          "ticks": 46800,
          "time": 39,
          "velocity": 0.4015748031496063
        },
        {
          "duration": 0.06666666666666998,
          "durationTicks": 80,
          "midi": 74,
          "name": "D5",
          "ticks": 47040,
          "time": 39.2,
          "velocity": 0.4015748031496063
        },
        {
          "duration": 0.06666666666666288,
          "durationTicks": 80,
          "midi": 72,
          "name": "C5",
          "ticks": 47280,
          "time": 39.400000000000006,
          "velocity": 0.4015748031496063
        },
        {
          "duration": 0.06666666666666998,
          "durationTicks": 80,
          "midi": 71,
          "name": "B4",
          "ticks": 47520,
          "time": 39.6,
          "velocity": 0.4015748031496063
        },
        {
          "duration": 0.06666666666666998,
          "durationTicks": 80,
          "midi": 72,
          "name": "C5",
          "ticks": 47760,
          "time": 39.800000000000004,
          "velocity": 0.4015748031496063
        },
        {
          "duration": 0.8000000000000043,
          "durationTicks": 960,
          "midi": 74,
          "name": "D5",
          "ticks": 48000,
          "time": 40,
          "velocity": 0.4015748031496063
        },
        {
          "duration": 0.6999999999999957,
          "durationTicks": 840,
          "midi": 72,
          "name": "C5",
          "ticks": 48960,
          "time": 40.800000000000004,
          "velocity": 0.4015748031496063
        },
        {
          "duration": 1.1000000000000014,
          "durationTicks": 1320,
          "midi": 71,
          "name": "B4",
          "ticks": 49920,
          "time": 41.6,
          "velocity": 0.4015748031496063
        },
        {
          "duration": 0.7999999999999972,
          "durationTicks": 960,
          "midi": 71,
          "name": "B4",
          "ticks": 51840,
          "time": 43.2,
          "velocity": 0.4015748031496063
        },
        {
          "duration": 0.9966666666666697,
          "durationTicks": 1196,
          "midi": 83,
          "name": "B5",
          "ticks": 52800,
          "time": 44,
          "velocity": 0.4015748031496063
        },
        {
          "duration": 0.06666666666666998,
          "durationTicks": 80,
          "midi": 81,
          "name": "A5",
          "ticks": 54000,
          "time": 45,
          "velocity": 0.4015748031496063
        },
        {
          "duration": 0.06666666666666998,
          "durationTicks": 80,
          "midi": 79,
          "name": "G5",
          "ticks": 54240,
          "time": 45.2,
          "velocity": 0.4015748031496063
        },
        {
          "duration": 0.06666666666666288,
          "durationTicks": 80,
          "midi": 77,
          "name": "F5",
          "ticks": 54480,
          "time": 45.400000000000006,
          "velocity": 0.4015748031496063
        },
        {
          "duration": 0.06666666666666998,
          "durationTicks": 80,
          "midi": 76,
          "name": "E5",
          "ticks": 54720,
          "time": 45.6,
          "velocity": 0.4015748031496063
        },
        {
          "duration": 0.06666666666666998,
          "durationTicks": 80,
          "midi": 74,
          "name": "D5",
          "ticks": 54960,
          "time": 45.800000000000004,
          "velocity": 0.4015748031496063
        },
        {
          "duration": 0.06666666666666998,
          "durationTicks": 80,
          "midi": 72,
          "name": "C5",
          "ticks": 55200,
          "time": 46,
          "velocity": 0.4015748031496063
        },
        {
          "duration": 0.06666666666666998,
          "durationTicks": 80,
          "midi": 71,
          "name": "B4",
          "ticks": 55440,
          "time": 46.2,
          "velocity": 0.4015748031496063
        },
        {
          "duration": 0.7999999999999972,
          "durationTicks": 960,
          "midi": 79,
          "name": "G5",
          "ticks": 55680,
          "time": 46.400000000000006,
          "velocity": 0.4015748031496063
        },
        {
          "duration": 0.7000000000000028,
          "durationTicks": 840,
          "midi": 77,
          "name": "F5",
          "ticks": 56640,
          "time": 47.2,
          "velocity": 0.4015748031496063
        },
        {
          "duration": 0.10000000000000142,
          "durationTicks": 120,
          "midi": 76,
          "name": "E5",
          "ticks": 57600,
          "time": 48,
          "velocity": 0.4015748031496063
        },
        {
          "duration": 0.09999999999999432,
          "durationTicks": 120,
          "midi": 76,
          "name": "E5",
          "ticks": 58080,
          "time": 48.400000000000006,
          "velocity": 0.4015748031496063
        },
        {
          "duration": 0.10000000000000142,
          "durationTicks": 120,
          "midi": 76,
          "name": "E5",
          "ticks": 58560,
          "time": 48.800000000000004,
          "velocity": 0.4015748031496063
        },
        {
          "duration": 0.10000000000000142,
          "durationTicks": 120,
          "midi": 75,
          "name": "D#5",
          "ticks": 59520,
          "time": 49.6,
          "velocity": 0.4015748031496063
        },
        {
          "duration": 0.10000000000000142,
          "durationTicks": 120,
          "midi": 75,
          "name": "D#5",
          "ticks": 60000,
          "time": 50,
          "velocity": 0.4015748031496063
        },
        {
          "duration": 0.09999999999999432,
          "durationTicks": 120,
          "midi": 74,
          "name": "D5",
          "ticks": 60480,
          "time": 50.400000000000006,
          "velocity": 0.4015748031496063
        },
        {
          "duration": 0.10000000000000142,
          "durationTicks": 120,
          "midi": 74,
          "name": "D5",
          "ticks": 61440,
          "time": 51.2,
          "velocity": 0.4015748031496063
        },
        {
          "duration": 0.10000000000000142,
          "durationTicks": 120,
          "midi": 74,
          "name": "D5",
          "ticks": 61920,
          "time": 51.6,
          "velocity": 0.4015748031496063
        },
        {
          "duration": 0.10000000000000142,
          "durationTicks": 120,
          "midi": 74,
          "name": "D5",
          "ticks": 62400,
          "time": 52,
          "velocity": 0.4015748031496063
        },
        {
          "duration": 0.10000000000000142,
          "durationTicks": 120,
          "midi": 73,
          "name": "C#5",
          "ticks": 63360,
          "time": 52.800000000000004,
          "velocity": 0.4015748031496063
        },
        {
          "duration": 0.10000000000000142,
          "durationTicks": 120,
          "midi": 73,
          "name": "C#5",
          "ticks": 63840,
          "time": 53.2,
          "velocity": 0.4015748031496063
        },
        {
          "duration": 0.10000000000000142,
          "durationTicks": 120,
          "midi": 72,
          "name": "C5",
          "ticks": 64320,
          "time": 53.6,
          "velocity": 0.4015748031496063
        },
        {
          "duration": 0.3999999999999986,
          "durationTicks": 480,
          "midi": 67,
          "name": "G4",
          "ticks": 69120,
          "time": 57.6,
          "velocity": 0.8267716535433071
        },
        {
          "duration": 0.7000000000000028,
          "durationTicks": 840,
          "midi": 71,
          "name": "B4",
          "ticks": 69120,
          "time": 57.6,
          "velocity": 0.8267716535433071
        },
        {
          "duration": 0.4000000000000057,
          "durationTicks": 480,
          "midi": 71,
          "name": "B4",
          "ticks": 69600,
          "time": 58,
          "velocity": 0.8267716535433071
        },
        {
          "duration": 0.3999999999999986,
          "durationTicks": 480,
          "midi": 74,
          "name": "D5",
          "ticks": 70080,
          "time": 58.400000000000006,
          "velocity": 0.8267716535433071
        },
        {
          "duration": 0.9966666666666697,
          "durationTicks": 1196,
          "midi": 83,
          "name": "B5",
          "ticks": 70080,
          "time": 58.400000000000006,
          "velocity": 0.8267716535433071
        },
        {
          "duration": 0.3333333333333357,
          "durationTicks": 400,
          "midi": 71,
          "name": "B4",
          "ticks": 70560,
          "time": 58.800000000000004,
          "velocity": 0.8267716535433071
        },
        {
          "duration": 0.3333333333333357,
          "durationTicks": 400,
          "midi": 67,
          "name": "G4",
          "ticks": 71040,
          "time": 59.2,
          "velocity": 0.8267716535433071
        },
        {
          "duration": 0.06666666666666288,
          "durationTicks": 80,
          "midi": 86,
          "name": "D6",
          "ticks": 71280,
          "time": 59.400000000000006,
          "velocity": 0.8267716535433071
        },
        {
          "duration": 0.06666666666666288,
          "durationTicks": 80,
          "midi": 84,
          "name": "C6",
          "ticks": 71520,
          "time": 59.6,
          "velocity": 0.8267716535433071
        },
        {
          "duration": 0.06666666666666288,
          "durationTicks": 80,
          "midi": 83,
          "name": "B5",
          "ticks": 71760,
          "time": 59.800000000000004,
          "velocity": 0.8267716535433071
        },
        {
          "duration": 0.06666666666666288,
          "durationTicks": 80,
          "midi": 81,
          "name": "A5",
          "ticks": 72000,
          "time": 60,
          "velocity": 0.8267716535433071
        },
        {
          "duration": 0.06666666666666288,
          "durationTicks": 80,
          "midi": 79,
          "name": "G5",
          "ticks": 72240,
          "time": 60.2,
          "velocity": 0.8267716535433071
        },
        {
          "duration": 0.06666666666666288,
          "durationTicks": 80,
          "midi": 78,
          "name": "F#5",
          "ticks": 72480,
          "time": 60.400000000000006,
          "velocity": 0.8267716535433071
        },
        {
          "duration": 0.06666666666666288,
          "durationTicks": 80,
          "midi": 79,
          "name": "G5",
          "ticks": 72720,
          "time": 60.6,
          "velocity": 0.8267716535433071
        },
        {
          "duration": 12.300000000000004,
          "durationTicks": 14760,
          "midi": 79,
          "name": "G5",
          "ticks": 72960,
          "time": 60.800000000000004,
          "velocity": 0.8267716535433071
        },
        {
          "duration": 0.3333333333333428,
          "durationTicks": 400,
          "midi": 74,
          "name": "D5",
          "ticks": 87840,
          "time": 73.2,
          "velocity": 0.8267716535433071
        },
        {
          "duration": 0.3333333333333428,
          "durationTicks": 400,
          "midi": 83,
          "name": "B5",
          "ticks": 87840,
          "time": 73.2,
          "velocity": 0.8267716535433071
        },
        {
          "duration": 0.3333333333333286,
          "durationTicks": 400,
          "midi": 76,
          "name": "E5",
          "ticks": 88320,
          "time": 73.60000000000001,
          "velocity": 0.8267716535433071
        },
        {
          "duration": 0.3333333333333286,
          "durationTicks": 400,
          "midi": 81,
          "name": "A5",
          "ticks": 88320,
          "time": 73.60000000000001,
          "velocity": 0.8267716535433071
        },
        {
          "duration": 0.3333333333333428,
          "durationTicks": 400,
          "midi": 77,
          "name": "F5",
          "ticks": 88800,
          "time": 74,
          "velocity": 0.8267716535433071
        },
        {
          "duration": 0.3333333333333428,
          "durationTicks": 400,
          "midi": 80,
          "name": "G#5",
          "ticks": 88800,
          "time": 74,
          "velocity": 0.8267716535433071
        },
        {
          "duration": 0.3333333333333286,
          "durationTicks": 400,
          "midi": 76,
          "name": "E5",
          "ticks": 89280,
          "time": 74.4,
          "velocity": 0.8267716535433071
        },
        {
          "duration": 0.3333333333333286,
          "durationTicks": 400,
          "midi": 81,
          "name": "A5",
          "ticks": 89280,
          "time": 74.4,
          "velocity": 0.8267716535433071
        },
        {
          "duration": 0.3333333333333428,
          "durationTicks": 400,
          "midi": 77,
          "name": "F5",
          "ticks": 89760,
          "time": 74.8,
          "velocity": 0.8267716535433071
        },
        {
          "duration": 0.3333333333333428,
          "durationTicks": 400,
          "midi": 80,
          "name": "G#5",
          "ticks": 89760,
          "time": 74.8,
          "velocity": 0.8267716535433071
        },
        {
          "duration": 1.5,
          "durationTicks": 1800,
          "midi": 76,
          "name": "E5",
          "ticks": 90240,
          "time": 75.2,
          "velocity": 0.8267716535433071
        },
        {
          "duration": 0.3333333333333428,
          "durationTicks": 400,
          "midi": 81,
          "name": "A5",
          "ticks": 90240,
          "time": 75.2,
          "velocity": 0.8267716535433071
        },
        {
          "duration": 0.3333333333333286,
          "durationTicks": 400,
          "midi": 84,
          "name": "C6",
          "ticks": 90720,
          "time": 75.60000000000001,
          "velocity": 0.8267716535433071
        },
        {
          "duration": 0.3333333333333428,
          "durationTicks": 400,
          "midi": 81,
          "name": "A5",
          "ticks": 91200,
          "time": 76,
          "velocity": 0.8267716535433071
        },
        {
          "duration": 0.3333333333333286,
          "durationTicks": 400,
          "midi": 79,
          "name": "G5",
          "ticks": 91680,
          "time": 76.4,
          "velocity": 0.8267716535433071
        },
        {
          "duration": 0.3333333333333286,
          "durationTicks": 400,
          "midi": 74,
          "name": "D5",
          "ticks": 92160,
          "time": 76.80000000000001,
          "velocity": 0.8267716535433071
        },
        {
          "duration": 0.3333333333333286,
          "durationTicks": 400,
          "midi": 78,
          "name": "F#5",
          "ticks": 92160,
          "time": 76.80000000000001,
          "velocity": 0.8267716535433071
        },
        {
          "duration": 0.29666666666666686,
          "durationTicks": 356,
          "midi": 78,
          "name": "F#5",
          "ticks": 92640,
          "time": 77.2,
          "velocity": 0.8267716535433071
        },
        {
          "duration": 0.29666666666666686,
          "durationTicks": 356,
          "midi": 81,
          "name": "A5",
          "ticks": 92640,
          "time": 77.2,
          "velocity": 0.8267716535433071
        },
        {
          "duration": 0.09666666666667822,
          "durationTicks": 116,
          "midi": 78,
          "name": "F#5",
          "ticks": 93000,
          "time": 77.5,
          "velocity": 0.8267716535433071
        },
        {
          "duration": 0.09666666666667822,
          "durationTicks": 116,
          "midi": 81,
          "name": "A5",
          "ticks": 93000,
          "time": 77.5,
          "velocity": 0.8267716535433071
        },
        {
          "duration": 0.3333333333333286,
          "durationTicks": 400,
          "midi": 78,
          "name": "F#5",
          "ticks": 93120,
          "time": 77.60000000000001,
          "velocity": 0.8267716535433071
        },
        {
          "duration": 0.3333333333333286,
          "durationTicks": 400,
          "midi": 81,
          "name": "A5",
          "ticks": 93120,
          "time": 77.60000000000001,
          "velocity": 0.8267716535433071
        },
        {
          "duration": 0.3333333333333428,
          "durationTicks": 400,
          "midi": 78,
          "name": "F#5",
          "ticks": 93600,
          "time": 78,
          "velocity": 0.8267716535433071
        },
        {
          "duration": 0.3333333333333428,
          "durationTicks": 400,
          "midi": 81,
          "name": "A5",
          "ticks": 93600,
          "time": 78,
          "velocity": 0.8267716535433071
        },
        {
          "duration": 0.3333333333333428,
          "durationTicks": 400,
          "midi": 79,
          "name": "G5",
          "ticks": 94080,
          "time": 78.4,
          "velocity": 0.8267716535433071
        },
        {
          "duration": 0.3333333333333428,
          "durationTicks": 400,
          "midi": 83,
          "name": "B5",
          "ticks": 94080,
          "time": 78.4,
          "velocity": 0.8267716535433071
        },
        {
          "duration": 0.29666666666666686,
          "durationTicks": 356,
          "midi": 79,
          "name": "G5",
          "ticks": 94560,
          "time": 78.80000000000001,
          "velocity": 0.8267716535433071
        },
        {
          "duration": 0.29666666666666686,
          "durationTicks": 356,
          "midi": 83,
          "name": "B5",
          "ticks": 94560,
          "time": 78.80000000000001,
          "velocity": 0.8267716535433071
        },
        {
          "duration": 0.09666666666666401,
          "durationTicks": 116,
          "midi": 79,
          "name": "G5",
          "ticks": 94920,
          "time": 79.10000000000001,
          "velocity": 0.8267716535433071
        },
        {
          "duration": 0.09666666666666401,
          "durationTicks": 116,
          "midi": 83,
          "name": "B5",
          "ticks": 94920,
          "time": 79.10000000000001,
          "velocity": 0.8267716535433071
        },
        {
          "duration": 0.3333333333333428,
          "durationTicks": 400,
          "midi": 79,
          "name": "G5",
          "ticks": 95040,
          "time": 79.2,
          "velocity": 0.8267716535433071
        },
        {
          "duration": 0.3333333333333428,
          "durationTicks": 400,
          "midi": 83,
          "name": "B5",
          "ticks": 95040,
          "time": 79.2,
          "velocity": 0.8267716535433071
        },
        {
          "duration": 0.3333333333333286,
          "durationTicks": 400,
          "midi": 79,
          "name": "G5",
          "ticks": 95520,
          "time": 79.60000000000001,
          "velocity": 0.8267716535433071
        },
        {
          "duration": 0.3333333333333286,
          "durationTicks": 400,
          "midi": 83,
          "name": "B5",
          "ticks": 95520,
          "time": 79.60000000000001,
          "velocity": 0.8267716535433071
        },
        {
          "duration": 0.3333333333333428,
          "durationTicks": 400,
          "midi": 78,
          "name": "F#5",
          "ticks": 96000,
          "time": 80,
          "velocity": 0.8267716535433071
        },
        {
          "duration": 0.3333333333333428,
          "durationTicks": 400,
          "midi": 81,
          "name": "A5",
          "ticks": 96000,
          "time": 80,
          "velocity": 0.8267716535433071
        },
        {
          "duration": 0.29666666666666686,
          "durationTicks": 356,
          "midi": 78,
          "name": "F#5",
          "ticks": 96480,
          "time": 80.4,
          "velocity": 0.8267716535433071
        },
        {
          "duration": 0.29666666666666686,
          "durationTicks": 356,
          "midi": 81,
          "name": "A5",
          "ticks": 96480,
          "time": 80.4,
          "velocity": 0.8267716535433071
        },
        {
          "duration": 0.09666666666667822,
          "durationTicks": 116,
          "midi": 78,
          "name": "F#5",
          "ticks": 96840,
          "time": 80.7,
          "velocity": 0.8267716535433071
        },
        {
          "duration": 0.09666666666667822,
          "durationTicks": 116,
          "midi": 81,
          "name": "A5",
          "ticks": 96840,
          "time": 80.7,
          "velocity": 0.8267716535433071
        },
        {
          "duration": 0.3333333333333286,
          "durationTicks": 400,
          "midi": 78,
          "name": "F#5",
          "ticks": 96960,
          "time": 80.80000000000001,
          "velocity": 0.8267716535433071
        },
        {
          "duration": 0.3333333333333286,
          "durationTicks": 400,
          "midi": 81,
          "name": "A5",
          "ticks": 96960,
          "time": 80.80000000000001,
          "velocity": 0.8267716535433071
        },
        {
          "duration": 0.3333333333333428,
          "durationTicks": 400,
          "midi": 78,
          "name": "F#5",
          "ticks": 97440,
          "time": 81.2,
          "velocity": 0.8267716535433071
        },
        {
          "duration": 0.3333333333333428,
          "durationTicks": 400,
          "midi": 81,
          "name": "A5",
          "ticks": 97440,
          "time": 81.2,
          "velocity": 0.8267716535433071
        },
        {
          "duration": 0.3333333333333286,
          "durationTicks": 400,
          "midi": 79,
          "name": "G5",
          "ticks": 97920,
          "time": 81.60000000000001,
          "velocity": 0.8267716535433071
        },
        {
          "duration": 0.3333333333333286,
          "durationTicks": 400,
          "midi": 83,
          "name": "B5",
          "ticks": 97920,
          "time": 81.60000000000001,
          "velocity": 0.8267716535433071
        },
        {
          "duration": 0.29666666666668107,
          "durationTicks": 356,
          "midi": 79,
          "name": "G5",
          "ticks": 98400,
          "time": 82,
          "velocity": 0.8267716535433071
        },
        {
          "duration": 0.29666666666668107,
          "durationTicks": 356,
          "midi": 83,
          "name": "B5",
          "ticks": 98400,
          "time": 82,
          "velocity": 0.8267716535433071
        },
        {
          "duration": 0.09666666666666401,
          "durationTicks": 116,
          "midi": 79,
          "name": "G5",
          "ticks": 98760,
          "time": 82.30000000000001,
          "velocity": 0.8267716535433071
        },
        {
          "duration": 0.09666666666666401,
          "durationTicks": 116,
          "midi": 83,
          "name": "B5",
          "ticks": 98760,
          "time": 82.30000000000001,
          "velocity": 0.8267716535433071
        },
        {
          "duration": 0.3333333333333428,
          "durationTicks": 400,
          "midi": 79,
          "name": "G5",
          "ticks": 98880,
          "time": 82.4,
          "velocity": 0.8267716535433071
        },
        {
          "duration": 0.3333333333333428,
          "durationTicks": 400,
          "midi": 83,
          "name": "B5",
          "ticks": 98880,
          "time": 82.4,
          "velocity": 0.8267716535433071
        },
        {
          "duration": 0.3333333333333286,
          "durationTicks": 400,
          "midi": 79,
          "name": "G5",
          "ticks": 99360,
          "time": 82.80000000000001,
          "velocity": 0.8267716535433071
        },
        {
          "duration": 0.3333333333333286,
          "durationTicks": 400,
          "midi": 83,
          "name": "B5",
          "ticks": 99360,
          "time": 82.80000000000001,
          "velocity": 0.8267716535433071
        },
        {
          "duration": 0.3333333333333428,
          "durationTicks": 400,
          "midi": 78,
          "name": "F#5",
          "ticks": 99840,
          "time": 83.2,
          "velocity": 0.8267716535433071
        },
        {
          "duration": 0.3333333333333428,
          "durationTicks": 400,
          "midi": 81,
          "name": "A5",
          "ticks": 99840,
          "time": 83.2,
          "velocity": 0.8267716535433071
        },
        {
          "duration": 0.3333333333333286,
          "durationTicks": 400,
          "midi": 78,
          "name": "F#5",
          "ticks": 100320,
          "time": 83.60000000000001,
          "velocity": 0.8267716535433071
        },
        {
          "duration": 0.3333333333333286,
          "durationTicks": 400,
          "midi": 81,
          "name": "A5",
          "ticks": 100320,
          "time": 83.60000000000001,
          "velocity": 0.8267716535433071
        },
        {
          "duration": 0.3333333333333428,
          "durationTicks": 400,
          "midi": 79,
          "name": "G5",
          "ticks": 101280,
          "time": 84.4,
          "velocity": 0.8267716535433071
        },
        {
          "duration": 0.3333333333333428,
          "durationTicks": 400,
          "midi": 83,
          "name": "B5",
          "ticks": 101280,
          "time": 84.4,
          "velocity": 0.8267716535433071
        },
        {
          "duration": 0.3333333333333428,
          "durationTicks": 400,
          "midi": 78,
          "name": "F#5",
          "ticks": 102240,
          "time": 85.2,
          "velocity": 0.8267716535433071
        },
        {
          "duration": 0.3333333333333428,
          "durationTicks": 400,
          "midi": 81,
          "name": "A5",
          "ticks": 102240,
          "time": 85.2,
          "velocity": 0.8267716535433071
        },
        {
          "duration": 0.3333333333333428,
          "durationTicks": 400,
          "midi": 79,
          "name": "G5",
          "ticks": 103200,
          "time": 86,
          "velocity": 0.8267716535433071
        },
        {
          "duration": 0.3333333333333428,
          "durationTicks": 400,
          "midi": 83,
          "name": "B5",
          "ticks": 103200,
          "time": 86,
          "velocity": 0.8267716535433071
        },
        {
          "duration": 0.3333333333333428,
          "durationTicks": 400,
          "midi": 78,
          "name": "F#5",
          "ticks": 103680,
          "time": 86.4,
          "velocity": 0.8267716535433071
        },
        {
          "duration": 0.3333333333333428,
          "durationTicks": 400,
          "midi": 81,
          "name": "A5",
          "ticks": 103680,
          "time": 86.4,
          "velocity": 0.8267716535433071
        },
        {
          "duration": 3.0999999999999943,
          "durationTicks": 3720,
          "midi": 75,
          "name": "D#5",
          "ticks": 153600,
          "time": 128,
          "velocity": 0.8267716535433071
        },
        {
          "duration": 3.9000000000000057,
          "durationTicks": 4680,
          "midi": 79,
          "name": "G5",
          "ticks": 153600,
          "time": 128,
          "velocity": 0.8267716535433071
        },
        {
          "duration": 0.6999999999999886,
          "durationTicks": 840,
          "midi": 76,
          "name": "E5",
          "ticks": 157440,
          "time": 131.20000000000002,
          "velocity": 0.8267716535433071
        },
        {
          "duration": 0.700000000000017,
          "durationTicks": 840,
          "midi": 80,
          "name": "G#5",
          "ticks": 158400,
          "time": 132,
          "velocity": 0.8267716535433071
        },
        {
          "duration": 1.5,
          "durationTicks": 1800,
          "midi": 77,
          "name": "F5",
          "ticks": 159360,
          "time": 132.8,
          "velocity": 0.8267716535433071
        },
        {
          "duration": 0.799999999999983,
          "durationTicks": 960,
          "midi": 81,
          "name": "A5",
          "ticks": 159360,
          "time": 132.8,
          "velocity": 0.8267716535433071
        },
        {
          "duration": 0.700000000000017,
          "durationTicks": 840,
          "midi": 83,
          "name": "B5",
          "ticks": 160320,
          "time": 133.6,
          "velocity": 0.8267716535433071
        },
        {
          "duration": 3.0999999999999943,
          "durationTicks": 3720,
          "midi": 76,
          "name": "E5",
          "ticks": 161280,
          "time": 134.4,
          "velocity": 0.8267716535433071
        },
        {
          "duration": 3.0999999999999943,
          "durationTicks": 3720,
          "midi": 84,
          "name": "C6",
          "ticks": 161280,
          "time": 134.4,
          "velocity": 0.8267716535433071
        },
        {
          "duration": 0.3333333333333428,
          "durationTicks": 400,
          "midi": 74,
          "name": "D5",
          "ticks": 165120,
          "time": 137.6,
          "velocity": 0.8267716535433071
        },
        {
          "duration": 0.3333333333333428,
          "durationTicks": 400,
          "midi": 83,
          "name": "B5",
          "ticks": 165120,
          "time": 137.6,
          "velocity": 0.8267716535433071
        },
        {
          "duration": 0.3333333333333428,
          "durationTicks": 400,
          "midi": 62,
          "name": "D4",
          "ticks": 165600,
          "time": 138,
          "velocity": 0.8267716535433071
        },
        {
          "duration": 0.3333333333333428,
          "durationTicks": 400,
          "midi": 74,
          "name": "D5",
          "ticks": 165600,
          "time": 138,
          "velocity": 0.8267716535433071
        },
        {
          "duration": 0.3333333333333144,
          "durationTicks": 400,
          "midi": 67,
          "name": "G4",
          "ticks": 166080,
          "time": 138.4,
          "velocity": 0.8267716535433071
        },
        {
          "duration": 0.3333333333333144,
          "durationTicks": 400,
          "midi": 79,
          "name": "G5",
          "ticks": 166080,
          "time": 138.4,
          "velocity": 0.8267716535433071
        },
        {
          "duration": 0.3333333333333144,
          "durationTicks": 400,
          "midi": 71,
          "name": "B4",
          "ticks": 166560,
          "time": 138.8,
          "velocity": 0.8267716535433071
        },
        {
          "duration": 0.3333333333333144,
          "durationTicks": 400,
          "midi": 83,
          "name": "B5",
          "ticks": 166560,
          "time": 138.8,
          "velocity": 0.8267716535433071
        },
        {
          "duration": 1.0999999999999943,
          "durationTicks": 1320,
          "midi": 74,
          "name": "D5",
          "ticks": 167040,
          "time": 139.20000000000002,
          "velocity": 0.8267716535433071
        },
        {
          "duration": 1.0999999999999943,
          "durationTicks": 1320,
          "midi": 86,
          "name": "D6",
          "ticks": 167040,
          "time": 139.20000000000002,
          "velocity": 0.8267716535433071
        },
        {
          "duration": 0.3333333333333144,
          "durationTicks": 400,
          "midi": 78,
          "name": "F#5",
          "ticks": 168480,
          "time": 140.4,
          "velocity": 0.8267716535433071
        },
        {
          "duration": 4.699999999999989,
          "durationTicks": 5640,
          "midi": 79,
          "name": "G5",
          "ticks": 168960,
          "time": 140.8,
          "velocity": 0.8267716535433071
        },
        {
          "duration": 0.700000000000017,
          "durationTicks": 840,
          "midi": 79,
          "name": "G5",
          "ticks": 174720,
          "time": 145.6,
          "velocity": 0.6771653543307087
        },
        {
          "duration": 0.6999999999999886,
          "durationTicks": 840,
          "midi": 79,
          "name": "G5",
          "ticks": 175680,
          "time": 146.4,
          "velocity": 0.6771653543307087
        },
        {
          "duration": 0.39999999999997726,
          "durationTicks": 480,
          "midi": 81,
          "name": "A5",
          "ticks": 176640,
          "time": 147.20000000000002,
          "velocity": 0.6771653543307087
        },
        {
          "duration": 0.39999999999997726,
          "durationTicks": 480,
          "midi": 84,
          "name": "C6",
          "ticks": 176640,
          "time": 147.20000000000002,
          "velocity": 0.6771653543307087
        },
        {
          "duration": 0.4000000000000057,
          "durationTicks": 480,
          "midi": 76,
          "name": "E5",
          "ticks": 177120,
          "time": 147.6,
          "velocity": 0.6771653543307087
        },
        {
          "duration": 0.700000000000017,
          "durationTicks": 840,
          "midi": 81,
          "name": "A5",
          "ticks": 177120,
          "time": 147.6,
          "velocity": 0.6771653543307087
        },
        {
          "duration": 0.4000000000000057,
          "durationTicks": 480,
          "midi": 78,
          "name": "F#5",
          "ticks": 177600,
          "time": 148,
          "velocity": 0.6771653543307087
        },
        {
          "duration": 0.3333333333333144,
          "durationTicks": 400,
          "midi": 72,
          "name": "C5",
          "ticks": 178080,
          "time": 148.4,
          "velocity": 0.6771653543307087
        },
        {
          "duration": 0.3333333333333144,
          "durationTicks": 400,
          "midi": 78,
          "name": "F#5",
          "ticks": 178080,
          "time": 148.4,
          "velocity": 0.6771653543307087
        },
        {
          "duration": 0.5999999999999943,
          "durationTicks": 720,
          "midi": 71,
          "name": "B4",
          "ticks": 178560,
          "time": 148.8,
          "velocity": 0.6771653543307087
        },
        {
          "duration": 4.699999999999989,
          "durationTicks": 5640,
          "midi": 79,
          "name": "G5",
          "ticks": 178560,
          "time": 148.8,
          "velocity": 0.6771653543307087
        },
        {
          "duration": 0.19666666666665833,
          "durationTicks": 236,
          "midi": 69,
          "name": "A4",
          "ticks": 179280,
          "time": 149.4,
          "velocity": 0.6771653543307087
        },
        {
          "duration": 0.30000000000001137,
          "durationTicks": 360,
          "midi": 72,
          "name": "C5",
          "ticks": 179520,
          "time": 149.6,
          "velocity": 0.6771653543307087
        },
        {
          "duration": 0.09666666666666401,
          "durationTicks": 116,
          "midi": 71,
          "name": "B4",
          "ticks": 179880,
          "time": 149.9,
          "velocity": 0.6771653543307087
        },
        {
          "duration": 0.30000000000001137,
          "durationTicks": 360,
          "midi": 76,
          "name": "E5",
          "ticks": 180000,
          "time": 150,
          "velocity": 0.6771653543307087
        },
        {
          "duration": 0.09666666666666401,
          "durationTicks": 116,
          "midi": 74,
          "name": "D5",
          "ticks": 180360,
          "time": 150.3,
          "velocity": 0.6771653543307087
        },
        {
          "duration": 0.5999999999999943,
          "durationTicks": 720,
          "midi": 72,
          "name": "C5",
          "ticks": 180480,
          "time": 150.4,
          "velocity": 0.6771653543307087
        },
        {
          "duration": 0.19666666666668675,
          "durationTicks": 236,
          "midi": 71,
          "name": "B4",
          "ticks": 181200,
          "time": 151,
          "velocity": 0.6771653543307087
        },
        {
          "duration": 0.29999999999998295,
          "durationTicks": 360,
          "midi": 74,
          "name": "D5",
          "ticks": 181440,
          "time": 151.20000000000002,
          "velocity": 0.6771653543307087
        },
        {
          "duration": 0.09666666666666401,
          "durationTicks": 116,
          "midi": 72,
          "name": "C5",
          "ticks": 181800,
          "time": 151.5,
          "velocity": 0.6771653543307087
        },
        {
          "duration": 0.30000000000001137,
          "durationTicks": 360,
          "midi": 77,
          "name": "F5",
          "ticks": 181920,
          "time": 151.6,
          "velocity": 0.6771653543307087
        },
        {
          "duration": 0.09666666666666401,
          "durationTicks": 116,
          "midi": 76,
          "name": "E5",
          "ticks": 182280,
          "time": 151.9,
          "velocity": 0.6771653543307087
        },
        {
          "duration": 0.5999999999999943,
          "durationTicks": 720,
          "midi": 74,
          "name": "D5",
          "ticks": 182400,
          "time": 152,
          "velocity": 0.6771653543307087
        },
        {
          "duration": 0.19666666666668675,
          "durationTicks": 236,
          "midi": 73,
          "name": "C#5",
          "ticks": 183120,
          "time": 152.6,
          "velocity": 0.6771653543307087
        },
        {
          "duration": 0.29999999999998295,
          "durationTicks": 360,
          "midi": 76,
          "name": "E5",
          "ticks": 183360,
          "time": 152.8,
          "velocity": 0.6771653543307087
        },
        {
          "duration": 0.09666666666669244,
          "durationTicks": 116,
          "midi": 74,
          "name": "D5",
          "ticks": 183720,
          "time": 153.1,
          "velocity": 0.6771653543307087
        },
        {
          "duration": 0.29999999999998295,
          "durationTicks": 360,
          "midi": 79,
          "name": "G5",
          "ticks": 183840,
          "time": 153.20000000000002,
          "velocity": 0.6771653543307087
        },
        {
          "duration": 0.09666666666666401,
          "durationTicks": 116,
          "midi": 77,
          "name": "F5",
          "ticks": 184200,
          "time": 153.5,
          "velocity": 0.6771653543307087
        },
        {
          "duration": 0.39999999999997726,
          "durationTicks": 480,
          "midi": 76,
          "name": "E5",
          "ticks": 184320,
          "time": 153.60000000000002,
          "velocity": 0.6771653543307087
        },
        {
          "duration": 0.39999999999997726,
          "durationTicks": 480,
          "midi": 79,
          "name": "G5",
          "ticks": 184320,
          "time": 153.60000000000002,
          "velocity": 0.6771653543307087
        },
        {
          "duration": 0.3333333333333428,
          "durationTicks": 400,
          "midi": 77,
          "name": "F5",
          "ticks": 184800,
          "time": 154,
          "velocity": 0.6771653543307087
        },
        {
          "duration": 0.3333333333333428,
          "durationTicks": 400,
          "midi": 80,
          "name": "G#5",
          "ticks": 184800,
          "time": 154,
          "velocity": 0.6771653543307087
        },
        {
          "duration": 1.1333333333333258,
          "durationTicks": 1360,
          "midi": 76,
          "name": "E5",
          "ticks": 185280,
          "time": 154.4,
          "velocity": 0.6771653543307087
        },
        {
          "duration": 0.4000000000000057,
          "durationTicks": 480,
          "midi": 81,
          "name": "A5",
          "ticks": 185280,
          "time": 154.4,
          "velocity": 0.6771653543307087
        },
        {
          "duration": 0.4000000000000057,
          "durationTicks": 480,
          "midi": 83,
          "name": "B5",
          "ticks": 185760,
          "time": 154.8,
          "velocity": 0.6771653543307087
        },
        {
          "duration": 0.3333333333333144,
          "durationTicks": 400,
          "midi": 84,
          "name": "C6",
          "ticks": 186240,
          "time": 155.20000000000002,
          "velocity": 0.6771653543307087
        },
        {
          "duration": 0.6999999999999886,
          "durationTicks": 840,
          "midi": 72,
          "name": "C5",
          "ticks": 186720,
          "time": 155.60000000000002,
          "velocity": 0.6771653543307087
        },
        {
          "duration": 0.39999999999997726,
          "durationTicks": 480,
          "midi": 75,
          "name": "D#5",
          "ticks": 186720,
          "time": 155.60000000000002,
          "velocity": 0.6771653543307087
        },
        {
          "duration": 0.4000000000000057,
          "durationTicks": 480,
          "midi": 74,
          "name": "D5",
          "ticks": 187200,
          "time": 156,
          "velocity": 0.6771653543307087
        },
        {
          "duration": 0.4000000000000057,
          "durationTicks": 480,
          "midi": 72,
          "name": "C5",
          "ticks": 187680,
          "time": 156.4,
          "velocity": 0.6771653543307087
        },
        {
          "duration": 0.4000000000000057,
          "durationTicks": 480,
          "midi": 75,
          "name": "D#5",
          "ticks": 187680,
          "time": 156.4,
          "velocity": 0.6771653543307087
        },
        {
          "duration": 0.3333333333333144,
          "durationTicks": 400,
          "midi": 72,
          "name": "C5",
          "ticks": 188160,
          "time": 156.8,
          "velocity": 0.6771653543307087
        },
        {
          "duration": 0.3333333333333144,
          "durationTicks": 400,
          "midi": 74,
          "name": "D5",
          "ticks": 188160,
          "time": 156.8,
          "velocity": 0.6771653543307087
        },
        {
          "duration": 6.73333333333332,
          "durationTicks": 8080,
          "midi": 74,
          "name": "D5",
          "ticks": 195840,
          "time": 163.20000000000002,
          "velocity": 0.4015748031496063
        },
        {
          "duration": 0.19666666666668675,
          "durationTicks": 236,
          "midi": 72,
          "name": "C5",
          "ticks": 206400,
          "time": 172,
          "velocity": 0.4015748031496063
        },
        {
          "duration": 0.19666666666668675,
          "durationTicks": 236,
          "midi": 78,
          "name": "F#5",
          "ticks": 206400,
          "time": 172,
          "velocity": 0.4015748031496063
        },
        {
          "duration": 0.19666666666668675,
          "durationTicks": 236,
          "midi": 72,
          "name": "C5",
          "ticks": 206880,
          "time": 172.4,
          "velocity": 0.4015748031496063
        },
        {
          "duration": 0.19666666666668675,
          "durationTicks": 236,
          "midi": 78,
          "name": "F#5",
          "ticks": 206880,
          "time": 172.4,
          "velocity": 0.4015748031496063
        },
        {
          "duration": 0.3333333333333144,
          "durationTicks": 400,
          "midi": 71,
          "name": "B4",
          "ticks": 207360,
          "time": 172.8,
          "velocity": 0.4015748031496063
        },
        {
          "duration": 0.3333333333333144,
          "durationTicks": 400,
          "midi": 79,
          "name": "G5",
          "ticks": 207360,
          "time": 172.8,
          "velocity": 0.4015748031496063
        },
        {
          "duration": 0.19666666666665833,
          "durationTicks": 236,
          "midi": 72,
          "name": "C5",
          "ticks": 210240,
          "time": 175.20000000000002,
          "velocity": 0.4015748031496063
        },
        {
          "duration": 0.19666666666665833,
          "durationTicks": 236,
          "midi": 78,
          "name": "F#5",
          "ticks": 210240,
          "time": 175.20000000000002,
          "velocity": 0.4015748031496063
        },
        {
          "duration": 0.19666666666665833,
          "durationTicks": 236,
          "midi": 72,
          "name": "C5",
          "ticks": 210720,
          "time": 175.60000000000002,
          "velocity": 0.4015748031496063
        },
        {
          "duration": 0.19666666666665833,
          "durationTicks": 236,
          "midi": 78,
          "name": "F#5",
          "ticks": 210720,
          "time": 175.60000000000002,
          "velocity": 0.4015748031496063
        },
        {
          "duration": 0.19666666666668675,
          "durationTicks": 236,
          "midi": 71,
          "name": "B4",
          "ticks": 211200,
          "time": 176,
          "velocity": 0.4015748031496063
        },
        {
          "duration": 0.19666666666668675,
          "durationTicks": 236,
          "midi": 79,
          "name": "G5",
          "ticks": 211200,
          "time": 176,
          "velocity": 0.4015748031496063
        },
        {
          "duration": 0.20000000000001705,
          "durationTicks": 240,
          "midi": 74,
          "name": "D5",
          "ticks": 211680,
          "time": 176.4,
          "velocity": 0.8267716535433071
        },
        {
          "duration": 0.19999999999998863,
          "durationTicks": 240,
          "midi": 73,
          "name": "C#5",
          "ticks": 211920,
          "time": 176.60000000000002,
          "velocity": 0.8267716535433071
        },
        {
          "duration": 0.19999999999998863,
          "durationTicks": 240,
          "midi": 74,
          "name": "D5",
          "ticks": 212160,
          "time": 176.8,
          "velocity": 0.8267716535433071
        },
        {
          "duration": 0.20000000000001705,
          "durationTicks": 240,
          "midi": 73,
          "name": "C#5",
          "ticks": 212400,
          "time": 177,
          "velocity": 0.8267716535433071
        },
        {
          "duration": 0.19999999999998863,
          "durationTicks": 240,
          "midi": 74,
          "name": "D5",
          "ticks": 212640,
          "time": 177.20000000000002,
          "velocity": 0.8267716535433071
        },
        {
          "duration": 0.19666666666668675,
          "durationTicks": 236,
          "midi": 71,
          "name": "B4",
          "ticks": 212880,
          "time": 177.4,
          "velocity": 0.8267716535433071
        },
        {
          "duration": 0.19666666666665833,
          "durationTicks": 236,
          "midi": 72,
          "name": "C5",
          "ticks": 213120,
          "time": 177.60000000000002,
          "velocity": 0.8267716535433071
        },
        {
          "duration": 0.20000000000001705,
          "durationTicks": 240,
          "midi": 72,
          "name": "C5",
          "ticks": 213600,
          "time": 178,
          "velocity": 0.8267716535433071
        },
        {
          "duration": 0.19999999999998863,
          "durationTicks": 240,
          "midi": 71,
          "name": "B4",
          "ticks": 213840,
          "time": 178.20000000000002,
          "velocity": 0.8267716535433071
        },
        {
          "duration": 0.20000000000001705,
          "durationTicks": 240,
          "midi": 72,
          "name": "C5",
          "ticks": 214080,
          "time": 178.4,
          "velocity": 0.8267716535433071
        },
        {
          "duration": 0.19999999999998863,
          "durationTicks": 240,
          "midi": 71,
          "name": "B4",
          "ticks": 214320,
          "time": 178.60000000000002,
          "velocity": 0.8267716535433071
        },
        {
          "duration": 0.19999999999998863,
          "durationTicks": 240,
          "midi": 72,
          "name": "C5",
          "ticks": 214560,
          "time": 178.8,
          "velocity": 0.8267716535433071
        },
        {
          "duration": 0.19666666666668675,
          "durationTicks": 236,
          "midi": 69,
          "name": "A4",
          "ticks": 214800,
          "time": 179,
          "velocity": 0.8267716535433071
        },
        {
          "duration": 0.19666666666665833,
          "durationTicks": 236,
          "midi": 71,
          "name": "B4",
          "ticks": 215040,
          "time": 179.20000000000002,
          "velocity": 0.8267716535433071
        },
        {
          "duration": 0.04999999999998295,
          "durationTicks": 60,
          "midi": 72,
          "name": "C5",
          "ticks": 215520,
          "time": 179.60000000000002,
          "velocity": 0.8267716535433071
        },
        {
          "duration": 0.04999999999998295,
          "durationTicks": 60,
          "midi": 81,
          "name": "A5",
          "ticks": 215520,
          "time": 179.60000000000002,
          "velocity": 0.8267716535433071
        },
        {
          "duration": 0.05000000000001137,
          "durationTicks": 60,
          "midi": 71,
          "name": "B4",
          "ticks": 215580,
          "time": 179.65,
          "velocity": 0.8267716535433071
        },
        {
          "duration": 0.05000000000001137,
          "durationTicks": 60,
          "midi": 79,
          "name": "G5",
          "ticks": 215580,
          "time": 179.65,
          "velocity": 0.8267716535433071
        },
        {
          "duration": 0.04999999999998295,
          "durationTicks": 60,
          "midi": 72,
          "name": "C5",
          "ticks": 215640,
          "time": 179.70000000000002,
          "velocity": 0.8267716535433071
        },
        {
          "duration": 0.04999999999998295,
          "durationTicks": 60,
          "midi": 81,
          "name": "A5",
          "ticks": 215640,
          "time": 179.70000000000002,
          "velocity": 0.8267716535433071
        },
        {
          "duration": 0.05000000000001137,
          "durationTicks": 60,
          "midi": 71,
          "name": "B4",
          "ticks": 215700,
          "time": 179.75,
          "velocity": 0.8267716535433071
        },
        {
          "duration": 0.05000000000001137,
          "durationTicks": 60,
          "midi": 79,
          "name": "G5",
          "ticks": 215700,
          "time": 179.75,
          "velocity": 0.8267716535433071
        },
        {
          "duration": 0.09999999999999432,
          "durationTicks": 120,
          "midi": 69,
          "name": "A4",
          "ticks": 215760,
          "time": 179.8,
          "velocity": 0.8267716535433071
        },
        {
          "duration": 0.09999999999999432,
          "durationTicks": 120,
          "midi": 78,
          "name": "F#5",
          "ticks": 215760,
          "time": 179.8,
          "velocity": 0.8267716535433071
        },
        {
          "duration": 0.09999999999999432,
          "durationTicks": 120,
          "midi": 71,
          "name": "B4",
          "ticks": 215880,
          "time": 179.9,
          "velocity": 0.8267716535433071
        },
        {
          "duration": 0.09999999999999432,
          "durationTicks": 120,
          "midi": 79,
          "name": "G5",
          "ticks": 215880,
          "time": 179.9,
          "velocity": 0.8267716535433071
        },
        {
          "duration": 0.19666666666668675,
          "durationTicks": 236,
          "midi": 72,
          "name": "C5",
          "ticks": 216000,
          "time": 180,
          "velocity": 0.8267716535433071
        },
        {
          "duration": 0.19666666666668675,
          "durationTicks": 236,
          "midi": 81,
          "name": "A5",
          "ticks": 216000,
          "time": 180,
          "velocity": 0.8267716535433071
        },
        {
          "duration": 0.06666666666666288,
          "durationTicks": 80,
          "midi": 72,
          "name": "C5",
          "ticks": 216240,
          "time": 180.20000000000002,
          "velocity": 0.8267716535433071
        },
        {
          "duration": 0.06666666666666288,
          "durationTicks": 80,
          "midi": 81,
          "name": "A5",
          "ticks": 216240,
          "time": 180.20000000000002,
          "velocity": 0.8267716535433071
        },
        {
          "duration": 0.0666666666666913,
          "durationTicks": 80,
          "midi": 69,
          "name": "A4",
          "ticks": 216480,
          "time": 180.4,
          "velocity": 0.8267716535433071
        },
        {
          "duration": 0.0666666666666913,
          "durationTicks": 80,
          "midi": 78,
          "name": "F#5",
          "ticks": 216480,
          "time": 180.4,
          "velocity": 0.8267716535433071
        },
        {
          "duration": 0.06666666666666288,
          "durationTicks": 80,
          "midi": 69,
          "name": "A4",
          "ticks": 216720,
          "time": 180.60000000000002,
          "velocity": 0.8267716535433071
        },
        {
          "duration": 0.06666666666666288,
          "durationTicks": 80,
          "midi": 78,
          "name": "F#5",
          "ticks": 216720,
          "time": 180.60000000000002,
          "velocity": 0.8267716535433071
        },
        {
          "duration": 0.19666666666665833,
          "durationTicks": 236,
          "midi": 71,
          "name": "B4",
          "ticks": 216960,
          "time": 180.8,
          "velocity": 0.8267716535433071
        },
        {
          "duration": 0.19666666666665833,
          "durationTicks": 236,
          "midi": 79,
          "name": "G5",
          "ticks": 216960,
          "time": 180.8,
          "velocity": 0.8267716535433071
        },
        {
          "duration": 0.19999999999998863,
          "durationTicks": 240,
          "midi": 74,
          "name": "D5",
          "ticks": 217440,
          "time": 181.20000000000002,
          "velocity": 0.8267716535433071
        },
        {
          "duration": 0.20000000000001705,
          "durationTicks": 240,
          "midi": 73,
          "name": "C#5",
          "ticks": 217680,
          "time": 181.4,
          "velocity": 0.8267716535433071
        },
        {
          "duration": 0.19999999999998863,
          "durationTicks": 240,
          "midi": 74,
          "name": "D5",
          "ticks": 217920,
          "time": 181.60000000000002,
          "velocity": 0.8267716535433071
        },
        {
          "duration": 0.19999999999998863,
          "durationTicks": 240,
          "midi": 73,
          "name": "C#5",
          "ticks": 218160,
          "time": 181.8,
          "velocity": 0.8267716535433071
        },
        {
          "duration": 0.20000000000001705,
          "durationTicks": 240,
          "midi": 74,
          "name": "D5",
          "ticks": 218400,
          "time": 182,
          "velocity": 0.8267716535433071
        },
        {
          "duration": 0.19666666666665833,
          "durationTicks": 236,
          "midi": 71,
          "name": "B4",
          "ticks": 218640,
          "time": 182.20000000000002,
          "velocity": 0.8267716535433071
        },
        {
          "duration": 0.19666666666668675,
          "durationTicks": 236,
          "midi": 72,
          "name": "C5",
          "ticks": 218880,
          "time": 182.4,
          "velocity": 0.8267716535433071
        },
        {
          "duration": 0.19999999999998863,
          "durationTicks": 240,
          "midi": 72,
          "name": "C5",
          "ticks": 219360,
          "time": 182.8,
          "velocity": 0.8267716535433071
        },
        {
          "duration": 0.20000000000001705,
          "durationTicks": 240,
          "midi": 71,
          "name": "B4",
          "ticks": 219600,
          "time": 183,
          "velocity": 0.8267716535433071
        },
        {
          "duration": 0.19999999999998863,
          "durationTicks": 240,
          "midi": 72,
          "name": "C5",
          "ticks": 219840,
          "time": 183.20000000000002,
          "velocity": 0.8267716535433071
        },
        {
          "duration": 0.20000000000001705,
          "durationTicks": 240,
          "midi": 71,
          "name": "B4",
          "ticks": 220080,
          "time": 183.4,
          "velocity": 0.8267716535433071
        },
        {
          "duration": 0.19999999999998863,
          "durationTicks": 240,
          "midi": 72,
          "name": "C5",
          "ticks": 220320,
          "time": 183.60000000000002,
          "velocity": 0.8267716535433071
        },
        {
          "duration": 0.19666666666665833,
          "durationTicks": 236,
          "midi": 69,
          "name": "A4",
          "ticks": 220560,
          "time": 183.8,
          "velocity": 0.8267716535433071
        },
        {
          "duration": 0.19666666666668675,
          "durationTicks": 236,
          "midi": 71,
          "name": "B4",
          "ticks": 220800,
          "time": 184,
          "velocity": 0.8267716535433071
        },
        {
          "duration": 0.05000000000001137,
          "durationTicks": 60,
          "midi": 72,
          "name": "C5",
          "ticks": 221280,
          "time": 184.4,
          "velocity": 0.8267716535433071
        },
        {
          "duration": 0.05000000000001137,
          "durationTicks": 60,
          "midi": 81,
          "name": "A5",
          "ticks": 221280,
          "time": 184.4,
          "velocity": 0.8267716535433071
        },
        {
          "duration": 0.04999999999998295,
          "durationTicks": 60,
          "midi": 71,
          "name": "B4",
          "ticks": 221340,
          "time": 184.45000000000002,
          "velocity": 0.8267716535433071
        },
        {
          "duration": 0.04999999999998295,
          "durationTicks": 60,
          "midi": 79,
          "name": "G5",
          "ticks": 221340,
          "time": 184.45000000000002,
          "velocity": 0.8267716535433071
        },
        {
          "duration": 0.05000000000001137,
          "durationTicks": 60,
          "midi": 72,
          "name": "C5",
          "ticks": 221400,
          "time": 184.5,
          "velocity": 0.8267716535433071
        },
        {
          "duration": 0.05000000000001137,
          "durationTicks": 60,
          "midi": 81,
          "name": "A5",
          "ticks": 221400,
          "time": 184.5,
          "velocity": 0.8267716535433071
        },
        {
          "duration": 0.05000000000001137,
          "durationTicks": 60,
          "midi": 71,
          "name": "B4",
          "ticks": 221460,
          "time": 184.55,
          "velocity": 0.8267716535433071
        },
        {
          "duration": 0.05000000000001137,
          "durationTicks": 60,
          "midi": 79,
          "name": "G5",
          "ticks": 221460,
          "time": 184.55,
          "velocity": 0.8267716535433071
        },
        {
          "duration": 0.09999999999999432,
          "durationTicks": 120,
          "midi": 69,
          "name": "A4",
          "ticks": 221520,
          "time": 184.60000000000002,
          "velocity": 0.8267716535433071
        },
        {
          "duration": 0.09999999999999432,
          "durationTicks": 120,
          "midi": 78,
          "name": "F#5",
          "ticks": 221520,
          "time": 184.60000000000002,
          "velocity": 0.8267716535433071
        },
        {
          "duration": 0.09999999999999432,
          "durationTicks": 120,
          "midi": 71,
          "name": "B4",
          "ticks": 221640,
          "time": 184.70000000000002,
          "velocity": 0.8267716535433071
        },
        {
          "duration": 0.09999999999999432,
          "durationTicks": 120,
          "midi": 79,
          "name": "G5",
          "ticks": 221640,
          "time": 184.70000000000002,
          "velocity": 0.8267716535433071
        },
        {
          "duration": 0.19999999999998863,
          "durationTicks": 240,
          "midi": 72,
          "name": "C5",
          "ticks": 221760,
          "time": 184.8,
          "velocity": 0.8267716535433071
        },
        {
          "duration": 0.19999999999998863,
          "durationTicks": 240,
          "midi": 81,
          "name": "A5",
          "ticks": 221760,
          "time": 184.8,
          "velocity": 0.8267716535433071
        },
        {
          "duration": 0.0666666666666913,
          "durationTicks": 80,
          "midi": 72,
          "name": "C5",
          "ticks": 222000,
          "time": 185,
          "velocity": 0.8267716535433071
        },
        {
          "duration": 0.0666666666666913,
          "durationTicks": 80,
          "midi": 81,
          "name": "A5",
          "ticks": 222000,
          "time": 185,
          "velocity": 0.8267716535433071
        },
        {
          "duration": 0.06666666666666288,
          "durationTicks": 80,
          "midi": 69,
          "name": "A4",
          "ticks": 222240,
          "time": 185.20000000000002,
          "velocity": 0.8267716535433071
        },
        {
          "duration": 0.06666666666666288,
          "durationTicks": 80,
          "midi": 78,
          "name": "F#5",
          "ticks": 222240,
          "time": 185.20000000000002,
          "velocity": 0.8267716535433071
        },
        {
          "duration": 0.0666666666666913,
          "durationTicks": 80,
          "midi": 69,
          "name": "A4",
          "ticks": 222480,
          "time": 185.4,
          "velocity": 0.8267716535433071
        },
        {
          "duration": 0.0666666666666913,
          "durationTicks": 80,
          "midi": 78,
          "name": "F#5",
          "ticks": 222480,
          "time": 185.4,
          "velocity": 0.8267716535433071
        },
        {
          "duration": 0.3333333333333144,
          "durationTicks": 400,
          "midi": 71,
          "name": "B4",
          "ticks": 222720,
          "time": 185.60000000000002,
          "velocity": 0.8267716535433071
        },
        {
          "duration": 0.3333333333333144,
          "durationTicks": 400,
          "midi": 79,
          "name": "G5",
          "ticks": 222720,
          "time": 185.60000000000002,
          "velocity": 0.8267716535433071
        },
        {
          "duration": 0.3333333333333428,
          "durationTicks": 400,
          "midi": 78,
          "name": "F#5",
          "ticks": 223680,
          "time": 186.4,
          "velocity": 0.8267716535433071
        },
        {
          "duration": 0.3333333333333428,
          "durationTicks": 400,
          "midi": 81,
          "name": "A5",
          "ticks": 223680,
          "time": 186.4,
          "velocity": 0.8267716535433071
        },
        {
          "duration": 0.3333333333333144,
          "durationTicks": 400,
          "midi": 79,
          "name": "G5",
          "ticks": 224640,
          "time": 187.20000000000002,
          "velocity": 0.8267716535433071
        },
        {
          "duration": 0.3333333333333144,
          "durationTicks": 400,
          "midi": 83,
          "name": "B5",
          "ticks": 224640,
          "time": 187.20000000000002,
          "velocity": 0.8267716535433071
        },
        {
          "duration": 0.3333333333333428,
          "durationTicks": 400,
          "midi": 78,
          "name": "F#5",
          "ticks": 225600,
          "time": 188,
          "velocity": 0.8267716535433071
        },
        {
          "duration": 0.3333333333333428,
          "durationTicks": 400,
          "midi": 81,
          "name": "A5",
          "ticks": 225600,
          "time": 188,
          "velocity": 0.8267716535433071
        },
        {
          "duration": 0.3333333333333144,
          "durationTicks": 400,
          "midi": 79,
          "name": "G5",
          "ticks": 226560,
          "time": 188.8,
          "velocity": 0.8267716535433071
        },
        {
          "duration": 0.3333333333333144,
          "durationTicks": 400,
          "midi": 83,
          "name": "B5",
          "ticks": 226560,
          "time": 188.8,
          "velocity": 0.8267716535433071
        },
        {
          "duration": 0.3333333333333144,
          "durationTicks": 400,
          "midi": 78,
          "name": "F#5",
          "ticks": 227520,
          "time": 189.60000000000002,
          "velocity": 0.8267716535433071
        },
        {
          "duration": 0.3333333333333144,
          "durationTicks": 400,
          "midi": 81,
          "name": "A5",
          "ticks": 227520,
          "time": 189.60000000000002,
          "velocity": 0.8267716535433071
        },
        {
          "duration": 0.09999999999999432,
          "durationTicks": 120,
          "midi": 79,
          "name": "G5",
          "ticks": 228480,
          "time": 190.4,
          "velocity": 0.8267716535433071
        },
        {
          "duration": 0.09999999999999432,
          "durationTicks": 120,
          "midi": 74,
          "name": "D5",
          "ticks": 228960,
          "time": 190.8,
          "velocity": 0.8267716535433071
        },
        {
          "duration": 0.09999999999999432,
          "durationTicks": 120,
          "midi": 83,
          "name": "B5",
          "ticks": 228960,
          "time": 190.8,
          "velocity": 0.8267716535433071
        },
        {
          "duration": 0.09999999999999432,
          "durationTicks": 120,
          "midi": 71,
          "name": "B4",
          "ticks": 229440,
          "time": 191.20000000000002,
          "velocity": 0.8267716535433071
        },
        {
          "duration": 0.09999999999999432,
          "durationTicks": 120,
          "midi": 79,
          "name": "G5",
          "ticks": 229440,
          "time": 191.20000000000002,
          "velocity": 0.8267716535433071
        },
        {
          "duration": 0.3333333333333428,
          "durationTicks": 400,
          "midi": 72,
          "name": "C5",
          "ticks": 230400,
          "time": 192,
          "velocity": 0.8267716535433071
        },
        {
          "duration": 0.06666666666666288,
          "durationTicks": 80,
          "midi": 67,
          "name": "G4",
          "ticks": 231120,
          "time": 192.60000000000002,
          "velocity": 0.8267716535433071
        },
        {
          "duration": 0.06666666666666288,
          "durationTicks": 80,
          "midi": 69,
          "name": "A4",
          "ticks": 231200,
          "time": 192.66666666666669,
          "velocity": 0.8267716535433071
        },
        {
          "duration": 0.06666666666666288,
          "durationTicks": 80,
          "midi": 71,
          "name": "B4",
          "ticks": 231280,
          "time": 192.73333333333335,
          "velocity": 0.8267716535433071
        },
        {
          "duration": 0.3333333333333144,
          "durationTicks": 400,
          "midi": 72,
          "name": "C5",
          "ticks": 231360,
          "time": 192.8,
          "velocity": 0.8267716535433071
        },
        {
          "duration": 0.0666666666666913,
          "durationTicks": 80,
          "midi": 67,
          "name": "G4",
          "ticks": 232080,
          "time": 193.4,
          "velocity": 0.8267716535433071
        },
        {
          "duration": 0.06666666666663446,
          "durationTicks": 80,
          "midi": 69,
          "name": "A4",
          "ticks": 232160,
          "time": 193.4666666666667,
          "velocity": 0.8267716535433071
        },
        {
          "duration": 0.0666666666666913,
          "durationTicks": 80,
          "midi": 71,
          "name": "B4",
          "ticks": 232240,
          "time": 193.53333333333333,
          "velocity": 0.8267716535433071
        },
        {
          "duration": 0.3333333333333144,
          "durationTicks": 400,
          "midi": 72,
          "name": "C5",
          "ticks": 232320,
          "time": 193.60000000000002,
          "velocity": 0.8267716535433071
        },
        {
          "duration": 0.3333333333333428,
          "durationTicks": 400,
          "midi": 79,
          "name": "G5",
          "ticks": 238080,
          "time": 198.4,
          "velocity": 0.8267716535433071
        },
        {
          "duration": 0.0666666666666913,
          "durationTicks": 80,
          "midi": 74,
          "name": "D5",
          "ticks": 238800,
          "time": 199,
          "velocity": 0.8267716535433071
        },
        {
          "duration": 0.06666666666663446,
          "durationTicks": 80,
          "midi": 76,
          "name": "E5",
          "ticks": 238880,
          "time": 199.0666666666667,
          "velocity": 0.8267716535433071
        },
        {
          "duration": 0.0666666666666913,
          "durationTicks": 80,
          "midi": 78,
          "name": "F#5",
          "ticks": 238960,
          "time": 199.13333333333333,
          "velocity": 0.8267716535433071
        },
        {
          "duration": 0.3333333333333144,
          "durationTicks": 400,
          "midi": 79,
          "name": "G5",
          "ticks": 239040,
          "time": 199.20000000000002,
          "velocity": 0.8267716535433071
        },
        {
          "duration": 0.06666666666666288,
          "durationTicks": 80,
          "midi": 74,
          "name": "D5",
          "ticks": 239760,
          "time": 199.8,
          "velocity": 0.8267716535433071
        },
        {
          "duration": 0.06666666666666288,
          "durationTicks": 80,
          "midi": 76,
          "name": "E5",
          "ticks": 239840,
          "time": 199.86666666666667,
          "velocity": 0.8267716535433071
        },
        {
          "duration": 0.06666666666666288,
          "durationTicks": 80,
          "midi": 78,
          "name": "F#5",
          "ticks": 239920,
          "time": 199.93333333333334,
          "velocity": 0.8267716535433071
        },
        {
          "duration": 0.3333333333333428,
          "durationTicks": 400,
          "midi": 79,
          "name": "G5",
          "ticks": 240000,
          "time": 200,
          "velocity": 0.8267716535433071
        },
        {
          "duration": 0.3333333333333428,
          "durationTicks": 400,
          "midi": 76,
          "name": "E5",
          "ticks": 245760,
          "time": 204.8,
          "velocity": 0.8267716535433071
        },
        {
          "duration": 0.3333333333333428,
          "durationTicks": 400,
          "midi": 79,
          "name": "G5",
          "ticks": 245760,
          "time": 204.8,
          "velocity": 0.8267716535433071
        },
        {
          "duration": 0.29666666666665265,
          "durationTicks": 356,
          "midi": 76,
          "name": "E5",
          "ticks": 246240,
          "time": 205.20000000000002,
          "velocity": 0.8267716535433071
        },
        {
          "duration": 0.29666666666665265,
          "durationTicks": 356,
          "midi": 79,
          "name": "G5",
          "ticks": 246240,
          "time": 205.20000000000002,
          "velocity": 0.8267716535433071
        },
        {
          "duration": 0.09666666666669244,
          "durationTicks": 116,
          "midi": 76,
          "name": "E5",
          "ticks": 246600,
          "time": 205.5,
          "velocity": 0.8267716535433071
        },
        {
          "duration": 0.09666666666669244,
          "durationTicks": 116,
          "midi": 79,
          "name": "G5",
          "ticks": 246600,
          "time": 205.5,
          "velocity": 0.8267716535433071
        },
        {
          "duration": 0.3333333333333428,
          "durationTicks": 400,
          "midi": 76,
          "name": "E5",
          "ticks": 246720,
          "time": 205.60000000000002,
          "velocity": 0.8267716535433071
        },
        {
          "duration": 0.3333333333333428,
          "durationTicks": 400,
          "midi": 79,
          "name": "G5",
          "ticks": 246720,
          "time": 205.60000000000002,
          "velocity": 0.8267716535433071
        },
        {
          "duration": 0.33333333333337123,
          "durationTicks": 400,
          "midi": 76,
          "name": "E5",
          "ticks": 247200,
          "time": 206,
          "velocity": 0.8267716535433071
        },
        {
          "duration": 0.33333333333337123,
          "durationTicks": 400,
          "midi": 79,
          "name": "G5",
          "ticks": 247200,
          "time": 206,
          "velocity": 0.8267716535433071
        },
        {
          "duration": 0.3333333333333428,
          "durationTicks": 400,
          "midi": 69,
          "name": "A4",
          "ticks": 247680,
          "time": 206.4,
          "velocity": 0.8267716535433071
        },
        {
          "duration": 0.3333333333333428,
          "durationTicks": 400,
          "midi": 77,
          "name": "F5",
          "ticks": 247680,
          "time": 206.4,
          "velocity": 0.8267716535433071
        },
        {
          "duration": 0.29666666666668107,
          "durationTicks": 356,
          "midi": 69,
          "name": "A4",
          "ticks": 248160,
          "time": 206.8,
          "velocity": 0.8267716535433071
        },
        {
          "duration": 0.29666666666668107,
          "durationTicks": 356,
          "midi": 77,
          "name": "F5",
          "ticks": 248160,
          "time": 206.8,
          "velocity": 0.8267716535433071
        },
        {
          "duration": 0.09666666666666401,
          "durationTicks": 116,
          "midi": 69,
          "name": "A4",
          "ticks": 248520,
          "time": 207.10000000000002,
          "velocity": 0.8267716535433071
        },
        {
          "duration": 0.09666666666666401,
          "durationTicks": 116,
          "midi": 77,
          "name": "F5",
          "ticks": 248520,
          "time": 207.10000000000002,
          "velocity": 0.8267716535433071
        },
        {
          "duration": 0.3333333333333428,
          "durationTicks": 400,
          "midi": 69,
          "name": "A4",
          "ticks": 248640,
          "time": 207.20000000000002,
          "velocity": 0.8267716535433071
        },
        {
          "duration": 0.3333333333333428,
          "durationTicks": 400,
          "midi": 77,
          "name": "F5",
          "ticks": 248640,
          "time": 207.20000000000002,
          "velocity": 0.8267716535433071
        },
        {
          "duration": 0.3333333333333428,
          "durationTicks": 400,
          "midi": 72,
          "name": "C5",
          "ticks": 249120,
          "time": 207.60000000000002,
          "velocity": 0.8267716535433071
        },
        {
          "duration": 0.3333333333333428,
          "durationTicks": 400,
          "midi": 77,
          "name": "F5",
          "ticks": 249120,
          "time": 207.60000000000002,
          "velocity": 0.8267716535433071
        },
        {
          "duration": 0.33333333333337123,
          "durationTicks": 400,
          "midi": 74,
          "name": "D5",
          "ticks": 249600,
          "time": 208,
          "velocity": 0.8267716535433071
        },
        {
          "duration": 0.33333333333337123,
          "durationTicks": 400,
          "midi": 77,
          "name": "F5",
          "ticks": 249600,
          "time": 208,
          "velocity": 0.8267716535433071
        },
        {
          "duration": 0.29666666666668107,
          "durationTicks": 356,
          "midi": 74,
          "name": "D5",
          "ticks": 250080,
          "time": 208.4,
          "velocity": 0.8267716535433071
        },
        {
          "duration": 0.29666666666668107,
          "durationTicks": 356,
          "midi": 77,
          "name": "F5",
          "ticks": 250080,
          "time": 208.4,
          "velocity": 0.8267716535433071
        },
        {
          "duration": 0.09666666666666401,
          "durationTicks": 116,
          "midi": 74,
          "name": "D5",
          "ticks": 250440,
          "time": 208.70000000000002,
          "velocity": 0.8267716535433071
        },
        {
          "duration": 0.09666666666666401,
          "durationTicks": 116,
          "midi": 77,
          "name": "F5",
          "ticks": 250440,
          "time": 208.70000000000002,
          "velocity": 0.8267716535433071
        },
        {
          "duration": 0.3333333333333428,
          "durationTicks": 400,
          "midi": 74,
          "name": "D5",
          "ticks": 250560,
          "time": 208.8,
          "velocity": 0.8267716535433071
        },
        {
          "duration": 0.3333333333333428,
          "durationTicks": 400,
          "midi": 77,
          "name": "F5",
          "ticks": 250560,
          "time": 208.8,
          "velocity": 0.8267716535433071
        },
        {
          "duration": 0.3333333333333428,
          "durationTicks": 400,
          "midi": 74,
          "name": "D5",
          "ticks": 251040,
          "time": 209.20000000000002,
          "velocity": 0.8267716535433071
        },
        {
          "duration": 0.3333333333333428,
          "durationTicks": 400,
          "midi": 77,
          "name": "F5",
          "ticks": 251040,
          "time": 209.20000000000002,
          "velocity": 0.8267716535433071
        },
        {
          "duration": 0.3333333333333428,
          "durationTicks": 400,
          "midi": 67,
          "name": "G4",
          "ticks": 251520,
          "time": 209.60000000000002,
          "velocity": 0.8267716535433071
        },
        {
          "duration": 0.3333333333333428,
          "durationTicks": 400,
          "midi": 76,
          "name": "E5",
          "ticks": 251520,
          "time": 209.60000000000002,
          "velocity": 0.8267716535433071
        },
        {
          "duration": 0.29666666666668107,
          "durationTicks": 356,
          "midi": 76,
          "name": "E5",
          "ticks": 252000,
          "time": 210,
          "velocity": 0.8267716535433071
        },
        {
          "duration": 0.29666666666668107,
          "durationTicks": 356,
          "midi": 79,
          "name": "G5",
          "ticks": 252000,
          "time": 210,
          "velocity": 0.8267716535433071
        },
        {
          "duration": 0.09666666666666401,
          "durationTicks": 116,
          "midi": 76,
          "name": "E5",
          "ticks": 252360,
          "time": 210.3,
          "velocity": 0.8267716535433071
        },
        {
          "duration": 0.09666666666666401,
          "durationTicks": 116,
          "midi": 79,
          "name": "G5",
          "ticks": 252360,
          "time": 210.3,
          "velocity": 0.8267716535433071
        },
        {
          "duration": 0.3333333333333428,
          "durationTicks": 400,
          "midi": 76,
          "name": "E5",
          "ticks": 252480,
          "time": 210.4,
          "velocity": 0.8267716535433071
        },
        {
          "duration": 0.3333333333333428,
          "durationTicks": 400,
          "midi": 79,
          "name": "G5",
          "ticks": 252480,
          "time": 210.4,
          "velocity": 0.8267716535433071
        },
        {
          "duration": 0.3333333333333428,
          "durationTicks": 400,
          "midi": 76,
          "name": "E5",
          "ticks": 252960,
          "time": 210.8,
          "velocity": 0.8267716535433071
        },
        {
          "duration": 0.3333333333333428,
          "durationTicks": 400,
          "midi": 79,
          "name": "G5",
          "ticks": 252960,
          "time": 210.8,
          "velocity": 0.8267716535433071
        },
        {
          "duration": 0.3333333333333428,
          "durationTicks": 400,
          "midi": 69,
          "name": "A4",
          "ticks": 253440,
          "time": 211.20000000000002,
          "velocity": 0.8267716535433071
        },
        {
          "duration": 0.3333333333333428,
          "durationTicks": 400,
          "midi": 77,
          "name": "F5",
          "ticks": 253440,
          "time": 211.20000000000002,
          "velocity": 0.8267716535433071
        },
        {
          "duration": 0.29666666666665265,
          "durationTicks": 356,
          "midi": 69,
          "name": "A4",
          "ticks": 253920,
          "time": 211.60000000000002,
          "velocity": 0.8267716535433071
        },
        {
          "duration": 0.29666666666665265,
          "durationTicks": 356,
          "midi": 77,
          "name": "F5",
          "ticks": 253920,
          "time": 211.60000000000002,
          "velocity": 0.8267716535433071
        },
        {
          "duration": 0.09666666666666401,
          "durationTicks": 116,
          "midi": 69,
          "name": "A4",
          "ticks": 254280,
          "time": 211.9,
          "velocity": 0.8267716535433071
        },
        {
          "duration": 0.09666666666666401,
          "durationTicks": 116,
          "midi": 77,
          "name": "F5",
          "ticks": 254280,
          "time": 211.9,
          "velocity": 0.8267716535433071
        },
        {
          "duration": 0.33333333333337123,
          "durationTicks": 400,
          "midi": 69,
          "name": "A4",
          "ticks": 254400,
          "time": 212,
          "velocity": 0.8267716535433071
        },
        {
          "duration": 0.33333333333337123,
          "durationTicks": 400,
          "midi": 77,
          "name": "F5",
          "ticks": 254400,
          "time": 212,
          "velocity": 0.8267716535433071
        },
        {
          "duration": 0.3333333333333428,
          "durationTicks": 400,
          "midi": 72,
          "name": "C5",
          "ticks": 254880,
          "time": 212.4,
          "velocity": 0.8267716535433071
        },
        {
          "duration": 0.3333333333333428,
          "durationTicks": 400,
          "midi": 77,
          "name": "F5",
          "ticks": 254880,
          "time": 212.4,
          "velocity": 0.8267716535433071
        },
        {
          "duration": 0.3333333333333428,
          "durationTicks": 400,
          "midi": 74,
          "name": "D5",
          "ticks": 255360,
          "time": 212.8,
          "velocity": 0.8267716535433071
        },
        {
          "duration": 0.3333333333333428,
          "durationTicks": 400,
          "midi": 77,
          "name": "F5",
          "ticks": 255360,
          "time": 212.8,
          "velocity": 0.8267716535433071
        },
        {
          "duration": 0.29666666666665265,
          "durationTicks": 356,
          "midi": 74,
          "name": "D5",
          "ticks": 255840,
          "time": 213.20000000000002,
          "velocity": 0.8267716535433071
        },
        {
          "duration": 0.29666666666665265,
          "durationTicks": 356,
          "midi": 77,
          "name": "F5",
          "ticks": 255840,
          "time": 213.20000000000002,
          "velocity": 0.8267716535433071
        },
        {
          "duration": 0.09666666666669244,
          "durationTicks": 116,
          "midi": 74,
          "name": "D5",
          "ticks": 256200,
          "time": 213.5,
          "velocity": 0.8267716535433071
        },
        {
          "duration": 0.09666666666669244,
          "durationTicks": 116,
          "midi": 77,
          "name": "F5",
          "ticks": 256200,
          "time": 213.5,
          "velocity": 0.8267716535433071
        },
        {
          "duration": 0.3333333333333428,
          "durationTicks": 400,
          "midi": 74,
          "name": "D5",
          "ticks": 256320,
          "time": 213.60000000000002,
          "velocity": 0.8267716535433071
        },
        {
          "duration": 0.3333333333333428,
          "durationTicks": 400,
          "midi": 77,
          "name": "F5",
          "ticks": 256320,
          "time": 213.60000000000002,
          "velocity": 0.8267716535433071
        },
        {
          "duration": 0.33333333333337123,
          "durationTicks": 400,
          "midi": 74,
          "name": "D5",
          "ticks": 256800,
          "time": 214,
          "velocity": 0.8267716535433071
        },
        {
          "duration": 0.33333333333337123,
          "durationTicks": 400,
          "midi": 77,
          "name": "F5",
          "ticks": 256800,
          "time": 214,
          "velocity": 0.8267716535433071
        },
        {
          "duration": 0.3333333333333428,
          "durationTicks": 400,
          "midi": 72,
          "name": "C5",
          "ticks": 257280,
          "time": 214.4,
          "velocity": 0.8267716535433071
        },
        {
          "duration": 0.3333333333333428,
          "durationTicks": 400,
          "midi": 76,
          "name": "E5",
          "ticks": 257280,
          "time": 214.4,
          "velocity": 0.8267716535433071
        },
        {
          "duration": 0.3333333333333428,
          "durationTicks": 400,
          "midi": 72,
          "name": "C5",
          "ticks": 257760,
          "time": 214.8,
          "velocity": 0.8267716535433071
        },
        {
          "duration": 0.3333333333333428,
          "durationTicks": 400,
          "midi": 76,
          "name": "E5",
          "ticks": 257760,
          "time": 214.8,
          "velocity": 0.8267716535433071
        },
        {
          "duration": 0.3333333333333428,
          "durationTicks": 400,
          "midi": 71,
          "name": "B4",
          "ticks": 258720,
          "time": 215.60000000000002,
          "velocity": 0.8267716535433071
        },
        {
          "duration": 0.3333333333333428,
          "durationTicks": 400,
          "midi": 74,
          "name": "D5",
          "ticks": 258720,
          "time": 215.60000000000002,
          "velocity": 0.8267716535433071
        },
        {
          "duration": 0.3333333333333428,
          "durationTicks": 400,
          "midi": 72,
          "name": "C5",
          "ticks": 259680,
          "time": 216.4,
          "velocity": 0.8267716535433071
        },
        {
          "duration": 0.3333333333333428,
          "durationTicks": 400,
          "midi": 76,
          "name": "E5",
          "ticks": 259680,
          "time": 216.4,
          "velocity": 0.8267716535433071
        },
        {
          "duration": 0.3333333333333428,
          "durationTicks": 400,
          "midi": 71,
          "name": "B4",
          "ticks": 260640,
          "time": 217.20000000000002,
          "velocity": 0.8267716535433071
        },
        {
          "duration": 0.3333333333333428,
          "durationTicks": 400,
          "midi": 74,
          "name": "D5",
          "ticks": 260640,
          "time": 217.20000000000002,
          "velocity": 0.8267716535433071
        },
        {
          "duration": 0.3333333333333428,
          "durationTicks": 400,
          "midi": 72,
          "name": "C5",
          "ticks": 261120,
          "time": 217.60000000000002,
          "velocity": 0.8267716535433071
        },
        {
          "duration": 0.3333333333333428,
          "durationTicks": 400,
          "midi": 76,
          "name": "E5",
          "ticks": 261120,
          "time": 217.60000000000002,
          "velocity": 0.8267716535433071
        },
        {
          "duration": 0.19666666666668675,
          "durationTicks": 236,
          "midi": 79,
          "name": "G5",
          "ticks": 261600,
          "time": 218,
          "velocity": 0.8267716535433071
        },
        {
          "duration": 0.19666666666665833,
          "durationTicks": 236,
          "midi": 79,
          "name": "G5",
          "ticks": 261840,
          "time": 218.20000000000002,
          "velocity": 0.8267716535433071
        },
        {
          "duration": 0.19666666666668675,
          "durationTicks": 236,
          "midi": 84,
          "name": "C6",
          "ticks": 262080,
          "time": 218.4,
          "velocity": 0.8267716535433071
        },
        {
          "duration": 0.19666666666665833,
          "durationTicks": 236,
          "midi": 84,
          "name": "C6",
          "ticks": 262320,
          "time": 218.60000000000002,
          "velocity": 0.8267716535433071
        },
        {
          "duration": 0.19666666666665833,
          "durationTicks": 236,
          "midi": 79,
          "name": "G5",
          "ticks": 262560,
          "time": 218.8,
          "velocity": 0.8267716535433071
        },
        {
          "duration": 0.19666666666668675,
          "durationTicks": 236,
          "midi": 79,
          "name": "G5",
          "ticks": 262800,
          "time": 219,
          "velocity": 0.8267716535433071
        },
        {
          "duration": 0.19666666666665833,
          "durationTicks": 236,
          "midi": 84,
          "name": "C6",
          "ticks": 263040,
          "time": 219.20000000000002,
          "velocity": 0.8267716535433071
        },
        {
          "duration": 0.19666666666668675,
          "durationTicks": 236,
          "midi": 84,
          "name": "C6",
          "ticks": 263280,
          "time": 219.4,
          "velocity": 0.8267716535433071
        },
        {
          "duration": 0.19666666666665833,
          "durationTicks": 236,
          "midi": 79,
          "name": "G5",
          "ticks": 263520,
          "time": 219.60000000000002,
          "velocity": 0.8267716535433071
        },
        {
          "duration": 0.19666666666665833,
          "durationTicks": 236,
          "midi": 79,
          "name": "G5",
          "ticks": 263760,
          "time": 219.8,
          "velocity": 0.8267716535433071
        },
        {
          "duration": 0.19666666666668675,
          "durationTicks": 236,
          "midi": 76,
          "name": "E5",
          "ticks": 264000,
          "time": 220,
          "velocity": 0.8267716535433071
        },
        {
          "duration": 0.19666666666665833,
          "durationTicks": 236,
          "midi": 76,
          "name": "E5",
          "ticks": 264240,
          "time": 220.20000000000002,
          "velocity": 0.8267716535433071
        },
        {
          "duration": 0.19666666666668675,
          "durationTicks": 236,
          "midi": 72,
          "name": "C5",
          "ticks": 264480,
          "time": 220.4,
          "velocity": 0.8267716535433071
        },
        {
          "duration": 0.19666666666665833,
          "durationTicks": 236,
          "midi": 72,
          "name": "C5",
          "ticks": 264720,
          "time": 220.60000000000002,
          "velocity": 0.8267716535433071
        },
        {
          "duration": 0.3333333333333428,
          "durationTicks": 400,
          "midi": 67,
          "name": "G4",
          "ticks": 264960,
          "time": 220.8,
          "velocity": 0.8267716535433071
        },
        {
          "duration": 0.3333333333333428,
          "durationTicks": 400,
          "midi": 74,
          "name": "D5",
          "ticks": 265440,
          "time": 221.20000000000002,
          "velocity": 0.8267716535433071
        },
        {
          "duration": 0.3333333333333428,
          "durationTicks": 400,
          "midi": 79,
          "name": "G5",
          "ticks": 265440,
          "time": 221.20000000000002,
          "velocity": 0.8267716535433071
        },
        {
          "duration": 0.33333333333337123,
          "durationTicks": 400,
          "midi": 76,
          "name": "E5",
          "ticks": 266400,
          "time": 222,
          "velocity": 0.8267716535433071
        },
        {
          "duration": 0.33333333333337123,
          "durationTicks": 400,
          "midi": 79,
          "name": "G5",
          "ticks": 266400,
          "time": 222,
          "velocity": 0.8267716535433071
        },
        {
          "duration": 0.3333333333333428,
          "durationTicks": 400,
          "midi": 74,
          "name": "D5",
          "ticks": 267360,
          "time": 222.8,
          "velocity": 0.8267716535433071
        },
        {
          "duration": 0.3333333333333428,
          "durationTicks": 400,
          "midi": 79,
          "name": "G5",
          "ticks": 267360,
          "time": 222.8,
          "velocity": 0.8267716535433071
        },
        {
          "duration": 0.3333333333333428,
          "durationTicks": 400,
          "midi": 76,
          "name": "E5",
          "ticks": 268320,
          "time": 223.60000000000002,
          "velocity": 0.8267716535433071
        },
        {
          "duration": 0.3333333333333428,
          "durationTicks": 400,
          "midi": 79,
          "name": "G5",
          "ticks": 268320,
          "time": 223.60000000000002,
          "velocity": 0.8267716535433071
        },
        {
          "duration": 0.19666666666668675,
          "durationTicks": 236,
          "midi": 74,
          "name": "D5",
          "ticks": 268800,
          "time": 224,
          "velocity": 0.8267716535433071
        },
        {
          "duration": 0.19666666666668675,
          "durationTicks": 236,
          "midi": 79,
          "name": "G5",
          "ticks": 268800,
          "time": 224,
          "velocity": 0.8267716535433071
        },
        {
          "duration": 0.19666666666665833,
          "durationTicks": 236,
          "midi": 76,
          "name": "E5",
          "ticks": 269040,
          "time": 224.20000000000002,
          "velocity": 0.8346456692913385
        },
        {
          "duration": 0.19666666666665833,
          "durationTicks": 236,
          "midi": 79,
          "name": "G5",
          "ticks": 269040,
          "time": 224.20000000000002,
          "velocity": 0.8346456692913385
        },
        {
          "duration": 0.19666666666668675,
          "durationTicks": 236,
          "midi": 74,
          "name": "D5",
          "ticks": 269280,
          "time": 224.4,
          "velocity": 0.8503937007874016
        },
        {
          "duration": 0.19666666666668675,
          "durationTicks": 236,
          "midi": 79,
          "name": "G5",
          "ticks": 269280,
          "time": 224.4,
          "velocity": 0.8503937007874016
        },
        {
          "duration": 0.19666666666665833,
          "durationTicks": 236,
          "midi": 76,
          "name": "E5",
          "ticks": 269520,
          "time": 224.60000000000002,
          "velocity": 0.8582677165354331
        },
        {
          "duration": 0.19666666666665833,
          "durationTicks": 236,
          "midi": 79,
          "name": "G5",
          "ticks": 269520,
          "time": 224.60000000000002,
          "velocity": 0.8582677165354331
        },
        {
          "duration": 0.19666666666665833,
          "durationTicks": 236,
          "midi": 74,
          "name": "D5",
          "ticks": 269760,
          "time": 224.8,
          "velocity": 0.8661417322834646
        },
        {
          "duration": 0.19666666666665833,
          "durationTicks": 236,
          "midi": 79,
          "name": "G5",
          "ticks": 269760,
          "time": 224.8,
          "velocity": 0.8661417322834646
        },
        {
          "duration": 0.19666666666668675,
          "durationTicks": 236,
          "midi": 76,
          "name": "E5",
          "ticks": 270000,
          "time": 225,
          "velocity": 0.8740157480314961
        },
        {
          "duration": 0.19666666666668675,
          "durationTicks": 236,
          "midi": 79,
          "name": "G5",
          "ticks": 270000,
          "time": 225,
          "velocity": 0.8740157480314961
        },
        {
          "duration": 0.19666666666665833,
          "durationTicks": 236,
          "midi": 74,
          "name": "D5",
          "ticks": 270240,
          "time": 225.20000000000002,
          "velocity": 0.8818897637795275
        },
        {
          "duration": 0.19666666666665833,
          "durationTicks": 236,
          "midi": 79,
          "name": "G5",
          "ticks": 270240,
          "time": 225.20000000000002,
          "velocity": 0.8818897637795275
        },
        {
          "duration": 0.19666666666668675,
          "durationTicks": 236,
          "midi": 76,
          "name": "E5",
          "ticks": 270480,
          "time": 225.4,
          "velocity": 0.889763779527559
        },
        {
          "duration": 0.19666666666668675,
          "durationTicks": 236,
          "midi": 79,
          "name": "G5",
          "ticks": 270480,
          "time": 225.4,
          "velocity": 0.889763779527559
        },
        {
          "duration": 0.3333333333333428,
          "durationTicks": 400,
          "midi": 74,
          "name": "D5",
          "ticks": 270720,
          "time": 225.60000000000002,
          "velocity": 0.905511811023622
        },
        {
          "duration": 0.3333333333333428,
          "durationTicks": 400,
          "midi": 79,
          "name": "G5",
          "ticks": 270720,
          "time": 225.60000000000002,
          "velocity": 0.905511811023622
        },
        {
          "duration": 0.3333333333333428,
          "durationTicks": 400,
          "midi": 67,
          "name": "G4",
          "ticks": 271680,
          "time": 226.4,
          "velocity": 0.937007874015748
        },
        {
          "duration": 0.3333333333333428,
          "durationTicks": 400,
          "midi": 79,
          "name": "G5",
          "ticks": 271680,
          "time": 226.4,
          "velocity": 0.937007874015748
        },
        {
          "duration": 0.3333333333333428,
          "durationTicks": 400,
          "midi": 67,
          "name": "G4",
          "ticks": 272160,
          "time": 226.8,
          "velocity": 0.952755905511811
        },
        {
          "duration": 0.3333333333333428,
          "durationTicks": 400,
          "midi": 79,
          "name": "G5",
          "ticks": 272160,
          "time": 226.8,
          "velocity": 0.952755905511811
        },
        {
          "duration": 1.5,
          "durationTicks": 1800,
          "midi": 67,
          "name": "G4",
          "ticks": 272640,
          "time": 227.20000000000002,
          "velocity": 0.9763779527559056
        },
        {
          "duration": 1.5,
          "durationTicks": 1800,
          "midi": 79,
          "name": "G5",
          "ticks": 272640,
          "time": 227.20000000000002,
          "velocity": 0.9763779527559056
        },
        {
          "duration": 0.8000000000000114,
          "durationTicks": 960,
          "midi": 64,
          "name": "E4",
          "ticks": 274560,
          "time": 228.8,
          "velocity": 0.4015748031496063
        },
        {
          "duration": 0.9966666666666697,
          "durationTicks": 1196,
          "midi": 76,
          "name": "E5",
          "ticks": 275520,
          "time": 229.60000000000002,
          "velocity": 0.4015748031496063
        },
        {
          "duration": 0.06666666666663446,
          "durationTicks": 80,
          "midi": 79,
          "name": "G5",
          "ticks": 276720,
          "time": 230.60000000000002,
          "velocity": 0.4015748031496063
        },
        {
          "duration": 0.06666666666666288,
          "durationTicks": 80,
          "midi": 77,
          "name": "F5",
          "ticks": 276960,
          "time": 230.8,
          "velocity": 0.4015748031496063
        },
        {
          "duration": 0.06666666666666288,
          "durationTicks": 80,
          "midi": 76,
          "name": "E5",
          "ticks": 277200,
          "time": 231,
          "velocity": 0.4015748031496063
        },
        {
          "duration": 0.06666666666663446,
          "durationTicks": 80,
          "midi": 74,
          "name": "D5",
          "ticks": 277440,
          "time": 231.20000000000002,
          "velocity": 0.4015748031496063
        },
        {
          "duration": 0.06666666666666288,
          "durationTicks": 80,
          "midi": 72,
          "name": "C5",
          "ticks": 277680,
          "time": 231.4,
          "velocity": 0.4015748031496063
        },
        {
          "duration": 0.06666666666663446,
          "durationTicks": 80,
          "midi": 71,
          "name": "B4",
          "ticks": 277920,
          "time": 231.60000000000002,
          "velocity": 0.4015748031496063
        },
        {
          "duration": 0.06666666666666288,
          "durationTicks": 80,
          "midi": 72,
          "name": "C5",
          "ticks": 278160,
          "time": 231.8,
          "velocity": 0.4015748031496063
        },
        {
          "duration": 0.8000000000000114,
          "durationTicks": 960,
          "midi": 74,
          "name": "D5",
          "ticks": 278400,
          "time": 232,
          "velocity": 0.4015748031496063
        },
        {
          "duration": 0.6999999999999886,
          "durationTicks": 840,
          "midi": 72,
          "name": "C5",
          "ticks": 279360,
          "time": 232.8,
          "velocity": 0.4015748031496063
        },
        {
          "duration": 1.0999999999999943,
          "durationTicks": 1320,
          "midi": 71,
          "name": "B4",
          "ticks": 280320,
          "time": 233.60000000000002,
          "velocity": 0.4015748031496063
        },
        {
          "duration": 0.799999999999983,
          "durationTicks": 960,
          "midi": 71,
          "name": "B4",
          "ticks": 282240,
          "time": 235.20000000000002,
          "velocity": 0.4015748031496063
        },
        {
          "duration": 0.9966666666666697,
          "durationTicks": 1196,
          "midi": 83,
          "name": "B5",
          "ticks": 283200,
          "time": 236,
          "velocity": 0.4015748031496063
        },
        {
          "duration": 0.06666666666666288,
          "durationTicks": 80,
          "midi": 81,
          "name": "A5",
          "ticks": 284400,
          "time": 237,
          "velocity": 0.4015748031496063
        },
        {
          "duration": 0.06666666666663446,
          "durationTicks": 80,
          "midi": 79,
          "name": "G5",
          "ticks": 284640,
          "time": 237.20000000000002,
          "velocity": 0.4015748031496063
        },
        {
          "duration": 0.06666666666666288,
          "durationTicks": 80,
          "midi": 77,
          "name": "F5",
          "ticks": 284880,
          "time": 237.4,
          "velocity": 0.4015748031496063
        },
        {
          "duration": 0.06666666666663446,
          "durationTicks": 80,
          "midi": 76,
          "name": "E5",
          "ticks": 285120,
          "time": 237.60000000000002,
          "velocity": 0.4015748031496063
        },
        {
          "duration": 0.06666666666666288,
          "durationTicks": 80,
          "midi": 74,
          "name": "D5",
          "ticks": 285360,
          "time": 237.8,
          "velocity": 0.4015748031496063
        },
        {
          "duration": 0.06666666666666288,
          "durationTicks": 80,
          "midi": 72,
          "name": "C5",
          "ticks": 285600,
          "time": 238,
          "velocity": 0.4015748031496063
        },
        {
          "duration": 0.06666666666663446,
          "durationTicks": 80,
          "midi": 71,
          "name": "B4",
          "ticks": 285840,
          "time": 238.20000000000002,
          "velocity": 0.4015748031496063
        },
        {
          "duration": 0.8000000000000114,
          "durationTicks": 960,
          "midi": 79,
          "name": "G5",
          "ticks": 286080,
          "time": 238.4,
          "velocity": 0.4015748031496063
        },
        {
          "duration": 0.6999999999999886,
          "durationTicks": 840,
          "midi": 77,
          "name": "F5",
          "ticks": 287040,
          "time": 239.20000000000002,
          "velocity": 0.4015748031496063
        },
        {
          "duration": 0.10000000000002274,
          "durationTicks": 120,
          "midi": 76,
          "name": "E5",
          "ticks": 288000,
          "time": 240,
          "velocity": 0.4015748031496063
        },
        {
          "duration": 0.09999999999999432,
          "durationTicks": 120,
          "midi": 76,
          "name": "E5",
          "ticks": 288480,
          "time": 240.4,
          "velocity": 0.4015748031496063
        },
        {
          "duration": 0.09999999999999432,
          "durationTicks": 120,
          "midi": 76,
          "name": "E5",
          "ticks": 288960,
          "time": 240.8,
          "velocity": 0.4015748031496063
        },
        {
          "duration": 0.09999999999999432,
          "durationTicks": 120,
          "midi": 75,
          "name": "D#5",
          "ticks": 289920,
          "time": 241.60000000000002,
          "velocity": 0.4015748031496063
        },
        {
          "duration": 0.10000000000002274,
          "durationTicks": 120,
          "midi": 75,
          "name": "D#5",
          "ticks": 290400,
          "time": 242,
          "velocity": 0.4015748031496063
        },
        {
          "duration": 0.09999999999999432,
          "durationTicks": 120,
          "midi": 74,
          "name": "D5",
          "ticks": 290880,
          "time": 242.4,
          "velocity": 0.4015748031496063
        },
        {
          "duration": 0.09999999999999432,
          "durationTicks": 120,
          "midi": 74,
          "name": "D5",
          "ticks": 291840,
          "time": 243.20000000000002,
          "velocity": 0.4015748031496063
        },
        {
          "duration": 0.09999999999999432,
          "durationTicks": 120,
          "midi": 74,
          "name": "D5",
          "ticks": 292320,
          "time": 243.60000000000002,
          "velocity": 0.4015748031496063
        },
        {
          "duration": 0.10000000000002274,
          "durationTicks": 120,
          "midi": 74,
          "name": "D5",
          "ticks": 292800,
          "time": 244,
          "velocity": 0.4015748031496063
        },
        {
          "duration": 0.09999999999999432,
          "durationTicks": 120,
          "midi": 73,
          "name": "C#5",
          "ticks": 293760,
          "time": 244.8,
          "velocity": 0.4015748031496063
        },
        {
          "duration": 0.09999999999999432,
          "durationTicks": 120,
          "midi": 73,
          "name": "C#5",
          "ticks": 294240,
          "time": 245.20000000000002,
          "velocity": 0.4015748031496063
        },
        {
          "duration": 0.09999999999999432,
          "durationTicks": 120,
          "midi": 72,
          "name": "C5",
          "ticks": 294720,
          "time": 245.60000000000002,
          "velocity": 0.4015748031496063
        },
        {
          "duration": 0.39999999999997726,
          "durationTicks": 480,
          "midi": 67,
          "name": "G4",
          "ticks": 299520,
          "time": 249.60000000000002,
          "velocity": 0.8267716535433071
        },
        {
          "duration": 0.6999999999999886,
          "durationTicks": 840,
          "midi": 71,
          "name": "B4",
          "ticks": 299520,
          "time": 249.60000000000002,
          "velocity": 0.8267716535433071
        },
        {
          "duration": 0.4000000000000057,
          "durationTicks": 480,
          "midi": 71,
          "name": "B4",
          "ticks": 300000,
          "time": 250,
          "velocity": 0.8267716535433071
        },
        {
          "duration": 0.4000000000000057,
          "durationTicks": 480,
          "midi": 74,
          "name": "D5",
          "ticks": 300480,
          "time": 250.4,
          "velocity": 0.8267716535433071
        },
        {
          "duration": 0.9966666666666697,
          "durationTicks": 1196,
          "midi": 83,
          "name": "B5",
          "ticks": 300480,
          "time": 250.4,
          "velocity": 0.8267716535433071
        },
        {
          "duration": 0.3333333333333428,
          "durationTicks": 400,
          "midi": 71,
          "name": "B4",
          "ticks": 300960,
          "time": 250.8,
          "velocity": 0.8267716535433071
        },
        {
          "duration": 0.3333333333333428,
          "durationTicks": 400,
          "midi": 67,
          "name": "G4",
          "ticks": 301440,
          "time": 251.20000000000002,
          "velocity": 0.8267716535433071
        },
        {
          "duration": 0.06666666666666288,
          "durationTicks": 80,
          "midi": 86,
          "name": "D6",
          "ticks": 301680,
          "time": 251.4,
          "velocity": 0.8267716535433071
        },
        {
          "duration": 0.06666666666663446,
          "durationTicks": 80,
          "midi": 84,
          "name": "C6",
          "ticks": 301920,
          "time": 251.60000000000002,
          "velocity": 0.8267716535433071
        },
        {
          "duration": 0.06666666666666288,
          "durationTicks": 80,
          "midi": 83,
          "name": "B5",
          "ticks": 302160,
          "time": 251.8,
          "velocity": 0.8267716535433071
        },
        {
          "duration": 0.06666666666666288,
          "durationTicks": 80,
          "midi": 81,
          "name": "A5",
          "ticks": 302400,
          "time": 252,
          "velocity": 0.8267716535433071
        },
        {
          "duration": 0.06666666666663446,
          "durationTicks": 80,
          "midi": 79,
          "name": "G5",
          "ticks": 302640,
          "time": 252.20000000000002,
          "velocity": 0.8267716535433071
        },
        {
          "duration": 0.06666666666666288,
          "durationTicks": 80,
          "midi": 78,
          "name": "F#5",
          "ticks": 302880,
          "time": 252.4,
          "velocity": 0.8267716535433071
        },
        {
          "duration": 0.06666666666663446,
          "durationTicks": 80,
          "midi": 79,
          "name": "G5",
          "ticks": 303120,
          "time": 252.60000000000002,
          "velocity": 0.8267716535433071
        },
        {
          "duration": 12.300000000000011,
          "durationTicks": 14760,
          "midi": 79,
          "name": "G5",
          "ticks": 303360,
          "time": 252.8,
          "velocity": 0.8267716535433071
        },
        {
          "duration": 0.33333333333337123,
          "durationTicks": 400,
          "midi": 74,
          "name": "D5",
          "ticks": 318240,
          "time": 265.2,
          "velocity": 0.8267716535433071
        },
        {
          "duration": 0.33333333333337123,
          "durationTicks": 400,
          "midi": 83,
          "name": "B5",
          "ticks": 318240,
          "time": 265.2,
          "velocity": 0.8267716535433071
        },
        {
          "duration": 0.3333333333333144,
          "durationTicks": 400,
          "midi": 76,
          "name": "E5",
          "ticks": 318720,
          "time": 265.6,
          "velocity": 0.8267716535433071
        },
        {
          "duration": 0.3333333333333144,
          "durationTicks": 400,
          "midi": 81,
          "name": "A5",
          "ticks": 318720,
          "time": 265.6,
          "velocity": 0.8267716535433071
        },
        {
          "duration": 0.33333333333337123,
          "durationTicks": 400,
          "midi": 77,
          "name": "F5",
          "ticks": 319200,
          "time": 266,
          "velocity": 0.8267716535433071
        },
        {
          "duration": 0.33333333333337123,
          "durationTicks": 400,
          "midi": 80,
          "name": "G#5",
          "ticks": 319200,
          "time": 266,
          "velocity": 0.8267716535433071
        },
        {
          "duration": 0.3333333333333144,
          "durationTicks": 400,
          "midi": 76,
          "name": "E5",
          "ticks": 319680,
          "time": 266.40000000000003,
          "velocity": 0.8267716535433071
        },
        {
          "duration": 0.3333333333333144,
          "durationTicks": 400,
          "midi": 81,
          "name": "A5",
          "ticks": 319680,
          "time": 266.40000000000003,
          "velocity": 0.8267716535433071
        },
        {
          "duration": 0.33333333333337123,
          "durationTicks": 400,
          "midi": 77,
          "name": "F5",
          "ticks": 320160,
          "time": 266.8,
          "velocity": 0.8267716535433071
        },
        {
          "duration": 0.33333333333337123,
          "durationTicks": 400,
          "midi": 80,
          "name": "G#5",
          "ticks": 320160,
          "time": 266.8,
          "velocity": 0.8267716535433071
        },
        {
          "duration": 1.5,
          "durationTicks": 1800,
          "midi": 76,
          "name": "E5",
          "ticks": 320640,
          "time": 267.2,
          "velocity": 0.8267716535433071
        },
        {
          "duration": 0.33333333333337123,
          "durationTicks": 400,
          "midi": 81,
          "name": "A5",
          "ticks": 320640,
          "time": 267.2,
          "velocity": 0.8267716535433071
        },
        {
          "duration": 0.3333333333333144,
          "durationTicks": 400,
          "midi": 84,
          "name": "C6",
          "ticks": 321120,
          "time": 267.6,
          "velocity": 0.8267716535433071
        },
        {
          "duration": 0.33333333333337123,
          "durationTicks": 400,
          "midi": 81,
          "name": "A5",
          "ticks": 321600,
          "time": 268,
          "velocity": 0.8267716535433071
        },
        {
          "duration": 0.3333333333333144,
          "durationTicks": 400,
          "midi": 79,
          "name": "G5",
          "ticks": 322080,
          "time": 268.40000000000003,
          "velocity": 0.8267716535433071
        },
        {
          "duration": 0.33333333333337123,
          "durationTicks": 400,
          "midi": 74,
          "name": "D5",
          "ticks": 322560,
          "time": 268.8,
          "velocity": 0.8267716535433071
        },
        {
          "duration": 0.33333333333337123,
          "durationTicks": 400,
          "midi": 78,
          "name": "F#5",
          "ticks": 322560,
          "time": 268.8,
          "velocity": 0.8267716535433071
        },
        {
          "duration": 0.29666666666668107,
          "durationTicks": 356,
          "midi": 78,
          "name": "F#5",
          "ticks": 323040,
          "time": 269.2,
          "velocity": 0.8267716535433071
        },
        {
          "duration": 0.29666666666668107,
          "durationTicks": 356,
          "midi": 81,
          "name": "A5",
          "ticks": 323040,
          "time": 269.2,
          "velocity": 0.8267716535433071
        },
        {
          "duration": 0.09666666666669244,
          "durationTicks": 116,
          "midi": 78,
          "name": "F#5",
          "ticks": 323400,
          "time": 269.5,
          "velocity": 0.8267716535433071
        },
        {
          "duration": 0.09666666666669244,
          "durationTicks": 116,
          "midi": 81,
          "name": "A5",
          "ticks": 323400,
          "time": 269.5,
          "velocity": 0.8267716535433071
        },
        {
          "duration": 0.3333333333333144,
          "durationTicks": 400,
          "midi": 78,
          "name": "F#5",
          "ticks": 323520,
          "time": 269.6,
          "velocity": 0.8267716535433071
        },
        {
          "duration": 0.3333333333333144,
          "durationTicks": 400,
          "midi": 81,
          "name": "A5",
          "ticks": 323520,
          "time": 269.6,
          "velocity": 0.8267716535433071
        },
        {
          "duration": 0.33333333333337123,
          "durationTicks": 400,
          "midi": 78,
          "name": "F#5",
          "ticks": 324000,
          "time": 270,
          "velocity": 0.8267716535433071
        },
        {
          "duration": 0.33333333333337123,
          "durationTicks": 400,
          "midi": 81,
          "name": "A5",
          "ticks": 324000,
          "time": 270,
          "velocity": 0.8267716535433071
        },
        {
          "duration": 0.3333333333333144,
          "durationTicks": 400,
          "midi": 79,
          "name": "G5",
          "ticks": 324480,
          "time": 270.40000000000003,
          "velocity": 0.8267716535433071
        },
        {
          "duration": 0.3333333333333144,
          "durationTicks": 400,
          "midi": 83,
          "name": "B5",
          "ticks": 324480,
          "time": 270.40000000000003,
          "velocity": 0.8267716535433071
        },
        {
          "duration": 0.29666666666668107,
          "durationTicks": 356,
          "midi": 79,
          "name": "G5",
          "ticks": 324960,
          "time": 270.8,
          "velocity": 0.8267716535433071
        },
        {
          "duration": 0.29666666666668107,
          "durationTicks": 356,
          "midi": 83,
          "name": "B5",
          "ticks": 324960,
          "time": 270.8,
          "velocity": 0.8267716535433071
        },
        {
          "duration": 0.09666666666663559,
          "durationTicks": 116,
          "midi": 79,
          "name": "G5",
          "ticks": 325320,
          "time": 271.1,
          "velocity": 0.8267716535433071
        },
        {
          "duration": 0.09666666666663559,
          "durationTicks": 116,
          "midi": 83,
          "name": "B5",
          "ticks": 325320,
          "time": 271.1,
          "velocity": 0.8267716535433071
        },
        {
          "duration": 0.33333333333337123,
          "durationTicks": 400,
          "midi": 79,
          "name": "G5",
          "ticks": 325440,
          "time": 271.2,
          "velocity": 0.8267716535433071
        },
        {
          "duration": 0.33333333333337123,
          "durationTicks": 400,
          "midi": 83,
          "name": "B5",
          "ticks": 325440,
          "time": 271.2,
          "velocity": 0.8267716535433071
        },
        {
          "duration": 0.3333333333333144,
          "durationTicks": 400,
          "midi": 79,
          "name": "G5",
          "ticks": 325920,
          "time": 271.6,
          "velocity": 0.8267716535433071
        },
        {
          "duration": 0.3333333333333144,
          "durationTicks": 400,
          "midi": 83,
          "name": "B5",
          "ticks": 325920,
          "time": 271.6,
          "velocity": 0.8267716535433071
        },
        {
          "duration": 0.33333333333337123,
          "durationTicks": 400,
          "midi": 78,
          "name": "F#5",
          "ticks": 326400,
          "time": 272,
          "velocity": 0.8267716535433071
        },
        {
          "duration": 0.33333333333337123,
          "durationTicks": 400,
          "midi": 81,
          "name": "A5",
          "ticks": 326400,
          "time": 272,
          "velocity": 0.8267716535433071
        },
        {
          "duration": 0.2966666666666242,
          "durationTicks": 356,
          "midi": 78,
          "name": "F#5",
          "ticks": 326880,
          "time": 272.40000000000003,
          "velocity": 0.8267716535433071
        },
        {
          "duration": 0.2966666666666242,
          "durationTicks": 356,
          "midi": 81,
          "name": "A5",
          "ticks": 326880,
          "time": 272.40000000000003,
          "velocity": 0.8267716535433071
        },
        {
          "duration": 0.09666666666669244,
          "durationTicks": 116,
          "midi": 78,
          "name": "F#5",
          "ticks": 327240,
          "time": 272.7,
          "velocity": 0.8267716535433071
        },
        {
          "duration": 0.09666666666669244,
          "durationTicks": 116,
          "midi": 81,
          "name": "A5",
          "ticks": 327240,
          "time": 272.7,
          "velocity": 0.8267716535433071
        },
        {
          "duration": 0.33333333333337123,
          "durationTicks": 400,
          "midi": 78,
          "name": "F#5",
          "ticks": 327360,
          "time": 272.8,
          "velocity": 0.8267716535433071
        },
        {
          "duration": 0.33333333333337123,
          "durationTicks": 400,
          "midi": 81,
          "name": "A5",
          "ticks": 327360,
          "time": 272.8,
          "velocity": 0.8267716535433071
        },
        {
          "duration": 0.33333333333337123,
          "durationTicks": 400,
          "midi": 78,
          "name": "F#5",
          "ticks": 327840,
          "time": 273.2,
          "velocity": 0.8267716535433071
        },
        {
          "duration": 0.33333333333337123,
          "durationTicks": 400,
          "midi": 81,
          "name": "A5",
          "ticks": 327840,
          "time": 273.2,
          "velocity": 0.8267716535433071
        },
        {
          "duration": 0.3333333333333144,
          "durationTicks": 400,
          "midi": 79,
          "name": "G5",
          "ticks": 328320,
          "time": 273.6,
          "velocity": 0.8267716535433071
        },
        {
          "duration": 0.3333333333333144,
          "durationTicks": 400,
          "midi": 83,
          "name": "B5",
          "ticks": 328320,
          "time": 273.6,
          "velocity": 0.8267716535433071
        },
        {
          "duration": 0.29666666666668107,
          "durationTicks": 356,
          "midi": 79,
          "name": "G5",
          "ticks": 328800,
          "time": 274,
          "velocity": 0.8267716535433071
        },
        {
          "duration": 0.29666666666668107,
          "durationTicks": 356,
          "midi": 83,
          "name": "B5",
          "ticks": 328800,
          "time": 274,
          "velocity": 0.8267716535433071
        },
        {
          "duration": 0.09666666666669244,
          "durationTicks": 116,
          "midi": 79,
          "name": "G5",
          "ticks": 329160,
          "time": 274.3,
          "velocity": 0.8267716535433071
        },
        {
          "duration": 0.09666666666669244,
          "durationTicks": 116,
          "midi": 83,
          "name": "B5",
          "ticks": 329160,
          "time": 274.3,
          "velocity": 0.8267716535433071
        },
        {
          "duration": 0.3333333333333144,
          "durationTicks": 400,
          "midi": 79,
          "name": "G5",
          "ticks": 329280,
          "time": 274.40000000000003,
          "velocity": 0.8267716535433071
        },
        {
          "duration": 0.3333333333333144,
          "durationTicks": 400,
          "midi": 83,
          "name": "B5",
          "ticks": 329280,
          "time": 274.40000000000003,
          "velocity": 0.8267716535433071
        },
        {
          "duration": 0.33333333333337123,
          "durationTicks": 400,
          "midi": 79,
          "name": "G5",
          "ticks": 329760,
          "time": 274.8,
          "velocity": 0.8267716535433071
        },
        {
          "duration": 0.33333333333337123,
          "durationTicks": 400,
          "midi": 83,
          "name": "B5",
          "ticks": 329760,
          "time": 274.8,
          "velocity": 0.8267716535433071
        },
        {
          "duration": 0.33333333333337123,
          "durationTicks": 400,
          "midi": 78,
          "name": "F#5",
          "ticks": 330240,
          "time": 275.2,
          "velocity": 0.8267716535433071
        },
        {
          "duration": 0.33333333333337123,
          "durationTicks": 400,
          "midi": 81,
          "name": "A5",
          "ticks": 330240,
          "time": 275.2,
          "velocity": 0.8267716535433071
        },
        {
          "duration": 0.3333333333333144,
          "durationTicks": 400,
          "midi": 78,
          "name": "F#5",
          "ticks": 330720,
          "time": 275.6,
          "velocity": 0.8267716535433071
        },
        {
          "duration": 0.3333333333333144,
          "durationTicks": 400,
          "midi": 81,
          "name": "A5",
          "ticks": 330720,
          "time": 275.6,
          "velocity": 0.8267716535433071
        },
        {
          "duration": 0.3333333333333144,
          "durationTicks": 400,
          "midi": 79,
          "name": "G5",
          "ticks": 331680,
          "time": 276.40000000000003,
          "velocity": 0.8267716535433071
        },
        {
          "duration": 0.3333333333333144,
          "durationTicks": 400,
          "midi": 83,
          "name": "B5",
          "ticks": 331680,
          "time": 276.40000000000003,
          "velocity": 0.8267716535433071
        },
        {
          "duration": 0.33333333333337123,
          "durationTicks": 400,
          "midi": 78,
          "name": "F#5",
          "ticks": 332640,
          "time": 277.2,
          "velocity": 0.8267716535433071
        },
        {
          "duration": 0.33333333333337123,
          "durationTicks": 400,
          "midi": 81,
          "name": "A5",
          "ticks": 332640,
          "time": 277.2,
          "velocity": 0.8267716535433071
        },
        {
          "duration": 0.33333333333337123,
          "durationTicks": 400,
          "midi": 79,
          "name": "G5",
          "ticks": 333600,
          "time": 278,
          "velocity": 0.8267716535433071
        },
        {
          "duration": 0.33333333333337123,
          "durationTicks": 400,
          "midi": 83,
          "name": "B5",
          "ticks": 333600,
          "time": 278,
          "velocity": 0.8267716535433071
        },
        {
          "duration": 0.3333333333333144,
          "durationTicks": 400,
          "midi": 78,
          "name": "F#5",
          "ticks": 334080,
          "time": 278.40000000000003,
          "velocity": 0.8267716535433071
        },
        {
          "duration": 0.3333333333333144,
          "durationTicks": 400,
          "midi": 81,
          "name": "A5",
          "ticks": 334080,
          "time": 278.40000000000003,
          "velocity": 0.8267716535433071
        },
        {
          "duration": 3.1000000000000227,
          "durationTicks": 3720,
          "midi": 75,
          "name": "D#5",
          "ticks": 384000,
          "time": 320,
          "velocity": 0.8267716535433071
        },
        {
          "duration": 3.900000000000034,
          "durationTicks": 4680,
          "midi": 79,
          "name": "G5",
          "ticks": 384000,
          "time": 320,
          "velocity": 0.8267716535433071
        },
        {
          "duration": 0.6999999999999886,
          "durationTicks": 840,
          "midi": 76,
          "name": "E5",
          "ticks": 387840,
          "time": 323.20000000000005,
          "velocity": 0.8267716535433071
        },
        {
          "duration": 0.7000000000000455,
          "durationTicks": 840,
          "midi": 80,
          "name": "G#5",
          "ticks": 388800,
          "time": 324,
          "velocity": 0.8267716535433071
        },
        {
          "duration": 1.5,
          "durationTicks": 1800,
          "midi": 77,
          "name": "F5",
          "ticks": 389760,
          "time": 324.8,
          "velocity": 0.8267716535433071
        },
        {
          "duration": 0.8000000000000114,
          "durationTicks": 960,
          "midi": 81,
          "name": "A5",
          "ticks": 389760,
          "time": 324.8,
          "velocity": 0.8267716535433071
        },
        {
          "duration": 0.6999999999999886,
          "durationTicks": 840,
          "midi": 83,
          "name": "B5",
          "ticks": 390720,
          "time": 325.6,
          "velocity": 0.8267716535433071
        },
        {
          "duration": 3.099999999999966,
          "durationTicks": 3720,
          "midi": 76,
          "name": "E5",
          "ticks": 391680,
          "time": 326.40000000000003,
          "velocity": 0.8267716535433071
        },
        {
          "duration": 3.099999999999966,
          "durationTicks": 3720,
          "midi": 84,
          "name": "C6",
          "ticks": 391680,
          "time": 326.40000000000003,
          "velocity": 0.8267716535433071
        },
        {
          "duration": 0.33333333333337123,
          "durationTicks": 400,
          "midi": 74,
          "name": "D5",
          "ticks": 395520,
          "time": 329.6,
          "velocity": 0.8267716535433071
        },
        {
          "duration": 0.33333333333337123,
          "durationTicks": 400,
          "midi": 83,
          "name": "B5",
          "ticks": 395520,
          "time": 329.6,
          "velocity": 0.8267716535433071
        },
        {
          "duration": 0.33333333333337123,
          "durationTicks": 400,
          "midi": 62,
          "name": "D4",
          "ticks": 396000,
          "time": 330,
          "velocity": 0.8267716535433071
        },
        {
          "duration": 0.33333333333337123,
          "durationTicks": 400,
          "midi": 74,
          "name": "D5",
          "ticks": 396000,
          "time": 330,
          "velocity": 0.8267716535433071
        },
        {
          "duration": 0.3333333333333144,
          "durationTicks": 400,
          "midi": 67,
          "name": "G4",
          "ticks": 396480,
          "time": 330.40000000000003,
          "velocity": 0.8267716535433071
        },
        {
          "duration": 0.3333333333333144,
          "durationTicks": 400,
          "midi": 79,
          "name": "G5",
          "ticks": 396480,
          "time": 330.40000000000003,
          "velocity": 0.8267716535433071
        },
        {
          "duration": 0.33333333333337123,
          "durationTicks": 400,
          "midi": 71,
          "name": "B4",
          "ticks": 396960,
          "time": 330.8,
          "velocity": 0.8267716535433071
        },
        {
          "duration": 0.33333333333337123,
          "durationTicks": 400,
          "midi": 83,
          "name": "B5",
          "ticks": 396960,
          "time": 330.8,
          "velocity": 0.8267716535433071
        },
        {
          "duration": 1.099999999999966,
          "durationTicks": 1320,
          "midi": 74,
          "name": "D5",
          "ticks": 397440,
          "time": 331.20000000000005,
          "velocity": 0.8267716535433071
        },
        {
          "duration": 1.099999999999966,
          "durationTicks": 1320,
          "midi": 86,
          "name": "D6",
          "ticks": 397440,
          "time": 331.20000000000005,
          "velocity": 0.8267716535433071
        },
        {
          "duration": 0.3333333333333144,
          "durationTicks": 400,
          "midi": 78,
          "name": "F#5",
          "ticks": 398880,
          "time": 332.40000000000003,
          "velocity": 0.8267716535433071
        },
        {
          "duration": 4.699999999999989,
          "durationTicks": 5640,
          "midi": 79,
          "name": "G5",
          "ticks": 399360,
          "time": 332.8,
          "velocity": 0.8267716535433071
        },
        {
          "duration": 0.6999999999999886,
          "durationTicks": 840,
          "midi": 79,
          "name": "G5",
          "ticks": 405120,
          "time": 337.6,
          "velocity": 0.6771653543307087
        },
        {
          "duration": 0.6999999999999886,
          "durationTicks": 840,
          "midi": 79,
          "name": "G5",
          "ticks": 406080,
          "time": 338.40000000000003,
          "velocity": 0.6771653543307087
        },
        {
          "duration": 0.39999999999997726,
          "durationTicks": 480,
          "midi": 81,
          "name": "A5",
          "ticks": 407040,
          "time": 339.20000000000005,
          "velocity": 0.6771653543307087
        },
        {
          "duration": 0.39999999999997726,
          "durationTicks": 480,
          "midi": 84,
          "name": "C6",
          "ticks": 407040,
          "time": 339.20000000000005,
          "velocity": 0.6771653543307087
        },
        {
          "duration": 0.39999999999997726,
          "durationTicks": 480,
          "midi": 76,
          "name": "E5",
          "ticks": 407520,
          "time": 339.6,
          "velocity": 0.6771653543307087
        },
        {
          "duration": 0.6999999999999886,
          "durationTicks": 840,
          "midi": 81,
          "name": "A5",
          "ticks": 407520,
          "time": 339.6,
          "velocity": 0.6771653543307087
        },
        {
          "duration": 0.4000000000000341,
          "durationTicks": 480,
          "midi": 78,
          "name": "F#5",
          "ticks": 408000,
          "time": 340,
          "velocity": 0.6771653543307087
        },
        {
          "duration": 0.3333333333333144,
          "durationTicks": 400,
          "midi": 72,
          "name": "C5",
          "ticks": 408480,
          "time": 340.40000000000003,
          "velocity": 0.6771653543307087
        },
        {
          "duration": 0.3333333333333144,
          "durationTicks": 400,
          "midi": 78,
          "name": "F#5",
          "ticks": 408480,
          "time": 340.40000000000003,
          "velocity": 0.6771653543307087
        },
        {
          "duration": 0.6000000000000227,
          "durationTicks": 720,
          "midi": 71,
          "name": "B4",
          "ticks": 408960,
          "time": 340.8,
          "velocity": 0.6771653543307087
        },
        {
          "duration": 4.699999999999989,
          "durationTicks": 5640,
          "midi": 79,
          "name": "G5",
          "ticks": 408960,
          "time": 340.8,
          "velocity": 0.6771653543307087
        },
        {
          "duration": 0.19666666666665833,
          "durationTicks": 236,
          "midi": 69,
          "name": "A4",
          "ticks": 409680,
          "time": 341.40000000000003,
          "velocity": 0.6771653543307087
        },
        {
          "duration": 0.30000000000001137,
          "durationTicks": 360,
          "midi": 72,
          "name": "C5",
          "ticks": 409920,
          "time": 341.6,
          "velocity": 0.6771653543307087
        },
        {
          "duration": 0.09666666666663559,
          "durationTicks": 116,
          "midi": 71,
          "name": "B4",
          "ticks": 410280,
          "time": 341.90000000000003,
          "velocity": 0.6771653543307087
        },
        {
          "duration": 0.30000000000001137,
          "durationTicks": 360,
          "midi": 76,
          "name": "E5",
          "ticks": 410400,
          "time": 342,
          "velocity": 0.6771653543307087
        },
        {
          "duration": 0.09666666666669244,
          "durationTicks": 116,
          "midi": 74,
          "name": "D5",
          "ticks": 410760,
          "time": 342.3,
          "velocity": 0.6771653543307087
        },
        {
          "duration": 0.5999999999999659,
          "durationTicks": 720,
          "midi": 72,
          "name": "C5",
          "ticks": 410880,
          "time": 342.40000000000003,
          "velocity": 0.6771653543307087
        },
        {
          "duration": 0.19666666666671517,
          "durationTicks": 236,
          "midi": 71,
          "name": "B4",
          "ticks": 411600,
          "time": 343,
          "velocity": 0.6771653543307087
        },
        {
          "duration": 0.2999999999999545,
          "durationTicks": 360,
          "midi": 74,
          "name": "D5",
          "ticks": 411840,
          "time": 343.20000000000005,
          "velocity": 0.6771653543307087
        },
        {
          "duration": 0.09666666666669244,
          "durationTicks": 116,
          "midi": 72,
          "name": "C5",
          "ticks": 412200,
          "time": 343.5,
          "velocity": 0.6771653543307087
        },
        {
          "duration": 0.30000000000001137,
          "durationTicks": 360,
          "midi": 77,
          "name": "F5",
          "ticks": 412320,
          "time": 343.6,
          "velocity": 0.6771653543307087
        },
        {
          "duration": 0.09666666666663559,
          "durationTicks": 116,
          "midi": 76,
          "name": "E5",
          "ticks": 412680,
          "time": 343.90000000000003,
          "velocity": 0.6771653543307087
        },
        {
          "duration": 0.6000000000000227,
          "durationTicks": 720,
          "midi": 74,
          "name": "D5",
          "ticks": 412800,
          "time": 344,
          "velocity": 0.6771653543307087
        },
        {
          "duration": 0.19666666666665833,
          "durationTicks": 236,
          "midi": 73,
          "name": "C#5",
          "ticks": 413520,
          "time": 344.6,
          "velocity": 0.6771653543307087
        },
        {
          "duration": 0.30000000000001137,
          "durationTicks": 360,
          "midi": 76,
          "name": "E5",
          "ticks": 413760,
          "time": 344.8,
          "velocity": 0.6771653543307087
        },
        {
          "duration": 0.09666666666669244,
          "durationTicks": 116,
          "midi": 74,
          "name": "D5",
          "ticks": 414120,
          "time": 345.1,
          "velocity": 0.6771653543307087
        },
        {
          "duration": 0.2999999999999545,
          "durationTicks": 360,
          "midi": 79,
          "name": "G5",
          "ticks": 414240,
          "time": 345.20000000000005,
          "velocity": 0.6771653543307087
        },
        {
          "duration": 0.09666666666669244,
          "durationTicks": 116,
          "midi": 77,
          "name": "F5",
          "ticks": 414600,
          "time": 345.5,
          "velocity": 0.6771653543307087
        },
        {
          "duration": 0.39999999999997726,
          "durationTicks": 480,
          "midi": 76,
          "name": "E5",
          "ticks": 414720,
          "time": 345.6,
          "velocity": 0.6771653543307087
        },
        {
          "duration": 0.39999999999997726,
          "durationTicks": 480,
          "midi": 79,
          "name": "G5",
          "ticks": 414720,
          "time": 345.6,
          "velocity": 0.6771653543307087
        },
        {
          "duration": 0.33333333333337123,
          "durationTicks": 400,
          "midi": 77,
          "name": "F5",
          "ticks": 415200,
          "time": 346,
          "velocity": 0.6771653543307087
        },
        {
          "duration": 0.33333333333337123,
          "durationTicks": 400,
          "midi": 80,
          "name": "G#5",
          "ticks": 415200,
          "time": 346,
          "velocity": 0.6771653543307087
        },
        {
          "duration": 1.1333333333333258,
          "durationTicks": 1360,
          "midi": 76,
          "name": "E5",
          "ticks": 415680,
          "time": 346.40000000000003,
          "velocity": 0.6771653543307087
        },
        {
          "duration": 0.39999999999997726,
          "durationTicks": 480,
          "midi": 81,
          "name": "A5",
          "ticks": 415680,
          "time": 346.40000000000003,
          "velocity": 0.6771653543307087
        },
        {
          "duration": 0.4000000000000341,
          "durationTicks": 480,
          "midi": 83,
          "name": "B5",
          "ticks": 416160,
          "time": 346.8,
          "velocity": 0.6771653543307087
        },
        {
          "duration": 0.3333333333333144,
          "durationTicks": 400,
          "midi": 84,
          "name": "C6",
          "ticks": 416640,
          "time": 347.20000000000005,
          "velocity": 0.6771653543307087
        },
        {
          "duration": 0.6999999999999886,
          "durationTicks": 840,
          "midi": 72,
          "name": "C5",
          "ticks": 417120,
          "time": 347.6,
          "velocity": 0.6771653543307087
        },
        {
          "duration": 0.39999999999997726,
          "durationTicks": 480,
          "midi": 75,
          "name": "D#5",
          "ticks": 417120,
          "time": 347.6,
          "velocity": 0.6771653543307087
        },
        {
          "duration": 0.4000000000000341,
          "durationTicks": 480,
          "midi": 74,
          "name": "D5",
          "ticks": 417600,
          "time": 348,
          "velocity": 0.6771653543307087
        },
        {
          "duration": 0.39999999999997726,
          "durationTicks": 480,
          "midi": 72,
          "name": "C5",
          "ticks": 418080,
          "time": 348.40000000000003,
          "velocity": 0.6771653543307087
        },
        {
          "duration": 0.39999999999997726,
          "durationTicks": 480,
          "midi": 75,
          "name": "D#5",
          "ticks": 418080,
          "time": 348.40000000000003,
          "velocity": 0.6771653543307087
        },
        {
          "duration": 0.33333333333337123,
          "durationTicks": 400,
          "midi": 72,
          "name": "C5",
          "ticks": 418560,
          "time": 348.8,
          "velocity": 0.6771653543307087
        },
        {
          "duration": 0.33333333333337123,
          "durationTicks": 400,
          "midi": 74,
          "name": "D5",
          "ticks": 418560,
          "time": 348.8,
          "velocity": 0.6771653543307087
        },
        {
          "duration": 6.7333333333333485,
          "durationTicks": 8080,
          "midi": 74,
          "name": "D5",
          "ticks": 426240,
          "time": 355.20000000000005,
          "velocity": 0.4015748031496063
        },
        {
          "duration": 0.19666666666671517,
          "durationTicks": 236,
          "midi": 72,
          "name": "C5",
          "ticks": 436800,
          "time": 364,
          "velocity": 0.4015748031496063
        },
        {
          "duration": 0.19666666666671517,
          "durationTicks": 236,
          "midi": 78,
          "name": "F#5",
          "ticks": 436800,
          "time": 364,
          "velocity": 0.4015748031496063
        },
        {
          "duration": 0.19666666666665833,
          "durationTicks": 236,
          "midi": 72,
          "name": "C5",
          "ticks": 437280,
          "time": 364.40000000000003,
          "velocity": 0.4015748031496063
        },
        {
          "duration": 0.19666666666665833,
          "durationTicks": 236,
          "midi": 78,
          "name": "F#5",
          "ticks": 437280,
          "time": 364.40000000000003,
          "velocity": 0.4015748031496063
        },
        {
          "duration": 0.33333333333337123,
          "durationTicks": 400,
          "midi": 71,
          "name": "B4",
          "ticks": 437760,
          "time": 364.8,
          "velocity": 0.4015748031496063
        },
        {
          "duration": 0.33333333333337123,
          "durationTicks": 400,
          "midi": 79,
          "name": "G5",
          "ticks": 437760,
          "time": 364.8,
          "velocity": 0.4015748031496063
        },
        {
          "duration": 0.19666666666665833,
          "durationTicks": 236,
          "midi": 72,
          "name": "C5",
          "ticks": 440640,
          "time": 367.20000000000005,
          "velocity": 0.4015748031496063
        },
        {
          "duration": 0.19666666666665833,
          "durationTicks": 236,
          "midi": 78,
          "name": "F#5",
          "ticks": 440640,
          "time": 367.20000000000005,
          "velocity": 0.4015748031496063
        },
        {
          "duration": 0.19666666666665833,
          "durationTicks": 236,
          "midi": 72,
          "name": "C5",
          "ticks": 441120,
          "time": 367.6,
          "velocity": 0.4015748031496063
        },
        {
          "duration": 0.19666666666665833,
          "durationTicks": 236,
          "midi": 78,
          "name": "F#5",
          "ticks": 441120,
          "time": 367.6,
          "velocity": 0.4015748031496063
        },
        {
          "duration": 0.19666666666671517,
          "durationTicks": 236,
          "midi": 71,
          "name": "B4",
          "ticks": 441600,
          "time": 368,
          "velocity": 0.4015748031496063
        },
        {
          "duration": 0.19666666666671517,
          "durationTicks": 236,
          "midi": 79,
          "name": "G5",
          "ticks": 441600,
          "time": 368,
          "velocity": 0.4015748031496063
        },
        {
          "duration": 0.19999999999998863,
          "durationTicks": 240,
          "midi": 74,
          "name": "D5",
          "ticks": 442080,
          "time": 368.40000000000003,
          "velocity": 0.8267716535433071
        },
        {
          "duration": 0.19999999999998863,
          "durationTicks": 240,
          "midi": 73,
          "name": "C#5",
          "ticks": 442320,
          "time": 368.6,
          "velocity": 0.8267716535433071
        },
        {
          "duration": 0.19999999999998863,
          "durationTicks": 240,
          "midi": 74,
          "name": "D5",
          "ticks": 442560,
          "time": 368.8,
          "velocity": 0.8267716535433071
        },
        {
          "duration": 0.20000000000004547,
          "durationTicks": 240,
          "midi": 73,
          "name": "C#5",
          "ticks": 442800,
          "time": 369,
          "velocity": 0.8267716535433071
        },
        {
          "duration": 0.19999999999998863,
          "durationTicks": 240,
          "midi": 74,
          "name": "D5",
          "ticks": 443040,
          "time": 369.20000000000005,
          "velocity": 0.8267716535433071
        },
        {
          "duration": 0.19666666666665833,
          "durationTicks": 236,
          "midi": 71,
          "name": "B4",
          "ticks": 443280,
          "time": 369.40000000000003,
          "velocity": 0.8267716535433071
        },
        {
          "duration": 0.19666666666665833,
          "durationTicks": 236,
          "midi": 72,
          "name": "C5",
          "ticks": 443520,
          "time": 369.6,
          "velocity": 0.8267716535433071
        },
        {
          "duration": 0.20000000000004547,
          "durationTicks": 240,
          "midi": 72,
          "name": "C5",
          "ticks": 444000,
          "time": 370,
          "velocity": 0.8267716535433071
        },
        {
          "duration": 0.19999999999998863,
          "durationTicks": 240,
          "midi": 71,
          "name": "B4",
          "ticks": 444240,
          "time": 370.20000000000005,
          "velocity": 0.8267716535433071
        },
        {
          "duration": 0.19999999999998863,
          "durationTicks": 240,
          "midi": 72,
          "name": "C5",
          "ticks": 444480,
          "time": 370.40000000000003,
          "velocity": 0.8267716535433071
        },
        {
          "duration": 0.19999999999998863,
          "durationTicks": 240,
          "midi": 71,
          "name": "B4",
          "ticks": 444720,
          "time": 370.6,
          "velocity": 0.8267716535433071
        },
        {
          "duration": 0.19999999999998863,
          "durationTicks": 240,
          "midi": 72,
          "name": "C5",
          "ticks": 444960,
          "time": 370.8,
          "velocity": 0.8267716535433071
        },
        {
          "duration": 0.19666666666671517,
          "durationTicks": 236,
          "midi": 69,
          "name": "A4",
          "ticks": 445200,
          "time": 371,
          "velocity": 0.8267716535433071
        },
        {
          "duration": 0.19666666666665833,
          "durationTicks": 236,
          "midi": 71,
          "name": "B4",
          "ticks": 445440,
          "time": 371.20000000000005,
          "velocity": 0.8267716535433071
        },
        {
          "duration": 0.05000000000001137,
          "durationTicks": 60,
          "midi": 72,
          "name": "C5",
          "ticks": 445920,
          "time": 371.6,
          "velocity": 0.8267716535433071
        },
        {
          "duration": 0.05000000000001137,
          "durationTicks": 60,
          "midi": 81,
          "name": "A5",
          "ticks": 445920,
          "time": 371.6,
          "velocity": 0.8267716535433071
        },
        {
          "duration": 0.05000000000001137,
          "durationTicks": 60,
          "midi": 71,
          "name": "B4",
          "ticks": 445980,
          "time": 371.65000000000003,
          "velocity": 0.8267716535433071
        },
        {
          "duration": 0.05000000000001137,
          "durationTicks": 60,
          "midi": 79,
          "name": "G5",
          "ticks": 445980,
          "time": 371.65000000000003,
          "velocity": 0.8267716535433071
        },
        {
          "duration": 0.049999999999954525,
          "durationTicks": 60,
          "midi": 72,
          "name": "C5",
          "ticks": 446040,
          "time": 371.70000000000005,
          "velocity": 0.8267716535433071
        },
        {
          "duration": 0.049999999999954525,
          "durationTicks": 60,
          "midi": 81,
          "name": "A5",
          "ticks": 446040,
          "time": 371.70000000000005,
          "velocity": 0.8267716535433071
        },
        {
          "duration": 0.05000000000001137,
          "durationTicks": 60,
          "midi": 71,
          "name": "B4",
          "ticks": 446100,
          "time": 371.75,
          "velocity": 0.8267716535433071
        },
        {
          "duration": 0.05000000000001137,
          "durationTicks": 60,
          "midi": 79,
          "name": "G5",
          "ticks": 446100,
          "time": 371.75,
          "velocity": 0.8267716535433071
        },
        {
          "duration": 0.10000000000002274,
          "durationTicks": 120,
          "midi": 69,
          "name": "A4",
          "ticks": 446160,
          "time": 371.8,
          "velocity": 0.8267716535433071
        },
        {
          "duration": 0.10000000000002274,
          "durationTicks": 120,
          "midi": 78,
          "name": "F#5",
          "ticks": 446160,
          "time": 371.8,
          "velocity": 0.8267716535433071
        },
        {
          "duration": 0.0999999999999659,
          "durationTicks": 120,
          "midi": 71,
          "name": "B4",
          "ticks": 446280,
          "time": 371.90000000000003,
          "velocity": 0.8267716535433071
        },
        {
          "duration": 0.0999999999999659,
          "durationTicks": 120,
          "midi": 79,
          "name": "G5",
          "ticks": 446280,
          "time": 371.90000000000003,
          "velocity": 0.8267716535433071
        },
        {
          "duration": 0.19666666666671517,
          "durationTicks": 236,
          "midi": 72,
          "name": "C5",
          "ticks": 446400,
          "time": 372,
          "velocity": 0.8267716535433071
        },
        {
          "duration": 0.19666666666671517,
          "durationTicks": 236,
          "midi": 81,
          "name": "A5",
          "ticks": 446400,
          "time": 372,
          "velocity": 0.8267716535433071
        },
        {
          "duration": 0.06666666666660603,
          "durationTicks": 80,
          "midi": 72,
          "name": "C5",
          "ticks": 446640,
          "time": 372.20000000000005,
          "velocity": 0.8267716535433071
        },
        {
          "duration": 0.06666666666660603,
          "durationTicks": 80,
          "midi": 81,
          "name": "A5",
          "ticks": 446640,
          "time": 372.20000000000005,
          "velocity": 0.8267716535433071
        },
        {
          "duration": 0.06666666666666288,
          "durationTicks": 80,
          "midi": 69,
          "name": "A4",
          "ticks": 446880,
          "time": 372.40000000000003,
          "velocity": 0.8267716535433071
        },
        {
          "duration": 0.06666666666666288,
          "durationTicks": 80,
          "midi": 78,
          "name": "F#5",
          "ticks": 446880,
          "time": 372.40000000000003,
          "velocity": 0.8267716535433071
        },
        {
          "duration": 0.06666666666666288,
          "durationTicks": 80,
          "midi": 69,
          "name": "A4",
          "ticks": 447120,
          "time": 372.6,
          "velocity": 0.8267716535433071
        },
        {
          "duration": 0.06666666666666288,
          "durationTicks": 80,
          "midi": 78,
          "name": "F#5",
          "ticks": 447120,
          "time": 372.6,
          "velocity": 0.8267716535433071
        },
        {
          "duration": 0.19666666666665833,
          "durationTicks": 236,
          "midi": 71,
          "name": "B4",
          "ticks": 447360,
          "time": 372.8,
          "velocity": 0.8267716535433071
        },
        {
          "duration": 0.19666666666665833,
          "durationTicks": 236,
          "midi": 79,
          "name": "G5",
          "ticks": 447360,
          "time": 372.8,
          "velocity": 0.8267716535433071
        },
        {
          "duration": 0.19999999999998863,
          "durationTicks": 240,
          "midi": 74,
          "name": "D5",
          "ticks": 447840,
          "time": 373.20000000000005,
          "velocity": 0.8267716535433071
        },
        {
          "duration": 0.19999999999998863,
          "durationTicks": 240,
          "midi": 73,
          "name": "C#5",
          "ticks": 448080,
          "time": 373.40000000000003,
          "velocity": 0.8267716535433071
        },
        {
          "duration": 0.19999999999998863,
          "durationTicks": 240,
          "midi": 74,
          "name": "D5",
          "ticks": 448320,
          "time": 373.6,
          "velocity": 0.8267716535433071
        },
        {
          "duration": 0.19999999999998863,
          "durationTicks": 240,
          "midi": 73,
          "name": "C#5",
          "ticks": 448560,
          "time": 373.8,
          "velocity": 0.8267716535433071
        },
        {
          "duration": 0.20000000000004547,
          "durationTicks": 240,
          "midi": 74,
          "name": "D5",
          "ticks": 448800,
          "time": 374,
          "velocity": 0.8267716535433071
        },
        {
          "duration": 0.19666666666665833,
          "durationTicks": 236,
          "midi": 71,
          "name": "B4",
          "ticks": 449040,
          "time": 374.20000000000005,
          "velocity": 0.8267716535433071
        },
        {
          "duration": 0.19666666666665833,
          "durationTicks": 236,
          "midi": 72,
          "name": "C5",
          "ticks": 449280,
          "time": 374.40000000000003,
          "velocity": 0.8267716535433071
        },
        {
          "duration": 0.19999999999998863,
          "durationTicks": 240,
          "midi": 72,
          "name": "C5",
          "ticks": 449760,
          "time": 374.8,
          "velocity": 0.8267716535433071
        },
        {
          "duration": 0.20000000000004547,
          "durationTicks": 240,
          "midi": 71,
          "name": "B4",
          "ticks": 450000,
          "time": 375,
          "velocity": 0.8267716535433071
        },
        {
          "duration": 0.19999999999998863,
          "durationTicks": 240,
          "midi": 72,
          "name": "C5",
          "ticks": 450240,
          "time": 375.20000000000005,
          "velocity": 0.8267716535433071
        },
        {
          "duration": 0.19999999999998863,
          "durationTicks": 240,
          "midi": 71,
          "name": "B4",
          "ticks": 450480,
          "time": 375.40000000000003,
          "velocity": 0.8267716535433071
        },
        {
          "duration": 0.19999999999998863,
          "durationTicks": 240,
          "midi": 72,
          "name": "C5",
          "ticks": 450720,
          "time": 375.6,
          "velocity": 0.8267716535433071
        },
        {
          "duration": 0.19666666666665833,
          "durationTicks": 236,
          "midi": 69,
          "name": "A4",
          "ticks": 450960,
          "time": 375.8,
          "velocity": 0.8267716535433071
        },
        {
          "duration": 0.19666666666671517,
          "durationTicks": 236,
          "midi": 71,
          "name": "B4",
          "ticks": 451200,
          "time": 376,
          "velocity": 0.8267716535433071
        },
        {
          "duration": 0.05000000000001137,
          "durationTicks": 60,
          "midi": 72,
          "name": "C5",
          "ticks": 451680,
          "time": 376.40000000000003,
          "velocity": 0.8267716535433071
        },
        {
          "duration": 0.05000000000001137,
          "durationTicks": 60,
          "midi": 81,
          "name": "A5",
          "ticks": 451680,
          "time": 376.40000000000003,
          "velocity": 0.8267716535433071
        },
        {
          "duration": 0.049999999999954525,
          "durationTicks": 60,
          "midi": 71,
          "name": "B4",
          "ticks": 451740,
          "time": 376.45000000000005,
          "velocity": 0.8267716535433071
        },
        {
          "duration": 0.049999999999954525,
          "durationTicks": 60,
          "midi": 79,
          "name": "G5",
          "ticks": 451740,
          "time": 376.45000000000005,
          "velocity": 0.8267716535433071
        },
        {
          "duration": 0.05000000000001137,
          "durationTicks": 60,
          "midi": 72,
          "name": "C5",
          "ticks": 451800,
          "time": 376.5,
          "velocity": 0.8267716535433071
        },
        {
          "duration": 0.05000000000001137,
          "durationTicks": 60,
          "midi": 81,
          "name": "A5",
          "ticks": 451800,
          "time": 376.5,
          "velocity": 0.8267716535433071
        },
        {
          "duration": 0.05000000000001137,
          "durationTicks": 60,
          "midi": 71,
          "name": "B4",
          "ticks": 451860,
          "time": 376.55,
          "velocity": 0.8267716535433071
        },
        {
          "duration": 0.05000000000001137,
          "durationTicks": 60,
          "midi": 79,
          "name": "G5",
          "ticks": 451860,
          "time": 376.55,
          "velocity": 0.8267716535433071
        },
        {
          "duration": 0.10000000000002274,
          "durationTicks": 120,
          "midi": 69,
          "name": "A4",
          "ticks": 451920,
          "time": 376.6,
          "velocity": 0.8267716535433071
        },
        {
          "duration": 0.10000000000002274,
          "durationTicks": 120,
          "midi": 78,
          "name": "F#5",
          "ticks": 451920,
          "time": 376.6,
          "velocity": 0.8267716535433071
        },
        {
          "duration": 0.0999999999999659,
          "durationTicks": 120,
          "midi": 71,
          "name": "B4",
          "ticks": 452040,
          "time": 376.70000000000005,
          "velocity": 0.8267716535433071
        },
        {
          "duration": 0.0999999999999659,
          "durationTicks": 120,
          "midi": 79,
          "name": "G5",
          "ticks": 452040,
          "time": 376.70000000000005,
          "velocity": 0.8267716535433071
        },
        {
          "duration": 0.19999999999998863,
          "durationTicks": 240,
          "midi": 72,
          "name": "C5",
          "ticks": 452160,
          "time": 376.8,
          "velocity": 0.8267716535433071
        },
        {
          "duration": 0.19999999999998863,
          "durationTicks": 240,
          "midi": 81,
          "name": "A5",
          "ticks": 452160,
          "time": 376.8,
          "velocity": 0.8267716535433071
        },
        {
          "duration": 0.06666666666666288,
          "durationTicks": 80,
          "midi": 72,
          "name": "C5",
          "ticks": 452400,
          "time": 377,
          "velocity": 0.8267716535433071
        },
        {
          "duration": 0.06666666666666288,
          "durationTicks": 80,
          "midi": 81,
          "name": "A5",
          "ticks": 452400,
          "time": 377,
          "velocity": 0.8267716535433071
        },
        {
          "duration": 0.06666666666660603,
          "durationTicks": 80,
          "midi": 69,
          "name": "A4",
          "ticks": 452640,
          "time": 377.20000000000005,
          "velocity": 0.8267716535433071
        },
        {
          "duration": 0.06666666666660603,
          "durationTicks": 80,
          "midi": 78,
          "name": "F#5",
          "ticks": 452640,
          "time": 377.20000000000005,
          "velocity": 0.8267716535433071
        },
        {
          "duration": 0.06666666666666288,
          "durationTicks": 80,
          "midi": 69,
          "name": "A4",
          "ticks": 452880,
          "time": 377.40000000000003,
          "velocity": 0.8267716535433071
        },
        {
          "duration": 0.06666666666666288,
          "durationTicks": 80,
          "midi": 78,
          "name": "F#5",
          "ticks": 452880,
          "time": 377.40000000000003,
          "velocity": 0.8267716535433071
        },
        {
          "duration": 0.33333333333337123,
          "durationTicks": 400,
          "midi": 71,
          "name": "B4",
          "ticks": 453120,
          "time": 377.6,
          "velocity": 0.8267716535433071
        },
        {
          "duration": 0.33333333333337123,
          "durationTicks": 400,
          "midi": 79,
          "name": "G5",
          "ticks": 453120,
          "time": 377.6,
          "velocity": 0.8267716535433071
        },
        {
          "duration": 0.3333333333333144,
          "durationTicks": 400,
          "midi": 78,
          "name": "F#5",
          "ticks": 454080,
          "time": 378.40000000000003,
          "velocity": 0.8267716535433071
        },
        {
          "duration": 0.3333333333333144,
          "durationTicks": 400,
          "midi": 81,
          "name": "A5",
          "ticks": 454080,
          "time": 378.40000000000003,
          "velocity": 0.8267716535433071
        },
        {
          "duration": 0.3333333333333144,
          "durationTicks": 400,
          "midi": 79,
          "name": "G5",
          "ticks": 455040,
          "time": 379.20000000000005,
          "velocity": 0.8267716535433071
        },
        {
          "duration": 0.3333333333333144,
          "durationTicks": 400,
          "midi": 83,
          "name": "B5",
          "ticks": 455040,
          "time": 379.20000000000005,
          "velocity": 0.8267716535433071
        },
        {
          "duration": 0.33333333333337123,
          "durationTicks": 400,
          "midi": 78,
          "name": "F#5",
          "ticks": 456000,
          "time": 380,
          "velocity": 0.8267716535433071
        },
        {
          "duration": 0.33333333333337123,
          "durationTicks": 400,
          "midi": 81,
          "name": "A5",
          "ticks": 456000,
          "time": 380,
          "velocity": 0.8267716535433071
        },
        {
          "duration": 0.33333333333337123,
          "durationTicks": 400,
          "midi": 79,
          "name": "G5",
          "ticks": 456960,
          "time": 380.8,
          "velocity": 0.8267716535433071
        },
        {
          "duration": 0.33333333333337123,
          "durationTicks": 400,
          "midi": 83,
          "name": "B5",
          "ticks": 456960,
          "time": 380.8,
          "velocity": 0.8267716535433071
        },
        {
          "duration": 0.33333333333337123,
          "durationTicks": 400,
          "midi": 78,
          "name": "F#5",
          "ticks": 457920,
          "time": 381.6,
          "velocity": 0.8267716535433071
        },
        {
          "duration": 0.33333333333337123,
          "durationTicks": 400,
          "midi": 81,
          "name": "A5",
          "ticks": 457920,
          "time": 381.6,
          "velocity": 0.8267716535433071
        },
        {
          "duration": 0.0999999999999659,
          "durationTicks": 120,
          "midi": 79,
          "name": "G5",
          "ticks": 458880,
          "time": 382.40000000000003,
          "velocity": 0.8267716535433071
        },
        {
          "duration": 0.10000000000002274,
          "durationTicks": 120,
          "midi": 74,
          "name": "D5",
          "ticks": 459360,
          "time": 382.8,
          "velocity": 0.8267716535433071
        },
        {
          "duration": 0.10000000000002274,
          "durationTicks": 120,
          "midi": 83,
          "name": "B5",
          "ticks": 459360,
          "time": 382.8,
          "velocity": 0.8267716535433071
        },
        {
          "duration": 0.0999999999999659,
          "durationTicks": 120,
          "midi": 71,
          "name": "B4",
          "ticks": 459840,
          "time": 383.20000000000005,
          "velocity": 0.8267716535433071
        },
        {
          "duration": 0.0999999999999659,
          "durationTicks": 120,
          "midi": 79,
          "name": "G5",
          "ticks": 459840,
          "time": 383.20000000000005,
          "velocity": 0.8267716535433071
        },
        {
          "duration": 1.6000000000000227,
          "durationTicks": 1920,
          "midi": 67,
          "name": "G4",
          "ticks": 460800,
          "time": 384,
          "velocity": 0.4015748031496063
        },
        {
          "duration": 1.6000000000000227,
          "durationTicks": 1920,
          "midi": 79,
          "name": "G5",
          "ticks": 460800,
          "time": 384,
          "velocity": 0.4015748031496063
        },
        {
          "duration": 0.8000000000000114,
          "durationTicks": 960,
          "midi": 65,
          "name": "F4",
          "ticks": 462720,
          "time": 385.6,
          "velocity": 0.4015748031496063
        },
        {
          "duration": 0.8000000000000114,
          "durationTicks": 960,
          "midi": 77,
          "name": "F5",
          "ticks": 462720,
          "time": 385.6,
          "velocity": 0.4015748031496063
        },
        {
          "duration": 0.6999999999999886,
          "durationTicks": 840,
          "midi": 70,
          "name": "A#4",
          "ticks": 463680,
          "time": 386.40000000000003,
          "velocity": 0.4015748031496063
        },
        {
          "duration": 0.6999999999999886,
          "durationTicks": 840,
          "midi": 82,
          "name": "A#5",
          "ticks": 463680,
          "time": 386.40000000000003,
          "velocity": 0.4015748031496063
        },
        {
          "duration": 0.3333333333333144,
          "durationTicks": 400,
          "midi": 63,
          "name": "D#4",
          "ticks": 464640,
          "time": 387.20000000000005,
          "velocity": 0.4015748031496063
        },
        {
          "duration": 0.3333333333333144,
          "durationTicks": 400,
          "midi": 75,
          "name": "D#5",
          "ticks": 464640,
          "time": 387.20000000000005,
          "velocity": 0.4015748031496063
        },
        {
          "duration": 6.7333333333333485,
          "durationTicks": 8080,
          "midi": 70,
          "name": "A#4",
          "ticks": 468480,
          "time": 390.40000000000003,
          "velocity": 0.4015748031496063
        },
        {
          "duration": 0.6000000000000227,
          "durationTicks": 720,
          "midi": 75,
          "name": "D#5",
          "ticks": 480000,
          "time": 400,
          "velocity": 0.4015748031496063
        },
        {
          "duration": 0.19666666666665833,
          "durationTicks": 236,
          "midi": 79,
          "name": "G5",
          "ticks": 480720,
          "time": 400.6,
          "velocity": 0.4015748031496063
        },
        {
          "duration": 0.6000000000000227,
          "durationTicks": 720,
          "midi": 72,
          "name": "C5",
          "ticks": 480960,
          "time": 400.8,
          "velocity": 0.4015748031496063
        },
        {
          "duration": 0.19666666666665833,
          "durationTicks": 236,
          "midi": 80,
          "name": "G#5",
          "ticks": 481680,
          "time": 401.40000000000003,
          "velocity": 0.4015748031496063
        },
        {
          "duration": 0.19999999999998863,
          "durationTicks": 240,
          "midi": 77,
          "name": "F5",
          "ticks": 481920,
          "time": 401.6,
          "velocity": 0.4015748031496063
        },
        {
          "duration": 0.19666666666665833,
          "durationTicks": 236,
          "midi": 84,
          "name": "C6",
          "ticks": 482160,
          "time": 401.8,
          "velocity": 0.4015748031496063
        },
        {
          "duration": 0.06666666666666288,
          "durationTicks": 80,
          "midi": 80,
          "name": "G#5",
          "ticks": 482400,
          "time": 402,
          "velocity": 0.4015748031496063
        },
        {
          "duration": 0.06666666666660603,
          "durationTicks": 80,
          "midi": 77,
          "name": "F5",
          "ticks": 482640,
          "time": 402.20000000000005,
          "velocity": 0.4015748031496063
        },
        {
          "duration": 0.06666666666666288,
          "durationTicks": 80,
          "midi": 74,
          "name": "D5",
          "ticks": 482880,
          "time": 402.40000000000003,
          "velocity": 0.4015748031496063
        },
        {
          "duration": 0.06666666666666288,
          "durationTicks": 80,
          "midi": 75,
          "name": "D#5",
          "ticks": 483120,
          "time": 402.6,
          "velocity": 0.4015748031496063
        },
        {
          "duration": 0.06666666666666288,
          "durationTicks": 80,
          "midi": 77,
          "name": "F5",
          "ticks": 483360,
          "time": 402.8,
          "velocity": 0.4015748031496063
        },
        {
          "duration": 0.06666666666666288,
          "durationTicks": 80,
          "midi": 79,
          "name": "G5",
          "ticks": 483600,
          "time": 403,
          "velocity": 0.4015748031496063
        },
        {
          "duration": 0.3333333333333144,
          "durationTicks": 400,
          "midi": 75,
          "name": "D#5",
          "ticks": 483840,
          "time": 403.20000000000005,
          "velocity": 0.4015748031496063
        },
        {
          "duration": 0.29666666666668107,
          "durationTicks": 356,
          "midi": 75,
          "name": "D#5",
          "ticks": 484320,
          "time": 403.6,
          "velocity": 0.8267716535433071
        },
        {
          "duration": 0.29666666666668107,
          "durationTicks": 356,
          "midi": 79,
          "name": "G5",
          "ticks": 484320,
          "time": 403.6,
          "velocity": 0.8267716535433071
        },
        {
          "duration": 0.09666666666663559,
          "durationTicks": 116,
          "midi": 75,
          "name": "D#5",
          "ticks": 484680,
          "time": 403.90000000000003,
          "velocity": 0.8267716535433071
        },
        {
          "duration": 0.09666666666663559,
          "durationTicks": 116,
          "midi": 79,
          "name": "G5",
          "ticks": 484680,
          "time": 403.90000000000003,
          "velocity": 0.8267716535433071
        },
        {
          "duration": 0.33333333333337123,
          "durationTicks": 400,
          "midi": 74,
          "name": "D5",
          "ticks": 484800,
          "time": 404,
          "velocity": 0.8267716535433071
        },
        {
          "duration": 0.33333333333337123,
          "durationTicks": 400,
          "midi": 77,
          "name": "F5",
          "ticks": 484800,
          "time": 404,
          "velocity": 0.8267716535433071
        },
        {
          "duration": 0.3333333333333144,
          "durationTicks": 400,
          "midi": 74,
          "name": "D5",
          "ticks": 485280,
          "time": 404.40000000000003,
          "velocity": 0.8267716535433071
        },
        {
          "duration": 0.3333333333333144,
          "durationTicks": 400,
          "midi": 77,
          "name": "F5",
          "ticks": 485280,
          "time": 404.40000000000003,
          "velocity": 0.8267716535433071
        },
        {
          "duration": 0.33333333333337123,
          "durationTicks": 400,
          "midi": 75,
          "name": "D#5",
          "ticks": 485760,
          "time": 404.8,
          "velocity": 0.8267716535433071
        },
        {
          "duration": 0.33333333333337123,
          "durationTicks": 400,
          "midi": 79,
          "name": "G5",
          "ticks": 485760,
          "time": 404.8,
          "velocity": 0.8267716535433071
        },
        {
          "duration": 0.2966666666666242,
          "durationTicks": 356,
          "midi": 63,
          "name": "D#4",
          "ticks": 486240,
          "time": 405.20000000000005,
          "velocity": 0.8267716535433071
        },
        {
          "duration": 0.2966666666666242,
          "durationTicks": 356,
          "midi": 67,
          "name": "G4",
          "ticks": 486240,
          "time": 405.20000000000005,
          "velocity": 0.8267716535433071
        },
        {
          "duration": 0.09666666666669244,
          "durationTicks": 116,
          "midi": 63,
          "name": "D#4",
          "ticks": 486600,
          "time": 405.5,
          "velocity": 0.8267716535433071
        },
        {
          "duration": 0.09666666666669244,
          "durationTicks": 116,
          "midi": 67,
          "name": "G4",
          "ticks": 486600,
          "time": 405.5,
          "velocity": 0.8267716535433071
        },
        {
          "duration": 0.33333333333337123,
          "durationTicks": 400,
          "midi": 65,
          "name": "F4",
          "ticks": 486720,
          "time": 405.6,
          "velocity": 0.8267716535433071
        },
        {
          "duration": 0.33333333333337123,
          "durationTicks": 400,
          "midi": 68,
          "name": "G#4",
          "ticks": 486720,
          "time": 405.6,
          "velocity": 0.8267716535433071
        },
        {
          "duration": 0.33333333333337123,
          "durationTicks": 400,
          "midi": 62,
          "name": "D4",
          "ticks": 487200,
          "time": 406,
          "velocity": 0.8267716535433071
        },
        {
          "duration": 0.33333333333337123,
          "durationTicks": 400,
          "midi": 68,
          "name": "G#4",
          "ticks": 487200,
          "time": 406,
          "velocity": 0.8267716535433071
        },
        {
          "duration": 0.3333333333333144,
          "durationTicks": 400,
          "midi": 63,
          "name": "D#4",
          "ticks": 487680,
          "time": 406.40000000000003,
          "velocity": 0.8267716535433071
        },
        {
          "duration": 0.3333333333333144,
          "durationTicks": 400,
          "midi": 67,
          "name": "G4",
          "ticks": 487680,
          "time": 406.40000000000003,
          "velocity": 0.8267716535433071
        },
        {
          "duration": 0.29666666666668107,
          "durationTicks": 356,
          "midi": 70,
          "name": "A#4",
          "ticks": 488160,
          "time": 406.8,
          "velocity": 0.8267716535433071
        },
        {
          "duration": 0.29666666666668107,
          "durationTicks": 356,
          "midi": 79,
          "name": "G5",
          "ticks": 488160,
          "time": 406.8,
          "velocity": 0.8267716535433071
        },
        {
          "duration": 0.09666666666669244,
          "durationTicks": 116,
          "midi": 70,
          "name": "A#4",
          "ticks": 488520,
          "time": 407.1,
          "velocity": 0.8267716535433071
        },
        {
          "duration": 0.09666666666669244,
          "durationTicks": 116,
          "midi": 79,
          "name": "G5",
          "ticks": 488520,
          "time": 407.1,
          "velocity": 0.8267716535433071
        },
        {
          "duration": 0.3333333333333144,
          "durationTicks": 400,
          "midi": 76,
          "name": "E5",
          "ticks": 488640,
          "time": 407.20000000000005,
          "velocity": 0.8267716535433071
        },
        {
          "duration": 0.3333333333333144,
          "durationTicks": 400,
          "midi": 79,
          "name": "G5",
          "ticks": 488640,
          "time": 407.20000000000005,
          "velocity": 0.8267716535433071
        },
        {
          "duration": 0.33333333333337123,
          "durationTicks": 400,
          "midi": 76,
          "name": "E5",
          "ticks": 489120,
          "time": 407.6,
          "velocity": 0.8267716535433071
        },
        {
          "duration": 0.33333333333337123,
          "durationTicks": 400,
          "midi": 79,
          "name": "G5",
          "ticks": 489120,
          "time": 407.6,
          "velocity": 0.8267716535433071
        },
        {
          "duration": 0.33333333333337123,
          "durationTicks": 400,
          "midi": 77,
          "name": "F5",
          "ticks": 489600,
          "time": 408,
          "velocity": 0.8267716535433071
        },
        {
          "duration": 0.33333333333337123,
          "durationTicks": 400,
          "midi": 80,
          "name": "G#5",
          "ticks": 489600,
          "time": 408,
          "velocity": 0.8267716535433071
        },
        {
          "duration": 0.29666666666668107,
          "durationTicks": 356,
          "midi": 65,
          "name": "F4",
          "ticks": 490080,
          "time": 408.40000000000003,
          "velocity": 0.8267716535433071
        },
        {
          "duration": 0.29666666666668107,
          "durationTicks": 356,
          "midi": 68,
          "name": "G#4",
          "ticks": 490080,
          "time": 408.40000000000003,
          "velocity": 0.8267716535433071
        },
        {
          "duration": 0.09666666666663559,
          "durationTicks": 116,
          "midi": 65,
          "name": "F4",
          "ticks": 490440,
          "time": 408.70000000000005,
          "velocity": 0.8267716535433071
        },
        {
          "duration": 0.09666666666663559,
          "durationTicks": 116,
          "midi": 68,
          "name": "G#4",
          "ticks": 490440,
          "time": 408.70000000000005,
          "velocity": 0.8267716535433071
        },
        {
          "duration": 0.33333333333337123,
          "durationTicks": 400,
          "midi": 67,
          "name": "G4",
          "ticks": 490560,
          "time": 408.8,
          "velocity": 0.8267716535433071
        },
        {
          "duration": 0.33333333333337123,
          "durationTicks": 400,
          "midi": 70,
          "name": "A#4",
          "ticks": 490560,
          "time": 408.8,
          "velocity": 0.8267716535433071
        },
        {
          "duration": 0.3333333333333144,
          "durationTicks": 400,
          "midi": 64,
          "name": "E4",
          "ticks": 491040,
          "time": 409.20000000000005,
          "velocity": 0.8267716535433071
        },
        {
          "duration": 0.3333333333333144,
          "durationTicks": 400,
          "midi": 70,
          "name": "A#4",
          "ticks": 491040,
          "time": 409.20000000000005,
          "velocity": 0.8267716535433071
        },
        {
          "duration": 0.3333333333333144,
          "durationTicks": 400,
          "midi": 65,
          "name": "F4",
          "ticks": 491520,
          "time": 409.6,
          "velocity": 0.8267716535433071
        },
        {
          "duration": 0.3333333333333144,
          "durationTicks": 400,
          "midi": 69,
          "name": "A4",
          "ticks": 491520,
          "time": 409.6,
          "velocity": 0.8267716535433071
        },
        {
          "duration": 0.2966666666666242,
          "durationTicks": 356,
          "midi": 72,
          "name": "C5",
          "ticks": 492000,
          "time": 410,
          "velocity": 0.8267716535433071
        },
        {
          "duration": 0.2966666666666242,
          "durationTicks": 356,
          "midi": 81,
          "name": "A5",
          "ticks": 492000,
          "time": 410,
          "velocity": 0.8267716535433071
        },
        {
          "duration": 0.09666666666663559,
          "durationTicks": 116,
          "midi": 72,
          "name": "C5",
          "ticks": 492360,
          "time": 410.3,
          "velocity": 0.8267716535433071
        },
        {
          "duration": 0.09666666666663559,
          "durationTicks": 116,
          "midi": 81,
          "name": "A5",
          "ticks": 492360,
          "time": 410.3,
          "velocity": 0.8267716535433071
        },
        {
          "duration": 0.3333333333333144,
          "durationTicks": 400,
          "midi": 78,
          "name": "F#5",
          "ticks": 492480,
          "time": 410.40000000000003,
          "velocity": 0.8267716535433071
        },
        {
          "duration": 0.3333333333333144,
          "durationTicks": 400,
          "midi": 81,
          "name": "A5",
          "ticks": 492480,
          "time": 410.40000000000003,
          "velocity": 0.8267716535433071
        },
        {
          "duration": 0.3333333333333144,
          "durationTicks": 400,
          "midi": 78,
          "name": "F#5",
          "ticks": 492960,
          "time": 410.8,
          "velocity": 0.8267716535433071
        },
        {
          "duration": 0.3333333333333144,
          "durationTicks": 400,
          "midi": 81,
          "name": "A5",
          "ticks": 492960,
          "time": 410.8,
          "velocity": 0.8267716535433071
        },
        {
          "duration": 0.33333333333325754,
          "durationTicks": 400,
          "midi": 79,
          "name": "G5",
          "ticks": 493440,
          "time": 411.20000000000005,
          "velocity": 0.8267716535433071
        },
        {
          "duration": 0.33333333333325754,
          "durationTicks": 400,
          "midi": 82,
          "name": "A#5",
          "ticks": 493440,
          "time": 411.20000000000005,
          "velocity": 0.8267716535433071
        },
        {
          "duration": 0.2966666666666242,
          "durationTicks": 356,
          "midi": 67,
          "name": "G4",
          "ticks": 493920,
          "time": 411.6,
          "velocity": 0.8267716535433071
        },
        {
          "duration": 0.2966666666666242,
          "durationTicks": 356,
          "midi": 70,
          "name": "A#4",
          "ticks": 493920,
          "time": 411.6,
          "velocity": 0.8267716535433071
        },
        {
          "duration": 0.09666666666663559,
          "durationTicks": 116,
          "midi": 67,
          "name": "G4",
          "ticks": 494280,
          "time": 411.90000000000003,
          "velocity": 0.8267716535433071
        },
        {
          "duration": 0.09666666666663559,
          "durationTicks": 116,
          "midi": 70,
          "name": "A#4",
          "ticks": 494280,
          "time": 411.90000000000003,
          "velocity": 0.8267716535433071
        },
        {
          "duration": 0.3333333333333144,
          "durationTicks": 400,
          "midi": 69,
          "name": "A4",
          "ticks": 494400,
          "time": 412,
          "velocity": 0.8267716535433071
        },
        {
          "duration": 0.3333333333333144,
          "durationTicks": 400,
          "midi": 72,
          "name": "C5",
          "ticks": 494400,
          "time": 412,
          "velocity": 0.8267716535433071
        },
        {
          "duration": 0.3333333333333144,
          "durationTicks": 400,
          "midi": 66,
          "name": "F#4",
          "ticks": 494880,
          "time": 412.40000000000003,
          "velocity": 0.8267716535433071
        },
        {
          "duration": 0.3333333333333144,
          "durationTicks": 400,
          "midi": 72,
          "name": "C5",
          "ticks": 494880,
          "time": 412.40000000000003,
          "velocity": 0.8267716535433071
        },
        {
          "duration": 0.10000000000002274,
          "durationTicks": 120,
          "midi": 67,
          "name": "G4",
          "ticks": 495360,
          "time": 412.8,
          "velocity": 0.8267716535433071
        },
        {
          "duration": 0.10000000000002274,
          "durationTicks": 120,
          "midi": 70,
          "name": "A#4",
          "ticks": 495360,
          "time": 412.8,
          "velocity": 0.8267716535433071
        },
        {
          "duration": 0.0999999999999659,
          "durationTicks": 120,
          "midi": 67,
          "name": "G4",
          "ticks": 495840,
          "time": 413.20000000000005,
          "velocity": 0.8267716535433071
        },
        {
          "duration": 0.0999999999999659,
          "durationTicks": 120,
          "midi": 70,
          "name": "A#4",
          "ticks": 495840,
          "time": 413.20000000000005,
          "velocity": 0.8267716535433071
        },
        {
          "duration": 2.3000000000000114,
          "durationTicks": 2760,
          "midi": 79,
          "name": "G5",
          "ticks": 496320,
          "time": 413.6,
          "velocity": 0.8267716535433071
        },
        {
          "duration": 2.3000000000000114,
          "durationTicks": 2760,
          "midi": 82,
          "name": "A#5",
          "ticks": 496320,
          "time": 413.6,
          "velocity": 0.8267716535433071
        },
        {
          "duration": 0.3333333333333144,
          "durationTicks": 400,
          "midi": 77,
          "name": "F5",
          "ticks": 499200,
          "time": 416,
          "velocity": 0.8267716535433071
        },
        {
          "duration": 0.3333333333333144,
          "durationTicks": 400,
          "midi": 80,
          "name": "G#5",
          "ticks": 499200,
          "time": 416,
          "velocity": 0.8267716535433071
        },
        {
          "duration": 0.0999999999999659,
          "durationTicks": 120,
          "midi": 65,
          "name": "F4",
          "ticks": 499680,
          "time": 416.40000000000003,
          "velocity": 0.8267716535433071
        },
        {
          "duration": 0.0999999999999659,
          "durationTicks": 120,
          "midi": 68,
          "name": "G#4",
          "ticks": 499680,
          "time": 416.40000000000003,
          "velocity": 0.8267716535433071
        },
        {
          "duration": 2.400000000000034,
          "durationTicks": 2880,
          "midi": 77,
          "name": "F5",
          "ticks": 500160,
          "time": 416.8,
          "velocity": 0.8267716535433071
        },
        {
          "duration": 2.400000000000034,
          "durationTicks": 2880,
          "midi": 80,
          "name": "G#5",
          "ticks": 500160,
          "time": 416.8,
          "velocity": 0.8267716535433071
        },
        {
          "duration": 0.33333333333325754,
          "durationTicks": 400,
          "midi": 75,
          "name": "D#5",
          "ticks": 503040,
          "time": 419.20000000000005,
          "velocity": 0.8267716535433071
        },
        {
          "duration": 0.33333333333325754,
          "durationTicks": 400,
          "midi": 79,
          "name": "G5",
          "ticks": 503040,
          "time": 419.20000000000005,
          "velocity": 0.8267716535433071
        },
        {
          "duration": 0.10000000000002274,
          "durationTicks": 120,
          "midi": 63,
          "name": "D#4",
          "ticks": 503520,
          "time": 419.6,
          "velocity": 0.8267716535433071
        },
        {
          "duration": 0.10000000000002274,
          "durationTicks": 120,
          "midi": 67,
          "name": "G4",
          "ticks": 503520,
          "time": 419.6,
          "velocity": 0.8267716535433071
        },
        {
          "duration": 0.8000000000000114,
          "durationTicks": 960,
          "midi": 75,
          "name": "D#5",
          "ticks": 504000,
          "time": 420,
          "velocity": 0.8267716535433071
        },
        {
          "duration": 0.8000000000000114,
          "durationTicks": 960,
          "midi": 79,
          "name": "G5",
          "ticks": 504000,
          "time": 420,
          "velocity": 0.8267716535433071
        },
        {
          "duration": 0.3333333333333144,
          "durationTicks": 400,
          "midi": 74,
          "name": "D5",
          "ticks": 504960,
          "time": 420.8,
          "velocity": 0.8267716535433071
        },
        {
          "duration": 0.3333333333333144,
          "durationTicks": 400,
          "midi": 77,
          "name": "F5",
          "ticks": 504960,
          "time": 420.8,
          "velocity": 0.8267716535433071
        },
        {
          "duration": 0.0999999999999659,
          "durationTicks": 120,
          "midi": 62,
          "name": "D4",
          "ticks": 505440,
          "time": 421.20000000000005,
          "velocity": 0.8267716535433071
        },
        {
          "duration": 0.0999999999999659,
          "durationTicks": 120,
          "midi": 65,
          "name": "F4",
          "ticks": 505440,
          "time": 421.20000000000005,
          "velocity": 0.8267716535433071
        },
        {
          "duration": 0.8000000000000114,
          "durationTicks": 960,
          "midi": 74,
          "name": "D5",
          "ticks": 505920,
          "time": 421.6,
          "velocity": 0.8267716535433071
        },
        {
          "duration": 0.8000000000000114,
          "durationTicks": 960,
          "midi": 77,
          "name": "F5",
          "ticks": 505920,
          "time": 421.6,
          "velocity": 0.8267716535433071
        },
        {
          "duration": 0.3333333333333144,
          "durationTicks": 400,
          "midi": 72,
          "name": "C5",
          "ticks": 506880,
          "time": 422.40000000000003,
          "velocity": 0.8267716535433071
        },
        {
          "duration": 0.3333333333333144,
          "durationTicks": 400,
          "midi": 75,
          "name": "D#5",
          "ticks": 506880,
          "time": 422.40000000000003,
          "velocity": 0.8267716535433071
        },
        {
          "duration": 0.19666666666665833,
          "durationTicks": 236,
          "midi": 67,
          "name": "G4",
          "ticks": 508560,
          "time": 423.8,
          "velocity": 0.8267716535433071
        },
        {
          "duration": 0.19666666666665833,
          "durationTicks": 236,
          "midi": 66,
          "name": "F#4",
          "ticks": 508800,
          "time": 424,
          "velocity": 0.8267716535433071
        },
        {
          "duration": 0.1966666666666015,
          "durationTicks": 236,
          "midi": 67,
          "name": "G4",
          "ticks": 509040,
          "time": 424.20000000000005,
          "velocity": 0.8267716535433071
        },
        {
          "duration": 0.1966666666666015,
          "durationTicks": 236,
          "midi": 69,
          "name": "A4",
          "ticks": 509280,
          "time": 424.40000000000003,
          "velocity": 0.8267716535433071
        },
        {
          "duration": 0.1966666666666015,
          "durationTicks": 236,
          "midi": 70,
          "name": "A#4",
          "ticks": 509520,
          "time": 424.6,
          "velocity": 0.8267716535433071
        },
        {
          "duration": 0.19666666666665833,
          "durationTicks": 236,
          "midi": 72,
          "name": "C5",
          "ticks": 509760,
          "time": 424.8,
          "velocity": 0.8267716535433071
        },
        {
          "duration": 0.19666666666665833,
          "durationTicks": 236,
          "midi": 75,
          "name": "D#5",
          "ticks": 510000,
          "time": 425,
          "velocity": 0.8267716535433071
        },
        {
          "duration": 0.1966666666666015,
          "durationTicks": 236,
          "midi": 74,
          "name": "D5",
          "ticks": 510240,
          "time": 425.20000000000005,
          "velocity": 0.8267716535433071
        },
        {
          "duration": 0.1966666666666015,
          "durationTicks": 236,
          "midi": 72,
          "name": "C5",
          "ticks": 510480,
          "time": 425.40000000000003,
          "velocity": 0.8267716535433071
        },
        {
          "duration": 0.3333333333333144,
          "durationTicks": 400,
          "midi": 70,
          "name": "A#4",
          "ticks": 510720,
          "time": 425.6,
          "velocity": 0.8267716535433071
        },
        {
          "duration": 0.3333333333333144,
          "durationTicks": 400,
          "midi": 72,
          "name": "C5",
          "ticks": 511680,
          "time": 426.40000000000003,
          "velocity": 0.8267716535433071
        },
        {
          "duration": 0.3333333333333144,
          "durationTicks": 400,
          "midi": 75,
          "name": "D#5",
          "ticks": 511680,
          "time": 426.40000000000003,
          "velocity": 0.8267716535433071
        },
        {
          "duration": 0.33333333333325754,
          "durationTicks": 400,
          "midi": 78,
          "name": "F#5",
          "ticks": 512640,
          "time": 427.20000000000005,
          "velocity": 0.8267716535433071
        },
        {
          "duration": 0.33333333333325754,
          "durationTicks": 400,
          "midi": 84,
          "name": "C6",
          "ticks": 512640,
          "time": 427.20000000000005,
          "velocity": 0.8267716535433071
        },
        {
          "duration": 0.3333333333333144,
          "durationTicks": 400,
          "midi": 69,
          "name": "A4",
          "ticks": 513600,
          "time": 428,
          "velocity": 0.8267716535433071
        },
        {
          "duration": 0.3333333333333144,
          "durationTicks": 400,
          "midi": 72,
          "name": "C5",
          "ticks": 513600,
          "time": 428,
          "velocity": 0.8267716535433071
        },
        {
          "duration": 0.3333333333333144,
          "durationTicks": 400,
          "midi": 67,
          "name": "G4",
          "ticks": 514560,
          "time": 428.8,
          "velocity": 0.8267716535433071
        },
        {
          "duration": 0.3333333333333144,
          "durationTicks": 400,
          "midi": 70,
          "name": "A#4",
          "ticks": 514560,
          "time": 428.8,
          "velocity": 0.8267716535433071
        },
        {
          "duration": 0.3333333333333144,
          "durationTicks": 400,
          "midi": 73,
          "name": "C#5",
          "ticks": 515520,
          "time": 429.6,
          "velocity": 0.8267716535433071
        },
        {
          "duration": 0.3333333333333144,
          "durationTicks": 400,
          "midi": 76,
          "name": "E5",
          "ticks": 515520,
          "time": 429.6,
          "velocity": 0.8267716535433071
        },
        {
          "duration": 0.3333333333333144,
          "durationTicks": 400,
          "midi": 79,
          "name": "G5",
          "ticks": 516480,
          "time": 430.40000000000003,
          "velocity": 0.8267716535433071
        },
        {
          "duration": 0.3333333333333144,
          "durationTicks": 400,
          "midi": 82,
          "name": "A#5",
          "ticks": 516480,
          "time": 430.40000000000003,
          "velocity": 0.8267716535433071
        },
        {
          "duration": 0.33333333333325754,
          "durationTicks": 400,
          "midi": 79,
          "name": "G5",
          "ticks": 517440,
          "time": 431.20000000000005,
          "velocity": 0.8267716535433071
        },
        {
          "duration": 0.33333333333325754,
          "durationTicks": 400,
          "midi": 81,
          "name": "A5",
          "ticks": 517440,
          "time": 431.20000000000005,
          "velocity": 0.8267716535433071
        },
        {
          "duration": 0.7000000000000455,
          "durationTicks": 840,
          "midi": 77,
          "name": "F5",
          "ticks": 518400,
          "time": 432,
          "velocity": 0.8267716535433071
        },
        {
          "duration": 0.4000000000000341,
          "durationTicks": 480,
          "midi": 81,
          "name": "A5",
          "ticks": 518400,
          "time": 432,
          "velocity": 0.8267716535433071
        },
        {
          "duration": 0.39999999999997726,
          "durationTicks": 480,
          "midi": 80,
          "name": "G#5",
          "ticks": 518880,
          "time": 432.40000000000003,
          "velocity": 0.8267716535433071
        },
        {
          "duration": 0.3333333333333144,
          "durationTicks": 400,
          "midi": 76,
          "name": "E5",
          "ticks": 519360,
          "time": 432.8,
          "velocity": 0.8267716535433071
        },
        {
          "duration": 0.3333333333333144,
          "durationTicks": 400,
          "midi": 83,
          "name": "B5",
          "ticks": 519360,
          "time": 432.8,
          "velocity": 0.8267716535433071
        },
        {
          "duration": 0.1966666666666015,
          "durationTicks": 236,
          "midi": 74,
          "name": "D5",
          "ticks": 519840,
          "time": 433.20000000000005,
          "velocity": 0.8267716535433071
        },
        {
          "duration": 0.33333333333325754,
          "durationTicks": 400,
          "midi": 76,
          "name": "E5",
          "ticks": 519840,
          "time": 433.20000000000005,
          "velocity": 0.8267716535433071
        },
        {
          "duration": 0.1966666666666015,
          "durationTicks": 236,
          "midi": 71,
          "name": "B4",
          "ticks": 520080,
          "time": 433.40000000000003,
          "velocity": 0.8267716535433071
        },
        {
          "duration": 0.3333333333333144,
          "durationTicks": 400,
          "midi": 69,
          "name": "A4",
          "ticks": 520320,
          "time": 433.6,
          "velocity": 0.8267716535433071
        },
        {
          "duration": 0.3333333333333144,
          "durationTicks": 400,
          "midi": 76,
          "name": "E5",
          "ticks": 520320,
          "time": 433.6,
          "velocity": 0.8267716535433071
        },
        {
          "duration": 0.4000000000000341,
          "durationTicks": 480,
          "midi": 72,
          "name": "C5",
          "ticks": 520800,
          "time": 434,
          "velocity": 0.8267716535433071
        },
        {
          "duration": 0.4000000000000341,
          "durationTicks": 480,
          "midi": 77,
          "name": "F5",
          "ticks": 520800,
          "time": 434,
          "velocity": 0.8267716535433071
        },
        {
          "duration": 0.39999999999997726,
          "durationTicks": 480,
          "midi": 71,
          "name": "B4",
          "ticks": 521280,
          "time": 434.40000000000003,
          "velocity": 0.8267716535433071
        },
        {
          "duration": 0.39999999999997726,
          "durationTicks": 480,
          "midi": 76,
          "name": "E5",
          "ticks": 521280,
          "time": 434.40000000000003,
          "velocity": 0.8267716535433071
        },
        {
          "duration": 0.3333333333333144,
          "durationTicks": 400,
          "midi": 69,
          "name": "A4",
          "ticks": 521760,
          "time": 434.8,
          "velocity": 0.8267716535433071
        },
        {
          "duration": 0.3333333333333144,
          "durationTicks": 400,
          "midi": 75,
          "name": "D#5",
          "ticks": 521760,
          "time": 434.8,
          "velocity": 0.8267716535433071
        },
        {
          "duration": 0.33333333333325754,
          "durationTicks": 400,
          "midi": 68,
          "name": "G#4",
          "ticks": 522240,
          "time": 435.20000000000005,
          "velocity": 0.8267716535433071
        },
        {
          "duration": 0.33333333333325754,
          "durationTicks": 400,
          "midi": 76,
          "name": "E5",
          "ticks": 522240,
          "time": 435.20000000000005,
          "velocity": 0.8267716535433071
        },
        {
          "duration": 0.06666666666666288,
          "durationTicks": 80,
          "midi": 76,
          "name": "E5",
          "ticks": 526080,
          "time": 438.40000000000003,
          "velocity": 0.4015748031496063
        },
        {
          "duration": 0.06666666666671972,
          "durationTicks": 80,
          "midi": 83,
          "name": "B5",
          "ticks": 526320,
          "time": 438.6,
          "velocity": 0.4015748031496063
        },
        {
          "duration": 0.06666666666671972,
          "durationTicks": 80,
          "midi": 80,
          "name": "G#5",
          "ticks": 526560,
          "time": 438.8,
          "velocity": 0.4015748031496063
        },
        {
          "duration": 0.06666666666671972,
          "durationTicks": 80,
          "midi": 76,
          "name": "E5",
          "ticks": 526800,
          "time": 439,
          "velocity": 0.4015748031496063
        },
        {
          "duration": 0.19999999999998863,
          "durationTicks": 240,
          "midi": 72,
          "name": "C5",
          "ticks": 527040,
          "time": 439.20000000000005,
          "velocity": 0.4015748031496063
        },
        {
          "duration": 0.19999999999998863,
          "durationTicks": 240,
          "midi": 81,
          "name": "A5",
          "ticks": 527040,
          "time": 439.20000000000005,
          "velocity": 0.4015748031496063
        },
        {
          "duration": 0.19999999999998863,
          "durationTicks": 240,
          "midi": 71,
          "name": "B4",
          "ticks": 527280,
          "time": 439.40000000000003,
          "velocity": 0.4015748031496063
        },
        {
          "duration": 0.19999999999998863,
          "durationTicks": 240,
          "midi": 83,
          "name": "B5",
          "ticks": 527280,
          "time": 439.40000000000003,
          "velocity": 0.4015748031496063
        },
        {
          "duration": 0.19999999999998863,
          "durationTicks": 240,
          "midi": 69,
          "name": "A4",
          "ticks": 527520,
          "time": 439.6,
          "velocity": 0.4015748031496063
        },
        {
          "duration": 0.19999999999998863,
          "durationTicks": 240,
          "midi": 84,
          "name": "C6",
          "ticks": 527520,
          "time": 439.6,
          "velocity": 0.4015748031496063
        },
        {
          "duration": 0.19666666666665833,
          "durationTicks": 236,
          "midi": 72,
          "name": "C5",
          "ticks": 527760,
          "time": 439.8,
          "velocity": 0.4015748031496063
        },
        {
          "duration": 0.19666666666665833,
          "durationTicks": 236,
          "midi": 81,
          "name": "A5",
          "ticks": 527760,
          "time": 439.8,
          "velocity": 0.4015748031496063
        },
        {
          "duration": 0.3333333333333144,
          "durationTicks": 400,
          "midi": 71,
          "name": "B4",
          "ticks": 528000,
          "time": 440,
          "velocity": 0.4015748031496063
        },
        {
          "duration": 0.20000000000004547,
          "durationTicks": 240,
          "midi": 80,
          "name": "G#5",
          "ticks": 528000,
          "time": 440,
          "velocity": 0.4015748031496063
        },
        {
          "duration": 0.1966666666666015,
          "durationTicks": 236,
          "midi": 83,
          "name": "B5",
          "ticks": 528240,
          "time": 440.20000000000005,
          "velocity": 0.4015748031496063
        },
        {
          "duration": 0.06666666666666288,
          "durationTicks": 80,
          "midi": 80,
          "name": "G#5",
          "ticks": 528480,
          "time": 440.40000000000003,
          "velocity": 0.4015748031496063
        },
        {
          "duration": 0.06666666666671972,
          "durationTicks": 80,
          "midi": 76,
          "name": "E5",
          "ticks": 528720,
          "time": 440.6,
          "velocity": 0.4015748031496063
        },
        {
          "duration": 0.19999999999998863,
          "durationTicks": 240,
          "midi": 72,
          "name": "C5",
          "ticks": 528960,
          "time": 440.8,
          "velocity": 0.4015748031496063
        },
        {
          "duration": 0.19999999999998863,
          "durationTicks": 240,
          "midi": 81,
          "name": "A5",
          "ticks": 528960,
          "time": 440.8,
          "velocity": 0.4015748031496063
        },
        {
          "duration": 0.20000000000004547,
          "durationTicks": 240,
          "midi": 71,
          "name": "B4",
          "ticks": 529200,
          "time": 441,
          "velocity": 0.4015748031496063
        },
        {
          "duration": 0.20000000000004547,
          "durationTicks": 240,
          "midi": 83,
          "name": "B5",
          "ticks": 529200,
          "time": 441,
          "velocity": 0.4015748031496063
        },
        {
          "duration": 0.19999999999998863,
          "durationTicks": 240,
          "midi": 69,
          "name": "A4",
          "ticks": 529440,
          "time": 441.20000000000005,
          "velocity": 0.4015748031496063
        },
        {
          "duration": 0.19999999999998863,
          "durationTicks": 240,
          "midi": 84,
          "name": "C6",
          "ticks": 529440,
          "time": 441.20000000000005,
          "velocity": 0.4015748031496063
        },
        {
          "duration": 0.1966666666666015,
          "durationTicks": 236,
          "midi": 72,
          "name": "C5",
          "ticks": 529680,
          "time": 441.40000000000003,
          "velocity": 0.4015748031496063
        },
        {
          "duration": 0.1966666666666015,
          "durationTicks": 236,
          "midi": 81,
          "name": "A5",
          "ticks": 529680,
          "time": 441.40000000000003,
          "velocity": 0.4015748031496063
        },
        {
          "duration": 0.3333333333333144,
          "durationTicks": 400,
          "midi": 71,
          "name": "B4",
          "ticks": 529920,
          "time": 441.6,
          "velocity": 0.4015748031496063
        },
        {
          "duration": 0.3333333333333144,
          "durationTicks": 400,
          "midi": 80,
          "name": "G#5",
          "ticks": 529920,
          "time": 441.6,
          "velocity": 0.4015748031496063
        },
        {
          "duration": 0.8000000000000114,
          "durationTicks": 960,
          "midi": 70,
          "name": "A#4",
          "ticks": 545280,
          "time": 454.40000000000003,
          "velocity": 0.4015748031496063
        },
        {
          "duration": 0.9966666666666129,
          "durationTicks": 1196,
          "midi": 82,
          "name": "A#5",
          "ticks": 546240,
          "time": 455.20000000000005,
          "velocity": 0.4015748031496063
        },
        {
          "duration": 0.06666666666666288,
          "durationTicks": 80,
          "midi": 81,
          "name": "A5",
          "ticks": 547440,
          "time": 456.20000000000005,
          "velocity": 0.4015748031496063
        },
        {
          "duration": 0.06666666666666288,
          "durationTicks": 80,
          "midi": 79,
          "name": "G5",
          "ticks": 547680,
          "time": 456.40000000000003,
          "velocity": 0.4015748031496063
        },
        {
          "duration": 0.06666666666671972,
          "durationTicks": 80,
          "midi": 77,
          "name": "F5",
          "ticks": 547920,
          "time": 456.6,
          "velocity": 0.4015748031496063
        },
        {
          "duration": 0.06666666666671972,
          "durationTicks": 80,
          "midi": 76,
          "name": "E5",
          "ticks": 548160,
          "time": 456.8,
          "velocity": 0.4015748031496063
        },
        {
          "duration": 0.06666666666671972,
          "durationTicks": 80,
          "midi": 74,
          "name": "D5",
          "ticks": 548400,
          "time": 457,
          "velocity": 0.4015748031496063
        },
        {
          "duration": 0.06666666666666288,
          "durationTicks": 80,
          "midi": 72,
          "name": "C5",
          "ticks": 548640,
          "time": 457.20000000000005,
          "velocity": 0.4015748031496063
        },
        {
          "duration": 0.06666666666666288,
          "durationTicks": 80,
          "midi": 70,
          "name": "A#4",
          "ticks": 548880,
          "time": 457.40000000000003,
          "velocity": 0.4015748031496063
        },
        {
          "duration": 0.8000000000000114,
          "durationTicks": 960,
          "midi": 69,
          "name": "A4",
          "ticks": 549120,
          "time": 457.6,
          "velocity": 0.4015748031496063
        },
        {
          "duration": 0.8000000000000114,
          "durationTicks": 960,
          "midi": 72,
          "name": "C5",
          "ticks": 549120,
          "time": 457.6,
          "velocity": 0.4015748031496063
        },
        {
          "duration": 0.9966666666666129,
          "durationTicks": 1196,
          "midi": 81,
          "name": "A5",
          "ticks": 550080,
          "time": 458.40000000000003,
          "velocity": 0.4015748031496063
        },
        {
          "duration": 0.9966666666666129,
          "durationTicks": 1196,
          "midi": 84,
          "name": "C6",
          "ticks": 550080,
          "time": 458.40000000000003,
          "velocity": 0.4015748031496063
        },
        {
          "duration": 0.06666666666666288,
          "durationTicks": 80,
          "midi": 79,
          "name": "G5",
          "ticks": 551280,
          "time": 459.40000000000003,
          "velocity": 0.4015748031496063
        },
        {
          "duration": 0.06666666666666288,
          "durationTicks": 80,
          "midi": 82,
          "name": "A#5",
          "ticks": 551280,
          "time": 459.40000000000003,
          "velocity": 0.4015748031496063
        },
        {
          "duration": 0.06666666666671972,
          "durationTicks": 80,
          "midi": 78,
          "name": "F#5",
          "ticks": 551520,
          "time": 459.6,
          "velocity": 0.4015748031496063
        },
        {
          "duration": 0.06666666666671972,
          "durationTicks": 80,
          "midi": 81,
          "name": "A5",
          "ticks": 551520,
          "time": 459.6,
          "velocity": 0.4015748031496063
        },
        {
          "duration": 0.06666666666671972,
          "durationTicks": 80,
          "midi": 75,
          "name": "D#5",
          "ticks": 551760,
          "time": 459.8,
          "velocity": 0.4015748031496063
        },
        {
          "duration": 0.06666666666671972,
          "durationTicks": 80,
          "midi": 79,
          "name": "G5",
          "ticks": 551760,
          "time": 459.8,
          "velocity": 0.4015748031496063
        },
        {
          "duration": 0.06666666666671972,
          "durationTicks": 80,
          "midi": 74,
          "name": "D5",
          "ticks": 552000,
          "time": 460,
          "velocity": 0.4015748031496063
        },
        {
          "duration": 0.06666666666671972,
          "durationTicks": 80,
          "midi": 78,
          "name": "F#5",
          "ticks": 552000,
          "time": 460,
          "velocity": 0.4015748031496063
        },
        {
          "duration": 0.06666666666666288,
          "durationTicks": 80,
          "midi": 72,
          "name": "C5",
          "ticks": 552240,
          "time": 460.20000000000005,
          "velocity": 0.4015748031496063
        },
        {
          "duration": 0.06666666666666288,
          "durationTicks": 80,
          "midi": 75,
          "name": "D#5",
          "ticks": 552240,
          "time": 460.20000000000005,
          "velocity": 0.4015748031496063
        },
        {
          "duration": 0.06666666666666288,
          "durationTicks": 80,
          "midi": 70,
          "name": "A#4",
          "ticks": 552480,
          "time": 460.40000000000003,
          "velocity": 0.4015748031496063
        },
        {
          "duration": 0.06666666666666288,
          "durationTicks": 80,
          "midi": 74,
          "name": "D5",
          "ticks": 552480,
          "time": 460.40000000000003,
          "velocity": 0.4015748031496063
        },
        {
          "duration": 0.06666666666671972,
          "durationTicks": 80,
          "midi": 69,
          "name": "A4",
          "ticks": 552720,
          "time": 460.6,
          "velocity": 0.4015748031496063
        },
        {
          "duration": 0.06666666666671972,
          "durationTicks": 80,
          "midi": 72,
          "name": "C5",
          "ticks": 552720,
          "time": 460.6,
          "velocity": 0.4015748031496063
        },
        {
          "duration": 1.5,
          "durationTicks": 1800,
          "midi": 69,
          "name": "A4",
          "ticks": 552960,
          "time": 460.8,
          "velocity": 0.4015748031496063
        },
        {
          "duration": 0.6999999999999886,
          "durationTicks": 840,
          "midi": 71,
          "name": "B4",
          "ticks": 552960,
          "time": 460.8,
          "velocity": 0.4015748031496063
        },
        {
          "duration": 0.9966666666666129,
          "durationTicks": 1196,
          "midi": 83,
          "name": "B5",
          "ticks": 553920,
          "time": 461.6,
          "velocity": 0.4015748031496063
        },
        {
          "duration": 1.5,
          "durationTicks": 1800,
          "midi": 68,
          "name": "G#4",
          "ticks": 554880,
          "time": 462.40000000000003,
          "velocity": 0.4015748031496063
        },
        {
          "duration": 0.1966666666666015,
          "durationTicks": 236,
          "midi": 81,
          "name": "A5",
          "ticks": 555120,
          "time": 462.6,
          "velocity": 0.4015748031496063
        },
        {
          "duration": 0.06666666666671972,
          "durationTicks": 80,
          "midi": 80,
          "name": "G#5",
          "ticks": 555360,
          "time": 462.8,
          "velocity": 0.4015748031496063
        },
        {
          "duration": 0.06666666666671972,
          "durationTicks": 80,
          "midi": 77,
          "name": "F5",
          "ticks": 555600,
          "time": 463,
          "velocity": 0.4015748031496063
        },
        {
          "duration": 0.06666666666666288,
          "durationTicks": 80,
          "midi": 76,
          "name": "E5",
          "ticks": 555840,
          "time": 463.20000000000005,
          "velocity": 0.4015748031496063
        },
        {
          "duration": 0.06666666666666288,
          "durationTicks": 80,
          "midi": 74,
          "name": "D5",
          "ticks": 556080,
          "time": 463.40000000000003,
          "velocity": 0.4015748031496063
        },
        {
          "duration": 0.06666666666671972,
          "durationTicks": 80,
          "midi": 72,
          "name": "C5",
          "ticks": 556320,
          "time": 463.6,
          "velocity": 0.4015748031496063
        },
        {
          "duration": 0.06666666666671972,
          "durationTicks": 80,
          "midi": 71,
          "name": "B4",
          "ticks": 556560,
          "time": 463.8,
          "velocity": 0.4015748031496063
        },
        {
          "duration": 0.3333333333333144,
          "durationTicks": 400,
          "midi": 69,
          "name": "A4",
          "ticks": 556800,
          "time": 464,
          "velocity": 0.8267716535433071
        },
        {
          "duration": 0.0999999999999659,
          "durationTicks": 120,
          "midi": 72,
          "name": "C5",
          "ticks": 557280,
          "time": 464.40000000000003,
          "velocity": 0.8267716535433071
        },
        {
          "duration": 0.0999999999999659,
          "durationTicks": 120,
          "midi": 76,
          "name": "E5",
          "ticks": 557280,
          "time": 464.40000000000003,
          "velocity": 0.8267716535433071
        },
        {
          "duration": 0.0999999999999659,
          "durationTicks": 120,
          "midi": 72,
          "name": "C5",
          "ticks": 558240,
          "time": 465.20000000000005,
          "velocity": 0.8267716535433071
        },
        {
          "duration": 0.0999999999999659,
          "durationTicks": 120,
          "midi": 76,
          "name": "E5",
          "ticks": 558240,
          "time": 465.20000000000005,
          "velocity": 0.8267716535433071
        },
        {
          "duration": 0.10000000000002274,
          "durationTicks": 120,
          "midi": 71,
          "name": "B4",
          "ticks": 559200,
          "time": 466,
          "velocity": 0.8267716535433071
        },
        {
          "duration": 0.10000000000002274,
          "durationTicks": 120,
          "midi": 75,
          "name": "D#5",
          "ticks": 559200,
          "time": 466,
          "velocity": 0.8267716535433071
        },
        {
          "duration": 0.10000000000002274,
          "durationTicks": 120,
          "midi": 78,
          "name": "F#5",
          "ticks": 560160,
          "time": 466.8,
          "velocity": 0.8267716535433071
        },
        {
          "duration": 0.10000000000002274,
          "durationTicks": 120,
          "midi": 83,
          "name": "B5",
          "ticks": 560160,
          "time": 466.8,
          "velocity": 0.8267716535433071
        },
        {
          "duration": 0.0999999999999659,
          "durationTicks": 120,
          "midi": 76,
          "name": "E5",
          "ticks": 560640,
          "time": 467.20000000000005,
          "velocity": 0.8267716535433071
        },
        {
          "duration": 0.0999999999999659,
          "durationTicks": 120,
          "midi": 83,
          "name": "B5",
          "ticks": 560640,
          "time": 467.20000000000005,
          "velocity": 0.8267716535433071
        },
        {
          "duration": 0.10000000000002274,
          "durationTicks": 120,
          "midi": 71,
          "name": "B4",
          "ticks": 561120,
          "time": 467.6,
          "velocity": 0.8267716535433071
        },
        {
          "duration": 0.10000000000002274,
          "durationTicks": 120,
          "midi": 76,
          "name": "E5",
          "ticks": 561120,
          "time": 467.6,
          "velocity": 0.8267716535433071
        },
        {
          "duration": 0.0999999999999659,
          "durationTicks": 120,
          "midi": 70,
          "name": "A#4",
          "ticks": 562080,
          "time": 468.40000000000003,
          "velocity": 0.8267716535433071
        },
        {
          "duration": 0.0999999999999659,
          "durationTicks": 120,
          "midi": 76,
          "name": "E5",
          "ticks": 562080,
          "time": 468.40000000000003,
          "velocity": 0.8267716535433071
        },
        {
          "duration": 0.0999999999999659,
          "durationTicks": 120,
          "midi": 69,
          "name": "A4",
          "ticks": 563040,
          "time": 469.20000000000005,
          "velocity": 0.8267716535433071
        },
        {
          "duration": 0.0999999999999659,
          "durationTicks": 120,
          "midi": 73,
          "name": "C#5",
          "ticks": 563040,
          "time": 469.20000000000005,
          "velocity": 0.8267716535433071
        },
        {
          "duration": 0.10000000000002274,
          "durationTicks": 120,
          "midi": 76,
          "name": "E5",
          "ticks": 564000,
          "time": 470,
          "velocity": 0.8267716535433071
        },
        {
          "duration": 0.10000000000002274,
          "durationTicks": 120,
          "midi": 81,
          "name": "A5",
          "ticks": 564000,
          "time": 470,
          "velocity": 0.8267716535433071
        },
        {
          "duration": 0.0999999999999659,
          "durationTicks": 120,
          "midi": 74,
          "name": "D5",
          "ticks": 564480,
          "time": 470.40000000000003,
          "velocity": 0.8267716535433071
        },
        {
          "duration": 0.0999999999999659,
          "durationTicks": 120,
          "midi": 81,
          "name": "A5",
          "ticks": 564480,
          "time": 470.40000000000003,
          "velocity": 0.8267716535433071
        },
        {
          "duration": 0.10000000000002274,
          "durationTicks": 120,
          "midi": 69,
          "name": "A4",
          "ticks": 564960,
          "time": 470.8,
          "velocity": 0.8267716535433071
        },
        {
          "duration": 0.10000000000002274,
          "durationTicks": 120,
          "midi": 74,
          "name": "D5",
          "ticks": 564960,
          "time": 470.8,
          "velocity": 0.8267716535433071
        },
        {
          "duration": 0.10000000000002274,
          "durationTicks": 120,
          "midi": 68,
          "name": "G#4",
          "ticks": 565920,
          "time": 471.6,
          "velocity": 0.8267716535433071
        },
        {
          "duration": 0.10000000000002274,
          "durationTicks": 120,
          "midi": 74,
          "name": "D5",
          "ticks": 565920,
          "time": 471.6,
          "velocity": 0.8267716535433071
        },
        {
          "duration": 0.0999999999999659,
          "durationTicks": 120,
          "midi": 67,
          "name": "G4",
          "ticks": 566880,
          "time": 472.40000000000003,
          "velocity": 0.8267716535433071
        },
        {
          "duration": 0.0999999999999659,
          "durationTicks": 120,
          "midi": 71,
          "name": "B4",
          "ticks": 566880,
          "time": 472.40000000000003,
          "velocity": 0.8267716535433071
        },
        {
          "duration": 0.0999999999999659,
          "durationTicks": 120,
          "midi": 74,
          "name": "D5",
          "ticks": 567840,
          "time": 473.20000000000005,
          "velocity": 0.8267716535433071
        },
        {
          "duration": 0.0999999999999659,
          "durationTicks": 120,
          "midi": 79,
          "name": "G5",
          "ticks": 567840,
          "time": 473.20000000000005,
          "velocity": 0.8267716535433071
        },
        {
          "duration": 0.10000000000002274,
          "durationTicks": 120,
          "midi": 72,
          "name": "C5",
          "ticks": 568320,
          "time": 473.6,
          "velocity": 0.8267716535433071
        },
        {
          "duration": 0.10000000000002274,
          "durationTicks": 120,
          "midi": 79,
          "name": "G5",
          "ticks": 568320,
          "time": 473.6,
          "velocity": 0.8267716535433071
        },
        {
          "duration": 0.10000000000002274,
          "durationTicks": 120,
          "midi": 72,
          "name": "C5",
          "ticks": 568800,
          "time": 474,
          "velocity": 0.8267716535433071
        },
        {
          "duration": 0.10000000000002274,
          "durationTicks": 120,
          "midi": 79,
          "name": "G5",
          "ticks": 568800,
          "time": 474,
          "velocity": 0.8267716535433071
        },
        {
          "duration": 0.10000000000002274,
          "durationTicks": 120,
          "midi": 72,
          "name": "C5",
          "ticks": 569760,
          "time": 474.8,
          "velocity": 0.8267716535433071
        },
        {
          "duration": 0.10000000000002274,
          "durationTicks": 120,
          "midi": 79,
          "name": "G5",
          "ticks": 569760,
          "time": 474.8,
          "velocity": 0.8267716535433071
        },
        {
          "duration": 0.10000000000002274,
          "durationTicks": 120,
          "midi": 78,
          "name": "F#5",
          "ticks": 570720,
          "time": 475.6,
          "velocity": 0.8267716535433071
        },
        {
          "duration": 0.10000000000002274,
          "durationTicks": 120,
          "midi": 84,
          "name": "C6",
          "ticks": 570720,
          "time": 475.6,
          "velocity": 0.8267716535433071
        },
        {
          "duration": 0.0999999999999659,
          "durationTicks": 120,
          "midi": 72,
          "name": "C5",
          "ticks": 571680,
          "time": 476.40000000000003,
          "velocity": 0.8267716535433071
        },
        {
          "duration": 0.0999999999999659,
          "durationTicks": 120,
          "midi": 78,
          "name": "F#5",
          "ticks": 571680,
          "time": 476.40000000000003,
          "velocity": 0.8267716535433071
        },
        {
          "duration": 0.10000000000002274,
          "durationTicks": 120,
          "midi": 71,
          "name": "B4",
          "ticks": 572160,
          "time": 476.8,
          "velocity": 0.8267716535433071
        },
        {
          "duration": 0.10000000000002274,
          "durationTicks": 120,
          "midi": 79,
          "name": "G5",
          "ticks": 572160,
          "time": 476.8,
          "velocity": 0.8267716535433071
        },
        {
          "duration": 0.10000000000002274,
          "durationTicks": 120,
          "midi": 62,
          "name": "D4",
          "ticks": 573120,
          "time": 477.6,
          "velocity": 0.8267716535433071
        },
        {
          "duration": 0.10000000000002274,
          "durationTicks": 120,
          "midi": 74,
          "name": "D5",
          "ticks": 573120,
          "time": 477.6,
          "velocity": 0.8267716535433071
        },
        {
          "duration": 0.10000000000002274,
          "durationTicks": 120,
          "midi": 69,
          "name": "A4",
          "ticks": 573600,
          "time": 478,
          "velocity": 0.8267716535433071
        },
        {
          "duration": 0.10000000000002274,
          "durationTicks": 120,
          "midi": 72,
          "name": "C5",
          "ticks": 573600,
          "time": 478,
          "velocity": 0.8267716535433071
        },
        {
          "duration": 0.0999999999999659,
          "durationTicks": 120,
          "midi": 67,
          "name": "G4",
          "ticks": 574080,
          "time": 478.40000000000003,
          "velocity": 0.8267716535433071
        },
        {
          "duration": 0.0999999999999659,
          "durationTicks": 120,
          "midi": 71,
          "name": "B4",
          "ticks": 574080,
          "time": 478.40000000000003,
          "velocity": 0.8267716535433071
        },
        {
          "duration": 0.0999999999999659,
          "durationTicks": 120,
          "midi": 62,
          "name": "D4",
          "ticks": 575040,
          "time": 479.20000000000005,
          "velocity": 0.8267716535433071
        },
        {
          "duration": 0.0999999999999659,
          "durationTicks": 120,
          "midi": 74,
          "name": "D5",
          "ticks": 575040,
          "time": 479.20000000000005,
          "velocity": 0.8267716535433071
        },
        {
          "duration": 0.10000000000002274,
          "durationTicks": 120,
          "midi": 69,
          "name": "A4",
          "ticks": 575520,
          "time": 479.6,
          "velocity": 0.8267716535433071
        },
        {
          "duration": 0.10000000000002274,
          "durationTicks": 120,
          "midi": 72,
          "name": "C5",
          "ticks": 575520,
          "time": 479.6,
          "velocity": 0.8267716535433071
        },
        {
          "duration": 0.10000000000002274,
          "durationTicks": 120,
          "midi": 67,
          "name": "G4",
          "ticks": 576000,
          "time": 480,
          "velocity": 0.8267716535433071
        },
        {
          "duration": 0.10000000000002274,
          "durationTicks": 120,
          "midi": 71,
          "name": "B4",
          "ticks": 576000,
          "time": 480,
          "velocity": 0.8267716535433071
        },
        {
          "duration": 0.20000000000004547,
          "durationTicks": 240,
          "midi": 76,
          "name": "E5",
          "ticks": 580800,
          "time": 484,
          "velocity": 0.4015748031496063
        },
        {
          "duration": 0.7000000000000455,
          "durationTicks": 840,
          "midi": 78,
          "name": "F#5",
          "ticks": 580800,
          "time": 484,
          "velocity": 0.4015748031496063
        },
        {
          "duration": 0.19999999999998863,
          "durationTicks": 240,
          "midi": 74,
          "name": "D5",
          "ticks": 581040,
          "time": 484.20000000000005,
          "velocity": 0.4015748031496063
        },
        {
          "duration": 0.19999999999998863,
          "durationTicks": 240,
          "midi": 72,
          "name": "C5",
          "ticks": 581280,
          "time": 484.40000000000003,
          "velocity": 0.4015748031496063
        },
        {
          "duration": 0.19999999999998863,
          "durationTicks": 240,
          "midi": 76,
          "name": "E5",
          "ticks": 581520,
          "time": 484.6,
          "velocity": 0.4015748031496063
        },
        {
          "duration": 0.3333333333333144,
          "durationTicks": 400,
          "midi": 74,
          "name": "D5",
          "ticks": 581760,
          "time": 484.8,
          "velocity": 0.4015748031496063
        },
        {
          "duration": 0.3333333333333144,
          "durationTicks": 400,
          "midi": 79,
          "name": "G5",
          "ticks": 581760,
          "time": 484.8,
          "velocity": 0.4015748031496063
        },
        {
          "duration": 0.19999999999998863,
          "durationTicks": 240,
          "midi": 76,
          "name": "E5",
          "ticks": 582720,
          "time": 485.6,
          "velocity": 0.4015748031496063
        },
        {
          "duration": 0.6999999999999886,
          "durationTicks": 840,
          "midi": 78,
          "name": "F#5",
          "ticks": 582720,
          "time": 485.6,
          "velocity": 0.4015748031496063
        },
        {
          "duration": 0.19999999999998863,
          "durationTicks": 240,
          "midi": 74,
          "name": "D5",
          "ticks": 582960,
          "time": 485.8,
          "velocity": 0.4015748031496063
        },
        {
          "duration": 0.20000000000004547,
          "durationTicks": 240,
          "midi": 72,
          "name": "C5",
          "ticks": 583200,
          "time": 486,
          "velocity": 0.4015748031496063
        },
        {
          "duration": 0.19999999999998863,
          "durationTicks": 240,
          "midi": 76,
          "name": "E5",
          "ticks": 583440,
          "time": 486.20000000000005,
          "velocity": 0.4015748031496063
        },
        {
          "duration": 0.3333333333333144,
          "durationTicks": 400,
          "midi": 74,
          "name": "D5",
          "ticks": 583680,
          "time": 486.40000000000003,
          "velocity": 0.4015748031496063
        },
        {
          "duration": 0.3333333333333144,
          "durationTicks": 400,
          "midi": 79,
          "name": "G5",
          "ticks": 583680,
          "time": 486.40000000000003,
          "velocity": 0.4015748031496063
        },
        {
          "duration": 0.19999999999998863,
          "durationTicks": 240,
          "midi": 69,
          "name": "A4",
          "ticks": 584640,
          "time": 487.20000000000005,
          "velocity": 0.4015748031496063
        },
        {
          "duration": 0.1966666666666015,
          "durationTicks": 236,
          "midi": 81,
          "name": "A5",
          "ticks": 584880,
          "time": 487.40000000000003,
          "velocity": 0.4015748031496063
        },
        {
          "duration": 0.06666666666671972,
          "durationTicks": 80,
          "midi": 77,
          "name": "F5",
          "ticks": 585120,
          "time": 487.6,
          "velocity": 0.4015748031496063
        },
        {
          "duration": 0.06666666666671972,
          "durationTicks": 80,
          "midi": 76,
          "name": "E5",
          "ticks": 585360,
          "time": 487.8,
          "velocity": 0.4015748031496063
        },
        {
          "duration": 0.06666666666671972,
          "durationTicks": 80,
          "midi": 74,
          "name": "D5",
          "ticks": 585600,
          "time": 488,
          "velocity": 0.4015748031496063
        },
        {
          "duration": 0.06666666666666288,
          "durationTicks": 80,
          "midi": 77,
          "name": "F5",
          "ticks": 585840,
          "time": 488.20000000000005,
          "velocity": 0.4015748031496063
        },
        {
          "duration": 0.06666666666666288,
          "durationTicks": 80,
          "midi": 69,
          "name": "A4",
          "ticks": 586080,
          "time": 488.40000000000003,
          "velocity": 0.4015748031496063
        },
        {
          "duration": 0.06666666666671972,
          "durationTicks": 80,
          "midi": 77,
          "name": "F5",
          "ticks": 586320,
          "time": 488.6,
          "velocity": 0.4015748031496063
        },
        {
          "duration": 0.19999999999998863,
          "durationTicks": 240,
          "midi": 67,
          "name": "G4",
          "ticks": 586560,
          "time": 488.8,
          "velocity": 0.4015748031496063
        },
        {
          "duration": 0.19666666666665833,
          "durationTicks": 236,
          "midi": 79,
          "name": "G5",
          "ticks": 586800,
          "time": 489,
          "velocity": 0.4015748031496063
        },
        {
          "duration": 0.06666666666666288,
          "durationTicks": 80,
          "midi": 76,
          "name": "E5",
          "ticks": 587040,
          "time": 489.20000000000005,
          "velocity": 0.4015748031496063
        },
        {
          "duration": 0.06666666666666288,
          "durationTicks": 80,
          "midi": 74,
          "name": "D5",
          "ticks": 587280,
          "time": 489.40000000000003,
          "velocity": 0.4015748031496063
        },
        {
          "duration": 0.06666666666671972,
          "durationTicks": 80,
          "midi": 72,
          "name": "C5",
          "ticks": 587520,
          "time": 489.6,
          "velocity": 0.4015748031496063
        },
        {
          "duration": 0.06666666666671972,
          "durationTicks": 80,
          "midi": 76,
          "name": "E5",
          "ticks": 587760,
          "time": 489.8,
          "velocity": 0.4015748031496063
        },
        {
          "duration": 0.06666666666671972,
          "durationTicks": 80,
          "midi": 67,
          "name": "G4",
          "ticks": 588000,
          "time": 490,
          "velocity": 0.4015748031496063
        },
        {
          "duration": 0.06666666666666288,
          "durationTicks": 80,
          "midi": 76,
          "name": "E5",
          "ticks": 588240,
          "time": 490.20000000000005,
          "velocity": 0.4015748031496063
        },
        {
          "duration": 0.06666666666666288,
          "durationTicks": 80,
          "midi": 65,
          "name": "F4",
          "ticks": 588480,
          "time": 490.40000000000003,
          "velocity": 0.4015748031496063
        },
        {
          "duration": 0.06666666666671972,
          "durationTicks": 80,
          "midi": 77,
          "name": "F5",
          "ticks": 588720,
          "time": 490.6,
          "velocity": 0.4015748031496063
        },
        {
          "duration": 0.06666666666671972,
          "durationTicks": 80,
          "midi": 74,
          "name": "D5",
          "ticks": 588960,
          "time": 490.8,
          "velocity": 0.4015748031496063
        },
        {
          "duration": 0.06666666666671972,
          "durationTicks": 80,
          "midi": 72,
          "name": "C5",
          "ticks": 589200,
          "time": 491,
          "velocity": 0.4015748031496063
        },
        {
          "duration": 0.06666666666666288,
          "durationTicks": 80,
          "midi": 71,
          "name": "B4",
          "ticks": 589440,
          "time": 491.20000000000005,
          "velocity": 0.4015748031496063
        },
        {
          "duration": 0.06666666666666288,
          "durationTicks": 80,
          "midi": 69,
          "name": "A4",
          "ticks": 589680,
          "time": 491.40000000000003,
          "velocity": 0.4015748031496063
        },
        {
          "duration": 0.06666666666671972,
          "durationTicks": 80,
          "midi": 67,
          "name": "G4",
          "ticks": 589920,
          "time": 491.6,
          "velocity": 0.4015748031496063
        },
        {
          "duration": 0.06666666666671972,
          "durationTicks": 80,
          "midi": 77,
          "name": "F5",
          "ticks": 590160,
          "time": 491.8,
          "velocity": 0.4015748031496063
        },
        {
          "duration": 0.06666666666671972,
          "durationTicks": 80,
          "midi": 76,
          "name": "E5",
          "ticks": 590400,
          "time": 492,
          "velocity": 0.4015748031496063
        },
        {
          "duration": 0.06666666666666288,
          "durationTicks": 80,
          "midi": 74,
          "name": "D5",
          "ticks": 590640,
          "time": 492.20000000000005,
          "velocity": 0.4015748031496063
        },
        {
          "duration": 0.06666666666666288,
          "durationTicks": 80,
          "midi": 72,
          "name": "C5",
          "ticks": 590880,
          "time": 492.40000000000003,
          "velocity": 0.4015748031496063
        },
        {
          "duration": 0.06666666666671972,
          "durationTicks": 80,
          "midi": 71,
          "name": "B4",
          "ticks": 591120,
          "time": 492.6,
          "velocity": 0.4015748031496063
        },
        {
          "duration": 0.3333333333333144,
          "durationTicks": 400,
          "midi": 72,
          "name": "C5",
          "ticks": 591360,
          "time": 492.8,
          "velocity": 0.8267716535433071
        },
        {
          "duration": 0.06666666666666288,
          "durationTicks": 80,
          "midi": 67,
          "name": "G4",
          "ticks": 592080,
          "time": 493.40000000000003,
          "velocity": 0.8267716535433071
        },
        {
          "duration": 0.06666666666660603,
          "durationTicks": 80,
          "midi": 69,
          "name": "A4",
          "ticks": 592160,
          "time": 493.4666666666667,
          "velocity": 0.8267716535433071
        },
        {
          "duration": 0.06666666666671972,
          "durationTicks": 80,
          "midi": 71,
          "name": "B4",
          "ticks": 592240,
          "time": 493.5333333333333,
          "velocity": 0.8267716535433071
        },
        {
          "duration": 0.3333333333333144,
          "durationTicks": 400,
          "midi": 72,
          "name": "C5",
          "ticks": 592320,
          "time": 493.6,
          "velocity": 0.8267716535433071
        },
        {
          "duration": 0.06666666666666288,
          "durationTicks": 80,
          "midi": 67,
          "name": "G4",
          "ticks": 593040,
          "time": 494.20000000000005,
          "velocity": 0.8267716535433071
        },
        {
          "duration": 0.06666666666660603,
          "durationTicks": 80,
          "midi": 69,
          "name": "A4",
          "ticks": 593120,
          "time": 494.2666666666667,
          "velocity": 0.8267716535433071
        },
        {
          "duration": 0.06666666666671972,
          "durationTicks": 80,
          "midi": 71,
          "name": "B4",
          "ticks": 593200,
          "time": 494.3333333333333,
          "velocity": 0.8267716535433071
        },
        {
          "duration": 0.3333333333333144,
          "durationTicks": 400,
          "midi": 72,
          "name": "C5",
          "ticks": 593280,
          "time": 494.40000000000003,
          "velocity": 0.8267716535433071
        },
        {
          "duration": 0.33333333333325754,
          "durationTicks": 400,
          "midi": 79,
          "name": "G5",
          "ticks": 599040,
          "time": 499.20000000000005,
          "velocity": 0.8267716535433071
        },
        {
          "duration": 0.06666666666671972,
          "durationTicks": 80,
          "midi": 74,
          "name": "D5",
          "ticks": 599760,
          "time": 499.8,
          "velocity": 0.8267716535433071
        },
        {
          "duration": 0.06666666666660603,
          "durationTicks": 80,
          "midi": 76,
          "name": "E5",
          "ticks": 599840,
          "time": 499.86666666666673,
          "velocity": 0.8267716535433071
        },
        {
          "duration": 0.06666666666666288,
          "durationTicks": 80,
          "midi": 78,
          "name": "F#5",
          "ticks": 599920,
          "time": 499.93333333333334,
          "velocity": 0.8267716535433071
        },
        {
          "duration": 0.3333333333333144,
          "durationTicks": 400,
          "midi": 79,
          "name": "G5",
          "ticks": 600000,
          "time": 500,
          "velocity": 0.8267716535433071
        },
        {
          "duration": 0.06666666666671972,
          "durationTicks": 80,
          "midi": 74,
          "name": "D5",
          "ticks": 600720,
          "time": 500.6,
          "velocity": 0.8267716535433071
        },
        {
          "duration": 0.06666666666660603,
          "durationTicks": 80,
          "midi": 76,
          "name": "E5",
          "ticks": 600800,
          "time": 500.66666666666674,
          "velocity": 0.8267716535433071
        },
        {
          "duration": 0.06666666666666288,
          "durationTicks": 80,
          "midi": 78,
          "name": "F#5",
          "ticks": 600880,
          "time": 500.73333333333335,
          "velocity": 0.8267716535433071
        },
        {
          "duration": 0.3333333333333144,
          "durationTicks": 400,
          "midi": 79,
          "name": "G5",
          "ticks": 600960,
          "time": 500.8,
          "velocity": 0.8267716535433071
        },
        {
          "duration": 0.3333333333333144,
          "durationTicks": 400,
          "midi": 76,
          "name": "E5",
          "ticks": 606720,
          "time": 505.6,
          "velocity": 0.8267716535433071
        },
        {
          "duration": 0.3333333333333144,
          "durationTicks": 400,
          "midi": 79,
          "name": "G5",
          "ticks": 606720,
          "time": 505.6,
          "velocity": 0.8267716535433071
        },
        {
          "duration": 0.2966666666666242,
          "durationTicks": 356,
          "midi": 76,
          "name": "E5",
          "ticks": 607200,
          "time": 506,
          "velocity": 0.8267716535433071
        },
        {
          "duration": 0.2966666666666242,
          "durationTicks": 356,
          "midi": 79,
          "name": "G5",
          "ticks": 607200,
          "time": 506,
          "velocity": 0.8267716535433071
        },
        {
          "duration": 0.09666666666663559,
          "durationTicks": 116,
          "midi": 76,
          "name": "E5",
          "ticks": 607560,
          "time": 506.3,
          "velocity": 0.8267716535433071
        },
        {
          "duration": 0.09666666666663559,
          "durationTicks": 116,
          "midi": 79,
          "name": "G5",
          "ticks": 607560,
          "time": 506.3,
          "velocity": 0.8267716535433071
        },
        {
          "duration": 0.3333333333333144,
          "durationTicks": 400,
          "midi": 76,
          "name": "E5",
          "ticks": 607680,
          "time": 506.40000000000003,
          "velocity": 0.8267716535433071
        },
        {
          "duration": 0.3333333333333144,
          "durationTicks": 400,
          "midi": 79,
          "name": "G5",
          "ticks": 607680,
          "time": 506.40000000000003,
          "velocity": 0.8267716535433071
        },
        {
          "duration": 0.3333333333333144,
          "durationTicks": 400,
          "midi": 76,
          "name": "E5",
          "ticks": 608160,
          "time": 506.8,
          "velocity": 0.8267716535433071
        },
        {
          "duration": 0.3333333333333144,
          "durationTicks": 400,
          "midi": 79,
          "name": "G5",
          "ticks": 608160,
          "time": 506.8,
          "velocity": 0.8267716535433071
        },
        {
          "duration": 0.33333333333325754,
          "durationTicks": 400,
          "midi": 69,
          "name": "A4",
          "ticks": 608640,
          "time": 507.20000000000005,
          "velocity": 0.8267716535433071
        },
        {
          "duration": 0.33333333333325754,
          "durationTicks": 400,
          "midi": 77,
          "name": "F5",
          "ticks": 608640,
          "time": 507.20000000000005,
          "velocity": 0.8267716535433071
        },
        {
          "duration": 0.2966666666666242,
          "durationTicks": 356,
          "midi": 69,
          "name": "A4",
          "ticks": 609120,
          "time": 507.6,
          "velocity": 0.8267716535433071
        },
        {
          "duration": 0.2966666666666242,
          "durationTicks": 356,
          "midi": 77,
          "name": "F5",
          "ticks": 609120,
          "time": 507.6,
          "velocity": 0.8267716535433071
        },
        {
          "duration": 0.09666666666663559,
          "durationTicks": 116,
          "midi": 69,
          "name": "A4",
          "ticks": 609480,
          "time": 507.90000000000003,
          "velocity": 0.8267716535433071
        },
        {
          "duration": 0.09666666666663559,
          "durationTicks": 116,
          "midi": 77,
          "name": "F5",
          "ticks": 609480,
          "time": 507.90000000000003,
          "velocity": 0.8267716535433071
        },
        {
          "duration": 0.3333333333333144,
          "durationTicks": 400,
          "midi": 69,
          "name": "A4",
          "ticks": 609600,
          "time": 508,
          "velocity": 0.8267716535433071
        },
        {
          "duration": 0.3333333333333144,
          "durationTicks": 400,
          "midi": 77,
          "name": "F5",
          "ticks": 609600,
          "time": 508,
          "velocity": 0.8267716535433071
        },
        {
          "duration": 0.3333333333333144,
          "durationTicks": 400,
          "midi": 72,
          "name": "C5",
          "ticks": 610080,
          "time": 508.40000000000003,
          "velocity": 0.8267716535433071
        },
        {
          "duration": 0.3333333333333144,
          "durationTicks": 400,
          "midi": 77,
          "name": "F5",
          "ticks": 610080,
          "time": 508.40000000000003,
          "velocity": 0.8267716535433071
        },
        {
          "duration": 0.3333333333333144,
          "durationTicks": 400,
          "midi": 74,
          "name": "D5",
          "ticks": 610560,
          "time": 508.8,
          "velocity": 0.8267716535433071
        },
        {
          "duration": 0.3333333333333144,
          "durationTicks": 400,
          "midi": 77,
          "name": "F5",
          "ticks": 610560,
          "time": 508.8,
          "velocity": 0.8267716535433071
        },
        {
          "duration": 0.2966666666666242,
          "durationTicks": 356,
          "midi": 74,
          "name": "D5",
          "ticks": 611040,
          "time": 509.20000000000005,
          "velocity": 0.8267716535433071
        },
        {
          "duration": 0.2966666666666242,
          "durationTicks": 356,
          "midi": 77,
          "name": "F5",
          "ticks": 611040,
          "time": 509.20000000000005,
          "velocity": 0.8267716535433071
        },
        {
          "duration": 0.09666666666663559,
          "durationTicks": 116,
          "midi": 74,
          "name": "D5",
          "ticks": 611400,
          "time": 509.5,
          "velocity": 0.8267716535433071
        },
        {
          "duration": 0.09666666666663559,
          "durationTicks": 116,
          "midi": 77,
          "name": "F5",
          "ticks": 611400,
          "time": 509.5,
          "velocity": 0.8267716535433071
        },
        {
          "duration": 0.3333333333333144,
          "durationTicks": 400,
          "midi": 74,
          "name": "D5",
          "ticks": 611520,
          "time": 509.6,
          "velocity": 0.8267716535433071
        },
        {
          "duration": 0.3333333333333144,
          "durationTicks": 400,
          "midi": 77,
          "name": "F5",
          "ticks": 611520,
          "time": 509.6,
          "velocity": 0.8267716535433071
        },
        {
          "duration": 0.3333333333333144,
          "durationTicks": 400,
          "midi": 74,
          "name": "D5",
          "ticks": 612000,
          "time": 510,
          "velocity": 0.8267716535433071
        },
        {
          "duration": 0.3333333333333144,
          "durationTicks": 400,
          "midi": 77,
          "name": "F5",
          "ticks": 612000,
          "time": 510,
          "velocity": 0.8267716535433071
        },
        {
          "duration": 0.3333333333333144,
          "durationTicks": 400,
          "midi": 67,
          "name": "G4",
          "ticks": 612480,
          "time": 510.40000000000003,
          "velocity": 0.8267716535433071
        },
        {
          "duration": 0.3333333333333144,
          "durationTicks": 400,
          "midi": 76,
          "name": "E5",
          "ticks": 612480,
          "time": 510.40000000000003,
          "velocity": 0.8267716535433071
        },
        {
          "duration": 0.2966666666666242,
          "durationTicks": 356,
          "midi": 76,
          "name": "E5",
          "ticks": 612960,
          "time": 510.8,
          "velocity": 0.8267716535433071
        },
        {
          "duration": 0.2966666666666242,
          "durationTicks": 356,
          "midi": 79,
          "name": "G5",
          "ticks": 612960,
          "time": 510.8,
          "velocity": 0.8267716535433071
        },
        {
          "duration": 0.09666666666663559,
          "durationTicks": 116,
          "midi": 76,
          "name": "E5",
          "ticks": 613320,
          "time": 511.1,
          "velocity": 0.8267716535433071
        },
        {
          "duration": 0.09666666666663559,
          "durationTicks": 116,
          "midi": 79,
          "name": "G5",
          "ticks": 613320,
          "time": 511.1,
          "velocity": 0.8267716535433071
        },
        {
          "duration": 0.33333333333325754,
          "durationTicks": 400,
          "midi": 76,
          "name": "E5",
          "ticks": 613440,
          "time": 511.20000000000005,
          "velocity": 0.8267716535433071
        },
        {
          "duration": 0.33333333333325754,
          "durationTicks": 400,
          "midi": 79,
          "name": "G5",
          "ticks": 613440,
          "time": 511.20000000000005,
          "velocity": 0.8267716535433071
        },
        {
          "duration": 0.3333333333333144,
          "durationTicks": 400,
          "midi": 76,
          "name": "E5",
          "ticks": 613920,
          "time": 511.6,
          "velocity": 0.8267716535433071
        },
        {
          "duration": 0.3333333333333144,
          "durationTicks": 400,
          "midi": 79,
          "name": "G5",
          "ticks": 613920,
          "time": 511.6,
          "velocity": 0.8267716535433071
        },
        {
          "duration": 0.33333333333337123,
          "durationTicks": 400,
          "midi": 69,
          "name": "A4",
          "ticks": 614400,
          "time": 512,
          "velocity": 0.8267716535433071
        },
        {
          "duration": 0.33333333333337123,
          "durationTicks": 400,
          "midi": 77,
          "name": "F5",
          "ticks": 614400,
          "time": 512,
          "velocity": 0.8267716535433071
        },
        {
          "duration": 0.2966666666666242,
          "durationTicks": 356,
          "midi": 69,
          "name": "A4",
          "ticks": 614880,
          "time": 512.4,
          "velocity": 0.8267716535433071
        },
        {
          "duration": 0.2966666666666242,
          "durationTicks": 356,
          "midi": 77,
          "name": "F5",
          "ticks": 614880,
          "time": 512.4,
          "velocity": 0.8267716535433071
        },
        {
          "duration": 0.09666666666657875,
          "durationTicks": 116,
          "midi": 69,
          "name": "A4",
          "ticks": 615240,
          "time": 512.7,
          "velocity": 0.8267716535433071
        },
        {
          "duration": 0.09666666666657875,
          "durationTicks": 116,
          "midi": 77,
          "name": "F5",
          "ticks": 615240,
          "time": 512.7,
          "velocity": 0.8267716535433071
        },
        {
          "duration": 0.33333333333325754,
          "durationTicks": 400,
          "midi": 69,
          "name": "A4",
          "ticks": 615360,
          "time": 512.8000000000001,
          "velocity": 0.8267716535433071
        },
        {
          "duration": 0.33333333333325754,
          "durationTicks": 400,
          "midi": 77,
          "name": "F5",
          "ticks": 615360,
          "time": 512.8000000000001,
          "velocity": 0.8267716535433071
        },
        {
          "duration": 0.33333333333325754,
          "durationTicks": 400,
          "midi": 72,
          "name": "C5",
          "ticks": 615840,
          "time": 513.2,
          "velocity": 0.8267716535433071
        },
        {
          "duration": 0.33333333333325754,
          "durationTicks": 400,
          "midi": 77,
          "name": "F5",
          "ticks": 615840,
          "time": 513.2,
          "velocity": 0.8267716535433071
        },
        {
          "duration": 0.33333333333325754,
          "durationTicks": 400,
          "midi": 74,
          "name": "D5",
          "ticks": 616320,
          "time": 513.6,
          "velocity": 0.8267716535433071
        },
        {
          "duration": 0.33333333333325754,
          "durationTicks": 400,
          "midi": 77,
          "name": "F5",
          "ticks": 616320,
          "time": 513.6,
          "velocity": 0.8267716535433071
        },
        {
          "duration": 0.2966666666666242,
          "durationTicks": 356,
          "midi": 74,
          "name": "D5",
          "ticks": 616800,
          "time": 514,
          "velocity": 0.8267716535433071
        },
        {
          "duration": 0.2966666666666242,
          "durationTicks": 356,
          "midi": 77,
          "name": "F5",
          "ticks": 616800,
          "time": 514,
          "velocity": 0.8267716535433071
        },
        {
          "duration": 0.09666666666657875,
          "durationTicks": 116,
          "midi": 74,
          "name": "D5",
          "ticks": 617160,
          "time": 514.3000000000001,
          "velocity": 0.8267716535433071
        },
        {
          "duration": 0.09666666666657875,
          "durationTicks": 116,
          "midi": 77,
          "name": "F5",
          "ticks": 617160,
          "time": 514.3000000000001,
          "velocity": 0.8267716535433071
        },
        {
          "duration": 0.33333333333337123,
          "durationTicks": 400,
          "midi": 74,
          "name": "D5",
          "ticks": 617280,
          "time": 514.4,
          "velocity": 0.8267716535433071
        },
        {
          "duration": 0.33333333333337123,
          "durationTicks": 400,
          "midi": 77,
          "name": "F5",
          "ticks": 617280,
          "time": 514.4,
          "velocity": 0.8267716535433071
        },
        {
          "duration": 0.33333333333325754,
          "durationTicks": 400,
          "midi": 74,
          "name": "D5",
          "ticks": 617760,
          "time": 514.8000000000001,
          "velocity": 0.8267716535433071
        },
        {
          "duration": 0.33333333333325754,
          "durationTicks": 400,
          "midi": 77,
          "name": "F5",
          "ticks": 617760,
          "time": 514.8000000000001,
          "velocity": 0.8267716535433071
        },
        {
          "duration": 0.33333333333325754,
          "durationTicks": 400,
          "midi": 72,
          "name": "C5",
          "ticks": 618240,
          "time": 515.2,
          "velocity": 0.8267716535433071
        },
        {
          "duration": 0.33333333333325754,
          "durationTicks": 400,
          "midi": 76,
          "name": "E5",
          "ticks": 618240,
          "time": 515.2,
          "velocity": 0.8267716535433071
        },
        {
          "duration": 0.33333333333325754,
          "durationTicks": 400,
          "midi": 72,
          "name": "C5",
          "ticks": 618720,
          "time": 515.6,
          "velocity": 0.8267716535433071
        },
        {
          "duration": 0.33333333333325754,
          "durationTicks": 400,
          "midi": 76,
          "name": "E5",
          "ticks": 618720,
          "time": 515.6,
          "velocity": 0.8267716535433071
        },
        {
          "duration": 0.33333333333337123,
          "durationTicks": 400,
          "midi": 71,
          "name": "B4",
          "ticks": 619680,
          "time": 516.4,
          "velocity": 0.8267716535433071
        },
        {
          "duration": 0.33333333333337123,
          "durationTicks": 400,
          "midi": 74,
          "name": "D5",
          "ticks": 619680,
          "time": 516.4,
          "velocity": 0.8267716535433071
        },
        {
          "duration": 0.33333333333325754,
          "durationTicks": 400,
          "midi": 72,
          "name": "C5",
          "ticks": 620640,
          "time": 517.2,
          "velocity": 0.8267716535433071
        },
        {
          "duration": 0.33333333333325754,
          "durationTicks": 400,
          "midi": 76,
          "name": "E5",
          "ticks": 620640,
          "time": 517.2,
          "velocity": 0.8267716535433071
        },
        {
          "duration": 0.33333333333337123,
          "durationTicks": 400,
          "midi": 71,
          "name": "B4",
          "ticks": 621600,
          "time": 518,
          "velocity": 0.8267716535433071
        },
        {
          "duration": 0.33333333333337123,
          "durationTicks": 400,
          "midi": 74,
          "name": "D5",
          "ticks": 621600,
          "time": 518,
          "velocity": 0.8267716535433071
        },
        {
          "duration": 0.33333333333337123,
          "durationTicks": 400,
          "midi": 72,
          "name": "C5",
          "ticks": 622080,
          "time": 518.4,
          "velocity": 0.8267716535433071
        },
        {
          "duration": 0.33333333333337123,
          "durationTicks": 400,
          "midi": 76,
          "name": "E5",
          "ticks": 622080,
          "time": 518.4,
          "velocity": 0.8267716535433071
        },
        {
          "duration": 0.1966666666666015,
          "durationTicks": 236,
          "midi": 79,
          "name": "G5",
          "ticks": 622560,
          "time": 518.8000000000001,
          "velocity": 0.8267716535433071
        },
        {
          "duration": 0.1966666666666015,
          "durationTicks": 236,
          "midi": 79,
          "name": "G5",
          "ticks": 622800,
          "time": 519,
          "velocity": 0.8267716535433071
        },
        {
          "duration": 0.1966666666666015,
          "durationTicks": 236,
          "midi": 84,
          "name": "C6",
          "ticks": 623040,
          "time": 519.2,
          "velocity": 0.8267716535433071
        },
        {
          "duration": 0.19666666666671517,
          "durationTicks": 236,
          "midi": 84,
          "name": "C6",
          "ticks": 623280,
          "time": 519.4,
          "velocity": 0.8267716535433071
        },
        {
          "duration": 0.1966666666666015,
          "durationTicks": 236,
          "midi": 79,
          "name": "G5",
          "ticks": 623520,
          "time": 519.6,
          "velocity": 0.8267716535433071
        },
        {
          "duration": 0.1966666666666015,
          "durationTicks": 236,
          "midi": 79,
          "name": "G5",
          "ticks": 623760,
          "time": 519.8000000000001,
          "velocity": 0.8267716535433071
        },
        {
          "duration": 0.1966666666666015,
          "durationTicks": 236,
          "midi": 84,
          "name": "C6",
          "ticks": 624000,
          "time": 520,
          "velocity": 0.8267716535433071
        },
        {
          "duration": 0.1966666666666015,
          "durationTicks": 236,
          "midi": 84,
          "name": "C6",
          "ticks": 624240,
          "time": 520.2,
          "velocity": 0.8267716535433071
        },
        {
          "duration": 0.19666666666671517,
          "durationTicks": 236,
          "midi": 79,
          "name": "G5",
          "ticks": 624480,
          "time": 520.4,
          "velocity": 0.8267716535433071
        },
        {
          "duration": 0.1966666666666015,
          "durationTicks": 236,
          "midi": 79,
          "name": "G5",
          "ticks": 624720,
          "time": 520.6,
          "velocity": 0.8267716535433071
        },
        {
          "duration": 0.1966666666666015,
          "durationTicks": 236,
          "midi": 76,
          "name": "E5",
          "ticks": 624960,
          "time": 520.8000000000001,
          "velocity": 0.8267716535433071
        },
        {
          "duration": 0.1966666666666015,
          "durationTicks": 236,
          "midi": 76,
          "name": "E5",
          "ticks": 625200,
          "time": 521,
          "velocity": 0.8267716535433071
        },
        {
          "duration": 0.1966666666666015,
          "durationTicks": 236,
          "midi": 72,
          "name": "C5",
          "ticks": 625440,
          "time": 521.2,
          "velocity": 0.8267716535433071
        },
        {
          "duration": 0.19666666666671517,
          "durationTicks": 236,
          "midi": 72,
          "name": "C5",
          "ticks": 625680,
          "time": 521.4,
          "velocity": 0.8267716535433071
        },
        {
          "duration": 0.33333333333325754,
          "durationTicks": 400,
          "midi": 67,
          "name": "G4",
          "ticks": 625920,
          "time": 521.6,
          "velocity": 0.8267716535433071
        },
        {
          "duration": 0.33333333333337123,
          "durationTicks": 400,
          "midi": 74,
          "name": "D5",
          "ticks": 626400,
          "time": 522,
          "velocity": 0.8267716535433071
        },
        {
          "duration": 0.33333333333337123,
          "durationTicks": 400,
          "midi": 79,
          "name": "G5",
          "ticks": 626400,
          "time": 522,
          "velocity": 0.8267716535433071
        },
        {
          "duration": 0.33333333333325754,
          "durationTicks": 400,
          "midi": 76,
          "name": "E5",
          "ticks": 627360,
          "time": 522.8000000000001,
          "velocity": 0.8267716535433071
        },
        {
          "duration": 0.33333333333325754,
          "durationTicks": 400,
          "midi": 79,
          "name": "G5",
          "ticks": 627360,
          "time": 522.8000000000001,
          "velocity": 0.8267716535433071
        },
        {
          "duration": 0.33333333333325754,
          "durationTicks": 400,
          "midi": 74,
          "name": "D5",
          "ticks": 628320,
          "time": 523.6,
          "velocity": 0.8267716535433071
        },
        {
          "duration": 0.33333333333325754,
          "durationTicks": 400,
          "midi": 79,
          "name": "G5",
          "ticks": 628320,
          "time": 523.6,
          "velocity": 0.8267716535433071
        },
        {
          "duration": 0.33333333333337123,
          "durationTicks": 400,
          "midi": 76,
          "name": "E5",
          "ticks": 629280,
          "time": 524.4,
          "velocity": 0.8267716535433071
        },
        {
          "duration": 0.33333333333337123,
          "durationTicks": 400,
          "midi": 79,
          "name": "G5",
          "ticks": 629280,
          "time": 524.4,
          "velocity": 0.8267716535433071
        },
        {
          "duration": 0.1966666666666015,
          "durationTicks": 236,
          "midi": 74,
          "name": "D5",
          "ticks": 629760,
          "time": 524.8000000000001,
          "velocity": 0.8267716535433071
        },
        {
          "duration": 0.1966666666666015,
          "durationTicks": 236,
          "midi": 79,
          "name": "G5",
          "ticks": 629760,
          "time": 524.8000000000001,
          "velocity": 0.8267716535433071
        },
        {
          "duration": 0.1966666666666015,
          "durationTicks": 236,
          "midi": 76,
          "name": "E5",
          "ticks": 630000,
          "time": 525,
          "velocity": 0.8346456692913385
        },
        {
          "duration": 0.1966666666666015,
          "durationTicks": 236,
          "midi": 79,
          "name": "G5",
          "ticks": 630000,
          "time": 525,
          "velocity": 0.8346456692913385
        },
        {
          "duration": 0.1966666666666015,
          "durationTicks": 236,
          "midi": 74,
          "name": "D5",
          "ticks": 630240,
          "time": 525.2,
          "velocity": 0.8503937007874016
        },
        {
          "duration": 0.1966666666666015,
          "durationTicks": 236,
          "midi": 79,
          "name": "G5",
          "ticks": 630240,
          "time": 525.2,
          "velocity": 0.8503937007874016
        },
        {
          "duration": 0.19666666666671517,
          "durationTicks": 236,
          "midi": 76,
          "name": "E5",
          "ticks": 630480,
          "time": 525.4,
          "velocity": 0.8582677165354331
        },
        {
          "duration": 0.19666666666671517,
          "durationTicks": 236,
          "midi": 79,
          "name": "G5",
          "ticks": 630480,
          "time": 525.4,
          "velocity": 0.8582677165354331
        },
        {
          "duration": 0.1966666666666015,
          "durationTicks": 236,
          "midi": 74,
          "name": "D5",
          "ticks": 630720,
          "time": 525.6,
          "velocity": 0.8661417322834646
        },
        {
          "duration": 0.1966666666666015,
          "durationTicks": 236,
          "midi": 79,
          "name": "G5",
          "ticks": 630720,
          "time": 525.6,
          "velocity": 0.8661417322834646
        },
        {
          "duration": 0.1966666666666015,
          "durationTicks": 236,
          "midi": 76,
          "name": "E5",
          "ticks": 630960,
          "time": 525.8000000000001,
          "velocity": 0.8740157480314961
        },
        {
          "duration": 0.1966666666666015,
          "durationTicks": 236,
          "midi": 79,
          "name": "G5",
          "ticks": 630960,
          "time": 525.8000000000001,
          "velocity": 0.8740157480314961
        },
        {
          "duration": 0.1966666666666015,
          "durationTicks": 236,
          "midi": 74,
          "name": "D5",
          "ticks": 631200,
          "time": 526,
          "velocity": 0.8818897637795275
        },
        {
          "duration": 0.1966666666666015,
          "durationTicks": 236,
          "midi": 79,
          "name": "G5",
          "ticks": 631200,
          "time": 526,
          "velocity": 0.8818897637795275
        },
        {
          "duration": 0.1966666666666015,
          "durationTicks": 236,
          "midi": 76,
          "name": "E5",
          "ticks": 631440,
          "time": 526.2,
          "velocity": 0.889763779527559
        },
        {
          "duration": 0.1966666666666015,
          "durationTicks": 236,
          "midi": 79,
          "name": "G5",
          "ticks": 631440,
          "time": 526.2,
          "velocity": 0.889763779527559
        },
        {
          "duration": 0.33333333333337123,
          "durationTicks": 400,
          "midi": 74,
          "name": "D5",
          "ticks": 631680,
          "time": 526.4,
          "velocity": 0.905511811023622
        },
        {
          "duration": 0.33333333333337123,
          "durationTicks": 400,
          "midi": 79,
          "name": "G5",
          "ticks": 631680,
          "time": 526.4,
          "velocity": 0.905511811023622
        },
        {
          "duration": 0.33333333333325754,
          "durationTicks": 400,
          "midi": 67,
          "name": "G4",
          "ticks": 632640,
          "time": 527.2,
          "velocity": 0.937007874015748
        },
        {
          "duration": 0.33333333333325754,
          "durationTicks": 400,
          "midi": 79,
          "name": "G5",
          "ticks": 632640,
          "time": 527.2,
          "velocity": 0.937007874015748
        },
        {
          "duration": 0.33333333333325754,
          "durationTicks": 400,
          "midi": 67,
          "name": "G4",
          "ticks": 633120,
          "time": 527.6,
          "velocity": 0.952755905511811
        },
        {
          "duration": 0.33333333333325754,
          "durationTicks": 400,
          "midi": 79,
          "name": "G5",
          "ticks": 633120,
          "time": 527.6,
          "velocity": 0.952755905511811
        },
        {
          "duration": 1.5,
          "durationTicks": 1800,
          "midi": 67,
          "name": "G4",
          "ticks": 633600,
          "time": 528,
          "velocity": 0.9763779527559056
        },
        {
          "duration": 1.5,
          "durationTicks": 1800,
          "midi": 79,
          "name": "G5",
          "ticks": 633600,
          "time": 528,
          "velocity": 0.9763779527559056
        },
        {
          "duration": 0.7999999999999545,
          "durationTicks": 960,
          "midi": 72,
          "name": "C5",
          "ticks": 635520,
          "time": 529.6,
          "velocity": 0.4015748031496063
        },
        {
          "duration": 0.9966666666666697,
          "durationTicks": 1196,
          "midi": 75,
          "name": "D#5",
          "ticks": 636480,
          "time": 530.4,
          "velocity": 0.4015748031496063
        },
        {
          "duration": 0.06666666666671972,
          "durationTicks": 80,
          "midi": 79,
          "name": "G5",
          "ticks": 637680,
          "time": 531.4,
          "velocity": 0.4015748031496063
        },
        {
          "duration": 0.06666666666671972,
          "durationTicks": 80,
          "midi": 77,
          "name": "F5",
          "ticks": 637920,
          "time": 531.6,
          "velocity": 0.4015748031496063
        },
        {
          "duration": 0.06666666666660603,
          "durationTicks": 80,
          "midi": 75,
          "name": "D#5",
          "ticks": 638160,
          "time": 531.8000000000001,
          "velocity": 0.4015748031496063
        },
        {
          "duration": 0.06666666666671972,
          "durationTicks": 80,
          "midi": 74,
          "name": "D5",
          "ticks": 638400,
          "time": 532,
          "velocity": 0.4015748031496063
        },
        {
          "duration": 0.06666666666671972,
          "durationTicks": 80,
          "midi": 72,
          "name": "C5",
          "ticks": 638640,
          "time": 532.2,
          "velocity": 0.4015748031496063
        },
        {
          "duration": 0.06666666666671972,
          "durationTicks": 80,
          "midi": 71,
          "name": "B4",
          "ticks": 638880,
          "time": 532.4,
          "velocity": 0.4015748031496063
        },
        {
          "duration": 0.06666666666671972,
          "durationTicks": 80,
          "midi": 72,
          "name": "C5",
          "ticks": 639120,
          "time": 532.6,
          "velocity": 0.4015748031496063
        },
        {
          "duration": 0.7999999999999545,
          "durationTicks": 960,
          "midi": 77,
          "name": "F5",
          "ticks": 639360,
          "time": 532.8000000000001,
          "velocity": 0.4015748031496063
        },
        {
          "duration": 0.7000000000000455,
          "durationTicks": 840,
          "midi": 75,
          "name": "D#5",
          "ticks": 640320,
          "time": 533.6,
          "velocity": 0.4015748031496063
        },
        {
          "duration": 1.1000000000000227,
          "durationTicks": 1320,
          "midi": 74,
          "name": "D5",
          "ticks": 641280,
          "time": 534.4,
          "velocity": 0.4015748031496063
        },
        {
          "duration": 0.8000000000000682,
          "durationTicks": 960,
          "midi": 77,
          "name": "F5",
          "ticks": 643200,
          "time": 536,
          "velocity": 0.4015748031496063
        },
        {
          "duration": 0.996666666666556,
          "durationTicks": 1196,
          "midi": 80,
          "name": "G#5",
          "ticks": 644160,
          "time": 536.8000000000001,
          "velocity": 0.4015748031496063
        },
        {
          "duration": 0.06666666666660603,
          "durationTicks": 80,
          "midi": 79,
          "name": "G5",
          "ticks": 645360,
          "time": 537.8000000000001,
          "velocity": 0.4015748031496063
        },
        {
          "duration": 0.06666666666671972,
          "durationTicks": 80,
          "midi": 77,
          "name": "F5",
          "ticks": 645600,
          "time": 538,
          "velocity": 0.4015748031496063
        },
        {
          "duration": 0.06666666666671972,
          "durationTicks": 80,
          "midi": 75,
          "name": "D#5",
          "ticks": 645840,
          "time": 538.2,
          "velocity": 0.4015748031496063
        },
        {
          "duration": 0.06666666666671972,
          "durationTicks": 80,
          "midi": 74,
          "name": "D5",
          "ticks": 646080,
          "time": 538.4,
          "velocity": 0.4015748031496063
        },
        {
          "duration": 0.06666666666671972,
          "durationTicks": 80,
          "midi": 77,
          "name": "F5",
          "ticks": 646320,
          "time": 538.6,
          "velocity": 0.4015748031496063
        },
        {
          "duration": 0.06666666666660603,
          "durationTicks": 80,
          "midi": 75,
          "name": "D#5",
          "ticks": 646560,
          "time": 538.8000000000001,
          "velocity": 0.4015748031496063
        },
        {
          "duration": 0.06666666666671972,
          "durationTicks": 80,
          "midi": 74,
          "name": "D5",
          "ticks": 646800,
          "time": 539,
          "velocity": 0.4015748031496063
        },
        {
          "duration": 0.7999999999999545,
          "durationTicks": 960,
          "midi": 79,
          "name": "G5",
          "ticks": 647040,
          "time": 539.2,
          "velocity": 0.4015748031496063
        },
        {
          "duration": 0.7000000000000455,
          "durationTicks": 840,
          "midi": 77,
          "name": "F5",
          "ticks": 648000,
          "time": 540,
          "velocity": 0.4015748031496063
        },
        {
          "duration": 0.09999999999990905,
          "durationTicks": 120,
          "midi": 76,
          "name": "E5",
          "ticks": 648960,
          "time": 540.8000000000001,
          "velocity": 0.4015748031496063
        },
        {
          "duration": 0.10000000000002274,
          "durationTicks": 120,
          "midi": 72,
          "name": "C5",
          "ticks": 649440,
          "time": 541.2,
          "velocity": 0.4015748031496063
        },
        {
          "duration": 0.10000000000002274,
          "durationTicks": 120,
          "midi": 72,
          "name": "C5",
          "ticks": 649920,
          "time": 541.6,
          "velocity": 0.4015748031496063
        },
        {
          "duration": 0.09999999999990905,
          "durationTicks": 120,
          "midi": 84,
          "name": "C6",
          "ticks": 651360,
          "time": 542.8000000000001,
          "velocity": 0.4015748031496063
        },
        {
          "duration": 0.10000000000002274,
          "durationTicks": 120,
          "midi": 84,
          "name": "C6",
          "ticks": 651840,
          "time": 543.2,
          "velocity": 0.4015748031496063
        },
        {
          "duration": 0.39999999999997726,
          "durationTicks": 480,
          "midi": 72,
          "name": "C5",
          "ticks": 652320,
          "time": 543.6,
          "velocity": 0.4015748031496063
        },
        {
          "duration": 0.33333333333337123,
          "durationTicks": 400,
          "midi": 70,
          "name": "A#4",
          "ticks": 652800,
          "time": 544,
          "velocity": 0.4015748031496063
        },
        {
          "duration": 0.10000000000002274,
          "durationTicks": 120,
          "midi": 82,
          "name": "A#5",
          "ticks": 653280,
          "time": 544.4,
          "velocity": 0.4015748031496063
        },
        {
          "duration": 0.09999999999990905,
          "durationTicks": 120,
          "midi": 82,
          "name": "A#5",
          "ticks": 653760,
          "time": 544.8000000000001,
          "velocity": 0.4015748031496063
        },
        {
          "duration": 0.39999999999997726,
          "durationTicks": 480,
          "midi": 70,
          "name": "A#4",
          "ticks": 654240,
          "time": 545.2,
          "velocity": 0.4015748031496063
        },
        {
          "duration": 0.33333333333325754,
          "durationTicks": 400,
          "midi": 69,
          "name": "A4",
          "ticks": 654720,
          "time": 545.6,
          "velocity": 0.4015748031496063
        },
        {
          "duration": 0.10000000000002274,
          "durationTicks": 120,
          "midi": 81,
          "name": "A5",
          "ticks": 655200,
          "time": 546,
          "velocity": 0.4015748031496063
        },
        {
          "duration": 0.10000000000002274,
          "durationTicks": 120,
          "midi": 81,
          "name": "A5",
          "ticks": 655680,
          "time": 546.4,
          "velocity": 0.4015748031496063
        },
        {
          "duration": 0.39999999999997726,
          "durationTicks": 480,
          "midi": 69,
          "name": "A4",
          "ticks": 656160,
          "time": 546.8000000000001,
          "velocity": 0.4015748031496063
        },
        {
          "duration": 0.33333333333325754,
          "durationTicks": 400,
          "midi": 67,
          "name": "G4",
          "ticks": 656640,
          "time": 547.2,
          "velocity": 0.4015748031496063
        },
        {
          "duration": 0.10000000000002274,
          "durationTicks": 120,
          "midi": 79,
          "name": "G5",
          "ticks": 657120,
          "time": 547.6,
          "velocity": 0.4015748031496063
        },
        {
          "duration": 1.6000000000000227,
          "durationTicks": 1920,
          "midi": 79,
          "name": "G5",
          "ticks": 657600,
          "time": 548,
          "velocity": 0.4015748031496063
        },
        {
          "duration": 0.7000000000000455,
          "durationTicks": 840,
          "midi": 78,
          "name": "F#5",
          "ticks": 659520,
          "time": 549.6,
          "velocity": 0.4015748031496063
        },
        {
          "duration": 0.40000000000009095,
          "durationTicks": 480,
          "midi": 67,
          "name": "G4",
          "ticks": 660480,
          "time": 550.4,
          "velocity": 0.8267716535433071
        },
        {
          "duration": 0.7000000000000455,
          "durationTicks": 840,
          "midi": 79,
          "name": "G5",
          "ticks": 660480,
          "time": 550.4,
          "velocity": 0.8267716535433071
        },
        {
          "duration": 0.39999999999997726,
          "durationTicks": 480,
          "midi": 71,
          "name": "B4",
          "ticks": 660960,
          "time": 550.8000000000001,
          "velocity": 0.8267716535433071
        },
        {
          "duration": 0.39999999999997726,
          "durationTicks": 480,
          "midi": 74,
          "name": "D5",
          "ticks": 661440,
          "time": 551.2,
          "velocity": 0.8267716535433071
        },
        {
          "duration": 0.996666666666556,
          "durationTicks": 1196,
          "midi": 83,
          "name": "B5",
          "ticks": 661440,
          "time": 551.2,
          "velocity": 0.8267716535433071
        },
        {
          "duration": 0.39999999999997726,
          "durationTicks": 480,
          "midi": 71,
          "name": "B4",
          "ticks": 661920,
          "time": 551.6,
          "velocity": 0.8267716535433071
        },
        {
          "duration": 0.33333333333337123,
          "durationTicks": 400,
          "midi": 67,
          "name": "G4",
          "ticks": 662400,
          "time": 552,
          "velocity": 0.8267716535433071
        },
        {
          "duration": 0.06666666666671972,
          "durationTicks": 80,
          "midi": 86,
          "name": "D6",
          "ticks": 662640,
          "time": 552.2,
          "velocity": 0.8267716535433071
        },
        {
          "duration": 0.06666666666671972,
          "durationTicks": 80,
          "midi": 84,
          "name": "C6",
          "ticks": 662880,
          "time": 552.4,
          "velocity": 0.8267716535433071
        },
        {
          "duration": 0.06666666666671972,
          "durationTicks": 80,
          "midi": 83,
          "name": "B5",
          "ticks": 663120,
          "time": 552.6,
          "velocity": 0.8267716535433071
        },
        {
          "duration": 0.06666666666660603,
          "durationTicks": 80,
          "midi": 81,
          "name": "A5",
          "ticks": 663360,
          "time": 552.8000000000001,
          "velocity": 0.8267716535433071
        },
        {
          "duration": 0.06666666666671972,
          "durationTicks": 80,
          "midi": 79,
          "name": "G5",
          "ticks": 663600,
          "time": 553,
          "velocity": 0.8267716535433071
        },
        {
          "duration": 0.06666666666671972,
          "durationTicks": 80,
          "midi": 78,
          "name": "F#5",
          "ticks": 663840,
          "time": 553.2,
          "velocity": 0.8267716535433071
        },
        {
          "duration": 0.06666666666671972,
          "durationTicks": 80,
          "midi": 79,
          "name": "G5",
          "ticks": 664080,
          "time": 553.4,
          "velocity": 0.8267716535433071
        },
        {
          "duration": 12.700000000000045,
          "durationTicks": 15240,
          "midi": 79,
          "name": "G5",
          "ticks": 664320,
          "time": 553.6,
          "velocity": 0.8267716535433071
        },
        {
          "duration": 0.40000000000009095,
          "durationTicks": 480,
          "midi": 78,
          "name": "F#5",
          "ticks": 679680,
          "time": 566.4,
          "velocity": 0.8267716535433071
        },
        {
          "duration": 0.40000000000009095,
          "durationTicks": 480,
          "midi": 84,
          "name": "C6",
          "ticks": 679680,
          "time": 566.4,
          "velocity": 0.8267716535433071
        },
        {
          "duration": 0.39999999999997726,
          "durationTicks": 480,
          "midi": 79,
          "name": "G5",
          "ticks": 680160,
          "time": 566.8000000000001,
          "velocity": 0.8267716535433071
        },
        {
          "duration": 0.39999999999997726,
          "durationTicks": 480,
          "midi": 83,
          "name": "B5",
          "ticks": 680160,
          "time": 566.8000000000001,
          "velocity": 0.8267716535433071
        },
        {
          "duration": 0.39999999999997726,
          "durationTicks": 480,
          "midi": 78,
          "name": "F#5",
          "ticks": 680640,
          "time": 567.2,
          "velocity": 0.8267716535433071
        },
        {
          "duration": 0.39999999999997726,
          "durationTicks": 480,
          "midi": 84,
          "name": "C6",
          "ticks": 680640,
          "time": 567.2,
          "velocity": 0.8267716535433071
        },
        {
          "duration": 0.33333333333325754,
          "durationTicks": 400,
          "midi": 79,
          "name": "G5",
          "ticks": 681120,
          "time": 567.6,
          "velocity": 0.8267716535433071
        },
        {
          "duration": 0.33333333333325754,
          "durationTicks": 400,
          "midi": 83,
          "name": "B5",
          "ticks": 681120,
          "time": 567.6,
          "velocity": 0.8267716535433071
        },
        {
          "duration": 1.5,
          "durationTicks": 1800,
          "midi": 78,
          "name": "F#5",
          "ticks": 681600,
          "time": 568,
          "velocity": 0.8267716535433071
        },
        {
          "duration": 1.5,
          "durationTicks": 1800,
          "midi": 84,
          "name": "C6",
          "ticks": 681600,
          "time": 568,
          "velocity": 0.8267716535433071
        },
        {
          "duration": 0.33333333333325754,
          "durationTicks": 400,
          "midi": 79,
          "name": "G5",
          "ticks": 683520,
          "time": 569.6,
          "velocity": 0.8267716535433071
        },
        {
          "duration": 0.33333333333325754,
          "durationTicks": 400,
          "midi": 83,
          "name": "B5",
          "ticks": 683520,
          "time": 569.6,
          "velocity": 0.8267716535433071
        },
        {
          "duration": 0.2966666666666242,
          "durationTicks": 356,
          "midi": 71,
          "name": "B4",
          "ticks": 684000,
          "time": 570,
          "velocity": 0.8267716535433071
        },
        {
          "duration": 0.2966666666666242,
          "durationTicks": 356,
          "midi": 74,
          "name": "D5",
          "ticks": 684000,
          "time": 570,
          "velocity": 0.8267716535433071
        },
        {
          "duration": 0.09666666666657875,
          "durationTicks": 116,
          "midi": 71,
          "name": "B4",
          "ticks": 684360,
          "time": 570.3000000000001,
          "velocity": 0.8267716535433071
        },
        {
          "duration": 0.09666666666657875,
          "durationTicks": 116,
          "midi": 74,
          "name": "D5",
          "ticks": 684360,
          "time": 570.3000000000001,
          "velocity": 0.8267716535433071
        },
        {
          "duration": 0.33333333333337123,
          "durationTicks": 400,
          "midi": 71,
          "name": "B4",
          "ticks": 684480,
          "time": 570.4,
          "velocity": 0.8267716535433071
        },
        {
          "duration": 0.33333333333337123,
          "durationTicks": 400,
          "midi": 74,
          "name": "D5",
          "ticks": 684480,
          "time": 570.4,
          "velocity": 0.8267716535433071
        },
        {
          "duration": 0.33333333333325754,
          "durationTicks": 400,
          "midi": 71,
          "name": "B4",
          "ticks": 684960,
          "time": 570.8000000000001,
          "velocity": 0.8267716535433071
        },
        {
          "duration": 0.33333333333325754,
          "durationTicks": 400,
          "midi": 74,
          "name": "D5",
          "ticks": 684960,
          "time": 570.8000000000001,
          "velocity": 0.8267716535433071
        },
        {
          "duration": 0.33333333333325754,
          "durationTicks": 400,
          "midi": 72,
          "name": "C5",
          "ticks": 685440,
          "time": 571.2,
          "velocity": 0.8267716535433071
        },
        {
          "duration": 0.33333333333325754,
          "durationTicks": 400,
          "midi": 76,
          "name": "E5",
          "ticks": 685440,
          "time": 571.2,
          "velocity": 0.8267716535433071
        },
        {
          "duration": 0.2966666666666242,
          "durationTicks": 356,
          "midi": 72,
          "name": "C5",
          "ticks": 685920,
          "time": 571.6,
          "velocity": 0.8267716535433071
        },
        {
          "duration": 0.2966666666666242,
          "durationTicks": 356,
          "midi": 76,
          "name": "E5",
          "ticks": 685920,
          "time": 571.6,
          "velocity": 0.8267716535433071
        },
        {
          "duration": 0.09666666666669244,
          "durationTicks": 116,
          "midi": 72,
          "name": "C5",
          "ticks": 686280,
          "time": 571.9,
          "velocity": 0.8267716535433071
        },
        {
          "duration": 0.09666666666669244,
          "durationTicks": 116,
          "midi": 76,
          "name": "E5",
          "ticks": 686280,
          "time": 571.9,
          "velocity": 0.8267716535433071
        },
        {
          "duration": 0.33333333333337123,
          "durationTicks": 400,
          "midi": 72,
          "name": "C5",
          "ticks": 686400,
          "time": 572,
          "velocity": 0.8267716535433071
        },
        {
          "duration": 0.33333333333337123,
          "durationTicks": 400,
          "midi": 76,
          "name": "E5",
          "ticks": 686400,
          "time": 572,
          "velocity": 0.8267716535433071
        },
        {
          "duration": 0.33333333333337123,
          "durationTicks": 400,
          "midi": 72,
          "name": "C5",
          "ticks": 686880,
          "time": 572.4,
          "velocity": 0.8267716535433071
        },
        {
          "duration": 0.33333333333337123,
          "durationTicks": 400,
          "midi": 76,
          "name": "E5",
          "ticks": 686880,
          "time": 572.4,
          "velocity": 0.8267716535433071
        },
        {
          "duration": 0.33333333333325754,
          "durationTicks": 400,
          "midi": 71,
          "name": "B4",
          "ticks": 687360,
          "time": 572.8000000000001,
          "velocity": 0.8267716535433071
        },
        {
          "duration": 0.33333333333325754,
          "durationTicks": 400,
          "midi": 74,
          "name": "D5",
          "ticks": 687360,
          "time": 572.8000000000001,
          "velocity": 0.8267716535433071
        },
        {
          "duration": 0.2966666666666242,
          "durationTicks": 356,
          "midi": 71,
          "name": "B4",
          "ticks": 687840,
          "time": 573.2,
          "velocity": 0.8267716535433071
        },
        {
          "duration": 0.2966666666666242,
          "durationTicks": 356,
          "midi": 74,
          "name": "D5",
          "ticks": 687840,
          "time": 573.2,
          "velocity": 0.8267716535433071
        },
        {
          "duration": 0.09666666666669244,
          "durationTicks": 116,
          "midi": 71,
          "name": "B4",
          "ticks": 688200,
          "time": 573.5,
          "velocity": 0.8267716535433071
        },
        {
          "duration": 0.09666666666669244,
          "durationTicks": 116,
          "midi": 74,
          "name": "D5",
          "ticks": 688200,
          "time": 573.5,
          "velocity": 0.8267716535433071
        },
        {
          "duration": 0.33333333333325754,
          "durationTicks": 400,
          "midi": 71,
          "name": "B4",
          "ticks": 688320,
          "time": 573.6,
          "velocity": 0.8267716535433071
        },
        {
          "duration": 0.33333333333325754,
          "durationTicks": 400,
          "midi": 74,
          "name": "D5",
          "ticks": 688320,
          "time": 573.6,
          "velocity": 0.8267716535433071
        },
        {
          "duration": 0.33333333333337123,
          "durationTicks": 400,
          "midi": 71,
          "name": "B4",
          "ticks": 688800,
          "time": 574,
          "velocity": 0.8267716535433071
        },
        {
          "duration": 0.33333333333337123,
          "durationTicks": 400,
          "midi": 74,
          "name": "D5",
          "ticks": 688800,
          "time": 574,
          "velocity": 0.8267716535433071
        },
        {
          "duration": 0.33333333333337123,
          "durationTicks": 400,
          "midi": 72,
          "name": "C5",
          "ticks": 689280,
          "time": 574.4,
          "velocity": 0.8267716535433071
        },
        {
          "duration": 0.33333333333337123,
          "durationTicks": 400,
          "midi": 76,
          "name": "E5",
          "ticks": 689280,
          "time": 574.4,
          "velocity": 0.8267716535433071
        },
        {
          "duration": 0.2966666666666242,
          "durationTicks": 356,
          "midi": 72,
          "name": "C5",
          "ticks": 689760,
          "time": 574.8000000000001,
          "velocity": 0.8267716535433071
        },
        {
          "duration": 0.2966666666666242,
          "durationTicks": 356,
          "midi": 76,
          "name": "E5",
          "ticks": 689760,
          "time": 574.8000000000001,
          "velocity": 0.8267716535433071
        },
        {
          "duration": 0.09666666666657875,
          "durationTicks": 116,
          "midi": 72,
          "name": "C5",
          "ticks": 690120,
          "time": 575.1,
          "velocity": 0.8267716535433071
        },
        {
          "duration": 0.09666666666657875,
          "durationTicks": 116,
          "midi": 76,
          "name": "E5",
          "ticks": 690120,
          "time": 575.1,
          "velocity": 0.8267716535433071
        },
        {
          "duration": 0.33333333333325754,
          "durationTicks": 400,
          "midi": 72,
          "name": "C5",
          "ticks": 690240,
          "time": 575.2,
          "velocity": 0.8267716535433071
        },
        {
          "duration": 0.33333333333325754,
          "durationTicks": 400,
          "midi": 76,
          "name": "E5",
          "ticks": 690240,
          "time": 575.2,
          "velocity": 0.8267716535433071
        },
        {
          "duration": 0.33333333333325754,
          "durationTicks": 400,
          "midi": 72,
          "name": "C5",
          "ticks": 690720,
          "time": 575.6,
          "velocity": 0.8267716535433071
        },
        {
          "duration": 0.33333333333325754,
          "durationTicks": 400,
          "midi": 76,
          "name": "E5",
          "ticks": 690720,
          "time": 575.6,
          "velocity": 0.8267716535433071
        },
        {
          "duration": 0.33333333333337123,
          "durationTicks": 400,
          "midi": 71,
          "name": "B4",
          "ticks": 691200,
          "time": 576,
          "velocity": 0.8267716535433071
        },
        {
          "duration": 0.33333333333337123,
          "durationTicks": 400,
          "midi": 74,
          "name": "D5",
          "ticks": 691200,
          "time": 576,
          "velocity": 0.8267716535433071
        },
        {
          "duration": 0.33333333333337123,
          "durationTicks": 400,
          "midi": 79,
          "name": "G5",
          "ticks": 691680,
          "time": 576.4,
          "velocity": 0.8267716535433071
        },
        {
          "duration": 0.33333333333337123,
          "durationTicks": 400,
          "midi": 83,
          "name": "B5",
          "ticks": 691680,
          "time": 576.4,
          "velocity": 0.8267716535433071
        },
        {
          "duration": 0.33333333333325754,
          "durationTicks": 400,
          "midi": 79,
          "name": "G5",
          "ticks": 692640,
          "time": 577.2,
          "velocity": 0.8267716535433071
        },
        {
          "duration": 0.33333333333325754,
          "durationTicks": 400,
          "midi": 84,
          "name": "C6",
          "ticks": 692640,
          "time": 577.2,
          "velocity": 0.8267716535433071
        },
        {
          "duration": 0.33333333333337123,
          "durationTicks": 400,
          "midi": 79,
          "name": "G5",
          "ticks": 693600,
          "time": 578,
          "velocity": 0.8267716535433071
        },
        {
          "duration": 0.33333333333337123,
          "durationTicks": 400,
          "midi": 83,
          "name": "B5",
          "ticks": 693600,
          "time": 578,
          "velocity": 0.8267716535433071
        },
        {
          "duration": 0.33333333333325754,
          "durationTicks": 400,
          "midi": 79,
          "name": "G5",
          "ticks": 694560,
          "time": 578.8000000000001,
          "velocity": 0.8267716535433071
        },
        {
          "duration": 0.33333333333325754,
          "durationTicks": 400,
          "midi": 84,
          "name": "C6",
          "ticks": 694560,
          "time": 578.8000000000001,
          "velocity": 0.8267716535433071
        },
        {
          "duration": 0.33333333333325754,
          "durationTicks": 400,
          "midi": 79,
          "name": "G5",
          "ticks": 695040,
          "time": 579.2,
          "velocity": 0.8267716535433071
        },
        {
          "duration": 0.33333333333325754,
          "durationTicks": 400,
          "midi": 83,
          "name": "B5",
          "ticks": 695040,
          "time": 579.2,
          "velocity": 0.8267716535433071
        },
        {
          "duration": 0.3000000000000682,
          "durationTicks": 360,
          "midi": 79,
          "name": "G5",
          "ticks": 715680,
          "time": 596.4,
          "velocity": 0.4015748031496063
        },
        {
          "duration": 0.09666666666657875,
          "durationTicks": 116,
          "midi": 81,
          "name": "A5",
          "ticks": 716040,
          "time": 596.7,
          "velocity": 0.4015748031496063
        },
        {
          "duration": 0.06666666666660603,
          "durationTicks": 80,
          "midi": 77,
          "name": "F5",
          "ticks": 716160,
          "time": 596.8000000000001,
          "velocity": 0.4015748031496063
        },
        {
          "duration": 0.2999999999999545,
          "durationTicks": 360,
          "midi": 77,
          "name": "F5",
          "ticks": 716640,
          "time": 597.2,
          "velocity": 0.4015748031496063
        },
        {
          "duration": 0.09666666666669244,
          "durationTicks": 116,
          "midi": 79,
          "name": "G5",
          "ticks": 717000,
          "time": 597.5,
          "velocity": 0.4015748031496063
        },
        {
          "duration": 0.06666666666671972,
          "durationTicks": 80,
          "midi": 76,
          "name": "E5",
          "ticks": 717120,
          "time": 597.6,
          "velocity": 0.4015748031496063
        },
        {
          "duration": 0.3000000000000682,
          "durationTicks": 360,
          "midi": 76,
          "name": "E5",
          "ticks": 717600,
          "time": 598,
          "velocity": 0.4015748031496063
        },
        {
          "duration": 0.09666666666657875,
          "durationTicks": 116,
          "midi": 77,
          "name": "F5",
          "ticks": 717960,
          "time": 598.3000000000001,
          "velocity": 0.4015748031496063
        },
        {
          "duration": 0.10000000000002274,
          "durationTicks": 120,
          "midi": 74,
          "name": "D5",
          "ticks": 718080,
          "time": 598.4,
          "velocity": 0.4015748031496063
        },
        {
          "duration": 0.09999999999990905,
          "durationTicks": 120,
          "midi": 74,
          "name": "D5",
          "ticks": 718560,
          "time": 598.8000000000001,
          "velocity": 0.4015748031496063
        },
        {
          "duration": 0.10000000000002274,
          "durationTicks": 120,
          "midi": 74,
          "name": "D5",
          "ticks": 719040,
          "time": 599.2,
          "velocity": 0.4015748031496063
        },
        {
          "duration": 0.2999999999999545,
          "durationTicks": 360,
          "midi": 76,
          "name": "E5",
          "ticks": 719520,
          "time": 599.6,
          "velocity": 0.4015748031496063
        },
        {
          "duration": 0.09666666666669244,
          "durationTicks": 116,
          "midi": 77,
          "name": "F5",
          "ticks": 719880,
          "time": 599.9,
          "velocity": 0.4015748031496063
        },
        {
          "duration": 0.06666666666671972,
          "durationTicks": 80,
          "midi": 79,
          "name": "G5",
          "ticks": 720000,
          "time": 600,
          "velocity": 0.4015748031496063
        },
        {
          "duration": 0.3000000000000682,
          "durationTicks": 360,
          "midi": 79,
          "name": "G5",
          "ticks": 720480,
          "time": 600.4,
          "velocity": 0.4015748031496063
        },
        {
          "duration": 0.09666666666657875,
          "durationTicks": 116,
          "midi": 81,
          "name": "A5",
          "ticks": 720840,
          "time": 600.7,
          "velocity": 0.4015748031496063
        },
        {
          "duration": 0.06666666666660603,
          "durationTicks": 80,
          "midi": 77,
          "name": "F5",
          "ticks": 720960,
          "time": 600.8000000000001,
          "velocity": 0.4015748031496063
        },
        {
          "duration": 0.2999999999999545,
          "durationTicks": 360,
          "midi": 77,
          "name": "F5",
          "ticks": 721440,
          "time": 601.2,
          "velocity": 0.4015748031496063
        },
        {
          "duration": 0.09666666666669244,
          "durationTicks": 116,
          "midi": 79,
          "name": "G5",
          "ticks": 721800,
          "time": 601.5,
          "velocity": 0.4015748031496063
        },
        {
          "duration": 0.10000000000002274,
          "durationTicks": 120,
          "midi": 76,
          "name": "E5",
          "ticks": 721920,
          "time": 601.6,
          "velocity": 0.4015748031496063
        },
        {
          "duration": 0.10000000000002274,
          "durationTicks": 120,
          "midi": 76,
          "name": "E5",
          "ticks": 722400,
          "time": 602,
          "velocity": 0.4015748031496063
        },
        {
          "duration": 0.20000000000004547,
          "durationTicks": 240,
          "midi": 76,
          "name": "E5",
          "ticks": 722880,
          "time": 602.4,
          "velocity": 0.4015748031496063
        },
        {
          "duration": 0.20000000000004547,
          "durationTicks": 240,
          "midi": 79,
          "name": "G5",
          "ticks": 723120,
          "time": 602.6,
          "velocity": 0.4015748031496063
        },
        {
          "duration": 0.1999999999999318,
          "durationTicks": 240,
          "midi": 77,
          "name": "F5",
          "ticks": 723360,
          "time": 602.8000000000001,
          "velocity": 0.4015748031496063
        },
        {
          "duration": 0.1966666666666015,
          "durationTicks": 236,
          "midi": 74,
          "name": "D5",
          "ticks": 723600,
          "time": 603,
          "velocity": 0.4015748031496063
        },
        {
          "duration": 1.1999999999999318,
          "durationTicks": 1440,
          "midi": 72,
          "name": "C5",
          "ticks": 723840,
          "time": 603.2,
          "velocity": 0.4015748031496063
        },
        {
          "duration": 0.20000000000004547,
          "durationTicks": 240,
          "midi": 76,
          "name": "E5",
          "ticks": 725280,
          "time": 604.4,
          "velocity": 0.4015748031496063
        },
        {
          "duration": 0.1966666666666015,
          "durationTicks": 236,
          "midi": 74,
          "name": "D5",
          "ticks": 725520,
          "time": 604.6,
          "velocity": 0.4015748031496063
        },
        {
          "duration": 0.33333333333325754,
          "durationTicks": 400,
          "midi": 72,
          "name": "C5",
          "ticks": 725760,
          "time": 604.8000000000001,
          "velocity": 0.4015748031496063
        },
        {
          "duration": 0.1966666666666015,
          "durationTicks": 236,
          "midi": 67,
          "name": "G4",
          "ticks": 733200,
          "time": 611,
          "velocity": 0.4015748031496063
        },
        {
          "duration": 0.6000000000000227,
          "durationTicks": 720,
          "midi": 72,
          "name": "C5",
          "ticks": 733440,
          "time": 611.2,
          "velocity": 0.4015748031496063
        },
        {
          "duration": 0.1966666666666015,
          "durationTicks": 236,
          "midi": 71,
          "name": "B4",
          "ticks": 734160,
          "time": 611.8000000000001,
          "velocity": 0.4015748031496063
        },
        {
          "duration": 0.6000000000000227,
          "durationTicks": 720,
          "midi": 76,
          "name": "E5",
          "ticks": 734400,
          "time": 612,
          "velocity": 0.4015748031496063
        },
        {
          "duration": 0.1966666666666015,
          "durationTicks": 236,
          "midi": 74,
          "name": "D5",
          "ticks": 735120,
          "time": 612.6,
          "velocity": 0.4015748031496063
        },
        {
          "duration": 1.6000000000000227,
          "durationTicks": 1920,
          "midi": 71,
          "name": "B4",
          "ticks": 735360,
          "time": 612.8000000000001,
          "velocity": 0.4015748031496063
        },
        {
          "duration": 1.9333333333332803,
          "durationTicks": 2320,
          "midi": 79,
          "name": "G5",
          "ticks": 735360,
          "time": 612.8000000000001,
          "velocity": 0.4015748031496063
        },
        {
          "duration": 0.33333333333325754,
          "durationTicks": 400,
          "midi": 70,
          "name": "A#4",
          "ticks": 737280,
          "time": 614.4000000000001,
          "velocity": 0.4015748031496063
        },
        {
          "duration": 0.10000000000002274,
          "durationTicks": 120,
          "midi": 79,
          "name": "G5",
          "ticks": 737760,
          "time": 614.8000000000001,
          "velocity": 0.4015748031496063
        },
        {
          "duration": 0.10000000000002274,
          "durationTicks": 120,
          "midi": 82,
          "name": "A#5",
          "ticks": 737760,
          "time": 614.8000000000001,
          "velocity": 0.4015748031496063
        },
        {
          "duration": 0.10000000000002274,
          "durationTicks": 120,
          "midi": 79,
          "name": "G5",
          "ticks": 738240,
          "time": 615.2,
          "velocity": 0.4015748031496063
        },
        {
          "duration": 0.10000000000002274,
          "durationTicks": 120,
          "midi": 82,
          "name": "A#5",
          "ticks": 738240,
          "time": 615.2,
          "velocity": 0.4015748031496063
        },
        {
          "duration": 0.10000000000002274,
          "durationTicks": 120,
          "midi": 77,
          "name": "F5",
          "ticks": 739200,
          "time": 616,
          "velocity": 0.4015748031496063
        },
        {
          "duration": 0.10000000000002274,
          "durationTicks": 120,
          "midi": 81,
          "name": "A5",
          "ticks": 739200,
          "time": 616,
          "velocity": 0.4015748031496063
        },
        {
          "duration": 0.09999999999990905,
          "durationTicks": 120,
          "midi": 77,
          "name": "F5",
          "ticks": 739680,
          "time": 616.4000000000001,
          "velocity": 0.4015748031496063
        },
        {
          "duration": 0.09999999999990905,
          "durationTicks": 120,
          "midi": 81,
          "name": "A5",
          "ticks": 739680,
          "time": 616.4000000000001,
          "velocity": 0.4015748031496063
        },
        {
          "duration": 0.10000000000002274,
          "durationTicks": 120,
          "midi": 77,
          "name": "F5",
          "ticks": 740160,
          "time": 616.8000000000001,
          "velocity": 0.4015748031496063
        },
        {
          "duration": 0.10000000000002274,
          "durationTicks": 120,
          "midi": 81,
          "name": "A5",
          "ticks": 740160,
          "time": 616.8000000000001,
          "velocity": 0.4015748031496063
        },
        {
          "duration": 0.10000000000002274,
          "durationTicks": 120,
          "midi": 82,
          "name": "A#5",
          "ticks": 741120,
          "time": 617.6,
          "velocity": 0.4015748031496063
        },
        {
          "duration": 0.10000000000002274,
          "durationTicks": 120,
          "midi": 84,
          "name": "C6",
          "ticks": 741120,
          "time": 617.6,
          "velocity": 0.4015748031496063
        },
        {
          "duration": 0.10000000000002274,
          "durationTicks": 120,
          "midi": 82,
          "name": "A#5",
          "ticks": 741600,
          "time": 618,
          "velocity": 0.4015748031496063
        },
        {
          "duration": 0.10000000000002274,
          "durationTicks": 120,
          "midi": 84,
          "name": "C6",
          "ticks": 741600,
          "time": 618,
          "velocity": 0.4015748031496063
        },
        {
          "duration": 0.09999999999990905,
          "durationTicks": 120,
          "midi": 82,
          "name": "A#5",
          "ticks": 742080,
          "time": 618.4000000000001,
          "velocity": 0.4015748031496063
        },
        {
          "duration": 0.09999999999990905,
          "durationTicks": 120,
          "midi": 84,
          "name": "C6",
          "ticks": 742080,
          "time": 618.4000000000001,
          "velocity": 0.4015748031496063
        },
        {
          "duration": 3.1000000000000227,
          "durationTicks": 3720,
          "midi": 68,
          "name": "G#4",
          "ticks": 744960,
          "time": 620.8000000000001,
          "velocity": 0.8267716535433071
        },
        {
          "duration": 3.1000000000000227,
          "durationTicks": 3720,
          "midi": 72,
          "name": "C5",
          "ticks": 744960,
          "time": 620.8000000000001,
          "velocity": 0.8267716535433071
        },
        {
          "duration": 1.6000000000000227,
          "durationTicks": 1920,
          "midi": 73,
          "name": "C#5",
          "ticks": 748800,
          "time": 624,
          "velocity": 0.8267716535433071
        },
        {
          "duration": 1.6000000000000227,
          "durationTicks": 1920,
          "midi": 80,
          "name": "G#5",
          "ticks": 748800,
          "time": 624,
          "velocity": 0.8267716535433071
        },
        {
          "duration": 0.046666666666624224,
          "durationTicks": 56,
          "midi": 72,
          "name": "C5",
          "ticks": 750720,
          "time": 625.6,
          "velocity": 0.8267716535433071
        },
        {
          "duration": 0.6833333333332803,
          "durationTicks": 820,
          "midi": 73,
          "name": "C#5",
          "ticks": 750780,
          "time": 625.6500000000001,
          "velocity": 0.8267716535433071
        },
        {
          "duration": 0.6833333333332803,
          "durationTicks": 820,
          "midi": 80,
          "name": "G#5",
          "ticks": 750780,
          "time": 625.6500000000001,
          "velocity": 0.8267716535433071
        },
        {
          "duration": 0.049999999999954525,
          "durationTicks": 60,
          "midi": 72,
          "name": "C5",
          "ticks": 751680,
          "time": 626.4000000000001,
          "velocity": 0.8267716535433071
        },
        {
          "duration": 0.6833333333332803,
          "durationTicks": 820,
          "midi": 73,
          "name": "C#5",
          "ticks": 751740,
          "time": 626.45,
          "velocity": 0.8267716535433071
        },
        {
          "duration": 0.7000000000000455,
          "durationTicks": 840,
          "midi": 73,
          "name": "C#5",
          "ticks": 752640,
          "time": 627.2,
          "velocity": 0.8267716535433071
        },
        {
          "duration": 1.5,
          "durationTicks": 1800,
          "midi": 79,
          "name": "G5",
          "ticks": 752640,
          "time": 627.2,
          "velocity": 0.8267716535433071
        },
        {
          "duration": 1.5,
          "durationTicks": 1800,
          "midi": 72,
          "name": "C5",
          "ticks": 753600,
          "time": 628,
          "velocity": 0.8267716535433071
        },
        {
          "duration": 1.5,
          "durationTicks": 1800,
          "midi": 77,
          "name": "F5",
          "ticks": 754560,
          "time": 628.8000000000001,
          "velocity": 0.8267716535433071
        },
        {
          "duration": 0.7000000000000455,
          "durationTicks": 840,
          "midi": 71,
          "name": "B4",
          "ticks": 755520,
          "time": 629.6,
          "velocity": 0.8267716535433071
        },
        {
          "duration": 0.33333333333325754,
          "durationTicks": 400,
          "midi": 72,
          "name": "C5",
          "ticks": 756480,
          "time": 630.4000000000001,
          "velocity": 0.8267716535433071
        },
        {
          "duration": 0.33333333333325754,
          "durationTicks": 400,
          "midi": 76,
          "name": "E5",
          "ticks": 756480,
          "time": 630.4000000000001,
          "velocity": 0.8267716535433071
        },
        {
          "duration": 0.33333333333325754,
          "durationTicks": 400,
          "midi": 72,
          "name": "C5",
          "ticks": 757440,
          "time": 631.2,
          "velocity": 0.8267716535433071
        },
        {
          "duration": 0.33333333333325754,
          "durationTicks": 400,
          "midi": 74,
          "name": "D5",
          "ticks": 757440,
          "time": 631.2,
          "velocity": 0.8267716535433071
        },
        {
          "duration": 0.33333333333337123,
          "durationTicks": 400,
          "midi": 72,
          "name": "C5",
          "ticks": 758400,
          "time": 632,
          "velocity": 0.8267716535433071
        },
        {
          "duration": 0.33333333333337123,
          "durationTicks": 400,
          "midi": 76,
          "name": "E5",
          "ticks": 758400,
          "time": 632,
          "velocity": 0.8267716535433071
        },
        {
          "duration": 0.33333333333325754,
          "durationTicks": 400,
          "midi": 74,
          "name": "D5",
          "ticks": 759360,
          "time": 632.8000000000001,
          "velocity": 0.8267716535433071
        },
        {
          "duration": 0.33333333333325754,
          "durationTicks": 400,
          "midi": 77,
          "name": "F5",
          "ticks": 759360,
          "time": 632.8000000000001,
          "velocity": 0.8267716535433071
        },
        {
          "duration": 0.6000000000000227,
          "durationTicks": 720,
          "midi": 72,
          "name": "C5",
          "ticks": 760320,
          "time": 633.6,
          "velocity": 0.8267716535433071
        },
        {
          "duration": 0.6000000000000227,
          "durationTicks": 720,
          "midi": 76,
          "name": "E5",
          "ticks": 760320,
          "time": 633.6,
          "velocity": 0.8267716535433071
        },
        {
          "duration": 0.1966666666666015,
          "durationTicks": 236,
          "midi": 71,
          "name": "B4",
          "ticks": 761040,
          "time": 634.2,
          "velocity": 0.8267716535433071
        },
        {
          "duration": 0.1966666666666015,
          "durationTicks": 236,
          "midi": 74,
          "name": "D5",
          "ticks": 761040,
          "time": 634.2,
          "velocity": 0.8267716535433071
        },
        {
          "duration": 0.2999999999999545,
          "durationTicks": 360,
          "midi": 74,
          "name": "D5",
          "ticks": 761280,
          "time": 634.4000000000001,
          "velocity": 0.8267716535433071
        },
        {
          "duration": 0.2999999999999545,
          "durationTicks": 360,
          "midi": 77,
          "name": "F5",
          "ticks": 761280,
          "time": 634.4000000000001,
          "velocity": 0.8267716535433071
        },
        {
          "duration": 0.09666666666657875,
          "durationTicks": 116,
          "midi": 72,
          "name": "C5",
          "ticks": 761640,
          "time": 634.7,
          "velocity": 0.8267716535433071
        },
        {
          "duration": 0.09666666666657875,
          "durationTicks": 116,
          "midi": 76,
          "name": "E5",
          "ticks": 761640,
          "time": 634.7,
          "velocity": 0.8267716535433071
        },
        {
          "duration": 0.2999999999999545,
          "durationTicks": 360,
          "midi": 77,
          "name": "F5",
          "ticks": 761760,
          "time": 634.8000000000001,
          "velocity": 0.8267716535433071
        },
        {
          "duration": 0.2999999999999545,
          "durationTicks": 360,
          "midi": 81,
          "name": "A5",
          "ticks": 761760,
          "time": 634.8000000000001,
          "velocity": 0.8267716535433071
        },
        {
          "duration": 0.09666666666669244,
          "durationTicks": 116,
          "midi": 76,
          "name": "E5",
          "ticks": 762120,
          "time": 635.1,
          "velocity": 0.8267716535433071
        },
        {
          "duration": 0.09666666666669244,
          "durationTicks": 116,
          "midi": 79,
          "name": "G5",
          "ticks": 762120,
          "time": 635.1,
          "velocity": 0.8267716535433071
        },
        {
          "duration": 0.6000000000000227,
          "durationTicks": 720,
          "midi": 74,
          "name": "D5",
          "ticks": 762240,
          "time": 635.2,
          "velocity": 0.8267716535433071
        },
        {
          "duration": 0.6000000000000227,
          "durationTicks": 720,
          "midi": 77,
          "name": "F5",
          "ticks": 762240,
          "time": 635.2,
          "velocity": 0.8267716535433071
        },
        {
          "duration": 0.1966666666666015,
          "durationTicks": 236,
          "midi": 73,
          "name": "C#5",
          "ticks": 762960,
          "time": 635.8000000000001,
          "velocity": 0.8267716535433071
        },
        {
          "duration": 0.1966666666666015,
          "durationTicks": 236,
          "midi": 76,
          "name": "E5",
          "ticks": 762960,
          "time": 635.8000000000001,
          "velocity": 0.8267716535433071
        },
        {
          "duration": 0.3000000000000682,
          "durationTicks": 360,
          "midi": 76,
          "name": "E5",
          "ticks": 763200,
          "time": 636,
          "velocity": 0.8267716535433071
        },
        {
          "duration": 0.3000000000000682,
          "durationTicks": 360,
          "midi": 79,
          "name": "G5",
          "ticks": 763200,
          "time": 636,
          "velocity": 0.8267716535433071
        },
        {
          "duration": 0.09666666666657875,
          "durationTicks": 116,
          "midi": 74,
          "name": "D5",
          "ticks": 763560,
          "time": 636.3000000000001,
          "velocity": 0.8267716535433071
        },
        {
          "duration": 0.09666666666657875,
          "durationTicks": 116,
          "midi": 77,
          "name": "F5",
          "ticks": 763560,
          "time": 636.3000000000001,
          "velocity": 0.8267716535433071
        },
        {
          "duration": 0.2999999999999545,
          "durationTicks": 360,
          "midi": 79,
          "name": "G5",
          "ticks": 763680,
          "time": 636.4000000000001,
          "velocity": 0.8267716535433071
        },
        {
          "duration": 0.2999999999999545,
          "durationTicks": 360,
          "midi": 82,
          "name": "A#5",
          "ticks": 763680,
          "time": 636.4000000000001,
          "velocity": 0.8267716535433071
        },
        {
          "duration": 0.09666666666657875,
          "durationTicks": 116,
          "midi": 77,
          "name": "F5",
          "ticks": 764040,
          "time": 636.7,
          "velocity": 0.8267716535433071
        },
        {
          "duration": 0.09666666666657875,
          "durationTicks": 116,
          "midi": 81,
          "name": "A5",
          "ticks": 764040,
          "time": 636.7,
          "velocity": 0.8267716535433071
        },
        {
          "duration": 0.6000000000000227,
          "durationTicks": 720,
          "midi": 76,
          "name": "E5",
          "ticks": 764160,
          "time": 636.8000000000001,
          "velocity": 0.8267716535433071
        },
        {
          "duration": 0.6000000000000227,
          "durationTicks": 720,
          "midi": 79,
          "name": "G5",
          "ticks": 764160,
          "time": 636.8000000000001,
          "velocity": 0.8267716535433071
        },
        {
          "duration": 0.1966666666666015,
          "durationTicks": 236,
          "midi": 75,
          "name": "D#5",
          "ticks": 764880,
          "time": 637.4000000000001,
          "velocity": 0.8267716535433071
        },
        {
          "duration": 0.1966666666666015,
          "durationTicks": 236,
          "midi": 78,
          "name": "F#5",
          "ticks": 764880,
          "time": 637.4000000000001,
          "velocity": 0.8267716535433071
        },
        {
          "duration": 0.3000000000000682,
          "durationTicks": 360,
          "midi": 77,
          "name": "F5",
          "ticks": 765120,
          "time": 637.6,
          "velocity": 0.8267716535433071
        },
        {
          "duration": 0.3000000000000682,
          "durationTicks": 360,
          "midi": 81,
          "name": "A5",
          "ticks": 765120,
          "time": 637.6,
          "velocity": 0.8267716535433071
        },
        {
          "duration": 0.09666666666657875,
          "durationTicks": 116,
          "midi": 76,
          "name": "E5",
          "ticks": 765480,
          "time": 637.9000000000001,
          "velocity": 0.8267716535433071
        },
        {
          "duration": 0.09666666666657875,
          "durationTicks": 116,
          "midi": 79,
          "name": "G5",
          "ticks": 765480,
          "time": 637.9000000000001,
          "velocity": 0.8267716535433071
        },
        {
          "duration": 0.3000000000000682,
          "durationTicks": 360,
          "midi": 81,
          "name": "A5",
          "ticks": 765600,
          "time": 638,
          "velocity": 0.8267716535433071
        },
        {
          "duration": 0.3000000000000682,
          "durationTicks": 360,
          "midi": 84,
          "name": "C6",
          "ticks": 765600,
          "time": 638,
          "velocity": 0.8267716535433071
        },
        {
          "duration": 0.09666666666657875,
          "durationTicks": 116,
          "midi": 79,
          "name": "G5",
          "ticks": 765960,
          "time": 638.3000000000001,
          "velocity": 0.8267716535433071
        },
        {
          "duration": 0.09666666666657875,
          "durationTicks": 116,
          "midi": 82,
          "name": "A#5",
          "ticks": 765960,
          "time": 638.3000000000001,
          "velocity": 0.8267716535433071
        },
        {
          "duration": 0.6999999999999318,
          "durationTicks": 840,
          "midi": 77,
          "name": "F5",
          "ticks": 766080,
          "time": 638.4000000000001,
          "velocity": 0.6771653543307087
        },
        {
          "duration": 0.6999999999999318,
          "durationTicks": 840,
          "midi": 81,
          "name": "A5",
          "ticks": 766080,
          "time": 638.4000000000001,
          "velocity": 0.6771653543307087
        },
        {
          "duration": 0.7000000000000455,
          "durationTicks": 840,
          "midi": 76,
          "name": "E5",
          "ticks": 767040,
          "time": 639.2,
          "velocity": 0.6771653543307087
        },
        {
          "duration": 0.7000000000000455,
          "durationTicks": 840,
          "midi": 79,
          "name": "G5",
          "ticks": 767040,
          "time": 639.2,
          "velocity": 0.6771653543307087
        },
        {
          "duration": 0.533333333333303,
          "durationTicks": 640,
          "midi": 77,
          "name": "F5",
          "ticks": 768000,
          "time": 640,
          "velocity": 0.6771653543307087
        },
        {
          "duration": 0.40000000000009095,
          "durationTicks": 480,
          "midi": 81,
          "name": "A5",
          "ticks": 768000,
          "time": 640,
          "velocity": 0.6771653543307087
        },
        {
          "duration": 0.10000000000002274,
          "durationTicks": 120,
          "midi": 79,
          "name": "G5",
          "ticks": 768720,
          "time": 640.6,
          "velocity": 0.6771653543307087
        },
        {
          "duration": 0.10000000000002274,
          "durationTicks": 120,
          "midi": 81,
          "name": "A5",
          "ticks": 768840,
          "time": 640.7,
          "velocity": 0.6771653543307087
        },
        {
          "duration": 0.6000000000000227,
          "durationTicks": 720,
          "midi": 71,
          "name": "B4",
          "ticks": 768960,
          "time": 640.8000000000001,
          "velocity": 0.6771653543307087
        },
        {
          "duration": 0.6000000000000227,
          "durationTicks": 720,
          "midi": 79,
          "name": "G5",
          "ticks": 768960,
          "time": 640.8000000000001,
          "velocity": 0.6771653543307087
        },
        {
          "duration": 0.09999999999990905,
          "durationTicks": 120,
          "midi": 72,
          "name": "C5",
          "ticks": 769680,
          "time": 641.4000000000001,
          "velocity": 0.6771653543307087
        },
        {
          "duration": 0.09999999999990905,
          "durationTicks": 120,
          "midi": 81,
          "name": "A5",
          "ticks": 769680,
          "time": 641.4000000000001,
          "velocity": 0.6771653543307087
        },
        {
          "duration": 0.09666666666669244,
          "durationTicks": 116,
          "midi": 74,
          "name": "D5",
          "ticks": 769800,
          "time": 641.5,
          "velocity": 0.6771653543307087
        },
        {
          "duration": 0.09666666666669244,
          "durationTicks": 116,
          "midi": 83,
          "name": "B5",
          "ticks": 769800,
          "time": 641.5,
          "velocity": 0.6771653543307087
        },
        {
          "duration": 0.533333333333303,
          "durationTicks": 640,
          "midi": 76,
          "name": "E5",
          "ticks": 769920,
          "time": 641.6,
          "velocity": 0.6771653543307087
        },
        {
          "duration": 0.39999999999997726,
          "durationTicks": 480,
          "midi": 84,
          "name": "C6",
          "ticks": 769920,
          "time": 641.6,
          "velocity": 0.6771653543307087
        },
        {
          "duration": 0.1966666666666015,
          "durationTicks": 236,
          "midi": 74,
          "name": "D5",
          "ticks": 770640,
          "time": 642.2,
          "velocity": 0.6771653543307087
        },
        {
          "duration": 0.2999999999999545,
          "durationTicks": 360,
          "midi": 77,
          "name": "F5",
          "ticks": 770880,
          "time": 642.4000000000001,
          "velocity": 0.6771653543307087
        },
        {
          "duration": 0.09666666666657875,
          "durationTicks": 116,
          "midi": 76,
          "name": "E5",
          "ticks": 771240,
          "time": 642.7,
          "velocity": 0.6771653543307087
        },
        {
          "duration": 0.2999999999999545,
          "durationTicks": 360,
          "midi": 81,
          "name": "A5",
          "ticks": 771360,
          "time": 642.8000000000001,
          "velocity": 0.6771653543307087
        },
        {
          "duration": 0.09666666666669244,
          "durationTicks": 116,
          "midi": 79,
          "name": "G5",
          "ticks": 771720,
          "time": 643.1,
          "velocity": 0.6771653543307087
        },
        {
          "duration": 0.6000000000000227,
          "durationTicks": 720,
          "midi": 77,
          "name": "F5",
          "ticks": 771840,
          "time": 643.2,
          "velocity": 0.6771653543307087
        },
        {
          "duration": 0.1966666666666015,
          "durationTicks": 236,
          "midi": 76,
          "name": "E5",
          "ticks": 772560,
          "time": 643.8000000000001,
          "velocity": 0.6771653543307087
        },
        {
          "duration": 0.3000000000000682,
          "durationTicks": 360,
          "midi": 79,
          "name": "G5",
          "ticks": 772800,
          "time": 644,
          "velocity": 0.6771653543307087
        },
        {
          "duration": 0.09666666666657875,
          "durationTicks": 116,
          "midi": 77,
          "name": "F5",
          "ticks": 773160,
          "time": 644.3000000000001,
          "velocity": 0.6771653543307087
        },
        {
          "duration": 0.2999999999999545,
          "durationTicks": 360,
          "midi": 82,
          "name": "A#5",
          "ticks": 773280,
          "time": 644.4000000000001,
          "velocity": 0.6771653543307087
        },
        {
          "duration": 0.09666666666657875,
          "durationTicks": 116,
          "midi": 81,
          "name": "A5",
          "ticks": 773640,
          "time": 644.7,
          "velocity": 0.6771653543307087
        },
        {
          "duration": 0.6000000000000227,
          "durationTicks": 720,
          "midi": 79,
          "name": "G5",
          "ticks": 773760,
          "time": 644.8000000000001,
          "velocity": 0.6771653543307087
        },
        {
          "duration": 0.1966666666666015,
          "durationTicks": 236,
          "midi": 78,
          "name": "F#5",
          "ticks": 774480,
          "time": 645.4000000000001,
          "velocity": 0.6771653543307087
        },
        {
          "duration": 0.3000000000000682,
          "durationTicks": 360,
          "midi": 81,
          "name": "A5",
          "ticks": 774720,
          "time": 645.6,
          "velocity": 0.6771653543307087
        },
        {
          "duration": 0.09666666666657875,
          "durationTicks": 116,
          "midi": 79,
          "name": "G5",
          "ticks": 775080,
          "time": 645.9000000000001,
          "velocity": 0.6771653543307087
        },
        {
          "duration": 0.3000000000000682,
          "durationTicks": 360,
          "midi": 84,
          "name": "C6",
          "ticks": 775200,
          "time": 646,
          "velocity": 0.6771653543307087
        },
        {
          "duration": 0.09666666666657875,
          "durationTicks": 116,
          "midi": 82,
          "name": "A#5",
          "ticks": 775560,
          "time": 646.3000000000001,
          "velocity": 0.6771653543307087
        },
        {
          "duration": 0.39999999999997726,
          "durationTicks": 480,
          "midi": 81,
          "name": "A5",
          "ticks": 775680,
          "time": 646.4000000000001,
          "velocity": 0.6771653543307087
        },
        {
          "duration": 0.33333333333325754,
          "durationTicks": 400,
          "midi": 73,
          "name": "C#5",
          "ticks": 776160,
          "time": 646.8000000000001,
          "velocity": 0.6771653543307087
        },
        {
          "duration": 0.33333333333325754,
          "durationTicks": 400,
          "midi": 82,
          "name": "A#5",
          "ticks": 776160,
          "time": 646.8000000000001,
          "velocity": 0.6771653543307087
        },
        {
          "duration": 0.39999999999997726,
          "durationTicks": 480,
          "midi": 74,
          "name": "D5",
          "ticks": 776640,
          "time": 647.2,
          "velocity": 0.6771653543307087
        },
        {
          "duration": 0.7000000000000455,
          "durationTicks": 840,
          "midi": 81,
          "name": "A5",
          "ticks": 776640,
          "time": 647.2,
          "velocity": 0.6771653543307087
        },
        {
          "duration": 0.39999999999997726,
          "durationTicks": 480,
          "midi": 79,
          "name": "G5",
          "ticks": 777120,
          "time": 647.6,
          "velocity": 0.6771653543307087
        },
        {
          "duration": 0.33333333333337123,
          "durationTicks": 400,
          "midi": 77,
          "name": "F5",
          "ticks": 777600,
          "time": 648,
          "velocity": 0.6771653543307087
        },
        {
          "duration": 0.33333333333337123,
          "durationTicks": 400,
          "midi": 81,
          "name": "A5",
          "ticks": 777600,
          "time": 648,
          "velocity": 0.6771653543307087
        },
        {
          "duration": 0.39999999999997726,
          "durationTicks": 480,
          "midi": 68,
          "name": "G#4",
          "ticks": 778080,
          "time": 648.4000000000001,
          "velocity": 0.6771653543307087
        },
        {
          "duration": 0.39999999999997726,
          "durationTicks": 480,
          "midi": 80,
          "name": "G#5",
          "ticks": 778080,
          "time": 648.4000000000001,
          "velocity": 0.6771653543307087
        },
        {
          "duration": 0.39999999999997726,
          "durationTicks": 480,
          "midi": 67,
          "name": "G4",
          "ticks": 778560,
          "time": 648.8000000000001,
          "velocity": 0.6771653543307087
        },
        {
          "duration": 0.39999999999997726,
          "durationTicks": 480,
          "midi": 79,
          "name": "G5",
          "ticks": 778560,
          "time": 648.8000000000001,
          "velocity": 0.6771653543307087
        },
        {
          "duration": 0.33333333333325754,
          "durationTicks": 400,
          "midi": 68,
          "name": "G#4",
          "ticks": 779040,
          "time": 649.2,
          "velocity": 0.6771653543307087
        },
        {
          "duration": 0.33333333333325754,
          "durationTicks": 400,
          "midi": 80,
          "name": "G#5",
          "ticks": 779040,
          "time": 649.2,
          "velocity": 0.6771653543307087
        },
        {
          "duration": 0.33333333333337123,
          "durationTicks": 400,
          "midi": 67,
          "name": "G4",
          "ticks": 779520,
          "time": 649.6,
          "velocity": 0.6771653543307087
        },
        {
          "duration": 0.33333333333337123,
          "durationTicks": 400,
          "midi": 79,
          "name": "G5",
          "ticks": 779520,
          "time": 649.6,
          "velocity": 0.6771653543307087
        },
        {
          "duration": 6.7333333333333485,
          "durationTicks": 8080,
          "midi": 67,
          "name": "G4",
          "ticks": 787200,
          "time": 656,
          "velocity": 0.4015748031496063
        },
        {
          "duration": 6.7333333333333485,
          "durationTicks": 8080,
          "midi": 79,
          "name": "G5",
          "ticks": 787200,
          "time": 656,
          "velocity": 0.4015748031496063
        },
        {
          "duration": 0.1966666666666015,
          "durationTicks": 236,
          "midi": 65,
          "name": "F4",
          "ticks": 797760,
          "time": 664.8000000000001,
          "velocity": 0.4015748031496063
        },
        {
          "duration": 0.1966666666666015,
          "durationTicks": 236,
          "midi": 71,
          "name": "B4",
          "ticks": 797760,
          "time": 664.8000000000001,
          "velocity": 0.4015748031496063
        },
        {
          "duration": 0.1966666666666015,
          "durationTicks": 236,
          "midi": 65,
          "name": "F4",
          "ticks": 798240,
          "time": 665.2,
          "velocity": 0.4015748031496063
        },
        {
          "duration": 0.1966666666666015,
          "durationTicks": 236,
          "midi": 71,
          "name": "B4",
          "ticks": 798240,
          "time": 665.2,
          "velocity": 0.4015748031496063
        },
        {
          "duration": 0.33333333333337123,
          "durationTicks": 400,
          "midi": 64,
          "name": "E4",
          "ticks": 798720,
          "time": 665.6,
          "velocity": 0.4015748031496063
        },
        {
          "duration": 0.33333333333337123,
          "durationTicks": 400,
          "midi": 72,
          "name": "C5",
          "ticks": 798720,
          "time": 665.6,
          "velocity": 0.4015748031496063
        },
        {
          "duration": 0.19666666666671517,
          "durationTicks": 236,
          "midi": 71,
          "name": "B4",
          "ticks": 801600,
          "time": 668,
          "velocity": 0.4015748031496063
        },
        {
          "duration": 0.19666666666671517,
          "durationTicks": 236,
          "midi": 77,
          "name": "F5",
          "ticks": 801600,
          "time": 668,
          "velocity": 0.4015748031496063
        },
        {
          "duration": 0.1966666666666015,
          "durationTicks": 236,
          "midi": 71,
          "name": "B4",
          "ticks": 802080,
          "time": 668.4000000000001,
          "velocity": 0.4015748031496063
        },
        {
          "duration": 0.1966666666666015,
          "durationTicks": 236,
          "midi": 77,
          "name": "F5",
          "ticks": 802080,
          "time": 668.4000000000001,
          "velocity": 0.4015748031496063
        },
        {
          "duration": 0.1966666666666015,
          "durationTicks": 236,
          "midi": 72,
          "name": "C5",
          "ticks": 802560,
          "time": 668.8000000000001,
          "velocity": 0.4015748031496063
        },
        {
          "duration": 0.1966666666666015,
          "durationTicks": 236,
          "midi": 76,
          "name": "E5",
          "ticks": 802560,
          "time": 668.8000000000001,
          "velocity": 0.4015748031496063
        },
        {
          "duration": 0.20000000000004547,
          "durationTicks": 240,
          "midi": 79,
          "name": "G5",
          "ticks": 803040,
          "time": 669.2,
          "velocity": 0.8267716535433071
        },
        {
          "duration": 0.6000000000000227,
          "durationTicks": 720,
          "midi": 79,
          "name": "G5",
          "ticks": 803040,
          "time": 669.2,
          "velocity": 0.8267716535433071
        },
        {
          "duration": 0.1999999999999318,
          "durationTicks": 240,
          "midi": 78,
          "name": "F#5",
          "ticks": 803280,
          "time": 669.4000000000001,
          "velocity": 0.8267716535433071
        },
        {
          "duration": 0.3000000000000682,
          "durationTicks": 360,
          "midi": 79,
          "name": "G5",
          "ticks": 803520,
          "time": 669.6,
          "velocity": 0.8267716535433071
        },
        {
          "duration": 0.1999999999999318,
          "durationTicks": 240,
          "midi": 78,
          "name": "F#5",
          "ticks": 803760,
          "time": 669.8000000000001,
          "velocity": 0.8267716535433071
        },
        {
          "duration": 0.20000000000004547,
          "durationTicks": 240,
          "midi": 79,
          "name": "G5",
          "ticks": 804000,
          "time": 670,
          "velocity": 0.8267716535433071
        },
        {
          "duration": 0.1966666666666015,
          "durationTicks": 236,
          "midi": 76,
          "name": "E5",
          "ticks": 804240,
          "time": 670.2,
          "velocity": 0.8267716535433071
        },
        {
          "duration": 0.1966666666666015,
          "durationTicks": 236,
          "midi": 77,
          "name": "F5",
          "ticks": 804480,
          "time": 670.4000000000001,
          "velocity": 0.8267716535433071
        },
        {
          "duration": 0.1966666666666015,
          "durationTicks": 236,
          "midi": 79,
          "name": "G5",
          "ticks": 804480,
          "time": 670.4000000000001,
          "velocity": 0.8267716535433071
        },
        {
          "duration": 0.1999999999999318,
          "durationTicks": 240,
          "midi": 77,
          "name": "F5",
          "ticks": 804960,
          "time": 670.8000000000001,
          "velocity": 0.8267716535433071
        },
        {
          "duration": 0.6999999999999318,
          "durationTicks": 840,
          "midi": 79,
          "name": "G5",
          "ticks": 804960,
          "time": 670.8000000000001,
          "velocity": 0.8267716535433071
        },
        {
          "duration": 0.20000000000004547,
          "durationTicks": 240,
          "midi": 76,
          "name": "E5",
          "ticks": 805200,
          "time": 671,
          "velocity": 0.8267716535433071
        },
        {
          "duration": 0.20000000000004547,
          "durationTicks": 240,
          "midi": 77,
          "name": "F5",
          "ticks": 805440,
          "time": 671.2,
          "velocity": 0.8267716535433071
        },
        {
          "duration": 0.1999999999999318,
          "durationTicks": 240,
          "midi": 76,
          "name": "E5",
          "ticks": 805680,
          "time": 671.4000000000001,
          "velocity": 0.8267716535433071
        },
        {
          "duration": 0.20000000000004547,
          "durationTicks": 240,
          "midi": 77,
          "name": "F5",
          "ticks": 805920,
          "time": 671.6,
          "velocity": 0.8267716535433071
        },
        {
          "duration": 0.1966666666666015,
          "durationTicks": 236,
          "midi": 79,
          "name": "G5",
          "ticks": 805920,
          "time": 671.6,
          "velocity": 0.8267716535433071
        },
        {
          "duration": 0.1966666666666015,
          "durationTicks": 236,
          "midi": 74,
          "name": "D5",
          "ticks": 806160,
          "time": 671.8000000000001,
          "velocity": 0.8267716535433071
        },
        {
          "duration": 0.19666666666671517,
          "durationTicks": 236,
          "midi": 76,
          "name": "E5",
          "ticks": 806400,
          "time": 672,
          "velocity": 0.8267716535433071
        },
        {
          "duration": 0.19666666666671517,
          "durationTicks": 236,
          "midi": 79,
          "name": "G5",
          "ticks": 806400,
          "time": 672,
          "velocity": 0.8267716535433071
        },
        {
          "duration": 0.049999999999954525,
          "durationTicks": 60,
          "midi": 74,
          "name": "D5",
          "ticks": 806880,
          "time": 672.4000000000001,
          "velocity": 0.8267716535433071
        },
        {
          "duration": 0.049999999999954525,
          "durationTicks": 60,
          "midi": 77,
          "name": "F5",
          "ticks": 806880,
          "time": 672.4000000000001,
          "velocity": 0.8267716535433071
        },
        {
          "duration": 0.049999999999954525,
          "durationTicks": 60,
          "midi": 72,
          "name": "C5",
          "ticks": 806940,
          "time": 672.45,
          "velocity": 0.8267716535433071
        },
        {
          "duration": 0.049999999999954525,
          "durationTicks": 60,
          "midi": 76,
          "name": "E5",
          "ticks": 806940,
          "time": 672.45,
          "velocity": 0.8267716535433071
        },
        {
          "duration": 0.05000000000006821,
          "durationTicks": 60,
          "midi": 74,
          "name": "D5",
          "ticks": 807000,
          "time": 672.5,
          "velocity": 0.8267716535433071
        },
        {
          "duration": 0.05000000000006821,
          "durationTicks": 60,
          "midi": 77,
          "name": "F5",
          "ticks": 807000,
          "time": 672.5,
          "velocity": 0.8267716535433071
        },
        {
          "duration": 0.049999999999954525,
          "durationTicks": 60,
          "midi": 72,
          "name": "C5",
          "ticks": 807060,
          "time": 672.5500000000001,
          "velocity": 0.8267716535433071
        },
        {
          "duration": 0.049999999999954525,
          "durationTicks": 60,
          "midi": 76,
          "name": "E5",
          "ticks": 807060,
          "time": 672.5500000000001,
          "velocity": 0.8267716535433071
        },
        {
          "duration": 0.10000000000002274,
          "durationTicks": 120,
          "midi": 71,
          "name": "B4",
          "ticks": 807120,
          "time": 672.6,
          "velocity": 0.8267716535433071
        },
        {
          "duration": 0.10000000000002274,
          "durationTicks": 120,
          "midi": 74,
          "name": "D5",
          "ticks": 807120,
          "time": 672.6,
          "velocity": 0.8267716535433071
        },
        {
          "duration": 0.10000000000002274,
          "durationTicks": 120,
          "midi": 72,
          "name": "C5",
          "ticks": 807240,
          "time": 672.7,
          "velocity": 0.8267716535433071
        },
        {
          "duration": 0.10000000000002274,
          "durationTicks": 120,
          "midi": 76,
          "name": "E5",
          "ticks": 807240,
          "time": 672.7,
          "velocity": 0.8267716535433071
        },
        {
          "duration": 0.1966666666666015,
          "durationTicks": 236,
          "midi": 74,
          "name": "D5",
          "ticks": 807360,
          "time": 672.8000000000001,
          "velocity": 0.8267716535433071
        },
        {
          "duration": 0.1966666666666015,
          "durationTicks": 236,
          "midi": 77,
          "name": "F5",
          "ticks": 807360,
          "time": 672.8000000000001,
          "velocity": 0.8267716535433071
        },
        {
          "duration": 0.06666666666671972,
          "durationTicks": 80,
          "midi": 74,
          "name": "D5",
          "ticks": 807600,
          "time": 673,
          "velocity": 0.8267716535433071
        },
        {
          "duration": 0.06666666666671972,
          "durationTicks": 80,
          "midi": 77,
          "name": "F5",
          "ticks": 807600,
          "time": 673,
          "velocity": 0.8267716535433071
        },
        {
          "duration": 0.06666666666671972,
          "durationTicks": 80,
          "midi": 71,
          "name": "B4",
          "ticks": 807840,
          "time": 673.2,
          "velocity": 0.8267716535433071
        },
        {
          "duration": 0.06666666666671972,
          "durationTicks": 80,
          "midi": 74,
          "name": "D5",
          "ticks": 807840,
          "time": 673.2,
          "velocity": 0.8267716535433071
        },
        {
          "duration": 0.06666666666660603,
          "durationTicks": 80,
          "midi": 71,
          "name": "B4",
          "ticks": 808080,
          "time": 673.4000000000001,
          "velocity": 0.8267716535433071
        },
        {
          "duration": 0.06666666666660603,
          "durationTicks": 80,
          "midi": 74,
          "name": "D5",
          "ticks": 808080,
          "time": 673.4000000000001,
          "velocity": 0.8267716535433071
        },
        {
          "duration": 0.1966666666666015,
          "durationTicks": 236,
          "midi": 72,
          "name": "C5",
          "ticks": 808320,
          "time": 673.6,
          "velocity": 0.8267716535433071
        },
        {
          "duration": 0.1966666666666015,
          "durationTicks": 236,
          "midi": 76,
          "name": "E5",
          "ticks": 808320,
          "time": 673.6,
          "velocity": 0.8267716535433071
        },
        {
          "duration": 0.20000000000004547,
          "durationTicks": 240,
          "midi": 79,
          "name": "G5",
          "ticks": 808800,
          "time": 674,
          "velocity": 0.8267716535433071
        },
        {
          "duration": 0.6000000000000227,
          "durationTicks": 720,
          "midi": 79,
          "name": "G5",
          "ticks": 808800,
          "time": 674,
          "velocity": 0.8267716535433071
        },
        {
          "duration": 0.20000000000004547,
          "durationTicks": 240,
          "midi": 78,
          "name": "F#5",
          "ticks": 809040,
          "time": 674.2,
          "velocity": 0.8267716535433071
        },
        {
          "duration": 0.2999999999999545,
          "durationTicks": 360,
          "midi": 79,
          "name": "G5",
          "ticks": 809280,
          "time": 674.4000000000001,
          "velocity": 0.8267716535433071
        },
        {
          "duration": 0.33333333333325754,
          "durationTicks": 400,
          "midi": 79,
          "name": "G5",
          "ticks": 809280,
          "time": 674.4000000000001,
          "velocity": 0.8267716535433071
        },
        {
          "duration": 0.20000000000004547,
          "durationTicks": 240,
          "midi": 78,
          "name": "F#5",
          "ticks": 809520,
          "time": 674.6,
          "velocity": 0.8267716535433071
        },
        {
          "duration": 0.1999999999999318,
          "durationTicks": 240,
          "midi": 79,
          "name": "G5",
          "ticks": 809760,
          "time": 674.8000000000001,
          "velocity": 0.8267716535433071
        },
        {
          "duration": 0.19666666666671517,
          "durationTicks": 236,
          "midi": 76,
          "name": "E5",
          "ticks": 810000,
          "time": 675,
          "velocity": 0.8267716535433071
        },
        {
          "duration": 0.1966666666666015,
          "durationTicks": 236,
          "midi": 77,
          "name": "F5",
          "ticks": 810240,
          "time": 675.2,
          "velocity": 0.8267716535433071
        },
        {
          "duration": 0.1966666666666015,
          "durationTicks": 236,
          "midi": 79,
          "name": "G5",
          "ticks": 810240,
          "time": 675.2,
          "velocity": 0.8267716535433071
        },
        {
          "duration": 0.20000000000004547,
          "durationTicks": 240,
          "midi": 77,
          "name": "F5",
          "ticks": 810720,
          "time": 675.6,
          "velocity": 0.8267716535433071
        },
        {
          "duration": 0.7000000000000455,
          "durationTicks": 840,
          "midi": 79,
          "name": "G5",
          "ticks": 810720,
          "time": 675.6,
          "velocity": 0.8267716535433071
        },
        {
          "duration": 0.1999999999999318,
          "durationTicks": 240,
          "midi": 76,
          "name": "E5",
          "ticks": 810960,
          "time": 675.8000000000001,
          "velocity": 0.8267716535433071
        },
        {
          "duration": 0.20000000000004547,
          "durationTicks": 240,
          "midi": 77,
          "name": "F5",
          "ticks": 811200,
          "time": 676,
          "velocity": 0.8267716535433071
        },
        {
          "duration": 0.20000000000004547,
          "durationTicks": 240,
          "midi": 76,
          "name": "E5",
          "ticks": 811440,
          "time": 676.2,
          "velocity": 0.8267716535433071
        },
        {
          "duration": 0.1999999999999318,
          "durationTicks": 240,
          "midi": 77,
          "name": "F5",
          "ticks": 811680,
          "time": 676.4000000000001,
          "velocity": 0.8267716535433071
        },
        {
          "duration": 0.1966666666666015,
          "durationTicks": 236,
          "midi": 79,
          "name": "G5",
          "ticks": 811680,
          "time": 676.4000000000001,
          "velocity": 0.8267716535433071
        },
        {
          "duration": 0.1966666666666015,
          "durationTicks": 236,
          "midi": 74,
          "name": "D5",
          "ticks": 811920,
          "time": 676.6,
          "velocity": 0.8267716535433071
        },
        {
          "duration": 0.1966666666666015,
          "durationTicks": 236,
          "midi": 76,
          "name": "E5",
          "ticks": 812160,
          "time": 676.8000000000001,
          "velocity": 0.8267716535433071
        },
        {
          "duration": 0.1966666666666015,
          "durationTicks": 236,
          "midi": 79,
          "name": "G5",
          "ticks": 812160,
          "time": 676.8000000000001,
          "velocity": 0.8267716535433071
        },
        {
          "duration": 0.7999999999999545,
          "durationTicks": 960,
          "midi": 76,
          "name": "E5",
          "ticks": 812640,
          "time": 677.2,
          "velocity": 0.8267716535433071
        },
        {
          "duration": 0.7999999999999545,
          "durationTicks": 960,
          "midi": 79,
          "name": "G5",
          "ticks": 812640,
          "time": 677.2,
          "velocity": 0.8267716535433071
        },
        {
          "duration": 0.33333333333337123,
          "durationTicks": 400,
          "midi": 74,
          "name": "D5",
          "ticks": 813600,
          "time": 678,
          "velocity": 0.8267716535433071
        },
        {
          "duration": 0.33333333333337123,
          "durationTicks": 400,
          "midi": 77,
          "name": "F5",
          "ticks": 813600,
          "time": 678,
          "velocity": 0.8267716535433071
        },
        {
          "duration": 0.1966666666666015,
          "durationTicks": 236,
          "midi": 72,
          "name": "C5",
          "ticks": 814080,
          "time": 678.4000000000001,
          "velocity": 0.8267716535433071
        },
        {
          "duration": 0.1966666666666015,
          "durationTicks": 236,
          "midi": 76,
          "name": "E5",
          "ticks": 814080,
          "time": 678.4000000000001,
          "velocity": 0.8267716535433071
        },
        {
          "duration": 0.1966666666666015,
          "durationTicks": 236,
          "midi": 72,
          "name": "C5",
          "ticks": 814320,
          "time": 678.6,
          "velocity": 0.8267716535433071
        },
        {
          "duration": 0.1966666666666015,
          "durationTicks": 236,
          "midi": 76,
          "name": "E5",
          "ticks": 814320,
          "time": 678.6,
          "velocity": 0.8267716535433071
        },
        {
          "duration": 0.1966666666666015,
          "durationTicks": 236,
          "midi": 69,
          "name": "A4",
          "ticks": 814560,
          "time": 678.8000000000001,
          "velocity": 0.8267716535433071
        },
        {
          "duration": 0.1966666666666015,
          "durationTicks": 236,
          "midi": 77,
          "name": "F5",
          "ticks": 814560,
          "time": 678.8000000000001,
          "velocity": 0.8267716535433071
        },
        {
          "duration": 0.19666666666671517,
          "durationTicks": 236,
          "midi": 69,
          "name": "A4",
          "ticks": 814800,
          "time": 679,
          "velocity": 0.8267716535433071
        },
        {
          "duration": 0.19666666666671517,
          "durationTicks": 236,
          "midi": 77,
          "name": "F5",
          "ticks": 814800,
          "time": 679,
          "velocity": 0.8267716535433071
        },
        {
          "duration": 0.1966666666666015,
          "durationTicks": 236,
          "midi": 72,
          "name": "C5",
          "ticks": 815040,
          "time": 679.2,
          "velocity": 0.8267716535433071
        },
        {
          "duration": 0.1966666666666015,
          "durationTicks": 236,
          "midi": 76,
          "name": "E5",
          "ticks": 815040,
          "time": 679.2,
          "velocity": 0.8267716535433071
        },
        {
          "duration": 0.1966666666666015,
          "durationTicks": 236,
          "midi": 72,
          "name": "C5",
          "ticks": 815280,
          "time": 679.4000000000001,
          "velocity": 0.8267716535433071
        },
        {
          "duration": 0.1966666666666015,
          "durationTicks": 236,
          "midi": 76,
          "name": "E5",
          "ticks": 815280,
          "time": 679.4000000000001,
          "velocity": 0.8267716535433071
        },
        {
          "duration": 0.1966666666666015,
          "durationTicks": 236,
          "midi": 71,
          "name": "B4",
          "ticks": 815520,
          "time": 679.6,
          "velocity": 0.8267716535433071
        },
        {
          "duration": 0.1966666666666015,
          "durationTicks": 236,
          "midi": 74,
          "name": "D5",
          "ticks": 815520,
          "time": 679.6,
          "velocity": 0.8267716535433071
        },
        {
          "duration": 0.1966666666666015,
          "durationTicks": 236,
          "midi": 71,
          "name": "B4",
          "ticks": 815760,
          "time": 679.8000000000001,
          "velocity": 0.8267716535433071
        },
        {
          "duration": 0.1966666666666015,
          "durationTicks": 236,
          "midi": 74,
          "name": "D5",
          "ticks": 815760,
          "time": 679.8000000000001,
          "velocity": 0.8267716535433071
        },
        {
          "duration": 0.33333333333337123,
          "durationTicks": 400,
          "midi": 72,
          "name": "C5",
          "ticks": 816000,
          "time": 680,
          "velocity": 0.9763779527559056
        },
        {
          "duration": 0.33333333333325754,
          "durationTicks": 400,
          "midi": 74,
          "name": "D5",
          "ticks": 816960,
          "time": 680.8000000000001,
          "velocity": 0.9763779527559056
        },
        {
          "duration": 0.33333333333325754,
          "durationTicks": 400,
          "midi": 79,
          "name": "G5",
          "ticks": 816960,
          "time": 680.8000000000001,
          "velocity": 0.9763779527559056
        },
        {
          "duration": 0.33333333333337123,
          "durationTicks": 400,
          "midi": 76,
          "name": "E5",
          "ticks": 817920,
          "time": 681.6,
          "velocity": 0.9763779527559056
        },
        {
          "duration": 0.33333333333337123,
          "durationTicks": 400,
          "midi": 79,
          "name": "G5",
          "ticks": 817920,
          "time": 681.6,
          "velocity": 0.9763779527559056
        },
        {
          "duration": 0.33333333333325754,
          "durationTicks": 400,
          "midi": 74,
          "name": "D5",
          "ticks": 818880,
          "time": 682.4000000000001,
          "velocity": 0.9763779527559056
        },
        {
          "duration": 0.33333333333325754,
          "durationTicks": 400,
          "midi": 79,
          "name": "G5",
          "ticks": 818880,
          "time": 682.4000000000001,
          "velocity": 0.9763779527559056
        },
        {
          "duration": 0.33333333333325754,
          "durationTicks": 400,
          "midi": 76,
          "name": "E5",
          "ticks": 819840,
          "time": 683.2,
          "velocity": 0.9763779527559056
        },
        {
          "duration": 0.33333333333325754,
          "durationTicks": 400,
          "midi": 79,
          "name": "G5",
          "ticks": 819840,
          "time": 683.2,
          "velocity": 0.9763779527559056
        },
        {
          "duration": 0.33333333333337123,
          "durationTicks": 400,
          "midi": 74,
          "name": "D5",
          "ticks": 820800,
          "time": 684,
          "velocity": 0.9763779527559056
        },
        {
          "duration": 0.33333333333337123,
          "durationTicks": 400,
          "midi": 79,
          "name": "G5",
          "ticks": 820800,
          "time": 684,
          "velocity": 0.9763779527559056
        },
        {
          "duration": 0.1966666666666015,
          "durationTicks": 236,
          "midi": 72,
          "name": "C5",
          "ticks": 821760,
          "time": 684.8000000000001,
          "velocity": 0.9763779527559056
        },
        {
          "duration": 0.19666666666671517,
          "durationTicks": 236,
          "midi": 67,
          "name": "G4",
          "ticks": 822000,
          "time": 685,
          "velocity": 0.9763779527559056
        },
        {
          "duration": 0.1966666666666015,
          "durationTicks": 236,
          "midi": 72,
          "name": "C5",
          "ticks": 822240,
          "time": 685.2,
          "velocity": 0.9763779527559056
        },
        {
          "duration": 0.1966666666666015,
          "durationTicks": 236,
          "midi": 67,
          "name": "G4",
          "ticks": 822480,
          "time": 685.4000000000001,
          "velocity": 0.9763779527559056
        },
        {
          "duration": 0.1966666666666015,
          "durationTicks": 236,
          "midi": 72,
          "name": "C5",
          "ticks": 822720,
          "time": 685.6,
          "velocity": 0.9763779527559056
        },
        {
          "duration": 0.1966666666666015,
          "durationTicks": 236,
          "midi": 67,
          "name": "G4",
          "ticks": 822960,
          "time": 685.8000000000001,
          "velocity": 0.9763779527559056
        },
        {
          "duration": 0.19666666666671517,
          "durationTicks": 236,
          "midi": 72,
          "name": "C5",
          "ticks": 823200,
          "time": 686,
          "velocity": 0.984251968503937
        },
        {
          "duration": 0.1966666666666015,
          "durationTicks": 236,
          "midi": 67,
          "name": "G4",
          "ticks": 823440,
          "time": 686.2,
          "velocity": 0.9921259842519685
        },
        {
          "duration": 0.1966666666666015,
          "durationTicks": 236,
          "midi": 72,
          "name": "C5",
          "ticks": 823680,
          "time": 686.4000000000001,
          "velocity": 1
        },
        {
          "duration": 0.1966666666666015,
          "durationTicks": 236,
          "midi": 76,
          "name": "E5",
          "ticks": 823920,
          "time": 686.6,
          "velocity": 1
        },
        {
          "duration": 0.1966666666666015,
          "durationTicks": 236,
          "midi": 79,
          "name": "G5",
          "ticks": 824160,
          "time": 686.8000000000001,
          "velocity": 1
        },
        {
          "duration": 0.19666666666671517,
          "durationTicks": 236,
          "midi": 76,
          "name": "E5",
          "ticks": 824400,
          "time": 687,
          "velocity": 1
        },
        {
          "duration": 0.1966666666666015,
          "durationTicks": 236,
          "midi": 79,
          "name": "G5",
          "ticks": 824640,
          "time": 687.2,
          "velocity": 1
        },
        {
          "duration": 0.1966666666666015,
          "durationTicks": 236,
          "midi": 76,
          "name": "E5",
          "ticks": 824880,
          "time": 687.4000000000001,
          "velocity": 1
        },
        {
          "duration": 0.1966666666666015,
          "durationTicks": 236,
          "midi": 79,
          "name": "G5",
          "ticks": 825120,
          "time": 687.6,
          "velocity": 1
        },
        {
          "duration": 0.1966666666666015,
          "durationTicks": 236,
          "midi": 76,
          "name": "E5",
          "ticks": 825360,
          "time": 687.8000000000001,
          "velocity": 1
        },
        {
          "duration": 0.33333333333337123,
          "durationTicks": 400,
          "midi": 72,
          "name": "C5",
          "ticks": 825600,
          "time": 688,
          "velocity": 1
        },
        {
          "duration": 0.33333333333325754,
          "durationTicks": 400,
          "midi": 76,
          "name": "E5",
          "ticks": 826080,
          "time": 688.4000000000001,
          "velocity": 1
        },
        {
          "duration": 0.33333333333325754,
          "durationTicks": 400,
          "midi": 79,
          "name": "G5",
          "ticks": 826080,
          "time": 688.4000000000001,
          "velocity": 1
        },
        {
          "duration": 0.33333333333325754,
          "durationTicks": 400,
          "midi": 76,
          "name": "E5",
          "ticks": 826560,
          "time": 688.8000000000001,
          "velocity": 1
        },
        {
          "duration": 0.33333333333325754,
          "durationTicks": 400,
          "midi": 79,
          "name": "G5",
          "ticks": 826560,
          "time": 688.8000000000001,
          "velocity": 1
        },
        {
          "duration": 0.33333333333325754,
          "durationTicks": 400,
          "midi": 76,
          "name": "E5",
          "ticks": 827040,
          "time": 689.2,
          "velocity": 1
        },
        {
          "duration": 0.33333333333325754,
          "durationTicks": 400,
          "midi": 79,
          "name": "G5",
          "ticks": 827040,
          "time": 689.2,
          "velocity": 1
        },
        {
          "duration": 0.38461500000005344,
          "durationTicks": 400,
          "midi": 76,
          "name": "E5",
          "ticks": 827520,
          "time": 689.6,
          "velocity": 1
        },
        {
          "duration": 0.38461500000005344,
          "durationTicks": 400,
          "midi": 79,
          "name": "G5",
          "ticks": 827520,
          "time": 689.6,
          "velocity": 1
        },
        {
          "duration": 0.4545458333333272,
          "durationTicks": 400,
          "midi": 76,
          "name": "E5",
          "ticks": 828480,
          "time": 690.5230760000001,
          "velocity": 1
        },
        {
          "duration": 0.4545458333333272,
          "durationTicks": 400,
          "midi": 79,
          "name": "G5",
          "ticks": 828480,
          "time": 690.5230760000001,
          "velocity": 1
        },
        {
          "duration": 1.0499999999999545,
          "durationTicks": 840,
          "midi": 76,
          "name": "E5",
          "ticks": 829440,
          "time": 691.6139860000001,
          "velocity": 1
        },
        {
          "duration": 1.0499999999999545,
          "durationTicks": 840,
          "midi": 79,
          "name": "G5",
          "ticks": 829440,
          "time": 691.6139860000001,
          "velocity": 1
        }
      ]
    },
    {
      "channel": 0,
      "controlChanges": {},
      "pitchBends": [],
      "instrument": {
        "family": "piano",
        "number": 0,
        "name": "acoustic grand piano"
      },
      "name": "Fagotti",
      "notes": [],
      "endOfTrackTicks": 831360
    },
    {
      "channel": 2,
      "controlChanges": {
        "7": [
          {
            "number": 7,
            "ticks": 0,
            "time": 0,
            "value": 0.6692913385826772
          }
        ],
        "10": [
          {
            "number": 10,
            "ticks": 0,
            "time": 0,
            "value": 0.5511811023622047
          }
        ]
      },
      "pitchBends": [],
      "instrument": {
        "family": "reed",
        "number": 70,
        "name": "bassoon"
      },
      "name": "",
      "notes": [
        {
          "duration": 0.33333333333333337,
          "durationTicks": 400,
          "midi": 48,
          "name": "C3",
          "ticks": 0,
          "time": 0,
          "velocity": 0.8267716535433071
        },
        {
          "duration": 0.06666666666666665,
          "durationTicks": 80,
          "midi": 43,
          "name": "G2",
          "ticks": 720,
          "time": 0.6000000000000001,
          "velocity": 0.8267716535433071
        },
        {
          "duration": 0.06666666666666665,
          "durationTicks": 80,
          "midi": 45,
          "name": "A2",
          "ticks": 800,
          "time": 0.6666666666666667,
          "velocity": 0.8267716535433071
        },
        {
          "duration": 0.06666666666666665,
          "durationTicks": 80,
          "midi": 47,
          "name": "B2",
          "ticks": 880,
          "time": 0.7333333333333334,
          "velocity": 0.8267716535433071
        },
        {
          "duration": 0.3333333333333335,
          "durationTicks": 400,
          "midi": 48,
          "name": "C3",
          "ticks": 960,
          "time": 0.8,
          "velocity": 0.8267716535433071
        },
        {
          "duration": 0.06666666666666665,
          "durationTicks": 80,
          "midi": 43,
          "name": "G2",
          "ticks": 1680,
          "time": 1.4000000000000001,
          "velocity": 0.8267716535433071
        },
        {
          "duration": 0.06666666666666665,
          "durationTicks": 80,
          "midi": 45,
          "name": "A2",
          "ticks": 1760,
          "time": 1.4666666666666668,
          "velocity": 0.8267716535433071
        },
        {
          "duration": 0.06666666666666665,
          "durationTicks": 80,
          "midi": 47,
          "name": "B2",
          "ticks": 1840,
          "time": 1.5333333333333334,
          "velocity": 0.8267716535433071
        },
        {
          "duration": 0.33333333333333326,
          "durationTicks": 400,
          "midi": 48,
          "name": "C3",
          "ticks": 1920,
          "time": 1.6,
          "velocity": 0.8267716535433071
        },
        {
          "duration": 0.33333333333333304,
          "durationTicks": 400,
          "midi": 55,
          "name": "G3",
          "ticks": 7680,
          "time": 6.4,
          "velocity": 0.8267716535433071
        },
        {
          "duration": 0.06666666666666732,
          "durationTicks": 80,
          "midi": 50,
          "name": "D3",
          "ticks": 8400,
          "time": 7,
          "velocity": 0.8267716535433071
        },
        {
          "duration": 0.06666666666666554,
          "durationTicks": 80,
          "midi": 52,
          "name": "E3",
          "ticks": 8480,
          "time": 7.066666666666667,
          "velocity": 0.8267716535433071
        },
        {
          "duration": 0.06666666666666732,
          "durationTicks": 80,
          "midi": 54,
          "name": "F#3",
          "ticks": 8560,
          "time": 7.133333333333333,
          "velocity": 0.8267716535433071
        },
        {
          "duration": 0.33333333333333304,
          "durationTicks": 400,
          "midi": 55,
          "name": "G3",
          "ticks": 8640,
          "time": 7.2,
          "velocity": 0.8267716535433071
        },
        {
          "duration": 0.06666666666666643,
          "durationTicks": 80,
          "midi": 50,
          "name": "D3",
          "ticks": 9360,
          "time": 7.800000000000001,
          "velocity": 0.8267716535433071
        },
        {
          "duration": 0.06666666666666643,
          "durationTicks": 80,
          "midi": 52,
          "name": "E3",
          "ticks": 9440,
          "time": 7.866666666666667,
          "velocity": 0.8267716535433071
        },
        {
          "duration": 0.06666666666666643,
          "durationTicks": 80,
          "midi": 54,
          "name": "F#3",
          "ticks": 9520,
          "time": 7.933333333333334,
          "velocity": 0.8267716535433071
        },
        {
          "duration": 0.3333333333333339,
          "durationTicks": 400,
          "midi": 55,
          "name": "G3",
          "ticks": 9600,
          "time": 8,
          "velocity": 0.8267716535433071
        },
        {
          "duration": 0.3333333333333339,
          "durationTicks": 400,
          "midi": 55,
          "name": "G3",
          "ticks": 15360,
          "time": 12.8,
          "velocity": 0.8267716535433071
        },
        {
          "duration": 0.3333333333333339,
          "durationTicks": 400,
          "midi": 64,
          "name": "E4",
          "ticks": 15360,
          "time": 12.8,
          "velocity": 0.8267716535433071
        },
        {
          "duration": 0.29666666666666686,
          "durationTicks": 356,
          "midi": 55,
          "name": "G3",
          "ticks": 15840,
          "time": 13.200000000000001,
          "velocity": 0.8267716535433071
        },
        {
          "duration": 0.29666666666666686,
          "durationTicks": 356,
          "midi": 64,
          "name": "E4",
          "ticks": 15840,
          "time": 13.200000000000001,
          "velocity": 0.8267716535433071
        },
        {
          "duration": 0.09666666666666757,
          "durationTicks": 116,
          "midi": 55,
          "name": "G3",
          "ticks": 16200,
          "time": 13.5,
          "velocity": 0.8267716535433071
        },
        {
          "duration": 0.09666666666666757,
          "durationTicks": 116,
          "midi": 64,
          "name": "E4",
          "ticks": 16200,
          "time": 13.5,
          "velocity": 0.8267716535433071
        },
        {
          "duration": 0.3333333333333339,
          "durationTicks": 400,
          "midi": 55,
          "name": "G3",
          "ticks": 16320,
          "time": 13.600000000000001,
          "velocity": 0.8267716535433071
        },
        {
          "duration": 0.3333333333333339,
          "durationTicks": 400,
          "midi": 64,
          "name": "E4",
          "ticks": 16320,
          "time": 13.600000000000001,
          "velocity": 0.8267716535433071
        },
        {
          "duration": 0.3333333333333357,
          "durationTicks": 400,
          "midi": 55,
          "name": "G3",
          "ticks": 16800,
          "time": 14,
          "velocity": 0.8267716535433071
        },
        {
          "duration": 0.3333333333333357,
          "durationTicks": 400,
          "midi": 64,
          "name": "E4",
          "ticks": 16800,
          "time": 14,
          "velocity": 0.8267716535433071
        },
        {
          "duration": 0.3333333333333339,
          "durationTicks": 400,
          "midi": 57,
          "name": "A3",
          "ticks": 17280,
          "time": 14.4,
          "velocity": 0.8267716535433071
        },
        {
          "duration": 0.3333333333333339,
          "durationTicks": 400,
          "midi": 65,
          "name": "F4",
          "ticks": 17280,
          "time": 14.4,
          "velocity": 0.8267716535433071
        },
        {
          "duration": 0.29666666666666686,
          "durationTicks": 356,
          "midi": 57,
          "name": "A3",
          "ticks": 17760,
          "time": 14.8,
          "velocity": 0.8267716535433071
        },
        {
          "duration": 0.29666666666666686,
          "durationTicks": 356,
          "midi": 65,
          "name": "F4",
          "ticks": 17760,
          "time": 14.8,
          "velocity": 0.8267716535433071
        },
        {
          "duration": 0.09666666666666579,
          "durationTicks": 116,
          "midi": 57,
          "name": "A3",
          "ticks": 18120,
          "time": 15.100000000000001,
          "velocity": 0.8267716535433071
        },
        {
          "duration": 0.09666666666666579,
          "durationTicks": 116,
          "midi": 65,
          "name": "F4",
          "ticks": 18120,
          "time": 15.100000000000001,
          "velocity": 0.8267716535433071
        },
        {
          "duration": 0.3333333333333339,
          "durationTicks": 400,
          "midi": 57,
          "name": "A3",
          "ticks": 18240,
          "time": 15.200000000000001,
          "velocity": 0.8267716535433071
        },
        {
          "duration": 0.3333333333333339,
          "durationTicks": 400,
          "midi": 65,
          "name": "F4",
          "ticks": 18240,
          "time": 15.200000000000001,
          "velocity": 0.8267716535433071
        },
        {
          "duration": 0.3333333333333339,
          "durationTicks": 400,
          "midi": 57,
          "name": "A3",
          "ticks": 18720,
          "time": 15.600000000000001,
          "velocity": 0.8267716535433071
        },
        {
          "duration": 0.3333333333333339,
          "durationTicks": 400,
          "midi": 65,
          "name": "F4",
          "ticks": 18720,
          "time": 15.600000000000001,
          "velocity": 0.8267716535433071
        },
        {
          "duration": 0.3333333333333357,
          "durationTicks": 400,
          "midi": 59,
          "name": "B3",
          "ticks": 19200,
          "time": 16,
          "velocity": 0.8267716535433071
        },
        {
          "duration": 0.3333333333333357,
          "durationTicks": 400,
          "midi": 65,
          "name": "F4",
          "ticks": 19200,
          "time": 16,
          "velocity": 0.8267716535433071
        },
        {
          "duration": 0.29666666666666686,
          "durationTicks": 356,
          "midi": 59,
          "name": "B3",
          "ticks": 19680,
          "time": 16.400000000000002,
          "velocity": 0.8267716535433071
        },
        {
          "duration": 0.29666666666666686,
          "durationTicks": 356,
          "midi": 65,
          "name": "F4",
          "ticks": 19680,
          "time": 16.400000000000002,
          "velocity": 0.8267716535433071
        },
        {
          "duration": 0.09666666666666757,
          "durationTicks": 116,
          "midi": 59,
          "name": "B3",
          "ticks": 20040,
          "time": 16.7,
          "velocity": 0.8267716535433071
        },
        {
          "duration": 0.09666666666666757,
          "durationTicks": 116,
          "midi": 65,
          "name": "F4",
          "ticks": 20040,
          "time": 16.7,
          "velocity": 0.8267716535433071
        },
        {
          "duration": 0.3333333333333357,
          "durationTicks": 400,
          "midi": 59,
          "name": "B3",
          "ticks": 20160,
          "time": 16.8,
          "velocity": 0.8267716535433071
        },
        {
          "duration": 0.3333333333333357,
          "durationTicks": 400,
          "midi": 65,
          "name": "F4",
          "ticks": 20160,
          "time": 16.8,
          "velocity": 0.8267716535433071
        },
        {
          "duration": 0.3333333333333357,
          "durationTicks": 400,
          "midi": 59,
          "name": "B3",
          "ticks": 20640,
          "time": 17.2,
          "velocity": 0.8267716535433071
        },
        {
          "duration": 0.3333333333333357,
          "durationTicks": 400,
          "midi": 65,
          "name": "F4",
          "ticks": 20640,
          "time": 17.2,
          "velocity": 0.8267716535433071
        },
        {
          "duration": 0.33333333333333215,
          "durationTicks": 400,
          "midi": 60,
          "name": "C4",
          "ticks": 21120,
          "time": 17.6,
          "velocity": 0.8267716535433071
        },
        {
          "duration": 0.33333333333333215,
          "durationTicks": 400,
          "midi": 64,
          "name": "E4",
          "ticks": 21120,
          "time": 17.6,
          "velocity": 0.8267716535433071
        },
        {
          "duration": 0.29666666666666686,
          "durationTicks": 356,
          "midi": 55,
          "name": "G3",
          "ticks": 21600,
          "time": 18,
          "velocity": 0.8267716535433071
        },
        {
          "duration": 0.29666666666666686,
          "durationTicks": 356,
          "midi": 64,
          "name": "E4",
          "ticks": 21600,
          "time": 18,
          "velocity": 0.8267716535433071
        },
        {
          "duration": 0.09666666666666757,
          "durationTicks": 116,
          "midi": 55,
          "name": "G3",
          "ticks": 21960,
          "time": 18.3,
          "velocity": 0.8267716535433071
        },
        {
          "duration": 0.09666666666666757,
          "durationTicks": 116,
          "midi": 64,
          "name": "E4",
          "ticks": 21960,
          "time": 18.3,
          "velocity": 0.8267716535433071
        },
        {
          "duration": 0.33333333333333215,
          "durationTicks": 400,
          "midi": 55,
          "name": "G3",
          "ticks": 22080,
          "time": 18.400000000000002,
          "velocity": 0.8267716535433071
        },
        {
          "duration": 0.33333333333333215,
          "durationTicks": 400,
          "midi": 64,
          "name": "E4",
          "ticks": 22080,
          "time": 18.400000000000002,
          "velocity": 0.8267716535433071
        },
        {
          "duration": 0.3333333333333357,
          "durationTicks": 400,
          "midi": 55,
          "name": "G3",
          "ticks": 22560,
          "time": 18.8,
          "velocity": 0.8267716535433071
        },
        {
          "duration": 0.3333333333333357,
          "durationTicks": 400,
          "midi": 64,
          "name": "E4",
          "ticks": 22560,
          "time": 18.8,
          "velocity": 0.8267716535433071
        },
        {
          "duration": 0.33333333333333215,
          "durationTicks": 400,
          "midi": 57,
          "name": "A3",
          "ticks": 23040,
          "time": 19.200000000000003,
          "velocity": 0.8267716535433071
        },
        {
          "duration": 0.33333333333333215,
          "durationTicks": 400,
          "midi": 65,
          "name": "F4",
          "ticks": 23040,
          "time": 19.200000000000003,
          "velocity": 0.8267716535433071
        },
        {
          "duration": 0.29666666666666686,
          "durationTicks": 356,
          "midi": 57,
          "name": "A3",
          "ticks": 23520,
          "time": 19.6,
          "velocity": 0.8267716535433071
        },
        {
          "duration": 0.29666666666666686,
          "durationTicks": 356,
          "midi": 65,
          "name": "F4",
          "ticks": 23520,
          "time": 19.6,
          "velocity": 0.8267716535433071
        },
        {
          "duration": 0.09666666666666757,
          "durationTicks": 116,
          "midi": 57,
          "name": "A3",
          "ticks": 23880,
          "time": 19.900000000000002,
          "velocity": 0.8267716535433071
        },
        {
          "duration": 0.09666666666666757,
          "durationTicks": 116,
          "midi": 65,
          "name": "F4",
          "ticks": 23880,
          "time": 19.900000000000002,
          "velocity": 0.8267716535433071
        },
        {
          "duration": 0.3333333333333357,
          "durationTicks": 400,
          "midi": 57,
          "name": "A3",
          "ticks": 24000,
          "time": 20,
          "velocity": 0.8267716535433071
        },
        {
          "duration": 0.3333333333333357,
          "durationTicks": 400,
          "midi": 65,
          "name": "F4",
          "ticks": 24000,
          "time": 20,
          "velocity": 0.8267716535433071
        },
        {
          "duration": 0.33333333333333215,
          "durationTicks": 400,
          "midi": 57,
          "name": "A3",
          "ticks": 24480,
          "time": 20.400000000000002,
          "velocity": 0.8267716535433071
        },
        {
          "duration": 0.33333333333333215,
          "durationTicks": 400,
          "midi": 65,
          "name": "F4",
          "ticks": 24480,
          "time": 20.400000000000002,
          "velocity": 0.8267716535433071
        },
        {
          "duration": 0.3333333333333357,
          "durationTicks": 400,
          "midi": 59,
          "name": "B3",
          "ticks": 24960,
          "time": 20.8,
          "velocity": 0.8267716535433071
        },
        {
          "duration": 0.3333333333333357,
          "durationTicks": 400,
          "midi": 65,
          "name": "F4",
          "ticks": 24960,
          "time": 20.8,
          "velocity": 0.8267716535433071
        },
        {
          "duration": 0.29666666666666686,
          "durationTicks": 356,
          "midi": 59,
          "name": "B3",
          "ticks": 25440,
          "time": 21.200000000000003,
          "velocity": 0.8267716535433071
        },
        {
          "duration": 0.29666666666666686,
          "durationTicks": 356,
          "midi": 65,
          "name": "F4",
          "ticks": 25440,
          "time": 21.200000000000003,
          "velocity": 0.8267716535433071
        },
        {
          "duration": 0.09666666666666757,
          "durationTicks": 116,
          "midi": 59,
          "name": "B3",
          "ticks": 25800,
          "time": 21.5,
          "velocity": 0.8267716535433071
        },
        {
          "duration": 0.09666666666666757,
          "durationTicks": 116,
          "midi": 65,
          "name": "F4",
          "ticks": 25800,
          "time": 21.5,
          "velocity": 0.8267716535433071
        },
        {
          "duration": 0.3333333333333357,
          "durationTicks": 400,
          "midi": 59,
          "name": "B3",
          "ticks": 25920,
          "time": 21.6,
          "velocity": 0.8267716535433071
        },
        {
          "duration": 0.3333333333333357,
          "durationTicks": 400,
          "midi": 65,
          "name": "F4",
          "ticks": 25920,
          "time": 21.6,
          "velocity": 0.8267716535433071
        },
        {
          "duration": 0.3333333333333357,
          "durationTicks": 400,
          "midi": 59,
          "name": "B3",
          "ticks": 26400,
          "time": 22,
          "velocity": 0.8267716535433071
        },
        {
          "duration": 0.3333333333333357,
          "durationTicks": 400,
          "midi": 65,
          "name": "F4",
          "ticks": 26400,
          "time": 22,
          "velocity": 0.8267716535433071
        },
        {
          "duration": 0.33333333333333215,
          "durationTicks": 400,
          "midi": 60,
          "name": "C4",
          "ticks": 26880,
          "time": 22.400000000000002,
          "velocity": 0.8267716535433071
        },
        {
          "duration": 0.33333333333333215,
          "durationTicks": 400,
          "midi": 64,
          "name": "E4",
          "ticks": 26880,
          "time": 22.400000000000002,
          "velocity": 0.8267716535433071
        },
        {
          "duration": 0.33333333333333215,
          "durationTicks": 400,
          "midi": 59,
          "name": "B3",
          "ticks": 27840,
          "time": 23.200000000000003,
          "velocity": 0.8267716535433071
        },
        {
          "duration": 0.33333333333333215,
          "durationTicks": 400,
          "midi": 62,
          "name": "D4",
          "ticks": 27840,
          "time": 23.200000000000003,
          "velocity": 0.8267716535433071
        },
        {
          "duration": 0.3333333333333357,
          "durationTicks": 400,
          "midi": 60,
          "name": "C4",
          "ticks": 28800,
          "time": 24,
          "velocity": 0.8267716535433071
        },
        {
          "duration": 0.3333333333333357,
          "durationTicks": 400,
          "midi": 64,
          "name": "E4",
          "ticks": 28800,
          "time": 24,
          "velocity": 0.8267716535433071
        },
        {
          "duration": 0.3333333333333357,
          "durationTicks": 400,
          "midi": 59,
          "name": "B3",
          "ticks": 29760,
          "time": 24.8,
          "velocity": 0.8267716535433071
        },
        {
          "duration": 0.3333333333333357,
          "durationTicks": 400,
          "midi": 62,
          "name": "D4",
          "ticks": 29760,
          "time": 24.8,
          "velocity": 0.8267716535433071
        },
        {
          "duration": 0.33333333333333215,
          "durationTicks": 400,
          "midi": 60,
          "name": "C4",
          "ticks": 30720,
          "time": 25.6,
          "velocity": 0.8267716535433071
        },
        {
          "duration": 0.33333333333333215,
          "durationTicks": 400,
          "midi": 64,
          "name": "E4",
          "ticks": 30720,
          "time": 25.6,
          "velocity": 0.8267716535433071
        },
        {
          "duration": 0.19666666666666544,
          "durationTicks": 236,
          "midi": 55,
          "name": "G3",
          "ticks": 31200,
          "time": 26,
          "velocity": 0.8267716535433071
        },
        {
          "duration": 0.19666666666666188,
          "durationTicks": 236,
          "midi": 55,
          "name": "G3",
          "ticks": 31440,
          "time": 26.200000000000003,
          "velocity": 0.8267716535433071
        },
        {
          "duration": 0.19666666666666188,
          "durationTicks": 236,
          "midi": 60,
          "name": "C4",
          "ticks": 31680,
          "time": 26.400000000000002,
          "velocity": 0.8267716535433071
        },
        {
          "duration": 0.19666666666666544,
          "durationTicks": 236,
          "midi": 60,
          "name": "C4",
          "ticks": 31920,
          "time": 26.6,
          "velocity": 0.8267716535433071
        },
        {
          "duration": 0.19666666666666544,
          "durationTicks": 236,
          "midi": 55,
          "name": "G3",
          "ticks": 32160,
          "time": 26.8,
          "velocity": 0.8267716535433071
        },
        {
          "duration": 0.19666666666666544,
          "durationTicks": 236,
          "midi": 55,
          "name": "G3",
          "ticks": 32400,
          "time": 27,
          "velocity": 0.8267716535433071
        },
        {
          "duration": 0.19666666666666188,
          "durationTicks": 236,
          "midi": 60,
          "name": "C4",
          "ticks": 32640,
          "time": 27.200000000000003,
          "velocity": 0.8267716535433071
        },
        {
          "duration": 0.19666666666666188,
          "durationTicks": 236,
          "midi": 60,
          "name": "C4",
          "ticks": 32880,
          "time": 27.400000000000002,
          "velocity": 0.8267716535433071
        },
        {
          "duration": 0.19666666666666544,
          "durationTicks": 236,
          "midi": 55,
          "name": "G3",
          "ticks": 33120,
          "time": 27.6,
          "velocity": 0.8267716535433071
        },
        {
          "duration": 0.19666666666666544,
          "durationTicks": 236,
          "midi": 55,
          "name": "G3",
          "ticks": 33360,
          "time": 27.8,
          "velocity": 0.8267716535433071
        },
        {
          "duration": 0.19666666666666544,
          "durationTicks": 236,
          "midi": 52,
          "name": "E3",
          "ticks": 33600,
          "time": 28,
          "velocity": 0.8267716535433071
        },
        {
          "duration": 0.19666666666666188,
          "durationTicks": 236,
          "midi": 52,
          "name": "E3",
          "ticks": 33840,
          "time": 28.200000000000003,
          "velocity": 0.8267716535433071
        },
        {
          "duration": 0.19666666666666188,
          "durationTicks": 236,
          "midi": 48,
          "name": "C3",
          "ticks": 34080,
          "time": 28.400000000000002,
          "velocity": 0.8267716535433071
        },
        {
          "duration": 0.19666666666666544,
          "durationTicks": 236,
          "midi": 48,
          "name": "C3",
          "ticks": 34320,
          "time": 28.6,
          "velocity": 0.8267716535433071
        },
        {
          "duration": 0.33333333333333215,
          "durationTicks": 400,
          "midi": 52,
          "name": "E3",
          "ticks": 34560,
          "time": 28.8,
          "velocity": 0.8267716535433071
        },
        {
          "duration": 0.3333333333333286,
          "durationTicks": 400,
          "midi": 59,
          "name": "B3",
          "ticks": 35040,
          "time": 29.200000000000003,
          "velocity": 0.8267716535433071
        },
        {
          "duration": 0.3333333333333286,
          "durationTicks": 400,
          "midi": 62,
          "name": "D4",
          "ticks": 35040,
          "time": 29.200000000000003,
          "velocity": 0.8267716535433071
        },
        {
          "duration": 0.33333333333333215,
          "durationTicks": 400,
          "midi": 60,
          "name": "C4",
          "ticks": 36000,
          "time": 30,
          "velocity": 0.8267716535433071
        },
        {
          "duration": 0.33333333333333215,
          "durationTicks": 400,
          "midi": 64,
          "name": "E4",
          "ticks": 36000,
          "time": 30,
          "velocity": 0.8267716535433071
        },
        {
          "duration": 0.33333333333333215,
          "durationTicks": 400,
          "midi": 59,
          "name": "B3",
          "ticks": 36960,
          "time": 30.8,
          "velocity": 0.8267716535433071
        },
        {
          "duration": 0.33333333333333215,
          "durationTicks": 400,
          "midi": 62,
          "name": "D4",
          "ticks": 36960,
          "time": 30.8,
          "velocity": 0.8267716535433071
        },
        {
          "duration": 0.33333333333333215,
          "durationTicks": 400,
          "midi": 60,
          "name": "C4",
          "ticks": 37920,
          "time": 31.6,
          "velocity": 0.8267716535433071
        },
        {
          "duration": 0.33333333333333215,
          "durationTicks": 400,
          "midi": 64,
          "name": "E4",
          "ticks": 37920,
          "time": 31.6,
          "velocity": 0.8267716535433071
        },
        {
          "duration": 0.19666666666666544,
          "durationTicks": 236,
          "midi": 59,
          "name": "B3",
          "ticks": 38400,
          "time": 32,
          "velocity": 0.8267716535433071
        },
        {
          "duration": 0.19666666666666544,
          "durationTicks": 236,
          "midi": 62,
          "name": "D4",
          "ticks": 38400,
          "time": 32,
          "velocity": 0.8267716535433071
        },
        {
          "duration": 0.19666666666666544,
          "durationTicks": 236,
          "midi": 60,
          "name": "C4",
          "ticks": 38640,
          "time": 32.2,
          "velocity": 0.8346456692913385
        },
        {
          "duration": 0.19666666666666544,
          "durationTicks": 236,
          "midi": 64,
          "name": "E4",
          "ticks": 38640,
          "time": 32.2,
          "velocity": 0.8346456692913385
        },
        {
          "duration": 0.19666666666666544,
          "durationTicks": 236,
          "midi": 59,
          "name": "B3",
          "ticks": 38880,
          "time": 32.4,
          "velocity": 0.8503937007874016
        },
        {
          "duration": 0.19666666666666544,
          "durationTicks": 236,
          "midi": 62,
          "name": "D4",
          "ticks": 38880,
          "time": 32.4,
          "velocity": 0.8503937007874016
        },
        {
          "duration": 0.19666666666666544,
          "durationTicks": 236,
          "midi": 60,
          "name": "C4",
          "ticks": 39120,
          "time": 32.6,
          "velocity": 0.8582677165354331
        },
        {
          "duration": 0.19666666666666544,
          "durationTicks": 236,
          "midi": 64,
          "name": "E4",
          "ticks": 39120,
          "time": 32.6,
          "velocity": 0.8582677165354331
        },
        {
          "duration": 0.19666666666665833,
          "durationTicks": 236,
          "midi": 59,
          "name": "B3",
          "ticks": 39360,
          "time": 32.800000000000004,
          "velocity": 0.8661417322834646
        },
        {
          "duration": 0.19666666666665833,
          "durationTicks": 236,
          "midi": 62,
          "name": "D4",
          "ticks": 39360,
          "time": 32.800000000000004,
          "velocity": 0.8661417322834646
        },
        {
          "duration": 0.19666666666666544,
          "durationTicks": 236,
          "midi": 60,
          "name": "C4",
          "ticks": 39600,
          "time": 33,
          "velocity": 0.8740157480314961
        },
        {
          "duration": 0.19666666666666544,
          "durationTicks": 236,
          "midi": 64,
          "name": "E4",
          "ticks": 39600,
          "time": 33,
          "velocity": 0.8740157480314961
        },
        {
          "duration": 0.19666666666666544,
          "durationTicks": 236,
          "midi": 59,
          "name": "B3",
          "ticks": 39840,
          "time": 33.2,
          "velocity": 0.8818897637795275
        },
        {
          "duration": 0.19666666666666544,
          "durationTicks": 236,
          "midi": 62,
          "name": "D4",
          "ticks": 39840,
          "time": 33.2,
          "velocity": 0.8818897637795275
        },
        {
          "duration": 0.19666666666666544,
          "durationTicks": 236,
          "midi": 60,
          "name": "C4",
          "ticks": 40080,
          "time": 33.4,
          "velocity": 0.889763779527559
        },
        {
          "duration": 0.19666666666666544,
          "durationTicks": 236,
          "midi": 64,
          "name": "E4",
          "ticks": 40080,
          "time": 33.4,
          "velocity": 0.889763779527559
        },
        {
          "duration": 0.3333333333333286,
          "durationTicks": 400,
          "midi": 59,
          "name": "B3",
          "ticks": 40320,
          "time": 33.6,
          "velocity": 0.905511811023622
        },
        {
          "duration": 0.3333333333333286,
          "durationTicks": 400,
          "midi": 62,
          "name": "D4",
          "ticks": 40320,
          "time": 33.6,
          "velocity": 0.905511811023622
        },
        {
          "duration": 0.3333333333333357,
          "durationTicks": 400,
          "midi": 43,
          "name": "G2",
          "ticks": 41280,
          "time": 34.4,
          "velocity": 0.937007874015748
        },
        {
          "duration": 0.3333333333333357,
          "durationTicks": 400,
          "midi": 55,
          "name": "G3",
          "ticks": 41280,
          "time": 34.4,
          "velocity": 0.937007874015748
        },
        {
          "duration": 0.3333333333333286,
          "durationTicks": 400,
          "midi": 43,
          "name": "G2",
          "ticks": 41760,
          "time": 34.800000000000004,
          "velocity": 0.952755905511811
        },
        {
          "duration": 0.3333333333333286,
          "durationTicks": 400,
          "midi": 55,
          "name": "G3",
          "ticks": 41760,
          "time": 34.800000000000004,
          "velocity": 0.952755905511811
        },
        {
          "duration": 1.5,
          "durationTicks": 1800,
          "midi": 43,
          "name": "G2",
          "ticks": 42240,
          "time": 35.2,
          "velocity": 0.9763779527559056
        },
        {
          "duration": 1.5,
          "durationTicks": 1800,
          "midi": 55,
          "name": "G3",
          "ticks": 42240,
          "time": 35.2,
          "velocity": 0.9763779527559056
        },
        {
          "duration": 2.700000000000003,
          "durationTicks": 3240,
          "midi": 67,
          "name": "G4",
          "ticks": 48000,
          "time": 40,
          "velocity": 0.4015748031496063
        },
        {
          "duration": 0.3999999999999986,
          "durationTicks": 480,
          "midi": 43,
          "name": "G2",
          "ticks": 51840,
          "time": 43.2,
          "velocity": 0.4015748031496063
        },
        {
          "duration": 0.3999999999999986,
          "durationTicks": 480,
          "midi": 55,
          "name": "G3",
          "ticks": 51840,
          "time": 43.2,
          "velocity": 0.4015748031496063
        },
        {
          "duration": 0.3999999999999986,
          "durationTicks": 480,
          "midi": 47,
          "name": "B2",
          "ticks": 52320,
          "time": 43.6,
          "velocity": 0.4015748031496063
        },
        {
          "duration": 0.3999999999999986,
          "durationTicks": 480,
          "midi": 59,
          "name": "B3",
          "ticks": 52320,
          "time": 43.6,
          "velocity": 0.4015748031496063
        },
        {
          "duration": 0.4000000000000057,
          "durationTicks": 480,
          "midi": 50,
          "name": "D3",
          "ticks": 52800,
          "time": 44,
          "velocity": 0.4015748031496063
        },
        {
          "duration": 0.4000000000000057,
          "durationTicks": 480,
          "midi": 62,
          "name": "D4",
          "ticks": 52800,
          "time": 44,
          "velocity": 0.4015748031496063
        },
        {
          "duration": 0.3333333333333286,
          "durationTicks": 400,
          "midi": 47,
          "name": "B2",
          "ticks": 53280,
          "time": 44.400000000000006,
          "velocity": 0.4015748031496063
        },
        {
          "duration": 0.3333333333333286,
          "durationTicks": 400,
          "midi": 59,
          "name": "B3",
          "ticks": 53280,
          "time": 44.400000000000006,
          "velocity": 0.4015748031496063
        },
        {
          "duration": 0.3333333333333286,
          "durationTicks": 400,
          "midi": 43,
          "name": "G2",
          "ticks": 53760,
          "time": 44.800000000000004,
          "velocity": 0.4015748031496063
        },
        {
          "duration": 0.3333333333333286,
          "durationTicks": 400,
          "midi": 55,
          "name": "G3",
          "ticks": 53760,
          "time": 44.800000000000004,
          "velocity": 0.4015748031496063
        },
        {
          "duration": 0.7999999999999972,
          "durationTicks": 960,
          "midi": 64,
          "name": "E4",
          "ticks": 55680,
          "time": 46.400000000000006,
          "velocity": 0.4015748031496063
        },
        {
          "duration": 0.7000000000000028,
          "durationTicks": 840,
          "midi": 65,
          "name": "F4",
          "ticks": 56640,
          "time": 47.2,
          "velocity": 0.4015748031496063
        },
        {
          "duration": 0.10000000000000142,
          "durationTicks": 120,
          "midi": 61,
          "name": "C#4",
          "ticks": 57600,
          "time": 48,
          "velocity": 0.4015748031496063
        },
        {
          "duration": 0.09999999999999432,
          "durationTicks": 120,
          "midi": 61,
          "name": "C#4",
          "ticks": 58080,
          "time": 48.400000000000006,
          "velocity": 0.4015748031496063
        },
        {
          "duration": 0.10000000000000142,
          "durationTicks": 120,
          "midi": 61,
          "name": "C#4",
          "ticks": 58560,
          "time": 48.800000000000004,
          "velocity": 0.4015748031496063
        },
        {
          "duration": 0.10000000000000142,
          "durationTicks": 120,
          "midi": 60,
          "name": "C4",
          "ticks": 59520,
          "time": 49.6,
          "velocity": 0.4015748031496063
        },
        {
          "duration": 0.10000000000000142,
          "durationTicks": 120,
          "midi": 60,
          "name": "C4",
          "ticks": 60000,
          "time": 50,
          "velocity": 0.4015748031496063
        },
        {
          "duration": 0.09999999999999432,
          "durationTicks": 120,
          "midi": 60,
          "name": "C4",
          "ticks": 60480,
          "time": 50.400000000000006,
          "velocity": 0.4015748031496063
        },
        {
          "duration": 0.10000000000000142,
          "durationTicks": 120,
          "midi": 59,
          "name": "B3",
          "ticks": 61440,
          "time": 51.2,
          "velocity": 0.4015748031496063
        },
        {
          "duration": 0.10000000000000142,
          "durationTicks": 120,
          "midi": 59,
          "name": "B3",
          "ticks": 61920,
          "time": 51.6,
          "velocity": 0.4015748031496063
        },
        {
          "duration": 0.10000000000000142,
          "durationTicks": 120,
          "midi": 59,
          "name": "B3",
          "ticks": 62400,
          "time": 52,
          "velocity": 0.4015748031496063
        },
        {
          "duration": 0.10000000000000142,
          "durationTicks": 120,
          "midi": 58,
          "name": "A#3",
          "ticks": 63360,
          "time": 52.800000000000004,
          "velocity": 0.4015748031496063
        },
        {
          "duration": 0.10000000000000142,
          "durationTicks": 120,
          "midi": 58,
          "name": "A#3",
          "ticks": 63840,
          "time": 53.2,
          "velocity": 0.4015748031496063
        },
        {
          "duration": 0.10000000000000142,
          "durationTicks": 120,
          "midi": 58,
          "name": "A#3",
          "ticks": 64320,
          "time": 53.6,
          "velocity": 0.4015748031496063
        },
        {
          "duration": 0.3999999999999986,
          "durationTicks": 480,
          "midi": 43,
          "name": "G2",
          "ticks": 69120,
          "time": 57.6,
          "velocity": 0.8267716535433071
        },
        {
          "duration": 0.3999999999999986,
          "durationTicks": 480,
          "midi": 55,
          "name": "G3",
          "ticks": 69120,
          "time": 57.6,
          "velocity": 0.8267716535433071
        },
        {
          "duration": 0.4000000000000057,
          "durationTicks": 480,
          "midi": 47,
          "name": "B2",
          "ticks": 69600,
          "time": 58,
          "velocity": 0.8267716535433071
        },
        {
          "duration": 0.4000000000000057,
          "durationTicks": 480,
          "midi": 59,
          "name": "B3",
          "ticks": 69600,
          "time": 58,
          "velocity": 0.8267716535433071
        },
        {
          "duration": 0.3999999999999986,
          "durationTicks": 480,
          "midi": 50,
          "name": "D3",
          "ticks": 70080,
          "time": 58.400000000000006,
          "velocity": 0.8267716535433071
        },
        {
          "duration": 0.3999999999999986,
          "durationTicks": 480,
          "midi": 62,
          "name": "D4",
          "ticks": 70080,
          "time": 58.400000000000006,
          "velocity": 0.8267716535433071
        },
        {
          "duration": 0.3333333333333357,
          "durationTicks": 400,
          "midi": 47,
          "name": "B2",
          "ticks": 70560,
          "time": 58.800000000000004,
          "velocity": 0.8267716535433071
        },
        {
          "duration": 0.3333333333333357,
          "durationTicks": 400,
          "midi": 59,
          "name": "B3",
          "ticks": 70560,
          "time": 58.800000000000004,
          "velocity": 0.8267716535433071
        },
        {
          "duration": 0.3333333333333357,
          "durationTicks": 400,
          "midi": 43,
          "name": "G2",
          "ticks": 71040,
          "time": 59.2,
          "velocity": 0.8267716535433071
        },
        {
          "duration": 0.3333333333333357,
          "durationTicks": 400,
          "midi": 55,
          "name": "G3",
          "ticks": 71040,
          "time": 59.2,
          "velocity": 0.8267716535433071
        },
        {
          "duration": 0.06666666666666288,
          "durationTicks": 80,
          "midi": 59,
          "name": "B3",
          "ticks": 72720,
          "time": 60.6,
          "velocity": 0.8267716535433071
        },
        {
          "duration": 0.6000000000000014,
          "durationTicks": 720,
          "midi": 60,
          "name": "C4",
          "ticks": 72960,
          "time": 60.800000000000004,
          "velocity": 0.8267716535433071
        },
        {
          "duration": 0.19666666666666544,
          "durationTicks": 236,
          "midi": 59,
          "name": "B3",
          "ticks": 73680,
          "time": 61.400000000000006,
          "velocity": 0.8267716535433071
        },
        {
          "duration": 0.6000000000000014,
          "durationTicks": 720,
          "midi": 62,
          "name": "D4",
          "ticks": 73920,
          "time": 61.6,
          "velocity": 0.8267716535433071
        },
        {
          "duration": 0.19666666666667254,
          "durationTicks": 236,
          "midi": 60,
          "name": "C4",
          "ticks": 74640,
          "time": 62.2,
          "velocity": 0.8267716535433071
        },
        {
          "duration": 0.7999999999999972,
          "durationTicks": 960,
          "midi": 64,
          "name": "E4",
          "ticks": 74880,
          "time": 62.400000000000006,
          "velocity": 0.8267716535433071
        },
        {
          "duration": 0.3333333333333357,
          "durationTicks": 400,
          "midi": 62,
          "name": "D4",
          "ticks": 75840,
          "time": 63.2,
          "velocity": 0.8267716535433071
        },
        {
          "duration": 0.06666666666666288,
          "durationTicks": 80,
          "midi": 59,
          "name": "B3",
          "ticks": 76560,
          "time": 63.800000000000004,
          "velocity": 0.8267716535433071
        },
        {
          "duration": 0.6000000000000085,
          "durationTicks": 720,
          "midi": 62,
          "name": "D4",
          "ticks": 76800,
          "time": 64,
          "velocity": 0.8267716535433071
        },
        {
          "duration": 0.19666666666665833,
          "durationTicks": 236,
          "midi": 60,
          "name": "C4",
          "ticks": 77520,
          "time": 64.60000000000001,
          "velocity": 0.8267716535433071
        },
        {
          "duration": 0.6000000000000085,
          "durationTicks": 720,
          "midi": 64,
          "name": "E4",
          "ticks": 77760,
          "time": 64.8,
          "velocity": 0.8267716535433071
        },
        {
          "duration": 0.19666666666667254,
          "durationTicks": 236,
          "midi": 62,
          "name": "D4",
          "ticks": 78480,
          "time": 65.4,
          "velocity": 0.8267716535433071
        },
        {
          "duration": 0.7999999999999972,
          "durationTicks": 960,
          "midi": 65,
          "name": "F4",
          "ticks": 78720,
          "time": 65.60000000000001,
          "velocity": 0.8267716535433071
        },
        {
          "duration": 0.3333333333333286,
          "durationTicks": 400,
          "midi": 64,
          "name": "E4",
          "ticks": 79680,
          "time": 66.4,
          "velocity": 0.8267716535433071
        },
        {
          "duration": 0.06666666666666288,
          "durationTicks": 80,
          "midi": 61,
          "name": "C#4",
          "ticks": 80400,
          "time": 67,
          "velocity": 0.8267716535433071
        },
        {
          "duration": 0.5999999999999943,
          "durationTicks": 720,
          "midi": 64,
          "name": "E4",
          "ticks": 80640,
          "time": 67.2,
          "velocity": 0.8267716535433071
        },
        {
          "duration": 0.19666666666667254,
          "durationTicks": 236,
          "midi": 62,
          "name": "D4",
          "ticks": 81360,
          "time": 67.8,
          "velocity": 0.8267716535433071
        },
        {
          "duration": 0.6000000000000085,
          "durationTicks": 720,
          "midi": 65,
          "name": "F4",
          "ticks": 81600,
          "time": 68,
          "velocity": 0.8267716535433071
        },
        {
          "duration": 0.19666666666665833,
          "durationTicks": 236,
          "midi": 64,
          "name": "E4",
          "ticks": 82320,
          "time": 68.60000000000001,
          "velocity": 0.8267716535433071
        },
        {
          "duration": 0.8000000000000114,
          "durationTicks": 960,
          "midi": 67,
          "name": "G4",
          "ticks": 82560,
          "time": 68.8,
          "velocity": 0.8267716535433071
        },
        {
          "duration": 0.3333333333333286,
          "durationTicks": 400,
          "midi": 65,
          "name": "F4",
          "ticks": 83520,
          "time": 69.60000000000001,
          "velocity": 0.8267716535433071
        },
        {
          "duration": 0.06666666666666288,
          "durationTicks": 80,
          "midi": 63,
          "name": "D#4",
          "ticks": 84240,
          "time": 70.2,
          "velocity": 0.8267716535433071
        },
        {
          "duration": 0.7999999999999972,
          "durationTicks": 960,
          "midi": 65,
          "name": "F4",
          "ticks": 84480,
          "time": 70.4,
          "velocity": 0.8267716535433071
        },
        {
          "duration": 0.3333333333333428,
          "durationTicks": 400,
          "midi": 64,
          "name": "E4",
          "ticks": 85440,
          "time": 71.2,
          "velocity": 0.8267716535433071
        },
        {
          "duration": 0.06666666666666288,
          "durationTicks": 80,
          "midi": 60,
          "name": "C4",
          "ticks": 86160,
          "time": 71.8,
          "velocity": 0.8267716535433071
        },
        {
          "duration": 0.7999999999999972,
          "durationTicks": 960,
          "midi": 64,
          "name": "E4",
          "ticks": 86400,
          "time": 72,
          "velocity": 0.8267716535433071
        },
        {
          "duration": 0.3333333333333428,
          "durationTicks": 400,
          "midi": 62,
          "name": "D4",
          "ticks": 87360,
          "time": 72.8,
          "velocity": 0.8267716535433071
        },
        {
          "duration": 0.06666666666666288,
          "durationTicks": 80,
          "midi": 55,
          "name": "G3",
          "ticks": 88080,
          "time": 73.4,
          "velocity": 0.8267716535433071
        },
        {
          "duration": 0.19666666666665833,
          "durationTicks": 236,
          "midi": 60,
          "name": "C4",
          "ticks": 88320,
          "time": 73.60000000000001,
          "velocity": 0.8267716535433071
        },
        {
          "duration": 0.19666666666667254,
          "durationTicks": 236,
          "midi": 60,
          "name": "C4",
          "ticks": 88560,
          "time": 73.8,
          "velocity": 0.8267716535433071
        },
        {
          "duration": 0.19666666666667254,
          "durationTicks": 236,
          "midi": 59,
          "name": "B3",
          "ticks": 88800,
          "time": 74,
          "velocity": 0.8267716535433071
        },
        {
          "duration": 0.19666666666667254,
          "durationTicks": 236,
          "midi": 59,
          "name": "B3",
          "ticks": 89040,
          "time": 74.2,
          "velocity": 0.8267716535433071
        },
        {
          "duration": 0.19666666666667254,
          "durationTicks": 236,
          "midi": 60,
          "name": "C4",
          "ticks": 89280,
          "time": 74.4,
          "velocity": 0.8267716535433071
        },
        {
          "duration": 0.19666666666665833,
          "durationTicks": 236,
          "midi": 60,
          "name": "C4",
          "ticks": 89520,
          "time": 74.60000000000001,
          "velocity": 0.8267716535433071
        },
        {
          "duration": 0.19666666666667254,
          "durationTicks": 236,
          "midi": 59,
          "name": "B3",
          "ticks": 89760,
          "time": 74.8,
          "velocity": 0.8267716535433071
        },
        {
          "duration": 0.19666666666667254,
          "durationTicks": 236,
          "midi": 59,
          "name": "B3",
          "ticks": 90000,
          "time": 75,
          "velocity": 0.8267716535433071
        },
        {
          "duration": 1.0999999999999943,
          "durationTicks": 1320,
          "midi": 60,
          "name": "C4",
          "ticks": 90240,
          "time": 75.2,
          "velocity": 0.8267716535433071
        },
        {
          "duration": 0.3333333333333286,
          "durationTicks": 400,
          "midi": 61,
          "name": "C#4",
          "ticks": 91680,
          "time": 76.4,
          "velocity": 0.8267716535433071
        },
        {
          "duration": 0.3333333333333286,
          "durationTicks": 400,
          "midi": 62,
          "name": "D4",
          "ticks": 92160,
          "time": 76.80000000000001,
          "velocity": 0.8267716535433071
        },
        {
          "duration": 0.29666666666666686,
          "durationTicks": 356,
          "midi": 54,
          "name": "F#3",
          "ticks": 92640,
          "time": 77.2,
          "velocity": 0.8267716535433071
        },
        {
          "duration": 0.29666666666666686,
          "durationTicks": 356,
          "midi": 57,
          "name": "A3",
          "ticks": 92640,
          "time": 77.2,
          "velocity": 0.8267716535433071
        },
        {
          "duration": 0.09666666666667822,
          "durationTicks": 116,
          "midi": 54,
          "name": "F#3",
          "ticks": 93000,
          "time": 77.5,
          "velocity": 0.8267716535433071
        },
        {
          "duration": 0.09666666666667822,
          "durationTicks": 116,
          "midi": 57,
          "name": "A3",
          "ticks": 93000,
          "time": 77.5,
          "velocity": 0.8267716535433071
        },
        {
          "duration": 0.3333333333333286,
          "durationTicks": 400,
          "midi": 54,
          "name": "F#3",
          "ticks": 93120,
          "time": 77.60000000000001,
          "velocity": 0.8267716535433071
        },
        {
          "duration": 0.3333333333333286,
          "durationTicks": 400,
          "midi": 57,
          "name": "A3",
          "ticks": 93120,
          "time": 77.60000000000001,
          "velocity": 0.8267716535433071
        },
        {
          "duration": 0.3333333333333428,
          "durationTicks": 400,
          "midi": 54,
          "name": "F#3",
          "ticks": 93600,
          "time": 78,
          "velocity": 0.8267716535433071
        },
        {
          "duration": 0.3333333333333428,
          "durationTicks": 400,
          "midi": 57,
          "name": "A3",
          "ticks": 93600,
          "time": 78,
          "velocity": 0.8267716535433071
        },
        {
          "duration": 0.3333333333333428,
          "durationTicks": 400,
          "midi": 55,
          "name": "G3",
          "ticks": 94080,
          "time": 78.4,
          "velocity": 0.8267716535433071
        },
        {
          "duration": 0.3333333333333428,
          "durationTicks": 400,
          "midi": 59,
          "name": "B3",
          "ticks": 94080,
          "time": 78.4,
          "velocity": 0.8267716535433071
        },
        {
          "duration": 0.29666666666666686,
          "durationTicks": 356,
          "midi": 55,
          "name": "G3",
          "ticks": 94560,
          "time": 78.80000000000001,
          "velocity": 0.8267716535433071
        },
        {
          "duration": 0.29666666666666686,
          "durationTicks": 356,
          "midi": 59,
          "name": "B3",
          "ticks": 94560,
          "time": 78.80000000000001,
          "velocity": 0.8267716535433071
        },
        {
          "duration": 0.09666666666666401,
          "durationTicks": 116,
          "midi": 55,
          "name": "G3",
          "ticks": 94920,
          "time": 79.10000000000001,
          "velocity": 0.8267716535433071
        },
        {
          "duration": 0.09666666666666401,
          "durationTicks": 116,
          "midi": 59,
          "name": "B3",
          "ticks": 94920,
          "time": 79.10000000000001,
          "velocity": 0.8267716535433071
        },
        {
          "duration": 0.3333333333333428,
          "durationTicks": 400,
          "midi": 55,
          "name": "G3",
          "ticks": 95040,
          "time": 79.2,
          "velocity": 0.8267716535433071
        },
        {
          "duration": 0.3333333333333428,
          "durationTicks": 400,
          "midi": 59,
          "name": "B3",
          "ticks": 95040,
          "time": 79.2,
          "velocity": 0.8267716535433071
        },
        {
          "duration": 0.3333333333333286,
          "durationTicks": 400,
          "midi": 55,
          "name": "G3",
          "ticks": 95520,
          "time": 79.60000000000001,
          "velocity": 0.8267716535433071
        },
        {
          "duration": 0.3333333333333286,
          "durationTicks": 400,
          "midi": 59,
          "name": "B3",
          "ticks": 95520,
          "time": 79.60000000000001,
          "velocity": 0.8267716535433071
        },
        {
          "duration": 0.3333333333333428,
          "durationTicks": 400,
          "midi": 54,
          "name": "F#3",
          "ticks": 96000,
          "time": 80,
          "velocity": 0.8267716535433071
        },
        {
          "duration": 0.3333333333333428,
          "durationTicks": 400,
          "midi": 57,
          "name": "A3",
          "ticks": 96000,
          "time": 80,
          "velocity": 0.8267716535433071
        },
        {
          "duration": 0.29666666666666686,
          "durationTicks": 356,
          "midi": 54,
          "name": "F#3",
          "ticks": 96480,
          "time": 80.4,
          "velocity": 0.8267716535433071
        },
        {
          "duration": 0.29666666666666686,
          "durationTicks": 356,
          "midi": 57,
          "name": "A3",
          "ticks": 96480,
          "time": 80.4,
          "velocity": 0.8267716535433071
        },
        {
          "duration": 0.09666666666667822,
          "durationTicks": 116,
          "midi": 54,
          "name": "F#3",
          "ticks": 96840,
          "time": 80.7,
          "velocity": 0.8267716535433071
        },
        {
          "duration": 0.09666666666667822,
          "durationTicks": 116,
          "midi": 57,
          "name": "A3",
          "ticks": 96840,
          "time": 80.7,
          "velocity": 0.8267716535433071
        },
        {
          "duration": 0.3333333333333286,
          "durationTicks": 400,
          "midi": 54,
          "name": "F#3",
          "ticks": 96960,
          "time": 80.80000000000001,
          "velocity": 0.8267716535433071
        },
        {
          "duration": 0.3333333333333286,
          "durationTicks": 400,
          "midi": 57,
          "name": "A3",
          "ticks": 96960,
          "time": 80.80000000000001,
          "velocity": 0.8267716535433071
        },
        {
          "duration": 0.3333333333333428,
          "durationTicks": 400,
          "midi": 54,
          "name": "F#3",
          "ticks": 97440,
          "time": 81.2,
          "velocity": 0.8267716535433071
        },
        {
          "duration": 0.3333333333333428,
          "durationTicks": 400,
          "midi": 57,
          "name": "A3",
          "ticks": 97440,
          "time": 81.2,
          "velocity": 0.8267716535433071
        },
        {
          "duration": 0.3333333333333286,
          "durationTicks": 400,
          "midi": 55,
          "name": "G3",
          "ticks": 97920,
          "time": 81.60000000000001,
          "velocity": 0.8267716535433071
        },
        {
          "duration": 0.3333333333333286,
          "durationTicks": 400,
          "midi": 59,
          "name": "B3",
          "ticks": 97920,
          "time": 81.60000000000001,
          "velocity": 0.8267716535433071
        },
        {
          "duration": 0.29666666666668107,
          "durationTicks": 356,
          "midi": 55,
          "name": "G3",
          "ticks": 98400,
          "time": 82,
          "velocity": 0.8267716535433071
        },
        {
          "duration": 0.29666666666668107,
          "durationTicks": 356,
          "midi": 59,
          "name": "B3",
          "ticks": 98400,
          "time": 82,
          "velocity": 0.8267716535433071
        },
        {
          "duration": 0.09666666666666401,
          "durationTicks": 116,
          "midi": 55,
          "name": "G3",
          "ticks": 98760,
          "time": 82.30000000000001,
          "velocity": 0.8267716535433071
        },
        {
          "duration": 0.09666666666666401,
          "durationTicks": 116,
          "midi": 59,
          "name": "B3",
          "ticks": 98760,
          "time": 82.30000000000001,
          "velocity": 0.8267716535433071
        },
        {
          "duration": 0.3333333333333428,
          "durationTicks": 400,
          "midi": 55,
          "name": "G3",
          "ticks": 98880,
          "time": 82.4,
          "velocity": 0.8267716535433071
        },
        {
          "duration": 0.3333333333333428,
          "durationTicks": 400,
          "midi": 59,
          "name": "B3",
          "ticks": 98880,
          "time": 82.4,
          "velocity": 0.8267716535433071
        },
        {
          "duration": 0.3333333333333286,
          "durationTicks": 400,
          "midi": 55,
          "name": "G3",
          "ticks": 99360,
          "time": 82.80000000000001,
          "velocity": 0.8267716535433071
        },
        {
          "duration": 0.3333333333333286,
          "durationTicks": 400,
          "midi": 59,
          "name": "B3",
          "ticks": 99360,
          "time": 82.80000000000001,
          "velocity": 0.8267716535433071
        },
        {
          "duration": 0.3333333333333428,
          "durationTicks": 400,
          "midi": 54,
          "name": "F#3",
          "ticks": 99840,
          "time": 83.2,
          "velocity": 0.8267716535433071
        },
        {
          "duration": 0.3333333333333428,
          "durationTicks": 400,
          "midi": 57,
          "name": "A3",
          "ticks": 99840,
          "time": 83.2,
          "velocity": 0.8267716535433071
        },
        {
          "duration": 0.3333333333333286,
          "durationTicks": 400,
          "midi": 54,
          "name": "F#3",
          "ticks": 100320,
          "time": 83.60000000000001,
          "velocity": 0.8267716535433071
        },
        {
          "duration": 0.3333333333333286,
          "durationTicks": 400,
          "midi": 57,
          "name": "A3",
          "ticks": 100320,
          "time": 83.60000000000001,
          "velocity": 0.8267716535433071
        },
        {
          "duration": 0.3333333333333428,
          "durationTicks": 400,
          "midi": 55,
          "name": "G3",
          "ticks": 101280,
          "time": 84.4,
          "velocity": 0.8267716535433071
        },
        {
          "duration": 0.3333333333333428,
          "durationTicks": 400,
          "midi": 59,
          "name": "B3",
          "ticks": 101280,
          "time": 84.4,
          "velocity": 0.8267716535433071
        },
        {
          "duration": 0.3333333333333428,
          "durationTicks": 400,
          "midi": 54,
          "name": "F#3",
          "ticks": 102240,
          "time": 85.2,
          "velocity": 0.8267716535433071
        },
        {
          "duration": 0.3333333333333428,
          "durationTicks": 400,
          "midi": 57,
          "name": "A3",
          "ticks": 102240,
          "time": 85.2,
          "velocity": 0.8267716535433071
        },
        {
          "duration": 0.3333333333333428,
          "durationTicks": 400,
          "midi": 55,
          "name": "G3",
          "ticks": 103200,
          "time": 86,
          "velocity": 0.8267716535433071
        },
        {
          "duration": 0.3333333333333428,
          "durationTicks": 400,
          "midi": 59,
          "name": "B3",
          "ticks": 103200,
          "time": 86,
          "velocity": 0.8267716535433071
        },
        {
          "duration": 0.3333333333333428,
          "durationTicks": 400,
          "midi": 54,
          "name": "F#3",
          "ticks": 103680,
          "time": 86.4,
          "velocity": 0.8267716535433071
        },
        {
          "duration": 0.3333333333333428,
          "durationTicks": 400,
          "midi": 57,
          "name": "A3",
          "ticks": 103680,
          "time": 86.4,
          "velocity": 0.8267716535433071
        },
        {
          "duration": 1.2000000000000028,
          "durationTicks": 1440,
          "midi": 55,
          "name": "G3",
          "ticks": 117120,
          "time": 97.60000000000001,
          "velocity": 0.4015748031496063
        },
        {
          "duration": 0.3999999999999915,
          "durationTicks": 480,
          "midi": 56,
          "name": "G#3",
          "ticks": 118560,
          "time": 98.80000000000001,
          "velocity": 0.4015748031496063
        },
        {
          "duration": 0.3333333333333428,
          "durationTicks": 400,
          "midi": 57,
          "name": "A3",
          "ticks": 119040,
          "time": 99.2,
          "velocity": 0.4015748031496063
        },
        {
          "duration": 0.29999999999999716,
          "durationTicks": 360,
          "midi": 60,
          "name": "C4",
          "ticks": 121440,
          "time": 101.2,
          "velocity": 0.4015748031496063
        },
        {
          "duration": 0.10000000000000853,
          "durationTicks": 120,
          "midi": 57,
          "name": "A3",
          "ticks": 121800,
          "time": 101.5,
          "velocity": 0.4015748031496063
        },
        {
          "duration": 0.19666666666667254,
          "durationTicks": 236,
          "midi": 66,
          "name": "F#4",
          "ticks": 121920,
          "time": 101.60000000000001,
          "velocity": 0.4015748031496063
        },
        {
          "duration": 0.06666666666666288,
          "durationTicks": 80,
          "midi": 66,
          "name": "F#4",
          "ticks": 122400,
          "time": 102,
          "velocity": 0.4015748031496063
        },
        {
          "duration": 0.5999999999999943,
          "durationTicks": 720,
          "midi": 67,
          "name": "G4",
          "ticks": 122880,
          "time": 102.4,
          "velocity": 0.4015748031496063
        },
        {
          "duration": 0.10000000000000853,
          "durationTicks": 120,
          "midi": 66,
          "name": "F#4",
          "ticks": 123600,
          "time": 103,
          "velocity": 0.4015748031496063
        },
        {
          "duration": 0.09999999999999432,
          "durationTicks": 120,
          "midi": 64,
          "name": "E4",
          "ticks": 123720,
          "time": 103.10000000000001,
          "velocity": 0.4015748031496063
        },
        {
          "duration": 0.19666666666667254,
          "durationTicks": 236,
          "midi": 62,
          "name": "D4",
          "ticks": 123840,
          "time": 103.2,
          "velocity": 0.4015748031496063
        },
        {
          "duration": 0.29999999999999716,
          "durationTicks": 360,
          "midi": 62,
          "name": "D4",
          "ticks": 124320,
          "time": 103.60000000000001,
          "velocity": 0.4015748031496063
        },
        {
          "duration": 0.09666666666666401,
          "durationTicks": 116,
          "midi": 64,
          "name": "E4",
          "ticks": 124680,
          "time": 103.9,
          "velocity": 0.4015748031496063
        },
        {
          "duration": 0.06666666666667709,
          "durationTicks": 80,
          "midi": 60,
          "name": "C4",
          "ticks": 124800,
          "time": 104,
          "velocity": 0.4015748031496063
        },
        {
          "duration": 0.29999999999999716,
          "durationTicks": 360,
          "midi": 60,
          "name": "C4",
          "ticks": 125280,
          "time": 104.4,
          "velocity": 0.4015748031496063
        },
        {
          "duration": 0.09666666666667822,
          "durationTicks": 116,
          "midi": 62,
          "name": "D4",
          "ticks": 125640,
          "time": 104.7,
          "velocity": 0.4015748031496063
        },
        {
          "duration": 0.06666666666666288,
          "durationTicks": 80,
          "midi": 59,
          "name": "B3",
          "ticks": 125760,
          "time": 104.80000000000001,
          "velocity": 0.4015748031496063
        },
        {
          "duration": 0.29999999999999716,
          "durationTicks": 360,
          "midi": 59,
          "name": "B3",
          "ticks": 126240,
          "time": 105.2,
          "velocity": 0.4015748031496063
        },
        {
          "duration": 0.09666666666667822,
          "durationTicks": 116,
          "midi": 60,
          "name": "C4",
          "ticks": 126600,
          "time": 105.5,
          "velocity": 0.4015748031496063
        },
        {
          "duration": 0.09999999999999432,
          "durationTicks": 120,
          "midi": 57,
          "name": "A3",
          "ticks": 126720,
          "time": 105.60000000000001,
          "velocity": 0.4015748031496063
        },
        {
          "duration": 0.10000000000000853,
          "durationTicks": 120,
          "midi": 57,
          "name": "A3",
          "ticks": 127200,
          "time": 106,
          "velocity": 0.4015748031496063
        },
        {
          "duration": 0.09999999999999432,
          "durationTicks": 120,
          "midi": 57,
          "name": "A3",
          "ticks": 127680,
          "time": 106.4,
          "velocity": 0.4015748031496063
        },
        {
          "duration": 0.29999999999999716,
          "durationTicks": 360,
          "midi": 59,
          "name": "B3",
          "ticks": 128160,
          "time": 106.80000000000001,
          "velocity": 0.4015748031496063
        },
        {
          "duration": 0.09666666666666401,
          "durationTicks": 116,
          "midi": 60,
          "name": "C4",
          "ticks": 128520,
          "time": 107.10000000000001,
          "velocity": 0.4015748031496063
        },
        {
          "duration": 0.06666666666667709,
          "durationTicks": 80,
          "midi": 62,
          "name": "D4",
          "ticks": 128640,
          "time": 107.2,
          "velocity": 0.4015748031496063
        },
        {
          "duration": 0.29999999999999716,
          "durationTicks": 360,
          "midi": 62,
          "name": "D4",
          "ticks": 129120,
          "time": 107.60000000000001,
          "velocity": 0.4015748031496063
        },
        {
          "duration": 0.09666666666666401,
          "durationTicks": 116,
          "midi": 64,
          "name": "E4",
          "ticks": 129480,
          "time": 107.9,
          "velocity": 0.4015748031496063
        },
        {
          "duration": 0.06666666666667709,
          "durationTicks": 80,
          "midi": 60,
          "name": "C4",
          "ticks": 129600,
          "time": 108,
          "velocity": 0.4015748031496063
        },
        {
          "duration": 0.29999999999999716,
          "durationTicks": 360,
          "midi": 60,
          "name": "C4",
          "ticks": 130080,
          "time": 108.4,
          "velocity": 0.4015748031496063
        },
        {
          "duration": 0.09666666666667822,
          "durationTicks": 116,
          "midi": 62,
          "name": "D4",
          "ticks": 130440,
          "time": 108.7,
          "velocity": 0.4015748031496063
        },
        {
          "duration": 0.09999999999999432,
          "durationTicks": 120,
          "midi": 59,
          "name": "B3",
          "ticks": 130560,
          "time": 108.80000000000001,
          "velocity": 0.4015748031496063
        },
        {
          "duration": 0.10000000000000853,
          "durationTicks": 120,
          "midi": 59,
          "name": "B3",
          "ticks": 131040,
          "time": 109.2,
          "velocity": 0.4015748031496063
        },
        {
          "duration": 0.20000000000000284,
          "durationTicks": 240,
          "midi": 59,
          "name": "B3",
          "ticks": 131520,
          "time": 109.60000000000001,
          "velocity": 0.4015748031496063
        },
        {
          "duration": 0.19999999999998863,
          "durationTicks": 240,
          "midi": 62,
          "name": "D4",
          "ticks": 131760,
          "time": 109.80000000000001,
          "velocity": 0.4015748031496063
        },
        {
          "duration": 0.20000000000000284,
          "durationTicks": 240,
          "midi": 60,
          "name": "C4",
          "ticks": 132000,
          "time": 110,
          "velocity": 0.4015748031496063
        },
        {
          "duration": 0.19666666666667254,
          "durationTicks": 236,
          "midi": 57,
          "name": "A3",
          "ticks": 132240,
          "time": 110.2,
          "velocity": 0.4015748031496063
        },
        {
          "duration": 1.2000000000000028,
          "durationTicks": 1440,
          "midi": 55,
          "name": "G3",
          "ticks": 132480,
          "time": 110.4,
          "velocity": 0.4015748031496063
        },
        {
          "duration": 0.20000000000000284,
          "durationTicks": 240,
          "midi": 59,
          "name": "B3",
          "ticks": 133920,
          "time": 111.60000000000001,
          "velocity": 0.4015748031496063
        },
        {
          "duration": 0.19666666666665833,
          "durationTicks": 236,
          "midi": 57,
          "name": "A3",
          "ticks": 134160,
          "time": 111.80000000000001,
          "velocity": 0.4015748031496063
        },
        {
          "duration": 0.3333333333333286,
          "durationTicks": 400,
          "midi": 55,
          "name": "G3",
          "ticks": 134400,
          "time": 112,
          "velocity": 0.4015748031496063
        },
        {
          "duration": 5.5,
          "durationTicks": 6600,
          "midi": 60,
          "name": "C4",
          "ticks": 153600,
          "time": 128,
          "velocity": 0.8267716535433071
        },
        {
          "duration": 1.5,
          "durationTicks": 1800,
          "midi": 63,
          "name": "D#4",
          "ticks": 153600,
          "time": 128,
          "velocity": 0.8267716535433071
        },
        {
          "duration": 0.05000000000001137,
          "durationTicks": 60,
          "midi": 62,
          "name": "D4",
          "ticks": 155520,
          "time": 129.6,
          "velocity": 0.8267716535433071
        },
        {
          "duration": 0.6833333333333371,
          "durationTicks": 820,
          "midi": 63,
          "name": "D#4",
          "ticks": 155580,
          "time": 129.65,
          "velocity": 0.8267716535433071
        },
        {
          "duration": 0.05000000000001137,
          "durationTicks": 60,
          "midi": 62,
          "name": "D4",
          "ticks": 156480,
          "time": 130.4,
          "velocity": 0.8267716535433071
        },
        {
          "duration": 0.6833333333333087,
          "durationTicks": 820,
          "midi": 63,
          "name": "D#4",
          "ticks": 156540,
          "time": 130.45000000000002,
          "velocity": 0.8267716535433071
        },
        {
          "duration": 1.5,
          "durationTicks": 1800,
          "midi": 64,
          "name": "E4",
          "ticks": 157440,
          "time": 131.20000000000002,
          "velocity": 0.8267716535433071
        },
        {
          "duration": 1.5,
          "durationTicks": 1800,
          "midi": 65,
          "name": "F4",
          "ticks": 159360,
          "time": 132.8,
          "velocity": 0.8267716535433071
        },
        {
          "duration": 0.700000000000017,
          "durationTicks": 840,
          "midi": 56,
          "name": "G#3",
          "ticks": 160320,
          "time": 133.6,
          "velocity": 0.8267716535433071
        },
        {
          "duration": 3.0999999999999943,
          "durationTicks": 3720,
          "midi": 55,
          "name": "G3",
          "ticks": 161280,
          "time": 134.4,
          "velocity": 0.8267716535433071
        },
        {
          "duration": 3.0999999999999943,
          "durationTicks": 3720,
          "midi": 64,
          "name": "E4",
          "ticks": 161280,
          "time": 134.4,
          "velocity": 0.8267716535433071
        },
        {
          "duration": 0.3333333333333428,
          "durationTicks": 400,
          "midi": 59,
          "name": "B3",
          "ticks": 165120,
          "time": 137.6,
          "velocity": 0.8267716535433071
        },
        {
          "duration": 0.3333333333333428,
          "durationTicks": 400,
          "midi": 62,
          "name": "D4",
          "ticks": 165120,
          "time": 137.6,
          "velocity": 0.8267716535433071
        },
        {
          "duration": 0.3333333333333428,
          "durationTicks": 400,
          "midi": 38,
          "name": "D2",
          "ticks": 165600,
          "time": 138,
          "velocity": 0.8267716535433071
        },
        {
          "duration": 0.3333333333333428,
          "durationTicks": 400,
          "midi": 50,
          "name": "D3",
          "ticks": 165600,
          "time": 138,
          "velocity": 0.8267716535433071
        },
        {
          "duration": 0.3333333333333144,
          "durationTicks": 400,
          "midi": 43,
          "name": "G2",
          "ticks": 166080,
          "time": 138.4,
          "velocity": 0.8267716535433071
        },
        {
          "duration": 0.3333333333333144,
          "durationTicks": 400,
          "midi": 55,
          "name": "G3",
          "ticks": 166080,
          "time": 138.4,
          "velocity": 0.8267716535433071
        },
        {
          "duration": 0.3333333333333144,
          "durationTicks": 400,
          "midi": 47,
          "name": "B2",
          "ticks": 166560,
          "time": 138.8,
          "velocity": 0.8267716535433071
        },
        {
          "duration": 0.3333333333333144,
          "durationTicks": 400,
          "midi": 59,
          "name": "B3",
          "ticks": 166560,
          "time": 138.8,
          "velocity": 0.8267716535433071
        },
        {
          "duration": 1.0999999999999943,
          "durationTicks": 1320,
          "midi": 50,
          "name": "D3",
          "ticks": 167040,
          "time": 139.20000000000002,
          "velocity": 0.8267716535433071
        },
        {
          "duration": 1.0999999999999943,
          "durationTicks": 1320,
          "midi": 62,
          "name": "D4",
          "ticks": 167040,
          "time": 139.20000000000002,
          "velocity": 0.8267716535433071
        },
        {
          "duration": 0.3333333333333144,
          "durationTicks": 400,
          "midi": 50,
          "name": "D3",
          "ticks": 168480,
          "time": 140.4,
          "velocity": 0.8267716535433071
        },
        {
          "duration": 0.5999999999999943,
          "durationTicks": 720,
          "midi": 59,
          "name": "B3",
          "ticks": 168960,
          "time": 140.8,
          "velocity": 0.8267716535433071
        },
        {
          "duration": 0.19666666666665833,
          "durationTicks": 236,
          "midi": 57,
          "name": "A3",
          "ticks": 169680,
          "time": 141.4,
          "velocity": 0.8267716535433071
        },
        {
          "duration": 0.30000000000001137,
          "durationTicks": 360,
          "midi": 60,
          "name": "C4",
          "ticks": 169920,
          "time": 141.6,
          "velocity": 0.8267716535433071
        },
        {
          "duration": 0.09666666666666401,
          "durationTicks": 116,
          "midi": 59,
          "name": "B3",
          "ticks": 170280,
          "time": 141.9,
          "velocity": 0.8267716535433071
        },
        {
          "duration": 0.30000000000001137,
          "durationTicks": 360,
          "midi": 64,
          "name": "E4",
          "ticks": 170400,
          "time": 142,
          "velocity": 0.8267716535433071
        },
        {
          "duration": 0.09666666666666401,
          "durationTicks": 116,
          "midi": 62,
          "name": "D4",
          "ticks": 170760,
          "time": 142.3,
          "velocity": 0.8267716535433071
        },
        {
          "duration": 0.5999999999999943,
          "durationTicks": 720,
          "midi": 60,
          "name": "C4",
          "ticks": 170880,
          "time": 142.4,
          "velocity": 0.8267716535433071
        },
        {
          "duration": 0.19666666666668675,
          "durationTicks": 236,
          "midi": 59,
          "name": "B3",
          "ticks": 171600,
          "time": 143,
          "velocity": 0.8267716535433071
        },
        {
          "duration": 0.29999999999998295,
          "durationTicks": 360,
          "midi": 62,
          "name": "D4",
          "ticks": 171840,
          "time": 143.20000000000002,
          "velocity": 0.8267716535433071
        },
        {
          "duration": 0.09666666666666401,
          "durationTicks": 116,
          "midi": 60,
          "name": "C4",
          "ticks": 172200,
          "time": 143.5,
          "velocity": 0.8267716535433071
        },
        {
          "duration": 0.30000000000001137,
          "durationTicks": 360,
          "midi": 65,
          "name": "F4",
          "ticks": 172320,
          "time": 143.6,
          "velocity": 0.8267716535433071
        },
        {
          "duration": 0.09666666666666401,
          "durationTicks": 116,
          "midi": 64,
          "name": "E4",
          "ticks": 172680,
          "time": 143.9,
          "velocity": 0.8267716535433071
        },
        {
          "duration": 0.5999999999999943,
          "durationTicks": 720,
          "midi": 62,
          "name": "D4",
          "ticks": 172800,
          "time": 144,
          "velocity": 0.8267716535433071
        },
        {
          "duration": 0.19666666666668675,
          "durationTicks": 236,
          "midi": 61,
          "name": "C#4",
          "ticks": 173520,
          "time": 144.6,
          "velocity": 0.8267716535433071
        },
        {
          "duration": 0.29999999999998295,
          "durationTicks": 360,
          "midi": 64,
          "name": "E4",
          "ticks": 173760,
          "time": 144.8,
          "velocity": 0.8267716535433071
        },
        {
          "duration": 0.09666666666669244,
          "durationTicks": 116,
          "midi": 62,
          "name": "D4",
          "ticks": 174120,
          "time": 145.1,
          "velocity": 0.8267716535433071
        },
        {
          "duration": 0.29999999999998295,
          "durationTicks": 360,
          "midi": 67,
          "name": "G4",
          "ticks": 174240,
          "time": 145.20000000000002,
          "velocity": 0.8267716535433071
        },
        {
          "duration": 0.09666666666666401,
          "durationTicks": 116,
          "midi": 65,
          "name": "F4",
          "ticks": 174600,
          "time": 145.5,
          "velocity": 0.8267716535433071
        },
        {
          "duration": 0.700000000000017,
          "durationTicks": 840,
          "midi": 64,
          "name": "E4",
          "ticks": 174720,
          "time": 145.6,
          "velocity": 0.6771653543307087
        },
        {
          "duration": 0.6999999999999886,
          "durationTicks": 840,
          "midi": 62,
          "name": "D4",
          "ticks": 175680,
          "time": 146.4,
          "velocity": 0.6771653543307087
        },
        {
          "duration": 0.19666666666665833,
          "durationTicks": 236,
          "midi": 60,
          "name": "C4",
          "ticks": 176640,
          "time": 147.20000000000002,
          "velocity": 0.6771653543307087
        },
        {
          "duration": 0.19666666666665833,
          "durationTicks": 236,
          "midi": 60,
          "name": "C4",
          "ticks": 176880,
          "time": 147.4,
          "velocity": 0.6771653543307087
        },
        {
          "duration": 0.19666666666668675,
          "durationTicks": 236,
          "midi": 60,
          "name": "C4",
          "ticks": 177120,
          "time": 147.6,
          "velocity": 0.6771653543307087
        },
        {
          "duration": 0.19666666666665833,
          "durationTicks": 236,
          "midi": 60,
          "name": "C4",
          "ticks": 177360,
          "time": 147.8,
          "velocity": 0.6771653543307087
        },
        {
          "duration": 0.19666666666668675,
          "durationTicks": 236,
          "midi": 62,
          "name": "D4",
          "ticks": 177600,
          "time": 148,
          "velocity": 0.6771653543307087
        },
        {
          "duration": 0.19666666666665833,
          "durationTicks": 236,
          "midi": 62,
          "name": "D4",
          "ticks": 177840,
          "time": 148.20000000000002,
          "velocity": 0.6771653543307087
        },
        {
          "duration": 0.19666666666665833,
          "durationTicks": 236,
          "midi": 62,
          "name": "D4",
          "ticks": 178080,
          "time": 148.4,
          "velocity": 0.6771653543307087
        },
        {
          "duration": 0.19666666666668675,
          "durationTicks": 236,
          "midi": 62,
          "name": "D4",
          "ticks": 178320,
          "time": 148.6,
          "velocity": 0.6771653543307087
        },
        {
          "duration": 0.5999999999999943,
          "durationTicks": 720,
          "midi": 55,
          "name": "G3",
          "ticks": 178560,
          "time": 148.8,
          "velocity": 0.6771653543307087
        },
        {
          "duration": 0.19666666666665833,
          "durationTicks": 236,
          "midi": 54,
          "name": "F#3",
          "ticks": 179280,
          "time": 149.4,
          "velocity": 0.6771653543307087
        },
        {
          "duration": 0.30000000000001137,
          "durationTicks": 360,
          "midi": 57,
          "name": "A3",
          "ticks": 179520,
          "time": 149.6,
          "velocity": 0.6771653543307087
        },
        {
          "duration": 0.09666666666666401,
          "durationTicks": 116,
          "midi": 55,
          "name": "G3",
          "ticks": 179880,
          "time": 149.9,
          "velocity": 0.6771653543307087
        },
        {
          "duration": 0.30000000000001137,
          "durationTicks": 360,
          "midi": 60,
          "name": "C4",
          "ticks": 180000,
          "time": 150,
          "velocity": 0.6771653543307087
        },
        {
          "duration": 0.09666666666666401,
          "durationTicks": 116,
          "midi": 59,
          "name": "B3",
          "ticks": 180360,
          "time": 150.3,
          "velocity": 0.6771653543307087
        },
        {
          "duration": 0.5999999999999943,
          "durationTicks": 720,
          "midi": 57,
          "name": "A3",
          "ticks": 180480,
          "time": 150.4,
          "velocity": 0.6771653543307087
        },
        {
          "duration": 0.19666666666668675,
          "durationTicks": 236,
          "midi": 56,
          "name": "G#3",
          "ticks": 181200,
          "time": 151,
          "velocity": 0.6771653543307087
        },
        {
          "duration": 0.29999999999998295,
          "durationTicks": 360,
          "midi": 59,
          "name": "B3",
          "ticks": 181440,
          "time": 151.20000000000002,
          "velocity": 0.6771653543307087
        },
        {
          "duration": 0.09666666666666401,
          "durationTicks": 116,
          "midi": 57,
          "name": "A3",
          "ticks": 181800,
          "time": 151.5,
          "velocity": 0.6771653543307087
        },
        {
          "duration": 0.30000000000001137,
          "durationTicks": 360,
          "midi": 62,
          "name": "D4",
          "ticks": 181920,
          "time": 151.6,
          "velocity": 0.6771653543307087
        },
        {
          "duration": 0.09666666666666401,
          "durationTicks": 116,
          "midi": 60,
          "name": "C4",
          "ticks": 182280,
          "time": 151.9,
          "velocity": 0.6771653543307087
        },
        {
          "duration": 0.5999999999999943,
          "durationTicks": 720,
          "midi": 59,
          "name": "B3",
          "ticks": 182400,
          "time": 152,
          "velocity": 0.6771653543307087
        },
        {
          "duration": 0.19666666666668675,
          "durationTicks": 236,
          "midi": 58,
          "name": "A#3",
          "ticks": 183120,
          "time": 152.6,
          "velocity": 0.6771653543307087
        },
        {
          "duration": 0.29999999999998295,
          "durationTicks": 360,
          "midi": 60,
          "name": "C4",
          "ticks": 183360,
          "time": 152.8,
          "velocity": 0.6771653543307087
        },
        {
          "duration": 0.09666666666669244,
          "durationTicks": 116,
          "midi": 59,
          "name": "B3",
          "ticks": 183720,
          "time": 153.1,
          "velocity": 0.6771653543307087
        },
        {
          "duration": 0.29999999999998295,
          "durationTicks": 360,
          "midi": 64,
          "name": "E4",
          "ticks": 183840,
          "time": 153.20000000000002,
          "velocity": 0.6771653543307087
        },
        {
          "duration": 0.09666666666666401,
          "durationTicks": 116,
          "midi": 62,
          "name": "D4",
          "ticks": 184200,
          "time": 153.5,
          "velocity": 0.6771653543307087
        },
        {
          "duration": 0.3333333333333144,
          "durationTicks": 400,
          "midi": 60,
          "name": "C4",
          "ticks": 184320,
          "time": 153.60000000000002,
          "velocity": 0.6771653543307087
        },
        {
          "duration": 0.3333333333333428,
          "durationTicks": 400,
          "midi": 62,
          "name": "D4",
          "ticks": 184800,
          "time": 154,
          "velocity": 0.6771653543307087
        },
        {
          "duration": 0.3333333333333428,
          "durationTicks": 400,
          "midi": 60,
          "name": "C4",
          "ticks": 185280,
          "time": 154.4,
          "velocity": 0.6771653543307087
        },
        {
          "duration": 0.3333333333333144,
          "durationTicks": 400,
          "midi": 56,
          "name": "G#3",
          "ticks": 185760,
          "time": 154.8,
          "velocity": 0.6771653543307087
        },
        {
          "duration": 0.19666666666665833,
          "durationTicks": 236,
          "midi": 57,
          "name": "A3",
          "ticks": 186240,
          "time": 155.20000000000002,
          "velocity": 0.6771653543307087
        },
        {
          "duration": 0.19666666666668675,
          "durationTicks": 236,
          "midi": 57,
          "name": "A3",
          "ticks": 186480,
          "time": 155.4,
          "velocity": 0.6771653543307087
        },
        {
          "duration": 0.19666666666665833,
          "durationTicks": 236,
          "midi": 55,
          "name": "G3",
          "ticks": 186720,
          "time": 155.60000000000002,
          "velocity": 0.6771653543307087
        },
        {
          "duration": 0.19666666666665833,
          "durationTicks": 236,
          "midi": 55,
          "name": "G3",
          "ticks": 186960,
          "time": 155.8,
          "velocity": 0.6771653543307087
        },
        {
          "duration": 0.19666666666668675,
          "durationTicks": 236,
          "midi": 54,
          "name": "F#3",
          "ticks": 187200,
          "time": 156,
          "velocity": 0.6771653543307087
        },
        {
          "duration": 0.19666666666665833,
          "durationTicks": 236,
          "midi": 54,
          "name": "F#3",
          "ticks": 187440,
          "time": 156.20000000000002,
          "velocity": 0.6771653543307087
        },
        {
          "duration": 0.19666666666668675,
          "durationTicks": 236,
          "midi": 55,
          "name": "G3",
          "ticks": 187680,
          "time": 156.4,
          "velocity": 0.6771653543307087
        },
        {
          "duration": 0.19666666666665833,
          "durationTicks": 236,
          "midi": 55,
          "name": "G3",
          "ticks": 187920,
          "time": 156.60000000000002,
          "velocity": 0.6771653543307087
        },
        {
          "duration": 0.3333333333333144,
          "durationTicks": 400,
          "midi": 54,
          "name": "F#3",
          "ticks": 188160,
          "time": 156.8,
          "velocity": 0.6771653543307087
        },
        {
          "duration": 0.0666666666666913,
          "durationTicks": 80,
          "midi": 50,
          "name": "D3",
          "ticks": 200400,
          "time": 167,
          "velocity": 0.6771653543307087
        },
        {
          "duration": 0.19999999999998863,
          "durationTicks": 240,
          "midi": 50,
          "name": "D3",
          "ticks": 200640,
          "time": 167.20000000000002,
          "velocity": 0.4015748031496063
        },
        {
          "duration": 0.19666666666668675,
          "durationTicks": 236,
          "midi": 59,
          "name": "B3",
          "ticks": 200880,
          "time": 167.4,
          "velocity": 0.4015748031496063
        },
        {
          "duration": 0.06666666666666288,
          "durationTicks": 80,
          "midi": 59,
          "name": "B3",
          "ticks": 201120,
          "time": 167.60000000000002,
          "velocity": 0.4015748031496063
        },
        {
          "duration": 0.06666666666666288,
          "durationTicks": 80,
          "midi": 59,
          "name": "B3",
          "ticks": 201360,
          "time": 167.8,
          "velocity": 0.4015748031496063
        },
        {
          "duration": 0.20000000000001705,
          "durationTicks": 240,
          "midi": 59,
          "name": "B3",
          "ticks": 201600,
          "time": 168,
          "velocity": 0.4015748031496063
        },
        {
          "duration": 0.19666666666665833,
          "durationTicks": 236,
          "midi": 57,
          "name": "A3",
          "ticks": 201840,
          "time": 168.20000000000002,
          "velocity": 0.4015748031496063
        },
        {
          "duration": 0.0666666666666913,
          "durationTicks": 80,
          "midi": 57,
          "name": "A3",
          "ticks": 202080,
          "time": 168.4,
          "velocity": 0.4015748031496063
        },
        {
          "duration": 0.06666666666666288,
          "durationTicks": 80,
          "midi": 57,
          "name": "A3",
          "ticks": 202320,
          "time": 168.60000000000002,
          "velocity": 0.4015748031496063
        },
        {
          "duration": 0.05000000000001137,
          "durationTicks": 60,
          "midi": 59,
          "name": "B3",
          "ticks": 202560,
          "time": 168.8,
          "velocity": 0.4015748031496063
        },
        {
          "duration": 0.09999999999999432,
          "durationTicks": 120,
          "midi": 57,
          "name": "A3",
          "ticks": 202620,
          "time": 168.85000000000002,
          "velocity": 0.4015748031496063
        },
        {
          "duration": 0.0666666666666913,
          "durationTicks": 80,
          "midi": 55,
          "name": "G3",
          "ticks": 202800,
          "time": 169,
          "velocity": 0.4015748031496063
        },
        {
          "duration": 0.06666666666666288,
          "durationTicks": 80,
          "midi": 57,
          "name": "A3",
          "ticks": 203040,
          "time": 169.20000000000002,
          "velocity": 0.4015748031496063
        },
        {
          "duration": 0.0666666666666913,
          "durationTicks": 80,
          "midi": 59,
          "name": "B3",
          "ticks": 203280,
          "time": 169.4,
          "velocity": 0.4015748031496063
        },
        {
          "duration": 0.5999999999999943,
          "durationTicks": 720,
          "midi": 55,
          "name": "G3",
          "ticks": 203520,
          "time": 169.60000000000002,
          "velocity": 0.4015748031496063
        },
        {
          "duration": 0.19666666666665833,
          "durationTicks": 236,
          "midi": 59,
          "name": "B3",
          "ticks": 204240,
          "time": 170.20000000000002,
          "velocity": 0.4015748031496063
        },
        {
          "duration": 0.5999999999999943,
          "durationTicks": 720,
          "midi": 52,
          "name": "E3",
          "ticks": 204480,
          "time": 170.4,
          "velocity": 0.4015748031496063
        },
        {
          "duration": 0.19666666666668675,
          "durationTicks": 236,
          "midi": 60,
          "name": "C4",
          "ticks": 205200,
          "time": 171,
          "velocity": 0.4015748031496063
        },
        {
          "duration": 0.19999999999998863,
          "durationTicks": 240,
          "midi": 57,
          "name": "A3",
          "ticks": 205440,
          "time": 171.20000000000002,
          "velocity": 0.4015748031496063
        },
        {
          "duration": 0.19666666666668675,
          "durationTicks": 236,
          "midi": 64,
          "name": "E4",
          "ticks": 205680,
          "time": 171.4,
          "velocity": 0.4015748031496063
        },
        {
          "duration": 0.06666666666666288,
          "durationTicks": 80,
          "midi": 60,
          "name": "C4",
          "ticks": 205920,
          "time": 171.60000000000002,
          "velocity": 0.4015748031496063
        },
        {
          "duration": 0.06666666666666288,
          "durationTicks": 80,
          "midi": 57,
          "name": "A3",
          "ticks": 206160,
          "time": 171.8,
          "velocity": 0.4015748031496063
        },
        {
          "duration": 0.0666666666666913,
          "durationTicks": 80,
          "midi": 54,
          "name": "F#3",
          "ticks": 206400,
          "time": 172,
          "velocity": 0.4015748031496063
        },
        {
          "duration": 0.06666666666666288,
          "durationTicks": 80,
          "midi": 55,
          "name": "G3",
          "ticks": 206640,
          "time": 172.20000000000002,
          "velocity": 0.4015748031496063
        },
        {
          "duration": 0.0666666666666913,
          "durationTicks": 80,
          "midi": 57,
          "name": "A3",
          "ticks": 206880,
          "time": 172.4,
          "velocity": 0.4015748031496063
        },
        {
          "duration": 0.06666666666666288,
          "durationTicks": 80,
          "midi": 59,
          "name": "B3",
          "ticks": 207120,
          "time": 172.60000000000002,
          "velocity": 0.4015748031496063
        },
        {
          "duration": 0.5999999999999943,
          "durationTicks": 720,
          "midi": 55,
          "name": "G3",
          "ticks": 207360,
          "time": 172.8,
          "velocity": 0.4015748031496063
        },
        {
          "duration": 0.19666666666668675,
          "durationTicks": 236,
          "midi": 59,
          "name": "B3",
          "ticks": 208080,
          "time": 173.4,
          "velocity": 0.4015748031496063
        },
        {
          "duration": 0.5999999999999943,
          "durationTicks": 720,
          "midi": 52,
          "name": "E3",
          "ticks": 208320,
          "time": 173.60000000000002,
          "velocity": 0.4015748031496063
        },
        {
          "duration": 0.19666666666665833,
          "durationTicks": 236,
          "midi": 60,
          "name": "C4",
          "ticks": 209040,
          "time": 174.20000000000002,
          "velocity": 0.4015748031496063
        },
        {
          "duration": 0.20000000000001705,
          "durationTicks": 240,
          "midi": 57,
          "name": "A3",
          "ticks": 209280,
          "time": 174.4,
          "velocity": 0.4015748031496063
        },
        {
          "duration": 0.19666666666665833,
          "durationTicks": 236,
          "midi": 64,
          "name": "E4",
          "ticks": 209520,
          "time": 174.60000000000002,
          "velocity": 0.4015748031496063
        },
        {
          "duration": 0.06666666666666288,
          "durationTicks": 80,
          "midi": 60,
          "name": "C4",
          "ticks": 209760,
          "time": 174.8,
          "velocity": 0.4015748031496063
        },
        {
          "duration": 0.0666666666666913,
          "durationTicks": 80,
          "midi": 57,
          "name": "A3",
          "ticks": 210000,
          "time": 175,
          "velocity": 0.4015748031496063
        },
        {
          "duration": 0.06666666666666288,
          "durationTicks": 80,
          "midi": 54,
          "name": "F#3",
          "ticks": 210240,
          "time": 175.20000000000002,
          "velocity": 0.4015748031496063
        },
        {
          "duration": 0.0666666666666913,
          "durationTicks": 80,
          "midi": 55,
          "name": "G3",
          "ticks": 210480,
          "time": 175.4,
          "velocity": 0.4015748031496063
        },
        {
          "duration": 0.06666666666666288,
          "durationTicks": 80,
          "midi": 57,
          "name": "A3",
          "ticks": 210720,
          "time": 175.60000000000002,
          "velocity": 0.4015748031496063
        },
        {
          "duration": 0.06666666666666288,
          "durationTicks": 80,
          "midi": 59,
          "name": "B3",
          "ticks": 210960,
          "time": 175.8,
          "velocity": 0.4015748031496063
        },
        {
          "duration": 0.19666666666668675,
          "durationTicks": 236,
          "midi": 55,
          "name": "G3",
          "ticks": 211200,
          "time": 176,
          "velocity": 0.4015748031496063
        },
        {
          "duration": 0.20000000000001705,
          "durationTicks": 240,
          "midi": 62,
          "name": "D4",
          "ticks": 211680,
          "time": 176.4,
          "velocity": 0.8267716535433071
        },
        {
          "duration": 0.19999999999998863,
          "durationTicks": 240,
          "midi": 61,
          "name": "C#4",
          "ticks": 211920,
          "time": 176.60000000000002,
          "velocity": 0.8267716535433071
        },
        {
          "duration": 0.19999999999998863,
          "durationTicks": 240,
          "midi": 62,
          "name": "D4",
          "ticks": 212160,
          "time": 176.8,
          "velocity": 0.8267716535433071
        },
        {
          "duration": 0.20000000000001705,
          "durationTicks": 240,
          "midi": 61,
          "name": "C#4",
          "ticks": 212400,
          "time": 177,
          "velocity": 0.8267716535433071
        },
        {
          "duration": 0.19999999999998863,
          "durationTicks": 240,
          "midi": 62,
          "name": "D4",
          "ticks": 212640,
          "time": 177.20000000000002,
          "velocity": 0.8267716535433071
        },
        {
          "duration": 0.19666666666668675,
          "durationTicks": 236,
          "midi": 59,
          "name": "B3",
          "ticks": 212880,
          "time": 177.4,
          "velocity": 0.8267716535433071
        },
        {
          "duration": 0.19666666666665833,
          "durationTicks": 236,
          "midi": 60,
          "name": "C4",
          "ticks": 213120,
          "time": 177.60000000000002,
          "velocity": 0.8267716535433071
        },
        {
          "duration": 0.20000000000001705,
          "durationTicks": 240,
          "midi": 60,
          "name": "C4",
          "ticks": 213600,
          "time": 178,
          "velocity": 0.8267716535433071
        },
        {
          "duration": 0.19999999999998863,
          "durationTicks": 240,
          "midi": 59,
          "name": "B3",
          "ticks": 213840,
          "time": 178.20000000000002,
          "velocity": 0.8267716535433071
        },
        {
          "duration": 0.20000000000001705,
          "durationTicks": 240,
          "midi": 60,
          "name": "C4",
          "ticks": 214080,
          "time": 178.4,
          "velocity": 0.8267716535433071
        },
        {
          "duration": 0.19999999999998863,
          "durationTicks": 240,
          "midi": 59,
          "name": "B3",
          "ticks": 214320,
          "time": 178.60000000000002,
          "velocity": 0.8267716535433071
        },
        {
          "duration": 0.19999999999998863,
          "durationTicks": 240,
          "midi": 60,
          "name": "C4",
          "ticks": 214560,
          "time": 178.8,
          "velocity": 0.8267716535433071
        },
        {
          "duration": 0.19666666666668675,
          "durationTicks": 236,
          "midi": 57,
          "name": "A3",
          "ticks": 214800,
          "time": 179,
          "velocity": 0.8267716535433071
        },
        {
          "duration": 0.06666666666666288,
          "durationTicks": 80,
          "midi": 59,
          "name": "B3",
          "ticks": 215040,
          "time": 179.20000000000002,
          "velocity": 0.8267716535433071
        },
        {
          "duration": 0.19666666666665833,
          "durationTicks": 236,
          "midi": 52,
          "name": "E3",
          "ticks": 215520,
          "time": 179.60000000000002,
          "velocity": 0.8267716535433071
        },
        {
          "duration": 0.19666666666665833,
          "durationTicks": 236,
          "midi": 52,
          "name": "E3",
          "ticks": 215760,
          "time": 179.8,
          "velocity": 0.8267716535433071
        },
        {
          "duration": 0.19666666666668675,
          "durationTicks": 236,
          "midi": 48,
          "name": "C3",
          "ticks": 216000,
          "time": 180,
          "velocity": 0.8267716535433071
        },
        {
          "duration": 0.19666666666665833,
          "durationTicks": 236,
          "midi": 48,
          "name": "C3",
          "ticks": 216240,
          "time": 180.20000000000002,
          "velocity": 0.8267716535433071
        },
        {
          "duration": 0.19666666666668675,
          "durationTicks": 236,
          "midi": 50,
          "name": "D3",
          "ticks": 216480,
          "time": 180.4,
          "velocity": 0.8267716535433071
        },
        {
          "duration": 0.19666666666665833,
          "durationTicks": 236,
          "midi": 50,
          "name": "D3",
          "ticks": 216720,
          "time": 180.60000000000002,
          "velocity": 0.8267716535433071
        },
        {
          "duration": 0.19666666666665833,
          "durationTicks": 236,
          "midi": 55,
          "name": "G3",
          "ticks": 216960,
          "time": 180.8,
          "velocity": 0.8267716535433071
        },
        {
          "duration": 0.19999999999998863,
          "durationTicks": 240,
          "midi": 62,
          "name": "D4",
          "ticks": 217440,
          "time": 181.20000000000002,
          "velocity": 0.8267716535433071
        },
        {
          "duration": 0.20000000000001705,
          "durationTicks": 240,
          "midi": 61,
          "name": "C#4",
          "ticks": 217680,
          "time": 181.4,
          "velocity": 0.8267716535433071
        },
        {
          "duration": 0.19999999999998863,
          "durationTicks": 240,
          "midi": 62,
          "name": "D4",
          "ticks": 217920,
          "time": 181.60000000000002,
          "velocity": 0.8267716535433071
        },
        {
          "duration": 0.19999999999998863,
          "durationTicks": 240,
          "midi": 61,
          "name": "C#4",
          "ticks": 218160,
          "time": 181.8,
          "velocity": 0.8267716535433071
        },
        {
          "duration": 0.20000000000001705,
          "durationTicks": 240,
          "midi": 62,
          "name": "D4",
          "ticks": 218400,
          "time": 182,
          "velocity": 0.8267716535433071
        },
        {
          "duration": 0.19666666666665833,
          "durationTicks": 236,
          "midi": 59,
          "name": "B3",
          "ticks": 218640,
          "time": 182.20000000000002,
          "velocity": 0.8267716535433071
        },
        {
          "duration": 0.19666666666668675,
          "durationTicks": 236,
          "midi": 60,
          "name": "C4",
          "ticks": 218880,
          "time": 182.4,
          "velocity": 0.8267716535433071
        },
        {
          "duration": 0.19999999999998863,
          "durationTicks": 240,
          "midi": 60,
          "name": "C4",
          "ticks": 219360,
          "time": 182.8,
          "velocity": 0.8267716535433071
        },
        {
          "duration": 0.20000000000001705,
          "durationTicks": 240,
          "midi": 59,
          "name": "B3",
          "ticks": 219600,
          "time": 183,
          "velocity": 0.8267716535433071
        },
        {
          "duration": 0.19999999999998863,
          "durationTicks": 240,
          "midi": 60,
          "name": "C4",
          "ticks": 219840,
          "time": 183.20000000000002,
          "velocity": 0.8267716535433071
        },
        {
          "duration": 0.20000000000001705,
          "durationTicks": 240,
          "midi": 59,
          "name": "B3",
          "ticks": 220080,
          "time": 183.4,
          "velocity": 0.8267716535433071
        },
        {
          "duration": 0.19999999999998863,
          "durationTicks": 240,
          "midi": 60,
          "name": "C4",
          "ticks": 220320,
          "time": 183.60000000000002,
          "velocity": 0.8267716535433071
        },
        {
          "duration": 0.19666666666665833,
          "durationTicks": 236,
          "midi": 57,
          "name": "A3",
          "ticks": 220560,
          "time": 183.8,
          "velocity": 0.8267716535433071
        },
        {
          "duration": 0.19666666666668675,
          "durationTicks": 236,
          "midi": 59,
          "name": "B3",
          "ticks": 220800,
          "time": 184,
          "velocity": 0.8267716535433071
        },
        {
          "duration": 0.19666666666668675,
          "durationTicks": 236,
          "midi": 52,
          "name": "E3",
          "ticks": 221280,
          "time": 184.4,
          "velocity": 0.8267716535433071
        },
        {
          "duration": 0.19666666666665833,
          "durationTicks": 236,
          "midi": 52,
          "name": "E3",
          "ticks": 221520,
          "time": 184.60000000000002,
          "velocity": 0.8267716535433071
        },
        {
          "duration": 0.19666666666665833,
          "durationTicks": 236,
          "midi": 48,
          "name": "C3",
          "ticks": 221760,
          "time": 184.8,
          "velocity": 0.8267716535433071
        },
        {
          "duration": 0.19666666666668675,
          "durationTicks": 236,
          "midi": 48,
          "name": "C3",
          "ticks": 222000,
          "time": 185,
          "velocity": 0.8267716535433071
        },
        {
          "duration": 0.19666666666665833,
          "durationTicks": 236,
          "midi": 50,
          "name": "D3",
          "ticks": 222240,
          "time": 185.20000000000002,
          "velocity": 0.8267716535433071
        },
        {
          "duration": 0.19666666666668675,
          "durationTicks": 236,
          "midi": 50,
          "name": "D3",
          "ticks": 222480,
          "time": 185.4,
          "velocity": 0.8267716535433071
        },
        {
          "duration": 0.3333333333333144,
          "durationTicks": 400,
          "midi": 55,
          "name": "G3",
          "ticks": 222720,
          "time": 185.60000000000002,
          "velocity": 0.8267716535433071
        },
        {
          "duration": 0.3333333333333428,
          "durationTicks": 400,
          "midi": 55,
          "name": "G3",
          "ticks": 223200,
          "time": 186,
          "velocity": 0.8267716535433071
        },
        {
          "duration": 0.3333333333333144,
          "durationTicks": 400,
          "midi": 50,
          "name": "D3",
          "ticks": 224160,
          "time": 186.8,
          "velocity": 0.8267716535433071
        },
        {
          "duration": 0.3333333333333144,
          "durationTicks": 400,
          "midi": 55,
          "name": "G3",
          "ticks": 225120,
          "time": 187.60000000000002,
          "velocity": 0.8267716535433071
        },
        {
          "duration": 0.3333333333333428,
          "durationTicks": 400,
          "midi": 50,
          "name": "D3",
          "ticks": 226080,
          "time": 188.4,
          "velocity": 0.8267716535433071
        },
        {
          "duration": 0.3333333333333144,
          "durationTicks": 400,
          "midi": 55,
          "name": "G3",
          "ticks": 227040,
          "time": 189.20000000000002,
          "velocity": 0.8267716535433071
        },
        {
          "duration": 0.3333333333333428,
          "durationTicks": 400,
          "midi": 50,
          "name": "D3",
          "ticks": 228000,
          "time": 190,
          "velocity": 0.8267716535433071
        },
        {
          "duration": 0.3333333333333428,
          "durationTicks": 400,
          "midi": 55,
          "name": "G3",
          "ticks": 228480,
          "time": 190.4,
          "velocity": 0.8267716535433071
        },
        {
          "duration": 0.3333333333333144,
          "durationTicks": 400,
          "midi": 55,
          "name": "G3",
          "ticks": 228960,
          "time": 190.8,
          "velocity": 0.8267716535433071
        },
        {
          "duration": 0.3333333333333144,
          "durationTicks": 400,
          "midi": 43,
          "name": "G2",
          "ticks": 229440,
          "time": 191.20000000000002,
          "velocity": 0.8267716535433071
        },
        {
          "duration": 0.3333333333333428,
          "durationTicks": 400,
          "midi": 48,
          "name": "C3",
          "ticks": 230400,
          "time": 192,
          "velocity": 0.8267716535433071
        },
        {
          "duration": 0.06666666666666288,
          "durationTicks": 80,
          "midi": 43,
          "name": "G2",
          "ticks": 231120,
          "time": 192.60000000000002,
          "velocity": 0.8267716535433071
        },
        {
          "duration": 0.06666666666666288,
          "durationTicks": 80,
          "midi": 45,
          "name": "A2",
          "ticks": 231200,
          "time": 192.66666666666669,
          "velocity": 0.8267716535433071
        },
        {
          "duration": 0.06666666666666288,
          "durationTicks": 80,
          "midi": 47,
          "name": "B2",
          "ticks": 231280,
          "time": 192.73333333333335,
          "velocity": 0.8267716535433071
        },
        {
          "duration": 0.3333333333333144,
          "durationTicks": 400,
          "midi": 48,
          "name": "C3",
          "ticks": 231360,
          "time": 192.8,
          "velocity": 0.8267716535433071
        },
        {
          "duration": 0.0666666666666913,
          "durationTicks": 80,
          "midi": 43,
          "name": "G2",
          "ticks": 232080,
          "time": 193.4,
          "velocity": 0.8267716535433071
        },
        {
          "duration": 0.06666666666663446,
          "durationTicks": 80,
          "midi": 45,
          "name": "A2",
          "ticks": 232160,
          "time": 193.4666666666667,
          "velocity": 0.8267716535433071
        },
        {
          "duration": 0.0666666666666913,
          "durationTicks": 80,
          "midi": 47,
          "name": "B2",
          "ticks": 232240,
          "time": 193.53333333333333,
          "velocity": 0.8267716535433071
        },
        {
          "duration": 0.3333333333333144,
          "durationTicks": 400,
          "midi": 48,
          "name": "C3",
          "ticks": 232320,
          "time": 193.60000000000002,
          "velocity": 0.8267716535433071
        },
        {
          "duration": 0.3333333333333428,
          "durationTicks": 400,
          "midi": 55,
          "name": "G3",
          "ticks": 238080,
          "time": 198.4,
          "velocity": 0.8267716535433071
        },
        {
          "duration": 0.0666666666666913,
          "durationTicks": 80,
          "midi": 50,
          "name": "D3",
          "ticks": 238800,
          "time": 199,
          "velocity": 0.8267716535433071
        },
        {
          "duration": 0.06666666666663446,
          "durationTicks": 80,
          "midi": 52,
          "name": "E3",
          "ticks": 238880,
          "time": 199.0666666666667,
          "velocity": 0.8267716535433071
        },
        {
          "duration": 0.0666666666666913,
          "durationTicks": 80,
          "midi": 54,
          "name": "F#3",
          "ticks": 238960,
          "time": 199.13333333333333,
          "velocity": 0.8267716535433071
        },
        {
          "duration": 0.3333333333333144,
          "durationTicks": 400,
          "midi": 55,
          "name": "G3",
          "ticks": 239040,
          "time": 199.20000000000002,
          "velocity": 0.8267716535433071
        },
        {
          "duration": 0.06666666666666288,
          "durationTicks": 80,
          "midi": 50,
          "name": "D3",
          "ticks": 239760,
          "time": 199.8,
          "velocity": 0.8267716535433071
        },
        {
          "duration": 0.06666666666666288,
          "durationTicks": 80,
          "midi": 52,
          "name": "E3",
          "ticks": 239840,
          "time": 199.86666666666667,
          "velocity": 0.8267716535433071
        },
        {
          "duration": 0.06666666666666288,
          "durationTicks": 80,
          "midi": 54,
          "name": "F#3",
          "ticks": 239920,
          "time": 199.93333333333334,
          "velocity": 0.8267716535433071
        },
        {
          "duration": 0.3333333333333428,
          "durationTicks": 400,
          "midi": 55,
          "name": "G3",
          "ticks": 240000,
          "time": 200,
          "velocity": 0.8267716535433071
        },
        {
          "duration": 0.3333333333333428,
          "durationTicks": 400,
          "midi": 55,
          "name": "G3",
          "ticks": 245760,
          "time": 204.8,
          "velocity": 0.8267716535433071
        },
        {
          "duration": 0.3333333333333428,
          "durationTicks": 400,
          "midi": 64,
          "name": "E4",
          "ticks": 245760,
          "time": 204.8,
          "velocity": 0.8267716535433071
        },
        {
          "duration": 0.29666666666665265,
          "durationTicks": 356,
          "midi": 55,
          "name": "G3",
          "ticks": 246240,
          "time": 205.20000000000002,
          "velocity": 0.8267716535433071
        },
        {
          "duration": 0.29666666666665265,
          "durationTicks": 356,
          "midi": 64,
          "name": "E4",
          "ticks": 246240,
          "time": 205.20000000000002,
          "velocity": 0.8267716535433071
        },
        {
          "duration": 0.09666666666669244,
          "durationTicks": 116,
          "midi": 55,
          "name": "G3",
          "ticks": 246600,
          "time": 205.5,
          "velocity": 0.8267716535433071
        },
        {
          "duration": 0.09666666666669244,
          "durationTicks": 116,
          "midi": 64,
          "name": "E4",
          "ticks": 246600,
          "time": 205.5,
          "velocity": 0.8267716535433071
        },
        {
          "duration": 0.3333333333333428,
          "durationTicks": 400,
          "midi": 55,
          "name": "G3",
          "ticks": 246720,
          "time": 205.60000000000002,
          "velocity": 0.8267716535433071
        },
        {
          "duration": 0.3333333333333428,
          "durationTicks": 400,
          "midi": 64,
          "name": "E4",
          "ticks": 246720,
          "time": 205.60000000000002,
          "velocity": 0.8267716535433071
        },
        {
          "duration": 0.33333333333337123,
          "durationTicks": 400,
          "midi": 55,
          "name": "G3",
          "ticks": 247200,
          "time": 206,
          "velocity": 0.8267716535433071
        },
        {
          "duration": 0.33333333333337123,
          "durationTicks": 400,
          "midi": 64,
          "name": "E4",
          "ticks": 247200,
          "time": 206,
          "velocity": 0.8267716535433071
        },
        {
          "duration": 0.3333333333333428,
          "durationTicks": 400,
          "midi": 57,
          "name": "A3",
          "ticks": 247680,
          "time": 206.4,
          "velocity": 0.8267716535433071
        },
        {
          "duration": 0.3333333333333428,
          "durationTicks": 400,
          "midi": 65,
          "name": "F4",
          "ticks": 247680,
          "time": 206.4,
          "velocity": 0.8267716535433071
        },
        {
          "duration": 0.29666666666668107,
          "durationTicks": 356,
          "midi": 57,
          "name": "A3",
          "ticks": 248160,
          "time": 206.8,
          "velocity": 0.8267716535433071
        },
        {
          "duration": 0.29666666666668107,
          "durationTicks": 356,
          "midi": 65,
          "name": "F4",
          "ticks": 248160,
          "time": 206.8,
          "velocity": 0.8267716535433071
        },
        {
          "duration": 0.09666666666666401,
          "durationTicks": 116,
          "midi": 57,
          "name": "A3",
          "ticks": 248520,
          "time": 207.10000000000002,
          "velocity": 0.8267716535433071
        },
        {
          "duration": 0.09666666666666401,
          "durationTicks": 116,
          "midi": 65,
          "name": "F4",
          "ticks": 248520,
          "time": 207.10000000000002,
          "velocity": 0.8267716535433071
        },
        {
          "duration": 0.3333333333333428,
          "durationTicks": 400,
          "midi": 57,
          "name": "A3",
          "ticks": 248640,
          "time": 207.20000000000002,
          "velocity": 0.8267716535433071
        },
        {
          "duration": 0.3333333333333428,
          "durationTicks": 400,
          "midi": 65,
          "name": "F4",
          "ticks": 248640,
          "time": 207.20000000000002,
          "velocity": 0.8267716535433071
        },
        {
          "duration": 0.3333333333333428,
          "durationTicks": 400,
          "midi": 57,
          "name": "A3",
          "ticks": 249120,
          "time": 207.60000000000002,
          "velocity": 0.8267716535433071
        },
        {
          "duration": 0.3333333333333428,
          "durationTicks": 400,
          "midi": 65,
          "name": "F4",
          "ticks": 249120,
          "time": 207.60000000000002,
          "velocity": 0.8267716535433071
        },
        {
          "duration": 0.33333333333337123,
          "durationTicks": 400,
          "midi": 59,
          "name": "B3",
          "ticks": 249600,
          "time": 208,
          "velocity": 0.8267716535433071
        },
        {
          "duration": 0.33333333333337123,
          "durationTicks": 400,
          "midi": 65,
          "name": "F4",
          "ticks": 249600,
          "time": 208,
          "velocity": 0.8267716535433071
        },
        {
          "duration": 0.29666666666668107,
          "durationTicks": 356,
          "midi": 59,
          "name": "B3",
          "ticks": 250080,
          "time": 208.4,
          "velocity": 0.8267716535433071
        },
        {
          "duration": 0.29666666666668107,
          "durationTicks": 356,
          "midi": 65,
          "name": "F4",
          "ticks": 250080,
          "time": 208.4,
          "velocity": 0.8267716535433071
        },
        {
          "duration": 0.09666666666666401,
          "durationTicks": 116,
          "midi": 59,
          "name": "B3",
          "ticks": 250440,
          "time": 208.70000000000002,
          "velocity": 0.8267716535433071
        },
        {
          "duration": 0.09666666666666401,
          "durationTicks": 116,
          "midi": 65,
          "name": "F4",
          "ticks": 250440,
          "time": 208.70000000000002,
          "velocity": 0.8267716535433071
        },
        {
          "duration": 0.3333333333333428,
          "durationTicks": 400,
          "midi": 59,
          "name": "B3",
          "ticks": 250560,
          "time": 208.8,
          "velocity": 0.8267716535433071
        },
        {
          "duration": 0.3333333333333428,
          "durationTicks": 400,
          "midi": 65,
          "name": "F4",
          "ticks": 250560,
          "time": 208.8,
          "velocity": 0.8267716535433071
        },
        {
          "duration": 0.3333333333333428,
          "durationTicks": 400,
          "midi": 59,
          "name": "B3",
          "ticks": 251040,
          "time": 209.20000000000002,
          "velocity": 0.8267716535433071
        },
        {
          "duration": 0.3333333333333428,
          "durationTicks": 400,
          "midi": 65,
          "name": "F4",
          "ticks": 251040,
          "time": 209.20000000000002,
          "velocity": 0.8267716535433071
        },
        {
          "duration": 0.3333333333333428,
          "durationTicks": 400,
          "midi": 60,
          "name": "C4",
          "ticks": 251520,
          "time": 209.60000000000002,
          "velocity": 0.8267716535433071
        },
        {
          "duration": 0.3333333333333428,
          "durationTicks": 400,
          "midi": 64,
          "name": "E4",
          "ticks": 251520,
          "time": 209.60000000000002,
          "velocity": 0.8267716535433071
        },
        {
          "duration": 0.29666666666668107,
          "durationTicks": 356,
          "midi": 55,
          "name": "G3",
          "ticks": 252000,
          "time": 210,
          "velocity": 0.8267716535433071
        },
        {
          "duration": 0.29666666666668107,
          "durationTicks": 356,
          "midi": 64,
          "name": "E4",
          "ticks": 252000,
          "time": 210,
          "velocity": 0.8267716535433071
        },
        {
          "duration": 0.09666666666666401,
          "durationTicks": 116,
          "midi": 55,
          "name": "G3",
          "ticks": 252360,
          "time": 210.3,
          "velocity": 0.8267716535433071
        },
        {
          "duration": 0.09666666666666401,
          "durationTicks": 116,
          "midi": 64,
          "name": "E4",
          "ticks": 252360,
          "time": 210.3,
          "velocity": 0.8267716535433071
        },
        {
          "duration": 0.3333333333333428,
          "durationTicks": 400,
          "midi": 55,
          "name": "G3",
          "ticks": 252480,
          "time": 210.4,
          "velocity": 0.8267716535433071
        },
        {
          "duration": 0.3333333333333428,
          "durationTicks": 400,
          "midi": 64,
          "name": "E4",
          "ticks": 252480,
          "time": 210.4,
          "velocity": 0.8267716535433071
        },
        {
          "duration": 0.3333333333333428,
          "durationTicks": 400,
          "midi": 55,
          "name": "G3",
          "ticks": 252960,
          "time": 210.8,
          "velocity": 0.8267716535433071
        },
        {
          "duration": 0.3333333333333428,
          "durationTicks": 400,
          "midi": 64,
          "name": "E4",
          "ticks": 252960,
          "time": 210.8,
          "velocity": 0.8267716535433071
        },
        {
          "duration": 0.3333333333333428,
          "durationTicks": 400,
          "midi": 57,
          "name": "A3",
          "ticks": 253440,
          "time": 211.20000000000002,
          "velocity": 0.8267716535433071
        },
        {
          "duration": 0.3333333333333428,
          "durationTicks": 400,
          "midi": 65,
          "name": "F4",
          "ticks": 253440,
          "time": 211.20000000000002,
          "velocity": 0.8267716535433071
        },
        {
          "duration": 0.29666666666665265,
          "durationTicks": 356,
          "midi": 57,
          "name": "A3",
          "ticks": 253920,
          "time": 211.60000000000002,
          "velocity": 0.8267716535433071
        },
        {
          "duration": 0.29666666666665265,
          "durationTicks": 356,
          "midi": 65,
          "name": "F4",
          "ticks": 253920,
          "time": 211.60000000000002,
          "velocity": 0.8267716535433071
        },
        {
          "duration": 0.09666666666666401,
          "durationTicks": 116,
          "midi": 57,
          "name": "A3",
          "ticks": 254280,
          "time": 211.9,
          "velocity": 0.8267716535433071
        },
        {
          "duration": 0.09666666666666401,
          "durationTicks": 116,
          "midi": 65,
          "name": "F4",
          "ticks": 254280,
          "time": 211.9,
          "velocity": 0.8267716535433071
        },
        {
          "duration": 0.33333333333337123,
          "durationTicks": 400,
          "midi": 57,
          "name": "A3",
          "ticks": 254400,
          "time": 212,
          "velocity": 0.8267716535433071
        },
        {
          "duration": 0.33333333333337123,
          "durationTicks": 400,
          "midi": 65,
          "name": "F4",
          "ticks": 254400,
          "time": 212,
          "velocity": 0.8267716535433071
        },
        {
          "duration": 0.3333333333333428,
          "durationTicks": 400,
          "midi": 57,
          "name": "A3",
          "ticks": 254880,
          "time": 212.4,
          "velocity": 0.8267716535433071
        },
        {
          "duration": 0.3333333333333428,
          "durationTicks": 400,
          "midi": 65,
          "name": "F4",
          "ticks": 254880,
          "time": 212.4,
          "velocity": 0.8267716535433071
        },
        {
          "duration": 0.3333333333333428,
          "durationTicks": 400,
          "midi": 59,
          "name": "B3",
          "ticks": 255360,
          "time": 212.8,
          "velocity": 0.8267716535433071
        },
        {
          "duration": 0.3333333333333428,
          "durationTicks": 400,
          "midi": 65,
          "name": "F4",
          "ticks": 255360,
          "time": 212.8,
          "velocity": 0.8267716535433071
        },
        {
          "duration": 0.29666666666665265,
          "durationTicks": 356,
          "midi": 59,
          "name": "B3",
          "ticks": 255840,
          "time": 213.20000000000002,
          "velocity": 0.8267716535433071
        },
        {
          "duration": 0.29666666666665265,
          "durationTicks": 356,
          "midi": 65,
          "name": "F4",
          "ticks": 255840,
          "time": 213.20000000000002,
          "velocity": 0.8267716535433071
        },
        {
          "duration": 0.09666666666669244,
          "durationTicks": 116,
          "midi": 59,
          "name": "B3",
          "ticks": 256200,
          "time": 213.5,
          "velocity": 0.8267716535433071
        },
        {
          "duration": 0.09666666666669244,
          "durationTicks": 116,
          "midi": 65,
          "name": "F4",
          "ticks": 256200,
          "time": 213.5,
          "velocity": 0.8267716535433071
        },
        {
          "duration": 0.3333333333333428,
          "durationTicks": 400,
          "midi": 59,
          "name": "B3",
          "ticks": 256320,
          "time": 213.60000000000002,
          "velocity": 0.8267716535433071
        },
        {
          "duration": 0.3333333333333428,
          "durationTicks": 400,
          "midi": 65,
          "name": "F4",
          "ticks": 256320,
          "time": 213.60000000000002,
          "velocity": 0.8267716535433071
        },
        {
          "duration": 0.33333333333337123,
          "durationTicks": 400,
          "midi": 59,
          "name": "B3",
          "ticks": 256800,
          "time": 214,
          "velocity": 0.8267716535433071
        },
        {
          "duration": 0.33333333333337123,
          "durationTicks": 400,
          "midi": 65,
          "name": "F4",
          "ticks": 256800,
          "time": 214,
          "velocity": 0.8267716535433071
        },
        {
          "duration": 0.3333333333333428,
          "durationTicks": 400,
          "midi": 60,
          "name": "C4",
          "ticks": 257280,
          "time": 214.4,
          "velocity": 0.8267716535433071
        },
        {
          "duration": 0.3333333333333428,
          "durationTicks": 400,
          "midi": 64,
          "name": "E4",
          "ticks": 257280,
          "time": 214.4,
          "velocity": 0.8267716535433071
        },
        {
          "duration": 0.3333333333333428,
          "durationTicks": 400,
          "midi": 59,
          "name": "B3",
          "ticks": 258240,
          "time": 215.20000000000002,
          "velocity": 0.8267716535433071
        },
        {
          "duration": 0.3333333333333428,
          "durationTicks": 400,
          "midi": 62,
          "name": "D4",
          "ticks": 258240,
          "time": 215.20000000000002,
          "velocity": 0.8267716535433071
        },
        {
          "duration": 0.33333333333337123,
          "durationTicks": 400,
          "midi": 60,
          "name": "C4",
          "ticks": 259200,
          "time": 216,
          "velocity": 0.8267716535433071
        },
        {
          "duration": 0.33333333333337123,
          "durationTicks": 400,
          "midi": 64,
          "name": "E4",
          "ticks": 259200,
          "time": 216,
          "velocity": 0.8267716535433071
        },
        {
          "duration": 0.3333333333333428,
          "durationTicks": 400,
          "midi": 59,
          "name": "B3",
          "ticks": 260160,
          "time": 216.8,
          "velocity": 0.8267716535433071
        },
        {
          "duration": 0.3333333333333428,
          "durationTicks": 400,
          "midi": 62,
          "name": "D4",
          "ticks": 260160,
          "time": 216.8,
          "velocity": 0.8267716535433071
        },
        {
          "duration": 0.3333333333333428,
          "durationTicks": 400,
          "midi": 60,
          "name": "C4",
          "ticks": 261120,
          "time": 217.60000000000002,
          "velocity": 0.8267716535433071
        },
        {
          "duration": 0.3333333333333428,
          "durationTicks": 400,
          "midi": 64,
          "name": "E4",
          "ticks": 261120,
          "time": 217.60000000000002,
          "velocity": 0.8267716535433071
        },
        {
          "duration": 0.19666666666668675,
          "durationTicks": 236,
          "midi": 55,
          "name": "G3",
          "ticks": 261600,
          "time": 218,
          "velocity": 0.8267716535433071
        },
        {
          "duration": 0.19666666666665833,
          "durationTicks": 236,
          "midi": 55,
          "name": "G3",
          "ticks": 261840,
          "time": 218.20000000000002,
          "velocity": 0.8267716535433071
        },
        {
          "duration": 0.19666666666668675,
          "durationTicks": 236,
          "midi": 60,
          "name": "C4",
          "ticks": 262080,
          "time": 218.4,
          "velocity": 0.8267716535433071
        },
        {
          "duration": 0.19666666666665833,
          "durationTicks": 236,
          "midi": 60,
          "name": "C4",
          "ticks": 262320,
          "time": 218.60000000000002,
          "velocity": 0.8267716535433071
        },
        {
          "duration": 0.19666666666665833,
          "durationTicks": 236,
          "midi": 55,
          "name": "G3",
          "ticks": 262560,
          "time": 218.8,
          "velocity": 0.8267716535433071
        },
        {
          "duration": 0.19666666666668675,
          "durationTicks": 236,
          "midi": 55,
          "name": "G3",
          "ticks": 262800,
          "time": 219,
          "velocity": 0.8267716535433071
        },
        {
          "duration": 0.19666666666665833,
          "durationTicks": 236,
          "midi": 60,
          "name": "C4",
          "ticks": 263040,
          "time": 219.20000000000002,
          "velocity": 0.8267716535433071
        },
        {
          "duration": 0.19666666666668675,
          "durationTicks": 236,
          "midi": 60,
          "name": "C4",
          "ticks": 263280,
          "time": 219.4,
          "velocity": 0.8267716535433071
        },
        {
          "duration": 0.19666666666665833,
          "durationTicks": 236,
          "midi": 55,
          "name": "G3",
          "ticks": 263520,
          "time": 219.60000000000002,
          "velocity": 0.8267716535433071
        },
        {
          "duration": 0.19666666666665833,
          "durationTicks": 236,
          "midi": 55,
          "name": "G3",
          "ticks": 263760,
          "time": 219.8,
          "velocity": 0.8267716535433071
        },
        {
          "duration": 0.19666666666668675,
          "durationTicks": 236,
          "midi": 52,
          "name": "E3",
          "ticks": 264000,
          "time": 220,
          "velocity": 0.8267716535433071
        },
        {
          "duration": 0.19666666666665833,
          "durationTicks": 236,
          "midi": 52,
          "name": "E3",
          "ticks": 264240,
          "time": 220.20000000000002,
          "velocity": 0.8267716535433071
        },
        {
          "duration": 0.19666666666668675,
          "durationTicks": 236,
          "midi": 48,
          "name": "C3",
          "ticks": 264480,
          "time": 220.4,
          "velocity": 0.8267716535433071
        },
        {
          "duration": 0.19666666666665833,
          "durationTicks": 236,
          "midi": 48,
          "name": "C3",
          "ticks": 264720,
          "time": 220.60000000000002,
          "velocity": 0.8267716535433071
        },
        {
          "duration": 0.3333333333333428,
          "durationTicks": 400,
          "midi": 52,
          "name": "E3",
          "ticks": 264960,
          "time": 220.8,
          "velocity": 0.8267716535433071
        },
        {
          "duration": 0.3333333333333428,
          "durationTicks": 400,
          "midi": 59,
          "name": "B3",
          "ticks": 265440,
          "time": 221.20000000000002,
          "velocity": 0.8267716535433071
        },
        {
          "duration": 0.3333333333333428,
          "durationTicks": 400,
          "midi": 62,
          "name": "D4",
          "ticks": 265440,
          "time": 221.20000000000002,
          "velocity": 0.8267716535433071
        },
        {
          "duration": 0.33333333333337123,
          "durationTicks": 400,
          "midi": 60,
          "name": "C4",
          "ticks": 266400,
          "time": 222,
          "velocity": 0.8267716535433071
        },
        {
          "duration": 0.33333333333337123,
          "durationTicks": 400,
          "midi": 64,
          "name": "E4",
          "ticks": 266400,
          "time": 222,
          "velocity": 0.8267716535433071
        },
        {
          "duration": 0.3333333333333428,
          "durationTicks": 400,
          "midi": 59,
          "name": "B3",
          "ticks": 267360,
          "time": 222.8,
          "velocity": 0.8267716535433071
        },
        {
          "duration": 0.3333333333333428,
          "durationTicks": 400,
          "midi": 62,
          "name": "D4",
          "ticks": 267360,
          "time": 222.8,
          "velocity": 0.8267716535433071
        },
        {
          "duration": 0.3333333333333428,
          "durationTicks": 400,
          "midi": 60,
          "name": "C4",
          "ticks": 268320,
          "time": 223.60000000000002,
          "velocity": 0.8267716535433071
        },
        {
          "duration": 0.3333333333333428,
          "durationTicks": 400,
          "midi": 64,
          "name": "E4",
          "ticks": 268320,
          "time": 223.60000000000002,
          "velocity": 0.8267716535433071
        },
        {
          "duration": 0.19666666666668675,
          "durationTicks": 236,
          "midi": 59,
          "name": "B3",
          "ticks": 268800,
          "time": 224,
          "velocity": 0.8267716535433071
        },
        {
          "duration": 0.19666666666668675,
          "durationTicks": 236,
          "midi": 62,
          "name": "D4",
          "ticks": 268800,
          "time": 224,
          "velocity": 0.8267716535433071
        },
        {
          "duration": 0.19666666666665833,
          "durationTicks": 236,
          "midi": 60,
          "name": "C4",
          "ticks": 269040,
          "time": 224.20000000000002,
          "velocity": 0.8346456692913385
        },
        {
          "duration": 0.19666666666665833,
          "durationTicks": 236,
          "midi": 64,
          "name": "E4",
          "ticks": 269040,
          "time": 224.20000000000002,
          "velocity": 0.8346456692913385
        },
        {
          "duration": 0.19666666666668675,
          "durationTicks": 236,
          "midi": 59,
          "name": "B3",
          "ticks": 269280,
          "time": 224.4,
          "velocity": 0.8503937007874016
        },
        {
          "duration": 0.19666666666668675,
          "durationTicks": 236,
          "midi": 62,
          "name": "D4",
          "ticks": 269280,
          "time": 224.4,
          "velocity": 0.8503937007874016
        },
        {
          "duration": 0.19666666666665833,
          "durationTicks": 236,
          "midi": 60,
          "name": "C4",
          "ticks": 269520,
          "time": 224.60000000000002,
          "velocity": 0.8582677165354331
        },
        {
          "duration": 0.19666666666665833,
          "durationTicks": 236,
          "midi": 64,
          "name": "E4",
          "ticks": 269520,
          "time": 224.60000000000002,
          "velocity": 0.8582677165354331
        },
        {
          "duration": 0.19666666666665833,
          "durationTicks": 236,
          "midi": 59,
          "name": "B3",
          "ticks": 269760,
          "time": 224.8,
          "velocity": 0.8661417322834646
        },
        {
          "duration": 0.19666666666665833,
          "durationTicks": 236,
          "midi": 62,
          "name": "D4",
          "ticks": 269760,
          "time": 224.8,
          "velocity": 0.8661417322834646
        },
        {
          "duration": 0.19666666666668675,
          "durationTicks": 236,
          "midi": 60,
          "name": "C4",
          "ticks": 270000,
          "time": 225,
          "velocity": 0.8740157480314961
        },
        {
          "duration": 0.19666666666668675,
          "durationTicks": 236,
          "midi": 64,
          "name": "E4",
          "ticks": 270000,
          "time": 225,
          "velocity": 0.8740157480314961
        },
        {
          "duration": 0.19666666666665833,
          "durationTicks": 236,
          "midi": 59,
          "name": "B3",
          "ticks": 270240,
          "time": 225.20000000000002,
          "velocity": 0.8818897637795275
        },
        {
          "duration": 0.19666666666665833,
          "durationTicks": 236,
          "midi": 62,
          "name": "D4",
          "ticks": 270240,
          "time": 225.20000000000002,
          "velocity": 0.8818897637795275
        },
        {
          "duration": 0.19666666666668675,
          "durationTicks": 236,
          "midi": 60,
          "name": "C4",
          "ticks": 270480,
          "time": 225.4,
          "velocity": 0.889763779527559
        },
        {
          "duration": 0.19666666666668675,
          "durationTicks": 236,
          "midi": 64,
          "name": "E4",
          "ticks": 270480,
          "time": 225.4,
          "velocity": 0.889763779527559
        },
        {
          "duration": 0.3333333333333428,
          "durationTicks": 400,
          "midi": 59,
          "name": "B3",
          "ticks": 270720,
          "time": 225.60000000000002,
          "velocity": 0.905511811023622
        },
        {
          "duration": 0.3333333333333428,
          "durationTicks": 400,
          "midi": 62,
          "name": "D4",
          "ticks": 270720,
          "time": 225.60000000000002,
          "velocity": 0.905511811023622
        },
        {
          "duration": 0.3333333333333428,
          "durationTicks": 400,
          "midi": 43,
          "name": "G2",
          "ticks": 271680,
          "time": 226.4,
          "velocity": 0.937007874015748
        },
        {
          "duration": 0.3333333333333428,
          "durationTicks": 400,
          "midi": 55,
          "name": "G3",
          "ticks": 271680,
          "time": 226.4,
          "velocity": 0.937007874015748
        },
        {
          "duration": 0.3333333333333428,
          "durationTicks": 400,
          "midi": 43,
          "name": "G2",
          "ticks": 272160,
          "time": 226.8,
          "velocity": 0.952755905511811
        },
        {
          "duration": 0.3333333333333428,
          "durationTicks": 400,
          "midi": 55,
          "name": "G3",
          "ticks": 272160,
          "time": 226.8,
          "velocity": 0.952755905511811
        },
        {
          "duration": 1.5,
          "durationTicks": 1800,
          "midi": 43,
          "name": "G2",
          "ticks": 272640,
          "time": 227.20000000000002,
          "velocity": 0.9763779527559056
        },
        {
          "duration": 1.5,
          "durationTicks": 1800,
          "midi": 55,
          "name": "G3",
          "ticks": 272640,
          "time": 227.20000000000002,
          "velocity": 0.9763779527559056
        },
        {
          "duration": 2.700000000000017,
          "durationTicks": 3240,
          "midi": 67,
          "name": "G4",
          "ticks": 278400,
          "time": 232,
          "velocity": 0.4015748031496063
        },
        {
          "duration": 0.4000000000000057,
          "durationTicks": 480,
          "midi": 43,
          "name": "G2",
          "ticks": 282240,
          "time": 235.20000000000002,
          "velocity": 0.4015748031496063
        },
        {
          "duration": 0.4000000000000057,
          "durationTicks": 480,
          "midi": 55,
          "name": "G3",
          "ticks": 282240,
          "time": 235.20000000000002,
          "velocity": 0.4015748031496063
        },
        {
          "duration": 0.39999999999997726,
          "durationTicks": 480,
          "midi": 47,
          "name": "B2",
          "ticks": 282720,
          "time": 235.60000000000002,
          "velocity": 0.4015748031496063
        },
        {
          "duration": 0.39999999999997726,
          "durationTicks": 480,
          "midi": 59,
          "name": "B3",
          "ticks": 282720,
          "time": 235.60000000000002,
          "velocity": 0.4015748031496063
        },
        {
          "duration": 0.4000000000000057,
          "durationTicks": 480,
          "midi": 50,
          "name": "D3",
          "ticks": 283200,
          "time": 236,
          "velocity": 0.4015748031496063
        },
        {
          "duration": 0.4000000000000057,
          "durationTicks": 480,
          "midi": 62,
          "name": "D4",
          "ticks": 283200,
          "time": 236,
          "velocity": 0.4015748031496063
        },
        {
          "duration": 0.3333333333333428,
          "durationTicks": 400,
          "midi": 47,
          "name": "B2",
          "ticks": 283680,
          "time": 236.4,
          "velocity": 0.4015748031496063
        },
        {
          "duration": 0.3333333333333428,
          "durationTicks": 400,
          "midi": 59,
          "name": "B3",
          "ticks": 283680,
          "time": 236.4,
          "velocity": 0.4015748031496063
        },
        {
          "duration": 0.3333333333333428,
          "durationTicks": 400,
          "midi": 43,
          "name": "G2",
          "ticks": 284160,
          "time": 236.8,
          "velocity": 0.4015748031496063
        },
        {
          "duration": 0.3333333333333428,
          "durationTicks": 400,
          "midi": 55,
          "name": "G3",
          "ticks": 284160,
          "time": 236.8,
          "velocity": 0.4015748031496063
        },
        {
          "duration": 0.8000000000000114,
          "durationTicks": 960,
          "midi": 64,
          "name": "E4",
          "ticks": 286080,
          "time": 238.4,
          "velocity": 0.4015748031496063
        },
        {
          "duration": 0.6999999999999886,
          "durationTicks": 840,
          "midi": 65,
          "name": "F4",
          "ticks": 287040,
          "time": 239.20000000000002,
          "velocity": 0.4015748031496063
        },
        {
          "duration": 0.10000000000002274,
          "durationTicks": 120,
          "midi": 61,
          "name": "C#4",
          "ticks": 288000,
          "time": 240,
          "velocity": 0.4015748031496063
        },
        {
          "duration": 0.09999999999999432,
          "durationTicks": 120,
          "midi": 61,
          "name": "C#4",
          "ticks": 288480,
          "time": 240.4,
          "velocity": 0.4015748031496063
        },
        {
          "duration": 0.09999999999999432,
          "durationTicks": 120,
          "midi": 61,
          "name": "C#4",
          "ticks": 288960,
          "time": 240.8,
          "velocity": 0.4015748031496063
        },
        {
          "duration": 0.09999999999999432,
          "durationTicks": 120,
          "midi": 60,
          "name": "C4",
          "ticks": 289920,
          "time": 241.60000000000002,
          "velocity": 0.4015748031496063
        },
        {
          "duration": 0.10000000000002274,
          "durationTicks": 120,
          "midi": 60,
          "name": "C4",
          "ticks": 290400,
          "time": 242,
          "velocity": 0.4015748031496063
        },
        {
          "duration": 0.09999999999999432,
          "durationTicks": 120,
          "midi": 60,
          "name": "C4",
          "ticks": 290880,
          "time": 242.4,
          "velocity": 0.4015748031496063
        },
        {
          "duration": 0.09999999999999432,
          "durationTicks": 120,
          "midi": 59,
          "name": "B3",
          "ticks": 291840,
          "time": 243.20000000000002,
          "velocity": 0.4015748031496063
        },
        {
          "duration": 0.09999999999999432,
          "durationTicks": 120,
          "midi": 59,
          "name": "B3",
          "ticks": 292320,
          "time": 243.60000000000002,
          "velocity": 0.4015748031496063
        },
        {
          "duration": 0.10000000000002274,
          "durationTicks": 120,
          "midi": 59,
          "name": "B3",
          "ticks": 292800,
          "time": 244,
          "velocity": 0.4015748031496063
        },
        {
          "duration": 0.09999999999999432,
          "durationTicks": 120,
          "midi": 58,
          "name": "A#3",
          "ticks": 293760,
          "time": 244.8,
          "velocity": 0.4015748031496063
        },
        {
          "duration": 0.09999999999999432,
          "durationTicks": 120,
          "midi": 58,
          "name": "A#3",
          "ticks": 294240,
          "time": 245.20000000000002,
          "velocity": 0.4015748031496063
        },
        {
          "duration": 0.09999999999999432,
          "durationTicks": 120,
          "midi": 58,
          "name": "A#3",
          "ticks": 294720,
          "time": 245.60000000000002,
          "velocity": 0.4015748031496063
        },
        {
          "duration": 0.39999999999997726,
          "durationTicks": 480,
          "midi": 43,
          "name": "G2",
          "ticks": 299520,
          "time": 249.60000000000002,
          "velocity": 0.8267716535433071
        },
        {
          "duration": 0.39999999999997726,
          "durationTicks": 480,
          "midi": 55,
          "name": "G3",
          "ticks": 299520,
          "time": 249.60000000000002,
          "velocity": 0.8267716535433071
        },
        {
          "duration": 0.4000000000000057,
          "durationTicks": 480,
          "midi": 47,
          "name": "B2",
          "ticks": 300000,
          "time": 250,
          "velocity": 0.8267716535433071
        },
        {
          "duration": 0.4000000000000057,
          "durationTicks": 480,
          "midi": 59,
          "name": "B3",
          "ticks": 300000,
          "time": 250,
          "velocity": 0.8267716535433071
        },
        {
          "duration": 0.4000000000000057,
          "durationTicks": 480,
          "midi": 50,
          "name": "D3",
          "ticks": 300480,
          "time": 250.4,
          "velocity": 0.8267716535433071
        },
        {
          "duration": 0.4000000000000057,
          "durationTicks": 480,
          "midi": 62,
          "name": "D4",
          "ticks": 300480,
          "time": 250.4,
          "velocity": 0.8267716535433071
        },
        {
          "duration": 0.3333333333333428,
          "durationTicks": 400,
          "midi": 47,
          "name": "B2",
          "ticks": 300960,
          "time": 250.8,
          "velocity": 0.8267716535433071
        },
        {
          "duration": 0.3333333333333428,
          "durationTicks": 400,
          "midi": 59,
          "name": "B3",
          "ticks": 300960,
          "time": 250.8,
          "velocity": 0.8267716535433071
        },
        {
          "duration": 0.3333333333333428,
          "durationTicks": 400,
          "midi": 43,
          "name": "G2",
          "ticks": 301440,
          "time": 251.20000000000002,
          "velocity": 0.8267716535433071
        },
        {
          "duration": 0.3333333333333428,
          "durationTicks": 400,
          "midi": 55,
          "name": "G3",
          "ticks": 301440,
          "time": 251.20000000000002,
          "velocity": 0.8267716535433071
        },
        {
          "duration": 0.06666666666663446,
          "durationTicks": 80,
          "midi": 59,
          "name": "B3",
          "ticks": 303120,
          "time": 252.60000000000002,
          "velocity": 0.8267716535433071
        },
        {
          "duration": 0.5999999999999943,
          "durationTicks": 720,
          "midi": 60,
          "name": "C4",
          "ticks": 303360,
          "time": 252.8,
          "velocity": 0.8267716535433071
        },
        {
          "duration": 0.19666666666668675,
          "durationTicks": 236,
          "midi": 59,
          "name": "B3",
          "ticks": 304080,
          "time": 253.4,
          "velocity": 0.8267716535433071
        },
        {
          "duration": 0.5999999999999943,
          "durationTicks": 720,
          "midi": 62,
          "name": "D4",
          "ticks": 304320,
          "time": 253.60000000000002,
          "velocity": 0.8267716535433071
        },
        {
          "duration": 0.19666666666665833,
          "durationTicks": 236,
          "midi": 60,
          "name": "C4",
          "ticks": 305040,
          "time": 254.20000000000002,
          "velocity": 0.8267716535433071
        },
        {
          "duration": 0.8000000000000114,
          "durationTicks": 960,
          "midi": 64,
          "name": "E4",
          "ticks": 305280,
          "time": 254.4,
          "velocity": 0.8267716535433071
        },
        {
          "duration": 0.3333333333333428,
          "durationTicks": 400,
          "midi": 62,
          "name": "D4",
          "ticks": 306240,
          "time": 255.20000000000002,
          "velocity": 0.8267716535433071
        },
        {
          "duration": 0.06666666666666288,
          "durationTicks": 80,
          "midi": 59,
          "name": "B3",
          "ticks": 306960,
          "time": 255.8,
          "velocity": 0.8267716535433071
        },
        {
          "duration": 0.6000000000000227,
          "durationTicks": 720,
          "midi": 62,
          "name": "D4",
          "ticks": 307200,
          "time": 256,
          "velocity": 0.8267716535433071
        },
        {
          "duration": 0.19666666666665833,
          "durationTicks": 236,
          "midi": 60,
          "name": "C4",
          "ticks": 307920,
          "time": 256.6,
          "velocity": 0.8267716535433071
        },
        {
          "duration": 0.6000000000000227,
          "durationTicks": 720,
          "midi": 64,
          "name": "E4",
          "ticks": 308160,
          "time": 256.8,
          "velocity": 0.8267716535433071
        },
        {
          "duration": 0.19666666666665833,
          "durationTicks": 236,
          "midi": 62,
          "name": "D4",
          "ticks": 308880,
          "time": 257.40000000000003,
          "velocity": 0.8267716535433071
        },
        {
          "duration": 0.8000000000000114,
          "durationTicks": 960,
          "midi": 65,
          "name": "F4",
          "ticks": 309120,
          "time": 257.6,
          "velocity": 0.8267716535433071
        },
        {
          "duration": 0.3333333333333144,
          "durationTicks": 400,
          "midi": 64,
          "name": "E4",
          "ticks": 310080,
          "time": 258.40000000000003,
          "velocity": 0.8267716535433071
        },
        {
          "duration": 0.06666666666666288,
          "durationTicks": 80,
          "midi": 61,
          "name": "C#4",
          "ticks": 310800,
          "time": 259,
          "velocity": 0.8267716535433071
        },
        {
          "duration": 0.6000000000000227,
          "durationTicks": 720,
          "midi": 64,
          "name": "E4",
          "ticks": 311040,
          "time": 259.2,
          "velocity": 0.8267716535433071
        },
        {
          "duration": 0.19666666666665833,
          "durationTicks": 236,
          "midi": 62,
          "name": "D4",
          "ticks": 311760,
          "time": 259.8,
          "velocity": 0.8267716535433071
        },
        {
          "duration": 0.6000000000000227,
          "durationTicks": 720,
          "midi": 65,
          "name": "F4",
          "ticks": 312000,
          "time": 260,
          "velocity": 0.8267716535433071
        },
        {
          "duration": 0.19666666666665833,
          "durationTicks": 236,
          "midi": 64,
          "name": "E4",
          "ticks": 312720,
          "time": 260.6,
          "velocity": 0.8267716535433071
        },
        {
          "duration": 0.8000000000000114,
          "durationTicks": 960,
          "midi": 67,
          "name": "G4",
          "ticks": 312960,
          "time": 260.8,
          "velocity": 0.8267716535433071
        },
        {
          "duration": 0.3333333333333144,
          "durationTicks": 400,
          "midi": 65,
          "name": "F4",
          "ticks": 313920,
          "time": 261.6,
          "velocity": 0.8267716535433071
        },
        {
          "duration": 0.06666666666666288,
          "durationTicks": 80,
          "midi": 63,
          "name": "D#4",
          "ticks": 314640,
          "time": 262.2,
          "velocity": 0.8267716535433071
        },
        {
          "duration": 0.7999999999999545,
          "durationTicks": 960,
          "midi": 65,
          "name": "F4",
          "ticks": 314880,
          "time": 262.40000000000003,
          "velocity": 0.8267716535433071
        },
        {
          "duration": 0.33333333333337123,
          "durationTicks": 400,
          "midi": 64,
          "name": "E4",
          "ticks": 315840,
          "time": 263.2,
          "velocity": 0.8267716535433071
        },
        {
          "duration": 0.06666666666666288,
          "durationTicks": 80,
          "midi": 60,
          "name": "C4",
          "ticks": 316560,
          "time": 263.8,
          "velocity": 0.8267716535433071
        },
        {
          "duration": 0.8000000000000114,
          "durationTicks": 960,
          "midi": 64,
          "name": "E4",
          "ticks": 316800,
          "time": 264,
          "velocity": 0.8267716535433071
        },
        {
          "duration": 0.33333333333337123,
          "durationTicks": 400,
          "midi": 62,
          "name": "D4",
          "ticks": 317760,
          "time": 264.8,
          "velocity": 0.8267716535433071
        },
        {
          "duration": 0.06666666666660603,
          "durationTicks": 80,
          "midi": 55,
          "name": "G3",
          "ticks": 318480,
          "time": 265.40000000000003,
          "velocity": 0.8267716535433071
        },
        {
          "duration": 0.19666666666665833,
          "durationTicks": 236,
          "midi": 60,
          "name": "C4",
          "ticks": 318720,
          "time": 265.6,
          "velocity": 0.8267716535433071
        },
        {
          "duration": 0.19666666666665833,
          "durationTicks": 236,
          "midi": 60,
          "name": "C4",
          "ticks": 318960,
          "time": 265.8,
          "velocity": 0.8267716535433071
        },
        {
          "duration": 0.19666666666665833,
          "durationTicks": 236,
          "midi": 59,
          "name": "B3",
          "ticks": 319200,
          "time": 266,
          "velocity": 0.8267716535433071
        },
        {
          "duration": 0.19666666666671517,
          "durationTicks": 236,
          "midi": 59,
          "name": "B3",
          "ticks": 319440,
          "time": 266.2,
          "velocity": 0.8267716535433071
        },
        {
          "duration": 0.19666666666665833,
          "durationTicks": 236,
          "midi": 60,
          "name": "C4",
          "ticks": 319680,
          "time": 266.40000000000003,
          "velocity": 0.8267716535433071
        },
        {
          "duration": 0.19666666666665833,
          "durationTicks": 236,
          "midi": 60,
          "name": "C4",
          "ticks": 319920,
          "time": 266.6,
          "velocity": 0.8267716535433071
        },
        {
          "duration": 0.19666666666665833,
          "durationTicks": 236,
          "midi": 59,
          "name": "B3",
          "ticks": 320160,
          "time": 266.8,
          "velocity": 0.8267716535433071
        },
        {
          "duration": 0.19666666666665833,
          "durationTicks": 236,
          "midi": 59,
          "name": "B3",
          "ticks": 320400,
          "time": 267,
          "velocity": 0.8267716535433071
        },
        {
          "duration": 1.1000000000000227,
          "durationTicks": 1320,
          "midi": 60,
          "name": "C4",
          "ticks": 320640,
          "time": 267.2,
          "velocity": 0.8267716535433071
        },
        {
          "duration": 0.3333333333333144,
          "durationTicks": 400,
          "midi": 61,
          "name": "C#4",
          "ticks": 322080,
          "time": 268.40000000000003,
          "velocity": 0.8267716535433071
        },
        {
          "duration": 0.33333333333337123,
          "durationTicks": 400,
          "midi": 62,
          "name": "D4",
          "ticks": 322560,
          "time": 268.8,
          "velocity": 0.8267716535433071
        },
        {
          "duration": 0.29666666666668107,
          "durationTicks": 356,
          "midi": 54,
          "name": "F#3",
          "ticks": 323040,
          "time": 269.2,
          "velocity": 0.8267716535433071
        },
        {
          "duration": 0.29666666666668107,
          "durationTicks": 356,
          "midi": 57,
          "name": "A3",
          "ticks": 323040,
          "time": 269.2,
          "velocity": 0.8267716535433071
        },
        {
          "duration": 0.09666666666669244,
          "durationTicks": 116,
          "midi": 54,
          "name": "F#3",
          "ticks": 323400,
          "time": 269.5,
          "velocity": 0.8267716535433071
        },
        {
          "duration": 0.09666666666669244,
          "durationTicks": 116,
          "midi": 57,
          "name": "A3",
          "ticks": 323400,
          "time": 269.5,
          "velocity": 0.8267716535433071
        },
        {
          "duration": 0.3333333333333144,
          "durationTicks": 400,
          "midi": 54,
          "name": "F#3",
          "ticks": 323520,
          "time": 269.6,
          "velocity": 0.8267716535433071
        },
        {
          "duration": 0.3333333333333144,
          "durationTicks": 400,
          "midi": 57,
          "name": "A3",
          "ticks": 323520,
          "time": 269.6,
          "velocity": 0.8267716535433071
        },
        {
          "duration": 0.33333333333337123,
          "durationTicks": 400,
          "midi": 54,
          "name": "F#3",
          "ticks": 324000,
          "time": 270,
          "velocity": 0.8267716535433071
        },
        {
          "duration": 0.33333333333337123,
          "durationTicks": 400,
          "midi": 57,
          "name": "A3",
          "ticks": 324000,
          "time": 270,
          "velocity": 0.8267716535433071
        },
        {
          "duration": 0.3333333333333144,
          "durationTicks": 400,
          "midi": 55,
          "name": "G3",
          "ticks": 324480,
          "time": 270.40000000000003,
          "velocity": 0.8267716535433071
        },
        {
          "duration": 0.3333333333333144,
          "durationTicks": 400,
          "midi": 59,
          "name": "B3",
          "ticks": 324480,
          "time": 270.40000000000003,
          "velocity": 0.8267716535433071
        },
        {
          "duration": 0.29666666666668107,
          "durationTicks": 356,
          "midi": 55,
          "name": "G3",
          "ticks": 324960,
          "time": 270.8,
          "velocity": 0.8267716535433071
        },
        {
          "duration": 0.29666666666668107,
          "durationTicks": 356,
          "midi": 59,
          "name": "B3",
          "ticks": 324960,
          "time": 270.8,
          "velocity": 0.8267716535433071
        },
        {
          "duration": 0.09666666666663559,
          "durationTicks": 116,
          "midi": 55,
          "name": "G3",
          "ticks": 325320,
          "time": 271.1,
          "velocity": 0.8267716535433071
        },
        {
          "duration": 0.09666666666663559,
          "durationTicks": 116,
          "midi": 59,
          "name": "B3",
          "ticks": 325320,
          "time": 271.1,
          "velocity": 0.8267716535433071
        },
        {
          "duration": 0.33333333333337123,
          "durationTicks": 400,
          "midi": 55,
          "name": "G3",
          "ticks": 325440,
          "time": 271.2,
          "velocity": 0.8267716535433071
        },
        {
          "duration": 0.33333333333337123,
          "durationTicks": 400,
          "midi": 59,
          "name": "B3",
          "ticks": 325440,
          "time": 271.2,
          "velocity": 0.8267716535433071
        },
        {
          "duration": 0.3333333333333144,
          "durationTicks": 400,
          "midi": 55,
          "name": "G3",
          "ticks": 325920,
          "time": 271.6,
          "velocity": 0.8267716535433071
        },
        {
          "duration": 0.3333333333333144,
          "durationTicks": 400,
          "midi": 59,
          "name": "B3",
          "ticks": 325920,
          "time": 271.6,
          "velocity": 0.8267716535433071
        },
        {
          "duration": 0.33333333333337123,
          "durationTicks": 400,
          "midi": 54,
          "name": "F#3",
          "ticks": 326400,
          "time": 272,
          "velocity": 0.8267716535433071
        },
        {
          "duration": 0.33333333333337123,
          "durationTicks": 400,
          "midi": 57,
          "name": "A3",
          "ticks": 326400,
          "time": 272,
          "velocity": 0.8267716535433071
        },
        {
          "duration": 0.2966666666666242,
          "durationTicks": 356,
          "midi": 54,
          "name": "F#3",
          "ticks": 326880,
          "time": 272.40000000000003,
          "velocity": 0.8267716535433071
        },
        {
          "duration": 0.2966666666666242,
          "durationTicks": 356,
          "midi": 57,
          "name": "A3",
          "ticks": 326880,
          "time": 272.40000000000003,
          "velocity": 0.8267716535433071
        },
        {
          "duration": 0.09666666666669244,
          "durationTicks": 116,
          "midi": 54,
          "name": "F#3",
          "ticks": 327240,
          "time": 272.7,
          "velocity": 0.8267716535433071
        },
        {
          "duration": 0.09666666666669244,
          "durationTicks": 116,
          "midi": 57,
          "name": "A3",
          "ticks": 327240,
          "time": 272.7,
          "velocity": 0.8267716535433071
        },
        {
          "duration": 0.33333333333337123,
          "durationTicks": 400,
          "midi": 54,
          "name": "F#3",
          "ticks": 327360,
          "time": 272.8,
          "velocity": 0.8267716535433071
        },
        {
          "duration": 0.33333333333337123,
          "durationTicks": 400,
          "midi": 57,
          "name": "A3",
          "ticks": 327360,
          "time": 272.8,
          "velocity": 0.8267716535433071
        },
        {
          "duration": 0.33333333333337123,
          "durationTicks": 400,
          "midi": 54,
          "name": "F#3",
          "ticks": 327840,
          "time": 273.2,
          "velocity": 0.8267716535433071
        },
        {
          "duration": 0.33333333333337123,
          "durationTicks": 400,
          "midi": 57,
          "name": "A3",
          "ticks": 327840,
          "time": 273.2,
          "velocity": 0.8267716535433071
        },
        {
          "duration": 0.3333333333333144,
          "durationTicks": 400,
          "midi": 55,
          "name": "G3",
          "ticks": 328320,
          "time": 273.6,
          "velocity": 0.8267716535433071
        },
        {
          "duration": 0.3333333333333144,
          "durationTicks": 400,
          "midi": 59,
          "name": "B3",
          "ticks": 328320,
          "time": 273.6,
          "velocity": 0.8267716535433071
        },
        {
          "duration": 0.29666666666668107,
          "durationTicks": 356,
          "midi": 55,
          "name": "G3",
          "ticks": 328800,
          "time": 274,
          "velocity": 0.8267716535433071
        },
        {
          "duration": 0.29666666666668107,
          "durationTicks": 356,
          "midi": 59,
          "name": "B3",
          "ticks": 328800,
          "time": 274,
          "velocity": 0.8267716535433071
        },
        {
          "duration": 0.09666666666669244,
          "durationTicks": 116,
          "midi": 55,
          "name": "G3",
          "ticks": 329160,
          "time": 274.3,
          "velocity": 0.8267716535433071
        },
        {
          "duration": 0.09666666666669244,
          "durationTicks": 116,
          "midi": 59,
          "name": "B3",
          "ticks": 329160,
          "time": 274.3,
          "velocity": 0.8267716535433071
        },
        {
          "duration": 0.3333333333333144,
          "durationTicks": 400,
          "midi": 55,
          "name": "G3",
          "ticks": 329280,
          "time": 274.40000000000003,
          "velocity": 0.8267716535433071
        },
        {
          "duration": 0.3333333333333144,
          "durationTicks": 400,
          "midi": 59,
          "name": "B3",
          "ticks": 329280,
          "time": 274.40000000000003,
          "velocity": 0.8267716535433071
        },
        {
          "duration": 0.33333333333337123,
          "durationTicks": 400,
          "midi": 55,
          "name": "G3",
          "ticks": 329760,
          "time": 274.8,
          "velocity": 0.8267716535433071
        },
        {
          "duration": 0.33333333333337123,
          "durationTicks": 400,
          "midi": 59,
          "name": "B3",
          "ticks": 329760,
          "time": 274.8,
          "velocity": 0.8267716535433071
        },
        {
          "duration": 0.33333333333337123,
          "durationTicks": 400,
          "midi": 54,
          "name": "F#3",
          "ticks": 330240,
          "time": 275.2,
          "velocity": 0.8267716535433071
        },
        {
          "duration": 0.33333333333337123,
          "durationTicks": 400,
          "midi": 57,
          "name": "A3",
          "ticks": 330240,
          "time": 275.2,
          "velocity": 0.8267716535433071
        },
        {
          "duration": 0.3333333333333144,
          "durationTicks": 400,
          "midi": 54,
          "name": "F#3",
          "ticks": 330720,
          "time": 275.6,
          "velocity": 0.8267716535433071
        },
        {
          "duration": 0.3333333333333144,
          "durationTicks": 400,
          "midi": 57,
          "name": "A3",
          "ticks": 330720,
          "time": 275.6,
          "velocity": 0.8267716535433071
        },
        {
          "duration": 0.3333333333333144,
          "durationTicks": 400,
          "midi": 55,
          "name": "G3",
          "ticks": 331680,
          "time": 276.40000000000003,
          "velocity": 0.8267716535433071
        },
        {
          "duration": 0.3333333333333144,
          "durationTicks": 400,
          "midi": 59,
          "name": "B3",
          "ticks": 331680,
          "time": 276.40000000000003,
          "velocity": 0.8267716535433071
        },
        {
          "duration": 0.33333333333337123,
          "durationTicks": 400,
          "midi": 54,
          "name": "F#3",
          "ticks": 332640,
          "time": 277.2,
          "velocity": 0.8267716535433071
        },
        {
          "duration": 0.33333333333337123,
          "durationTicks": 400,
          "midi": 57,
          "name": "A3",
          "ticks": 332640,
          "time": 277.2,
          "velocity": 0.8267716535433071
        },
        {
          "duration": 0.33333333333337123,
          "durationTicks": 400,
          "midi": 55,
          "name": "G3",
          "ticks": 333600,
          "time": 278,
          "velocity": 0.8267716535433071
        },
        {
          "duration": 0.33333333333337123,
          "durationTicks": 400,
          "midi": 59,
          "name": "B3",
          "ticks": 333600,
          "time": 278,
          "velocity": 0.8267716535433071
        },
        {
          "duration": 0.3333333333333144,
          "durationTicks": 400,
          "midi": 54,
          "name": "F#3",
          "ticks": 334080,
          "time": 278.40000000000003,
          "velocity": 0.8267716535433071
        },
        {
          "duration": 0.3333333333333144,
          "durationTicks": 400,
          "midi": 57,
          "name": "A3",
          "ticks": 334080,
          "time": 278.40000000000003,
          "velocity": 0.8267716535433071
        },
        {
          "duration": 1.1999999999999886,
          "durationTicks": 1440,
          "midi": 55,
          "name": "G3",
          "ticks": 347520,
          "time": 289.6,
          "velocity": 0.4015748031496063
        },
        {
          "duration": 0.39999999999997726,
          "durationTicks": 480,
          "midi": 56,
          "name": "G#3",
          "ticks": 348960,
          "time": 290.8,
          "velocity": 0.4015748031496063
        },
        {
          "duration": 0.33333333333337123,
          "durationTicks": 400,
          "midi": 57,
          "name": "A3",
          "ticks": 349440,
          "time": 291.2,
          "velocity": 0.4015748031496063
        },
        {
          "duration": 0.30000000000001137,
          "durationTicks": 360,
          "midi": 60,
          "name": "C4",
          "ticks": 351840,
          "time": 293.2,
          "velocity": 0.4015748031496063
        },
        {
          "duration": 0.10000000000002274,
          "durationTicks": 120,
          "midi": 57,
          "name": "A3",
          "ticks": 352200,
          "time": 293.5,
          "velocity": 0.4015748031496063
        },
        {
          "duration": 0.19666666666665833,
          "durationTicks": 236,
          "midi": 66,
          "name": "F#4",
          "ticks": 352320,
          "time": 293.6,
          "velocity": 0.4015748031496063
        },
        {
          "duration": 0.06666666666666288,
          "durationTicks": 80,
          "midi": 66,
          "name": "F#4",
          "ticks": 352800,
          "time": 294,
          "velocity": 0.4015748031496063
        },
        {
          "duration": 0.5999999999999659,
          "durationTicks": 720,
          "midi": 67,
          "name": "G4",
          "ticks": 353280,
          "time": 294.40000000000003,
          "velocity": 0.4015748031496063
        },
        {
          "duration": 0.10000000000002274,
          "durationTicks": 120,
          "midi": 66,
          "name": "F#4",
          "ticks": 354000,
          "time": 295,
          "velocity": 0.4015748031496063
        },
        {
          "duration": 0.0999999999999659,
          "durationTicks": 120,
          "midi": 64,
          "name": "E4",
          "ticks": 354120,
          "time": 295.1,
          "velocity": 0.4015748031496063
        },
        {
          "duration": 0.19666666666671517,
          "durationTicks": 236,
          "midi": 62,
          "name": "D4",
          "ticks": 354240,
          "time": 295.2,
          "velocity": 0.4015748031496063
        },
        {
          "duration": 0.30000000000001137,
          "durationTicks": 360,
          "midi": 62,
          "name": "D4",
          "ticks": 354720,
          "time": 295.6,
          "velocity": 0.4015748031496063
        },
        {
          "duration": 0.09666666666663559,
          "durationTicks": 116,
          "midi": 64,
          "name": "E4",
          "ticks": 355080,
          "time": 295.90000000000003,
          "velocity": 0.4015748031496063
        },
        {
          "duration": 0.06666666666666288,
          "durationTicks": 80,
          "midi": 60,
          "name": "C4",
          "ticks": 355200,
          "time": 296,
          "velocity": 0.4015748031496063
        },
        {
          "duration": 0.2999999999999545,
          "durationTicks": 360,
          "midi": 60,
          "name": "C4",
          "ticks": 355680,
          "time": 296.40000000000003,
          "velocity": 0.4015748031496063
        },
        {
          "duration": 0.09666666666669244,
          "durationTicks": 116,
          "midi": 62,
          "name": "D4",
          "ticks": 356040,
          "time": 296.7,
          "velocity": 0.4015748031496063
        },
        {
          "duration": 0.06666666666666288,
          "durationTicks": 80,
          "midi": 59,
          "name": "B3",
          "ticks": 356160,
          "time": 296.8,
          "velocity": 0.4015748031496063
        },
        {
          "duration": 0.30000000000001137,
          "durationTicks": 360,
          "midi": 59,
          "name": "B3",
          "ticks": 356640,
          "time": 297.2,
          "velocity": 0.4015748031496063
        },
        {
          "duration": 0.09666666666669244,
          "durationTicks": 116,
          "midi": 60,
          "name": "C4",
          "ticks": 357000,
          "time": 297.5,
          "velocity": 0.4015748031496063
        },
        {
          "duration": 0.0999999999999659,
          "durationTicks": 120,
          "midi": 57,
          "name": "A3",
          "ticks": 357120,
          "time": 297.6,
          "velocity": 0.4015748031496063
        },
        {
          "duration": 0.10000000000002274,
          "durationTicks": 120,
          "midi": 57,
          "name": "A3",
          "ticks": 357600,
          "time": 298,
          "velocity": 0.4015748031496063
        },
        {
          "duration": 0.0999999999999659,
          "durationTicks": 120,
          "midi": 57,
          "name": "A3",
          "ticks": 358080,
          "time": 298.40000000000003,
          "velocity": 0.4015748031496063
        },
        {
          "duration": 0.30000000000001137,
          "durationTicks": 360,
          "midi": 59,
          "name": "B3",
          "ticks": 358560,
          "time": 298.8,
          "velocity": 0.4015748031496063
        },
        {
          "duration": 0.09666666666663559,
          "durationTicks": 116,
          "midi": 60,
          "name": "C4",
          "ticks": 358920,
          "time": 299.1,
          "velocity": 0.4015748031496063
        },
        {
          "duration": 0.06666666666666288,
          "durationTicks": 80,
          "midi": 62,
          "name": "D4",
          "ticks": 359040,
          "time": 299.2,
          "velocity": 0.4015748031496063
        },
        {
          "duration": 0.30000000000001137,
          "durationTicks": 360,
          "midi": 62,
          "name": "D4",
          "ticks": 359520,
          "time": 299.6,
          "velocity": 0.4015748031496063
        },
        {
          "duration": 0.09666666666663559,
          "durationTicks": 116,
          "midi": 64,
          "name": "E4",
          "ticks": 359880,
          "time": 299.90000000000003,
          "velocity": 0.4015748031496063
        },
        {
          "duration": 0.06666666666666288,
          "durationTicks": 80,
          "midi": 60,
          "name": "C4",
          "ticks": 360000,
          "time": 300,
          "velocity": 0.4015748031496063
        },
        {
          "duration": 0.2999999999999545,
          "durationTicks": 360,
          "midi": 60,
          "name": "C4",
          "ticks": 360480,
          "time": 300.40000000000003,
          "velocity": 0.4015748031496063
        },
        {
          "duration": 0.09666666666669244,
          "durationTicks": 116,
          "midi": 62,
          "name": "D4",
          "ticks": 360840,
          "time": 300.7,
          "velocity": 0.4015748031496063
        },
        {
          "duration": 0.10000000000002274,
          "durationTicks": 120,
          "midi": 59,
          "name": "B3",
          "ticks": 360960,
          "time": 300.8,
          "velocity": 0.4015748031496063
        },
        {
          "duration": 0.10000000000002274,
          "durationTicks": 120,
          "midi": 59,
          "name": "B3",
          "ticks": 361440,
          "time": 301.2,
          "velocity": 0.4015748031496063
        },
        {
          "duration": 0.19999999999998863,
          "durationTicks": 240,
          "midi": 59,
          "name": "B3",
          "ticks": 361920,
          "time": 301.6,
          "velocity": 0.4015748031496063
        },
        {
          "duration": 0.19999999999998863,
          "durationTicks": 240,
          "midi": 62,
          "name": "D4",
          "ticks": 362160,
          "time": 301.8,
          "velocity": 0.4015748031496063
        },
        {
          "duration": 0.19999999999998863,
          "durationTicks": 240,
          "midi": 60,
          "name": "C4",
          "ticks": 362400,
          "time": 302,
          "velocity": 0.4015748031496063
        },
        {
          "duration": 0.19666666666671517,
          "durationTicks": 236,
          "midi": 57,
          "name": "A3",
          "ticks": 362640,
          "time": 302.2,
          "velocity": 0.4015748031496063
        },
        {
          "duration": 1.1999999999999886,
          "durationTicks": 1440,
          "midi": 55,
          "name": "G3",
          "ticks": 362880,
          "time": 302.40000000000003,
          "velocity": 0.4015748031496063
        },
        {
          "duration": 0.19999999999998863,
          "durationTicks": 240,
          "midi": 59,
          "name": "B3",
          "ticks": 364320,
          "time": 303.6,
          "velocity": 0.4015748031496063
        },
        {
          "duration": 0.19666666666665833,
          "durationTicks": 236,
          "midi": 57,
          "name": "A3",
          "ticks": 364560,
          "time": 303.8,
          "velocity": 0.4015748031496063
        },
        {
          "duration": 0.33333333333337123,
          "durationTicks": 400,
          "midi": 55,
          "name": "G3",
          "ticks": 364800,
          "time": 304,
          "velocity": 0.4015748031496063
        },
        {
          "duration": 5.5,
          "durationTicks": 6600,
          "midi": 60,
          "name": "C4",
          "ticks": 384000,
          "time": 320,
          "velocity": 0.8267716535433071
        },
        {
          "duration": 1.5,
          "durationTicks": 1800,
          "midi": 63,
          "name": "D#4",
          "ticks": 384000,
          "time": 320,
          "velocity": 0.8267716535433071
        },
        {
          "duration": 0.05000000000001137,
          "durationTicks": 60,
          "midi": 62,
          "name": "D4",
          "ticks": 385920,
          "time": 321.6,
          "velocity": 0.8267716535433071
        },
        {
          "duration": 0.6833333333333371,
          "durationTicks": 820,
          "midi": 63,
          "name": "D#4",
          "ticks": 385980,
          "time": 321.65000000000003,
          "velocity": 0.8267716535433071
        },
        {
          "duration": 0.05000000000001137,
          "durationTicks": 60,
          "midi": 62,
          "name": "D4",
          "ticks": 386880,
          "time": 322.40000000000003,
          "velocity": 0.8267716535433071
        },
        {
          "duration": 0.6833333333333371,
          "durationTicks": 820,
          "midi": 63,
          "name": "D#4",
          "ticks": 386940,
          "time": 322.45000000000005,
          "velocity": 0.8267716535433071
        },
        {
          "duration": 1.5,
          "durationTicks": 1800,
          "midi": 64,
          "name": "E4",
          "ticks": 387840,
          "time": 323.20000000000005,
          "velocity": 0.8267716535433071
        },
        {
          "duration": 1.5,
          "durationTicks": 1800,
          "midi": 65,
          "name": "F4",
          "ticks": 389760,
          "time": 324.8,
          "velocity": 0.8267716535433071
        },
        {
          "duration": 0.6999999999999886,
          "durationTicks": 840,
          "midi": 56,
          "name": "G#3",
          "ticks": 390720,
          "time": 325.6,
          "velocity": 0.8267716535433071
        },
        {
          "duration": 3.099999999999966,
          "durationTicks": 3720,
          "midi": 55,
          "name": "G3",
          "ticks": 391680,
          "time": 326.40000000000003,
          "velocity": 0.8267716535433071
        },
        {
          "duration": 3.099999999999966,
          "durationTicks": 3720,
          "midi": 64,
          "name": "E4",
          "ticks": 391680,
          "time": 326.40000000000003,
          "velocity": 0.8267716535433071
        },
        {
          "duration": 0.33333333333337123,
          "durationTicks": 400,
          "midi": 59,
          "name": "B3",
          "ticks": 395520,
          "time": 329.6,
          "velocity": 0.8267716535433071
        },
        {
          "duration": 0.33333333333337123,
          "durationTicks": 400,
          "midi": 62,
          "name": "D4",
          "ticks": 395520,
          "time": 329.6,
          "velocity": 0.8267716535433071
        },
        {
          "duration": 0.33333333333337123,
          "durationTicks": 400,
          "midi": 38,
          "name": "D2",
          "ticks": 396000,
          "time": 330,
          "velocity": 0.8267716535433071
        },
        {
          "duration": 0.33333333333337123,
          "durationTicks": 400,
          "midi": 50,
          "name": "D3",
          "ticks": 396000,
          "time": 330,
          "velocity": 0.8267716535433071
        },
        {
          "duration": 0.3333333333333144,
          "durationTicks": 400,
          "midi": 43,
          "name": "G2",
          "ticks": 396480,
          "time": 330.40000000000003,
          "velocity": 0.8267716535433071
        },
        {
          "duration": 0.3333333333333144,
          "durationTicks": 400,
          "midi": 55,
          "name": "G3",
          "ticks": 396480,
          "time": 330.40000000000003,
          "velocity": 0.8267716535433071
        },
        {
          "duration": 0.33333333333337123,
          "durationTicks": 400,
          "midi": 47,
          "name": "B2",
          "ticks": 396960,
          "time": 330.8,
          "velocity": 0.8267716535433071
        },
        {
          "duration": 0.33333333333337123,
          "durationTicks": 400,
          "midi": 59,
          "name": "B3",
          "ticks": 396960,
          "time": 330.8,
          "velocity": 0.8267716535433071
        },
        {
          "duration": 1.099999999999966,
          "durationTicks": 1320,
          "midi": 50,
          "name": "D3",
          "ticks": 397440,
          "time": 331.20000000000005,
          "velocity": 0.8267716535433071
        },
        {
          "duration": 1.099999999999966,
          "durationTicks": 1320,
          "midi": 62,
          "name": "D4",
          "ticks": 397440,
          "time": 331.20000000000005,
          "velocity": 0.8267716535433071
        },
        {
          "duration": 0.3333333333333144,
          "durationTicks": 400,
          "midi": 50,
          "name": "D3",
          "ticks": 398880,
          "time": 332.40000000000003,
          "velocity": 0.8267716535433071
        },
        {
          "duration": 0.6000000000000227,
          "durationTicks": 720,
          "midi": 59,
          "name": "B3",
          "ticks": 399360,
          "time": 332.8,
          "velocity": 0.8267716535433071
        },
        {
          "duration": 0.19666666666665833,
          "durationTicks": 236,
          "midi": 57,
          "name": "A3",
          "ticks": 400080,
          "time": 333.40000000000003,
          "velocity": 0.8267716535433071
        },
        {
          "duration": 0.30000000000001137,
          "durationTicks": 360,
          "midi": 60,
          "name": "C4",
          "ticks": 400320,
          "time": 333.6,
          "velocity": 0.8267716535433071
        },
        {
          "duration": 0.09666666666663559,
          "durationTicks": 116,
          "midi": 59,
          "name": "B3",
          "ticks": 400680,
          "time": 333.90000000000003,
          "velocity": 0.8267716535433071
        },
        {
          "duration": 0.30000000000001137,
          "durationTicks": 360,
          "midi": 64,
          "name": "E4",
          "ticks": 400800,
          "time": 334,
          "velocity": 0.8267716535433071
        },
        {
          "duration": 0.09666666666669244,
          "durationTicks": 116,
          "midi": 62,
          "name": "D4",
          "ticks": 401160,
          "time": 334.3,
          "velocity": 0.8267716535433071
        },
        {
          "duration": 0.5999999999999659,
          "durationTicks": 720,
          "midi": 60,
          "name": "C4",
          "ticks": 401280,
          "time": 334.40000000000003,
          "velocity": 0.8267716535433071
        },
        {
          "duration": 0.19666666666671517,
          "durationTicks": 236,
          "midi": 59,
          "name": "B3",
          "ticks": 402000,
          "time": 335,
          "velocity": 0.8267716535433071
        },
        {
          "duration": 0.2999999999999545,
          "durationTicks": 360,
          "midi": 62,
          "name": "D4",
          "ticks": 402240,
          "time": 335.20000000000005,
          "velocity": 0.8267716535433071
        },
        {
          "duration": 0.09666666666669244,
          "durationTicks": 116,
          "midi": 60,
          "name": "C4",
          "ticks": 402600,
          "time": 335.5,
          "velocity": 0.8267716535433071
        },
        {
          "duration": 0.30000000000001137,
          "durationTicks": 360,
          "midi": 65,
          "name": "F4",
          "ticks": 402720,
          "time": 335.6,
          "velocity": 0.8267716535433071
        },
        {
          "duration": 0.09666666666663559,
          "durationTicks": 116,
          "midi": 64,
          "name": "E4",
          "ticks": 403080,
          "time": 335.90000000000003,
          "velocity": 0.8267716535433071
        },
        {
          "duration": 0.6000000000000227,
          "durationTicks": 720,
          "midi": 62,
          "name": "D4",
          "ticks": 403200,
          "time": 336,
          "velocity": 0.8267716535433071
        },
        {
          "duration": 0.19666666666665833,
          "durationTicks": 236,
          "midi": 61,
          "name": "C#4",
          "ticks": 403920,
          "time": 336.6,
          "velocity": 0.8267716535433071
        },
        {
          "duration": 0.30000000000001137,
          "durationTicks": 360,
          "midi": 64,
          "name": "E4",
          "ticks": 404160,
          "time": 336.8,
          "velocity": 0.8267716535433071
        },
        {
          "duration": 0.09666666666669244,
          "durationTicks": 116,
          "midi": 62,
          "name": "D4",
          "ticks": 404520,
          "time": 337.1,
          "velocity": 0.8267716535433071
        },
        {
          "duration": 0.2999999999999545,
          "durationTicks": 360,
          "midi": 67,
          "name": "G4",
          "ticks": 404640,
          "time": 337.20000000000005,
          "velocity": 0.8267716535433071
        },
        {
          "duration": 0.09666666666669244,
          "durationTicks": 116,
          "midi": 65,
          "name": "F4",
          "ticks": 405000,
          "time": 337.5,
          "velocity": 0.8267716535433071
        },
        {
          "duration": 0.6999999999999886,
          "durationTicks": 840,
          "midi": 64,
          "name": "E4",
          "ticks": 405120,
          "time": 337.6,
          "velocity": 0.6771653543307087
        },
        {
          "duration": 0.6999999999999886,
          "durationTicks": 840,
          "midi": 62,
          "name": "D4",
          "ticks": 406080,
          "time": 338.40000000000003,
          "velocity": 0.6771653543307087
        },
        {
          "duration": 0.19666666666665833,
          "durationTicks": 236,
          "midi": 60,
          "name": "C4",
          "ticks": 407040,
          "time": 339.20000000000005,
          "velocity": 0.6771653543307087
        },
        {
          "duration": 0.19666666666665833,
          "durationTicks": 236,
          "midi": 60,
          "name": "C4",
          "ticks": 407280,
          "time": 339.40000000000003,
          "velocity": 0.6771653543307087
        },
        {
          "duration": 0.19666666666665833,
          "durationTicks": 236,
          "midi": 60,
          "name": "C4",
          "ticks": 407520,
          "time": 339.6,
          "velocity": 0.6771653543307087
        },
        {
          "duration": 0.19666666666665833,
          "durationTicks": 236,
          "midi": 60,
          "name": "C4",
          "ticks": 407760,
          "time": 339.8,
          "velocity": 0.6771653543307087
        },
        {
          "duration": 0.19666666666671517,
          "durationTicks": 236,
          "midi": 62,
          "name": "D4",
          "ticks": 408000,
          "time": 340,
          "velocity": 0.6771653543307087
        },
        {
          "duration": 0.19666666666665833,
          "durationTicks": 236,
          "midi": 62,
          "name": "D4",
          "ticks": 408240,
          "time": 340.20000000000005,
          "velocity": 0.6771653543307087
        },
        {
          "duration": 0.19666666666665833,
          "durationTicks": 236,
          "midi": 62,
          "name": "D4",
          "ticks": 408480,
          "time": 340.40000000000003,
          "velocity": 0.6771653543307087
        },
        {
          "duration": 0.19666666666665833,
          "durationTicks": 236,
          "midi": 62,
          "name": "D4",
          "ticks": 408720,
          "time": 340.6,
          "velocity": 0.6771653543307087
        },
        {
          "duration": 0.6000000000000227,
          "durationTicks": 720,
          "midi": 55,
          "name": "G3",
          "ticks": 408960,
          "time": 340.8,
          "velocity": 0.6771653543307087
        },
        {
          "duration": 0.19666666666665833,
          "durationTicks": 236,
          "midi": 54,
          "name": "F#3",
          "ticks": 409680,
          "time": 341.40000000000003,
          "velocity": 0.6771653543307087
        },
        {
          "duration": 0.30000000000001137,
          "durationTicks": 360,
          "midi": 57,
          "name": "A3",
          "ticks": 409920,
          "time": 341.6,
          "velocity": 0.6771653543307087
        },
        {
          "duration": 0.09666666666663559,
          "durationTicks": 116,
          "midi": 55,
          "name": "G3",
          "ticks": 410280,
          "time": 341.90000000000003,
          "velocity": 0.6771653543307087
        },
        {
          "duration": 0.30000000000001137,
          "durationTicks": 360,
          "midi": 60,
          "name": "C4",
          "ticks": 410400,
          "time": 342,
          "velocity": 0.6771653543307087
        },
        {
          "duration": 0.09666666666669244,
          "durationTicks": 116,
          "midi": 59,
          "name": "B3",
          "ticks": 410760,
          "time": 342.3,
          "velocity": 0.6771653543307087
        },
        {
          "duration": 0.5999999999999659,
          "durationTicks": 720,
          "midi": 57,
          "name": "A3",
          "ticks": 410880,
          "time": 342.40000000000003,
          "velocity": 0.6771653543307087
        },
        {
          "duration": 0.19666666666671517,
          "durationTicks": 236,
          "midi": 56,
          "name": "G#3",
          "ticks": 411600,
          "time": 343,
          "velocity": 0.6771653543307087
        },
        {
          "duration": 0.2999999999999545,
          "durationTicks": 360,
          "midi": 59,
          "name": "B3",
          "ticks": 411840,
          "time": 343.20000000000005,
          "velocity": 0.6771653543307087
        },
        {
          "duration": 0.09666666666669244,
          "durationTicks": 116,
          "midi": 57,
          "name": "A3",
          "ticks": 412200,
          "time": 343.5,
          "velocity": 0.6771653543307087
        },
        {
          "duration": 0.30000000000001137,
          "durationTicks": 360,
          "midi": 62,
          "name": "D4",
          "ticks": 412320,
          "time": 343.6,
          "velocity": 0.6771653543307087
        },
        {
          "duration": 0.09666666666663559,
          "durationTicks": 116,
          "midi": 60,
          "name": "C4",
          "ticks": 412680,
          "time": 343.90000000000003,
          "velocity": 0.6771653543307087
        },
        {
          "duration": 0.6000000000000227,
          "durationTicks": 720,
          "midi": 59,
          "name": "B3",
          "ticks": 412800,
          "time": 344,
          "velocity": 0.6771653543307087
        },
        {
          "duration": 0.19666666666665833,
          "durationTicks": 236,
          "midi": 58,
          "name": "A#3",
          "ticks": 413520,
          "time": 344.6,
          "velocity": 0.6771653543307087
        },
        {
          "duration": 0.30000000000001137,
          "durationTicks": 360,
          "midi": 60,
          "name": "C4",
          "ticks": 413760,
          "time": 344.8,
          "velocity": 0.6771653543307087
        },
        {
          "duration": 0.09666666666669244,
          "durationTicks": 116,
          "midi": 59,
          "name": "B3",
          "ticks": 414120,
          "time": 345.1,
          "velocity": 0.6771653543307087
        },
        {
          "duration": 0.2999999999999545,
          "durationTicks": 360,
          "midi": 64,
          "name": "E4",
          "ticks": 414240,
          "time": 345.20000000000005,
          "velocity": 0.6771653543307087
        },
        {
          "duration": 0.09666666666669244,
          "durationTicks": 116,
          "midi": 62,
          "name": "D4",
          "ticks": 414600,
          "time": 345.5,
          "velocity": 0.6771653543307087
        },
        {
          "duration": 0.33333333333337123,
          "durationTicks": 400,
          "midi": 60,
          "name": "C4",
          "ticks": 414720,
          "time": 345.6,
          "velocity": 0.6771653543307087
        },
        {
          "duration": 0.33333333333337123,
          "durationTicks": 400,
          "midi": 62,
          "name": "D4",
          "ticks": 415200,
          "time": 346,
          "velocity": 0.6771653543307087
        },
        {
          "duration": 0.3333333333333144,
          "durationTicks": 400,
          "midi": 60,
          "name": "C4",
          "ticks": 415680,
          "time": 346.40000000000003,
          "velocity": 0.6771653543307087
        },
        {
          "duration": 0.33333333333337123,
          "durationTicks": 400,
          "midi": 56,
          "name": "G#3",
          "ticks": 416160,
          "time": 346.8,
          "velocity": 0.6771653543307087
        },
        {
          "duration": 0.19666666666665833,
          "durationTicks": 236,
          "midi": 57,
          "name": "A3",
          "ticks": 416640,
          "time": 347.20000000000005,
          "velocity": 0.6771653543307087
        },
        {
          "duration": 0.19666666666665833,
          "durationTicks": 236,
          "midi": 57,
          "name": "A3",
          "ticks": 416880,
          "time": 347.40000000000003,
          "velocity": 0.6771653543307087
        },
        {
          "duration": 0.19666666666665833,
          "durationTicks": 236,
          "midi": 55,
          "name": "G3",
          "ticks": 417120,
          "time": 347.6,
          "velocity": 0.6771653543307087
        },
        {
          "duration": 0.19666666666665833,
          "durationTicks": 236,
          "midi": 55,
          "name": "G3",
          "ticks": 417360,
          "time": 347.8,
          "velocity": 0.6771653543307087
        },
        {
          "duration": 0.19666666666671517,
          "durationTicks": 236,
          "midi": 54,
          "name": "F#3",
          "ticks": 417600,
          "time": 348,
          "velocity": 0.6771653543307087
        },
        {
          "duration": 0.19666666666665833,
          "durationTicks": 236,
          "midi": 54,
          "name": "F#3",
          "ticks": 417840,
          "time": 348.20000000000005,
          "velocity": 0.6771653543307087
        },
        {
          "duration": 0.19666666666665833,
          "durationTicks": 236,
          "midi": 55,
          "name": "G3",
          "ticks": 418080,
          "time": 348.40000000000003,
          "velocity": 0.6771653543307087
        },
        {
          "duration": 0.19666666666665833,
          "durationTicks": 236,
          "midi": 55,
          "name": "G3",
          "ticks": 418320,
          "time": 348.6,
          "velocity": 0.6771653543307087
        },
        {
          "duration": 0.33333333333337123,
          "durationTicks": 400,
          "midi": 54,
          "name": "F#3",
          "ticks": 418560,
          "time": 348.8,
          "velocity": 0.6771653543307087
        },
        {
          "duration": 0.06666666666666288,
          "durationTicks": 80,
          "midi": 50,
          "name": "D3",
          "ticks": 430800,
          "time": 359,
          "velocity": 0.6771653543307087
        },
        {
          "duration": 0.19999999999998863,
          "durationTicks": 240,
          "midi": 50,
          "name": "D3",
          "ticks": 431040,
          "time": 359.20000000000005,
          "velocity": 0.4015748031496063
        },
        {
          "duration": 0.19666666666665833,
          "durationTicks": 236,
          "midi": 59,
          "name": "B3",
          "ticks": 431280,
          "time": 359.40000000000003,
          "velocity": 0.4015748031496063
        },
        {
          "duration": 0.06666666666666288,
          "durationTicks": 80,
          "midi": 59,
          "name": "B3",
          "ticks": 431520,
          "time": 359.6,
          "velocity": 0.4015748031496063
        },
        {
          "duration": 0.06666666666666288,
          "durationTicks": 80,
          "midi": 59,
          "name": "B3",
          "ticks": 431760,
          "time": 359.8,
          "velocity": 0.4015748031496063
        },
        {
          "duration": 0.20000000000004547,
          "durationTicks": 240,
          "midi": 59,
          "name": "B3",
          "ticks": 432000,
          "time": 360,
          "velocity": 0.4015748031496063
        },
        {
          "duration": 0.19666666666665833,
          "durationTicks": 236,
          "midi": 57,
          "name": "A3",
          "ticks": 432240,
          "time": 360.20000000000005,
          "velocity": 0.4015748031496063
        },
        {
          "duration": 0.06666666666666288,
          "durationTicks": 80,
          "midi": 57,
          "name": "A3",
          "ticks": 432480,
          "time": 360.40000000000003,
          "velocity": 0.4015748031496063
        },
        {
          "duration": 0.06666666666666288,
          "durationTicks": 80,
          "midi": 57,
          "name": "A3",
          "ticks": 432720,
          "time": 360.6,
          "velocity": 0.4015748031496063
        },
        {
          "duration": 0.05000000000001137,
          "durationTicks": 60,
          "midi": 59,
          "name": "B3",
          "ticks": 432960,
          "time": 360.8,
          "velocity": 0.4015748031496063
        },
        {
          "duration": 0.10000000000002274,
          "durationTicks": 120,
          "midi": 57,
          "name": "A3",
          "ticks": 433020,
          "time": 360.85,
          "velocity": 0.4015748031496063
        },
        {
          "duration": 0.06666666666666288,
          "durationTicks": 80,
          "midi": 55,
          "name": "G3",
          "ticks": 433200,
          "time": 361,
          "velocity": 0.4015748031496063
        },
        {
          "duration": 0.06666666666660603,
          "durationTicks": 80,
          "midi": 57,
          "name": "A3",
          "ticks": 433440,
          "time": 361.20000000000005,
          "velocity": 0.4015748031496063
        },
        {
          "duration": 0.06666666666666288,
          "durationTicks": 80,
          "midi": 59,
          "name": "B3",
          "ticks": 433680,
          "time": 361.40000000000003,
          "velocity": 0.4015748031496063
        },
        {
          "duration": 0.6000000000000227,
          "durationTicks": 720,
          "midi": 55,
          "name": "G3",
          "ticks": 433920,
          "time": 361.6,
          "velocity": 0.4015748031496063
        },
        {
          "duration": 0.19666666666665833,
          "durationTicks": 236,
          "midi": 59,
          "name": "B3",
          "ticks": 434640,
          "time": 362.20000000000005,
          "velocity": 0.4015748031496063
        },
        {
          "duration": 0.5999999999999659,
          "durationTicks": 720,
          "midi": 52,
          "name": "E3",
          "ticks": 434880,
          "time": 362.40000000000003,
          "velocity": 0.4015748031496063
        },
        {
          "duration": 0.19666666666671517,
          "durationTicks": 236,
          "midi": 60,
          "name": "C4",
          "ticks": 435600,
          "time": 363,
          "velocity": 0.4015748031496063
        },
        {
          "duration": 0.19999999999998863,
          "durationTicks": 240,
          "midi": 57,
          "name": "A3",
          "ticks": 435840,
          "time": 363.20000000000005,
          "velocity": 0.4015748031496063
        },
        {
          "duration": 0.19666666666665833,
          "durationTicks": 236,
          "midi": 64,
          "name": "E4",
          "ticks": 436080,
          "time": 363.40000000000003,
          "velocity": 0.4015748031496063
        },
        {
          "duration": 0.06666666666666288,
          "durationTicks": 80,
          "midi": 60,
          "name": "C4",
          "ticks": 436320,
          "time": 363.6,
          "velocity": 0.4015748031496063
        },
        {
          "duration": 0.06666666666666288,
          "durationTicks": 80,
          "midi": 57,
          "name": "A3",
          "ticks": 436560,
          "time": 363.8,
          "velocity": 0.4015748031496063
        },
        {
          "duration": 0.06666666666666288,
          "durationTicks": 80,
          "midi": 54,
          "name": "F#3",
          "ticks": 436800,
          "time": 364,
          "velocity": 0.4015748031496063
        },
        {
          "duration": 0.06666666666660603,
          "durationTicks": 80,
          "midi": 55,
          "name": "G3",
          "ticks": 437040,
          "time": 364.20000000000005,
          "velocity": 0.4015748031496063
        },
        {
          "duration": 0.06666666666666288,
          "durationTicks": 80,
          "midi": 57,
          "name": "A3",
          "ticks": 437280,
          "time": 364.40000000000003,
          "velocity": 0.4015748031496063
        },
        {
          "duration": 0.06666666666666288,
          "durationTicks": 80,
          "midi": 59,
          "name": "B3",
          "ticks": 437520,
          "time": 364.6,
          "velocity": 0.4015748031496063
        },
        {
          "duration": 0.6000000000000227,
          "durationTicks": 720,
          "midi": 55,
          "name": "G3",
          "ticks": 437760,
          "time": 364.8,
          "velocity": 0.4015748031496063
        },
        {
          "duration": 0.19666666666665833,
          "durationTicks": 236,
          "midi": 59,
          "name": "B3",
          "ticks": 438480,
          "time": 365.40000000000003,
          "velocity": 0.4015748031496063
        },
        {
          "duration": 0.6000000000000227,
          "durationTicks": 720,
          "midi": 52,
          "name": "E3",
          "ticks": 438720,
          "time": 365.6,
          "velocity": 0.4015748031496063
        },
        {
          "duration": 0.19666666666665833,
          "durationTicks": 236,
          "midi": 60,
          "name": "C4",
          "ticks": 439440,
          "time": 366.20000000000005,
          "velocity": 0.4015748031496063
        },
        {
          "duration": 0.19999999999998863,
          "durationTicks": 240,
          "midi": 57,
          "name": "A3",
          "ticks": 439680,
          "time": 366.40000000000003,
          "velocity": 0.4015748031496063
        },
        {
          "duration": 0.19666666666665833,
          "durationTicks": 236,
          "midi": 64,
          "name": "E4",
          "ticks": 439920,
          "time": 366.6,
          "velocity": 0.4015748031496063
        },
        {
          "duration": 0.06666666666666288,
          "durationTicks": 80,
          "midi": 60,
          "name": "C4",
          "ticks": 440160,
          "time": 366.8,
          "velocity": 0.4015748031496063
        },
        {
          "duration": 0.06666666666666288,
          "durationTicks": 80,
          "midi": 57,
          "name": "A3",
          "ticks": 440400,
          "time": 367,
          "velocity": 0.4015748031496063
        },
        {
          "duration": 0.06666666666660603,
          "durationTicks": 80,
          "midi": 54,
          "name": "F#3",
          "ticks": 440640,
          "time": 367.20000000000005,
          "velocity": 0.4015748031496063
        },
        {
          "duration": 0.06666666666666288,
          "durationTicks": 80,
          "midi": 55,
          "name": "G3",
          "ticks": 440880,
          "time": 367.40000000000003,
          "velocity": 0.4015748031496063
        },
        {
          "duration": 0.06666666666666288,
          "durationTicks": 80,
          "midi": 57,
          "name": "A3",
          "ticks": 441120,
          "time": 367.6,
          "velocity": 0.4015748031496063
        },
        {
          "duration": 0.06666666666666288,
          "durationTicks": 80,
          "midi": 59,
          "name": "B3",
          "ticks": 441360,
          "time": 367.8,
          "velocity": 0.4015748031496063
        },
        {
          "duration": 0.19666666666671517,
          "durationTicks": 236,
          "midi": 55,
          "name": "G3",
          "ticks": 441600,
          "time": 368,
          "velocity": 0.4015748031496063
        },
        {
          "duration": 0.19999999999998863,
          "durationTicks": 240,
          "midi": 62,
          "name": "D4",
          "ticks": 442080,
          "time": 368.40000000000003,
          "velocity": 0.8267716535433071
        },
        {
          "duration": 0.19999999999998863,
          "durationTicks": 240,
          "midi": 61,
          "name": "C#4",
          "ticks": 442320,
          "time": 368.6,
          "velocity": 0.8267716535433071
        },
        {
          "duration": 0.19999999999998863,
          "durationTicks": 240,
          "midi": 62,
          "name": "D4",
          "ticks": 442560,
          "time": 368.8,
          "velocity": 0.8267716535433071
        },
        {
          "duration": 0.20000000000004547,
          "durationTicks": 240,
          "midi": 61,
          "name": "C#4",
          "ticks": 442800,
          "time": 369,
          "velocity": 0.8267716535433071
        },
        {
          "duration": 0.19999999999998863,
          "durationTicks": 240,
          "midi": 62,
          "name": "D4",
          "ticks": 443040,
          "time": 369.20000000000005,
          "velocity": 0.8267716535433071
        },
        {
          "duration": 0.19666666666665833,
          "durationTicks": 236,
          "midi": 59,
          "name": "B3",
          "ticks": 443280,
          "time": 369.40000000000003,
          "velocity": 0.8267716535433071
        },
        {
          "duration": 0.19666666666665833,
          "durationTicks": 236,
          "midi": 60,
          "name": "C4",
          "ticks": 443520,
          "time": 369.6,
          "velocity": 0.8267716535433071
        },
        {
          "duration": 0.20000000000004547,
          "durationTicks": 240,
          "midi": 60,
          "name": "C4",
          "ticks": 444000,
          "time": 370,
          "velocity": 0.8267716535433071
        },
        {
          "duration": 0.19999999999998863,
          "durationTicks": 240,
          "midi": 59,
          "name": "B3",
          "ticks": 444240,
          "time": 370.20000000000005,
          "velocity": 0.8267716535433071
        },
        {
          "duration": 0.19999999999998863,
          "durationTicks": 240,
          "midi": 60,
          "name": "C4",
          "ticks": 444480,
          "time": 370.40000000000003,
          "velocity": 0.8267716535433071
        },
        {
          "duration": 0.19999999999998863,
          "durationTicks": 240,
          "midi": 59,
          "name": "B3",
          "ticks": 444720,
          "time": 370.6,
          "velocity": 0.8267716535433071
        },
        {
          "duration": 0.19999999999998863,
          "durationTicks": 240,
          "midi": 60,
          "name": "C4",
          "ticks": 444960,
          "time": 370.8,
          "velocity": 0.8267716535433071
        },
        {
          "duration": 0.19666666666671517,
          "durationTicks": 236,
          "midi": 57,
          "name": "A3",
          "ticks": 445200,
          "time": 371,
          "velocity": 0.8267716535433071
        },
        {
          "duration": 0.06666666666660603,
          "durationTicks": 80,
          "midi": 59,
          "name": "B3",
          "ticks": 445440,
          "time": 371.20000000000005,
          "velocity": 0.8267716535433071
        },
        {
          "duration": 0.19666666666665833,
          "durationTicks": 236,
          "midi": 52,
          "name": "E3",
          "ticks": 445920,
          "time": 371.6,
          "velocity": 0.8267716535433071
        },
        {
          "duration": 0.19666666666665833,
          "durationTicks": 236,
          "midi": 52,
          "name": "E3",
          "ticks": 446160,
          "time": 371.8,
          "velocity": 0.8267716535433071
        },
        {
          "duration": 0.19666666666671517,
          "durationTicks": 236,
          "midi": 48,
          "name": "C3",
          "ticks": 446400,
          "time": 372,
          "velocity": 0.8267716535433071
        },
        {
          "duration": 0.19666666666665833,
          "durationTicks": 236,
          "midi": 48,
          "name": "C3",
          "ticks": 446640,
          "time": 372.20000000000005,
          "velocity": 0.8267716535433071
        },
        {
          "duration": 0.19666666666665833,
          "durationTicks": 236,
          "midi": 50,
          "name": "D3",
          "ticks": 446880,
          "time": 372.40000000000003,
          "velocity": 0.8267716535433071
        },
        {
          "duration": 0.19666666666665833,
          "durationTicks": 236,
          "midi": 50,
          "name": "D3",
          "ticks": 447120,
          "time": 372.6,
          "velocity": 0.8267716535433071
        },
        {
          "duration": 0.19666666666665833,
          "durationTicks": 236,
          "midi": 55,
          "name": "G3",
          "ticks": 447360,
          "time": 372.8,
          "velocity": 0.8267716535433071
        },
        {
          "duration": 0.19999999999998863,
          "durationTicks": 240,
          "midi": 62,
          "name": "D4",
          "ticks": 447840,
          "time": 373.20000000000005,
          "velocity": 0.8267716535433071
        },
        {
          "duration": 0.19999999999998863,
          "durationTicks": 240,
          "midi": 61,
          "name": "C#4",
          "ticks": 448080,
          "time": 373.40000000000003,
          "velocity": 0.8267716535433071
        },
        {
          "duration": 0.19999999999998863,
          "durationTicks": 240,
          "midi": 62,
          "name": "D4",
          "ticks": 448320,
          "time": 373.6,
          "velocity": 0.8267716535433071
        },
        {
          "duration": 0.19999999999998863,
          "durationTicks": 240,
          "midi": 61,
          "name": "C#4",
          "ticks": 448560,
          "time": 373.8,
          "velocity": 0.8267716535433071
        },
        {
          "duration": 0.20000000000004547,
          "durationTicks": 240,
          "midi": 62,
          "name": "D4",
          "ticks": 448800,
          "time": 374,
          "velocity": 0.8267716535433071
        },
        {
          "duration": 0.19666666666665833,
          "durationTicks": 236,
          "midi": 59,
          "name": "B3",
          "ticks": 449040,
          "time": 374.20000000000005,
          "velocity": 0.8267716535433071
        },
        {
          "duration": 0.19666666666665833,
          "durationTicks": 236,
          "midi": 60,
          "name": "C4",
          "ticks": 449280,
          "time": 374.40000000000003,
          "velocity": 0.8267716535433071
        },
        {
          "duration": 0.19999999999998863,
          "durationTicks": 240,
          "midi": 60,
          "name": "C4",
          "ticks": 449760,
          "time": 374.8,
          "velocity": 0.8267716535433071
        },
        {
          "duration": 0.20000000000004547,
          "durationTicks": 240,
          "midi": 59,
          "name": "B3",
          "ticks": 450000,
          "time": 375,
          "velocity": 0.8267716535433071
        },
        {
          "duration": 0.19999999999998863,
          "durationTicks": 240,
          "midi": 60,
          "name": "C4",
          "ticks": 450240,
          "time": 375.20000000000005,
          "velocity": 0.8267716535433071
        },
        {
          "duration": 0.19999999999998863,
          "durationTicks": 240,
          "midi": 59,
          "name": "B3",
          "ticks": 450480,
          "time": 375.40000000000003,
          "velocity": 0.8267716535433071
        },
        {
          "duration": 0.19999999999998863,
          "durationTicks": 240,
          "midi": 60,
          "name": "C4",
          "ticks": 450720,
          "time": 375.6,
          "velocity": 0.8267716535433071
        },
        {
          "duration": 0.19666666666665833,
          "durationTicks": 236,
          "midi": 57,
          "name": "A3",
          "ticks": 450960,
          "time": 375.8,
          "velocity": 0.8267716535433071
        },
        {
          "duration": 0.19666666666671517,
          "durationTicks": 236,
          "midi": 59,
          "name": "B3",
          "ticks": 451200,
          "time": 376,
          "velocity": 0.8267716535433071
        },
        {
          "duration": 0.19666666666665833,
          "durationTicks": 236,
          "midi": 52,
          "name": "E3",
          "ticks": 451680,
          "time": 376.40000000000003,
          "velocity": 0.8267716535433071
        },
        {
          "duration": 0.19666666666665833,
          "durationTicks": 236,
          "midi": 52,
          "name": "E3",
          "ticks": 451920,
          "time": 376.6,
          "velocity": 0.8267716535433071
        },
        {
          "duration": 0.19666666666665833,
          "durationTicks": 236,
          "midi": 48,
          "name": "C3",
          "ticks": 452160,
          "time": 376.8,
          "velocity": 0.8267716535433071
        },
        {
          "duration": 0.19666666666671517,
          "durationTicks": 236,
          "midi": 48,
          "name": "C3",
          "ticks": 452400,
          "time": 377,
          "velocity": 0.8267716535433071
        },
        {
          "duration": 0.19666666666665833,
          "durationTicks": 236,
          "midi": 50,
          "name": "D3",
          "ticks": 452640,
          "time": 377.20000000000005,
          "velocity": 0.8267716535433071
        },
        {
          "duration": 0.19666666666665833,
          "durationTicks": 236,
          "midi": 50,
          "name": "D3",
          "ticks": 452880,
          "time": 377.40000000000003,
          "velocity": 0.8267716535433071
        },
        {
          "duration": 0.33333333333337123,
          "durationTicks": 400,
          "midi": 55,
          "name": "G3",
          "ticks": 453120,
          "time": 377.6,
          "velocity": 0.8267716535433071
        },
        {
          "duration": 0.33333333333337123,
          "durationTicks": 400,
          "midi": 55,
          "name": "G3",
          "ticks": 453600,
          "time": 378,
          "velocity": 0.8267716535433071
        },
        {
          "duration": 0.33333333333337123,
          "durationTicks": 400,
          "midi": 50,
          "name": "D3",
          "ticks": 454560,
          "time": 378.8,
          "velocity": 0.8267716535433071
        },
        {
          "duration": 0.33333333333337123,
          "durationTicks": 400,
          "midi": 55,
          "name": "G3",
          "ticks": 455520,
          "time": 379.6,
          "velocity": 0.8267716535433071
        },
        {
          "duration": 0.3333333333333144,
          "durationTicks": 400,
          "midi": 50,
          "name": "D3",
          "ticks": 456480,
          "time": 380.40000000000003,
          "velocity": 0.8267716535433071
        },
        {
          "duration": 0.3333333333333144,
          "durationTicks": 400,
          "midi": 55,
          "name": "G3",
          "ticks": 457440,
          "time": 381.20000000000005,
          "velocity": 0.8267716535433071
        },
        {
          "duration": 0.33333333333337123,
          "durationTicks": 400,
          "midi": 50,
          "name": "D3",
          "ticks": 458400,
          "time": 382,
          "velocity": 0.8267716535433071
        },
        {
          "duration": 0.3333333333333144,
          "durationTicks": 400,
          "midi": 55,
          "name": "G3",
          "ticks": 458880,
          "time": 382.40000000000003,
          "velocity": 0.8267716535433071
        },
        {
          "duration": 0.33333333333337123,
          "durationTicks": 400,
          "midi": 55,
          "name": "G3",
          "ticks": 459360,
          "time": 382.8,
          "velocity": 0.8267716535433071
        },
        {
          "duration": 0.3333333333333144,
          "durationTicks": 400,
          "midi": 43,
          "name": "G2",
          "ticks": 459840,
          "time": 383.20000000000005,
          "velocity": 0.8267716535433071
        },
        {
          "duration": 1.6000000000000227,
          "durationTicks": 1920,
          "midi": 43,
          "name": "G2",
          "ticks": 460800,
          "time": 384,
          "velocity": 0.4015748031496063
        },
        {
          "duration": 1.6000000000000227,
          "durationTicks": 1920,
          "midi": 55,
          "name": "G3",
          "ticks": 460800,
          "time": 384,
          "velocity": 0.4015748031496063
        },
        {
          "duration": 0.8000000000000114,
          "durationTicks": 960,
          "midi": 41,
          "name": "F2",
          "ticks": 462720,
          "time": 385.6,
          "velocity": 0.4015748031496063
        },
        {
          "duration": 0.8000000000000114,
          "durationTicks": 960,
          "midi": 53,
          "name": "F3",
          "ticks": 462720,
          "time": 385.6,
          "velocity": 0.4015748031496063
        },
        {
          "duration": 0.6999999999999886,
          "durationTicks": 840,
          "midi": 46,
          "name": "A#2",
          "ticks": 463680,
          "time": 386.40000000000003,
          "velocity": 0.4015748031496063
        },
        {
          "duration": 0.6999999999999886,
          "durationTicks": 840,
          "midi": 58,
          "name": "A#3",
          "ticks": 463680,
          "time": 386.40000000000003,
          "velocity": 0.4015748031496063
        },
        {
          "duration": 0.3333333333333144,
          "durationTicks": 400,
          "midi": 39,
          "name": "D#2",
          "ticks": 464640,
          "time": 387.20000000000005,
          "velocity": 0.4015748031496063
        },
        {
          "duration": 0.3333333333333144,
          "durationTicks": 400,
          "midi": 51,
          "name": "D#3",
          "ticks": 464640,
          "time": 387.20000000000005,
          "velocity": 0.4015748031496063
        },
        {
          "duration": 0.6000000000000227,
          "durationTicks": 720,
          "midi": 51,
          "name": "D#3",
          "ticks": 480000,
          "time": 400,
          "velocity": 0.4015748031496063
        },
        {
          "duration": 0.19666666666665833,
          "durationTicks": 236,
          "midi": 55,
          "name": "G3",
          "ticks": 480720,
          "time": 400.6,
          "velocity": 0.4015748031496063
        },
        {
          "duration": 0.6000000000000227,
          "durationTicks": 720,
          "midi": 48,
          "name": "C3",
          "ticks": 480960,
          "time": 400.8,
          "velocity": 0.4015748031496063
        },
        {
          "duration": 0.19666666666665833,
          "durationTicks": 236,
          "midi": 56,
          "name": "G#3",
          "ticks": 481680,
          "time": 401.40000000000003,
          "velocity": 0.4015748031496063
        },
        {
          "duration": 0.19999999999998863,
          "durationTicks": 240,
          "midi": 53,
          "name": "F3",
          "ticks": 481920,
          "time": 401.6,
          "velocity": 0.4015748031496063
        },
        {
          "duration": 0.19666666666665833,
          "durationTicks": 236,
          "midi": 60,
          "name": "C4",
          "ticks": 482160,
          "time": 401.8,
          "velocity": 0.4015748031496063
        },
        {
          "duration": 0.06666666666666288,
          "durationTicks": 80,
          "midi": 56,
          "name": "G#3",
          "ticks": 482400,
          "time": 402,
          "velocity": 0.4015748031496063
        },
        {
          "duration": 0.06666666666660603,
          "durationTicks": 80,
          "midi": 53,
          "name": "F3",
          "ticks": 482640,
          "time": 402.20000000000005,
          "velocity": 0.4015748031496063
        },
        {
          "duration": 0.06666666666666288,
          "durationTicks": 80,
          "midi": 50,
          "name": "D3",
          "ticks": 482880,
          "time": 402.40000000000003,
          "velocity": 0.4015748031496063
        },
        {
          "duration": 0.06666666666666288,
          "durationTicks": 80,
          "midi": 51,
          "name": "D#3",
          "ticks": 483120,
          "time": 402.6,
          "velocity": 0.4015748031496063
        },
        {
          "duration": 0.06666666666666288,
          "durationTicks": 80,
          "midi": 53,
          "name": "F3",
          "ticks": 483360,
          "time": 402.8,
          "velocity": 0.4015748031496063
        },
        {
          "duration": 0.06666666666666288,
          "durationTicks": 80,
          "midi": 55,
          "name": "G3",
          "ticks": 483600,
          "time": 403,
          "velocity": 0.4015748031496063
        },
        {
          "duration": 0.3333333333333144,
          "durationTicks": 400,
          "midi": 51,
          "name": "D#3",
          "ticks": 483840,
          "time": 403.20000000000005,
          "velocity": 0.4015748031496063
        },
        {
          "duration": 0.2966666666666242,
          "durationTicks": 356,
          "midi": 51,
          "name": "D#3",
          "ticks": 486240,
          "time": 405.20000000000005,
          "velocity": 0.8267716535433071
        },
        {
          "duration": 0.2966666666666242,
          "durationTicks": 356,
          "midi": 58,
          "name": "A#3",
          "ticks": 486240,
          "time": 405.20000000000005,
          "velocity": 0.8267716535433071
        },
        {
          "duration": 0.09666666666669244,
          "durationTicks": 116,
          "midi": 51,
          "name": "D#3",
          "ticks": 486600,
          "time": 405.5,
          "velocity": 0.8267716535433071
        },
        {
          "duration": 0.09666666666669244,
          "durationTicks": 116,
          "midi": 58,
          "name": "A#3",
          "ticks": 486600,
          "time": 405.5,
          "velocity": 0.8267716535433071
        },
        {
          "duration": 0.33333333333337123,
          "durationTicks": 400,
          "midi": 50,
          "name": "D3",
          "ticks": 486720,
          "time": 405.6,
          "velocity": 0.8267716535433071
        },
        {
          "duration": 0.33333333333337123,
          "durationTicks": 400,
          "midi": 58,
          "name": "A#3",
          "ticks": 486720,
          "time": 405.6,
          "velocity": 0.8267716535433071
        },
        {
          "duration": 0.33333333333337123,
          "durationTicks": 400,
          "midi": 53,
          "name": "F3",
          "ticks": 487200,
          "time": 406,
          "velocity": 0.8267716535433071
        },
        {
          "duration": 0.33333333333337123,
          "durationTicks": 400,
          "midi": 58,
          "name": "A#3",
          "ticks": 487200,
          "time": 406,
          "velocity": 0.8267716535433071
        },
        {
          "duration": 0.3333333333333144,
          "durationTicks": 400,
          "midi": 51,
          "name": "D#3",
          "ticks": 487680,
          "time": 406.40000000000003,
          "velocity": 0.8267716535433071
        },
        {
          "duration": 0.3333333333333144,
          "durationTicks": 400,
          "midi": 58,
          "name": "A#3",
          "ticks": 487680,
          "time": 406.40000000000003,
          "velocity": 0.8267716535433071
        },
        {
          "duration": 0.29666666666668107,
          "durationTicks": 356,
          "midi": 53,
          "name": "F3",
          "ticks": 490080,
          "time": 408.40000000000003,
          "velocity": 0.8267716535433071
        },
        {
          "duration": 0.29666666666668107,
          "durationTicks": 356,
          "midi": 60,
          "name": "C4",
          "ticks": 490080,
          "time": 408.40000000000003,
          "velocity": 0.8267716535433071
        },
        {
          "duration": 0.09666666666663559,
          "durationTicks": 116,
          "midi": 53,
          "name": "F3",
          "ticks": 490440,
          "time": 408.70000000000005,
          "velocity": 0.8267716535433071
        },
        {
          "duration": 0.09666666666663559,
          "durationTicks": 116,
          "midi": 60,
          "name": "C4",
          "ticks": 490440,
          "time": 408.70000000000005,
          "velocity": 0.8267716535433071
        },
        {
          "duration": 0.33333333333337123,
          "durationTicks": 400,
          "midi": 52,
          "name": "E3",
          "ticks": 490560,
          "time": 408.8,
          "velocity": 0.8267716535433071
        },
        {
          "duration": 0.33333333333337123,
          "durationTicks": 400,
          "midi": 60,
          "name": "C4",
          "ticks": 490560,
          "time": 408.8,
          "velocity": 0.8267716535433071
        },
        {
          "duration": 0.3333333333333144,
          "durationTicks": 400,
          "midi": 55,
          "name": "G3",
          "ticks": 491040,
          "time": 409.20000000000005,
          "velocity": 0.8267716535433071
        },
        {
          "duration": 0.3333333333333144,
          "durationTicks": 400,
          "midi": 60,
          "name": "C4",
          "ticks": 491040,
          "time": 409.20000000000005,
          "velocity": 0.8267716535433071
        },
        {
          "duration": 0.3333333333333144,
          "durationTicks": 400,
          "midi": 53,
          "name": "F3",
          "ticks": 491520,
          "time": 409.6,
          "velocity": 0.8267716535433071
        },
        {
          "duration": 0.3333333333333144,
          "durationTicks": 400,
          "midi": 60,
          "name": "C4",
          "ticks": 491520,
          "time": 409.6,
          "velocity": 0.8267716535433071
        },
        {
          "duration": 0.2966666666666242,
          "durationTicks": 356,
          "midi": 55,
          "name": "G3",
          "ticks": 493920,
          "time": 411.6,
          "velocity": 0.8267716535433071
        },
        {
          "duration": 0.2966666666666242,
          "durationTicks": 356,
          "midi": 62,
          "name": "D4",
          "ticks": 493920,
          "time": 411.6,
          "velocity": 0.8267716535433071
        },
        {
          "duration": 0.09666666666663559,
          "durationTicks": 116,
          "midi": 55,
          "name": "G3",
          "ticks": 494280,
          "time": 411.90000000000003,
          "velocity": 0.8267716535433071
        },
        {
          "duration": 0.09666666666663559,
          "durationTicks": 116,
          "midi": 62,
          "name": "D4",
          "ticks": 494280,
          "time": 411.90000000000003,
          "velocity": 0.8267716535433071
        },
        {
          "duration": 0.3333333333333144,
          "durationTicks": 400,
          "midi": 54,
          "name": "F#3",
          "ticks": 494400,
          "time": 412,
          "velocity": 0.8267716535433071
        },
        {
          "duration": 0.3333333333333144,
          "durationTicks": 400,
          "midi": 62,
          "name": "D4",
          "ticks": 494400,
          "time": 412,
          "velocity": 0.8267716535433071
        },
        {
          "duration": 0.3333333333333144,
          "durationTicks": 400,
          "midi": 57,
          "name": "A3",
          "ticks": 494880,
          "time": 412.40000000000003,
          "velocity": 0.8267716535433071
        },
        {
          "duration": 0.3333333333333144,
          "durationTicks": 400,
          "midi": 62,
          "name": "D4",
          "ticks": 494880,
          "time": 412.40000000000003,
          "velocity": 0.8267716535433071
        },
        {
          "duration": 0.3333333333333144,
          "durationTicks": 400,
          "midi": 55,
          "name": "G3",
          "ticks": 495360,
          "time": 412.8,
          "velocity": 0.8267716535433071
        },
        {
          "duration": 0.3333333333333144,
          "durationTicks": 400,
          "midi": 62,
          "name": "D4",
          "ticks": 495360,
          "time": 412.8,
          "velocity": 0.8267716535433071
        },
        {
          "duration": 0.10000000000002274,
          "durationTicks": 120,
          "midi": 55,
          "name": "G3",
          "ticks": 496800,
          "time": 414,
          "velocity": 0.8267716535433071
        },
        {
          "duration": 0.10000000000002274,
          "durationTicks": 120,
          "midi": 58,
          "name": "A#3",
          "ticks": 496800,
          "time": 414,
          "velocity": 0.8267716535433071
        },
        {
          "duration": 1.599999999999966,
          "durationTicks": 1920,
          "midi": 58,
          "name": "A#3",
          "ticks": 497280,
          "time": 414.40000000000003,
          "velocity": 0.8267716535433071
        },
        {
          "duration": 1.599999999999966,
          "durationTicks": 1920,
          "midi": 67,
          "name": "G4",
          "ticks": 497280,
          "time": 414.40000000000003,
          "velocity": 0.8267716535433071
        },
        {
          "duration": 0.3333333333333144,
          "durationTicks": 400,
          "midi": 56,
          "name": "G#3",
          "ticks": 499200,
          "time": 416,
          "velocity": 0.8267716535433071
        },
        {
          "duration": 0.3333333333333144,
          "durationTicks": 400,
          "midi": 65,
          "name": "F4",
          "ticks": 499200,
          "time": 416,
          "velocity": 0.8267716535433071
        },
        {
          "duration": 0.0999999999999659,
          "durationTicks": 120,
          "midi": 53,
          "name": "F3",
          "ticks": 500640,
          "time": 417.20000000000005,
          "velocity": 0.8267716535433071
        },
        {
          "duration": 0.0999999999999659,
          "durationTicks": 120,
          "midi": 56,
          "name": "G#3",
          "ticks": 500640,
          "time": 417.20000000000005,
          "velocity": 0.8267716535433071
        },
        {
          "duration": 1.5,
          "durationTicks": 1800,
          "midi": 56,
          "name": "G#3",
          "ticks": 501120,
          "time": 417.6,
          "velocity": 0.8267716535433071
        },
        {
          "duration": 1.5,
          "durationTicks": 1800,
          "midi": 65,
          "name": "F4",
          "ticks": 501120,
          "time": 417.6,
          "velocity": 0.8267716535433071
        },
        {
          "duration": 0.33333333333325754,
          "durationTicks": 400,
          "midi": 55,
          "name": "G3",
          "ticks": 503040,
          "time": 419.20000000000005,
          "velocity": 0.8267716535433071
        },
        {
          "duration": 0.33333333333325754,
          "durationTicks": 400,
          "midi": 63,
          "name": "D#4",
          "ticks": 503040,
          "time": 419.20000000000005,
          "velocity": 0.8267716535433071
        },
        {
          "duration": 0.0999999999999659,
          "durationTicks": 120,
          "midi": 56,
          "name": "G#3",
          "ticks": 504480,
          "time": 420.40000000000003,
          "velocity": 0.8267716535433071
        },
        {
          "duration": 0.0999999999999659,
          "durationTicks": 120,
          "midi": 60,
          "name": "C4",
          "ticks": 504480,
          "time": 420.40000000000003,
          "velocity": 0.8267716535433071
        },
        {
          "duration": 1.1000000000000227,
          "durationTicks": 1320,
          "midi": 62,
          "name": "D4",
          "ticks": 504960,
          "time": 420.8,
          "velocity": 0.8267716535433071
        },
        {
          "duration": 1.1000000000000227,
          "durationTicks": 1320,
          "midi": 65,
          "name": "F4",
          "ticks": 504960,
          "time": 420.8,
          "velocity": 0.8267716535433071
        },
        {
          "duration": 0.10000000000002274,
          "durationTicks": 120,
          "midi": 55,
          "name": "G3",
          "ticks": 506400,
          "time": 422,
          "velocity": 0.8267716535433071
        },
        {
          "duration": 0.10000000000002274,
          "durationTicks": 120,
          "midi": 59,
          "name": "B3",
          "ticks": 506400,
          "time": 422,
          "velocity": 0.8267716535433071
        },
        {
          "duration": 0.3333333333333144,
          "durationTicks": 400,
          "midi": 60,
          "name": "C4",
          "ticks": 506880,
          "time": 422.40000000000003,
          "velocity": 0.8267716535433071
        },
        {
          "duration": 0.3333333333333144,
          "durationTicks": 400,
          "midi": 63,
          "name": "D#4",
          "ticks": 506880,
          "time": 422.40000000000003,
          "velocity": 0.8267716535433071
        },
        {
          "duration": 0.19666666666665833,
          "durationTicks": 236,
          "midi": 55,
          "name": "G3",
          "ticks": 508560,
          "time": 423.8,
          "velocity": 0.8267716535433071
        },
        {
          "duration": 0.19666666666665833,
          "durationTicks": 236,
          "midi": 54,
          "name": "F#3",
          "ticks": 508800,
          "time": 424,
          "velocity": 0.8267716535433071
        },
        {
          "duration": 0.1966666666666015,
          "durationTicks": 236,
          "midi": 55,
          "name": "G3",
          "ticks": 509040,
          "time": 424.20000000000005,
          "velocity": 0.8267716535433071
        },
        {
          "duration": 0.1966666666666015,
          "durationTicks": 236,
          "midi": 57,
          "name": "A3",
          "ticks": 509280,
          "time": 424.40000000000003,
          "velocity": 0.8267716535433071
        },
        {
          "duration": 0.1966666666666015,
          "durationTicks": 236,
          "midi": 58,
          "name": "A#3",
          "ticks": 509520,
          "time": 424.6,
          "velocity": 0.8267716535433071
        },
        {
          "duration": 0.19666666666665833,
          "durationTicks": 236,
          "midi": 60,
          "name": "C4",
          "ticks": 509760,
          "time": 424.8,
          "velocity": 0.8267716535433071
        },
        {
          "duration": 0.19666666666665833,
          "durationTicks": 236,
          "midi": 63,
          "name": "D#4",
          "ticks": 510000,
          "time": 425,
          "velocity": 0.8267716535433071
        },
        {
          "duration": 0.1966666666666015,
          "durationTicks": 236,
          "midi": 62,
          "name": "D4",
          "ticks": 510240,
          "time": 425.20000000000005,
          "velocity": 0.8267716535433071
        },
        {
          "duration": 0.1966666666666015,
          "durationTicks": 236,
          "midi": 60,
          "name": "C4",
          "ticks": 510480,
          "time": 425.40000000000003,
          "velocity": 0.8267716535433071
        },
        {
          "duration": 0.3333333333333144,
          "durationTicks": 400,
          "midi": 58,
          "name": "A#3",
          "ticks": 510720,
          "time": 425.6,
          "velocity": 0.8267716535433071
        },
        {
          "duration": 0.3333333333333144,
          "durationTicks": 400,
          "midi": 55,
          "name": "G3",
          "ticks": 511680,
          "time": 426.40000000000003,
          "velocity": 0.8267716535433071
        },
        {
          "duration": 0.3333333333333144,
          "durationTicks": 400,
          "midi": 60,
          "name": "C4",
          "ticks": 511680,
          "time": 426.40000000000003,
          "velocity": 0.8267716535433071
        },
        {
          "duration": 0.33333333333325754,
          "durationTicks": 400,
          "midi": 60,
          "name": "C4",
          "ticks": 512640,
          "time": 427.20000000000005,
          "velocity": 0.8267716535433071
        },
        {
          "duration": 0.33333333333325754,
          "durationTicks": 400,
          "midi": 63,
          "name": "D#4",
          "ticks": 512640,
          "time": 427.20000000000005,
          "velocity": 0.8267716535433071
        },
        {
          "duration": 0.3333333333333144,
          "durationTicks": 400,
          "midi": 57,
          "name": "A3",
          "ticks": 513600,
          "time": 428,
          "velocity": 0.8267716535433071
        },
        {
          "duration": 0.3333333333333144,
          "durationTicks": 400,
          "midi": 60,
          "name": "C4",
          "ticks": 513600,
          "time": 428,
          "velocity": 0.8267716535433071
        },
        {
          "duration": 0.3333333333333144,
          "durationTicks": 400,
          "midi": 55,
          "name": "G3",
          "ticks": 514560,
          "time": 428.8,
          "velocity": 0.8267716535433071
        },
        {
          "duration": 0.3333333333333144,
          "durationTicks": 400,
          "midi": 58,
          "name": "A#3",
          "ticks": 514560,
          "time": 428.8,
          "velocity": 0.8267716535433071
        },
        {
          "duration": 0.3333333333333144,
          "durationTicks": 400,
          "midi": 64,
          "name": "E4",
          "ticks": 515520,
          "time": 429.6,
          "velocity": 0.8267716535433071
        },
        {
          "duration": 0.3333333333333144,
          "durationTicks": 400,
          "midi": 67,
          "name": "G4",
          "ticks": 515520,
          "time": 429.6,
          "velocity": 0.8267716535433071
        },
        {
          "duration": 0.3333333333333144,
          "durationTicks": 400,
          "midi": 61,
          "name": "C#4",
          "ticks": 516480,
          "time": 430.40000000000003,
          "velocity": 0.8267716535433071
        },
        {
          "duration": 0.3333333333333144,
          "durationTicks": 400,
          "midi": 64,
          "name": "E4",
          "ticks": 516480,
          "time": 430.40000000000003,
          "velocity": 0.8267716535433071
        },
        {
          "duration": 0.33333333333325754,
          "durationTicks": 400,
          "midi": 57,
          "name": "A3",
          "ticks": 517440,
          "time": 431.20000000000005,
          "velocity": 0.8267716535433071
        },
        {
          "duration": 0.33333333333325754,
          "durationTicks": 400,
          "midi": 64,
          "name": "E4",
          "ticks": 517440,
          "time": 431.20000000000005,
          "velocity": 0.8267716535433071
        },
        {
          "duration": 1.1000000000000227,
          "durationTicks": 1320,
          "midi": 62,
          "name": "D4",
          "ticks": 518400,
          "time": 432,
          "velocity": 0.8267716535433071
        },
        {
          "duration": 0.8000000000000114,
          "durationTicks": 960,
          "midi": 65,
          "name": "F4",
          "ticks": 518400,
          "time": 432,
          "velocity": 0.8267716535433071
        },
        {
          "duration": 0.4000000000000341,
          "durationTicks": 480,
          "midi": 64,
          "name": "E4",
          "ticks": 519360,
          "time": 432.8,
          "velocity": 0.8267716535433071
        },
        {
          "duration": 0.33333333333325754,
          "durationTicks": 400,
          "midi": 56,
          "name": "G#3",
          "ticks": 519840,
          "time": 433.20000000000005,
          "velocity": 0.8267716535433071
        },
        {
          "duration": 0.1966666666666015,
          "durationTicks": 236,
          "midi": 62,
          "name": "D4",
          "ticks": 519840,
          "time": 433.20000000000005,
          "velocity": 0.8267716535433071
        },
        {
          "duration": 0.1966666666666015,
          "durationTicks": 236,
          "midi": 59,
          "name": "B3",
          "ticks": 520080,
          "time": 433.40000000000003,
          "velocity": 0.8267716535433071
        },
        {
          "duration": 0.3333333333333144,
          "durationTicks": 400,
          "midi": 57,
          "name": "A3",
          "ticks": 520320,
          "time": 433.6,
          "velocity": 0.8267716535433071
        },
        {
          "duration": 0.4000000000000341,
          "durationTicks": 480,
          "midi": 57,
          "name": "A3",
          "ticks": 520800,
          "time": 434,
          "velocity": 0.8267716535433071
        },
        {
          "duration": 0.4000000000000341,
          "durationTicks": 480,
          "midi": 60,
          "name": "C4",
          "ticks": 520800,
          "time": 434,
          "velocity": 0.8267716535433071
        },
        {
          "duration": 0.39999999999997726,
          "durationTicks": 480,
          "midi": 55,
          "name": "G3",
          "ticks": 521280,
          "time": 434.40000000000003,
          "velocity": 0.8267716535433071
        },
        {
          "duration": 0.39999999999997726,
          "durationTicks": 480,
          "midi": 59,
          "name": "B3",
          "ticks": 521280,
          "time": 434.40000000000003,
          "velocity": 0.8267716535433071
        },
        {
          "duration": 0.3333333333333144,
          "durationTicks": 400,
          "midi": 53,
          "name": "F3",
          "ticks": 521760,
          "time": 434.8,
          "velocity": 0.8267716535433071
        },
        {
          "duration": 0.3333333333333144,
          "durationTicks": 400,
          "midi": 57,
          "name": "A3",
          "ticks": 521760,
          "time": 434.8,
          "velocity": 0.8267716535433071
        },
        {
          "duration": 0.33333333333325754,
          "durationTicks": 400,
          "midi": 52,
          "name": "E3",
          "ticks": 522240,
          "time": 435.20000000000005,
          "velocity": 0.8267716535433071
        },
        {
          "duration": 0.33333333333325754,
          "durationTicks": 400,
          "midi": 56,
          "name": "G#3",
          "ticks": 522240,
          "time": 435.20000000000005,
          "velocity": 0.8267716535433071
        },
        {
          "duration": 0.33333333333325754,
          "durationTicks": 400,
          "midi": 64,
          "name": "E4",
          "ticks": 527040,
          "time": 439.20000000000005,
          "velocity": 0.4015748031496063
        },
        {
          "duration": 0.3333333333333144,
          "durationTicks": 400,
          "midi": 64,
          "name": "E4",
          "ticks": 527520,
          "time": 439.6,
          "velocity": 0.4015748031496063
        },
        {
          "duration": 0.3333333333333144,
          "durationTicks": 400,
          "midi": 64,
          "name": "E4",
          "ticks": 528000,
          "time": 440,
          "velocity": 0.4015748031496063
        },
        {
          "duration": 0.3333333333333144,
          "durationTicks": 400,
          "midi": 64,
          "name": "E4",
          "ticks": 528960,
          "time": 440.8,
          "velocity": 0.4015748031496063
        },
        {
          "duration": 0.33333333333325754,
          "durationTicks": 400,
          "midi": 64,
          "name": "E4",
          "ticks": 529440,
          "time": 441.20000000000005,
          "velocity": 0.4015748031496063
        },
        {
          "duration": 0.3333333333333144,
          "durationTicks": 400,
          "midi": 64,
          "name": "E4",
          "ticks": 529920,
          "time": 441.6,
          "velocity": 0.4015748031496063
        },
        {
          "duration": 0.8000000000000114,
          "durationTicks": 960,
          "midi": 53,
          "name": "F3",
          "ticks": 537600,
          "time": 448,
          "velocity": 0.4015748031496063
        },
        {
          "duration": 0.9966666666666129,
          "durationTicks": 1196,
          "midi": 57,
          "name": "A3",
          "ticks": 538560,
          "time": 448.8,
          "velocity": 0.4015748031496063
        },
        {
          "duration": 0.9966666666666129,
          "durationTicks": 1196,
          "midi": 65,
          "name": "F4",
          "ticks": 538560,
          "time": 448.8,
          "velocity": 0.4015748031496063
        },
        {
          "duration": 0.06666666666671972,
          "durationTicks": 80,
          "midi": 60,
          "name": "C4",
          "ticks": 539760,
          "time": 449.8,
          "velocity": 0.4015748031496063
        },
        {
          "duration": 0.06666666666671972,
          "durationTicks": 80,
          "midi": 64,
          "name": "E4",
          "ticks": 539760,
          "time": 449.8,
          "velocity": 0.4015748031496063
        },
        {
          "duration": 0.06666666666671972,
          "durationTicks": 80,
          "midi": 58,
          "name": "A#3",
          "ticks": 540000,
          "time": 450,
          "velocity": 0.4015748031496063
        },
        {
          "duration": 0.06666666666671972,
          "durationTicks": 80,
          "midi": 62,
          "name": "D4",
          "ticks": 540000,
          "time": 450,
          "velocity": 0.4015748031496063
        },
        {
          "duration": 0.06666666666666288,
          "durationTicks": 80,
          "midi": 57,
          "name": "A3",
          "ticks": 540240,
          "time": 450.20000000000005,
          "velocity": 0.4015748031496063
        },
        {
          "duration": 0.06666666666666288,
          "durationTicks": 80,
          "midi": 60,
          "name": "C4",
          "ticks": 540240,
          "time": 450.20000000000005,
          "velocity": 0.4015748031496063
        },
        {
          "duration": 0.06666666666666288,
          "durationTicks": 80,
          "midi": 55,
          "name": "G3",
          "ticks": 540480,
          "time": 450.40000000000003,
          "velocity": 0.4015748031496063
        },
        {
          "duration": 0.06666666666666288,
          "durationTicks": 80,
          "midi": 58,
          "name": "A#3",
          "ticks": 540480,
          "time": 450.40000000000003,
          "velocity": 0.4015748031496063
        },
        {
          "duration": 0.06666666666671972,
          "durationTicks": 80,
          "midi": 53,
          "name": "F3",
          "ticks": 540720,
          "time": 450.6,
          "velocity": 0.4015748031496063
        },
        {
          "duration": 0.06666666666671972,
          "durationTicks": 80,
          "midi": 57,
          "name": "A3",
          "ticks": 540720,
          "time": 450.6,
          "velocity": 0.4015748031496063
        },
        {
          "duration": 0.06666666666671972,
          "durationTicks": 80,
          "midi": 52,
          "name": "E3",
          "ticks": 540960,
          "time": 450.8,
          "velocity": 0.4015748031496063
        },
        {
          "duration": 0.06666666666671972,
          "durationTicks": 80,
          "midi": 55,
          "name": "G3",
          "ticks": 540960,
          "time": 450.8,
          "velocity": 0.4015748031496063
        },
        {
          "duration": 0.06666666666671972,
          "durationTicks": 80,
          "midi": 53,
          "name": "F3",
          "ticks": 541200,
          "time": 451,
          "velocity": 0.4015748031496063
        },
        {
          "duration": 0.7999999999999545,
          "durationTicks": 960,
          "midi": 55,
          "name": "G3",
          "ticks": 541440,
          "time": 451.20000000000005,
          "velocity": 0.4015748031496063
        },
        {
          "duration": 0.7999999999999545,
          "durationTicks": 960,
          "midi": 58,
          "name": "A#3",
          "ticks": 541440,
          "time": 451.20000000000005,
          "velocity": 0.4015748031496063
        },
        {
          "duration": 0.7000000000000455,
          "durationTicks": 840,
          "midi": 53,
          "name": "F3",
          "ticks": 542400,
          "time": 452,
          "velocity": 0.4015748031496063
        },
        {
          "duration": 0.7000000000000455,
          "durationTicks": 840,
          "midi": 57,
          "name": "A3",
          "ticks": 542400,
          "time": 452,
          "velocity": 0.4015748031496063
        },
        {
          "duration": 1.1000000000000227,
          "durationTicks": 1320,
          "midi": 52,
          "name": "E3",
          "ticks": 543360,
          "time": 452.8,
          "velocity": 0.4015748031496063
        },
        {
          "duration": 1.1000000000000227,
          "durationTicks": 1320,
          "midi": 55,
          "name": "G3",
          "ticks": 543360,
          "time": 452.8,
          "velocity": 0.4015748031496063
        },
        {
          "duration": 2.3000000000000114,
          "durationTicks": 2760,
          "midi": 60,
          "name": "C4",
          "ticks": 545280,
          "time": 454.40000000000003,
          "velocity": 0.4015748031496063
        },
        {
          "duration": 0.533333333333303,
          "durationTicks": 640,
          "midi": 60,
          "name": "C4",
          "ticks": 548160,
          "time": 456.8,
          "velocity": 0.4015748031496063
        },
        {
          "duration": 0.1966666666666015,
          "durationTicks": 236,
          "midi": 61,
          "name": "C#4",
          "ticks": 548880,
          "time": 457.40000000000003,
          "velocity": 0.4015748031496063
        },
        {
          "duration": 2.3000000000000114,
          "durationTicks": 2760,
          "midi": 62,
          "name": "D4",
          "ticks": 549120,
          "time": 457.6,
          "velocity": 0.4015748031496063
        },
        {
          "duration": 0.533333333333303,
          "durationTicks": 640,
          "midi": 62,
          "name": "D4",
          "ticks": 552000,
          "time": 460,
          "velocity": 0.4015748031496063
        },
        {
          "duration": 0.1966666666666015,
          "durationTicks": 236,
          "midi": 63,
          "name": "D#4",
          "ticks": 552720,
          "time": 460.6,
          "velocity": 0.4015748031496063
        },
        {
          "duration": 3.1000000000000227,
          "durationTicks": 3720,
          "midi": 64,
          "name": "E4",
          "ticks": 552960,
          "time": 460.8,
          "velocity": 0.4015748031496063
        },
        {
          "duration": 0.3333333333333144,
          "durationTicks": 400,
          "midi": 64,
          "name": "E4",
          "ticks": 556800,
          "time": 464,
          "velocity": 0.4015748031496063
        },
        {
          "duration": 0.0999999999999659,
          "durationTicks": 120,
          "midi": 60,
          "name": "C4",
          "ticks": 557280,
          "time": 464.40000000000003,
          "velocity": 0.8267716535433071
        },
        {
          "duration": 0.0999999999999659,
          "durationTicks": 120,
          "midi": 64,
          "name": "E4",
          "ticks": 557280,
          "time": 464.40000000000003,
          "velocity": 0.8267716535433071
        },
        {
          "duration": 0.0999999999999659,
          "durationTicks": 120,
          "midi": 60,
          "name": "C4",
          "ticks": 558240,
          "time": 465.20000000000005,
          "velocity": 0.8267716535433071
        },
        {
          "duration": 0.0999999999999659,
          "durationTicks": 120,
          "midi": 64,
          "name": "E4",
          "ticks": 558240,
          "time": 465.20000000000005,
          "velocity": 0.8267716535433071
        },
        {
          "duration": 0.10000000000002274,
          "durationTicks": 120,
          "midi": 63,
          "name": "D#4",
          "ticks": 559200,
          "time": 466,
          "velocity": 0.8267716535433071
        },
        {
          "duration": 0.10000000000002274,
          "durationTicks": 120,
          "midi": 66,
          "name": "F#4",
          "ticks": 559200,
          "time": 466,
          "velocity": 0.8267716535433071
        },
        {
          "duration": 0.10000000000002274,
          "durationTicks": 120,
          "midi": 63,
          "name": "D#4",
          "ticks": 560160,
          "time": 466.8,
          "velocity": 0.8267716535433071
        },
        {
          "duration": 0.10000000000002274,
          "durationTicks": 120,
          "midi": 66,
          "name": "F#4",
          "ticks": 560160,
          "time": 466.8,
          "velocity": 0.8267716535433071
        },
        {
          "duration": 0.0999999999999659,
          "durationTicks": 120,
          "midi": 64,
          "name": "E4",
          "ticks": 560640,
          "time": 467.20000000000005,
          "velocity": 0.8267716535433071
        },
        {
          "duration": 0.10000000000002274,
          "durationTicks": 120,
          "midi": 59,
          "name": "B3",
          "ticks": 561120,
          "time": 467.6,
          "velocity": 0.8267716535433071
        },
        {
          "duration": 0.10000000000002274,
          "durationTicks": 120,
          "midi": 64,
          "name": "E4",
          "ticks": 561120,
          "time": 467.6,
          "velocity": 0.8267716535433071
        },
        {
          "duration": 0.0999999999999659,
          "durationTicks": 120,
          "midi": 58,
          "name": "A#3",
          "ticks": 562080,
          "time": 468.40000000000003,
          "velocity": 0.8267716535433071
        },
        {
          "duration": 0.0999999999999659,
          "durationTicks": 120,
          "midi": 64,
          "name": "E4",
          "ticks": 562080,
          "time": 468.40000000000003,
          "velocity": 0.8267716535433071
        },
        {
          "duration": 0.0999999999999659,
          "durationTicks": 120,
          "midi": 61,
          "name": "C#4",
          "ticks": 563040,
          "time": 469.20000000000005,
          "velocity": 0.8267716535433071
        },
        {
          "duration": 0.0999999999999659,
          "durationTicks": 120,
          "midi": 64,
          "name": "E4",
          "ticks": 563040,
          "time": 469.20000000000005,
          "velocity": 0.8267716535433071
        },
        {
          "duration": 0.10000000000002274,
          "durationTicks": 120,
          "midi": 61,
          "name": "C#4",
          "ticks": 564000,
          "time": 470,
          "velocity": 0.8267716535433071
        },
        {
          "duration": 0.10000000000002274,
          "durationTicks": 120,
          "midi": 64,
          "name": "E4",
          "ticks": 564000,
          "time": 470,
          "velocity": 0.8267716535433071
        },
        {
          "duration": 0.0999999999999659,
          "durationTicks": 120,
          "midi": 62,
          "name": "D4",
          "ticks": 564480,
          "time": 470.40000000000003,
          "velocity": 0.8267716535433071
        },
        {
          "duration": 0.10000000000002274,
          "durationTicks": 120,
          "midi": 57,
          "name": "A3",
          "ticks": 564960,
          "time": 470.8,
          "velocity": 0.8267716535433071
        },
        {
          "duration": 0.10000000000002274,
          "durationTicks": 120,
          "midi": 62,
          "name": "D4",
          "ticks": 564960,
          "time": 470.8,
          "velocity": 0.8267716535433071
        },
        {
          "duration": 0.10000000000002274,
          "durationTicks": 120,
          "midi": 56,
          "name": "G#3",
          "ticks": 565920,
          "time": 471.6,
          "velocity": 0.8267716535433071
        },
        {
          "duration": 0.10000000000002274,
          "durationTicks": 120,
          "midi": 62,
          "name": "D4",
          "ticks": 565920,
          "time": 471.6,
          "velocity": 0.8267716535433071
        },
        {
          "duration": 0.0999999999999659,
          "durationTicks": 120,
          "midi": 59,
          "name": "B3",
          "ticks": 566880,
          "time": 472.40000000000003,
          "velocity": 0.8267716535433071
        },
        {
          "duration": 0.0999999999999659,
          "durationTicks": 120,
          "midi": 62,
          "name": "D4",
          "ticks": 566880,
          "time": 472.40000000000003,
          "velocity": 0.8267716535433071
        },
        {
          "duration": 0.0999999999999659,
          "durationTicks": 120,
          "midi": 59,
          "name": "B3",
          "ticks": 567840,
          "time": 473.20000000000005,
          "velocity": 0.8267716535433071
        },
        {
          "duration": 0.0999999999999659,
          "durationTicks": 120,
          "midi": 62,
          "name": "D4",
          "ticks": 567840,
          "time": 473.20000000000005,
          "velocity": 0.8267716535433071
        },
        {
          "duration": 0.10000000000002274,
          "durationTicks": 120,
          "midi": 60,
          "name": "C4",
          "ticks": 568320,
          "time": 473.6,
          "velocity": 0.8267716535433071
        },
        {
          "duration": 0.10000000000002274,
          "durationTicks": 120,
          "midi": 55,
          "name": "G3",
          "ticks": 568800,
          "time": 474,
          "velocity": 0.8267716535433071
        },
        {
          "duration": 0.10000000000002274,
          "durationTicks": 120,
          "midi": 60,
          "name": "C4",
          "ticks": 568800,
          "time": 474,
          "velocity": 0.8267716535433071
        },
        {
          "duration": 0.10000000000002274,
          "durationTicks": 120,
          "midi": 55,
          "name": "G3",
          "ticks": 569760,
          "time": 474.8,
          "velocity": 0.8267716535433071
        },
        {
          "duration": 0.10000000000002274,
          "durationTicks": 120,
          "midi": 60,
          "name": "C4",
          "ticks": 569760,
          "time": 474.8,
          "velocity": 0.8267716535433071
        },
        {
          "duration": 0.10000000000002274,
          "durationTicks": 120,
          "midi": 54,
          "name": "F#3",
          "ticks": 570720,
          "time": 475.6,
          "velocity": 0.8267716535433071
        },
        {
          "duration": 0.10000000000002274,
          "durationTicks": 120,
          "midi": 63,
          "name": "D#4",
          "ticks": 570720,
          "time": 475.6,
          "velocity": 0.8267716535433071
        },
        {
          "duration": 0.0999999999999659,
          "durationTicks": 120,
          "midi": 60,
          "name": "C4",
          "ticks": 571680,
          "time": 476.40000000000003,
          "velocity": 0.8267716535433071
        },
        {
          "duration": 0.0999999999999659,
          "durationTicks": 120,
          "midi": 66,
          "name": "F#4",
          "ticks": 571680,
          "time": 476.40000000000003,
          "velocity": 0.8267716535433071
        },
        {
          "duration": 0.3333333333333144,
          "durationTicks": 400,
          "midi": 59,
          "name": "B3",
          "ticks": 572160,
          "time": 476.8,
          "velocity": 0.8267716535433071
        },
        {
          "duration": 0.3333333333333144,
          "durationTicks": 400,
          "midi": 67,
          "name": "G4",
          "ticks": 572160,
          "time": 476.8,
          "velocity": 0.8267716535433071
        },
        {
          "duration": 0.05000000000001137,
          "durationTicks": 60,
          "midi": 55,
          "name": "G3",
          "ticks": 572880,
          "time": 477.40000000000003,
          "velocity": 0.8267716535433071
        },
        {
          "duration": 0.049999999999954525,
          "durationTicks": 60,
          "midi": 57,
          "name": "A3",
          "ticks": 572940,
          "time": 477.45000000000005,
          "velocity": 0.8267716535433071
        },
        {
          "duration": 0.05000000000001137,
          "durationTicks": 60,
          "midi": 59,
          "name": "B3",
          "ticks": 573000,
          "time": 477.5,
          "velocity": 0.8267716535433071
        },
        {
          "duration": 0.05000000000001137,
          "durationTicks": 60,
          "midi": 60,
          "name": "C4",
          "ticks": 573060,
          "time": 477.55,
          "velocity": 0.8267716535433071
        },
        {
          "duration": 0.3333333333333144,
          "durationTicks": 400,
          "midi": 62,
          "name": "D4",
          "ticks": 573120,
          "time": 477.6,
          "velocity": 0.8267716535433071
        },
        {
          "duration": 0.049999999999954525,
          "durationTicks": 60,
          "midi": 62,
          "name": "D4",
          "ticks": 573840,
          "time": 478.20000000000005,
          "velocity": 0.8267716535433071
        },
        {
          "duration": 0.05000000000001137,
          "durationTicks": 60,
          "midi": 60,
          "name": "C4",
          "ticks": 573900,
          "time": 478.25,
          "velocity": 0.8267716535433071
        },
        {
          "duration": 0.05000000000001137,
          "durationTicks": 60,
          "midi": 59,
          "name": "B3",
          "ticks": 573960,
          "time": 478.3,
          "velocity": 0.8267716535433071
        },
        {
          "duration": 0.05000000000001137,
          "durationTicks": 60,
          "midi": 57,
          "name": "A3",
          "ticks": 574020,
          "time": 478.35,
          "velocity": 0.8267716535433071
        },
        {
          "duration": 0.3333333333333144,
          "durationTicks": 400,
          "midi": 55,
          "name": "G3",
          "ticks": 574080,
          "time": 478.40000000000003,
          "velocity": 0.8267716535433071
        },
        {
          "duration": 0.05000000000001137,
          "durationTicks": 60,
          "midi": 55,
          "name": "G3",
          "ticks": 574800,
          "time": 479,
          "velocity": 0.8267716535433071
        },
        {
          "duration": 0.05000000000001137,
          "durationTicks": 60,
          "midi": 57,
          "name": "A3",
          "ticks": 574860,
          "time": 479.05,
          "velocity": 0.8267716535433071
        },
        {
          "duration": 0.05000000000001137,
          "durationTicks": 60,
          "midi": 59,
          "name": "B3",
          "ticks": 574920,
          "time": 479.1,
          "velocity": 0.8267716535433071
        },
        {
          "duration": 0.05000000000001137,
          "durationTicks": 60,
          "midi": 60,
          "name": "C4",
          "ticks": 574980,
          "time": 479.15000000000003,
          "velocity": 0.8267716535433071
        },
        {
          "duration": 0.33333333333325754,
          "durationTicks": 400,
          "midi": 62,
          "name": "D4",
          "ticks": 575040,
          "time": 479.20000000000005,
          "velocity": 0.8267716535433071
        },
        {
          "duration": 0.05000000000001137,
          "durationTicks": 60,
          "midi": 62,
          "name": "D4",
          "ticks": 575760,
          "time": 479.8,
          "velocity": 0.8267716535433071
        },
        {
          "duration": 0.05000000000001137,
          "durationTicks": 60,
          "midi": 60,
          "name": "C4",
          "ticks": 575820,
          "time": 479.85,
          "velocity": 0.8267716535433071
        },
        {
          "duration": 0.05000000000001137,
          "durationTicks": 60,
          "midi": 59,
          "name": "B3",
          "ticks": 575880,
          "time": 479.90000000000003,
          "velocity": 0.8267716535433071
        },
        {
          "duration": 0.049999999999954525,
          "durationTicks": 60,
          "midi": 57,
          "name": "A3",
          "ticks": 575940,
          "time": 479.95000000000005,
          "velocity": 0.8267716535433071
        },
        {
          "duration": 0.3333333333333144,
          "durationTicks": 400,
          "midi": 55,
          "name": "G3",
          "ticks": 576000,
          "time": 480,
          "velocity": 0.8267716535433071
        },
        {
          "duration": 0.10000000000002274,
          "durationTicks": 120,
          "midi": 55,
          "name": "G3",
          "ticks": 580800,
          "time": 484,
          "velocity": 0.4015748031496063
        },
        {
          "duration": 0.0999999999999659,
          "durationTicks": 120,
          "midi": 55,
          "name": "G3",
          "ticks": 581280,
          "time": 484.40000000000003,
          "velocity": 0.4015748031496063
        },
        {
          "duration": 0.3333333333333144,
          "durationTicks": 400,
          "midi": 55,
          "name": "G3",
          "ticks": 581760,
          "time": 484.8,
          "velocity": 0.4015748031496063
        },
        {
          "duration": 0.10000000000002274,
          "durationTicks": 120,
          "midi": 55,
          "name": "G3",
          "ticks": 582720,
          "time": 485.6,
          "velocity": 0.4015748031496063
        },
        {
          "duration": 0.10000000000002274,
          "durationTicks": 120,
          "midi": 55,
          "name": "G3",
          "ticks": 583200,
          "time": 486,
          "velocity": 0.4015748031496063
        },
        {
          "duration": 0.19999999999998863,
          "durationTicks": 240,
          "midi": 55,
          "name": "G3",
          "ticks": 583680,
          "time": 486.40000000000003,
          "velocity": 0.4015748031496063
        },
        {
          "duration": 0.1966666666666015,
          "durationTicks": 236,
          "midi": 67,
          "name": "G4",
          "ticks": 583920,
          "time": 486.6,
          "velocity": 0.4015748031496063
        },
        {
          "duration": 0.06666666666671972,
          "durationTicks": 80,
          "midi": 64,
          "name": "E4",
          "ticks": 584160,
          "time": 486.8,
          "velocity": 0.4015748031496063
        },
        {
          "duration": 0.06666666666671972,
          "durationTicks": 80,
          "midi": 62,
          "name": "D4",
          "ticks": 584400,
          "time": 487,
          "velocity": 0.4015748031496063
        },
        {
          "duration": 0.06666666666666288,
          "durationTicks": 80,
          "midi": 61,
          "name": "C#4",
          "ticks": 584640,
          "time": 487.20000000000005,
          "velocity": 0.4015748031496063
        },
        {
          "duration": 0.06666666666666288,
          "durationTicks": 80,
          "midi": 64,
          "name": "E4",
          "ticks": 584880,
          "time": 487.40000000000003,
          "velocity": 0.4015748031496063
        },
        {
          "duration": 0.06666666666671972,
          "durationTicks": 80,
          "midi": 57,
          "name": "A3",
          "ticks": 585120,
          "time": 487.6,
          "velocity": 0.4015748031496063
        },
        {
          "duration": 0.06666666666671972,
          "durationTicks": 80,
          "midi": 67,
          "name": "G4",
          "ticks": 585360,
          "time": 487.8,
          "velocity": 0.4015748031496063
        },
        {
          "duration": 0.20000000000004547,
          "durationTicks": 240,
          "midi": 53,
          "name": "F3",
          "ticks": 585600,
          "time": 488,
          "velocity": 0.4015748031496063
        },
        {
          "duration": 0.1966666666666015,
          "durationTicks": 236,
          "midi": 65,
          "name": "F4",
          "ticks": 585840,
          "time": 488.20000000000005,
          "velocity": 0.4015748031496063
        },
        {
          "duration": 0.06666666666666288,
          "durationTicks": 80,
          "midi": 62,
          "name": "D4",
          "ticks": 586080,
          "time": 488.40000000000003,
          "velocity": 0.4015748031496063
        },
        {
          "duration": 0.06666666666671972,
          "durationTicks": 80,
          "midi": 60,
          "name": "C4",
          "ticks": 586320,
          "time": 488.6,
          "velocity": 0.4015748031496063
        },
        {
          "duration": 0.06666666666671972,
          "durationTicks": 80,
          "midi": 59,
          "name": "B3",
          "ticks": 586560,
          "time": 488.8,
          "velocity": 0.4015748031496063
        },
        {
          "duration": 0.06666666666671972,
          "durationTicks": 80,
          "midi": 62,
          "name": "D4",
          "ticks": 586800,
          "time": 489,
          "velocity": 0.4015748031496063
        },
        {
          "duration": 0.06666666666666288,
          "durationTicks": 80,
          "midi": 55,
          "name": "G3",
          "ticks": 587040,
          "time": 489.20000000000005,
          "velocity": 0.4015748031496063
        },
        {
          "duration": 0.06666666666666288,
          "durationTicks": 80,
          "midi": 65,
          "name": "F4",
          "ticks": 587280,
          "time": 489.40000000000003,
          "velocity": 0.4015748031496063
        },
        {
          "duration": 0.19999999999998863,
          "durationTicks": 240,
          "midi": 52,
          "name": "E3",
          "ticks": 587520,
          "time": 489.6,
          "velocity": 0.4015748031496063
        },
        {
          "duration": 0.19666666666665833,
          "durationTicks": 236,
          "midi": 64,
          "name": "E4",
          "ticks": 587760,
          "time": 489.8,
          "velocity": 0.4015748031496063
        },
        {
          "duration": 0.06666666666671972,
          "durationTicks": 80,
          "midi": 60,
          "name": "C4",
          "ticks": 588000,
          "time": 490,
          "velocity": 0.4015748031496063
        },
        {
          "duration": 0.06666666666666288,
          "durationTicks": 80,
          "midi": 59,
          "name": "B3",
          "ticks": 588240,
          "time": 490.20000000000005,
          "velocity": 0.4015748031496063
        },
        {
          "duration": 0.06666666666666288,
          "durationTicks": 80,
          "midi": 57,
          "name": "A3",
          "ticks": 588480,
          "time": 490.40000000000003,
          "velocity": 0.4015748031496063
        },
        {
          "duration": 0.06666666666671972,
          "durationTicks": 80,
          "midi": 60,
          "name": "C4",
          "ticks": 588720,
          "time": 490.6,
          "velocity": 0.4015748031496063
        },
        {
          "duration": 0.06666666666671972,
          "durationTicks": 80,
          "midi": 53,
          "name": "F3",
          "ticks": 588960,
          "time": 490.8,
          "velocity": 0.4015748031496063
        },
        {
          "duration": 0.06666666666671972,
          "durationTicks": 80,
          "midi": 64,
          "name": "E4",
          "ticks": 589200,
          "time": 491,
          "velocity": 0.4015748031496063
        },
        {
          "duration": 0.06666666666671972,
          "durationTicks": 80,
          "midi": 67,
          "name": "G4",
          "ticks": 589200,
          "time": 491,
          "velocity": 0.4015748031496063
        },
        {
          "duration": 0.06666666666666288,
          "durationTicks": 80,
          "midi": 62,
          "name": "D4",
          "ticks": 589440,
          "time": 491.20000000000005,
          "velocity": 0.4015748031496063
        },
        {
          "duration": 0.06666666666666288,
          "durationTicks": 80,
          "midi": 65,
          "name": "F4",
          "ticks": 589440,
          "time": 491.20000000000005,
          "velocity": 0.4015748031496063
        },
        {
          "duration": 0.06666666666666288,
          "durationTicks": 80,
          "midi": 60,
          "name": "C4",
          "ticks": 589680,
          "time": 491.40000000000003,
          "velocity": 0.4015748031496063
        },
        {
          "duration": 0.06666666666666288,
          "durationTicks": 80,
          "midi": 64,
          "name": "E4",
          "ticks": 589680,
          "time": 491.40000000000003,
          "velocity": 0.4015748031496063
        },
        {
          "duration": 0.06666666666671972,
          "durationTicks": 80,
          "midi": 59,
          "name": "B3",
          "ticks": 589920,
          "time": 491.6,
          "velocity": 0.4015748031496063
        },
        {
          "duration": 0.06666666666671972,
          "durationTicks": 80,
          "midi": 62,
          "name": "D4",
          "ticks": 589920,
          "time": 491.6,
          "velocity": 0.4015748031496063
        },
        {
          "duration": 0.06666666666671972,
          "durationTicks": 80,
          "midi": 57,
          "name": "A3",
          "ticks": 590160,
          "time": 491.8,
          "velocity": 0.4015748031496063
        },
        {
          "duration": 0.06666666666671972,
          "durationTicks": 80,
          "midi": 60,
          "name": "C4",
          "ticks": 590160,
          "time": 491.8,
          "velocity": 0.4015748031496063
        },
        {
          "duration": 0.06666666666671972,
          "durationTicks": 80,
          "midi": 55,
          "name": "G3",
          "ticks": 590400,
          "time": 492,
          "velocity": 0.4015748031496063
        },
        {
          "duration": 0.06666666666671972,
          "durationTicks": 80,
          "midi": 59,
          "name": "B3",
          "ticks": 590400,
          "time": 492,
          "velocity": 0.4015748031496063
        },
        {
          "duration": 0.06666666666666288,
          "durationTicks": 80,
          "midi": 53,
          "name": "F3",
          "ticks": 590640,
          "time": 492.20000000000005,
          "velocity": 0.4015748031496063
        },
        {
          "duration": 0.06666666666666288,
          "durationTicks": 80,
          "midi": 57,
          "name": "A3",
          "ticks": 590640,
          "time": 492.20000000000005,
          "velocity": 0.4015748031496063
        },
        {
          "duration": 0.06666666666666288,
          "durationTicks": 80,
          "midi": 52,
          "name": "E3",
          "ticks": 590880,
          "time": 492.40000000000003,
          "velocity": 0.4015748031496063
        },
        {
          "duration": 0.06666666666666288,
          "durationTicks": 80,
          "midi": 55,
          "name": "G3",
          "ticks": 590880,
          "time": 492.40000000000003,
          "velocity": 0.4015748031496063
        },
        {
          "duration": 0.06666666666671972,
          "durationTicks": 80,
          "midi": 50,
          "name": "D3",
          "ticks": 591120,
          "time": 492.6,
          "velocity": 0.4015748031496063
        },
        {
          "duration": 0.06666666666671972,
          "durationTicks": 80,
          "midi": 53,
          "name": "F3",
          "ticks": 591120,
          "time": 492.6,
          "velocity": 0.4015748031496063
        },
        {
          "duration": 0.3333333333333144,
          "durationTicks": 400,
          "midi": 48,
          "name": "C3",
          "ticks": 591360,
          "time": 492.8,
          "velocity": 0.8267716535433071
        },
        {
          "duration": 0.3333333333333144,
          "durationTicks": 400,
          "midi": 52,
          "name": "E3",
          "ticks": 591360,
          "time": 492.8,
          "velocity": 0.8267716535433071
        },
        {
          "duration": 0.06666666666666288,
          "durationTicks": 80,
          "midi": 43,
          "name": "G2",
          "ticks": 592080,
          "time": 493.40000000000003,
          "velocity": 0.8267716535433071
        },
        {
          "duration": 0.06666666666660603,
          "durationTicks": 80,
          "midi": 45,
          "name": "A2",
          "ticks": 592160,
          "time": 493.4666666666667,
          "velocity": 0.8267716535433071
        },
        {
          "duration": 0.06666666666671972,
          "durationTicks": 80,
          "midi": 47,
          "name": "B2",
          "ticks": 592240,
          "time": 493.5333333333333,
          "velocity": 0.8267716535433071
        },
        {
          "duration": 0.3333333333333144,
          "durationTicks": 400,
          "midi": 48,
          "name": "C3",
          "ticks": 592320,
          "time": 493.6,
          "velocity": 0.8267716535433071
        },
        {
          "duration": 0.06666666666666288,
          "durationTicks": 80,
          "midi": 43,
          "name": "G2",
          "ticks": 593040,
          "time": 494.20000000000005,
          "velocity": 0.8267716535433071
        },
        {
          "duration": 0.06666666666660603,
          "durationTicks": 80,
          "midi": 45,
          "name": "A2",
          "ticks": 593120,
          "time": 494.2666666666667,
          "velocity": 0.8267716535433071
        },
        {
          "duration": 0.06666666666671972,
          "durationTicks": 80,
          "midi": 47,
          "name": "B2",
          "ticks": 593200,
          "time": 494.3333333333333,
          "velocity": 0.8267716535433071
        },
        {
          "duration": 0.3333333333333144,
          "durationTicks": 400,
          "midi": 48,
          "name": "C3",
          "ticks": 593280,
          "time": 494.40000000000003,
          "velocity": 0.8267716535433071
        },
        {
          "duration": 0.33333333333325754,
          "durationTicks": 400,
          "midi": 55,
          "name": "G3",
          "ticks": 599040,
          "time": 499.20000000000005,
          "velocity": 0.8267716535433071
        },
        {
          "duration": 0.06666666666671972,
          "durationTicks": 80,
          "midi": 50,
          "name": "D3",
          "ticks": 599760,
          "time": 499.8,
          "velocity": 0.8267716535433071
        },
        {
          "duration": 0.06666666666660603,
          "durationTicks": 80,
          "midi": 52,
          "name": "E3",
          "ticks": 599840,
          "time": 499.86666666666673,
          "velocity": 0.8267716535433071
        },
        {
          "duration": 0.06666666666666288,
          "durationTicks": 80,
          "midi": 54,
          "name": "F#3",
          "ticks": 599920,
          "time": 499.93333333333334,
          "velocity": 0.8267716535433071
        },
        {
          "duration": 0.3333333333333144,
          "durationTicks": 400,
          "midi": 55,
          "name": "G3",
          "ticks": 600000,
          "time": 500,
          "velocity": 0.8267716535433071
        },
        {
          "duration": 0.06666666666671972,
          "durationTicks": 80,
          "midi": 50,
          "name": "D3",
          "ticks": 600720,
          "time": 500.6,
          "velocity": 0.8267716535433071
        },
        {
          "duration": 0.06666666666660603,
          "durationTicks": 80,
          "midi": 52,
          "name": "E3",
          "ticks": 600800,
          "time": 500.66666666666674,
          "velocity": 0.8267716535433071
        },
        {
          "duration": 0.06666666666666288,
          "durationTicks": 80,
          "midi": 54,
          "name": "F#3",
          "ticks": 600880,
          "time": 500.73333333333335,
          "velocity": 0.8267716535433071
        },
        {
          "duration": 0.3333333333333144,
          "durationTicks": 400,
          "midi": 55,
          "name": "G3",
          "ticks": 600960,
          "time": 500.8,
          "velocity": 0.8267716535433071
        },
        {
          "duration": 0.3333333333333144,
          "durationTicks": 400,
          "midi": 55,
          "name": "G3",
          "ticks": 606720,
          "time": 505.6,
          "velocity": 0.8267716535433071
        },
        {
          "duration": 0.3333333333333144,
          "durationTicks": 400,
          "midi": 64,
          "name": "E4",
          "ticks": 606720,
          "time": 505.6,
          "velocity": 0.8267716535433071
        },
        {
          "duration": 0.2966666666666242,
          "durationTicks": 356,
          "midi": 55,
          "name": "G3",
          "ticks": 607200,
          "time": 506,
          "velocity": 0.8267716535433071
        },
        {
          "duration": 0.2966666666666242,
          "durationTicks": 356,
          "midi": 64,
          "name": "E4",
          "ticks": 607200,
          "time": 506,
          "velocity": 0.8267716535433071
        },
        {
          "duration": 0.09666666666663559,
          "durationTicks": 116,
          "midi": 55,
          "name": "G3",
          "ticks": 607560,
          "time": 506.3,
          "velocity": 0.8267716535433071
        },
        {
          "duration": 0.09666666666663559,
          "durationTicks": 116,
          "midi": 64,
          "name": "E4",
          "ticks": 607560,
          "time": 506.3,
          "velocity": 0.8267716535433071
        },
        {
          "duration": 0.3333333333333144,
          "durationTicks": 400,
          "midi": 55,
          "name": "G3",
          "ticks": 607680,
          "time": 506.40000000000003,
          "velocity": 0.8267716535433071
        },
        {
          "duration": 0.3333333333333144,
          "durationTicks": 400,
          "midi": 64,
          "name": "E4",
          "ticks": 607680,
          "time": 506.40000000000003,
          "velocity": 0.8267716535433071
        },
        {
          "duration": 0.3333333333333144,
          "durationTicks": 400,
          "midi": 55,
          "name": "G3",
          "ticks": 608160,
          "time": 506.8,
          "velocity": 0.8267716535433071
        },
        {
          "duration": 0.3333333333333144,
          "durationTicks": 400,
          "midi": 64,
          "name": "E4",
          "ticks": 608160,
          "time": 506.8,
          "velocity": 0.8267716535433071
        },
        {
          "duration": 0.33333333333325754,
          "durationTicks": 400,
          "midi": 57,
          "name": "A3",
          "ticks": 608640,
          "time": 507.20000000000005,
          "velocity": 0.8267716535433071
        },
        {
          "duration": 0.33333333333325754,
          "durationTicks": 400,
          "midi": 65,
          "name": "F4",
          "ticks": 608640,
          "time": 507.20000000000005,
          "velocity": 0.8267716535433071
        },
        {
          "duration": 0.2966666666666242,
          "durationTicks": 356,
          "midi": 57,
          "name": "A3",
          "ticks": 609120,
          "time": 507.6,
          "velocity": 0.8267716535433071
        },
        {
          "duration": 0.2966666666666242,
          "durationTicks": 356,
          "midi": 65,
          "name": "F4",
          "ticks": 609120,
          "time": 507.6,
          "velocity": 0.8267716535433071
        },
        {
          "duration": 0.09666666666663559,
          "durationTicks": 116,
          "midi": 57,
          "name": "A3",
          "ticks": 609480,
          "time": 507.90000000000003,
          "velocity": 0.8267716535433071
        },
        {
          "duration": 0.09666666666663559,
          "durationTicks": 116,
          "midi": 65,
          "name": "F4",
          "ticks": 609480,
          "time": 507.90000000000003,
          "velocity": 0.8267716535433071
        },
        {
          "duration": 0.3333333333333144,
          "durationTicks": 400,
          "midi": 57,
          "name": "A3",
          "ticks": 609600,
          "time": 508,
          "velocity": 0.8267716535433071
        },
        {
          "duration": 0.3333333333333144,
          "durationTicks": 400,
          "midi": 65,
          "name": "F4",
          "ticks": 609600,
          "time": 508,
          "velocity": 0.8267716535433071
        },
        {
          "duration": 0.3333333333333144,
          "durationTicks": 400,
          "midi": 57,
          "name": "A3",
          "ticks": 610080,
          "time": 508.40000000000003,
          "velocity": 0.8267716535433071
        },
        {
          "duration": 0.3333333333333144,
          "durationTicks": 400,
          "midi": 65,
          "name": "F4",
          "ticks": 610080,
          "time": 508.40000000000003,
          "velocity": 0.8267716535433071
        },
        {
          "duration": 0.3333333333333144,
          "durationTicks": 400,
          "midi": 59,
          "name": "B3",
          "ticks": 610560,
          "time": 508.8,
          "velocity": 0.8267716535433071
        },
        {
          "duration": 0.3333333333333144,
          "durationTicks": 400,
          "midi": 65,
          "name": "F4",
          "ticks": 610560,
          "time": 508.8,
          "velocity": 0.8267716535433071
        },
        {
          "duration": 0.2966666666666242,
          "durationTicks": 356,
          "midi": 59,
          "name": "B3",
          "ticks": 611040,
          "time": 509.20000000000005,
          "velocity": 0.8267716535433071
        },
        {
          "duration": 0.2966666666666242,
          "durationTicks": 356,
          "midi": 65,
          "name": "F4",
          "ticks": 611040,
          "time": 509.20000000000005,
          "velocity": 0.8267716535433071
        },
        {
          "duration": 0.09666666666663559,
          "durationTicks": 116,
          "midi": 59,
          "name": "B3",
          "ticks": 611400,
          "time": 509.5,
          "velocity": 0.8267716535433071
        },
        {
          "duration": 0.09666666666663559,
          "durationTicks": 116,
          "midi": 65,
          "name": "F4",
          "ticks": 611400,
          "time": 509.5,
          "velocity": 0.8267716535433071
        },
        {
          "duration": 0.3333333333333144,
          "durationTicks": 400,
          "midi": 59,
          "name": "B3",
          "ticks": 611520,
          "time": 509.6,
          "velocity": 0.8267716535433071
        },
        {
          "duration": 0.3333333333333144,
          "durationTicks": 400,
          "midi": 65,
          "name": "F4",
          "ticks": 611520,
          "time": 509.6,
          "velocity": 0.8267716535433071
        },
        {
          "duration": 0.3333333333333144,
          "durationTicks": 400,
          "midi": 59,
          "name": "B3",
          "ticks": 612000,
          "time": 510,
          "velocity": 0.8267716535433071
        },
        {
          "duration": 0.3333333333333144,
          "durationTicks": 400,
          "midi": 65,
          "name": "F4",
          "ticks": 612000,
          "time": 510,
          "velocity": 0.8267716535433071
        },
        {
          "duration": 0.3333333333333144,
          "durationTicks": 400,
          "midi": 60,
          "name": "C4",
          "ticks": 612480,
          "time": 510.40000000000003,
          "velocity": 0.8267716535433071
        },
        {
          "duration": 0.3333333333333144,
          "durationTicks": 400,
          "midi": 64,
          "name": "E4",
          "ticks": 612480,
          "time": 510.40000000000003,
          "velocity": 0.8267716535433071
        },
        {
          "duration": 0.2966666666666242,
          "durationTicks": 356,
          "midi": 55,
          "name": "G3",
          "ticks": 612960,
          "time": 510.8,
          "velocity": 0.8267716535433071
        },
        {
          "duration": 0.2966666666666242,
          "durationTicks": 356,
          "midi": 64,
          "name": "E4",
          "ticks": 612960,
          "time": 510.8,
          "velocity": 0.8267716535433071
        },
        {
          "duration": 0.09666666666663559,
          "durationTicks": 116,
          "midi": 55,
          "name": "G3",
          "ticks": 613320,
          "time": 511.1,
          "velocity": 0.8267716535433071
        },
        {
          "duration": 0.09666666666663559,
          "durationTicks": 116,
          "midi": 64,
          "name": "E4",
          "ticks": 613320,
          "time": 511.1,
          "velocity": 0.8267716535433071
        },
        {
          "duration": 0.33333333333325754,
          "durationTicks": 400,
          "midi": 55,
          "name": "G3",
          "ticks": 613440,
          "time": 511.20000000000005,
          "velocity": 0.8267716535433071
        },
        {
          "duration": 0.33333333333325754,
          "durationTicks": 400,
          "midi": 64,
          "name": "E4",
          "ticks": 613440,
          "time": 511.20000000000005,
          "velocity": 0.8267716535433071
        },
        {
          "duration": 0.3333333333333144,
          "durationTicks": 400,
          "midi": 55,
          "name": "G3",
          "ticks": 613920,
          "time": 511.6,
          "velocity": 0.8267716535433071
        },
        {
          "duration": 0.3333333333333144,
          "durationTicks": 400,
          "midi": 64,
          "name": "E4",
          "ticks": 613920,
          "time": 511.6,
          "velocity": 0.8267716535433071
        },
        {
          "duration": 0.33333333333337123,
          "durationTicks": 400,
          "midi": 57,
          "name": "A3",
          "ticks": 614400,
          "time": 512,
          "velocity": 0.8267716535433071
        },
        {
          "duration": 0.33333333333337123,
          "durationTicks": 400,
          "midi": 65,
          "name": "F4",
          "ticks": 614400,
          "time": 512,
          "velocity": 0.8267716535433071
        },
        {
          "duration": 0.2966666666666242,
          "durationTicks": 356,
          "midi": 57,
          "name": "A3",
          "ticks": 614880,
          "time": 512.4,
          "velocity": 0.8267716535433071
        },
        {
          "duration": 0.2966666666666242,
          "durationTicks": 356,
          "midi": 65,
          "name": "F4",
          "ticks": 614880,
          "time": 512.4,
          "velocity": 0.8267716535433071
        },
        {
          "duration": 0.09666666666657875,
          "durationTicks": 116,
          "midi": 57,
          "name": "A3",
          "ticks": 615240,
          "time": 512.7,
          "velocity": 0.8267716535433071
        },
        {
          "duration": 0.09666666666657875,
          "durationTicks": 116,
          "midi": 65,
          "name": "F4",
          "ticks": 615240,
          "time": 512.7,
          "velocity": 0.8267716535433071
        },
        {
          "duration": 0.33333333333325754,
          "durationTicks": 400,
          "midi": 57,
          "name": "A3",
          "ticks": 615360,
          "time": 512.8000000000001,
          "velocity": 0.8267716535433071
        },
        {
          "duration": 0.33333333333325754,
          "durationTicks": 400,
          "midi": 65,
          "name": "F4",
          "ticks": 615360,
          "time": 512.8000000000001,
          "velocity": 0.8267716535433071
        },
        {
          "duration": 0.33333333333325754,
          "durationTicks": 400,
          "midi": 57,
          "name": "A3",
          "ticks": 615840,
          "time": 513.2,
          "velocity": 0.8267716535433071
        },
        {
          "duration": 0.33333333333325754,
          "durationTicks": 400,
          "midi": 65,
          "name": "F4",
          "ticks": 615840,
          "time": 513.2,
          "velocity": 0.8267716535433071
        },
        {
          "duration": 0.33333333333325754,
          "durationTicks": 400,
          "midi": 59,
          "name": "B3",
          "ticks": 616320,
          "time": 513.6,
          "velocity": 0.8267716535433071
        },
        {
          "duration": 0.33333333333325754,
          "durationTicks": 400,
          "midi": 65,
          "name": "F4",
          "ticks": 616320,
          "time": 513.6,
          "velocity": 0.8267716535433071
        },
        {
          "duration": 0.2966666666666242,
          "durationTicks": 356,
          "midi": 59,
          "name": "B3",
          "ticks": 616800,
          "time": 514,
          "velocity": 0.8267716535433071
        },
        {
          "duration": 0.2966666666666242,
          "durationTicks": 356,
          "midi": 65,
          "name": "F4",
          "ticks": 616800,
          "time": 514,
          "velocity": 0.8267716535433071
        },
        {
          "duration": 0.09666666666657875,
          "durationTicks": 116,
          "midi": 59,
          "name": "B3",
          "ticks": 617160,
          "time": 514.3000000000001,
          "velocity": 0.8267716535433071
        },
        {
          "duration": 0.09666666666657875,
          "durationTicks": 116,
          "midi": 65,
          "name": "F4",
          "ticks": 617160,
          "time": 514.3000000000001,
          "velocity": 0.8267716535433071
        },
        {
          "duration": 0.33333333333337123,
          "durationTicks": 400,
          "midi": 59,
          "name": "B3",
          "ticks": 617280,
          "time": 514.4,
          "velocity": 0.8267716535433071
        },
        {
          "duration": 0.33333333333337123,
          "durationTicks": 400,
          "midi": 65,
          "name": "F4",
          "ticks": 617280,
          "time": 514.4,
          "velocity": 0.8267716535433071
        },
        {
          "duration": 0.33333333333325754,
          "durationTicks": 400,
          "midi": 59,
          "name": "B3",
          "ticks": 617760,
          "time": 514.8000000000001,
          "velocity": 0.8267716535433071
        },
        {
          "duration": 0.33333333333325754,
          "durationTicks": 400,
          "midi": 65,
          "name": "F4",
          "ticks": 617760,
          "time": 514.8000000000001,
          "velocity": 0.8267716535433071
        },
        {
          "duration": 0.33333333333325754,
          "durationTicks": 400,
          "midi": 60,
          "name": "C4",
          "ticks": 618240,
          "time": 515.2,
          "velocity": 0.8267716535433071
        },
        {
          "duration": 0.33333333333325754,
          "durationTicks": 400,
          "midi": 64,
          "name": "E4",
          "ticks": 618240,
          "time": 515.2,
          "velocity": 0.8267716535433071
        },
        {
          "duration": 0.33333333333337123,
          "durationTicks": 400,
          "midi": 59,
          "name": "B3",
          "ticks": 619200,
          "time": 516,
          "velocity": 0.8267716535433071
        },
        {
          "duration": 0.33333333333337123,
          "durationTicks": 400,
          "midi": 62,
          "name": "D4",
          "ticks": 619200,
          "time": 516,
          "velocity": 0.8267716535433071
        },
        {
          "duration": 0.33333333333325754,
          "durationTicks": 400,
          "midi": 60,
          "name": "C4",
          "ticks": 620160,
          "time": 516.8000000000001,
          "velocity": 0.8267716535433071
        },
        {
          "duration": 0.33333333333325754,
          "durationTicks": 400,
          "midi": 64,
          "name": "E4",
          "ticks": 620160,
          "time": 516.8000000000001,
          "velocity": 0.8267716535433071
        },
        {
          "duration": 0.33333333333325754,
          "durationTicks": 400,
          "midi": 59,
          "name": "B3",
          "ticks": 621120,
          "time": 517.6,
          "velocity": 0.8267716535433071
        },
        {
          "duration": 0.33333333333325754,
          "durationTicks": 400,
          "midi": 62,
          "name": "D4",
          "ticks": 621120,
          "time": 517.6,
          "velocity": 0.8267716535433071
        },
        {
          "duration": 0.33333333333337123,
          "durationTicks": 400,
          "midi": 60,
          "name": "C4",
          "ticks": 622080,
          "time": 518.4,
          "velocity": 0.8267716535433071
        },
        {
          "duration": 0.33333333333337123,
          "durationTicks": 400,
          "midi": 64,
          "name": "E4",
          "ticks": 622080,
          "time": 518.4,
          "velocity": 0.8267716535433071
        },
        {
          "duration": 0.1966666666666015,
          "durationTicks": 236,
          "midi": 55,
          "name": "G3",
          "ticks": 622560,
          "time": 518.8000000000001,
          "velocity": 0.8267716535433071
        },
        {
          "duration": 0.1966666666666015,
          "durationTicks": 236,
          "midi": 55,
          "name": "G3",
          "ticks": 622800,
          "time": 519,
          "velocity": 0.8267716535433071
        },
        {
          "duration": 0.1966666666666015,
          "durationTicks": 236,
          "midi": 60,
          "name": "C4",
          "ticks": 623040,
          "time": 519.2,
          "velocity": 0.8267716535433071
        },
        {
          "duration": 0.19666666666671517,
          "durationTicks": 236,
          "midi": 60,
          "name": "C4",
          "ticks": 623280,
          "time": 519.4,
          "velocity": 0.8267716535433071
        },
        {
          "duration": 0.1966666666666015,
          "durationTicks": 236,
          "midi": 55,
          "name": "G3",
          "ticks": 623520,
          "time": 519.6,
          "velocity": 0.8267716535433071
        },
        {
          "duration": 0.1966666666666015,
          "durationTicks": 236,
          "midi": 55,
          "name": "G3",
          "ticks": 623760,
          "time": 519.8000000000001,
          "velocity": 0.8267716535433071
        },
        {
          "duration": 0.1966666666666015,
          "durationTicks": 236,
          "midi": 60,
          "name": "C4",
          "ticks": 624000,
          "time": 520,
          "velocity": 0.8267716535433071
        },
        {
          "duration": 0.1966666666666015,
          "durationTicks": 236,
          "midi": 60,
          "name": "C4",
          "ticks": 624240,
          "time": 520.2,
          "velocity": 0.8267716535433071
        },
        {
          "duration": 0.19666666666671517,
          "durationTicks": 236,
          "midi": 55,
          "name": "G3",
          "ticks": 624480,
          "time": 520.4,
          "velocity": 0.8267716535433071
        },
        {
          "duration": 0.1966666666666015,
          "durationTicks": 236,
          "midi": 55,
          "name": "G3",
          "ticks": 624720,
          "time": 520.6,
          "velocity": 0.8267716535433071
        },
        {
          "duration": 0.1966666666666015,
          "durationTicks": 236,
          "midi": 52,
          "name": "E3",
          "ticks": 624960,
          "time": 520.8000000000001,
          "velocity": 0.8267716535433071
        },
        {
          "duration": 0.1966666666666015,
          "durationTicks": 236,
          "midi": 52,
          "name": "E3",
          "ticks": 625200,
          "time": 521,
          "velocity": 0.8267716535433071
        },
        {
          "duration": 0.1966666666666015,
          "durationTicks": 236,
          "midi": 48,
          "name": "C3",
          "ticks": 625440,
          "time": 521.2,
          "velocity": 0.8267716535433071
        },
        {
          "duration": 0.19666666666671517,
          "durationTicks": 236,
          "midi": 48,
          "name": "C3",
          "ticks": 625680,
          "time": 521.4,
          "velocity": 0.8267716535433071
        },
        {
          "duration": 0.33333333333325754,
          "durationTicks": 400,
          "midi": 52,
          "name": "E3",
          "ticks": 625920,
          "time": 521.6,
          "velocity": 0.8267716535433071
        },
        {
          "duration": 0.33333333333337123,
          "durationTicks": 400,
          "midi": 59,
          "name": "B3",
          "ticks": 626400,
          "time": 522,
          "velocity": 0.8267716535433071
        },
        {
          "duration": 0.33333333333337123,
          "durationTicks": 400,
          "midi": 62,
          "name": "D4",
          "ticks": 626400,
          "time": 522,
          "velocity": 0.8267716535433071
        },
        {
          "duration": 0.33333333333325754,
          "durationTicks": 400,
          "midi": 60,
          "name": "C4",
          "ticks": 627360,
          "time": 522.8000000000001,
          "velocity": 0.8267716535433071
        },
        {
          "duration": 0.33333333333325754,
          "durationTicks": 400,
          "midi": 64,
          "name": "E4",
          "ticks": 627360,
          "time": 522.8000000000001,
          "velocity": 0.8267716535433071
        },
        {
          "duration": 0.33333333333325754,
          "durationTicks": 400,
          "midi": 59,
          "name": "B3",
          "ticks": 628320,
          "time": 523.6,
          "velocity": 0.8267716535433071
        },
        {
          "duration": 0.33333333333325754,
          "durationTicks": 400,
          "midi": 62,
          "name": "D4",
          "ticks": 628320,
          "time": 523.6,
          "velocity": 0.8267716535433071
        },
        {
          "duration": 0.33333333333337123,
          "durationTicks": 400,
          "midi": 60,
          "name": "C4",
          "ticks": 629280,
          "time": 524.4,
          "velocity": 0.8267716535433071
        },
        {
          "duration": 0.33333333333337123,
          "durationTicks": 400,
          "midi": 64,
          "name": "E4",
          "ticks": 629280,
          "time": 524.4,
          "velocity": 0.8267716535433071
        },
        {
          "duration": 0.1966666666666015,
          "durationTicks": 236,
          "midi": 59,
          "name": "B3",
          "ticks": 629760,
          "time": 524.8000000000001,
          "velocity": 0.8267716535433071
        },
        {
          "duration": 0.1966666666666015,
          "durationTicks": 236,
          "midi": 62,
          "name": "D4",
          "ticks": 629760,
          "time": 524.8000000000001,
          "velocity": 0.8267716535433071
        },
        {
          "duration": 0.1966666666666015,
          "durationTicks": 236,
          "midi": 60,
          "name": "C4",
          "ticks": 630000,
          "time": 525,
          "velocity": 0.8346456692913385
        },
        {
          "duration": 0.1966666666666015,
          "durationTicks": 236,
          "midi": 64,
          "name": "E4",
          "ticks": 630000,
          "time": 525,
          "velocity": 0.8346456692913385
        },
        {
          "duration": 0.1966666666666015,
          "durationTicks": 236,
          "midi": 59,
          "name": "B3",
          "ticks": 630240,
          "time": 525.2,
          "velocity": 0.8503937007874016
        },
        {
          "duration": 0.1966666666666015,
          "durationTicks": 236,
          "midi": 62,
          "name": "D4",
          "ticks": 630240,
          "time": 525.2,
          "velocity": 0.8503937007874016
        },
        {
          "duration": 0.19666666666671517,
          "durationTicks": 236,
          "midi": 60,
          "name": "C4",
          "ticks": 630480,
          "time": 525.4,
          "velocity": 0.8582677165354331
        },
        {
          "duration": 0.19666666666671517,
          "durationTicks": 236,
          "midi": 64,
          "name": "E4",
          "ticks": 630480,
          "time": 525.4,
          "velocity": 0.8582677165354331
        },
        {
          "duration": 0.1966666666666015,
          "durationTicks": 236,
          "midi": 59,
          "name": "B3",
          "ticks": 630720,
          "time": 525.6,
          "velocity": 0.8661417322834646
        },
        {
          "duration": 0.1966666666666015,
          "durationTicks": 236,
          "midi": 62,
          "name": "D4",
          "ticks": 630720,
          "time": 525.6,
          "velocity": 0.8661417322834646
        },
        {
          "duration": 0.1966666666666015,
          "durationTicks": 236,
          "midi": 60,
          "name": "C4",
          "ticks": 630960,
          "time": 525.8000000000001,
          "velocity": 0.8740157480314961
        },
        {
          "duration": 0.1966666666666015,
          "durationTicks": 236,
          "midi": 64,
          "name": "E4",
          "ticks": 630960,
          "time": 525.8000000000001,
          "velocity": 0.8740157480314961
        },
        {
          "duration": 0.1966666666666015,
          "durationTicks": 236,
          "midi": 59,
          "name": "B3",
          "ticks": 631200,
          "time": 526,
          "velocity": 0.8818897637795275
        },
        {
          "duration": 0.1966666666666015,
          "durationTicks": 236,
          "midi": 62,
          "name": "D4",
          "ticks": 631200,
          "time": 526,
          "velocity": 0.8818897637795275
        },
        {
          "duration": 0.1966666666666015,
          "durationTicks": 236,
          "midi": 60,
          "name": "C4",
          "ticks": 631440,
          "time": 526.2,
          "velocity": 0.889763779527559
        },
        {
          "duration": 0.1966666666666015,
          "durationTicks": 236,
          "midi": 64,
          "name": "E4",
          "ticks": 631440,
          "time": 526.2,
          "velocity": 0.889763779527559
        },
        {
          "duration": 0.33333333333337123,
          "durationTicks": 400,
          "midi": 59,
          "name": "B3",
          "ticks": 631680,
          "time": 526.4,
          "velocity": 0.905511811023622
        },
        {
          "duration": 0.33333333333337123,
          "durationTicks": 400,
          "midi": 62,
          "name": "D4",
          "ticks": 631680,
          "time": 526.4,
          "velocity": 0.905511811023622
        },
        {
          "duration": 0.33333333333325754,
          "durationTicks": 400,
          "midi": 43,
          "name": "G2",
          "ticks": 632640,
          "time": 527.2,
          "velocity": 0.937007874015748
        },
        {
          "duration": 0.33333333333325754,
          "durationTicks": 400,
          "midi": 55,
          "name": "G3",
          "ticks": 632640,
          "time": 527.2,
          "velocity": 0.937007874015748
        },
        {
          "duration": 0.33333333333325754,
          "durationTicks": 400,
          "midi": 43,
          "name": "G2",
          "ticks": 633120,
          "time": 527.6,
          "velocity": 0.952755905511811
        },
        {
          "duration": 0.33333333333325754,
          "durationTicks": 400,
          "midi": 55,
          "name": "G3",
          "ticks": 633120,
          "time": 527.6,
          "velocity": 0.952755905511811
        },
        {
          "duration": 1.5,
          "durationTicks": 1800,
          "midi": 43,
          "name": "G2",
          "ticks": 633600,
          "time": 528,
          "velocity": 0.9763779527559056
        },
        {
          "duration": 1.5,
          "durationTicks": 1800,
          "midi": 55,
          "name": "G3",
          "ticks": 633600,
          "time": 528,
          "velocity": 0.9763779527559056
        },
        {
          "duration": 0.39999999999997726,
          "durationTicks": 480,
          "midi": 48,
          "name": "C3",
          "ticks": 635520,
          "time": 529.6,
          "velocity": 0.4015748031496063
        },
        {
          "duration": 0.39999999999997726,
          "durationTicks": 480,
          "midi": 60,
          "name": "C4",
          "ticks": 635520,
          "time": 529.6,
          "velocity": 0.4015748031496063
        },
        {
          "duration": 0.39999999999997726,
          "durationTicks": 480,
          "midi": 51,
          "name": "D#3",
          "ticks": 636000,
          "time": 530,
          "velocity": 0.4015748031496063
        },
        {
          "duration": 0.39999999999997726,
          "durationTicks": 480,
          "midi": 63,
          "name": "D#4",
          "ticks": 636000,
          "time": 530,
          "velocity": 0.4015748031496063
        },
        {
          "duration": 0.40000000000009095,
          "durationTicks": 480,
          "midi": 55,
          "name": "G3",
          "ticks": 636480,
          "time": 530.4,
          "velocity": 0.4015748031496063
        },
        {
          "duration": 0.40000000000009095,
          "durationTicks": 480,
          "midi": 67,
          "name": "G4",
          "ticks": 636480,
          "time": 530.4,
          "velocity": 0.4015748031496063
        },
        {
          "duration": 0.33333333333325754,
          "durationTicks": 400,
          "midi": 51,
          "name": "D#3",
          "ticks": 636960,
          "time": 530.8000000000001,
          "velocity": 0.4015748031496063
        },
        {
          "duration": 0.33333333333325754,
          "durationTicks": 400,
          "midi": 63,
          "name": "D#4",
          "ticks": 636960,
          "time": 530.8000000000001,
          "velocity": 0.4015748031496063
        },
        {
          "duration": 0.33333333333325754,
          "durationTicks": 400,
          "midi": 48,
          "name": "C3",
          "ticks": 637440,
          "time": 531.2,
          "velocity": 0.4015748031496063
        },
        {
          "duration": 0.33333333333325754,
          "durationTicks": 400,
          "midi": 60,
          "name": "C4",
          "ticks": 637440,
          "time": 531.2,
          "velocity": 0.4015748031496063
        },
        {
          "duration": 2.699999999999932,
          "durationTicks": 3240,
          "midi": 58,
          "name": "A#3",
          "ticks": 639360,
          "time": 532.8000000000001,
          "velocity": 0.4015748031496063
        },
        {
          "duration": 0.8000000000000682,
          "durationTicks": 960,
          "midi": 53,
          "name": "F3",
          "ticks": 643200,
          "time": 536,
          "velocity": 0.4015748031496063
        },
        {
          "duration": 0.8000000000000682,
          "durationTicks": 960,
          "midi": 56,
          "name": "G#3",
          "ticks": 643200,
          "time": 536,
          "velocity": 0.4015748031496063
        },
        {
          "duration": 0.996666666666556,
          "durationTicks": 1196,
          "midi": 56,
          "name": "G#3",
          "ticks": 644160,
          "time": 536.8000000000001,
          "velocity": 0.4015748031496063
        },
        {
          "duration": 0.996666666666556,
          "durationTicks": 1196,
          "midi": 65,
          "name": "F4",
          "ticks": 644160,
          "time": 536.8000000000001,
          "velocity": 0.4015748031496063
        },
        {
          "duration": 0.06666666666660603,
          "durationTicks": 80,
          "midi": 55,
          "name": "G3",
          "ticks": 645360,
          "time": 537.8000000000001,
          "velocity": 0.4015748031496063
        },
        {
          "duration": 0.06666666666660603,
          "durationTicks": 80,
          "midi": 63,
          "name": "D#4",
          "ticks": 645360,
          "time": 537.8000000000001,
          "velocity": 0.4015748031496063
        },
        {
          "duration": 0.06666666666671972,
          "durationTicks": 80,
          "midi": 53,
          "name": "F3",
          "ticks": 645600,
          "time": 538,
          "velocity": 0.4015748031496063
        },
        {
          "duration": 0.06666666666671972,
          "durationTicks": 80,
          "midi": 62,
          "name": "D4",
          "ticks": 645600,
          "time": 538,
          "velocity": 0.4015748031496063
        },
        {
          "duration": 0.06666666666671972,
          "durationTicks": 80,
          "midi": 51,
          "name": "D#3",
          "ticks": 645840,
          "time": 538.2,
          "velocity": 0.4015748031496063
        },
        {
          "duration": 0.06666666666671972,
          "durationTicks": 80,
          "midi": 60,
          "name": "C4",
          "ticks": 645840,
          "time": 538.2,
          "velocity": 0.4015748031496063
        },
        {
          "duration": 0.06666666666671972,
          "durationTicks": 80,
          "midi": 50,
          "name": "D3",
          "ticks": 646080,
          "time": 538.4,
          "velocity": 0.4015748031496063
        },
        {
          "duration": 0.06666666666671972,
          "durationTicks": 80,
          "midi": 58,
          "name": "A#3",
          "ticks": 646080,
          "time": 538.4,
          "velocity": 0.4015748031496063
        },
        {
          "duration": 0.06666666666671972,
          "durationTicks": 80,
          "midi": 53,
          "name": "F3",
          "ticks": 646320,
          "time": 538.6,
          "velocity": 0.4015748031496063
        },
        {
          "duration": 0.06666666666671972,
          "durationTicks": 80,
          "midi": 56,
          "name": "G#3",
          "ticks": 646320,
          "time": 538.6,
          "velocity": 0.4015748031496063
        },
        {
          "duration": 0.06666666666660603,
          "durationTicks": 80,
          "midi": 51,
          "name": "D#3",
          "ticks": 646560,
          "time": 538.8000000000001,
          "velocity": 0.4015748031496063
        },
        {
          "duration": 0.06666666666660603,
          "durationTicks": 80,
          "midi": 55,
          "name": "G3",
          "ticks": 646560,
          "time": 538.8000000000001,
          "velocity": 0.4015748031496063
        },
        {
          "duration": 0.06666666666671972,
          "durationTicks": 80,
          "midi": 50,
          "name": "D3",
          "ticks": 646800,
          "time": 539,
          "velocity": 0.4015748031496063
        },
        {
          "duration": 0.06666666666671972,
          "durationTicks": 80,
          "midi": 53,
          "name": "F3",
          "ticks": 646800,
          "time": 539,
          "velocity": 0.4015748031496063
        },
        {
          "duration": 0.7999999999999545,
          "durationTicks": 960,
          "midi": 55,
          "name": "G3",
          "ticks": 647040,
          "time": 539.2,
          "velocity": 0.4015748031496063
        },
        {
          "duration": 0.7999999999999545,
          "durationTicks": 960,
          "midi": 58,
          "name": "A#3",
          "ticks": 647040,
          "time": 539.2,
          "velocity": 0.4015748031496063
        },
        {
          "duration": 0.7000000000000455,
          "durationTicks": 840,
          "midi": 53,
          "name": "F3",
          "ticks": 648000,
          "time": 540,
          "velocity": 0.4015748031496063
        },
        {
          "duration": 0.7000000000000455,
          "durationTicks": 840,
          "midi": 56,
          "name": "G#3",
          "ticks": 648000,
          "time": 540,
          "velocity": 0.4015748031496063
        },
        {
          "duration": 0.09999999999990905,
          "durationTicks": 120,
          "midi": 52,
          "name": "E3",
          "ticks": 648960,
          "time": 540.8000000000001,
          "velocity": 0.4015748031496063
        },
        {
          "duration": 0.09999999999990905,
          "durationTicks": 120,
          "midi": 55,
          "name": "G3",
          "ticks": 648960,
          "time": 540.8000000000001,
          "velocity": 0.4015748031496063
        },
        {
          "duration": 0.10000000000002274,
          "durationTicks": 120,
          "midi": 52,
          "name": "E3",
          "ticks": 649440,
          "time": 541.2,
          "velocity": 0.4015748031496063
        },
        {
          "duration": 0.10000000000002274,
          "durationTicks": 120,
          "midi": 60,
          "name": "C4",
          "ticks": 649440,
          "time": 541.2,
          "velocity": 0.4015748031496063
        },
        {
          "duration": 0.10000000000002274,
          "durationTicks": 120,
          "midi": 52,
          "name": "E3",
          "ticks": 649920,
          "time": 541.6,
          "velocity": 0.4015748031496063
        },
        {
          "duration": 0.10000000000002274,
          "durationTicks": 120,
          "midi": 60,
          "name": "C4",
          "ticks": 649920,
          "time": 541.6,
          "velocity": 0.4015748031496063
        },
        {
          "duration": 0.40000000000009095,
          "durationTicks": 480,
          "midi": 65,
          "name": "F4",
          "ticks": 653280,
          "time": 544.4,
          "velocity": 0.4015748031496063
        },
        {
          "duration": 0.33333333333325754,
          "durationTicks": 400,
          "midi": 63,
          "name": "D#4",
          "ticks": 653760,
          "time": 544.8000000000001,
          "velocity": 0.4015748031496063
        },
        {
          "duration": 0.39999999999997726,
          "durationTicks": 480,
          "midi": 63,
          "name": "D#4",
          "ticks": 655200,
          "time": 546,
          "velocity": 0.4015748031496063
        },
        {
          "duration": 0.33333333333337123,
          "durationTicks": 400,
          "midi": 62,
          "name": "D4",
          "ticks": 655680,
          "time": 546.4,
          "velocity": 0.4015748031496063
        },
        {
          "duration": 0.39999999999997726,
          "durationTicks": 480,
          "midi": 62,
          "name": "D4",
          "ticks": 657120,
          "time": 547.6,
          "velocity": 0.4015748031496063
        },
        {
          "duration": 0.33333333333337123,
          "durationTicks": 400,
          "midi": 60,
          "name": "C4",
          "ticks": 657600,
          "time": 548,
          "velocity": 0.4015748031496063
        },
        {
          "duration": 0.40000000000009095,
          "durationTicks": 480,
          "midi": 43,
          "name": "G2",
          "ticks": 660480,
          "time": 550.4,
          "velocity": 0.8267716535433071
        },
        {
          "duration": 0.40000000000009095,
          "durationTicks": 480,
          "midi": 55,
          "name": "G3",
          "ticks": 660480,
          "time": 550.4,
          "velocity": 0.8267716535433071
        },
        {
          "duration": 0.39999999999997726,
          "durationTicks": 480,
          "midi": 47,
          "name": "B2",
          "ticks": 660960,
          "time": 550.8000000000001,
          "velocity": 0.8267716535433071
        },
        {
          "duration": 0.39999999999997726,
          "durationTicks": 480,
          "midi": 59,
          "name": "B3",
          "ticks": 660960,
          "time": 550.8000000000001,
          "velocity": 0.8267716535433071
        },
        {
          "duration": 0.39999999999997726,
          "durationTicks": 480,
          "midi": 50,
          "name": "D3",
          "ticks": 661440,
          "time": 551.2,
          "velocity": 0.8267716535433071
        },
        {
          "duration": 0.39999999999997726,
          "durationTicks": 480,
          "midi": 62,
          "name": "D4",
          "ticks": 661440,
          "time": 551.2,
          "velocity": 0.8267716535433071
        },
        {
          "duration": 0.33333333333325754,
          "durationTicks": 400,
          "midi": 47,
          "name": "B2",
          "ticks": 661920,
          "time": 551.6,
          "velocity": 0.8267716535433071
        },
        {
          "duration": 0.33333333333325754,
          "durationTicks": 400,
          "midi": 59,
          "name": "B3",
          "ticks": 661920,
          "time": 551.6,
          "velocity": 0.8267716535433071
        },
        {
          "duration": 0.33333333333337123,
          "durationTicks": 400,
          "midi": 43,
          "name": "G2",
          "ticks": 662400,
          "time": 552,
          "velocity": 0.8267716535433071
        },
        {
          "duration": 0.33333333333337123,
          "durationTicks": 400,
          "midi": 55,
          "name": "G3",
          "ticks": 662400,
          "time": 552,
          "velocity": 0.8267716535433071
        },
        {
          "duration": 0.06666666666671972,
          "durationTicks": 80,
          "midi": 59,
          "name": "B3",
          "ticks": 664080,
          "time": 553.4,
          "velocity": 0.8267716535433071
        },
        {
          "duration": 0.6000000000000227,
          "durationTicks": 720,
          "midi": 60,
          "name": "C4",
          "ticks": 664320,
          "time": 553.6,
          "velocity": 0.8267716535433071
        },
        {
          "duration": 0.1966666666666015,
          "durationTicks": 236,
          "midi": 59,
          "name": "B3",
          "ticks": 665040,
          "time": 554.2,
          "velocity": 0.8267716535433071
        },
        {
          "duration": 0.6000000000000227,
          "durationTicks": 720,
          "midi": 62,
          "name": "D4",
          "ticks": 665280,
          "time": 554.4,
          "velocity": 0.8267716535433071
        },
        {
          "duration": 0.1966666666666015,
          "durationTicks": 236,
          "midi": 60,
          "name": "C4",
          "ticks": 666000,
          "time": 555,
          "velocity": 0.8267716535433071
        },
        {
          "duration": 0.7999999999999545,
          "durationTicks": 960,
          "midi": 64,
          "name": "E4",
          "ticks": 666240,
          "time": 555.2,
          "velocity": 0.8267716535433071
        },
        {
          "duration": 0.33333333333337123,
          "durationTicks": 400,
          "midi": 62,
          "name": "D4",
          "ticks": 667200,
          "time": 556,
          "velocity": 0.8267716535433071
        },
        {
          "duration": 0.06666666666671972,
          "durationTicks": 80,
          "midi": 59,
          "name": "B3",
          "ticks": 667920,
          "time": 556.6,
          "velocity": 0.8267716535433071
        },
        {
          "duration": 0.599999999999909,
          "durationTicks": 720,
          "midi": 62,
          "name": "D4",
          "ticks": 668160,
          "time": 556.8000000000001,
          "velocity": 0.8267716535433071
        },
        {
          "duration": 0.19666666666671517,
          "durationTicks": 236,
          "midi": 60,
          "name": "C4",
          "ticks": 668880,
          "time": 557.4,
          "velocity": 0.8267716535433071
        },
        {
          "duration": 0.6000000000000227,
          "durationTicks": 720,
          "midi": 64,
          "name": "E4",
          "ticks": 669120,
          "time": 557.6,
          "velocity": 0.8267716535433071
        },
        {
          "duration": 0.1966666666666015,
          "durationTicks": 236,
          "midi": 62,
          "name": "D4",
          "ticks": 669840,
          "time": 558.2,
          "velocity": 0.8267716535433071
        },
        {
          "duration": 0.8000000000000682,
          "durationTicks": 960,
          "midi": 65,
          "name": "F4",
          "ticks": 670080,
          "time": 558.4,
          "velocity": 0.8267716535433071
        },
        {
          "duration": 0.33333333333325754,
          "durationTicks": 400,
          "midi": 64,
          "name": "E4",
          "ticks": 671040,
          "time": 559.2,
          "velocity": 0.8267716535433071
        },
        {
          "duration": 0.06666666666660603,
          "durationTicks": 80,
          "midi": 61,
          "name": "C#4",
          "ticks": 671760,
          "time": 559.8000000000001,
          "velocity": 0.8267716535433071
        },
        {
          "duration": 0.6000000000000227,
          "durationTicks": 720,
          "midi": 64,
          "name": "E4",
          "ticks": 672000,
          "time": 560,
          "velocity": 0.8267716535433071
        },
        {
          "duration": 0.1966666666666015,
          "durationTicks": 236,
          "midi": 62,
          "name": "D4",
          "ticks": 672720,
          "time": 560.6,
          "velocity": 0.8267716535433071
        },
        {
          "duration": 0.599999999999909,
          "durationTicks": 720,
          "midi": 65,
          "name": "F4",
          "ticks": 672960,
          "time": 560.8000000000001,
          "velocity": 0.8267716535433071
        },
        {
          "duration": 0.19666666666671517,
          "durationTicks": 236,
          "midi": 64,
          "name": "E4",
          "ticks": 673680,
          "time": 561.4,
          "velocity": 0.8267716535433071
        },
        {
          "duration": 0.7999999999999545,
          "durationTicks": 960,
          "midi": 67,
          "name": "G4",
          "ticks": 673920,
          "time": 561.6,
          "velocity": 0.8267716535433071
        },
        {
          "duration": 0.33333333333337123,
          "durationTicks": 400,
          "midi": 65,
          "name": "F4",
          "ticks": 674880,
          "time": 562.4,
          "velocity": 0.8267716535433071
        },
        {
          "duration": 0.06666666666671972,
          "durationTicks": 80,
          "midi": 63,
          "name": "D#4",
          "ticks": 675600,
          "time": 563,
          "velocity": 0.8267716535433071
        },
        {
          "duration": 0.7999999999999545,
          "durationTicks": 960,
          "midi": 65,
          "name": "F4",
          "ticks": 675840,
          "time": 563.2,
          "velocity": 0.8267716535433071
        },
        {
          "duration": 0.33333333333337123,
          "durationTicks": 400,
          "midi": 64,
          "name": "E4",
          "ticks": 676800,
          "time": 564,
          "velocity": 0.8267716535433071
        },
        {
          "duration": 0.06666666666671972,
          "durationTicks": 80,
          "midi": 61,
          "name": "C#4",
          "ticks": 677520,
          "time": 564.6,
          "velocity": 0.8267716535433071
        },
        {
          "duration": 0.7999999999999545,
          "durationTicks": 960,
          "midi": 64,
          "name": "E4",
          "ticks": 677760,
          "time": 564.8000000000001,
          "velocity": 0.8267716535433071
        },
        {
          "duration": 0.33333333333325754,
          "durationTicks": 400,
          "midi": 62,
          "name": "D4",
          "ticks": 678720,
          "time": 565.6,
          "velocity": 0.8267716535433071
        },
        {
          "duration": 0.06666666666671972,
          "durationTicks": 80,
          "midi": 55,
          "name": "G3",
          "ticks": 679440,
          "time": 566.2,
          "velocity": 0.8267716535433071
        },
        {
          "duration": 0.06666666666671972,
          "durationTicks": 80,
          "midi": 59,
          "name": "B3",
          "ticks": 679440,
          "time": 566.2,
          "velocity": 0.8267716535433071
        },
        {
          "duration": 0.40000000000009095,
          "durationTicks": 480,
          "midi": 57,
          "name": "A3",
          "ticks": 679680,
          "time": 566.4,
          "velocity": 0.8267716535433071
        },
        {
          "duration": 0.40000000000009095,
          "durationTicks": 480,
          "midi": 60,
          "name": "C4",
          "ticks": 679680,
          "time": 566.4,
          "velocity": 0.8267716535433071
        },
        {
          "duration": 0.39999999999997726,
          "durationTicks": 480,
          "midi": 55,
          "name": "G3",
          "ticks": 680160,
          "time": 566.8000000000001,
          "velocity": 0.8267716535433071
        },
        {
          "duration": 0.39999999999997726,
          "durationTicks": 480,
          "midi": 59,
          "name": "B3",
          "ticks": 680160,
          "time": 566.8000000000001,
          "velocity": 0.8267716535433071
        },
        {
          "duration": 0.39999999999997726,
          "durationTicks": 480,
          "midi": 57,
          "name": "A3",
          "ticks": 680640,
          "time": 567.2,
          "velocity": 0.8267716535433071
        },
        {
          "duration": 0.39999999999997726,
          "durationTicks": 480,
          "midi": 60,
          "name": "C4",
          "ticks": 680640,
          "time": 567.2,
          "velocity": 0.8267716535433071
        },
        {
          "duration": 0.33333333333325754,
          "durationTicks": 400,
          "midi": 55,
          "name": "G3",
          "ticks": 681120,
          "time": 567.6,
          "velocity": 0.8267716535433071
        },
        {
          "duration": 0.33333333333325754,
          "durationTicks": 400,
          "midi": 59,
          "name": "B3",
          "ticks": 681120,
          "time": 567.6,
          "velocity": 0.8267716535433071
        },
        {
          "duration": 1.5,
          "durationTicks": 1800,
          "midi": 57,
          "name": "A3",
          "ticks": 681600,
          "time": 568,
          "velocity": 0.8267716535433071
        },
        {
          "duration": 1.5,
          "durationTicks": 1800,
          "midi": 60,
          "name": "C4",
          "ticks": 681600,
          "time": 568,
          "velocity": 0.8267716535433071
        },
        {
          "duration": 0.33333333333325754,
          "durationTicks": 400,
          "midi": 55,
          "name": "G3",
          "ticks": 683520,
          "time": 569.6,
          "velocity": 0.8267716535433071
        },
        {
          "duration": 0.33333333333325754,
          "durationTicks": 400,
          "midi": 59,
          "name": "B3",
          "ticks": 683520,
          "time": 569.6,
          "velocity": 0.8267716535433071
        },
        {
          "duration": 0.2966666666666242,
          "durationTicks": 356,
          "midi": 59,
          "name": "B3",
          "ticks": 684000,
          "time": 570,
          "velocity": 0.8267716535433071
        },
        {
          "duration": 0.2966666666666242,
          "durationTicks": 356,
          "midi": 62,
          "name": "D4",
          "ticks": 684000,
          "time": 570,
          "velocity": 0.8267716535433071
        },
        {
          "duration": 0.09666666666657875,
          "durationTicks": 116,
          "midi": 59,
          "name": "B3",
          "ticks": 684360,
          "time": 570.3000000000001,
          "velocity": 0.8267716535433071
        },
        {
          "duration": 0.09666666666657875,
          "durationTicks": 116,
          "midi": 62,
          "name": "D4",
          "ticks": 684360,
          "time": 570.3000000000001,
          "velocity": 0.8267716535433071
        },
        {
          "duration": 0.33333333333337123,
          "durationTicks": 400,
          "midi": 59,
          "name": "B3",
          "ticks": 684480,
          "time": 570.4,
          "velocity": 0.8267716535433071
        },
        {
          "duration": 0.33333333333337123,
          "durationTicks": 400,
          "midi": 62,
          "name": "D4",
          "ticks": 684480,
          "time": 570.4,
          "velocity": 0.8267716535433071
        },
        {
          "duration": 0.33333333333325754,
          "durationTicks": 400,
          "midi": 59,
          "name": "B3",
          "ticks": 684960,
          "time": 570.8000000000001,
          "velocity": 0.8267716535433071
        },
        {
          "duration": 0.33333333333325754,
          "durationTicks": 400,
          "midi": 62,
          "name": "D4",
          "ticks": 684960,
          "time": 570.8000000000001,
          "velocity": 0.8267716535433071
        },
        {
          "duration": 0.33333333333325754,
          "durationTicks": 400,
          "midi": 60,
          "name": "C4",
          "ticks": 685440,
          "time": 571.2,
          "velocity": 0.8267716535433071
        },
        {
          "duration": 0.33333333333325754,
          "durationTicks": 400,
          "midi": 64,
          "name": "E4",
          "ticks": 685440,
          "time": 571.2,
          "velocity": 0.8267716535433071
        },
        {
          "duration": 0.2966666666666242,
          "durationTicks": 356,
          "midi": 60,
          "name": "C4",
          "ticks": 685920,
          "time": 571.6,
          "velocity": 0.8267716535433071
        },
        {
          "duration": 0.2966666666666242,
          "durationTicks": 356,
          "midi": 64,
          "name": "E4",
          "ticks": 685920,
          "time": 571.6,
          "velocity": 0.8267716535433071
        },
        {
          "duration": 0.09666666666669244,
          "durationTicks": 116,
          "midi": 60,
          "name": "C4",
          "ticks": 686280,
          "time": 571.9,
          "velocity": 0.8267716535433071
        },
        {
          "duration": 0.09666666666669244,
          "durationTicks": 116,
          "midi": 64,
          "name": "E4",
          "ticks": 686280,
          "time": 571.9,
          "velocity": 0.8267716535433071
        },
        {
          "duration": 0.33333333333337123,
          "durationTicks": 400,
          "midi": 60,
          "name": "C4",
          "ticks": 686400,
          "time": 572,
          "velocity": 0.8267716535433071
        },
        {
          "duration": 0.33333333333337123,
          "durationTicks": 400,
          "midi": 64,
          "name": "E4",
          "ticks": 686400,
          "time": 572,
          "velocity": 0.8267716535433071
        },
        {
          "duration": 0.33333333333337123,
          "durationTicks": 400,
          "midi": 60,
          "name": "C4",
          "ticks": 686880,
          "time": 572.4,
          "velocity": 0.8267716535433071
        },
        {
          "duration": 0.33333333333337123,
          "durationTicks": 400,
          "midi": 64,
          "name": "E4",
          "ticks": 686880,
          "time": 572.4,
          "velocity": 0.8267716535433071
        },
        {
          "duration": 0.33333333333325754,
          "durationTicks": 400,
          "midi": 59,
          "name": "B3",
          "ticks": 687360,
          "time": 572.8000000000001,
          "velocity": 0.8267716535433071
        },
        {
          "duration": 0.33333333333325754,
          "durationTicks": 400,
          "midi": 62,
          "name": "D4",
          "ticks": 687360,
          "time": 572.8000000000001,
          "velocity": 0.8267716535433071
        },
        {
          "duration": 0.2966666666666242,
          "durationTicks": 356,
          "midi": 59,
          "name": "B3",
          "ticks": 687840,
          "time": 573.2,
          "velocity": 0.8267716535433071
        },
        {
          "duration": 0.2966666666666242,
          "durationTicks": 356,
          "midi": 62,
          "name": "D4",
          "ticks": 687840,
          "time": 573.2,
          "velocity": 0.8267716535433071
        },
        {
          "duration": 0.09666666666669244,
          "durationTicks": 116,
          "midi": 59,
          "name": "B3",
          "ticks": 688200,
          "time": 573.5,
          "velocity": 0.8267716535433071
        },
        {
          "duration": 0.09666666666669244,
          "durationTicks": 116,
          "midi": 62,
          "name": "D4",
          "ticks": 688200,
          "time": 573.5,
          "velocity": 0.8267716535433071
        },
        {
          "duration": 0.33333333333325754,
          "durationTicks": 400,
          "midi": 59,
          "name": "B3",
          "ticks": 688320,
          "time": 573.6,
          "velocity": 0.8267716535433071
        },
        {
          "duration": 0.33333333333325754,
          "durationTicks": 400,
          "midi": 62,
          "name": "D4",
          "ticks": 688320,
          "time": 573.6,
          "velocity": 0.8267716535433071
        },
        {
          "duration": 0.33333333333337123,
          "durationTicks": 400,
          "midi": 59,
          "name": "B3",
          "ticks": 688800,
          "time": 574,
          "velocity": 0.8267716535433071
        },
        {
          "duration": 0.33333333333337123,
          "durationTicks": 400,
          "midi": 62,
          "name": "D4",
          "ticks": 688800,
          "time": 574,
          "velocity": 0.8267716535433071
        },
        {
          "duration": 0.33333333333337123,
          "durationTicks": 400,
          "midi": 60,
          "name": "C4",
          "ticks": 689280,
          "time": 574.4,
          "velocity": 0.8267716535433071
        },
        {
          "duration": 0.33333333333337123,
          "durationTicks": 400,
          "midi": 64,
          "name": "E4",
          "ticks": 689280,
          "time": 574.4,
          "velocity": 0.8267716535433071
        },
        {
          "duration": 0.2966666666666242,
          "durationTicks": 356,
          "midi": 60,
          "name": "C4",
          "ticks": 689760,
          "time": 574.8000000000001,
          "velocity": 0.8267716535433071
        },
        {
          "duration": 0.2966666666666242,
          "durationTicks": 356,
          "midi": 64,
          "name": "E4",
          "ticks": 689760,
          "time": 574.8000000000001,
          "velocity": 0.8267716535433071
        },
        {
          "duration": 0.09666666666657875,
          "durationTicks": 116,
          "midi": 60,
          "name": "C4",
          "ticks": 690120,
          "time": 575.1,
          "velocity": 0.8267716535433071
        },
        {
          "duration": 0.09666666666657875,
          "durationTicks": 116,
          "midi": 64,
          "name": "E4",
          "ticks": 690120,
          "time": 575.1,
          "velocity": 0.8267716535433071
        },
        {
          "duration": 0.33333333333325754,
          "durationTicks": 400,
          "midi": 60,
          "name": "C4",
          "ticks": 690240,
          "time": 575.2,
          "velocity": 0.8267716535433071
        },
        {
          "duration": 0.33333333333325754,
          "durationTicks": 400,
          "midi": 64,
          "name": "E4",
          "ticks": 690240,
          "time": 575.2,
          "velocity": 0.8267716535433071
        },
        {
          "duration": 0.33333333333325754,
          "durationTicks": 400,
          "midi": 60,
          "name": "C4",
          "ticks": 690720,
          "time": 575.6,
          "velocity": 0.8267716535433071
        },
        {
          "duration": 0.33333333333325754,
          "durationTicks": 400,
          "midi": 64,
          "name": "E4",
          "ticks": 690720,
          "time": 575.6,
          "velocity": 0.8267716535433071
        },
        {
          "duration": 0.33333333333337123,
          "durationTicks": 400,
          "midi": 59,
          "name": "B3",
          "ticks": 691200,
          "time": 576,
          "velocity": 0.8267716535433071
        },
        {
          "duration": 0.33333333333337123,
          "durationTicks": 400,
          "midi": 62,
          "name": "D4",
          "ticks": 691200,
          "time": 576,
          "velocity": 0.8267716535433071
        },
        {
          "duration": 0.33333333333337123,
          "durationTicks": 400,
          "midi": 59,
          "name": "B3",
          "ticks": 691680,
          "time": 576.4,
          "velocity": 0.8267716535433071
        },
        {
          "duration": 0.33333333333337123,
          "durationTicks": 400,
          "midi": 62,
          "name": "D4",
          "ticks": 691680,
          "time": 576.4,
          "velocity": 0.8267716535433071
        },
        {
          "duration": 0.33333333333325754,
          "durationTicks": 400,
          "midi": 60,
          "name": "C4",
          "ticks": 692640,
          "time": 577.2,
          "velocity": 0.8267716535433071
        },
        {
          "duration": 0.33333333333325754,
          "durationTicks": 400,
          "midi": 64,
          "name": "E4",
          "ticks": 692640,
          "time": 577.2,
          "velocity": 0.8267716535433071
        },
        {
          "duration": 0.33333333333337123,
          "durationTicks": 400,
          "midi": 59,
          "name": "B3",
          "ticks": 693600,
          "time": 578,
          "velocity": 0.8267716535433071
        },
        {
          "duration": 0.33333333333337123,
          "durationTicks": 400,
          "midi": 62,
          "name": "D4",
          "ticks": 693600,
          "time": 578,
          "velocity": 0.8267716535433071
        },
        {
          "duration": 0.33333333333325754,
          "durationTicks": 400,
          "midi": 60,
          "name": "C4",
          "ticks": 694560,
          "time": 578.8000000000001,
          "velocity": 0.8267716535433071
        },
        {
          "duration": 0.33333333333325754,
          "durationTicks": 400,
          "midi": 64,
          "name": "E4",
          "ticks": 694560,
          "time": 578.8000000000001,
          "velocity": 0.8267716535433071
        },
        {
          "duration": 0.33333333333325754,
          "durationTicks": 400,
          "midi": 59,
          "name": "B3",
          "ticks": 695040,
          "time": 579.2,
          "velocity": 0.8267716535433071
        },
        {
          "duration": 0.33333333333325754,
          "durationTicks": 400,
          "midi": 62,
          "name": "D4",
          "ticks": 695040,
          "time": 579.2,
          "velocity": 0.8267716535433071
        },
        {
          "duration": 0.20000000000004547,
          "durationTicks": 240,
          "midi": 55,
          "name": "G3",
          "ticks": 707520,
          "time": 589.6,
          "velocity": 0.4015748031496063
        },
        {
          "duration": 0.1999999999999318,
          "durationTicks": 240,
          "midi": 56,
          "name": "G#3",
          "ticks": 707760,
          "time": 589.8000000000001,
          "velocity": 0.4015748031496063
        },
        {
          "duration": 0.20000000000004547,
          "durationTicks": 240,
          "midi": 57,
          "name": "A3",
          "ticks": 708000,
          "time": 590,
          "velocity": 0.4015748031496063
        },
        {
          "duration": 0.1966666666666015,
          "durationTicks": 236,
          "midi": 59,
          "name": "B3",
          "ticks": 708240,
          "time": 590.2,
          "velocity": 0.4015748031496063
        },
        {
          "duration": 1.2000000000000455,
          "durationTicks": 1440,
          "midi": 60,
          "name": "C4",
          "ticks": 708480,
          "time": 590.4,
          "velocity": 0.4015748031496063
        },
        {
          "duration": 0.39999999999997726,
          "durationTicks": 480,
          "midi": 61,
          "name": "C#4",
          "ticks": 709920,
          "time": 591.6,
          "velocity": 0.4015748031496063
        },
        {
          "duration": 0.33333333333337123,
          "durationTicks": 400,
          "midi": 62,
          "name": "D4",
          "ticks": 710400,
          "time": 592,
          "velocity": 0.4015748031496063
        },
        {
          "duration": 0.3000000000000682,
          "durationTicks": 360,
          "midi": 65,
          "name": "F4",
          "ticks": 712800,
          "time": 594,
          "velocity": 0.4015748031496063
        },
        {
          "duration": 0.09999999999990905,
          "durationTicks": 120,
          "midi": 62,
          "name": "D4",
          "ticks": 713160,
          "time": 594.3000000000001,
          "velocity": 0.4015748031496063
        },
        {
          "duration": 0.19666666666671517,
          "durationTicks": 236,
          "midi": 59,
          "name": "B3",
          "ticks": 713280,
          "time": 594.4,
          "velocity": 0.4015748031496063
        },
        {
          "duration": 0.06666666666660603,
          "durationTicks": 80,
          "midi": 59,
          "name": "B3",
          "ticks": 713760,
          "time": 594.8000000000001,
          "velocity": 0.4015748031496063
        },
        {
          "duration": 0.049999999999954525,
          "durationTicks": 60,
          "midi": 62,
          "name": "D4",
          "ticks": 714240,
          "time": 595.2,
          "velocity": 0.4015748031496063
        },
        {
          "duration": 0.05000000000006821,
          "durationTicks": 60,
          "midi": 60,
          "name": "C4",
          "ticks": 714300,
          "time": 595.25,
          "velocity": 0.4015748031496063
        },
        {
          "duration": 0.049999999999954525,
          "durationTicks": 60,
          "midi": 62,
          "name": "D4",
          "ticks": 714360,
          "time": 595.3000000000001,
          "velocity": 0.4015748031496063
        },
        {
          "duration": 0.049999999999954525,
          "durationTicks": 60,
          "midi": 60,
          "name": "C4",
          "ticks": 714420,
          "time": 595.35,
          "velocity": 0.4015748031496063
        },
        {
          "duration": 0.05000000000006821,
          "durationTicks": 60,
          "midi": 62,
          "name": "D4",
          "ticks": 714480,
          "time": 595.4,
          "velocity": 0.4015748031496063
        },
        {
          "duration": 0.049999999999954525,
          "durationTicks": 60,
          "midi": 60,
          "name": "C4",
          "ticks": 714540,
          "time": 595.45,
          "velocity": 0.4015748031496063
        },
        {
          "duration": 0.05000000000006821,
          "durationTicks": 60,
          "midi": 62,
          "name": "D4",
          "ticks": 714600,
          "time": 595.5,
          "velocity": 0.4015748031496063
        },
        {
          "duration": 0.049999999999954525,
          "durationTicks": 60,
          "midi": 60,
          "name": "C4",
          "ticks": 714660,
          "time": 595.5500000000001,
          "velocity": 0.4015748031496063
        },
        {
          "duration": 0.049999999999954525,
          "durationTicks": 60,
          "midi": 62,
          "name": "D4",
          "ticks": 714720,
          "time": 595.6,
          "velocity": 0.4015748031496063
        },
        {
          "duration": 0.05000000000006821,
          "durationTicks": 60,
          "midi": 60,
          "name": "C4",
          "ticks": 714780,
          "time": 595.65,
          "velocity": 0.4015748031496063
        },
        {
          "duration": 0.049999999999954525,
          "durationTicks": 60,
          "midi": 62,
          "name": "D4",
          "ticks": 714840,
          "time": 595.7,
          "velocity": 0.4015748031496063
        },
        {
          "duration": 0.05000000000006821,
          "durationTicks": 60,
          "midi": 60,
          "name": "C4",
          "ticks": 714900,
          "time": 595.75,
          "velocity": 0.4015748031496063
        },
        {
          "duration": 0.09999999999990905,
          "durationTicks": 120,
          "midi": 59,
          "name": "B3",
          "ticks": 714960,
          "time": 595.8000000000001,
          "velocity": 0.4015748031496063
        },
        {
          "duration": 0.10000000000002274,
          "durationTicks": 120,
          "midi": 57,
          "name": "A3",
          "ticks": 715080,
          "time": 595.9,
          "velocity": 0.4015748031496063
        },
        {
          "duration": 0.1966666666666015,
          "durationTicks": 236,
          "midi": 55,
          "name": "G3",
          "ticks": 715200,
          "time": 596,
          "velocity": 0.4015748031496063
        },
        {
          "duration": 1.2000000000000455,
          "durationTicks": 1440,
          "midi": 62,
          "name": "D4",
          "ticks": 727680,
          "time": 606.4,
          "velocity": 0.4015748031496063
        },
        {
          "duration": 0.20000000000004547,
          "durationTicks": 240,
          "midi": 64,
          "name": "E4",
          "ticks": 729120,
          "time": 607.6,
          "velocity": 0.4015748031496063
        },
        {
          "duration": 0.1966666666666015,
          "durationTicks": 236,
          "midi": 65,
          "name": "F4",
          "ticks": 729360,
          "time": 607.8000000000001,
          "velocity": 0.4015748031496063
        },
        {
          "duration": 0.10000000000002274,
          "durationTicks": 120,
          "midi": 67,
          "name": "G4",
          "ticks": 729600,
          "time": 608,
          "velocity": 0.4015748031496063
        },
        {
          "duration": 0.10000000000002274,
          "durationTicks": 120,
          "midi": 67,
          "name": "G4",
          "ticks": 730080,
          "time": 608.4,
          "velocity": 0.4015748031496063
        },
        {
          "duration": 0.39999999999997726,
          "durationTicks": 480,
          "midi": 67,
          "name": "G4",
          "ticks": 730560,
          "time": 608.8000000000001,
          "velocity": 0.4015748031496063
        },
        {
          "duration": 0.10000000000002274,
          "durationTicks": 120,
          "midi": 65,
          "name": "F4",
          "ticks": 731040,
          "time": 609.2,
          "velocity": 0.4015748031496063
        },
        {
          "duration": 0.09999999999990905,
          "durationTicks": 120,
          "midi": 64,
          "name": "E4",
          "ticks": 731160,
          "time": 609.3000000000001,
          "velocity": 0.4015748031496063
        },
        {
          "duration": 0.10000000000002274,
          "durationTicks": 120,
          "midi": 62,
          "name": "D4",
          "ticks": 731280,
          "time": 609.4,
          "velocity": 0.4015748031496063
        },
        {
          "duration": 0.09666666666669244,
          "durationTicks": 116,
          "midi": 60,
          "name": "C4",
          "ticks": 731400,
          "time": 609.5,
          "velocity": 0.4015748031496063
        },
        {
          "duration": 0.10000000000002274,
          "durationTicks": 120,
          "midi": 62,
          "name": "D4",
          "ticks": 731520,
          "time": 609.6,
          "velocity": 0.4015748031496063
        },
        {
          "duration": 0.10000000000002274,
          "durationTicks": 120,
          "midi": 62,
          "name": "D4",
          "ticks": 732000,
          "time": 610,
          "velocity": 0.4015748031496063
        },
        {
          "duration": 0.40000000000009095,
          "durationTicks": 480,
          "midi": 62,
          "name": "D4",
          "ticks": 732480,
          "time": 610.4,
          "velocity": 0.4015748031496063
        },
        {
          "duration": 0.09999999999990905,
          "durationTicks": 120,
          "midi": 60,
          "name": "C4",
          "ticks": 732960,
          "time": 610.8000000000001,
          "velocity": 0.4015748031496063
        },
        {
          "duration": 0.10000000000002274,
          "durationTicks": 120,
          "midi": 59,
          "name": "B3",
          "ticks": 733080,
          "time": 610.9,
          "velocity": 0.4015748031496063
        },
        {
          "duration": 0.10000000000002274,
          "durationTicks": 120,
          "midi": 57,
          "name": "A3",
          "ticks": 733200,
          "time": 611,
          "velocity": 0.4015748031496063
        },
        {
          "duration": 0.09666666666657875,
          "durationTicks": 116,
          "midi": 55,
          "name": "G3",
          "ticks": 733320,
          "time": 611.1,
          "velocity": 0.4015748031496063
        },
        {
          "duration": 0.33333333333325754,
          "durationTicks": 400,
          "midi": 60,
          "name": "C4",
          "ticks": 733440,
          "time": 611.2,
          "velocity": 0.4015748031496063
        },
        {
          "duration": 1.1999999999999318,
          "durationTicks": 1440,
          "midi": 62,
          "name": "D4",
          "ticks": 735360,
          "time": 612.8000000000001,
          "velocity": 0.4015748031496063
        },
        {
          "duration": 0.20000000000004547,
          "durationTicks": 240,
          "midi": 64,
          "name": "E4",
          "ticks": 736800,
          "time": 614,
          "velocity": 0.4015748031496063
        },
        {
          "duration": 0.1966666666666015,
          "durationTicks": 236,
          "midi": 65,
          "name": "F4",
          "ticks": 737040,
          "time": 614.2,
          "velocity": 0.4015748031496063
        },
        {
          "duration": 0.33333333333325754,
          "durationTicks": 400,
          "midi": 67,
          "name": "G4",
          "ticks": 737280,
          "time": 614.4000000000001,
          "velocity": 0.4015748031496063
        },
        {
          "duration": 6.2999999999999545,
          "durationTicks": 7560,
          "midi": 56,
          "name": "G#3",
          "ticks": 744960,
          "time": 620.8000000000001,
          "velocity": 0.8267716535433071
        },
        {
          "duration": 3.1000000000000227,
          "durationTicks": 3720,
          "midi": 60,
          "name": "C4",
          "ticks": 744960,
          "time": 620.8000000000001,
          "velocity": 0.8267716535433071
        },
        {
          "duration": 1.5,
          "durationTicks": 1800,
          "midi": 61,
          "name": "C#4",
          "ticks": 748800,
          "time": 624,
          "velocity": 0.8267716535433071
        },
        {
          "duration": 0.046666666666624224,
          "durationTicks": 56,
          "midi": 60,
          "name": "C4",
          "ticks": 750720,
          "time": 625.6,
          "velocity": 0.8267716535433071
        },
        {
          "duration": 0.6833333333332803,
          "durationTicks": 820,
          "midi": 61,
          "name": "C#4",
          "ticks": 750780,
          "time": 625.6500000000001,
          "velocity": 0.8267716535433071
        },
        {
          "duration": 0.049999999999954525,
          "durationTicks": 60,
          "midi": 60,
          "name": "C4",
          "ticks": 751680,
          "time": 626.4000000000001,
          "velocity": 0.8267716535433071
        },
        {
          "duration": 0.6833333333332803,
          "durationTicks": 820,
          "midi": 61,
          "name": "C#4",
          "ticks": 751740,
          "time": 626.45,
          "velocity": 0.8267716535433071
        },
        {
          "duration": 1.5,
          "durationTicks": 1800,
          "midi": 55,
          "name": "G3",
          "ticks": 752640,
          "time": 627.2,
          "velocity": 0.8267716535433071
        },
        {
          "duration": 0.7000000000000455,
          "durationTicks": 840,
          "midi": 61,
          "name": "C#4",
          "ticks": 752640,
          "time": 627.2,
          "velocity": 0.8267716535433071
        },
        {
          "duration": 1.5,
          "durationTicks": 1800,
          "midi": 60,
          "name": "C4",
          "ticks": 753600,
          "time": 628,
          "velocity": 0.8267716535433071
        },
        {
          "duration": 1.5,
          "durationTicks": 1800,
          "midi": 53,
          "name": "F3",
          "ticks": 754560,
          "time": 628.8000000000001,
          "velocity": 0.8267716535433071
        },
        {
          "duration": 0.7000000000000455,
          "durationTicks": 840,
          "midi": 59,
          "name": "B3",
          "ticks": 755520,
          "time": 629.6,
          "velocity": 0.8267716535433071
        },
        {
          "duration": 0.33333333333325754,
          "durationTicks": 400,
          "midi": 52,
          "name": "E3",
          "ticks": 756480,
          "time": 630.4000000000001,
          "velocity": 0.8267716535433071
        },
        {
          "duration": 0.33333333333325754,
          "durationTicks": 400,
          "midi": 60,
          "name": "C4",
          "ticks": 756480,
          "time": 630.4000000000001,
          "velocity": 0.8267716535433071
        },
        {
          "duration": 0.33333333333325754,
          "durationTicks": 400,
          "midi": 53,
          "name": "F3",
          "ticks": 757440,
          "time": 631.2,
          "velocity": 0.8267716535433071
        },
        {
          "duration": 0.33333333333337123,
          "durationTicks": 400,
          "midi": 55,
          "name": "G3",
          "ticks": 758400,
          "time": 632,
          "velocity": 0.8267716535433071
        },
        {
          "duration": 0.33333333333325754,
          "durationTicks": 400,
          "midi": 43,
          "name": "G2",
          "ticks": 759360,
          "time": 632.8000000000001,
          "velocity": 0.8267716535433071
        },
        {
          "duration": 0.6000000000000227,
          "durationTicks": 720,
          "midi": 48,
          "name": "C3",
          "ticks": 760320,
          "time": 633.6,
          "velocity": 0.8267716535433071
        },
        {
          "duration": 0.6000000000000227,
          "durationTicks": 720,
          "midi": 52,
          "name": "E3",
          "ticks": 760320,
          "time": 633.6,
          "velocity": 0.8267716535433071
        },
        {
          "duration": 0.1966666666666015,
          "durationTicks": 236,
          "midi": 47,
          "name": "B2",
          "ticks": 761040,
          "time": 634.2,
          "velocity": 0.8267716535433071
        },
        {
          "duration": 0.1966666666666015,
          "durationTicks": 236,
          "midi": 50,
          "name": "D3",
          "ticks": 761040,
          "time": 634.2,
          "velocity": 0.8267716535433071
        },
        {
          "duration": 0.2999999999999545,
          "durationTicks": 360,
          "midi": 50,
          "name": "D3",
          "ticks": 761280,
          "time": 634.4000000000001,
          "velocity": 0.8267716535433071
        },
        {
          "duration": 0.2999999999999545,
          "durationTicks": 360,
          "midi": 53,
          "name": "F3",
          "ticks": 761280,
          "time": 634.4000000000001,
          "velocity": 0.8267716535433071
        },
        {
          "duration": 0.09666666666657875,
          "durationTicks": 116,
          "midi": 48,
          "name": "C3",
          "ticks": 761640,
          "time": 634.7,
          "velocity": 0.8267716535433071
        },
        {
          "duration": 0.09666666666657875,
          "durationTicks": 116,
          "midi": 52,
          "name": "E3",
          "ticks": 761640,
          "time": 634.7,
          "velocity": 0.8267716535433071
        },
        {
          "duration": 0.2999999999999545,
          "durationTicks": 360,
          "midi": 53,
          "name": "F3",
          "ticks": 761760,
          "time": 634.8000000000001,
          "velocity": 0.8267716535433071
        },
        {
          "duration": 0.2999999999999545,
          "durationTicks": 360,
          "midi": 57,
          "name": "A3",
          "ticks": 761760,
          "time": 634.8000000000001,
          "velocity": 0.8267716535433071
        },
        {
          "duration": 0.09666666666669244,
          "durationTicks": 116,
          "midi": 52,
          "name": "E3",
          "ticks": 762120,
          "time": 635.1,
          "velocity": 0.8267716535433071
        },
        {
          "duration": 0.09666666666669244,
          "durationTicks": 116,
          "midi": 55,
          "name": "G3",
          "ticks": 762120,
          "time": 635.1,
          "velocity": 0.8267716535433071
        },
        {
          "duration": 0.6000000000000227,
          "durationTicks": 720,
          "midi": 50,
          "name": "D3",
          "ticks": 762240,
          "time": 635.2,
          "velocity": 0.8267716535433071
        },
        {
          "duration": 0.6000000000000227,
          "durationTicks": 720,
          "midi": 53,
          "name": "F3",
          "ticks": 762240,
          "time": 635.2,
          "velocity": 0.8267716535433071
        },
        {
          "duration": 0.1966666666666015,
          "durationTicks": 236,
          "midi": 49,
          "name": "C#3",
          "ticks": 762960,
          "time": 635.8000000000001,
          "velocity": 0.8267716535433071
        },
        {
          "duration": 0.1966666666666015,
          "durationTicks": 236,
          "midi": 52,
          "name": "E3",
          "ticks": 762960,
          "time": 635.8000000000001,
          "velocity": 0.8267716535433071
        },
        {
          "duration": 0.3000000000000682,
          "durationTicks": 360,
          "midi": 52,
          "name": "E3",
          "ticks": 763200,
          "time": 636,
          "velocity": 0.8267716535433071
        },
        {
          "duration": 0.3000000000000682,
          "durationTicks": 360,
          "midi": 55,
          "name": "G3",
          "ticks": 763200,
          "time": 636,
          "velocity": 0.8267716535433071
        },
        {
          "duration": 0.09666666666657875,
          "durationTicks": 116,
          "midi": 50,
          "name": "D3",
          "ticks": 763560,
          "time": 636.3000000000001,
          "velocity": 0.8267716535433071
        },
        {
          "duration": 0.09666666666657875,
          "durationTicks": 116,
          "midi": 53,
          "name": "F3",
          "ticks": 763560,
          "time": 636.3000000000001,
          "velocity": 0.8267716535433071
        },
        {
          "duration": 0.2999999999999545,
          "durationTicks": 360,
          "midi": 55,
          "name": "G3",
          "ticks": 763680,
          "time": 636.4000000000001,
          "velocity": 0.8267716535433071
        },
        {
          "duration": 0.2999999999999545,
          "durationTicks": 360,
          "midi": 58,
          "name": "A#3",
          "ticks": 763680,
          "time": 636.4000000000001,
          "velocity": 0.8267716535433071
        },
        {
          "duration": 0.09666666666657875,
          "durationTicks": 116,
          "midi": 53,
          "name": "F3",
          "ticks": 764040,
          "time": 636.7,
          "velocity": 0.8267716535433071
        },
        {
          "duration": 0.09666666666657875,
          "durationTicks": 116,
          "midi": 57,
          "name": "A3",
          "ticks": 764040,
          "time": 636.7,
          "velocity": 0.8267716535433071
        },
        {
          "duration": 0.6000000000000227,
          "durationTicks": 720,
          "midi": 52,
          "name": "E3",
          "ticks": 764160,
          "time": 636.8000000000001,
          "velocity": 0.8267716535433071
        },
        {
          "duration": 0.6000000000000227,
          "durationTicks": 720,
          "midi": 55,
          "name": "G3",
          "ticks": 764160,
          "time": 636.8000000000001,
          "velocity": 0.8267716535433071
        },
        {
          "duration": 0.1966666666666015,
          "durationTicks": 236,
          "midi": 51,
          "name": "D#3",
          "ticks": 764880,
          "time": 637.4000000000001,
          "velocity": 0.8267716535433071
        },
        {
          "duration": 0.1966666666666015,
          "durationTicks": 236,
          "midi": 54,
          "name": "F#3",
          "ticks": 764880,
          "time": 637.4000000000001,
          "velocity": 0.8267716535433071
        },
        {
          "duration": 0.3000000000000682,
          "durationTicks": 360,
          "midi": 53,
          "name": "F3",
          "ticks": 765120,
          "time": 637.6,
          "velocity": 0.8267716535433071
        },
        {
          "duration": 0.3000000000000682,
          "durationTicks": 360,
          "midi": 57,
          "name": "A3",
          "ticks": 765120,
          "time": 637.6,
          "velocity": 0.8267716535433071
        },
        {
          "duration": 0.09666666666657875,
          "durationTicks": 116,
          "midi": 52,
          "name": "E3",
          "ticks": 765480,
          "time": 637.9000000000001,
          "velocity": 0.8267716535433071
        },
        {
          "duration": 0.09666666666657875,
          "durationTicks": 116,
          "midi": 55,
          "name": "G3",
          "ticks": 765480,
          "time": 637.9000000000001,
          "velocity": 0.8267716535433071
        },
        {
          "duration": 0.3000000000000682,
          "durationTicks": 360,
          "midi": 57,
          "name": "A3",
          "ticks": 765600,
          "time": 638,
          "velocity": 0.8267716535433071
        },
        {
          "duration": 0.3000000000000682,
          "durationTicks": 360,
          "midi": 60,
          "name": "C4",
          "ticks": 765600,
          "time": 638,
          "velocity": 0.8267716535433071
        },
        {
          "duration": 0.09666666666657875,
          "durationTicks": 116,
          "midi": 55,
          "name": "G3",
          "ticks": 765960,
          "time": 638.3000000000001,
          "velocity": 0.8267716535433071
        },
        {
          "duration": 0.09666666666657875,
          "durationTicks": 116,
          "midi": 58,
          "name": "A#3",
          "ticks": 765960,
          "time": 638.3000000000001,
          "velocity": 0.8267716535433071
        },
        {
          "duration": 0.6999999999999318,
          "durationTicks": 840,
          "midi": 53,
          "name": "F3",
          "ticks": 766080,
          "time": 638.4000000000001,
          "velocity": 0.6771653543307087
        },
        {
          "duration": 0.6999999999999318,
          "durationTicks": 840,
          "midi": 57,
          "name": "A3",
          "ticks": 766080,
          "time": 638.4000000000001,
          "velocity": 0.6771653543307087
        },
        {
          "duration": 0.7000000000000455,
          "durationTicks": 840,
          "midi": 52,
          "name": "E3",
          "ticks": 767040,
          "time": 639.2,
          "velocity": 0.6771653543307087
        },
        {
          "duration": 0.7000000000000455,
          "durationTicks": 840,
          "midi": 55,
          "name": "G3",
          "ticks": 767040,
          "time": 639.2,
          "velocity": 0.6771653543307087
        },
        {
          "duration": 0.19666666666671517,
          "durationTicks": 236,
          "midi": 53,
          "name": "F3",
          "ticks": 768000,
          "time": 640,
          "velocity": 0.6771653543307087
        },
        {
          "duration": 0.1966666666666015,
          "durationTicks": 236,
          "midi": 53,
          "name": "F3",
          "ticks": 768240,
          "time": 640.2,
          "velocity": 0.6771653543307087
        },
        {
          "duration": 0.1966666666666015,
          "durationTicks": 236,
          "midi": 53,
          "name": "F3",
          "ticks": 768480,
          "time": 640.4000000000001,
          "velocity": 0.6771653543307087
        },
        {
          "duration": 0.1966666666666015,
          "durationTicks": 236,
          "midi": 53,
          "name": "F3",
          "ticks": 768720,
          "time": 640.6,
          "velocity": 0.6771653543307087
        },
        {
          "duration": 0.1966666666666015,
          "durationTicks": 236,
          "midi": 55,
          "name": "G3",
          "ticks": 768960,
          "time": 640.8000000000001,
          "velocity": 0.6771653543307087
        },
        {
          "duration": 0.19666666666671517,
          "durationTicks": 236,
          "midi": 55,
          "name": "G3",
          "ticks": 769200,
          "time": 641,
          "velocity": 0.6771653543307087
        },
        {
          "duration": 0.1966666666666015,
          "durationTicks": 236,
          "midi": 55,
          "name": "G3",
          "ticks": 769440,
          "time": 641.2,
          "velocity": 0.6771653543307087
        },
        {
          "duration": 0.1966666666666015,
          "durationTicks": 236,
          "midi": 55,
          "name": "G3",
          "ticks": 769680,
          "time": 641.4000000000001,
          "velocity": 0.6771653543307087
        },
        {
          "duration": 0.8000000000000682,
          "durationTicks": 960,
          "midi": 64,
          "name": "E4",
          "ticks": 769920,
          "time": 641.6,
          "velocity": 0.6771653543307087
        },
        {
          "duration": 0.39999999999997726,
          "durationTicks": 480,
          "midi": 62,
          "name": "D4",
          "ticks": 770880,
          "time": 642.4000000000001,
          "velocity": 0.6771653543307087
        },
        {
          "duration": 0.33333333333325754,
          "durationTicks": 400,
          "midi": 60,
          "name": "C4",
          "ticks": 771360,
          "time": 642.8000000000001,
          "velocity": 0.6771653543307087
        },
        {
          "duration": 0.7999999999999545,
          "durationTicks": 960,
          "midi": 65,
          "name": "F4",
          "ticks": 771840,
          "time": 643.2,
          "velocity": 0.6771653543307087
        },
        {
          "duration": 0.40000000000009095,
          "durationTicks": 480,
          "midi": 64,
          "name": "E4",
          "ticks": 772800,
          "time": 644,
          "velocity": 0.6771653543307087
        },
        {
          "duration": 0.33333333333325754,
          "durationTicks": 400,
          "midi": 62,
          "name": "D4",
          "ticks": 773280,
          "time": 644.4000000000001,
          "velocity": 0.6771653543307087
        },
        {
          "duration": 0.7999999999999545,
          "durationTicks": 960,
          "midi": 67,
          "name": "G4",
          "ticks": 773760,
          "time": 644.8000000000001,
          "velocity": 0.6771653543307087
        },
        {
          "duration": 0.39999999999997726,
          "durationTicks": 480,
          "midi": 65,
          "name": "F4",
          "ticks": 774720,
          "time": 645.6,
          "velocity": 0.6771653543307087
        },
        {
          "duration": 0.33333333333337123,
          "durationTicks": 400,
          "midi": 64,
          "name": "E4",
          "ticks": 775200,
          "time": 646,
          "velocity": 0.6771653543307087
        },
        {
          "duration": 0.33333333333325754,
          "durationTicks": 400,
          "midi": 65,
          "name": "F4",
          "ticks": 775680,
          "time": 646.4000000000001,
          "velocity": 0.6771653543307087
        },
        {
          "duration": 0.33333333333325754,
          "durationTicks": 400,
          "midi": 55,
          "name": "G3",
          "ticks": 776160,
          "time": 646.8000000000001,
          "velocity": 0.6771653543307087
        },
        {
          "duration": 0.33333333333325754,
          "durationTicks": 400,
          "midi": 53,
          "name": "F3",
          "ticks": 776640,
          "time": 647.2,
          "velocity": 0.6771653543307087
        },
        {
          "duration": 0.33333333333337123,
          "durationTicks": 400,
          "midi": 61,
          "name": "C#4",
          "ticks": 777120,
          "time": 647.6,
          "velocity": 0.6771653543307087
        },
        {
          "duration": 0.19666666666671517,
          "durationTicks": 236,
          "midi": 62,
          "name": "D4",
          "ticks": 777600,
          "time": 648,
          "velocity": 0.6771653543307087
        },
        {
          "duration": 0.1966666666666015,
          "durationTicks": 236,
          "midi": 62,
          "name": "D4",
          "ticks": 777840,
          "time": 648.2,
          "velocity": 0.6771653543307087
        },
        {
          "duration": 0.1966666666666015,
          "durationTicks": 236,
          "midi": 60,
          "name": "C4",
          "ticks": 778080,
          "time": 648.4000000000001,
          "velocity": 0.6771653543307087
        },
        {
          "duration": 0.1966666666666015,
          "durationTicks": 236,
          "midi": 60,
          "name": "C4",
          "ticks": 778320,
          "time": 648.6,
          "velocity": 0.6771653543307087
        },
        {
          "duration": 0.1966666666666015,
          "durationTicks": 236,
          "midi": 59,
          "name": "B3",
          "ticks": 778560,
          "time": 648.8000000000001,
          "velocity": 0.6771653543307087
        },
        {
          "duration": 0.19666666666671517,
          "durationTicks": 236,
          "midi": 59,
          "name": "B3",
          "ticks": 778800,
          "time": 649,
          "velocity": 0.6771653543307087
        },
        {
          "duration": 0.1966666666666015,
          "durationTicks": 236,
          "midi": 60,
          "name": "C4",
          "ticks": 779040,
          "time": 649.2,
          "velocity": 0.6771653543307087
        },
        {
          "duration": 0.1966666666666015,
          "durationTicks": 236,
          "midi": 60,
          "name": "C4",
          "ticks": 779280,
          "time": 649.4000000000001,
          "velocity": 0.6771653543307087
        },
        {
          "duration": 0.33333333333337123,
          "durationTicks": 400,
          "midi": 59,
          "name": "B3",
          "ticks": 779520,
          "time": 649.6,
          "velocity": 0.6771653543307087
        },
        {
          "duration": 0.6000000000000227,
          "durationTicks": 720,
          "midi": 48,
          "name": "C3",
          "ticks": 798720,
          "time": 665.6,
          "velocity": 0.6771653543307087
        },
        {
          "duration": 0.1966666666666015,
          "durationTicks": 236,
          "midi": 52,
          "name": "E3",
          "ticks": 799440,
          "time": 666.2,
          "velocity": 0.6771653543307087
        },
        {
          "duration": 0.599999999999909,
          "durationTicks": 720,
          "midi": 45,
          "name": "A2",
          "ticks": 799680,
          "time": 666.4000000000001,
          "velocity": 0.6771653543307087
        },
        {
          "duration": 0.19666666666671517,
          "durationTicks": 236,
          "midi": 53,
          "name": "F3",
          "ticks": 800400,
          "time": 667,
          "velocity": 0.6771653543307087
        },
        {
          "duration": 0.20000000000004547,
          "durationTicks": 240,
          "midi": 50,
          "name": "D3",
          "ticks": 800640,
          "time": 667.2,
          "velocity": 0.6771653543307087
        },
        {
          "duration": 0.1966666666666015,
          "durationTicks": 236,
          "midi": 57,
          "name": "A3",
          "ticks": 800880,
          "time": 667.4000000000001,
          "velocity": 0.6771653543307087
        },
        {
          "duration": 0.06666666666671972,
          "durationTicks": 80,
          "midi": 53,
          "name": "F3",
          "ticks": 801120,
          "time": 667.6,
          "velocity": 0.6771653543307087
        },
        {
          "duration": 0.06666666666671972,
          "durationTicks": 80,
          "midi": 50,
          "name": "D3",
          "ticks": 801360,
          "time": 667.8000000000001,
          "velocity": 0.6771653543307087
        },
        {
          "duration": 0.06666666666671972,
          "durationTicks": 80,
          "midi": 47,
          "name": "B2",
          "ticks": 801600,
          "time": 668,
          "velocity": 0.6771653543307087
        },
        {
          "duration": 0.06666666666671972,
          "durationTicks": 80,
          "midi": 48,
          "name": "C3",
          "ticks": 801840,
          "time": 668.2,
          "velocity": 0.6771653543307087
        },
        {
          "duration": 0.06666666666660603,
          "durationTicks": 80,
          "midi": 50,
          "name": "D3",
          "ticks": 802080,
          "time": 668.4000000000001,
          "velocity": 0.6771653543307087
        },
        {
          "duration": 0.06666666666671972,
          "durationTicks": 80,
          "midi": 52,
          "name": "E3",
          "ticks": 802320,
          "time": 668.6,
          "velocity": 0.6771653543307087
        },
        {
          "duration": 0.1966666666666015,
          "durationTicks": 236,
          "midi": 48,
          "name": "C3",
          "ticks": 802560,
          "time": 668.8000000000001,
          "velocity": 0.6771653543307087
        },
        {
          "duration": 0.1966666666666015,
          "durationTicks": 236,
          "midi": 64,
          "name": "E4",
          "ticks": 803040,
          "time": 669.2,
          "velocity": 0.8267716535433071
        },
        {
          "duration": 0.1966666666666015,
          "durationTicks": 236,
          "midi": 63,
          "name": "D#4",
          "ticks": 803280,
          "time": 669.4000000000001,
          "velocity": 0.8267716535433071
        },
        {
          "duration": 0.1966666666666015,
          "durationTicks": 236,
          "midi": 64,
          "name": "E4",
          "ticks": 803520,
          "time": 669.6,
          "velocity": 0.8267716535433071
        },
        {
          "duration": 0.1966666666666015,
          "durationTicks": 236,
          "midi": 63,
          "name": "D#4",
          "ticks": 803760,
          "time": 669.8000000000001,
          "velocity": 0.8267716535433071
        },
        {
          "duration": 0.19666666666671517,
          "durationTicks": 236,
          "midi": 64,
          "name": "E4",
          "ticks": 804000,
          "time": 670,
          "velocity": 0.8267716535433071
        },
        {
          "duration": 0.1966666666666015,
          "durationTicks": 236,
          "midi": 61,
          "name": "C#4",
          "ticks": 804240,
          "time": 670.2,
          "velocity": 0.8267716535433071
        },
        {
          "duration": 0.1966666666666015,
          "durationTicks": 236,
          "midi": 62,
          "name": "D4",
          "ticks": 804480,
          "time": 670.4000000000001,
          "velocity": 0.8267716535433071
        },
        {
          "duration": 0.1966666666666015,
          "durationTicks": 236,
          "midi": 62,
          "name": "D4",
          "ticks": 804960,
          "time": 670.8000000000001,
          "velocity": 0.8267716535433071
        },
        {
          "duration": 0.19666666666671517,
          "durationTicks": 236,
          "midi": 61,
          "name": "C#4",
          "ticks": 805200,
          "time": 671,
          "velocity": 0.8267716535433071
        },
        {
          "duration": 0.1966666666666015,
          "durationTicks": 236,
          "midi": 62,
          "name": "D4",
          "ticks": 805440,
          "time": 671.2,
          "velocity": 0.8267716535433071
        },
        {
          "duration": 0.1966666666666015,
          "durationTicks": 236,
          "midi": 61,
          "name": "C#4",
          "ticks": 805680,
          "time": 671.4000000000001,
          "velocity": 0.8267716535433071
        },
        {
          "duration": 0.1966666666666015,
          "durationTicks": 236,
          "midi": 62,
          "name": "D4",
          "ticks": 805920,
          "time": 671.6,
          "velocity": 0.8267716535433071
        },
        {
          "duration": 0.1966666666666015,
          "durationTicks": 236,
          "midi": 59,
          "name": "B3",
          "ticks": 806160,
          "time": 671.8000000000001,
          "velocity": 0.8267716535433071
        },
        {
          "duration": 0.19666666666671517,
          "durationTicks": 236,
          "midi": 60,
          "name": "C4",
          "ticks": 806400,
          "time": 672,
          "velocity": 0.8267716535433071
        },
        {
          "duration": 0.06666666666660603,
          "durationTicks": 80,
          "midi": 57,
          "name": "A3",
          "ticks": 806880,
          "time": 672.4000000000001,
          "velocity": 0.8267716535433071
        },
        {
          "duration": 0.06666666666671972,
          "durationTicks": 80,
          "midi": 57,
          "name": "A3",
          "ticks": 807120,
          "time": 672.6,
          "velocity": 0.8267716535433071
        },
        {
          "duration": 0.06666666666671972,
          "durationTicks": 80,
          "midi": 53,
          "name": "F3",
          "ticks": 807360,
          "time": 672.8000000000001,
          "velocity": 0.8267716535433071
        },
        {
          "duration": 0.06666666666671972,
          "durationTicks": 80,
          "midi": 53,
          "name": "F3",
          "ticks": 807600,
          "time": 673,
          "velocity": 0.8267716535433071
        },
        {
          "duration": 0.06666666666671972,
          "durationTicks": 80,
          "midi": 55,
          "name": "G3",
          "ticks": 807840,
          "time": 673.2,
          "velocity": 0.8267716535433071
        },
        {
          "duration": 0.06666666666660603,
          "durationTicks": 80,
          "midi": 55,
          "name": "G3",
          "ticks": 808080,
          "time": 673.4000000000001,
          "velocity": 0.8267716535433071
        },
        {
          "duration": 0.1966666666666015,
          "durationTicks": 236,
          "midi": 48,
          "name": "C3",
          "ticks": 808320,
          "time": 673.6,
          "velocity": 0.8267716535433071
        },
        {
          "duration": 0.19666666666671517,
          "durationTicks": 236,
          "midi": 64,
          "name": "E4",
          "ticks": 808800,
          "time": 674,
          "velocity": 0.8267716535433071
        },
        {
          "duration": 0.1966666666666015,
          "durationTicks": 236,
          "midi": 63,
          "name": "D#4",
          "ticks": 809040,
          "time": 674.2,
          "velocity": 0.8267716535433071
        },
        {
          "duration": 0.1966666666666015,
          "durationTicks": 236,
          "midi": 64,
          "name": "E4",
          "ticks": 809280,
          "time": 674.4000000000001,
          "velocity": 0.8267716535433071
        },
        {
          "duration": 0.1966666666666015,
          "durationTicks": 236,
          "midi": 63,
          "name": "D#4",
          "ticks": 809520,
          "time": 674.6,
          "velocity": 0.8267716535433071
        },
        {
          "duration": 0.1966666666666015,
          "durationTicks": 236,
          "midi": 64,
          "name": "E4",
          "ticks": 809760,
          "time": 674.8000000000001,
          "velocity": 0.8267716535433071
        },
        {
          "duration": 0.19666666666671517,
          "durationTicks": 236,
          "midi": 61,
          "name": "C#4",
          "ticks": 810000,
          "time": 675,
          "velocity": 0.8267716535433071
        },
        {
          "duration": 0.1966666666666015,
          "durationTicks": 236,
          "midi": 62,
          "name": "D4",
          "ticks": 810240,
          "time": 675.2,
          "velocity": 0.8267716535433071
        },
        {
          "duration": 0.1966666666666015,
          "durationTicks": 236,
          "midi": 62,
          "name": "D4",
          "ticks": 810720,
          "time": 675.6,
          "velocity": 0.8267716535433071
        },
        {
          "duration": 0.1966666666666015,
          "durationTicks": 236,
          "midi": 61,
          "name": "C#4",
          "ticks": 810960,
          "time": 675.8000000000001,
          "velocity": 0.8267716535433071
        },
        {
          "duration": 0.19666666666671517,
          "durationTicks": 236,
          "midi": 62,
          "name": "D4",
          "ticks": 811200,
          "time": 676,
          "velocity": 0.8267716535433071
        },
        {
          "duration": 0.1966666666666015,
          "durationTicks": 236,
          "midi": 61,
          "name": "C#4",
          "ticks": 811440,
          "time": 676.2,
          "velocity": 0.8267716535433071
        },
        {
          "duration": 0.1966666666666015,
          "durationTicks": 236,
          "midi": 62,
          "name": "D4",
          "ticks": 811680,
          "time": 676.4000000000001,
          "velocity": 0.8267716535433071
        },
        {
          "duration": 0.1966666666666015,
          "durationTicks": 236,
          "midi": 59,
          "name": "B3",
          "ticks": 811920,
          "time": 676.6,
          "velocity": 0.8267716535433071
        },
        {
          "duration": 0.1966666666666015,
          "durationTicks": 236,
          "midi": 60,
          "name": "C4",
          "ticks": 812160,
          "time": 676.8000000000001,
          "velocity": 0.8267716535433071
        },
        {
          "duration": 0.7999999999999545,
          "durationTicks": 960,
          "midi": 64,
          "name": "E4",
          "ticks": 812640,
          "time": 677.2,
          "velocity": 0.8267716535433071
        },
        {
          "duration": 0.7999999999999545,
          "durationTicks": 960,
          "midi": 67,
          "name": "G4",
          "ticks": 812640,
          "time": 677.2,
          "velocity": 0.8267716535433071
        },
        {
          "duration": 0.33333333333337123,
          "durationTicks": 400,
          "midi": 62,
          "name": "D4",
          "ticks": 813600,
          "time": 678,
          "velocity": 0.8267716535433071
        },
        {
          "duration": 0.33333333333337123,
          "durationTicks": 400,
          "midi": 65,
          "name": "F4",
          "ticks": 813600,
          "time": 678,
          "velocity": 0.8267716535433071
        },
        {
          "duration": 0.1966666666666015,
          "durationTicks": 236,
          "midi": 60,
          "name": "C4",
          "ticks": 814080,
          "time": 678.4000000000001,
          "velocity": 0.8267716535433071
        },
        {
          "duration": 0.1966666666666015,
          "durationTicks": 236,
          "midi": 64,
          "name": "E4",
          "ticks": 814080,
          "time": 678.4000000000001,
          "velocity": 0.8267716535433071
        },
        {
          "duration": 0.1966666666666015,
          "durationTicks": 236,
          "midi": 60,
          "name": "C4",
          "ticks": 814320,
          "time": 678.6,
          "velocity": 0.8267716535433071
        },
        {
          "duration": 0.1966666666666015,
          "durationTicks": 236,
          "midi": 64,
          "name": "E4",
          "ticks": 814320,
          "time": 678.6,
          "velocity": 0.8267716535433071
        },
        {
          "duration": 0.1966666666666015,
          "durationTicks": 236,
          "midi": 57,
          "name": "A3",
          "ticks": 814560,
          "time": 678.8000000000001,
          "velocity": 0.8267716535433071
        },
        {
          "duration": 0.1966666666666015,
          "durationTicks": 236,
          "midi": 65,
          "name": "F4",
          "ticks": 814560,
          "time": 678.8000000000001,
          "velocity": 0.8267716535433071
        },
        {
          "duration": 0.19666666666671517,
          "durationTicks": 236,
          "midi": 57,
          "name": "A3",
          "ticks": 814800,
          "time": 679,
          "velocity": 0.8267716535433071
        },
        {
          "duration": 0.19666666666671517,
          "durationTicks": 236,
          "midi": 65,
          "name": "F4",
          "ticks": 814800,
          "time": 679,
          "velocity": 0.8267716535433071
        },
        {
          "duration": 0.1966666666666015,
          "durationTicks": 236,
          "midi": 60,
          "name": "C4",
          "ticks": 815040,
          "time": 679.2,
          "velocity": 0.8267716535433071
        },
        {
          "duration": 0.1966666666666015,
          "durationTicks": 236,
          "midi": 64,
          "name": "E4",
          "ticks": 815040,
          "time": 679.2,
          "velocity": 0.8267716535433071
        },
        {
          "duration": 0.1966666666666015,
          "durationTicks": 236,
          "midi": 60,
          "name": "C4",
          "ticks": 815280,
          "time": 679.4000000000001,
          "velocity": 0.8267716535433071
        },
        {
          "duration": 0.1966666666666015,
          "durationTicks": 236,
          "midi": 64,
          "name": "E4",
          "ticks": 815280,
          "time": 679.4000000000001,
          "velocity": 0.8267716535433071
        },
        {
          "duration": 0.1966666666666015,
          "durationTicks": 236,
          "midi": 59,
          "name": "B3",
          "ticks": 815520,
          "time": 679.6,
          "velocity": 0.8267716535433071
        },
        {
          "duration": 0.1966666666666015,
          "durationTicks": 236,
          "midi": 62,
          "name": "D4",
          "ticks": 815520,
          "time": 679.6,
          "velocity": 0.8267716535433071
        },
        {
          "duration": 0.1966666666666015,
          "durationTicks": 236,
          "midi": 59,
          "name": "B3",
          "ticks": 815760,
          "time": 679.8000000000001,
          "velocity": 0.8267716535433071
        },
        {
          "duration": 0.1966666666666015,
          "durationTicks": 236,
          "midi": 62,
          "name": "D4",
          "ticks": 815760,
          "time": 679.8000000000001,
          "velocity": 0.8267716535433071
        },
        {
          "duration": 0.33333333333337123,
          "durationTicks": 400,
          "midi": 60,
          "name": "C4",
          "ticks": 816000,
          "time": 680,
          "velocity": 0.9763779527559056
        },
        {
          "duration": 0.33333333333325754,
          "durationTicks": 400,
          "midi": 59,
          "name": "B3",
          "ticks": 816960,
          "time": 680.8000000000001,
          "velocity": 0.9763779527559056
        },
        {
          "duration": 0.33333333333325754,
          "durationTicks": 400,
          "midi": 62,
          "name": "D4",
          "ticks": 816960,
          "time": 680.8000000000001,
          "velocity": 0.9763779527559056
        },
        {
          "duration": 0.33333333333337123,
          "durationTicks": 400,
          "midi": 60,
          "name": "C4",
          "ticks": 817920,
          "time": 681.6,
          "velocity": 0.9763779527559056
        },
        {
          "duration": 0.33333333333337123,
          "durationTicks": 400,
          "midi": 64,
          "name": "E4",
          "ticks": 817920,
          "time": 681.6,
          "velocity": 0.9763779527559056
        },
        {
          "duration": 0.33333333333325754,
          "durationTicks": 400,
          "midi": 59,
          "name": "B3",
          "ticks": 818880,
          "time": 682.4000000000001,
          "velocity": 0.9763779527559056
        },
        {
          "duration": 0.33333333333325754,
          "durationTicks": 400,
          "midi": 62,
          "name": "D4",
          "ticks": 818880,
          "time": 682.4000000000001,
          "velocity": 0.9763779527559056
        },
        {
          "duration": 0.33333333333325754,
          "durationTicks": 400,
          "midi": 60,
          "name": "C4",
          "ticks": 819840,
          "time": 683.2,
          "velocity": 0.9763779527559056
        },
        {
          "duration": 0.33333333333325754,
          "durationTicks": 400,
          "midi": 64,
          "name": "E4",
          "ticks": 819840,
          "time": 683.2,
          "velocity": 0.9763779527559056
        },
        {
          "duration": 0.33333333333337123,
          "durationTicks": 400,
          "midi": 59,
          "name": "B3",
          "ticks": 820800,
          "time": 684,
          "velocity": 0.9763779527559056
        },
        {
          "duration": 0.33333333333337123,
          "durationTicks": 400,
          "midi": 62,
          "name": "D4",
          "ticks": 820800,
          "time": 684,
          "velocity": 0.9763779527559056
        },
        {
          "duration": 0.1966666666666015,
          "durationTicks": 236,
          "midi": 48,
          "name": "C3",
          "ticks": 821760,
          "time": 684.8000000000001,
          "velocity": 0.9763779527559056
        },
        {
          "duration": 0.19666666666671517,
          "durationTicks": 236,
          "midi": 43,
          "name": "G2",
          "ticks": 822000,
          "time": 685,
          "velocity": 0.9763779527559056
        },
        {
          "duration": 0.1966666666666015,
          "durationTicks": 236,
          "midi": 48,
          "name": "C3",
          "ticks": 822240,
          "time": 685.2,
          "velocity": 0.9763779527559056
        },
        {
          "duration": 0.1966666666666015,
          "durationTicks": 236,
          "midi": 43,
          "name": "G2",
          "ticks": 822480,
          "time": 685.4000000000001,
          "velocity": 0.9763779527559056
        },
        {
          "duration": 0.1966666666666015,
          "durationTicks": 236,
          "midi": 48,
          "name": "C3",
          "ticks": 822720,
          "time": 685.6,
          "velocity": 0.9763779527559056
        },
        {
          "duration": 0.1966666666666015,
          "durationTicks": 236,
          "midi": 43,
          "name": "G2",
          "ticks": 822960,
          "time": 685.8000000000001,
          "velocity": 0.9763779527559056
        },
        {
          "duration": 0.19666666666671517,
          "durationTicks": 236,
          "midi": 48,
          "name": "C3",
          "ticks": 823200,
          "time": 686,
          "velocity": 0.984251968503937
        },
        {
          "duration": 0.1966666666666015,
          "durationTicks": 236,
          "midi": 43,
          "name": "G2",
          "ticks": 823440,
          "time": 686.2,
          "velocity": 0.9921259842519685
        },
        {
          "duration": 0.1966666666666015,
          "durationTicks": 236,
          "midi": 48,
          "name": "C3",
          "ticks": 823680,
          "time": 686.4000000000001,
          "velocity": 1
        },
        {
          "duration": 0.1966666666666015,
          "durationTicks": 236,
          "midi": 52,
          "name": "E3",
          "ticks": 823920,
          "time": 686.6,
          "velocity": 1
        },
        {
          "duration": 0.1966666666666015,
          "durationTicks": 236,
          "midi": 55,
          "name": "G3",
          "ticks": 824160,
          "time": 686.8000000000001,
          "velocity": 1
        },
        {
          "duration": 0.19666666666671517,
          "durationTicks": 236,
          "midi": 52,
          "name": "E3",
          "ticks": 824400,
          "time": 687,
          "velocity": 1
        },
        {
          "duration": 0.1966666666666015,
          "durationTicks": 236,
          "midi": 55,
          "name": "G3",
          "ticks": 824640,
          "time": 687.2,
          "velocity": 1
        },
        {
          "duration": 0.1966666666666015,
          "durationTicks": 236,
          "midi": 52,
          "name": "E3",
          "ticks": 824880,
          "time": 687.4000000000001,
          "velocity": 1
        },
        {
          "duration": 0.1966666666666015,
          "durationTicks": 236,
          "midi": 55,
          "name": "G3",
          "ticks": 825120,
          "time": 687.6,
          "velocity": 1
        },
        {
          "duration": 0.1966666666666015,
          "durationTicks": 236,
          "midi": 52,
          "name": "E3",
          "ticks": 825360,
          "time": 687.8000000000001,
          "velocity": 1
        },
        {
          "duration": 0.33333333333337123,
          "durationTicks": 400,
          "midi": 48,
          "name": "C3",
          "ticks": 825600,
          "time": 688,
          "velocity": 1
        },
        {
          "duration": 0.33333333333325754,
          "durationTicks": 400,
          "midi": 52,
          "name": "E3",
          "ticks": 826080,
          "time": 688.4000000000001,
          "velocity": 1
        },
        {
          "duration": 0.33333333333325754,
          "durationTicks": 400,
          "midi": 55,
          "name": "G3",
          "ticks": 826560,
          "time": 688.8000000000001,
          "velocity": 1
        },
        {
          "duration": 0.33333333333325754,
          "durationTicks": 400,
          "midi": 52,
          "name": "E3",
          "ticks": 827040,
          "time": 689.2,
          "velocity": 1
        },
        {
          "duration": 0.38461500000005344,
          "durationTicks": 400,
          "midi": 48,
          "name": "C3",
          "ticks": 827520,
          "time": 689.6,
          "velocity": 1
        },
        {
          "duration": 0.4545458333333272,
          "durationTicks": 400,
          "midi": 48,
          "name": "C3",
          "ticks": 828480,
          "time": 690.5230760000001,
          "velocity": 1
        },
        {
          "duration": 1.0499999999999545,
          "durationTicks": 840,
          "midi": 48,
          "name": "C3",
          "ticks": 829440,
          "time": 691.6139860000001,
          "velocity": 1
        }
      ]
    },
    {
      "channel": 0,
      "controlChanges": {},
      "pitchBends": [],
      "instrument": {
        "family": "piano",
        "number": 0,
        "name": "acoustic grand piano"
      },
      "name": "Corni",
      "notes": [],
      "endOfTrackTicks": 831360
    },
    {
      "channel": 3,
      "controlChanges": {
        "7": [
          {
            "number": 7,
            "ticks": 0,
            "time": 0,
            "value": 0.7086614173228346
          }
        ],
        "10": [
          {
            "number": 10,
            "ticks": 0,
            "time": 0,
            "value": 0.2440944881889764
          }
        ]
      },
      "pitchBends": [],
      "instrument": {
        "family": "brass",
        "number": 60,
        "name": "french horn"
      },
      "name": "",
      "notes": [
        {
          "duration": 0.33333333333333337,
          "durationTicks": 400,
          "midi": 60,
          "name": "C4",
          "ticks": 0,
          "time": 0,
          "velocity": 0.8267716535433071
        },
        {
          "duration": 0.33333333333333337,
          "durationTicks": 400,
          "midi": 72,
          "name": "C5",
          "ticks": 0,
          "time": 0,
          "velocity": 0.8267716535433071
        },
        {
          "duration": 0.3333333333333335,
          "durationTicks": 400,
          "midi": 60,
          "name": "C4",
          "ticks": 960,
          "time": 0.8,
          "velocity": 0.8267716535433071
        },
        {
          "duration": 0.3333333333333335,
          "durationTicks": 400,
          "midi": 72,
          "name": "C5",
          "ticks": 960,
          "time": 0.8,
          "velocity": 0.8267716535433071
        },
        {
          "duration": 0.33333333333333326,
          "durationTicks": 400,
          "midi": 60,
          "name": "C4",
          "ticks": 1920,
          "time": 1.6,
          "velocity": 0.8267716535433071
        },
        {
          "duration": 0.33333333333333326,
          "durationTicks": 400,
          "midi": 72,
          "name": "C5",
          "ticks": 1920,
          "time": 1.6,
          "velocity": 0.8267716535433071
        },
        {
          "duration": 0.33333333333333304,
          "durationTicks": 400,
          "midi": 67,
          "name": "G4",
          "ticks": 7680,
          "time": 6.4,
          "velocity": 0.8267716535433071
        },
        {
          "duration": 0.33333333333333304,
          "durationTicks": 400,
          "midi": 67,
          "name": "G4",
          "ticks": 8640,
          "time": 7.2,
          "velocity": 0.8267716535433071
        },
        {
          "duration": 0.3333333333333339,
          "durationTicks": 400,
          "midi": 67,
          "name": "G4",
          "ticks": 9600,
          "time": 8,
          "velocity": 0.8267716535433071
        },
        {
          "duration": 0.3333333333333339,
          "durationTicks": 400,
          "midi": 60,
          "name": "C4",
          "ticks": 15360,
          "time": 12.8,
          "velocity": 0.8267716535433071
        },
        {
          "duration": 0.3333333333333339,
          "durationTicks": 400,
          "midi": 72,
          "name": "C5",
          "ticks": 15360,
          "time": 12.8,
          "velocity": 0.8267716535433071
        },
        {
          "duration": 0.29666666666666686,
          "durationTicks": 356,
          "midi": 60,
          "name": "C4",
          "ticks": 15840,
          "time": 13.200000000000001,
          "velocity": 0.8267716535433071
        },
        {
          "duration": 0.29666666666666686,
          "durationTicks": 356,
          "midi": 72,
          "name": "C5",
          "ticks": 15840,
          "time": 13.200000000000001,
          "velocity": 0.8267716535433071
        },
        {
          "duration": 0.09666666666666757,
          "durationTicks": 116,
          "midi": 60,
          "name": "C4",
          "ticks": 16200,
          "time": 13.5,
          "velocity": 0.8267716535433071
        },
        {
          "duration": 0.09666666666666757,
          "durationTicks": 116,
          "midi": 72,
          "name": "C5",
          "ticks": 16200,
          "time": 13.5,
          "velocity": 0.8267716535433071
        },
        {
          "duration": 0.3333333333333339,
          "durationTicks": 400,
          "midi": 60,
          "name": "C4",
          "ticks": 16320,
          "time": 13.600000000000001,
          "velocity": 0.8267716535433071
        },
        {
          "duration": 0.3333333333333339,
          "durationTicks": 400,
          "midi": 72,
          "name": "C5",
          "ticks": 16320,
          "time": 13.600000000000001,
          "velocity": 0.8267716535433071
        },
        {
          "duration": 0.3333333333333357,
          "durationTicks": 400,
          "midi": 60,
          "name": "C4",
          "ticks": 16800,
          "time": 14,
          "velocity": 0.8267716535433071
        },
        {
          "duration": 0.3333333333333357,
          "durationTicks": 400,
          "midi": 72,
          "name": "C5",
          "ticks": 16800,
          "time": 14,
          "velocity": 0.8267716535433071
        },
        {
          "duration": 0.3333333333333339,
          "durationTicks": 400,
          "midi": 60,
          "name": "C4",
          "ticks": 17280,
          "time": 14.4,
          "velocity": 0.8267716535433071
        },
        {
          "duration": 0.3333333333333339,
          "durationTicks": 400,
          "midi": 72,
          "name": "C5",
          "ticks": 17280,
          "time": 14.4,
          "velocity": 0.8267716535433071
        },
        {
          "duration": 0.29666666666666686,
          "durationTicks": 356,
          "midi": 60,
          "name": "C4",
          "ticks": 17760,
          "time": 14.8,
          "velocity": 0.8267716535433071
        },
        {
          "duration": 0.29666666666666686,
          "durationTicks": 356,
          "midi": 72,
          "name": "C5",
          "ticks": 17760,
          "time": 14.8,
          "velocity": 0.8267716535433071
        },
        {
          "duration": 0.09666666666666579,
          "durationTicks": 116,
          "midi": 60,
          "name": "C4",
          "ticks": 18120,
          "time": 15.100000000000001,
          "velocity": 0.8267716535433071
        },
        {
          "duration": 0.09666666666666579,
          "durationTicks": 116,
          "midi": 72,
          "name": "C5",
          "ticks": 18120,
          "time": 15.100000000000001,
          "velocity": 0.8267716535433071
        },
        {
          "duration": 0.3333333333333339,
          "durationTicks": 400,
          "midi": 60,
          "name": "C4",
          "ticks": 18240,
          "time": 15.200000000000001,
          "velocity": 0.8267716535433071
        },
        {
          "duration": 0.3333333333333339,
          "durationTicks": 400,
          "midi": 72,
          "name": "C5",
          "ticks": 18240,
          "time": 15.200000000000001,
          "velocity": 0.8267716535433071
        },
        {
          "duration": 0.3333333333333339,
          "durationTicks": 400,
          "midi": 60,
          "name": "C4",
          "ticks": 18720,
          "time": 15.600000000000001,
          "velocity": 0.8267716535433071
        },
        {
          "duration": 0.3333333333333339,
          "durationTicks": 400,
          "midi": 72,
          "name": "C5",
          "ticks": 18720,
          "time": 15.600000000000001,
          "velocity": 0.8267716535433071
        },
        {
          "duration": 0.3333333333333357,
          "durationTicks": 400,
          "midi": 67,
          "name": "G4",
          "ticks": 19200,
          "time": 16,
          "velocity": 0.8267716535433071
        },
        {
          "duration": 0.3333333333333357,
          "durationTicks": 400,
          "midi": 74,
          "name": "D5",
          "ticks": 19200,
          "time": 16,
          "velocity": 0.8267716535433071
        },
        {
          "duration": 0.29666666666666686,
          "durationTicks": 356,
          "midi": 67,
          "name": "G4",
          "ticks": 19680,
          "time": 16.400000000000002,
          "velocity": 0.8267716535433071
        },
        {
          "duration": 0.29666666666666686,
          "durationTicks": 356,
          "midi": 74,
          "name": "D5",
          "ticks": 19680,
          "time": 16.400000000000002,
          "velocity": 0.8267716535433071
        },
        {
          "duration": 0.09666666666666757,
          "durationTicks": 116,
          "midi": 67,
          "name": "G4",
          "ticks": 20040,
          "time": 16.7,
          "velocity": 0.8267716535433071
        },
        {
          "duration": 0.09666666666666757,
          "durationTicks": 116,
          "midi": 74,
          "name": "D5",
          "ticks": 20040,
          "time": 16.7,
          "velocity": 0.8267716535433071
        },
        {
          "duration": 0.3333333333333357,
          "durationTicks": 400,
          "midi": 67,
          "name": "G4",
          "ticks": 20160,
          "time": 16.8,
          "velocity": 0.8267716535433071
        },
        {
          "duration": 0.3333333333333357,
          "durationTicks": 400,
          "midi": 74,
          "name": "D5",
          "ticks": 20160,
          "time": 16.8,
          "velocity": 0.8267716535433071
        },
        {
          "duration": 0.3333333333333357,
          "durationTicks": 400,
          "midi": 67,
          "name": "G4",
          "ticks": 20640,
          "time": 17.2,
          "velocity": 0.8267716535433071
        },
        {
          "duration": 0.3333333333333357,
          "durationTicks": 400,
          "midi": 74,
          "name": "D5",
          "ticks": 20640,
          "time": 17.2,
          "velocity": 0.8267716535433071
        },
        {
          "duration": 0.33333333333333215,
          "durationTicks": 400,
          "midi": 64,
          "name": "E4",
          "ticks": 21120,
          "time": 17.6,
          "velocity": 0.8267716535433071
        },
        {
          "duration": 0.33333333333333215,
          "durationTicks": 400,
          "midi": 67,
          "name": "G4",
          "ticks": 21120,
          "time": 17.6,
          "velocity": 0.8267716535433071
        },
        {
          "duration": 0.29666666666666686,
          "durationTicks": 356,
          "midi": 60,
          "name": "C4",
          "ticks": 21600,
          "time": 18,
          "velocity": 0.8267716535433071
        },
        {
          "duration": 0.29666666666666686,
          "durationTicks": 356,
          "midi": 72,
          "name": "C5",
          "ticks": 21600,
          "time": 18,
          "velocity": 0.8267716535433071
        },
        {
          "duration": 0.09666666666666757,
          "durationTicks": 116,
          "midi": 60,
          "name": "C4",
          "ticks": 21960,
          "time": 18.3,
          "velocity": 0.8267716535433071
        },
        {
          "duration": 0.09666666666666757,
          "durationTicks": 116,
          "midi": 72,
          "name": "C5",
          "ticks": 21960,
          "time": 18.3,
          "velocity": 0.8267716535433071
        },
        {
          "duration": 0.33333333333333215,
          "durationTicks": 400,
          "midi": 60,
          "name": "C4",
          "ticks": 22080,
          "time": 18.400000000000002,
          "velocity": 0.8267716535433071
        },
        {
          "duration": 0.33333333333333215,
          "durationTicks": 400,
          "midi": 72,
          "name": "C5",
          "ticks": 22080,
          "time": 18.400000000000002,
          "velocity": 0.8267716535433071
        },
        {
          "duration": 0.3333333333333357,
          "durationTicks": 400,
          "midi": 60,
          "name": "C4",
          "ticks": 22560,
          "time": 18.8,
          "velocity": 0.8267716535433071
        },
        {
          "duration": 0.3333333333333357,
          "durationTicks": 400,
          "midi": 72,
          "name": "C5",
          "ticks": 22560,
          "time": 18.8,
          "velocity": 0.8267716535433071
        },
        {
          "duration": 0.33333333333333215,
          "durationTicks": 400,
          "midi": 60,
          "name": "C4",
          "ticks": 23040,
          "time": 19.200000000000003,
          "velocity": 0.8267716535433071
        },
        {
          "duration": 0.33333333333333215,
          "durationTicks": 400,
          "midi": 72,
          "name": "C5",
          "ticks": 23040,
          "time": 19.200000000000003,
          "velocity": 0.8267716535433071
        },
        {
          "duration": 0.29666666666666686,
          "durationTicks": 356,
          "midi": 60,
          "name": "C4",
          "ticks": 23520,
          "time": 19.6,
          "velocity": 0.8267716535433071
        },
        {
          "duration": 0.29666666666666686,
          "durationTicks": 356,
          "midi": 72,
          "name": "C5",
          "ticks": 23520,
          "time": 19.6,
          "velocity": 0.8267716535433071
        },
        {
          "duration": 0.09666666666666757,
          "durationTicks": 116,
          "midi": 60,
          "name": "C4",
          "ticks": 23880,
          "time": 19.900000000000002,
          "velocity": 0.8267716535433071
        },
        {
          "duration": 0.09666666666666757,
          "durationTicks": 116,
          "midi": 72,
          "name": "C5",
          "ticks": 23880,
          "time": 19.900000000000002,
          "velocity": 0.8267716535433071
        },
        {
          "duration": 0.3333333333333357,
          "durationTicks": 400,
          "midi": 60,
          "name": "C4",
          "ticks": 24000,
          "time": 20,
          "velocity": 0.8267716535433071
        },
        {
          "duration": 0.3333333333333357,
          "durationTicks": 400,
          "midi": 72,
          "name": "C5",
          "ticks": 24000,
          "time": 20,
          "velocity": 0.8267716535433071
        },
        {
          "duration": 0.33333333333333215,
          "durationTicks": 400,
          "midi": 60,
          "name": "C4",
          "ticks": 24480,
          "time": 20.400000000000002,
          "velocity": 0.8267716535433071
        },
        {
          "duration": 0.33333333333333215,
          "durationTicks": 400,
          "midi": 72,
          "name": "C5",
          "ticks": 24480,
          "time": 20.400000000000002,
          "velocity": 0.8267716535433071
        },
        {
          "duration": 0.3333333333333357,
          "durationTicks": 400,
          "midi": 67,
          "name": "G4",
          "ticks": 24960,
          "time": 20.8,
          "velocity": 0.8267716535433071
        },
        {
          "duration": 0.3333333333333357,
          "durationTicks": 400,
          "midi": 74,
          "name": "D5",
          "ticks": 24960,
          "time": 20.8,
          "velocity": 0.8267716535433071
        },
        {
          "duration": 0.29666666666666686,
          "durationTicks": 356,
          "midi": 67,
          "name": "G4",
          "ticks": 25440,
          "time": 21.200000000000003,
          "velocity": 0.8267716535433071
        },
        {
          "duration": 0.29666666666666686,
          "durationTicks": 356,
          "midi": 74,
          "name": "D5",
          "ticks": 25440,
          "time": 21.200000000000003,
          "velocity": 0.8267716535433071
        },
        {
          "duration": 0.09666666666666757,
          "durationTicks": 116,
          "midi": 67,
          "name": "G4",
          "ticks": 25800,
          "time": 21.5,
          "velocity": 0.8267716535433071
        },
        {
          "duration": 0.09666666666666757,
          "durationTicks": 116,
          "midi": 74,
          "name": "D5",
          "ticks": 25800,
          "time": 21.5,
          "velocity": 0.8267716535433071
        },
        {
          "duration": 0.3333333333333357,
          "durationTicks": 400,
          "midi": 67,
          "name": "G4",
          "ticks": 25920,
          "time": 21.6,
          "velocity": 0.8267716535433071
        },
        {
          "duration": 0.3333333333333357,
          "durationTicks": 400,
          "midi": 74,
          "name": "D5",
          "ticks": 25920,
          "time": 21.6,
          "velocity": 0.8267716535433071
        },
        {
          "duration": 0.3333333333333357,
          "durationTicks": 400,
          "midi": 67,
          "name": "G4",
          "ticks": 26400,
          "time": 22,
          "velocity": 0.8267716535433071
        },
        {
          "duration": 0.3333333333333357,
          "durationTicks": 400,
          "midi": 74,
          "name": "D5",
          "ticks": 26400,
          "time": 22,
          "velocity": 0.8267716535433071
        },
        {
          "duration": 0.33333333333333215,
          "durationTicks": 400,
          "midi": 64,
          "name": "E4",
          "ticks": 26880,
          "time": 22.400000000000002,
          "velocity": 0.8267716535433071
        },
        {
          "duration": 0.33333333333333215,
          "durationTicks": 400,
          "midi": 67,
          "name": "G4",
          "ticks": 26880,
          "time": 22.400000000000002,
          "velocity": 0.8267716535433071
        },
        {
          "duration": 0.3333333333333357,
          "durationTicks": 400,
          "midi": 64,
          "name": "E4",
          "ticks": 27360,
          "time": 22.8,
          "velocity": 0.8267716535433071
        },
        {
          "duration": 0.3333333333333357,
          "durationTicks": 400,
          "midi": 72,
          "name": "C5",
          "ticks": 27360,
          "time": 22.8,
          "velocity": 0.8267716535433071
        },
        {
          "duration": 0.3333333333333357,
          "durationTicks": 400,
          "midi": 67,
          "name": "G4",
          "ticks": 28320,
          "time": 23.6,
          "velocity": 0.8267716535433071
        },
        {
          "duration": 0.3333333333333357,
          "durationTicks": 400,
          "midi": 74,
          "name": "D5",
          "ticks": 28320,
          "time": 23.6,
          "velocity": 0.8267716535433071
        },
        {
          "duration": 0.33333333333333215,
          "durationTicks": 400,
          "midi": 72,
          "name": "C5",
          "ticks": 29280,
          "time": 24.400000000000002,
          "velocity": 0.8267716535433071
        },
        {
          "duration": 0.33333333333333215,
          "durationTicks": 400,
          "midi": 76,
          "name": "E5",
          "ticks": 29280,
          "time": 24.400000000000002,
          "velocity": 0.8267716535433071
        },
        {
          "duration": 0.33333333333333215,
          "durationTicks": 400,
          "midi": 67,
          "name": "G4",
          "ticks": 30240,
          "time": 25.200000000000003,
          "velocity": 0.8267716535433071
        },
        {
          "duration": 0.33333333333333215,
          "durationTicks": 400,
          "midi": 74,
          "name": "D5",
          "ticks": 30240,
          "time": 25.200000000000003,
          "velocity": 0.8267716535433071
        },
        {
          "duration": 0.33333333333333215,
          "durationTicks": 400,
          "midi": 72,
          "name": "C5",
          "ticks": 30720,
          "time": 25.6,
          "velocity": 0.8267716535433071
        },
        {
          "duration": 0.33333333333333215,
          "durationTicks": 400,
          "midi": 76,
          "name": "E5",
          "ticks": 30720,
          "time": 25.6,
          "velocity": 0.8267716535433071
        },
        {
          "duration": 0.19666666666666544,
          "durationTicks": 236,
          "midi": 67,
          "name": "G4",
          "ticks": 31200,
          "time": 26,
          "velocity": 0.8267716535433071
        },
        {
          "duration": 0.19666666666666188,
          "durationTicks": 236,
          "midi": 67,
          "name": "G4",
          "ticks": 31440,
          "time": 26.200000000000003,
          "velocity": 0.8267716535433071
        },
        {
          "duration": 0.19666666666666188,
          "durationTicks": 236,
          "midi": 72,
          "name": "C5",
          "ticks": 31680,
          "time": 26.400000000000002,
          "velocity": 0.8267716535433071
        },
        {
          "duration": 0.19666666666666544,
          "durationTicks": 236,
          "midi": 72,
          "name": "C5",
          "ticks": 31920,
          "time": 26.6,
          "velocity": 0.8267716535433071
        },
        {
          "duration": 0.19666666666666544,
          "durationTicks": 236,
          "midi": 67,
          "name": "G4",
          "ticks": 32160,
          "time": 26.8,
          "velocity": 0.8267716535433071
        },
        {
          "duration": 0.19666666666666544,
          "durationTicks": 236,
          "midi": 67,
          "name": "G4",
          "ticks": 32400,
          "time": 27,
          "velocity": 0.8267716535433071
        },
        {
          "duration": 0.19666666666666188,
          "durationTicks": 236,
          "midi": 72,
          "name": "C5",
          "ticks": 32640,
          "time": 27.200000000000003,
          "velocity": 0.8267716535433071
        },
        {
          "duration": 0.19666666666666188,
          "durationTicks": 236,
          "midi": 72,
          "name": "C5",
          "ticks": 32880,
          "time": 27.400000000000002,
          "velocity": 0.8267716535433071
        },
        {
          "duration": 0.19666666666666544,
          "durationTicks": 236,
          "midi": 67,
          "name": "G4",
          "ticks": 33120,
          "time": 27.6,
          "velocity": 0.8267716535433071
        },
        {
          "duration": 0.19666666666666544,
          "durationTicks": 236,
          "midi": 67,
          "name": "G4",
          "ticks": 33360,
          "time": 27.8,
          "velocity": 0.8267716535433071
        },
        {
          "duration": 0.19666666666666544,
          "durationTicks": 236,
          "midi": 64,
          "name": "E4",
          "ticks": 33600,
          "time": 28,
          "velocity": 0.8267716535433071
        },
        {
          "duration": 0.19666666666666188,
          "durationTicks": 236,
          "midi": 64,
          "name": "E4",
          "ticks": 33840,
          "time": 28.200000000000003,
          "velocity": 0.8267716535433071
        },
        {
          "duration": 0.19666666666666188,
          "durationTicks": 236,
          "midi": 60,
          "name": "C4",
          "ticks": 34080,
          "time": 28.400000000000002,
          "velocity": 0.8267716535433071
        },
        {
          "duration": 0.19666666666666544,
          "durationTicks": 236,
          "midi": 60,
          "name": "C4",
          "ticks": 34320,
          "time": 28.6,
          "velocity": 0.8267716535433071
        },
        {
          "duration": 0.33333333333333215,
          "durationTicks": 400,
          "midi": 67,
          "name": "G4",
          "ticks": 34560,
          "time": 28.8,
          "velocity": 0.8267716535433071
        },
        {
          "duration": 0.3333333333333286,
          "durationTicks": 400,
          "midi": 67,
          "name": "G4",
          "ticks": 35040,
          "time": 29.200000000000003,
          "velocity": 0.8267716535433071
        },
        {
          "duration": 0.3333333333333286,
          "durationTicks": 400,
          "midi": 79,
          "name": "G5",
          "ticks": 35040,
          "time": 29.200000000000003,
          "velocity": 0.8267716535433071
        },
        {
          "duration": 0.33333333333333215,
          "durationTicks": 400,
          "midi": 67,
          "name": "G4",
          "ticks": 36000,
          "time": 30,
          "velocity": 0.8267716535433071
        },
        {
          "duration": 0.33333333333333215,
          "durationTicks": 400,
          "midi": 79,
          "name": "G5",
          "ticks": 36000,
          "time": 30,
          "velocity": 0.8267716535433071
        },
        {
          "duration": 0.33333333333333215,
          "durationTicks": 400,
          "midi": 67,
          "name": "G4",
          "ticks": 36960,
          "time": 30.8,
          "velocity": 0.8267716535433071
        },
        {
          "duration": 0.33333333333333215,
          "durationTicks": 400,
          "midi": 79,
          "name": "G5",
          "ticks": 36960,
          "time": 30.8,
          "velocity": 0.8267716535433071
        },
        {
          "duration": 0.33333333333333215,
          "durationTicks": 400,
          "midi": 67,
          "name": "G4",
          "ticks": 37920,
          "time": 31.6,
          "velocity": 0.8267716535433071
        },
        {
          "duration": 0.33333333333333215,
          "durationTicks": 400,
          "midi": 79,
          "name": "G5",
          "ticks": 37920,
          "time": 31.6,
          "velocity": 0.8267716535433071
        },
        {
          "duration": 0.19666666666666544,
          "durationTicks": 236,
          "midi": 67,
          "name": "G4",
          "ticks": 38400,
          "time": 32,
          "velocity": 0.8267716535433071
        },
        {
          "duration": 0.19666666666666544,
          "durationTicks": 236,
          "midi": 74,
          "name": "D5",
          "ticks": 38400,
          "time": 32,
          "velocity": 0.8267716535433071
        },
        {
          "duration": 0.19666666666666544,
          "durationTicks": 236,
          "midi": 72,
          "name": "C5",
          "ticks": 38640,
          "time": 32.2,
          "velocity": 0.8346456692913385
        },
        {
          "duration": 0.19666666666666544,
          "durationTicks": 236,
          "midi": 76,
          "name": "E5",
          "ticks": 38640,
          "time": 32.2,
          "velocity": 0.8346456692913385
        },
        {
          "duration": 0.19666666666666544,
          "durationTicks": 236,
          "midi": 67,
          "name": "G4",
          "ticks": 38880,
          "time": 32.4,
          "velocity": 0.8503937007874016
        },
        {
          "duration": 0.19666666666666544,
          "durationTicks": 236,
          "midi": 74,
          "name": "D5",
          "ticks": 38880,
          "time": 32.4,
          "velocity": 0.8503937007874016
        },
        {
          "duration": 0.19666666666666544,
          "durationTicks": 236,
          "midi": 72,
          "name": "C5",
          "ticks": 39120,
          "time": 32.6,
          "velocity": 0.8582677165354331
        },
        {
          "duration": 0.19666666666666544,
          "durationTicks": 236,
          "midi": 76,
          "name": "E5",
          "ticks": 39120,
          "time": 32.6,
          "velocity": 0.8582677165354331
        },
        {
          "duration": 0.19666666666665833,
          "durationTicks": 236,
          "midi": 67,
          "name": "G4",
          "ticks": 39360,
          "time": 32.800000000000004,
          "velocity": 0.8661417322834646
        },
        {
          "duration": 0.19666666666665833,
          "durationTicks": 236,
          "midi": 74,
          "name": "D5",
          "ticks": 39360,
          "time": 32.800000000000004,
          "velocity": 0.8661417322834646
        },
        {
          "duration": 0.19666666666666544,
          "durationTicks": 236,
          "midi": 72,
          "name": "C5",
          "ticks": 39600,
          "time": 33,
          "velocity": 0.8740157480314961
        },
        {
          "duration": 0.19666666666666544,
          "durationTicks": 236,
          "midi": 76,
          "name": "E5",
          "ticks": 39600,
          "time": 33,
          "velocity": 0.8740157480314961
        },
        {
          "duration": 0.19666666666666544,
          "durationTicks": 236,
          "midi": 67,
          "name": "G4",
          "ticks": 39840,
          "time": 33.2,
          "velocity": 0.8818897637795275
        },
        {
          "duration": 0.19666666666666544,
          "durationTicks": 236,
          "midi": 74,
          "name": "D5",
          "ticks": 39840,
          "time": 33.2,
          "velocity": 0.8818897637795275
        },
        {
          "duration": 0.19666666666666544,
          "durationTicks": 236,
          "midi": 72,
          "name": "C5",
          "ticks": 40080,
          "time": 33.4,
          "velocity": 0.889763779527559
        },
        {
          "duration": 0.19666666666666544,
          "durationTicks": 236,
          "midi": 76,
          "name": "E5",
          "ticks": 40080,
          "time": 33.4,
          "velocity": 0.889763779527559
        },
        {
          "duration": 0.3333333333333286,
          "durationTicks": 400,
          "midi": 67,
          "name": "G4",
          "ticks": 40320,
          "time": 33.6,
          "velocity": 0.905511811023622
        },
        {
          "duration": 0.3333333333333286,
          "durationTicks": 400,
          "midi": 74,
          "name": "D5",
          "ticks": 40320,
          "time": 33.6,
          "velocity": 0.905511811023622
        },
        {
          "duration": 0.3333333333333357,
          "durationTicks": 400,
          "midi": 55,
          "name": "G3",
          "ticks": 41280,
          "time": 34.4,
          "velocity": 0.937007874015748
        },
        {
          "duration": 0.3333333333333357,
          "durationTicks": 400,
          "midi": 67,
          "name": "G4",
          "ticks": 41280,
          "time": 34.4,
          "velocity": 0.937007874015748
        },
        {
          "duration": 0.3333333333333286,
          "durationTicks": 400,
          "midi": 55,
          "name": "G3",
          "ticks": 41760,
          "time": 34.800000000000004,
          "velocity": 0.952755905511811
        },
        {
          "duration": 0.3333333333333286,
          "durationTicks": 400,
          "midi": 67,
          "name": "G4",
          "ticks": 41760,
          "time": 34.800000000000004,
          "velocity": 0.952755905511811
        },
        {
          "duration": 1.5,
          "durationTicks": 1800,
          "midi": 55,
          "name": "G3",
          "ticks": 42240,
          "time": 35.2,
          "velocity": 0.9763779527559056
        },
        {
          "duration": 1.5,
          "durationTicks": 1800,
          "midi": 67,
          "name": "G4",
          "ticks": 42240,
          "time": 35.2,
          "velocity": 0.9763779527559056
        },
        {
          "duration": 0.3999999999999986,
          "durationTicks": 480,
          "midi": 60,
          "name": "C4",
          "ticks": 44160,
          "time": 36.800000000000004,
          "velocity": 0.4015748031496063
        },
        {
          "duration": 0.3999999999999986,
          "durationTicks": 480,
          "midi": 72,
          "name": "C5",
          "ticks": 44160,
          "time": 36.800000000000004,
          "velocity": 0.4015748031496063
        },
        {
          "duration": 0.3999999999999986,
          "durationTicks": 480,
          "midi": 64,
          "name": "E4",
          "ticks": 44640,
          "time": 37.2,
          "velocity": 0.4015748031496063
        },
        {
          "duration": 0.3999999999999986,
          "durationTicks": 480,
          "midi": 76,
          "name": "E5",
          "ticks": 44640,
          "time": 37.2,
          "velocity": 0.4015748031496063
        },
        {
          "duration": 0.3999999999999986,
          "durationTicks": 480,
          "midi": 67,
          "name": "G4",
          "ticks": 45120,
          "time": 37.6,
          "velocity": 0.4015748031496063
        },
        {
          "duration": 0.3999999999999986,
          "durationTicks": 480,
          "midi": 79,
          "name": "G5",
          "ticks": 45120,
          "time": 37.6,
          "velocity": 0.4015748031496063
        },
        {
          "duration": 0.3333333333333357,
          "durationTicks": 400,
          "midi": 64,
          "name": "E4",
          "ticks": 45600,
          "time": 38,
          "velocity": 0.4015748031496063
        },
        {
          "duration": 0.3333333333333357,
          "durationTicks": 400,
          "midi": 76,
          "name": "E5",
          "ticks": 45600,
          "time": 38,
          "velocity": 0.4015748031496063
        },
        {
          "duration": 0.3333333333333286,
          "durationTicks": 400,
          "midi": 60,
          "name": "C4",
          "ticks": 46080,
          "time": 38.400000000000006,
          "velocity": 0.4015748031496063
        },
        {
          "duration": 0.3333333333333286,
          "durationTicks": 400,
          "midi": 72,
          "name": "C5",
          "ticks": 46080,
          "time": 38.400000000000006,
          "velocity": 0.4015748031496063
        },
        {
          "duration": 0.3333333333333357,
          "durationTicks": 400,
          "midi": 67,
          "name": "G4",
          "ticks": 69120,
          "time": 57.6,
          "velocity": 0.8267716535433071
        },
        {
          "duration": 0.3333333333333357,
          "durationTicks": 400,
          "midi": 67,
          "name": "G4",
          "ticks": 70080,
          "time": 58.400000000000006,
          "velocity": 0.8267716535433071
        },
        {
          "duration": 0.3333333333333357,
          "durationTicks": 400,
          "midi": 67,
          "name": "G4",
          "ticks": 71040,
          "time": 59.2,
          "velocity": 0.8267716535433071
        },
        {
          "duration": 1.6000000000000014,
          "durationTicks": 1920,
          "midi": 67,
          "name": "G4",
          "ticks": 72960,
          "time": 60.800000000000004,
          "velocity": 0.8267716535433071
        },
        {
          "duration": 0.3333333333333357,
          "durationTicks": 400,
          "midi": 67,
          "name": "G4",
          "ticks": 74880,
          "time": 62.400000000000006,
          "velocity": 0.8267716535433071
        },
        {
          "duration": 0.29666666666666686,
          "durationTicks": 356,
          "midi": 67,
          "name": "G4",
          "ticks": 75360,
          "time": 62.800000000000004,
          "velocity": 0.8267716535433071
        },
        {
          "duration": 0.09666666666667112,
          "durationTicks": 116,
          "midi": 67,
          "name": "G4",
          "ticks": 75720,
          "time": 63.1,
          "velocity": 0.8267716535433071
        },
        {
          "duration": 0.3333333333333357,
          "durationTicks": 400,
          "midi": 67,
          "name": "G4",
          "ticks": 75840,
          "time": 63.2,
          "velocity": 0.8267716535433071
        },
        {
          "duration": 0.3333333333333357,
          "durationTicks": 400,
          "midi": 67,
          "name": "G4",
          "ticks": 76320,
          "time": 63.6,
          "velocity": 0.8267716535433071
        },
        {
          "duration": 1.6000000000000085,
          "durationTicks": 1920,
          "midi": 67,
          "name": "G4",
          "ticks": 76800,
          "time": 64,
          "velocity": 0.8267716535433071
        },
        {
          "duration": 0.3333333333333286,
          "durationTicks": 400,
          "midi": 67,
          "name": "G4",
          "ticks": 78720,
          "time": 65.60000000000001,
          "velocity": 0.8267716535433071
        },
        {
          "duration": 0.29666666666666686,
          "durationTicks": 356,
          "midi": 67,
          "name": "G4",
          "ticks": 79200,
          "time": 66,
          "velocity": 0.8267716535433071
        },
        {
          "duration": 0.09666666666667822,
          "durationTicks": 116,
          "midi": 67,
          "name": "G4",
          "ticks": 79560,
          "time": 66.3,
          "velocity": 0.8267716535433071
        },
        {
          "duration": 0.3333333333333286,
          "durationTicks": 400,
          "midi": 67,
          "name": "G4",
          "ticks": 79680,
          "time": 66.4,
          "velocity": 0.8267716535433071
        },
        {
          "duration": 0.3333333333333428,
          "durationTicks": 400,
          "midi": 67,
          "name": "G4",
          "ticks": 80160,
          "time": 66.8,
          "velocity": 0.8267716535433071
        },
        {
          "duration": 1.5999999999999943,
          "durationTicks": 1920,
          "midi": 67,
          "name": "G4",
          "ticks": 80640,
          "time": 67.2,
          "velocity": 0.8267716535433071
        },
        {
          "duration": 0.3333333333333428,
          "durationTicks": 400,
          "midi": 67,
          "name": "G4",
          "ticks": 82560,
          "time": 68.8,
          "velocity": 0.8267716535433071
        },
        {
          "duration": 0.29666666666666686,
          "durationTicks": 356,
          "midi": 67,
          "name": "G4",
          "ticks": 83040,
          "time": 69.2,
          "velocity": 0.8267716535433071
        },
        {
          "duration": 0.09666666666667822,
          "durationTicks": 116,
          "midi": 67,
          "name": "G4",
          "ticks": 83400,
          "time": 69.5,
          "velocity": 0.8267716535433071
        },
        {
          "duration": 0.3333333333333286,
          "durationTicks": 400,
          "midi": 67,
          "name": "G4",
          "ticks": 83520,
          "time": 69.60000000000001,
          "velocity": 0.8267716535433071
        },
        {
          "duration": 0.3333333333333428,
          "durationTicks": 400,
          "midi": 67,
          "name": "G4",
          "ticks": 84000,
          "time": 70,
          "velocity": 0.8267716535433071
        },
        {
          "duration": 0.3333333333333286,
          "durationTicks": 400,
          "midi": 67,
          "name": "G4",
          "ticks": 84480,
          "time": 70.4,
          "velocity": 0.8267716535433071
        },
        {
          "duration": 0.29666666666668107,
          "durationTicks": 356,
          "midi": 67,
          "name": "G4",
          "ticks": 84960,
          "time": 70.8,
          "velocity": 0.8267716535433071
        },
        {
          "duration": 0.09666666666666401,
          "durationTicks": 116,
          "midi": 67,
          "name": "G4",
          "ticks": 85320,
          "time": 71.10000000000001,
          "velocity": 0.8267716535433071
        },
        {
          "duration": 0.3333333333333428,
          "durationTicks": 400,
          "midi": 67,
          "name": "G4",
          "ticks": 85440,
          "time": 71.2,
          "velocity": 0.8267716535433071
        },
        {
          "duration": 0.3333333333333286,
          "durationTicks": 400,
          "midi": 67,
          "name": "G4",
          "ticks": 85920,
          "time": 71.60000000000001,
          "velocity": 0.8267716535433071
        },
        {
          "duration": 0.3333333333333428,
          "durationTicks": 400,
          "midi": 67,
          "name": "G4",
          "ticks": 86400,
          "time": 72,
          "velocity": 0.8267716535433071
        },
        {
          "duration": 0.29666666666666686,
          "durationTicks": 356,
          "midi": 67,
          "name": "G4",
          "ticks": 86880,
          "time": 72.4,
          "velocity": 0.8267716535433071
        },
        {
          "duration": 0.09666666666666401,
          "durationTicks": 116,
          "midi": 67,
          "name": "G4",
          "ticks": 87240,
          "time": 72.7,
          "velocity": 0.8267716535433071
        },
        {
          "duration": 0.3333333333333428,
          "durationTicks": 400,
          "midi": 67,
          "name": "G4",
          "ticks": 87360,
          "time": 72.8,
          "velocity": 0.8267716535433071
        },
        {
          "duration": 0.3333333333333428,
          "durationTicks": 400,
          "midi": 67,
          "name": "G4",
          "ticks": 87840,
          "time": 73.2,
          "velocity": 0.8267716535433071
        },
        {
          "duration": 0.3333333333333286,
          "durationTicks": 400,
          "midi": 72,
          "name": "C5",
          "ticks": 88320,
          "time": 73.60000000000001,
          "velocity": 0.8267716535433071
        },
        {
          "duration": 0.3333333333333428,
          "durationTicks": 400,
          "midi": 74,
          "name": "D5",
          "ticks": 88800,
          "time": 74,
          "velocity": 0.8267716535433071
        },
        {
          "duration": 0.3333333333333286,
          "durationTicks": 400,
          "midi": 72,
          "name": "C5",
          "ticks": 89280,
          "time": 74.4,
          "velocity": 0.8267716535433071
        },
        {
          "duration": 0.3333333333333428,
          "durationTicks": 400,
          "midi": 74,
          "name": "D5",
          "ticks": 89760,
          "time": 74.8,
          "velocity": 0.8267716535433071
        },
        {
          "duration": 1.0999999999999943,
          "durationTicks": 1320,
          "midi": 72,
          "name": "C5",
          "ticks": 90240,
          "time": 75.2,
          "velocity": 0.8267716535433071
        },
        {
          "duration": 0.3333333333333286,
          "durationTicks": 400,
          "midi": 76,
          "name": "E5",
          "ticks": 91680,
          "time": 76.4,
          "velocity": 0.8267716535433071
        },
        {
          "duration": 0.3333333333333286,
          "durationTicks": 400,
          "midi": 74,
          "name": "D5",
          "ticks": 92160,
          "time": 76.80000000000001,
          "velocity": 0.8267716535433071
        },
        {
          "duration": 0.29666666666666686,
          "durationTicks": 356,
          "midi": 74,
          "name": "D5",
          "ticks": 92640,
          "time": 77.2,
          "velocity": 0.8267716535433071
        },
        {
          "duration": 0.09666666666667822,
          "durationTicks": 116,
          "midi": 74,
          "name": "D5",
          "ticks": 93000,
          "time": 77.5,
          "velocity": 0.8267716535433071
        },
        {
          "duration": 0.3333333333333286,
          "durationTicks": 400,
          "midi": 74,
          "name": "D5",
          "ticks": 93120,
          "time": 77.60000000000001,
          "velocity": 0.8267716535433071
        },
        {
          "duration": 0.3333333333333428,
          "durationTicks": 400,
          "midi": 74,
          "name": "D5",
          "ticks": 93600,
          "time": 78,
          "velocity": 0.8267716535433071
        },
        {
          "duration": 0.3333333333333428,
          "durationTicks": 400,
          "midi": 74,
          "name": "D5",
          "ticks": 94080,
          "time": 78.4,
          "velocity": 0.8267716535433071
        },
        {
          "duration": 0.29666666666666686,
          "durationTicks": 356,
          "midi": 74,
          "name": "D5",
          "ticks": 94560,
          "time": 78.80000000000001,
          "velocity": 0.8267716535433071
        },
        {
          "duration": 0.09666666666666401,
          "durationTicks": 116,
          "midi": 74,
          "name": "D5",
          "ticks": 94920,
          "time": 79.10000000000001,
          "velocity": 0.8267716535433071
        },
        {
          "duration": 0.3333333333333428,
          "durationTicks": 400,
          "midi": 74,
          "name": "D5",
          "ticks": 95040,
          "time": 79.2,
          "velocity": 0.8267716535433071
        },
        {
          "duration": 0.3333333333333286,
          "durationTicks": 400,
          "midi": 74,
          "name": "D5",
          "ticks": 95520,
          "time": 79.60000000000001,
          "velocity": 0.8267716535433071
        },
        {
          "duration": 0.3333333333333428,
          "durationTicks": 400,
          "midi": 74,
          "name": "D5",
          "ticks": 96000,
          "time": 80,
          "velocity": 0.8267716535433071
        },
        {
          "duration": 0.29666666666666686,
          "durationTicks": 356,
          "midi": 74,
          "name": "D5",
          "ticks": 96480,
          "time": 80.4,
          "velocity": 0.8267716535433071
        },
        {
          "duration": 0.09666666666667822,
          "durationTicks": 116,
          "midi": 74,
          "name": "D5",
          "ticks": 96840,
          "time": 80.7,
          "velocity": 0.8267716535433071
        },
        {
          "duration": 0.3333333333333286,
          "durationTicks": 400,
          "midi": 74,
          "name": "D5",
          "ticks": 96960,
          "time": 80.80000000000001,
          "velocity": 0.8267716535433071
        },
        {
          "duration": 0.3333333333333428,
          "durationTicks": 400,
          "midi": 74,
          "name": "D5",
          "ticks": 97440,
          "time": 81.2,
          "velocity": 0.8267716535433071
        },
        {
          "duration": 0.3333333333333286,
          "durationTicks": 400,
          "midi": 74,
          "name": "D5",
          "ticks": 97920,
          "time": 81.60000000000001,
          "velocity": 0.8267716535433071
        },
        {
          "duration": 0.29666666666668107,
          "durationTicks": 356,
          "midi": 74,
          "name": "D5",
          "ticks": 98400,
          "time": 82,
          "velocity": 0.8267716535433071
        },
        {
          "duration": 0.09666666666666401,
          "durationTicks": 116,
          "midi": 74,
          "name": "D5",
          "ticks": 98760,
          "time": 82.30000000000001,
          "velocity": 0.8267716535433071
        },
        {
          "duration": 0.3333333333333428,
          "durationTicks": 400,
          "midi": 74,
          "name": "D5",
          "ticks": 98880,
          "time": 82.4,
          "velocity": 0.8267716535433071
        },
        {
          "duration": 0.3333333333333286,
          "durationTicks": 400,
          "midi": 74,
          "name": "D5",
          "ticks": 99360,
          "time": 82.80000000000001,
          "velocity": 0.8267716535433071
        },
        {
          "duration": 0.3333333333333428,
          "durationTicks": 400,
          "midi": 74,
          "name": "D5",
          "ticks": 99840,
          "time": 83.2,
          "velocity": 0.8267716535433071
        },
        {
          "duration": 0.3333333333333286,
          "durationTicks": 400,
          "midi": 74,
          "name": "D5",
          "ticks": 100320,
          "time": 83.60000000000001,
          "velocity": 0.8267716535433071
        },
        {
          "duration": 0.3333333333333428,
          "durationTicks": 400,
          "midi": 74,
          "name": "D5",
          "ticks": 101280,
          "time": 84.4,
          "velocity": 0.8267716535433071
        },
        {
          "duration": 0.3333333333333428,
          "durationTicks": 400,
          "midi": 74,
          "name": "D5",
          "ticks": 102240,
          "time": 85.2,
          "velocity": 0.8267716535433071
        },
        {
          "duration": 0.3333333333333428,
          "durationTicks": 400,
          "midi": 74,
          "name": "D5",
          "ticks": 103200,
          "time": 86,
          "velocity": 0.8267716535433071
        },
        {
          "duration": 0.3333333333333428,
          "durationTicks": 400,
          "midi": 74,
          "name": "D5",
          "ticks": 103680,
          "time": 86.4,
          "velocity": 0.8267716535433071
        },
        {
          "duration": 1.5,
          "durationTicks": 1800,
          "midi": 60,
          "name": "C4",
          "ticks": 153600,
          "time": 128,
          "velocity": 0.8267716535433071
        },
        {
          "duration": 1.5,
          "durationTicks": 1800,
          "midi": 67,
          "name": "G4",
          "ticks": 153600,
          "time": 128,
          "velocity": 0.8267716535433071
        },
        {
          "duration": 0.20000000000001705,
          "durationTicks": 240,
          "midi": 60,
          "name": "C4",
          "ticks": 155520,
          "time": 129.6,
          "velocity": 0.8267716535433071
        },
        {
          "duration": 0.20000000000001705,
          "durationTicks": 240,
          "midi": 67,
          "name": "G4",
          "ticks": 155520,
          "time": 129.6,
          "velocity": 0.8267716535433071
        },
        {
          "duration": 0.19999999999998863,
          "durationTicks": 240,
          "midi": 60,
          "name": "C4",
          "ticks": 156480,
          "time": 130.4,
          "velocity": 0.8267716535433071
        },
        {
          "duration": 0.19999999999998863,
          "durationTicks": 240,
          "midi": 67,
          "name": "G4",
          "ticks": 156480,
          "time": 130.4,
          "velocity": 0.8267716535433071
        },
        {
          "duration": 0.19999999999998863,
          "durationTicks": 240,
          "midi": 60,
          "name": "C4",
          "ticks": 157440,
          "time": 131.20000000000002,
          "velocity": 0.8267716535433071
        },
        {
          "duration": 0.19999999999998863,
          "durationTicks": 240,
          "midi": 67,
          "name": "G4",
          "ticks": 157440,
          "time": 131.20000000000002,
          "velocity": 0.8267716535433071
        },
        {
          "duration": 0.5333333333333314,
          "durationTicks": 640,
          "midi": 60,
          "name": "C4",
          "ticks": 158400,
          "time": 132,
          "velocity": 0.8267716535433071
        },
        {
          "duration": 0.5333333333333314,
          "durationTicks": 640,
          "midi": 72,
          "name": "C5",
          "ticks": 158400,
          "time": 132,
          "velocity": 0.8267716535433071
        },
        {
          "duration": 0.19666666666668675,
          "durationTicks": 236,
          "midi": 60,
          "name": "C4",
          "ticks": 159120,
          "time": 132.6,
          "velocity": 0.8267716535433071
        },
        {
          "duration": 0.19666666666668675,
          "durationTicks": 236,
          "midi": 72,
          "name": "C5",
          "ticks": 159120,
          "time": 132.6,
          "velocity": 0.8267716535433071
        },
        {
          "duration": 0.3333333333333144,
          "durationTicks": 400,
          "midi": 60,
          "name": "C4",
          "ticks": 159360,
          "time": 132.8,
          "velocity": 0.8267716535433071
        },
        {
          "duration": 0.3333333333333144,
          "durationTicks": 400,
          "midi": 72,
          "name": "C5",
          "ticks": 159360,
          "time": 132.8,
          "velocity": 0.8267716535433071
        },
        {
          "duration": 0.3333333333333144,
          "durationTicks": 400,
          "midi": 60,
          "name": "C4",
          "ticks": 159840,
          "time": 133.20000000000002,
          "velocity": 0.8267716535433071
        },
        {
          "duration": 0.3333333333333144,
          "durationTicks": 400,
          "midi": 72,
          "name": "C5",
          "ticks": 159840,
          "time": 133.20000000000002,
          "velocity": 0.8267716535433071
        },
        {
          "duration": 0.3333333333333428,
          "durationTicks": 400,
          "midi": 60,
          "name": "C4",
          "ticks": 160320,
          "time": 133.6,
          "velocity": 0.8267716535433071
        },
        {
          "duration": 0.3333333333333428,
          "durationTicks": 400,
          "midi": 72,
          "name": "C5",
          "ticks": 160320,
          "time": 133.6,
          "velocity": 0.8267716535433071
        },
        {
          "duration": 0.3333333333333428,
          "durationTicks": 400,
          "midi": 60,
          "name": "C4",
          "ticks": 160800,
          "time": 134,
          "velocity": 0.8267716535433071
        },
        {
          "duration": 0.3333333333333428,
          "durationTicks": 400,
          "midi": 72,
          "name": "C5",
          "ticks": 160800,
          "time": 134,
          "velocity": 0.8267716535433071
        },
        {
          "duration": 0.6999999999999886,
          "durationTicks": 840,
          "midi": 60,
          "name": "C4",
          "ticks": 161280,
          "time": 134.4,
          "velocity": 0.8267716535433071
        },
        {
          "duration": 0.6999999999999886,
          "durationTicks": 840,
          "midi": 72,
          "name": "C5",
          "ticks": 161280,
          "time": 134.4,
          "velocity": 0.8267716535433071
        },
        {
          "duration": 0.6999999999999886,
          "durationTicks": 840,
          "midi": 67,
          "name": "G4",
          "ticks": 162240,
          "time": 135.20000000000002,
          "velocity": 0.8267716535433071
        },
        {
          "duration": 0.6999999999999886,
          "durationTicks": 840,
          "midi": 79,
          "name": "G5",
          "ticks": 162240,
          "time": 135.20000000000002,
          "velocity": 0.8267716535433071
        },
        {
          "duration": 0.700000000000017,
          "durationTicks": 840,
          "midi": 64,
          "name": "E4",
          "ticks": 163200,
          "time": 136,
          "velocity": 0.8267716535433071
        },
        {
          "duration": 0.700000000000017,
          "durationTicks": 840,
          "midi": 76,
          "name": "E5",
          "ticks": 163200,
          "time": 136,
          "velocity": 0.8267716535433071
        },
        {
          "duration": 0.6999999999999886,
          "durationTicks": 840,
          "midi": 60,
          "name": "C4",
          "ticks": 164160,
          "time": 136.8,
          "velocity": 0.8267716535433071
        },
        {
          "duration": 0.6999999999999886,
          "durationTicks": 840,
          "midi": 72,
          "name": "C5",
          "ticks": 164160,
          "time": 136.8,
          "velocity": 0.8267716535433071
        },
        {
          "duration": 1.5,
          "durationTicks": 1800,
          "midi": 67,
          "name": "G4",
          "ticks": 165120,
          "time": 137.6,
          "velocity": 0.8267716535433071
        },
        {
          "duration": 1.5,
          "durationTicks": 1800,
          "midi": 74,
          "name": "D5",
          "ticks": 165120,
          "time": 137.6,
          "velocity": 0.8267716535433071
        },
        {
          "duration": 0.3333333333333144,
          "durationTicks": 400,
          "midi": 67,
          "name": "G4",
          "ticks": 167040,
          "time": 139.20000000000002,
          "velocity": 0.8267716535433071
        },
        {
          "duration": 0.3333333333333144,
          "durationTicks": 400,
          "midi": 74,
          "name": "D5",
          "ticks": 167040,
          "time": 139.20000000000002,
          "velocity": 0.8267716535433071
        },
        {
          "duration": 0.3333333333333428,
          "durationTicks": 400,
          "midi": 74,
          "name": "D5",
          "ticks": 168000,
          "time": 140,
          "velocity": 0.8267716535433071
        },
        {
          "duration": 0.6999999999999886,
          "durationTicks": 840,
          "midi": 67,
          "name": "G4",
          "ticks": 168960,
          "time": 140.8,
          "velocity": 0.8267716535433071
        },
        {
          "duration": 0.3333333333333428,
          "durationTicks": 400,
          "midi": 67,
          "name": "G4",
          "ticks": 169920,
          "time": 141.6,
          "velocity": 0.8267716535433071
        },
        {
          "duration": 0.3333333333333428,
          "durationTicks": 400,
          "midi": 67,
          "name": "G4",
          "ticks": 170400,
          "time": 142,
          "velocity": 0.8267716535433071
        },
        {
          "duration": 0.6999999999999886,
          "durationTicks": 840,
          "midi": 67,
          "name": "G4",
          "ticks": 170880,
          "time": 142.4,
          "velocity": 0.8267716535433071
        },
        {
          "duration": 0.3333333333333144,
          "durationTicks": 400,
          "midi": 67,
          "name": "G4",
          "ticks": 171840,
          "time": 143.20000000000002,
          "velocity": 0.8267716535433071
        },
        {
          "duration": 0.3333333333333428,
          "durationTicks": 400,
          "midi": 67,
          "name": "G4",
          "ticks": 172320,
          "time": 143.6,
          "velocity": 0.8267716535433071
        },
        {
          "duration": 0.700000000000017,
          "durationTicks": 840,
          "midi": 67,
          "name": "G4",
          "ticks": 172800,
          "time": 144,
          "velocity": 0.8267716535433071
        },
        {
          "duration": 0.3333333333333144,
          "durationTicks": 400,
          "midi": 67,
          "name": "G4",
          "ticks": 173760,
          "time": 144.8,
          "velocity": 0.8267716535433071
        },
        {
          "duration": 0.3333333333333144,
          "durationTicks": 400,
          "midi": 67,
          "name": "G4",
          "ticks": 174240,
          "time": 145.20000000000002,
          "velocity": 0.8267716535433071
        },
        {
          "duration": 0.3333333333333428,
          "durationTicks": 400,
          "midi": 67,
          "name": "G4",
          "ticks": 174720,
          "time": 145.6,
          "velocity": 0.6771653543307087
        },
        {
          "duration": 0.3333333333333144,
          "durationTicks": 400,
          "midi": 67,
          "name": "G4",
          "ticks": 175680,
          "time": 146.4,
          "velocity": 0.6771653543307087
        },
        {
          "duration": 0.6999999999999886,
          "durationTicks": 840,
          "midi": 72,
          "name": "C5",
          "ticks": 176640,
          "time": 147.20000000000002,
          "velocity": 0.6771653543307087
        },
        {
          "duration": 0.6999999999999886,
          "durationTicks": 840,
          "midi": 76,
          "name": "E5",
          "ticks": 176640,
          "time": 147.20000000000002,
          "velocity": 0.6771653543307087
        },
        {
          "duration": 0.700000000000017,
          "durationTicks": 840,
          "midi": 74,
          "name": "D5",
          "ticks": 177600,
          "time": 148,
          "velocity": 0.6771653543307087
        },
        {
          "duration": 0.6999999999999886,
          "durationTicks": 840,
          "midi": 67,
          "name": "G4",
          "ticks": 178560,
          "time": 148.8,
          "velocity": 0.6771653543307087
        },
        {
          "duration": 0.3333333333333428,
          "durationTicks": 400,
          "midi": 67,
          "name": "G4",
          "ticks": 179520,
          "time": 149.6,
          "velocity": 0.6771653543307087
        },
        {
          "duration": 0.3333333333333428,
          "durationTicks": 400,
          "midi": 67,
          "name": "G4",
          "ticks": 180000,
          "time": 150,
          "velocity": 0.6771653543307087
        },
        {
          "duration": 0.6999999999999886,
          "durationTicks": 840,
          "midi": 67,
          "name": "G4",
          "ticks": 180480,
          "time": 150.4,
          "velocity": 0.6771653543307087
        },
        {
          "duration": 0.3333333333333144,
          "durationTicks": 400,
          "midi": 67,
          "name": "G4",
          "ticks": 181440,
          "time": 151.20000000000002,
          "velocity": 0.6771653543307087
        },
        {
          "duration": 0.3333333333333428,
          "durationTicks": 400,
          "midi": 67,
          "name": "G4",
          "ticks": 181920,
          "time": 151.6,
          "velocity": 0.6771653543307087
        },
        {
          "duration": 0.700000000000017,
          "durationTicks": 840,
          "midi": 67,
          "name": "G4",
          "ticks": 182400,
          "time": 152,
          "velocity": 0.6771653543307087
        },
        {
          "duration": 0.3333333333333144,
          "durationTicks": 400,
          "midi": 67,
          "name": "G4",
          "ticks": 183360,
          "time": 152.8,
          "velocity": 0.6771653543307087
        },
        {
          "duration": 0.3333333333333144,
          "durationTicks": 400,
          "midi": 67,
          "name": "G4",
          "ticks": 183840,
          "time": 153.20000000000002,
          "velocity": 0.6771653543307087
        },
        {
          "duration": 0.3333333333333144,
          "durationTicks": 400,
          "midi": 67,
          "name": "G4",
          "ticks": 184320,
          "time": 153.60000000000002,
          "velocity": 0.6771653543307087
        },
        {
          "duration": 0.3333333333333428,
          "durationTicks": 400,
          "midi": 74,
          "name": "D5",
          "ticks": 184800,
          "time": 154,
          "velocity": 0.6771653543307087
        },
        {
          "duration": 0.3333333333333428,
          "durationTicks": 400,
          "midi": 77,
          "name": "F5",
          "ticks": 184800,
          "time": 154,
          "velocity": 0.6771653543307087
        },
        {
          "duration": 0.3333333333333428,
          "durationTicks": 400,
          "midi": 72,
          "name": "C5",
          "ticks": 185280,
          "time": 154.4,
          "velocity": 0.6771653543307087
        },
        {
          "duration": 0.3333333333333428,
          "durationTicks": 400,
          "midi": 76,
          "name": "E5",
          "ticks": 185280,
          "time": 154.4,
          "velocity": 0.6771653543307087
        },
        {
          "duration": 0.3333333333333144,
          "durationTicks": 400,
          "midi": 64,
          "name": "E4",
          "ticks": 185760,
          "time": 154.8,
          "velocity": 0.6771653543307087
        },
        {
          "duration": 0.3333333333333144,
          "durationTicks": 400,
          "midi": 76,
          "name": "E5",
          "ticks": 185760,
          "time": 154.8,
          "velocity": 0.6771653543307087
        },
        {
          "duration": 0.3333333333333144,
          "durationTicks": 400,
          "midi": 64,
          "name": "E4",
          "ticks": 186240,
          "time": 155.20000000000002,
          "velocity": 0.6771653543307087
        },
        {
          "duration": 0.3333333333333144,
          "durationTicks": 400,
          "midi": 76,
          "name": "E5",
          "ticks": 186240,
          "time": 155.20000000000002,
          "velocity": 0.6771653543307087
        },
        {
          "duration": 0.3333333333333144,
          "durationTicks": 400,
          "midi": 60,
          "name": "C4",
          "ticks": 186720,
          "time": 155.60000000000002,
          "velocity": 0.6771653543307087
        },
        {
          "duration": 0.3333333333333144,
          "durationTicks": 400,
          "midi": 72,
          "name": "C5",
          "ticks": 186720,
          "time": 155.60000000000002,
          "velocity": 0.6771653543307087
        },
        {
          "duration": 0.3333333333333428,
          "durationTicks": 400,
          "midi": 60,
          "name": "C4",
          "ticks": 187200,
          "time": 156,
          "velocity": 0.6771653543307087
        },
        {
          "duration": 0.3333333333333428,
          "durationTicks": 400,
          "midi": 72,
          "name": "C5",
          "ticks": 187200,
          "time": 156,
          "velocity": 0.6771653543307087
        },
        {
          "duration": 0.3333333333333428,
          "durationTicks": 400,
          "midi": 60,
          "name": "C4",
          "ticks": 187680,
          "time": 156.4,
          "velocity": 0.6771653543307087
        },
        {
          "duration": 0.3333333333333428,
          "durationTicks": 400,
          "midi": 72,
          "name": "C5",
          "ticks": 187680,
          "time": 156.4,
          "velocity": 0.6771653543307087
        },
        {
          "duration": 0.3333333333333144,
          "durationTicks": 400,
          "midi": 60,
          "name": "C4",
          "ticks": 188160,
          "time": 156.8,
          "velocity": 0.6771653543307087
        },
        {
          "duration": 0.3333333333333144,
          "durationTicks": 400,
          "midi": 72,
          "name": "C5",
          "ticks": 188160,
          "time": 156.8,
          "velocity": 0.6771653543307087
        },
        {
          "duration": 0.700000000000017,
          "durationTicks": 840,
          "midi": 74,
          "name": "D5",
          "ticks": 211680,
          "time": 176.4,
          "velocity": 0.8267716535433071
        },
        {
          "duration": 0.3333333333333144,
          "durationTicks": 400,
          "midi": 74,
          "name": "D5",
          "ticks": 212640,
          "time": 177.20000000000002,
          "velocity": 0.8267716535433071
        },
        {
          "duration": 0.19666666666665833,
          "durationTicks": 236,
          "midi": 74,
          "name": "D5",
          "ticks": 213120,
          "time": 177.60000000000002,
          "velocity": 0.8267716535433071
        },
        {
          "duration": 0.700000000000017,
          "durationTicks": 840,
          "midi": 74,
          "name": "D5",
          "ticks": 213600,
          "time": 178,
          "velocity": 0.8267716535433071
        },
        {
          "duration": 0.3333333333333144,
          "durationTicks": 400,
          "midi": 74,
          "name": "D5",
          "ticks": 214560,
          "time": 178.8,
          "velocity": 0.8267716535433071
        },
        {
          "duration": 0.19666666666665833,
          "durationTicks": 236,
          "midi": 67,
          "name": "G4",
          "ticks": 215040,
          "time": 179.20000000000002,
          "velocity": 0.8267716535433071
        },
        {
          "duration": 0.19666666666665833,
          "durationTicks": 236,
          "midi": 74,
          "name": "D5",
          "ticks": 215040,
          "time": 179.20000000000002,
          "velocity": 0.8267716535433071
        },
        {
          "duration": 0.19666666666665833,
          "durationTicks": 236,
          "midi": 67,
          "name": "G4",
          "ticks": 215520,
          "time": 179.60000000000002,
          "velocity": 0.8267716535433071
        },
        {
          "duration": 0.19666666666665833,
          "durationTicks": 236,
          "midi": 76,
          "name": "E5",
          "ticks": 215520,
          "time": 179.60000000000002,
          "velocity": 0.8267716535433071
        },
        {
          "duration": 0.19666666666668675,
          "durationTicks": 236,
          "midi": 72,
          "name": "C5",
          "ticks": 216000,
          "time": 180,
          "velocity": 0.8267716535433071
        },
        {
          "duration": 0.19666666666668675,
          "durationTicks": 236,
          "midi": 76,
          "name": "E5",
          "ticks": 216000,
          "time": 180,
          "velocity": 0.8267716535433071
        },
        {
          "duration": 0.19666666666668675,
          "durationTicks": 236,
          "midi": 74,
          "name": "D5",
          "ticks": 216480,
          "time": 180.4,
          "velocity": 0.8267716535433071
        },
        {
          "duration": 0.19666666666665833,
          "durationTicks": 236,
          "midi": 67,
          "name": "G4",
          "ticks": 216960,
          "time": 180.8,
          "velocity": 0.8267716535433071
        },
        {
          "duration": 0.19666666666665833,
          "durationTicks": 236,
          "midi": 74,
          "name": "D5",
          "ticks": 216960,
          "time": 180.8,
          "velocity": 0.8267716535433071
        },
        {
          "duration": 0.6999999999999886,
          "durationTicks": 840,
          "midi": 74,
          "name": "D5",
          "ticks": 217440,
          "time": 181.20000000000002,
          "velocity": 0.8267716535433071
        },
        {
          "duration": 0.3333333333333428,
          "durationTicks": 400,
          "midi": 74,
          "name": "D5",
          "ticks": 218400,
          "time": 182,
          "velocity": 0.8267716535433071
        },
        {
          "duration": 0.19666666666668675,
          "durationTicks": 236,
          "midi": 74,
          "name": "D5",
          "ticks": 218880,
          "time": 182.4,
          "velocity": 0.8267716535433071
        },
        {
          "duration": 0.6999999999999886,
          "durationTicks": 840,
          "midi": 74,
          "name": "D5",
          "ticks": 219360,
          "time": 182.8,
          "velocity": 0.8267716535433071
        },
        {
          "duration": 0.3333333333333144,
          "durationTicks": 400,
          "midi": 74,
          "name": "D5",
          "ticks": 220320,
          "time": 183.60000000000002,
          "velocity": 0.8267716535433071
        },
        {
          "duration": 0.19666666666668675,
          "durationTicks": 236,
          "midi": 67,
          "name": "G4",
          "ticks": 220800,
          "time": 184,
          "velocity": 0.8267716535433071
        },
        {
          "duration": 0.19666666666668675,
          "durationTicks": 236,
          "midi": 74,
          "name": "D5",
          "ticks": 220800,
          "time": 184,
          "velocity": 0.8267716535433071
        },
        {
          "duration": 0.19666666666668675,
          "durationTicks": 236,
          "midi": 67,
          "name": "G4",
          "ticks": 221280,
          "time": 184.4,
          "velocity": 0.8267716535433071
        },
        {
          "duration": 0.19666666666668675,
          "durationTicks": 236,
          "midi": 76,
          "name": "E5",
          "ticks": 221280,
          "time": 184.4,
          "velocity": 0.8267716535433071
        },
        {
          "duration": 0.19666666666665833,
          "durationTicks": 236,
          "midi": 72,
          "name": "C5",
          "ticks": 221760,
          "time": 184.8,
          "velocity": 0.8267716535433071
        },
        {
          "duration": 0.19666666666665833,
          "durationTicks": 236,
          "midi": 76,
          "name": "E5",
          "ticks": 221760,
          "time": 184.8,
          "velocity": 0.8267716535433071
        },
        {
          "duration": 0.19666666666665833,
          "durationTicks": 236,
          "midi": 74,
          "name": "D5",
          "ticks": 222240,
          "time": 185.20000000000002,
          "velocity": 0.8267716535433071
        },
        {
          "duration": 0.3333333333333144,
          "durationTicks": 400,
          "midi": 67,
          "name": "G4",
          "ticks": 222720,
          "time": 185.60000000000002,
          "velocity": 0.8267716535433071
        },
        {
          "duration": 0.3333333333333144,
          "durationTicks": 400,
          "midi": 74,
          "name": "D5",
          "ticks": 222720,
          "time": 185.60000000000002,
          "velocity": 0.8267716535433071
        },
        {
          "duration": 0.3333333333333428,
          "durationTicks": 400,
          "midi": 74,
          "name": "D5",
          "ticks": 223680,
          "time": 186.4,
          "velocity": 0.8267716535433071
        },
        {
          "duration": 0.3333333333333144,
          "durationTicks": 400,
          "midi": 67,
          "name": "G4",
          "ticks": 224640,
          "time": 187.20000000000002,
          "velocity": 0.8267716535433071
        },
        {
          "duration": 0.3333333333333144,
          "durationTicks": 400,
          "midi": 74,
          "name": "D5",
          "ticks": 224640,
          "time": 187.20000000000002,
          "velocity": 0.8267716535433071
        },
        {
          "duration": 0.3333333333333428,
          "durationTicks": 400,
          "midi": 74,
          "name": "D5",
          "ticks": 225600,
          "time": 188,
          "velocity": 0.8267716535433071
        },
        {
          "duration": 0.3333333333333144,
          "durationTicks": 400,
          "midi": 67,
          "name": "G4",
          "ticks": 226560,
          "time": 188.8,
          "velocity": 0.8267716535433071
        },
        {
          "duration": 0.3333333333333144,
          "durationTicks": 400,
          "midi": 74,
          "name": "D5",
          "ticks": 226560,
          "time": 188.8,
          "velocity": 0.8267716535433071
        },
        {
          "duration": 0.3333333333333144,
          "durationTicks": 400,
          "midi": 74,
          "name": "D5",
          "ticks": 227520,
          "time": 189.60000000000002,
          "velocity": 0.8267716535433071
        },
        {
          "duration": 0.3333333333333428,
          "durationTicks": 400,
          "midi": 67,
          "name": "G4",
          "ticks": 228480,
          "time": 190.4,
          "velocity": 0.8267716535433071
        },
        {
          "duration": 0.3333333333333428,
          "durationTicks": 400,
          "midi": 74,
          "name": "D5",
          "ticks": 228480,
          "time": 190.4,
          "velocity": 0.8267716535433071
        },
        {
          "duration": 0.3333333333333144,
          "durationTicks": 400,
          "midi": 55,
          "name": "G3",
          "ticks": 228960,
          "time": 190.8,
          "velocity": 0.8267716535433071
        },
        {
          "duration": 0.3333333333333144,
          "durationTicks": 400,
          "midi": 67,
          "name": "G4",
          "ticks": 228960,
          "time": 190.8,
          "velocity": 0.8267716535433071
        },
        {
          "duration": 0.3333333333333144,
          "durationTicks": 400,
          "midi": 55,
          "name": "G3",
          "ticks": 229440,
          "time": 191.20000000000002,
          "velocity": 0.8267716535433071
        },
        {
          "duration": 0.3333333333333144,
          "durationTicks": 400,
          "midi": 67,
          "name": "G4",
          "ticks": 229440,
          "time": 191.20000000000002,
          "velocity": 0.8267716535433071
        },
        {
          "duration": 0.3333333333333428,
          "durationTicks": 400,
          "midi": 60,
          "name": "C4",
          "ticks": 230400,
          "time": 192,
          "velocity": 0.8267716535433071
        },
        {
          "duration": 0.3333333333333428,
          "durationTicks": 400,
          "midi": 72,
          "name": "C5",
          "ticks": 230400,
          "time": 192,
          "velocity": 0.8267716535433071
        },
        {
          "duration": 0.3333333333333144,
          "durationTicks": 400,
          "midi": 60,
          "name": "C4",
          "ticks": 231360,
          "time": 192.8,
          "velocity": 0.8267716535433071
        },
        {
          "duration": 0.3333333333333144,
          "durationTicks": 400,
          "midi": 72,
          "name": "C5",
          "ticks": 231360,
          "time": 192.8,
          "velocity": 0.8267716535433071
        },
        {
          "duration": 0.3333333333333144,
          "durationTicks": 400,
          "midi": 60,
          "name": "C4",
          "ticks": 232320,
          "time": 193.60000000000002,
          "velocity": 0.8267716535433071
        },
        {
          "duration": 0.3333333333333144,
          "durationTicks": 400,
          "midi": 72,
          "name": "C5",
          "ticks": 232320,
          "time": 193.60000000000002,
          "velocity": 0.8267716535433071
        },
        {
          "duration": 0.3333333333333428,
          "durationTicks": 400,
          "midi": 67,
          "name": "G4",
          "ticks": 238080,
          "time": 198.4,
          "velocity": 0.8267716535433071
        },
        {
          "duration": 0.3333333333333144,
          "durationTicks": 400,
          "midi": 67,
          "name": "G4",
          "ticks": 239040,
          "time": 199.20000000000002,
          "velocity": 0.8267716535433071
        },
        {
          "duration": 0.3333333333333428,
          "durationTicks": 400,
          "midi": 67,
          "name": "G4",
          "ticks": 240000,
          "time": 200,
          "velocity": 0.8267716535433071
        },
        {
          "duration": 0.3333333333333428,
          "durationTicks": 400,
          "midi": 60,
          "name": "C4",
          "ticks": 245760,
          "time": 204.8,
          "velocity": 0.8267716535433071
        },
        {
          "duration": 0.3333333333333428,
          "durationTicks": 400,
          "midi": 72,
          "name": "C5",
          "ticks": 245760,
          "time": 204.8,
          "velocity": 0.8267716535433071
        },
        {
          "duration": 0.29666666666665265,
          "durationTicks": 356,
          "midi": 60,
          "name": "C4",
          "ticks": 246240,
          "time": 205.20000000000002,
          "velocity": 0.8267716535433071
        },
        {
          "duration": 0.29666666666665265,
          "durationTicks": 356,
          "midi": 72,
          "name": "C5",
          "ticks": 246240,
          "time": 205.20000000000002,
          "velocity": 0.8267716535433071
        },
        {
          "duration": 0.09666666666669244,
          "durationTicks": 116,
          "midi": 60,
          "name": "C4",
          "ticks": 246600,
          "time": 205.5,
          "velocity": 0.8267716535433071
        },
        {
          "duration": 0.09666666666669244,
          "durationTicks": 116,
          "midi": 72,
          "name": "C5",
          "ticks": 246600,
          "time": 205.5,
          "velocity": 0.8267716535433071
        },
        {
          "duration": 0.3333333333333428,
          "durationTicks": 400,
          "midi": 60,
          "name": "C4",
          "ticks": 246720,
          "time": 205.60000000000002,
          "velocity": 0.8267716535433071
        },
        {
          "duration": 0.3333333333333428,
          "durationTicks": 400,
          "midi": 72,
          "name": "C5",
          "ticks": 246720,
          "time": 205.60000000000002,
          "velocity": 0.8267716535433071
        },
        {
          "duration": 0.33333333333337123,
          "durationTicks": 400,
          "midi": 60,
          "name": "C4",
          "ticks": 247200,
          "time": 206,
          "velocity": 0.8267716535433071
        },
        {
          "duration": 0.33333333333337123,
          "durationTicks": 400,
          "midi": 72,
          "name": "C5",
          "ticks": 247200,
          "time": 206,
          "velocity": 0.8267716535433071
        },
        {
          "duration": 0.3333333333333428,
          "durationTicks": 400,
          "midi": 60,
          "name": "C4",
          "ticks": 247680,
          "time": 206.4,
          "velocity": 0.8267716535433071
        },
        {
          "duration": 0.3333333333333428,
          "durationTicks": 400,
          "midi": 72,
          "name": "C5",
          "ticks": 247680,
          "time": 206.4,
          "velocity": 0.8267716535433071
        },
        {
          "duration": 0.29666666666668107,
          "durationTicks": 356,
          "midi": 60,
          "name": "C4",
          "ticks": 248160,
          "time": 206.8,
          "velocity": 0.8267716535433071
        },
        {
          "duration": 0.29666666666668107,
          "durationTicks": 356,
          "midi": 72,
          "name": "C5",
          "ticks": 248160,
          "time": 206.8,
          "velocity": 0.8267716535433071
        },
        {
          "duration": 0.09666666666666401,
          "durationTicks": 116,
          "midi": 60,
          "name": "C4",
          "ticks": 248520,
          "time": 207.10000000000002,
          "velocity": 0.8267716535433071
        },
        {
          "duration": 0.09666666666666401,
          "durationTicks": 116,
          "midi": 72,
          "name": "C5",
          "ticks": 248520,
          "time": 207.10000000000002,
          "velocity": 0.8267716535433071
        },
        {
          "duration": 0.3333333333333428,
          "durationTicks": 400,
          "midi": 60,
          "name": "C4",
          "ticks": 248640,
          "time": 207.20000000000002,
          "velocity": 0.8267716535433071
        },
        {
          "duration": 0.3333333333333428,
          "durationTicks": 400,
          "midi": 72,
          "name": "C5",
          "ticks": 248640,
          "time": 207.20000000000002,
          "velocity": 0.8267716535433071
        },
        {
          "duration": 0.3333333333333428,
          "durationTicks": 400,
          "midi": 60,
          "name": "C4",
          "ticks": 249120,
          "time": 207.60000000000002,
          "velocity": 0.8267716535433071
        },
        {
          "duration": 0.3333333333333428,
          "durationTicks": 400,
          "midi": 72,
          "name": "C5",
          "ticks": 249120,
          "time": 207.60000000000002,
          "velocity": 0.8267716535433071
        },
        {
          "duration": 0.33333333333337123,
          "durationTicks": 400,
          "midi": 67,
          "name": "G4",
          "ticks": 249600,
          "time": 208,
          "velocity": 0.8267716535433071
        },
        {
          "duration": 0.33333333333337123,
          "durationTicks": 400,
          "midi": 74,
          "name": "D5",
          "ticks": 249600,
          "time": 208,
          "velocity": 0.8267716535433071
        },
        {
          "duration": 0.29666666666668107,
          "durationTicks": 356,
          "midi": 67,
          "name": "G4",
          "ticks": 250080,
          "time": 208.4,
          "velocity": 0.8267716535433071
        },
        {
          "duration": 0.29666666666668107,
          "durationTicks": 356,
          "midi": 74,
          "name": "D5",
          "ticks": 250080,
          "time": 208.4,
          "velocity": 0.8267716535433071
        },
        {
          "duration": 0.09666666666666401,
          "durationTicks": 116,
          "midi": 67,
          "name": "G4",
          "ticks": 250440,
          "time": 208.70000000000002,
          "velocity": 0.8267716535433071
        },
        {
          "duration": 0.09666666666666401,
          "durationTicks": 116,
          "midi": 74,
          "name": "D5",
          "ticks": 250440,
          "time": 208.70000000000002,
          "velocity": 0.8267716535433071
        },
        {
          "duration": 0.3333333333333428,
          "durationTicks": 400,
          "midi": 67,
          "name": "G4",
          "ticks": 250560,
          "time": 208.8,
          "velocity": 0.8267716535433071
        },
        {
          "duration": 0.3333333333333428,
          "durationTicks": 400,
          "midi": 74,
          "name": "D5",
          "ticks": 250560,
          "time": 208.8,
          "velocity": 0.8267716535433071
        },
        {
          "duration": 0.3333333333333428,
          "durationTicks": 400,
          "midi": 67,
          "name": "G4",
          "ticks": 251040,
          "time": 209.20000000000002,
          "velocity": 0.8267716535433071
        },
        {
          "duration": 0.3333333333333428,
          "durationTicks": 400,
          "midi": 74,
          "name": "D5",
          "ticks": 251040,
          "time": 209.20000000000002,
          "velocity": 0.8267716535433071
        },
        {
          "duration": 0.3333333333333428,
          "durationTicks": 400,
          "midi": 64,
          "name": "E4",
          "ticks": 251520,
          "time": 209.60000000000002,
          "velocity": 0.8267716535433071
        },
        {
          "duration": 0.3333333333333428,
          "durationTicks": 400,
          "midi": 67,
          "name": "G4",
          "ticks": 251520,
          "time": 209.60000000000002,
          "velocity": 0.8267716535433071
        },
        {
          "duration": 0.29666666666668107,
          "durationTicks": 356,
          "midi": 60,
          "name": "C4",
          "ticks": 252000,
          "time": 210,
          "velocity": 0.8267716535433071
        },
        {
          "duration": 0.29666666666668107,
          "durationTicks": 356,
          "midi": 72,
          "name": "C5",
          "ticks": 252000,
          "time": 210,
          "velocity": 0.8267716535433071
        },
        {
          "duration": 0.09666666666666401,
          "durationTicks": 116,
          "midi": 60,
          "name": "C4",
          "ticks": 252360,
          "time": 210.3,
          "velocity": 0.8267716535433071
        },
        {
          "duration": 0.09666666666666401,
          "durationTicks": 116,
          "midi": 72,
          "name": "C5",
          "ticks": 252360,
          "time": 210.3,
          "velocity": 0.8267716535433071
        },
        {
          "duration": 0.3333333333333428,
          "durationTicks": 400,
          "midi": 60,
          "name": "C4",
          "ticks": 252480,
          "time": 210.4,
          "velocity": 0.8267716535433071
        },
        {
          "duration": 0.3333333333333428,
          "durationTicks": 400,
          "midi": 72,
          "name": "C5",
          "ticks": 252480,
          "time": 210.4,
          "velocity": 0.8267716535433071
        },
        {
          "duration": 0.3333333333333428,
          "durationTicks": 400,
          "midi": 60,
          "name": "C4",
          "ticks": 252960,
          "time": 210.8,
          "velocity": 0.8267716535433071
        },
        {
          "duration": 0.3333333333333428,
          "durationTicks": 400,
          "midi": 72,
          "name": "C5",
          "ticks": 252960,
          "time": 210.8,
          "velocity": 0.8267716535433071
        },
        {
          "duration": 0.3333333333333428,
          "durationTicks": 400,
          "midi": 60,
          "name": "C4",
          "ticks": 253440,
          "time": 211.20000000000002,
          "velocity": 0.8267716535433071
        },
        {
          "duration": 0.3333333333333428,
          "durationTicks": 400,
          "midi": 72,
          "name": "C5",
          "ticks": 253440,
          "time": 211.20000000000002,
          "velocity": 0.8267716535433071
        },
        {
          "duration": 0.29666666666665265,
          "durationTicks": 356,
          "midi": 60,
          "name": "C4",
          "ticks": 253920,
          "time": 211.60000000000002,
          "velocity": 0.8267716535433071
        },
        {
          "duration": 0.29666666666665265,
          "durationTicks": 356,
          "midi": 72,
          "name": "C5",
          "ticks": 253920,
          "time": 211.60000000000002,
          "velocity": 0.8267716535433071
        },
        {
          "duration": 0.09666666666666401,
          "durationTicks": 116,
          "midi": 60,
          "name": "C4",
          "ticks": 254280,
          "time": 211.9,
          "velocity": 0.8267716535433071
        },
        {
          "duration": 0.09666666666666401,
          "durationTicks": 116,
          "midi": 72,
          "name": "C5",
          "ticks": 254280,
          "time": 211.9,
          "velocity": 0.8267716535433071
        },
        {
          "duration": 0.33333333333337123,
          "durationTicks": 400,
          "midi": 60,
          "name": "C4",
          "ticks": 254400,
          "time": 212,
          "velocity": 0.8267716535433071
        },
        {
          "duration": 0.33333333333337123,
          "durationTicks": 400,
          "midi": 72,
          "name": "C5",
          "ticks": 254400,
          "time": 212,
          "velocity": 0.8267716535433071
        },
        {
          "duration": 0.3333333333333428,
          "durationTicks": 400,
          "midi": 60,
          "name": "C4",
          "ticks": 254880,
          "time": 212.4,
          "velocity": 0.8267716535433071
        },
        {
          "duration": 0.3333333333333428,
          "durationTicks": 400,
          "midi": 72,
          "name": "C5",
          "ticks": 254880,
          "time": 212.4,
          "velocity": 0.8267716535433071
        },
        {
          "duration": 0.3333333333333428,
          "durationTicks": 400,
          "midi": 67,
          "name": "G4",
          "ticks": 255360,
          "time": 212.8,
          "velocity": 0.8267716535433071
        },
        {
          "duration": 0.3333333333333428,
          "durationTicks": 400,
          "midi": 74,
          "name": "D5",
          "ticks": 255360,
          "time": 212.8,
          "velocity": 0.8267716535433071
        },
        {
          "duration": 0.29666666666665265,
          "durationTicks": 356,
          "midi": 67,
          "name": "G4",
          "ticks": 255840,
          "time": 213.20000000000002,
          "velocity": 0.8267716535433071
        },
        {
          "duration": 0.29666666666665265,
          "durationTicks": 356,
          "midi": 74,
          "name": "D5",
          "ticks": 255840,
          "time": 213.20000000000002,
          "velocity": 0.8267716535433071
        },
        {
          "duration": 0.09666666666669244,
          "durationTicks": 116,
          "midi": 67,
          "name": "G4",
          "ticks": 256200,
          "time": 213.5,
          "velocity": 0.8267716535433071
        },
        {
          "duration": 0.09666666666669244,
          "durationTicks": 116,
          "midi": 74,
          "name": "D5",
          "ticks": 256200,
          "time": 213.5,
          "velocity": 0.8267716535433071
        },
        {
          "duration": 0.3333333333333428,
          "durationTicks": 400,
          "midi": 67,
          "name": "G4",
          "ticks": 256320,
          "time": 213.60000000000002,
          "velocity": 0.8267716535433071
        },
        {
          "duration": 0.3333333333333428,
          "durationTicks": 400,
          "midi": 74,
          "name": "D5",
          "ticks": 256320,
          "time": 213.60000000000002,
          "velocity": 0.8267716535433071
        },
        {
          "duration": 0.33333333333337123,
          "durationTicks": 400,
          "midi": 67,
          "name": "G4",
          "ticks": 256800,
          "time": 214,
          "velocity": 0.8267716535433071
        },
        {
          "duration": 0.33333333333337123,
          "durationTicks": 400,
          "midi": 74,
          "name": "D5",
          "ticks": 256800,
          "time": 214,
          "velocity": 0.8267716535433071
        },
        {
          "duration": 0.3333333333333428,
          "durationTicks": 400,
          "midi": 64,
          "name": "E4",
          "ticks": 257280,
          "time": 214.4,
          "velocity": 0.8267716535433071
        },
        {
          "duration": 0.3333333333333428,
          "durationTicks": 400,
          "midi": 67,
          "name": "G4",
          "ticks": 257280,
          "time": 214.4,
          "velocity": 0.8267716535433071
        },
        {
          "duration": 0.3333333333333428,
          "durationTicks": 400,
          "midi": 64,
          "name": "E4",
          "ticks": 257760,
          "time": 214.8,
          "velocity": 0.8267716535433071
        },
        {
          "duration": 0.3333333333333428,
          "durationTicks": 400,
          "midi": 72,
          "name": "C5",
          "ticks": 257760,
          "time": 214.8,
          "velocity": 0.8267716535433071
        },
        {
          "duration": 0.3333333333333428,
          "durationTicks": 400,
          "midi": 67,
          "name": "G4",
          "ticks": 258720,
          "time": 215.60000000000002,
          "velocity": 0.8267716535433071
        },
        {
          "duration": 0.3333333333333428,
          "durationTicks": 400,
          "midi": 74,
          "name": "D5",
          "ticks": 258720,
          "time": 215.60000000000002,
          "velocity": 0.8267716535433071
        },
        {
          "duration": 0.3333333333333428,
          "durationTicks": 400,
          "midi": 72,
          "name": "C5",
          "ticks": 259680,
          "time": 216.4,
          "velocity": 0.8267716535433071
        },
        {
          "duration": 0.3333333333333428,
          "durationTicks": 400,
          "midi": 76,
          "name": "E5",
          "ticks": 259680,
          "time": 216.4,
          "velocity": 0.8267716535433071
        },
        {
          "duration": 0.3333333333333428,
          "durationTicks": 400,
          "midi": 67,
          "name": "G4",
          "ticks": 260640,
          "time": 217.20000000000002,
          "velocity": 0.8267716535433071
        },
        {
          "duration": 0.3333333333333428,
          "durationTicks": 400,
          "midi": 74,
          "name": "D5",
          "ticks": 260640,
          "time": 217.20000000000002,
          "velocity": 0.8267716535433071
        },
        {
          "duration": 0.3333333333333428,
          "durationTicks": 400,
          "midi": 72,
          "name": "C5",
          "ticks": 261120,
          "time": 217.60000000000002,
          "velocity": 0.8267716535433071
        },
        {
          "duration": 0.3333333333333428,
          "durationTicks": 400,
          "midi": 76,
          "name": "E5",
          "ticks": 261120,
          "time": 217.60000000000002,
          "velocity": 0.8267716535433071
        },
        {
          "duration": 0.19666666666668675,
          "durationTicks": 236,
          "midi": 67,
          "name": "G4",
          "ticks": 261600,
          "time": 218,
          "velocity": 0.8267716535433071
        },
        {
          "duration": 0.19666666666665833,
          "durationTicks": 236,
          "midi": 67,
          "name": "G4",
          "ticks": 261840,
          "time": 218.20000000000002,
          "velocity": 0.8267716535433071
        },
        {
          "duration": 0.19666666666668675,
          "durationTicks": 236,
          "midi": 72,
          "name": "C5",
          "ticks": 262080,
          "time": 218.4,
          "velocity": 0.8267716535433071
        },
        {
          "duration": 0.19666666666665833,
          "durationTicks": 236,
          "midi": 72,
          "name": "C5",
          "ticks": 262320,
          "time": 218.60000000000002,
          "velocity": 0.8267716535433071
        },
        {
          "duration": 0.19666666666665833,
          "durationTicks": 236,
          "midi": 67,
          "name": "G4",
          "ticks": 262560,
          "time": 218.8,
          "velocity": 0.8267716535433071
        },
        {
          "duration": 0.19666666666668675,
          "durationTicks": 236,
          "midi": 67,
          "name": "G4",
          "ticks": 262800,
          "time": 219,
          "velocity": 0.8267716535433071
        },
        {
          "duration": 0.19666666666665833,
          "durationTicks": 236,
          "midi": 72,
          "name": "C5",
          "ticks": 263040,
          "time": 219.20000000000002,
          "velocity": 0.8267716535433071
        },
        {
          "duration": 0.19666666666668675,
          "durationTicks": 236,
          "midi": 72,
          "name": "C5",
          "ticks": 263280,
          "time": 219.4,
          "velocity": 0.8267716535433071
        },
        {
          "duration": 0.19666666666665833,
          "durationTicks": 236,
          "midi": 67,
          "name": "G4",
          "ticks": 263520,
          "time": 219.60000000000002,
          "velocity": 0.8267716535433071
        },
        {
          "duration": 0.19666666666665833,
          "durationTicks": 236,
          "midi": 67,
          "name": "G4",
          "ticks": 263760,
          "time": 219.8,
          "velocity": 0.8267716535433071
        },
        {
          "duration": 0.19666666666668675,
          "durationTicks": 236,
          "midi": 64,
          "name": "E4",
          "ticks": 264000,
          "time": 220,
          "velocity": 0.8267716535433071
        },
        {
          "duration": 0.19666666666665833,
          "durationTicks": 236,
          "midi": 64,
          "name": "E4",
          "ticks": 264240,
          "time": 220.20000000000002,
          "velocity": 0.8267716535433071
        },
        {
          "duration": 0.19666666666668675,
          "durationTicks": 236,
          "midi": 60,
          "name": "C4",
          "ticks": 264480,
          "time": 220.4,
          "velocity": 0.8267716535433071
        },
        {
          "duration": 0.19666666666665833,
          "durationTicks": 236,
          "midi": 60,
          "name": "C4",
          "ticks": 264720,
          "time": 220.60000000000002,
          "velocity": 0.8267716535433071
        },
        {
          "duration": 0.3333333333333428,
          "durationTicks": 400,
          "midi": 67,
          "name": "G4",
          "ticks": 264960,
          "time": 220.8,
          "velocity": 0.8267716535433071
        },
        {
          "duration": 0.3333333333333428,
          "durationTicks": 400,
          "midi": 67,
          "name": "G4",
          "ticks": 265440,
          "time": 221.20000000000002,
          "velocity": 0.8267716535433071
        },
        {
          "duration": 0.3333333333333428,
          "durationTicks": 400,
          "midi": 79,
          "name": "G5",
          "ticks": 265440,
          "time": 221.20000000000002,
          "velocity": 0.8267716535433071
        },
        {
          "duration": 0.33333333333337123,
          "durationTicks": 400,
          "midi": 67,
          "name": "G4",
          "ticks": 266400,
          "time": 222,
          "velocity": 0.8267716535433071
        },
        {
          "duration": 0.33333333333337123,
          "durationTicks": 400,
          "midi": 79,
          "name": "G5",
          "ticks": 266400,
          "time": 222,
          "velocity": 0.8267716535433071
        },
        {
          "duration": 0.3333333333333428,
          "durationTicks": 400,
          "midi": 67,
          "name": "G4",
          "ticks": 267360,
          "time": 222.8,
          "velocity": 0.8267716535433071
        },
        {
          "duration": 0.3333333333333428,
          "durationTicks": 400,
          "midi": 79,
          "name": "G5",
          "ticks": 267360,
          "time": 222.8,
          "velocity": 0.8267716535433071
        },
        {
          "duration": 0.3333333333333428,
          "durationTicks": 400,
          "midi": 67,
          "name": "G4",
          "ticks": 268320,
          "time": 223.60000000000002,
          "velocity": 0.8267716535433071
        },
        {
          "duration": 0.3333333333333428,
          "durationTicks": 400,
          "midi": 79,
          "name": "G5",
          "ticks": 268320,
          "time": 223.60000000000002,
          "velocity": 0.8267716535433071
        },
        {
          "duration": 0.19666666666668675,
          "durationTicks": 236,
          "midi": 67,
          "name": "G4",
          "ticks": 268800,
          "time": 224,
          "velocity": 0.8267716535433071
        },
        {
          "duration": 0.19666666666668675,
          "durationTicks": 236,
          "midi": 74,
          "name": "D5",
          "ticks": 268800,
          "time": 224,
          "velocity": 0.8267716535433071
        },
        {
          "duration": 0.19666666666665833,
          "durationTicks": 236,
          "midi": 72,
          "name": "C5",
          "ticks": 269040,
          "time": 224.20000000000002,
          "velocity": 0.8346456692913385
        },
        {
          "duration": 0.19666666666665833,
          "durationTicks": 236,
          "midi": 76,
          "name": "E5",
          "ticks": 269040,
          "time": 224.20000000000002,
          "velocity": 0.8346456692913385
        },
        {
          "duration": 0.19666666666668675,
          "durationTicks": 236,
          "midi": 67,
          "name": "G4",
          "ticks": 269280,
          "time": 224.4,
          "velocity": 0.8503937007874016
        },
        {
          "duration": 0.19666666666668675,
          "durationTicks": 236,
          "midi": 74,
          "name": "D5",
          "ticks": 269280,
          "time": 224.4,
          "velocity": 0.8503937007874016
        },
        {
          "duration": 0.19666666666665833,
          "durationTicks": 236,
          "midi": 72,
          "name": "C5",
          "ticks": 269520,
          "time": 224.60000000000002,
          "velocity": 0.8582677165354331
        },
        {
          "duration": 0.19666666666665833,
          "durationTicks": 236,
          "midi": 76,
          "name": "E5",
          "ticks": 269520,
          "time": 224.60000000000002,
          "velocity": 0.8582677165354331
        },
        {
          "duration": 0.19666666666665833,
          "durationTicks": 236,
          "midi": 67,
          "name": "G4",
          "ticks": 269760,
          "time": 224.8,
          "velocity": 0.8661417322834646
        },
        {
          "duration": 0.19666666666665833,
          "durationTicks": 236,
          "midi": 74,
          "name": "D5",
          "ticks": 269760,
          "time": 224.8,
          "velocity": 0.8661417322834646
        },
        {
          "duration": 0.19666666666668675,
          "durationTicks": 236,
          "midi": 72,
          "name": "C5",
          "ticks": 270000,
          "time": 225,
          "velocity": 0.8740157480314961
        },
        {
          "duration": 0.19666666666668675,
          "durationTicks": 236,
          "midi": 76,
          "name": "E5",
          "ticks": 270000,
          "time": 225,
          "velocity": 0.8740157480314961
        },
        {
          "duration": 0.19666666666665833,
          "durationTicks": 236,
          "midi": 67,
          "name": "G4",
          "ticks": 270240,
          "time": 225.20000000000002,
          "velocity": 0.8818897637795275
        },
        {
          "duration": 0.19666666666665833,
          "durationTicks": 236,
          "midi": 74,
          "name": "D5",
          "ticks": 270240,
          "time": 225.20000000000002,
          "velocity": 0.8818897637795275
        },
        {
          "duration": 0.19666666666668675,
          "durationTicks": 236,
          "midi": 72,
          "name": "C5",
          "ticks": 270480,
          "time": 225.4,
          "velocity": 0.889763779527559
        },
        {
          "duration": 0.19666666666668675,
          "durationTicks": 236,
          "midi": 76,
          "name": "E5",
          "ticks": 270480,
          "time": 225.4,
          "velocity": 0.889763779527559
        },
        {
          "duration": 0.3333333333333428,
          "durationTicks": 400,
          "midi": 67,
          "name": "G4",
          "ticks": 270720,
          "time": 225.60000000000002,
          "velocity": 0.905511811023622
        },
        {
          "duration": 0.3333333333333428,
          "durationTicks": 400,
          "midi": 74,
          "name": "D5",
          "ticks": 270720,
          "time": 225.60000000000002,
          "velocity": 0.905511811023622
        },
        {
          "duration": 0.3333333333333428,
          "durationTicks": 400,
          "midi": 55,
          "name": "G3",
          "ticks": 271680,
          "time": 226.4,
          "velocity": 0.937007874015748
        },
        {
          "duration": 0.3333333333333428,
          "durationTicks": 400,
          "midi": 67,
          "name": "G4",
          "ticks": 271680,
          "time": 226.4,
          "velocity": 0.937007874015748
        },
        {
          "duration": 0.3333333333333428,
          "durationTicks": 400,
          "midi": 55,
          "name": "G3",
          "ticks": 272160,
          "time": 226.8,
          "velocity": 0.952755905511811
        },
        {
          "duration": 0.3333333333333428,
          "durationTicks": 400,
          "midi": 67,
          "name": "G4",
          "ticks": 272160,
          "time": 226.8,
          "velocity": 0.952755905511811
        },
        {
          "duration": 1.5,
          "durationTicks": 1800,
          "midi": 55,
          "name": "G3",
          "ticks": 272640,
          "time": 227.20000000000002,
          "velocity": 0.9763779527559056
        },
        {
          "duration": 1.5,
          "durationTicks": 1800,
          "midi": 67,
          "name": "G4",
          "ticks": 272640,
          "time": 227.20000000000002,
          "velocity": 0.9763779527559056
        },
        {
          "duration": 0.4000000000000057,
          "durationTicks": 480,
          "midi": 60,
          "name": "C4",
          "ticks": 274560,
          "time": 228.8,
          "velocity": 0.4015748031496063
        },
        {
          "duration": 0.4000000000000057,
          "durationTicks": 480,
          "midi": 72,
          "name": "C5",
          "ticks": 274560,
          "time": 228.8,
          "velocity": 0.4015748031496063
        },
        {
          "duration": 0.4000000000000057,
          "durationTicks": 480,
          "midi": 64,
          "name": "E4",
          "ticks": 275040,
          "time": 229.20000000000002,
          "velocity": 0.4015748031496063
        },
        {
          "duration": 0.4000000000000057,
          "durationTicks": 480,
          "midi": 76,
          "name": "E5",
          "ticks": 275040,
          "time": 229.20000000000002,
          "velocity": 0.4015748031496063
        },
        {
          "duration": 0.39999999999997726,
          "durationTicks": 480,
          "midi": 67,
          "name": "G4",
          "ticks": 275520,
          "time": 229.60000000000002,
          "velocity": 0.4015748031496063
        },
        {
          "duration": 0.39999999999997726,
          "durationTicks": 480,
          "midi": 79,
          "name": "G5",
          "ticks": 275520,
          "time": 229.60000000000002,
          "velocity": 0.4015748031496063
        },
        {
          "duration": 0.33333333333337123,
          "durationTicks": 400,
          "midi": 64,
          "name": "E4",
          "ticks": 276000,
          "time": 230,
          "velocity": 0.4015748031496063
        },
        {
          "duration": 0.33333333333337123,
          "durationTicks": 400,
          "midi": 76,
          "name": "E5",
          "ticks": 276000,
          "time": 230,
          "velocity": 0.4015748031496063
        },
        {
          "duration": 0.3333333333333428,
          "durationTicks": 400,
          "midi": 60,
          "name": "C4",
          "ticks": 276480,
          "time": 230.4,
          "velocity": 0.4015748031496063
        },
        {
          "duration": 0.3333333333333428,
          "durationTicks": 400,
          "midi": 72,
          "name": "C5",
          "ticks": 276480,
          "time": 230.4,
          "velocity": 0.4015748031496063
        },
        {
          "duration": 0.3333333333333428,
          "durationTicks": 400,
          "midi": 67,
          "name": "G4",
          "ticks": 299520,
          "time": 249.60000000000002,
          "velocity": 0.8267716535433071
        },
        {
          "duration": 0.3333333333333428,
          "durationTicks": 400,
          "midi": 67,
          "name": "G4",
          "ticks": 300480,
          "time": 250.4,
          "velocity": 0.8267716535433071
        },
        {
          "duration": 0.3333333333333428,
          "durationTicks": 400,
          "midi": 67,
          "name": "G4",
          "ticks": 301440,
          "time": 251.20000000000002,
          "velocity": 0.8267716535433071
        },
        {
          "duration": 1.5999999999999943,
          "durationTicks": 1920,
          "midi": 67,
          "name": "G4",
          "ticks": 303360,
          "time": 252.8,
          "velocity": 0.8267716535433071
        },
        {
          "duration": 0.3333333333333428,
          "durationTicks": 400,
          "midi": 67,
          "name": "G4",
          "ticks": 305280,
          "time": 254.4,
          "velocity": 0.8267716535433071
        },
        {
          "duration": 0.29666666666668107,
          "durationTicks": 356,
          "midi": 67,
          "name": "G4",
          "ticks": 305760,
          "time": 254.8,
          "velocity": 0.8267716535433071
        },
        {
          "duration": 0.09666666666666401,
          "durationTicks": 116,
          "midi": 67,
          "name": "G4",
          "ticks": 306120,
          "time": 255.10000000000002,
          "velocity": 0.8267716535433071
        },
        {
          "duration": 0.3333333333333428,
          "durationTicks": 400,
          "midi": 67,
          "name": "G4",
          "ticks": 306240,
          "time": 255.20000000000002,
          "velocity": 0.8267716535433071
        },
        {
          "duration": 0.3333333333333428,
          "durationTicks": 400,
          "midi": 67,
          "name": "G4",
          "ticks": 306720,
          "time": 255.60000000000002,
          "velocity": 0.8267716535433071
        },
        {
          "duration": 1.6000000000000227,
          "durationTicks": 1920,
          "midi": 67,
          "name": "G4",
          "ticks": 307200,
          "time": 256,
          "velocity": 0.8267716535433071
        },
        {
          "duration": 0.3333333333333144,
          "durationTicks": 400,
          "midi": 67,
          "name": "G4",
          "ticks": 309120,
          "time": 257.6,
          "velocity": 0.8267716535433071
        },
        {
          "duration": 0.29666666666668107,
          "durationTicks": 356,
          "midi": 67,
          "name": "G4",
          "ticks": 309600,
          "time": 258,
          "velocity": 0.8267716535433071
        },
        {
          "duration": 0.09666666666669244,
          "durationTicks": 116,
          "midi": 67,
          "name": "G4",
          "ticks": 309960,
          "time": 258.3,
          "velocity": 0.8267716535433071
        },
        {
          "duration": 0.3333333333333144,
          "durationTicks": 400,
          "midi": 67,
          "name": "G4",
          "ticks": 310080,
          "time": 258.40000000000003,
          "velocity": 0.8267716535433071
        },
        {
          "duration": 0.33333333333337123,
          "durationTicks": 400,
          "midi": 67,
          "name": "G4",
          "ticks": 310560,
          "time": 258.8,
          "velocity": 0.8267716535433071
        },
        {
          "duration": 1.6000000000000227,
          "durationTicks": 1920,
          "midi": 67,
          "name": "G4",
          "ticks": 311040,
          "time": 259.2,
          "velocity": 0.8267716535433071
        },
        {
          "duration": 0.33333333333337123,
          "durationTicks": 400,
          "midi": 67,
          "name": "G4",
          "ticks": 312960,
          "time": 260.8,
          "velocity": 0.8267716535433071
        },
        {
          "duration": 0.29666666666668107,
          "durationTicks": 356,
          "midi": 67,
          "name": "G4",
          "ticks": 313440,
          "time": 261.2,
          "velocity": 0.8267716535433071
        },
        {
          "duration": 0.09666666666669244,
          "durationTicks": 116,
          "midi": 67,
          "name": "G4",
          "ticks": 313800,
          "time": 261.5,
          "velocity": 0.8267716535433071
        },
        {
          "duration": 0.3333333333333144,
          "durationTicks": 400,
          "midi": 67,
          "name": "G4",
          "ticks": 313920,
          "time": 261.6,
          "velocity": 0.8267716535433071
        },
        {
          "duration": 0.33333333333337123,
          "durationTicks": 400,
          "midi": 67,
          "name": "G4",
          "ticks": 314400,
          "time": 262,
          "velocity": 0.8267716535433071
        },
        {
          "duration": 0.3333333333333144,
          "durationTicks": 400,
          "midi": 67,
          "name": "G4",
          "ticks": 314880,
          "time": 262.40000000000003,
          "velocity": 0.8267716535433071
        },
        {
          "duration": 0.29666666666668107,
          "durationTicks": 356,
          "midi": 67,
          "name": "G4",
          "ticks": 315360,
          "time": 262.8,
          "velocity": 0.8267716535433071
        },
        {
          "duration": 0.09666666666663559,
          "durationTicks": 116,
          "midi": 67,
          "name": "G4",
          "ticks": 315720,
          "time": 263.1,
          "velocity": 0.8267716535433071
        },
        {
          "duration": 0.33333333333337123,
          "durationTicks": 400,
          "midi": 67,
          "name": "G4",
          "ticks": 315840,
          "time": 263.2,
          "velocity": 0.8267716535433071
        },
        {
          "duration": 0.3333333333333144,
          "durationTicks": 400,
          "midi": 67,
          "name": "G4",
          "ticks": 316320,
          "time": 263.6,
          "velocity": 0.8267716535433071
        },
        {
          "duration": 0.33333333333337123,
          "durationTicks": 400,
          "midi": 67,
          "name": "G4",
          "ticks": 316800,
          "time": 264,
          "velocity": 0.8267716535433071
        },
        {
          "duration": 0.2966666666666242,
          "durationTicks": 356,
          "midi": 67,
          "name": "G4",
          "ticks": 317280,
          "time": 264.40000000000003,
          "velocity": 0.8267716535433071
        },
        {
          "duration": 0.09666666666669244,
          "durationTicks": 116,
          "midi": 67,
          "name": "G4",
          "ticks": 317640,
          "time": 264.7,
          "velocity": 0.8267716535433071
        },
        {
          "duration": 0.33333333333337123,
          "durationTicks": 400,
          "midi": 67,
          "name": "G4",
          "ticks": 317760,
          "time": 264.8,
          "velocity": 0.8267716535433071
        },
        {
          "duration": 0.33333333333337123,
          "durationTicks": 400,
          "midi": 67,
          "name": "G4",
          "ticks": 318240,
          "time": 265.2,
          "velocity": 0.8267716535433071
        },
        {
          "duration": 0.3333333333333144,
          "durationTicks": 400,
          "midi": 72,
          "name": "C5",
          "ticks": 318720,
          "time": 265.6,
          "velocity": 0.8267716535433071
        },
        {
          "duration": 0.33333333333337123,
          "durationTicks": 400,
          "midi": 74,
          "name": "D5",
          "ticks": 319200,
          "time": 266,
          "velocity": 0.8267716535433071
        },
        {
          "duration": 0.3333333333333144,
          "durationTicks": 400,
          "midi": 72,
          "name": "C5",
          "ticks": 319680,
          "time": 266.40000000000003,
          "velocity": 0.8267716535433071
        },
        {
          "duration": 0.33333333333337123,
          "durationTicks": 400,
          "midi": 74,
          "name": "D5",
          "ticks": 320160,
          "time": 266.8,
          "velocity": 0.8267716535433071
        },
        {
          "duration": 1.1000000000000227,
          "durationTicks": 1320,
          "midi": 72,
          "name": "C5",
          "ticks": 320640,
          "time": 267.2,
          "velocity": 0.8267716535433071
        },
        {
          "duration": 0.3333333333333144,
          "durationTicks": 400,
          "midi": 76,
          "name": "E5",
          "ticks": 322080,
          "time": 268.40000000000003,
          "velocity": 0.8267716535433071
        },
        {
          "duration": 0.33333333333337123,
          "durationTicks": 400,
          "midi": 74,
          "name": "D5",
          "ticks": 322560,
          "time": 268.8,
          "velocity": 0.8267716535433071
        },
        {
          "duration": 0.29666666666668107,
          "durationTicks": 356,
          "midi": 74,
          "name": "D5",
          "ticks": 323040,
          "time": 269.2,
          "velocity": 0.8267716535433071
        },
        {
          "duration": 0.09666666666669244,
          "durationTicks": 116,
          "midi": 74,
          "name": "D5",
          "ticks": 323400,
          "time": 269.5,
          "velocity": 0.8267716535433071
        },
        {
          "duration": 0.3333333333333144,
          "durationTicks": 400,
          "midi": 74,
          "name": "D5",
          "ticks": 323520,
          "time": 269.6,
          "velocity": 0.8267716535433071
        },
        {
          "duration": 0.33333333333337123,
          "durationTicks": 400,
          "midi": 74,
          "name": "D5",
          "ticks": 324000,
          "time": 270,
          "velocity": 0.8267716535433071
        },
        {
          "duration": 0.3333333333333144,
          "durationTicks": 400,
          "midi": 74,
          "name": "D5",
          "ticks": 324480,
          "time": 270.40000000000003,
          "velocity": 0.8267716535433071
        },
        {
          "duration": 0.29666666666668107,
          "durationTicks": 356,
          "midi": 74,
          "name": "D5",
          "ticks": 324960,
          "time": 270.8,
          "velocity": 0.8267716535433071
        },
        {
          "duration": 0.09666666666663559,
          "durationTicks": 116,
          "midi": 74,
          "name": "D5",
          "ticks": 325320,
          "time": 271.1,
          "velocity": 0.8267716535433071
        },
        {
          "duration": 0.33333333333337123,
          "durationTicks": 400,
          "midi": 74,
          "name": "D5",
          "ticks": 325440,
          "time": 271.2,
          "velocity": 0.8267716535433071
        },
        {
          "duration": 0.3333333333333144,
          "durationTicks": 400,
          "midi": 74,
          "name": "D5",
          "ticks": 325920,
          "time": 271.6,
          "velocity": 0.8267716535433071
        },
        {
          "duration": 0.33333333333337123,
          "durationTicks": 400,
          "midi": 74,
          "name": "D5",
          "ticks": 326400,
          "time": 272,
          "velocity": 0.8267716535433071
        },
        {
          "duration": 0.2966666666666242,
          "durationTicks": 356,
          "midi": 74,
          "name": "D5",
          "ticks": 326880,
          "time": 272.40000000000003,
          "velocity": 0.8267716535433071
        },
        {
          "duration": 0.09666666666669244,
          "durationTicks": 116,
          "midi": 74,
          "name": "D5",
          "ticks": 327240,
          "time": 272.7,
          "velocity": 0.8267716535433071
        },
        {
          "duration": 0.33333333333337123,
          "durationTicks": 400,
          "midi": 74,
          "name": "D5",
          "ticks": 327360,
          "time": 272.8,
          "velocity": 0.8267716535433071
        },
        {
          "duration": 0.33333333333337123,
          "durationTicks": 400,
          "midi": 74,
          "name": "D5",
          "ticks": 327840,
          "time": 273.2,
          "velocity": 0.8267716535433071
        },
        {
          "duration": 0.3333333333333144,
          "durationTicks": 400,
          "midi": 74,
          "name": "D5",
          "ticks": 328320,
          "time": 273.6,
          "velocity": 0.8267716535433071
        },
        {
          "duration": 0.29666666666668107,
          "durationTicks": 356,
          "midi": 74,
          "name": "D5",
          "ticks": 328800,
          "time": 274,
          "velocity": 0.8267716535433071
        },
        {
          "duration": 0.09666666666669244,
          "durationTicks": 116,
          "midi": 74,
          "name": "D5",
          "ticks": 329160,
          "time": 274.3,
          "velocity": 0.8267716535433071
        },
        {
          "duration": 0.3333333333333144,
          "durationTicks": 400,
          "midi": 74,
          "name": "D5",
          "ticks": 329280,
          "time": 274.40000000000003,
          "velocity": 0.8267716535433071
        },
        {
          "duration": 0.33333333333337123,
          "durationTicks": 400,
          "midi": 74,
          "name": "D5",
          "ticks": 329760,
          "time": 274.8,
          "velocity": 0.8267716535433071
        },
        {
          "duration": 0.33333333333337123,
          "durationTicks": 400,
          "midi": 74,
          "name": "D5",
          "ticks": 330240,
          "time": 275.2,
          "velocity": 0.8267716535433071
        },
        {
          "duration": 0.3333333333333144,
          "durationTicks": 400,
          "midi": 74,
          "name": "D5",
          "ticks": 330720,
          "time": 275.6,
          "velocity": 0.8267716535433071
        },
        {
          "duration": 0.3333333333333144,
          "durationTicks": 400,
          "midi": 74,
          "name": "D5",
          "ticks": 331680,
          "time": 276.40000000000003,
          "velocity": 0.8267716535433071
        },
        {
          "duration": 0.33333333333337123,
          "durationTicks": 400,
          "midi": 74,
          "name": "D5",
          "ticks": 332640,
          "time": 277.2,
          "velocity": 0.8267716535433071
        },
        {
          "duration": 0.33333333333337123,
          "durationTicks": 400,
          "midi": 74,
          "name": "D5",
          "ticks": 333600,
          "time": 278,
          "velocity": 0.8267716535433071
        },
        {
          "duration": 0.3333333333333144,
          "durationTicks": 400,
          "midi": 74,
          "name": "D5",
          "ticks": 334080,
          "time": 278.40000000000003,
          "velocity": 0.8267716535433071
        },
        {
          "duration": 1.5,
          "durationTicks": 1800,
          "midi": 60,
          "name": "C4",
          "ticks": 384000,
          "time": 320,
          "velocity": 0.8267716535433071
        },
        {
          "duration": 1.5,
          "durationTicks": 1800,
          "midi": 67,
          "name": "G4",
          "ticks": 384000,
          "time": 320,
          "velocity": 0.8267716535433071
        },
        {
          "duration": 0.19999999999998863,
          "durationTicks": 240,
          "midi": 60,
          "name": "C4",
          "ticks": 385920,
          "time": 321.6,
          "velocity": 0.8267716535433071
        },
        {
          "duration": 0.19999999999998863,
          "durationTicks": 240,
          "midi": 67,
          "name": "G4",
          "ticks": 385920,
          "time": 321.6,
          "velocity": 0.8267716535433071
        },
        {
          "duration": 0.19999999999998863,
          "durationTicks": 240,
          "midi": 60,
          "name": "C4",
          "ticks": 386880,
          "time": 322.40000000000003,
          "velocity": 0.8267716535433071
        },
        {
          "duration": 0.19999999999998863,
          "durationTicks": 240,
          "midi": 67,
          "name": "G4",
          "ticks": 386880,
          "time": 322.40000000000003,
          "velocity": 0.8267716535433071
        },
        {
          "duration": 0.19999999999998863,
          "durationTicks": 240,
          "midi": 60,
          "name": "C4",
          "ticks": 387840,
          "time": 323.20000000000005,
          "velocity": 0.8267716535433071
        },
        {
          "duration": 0.19999999999998863,
          "durationTicks": 240,
          "midi": 67,
          "name": "G4",
          "ticks": 387840,
          "time": 323.20000000000005,
          "velocity": 0.8267716535433071
        },
        {
          "duration": 0.5333333333333599,
          "durationTicks": 640,
          "midi": 60,
          "name": "C4",
          "ticks": 388800,
          "time": 324,
          "velocity": 0.8267716535433071
        },
        {
          "duration": 0.5333333333333599,
          "durationTicks": 640,
          "midi": 72,
          "name": "C5",
          "ticks": 388800,
          "time": 324,
          "velocity": 0.8267716535433071
        },
        {
          "duration": 0.19666666666665833,
          "durationTicks": 236,
          "midi": 60,
          "name": "C4",
          "ticks": 389520,
          "time": 324.6,
          "velocity": 0.8267716535433071
        },
        {
          "duration": 0.19666666666665833,
          "durationTicks": 236,
          "midi": 72,
          "name": "C5",
          "ticks": 389520,
          "time": 324.6,
          "velocity": 0.8267716535433071
        },
        {
          "duration": 0.33333333333337123,
          "durationTicks": 400,
          "midi": 60,
          "name": "C4",
          "ticks": 389760,
          "time": 324.8,
          "velocity": 0.8267716535433071
        },
        {
          "duration": 0.33333333333337123,
          "durationTicks": 400,
          "midi": 72,
          "name": "C5",
          "ticks": 389760,
          "time": 324.8,
          "velocity": 0.8267716535433071
        },
        {
          "duration": 0.3333333333333144,
          "durationTicks": 400,
          "midi": 60,
          "name": "C4",
          "ticks": 390240,
          "time": 325.20000000000005,
          "velocity": 0.8267716535433071
        },
        {
          "duration": 0.3333333333333144,
          "durationTicks": 400,
          "midi": 72,
          "name": "C5",
          "ticks": 390240,
          "time": 325.20000000000005,
          "velocity": 0.8267716535433071
        },
        {
          "duration": 0.33333333333337123,
          "durationTicks": 400,
          "midi": 60,
          "name": "C4",
          "ticks": 390720,
          "time": 325.6,
          "velocity": 0.8267716535433071
        },
        {
          "duration": 0.33333333333337123,
          "durationTicks": 400,
          "midi": 72,
          "name": "C5",
          "ticks": 390720,
          "time": 325.6,
          "velocity": 0.8267716535433071
        },
        {
          "duration": 0.33333333333337123,
          "durationTicks": 400,
          "midi": 60,
          "name": "C4",
          "ticks": 391200,
          "time": 326,
          "velocity": 0.8267716535433071
        },
        {
          "duration": 0.33333333333337123,
          "durationTicks": 400,
          "midi": 72,
          "name": "C5",
          "ticks": 391200,
          "time": 326,
          "velocity": 0.8267716535433071
        },
        {
          "duration": 0.6999999999999886,
          "durationTicks": 840,
          "midi": 60,
          "name": "C4",
          "ticks": 391680,
          "time": 326.40000000000003,
          "velocity": 0.8267716535433071
        },
        {
          "duration": 0.6999999999999886,
          "durationTicks": 840,
          "midi": 72,
          "name": "C5",
          "ticks": 391680,
          "time": 326.40000000000003,
          "velocity": 0.8267716535433071
        },
        {
          "duration": 0.6999999999999886,
          "durationTicks": 840,
          "midi": 67,
          "name": "G4",
          "ticks": 392640,
          "time": 327.20000000000005,
          "velocity": 0.8267716535433071
        },
        {
          "duration": 0.6999999999999886,
          "durationTicks": 840,
          "midi": 79,
          "name": "G5",
          "ticks": 392640,
          "time": 327.20000000000005,
          "velocity": 0.8267716535433071
        },
        {
          "duration": 0.7000000000000455,
          "durationTicks": 840,
          "midi": 64,
          "name": "E4",
          "ticks": 393600,
          "time": 328,
          "velocity": 0.8267716535433071
        },
        {
          "duration": 0.7000000000000455,
          "durationTicks": 840,
          "midi": 76,
          "name": "E5",
          "ticks": 393600,
          "time": 328,
          "velocity": 0.8267716535433071
        },
        {
          "duration": 0.6999999999999886,
          "durationTicks": 840,
          "midi": 60,
          "name": "C4",
          "ticks": 394560,
          "time": 328.8,
          "velocity": 0.8267716535433071
        },
        {
          "duration": 0.6999999999999886,
          "durationTicks": 840,
          "midi": 72,
          "name": "C5",
          "ticks": 394560,
          "time": 328.8,
          "velocity": 0.8267716535433071
        },
        {
          "duration": 1.5,
          "durationTicks": 1800,
          "midi": 67,
          "name": "G4",
          "ticks": 395520,
          "time": 329.6,
          "velocity": 0.8267716535433071
        },
        {
          "duration": 1.5,
          "durationTicks": 1800,
          "midi": 74,
          "name": "D5",
          "ticks": 395520,
          "time": 329.6,
          "velocity": 0.8267716535433071
        },
        {
          "duration": 0.3333333333333144,
          "durationTicks": 400,
          "midi": 67,
          "name": "G4",
          "ticks": 397440,
          "time": 331.20000000000005,
          "velocity": 0.8267716535433071
        },
        {
          "duration": 0.3333333333333144,
          "durationTicks": 400,
          "midi": 74,
          "name": "D5",
          "ticks": 397440,
          "time": 331.20000000000005,
          "velocity": 0.8267716535433071
        },
        {
          "duration": 0.33333333333337123,
          "durationTicks": 400,
          "midi": 74,
          "name": "D5",
          "ticks": 398400,
          "time": 332,
          "velocity": 0.8267716535433071
        },
        {
          "duration": 0.6999999999999886,
          "durationTicks": 840,
          "midi": 67,
          "name": "G4",
          "ticks": 399360,
          "time": 332.8,
          "velocity": 0.8267716535433071
        },
        {
          "duration": 0.33333333333337123,
          "durationTicks": 400,
          "midi": 67,
          "name": "G4",
          "ticks": 400320,
          "time": 333.6,
          "velocity": 0.8267716535433071
        },
        {
          "duration": 0.33333333333337123,
          "durationTicks": 400,
          "midi": 67,
          "name": "G4",
          "ticks": 400800,
          "time": 334,
          "velocity": 0.8267716535433071
        },
        {
          "duration": 0.6999999999999886,
          "durationTicks": 840,
          "midi": 67,
          "name": "G4",
          "ticks": 401280,
          "time": 334.40000000000003,
          "velocity": 0.8267716535433071
        },
        {
          "duration": 0.3333333333333144,
          "durationTicks": 400,
          "midi": 67,
          "name": "G4",
          "ticks": 402240,
          "time": 335.20000000000005,
          "velocity": 0.8267716535433071
        },
        {
          "duration": 0.33333333333337123,
          "durationTicks": 400,
          "midi": 67,
          "name": "G4",
          "ticks": 402720,
          "time": 335.6,
          "velocity": 0.8267716535433071
        },
        {
          "duration": 0.7000000000000455,
          "durationTicks": 840,
          "midi": 67,
          "name": "G4",
          "ticks": 403200,
          "time": 336,
          "velocity": 0.8267716535433071
        },
        {
          "duration": 0.33333333333337123,
          "durationTicks": 400,
          "midi": 67,
          "name": "G4",
          "ticks": 404160,
          "time": 336.8,
          "velocity": 0.8267716535433071
        },
        {
          "duration": 0.3333333333333144,
          "durationTicks": 400,
          "midi": 67,
          "name": "G4",
          "ticks": 404640,
          "time": 337.20000000000005,
          "velocity": 0.8267716535433071
        },
        {
          "duration": 0.33333333333337123,
          "durationTicks": 400,
          "midi": 67,
          "name": "G4",
          "ticks": 405120,
          "time": 337.6,
          "velocity": 0.6771653543307087
        },
        {
          "duration": 0.3333333333333144,
          "durationTicks": 400,
          "midi": 67,
          "name": "G4",
          "ticks": 406080,
          "time": 338.40000000000003,
          "velocity": 0.6771653543307087
        },
        {
          "duration": 0.6999999999999886,
          "durationTicks": 840,
          "midi": 72,
          "name": "C5",
          "ticks": 407040,
          "time": 339.20000000000005,
          "velocity": 0.6771653543307087
        },
        {
          "duration": 0.6999999999999886,
          "durationTicks": 840,
          "midi": 76,
          "name": "E5",
          "ticks": 407040,
          "time": 339.20000000000005,
          "velocity": 0.6771653543307087
        },
        {
          "duration": 0.7000000000000455,
          "durationTicks": 840,
          "midi": 74,
          "name": "D5",
          "ticks": 408000,
          "time": 340,
          "velocity": 0.6771653543307087
        },
        {
          "duration": 0.6999999999999886,
          "durationTicks": 840,
          "midi": 67,
          "name": "G4",
          "ticks": 408960,
          "time": 340.8,
          "velocity": 0.6771653543307087
        },
        {
          "duration": 0.33333333333337123,
          "durationTicks": 400,
          "midi": 67,
          "name": "G4",
          "ticks": 409920,
          "time": 341.6,
          "velocity": 0.6771653543307087
        },
        {
          "duration": 0.33333333333337123,
          "durationTicks": 400,
          "midi": 67,
          "name": "G4",
          "ticks": 410400,
          "time": 342,
          "velocity": 0.6771653543307087
        },
        {
          "duration": 0.6999999999999886,
          "durationTicks": 840,
          "midi": 67,
          "name": "G4",
          "ticks": 410880,
          "time": 342.40000000000003,
          "velocity": 0.6771653543307087
        },
        {
          "duration": 0.3333333333333144,
          "durationTicks": 400,
          "midi": 67,
          "name": "G4",
          "ticks": 411840,
          "time": 343.20000000000005,
          "velocity": 0.6771653543307087
        },
        {
          "duration": 0.33333333333337123,
          "durationTicks": 400,
          "midi": 67,
          "name": "G4",
          "ticks": 412320,
          "time": 343.6,
          "velocity": 0.6771653543307087
        },
        {
          "duration": 0.7000000000000455,
          "durationTicks": 840,
          "midi": 67,
          "name": "G4",
          "ticks": 412800,
          "time": 344,
          "velocity": 0.6771653543307087
        },
        {
          "duration": 0.33333333333337123,
          "durationTicks": 400,
          "midi": 67,
          "name": "G4",
          "ticks": 413760,
          "time": 344.8,
          "velocity": 0.6771653543307087
        },
        {
          "duration": 0.3333333333333144,
          "durationTicks": 400,
          "midi": 67,
          "name": "G4",
          "ticks": 414240,
          "time": 345.20000000000005,
          "velocity": 0.6771653543307087
        },
        {
          "duration": 0.33333333333337123,
          "durationTicks": 400,
          "midi": 67,
          "name": "G4",
          "ticks": 414720,
          "time": 345.6,
          "velocity": 0.6771653543307087
        },
        {
          "duration": 0.33333333333337123,
          "durationTicks": 400,
          "midi": 74,
          "name": "D5",
          "ticks": 415200,
          "time": 346,
          "velocity": 0.6771653543307087
        },
        {
          "duration": 0.33333333333337123,
          "durationTicks": 400,
          "midi": 77,
          "name": "F5",
          "ticks": 415200,
          "time": 346,
          "velocity": 0.6771653543307087
        },
        {
          "duration": 0.3333333333333144,
          "durationTicks": 400,
          "midi": 72,
          "name": "C5",
          "ticks": 415680,
          "time": 346.40000000000003,
          "velocity": 0.6771653543307087
        },
        {
          "duration": 0.3333333333333144,
          "durationTicks": 400,
          "midi": 76,
          "name": "E5",
          "ticks": 415680,
          "time": 346.40000000000003,
          "velocity": 0.6771653543307087
        },
        {
          "duration": 0.33333333333337123,
          "durationTicks": 400,
          "midi": 64,
          "name": "E4",
          "ticks": 416160,
          "time": 346.8,
          "velocity": 0.6771653543307087
        },
        {
          "duration": 0.33333333333337123,
          "durationTicks": 400,
          "midi": 76,
          "name": "E5",
          "ticks": 416160,
          "time": 346.8,
          "velocity": 0.6771653543307087
        },
        {
          "duration": 0.3333333333333144,
          "durationTicks": 400,
          "midi": 64,
          "name": "E4",
          "ticks": 416640,
          "time": 347.20000000000005,
          "velocity": 0.6771653543307087
        },
        {
          "duration": 0.3333333333333144,
          "durationTicks": 400,
          "midi": 76,
          "name": "E5",
          "ticks": 416640,
          "time": 347.20000000000005,
          "velocity": 0.6771653543307087
        },
        {
          "duration": 0.33333333333337123,
          "durationTicks": 400,
          "midi": 60,
          "name": "C4",
          "ticks": 417120,
          "time": 347.6,
          "velocity": 0.6771653543307087
        },
        {
          "duration": 0.33333333333337123,
          "durationTicks": 400,
          "midi": 72,
          "name": "C5",
          "ticks": 417120,
          "time": 347.6,
          "velocity": 0.6771653543307087
        },
        {
          "duration": 0.33333333333337123,
          "durationTicks": 400,
          "midi": 60,
          "name": "C4",
          "ticks": 417600,
          "time": 348,
          "velocity": 0.6771653543307087
        },
        {
          "duration": 0.33333333333337123,
          "durationTicks": 400,
          "midi": 72,
          "name": "C5",
          "ticks": 417600,
          "time": 348,
          "velocity": 0.6771653543307087
        },
        {
          "duration": 0.3333333333333144,
          "durationTicks": 400,
          "midi": 60,
          "name": "C4",
          "ticks": 418080,
          "time": 348.40000000000003,
          "velocity": 0.6771653543307087
        },
        {
          "duration": 0.3333333333333144,
          "durationTicks": 400,
          "midi": 72,
          "name": "C5",
          "ticks": 418080,
          "time": 348.40000000000003,
          "velocity": 0.6771653543307087
        },
        {
          "duration": 0.33333333333337123,
          "durationTicks": 400,
          "midi": 60,
          "name": "C4",
          "ticks": 418560,
          "time": 348.8,
          "velocity": 0.6771653543307087
        },
        {
          "duration": 0.33333333333337123,
          "durationTicks": 400,
          "midi": 72,
          "name": "C5",
          "ticks": 418560,
          "time": 348.8,
          "velocity": 0.6771653543307087
        },
        {
          "duration": 0.6999999999999886,
          "durationTicks": 840,
          "midi": 74,
          "name": "D5",
          "ticks": 442080,
          "time": 368.40000000000003,
          "velocity": 0.8267716535433071
        },
        {
          "duration": 0.3333333333333144,
          "durationTicks": 400,
          "midi": 74,
          "name": "D5",
          "ticks": 443040,
          "time": 369.20000000000005,
          "velocity": 0.8267716535433071
        },
        {
          "duration": 0.19666666666665833,
          "durationTicks": 236,
          "midi": 74,
          "name": "D5",
          "ticks": 443520,
          "time": 369.6,
          "velocity": 0.8267716535433071
        },
        {
          "duration": 0.7000000000000455,
          "durationTicks": 840,
          "midi": 74,
          "name": "D5",
          "ticks": 444000,
          "time": 370,
          "velocity": 0.8267716535433071
        },
        {
          "duration": 0.33333333333337123,
          "durationTicks": 400,
          "midi": 74,
          "name": "D5",
          "ticks": 444960,
          "time": 370.8,
          "velocity": 0.8267716535433071
        },
        {
          "duration": 0.19666666666665833,
          "durationTicks": 236,
          "midi": 67,
          "name": "G4",
          "ticks": 445440,
          "time": 371.20000000000005,
          "velocity": 0.8267716535433071
        },
        {
          "duration": 0.19666666666665833,
          "durationTicks": 236,
          "midi": 74,
          "name": "D5",
          "ticks": 445440,
          "time": 371.20000000000005,
          "velocity": 0.8267716535433071
        },
        {
          "duration": 0.19666666666665833,
          "durationTicks": 236,
          "midi": 67,
          "name": "G4",
          "ticks": 445920,
          "time": 371.6,
          "velocity": 0.8267716535433071
        },
        {
          "duration": 0.19666666666665833,
          "durationTicks": 236,
          "midi": 76,
          "name": "E5",
          "ticks": 445920,
          "time": 371.6,
          "velocity": 0.8267716535433071
        },
        {
          "duration": 0.19666666666671517,
          "durationTicks": 236,
          "midi": 72,
          "name": "C5",
          "ticks": 446400,
          "time": 372,
          "velocity": 0.8267716535433071
        },
        {
          "duration": 0.19666666666671517,
          "durationTicks": 236,
          "midi": 76,
          "name": "E5",
          "ticks": 446400,
          "time": 372,
          "velocity": 0.8267716535433071
        },
        {
          "duration": 0.19666666666665833,
          "durationTicks": 236,
          "midi": 74,
          "name": "D5",
          "ticks": 446880,
          "time": 372.40000000000003,
          "velocity": 0.8267716535433071
        },
        {
          "duration": 0.19666666666665833,
          "durationTicks": 236,
          "midi": 67,
          "name": "G4",
          "ticks": 447360,
          "time": 372.8,
          "velocity": 0.8267716535433071
        },
        {
          "duration": 0.19666666666665833,
          "durationTicks": 236,
          "midi": 74,
          "name": "D5",
          "ticks": 447360,
          "time": 372.8,
          "velocity": 0.8267716535433071
        },
        {
          "duration": 0.6999999999999886,
          "durationTicks": 840,
          "midi": 74,
          "name": "D5",
          "ticks": 447840,
          "time": 373.20000000000005,
          "velocity": 0.8267716535433071
        },
        {
          "duration": 0.33333333333337123,
          "durationTicks": 400,
          "midi": 74,
          "name": "D5",
          "ticks": 448800,
          "time": 374,
          "velocity": 0.8267716535433071
        },
        {
          "duration": 0.19666666666665833,
          "durationTicks": 236,
          "midi": 74,
          "name": "D5",
          "ticks": 449280,
          "time": 374.40000000000003,
          "velocity": 0.8267716535433071
        },
        {
          "duration": 0.6999999999999886,
          "durationTicks": 840,
          "midi": 74,
          "name": "D5",
          "ticks": 449760,
          "time": 374.8,
          "velocity": 0.8267716535433071
        },
        {
          "duration": 0.33333333333337123,
          "durationTicks": 400,
          "midi": 74,
          "name": "D5",
          "ticks": 450720,
          "time": 375.6,
          "velocity": 0.8267716535433071
        },
        {
          "duration": 0.19666666666671517,
          "durationTicks": 236,
          "midi": 67,
          "name": "G4",
          "ticks": 451200,
          "time": 376,
          "velocity": 0.8267716535433071
        },
        {
          "duration": 0.19666666666671517,
          "durationTicks": 236,
          "midi": 74,
          "name": "D5",
          "ticks": 451200,
          "time": 376,
          "velocity": 0.8267716535433071
        },
        {
          "duration": 0.19666666666665833,
          "durationTicks": 236,
          "midi": 67,
          "name": "G4",
          "ticks": 451680,
          "time": 376.40000000000003,
          "velocity": 0.8267716535433071
        },
        {
          "duration": 0.19666666666665833,
          "durationTicks": 236,
          "midi": 76,
          "name": "E5",
          "ticks": 451680,
          "time": 376.40000000000003,
          "velocity": 0.8267716535433071
        },
        {
          "duration": 0.19666666666665833,
          "durationTicks": 236,
          "midi": 72,
          "name": "C5",
          "ticks": 452160,
          "time": 376.8,
          "velocity": 0.8267716535433071
        },
        {
          "duration": 0.19666666666665833,
          "durationTicks": 236,
          "midi": 76,
          "name": "E5",
          "ticks": 452160,
          "time": 376.8,
          "velocity": 0.8267716535433071
        },
        {
          "duration": 0.19666666666665833,
          "durationTicks": 236,
          "midi": 74,
          "name": "D5",
          "ticks": 452640,
          "time": 377.20000000000005,
          "velocity": 0.8267716535433071
        },
        {
          "duration": 0.33333333333337123,
          "durationTicks": 400,
          "midi": 67,
          "name": "G4",
          "ticks": 453120,
          "time": 377.6,
          "velocity": 0.8267716535433071
        },
        {
          "duration": 0.33333333333337123,
          "durationTicks": 400,
          "midi": 74,
          "name": "D5",
          "ticks": 453120,
          "time": 377.6,
          "velocity": 0.8267716535433071
        },
        {
          "duration": 0.3333333333333144,
          "durationTicks": 400,
          "midi": 74,
          "name": "D5",
          "ticks": 454080,
          "time": 378.40000000000003,
          "velocity": 0.8267716535433071
        },
        {
          "duration": 0.3333333333333144,
          "durationTicks": 400,
          "midi": 67,
          "name": "G4",
          "ticks": 455040,
          "time": 379.20000000000005,
          "velocity": 0.8267716535433071
        },
        {
          "duration": 0.3333333333333144,
          "durationTicks": 400,
          "midi": 74,
          "name": "D5",
          "ticks": 455040,
          "time": 379.20000000000005,
          "velocity": 0.8267716535433071
        },
        {
          "duration": 0.33333333333337123,
          "durationTicks": 400,
          "midi": 74,
          "name": "D5",
          "ticks": 456000,
          "time": 380,
          "velocity": 0.8267716535433071
        },
        {
          "duration": 0.33333333333337123,
          "durationTicks": 400,
          "midi": 67,
          "name": "G4",
          "ticks": 456960,
          "time": 380.8,
          "velocity": 0.8267716535433071
        },
        {
          "duration": 0.33333333333337123,
          "durationTicks": 400,
          "midi": 74,
          "name": "D5",
          "ticks": 456960,
          "time": 380.8,
          "velocity": 0.8267716535433071
        },
        {
          "duration": 0.33333333333337123,
          "durationTicks": 400,
          "midi": 74,
          "name": "D5",
          "ticks": 457920,
          "time": 381.6,
          "velocity": 0.8267716535433071
        },
        {
          "duration": 0.3333333333333144,
          "durationTicks": 400,
          "midi": 67,
          "name": "G4",
          "ticks": 458880,
          "time": 382.40000000000003,
          "velocity": 0.8267716535433071
        },
        {
          "duration": 0.3333333333333144,
          "durationTicks": 400,
          "midi": 74,
          "name": "D5",
          "ticks": 458880,
          "time": 382.40000000000003,
          "velocity": 0.8267716535433071
        },
        {
          "duration": 0.33333333333337123,
          "durationTicks": 400,
          "midi": 55,
          "name": "G3",
          "ticks": 459360,
          "time": 382.8,
          "velocity": 0.8267716535433071
        },
        {
          "duration": 0.33333333333337123,
          "durationTicks": 400,
          "midi": 67,
          "name": "G4",
          "ticks": 459360,
          "time": 382.8,
          "velocity": 0.8267716535433071
        },
        {
          "duration": 0.3333333333333144,
          "durationTicks": 400,
          "midi": 55,
          "name": "G3",
          "ticks": 459840,
          "time": 383.20000000000005,
          "velocity": 0.8267716535433071
        },
        {
          "duration": 0.3333333333333144,
          "durationTicks": 400,
          "midi": 67,
          "name": "G4",
          "ticks": 459840,
          "time": 383.20000000000005,
          "velocity": 0.8267716535433071
        },
        {
          "duration": 2.6999999999999886,
          "durationTicks": 3240,
          "midi": 60,
          "name": "C4",
          "ticks": 541440,
          "time": 451.20000000000005,
          "velocity": 0.4015748031496063
        },
        {
          "duration": 2.6999999999999886,
          "durationTicks": 3240,
          "midi": 72,
          "name": "C5",
          "ticks": 541440,
          "time": 451.20000000000005,
          "velocity": 0.4015748031496063
        },
        {
          "duration": 0.3333333333333144,
          "durationTicks": 400,
          "midi": 60,
          "name": "C4",
          "ticks": 556800,
          "time": 464,
          "velocity": 0.8267716535433071
        },
        {
          "duration": 0.3333333333333144,
          "durationTicks": 400,
          "midi": 64,
          "name": "E4",
          "ticks": 556800,
          "time": 464,
          "velocity": 0.8267716535433071
        },
        {
          "duration": 0.33333333333325754,
          "durationTicks": 400,
          "midi": 64,
          "name": "E4",
          "ticks": 560640,
          "time": 467.20000000000005,
          "velocity": 0.8267716535433071
        },
        {
          "duration": 0.33333333333325754,
          "durationTicks": 400,
          "midi": 76,
          "name": "E5",
          "ticks": 560640,
          "time": 467.20000000000005,
          "velocity": 0.8267716535433071
        },
        {
          "duration": 0.3333333333333144,
          "durationTicks": 400,
          "midi": 74,
          "name": "D5",
          "ticks": 564480,
          "time": 470.40000000000003,
          "velocity": 0.8267716535433071
        },
        {
          "duration": 0.3333333333333144,
          "durationTicks": 400,
          "midi": 67,
          "name": "G4",
          "ticks": 568320,
          "time": 473.6,
          "velocity": 0.8267716535433071
        },
        {
          "duration": 0.3333333333333144,
          "durationTicks": 400,
          "midi": 72,
          "name": "C5",
          "ticks": 568320,
          "time": 473.6,
          "velocity": 0.8267716535433071
        },
        {
          "duration": 0.33333333333325754,
          "durationTicks": 400,
          "midi": 60,
          "name": "C4",
          "ticks": 570240,
          "time": 475.20000000000005,
          "velocity": 0.8267716535433071
        },
        {
          "duration": 0.33333333333325754,
          "durationTicks": 400,
          "midi": 72,
          "name": "C5",
          "ticks": 570240,
          "time": 475.20000000000005,
          "velocity": 0.8267716535433071
        },
        {
          "duration": 0.3333333333333144,
          "durationTicks": 400,
          "midi": 67,
          "name": "G4",
          "ticks": 572160,
          "time": 476.8,
          "velocity": 0.8267716535433071
        },
        {
          "duration": 0.3333333333333144,
          "durationTicks": 400,
          "midi": 74,
          "name": "D5",
          "ticks": 572160,
          "time": 476.8,
          "velocity": 0.8267716535433071
        },
        {
          "duration": 0.3333333333333144,
          "durationTicks": 400,
          "midi": 74,
          "name": "D5",
          "ticks": 573120,
          "time": 477.6,
          "velocity": 0.8267716535433071
        },
        {
          "duration": 0.3333333333333144,
          "durationTicks": 400,
          "midi": 67,
          "name": "G4",
          "ticks": 574080,
          "time": 478.40000000000003,
          "velocity": 0.8267716535433071
        },
        {
          "duration": 0.3333333333333144,
          "durationTicks": 400,
          "midi": 74,
          "name": "D5",
          "ticks": 574080,
          "time": 478.40000000000003,
          "velocity": 0.8267716535433071
        },
        {
          "duration": 0.33333333333325754,
          "durationTicks": 400,
          "midi": 74,
          "name": "D5",
          "ticks": 575040,
          "time": 479.20000000000005,
          "velocity": 0.8267716535433071
        },
        {
          "duration": 0.3333333333333144,
          "durationTicks": 400,
          "midi": 67,
          "name": "G4",
          "ticks": 576000,
          "time": 480,
          "velocity": 0.8267716535433071
        },
        {
          "duration": 0.3333333333333144,
          "durationTicks": 400,
          "midi": 74,
          "name": "D5",
          "ticks": 576000,
          "time": 480,
          "velocity": 0.8267716535433071
        },
        {
          "duration": 9.5,
          "durationTicks": 11400,
          "midi": 55,
          "name": "G3",
          "ticks": 579840,
          "time": 483.20000000000005,
          "velocity": 0.4015748031496063
        },
        {
          "duration": 9.5,
          "durationTicks": 11400,
          "midi": 67,
          "name": "G4",
          "ticks": 579840,
          "time": 483.20000000000005,
          "velocity": 0.4015748031496063
        },
        {
          "duration": 0.3333333333333144,
          "durationTicks": 400,
          "midi": 60,
          "name": "C4",
          "ticks": 591360,
          "time": 492.8,
          "velocity": 0.8267716535433071
        },
        {
          "duration": 0.3333333333333144,
          "durationTicks": 400,
          "midi": 72,
          "name": "C5",
          "ticks": 591360,
          "time": 492.8,
          "velocity": 0.8267716535433071
        },
        {
          "duration": 0.3333333333333144,
          "durationTicks": 400,
          "midi": 60,
          "name": "C4",
          "ticks": 592320,
          "time": 493.6,
          "velocity": 0.8267716535433071
        },
        {
          "duration": 0.3333333333333144,
          "durationTicks": 400,
          "midi": 72,
          "name": "C5",
          "ticks": 592320,
          "time": 493.6,
          "velocity": 0.8267716535433071
        },
        {
          "duration": 0.3333333333333144,
          "durationTicks": 400,
          "midi": 60,
          "name": "C4",
          "ticks": 593280,
          "time": 494.40000000000003,
          "velocity": 0.8267716535433071
        },
        {
          "duration": 0.3333333333333144,
          "durationTicks": 400,
          "midi": 72,
          "name": "C5",
          "ticks": 593280,
          "time": 494.40000000000003,
          "velocity": 0.8267716535433071
        },
        {
          "duration": 0.33333333333325754,
          "durationTicks": 400,
          "midi": 67,
          "name": "G4",
          "ticks": 599040,
          "time": 499.20000000000005,
          "velocity": 0.8267716535433071
        },
        {
          "duration": 0.3333333333333144,
          "durationTicks": 400,
          "midi": 67,
          "name": "G4",
          "ticks": 600000,
          "time": 500,
          "velocity": 0.8267716535433071
        },
        {
          "duration": 0.3333333333333144,
          "durationTicks": 400,
          "midi": 67,
          "name": "G4",
          "ticks": 600960,
          "time": 500.8,
          "velocity": 0.8267716535433071
        },
        {
          "duration": 0.3333333333333144,
          "durationTicks": 400,
          "midi": 60,
          "name": "C4",
          "ticks": 606720,
          "time": 505.6,
          "velocity": 0.8267716535433071
        },
        {
          "duration": 0.3333333333333144,
          "durationTicks": 400,
          "midi": 72,
          "name": "C5",
          "ticks": 606720,
          "time": 505.6,
          "velocity": 0.8267716535433071
        },
        {
          "duration": 0.2966666666666242,
          "durationTicks": 356,
          "midi": 60,
          "name": "C4",
          "ticks": 607200,
          "time": 506,
          "velocity": 0.8267716535433071
        },
        {
          "duration": 0.2966666666666242,
          "durationTicks": 356,
          "midi": 72,
          "name": "C5",
          "ticks": 607200,
          "time": 506,
          "velocity": 0.8267716535433071
        },
        {
          "duration": 0.09666666666663559,
          "durationTicks": 116,
          "midi": 60,
          "name": "C4",
          "ticks": 607560,
          "time": 506.3,
          "velocity": 0.8267716535433071
        },
        {
          "duration": 0.09666666666663559,
          "durationTicks": 116,
          "midi": 72,
          "name": "C5",
          "ticks": 607560,
          "time": 506.3,
          "velocity": 0.8267716535433071
        },
        {
          "duration": 0.3333333333333144,
          "durationTicks": 400,
          "midi": 60,
          "name": "C4",
          "ticks": 607680,
          "time": 506.40000000000003,
          "velocity": 0.8267716535433071
        },
        {
          "duration": 0.3333333333333144,
          "durationTicks": 400,
          "midi": 72,
          "name": "C5",
          "ticks": 607680,
          "time": 506.40000000000003,
          "velocity": 0.8267716535433071
        },
        {
          "duration": 0.3333333333333144,
          "durationTicks": 400,
          "midi": 60,
          "name": "C4",
          "ticks": 608160,
          "time": 506.8,
          "velocity": 0.8267716535433071
        },
        {
          "duration": 0.3333333333333144,
          "durationTicks": 400,
          "midi": 72,
          "name": "C5",
          "ticks": 608160,
          "time": 506.8,
          "velocity": 0.8267716535433071
        },
        {
          "duration": 0.33333333333325754,
          "durationTicks": 400,
          "midi": 60,
          "name": "C4",
          "ticks": 608640,
          "time": 507.20000000000005,
          "velocity": 0.8267716535433071
        },
        {
          "duration": 0.33333333333325754,
          "durationTicks": 400,
          "midi": 72,
          "name": "C5",
          "ticks": 608640,
          "time": 507.20000000000005,
          "velocity": 0.8267716535433071
        },
        {
          "duration": 0.2966666666666242,
          "durationTicks": 356,
          "midi": 60,
          "name": "C4",
          "ticks": 609120,
          "time": 507.6,
          "velocity": 0.8267716535433071
        },
        {
          "duration": 0.2966666666666242,
          "durationTicks": 356,
          "midi": 72,
          "name": "C5",
          "ticks": 609120,
          "time": 507.6,
          "velocity": 0.8267716535433071
        },
        {
          "duration": 0.09666666666663559,
          "durationTicks": 116,
          "midi": 60,
          "name": "C4",
          "ticks": 609480,
          "time": 507.90000000000003,
          "velocity": 0.8267716535433071
        },
        {
          "duration": 0.09666666666663559,
          "durationTicks": 116,
          "midi": 72,
          "name": "C5",
          "ticks": 609480,
          "time": 507.90000000000003,
          "velocity": 0.8267716535433071
        },
        {
          "duration": 0.3333333333333144,
          "durationTicks": 400,
          "midi": 60,
          "name": "C4",
          "ticks": 609600,
          "time": 508,
          "velocity": 0.8267716535433071
        },
        {
          "duration": 0.3333333333333144,
          "durationTicks": 400,
          "midi": 72,
          "name": "C5",
          "ticks": 609600,
          "time": 508,
          "velocity": 0.8267716535433071
        },
        {
          "duration": 0.3333333333333144,
          "durationTicks": 400,
          "midi": 60,
          "name": "C4",
          "ticks": 610080,
          "time": 508.40000000000003,
          "velocity": 0.8267716535433071
        },
        {
          "duration": 0.3333333333333144,
          "durationTicks": 400,
          "midi": 72,
          "name": "C5",
          "ticks": 610080,
          "time": 508.40000000000003,
          "velocity": 0.8267716535433071
        },
        {
          "duration": 0.3333333333333144,
          "durationTicks": 400,
          "midi": 67,
          "name": "G4",
          "ticks": 610560,
          "time": 508.8,
          "velocity": 0.8267716535433071
        },
        {
          "duration": 0.3333333333333144,
          "durationTicks": 400,
          "midi": 74,
          "name": "D5",
          "ticks": 610560,
          "time": 508.8,
          "velocity": 0.8267716535433071
        },
        {
          "duration": 0.2966666666666242,
          "durationTicks": 356,
          "midi": 67,
          "name": "G4",
          "ticks": 611040,
          "time": 509.20000000000005,
          "velocity": 0.8267716535433071
        },
        {
          "duration": 0.2966666666666242,
          "durationTicks": 356,
          "midi": 74,
          "name": "D5",
          "ticks": 611040,
          "time": 509.20000000000005,
          "velocity": 0.8267716535433071
        },
        {
          "duration": 0.09666666666663559,
          "durationTicks": 116,
          "midi": 67,
          "name": "G4",
          "ticks": 611400,
          "time": 509.5,
          "velocity": 0.8267716535433071
        },
        {
          "duration": 0.09666666666663559,
          "durationTicks": 116,
          "midi": 74,
          "name": "D5",
          "ticks": 611400,
          "time": 509.5,
          "velocity": 0.8267716535433071
        },
        {
          "duration": 0.3333333333333144,
          "durationTicks": 400,
          "midi": 67,
          "name": "G4",
          "ticks": 611520,
          "time": 509.6,
          "velocity": 0.8267716535433071
        },
        {
          "duration": 0.3333333333333144,
          "durationTicks": 400,
          "midi": 74,
          "name": "D5",
          "ticks": 611520,
          "time": 509.6,
          "velocity": 0.8267716535433071
        },
        {
          "duration": 0.3333333333333144,
          "durationTicks": 400,
          "midi": 67,
          "name": "G4",
          "ticks": 612000,
          "time": 510,
          "velocity": 0.8267716535433071
        },
        {
          "duration": 0.3333333333333144,
          "durationTicks": 400,
          "midi": 74,
          "name": "D5",
          "ticks": 612000,
          "time": 510,
          "velocity": 0.8267716535433071
        },
        {
          "duration": 0.3333333333333144,
          "durationTicks": 400,
          "midi": 64,
          "name": "E4",
          "ticks": 612480,
          "time": 510.40000000000003,
          "velocity": 0.8267716535433071
        },
        {
          "duration": 0.3333333333333144,
          "durationTicks": 400,
          "midi": 67,
          "name": "G4",
          "ticks": 612480,
          "time": 510.40000000000003,
          "velocity": 0.8267716535433071
        },
        {
          "duration": 0.2966666666666242,
          "durationTicks": 356,
          "midi": 60,
          "name": "C4",
          "ticks": 612960,
          "time": 510.8,
          "velocity": 0.8267716535433071
        },
        {
          "duration": 0.2966666666666242,
          "durationTicks": 356,
          "midi": 72,
          "name": "C5",
          "ticks": 612960,
          "time": 510.8,
          "velocity": 0.8267716535433071
        },
        {
          "duration": 0.09666666666663559,
          "durationTicks": 116,
          "midi": 60,
          "name": "C4",
          "ticks": 613320,
          "time": 511.1,
          "velocity": 0.8267716535433071
        },
        {
          "duration": 0.09666666666663559,
          "durationTicks": 116,
          "midi": 72,
          "name": "C5",
          "ticks": 613320,
          "time": 511.1,
          "velocity": 0.8267716535433071
        },
        {
          "duration": 0.33333333333325754,
          "durationTicks": 400,
          "midi": 60,
          "name": "C4",
          "ticks": 613440,
          "time": 511.20000000000005,
          "velocity": 0.8267716535433071
        },
        {
          "duration": 0.33333333333325754,
          "durationTicks": 400,
          "midi": 72,
          "name": "C5",
          "ticks": 613440,
          "time": 511.20000000000005,
          "velocity": 0.8267716535433071
        },
        {
          "duration": 0.3333333333333144,
          "durationTicks": 400,
          "midi": 60,
          "name": "C4",
          "ticks": 613920,
          "time": 511.6,
          "velocity": 0.8267716535433071
        },
        {
          "duration": 0.3333333333333144,
          "durationTicks": 400,
          "midi": 72,
          "name": "C5",
          "ticks": 613920,
          "time": 511.6,
          "velocity": 0.8267716535433071
        },
        {
          "duration": 0.33333333333337123,
          "durationTicks": 400,
          "midi": 60,
          "name": "C4",
          "ticks": 614400,
          "time": 512,
          "velocity": 0.8267716535433071
        },
        {
          "duration": 0.33333333333337123,
          "durationTicks": 400,
          "midi": 72,
          "name": "C5",
          "ticks": 614400,
          "time": 512,
          "velocity": 0.8267716535433071
        },
        {
          "duration": 0.2966666666666242,
          "durationTicks": 356,
          "midi": 60,
          "name": "C4",
          "ticks": 614880,
          "time": 512.4,
          "velocity": 0.8267716535433071
        },
        {
          "duration": 0.2966666666666242,
          "durationTicks": 356,
          "midi": 72,
          "name": "C5",
          "ticks": 614880,
          "time": 512.4,
          "velocity": 0.8267716535433071
        },
        {
          "duration": 0.09666666666657875,
          "durationTicks": 116,
          "midi": 60,
          "name": "C4",
          "ticks": 615240,
          "time": 512.7,
          "velocity": 0.8267716535433071
        },
        {
          "duration": 0.09666666666657875,
          "durationTicks": 116,
          "midi": 72,
          "name": "C5",
          "ticks": 615240,
          "time": 512.7,
          "velocity": 0.8267716535433071
        },
        {
          "duration": 0.33333333333325754,
          "durationTicks": 400,
          "midi": 60,
          "name": "C4",
          "ticks": 615360,
          "time": 512.8000000000001,
          "velocity": 0.8267716535433071
        },
        {
          "duration": 0.33333333333325754,
          "durationTicks": 400,
          "midi": 72,
          "name": "C5",
          "ticks": 615360,
          "time": 512.8000000000001,
          "velocity": 0.8267716535433071
        },
        {
          "duration": 0.33333333333325754,
          "durationTicks": 400,
          "midi": 60,
          "name": "C4",
          "ticks": 615840,
          "time": 513.2,
          "velocity": 0.8267716535433071
        },
        {
          "duration": 0.33333333333325754,
          "durationTicks": 400,
          "midi": 72,
          "name": "C5",
          "ticks": 615840,
          "time": 513.2,
          "velocity": 0.8267716535433071
        },
        {
          "duration": 0.33333333333325754,
          "durationTicks": 400,
          "midi": 67,
          "name": "G4",
          "ticks": 616320,
          "time": 513.6,
          "velocity": 0.8267716535433071
        },
        {
          "duration": 0.33333333333325754,
          "durationTicks": 400,
          "midi": 74,
          "name": "D5",
          "ticks": 616320,
          "time": 513.6,
          "velocity": 0.8267716535433071
        },
        {
          "duration": 0.2966666666666242,
          "durationTicks": 356,
          "midi": 67,
          "name": "G4",
          "ticks": 616800,
          "time": 514,
          "velocity": 0.8267716535433071
        },
        {
          "duration": 0.2966666666666242,
          "durationTicks": 356,
          "midi": 74,
          "name": "D5",
          "ticks": 616800,
          "time": 514,
          "velocity": 0.8267716535433071
        },
        {
          "duration": 0.09666666666657875,
          "durationTicks": 116,
          "midi": 67,
          "name": "G4",
          "ticks": 617160,
          "time": 514.3000000000001,
          "velocity": 0.8267716535433071
        },
        {
          "duration": 0.09666666666657875,
          "durationTicks": 116,
          "midi": 74,
          "name": "D5",
          "ticks": 617160,
          "time": 514.3000000000001,
          "velocity": 0.8267716535433071
        },
        {
          "duration": 0.33333333333337123,
          "durationTicks": 400,
          "midi": 67,
          "name": "G4",
          "ticks": 617280,
          "time": 514.4,
          "velocity": 0.8267716535433071
        },
        {
          "duration": 0.33333333333337123,
          "durationTicks": 400,
          "midi": 74,
          "name": "D5",
          "ticks": 617280,
          "time": 514.4,
          "velocity": 0.8267716535433071
        },
        {
          "duration": 0.33333333333325754,
          "durationTicks": 400,
          "midi": 67,
          "name": "G4",
          "ticks": 617760,
          "time": 514.8000000000001,
          "velocity": 0.8267716535433071
        },
        {
          "duration": 0.33333333333325754,
          "durationTicks": 400,
          "midi": 74,
          "name": "D5",
          "ticks": 617760,
          "time": 514.8000000000001,
          "velocity": 0.8267716535433071
        },
        {
          "duration": 0.33333333333325754,
          "durationTicks": 400,
          "midi": 64,
          "name": "E4",
          "ticks": 618240,
          "time": 515.2,
          "velocity": 0.8267716535433071
        },
        {
          "duration": 0.33333333333325754,
          "durationTicks": 400,
          "midi": 67,
          "name": "G4",
          "ticks": 618240,
          "time": 515.2,
          "velocity": 0.8267716535433071
        },
        {
          "duration": 0.33333333333325754,
          "durationTicks": 400,
          "midi": 64,
          "name": "E4",
          "ticks": 618720,
          "time": 515.6,
          "velocity": 0.8267716535433071
        },
        {
          "duration": 0.33333333333325754,
          "durationTicks": 400,
          "midi": 72,
          "name": "C5",
          "ticks": 618720,
          "time": 515.6,
          "velocity": 0.8267716535433071
        },
        {
          "duration": 0.33333333333337123,
          "durationTicks": 400,
          "midi": 67,
          "name": "G4",
          "ticks": 619680,
          "time": 516.4,
          "velocity": 0.8267716535433071
        },
        {
          "duration": 0.33333333333337123,
          "durationTicks": 400,
          "midi": 74,
          "name": "D5",
          "ticks": 619680,
          "time": 516.4,
          "velocity": 0.8267716535433071
        },
        {
          "duration": 0.33333333333325754,
          "durationTicks": 400,
          "midi": 72,
          "name": "C5",
          "ticks": 620640,
          "time": 517.2,
          "velocity": 0.8267716535433071
        },
        {
          "duration": 0.33333333333325754,
          "durationTicks": 400,
          "midi": 76,
          "name": "E5",
          "ticks": 620640,
          "time": 517.2,
          "velocity": 0.8267716535433071
        },
        {
          "duration": 0.33333333333337123,
          "durationTicks": 400,
          "midi": 67,
          "name": "G4",
          "ticks": 621600,
          "time": 518,
          "velocity": 0.8267716535433071
        },
        {
          "duration": 0.33333333333337123,
          "durationTicks": 400,
          "midi": 74,
          "name": "D5",
          "ticks": 621600,
          "time": 518,
          "velocity": 0.8267716535433071
        },
        {
          "duration": 0.33333333333337123,
          "durationTicks": 400,
          "midi": 72,
          "name": "C5",
          "ticks": 622080,
          "time": 518.4,
          "velocity": 0.8267716535433071
        },
        {
          "duration": 0.33333333333337123,
          "durationTicks": 400,
          "midi": 76,
          "name": "E5",
          "ticks": 622080,
          "time": 518.4,
          "velocity": 0.8267716535433071
        },
        {
          "duration": 0.1966666666666015,
          "durationTicks": 236,
          "midi": 67,
          "name": "G4",
          "ticks": 622560,
          "time": 518.8000000000001,
          "velocity": 0.8267716535433071
        },
        {
          "duration": 0.1966666666666015,
          "durationTicks": 236,
          "midi": 67,
          "name": "G4",
          "ticks": 622800,
          "time": 519,
          "velocity": 0.8267716535433071
        },
        {
          "duration": 0.1966666666666015,
          "durationTicks": 236,
          "midi": 72,
          "name": "C5",
          "ticks": 623040,
          "time": 519.2,
          "velocity": 0.8267716535433071
        },
        {
          "duration": 0.19666666666671517,
          "durationTicks": 236,
          "midi": 72,
          "name": "C5",
          "ticks": 623280,
          "time": 519.4,
          "velocity": 0.8267716535433071
        },
        {
          "duration": 0.1966666666666015,
          "durationTicks": 236,
          "midi": 67,
          "name": "G4",
          "ticks": 623520,
          "time": 519.6,
          "velocity": 0.8267716535433071
        },
        {
          "duration": 0.1966666666666015,
          "durationTicks": 236,
          "midi": 67,
          "name": "G4",
          "ticks": 623760,
          "time": 519.8000000000001,
          "velocity": 0.8267716535433071
        },
        {
          "duration": 0.1966666666666015,
          "durationTicks": 236,
          "midi": 72,
          "name": "C5",
          "ticks": 624000,
          "time": 520,
          "velocity": 0.8267716535433071
        },
        {
          "duration": 0.1966666666666015,
          "durationTicks": 236,
          "midi": 72,
          "name": "C5",
          "ticks": 624240,
          "time": 520.2,
          "velocity": 0.8267716535433071
        },
        {
          "duration": 0.19666666666671517,
          "durationTicks": 236,
          "midi": 67,
          "name": "G4",
          "ticks": 624480,
          "time": 520.4,
          "velocity": 0.8267716535433071
        },
        {
          "duration": 0.1966666666666015,
          "durationTicks": 236,
          "midi": 67,
          "name": "G4",
          "ticks": 624720,
          "time": 520.6,
          "velocity": 0.8267716535433071
        },
        {
          "duration": 0.1966666666666015,
          "durationTicks": 236,
          "midi": 64,
          "name": "E4",
          "ticks": 624960,
          "time": 520.8000000000001,
          "velocity": 0.8267716535433071
        },
        {
          "duration": 0.1966666666666015,
          "durationTicks": 236,
          "midi": 64,
          "name": "E4",
          "ticks": 625200,
          "time": 521,
          "velocity": 0.8267716535433071
        },
        {
          "duration": 0.1966666666666015,
          "durationTicks": 236,
          "midi": 60,
          "name": "C4",
          "ticks": 625440,
          "time": 521.2,
          "velocity": 0.8267716535433071
        },
        {
          "duration": 0.19666666666671517,
          "durationTicks": 236,
          "midi": 60,
          "name": "C4",
          "ticks": 625680,
          "time": 521.4,
          "velocity": 0.8267716535433071
        },
        {
          "duration": 0.33333333333325754,
          "durationTicks": 400,
          "midi": 67,
          "name": "G4",
          "ticks": 625920,
          "time": 521.6,
          "velocity": 0.8267716535433071
        },
        {
          "duration": 0.33333333333337123,
          "durationTicks": 400,
          "midi": 67,
          "name": "G4",
          "ticks": 626400,
          "time": 522,
          "velocity": 0.8267716535433071
        },
        {
          "duration": 0.33333333333337123,
          "durationTicks": 400,
          "midi": 79,
          "name": "G5",
          "ticks": 626400,
          "time": 522,
          "velocity": 0.8267716535433071
        },
        {
          "duration": 0.33333333333325754,
          "durationTicks": 400,
          "midi": 67,
          "name": "G4",
          "ticks": 627360,
          "time": 522.8000000000001,
          "velocity": 0.8267716535433071
        },
        {
          "duration": 0.33333333333325754,
          "durationTicks": 400,
          "midi": 79,
          "name": "G5",
          "ticks": 627360,
          "time": 522.8000000000001,
          "velocity": 0.8267716535433071
        },
        {
          "duration": 0.33333333333325754,
          "durationTicks": 400,
          "midi": 67,
          "name": "G4",
          "ticks": 628320,
          "time": 523.6,
          "velocity": 0.8267716535433071
        },
        {
          "duration": 0.33333333333325754,
          "durationTicks": 400,
          "midi": 79,
          "name": "G5",
          "ticks": 628320,
          "time": 523.6,
          "velocity": 0.8267716535433071
        },
        {
          "duration": 0.33333333333337123,
          "durationTicks": 400,
          "midi": 67,
          "name": "G4",
          "ticks": 629280,
          "time": 524.4,
          "velocity": 0.8267716535433071
        },
        {
          "duration": 0.33333333333337123,
          "durationTicks": 400,
          "midi": 79,
          "name": "G5",
          "ticks": 629280,
          "time": 524.4,
          "velocity": 0.8267716535433071
        },
        {
          "duration": 0.1966666666666015,
          "durationTicks": 236,
          "midi": 67,
          "name": "G4",
          "ticks": 629760,
          "time": 524.8000000000001,
          "velocity": 0.8267716535433071
        },
        {
          "duration": 0.1966666666666015,
          "durationTicks": 236,
          "midi": 74,
          "name": "D5",
          "ticks": 629760,
          "time": 524.8000000000001,
          "velocity": 0.8267716535433071
        },
        {
          "duration": 0.1966666666666015,
          "durationTicks": 236,
          "midi": 72,
          "name": "C5",
          "ticks": 630000,
          "time": 525,
          "velocity": 0.8346456692913385
        },
        {
          "duration": 0.1966666666666015,
          "durationTicks": 236,
          "midi": 76,
          "name": "E5",
          "ticks": 630000,
          "time": 525,
          "velocity": 0.8346456692913385
        },
        {
          "duration": 0.1966666666666015,
          "durationTicks": 236,
          "midi": 67,
          "name": "G4",
          "ticks": 630240,
          "time": 525.2,
          "velocity": 0.8503937007874016
        },
        {
          "duration": 0.1966666666666015,
          "durationTicks": 236,
          "midi": 74,
          "name": "D5",
          "ticks": 630240,
          "time": 525.2,
          "velocity": 0.8503937007874016
        },
        {
          "duration": 0.19666666666671517,
          "durationTicks": 236,
          "midi": 72,
          "name": "C5",
          "ticks": 630480,
          "time": 525.4,
          "velocity": 0.8582677165354331
        },
        {
          "duration": 0.19666666666671517,
          "durationTicks": 236,
          "midi": 76,
          "name": "E5",
          "ticks": 630480,
          "time": 525.4,
          "velocity": 0.8582677165354331
        },
        {
          "duration": 0.1966666666666015,
          "durationTicks": 236,
          "midi": 67,
          "name": "G4",
          "ticks": 630720,
          "time": 525.6,
          "velocity": 0.8661417322834646
        },
        {
          "duration": 0.1966666666666015,
          "durationTicks": 236,
          "midi": 74,
          "name": "D5",
          "ticks": 630720,
          "time": 525.6,
          "velocity": 0.8661417322834646
        },
        {
          "duration": 0.1966666666666015,
          "durationTicks": 236,
          "midi": 72,
          "name": "C5",
          "ticks": 630960,
          "time": 525.8000000000001,
          "velocity": 0.8740157480314961
        },
        {
          "duration": 0.1966666666666015,
          "durationTicks": 236,
          "midi": 76,
          "name": "E5",
          "ticks": 630960,
          "time": 525.8000000000001,
          "velocity": 0.8740157480314961
        },
        {
          "duration": 0.1966666666666015,
          "durationTicks": 236,
          "midi": 67,
          "name": "G4",
          "ticks": 631200,
          "time": 526,
          "velocity": 0.8818897637795275
        },
        {
          "duration": 0.1966666666666015,
          "durationTicks": 236,
          "midi": 74,
          "name": "D5",
          "ticks": 631200,
          "time": 526,
          "velocity": 0.8818897637795275
        },
        {
          "duration": 0.1966666666666015,
          "durationTicks": 236,
          "midi": 72,
          "name": "C5",
          "ticks": 631440,
          "time": 526.2,
          "velocity": 0.889763779527559
        },
        {
          "duration": 0.1966666666666015,
          "durationTicks": 236,
          "midi": 76,
          "name": "E5",
          "ticks": 631440,
          "time": 526.2,
          "velocity": 0.889763779527559
        },
        {
          "duration": 0.33333333333337123,
          "durationTicks": 400,
          "midi": 67,
          "name": "G4",
          "ticks": 631680,
          "time": 526.4,
          "velocity": 0.905511811023622
        },
        {
          "duration": 0.33333333333337123,
          "durationTicks": 400,
          "midi": 74,
          "name": "D5",
          "ticks": 631680,
          "time": 526.4,
          "velocity": 0.905511811023622
        },
        {
          "duration": 0.33333333333325754,
          "durationTicks": 400,
          "midi": 55,
          "name": "G3",
          "ticks": 632640,
          "time": 527.2,
          "velocity": 0.937007874015748
        },
        {
          "duration": 0.33333333333325754,
          "durationTicks": 400,
          "midi": 67,
          "name": "G4",
          "ticks": 632640,
          "time": 527.2,
          "velocity": 0.937007874015748
        },
        {
          "duration": 0.33333333333325754,
          "durationTicks": 400,
          "midi": 55,
          "name": "G3",
          "ticks": 633120,
          "time": 527.6,
          "velocity": 0.952755905511811
        },
        {
          "duration": 0.33333333333325754,
          "durationTicks": 400,
          "midi": 67,
          "name": "G4",
          "ticks": 633120,
          "time": 527.6,
          "velocity": 0.952755905511811
        },
        {
          "duration": 1.5,
          "durationTicks": 1800,
          "midi": 55,
          "name": "G3",
          "ticks": 633600,
          "time": 528,
          "velocity": 0.9763779527559056
        },
        {
          "duration": 1.5,
          "durationTicks": 1800,
          "midi": 67,
          "name": "G4",
          "ticks": 633600,
          "time": 528,
          "velocity": 0.9763779527559056
        },
        {
          "duration": 1.9333333333332803,
          "durationTicks": 2320,
          "midi": 60,
          "name": "C4",
          "ticks": 647040,
          "time": 539.2,
          "velocity": 0.4015748031496063
        },
        {
          "duration": 1.9333333333332803,
          "durationTicks": 2320,
          "midi": 72,
          "name": "C5",
          "ticks": 647040,
          "time": 539.2,
          "velocity": 0.4015748031496063
        },
        {
          "duration": 0.33333333333337123,
          "durationTicks": 400,
          "midi": 67,
          "name": "G4",
          "ticks": 660480,
          "time": 550.4,
          "velocity": 0.8267716535433071
        },
        {
          "duration": 0.33333333333325754,
          "durationTicks": 400,
          "midi": 67,
          "name": "G4",
          "ticks": 661440,
          "time": 551.2,
          "velocity": 0.8267716535433071
        },
        {
          "duration": 0.33333333333337123,
          "durationTicks": 400,
          "midi": 67,
          "name": "G4",
          "ticks": 662400,
          "time": 552,
          "velocity": 0.8267716535433071
        },
        {
          "duration": 1.9333333333332803,
          "durationTicks": 2320,
          "midi": 67,
          "name": "G4",
          "ticks": 664320,
          "time": 553.6,
          "velocity": 0.8267716535433071
        },
        {
          "duration": 0.2966666666666242,
          "durationTicks": 356,
          "midi": 67,
          "name": "G4",
          "ticks": 666720,
          "time": 555.6,
          "velocity": 0.8267716535433071
        },
        {
          "duration": 0.09666666666669244,
          "durationTicks": 116,
          "midi": 67,
          "name": "G4",
          "ticks": 667080,
          "time": 555.9,
          "velocity": 0.8267716535433071
        },
        {
          "duration": 0.33333333333337123,
          "durationTicks": 400,
          "midi": 67,
          "name": "G4",
          "ticks": 667200,
          "time": 556,
          "velocity": 0.8267716535433071
        },
        {
          "duration": 0.33333333333337123,
          "durationTicks": 400,
          "midi": 67,
          "name": "G4",
          "ticks": 667680,
          "time": 556.4,
          "velocity": 0.8267716535433071
        },
        {
          "duration": 1.9333333333332803,
          "durationTicks": 2320,
          "midi": 67,
          "name": "G4",
          "ticks": 668160,
          "time": 556.8000000000001,
          "velocity": 0.8267716535433071
        },
        {
          "duration": 0.2966666666666242,
          "durationTicks": 356,
          "midi": 67,
          "name": "G4",
          "ticks": 670560,
          "time": 558.8000000000001,
          "velocity": 0.8267716535433071
        },
        {
          "duration": 0.09666666666657875,
          "durationTicks": 116,
          "midi": 67,
          "name": "G4",
          "ticks": 670920,
          "time": 559.1,
          "velocity": 0.8267716535433071
        },
        {
          "duration": 0.33333333333325754,
          "durationTicks": 400,
          "midi": 67,
          "name": "G4",
          "ticks": 671040,
          "time": 559.2,
          "velocity": 0.8267716535433071
        },
        {
          "duration": 0.33333333333325754,
          "durationTicks": 400,
          "midi": 67,
          "name": "G4",
          "ticks": 671520,
          "time": 559.6,
          "velocity": 0.8267716535433071
        },
        {
          "duration": 1.9333333333332803,
          "durationTicks": 2320,
          "midi": 67,
          "name": "G4",
          "ticks": 672000,
          "time": 560,
          "velocity": 0.8267716535433071
        },
        {
          "duration": 0.2966666666666242,
          "durationTicks": 356,
          "midi": 67,
          "name": "G4",
          "ticks": 674400,
          "time": 562,
          "velocity": 0.8267716535433071
        },
        {
          "duration": 0.09666666666657875,
          "durationTicks": 116,
          "midi": 67,
          "name": "G4",
          "ticks": 674760,
          "time": 562.3000000000001,
          "velocity": 0.8267716535433071
        },
        {
          "duration": 0.33333333333337123,
          "durationTicks": 400,
          "midi": 67,
          "name": "G4",
          "ticks": 674880,
          "time": 562.4,
          "velocity": 0.8267716535433071
        },
        {
          "duration": 0.33333333333325754,
          "durationTicks": 400,
          "midi": 67,
          "name": "G4",
          "ticks": 675360,
          "time": 562.8000000000001,
          "velocity": 0.8267716535433071
        },
        {
          "duration": 0.33333333333325754,
          "durationTicks": 400,
          "midi": 67,
          "name": "G4",
          "ticks": 675840,
          "time": 563.2,
          "velocity": 0.8267716535433071
        },
        {
          "duration": 0.2966666666666242,
          "durationTicks": 356,
          "midi": 67,
          "name": "G4",
          "ticks": 676320,
          "time": 563.6,
          "velocity": 0.8267716535433071
        },
        {
          "duration": 0.09666666666669244,
          "durationTicks": 116,
          "midi": 67,
          "name": "G4",
          "ticks": 676680,
          "time": 563.9,
          "velocity": 0.8267716535433071
        },
        {
          "duration": 0.33333333333337123,
          "durationTicks": 400,
          "midi": 67,
          "name": "G4",
          "ticks": 676800,
          "time": 564,
          "velocity": 0.8267716535433071
        },
        {
          "duration": 0.33333333333337123,
          "durationTicks": 400,
          "midi": 67,
          "name": "G4",
          "ticks": 677280,
          "time": 564.4,
          "velocity": 0.8267716535433071
        },
        {
          "duration": 0.33333333333325754,
          "durationTicks": 400,
          "midi": 67,
          "name": "G4",
          "ticks": 677760,
          "time": 564.8000000000001,
          "velocity": 0.8267716535433071
        },
        {
          "duration": 0.2966666666666242,
          "durationTicks": 356,
          "midi": 67,
          "name": "G4",
          "ticks": 678240,
          "time": 565.2,
          "velocity": 0.8267716535433071
        },
        {
          "duration": 0.09666666666669244,
          "durationTicks": 116,
          "midi": 67,
          "name": "G4",
          "ticks": 678600,
          "time": 565.5,
          "velocity": 0.8267716535433071
        },
        {
          "duration": 0.33333333333325754,
          "durationTicks": 400,
          "midi": 67,
          "name": "G4",
          "ticks": 678720,
          "time": 565.6,
          "velocity": 0.8267716535433071
        },
        {
          "duration": 0.33333333333337123,
          "durationTicks": 400,
          "midi": 67,
          "name": "G4",
          "ticks": 679200,
          "time": 566,
          "velocity": 0.8267716535433071
        },
        {
          "duration": 0.33333333333337123,
          "durationTicks": 400,
          "midi": 60,
          "name": "C4",
          "ticks": 679680,
          "time": 566.4,
          "velocity": 0.8267716535433071
        },
        {
          "duration": 0.33333333333337123,
          "durationTicks": 400,
          "midi": 72,
          "name": "C5",
          "ticks": 679680,
          "time": 566.4,
          "velocity": 0.8267716535433071
        },
        {
          "duration": 0.33333333333325754,
          "durationTicks": 400,
          "midi": 67,
          "name": "G4",
          "ticks": 680160,
          "time": 566.8000000000001,
          "velocity": 0.8267716535433071
        },
        {
          "duration": 0.33333333333325754,
          "durationTicks": 400,
          "midi": 60,
          "name": "C4",
          "ticks": 680640,
          "time": 567.2,
          "velocity": 0.8267716535433071
        },
        {
          "duration": 0.33333333333325754,
          "durationTicks": 400,
          "midi": 72,
          "name": "C5",
          "ticks": 680640,
          "time": 567.2,
          "velocity": 0.8267716535433071
        },
        {
          "duration": 0.33333333333325754,
          "durationTicks": 400,
          "midi": 67,
          "name": "G4",
          "ticks": 681120,
          "time": 567.6,
          "velocity": 0.8267716535433071
        },
        {
          "duration": 1.1000000000000227,
          "durationTicks": 1320,
          "midi": 60,
          "name": "C4",
          "ticks": 681600,
          "time": 568,
          "velocity": 0.8267716535433071
        },
        {
          "duration": 1.1000000000000227,
          "durationTicks": 1320,
          "midi": 72,
          "name": "C5",
          "ticks": 681600,
          "time": 568,
          "velocity": 0.8267716535433071
        },
        {
          "duration": 0.33333333333325754,
          "durationTicks": 400,
          "midi": 60,
          "name": "C4",
          "ticks": 683040,
          "time": 569.2,
          "velocity": 0.8267716535433071
        },
        {
          "duration": 0.33333333333325754,
          "durationTicks": 400,
          "midi": 72,
          "name": "C5",
          "ticks": 683040,
          "time": 569.2,
          "velocity": 0.8267716535433071
        },
        {
          "duration": 0.33333333333325754,
          "durationTicks": 400,
          "midi": 67,
          "name": "G4",
          "ticks": 683520,
          "time": 569.6,
          "velocity": 0.8267716535433071
        },
        {
          "duration": 0.2966666666666242,
          "durationTicks": 356,
          "midi": 67,
          "name": "G4",
          "ticks": 684000,
          "time": 570,
          "velocity": 0.8267716535433071
        },
        {
          "duration": 0.09666666666657875,
          "durationTicks": 116,
          "midi": 67,
          "name": "G4",
          "ticks": 684360,
          "time": 570.3000000000001,
          "velocity": 0.8267716535433071
        },
        {
          "duration": 0.33333333333337123,
          "durationTicks": 400,
          "midi": 67,
          "name": "G4",
          "ticks": 684480,
          "time": 570.4,
          "velocity": 0.8267716535433071
        },
        {
          "duration": 0.33333333333325754,
          "durationTicks": 400,
          "midi": 67,
          "name": "G4",
          "ticks": 684960,
          "time": 570.8000000000001,
          "velocity": 0.8267716535433071
        },
        {
          "duration": 0.33333333333325754,
          "durationTicks": 400,
          "midi": 67,
          "name": "G4",
          "ticks": 685440,
          "time": 571.2,
          "velocity": 0.8267716535433071
        },
        {
          "duration": 0.2966666666666242,
          "durationTicks": 356,
          "midi": 67,
          "name": "G4",
          "ticks": 685920,
          "time": 571.6,
          "velocity": 0.8267716535433071
        },
        {
          "duration": 0.09666666666669244,
          "durationTicks": 116,
          "midi": 67,
          "name": "G4",
          "ticks": 686280,
          "time": 571.9,
          "velocity": 0.8267716535433071
        },
        {
          "duration": 0.33333333333337123,
          "durationTicks": 400,
          "midi": 67,
          "name": "G4",
          "ticks": 686400,
          "time": 572,
          "velocity": 0.8267716535433071
        },
        {
          "duration": 0.33333333333337123,
          "durationTicks": 400,
          "midi": 67,
          "name": "G4",
          "ticks": 686880,
          "time": 572.4,
          "velocity": 0.8267716535433071
        },
        {
          "duration": 0.33333333333325754,
          "durationTicks": 400,
          "midi": 67,
          "name": "G4",
          "ticks": 687360,
          "time": 572.8000000000001,
          "velocity": 0.8267716535433071
        },
        {
          "duration": 0.2966666666666242,
          "durationTicks": 356,
          "midi": 67,
          "name": "G4",
          "ticks": 687840,
          "time": 573.2,
          "velocity": 0.8267716535433071
        },
        {
          "duration": 0.09666666666669244,
          "durationTicks": 116,
          "midi": 67,
          "name": "G4",
          "ticks": 688200,
          "time": 573.5,
          "velocity": 0.8267716535433071
        },
        {
          "duration": 0.33333333333325754,
          "durationTicks": 400,
          "midi": 67,
          "name": "G4",
          "ticks": 688320,
          "time": 573.6,
          "velocity": 0.8267716535433071
        },
        {
          "duration": 0.33333333333337123,
          "durationTicks": 400,
          "midi": 67,
          "name": "G4",
          "ticks": 688800,
          "time": 574,
          "velocity": 0.8267716535433071
        },
        {
          "duration": 0.33333333333337123,
          "durationTicks": 400,
          "midi": 67,
          "name": "G4",
          "ticks": 689280,
          "time": 574.4,
          "velocity": 0.8267716535433071
        },
        {
          "duration": 0.2966666666666242,
          "durationTicks": 356,
          "midi": 67,
          "name": "G4",
          "ticks": 689760,
          "time": 574.8000000000001,
          "velocity": 0.8267716535433071
        },
        {
          "duration": 0.09666666666657875,
          "durationTicks": 116,
          "midi": 67,
          "name": "G4",
          "ticks": 690120,
          "time": 575.1,
          "velocity": 0.8267716535433071
        },
        {
          "duration": 0.33333333333325754,
          "durationTicks": 400,
          "midi": 67,
          "name": "G4",
          "ticks": 690240,
          "time": 575.2,
          "velocity": 0.8267716535433071
        },
        {
          "duration": 0.33333333333325754,
          "durationTicks": 400,
          "midi": 67,
          "name": "G4",
          "ticks": 690720,
          "time": 575.6,
          "velocity": 0.8267716535433071
        },
        {
          "duration": 0.33333333333337123,
          "durationTicks": 400,
          "midi": 67,
          "name": "G4",
          "ticks": 691200,
          "time": 576,
          "velocity": 0.8267716535433071
        },
        {
          "duration": 0.33333333333337123,
          "durationTicks": 400,
          "midi": 67,
          "name": "G4",
          "ticks": 691680,
          "time": 576.4,
          "velocity": 0.8267716535433071
        },
        {
          "duration": 0.33333333333337123,
          "durationTicks": 400,
          "midi": 79,
          "name": "G5",
          "ticks": 691680,
          "time": 576.4,
          "velocity": 0.8267716535433071
        },
        {
          "duration": 0.33333333333325754,
          "durationTicks": 400,
          "midi": 67,
          "name": "G4",
          "ticks": 692640,
          "time": 577.2,
          "velocity": 0.8267716535433071
        },
        {
          "duration": 0.33333333333325754,
          "durationTicks": 400,
          "midi": 79,
          "name": "G5",
          "ticks": 692640,
          "time": 577.2,
          "velocity": 0.8267716535433071
        },
        {
          "duration": 0.33333333333337123,
          "durationTicks": 400,
          "midi": 67,
          "name": "G4",
          "ticks": 693600,
          "time": 578,
          "velocity": 0.8267716535433071
        },
        {
          "duration": 0.33333333333337123,
          "durationTicks": 400,
          "midi": 79,
          "name": "G5",
          "ticks": 693600,
          "time": 578,
          "velocity": 0.8267716535433071
        },
        {
          "duration": 0.33333333333325754,
          "durationTicks": 400,
          "midi": 67,
          "name": "G4",
          "ticks": 694560,
          "time": 578.8000000000001,
          "velocity": 0.8267716535433071
        },
        {
          "duration": 0.33333333333325754,
          "durationTicks": 400,
          "midi": 79,
          "name": "G5",
          "ticks": 694560,
          "time": 578.8000000000001,
          "velocity": 0.8267716535433071
        },
        {
          "duration": 0.33333333333325754,
          "durationTicks": 400,
          "midi": 55,
          "name": "G3",
          "ticks": 695040,
          "time": 579.2,
          "velocity": 0.8267716535433071
        },
        {
          "duration": 0.33333333333325754,
          "durationTicks": 400,
          "midi": 67,
          "name": "G4",
          "ticks": 695040,
          "time": 579.2,
          "velocity": 0.8267716535433071
        },
        {
          "duration": 0.33333333333325754,
          "durationTicks": 400,
          "midi": 74,
          "name": "D5",
          "ticks": 716160,
          "time": 596.8000000000001,
          "velocity": 0.4015748031496063
        },
        {
          "duration": 0.33333333333325754,
          "durationTicks": 400,
          "midi": 77,
          "name": "F5",
          "ticks": 716160,
          "time": 596.8000000000001,
          "velocity": 0.4015748031496063
        },
        {
          "duration": 0.33333333333325754,
          "durationTicks": 400,
          "midi": 72,
          "name": "C5",
          "ticks": 717120,
          "time": 597.6,
          "velocity": 0.4015748031496063
        },
        {
          "duration": 0.33333333333325754,
          "durationTicks": 400,
          "midi": 76,
          "name": "E5",
          "ticks": 717120,
          "time": 597.6,
          "velocity": 0.4015748031496063
        },
        {
          "duration": 0.33333333333337123,
          "durationTicks": 400,
          "midi": 67,
          "name": "G4",
          "ticks": 718080,
          "time": 598.4,
          "velocity": 0.4015748031496063
        },
        {
          "duration": 0.33333333333337123,
          "durationTicks": 400,
          "midi": 74,
          "name": "D5",
          "ticks": 718080,
          "time": 598.4,
          "velocity": 0.4015748031496063
        },
        {
          "duration": 0.33333333333325754,
          "durationTicks": 400,
          "midi": 67,
          "name": "G4",
          "ticks": 718560,
          "time": 598.8000000000001,
          "velocity": 0.4015748031496063
        },
        {
          "duration": 0.33333333333325754,
          "durationTicks": 400,
          "midi": 74,
          "name": "D5",
          "ticks": 718560,
          "time": 598.8000000000001,
          "velocity": 0.4015748031496063
        },
        {
          "duration": 0.33333333333325754,
          "durationTicks": 400,
          "midi": 67,
          "name": "G4",
          "ticks": 719040,
          "time": 599.2,
          "velocity": 0.4015748031496063
        },
        {
          "duration": 0.33333333333325754,
          "durationTicks": 400,
          "midi": 74,
          "name": "D5",
          "ticks": 719040,
          "time": 599.2,
          "velocity": 0.4015748031496063
        },
        {
          "duration": 0.33333333333337123,
          "durationTicks": 400,
          "midi": 76,
          "name": "E5",
          "ticks": 720000,
          "time": 600,
          "velocity": 0.4015748031496063
        },
        {
          "duration": 0.33333333333337123,
          "durationTicks": 400,
          "midi": 79,
          "name": "G5",
          "ticks": 720000,
          "time": 600,
          "velocity": 0.4015748031496063
        },
        {
          "duration": 0.33333333333325754,
          "durationTicks": 400,
          "midi": 74,
          "name": "D5",
          "ticks": 720960,
          "time": 600.8000000000001,
          "velocity": 0.4015748031496063
        },
        {
          "duration": 0.33333333333325754,
          "durationTicks": 400,
          "midi": 77,
          "name": "F5",
          "ticks": 720960,
          "time": 600.8000000000001,
          "velocity": 0.4015748031496063
        },
        {
          "duration": 0.33333333333325754,
          "durationTicks": 400,
          "midi": 72,
          "name": "C5",
          "ticks": 721920,
          "time": 601.6,
          "velocity": 0.4015748031496063
        },
        {
          "duration": 0.33333333333325754,
          "durationTicks": 400,
          "midi": 76,
          "name": "E5",
          "ticks": 721920,
          "time": 601.6,
          "velocity": 0.4015748031496063
        },
        {
          "duration": 0.33333333333337123,
          "durationTicks": 400,
          "midi": 72,
          "name": "C5",
          "ticks": 722400,
          "time": 602,
          "velocity": 0.4015748031496063
        },
        {
          "duration": 0.33333333333337123,
          "durationTicks": 400,
          "midi": 76,
          "name": "E5",
          "ticks": 722400,
          "time": 602,
          "velocity": 0.4015748031496063
        },
        {
          "duration": 0.40000000000009095,
          "durationTicks": 480,
          "midi": 72,
          "name": "C5",
          "ticks": 722880,
          "time": 602.4,
          "velocity": 0.4015748031496063
        },
        {
          "duration": 0.40000000000009095,
          "durationTicks": 480,
          "midi": 76,
          "name": "E5",
          "ticks": 722880,
          "time": 602.4,
          "velocity": 0.4015748031496063
        },
        {
          "duration": 0.1999999999999318,
          "durationTicks": 240,
          "midi": 77,
          "name": "F5",
          "ticks": 723360,
          "time": 602.8000000000001,
          "velocity": 0.4015748031496063
        },
        {
          "duration": 0.1966666666666015,
          "durationTicks": 236,
          "midi": 74,
          "name": "D5",
          "ticks": 723600,
          "time": 603,
          "velocity": 0.4015748031496063
        },
        {
          "duration": 1.1999999999999318,
          "durationTicks": 1440,
          "midi": 64,
          "name": "E4",
          "ticks": 723840,
          "time": 603.2,
          "velocity": 0.4015748031496063
        },
        {
          "duration": 1.1999999999999318,
          "durationTicks": 1440,
          "midi": 72,
          "name": "C5",
          "ticks": 723840,
          "time": 603.2,
          "velocity": 0.4015748031496063
        },
        {
          "duration": 0.20000000000004547,
          "durationTicks": 240,
          "midi": 67,
          "name": "G4",
          "ticks": 725280,
          "time": 604.4,
          "velocity": 0.4015748031496063
        },
        {
          "duration": 0.20000000000004547,
          "durationTicks": 240,
          "midi": 76,
          "name": "E5",
          "ticks": 725280,
          "time": 604.4,
          "velocity": 0.4015748031496063
        },
        {
          "duration": 0.1966666666666015,
          "durationTicks": 236,
          "midi": 74,
          "name": "D5",
          "ticks": 725520,
          "time": 604.6,
          "velocity": 0.4015748031496063
        },
        {
          "duration": 0.33333333333325754,
          "durationTicks": 400,
          "midi": 64,
          "name": "E4",
          "ticks": 725760,
          "time": 604.8000000000001,
          "velocity": 0.4015748031496063
        },
        {
          "duration": 0.33333333333325754,
          "durationTicks": 400,
          "midi": 72,
          "name": "C5",
          "ticks": 725760,
          "time": 604.8000000000001,
          "velocity": 0.4015748031496063
        },
        {
          "duration": 1.5,
          "durationTicks": 1800,
          "midi": 67,
          "name": "G4",
          "ticks": 727680,
          "time": 606.4,
          "velocity": 0.4015748031496063
        },
        {
          "duration": 1.5,
          "durationTicks": 1800,
          "midi": 74,
          "name": "D5",
          "ticks": 727680,
          "time": 606.4,
          "velocity": 0.4015748031496063
        },
        {
          "duration": 0.33333333333337123,
          "durationTicks": 400,
          "midi": 76,
          "name": "E5",
          "ticks": 729600,
          "time": 608,
          "velocity": 0.4015748031496063
        },
        {
          "duration": 0.33333333333337123,
          "durationTicks": 400,
          "midi": 79,
          "name": "G5",
          "ticks": 729600,
          "time": 608,
          "velocity": 0.4015748031496063
        },
        {
          "duration": 0.33333333333325754,
          "durationTicks": 400,
          "midi": 72,
          "name": "C5",
          "ticks": 730560,
          "time": 608.8000000000001,
          "velocity": 0.4015748031496063
        },
        {
          "duration": 0.33333333333325754,
          "durationTicks": 400,
          "midi": 76,
          "name": "E5",
          "ticks": 730560,
          "time": 608.8000000000001,
          "velocity": 0.4015748031496063
        },
        {
          "duration": 0.33333333333325754,
          "durationTicks": 400,
          "midi": 74,
          "name": "D5",
          "ticks": 731520,
          "time": 609.6,
          "velocity": 0.4015748031496063
        },
        {
          "duration": 0.33333333333325754,
          "durationTicks": 400,
          "midi": 77,
          "name": "F5",
          "ticks": 731520,
          "time": 609.6,
          "velocity": 0.4015748031496063
        },
        {
          "duration": 0.33333333333337123,
          "durationTicks": 400,
          "midi": 67,
          "name": "G4",
          "ticks": 732480,
          "time": 610.4,
          "velocity": 0.4015748031496063
        },
        {
          "duration": 0.33333333333337123,
          "durationTicks": 400,
          "midi": 74,
          "name": "D5",
          "ticks": 732480,
          "time": 610.4,
          "velocity": 0.4015748031496063
        },
        {
          "duration": 0.33333333333325754,
          "durationTicks": 400,
          "midi": 64,
          "name": "E4",
          "ticks": 733440,
          "time": 611.2,
          "velocity": 0.4015748031496063
        },
        {
          "duration": 0.33333333333325754,
          "durationTicks": 400,
          "midi": 72,
          "name": "C5",
          "ticks": 733440,
          "time": 611.2,
          "velocity": 0.4015748031496063
        },
        {
          "duration": 1.5,
          "durationTicks": 1800,
          "midi": 67,
          "name": "G4",
          "ticks": 735360,
          "time": 612.8000000000001,
          "velocity": 0.4015748031496063
        },
        {
          "duration": 1.5,
          "durationTicks": 1800,
          "midi": 74,
          "name": "D5",
          "ticks": 735360,
          "time": 612.8000000000001,
          "velocity": 0.4015748031496063
        },
        {
          "duration": 0.33333333333325754,
          "durationTicks": 400,
          "midi": 55,
          "name": "G3",
          "ticks": 737280,
          "time": 614.4000000000001,
          "velocity": 0.4015748031496063
        },
        {
          "duration": 0.33333333333325754,
          "durationTicks": 400,
          "midi": 79,
          "name": "G5",
          "ticks": 737280,
          "time": 614.4000000000001,
          "velocity": 0.4015748031496063
        },
        {
          "duration": 3.1000000000000227,
          "durationTicks": 3720,
          "midi": 60,
          "name": "C4",
          "ticks": 744960,
          "time": 620.8000000000001,
          "velocity": 0.8267716535433071
        },
        {
          "duration": 3.1000000000000227,
          "durationTicks": 3720,
          "midi": 72,
          "name": "C5",
          "ticks": 744960,
          "time": 620.8000000000001,
          "velocity": 0.8267716535433071
        },
        {
          "duration": 0.7000000000000455,
          "durationTicks": 840,
          "midi": 67,
          "name": "G4",
          "ticks": 752640,
          "time": 627.2,
          "velocity": 0.8267716535433071
        },
        {
          "duration": 0.533333333333303,
          "durationTicks": 640,
          "midi": 67,
          "name": "G4",
          "ticks": 753600,
          "time": 628,
          "velocity": 0.8267716535433071
        },
        {
          "duration": 0.1966666666666015,
          "durationTicks": 236,
          "midi": 67,
          "name": "G4",
          "ticks": 754320,
          "time": 628.6,
          "velocity": 0.8267716535433071
        },
        {
          "duration": 0.33333333333325754,
          "durationTicks": 400,
          "midi": 67,
          "name": "G4",
          "ticks": 754560,
          "time": 628.8000000000001,
          "velocity": 0.8267716535433071
        },
        {
          "duration": 0.33333333333325754,
          "durationTicks": 400,
          "midi": 67,
          "name": "G4",
          "ticks": 755040,
          "time": 629.2,
          "velocity": 0.8267716535433071
        },
        {
          "duration": 0.33333333333337123,
          "durationTicks": 400,
          "midi": 67,
          "name": "G4",
          "ticks": 755520,
          "time": 629.6,
          "velocity": 0.8267716535433071
        },
        {
          "duration": 0.33333333333337123,
          "durationTicks": 400,
          "midi": 67,
          "name": "G4",
          "ticks": 756000,
          "time": 630,
          "velocity": 0.8267716535433071
        },
        {
          "duration": 0.33333333333325754,
          "durationTicks": 400,
          "midi": 60,
          "name": "C4",
          "ticks": 756480,
          "time": 630.4000000000001,
          "velocity": 0.8267716535433071
        },
        {
          "duration": 0.33333333333325754,
          "durationTicks": 400,
          "midi": 67,
          "name": "G4",
          "ticks": 756480,
          "time": 630.4000000000001,
          "velocity": 0.8267716535433071
        },
        {
          "duration": 0.33333333333325754,
          "durationTicks": 400,
          "midi": 72,
          "name": "C5",
          "ticks": 757440,
          "time": 631.2,
          "velocity": 0.8267716535433071
        },
        {
          "duration": 0.33333333333325754,
          "durationTicks": 400,
          "midi": 74,
          "name": "D5",
          "ticks": 757440,
          "time": 631.2,
          "velocity": 0.8267716535433071
        },
        {
          "duration": 0.33333333333337123,
          "durationTicks": 400,
          "midi": 72,
          "name": "C5",
          "ticks": 758400,
          "time": 632,
          "velocity": 0.8267716535433071
        },
        {
          "duration": 0.33333333333337123,
          "durationTicks": 400,
          "midi": 76,
          "name": "E5",
          "ticks": 758400,
          "time": 632,
          "velocity": 0.8267716535433071
        },
        {
          "duration": 0.33333333333325754,
          "durationTicks": 400,
          "midi": 67,
          "name": "G4",
          "ticks": 759360,
          "time": 632.8000000000001,
          "velocity": 0.8267716535433071
        },
        {
          "duration": 0.33333333333325754,
          "durationTicks": 400,
          "midi": 74,
          "name": "D5",
          "ticks": 759360,
          "time": 632.8000000000001,
          "velocity": 0.8267716535433071
        },
        {
          "duration": 0.7000000000000455,
          "durationTicks": 840,
          "midi": 60,
          "name": "C4",
          "ticks": 760320,
          "time": 633.6,
          "velocity": 0.8267716535433071
        },
        {
          "duration": 0.7000000000000455,
          "durationTicks": 840,
          "midi": 72,
          "name": "C5",
          "ticks": 760320,
          "time": 633.6,
          "velocity": 0.8267716535433071
        },
        {
          "duration": 0.33333333333325754,
          "durationTicks": 400,
          "midi": 60,
          "name": "C4",
          "ticks": 761280,
          "time": 634.4000000000001,
          "velocity": 0.8267716535433071
        },
        {
          "duration": 0.33333333333325754,
          "durationTicks": 400,
          "midi": 72,
          "name": "C5",
          "ticks": 761280,
          "time": 634.4000000000001,
          "velocity": 0.8267716535433071
        },
        {
          "duration": 0.33333333333325754,
          "durationTicks": 400,
          "midi": 60,
          "name": "C4",
          "ticks": 761760,
          "time": 634.8000000000001,
          "velocity": 0.8267716535433071
        },
        {
          "duration": 0.33333333333325754,
          "durationTicks": 400,
          "midi": 72,
          "name": "C5",
          "ticks": 761760,
          "time": 634.8000000000001,
          "velocity": 0.8267716535433071
        },
        {
          "duration": 0.7000000000000455,
          "durationTicks": 840,
          "midi": 60,
          "name": "C4",
          "ticks": 762240,
          "time": 635.2,
          "velocity": 0.8267716535433071
        },
        {
          "duration": 0.7000000000000455,
          "durationTicks": 840,
          "midi": 72,
          "name": "C5",
          "ticks": 762240,
          "time": 635.2,
          "velocity": 0.8267716535433071
        },
        {
          "duration": 0.33333333333337123,
          "durationTicks": 400,
          "midi": 60,
          "name": "C4",
          "ticks": 763200,
          "time": 636,
          "velocity": 0.8267716535433071
        },
        {
          "duration": 0.33333333333337123,
          "durationTicks": 400,
          "midi": 72,
          "name": "C5",
          "ticks": 763200,
          "time": 636,
          "velocity": 0.8267716535433071
        },
        {
          "duration": 0.33333333333325754,
          "durationTicks": 400,
          "midi": 60,
          "name": "C4",
          "ticks": 763680,
          "time": 636.4000000000001,
          "velocity": 0.8267716535433071
        },
        {
          "duration": 0.33333333333325754,
          "durationTicks": 400,
          "midi": 72,
          "name": "C5",
          "ticks": 763680,
          "time": 636.4000000000001,
          "velocity": 0.8267716535433071
        },
        {
          "duration": 0.6999999999999318,
          "durationTicks": 840,
          "midi": 60,
          "name": "C4",
          "ticks": 764160,
          "time": 636.8000000000001,
          "velocity": 0.8267716535433071
        },
        {
          "duration": 0.6999999999999318,
          "durationTicks": 840,
          "midi": 72,
          "name": "C5",
          "ticks": 764160,
          "time": 636.8000000000001,
          "velocity": 0.8267716535433071
        },
        {
          "duration": 0.33333333333337123,
          "durationTicks": 400,
          "midi": 60,
          "name": "C4",
          "ticks": 765120,
          "time": 637.6,
          "velocity": 0.8267716535433071
        },
        {
          "duration": 0.33333333333337123,
          "durationTicks": 400,
          "midi": 72,
          "name": "C5",
          "ticks": 765120,
          "time": 637.6,
          "velocity": 0.8267716535433071
        },
        {
          "duration": 0.33333333333337123,
          "durationTicks": 400,
          "midi": 60,
          "name": "C4",
          "ticks": 765600,
          "time": 638,
          "velocity": 0.8267716535433071
        },
        {
          "duration": 0.33333333333337123,
          "durationTicks": 400,
          "midi": 72,
          "name": "C5",
          "ticks": 765600,
          "time": 638,
          "velocity": 0.8267716535433071
        },
        {
          "duration": 0.33333333333325754,
          "durationTicks": 400,
          "midi": 60,
          "name": "C4",
          "ticks": 766080,
          "time": 638.4000000000001,
          "velocity": 0.6771653543307087
        },
        {
          "duration": 0.33333333333325754,
          "durationTicks": 400,
          "midi": 72,
          "name": "C5",
          "ticks": 766080,
          "time": 638.4000000000001,
          "velocity": 0.6771653543307087
        },
        {
          "duration": 0.33333333333325754,
          "durationTicks": 400,
          "midi": 60,
          "name": "C4",
          "ticks": 767040,
          "time": 639.2,
          "velocity": 0.6771653543307087
        },
        {
          "duration": 0.33333333333325754,
          "durationTicks": 400,
          "midi": 72,
          "name": "C5",
          "ticks": 767040,
          "time": 639.2,
          "velocity": 0.6771653543307087
        },
        {
          "duration": 0.33333333333325754,
          "durationTicks": 400,
          "midi": 67,
          "name": "G4",
          "ticks": 768960,
          "time": 640.8000000000001,
          "velocity": 0.6771653543307087
        },
        {
          "duration": 0.33333333333325754,
          "durationTicks": 400,
          "midi": 74,
          "name": "D5",
          "ticks": 768960,
          "time": 640.8000000000001,
          "velocity": 0.6771653543307087
        },
        {
          "duration": 0.7000000000000455,
          "durationTicks": 840,
          "midi": 60,
          "name": "C4",
          "ticks": 769920,
          "time": 641.6,
          "velocity": 0.6771653543307087
        },
        {
          "duration": 0.7000000000000455,
          "durationTicks": 840,
          "midi": 72,
          "name": "C5",
          "ticks": 769920,
          "time": 641.6,
          "velocity": 0.6771653543307087
        },
        {
          "duration": 0.33333333333325754,
          "durationTicks": 400,
          "midi": 60,
          "name": "C4",
          "ticks": 770880,
          "time": 642.4000000000001,
          "velocity": 0.6771653543307087
        },
        {
          "duration": 0.33333333333325754,
          "durationTicks": 400,
          "midi": 72,
          "name": "C5",
          "ticks": 770880,
          "time": 642.4000000000001,
          "velocity": 0.6771653543307087
        },
        {
          "duration": 0.33333333333325754,
          "durationTicks": 400,
          "midi": 60,
          "name": "C4",
          "ticks": 771360,
          "time": 642.8000000000001,
          "velocity": 0.6771653543307087
        },
        {
          "duration": 0.33333333333325754,
          "durationTicks": 400,
          "midi": 72,
          "name": "C5",
          "ticks": 771360,
          "time": 642.8000000000001,
          "velocity": 0.6771653543307087
        },
        {
          "duration": 0.7000000000000455,
          "durationTicks": 840,
          "midi": 60,
          "name": "C4",
          "ticks": 771840,
          "time": 643.2,
          "velocity": 0.6771653543307087
        },
        {
          "duration": 0.7000000000000455,
          "durationTicks": 840,
          "midi": 72,
          "name": "C5",
          "ticks": 771840,
          "time": 643.2,
          "velocity": 0.6771653543307087
        },
        {
          "duration": 0.33333333333337123,
          "durationTicks": 400,
          "midi": 60,
          "name": "C4",
          "ticks": 772800,
          "time": 644,
          "velocity": 0.6771653543307087
        },
        {
          "duration": 0.33333333333337123,
          "durationTicks": 400,
          "midi": 72,
          "name": "C5",
          "ticks": 772800,
          "time": 644,
          "velocity": 0.6771653543307087
        },
        {
          "duration": 0.33333333333325754,
          "durationTicks": 400,
          "midi": 60,
          "name": "C4",
          "ticks": 773280,
          "time": 644.4000000000001,
          "velocity": 0.6771653543307087
        },
        {
          "duration": 0.33333333333325754,
          "durationTicks": 400,
          "midi": 72,
          "name": "C5",
          "ticks": 773280,
          "time": 644.4000000000001,
          "velocity": 0.6771653543307087
        },
        {
          "duration": 0.6999999999999318,
          "durationTicks": 840,
          "midi": 60,
          "name": "C4",
          "ticks": 773760,
          "time": 644.8000000000001,
          "velocity": 0.6771653543307087
        },
        {
          "duration": 0.6999999999999318,
          "durationTicks": 840,
          "midi": 72,
          "name": "C5",
          "ticks": 773760,
          "time": 644.8000000000001,
          "velocity": 0.6771653543307087
        },
        {
          "duration": 0.33333333333337123,
          "durationTicks": 400,
          "midi": 60,
          "name": "C4",
          "ticks": 774720,
          "time": 645.6,
          "velocity": 0.6771653543307087
        },
        {
          "duration": 0.33333333333337123,
          "durationTicks": 400,
          "midi": 72,
          "name": "C5",
          "ticks": 774720,
          "time": 645.6,
          "velocity": 0.6771653543307087
        },
        {
          "duration": 0.33333333333337123,
          "durationTicks": 400,
          "midi": 60,
          "name": "C4",
          "ticks": 775200,
          "time": 646,
          "velocity": 0.6771653543307087
        },
        {
          "duration": 0.33333333333337123,
          "durationTicks": 400,
          "midi": 72,
          "name": "C5",
          "ticks": 775200,
          "time": 646,
          "velocity": 0.6771653543307087
        },
        {
          "duration": 0.33333333333325754,
          "durationTicks": 400,
          "midi": 60,
          "name": "C4",
          "ticks": 775680,
          "time": 646.4000000000001,
          "velocity": 0.6771653543307087
        },
        {
          "duration": 0.33333333333325754,
          "durationTicks": 400,
          "midi": 72,
          "name": "C5",
          "ticks": 775680,
          "time": 646.4000000000001,
          "velocity": 0.6771653543307087
        },
        {
          "duration": 0.33333333333325754,
          "durationTicks": 400,
          "midi": 67,
          "name": "G4",
          "ticks": 776160,
          "time": 646.8000000000001,
          "velocity": 0.6771653543307087
        },
        {
          "duration": 0.33333333333325754,
          "durationTicks": 400,
          "midi": 76,
          "name": "E5",
          "ticks": 776160,
          "time": 646.8000000000001,
          "velocity": 0.6771653543307087
        },
        {
          "duration": 0.33333333333325754,
          "durationTicks": 400,
          "midi": 74,
          "name": "D5",
          "ticks": 776640,
          "time": 647.2,
          "velocity": 0.6771653543307087
        },
        {
          "duration": 0.33333333333325754,
          "durationTicks": 400,
          "midi": 77,
          "name": "F5",
          "ticks": 776640,
          "time": 647.2,
          "velocity": 0.6771653543307087
        },
        {
          "duration": 0.33333333333337123,
          "durationTicks": 400,
          "midi": 76,
          "name": "E5",
          "ticks": 777120,
          "time": 647.6,
          "velocity": 0.6771653543307087
        },
        {
          "duration": 0.33333333333337123,
          "durationTicks": 400,
          "midi": 79,
          "name": "G5",
          "ticks": 777120,
          "time": 647.6,
          "velocity": 0.6771653543307087
        },
        {
          "duration": 0.33333333333337123,
          "durationTicks": 400,
          "midi": 74,
          "name": "D5",
          "ticks": 777600,
          "time": 648,
          "velocity": 0.6771653543307087
        },
        {
          "duration": 0.33333333333337123,
          "durationTicks": 400,
          "midi": 77,
          "name": "F5",
          "ticks": 777600,
          "time": 648,
          "velocity": 0.6771653543307087
        },
        {
          "duration": 0.33333333333325754,
          "durationTicks": 400,
          "midi": 72,
          "name": "C5",
          "ticks": 778080,
          "time": 648.4000000000001,
          "velocity": 0.6771653543307087
        },
        {
          "duration": 0.33333333333325754,
          "durationTicks": 400,
          "midi": 74,
          "name": "D5",
          "ticks": 778080,
          "time": 648.4000000000001,
          "velocity": 0.6771653543307087
        },
        {
          "duration": 0.33333333333325754,
          "durationTicks": 400,
          "midi": 67,
          "name": "G4",
          "ticks": 778560,
          "time": 648.8000000000001,
          "velocity": 0.6771653543307087
        },
        {
          "duration": 0.33333333333325754,
          "durationTicks": 400,
          "midi": 74,
          "name": "D5",
          "ticks": 778560,
          "time": 648.8000000000001,
          "velocity": 0.6771653543307087
        },
        {
          "duration": 0.33333333333325754,
          "durationTicks": 400,
          "midi": 72,
          "name": "C5",
          "ticks": 779040,
          "time": 649.2,
          "velocity": 0.6771653543307087
        },
        {
          "duration": 0.33333333333325754,
          "durationTicks": 400,
          "midi": 74,
          "name": "D5",
          "ticks": 779040,
          "time": 649.2,
          "velocity": 0.6771653543307087
        },
        {
          "duration": 0.33333333333337123,
          "durationTicks": 400,
          "midi": 67,
          "name": "G4",
          "ticks": 779520,
          "time": 649.6,
          "velocity": 0.6771653543307087
        },
        {
          "duration": 0.33333333333337123,
          "durationTicks": 400,
          "midi": 74,
          "name": "D5",
          "ticks": 779520,
          "time": 649.6,
          "velocity": 0.6771653543307087
        },
        {
          "duration": 6.300000000000068,
          "durationTicks": 7560,
          "midi": 55,
          "name": "G3",
          "ticks": 787200,
          "time": 656,
          "velocity": 0.2677165354330709
        },
        {
          "duration": 6.7333333333333485,
          "durationTicks": 8080,
          "midi": 67,
          "name": "G4",
          "ticks": 787200,
          "time": 656,
          "velocity": 0.2677165354330709
        },
        {
          "duration": 0.33333333333325754,
          "durationTicks": 400,
          "midi": 60,
          "name": "C4",
          "ticks": 794880,
          "time": 662.4000000000001,
          "velocity": 0.2677165354330709
        },
        {
          "duration": 0.1966666666666015,
          "durationTicks": 236,
          "midi": 67,
          "name": "G4",
          "ticks": 797760,
          "time": 664.8000000000001,
          "velocity": 0.4015748031496063
        },
        {
          "duration": 0.1966666666666015,
          "durationTicks": 236,
          "midi": 74,
          "name": "D5",
          "ticks": 797760,
          "time": 664.8000000000001,
          "velocity": 0.4015748031496063
        },
        {
          "duration": 0.1966666666666015,
          "durationTicks": 236,
          "midi": 67,
          "name": "G4",
          "ticks": 798240,
          "time": 665.2,
          "velocity": 0.4015748031496063
        },
        {
          "duration": 0.1966666666666015,
          "durationTicks": 236,
          "midi": 74,
          "name": "D5",
          "ticks": 798240,
          "time": 665.2,
          "velocity": 0.4015748031496063
        },
        {
          "duration": 0.33333333333337123,
          "durationTicks": 400,
          "midi": 64,
          "name": "E4",
          "ticks": 798720,
          "time": 665.6,
          "velocity": 0.4015748031496063
        },
        {
          "duration": 0.33333333333337123,
          "durationTicks": 400,
          "midi": 72,
          "name": "C5",
          "ticks": 798720,
          "time": 665.6,
          "velocity": 0.4015748031496063
        },
        {
          "duration": 0.19666666666671517,
          "durationTicks": 236,
          "midi": 55,
          "name": "G3",
          "ticks": 801600,
          "time": 668,
          "velocity": 0.4015748031496063
        },
        {
          "duration": 0.19666666666671517,
          "durationTicks": 236,
          "midi": 67,
          "name": "G4",
          "ticks": 801600,
          "time": 668,
          "velocity": 0.4015748031496063
        },
        {
          "duration": 0.1966666666666015,
          "durationTicks": 236,
          "midi": 55,
          "name": "G3",
          "ticks": 802080,
          "time": 668.4000000000001,
          "velocity": 0.4015748031496063
        },
        {
          "duration": 0.1966666666666015,
          "durationTicks": 236,
          "midi": 67,
          "name": "G4",
          "ticks": 802080,
          "time": 668.4000000000001,
          "velocity": 0.4015748031496063
        },
        {
          "duration": 0.1966666666666015,
          "durationTicks": 236,
          "midi": 60,
          "name": "C4",
          "ticks": 802560,
          "time": 668.8000000000001,
          "velocity": 0.4015748031496063
        },
        {
          "duration": 0.1966666666666015,
          "durationTicks": 236,
          "midi": 67,
          "name": "G4",
          "ticks": 802560,
          "time": 668.8000000000001,
          "velocity": 0.4015748031496063
        },
        {
          "duration": 0.7000000000000455,
          "durationTicks": 840,
          "midi": 67,
          "name": "G4",
          "ticks": 803040,
          "time": 669.2,
          "velocity": 0.8267716535433071
        },
        {
          "duration": 0.33333333333337123,
          "durationTicks": 400,
          "midi": 67,
          "name": "G4",
          "ticks": 804000,
          "time": 670,
          "velocity": 0.8267716535433071
        },
        {
          "duration": 0.1966666666666015,
          "durationTicks": 236,
          "midi": 67,
          "name": "G4",
          "ticks": 804480,
          "time": 670.4000000000001,
          "velocity": 0.8267716535433071
        },
        {
          "duration": 0.6999999999999318,
          "durationTicks": 840,
          "midi": 67,
          "name": "G4",
          "ticks": 804960,
          "time": 670.8000000000001,
          "velocity": 0.8267716535433071
        },
        {
          "duration": 0.33333333333337123,
          "durationTicks": 400,
          "midi": 67,
          "name": "G4",
          "ticks": 805920,
          "time": 671.6,
          "velocity": 0.8267716535433071
        },
        {
          "duration": 0.19666666666671517,
          "durationTicks": 236,
          "midi": 67,
          "name": "G4",
          "ticks": 806400,
          "time": 672,
          "velocity": 0.8267716535433071
        },
        {
          "duration": 0.1966666666666015,
          "durationTicks": 236,
          "midi": 72,
          "name": "C5",
          "ticks": 806880,
          "time": 672.4000000000001,
          "velocity": 0.8267716535433071
        },
        {
          "duration": 0.1966666666666015,
          "durationTicks": 236,
          "midi": 76,
          "name": "E5",
          "ticks": 806880,
          "time": 672.4000000000001,
          "velocity": 0.8267716535433071
        },
        {
          "duration": 0.1966666666666015,
          "durationTicks": 236,
          "midi": 74,
          "name": "D5",
          "ticks": 807360,
          "time": 672.8000000000001,
          "velocity": 0.8267716535433071
        },
        {
          "duration": 0.1966666666666015,
          "durationTicks": 236,
          "midi": 77,
          "name": "F5",
          "ticks": 807360,
          "time": 672.8000000000001,
          "velocity": 0.8267716535433071
        },
        {
          "duration": 0.1966666666666015,
          "durationTicks": 236,
          "midi": 67,
          "name": "G4",
          "ticks": 807840,
          "time": 673.2,
          "velocity": 0.8267716535433071
        },
        {
          "duration": 0.1966666666666015,
          "durationTicks": 236,
          "midi": 74,
          "name": "D5",
          "ticks": 807840,
          "time": 673.2,
          "velocity": 0.8267716535433071
        },
        {
          "duration": 0.1966666666666015,
          "durationTicks": 236,
          "midi": 64,
          "name": "E4",
          "ticks": 808320,
          "time": 673.6,
          "velocity": 0.8267716535433071
        },
        {
          "duration": 0.1966666666666015,
          "durationTicks": 236,
          "midi": 72,
          "name": "C5",
          "ticks": 808320,
          "time": 673.6,
          "velocity": 0.8267716535433071
        },
        {
          "duration": 0.7000000000000455,
          "durationTicks": 840,
          "midi": 55,
          "name": "G3",
          "ticks": 808800,
          "time": 674,
          "velocity": 0.8267716535433071
        },
        {
          "duration": 0.7000000000000455,
          "durationTicks": 840,
          "midi": 67,
          "name": "G4",
          "ticks": 808800,
          "time": 674,
          "velocity": 0.8267716535433071
        },
        {
          "duration": 0.33333333333325754,
          "durationTicks": 400,
          "midi": 55,
          "name": "G3",
          "ticks": 809760,
          "time": 674.8000000000001,
          "velocity": 0.8267716535433071
        },
        {
          "duration": 0.33333333333325754,
          "durationTicks": 400,
          "midi": 67,
          "name": "G4",
          "ticks": 809760,
          "time": 674.8000000000001,
          "velocity": 0.8267716535433071
        },
        {
          "duration": 0.1966666666666015,
          "durationTicks": 236,
          "midi": 55,
          "name": "G3",
          "ticks": 810240,
          "time": 675.2,
          "velocity": 0.8267716535433071
        },
        {
          "duration": 0.1966666666666015,
          "durationTicks": 236,
          "midi": 67,
          "name": "G4",
          "ticks": 810240,
          "time": 675.2,
          "velocity": 0.8267716535433071
        },
        {
          "duration": 0.7000000000000455,
          "durationTicks": 840,
          "midi": 55,
          "name": "G3",
          "ticks": 810720,
          "time": 675.6,
          "velocity": 0.8267716535433071
        },
        {
          "duration": 0.7000000000000455,
          "durationTicks": 840,
          "midi": 67,
          "name": "G4",
          "ticks": 810720,
          "time": 675.6,
          "velocity": 0.8267716535433071
        },
        {
          "duration": 0.33333333333325754,
          "durationTicks": 400,
          "midi": 55,
          "name": "G3",
          "ticks": 811680,
          "time": 676.4000000000001,
          "velocity": 0.8267716535433071
        },
        {
          "duration": 0.33333333333325754,
          "durationTicks": 400,
          "midi": 67,
          "name": "G4",
          "ticks": 811680,
          "time": 676.4000000000001,
          "velocity": 0.8267716535433071
        },
        {
          "duration": 0.33333333333325754,
          "durationTicks": 400,
          "midi": 60,
          "name": "C4",
          "ticks": 812160,
          "time": 676.8000000000001,
          "velocity": 0.8267716535433071
        },
        {
          "duration": 0.33333333333325754,
          "durationTicks": 400,
          "midi": 67,
          "name": "G4",
          "ticks": 812160,
          "time": 676.8000000000001,
          "velocity": 0.8267716535433071
        },
        {
          "duration": 0.33333333333337123,
          "durationTicks": 400,
          "midi": 67,
          "name": "G4",
          "ticks": 813600,
          "time": 678,
          "velocity": 0.8267716535433071
        },
        {
          "duration": 0.33333333333337123,
          "durationTicks": 400,
          "midi": 74,
          "name": "D5",
          "ticks": 813600,
          "time": 678,
          "velocity": 0.8267716535433071
        },
        {
          "duration": 0.33333333333325754,
          "durationTicks": 400,
          "midi": 64,
          "name": "E4",
          "ticks": 814080,
          "time": 678.4000000000001,
          "velocity": 0.8267716535433071
        },
        {
          "duration": 0.33333333333325754,
          "durationTicks": 400,
          "midi": 72,
          "name": "C5",
          "ticks": 814080,
          "time": 678.4000000000001,
          "velocity": 0.8267716535433071
        },
        {
          "duration": 0.33333333333325754,
          "durationTicks": 400,
          "midi": 72,
          "name": "C5",
          "ticks": 815040,
          "time": 679.2,
          "velocity": 0.8267716535433071
        },
        {
          "duration": 0.33333333333325754,
          "durationTicks": 400,
          "midi": 76,
          "name": "E5",
          "ticks": 815040,
          "time": 679.2,
          "velocity": 0.8267716535433071
        },
        {
          "duration": 0.33333333333337123,
          "durationTicks": 400,
          "midi": 67,
          "name": "G4",
          "ticks": 815520,
          "time": 679.6,
          "velocity": 0.8267716535433071
        },
        {
          "duration": 0.33333333333337123,
          "durationTicks": 400,
          "midi": 74,
          "name": "D5",
          "ticks": 815520,
          "time": 679.6,
          "velocity": 0.8267716535433071
        },
        {
          "duration": 0.33333333333337123,
          "durationTicks": 400,
          "midi": 64,
          "name": "E4",
          "ticks": 816000,
          "time": 680,
          "velocity": 0.9763779527559056
        },
        {
          "duration": 0.33333333333337123,
          "durationTicks": 400,
          "midi": 72,
          "name": "C5",
          "ticks": 816000,
          "time": 680,
          "velocity": 0.9763779527559056
        },
        {
          "duration": 0.33333333333325754,
          "durationTicks": 400,
          "midi": 55,
          "name": "G3",
          "ticks": 816960,
          "time": 680.8000000000001,
          "velocity": 0.9763779527559056
        },
        {
          "duration": 0.33333333333325754,
          "durationTicks": 400,
          "midi": 67,
          "name": "G4",
          "ticks": 816960,
          "time": 680.8000000000001,
          "velocity": 0.9763779527559056
        },
        {
          "duration": 0.33333333333337123,
          "durationTicks": 400,
          "midi": 60,
          "name": "C4",
          "ticks": 817920,
          "time": 681.6,
          "velocity": 0.9763779527559056
        },
        {
          "duration": 0.33333333333337123,
          "durationTicks": 400,
          "midi": 67,
          "name": "G4",
          "ticks": 817920,
          "time": 681.6,
          "velocity": 0.9763779527559056
        },
        {
          "duration": 0.33333333333325754,
          "durationTicks": 400,
          "midi": 55,
          "name": "G3",
          "ticks": 818880,
          "time": 682.4000000000001,
          "velocity": 0.9763779527559056
        },
        {
          "duration": 0.33333333333325754,
          "durationTicks": 400,
          "midi": 67,
          "name": "G4",
          "ticks": 818880,
          "time": 682.4000000000001,
          "velocity": 0.9763779527559056
        },
        {
          "duration": 0.33333333333325754,
          "durationTicks": 400,
          "midi": 60,
          "name": "C4",
          "ticks": 819840,
          "time": 683.2,
          "velocity": 0.9763779527559056
        },
        {
          "duration": 0.33333333333325754,
          "durationTicks": 400,
          "midi": 67,
          "name": "G4",
          "ticks": 819840,
          "time": 683.2,
          "velocity": 0.9763779527559056
        },
        {
          "duration": 0.33333333333337123,
          "durationTicks": 400,
          "midi": 55,
          "name": "G3",
          "ticks": 820800,
          "time": 684,
          "velocity": 0.9763779527559056
        },
        {
          "duration": 0.33333333333337123,
          "durationTicks": 400,
          "midi": 67,
          "name": "G4",
          "ticks": 820800,
          "time": 684,
          "velocity": 0.9763779527559056
        },
        {
          "duration": 0.1966666666666015,
          "durationTicks": 236,
          "midi": 60,
          "name": "C4",
          "ticks": 821760,
          "time": 684.8000000000001,
          "velocity": 0.9763779527559056
        },
        {
          "duration": 0.1966666666666015,
          "durationTicks": 236,
          "midi": 72,
          "name": "C5",
          "ticks": 821760,
          "time": 684.8000000000001,
          "velocity": 0.9763779527559056
        },
        {
          "duration": 0.19666666666671517,
          "durationTicks": 236,
          "midi": 55,
          "name": "G3",
          "ticks": 822000,
          "time": 685,
          "velocity": 0.9763779527559056
        },
        {
          "duration": 0.19666666666671517,
          "durationTicks": 236,
          "midi": 67,
          "name": "G4",
          "ticks": 822000,
          "time": 685,
          "velocity": 0.9763779527559056
        },
        {
          "duration": 0.1966666666666015,
          "durationTicks": 236,
          "midi": 60,
          "name": "C4",
          "ticks": 822240,
          "time": 685.2,
          "velocity": 0.9763779527559056
        },
        {
          "duration": 0.1966666666666015,
          "durationTicks": 236,
          "midi": 72,
          "name": "C5",
          "ticks": 822240,
          "time": 685.2,
          "velocity": 0.9763779527559056
        },
        {
          "duration": 0.1966666666666015,
          "durationTicks": 236,
          "midi": 55,
          "name": "G3",
          "ticks": 822480,
          "time": 685.4000000000001,
          "velocity": 0.9763779527559056
        },
        {
          "duration": 0.1966666666666015,
          "durationTicks": 236,
          "midi": 67,
          "name": "G4",
          "ticks": 822480,
          "time": 685.4000000000001,
          "velocity": 0.9763779527559056
        },
        {
          "duration": 0.1966666666666015,
          "durationTicks": 236,
          "midi": 60,
          "name": "C4",
          "ticks": 822720,
          "time": 685.6,
          "velocity": 0.9763779527559056
        },
        {
          "duration": 0.1966666666666015,
          "durationTicks": 236,
          "midi": 72,
          "name": "C5",
          "ticks": 822720,
          "time": 685.6,
          "velocity": 0.9763779527559056
        },
        {
          "duration": 0.1966666666666015,
          "durationTicks": 236,
          "midi": 55,
          "name": "G3",
          "ticks": 822960,
          "time": 685.8000000000001,
          "velocity": 0.9763779527559056
        },
        {
          "duration": 0.1966666666666015,
          "durationTicks": 236,
          "midi": 67,
          "name": "G4",
          "ticks": 822960,
          "time": 685.8000000000001,
          "velocity": 0.9763779527559056
        },
        {
          "duration": 0.19666666666671517,
          "durationTicks": 236,
          "midi": 60,
          "name": "C4",
          "ticks": 823200,
          "time": 686,
          "velocity": 0.984251968503937
        },
        {
          "duration": 0.19666666666671517,
          "durationTicks": 236,
          "midi": 72,
          "name": "C5",
          "ticks": 823200,
          "time": 686,
          "velocity": 0.984251968503937
        },
        {
          "duration": 0.1966666666666015,
          "durationTicks": 236,
          "midi": 55,
          "name": "G3",
          "ticks": 823440,
          "time": 686.2,
          "velocity": 0.9921259842519685
        },
        {
          "duration": 0.1966666666666015,
          "durationTicks": 236,
          "midi": 67,
          "name": "G4",
          "ticks": 823440,
          "time": 686.2,
          "velocity": 0.9921259842519685
        },
        {
          "duration": 0.33333333333325754,
          "durationTicks": 400,
          "midi": 60,
          "name": "C4",
          "ticks": 823680,
          "time": 686.4000000000001,
          "velocity": 1
        },
        {
          "duration": 0.33333333333325754,
          "durationTicks": 400,
          "midi": 72,
          "name": "C5",
          "ticks": 823680,
          "time": 686.4000000000001,
          "velocity": 1
        },
        {
          "duration": 0.33333333333325754,
          "durationTicks": 400,
          "midi": 64,
          "name": "E4",
          "ticks": 824160,
          "time": 686.8000000000001,
          "velocity": 1
        },
        {
          "duration": 0.33333333333325754,
          "durationTicks": 400,
          "midi": 76,
          "name": "E5",
          "ticks": 824160,
          "time": 686.8000000000001,
          "velocity": 1
        },
        {
          "duration": 0.33333333333325754,
          "durationTicks": 400,
          "midi": 67,
          "name": "G4",
          "ticks": 824640,
          "time": 687.2,
          "velocity": 1
        },
        {
          "duration": 0.33333333333325754,
          "durationTicks": 400,
          "midi": 79,
          "name": "G5",
          "ticks": 824640,
          "time": 687.2,
          "velocity": 1
        },
        {
          "duration": 0.33333333333337123,
          "durationTicks": 400,
          "midi": 64,
          "name": "E4",
          "ticks": 825120,
          "time": 687.6,
          "velocity": 1
        },
        {
          "duration": 0.33333333333337123,
          "durationTicks": 400,
          "midi": 76,
          "name": "E5",
          "ticks": 825120,
          "time": 687.6,
          "velocity": 1
        },
        {
          "duration": 0.19666666666671517,
          "durationTicks": 236,
          "midi": 60,
          "name": "C4",
          "ticks": 825600,
          "time": 688,
          "velocity": 1
        },
        {
          "duration": 0.19666666666671517,
          "durationTicks": 236,
          "midi": 72,
          "name": "C5",
          "ticks": 825600,
          "time": 688,
          "velocity": 1
        },
        {
          "duration": 0.1966666666666015,
          "durationTicks": 236,
          "midi": 55,
          "name": "G3",
          "ticks": 825840,
          "time": 688.2,
          "velocity": 1
        },
        {
          "duration": 0.1966666666666015,
          "durationTicks": 236,
          "midi": 67,
          "name": "G4",
          "ticks": 825840,
          "time": 688.2,
          "velocity": 1
        },
        {
          "duration": 0.1966666666666015,
          "durationTicks": 236,
          "midi": 60,
          "name": "C4",
          "ticks": 826080,
          "time": 688.4000000000001,
          "velocity": 1
        },
        {
          "duration": 0.1966666666666015,
          "durationTicks": 236,
          "midi": 72,
          "name": "C5",
          "ticks": 826080,
          "time": 688.4000000000001,
          "velocity": 1
        },
        {
          "duration": 0.1966666666666015,
          "durationTicks": 236,
          "midi": 55,
          "name": "G3",
          "ticks": 826320,
          "time": 688.6,
          "velocity": 1
        },
        {
          "duration": 0.1966666666666015,
          "durationTicks": 236,
          "midi": 67,
          "name": "G4",
          "ticks": 826320,
          "time": 688.6,
          "velocity": 1
        },
        {
          "duration": 0.1966666666666015,
          "durationTicks": 236,
          "midi": 60,
          "name": "C4",
          "ticks": 826560,
          "time": 688.8000000000001,
          "velocity": 1
        },
        {
          "duration": 0.1966666666666015,
          "durationTicks": 236,
          "midi": 72,
          "name": "C5",
          "ticks": 826560,
          "time": 688.8000000000001,
          "velocity": 1
        },
        {
          "duration": 0.19666666666671517,
          "durationTicks": 236,
          "midi": 55,
          "name": "G3",
          "ticks": 826800,
          "time": 689,
          "velocity": 1
        },
        {
          "duration": 0.19666666666671517,
          "durationTicks": 236,
          "midi": 67,
          "name": "G4",
          "ticks": 826800,
          "time": 689,
          "velocity": 1
        },
        {
          "duration": 0.1966666666666015,
          "durationTicks": 236,
          "midi": 60,
          "name": "C4",
          "ticks": 827040,
          "time": 689.2,
          "velocity": 1
        },
        {
          "duration": 0.1966666666666015,
          "durationTicks": 236,
          "midi": 72,
          "name": "C5",
          "ticks": 827040,
          "time": 689.2,
          "velocity": 1
        },
        {
          "duration": 0.1966666666666015,
          "durationTicks": 236,
          "midi": 55,
          "name": "G3",
          "ticks": 827280,
          "time": 689.4000000000001,
          "velocity": 1
        },
        {
          "duration": 0.1966666666666015,
          "durationTicks": 236,
          "midi": 67,
          "name": "G4",
          "ticks": 827280,
          "time": 689.4000000000001,
          "velocity": 1
        },
        {
          "duration": 0.38461500000005344,
          "durationTicks": 400,
          "midi": 60,
          "name": "C4",
          "ticks": 827520,
          "time": 689.6,
          "velocity": 1
        },
        {
          "duration": 0.38461500000005344,
          "durationTicks": 400,
          "midi": 72,
          "name": "C5",
          "ticks": 827520,
          "time": 689.6,
          "velocity": 1
        },
        {
          "duration": 0.1115383499999325,
          "durationTicks": 116,
          "midi": 64,
          "name": "E4",
          "ticks": 828360,
          "time": 690.4076915,
          "velocity": 1
        },
        {
          "duration": 0.1115383499999325,
          "durationTicks": 116,
          "midi": 67,
          "name": "G4",
          "ticks": 828360,
          "time": 690.4076915,
          "velocity": 1
        },
        {
          "duration": 0.4545458333333272,
          "durationTicks": 400,
          "midi": 64,
          "name": "E4",
          "ticks": 828480,
          "time": 690.5230760000001,
          "velocity": 1
        },
        {
          "duration": 0.4545458333333272,
          "durationTicks": 400,
          "midi": 67,
          "name": "G4",
          "ticks": 828480,
          "time": 690.5230760000001,
          "velocity": 1
        },
        {
          "duration": 0.13181829166660464,
          "durationTicks": 116,
          "midi": 60,
          "name": "C4",
          "ticks": 829320,
          "time": 691.4776222500001,
          "velocity": 1
        },
        {
          "duration": 0.13181829166660464,
          "durationTicks": 116,
          "midi": 64,
          "name": "E4",
          "ticks": 829320,
          "time": 691.4776222500001,
          "velocity": 1
        },
        {
          "duration": 1.0499999999999545,
          "durationTicks": 840,
          "midi": 60,
          "name": "C4",
          "ticks": 829440,
          "time": 691.6139860000001,
          "velocity": 1
        },
        {
          "duration": 1.0499999999999545,
          "durationTicks": 840,
          "midi": 64,
          "name": "E4",
          "ticks": 829440,
          "time": 691.6139860000001,
          "velocity": 1
        }
      ]
    },
    {
      "channel": 0,
      "controlChanges": {},
      "pitchBends": [],
      "instrument": {
        "family": "piano",
        "number": 0,
        "name": "acoustic grand piano"
      },
      "name": "Trombe",
      "notes": [],
      "endOfTrackTicks": 831360
    },
    {
      "channel": 4,
      "controlChanges": {
        "7": [
          {
            "number": 7,
            "ticks": 0,
            "time": 0,
            "value": 1
          }
        ],
        "10": [
          {
            "number": 10,
            "ticks": 0,
            "time": 0,
            "value": 0.905511811023622
          }
        ]
      },
      "pitchBends": [],
      "instrument": {
        "family": "brass",
        "number": 56,
        "name": "trumpet"
      },
      "name": "",
      "notes": [
        {
          "duration": 0.33333333333333337,
          "durationTicks": 400,
          "midi": 60,
          "name": "C4",
          "ticks": 0,
          "time": 0,
          "velocity": 0.8267716535433071
        },
        {
          "duration": 0.33333333333333337,
          "durationTicks": 400,
          "midi": 72,
          "name": "C5",
          "ticks": 0,
          "time": 0,
          "velocity": 0.8267716535433071
        },
        {
          "duration": 0.3333333333333335,
          "durationTicks": 400,
          "midi": 60,
          "name": "C4",
          "ticks": 960,
          "time": 0.8,
          "velocity": 0.8267716535433071
        },
        {
          "duration": 0.3333333333333335,
          "durationTicks": 400,
          "midi": 72,
          "name": "C5",
          "ticks": 960,
          "time": 0.8,
          "velocity": 0.8267716535433071
        },
        {
          "duration": 0.33333333333333326,
          "durationTicks": 400,
          "midi": 60,
          "name": "C4",
          "ticks": 1920,
          "time": 1.6,
          "velocity": 0.8267716535433071
        },
        {
          "duration": 0.33333333333333326,
          "durationTicks": 400,
          "midi": 72,
          "name": "C5",
          "ticks": 1920,
          "time": 1.6,
          "velocity": 0.8267716535433071
        },
        {
          "duration": 0.33333333333333304,
          "durationTicks": 400,
          "midi": 67,
          "name": "G4",
          "ticks": 7680,
          "time": 6.4,
          "velocity": 0.8267716535433071
        },
        {
          "duration": 0.33333333333333304,
          "durationTicks": 400,
          "midi": 67,
          "name": "G4",
          "ticks": 8640,
          "time": 7.2,
          "velocity": 0.8267716535433071
        },
        {
          "duration": 0.3333333333333339,
          "durationTicks": 400,
          "midi": 67,
          "name": "G4",
          "ticks": 9600,
          "time": 8,
          "velocity": 0.8267716535433071
        },
        {
          "duration": 0.29666666666666686,
          "durationTicks": 356,
          "midi": 60,
          "name": "C4",
          "ticks": 15840,
          "time": 13.200000000000001,
          "velocity": 0.8267716535433071
        },
        {
          "duration": 0.29666666666666686,
          "durationTicks": 356,
          "midi": 72,
          "name": "C5",
          "ticks": 15840,
          "time": 13.200000000000001,
          "velocity": 0.8267716535433071
        },
        {
          "duration": 0.09666666666666757,
          "durationTicks": 116,
          "midi": 60,
          "name": "C4",
          "ticks": 16200,
          "time": 13.5,
          "velocity": 0.8267716535433071
        },
        {
          "duration": 0.09666666666666757,
          "durationTicks": 116,
          "midi": 72,
          "name": "C5",
          "ticks": 16200,
          "time": 13.5,
          "velocity": 0.8267716535433071
        },
        {
          "duration": 0.3333333333333339,
          "durationTicks": 400,
          "midi": 60,
          "name": "C4",
          "ticks": 16320,
          "time": 13.600000000000001,
          "velocity": 0.8267716535433071
        },
        {
          "duration": 0.3333333333333339,
          "durationTicks": 400,
          "midi": 72,
          "name": "C5",
          "ticks": 16320,
          "time": 13.600000000000001,
          "velocity": 0.8267716535433071
        },
        {
          "duration": 0.29666666666666686,
          "durationTicks": 356,
          "midi": 60,
          "name": "C4",
          "ticks": 17760,
          "time": 14.8,
          "velocity": 0.8267716535433071
        },
        {
          "duration": 0.29666666666666686,
          "durationTicks": 356,
          "midi": 72,
          "name": "C5",
          "ticks": 17760,
          "time": 14.8,
          "velocity": 0.8267716535433071
        },
        {
          "duration": 0.09666666666666579,
          "durationTicks": 116,
          "midi": 60,
          "name": "C4",
          "ticks": 18120,
          "time": 15.100000000000001,
          "velocity": 0.8267716535433071
        },
        {
          "duration": 0.09666666666666579,
          "durationTicks": 116,
          "midi": 72,
          "name": "C5",
          "ticks": 18120,
          "time": 15.100000000000001,
          "velocity": 0.8267716535433071
        },
        {
          "duration": 0.3333333333333339,
          "durationTicks": 400,
          "midi": 60,
          "name": "C4",
          "ticks": 18240,
          "time": 15.200000000000001,
          "velocity": 0.8267716535433071
        },
        {
          "duration": 0.3333333333333339,
          "durationTicks": 400,
          "midi": 72,
          "name": "C5",
          "ticks": 18240,
          "time": 15.200000000000001,
          "velocity": 0.8267716535433071
        },
        {
          "duration": 0.29666666666666686,
          "durationTicks": 356,
          "midi": 67,
          "name": "G4",
          "ticks": 19680,
          "time": 16.400000000000002,
          "velocity": 0.8267716535433071
        },
        {
          "duration": 0.09666666666666757,
          "durationTicks": 116,
          "midi": 67,
          "name": "G4",
          "ticks": 20040,
          "time": 16.7,
          "velocity": 0.8267716535433071
        },
        {
          "duration": 0.3333333333333357,
          "durationTicks": 400,
          "midi": 67,
          "name": "G4",
          "ticks": 20160,
          "time": 16.8,
          "velocity": 0.8267716535433071
        },
        {
          "duration": 0.29666666666666686,
          "durationTicks": 356,
          "midi": 60,
          "name": "C4",
          "ticks": 21600,
          "time": 18,
          "velocity": 0.8267716535433071
        },
        {
          "duration": 0.29666666666666686,
          "durationTicks": 356,
          "midi": 72,
          "name": "C5",
          "ticks": 21600,
          "time": 18,
          "velocity": 0.8267716535433071
        },
        {
          "duration": 0.09666666666666757,
          "durationTicks": 116,
          "midi": 60,
          "name": "C4",
          "ticks": 21960,
          "time": 18.3,
          "velocity": 0.8267716535433071
        },
        {
          "duration": 0.09666666666666757,
          "durationTicks": 116,
          "midi": 72,
          "name": "C5",
          "ticks": 21960,
          "time": 18.3,
          "velocity": 0.8267716535433071
        },
        {
          "duration": 0.33333333333333215,
          "durationTicks": 400,
          "midi": 60,
          "name": "C4",
          "ticks": 22080,
          "time": 18.400000000000002,
          "velocity": 0.8267716535433071
        },
        {
          "duration": 0.33333333333333215,
          "durationTicks": 400,
          "midi": 72,
          "name": "C5",
          "ticks": 22080,
          "time": 18.400000000000002,
          "velocity": 0.8267716535433071
        },
        {
          "duration": 0.29666666666666686,
          "durationTicks": 356,
          "midi": 60,
          "name": "C4",
          "ticks": 23520,
          "time": 19.6,
          "velocity": 0.8267716535433071
        },
        {
          "duration": 0.29666666666666686,
          "durationTicks": 356,
          "midi": 72,
          "name": "C5",
          "ticks": 23520,
          "time": 19.6,
          "velocity": 0.8267716535433071
        },
        {
          "duration": 0.09666666666666757,
          "durationTicks": 116,
          "midi": 60,
          "name": "C4",
          "ticks": 23880,
          "time": 19.900000000000002,
          "velocity": 0.8267716535433071
        },
        {
          "duration": 0.09666666666666757,
          "durationTicks": 116,
          "midi": 72,
          "name": "C5",
          "ticks": 23880,
          "time": 19.900000000000002,
          "velocity": 0.8267716535433071
        },
        {
          "duration": 0.3333333333333357,
          "durationTicks": 400,
          "midi": 60,
          "name": "C4",
          "ticks": 24000,
          "time": 20,
          "velocity": 0.8267716535433071
        },
        {
          "duration": 0.3333333333333357,
          "durationTicks": 400,
          "midi": 72,
          "name": "C5",
          "ticks": 24000,
          "time": 20,
          "velocity": 0.8267716535433071
        },
        {
          "duration": 0.29666666666666686,
          "durationTicks": 356,
          "midi": 67,
          "name": "G4",
          "ticks": 25440,
          "time": 21.200000000000003,
          "velocity": 0.8267716535433071
        },
        {
          "duration": 0.09666666666666757,
          "durationTicks": 116,
          "midi": 67,
          "name": "G4",
          "ticks": 25800,
          "time": 21.5,
          "velocity": 0.8267716535433071
        },
        {
          "duration": 0.3333333333333357,
          "durationTicks": 400,
          "midi": 67,
          "name": "G4",
          "ticks": 25920,
          "time": 21.6,
          "velocity": 0.8267716535433071
        },
        {
          "duration": 0.33333333333333215,
          "durationTicks": 400,
          "midi": 55,
          "name": "G3",
          "ticks": 26880,
          "time": 22.400000000000002,
          "velocity": 0.8267716535433071
        },
        {
          "duration": 0.33333333333333215,
          "durationTicks": 400,
          "midi": 67,
          "name": "G4",
          "ticks": 26880,
          "time": 22.400000000000002,
          "velocity": 0.8267716535433071
        },
        {
          "duration": 0.33333333333333215,
          "durationTicks": 400,
          "midi": 55,
          "name": "G3",
          "ticks": 27840,
          "time": 23.200000000000003,
          "velocity": 0.8267716535433071
        },
        {
          "duration": 0.33333333333333215,
          "durationTicks": 400,
          "midi": 67,
          "name": "G4",
          "ticks": 27840,
          "time": 23.200000000000003,
          "velocity": 0.8267716535433071
        },
        {
          "duration": 0.3333333333333357,
          "durationTicks": 400,
          "midi": 55,
          "name": "G3",
          "ticks": 28800,
          "time": 24,
          "velocity": 0.8267716535433071
        },
        {
          "duration": 0.3333333333333357,
          "durationTicks": 400,
          "midi": 67,
          "name": "G4",
          "ticks": 28800,
          "time": 24,
          "velocity": 0.8267716535433071
        },
        {
          "duration": 0.3333333333333357,
          "durationTicks": 400,
          "midi": 55,
          "name": "G3",
          "ticks": 29760,
          "time": 24.8,
          "velocity": 0.8267716535433071
        },
        {
          "duration": 0.3333333333333357,
          "durationTicks": 400,
          "midi": 67,
          "name": "G4",
          "ticks": 29760,
          "time": 24.8,
          "velocity": 0.8267716535433071
        },
        {
          "duration": 0.33333333333333215,
          "durationTicks": 400,
          "midi": 55,
          "name": "G3",
          "ticks": 30720,
          "time": 25.6,
          "velocity": 0.8267716535433071
        },
        {
          "duration": 0.33333333333333215,
          "durationTicks": 400,
          "midi": 67,
          "name": "G4",
          "ticks": 30720,
          "time": 25.6,
          "velocity": 0.8267716535433071
        },
        {
          "duration": 0.33333333333333215,
          "durationTicks": 400,
          "midi": 67,
          "name": "G4",
          "ticks": 31200,
          "time": 26,
          "velocity": 0.8267716535433071
        },
        {
          "duration": 0.33333333333333215,
          "durationTicks": 400,
          "midi": 72,
          "name": "C5",
          "ticks": 31680,
          "time": 26.400000000000002,
          "velocity": 0.8267716535433071
        },
        {
          "duration": 0.33333333333333215,
          "durationTicks": 400,
          "midi": 67,
          "name": "G4",
          "ticks": 32160,
          "time": 26.8,
          "velocity": 0.8267716535433071
        },
        {
          "duration": 0.3333333333333286,
          "durationTicks": 400,
          "midi": 72,
          "name": "C5",
          "ticks": 32640,
          "time": 27.200000000000003,
          "velocity": 0.8267716535433071
        },
        {
          "duration": 0.33333333333333215,
          "durationTicks": 400,
          "midi": 67,
          "name": "G4",
          "ticks": 33120,
          "time": 27.6,
          "velocity": 0.8267716535433071
        },
        {
          "duration": 0.33333333333333215,
          "durationTicks": 400,
          "midi": 64,
          "name": "E4",
          "ticks": 33600,
          "time": 28,
          "velocity": 0.8267716535433071
        },
        {
          "duration": 0.33333333333333215,
          "durationTicks": 400,
          "midi": 60,
          "name": "C4",
          "ticks": 34080,
          "time": 28.400000000000002,
          "velocity": 0.8267716535433071
        },
        {
          "duration": 0.33333333333333215,
          "durationTicks": 400,
          "midi": 55,
          "name": "G3",
          "ticks": 34560,
          "time": 28.8,
          "velocity": 0.8267716535433071
        },
        {
          "duration": 0.33333333333333215,
          "durationTicks": 400,
          "midi": 67,
          "name": "G4",
          "ticks": 34560,
          "time": 28.8,
          "velocity": 0.8267716535433071
        },
        {
          "duration": 0.33333333333333215,
          "durationTicks": 400,
          "midi": 55,
          "name": "G3",
          "ticks": 35520,
          "time": 29.6,
          "velocity": 0.8267716535433071
        },
        {
          "duration": 0.33333333333333215,
          "durationTicks": 400,
          "midi": 67,
          "name": "G4",
          "ticks": 35520,
          "time": 29.6,
          "velocity": 0.8267716535433071
        },
        {
          "duration": 0.33333333333333215,
          "durationTicks": 400,
          "midi": 55,
          "name": "G3",
          "ticks": 36480,
          "time": 30.400000000000002,
          "velocity": 0.8267716535433071
        },
        {
          "duration": 0.33333333333333215,
          "durationTicks": 400,
          "midi": 67,
          "name": "G4",
          "ticks": 36480,
          "time": 30.400000000000002,
          "velocity": 0.8267716535433071
        },
        {
          "duration": 0.3333333333333286,
          "durationTicks": 400,
          "midi": 55,
          "name": "G3",
          "ticks": 37440,
          "time": 31.200000000000003,
          "velocity": 0.8267716535433071
        },
        {
          "duration": 0.3333333333333286,
          "durationTicks": 400,
          "midi": 67,
          "name": "G4",
          "ticks": 37440,
          "time": 31.200000000000003,
          "velocity": 0.8267716535433071
        },
        {
          "duration": 0.19666666666666544,
          "durationTicks": 236,
          "midi": 55,
          "name": "G3",
          "ticks": 38400,
          "time": 32,
          "velocity": 0.8267716535433071
        },
        {
          "duration": 0.19666666666666544,
          "durationTicks": 236,
          "midi": 67,
          "name": "G4",
          "ticks": 38400,
          "time": 32,
          "velocity": 0.8267716535433071
        },
        {
          "duration": 0.19666666666666544,
          "durationTicks": 236,
          "midi": 55,
          "name": "G3",
          "ticks": 38640,
          "time": 32.2,
          "velocity": 0.8346456692913385
        },
        {
          "duration": 0.19666666666666544,
          "durationTicks": 236,
          "midi": 67,
          "name": "G4",
          "ticks": 38640,
          "time": 32.2,
          "velocity": 0.8346456692913385
        },
        {
          "duration": 0.19666666666666544,
          "durationTicks": 236,
          "midi": 55,
          "name": "G3",
          "ticks": 38880,
          "time": 32.4,
          "velocity": 0.8503937007874016
        },
        {
          "duration": 0.19666666666666544,
          "durationTicks": 236,
          "midi": 67,
          "name": "G4",
          "ticks": 38880,
          "time": 32.4,
          "velocity": 0.8503937007874016
        },
        {
          "duration": 0.19666666666666544,
          "durationTicks": 236,
          "midi": 55,
          "name": "G3",
          "ticks": 39120,
          "time": 32.6,
          "velocity": 0.8582677165354331
        },
        {
          "duration": 0.19666666666666544,
          "durationTicks": 236,
          "midi": 67,
          "name": "G4",
          "ticks": 39120,
          "time": 32.6,
          "velocity": 0.8582677165354331
        },
        {
          "duration": 0.19666666666665833,
          "durationTicks": 236,
          "midi": 55,
          "name": "G3",
          "ticks": 39360,
          "time": 32.800000000000004,
          "velocity": 0.8661417322834646
        },
        {
          "duration": 0.19666666666665833,
          "durationTicks": 236,
          "midi": 67,
          "name": "G4",
          "ticks": 39360,
          "time": 32.800000000000004,
          "velocity": 0.8661417322834646
        },
        {
          "duration": 0.19666666666666544,
          "durationTicks": 236,
          "midi": 55,
          "name": "G3",
          "ticks": 39600,
          "time": 33,
          "velocity": 0.8740157480314961
        },
        {
          "duration": 0.19666666666666544,
          "durationTicks": 236,
          "midi": 67,
          "name": "G4",
          "ticks": 39600,
          "time": 33,
          "velocity": 0.8740157480314961
        },
        {
          "duration": 0.19666666666666544,
          "durationTicks": 236,
          "midi": 55,
          "name": "G3",
          "ticks": 39840,
          "time": 33.2,
          "velocity": 0.8818897637795275
        },
        {
          "duration": 0.19666666666666544,
          "durationTicks": 236,
          "midi": 67,
          "name": "G4",
          "ticks": 39840,
          "time": 33.2,
          "velocity": 0.8818897637795275
        },
        {
          "duration": 0.19666666666666544,
          "durationTicks": 236,
          "midi": 55,
          "name": "G3",
          "ticks": 40080,
          "time": 33.4,
          "velocity": 0.889763779527559
        },
        {
          "duration": 0.19666666666666544,
          "durationTicks": 236,
          "midi": 67,
          "name": "G4",
          "ticks": 40080,
          "time": 33.4,
          "velocity": 0.889763779527559
        },
        {
          "duration": 0.3333333333333286,
          "durationTicks": 400,
          "midi": 55,
          "name": "G3",
          "ticks": 40320,
          "time": 33.6,
          "velocity": 0.905511811023622
        },
        {
          "duration": 0.3333333333333286,
          "durationTicks": 400,
          "midi": 67,
          "name": "G4",
          "ticks": 40320,
          "time": 33.6,
          "velocity": 0.905511811023622
        },
        {
          "duration": 0.3333333333333357,
          "durationTicks": 400,
          "midi": 55,
          "name": "G3",
          "ticks": 41280,
          "time": 34.4,
          "velocity": 0.937007874015748
        },
        {
          "duration": 0.3333333333333357,
          "durationTicks": 400,
          "midi": 67,
          "name": "G4",
          "ticks": 41280,
          "time": 34.4,
          "velocity": 0.937007874015748
        },
        {
          "duration": 0.3333333333333286,
          "durationTicks": 400,
          "midi": 55,
          "name": "G3",
          "ticks": 41760,
          "time": 34.800000000000004,
          "velocity": 0.952755905511811
        },
        {
          "duration": 0.3333333333333286,
          "durationTicks": 400,
          "midi": 67,
          "name": "G4",
          "ticks": 41760,
          "time": 34.800000000000004,
          "velocity": 0.952755905511811
        },
        {
          "duration": 1.5,
          "durationTicks": 1800,
          "midi": 55,
          "name": "G3",
          "ticks": 42240,
          "time": 35.2,
          "velocity": 0.9763779527559056
        },
        {
          "duration": 1.5,
          "durationTicks": 1800,
          "midi": 67,
          "name": "G4",
          "ticks": 42240,
          "time": 35.2,
          "velocity": 0.9763779527559056
        },
        {
          "duration": 0.3333333333333357,
          "durationTicks": 400,
          "midi": 67,
          "name": "G4",
          "ticks": 69120,
          "time": 57.6,
          "velocity": 0.8267716535433071
        },
        {
          "duration": 0.3333333333333357,
          "durationTicks": 400,
          "midi": 67,
          "name": "G4",
          "ticks": 70080,
          "time": 58.400000000000006,
          "velocity": 0.8267716535433071
        },
        {
          "duration": 0.3333333333333357,
          "durationTicks": 400,
          "midi": 67,
          "name": "G4",
          "ticks": 71040,
          "time": 59.2,
          "velocity": 0.8267716535433071
        },
        {
          "duration": 1.6000000000000014,
          "durationTicks": 1920,
          "midi": 67,
          "name": "G4",
          "ticks": 72960,
          "time": 60.800000000000004,
          "velocity": 0.8267716535433071
        },
        {
          "duration": 0.3333333333333357,
          "durationTicks": 400,
          "midi": 67,
          "name": "G4",
          "ticks": 74880,
          "time": 62.400000000000006,
          "velocity": 0.8267716535433071
        },
        {
          "duration": 0.29666666666666686,
          "durationTicks": 356,
          "midi": 67,
          "name": "G4",
          "ticks": 75360,
          "time": 62.800000000000004,
          "velocity": 0.8267716535433071
        },
        {
          "duration": 0.09666666666667112,
          "durationTicks": 116,
          "midi": 67,
          "name": "G4",
          "ticks": 75720,
          "time": 63.1,
          "velocity": 0.8267716535433071
        },
        {
          "duration": 0.3333333333333357,
          "durationTicks": 400,
          "midi": 67,
          "name": "G4",
          "ticks": 75840,
          "time": 63.2,
          "velocity": 0.8267716535433071
        },
        {
          "duration": 0.3333333333333357,
          "durationTicks": 400,
          "midi": 67,
          "name": "G4",
          "ticks": 76320,
          "time": 63.6,
          "velocity": 0.8267716535433071
        },
        {
          "duration": 1.6000000000000085,
          "durationTicks": 1920,
          "midi": 67,
          "name": "G4",
          "ticks": 76800,
          "time": 64,
          "velocity": 0.8267716535433071
        },
        {
          "duration": 0.3333333333333286,
          "durationTicks": 400,
          "midi": 67,
          "name": "G4",
          "ticks": 78720,
          "time": 65.60000000000001,
          "velocity": 0.8267716535433071
        },
        {
          "duration": 0.29666666666666686,
          "durationTicks": 356,
          "midi": 67,
          "name": "G4",
          "ticks": 79200,
          "time": 66,
          "velocity": 0.8267716535433071
        },
        {
          "duration": 0.09666666666667822,
          "durationTicks": 116,
          "midi": 67,
          "name": "G4",
          "ticks": 79560,
          "time": 66.3,
          "velocity": 0.8267716535433071
        },
        {
          "duration": 0.3333333333333286,
          "durationTicks": 400,
          "midi": 67,
          "name": "G4",
          "ticks": 79680,
          "time": 66.4,
          "velocity": 0.8267716535433071
        },
        {
          "duration": 0.3333333333333428,
          "durationTicks": 400,
          "midi": 67,
          "name": "G4",
          "ticks": 80160,
          "time": 66.8,
          "velocity": 0.8267716535433071
        },
        {
          "duration": 1.5999999999999943,
          "durationTicks": 1920,
          "midi": 67,
          "name": "G4",
          "ticks": 80640,
          "time": 67.2,
          "velocity": 0.8267716535433071
        },
        {
          "duration": 0.3333333333333428,
          "durationTicks": 400,
          "midi": 67,
          "name": "G4",
          "ticks": 82560,
          "time": 68.8,
          "velocity": 0.8267716535433071
        },
        {
          "duration": 0.29666666666666686,
          "durationTicks": 356,
          "midi": 67,
          "name": "G4",
          "ticks": 83040,
          "time": 69.2,
          "velocity": 0.8267716535433071
        },
        {
          "duration": 0.09666666666667822,
          "durationTicks": 116,
          "midi": 67,
          "name": "G4",
          "ticks": 83400,
          "time": 69.5,
          "velocity": 0.8267716535433071
        },
        {
          "duration": 0.3333333333333286,
          "durationTicks": 400,
          "midi": 67,
          "name": "G4",
          "ticks": 83520,
          "time": 69.60000000000001,
          "velocity": 0.8267716535433071
        },
        {
          "duration": 0.3333333333333428,
          "durationTicks": 400,
          "midi": 67,
          "name": "G4",
          "ticks": 84000,
          "time": 70,
          "velocity": 0.8267716535433071
        },
        {
          "duration": 0.3333333333333286,
          "durationTicks": 400,
          "midi": 67,
          "name": "G4",
          "ticks": 84480,
          "time": 70.4,
          "velocity": 0.8267716535433071
        },
        {
          "duration": 0.29666666666668107,
          "durationTicks": 356,
          "midi": 67,
          "name": "G4",
          "ticks": 84960,
          "time": 70.8,
          "velocity": 0.8267716535433071
        },
        {
          "duration": 0.09666666666666401,
          "durationTicks": 116,
          "midi": 67,
          "name": "G4",
          "ticks": 85320,
          "time": 71.10000000000001,
          "velocity": 0.8267716535433071
        },
        {
          "duration": 0.3333333333333428,
          "durationTicks": 400,
          "midi": 67,
          "name": "G4",
          "ticks": 85440,
          "time": 71.2,
          "velocity": 0.8267716535433071
        },
        {
          "duration": 0.3333333333333286,
          "durationTicks": 400,
          "midi": 67,
          "name": "G4",
          "ticks": 85920,
          "time": 71.60000000000001,
          "velocity": 0.8267716535433071
        },
        {
          "duration": 0.3333333333333428,
          "durationTicks": 400,
          "midi": 67,
          "name": "G4",
          "ticks": 86400,
          "time": 72,
          "velocity": 0.8267716535433071
        },
        {
          "duration": 0.29666666666666686,
          "durationTicks": 356,
          "midi": 67,
          "name": "G4",
          "ticks": 86880,
          "time": 72.4,
          "velocity": 0.8267716535433071
        },
        {
          "duration": 0.09666666666666401,
          "durationTicks": 116,
          "midi": 67,
          "name": "G4",
          "ticks": 87240,
          "time": 72.7,
          "velocity": 0.8267716535433071
        },
        {
          "duration": 0.3333333333333428,
          "durationTicks": 400,
          "midi": 67,
          "name": "G4",
          "ticks": 87360,
          "time": 72.8,
          "velocity": 0.8267716535433071
        },
        {
          "duration": 0.3333333333333428,
          "durationTicks": 400,
          "midi": 67,
          "name": "G4",
          "ticks": 87840,
          "time": 73.2,
          "velocity": 0.8267716535433071
        },
        {
          "duration": 0.3333333333333286,
          "durationTicks": 400,
          "midi": 72,
          "name": "C5",
          "ticks": 88320,
          "time": 73.60000000000001,
          "velocity": 0.8267716535433071
        },
        {
          "duration": 0.3333333333333428,
          "durationTicks": 400,
          "midi": 74,
          "name": "D5",
          "ticks": 88800,
          "time": 74,
          "velocity": 0.8267716535433071
        },
        {
          "duration": 0.3333333333333286,
          "durationTicks": 400,
          "midi": 72,
          "name": "C5",
          "ticks": 89280,
          "time": 74.4,
          "velocity": 0.8267716535433071
        },
        {
          "duration": 0.3333333333333428,
          "durationTicks": 400,
          "midi": 74,
          "name": "D5",
          "ticks": 89760,
          "time": 74.8,
          "velocity": 0.8267716535433071
        },
        {
          "duration": 0.7000000000000028,
          "durationTicks": 840,
          "midi": 72,
          "name": "C5",
          "ticks": 90240,
          "time": 75.2,
          "velocity": 0.8267716535433071
        },
        {
          "duration": 0.6999999999999886,
          "durationTicks": 840,
          "midi": 74,
          "name": "D5",
          "ticks": 92160,
          "time": 76.80000000000001,
          "velocity": 0.8267716535433071
        },
        {
          "duration": 0.3333333333333286,
          "durationTicks": 400,
          "midi": 74,
          "name": "D5",
          "ticks": 93120,
          "time": 77.60000000000001,
          "velocity": 0.8267716535433071
        },
        {
          "duration": 0.3333333333333428,
          "durationTicks": 400,
          "midi": 74,
          "name": "D5",
          "ticks": 93600,
          "time": 78,
          "velocity": 0.8267716535433071
        },
        {
          "duration": 0.7000000000000028,
          "durationTicks": 840,
          "midi": 74,
          "name": "D5",
          "ticks": 94080,
          "time": 78.4,
          "velocity": 0.8267716535433071
        },
        {
          "duration": 0.3333333333333428,
          "durationTicks": 400,
          "midi": 74,
          "name": "D5",
          "ticks": 95040,
          "time": 79.2,
          "velocity": 0.8267716535433071
        },
        {
          "duration": 0.3333333333333286,
          "durationTicks": 400,
          "midi": 74,
          "name": "D5",
          "ticks": 95520,
          "time": 79.60000000000001,
          "velocity": 0.8267716535433071
        },
        {
          "duration": 0.7000000000000028,
          "durationTicks": 840,
          "midi": 74,
          "name": "D5",
          "ticks": 96000,
          "time": 80,
          "velocity": 0.8267716535433071
        },
        {
          "duration": 0.3333333333333286,
          "durationTicks": 400,
          "midi": 74,
          "name": "D5",
          "ticks": 96960,
          "time": 80.80000000000001,
          "velocity": 0.8267716535433071
        },
        {
          "duration": 0.3333333333333428,
          "durationTicks": 400,
          "midi": 74,
          "name": "D5",
          "ticks": 97440,
          "time": 81.2,
          "velocity": 0.8267716535433071
        },
        {
          "duration": 0.7000000000000028,
          "durationTicks": 840,
          "midi": 74,
          "name": "D5",
          "ticks": 97920,
          "time": 81.60000000000001,
          "velocity": 0.8267716535433071
        },
        {
          "duration": 0.3333333333333428,
          "durationTicks": 400,
          "midi": 74,
          "name": "D5",
          "ticks": 98880,
          "time": 82.4,
          "velocity": 0.8267716535433071
        },
        {
          "duration": 0.3333333333333286,
          "durationTicks": 400,
          "midi": 74,
          "name": "D5",
          "ticks": 99360,
          "time": 82.80000000000001,
          "velocity": 0.8267716535433071
        },
        {
          "duration": 0.3333333333333428,
          "durationTicks": 400,
          "midi": 74,
          "name": "D5",
          "ticks": 99840,
          "time": 83.2,
          "velocity": 0.8267716535433071
        },
        {
          "duration": 0.3333333333333428,
          "durationTicks": 400,
          "midi": 67,
          "name": "G4",
          "ticks": 100800,
          "time": 84,
          "velocity": 0.8267716535433071
        },
        {
          "duration": 0.3333333333333428,
          "durationTicks": 400,
          "midi": 74,
          "name": "D5",
          "ticks": 100800,
          "time": 84,
          "velocity": 0.8267716535433071
        },
        {
          "duration": 0.3333333333333286,
          "durationTicks": 400,
          "midi": 74,
          "name": "D5",
          "ticks": 101760,
          "time": 84.80000000000001,
          "velocity": 0.8267716535433071
        },
        {
          "duration": 0.3333333333333286,
          "durationTicks": 400,
          "midi": 67,
          "name": "G4",
          "ticks": 102720,
          "time": 85.60000000000001,
          "velocity": 0.8267716535433071
        },
        {
          "duration": 0.3333333333333286,
          "durationTicks": 400,
          "midi": 74,
          "name": "D5",
          "ticks": 102720,
          "time": 85.60000000000001,
          "velocity": 0.8267716535433071
        },
        {
          "duration": 0.3333333333333428,
          "durationTicks": 400,
          "midi": 74,
          "name": "D5",
          "ticks": 103680,
          "time": 86.4,
          "velocity": 0.8267716535433071
        },
        {
          "duration": 1.5,
          "durationTicks": 1800,
          "midi": 60,
          "name": "C4",
          "ticks": 153600,
          "time": 128,
          "velocity": 0.8267716535433071
        },
        {
          "duration": 1.5,
          "durationTicks": 1800,
          "midi": 67,
          "name": "G4",
          "ticks": 153600,
          "time": 128,
          "velocity": 0.8267716535433071
        },
        {
          "duration": 0.20000000000001705,
          "durationTicks": 240,
          "midi": 60,
          "name": "C4",
          "ticks": 155520,
          "time": 129.6,
          "velocity": 0.8267716535433071
        },
        {
          "duration": 0.20000000000001705,
          "durationTicks": 240,
          "midi": 67,
          "name": "G4",
          "ticks": 155520,
          "time": 129.6,
          "velocity": 0.8267716535433071
        },
        {
          "duration": 0.19999999999998863,
          "durationTicks": 240,
          "midi": 60,
          "name": "C4",
          "ticks": 156480,
          "time": 130.4,
          "velocity": 0.8267716535433071
        },
        {
          "duration": 0.19999999999998863,
          "durationTicks": 240,
          "midi": 67,
          "name": "G4",
          "ticks": 156480,
          "time": 130.4,
          "velocity": 0.8267716535433071
        },
        {
          "duration": 0.19999999999998863,
          "durationTicks": 240,
          "midi": 60,
          "name": "C4",
          "ticks": 157440,
          "time": 131.20000000000002,
          "velocity": 0.8267716535433071
        },
        {
          "duration": 0.19999999999998863,
          "durationTicks": 240,
          "midi": 67,
          "name": "G4",
          "ticks": 157440,
          "time": 131.20000000000002,
          "velocity": 0.8267716535433071
        },
        {
          "duration": 0.5333333333333314,
          "durationTicks": 640,
          "midi": 60,
          "name": "C4",
          "ticks": 158400,
          "time": 132,
          "velocity": 0.8267716535433071
        },
        {
          "duration": 0.5333333333333314,
          "durationTicks": 640,
          "midi": 72,
          "name": "C5",
          "ticks": 158400,
          "time": 132,
          "velocity": 0.8267716535433071
        },
        {
          "duration": 0.19666666666668675,
          "durationTicks": 236,
          "midi": 60,
          "name": "C4",
          "ticks": 159120,
          "time": 132.6,
          "velocity": 0.8267716535433071
        },
        {
          "duration": 0.19666666666668675,
          "durationTicks": 236,
          "midi": 72,
          "name": "C5",
          "ticks": 159120,
          "time": 132.6,
          "velocity": 0.8267716535433071
        },
        {
          "duration": 0.3333333333333144,
          "durationTicks": 400,
          "midi": 60,
          "name": "C4",
          "ticks": 159360,
          "time": 132.8,
          "velocity": 0.8267716535433071
        },
        {
          "duration": 0.3333333333333144,
          "durationTicks": 400,
          "midi": 72,
          "name": "C5",
          "ticks": 159360,
          "time": 132.8,
          "velocity": 0.8267716535433071
        },
        {
          "duration": 0.3333333333333144,
          "durationTicks": 400,
          "midi": 60,
          "name": "C4",
          "ticks": 159840,
          "time": 133.20000000000002,
          "velocity": 0.8267716535433071
        },
        {
          "duration": 0.3333333333333144,
          "durationTicks": 400,
          "midi": 72,
          "name": "C5",
          "ticks": 159840,
          "time": 133.20000000000002,
          "velocity": 0.8267716535433071
        },
        {
          "duration": 0.3333333333333428,
          "durationTicks": 400,
          "midi": 60,
          "name": "C4",
          "ticks": 160320,
          "time": 133.6,
          "velocity": 0.8267716535433071
        },
        {
          "duration": 0.3333333333333428,
          "durationTicks": 400,
          "midi": 72,
          "name": "C5",
          "ticks": 160320,
          "time": 133.6,
          "velocity": 0.8267716535433071
        },
        {
          "duration": 0.3333333333333428,
          "durationTicks": 400,
          "midi": 60,
          "name": "C4",
          "ticks": 160800,
          "time": 134,
          "velocity": 0.8267716535433071
        },
        {
          "duration": 0.3333333333333428,
          "durationTicks": 400,
          "midi": 72,
          "name": "C5",
          "ticks": 160800,
          "time": 134,
          "velocity": 0.8267716535433071
        },
        {
          "duration": 0.6999999999999886,
          "durationTicks": 840,
          "midi": 60,
          "name": "C4",
          "ticks": 161280,
          "time": 134.4,
          "velocity": 0.8267716535433071
        },
        {
          "duration": 0.6999999999999886,
          "durationTicks": 840,
          "midi": 72,
          "name": "C5",
          "ticks": 161280,
          "time": 134.4,
          "velocity": 0.8267716535433071
        },
        {
          "duration": 0.6999999999999886,
          "durationTicks": 840,
          "midi": 67,
          "name": "G4",
          "ticks": 162240,
          "time": 135.20000000000002,
          "velocity": 0.8267716535433071
        },
        {
          "duration": 0.6999999999999886,
          "durationTicks": 840,
          "midi": 79,
          "name": "G5",
          "ticks": 162240,
          "time": 135.20000000000002,
          "velocity": 0.8267716535433071
        },
        {
          "duration": 0.700000000000017,
          "durationTicks": 840,
          "midi": 64,
          "name": "E4",
          "ticks": 163200,
          "time": 136,
          "velocity": 0.8267716535433071
        },
        {
          "duration": 0.700000000000017,
          "durationTicks": 840,
          "midi": 76,
          "name": "E5",
          "ticks": 163200,
          "time": 136,
          "velocity": 0.8267716535433071
        },
        {
          "duration": 0.6999999999999886,
          "durationTicks": 840,
          "midi": 60,
          "name": "C4",
          "ticks": 164160,
          "time": 136.8,
          "velocity": 0.8267716535433071
        },
        {
          "duration": 0.6999999999999886,
          "durationTicks": 840,
          "midi": 72,
          "name": "C5",
          "ticks": 164160,
          "time": 136.8,
          "velocity": 0.8267716535433071
        },
        {
          "duration": 1.5,
          "durationTicks": 1800,
          "midi": 67,
          "name": "G4",
          "ticks": 165120,
          "time": 137.6,
          "velocity": 0.8267716535433071
        },
        {
          "duration": 1.5,
          "durationTicks": 1800,
          "midi": 74,
          "name": "D5",
          "ticks": 165120,
          "time": 137.6,
          "velocity": 0.8267716535433071
        },
        {
          "duration": 0.3333333333333144,
          "durationTicks": 400,
          "midi": 67,
          "name": "G4",
          "ticks": 167040,
          "time": 139.20000000000002,
          "velocity": 0.8267716535433071
        },
        {
          "duration": 0.3333333333333144,
          "durationTicks": 400,
          "midi": 74,
          "name": "D5",
          "ticks": 167040,
          "time": 139.20000000000002,
          "velocity": 0.8267716535433071
        },
        {
          "duration": 0.3333333333333428,
          "durationTicks": 400,
          "midi": 74,
          "name": "D5",
          "ticks": 168000,
          "time": 140,
          "velocity": 0.8267716535433071
        },
        {
          "duration": 0.6999999999999886,
          "durationTicks": 840,
          "midi": 67,
          "name": "G4",
          "ticks": 168960,
          "time": 140.8,
          "velocity": 0.8267716535433071
        },
        {
          "duration": 0.3333333333333428,
          "durationTicks": 400,
          "midi": 67,
          "name": "G4",
          "ticks": 169920,
          "time": 141.6,
          "velocity": 0.8267716535433071
        },
        {
          "duration": 0.3333333333333428,
          "durationTicks": 400,
          "midi": 67,
          "name": "G4",
          "ticks": 170400,
          "time": 142,
          "velocity": 0.8267716535433071
        },
        {
          "duration": 0.6999999999999886,
          "durationTicks": 840,
          "midi": 67,
          "name": "G4",
          "ticks": 170880,
          "time": 142.4,
          "velocity": 0.8267716535433071
        },
        {
          "duration": 0.3333333333333144,
          "durationTicks": 400,
          "midi": 67,
          "name": "G4",
          "ticks": 171840,
          "time": 143.20000000000002,
          "velocity": 0.8267716535433071
        },
        {
          "duration": 0.3333333333333428,
          "durationTicks": 400,
          "midi": 67,
          "name": "G4",
          "ticks": 172320,
          "time": 143.6,
          "velocity": 0.8267716535433071
        },
        {
          "duration": 0.700000000000017,
          "durationTicks": 840,
          "midi": 67,
          "name": "G4",
          "ticks": 172800,
          "time": 144,
          "velocity": 0.8267716535433071
        },
        {
          "duration": 0.3333333333333144,
          "durationTicks": 400,
          "midi": 67,
          "name": "G4",
          "ticks": 173760,
          "time": 144.8,
          "velocity": 0.8267716535433071
        },
        {
          "duration": 0.3333333333333144,
          "durationTicks": 400,
          "midi": 67,
          "name": "G4",
          "ticks": 174240,
          "time": 145.20000000000002,
          "velocity": 0.8267716535433071
        },
        {
          "duration": 0.3333333333333428,
          "durationTicks": 400,
          "midi": 67,
          "name": "G4",
          "ticks": 174720,
          "time": 145.6,
          "velocity": 0.6771653543307087
        },
        {
          "duration": 0.3333333333333144,
          "durationTicks": 400,
          "midi": 67,
          "name": "G4",
          "ticks": 175680,
          "time": 146.4,
          "velocity": 0.6771653543307087
        },
        {
          "duration": 0.6999999999999886,
          "durationTicks": 840,
          "midi": 72,
          "name": "C5",
          "ticks": 176640,
          "time": 147.20000000000002,
          "velocity": 0.6771653543307087
        },
        {
          "duration": 0.6999999999999886,
          "durationTicks": 840,
          "midi": 76,
          "name": "E5",
          "ticks": 176640,
          "time": 147.20000000000002,
          "velocity": 0.6771653543307087
        },
        {
          "duration": 0.700000000000017,
          "durationTicks": 840,
          "midi": 74,
          "name": "D5",
          "ticks": 177600,
          "time": 148,
          "velocity": 0.6771653543307087
        },
        {
          "duration": 0.6999999999999886,
          "durationTicks": 840,
          "midi": 67,
          "name": "G4",
          "ticks": 178560,
          "time": 148.8,
          "velocity": 0.6771653543307087
        },
        {
          "duration": 0.3333333333333428,
          "durationTicks": 400,
          "midi": 67,
          "name": "G4",
          "ticks": 179520,
          "time": 149.6,
          "velocity": 0.6771653543307087
        },
        {
          "duration": 0.3333333333333428,
          "durationTicks": 400,
          "midi": 67,
          "name": "G4",
          "ticks": 180000,
          "time": 150,
          "velocity": 0.6771653543307087
        },
        {
          "duration": 0.6999999999999886,
          "durationTicks": 840,
          "midi": 67,
          "name": "G4",
          "ticks": 180480,
          "time": 150.4,
          "velocity": 0.6771653543307087
        },
        {
          "duration": 0.3333333333333144,
          "durationTicks": 400,
          "midi": 67,
          "name": "G4",
          "ticks": 181440,
          "time": 151.20000000000002,
          "velocity": 0.6771653543307087
        },
        {
          "duration": 0.3333333333333428,
          "durationTicks": 400,
          "midi": 67,
          "name": "G4",
          "ticks": 181920,
          "time": 151.6,
          "velocity": 0.6771653543307087
        },
        {
          "duration": 0.700000000000017,
          "durationTicks": 840,
          "midi": 67,
          "name": "G4",
          "ticks": 182400,
          "time": 152,
          "velocity": 0.6771653543307087
        },
        {
          "duration": 0.3333333333333144,
          "durationTicks": 400,
          "midi": 67,
          "name": "G4",
          "ticks": 183360,
          "time": 152.8,
          "velocity": 0.6771653543307087
        },
        {
          "duration": 0.3333333333333144,
          "durationTicks": 400,
          "midi": 67,
          "name": "G4",
          "ticks": 183840,
          "time": 153.20000000000002,
          "velocity": 0.6771653543307087
        },
        {
          "duration": 0.3333333333333144,
          "durationTicks": 400,
          "midi": 67,
          "name": "G4",
          "ticks": 184320,
          "time": 153.60000000000002,
          "velocity": 0.6771653543307087
        },
        {
          "duration": 0.3333333333333144,
          "durationTicks": 400,
          "midi": 64,
          "name": "E4",
          "ticks": 185760,
          "time": 154.8,
          "velocity": 0.6771653543307087
        },
        {
          "duration": 0.3333333333333144,
          "durationTicks": 400,
          "midi": 76,
          "name": "E5",
          "ticks": 185760,
          "time": 154.8,
          "velocity": 0.6771653543307087
        },
        {
          "duration": 0.3333333333333144,
          "durationTicks": 400,
          "midi": 60,
          "name": "C4",
          "ticks": 186240,
          "time": 155.20000000000002,
          "velocity": 0.6771653543307087
        },
        {
          "duration": 0.3333333333333144,
          "durationTicks": 400,
          "midi": 72,
          "name": "C5",
          "ticks": 186240,
          "time": 155.20000000000002,
          "velocity": 0.6771653543307087
        },
        {
          "duration": 0.3333333333333428,
          "durationTicks": 400,
          "midi": 60,
          "name": "C4",
          "ticks": 187200,
          "time": 156,
          "velocity": 0.6771653543307087
        },
        {
          "duration": 0.3333333333333428,
          "durationTicks": 400,
          "midi": 72,
          "name": "C5",
          "ticks": 187200,
          "time": 156,
          "velocity": 0.6771653543307087
        },
        {
          "duration": 0.3333333333333144,
          "durationTicks": 400,
          "midi": 60,
          "name": "C4",
          "ticks": 188160,
          "time": 156.8,
          "velocity": 0.6771653543307087
        },
        {
          "duration": 0.3333333333333144,
          "durationTicks": 400,
          "midi": 72,
          "name": "C5",
          "ticks": 188160,
          "time": 156.8,
          "velocity": 0.6771653543307087
        },
        {
          "duration": 0.700000000000017,
          "durationTicks": 840,
          "midi": 74,
          "name": "D5",
          "ticks": 211680,
          "time": 176.4,
          "velocity": 0.8267716535433071
        },
        {
          "duration": 0.3333333333333144,
          "durationTicks": 400,
          "midi": 74,
          "name": "D5",
          "ticks": 212640,
          "time": 177.20000000000002,
          "velocity": 0.8267716535433071
        },
        {
          "duration": 0.19666666666665833,
          "durationTicks": 236,
          "midi": 74,
          "name": "D5",
          "ticks": 213120,
          "time": 177.60000000000002,
          "velocity": 0.8267716535433071
        },
        {
          "duration": 0.700000000000017,
          "durationTicks": 840,
          "midi": 74,
          "name": "D5",
          "ticks": 213600,
          "time": 178,
          "velocity": 0.8267716535433071
        },
        {
          "duration": 0.3333333333333144,
          "durationTicks": 400,
          "midi": 74,
          "name": "D5",
          "ticks": 214560,
          "time": 178.8,
          "velocity": 0.8267716535433071
        },
        {
          "duration": 0.19666666666665833,
          "durationTicks": 236,
          "midi": 67,
          "name": "G4",
          "ticks": 215040,
          "time": 179.20000000000002,
          "velocity": 0.8267716535433071
        },
        {
          "duration": 0.19666666666665833,
          "durationTicks": 236,
          "midi": 74,
          "name": "D5",
          "ticks": 215040,
          "time": 179.20000000000002,
          "velocity": 0.8267716535433071
        },
        {
          "duration": 0.19666666666665833,
          "durationTicks": 236,
          "midi": 67,
          "name": "G4",
          "ticks": 215520,
          "time": 179.60000000000002,
          "velocity": 0.8267716535433071
        },
        {
          "duration": 0.19666666666665833,
          "durationTicks": 236,
          "midi": 76,
          "name": "E5",
          "ticks": 215520,
          "time": 179.60000000000002,
          "velocity": 0.8267716535433071
        },
        {
          "duration": 0.19666666666668675,
          "durationTicks": 236,
          "midi": 72,
          "name": "C5",
          "ticks": 216000,
          "time": 180,
          "velocity": 0.8267716535433071
        },
        {
          "duration": 0.19666666666668675,
          "durationTicks": 236,
          "midi": 76,
          "name": "E5",
          "ticks": 216000,
          "time": 180,
          "velocity": 0.8267716535433071
        },
        {
          "duration": 0.19666666666668675,
          "durationTicks": 236,
          "midi": 74,
          "name": "D5",
          "ticks": 216480,
          "time": 180.4,
          "velocity": 0.8267716535433071
        },
        {
          "duration": 0.19666666666665833,
          "durationTicks": 236,
          "midi": 67,
          "name": "G4",
          "ticks": 216960,
          "time": 180.8,
          "velocity": 0.8267716535433071
        },
        {
          "duration": 0.19666666666665833,
          "durationTicks": 236,
          "midi": 74,
          "name": "D5",
          "ticks": 216960,
          "time": 180.8,
          "velocity": 0.8267716535433071
        },
        {
          "duration": 0.6999999999999886,
          "durationTicks": 840,
          "midi": 74,
          "name": "D5",
          "ticks": 217440,
          "time": 181.20000000000002,
          "velocity": 0.8267716535433071
        },
        {
          "duration": 0.3333333333333428,
          "durationTicks": 400,
          "midi": 74,
          "name": "D5",
          "ticks": 218400,
          "time": 182,
          "velocity": 0.8267716535433071
        },
        {
          "duration": 0.19666666666668675,
          "durationTicks": 236,
          "midi": 74,
          "name": "D5",
          "ticks": 218880,
          "time": 182.4,
          "velocity": 0.8267716535433071
        },
        {
          "duration": 0.6999999999999886,
          "durationTicks": 840,
          "midi": 74,
          "name": "D5",
          "ticks": 219360,
          "time": 182.8,
          "velocity": 0.8267716535433071
        },
        {
          "duration": 0.3333333333333144,
          "durationTicks": 400,
          "midi": 74,
          "name": "D5",
          "ticks": 220320,
          "time": 183.60000000000002,
          "velocity": 0.8267716535433071
        },
        {
          "duration": 0.19666666666668675,
          "durationTicks": 236,
          "midi": 67,
          "name": "G4",
          "ticks": 220800,
          "time": 184,
          "velocity": 0.8267716535433071
        },
        {
          "duration": 0.19666666666668675,
          "durationTicks": 236,
          "midi": 74,
          "name": "D5",
          "ticks": 220800,
          "time": 184,
          "velocity": 0.8267716535433071
        },
        {
          "duration": 0.19666666666668675,
          "durationTicks": 236,
          "midi": 67,
          "name": "G4",
          "ticks": 221280,
          "time": 184.4,
          "velocity": 0.8267716535433071
        },
        {
          "duration": 0.19666666666668675,
          "durationTicks": 236,
          "midi": 76,
          "name": "E5",
          "ticks": 221280,
          "time": 184.4,
          "velocity": 0.8267716535433071
        },
        {
          "duration": 0.19666666666665833,
          "durationTicks": 236,
          "midi": 72,
          "name": "C5",
          "ticks": 221760,
          "time": 184.8,
          "velocity": 0.8267716535433071
        },
        {
          "duration": 0.19666666666665833,
          "durationTicks": 236,
          "midi": 76,
          "name": "E5",
          "ticks": 221760,
          "time": 184.8,
          "velocity": 0.8267716535433071
        },
        {
          "duration": 0.19666666666665833,
          "durationTicks": 236,
          "midi": 74,
          "name": "D5",
          "ticks": 222240,
          "time": 185.20000000000002,
          "velocity": 0.8267716535433071
        },
        {
          "duration": 0.3333333333333144,
          "durationTicks": 400,
          "midi": 67,
          "name": "G4",
          "ticks": 222720,
          "time": 185.60000000000002,
          "velocity": 0.8267716535433071
        },
        {
          "duration": 0.3333333333333144,
          "durationTicks": 400,
          "midi": 74,
          "name": "D5",
          "ticks": 222720,
          "time": 185.60000000000002,
          "velocity": 0.8267716535433071
        },
        {
          "duration": 0.3333333333333428,
          "durationTicks": 400,
          "midi": 74,
          "name": "D5",
          "ticks": 223680,
          "time": 186.4,
          "velocity": 0.8267716535433071
        },
        {
          "duration": 0.3333333333333144,
          "durationTicks": 400,
          "midi": 67,
          "name": "G4",
          "ticks": 224640,
          "time": 187.20000000000002,
          "velocity": 0.8267716535433071
        },
        {
          "duration": 0.3333333333333144,
          "durationTicks": 400,
          "midi": 74,
          "name": "D5",
          "ticks": 224640,
          "time": 187.20000000000002,
          "velocity": 0.8267716535433071
        },
        {
          "duration": 0.3333333333333428,
          "durationTicks": 400,
          "midi": 74,
          "name": "D5",
          "ticks": 225600,
          "time": 188,
          "velocity": 0.8267716535433071
        },
        {
          "duration": 0.3333333333333144,
          "durationTicks": 400,
          "midi": 67,
          "name": "G4",
          "ticks": 226560,
          "time": 188.8,
          "velocity": 0.8267716535433071
        },
        {
          "duration": 0.3333333333333144,
          "durationTicks": 400,
          "midi": 74,
          "name": "D5",
          "ticks": 226560,
          "time": 188.8,
          "velocity": 0.8267716535433071
        },
        {
          "duration": 0.3333333333333144,
          "durationTicks": 400,
          "midi": 74,
          "name": "D5",
          "ticks": 227520,
          "time": 189.60000000000002,
          "velocity": 0.8267716535433071
        },
        {
          "duration": 0.3333333333333428,
          "durationTicks": 400,
          "midi": 67,
          "name": "G4",
          "ticks": 228480,
          "time": 190.4,
          "velocity": 0.8267716535433071
        },
        {
          "duration": 0.3333333333333428,
          "durationTicks": 400,
          "midi": 74,
          "name": "D5",
          "ticks": 228480,
          "time": 190.4,
          "velocity": 0.8267716535433071
        },
        {
          "duration": 0.3333333333333144,
          "durationTicks": 400,
          "midi": 55,
          "name": "G3",
          "ticks": 228960,
          "time": 190.8,
          "velocity": 0.8267716535433071
        },
        {
          "duration": 0.3333333333333144,
          "durationTicks": 400,
          "midi": 67,
          "name": "G4",
          "ticks": 228960,
          "time": 190.8,
          "velocity": 0.8267716535433071
        },
        {
          "duration": 0.3333333333333144,
          "durationTicks": 400,
          "midi": 55,
          "name": "G3",
          "ticks": 229440,
          "time": 191.20000000000002,
          "velocity": 0.8267716535433071
        },
        {
          "duration": 0.3333333333333144,
          "durationTicks": 400,
          "midi": 67,
          "name": "G4",
          "ticks": 229440,
          "time": 191.20000000000002,
          "velocity": 0.8267716535433071
        },
        {
          "duration": 0.3333333333333428,
          "durationTicks": 400,
          "midi": 60,
          "name": "C4",
          "ticks": 230400,
          "time": 192,
          "velocity": 0.8267716535433071
        },
        {
          "duration": 0.3333333333333428,
          "durationTicks": 400,
          "midi": 72,
          "name": "C5",
          "ticks": 230400,
          "time": 192,
          "velocity": 0.8267716535433071
        },
        {
          "duration": 0.3333333333333144,
          "durationTicks": 400,
          "midi": 60,
          "name": "C4",
          "ticks": 231360,
          "time": 192.8,
          "velocity": 0.8267716535433071
        },
        {
          "duration": 0.3333333333333144,
          "durationTicks": 400,
          "midi": 72,
          "name": "C5",
          "ticks": 231360,
          "time": 192.8,
          "velocity": 0.8267716535433071
        },
        {
          "duration": 0.3333333333333144,
          "durationTicks": 400,
          "midi": 60,
          "name": "C4",
          "ticks": 232320,
          "time": 193.60000000000002,
          "velocity": 0.8267716535433071
        },
        {
          "duration": 0.3333333333333144,
          "durationTicks": 400,
          "midi": 72,
          "name": "C5",
          "ticks": 232320,
          "time": 193.60000000000002,
          "velocity": 0.8267716535433071
        },
        {
          "duration": 0.3333333333333428,
          "durationTicks": 400,
          "midi": 67,
          "name": "G4",
          "ticks": 238080,
          "time": 198.4,
          "velocity": 0.8267716535433071
        },
        {
          "duration": 0.3333333333333144,
          "durationTicks": 400,
          "midi": 67,
          "name": "G4",
          "ticks": 239040,
          "time": 199.20000000000002,
          "velocity": 0.8267716535433071
        },
        {
          "duration": 0.3333333333333428,
          "durationTicks": 400,
          "midi": 67,
          "name": "G4",
          "ticks": 240000,
          "time": 200,
          "velocity": 0.8267716535433071
        },
        {
          "duration": 0.29666666666665265,
          "durationTicks": 356,
          "midi": 60,
          "name": "C4",
          "ticks": 246240,
          "time": 205.20000000000002,
          "velocity": 0.8267716535433071
        },
        {
          "duration": 0.29666666666665265,
          "durationTicks": 356,
          "midi": 72,
          "name": "C5",
          "ticks": 246240,
          "time": 205.20000000000002,
          "velocity": 0.8267716535433071
        },
        {
          "duration": 0.09666666666669244,
          "durationTicks": 116,
          "midi": 60,
          "name": "C4",
          "ticks": 246600,
          "time": 205.5,
          "velocity": 0.8267716535433071
        },
        {
          "duration": 0.09666666666669244,
          "durationTicks": 116,
          "midi": 72,
          "name": "C5",
          "ticks": 246600,
          "time": 205.5,
          "velocity": 0.8267716535433071
        },
        {
          "duration": 0.3333333333333428,
          "durationTicks": 400,
          "midi": 60,
          "name": "C4",
          "ticks": 246720,
          "time": 205.60000000000002,
          "velocity": 0.8267716535433071
        },
        {
          "duration": 0.3333333333333428,
          "durationTicks": 400,
          "midi": 72,
          "name": "C5",
          "ticks": 246720,
          "time": 205.60000000000002,
          "velocity": 0.8267716535433071
        },
        {
          "duration": 0.29666666666668107,
          "durationTicks": 356,
          "midi": 60,
          "name": "C4",
          "ticks": 248160,
          "time": 206.8,
          "velocity": 0.8267716535433071
        },
        {
          "duration": 0.29666666666668107,
          "durationTicks": 356,
          "midi": 72,
          "name": "C5",
          "ticks": 248160,
          "time": 206.8,
          "velocity": 0.8267716535433071
        },
        {
          "duration": 0.09666666666666401,
          "durationTicks": 116,
          "midi": 60,
          "name": "C4",
          "ticks": 248520,
          "time": 207.10000000000002,
          "velocity": 0.8267716535433071
        },
        {
          "duration": 0.09666666666666401,
          "durationTicks": 116,
          "midi": 72,
          "name": "C5",
          "ticks": 248520,
          "time": 207.10000000000002,
          "velocity": 0.8267716535433071
        },
        {
          "duration": 0.3333333333333428,
          "durationTicks": 400,
          "midi": 60,
          "name": "C4",
          "ticks": 248640,
          "time": 207.20000000000002,
          "velocity": 0.8267716535433071
        },
        {
          "duration": 0.3333333333333428,
          "durationTicks": 400,
          "midi": 72,
          "name": "C5",
          "ticks": 248640,
          "time": 207.20000000000002,
          "velocity": 0.8267716535433071
        },
        {
          "duration": 0.29666666666668107,
          "durationTicks": 356,
          "midi": 67,
          "name": "G4",
          "ticks": 250080,
          "time": 208.4,
          "velocity": 0.8267716535433071
        },
        {
          "duration": 0.09666666666666401,
          "durationTicks": 116,
          "midi": 67,
          "name": "G4",
          "ticks": 250440,
          "time": 208.70000000000002,
          "velocity": 0.8267716535433071
        },
        {
          "duration": 0.3333333333333428,
          "durationTicks": 400,
          "midi": 67,
          "name": "G4",
          "ticks": 250560,
          "time": 208.8,
          "velocity": 0.8267716535433071
        },
        {
          "duration": 0.29666666666668107,
          "durationTicks": 356,
          "midi": 60,
          "name": "C4",
          "ticks": 252000,
          "time": 210,
          "velocity": 0.8267716535433071
        },
        {
          "duration": 0.29666666666668107,
          "durationTicks": 356,
          "midi": 72,
          "name": "C5",
          "ticks": 252000,
          "time": 210,
          "velocity": 0.8267716535433071
        },
        {
          "duration": 0.09666666666666401,
          "durationTicks": 116,
          "midi": 60,
          "name": "C4",
          "ticks": 252360,
          "time": 210.3,
          "velocity": 0.8267716535433071
        },
        {
          "duration": 0.09666666666666401,
          "durationTicks": 116,
          "midi": 72,
          "name": "C5",
          "ticks": 252360,
          "time": 210.3,
          "velocity": 0.8267716535433071
        },
        {
          "duration": 0.3333333333333428,
          "durationTicks": 400,
          "midi": 60,
          "name": "C4",
          "ticks": 252480,
          "time": 210.4,
          "velocity": 0.8267716535433071
        },
        {
          "duration": 0.3333333333333428,
          "durationTicks": 400,
          "midi": 72,
          "name": "C5",
          "ticks": 252480,
          "time": 210.4,
          "velocity": 0.8267716535433071
        },
        {
          "duration": 0.29666666666665265,
          "durationTicks": 356,
          "midi": 60,
          "name": "C4",
          "ticks": 253920,
          "time": 211.60000000000002,
          "velocity": 0.8267716535433071
        },
        {
          "duration": 0.29666666666665265,
          "durationTicks": 356,
          "midi": 72,
          "name": "C5",
          "ticks": 253920,
          "time": 211.60000000000002,
          "velocity": 0.8267716535433071
        },
        {
          "duration": 0.09666666666666401,
          "durationTicks": 116,
          "midi": 60,
          "name": "C4",
          "ticks": 254280,
          "time": 211.9,
          "velocity": 0.8267716535433071
        },
        {
          "duration": 0.09666666666666401,
          "durationTicks": 116,
          "midi": 72,
          "name": "C5",
          "ticks": 254280,
          "time": 211.9,
          "velocity": 0.8267716535433071
        },
        {
          "duration": 0.33333333333337123,
          "durationTicks": 400,
          "midi": 60,
          "name": "C4",
          "ticks": 254400,
          "time": 212,
          "velocity": 0.8267716535433071
        },
        {
          "duration": 0.33333333333337123,
          "durationTicks": 400,
          "midi": 72,
          "name": "C5",
          "ticks": 254400,
          "time": 212,
          "velocity": 0.8267716535433071
        },
        {
          "duration": 0.29666666666665265,
          "durationTicks": 356,
          "midi": 67,
          "name": "G4",
          "ticks": 255840,
          "time": 213.20000000000002,
          "velocity": 0.8267716535433071
        },
        {
          "duration": 0.09666666666669244,
          "durationTicks": 116,
          "midi": 67,
          "name": "G4",
          "ticks": 256200,
          "time": 213.5,
          "velocity": 0.8267716535433071
        },
        {
          "duration": 0.3333333333333428,
          "durationTicks": 400,
          "midi": 67,
          "name": "G4",
          "ticks": 256320,
          "time": 213.60000000000002,
          "velocity": 0.8267716535433071
        },
        {
          "duration": 0.3333333333333428,
          "durationTicks": 400,
          "midi": 55,
          "name": "G3",
          "ticks": 257280,
          "time": 214.4,
          "velocity": 0.8267716535433071
        },
        {
          "duration": 0.3333333333333428,
          "durationTicks": 400,
          "midi": 67,
          "name": "G4",
          "ticks": 257280,
          "time": 214.4,
          "velocity": 0.8267716535433071
        },
        {
          "duration": 0.3333333333333428,
          "durationTicks": 400,
          "midi": 55,
          "name": "G3",
          "ticks": 258240,
          "time": 215.20000000000002,
          "velocity": 0.8267716535433071
        },
        {
          "duration": 0.3333333333333428,
          "durationTicks": 400,
          "midi": 67,
          "name": "G4",
          "ticks": 258240,
          "time": 215.20000000000002,
          "velocity": 0.8267716535433071
        },
        {
          "duration": 0.33333333333337123,
          "durationTicks": 400,
          "midi": 55,
          "name": "G3",
          "ticks": 259200,
          "time": 216,
          "velocity": 0.8267716535433071
        },
        {
          "duration": 0.33333333333337123,
          "durationTicks": 400,
          "midi": 67,
          "name": "G4",
          "ticks": 259200,
          "time": 216,
          "velocity": 0.8267716535433071
        },
        {
          "duration": 0.3333333333333428,
          "durationTicks": 400,
          "midi": 55,
          "name": "G3",
          "ticks": 260160,
          "time": 216.8,
          "velocity": 0.8267716535433071
        },
        {
          "duration": 0.3333333333333428,
          "durationTicks": 400,
          "midi": 67,
          "name": "G4",
          "ticks": 260160,
          "time": 216.8,
          "velocity": 0.8267716535433071
        },
        {
          "duration": 0.3333333333333428,
          "durationTicks": 400,
          "midi": 55,
          "name": "G3",
          "ticks": 261120,
          "time": 217.60000000000002,
          "velocity": 0.8267716535433071
        },
        {
          "duration": 0.3333333333333428,
          "durationTicks": 400,
          "midi": 67,
          "name": "G4",
          "ticks": 261120,
          "time": 217.60000000000002,
          "velocity": 0.8267716535433071
        },
        {
          "duration": 0.33333333333337123,
          "durationTicks": 400,
          "midi": 67,
          "name": "G4",
          "ticks": 261600,
          "time": 218,
          "velocity": 0.8267716535433071
        },
        {
          "duration": 0.3333333333333428,
          "durationTicks": 400,
          "midi": 72,
          "name": "C5",
          "ticks": 262080,
          "time": 218.4,
          "velocity": 0.8267716535433071
        },
        {
          "duration": 0.3333333333333428,
          "durationTicks": 400,
          "midi": 67,
          "name": "G4",
          "ticks": 262560,
          "time": 218.8,
          "velocity": 0.8267716535433071
        },
        {
          "duration": 0.3333333333333428,
          "durationTicks": 400,
          "midi": 72,
          "name": "C5",
          "ticks": 263040,
          "time": 219.20000000000002,
          "velocity": 0.8267716535433071
        },
        {
          "duration": 0.3333333333333428,
          "durationTicks": 400,
          "midi": 67,
          "name": "G4",
          "ticks": 263520,
          "time": 219.60000000000002,
          "velocity": 0.8267716535433071
        },
        {
          "duration": 0.33333333333337123,
          "durationTicks": 400,
          "midi": 64,
          "name": "E4",
          "ticks": 264000,
          "time": 220,
          "velocity": 0.8267716535433071
        },
        {
          "duration": 0.3333333333333428,
          "durationTicks": 400,
          "midi": 60,
          "name": "C4",
          "ticks": 264480,
          "time": 220.4,
          "velocity": 0.8267716535433071
        },
        {
          "duration": 0.3333333333333428,
          "durationTicks": 400,
          "midi": 55,
          "name": "G3",
          "ticks": 264960,
          "time": 220.8,
          "velocity": 0.8267716535433071
        },
        {
          "duration": 0.3333333333333428,
          "durationTicks": 400,
          "midi": 67,
          "name": "G4",
          "ticks": 264960,
          "time": 220.8,
          "velocity": 0.8267716535433071
        },
        {
          "duration": 0.3333333333333428,
          "durationTicks": 400,
          "midi": 55,
          "name": "G3",
          "ticks": 265920,
          "time": 221.60000000000002,
          "velocity": 0.8267716535433071
        },
        {
          "duration": 0.3333333333333428,
          "durationTicks": 400,
          "midi": 67,
          "name": "G4",
          "ticks": 265920,
          "time": 221.60000000000002,
          "velocity": 0.8267716535433071
        },
        {
          "duration": 0.3333333333333428,
          "durationTicks": 400,
          "midi": 55,
          "name": "G3",
          "ticks": 266880,
          "time": 222.4,
          "velocity": 0.8267716535433071
        },
        {
          "duration": 0.3333333333333428,
          "durationTicks": 400,
          "midi": 67,
          "name": "G4",
          "ticks": 266880,
          "time": 222.4,
          "velocity": 0.8267716535433071
        },
        {
          "duration": 0.3333333333333428,
          "durationTicks": 400,
          "midi": 55,
          "name": "G3",
          "ticks": 267840,
          "time": 223.20000000000002,
          "velocity": 0.8267716535433071
        },
        {
          "duration": 0.3333333333333428,
          "durationTicks": 400,
          "midi": 67,
          "name": "G4",
          "ticks": 267840,
          "time": 223.20000000000002,
          "velocity": 0.8267716535433071
        },
        {
          "duration": 0.19666666666668675,
          "durationTicks": 236,
          "midi": 55,
          "name": "G3",
          "ticks": 268800,
          "time": 224,
          "velocity": 0.8267716535433071
        },
        {
          "duration": 0.19666666666668675,
          "durationTicks": 236,
          "midi": 67,
          "name": "G4",
          "ticks": 268800,
          "time": 224,
          "velocity": 0.8267716535433071
        },
        {
          "duration": 0.19666666666665833,
          "durationTicks": 236,
          "midi": 55,
          "name": "G3",
          "ticks": 269040,
          "time": 224.20000000000002,
          "velocity": 0.8346456692913385
        },
        {
          "duration": 0.19666666666665833,
          "durationTicks": 236,
          "midi": 67,
          "name": "G4",
          "ticks": 269040,
          "time": 224.20000000000002,
          "velocity": 0.8346456692913385
        },
        {
          "duration": 0.19666666666668675,
          "durationTicks": 236,
          "midi": 55,
          "name": "G3",
          "ticks": 269280,
          "time": 224.4,
          "velocity": 0.8503937007874016
        },
        {
          "duration": 0.19666666666668675,
          "durationTicks": 236,
          "midi": 67,
          "name": "G4",
          "ticks": 269280,
          "time": 224.4,
          "velocity": 0.8503937007874016
        },
        {
          "duration": 0.19666666666665833,
          "durationTicks": 236,
          "midi": 55,
          "name": "G3",
          "ticks": 269520,
          "time": 224.60000000000002,
          "velocity": 0.8582677165354331
        },
        {
          "duration": 0.19666666666665833,
          "durationTicks": 236,
          "midi": 67,
          "name": "G4",
          "ticks": 269520,
          "time": 224.60000000000002,
          "velocity": 0.8582677165354331
        },
        {
          "duration": 0.19666666666665833,
          "durationTicks": 236,
          "midi": 55,
          "name": "G3",
          "ticks": 269760,
          "time": 224.8,
          "velocity": 0.8661417322834646
        },
        {
          "duration": 0.19666666666665833,
          "durationTicks": 236,
          "midi": 67,
          "name": "G4",
          "ticks": 269760,
          "time": 224.8,
          "velocity": 0.8661417322834646
        },
        {
          "duration": 0.19666666666668675,
          "durationTicks": 236,
          "midi": 55,
          "name": "G3",
          "ticks": 270000,
          "time": 225,
          "velocity": 0.8740157480314961
        },
        {
          "duration": 0.19666666666668675,
          "durationTicks": 236,
          "midi": 67,
          "name": "G4",
          "ticks": 270000,
          "time": 225,
          "velocity": 0.8740157480314961
        },
        {
          "duration": 0.19666666666665833,
          "durationTicks": 236,
          "midi": 55,
          "name": "G3",
          "ticks": 270240,
          "time": 225.20000000000002,
          "velocity": 0.8818897637795275
        },
        {
          "duration": 0.19666666666665833,
          "durationTicks": 236,
          "midi": 67,
          "name": "G4",
          "ticks": 270240,
          "time": 225.20000000000002,
          "velocity": 0.8818897637795275
        },
        {
          "duration": 0.19666666666668675,
          "durationTicks": 236,
          "midi": 55,
          "name": "G3",
          "ticks": 270480,
          "time": 225.4,
          "velocity": 0.889763779527559
        },
        {
          "duration": 0.19666666666668675,
          "durationTicks": 236,
          "midi": 67,
          "name": "G4",
          "ticks": 270480,
          "time": 225.4,
          "velocity": 0.889763779527559
        },
        {
          "duration": 0.3333333333333428,
          "durationTicks": 400,
          "midi": 55,
          "name": "G3",
          "ticks": 270720,
          "time": 225.60000000000002,
          "velocity": 0.905511811023622
        },
        {
          "duration": 0.3333333333333428,
          "durationTicks": 400,
          "midi": 67,
          "name": "G4",
          "ticks": 270720,
          "time": 225.60000000000002,
          "velocity": 0.905511811023622
        },
        {
          "duration": 0.3333333333333428,
          "durationTicks": 400,
          "midi": 55,
          "name": "G3",
          "ticks": 271680,
          "time": 226.4,
          "velocity": 0.937007874015748
        },
        {
          "duration": 0.3333333333333428,
          "durationTicks": 400,
          "midi": 67,
          "name": "G4",
          "ticks": 271680,
          "time": 226.4,
          "velocity": 0.937007874015748
        },
        {
          "duration": 0.3333333333333428,
          "durationTicks": 400,
          "midi": 55,
          "name": "G3",
          "ticks": 272160,
          "time": 226.8,
          "velocity": 0.952755905511811
        },
        {
          "duration": 0.3333333333333428,
          "durationTicks": 400,
          "midi": 67,
          "name": "G4",
          "ticks": 272160,
          "time": 226.8,
          "velocity": 0.952755905511811
        },
        {
          "duration": 1.5,
          "durationTicks": 1800,
          "midi": 55,
          "name": "G3",
          "ticks": 272640,
          "time": 227.20000000000002,
          "velocity": 0.9763779527559056
        },
        {
          "duration": 1.5,
          "durationTicks": 1800,
          "midi": 67,
          "name": "G4",
          "ticks": 272640,
          "time": 227.20000000000002,
          "velocity": 0.9763779527559056
        },
        {
          "duration": 0.3333333333333428,
          "durationTicks": 400,
          "midi": 67,
          "name": "G4",
          "ticks": 299520,
          "time": 249.60000000000002,
          "velocity": 0.8267716535433071
        },
        {
          "duration": 0.3333333333333428,
          "durationTicks": 400,
          "midi": 67,
          "name": "G4",
          "ticks": 300480,
          "time": 250.4,
          "velocity": 0.8267716535433071
        },
        {
          "duration": 0.3333333333333428,
          "durationTicks": 400,
          "midi": 67,
          "name": "G4",
          "ticks": 301440,
          "time": 251.20000000000002,
          "velocity": 0.8267716535433071
        },
        {
          "duration": 1.5999999999999943,
          "durationTicks": 1920,
          "midi": 67,
          "name": "G4",
          "ticks": 303360,
          "time": 252.8,
          "velocity": 0.8267716535433071
        },
        {
          "duration": 0.3333333333333428,
          "durationTicks": 400,
          "midi": 67,
          "name": "G4",
          "ticks": 305280,
          "time": 254.4,
          "velocity": 0.8267716535433071
        },
        {
          "duration": 0.29666666666668107,
          "durationTicks": 356,
          "midi": 67,
          "name": "G4",
          "ticks": 305760,
          "time": 254.8,
          "velocity": 0.8267716535433071
        },
        {
          "duration": 0.09666666666666401,
          "durationTicks": 116,
          "midi": 67,
          "name": "G4",
          "ticks": 306120,
          "time": 255.10000000000002,
          "velocity": 0.8267716535433071
        },
        {
          "duration": 0.3333333333333428,
          "durationTicks": 400,
          "midi": 67,
          "name": "G4",
          "ticks": 306240,
          "time": 255.20000000000002,
          "velocity": 0.8267716535433071
        },
        {
          "duration": 0.3333333333333428,
          "durationTicks": 400,
          "midi": 67,
          "name": "G4",
          "ticks": 306720,
          "time": 255.60000000000002,
          "velocity": 0.8267716535433071
        },
        {
          "duration": 1.6000000000000227,
          "durationTicks": 1920,
          "midi": 67,
          "name": "G4",
          "ticks": 307200,
          "time": 256,
          "velocity": 0.8267716535433071
        },
        {
          "duration": 0.3333333333333144,
          "durationTicks": 400,
          "midi": 67,
          "name": "G4",
          "ticks": 309120,
          "time": 257.6,
          "velocity": 0.8267716535433071
        },
        {
          "duration": 0.29666666666668107,
          "durationTicks": 356,
          "midi": 67,
          "name": "G4",
          "ticks": 309600,
          "time": 258,
          "velocity": 0.8267716535433071
        },
        {
          "duration": 0.09666666666669244,
          "durationTicks": 116,
          "midi": 67,
          "name": "G4",
          "ticks": 309960,
          "time": 258.3,
          "velocity": 0.8267716535433071
        },
        {
          "duration": 0.3333333333333144,
          "durationTicks": 400,
          "midi": 67,
          "name": "G4",
          "ticks": 310080,
          "time": 258.40000000000003,
          "velocity": 0.8267716535433071
        },
        {
          "duration": 0.33333333333337123,
          "durationTicks": 400,
          "midi": 67,
          "name": "G4",
          "ticks": 310560,
          "time": 258.8,
          "velocity": 0.8267716535433071
        },
        {
          "duration": 1.6000000000000227,
          "durationTicks": 1920,
          "midi": 67,
          "name": "G4",
          "ticks": 311040,
          "time": 259.2,
          "velocity": 0.8267716535433071
        },
        {
          "duration": 0.33333333333337123,
          "durationTicks": 400,
          "midi": 67,
          "name": "G4",
          "ticks": 312960,
          "time": 260.8,
          "velocity": 0.8267716535433071
        },
        {
          "duration": 0.29666666666668107,
          "durationTicks": 356,
          "midi": 67,
          "name": "G4",
          "ticks": 313440,
          "time": 261.2,
          "velocity": 0.8267716535433071
        },
        {
          "duration": 0.09666666666669244,
          "durationTicks": 116,
          "midi": 67,
          "name": "G4",
          "ticks": 313800,
          "time": 261.5,
          "velocity": 0.8267716535433071
        },
        {
          "duration": 0.3333333333333144,
          "durationTicks": 400,
          "midi": 67,
          "name": "G4",
          "ticks": 313920,
          "time": 261.6,
          "velocity": 0.8267716535433071
        },
        {
          "duration": 0.33333333333337123,
          "durationTicks": 400,
          "midi": 67,
          "name": "G4",
          "ticks": 314400,
          "time": 262,
          "velocity": 0.8267716535433071
        },
        {
          "duration": 0.3333333333333144,
          "durationTicks": 400,
          "midi": 67,
          "name": "G4",
          "ticks": 314880,
          "time": 262.40000000000003,
          "velocity": 0.8267716535433071
        },
        {
          "duration": 0.29666666666668107,
          "durationTicks": 356,
          "midi": 67,
          "name": "G4",
          "ticks": 315360,
          "time": 262.8,
          "velocity": 0.8267716535433071
        },
        {
          "duration": 0.09666666666663559,
          "durationTicks": 116,
          "midi": 67,
          "name": "G4",
          "ticks": 315720,
          "time": 263.1,
          "velocity": 0.8267716535433071
        },
        {
          "duration": 0.33333333333337123,
          "durationTicks": 400,
          "midi": 67,
          "name": "G4",
          "ticks": 315840,
          "time": 263.2,
          "velocity": 0.8267716535433071
        },
        {
          "duration": 0.3333333333333144,
          "durationTicks": 400,
          "midi": 67,
          "name": "G4",
          "ticks": 316320,
          "time": 263.6,
          "velocity": 0.8267716535433071
        },
        {
          "duration": 0.33333333333337123,
          "durationTicks": 400,
          "midi": 67,
          "name": "G4",
          "ticks": 316800,
          "time": 264,
          "velocity": 0.8267716535433071
        },
        {
          "duration": 0.2966666666666242,
          "durationTicks": 356,
          "midi": 67,
          "name": "G4",
          "ticks": 317280,
          "time": 264.40000000000003,
          "velocity": 0.8267716535433071
        },
        {
          "duration": 0.09666666666669244,
          "durationTicks": 116,
          "midi": 67,
          "name": "G4",
          "ticks": 317640,
          "time": 264.7,
          "velocity": 0.8267716535433071
        },
        {
          "duration": 0.33333333333337123,
          "durationTicks": 400,
          "midi": 67,
          "name": "G4",
          "ticks": 317760,
          "time": 264.8,
          "velocity": 0.8267716535433071
        },
        {
          "duration": 0.33333333333337123,
          "durationTicks": 400,
          "midi": 67,
          "name": "G4",
          "ticks": 318240,
          "time": 265.2,
          "velocity": 0.8267716535433071
        },
        {
          "duration": 0.3333333333333144,
          "durationTicks": 400,
          "midi": 72,
          "name": "C5",
          "ticks": 318720,
          "time": 265.6,
          "velocity": 0.8267716535433071
        },
        {
          "duration": 0.33333333333337123,
          "durationTicks": 400,
          "midi": 74,
          "name": "D5",
          "ticks": 319200,
          "time": 266,
          "velocity": 0.8267716535433071
        },
        {
          "duration": 0.3333333333333144,
          "durationTicks": 400,
          "midi": 72,
          "name": "C5",
          "ticks": 319680,
          "time": 266.40000000000003,
          "velocity": 0.8267716535433071
        },
        {
          "duration": 0.33333333333337123,
          "durationTicks": 400,
          "midi": 74,
          "name": "D5",
          "ticks": 320160,
          "time": 266.8,
          "velocity": 0.8267716535433071
        },
        {
          "duration": 0.7000000000000455,
          "durationTicks": 840,
          "midi": 72,
          "name": "C5",
          "ticks": 320640,
          "time": 267.2,
          "velocity": 0.8267716535433071
        },
        {
          "duration": 0.6999999999999886,
          "durationTicks": 840,
          "midi": 74,
          "name": "D5",
          "ticks": 322560,
          "time": 268.8,
          "velocity": 0.8267716535433071
        },
        {
          "duration": 0.3333333333333144,
          "durationTicks": 400,
          "midi": 74,
          "name": "D5",
          "ticks": 323520,
          "time": 269.6,
          "velocity": 0.8267716535433071
        },
        {
          "duration": 0.33333333333337123,
          "durationTicks": 400,
          "midi": 74,
          "name": "D5",
          "ticks": 324000,
          "time": 270,
          "velocity": 0.8267716535433071
        },
        {
          "duration": 0.6999999999999886,
          "durationTicks": 840,
          "midi": 74,
          "name": "D5",
          "ticks": 324480,
          "time": 270.40000000000003,
          "velocity": 0.8267716535433071
        },
        {
          "duration": 0.33333333333337123,
          "durationTicks": 400,
          "midi": 74,
          "name": "D5",
          "ticks": 325440,
          "time": 271.2,
          "velocity": 0.8267716535433071
        },
        {
          "duration": 0.3333333333333144,
          "durationTicks": 400,
          "midi": 74,
          "name": "D5",
          "ticks": 325920,
          "time": 271.6,
          "velocity": 0.8267716535433071
        },
        {
          "duration": 0.6999999999999886,
          "durationTicks": 840,
          "midi": 74,
          "name": "D5",
          "ticks": 326400,
          "time": 272,
          "velocity": 0.8267716535433071
        },
        {
          "duration": 0.33333333333337123,
          "durationTicks": 400,
          "midi": 74,
          "name": "D5",
          "ticks": 327360,
          "time": 272.8,
          "velocity": 0.8267716535433071
        },
        {
          "duration": 0.33333333333337123,
          "durationTicks": 400,
          "midi": 74,
          "name": "D5",
          "ticks": 327840,
          "time": 273.2,
          "velocity": 0.8267716535433071
        },
        {
          "duration": 0.6999999999999886,
          "durationTicks": 840,
          "midi": 74,
          "name": "D5",
          "ticks": 328320,
          "time": 273.6,
          "velocity": 0.8267716535433071
        },
        {
          "duration": 0.3333333333333144,
          "durationTicks": 400,
          "midi": 74,
          "name": "D5",
          "ticks": 329280,
          "time": 274.40000000000003,
          "velocity": 0.8267716535433071
        },
        {
          "duration": 0.33333333333337123,
          "durationTicks": 400,
          "midi": 74,
          "name": "D5",
          "ticks": 329760,
          "time": 274.8,
          "velocity": 0.8267716535433071
        },
        {
          "duration": 0.33333333333337123,
          "durationTicks": 400,
          "midi": 74,
          "name": "D5",
          "ticks": 330240,
          "time": 275.2,
          "velocity": 0.8267716535433071
        },
        {
          "duration": 0.33333333333337123,
          "durationTicks": 400,
          "midi": 67,
          "name": "G4",
          "ticks": 331200,
          "time": 276,
          "velocity": 0.8267716535433071
        },
        {
          "duration": 0.33333333333337123,
          "durationTicks": 400,
          "midi": 74,
          "name": "D5",
          "ticks": 331200,
          "time": 276,
          "velocity": 0.8267716535433071
        },
        {
          "duration": 0.33333333333337123,
          "durationTicks": 400,
          "midi": 74,
          "name": "D5",
          "ticks": 332160,
          "time": 276.8,
          "velocity": 0.8267716535433071
        },
        {
          "duration": 0.3333333333333144,
          "durationTicks": 400,
          "midi": 67,
          "name": "G4",
          "ticks": 333120,
          "time": 277.6,
          "velocity": 0.8267716535433071
        },
        {
          "duration": 0.3333333333333144,
          "durationTicks": 400,
          "midi": 74,
          "name": "D5",
          "ticks": 333120,
          "time": 277.6,
          "velocity": 0.8267716535433071
        },
        {
          "duration": 0.3333333333333144,
          "durationTicks": 400,
          "midi": 74,
          "name": "D5",
          "ticks": 334080,
          "time": 278.40000000000003,
          "velocity": 0.8267716535433071
        },
        {
          "duration": 1.5,
          "durationTicks": 1800,
          "midi": 60,
          "name": "C4",
          "ticks": 384000,
          "time": 320,
          "velocity": 0.8267716535433071
        },
        {
          "duration": 1.5,
          "durationTicks": 1800,
          "midi": 67,
          "name": "G4",
          "ticks": 384000,
          "time": 320,
          "velocity": 0.8267716535433071
        },
        {
          "duration": 0.19999999999998863,
          "durationTicks": 240,
          "midi": 60,
          "name": "C4",
          "ticks": 385920,
          "time": 321.6,
          "velocity": 0.8267716535433071
        },
        {
          "duration": 0.19999999999998863,
          "durationTicks": 240,
          "midi": 67,
          "name": "G4",
          "ticks": 385920,
          "time": 321.6,
          "velocity": 0.8267716535433071
        },
        {
          "duration": 0.19999999999998863,
          "durationTicks": 240,
          "midi": 60,
          "name": "C4",
          "ticks": 386880,
          "time": 322.40000000000003,
          "velocity": 0.8267716535433071
        },
        {
          "duration": 0.19999999999998863,
          "durationTicks": 240,
          "midi": 67,
          "name": "G4",
          "ticks": 386880,
          "time": 322.40000000000003,
          "velocity": 0.8267716535433071
        },
        {
          "duration": 0.19999999999998863,
          "durationTicks": 240,
          "midi": 60,
          "name": "C4",
          "ticks": 387840,
          "time": 323.20000000000005,
          "velocity": 0.8267716535433071
        },
        {
          "duration": 0.19999999999998863,
          "durationTicks": 240,
          "midi": 67,
          "name": "G4",
          "ticks": 387840,
          "time": 323.20000000000005,
          "velocity": 0.8267716535433071
        },
        {
          "duration": 0.5333333333333599,
          "durationTicks": 640,
          "midi": 60,
          "name": "C4",
          "ticks": 388800,
          "time": 324,
          "velocity": 0.8267716535433071
        },
        {
          "duration": 0.5333333333333599,
          "durationTicks": 640,
          "midi": 72,
          "name": "C5",
          "ticks": 388800,
          "time": 324,
          "velocity": 0.8267716535433071
        },
        {
          "duration": 0.19666666666665833,
          "durationTicks": 236,
          "midi": 60,
          "name": "C4",
          "ticks": 389520,
          "time": 324.6,
          "velocity": 0.8267716535433071
        },
        {
          "duration": 0.19666666666665833,
          "durationTicks": 236,
          "midi": 72,
          "name": "C5",
          "ticks": 389520,
          "time": 324.6,
          "velocity": 0.8267716535433071
        },
        {
          "duration": 0.33333333333337123,
          "durationTicks": 400,
          "midi": 60,
          "name": "C4",
          "ticks": 389760,
          "time": 324.8,
          "velocity": 0.8267716535433071
        },
        {
          "duration": 0.33333333333337123,
          "durationTicks": 400,
          "midi": 72,
          "name": "C5",
          "ticks": 389760,
          "time": 324.8,
          "velocity": 0.8267716535433071
        },
        {
          "duration": 0.3333333333333144,
          "durationTicks": 400,
          "midi": 60,
          "name": "C4",
          "ticks": 390240,
          "time": 325.20000000000005,
          "velocity": 0.8267716535433071
        },
        {
          "duration": 0.3333333333333144,
          "durationTicks": 400,
          "midi": 72,
          "name": "C5",
          "ticks": 390240,
          "time": 325.20000000000005,
          "velocity": 0.8267716535433071
        },
        {
          "duration": 0.33333333333337123,
          "durationTicks": 400,
          "midi": 60,
          "name": "C4",
          "ticks": 390720,
          "time": 325.6,
          "velocity": 0.8267716535433071
        },
        {
          "duration": 0.33333333333337123,
          "durationTicks": 400,
          "midi": 72,
          "name": "C5",
          "ticks": 390720,
          "time": 325.6,
          "velocity": 0.8267716535433071
        },
        {
          "duration": 0.33333333333337123,
          "durationTicks": 400,
          "midi": 60,
          "name": "C4",
          "ticks": 391200,
          "time": 326,
          "velocity": 0.8267716535433071
        },
        {
          "duration": 0.33333333333337123,
          "durationTicks": 400,
          "midi": 72,
          "name": "C5",
          "ticks": 391200,
          "time": 326,
          "velocity": 0.8267716535433071
        },
        {
          "duration": 0.6999999999999886,
          "durationTicks": 840,
          "midi": 60,
          "name": "C4",
          "ticks": 391680,
          "time": 326.40000000000003,
          "velocity": 0.8267716535433071
        },
        {
          "duration": 0.6999999999999886,
          "durationTicks": 840,
          "midi": 72,
          "name": "C5",
          "ticks": 391680,
          "time": 326.40000000000003,
          "velocity": 0.8267716535433071
        },
        {
          "duration": 0.6999999999999886,
          "durationTicks": 840,
          "midi": 67,
          "name": "G4",
          "ticks": 392640,
          "time": 327.20000000000005,
          "velocity": 0.8267716535433071
        },
        {
          "duration": 0.6999999999999886,
          "durationTicks": 840,
          "midi": 79,
          "name": "G5",
          "ticks": 392640,
          "time": 327.20000000000005,
          "velocity": 0.8267716535433071
        },
        {
          "duration": 0.7000000000000455,
          "durationTicks": 840,
          "midi": 64,
          "name": "E4",
          "ticks": 393600,
          "time": 328,
          "velocity": 0.8267716535433071
        },
        {
          "duration": 0.7000000000000455,
          "durationTicks": 840,
          "midi": 76,
          "name": "E5",
          "ticks": 393600,
          "time": 328,
          "velocity": 0.8267716535433071
        },
        {
          "duration": 0.6999999999999886,
          "durationTicks": 840,
          "midi": 60,
          "name": "C4",
          "ticks": 394560,
          "time": 328.8,
          "velocity": 0.8267716535433071
        },
        {
          "duration": 0.6999999999999886,
          "durationTicks": 840,
          "midi": 72,
          "name": "C5",
          "ticks": 394560,
          "time": 328.8,
          "velocity": 0.8267716535433071
        },
        {
          "duration": 1.5,
          "durationTicks": 1800,
          "midi": 67,
          "name": "G4",
          "ticks": 395520,
          "time": 329.6,
          "velocity": 0.8267716535433071
        },
        {
          "duration": 1.5,
          "durationTicks": 1800,
          "midi": 74,
          "name": "D5",
          "ticks": 395520,
          "time": 329.6,
          "velocity": 0.8267716535433071
        },
        {
          "duration": 0.3333333333333144,
          "durationTicks": 400,
          "midi": 67,
          "name": "G4",
          "ticks": 397440,
          "time": 331.20000000000005,
          "velocity": 0.8267716535433071
        },
        {
          "duration": 0.3333333333333144,
          "durationTicks": 400,
          "midi": 74,
          "name": "D5",
          "ticks": 397440,
          "time": 331.20000000000005,
          "velocity": 0.8267716535433071
        },
        {
          "duration": 0.33333333333337123,
          "durationTicks": 400,
          "midi": 74,
          "name": "D5",
          "ticks": 398400,
          "time": 332,
          "velocity": 0.8267716535433071
        },
        {
          "duration": 0.6999999999999886,
          "durationTicks": 840,
          "midi": 67,
          "name": "G4",
          "ticks": 399360,
          "time": 332.8,
          "velocity": 0.8267716535433071
        },
        {
          "duration": 0.33333333333337123,
          "durationTicks": 400,
          "midi": 67,
          "name": "G4",
          "ticks": 400320,
          "time": 333.6,
          "velocity": 0.8267716535433071
        },
        {
          "duration": 0.33333333333337123,
          "durationTicks": 400,
          "midi": 67,
          "name": "G4",
          "ticks": 400800,
          "time": 334,
          "velocity": 0.8267716535433071
        },
        {
          "duration": 0.6999999999999886,
          "durationTicks": 840,
          "midi": 67,
          "name": "G4",
          "ticks": 401280,
          "time": 334.40000000000003,
          "velocity": 0.8267716535433071
        },
        {
          "duration": 0.3333333333333144,
          "durationTicks": 400,
          "midi": 67,
          "name": "G4",
          "ticks": 402240,
          "time": 335.20000000000005,
          "velocity": 0.8267716535433071
        },
        {
          "duration": 0.33333333333337123,
          "durationTicks": 400,
          "midi": 67,
          "name": "G4",
          "ticks": 402720,
          "time": 335.6,
          "velocity": 0.8267716535433071
        },
        {
          "duration": 0.7000000000000455,
          "durationTicks": 840,
          "midi": 67,
          "name": "G4",
          "ticks": 403200,
          "time": 336,
          "velocity": 0.8267716535433071
        },
        {
          "duration": 0.33333333333337123,
          "durationTicks": 400,
          "midi": 67,
          "name": "G4",
          "ticks": 404160,
          "time": 336.8,
          "velocity": 0.8267716535433071
        },
        {
          "duration": 0.3333333333333144,
          "durationTicks": 400,
          "midi": 67,
          "name": "G4",
          "ticks": 404640,
          "time": 337.20000000000005,
          "velocity": 0.8267716535433071
        },
        {
          "duration": 0.33333333333337123,
          "durationTicks": 400,
          "midi": 67,
          "name": "G4",
          "ticks": 405120,
          "time": 337.6,
          "velocity": 0.6771653543307087
        },
        {
          "duration": 0.3333333333333144,
          "durationTicks": 400,
          "midi": 67,
          "name": "G4",
          "ticks": 406080,
          "time": 338.40000000000003,
          "velocity": 0.6771653543307087
        },
        {
          "duration": 0.6999999999999886,
          "durationTicks": 840,
          "midi": 72,
          "name": "C5",
          "ticks": 407040,
          "time": 339.20000000000005,
          "velocity": 0.6771653543307087
        },
        {
          "duration": 0.6999999999999886,
          "durationTicks": 840,
          "midi": 76,
          "name": "E5",
          "ticks": 407040,
          "time": 339.20000000000005,
          "velocity": 0.6771653543307087
        },
        {
          "duration": 0.7000000000000455,
          "durationTicks": 840,
          "midi": 74,
          "name": "D5",
          "ticks": 408000,
          "time": 340,
          "velocity": 0.6771653543307087
        },
        {
          "duration": 0.6999999999999886,
          "durationTicks": 840,
          "midi": 67,
          "name": "G4",
          "ticks": 408960,
          "time": 340.8,
          "velocity": 0.6771653543307087
        },
        {
          "duration": 0.33333333333337123,
          "durationTicks": 400,
          "midi": 67,
          "name": "G4",
          "ticks": 409920,
          "time": 341.6,
          "velocity": 0.6771653543307087
        },
        {
          "duration": 0.33333333333337123,
          "durationTicks": 400,
          "midi": 67,
          "name": "G4",
          "ticks": 410400,
          "time": 342,
          "velocity": 0.6771653543307087
        },
        {
          "duration": 0.6999999999999886,
          "durationTicks": 840,
          "midi": 67,
          "name": "G4",
          "ticks": 410880,
          "time": 342.40000000000003,
          "velocity": 0.6771653543307087
        },
        {
          "duration": 0.3333333333333144,
          "durationTicks": 400,
          "midi": 67,
          "name": "G4",
          "ticks": 411840,
          "time": 343.20000000000005,
          "velocity": 0.6771653543307087
        },
        {
          "duration": 0.33333333333337123,
          "durationTicks": 400,
          "midi": 67,
          "name": "G4",
          "ticks": 412320,
          "time": 343.6,
          "velocity": 0.6771653543307087
        },
        {
          "duration": 0.7000000000000455,
          "durationTicks": 840,
          "midi": 67,
          "name": "G4",
          "ticks": 412800,
          "time": 344,
          "velocity": 0.6771653543307087
        },
        {
          "duration": 0.33333333333337123,
          "durationTicks": 400,
          "midi": 67,
          "name": "G4",
          "ticks": 413760,
          "time": 344.8,
          "velocity": 0.6771653543307087
        },
        {
          "duration": 0.3333333333333144,
          "durationTicks": 400,
          "midi": 67,
          "name": "G4",
          "ticks": 414240,
          "time": 345.20000000000005,
          "velocity": 0.6771653543307087
        },
        {
          "duration": 0.33333333333337123,
          "durationTicks": 400,
          "midi": 67,
          "name": "G4",
          "ticks": 414720,
          "time": 345.6,
          "velocity": 0.6771653543307087
        },
        {
          "duration": 0.33333333333337123,
          "durationTicks": 400,
          "midi": 64,
          "name": "E4",
          "ticks": 416160,
          "time": 346.8,
          "velocity": 0.6771653543307087
        },
        {
          "duration": 0.33333333333337123,
          "durationTicks": 400,
          "midi": 76,
          "name": "E5",
          "ticks": 416160,
          "time": 346.8,
          "velocity": 0.6771653543307087
        },
        {
          "duration": 0.3333333333333144,
          "durationTicks": 400,
          "midi": 60,
          "name": "C4",
          "ticks": 416640,
          "time": 347.20000000000005,
          "velocity": 0.6771653543307087
        },
        {
          "duration": 0.3333333333333144,
          "durationTicks": 400,
          "midi": 72,
          "name": "C5",
          "ticks": 416640,
          "time": 347.20000000000005,
          "velocity": 0.6771653543307087
        },
        {
          "duration": 0.33333333333337123,
          "durationTicks": 400,
          "midi": 60,
          "name": "C4",
          "ticks": 417600,
          "time": 348,
          "velocity": 0.6771653543307087
        },
        {
          "duration": 0.33333333333337123,
          "durationTicks": 400,
          "midi": 72,
          "name": "C5",
          "ticks": 417600,
          "time": 348,
          "velocity": 0.6771653543307087
        },
        {
          "duration": 0.33333333333337123,
          "durationTicks": 400,
          "midi": 60,
          "name": "C4",
          "ticks": 418560,
          "time": 348.8,
          "velocity": 0.6771653543307087
        },
        {
          "duration": 0.33333333333337123,
          "durationTicks": 400,
          "midi": 72,
          "name": "C5",
          "ticks": 418560,
          "time": 348.8,
          "velocity": 0.6771653543307087
        },
        {
          "duration": 0.6999999999999886,
          "durationTicks": 840,
          "midi": 74,
          "name": "D5",
          "ticks": 442080,
          "time": 368.40000000000003,
          "velocity": 0.8267716535433071
        },
        {
          "duration": 0.3333333333333144,
          "durationTicks": 400,
          "midi": 74,
          "name": "D5",
          "ticks": 443040,
          "time": 369.20000000000005,
          "velocity": 0.8267716535433071
        },
        {
          "duration": 0.19666666666665833,
          "durationTicks": 236,
          "midi": 74,
          "name": "D5",
          "ticks": 443520,
          "time": 369.6,
          "velocity": 0.8267716535433071
        },
        {
          "duration": 0.7000000000000455,
          "durationTicks": 840,
          "midi": 74,
          "name": "D5",
          "ticks": 444000,
          "time": 370,
          "velocity": 0.8267716535433071
        },
        {
          "duration": 0.33333333333337123,
          "durationTicks": 400,
          "midi": 74,
          "name": "D5",
          "ticks": 444960,
          "time": 370.8,
          "velocity": 0.8267716535433071
        },
        {
          "duration": 0.19666666666665833,
          "durationTicks": 236,
          "midi": 67,
          "name": "G4",
          "ticks": 445440,
          "time": 371.20000000000005,
          "velocity": 0.8267716535433071
        },
        {
          "duration": 0.19666666666665833,
          "durationTicks": 236,
          "midi": 74,
          "name": "D5",
          "ticks": 445440,
          "time": 371.20000000000005,
          "velocity": 0.8267716535433071
        },
        {
          "duration": 0.19666666666665833,
          "durationTicks": 236,
          "midi": 67,
          "name": "G4",
          "ticks": 445920,
          "time": 371.6,
          "velocity": 0.8267716535433071
        },
        {
          "duration": 0.19666666666665833,
          "durationTicks": 236,
          "midi": 76,
          "name": "E5",
          "ticks": 445920,
          "time": 371.6,
          "velocity": 0.8267716535433071
        },
        {
          "duration": 0.19666666666671517,
          "durationTicks": 236,
          "midi": 72,
          "name": "C5",
          "ticks": 446400,
          "time": 372,
          "velocity": 0.8267716535433071
        },
        {
          "duration": 0.19666666666671517,
          "durationTicks": 236,
          "midi": 76,
          "name": "E5",
          "ticks": 446400,
          "time": 372,
          "velocity": 0.8267716535433071
        },
        {
          "duration": 0.19666666666665833,
          "durationTicks": 236,
          "midi": 74,
          "name": "D5",
          "ticks": 446880,
          "time": 372.40000000000003,
          "velocity": 0.8267716535433071
        },
        {
          "duration": 0.19666666666665833,
          "durationTicks": 236,
          "midi": 67,
          "name": "G4",
          "ticks": 447360,
          "time": 372.8,
          "velocity": 0.8267716535433071
        },
        {
          "duration": 0.19666666666665833,
          "durationTicks": 236,
          "midi": 74,
          "name": "D5",
          "ticks": 447360,
          "time": 372.8,
          "velocity": 0.8267716535433071
        },
        {
          "duration": 0.6999999999999886,
          "durationTicks": 840,
          "midi": 74,
          "name": "D5",
          "ticks": 447840,
          "time": 373.20000000000005,
          "velocity": 0.8267716535433071
        },
        {
          "duration": 0.33333333333337123,
          "durationTicks": 400,
          "midi": 74,
          "name": "D5",
          "ticks": 448800,
          "time": 374,
          "velocity": 0.8267716535433071
        },
        {
          "duration": 0.19666666666665833,
          "durationTicks": 236,
          "midi": 74,
          "name": "D5",
          "ticks": 449280,
          "time": 374.40000000000003,
          "velocity": 0.8267716535433071
        },
        {
          "duration": 0.6999999999999886,
          "durationTicks": 840,
          "midi": 74,
          "name": "D5",
          "ticks": 449760,
          "time": 374.8,
          "velocity": 0.8267716535433071
        },
        {
          "duration": 0.33333333333337123,
          "durationTicks": 400,
          "midi": 74,
          "name": "D5",
          "ticks": 450720,
          "time": 375.6,
          "velocity": 0.8267716535433071
        },
        {
          "duration": 0.19666666666671517,
          "durationTicks": 236,
          "midi": 67,
          "name": "G4",
          "ticks": 451200,
          "time": 376,
          "velocity": 0.8267716535433071
        },
        {
          "duration": 0.19666666666671517,
          "durationTicks": 236,
          "midi": 74,
          "name": "D5",
          "ticks": 451200,
          "time": 376,
          "velocity": 0.8267716535433071
        },
        {
          "duration": 0.19666666666665833,
          "durationTicks": 236,
          "midi": 67,
          "name": "G4",
          "ticks": 451680,
          "time": 376.40000000000003,
          "velocity": 0.8267716535433071
        },
        {
          "duration": 0.19666666666665833,
          "durationTicks": 236,
          "midi": 76,
          "name": "E5",
          "ticks": 451680,
          "time": 376.40000000000003,
          "velocity": 0.8267716535433071
        },
        {
          "duration": 0.19666666666665833,
          "durationTicks": 236,
          "midi": 72,
          "name": "C5",
          "ticks": 452160,
          "time": 376.8,
          "velocity": 0.8267716535433071
        },
        {
          "duration": 0.19666666666665833,
          "durationTicks": 236,
          "midi": 76,
          "name": "E5",
          "ticks": 452160,
          "time": 376.8,
          "velocity": 0.8267716535433071
        },
        {
          "duration": 0.19666666666665833,
          "durationTicks": 236,
          "midi": 74,
          "name": "D5",
          "ticks": 452640,
          "time": 377.20000000000005,
          "velocity": 0.8267716535433071
        },
        {
          "duration": 0.33333333333337123,
          "durationTicks": 400,
          "midi": 67,
          "name": "G4",
          "ticks": 453120,
          "time": 377.6,
          "velocity": 0.8267716535433071
        },
        {
          "duration": 0.33333333333337123,
          "durationTicks": 400,
          "midi": 74,
          "name": "D5",
          "ticks": 453120,
          "time": 377.6,
          "velocity": 0.8267716535433071
        },
        {
          "duration": 0.3333333333333144,
          "durationTicks": 400,
          "midi": 74,
          "name": "D5",
          "ticks": 454080,
          "time": 378.40000000000003,
          "velocity": 0.8267716535433071
        },
        {
          "duration": 0.3333333333333144,
          "durationTicks": 400,
          "midi": 67,
          "name": "G4",
          "ticks": 455040,
          "time": 379.20000000000005,
          "velocity": 0.8267716535433071
        },
        {
          "duration": 0.3333333333333144,
          "durationTicks": 400,
          "midi": 74,
          "name": "D5",
          "ticks": 455040,
          "time": 379.20000000000005,
          "velocity": 0.8267716535433071
        },
        {
          "duration": 0.33333333333337123,
          "durationTicks": 400,
          "midi": 74,
          "name": "D5",
          "ticks": 456000,
          "time": 380,
          "velocity": 0.8267716535433071
        },
        {
          "duration": 0.33333333333337123,
          "durationTicks": 400,
          "midi": 67,
          "name": "G4",
          "ticks": 456960,
          "time": 380.8,
          "velocity": 0.8267716535433071
        },
        {
          "duration": 0.33333333333337123,
          "durationTicks": 400,
          "midi": 74,
          "name": "D5",
          "ticks": 456960,
          "time": 380.8,
          "velocity": 0.8267716535433071
        },
        {
          "duration": 0.33333333333337123,
          "durationTicks": 400,
          "midi": 74,
          "name": "D5",
          "ticks": 457920,
          "time": 381.6,
          "velocity": 0.8267716535433071
        },
        {
          "duration": 0.3333333333333144,
          "durationTicks": 400,
          "midi": 67,
          "name": "G4",
          "ticks": 458880,
          "time": 382.40000000000003,
          "velocity": 0.8267716535433071
        },
        {
          "duration": 0.3333333333333144,
          "durationTicks": 400,
          "midi": 74,
          "name": "D5",
          "ticks": 458880,
          "time": 382.40000000000003,
          "velocity": 0.8267716535433071
        },
        {
          "duration": 0.33333333333337123,
          "durationTicks": 400,
          "midi": 55,
          "name": "G3",
          "ticks": 459360,
          "time": 382.8,
          "velocity": 0.8267716535433071
        },
        {
          "duration": 0.33333333333337123,
          "durationTicks": 400,
          "midi": 67,
          "name": "G4",
          "ticks": 459360,
          "time": 382.8,
          "velocity": 0.8267716535433071
        },
        {
          "duration": 0.3333333333333144,
          "durationTicks": 400,
          "midi": 55,
          "name": "G3",
          "ticks": 459840,
          "time": 383.20000000000005,
          "velocity": 0.8267716535433071
        },
        {
          "duration": 0.3333333333333144,
          "durationTicks": 400,
          "midi": 67,
          "name": "G4",
          "ticks": 459840,
          "time": 383.20000000000005,
          "velocity": 0.8267716535433071
        },
        {
          "duration": 0.3333333333333144,
          "durationTicks": 400,
          "midi": 60,
          "name": "C4",
          "ticks": 556800,
          "time": 464,
          "velocity": 0.8267716535433071
        },
        {
          "duration": 0.3333333333333144,
          "durationTicks": 400,
          "midi": 64,
          "name": "E4",
          "ticks": 556800,
          "time": 464,
          "velocity": 0.8267716535433071
        },
        {
          "duration": 0.33333333333325754,
          "durationTicks": 400,
          "midi": 64,
          "name": "E4",
          "ticks": 560640,
          "time": 467.20000000000005,
          "velocity": 0.8267716535433071
        },
        {
          "duration": 0.33333333333325754,
          "durationTicks": 400,
          "midi": 76,
          "name": "E5",
          "ticks": 560640,
          "time": 467.20000000000005,
          "velocity": 0.8267716535433071
        },
        {
          "duration": 0.3333333333333144,
          "durationTicks": 400,
          "midi": 74,
          "name": "D5",
          "ticks": 564480,
          "time": 470.40000000000003,
          "velocity": 0.8267716535433071
        },
        {
          "duration": 0.3333333333333144,
          "durationTicks": 400,
          "midi": 67,
          "name": "G4",
          "ticks": 568320,
          "time": 473.6,
          "velocity": 0.8267716535433071
        },
        {
          "duration": 0.3333333333333144,
          "durationTicks": 400,
          "midi": 72,
          "name": "C5",
          "ticks": 568320,
          "time": 473.6,
          "velocity": 0.8267716535433071
        },
        {
          "duration": 0.33333333333325754,
          "durationTicks": 400,
          "midi": 60,
          "name": "C4",
          "ticks": 570240,
          "time": 475.20000000000005,
          "velocity": 0.8267716535433071
        },
        {
          "duration": 0.33333333333325754,
          "durationTicks": 400,
          "midi": 72,
          "name": "C5",
          "ticks": 570240,
          "time": 475.20000000000005,
          "velocity": 0.8267716535433071
        },
        {
          "duration": 0.3333333333333144,
          "durationTicks": 400,
          "midi": 67,
          "name": "G4",
          "ticks": 572160,
          "time": 476.8,
          "velocity": 0.8267716535433071
        },
        {
          "duration": 0.3333333333333144,
          "durationTicks": 400,
          "midi": 74,
          "name": "D5",
          "ticks": 572160,
          "time": 476.8,
          "velocity": 0.8267716535433071
        },
        {
          "duration": 0.3333333333333144,
          "durationTicks": 400,
          "midi": 74,
          "name": "D5",
          "ticks": 573120,
          "time": 477.6,
          "velocity": 0.8267716535433071
        },
        {
          "duration": 0.3333333333333144,
          "durationTicks": 400,
          "midi": 67,
          "name": "G4",
          "ticks": 574080,
          "time": 478.40000000000003,
          "velocity": 0.8267716535433071
        },
        {
          "duration": 0.3333333333333144,
          "durationTicks": 400,
          "midi": 74,
          "name": "D5",
          "ticks": 574080,
          "time": 478.40000000000003,
          "velocity": 0.8267716535433071
        },
        {
          "duration": 0.33333333333325754,
          "durationTicks": 400,
          "midi": 74,
          "name": "D5",
          "ticks": 575040,
          "time": 479.20000000000005,
          "velocity": 0.8267716535433071
        },
        {
          "duration": 0.3333333333333144,
          "durationTicks": 400,
          "midi": 67,
          "name": "G4",
          "ticks": 576000,
          "time": 480,
          "velocity": 0.8267716535433071
        },
        {
          "duration": 0.3333333333333144,
          "durationTicks": 400,
          "midi": 74,
          "name": "D5",
          "ticks": 576000,
          "time": 480,
          "velocity": 0.8267716535433071
        },
        {
          "duration": 0.3333333333333144,
          "durationTicks": 400,
          "midi": 55,
          "name": "G3",
          "ticks": 583680,
          "time": 486.40000000000003,
          "velocity": 0.4015748031496063
        },
        {
          "duration": 0.3333333333333144,
          "durationTicks": 400,
          "midi": 67,
          "name": "G4",
          "ticks": 583680,
          "time": 486.40000000000003,
          "velocity": 0.4015748031496063
        },
        {
          "duration": 0.3333333333333144,
          "durationTicks": 400,
          "midi": 55,
          "name": "G3",
          "ticks": 585600,
          "time": 488,
          "velocity": 0.4015748031496063
        },
        {
          "duration": 0.3333333333333144,
          "durationTicks": 400,
          "midi": 67,
          "name": "G4",
          "ticks": 585600,
          "time": 488,
          "velocity": 0.4015748031496063
        },
        {
          "duration": 0.3333333333333144,
          "durationTicks": 400,
          "midi": 55,
          "name": "G3",
          "ticks": 587520,
          "time": 489.6,
          "velocity": 0.4015748031496063
        },
        {
          "duration": 0.3333333333333144,
          "durationTicks": 400,
          "midi": 67,
          "name": "G4",
          "ticks": 587520,
          "time": 489.6,
          "velocity": 0.4015748031496063
        },
        {
          "duration": 0.33333333333325754,
          "durationTicks": 400,
          "midi": 55,
          "name": "G3",
          "ticks": 589440,
          "time": 491.20000000000005,
          "velocity": 0.4015748031496063
        },
        {
          "duration": 0.33333333333325754,
          "durationTicks": 400,
          "midi": 67,
          "name": "G4",
          "ticks": 589440,
          "time": 491.20000000000005,
          "velocity": 0.4015748031496063
        },
        {
          "duration": 0.3333333333333144,
          "durationTicks": 400,
          "midi": 55,
          "name": "G3",
          "ticks": 590400,
          "time": 492,
          "velocity": 0.4015748031496063
        },
        {
          "duration": 0.3333333333333144,
          "durationTicks": 400,
          "midi": 67,
          "name": "G4",
          "ticks": 590400,
          "time": 492,
          "velocity": 0.4015748031496063
        },
        {
          "duration": 0.3333333333333144,
          "durationTicks": 400,
          "midi": 60,
          "name": "C4",
          "ticks": 591360,
          "time": 492.8,
          "velocity": 0.4015748031496063
        },
        {
          "duration": 0.3333333333333144,
          "durationTicks": 400,
          "midi": 72,
          "name": "C5",
          "ticks": 591360,
          "time": 492.8,
          "velocity": 0.4015748031496063
        },
        {
          "duration": 0.3333333333333144,
          "durationTicks": 400,
          "midi": 60,
          "name": "C4",
          "ticks": 592320,
          "time": 493.6,
          "velocity": 0.4015748031496063
        },
        {
          "duration": 0.3333333333333144,
          "durationTicks": 400,
          "midi": 72,
          "name": "C5",
          "ticks": 592320,
          "time": 493.6,
          "velocity": 0.4015748031496063
        },
        {
          "duration": 0.3333333333333144,
          "durationTicks": 400,
          "midi": 60,
          "name": "C4",
          "ticks": 593280,
          "time": 494.40000000000003,
          "velocity": 0.4015748031496063
        },
        {
          "duration": 0.3333333333333144,
          "durationTicks": 400,
          "midi": 72,
          "name": "C5",
          "ticks": 593280,
          "time": 494.40000000000003,
          "velocity": 0.4015748031496063
        },
        {
          "duration": 0.33333333333325754,
          "durationTicks": 400,
          "midi": 67,
          "name": "G4",
          "ticks": 599040,
          "time": 499.20000000000005,
          "velocity": 0.8267716535433071
        },
        {
          "duration": 0.3333333333333144,
          "durationTicks": 400,
          "midi": 67,
          "name": "G4",
          "ticks": 600000,
          "time": 500,
          "velocity": 0.8267716535433071
        },
        {
          "duration": 0.3333333333333144,
          "durationTicks": 400,
          "midi": 67,
          "name": "G4",
          "ticks": 600960,
          "time": 500.8,
          "velocity": 0.8267716535433071
        },
        {
          "duration": 0.2966666666666242,
          "durationTicks": 356,
          "midi": 60,
          "name": "C4",
          "ticks": 607200,
          "time": 506,
          "velocity": 0.8267716535433071
        },
        {
          "duration": 0.2966666666666242,
          "durationTicks": 356,
          "midi": 72,
          "name": "C5",
          "ticks": 607200,
          "time": 506,
          "velocity": 0.8267716535433071
        },
        {
          "duration": 0.09666666666663559,
          "durationTicks": 116,
          "midi": 60,
          "name": "C4",
          "ticks": 607560,
          "time": 506.3,
          "velocity": 0.8267716535433071
        },
        {
          "duration": 0.09666666666663559,
          "durationTicks": 116,
          "midi": 72,
          "name": "C5",
          "ticks": 607560,
          "time": 506.3,
          "velocity": 0.8267716535433071
        },
        {
          "duration": 0.3333333333333144,
          "durationTicks": 400,
          "midi": 60,
          "name": "C4",
          "ticks": 607680,
          "time": 506.40000000000003,
          "velocity": 0.8267716535433071
        },
        {
          "duration": 0.3333333333333144,
          "durationTicks": 400,
          "midi": 72,
          "name": "C5",
          "ticks": 607680,
          "time": 506.40000000000003,
          "velocity": 0.8267716535433071
        },
        {
          "duration": 0.2966666666666242,
          "durationTicks": 356,
          "midi": 60,
          "name": "C4",
          "ticks": 609120,
          "time": 507.6,
          "velocity": 0.8267716535433071
        },
        {
          "duration": 0.2966666666666242,
          "durationTicks": 356,
          "midi": 72,
          "name": "C5",
          "ticks": 609120,
          "time": 507.6,
          "velocity": 0.8267716535433071
        },
        {
          "duration": 0.09666666666663559,
          "durationTicks": 116,
          "midi": 60,
          "name": "C4",
          "ticks": 609480,
          "time": 507.90000000000003,
          "velocity": 0.8267716535433071
        },
        {
          "duration": 0.09666666666663559,
          "durationTicks": 116,
          "midi": 72,
          "name": "C5",
          "ticks": 609480,
          "time": 507.90000000000003,
          "velocity": 0.8267716535433071
        },
        {
          "duration": 0.3333333333333144,
          "durationTicks": 400,
          "midi": 60,
          "name": "C4",
          "ticks": 609600,
          "time": 508,
          "velocity": 0.8267716535433071
        },
        {
          "duration": 0.3333333333333144,
          "durationTicks": 400,
          "midi": 72,
          "name": "C5",
          "ticks": 609600,
          "time": 508,
          "velocity": 0.8267716535433071
        },
        {
          "duration": 0.2966666666666242,
          "durationTicks": 356,
          "midi": 67,
          "name": "G4",
          "ticks": 611040,
          "time": 509.20000000000005,
          "velocity": 0.8267716535433071
        },
        {
          "duration": 0.09666666666663559,
          "durationTicks": 116,
          "midi": 67,
          "name": "G4",
          "ticks": 611400,
          "time": 509.5,
          "velocity": 0.8267716535433071
        },
        {
          "duration": 0.3333333333333144,
          "durationTicks": 400,
          "midi": 67,
          "name": "G4",
          "ticks": 611520,
          "time": 509.6,
          "velocity": 0.8267716535433071
        },
        {
          "duration": 0.2966666666666242,
          "durationTicks": 356,
          "midi": 60,
          "name": "C4",
          "ticks": 612960,
          "time": 510.8,
          "velocity": 0.8267716535433071
        },
        {
          "duration": 0.2966666666666242,
          "durationTicks": 356,
          "midi": 72,
          "name": "C5",
          "ticks": 612960,
          "time": 510.8,
          "velocity": 0.8267716535433071
        },
        {
          "duration": 0.09666666666663559,
          "durationTicks": 116,
          "midi": 60,
          "name": "C4",
          "ticks": 613320,
          "time": 511.1,
          "velocity": 0.8267716535433071
        },
        {
          "duration": 0.09666666666663559,
          "durationTicks": 116,
          "midi": 72,
          "name": "C5",
          "ticks": 613320,
          "time": 511.1,
          "velocity": 0.8267716535433071
        },
        {
          "duration": 0.33333333333325754,
          "durationTicks": 400,
          "midi": 60,
          "name": "C4",
          "ticks": 613440,
          "time": 511.20000000000005,
          "velocity": 0.8267716535433071
        },
        {
          "duration": 0.33333333333325754,
          "durationTicks": 400,
          "midi": 72,
          "name": "C5",
          "ticks": 613440,
          "time": 511.20000000000005,
          "velocity": 0.8267716535433071
        },
        {
          "duration": 0.2966666666666242,
          "durationTicks": 356,
          "midi": 60,
          "name": "C4",
          "ticks": 614880,
          "time": 512.4,
          "velocity": 0.8267716535433071
        },
        {
          "duration": 0.2966666666666242,
          "durationTicks": 356,
          "midi": 72,
          "name": "C5",
          "ticks": 614880,
          "time": 512.4,
          "velocity": 0.8267716535433071
        },
        {
          "duration": 0.09666666666657875,
          "durationTicks": 116,
          "midi": 60,
          "name": "C4",
          "ticks": 615240,
          "time": 512.7,
          "velocity": 0.8267716535433071
        },
        {
          "duration": 0.09666666666657875,
          "durationTicks": 116,
          "midi": 72,
          "name": "C5",
          "ticks": 615240,
          "time": 512.7,
          "velocity": 0.8267716535433071
        },
        {
          "duration": 0.33333333333325754,
          "durationTicks": 400,
          "midi": 60,
          "name": "C4",
          "ticks": 615360,
          "time": 512.8000000000001,
          "velocity": 0.8267716535433071
        },
        {
          "duration": 0.33333333333325754,
          "durationTicks": 400,
          "midi": 72,
          "name": "C5",
          "ticks": 615360,
          "time": 512.8000000000001,
          "velocity": 0.8267716535433071
        },
        {
          "duration": 0.2966666666666242,
          "durationTicks": 356,
          "midi": 67,
          "name": "G4",
          "ticks": 616800,
          "time": 514,
          "velocity": 0.8267716535433071
        },
        {
          "duration": 0.09666666666657875,
          "durationTicks": 116,
          "midi": 67,
          "name": "G4",
          "ticks": 617160,
          "time": 514.3000000000001,
          "velocity": 0.8267716535433071
        },
        {
          "duration": 0.33333333333337123,
          "durationTicks": 400,
          "midi": 67,
          "name": "G4",
          "ticks": 617280,
          "time": 514.4,
          "velocity": 0.8267716535433071
        },
        {
          "duration": 0.33333333333325754,
          "durationTicks": 400,
          "midi": 55,
          "name": "G3",
          "ticks": 618240,
          "time": 515.2,
          "velocity": 0.8267716535433071
        },
        {
          "duration": 0.33333333333325754,
          "durationTicks": 400,
          "midi": 67,
          "name": "G4",
          "ticks": 618240,
          "time": 515.2,
          "velocity": 0.8267716535433071
        },
        {
          "duration": 0.33333333333337123,
          "durationTicks": 400,
          "midi": 55,
          "name": "G3",
          "ticks": 619200,
          "time": 516,
          "velocity": 0.8267716535433071
        },
        {
          "duration": 0.33333333333337123,
          "durationTicks": 400,
          "midi": 67,
          "name": "G4",
          "ticks": 619200,
          "time": 516,
          "velocity": 0.8267716535433071
        },
        {
          "duration": 0.33333333333325754,
          "durationTicks": 400,
          "midi": 55,
          "name": "G3",
          "ticks": 620160,
          "time": 516.8000000000001,
          "velocity": 0.8267716535433071
        },
        {
          "duration": 0.33333333333325754,
          "durationTicks": 400,
          "midi": 67,
          "name": "G4",
          "ticks": 620160,
          "time": 516.8000000000001,
          "velocity": 0.8267716535433071
        },
        {
          "duration": 0.33333333333325754,
          "durationTicks": 400,
          "midi": 55,
          "name": "G3",
          "ticks": 621120,
          "time": 517.6,
          "velocity": 0.8267716535433071
        },
        {
          "duration": 0.33333333333325754,
          "durationTicks": 400,
          "midi": 67,
          "name": "G4",
          "ticks": 621120,
          "time": 517.6,
          "velocity": 0.8267716535433071
        },
        {
          "duration": 0.33333333333337123,
          "durationTicks": 400,
          "midi": 55,
          "name": "G3",
          "ticks": 622080,
          "time": 518.4,
          "velocity": 0.8267716535433071
        },
        {
          "duration": 0.33333333333337123,
          "durationTicks": 400,
          "midi": 67,
          "name": "G4",
          "ticks": 622080,
          "time": 518.4,
          "velocity": 0.8267716535433071
        },
        {
          "duration": 0.33333333333325754,
          "durationTicks": 400,
          "midi": 67,
          "name": "G4",
          "ticks": 622560,
          "time": 518.8000000000001,
          "velocity": 0.8267716535433071
        },
        {
          "duration": 0.33333333333325754,
          "durationTicks": 400,
          "midi": 72,
          "name": "C5",
          "ticks": 623040,
          "time": 519.2,
          "velocity": 0.8267716535433071
        },
        {
          "duration": 0.33333333333325754,
          "durationTicks": 400,
          "midi": 67,
          "name": "G4",
          "ticks": 623520,
          "time": 519.6,
          "velocity": 0.8267716535433071
        },
        {
          "duration": 0.33333333333337123,
          "durationTicks": 400,
          "midi": 72,
          "name": "C5",
          "ticks": 624000,
          "time": 520,
          "velocity": 0.8267716535433071
        },
        {
          "duration": 0.33333333333337123,
          "durationTicks": 400,
          "midi": 67,
          "name": "G4",
          "ticks": 624480,
          "time": 520.4,
          "velocity": 0.8267716535433071
        },
        {
          "duration": 0.33333333333325754,
          "durationTicks": 400,
          "midi": 64,
          "name": "E4",
          "ticks": 624960,
          "time": 520.8000000000001,
          "velocity": 0.8267716535433071
        },
        {
          "duration": 0.33333333333325754,
          "durationTicks": 400,
          "midi": 60,
          "name": "C4",
          "ticks": 625440,
          "time": 521.2,
          "velocity": 0.8267716535433071
        },
        {
          "duration": 0.33333333333325754,
          "durationTicks": 400,
          "midi": 55,
          "name": "G3",
          "ticks": 625920,
          "time": 521.6,
          "velocity": 0.8267716535433071
        },
        {
          "duration": 0.33333333333325754,
          "durationTicks": 400,
          "midi": 67,
          "name": "G4",
          "ticks": 625920,
          "time": 521.6,
          "velocity": 0.8267716535433071
        },
        {
          "duration": 0.33333333333337123,
          "durationTicks": 400,
          "midi": 55,
          "name": "G3",
          "ticks": 626880,
          "time": 522.4,
          "velocity": 0.8267716535433071
        },
        {
          "duration": 0.33333333333337123,
          "durationTicks": 400,
          "midi": 67,
          "name": "G4",
          "ticks": 626880,
          "time": 522.4,
          "velocity": 0.8267716535433071
        },
        {
          "duration": 0.33333333333325754,
          "durationTicks": 400,
          "midi": 55,
          "name": "G3",
          "ticks": 627840,
          "time": 523.2,
          "velocity": 0.8267716535433071
        },
        {
          "duration": 0.33333333333325754,
          "durationTicks": 400,
          "midi": 67,
          "name": "G4",
          "ticks": 627840,
          "time": 523.2,
          "velocity": 0.8267716535433071
        },
        {
          "duration": 0.33333333333337123,
          "durationTicks": 400,
          "midi": 55,
          "name": "G3",
          "ticks": 628800,
          "time": 524,
          "velocity": 0.8267716535433071
        },
        {
          "duration": 0.33333333333337123,
          "durationTicks": 400,
          "midi": 67,
          "name": "G4",
          "ticks": 628800,
          "time": 524,
          "velocity": 0.8267716535433071
        },
        {
          "duration": 0.1966666666666015,
          "durationTicks": 236,
          "midi": 55,
          "name": "G3",
          "ticks": 629760,
          "time": 524.8000000000001,
          "velocity": 0.8267716535433071
        },
        {
          "duration": 0.1966666666666015,
          "durationTicks": 236,
          "midi": 67,
          "name": "G4",
          "ticks": 629760,
          "time": 524.8000000000001,
          "velocity": 0.8267716535433071
        },
        {
          "duration": 0.1966666666666015,
          "durationTicks": 236,
          "midi": 55,
          "name": "G3",
          "ticks": 630000,
          "time": 525,
          "velocity": 0.8346456692913385
        },
        {
          "duration": 0.1966666666666015,
          "durationTicks": 236,
          "midi": 67,
          "name": "G4",
          "ticks": 630000,
          "time": 525,
          "velocity": 0.8346456692913385
        },
        {
          "duration": 0.1966666666666015,
          "durationTicks": 236,
          "midi": 55,
          "name": "G3",
          "ticks": 630240,
          "time": 525.2,
          "velocity": 0.8503937007874016
        },
        {
          "duration": 0.1966666666666015,
          "durationTicks": 236,
          "midi": 67,
          "name": "G4",
          "ticks": 630240,
          "time": 525.2,
          "velocity": 0.8503937007874016
        },
        {
          "duration": 0.19666666666671517,
          "durationTicks": 236,
          "midi": 55,
          "name": "G3",
          "ticks": 630480,
          "time": 525.4,
          "velocity": 0.8582677165354331
        },
        {
          "duration": 0.19666666666671517,
          "durationTicks": 236,
          "midi": 67,
          "name": "G4",
          "ticks": 630480,
          "time": 525.4,
          "velocity": 0.8582677165354331
        },
        {
          "duration": 0.1966666666666015,
          "durationTicks": 236,
          "midi": 55,
          "name": "G3",
          "ticks": 630720,
          "time": 525.6,
          "velocity": 0.8661417322834646
        },
        {
          "duration": 0.1966666666666015,
          "durationTicks": 236,
          "midi": 67,
          "name": "G4",
          "ticks": 630720,
          "time": 525.6,
          "velocity": 0.8661417322834646
        },
        {
          "duration": 0.1966666666666015,
          "durationTicks": 236,
          "midi": 55,
          "name": "G3",
          "ticks": 630960,
          "time": 525.8000000000001,
          "velocity": 0.8740157480314961
        },
        {
          "duration": 0.1966666666666015,
          "durationTicks": 236,
          "midi": 67,
          "name": "G4",
          "ticks": 630960,
          "time": 525.8000000000001,
          "velocity": 0.8740157480314961
        },
        {
          "duration": 0.1966666666666015,
          "durationTicks": 236,
          "midi": 55,
          "name": "G3",
          "ticks": 631200,
          "time": 526,
          "velocity": 0.8818897637795275
        },
        {
          "duration": 0.1966666666666015,
          "durationTicks": 236,
          "midi": 67,
          "name": "G4",
          "ticks": 631200,
          "time": 526,
          "velocity": 0.8818897637795275
        },
        {
          "duration": 0.1966666666666015,
          "durationTicks": 236,
          "midi": 55,
          "name": "G3",
          "ticks": 631440,
          "time": 526.2,
          "velocity": 0.889763779527559
        },
        {
          "duration": 0.1966666666666015,
          "durationTicks": 236,
          "midi": 67,
          "name": "G4",
          "ticks": 631440,
          "time": 526.2,
          "velocity": 0.889763779527559
        },
        {
          "duration": 0.33333333333337123,
          "durationTicks": 400,
          "midi": 55,
          "name": "G3",
          "ticks": 631680,
          "time": 526.4,
          "velocity": 0.905511811023622
        },
        {
          "duration": 0.33333333333337123,
          "durationTicks": 400,
          "midi": 67,
          "name": "G4",
          "ticks": 631680,
          "time": 526.4,
          "velocity": 0.905511811023622
        },
        {
          "duration": 0.33333333333325754,
          "durationTicks": 400,
          "midi": 55,
          "name": "G3",
          "ticks": 632640,
          "time": 527.2,
          "velocity": 0.937007874015748
        },
        {
          "duration": 0.33333333333325754,
          "durationTicks": 400,
          "midi": 67,
          "name": "G4",
          "ticks": 632640,
          "time": 527.2,
          "velocity": 0.937007874015748
        },
        {
          "duration": 0.33333333333325754,
          "durationTicks": 400,
          "midi": 55,
          "name": "G3",
          "ticks": 633120,
          "time": 527.6,
          "velocity": 0.952755905511811
        },
        {
          "duration": 0.33333333333325754,
          "durationTicks": 400,
          "midi": 67,
          "name": "G4",
          "ticks": 633120,
          "time": 527.6,
          "velocity": 0.952755905511811
        },
        {
          "duration": 1.5,
          "durationTicks": 1800,
          "midi": 55,
          "name": "G3",
          "ticks": 633600,
          "time": 528,
          "velocity": 0.9763779527559056
        },
        {
          "duration": 1.5,
          "durationTicks": 1800,
          "midi": 67,
          "name": "G4",
          "ticks": 633600,
          "time": 528,
          "velocity": 0.9763779527559056
        },
        {
          "duration": 0.33333333333337123,
          "durationTicks": 400,
          "midi": 67,
          "name": "G4",
          "ticks": 660480,
          "time": 550.4,
          "velocity": 0.8267716535433071
        },
        {
          "duration": 0.33333333333325754,
          "durationTicks": 400,
          "midi": 67,
          "name": "G4",
          "ticks": 661440,
          "time": 551.2,
          "velocity": 0.8267716535433071
        },
        {
          "duration": 0.33333333333337123,
          "durationTicks": 400,
          "midi": 67,
          "name": "G4",
          "ticks": 662400,
          "time": 552,
          "velocity": 0.8267716535433071
        },
        {
          "duration": 1.9333333333332803,
          "durationTicks": 2320,
          "midi": 67,
          "name": "G4",
          "ticks": 664320,
          "time": 553.6,
          "velocity": 0.8267716535433071
        },
        {
          "duration": 0.2966666666666242,
          "durationTicks": 356,
          "midi": 67,
          "name": "G4",
          "ticks": 666720,
          "time": 555.6,
          "velocity": 0.8267716535433071
        },
        {
          "duration": 0.09666666666669244,
          "durationTicks": 116,
          "midi": 67,
          "name": "G4",
          "ticks": 667080,
          "time": 555.9,
          "velocity": 0.8267716535433071
        },
        {
          "duration": 0.33333333333337123,
          "durationTicks": 400,
          "midi": 67,
          "name": "G4",
          "ticks": 667200,
          "time": 556,
          "velocity": 0.8267716535433071
        },
        {
          "duration": 0.33333333333337123,
          "durationTicks": 400,
          "midi": 67,
          "name": "G4",
          "ticks": 667680,
          "time": 556.4,
          "velocity": 0.8267716535433071
        },
        {
          "duration": 1.9333333333332803,
          "durationTicks": 2320,
          "midi": 67,
          "name": "G4",
          "ticks": 668160,
          "time": 556.8000000000001,
          "velocity": 0.8267716535433071
        },
        {
          "duration": 0.2966666666666242,
          "durationTicks": 356,
          "midi": 67,
          "name": "G4",
          "ticks": 670560,
          "time": 558.8000000000001,
          "velocity": 0.8267716535433071
        },
        {
          "duration": 0.09666666666657875,
          "durationTicks": 116,
          "midi": 67,
          "name": "G4",
          "ticks": 670920,
          "time": 559.1,
          "velocity": 0.8267716535433071
        },
        {
          "duration": 0.33333333333325754,
          "durationTicks": 400,
          "midi": 67,
          "name": "G4",
          "ticks": 671040,
          "time": 559.2,
          "velocity": 0.8267716535433071
        },
        {
          "duration": 0.33333333333325754,
          "durationTicks": 400,
          "midi": 67,
          "name": "G4",
          "ticks": 671520,
          "time": 559.6,
          "velocity": 0.8267716535433071
        },
        {
          "duration": 1.9333333333332803,
          "durationTicks": 2320,
          "midi": 67,
          "name": "G4",
          "ticks": 672000,
          "time": 560,
          "velocity": 0.8267716535433071
        },
        {
          "duration": 0.2966666666666242,
          "durationTicks": 356,
          "midi": 67,
          "name": "G4",
          "ticks": 674400,
          "time": 562,
          "velocity": 0.8267716535433071
        },
        {
          "duration": 0.09666666666657875,
          "durationTicks": 116,
          "midi": 67,
          "name": "G4",
          "ticks": 674760,
          "time": 562.3000000000001,
          "velocity": 0.8267716535433071
        },
        {
          "duration": 0.33333333333337123,
          "durationTicks": 400,
          "midi": 67,
          "name": "G4",
          "ticks": 674880,
          "time": 562.4,
          "velocity": 0.8267716535433071
        },
        {
          "duration": 0.33333333333325754,
          "durationTicks": 400,
          "midi": 67,
          "name": "G4",
          "ticks": 675360,
          "time": 562.8000000000001,
          "velocity": 0.8267716535433071
        },
        {
          "duration": 0.33333333333325754,
          "durationTicks": 400,
          "midi": 67,
          "name": "G4",
          "ticks": 675840,
          "time": 563.2,
          "velocity": 0.8267716535433071
        },
        {
          "duration": 0.2966666666666242,
          "durationTicks": 356,
          "midi": 67,
          "name": "G4",
          "ticks": 676320,
          "time": 563.6,
          "velocity": 0.8267716535433071
        },
        {
          "duration": 0.09666666666669244,
          "durationTicks": 116,
          "midi": 67,
          "name": "G4",
          "ticks": 676680,
          "time": 563.9,
          "velocity": 0.8267716535433071
        },
        {
          "duration": 0.33333333333337123,
          "durationTicks": 400,
          "midi": 67,
          "name": "G4",
          "ticks": 676800,
          "time": 564,
          "velocity": 0.8267716535433071
        },
        {
          "duration": 0.33333333333337123,
          "durationTicks": 400,
          "midi": 67,
          "name": "G4",
          "ticks": 677280,
          "time": 564.4,
          "velocity": 0.8267716535433071
        },
        {
          "duration": 0.33333333333325754,
          "durationTicks": 400,
          "midi": 67,
          "name": "G4",
          "ticks": 677760,
          "time": 564.8000000000001,
          "velocity": 0.8267716535433071
        },
        {
          "duration": 0.2966666666666242,
          "durationTicks": 356,
          "midi": 67,
          "name": "G4",
          "ticks": 678240,
          "time": 565.2,
          "velocity": 0.8267716535433071
        },
        {
          "duration": 0.09666666666669244,
          "durationTicks": 116,
          "midi": 67,
          "name": "G4",
          "ticks": 678600,
          "time": 565.5,
          "velocity": 0.8267716535433071
        },
        {
          "duration": 0.33333333333325754,
          "durationTicks": 400,
          "midi": 67,
          "name": "G4",
          "ticks": 678720,
          "time": 565.6,
          "velocity": 0.8267716535433071
        },
        {
          "duration": 0.33333333333337123,
          "durationTicks": 400,
          "midi": 67,
          "name": "G4",
          "ticks": 679200,
          "time": 566,
          "velocity": 0.8267716535433071
        },
        {
          "duration": 0.33333333333337123,
          "durationTicks": 400,
          "midi": 60,
          "name": "C4",
          "ticks": 679680,
          "time": 566.4,
          "velocity": 0.8267716535433071
        },
        {
          "duration": 0.33333333333337123,
          "durationTicks": 400,
          "midi": 72,
          "name": "C5",
          "ticks": 679680,
          "time": 566.4,
          "velocity": 0.8267716535433071
        },
        {
          "duration": 0.33333333333325754,
          "durationTicks": 400,
          "midi": 67,
          "name": "G4",
          "ticks": 680160,
          "time": 566.8000000000001,
          "velocity": 0.8267716535433071
        },
        {
          "duration": 0.33333333333325754,
          "durationTicks": 400,
          "midi": 60,
          "name": "C4",
          "ticks": 680640,
          "time": 567.2,
          "velocity": 0.8267716535433071
        },
        {
          "duration": 0.33333333333325754,
          "durationTicks": 400,
          "midi": 72,
          "name": "C5",
          "ticks": 680640,
          "time": 567.2,
          "velocity": 0.8267716535433071
        },
        {
          "duration": 0.33333333333325754,
          "durationTicks": 400,
          "midi": 67,
          "name": "G4",
          "ticks": 681120,
          "time": 567.6,
          "velocity": 0.8267716535433071
        },
        {
          "duration": 1.1000000000000227,
          "durationTicks": 1320,
          "midi": 60,
          "name": "C4",
          "ticks": 681600,
          "time": 568,
          "velocity": 0.8267716535433071
        },
        {
          "duration": 1.1000000000000227,
          "durationTicks": 1320,
          "midi": 72,
          "name": "C5",
          "ticks": 681600,
          "time": 568,
          "velocity": 0.8267716535433071
        },
        {
          "duration": 0.33333333333325754,
          "durationTicks": 400,
          "midi": 60,
          "name": "C4",
          "ticks": 683040,
          "time": 569.2,
          "velocity": 0.8267716535433071
        },
        {
          "duration": 0.33333333333325754,
          "durationTicks": 400,
          "midi": 72,
          "name": "C5",
          "ticks": 683040,
          "time": 569.2,
          "velocity": 0.8267716535433071
        },
        {
          "duration": 0.7000000000000455,
          "durationTicks": 840,
          "midi": 67,
          "name": "G4",
          "ticks": 683520,
          "time": 569.6,
          "velocity": 0.8267716535433071
        },
        {
          "duration": 0.33333333333337123,
          "durationTicks": 400,
          "midi": 67,
          "name": "G4",
          "ticks": 684480,
          "time": 570.4,
          "velocity": 0.8267716535433071
        },
        {
          "duration": 0.33333333333325754,
          "durationTicks": 400,
          "midi": 67,
          "name": "G4",
          "ticks": 684960,
          "time": 570.8000000000001,
          "velocity": 0.8267716535433071
        },
        {
          "duration": 0.6999999999999318,
          "durationTicks": 840,
          "midi": 67,
          "name": "G4",
          "ticks": 685440,
          "time": 571.2,
          "velocity": 0.8267716535433071
        },
        {
          "duration": 0.33333333333337123,
          "durationTicks": 400,
          "midi": 67,
          "name": "G4",
          "ticks": 686400,
          "time": 572,
          "velocity": 0.8267716535433071
        },
        {
          "duration": 0.33333333333337123,
          "durationTicks": 400,
          "midi": 67,
          "name": "G4",
          "ticks": 686880,
          "time": 572.4,
          "velocity": 0.8267716535433071
        },
        {
          "duration": 0.6999999999999318,
          "durationTicks": 840,
          "midi": 67,
          "name": "G4",
          "ticks": 687360,
          "time": 572.8000000000001,
          "velocity": 0.8267716535433071
        },
        {
          "duration": 0.33333333333325754,
          "durationTicks": 400,
          "midi": 67,
          "name": "G4",
          "ticks": 688320,
          "time": 573.6,
          "velocity": 0.8267716535433071
        },
        {
          "duration": 0.33333333333337123,
          "durationTicks": 400,
          "midi": 67,
          "name": "G4",
          "ticks": 688800,
          "time": 574,
          "velocity": 0.8267716535433071
        },
        {
          "duration": 0.7000000000000455,
          "durationTicks": 840,
          "midi": 67,
          "name": "G4",
          "ticks": 689280,
          "time": 574.4,
          "velocity": 0.8267716535433071
        },
        {
          "duration": 0.33333333333325754,
          "durationTicks": 400,
          "midi": 67,
          "name": "G4",
          "ticks": 690240,
          "time": 575.2,
          "velocity": 0.8267716535433071
        },
        {
          "duration": 0.33333333333325754,
          "durationTicks": 400,
          "midi": 67,
          "name": "G4",
          "ticks": 690720,
          "time": 575.6,
          "velocity": 0.8267716535433071
        },
        {
          "duration": 0.33333333333337123,
          "durationTicks": 400,
          "midi": 67,
          "name": "G4",
          "ticks": 691200,
          "time": 576,
          "velocity": 0.8267716535433071
        },
        {
          "duration": 0.33333333333325754,
          "durationTicks": 400,
          "midi": 60,
          "name": "C4",
          "ticks": 692160,
          "time": 576.8000000000001,
          "velocity": 0.8267716535433071
        },
        {
          "duration": 0.33333333333325754,
          "durationTicks": 400,
          "midi": 67,
          "name": "G4",
          "ticks": 692160,
          "time": 576.8000000000001,
          "velocity": 0.8267716535433071
        },
        {
          "duration": 0.33333333333325754,
          "durationTicks": 400,
          "midi": 55,
          "name": "G3",
          "ticks": 693120,
          "time": 577.6,
          "velocity": 0.8267716535433071
        },
        {
          "duration": 0.33333333333325754,
          "durationTicks": 400,
          "midi": 67,
          "name": "G4",
          "ticks": 693120,
          "time": 577.6,
          "velocity": 0.8267716535433071
        },
        {
          "duration": 0.33333333333337123,
          "durationTicks": 400,
          "midi": 60,
          "name": "C4",
          "ticks": 694080,
          "time": 578.4,
          "velocity": 0.8267716535433071
        },
        {
          "duration": 0.33333333333337123,
          "durationTicks": 400,
          "midi": 67,
          "name": "G4",
          "ticks": 694080,
          "time": 578.4,
          "velocity": 0.8267716535433071
        },
        {
          "duration": 0.33333333333325754,
          "durationTicks": 400,
          "midi": 55,
          "name": "G3",
          "ticks": 695040,
          "time": 579.2,
          "velocity": 0.8267716535433071
        },
        {
          "duration": 0.33333333333325754,
          "durationTicks": 400,
          "midi": 67,
          "name": "G4",
          "ticks": 695040,
          "time": 579.2,
          "velocity": 0.8267716535433071
        },
        {
          "duration": 3.1000000000000227,
          "durationTicks": 3720,
          "midi": 60,
          "name": "C4",
          "ticks": 744960,
          "time": 620.8000000000001,
          "velocity": 0.8267716535433071
        },
        {
          "duration": 3.1000000000000227,
          "durationTicks": 3720,
          "midi": 72,
          "name": "C5",
          "ticks": 744960,
          "time": 620.8000000000001,
          "velocity": 0.8267716535433071
        },
        {
          "duration": 0.7000000000000455,
          "durationTicks": 840,
          "midi": 67,
          "name": "G4",
          "ticks": 752640,
          "time": 627.2,
          "velocity": 0.8267716535433071
        },
        {
          "duration": 0.533333333333303,
          "durationTicks": 640,
          "midi": 67,
          "name": "G4",
          "ticks": 753600,
          "time": 628,
          "velocity": 0.8267716535433071
        },
        {
          "duration": 0.1966666666666015,
          "durationTicks": 236,
          "midi": 67,
          "name": "G4",
          "ticks": 754320,
          "time": 628.6,
          "velocity": 0.8267716535433071
        },
        {
          "duration": 0.33333333333325754,
          "durationTicks": 400,
          "midi": 67,
          "name": "G4",
          "ticks": 754560,
          "time": 628.8000000000001,
          "velocity": 0.8267716535433071
        },
        {
          "duration": 0.33333333333325754,
          "durationTicks": 400,
          "midi": 67,
          "name": "G4",
          "ticks": 755040,
          "time": 629.2,
          "velocity": 0.8267716535433071
        },
        {
          "duration": 0.33333333333337123,
          "durationTicks": 400,
          "midi": 67,
          "name": "G4",
          "ticks": 755520,
          "time": 629.6,
          "velocity": 0.8267716535433071
        },
        {
          "duration": 0.33333333333337123,
          "durationTicks": 400,
          "midi": 67,
          "name": "G4",
          "ticks": 756000,
          "time": 630,
          "velocity": 0.8267716535433071
        },
        {
          "duration": 0.33333333333325754,
          "durationTicks": 400,
          "midi": 60,
          "name": "C4",
          "ticks": 756480,
          "time": 630.4000000000001,
          "velocity": 0.8267716535433071
        },
        {
          "duration": 0.33333333333325754,
          "durationTicks": 400,
          "midi": 67,
          "name": "G4",
          "ticks": 756480,
          "time": 630.4000000000001,
          "velocity": 0.8267716535433071
        },
        {
          "duration": 0.33333333333325754,
          "durationTicks": 400,
          "midi": 72,
          "name": "C5",
          "ticks": 757440,
          "time": 631.2,
          "velocity": 0.8267716535433071
        },
        {
          "duration": 0.33333333333325754,
          "durationTicks": 400,
          "midi": 74,
          "name": "D5",
          "ticks": 757440,
          "time": 631.2,
          "velocity": 0.8267716535433071
        },
        {
          "duration": 0.33333333333337123,
          "durationTicks": 400,
          "midi": 72,
          "name": "C5",
          "ticks": 758400,
          "time": 632,
          "velocity": 0.8267716535433071
        },
        {
          "duration": 0.33333333333337123,
          "durationTicks": 400,
          "midi": 76,
          "name": "E5",
          "ticks": 758400,
          "time": 632,
          "velocity": 0.8267716535433071
        },
        {
          "duration": 0.33333333333325754,
          "durationTicks": 400,
          "midi": 67,
          "name": "G4",
          "ticks": 759360,
          "time": 632.8000000000001,
          "velocity": 0.8267716535433071
        },
        {
          "duration": 0.33333333333325754,
          "durationTicks": 400,
          "midi": 74,
          "name": "D5",
          "ticks": 759360,
          "time": 632.8000000000001,
          "velocity": 0.8267716535433071
        },
        {
          "duration": 0.7000000000000455,
          "durationTicks": 840,
          "midi": 60,
          "name": "C4",
          "ticks": 760320,
          "time": 633.6,
          "velocity": 0.8267716535433071
        },
        {
          "duration": 0.7000000000000455,
          "durationTicks": 840,
          "midi": 72,
          "name": "C5",
          "ticks": 760320,
          "time": 633.6,
          "velocity": 0.8267716535433071
        },
        {
          "duration": 0.33333333333325754,
          "durationTicks": 400,
          "midi": 60,
          "name": "C4",
          "ticks": 761280,
          "time": 634.4000000000001,
          "velocity": 0.8267716535433071
        },
        {
          "duration": 0.33333333333325754,
          "durationTicks": 400,
          "midi": 72,
          "name": "C5",
          "ticks": 761280,
          "time": 634.4000000000001,
          "velocity": 0.8267716535433071
        },
        {
          "duration": 0.33333333333325754,
          "durationTicks": 400,
          "midi": 60,
          "name": "C4",
          "ticks": 761760,
          "time": 634.8000000000001,
          "velocity": 0.8267716535433071
        },
        {
          "duration": 0.33333333333325754,
          "durationTicks": 400,
          "midi": 72,
          "name": "C5",
          "ticks": 761760,
          "time": 634.8000000000001,
          "velocity": 0.8267716535433071
        },
        {
          "duration": 0.7000000000000455,
          "durationTicks": 840,
          "midi": 60,
          "name": "C4",
          "ticks": 762240,
          "time": 635.2,
          "velocity": 0.8267716535433071
        },
        {
          "duration": 0.7000000000000455,
          "durationTicks": 840,
          "midi": 72,
          "name": "C5",
          "ticks": 762240,
          "time": 635.2,
          "velocity": 0.8267716535433071
        },
        {
          "duration": 0.33333333333337123,
          "durationTicks": 400,
          "midi": 60,
          "name": "C4",
          "ticks": 763200,
          "time": 636,
          "velocity": 0.8267716535433071
        },
        {
          "duration": 0.33333333333337123,
          "durationTicks": 400,
          "midi": 72,
          "name": "C5",
          "ticks": 763200,
          "time": 636,
          "velocity": 0.8267716535433071
        },
        {
          "duration": 0.33333333333325754,
          "durationTicks": 400,
          "midi": 60,
          "name": "C4",
          "ticks": 763680,
          "time": 636.4000000000001,
          "velocity": 0.8267716535433071
        },
        {
          "duration": 0.33333333333325754,
          "durationTicks": 400,
          "midi": 72,
          "name": "C5",
          "ticks": 763680,
          "time": 636.4000000000001,
          "velocity": 0.8267716535433071
        },
        {
          "duration": 0.6999999999999318,
          "durationTicks": 840,
          "midi": 60,
          "name": "C4",
          "ticks": 764160,
          "time": 636.8000000000001,
          "velocity": 0.8267716535433071
        },
        {
          "duration": 0.6999999999999318,
          "durationTicks": 840,
          "midi": 72,
          "name": "C5",
          "ticks": 764160,
          "time": 636.8000000000001,
          "velocity": 0.8267716535433071
        },
        {
          "duration": 0.33333333333337123,
          "durationTicks": 400,
          "midi": 60,
          "name": "C4",
          "ticks": 765120,
          "time": 637.6,
          "velocity": 0.8267716535433071
        },
        {
          "duration": 0.33333333333337123,
          "durationTicks": 400,
          "midi": 72,
          "name": "C5",
          "ticks": 765120,
          "time": 637.6,
          "velocity": 0.8267716535433071
        },
        {
          "duration": 0.33333333333337123,
          "durationTicks": 400,
          "midi": 60,
          "name": "C4",
          "ticks": 765600,
          "time": 638,
          "velocity": 0.8267716535433071
        },
        {
          "duration": 0.33333333333337123,
          "durationTicks": 400,
          "midi": 72,
          "name": "C5",
          "ticks": 765600,
          "time": 638,
          "velocity": 0.8267716535433071
        },
        {
          "duration": 0.33333333333325754,
          "durationTicks": 400,
          "midi": 60,
          "name": "C4",
          "ticks": 766080,
          "time": 638.4000000000001,
          "velocity": 0.6771653543307087
        },
        {
          "duration": 0.33333333333325754,
          "durationTicks": 400,
          "midi": 72,
          "name": "C5",
          "ticks": 766080,
          "time": 638.4000000000001,
          "velocity": 0.6771653543307087
        },
        {
          "duration": 0.33333333333325754,
          "durationTicks": 400,
          "midi": 60,
          "name": "C4",
          "ticks": 767040,
          "time": 639.2,
          "velocity": 0.6771653543307087
        },
        {
          "duration": 0.33333333333325754,
          "durationTicks": 400,
          "midi": 72,
          "name": "C5",
          "ticks": 767040,
          "time": 639.2,
          "velocity": 0.6771653543307087
        },
        {
          "duration": 0.33333333333325754,
          "durationTicks": 400,
          "midi": 67,
          "name": "G4",
          "ticks": 768960,
          "time": 640.8000000000001,
          "velocity": 0.6771653543307087
        },
        {
          "duration": 0.33333333333325754,
          "durationTicks": 400,
          "midi": 74,
          "name": "D5",
          "ticks": 768960,
          "time": 640.8000000000001,
          "velocity": 0.6771653543307087
        },
        {
          "duration": 0.7000000000000455,
          "durationTicks": 840,
          "midi": 60,
          "name": "C4",
          "ticks": 769920,
          "time": 641.6,
          "velocity": 0.6771653543307087
        },
        {
          "duration": 0.7000000000000455,
          "durationTicks": 840,
          "midi": 72,
          "name": "C5",
          "ticks": 769920,
          "time": 641.6,
          "velocity": 0.6771653543307087
        },
        {
          "duration": 0.33333333333325754,
          "durationTicks": 400,
          "midi": 60,
          "name": "C4",
          "ticks": 770880,
          "time": 642.4000000000001,
          "velocity": 0.6771653543307087
        },
        {
          "duration": 0.33333333333325754,
          "durationTicks": 400,
          "midi": 72,
          "name": "C5",
          "ticks": 770880,
          "time": 642.4000000000001,
          "velocity": 0.6771653543307087
        },
        {
          "duration": 0.33333333333325754,
          "durationTicks": 400,
          "midi": 60,
          "name": "C4",
          "ticks": 771360,
          "time": 642.8000000000001,
          "velocity": 0.6771653543307087
        },
        {
          "duration": 0.33333333333325754,
          "durationTicks": 400,
          "midi": 72,
          "name": "C5",
          "ticks": 771360,
          "time": 642.8000000000001,
          "velocity": 0.6771653543307087
        },
        {
          "duration": 0.7000000000000455,
          "durationTicks": 840,
          "midi": 60,
          "name": "C4",
          "ticks": 771840,
          "time": 643.2,
          "velocity": 0.6771653543307087
        },
        {
          "duration": 0.7000000000000455,
          "durationTicks": 840,
          "midi": 72,
          "name": "C5",
          "ticks": 771840,
          "time": 643.2,
          "velocity": 0.6771653543307087
        },
        {
          "duration": 0.33333333333337123,
          "durationTicks": 400,
          "midi": 60,
          "name": "C4",
          "ticks": 772800,
          "time": 644,
          "velocity": 0.6771653543307087
        },
        {
          "duration": 0.33333333333337123,
          "durationTicks": 400,
          "midi": 72,
          "name": "C5",
          "ticks": 772800,
          "time": 644,
          "velocity": 0.6771653543307087
        },
        {
          "duration": 0.33333333333325754,
          "durationTicks": 400,
          "midi": 60,
          "name": "C4",
          "ticks": 773280,
          "time": 644.4000000000001,
          "velocity": 0.6771653543307087
        },
        {
          "duration": 0.33333333333325754,
          "durationTicks": 400,
          "midi": 72,
          "name": "C5",
          "ticks": 773280,
          "time": 644.4000000000001,
          "velocity": 0.6771653543307087
        },
        {
          "duration": 0.6999999999999318,
          "durationTicks": 840,
          "midi": 60,
          "name": "C4",
          "ticks": 773760,
          "time": 644.8000000000001,
          "velocity": 0.6771653543307087
        },
        {
          "duration": 0.6999999999999318,
          "durationTicks": 840,
          "midi": 72,
          "name": "C5",
          "ticks": 773760,
          "time": 644.8000000000001,
          "velocity": 0.6771653543307087
        },
        {
          "duration": 0.33333333333337123,
          "durationTicks": 400,
          "midi": 60,
          "name": "C4",
          "ticks": 774720,
          "time": 645.6,
          "velocity": 0.6771653543307087
        },
        {
          "duration": 0.33333333333337123,
          "durationTicks": 400,
          "midi": 72,
          "name": "C5",
          "ticks": 774720,
          "time": 645.6,
          "velocity": 0.6771653543307087
        },
        {
          "duration": 0.33333333333337123,
          "durationTicks": 400,
          "midi": 60,
          "name": "C4",
          "ticks": 775200,
          "time": 646,
          "velocity": 0.6771653543307087
        },
        {
          "duration": 0.33333333333337123,
          "durationTicks": 400,
          "midi": 72,
          "name": "C5",
          "ticks": 775200,
          "time": 646,
          "velocity": 0.6771653543307087
        },
        {
          "duration": 0.33333333333325754,
          "durationTicks": 400,
          "midi": 60,
          "name": "C4",
          "ticks": 775680,
          "time": 646.4000000000001,
          "velocity": 0.6771653543307087
        },
        {
          "duration": 0.33333333333325754,
          "durationTicks": 400,
          "midi": 72,
          "name": "C5",
          "ticks": 775680,
          "time": 646.4000000000001,
          "velocity": 0.6771653543307087
        },
        {
          "duration": 0.33333333333325754,
          "durationTicks": 400,
          "midi": 72,
          "name": "C5",
          "ticks": 778080,
          "time": 648.4000000000001,
          "velocity": 0.6771653543307087
        },
        {
          "duration": 0.33333333333325754,
          "durationTicks": 400,
          "midi": 74,
          "name": "D5",
          "ticks": 778080,
          "time": 648.4000000000001,
          "velocity": 0.6771653543307087
        },
        {
          "duration": 0.33333333333325754,
          "durationTicks": 400,
          "midi": 67,
          "name": "G4",
          "ticks": 778560,
          "time": 648.8000000000001,
          "velocity": 0.6771653543307087
        },
        {
          "duration": 0.33333333333325754,
          "durationTicks": 400,
          "midi": 74,
          "name": "D5",
          "ticks": 778560,
          "time": 648.8000000000001,
          "velocity": 0.6771653543307087
        },
        {
          "duration": 0.33333333333325754,
          "durationTicks": 400,
          "midi": 72,
          "name": "C5",
          "ticks": 779040,
          "time": 649.2,
          "velocity": 0.6771653543307087
        },
        {
          "duration": 0.33333333333325754,
          "durationTicks": 400,
          "midi": 74,
          "name": "D5",
          "ticks": 779040,
          "time": 649.2,
          "velocity": 0.6771653543307087
        },
        {
          "duration": 0.33333333333337123,
          "durationTicks": 400,
          "midi": 67,
          "name": "G4",
          "ticks": 779520,
          "time": 649.6,
          "velocity": 0.6771653543307087
        },
        {
          "duration": 0.33333333333337123,
          "durationTicks": 400,
          "midi": 74,
          "name": "D5",
          "ticks": 779520,
          "time": 649.6,
          "velocity": 0.6771653543307087
        },
        {
          "duration": 0.33333333333337123,
          "durationTicks": 400,
          "midi": 60,
          "name": "C4",
          "ticks": 787200,
          "time": 656,
          "velocity": 0.4015748031496063
        },
        {
          "duration": 0.33333333333337123,
          "durationTicks": 400,
          "midi": 72,
          "name": "C5",
          "ticks": 787200,
          "time": 656,
          "velocity": 0.4015748031496063
        },
        {
          "duration": 0.33333333333337123,
          "durationTicks": 400,
          "midi": 55,
          "name": "G3",
          "ticks": 789120,
          "time": 657.6,
          "velocity": 0.4015748031496063
        },
        {
          "duration": 0.33333333333337123,
          "durationTicks": 400,
          "midi": 67,
          "name": "G4",
          "ticks": 789120,
          "time": 657.6,
          "velocity": 0.4015748031496063
        },
        {
          "duration": 0.33333333333325754,
          "durationTicks": 400,
          "midi": 60,
          "name": "C4",
          "ticks": 791040,
          "time": 659.2,
          "velocity": 0.4015748031496063
        },
        {
          "duration": 0.33333333333325754,
          "durationTicks": 400,
          "midi": 72,
          "name": "C5",
          "ticks": 791040,
          "time": 659.2,
          "velocity": 0.4015748031496063
        },
        {
          "duration": 0.33333333333325754,
          "durationTicks": 400,
          "midi": 55,
          "name": "G3",
          "ticks": 792960,
          "time": 660.8000000000001,
          "velocity": 0.4015748031496063
        },
        {
          "duration": 0.33333333333325754,
          "durationTicks": 400,
          "midi": 67,
          "name": "G4",
          "ticks": 792960,
          "time": 660.8000000000001,
          "velocity": 0.4015748031496063
        },
        {
          "duration": 0.33333333333325754,
          "durationTicks": 400,
          "midi": 60,
          "name": "C4",
          "ticks": 794880,
          "time": 662.4000000000001,
          "velocity": 0.4015748031496063
        },
        {
          "duration": 0.33333333333325754,
          "durationTicks": 400,
          "midi": 72,
          "name": "C5",
          "ticks": 794880,
          "time": 662.4000000000001,
          "velocity": 0.4015748031496063
        },
        {
          "duration": 0.1966666666666015,
          "durationTicks": 236,
          "midi": 55,
          "name": "G3",
          "ticks": 797760,
          "time": 664.8000000000001,
          "velocity": 0.4015748031496063
        },
        {
          "duration": 0.1966666666666015,
          "durationTicks": 236,
          "midi": 67,
          "name": "G4",
          "ticks": 797760,
          "time": 664.8000000000001,
          "velocity": 0.4015748031496063
        },
        {
          "duration": 0.1966666666666015,
          "durationTicks": 236,
          "midi": 55,
          "name": "G3",
          "ticks": 798240,
          "time": 665.2,
          "velocity": 0.4015748031496063
        },
        {
          "duration": 0.1966666666666015,
          "durationTicks": 236,
          "midi": 67,
          "name": "G4",
          "ticks": 798240,
          "time": 665.2,
          "velocity": 0.4015748031496063
        },
        {
          "duration": 0.33333333333337123,
          "durationTicks": 400,
          "midi": 60,
          "name": "C4",
          "ticks": 798720,
          "time": 665.6,
          "velocity": 0.4015748031496063
        },
        {
          "duration": 0.33333333333337123,
          "durationTicks": 400,
          "midi": 67,
          "name": "G4",
          "ticks": 798720,
          "time": 665.6,
          "velocity": 0.4015748031496063
        },
        {
          "duration": 0.19666666666671517,
          "durationTicks": 236,
          "midi": 67,
          "name": "G4",
          "ticks": 801600,
          "time": 668,
          "velocity": 0.4015748031496063
        },
        {
          "duration": 0.19666666666671517,
          "durationTicks": 236,
          "midi": 74,
          "name": "D5",
          "ticks": 801600,
          "time": 668,
          "velocity": 0.4015748031496063
        },
        {
          "duration": 0.1966666666666015,
          "durationTicks": 236,
          "midi": 67,
          "name": "G4",
          "ticks": 802080,
          "time": 668.4000000000001,
          "velocity": 0.4015748031496063
        },
        {
          "duration": 0.1966666666666015,
          "durationTicks": 236,
          "midi": 74,
          "name": "D5",
          "ticks": 802080,
          "time": 668.4000000000001,
          "velocity": 0.4015748031496063
        },
        {
          "duration": 0.1966666666666015,
          "durationTicks": 236,
          "midi": 64,
          "name": "E4",
          "ticks": 802560,
          "time": 668.8000000000001,
          "velocity": 0.4015748031496063
        },
        {
          "duration": 0.1966666666666015,
          "durationTicks": 236,
          "midi": 72,
          "name": "C5",
          "ticks": 802560,
          "time": 668.8000000000001,
          "velocity": 0.4015748031496063
        },
        {
          "duration": 0.7000000000000455,
          "durationTicks": 840,
          "midi": 67,
          "name": "G4",
          "ticks": 803040,
          "time": 669.2,
          "velocity": 0.8267716535433071
        },
        {
          "duration": 0.33333333333337123,
          "durationTicks": 400,
          "midi": 67,
          "name": "G4",
          "ticks": 804000,
          "time": 670,
          "velocity": 0.8267716535433071
        },
        {
          "duration": 0.1966666666666015,
          "durationTicks": 236,
          "midi": 67,
          "name": "G4",
          "ticks": 804480,
          "time": 670.4000000000001,
          "velocity": 0.8267716535433071
        },
        {
          "duration": 0.6999999999999318,
          "durationTicks": 840,
          "midi": 67,
          "name": "G4",
          "ticks": 804960,
          "time": 670.8000000000001,
          "velocity": 0.8267716535433071
        },
        {
          "duration": 0.33333333333337123,
          "durationTicks": 400,
          "midi": 67,
          "name": "G4",
          "ticks": 805920,
          "time": 671.6,
          "velocity": 0.8267716535433071
        },
        {
          "duration": 0.19666666666671517,
          "durationTicks": 236,
          "midi": 67,
          "name": "G4",
          "ticks": 806400,
          "time": 672,
          "velocity": 0.8267716535433071
        },
        {
          "duration": 0.1966666666666015,
          "durationTicks": 236,
          "midi": 72,
          "name": "C5",
          "ticks": 806880,
          "time": 672.4000000000001,
          "velocity": 0.8267716535433071
        },
        {
          "duration": 0.1966666666666015,
          "durationTicks": 236,
          "midi": 76,
          "name": "E5",
          "ticks": 806880,
          "time": 672.4000000000001,
          "velocity": 0.8267716535433071
        },
        {
          "duration": 0.1966666666666015,
          "durationTicks": 236,
          "midi": 74,
          "name": "D5",
          "ticks": 807360,
          "time": 672.8000000000001,
          "velocity": 0.8267716535433071
        },
        {
          "duration": 0.1966666666666015,
          "durationTicks": 236,
          "midi": 77,
          "name": "F5",
          "ticks": 807360,
          "time": 672.8000000000001,
          "velocity": 0.8267716535433071
        },
        {
          "duration": 0.1966666666666015,
          "durationTicks": 236,
          "midi": 67,
          "name": "G4",
          "ticks": 807840,
          "time": 673.2,
          "velocity": 0.8267716535433071
        },
        {
          "duration": 0.1966666666666015,
          "durationTicks": 236,
          "midi": 74,
          "name": "D5",
          "ticks": 807840,
          "time": 673.2,
          "velocity": 0.8267716535433071
        },
        {
          "duration": 0.1966666666666015,
          "durationTicks": 236,
          "midi": 64,
          "name": "E4",
          "ticks": 808320,
          "time": 673.6,
          "velocity": 0.8267716535433071
        },
        {
          "duration": 0.1966666666666015,
          "durationTicks": 236,
          "midi": 72,
          "name": "C5",
          "ticks": 808320,
          "time": 673.6,
          "velocity": 0.8267716535433071
        },
        {
          "duration": 0.7000000000000455,
          "durationTicks": 840,
          "midi": 55,
          "name": "G3",
          "ticks": 808800,
          "time": 674,
          "velocity": 0.8267716535433071
        },
        {
          "duration": 0.7000000000000455,
          "durationTicks": 840,
          "midi": 67,
          "name": "G4",
          "ticks": 808800,
          "time": 674,
          "velocity": 0.8267716535433071
        },
        {
          "duration": 0.33333333333325754,
          "durationTicks": 400,
          "midi": 55,
          "name": "G3",
          "ticks": 809760,
          "time": 674.8000000000001,
          "velocity": 0.8267716535433071
        },
        {
          "duration": 0.33333333333325754,
          "durationTicks": 400,
          "midi": 67,
          "name": "G4",
          "ticks": 809760,
          "time": 674.8000000000001,
          "velocity": 0.8267716535433071
        },
        {
          "duration": 0.1966666666666015,
          "durationTicks": 236,
          "midi": 55,
          "name": "G3",
          "ticks": 810240,
          "time": 675.2,
          "velocity": 0.8267716535433071
        },
        {
          "duration": 0.1966666666666015,
          "durationTicks": 236,
          "midi": 67,
          "name": "G4",
          "ticks": 810240,
          "time": 675.2,
          "velocity": 0.8267716535433071
        },
        {
          "duration": 0.7000000000000455,
          "durationTicks": 840,
          "midi": 55,
          "name": "G3",
          "ticks": 810720,
          "time": 675.6,
          "velocity": 0.8267716535433071
        },
        {
          "duration": 0.7000000000000455,
          "durationTicks": 840,
          "midi": 67,
          "name": "G4",
          "ticks": 810720,
          "time": 675.6,
          "velocity": 0.8267716535433071
        },
        {
          "duration": 0.33333333333325754,
          "durationTicks": 400,
          "midi": 55,
          "name": "G3",
          "ticks": 811680,
          "time": 676.4000000000001,
          "velocity": 0.8267716535433071
        },
        {
          "duration": 0.33333333333325754,
          "durationTicks": 400,
          "midi": 67,
          "name": "G4",
          "ticks": 811680,
          "time": 676.4000000000001,
          "velocity": 0.8267716535433071
        },
        {
          "duration": 0.33333333333325754,
          "durationTicks": 400,
          "midi": 60,
          "name": "C4",
          "ticks": 812160,
          "time": 676.8000000000001,
          "velocity": 0.8267716535433071
        },
        {
          "duration": 0.33333333333325754,
          "durationTicks": 400,
          "midi": 67,
          "name": "G4",
          "ticks": 812160,
          "time": 676.8000000000001,
          "velocity": 0.8267716535433071
        },
        {
          "duration": 0.33333333333337123,
          "durationTicks": 400,
          "midi": 67,
          "name": "G4",
          "ticks": 813600,
          "time": 678,
          "velocity": 0.8267716535433071
        },
        {
          "duration": 0.33333333333337123,
          "durationTicks": 400,
          "midi": 74,
          "name": "D5",
          "ticks": 813600,
          "time": 678,
          "velocity": 0.8267716535433071
        },
        {
          "duration": 0.33333333333325754,
          "durationTicks": 400,
          "midi": 64,
          "name": "E4",
          "ticks": 814080,
          "time": 678.4000000000001,
          "velocity": 0.8267716535433071
        },
        {
          "duration": 0.33333333333325754,
          "durationTicks": 400,
          "midi": 72,
          "name": "C5",
          "ticks": 814080,
          "time": 678.4000000000001,
          "velocity": 0.8267716535433071
        },
        {
          "duration": 0.33333333333325754,
          "durationTicks": 400,
          "midi": 72,
          "name": "C5",
          "ticks": 815040,
          "time": 679.2,
          "velocity": 0.8267716535433071
        },
        {
          "duration": 0.33333333333325754,
          "durationTicks": 400,
          "midi": 76,
          "name": "E5",
          "ticks": 815040,
          "time": 679.2,
          "velocity": 0.8267716535433071
        },
        {
          "duration": 0.33333333333337123,
          "durationTicks": 400,
          "midi": 67,
          "name": "G4",
          "ticks": 815520,
          "time": 679.6,
          "velocity": 0.8267716535433071
        },
        {
          "duration": 0.33333333333337123,
          "durationTicks": 400,
          "midi": 74,
          "name": "D5",
          "ticks": 815520,
          "time": 679.6,
          "velocity": 0.8267716535433071
        },
        {
          "duration": 0.33333333333337123,
          "durationTicks": 400,
          "midi": 64,
          "name": "E4",
          "ticks": 816000,
          "time": 680,
          "velocity": 0.9763779527559056
        },
        {
          "duration": 0.33333333333337123,
          "durationTicks": 400,
          "midi": 72,
          "name": "C5",
          "ticks": 816000,
          "time": 680,
          "velocity": 0.9763779527559056
        },
        {
          "duration": 0.33333333333325754,
          "durationTicks": 400,
          "midi": 55,
          "name": "G3",
          "ticks": 816960,
          "time": 680.8000000000001,
          "velocity": 0.9763779527559056
        },
        {
          "duration": 0.33333333333325754,
          "durationTicks": 400,
          "midi": 67,
          "name": "G4",
          "ticks": 816960,
          "time": 680.8000000000001,
          "velocity": 0.9763779527559056
        },
        {
          "duration": 0.33333333333337123,
          "durationTicks": 400,
          "midi": 60,
          "name": "C4",
          "ticks": 817920,
          "time": 681.6,
          "velocity": 0.9763779527559056
        },
        {
          "duration": 0.33333333333337123,
          "durationTicks": 400,
          "midi": 67,
          "name": "G4",
          "ticks": 817920,
          "time": 681.6,
          "velocity": 0.9763779527559056
        },
        {
          "duration": 0.33333333333325754,
          "durationTicks": 400,
          "midi": 55,
          "name": "G3",
          "ticks": 818880,
          "time": 682.4000000000001,
          "velocity": 0.9763779527559056
        },
        {
          "duration": 0.33333333333325754,
          "durationTicks": 400,
          "midi": 67,
          "name": "G4",
          "ticks": 818880,
          "time": 682.4000000000001,
          "velocity": 0.9763779527559056
        },
        {
          "duration": 0.33333333333325754,
          "durationTicks": 400,
          "midi": 60,
          "name": "C4",
          "ticks": 819840,
          "time": 683.2,
          "velocity": 0.9763779527559056
        },
        {
          "duration": 0.33333333333325754,
          "durationTicks": 400,
          "midi": 67,
          "name": "G4",
          "ticks": 819840,
          "time": 683.2,
          "velocity": 0.9763779527559056
        },
        {
          "duration": 0.33333333333337123,
          "durationTicks": 400,
          "midi": 55,
          "name": "G3",
          "ticks": 820800,
          "time": 684,
          "velocity": 0.9763779527559056
        },
        {
          "duration": 0.33333333333337123,
          "durationTicks": 400,
          "midi": 67,
          "name": "G4",
          "ticks": 820800,
          "time": 684,
          "velocity": 0.9763779527559056
        },
        {
          "duration": 0.1966666666666015,
          "durationTicks": 236,
          "midi": 60,
          "name": "C4",
          "ticks": 821760,
          "time": 684.8000000000001,
          "velocity": 0.9763779527559056
        },
        {
          "duration": 0.1966666666666015,
          "durationTicks": 236,
          "midi": 72,
          "name": "C5",
          "ticks": 821760,
          "time": 684.8000000000001,
          "velocity": 0.9763779527559056
        },
        {
          "duration": 0.19666666666671517,
          "durationTicks": 236,
          "midi": 55,
          "name": "G3",
          "ticks": 822000,
          "time": 685,
          "velocity": 0.9763779527559056
        },
        {
          "duration": 0.19666666666671517,
          "durationTicks": 236,
          "midi": 67,
          "name": "G4",
          "ticks": 822000,
          "time": 685,
          "velocity": 0.9763779527559056
        },
        {
          "duration": 0.1966666666666015,
          "durationTicks": 236,
          "midi": 60,
          "name": "C4",
          "ticks": 822240,
          "time": 685.2,
          "velocity": 0.9763779527559056
        },
        {
          "duration": 0.1966666666666015,
          "durationTicks": 236,
          "midi": 72,
          "name": "C5",
          "ticks": 822240,
          "time": 685.2,
          "velocity": 0.9763779527559056
        },
        {
          "duration": 0.1966666666666015,
          "durationTicks": 236,
          "midi": 55,
          "name": "G3",
          "ticks": 822480,
          "time": 685.4000000000001,
          "velocity": 0.9763779527559056
        },
        {
          "duration": 0.1966666666666015,
          "durationTicks": 236,
          "midi": 67,
          "name": "G4",
          "ticks": 822480,
          "time": 685.4000000000001,
          "velocity": 0.9763779527559056
        },
        {
          "duration": 0.1966666666666015,
          "durationTicks": 236,
          "midi": 60,
          "name": "C4",
          "ticks": 822720,
          "time": 685.6,
          "velocity": 0.9763779527559056
        },
        {
          "duration": 0.1966666666666015,
          "durationTicks": 236,
          "midi": 72,
          "name": "C5",
          "ticks": 822720,
          "time": 685.6,
          "velocity": 0.9763779527559056
        },
        {
          "duration": 0.1966666666666015,
          "durationTicks": 236,
          "midi": 55,
          "name": "G3",
          "ticks": 822960,
          "time": 685.8000000000001,
          "velocity": 0.9763779527559056
        },
        {
          "duration": 0.1966666666666015,
          "durationTicks": 236,
          "midi": 67,
          "name": "G4",
          "ticks": 822960,
          "time": 685.8000000000001,
          "velocity": 0.9763779527559056
        },
        {
          "duration": 0.19666666666671517,
          "durationTicks": 236,
          "midi": 60,
          "name": "C4",
          "ticks": 823200,
          "time": 686,
          "velocity": 0.984251968503937
        },
        {
          "duration": 0.19666666666671517,
          "durationTicks": 236,
          "midi": 72,
          "name": "C5",
          "ticks": 823200,
          "time": 686,
          "velocity": 0.984251968503937
        },
        {
          "duration": 0.1966666666666015,
          "durationTicks": 236,
          "midi": 55,
          "name": "G3",
          "ticks": 823440,
          "time": 686.2,
          "velocity": 0.9921259842519685
        },
        {
          "duration": 0.1966666666666015,
          "durationTicks": 236,
          "midi": 67,
          "name": "G4",
          "ticks": 823440,
          "time": 686.2,
          "velocity": 0.9921259842519685
        },
        {
          "duration": 0.33333333333325754,
          "durationTicks": 400,
          "midi": 60,
          "name": "C4",
          "ticks": 823680,
          "time": 686.4000000000001,
          "velocity": 1
        },
        {
          "duration": 0.33333333333325754,
          "durationTicks": 400,
          "midi": 72,
          "name": "C5",
          "ticks": 823680,
          "time": 686.4000000000001,
          "velocity": 1
        },
        {
          "duration": 0.33333333333325754,
          "durationTicks": 400,
          "midi": 64,
          "name": "E4",
          "ticks": 824160,
          "time": 686.8000000000001,
          "velocity": 1
        },
        {
          "duration": 0.33333333333325754,
          "durationTicks": 400,
          "midi": 76,
          "name": "E5",
          "ticks": 824160,
          "time": 686.8000000000001,
          "velocity": 1
        },
        {
          "duration": 0.33333333333325754,
          "durationTicks": 400,
          "midi": 67,
          "name": "G4",
          "ticks": 824640,
          "time": 687.2,
          "velocity": 1
        },
        {
          "duration": 0.33333333333325754,
          "durationTicks": 400,
          "midi": 79,
          "name": "G5",
          "ticks": 824640,
          "time": 687.2,
          "velocity": 1
        },
        {
          "duration": 0.33333333333337123,
          "durationTicks": 400,
          "midi": 64,
          "name": "E4",
          "ticks": 825120,
          "time": 687.6,
          "velocity": 1
        },
        {
          "duration": 0.33333333333337123,
          "durationTicks": 400,
          "midi": 76,
          "name": "E5",
          "ticks": 825120,
          "time": 687.6,
          "velocity": 1
        },
        {
          "duration": 0.19666666666671517,
          "durationTicks": 236,
          "midi": 60,
          "name": "C4",
          "ticks": 825600,
          "time": 688,
          "velocity": 1
        },
        {
          "duration": 0.19666666666671517,
          "durationTicks": 236,
          "midi": 72,
          "name": "C5",
          "ticks": 825600,
          "time": 688,
          "velocity": 1
        },
        {
          "duration": 0.1966666666666015,
          "durationTicks": 236,
          "midi": 55,
          "name": "G3",
          "ticks": 825840,
          "time": 688.2,
          "velocity": 1
        },
        {
          "duration": 0.1966666666666015,
          "durationTicks": 236,
          "midi": 67,
          "name": "G4",
          "ticks": 825840,
          "time": 688.2,
          "velocity": 1
        },
        {
          "duration": 0.1966666666666015,
          "durationTicks": 236,
          "midi": 60,
          "name": "C4",
          "ticks": 826080,
          "time": 688.4000000000001,
          "velocity": 1
        },
        {
          "duration": 0.1966666666666015,
          "durationTicks": 236,
          "midi": 72,
          "name": "C5",
          "ticks": 826080,
          "time": 688.4000000000001,
          "velocity": 1
        },
        {
          "duration": 0.1966666666666015,
          "durationTicks": 236,
          "midi": 55,
          "name": "G3",
          "ticks": 826320,
          "time": 688.6,
          "velocity": 1
        },
        {
          "duration": 0.1966666666666015,
          "durationTicks": 236,
          "midi": 67,
          "name": "G4",
          "ticks": 826320,
          "time": 688.6,
          "velocity": 1
        },
        {
          "duration": 0.1966666666666015,
          "durationTicks": 236,
          "midi": 60,
          "name": "C4",
          "ticks": 826560,
          "time": 688.8000000000001,
          "velocity": 1
        },
        {
          "duration": 0.1966666666666015,
          "durationTicks": 236,
          "midi": 72,
          "name": "C5",
          "ticks": 826560,
          "time": 688.8000000000001,
          "velocity": 1
        },
        {
          "duration": 0.19666666666671517,
          "durationTicks": 236,
          "midi": 55,
          "name": "G3",
          "ticks": 826800,
          "time": 689,
          "velocity": 1
        },
        {
          "duration": 0.19666666666671517,
          "durationTicks": 236,
          "midi": 67,
          "name": "G4",
          "ticks": 826800,
          "time": 689,
          "velocity": 1
        },
        {
          "duration": 0.1966666666666015,
          "durationTicks": 236,
          "midi": 60,
          "name": "C4",
          "ticks": 827040,
          "time": 689.2,
          "velocity": 1
        },
        {
          "duration": 0.1966666666666015,
          "durationTicks": 236,
          "midi": 72,
          "name": "C5",
          "ticks": 827040,
          "time": 689.2,
          "velocity": 1
        },
        {
          "duration": 0.1966666666666015,
          "durationTicks": 236,
          "midi": 55,
          "name": "G3",
          "ticks": 827280,
          "time": 689.4000000000001,
          "velocity": 1
        },
        {
          "duration": 0.1966666666666015,
          "durationTicks": 236,
          "midi": 67,
          "name": "G4",
          "ticks": 827280,
          "time": 689.4000000000001,
          "velocity": 1
        },
        {
          "duration": 0.38461500000005344,
          "durationTicks": 400,
          "midi": 60,
          "name": "C4",
          "ticks": 827520,
          "time": 689.6,
          "velocity": 1
        },
        {
          "duration": 0.38461500000005344,
          "durationTicks": 400,
          "midi": 72,
          "name": "C5",
          "ticks": 827520,
          "time": 689.6,
          "velocity": 1
        },
        {
          "duration": 0.1115383499999325,
          "durationTicks": 116,
          "midi": 64,
          "name": "E4",
          "ticks": 828360,
          "time": 690.4076915,
          "velocity": 1
        },
        {
          "duration": 0.1115383499999325,
          "durationTicks": 116,
          "midi": 67,
          "name": "G4",
          "ticks": 828360,
          "time": 690.4076915,
          "velocity": 1
        },
        {
          "duration": 0.4545458333333272,
          "durationTicks": 400,
          "midi": 64,
          "name": "E4",
          "ticks": 828480,
          "time": 690.5230760000001,
          "velocity": 1
        },
        {
          "duration": 0.4545458333333272,
          "durationTicks": 400,
          "midi": 67,
          "name": "G4",
          "ticks": 828480,
          "time": 690.5230760000001,
          "velocity": 1
        },
        {
          "duration": 0.13181829166660464,
          "durationTicks": 116,
          "midi": 60,
          "name": "C4",
          "ticks": 829320,
          "time": 691.4776222500001,
          "velocity": 1
        },
        {
          "duration": 0.13181829166660464,
          "durationTicks": 116,
          "midi": 64,
          "name": "E4",
          "ticks": 829320,
          "time": 691.4776222500001,
          "velocity": 1
        },
        {
          "duration": 1.0499999999999545,
          "durationTicks": 840,
          "midi": 60,
          "name": "C4",
          "ticks": 829440,
          "time": 691.6139860000001,
          "velocity": 1
        },
        {
          "duration": 1.0499999999999545,
          "durationTicks": 840,
          "midi": 64,
          "name": "E4",
          "ticks": 829440,
          "time": 691.6139860000001,
          "velocity": 1
        }
      ]
    },
    {
      "channel": 0,
      "controlChanges": {},
      "pitchBends": [],
      "instrument": {
        "family": "piano",
        "number": 0,
        "name": "acoustic grand piano"
      },
      "name": "Timpani",
      "notes": [],
      "endOfTrackTicks": 831360
    },
    {
      "channel": 5,
      "controlChanges": {
        "7": [
          {
            "number": 7,
            "ticks": 0,
            "time": 0,
            "value": 1
          }
        ],
        "10": [
          {
            "number": 10,
            "ticks": 0,
            "time": 0,
            "value": 0.5039370078740157
          }
        ]
      },
      "pitchBends": [],
      "instrument": {
        "family": "strings",
        "number": 47,
        "name": "timpani"
      },
      "name": "",
      "notes": [
        {
          "duration": 0.33333333333333337,
          "durationTicks": 400,
          "midi": 48,
          "name": "C3",
          "ticks": 0,
          "time": 0,
          "velocity": 0.8267716535433071
        },
        {
          "duration": 0.3333333333333335,
          "durationTicks": 400,
          "midi": 48,
          "name": "C3",
          "ticks": 960,
          "time": 0.8,
          "velocity": 0.8267716535433071
        },
        {
          "duration": 0.33333333333333326,
          "durationTicks": 400,
          "midi": 48,
          "name": "C3",
          "ticks": 1920,
          "time": 1.6,
          "velocity": 0.8267716535433071
        },
        {
          "duration": 0.33333333333333304,
          "durationTicks": 400,
          "midi": 43,
          "name": "G2",
          "ticks": 7680,
          "time": 6.4,
          "velocity": 0.8267716535433071
        },
        {
          "duration": 0.33333333333333304,
          "durationTicks": 400,
          "midi": 43,
          "name": "G2",
          "ticks": 8640,
          "time": 7.2,
          "velocity": 0.8267716535433071
        },
        {
          "duration": 0.3333333333333339,
          "durationTicks": 400,
          "midi": 43,
          "name": "G2",
          "ticks": 9600,
          "time": 8,
          "velocity": 0.8267716535433071
        },
        {
          "duration": 0.29666666666666686,
          "durationTicks": 356,
          "midi": 48,
          "name": "C3",
          "ticks": 15840,
          "time": 13.200000000000001,
          "velocity": 0.8267716535433071
        },
        {
          "duration": 0.09666666666666757,
          "durationTicks": 116,
          "midi": 48,
          "name": "C3",
          "ticks": 16200,
          "time": 13.5,
          "velocity": 0.8267716535433071
        },
        {
          "duration": 0.3333333333333339,
          "durationTicks": 400,
          "midi": 48,
          "name": "C3",
          "ticks": 16320,
          "time": 13.600000000000001,
          "velocity": 0.8267716535433071
        },
        {
          "duration": 0.29666666666666686,
          "durationTicks": 356,
          "midi": 48,
          "name": "C3",
          "ticks": 17760,
          "time": 14.8,
          "velocity": 0.8267716535433071
        },
        {
          "duration": 0.09666666666666579,
          "durationTicks": 116,
          "midi": 48,
          "name": "C3",
          "ticks": 18120,
          "time": 15.100000000000001,
          "velocity": 0.8267716535433071
        },
        {
          "duration": 0.3333333333333339,
          "durationTicks": 400,
          "midi": 48,
          "name": "C3",
          "ticks": 18240,
          "time": 15.200000000000001,
          "velocity": 0.8267716535433071
        },
        {
          "duration": 0.29666666666666686,
          "durationTicks": 356,
          "midi": 48,
          "name": "C3",
          "ticks": 19680,
          "time": 16.400000000000002,
          "velocity": 0.8267716535433071
        },
        {
          "duration": 0.09666666666666757,
          "durationTicks": 116,
          "midi": 48,
          "name": "C3",
          "ticks": 20040,
          "time": 16.7,
          "velocity": 0.8267716535433071
        },
        {
          "duration": 0.3333333333333357,
          "durationTicks": 400,
          "midi": 48,
          "name": "C3",
          "ticks": 20160,
          "time": 16.8,
          "velocity": 0.8267716535433071
        },
        {
          "duration": 0.29666666666666686,
          "durationTicks": 356,
          "midi": 48,
          "name": "C3",
          "ticks": 21600,
          "time": 18,
          "velocity": 0.8267716535433071
        },
        {
          "duration": 0.09666666666666757,
          "durationTicks": 116,
          "midi": 48,
          "name": "C3",
          "ticks": 21960,
          "time": 18.3,
          "velocity": 0.8267716535433071
        },
        {
          "duration": 0.33333333333333215,
          "durationTicks": 400,
          "midi": 48,
          "name": "C3",
          "ticks": 22080,
          "time": 18.400000000000002,
          "velocity": 0.8267716535433071
        },
        {
          "duration": 0.29666666666666686,
          "durationTicks": 356,
          "midi": 48,
          "name": "C3",
          "ticks": 23520,
          "time": 19.6,
          "velocity": 0.8267716535433071
        },
        {
          "duration": 0.09666666666666757,
          "durationTicks": 116,
          "midi": 48,
          "name": "C3",
          "ticks": 23880,
          "time": 19.900000000000002,
          "velocity": 0.8267716535433071
        },
        {
          "duration": 0.3333333333333357,
          "durationTicks": 400,
          "midi": 48,
          "name": "C3",
          "ticks": 24000,
          "time": 20,
          "velocity": 0.8267716535433071
        },
        {
          "duration": 0.29666666666666686,
          "durationTicks": 356,
          "midi": 48,
          "name": "C3",
          "ticks": 25440,
          "time": 21.200000000000003,
          "velocity": 0.8267716535433071
        },
        {
          "duration": 0.09666666666666757,
          "durationTicks": 116,
          "midi": 48,
          "name": "C3",
          "ticks": 25800,
          "time": 21.5,
          "velocity": 0.8267716535433071
        },
        {
          "duration": 0.3333333333333357,
          "durationTicks": 400,
          "midi": 48,
          "name": "C3",
          "ticks": 25920,
          "time": 21.6,
          "velocity": 0.8267716535433071
        },
        {
          "duration": 0.33333333333333215,
          "durationTicks": 400,
          "midi": 48,
          "name": "C3",
          "ticks": 26880,
          "time": 22.400000000000002,
          "velocity": 0.8267716535433071
        },
        {
          "duration": 0.33333333333333215,
          "durationTicks": 400,
          "midi": 43,
          "name": "G2",
          "ticks": 27840,
          "time": 23.200000000000003,
          "velocity": 0.8267716535433071
        },
        {
          "duration": 0.3333333333333357,
          "durationTicks": 400,
          "midi": 48,
          "name": "C3",
          "ticks": 28800,
          "time": 24,
          "velocity": 0.8267716535433071
        },
        {
          "duration": 0.3333333333333357,
          "durationTicks": 400,
          "midi": 43,
          "name": "G2",
          "ticks": 29760,
          "time": 24.8,
          "velocity": 0.8267716535433071
        },
        {
          "duration": 0.33333333333333215,
          "durationTicks": 400,
          "midi": 48,
          "name": "C3",
          "ticks": 30720,
          "time": 25.6,
          "velocity": 0.8267716535433071
        },
        {
          "duration": 0.33333333333333215,
          "durationTicks": 400,
          "midi": 43,
          "name": "G2",
          "ticks": 31200,
          "time": 26,
          "velocity": 0.8267716535433071
        },
        {
          "duration": 0.33333333333333215,
          "durationTicks": 400,
          "midi": 48,
          "name": "C3",
          "ticks": 31680,
          "time": 26.400000000000002,
          "velocity": 0.8267716535433071
        },
        {
          "duration": 0.33333333333333215,
          "durationTicks": 400,
          "midi": 43,
          "name": "G2",
          "ticks": 32160,
          "time": 26.8,
          "velocity": 0.8267716535433071
        },
        {
          "duration": 0.3333333333333286,
          "durationTicks": 400,
          "midi": 48,
          "name": "C3",
          "ticks": 32640,
          "time": 27.200000000000003,
          "velocity": 0.8267716535433071
        },
        {
          "duration": 0.19666666666666544,
          "durationTicks": 236,
          "midi": 48,
          "name": "C3",
          "ticks": 33120,
          "time": 27.6,
          "velocity": 0.8267716535433071
        },
        {
          "duration": 0.19666666666666544,
          "durationTicks": 236,
          "midi": 48,
          "name": "C3",
          "ticks": 33360,
          "time": 27.8,
          "velocity": 0.8267716535433071
        },
        {
          "duration": 0.33333333333333215,
          "durationTicks": 400,
          "midi": 48,
          "name": "C3",
          "ticks": 33600,
          "time": 28,
          "velocity": 0.8267716535433071
        },
        {
          "duration": 0.33333333333333215,
          "durationTicks": 400,
          "midi": 48,
          "name": "C3",
          "ticks": 34080,
          "time": 28.400000000000002,
          "velocity": 0.8267716535433071
        },
        {
          "duration": 0.33333333333333215,
          "durationTicks": 400,
          "midi": 43,
          "name": "G2",
          "ticks": 34560,
          "time": 28.8,
          "velocity": 0.8267716535433071
        },
        {
          "duration": 0.33333333333333215,
          "durationTicks": 400,
          "midi": 48,
          "name": "C3",
          "ticks": 35520,
          "time": 29.6,
          "velocity": 0.8267716535433071
        },
        {
          "duration": 0.33333333333333215,
          "durationTicks": 400,
          "midi": 43,
          "name": "G2",
          "ticks": 36480,
          "time": 30.400000000000002,
          "velocity": 0.8267716535433071
        },
        {
          "duration": 0.3333333333333286,
          "durationTicks": 400,
          "midi": 48,
          "name": "C3",
          "ticks": 37440,
          "time": 31.200000000000003,
          "velocity": 0.8267716535433071
        },
        {
          "duration": 0.3333333333333357,
          "durationTicks": 400,
          "midi": 43,
          "name": "G2",
          "ticks": 38400,
          "time": 32,
          "velocity": 0.8267716535433071
        },
        {
          "duration": 0.3333333333333357,
          "durationTicks": 400,
          "midi": 43,
          "name": "G2",
          "ticks": 38880,
          "time": 32.4,
          "velocity": 0.8503937007874016
        },
        {
          "duration": 0.3333333333333286,
          "durationTicks": 400,
          "midi": 43,
          "name": "G2",
          "ticks": 39360,
          "time": 32.800000000000004,
          "velocity": 0.8661417322834646
        },
        {
          "duration": 0.3333333333333286,
          "durationTicks": 400,
          "midi": 43,
          "name": "G2",
          "ticks": 39840,
          "time": 33.2,
          "velocity": 0.8818897637795275
        },
        {
          "duration": 0.3333333333333286,
          "durationTicks": 400,
          "midi": 43,
          "name": "G2",
          "ticks": 40320,
          "time": 33.6,
          "velocity": 0.905511811023622
        },
        {
          "duration": 0.3333333333333357,
          "durationTicks": 400,
          "midi": 43,
          "name": "G2",
          "ticks": 41280,
          "time": 34.4,
          "velocity": 0.937007874015748
        },
        {
          "duration": 0.3333333333333286,
          "durationTicks": 400,
          "midi": 43,
          "name": "G2",
          "ticks": 41760,
          "time": 34.800000000000004,
          "velocity": 0.952755905511811
        },
        {
          "duration": 1.5,
          "durationTicks": 1800,
          "midi": 43,
          "name": "G2",
          "ticks": 42240,
          "time": 35.2,
          "velocity": 0.9763779527559056
        },
        {
          "duration": 0.3333333333333357,
          "durationTicks": 400,
          "midi": 43,
          "name": "G2",
          "ticks": 69120,
          "time": 57.6,
          "velocity": 0.8267716535433071
        },
        {
          "duration": 0.3333333333333357,
          "durationTicks": 400,
          "midi": 43,
          "name": "G2",
          "ticks": 70080,
          "time": 58.400000000000006,
          "velocity": 0.8267716535433071
        },
        {
          "duration": 0.3333333333333357,
          "durationTicks": 400,
          "midi": 43,
          "name": "G2",
          "ticks": 71040,
          "time": 59.2,
          "velocity": 0.8267716535433071
        },
        {
          "duration": 0.3333333333333357,
          "durationTicks": 400,
          "midi": 43,
          "name": "G2",
          "ticks": 72960,
          "time": 60.800000000000004,
          "velocity": 0.8267716535433071
        },
        {
          "duration": 0.3333333333333357,
          "durationTicks": 400,
          "midi": 43,
          "name": "G2",
          "ticks": 73920,
          "time": 61.6,
          "velocity": 0.8267716535433071
        },
        {
          "duration": 0.3333333333333357,
          "durationTicks": 400,
          "midi": 43,
          "name": "G2",
          "ticks": 74880,
          "time": 62.400000000000006,
          "velocity": 0.8267716535433071
        },
        {
          "duration": 0.3333333333333428,
          "durationTicks": 400,
          "midi": 43,
          "name": "G2",
          "ticks": 76800,
          "time": 64,
          "velocity": 0.8267716535433071
        },
        {
          "duration": 0.3333333333333428,
          "durationTicks": 400,
          "midi": 43,
          "name": "G2",
          "ticks": 77760,
          "time": 64.8,
          "velocity": 0.8267716535433071
        },
        {
          "duration": 0.3333333333333286,
          "durationTicks": 400,
          "midi": 43,
          "name": "G2",
          "ticks": 78720,
          "time": 65.60000000000001,
          "velocity": 0.8267716535433071
        },
        {
          "duration": 0.3333333333333428,
          "durationTicks": 400,
          "midi": 43,
          "name": "G2",
          "ticks": 80640,
          "time": 67.2,
          "velocity": 0.8267716535433071
        },
        {
          "duration": 0.3333333333333428,
          "durationTicks": 400,
          "midi": 43,
          "name": "G2",
          "ticks": 81600,
          "time": 68,
          "velocity": 0.8267716535433071
        },
        {
          "duration": 0.3333333333333428,
          "durationTicks": 400,
          "midi": 43,
          "name": "G2",
          "ticks": 82560,
          "time": 68.8,
          "velocity": 0.8267716535433071
        },
        {
          "duration": 0.3333333333333286,
          "durationTicks": 400,
          "midi": 43,
          "name": "G2",
          "ticks": 84480,
          "time": 70.4,
          "velocity": 0.8267716535433071
        },
        {
          "duration": 0.3333333333333428,
          "durationTicks": 400,
          "midi": 43,
          "name": "G2",
          "ticks": 86400,
          "time": 72,
          "velocity": 0.8267716535433071
        },
        {
          "duration": 0.700000000000017,
          "durationTicks": 840,
          "midi": 48,
          "name": "C3",
          "ticks": 153600,
          "time": 128,
          "velocity": 0.8267716535433071
        },
        {
          "duration": 0.5333333333333314,
          "durationTicks": 640,
          "midi": 48,
          "name": "C3",
          "ticks": 154560,
          "time": 128.8,
          "velocity": 0.8267716535433071
        },
        {
          "duration": 0.19666666666665833,
          "durationTicks": 236,
          "midi": 48,
          "name": "C3",
          "ticks": 155280,
          "time": 129.4,
          "velocity": 0.8267716535433071
        },
        {
          "duration": 0.3333333333333428,
          "durationTicks": 400,
          "midi": 48,
          "name": "C3",
          "ticks": 155520,
          "time": 129.6,
          "velocity": 0.8267716535433071
        },
        {
          "duration": 0.3333333333333428,
          "durationTicks": 400,
          "midi": 48,
          "name": "C3",
          "ticks": 156000,
          "time": 130,
          "velocity": 0.8267716535433071
        },
        {
          "duration": 0.3333333333333144,
          "durationTicks": 400,
          "midi": 48,
          "name": "C3",
          "ticks": 156480,
          "time": 130.4,
          "velocity": 0.8267716535433071
        },
        {
          "duration": 0.3333333333333144,
          "durationTicks": 400,
          "midi": 48,
          "name": "C3",
          "ticks": 156960,
          "time": 130.8,
          "velocity": 0.8267716535433071
        },
        {
          "duration": 0.046666666666652645,
          "durationTicks": 56,
          "midi": 50,
          "name": "D3",
          "ticks": 157440,
          "time": 131.20000000000002,
          "velocity": 0.8267716535433071
        },
        {
          "duration": 0.04666666666668107,
          "durationTicks": 56,
          "midi": 48,
          "name": "C3",
          "ticks": 157500,
          "time": 131.25,
          "velocity": 0.8267716535433071
        },
        {
          "duration": 0.046666666666652645,
          "durationTicks": 56,
          "midi": 50,
          "name": "D3",
          "ticks": 157560,
          "time": 131.3,
          "velocity": 0.8267716535433071
        },
        {
          "duration": 0.04666666666668107,
          "durationTicks": 56,
          "midi": 48,
          "name": "C3",
          "ticks": 157620,
          "time": 131.35,
          "velocity": 0.8267716535433071
        },
        {
          "duration": 0.04666666666668107,
          "durationTicks": 56,
          "midi": 50,
          "name": "D3",
          "ticks": 157680,
          "time": 131.4,
          "velocity": 0.8267716535433071
        },
        {
          "duration": 0.046666666666652645,
          "durationTicks": 56,
          "midi": 48,
          "name": "C3",
          "ticks": 157740,
          "time": 131.45000000000002,
          "velocity": 0.8267716535433071
        },
        {
          "duration": 0.04666666666668107,
          "durationTicks": 56,
          "midi": 50,
          "name": "D3",
          "ticks": 157800,
          "time": 131.5,
          "velocity": 0.8267716535433071
        },
        {
          "duration": 0.046666666666652645,
          "durationTicks": 56,
          "midi": 48,
          "name": "C3",
          "ticks": 157860,
          "time": 131.55,
          "velocity": 0.8267716535433071
        },
        {
          "duration": 0.04666666666668107,
          "durationTicks": 56,
          "midi": 50,
          "name": "D3",
          "ticks": 157920,
          "time": 131.6,
          "velocity": 0.8267716535433071
        },
        {
          "duration": 0.04666666666668107,
          "durationTicks": 56,
          "midi": 48,
          "name": "C3",
          "ticks": 157980,
          "time": 131.65,
          "velocity": 0.8267716535433071
        },
        {
          "duration": 0.046666666666652645,
          "durationTicks": 56,
          "midi": 50,
          "name": "D3",
          "ticks": 158040,
          "time": 131.70000000000002,
          "velocity": 0.8267716535433071
        },
        {
          "duration": 0.04666666666668107,
          "durationTicks": 56,
          "midi": 48,
          "name": "C3",
          "ticks": 158100,
          "time": 131.75,
          "velocity": 0.8267716535433071
        },
        {
          "duration": 0.046666666666652645,
          "durationTicks": 56,
          "midi": 50,
          "name": "D3",
          "ticks": 158160,
          "time": 131.8,
          "velocity": 0.8267716535433071
        },
        {
          "duration": 0.04666666666668107,
          "durationTicks": 56,
          "midi": 48,
          "name": "C3",
          "ticks": 158220,
          "time": 131.85,
          "velocity": 0.8267716535433071
        },
        {
          "duration": 0.04666666666668107,
          "durationTicks": 56,
          "midi": 50,
          "name": "D3",
          "ticks": 158280,
          "time": 131.9,
          "velocity": 0.8267716535433071
        },
        {
          "duration": 0.046666666666652645,
          "durationTicks": 56,
          "midi": 48,
          "name": "C3",
          "ticks": 158340,
          "time": 131.95000000000002,
          "velocity": 0.8267716535433071
        },
        {
          "duration": 0.04666666666668107,
          "durationTicks": 56,
          "midi": 50,
          "name": "D3",
          "ticks": 158400,
          "time": 132,
          "velocity": 0.8267716535433071
        },
        {
          "duration": 0.046666666666652645,
          "durationTicks": 56,
          "midi": 48,
          "name": "C3",
          "ticks": 158460,
          "time": 132.05,
          "velocity": 0.8267716535433071
        },
        {
          "duration": 0.04666666666668107,
          "durationTicks": 56,
          "midi": 50,
          "name": "D3",
          "ticks": 158520,
          "time": 132.1,
          "velocity": 0.8267716535433071
        },
        {
          "duration": 0.04666666666668107,
          "durationTicks": 56,
          "midi": 48,
          "name": "C3",
          "ticks": 158580,
          "time": 132.15,
          "velocity": 0.8267716535433071
        },
        {
          "duration": 0.046666666666652645,
          "durationTicks": 56,
          "midi": 50,
          "name": "D3",
          "ticks": 158640,
          "time": 132.20000000000002,
          "velocity": 0.8267716535433071
        },
        {
          "duration": 0.04666666666668107,
          "durationTicks": 56,
          "midi": 48,
          "name": "C3",
          "ticks": 158700,
          "time": 132.25,
          "velocity": 0.8267716535433071
        },
        {
          "duration": 0.046666666666652645,
          "durationTicks": 56,
          "midi": 50,
          "name": "D3",
          "ticks": 158760,
          "time": 132.3,
          "velocity": 0.8267716535433071
        },
        {
          "duration": 0.04666666666668107,
          "durationTicks": 56,
          "midi": 48,
          "name": "C3",
          "ticks": 158820,
          "time": 132.35,
          "velocity": 0.8267716535433071
        },
        {
          "duration": 0.04666666666668107,
          "durationTicks": 56,
          "midi": 50,
          "name": "D3",
          "ticks": 158880,
          "time": 132.4,
          "velocity": 0.8267716535433071
        },
        {
          "duration": 0.046666666666652645,
          "durationTicks": 56,
          "midi": 48,
          "name": "C3",
          "ticks": 158940,
          "time": 132.45000000000002,
          "velocity": 0.8267716535433071
        },
        {
          "duration": 0.04666666666668107,
          "durationTicks": 56,
          "midi": 50,
          "name": "D3",
          "ticks": 159000,
          "time": 132.5,
          "velocity": 0.8267716535433071
        },
        {
          "duration": 0.046666666666652645,
          "durationTicks": 56,
          "midi": 48,
          "name": "C3",
          "ticks": 159060,
          "time": 132.55,
          "velocity": 0.8267716535433071
        },
        {
          "duration": 0.04666666666668107,
          "durationTicks": 56,
          "midi": 50,
          "name": "D3",
          "ticks": 159120,
          "time": 132.6,
          "velocity": 0.8267716535433071
        },
        {
          "duration": 0.04666666666668107,
          "durationTicks": 56,
          "midi": 48,
          "name": "C3",
          "ticks": 159180,
          "time": 132.65,
          "velocity": 0.8267716535433071
        },
        {
          "duration": 0.046666666666652645,
          "durationTicks": 56,
          "midi": 50,
          "name": "D3",
          "ticks": 159240,
          "time": 132.70000000000002,
          "velocity": 0.8267716535433071
        },
        {
          "duration": 0.04666666666668107,
          "durationTicks": 56,
          "midi": 48,
          "name": "C3",
          "ticks": 159300,
          "time": 132.75,
          "velocity": 0.8267716535433071
        },
        {
          "duration": 0.046666666666652645,
          "durationTicks": 56,
          "midi": 50,
          "name": "D3",
          "ticks": 159360,
          "time": 132.8,
          "velocity": 0.8267716535433071
        },
        {
          "duration": 0.04666666666668107,
          "durationTicks": 56,
          "midi": 48,
          "name": "C3",
          "ticks": 159420,
          "time": 132.85,
          "velocity": 0.8267716535433071
        },
        {
          "duration": 0.04666666666668107,
          "durationTicks": 56,
          "midi": 50,
          "name": "D3",
          "ticks": 159480,
          "time": 132.9,
          "velocity": 0.8267716535433071
        },
        {
          "duration": 0.046666666666652645,
          "durationTicks": 56,
          "midi": 48,
          "name": "C3",
          "ticks": 159540,
          "time": 132.95000000000002,
          "velocity": 0.8267716535433071
        },
        {
          "duration": 0.04666666666668107,
          "durationTicks": 56,
          "midi": 50,
          "name": "D3",
          "ticks": 159600,
          "time": 133,
          "velocity": 0.8267716535433071
        },
        {
          "duration": 0.046666666666652645,
          "durationTicks": 56,
          "midi": 48,
          "name": "C3",
          "ticks": 159660,
          "time": 133.05,
          "velocity": 0.8267716535433071
        },
        {
          "duration": 0.04666666666668107,
          "durationTicks": 56,
          "midi": 50,
          "name": "D3",
          "ticks": 159720,
          "time": 133.1,
          "velocity": 0.8267716535433071
        },
        {
          "duration": 0.04666666666668107,
          "durationTicks": 56,
          "midi": 48,
          "name": "C3",
          "ticks": 159780,
          "time": 133.15,
          "velocity": 0.8267716535433071
        },
        {
          "duration": 0.046666666666652645,
          "durationTicks": 56,
          "midi": 50,
          "name": "D3",
          "ticks": 159840,
          "time": 133.20000000000002,
          "velocity": 0.8267716535433071
        },
        {
          "duration": 0.04666666666668107,
          "durationTicks": 56,
          "midi": 48,
          "name": "C3",
          "ticks": 159900,
          "time": 133.25,
          "velocity": 0.8267716535433071
        },
        {
          "duration": 0.046666666666652645,
          "durationTicks": 56,
          "midi": 50,
          "name": "D3",
          "ticks": 159960,
          "time": 133.3,
          "velocity": 0.8267716535433071
        },
        {
          "duration": 0.04666666666668107,
          "durationTicks": 56,
          "midi": 48,
          "name": "C3",
          "ticks": 160020,
          "time": 133.35,
          "velocity": 0.8267716535433071
        },
        {
          "duration": 0.04666666666668107,
          "durationTicks": 56,
          "midi": 50,
          "name": "D3",
          "ticks": 160080,
          "time": 133.4,
          "velocity": 0.8267716535433071
        },
        {
          "duration": 0.046666666666652645,
          "durationTicks": 56,
          "midi": 48,
          "name": "C3",
          "ticks": 160140,
          "time": 133.45000000000002,
          "velocity": 0.8267716535433071
        },
        {
          "duration": 0.04666666666668107,
          "durationTicks": 56,
          "midi": 50,
          "name": "D3",
          "ticks": 160200,
          "time": 133.5,
          "velocity": 0.8267716535433071
        },
        {
          "duration": 0.046666666666652645,
          "durationTicks": 56,
          "midi": 48,
          "name": "C3",
          "ticks": 160260,
          "time": 133.55,
          "velocity": 0.8267716535433071
        },
        {
          "duration": 0.04666666666668107,
          "durationTicks": 56,
          "midi": 50,
          "name": "D3",
          "ticks": 160320,
          "time": 133.6,
          "velocity": 0.8267716535433071
        },
        {
          "duration": 0.04666666666668107,
          "durationTicks": 56,
          "midi": 48,
          "name": "C3",
          "ticks": 160380,
          "time": 133.65,
          "velocity": 0.8267716535433071
        },
        {
          "duration": 0.046666666666652645,
          "durationTicks": 56,
          "midi": 50,
          "name": "D3",
          "ticks": 160440,
          "time": 133.70000000000002,
          "velocity": 0.8267716535433071
        },
        {
          "duration": 0.04666666666668107,
          "durationTicks": 56,
          "midi": 48,
          "name": "C3",
          "ticks": 160500,
          "time": 133.75,
          "velocity": 0.8267716535433071
        },
        {
          "duration": 0.046666666666652645,
          "durationTicks": 56,
          "midi": 50,
          "name": "D3",
          "ticks": 160560,
          "time": 133.8,
          "velocity": 0.8267716535433071
        },
        {
          "duration": 0.04666666666668107,
          "durationTicks": 56,
          "midi": 48,
          "name": "C3",
          "ticks": 160620,
          "time": 133.85,
          "velocity": 0.8267716535433071
        },
        {
          "duration": 0.04666666666668107,
          "durationTicks": 56,
          "midi": 50,
          "name": "D3",
          "ticks": 160680,
          "time": 133.9,
          "velocity": 0.8267716535433071
        },
        {
          "duration": 0.046666666666652645,
          "durationTicks": 56,
          "midi": 48,
          "name": "C3",
          "ticks": 160740,
          "time": 133.95000000000002,
          "velocity": 0.8267716535433071
        },
        {
          "duration": 0.04666666666668107,
          "durationTicks": 56,
          "midi": 50,
          "name": "D3",
          "ticks": 160800,
          "time": 134,
          "velocity": 0.8267716535433071
        },
        {
          "duration": 0.046666666666652645,
          "durationTicks": 56,
          "midi": 48,
          "name": "C3",
          "ticks": 160860,
          "time": 134.05,
          "velocity": 0.8267716535433071
        },
        {
          "duration": 0.04666666666668107,
          "durationTicks": 56,
          "midi": 50,
          "name": "D3",
          "ticks": 160920,
          "time": 134.1,
          "velocity": 0.8267716535433071
        },
        {
          "duration": 0.04666666666668107,
          "durationTicks": 56,
          "midi": 48,
          "name": "C3",
          "ticks": 160980,
          "time": 134.15,
          "velocity": 0.8267716535433071
        },
        {
          "duration": 0.046666666666652645,
          "durationTicks": 56,
          "midi": 50,
          "name": "D3",
          "ticks": 161040,
          "time": 134.20000000000002,
          "velocity": 0.8267716535433071
        },
        {
          "duration": 0.04666666666668107,
          "durationTicks": 56,
          "midi": 48,
          "name": "C3",
          "ticks": 161100,
          "time": 134.25,
          "velocity": 0.8267716535433071
        },
        {
          "duration": 0.046666666666652645,
          "durationTicks": 56,
          "midi": 50,
          "name": "D3",
          "ticks": 161160,
          "time": 134.3,
          "velocity": 0.8267716535433071
        },
        {
          "duration": 0.04666666666668107,
          "durationTicks": 56,
          "midi": 48,
          "name": "C3",
          "ticks": 161220,
          "time": 134.35,
          "velocity": 0.8267716535433071
        },
        {
          "duration": 0.3333333333333144,
          "durationTicks": 400,
          "midi": 48,
          "name": "C3",
          "ticks": 161280,
          "time": 134.4,
          "velocity": 0.8267716535433071
        },
        {
          "duration": 0.3333333333333144,
          "durationTicks": 400,
          "midi": 48,
          "name": "C3",
          "ticks": 161760,
          "time": 134.8,
          "velocity": 0.8267716535433071
        },
        {
          "duration": 0.3333333333333144,
          "durationTicks": 400,
          "midi": 48,
          "name": "C3",
          "ticks": 162240,
          "time": 135.20000000000002,
          "velocity": 0.8267716535433071
        },
        {
          "duration": 0.3333333333333428,
          "durationTicks": 400,
          "midi": 48,
          "name": "C3",
          "ticks": 162720,
          "time": 135.6,
          "velocity": 0.8267716535433071
        },
        {
          "duration": 0.3333333333333428,
          "durationTicks": 400,
          "midi": 48,
          "name": "C3",
          "ticks": 163200,
          "time": 136,
          "velocity": 0.8267716535433071
        },
        {
          "duration": 0.3333333333333144,
          "durationTicks": 400,
          "midi": 48,
          "name": "C3",
          "ticks": 163680,
          "time": 136.4,
          "velocity": 0.8267716535433071
        },
        {
          "duration": 0.3333333333333144,
          "durationTicks": 400,
          "midi": 48,
          "name": "C3",
          "ticks": 164160,
          "time": 136.8,
          "velocity": 0.8267716535433071
        },
        {
          "duration": 0.3333333333333144,
          "durationTicks": 400,
          "midi": 43,
          "name": "G2",
          "ticks": 168960,
          "time": 140.8,
          "velocity": 0.8267716535433071
        },
        {
          "duration": 0.3333333333333144,
          "durationTicks": 400,
          "midi": 43,
          "name": "G2",
          "ticks": 170880,
          "time": 142.4,
          "velocity": 0.8267716535433071
        },
        {
          "duration": 0.3333333333333428,
          "durationTicks": 400,
          "midi": 43,
          "name": "G2",
          "ticks": 172800,
          "time": 144,
          "velocity": 0.8267716535433071
        },
        {
          "duration": 0.3333333333333428,
          "durationTicks": 400,
          "midi": 43,
          "name": "G2",
          "ticks": 174720,
          "time": 145.6,
          "velocity": 0.6771653543307087
        },
        {
          "duration": 0.3333333333333144,
          "durationTicks": 400,
          "midi": 43,
          "name": "G2",
          "ticks": 175680,
          "time": 146.4,
          "velocity": 0.6771653543307087
        },
        {
          "duration": 0.3333333333333144,
          "durationTicks": 400,
          "midi": 43,
          "name": "G2",
          "ticks": 178560,
          "time": 148.8,
          "velocity": 0.6771653543307087
        },
        {
          "duration": 0.3333333333333144,
          "durationTicks": 400,
          "midi": 43,
          "name": "G2",
          "ticks": 180480,
          "time": 150.4,
          "velocity": 0.6771653543307087
        },
        {
          "duration": 0.3333333333333428,
          "durationTicks": 400,
          "midi": 43,
          "name": "G2",
          "ticks": 182400,
          "time": 152,
          "velocity": 0.6771653543307087
        },
        {
          "duration": 0.3333333333333144,
          "durationTicks": 400,
          "midi": 43,
          "name": "G2",
          "ticks": 222720,
          "time": 185.60000000000002,
          "velocity": 0.6771653543307087
        },
        {
          "duration": 0.3333333333333144,
          "durationTicks": 400,
          "midi": 43,
          "name": "G2",
          "ticks": 224640,
          "time": 187.20000000000002,
          "velocity": 0.6771653543307087
        },
        {
          "duration": 0.3333333333333144,
          "durationTicks": 400,
          "midi": 43,
          "name": "G2",
          "ticks": 226560,
          "time": 188.8,
          "velocity": 0.6771653543307087
        },
        {
          "duration": 0.3333333333333428,
          "durationTicks": 400,
          "midi": 43,
          "name": "G2",
          "ticks": 228480,
          "time": 190.4,
          "velocity": 0.6771653543307087
        },
        {
          "duration": 0.3333333333333144,
          "durationTicks": 400,
          "midi": 43,
          "name": "G2",
          "ticks": 228960,
          "time": 190.8,
          "velocity": 0.6771653543307087
        },
        {
          "duration": 0.3333333333333144,
          "durationTicks": 400,
          "midi": 43,
          "name": "G2",
          "ticks": 229440,
          "time": 191.20000000000002,
          "velocity": 0.6771653543307087
        },
        {
          "duration": 0.3333333333333428,
          "durationTicks": 400,
          "midi": 48,
          "name": "C3",
          "ticks": 230400,
          "time": 192,
          "velocity": 0.8267716535433071
        },
        {
          "duration": 0.3333333333333144,
          "durationTicks": 400,
          "midi": 48,
          "name": "C3",
          "ticks": 231360,
          "time": 192.8,
          "velocity": 0.8267716535433071
        },
        {
          "duration": 0.3333333333333144,
          "durationTicks": 400,
          "midi": 48,
          "name": "C3",
          "ticks": 232320,
          "time": 193.60000000000002,
          "velocity": 0.8267716535433071
        },
        {
          "duration": 0.3333333333333428,
          "durationTicks": 400,
          "midi": 43,
          "name": "G2",
          "ticks": 238080,
          "time": 198.4,
          "velocity": 0.8267716535433071
        },
        {
          "duration": 0.3333333333333144,
          "durationTicks": 400,
          "midi": 43,
          "name": "G2",
          "ticks": 239040,
          "time": 199.20000000000002,
          "velocity": 0.8267716535433071
        },
        {
          "duration": 0.3333333333333428,
          "durationTicks": 400,
          "midi": 43,
          "name": "G2",
          "ticks": 240000,
          "time": 200,
          "velocity": 0.8267716535433071
        },
        {
          "duration": 0.29666666666665265,
          "durationTicks": 356,
          "midi": 48,
          "name": "C3",
          "ticks": 246240,
          "time": 205.20000000000002,
          "velocity": 0.8267716535433071
        },
        {
          "duration": 0.09666666666669244,
          "durationTicks": 116,
          "midi": 48,
          "name": "C3",
          "ticks": 246600,
          "time": 205.5,
          "velocity": 0.8267716535433071
        },
        {
          "duration": 0.3333333333333428,
          "durationTicks": 400,
          "midi": 48,
          "name": "C3",
          "ticks": 246720,
          "time": 205.60000000000002,
          "velocity": 0.8267716535433071
        },
        {
          "duration": 0.29666666666668107,
          "durationTicks": 356,
          "midi": 48,
          "name": "C3",
          "ticks": 248160,
          "time": 206.8,
          "velocity": 0.8267716535433071
        },
        {
          "duration": 0.09666666666666401,
          "durationTicks": 116,
          "midi": 48,
          "name": "C3",
          "ticks": 248520,
          "time": 207.10000000000002,
          "velocity": 0.8267716535433071
        },
        {
          "duration": 0.3333333333333428,
          "durationTicks": 400,
          "midi": 48,
          "name": "C3",
          "ticks": 248640,
          "time": 207.20000000000002,
          "velocity": 0.8267716535433071
        },
        {
          "duration": 0.29666666666668107,
          "durationTicks": 356,
          "midi": 48,
          "name": "C3",
          "ticks": 250080,
          "time": 208.4,
          "velocity": 0.8267716535433071
        },
        {
          "duration": 0.09666666666666401,
          "durationTicks": 116,
          "midi": 48,
          "name": "C3",
          "ticks": 250440,
          "time": 208.70000000000002,
          "velocity": 0.8267716535433071
        },
        {
          "duration": 0.3333333333333428,
          "durationTicks": 400,
          "midi": 48,
          "name": "C3",
          "ticks": 250560,
          "time": 208.8,
          "velocity": 0.8267716535433071
        },
        {
          "duration": 0.29666666666668107,
          "durationTicks": 356,
          "midi": 48,
          "name": "C3",
          "ticks": 252000,
          "time": 210,
          "velocity": 0.8267716535433071
        },
        {
          "duration": 0.09666666666666401,
          "durationTicks": 116,
          "midi": 48,
          "name": "C3",
          "ticks": 252360,
          "time": 210.3,
          "velocity": 0.8267716535433071
        },
        {
          "duration": 0.3333333333333428,
          "durationTicks": 400,
          "midi": 48,
          "name": "C3",
          "ticks": 252480,
          "time": 210.4,
          "velocity": 0.8267716535433071
        },
        {
          "duration": 0.29666666666665265,
          "durationTicks": 356,
          "midi": 48,
          "name": "C3",
          "ticks": 253920,
          "time": 211.60000000000002,
          "velocity": 0.8267716535433071
        },
        {
          "duration": 0.09666666666666401,
          "durationTicks": 116,
          "midi": 48,
          "name": "C3",
          "ticks": 254280,
          "time": 211.9,
          "velocity": 0.8267716535433071
        },
        {
          "duration": 0.33333333333337123,
          "durationTicks": 400,
          "midi": 48,
          "name": "C3",
          "ticks": 254400,
          "time": 212,
          "velocity": 0.8267716535433071
        },
        {
          "duration": 0.29666666666665265,
          "durationTicks": 356,
          "midi": 48,
          "name": "C3",
          "ticks": 255840,
          "time": 213.20000000000002,
          "velocity": 0.8267716535433071
        },
        {
          "duration": 0.09666666666669244,
          "durationTicks": 116,
          "midi": 48,
          "name": "C3",
          "ticks": 256200,
          "time": 213.5,
          "velocity": 0.8267716535433071
        },
        {
          "duration": 0.3333333333333428,
          "durationTicks": 400,
          "midi": 48,
          "name": "C3",
          "ticks": 256320,
          "time": 213.60000000000002,
          "velocity": 0.8267716535433071
        },
        {
          "duration": 0.3333333333333428,
          "durationTicks": 400,
          "midi": 48,
          "name": "C3",
          "ticks": 257280,
          "time": 214.4,
          "velocity": 0.8267716535433071
        },
        {
          "duration": 0.3333333333333428,
          "durationTicks": 400,
          "midi": 43,
          "name": "G2",
          "ticks": 258240,
          "time": 215.20000000000002,
          "velocity": 0.8267716535433071
        },
        {
          "duration": 0.33333333333337123,
          "durationTicks": 400,
          "midi": 48,
          "name": "C3",
          "ticks": 259200,
          "time": 216,
          "velocity": 0.8267716535433071
        },
        {
          "duration": 0.3333333333333428,
          "durationTicks": 400,
          "midi": 43,
          "name": "G2",
          "ticks": 260160,
          "time": 216.8,
          "velocity": 0.8267716535433071
        },
        {
          "duration": 0.3333333333333428,
          "durationTicks": 400,
          "midi": 48,
          "name": "C3",
          "ticks": 261120,
          "time": 217.60000000000002,
          "velocity": 0.8267716535433071
        },
        {
          "duration": 0.33333333333337123,
          "durationTicks": 400,
          "midi": 43,
          "name": "G2",
          "ticks": 261600,
          "time": 218,
          "velocity": 0.8267716535433071
        },
        {
          "duration": 0.3333333333333428,
          "durationTicks": 400,
          "midi": 48,
          "name": "C3",
          "ticks": 262080,
          "time": 218.4,
          "velocity": 0.8267716535433071
        },
        {
          "duration": 0.3333333333333428,
          "durationTicks": 400,
          "midi": 43,
          "name": "G2",
          "ticks": 262560,
          "time": 218.8,
          "velocity": 0.8267716535433071
        },
        {
          "duration": 0.3333333333333428,
          "durationTicks": 400,
          "midi": 48,
          "name": "C3",
          "ticks": 263040,
          "time": 219.20000000000002,
          "velocity": 0.8267716535433071
        },
        {
          "duration": 0.19666666666665833,
          "durationTicks": 236,
          "midi": 48,
          "name": "C3",
          "ticks": 263520,
          "time": 219.60000000000002,
          "velocity": 0.8267716535433071
        },
        {
          "duration": 0.19666666666665833,
          "durationTicks": 236,
          "midi": 48,
          "name": "C3",
          "ticks": 263760,
          "time": 219.8,
          "velocity": 0.8267716535433071
        },
        {
          "duration": 0.33333333333337123,
          "durationTicks": 400,
          "midi": 48,
          "name": "C3",
          "ticks": 264000,
          "time": 220,
          "velocity": 0.8267716535433071
        },
        {
          "duration": 0.3333333333333428,
          "durationTicks": 400,
          "midi": 48,
          "name": "C3",
          "ticks": 264480,
          "time": 220.4,
          "velocity": 0.8267716535433071
        },
        {
          "duration": 0.3333333333333428,
          "durationTicks": 400,
          "midi": 43,
          "name": "G2",
          "ticks": 264960,
          "time": 220.8,
          "velocity": 0.8267716535433071
        },
        {
          "duration": 0.3333333333333428,
          "durationTicks": 400,
          "midi": 48,
          "name": "C3",
          "ticks": 265920,
          "time": 221.60000000000002,
          "velocity": 0.8267716535433071
        },
        {
          "duration": 0.3333333333333428,
          "durationTicks": 400,
          "midi": 43,
          "name": "G2",
          "ticks": 266880,
          "time": 222.4,
          "velocity": 0.8267716535433071
        },
        {
          "duration": 0.3333333333333428,
          "durationTicks": 400,
          "midi": 48,
          "name": "C3",
          "ticks": 267840,
          "time": 223.20000000000002,
          "velocity": 0.8267716535433071
        },
        {
          "duration": 0.33333333333337123,
          "durationTicks": 400,
          "midi": 43,
          "name": "G2",
          "ticks": 268800,
          "time": 224,
          "velocity": 0.8267716535433071
        },
        {
          "duration": 0.3333333333333428,
          "durationTicks": 400,
          "midi": 43,
          "name": "G2",
          "ticks": 269280,
          "time": 224.4,
          "velocity": 0.8503937007874016
        },
        {
          "duration": 0.3333333333333428,
          "durationTicks": 400,
          "midi": 43,
          "name": "G2",
          "ticks": 269760,
          "time": 224.8,
          "velocity": 0.8661417322834646
        },
        {
          "duration": 0.3333333333333428,
          "durationTicks": 400,
          "midi": 43,
          "name": "G2",
          "ticks": 270240,
          "time": 225.20000000000002,
          "velocity": 0.8818897637795275
        },
        {
          "duration": 0.3333333333333428,
          "durationTicks": 400,
          "midi": 43,
          "name": "G2",
          "ticks": 270720,
          "time": 225.60000000000002,
          "velocity": 0.905511811023622
        },
        {
          "duration": 0.3333333333333428,
          "durationTicks": 400,
          "midi": 43,
          "name": "G2",
          "ticks": 271680,
          "time": 226.4,
          "velocity": 0.937007874015748
        },
        {
          "duration": 0.3333333333333428,
          "durationTicks": 400,
          "midi": 43,
          "name": "G2",
          "ticks": 272160,
          "time": 226.8,
          "velocity": 0.952755905511811
        },
        {
          "duration": 1.5,
          "durationTicks": 1800,
          "midi": 43,
          "name": "G2",
          "ticks": 272640,
          "time": 227.20000000000002,
          "velocity": 0.9763779527559056
        },
        {
          "duration": 0.3333333333333428,
          "durationTicks": 400,
          "midi": 43,
          "name": "G2",
          "ticks": 299520,
          "time": 249.60000000000002,
          "velocity": 0.8267716535433071
        },
        {
          "duration": 0.3333333333333428,
          "durationTicks": 400,
          "midi": 43,
          "name": "G2",
          "ticks": 300480,
          "time": 250.4,
          "velocity": 0.8267716535433071
        },
        {
          "duration": 0.3333333333333428,
          "durationTicks": 400,
          "midi": 43,
          "name": "G2",
          "ticks": 301440,
          "time": 251.20000000000002,
          "velocity": 0.8267716535433071
        },
        {
          "duration": 0.3333333333333428,
          "durationTicks": 400,
          "midi": 43,
          "name": "G2",
          "ticks": 303360,
          "time": 252.8,
          "velocity": 0.8267716535433071
        },
        {
          "duration": 0.3333333333333428,
          "durationTicks": 400,
          "midi": 43,
          "name": "G2",
          "ticks": 304320,
          "time": 253.60000000000002,
          "velocity": 0.8267716535433071
        },
        {
          "duration": 0.3333333333333428,
          "durationTicks": 400,
          "midi": 43,
          "name": "G2",
          "ticks": 305280,
          "time": 254.4,
          "velocity": 0.8267716535433071
        },
        {
          "duration": 0.33333333333337123,
          "durationTicks": 400,
          "midi": 43,
          "name": "G2",
          "ticks": 307200,
          "time": 256,
          "velocity": 0.8267716535433071
        },
        {
          "duration": 0.33333333333337123,
          "durationTicks": 400,
          "midi": 43,
          "name": "G2",
          "ticks": 308160,
          "time": 256.8,
          "velocity": 0.8267716535433071
        },
        {
          "duration": 0.3333333333333144,
          "durationTicks": 400,
          "midi": 43,
          "name": "G2",
          "ticks": 309120,
          "time": 257.6,
          "velocity": 0.8267716535433071
        },
        {
          "duration": 0.33333333333337123,
          "durationTicks": 400,
          "midi": 43,
          "name": "G2",
          "ticks": 311040,
          "time": 259.2,
          "velocity": 0.8267716535433071
        },
        {
          "duration": 0.33333333333337123,
          "durationTicks": 400,
          "midi": 43,
          "name": "G2",
          "ticks": 312000,
          "time": 260,
          "velocity": 0.8267716535433071
        },
        {
          "duration": 0.33333333333337123,
          "durationTicks": 400,
          "midi": 43,
          "name": "G2",
          "ticks": 312960,
          "time": 260.8,
          "velocity": 0.8267716535433071
        },
        {
          "duration": 0.3333333333333144,
          "durationTicks": 400,
          "midi": 43,
          "name": "G2",
          "ticks": 314880,
          "time": 262.40000000000003,
          "velocity": 0.8267716535433071
        },
        {
          "duration": 0.33333333333337123,
          "durationTicks": 400,
          "midi": 43,
          "name": "G2",
          "ticks": 316800,
          "time": 264,
          "velocity": 0.8267716535433071
        },
        {
          "duration": 0.7000000000000455,
          "durationTicks": 840,
          "midi": 48,
          "name": "C3",
          "ticks": 384000,
          "time": 320,
          "velocity": 0.8267716535433071
        },
        {
          "duration": 0.5333333333333599,
          "durationTicks": 640,
          "midi": 48,
          "name": "C3",
          "ticks": 384960,
          "time": 320.8,
          "velocity": 0.8267716535433071
        },
        {
          "duration": 0.19666666666665833,
          "durationTicks": 236,
          "midi": 48,
          "name": "C3",
          "ticks": 385680,
          "time": 321.40000000000003,
          "velocity": 0.8267716535433071
        },
        {
          "duration": 0.33333333333337123,
          "durationTicks": 400,
          "midi": 48,
          "name": "C3",
          "ticks": 385920,
          "time": 321.6,
          "velocity": 0.8267716535433071
        },
        {
          "duration": 0.33333333333337123,
          "durationTicks": 400,
          "midi": 48,
          "name": "C3",
          "ticks": 386400,
          "time": 322,
          "velocity": 0.8267716535433071
        },
        {
          "duration": 0.3333333333333144,
          "durationTicks": 400,
          "midi": 48,
          "name": "C3",
          "ticks": 386880,
          "time": 322.40000000000003,
          "velocity": 0.8267716535433071
        },
        {
          "duration": 0.33333333333337123,
          "durationTicks": 400,
          "midi": 48,
          "name": "C3",
          "ticks": 387360,
          "time": 322.8,
          "velocity": 0.8267716535433071
        },
        {
          "duration": 0.046666666666624224,
          "durationTicks": 56,
          "midi": 50,
          "name": "D3",
          "ticks": 387840,
          "time": 323.20000000000005,
          "velocity": 0.8267716535433071
        },
        {
          "duration": 0.04666666666668107,
          "durationTicks": 56,
          "midi": 48,
          "name": "C3",
          "ticks": 387900,
          "time": 323.25,
          "velocity": 0.8267716535433071
        },
        {
          "duration": 0.04666666666668107,
          "durationTicks": 56,
          "midi": 50,
          "name": "D3",
          "ticks": 387960,
          "time": 323.3,
          "velocity": 0.8267716535433071
        },
        {
          "duration": 0.04666666666668107,
          "durationTicks": 56,
          "midi": 48,
          "name": "C3",
          "ticks": 388020,
          "time": 323.35,
          "velocity": 0.8267716535433071
        },
        {
          "duration": 0.04666666666668107,
          "durationTicks": 56,
          "midi": 50,
          "name": "D3",
          "ticks": 388080,
          "time": 323.40000000000003,
          "velocity": 0.8267716535433071
        },
        {
          "duration": 0.046666666666624224,
          "durationTicks": 56,
          "midi": 48,
          "name": "C3",
          "ticks": 388140,
          "time": 323.45000000000005,
          "velocity": 0.8267716535433071
        },
        {
          "duration": 0.04666666666668107,
          "durationTicks": 56,
          "midi": 50,
          "name": "D3",
          "ticks": 388200,
          "time": 323.5,
          "velocity": 0.8267716535433071
        },
        {
          "duration": 0.04666666666668107,
          "durationTicks": 56,
          "midi": 48,
          "name": "C3",
          "ticks": 388260,
          "time": 323.55,
          "velocity": 0.8267716535433071
        },
        {
          "duration": 0.04666666666668107,
          "durationTicks": 56,
          "midi": 50,
          "name": "D3",
          "ticks": 388320,
          "time": 323.6,
          "velocity": 0.8267716535433071
        },
        {
          "duration": 0.04666666666668107,
          "durationTicks": 56,
          "midi": 48,
          "name": "C3",
          "ticks": 388380,
          "time": 323.65000000000003,
          "velocity": 0.8267716535433071
        },
        {
          "duration": 0.046666666666624224,
          "durationTicks": 56,
          "midi": 50,
          "name": "D3",
          "ticks": 388440,
          "time": 323.70000000000005,
          "velocity": 0.8267716535433071
        },
        {
          "duration": 0.04666666666668107,
          "durationTicks": 56,
          "midi": 48,
          "name": "C3",
          "ticks": 388500,
          "time": 323.75,
          "velocity": 0.8267716535433071
        },
        {
          "duration": 0.04666666666668107,
          "durationTicks": 56,
          "midi": 50,
          "name": "D3",
          "ticks": 388560,
          "time": 323.8,
          "velocity": 0.8267716535433071
        },
        {
          "duration": 0.04666666666668107,
          "durationTicks": 56,
          "midi": 48,
          "name": "C3",
          "ticks": 388620,
          "time": 323.85,
          "velocity": 0.8267716535433071
        },
        {
          "duration": 0.04666666666668107,
          "durationTicks": 56,
          "midi": 50,
          "name": "D3",
          "ticks": 388680,
          "time": 323.90000000000003,
          "velocity": 0.8267716535433071
        },
        {
          "duration": 0.046666666666624224,
          "durationTicks": 56,
          "midi": 48,
          "name": "C3",
          "ticks": 388740,
          "time": 323.95000000000005,
          "velocity": 0.8267716535433071
        },
        {
          "duration": 0.04666666666668107,
          "durationTicks": 56,
          "midi": 50,
          "name": "D3",
          "ticks": 388800,
          "time": 324,
          "velocity": 0.8267716535433071
        },
        {
          "duration": 0.04666666666668107,
          "durationTicks": 56,
          "midi": 48,
          "name": "C3",
          "ticks": 388860,
          "time": 324.05,
          "velocity": 0.8267716535433071
        },
        {
          "duration": 0.04666666666668107,
          "durationTicks": 56,
          "midi": 50,
          "name": "D3",
          "ticks": 388920,
          "time": 324.1,
          "velocity": 0.8267716535433071
        },
        {
          "duration": 0.04666666666668107,
          "durationTicks": 56,
          "midi": 48,
          "name": "C3",
          "ticks": 388980,
          "time": 324.15000000000003,
          "velocity": 0.8267716535433071
        },
        {
          "duration": 0.046666666666624224,
          "durationTicks": 56,
          "midi": 50,
          "name": "D3",
          "ticks": 389040,
          "time": 324.20000000000005,
          "velocity": 0.8267716535433071
        },
        {
          "duration": 0.04666666666668107,
          "durationTicks": 56,
          "midi": 48,
          "name": "C3",
          "ticks": 389100,
          "time": 324.25,
          "velocity": 0.8267716535433071
        },
        {
          "duration": 0.04666666666668107,
          "durationTicks": 56,
          "midi": 50,
          "name": "D3",
          "ticks": 389160,
          "time": 324.3,
          "velocity": 0.8267716535433071
        },
        {
          "duration": 0.04666666666668107,
          "durationTicks": 56,
          "midi": 48,
          "name": "C3",
          "ticks": 389220,
          "time": 324.35,
          "velocity": 0.8267716535433071
        },
        {
          "duration": 0.04666666666668107,
          "durationTicks": 56,
          "midi": 50,
          "name": "D3",
          "ticks": 389280,
          "time": 324.40000000000003,
          "velocity": 0.8267716535433071
        },
        {
          "duration": 0.046666666666624224,
          "durationTicks": 56,
          "midi": 48,
          "name": "C3",
          "ticks": 389340,
          "time": 324.45000000000005,
          "velocity": 0.8267716535433071
        },
        {
          "duration": 0.04666666666668107,
          "durationTicks": 56,
          "midi": 50,
          "name": "D3",
          "ticks": 389400,
          "time": 324.5,
          "velocity": 0.8267716535433071
        },
        {
          "duration": 0.04666666666668107,
          "durationTicks": 56,
          "midi": 48,
          "name": "C3",
          "ticks": 389460,
          "time": 324.55,
          "velocity": 0.8267716535433071
        },
        {
          "duration": 0.04666666666668107,
          "durationTicks": 56,
          "midi": 50,
          "name": "D3",
          "ticks": 389520,
          "time": 324.6,
          "velocity": 0.8267716535433071
        },
        {
          "duration": 0.04666666666668107,
          "durationTicks": 56,
          "midi": 48,
          "name": "C3",
          "ticks": 389580,
          "time": 324.65000000000003,
          "velocity": 0.8267716535433071
        },
        {
          "duration": 0.046666666666624224,
          "durationTicks": 56,
          "midi": 50,
          "name": "D3",
          "ticks": 389640,
          "time": 324.70000000000005,
          "velocity": 0.8267716535433071
        },
        {
          "duration": 0.04666666666668107,
          "durationTicks": 56,
          "midi": 48,
          "name": "C3",
          "ticks": 389700,
          "time": 324.75,
          "velocity": 0.8267716535433071
        },
        {
          "duration": 0.04666666666668107,
          "durationTicks": 56,
          "midi": 50,
          "name": "D3",
          "ticks": 389760,
          "time": 324.8,
          "velocity": 0.8267716535433071
        },
        {
          "duration": 0.04666666666668107,
          "durationTicks": 56,
          "midi": 48,
          "name": "C3",
          "ticks": 389820,
          "time": 324.85,
          "velocity": 0.8267716535433071
        },
        {
          "duration": 0.04666666666668107,
          "durationTicks": 56,
          "midi": 50,
          "name": "D3",
          "ticks": 389880,
          "time": 324.90000000000003,
          "velocity": 0.8267716535433071
        },
        {
          "duration": 0.046666666666624224,
          "durationTicks": 56,
          "midi": 48,
          "name": "C3",
          "ticks": 389940,
          "time": 324.95000000000005,
          "velocity": 0.8267716535433071
        },
        {
          "duration": 0.04666666666668107,
          "durationTicks": 56,
          "midi": 50,
          "name": "D3",
          "ticks": 390000,
          "time": 325,
          "velocity": 0.8267716535433071
        },
        {
          "duration": 0.04666666666668107,
          "durationTicks": 56,
          "midi": 48,
          "name": "C3",
          "ticks": 390060,
          "time": 325.05,
          "velocity": 0.8267716535433071
        },
        {
          "duration": 0.04666666666668107,
          "durationTicks": 56,
          "midi": 50,
          "name": "D3",
          "ticks": 390120,
          "time": 325.1,
          "velocity": 0.8267716535433071
        },
        {
          "duration": 0.04666666666668107,
          "durationTicks": 56,
          "midi": 48,
          "name": "C3",
          "ticks": 390180,
          "time": 325.15000000000003,
          "velocity": 0.8267716535433071
        },
        {
          "duration": 0.046666666666624224,
          "durationTicks": 56,
          "midi": 50,
          "name": "D3",
          "ticks": 390240,
          "time": 325.20000000000005,
          "velocity": 0.8267716535433071
        },
        {
          "duration": 0.04666666666668107,
          "durationTicks": 56,
          "midi": 48,
          "name": "C3",
          "ticks": 390300,
          "time": 325.25,
          "velocity": 0.8267716535433071
        },
        {
          "duration": 0.04666666666668107,
          "durationTicks": 56,
          "midi": 50,
          "name": "D3",
          "ticks": 390360,
          "time": 325.3,
          "velocity": 0.8267716535433071
        },
        {
          "duration": 0.04666666666668107,
          "durationTicks": 56,
          "midi": 48,
          "name": "C3",
          "ticks": 390420,
          "time": 325.35,
          "velocity": 0.8267716535433071
        },
        {
          "duration": 0.04666666666668107,
          "durationTicks": 56,
          "midi": 50,
          "name": "D3",
          "ticks": 390480,
          "time": 325.40000000000003,
          "velocity": 0.8267716535433071
        },
        {
          "duration": 0.046666666666624224,
          "durationTicks": 56,
          "midi": 48,
          "name": "C3",
          "ticks": 390540,
          "time": 325.45000000000005,
          "velocity": 0.8267716535433071
        },
        {
          "duration": 0.04666666666668107,
          "durationTicks": 56,
          "midi": 50,
          "name": "D3",
          "ticks": 390600,
          "time": 325.5,
          "velocity": 0.8267716535433071
        },
        {
          "duration": 0.04666666666668107,
          "durationTicks": 56,
          "midi": 48,
          "name": "C3",
          "ticks": 390660,
          "time": 325.55,
          "velocity": 0.8267716535433071
        },
        {
          "duration": 0.04666666666668107,
          "durationTicks": 56,
          "midi": 50,
          "name": "D3",
          "ticks": 390720,
          "time": 325.6,
          "velocity": 0.8267716535433071
        },
        {
          "duration": 0.04666666666668107,
          "durationTicks": 56,
          "midi": 48,
          "name": "C3",
          "ticks": 390780,
          "time": 325.65000000000003,
          "velocity": 0.8267716535433071
        },
        {
          "duration": 0.046666666666624224,
          "durationTicks": 56,
          "midi": 50,
          "name": "D3",
          "ticks": 390840,
          "time": 325.70000000000005,
          "velocity": 0.8267716535433071
        },
        {
          "duration": 0.04666666666668107,
          "durationTicks": 56,
          "midi": 48,
          "name": "C3",
          "ticks": 390900,
          "time": 325.75,
          "velocity": 0.8267716535433071
        },
        {
          "duration": 0.04666666666668107,
          "durationTicks": 56,
          "midi": 50,
          "name": "D3",
          "ticks": 390960,
          "time": 325.8,
          "velocity": 0.8267716535433071
        },
        {
          "duration": 0.04666666666668107,
          "durationTicks": 56,
          "midi": 48,
          "name": "C3",
          "ticks": 391020,
          "time": 325.85,
          "velocity": 0.8267716535433071
        },
        {
          "duration": 0.04666666666668107,
          "durationTicks": 56,
          "midi": 50,
          "name": "D3",
          "ticks": 391080,
          "time": 325.90000000000003,
          "velocity": 0.8267716535433071
        },
        {
          "duration": 0.046666666666624224,
          "durationTicks": 56,
          "midi": 48,
          "name": "C3",
          "ticks": 391140,
          "time": 325.95000000000005,
          "velocity": 0.8267716535433071
        },
        {
          "duration": 0.04666666666668107,
          "durationTicks": 56,
          "midi": 50,
          "name": "D3",
          "ticks": 391200,
          "time": 326,
          "velocity": 0.8267716535433071
        },
        {
          "duration": 0.04666666666668107,
          "durationTicks": 56,
          "midi": 48,
          "name": "C3",
          "ticks": 391260,
          "time": 326.05,
          "velocity": 0.8267716535433071
        },
        {
          "duration": 0.04666666666668107,
          "durationTicks": 56,
          "midi": 50,
          "name": "D3",
          "ticks": 391320,
          "time": 326.1,
          "velocity": 0.8267716535433071
        },
        {
          "duration": 0.04666666666668107,
          "durationTicks": 56,
          "midi": 48,
          "name": "C3",
          "ticks": 391380,
          "time": 326.15000000000003,
          "velocity": 0.8267716535433071
        },
        {
          "duration": 0.046666666666624224,
          "durationTicks": 56,
          "midi": 50,
          "name": "D3",
          "ticks": 391440,
          "time": 326.20000000000005,
          "velocity": 0.8267716535433071
        },
        {
          "duration": 0.04666666666668107,
          "durationTicks": 56,
          "midi": 48,
          "name": "C3",
          "ticks": 391500,
          "time": 326.25,
          "velocity": 0.8267716535433071
        },
        {
          "duration": 0.04666666666668107,
          "durationTicks": 56,
          "midi": 50,
          "name": "D3",
          "ticks": 391560,
          "time": 326.3,
          "velocity": 0.8267716535433071
        },
        {
          "duration": 0.04666666666668107,
          "durationTicks": 56,
          "midi": 48,
          "name": "C3",
          "ticks": 391620,
          "time": 326.35,
          "velocity": 0.8267716535433071
        },
        {
          "duration": 0.3333333333333144,
          "durationTicks": 400,
          "midi": 48,
          "name": "C3",
          "ticks": 391680,
          "time": 326.40000000000003,
          "velocity": 0.8267716535433071
        },
        {
          "duration": 0.33333333333337123,
          "durationTicks": 400,
          "midi": 48,
          "name": "C3",
          "ticks": 392160,
          "time": 326.8,
          "velocity": 0.8267716535433071
        },
        {
          "duration": 0.3333333333333144,
          "durationTicks": 400,
          "midi": 48,
          "name": "C3",
          "ticks": 392640,
          "time": 327.20000000000005,
          "velocity": 0.8267716535433071
        },
        {
          "duration": 0.33333333333337123,
          "durationTicks": 400,
          "midi": 48,
          "name": "C3",
          "ticks": 393120,
          "time": 327.6,
          "velocity": 0.8267716535433071
        },
        {
          "duration": 0.33333333333337123,
          "durationTicks": 400,
          "midi": 48,
          "name": "C3",
          "ticks": 393600,
          "time": 328,
          "velocity": 0.8267716535433071
        },
        {
          "duration": 0.3333333333333144,
          "durationTicks": 400,
          "midi": 48,
          "name": "C3",
          "ticks": 394080,
          "time": 328.40000000000003,
          "velocity": 0.8267716535433071
        },
        {
          "duration": 0.33333333333337123,
          "durationTicks": 400,
          "midi": 48,
          "name": "C3",
          "ticks": 394560,
          "time": 328.8,
          "velocity": 0.8267716535433071
        },
        {
          "duration": 0.33333333333337123,
          "durationTicks": 400,
          "midi": 43,
          "name": "G2",
          "ticks": 399360,
          "time": 332.8,
          "velocity": 0.8267716535433071
        },
        {
          "duration": 0.3333333333333144,
          "durationTicks": 400,
          "midi": 43,
          "name": "G2",
          "ticks": 401280,
          "time": 334.40000000000003,
          "velocity": 0.8267716535433071
        },
        {
          "duration": 0.33333333333337123,
          "durationTicks": 400,
          "midi": 43,
          "name": "G2",
          "ticks": 403200,
          "time": 336,
          "velocity": 0.8267716535433071
        },
        {
          "duration": 0.33333333333337123,
          "durationTicks": 400,
          "midi": 43,
          "name": "G2",
          "ticks": 405120,
          "time": 337.6,
          "velocity": 0.6771653543307087
        },
        {
          "duration": 0.3333333333333144,
          "durationTicks": 400,
          "midi": 43,
          "name": "G2",
          "ticks": 406080,
          "time": 338.40000000000003,
          "velocity": 0.6771653543307087
        },
        {
          "duration": 0.33333333333337123,
          "durationTicks": 400,
          "midi": 43,
          "name": "G2",
          "ticks": 408960,
          "time": 340.8,
          "velocity": 0.6771653543307087
        },
        {
          "duration": 0.3333333333333144,
          "durationTicks": 400,
          "midi": 43,
          "name": "G2",
          "ticks": 410880,
          "time": 342.40000000000003,
          "velocity": 0.6771653543307087
        },
        {
          "duration": 0.33333333333337123,
          "durationTicks": 400,
          "midi": 43,
          "name": "G2",
          "ticks": 412800,
          "time": 344,
          "velocity": 0.6771653543307087
        },
        {
          "duration": 0.33333333333337123,
          "durationTicks": 400,
          "midi": 43,
          "name": "G2",
          "ticks": 453120,
          "time": 377.6,
          "velocity": 0.6771653543307087
        },
        {
          "duration": 0.3333333333333144,
          "durationTicks": 400,
          "midi": 43,
          "name": "G2",
          "ticks": 455040,
          "time": 379.20000000000005,
          "velocity": 0.6771653543307087
        },
        {
          "duration": 0.33333333333337123,
          "durationTicks": 400,
          "midi": 43,
          "name": "G2",
          "ticks": 456960,
          "time": 380.8,
          "velocity": 0.6771653543307087
        },
        {
          "duration": 0.3333333333333144,
          "durationTicks": 400,
          "midi": 43,
          "name": "G2",
          "ticks": 458880,
          "time": 382.40000000000003,
          "velocity": 0.6771653543307087
        },
        {
          "duration": 0.33333333333337123,
          "durationTicks": 400,
          "midi": 43,
          "name": "G2",
          "ticks": 459360,
          "time": 382.8,
          "velocity": 0.6771653543307087
        },
        {
          "duration": 0.3333333333333144,
          "durationTicks": 400,
          "midi": 43,
          "name": "G2",
          "ticks": 459840,
          "time": 383.20000000000005,
          "velocity": 0.6771653543307087
        },
        {
          "duration": 0.3333333333333144,
          "durationTicks": 400,
          "midi": 48,
          "name": "C3",
          "ticks": 556800,
          "time": 464,
          "velocity": 0.8267716535433071
        },
        {
          "duration": 0.3333333333333144,
          "durationTicks": 400,
          "midi": 48,
          "name": "C3",
          "ticks": 568320,
          "time": 473.6,
          "velocity": 0.8267716535433071
        },
        {
          "duration": 0.33333333333325754,
          "durationTicks": 400,
          "midi": 48,
          "name": "C3",
          "ticks": 570240,
          "time": 475.20000000000005,
          "velocity": 0.8267716535433071
        },
        {
          "duration": 0.3333333333333144,
          "durationTicks": 400,
          "midi": 43,
          "name": "G2",
          "ticks": 572160,
          "time": 476.8,
          "velocity": 0.8267716535433071
        },
        {
          "duration": 0.3333333333333144,
          "durationTicks": 400,
          "midi": 43,
          "name": "G2",
          "ticks": 574080,
          "time": 478.40000000000003,
          "velocity": 0.8267716535433071
        },
        {
          "duration": 0.3333333333333144,
          "durationTicks": 400,
          "midi": 43,
          "name": "G2",
          "ticks": 576000,
          "time": 480,
          "velocity": 0.8267716535433071
        },
        {
          "duration": 0.3333333333333144,
          "durationTicks": 400,
          "midi": 43,
          "name": "G2",
          "ticks": 583680,
          "time": 486.40000000000003,
          "velocity": 0.8267716535433071
        },
        {
          "duration": 0.3333333333333144,
          "durationTicks": 400,
          "midi": 43,
          "name": "G2",
          "ticks": 585600,
          "time": 488,
          "velocity": 0.8267716535433071
        },
        {
          "duration": 0.3333333333333144,
          "durationTicks": 400,
          "midi": 43,
          "name": "G2",
          "ticks": 587520,
          "time": 489.6,
          "velocity": 0.8267716535433071
        },
        {
          "duration": 0.33333333333325754,
          "durationTicks": 400,
          "midi": 43,
          "name": "G2",
          "ticks": 589440,
          "time": 491.20000000000005,
          "velocity": 0.8267716535433071
        },
        {
          "duration": 0.3333333333333144,
          "durationTicks": 400,
          "midi": 43,
          "name": "G2",
          "ticks": 590400,
          "time": 492,
          "velocity": 0.8267716535433071
        },
        {
          "duration": 0.3333333333333144,
          "durationTicks": 400,
          "midi": 48,
          "name": "C3",
          "ticks": 591360,
          "time": 492.8,
          "velocity": 0.8267716535433071
        },
        {
          "duration": 0.3333333333333144,
          "durationTicks": 400,
          "midi": 48,
          "name": "C3",
          "ticks": 592320,
          "time": 493.6,
          "velocity": 0.8267716535433071
        },
        {
          "duration": 0.3333333333333144,
          "durationTicks": 400,
          "midi": 48,
          "name": "C3",
          "ticks": 593280,
          "time": 494.40000000000003,
          "velocity": 0.8267716535433071
        },
        {
          "duration": 0.33333333333325754,
          "durationTicks": 400,
          "midi": 43,
          "name": "G2",
          "ticks": 599040,
          "time": 499.20000000000005,
          "velocity": 0.8267716535433071
        },
        {
          "duration": 0.3333333333333144,
          "durationTicks": 400,
          "midi": 43,
          "name": "G2",
          "ticks": 600000,
          "time": 500,
          "velocity": 0.8267716535433071
        },
        {
          "duration": 0.3333333333333144,
          "durationTicks": 400,
          "midi": 43,
          "name": "G2",
          "ticks": 600960,
          "time": 500.8,
          "velocity": 0.8267716535433071
        },
        {
          "duration": 0.2966666666666242,
          "durationTicks": 356,
          "midi": 48,
          "name": "C3",
          "ticks": 607200,
          "time": 506,
          "velocity": 0.8267716535433071
        },
        {
          "duration": 0.09666666666663559,
          "durationTicks": 116,
          "midi": 48,
          "name": "C3",
          "ticks": 607560,
          "time": 506.3,
          "velocity": 0.8267716535433071
        },
        {
          "duration": 0.3333333333333144,
          "durationTicks": 400,
          "midi": 48,
          "name": "C3",
          "ticks": 607680,
          "time": 506.40000000000003,
          "velocity": 0.8267716535433071
        },
        {
          "duration": 0.2966666666666242,
          "durationTicks": 356,
          "midi": 48,
          "name": "C3",
          "ticks": 609120,
          "time": 507.6,
          "velocity": 0.8267716535433071
        },
        {
          "duration": 0.09666666666663559,
          "durationTicks": 116,
          "midi": 48,
          "name": "C3",
          "ticks": 609480,
          "time": 507.90000000000003,
          "velocity": 0.8267716535433071
        },
        {
          "duration": 0.3333333333333144,
          "durationTicks": 400,
          "midi": 48,
          "name": "C3",
          "ticks": 609600,
          "time": 508,
          "velocity": 0.8267716535433071
        },
        {
          "duration": 0.2966666666666242,
          "durationTicks": 356,
          "midi": 48,
          "name": "C3",
          "ticks": 611040,
          "time": 509.20000000000005,
          "velocity": 0.8267716535433071
        },
        {
          "duration": 0.09666666666663559,
          "durationTicks": 116,
          "midi": 48,
          "name": "C3",
          "ticks": 611400,
          "time": 509.5,
          "velocity": 0.8267716535433071
        },
        {
          "duration": 0.3333333333333144,
          "durationTicks": 400,
          "midi": 48,
          "name": "C3",
          "ticks": 611520,
          "time": 509.6,
          "velocity": 0.8267716535433071
        },
        {
          "duration": 0.2966666666666242,
          "durationTicks": 356,
          "midi": 48,
          "name": "C3",
          "ticks": 612960,
          "time": 510.8,
          "velocity": 0.8267716535433071
        },
        {
          "duration": 0.09666666666663559,
          "durationTicks": 116,
          "midi": 48,
          "name": "C3",
          "ticks": 613320,
          "time": 511.1,
          "velocity": 0.8267716535433071
        },
        {
          "duration": 0.33333333333325754,
          "durationTicks": 400,
          "midi": 48,
          "name": "C3",
          "ticks": 613440,
          "time": 511.20000000000005,
          "velocity": 0.8267716535433071
        },
        {
          "duration": 0.2966666666666242,
          "durationTicks": 356,
          "midi": 48,
          "name": "C3",
          "ticks": 614880,
          "time": 512.4,
          "velocity": 0.8267716535433071
        },
        {
          "duration": 0.09666666666657875,
          "durationTicks": 116,
          "midi": 48,
          "name": "C3",
          "ticks": 615240,
          "time": 512.7,
          "velocity": 0.8267716535433071
        },
        {
          "duration": 0.33333333333325754,
          "durationTicks": 400,
          "midi": 48,
          "name": "C3",
          "ticks": 615360,
          "time": 512.8000000000001,
          "velocity": 0.8267716535433071
        },
        {
          "duration": 0.2966666666666242,
          "durationTicks": 356,
          "midi": 48,
          "name": "C3",
          "ticks": 616800,
          "time": 514,
          "velocity": 0.8267716535433071
        },
        {
          "duration": 0.09666666666657875,
          "durationTicks": 116,
          "midi": 48,
          "name": "C3",
          "ticks": 617160,
          "time": 514.3000000000001,
          "velocity": 0.8267716535433071
        },
        {
          "duration": 0.33333333333337123,
          "durationTicks": 400,
          "midi": 48,
          "name": "C3",
          "ticks": 617280,
          "time": 514.4,
          "velocity": 0.8267716535433071
        },
        {
          "duration": 0.33333333333325754,
          "durationTicks": 400,
          "midi": 48,
          "name": "C3",
          "ticks": 618240,
          "time": 515.2,
          "velocity": 0.8267716535433071
        },
        {
          "duration": 0.33333333333337123,
          "durationTicks": 400,
          "midi": 43,
          "name": "G2",
          "ticks": 619200,
          "time": 516,
          "velocity": 0.8267716535433071
        },
        {
          "duration": 0.33333333333325754,
          "durationTicks": 400,
          "midi": 48,
          "name": "C3",
          "ticks": 620160,
          "time": 516.8000000000001,
          "velocity": 0.8267716535433071
        },
        {
          "duration": 0.33333333333325754,
          "durationTicks": 400,
          "midi": 43,
          "name": "G2",
          "ticks": 621120,
          "time": 517.6,
          "velocity": 0.8267716535433071
        },
        {
          "duration": 0.33333333333337123,
          "durationTicks": 400,
          "midi": 48,
          "name": "C3",
          "ticks": 622080,
          "time": 518.4,
          "velocity": 0.8267716535433071
        },
        {
          "duration": 0.33333333333325754,
          "durationTicks": 400,
          "midi": 43,
          "name": "G2",
          "ticks": 622560,
          "time": 518.8000000000001,
          "velocity": 0.8267716535433071
        },
        {
          "duration": 0.33333333333325754,
          "durationTicks": 400,
          "midi": 48,
          "name": "C3",
          "ticks": 623040,
          "time": 519.2,
          "velocity": 0.8267716535433071
        },
        {
          "duration": 0.33333333333325754,
          "durationTicks": 400,
          "midi": 43,
          "name": "G2",
          "ticks": 623520,
          "time": 519.6,
          "velocity": 0.8267716535433071
        },
        {
          "duration": 0.33333333333337123,
          "durationTicks": 400,
          "midi": 48,
          "name": "C3",
          "ticks": 624000,
          "time": 520,
          "velocity": 0.8267716535433071
        },
        {
          "duration": 0.19666666666671517,
          "durationTicks": 236,
          "midi": 48,
          "name": "C3",
          "ticks": 624480,
          "time": 520.4,
          "velocity": 0.8267716535433071
        },
        {
          "duration": 0.1966666666666015,
          "durationTicks": 236,
          "midi": 48,
          "name": "C3",
          "ticks": 624720,
          "time": 520.6,
          "velocity": 0.8267716535433071
        },
        {
          "duration": 0.33333333333325754,
          "durationTicks": 400,
          "midi": 48,
          "name": "C3",
          "ticks": 624960,
          "time": 520.8000000000001,
          "velocity": 0.8267716535433071
        },
        {
          "duration": 0.33333333333325754,
          "durationTicks": 400,
          "midi": 48,
          "name": "C3",
          "ticks": 625440,
          "time": 521.2,
          "velocity": 0.8267716535433071
        },
        {
          "duration": 0.33333333333325754,
          "durationTicks": 400,
          "midi": 43,
          "name": "G2",
          "ticks": 625920,
          "time": 521.6,
          "velocity": 0.8267716535433071
        },
        {
          "duration": 0.33333333333337123,
          "durationTicks": 400,
          "midi": 48,
          "name": "C3",
          "ticks": 626880,
          "time": 522.4,
          "velocity": 0.8267716535433071
        },
        {
          "duration": 0.33333333333325754,
          "durationTicks": 400,
          "midi": 43,
          "name": "G2",
          "ticks": 627840,
          "time": 523.2,
          "velocity": 0.8267716535433071
        },
        {
          "duration": 0.33333333333337123,
          "durationTicks": 400,
          "midi": 48,
          "name": "C3",
          "ticks": 628800,
          "time": 524,
          "velocity": 0.8267716535433071
        },
        {
          "duration": 0.33333333333325754,
          "durationTicks": 400,
          "midi": 43,
          "name": "G2",
          "ticks": 629760,
          "time": 524.8000000000001,
          "velocity": 0.8267716535433071
        },
        {
          "duration": 0.33333333333325754,
          "durationTicks": 400,
          "midi": 43,
          "name": "G2",
          "ticks": 630240,
          "time": 525.2,
          "velocity": 0.8503937007874016
        },
        {
          "duration": 0.33333333333325754,
          "durationTicks": 400,
          "midi": 43,
          "name": "G2",
          "ticks": 630720,
          "time": 525.6,
          "velocity": 0.8661417322834646
        },
        {
          "duration": 0.33333333333337123,
          "durationTicks": 400,
          "midi": 43,
          "name": "G2",
          "ticks": 631200,
          "time": 526,
          "velocity": 0.8818897637795275
        },
        {
          "duration": 0.33333333333337123,
          "durationTicks": 400,
          "midi": 43,
          "name": "G2",
          "ticks": 631680,
          "time": 526.4,
          "velocity": 0.905511811023622
        },
        {
          "duration": 0.33333333333325754,
          "durationTicks": 400,
          "midi": 43,
          "name": "G2",
          "ticks": 632640,
          "time": 527.2,
          "velocity": 0.937007874015748
        },
        {
          "duration": 0.33333333333325754,
          "durationTicks": 400,
          "midi": 43,
          "name": "G2",
          "ticks": 633120,
          "time": 527.6,
          "velocity": 0.952755905511811
        },
        {
          "duration": 1.5,
          "durationTicks": 1800,
          "midi": 43,
          "name": "G2",
          "ticks": 633600,
          "time": 528,
          "velocity": 0.9763779527559056
        },
        {
          "duration": 0.33333333333337123,
          "durationTicks": 400,
          "midi": 43,
          "name": "G2",
          "ticks": 660480,
          "time": 550.4,
          "velocity": 0.8267716535433071
        },
        {
          "duration": 0.33333333333325754,
          "durationTicks": 400,
          "midi": 43,
          "name": "G2",
          "ticks": 661440,
          "time": 551.2,
          "velocity": 0.8267716535433071
        },
        {
          "duration": 0.33333333333337123,
          "durationTicks": 400,
          "midi": 43,
          "name": "G2",
          "ticks": 662400,
          "time": 552,
          "velocity": 0.8267716535433071
        },
        {
          "duration": 0.33333333333325754,
          "durationTicks": 400,
          "midi": 43,
          "name": "G2",
          "ticks": 664320,
          "time": 553.6,
          "velocity": 0.8267716535433071
        },
        {
          "duration": 0.33333333333337123,
          "durationTicks": 400,
          "midi": 43,
          "name": "G2",
          "ticks": 665280,
          "time": 554.4,
          "velocity": 0.8267716535433071
        },
        {
          "duration": 0.33333333333325754,
          "durationTicks": 400,
          "midi": 43,
          "name": "G2",
          "ticks": 666240,
          "time": 555.2,
          "velocity": 0.8267716535433071
        },
        {
          "duration": 0.33333333333325754,
          "durationTicks": 400,
          "midi": 43,
          "name": "G2",
          "ticks": 668160,
          "time": 556.8000000000001,
          "velocity": 0.8267716535433071
        },
        {
          "duration": 0.33333333333325754,
          "durationTicks": 400,
          "midi": 43,
          "name": "G2",
          "ticks": 669120,
          "time": 557.6,
          "velocity": 0.8267716535433071
        },
        {
          "duration": 0.33333333333337123,
          "durationTicks": 400,
          "midi": 43,
          "name": "G2",
          "ticks": 670080,
          "time": 558.4,
          "velocity": 0.8267716535433071
        },
        {
          "duration": 0.33333333333337123,
          "durationTicks": 400,
          "midi": 43,
          "name": "G2",
          "ticks": 672000,
          "time": 560,
          "velocity": 0.8267716535433071
        },
        {
          "duration": 0.33333333333325754,
          "durationTicks": 400,
          "midi": 43,
          "name": "G2",
          "ticks": 672960,
          "time": 560.8000000000001,
          "velocity": 0.8267716535433071
        },
        {
          "duration": 0.33333333333325754,
          "durationTicks": 400,
          "midi": 43,
          "name": "G2",
          "ticks": 673920,
          "time": 561.6,
          "velocity": 0.8267716535433071
        },
        {
          "duration": 0.33333333333325754,
          "durationTicks": 400,
          "midi": 43,
          "name": "G2",
          "ticks": 675840,
          "time": 563.2,
          "velocity": 0.8267716535433071
        },
        {
          "duration": 0.33333333333325754,
          "durationTicks": 400,
          "midi": 43,
          "name": "G2",
          "ticks": 677760,
          "time": 564.8000000000001,
          "velocity": 0.8267716535433071
        },
        {
          "duration": 0.33333333333337123,
          "durationTicks": 400,
          "midi": 48,
          "name": "C3",
          "ticks": 679680,
          "time": 566.4,
          "velocity": 0.8267716535433071
        },
        {
          "duration": 0.33333333333325754,
          "durationTicks": 400,
          "midi": 43,
          "name": "G2",
          "ticks": 680160,
          "time": 566.8000000000001,
          "velocity": 0.8267716535433071
        },
        {
          "duration": 0.33333333333325754,
          "durationTicks": 400,
          "midi": 48,
          "name": "C3",
          "ticks": 680640,
          "time": 567.2,
          "velocity": 0.8267716535433071
        },
        {
          "duration": 0.33333333333325754,
          "durationTicks": 400,
          "midi": 43,
          "name": "G2",
          "ticks": 681120,
          "time": 567.6,
          "velocity": 0.8267716535433071
        },
        {
          "duration": 0.33333333333337123,
          "durationTicks": 400,
          "midi": 48,
          "name": "C3",
          "ticks": 681600,
          "time": 568,
          "velocity": 0.8267716535433071
        },
        {
          "duration": 0.19666666666671517,
          "durationTicks": 236,
          "midi": 48,
          "name": "C3",
          "ticks": 682080,
          "time": 568.4,
          "velocity": 0.8267716535433071
        },
        {
          "duration": 0.1966666666666015,
          "durationTicks": 236,
          "midi": 48,
          "name": "C3",
          "ticks": 682320,
          "time": 568.6,
          "velocity": 0.8267716535433071
        },
        {
          "duration": 0.33333333333325754,
          "durationTicks": 400,
          "midi": 48,
          "name": "C3",
          "ticks": 682560,
          "time": 568.8000000000001,
          "velocity": 0.8267716535433071
        },
        {
          "duration": 0.33333333333325754,
          "durationTicks": 400,
          "midi": 48,
          "name": "C3",
          "ticks": 683040,
          "time": 569.2,
          "velocity": 0.8267716535433071
        },
        {
          "duration": 0.33333333333325754,
          "durationTicks": 400,
          "midi": 43,
          "name": "G2",
          "ticks": 683520,
          "time": 569.6,
          "velocity": 0.8267716535433071
        },
        {
          "duration": 0.33333333333325754,
          "durationTicks": 400,
          "midi": 43,
          "name": "G2",
          "ticks": 684960,
          "time": 570.8000000000001,
          "velocity": 0.8267716535433071
        },
        {
          "duration": 0.33333333333325754,
          "durationTicks": 400,
          "midi": 43,
          "name": "G2",
          "ticks": 685440,
          "time": 571.2,
          "velocity": 0.8267716535433071
        },
        {
          "duration": 0.33333333333337123,
          "durationTicks": 400,
          "midi": 43,
          "name": "G2",
          "ticks": 686880,
          "time": 572.4,
          "velocity": 0.8267716535433071
        },
        {
          "duration": 0.33333333333325754,
          "durationTicks": 400,
          "midi": 43,
          "name": "G2",
          "ticks": 687360,
          "time": 572.8000000000001,
          "velocity": 0.8267716535433071
        },
        {
          "duration": 0.33333333333337123,
          "durationTicks": 400,
          "midi": 43,
          "name": "G2",
          "ticks": 688800,
          "time": 574,
          "velocity": 0.8267716535433071
        },
        {
          "duration": 0.33333333333337123,
          "durationTicks": 400,
          "midi": 43,
          "name": "G2",
          "ticks": 689280,
          "time": 574.4,
          "velocity": 0.8267716535433071
        },
        {
          "duration": 0.33333333333325754,
          "durationTicks": 400,
          "midi": 43,
          "name": "G2",
          "ticks": 690720,
          "time": 575.6,
          "velocity": 0.8267716535433071
        },
        {
          "duration": 0.33333333333337123,
          "durationTicks": 400,
          "midi": 43,
          "name": "G2",
          "ticks": 691200,
          "time": 576,
          "velocity": 0.8267716535433071
        },
        {
          "duration": 0.33333333333325754,
          "durationTicks": 400,
          "midi": 43,
          "name": "G2",
          "ticks": 692640,
          "time": 577.2,
          "velocity": 0.8267716535433071
        },
        {
          "duration": 0.33333333333325754,
          "durationTicks": 400,
          "midi": 43,
          "name": "G2",
          "ticks": 693120,
          "time": 577.6,
          "velocity": 0.8267716535433071
        },
        {
          "duration": 0.33333333333337123,
          "durationTicks": 400,
          "midi": 43,
          "name": "G2",
          "ticks": 694080,
          "time": 578.4,
          "velocity": 0.8267716535433071
        },
        {
          "duration": 0.33333333333325754,
          "durationTicks": 400,
          "midi": 43,
          "name": "G2",
          "ticks": 695040,
          "time": 579.2,
          "velocity": 0.8267716535433071
        },
        {
          "duration": 0.6999999999999318,
          "durationTicks": 840,
          "midi": 48,
          "name": "C3",
          "ticks": 744960,
          "time": 620.8000000000001,
          "velocity": 0.8267716535433071
        },
        {
          "duration": 0.533333333333303,
          "durationTicks": 640,
          "midi": 48,
          "name": "C3",
          "ticks": 745920,
          "time": 621.6,
          "velocity": 0.8267716535433071
        },
        {
          "duration": 0.1966666666666015,
          "durationTicks": 236,
          "midi": 48,
          "name": "C3",
          "ticks": 746640,
          "time": 622.2,
          "velocity": 0.8267716535433071
        },
        {
          "duration": 0.33333333333325754,
          "durationTicks": 400,
          "midi": 48,
          "name": "C3",
          "ticks": 746880,
          "time": 622.4000000000001,
          "velocity": 0.8267716535433071
        },
        {
          "duration": 0.33333333333325754,
          "durationTicks": 400,
          "midi": 48,
          "name": "C3",
          "ticks": 747840,
          "time": 623.2,
          "velocity": 0.8267716535433071
        },
        {
          "duration": 0.7000000000000455,
          "durationTicks": 840,
          "midi": 43,
          "name": "G2",
          "ticks": 752640,
          "time": 627.2,
          "velocity": 0.8267716535433071
        },
        {
          "duration": 0.533333333333303,
          "durationTicks": 640,
          "midi": 43,
          "name": "G2",
          "ticks": 753600,
          "time": 628,
          "velocity": 0.8267716535433071
        },
        {
          "duration": 0.1966666666666015,
          "durationTicks": 236,
          "midi": 43,
          "name": "G2",
          "ticks": 754320,
          "time": 628.6,
          "velocity": 0.8267716535433071
        },
        {
          "duration": 0.33333333333325754,
          "durationTicks": 400,
          "midi": 43,
          "name": "G2",
          "ticks": 754560,
          "time": 628.8000000000001,
          "velocity": 0.8267716535433071
        },
        {
          "duration": 0.33333333333325754,
          "durationTicks": 400,
          "midi": 43,
          "name": "G2",
          "ticks": 755040,
          "time": 629.2,
          "velocity": 0.8267716535433071
        },
        {
          "duration": 0.33333333333337123,
          "durationTicks": 400,
          "midi": 43,
          "name": "G2",
          "ticks": 755520,
          "time": 629.6,
          "velocity": 0.8267716535433071
        },
        {
          "duration": 0.33333333333337123,
          "durationTicks": 400,
          "midi": 43,
          "name": "G2",
          "ticks": 756000,
          "time": 630,
          "velocity": 0.8267716535433071
        },
        {
          "duration": 0.33333333333325754,
          "durationTicks": 400,
          "midi": 48,
          "name": "C3",
          "ticks": 756480,
          "time": 630.4000000000001,
          "velocity": 0.8267716535433071
        },
        {
          "duration": 0.33333333333325754,
          "durationTicks": 400,
          "midi": 48,
          "name": "C3",
          "ticks": 757440,
          "time": 631.2,
          "velocity": 0.8267716535433071
        },
        {
          "duration": 0.33333333333337123,
          "durationTicks": 400,
          "midi": 43,
          "name": "G2",
          "ticks": 758400,
          "time": 632,
          "velocity": 0.8267716535433071
        },
        {
          "duration": 0.33333333333325754,
          "durationTicks": 400,
          "midi": 43,
          "name": "G2",
          "ticks": 759360,
          "time": 632.8000000000001,
          "velocity": 0.8267716535433071
        },
        {
          "duration": 0.33333333333337123,
          "durationTicks": 400,
          "midi": 48,
          "name": "C3",
          "ticks": 760320,
          "time": 633.6,
          "velocity": 0.8267716535433071
        },
        {
          "duration": 0.33333333333325754,
          "durationTicks": 400,
          "midi": 48,
          "name": "C3",
          "ticks": 762240,
          "time": 635.2,
          "velocity": 0.8267716535433071
        },
        {
          "duration": 0.33333333333325754,
          "durationTicks": 400,
          "midi": 48,
          "name": "C3",
          "ticks": 764160,
          "time": 636.8000000000001,
          "velocity": 0.8267716535433071
        },
        {
          "duration": 0.33333333333325754,
          "durationTicks": 400,
          "midi": 48,
          "name": "C3",
          "ticks": 766080,
          "time": 638.4000000000001,
          "velocity": 0.6771653543307087
        },
        {
          "duration": 0.33333333333325754,
          "durationTicks": 400,
          "midi": 48,
          "name": "C3",
          "ticks": 767040,
          "time": 639.2,
          "velocity": 0.6771653543307087
        },
        {
          "duration": 0.33333333333325754,
          "durationTicks": 400,
          "midi": 43,
          "name": "G2",
          "ticks": 768960,
          "time": 640.8000000000001,
          "velocity": 0.6771653543307087
        },
        {
          "duration": 0.33333333333337123,
          "durationTicks": 400,
          "midi": 48,
          "name": "C3",
          "ticks": 769920,
          "time": 641.6,
          "velocity": 0.6771653543307087
        },
        {
          "duration": 0.33333333333325754,
          "durationTicks": 400,
          "midi": 48,
          "name": "C3",
          "ticks": 770880,
          "time": 642.4000000000001,
          "velocity": 0.6771653543307087
        },
        {
          "duration": 0.33333333333325754,
          "durationTicks": 400,
          "midi": 48,
          "name": "C3",
          "ticks": 771360,
          "time": 642.8000000000001,
          "velocity": 0.6771653543307087
        },
        {
          "duration": 0.33333333333325754,
          "durationTicks": 400,
          "midi": 48,
          "name": "C3",
          "ticks": 771840,
          "time": 643.2,
          "velocity": 0.6771653543307087
        },
        {
          "duration": 0.33333333333337123,
          "durationTicks": 400,
          "midi": 48,
          "name": "C3",
          "ticks": 772800,
          "time": 644,
          "velocity": 0.6771653543307087
        },
        {
          "duration": 0.33333333333325754,
          "durationTicks": 400,
          "midi": 48,
          "name": "C3",
          "ticks": 773280,
          "time": 644.4000000000001,
          "velocity": 0.6771653543307087
        },
        {
          "duration": 0.33333333333325754,
          "durationTicks": 400,
          "midi": 48,
          "name": "C3",
          "ticks": 773760,
          "time": 644.8000000000001,
          "velocity": 0.6771653543307087
        },
        {
          "duration": 0.33333333333337123,
          "durationTicks": 400,
          "midi": 48,
          "name": "C3",
          "ticks": 774720,
          "time": 645.6,
          "velocity": 0.6771653543307087
        },
        {
          "duration": 0.33333333333337123,
          "durationTicks": 400,
          "midi": 48,
          "name": "C3",
          "ticks": 775200,
          "time": 646,
          "velocity": 0.6771653543307087
        },
        {
          "duration": 0.33333333333325754,
          "durationTicks": 400,
          "midi": 48,
          "name": "C3",
          "ticks": 775680,
          "time": 646.4000000000001,
          "velocity": 0.6771653543307087
        },
        {
          "duration": 0.33333333333325754,
          "durationTicks": 400,
          "midi": 48,
          "name": "C3",
          "ticks": 778080,
          "time": 648.4000000000001,
          "velocity": 0.6771653543307087
        },
        {
          "duration": 0.33333333333325754,
          "durationTicks": 400,
          "midi": 43,
          "name": "G2",
          "ticks": 778560,
          "time": 648.8000000000001,
          "velocity": 0.6771653543307087
        },
        {
          "duration": 0.33333333333325754,
          "durationTicks": 400,
          "midi": 48,
          "name": "C3",
          "ticks": 779040,
          "time": 649.2,
          "velocity": 0.6771653543307087
        },
        {
          "duration": 0.33333333333337123,
          "durationTicks": 400,
          "midi": 43,
          "name": "G2",
          "ticks": 779520,
          "time": 649.6,
          "velocity": 0.6771653543307087
        },
        {
          "duration": 0.33333333333337123,
          "durationTicks": 400,
          "midi": 48,
          "name": "C3",
          "ticks": 787200,
          "time": 656,
          "velocity": 0.4015748031496063
        },
        {
          "duration": 0.33333333333337123,
          "durationTicks": 400,
          "midi": 43,
          "name": "G2",
          "ticks": 789120,
          "time": 657.6,
          "velocity": 0.4015748031496063
        },
        {
          "duration": 0.33333333333325754,
          "durationTicks": 400,
          "midi": 48,
          "name": "C3",
          "ticks": 791040,
          "time": 659.2,
          "velocity": 0.4015748031496063
        },
        {
          "duration": 0.33333333333325754,
          "durationTicks": 400,
          "midi": 43,
          "name": "G2",
          "ticks": 792960,
          "time": 660.8000000000001,
          "velocity": 0.4015748031496063
        },
        {
          "duration": 0.33333333333325754,
          "durationTicks": 400,
          "midi": 48,
          "name": "C3",
          "ticks": 794880,
          "time": 662.4000000000001,
          "velocity": 0.4015748031496063
        },
        {
          "duration": 0.1966666666666015,
          "durationTicks": 236,
          "midi": 43,
          "name": "G2",
          "ticks": 797760,
          "time": 664.8000000000001,
          "velocity": 0.4015748031496063
        },
        {
          "duration": 0.1966666666666015,
          "durationTicks": 236,
          "midi": 43,
          "name": "G2",
          "ticks": 798240,
          "time": 665.2,
          "velocity": 0.4015748031496063
        },
        {
          "duration": 0.33333333333337123,
          "durationTicks": 400,
          "midi": 48,
          "name": "C3",
          "ticks": 798720,
          "time": 665.6,
          "velocity": 0.4015748031496063
        },
        {
          "duration": 0.19666666666671517,
          "durationTicks": 236,
          "midi": 43,
          "name": "G2",
          "ticks": 801600,
          "time": 668,
          "velocity": 0.4015748031496063
        },
        {
          "duration": 0.1966666666666015,
          "durationTicks": 236,
          "midi": 43,
          "name": "G2",
          "ticks": 802080,
          "time": 668.4000000000001,
          "velocity": 0.4015748031496063
        },
        {
          "duration": 0.1966666666666015,
          "durationTicks": 236,
          "midi": 48,
          "name": "C3",
          "ticks": 802560,
          "time": 668.8000000000001,
          "velocity": 0.4015748031496063
        },
        {
          "duration": 0.2966666666666242,
          "durationTicks": 356,
          "midi": 43,
          "name": "G2",
          "ticks": 803040,
          "time": 669.2,
          "velocity": 0.8267716535433071
        },
        {
          "duration": 0.09666666666669244,
          "durationTicks": 116,
          "midi": 43,
          "name": "G2",
          "ticks": 803400,
          "time": 669.5,
          "velocity": 0.8267716535433071
        },
        {
          "duration": 0.33333333333337123,
          "durationTicks": 400,
          "midi": 43,
          "name": "G2",
          "ticks": 803520,
          "time": 669.6,
          "velocity": 0.8267716535433071
        },
        {
          "duration": 0.33333333333337123,
          "durationTicks": 400,
          "midi": 43,
          "name": "G2",
          "ticks": 804000,
          "time": 670,
          "velocity": 0.8267716535433071
        },
        {
          "duration": 0.33333333333325754,
          "durationTicks": 400,
          "midi": 43,
          "name": "G2",
          "ticks": 804480,
          "time": 670.4000000000001,
          "velocity": 0.8267716535433071
        },
        {
          "duration": 0.2966666666666242,
          "durationTicks": 356,
          "midi": 43,
          "name": "G2",
          "ticks": 804960,
          "time": 670.8000000000001,
          "velocity": 0.8267716535433071
        },
        {
          "duration": 0.09666666666669244,
          "durationTicks": 116,
          "midi": 43,
          "name": "G2",
          "ticks": 805320,
          "time": 671.1,
          "velocity": 0.8267716535433071
        },
        {
          "duration": 0.33333333333325754,
          "durationTicks": 400,
          "midi": 43,
          "name": "G2",
          "ticks": 805440,
          "time": 671.2,
          "velocity": 0.8267716535433071
        },
        {
          "duration": 0.33333333333337123,
          "durationTicks": 400,
          "midi": 43,
          "name": "G2",
          "ticks": 805920,
          "time": 671.6,
          "velocity": 0.8267716535433071
        },
        {
          "duration": 0.33333333333337123,
          "durationTicks": 400,
          "midi": 48,
          "name": "C3",
          "ticks": 806400,
          "time": 672,
          "velocity": 0.8267716535433071
        },
        {
          "duration": 0.33333333333325754,
          "durationTicks": 400,
          "midi": 43,
          "name": "G2",
          "ticks": 807840,
          "time": 673.2,
          "velocity": 0.8267716535433071
        },
        {
          "duration": 0.33333333333337123,
          "durationTicks": 400,
          "midi": 48,
          "name": "C3",
          "ticks": 808320,
          "time": 673.6,
          "velocity": 0.8267716535433071
        },
        {
          "duration": 0.2966666666666242,
          "durationTicks": 356,
          "midi": 43,
          "name": "G2",
          "ticks": 808800,
          "time": 674,
          "velocity": 0.8267716535433071
        },
        {
          "duration": 0.09666666666657875,
          "durationTicks": 116,
          "midi": 43,
          "name": "G2",
          "ticks": 809160,
          "time": 674.3000000000001,
          "velocity": 0.8267716535433071
        },
        {
          "duration": 0.33333333333325754,
          "durationTicks": 400,
          "midi": 43,
          "name": "G2",
          "ticks": 809280,
          "time": 674.4000000000001,
          "velocity": 0.8267716535433071
        },
        {
          "duration": 0.33333333333325754,
          "durationTicks": 400,
          "midi": 43,
          "name": "G2",
          "ticks": 809760,
          "time": 674.8000000000001,
          "velocity": 0.8267716535433071
        },
        {
          "duration": 0.33333333333325754,
          "durationTicks": 400,
          "midi": 43,
          "name": "G2",
          "ticks": 810240,
          "time": 675.2,
          "velocity": 0.8267716535433071
        },
        {
          "duration": 0.2966666666666242,
          "durationTicks": 356,
          "midi": 43,
          "name": "G2",
          "ticks": 810720,
          "time": 675.6,
          "velocity": 0.8267716535433071
        },
        {
          "duration": 0.09666666666657875,
          "durationTicks": 116,
          "midi": 43,
          "name": "G2",
          "ticks": 811080,
          "time": 675.9000000000001,
          "velocity": 0.8267716535433071
        },
        {
          "duration": 0.33333333333337123,
          "durationTicks": 400,
          "midi": 43,
          "name": "G2",
          "ticks": 811200,
          "time": 676,
          "velocity": 0.8267716535433071
        },
        {
          "duration": 0.33333333333325754,
          "durationTicks": 400,
          "midi": 43,
          "name": "G2",
          "ticks": 811680,
          "time": 676.4000000000001,
          "velocity": 0.8267716535433071
        },
        {
          "duration": 0.33333333333325754,
          "durationTicks": 400,
          "midi": 48,
          "name": "C3",
          "ticks": 812160,
          "time": 676.8000000000001,
          "velocity": 0.8267716535433071
        },
        {
          "duration": 0.33333333333337123,
          "durationTicks": 400,
          "midi": 43,
          "name": "G2",
          "ticks": 813600,
          "time": 678,
          "velocity": 0.8267716535433071
        },
        {
          "duration": 0.33333333333325754,
          "durationTicks": 400,
          "midi": 48,
          "name": "C3",
          "ticks": 814080,
          "time": 678.4000000000001,
          "velocity": 0.8267716535433071
        },
        {
          "duration": 0.33333333333325754,
          "durationTicks": 400,
          "midi": 43,
          "name": "G2",
          "ticks": 815040,
          "time": 679.2,
          "velocity": 0.8267716535433071
        },
        {
          "duration": 0.33333333333337123,
          "durationTicks": 400,
          "midi": 43,
          "name": "G2",
          "ticks": 815520,
          "time": 679.6,
          "velocity": 0.8267716535433071
        },
        {
          "duration": 0.33333333333337123,
          "durationTicks": 400,
          "midi": 48,
          "name": "C3",
          "ticks": 816000,
          "time": 680,
          "velocity": 0.9763779527559056
        },
        {
          "duration": 0.33333333333325754,
          "durationTicks": 400,
          "midi": 43,
          "name": "G2",
          "ticks": 816960,
          "time": 680.8000000000001,
          "velocity": 0.9763779527559056
        },
        {
          "duration": 0.33333333333337123,
          "durationTicks": 400,
          "midi": 48,
          "name": "C3",
          "ticks": 817920,
          "time": 681.6,
          "velocity": 0.9763779527559056
        },
        {
          "duration": 0.33333333333325754,
          "durationTicks": 400,
          "midi": 43,
          "name": "G2",
          "ticks": 818880,
          "time": 682.4000000000001,
          "velocity": 0.9763779527559056
        },
        {
          "duration": 0.33333333333325754,
          "durationTicks": 400,
          "midi": 48,
          "name": "C3",
          "ticks": 819840,
          "time": 683.2,
          "velocity": 0.9763779527559056
        },
        {
          "duration": 0.33333333333337123,
          "durationTicks": 400,
          "midi": 43,
          "name": "G2",
          "ticks": 820800,
          "time": 684,
          "velocity": 0.9763779527559056
        },
        {
          "duration": 0.33333333333325754,
          "durationTicks": 400,
          "midi": 48,
          "name": "C3",
          "ticks": 821760,
          "time": 684.8000000000001,
          "velocity": 0.9763779527559056
        },
        {
          "duration": 0.2966666666666242,
          "durationTicks": 356,
          "midi": 48,
          "name": "C3",
          "ticks": 822240,
          "time": 685.2,
          "velocity": 0.984251968503937
        },
        {
          "duration": 0.09666666666669244,
          "durationTicks": 116,
          "midi": 48,
          "name": "C3",
          "ticks": 822600,
          "time": 685.5,
          "velocity": 0.9921259842519685
        },
        {
          "duration": 0.33333333333337123,
          "durationTicks": 400,
          "midi": 48,
          "name": "C3",
          "ticks": 822720,
          "time": 685.6,
          "velocity": 0.9921259842519685
        },
        {
          "duration": 0.33333333333337123,
          "durationTicks": 400,
          "midi": 48,
          "name": "C3",
          "ticks": 823200,
          "time": 686,
          "velocity": 1
        },
        {
          "duration": 0.33333333333325754,
          "durationTicks": 400,
          "midi": 48,
          "name": "C3",
          "ticks": 823680,
          "time": 686.4000000000001,
          "velocity": 1
        },
        {
          "duration": 0.33333333333325754,
          "durationTicks": 400,
          "midi": 48,
          "name": "C3",
          "ticks": 824160,
          "time": 686.8000000000001,
          "velocity": 1
        },
        {
          "duration": 0.33333333333325754,
          "durationTicks": 400,
          "midi": 48,
          "name": "C3",
          "ticks": 824640,
          "time": 687.2,
          "velocity": 1
        },
        {
          "duration": 0.33333333333337123,
          "durationTicks": 400,
          "midi": 48,
          "name": "C3",
          "ticks": 825120,
          "time": 687.6,
          "velocity": 1
        },
        {
          "duration": 0.046666666666624224,
          "durationTicks": 56,
          "midi": 50,
          "name": "D3",
          "ticks": 825600,
          "time": 688,
          "velocity": 1
        },
        {
          "duration": 0.046666666666624224,
          "durationTicks": 56,
          "midi": 48,
          "name": "C3",
          "ticks": 825660,
          "time": 688.0500000000001,
          "velocity": 1
        },
        {
          "duration": 0.046666666666624224,
          "durationTicks": 56,
          "midi": 50,
          "name": "D3",
          "ticks": 825720,
          "time": 688.1,
          "velocity": 1
        },
        {
          "duration": 0.046666666666624224,
          "durationTicks": 56,
          "midi": 48,
          "name": "C3",
          "ticks": 825780,
          "time": 688.1500000000001,
          "velocity": 1
        },
        {
          "duration": 0.046666666666624224,
          "durationTicks": 56,
          "midi": 50,
          "name": "D3",
          "ticks": 825840,
          "time": 688.2,
          "velocity": 1
        },
        {
          "duration": 0.046666666666624224,
          "durationTicks": 56,
          "midi": 48,
          "name": "C3",
          "ticks": 825900,
          "time": 688.25,
          "velocity": 1
        },
        {
          "duration": 0.046666666666624224,
          "durationTicks": 56,
          "midi": 50,
          "name": "D3",
          "ticks": 825960,
          "time": 688.3000000000001,
          "velocity": 1
        },
        {
          "duration": 0.046666666666624224,
          "durationTicks": 56,
          "midi": 48,
          "name": "C3",
          "ticks": 826020,
          "time": 688.35,
          "velocity": 1
        },
        {
          "duration": 0.046666666666624224,
          "durationTicks": 56,
          "midi": 50,
          "name": "D3",
          "ticks": 826080,
          "time": 688.4000000000001,
          "velocity": 1
        },
        {
          "duration": 0.046666666666624224,
          "durationTicks": 56,
          "midi": 48,
          "name": "C3",
          "ticks": 826140,
          "time": 688.45,
          "velocity": 1
        },
        {
          "duration": 0.046666666666624224,
          "durationTicks": 56,
          "midi": 50,
          "name": "D3",
          "ticks": 826200,
          "time": 688.5,
          "velocity": 1
        },
        {
          "duration": 0.046666666666624224,
          "durationTicks": 56,
          "midi": 48,
          "name": "C3",
          "ticks": 826260,
          "time": 688.5500000000001,
          "velocity": 1
        },
        {
          "duration": 0.046666666666624224,
          "durationTicks": 56,
          "midi": 50,
          "name": "D3",
          "ticks": 826320,
          "time": 688.6,
          "velocity": 1
        },
        {
          "duration": 0.046666666666624224,
          "durationTicks": 56,
          "midi": 48,
          "name": "C3",
          "ticks": 826380,
          "time": 688.6500000000001,
          "velocity": 1
        },
        {
          "duration": 0.046666666666624224,
          "durationTicks": 56,
          "midi": 50,
          "name": "D3",
          "ticks": 826440,
          "time": 688.7,
          "velocity": 1
        },
        {
          "duration": 0.046666666666624224,
          "durationTicks": 56,
          "midi": 48,
          "name": "C3",
          "ticks": 826500,
          "time": 688.75,
          "velocity": 1
        },
        {
          "duration": 0.046666666666624224,
          "durationTicks": 56,
          "midi": 50,
          "name": "D3",
          "ticks": 826560,
          "time": 688.8000000000001,
          "velocity": 1
        },
        {
          "duration": 0.046666666666624224,
          "durationTicks": 56,
          "midi": 48,
          "name": "C3",
          "ticks": 826620,
          "time": 688.85,
          "velocity": 1
        },
        {
          "duration": 0.046666666666624224,
          "durationTicks": 56,
          "midi": 50,
          "name": "D3",
          "ticks": 826680,
          "time": 688.9000000000001,
          "velocity": 1
        },
        {
          "duration": 0.046666666666624224,
          "durationTicks": 56,
          "midi": 48,
          "name": "C3",
          "ticks": 826740,
          "time": 688.95,
          "velocity": 1
        },
        {
          "duration": 0.046666666666624224,
          "durationTicks": 56,
          "midi": 50,
          "name": "D3",
          "ticks": 826800,
          "time": 689,
          "velocity": 1
        },
        {
          "duration": 0.046666666666624224,
          "durationTicks": 56,
          "midi": 48,
          "name": "C3",
          "ticks": 826860,
          "time": 689.0500000000001,
          "velocity": 1
        },
        {
          "duration": 0.046666666666624224,
          "durationTicks": 56,
          "midi": 50,
          "name": "D3",
          "ticks": 826920,
          "time": 689.1,
          "velocity": 1
        },
        {
          "duration": 0.046666666666624224,
          "durationTicks": 56,
          "midi": 48,
          "name": "C3",
          "ticks": 826980,
          "time": 689.1500000000001,
          "velocity": 1
        },
        {
          "duration": 0.046666666666624224,
          "durationTicks": 56,
          "midi": 50,
          "name": "D3",
          "ticks": 827040,
          "time": 689.2,
          "velocity": 1
        },
        {
          "duration": 0.046666666666624224,
          "durationTicks": 56,
          "midi": 48,
          "name": "C3",
          "ticks": 827100,
          "time": 689.25,
          "velocity": 1
        },
        {
          "duration": 0.046666666666624224,
          "durationTicks": 56,
          "midi": 50,
          "name": "D3",
          "ticks": 827160,
          "time": 689.3000000000001,
          "velocity": 1
        },
        {
          "duration": 0.046666666666624224,
          "durationTicks": 56,
          "midi": 48,
          "name": "C3",
          "ticks": 827220,
          "time": 689.35,
          "velocity": 1
        },
        {
          "duration": 0.046666666666624224,
          "durationTicks": 56,
          "midi": 50,
          "name": "D3",
          "ticks": 827280,
          "time": 689.4000000000001,
          "velocity": 1
        },
        {
          "duration": 0.046666666666624224,
          "durationTicks": 56,
          "midi": 48,
          "name": "C3",
          "ticks": 827340,
          "time": 689.45,
          "velocity": 1
        },
        {
          "duration": 0.046666666666624224,
          "durationTicks": 56,
          "midi": 50,
          "name": "D3",
          "ticks": 827400,
          "time": 689.5,
          "velocity": 1
        },
        {
          "duration": 0.046666666666624224,
          "durationTicks": 56,
          "midi": 48,
          "name": "C3",
          "ticks": 827460,
          "time": 689.5500000000001,
          "velocity": 1
        },
        {
          "duration": 0.38461500000005344,
          "durationTicks": 400,
          "midi": 48,
          "name": "C3",
          "ticks": 827520,
          "time": 689.6,
          "velocity": 1
        },
        {
          "duration": 0.4545458333333272,
          "durationTicks": 400,
          "midi": 48,
          "name": "C3",
          "ticks": 828480,
          "time": 690.5230760000001,
          "velocity": 1
        },
        {
          "duration": 1.0499999999999545,
          "durationTicks": 840,
          "midi": 48,
          "name": "C3",
          "ticks": 829440,
          "time": 691.6139860000001,
          "velocity": 1
        }
      ]
    },
    {
      "channel": 0,
      "controlChanges": {},
      "pitchBends": [],
      "instrument": {
        "family": "piano",
        "number": 0,
        "name": "acoustic grand piano"
      },
      "name": "Violini I.",
      "notes": [],
      "endOfTrackTicks": 835200
    },
    {
      "channel": 6,
      "controlChanges": {
        "7": [
          {
            "number": 7,
            "ticks": 0,
            "time": 0,
            "value": 1
          }
        ],
        "10": [
          {
            "number": 10,
            "ticks": 0,
            "time": 0,
            "value": 0.1968503937007874
          }
        ]
      },
      "pitchBends": [],
      "instrument": {
        "family": "ensemble",
        "number": 48,
        "name": "string ensemble 1"
      },
      "name": "",
      "notes": [
        {
          "duration": 0.33333333333333337,
          "durationTicks": 400,
          "midi": 60,
          "name": "C4",
          "ticks": 0,
          "time": 0,
          "velocity": 0.8267716535433071
        },
        {
          "duration": 0.06666666666666665,
          "durationTicks": 80,
          "midi": 55,
          "name": "G3",
          "ticks": 720,
          "time": 0.6000000000000001,
          "velocity": 0.8267716535433071
        },
        {
          "duration": 0.06666666666666665,
          "durationTicks": 80,
          "midi": 57,
          "name": "A3",
          "ticks": 800,
          "time": 0.6666666666666667,
          "velocity": 0.8267716535433071
        },
        {
          "duration": 0.06666666666666665,
          "durationTicks": 80,
          "midi": 59,
          "name": "B3",
          "ticks": 880,
          "time": 0.7333333333333334,
          "velocity": 0.8267716535433071
        },
        {
          "duration": 0.3333333333333335,
          "durationTicks": 400,
          "midi": 60,
          "name": "C4",
          "ticks": 960,
          "time": 0.8,
          "velocity": 0.8267716535433071
        },
        {
          "duration": 0.06666666666666665,
          "durationTicks": 80,
          "midi": 55,
          "name": "G3",
          "ticks": 1680,
          "time": 1.4000000000000001,
          "velocity": 0.8267716535433071
        },
        {
          "duration": 0.06666666666666665,
          "durationTicks": 80,
          "midi": 57,
          "name": "A3",
          "ticks": 1760,
          "time": 1.4666666666666668,
          "velocity": 0.8267716535433071
        },
        {
          "duration": 0.06666666666666665,
          "durationTicks": 80,
          "midi": 59,
          "name": "B3",
          "ticks": 1840,
          "time": 1.5333333333333334,
          "velocity": 0.8267716535433071
        },
        {
          "duration": 0.33333333333333326,
          "durationTicks": 400,
          "midi": 60,
          "name": "C4",
          "ticks": 1920,
          "time": 1.6,
          "velocity": 0.8267716535433071
        },
        {
          "duration": 0.19666666666666677,
          "durationTicks": 236,
          "midi": 72,
          "name": "C5",
          "ticks": 3600,
          "time": 3,
          "velocity": 0.4015748031496063
        },
        {
          "duration": 0.6000000000000001,
          "durationTicks": 720,
          "midi": 72,
          "name": "C5",
          "ticks": 3840,
          "time": 3.2,
          "velocity": 0.4015748031496063
        },
        {
          "duration": 0.19999999999999973,
          "durationTicks": 240,
          "midi": 71,
          "name": "B4",
          "ticks": 4560,
          "time": 3.8000000000000003,
          "velocity": 0.4015748031496063
        },
        {
          "duration": 0.6000000000000005,
          "durationTicks": 720,
          "midi": 74,
          "name": "D5",
          "ticks": 4800,
          "time": 4,
          "velocity": 0.4015748031496063
        },
        {
          "duration": 0.19666666666666632,
          "durationTicks": 236,
          "midi": 72,
          "name": "C5",
          "ticks": 5520,
          "time": 4.6000000000000005,
          "velocity": 0.4015748031496063
        },
        {
          "duration": 0.7999999999999998,
          "durationTicks": 960,
          "midi": 79,
          "name": "G5",
          "ticks": 5760,
          "time": 4.800000000000001,
          "velocity": 0.4015748031496063
        },
        {
          "duration": 0.33333333333333304,
          "durationTicks": 400,
          "midi": 77,
          "name": "F5",
          "ticks": 6720,
          "time": 5.6000000000000005,
          "velocity": 0.4015748031496063
        },
        {
          "duration": 0.33333333333333304,
          "durationTicks": 400,
          "midi": 55,
          "name": "G3",
          "ticks": 7680,
          "time": 6.4,
          "velocity": 0.8267716535433071
        },
        {
          "duration": 0.33333333333333304,
          "durationTicks": 400,
          "midi": 67,
          "name": "G4",
          "ticks": 7680,
          "time": 6.4,
          "velocity": 0.8267716535433071
        },
        {
          "duration": 0.06666666666666732,
          "durationTicks": 80,
          "midi": 62,
          "name": "D4",
          "ticks": 8400,
          "time": 7,
          "velocity": 0.8267716535433071
        },
        {
          "duration": 0.06666666666666554,
          "durationTicks": 80,
          "midi": 64,
          "name": "E4",
          "ticks": 8480,
          "time": 7.066666666666667,
          "velocity": 0.8267716535433071
        },
        {
          "duration": 0.06666666666666732,
          "durationTicks": 80,
          "midi": 66,
          "name": "F#4",
          "ticks": 8560,
          "time": 7.133333333333333,
          "velocity": 0.8267716535433071
        },
        {
          "duration": 0.33333333333333304,
          "durationTicks": 400,
          "midi": 67,
          "name": "G4",
          "ticks": 8640,
          "time": 7.2,
          "velocity": 0.8267716535433071
        },
        {
          "duration": 0.06666666666666643,
          "durationTicks": 80,
          "midi": 62,
          "name": "D4",
          "ticks": 9360,
          "time": 7.800000000000001,
          "velocity": 0.8267716535433071
        },
        {
          "duration": 0.06666666666666643,
          "durationTicks": 80,
          "midi": 64,
          "name": "E4",
          "ticks": 9440,
          "time": 7.866666666666667,
          "velocity": 0.8267716535433071
        },
        {
          "duration": 0.06666666666666643,
          "durationTicks": 80,
          "midi": 66,
          "name": "F#4",
          "ticks": 9520,
          "time": 7.933333333333334,
          "velocity": 0.8267716535433071
        },
        {
          "duration": 0.3333333333333339,
          "durationTicks": 400,
          "midi": 67,
          "name": "G4",
          "ticks": 9600,
          "time": 8,
          "velocity": 0.8267716535433071
        },
        {
          "duration": 0.1966666666666672,
          "durationTicks": 236,
          "midi": 74,
          "name": "D5",
          "ticks": 11280,
          "time": 9.4,
          "velocity": 0.4015748031496063
        },
        {
          "duration": 0.5999999999999996,
          "durationTicks": 720,
          "midi": 74,
          "name": "D5",
          "ticks": 11520,
          "time": 9.600000000000001,
          "velocity": 0.4015748031496063
        },
        {
          "duration": 0.1999999999999993,
          "durationTicks": 240,
          "midi": 72,
          "name": "C5",
          "ticks": 12240,
          "time": 10.200000000000001,
          "velocity": 0.4015748031496063
        },
        {
          "duration": 0.5999999999999996,
          "durationTicks": 720,
          "midi": 79,
          "name": "G5",
          "ticks": 12480,
          "time": 10.4,
          "velocity": 0.4015748031496063
        },
        {
          "duration": 0.1966666666666672,
          "durationTicks": 236,
          "midi": 77,
          "name": "F5",
          "ticks": 13200,
          "time": 11,
          "velocity": 0.4015748031496063
        },
        {
          "duration": 0.7999999999999989,
          "durationTicks": 960,
          "midi": 81,
          "name": "A5",
          "ticks": 13440,
          "time": 11.200000000000001,
          "velocity": 0.4015748031496063
        },
        {
          "duration": 0.3333333333333339,
          "durationTicks": 400,
          "midi": 79,
          "name": "G5",
          "ticks": 14400,
          "time": 12,
          "velocity": 0.4015748031496063
        },
        {
          "duration": 0.3333333333333339,
          "durationTicks": 400,
          "midi": 67,
          "name": "G4",
          "ticks": 15360,
          "time": 12.8,
          "velocity": 0.8267716535433071
        },
        {
          "duration": 0.3333333333333339,
          "durationTicks": 400,
          "midi": 76,
          "name": "E5",
          "ticks": 15360,
          "time": 12.8,
          "velocity": 0.8267716535433071
        },
        {
          "duration": 0.3333333333333339,
          "durationTicks": 400,
          "midi": 84,
          "name": "C6",
          "ticks": 15360,
          "time": 12.8,
          "velocity": 0.8267716535433071
        },
        {
          "duration": 0.3333333333333357,
          "durationTicks": 400,
          "midi": 67,
          "name": "G4",
          "ticks": 16800,
          "time": 14,
          "velocity": 0.8267716535433071
        },
        {
          "duration": 0.3333333333333357,
          "durationTicks": 400,
          "midi": 76,
          "name": "E5",
          "ticks": 16800,
          "time": 14,
          "velocity": 0.8267716535433071
        },
        {
          "duration": 0.3333333333333357,
          "durationTicks": 400,
          "midi": 84,
          "name": "C6",
          "ticks": 16800,
          "time": 14,
          "velocity": 0.8267716535433071
        },
        {
          "duration": 0.3333333333333339,
          "durationTicks": 400,
          "midi": 65,
          "name": "F4",
          "ticks": 17280,
          "time": 14.4,
          "velocity": 0.8267716535433071
        },
        {
          "duration": 0.3333333333333339,
          "durationTicks": 400,
          "midi": 72,
          "name": "C5",
          "ticks": 17280,
          "time": 14.4,
          "velocity": 0.8267716535433071
        },
        {
          "duration": 0.3333333333333339,
          "durationTicks": 400,
          "midi": 81,
          "name": "A5",
          "ticks": 17280,
          "time": 14.4,
          "velocity": 0.8267716535433071
        },
        {
          "duration": 0.3333333333333339,
          "durationTicks": 400,
          "midi": 69,
          "name": "A4",
          "ticks": 18720,
          "time": 15.600000000000001,
          "velocity": 0.8267716535433071
        },
        {
          "duration": 0.3333333333333339,
          "durationTicks": 400,
          "midi": 77,
          "name": "F5",
          "ticks": 18720,
          "time": 15.600000000000001,
          "velocity": 0.8267716535433071
        },
        {
          "duration": 0.3333333333333357,
          "durationTicks": 400,
          "midi": 59,
          "name": "B3",
          "ticks": 19200,
          "time": 16,
          "velocity": 0.8267716535433071
        },
        {
          "duration": 0.3333333333333357,
          "durationTicks": 400,
          "midi": 67,
          "name": "G4",
          "ticks": 19200,
          "time": 16,
          "velocity": 0.8267716535433071
        },
        {
          "duration": 0.3333333333333357,
          "durationTicks": 400,
          "midi": 74,
          "name": "D5",
          "ticks": 19200,
          "time": 16,
          "velocity": 0.8267716535433071
        },
        {
          "duration": 0.3333333333333357,
          "durationTicks": 400,
          "midi": 62,
          "name": "D4",
          "ticks": 20640,
          "time": 17.2,
          "velocity": 0.8267716535433071
        },
        {
          "duration": 0.3333333333333357,
          "durationTicks": 400,
          "midi": 71,
          "name": "B4",
          "ticks": 20640,
          "time": 17.2,
          "velocity": 0.8267716535433071
        },
        {
          "duration": 0.3333333333333357,
          "durationTicks": 400,
          "midi": 79,
          "name": "G5",
          "ticks": 20640,
          "time": 17.2,
          "velocity": 0.8267716535433071
        },
        {
          "duration": 0.33333333333333215,
          "durationTicks": 400,
          "midi": 64,
          "name": "E4",
          "ticks": 21120,
          "time": 17.6,
          "velocity": 0.8267716535433071
        },
        {
          "duration": 0.33333333333333215,
          "durationTicks": 400,
          "midi": 72,
          "name": "C5",
          "ticks": 21120,
          "time": 17.6,
          "velocity": 0.8267716535433071
        },
        {
          "duration": 0.33333333333333215,
          "durationTicks": 400,
          "midi": 76,
          "name": "E5",
          "ticks": 21120,
          "time": 17.6,
          "velocity": 0.8267716535433071
        },
        {
          "duration": 0.3333333333333357,
          "durationTicks": 400,
          "midi": 67,
          "name": "G4",
          "ticks": 22560,
          "time": 18.8,
          "velocity": 0.8267716535433071
        },
        {
          "duration": 0.3333333333333357,
          "durationTicks": 400,
          "midi": 76,
          "name": "E5",
          "ticks": 22560,
          "time": 18.8,
          "velocity": 0.8267716535433071
        },
        {
          "duration": 0.3333333333333357,
          "durationTicks": 400,
          "midi": 84,
          "name": "C6",
          "ticks": 22560,
          "time": 18.8,
          "velocity": 0.8267716535433071
        },
        {
          "duration": 0.33333333333333215,
          "durationTicks": 400,
          "midi": 65,
          "name": "F4",
          "ticks": 23040,
          "time": 19.200000000000003,
          "velocity": 0.8267716535433071
        },
        {
          "duration": 0.33333333333333215,
          "durationTicks": 400,
          "midi": 72,
          "name": "C5",
          "ticks": 23040,
          "time": 19.200000000000003,
          "velocity": 0.8267716535433071
        },
        {
          "duration": 0.33333333333333215,
          "durationTicks": 400,
          "midi": 81,
          "name": "A5",
          "ticks": 23040,
          "time": 19.200000000000003,
          "velocity": 0.8267716535433071
        },
        {
          "duration": 0.33333333333333215,
          "durationTicks": 400,
          "midi": 69,
          "name": "A4",
          "ticks": 24480,
          "time": 20.400000000000002,
          "velocity": 0.8267716535433071
        },
        {
          "duration": 0.33333333333333215,
          "durationTicks": 400,
          "midi": 77,
          "name": "F5",
          "ticks": 24480,
          "time": 20.400000000000002,
          "velocity": 0.8267716535433071
        },
        {
          "duration": 0.3333333333333357,
          "durationTicks": 400,
          "midi": 59,
          "name": "B3",
          "ticks": 24960,
          "time": 20.8,
          "velocity": 0.8267716535433071
        },
        {
          "duration": 0.3333333333333357,
          "durationTicks": 400,
          "midi": 67,
          "name": "G4",
          "ticks": 24960,
          "time": 20.8,
          "velocity": 0.8267716535433071
        },
        {
          "duration": 0.3333333333333357,
          "durationTicks": 400,
          "midi": 74,
          "name": "D5",
          "ticks": 24960,
          "time": 20.8,
          "velocity": 0.8267716535433071
        },
        {
          "duration": 0.3333333333333357,
          "durationTicks": 400,
          "midi": 62,
          "name": "D4",
          "ticks": 26400,
          "time": 22,
          "velocity": 0.8267716535433071
        },
        {
          "duration": 0.3333333333333357,
          "durationTicks": 400,
          "midi": 71,
          "name": "B4",
          "ticks": 26400,
          "time": 22,
          "velocity": 0.8267716535433071
        },
        {
          "duration": 0.3333333333333357,
          "durationTicks": 400,
          "midi": 79,
          "name": "G5",
          "ticks": 26400,
          "time": 22,
          "velocity": 0.8267716535433071
        },
        {
          "duration": 0.33333333333333215,
          "durationTicks": 400,
          "midi": 72,
          "name": "C5",
          "ticks": 26880,
          "time": 22.400000000000002,
          "velocity": 0.8267716535433071
        },
        {
          "duration": 0.33333333333333215,
          "durationTicks": 400,
          "midi": 76,
          "name": "E5",
          "ticks": 26880,
          "time": 22.400000000000002,
          "velocity": 0.8267716535433071
        },
        {
          "duration": 0.3333333333333357,
          "durationTicks": 400,
          "midi": 67,
          "name": "G4",
          "ticks": 27360,
          "time": 22.8,
          "velocity": 0.8267716535433071
        },
        {
          "duration": 0.3333333333333357,
          "durationTicks": 400,
          "midi": 76,
          "name": "E5",
          "ticks": 27360,
          "time": 22.8,
          "velocity": 0.8267716535433071
        },
        {
          "duration": 0.3333333333333357,
          "durationTicks": 400,
          "midi": 84,
          "name": "C6",
          "ticks": 27360,
          "time": 22.8,
          "velocity": 0.8267716535433071
        },
        {
          "duration": 0.3333333333333357,
          "durationTicks": 400,
          "midi": 67,
          "name": "G4",
          "ticks": 28320,
          "time": 23.6,
          "velocity": 0.8267716535433071
        },
        {
          "duration": 0.3333333333333357,
          "durationTicks": 400,
          "midi": 74,
          "name": "D5",
          "ticks": 28320,
          "time": 23.6,
          "velocity": 0.8267716535433071
        },
        {
          "duration": 0.3333333333333357,
          "durationTicks": 400,
          "midi": 83,
          "name": "B5",
          "ticks": 28320,
          "time": 23.6,
          "velocity": 0.8267716535433071
        },
        {
          "duration": 0.33333333333333215,
          "durationTicks": 400,
          "midi": 67,
          "name": "G4",
          "ticks": 29280,
          "time": 24.400000000000002,
          "velocity": 0.8267716535433071
        },
        {
          "duration": 0.33333333333333215,
          "durationTicks": 400,
          "midi": 76,
          "name": "E5",
          "ticks": 29280,
          "time": 24.400000000000002,
          "velocity": 0.8267716535433071
        },
        {
          "duration": 0.33333333333333215,
          "durationTicks": 400,
          "midi": 84,
          "name": "C6",
          "ticks": 29280,
          "time": 24.400000000000002,
          "velocity": 0.8267716535433071
        },
        {
          "duration": 0.33333333333333215,
          "durationTicks": 400,
          "midi": 67,
          "name": "G4",
          "ticks": 30240,
          "time": 25.200000000000003,
          "velocity": 0.8267716535433071
        },
        {
          "duration": 0.33333333333333215,
          "durationTicks": 400,
          "midi": 74,
          "name": "D5",
          "ticks": 30240,
          "time": 25.200000000000003,
          "velocity": 0.8267716535433071
        },
        {
          "duration": 0.33333333333333215,
          "durationTicks": 400,
          "midi": 83,
          "name": "B5",
          "ticks": 30240,
          "time": 25.200000000000003,
          "velocity": 0.8267716535433071
        },
        {
          "duration": 0.33333333333333215,
          "durationTicks": 400,
          "midi": 67,
          "name": "G4",
          "ticks": 30720,
          "time": 25.6,
          "velocity": 0.8267716535433071
        },
        {
          "duration": 0.33333333333333215,
          "durationTicks": 400,
          "midi": 76,
          "name": "E5",
          "ticks": 30720,
          "time": 25.6,
          "velocity": 0.8267716535433071
        },
        {
          "duration": 0.33333333333333215,
          "durationTicks": 400,
          "midi": 84,
          "name": "C6",
          "ticks": 30720,
          "time": 25.6,
          "velocity": 0.8267716535433071
        },
        {
          "duration": 0.33333333333333215,
          "durationTicks": 400,
          "midi": 79,
          "name": "G5",
          "ticks": 31200,
          "time": 26,
          "velocity": 0.8267716535433071
        },
        {
          "duration": 0.33333333333333215,
          "durationTicks": 400,
          "midi": 84,
          "name": "C6",
          "ticks": 31680,
          "time": 26.400000000000002,
          "velocity": 0.8267716535433071
        },
        {
          "duration": 0.33333333333333215,
          "durationTicks": 400,
          "midi": 79,
          "name": "G5",
          "ticks": 32160,
          "time": 26.8,
          "velocity": 0.8267716535433071
        },
        {
          "duration": 0.3333333333333286,
          "durationTicks": 400,
          "midi": 84,
          "name": "C6",
          "ticks": 32640,
          "time": 27.200000000000003,
          "velocity": 0.8267716535433071
        },
        {
          "duration": 0.33333333333333215,
          "durationTicks": 400,
          "midi": 79,
          "name": "G5",
          "ticks": 33120,
          "time": 27.6,
          "velocity": 0.8267716535433071
        },
        {
          "duration": 0.33333333333333215,
          "durationTicks": 400,
          "midi": 76,
          "name": "E5",
          "ticks": 33600,
          "time": 28,
          "velocity": 0.8267716535433071
        },
        {
          "duration": 0.33333333333333215,
          "durationTicks": 400,
          "midi": 72,
          "name": "C5",
          "ticks": 34080,
          "time": 28.400000000000002,
          "velocity": 0.8267716535433071
        },
        {
          "duration": 0.33333333333333215,
          "durationTicks": 400,
          "midi": 67,
          "name": "G4",
          "ticks": 34560,
          "time": 28.8,
          "velocity": 0.8267716535433071
        },
        {
          "duration": 0.19666666666666188,
          "durationTicks": 236,
          "midi": 83,
          "name": "B5",
          "ticks": 35280,
          "time": 29.400000000000002,
          "velocity": 0.8267716535433071
        },
        {
          "duration": 0.33333333333333215,
          "durationTicks": 400,
          "midi": 84,
          "name": "C6",
          "ticks": 35520,
          "time": 29.6,
          "velocity": 0.8267716535433071
        },
        {
          "duration": 0.19666666666666188,
          "durationTicks": 236,
          "midi": 84,
          "name": "C6",
          "ticks": 36240,
          "time": 30.200000000000003,
          "velocity": 0.8267716535433071
        },
        {
          "duration": 0.33333333333333215,
          "durationTicks": 400,
          "midi": 83,
          "name": "B5",
          "ticks": 36480,
          "time": 30.400000000000002,
          "velocity": 0.8267716535433071
        },
        {
          "duration": 0.19666666666666544,
          "durationTicks": 236,
          "midi": 83,
          "name": "B5",
          "ticks": 37200,
          "time": 31,
          "velocity": 0.8267716535433071
        },
        {
          "duration": 0.3333333333333286,
          "durationTicks": 400,
          "midi": 84,
          "name": "C6",
          "ticks": 37440,
          "time": 31.200000000000003,
          "velocity": 0.8267716535433071
        },
        {
          "duration": 0.19666666666666544,
          "durationTicks": 236,
          "midi": 84,
          "name": "C6",
          "ticks": 38160,
          "time": 31.8,
          "velocity": 0.8267716535433071
        },
        {
          "duration": 0.19666666666666544,
          "durationTicks": 236,
          "midi": 83,
          "name": "B5",
          "ticks": 38400,
          "time": 32,
          "velocity": 0.8267716535433071
        },
        {
          "duration": 0.19666666666666544,
          "durationTicks": 236,
          "midi": 84,
          "name": "C6",
          "ticks": 38640,
          "time": 32.2,
          "velocity": 0.8346456692913385
        },
        {
          "duration": 0.19666666666666544,
          "durationTicks": 236,
          "midi": 83,
          "name": "B5",
          "ticks": 38880,
          "time": 32.4,
          "velocity": 0.8503937007874016
        },
        {
          "duration": 0.19666666666666544,
          "durationTicks": 236,
          "midi": 84,
          "name": "C6",
          "ticks": 39120,
          "time": 32.6,
          "velocity": 0.8582677165354331
        },
        {
          "duration": 0.19666666666665833,
          "durationTicks": 236,
          "midi": 83,
          "name": "B5",
          "ticks": 39360,
          "time": 32.800000000000004,
          "velocity": 0.8661417322834646
        },
        {
          "duration": 0.19666666666666544,
          "durationTicks": 236,
          "midi": 84,
          "name": "C6",
          "ticks": 39600,
          "time": 33,
          "velocity": 0.8740157480314961
        },
        {
          "duration": 0.19666666666666544,
          "durationTicks": 236,
          "midi": 83,
          "name": "B5",
          "ticks": 39840,
          "time": 33.2,
          "velocity": 0.8818897637795275
        },
        {
          "duration": 0.19666666666666544,
          "durationTicks": 236,
          "midi": 84,
          "name": "C6",
          "ticks": 40080,
          "time": 33.4,
          "velocity": 0.889763779527559
        },
        {
          "duration": 0.3333333333333286,
          "durationTicks": 400,
          "midi": 83,
          "name": "B5",
          "ticks": 40320,
          "time": 33.6,
          "velocity": 0.905511811023622
        },
        {
          "duration": 0.3333333333333357,
          "durationTicks": 400,
          "midi": 62,
          "name": "D4",
          "ticks": 40800,
          "time": 34,
          "velocity": 0.9212598425196851
        },
        {
          "duration": 0.3333333333333357,
          "durationTicks": 400,
          "midi": 71,
          "name": "B4",
          "ticks": 40800,
          "time": 34,
          "velocity": 0.9212598425196851
        },
        {
          "duration": 0.3333333333333357,
          "durationTicks": 400,
          "midi": 79,
          "name": "G5",
          "ticks": 40800,
          "time": 34,
          "velocity": 0.9212598425196851
        },
        {
          "duration": 0.3333333333333357,
          "durationTicks": 400,
          "midi": 55,
          "name": "G3",
          "ticks": 41280,
          "time": 34.4,
          "velocity": 0.937007874015748
        },
        {
          "duration": 0.3333333333333357,
          "durationTicks": 400,
          "midi": 67,
          "name": "G4",
          "ticks": 41280,
          "time": 34.4,
          "velocity": 0.937007874015748
        },
        {
          "duration": 0.3333333333333286,
          "durationTicks": 400,
          "midi": 55,
          "name": "G3",
          "ticks": 41760,
          "time": 34.800000000000004,
          "velocity": 0.952755905511811
        },
        {
          "duration": 0.3333333333333286,
          "durationTicks": 400,
          "midi": 67,
          "name": "G4",
          "ticks": 41760,
          "time": 34.800000000000004,
          "velocity": 0.952755905511811
        },
        {
          "duration": 1.5,
          "durationTicks": 1800,
          "midi": 55,
          "name": "G3",
          "ticks": 42240,
          "time": 35.2,
          "velocity": 0.9763779527559056
        },
        {
          "duration": 1.5,
          "durationTicks": 1800,
          "midi": 67,
          "name": "G4",
          "ticks": 42240,
          "time": 35.2,
          "velocity": 0.9763779527559056
        },
        {
          "duration": 0.3333333333333286,
          "durationTicks": 400,
          "midi": 60,
          "name": "C4",
          "ticks": 44160,
          "time": 36.800000000000004,
          "velocity": 0.4015748031496063
        },
        {
          "duration": 0.06666666666666998,
          "durationTicks": 80,
          "midi": 55,
          "name": "G3",
          "ticks": 44880,
          "time": 37.4,
          "velocity": 0.4015748031496063
        },
        {
          "duration": 0.06666666666666288,
          "durationTicks": 80,
          "midi": 57,
          "name": "A3",
          "ticks": 44960,
          "time": 37.46666666666667,
          "velocity": 0.4015748031496063
        },
        {
          "duration": 0.06666666666666998,
          "durationTicks": 80,
          "midi": 59,
          "name": "B3",
          "ticks": 45040,
          "time": 37.53333333333333,
          "velocity": 0.4015748031496063
        },
        {
          "duration": 0.3333333333333286,
          "durationTicks": 400,
          "midi": 60,
          "name": "C4",
          "ticks": 45120,
          "time": 37.6,
          "velocity": 0.4015748031496063
        },
        {
          "duration": 0.06666666666666998,
          "durationTicks": 80,
          "midi": 55,
          "name": "G3",
          "ticks": 45840,
          "time": 38.2,
          "velocity": 0.4015748031496063
        },
        {
          "duration": 0.06666666666666288,
          "durationTicks": 80,
          "midi": 57,
          "name": "A3",
          "ticks": 45920,
          "time": 38.26666666666667,
          "velocity": 0.4015748031496063
        },
        {
          "duration": 0.06666666666666998,
          "durationTicks": 80,
          "midi": 59,
          "name": "B3",
          "ticks": 46000,
          "time": 38.333333333333336,
          "velocity": 0.4015748031496063
        },
        {
          "duration": 0.3333333333333286,
          "durationTicks": 400,
          "midi": 60,
          "name": "C4",
          "ticks": 46080,
          "time": 38.400000000000006,
          "velocity": 0.4015748031496063
        },
        {
          "duration": 0.19666666666666544,
          "durationTicks": 236,
          "midi": 72,
          "name": "C5",
          "ticks": 47760,
          "time": 39.800000000000004,
          "velocity": 0.4015748031496063
        },
        {
          "duration": 0.6000000000000014,
          "durationTicks": 720,
          "midi": 72,
          "name": "C5",
          "ticks": 48000,
          "time": 40,
          "velocity": 0.4015748031496063
        },
        {
          "duration": 0.20000000000000284,
          "durationTicks": 240,
          "midi": 71,
          "name": "B4",
          "ticks": 48720,
          "time": 40.6,
          "velocity": 0.4015748031496063
        },
        {
          "duration": 0.6000000000000014,
          "durationTicks": 720,
          "midi": 74,
          "name": "D5",
          "ticks": 48960,
          "time": 40.800000000000004,
          "velocity": 0.4015748031496063
        },
        {
          "duration": 0.19666666666665833,
          "durationTicks": 236,
          "midi": 72,
          "name": "C5",
          "ticks": 49680,
          "time": 41.400000000000006,
          "velocity": 0.4015748031496063
        },
        {
          "duration": 0.8000000000000043,
          "durationTicks": 960,
          "midi": 79,
          "name": "G5",
          "ticks": 49920,
          "time": 41.6,
          "velocity": 0.4015748031496063
        },
        {
          "duration": 0.3333333333333286,
          "durationTicks": 400,
          "midi": 77,
          "name": "F5",
          "ticks": 50880,
          "time": 42.400000000000006,
          "velocity": 0.4015748031496063
        },
        {
          "duration": 0.3333333333333286,
          "durationTicks": 400,
          "midi": 67,
          "name": "G4",
          "ticks": 51840,
          "time": 43.2,
          "velocity": 0.4015748031496063
        },
        {
          "duration": 0.06666666666666998,
          "durationTicks": 80,
          "midi": 62,
          "name": "D4",
          "ticks": 52560,
          "time": 43.800000000000004,
          "velocity": 0.4015748031496063
        },
        {
          "duration": 0.06666666666666288,
          "durationTicks": 80,
          "midi": 64,
          "name": "E4",
          "ticks": 52640,
          "time": 43.866666666666674,
          "velocity": 0.4015748031496063
        },
        {
          "duration": 0.06666666666666288,
          "durationTicks": 80,
          "midi": 66,
          "name": "F#4",
          "ticks": 52720,
          "time": 43.93333333333334,
          "velocity": 0.4015748031496063
        },
        {
          "duration": 0.3333333333333357,
          "durationTicks": 400,
          "midi": 67,
          "name": "G4",
          "ticks": 52800,
          "time": 44,
          "velocity": 0.4015748031496063
        },
        {
          "duration": 0.06666666666666998,
          "durationTicks": 80,
          "midi": 62,
          "name": "D4",
          "ticks": 53520,
          "time": 44.6,
          "velocity": 0.4015748031496063
        },
        {
          "duration": 0.06666666666666288,
          "durationTicks": 80,
          "midi": 64,
          "name": "E4",
          "ticks": 53600,
          "time": 44.66666666666667,
          "velocity": 0.4015748031496063
        },
        {
          "duration": 0.06666666666666998,
          "durationTicks": 80,
          "midi": 66,
          "name": "F#4",
          "ticks": 53680,
          "time": 44.733333333333334,
          "velocity": 0.4015748031496063
        },
        {
          "duration": 0.3333333333333286,
          "durationTicks": 400,
          "midi": 67,
          "name": "G4",
          "ticks": 53760,
          "time": 44.800000000000004,
          "velocity": 0.4015748031496063
        },
        {
          "duration": 0.19666666666666544,
          "durationTicks": 236,
          "midi": 74,
          "name": "D5",
          "ticks": 55440,
          "time": 46.2,
          "velocity": 0.4015748031496063
        },
        {
          "duration": 0.5999999999999943,
          "durationTicks": 720,
          "midi": 74,
          "name": "D5",
          "ticks": 55680,
          "time": 46.400000000000006,
          "velocity": 0.4015748031496063
        },
        {
          "duration": 0.20000000000000284,
          "durationTicks": 240,
          "midi": 73,
          "name": "C#5",
          "ticks": 56400,
          "time": 47,
          "velocity": 0.4015748031496063
        },
        {
          "duration": 0.6000000000000014,
          "durationTicks": 720,
          "midi": 76,
          "name": "E5",
          "ticks": 56640,
          "time": 47.2,
          "velocity": 0.4015748031496063
        },
        {
          "duration": 0.19666666666666544,
          "durationTicks": 236,
          "midi": 74,
          "name": "D5",
          "ticks": 57360,
          "time": 47.800000000000004,
          "velocity": 0.4015748031496063
        },
        {
          "duration": 0.8000000000000043,
          "durationTicks": 960,
          "midi": 82,
          "name": "A#5",
          "ticks": 57600,
          "time": 48,
          "velocity": 0.4015748031496063
        },
        {
          "duration": 0.19666666666666544,
          "durationTicks": 236,
          "midi": 81,
          "name": "A5",
          "ticks": 58560,
          "time": 48.800000000000004,
          "velocity": 0.4015748031496063
        },
        {
          "duration": 0.2666666666666657,
          "durationTicks": 320,
          "midi": 76,
          "name": "E5",
          "ticks": 59040,
          "time": 49.2,
          "velocity": 0.4015748031496063
        },
        {
          "duration": 0.8000000000000043,
          "durationTicks": 960,
          "midi": 79,
          "name": "G5",
          "ticks": 59520,
          "time": 49.6,
          "velocity": 0.4015748031496063
        },
        {
          "duration": 0.19666666666665833,
          "durationTicks": 236,
          "midi": 78,
          "name": "F#5",
          "ticks": 60480,
          "time": 50.400000000000006,
          "velocity": 0.4015748031496063
        },
        {
          "duration": 0.2666666666666657,
          "durationTicks": 320,
          "midi": 74,
          "name": "D5",
          "ticks": 60960,
          "time": 50.800000000000004,
          "velocity": 0.4015748031496063
        },
        {
          "duration": 0.7999999999999972,
          "durationTicks": 960,
          "midi": 80,
          "name": "G#5",
          "ticks": 61440,
          "time": 51.2,
          "velocity": 0.4015748031496063
        },
        {
          "duration": 0.19666666666667254,
          "durationTicks": 236,
          "midi": 79,
          "name": "G5",
          "ticks": 62400,
          "time": 52,
          "velocity": 0.4015748031496063
        },
        {
          "duration": 0.2666666666666586,
          "durationTicks": 320,
          "midi": 74,
          "name": "D5",
          "ticks": 62880,
          "time": 52.400000000000006,
          "velocity": 0.4015748031496063
        },
        {
          "duration": 0.7999999999999972,
          "durationTicks": 960,
          "midi": 77,
          "name": "F5",
          "ticks": 63360,
          "time": 52.800000000000004,
          "velocity": 0.4015748031496063
        },
        {
          "duration": 0.19666666666667254,
          "durationTicks": 236,
          "midi": 76,
          "name": "E5",
          "ticks": 64320,
          "time": 53.6,
          "velocity": 0.4015748031496063
        },
        {
          "duration": 0.2666666666666657,
          "durationTicks": 320,
          "midi": 72,
          "name": "C5",
          "ticks": 64800,
          "time": 54,
          "velocity": 0.4015748031496063
        },
        {
          "duration": 0.3999999999999986,
          "durationTicks": 480,
          "midi": 79,
          "name": "G5",
          "ticks": 65280,
          "time": 54.400000000000006,
          "velocity": 0.4015748031496063
        },
        {
          "duration": 0.7999999999999972,
          "durationTicks": 960,
          "midi": 77,
          "name": "F5",
          "ticks": 65760,
          "time": 54.800000000000004,
          "velocity": 0.4015748031496063
        },
        {
          "duration": 0.3999999999999986,
          "durationTicks": 480,
          "midi": 76,
          "name": "E5",
          "ticks": 66720,
          "time": 55.6,
          "velocity": 0.4015748031496063
        },
        {
          "duration": 0.3333333333333428,
          "durationTicks": 400,
          "midi": 76,
          "name": "E5",
          "ticks": 67200,
          "time": 56,
          "velocity": 0.4015748031496063
        },
        {
          "duration": 0.3333333333333357,
          "durationTicks": 400,
          "midi": 74,
          "name": "D5",
          "ticks": 67680,
          "time": 56.400000000000006,
          "velocity": 0.4015748031496063
        },
        {
          "duration": 0.3333333333333357,
          "durationTicks": 400,
          "midi": 81,
          "name": "A5",
          "ticks": 68160,
          "time": 56.800000000000004,
          "velocity": 0.4015748031496063
        },
        {
          "duration": 0.3333333333333357,
          "durationTicks": 400,
          "midi": 72,
          "name": "C5",
          "ticks": 68640,
          "time": 57.2,
          "velocity": 0.4015748031496063
        },
        {
          "duration": 0.3333333333333357,
          "durationTicks": 400,
          "midi": 62,
          "name": "D4",
          "ticks": 69120,
          "time": 57.6,
          "velocity": 0.8267716535433071
        },
        {
          "duration": 0.3333333333333357,
          "durationTicks": 400,
          "midi": 71,
          "name": "B4",
          "ticks": 69120,
          "time": 57.6,
          "velocity": 0.8267716535433071
        },
        {
          "duration": 0.3333333333333357,
          "durationTicks": 400,
          "midi": 79,
          "name": "G5",
          "ticks": 69120,
          "time": 57.6,
          "velocity": 0.8267716535433071
        },
        {
          "duration": 0.06666666666666288,
          "durationTicks": 80,
          "midi": 62,
          "name": "D4",
          "ticks": 69840,
          "time": 58.2,
          "velocity": 0.8267716535433071
        },
        {
          "duration": 0.06666666666667709,
          "durationTicks": 80,
          "midi": 64,
          "name": "E4",
          "ticks": 69920,
          "time": 58.266666666666666,
          "velocity": 0.8267716535433071
        },
        {
          "duration": 0.06666666666666288,
          "durationTicks": 80,
          "midi": 66,
          "name": "F#4",
          "ticks": 70000,
          "time": 58.33333333333334,
          "velocity": 0.8267716535433071
        },
        {
          "duration": 0.3333333333333357,
          "durationTicks": 400,
          "midi": 67,
          "name": "G4",
          "ticks": 70080,
          "time": 58.400000000000006,
          "velocity": 0.8267716535433071
        },
        {
          "duration": 0.06666666666666288,
          "durationTicks": 80,
          "midi": 62,
          "name": "D4",
          "ticks": 70800,
          "time": 59,
          "velocity": 0.8267716535433071
        },
        {
          "duration": 0.06666666666667709,
          "durationTicks": 80,
          "midi": 64,
          "name": "E4",
          "ticks": 70880,
          "time": 59.06666666666666,
          "velocity": 0.8267716535433071
        },
        {
          "duration": 0.06666666666666288,
          "durationTicks": 80,
          "midi": 66,
          "name": "F#4",
          "ticks": 70960,
          "time": 59.13333333333334,
          "velocity": 0.8267716535433071
        },
        {
          "duration": 0.3333333333333357,
          "durationTicks": 400,
          "midi": 67,
          "name": "G4",
          "ticks": 71040,
          "time": 59.2,
          "velocity": 0.8267716535433071
        },
        {
          "duration": 0.13333333333333997,
          "durationTicks": 160,
          "midi": 79,
          "name": "G5",
          "ticks": 72720,
          "time": 60.6,
          "velocity": 0.8267716535433071
        },
        {
          "duration": 0.6000000000000014,
          "durationTicks": 720,
          "midi": 81,
          "name": "A5",
          "ticks": 72960,
          "time": 60.800000000000004,
          "velocity": 0.8267716535433071
        },
        {
          "duration": 0.19666666666666544,
          "durationTicks": 236,
          "midi": 79,
          "name": "G5",
          "ticks": 73680,
          "time": 61.400000000000006,
          "velocity": 0.8267716535433071
        },
        {
          "duration": 0.6000000000000014,
          "durationTicks": 720,
          "midi": 83,
          "name": "B5",
          "ticks": 73920,
          "time": 61.6,
          "velocity": 0.8267716535433071
        },
        {
          "duration": 0.19666666666667254,
          "durationTicks": 236,
          "midi": 81,
          "name": "A5",
          "ticks": 74640,
          "time": 62.2,
          "velocity": 0.8267716535433071
        },
        {
          "duration": 0.7999999999999972,
          "durationTicks": 960,
          "midi": 84,
          "name": "C6",
          "ticks": 74880,
          "time": 62.400000000000006,
          "velocity": 0.8267716535433071
        },
        {
          "duration": 0.3333333333333357,
          "durationTicks": 400,
          "midi": 83,
          "name": "B5",
          "ticks": 75840,
          "time": 63.2,
          "velocity": 0.8267716535433071
        },
        {
          "duration": 0.13333333333333286,
          "durationTicks": 160,
          "midi": 80,
          "name": "G#5",
          "ticks": 76560,
          "time": 63.800000000000004,
          "velocity": 0.8267716535433071
        },
        {
          "duration": 0.6000000000000085,
          "durationTicks": 720,
          "midi": 83,
          "name": "B5",
          "ticks": 76800,
          "time": 64,
          "velocity": 0.8267716535433071
        },
        {
          "duration": 0.19666666666665833,
          "durationTicks": 236,
          "midi": 81,
          "name": "A5",
          "ticks": 77520,
          "time": 64.60000000000001,
          "velocity": 0.8267716535433071
        },
        {
          "duration": 0.6000000000000085,
          "durationTicks": 720,
          "midi": 84,
          "name": "C6",
          "ticks": 77760,
          "time": 64.8,
          "velocity": 0.8267716535433071
        },
        {
          "duration": 0.19666666666667254,
          "durationTicks": 236,
          "midi": 83,
          "name": "B5",
          "ticks": 78480,
          "time": 65.4,
          "velocity": 0.8267716535433071
        },
        {
          "duration": 0.7999999999999972,
          "durationTicks": 960,
          "midi": 86,
          "name": "D6",
          "ticks": 78720,
          "time": 65.60000000000001,
          "velocity": 0.8267716535433071
        },
        {
          "duration": 0.3333333333333286,
          "durationTicks": 400,
          "midi": 84,
          "name": "C6",
          "ticks": 79680,
          "time": 66.4,
          "velocity": 0.8267716535433071
        },
        {
          "duration": 0.15000000000000568,
          "durationTicks": 180,
          "midi": 81,
          "name": "A5",
          "ticks": 80400,
          "time": 67,
          "velocity": 0.8267716535433071
        },
        {
          "duration": 0.5999999999999943,
          "durationTicks": 720,
          "midi": 84,
          "name": "C6",
          "ticks": 80640,
          "time": 67.2,
          "velocity": 0.8267716535433071
        },
        {
          "duration": 0.19666666666667254,
          "durationTicks": 236,
          "midi": 83,
          "name": "B5",
          "ticks": 81360,
          "time": 67.8,
          "velocity": 0.8267716535433071
        },
        {
          "duration": 0.6000000000000085,
          "durationTicks": 720,
          "midi": 86,
          "name": "D6",
          "ticks": 81600,
          "time": 68,
          "velocity": 0.8267716535433071
        },
        {
          "duration": 0.19666666666665833,
          "durationTicks": 236,
          "midi": 85,
          "name": "C#6",
          "ticks": 82320,
          "time": 68.60000000000001,
          "velocity": 0.8267716535433071
        },
        {
          "duration": 0.8000000000000114,
          "durationTicks": 960,
          "midi": 88,
          "name": "E6",
          "ticks": 82560,
          "time": 68.8,
          "velocity": 0.8267716535433071
        },
        {
          "duration": 0.3333333333333286,
          "durationTicks": 400,
          "midi": 86,
          "name": "D6",
          "ticks": 83520,
          "time": 69.60000000000001,
          "velocity": 0.8267716535433071
        },
        {
          "duration": 0.15000000000000568,
          "durationTicks": 180,
          "midi": 83,
          "name": "B5",
          "ticks": 84240,
          "time": 70.2,
          "velocity": 0.8267716535433071
        },
        {
          "duration": 0.7999999999999972,
          "durationTicks": 960,
          "midi": 86,
          "name": "D6",
          "ticks": 84480,
          "time": 70.4,
          "velocity": 0.8267716535433071
        },
        {
          "duration": 0.3333333333333428,
          "durationTicks": 400,
          "midi": 84,
          "name": "C6",
          "ticks": 85440,
          "time": 71.2,
          "velocity": 0.8267716535433071
        },
        {
          "duration": 0.15000000000000568,
          "durationTicks": 180,
          "midi": 82,
          "name": "A#5",
          "ticks": 86160,
          "time": 71.8,
          "velocity": 0.8267716535433071
        },
        {
          "duration": 0.7999999999999972,
          "durationTicks": 960,
          "midi": 84,
          "name": "C6",
          "ticks": 86400,
          "time": 72,
          "velocity": 0.8267716535433071
        },
        {
          "duration": 0.3333333333333428,
          "durationTicks": 400,
          "midi": 83,
          "name": "B5",
          "ticks": 87360,
          "time": 72.8,
          "velocity": 0.8267716535433071
        },
        {
          "duration": 0.14999999999999147,
          "durationTicks": 180,
          "midi": 83,
          "name": "B5",
          "ticks": 88080,
          "time": 73.4,
          "velocity": 0.8267716535433071
        },
        {
          "duration": 0.3333333333333286,
          "durationTicks": 400,
          "midi": 81,
          "name": "A5",
          "ticks": 88320,
          "time": 73.60000000000001,
          "velocity": 0.8267716535433071
        },
        {
          "duration": 0.3333333333333428,
          "durationTicks": 400,
          "midi": 80,
          "name": "G#5",
          "ticks": 88800,
          "time": 74,
          "velocity": 0.8267716535433071
        },
        {
          "duration": 0.3333333333333286,
          "durationTicks": 400,
          "midi": 81,
          "name": "A5",
          "ticks": 89280,
          "time": 74.4,
          "velocity": 0.8267716535433071
        },
        {
          "duration": 0.3333333333333428,
          "durationTicks": 400,
          "midi": 80,
          "name": "G#5",
          "ticks": 89760,
          "time": 74.8,
          "velocity": 0.8267716535433071
        },
        {
          "duration": 0.3333333333333428,
          "durationTicks": 400,
          "midi": 81,
          "name": "A5",
          "ticks": 90240,
          "time": 75.2,
          "velocity": 0.8267716535433071
        },
        {
          "duration": 0.3333333333333286,
          "durationTicks": 400,
          "midi": 84,
          "name": "C6",
          "ticks": 90720,
          "time": 75.60000000000001,
          "velocity": 0.8267716535433071
        },
        {
          "duration": 0.3333333333333428,
          "durationTicks": 400,
          "midi": 81,
          "name": "A5",
          "ticks": 91200,
          "time": 76,
          "velocity": 0.8267716535433071
        },
        {
          "duration": 0.3333333333333286,
          "durationTicks": 400,
          "midi": 79,
          "name": "G5",
          "ticks": 91680,
          "time": 76.4,
          "velocity": 0.8267716535433071
        },
        {
          "duration": 0.3333333333333286,
          "durationTicks": 400,
          "midi": 78,
          "name": "F#5",
          "ticks": 92160,
          "time": 76.80000000000001,
          "velocity": 0.8267716535433071
        },
        {
          "duration": 0.3333333333333428,
          "durationTicks": 400,
          "midi": 62,
          "name": "D4",
          "ticks": 93600,
          "time": 78,
          "velocity": 0.8267716535433071
        },
        {
          "duration": 0.3333333333333428,
          "durationTicks": 400,
          "midi": 74,
          "name": "D5",
          "ticks": 93600,
          "time": 78,
          "velocity": 0.8267716535433071
        },
        {
          "duration": 0.3333333333333428,
          "durationTicks": 400,
          "midi": 81,
          "name": "A5",
          "ticks": 93600,
          "time": 78,
          "velocity": 0.8267716535433071
        },
        {
          "duration": 0.3333333333333428,
          "durationTicks": 400,
          "midi": 62,
          "name": "D4",
          "ticks": 94080,
          "time": 78.4,
          "velocity": 0.8267716535433071
        },
        {
          "duration": 0.3333333333333428,
          "durationTicks": 400,
          "midi": 74,
          "name": "D5",
          "ticks": 94080,
          "time": 78.4,
          "velocity": 0.8267716535433071
        },
        {
          "duration": 0.3333333333333428,
          "durationTicks": 400,
          "midi": 83,
          "name": "B5",
          "ticks": 94080,
          "time": 78.4,
          "velocity": 0.8267716535433071
        },
        {
          "duration": 0.3333333333333286,
          "durationTicks": 400,
          "midi": 62,
          "name": "D4",
          "ticks": 95520,
          "time": 79.60000000000001,
          "velocity": 0.8267716535433071
        },
        {
          "duration": 0.3333333333333286,
          "durationTicks": 400,
          "midi": 71,
          "name": "B4",
          "ticks": 95520,
          "time": 79.60000000000001,
          "velocity": 0.8267716535433071
        },
        {
          "duration": 0.3333333333333286,
          "durationTicks": 400,
          "midi": 79,
          "name": "G5",
          "ticks": 95520,
          "time": 79.60000000000001,
          "velocity": 0.8267716535433071
        },
        {
          "duration": 0.3333333333333428,
          "durationTicks": 400,
          "midi": 62,
          "name": "D4",
          "ticks": 96000,
          "time": 80,
          "velocity": 0.8267716535433071
        },
        {
          "duration": 0.3333333333333428,
          "durationTicks": 400,
          "midi": 74,
          "name": "D5",
          "ticks": 96000,
          "time": 80,
          "velocity": 0.8267716535433071
        },
        {
          "duration": 0.3333333333333428,
          "durationTicks": 400,
          "midi": 86,
          "name": "D6",
          "ticks": 96000,
          "time": 80,
          "velocity": 0.8267716535433071
        },
        {
          "duration": 0.3333333333333428,
          "durationTicks": 400,
          "midi": 62,
          "name": "D4",
          "ticks": 97440,
          "time": 81.2,
          "velocity": 0.8267716535433071
        },
        {
          "duration": 0.3333333333333428,
          "durationTicks": 400,
          "midi": 74,
          "name": "D5",
          "ticks": 97440,
          "time": 81.2,
          "velocity": 0.8267716535433071
        },
        {
          "duration": 0.3333333333333428,
          "durationTicks": 400,
          "midi": 81,
          "name": "A5",
          "ticks": 97440,
          "time": 81.2,
          "velocity": 0.8267716535433071
        },
        {
          "duration": 0.3333333333333286,
          "durationTicks": 400,
          "midi": 62,
          "name": "D4",
          "ticks": 97920,
          "time": 81.60000000000001,
          "velocity": 0.8267716535433071
        },
        {
          "duration": 0.3333333333333286,
          "durationTicks": 400,
          "midi": 74,
          "name": "D5",
          "ticks": 97920,
          "time": 81.60000000000001,
          "velocity": 0.8267716535433071
        },
        {
          "duration": 0.3333333333333286,
          "durationTicks": 400,
          "midi": 83,
          "name": "B5",
          "ticks": 97920,
          "time": 81.60000000000001,
          "velocity": 0.8267716535433071
        },
        {
          "duration": 0.3333333333333286,
          "durationTicks": 400,
          "midi": 62,
          "name": "D4",
          "ticks": 99360,
          "time": 82.80000000000001,
          "velocity": 0.8267716535433071
        },
        {
          "duration": 0.3333333333333286,
          "durationTicks": 400,
          "midi": 74,
          "name": "D5",
          "ticks": 99360,
          "time": 82.80000000000001,
          "velocity": 0.8267716535433071
        },
        {
          "duration": 0.3333333333333286,
          "durationTicks": 400,
          "midi": 79,
          "name": "G5",
          "ticks": 99360,
          "time": 82.80000000000001,
          "velocity": 0.8267716535433071
        },
        {
          "duration": 0.3333333333333428,
          "durationTicks": 400,
          "midi": 62,
          "name": "D4",
          "ticks": 99840,
          "time": 83.2,
          "velocity": 0.8267716535433071
        },
        {
          "duration": 0.3333333333333428,
          "durationTicks": 400,
          "midi": 74,
          "name": "D5",
          "ticks": 99840,
          "time": 83.2,
          "velocity": 0.8267716535433071
        },
        {
          "duration": 0.3333333333333428,
          "durationTicks": 400,
          "midi": 86,
          "name": "D6",
          "ticks": 99840,
          "time": 83.2,
          "velocity": 0.8267716535433071
        },
        {
          "duration": 0.3333333333333286,
          "durationTicks": 400,
          "midi": 62,
          "name": "D4",
          "ticks": 100320,
          "time": 83.60000000000001,
          "velocity": 0.8267716535433071
        },
        {
          "duration": 0.3333333333333286,
          "durationTicks": 400,
          "midi": 74,
          "name": "D5",
          "ticks": 100320,
          "time": 83.60000000000001,
          "velocity": 0.8267716535433071
        },
        {
          "duration": 0.3333333333333286,
          "durationTicks": 400,
          "midi": 81,
          "name": "A5",
          "ticks": 100320,
          "time": 83.60000000000001,
          "velocity": 0.8267716535433071
        },
        {
          "duration": 0.3333333333333428,
          "durationTicks": 400,
          "midi": 62,
          "name": "D4",
          "ticks": 101280,
          "time": 84.4,
          "velocity": 0.8267716535433071
        },
        {
          "duration": 0.3333333333333428,
          "durationTicks": 400,
          "midi": 74,
          "name": "D5",
          "ticks": 101280,
          "time": 84.4,
          "velocity": 0.8267716535433071
        },
        {
          "duration": 0.3333333333333428,
          "durationTicks": 400,
          "midi": 83,
          "name": "B5",
          "ticks": 101280,
          "time": 84.4,
          "velocity": 0.8267716535433071
        },
        {
          "duration": 0.3333333333333428,
          "durationTicks": 400,
          "midi": 62,
          "name": "D4",
          "ticks": 102240,
          "time": 85.2,
          "velocity": 0.8267716535433071
        },
        {
          "duration": 0.3333333333333428,
          "durationTicks": 400,
          "midi": 74,
          "name": "D5",
          "ticks": 102240,
          "time": 85.2,
          "velocity": 0.8267716535433071
        },
        {
          "duration": 0.3333333333333428,
          "durationTicks": 400,
          "midi": 81,
          "name": "A5",
          "ticks": 102240,
          "time": 85.2,
          "velocity": 0.8267716535433071
        },
        {
          "duration": 0.3333333333333428,
          "durationTicks": 400,
          "midi": 62,
          "name": "D4",
          "ticks": 103200,
          "time": 86,
          "velocity": 0.8267716535433071
        },
        {
          "duration": 0.3333333333333428,
          "durationTicks": 400,
          "midi": 74,
          "name": "D5",
          "ticks": 103200,
          "time": 86,
          "velocity": 0.8267716535433071
        },
        {
          "duration": 0.3333333333333428,
          "durationTicks": 400,
          "midi": 83,
          "name": "B5",
          "ticks": 103200,
          "time": 86,
          "velocity": 0.8267716535433071
        },
        {
          "duration": 0.3333333333333428,
          "durationTicks": 400,
          "midi": 62,
          "name": "D4",
          "ticks": 103680,
          "time": 86.4,
          "velocity": 0.8267716535433071
        },
        {
          "duration": 0.3333333333333428,
          "durationTicks": 400,
          "midi": 74,
          "name": "D5",
          "ticks": 103680,
          "time": 86.4,
          "velocity": 0.8267716535433071
        },
        {
          "duration": 0.3333333333333428,
          "durationTicks": 400,
          "midi": 81,
          "name": "A5",
          "ticks": 103680,
          "time": 86.4,
          "velocity": 0.8267716535433071
        },
        {
          "duration": 1.2000000000000028,
          "durationTicks": 1440,
          "midi": 79,
          "name": "G5",
          "ticks": 105600,
          "time": 88,
          "velocity": 0.4015748031496063
        },
        {
          "duration": 0.4000000000000057,
          "durationTicks": 480,
          "midi": 80,
          "name": "G#5",
          "ticks": 107040,
          "time": 89.2,
          "velocity": 0.4015748031496063
        },
        {
          "duration": 0.3333333333333286,
          "durationTicks": 400,
          "midi": 81,
          "name": "A5",
          "ticks": 107520,
          "time": 89.60000000000001,
          "velocity": 0.4015748031496063
        },
        {
          "duration": 0.29999999999999716,
          "durationTicks": 360,
          "midi": 84,
          "name": "C6",
          "ticks": 109920,
          "time": 91.60000000000001,
          "velocity": 0.4015748031496063
        },
        {
          "duration": 0.09999999999999432,
          "durationTicks": 120,
          "midi": 81,
          "name": "A5",
          "ticks": 110280,
          "time": 91.9,
          "velocity": 0.4015748031496063
        },
        {
          "duration": 0.19666666666667254,
          "durationTicks": 236,
          "midi": 78,
          "name": "F#5",
          "ticks": 110400,
          "time": 92,
          "velocity": 0.4015748031496063
        },
        {
          "duration": 0.06666666666666288,
          "durationTicks": 80,
          "midi": 78,
          "name": "F#5",
          "ticks": 110880,
          "time": 92.4,
          "velocity": 0.4015748031496063
        },
        {
          "duration": 0.04999999999999716,
          "durationTicks": 60,
          "midi": 81,
          "name": "A5",
          "ticks": 111360,
          "time": 92.80000000000001,
          "velocity": 0.4015748031496063
        },
        {
          "duration": 0.04999999999999716,
          "durationTicks": 60,
          "midi": 79,
          "name": "G5",
          "ticks": 111420,
          "time": 92.85000000000001,
          "velocity": 0.4015748031496063
        },
        {
          "duration": 0.04999999999999716,
          "durationTicks": 60,
          "midi": 81,
          "name": "A5",
          "ticks": 111480,
          "time": 92.9,
          "velocity": 0.4015748031496063
        },
        {
          "duration": 0.04999999999999716,
          "durationTicks": 60,
          "midi": 79,
          "name": "G5",
          "ticks": 111540,
          "time": 92.95,
          "velocity": 0.4015748031496063
        },
        {
          "duration": 0.05000000000001137,
          "durationTicks": 60,
          "midi": 81,
          "name": "A5",
          "ticks": 111600,
          "time": 93,
          "velocity": 0.4015748031496063
        },
        {
          "duration": 0.04999999999999716,
          "durationTicks": 60,
          "midi": 79,
          "name": "G5",
          "ticks": 111660,
          "time": 93.05000000000001,
          "velocity": 0.4015748031496063
        },
        {
          "duration": 0.04999999999999716,
          "durationTicks": 60,
          "midi": 81,
          "name": "A5",
          "ticks": 111720,
          "time": 93.10000000000001,
          "velocity": 0.4015748031496063
        },
        {
          "duration": 0.04999999999999716,
          "durationTicks": 60,
          "midi": 79,
          "name": "G5",
          "ticks": 111780,
          "time": 93.15,
          "velocity": 0.4015748031496063
        },
        {
          "duration": 0.04999999999999716,
          "durationTicks": 60,
          "midi": 81,
          "name": "A5",
          "ticks": 111840,
          "time": 93.2,
          "velocity": 0.4015748031496063
        },
        {
          "duration": 0.05000000000001137,
          "durationTicks": 60,
          "midi": 79,
          "name": "G5",
          "ticks": 111900,
          "time": 93.25,
          "velocity": 0.4015748031496063
        },
        {
          "duration": 0.04999999999999716,
          "durationTicks": 60,
          "midi": 81,
          "name": "A5",
          "ticks": 111960,
          "time": 93.30000000000001,
          "velocity": 0.4015748031496063
        },
        {
          "duration": 0.04999999999999716,
          "durationTicks": 60,
          "midi": 79,
          "name": "G5",
          "ticks": 112020,
          "time": 93.35000000000001,
          "velocity": 0.4015748031496063
        },
        {
          "duration": 0.09999999999999432,
          "durationTicks": 120,
          "midi": 78,
          "name": "F#5",
          "ticks": 112080,
          "time": 93.4,
          "velocity": 0.4015748031496063
        },
        {
          "duration": 0.10000000000000853,
          "durationTicks": 120,
          "midi": 76,
          "name": "E5",
          "ticks": 112200,
          "time": 93.5,
          "velocity": 0.4015748031496063
        },
        {
          "duration": 0.19666666666667254,
          "durationTicks": 236,
          "midi": 74,
          "name": "D5",
          "ticks": 112320,
          "time": 93.60000000000001,
          "velocity": 0.4015748031496063
        },
        {
          "duration": 0.30000000000001137,
          "durationTicks": 360,
          "midi": 74,
          "name": "D5",
          "ticks": 112800,
          "time": 94,
          "velocity": 0.4015748031496063
        },
        {
          "duration": 0.09666666666666401,
          "durationTicks": 116,
          "midi": 76,
          "name": "E5",
          "ticks": 113160,
          "time": 94.30000000000001,
          "velocity": 0.4015748031496063
        },
        {
          "duration": 0.06666666666666288,
          "durationTicks": 80,
          "midi": 72,
          "name": "C5",
          "ticks": 113280,
          "time": 94.4,
          "velocity": 0.4015748031496063
        },
        {
          "duration": 0.29999999999999716,
          "durationTicks": 360,
          "midi": 72,
          "name": "C5",
          "ticks": 113760,
          "time": 94.80000000000001,
          "velocity": 0.4015748031496063
        },
        {
          "duration": 0.09666666666666401,
          "durationTicks": 116,
          "midi": 74,
          "name": "D5",
          "ticks": 114120,
          "time": 95.10000000000001,
          "velocity": 0.4015748031496063
        },
        {
          "duration": 0.19666666666667254,
          "durationTicks": 236,
          "midi": 71,
          "name": "B4",
          "ticks": 114240,
          "time": 95.2,
          "velocity": 0.4015748031496063
        },
        {
          "duration": 0.29999999999999716,
          "durationTicks": 360,
          "midi": 71,
          "name": "B4",
          "ticks": 114720,
          "time": 95.60000000000001,
          "velocity": 0.4015748031496063
        },
        {
          "duration": 0.09666666666666401,
          "durationTicks": 116,
          "midi": 72,
          "name": "C5",
          "ticks": 115080,
          "time": 95.9,
          "velocity": 0.4015748031496063
        },
        {
          "duration": 0.20000000000000284,
          "durationTicks": 240,
          "midi": 69,
          "name": "A4",
          "ticks": 115200,
          "time": 96,
          "velocity": 0.4015748031496063
        },
        {
          "duration": 0.20000000000000284,
          "durationTicks": 240,
          "midi": 71,
          "name": "B4",
          "ticks": 115440,
          "time": 96.2,
          "velocity": 0.4015748031496063
        },
        {
          "duration": 0.20000000000000284,
          "durationTicks": 240,
          "midi": 72,
          "name": "C5",
          "ticks": 115680,
          "time": 96.4,
          "velocity": 0.4015748031496063
        },
        {
          "duration": 0.20000000000000284,
          "durationTicks": 240,
          "midi": 73,
          "name": "C#5",
          "ticks": 115920,
          "time": 96.60000000000001,
          "velocity": 0.4015748031496063
        },
        {
          "duration": 0.19999999999998863,
          "durationTicks": 240,
          "midi": 74,
          "name": "D5",
          "ticks": 116160,
          "time": 96.80000000000001,
          "velocity": 0.4015748031496063
        },
        {
          "duration": 0.20000000000000284,
          "durationTicks": 240,
          "midi": 75,
          "name": "D#5",
          "ticks": 116400,
          "time": 97,
          "velocity": 0.4015748031496063
        },
        {
          "duration": 0.20000000000000284,
          "durationTicks": 240,
          "midi": 76,
          "name": "E5",
          "ticks": 116640,
          "time": 97.2,
          "velocity": 0.4015748031496063
        },
        {
          "duration": 0.19666666666667254,
          "durationTicks": 236,
          "midi": 78,
          "name": "F#5",
          "ticks": 116880,
          "time": 97.4,
          "velocity": 0.4015748031496063
        },
        {
          "duration": 1.2000000000000028,
          "durationTicks": 1440,
          "midi": 79,
          "name": "G5",
          "ticks": 117120,
          "time": 97.60000000000001,
          "velocity": 0.4015748031496063
        },
        {
          "duration": 0.3999999999999915,
          "durationTicks": 480,
          "midi": 80,
          "name": "G#5",
          "ticks": 118560,
          "time": 98.80000000000001,
          "velocity": 0.4015748031496063
        },
        {
          "duration": 0.3333333333333428,
          "durationTicks": 400,
          "midi": 81,
          "name": "A5",
          "ticks": 119040,
          "time": 99.2,
          "velocity": 0.4015748031496063
        },
        {
          "duration": 0.29999999999999716,
          "durationTicks": 360,
          "midi": 84,
          "name": "C6",
          "ticks": 121440,
          "time": 101.2,
          "velocity": 0.4015748031496063
        },
        {
          "duration": 0.10000000000000853,
          "durationTicks": 120,
          "midi": 81,
          "name": "A5",
          "ticks": 121800,
          "time": 101.5,
          "velocity": 0.4015748031496063
        },
        {
          "duration": 0.19666666666667254,
          "durationTicks": 236,
          "midi": 78,
          "name": "F#5",
          "ticks": 121920,
          "time": 101.60000000000001,
          "velocity": 0.4015748031496063
        },
        {
          "duration": 0.06666666666666288,
          "durationTicks": 80,
          "midi": 78,
          "name": "F#5",
          "ticks": 122400,
          "time": 102,
          "velocity": 0.4015748031496063
        },
        {
          "duration": 0.04999999999999716,
          "durationTicks": 60,
          "midi": 81,
          "name": "A5",
          "ticks": 122880,
          "time": 102.4,
          "velocity": 0.4015748031496063
        },
        {
          "duration": 0.04999999999999716,
          "durationTicks": 60,
          "midi": 79,
          "name": "G5",
          "ticks": 122940,
          "time": 102.45,
          "velocity": 0.4015748031496063
        },
        {
          "duration": 0.05000000000001137,
          "durationTicks": 60,
          "midi": 81,
          "name": "A5",
          "ticks": 123000,
          "time": 102.5,
          "velocity": 0.4015748031496063
        },
        {
          "duration": 0.04999999999999716,
          "durationTicks": 60,
          "midi": 79,
          "name": "G5",
          "ticks": 123060,
          "time": 102.55000000000001,
          "velocity": 0.4015748031496063
        },
        {
          "duration": 0.04999999999999716,
          "durationTicks": 60,
          "midi": 81,
          "name": "A5",
          "ticks": 123120,
          "time": 102.60000000000001,
          "velocity": 0.4015748031496063
        },
        {
          "duration": 0.04999999999999716,
          "durationTicks": 60,
          "midi": 79,
          "name": "G5",
          "ticks": 123180,
          "time": 102.65,
          "velocity": 0.4015748031496063
        },
        {
          "duration": 0.04999999999999716,
          "durationTicks": 60,
          "midi": 81,
          "name": "A5",
          "ticks": 123240,
          "time": 102.7,
          "velocity": 0.4015748031496063
        },
        {
          "duration": 0.05000000000001137,
          "durationTicks": 60,
          "midi": 79,
          "name": "G5",
          "ticks": 123300,
          "time": 102.75,
          "velocity": 0.4015748031496063
        },
        {
          "duration": 0.04999999999999716,
          "durationTicks": 60,
          "midi": 81,
          "name": "A5",
          "ticks": 123360,
          "time": 102.80000000000001,
          "velocity": 0.4015748031496063
        },
        {
          "duration": 0.04999999999999716,
          "durationTicks": 60,
          "midi": 79,
          "name": "G5",
          "ticks": 123420,
          "time": 102.85000000000001,
          "velocity": 0.4015748031496063
        },
        {
          "duration": 0.04999999999999716,
          "durationTicks": 60,
          "midi": 81,
          "name": "A5",
          "ticks": 123480,
          "time": 102.9,
          "velocity": 0.4015748031496063
        },
        {
          "duration": 0.04999999999999716,
          "durationTicks": 60,
          "midi": 79,
          "name": "G5",
          "ticks": 123540,
          "time": 102.95,
          "velocity": 0.4015748031496063
        },
        {
          "duration": 0.10000000000000853,
          "durationTicks": 120,
          "midi": 78,
          "name": "F#5",
          "ticks": 123600,
          "time": 103,
          "velocity": 0.4015748031496063
        },
        {
          "duration": 0.09999999999999432,
          "durationTicks": 120,
          "midi": 76,
          "name": "E5",
          "ticks": 123720,
          "time": 103.10000000000001,
          "velocity": 0.4015748031496063
        },
        {
          "duration": 0.19666666666667254,
          "durationTicks": 236,
          "midi": 74,
          "name": "D5",
          "ticks": 123840,
          "time": 103.2,
          "velocity": 0.4015748031496063
        },
        {
          "duration": 0.29999999999999716,
          "durationTicks": 360,
          "midi": 74,
          "name": "D5",
          "ticks": 124320,
          "time": 103.60000000000001,
          "velocity": 0.4015748031496063
        },
        {
          "duration": 0.09666666666666401,
          "durationTicks": 116,
          "midi": 76,
          "name": "E5",
          "ticks": 124680,
          "time": 103.9,
          "velocity": 0.4015748031496063
        },
        {
          "duration": 0.06666666666667709,
          "durationTicks": 80,
          "midi": 72,
          "name": "C5",
          "ticks": 124800,
          "time": 104,
          "velocity": 0.4015748031496063
        },
        {
          "duration": 0.29999999999999716,
          "durationTicks": 360,
          "midi": 72,
          "name": "C5",
          "ticks": 125280,
          "time": 104.4,
          "velocity": 0.4015748031496063
        },
        {
          "duration": 0.09666666666667822,
          "durationTicks": 116,
          "midi": 74,
          "name": "D5",
          "ticks": 125640,
          "time": 104.7,
          "velocity": 0.4015748031496063
        },
        {
          "duration": 0.19666666666665833,
          "durationTicks": 236,
          "midi": 71,
          "name": "B4",
          "ticks": 125760,
          "time": 104.80000000000001,
          "velocity": 0.4015748031496063
        },
        {
          "duration": 0.29999999999999716,
          "durationTicks": 360,
          "midi": 71,
          "name": "B4",
          "ticks": 126240,
          "time": 105.2,
          "velocity": 0.4015748031496063
        },
        {
          "duration": 0.09666666666667822,
          "durationTicks": 116,
          "midi": 72,
          "name": "C5",
          "ticks": 126600,
          "time": 105.5,
          "velocity": 0.4015748031496063
        },
        {
          "duration": 0.09999999999999432,
          "durationTicks": 120,
          "midi": 69,
          "name": "A4",
          "ticks": 126720,
          "time": 105.60000000000001,
          "velocity": 0.4015748031496063
        },
        {
          "duration": 0.10000000000000853,
          "durationTicks": 120,
          "midi": 69,
          "name": "A4",
          "ticks": 127200,
          "time": 106,
          "velocity": 0.4015748031496063
        },
        {
          "duration": 0.09999999999999432,
          "durationTicks": 120,
          "midi": 69,
          "name": "A4",
          "ticks": 127680,
          "time": 106.4,
          "velocity": 0.4015748031496063
        },
        {
          "duration": 0.29999999999999716,
          "durationTicks": 360,
          "midi": 71,
          "name": "B4",
          "ticks": 128160,
          "time": 106.80000000000001,
          "velocity": 0.4015748031496063
        },
        {
          "duration": 0.09666666666666401,
          "durationTicks": 116,
          "midi": 72,
          "name": "C5",
          "ticks": 128520,
          "time": 107.10000000000001,
          "velocity": 0.4015748031496063
        },
        {
          "duration": 0.06666666666667709,
          "durationTicks": 80,
          "midi": 74,
          "name": "D5",
          "ticks": 128640,
          "time": 107.2,
          "velocity": 0.4015748031496063
        },
        {
          "duration": 0.29999999999999716,
          "durationTicks": 360,
          "midi": 74,
          "name": "D5",
          "ticks": 129120,
          "time": 107.60000000000001,
          "velocity": 0.4015748031496063
        },
        {
          "duration": 0.09666666666666401,
          "durationTicks": 116,
          "midi": 76,
          "name": "E5",
          "ticks": 129480,
          "time": 107.9,
          "velocity": 0.4015748031496063
        },
        {
          "duration": 0.19666666666667254,
          "durationTicks": 236,
          "midi": 72,
          "name": "C5",
          "ticks": 129600,
          "time": 108,
          "velocity": 0.4015748031496063
        },
        {
          "duration": 0.29999999999999716,
          "durationTicks": 360,
          "midi": 72,
          "name": "C5",
          "ticks": 130080,
          "time": 108.4,
          "velocity": 0.4015748031496063
        },
        {
          "duration": 0.09666666666667822,
          "durationTicks": 116,
          "midi": 74,
          "name": "D5",
          "ticks": 130440,
          "time": 108.7,
          "velocity": 0.4015748031496063
        },
        {
          "duration": 0.09999999999999432,
          "durationTicks": 120,
          "midi": 71,
          "name": "B4",
          "ticks": 130560,
          "time": 108.80000000000001,
          "velocity": 0.4015748031496063
        },
        {
          "duration": 0.10000000000000853,
          "durationTicks": 120,
          "midi": 71,
          "name": "B4",
          "ticks": 131040,
          "time": 109.2,
          "velocity": 0.4015748031496063
        },
        {
          "duration": 0.20000000000000284,
          "durationTicks": 240,
          "midi": 71,
          "name": "B4",
          "ticks": 131520,
          "time": 109.60000000000001,
          "velocity": 0.4015748031496063
        },
        {
          "duration": 0.19999999999998863,
          "durationTicks": 240,
          "midi": 74,
          "name": "D5",
          "ticks": 131760,
          "time": 109.80000000000001,
          "velocity": 0.4015748031496063
        },
        {
          "duration": 0.20000000000000284,
          "durationTicks": 240,
          "midi": 72,
          "name": "C5",
          "ticks": 132000,
          "time": 110,
          "velocity": 0.4015748031496063
        },
        {
          "duration": 0.19666666666667254,
          "durationTicks": 236,
          "midi": 69,
          "name": "A4",
          "ticks": 132240,
          "time": 110.2,
          "velocity": 0.4015748031496063
        },
        {
          "duration": 1.2000000000000028,
          "durationTicks": 1440,
          "midi": 67,
          "name": "G4",
          "ticks": 132480,
          "time": 110.4,
          "velocity": 0.4015748031496063
        },
        {
          "duration": 0.20000000000000284,
          "durationTicks": 240,
          "midi": 71,
          "name": "B4",
          "ticks": 133920,
          "time": 111.60000000000001,
          "velocity": 0.4015748031496063
        },
        {
          "duration": 0.19999999999998863,
          "durationTicks": 240,
          "midi": 69,
          "name": "A4",
          "ticks": 134160,
          "time": 111.80000000000001,
          "velocity": 0.4015748031496063
        },
        {
          "duration": 0.3333333333333286,
          "durationTicks": 400,
          "midi": 67,
          "name": "G4",
          "ticks": 134400,
          "time": 112,
          "velocity": 0.4015748031496063
        },
        {
          "duration": 1.2000000000000028,
          "durationTicks": 1440,
          "midi": 81,
          "name": "A5",
          "ticks": 136320,
          "time": 113.60000000000001,
          "velocity": 0.4015748031496063
        },
        {
          "duration": 0.19999999999998863,
          "durationTicks": 240,
          "midi": 83,
          "name": "B5",
          "ticks": 137760,
          "time": 114.80000000000001,
          "velocity": 0.4015748031496063
        },
        {
          "duration": 0.19666666666667254,
          "durationTicks": 236,
          "midi": 84,
          "name": "C6",
          "ticks": 138000,
          "time": 115,
          "velocity": 0.4015748031496063
        },
        {
          "duration": 0.10000000000000853,
          "durationTicks": 120,
          "midi": 86,
          "name": "D6",
          "ticks": 138240,
          "time": 115.2,
          "velocity": 0.4015748031496063
        },
        {
          "duration": 0.09999999999999432,
          "durationTicks": 120,
          "midi": 86,
          "name": "D6",
          "ticks": 138720,
          "time": 115.60000000000001,
          "velocity": 0.4015748031496063
        },
        {
          "duration": 0.4000000000000057,
          "durationTicks": 480,
          "midi": 86,
          "name": "D6",
          "ticks": 139200,
          "time": 116,
          "velocity": 0.4015748031496063
        },
        {
          "duration": 0.09999999999999432,
          "durationTicks": 120,
          "midi": 84,
          "name": "C6",
          "ticks": 139680,
          "time": 116.4,
          "velocity": 0.4015748031496063
        },
        {
          "duration": 0.10000000000000853,
          "durationTicks": 120,
          "midi": 83,
          "name": "B5",
          "ticks": 139800,
          "time": 116.5,
          "velocity": 0.4015748031496063
        },
        {
          "duration": 0.09999999999999432,
          "durationTicks": 120,
          "midi": 81,
          "name": "A5",
          "ticks": 139920,
          "time": 116.60000000000001,
          "velocity": 0.4015748031496063
        },
        {
          "duration": 0.09666666666667822,
          "durationTicks": 116,
          "midi": 79,
          "name": "G5",
          "ticks": 140040,
          "time": 116.7,
          "velocity": 0.4015748031496063
        },
        {
          "duration": 0.09999999999999432,
          "durationTicks": 120,
          "midi": 81,
          "name": "A5",
          "ticks": 140160,
          "time": 116.80000000000001,
          "velocity": 0.4015748031496063
        },
        {
          "duration": 0.10000000000000853,
          "durationTicks": 120,
          "midi": 81,
          "name": "A5",
          "ticks": 140640,
          "time": 117.2,
          "velocity": 0.4015748031496063
        },
        {
          "duration": 0.3999999999999915,
          "durationTicks": 480,
          "midi": 81,
          "name": "A5",
          "ticks": 141120,
          "time": 117.60000000000001,
          "velocity": 0.4015748031496063
        },
        {
          "duration": 0.10000000000000853,
          "durationTicks": 120,
          "midi": 79,
          "name": "G5",
          "ticks": 141600,
          "time": 118,
          "velocity": 0.4015748031496063
        },
        {
          "duration": 0.09999999999999432,
          "durationTicks": 120,
          "midi": 78,
          "name": "F#5",
          "ticks": 141720,
          "time": 118.10000000000001,
          "velocity": 0.4015748031496063
        },
        {
          "duration": 0.10000000000000853,
          "durationTicks": 120,
          "midi": 76,
          "name": "E5",
          "ticks": 141840,
          "time": 118.2,
          "velocity": 0.4015748031496063
        },
        {
          "duration": 0.09666666666666401,
          "durationTicks": 116,
          "midi": 74,
          "name": "D5",
          "ticks": 141960,
          "time": 118.30000000000001,
          "velocity": 0.4015748031496063
        },
        {
          "duration": 0.3333333333333286,
          "durationTicks": 400,
          "midi": 79,
          "name": "G5",
          "ticks": 142080,
          "time": 118.4,
          "velocity": 0.4015748031496063
        },
        {
          "duration": 1.2000000000000028,
          "durationTicks": 1440,
          "midi": 81,
          "name": "A5",
          "ticks": 144000,
          "time": 120,
          "velocity": 0.4015748031496063
        },
        {
          "duration": 0.20000000000000284,
          "durationTicks": 240,
          "midi": 83,
          "name": "B5",
          "ticks": 145440,
          "time": 121.2,
          "velocity": 0.4015748031496063
        },
        {
          "duration": 0.19666666666667254,
          "durationTicks": 236,
          "midi": 84,
          "name": "C6",
          "ticks": 145680,
          "time": 121.4,
          "velocity": 0.4015748031496063
        },
        {
          "duration": 0.09999999999999432,
          "durationTicks": 120,
          "midi": 86,
          "name": "D6",
          "ticks": 145920,
          "time": 121.60000000000001,
          "velocity": 0.4015748031496063
        },
        {
          "duration": 0.10000000000000853,
          "durationTicks": 120,
          "midi": 86,
          "name": "D6",
          "ticks": 146400,
          "time": 122,
          "velocity": 0.4015748031496063
        },
        {
          "duration": 0.4000000000000057,
          "durationTicks": 480,
          "midi": 86,
          "name": "D6",
          "ticks": 146880,
          "time": 122.4,
          "velocity": 0.4015748031496063
        },
        {
          "duration": 0.09999999999999432,
          "durationTicks": 120,
          "midi": 84,
          "name": "C6",
          "ticks": 147360,
          "time": 122.80000000000001,
          "velocity": 0.4015748031496063
        },
        {
          "duration": 0.09999999999999432,
          "durationTicks": 120,
          "midi": 83,
          "name": "B5",
          "ticks": 147480,
          "time": 122.9,
          "velocity": 0.4015748031496063
        },
        {
          "duration": 0.10000000000000853,
          "durationTicks": 120,
          "midi": 81,
          "name": "A5",
          "ticks": 147600,
          "time": 123,
          "velocity": 0.4015748031496063
        },
        {
          "duration": 0.09666666666666401,
          "durationTicks": 116,
          "midi": 80,
          "name": "G#5",
          "ticks": 147720,
          "time": 123.10000000000001,
          "velocity": 0.4015748031496063
        },
        {
          "duration": 0.10000000000000853,
          "durationTicks": 120,
          "midi": 88,
          "name": "E6",
          "ticks": 147840,
          "time": 123.2,
          "velocity": 0.4015748031496063
        },
        {
          "duration": 0.09999999999999432,
          "durationTicks": 120,
          "midi": 88,
          "name": "E6",
          "ticks": 148320,
          "time": 123.60000000000001,
          "velocity": 0.4015748031496063
        },
        {
          "duration": 0.4000000000000057,
          "durationTicks": 480,
          "midi": 88,
          "name": "E6",
          "ticks": 148800,
          "time": 124,
          "velocity": 0.4015748031496063
        },
        {
          "duration": 0.09999999999999432,
          "durationTicks": 120,
          "midi": 86,
          "name": "D6",
          "ticks": 149280,
          "time": 124.4,
          "velocity": 0.4015748031496063
        },
        {
          "duration": 0.10000000000000853,
          "durationTicks": 120,
          "midi": 84,
          "name": "C6",
          "ticks": 149400,
          "time": 124.5,
          "velocity": 0.4015748031496063
        },
        {
          "duration": 0.09999999999999432,
          "durationTicks": 120,
          "midi": 83,
          "name": "B5",
          "ticks": 149520,
          "time": 124.60000000000001,
          "velocity": 0.4015748031496063
        },
        {
          "duration": 0.09666666666667822,
          "durationTicks": 116,
          "midi": 81,
          "name": "A5",
          "ticks": 149640,
          "time": 124.7,
          "velocity": 0.4015748031496063
        },
        {
          "duration": 0.09999999999999432,
          "durationTicks": 120,
          "midi": 89,
          "name": "F6",
          "ticks": 149760,
          "time": 124.80000000000001,
          "velocity": 0.4015748031496063
        },
        {
          "duration": 0.10000000000000853,
          "durationTicks": 120,
          "midi": 89,
          "name": "F6",
          "ticks": 150240,
          "time": 125.2,
          "velocity": 0.4015748031496063
        },
        {
          "duration": 0.09999999999999432,
          "durationTicks": 120,
          "midi": 89,
          "name": "F6",
          "ticks": 150720,
          "time": 125.60000000000001,
          "velocity": 0.4015748031496063
        },
        {
          "duration": 1.5,
          "durationTicks": 1800,
          "midi": 87,
          "name": "D#6",
          "ticks": 153600,
          "time": 128,
          "velocity": 0.8267716535433071
        },
        {
          "duration": 0.05000000000001137,
          "durationTicks": 60,
          "midi": 86,
          "name": "D6",
          "ticks": 155520,
          "time": 129.6,
          "velocity": 0.8267716535433071
        },
        {
          "duration": 0.6833333333333371,
          "durationTicks": 820,
          "midi": 87,
          "name": "D#6",
          "ticks": 155580,
          "time": 129.65,
          "velocity": 0.8267716535433071
        },
        {
          "duration": 0.05000000000001137,
          "durationTicks": 60,
          "midi": 86,
          "name": "D6",
          "ticks": 156480,
          "time": 130.4,
          "velocity": 0.8267716535433071
        },
        {
          "duration": 0.6833333333333087,
          "durationTicks": 820,
          "midi": 87,
          "name": "D#6",
          "ticks": 156540,
          "time": 130.45000000000002,
          "velocity": 0.8267716535433071
        },
        {
          "duration": 1.5,
          "durationTicks": 1800,
          "midi": 88,
          "name": "E6",
          "ticks": 157440,
          "time": 131.20000000000002,
          "velocity": 0.8267716535433071
        },
        {
          "duration": 0.6999999999999886,
          "durationTicks": 840,
          "midi": 89,
          "name": "F6",
          "ticks": 159360,
          "time": 132.8,
          "velocity": 0.8267716535433071
        },
        {
          "duration": 0.700000000000017,
          "durationTicks": 840,
          "midi": 56,
          "name": "G#3",
          "ticks": 160320,
          "time": 133.6,
          "velocity": 0.8267716535433071
        },
        {
          "duration": 0.700000000000017,
          "durationTicks": 840,
          "midi": 65,
          "name": "F4",
          "ticks": 160320,
          "time": 133.6,
          "velocity": 0.8267716535433071
        },
        {
          "duration": 0.3333333333333144,
          "durationTicks": 400,
          "midi": 55,
          "name": "G3",
          "ticks": 161280,
          "time": 134.4,
          "velocity": 0.8267716535433071
        },
        {
          "duration": 0.3333333333333144,
          "durationTicks": 400,
          "midi": 64,
          "name": "E4",
          "ticks": 161280,
          "time": 134.4,
          "velocity": 0.8267716535433071
        },
        {
          "duration": 0.3333333333333144,
          "durationTicks": 400,
          "midi": 64,
          "name": "E4",
          "ticks": 161760,
          "time": 134.8,
          "velocity": 0.8267716535433071
        },
        {
          "duration": 0.3333333333333144,
          "durationTicks": 400,
          "midi": 67,
          "name": "G4",
          "ticks": 162240,
          "time": 135.20000000000002,
          "velocity": 0.8267716535433071
        },
        {
          "duration": 0.3333333333333428,
          "durationTicks": 400,
          "midi": 72,
          "name": "C5",
          "ticks": 162720,
          "time": 135.6,
          "velocity": 0.8267716535433071
        },
        {
          "duration": 0.3333333333333428,
          "durationTicks": 400,
          "midi": 76,
          "name": "E5",
          "ticks": 163200,
          "time": 136,
          "velocity": 0.8267716535433071
        },
        {
          "duration": 0.3333333333333144,
          "durationTicks": 400,
          "midi": 79,
          "name": "G5",
          "ticks": 163680,
          "time": 136.4,
          "velocity": 0.8267716535433071
        },
        {
          "duration": 0.26666666666667993,
          "durationTicks": 320,
          "midi": 84,
          "name": "C6",
          "ticks": 164160,
          "time": 136.8,
          "velocity": 0.8267716535433071
        },
        {
          "duration": 0.19999999999998863,
          "durationTicks": 240,
          "midi": 88,
          "name": "E6",
          "ticks": 164640,
          "time": 137.20000000000002,
          "velocity": 0.8267716535433071
        },
        {
          "duration": 0.19666666666668675,
          "durationTicks": 236,
          "midi": 62,
          "name": "D4",
          "ticks": 165120,
          "time": 137.6,
          "velocity": 0.8267716535433071
        },
        {
          "duration": 0.19666666666668675,
          "durationTicks": 236,
          "midi": 74,
          "name": "D5",
          "ticks": 165120,
          "time": 137.6,
          "velocity": 0.8267716535433071
        },
        {
          "duration": 0.19666666666668675,
          "durationTicks": 236,
          "midi": 86,
          "name": "D6",
          "ticks": 165120,
          "time": 137.6,
          "velocity": 0.8267716535433071
        },
        {
          "duration": 0.700000000000017,
          "durationTicks": 840,
          "midi": 86,
          "name": "D6",
          "ticks": 165600,
          "time": 138,
          "velocity": 0.8267716535433071
        },
        {
          "duration": 0.046666666666652645,
          "durationTicks": 56,
          "midi": 84,
          "name": "C6",
          "ticks": 166560,
          "time": 138.8,
          "velocity": 0.8267716535433071
        },
        {
          "duration": 0.14666666666667538,
          "durationTicks": 176,
          "midi": 83,
          "name": "B5",
          "ticks": 166620,
          "time": 138.85,
          "velocity": 0.8267716535433071
        },
        {
          "duration": 0.09666666666666401,
          "durationTicks": 116,
          "midi": 81,
          "name": "A5",
          "ticks": 166800,
          "time": 139,
          "velocity": 0.8267716535433071
        },
        {
          "duration": 0.09666666666669244,
          "durationTicks": 116,
          "midi": 79,
          "name": "G5",
          "ticks": 166920,
          "time": 139.1,
          "velocity": 0.8267716535433071
        },
        {
          "duration": 0.3333333333333144,
          "durationTicks": 400,
          "midi": 86,
          "name": "D6",
          "ticks": 167040,
          "time": 139.20000000000002,
          "velocity": 0.8267716535433071
        },
        {
          "duration": 0.04666666666668107,
          "durationTicks": 56,
          "midi": 84,
          "name": "C6",
          "ticks": 167520,
          "time": 139.6,
          "velocity": 0.8267716535433071
        },
        {
          "duration": 0.14666666666667538,
          "durationTicks": 176,
          "midi": 83,
          "name": "B5",
          "ticks": 167580,
          "time": 139.65,
          "velocity": 0.8267716535433071
        },
        {
          "duration": 0.09666666666666401,
          "durationTicks": 116,
          "midi": 81,
          "name": "A5",
          "ticks": 167760,
          "time": 139.8,
          "velocity": 0.8267716535433071
        },
        {
          "duration": 0.09666666666666401,
          "durationTicks": 116,
          "midi": 79,
          "name": "G5",
          "ticks": 167880,
          "time": 139.9,
          "velocity": 0.8267716535433071
        },
        {
          "duration": 0.26666666666667993,
          "durationTicks": 320,
          "midi": 83,
          "name": "B5",
          "ticks": 168000,
          "time": 140,
          "velocity": 0.8267716535433071
        },
        {
          "duration": 0.26666666666667993,
          "durationTicks": 320,
          "midi": 81,
          "name": "A5",
          "ticks": 168480,
          "time": 140.4,
          "velocity": 0.8267716535433071
        },
        {
          "duration": 0.5999999999999943,
          "durationTicks": 720,
          "midi": 79,
          "name": "G5",
          "ticks": 168960,
          "time": 140.8,
          "velocity": 0.8267716535433071
        },
        {
          "duration": 0.19666666666665833,
          "durationTicks": 236,
          "midi": 78,
          "name": "F#5",
          "ticks": 169680,
          "time": 141.4,
          "velocity": 0.8267716535433071
        },
        {
          "duration": 0.30000000000001137,
          "durationTicks": 360,
          "midi": 81,
          "name": "A5",
          "ticks": 169920,
          "time": 141.6,
          "velocity": 0.8267716535433071
        },
        {
          "duration": 0.09999999999999432,
          "durationTicks": 120,
          "midi": 79,
          "name": "G5",
          "ticks": 170280,
          "time": 141.9,
          "velocity": 0.8267716535433071
        },
        {
          "duration": 0.30000000000001137,
          "durationTicks": 360,
          "midi": 84,
          "name": "C6",
          "ticks": 170400,
          "time": 142,
          "velocity": 0.8267716535433071
        },
        {
          "duration": 0.09666666666666401,
          "durationTicks": 116,
          "midi": 83,
          "name": "B5",
          "ticks": 170760,
          "time": 142.3,
          "velocity": 0.8267716535433071
        },
        {
          "duration": 0.5999999999999943,
          "durationTicks": 720,
          "midi": 81,
          "name": "A5",
          "ticks": 170880,
          "time": 142.4,
          "velocity": 0.8267716535433071
        },
        {
          "duration": 0.19666666666668675,
          "durationTicks": 236,
          "midi": 80,
          "name": "G#5",
          "ticks": 171600,
          "time": 143,
          "velocity": 0.8267716535433071
        },
        {
          "duration": 0.29999999999998295,
          "durationTicks": 360,
          "midi": 83,
          "name": "B5",
          "ticks": 171840,
          "time": 143.20000000000002,
          "velocity": 0.8267716535433071
        },
        {
          "duration": 0.09999999999999432,
          "durationTicks": 120,
          "midi": 81,
          "name": "A5",
          "ticks": 172200,
          "time": 143.5,
          "velocity": 0.8267716535433071
        },
        {
          "duration": 0.30000000000001137,
          "durationTicks": 360,
          "midi": 86,
          "name": "D6",
          "ticks": 172320,
          "time": 143.6,
          "velocity": 0.8267716535433071
        },
        {
          "duration": 0.09666666666666401,
          "durationTicks": 116,
          "midi": 84,
          "name": "C6",
          "ticks": 172680,
          "time": 143.9,
          "velocity": 0.8267716535433071
        },
        {
          "duration": 0.5999999999999943,
          "durationTicks": 720,
          "midi": 83,
          "name": "B5",
          "ticks": 172800,
          "time": 144,
          "velocity": 0.8267716535433071
        },
        {
          "duration": 0.19666666666668675,
          "durationTicks": 236,
          "midi": 82,
          "name": "A#5",
          "ticks": 173520,
          "time": 144.6,
          "velocity": 0.8267716535433071
        },
        {
          "duration": 0.29999999999998295,
          "durationTicks": 360,
          "midi": 84,
          "name": "C6",
          "ticks": 173760,
          "time": 144.8,
          "velocity": 0.8267716535433071
        },
        {
          "duration": 0.10000000000002274,
          "durationTicks": 120,
          "midi": 83,
          "name": "B5",
          "ticks": 174120,
          "time": 145.1,
          "velocity": 0.8267716535433071
        },
        {
          "duration": 0.29999999999998295,
          "durationTicks": 360,
          "midi": 88,
          "name": "E6",
          "ticks": 174240,
          "time": 145.20000000000002,
          "velocity": 0.8267716535433071
        },
        {
          "duration": 0.09666666666666401,
          "durationTicks": 116,
          "midi": 86,
          "name": "D6",
          "ticks": 174600,
          "time": 145.5,
          "velocity": 0.8267716535433071
        },
        {
          "duration": 0.09666666666669244,
          "durationTicks": 116,
          "midi": 84,
          "name": "C6",
          "ticks": 174720,
          "time": 145.6,
          "velocity": 0.6771653543307087
        },
        {
          "duration": 0.09999999999999432,
          "durationTicks": 120,
          "midi": 86,
          "name": "D6",
          "ticks": 174840,
          "time": 145.70000000000002,
          "velocity": 0.6771653543307087
        },
        {
          "duration": 0.09999999999999432,
          "durationTicks": 120,
          "midi": 88,
          "name": "E6",
          "ticks": 174960,
          "time": 145.8,
          "velocity": 0.6771653543307087
        },
        {
          "duration": 0.09666666666666401,
          "durationTicks": 116,
          "midi": 86,
          "name": "D6",
          "ticks": 175080,
          "time": 145.9,
          "velocity": 0.6771653543307087
        },
        {
          "duration": 0.19666666666668675,
          "durationTicks": 236,
          "midi": 84,
          "name": "C6",
          "ticks": 175200,
          "time": 146,
          "velocity": 0.6771653543307087
        },
        {
          "duration": 0.06666666666666288,
          "durationTicks": 80,
          "midi": 84,
          "name": "C6",
          "ticks": 175440,
          "time": 146.20000000000002,
          "velocity": 0.6771653543307087
        },
        {
          "duration": 0.09666666666666401,
          "durationTicks": 116,
          "midi": 83,
          "name": "B5",
          "ticks": 175680,
          "time": 146.4,
          "velocity": 0.6771653543307087
        },
        {
          "duration": 0.09999999999999432,
          "durationTicks": 120,
          "midi": 84,
          "name": "C6",
          "ticks": 175800,
          "time": 146.5,
          "velocity": 0.6771653543307087
        },
        {
          "duration": 0.10000000000002274,
          "durationTicks": 120,
          "midi": 86,
          "name": "D6",
          "ticks": 175920,
          "time": 146.6,
          "velocity": 0.6771653543307087
        },
        {
          "duration": 0.09666666666666401,
          "durationTicks": 116,
          "midi": 84,
          "name": "C6",
          "ticks": 176040,
          "time": 146.70000000000002,
          "velocity": 0.6771653543307087
        },
        {
          "duration": 0.19666666666665833,
          "durationTicks": 236,
          "midi": 83,
          "name": "B5",
          "ticks": 176160,
          "time": 146.8,
          "velocity": 0.6771653543307087
        },
        {
          "duration": 0.0666666666666913,
          "durationTicks": 80,
          "midi": 83,
          "name": "B5",
          "ticks": 176400,
          "time": 147,
          "velocity": 0.6771653543307087
        },
        {
          "duration": 0.5999999999999943,
          "durationTicks": 720,
          "midi": 81,
          "name": "A5",
          "ticks": 176640,
          "time": 147.20000000000002,
          "velocity": 0.6771653543307087
        },
        {
          "duration": 0.09999999999999432,
          "durationTicks": 120,
          "midi": 83,
          "name": "B5",
          "ticks": 177360,
          "time": 147.8,
          "velocity": 0.6771653543307087
        },
        {
          "duration": 0.09666666666666401,
          "durationTicks": 116,
          "midi": 84,
          "name": "C6",
          "ticks": 177480,
          "time": 147.9,
          "velocity": 0.6771653543307087
        },
        {
          "duration": 0.5999999999999943,
          "durationTicks": 720,
          "midi": 74,
          "name": "D5",
          "ticks": 177600,
          "time": 148,
          "velocity": 0.6771653543307087
        },
        {
          "duration": 0.10000000000002274,
          "durationTicks": 120,
          "midi": 76,
          "name": "E5",
          "ticks": 178320,
          "time": 148.6,
          "velocity": 0.6771653543307087
        },
        {
          "duration": 0.09666666666666401,
          "durationTicks": 116,
          "midi": 78,
          "name": "F#5",
          "ticks": 178440,
          "time": 148.70000000000002,
          "velocity": 0.6771653543307087
        },
        {
          "duration": 0.19666666666665833,
          "durationTicks": 236,
          "midi": 79,
          "name": "G5",
          "ticks": 178560,
          "time": 148.8,
          "velocity": 0.6771653543307087
        },
        {
          "duration": 0.3333333333333428,
          "durationTicks": 400,
          "midi": 79,
          "name": "G5",
          "ticks": 178800,
          "time": 149,
          "velocity": 0.6771653543307087
        },
        {
          "duration": 0.3333333333333144,
          "durationTicks": 400,
          "midi": 79,
          "name": "G5",
          "ticks": 179280,
          "time": 149.4,
          "velocity": 0.6771653543307087
        },
        {
          "duration": 0.3333333333333144,
          "durationTicks": 400,
          "midi": 79,
          "name": "G5",
          "ticks": 179760,
          "time": 149.8,
          "velocity": 0.6771653543307087
        },
        {
          "duration": 0.19999999999998863,
          "durationTicks": 240,
          "midi": 79,
          "name": "G5",
          "ticks": 180240,
          "time": 150.20000000000002,
          "velocity": 0.6771653543307087
        },
        {
          "duration": 0.19666666666665833,
          "durationTicks": 236,
          "midi": 79,
          "name": "G5",
          "ticks": 180480,
          "time": 150.4,
          "velocity": 0.6771653543307087
        },
        {
          "duration": 0.3333333333333428,
          "durationTicks": 400,
          "midi": 79,
          "name": "G5",
          "ticks": 180720,
          "time": 150.6,
          "velocity": 0.6771653543307087
        },
        {
          "duration": 0.3333333333333428,
          "durationTicks": 400,
          "midi": 79,
          "name": "G5",
          "ticks": 181200,
          "time": 151,
          "velocity": 0.6771653543307087
        },
        {
          "duration": 0.3333333333333144,
          "durationTicks": 400,
          "midi": 79,
          "name": "G5",
          "ticks": 181680,
          "time": 151.4,
          "velocity": 0.6771653543307087
        },
        {
          "duration": 0.19999999999998863,
          "durationTicks": 240,
          "midi": 79,
          "name": "G5",
          "ticks": 182160,
          "time": 151.8,
          "velocity": 0.6771653543307087
        },
        {
          "duration": 0.19666666666668675,
          "durationTicks": 236,
          "midi": 79,
          "name": "G5",
          "ticks": 182400,
          "time": 152,
          "velocity": 0.6771653543307087
        },
        {
          "duration": 0.3333333333333144,
          "durationTicks": 400,
          "midi": 79,
          "name": "G5",
          "ticks": 182640,
          "time": 152.20000000000002,
          "velocity": 0.6771653543307087
        },
        {
          "duration": 0.3333333333333428,
          "durationTicks": 400,
          "midi": 79,
          "name": "G5",
          "ticks": 183120,
          "time": 152.6,
          "velocity": 0.6771653543307087
        },
        {
          "duration": 0.3333333333333428,
          "durationTicks": 400,
          "midi": 79,
          "name": "G5",
          "ticks": 183600,
          "time": 153,
          "velocity": 0.6771653543307087
        },
        {
          "duration": 0.19666666666665833,
          "durationTicks": 236,
          "midi": 79,
          "name": "G5",
          "ticks": 184080,
          "time": 153.4,
          "velocity": 0.6771653543307087
        },
        {
          "duration": 0.3333333333333144,
          "durationTicks": 400,
          "midi": 79,
          "name": "G5",
          "ticks": 184320,
          "time": 153.60000000000002,
          "velocity": 0.6771653543307087
        },
        {
          "duration": 0.3333333333333428,
          "durationTicks": 400,
          "midi": 80,
          "name": "G#5",
          "ticks": 184800,
          "time": 154,
          "velocity": 0.6771653543307087
        },
        {
          "duration": 0.3333333333333428,
          "durationTicks": 400,
          "midi": 81,
          "name": "A5",
          "ticks": 185280,
          "time": 154.4,
          "velocity": 0.6771653543307087
        },
        {
          "duration": 0.3333333333333144,
          "durationTicks": 400,
          "midi": 83,
          "name": "B5",
          "ticks": 185760,
          "time": 154.8,
          "velocity": 0.6771653543307087
        },
        {
          "duration": 0.19666666666665833,
          "durationTicks": 236,
          "midi": 84,
          "name": "C6",
          "ticks": 186240,
          "time": 155.20000000000002,
          "velocity": 0.6771653543307087
        },
        {
          "duration": 0.3333333333333428,
          "durationTicks": 400,
          "midi": 84,
          "name": "C6",
          "ticks": 186480,
          "time": 155.4,
          "velocity": 0.6771653543307087
        },
        {
          "duration": 0.3333333333333144,
          "durationTicks": 400,
          "midi": 84,
          "name": "C6",
          "ticks": 186960,
          "time": 155.8,
          "velocity": 0.6771653543307087
        },
        {
          "duration": 0.3333333333333144,
          "durationTicks": 400,
          "midi": 84,
          "name": "C6",
          "ticks": 187440,
          "time": 156.20000000000002,
          "velocity": 0.6771653543307087
        },
        {
          "duration": 0.39999999999997726,
          "durationTicks": 480,
          "midi": 84,
          "name": "C6",
          "ticks": 187920,
          "time": 156.60000000000002,
          "velocity": 0.6771653543307087
        },
        {
          "duration": 0.20000000000001705,
          "durationTicks": 240,
          "midi": 81,
          "name": "A5",
          "ticks": 188400,
          "time": 157,
          "velocity": 0.4015748031496063
        },
        {
          "duration": 0.19999999999998863,
          "durationTicks": 240,
          "midi": 78,
          "name": "F#5",
          "ticks": 188640,
          "time": 157.20000000000002,
          "velocity": 0.4015748031496063
        },
        {
          "duration": 0.20000000000001705,
          "durationTicks": 240,
          "midi": 74,
          "name": "D5",
          "ticks": 188880,
          "time": 157.4,
          "velocity": 0.4015748031496063
        },
        {
          "duration": 0.19999999999998863,
          "durationTicks": 240,
          "midi": 72,
          "name": "C5",
          "ticks": 189120,
          "time": 157.60000000000002,
          "velocity": 0.4015748031496063
        },
        {
          "duration": 0.19999999999998863,
          "durationTicks": 240,
          "midi": 69,
          "name": "A4",
          "ticks": 189360,
          "time": 157.8,
          "velocity": 0.4015748031496063
        },
        {
          "duration": 0.20000000000001705,
          "durationTicks": 240,
          "midi": 66,
          "name": "F#4",
          "ticks": 189600,
          "time": 158,
          "velocity": 0.4015748031496063
        },
        {
          "duration": 0.19666666666665833,
          "durationTicks": 236,
          "midi": 62,
          "name": "D4",
          "ticks": 189840,
          "time": 158.20000000000002,
          "velocity": 0.4015748031496063
        },
        {
          "duration": 0.3333333333333428,
          "durationTicks": 400,
          "midi": 60,
          "name": "C4",
          "ticks": 190080,
          "time": 158.4,
          "velocity": 0.4015748031496063
        },
        {
          "duration": 0.19999999999998863,
          "durationTicks": 240,
          "midi": 74,
          "name": "D5",
          "ticks": 192720,
          "time": 160.60000000000002,
          "velocity": 0.4015748031496063
        },
        {
          "duration": 0.4000000000000057,
          "durationTicks": 480,
          "midi": 83,
          "name": "B5",
          "ticks": 192960,
          "time": 160.8,
          "velocity": 0.4015748031496063
        },
        {
          "duration": 0.15000000000000568,
          "durationTicks": 180,
          "midi": 83,
          "name": "B5",
          "ticks": 193440,
          "time": 161.20000000000002,
          "velocity": 0.4015748031496063
        },
        {
          "duration": 0.15000000000000568,
          "durationTicks": 180,
          "midi": 83,
          "name": "B5",
          "ticks": 193680,
          "time": 161.4,
          "velocity": 0.4015748031496063
        },
        {
          "duration": 0.19999999999998863,
          "durationTicks": 240,
          "midi": 83,
          "name": "B5",
          "ticks": 193920,
          "time": 161.60000000000002,
          "velocity": 0.4015748031496063
        },
        {
          "duration": 0.19666666666665833,
          "durationTicks": 236,
          "midi": 81,
          "name": "A5",
          "ticks": 194160,
          "time": 161.8,
          "velocity": 0.4015748031496063
        },
        {
          "duration": 0.0666666666666913,
          "durationTicks": 80,
          "midi": 81,
          "name": "A5",
          "ticks": 194400,
          "time": 162,
          "velocity": 0.4015748031496063
        },
        {
          "duration": 0.06666666666666288,
          "durationTicks": 80,
          "midi": 81,
          "name": "A5",
          "ticks": 194640,
          "time": 162.20000000000002,
          "velocity": 0.4015748031496063
        },
        {
          "duration": 0.05000000000001137,
          "durationTicks": 60,
          "midi": 83,
          "name": "B5",
          "ticks": 194880,
          "time": 162.4,
          "velocity": 0.4015748031496063
        },
        {
          "duration": 0.09999999999999432,
          "durationTicks": 120,
          "midi": 81,
          "name": "A5",
          "ticks": 194940,
          "time": 162.45000000000002,
          "velocity": 0.4015748031496063
        },
        {
          "duration": 0.13333333333332575,
          "durationTicks": 160,
          "midi": 79,
          "name": "G5",
          "ticks": 195120,
          "time": 162.60000000000002,
          "velocity": 0.4015748031496063
        },
        {
          "duration": 0.13333333333332575,
          "durationTicks": 160,
          "midi": 81,
          "name": "A5",
          "ticks": 195360,
          "time": 162.8,
          "velocity": 0.4015748031496063
        },
        {
          "duration": 0.13333333333332575,
          "durationTicks": 160,
          "midi": 83,
          "name": "B5",
          "ticks": 195600,
          "time": 163,
          "velocity": 0.4015748031496063
        },
        {
          "duration": 0.4000000000000057,
          "durationTicks": 480,
          "midi": 79,
          "name": "G5",
          "ticks": 195840,
          "time": 163.20000000000002,
          "velocity": 0.4015748031496063
        },
        {
          "duration": 0.19666666666665833,
          "durationTicks": 236,
          "midi": 74,
          "name": "D5",
          "ticks": 196320,
          "time": 163.60000000000002,
          "velocity": 0.4015748031496063
        },
        {
          "duration": 0.06666666666666288,
          "durationTicks": 80,
          "midi": 74,
          "name": "D5",
          "ticks": 196560,
          "time": 163.8,
          "velocity": 0.4015748031496063
        },
        {
          "duration": 0.20000000000001705,
          "durationTicks": 240,
          "midi": 74,
          "name": "D5",
          "ticks": 196800,
          "time": 164,
          "velocity": 0.4015748031496063
        },
        {
          "duration": 0.19666666666665833,
          "durationTicks": 236,
          "midi": 83,
          "name": "B5",
          "ticks": 197040,
          "time": 164.20000000000002,
          "velocity": 0.4015748031496063
        },
        {
          "duration": 0.0666666666666913,
          "durationTicks": 80,
          "midi": 83,
          "name": "B5",
          "ticks": 197280,
          "time": 164.4,
          "velocity": 0.4015748031496063
        },
        {
          "duration": 0.06666666666666288,
          "durationTicks": 80,
          "midi": 83,
          "name": "B5",
          "ticks": 197520,
          "time": 164.60000000000002,
          "velocity": 0.4015748031496063
        },
        {
          "duration": 0.19999999999998863,
          "durationTicks": 240,
          "midi": 83,
          "name": "B5",
          "ticks": 197760,
          "time": 164.8,
          "velocity": 0.4015748031496063
        },
        {
          "duration": 0.19666666666668675,
          "durationTicks": 236,
          "midi": 81,
          "name": "A5",
          "ticks": 198000,
          "time": 165,
          "velocity": 0.4015748031496063
        },
        {
          "duration": 0.06666666666666288,
          "durationTicks": 80,
          "midi": 81,
          "name": "A5",
          "ticks": 198240,
          "time": 165.20000000000002,
          "velocity": 0.4015748031496063
        },
        {
          "duration": 0.0666666666666913,
          "durationTicks": 80,
          "midi": 81,
          "name": "A5",
          "ticks": 198480,
          "time": 165.4,
          "velocity": 0.4015748031496063
        },
        {
          "duration": 0.04999999999998295,
          "durationTicks": 60,
          "midi": 83,
          "name": "B5",
          "ticks": 198720,
          "time": 165.60000000000002,
          "velocity": 0.4015748031496063
        },
        {
          "duration": 0.09999999999999432,
          "durationTicks": 120,
          "midi": 81,
          "name": "A5",
          "ticks": 198780,
          "time": 165.65,
          "velocity": 0.4015748031496063
        },
        {
          "duration": 0.13333333333332575,
          "durationTicks": 160,
          "midi": 79,
          "name": "G5",
          "ticks": 198960,
          "time": 165.8,
          "velocity": 0.4015748031496063
        },
        {
          "duration": 0.13333333333332575,
          "durationTicks": 160,
          "midi": 81,
          "name": "A5",
          "ticks": 199200,
          "time": 166,
          "velocity": 0.4015748031496063
        },
        {
          "duration": 0.13333333333332575,
          "durationTicks": 160,
          "midi": 83,
          "name": "B5",
          "ticks": 199440,
          "time": 166.20000000000002,
          "velocity": 0.4015748031496063
        },
        {
          "duration": 0.4000000000000057,
          "durationTicks": 480,
          "midi": 79,
          "name": "G5",
          "ticks": 199680,
          "time": 166.4,
          "velocity": 0.4015748031496063
        },
        {
          "duration": 0.19666666666665833,
          "durationTicks": 236,
          "midi": 86,
          "name": "D6",
          "ticks": 200160,
          "time": 166.8,
          "velocity": 0.4015748031496063
        },
        {
          "duration": 0.0666666666666913,
          "durationTicks": 80,
          "midi": 74,
          "name": "D5",
          "ticks": 200400,
          "time": 167,
          "velocity": 0.4015748031496063
        },
        {
          "duration": 0.19999999999998863,
          "durationTicks": 240,
          "midi": 74,
          "name": "D5",
          "ticks": 200640,
          "time": 167.20000000000002,
          "velocity": 0.4015748031496063
        },
        {
          "duration": 0.19666666666668675,
          "durationTicks": 236,
          "midi": 83,
          "name": "B5",
          "ticks": 200880,
          "time": 167.4,
          "velocity": 0.4015748031496063
        },
        {
          "duration": 0.06666666666666288,
          "durationTicks": 80,
          "midi": 83,
          "name": "B5",
          "ticks": 201120,
          "time": 167.60000000000002,
          "velocity": 0.4015748031496063
        },
        {
          "duration": 0.06666666666666288,
          "durationTicks": 80,
          "midi": 83,
          "name": "B5",
          "ticks": 201360,
          "time": 167.8,
          "velocity": 0.4015748031496063
        },
        {
          "duration": 0.20000000000001705,
          "durationTicks": 240,
          "midi": 83,
          "name": "B5",
          "ticks": 201600,
          "time": 168,
          "velocity": 0.4015748031496063
        },
        {
          "duration": 0.19666666666665833,
          "durationTicks": 236,
          "midi": 81,
          "name": "A5",
          "ticks": 201840,
          "time": 168.20000000000002,
          "velocity": 0.4015748031496063
        },
        {
          "duration": 0.0666666666666913,
          "durationTicks": 80,
          "midi": 81,
          "name": "A5",
          "ticks": 202080,
          "time": 168.4,
          "velocity": 0.4015748031496063
        },
        {
          "duration": 0.06666666666666288,
          "durationTicks": 80,
          "midi": 81,
          "name": "A5",
          "ticks": 202320,
          "time": 168.60000000000002,
          "velocity": 0.4015748031496063
        },
        {
          "duration": 0.05000000000001137,
          "durationTicks": 60,
          "midi": 83,
          "name": "B5",
          "ticks": 202560,
          "time": 168.8,
          "velocity": 0.4015748031496063
        },
        {
          "duration": 0.09999999999999432,
          "durationTicks": 120,
          "midi": 81,
          "name": "A5",
          "ticks": 202620,
          "time": 168.85000000000002,
          "velocity": 0.4015748031496063
        },
        {
          "duration": 0.0666666666666913,
          "durationTicks": 80,
          "midi": 79,
          "name": "G5",
          "ticks": 202800,
          "time": 169,
          "velocity": 0.4015748031496063
        },
        {
          "duration": 0.06666666666666288,
          "durationTicks": 80,
          "midi": 81,
          "name": "A5",
          "ticks": 203040,
          "time": 169.20000000000002,
          "velocity": 0.4015748031496063
        },
        {
          "duration": 0.0666666666666913,
          "durationTicks": 80,
          "midi": 83,
          "name": "B5",
          "ticks": 203280,
          "time": 169.4,
          "velocity": 0.4015748031496063
        },
        {
          "duration": 0.5999999999999943,
          "durationTicks": 720,
          "midi": 79,
          "name": "G5",
          "ticks": 203520,
          "time": 169.60000000000002,
          "velocity": 0.4015748031496063
        },
        {
          "duration": 0.19666666666665833,
          "durationTicks": 236,
          "midi": 83,
          "name": "B5",
          "ticks": 204240,
          "time": 170.20000000000002,
          "velocity": 0.4015748031496063
        },
        {
          "duration": 0.5999999999999943,
          "durationTicks": 720,
          "midi": 76,
          "name": "E5",
          "ticks": 204480,
          "time": 170.4,
          "velocity": 0.4015748031496063
        },
        {
          "duration": 0.19666666666668675,
          "durationTicks": 236,
          "midi": 84,
          "name": "C6",
          "ticks": 205200,
          "time": 171,
          "velocity": 0.4015748031496063
        },
        {
          "duration": 0.19999999999998863,
          "durationTicks": 240,
          "midi": 81,
          "name": "A5",
          "ticks": 205440,
          "time": 171.20000000000002,
          "velocity": 0.4015748031496063
        },
        {
          "duration": 0.19666666666668675,
          "durationTicks": 236,
          "midi": 88,
          "name": "E6",
          "ticks": 205680,
          "time": 171.4,
          "velocity": 0.4015748031496063
        },
        {
          "duration": 0.06666666666666288,
          "durationTicks": 80,
          "midi": 84,
          "name": "C6",
          "ticks": 205920,
          "time": 171.60000000000002,
          "velocity": 0.4015748031496063
        },
        {
          "duration": 0.06666666666666288,
          "durationTicks": 80,
          "midi": 81,
          "name": "A5",
          "ticks": 206160,
          "time": 171.8,
          "velocity": 0.4015748031496063
        },
        {
          "duration": 0.0666666666666913,
          "durationTicks": 80,
          "midi": 78,
          "name": "F#5",
          "ticks": 206400,
          "time": 172,
          "velocity": 0.4015748031496063
        },
        {
          "duration": 0.06666666666666288,
          "durationTicks": 80,
          "midi": 79,
          "name": "G5",
          "ticks": 206640,
          "time": 172.20000000000002,
          "velocity": 0.4015748031496063
        },
        {
          "duration": 0.0666666666666913,
          "durationTicks": 80,
          "midi": 81,
          "name": "A5",
          "ticks": 206880,
          "time": 172.4,
          "velocity": 0.4015748031496063
        },
        {
          "duration": 0.06666666666666288,
          "durationTicks": 80,
          "midi": 83,
          "name": "B5",
          "ticks": 207120,
          "time": 172.60000000000002,
          "velocity": 0.4015748031496063
        },
        {
          "duration": 0.5999999999999943,
          "durationTicks": 720,
          "midi": 79,
          "name": "G5",
          "ticks": 207360,
          "time": 172.8,
          "velocity": 0.4015748031496063
        },
        {
          "duration": 0.19666666666668675,
          "durationTicks": 236,
          "midi": 83,
          "name": "B5",
          "ticks": 208080,
          "time": 173.4,
          "velocity": 0.4015748031496063
        },
        {
          "duration": 0.5999999999999943,
          "durationTicks": 720,
          "midi": 76,
          "name": "E5",
          "ticks": 208320,
          "time": 173.60000000000002,
          "velocity": 0.4015748031496063
        },
        {
          "duration": 0.19666666666665833,
          "durationTicks": 236,
          "midi": 84,
          "name": "C6",
          "ticks": 209040,
          "time": 174.20000000000002,
          "velocity": 0.4015748031496063
        },
        {
          "duration": 0.20000000000001705,
          "durationTicks": 240,
          "midi": 81,
          "name": "A5",
          "ticks": 209280,
          "time": 174.4,
          "velocity": 0.4015748031496063
        },
        {
          "duration": 0.19666666666665833,
          "durationTicks": 236,
          "midi": 88,
          "name": "E6",
          "ticks": 209520,
          "time": 174.60000000000002,
          "velocity": 0.4015748031496063
        },
        {
          "duration": 0.06666666666666288,
          "durationTicks": 80,
          "midi": 84,
          "name": "C6",
          "ticks": 209760,
          "time": 174.8,
          "velocity": 0.4015748031496063
        },
        {
          "duration": 0.0666666666666913,
          "durationTicks": 80,
          "midi": 81,
          "name": "A5",
          "ticks": 210000,
          "time": 175,
          "velocity": 0.4015748031496063
        },
        {
          "duration": 0.06666666666666288,
          "durationTicks": 80,
          "midi": 78,
          "name": "F#5",
          "ticks": 210240,
          "time": 175.20000000000002,
          "velocity": 0.4015748031496063
        },
        {
          "duration": 0.0666666666666913,
          "durationTicks": 80,
          "midi": 79,
          "name": "G5",
          "ticks": 210480,
          "time": 175.4,
          "velocity": 0.4015748031496063
        },
        {
          "duration": 0.06666666666666288,
          "durationTicks": 80,
          "midi": 81,
          "name": "A5",
          "ticks": 210720,
          "time": 175.60000000000002,
          "velocity": 0.4015748031496063
        },
        {
          "duration": 0.06666666666666288,
          "durationTicks": 80,
          "midi": 83,
          "name": "B5",
          "ticks": 210960,
          "time": 175.8,
          "velocity": 0.4015748031496063
        },
        {
          "duration": 0.19666666666668675,
          "durationTicks": 236,
          "midi": 79,
          "name": "G5",
          "ticks": 211200,
          "time": 176,
          "velocity": 0.4015748031496063
        },
        {
          "duration": 0.09666666666666401,
          "durationTicks": 116,
          "midi": 86,
          "name": "D6",
          "ticks": 211680,
          "time": 176.4,
          "velocity": 0.8267716535433071
        },
        {
          "duration": 0.09666666666669244,
          "durationTicks": 116,
          "midi": 86,
          "name": "D6",
          "ticks": 211800,
          "time": 176.5,
          "velocity": 0.8267716535433071
        },
        {
          "duration": 0.09666666666666401,
          "durationTicks": 116,
          "midi": 85,
          "name": "C#6",
          "ticks": 211920,
          "time": 176.60000000000002,
          "velocity": 0.8267716535433071
        },
        {
          "duration": 0.09666666666666401,
          "durationTicks": 116,
          "midi": 85,
          "name": "C#6",
          "ticks": 212040,
          "time": 176.70000000000002,
          "velocity": 0.8267716535433071
        },
        {
          "duration": 0.09666666666666401,
          "durationTicks": 116,
          "midi": 86,
          "name": "D6",
          "ticks": 212160,
          "time": 176.8,
          "velocity": 0.8267716535433071
        },
        {
          "duration": 0.09666666666666401,
          "durationTicks": 116,
          "midi": 86,
          "name": "D6",
          "ticks": 212280,
          "time": 176.9,
          "velocity": 0.8267716535433071
        },
        {
          "duration": 0.09666666666669244,
          "durationTicks": 116,
          "midi": 85,
          "name": "C#6",
          "ticks": 212400,
          "time": 177,
          "velocity": 0.8267716535433071
        },
        {
          "duration": 0.09666666666666401,
          "durationTicks": 116,
          "midi": 85,
          "name": "C#6",
          "ticks": 212520,
          "time": 177.10000000000002,
          "velocity": 0.8267716535433071
        },
        {
          "duration": 0.09666666666666401,
          "durationTicks": 116,
          "midi": 86,
          "name": "D6",
          "ticks": 212640,
          "time": 177.20000000000002,
          "velocity": 0.8267716535433071
        },
        {
          "duration": 0.09666666666666401,
          "durationTicks": 116,
          "midi": 86,
          "name": "D6",
          "ticks": 212760,
          "time": 177.3,
          "velocity": 0.8267716535433071
        },
        {
          "duration": 0.09666666666666401,
          "durationTicks": 116,
          "midi": 83,
          "name": "B5",
          "ticks": 212880,
          "time": 177.4,
          "velocity": 0.8267716535433071
        },
        {
          "duration": 0.09666666666669244,
          "durationTicks": 116,
          "midi": 83,
          "name": "B5",
          "ticks": 213000,
          "time": 177.5,
          "velocity": 0.8267716535433071
        },
        {
          "duration": 0.19666666666665833,
          "durationTicks": 236,
          "midi": 84,
          "name": "C6",
          "ticks": 213120,
          "time": 177.60000000000002,
          "velocity": 0.8267716535433071
        },
        {
          "duration": 0.09666666666669244,
          "durationTicks": 116,
          "midi": 84,
          "name": "C6",
          "ticks": 213600,
          "time": 178,
          "velocity": 0.8267716535433071
        },
        {
          "duration": 0.09666666666666401,
          "durationTicks": 116,
          "midi": 84,
          "name": "C6",
          "ticks": 213720,
          "time": 178.10000000000002,
          "velocity": 0.8267716535433071
        },
        {
          "duration": 0.09666666666666401,
          "durationTicks": 116,
          "midi": 83,
          "name": "B5",
          "ticks": 213840,
          "time": 178.20000000000002,
          "velocity": 0.8267716535433071
        },
        {
          "duration": 0.09666666666666401,
          "durationTicks": 116,
          "midi": 83,
          "name": "B5",
          "ticks": 213960,
          "time": 178.3,
          "velocity": 0.8267716535433071
        },
        {
          "duration": 0.09666666666666401,
          "durationTicks": 116,
          "midi": 84,
          "name": "C6",
          "ticks": 214080,
          "time": 178.4,
          "velocity": 0.8267716535433071
        },
        {
          "duration": 0.09666666666669244,
          "durationTicks": 116,
          "midi": 84,
          "name": "C6",
          "ticks": 214200,
          "time": 178.5,
          "velocity": 0.8267716535433071
        },
        {
          "duration": 0.09666666666666401,
          "durationTicks": 116,
          "midi": 83,
          "name": "B5",
          "ticks": 214320,
          "time": 178.60000000000002,
          "velocity": 0.8267716535433071
        },
        {
          "duration": 0.09666666666666401,
          "durationTicks": 116,
          "midi": 83,
          "name": "B5",
          "ticks": 214440,
          "time": 178.70000000000002,
          "velocity": 0.8267716535433071
        },
        {
          "duration": 0.09666666666666401,
          "durationTicks": 116,
          "midi": 84,
          "name": "C6",
          "ticks": 214560,
          "time": 178.8,
          "velocity": 0.8267716535433071
        },
        {
          "duration": 0.09666666666666401,
          "durationTicks": 116,
          "midi": 84,
          "name": "C6",
          "ticks": 214680,
          "time": 178.9,
          "velocity": 0.8267716535433071
        },
        {
          "duration": 0.09666666666669244,
          "durationTicks": 116,
          "midi": 81,
          "name": "A5",
          "ticks": 214800,
          "time": 179,
          "velocity": 0.8267716535433071
        },
        {
          "duration": 0.09666666666666401,
          "durationTicks": 116,
          "midi": 81,
          "name": "A5",
          "ticks": 214920,
          "time": 179.10000000000002,
          "velocity": 0.8267716535433071
        },
        {
          "duration": 0.19666666666665833,
          "durationTicks": 236,
          "midi": 83,
          "name": "B5",
          "ticks": 215040,
          "time": 179.20000000000002,
          "velocity": 0.8267716535433071
        },
        {
          "duration": 0.04999999999998295,
          "durationTicks": 60,
          "midi": 81,
          "name": "A5",
          "ticks": 215520,
          "time": 179.60000000000002,
          "velocity": 0.8267716535433071
        },
        {
          "duration": 0.05000000000001137,
          "durationTicks": 60,
          "midi": 79,
          "name": "G5",
          "ticks": 215580,
          "time": 179.65,
          "velocity": 0.8267716535433071
        },
        {
          "duration": 0.04999999999998295,
          "durationTicks": 60,
          "midi": 81,
          "name": "A5",
          "ticks": 215640,
          "time": 179.70000000000002,
          "velocity": 0.8267716535433071
        },
        {
          "duration": 0.05000000000001137,
          "durationTicks": 60,
          "midi": 79,
          "name": "G5",
          "ticks": 215700,
          "time": 179.75,
          "velocity": 0.8267716535433071
        },
        {
          "duration": 0.09999999999999432,
          "durationTicks": 120,
          "midi": 78,
          "name": "F#5",
          "ticks": 215760,
          "time": 179.8,
          "velocity": 0.8267716535433071
        },
        {
          "duration": 0.09999999999999432,
          "durationTicks": 120,
          "midi": 79,
          "name": "G5",
          "ticks": 215880,
          "time": 179.9,
          "velocity": 0.8267716535433071
        },
        {
          "duration": 0.19666666666668675,
          "durationTicks": 236,
          "midi": 81,
          "name": "A5",
          "ticks": 216000,
          "time": 180,
          "velocity": 0.8267716535433071
        },
        {
          "duration": 0.13333333333332575,
          "durationTicks": 160,
          "midi": 81,
          "name": "A5",
          "ticks": 216240,
          "time": 180.20000000000002,
          "velocity": 0.8267716535433071
        },
        {
          "duration": 0.13333333333332575,
          "durationTicks": 160,
          "midi": 78,
          "name": "F#5",
          "ticks": 216480,
          "time": 180.4,
          "velocity": 0.8267716535433071
        },
        {
          "duration": 0.13333333333332575,
          "durationTicks": 160,
          "midi": 78,
          "name": "F#5",
          "ticks": 216720,
          "time": 180.60000000000002,
          "velocity": 0.8267716535433071
        },
        {
          "duration": 0.19666666666665833,
          "durationTicks": 236,
          "midi": 79,
          "name": "G5",
          "ticks": 216960,
          "time": 180.8,
          "velocity": 0.8267716535433071
        },
        {
          "duration": 0.09666666666666401,
          "durationTicks": 116,
          "midi": 86,
          "name": "D6",
          "ticks": 217440,
          "time": 181.20000000000002,
          "velocity": 0.8267716535433071
        },
        {
          "duration": 0.09666666666666401,
          "durationTicks": 116,
          "midi": 86,
          "name": "D6",
          "ticks": 217560,
          "time": 181.3,
          "velocity": 0.8267716535433071
        },
        {
          "duration": 0.09666666666666401,
          "durationTicks": 116,
          "midi": 85,
          "name": "C#6",
          "ticks": 217680,
          "time": 181.4,
          "velocity": 0.8267716535433071
        },
        {
          "duration": 0.09666666666669244,
          "durationTicks": 116,
          "midi": 85,
          "name": "C#6",
          "ticks": 217800,
          "time": 181.5,
          "velocity": 0.8267716535433071
        },
        {
          "duration": 0.09666666666666401,
          "durationTicks": 116,
          "midi": 86,
          "name": "D6",
          "ticks": 217920,
          "time": 181.60000000000002,
          "velocity": 0.8267716535433071
        },
        {
          "duration": 0.09666666666666401,
          "durationTicks": 116,
          "midi": 86,
          "name": "D6",
          "ticks": 218040,
          "time": 181.70000000000002,
          "velocity": 0.8267716535433071
        },
        {
          "duration": 0.09666666666666401,
          "durationTicks": 116,
          "midi": 85,
          "name": "C#6",
          "ticks": 218160,
          "time": 181.8,
          "velocity": 0.8267716535433071
        },
        {
          "duration": 0.09666666666666401,
          "durationTicks": 116,
          "midi": 85,
          "name": "C#6",
          "ticks": 218280,
          "time": 181.9,
          "velocity": 0.8267716535433071
        },
        {
          "duration": 0.09666666666669244,
          "durationTicks": 116,
          "midi": 86,
          "name": "D6",
          "ticks": 218400,
          "time": 182,
          "velocity": 0.8267716535433071
        },
        {
          "duration": 0.09666666666666401,
          "durationTicks": 116,
          "midi": 86,
          "name": "D6",
          "ticks": 218520,
          "time": 182.10000000000002,
          "velocity": 0.8267716535433071
        },
        {
          "duration": 0.09666666666666401,
          "durationTicks": 116,
          "midi": 83,
          "name": "B5",
          "ticks": 218640,
          "time": 182.20000000000002,
          "velocity": 0.8267716535433071
        },
        {
          "duration": 0.09666666666666401,
          "durationTicks": 116,
          "midi": 83,
          "name": "B5",
          "ticks": 218760,
          "time": 182.3,
          "velocity": 0.8267716535433071
        },
        {
          "duration": 0.19666666666668675,
          "durationTicks": 236,
          "midi": 84,
          "name": "C6",
          "ticks": 218880,
          "time": 182.4,
          "velocity": 0.8267716535433071
        },
        {
          "duration": 0.09666666666666401,
          "durationTicks": 116,
          "midi": 84,
          "name": "C6",
          "ticks": 219360,
          "time": 182.8,
          "velocity": 0.8267716535433071
        },
        {
          "duration": 0.09666666666666401,
          "durationTicks": 116,
          "midi": 84,
          "name": "C6",
          "ticks": 219480,
          "time": 182.9,
          "velocity": 0.8267716535433071
        },
        {
          "duration": 0.09666666666669244,
          "durationTicks": 116,
          "midi": 83,
          "name": "B5",
          "ticks": 219600,
          "time": 183,
          "velocity": 0.8267716535433071
        },
        {
          "duration": 0.09666666666666401,
          "durationTicks": 116,
          "midi": 83,
          "name": "B5",
          "ticks": 219720,
          "time": 183.10000000000002,
          "velocity": 0.8267716535433071
        },
        {
          "duration": 0.09666666666666401,
          "durationTicks": 116,
          "midi": 84,
          "name": "C6",
          "ticks": 219840,
          "time": 183.20000000000002,
          "velocity": 0.8267716535433071
        },
        {
          "duration": 0.09666666666666401,
          "durationTicks": 116,
          "midi": 84,
          "name": "C6",
          "ticks": 219960,
          "time": 183.3,
          "velocity": 0.8267716535433071
        },
        {
          "duration": 0.09666666666666401,
          "durationTicks": 116,
          "midi": 83,
          "name": "B5",
          "ticks": 220080,
          "time": 183.4,
          "velocity": 0.8267716535433071
        },
        {
          "duration": 0.09666666666669244,
          "durationTicks": 116,
          "midi": 83,
          "name": "B5",
          "ticks": 220200,
          "time": 183.5,
          "velocity": 0.8267716535433071
        },
        {
          "duration": 0.09666666666666401,
          "durationTicks": 116,
          "midi": 84,
          "name": "C6",
          "ticks": 220320,
          "time": 183.60000000000002,
          "velocity": 0.8267716535433071
        },
        {
          "duration": 0.09666666666666401,
          "durationTicks": 116,
          "midi": 84,
          "name": "C6",
          "ticks": 220440,
          "time": 183.70000000000002,
          "velocity": 0.8267716535433071
        },
        {
          "duration": 0.09666666666666401,
          "durationTicks": 116,
          "midi": 81,
          "name": "A5",
          "ticks": 220560,
          "time": 183.8,
          "velocity": 0.8267716535433071
        },
        {
          "duration": 0.09666666666666401,
          "durationTicks": 116,
          "midi": 81,
          "name": "A5",
          "ticks": 220680,
          "time": 183.9,
          "velocity": 0.8267716535433071
        },
        {
          "duration": 0.19666666666668675,
          "durationTicks": 236,
          "midi": 83,
          "name": "B5",
          "ticks": 220800,
          "time": 184,
          "velocity": 0.8267716535433071
        },
        {
          "duration": 0.05000000000001137,
          "durationTicks": 60,
          "midi": 81,
          "name": "A5",
          "ticks": 221280,
          "time": 184.4,
          "velocity": 0.8267716535433071
        },
        {
          "duration": 0.04999999999998295,
          "durationTicks": 60,
          "midi": 79,
          "name": "G5",
          "ticks": 221340,
          "time": 184.45000000000002,
          "velocity": 0.8267716535433071
        },
        {
          "duration": 0.05000000000001137,
          "durationTicks": 60,
          "midi": 81,
          "name": "A5",
          "ticks": 221400,
          "time": 184.5,
          "velocity": 0.8267716535433071
        },
        {
          "duration": 0.05000000000001137,
          "durationTicks": 60,
          "midi": 79,
          "name": "G5",
          "ticks": 221460,
          "time": 184.55,
          "velocity": 0.8267716535433071
        },
        {
          "duration": 0.09999999999999432,
          "durationTicks": 120,
          "midi": 78,
          "name": "F#5",
          "ticks": 221520,
          "time": 184.60000000000002,
          "velocity": 0.8267716535433071
        },
        {
          "duration": 0.09999999999999432,
          "durationTicks": 120,
          "midi": 79,
          "name": "G5",
          "ticks": 221640,
          "time": 184.70000000000002,
          "velocity": 0.8267716535433071
        },
        {
          "duration": 0.19666666666665833,
          "durationTicks": 236,
          "midi": 81,
          "name": "A5",
          "ticks": 221760,
          "time": 184.8,
          "velocity": 0.8267716535433071
        },
        {
          "duration": 0.13333333333332575,
          "durationTicks": 160,
          "midi": 81,
          "name": "A5",
          "ticks": 222000,
          "time": 185,
          "velocity": 0.8267716535433071
        },
        {
          "duration": 0.13333333333332575,
          "durationTicks": 160,
          "midi": 78,
          "name": "F#5",
          "ticks": 222240,
          "time": 185.20000000000002,
          "velocity": 0.8267716535433071
        },
        {
          "duration": 0.13333333333332575,
          "durationTicks": 160,
          "midi": 78,
          "name": "F#5",
          "ticks": 222480,
          "time": 185.4,
          "velocity": 0.8267716535433071
        },
        {
          "duration": 0.3333333333333144,
          "durationTicks": 400,
          "midi": 79,
          "name": "G5",
          "ticks": 222720,
          "time": 185.60000000000002,
          "velocity": 0.8267716535433071
        },
        {
          "duration": 0.04999999999998295,
          "durationTicks": 60,
          "midi": 84,
          "name": "C6",
          "ticks": 223440,
          "time": 186.20000000000002,
          "velocity": 0.8267716535433071
        },
        {
          "duration": 0.05000000000001137,
          "durationTicks": 60,
          "midi": 83,
          "name": "B5",
          "ticks": 223500,
          "time": 186.25,
          "velocity": 0.8267716535433071
        },
        {
          "duration": 0.05000000000001137,
          "durationTicks": 60,
          "midi": 81,
          "name": "A5",
          "ticks": 223560,
          "time": 186.3,
          "velocity": 0.8267716535433071
        },
        {
          "duration": 0.04999999999998295,
          "durationTicks": 60,
          "midi": 79,
          "name": "G5",
          "ticks": 223620,
          "time": 186.35000000000002,
          "velocity": 0.8267716535433071
        },
        {
          "duration": 0.3333333333333428,
          "durationTicks": 400,
          "midi": 78,
          "name": "F#5",
          "ticks": 223680,
          "time": 186.4,
          "velocity": 0.8267716535433071
        },
        {
          "duration": 0.05000000000001137,
          "durationTicks": 60,
          "midi": 86,
          "name": "D6",
          "ticks": 224400,
          "time": 187,
          "velocity": 0.8267716535433071
        },
        {
          "duration": 0.05000000000001137,
          "durationTicks": 60,
          "midi": 84,
          "name": "C6",
          "ticks": 224460,
          "time": 187.05,
          "velocity": 0.8267716535433071
        },
        {
          "duration": 0.04999999999998295,
          "durationTicks": 60,
          "midi": 83,
          "name": "B5",
          "ticks": 224520,
          "time": 187.10000000000002,
          "velocity": 0.8267716535433071
        },
        {
          "duration": 0.05000000000001137,
          "durationTicks": 60,
          "midi": 81,
          "name": "A5",
          "ticks": 224580,
          "time": 187.15,
          "velocity": 0.8267716535433071
        },
        {
          "duration": 0.3333333333333144,
          "durationTicks": 400,
          "midi": 83,
          "name": "B5",
          "ticks": 224640,
          "time": 187.20000000000002,
          "velocity": 0.8267716535433071
        },
        {
          "duration": 0.05000000000001137,
          "durationTicks": 60,
          "midi": 84,
          "name": "C6",
          "ticks": 225360,
          "time": 187.8,
          "velocity": 0.8267716535433071
        },
        {
          "duration": 0.04999999999998295,
          "durationTicks": 60,
          "midi": 83,
          "name": "B5",
          "ticks": 225420,
          "time": 187.85000000000002,
          "velocity": 0.8267716535433071
        },
        {
          "duration": 0.05000000000001137,
          "durationTicks": 60,
          "midi": 81,
          "name": "A5",
          "ticks": 225480,
          "time": 187.9,
          "velocity": 0.8267716535433071
        },
        {
          "duration": 0.04999999999998295,
          "durationTicks": 60,
          "midi": 79,
          "name": "G5",
          "ticks": 225540,
          "time": 187.95000000000002,
          "velocity": 0.8267716535433071
        },
        {
          "duration": 0.3333333333333428,
          "durationTicks": 400,
          "midi": 78,
          "name": "F#5",
          "ticks": 225600,
          "time": 188,
          "velocity": 0.8267716535433071
        },
        {
          "duration": 0.04999999999998295,
          "durationTicks": 60,
          "midi": 86,
          "name": "D6",
          "ticks": 226320,
          "time": 188.60000000000002,
          "velocity": 0.8267716535433071
        },
        {
          "duration": 0.05000000000001137,
          "durationTicks": 60,
          "midi": 84,
          "name": "C6",
          "ticks": 226380,
          "time": 188.65,
          "velocity": 0.8267716535433071
        },
        {
          "duration": 0.04999999999998295,
          "durationTicks": 60,
          "midi": 83,
          "name": "B5",
          "ticks": 226440,
          "time": 188.70000000000002,
          "velocity": 0.8267716535433071
        },
        {
          "duration": 0.05000000000001137,
          "durationTicks": 60,
          "midi": 81,
          "name": "A5",
          "ticks": 226500,
          "time": 188.75,
          "velocity": 0.8267716535433071
        },
        {
          "duration": 0.3333333333333144,
          "durationTicks": 400,
          "midi": 83,
          "name": "B5",
          "ticks": 226560,
          "time": 188.8,
          "velocity": 0.8267716535433071
        },
        {
          "duration": 0.05000000000001137,
          "durationTicks": 60,
          "midi": 84,
          "name": "C6",
          "ticks": 227280,
          "time": 189.4,
          "velocity": 0.8267716535433071
        },
        {
          "duration": 0.04999999999998295,
          "durationTicks": 60,
          "midi": 83,
          "name": "B5",
          "ticks": 227340,
          "time": 189.45000000000002,
          "velocity": 0.8267716535433071
        },
        {
          "duration": 0.05000000000001137,
          "durationTicks": 60,
          "midi": 81,
          "name": "A5",
          "ticks": 227400,
          "time": 189.5,
          "velocity": 0.8267716535433071
        },
        {
          "duration": 0.05000000000001137,
          "durationTicks": 60,
          "midi": 79,
          "name": "G5",
          "ticks": 227460,
          "time": 189.55,
          "velocity": 0.8267716535433071
        },
        {
          "duration": 0.3333333333333144,
          "durationTicks": 400,
          "midi": 78,
          "name": "F#5",
          "ticks": 227520,
          "time": 189.60000000000002,
          "velocity": 0.8267716535433071
        },
        {
          "duration": 0.04999999999998295,
          "durationTicks": 60,
          "midi": 86,
          "name": "D6",
          "ticks": 228240,
          "time": 190.20000000000002,
          "velocity": 0.8267716535433071
        },
        {
          "duration": 0.05000000000001137,
          "durationTicks": 60,
          "midi": 84,
          "name": "C6",
          "ticks": 228300,
          "time": 190.25,
          "velocity": 0.8267716535433071
        },
        {
          "duration": 0.05000000000001137,
          "durationTicks": 60,
          "midi": 83,
          "name": "B5",
          "ticks": 228360,
          "time": 190.3,
          "velocity": 0.8267716535433071
        },
        {
          "duration": 0.04999999999998295,
          "durationTicks": 60,
          "midi": 81,
          "name": "A5",
          "ticks": 228420,
          "time": 190.35000000000002,
          "velocity": 0.8267716535433071
        },
        {
          "duration": 0.3333333333333428,
          "durationTicks": 400,
          "midi": 79,
          "name": "G5",
          "ticks": 228480,
          "time": 190.4,
          "velocity": 0.8267716535433071
        },
        {
          "duration": 0.3333333333333144,
          "durationTicks": 400,
          "midi": 62,
          "name": "D4",
          "ticks": 228960,
          "time": 190.8,
          "velocity": 0.8267716535433071
        },
        {
          "duration": 0.3333333333333144,
          "durationTicks": 400,
          "midi": 74,
          "name": "D5",
          "ticks": 228960,
          "time": 190.8,
          "velocity": 0.8267716535433071
        },
        {
          "duration": 0.3333333333333144,
          "durationTicks": 400,
          "midi": 83,
          "name": "B5",
          "ticks": 228960,
          "time": 190.8,
          "velocity": 0.8267716535433071
        },
        {
          "duration": 0.3333333333333144,
          "durationTicks": 400,
          "midi": 62,
          "name": "D4",
          "ticks": 229440,
          "time": 191.20000000000002,
          "velocity": 0.8267716535433071
        },
        {
          "duration": 0.3333333333333144,
          "durationTicks": 400,
          "midi": 71,
          "name": "B4",
          "ticks": 229440,
          "time": 191.20000000000002,
          "velocity": 0.8267716535433071
        },
        {
          "duration": 0.3333333333333144,
          "durationTicks": 400,
          "midi": 79,
          "name": "G5",
          "ticks": 229440,
          "time": 191.20000000000002,
          "velocity": 0.8267716535433071
        },
        {
          "duration": 0.3333333333333428,
          "durationTicks": 400,
          "midi": 60,
          "name": "C4",
          "ticks": 230400,
          "time": 192,
          "velocity": 0.8267716535433071
        },
        {
          "duration": 0.06666666666666288,
          "durationTicks": 80,
          "midi": 55,
          "name": "G3",
          "ticks": 231120,
          "time": 192.60000000000002,
          "velocity": 0.8267716535433071
        },
        {
          "duration": 0.06666666666666288,
          "durationTicks": 80,
          "midi": 57,
          "name": "A3",
          "ticks": 231200,
          "time": 192.66666666666669,
          "velocity": 0.8267716535433071
        },
        {
          "duration": 0.06666666666666288,
          "durationTicks": 80,
          "midi": 59,
          "name": "B3",
          "ticks": 231280,
          "time": 192.73333333333335,
          "velocity": 0.8267716535433071
        },
        {
          "duration": 0.3333333333333144,
          "durationTicks": 400,
          "midi": 60,
          "name": "C4",
          "ticks": 231360,
          "time": 192.8,
          "velocity": 0.8267716535433071
        },
        {
          "duration": 0.0666666666666913,
          "durationTicks": 80,
          "midi": 55,
          "name": "G3",
          "ticks": 232080,
          "time": 193.4,
          "velocity": 0.8267716535433071
        },
        {
          "duration": 0.06666666666663446,
          "durationTicks": 80,
          "midi": 57,
          "name": "A3",
          "ticks": 232160,
          "time": 193.4666666666667,
          "velocity": 0.8267716535433071
        },
        {
          "duration": 0.0666666666666913,
          "durationTicks": 80,
          "midi": 59,
          "name": "B3",
          "ticks": 232240,
          "time": 193.53333333333333,
          "velocity": 0.8267716535433071
        },
        {
          "duration": 0.3333333333333144,
          "durationTicks": 400,
          "midi": 60,
          "name": "C4",
          "ticks": 232320,
          "time": 193.60000000000002,
          "velocity": 0.8267716535433071
        },
        {
          "duration": 0.19666666666668675,
          "durationTicks": 236,
          "midi": 72,
          "name": "C5",
          "ticks": 234000,
          "time": 195,
          "velocity": 0.4015748031496063
        },
        {
          "duration": 0.5999999999999943,
          "durationTicks": 720,
          "midi": 72,
          "name": "C5",
          "ticks": 234240,
          "time": 195.20000000000002,
          "velocity": 0.4015748031496063
        },
        {
          "duration": 0.19999999999998863,
          "durationTicks": 240,
          "midi": 71,
          "name": "B4",
          "ticks": 234960,
          "time": 195.8,
          "velocity": 0.4015748031496063
        },
        {
          "duration": 0.6000000000000227,
          "durationTicks": 720,
          "midi": 74,
          "name": "D5",
          "ticks": 235200,
          "time": 196,
          "velocity": 0.4015748031496063
        },
        {
          "duration": 0.19666666666665833,
          "durationTicks": 236,
          "midi": 72,
          "name": "C5",
          "ticks": 235920,
          "time": 196.60000000000002,
          "velocity": 0.4015748031496063
        },
        {
          "duration": 0.8000000000000114,
          "durationTicks": 960,
          "midi": 79,
          "name": "G5",
          "ticks": 236160,
          "time": 196.8,
          "velocity": 0.4015748031496063
        },
        {
          "duration": 0.3333333333333144,
          "durationTicks": 400,
          "midi": 77,
          "name": "F5",
          "ticks": 237120,
          "time": 197.60000000000002,
          "velocity": 0.4015748031496063
        },
        {
          "duration": 0.3333333333333428,
          "durationTicks": 400,
          "midi": 55,
          "name": "G3",
          "ticks": 238080,
          "time": 198.4,
          "velocity": 0.8267716535433071
        },
        {
          "duration": 0.3333333333333428,
          "durationTicks": 400,
          "midi": 67,
          "name": "G4",
          "ticks": 238080,
          "time": 198.4,
          "velocity": 0.8267716535433071
        },
        {
          "duration": 0.0666666666666913,
          "durationTicks": 80,
          "midi": 62,
          "name": "D4",
          "ticks": 238800,
          "time": 199,
          "velocity": 0.8267716535433071
        },
        {
          "duration": 0.06666666666663446,
          "durationTicks": 80,
          "midi": 64,
          "name": "E4",
          "ticks": 238880,
          "time": 199.0666666666667,
          "velocity": 0.8267716535433071
        },
        {
          "duration": 0.0666666666666913,
          "durationTicks": 80,
          "midi": 66,
          "name": "F#4",
          "ticks": 238960,
          "time": 199.13333333333333,
          "velocity": 0.8267716535433071
        },
        {
          "duration": 0.3333333333333144,
          "durationTicks": 400,
          "midi": 67,
          "name": "G4",
          "ticks": 239040,
          "time": 199.20000000000002,
          "velocity": 0.8267716535433071
        },
        {
          "duration": 0.06666666666666288,
          "durationTicks": 80,
          "midi": 62,
          "name": "D4",
          "ticks": 239760,
          "time": 199.8,
          "velocity": 0.8267716535433071
        },
        {
          "duration": 0.06666666666666288,
          "durationTicks": 80,
          "midi": 64,
          "name": "E4",
          "ticks": 239840,
          "time": 199.86666666666667,
          "velocity": 0.8267716535433071
        },
        {
          "duration": 0.06666666666666288,
          "durationTicks": 80,
          "midi": 66,
          "name": "F#4",
          "ticks": 239920,
          "time": 199.93333333333334,
          "velocity": 0.8267716535433071
        },
        {
          "duration": 0.3333333333333428,
          "durationTicks": 400,
          "midi": 67,
          "name": "G4",
          "ticks": 240000,
          "time": 200,
          "velocity": 0.8267716535433071
        },
        {
          "duration": 0.19666666666668675,
          "durationTicks": 236,
          "midi": 74,
          "name": "D5",
          "ticks": 241680,
          "time": 201.4,
          "velocity": 0.4015748031496063
        },
        {
          "duration": 0.5999999999999943,
          "durationTicks": 720,
          "midi": 74,
          "name": "D5",
          "ticks": 241920,
          "time": 201.60000000000002,
          "velocity": 0.4015748031496063
        },
        {
          "duration": 0.19999999999998863,
          "durationTicks": 240,
          "midi": 72,
          "name": "C5",
          "ticks": 242640,
          "time": 202.20000000000002,
          "velocity": 0.4015748031496063
        },
        {
          "duration": 0.5999999999999943,
          "durationTicks": 720,
          "midi": 79,
          "name": "G5",
          "ticks": 242880,
          "time": 202.4,
          "velocity": 0.4015748031496063
        },
        {
          "duration": 0.19666666666668675,
          "durationTicks": 236,
          "midi": 77,
          "name": "F5",
          "ticks": 243600,
          "time": 203,
          "velocity": 0.4015748031496063
        },
        {
          "duration": 0.799999999999983,
          "durationTicks": 960,
          "midi": 81,
          "name": "A5",
          "ticks": 243840,
          "time": 203.20000000000002,
          "velocity": 0.4015748031496063
        },
        {
          "duration": 0.3333333333333428,
          "durationTicks": 400,
          "midi": 79,
          "name": "G5",
          "ticks": 244800,
          "time": 204,
          "velocity": 0.4015748031496063
        },
        {
          "duration": 0.3333333333333428,
          "durationTicks": 400,
          "midi": 67,
          "name": "G4",
          "ticks": 245760,
          "time": 204.8,
          "velocity": 0.8267716535433071
        },
        {
          "duration": 0.3333333333333428,
          "durationTicks": 400,
          "midi": 76,
          "name": "E5",
          "ticks": 245760,
          "time": 204.8,
          "velocity": 0.8267716535433071
        },
        {
          "duration": 0.3333333333333428,
          "durationTicks": 400,
          "midi": 84,
          "name": "C6",
          "ticks": 245760,
          "time": 204.8,
          "velocity": 0.8267716535433071
        },
        {
          "duration": 0.33333333333337123,
          "durationTicks": 400,
          "midi": 67,
          "name": "G4",
          "ticks": 247200,
          "time": 206,
          "velocity": 0.8267716535433071
        },
        {
          "duration": 0.33333333333337123,
          "durationTicks": 400,
          "midi": 76,
          "name": "E5",
          "ticks": 247200,
          "time": 206,
          "velocity": 0.8267716535433071
        },
        {
          "duration": 0.33333333333337123,
          "durationTicks": 400,
          "midi": 84,
          "name": "C6",
          "ticks": 247200,
          "time": 206,
          "velocity": 0.8267716535433071
        },
        {
          "duration": 0.3333333333333428,
          "durationTicks": 400,
          "midi": 65,
          "name": "F4",
          "ticks": 247680,
          "time": 206.4,
          "velocity": 0.8267716535433071
        },
        {
          "duration": 0.3333333333333428,
          "durationTicks": 400,
          "midi": 72,
          "name": "C5",
          "ticks": 247680,
          "time": 206.4,
          "velocity": 0.8267716535433071
        },
        {
          "duration": 0.3333333333333428,
          "durationTicks": 400,
          "midi": 81,
          "name": "A5",
          "ticks": 247680,
          "time": 206.4,
          "velocity": 0.8267716535433071
        },
        {
          "duration": 0.3333333333333428,
          "durationTicks": 400,
          "midi": 69,
          "name": "A4",
          "ticks": 249120,
          "time": 207.60000000000002,
          "velocity": 0.8267716535433071
        },
        {
          "duration": 0.3333333333333428,
          "durationTicks": 400,
          "midi": 77,
          "name": "F5",
          "ticks": 249120,
          "time": 207.60000000000002,
          "velocity": 0.8267716535433071
        },
        {
          "duration": 0.33333333333337123,
          "durationTicks": 400,
          "midi": 59,
          "name": "B3",
          "ticks": 249600,
          "time": 208,
          "velocity": 0.8267716535433071
        },
        {
          "duration": 0.33333333333337123,
          "durationTicks": 400,
          "midi": 67,
          "name": "G4",
          "ticks": 249600,
          "time": 208,
          "velocity": 0.8267716535433071
        },
        {
          "duration": 0.33333333333337123,
          "durationTicks": 400,
          "midi": 74,
          "name": "D5",
          "ticks": 249600,
          "time": 208,
          "velocity": 0.8267716535433071
        },
        {
          "duration": 0.3333333333333428,
          "durationTicks": 400,
          "midi": 62,
          "name": "D4",
          "ticks": 251040,
          "time": 209.20000000000002,
          "velocity": 0.8267716535433071
        },
        {
          "duration": 0.3333333333333428,
          "durationTicks": 400,
          "midi": 71,
          "name": "B4",
          "ticks": 251040,
          "time": 209.20000000000002,
          "velocity": 0.8267716535433071
        },
        {
          "duration": 0.3333333333333428,
          "durationTicks": 400,
          "midi": 79,
          "name": "G5",
          "ticks": 251040,
          "time": 209.20000000000002,
          "velocity": 0.8267716535433071
        },
        {
          "duration": 0.3333333333333428,
          "durationTicks": 400,
          "midi": 64,
          "name": "E4",
          "ticks": 251520,
          "time": 209.60000000000002,
          "velocity": 0.8267716535433071
        },
        {
          "duration": 0.3333333333333428,
          "durationTicks": 400,
          "midi": 72,
          "name": "C5",
          "ticks": 251520,
          "time": 209.60000000000002,
          "velocity": 0.8267716535433071
        },
        {
          "duration": 0.3333333333333428,
          "durationTicks": 400,
          "midi": 76,
          "name": "E5",
          "ticks": 251520,
          "time": 209.60000000000002,
          "velocity": 0.8267716535433071
        },
        {
          "duration": 0.3333333333333428,
          "durationTicks": 400,
          "midi": 67,
          "name": "G4",
          "ticks": 252960,
          "time": 210.8,
          "velocity": 0.8267716535433071
        },
        {
          "duration": 0.3333333333333428,
          "durationTicks": 400,
          "midi": 76,
          "name": "E5",
          "ticks": 252960,
          "time": 210.8,
          "velocity": 0.8267716535433071
        },
        {
          "duration": 0.3333333333333428,
          "durationTicks": 400,
          "midi": 84,
          "name": "C6",
          "ticks": 252960,
          "time": 210.8,
          "velocity": 0.8267716535433071
        },
        {
          "duration": 0.3333333333333428,
          "durationTicks": 400,
          "midi": 65,
          "name": "F4",
          "ticks": 253440,
          "time": 211.20000000000002,
          "velocity": 0.8267716535433071
        },
        {
          "duration": 0.3333333333333428,
          "durationTicks": 400,
          "midi": 72,
          "name": "C5",
          "ticks": 253440,
          "time": 211.20000000000002,
          "velocity": 0.8267716535433071
        },
        {
          "duration": 0.3333333333333428,
          "durationTicks": 400,
          "midi": 81,
          "name": "A5",
          "ticks": 253440,
          "time": 211.20000000000002,
          "velocity": 0.8267716535433071
        },
        {
          "duration": 0.3333333333333428,
          "durationTicks": 400,
          "midi": 69,
          "name": "A4",
          "ticks": 254880,
          "time": 212.4,
          "velocity": 0.8267716535433071
        },
        {
          "duration": 0.3333333333333428,
          "durationTicks": 400,
          "midi": 77,
          "name": "F5",
          "ticks": 254880,
          "time": 212.4,
          "velocity": 0.8267716535433071
        },
        {
          "duration": 0.3333333333333428,
          "durationTicks": 400,
          "midi": 59,
          "name": "B3",
          "ticks": 255360,
          "time": 212.8,
          "velocity": 0.8267716535433071
        },
        {
          "duration": 0.3333333333333428,
          "durationTicks": 400,
          "midi": 67,
          "name": "G4",
          "ticks": 255360,
          "time": 212.8,
          "velocity": 0.8267716535433071
        },
        {
          "duration": 0.3333333333333428,
          "durationTicks": 400,
          "midi": 74,
          "name": "D5",
          "ticks": 255360,
          "time": 212.8,
          "velocity": 0.8267716535433071
        },
        {
          "duration": 0.33333333333337123,
          "durationTicks": 400,
          "midi": 62,
          "name": "D4",
          "ticks": 256800,
          "time": 214,
          "velocity": 0.8267716535433071
        },
        {
          "duration": 0.33333333333337123,
          "durationTicks": 400,
          "midi": 71,
          "name": "B4",
          "ticks": 256800,
          "time": 214,
          "velocity": 0.8267716535433071
        },
        {
          "duration": 0.33333333333337123,
          "durationTicks": 400,
          "midi": 79,
          "name": "G5",
          "ticks": 256800,
          "time": 214,
          "velocity": 0.8267716535433071
        },
        {
          "duration": 0.3333333333333428,
          "durationTicks": 400,
          "midi": 72,
          "name": "C5",
          "ticks": 257280,
          "time": 214.4,
          "velocity": 0.8267716535433071
        },
        {
          "duration": 0.3333333333333428,
          "durationTicks": 400,
          "midi": 76,
          "name": "E5",
          "ticks": 257280,
          "time": 214.4,
          "velocity": 0.8267716535433071
        },
        {
          "duration": 0.3333333333333428,
          "durationTicks": 400,
          "midi": 67,
          "name": "G4",
          "ticks": 257760,
          "time": 214.8,
          "velocity": 0.8267716535433071
        },
        {
          "duration": 0.3333333333333428,
          "durationTicks": 400,
          "midi": 76,
          "name": "E5",
          "ticks": 257760,
          "time": 214.8,
          "velocity": 0.8267716535433071
        },
        {
          "duration": 0.3333333333333428,
          "durationTicks": 400,
          "midi": 84,
          "name": "C6",
          "ticks": 257760,
          "time": 214.8,
          "velocity": 0.8267716535433071
        },
        {
          "duration": 0.3333333333333428,
          "durationTicks": 400,
          "midi": 67,
          "name": "G4",
          "ticks": 258720,
          "time": 215.60000000000002,
          "velocity": 0.8267716535433071
        },
        {
          "duration": 0.3333333333333428,
          "durationTicks": 400,
          "midi": 74,
          "name": "D5",
          "ticks": 258720,
          "time": 215.60000000000002,
          "velocity": 0.8267716535433071
        },
        {
          "duration": 0.3333333333333428,
          "durationTicks": 400,
          "midi": 83,
          "name": "B5",
          "ticks": 258720,
          "time": 215.60000000000002,
          "velocity": 0.8267716535433071
        },
        {
          "duration": 0.3333333333333428,
          "durationTicks": 400,
          "midi": 67,
          "name": "G4",
          "ticks": 259680,
          "time": 216.4,
          "velocity": 0.8267716535433071
        },
        {
          "duration": 0.3333333333333428,
          "durationTicks": 400,
          "midi": 76,
          "name": "E5",
          "ticks": 259680,
          "time": 216.4,
          "velocity": 0.8267716535433071
        },
        {
          "duration": 0.3333333333333428,
          "durationTicks": 400,
          "midi": 84,
          "name": "C6",
          "ticks": 259680,
          "time": 216.4,
          "velocity": 0.8267716535433071
        },
        {
          "duration": 0.3333333333333428,
          "durationTicks": 400,
          "midi": 67,
          "name": "G4",
          "ticks": 260640,
          "time": 217.20000000000002,
          "velocity": 0.8267716535433071
        },
        {
          "duration": 0.3333333333333428,
          "durationTicks": 400,
          "midi": 74,
          "name": "D5",
          "ticks": 260640,
          "time": 217.20000000000002,
          "velocity": 0.8267716535433071
        },
        {
          "duration": 0.3333333333333428,
          "durationTicks": 400,
          "midi": 83,
          "name": "B5",
          "ticks": 260640,
          "time": 217.20000000000002,
          "velocity": 0.8267716535433071
        },
        {
          "duration": 0.3333333333333428,
          "durationTicks": 400,
          "midi": 67,
          "name": "G4",
          "ticks": 261120,
          "time": 217.60000000000002,
          "velocity": 0.8267716535433071
        },
        {
          "duration": 0.3333333333333428,
          "durationTicks": 400,
          "midi": 76,
          "name": "E5",
          "ticks": 261120,
          "time": 217.60000000000002,
          "velocity": 0.8267716535433071
        },
        {
          "duration": 0.3333333333333428,
          "durationTicks": 400,
          "midi": 84,
          "name": "C6",
          "ticks": 261120,
          "time": 217.60000000000002,
          "velocity": 0.8267716535433071
        },
        {
          "duration": 0.33333333333337123,
          "durationTicks": 400,
          "midi": 79,
          "name": "G5",
          "ticks": 261600,
          "time": 218,
          "velocity": 0.8267716535433071
        },
        {
          "duration": 0.3333333333333428,
          "durationTicks": 400,
          "midi": 84,
          "name": "C6",
          "ticks": 262080,
          "time": 218.4,
          "velocity": 0.8267716535433071
        },
        {
          "duration": 0.3333333333333428,
          "durationTicks": 400,
          "midi": 79,
          "name": "G5",
          "ticks": 262560,
          "time": 218.8,
          "velocity": 0.8267716535433071
        },
        {
          "duration": 0.3333333333333428,
          "durationTicks": 400,
          "midi": 84,
          "name": "C6",
          "ticks": 263040,
          "time": 219.20000000000002,
          "velocity": 0.8267716535433071
        },
        {
          "duration": 0.3333333333333428,
          "durationTicks": 400,
          "midi": 79,
          "name": "G5",
          "ticks": 263520,
          "time": 219.60000000000002,
          "velocity": 0.8267716535433071
        },
        {
          "duration": 0.33333333333337123,
          "durationTicks": 400,
          "midi": 76,
          "name": "E5",
          "ticks": 264000,
          "time": 220,
          "velocity": 0.8267716535433071
        },
        {
          "duration": 0.3333333333333428,
          "durationTicks": 400,
          "midi": 72,
          "name": "C5",
          "ticks": 264480,
          "time": 220.4,
          "velocity": 0.8267716535433071
        },
        {
          "duration": 0.3333333333333428,
          "durationTicks": 400,
          "midi": 67,
          "name": "G4",
          "ticks": 264960,
          "time": 220.8,
          "velocity": 0.8267716535433071
        },
        {
          "duration": 0.19666666666668675,
          "durationTicks": 236,
          "midi": 83,
          "name": "B5",
          "ticks": 265680,
          "time": 221.4,
          "velocity": 0.8267716535433071
        },
        {
          "duration": 0.3333333333333428,
          "durationTicks": 400,
          "midi": 84,
          "name": "C6",
          "ticks": 265920,
          "time": 221.60000000000002,
          "velocity": 0.8267716535433071
        },
        {
          "duration": 0.19666666666665833,
          "durationTicks": 236,
          "midi": 84,
          "name": "C6",
          "ticks": 266640,
          "time": 222.20000000000002,
          "velocity": 0.8267716535433071
        },
        {
          "duration": 0.3333333333333428,
          "durationTicks": 400,
          "midi": 83,
          "name": "B5",
          "ticks": 266880,
          "time": 222.4,
          "velocity": 0.8267716535433071
        },
        {
          "duration": 0.19666666666668675,
          "durationTicks": 236,
          "midi": 83,
          "name": "B5",
          "ticks": 267600,
          "time": 223,
          "velocity": 0.8267716535433071
        },
        {
          "duration": 0.3333333333333428,
          "durationTicks": 400,
          "midi": 84,
          "name": "C6",
          "ticks": 267840,
          "time": 223.20000000000002,
          "velocity": 0.8267716535433071
        },
        {
          "duration": 0.19666666666665833,
          "durationTicks": 236,
          "midi": 84,
          "name": "C6",
          "ticks": 268560,
          "time": 223.8,
          "velocity": 0.8267716535433071
        },
        {
          "duration": 0.19666666666668675,
          "durationTicks": 236,
          "midi": 83,
          "name": "B5",
          "ticks": 268800,
          "time": 224,
          "velocity": 0.8267716535433071
        },
        {
          "duration": 0.19666666666665833,
          "durationTicks": 236,
          "midi": 84,
          "name": "C6",
          "ticks": 269040,
          "time": 224.20000000000002,
          "velocity": 0.8346456692913385
        },
        {
          "duration": 0.19666666666668675,
          "durationTicks": 236,
          "midi": 83,
          "name": "B5",
          "ticks": 269280,
          "time": 224.4,
          "velocity": 0.8503937007874016
        },
        {
          "duration": 0.19666666666665833,
          "durationTicks": 236,
          "midi": 84,
          "name": "C6",
          "ticks": 269520,
          "time": 224.60000000000002,
          "velocity": 0.8582677165354331
        },
        {
          "duration": 0.19666666666665833,
          "durationTicks": 236,
          "midi": 83,
          "name": "B5",
          "ticks": 269760,
          "time": 224.8,
          "velocity": 0.8661417322834646
        },
        {
          "duration": 0.19666666666668675,
          "durationTicks": 236,
          "midi": 84,
          "name": "C6",
          "ticks": 270000,
          "time": 225,
          "velocity": 0.8740157480314961
        },
        {
          "duration": 0.19666666666665833,
          "durationTicks": 236,
          "midi": 83,
          "name": "B5",
          "ticks": 270240,
          "time": 225.20000000000002,
          "velocity": 0.8818897637795275
        },
        {
          "duration": 0.19666666666668675,
          "durationTicks": 236,
          "midi": 84,
          "name": "C6",
          "ticks": 270480,
          "time": 225.4,
          "velocity": 0.889763779527559
        },
        {
          "duration": 0.3333333333333428,
          "durationTicks": 400,
          "midi": 83,
          "name": "B5",
          "ticks": 270720,
          "time": 225.60000000000002,
          "velocity": 0.905511811023622
        },
        {
          "duration": 0.33333333333337123,
          "durationTicks": 400,
          "midi": 62,
          "name": "D4",
          "ticks": 271200,
          "time": 226,
          "velocity": 0.9212598425196851
        },
        {
          "duration": 0.33333333333337123,
          "durationTicks": 400,
          "midi": 71,
          "name": "B4",
          "ticks": 271200,
          "time": 226,
          "velocity": 0.9212598425196851
        },
        {
          "duration": 0.33333333333337123,
          "durationTicks": 400,
          "midi": 79,
          "name": "G5",
          "ticks": 271200,
          "time": 226,
          "velocity": 0.9212598425196851
        },
        {
          "duration": 0.3333333333333428,
          "durationTicks": 400,
          "midi": 55,
          "name": "G3",
          "ticks": 271680,
          "time": 226.4,
          "velocity": 0.937007874015748
        },
        {
          "duration": 0.3333333333333428,
          "durationTicks": 400,
          "midi": 67,
          "name": "G4",
          "ticks": 271680,
          "time": 226.4,
          "velocity": 0.937007874015748
        },
        {
          "duration": 0.3333333333333428,
          "durationTicks": 400,
          "midi": 55,
          "name": "G3",
          "ticks": 272160,
          "time": 226.8,
          "velocity": 0.952755905511811
        },
        {
          "duration": 0.3333333333333428,
          "durationTicks": 400,
          "midi": 67,
          "name": "G4",
          "ticks": 272160,
          "time": 226.8,
          "velocity": 0.952755905511811
        },
        {
          "duration": 1.5,
          "durationTicks": 1800,
          "midi": 55,
          "name": "G3",
          "ticks": 272640,
          "time": 227.20000000000002,
          "velocity": 0.9763779527559056
        },
        {
          "duration": 1.5,
          "durationTicks": 1800,
          "midi": 67,
          "name": "G4",
          "ticks": 272640,
          "time": 227.20000000000002,
          "velocity": 0.9763779527559056
        },
        {
          "duration": 0.3333333333333428,
          "durationTicks": 400,
          "midi": 60,
          "name": "C4",
          "ticks": 274560,
          "time": 228.8,
          "velocity": 0.4015748031496063
        },
        {
          "duration": 0.06666666666666288,
          "durationTicks": 80,
          "midi": 55,
          "name": "G3",
          "ticks": 275280,
          "time": 229.4,
          "velocity": 0.4015748031496063
        },
        {
          "duration": 0.0666666666666913,
          "durationTicks": 80,
          "midi": 57,
          "name": "A3",
          "ticks": 275360,
          "time": 229.46666666666667,
          "velocity": 0.4015748031496063
        },
        {
          "duration": 0.06666666666666288,
          "durationTicks": 80,
          "midi": 59,
          "name": "B3",
          "ticks": 275440,
          "time": 229.53333333333336,
          "velocity": 0.4015748031496063
        },
        {
          "duration": 0.3333333333333428,
          "durationTicks": 400,
          "midi": 60,
          "name": "C4",
          "ticks": 275520,
          "time": 229.60000000000002,
          "velocity": 0.4015748031496063
        },
        {
          "duration": 0.06666666666663446,
          "durationTicks": 80,
          "midi": 55,
          "name": "G3",
          "ticks": 276240,
          "time": 230.20000000000002,
          "velocity": 0.4015748031496063
        },
        {
          "duration": 0.06666666666671972,
          "durationTicks": 80,
          "midi": 57,
          "name": "A3",
          "ticks": 276320,
          "time": 230.26666666666665,
          "velocity": 0.4015748031496063
        },
        {
          "duration": 0.06666666666663446,
          "durationTicks": 80,
          "midi": 59,
          "name": "B3",
          "ticks": 276400,
          "time": 230.33333333333337,
          "velocity": 0.4015748031496063
        },
        {
          "duration": 0.3333333333333428,
          "durationTicks": 400,
          "midi": 60,
          "name": "C4",
          "ticks": 276480,
          "time": 230.4,
          "velocity": 0.4015748031496063
        },
        {
          "duration": 0.19666666666665833,
          "durationTicks": 236,
          "midi": 72,
          "name": "C5",
          "ticks": 278160,
          "time": 231.8,
          "velocity": 0.4015748031496063
        },
        {
          "duration": 0.6000000000000227,
          "durationTicks": 720,
          "midi": 72,
          "name": "C5",
          "ticks": 278400,
          "time": 232,
          "velocity": 0.4015748031496063
        },
        {
          "duration": 0.19999999999998863,
          "durationTicks": 240,
          "midi": 71,
          "name": "B4",
          "ticks": 279120,
          "time": 232.60000000000002,
          "velocity": 0.4015748031496063
        },
        {
          "duration": 0.5999999999999943,
          "durationTicks": 720,
          "midi": 74,
          "name": "D5",
          "ticks": 279360,
          "time": 232.8,
          "velocity": 0.4015748031496063
        },
        {
          "duration": 0.19666666666668675,
          "durationTicks": 236,
          "midi": 72,
          "name": "C5",
          "ticks": 280080,
          "time": 233.4,
          "velocity": 0.4015748031496063
        },
        {
          "duration": 0.799999999999983,
          "durationTicks": 960,
          "midi": 79,
          "name": "G5",
          "ticks": 280320,
          "time": 233.60000000000002,
          "velocity": 0.4015748031496063
        },
        {
          "duration": 0.3333333333333428,
          "durationTicks": 400,
          "midi": 77,
          "name": "F5",
          "ticks": 281280,
          "time": 234.4,
          "velocity": 0.4015748031496063
        },
        {
          "duration": 0.3333333333333428,
          "durationTicks": 400,
          "midi": 67,
          "name": "G4",
          "ticks": 282240,
          "time": 235.20000000000002,
          "velocity": 0.4015748031496063
        },
        {
          "duration": 0.06666666666666288,
          "durationTicks": 80,
          "midi": 62,
          "name": "D4",
          "ticks": 282960,
          "time": 235.8,
          "velocity": 0.4015748031496063
        },
        {
          "duration": 0.0666666666666913,
          "durationTicks": 80,
          "midi": 64,
          "name": "E4",
          "ticks": 283040,
          "time": 235.86666666666667,
          "velocity": 0.4015748031496063
        },
        {
          "duration": 0.06666666666663446,
          "durationTicks": 80,
          "midi": 66,
          "name": "F#4",
          "ticks": 283120,
          "time": 235.93333333333337,
          "velocity": 0.4015748031496063
        },
        {
          "duration": 0.33333333333337123,
          "durationTicks": 400,
          "midi": 67,
          "name": "G4",
          "ticks": 283200,
          "time": 236,
          "velocity": 0.4015748031496063
        },
        {
          "duration": 0.06666666666663446,
          "durationTicks": 80,
          "midi": 62,
          "name": "D4",
          "ticks": 283920,
          "time": 236.60000000000002,
          "velocity": 0.4015748031496063
        },
        {
          "duration": 0.0666666666666913,
          "durationTicks": 80,
          "midi": 64,
          "name": "E4",
          "ticks": 284000,
          "time": 236.66666666666666,
          "velocity": 0.4015748031496063
        },
        {
          "duration": 0.06666666666666288,
          "durationTicks": 80,
          "midi": 66,
          "name": "F#4",
          "ticks": 284080,
          "time": 236.73333333333335,
          "velocity": 0.4015748031496063
        },
        {
          "duration": 0.3333333333333428,
          "durationTicks": 400,
          "midi": 67,
          "name": "G4",
          "ticks": 284160,
          "time": 236.8,
          "velocity": 0.4015748031496063
        },
        {
          "duration": 0.19666666666665833,
          "durationTicks": 236,
          "midi": 74,
          "name": "D5",
          "ticks": 285840,
          "time": 238.20000000000002,
          "velocity": 0.4015748031496063
        },
        {
          "duration": 0.5999999999999943,
          "durationTicks": 720,
          "midi": 74,
          "name": "D5",
          "ticks": 286080,
          "time": 238.4,
          "velocity": 0.4015748031496063
        },
        {
          "duration": 0.20000000000001705,
          "durationTicks": 240,
          "midi": 73,
          "name": "C#5",
          "ticks": 286800,
          "time": 239,
          "velocity": 0.4015748031496063
        },
        {
          "duration": 0.5999999999999943,
          "durationTicks": 720,
          "midi": 76,
          "name": "E5",
          "ticks": 287040,
          "time": 239.20000000000002,
          "velocity": 0.4015748031496063
        },
        {
          "duration": 0.19666666666665833,
          "durationTicks": 236,
          "midi": 74,
          "name": "D5",
          "ticks": 287760,
          "time": 239.8,
          "velocity": 0.4015748031496063
        },
        {
          "duration": 0.8000000000000114,
          "durationTicks": 960,
          "midi": 82,
          "name": "A#5",
          "ticks": 288000,
          "time": 240,
          "velocity": 0.4015748031496063
        },
        {
          "duration": 0.19666666666665833,
          "durationTicks": 236,
          "midi": 81,
          "name": "A5",
          "ticks": 288960,
          "time": 240.8,
          "velocity": 0.4015748031496063
        },
        {
          "duration": 0.2666666666666515,
          "durationTicks": 320,
          "midi": 76,
          "name": "E5",
          "ticks": 289440,
          "time": 241.20000000000002,
          "velocity": 0.4015748031496063
        },
        {
          "duration": 0.799999999999983,
          "durationTicks": 960,
          "midi": 79,
          "name": "G5",
          "ticks": 289920,
          "time": 241.60000000000002,
          "velocity": 0.4015748031496063
        },
        {
          "duration": 0.19666666666668675,
          "durationTicks": 236,
          "midi": 78,
          "name": "F#5",
          "ticks": 290880,
          "time": 242.4,
          "velocity": 0.4015748031496063
        },
        {
          "duration": 0.2666666666666515,
          "durationTicks": 320,
          "midi": 74,
          "name": "D5",
          "ticks": 291360,
          "time": 242.8,
          "velocity": 0.4015748031496063
        },
        {
          "duration": 0.799999999999983,
          "durationTicks": 960,
          "midi": 80,
          "name": "G#5",
          "ticks": 291840,
          "time": 243.20000000000002,
          "velocity": 0.4015748031496063
        },
        {
          "duration": 0.19666666666668675,
          "durationTicks": 236,
          "midi": 79,
          "name": "G5",
          "ticks": 292800,
          "time": 244,
          "velocity": 0.4015748031496063
        },
        {
          "duration": 0.2666666666666515,
          "durationTicks": 320,
          "midi": 74,
          "name": "D5",
          "ticks": 293280,
          "time": 244.4,
          "velocity": 0.4015748031496063
        },
        {
          "duration": 0.8000000000000114,
          "durationTicks": 960,
          "midi": 77,
          "name": "F5",
          "ticks": 293760,
          "time": 244.8,
          "velocity": 0.4015748031496063
        },
        {
          "duration": 0.19666666666665833,
          "durationTicks": 236,
          "midi": 76,
          "name": "E5",
          "ticks": 294720,
          "time": 245.60000000000002,
          "velocity": 0.4015748031496063
        },
        {
          "duration": 0.2666666666666515,
          "durationTicks": 320,
          "midi": 72,
          "name": "C5",
          "ticks": 295200,
          "time": 246,
          "velocity": 0.4015748031496063
        },
        {
          "duration": 0.4000000000000057,
          "durationTicks": 480,
          "midi": 79,
          "name": "G5",
          "ticks": 295680,
          "time": 246.4,
          "velocity": 0.4015748031496063
        },
        {
          "duration": 0.8000000000000114,
          "durationTicks": 960,
          "midi": 77,
          "name": "F5",
          "ticks": 296160,
          "time": 246.8,
          "velocity": 0.4015748031496063
        },
        {
          "duration": 0.39999999999997726,
          "durationTicks": 480,
          "midi": 76,
          "name": "E5",
          "ticks": 297120,
          "time": 247.60000000000002,
          "velocity": 0.4015748031496063
        },
        {
          "duration": 0.33333333333337123,
          "durationTicks": 400,
          "midi": 76,
          "name": "E5",
          "ticks": 297600,
          "time": 248,
          "velocity": 0.4015748031496063
        },
        {
          "duration": 0.3333333333333428,
          "durationTicks": 400,
          "midi": 74,
          "name": "D5",
          "ticks": 298080,
          "time": 248.4,
          "velocity": 0.4015748031496063
        },
        {
          "duration": 0.3333333333333428,
          "durationTicks": 400,
          "midi": 81,
          "name": "A5",
          "ticks": 298560,
          "time": 248.8,
          "velocity": 0.4015748031496063
        },
        {
          "duration": 0.3333333333333428,
          "durationTicks": 400,
          "midi": 72,
          "name": "C5",
          "ticks": 299040,
          "time": 249.20000000000002,
          "velocity": 0.4015748031496063
        },
        {
          "duration": 0.3333333333333428,
          "durationTicks": 400,
          "midi": 62,
          "name": "D4",
          "ticks": 299520,
          "time": 249.60000000000002,
          "velocity": 0.8267716535433071
        },
        {
          "duration": 0.3333333333333428,
          "durationTicks": 400,
          "midi": 71,
          "name": "B4",
          "ticks": 299520,
          "time": 249.60000000000002,
          "velocity": 0.8267716535433071
        },
        {
          "duration": 0.3333333333333428,
          "durationTicks": 400,
          "midi": 79,
          "name": "G5",
          "ticks": 299520,
          "time": 249.60000000000002,
          "velocity": 0.8267716535433071
        },
        {
          "duration": 0.06666666666663446,
          "durationTicks": 80,
          "midi": 62,
          "name": "D4",
          "ticks": 300240,
          "time": 250.20000000000002,
          "velocity": 0.8267716535433071
        },
        {
          "duration": 0.06666666666671972,
          "durationTicks": 80,
          "midi": 64,
          "name": "E4",
          "ticks": 300320,
          "time": 250.26666666666665,
          "velocity": 0.8267716535433071
        },
        {
          "duration": 0.06666666666663446,
          "durationTicks": 80,
          "midi": 66,
          "name": "F#4",
          "ticks": 300400,
          "time": 250.33333333333337,
          "velocity": 0.8267716535433071
        },
        {
          "duration": 0.3333333333333428,
          "durationTicks": 400,
          "midi": 67,
          "name": "G4",
          "ticks": 300480,
          "time": 250.4,
          "velocity": 0.8267716535433071
        },
        {
          "duration": 0.06666666666666288,
          "durationTicks": 80,
          "midi": 62,
          "name": "D4",
          "ticks": 301200,
          "time": 251,
          "velocity": 0.8267716535433071
        },
        {
          "duration": 0.0666666666666913,
          "durationTicks": 80,
          "midi": 64,
          "name": "E4",
          "ticks": 301280,
          "time": 251.06666666666666,
          "velocity": 0.8267716535433071
        },
        {
          "duration": 0.06666666666666288,
          "durationTicks": 80,
          "midi": 66,
          "name": "F#4",
          "ticks": 301360,
          "time": 251.13333333333335,
          "velocity": 0.8267716535433071
        },
        {
          "duration": 0.3333333333333428,
          "durationTicks": 400,
          "midi": 67,
          "name": "G4",
          "ticks": 301440,
          "time": 251.20000000000002,
          "velocity": 0.8267716535433071
        },
        {
          "duration": 0.13333333333332575,
          "durationTicks": 160,
          "midi": 79,
          "name": "G5",
          "ticks": 303120,
          "time": 252.60000000000002,
          "velocity": 0.8267716535433071
        },
        {
          "duration": 0.5999999999999943,
          "durationTicks": 720,
          "midi": 81,
          "name": "A5",
          "ticks": 303360,
          "time": 252.8,
          "velocity": 0.8267716535433071
        },
        {
          "duration": 0.19666666666668675,
          "durationTicks": 236,
          "midi": 79,
          "name": "G5",
          "ticks": 304080,
          "time": 253.4,
          "velocity": 0.8267716535433071
        },
        {
          "duration": 0.5999999999999943,
          "durationTicks": 720,
          "midi": 83,
          "name": "B5",
          "ticks": 304320,
          "time": 253.60000000000002,
          "velocity": 0.8267716535433071
        },
        {
          "duration": 0.19666666666665833,
          "durationTicks": 236,
          "midi": 81,
          "name": "A5",
          "ticks": 305040,
          "time": 254.20000000000002,
          "velocity": 0.8267716535433071
        },
        {
          "duration": 0.8000000000000114,
          "durationTicks": 960,
          "midi": 84,
          "name": "C6",
          "ticks": 305280,
          "time": 254.4,
          "velocity": 0.8267716535433071
        },
        {
          "duration": 0.3333333333333428,
          "durationTicks": 400,
          "midi": 83,
          "name": "B5",
          "ticks": 306240,
          "time": 255.20000000000002,
          "velocity": 0.8267716535433071
        },
        {
          "duration": 0.13333333333335418,
          "durationTicks": 160,
          "midi": 80,
          "name": "G#5",
          "ticks": 306960,
          "time": 255.8,
          "velocity": 0.8267716535433071
        },
        {
          "duration": 0.6000000000000227,
          "durationTicks": 720,
          "midi": 83,
          "name": "B5",
          "ticks": 307200,
          "time": 256,
          "velocity": 0.8267716535433071
        },
        {
          "duration": 0.19666666666665833,
          "durationTicks": 236,
          "midi": 81,
          "name": "A5",
          "ticks": 307920,
          "time": 256.6,
          "velocity": 0.8267716535433071
        },
        {
          "duration": 0.6000000000000227,
          "durationTicks": 720,
          "midi": 84,
          "name": "C6",
          "ticks": 308160,
          "time": 256.8,
          "velocity": 0.8267716535433071
        },
        {
          "duration": 0.19666666666665833,
          "durationTicks": 236,
          "midi": 83,
          "name": "B5",
          "ticks": 308880,
          "time": 257.40000000000003,
          "velocity": 0.8267716535433071
        },
        {
          "duration": 0.8000000000000114,
          "durationTicks": 960,
          "midi": 86,
          "name": "D6",
          "ticks": 309120,
          "time": 257.6,
          "velocity": 0.8267716535433071
        },
        {
          "duration": 0.3333333333333144,
          "durationTicks": 400,
          "midi": 84,
          "name": "C6",
          "ticks": 310080,
          "time": 258.40000000000003,
          "velocity": 0.8267716535433071
        },
        {
          "duration": 0.1500000000000341,
          "durationTicks": 180,
          "midi": 81,
          "name": "A5",
          "ticks": 310800,
          "time": 259,
          "velocity": 0.8267716535433071
        },
        {
          "duration": 0.6000000000000227,
          "durationTicks": 720,
          "midi": 84,
          "name": "C6",
          "ticks": 311040,
          "time": 259.2,
          "velocity": 0.8267716535433071
        },
        {
          "duration": 0.19666666666665833,
          "durationTicks": 236,
          "midi": 83,
          "name": "B5",
          "ticks": 311760,
          "time": 259.8,
          "velocity": 0.8267716535433071
        },
        {
          "duration": 0.6000000000000227,
          "durationTicks": 720,
          "midi": 86,
          "name": "D6",
          "ticks": 312000,
          "time": 260,
          "velocity": 0.8267716535433071
        },
        {
          "duration": 0.19666666666665833,
          "durationTicks": 236,
          "midi": 85,
          "name": "C#6",
          "ticks": 312720,
          "time": 260.6,
          "velocity": 0.8267716535433071
        },
        {
          "duration": 0.8000000000000114,
          "durationTicks": 960,
          "midi": 88,
          "name": "E6",
          "ticks": 312960,
          "time": 260.8,
          "velocity": 0.8267716535433071
        },
        {
          "duration": 0.3333333333333144,
          "durationTicks": 400,
          "midi": 86,
          "name": "D6",
          "ticks": 313920,
          "time": 261.6,
          "velocity": 0.8267716535433071
        },
        {
          "duration": 0.1500000000000341,
          "durationTicks": 180,
          "midi": 83,
          "name": "B5",
          "ticks": 314640,
          "time": 262.2,
          "velocity": 0.8267716535433071
        },
        {
          "duration": 0.7999999999999545,
          "durationTicks": 960,
          "midi": 86,
          "name": "D6",
          "ticks": 314880,
          "time": 262.40000000000003,
          "velocity": 0.8267716535433071
        },
        {
          "duration": 0.33333333333337123,
          "durationTicks": 400,
          "midi": 84,
          "name": "C6",
          "ticks": 315840,
          "time": 263.2,
          "velocity": 0.8267716535433071
        },
        {
          "duration": 0.14999999999997726,
          "durationTicks": 180,
          "midi": 82,
          "name": "A#5",
          "ticks": 316560,
          "time": 263.8,
          "velocity": 0.8267716535433071
        },
        {
          "duration": 0.8000000000000114,
          "durationTicks": 960,
          "midi": 84,
          "name": "C6",
          "ticks": 316800,
          "time": 264,
          "velocity": 0.8267716535433071
        },
        {
          "duration": 0.33333333333337123,
          "durationTicks": 400,
          "midi": 83,
          "name": "B5",
          "ticks": 317760,
          "time": 264.8,
          "velocity": 0.8267716535433071
        },
        {
          "duration": 0.14999999999997726,
          "durationTicks": 180,
          "midi": 83,
          "name": "B5",
          "ticks": 318480,
          "time": 265.40000000000003,
          "velocity": 0.8267716535433071
        },
        {
          "duration": 0.3333333333333144,
          "durationTicks": 400,
          "midi": 81,
          "name": "A5",
          "ticks": 318720,
          "time": 265.6,
          "velocity": 0.8267716535433071
        },
        {
          "duration": 0.33333333333337123,
          "durationTicks": 400,
          "midi": 80,
          "name": "G#5",
          "ticks": 319200,
          "time": 266,
          "velocity": 0.8267716535433071
        },
        {
          "duration": 0.3333333333333144,
          "durationTicks": 400,
          "midi": 81,
          "name": "A5",
          "ticks": 319680,
          "time": 266.40000000000003,
          "velocity": 0.8267716535433071
        },
        {
          "duration": 0.33333333333337123,
          "durationTicks": 400,
          "midi": 80,
          "name": "G#5",
          "ticks": 320160,
          "time": 266.8,
          "velocity": 0.8267716535433071
        },
        {
          "duration": 0.33333333333337123,
          "durationTicks": 400,
          "midi": 81,
          "name": "A5",
          "ticks": 320640,
          "time": 267.2,
          "velocity": 0.8267716535433071
        },
        {
          "duration": 0.3333333333333144,
          "durationTicks": 400,
          "midi": 84,
          "name": "C6",
          "ticks": 321120,
          "time": 267.6,
          "velocity": 0.8267716535433071
        },
        {
          "duration": 0.33333333333337123,
          "durationTicks": 400,
          "midi": 81,
          "name": "A5",
          "ticks": 321600,
          "time": 268,
          "velocity": 0.8267716535433071
        },
        {
          "duration": 0.3333333333333144,
          "durationTicks": 400,
          "midi": 79,
          "name": "G5",
          "ticks": 322080,
          "time": 268.40000000000003,
          "velocity": 0.8267716535433071
        },
        {
          "duration": 0.33333333333337123,
          "durationTicks": 400,
          "midi": 78,
          "name": "F#5",
          "ticks": 322560,
          "time": 268.8,
          "velocity": 0.8267716535433071
        },
        {
          "duration": 0.33333333333337123,
          "durationTicks": 400,
          "midi": 62,
          "name": "D4",
          "ticks": 324000,
          "time": 270,
          "velocity": 0.8267716535433071
        },
        {
          "duration": 0.33333333333337123,
          "durationTicks": 400,
          "midi": 74,
          "name": "D5",
          "ticks": 324000,
          "time": 270,
          "velocity": 0.8267716535433071
        },
        {
          "duration": 0.33333333333337123,
          "durationTicks": 400,
          "midi": 81,
          "name": "A5",
          "ticks": 324000,
          "time": 270,
          "velocity": 0.8267716535433071
        },
        {
          "duration": 0.3333333333333144,
          "durationTicks": 400,
          "midi": 62,
          "name": "D4",
          "ticks": 324480,
          "time": 270.40000000000003,
          "velocity": 0.8267716535433071
        },
        {
          "duration": 0.3333333333333144,
          "durationTicks": 400,
          "midi": 74,
          "name": "D5",
          "ticks": 324480,
          "time": 270.40000000000003,
          "velocity": 0.8267716535433071
        },
        {
          "duration": 0.3333333333333144,
          "durationTicks": 400,
          "midi": 83,
          "name": "B5",
          "ticks": 324480,
          "time": 270.40000000000003,
          "velocity": 0.8267716535433071
        },
        {
          "duration": 0.3333333333333144,
          "durationTicks": 400,
          "midi": 62,
          "name": "D4",
          "ticks": 325920,
          "time": 271.6,
          "velocity": 0.8267716535433071
        },
        {
          "duration": 0.3333333333333144,
          "durationTicks": 400,
          "midi": 71,
          "name": "B4",
          "ticks": 325920,
          "time": 271.6,
          "velocity": 0.8267716535433071
        },
        {
          "duration": 0.3333333333333144,
          "durationTicks": 400,
          "midi": 79,
          "name": "G5",
          "ticks": 325920,
          "time": 271.6,
          "velocity": 0.8267716535433071
        },
        {
          "duration": 0.33333333333337123,
          "durationTicks": 400,
          "midi": 62,
          "name": "D4",
          "ticks": 326400,
          "time": 272,
          "velocity": 0.8267716535433071
        },
        {
          "duration": 0.33333333333337123,
          "durationTicks": 400,
          "midi": 74,
          "name": "D5",
          "ticks": 326400,
          "time": 272,
          "velocity": 0.8267716535433071
        },
        {
          "duration": 0.33333333333337123,
          "durationTicks": 400,
          "midi": 86,
          "name": "D6",
          "ticks": 326400,
          "time": 272,
          "velocity": 0.8267716535433071
        },
        {
          "duration": 0.33333333333337123,
          "durationTicks": 400,
          "midi": 62,
          "name": "D4",
          "ticks": 327840,
          "time": 273.2,
          "velocity": 0.8267716535433071
        },
        {
          "duration": 0.33333333333337123,
          "durationTicks": 400,
          "midi": 74,
          "name": "D5",
          "ticks": 327840,
          "time": 273.2,
          "velocity": 0.8267716535433071
        },
        {
          "duration": 0.33333333333337123,
          "durationTicks": 400,
          "midi": 81,
          "name": "A5",
          "ticks": 327840,
          "time": 273.2,
          "velocity": 0.8267716535433071
        },
        {
          "duration": 0.3333333333333144,
          "durationTicks": 400,
          "midi": 62,
          "name": "D4",
          "ticks": 328320,
          "time": 273.6,
          "velocity": 0.8267716535433071
        },
        {
          "duration": 0.3333333333333144,
          "durationTicks": 400,
          "midi": 74,
          "name": "D5",
          "ticks": 328320,
          "time": 273.6,
          "velocity": 0.8267716535433071
        },
        {
          "duration": 0.3333333333333144,
          "durationTicks": 400,
          "midi": 83,
          "name": "B5",
          "ticks": 328320,
          "time": 273.6,
          "velocity": 0.8267716535433071
        },
        {
          "duration": 0.33333333333337123,
          "durationTicks": 400,
          "midi": 62,
          "name": "D4",
          "ticks": 329760,
          "time": 274.8,
          "velocity": 0.8267716535433071
        },
        {
          "duration": 0.33333333333337123,
          "durationTicks": 400,
          "midi": 74,
          "name": "D5",
          "ticks": 329760,
          "time": 274.8,
          "velocity": 0.8267716535433071
        },
        {
          "duration": 0.33333333333337123,
          "durationTicks": 400,
          "midi": 79,
          "name": "G5",
          "ticks": 329760,
          "time": 274.8,
          "velocity": 0.8267716535433071
        },
        {
          "duration": 0.33333333333337123,
          "durationTicks": 400,
          "midi": 62,
          "name": "D4",
          "ticks": 330240,
          "time": 275.2,
          "velocity": 0.8267716535433071
        },
        {
          "duration": 0.33333333333337123,
          "durationTicks": 400,
          "midi": 74,
          "name": "D5",
          "ticks": 330240,
          "time": 275.2,
          "velocity": 0.8267716535433071
        },
        {
          "duration": 0.33333333333337123,
          "durationTicks": 400,
          "midi": 86,
          "name": "D6",
          "ticks": 330240,
          "time": 275.2,
          "velocity": 0.8267716535433071
        },
        {
          "duration": 0.3333333333333144,
          "durationTicks": 400,
          "midi": 62,
          "name": "D4",
          "ticks": 330720,
          "time": 275.6,
          "velocity": 0.8267716535433071
        },
        {
          "duration": 0.3333333333333144,
          "durationTicks": 400,
          "midi": 74,
          "name": "D5",
          "ticks": 330720,
          "time": 275.6,
          "velocity": 0.8267716535433071
        },
        {
          "duration": 0.3333333333333144,
          "durationTicks": 400,
          "midi": 81,
          "name": "A5",
          "ticks": 330720,
          "time": 275.6,
          "velocity": 0.8267716535433071
        },
        {
          "duration": 0.3333333333333144,
          "durationTicks": 400,
          "midi": 62,
          "name": "D4",
          "ticks": 331680,
          "time": 276.40000000000003,
          "velocity": 0.8267716535433071
        },
        {
          "duration": 0.3333333333333144,
          "durationTicks": 400,
          "midi": 74,
          "name": "D5",
          "ticks": 331680,
          "time": 276.40000000000003,
          "velocity": 0.8267716535433071
        },
        {
          "duration": 0.3333333333333144,
          "durationTicks": 400,
          "midi": 83,
          "name": "B5",
          "ticks": 331680,
          "time": 276.40000000000003,
          "velocity": 0.8267716535433071
        },
        {
          "duration": 0.33333333333337123,
          "durationTicks": 400,
          "midi": 62,
          "name": "D4",
          "ticks": 332640,
          "time": 277.2,
          "velocity": 0.8267716535433071
        },
        {
          "duration": 0.33333333333337123,
          "durationTicks": 400,
          "midi": 74,
          "name": "D5",
          "ticks": 332640,
          "time": 277.2,
          "velocity": 0.8267716535433071
        },
        {
          "duration": 0.33333333333337123,
          "durationTicks": 400,
          "midi": 81,
          "name": "A5",
          "ticks": 332640,
          "time": 277.2,
          "velocity": 0.8267716535433071
        },
        {
          "duration": 0.33333333333337123,
          "durationTicks": 400,
          "midi": 62,
          "name": "D4",
          "ticks": 333600,
          "time": 278,
          "velocity": 0.8267716535433071
        },
        {
          "duration": 0.33333333333337123,
          "durationTicks": 400,
          "midi": 74,
          "name": "D5",
          "ticks": 333600,
          "time": 278,
          "velocity": 0.8267716535433071
        },
        {
          "duration": 0.33333333333337123,
          "durationTicks": 400,
          "midi": 83,
          "name": "B5",
          "ticks": 333600,
          "time": 278,
          "velocity": 0.8267716535433071
        },
        {
          "duration": 0.3333333333333144,
          "durationTicks": 400,
          "midi": 62,
          "name": "D4",
          "ticks": 334080,
          "time": 278.40000000000003,
          "velocity": 0.8267716535433071
        },
        {
          "duration": 0.3333333333333144,
          "durationTicks": 400,
          "midi": 74,
          "name": "D5",
          "ticks": 334080,
          "time": 278.40000000000003,
          "velocity": 0.8267716535433071
        },
        {
          "duration": 0.3333333333333144,
          "durationTicks": 400,
          "midi": 81,
          "name": "A5",
          "ticks": 334080,
          "time": 278.40000000000003,
          "velocity": 0.8267716535433071
        },
        {
          "duration": 1.1999999999999886,
          "durationTicks": 1440,
          "midi": 79,
          "name": "G5",
          "ticks": 336000,
          "time": 280,
          "velocity": 0.4015748031496063
        },
        {
          "duration": 0.4000000000000341,
          "durationTicks": 480,
          "midi": 80,
          "name": "G#5",
          "ticks": 337440,
          "time": 281.2,
          "velocity": 0.4015748031496063
        },
        {
          "duration": 0.3333333333333144,
          "durationTicks": 400,
          "midi": 81,
          "name": "A5",
          "ticks": 337920,
          "time": 281.6,
          "velocity": 0.4015748031496063
        },
        {
          "duration": 0.30000000000001137,
          "durationTicks": 360,
          "midi": 84,
          "name": "C6",
          "ticks": 340320,
          "time": 283.6,
          "velocity": 0.4015748031496063
        },
        {
          "duration": 0.0999999999999659,
          "durationTicks": 120,
          "midi": 81,
          "name": "A5",
          "ticks": 340680,
          "time": 283.90000000000003,
          "velocity": 0.4015748031496063
        },
        {
          "duration": 0.19666666666665833,
          "durationTicks": 236,
          "midi": 78,
          "name": "F#5",
          "ticks": 340800,
          "time": 284,
          "velocity": 0.4015748031496063
        },
        {
          "duration": 0.19999999999998863,
          "durationTicks": 240,
          "midi": 78,
          "name": "F#5",
          "ticks": 341280,
          "time": 284.40000000000003,
          "velocity": 0.4015748031496063
        },
        {
          "duration": 0.05000000000001137,
          "durationTicks": 60,
          "midi": 81,
          "name": "A5",
          "ticks": 341760,
          "time": 284.8,
          "velocity": 0.4015748031496063
        },
        {
          "duration": 0.05000000000001137,
          "durationTicks": 60,
          "midi": 79,
          "name": "G5",
          "ticks": 341820,
          "time": 284.85,
          "velocity": 0.4015748031496063
        },
        {
          "duration": 0.049999999999954525,
          "durationTicks": 60,
          "midi": 81,
          "name": "A5",
          "ticks": 341880,
          "time": 284.90000000000003,
          "velocity": 0.4015748031496063
        },
        {
          "duration": 0.05000000000001137,
          "durationTicks": 60,
          "midi": 79,
          "name": "G5",
          "ticks": 341940,
          "time": 284.95,
          "velocity": 0.4015748031496063
        },
        {
          "duration": 0.05000000000001137,
          "durationTicks": 60,
          "midi": 81,
          "name": "A5",
          "ticks": 342000,
          "time": 285,
          "velocity": 0.4015748031496063
        },
        {
          "duration": 0.05000000000001137,
          "durationTicks": 60,
          "midi": 79,
          "name": "G5",
          "ticks": 342060,
          "time": 285.05,
          "velocity": 0.4015748031496063
        },
        {
          "duration": 0.05000000000001137,
          "durationTicks": 60,
          "midi": 81,
          "name": "A5",
          "ticks": 342120,
          "time": 285.1,
          "velocity": 0.4015748031496063
        },
        {
          "duration": 0.049999999999954525,
          "durationTicks": 60,
          "midi": 79,
          "name": "G5",
          "ticks": 342180,
          "time": 285.15000000000003,
          "velocity": 0.4015748031496063
        },
        {
          "duration": 0.05000000000001137,
          "durationTicks": 60,
          "midi": 81,
          "name": "A5",
          "ticks": 342240,
          "time": 285.2,
          "velocity": 0.4015748031496063
        },
        {
          "duration": 0.05000000000001137,
          "durationTicks": 60,
          "midi": 79,
          "name": "G5",
          "ticks": 342300,
          "time": 285.25,
          "velocity": 0.4015748031496063
        },
        {
          "duration": 0.05000000000001137,
          "durationTicks": 60,
          "midi": 81,
          "name": "A5",
          "ticks": 342360,
          "time": 285.3,
          "velocity": 0.4015748031496063
        },
        {
          "duration": 0.05000000000001137,
          "durationTicks": 60,
          "midi": 79,
          "name": "G5",
          "ticks": 342420,
          "time": 285.35,
          "velocity": 0.4015748031496063
        },
        {
          "duration": 0.0999999999999659,
          "durationTicks": 120,
          "midi": 78,
          "name": "F#5",
          "ticks": 342480,
          "time": 285.40000000000003,
          "velocity": 0.4015748031496063
        },
        {
          "duration": 0.10000000000002274,
          "durationTicks": 120,
          "midi": 76,
          "name": "E5",
          "ticks": 342600,
          "time": 285.5,
          "velocity": 0.4015748031496063
        },
        {
          "duration": 0.19666666666665833,
          "durationTicks": 236,
          "midi": 74,
          "name": "D5",
          "ticks": 342720,
          "time": 285.6,
          "velocity": 0.4015748031496063
        },
        {
          "duration": 0.30000000000001137,
          "durationTicks": 360,
          "midi": 74,
          "name": "D5",
          "ticks": 343200,
          "time": 286,
          "velocity": 0.4015748031496063
        },
        {
          "duration": 0.09666666666669244,
          "durationTicks": 116,
          "midi": 76,
          "name": "E5",
          "ticks": 343560,
          "time": 286.3,
          "velocity": 0.4015748031496063
        },
        {
          "duration": 0.19999999999998863,
          "durationTicks": 240,
          "midi": 72,
          "name": "C5",
          "ticks": 343680,
          "time": 286.40000000000003,
          "velocity": 0.4015748031496063
        },
        {
          "duration": 0.30000000000001137,
          "durationTicks": 360,
          "midi": 72,
          "name": "C5",
          "ticks": 344160,
          "time": 286.8,
          "velocity": 0.4015748031496063
        },
        {
          "duration": 0.09666666666663559,
          "durationTicks": 116,
          "midi": 74,
          "name": "D5",
          "ticks": 344520,
          "time": 287.1,
          "velocity": 0.4015748031496063
        },
        {
          "duration": 0.19666666666671517,
          "durationTicks": 236,
          "midi": 71,
          "name": "B4",
          "ticks": 344640,
          "time": 287.2,
          "velocity": 0.4015748031496063
        },
        {
          "duration": 0.30000000000001137,
          "durationTicks": 360,
          "midi": 71,
          "name": "B4",
          "ticks": 345120,
          "time": 287.6,
          "velocity": 0.4015748031496063
        },
        {
          "duration": 0.09666666666663559,
          "durationTicks": 116,
          "midi": 72,
          "name": "C5",
          "ticks": 345480,
          "time": 287.90000000000003,
          "velocity": 0.4015748031496063
        },
        {
          "duration": 0.19999999999998863,
          "durationTicks": 240,
          "midi": 69,
          "name": "A4",
          "ticks": 345600,
          "time": 288,
          "velocity": 0.4015748031496063
        },
        {
          "duration": 0.20000000000004547,
          "durationTicks": 240,
          "midi": 71,
          "name": "B4",
          "ticks": 345840,
          "time": 288.2,
          "velocity": 0.4015748031496063
        },
        {
          "duration": 0.19999999999998863,
          "durationTicks": 240,
          "midi": 72,
          "name": "C5",
          "ticks": 346080,
          "time": 288.40000000000003,
          "velocity": 0.4015748031496063
        },
        {
          "duration": 0.19999999999998863,
          "durationTicks": 240,
          "midi": 73,
          "name": "C#5",
          "ticks": 346320,
          "time": 288.6,
          "velocity": 0.4015748031496063
        },
        {
          "duration": 0.19999999999998863,
          "durationTicks": 240,
          "midi": 74,
          "name": "D5",
          "ticks": 346560,
          "time": 288.8,
          "velocity": 0.4015748031496063
        },
        {
          "duration": 0.19999999999998863,
          "durationTicks": 240,
          "midi": 75,
          "name": "D#5",
          "ticks": 346800,
          "time": 289,
          "velocity": 0.4015748031496063
        },
        {
          "duration": 0.20000000000004547,
          "durationTicks": 240,
          "midi": 76,
          "name": "E5",
          "ticks": 347040,
          "time": 289.2,
          "velocity": 0.4015748031496063
        },
        {
          "duration": 0.19666666666665833,
          "durationTicks": 236,
          "midi": 78,
          "name": "F#5",
          "ticks": 347280,
          "time": 289.40000000000003,
          "velocity": 0.4015748031496063
        },
        {
          "duration": 1.1999999999999886,
          "durationTicks": 1440,
          "midi": 79,
          "name": "G5",
          "ticks": 347520,
          "time": 289.6,
          "velocity": 0.4015748031496063
        },
        {
          "duration": 0.39999999999997726,
          "durationTicks": 480,
          "midi": 80,
          "name": "G#5",
          "ticks": 348960,
          "time": 290.8,
          "velocity": 0.4015748031496063
        },
        {
          "duration": 0.33333333333337123,
          "durationTicks": 400,
          "midi": 81,
          "name": "A5",
          "ticks": 349440,
          "time": 291.2,
          "velocity": 0.4015748031496063
        },
        {
          "duration": 0.30000000000001137,
          "durationTicks": 360,
          "midi": 84,
          "name": "C6",
          "ticks": 351840,
          "time": 293.2,
          "velocity": 0.4015748031496063
        },
        {
          "duration": 0.10000000000002274,
          "durationTicks": 120,
          "midi": 81,
          "name": "A5",
          "ticks": 352200,
          "time": 293.5,
          "velocity": 0.4015748031496063
        },
        {
          "duration": 0.19666666666665833,
          "durationTicks": 236,
          "midi": 78,
          "name": "F#5",
          "ticks": 352320,
          "time": 293.6,
          "velocity": 0.4015748031496063
        },
        {
          "duration": 0.19999999999998863,
          "durationTicks": 240,
          "midi": 78,
          "name": "F#5",
          "ticks": 352800,
          "time": 294,
          "velocity": 0.4015748031496063
        },
        {
          "duration": 0.049999999999954525,
          "durationTicks": 60,
          "midi": 81,
          "name": "A5",
          "ticks": 353280,
          "time": 294.40000000000003,
          "velocity": 0.4015748031496063
        },
        {
          "duration": 0.05000000000001137,
          "durationTicks": 60,
          "midi": 79,
          "name": "G5",
          "ticks": 353340,
          "time": 294.45,
          "velocity": 0.4015748031496063
        },
        {
          "duration": 0.05000000000001137,
          "durationTicks": 60,
          "midi": 81,
          "name": "A5",
          "ticks": 353400,
          "time": 294.5,
          "velocity": 0.4015748031496063
        },
        {
          "duration": 0.05000000000001137,
          "durationTicks": 60,
          "midi": 79,
          "name": "G5",
          "ticks": 353460,
          "time": 294.55,
          "velocity": 0.4015748031496063
        },
        {
          "duration": 0.05000000000001137,
          "durationTicks": 60,
          "midi": 81,
          "name": "A5",
          "ticks": 353520,
          "time": 294.6,
          "velocity": 0.4015748031496063
        },
        {
          "duration": 0.049999999999954525,
          "durationTicks": 60,
          "midi": 79,
          "name": "G5",
          "ticks": 353580,
          "time": 294.65000000000003,
          "velocity": 0.4015748031496063
        },
        {
          "duration": 0.05000000000001137,
          "durationTicks": 60,
          "midi": 81,
          "name": "A5",
          "ticks": 353640,
          "time": 294.7,
          "velocity": 0.4015748031496063
        },
        {
          "duration": 0.05000000000001137,
          "durationTicks": 60,
          "midi": 79,
          "name": "G5",
          "ticks": 353700,
          "time": 294.75,
          "velocity": 0.4015748031496063
        },
        {
          "duration": 0.05000000000001137,
          "durationTicks": 60,
          "midi": 81,
          "name": "A5",
          "ticks": 353760,
          "time": 294.8,
          "velocity": 0.4015748031496063
        },
        {
          "duration": 0.05000000000001137,
          "durationTicks": 60,
          "midi": 79,
          "name": "G5",
          "ticks": 353820,
          "time": 294.85,
          "velocity": 0.4015748031496063
        },
        {
          "duration": 0.049999999999954525,
          "durationTicks": 60,
          "midi": 81,
          "name": "A5",
          "ticks": 353880,
          "time": 294.90000000000003,
          "velocity": 0.4015748031496063
        },
        {
          "duration": 0.05000000000001137,
          "durationTicks": 60,
          "midi": 79,
          "name": "G5",
          "ticks": 353940,
          "time": 294.95,
          "velocity": 0.4015748031496063
        },
        {
          "duration": 0.10000000000002274,
          "durationTicks": 120,
          "midi": 78,
          "name": "F#5",
          "ticks": 354000,
          "time": 295,
          "velocity": 0.4015748031496063
        },
        {
          "duration": 0.0999999999999659,
          "durationTicks": 120,
          "midi": 76,
          "name": "E5",
          "ticks": 354120,
          "time": 295.1,
          "velocity": 0.4015748031496063
        },
        {
          "duration": 0.19666666666671517,
          "durationTicks": 236,
          "midi": 74,
          "name": "D5",
          "ticks": 354240,
          "time": 295.2,
          "velocity": 0.4015748031496063
        },
        {
          "duration": 0.30000000000001137,
          "durationTicks": 360,
          "midi": 74,
          "name": "D5",
          "ticks": 354720,
          "time": 295.6,
          "velocity": 0.4015748031496063
        },
        {
          "duration": 0.09666666666663559,
          "durationTicks": 116,
          "midi": 76,
          "name": "E5",
          "ticks": 355080,
          "time": 295.90000000000003,
          "velocity": 0.4015748031496063
        },
        {
          "duration": 0.19999999999998863,
          "durationTicks": 240,
          "midi": 72,
          "name": "C5",
          "ticks": 355200,
          "time": 296,
          "velocity": 0.4015748031496063
        },
        {
          "duration": 0.2999999999999545,
          "durationTicks": 360,
          "midi": 72,
          "name": "C5",
          "ticks": 355680,
          "time": 296.40000000000003,
          "velocity": 0.4015748031496063
        },
        {
          "duration": 0.09666666666669244,
          "durationTicks": 116,
          "midi": 74,
          "name": "D5",
          "ticks": 356040,
          "time": 296.7,
          "velocity": 0.4015748031496063
        },
        {
          "duration": 0.19666666666665833,
          "durationTicks": 236,
          "midi": 71,
          "name": "B4",
          "ticks": 356160,
          "time": 296.8,
          "velocity": 0.4015748031496063
        },
        {
          "duration": 0.30000000000001137,
          "durationTicks": 360,
          "midi": 71,
          "name": "B4",
          "ticks": 356640,
          "time": 297.2,
          "velocity": 0.4015748031496063
        },
        {
          "duration": 0.09666666666669244,
          "durationTicks": 116,
          "midi": 72,
          "name": "C5",
          "ticks": 357000,
          "time": 297.5,
          "velocity": 0.4015748031496063
        },
        {
          "duration": 0.19999999999998863,
          "durationTicks": 240,
          "midi": 69,
          "name": "A4",
          "ticks": 357120,
          "time": 297.6,
          "velocity": 0.4015748031496063
        },
        {
          "duration": 0.19999999999998863,
          "durationTicks": 240,
          "midi": 69,
          "name": "A4",
          "ticks": 357600,
          "time": 298,
          "velocity": 0.4015748031496063
        },
        {
          "duration": 0.19999999999998863,
          "durationTicks": 240,
          "midi": 69,
          "name": "A4",
          "ticks": 358080,
          "time": 298.40000000000003,
          "velocity": 0.4015748031496063
        },
        {
          "duration": 0.30000000000001137,
          "durationTicks": 360,
          "midi": 71,
          "name": "B4",
          "ticks": 358560,
          "time": 298.8,
          "velocity": 0.4015748031496063
        },
        {
          "duration": 0.09666666666663559,
          "durationTicks": 116,
          "midi": 72,
          "name": "C5",
          "ticks": 358920,
          "time": 299.1,
          "velocity": 0.4015748031496063
        },
        {
          "duration": 0.20000000000004547,
          "durationTicks": 240,
          "midi": 74,
          "name": "D5",
          "ticks": 359040,
          "time": 299.2,
          "velocity": 0.4015748031496063
        },
        {
          "duration": 0.30000000000001137,
          "durationTicks": 360,
          "midi": 74,
          "name": "D5",
          "ticks": 359520,
          "time": 299.6,
          "velocity": 0.4015748031496063
        },
        {
          "duration": 0.09666666666663559,
          "durationTicks": 116,
          "midi": 76,
          "name": "E5",
          "ticks": 359880,
          "time": 299.90000000000003,
          "velocity": 0.4015748031496063
        },
        {
          "duration": 0.19666666666665833,
          "durationTicks": 236,
          "midi": 72,
          "name": "C5",
          "ticks": 360000,
          "time": 300,
          "velocity": 0.4015748031496063
        },
        {
          "duration": 0.2999999999999545,
          "durationTicks": 360,
          "midi": 72,
          "name": "C5",
          "ticks": 360480,
          "time": 300.40000000000003,
          "velocity": 0.4015748031496063
        },
        {
          "duration": 0.09666666666669244,
          "durationTicks": 116,
          "midi": 74,
          "name": "D5",
          "ticks": 360840,
          "time": 300.7,
          "velocity": 0.4015748031496063
        },
        {
          "duration": 0.19999999999998863,
          "durationTicks": 240,
          "midi": 71,
          "name": "B4",
          "ticks": 360960,
          "time": 300.8,
          "velocity": 0.4015748031496063
        },
        {
          "duration": 0.20000000000004547,
          "durationTicks": 240,
          "midi": 71,
          "name": "B4",
          "ticks": 361440,
          "time": 301.2,
          "velocity": 0.4015748031496063
        },
        {
          "duration": 0.19999999999998863,
          "durationTicks": 240,
          "midi": 71,
          "name": "B4",
          "ticks": 361920,
          "time": 301.6,
          "velocity": 0.4015748031496063
        },
        {
          "duration": 0.19999999999998863,
          "durationTicks": 240,
          "midi": 74,
          "name": "D5",
          "ticks": 362160,
          "time": 301.8,
          "velocity": 0.4015748031496063
        },
        {
          "duration": 0.19999999999998863,
          "durationTicks": 240,
          "midi": 72,
          "name": "C5",
          "ticks": 362400,
          "time": 302,
          "velocity": 0.4015748031496063
        },
        {
          "duration": 0.19666666666671517,
          "durationTicks": 236,
          "midi": 69,
          "name": "A4",
          "ticks": 362640,
          "time": 302.2,
          "velocity": 0.4015748031496063
        },
        {
          "duration": 1.1999999999999886,
          "durationTicks": 1440,
          "midi": 67,
          "name": "G4",
          "ticks": 362880,
          "time": 302.40000000000003,
          "velocity": 0.4015748031496063
        },
        {
          "duration": 0.19999999999998863,
          "durationTicks": 240,
          "midi": 71,
          "name": "B4",
          "ticks": 364320,
          "time": 303.6,
          "velocity": 0.4015748031496063
        },
        {
          "duration": 0.19999999999998863,
          "durationTicks": 240,
          "midi": 69,
          "name": "A4",
          "ticks": 364560,
          "time": 303.8,
          "velocity": 0.4015748031496063
        },
        {
          "duration": 0.33333333333337123,
          "durationTicks": 400,
          "midi": 67,
          "name": "G4",
          "ticks": 364800,
          "time": 304,
          "velocity": 0.4015748031496063
        },
        {
          "duration": 1.1999999999999886,
          "durationTicks": 1440,
          "midi": 81,
          "name": "A5",
          "ticks": 366720,
          "time": 305.6,
          "velocity": 0.4015748031496063
        },
        {
          "duration": 0.19999999999998863,
          "durationTicks": 240,
          "midi": 83,
          "name": "B5",
          "ticks": 368160,
          "time": 306.8,
          "velocity": 0.4015748031496063
        },
        {
          "duration": 0.19666666666665833,
          "durationTicks": 236,
          "midi": 84,
          "name": "C6",
          "ticks": 368400,
          "time": 307,
          "velocity": 0.4015748031496063
        },
        {
          "duration": 0.19999999999998863,
          "durationTicks": 240,
          "midi": 86,
          "name": "D6",
          "ticks": 368640,
          "time": 307.20000000000005,
          "velocity": 0.4015748031496063
        },
        {
          "duration": 0.19999999999998863,
          "durationTicks": 240,
          "midi": 86,
          "name": "D6",
          "ticks": 369120,
          "time": 307.6,
          "velocity": 0.4015748031496063
        },
        {
          "duration": 0.4000000000000341,
          "durationTicks": 480,
          "midi": 86,
          "name": "D6",
          "ticks": 369600,
          "time": 308,
          "velocity": 0.3937007874015748
        },
        {
          "duration": 0.0999999999999659,
          "durationTicks": 120,
          "midi": 84,
          "name": "C6",
          "ticks": 370080,
          "time": 308.40000000000003,
          "velocity": 0.4015748031496063
        },
        {
          "duration": 0.10000000000002274,
          "durationTicks": 120,
          "midi": 83,
          "name": "B5",
          "ticks": 370200,
          "time": 308.5,
          "velocity": 0.4015748031496063
        },
        {
          "duration": 0.10000000000002274,
          "durationTicks": 120,
          "midi": 81,
          "name": "A5",
          "ticks": 370320,
          "time": 308.6,
          "velocity": 0.4015748031496063
        },
        {
          "duration": 0.09666666666663559,
          "durationTicks": 116,
          "midi": 79,
          "name": "G5",
          "ticks": 370440,
          "time": 308.70000000000005,
          "velocity": 0.4015748031496063
        },
        {
          "duration": 0.19999999999998863,
          "durationTicks": 240,
          "midi": 81,
          "name": "A5",
          "ticks": 370560,
          "time": 308.8,
          "velocity": 0.4015748031496063
        },
        {
          "duration": 0.19999999999998863,
          "durationTicks": 240,
          "midi": 81,
          "name": "A5",
          "ticks": 371040,
          "time": 309.20000000000005,
          "velocity": 0.4015748031496063
        },
        {
          "duration": 0.39999999999997726,
          "durationTicks": 480,
          "midi": 81,
          "name": "A5",
          "ticks": 371520,
          "time": 309.6,
          "velocity": 0.4015748031496063
        },
        {
          "duration": 0.10000000000002274,
          "durationTicks": 120,
          "midi": 79,
          "name": "G5",
          "ticks": 372000,
          "time": 310,
          "velocity": 0.4015748031496063
        },
        {
          "duration": 0.10000000000002274,
          "durationTicks": 120,
          "midi": 78,
          "name": "F#5",
          "ticks": 372120,
          "time": 310.1,
          "velocity": 0.4015748031496063
        },
        {
          "duration": 0.0999999999999659,
          "durationTicks": 120,
          "midi": 76,
          "name": "E5",
          "ticks": 372240,
          "time": 310.20000000000005,
          "velocity": 0.4015748031496063
        },
        {
          "duration": 0.09666666666669244,
          "durationTicks": 116,
          "midi": 74,
          "name": "D5",
          "ticks": 372360,
          "time": 310.3,
          "velocity": 0.4015748031496063
        },
        {
          "duration": 0.3333333333333144,
          "durationTicks": 400,
          "midi": 79,
          "name": "G5",
          "ticks": 372480,
          "time": 310.40000000000003,
          "velocity": 0.4015748031496063
        },
        {
          "duration": 1.2000000000000455,
          "durationTicks": 1440,
          "midi": 81,
          "name": "A5",
          "ticks": 374400,
          "time": 312,
          "velocity": 0.4015748031496063
        },
        {
          "duration": 0.19999999999998863,
          "durationTicks": 240,
          "midi": 83,
          "name": "B5",
          "ticks": 375840,
          "time": 313.20000000000005,
          "velocity": 0.4015748031496063
        },
        {
          "duration": 0.19666666666665833,
          "durationTicks": 236,
          "midi": 84,
          "name": "C6",
          "ticks": 376080,
          "time": 313.40000000000003,
          "velocity": 0.4015748031496063
        },
        {
          "duration": 0.10000000000002274,
          "durationTicks": 120,
          "midi": 86,
          "name": "D6",
          "ticks": 376320,
          "time": 313.6,
          "velocity": 0.4015748031496063
        },
        {
          "duration": 0.10000000000002274,
          "durationTicks": 120,
          "midi": 86,
          "name": "D6",
          "ticks": 376800,
          "time": 314,
          "velocity": 0.4015748031496063
        },
        {
          "duration": 0.39999999999997726,
          "durationTicks": 480,
          "midi": 86,
          "name": "D6",
          "ticks": 377280,
          "time": 314.40000000000003,
          "velocity": 0.4015748031496063
        },
        {
          "duration": 0.10000000000002274,
          "durationTicks": 120,
          "midi": 84,
          "name": "C6",
          "ticks": 377760,
          "time": 314.8,
          "velocity": 0.4015748031496063
        },
        {
          "duration": 0.0999999999999659,
          "durationTicks": 120,
          "midi": 83,
          "name": "B5",
          "ticks": 377880,
          "time": 314.90000000000003,
          "velocity": 0.4015748031496063
        },
        {
          "duration": 0.10000000000002274,
          "durationTicks": 120,
          "midi": 81,
          "name": "A5",
          "ticks": 378000,
          "time": 315,
          "velocity": 0.4015748031496063
        },
        {
          "duration": 0.09666666666669244,
          "durationTicks": 116,
          "midi": 80,
          "name": "G#5",
          "ticks": 378120,
          "time": 315.1,
          "velocity": 0.4015748031496063
        },
        {
          "duration": 0.0999999999999659,
          "durationTicks": 120,
          "midi": 88,
          "name": "E6",
          "ticks": 378240,
          "time": 315.20000000000005,
          "velocity": 0.4015748031496063
        },
        {
          "duration": 0.10000000000002274,
          "durationTicks": 120,
          "midi": 88,
          "name": "E6",
          "ticks": 378720,
          "time": 315.6,
          "velocity": 0.4015748031496063
        },
        {
          "duration": 0.4000000000000341,
          "durationTicks": 480,
          "midi": 88,
          "name": "E6",
          "ticks": 379200,
          "time": 316,
          "velocity": 0.4015748031496063
        },
        {
          "duration": 0.0999999999999659,
          "durationTicks": 120,
          "midi": 86,
          "name": "D6",
          "ticks": 379680,
          "time": 316.40000000000003,
          "velocity": 0.4015748031496063
        },
        {
          "duration": 0.10000000000002274,
          "durationTicks": 120,
          "midi": 84,
          "name": "C6",
          "ticks": 379800,
          "time": 316.5,
          "velocity": 0.4015748031496063
        },
        {
          "duration": 0.10000000000002274,
          "durationTicks": 120,
          "midi": 83,
          "name": "B5",
          "ticks": 379920,
          "time": 316.6,
          "velocity": 0.4015748031496063
        },
        {
          "duration": 0.09666666666663559,
          "durationTicks": 116,
          "midi": 81,
          "name": "A5",
          "ticks": 380040,
          "time": 316.70000000000005,
          "velocity": 0.4015748031496063
        },
        {
          "duration": 0.10000000000002274,
          "durationTicks": 120,
          "midi": 89,
          "name": "F6",
          "ticks": 380160,
          "time": 316.8,
          "velocity": 0.4015748031496063
        },
        {
          "duration": 0.0999999999999659,
          "durationTicks": 120,
          "midi": 89,
          "name": "F6",
          "ticks": 380640,
          "time": 317.20000000000005,
          "velocity": 0.4015748031496063
        },
        {
          "duration": 0.10000000000002274,
          "durationTicks": 120,
          "midi": 89,
          "name": "F6",
          "ticks": 381120,
          "time": 317.6,
          "velocity": 0.4015748031496063
        },
        {
          "duration": 1.5,
          "durationTicks": 1800,
          "midi": 87,
          "name": "D#6",
          "ticks": 384000,
          "time": 320,
          "velocity": 0.8267716535433071
        },
        {
          "duration": 0.05000000000001137,
          "durationTicks": 60,
          "midi": 86,
          "name": "D6",
          "ticks": 385920,
          "time": 321.6,
          "velocity": 0.8267716535433071
        },
        {
          "duration": 0.6833333333333371,
          "durationTicks": 820,
          "midi": 87,
          "name": "D#6",
          "ticks": 385980,
          "time": 321.65000000000003,
          "velocity": 0.8267716535433071
        },
        {
          "duration": 0.05000000000001137,
          "durationTicks": 60,
          "midi": 86,
          "name": "D6",
          "ticks": 386880,
          "time": 322.40000000000003,
          "velocity": 0.8267716535433071
        },
        {
          "duration": 0.6833333333333371,
          "durationTicks": 820,
          "midi": 87,
          "name": "D#6",
          "ticks": 386940,
          "time": 322.45000000000005,
          "velocity": 0.8267716535433071
        },
        {
          "duration": 1.5,
          "durationTicks": 1800,
          "midi": 88,
          "name": "E6",
          "ticks": 387840,
          "time": 323.20000000000005,
          "velocity": 0.8267716535433071
        },
        {
          "duration": 0.6999999999999886,
          "durationTicks": 840,
          "midi": 89,
          "name": "F6",
          "ticks": 389760,
          "time": 324.8,
          "velocity": 0.8267716535433071
        },
        {
          "duration": 0.6999999999999886,
          "durationTicks": 840,
          "midi": 56,
          "name": "G#3",
          "ticks": 390720,
          "time": 325.6,
          "velocity": 0.8267716535433071
        },
        {
          "duration": 0.6999999999999886,
          "durationTicks": 840,
          "midi": 65,
          "name": "F4",
          "ticks": 390720,
          "time": 325.6,
          "velocity": 0.8267716535433071
        },
        {
          "duration": 0.3333333333333144,
          "durationTicks": 400,
          "midi": 55,
          "name": "G3",
          "ticks": 391680,
          "time": 326.40000000000003,
          "velocity": 0.8267716535433071
        },
        {
          "duration": 0.3333333333333144,
          "durationTicks": 400,
          "midi": 64,
          "name": "E4",
          "ticks": 391680,
          "time": 326.40000000000003,
          "velocity": 0.8267716535433071
        },
        {
          "duration": 0.33333333333337123,
          "durationTicks": 400,
          "midi": 64,
          "name": "E4",
          "ticks": 392160,
          "time": 326.8,
          "velocity": 0.8267716535433071
        },
        {
          "duration": 0.3333333333333144,
          "durationTicks": 400,
          "midi": 67,
          "name": "G4",
          "ticks": 392640,
          "time": 327.20000000000005,
          "velocity": 0.8267716535433071
        },
        {
          "duration": 0.33333333333337123,
          "durationTicks": 400,
          "midi": 72,
          "name": "C5",
          "ticks": 393120,
          "time": 327.6,
          "velocity": 0.8267716535433071
        },
        {
          "duration": 0.33333333333337123,
          "durationTicks": 400,
          "midi": 76,
          "name": "E5",
          "ticks": 393600,
          "time": 328,
          "velocity": 0.8267716535433071
        },
        {
          "duration": 0.3333333333333144,
          "durationTicks": 400,
          "midi": 79,
          "name": "G5",
          "ticks": 394080,
          "time": 328.40000000000003,
          "velocity": 0.8267716535433071
        },
        {
          "duration": 0.2666666666666515,
          "durationTicks": 320,
          "midi": 84,
          "name": "C6",
          "ticks": 394560,
          "time": 328.8,
          "velocity": 0.8267716535433071
        },
        {
          "duration": 0.19999999999998863,
          "durationTicks": 240,
          "midi": 88,
          "name": "E6",
          "ticks": 395040,
          "time": 329.20000000000005,
          "velocity": 0.8267716535433071
        },
        {
          "duration": 0.19666666666665833,
          "durationTicks": 236,
          "midi": 62,
          "name": "D4",
          "ticks": 395520,
          "time": 329.6,
          "velocity": 0.8267716535433071
        },
        {
          "duration": 0.19666666666665833,
          "durationTicks": 236,
          "midi": 74,
          "name": "D5",
          "ticks": 395520,
          "time": 329.6,
          "velocity": 0.8267716535433071
        },
        {
          "duration": 0.19666666666665833,
          "durationTicks": 236,
          "midi": 86,
          "name": "D6",
          "ticks": 395520,
          "time": 329.6,
          "velocity": 0.8267716535433071
        },
        {
          "duration": 0.7000000000000455,
          "durationTicks": 840,
          "midi": 86,
          "name": "D6",
          "ticks": 396000,
          "time": 330,
          "velocity": 0.8267716535433071
        },
        {
          "duration": 0.04666666666668107,
          "durationTicks": 56,
          "midi": 84,
          "name": "C6",
          "ticks": 396960,
          "time": 330.8,
          "velocity": 0.8267716535433071
        },
        {
          "duration": 0.14666666666664696,
          "durationTicks": 176,
          "midi": 83,
          "name": "B5",
          "ticks": 397020,
          "time": 330.85,
          "velocity": 0.8267716535433071
        },
        {
          "duration": 0.09666666666669244,
          "durationTicks": 116,
          "midi": 81,
          "name": "A5",
          "ticks": 397200,
          "time": 331,
          "velocity": 0.8267716535433071
        },
        {
          "duration": 0.09666666666669244,
          "durationTicks": 116,
          "midi": 79,
          "name": "G5",
          "ticks": 397320,
          "time": 331.1,
          "velocity": 0.8267716535433071
        },
        {
          "duration": 0.3333333333333144,
          "durationTicks": 400,
          "midi": 86,
          "name": "D6",
          "ticks": 397440,
          "time": 331.20000000000005,
          "velocity": 0.8267716535433071
        },
        {
          "duration": 0.04666666666668107,
          "durationTicks": 56,
          "midi": 84,
          "name": "C6",
          "ticks": 397920,
          "time": 331.6,
          "velocity": 0.8267716535433071
        },
        {
          "duration": 0.14666666666664696,
          "durationTicks": 176,
          "midi": 83,
          "name": "B5",
          "ticks": 397980,
          "time": 331.65000000000003,
          "velocity": 0.8267716535433071
        },
        {
          "duration": 0.09666666666669244,
          "durationTicks": 116,
          "midi": 81,
          "name": "A5",
          "ticks": 398160,
          "time": 331.8,
          "velocity": 0.8267716535433071
        },
        {
          "duration": 0.09666666666663559,
          "durationTicks": 116,
          "midi": 79,
          "name": "G5",
          "ticks": 398280,
          "time": 331.90000000000003,
          "velocity": 0.8267716535433071
        },
        {
          "duration": 0.2666666666666515,
          "durationTicks": 320,
          "midi": 83,
          "name": "B5",
          "ticks": 398400,
          "time": 332,
          "velocity": 0.8267716535433071
        },
        {
          "duration": 0.2666666666666515,
          "durationTicks": 320,
          "midi": 81,
          "name": "A5",
          "ticks": 398880,
          "time": 332.40000000000003,
          "velocity": 0.8267716535433071
        },
        {
          "duration": 0.6000000000000227,
          "durationTicks": 720,
          "midi": 79,
          "name": "G5",
          "ticks": 399360,
          "time": 332.8,
          "velocity": 0.8267716535433071
        },
        {
          "duration": 0.19666666666665833,
          "durationTicks": 236,
          "midi": 78,
          "name": "F#5",
          "ticks": 400080,
          "time": 333.40000000000003,
          "velocity": 0.8267716535433071
        },
        {
          "duration": 0.30000000000001137,
          "durationTicks": 360,
          "midi": 81,
          "name": "A5",
          "ticks": 400320,
          "time": 333.6,
          "velocity": 0.8267716535433071
        },
        {
          "duration": 0.0999999999999659,
          "durationTicks": 120,
          "midi": 79,
          "name": "G5",
          "ticks": 400680,
          "time": 333.90000000000003,
          "velocity": 0.8267716535433071
        },
        {
          "duration": 0.30000000000001137,
          "durationTicks": 360,
          "midi": 84,
          "name": "C6",
          "ticks": 400800,
          "time": 334,
          "velocity": 0.8267716535433071
        },
        {
          "duration": 0.09666666666669244,
          "durationTicks": 116,
          "midi": 83,
          "name": "B5",
          "ticks": 401160,
          "time": 334.3,
          "velocity": 0.8267716535433071
        },
        {
          "duration": 0.5999999999999659,
          "durationTicks": 720,
          "midi": 81,
          "name": "A5",
          "ticks": 401280,
          "time": 334.40000000000003,
          "velocity": 0.8267716535433071
        },
        {
          "duration": 0.19666666666671517,
          "durationTicks": 236,
          "midi": 80,
          "name": "G#5",
          "ticks": 402000,
          "time": 335,
          "velocity": 0.8267716535433071
        },
        {
          "duration": 0.2999999999999545,
          "durationTicks": 360,
          "midi": 83,
          "name": "B5",
          "ticks": 402240,
          "time": 335.20000000000005,
          "velocity": 0.8267716535433071
        },
        {
          "duration": 0.10000000000002274,
          "durationTicks": 120,
          "midi": 81,
          "name": "A5",
          "ticks": 402600,
          "time": 335.5,
          "velocity": 0.8267716535433071
        },
        {
          "duration": 0.30000000000001137,
          "durationTicks": 360,
          "midi": 86,
          "name": "D6",
          "ticks": 402720,
          "time": 335.6,
          "velocity": 0.8267716535433071
        },
        {
          "duration": 0.09666666666663559,
          "durationTicks": 116,
          "midi": 84,
          "name": "C6",
          "ticks": 403080,
          "time": 335.90000000000003,
          "velocity": 0.8267716535433071
        },
        {
          "duration": 0.6000000000000227,
          "durationTicks": 720,
          "midi": 83,
          "name": "B5",
          "ticks": 403200,
          "time": 336,
          "velocity": 0.8267716535433071
        },
        {
          "duration": 0.19666666666665833,
          "durationTicks": 236,
          "midi": 82,
          "name": "A#5",
          "ticks": 403920,
          "time": 336.6,
          "velocity": 0.8267716535433071
        },
        {
          "duration": 0.30000000000001137,
          "durationTicks": 360,
          "midi": 84,
          "name": "C6",
          "ticks": 404160,
          "time": 336.8,
          "velocity": 0.8267716535433071
        },
        {
          "duration": 0.10000000000002274,
          "durationTicks": 120,
          "midi": 83,
          "name": "B5",
          "ticks": 404520,
          "time": 337.1,
          "velocity": 0.8267716535433071
        },
        {
          "duration": 0.2999999999999545,
          "durationTicks": 360,
          "midi": 88,
          "name": "E6",
          "ticks": 404640,
          "time": 337.20000000000005,
          "velocity": 0.8267716535433071
        },
        {
          "duration": 0.09666666666669244,
          "durationTicks": 116,
          "midi": 86,
          "name": "D6",
          "ticks": 405000,
          "time": 337.5,
          "velocity": 0.8267716535433071
        },
        {
          "duration": 0.09666666666669244,
          "durationTicks": 116,
          "midi": 84,
          "name": "C6",
          "ticks": 405120,
          "time": 337.6,
          "velocity": 0.6771653543307087
        },
        {
          "duration": 0.0999999999999659,
          "durationTicks": 120,
          "midi": 86,
          "name": "D6",
          "ticks": 405240,
          "time": 337.70000000000005,
          "velocity": 0.6771653543307087
        },
        {
          "duration": 0.10000000000002274,
          "durationTicks": 120,
          "midi": 88,
          "name": "E6",
          "ticks": 405360,
          "time": 337.8,
          "velocity": 0.6771653543307087
        },
        {
          "duration": 0.09666666666663559,
          "durationTicks": 116,
          "midi": 86,
          "name": "D6",
          "ticks": 405480,
          "time": 337.90000000000003,
          "velocity": 0.6771653543307087
        },
        {
          "duration": 0.19666666666671517,
          "durationTicks": 236,
          "midi": 84,
          "name": "C6",
          "ticks": 405600,
          "time": 338,
          "velocity": 0.6771653543307087
        },
        {
          "duration": 0.06666666666660603,
          "durationTicks": 80,
          "midi": 84,
          "name": "C6",
          "ticks": 405840,
          "time": 338.20000000000005,
          "velocity": 0.6771653543307087
        },
        {
          "duration": 0.09666666666663559,
          "durationTicks": 116,
          "midi": 83,
          "name": "B5",
          "ticks": 406080,
          "time": 338.40000000000003,
          "velocity": 0.6771653543307087
        },
        {
          "duration": 0.10000000000002274,
          "durationTicks": 120,
          "midi": 84,
          "name": "C6",
          "ticks": 406200,
          "time": 338.5,
          "velocity": 0.6771653543307087
        },
        {
          "duration": 0.10000000000002274,
          "durationTicks": 120,
          "midi": 86,
          "name": "D6",
          "ticks": 406320,
          "time": 338.6,
          "velocity": 0.6771653543307087
        },
        {
          "duration": 0.09666666666663559,
          "durationTicks": 116,
          "midi": 84,
          "name": "C6",
          "ticks": 406440,
          "time": 338.70000000000005,
          "velocity": 0.6771653543307087
        },
        {
          "duration": 0.19666666666665833,
          "durationTicks": 236,
          "midi": 83,
          "name": "B5",
          "ticks": 406560,
          "time": 338.8,
          "velocity": 0.6771653543307087
        },
        {
          "duration": 0.06666666666666288,
          "durationTicks": 80,
          "midi": 83,
          "name": "B5",
          "ticks": 406800,
          "time": 339,
          "velocity": 0.6771653543307087
        },
        {
          "duration": 0.5999999999999659,
          "durationTicks": 720,
          "midi": 81,
          "name": "A5",
          "ticks": 407040,
          "time": 339.20000000000005,
          "velocity": 0.6771653543307087
        },
        {
          "duration": 0.10000000000002274,
          "durationTicks": 120,
          "midi": 83,
          "name": "B5",
          "ticks": 407760,
          "time": 339.8,
          "velocity": 0.6771653543307087
        },
        {
          "duration": 0.09666666666663559,
          "durationTicks": 116,
          "midi": 84,
          "name": "C6",
          "ticks": 407880,
          "time": 339.90000000000003,
          "velocity": 0.6771653543307087
        },
        {
          "duration": 0.6000000000000227,
          "durationTicks": 720,
          "midi": 74,
          "name": "D5",
          "ticks": 408000,
          "time": 340,
          "velocity": 0.6771653543307087
        },
        {
          "duration": 0.10000000000002274,
          "durationTicks": 120,
          "midi": 76,
          "name": "E5",
          "ticks": 408720,
          "time": 340.6,
          "velocity": 0.6771653543307087
        },
        {
          "duration": 0.09666666666663559,
          "durationTicks": 116,
          "midi": 78,
          "name": "F#5",
          "ticks": 408840,
          "time": 340.70000000000005,
          "velocity": 0.6771653543307087
        },
        {
          "duration": 0.19666666666665833,
          "durationTicks": 236,
          "midi": 79,
          "name": "G5",
          "ticks": 408960,
          "time": 340.8,
          "velocity": 0.6771653543307087
        },
        {
          "duration": 0.33333333333337123,
          "durationTicks": 400,
          "midi": 79,
          "name": "G5",
          "ticks": 409200,
          "time": 341,
          "velocity": 0.6771653543307087
        },
        {
          "duration": 0.3333333333333144,
          "durationTicks": 400,
          "midi": 79,
          "name": "G5",
          "ticks": 409680,
          "time": 341.40000000000003,
          "velocity": 0.6771653543307087
        },
        {
          "duration": 0.33333333333337123,
          "durationTicks": 400,
          "midi": 79,
          "name": "G5",
          "ticks": 410160,
          "time": 341.8,
          "velocity": 0.6771653543307087
        },
        {
          "duration": 0.19999999999998863,
          "durationTicks": 240,
          "midi": 79,
          "name": "G5",
          "ticks": 410640,
          "time": 342.20000000000005,
          "velocity": 0.6771653543307087
        },
        {
          "duration": 0.19666666666665833,
          "durationTicks": 236,
          "midi": 79,
          "name": "G5",
          "ticks": 410880,
          "time": 342.40000000000003,
          "velocity": 0.6771653543307087
        },
        {
          "duration": 0.33333333333337123,
          "durationTicks": 400,
          "midi": 79,
          "name": "G5",
          "ticks": 411120,
          "time": 342.6,
          "velocity": 0.6771653543307087
        },
        {
          "duration": 0.33333333333337123,
          "durationTicks": 400,
          "midi": 79,
          "name": "G5",
          "ticks": 411600,
          "time": 343,
          "velocity": 0.6771653543307087
        },
        {
          "duration": 0.3333333333333144,
          "durationTicks": 400,
          "midi": 79,
          "name": "G5",
          "ticks": 412080,
          "time": 343.40000000000003,
          "velocity": 0.6771653543307087
        },
        {
          "duration": 0.19999999999998863,
          "durationTicks": 240,
          "midi": 79,
          "name": "G5",
          "ticks": 412560,
          "time": 343.8,
          "velocity": 0.6771653543307087
        },
        {
          "duration": 0.19666666666671517,
          "durationTicks": 236,
          "midi": 79,
          "name": "G5",
          "ticks": 412800,
          "time": 344,
          "velocity": 0.6771653543307087
        },
        {
          "duration": 0.3333333333333144,
          "durationTicks": 400,
          "midi": 79,
          "name": "G5",
          "ticks": 413040,
          "time": 344.20000000000005,
          "velocity": 0.6771653543307087
        },
        {
          "duration": 0.33333333333337123,
          "durationTicks": 400,
          "midi": 79,
          "name": "G5",
          "ticks": 413520,
          "time": 344.6,
          "velocity": 0.6771653543307087
        },
        {
          "duration": 0.33333333333337123,
          "durationTicks": 400,
          "midi": 79,
          "name": "G5",
          "ticks": 414000,
          "time": 345,
          "velocity": 0.6771653543307087
        },
        {
          "duration": 0.19666666666665833,
          "durationTicks": 236,
          "midi": 79,
          "name": "G5",
          "ticks": 414480,
          "time": 345.40000000000003,
          "velocity": 0.6771653543307087
        },
        {
          "duration": 0.33333333333337123,
          "durationTicks": 400,
          "midi": 79,
          "name": "G5",
          "ticks": 414720,
          "time": 345.6,
          "velocity": 0.6771653543307087
        },
        {
          "duration": 0.33333333333337123,
          "durationTicks": 400,
          "midi": 80,
          "name": "G#5",
          "ticks": 415200,
          "time": 346,
          "velocity": 0.6771653543307087
        },
        {
          "duration": 0.3333333333333144,
          "durationTicks": 400,
          "midi": 81,
          "name": "A5",
          "ticks": 415680,
          "time": 346.40000000000003,
          "velocity": 0.6771653543307087
        },
        {
          "duration": 0.33333333333337123,
          "durationTicks": 400,
          "midi": 83,
          "name": "B5",
          "ticks": 416160,
          "time": 346.8,
          "velocity": 0.6771653543307087
        },
        {
          "duration": 0.19666666666665833,
          "durationTicks": 236,
          "midi": 84,
          "name": "C6",
          "ticks": 416640,
          "time": 347.20000000000005,
          "velocity": 0.6771653543307087
        },
        {
          "duration": 0.3333333333333144,
          "durationTicks": 400,
          "midi": 84,
          "name": "C6",
          "ticks": 416880,
          "time": 347.40000000000003,
          "velocity": 0.6771653543307087
        },
        {
          "duration": 0.33333333333337123,
          "durationTicks": 400,
          "midi": 84,
          "name": "C6",
          "ticks": 417360,
          "time": 347.8,
          "velocity": 0.6771653543307087
        },
        {
          "duration": 0.3333333333333144,
          "durationTicks": 400,
          "midi": 84,
          "name": "C6",
          "ticks": 417840,
          "time": 348.20000000000005,
          "velocity": 0.6771653543307087
        },
        {
          "duration": 0.39999999999997726,
          "durationTicks": 480,
          "midi": 84,
          "name": "C6",
          "ticks": 418320,
          "time": 348.6,
          "velocity": 0.6771653543307087
        },
        {
          "duration": 0.20000000000004547,
          "durationTicks": 240,
          "midi": 81,
          "name": "A5",
          "ticks": 418800,
          "time": 349,
          "velocity": 0.4015748031496063
        },
        {
          "duration": 0.19999999999998863,
          "durationTicks": 240,
          "midi": 78,
          "name": "F#5",
          "ticks": 419040,
          "time": 349.20000000000005,
          "velocity": 0.4015748031496063
        },
        {
          "duration": 0.19999999999998863,
          "durationTicks": 240,
          "midi": 74,
          "name": "D5",
          "ticks": 419280,
          "time": 349.40000000000003,
          "velocity": 0.4015748031496063
        },
        {
          "duration": 0.19999999999998863,
          "durationTicks": 240,
          "midi": 72,
          "name": "C5",
          "ticks": 419520,
          "time": 349.6,
          "velocity": 0.4015748031496063
        },
        {
          "duration": 0.19999999999998863,
          "durationTicks": 240,
          "midi": 69,
          "name": "A4",
          "ticks": 419760,
          "time": 349.8,
          "velocity": 0.4015748031496063
        },
        {
          "duration": 0.20000000000004547,
          "durationTicks": 240,
          "midi": 66,
          "name": "F#4",
          "ticks": 420000,
          "time": 350,
          "velocity": 0.4015748031496063
        },
        {
          "duration": 0.19666666666665833,
          "durationTicks": 236,
          "midi": 62,
          "name": "D4",
          "ticks": 420240,
          "time": 350.20000000000005,
          "velocity": 0.4015748031496063
        },
        {
          "duration": 0.3333333333333144,
          "durationTicks": 400,
          "midi": 60,
          "name": "C4",
          "ticks": 420480,
          "time": 350.40000000000003,
          "velocity": 0.4015748031496063
        },
        {
          "duration": 0.19999999999998863,
          "durationTicks": 240,
          "midi": 74,
          "name": "D5",
          "ticks": 423120,
          "time": 352.6,
          "velocity": 0.4015748031496063
        },
        {
          "duration": 0.4000000000000341,
          "durationTicks": 480,
          "midi": 83,
          "name": "B5",
          "ticks": 423360,
          "time": 352.8,
          "velocity": 0.4015748031496063
        },
        {
          "duration": 0.14999999999997726,
          "durationTicks": 180,
          "midi": 83,
          "name": "B5",
          "ticks": 423840,
          "time": 353.20000000000005,
          "velocity": 0.4015748031496063
        },
        {
          "duration": 0.14999999999997726,
          "durationTicks": 180,
          "midi": 83,
          "name": "B5",
          "ticks": 424080,
          "time": 353.40000000000003,
          "velocity": 0.4015748031496063
        },
        {
          "duration": 0.19999999999998863,
          "durationTicks": 240,
          "midi": 83,
          "name": "B5",
          "ticks": 424320,
          "time": 353.6,
          "velocity": 0.4015748031496063
        },
        {
          "duration": 0.19666666666665833,
          "durationTicks": 236,
          "midi": 81,
          "name": "A5",
          "ticks": 424560,
          "time": 353.8,
          "velocity": 0.4015748031496063
        },
        {
          "duration": 0.06666666666666288,
          "durationTicks": 80,
          "midi": 81,
          "name": "A5",
          "ticks": 424800,
          "time": 354,
          "velocity": 0.4015748031496063
        },
        {
          "duration": 0.06666666666660603,
          "durationTicks": 80,
          "midi": 81,
          "name": "A5",
          "ticks": 425040,
          "time": 354.20000000000005,
          "velocity": 0.4015748031496063
        },
        {
          "duration": 0.05000000000001137,
          "durationTicks": 60,
          "midi": 83,
          "name": "B5",
          "ticks": 425280,
          "time": 354.40000000000003,
          "velocity": 0.4015748031496063
        },
        {
          "duration": 0.0999999999999659,
          "durationTicks": 120,
          "midi": 81,
          "name": "A5",
          "ticks": 425340,
          "time": 354.45000000000005,
          "velocity": 0.4015748031496063
        },
        {
          "duration": 0.13333333333332575,
          "durationTicks": 160,
          "midi": 79,
          "name": "G5",
          "ticks": 425520,
          "time": 354.6,
          "velocity": 0.4015748031496063
        },
        {
          "duration": 0.1333333333333826,
          "durationTicks": 160,
          "midi": 81,
          "name": "A5",
          "ticks": 425760,
          "time": 354.8,
          "velocity": 0.4015748031496063
        },
        {
          "duration": 0.1333333333333826,
          "durationTicks": 160,
          "midi": 83,
          "name": "B5",
          "ticks": 426000,
          "time": 355,
          "velocity": 0.4015748031496063
        },
        {
          "duration": 0.39999999999997726,
          "durationTicks": 480,
          "midi": 79,
          "name": "G5",
          "ticks": 426240,
          "time": 355.20000000000005,
          "velocity": 0.4015748031496063
        },
        {
          "duration": 0.19666666666665833,
          "durationTicks": 236,
          "midi": 74,
          "name": "D5",
          "ticks": 426720,
          "time": 355.6,
          "velocity": 0.4015748031496063
        },
        {
          "duration": 0.06666666666666288,
          "durationTicks": 80,
          "midi": 74,
          "name": "D5",
          "ticks": 426960,
          "time": 355.8,
          "velocity": 0.4015748031496063
        },
        {
          "duration": 0.20000000000004547,
          "durationTicks": 240,
          "midi": 74,
          "name": "D5",
          "ticks": 427200,
          "time": 356,
          "velocity": 0.4015748031496063
        },
        {
          "duration": 0.19666666666665833,
          "durationTicks": 236,
          "midi": 83,
          "name": "B5",
          "ticks": 427440,
          "time": 356.20000000000005,
          "velocity": 0.4015748031496063
        },
        {
          "duration": 0.06666666666666288,
          "durationTicks": 80,
          "midi": 83,
          "name": "B5",
          "ticks": 427680,
          "time": 356.40000000000003,
          "velocity": 0.4015748031496063
        },
        {
          "duration": 0.06666666666666288,
          "durationTicks": 80,
          "midi": 83,
          "name": "B5",
          "ticks": 427920,
          "time": 356.6,
          "velocity": 0.4015748031496063
        },
        {
          "duration": 0.19999999999998863,
          "durationTicks": 240,
          "midi": 83,
          "name": "B5",
          "ticks": 428160,
          "time": 356.8,
          "velocity": 0.4015748031496063
        },
        {
          "duration": 0.19666666666671517,
          "durationTicks": 236,
          "midi": 81,
          "name": "A5",
          "ticks": 428400,
          "time": 357,
          "velocity": 0.4015748031496063
        },
        {
          "duration": 0.06666666666660603,
          "durationTicks": 80,
          "midi": 81,
          "name": "A5",
          "ticks": 428640,
          "time": 357.20000000000005,
          "velocity": 0.4015748031496063
        },
        {
          "duration": 0.06666666666666288,
          "durationTicks": 80,
          "midi": 81,
          "name": "A5",
          "ticks": 428880,
          "time": 357.40000000000003,
          "velocity": 0.4015748031496063
        },
        {
          "duration": 0.05000000000001137,
          "durationTicks": 60,
          "midi": 83,
          "name": "B5",
          "ticks": 429120,
          "time": 357.6,
          "velocity": 0.4015748031496063
        },
        {
          "duration": 0.0999999999999659,
          "durationTicks": 120,
          "midi": 81,
          "name": "A5",
          "ticks": 429180,
          "time": 357.65000000000003,
          "velocity": 0.4015748031496063
        },
        {
          "duration": 0.1333333333333826,
          "durationTicks": 160,
          "midi": 79,
          "name": "G5",
          "ticks": 429360,
          "time": 357.8,
          "velocity": 0.4015748031496063
        },
        {
          "duration": 0.1333333333333826,
          "durationTicks": 160,
          "midi": 81,
          "name": "A5",
          "ticks": 429600,
          "time": 358,
          "velocity": 0.4015748031496063
        },
        {
          "duration": 0.13333333333332575,
          "durationTicks": 160,
          "midi": 83,
          "name": "B5",
          "ticks": 429840,
          "time": 358.20000000000005,
          "velocity": 0.4015748031496063
        },
        {
          "duration": 0.39999999999997726,
          "durationTicks": 480,
          "midi": 79,
          "name": "G5",
          "ticks": 430080,
          "time": 358.40000000000003,
          "velocity": 0.4015748031496063
        },
        {
          "duration": 0.19666666666665833,
          "durationTicks": 236,
          "midi": 86,
          "name": "D6",
          "ticks": 430560,
          "time": 358.8,
          "velocity": 0.4015748031496063
        },
        {
          "duration": 0.06666666666666288,
          "durationTicks": 80,
          "midi": 74,
          "name": "D5",
          "ticks": 430800,
          "time": 359,
          "velocity": 0.4015748031496063
        },
        {
          "duration": 0.19999999999998863,
          "durationTicks": 240,
          "midi": 74,
          "name": "D5",
          "ticks": 431040,
          "time": 359.20000000000005,
          "velocity": 0.4015748031496063
        },
        {
          "duration": 0.19666666666665833,
          "durationTicks": 236,
          "midi": 83,
          "name": "B5",
          "ticks": 431280,
          "time": 359.40000000000003,
          "velocity": 0.4015748031496063
        },
        {
          "duration": 0.06666666666666288,
          "durationTicks": 80,
          "midi": 83,
          "name": "B5",
          "ticks": 431520,
          "time": 359.6,
          "velocity": 0.4015748031496063
        },
        {
          "duration": 0.06666666666666288,
          "durationTicks": 80,
          "midi": 83,
          "name": "B5",
          "ticks": 431760,
          "time": 359.8,
          "velocity": 0.4015748031496063
        },
        {
          "duration": 0.20000000000004547,
          "durationTicks": 240,
          "midi": 83,
          "name": "B5",
          "ticks": 432000,
          "time": 360,
          "velocity": 0.4015748031496063
        },
        {
          "duration": 0.19666666666665833,
          "durationTicks": 236,
          "midi": 81,
          "name": "A5",
          "ticks": 432240,
          "time": 360.20000000000005,
          "velocity": 0.4015748031496063
        },
        {
          "duration": 0.06666666666666288,
          "durationTicks": 80,
          "midi": 81,
          "name": "A5",
          "ticks": 432480,
          "time": 360.40000000000003,
          "velocity": 0.4015748031496063
        },
        {
          "duration": 0.06666666666666288,
          "durationTicks": 80,
          "midi": 81,
          "name": "A5",
          "ticks": 432720,
          "time": 360.6,
          "velocity": 0.4015748031496063
        },
        {
          "duration": 0.05000000000001137,
          "durationTicks": 60,
          "midi": 83,
          "name": "B5",
          "ticks": 432960,
          "time": 360.8,
          "velocity": 0.4015748031496063
        },
        {
          "duration": 0.10000000000002274,
          "durationTicks": 120,
          "midi": 81,
          "name": "A5",
          "ticks": 433020,
          "time": 360.85,
          "velocity": 0.4015748031496063
        },
        {
          "duration": 0.06666666666666288,
          "durationTicks": 80,
          "midi": 79,
          "name": "G5",
          "ticks": 433200,
          "time": 361,
          "velocity": 0.4015748031496063
        },
        {
          "duration": 0.06666666666660603,
          "durationTicks": 80,
          "midi": 81,
          "name": "A5",
          "ticks": 433440,
          "time": 361.20000000000005,
          "velocity": 0.4015748031496063
        },
        {
          "duration": 0.06666666666666288,
          "durationTicks": 80,
          "midi": 83,
          "name": "B5",
          "ticks": 433680,
          "time": 361.40000000000003,
          "velocity": 0.4015748031496063
        },
        {
          "duration": 0.6000000000000227,
          "durationTicks": 720,
          "midi": 79,
          "name": "G5",
          "ticks": 433920,
          "time": 361.6,
          "velocity": 0.4015748031496063
        },
        {
          "duration": 0.19666666666665833,
          "durationTicks": 236,
          "midi": 83,
          "name": "B5",
          "ticks": 434640,
          "time": 362.20000000000005,
          "velocity": 0.4015748031496063
        },
        {
          "duration": 0.5999999999999659,
          "durationTicks": 720,
          "midi": 76,
          "name": "E5",
          "ticks": 434880,
          "time": 362.40000000000003,
          "velocity": 0.4015748031496063
        },
        {
          "duration": 0.19666666666671517,
          "durationTicks": 236,
          "midi": 84,
          "name": "C6",
          "ticks": 435600,
          "time": 363,
          "velocity": 0.4015748031496063
        },
        {
          "duration": 0.19999999999998863,
          "durationTicks": 240,
          "midi": 81,
          "name": "A5",
          "ticks": 435840,
          "time": 363.20000000000005,
          "velocity": 0.4015748031496063
        },
        {
          "duration": 0.19666666666665833,
          "durationTicks": 236,
          "midi": 88,
          "name": "E6",
          "ticks": 436080,
          "time": 363.40000000000003,
          "velocity": 0.4015748031496063
        },
        {
          "duration": 0.06666666666666288,
          "durationTicks": 80,
          "midi": 84,
          "name": "C6",
          "ticks": 436320,
          "time": 363.6,
          "velocity": 0.4015748031496063
        },
        {
          "duration": 0.06666666666666288,
          "durationTicks": 80,
          "midi": 81,
          "name": "A5",
          "ticks": 436560,
          "time": 363.8,
          "velocity": 0.4015748031496063
        },
        {
          "duration": 0.06666666666666288,
          "durationTicks": 80,
          "midi": 78,
          "name": "F#5",
          "ticks": 436800,
          "time": 364,
          "velocity": 0.4015748031496063
        },
        {
          "duration": 0.06666666666660603,
          "durationTicks": 80,
          "midi": 79,
          "name": "G5",
          "ticks": 437040,
          "time": 364.20000000000005,
          "velocity": 0.4015748031496063
        },
        {
          "duration": 0.06666666666666288,
          "durationTicks": 80,
          "midi": 81,
          "name": "A5",
          "ticks": 437280,
          "time": 364.40000000000003,
          "velocity": 0.4015748031496063
        },
        {
          "duration": 0.06666666666666288,
          "durationTicks": 80,
          "midi": 83,
          "name": "B5",
          "ticks": 437520,
          "time": 364.6,
          "velocity": 0.4015748031496063
        },
        {
          "duration": 0.6000000000000227,
          "durationTicks": 720,
          "midi": 79,
          "name": "G5",
          "ticks": 437760,
          "time": 364.8,
          "velocity": 0.4015748031496063
        },
        {
          "duration": 0.19666666666665833,
          "durationTicks": 236,
          "midi": 83,
          "name": "B5",
          "ticks": 438480,
          "time": 365.40000000000003,
          "velocity": 0.4015748031496063
        },
        {
          "duration": 0.6000000000000227,
          "durationTicks": 720,
          "midi": 76,
          "name": "E5",
          "ticks": 438720,
          "time": 365.6,
          "velocity": 0.4015748031496063
        },
        {
          "duration": 0.19666666666665833,
          "durationTicks": 236,
          "midi": 84,
          "name": "C6",
          "ticks": 439440,
          "time": 366.20000000000005,
          "velocity": 0.4015748031496063
        },
        {
          "duration": 0.19999999999998863,
          "durationTicks": 240,
          "midi": 81,
          "name": "A5",
          "ticks": 439680,
          "time": 366.40000000000003,
          "velocity": 0.4015748031496063
        },
        {
          "duration": 0.19666666666665833,
          "durationTicks": 236,
          "midi": 88,
          "name": "E6",
          "ticks": 439920,
          "time": 366.6,
          "velocity": 0.4015748031496063
        },
        {
          "duration": 0.06666666666666288,
          "durationTicks": 80,
          "midi": 84,
          "name": "C6",
          "ticks": 440160,
          "time": 366.8,
          "velocity": 0.4015748031496063
        },
        {
          "duration": 0.06666666666666288,
          "durationTicks": 80,
          "midi": 81,
          "name": "A5",
          "ticks": 440400,
          "time": 367,
          "velocity": 0.4015748031496063
        },
        {
          "duration": 0.06666666666660603,
          "durationTicks": 80,
          "midi": 78,
          "name": "F#5",
          "ticks": 440640,
          "time": 367.20000000000005,
          "velocity": 0.4015748031496063
        },
        {
          "duration": 0.06666666666666288,
          "durationTicks": 80,
          "midi": 79,
          "name": "G5",
          "ticks": 440880,
          "time": 367.40000000000003,
          "velocity": 0.4015748031496063
        },
        {
          "duration": 0.06666666666666288,
          "durationTicks": 80,
          "midi": 81,
          "name": "A5",
          "ticks": 441120,
          "time": 367.6,
          "velocity": 0.4015748031496063
        },
        {
          "duration": 0.06666666666666288,
          "durationTicks": 80,
          "midi": 83,
          "name": "B5",
          "ticks": 441360,
          "time": 367.8,
          "velocity": 0.4015748031496063
        },
        {
          "duration": 0.19666666666671517,
          "durationTicks": 236,
          "midi": 79,
          "name": "G5",
          "ticks": 441600,
          "time": 368,
          "velocity": 0.4015748031496063
        },
        {
          "duration": 0.09666666666663559,
          "durationTicks": 116,
          "midi": 86,
          "name": "D6",
          "ticks": 442080,
          "time": 368.40000000000003,
          "velocity": 0.8267716535433071
        },
        {
          "duration": 0.09666666666669244,
          "durationTicks": 116,
          "midi": 86,
          "name": "D6",
          "ticks": 442200,
          "time": 368.5,
          "velocity": 0.8267716535433071
        },
        {
          "duration": 0.09666666666669244,
          "durationTicks": 116,
          "midi": 85,
          "name": "C#6",
          "ticks": 442320,
          "time": 368.6,
          "velocity": 0.8267716535433071
        },
        {
          "duration": 0.09666666666663559,
          "durationTicks": 116,
          "midi": 85,
          "name": "C#6",
          "ticks": 442440,
          "time": 368.70000000000005,
          "velocity": 0.8267716535433071
        },
        {
          "duration": 0.09666666666669244,
          "durationTicks": 116,
          "midi": 86,
          "name": "D6",
          "ticks": 442560,
          "time": 368.8,
          "velocity": 0.8267716535433071
        },
        {
          "duration": 0.09666666666663559,
          "durationTicks": 116,
          "midi": 86,
          "name": "D6",
          "ticks": 442680,
          "time": 368.90000000000003,
          "velocity": 0.8267716535433071
        },
        {
          "duration": 0.09666666666669244,
          "durationTicks": 116,
          "midi": 85,
          "name": "C#6",
          "ticks": 442800,
          "time": 369,
          "velocity": 0.8267716535433071
        },
        {
          "duration": 0.09666666666669244,
          "durationTicks": 116,
          "midi": 85,
          "name": "C#6",
          "ticks": 442920,
          "time": 369.1,
          "velocity": 0.8267716535433071
        },
        {
          "duration": 0.09666666666663559,
          "durationTicks": 116,
          "midi": 86,
          "name": "D6",
          "ticks": 443040,
          "time": 369.20000000000005,
          "velocity": 0.8267716535433071
        },
        {
          "duration": 0.09666666666669244,
          "durationTicks": 116,
          "midi": 86,
          "name": "D6",
          "ticks": 443160,
          "time": 369.3,
          "velocity": 0.8267716535433071
        },
        {
          "duration": 0.09666666666663559,
          "durationTicks": 116,
          "midi": 83,
          "name": "B5",
          "ticks": 443280,
          "time": 369.40000000000003,
          "velocity": 0.8267716535433071
        },
        {
          "duration": 0.09666666666669244,
          "durationTicks": 116,
          "midi": 83,
          "name": "B5",
          "ticks": 443400,
          "time": 369.5,
          "velocity": 0.8267716535433071
        },
        {
          "duration": 0.19666666666665833,
          "durationTicks": 236,
          "midi": 84,
          "name": "C6",
          "ticks": 443520,
          "time": 369.6,
          "velocity": 0.8267716535433071
        },
        {
          "duration": 0.09666666666669244,
          "durationTicks": 116,
          "midi": 84,
          "name": "C6",
          "ticks": 444000,
          "time": 370,
          "velocity": 0.8267716535433071
        },
        {
          "duration": 0.09666666666669244,
          "durationTicks": 116,
          "midi": 84,
          "name": "C6",
          "ticks": 444120,
          "time": 370.1,
          "velocity": 0.8267716535433071
        },
        {
          "duration": 0.09666666666663559,
          "durationTicks": 116,
          "midi": 83,
          "name": "B5",
          "ticks": 444240,
          "time": 370.20000000000005,
          "velocity": 0.8267716535433071
        },
        {
          "duration": 0.09666666666669244,
          "durationTicks": 116,
          "midi": 83,
          "name": "B5",
          "ticks": 444360,
          "time": 370.3,
          "velocity": 0.8267716535433071
        },
        {
          "duration": 0.09666666666663559,
          "durationTicks": 116,
          "midi": 84,
          "name": "C6",
          "ticks": 444480,
          "time": 370.40000000000003,
          "velocity": 0.8267716535433071
        },
        {
          "duration": 0.09666666666669244,
          "durationTicks": 116,
          "midi": 84,
          "name": "C6",
          "ticks": 444600,
          "time": 370.5,
          "velocity": 0.8267716535433071
        },
        {
          "duration": 0.09666666666669244,
          "durationTicks": 116,
          "midi": 83,
          "name": "B5",
          "ticks": 444720,
          "time": 370.6,
          "velocity": 0.8267716535433071
        },
        {
          "duration": 0.09666666666663559,
          "durationTicks": 116,
          "midi": 83,
          "name": "B5",
          "ticks": 444840,
          "time": 370.70000000000005,
          "velocity": 0.8267716535433071
        },
        {
          "duration": 0.09666666666669244,
          "durationTicks": 116,
          "midi": 84,
          "name": "C6",
          "ticks": 444960,
          "time": 370.8,
          "velocity": 0.8267716535433071
        },
        {
          "duration": 0.09666666666663559,
          "durationTicks": 116,
          "midi": 84,
          "name": "C6",
          "ticks": 445080,
          "time": 370.90000000000003,
          "velocity": 0.8267716535433071
        },
        {
          "duration": 0.09666666666669244,
          "durationTicks": 116,
          "midi": 81,
          "name": "A5",
          "ticks": 445200,
          "time": 371,
          "velocity": 0.8267716535433071
        },
        {
          "duration": 0.09666666666669244,
          "durationTicks": 116,
          "midi": 81,
          "name": "A5",
          "ticks": 445320,
          "time": 371.1,
          "velocity": 0.8267716535433071
        },
        {
          "duration": 0.19666666666665833,
          "durationTicks": 236,
          "midi": 83,
          "name": "B5",
          "ticks": 445440,
          "time": 371.20000000000005,
          "velocity": 0.8267716535433071
        },
        {
          "duration": 0.05000000000001137,
          "durationTicks": 60,
          "midi": 81,
          "name": "A5",
          "ticks": 445920,
          "time": 371.6,
          "velocity": 0.8267716535433071
        },
        {
          "duration": 0.05000000000001137,
          "durationTicks": 60,
          "midi": 79,
          "name": "G5",
          "ticks": 445980,
          "time": 371.65000000000003,
          "velocity": 0.8267716535433071
        },
        {
          "duration": 0.049999999999954525,
          "durationTicks": 60,
          "midi": 81,
          "name": "A5",
          "ticks": 446040,
          "time": 371.70000000000005,
          "velocity": 0.8267716535433071
        },
        {
          "duration": 0.05000000000001137,
          "durationTicks": 60,
          "midi": 79,
          "name": "G5",
          "ticks": 446100,
          "time": 371.75,
          "velocity": 0.8267716535433071
        },
        {
          "duration": 0.10000000000002274,
          "durationTicks": 120,
          "midi": 78,
          "name": "F#5",
          "ticks": 446160,
          "time": 371.8,
          "velocity": 0.8267716535433071
        },
        {
          "duration": 0.0999999999999659,
          "durationTicks": 120,
          "midi": 79,
          "name": "G5",
          "ticks": 446280,
          "time": 371.90000000000003,
          "velocity": 0.8267716535433071
        },
        {
          "duration": 0.19666666666671517,
          "durationTicks": 236,
          "midi": 81,
          "name": "A5",
          "ticks": 446400,
          "time": 372,
          "velocity": 0.8267716535433071
        },
        {
          "duration": 0.13333333333332575,
          "durationTicks": 160,
          "midi": 81,
          "name": "A5",
          "ticks": 446640,
          "time": 372.20000000000005,
          "velocity": 0.8267716535433071
        },
        {
          "duration": 0.13333333333332575,
          "durationTicks": 160,
          "midi": 78,
          "name": "F#5",
          "ticks": 446880,
          "time": 372.40000000000003,
          "velocity": 0.8267716535433071
        },
        {
          "duration": 0.13333333333332575,
          "durationTicks": 160,
          "midi": 78,
          "name": "F#5",
          "ticks": 447120,
          "time": 372.6,
          "velocity": 0.8267716535433071
        },
        {
          "duration": 0.19666666666665833,
          "durationTicks": 236,
          "midi": 79,
          "name": "G5",
          "ticks": 447360,
          "time": 372.8,
          "velocity": 0.8267716535433071
        },
        {
          "duration": 0.09666666666663559,
          "durationTicks": 116,
          "midi": 86,
          "name": "D6",
          "ticks": 447840,
          "time": 373.20000000000005,
          "velocity": 0.8267716535433071
        },
        {
          "duration": 0.09666666666669244,
          "durationTicks": 116,
          "midi": 86,
          "name": "D6",
          "ticks": 447960,
          "time": 373.3,
          "velocity": 0.8267716535433071
        },
        {
          "duration": 0.09666666666663559,
          "durationTicks": 116,
          "midi": 85,
          "name": "C#6",
          "ticks": 448080,
          "time": 373.40000000000003,
          "velocity": 0.8267716535433071
        },
        {
          "duration": 0.09666666666669244,
          "durationTicks": 116,
          "midi": 85,
          "name": "C#6",
          "ticks": 448200,
          "time": 373.5,
          "velocity": 0.8267716535433071
        },
        {
          "duration": 0.09666666666669244,
          "durationTicks": 116,
          "midi": 86,
          "name": "D6",
          "ticks": 448320,
          "time": 373.6,
          "velocity": 0.8267716535433071
        },
        {
          "duration": 0.09666666666663559,
          "durationTicks": 116,
          "midi": 86,
          "name": "D6",
          "ticks": 448440,
          "time": 373.70000000000005,
          "velocity": 0.8267716535433071
        },
        {
          "duration": 0.09666666666669244,
          "durationTicks": 116,
          "midi": 85,
          "name": "C#6",
          "ticks": 448560,
          "time": 373.8,
          "velocity": 0.8267716535433071
        },
        {
          "duration": 0.09666666666663559,
          "durationTicks": 116,
          "midi": 85,
          "name": "C#6",
          "ticks": 448680,
          "time": 373.90000000000003,
          "velocity": 0.8267716535433071
        },
        {
          "duration": 0.09666666666669244,
          "durationTicks": 116,
          "midi": 86,
          "name": "D6",
          "ticks": 448800,
          "time": 374,
          "velocity": 0.8267716535433071
        },
        {
          "duration": 0.09666666666669244,
          "durationTicks": 116,
          "midi": 86,
          "name": "D6",
          "ticks": 448920,
          "time": 374.1,
          "velocity": 0.8267716535433071
        },
        {
          "duration": 0.09666666666663559,
          "durationTicks": 116,
          "midi": 83,
          "name": "B5",
          "ticks": 449040,
          "time": 374.20000000000005,
          "velocity": 0.8267716535433071
        },
        {
          "duration": 0.09666666666669244,
          "durationTicks": 116,
          "midi": 83,
          "name": "B5",
          "ticks": 449160,
          "time": 374.3,
          "velocity": 0.8267716535433071
        },
        {
          "duration": 0.19666666666665833,
          "durationTicks": 236,
          "midi": 84,
          "name": "C6",
          "ticks": 449280,
          "time": 374.40000000000003,
          "velocity": 0.8267716535433071
        },
        {
          "duration": 0.09666666666669244,
          "durationTicks": 116,
          "midi": 84,
          "name": "C6",
          "ticks": 449760,
          "time": 374.8,
          "velocity": 0.8267716535433071
        },
        {
          "duration": 0.09666666666663559,
          "durationTicks": 116,
          "midi": 84,
          "name": "C6",
          "ticks": 449880,
          "time": 374.90000000000003,
          "velocity": 0.8267716535433071
        },
        {
          "duration": 0.09666666666669244,
          "durationTicks": 116,
          "midi": 83,
          "name": "B5",
          "ticks": 450000,
          "time": 375,
          "velocity": 0.8267716535433071
        },
        {
          "duration": 0.09666666666669244,
          "durationTicks": 116,
          "midi": 83,
          "name": "B5",
          "ticks": 450120,
          "time": 375.1,
          "velocity": 0.8267716535433071
        },
        {
          "duration": 0.09666666666663559,
          "durationTicks": 116,
          "midi": 84,
          "name": "C6",
          "ticks": 450240,
          "time": 375.20000000000005,
          "velocity": 0.8267716535433071
        },
        {
          "duration": 0.09666666666669244,
          "durationTicks": 116,
          "midi": 84,
          "name": "C6",
          "ticks": 450360,
          "time": 375.3,
          "velocity": 0.8267716535433071
        },
        {
          "duration": 0.09666666666663559,
          "durationTicks": 116,
          "midi": 83,
          "name": "B5",
          "ticks": 450480,
          "time": 375.40000000000003,
          "velocity": 0.8267716535433071
        },
        {
          "duration": 0.09666666666669244,
          "durationTicks": 116,
          "midi": 83,
          "name": "B5",
          "ticks": 450600,
          "time": 375.5,
          "velocity": 0.8267716535433071
        },
        {
          "duration": 0.09666666666669244,
          "durationTicks": 116,
          "midi": 84,
          "name": "C6",
          "ticks": 450720,
          "time": 375.6,
          "velocity": 0.8267716535433071
        },
        {
          "duration": 0.09666666666663559,
          "durationTicks": 116,
          "midi": 84,
          "name": "C6",
          "ticks": 450840,
          "time": 375.70000000000005,
          "velocity": 0.8267716535433071
        },
        {
          "duration": 0.09666666666669244,
          "durationTicks": 116,
          "midi": 81,
          "name": "A5",
          "ticks": 450960,
          "time": 375.8,
          "velocity": 0.8267716535433071
        },
        {
          "duration": 0.09666666666663559,
          "durationTicks": 116,
          "midi": 81,
          "name": "A5",
          "ticks": 451080,
          "time": 375.90000000000003,
          "velocity": 0.8267716535433071
        },
        {
          "duration": 0.19666666666671517,
          "durationTicks": 236,
          "midi": 83,
          "name": "B5",
          "ticks": 451200,
          "time": 376,
          "velocity": 0.8267716535433071
        },
        {
          "duration": 0.05000000000001137,
          "durationTicks": 60,
          "midi": 81,
          "name": "A5",
          "ticks": 451680,
          "time": 376.40000000000003,
          "velocity": 0.8267716535433071
        },
        {
          "duration": 0.049999999999954525,
          "durationTicks": 60,
          "midi": 79,
          "name": "G5",
          "ticks": 451740,
          "time": 376.45000000000005,
          "velocity": 0.8267716535433071
        },
        {
          "duration": 0.05000000000001137,
          "durationTicks": 60,
          "midi": 81,
          "name": "A5",
          "ticks": 451800,
          "time": 376.5,
          "velocity": 0.8267716535433071
        },
        {
          "duration": 0.05000000000001137,
          "durationTicks": 60,
          "midi": 79,
          "name": "G5",
          "ticks": 451860,
          "time": 376.55,
          "velocity": 0.8267716535433071
        },
        {
          "duration": 0.10000000000002274,
          "durationTicks": 120,
          "midi": 78,
          "name": "F#5",
          "ticks": 451920,
          "time": 376.6,
          "velocity": 0.8267716535433071
        },
        {
          "duration": 0.0999999999999659,
          "durationTicks": 120,
          "midi": 79,
          "name": "G5",
          "ticks": 452040,
          "time": 376.70000000000005,
          "velocity": 0.8267716535433071
        },
        {
          "duration": 0.19666666666665833,
          "durationTicks": 236,
          "midi": 81,
          "name": "A5",
          "ticks": 452160,
          "time": 376.8,
          "velocity": 0.8267716535433071
        },
        {
          "duration": 0.1333333333333826,
          "durationTicks": 160,
          "midi": 81,
          "name": "A5",
          "ticks": 452400,
          "time": 377,
          "velocity": 0.8267716535433071
        },
        {
          "duration": 0.13333333333332575,
          "durationTicks": 160,
          "midi": 78,
          "name": "F#5",
          "ticks": 452640,
          "time": 377.20000000000005,
          "velocity": 0.8267716535433071
        },
        {
          "duration": 0.13333333333332575,
          "durationTicks": 160,
          "midi": 78,
          "name": "F#5",
          "ticks": 452880,
          "time": 377.40000000000003,
          "velocity": 0.8267716535433071
        },
        {
          "duration": 0.33333333333337123,
          "durationTicks": 400,
          "midi": 79,
          "name": "G5",
          "ticks": 453120,
          "time": 377.6,
          "velocity": 0.8267716535433071
        },
        {
          "duration": 0.049999999999954525,
          "durationTicks": 60,
          "midi": 84,
          "name": "C6",
          "ticks": 453840,
          "time": 378.20000000000005,
          "velocity": 0.8267716535433071
        },
        {
          "duration": 0.05000000000001137,
          "durationTicks": 60,
          "midi": 83,
          "name": "B5",
          "ticks": 453900,
          "time": 378.25,
          "velocity": 0.8267716535433071
        },
        {
          "duration": 0.05000000000001137,
          "durationTicks": 60,
          "midi": 81,
          "name": "A5",
          "ticks": 453960,
          "time": 378.3,
          "velocity": 0.8267716535433071
        },
        {
          "duration": 0.05000000000001137,
          "durationTicks": 60,
          "midi": 79,
          "name": "G5",
          "ticks": 454020,
          "time": 378.35,
          "velocity": 0.8267716535433071
        },
        {
          "duration": 0.3333333333333144,
          "durationTicks": 400,
          "midi": 78,
          "name": "F#5",
          "ticks": 454080,
          "time": 378.40000000000003,
          "velocity": 0.8267716535433071
        },
        {
          "duration": 0.05000000000001137,
          "durationTicks": 60,
          "midi": 86,
          "name": "D6",
          "ticks": 454800,
          "time": 379,
          "velocity": 0.8267716535433071
        },
        {
          "duration": 0.05000000000001137,
          "durationTicks": 60,
          "midi": 84,
          "name": "C6",
          "ticks": 454860,
          "time": 379.05,
          "velocity": 0.8267716535433071
        },
        {
          "duration": 0.05000000000001137,
          "durationTicks": 60,
          "midi": 83,
          "name": "B5",
          "ticks": 454920,
          "time": 379.1,
          "velocity": 0.8267716535433071
        },
        {
          "duration": 0.05000000000001137,
          "durationTicks": 60,
          "midi": 81,
          "name": "A5",
          "ticks": 454980,
          "time": 379.15000000000003,
          "velocity": 0.8267716535433071
        },
        {
          "duration": 0.3333333333333144,
          "durationTicks": 400,
          "midi": 83,
          "name": "B5",
          "ticks": 455040,
          "time": 379.20000000000005,
          "velocity": 0.8267716535433071
        },
        {
          "duration": 0.05000000000001137,
          "durationTicks": 60,
          "midi": 84,
          "name": "C6",
          "ticks": 455760,
          "time": 379.8,
          "velocity": 0.8267716535433071
        },
        {
          "duration": 0.05000000000001137,
          "durationTicks": 60,
          "midi": 83,
          "name": "B5",
          "ticks": 455820,
          "time": 379.85,
          "velocity": 0.8267716535433071
        },
        {
          "duration": 0.05000000000001137,
          "durationTicks": 60,
          "midi": 81,
          "name": "A5",
          "ticks": 455880,
          "time": 379.90000000000003,
          "velocity": 0.8267716535433071
        },
        {
          "duration": 0.049999999999954525,
          "durationTicks": 60,
          "midi": 79,
          "name": "G5",
          "ticks": 455940,
          "time": 379.95000000000005,
          "velocity": 0.8267716535433071
        },
        {
          "duration": 0.33333333333337123,
          "durationTicks": 400,
          "midi": 78,
          "name": "F#5",
          "ticks": 456000,
          "time": 380,
          "velocity": 0.8267716535433071
        },
        {
          "duration": 0.05000000000001137,
          "durationTicks": 60,
          "midi": 86,
          "name": "D6",
          "ticks": 456720,
          "time": 380.6,
          "velocity": 0.8267716535433071
        },
        {
          "duration": 0.05000000000001137,
          "durationTicks": 60,
          "midi": 84,
          "name": "C6",
          "ticks": 456780,
          "time": 380.65000000000003,
          "velocity": 0.8267716535433071
        },
        {
          "duration": 0.049999999999954525,
          "durationTicks": 60,
          "midi": 83,
          "name": "B5",
          "ticks": 456840,
          "time": 380.70000000000005,
          "velocity": 0.8267716535433071
        },
        {
          "duration": 0.05000000000001137,
          "durationTicks": 60,
          "midi": 81,
          "name": "A5",
          "ticks": 456900,
          "time": 380.75,
          "velocity": 0.8267716535433071
        },
        {
          "duration": 0.33333333333337123,
          "durationTicks": 400,
          "midi": 83,
          "name": "B5",
          "ticks": 456960,
          "time": 380.8,
          "velocity": 0.8267716535433071
        },
        {
          "duration": 0.05000000000001137,
          "durationTicks": 60,
          "midi": 84,
          "name": "C6",
          "ticks": 457680,
          "time": 381.40000000000003,
          "velocity": 0.8267716535433071
        },
        {
          "duration": 0.049999999999954525,
          "durationTicks": 60,
          "midi": 83,
          "name": "B5",
          "ticks": 457740,
          "time": 381.45000000000005,
          "velocity": 0.8267716535433071
        },
        {
          "duration": 0.05000000000001137,
          "durationTicks": 60,
          "midi": 81,
          "name": "A5",
          "ticks": 457800,
          "time": 381.5,
          "velocity": 0.8267716535433071
        },
        {
          "duration": 0.05000000000001137,
          "durationTicks": 60,
          "midi": 79,
          "name": "G5",
          "ticks": 457860,
          "time": 381.55,
          "velocity": 0.8267716535433071
        },
        {
          "duration": 0.33333333333337123,
          "durationTicks": 400,
          "midi": 78,
          "name": "F#5",
          "ticks": 457920,
          "time": 381.6,
          "velocity": 0.8267716535433071
        },
        {
          "duration": 0.049999999999954525,
          "durationTicks": 60,
          "midi": 86,
          "name": "D6",
          "ticks": 458640,
          "time": 382.20000000000005,
          "velocity": 0.8267716535433071
        },
        {
          "duration": 0.05000000000001137,
          "durationTicks": 60,
          "midi": 84,
          "name": "C6",
          "ticks": 458700,
          "time": 382.25,
          "velocity": 0.8267716535433071
        },
        {
          "duration": 0.05000000000001137,
          "durationTicks": 60,
          "midi": 83,
          "name": "B5",
          "ticks": 458760,
          "time": 382.3,
          "velocity": 0.8267716535433071
        },
        {
          "duration": 0.05000000000001137,
          "durationTicks": 60,
          "midi": 81,
          "name": "A5",
          "ticks": 458820,
          "time": 382.35,
          "velocity": 0.8267716535433071
        },
        {
          "duration": 0.3333333333333144,
          "durationTicks": 400,
          "midi": 79,
          "name": "G5",
          "ticks": 458880,
          "time": 382.40000000000003,
          "velocity": 0.8267716535433071
        },
        {
          "duration": 0.33333333333337123,
          "durationTicks": 400,
          "midi": 62,
          "name": "D4",
          "ticks": 459360,
          "time": 382.8,
          "velocity": 0.8267716535433071
        },
        {
          "duration": 0.33333333333337123,
          "durationTicks": 400,
          "midi": 74,
          "name": "D5",
          "ticks": 459360,
          "time": 382.8,
          "velocity": 0.8267716535433071
        },
        {
          "duration": 0.33333333333337123,
          "durationTicks": 400,
          "midi": 83,
          "name": "B5",
          "ticks": 459360,
          "time": 382.8,
          "velocity": 0.8267716535433071
        },
        {
          "duration": 0.3333333333333144,
          "durationTicks": 400,
          "midi": 62,
          "name": "D4",
          "ticks": 459840,
          "time": 383.20000000000005,
          "velocity": 0.8267716535433071
        },
        {
          "duration": 0.3333333333333144,
          "durationTicks": 400,
          "midi": 71,
          "name": "B4",
          "ticks": 459840,
          "time": 383.20000000000005,
          "velocity": 0.8267716535433071
        },
        {
          "duration": 0.3333333333333144,
          "durationTicks": 400,
          "midi": 79,
          "name": "G5",
          "ticks": 459840,
          "time": 383.20000000000005,
          "velocity": 0.8267716535433071
        },
        {
          "duration": 0.19999999999998863,
          "durationTicks": 240,
          "midi": 70,
          "name": "A#4",
          "ticks": 465360,
          "time": 387.8,
          "velocity": 0.4015748031496063
        },
        {
          "duration": 0.33333333333337123,
          "durationTicks": 400,
          "midi": 79,
          "name": "G5",
          "ticks": 465600,
          "time": 388,
          "velocity": 0.4015748031496063
        },
        {
          "duration": 0.06666666666666288,
          "durationTicks": 80,
          "midi": 79,
          "name": "G5",
          "ticks": 466080,
          "time": 388.40000000000003,
          "velocity": 0.4015748031496063
        },
        {
          "duration": 0.06666666666666288,
          "durationTicks": 80,
          "midi": 79,
          "name": "G5",
          "ticks": 466320,
          "time": 388.6,
          "velocity": 0.4015748031496063
        },
        {
          "duration": 0.19999999999998863,
          "durationTicks": 240,
          "midi": 79,
          "name": "G5",
          "ticks": 466560,
          "time": 388.8,
          "velocity": 0.4015748031496063
        },
        {
          "duration": 0.19666666666671517,
          "durationTicks": 236,
          "midi": 77,
          "name": "F5",
          "ticks": 466800,
          "time": 389,
          "velocity": 0.4015748031496063
        },
        {
          "duration": 0.06666666666660603,
          "durationTicks": 80,
          "midi": 77,
          "name": "F5",
          "ticks": 467040,
          "time": 389.20000000000005,
          "velocity": 0.4015748031496063
        },
        {
          "duration": 0.06666666666666288,
          "durationTicks": 80,
          "midi": 77,
          "name": "F5",
          "ticks": 467280,
          "time": 389.40000000000003,
          "velocity": 0.4015748031496063
        },
        {
          "duration": 0.04666666666668107,
          "durationTicks": 56,
          "midi": 79,
          "name": "G5",
          "ticks": 467520,
          "time": 389.6,
          "velocity": 0.4015748031496063
        },
        {
          "duration": 0.14666666666664696,
          "durationTicks": 176,
          "midi": 77,
          "name": "F5",
          "ticks": 467580,
          "time": 389.65000000000003,
          "velocity": 0.4015748031496063
        },
        {
          "duration": 0.06666666666666288,
          "durationTicks": 80,
          "midi": 75,
          "name": "D#5",
          "ticks": 467760,
          "time": 389.8,
          "velocity": 0.4015748031496063
        },
        {
          "duration": 0.06666666666666288,
          "durationTicks": 80,
          "midi": 77,
          "name": "F5",
          "ticks": 468000,
          "time": 390,
          "velocity": 0.4015748031496063
        },
        {
          "duration": 0.06666666666660603,
          "durationTicks": 80,
          "midi": 79,
          "name": "G5",
          "ticks": 468240,
          "time": 390.20000000000005,
          "velocity": 0.4015748031496063
        },
        {
          "duration": 0.39999999999997726,
          "durationTicks": 480,
          "midi": 75,
          "name": "D#5",
          "ticks": 468480,
          "time": 390.40000000000003,
          "velocity": 0.4015748031496063
        },
        {
          "duration": 0.19666666666665833,
          "durationTicks": 236,
          "midi": 70,
          "name": "A#4",
          "ticks": 468960,
          "time": 390.8,
          "velocity": 0.4015748031496063
        },
        {
          "duration": 0.06666666666666288,
          "durationTicks": 80,
          "midi": 70,
          "name": "A#4",
          "ticks": 469200,
          "time": 391,
          "velocity": 0.4015748031496063
        },
        {
          "duration": 0.19999999999998863,
          "durationTicks": 240,
          "midi": 70,
          "name": "A#4",
          "ticks": 469440,
          "time": 391.20000000000005,
          "velocity": 0.4015748031496063
        },
        {
          "duration": 0.19666666666665833,
          "durationTicks": 236,
          "midi": 79,
          "name": "G5",
          "ticks": 469680,
          "time": 391.40000000000003,
          "velocity": 0.4015748031496063
        },
        {
          "duration": 0.06666666666666288,
          "durationTicks": 80,
          "midi": 79,
          "name": "G5",
          "ticks": 469920,
          "time": 391.6,
          "velocity": 0.4015748031496063
        },
        {
          "duration": 0.06666666666666288,
          "durationTicks": 80,
          "midi": 79,
          "name": "G5",
          "ticks": 470160,
          "time": 391.8,
          "velocity": 0.4015748031496063
        },
        {
          "duration": 0.20000000000004547,
          "durationTicks": 240,
          "midi": 79,
          "name": "G5",
          "ticks": 470400,
          "time": 392,
          "velocity": 0.4015748031496063
        },
        {
          "duration": 0.19666666666665833,
          "durationTicks": 236,
          "midi": 77,
          "name": "F5",
          "ticks": 470640,
          "time": 392.20000000000005,
          "velocity": 0.4015748031496063
        },
        {
          "duration": 0.06666666666666288,
          "durationTicks": 80,
          "midi": 77,
          "name": "F5",
          "ticks": 470880,
          "time": 392.40000000000003,
          "velocity": 0.4015748031496063
        },
        {
          "duration": 0.06666666666666288,
          "durationTicks": 80,
          "midi": 77,
          "name": "F5",
          "ticks": 471120,
          "time": 392.6,
          "velocity": 0.4015748031496063
        },
        {
          "duration": 0.04666666666668107,
          "durationTicks": 56,
          "midi": 79,
          "name": "G5",
          "ticks": 471360,
          "time": 392.8,
          "velocity": 0.4015748031496063
        },
        {
          "duration": 0.14666666666664696,
          "durationTicks": 176,
          "midi": 77,
          "name": "F5",
          "ticks": 471420,
          "time": 392.85,
          "velocity": 0.4015748031496063
        },
        {
          "duration": 0.06666666666666288,
          "durationTicks": 80,
          "midi": 75,
          "name": "D#5",
          "ticks": 471600,
          "time": 393,
          "velocity": 0.4015748031496063
        },
        {
          "duration": 0.06666666666660603,
          "durationTicks": 80,
          "midi": 77,
          "name": "F5",
          "ticks": 471840,
          "time": 393.20000000000005,
          "velocity": 0.4015748031496063
        },
        {
          "duration": 0.06666666666666288,
          "durationTicks": 80,
          "midi": 79,
          "name": "G5",
          "ticks": 472080,
          "time": 393.40000000000003,
          "velocity": 0.4015748031496063
        },
        {
          "duration": 0.39999999999997726,
          "durationTicks": 480,
          "midi": 75,
          "name": "D#5",
          "ticks": 472320,
          "time": 393.6,
          "velocity": 0.4015748031496063
        },
        {
          "duration": 0.19666666666671517,
          "durationTicks": 236,
          "midi": 82,
          "name": "A#5",
          "ticks": 472800,
          "time": 394,
          "velocity": 0.4015748031496063
        },
        {
          "duration": 0.06666666666660603,
          "durationTicks": 80,
          "midi": 70,
          "name": "A#4",
          "ticks": 473040,
          "time": 394.20000000000005,
          "velocity": 0.4015748031496063
        },
        {
          "duration": 0.19999999999998863,
          "durationTicks": 240,
          "midi": 70,
          "name": "A#4",
          "ticks": 473280,
          "time": 394.40000000000003,
          "velocity": 0.4015748031496063
        },
        {
          "duration": 0.19666666666665833,
          "durationTicks": 236,
          "midi": 79,
          "name": "G5",
          "ticks": 473520,
          "time": 394.6,
          "velocity": 0.4015748031496063
        },
        {
          "duration": 0.06666666666666288,
          "durationTicks": 80,
          "midi": 79,
          "name": "G5",
          "ticks": 473760,
          "time": 394.8,
          "velocity": 0.4015748031496063
        },
        {
          "duration": 0.06666666666666288,
          "durationTicks": 80,
          "midi": 79,
          "name": "G5",
          "ticks": 474000,
          "time": 395,
          "velocity": 0.4015748031496063
        },
        {
          "duration": 0.19999999999998863,
          "durationTicks": 240,
          "midi": 79,
          "name": "G5",
          "ticks": 474240,
          "time": 395.20000000000005,
          "velocity": 0.4015748031496063
        },
        {
          "duration": 0.19666666666665833,
          "durationTicks": 236,
          "midi": 77,
          "name": "F5",
          "ticks": 474480,
          "time": 395.40000000000003,
          "velocity": 0.4015748031496063
        },
        {
          "duration": 0.06666666666666288,
          "durationTicks": 80,
          "midi": 77,
          "name": "F5",
          "ticks": 474720,
          "time": 395.6,
          "velocity": 0.4015748031496063
        },
        {
          "duration": 0.06666666666666288,
          "durationTicks": 80,
          "midi": 77,
          "name": "F5",
          "ticks": 474960,
          "time": 395.8,
          "velocity": 0.4015748031496063
        },
        {
          "duration": 0.04666666666668107,
          "durationTicks": 56,
          "midi": 79,
          "name": "G5",
          "ticks": 475200,
          "time": 396,
          "velocity": 0.4015748031496063
        },
        {
          "duration": 0.1466666666667038,
          "durationTicks": 176,
          "midi": 77,
          "name": "F5",
          "ticks": 475260,
          "time": 396.05,
          "velocity": 0.4015748031496063
        },
        {
          "duration": 0.06666666666660603,
          "durationTicks": 80,
          "midi": 75,
          "name": "D#5",
          "ticks": 475440,
          "time": 396.20000000000005,
          "velocity": 0.4015748031496063
        },
        {
          "duration": 0.06666666666666288,
          "durationTicks": 80,
          "midi": 77,
          "name": "F5",
          "ticks": 475680,
          "time": 396.40000000000003,
          "velocity": 0.4015748031496063
        },
        {
          "duration": 0.06666666666666288,
          "durationTicks": 80,
          "midi": 79,
          "name": "G5",
          "ticks": 475920,
          "time": 396.6,
          "velocity": 0.4015748031496063
        },
        {
          "duration": 0.6000000000000227,
          "durationTicks": 720,
          "midi": 75,
          "name": "D#5",
          "ticks": 476160,
          "time": 396.8,
          "velocity": 0.4015748031496063
        },
        {
          "duration": 0.19666666666665833,
          "durationTicks": 236,
          "midi": 79,
          "name": "G5",
          "ticks": 476880,
          "time": 397.40000000000003,
          "velocity": 0.4015748031496063
        },
        {
          "duration": 0.6000000000000227,
          "durationTicks": 720,
          "midi": 72,
          "name": "C5",
          "ticks": 477120,
          "time": 397.6,
          "velocity": 0.4015748031496063
        },
        {
          "duration": 0.19666666666665833,
          "durationTicks": 236,
          "midi": 80,
          "name": "G#5",
          "ticks": 477840,
          "time": 398.20000000000005,
          "velocity": 0.4015748031496063
        },
        {
          "duration": 0.19999999999998863,
          "durationTicks": 240,
          "midi": 77,
          "name": "F5",
          "ticks": 478080,
          "time": 398.40000000000003,
          "velocity": 0.4015748031496063
        },
        {
          "duration": 0.19666666666665833,
          "durationTicks": 236,
          "midi": 84,
          "name": "C6",
          "ticks": 478320,
          "time": 398.6,
          "velocity": 0.4015748031496063
        },
        {
          "duration": 0.06666666666666288,
          "durationTicks": 80,
          "midi": 80,
          "name": "G#5",
          "ticks": 478560,
          "time": 398.8,
          "velocity": 0.4015748031496063
        },
        {
          "duration": 0.06666666666666288,
          "durationTicks": 80,
          "midi": 77,
          "name": "F5",
          "ticks": 478800,
          "time": 399,
          "velocity": 0.4015748031496063
        },
        {
          "duration": 0.06666666666660603,
          "durationTicks": 80,
          "midi": 74,
          "name": "D5",
          "ticks": 479040,
          "time": 399.20000000000005,
          "velocity": 0.4015748031496063
        },
        {
          "duration": 0.06666666666666288,
          "durationTicks": 80,
          "midi": 75,
          "name": "D#5",
          "ticks": 479280,
          "time": 399.40000000000003,
          "velocity": 0.4015748031496063
        },
        {
          "duration": 0.06666666666666288,
          "durationTicks": 80,
          "midi": 77,
          "name": "F5",
          "ticks": 479520,
          "time": 399.6,
          "velocity": 0.4015748031496063
        },
        {
          "duration": 0.06666666666666288,
          "durationTicks": 80,
          "midi": 79,
          "name": "G5",
          "ticks": 479760,
          "time": 399.8,
          "velocity": 0.4015748031496063
        },
        {
          "duration": 0.33333333333337123,
          "durationTicks": 400,
          "midi": 75,
          "name": "D#5",
          "ticks": 480000,
          "time": 400,
          "velocity": 0.4015748031496063
        },
        {
          "duration": 0.19999999999998863,
          "durationTicks": 240,
          "midi": 75,
          "name": "D#5",
          "ticks": 483840,
          "time": 403.20000000000005,
          "velocity": 0.8267716535433071
        },
        {
          "duration": 0.19666666666665833,
          "durationTicks": 236,
          "midi": 82,
          "name": "A#5",
          "ticks": 484080,
          "time": 403.40000000000003,
          "velocity": 0.8267716535433071
        },
        {
          "duration": 0.06666666666666288,
          "durationTicks": 80,
          "midi": 79,
          "name": "G5",
          "ticks": 484320,
          "time": 403.6,
          "velocity": 0.8267716535433071
        },
        {
          "duration": 0.06666666666666288,
          "durationTicks": 80,
          "midi": 75,
          "name": "D#5",
          "ticks": 484560,
          "time": 403.8,
          "velocity": 0.8267716535433071
        },
        {
          "duration": 0.06666666666666288,
          "durationTicks": 80,
          "midi": 74,
          "name": "D5",
          "ticks": 484800,
          "time": 404,
          "velocity": 0.8267716535433071
        },
        {
          "duration": 0.06666666666660603,
          "durationTicks": 80,
          "midi": 75,
          "name": "D#5",
          "ticks": 485040,
          "time": 404.20000000000005,
          "velocity": 0.8267716535433071
        },
        {
          "duration": 0.06666666666666288,
          "durationTicks": 80,
          "midi": 77,
          "name": "F5",
          "ticks": 485280,
          "time": 404.40000000000003,
          "velocity": 0.8267716535433071
        },
        {
          "duration": 0.06666666666666288,
          "durationTicks": 80,
          "midi": 79,
          "name": "G5",
          "ticks": 485520,
          "time": 404.6,
          "velocity": 0.8267716535433071
        },
        {
          "duration": 0.33333333333337123,
          "durationTicks": 400,
          "midi": 75,
          "name": "D#5",
          "ticks": 485760,
          "time": 404.8,
          "velocity": 0.8267716535433071
        },
        {
          "duration": 0.33333333333337123,
          "durationTicks": 400,
          "midi": 62,
          "name": "D4",
          "ticks": 486720,
          "time": 405.6,
          "velocity": 0.8267716535433071
        },
        {
          "duration": 0.33333333333337123,
          "durationTicks": 400,
          "midi": 70,
          "name": "A#4",
          "ticks": 486720,
          "time": 405.6,
          "velocity": 0.8267716535433071
        },
        {
          "duration": 0.33333333333337123,
          "durationTicks": 400,
          "midi": 80,
          "name": "G#5",
          "ticks": 486720,
          "time": 405.6,
          "velocity": 0.8267716535433071
        },
        {
          "duration": 0.19999999999998863,
          "durationTicks": 240,
          "midi": 79,
          "name": "G5",
          "ticks": 487680,
          "time": 406.40000000000003,
          "velocity": 0.8267716535433071
        },
        {
          "duration": 0.19666666666665833,
          "durationTicks": 236,
          "midi": 85,
          "name": "C#6",
          "ticks": 487920,
          "time": 406.6,
          "velocity": 0.8267716535433071
        },
        {
          "duration": 0.06666666666666288,
          "durationTicks": 80,
          "midi": 82,
          "name": "A#5",
          "ticks": 488160,
          "time": 406.8,
          "velocity": 0.8267716535433071
        },
        {
          "duration": 0.06666666666666288,
          "durationTicks": 80,
          "midi": 79,
          "name": "G5",
          "ticks": 488400,
          "time": 407,
          "velocity": 0.8267716535433071
        },
        {
          "duration": 0.06666666666660603,
          "durationTicks": 80,
          "midi": 76,
          "name": "E5",
          "ticks": 488640,
          "time": 407.20000000000005,
          "velocity": 0.8267716535433071
        },
        {
          "duration": 0.06666666666666288,
          "durationTicks": 80,
          "midi": 77,
          "name": "F5",
          "ticks": 488880,
          "time": 407.40000000000003,
          "velocity": 0.8267716535433071
        },
        {
          "duration": 0.06666666666666288,
          "durationTicks": 80,
          "midi": 79,
          "name": "G5",
          "ticks": 489120,
          "time": 407.6,
          "velocity": 0.8267716535433071
        },
        {
          "duration": 0.06666666666666288,
          "durationTicks": 80,
          "midi": 80,
          "name": "G#5",
          "ticks": 489360,
          "time": 407.8,
          "velocity": 0.8267716535433071
        },
        {
          "duration": 0.33333333333337123,
          "durationTicks": 400,
          "midi": 77,
          "name": "F5",
          "ticks": 489600,
          "time": 408,
          "velocity": 0.8267716535433071
        },
        {
          "duration": 0.33333333333337123,
          "durationTicks": 400,
          "midi": 64,
          "name": "E4",
          "ticks": 490560,
          "time": 408.8,
          "velocity": 0.8267716535433071
        },
        {
          "duration": 0.33333333333337123,
          "durationTicks": 400,
          "midi": 72,
          "name": "C5",
          "ticks": 490560,
          "time": 408.8,
          "velocity": 0.8267716535433071
        },
        {
          "duration": 0.33333333333337123,
          "durationTicks": 400,
          "midi": 82,
          "name": "A#5",
          "ticks": 490560,
          "time": 408.8,
          "velocity": 0.8267716535433071
        },
        {
          "duration": 0.19999999999998863,
          "durationTicks": 240,
          "midi": 81,
          "name": "A5",
          "ticks": 491520,
          "time": 409.6,
          "velocity": 0.8267716535433071
        },
        {
          "duration": 0.19666666666665833,
          "durationTicks": 236,
          "midi": 87,
          "name": "D#6",
          "ticks": 491760,
          "time": 409.8,
          "velocity": 0.8267716535433071
        },
        {
          "duration": 0.06666666666671972,
          "durationTicks": 80,
          "midi": 84,
          "name": "C6",
          "ticks": 492000,
          "time": 410,
          "velocity": 0.8267716535433071
        },
        {
          "duration": 0.06666666666666288,
          "durationTicks": 80,
          "midi": 81,
          "name": "A5",
          "ticks": 492240,
          "time": 410.20000000000005,
          "velocity": 0.8267716535433071
        },
        {
          "duration": 0.06666666666666288,
          "durationTicks": 80,
          "midi": 78,
          "name": "F#5",
          "ticks": 492480,
          "time": 410.40000000000003,
          "velocity": 0.8267716535433071
        },
        {
          "duration": 0.06666666666671972,
          "durationTicks": 80,
          "midi": 79,
          "name": "G5",
          "ticks": 492720,
          "time": 410.6,
          "velocity": 0.8267716535433071
        },
        {
          "duration": 0.06666666666671972,
          "durationTicks": 80,
          "midi": 81,
          "name": "A5",
          "ticks": 492960,
          "time": 410.8,
          "velocity": 0.8267716535433071
        },
        {
          "duration": 0.06666666666671972,
          "durationTicks": 80,
          "midi": 82,
          "name": "A#5",
          "ticks": 493200,
          "time": 411,
          "velocity": 0.8267716535433071
        },
        {
          "duration": 0.33333333333325754,
          "durationTicks": 400,
          "midi": 79,
          "name": "G5",
          "ticks": 493440,
          "time": 411.20000000000005,
          "velocity": 0.8267716535433071
        },
        {
          "duration": 0.3333333333333144,
          "durationTicks": 400,
          "midi": 62,
          "name": "D4",
          "ticks": 494400,
          "time": 412,
          "velocity": 0.8267716535433071
        },
        {
          "duration": 0.3333333333333144,
          "durationTicks": 400,
          "midi": 74,
          "name": "D5",
          "ticks": 494400,
          "time": 412,
          "velocity": 0.8267716535433071
        },
        {
          "duration": 0.3333333333333144,
          "durationTicks": 400,
          "midi": 84,
          "name": "C6",
          "ticks": 494400,
          "time": 412,
          "velocity": 0.8267716535433071
        },
        {
          "duration": 0.19999999999998863,
          "durationTicks": 240,
          "midi": 82,
          "name": "A#5",
          "ticks": 495360,
          "time": 412.8,
          "velocity": 0.8267716535433071
        },
        {
          "duration": 0.19666666666665833,
          "durationTicks": 236,
          "midi": 86,
          "name": "D6",
          "ticks": 495600,
          "time": 413,
          "velocity": 0.8267716535433071
        },
        {
          "duration": 0.06666666666666288,
          "durationTicks": 80,
          "midi": 82,
          "name": "A#5",
          "ticks": 495840,
          "time": 413.20000000000005,
          "velocity": 0.8267716535433071
        },
        {
          "duration": 0.06666666666666288,
          "durationTicks": 80,
          "midi": 81,
          "name": "A5",
          "ticks": 496080,
          "time": 413.40000000000003,
          "velocity": 0.8267716535433071
        },
        {
          "duration": 0.19999999999998863,
          "durationTicks": 240,
          "midi": 79,
          "name": "G5",
          "ticks": 496320,
          "time": 413.6,
          "velocity": 0.8267716535433071
        },
        {
          "duration": 0.19666666666665833,
          "durationTicks": 236,
          "midi": 82,
          "name": "A#5",
          "ticks": 496560,
          "time": 413.8,
          "velocity": 0.8267716535433071
        },
        {
          "duration": 0.06666666666671972,
          "durationTicks": 80,
          "midi": 79,
          "name": "G5",
          "ticks": 496800,
          "time": 414,
          "velocity": 0.8267716535433071
        },
        {
          "duration": 0.06666666666666288,
          "durationTicks": 80,
          "midi": 77,
          "name": "F5",
          "ticks": 497040,
          "time": 414.20000000000005,
          "velocity": 0.8267716535433071
        },
        {
          "duration": 0.19999999999998863,
          "durationTicks": 240,
          "midi": 76,
          "name": "E5",
          "ticks": 497280,
          "time": 414.40000000000003,
          "velocity": 0.8267716535433071
        },
        {
          "duration": 0.1966666666666015,
          "durationTicks": 236,
          "midi": 79,
          "name": "G5",
          "ticks": 497520,
          "time": 414.6,
          "velocity": 0.8267716535433071
        },
        {
          "duration": 0.06666666666671972,
          "durationTicks": 80,
          "midi": 76,
          "name": "E5",
          "ticks": 497760,
          "time": 414.8,
          "velocity": 0.8267716535433071
        },
        {
          "duration": 0.06666666666671972,
          "durationTicks": 80,
          "midi": 74,
          "name": "D5",
          "ticks": 498000,
          "time": 415,
          "velocity": 0.8267716535433071
        },
        {
          "duration": 0.33333333333325754,
          "durationTicks": 400,
          "midi": 72,
          "name": "C5",
          "ticks": 498240,
          "time": 415.20000000000005,
          "velocity": 0.8267716535433071
        },
        {
          "duration": 0.3333333333333144,
          "durationTicks": 400,
          "midi": 64,
          "name": "E4",
          "ticks": 498720,
          "time": 415.6,
          "velocity": 0.8267716535433071
        },
        {
          "duration": 0.3333333333333144,
          "durationTicks": 400,
          "midi": 72,
          "name": "C5",
          "ticks": 498720,
          "time": 415.6,
          "velocity": 0.8267716535433071
        },
        {
          "duration": 0.3333333333333144,
          "durationTicks": 400,
          "midi": 82,
          "name": "A#5",
          "ticks": 498720,
          "time": 415.6,
          "velocity": 0.8267716535433071
        },
        {
          "duration": 0.20000000000004547,
          "durationTicks": 240,
          "midi": 80,
          "name": "G#5",
          "ticks": 499200,
          "time": 416,
          "velocity": 0.8267716535433071
        },
        {
          "duration": 0.1966666666666015,
          "durationTicks": 236,
          "midi": 84,
          "name": "C6",
          "ticks": 499440,
          "time": 416.20000000000005,
          "velocity": 0.8267716535433071
        },
        {
          "duration": 0.06666666666666288,
          "durationTicks": 80,
          "midi": 80,
          "name": "G#5",
          "ticks": 499680,
          "time": 416.40000000000003,
          "velocity": 0.8267716535433071
        },
        {
          "duration": 0.06666666666671972,
          "durationTicks": 80,
          "midi": 79,
          "name": "G5",
          "ticks": 499920,
          "time": 416.6,
          "velocity": 0.8267716535433071
        },
        {
          "duration": 0.19999999999998863,
          "durationTicks": 240,
          "midi": 77,
          "name": "F5",
          "ticks": 500160,
          "time": 416.8,
          "velocity": 0.8267716535433071
        },
        {
          "duration": 0.19666666666665833,
          "durationTicks": 236,
          "midi": 80,
          "name": "G#5",
          "ticks": 500400,
          "time": 417,
          "velocity": 0.8267716535433071
        },
        {
          "duration": 0.06666666666666288,
          "durationTicks": 80,
          "midi": 77,
          "name": "F5",
          "ticks": 500640,
          "time": 417.20000000000005,
          "velocity": 0.8267716535433071
        },
        {
          "duration": 0.06666666666666288,
          "durationTicks": 80,
          "midi": 75,
          "name": "D#5",
          "ticks": 500880,
          "time": 417.40000000000003,
          "velocity": 0.8267716535433071
        },
        {
          "duration": 0.19999999999998863,
          "durationTicks": 240,
          "midi": 74,
          "name": "D5",
          "ticks": 501120,
          "time": 417.6,
          "velocity": 0.8267716535433071
        },
        {
          "duration": 0.19666666666665833,
          "durationTicks": 236,
          "midi": 77,
          "name": "F5",
          "ticks": 501360,
          "time": 417.8,
          "velocity": 0.8267716535433071
        },
        {
          "duration": 0.06666666666671972,
          "durationTicks": 80,
          "midi": 74,
          "name": "D5",
          "ticks": 501600,
          "time": 418,
          "velocity": 0.8267716535433071
        },
        {
          "duration": 0.06666666666666288,
          "durationTicks": 80,
          "midi": 72,
          "name": "C5",
          "ticks": 501840,
          "time": 418.20000000000005,
          "velocity": 0.8267716535433071
        },
        {
          "duration": 0.3333333333333144,
          "durationTicks": 400,
          "midi": 70,
          "name": "A#4",
          "ticks": 502080,
          "time": 418.40000000000003,
          "velocity": 0.8267716535433071
        },
        {
          "duration": 0.3333333333333144,
          "durationTicks": 400,
          "midi": 62,
          "name": "D4",
          "ticks": 502560,
          "time": 418.8,
          "velocity": 0.8267716535433071
        },
        {
          "duration": 0.3333333333333144,
          "durationTicks": 400,
          "midi": 70,
          "name": "A#4",
          "ticks": 502560,
          "time": 418.8,
          "velocity": 0.8267716535433071
        },
        {
          "duration": 0.3333333333333144,
          "durationTicks": 400,
          "midi": 80,
          "name": "G#5",
          "ticks": 502560,
          "time": 418.8,
          "velocity": 0.8267716535433071
        },
        {
          "duration": 0.19999999999998863,
          "durationTicks": 240,
          "midi": 79,
          "name": "G5",
          "ticks": 503040,
          "time": 419.20000000000005,
          "velocity": 0.8267716535433071
        },
        {
          "duration": 0.1966666666666015,
          "durationTicks": 236,
          "midi": 82,
          "name": "A#5",
          "ticks": 503280,
          "time": 419.40000000000003,
          "velocity": 0.8267716535433071
        },
        {
          "duration": 0.06666666666671972,
          "durationTicks": 80,
          "midi": 75,
          "name": "D#5",
          "ticks": 503520,
          "time": 419.6,
          "velocity": 0.8267716535433071
        },
        {
          "duration": 0.06666666666671972,
          "durationTicks": 80,
          "midi": 79,
          "name": "G5",
          "ticks": 503760,
          "time": 419.8,
          "velocity": 0.8267716535433071
        },
        {
          "duration": 0.3333333333333144,
          "durationTicks": 400,
          "midi": 80,
          "name": "G#5",
          "ticks": 504000,
          "time": 420,
          "velocity": 0.8267716535433071
        },
        {
          "duration": 0.1966666666666015,
          "durationTicks": 236,
          "midi": 80,
          "name": "G#5",
          "ticks": 504720,
          "time": 420.6,
          "velocity": 0.8267716535433071
        },
        {
          "duration": 0.19999999999998863,
          "durationTicks": 240,
          "midi": 77,
          "name": "F5",
          "ticks": 504960,
          "time": 420.8,
          "velocity": 0.8267716535433071
        },
        {
          "duration": 0.19666666666665833,
          "durationTicks": 236,
          "midi": 80,
          "name": "G#5",
          "ticks": 505200,
          "time": 421,
          "velocity": 0.8267716535433071
        },
        {
          "duration": 0.06666666666666288,
          "durationTicks": 80,
          "midi": 74,
          "name": "D5",
          "ticks": 505440,
          "time": 421.20000000000005,
          "velocity": 0.8267716535433071
        },
        {
          "duration": 0.06666666666666288,
          "durationTicks": 80,
          "midi": 77,
          "name": "F5",
          "ticks": 505680,
          "time": 421.40000000000003,
          "velocity": 0.8267716535433071
        },
        {
          "duration": 0.3333333333333144,
          "durationTicks": 400,
          "midi": 79,
          "name": "G5",
          "ticks": 505920,
          "time": 421.6,
          "velocity": 0.8267716535433071
        },
        {
          "duration": 0.1966666666666015,
          "durationTicks": 236,
          "midi": 79,
          "name": "G5",
          "ticks": 506640,
          "time": 422.20000000000005,
          "velocity": 0.8267716535433071
        },
        {
          "duration": 0.19999999999998863,
          "durationTicks": 240,
          "midi": 75,
          "name": "D#5",
          "ticks": 506880,
          "time": 422.40000000000003,
          "velocity": 0.8267716535433071
        },
        {
          "duration": 0.1966666666666015,
          "durationTicks": 236,
          "midi": 79,
          "name": "G5",
          "ticks": 507120,
          "time": 422.6,
          "velocity": 0.8267716535433071
        },
        {
          "duration": 0.06666666666671972,
          "durationTicks": 80,
          "midi": 75,
          "name": "D#5",
          "ticks": 507360,
          "time": 422.8,
          "velocity": 0.8267716535433071
        },
        {
          "duration": 0.06666666666671972,
          "durationTicks": 80,
          "midi": 74,
          "name": "D5",
          "ticks": 507600,
          "time": 423,
          "velocity": 0.8267716535433071
        },
        {
          "duration": 0.19999999999998863,
          "durationTicks": 240,
          "midi": 72,
          "name": "C5",
          "ticks": 507840,
          "time": 423.20000000000005,
          "velocity": 0.8267716535433071
        },
        {
          "duration": 0.1966666666666015,
          "durationTicks": 236,
          "midi": 75,
          "name": "D#5",
          "ticks": 508080,
          "time": 423.40000000000003,
          "velocity": 0.8267716535433071
        },
        {
          "duration": 0.06666666666671972,
          "durationTicks": 80,
          "midi": 72,
          "name": "C5",
          "ticks": 508320,
          "time": 423.6,
          "velocity": 0.8267716535433071
        },
        {
          "duration": 0.06666666666671972,
          "durationTicks": 80,
          "midi": 70,
          "name": "A#4",
          "ticks": 508560,
          "time": 423.8,
          "velocity": 0.8267716535433071
        },
        {
          "duration": 0.20000000000004547,
          "durationTicks": 240,
          "midi": 69,
          "name": "A4",
          "ticks": 508800,
          "time": 424,
          "velocity": 0.8267716535433071
        },
        {
          "duration": 0.1966666666666015,
          "durationTicks": 236,
          "midi": 72,
          "name": "C5",
          "ticks": 509040,
          "time": 424.20000000000005,
          "velocity": 0.8267716535433071
        },
        {
          "duration": 0.06666666666666288,
          "durationTicks": 80,
          "midi": 69,
          "name": "A4",
          "ticks": 509280,
          "time": 424.40000000000003,
          "velocity": 0.8267716535433071
        },
        {
          "duration": 0.06666666666671972,
          "durationTicks": 80,
          "midi": 67,
          "name": "G4",
          "ticks": 509520,
          "time": 424.6,
          "velocity": 0.8267716535433071
        },
        {
          "duration": 0.3333333333333144,
          "durationTicks": 400,
          "midi": 66,
          "name": "F#4",
          "ticks": 509760,
          "time": 424.8,
          "velocity": 0.8267716535433071
        },
        {
          "duration": 0.33333333333325754,
          "durationTicks": 400,
          "midi": 62,
          "name": "D4",
          "ticks": 510240,
          "time": 425.20000000000005,
          "velocity": 0.8267716535433071
        },
        {
          "duration": 0.33333333333325754,
          "durationTicks": 400,
          "midi": 72,
          "name": "C5",
          "ticks": 510240,
          "time": 425.20000000000005,
          "velocity": 0.8267716535433071
        },
        {
          "duration": 0.3333333333333144,
          "durationTicks": 400,
          "midi": 62,
          "name": "D4",
          "ticks": 510720,
          "time": 425.6,
          "velocity": 0.8267716535433071
        },
        {
          "duration": 0.3333333333333144,
          "durationTicks": 400,
          "midi": 70,
          "name": "A#4",
          "ticks": 510720,
          "time": 425.6,
          "velocity": 0.8267716535433071
        },
        {
          "duration": 0.3333333333333144,
          "durationTicks": 400,
          "midi": 62,
          "name": "D4",
          "ticks": 511200,
          "time": 426,
          "velocity": 0.8267716535433071
        },
        {
          "duration": 0.3333333333333144,
          "durationTicks": 400,
          "midi": 70,
          "name": "A#4",
          "ticks": 511200,
          "time": 426,
          "velocity": 0.8267716535433071
        },
        {
          "duration": 0.3333333333333144,
          "durationTicks": 400,
          "midi": 79,
          "name": "G5",
          "ticks": 511200,
          "time": 426,
          "velocity": 0.8267716535433071
        },
        {
          "duration": 0.3333333333333144,
          "durationTicks": 400,
          "midi": 55,
          "name": "G3",
          "ticks": 512160,
          "time": 426.8,
          "velocity": 0.8267716535433071
        },
        {
          "duration": 0.3333333333333144,
          "durationTicks": 400,
          "midi": 63,
          "name": "D#4",
          "ticks": 512160,
          "time": 426.8,
          "velocity": 0.8267716535433071
        },
        {
          "duration": 0.3333333333333144,
          "durationTicks": 400,
          "midi": 72,
          "name": "C5",
          "ticks": 512160,
          "time": 426.8,
          "velocity": 0.8267716535433071
        },
        {
          "duration": 0.3333333333333144,
          "durationTicks": 400,
          "midi": 75,
          "name": "D#5",
          "ticks": 513120,
          "time": 427.6,
          "velocity": 0.8267716535433071
        },
        {
          "duration": 0.3333333333333144,
          "durationTicks": 400,
          "midi": 84,
          "name": "C6",
          "ticks": 513120,
          "time": 427.6,
          "velocity": 0.8267716535433071
        },
        {
          "duration": 0.3333333333333144,
          "durationTicks": 400,
          "midi": 62,
          "name": "D4",
          "ticks": 514080,
          "time": 428.40000000000003,
          "velocity": 0.8267716535433071
        },
        {
          "duration": 0.3333333333333144,
          "durationTicks": 400,
          "midi": 72,
          "name": "C5",
          "ticks": 514080,
          "time": 428.40000000000003,
          "velocity": 0.8267716535433071
        },
        {
          "duration": 0.6000000000000227,
          "durationTicks": 720,
          "midi": 70,
          "name": "A#4",
          "ticks": 514560,
          "time": 428.8,
          "velocity": 0.8267716535433071
        },
        {
          "duration": 0.1966666666666015,
          "durationTicks": 236,
          "midi": 74,
          "name": "D5",
          "ticks": 515280,
          "time": 429.40000000000003,
          "velocity": 0.8267716535433071
        },
        {
          "duration": 0.533333333333303,
          "durationTicks": 640,
          "midi": 67,
          "name": "G4",
          "ticks": 515520,
          "time": 429.6,
          "velocity": 0.8267716535433071
        },
        {
          "duration": 0.1966666666666015,
          "durationTicks": 236,
          "midi": 82,
          "name": "A#5",
          "ticks": 516240,
          "time": 430.20000000000005,
          "velocity": 0.8267716535433071
        },
        {
          "duration": 0.19999999999998863,
          "durationTicks": 240,
          "midi": 79,
          "name": "G5",
          "ticks": 516480,
          "time": 430.40000000000003,
          "velocity": 0.8267716535433071
        },
        {
          "duration": 0.1966666666666015,
          "durationTicks": 236,
          "midi": 82,
          "name": "A#5",
          "ticks": 516720,
          "time": 430.6,
          "velocity": 0.8267716535433071
        },
        {
          "duration": 0.06666666666671972,
          "durationTicks": 80,
          "midi": 76,
          "name": "E5",
          "ticks": 516960,
          "time": 430.8,
          "velocity": 0.8267716535433071
        },
        {
          "duration": 0.06666666666671972,
          "durationTicks": 80,
          "midi": 79,
          "name": "G5",
          "ticks": 517200,
          "time": 431,
          "velocity": 0.8267716535433071
        },
        {
          "duration": 0.06666666666666288,
          "durationTicks": 80,
          "midi": 73,
          "name": "C#5",
          "ticks": 517440,
          "time": 431.20000000000005,
          "velocity": 0.8267716535433071
        },
        {
          "duration": 0.06666666666666288,
          "durationTicks": 80,
          "midi": 76,
          "name": "E5",
          "ticks": 517680,
          "time": 431.40000000000003,
          "velocity": 0.8267716535433071
        },
        {
          "duration": 0.06666666666671972,
          "durationTicks": 80,
          "midi": 69,
          "name": "A4",
          "ticks": 517920,
          "time": 431.6,
          "velocity": 0.8267716535433071
        },
        {
          "duration": 0.06666666666671972,
          "durationTicks": 80,
          "midi": 81,
          "name": "A5",
          "ticks": 518160,
          "time": 431.8,
          "velocity": 0.8267716535433071
        },
        {
          "duration": 0.10000000000002274,
          "durationTicks": 120,
          "midi": 77,
          "name": "F5",
          "ticks": 518400,
          "time": 432,
          "velocity": 0.8267716535433071
        },
        {
          "duration": 0.0999999999999659,
          "durationTicks": 120,
          "midi": 74,
          "name": "D5",
          "ticks": 518880,
          "time": 432.40000000000003,
          "velocity": 0.8267716535433071
        },
        {
          "duration": 0.10000000000002274,
          "durationTicks": 120,
          "midi": 71,
          "name": "B4",
          "ticks": 519360,
          "time": 432.8,
          "velocity": 0.8267716535433071
        },
        {
          "duration": 0.1966666666666015,
          "durationTicks": 236,
          "midi": 80,
          "name": "G#5",
          "ticks": 520080,
          "time": 433.40000000000003,
          "velocity": 0.8267716535433071
        },
        {
          "duration": 0.19999999999998863,
          "durationTicks": 240,
          "midi": 81,
          "name": "A5",
          "ticks": 520320,
          "time": 433.6,
          "velocity": 0.8267716535433071
        },
        {
          "duration": 0.19666666666665833,
          "durationTicks": 236,
          "midi": 84,
          "name": "C6",
          "ticks": 520560,
          "time": 433.8,
          "velocity": 0.8267716535433071
        },
        {
          "duration": 0.06666666666671972,
          "durationTicks": 80,
          "midi": 77,
          "name": "F5",
          "ticks": 520800,
          "time": 434,
          "velocity": 0.8267716535433071
        },
        {
          "duration": 0.06666666666666288,
          "durationTicks": 80,
          "midi": 81,
          "name": "A5",
          "ticks": 521040,
          "time": 434.20000000000005,
          "velocity": 0.8267716535433071
        },
        {
          "duration": 0.06666666666666288,
          "durationTicks": 80,
          "midi": 76,
          "name": "E5",
          "ticks": 521280,
          "time": 434.40000000000003,
          "velocity": 0.8267716535433071
        },
        {
          "duration": 0.06666666666671972,
          "durationTicks": 80,
          "midi": 81,
          "name": "A5",
          "ticks": 521520,
          "time": 434.6,
          "velocity": 0.8267716535433071
        },
        {
          "duration": 0.06666666666671972,
          "durationTicks": 80,
          "midi": 75,
          "name": "D#5",
          "ticks": 521760,
          "time": 434.8,
          "velocity": 0.8267716535433071
        },
        {
          "duration": 0.06666666666671972,
          "durationTicks": 80,
          "midi": 81,
          "name": "A5",
          "ticks": 522000,
          "time": 435,
          "velocity": 0.8267716535433071
        },
        {
          "duration": 0.19999999999998863,
          "durationTicks": 240,
          "midi": 80,
          "name": "G#5",
          "ticks": 522240,
          "time": 435.20000000000005,
          "velocity": 0.4015748031496063
        },
        {
          "duration": 0.1966666666666015,
          "durationTicks": 236,
          "midi": 83,
          "name": "B5",
          "ticks": 522480,
          "time": 435.40000000000003,
          "velocity": 0.4015748031496063
        },
        {
          "duration": 0.06666666666671972,
          "durationTicks": 80,
          "midi": 80,
          "name": "G#5",
          "ticks": 522720,
          "time": 435.6,
          "velocity": 0.4015748031496063
        },
        {
          "duration": 0.06666666666671972,
          "durationTicks": 80,
          "midi": 76,
          "name": "E5",
          "ticks": 522960,
          "time": 435.8,
          "velocity": 0.4015748031496063
        },
        {
          "duration": 0.06666666666671972,
          "durationTicks": 80,
          "midi": 75,
          "name": "D#5",
          "ticks": 523200,
          "time": 436,
          "velocity": 0.4015748031496063
        },
        {
          "duration": 0.06666666666666288,
          "durationTicks": 80,
          "midi": 76,
          "name": "E5",
          "ticks": 523440,
          "time": 436.20000000000005,
          "velocity": 0.4015748031496063
        },
        {
          "duration": 0.06666666666666288,
          "durationTicks": 80,
          "midi": 78,
          "name": "F#5",
          "ticks": 523680,
          "time": 436.40000000000003,
          "velocity": 0.4015748031496063
        },
        {
          "duration": 0.06666666666671972,
          "durationTicks": 80,
          "midi": 75,
          "name": "D#5",
          "ticks": 523920,
          "time": 436.6,
          "velocity": 0.4015748031496063
        },
        {
          "duration": 0.19999999999998863,
          "durationTicks": 240,
          "midi": 76,
          "name": "E5",
          "ticks": 524160,
          "time": 436.8,
          "velocity": 0.4015748031496063
        },
        {
          "duration": 0.19666666666665833,
          "durationTicks": 236,
          "midi": 83,
          "name": "B5",
          "ticks": 524400,
          "time": 437,
          "velocity": 0.4015748031496063
        },
        {
          "duration": 0.06666666666666288,
          "durationTicks": 80,
          "midi": 80,
          "name": "G#5",
          "ticks": 524640,
          "time": 437.20000000000005,
          "velocity": 0.4015748031496063
        },
        {
          "duration": 0.06666666666666288,
          "durationTicks": 80,
          "midi": 76,
          "name": "E5",
          "ticks": 524880,
          "time": 437.40000000000003,
          "velocity": 0.4015748031496063
        },
        {
          "duration": 0.06666666666671972,
          "durationTicks": 80,
          "midi": 75,
          "name": "D#5",
          "ticks": 525120,
          "time": 437.6,
          "velocity": 0.4015748031496063
        },
        {
          "duration": 0.06666666666671972,
          "durationTicks": 80,
          "midi": 76,
          "name": "E5",
          "ticks": 525360,
          "time": 437.8,
          "velocity": 0.4015748031496063
        },
        {
          "duration": 0.06666666666671972,
          "durationTicks": 80,
          "midi": 78,
          "name": "F#5",
          "ticks": 525600,
          "time": 438,
          "velocity": 0.4015748031496063
        },
        {
          "duration": 0.06666666666666288,
          "durationTicks": 80,
          "midi": 75,
          "name": "D#5",
          "ticks": 525840,
          "time": 438.20000000000005,
          "velocity": 0.4015748031496063
        },
        {
          "duration": 0.3333333333333144,
          "durationTicks": 400,
          "midi": 76,
          "name": "E5",
          "ticks": 526080,
          "time": 438.40000000000003,
          "velocity": 0.4015748031496063
        },
        {
          "duration": 0.19999999999998863,
          "durationTicks": 240,
          "midi": 76,
          "name": "E5",
          "ticks": 529920,
          "time": 441.6,
          "velocity": 0.4015748031496063
        },
        {
          "duration": 0.19666666666665833,
          "durationTicks": 236,
          "midi": 83,
          "name": "B5",
          "ticks": 530160,
          "time": 441.8,
          "velocity": 0.4015748031496063
        },
        {
          "duration": 0.06666666666671972,
          "durationTicks": 80,
          "midi": 80,
          "name": "G#5",
          "ticks": 530400,
          "time": 442,
          "velocity": 0.4015748031496063
        },
        {
          "duration": 0.06666666666666288,
          "durationTicks": 80,
          "midi": 75,
          "name": "D#5",
          "ticks": 530640,
          "time": 442.20000000000005,
          "velocity": 0.4015748031496063
        },
        {
          "duration": 0.06666666666666288,
          "durationTicks": 80,
          "midi": 76,
          "name": "E5",
          "ticks": 530880,
          "time": 442.40000000000003,
          "velocity": 0.4015748031496063
        },
        {
          "duration": 0.06666666666671972,
          "durationTicks": 80,
          "midi": 83,
          "name": "B5",
          "ticks": 531120,
          "time": 442.6,
          "velocity": 0.4015748031496063
        },
        {
          "duration": 0.06666666666671972,
          "durationTicks": 80,
          "midi": 80,
          "name": "G#5",
          "ticks": 531360,
          "time": 442.8,
          "velocity": 0.4015748031496063
        },
        {
          "duration": 0.06666666666671972,
          "durationTicks": 80,
          "midi": 75,
          "name": "D#5",
          "ticks": 531600,
          "time": 443,
          "velocity": 0.4015748031496063
        },
        {
          "duration": 0.19999999999998863,
          "durationTicks": 240,
          "midi": 76,
          "name": "E5",
          "ticks": 531840,
          "time": 443.20000000000005,
          "velocity": 0.4015748031496063
        },
        {
          "duration": 0.1966666666666015,
          "durationTicks": 236,
          "midi": 83,
          "name": "B5",
          "ticks": 532080,
          "time": 443.40000000000003,
          "velocity": 0.4015748031496063
        },
        {
          "duration": 0.06666666666671972,
          "durationTicks": 80,
          "midi": 80,
          "name": "G#5",
          "ticks": 532320,
          "time": 443.6,
          "velocity": 0.4015748031496063
        },
        {
          "duration": 0.06666666666671972,
          "durationTicks": 80,
          "midi": 75,
          "name": "D#5",
          "ticks": 532560,
          "time": 443.8,
          "velocity": 0.4015748031496063
        },
        {
          "duration": 0.06666666666671972,
          "durationTicks": 80,
          "midi": 76,
          "name": "E5",
          "ticks": 532800,
          "time": 444,
          "velocity": 0.4015748031496063
        },
        {
          "duration": 0.06666666666666288,
          "durationTicks": 80,
          "midi": 83,
          "name": "B5",
          "ticks": 533040,
          "time": 444.20000000000005,
          "velocity": 0.4015748031496063
        },
        {
          "duration": 0.06666666666666288,
          "durationTicks": 80,
          "midi": 80,
          "name": "G#5",
          "ticks": 533280,
          "time": 444.40000000000003,
          "velocity": 0.4015748031496063
        },
        {
          "duration": 0.06666666666671972,
          "durationTicks": 80,
          "midi": 75,
          "name": "D#5",
          "ticks": 533520,
          "time": 444.6,
          "velocity": 0.4015748031496063
        },
        {
          "duration": 0.19999999999998863,
          "durationTicks": 240,
          "midi": 76,
          "name": "E5",
          "ticks": 533760,
          "time": 444.8,
          "velocity": 0.4015748031496063
        },
        {
          "duration": 0.19666666666665833,
          "durationTicks": 236,
          "midi": 82,
          "name": "A#5",
          "ticks": 534000,
          "time": 445,
          "velocity": 0.4015748031496063
        },
        {
          "duration": 0.06666666666666288,
          "durationTicks": 80,
          "midi": 79,
          "name": "G5",
          "ticks": 534240,
          "time": 445.20000000000005,
          "velocity": 0.4015748031496063
        },
        {
          "duration": 0.06666666666666288,
          "durationTicks": 80,
          "midi": 75,
          "name": "D#5",
          "ticks": 534480,
          "time": 445.40000000000003,
          "velocity": 0.4015748031496063
        },
        {
          "duration": 0.06666666666671972,
          "durationTicks": 80,
          "midi": 76,
          "name": "E5",
          "ticks": 534720,
          "time": 445.6,
          "velocity": 0.4015748031496063
        },
        {
          "duration": 0.06666666666671972,
          "durationTicks": 80,
          "midi": 82,
          "name": "A#5",
          "ticks": 534960,
          "time": 445.8,
          "velocity": 0.4015748031496063
        },
        {
          "duration": 0.06666666666671972,
          "durationTicks": 80,
          "midi": 79,
          "name": "G5",
          "ticks": 535200,
          "time": 446,
          "velocity": 0.4015748031496063
        },
        {
          "duration": 0.06666666666666288,
          "durationTicks": 80,
          "midi": 75,
          "name": "D#5",
          "ticks": 535440,
          "time": 446.20000000000005,
          "velocity": 0.4015748031496063
        },
        {
          "duration": 0.19999999999998863,
          "durationTicks": 240,
          "midi": 76,
          "name": "E5",
          "ticks": 535680,
          "time": 446.40000000000003,
          "velocity": 0.4015748031496063
        },
        {
          "duration": 0.1966666666666015,
          "durationTicks": 236,
          "midi": 82,
          "name": "A#5",
          "ticks": 535920,
          "time": 446.6,
          "velocity": 0.4015748031496063
        },
        {
          "duration": 0.06666666666671972,
          "durationTicks": 80,
          "midi": 79,
          "name": "G5",
          "ticks": 536160,
          "time": 446.8,
          "velocity": 0.4015748031496063
        },
        {
          "duration": 0.06666666666671972,
          "durationTicks": 80,
          "midi": 76,
          "name": "E5",
          "ticks": 536400,
          "time": 447,
          "velocity": 0.4015748031496063
        },
        {
          "duration": 0.06666666666666288,
          "durationTicks": 80,
          "midi": 72,
          "name": "C5",
          "ticks": 536640,
          "time": 447.20000000000005,
          "velocity": 0.4015748031496063
        },
        {
          "duration": 0.06666666666666288,
          "durationTicks": 80,
          "midi": 70,
          "name": "A#4",
          "ticks": 536880,
          "time": 447.40000000000003,
          "velocity": 0.4015748031496063
        },
        {
          "duration": 0.06666666666671972,
          "durationTicks": 80,
          "midi": 67,
          "name": "G4",
          "ticks": 537120,
          "time": 447.6,
          "velocity": 0.4015748031496063
        },
        {
          "duration": 0.06666666666671972,
          "durationTicks": 80,
          "midi": 64,
          "name": "E4",
          "ticks": 537360,
          "time": 447.8,
          "velocity": 0.4015748031496063
        },
        {
          "duration": 0.3333333333333144,
          "durationTicks": 400,
          "midi": 65,
          "name": "F4",
          "ticks": 537600,
          "time": 448,
          "velocity": 0.4015748031496063
        },
        {
          "duration": 0.06666666666671972,
          "durationTicks": 80,
          "midi": 60,
          "name": "C4",
          "ticks": 538320,
          "time": 448.6,
          "velocity": 0.4015748031496063
        },
        {
          "duration": 0.06666666666660603,
          "durationTicks": 80,
          "midi": 62,
          "name": "D4",
          "ticks": 538400,
          "time": 448.66666666666674,
          "velocity": 0.4015748031496063
        },
        {
          "duration": 0.06666666666666288,
          "durationTicks": 80,
          "midi": 64,
          "name": "E4",
          "ticks": 538480,
          "time": 448.73333333333335,
          "velocity": 0.4015748031496063
        },
        {
          "duration": 0.3333333333333144,
          "durationTicks": 400,
          "midi": 65,
          "name": "F4",
          "ticks": 538560,
          "time": 448.8,
          "velocity": 0.4015748031496063
        },
        {
          "duration": 0.06666666666666288,
          "durationTicks": 80,
          "midi": 60,
          "name": "C4",
          "ticks": 539280,
          "time": 449.40000000000003,
          "velocity": 0.4015748031496063
        },
        {
          "duration": 0.06666666666660603,
          "durationTicks": 80,
          "midi": 62,
          "name": "D4",
          "ticks": 539360,
          "time": 449.4666666666667,
          "velocity": 0.4015748031496063
        },
        {
          "duration": 0.06666666666671972,
          "durationTicks": 80,
          "midi": 64,
          "name": "E4",
          "ticks": 539440,
          "time": 449.5333333333333,
          "velocity": 0.4015748031496063
        },
        {
          "duration": 0.3333333333333144,
          "durationTicks": 400,
          "midi": 65,
          "name": "F4",
          "ticks": 539520,
          "time": 449.6,
          "velocity": 0.4015748031496063
        },
        {
          "duration": 0.19666666666665833,
          "durationTicks": 236,
          "midi": 77,
          "name": "F5",
          "ticks": 541200,
          "time": 451,
          "velocity": 0.4015748031496063
        },
        {
          "duration": 0.5999999999999659,
          "durationTicks": 720,
          "midi": 77,
          "name": "F5",
          "ticks": 541440,
          "time": 451.20000000000005,
          "velocity": 0.4015748031496063
        },
        {
          "duration": 0.19999999999998863,
          "durationTicks": 240,
          "midi": 76,
          "name": "E5",
          "ticks": 542160,
          "time": 451.8,
          "velocity": 0.4015748031496063
        },
        {
          "duration": 0.6000000000000227,
          "durationTicks": 720,
          "midi": 79,
          "name": "G5",
          "ticks": 542400,
          "time": 452,
          "velocity": 0.4015748031496063
        },
        {
          "duration": 0.1966666666666015,
          "durationTicks": 236,
          "midi": 77,
          "name": "F5",
          "ticks": 543120,
          "time": 452.6,
          "velocity": 0.4015748031496063
        },
        {
          "duration": 0.8000000000000114,
          "durationTicks": 960,
          "midi": 84,
          "name": "C6",
          "ticks": 543360,
          "time": 452.8,
          "velocity": 0.4015748031496063
        },
        {
          "duration": 0.3333333333333144,
          "durationTicks": 400,
          "midi": 82,
          "name": "A#5",
          "ticks": 544320,
          "time": 453.6,
          "velocity": 0.4015748031496063
        },
        {
          "duration": 0.3333333333333144,
          "durationTicks": 400,
          "midi": 60,
          "name": "C4",
          "ticks": 545280,
          "time": 454.40000000000003,
          "velocity": 0.4015748031496063
        },
        {
          "duration": 0.06666666666671972,
          "durationTicks": 80,
          "midi": 55,
          "name": "G3",
          "ticks": 546000,
          "time": 455,
          "velocity": 0.4015748031496063
        },
        {
          "duration": 0.06666666666660603,
          "durationTicks": 80,
          "midi": 57,
          "name": "A3",
          "ticks": 546080,
          "time": 455.0666666666667,
          "velocity": 0.4015748031496063
        },
        {
          "duration": 0.06666666666671972,
          "durationTicks": 80,
          "midi": 59,
          "name": "B3",
          "ticks": 546160,
          "time": 455.1333333333333,
          "velocity": 0.4015748031496063
        },
        {
          "duration": 0.33333333333325754,
          "durationTicks": 400,
          "midi": 60,
          "name": "C4",
          "ticks": 546240,
          "time": 455.20000000000005,
          "velocity": 0.4015748031496063
        },
        {
          "duration": 0.06666666666671972,
          "durationTicks": 80,
          "midi": 55,
          "name": "G3",
          "ticks": 546960,
          "time": 455.8,
          "velocity": 0.4015748031496063
        },
        {
          "duration": 0.06666666666660603,
          "durationTicks": 80,
          "midi": 57,
          "name": "A3",
          "ticks": 547040,
          "time": 455.86666666666673,
          "velocity": 0.4015748031496063
        },
        {
          "duration": 0.06666666666666288,
          "durationTicks": 80,
          "midi": 59,
          "name": "B3",
          "ticks": 547120,
          "time": 455.93333333333334,
          "velocity": 0.4015748031496063
        },
        {
          "duration": 0.3333333333333144,
          "durationTicks": 400,
          "midi": 60,
          "name": "C4",
          "ticks": 547200,
          "time": 456,
          "velocity": 0.4015748031496063
        },
        {
          "duration": 0.3333333333333144,
          "durationTicks": 400,
          "midi": 62,
          "name": "D4",
          "ticks": 549120,
          "time": 457.6,
          "velocity": 0.4015748031496063
        },
        {
          "duration": 0.06666666666666288,
          "durationTicks": 80,
          "midi": 57,
          "name": "A3",
          "ticks": 549840,
          "time": 458.20000000000005,
          "velocity": 0.4015748031496063
        },
        {
          "duration": 0.06666666666660603,
          "durationTicks": 80,
          "midi": 59,
          "name": "B3",
          "ticks": 549920,
          "time": 458.2666666666667,
          "velocity": 0.4015748031496063
        },
        {
          "duration": 0.06666666666671972,
          "durationTicks": 80,
          "midi": 61,
          "name": "C#4",
          "ticks": 550000,
          "time": 458.3333333333333,
          "velocity": 0.4015748031496063
        },
        {
          "duration": 0.3333333333333144,
          "durationTicks": 400,
          "midi": 62,
          "name": "D4",
          "ticks": 550080,
          "time": 458.40000000000003,
          "velocity": 0.4015748031496063
        },
        {
          "duration": 0.06666666666671972,
          "durationTicks": 80,
          "midi": 57,
          "name": "A3",
          "ticks": 550800,
          "time": 459,
          "velocity": 0.4015748031496063
        },
        {
          "duration": 0.06666666666660603,
          "durationTicks": 80,
          "midi": 59,
          "name": "B3",
          "ticks": 550880,
          "time": 459.0666666666667,
          "velocity": 0.4015748031496063
        },
        {
          "duration": 0.06666666666671972,
          "durationTicks": 80,
          "midi": 61,
          "name": "C#4",
          "ticks": 550960,
          "time": 459.1333333333333,
          "velocity": 0.4015748031496063
        },
        {
          "duration": 0.33333333333325754,
          "durationTicks": 400,
          "midi": 62,
          "name": "D4",
          "ticks": 551040,
          "time": 459.20000000000005,
          "velocity": 0.4015748031496063
        },
        {
          "duration": 0.3333333333333144,
          "durationTicks": 400,
          "midi": 64,
          "name": "E4",
          "ticks": 552960,
          "time": 460.8,
          "velocity": 0.4015748031496063
        },
        {
          "duration": 0.06666666666666288,
          "durationTicks": 80,
          "midi": 59,
          "name": "B3",
          "ticks": 553680,
          "time": 461.40000000000003,
          "velocity": 0.4015748031496063
        },
        {
          "duration": 0.06666666666660603,
          "durationTicks": 80,
          "midi": 61,
          "name": "C#4",
          "ticks": 553760,
          "time": 461.4666666666667,
          "velocity": 0.4015748031496063
        },
        {
          "duration": 0.06666666666671972,
          "durationTicks": 80,
          "midi": 63,
          "name": "D#4",
          "ticks": 553840,
          "time": 461.5333333333333,
          "velocity": 0.4015748031496063
        },
        {
          "duration": 0.3333333333333144,
          "durationTicks": 400,
          "midi": 64,
          "name": "E4",
          "ticks": 553920,
          "time": 461.6,
          "velocity": 0.4015748031496063
        },
        {
          "duration": 0.06666666666666288,
          "durationTicks": 80,
          "midi": 59,
          "name": "B3",
          "ticks": 554640,
          "time": 462.20000000000005,
          "velocity": 0.4015748031496063
        },
        {
          "duration": 0.06666666666660603,
          "durationTicks": 80,
          "midi": 61,
          "name": "C#4",
          "ticks": 554720,
          "time": 462.2666666666667,
          "velocity": 0.4015748031496063
        },
        {
          "duration": 0.06666666666671972,
          "durationTicks": 80,
          "midi": 63,
          "name": "D#4",
          "ticks": 554800,
          "time": 462.3333333333333,
          "velocity": 0.4015748031496063
        },
        {
          "duration": 0.3333333333333144,
          "durationTicks": 400,
          "midi": 64,
          "name": "E4",
          "ticks": 554880,
          "time": 462.40000000000003,
          "velocity": 0.4015748031496063
        },
        {
          "duration": 0.3333333333333144,
          "durationTicks": 400,
          "midi": 57,
          "name": "A3",
          "ticks": 556800,
          "time": 464,
          "velocity": 0.4015748031496063
        },
        {
          "duration": 0.06666666666671972,
          "durationTicks": 80,
          "midi": 80,
          "name": "G#5",
          "ticks": 557520,
          "time": 464.6,
          "velocity": 0.4015748031496063
        },
        {
          "duration": 0.06666666666660603,
          "durationTicks": 80,
          "midi": 81,
          "name": "A5",
          "ticks": 557600,
          "time": 464.66666666666674,
          "velocity": 0.4015748031496063
        },
        {
          "duration": 0.06666666666666288,
          "durationTicks": 80,
          "midi": 83,
          "name": "B5",
          "ticks": 557680,
          "time": 464.73333333333335,
          "velocity": 0.4015748031496063
        },
        {
          "duration": 0.3333333333333144,
          "durationTicks": 400,
          "midi": 84,
          "name": "C6",
          "ticks": 557760,
          "time": 464.8,
          "velocity": 0.4015748031496063
        },
        {
          "duration": 0.05000000000001137,
          "durationTicks": 60,
          "midi": 81,
          "name": "A5",
          "ticks": 558480,
          "time": 465.40000000000003,
          "velocity": 0.4015748031496063
        },
        {
          "duration": 0.049999999999954525,
          "durationTicks": 60,
          "midi": 79,
          "name": "G5",
          "ticks": 558540,
          "time": 465.45000000000005,
          "velocity": 0.4015748031496063
        },
        {
          "duration": 0.05000000000001137,
          "durationTicks": 60,
          "midi": 78,
          "name": "F#5",
          "ticks": 558600,
          "time": 465.5,
          "velocity": 0.4015748031496063
        },
        {
          "duration": 0.046666666666624224,
          "durationTicks": 56,
          "midi": 76,
          "name": "E5",
          "ticks": 558660,
          "time": 465.55,
          "velocity": 0.4015748031496063
        },
        {
          "duration": 0.3333333333333144,
          "durationTicks": 400,
          "midi": 75,
          "name": "D#5",
          "ticks": 558720,
          "time": 465.6,
          "velocity": 0.4015748031496063
        },
        {
          "duration": 0.06666666666666288,
          "durationTicks": 80,
          "midi": 78,
          "name": "F#5",
          "ticks": 559440,
          "time": 466.20000000000005,
          "velocity": 0.4015748031496063
        },
        {
          "duration": 0.06666666666660603,
          "durationTicks": 80,
          "midi": 79,
          "name": "G5",
          "ticks": 559520,
          "time": 466.2666666666667,
          "velocity": 0.4015748031496063
        },
        {
          "duration": 0.06666666666671972,
          "durationTicks": 80,
          "midi": 81,
          "name": "A5",
          "ticks": 559600,
          "time": 466.3333333333333,
          "velocity": 0.4015748031496063
        },
        {
          "duration": 0.3333333333333144,
          "durationTicks": 400,
          "midi": 83,
          "name": "B5",
          "ticks": 559680,
          "time": 466.40000000000003,
          "velocity": 0.4015748031496063
        },
        {
          "duration": 0.06666666666671972,
          "durationTicks": 80,
          "midi": 83,
          "name": "B5",
          "ticks": 560400,
          "time": 467,
          "velocity": 0.4015748031496063
        },
        {
          "duration": 0.06666666666660603,
          "durationTicks": 80,
          "midi": 85,
          "name": "C#6",
          "ticks": 560480,
          "time": 467.0666666666667,
          "velocity": 0.4015748031496063
        },
        {
          "duration": 0.06666666666671972,
          "durationTicks": 80,
          "midi": 87,
          "name": "D#6",
          "ticks": 560560,
          "time": 467.1333333333333,
          "velocity": 0.4015748031496063
        },
        {
          "duration": 0.33333333333325754,
          "durationTicks": 400,
          "midi": 88,
          "name": "E6",
          "ticks": 560640,
          "time": 467.20000000000005,
          "velocity": 0.4015748031496063
        },
        {
          "duration": 0.06666666666671972,
          "durationTicks": 80,
          "midi": 78,
          "name": "F#5",
          "ticks": 561360,
          "time": 467.8,
          "velocity": 0.4015748031496063
        },
        {
          "duration": 0.06666666666660603,
          "durationTicks": 80,
          "midi": 79,
          "name": "G5",
          "ticks": 561440,
          "time": 467.86666666666673,
          "velocity": 0.4015748031496063
        },
        {
          "duration": 0.06666666666666288,
          "durationTicks": 80,
          "midi": 81,
          "name": "A5",
          "ticks": 561520,
          "time": 467.93333333333334,
          "velocity": 0.4015748031496063
        },
        {
          "duration": 0.3333333333333144,
          "durationTicks": 400,
          "midi": 82,
          "name": "A#5",
          "ticks": 561600,
          "time": 468,
          "velocity": 0.4015748031496063
        },
        {
          "duration": 0.05000000000001137,
          "durationTicks": 60,
          "midi": 79,
          "name": "G5",
          "ticks": 562320,
          "time": 468.6,
          "velocity": 0.4015748031496063
        },
        {
          "duration": 0.05000000000001137,
          "durationTicks": 60,
          "midi": 77,
          "name": "F5",
          "ticks": 562380,
          "time": 468.65000000000003,
          "velocity": 0.4015748031496063
        },
        {
          "duration": 0.049999999999954525,
          "durationTicks": 60,
          "midi": 76,
          "name": "E5",
          "ticks": 562440,
          "time": 468.70000000000005,
          "velocity": 0.4015748031496063
        },
        {
          "duration": 0.05000000000001137,
          "durationTicks": 60,
          "midi": 74,
          "name": "D5",
          "ticks": 562500,
          "time": 468.75,
          "velocity": 0.4015748031496063
        },
        {
          "duration": 0.3333333333333144,
          "durationTicks": 400,
          "midi": 73,
          "name": "C#5",
          "ticks": 562560,
          "time": 468.8,
          "velocity": 0.4015748031496063
        },
        {
          "duration": 0.06666666666666288,
          "durationTicks": 80,
          "midi": 76,
          "name": "E5",
          "ticks": 563280,
          "time": 469.40000000000003,
          "velocity": 0.4015748031496063
        },
        {
          "duration": 0.06666666666660603,
          "durationTicks": 80,
          "midi": 77,
          "name": "F5",
          "ticks": 563360,
          "time": 469.4666666666667,
          "velocity": 0.4015748031496063
        },
        {
          "duration": 0.06666666666671972,
          "durationTicks": 80,
          "midi": 79,
          "name": "G5",
          "ticks": 563440,
          "time": 469.5333333333333,
          "velocity": 0.4015748031496063
        },
        {
          "duration": 0.3333333333333144,
          "durationTicks": 400,
          "midi": 81,
          "name": "A5",
          "ticks": 563520,
          "time": 469.6,
          "velocity": 0.4015748031496063
        },
        {
          "duration": 0.06666666666666288,
          "durationTicks": 80,
          "midi": 81,
          "name": "A5",
          "ticks": 564240,
          "time": 470.20000000000005,
          "velocity": 0.4015748031496063
        },
        {
          "duration": 0.06666666666660603,
          "durationTicks": 80,
          "midi": 83,
          "name": "B5",
          "ticks": 564320,
          "time": 470.2666666666667,
          "velocity": 0.4015748031496063
        },
        {
          "duration": 0.06666666666671972,
          "durationTicks": 80,
          "midi": 85,
          "name": "C#6",
          "ticks": 564400,
          "time": 470.3333333333333,
          "velocity": 0.4015748031496063
        },
        {
          "duration": 0.3333333333333144,
          "durationTicks": 400,
          "midi": 86,
          "name": "D6",
          "ticks": 564480,
          "time": 470.40000000000003,
          "velocity": 0.4015748031496063
        },
        {
          "duration": 0.06666666666671972,
          "durationTicks": 80,
          "midi": 76,
          "name": "E5",
          "ticks": 565200,
          "time": 471,
          "velocity": 0.4015748031496063
        },
        {
          "duration": 0.06666666666660603,
          "durationTicks": 80,
          "midi": 77,
          "name": "F5",
          "ticks": 565280,
          "time": 471.0666666666667,
          "velocity": 0.4015748031496063
        },
        {
          "duration": 0.06666666666671972,
          "durationTicks": 80,
          "midi": 79,
          "name": "G5",
          "ticks": 565360,
          "time": 471.1333333333333,
          "velocity": 0.4015748031496063
        },
        {
          "duration": 0.33333333333325754,
          "durationTicks": 400,
          "midi": 80,
          "name": "G#5",
          "ticks": 565440,
          "time": 471.20000000000005,
          "velocity": 0.4015748031496063
        },
        {
          "duration": 0.05000000000001137,
          "durationTicks": 60,
          "midi": 77,
          "name": "F5",
          "ticks": 566160,
          "time": 471.8,
          "velocity": 0.4015748031496063
        },
        {
          "duration": 0.05000000000001137,
          "durationTicks": 60,
          "midi": 75,
          "name": "D#5",
          "ticks": 566220,
          "time": 471.85,
          "velocity": 0.4015748031496063
        },
        {
          "duration": 0.05000000000001137,
          "durationTicks": 60,
          "midi": 74,
          "name": "D5",
          "ticks": 566280,
          "time": 471.90000000000003,
          "velocity": 0.4015748031496063
        },
        {
          "duration": 0.049999999999954525,
          "durationTicks": 60,
          "midi": 72,
          "name": "C5",
          "ticks": 566340,
          "time": 471.95000000000005,
          "velocity": 0.4015748031496063
        },
        {
          "duration": 0.3333333333333144,
          "durationTicks": 400,
          "midi": 71,
          "name": "B4",
          "ticks": 566400,
          "time": 472,
          "velocity": 0.4015748031496063
        },
        {
          "duration": 0.06666666666671972,
          "durationTicks": 80,
          "midi": 74,
          "name": "D5",
          "ticks": 567120,
          "time": 472.6,
          "velocity": 0.4015748031496063
        },
        {
          "duration": 0.06666666666660603,
          "durationTicks": 80,
          "midi": 76,
          "name": "E5",
          "ticks": 567200,
          "time": 472.66666666666674,
          "velocity": 0.4015748031496063
        },
        {
          "duration": 0.06666666666666288,
          "durationTicks": 80,
          "midi": 78,
          "name": "F#5",
          "ticks": 567280,
          "time": 472.73333333333335,
          "velocity": 0.4015748031496063
        },
        {
          "duration": 0.3333333333333144,
          "durationTicks": 400,
          "midi": 79,
          "name": "G5",
          "ticks": 567360,
          "time": 472.8,
          "velocity": 0.4015748031496063
        },
        {
          "duration": 0.06666666666666288,
          "durationTicks": 80,
          "midi": 79,
          "name": "G5",
          "ticks": 568080,
          "time": 473.40000000000003,
          "velocity": 0.4015748031496063
        },
        {
          "duration": 0.06666666666660603,
          "durationTicks": 80,
          "midi": 81,
          "name": "A5",
          "ticks": 568160,
          "time": 473.4666666666667,
          "velocity": 0.4015748031496063
        },
        {
          "duration": 0.06666666666671972,
          "durationTicks": 80,
          "midi": 83,
          "name": "B5",
          "ticks": 568240,
          "time": 473.5333333333333,
          "velocity": 0.4015748031496063
        },
        {
          "duration": 0.3333333333333144,
          "durationTicks": 400,
          "midi": 84,
          "name": "C6",
          "ticks": 568320,
          "time": 473.6,
          "velocity": 0.4015748031496063
        },
        {
          "duration": 0.06666666666666288,
          "durationTicks": 80,
          "midi": 79,
          "name": "G5",
          "ticks": 569040,
          "time": 474.20000000000005,
          "velocity": 0.4015748031496063
        },
        {
          "duration": 0.06666666666660603,
          "durationTicks": 80,
          "midi": 81,
          "name": "A5",
          "ticks": 569120,
          "time": 474.2666666666667,
          "velocity": 0.4015748031496063
        },
        {
          "duration": 0.06666666666671972,
          "durationTicks": 80,
          "midi": 83,
          "name": "B5",
          "ticks": 569200,
          "time": 474.3333333333333,
          "velocity": 0.4015748031496063
        },
        {
          "duration": 0.3333333333333144,
          "durationTicks": 400,
          "midi": 84,
          "name": "C6",
          "ticks": 569280,
          "time": 474.40000000000003,
          "velocity": 0.4015748031496063
        },
        {
          "duration": 0.05000000000001137,
          "durationTicks": 60,
          "midi": 84,
          "name": "C6",
          "ticks": 570000,
          "time": 475,
          "velocity": 0.4015748031496063
        },
        {
          "duration": 0.05000000000001137,
          "durationTicks": 60,
          "midi": 82,
          "name": "A#5",
          "ticks": 570060,
          "time": 475.05,
          "velocity": 0.4015748031496063
        },
        {
          "duration": 0.05000000000001137,
          "durationTicks": 60,
          "midi": 80,
          "name": "G#5",
          "ticks": 570120,
          "time": 475.1,
          "velocity": 0.4015748031496063
        },
        {
          "duration": 0.05000000000001137,
          "durationTicks": 60,
          "midi": 79,
          "name": "G5",
          "ticks": 570180,
          "time": 475.15000000000003,
          "velocity": 0.4015748031496063
        },
        {
          "duration": 0.33333333333325754,
          "durationTicks": 400,
          "midi": 78,
          "name": "F#5",
          "ticks": 570240,
          "time": 475.20000000000005,
          "velocity": 0.4015748031496063
        },
        {
          "duration": 0.06666666666671972,
          "durationTicks": 80,
          "midi": 83,
          "name": "B5",
          "ticks": 570960,
          "time": 475.8,
          "velocity": 0.4015748031496063
        },
        {
          "duration": 0.06666666666660603,
          "durationTicks": 80,
          "midi": 84,
          "name": "C6",
          "ticks": 571040,
          "time": 475.86666666666673,
          "velocity": 0.4015748031496063
        },
        {
          "duration": 0.06666666666666288,
          "durationTicks": 80,
          "midi": 86,
          "name": "D6",
          "ticks": 571120,
          "time": 475.93333333333334,
          "velocity": 0.4015748031496063
        },
        {
          "duration": 0.3333333333333144,
          "durationTicks": 400,
          "midi": 87,
          "name": "D#6",
          "ticks": 571200,
          "time": 476,
          "velocity": 0.4015748031496063
        },
        {
          "duration": 0.06666666666671972,
          "durationTicks": 80,
          "midi": 75,
          "name": "D#5",
          "ticks": 571920,
          "time": 476.6,
          "velocity": 0.4015748031496063
        },
        {
          "duration": 0.06666666666660603,
          "durationTicks": 80,
          "midi": 74,
          "name": "D5",
          "ticks": 572000,
          "time": 476.66666666666674,
          "velocity": 0.4015748031496063
        },
        {
          "duration": 0.06666666666666288,
          "durationTicks": 80,
          "midi": 72,
          "name": "C5",
          "ticks": 572080,
          "time": 476.73333333333335,
          "velocity": 0.4015748031496063
        },
        {
          "duration": 0.3333333333333144,
          "durationTicks": 400,
          "midi": 71,
          "name": "B4",
          "ticks": 572160,
          "time": 476.8,
          "velocity": 0.4015748031496063
        },
        {
          "duration": 0.33333333333325754,
          "durationTicks": 400,
          "midi": 86,
          "name": "D6",
          "ticks": 572640,
          "time": 477.20000000000005,
          "velocity": 0.4015748031496063
        },
        {
          "duration": 0.3333333333333144,
          "durationTicks": 400,
          "midi": 62,
          "name": "D4",
          "ticks": 573600,
          "time": 478,
          "velocity": 0.4015748031496063
        },
        {
          "duration": 0.3333333333333144,
          "durationTicks": 400,
          "midi": 69,
          "name": "A4",
          "ticks": 573600,
          "time": 478,
          "velocity": 0.4015748031496063
        },
        {
          "duration": 0.3333333333333144,
          "durationTicks": 400,
          "midi": 78,
          "name": "F#5",
          "ticks": 573600,
          "time": 478,
          "velocity": 0.4015748031496063
        },
        {
          "duration": 0.3333333333333144,
          "durationTicks": 400,
          "midi": 62,
          "name": "D4",
          "ticks": 574080,
          "time": 478.40000000000003,
          "velocity": 0.4015748031496063
        },
        {
          "duration": 0.3333333333333144,
          "durationTicks": 400,
          "midi": 71,
          "name": "B4",
          "ticks": 574080,
          "time": 478.40000000000003,
          "velocity": 0.4015748031496063
        },
        {
          "duration": 0.3333333333333144,
          "durationTicks": 400,
          "midi": 79,
          "name": "G5",
          "ticks": 574080,
          "time": 478.40000000000003,
          "velocity": 0.4015748031496063
        },
        {
          "duration": 0.3333333333333144,
          "durationTicks": 400,
          "midi": 86,
          "name": "D6",
          "ticks": 574560,
          "time": 478.8,
          "velocity": 0.4015748031496063
        },
        {
          "duration": 0.3333333333333144,
          "durationTicks": 400,
          "midi": 62,
          "name": "D4",
          "ticks": 575520,
          "time": 479.6,
          "velocity": 0.4015748031496063
        },
        {
          "duration": 0.3333333333333144,
          "durationTicks": 400,
          "midi": 69,
          "name": "A4",
          "ticks": 575520,
          "time": 479.6,
          "velocity": 0.4015748031496063
        },
        {
          "duration": 0.3333333333333144,
          "durationTicks": 400,
          "midi": 78,
          "name": "F#5",
          "ticks": 575520,
          "time": 479.6,
          "velocity": 0.4015748031496063
        },
        {
          "duration": 0.20000000000004547,
          "durationTicks": 240,
          "midi": 79,
          "name": "G5",
          "ticks": 576000,
          "time": 480,
          "velocity": 0.4015748031496063
        },
        {
          "duration": 0.1966666666666015,
          "durationTicks": 236,
          "midi": 86,
          "name": "D6",
          "ticks": 576240,
          "time": 480.20000000000005,
          "velocity": 0.4015748031496063
        },
        {
          "duration": 0.06666666666666288,
          "durationTicks": 80,
          "midi": 83,
          "name": "B5",
          "ticks": 576480,
          "time": 480.40000000000003,
          "velocity": 0.4015748031496063
        },
        {
          "duration": 0.06666666666671972,
          "durationTicks": 80,
          "midi": 79,
          "name": "G5",
          "ticks": 576720,
          "time": 480.6,
          "velocity": 0.4015748031496063
        },
        {
          "duration": 0.06666666666671972,
          "durationTicks": 80,
          "midi": 78,
          "name": "F#5",
          "ticks": 576960,
          "time": 480.8,
          "velocity": 0.4015748031496063
        },
        {
          "duration": 0.06666666666671972,
          "durationTicks": 80,
          "midi": 79,
          "name": "G5",
          "ticks": 577200,
          "time": 481,
          "velocity": 0.4015748031496063
        },
        {
          "duration": 0.06666666666666288,
          "durationTicks": 80,
          "midi": 81,
          "name": "A5",
          "ticks": 577440,
          "time": 481.20000000000005,
          "velocity": 0.4015748031496063
        },
        {
          "duration": 0.06666666666666288,
          "durationTicks": 80,
          "midi": 83,
          "name": "B5",
          "ticks": 577680,
          "time": 481.40000000000003,
          "velocity": 0.4015748031496063
        },
        {
          "duration": 0.19999999999998863,
          "durationTicks": 240,
          "midi": 79,
          "name": "G5",
          "ticks": 577920,
          "time": 481.6,
          "velocity": 0.4015748031496063
        },
        {
          "duration": 0.19666666666665833,
          "durationTicks": 236,
          "midi": 86,
          "name": "D6",
          "ticks": 578160,
          "time": 481.8,
          "velocity": 0.4015748031496063
        },
        {
          "duration": 0.06666666666671972,
          "durationTicks": 80,
          "midi": 83,
          "name": "B5",
          "ticks": 578400,
          "time": 482,
          "velocity": 0.4015748031496063
        },
        {
          "duration": 0.06666666666666288,
          "durationTicks": 80,
          "midi": 79,
          "name": "G5",
          "ticks": 578640,
          "time": 482.20000000000005,
          "velocity": 0.4015748031496063
        },
        {
          "duration": 0.06666666666666288,
          "durationTicks": 80,
          "midi": 78,
          "name": "F#5",
          "ticks": 578880,
          "time": 482.40000000000003,
          "velocity": 0.4015748031496063
        },
        {
          "duration": 0.06666666666671972,
          "durationTicks": 80,
          "midi": 79,
          "name": "G5",
          "ticks": 579120,
          "time": 482.6,
          "velocity": 0.4015748031496063
        },
        {
          "duration": 0.06666666666671972,
          "durationTicks": 80,
          "midi": 81,
          "name": "A5",
          "ticks": 579360,
          "time": 482.8,
          "velocity": 0.4015748031496063
        },
        {
          "duration": 0.06666666666671972,
          "durationTicks": 80,
          "midi": 83,
          "name": "B5",
          "ticks": 579600,
          "time": 483,
          "velocity": 0.4015748031496063
        },
        {
          "duration": 0.33333333333325754,
          "durationTicks": 400,
          "midi": 79,
          "name": "G5",
          "ticks": 579840,
          "time": 483.20000000000005,
          "velocity": 0.4015748031496063
        },
        {
          "duration": 0.06666666666671972,
          "durationTicks": 80,
          "midi": 72,
          "name": "C5",
          "ticks": 589200,
          "time": 491,
          "velocity": 0.4015748031496063
        },
        {
          "duration": 0.06666666666666288,
          "durationTicks": 80,
          "midi": 71,
          "name": "B4",
          "ticks": 589440,
          "time": 491.20000000000005,
          "velocity": 0.4015748031496063
        },
        {
          "duration": 0.06666666666666288,
          "durationTicks": 80,
          "midi": 69,
          "name": "A4",
          "ticks": 589680,
          "time": 491.40000000000003,
          "velocity": 0.4015748031496063
        },
        {
          "duration": 0.06666666666671972,
          "durationTicks": 80,
          "midi": 67,
          "name": "G4",
          "ticks": 589920,
          "time": 491.6,
          "velocity": 0.4015748031496063
        },
        {
          "duration": 0.06666666666671972,
          "durationTicks": 80,
          "midi": 65,
          "name": "F4",
          "ticks": 590160,
          "time": 491.8,
          "velocity": 0.4015748031496063
        },
        {
          "duration": 0.06666666666671972,
          "durationTicks": 80,
          "midi": 64,
          "name": "E4",
          "ticks": 590400,
          "time": 492,
          "velocity": 0.4015748031496063
        },
        {
          "duration": 0.06666666666666288,
          "durationTicks": 80,
          "midi": 62,
          "name": "D4",
          "ticks": 590640,
          "time": 492.20000000000005,
          "velocity": 0.4015748031496063
        },
        {
          "duration": 0.06666666666666288,
          "durationTicks": 80,
          "midi": 60,
          "name": "C4",
          "ticks": 590880,
          "time": 492.40000000000003,
          "velocity": 0.4015748031496063
        },
        {
          "duration": 0.06666666666671972,
          "durationTicks": 80,
          "midi": 59,
          "name": "B3",
          "ticks": 591120,
          "time": 492.6,
          "velocity": 0.4015748031496063
        },
        {
          "duration": 0.3333333333333144,
          "durationTicks": 400,
          "midi": 60,
          "name": "C4",
          "ticks": 591360,
          "time": 492.8,
          "velocity": 0.8267716535433071
        },
        {
          "duration": 0.06666666666666288,
          "durationTicks": 80,
          "midi": 55,
          "name": "G3",
          "ticks": 592080,
          "time": 493.40000000000003,
          "velocity": 0.8267716535433071
        },
        {
          "duration": 0.06666666666660603,
          "durationTicks": 80,
          "midi": 57,
          "name": "A3",
          "ticks": 592160,
          "time": 493.4666666666667,
          "velocity": 0.8267716535433071
        },
        {
          "duration": 0.06666666666671972,
          "durationTicks": 80,
          "midi": 59,
          "name": "B3",
          "ticks": 592240,
          "time": 493.5333333333333,
          "velocity": 0.8267716535433071
        },
        {
          "duration": 0.3333333333333144,
          "durationTicks": 400,
          "midi": 60,
          "name": "C4",
          "ticks": 592320,
          "time": 493.6,
          "velocity": 0.8267716535433071
        },
        {
          "duration": 0.06666666666666288,
          "durationTicks": 80,
          "midi": 55,
          "name": "G3",
          "ticks": 593040,
          "time": 494.20000000000005,
          "velocity": 0.8267716535433071
        },
        {
          "duration": 0.06666666666660603,
          "durationTicks": 80,
          "midi": 57,
          "name": "A3",
          "ticks": 593120,
          "time": 494.2666666666667,
          "velocity": 0.8267716535433071
        },
        {
          "duration": 0.06666666666671972,
          "durationTicks": 80,
          "midi": 59,
          "name": "B3",
          "ticks": 593200,
          "time": 494.3333333333333,
          "velocity": 0.8267716535433071
        },
        {
          "duration": 0.3333333333333144,
          "durationTicks": 400,
          "midi": 60,
          "name": "C4",
          "ticks": 593280,
          "time": 494.40000000000003,
          "velocity": 0.8267716535433071
        },
        {
          "duration": 0.19666666666665833,
          "durationTicks": 236,
          "midi": 72,
          "name": "C5",
          "ticks": 594960,
          "time": 495.8,
          "velocity": 0.4015748031496063
        },
        {
          "duration": 0.6000000000000227,
          "durationTicks": 720,
          "midi": 72,
          "name": "C5",
          "ticks": 595200,
          "time": 496,
          "velocity": 0.4015748031496063
        },
        {
          "duration": 0.19999999999998863,
          "durationTicks": 240,
          "midi": 71,
          "name": "B4",
          "ticks": 595920,
          "time": 496.6,
          "velocity": 0.4015748031496063
        },
        {
          "duration": 0.6000000000000227,
          "durationTicks": 720,
          "midi": 74,
          "name": "D5",
          "ticks": 596160,
          "time": 496.8,
          "velocity": 0.4015748031496063
        },
        {
          "duration": 0.1966666666666015,
          "durationTicks": 236,
          "midi": 72,
          "name": "C5",
          "ticks": 596880,
          "time": 497.40000000000003,
          "velocity": 0.4015748031496063
        },
        {
          "duration": 0.8000000000000114,
          "durationTicks": 960,
          "midi": 79,
          "name": "G5",
          "ticks": 597120,
          "time": 497.6,
          "velocity": 0.4015748031496063
        },
        {
          "duration": 0.3333333333333144,
          "durationTicks": 400,
          "midi": 77,
          "name": "F5",
          "ticks": 598080,
          "time": 498.40000000000003,
          "velocity": 0.4015748031496063
        },
        {
          "duration": 0.33333333333325754,
          "durationTicks": 400,
          "midi": 55,
          "name": "G3",
          "ticks": 599040,
          "time": 499.20000000000005,
          "velocity": 0.8267716535433071
        },
        {
          "duration": 0.33333333333325754,
          "durationTicks": 400,
          "midi": 67,
          "name": "G4",
          "ticks": 599040,
          "time": 499.20000000000005,
          "velocity": 0.8267716535433071
        },
        {
          "duration": 0.06666666666671972,
          "durationTicks": 80,
          "midi": 62,
          "name": "D4",
          "ticks": 599760,
          "time": 499.8,
          "velocity": 0.8267716535433071
        },
        {
          "duration": 0.06666666666660603,
          "durationTicks": 80,
          "midi": 64,
          "name": "E4",
          "ticks": 599840,
          "time": 499.86666666666673,
          "velocity": 0.8267716535433071
        },
        {
          "duration": 0.06666666666666288,
          "durationTicks": 80,
          "midi": 66,
          "name": "F#4",
          "ticks": 599920,
          "time": 499.93333333333334,
          "velocity": 0.8267716535433071
        },
        {
          "duration": 0.3333333333333144,
          "durationTicks": 400,
          "midi": 67,
          "name": "G4",
          "ticks": 600000,
          "time": 500,
          "velocity": 0.8267716535433071
        },
        {
          "duration": 0.06666666666671972,
          "durationTicks": 80,
          "midi": 62,
          "name": "D4",
          "ticks": 600720,
          "time": 500.6,
          "velocity": 0.8267716535433071
        },
        {
          "duration": 0.06666666666660603,
          "durationTicks": 80,
          "midi": 64,
          "name": "E4",
          "ticks": 600800,
          "time": 500.66666666666674,
          "velocity": 0.8267716535433071
        },
        {
          "duration": 0.06666666666666288,
          "durationTicks": 80,
          "midi": 66,
          "name": "F#4",
          "ticks": 600880,
          "time": 500.73333333333335,
          "velocity": 0.8267716535433071
        },
        {
          "duration": 0.3333333333333144,
          "durationTicks": 400,
          "midi": 67,
          "name": "G4",
          "ticks": 600960,
          "time": 500.8,
          "velocity": 0.8267716535433071
        },
        {
          "duration": 0.1966666666666015,
          "durationTicks": 236,
          "midi": 74,
          "name": "D5",
          "ticks": 602640,
          "time": 502.20000000000005,
          "velocity": 0.4015748031496063
        },
        {
          "duration": 0.5999999999999659,
          "durationTicks": 720,
          "midi": 74,
          "name": "D5",
          "ticks": 602880,
          "time": 502.40000000000003,
          "velocity": 0.4015748031496063
        },
        {
          "duration": 0.20000000000004547,
          "durationTicks": 240,
          "midi": 72,
          "name": "C5",
          "ticks": 603600,
          "time": 503,
          "velocity": 0.4015748031496063
        },
        {
          "duration": 0.5999999999999659,
          "durationTicks": 720,
          "midi": 79,
          "name": "G5",
          "ticks": 603840,
          "time": 503.20000000000005,
          "velocity": 0.4015748031496063
        },
        {
          "duration": 0.19666666666665833,
          "durationTicks": 236,
          "midi": 77,
          "name": "F5",
          "ticks": 604560,
          "time": 503.8,
          "velocity": 0.4015748031496063
        },
        {
          "duration": 0.8000000000000114,
          "durationTicks": 960,
          "midi": 81,
          "name": "A5",
          "ticks": 604800,
          "time": 504,
          "velocity": 0.4015748031496063
        },
        {
          "duration": 0.3333333333333144,
          "durationTicks": 400,
          "midi": 79,
          "name": "G5",
          "ticks": 605760,
          "time": 504.8,
          "velocity": 0.4015748031496063
        },
        {
          "duration": 0.3333333333333144,
          "durationTicks": 400,
          "midi": 67,
          "name": "G4",
          "ticks": 606720,
          "time": 505.6,
          "velocity": 0.8267716535433071
        },
        {
          "duration": 0.3333333333333144,
          "durationTicks": 400,
          "midi": 76,
          "name": "E5",
          "ticks": 606720,
          "time": 505.6,
          "velocity": 0.8267716535433071
        },
        {
          "duration": 0.3333333333333144,
          "durationTicks": 400,
          "midi": 84,
          "name": "C6",
          "ticks": 606720,
          "time": 505.6,
          "velocity": 0.8267716535433071
        },
        {
          "duration": 0.3333333333333144,
          "durationTicks": 400,
          "midi": 67,
          "name": "G4",
          "ticks": 608160,
          "time": 506.8,
          "velocity": 0.8267716535433071
        },
        {
          "duration": 0.3333333333333144,
          "durationTicks": 400,
          "midi": 76,
          "name": "E5",
          "ticks": 608160,
          "time": 506.8,
          "velocity": 0.8267716535433071
        },
        {
          "duration": 0.3333333333333144,
          "durationTicks": 400,
          "midi": 84,
          "name": "C6",
          "ticks": 608160,
          "time": 506.8,
          "velocity": 0.8267716535433071
        },
        {
          "duration": 0.33333333333325754,
          "durationTicks": 400,
          "midi": 65,
          "name": "F4",
          "ticks": 608640,
          "time": 507.20000000000005,
          "velocity": 0.8267716535433071
        },
        {
          "duration": 0.33333333333325754,
          "durationTicks": 400,
          "midi": 72,
          "name": "C5",
          "ticks": 608640,
          "time": 507.20000000000005,
          "velocity": 0.8267716535433071
        },
        {
          "duration": 0.33333333333325754,
          "durationTicks": 400,
          "midi": 81,
          "name": "A5",
          "ticks": 608640,
          "time": 507.20000000000005,
          "velocity": 0.8267716535433071
        },
        {
          "duration": 0.3333333333333144,
          "durationTicks": 400,
          "midi": 69,
          "name": "A4",
          "ticks": 610080,
          "time": 508.40000000000003,
          "velocity": 0.8267716535433071
        },
        {
          "duration": 0.3333333333333144,
          "durationTicks": 400,
          "midi": 77,
          "name": "F5",
          "ticks": 610080,
          "time": 508.40000000000003,
          "velocity": 0.8267716535433071
        },
        {
          "duration": 0.3333333333333144,
          "durationTicks": 400,
          "midi": 59,
          "name": "B3",
          "ticks": 610560,
          "time": 508.8,
          "velocity": 0.8267716535433071
        },
        {
          "duration": 0.3333333333333144,
          "durationTicks": 400,
          "midi": 67,
          "name": "G4",
          "ticks": 610560,
          "time": 508.8,
          "velocity": 0.8267716535433071
        },
        {
          "duration": 0.3333333333333144,
          "durationTicks": 400,
          "midi": 74,
          "name": "D5",
          "ticks": 610560,
          "time": 508.8,
          "velocity": 0.8267716535433071
        },
        {
          "duration": 0.3333333333333144,
          "durationTicks": 400,
          "midi": 62,
          "name": "D4",
          "ticks": 612000,
          "time": 510,
          "velocity": 0.8267716535433071
        },
        {
          "duration": 0.3333333333333144,
          "durationTicks": 400,
          "midi": 71,
          "name": "B4",
          "ticks": 612000,
          "time": 510,
          "velocity": 0.8267716535433071
        },
        {
          "duration": 0.3333333333333144,
          "durationTicks": 400,
          "midi": 79,
          "name": "G5",
          "ticks": 612000,
          "time": 510,
          "velocity": 0.8267716535433071
        },
        {
          "duration": 0.3333333333333144,
          "durationTicks": 400,
          "midi": 64,
          "name": "E4",
          "ticks": 612480,
          "time": 510.40000000000003,
          "velocity": 0.8267716535433071
        },
        {
          "duration": 0.3333333333333144,
          "durationTicks": 400,
          "midi": 72,
          "name": "C5",
          "ticks": 612480,
          "time": 510.40000000000003,
          "velocity": 0.8267716535433071
        },
        {
          "duration": 0.3333333333333144,
          "durationTicks": 400,
          "midi": 76,
          "name": "E5",
          "ticks": 612480,
          "time": 510.40000000000003,
          "velocity": 0.8267716535433071
        },
        {
          "duration": 0.3333333333333144,
          "durationTicks": 400,
          "midi": 67,
          "name": "G4",
          "ticks": 613920,
          "time": 511.6,
          "velocity": 0.8267716535433071
        },
        {
          "duration": 0.3333333333333144,
          "durationTicks": 400,
          "midi": 76,
          "name": "E5",
          "ticks": 613920,
          "time": 511.6,
          "velocity": 0.8267716535433071
        },
        {
          "duration": 0.3333333333333144,
          "durationTicks": 400,
          "midi": 84,
          "name": "C6",
          "ticks": 613920,
          "time": 511.6,
          "velocity": 0.8267716535433071
        },
        {
          "duration": 0.33333333333337123,
          "durationTicks": 400,
          "midi": 65,
          "name": "F4",
          "ticks": 614400,
          "time": 512,
          "velocity": 0.8267716535433071
        },
        {
          "duration": 0.33333333333337123,
          "durationTicks": 400,
          "midi": 72,
          "name": "C5",
          "ticks": 614400,
          "time": 512,
          "velocity": 0.8267716535433071
        },
        {
          "duration": 0.33333333333337123,
          "durationTicks": 400,
          "midi": 81,
          "name": "A5",
          "ticks": 614400,
          "time": 512,
          "velocity": 0.8267716535433071
        },
        {
          "duration": 0.33333333333325754,
          "durationTicks": 400,
          "midi": 69,
          "name": "A4",
          "ticks": 615840,
          "time": 513.2,
          "velocity": 0.8267716535433071
        },
        {
          "duration": 0.33333333333325754,
          "durationTicks": 400,
          "midi": 77,
          "name": "F5",
          "ticks": 615840,
          "time": 513.2,
          "velocity": 0.8267716535433071
        },
        {
          "duration": 0.33333333333325754,
          "durationTicks": 400,
          "midi": 59,
          "name": "B3",
          "ticks": 616320,
          "time": 513.6,
          "velocity": 0.8267716535433071
        },
        {
          "duration": 0.33333333333325754,
          "durationTicks": 400,
          "midi": 67,
          "name": "G4",
          "ticks": 616320,
          "time": 513.6,
          "velocity": 0.8267716535433071
        },
        {
          "duration": 0.33333333333325754,
          "durationTicks": 400,
          "midi": 74,
          "name": "D5",
          "ticks": 616320,
          "time": 513.6,
          "velocity": 0.8267716535433071
        },
        {
          "duration": 0.33333333333325754,
          "durationTicks": 400,
          "midi": 62,
          "name": "D4",
          "ticks": 617760,
          "time": 514.8000000000001,
          "velocity": 0.8267716535433071
        },
        {
          "duration": 0.33333333333325754,
          "durationTicks": 400,
          "midi": 71,
          "name": "B4",
          "ticks": 617760,
          "time": 514.8000000000001,
          "velocity": 0.8267716535433071
        },
        {
          "duration": 0.33333333333325754,
          "durationTicks": 400,
          "midi": 79,
          "name": "G5",
          "ticks": 617760,
          "time": 514.8000000000001,
          "velocity": 0.8267716535433071
        },
        {
          "duration": 0.33333333333325754,
          "durationTicks": 400,
          "midi": 72,
          "name": "C5",
          "ticks": 618240,
          "time": 515.2,
          "velocity": 0.8267716535433071
        },
        {
          "duration": 0.33333333333325754,
          "durationTicks": 400,
          "midi": 76,
          "name": "E5",
          "ticks": 618240,
          "time": 515.2,
          "velocity": 0.8267716535433071
        },
        {
          "duration": 0.33333333333325754,
          "durationTicks": 400,
          "midi": 67,
          "name": "G4",
          "ticks": 618720,
          "time": 515.6,
          "velocity": 0.8267716535433071
        },
        {
          "duration": 0.33333333333325754,
          "durationTicks": 400,
          "midi": 76,
          "name": "E5",
          "ticks": 618720,
          "time": 515.6,
          "velocity": 0.8267716535433071
        },
        {
          "duration": 0.33333333333325754,
          "durationTicks": 400,
          "midi": 84,
          "name": "C6",
          "ticks": 618720,
          "time": 515.6,
          "velocity": 0.8267716535433071
        },
        {
          "duration": 0.33333333333337123,
          "durationTicks": 400,
          "midi": 67,
          "name": "G4",
          "ticks": 619680,
          "time": 516.4,
          "velocity": 0.8267716535433071
        },
        {
          "duration": 0.33333333333337123,
          "durationTicks": 400,
          "midi": 74,
          "name": "D5",
          "ticks": 619680,
          "time": 516.4,
          "velocity": 0.8267716535433071
        },
        {
          "duration": 0.33333333333337123,
          "durationTicks": 400,
          "midi": 83,
          "name": "B5",
          "ticks": 619680,
          "time": 516.4,
          "velocity": 0.8267716535433071
        },
        {
          "duration": 0.33333333333325754,
          "durationTicks": 400,
          "midi": 67,
          "name": "G4",
          "ticks": 620640,
          "time": 517.2,
          "velocity": 0.8267716535433071
        },
        {
          "duration": 0.33333333333325754,
          "durationTicks": 400,
          "midi": 76,
          "name": "E5",
          "ticks": 620640,
          "time": 517.2,
          "velocity": 0.8267716535433071
        },
        {
          "duration": 0.33333333333325754,
          "durationTicks": 400,
          "midi": 84,
          "name": "C6",
          "ticks": 620640,
          "time": 517.2,
          "velocity": 0.8267716535433071
        },
        {
          "duration": 0.33333333333337123,
          "durationTicks": 400,
          "midi": 67,
          "name": "G4",
          "ticks": 621600,
          "time": 518,
          "velocity": 0.8267716535433071
        },
        {
          "duration": 0.33333333333337123,
          "durationTicks": 400,
          "midi": 74,
          "name": "D5",
          "ticks": 621600,
          "time": 518,
          "velocity": 0.8267716535433071
        },
        {
          "duration": 0.33333333333337123,
          "durationTicks": 400,
          "midi": 83,
          "name": "B5",
          "ticks": 621600,
          "time": 518,
          "velocity": 0.8267716535433071
        },
        {
          "duration": 0.33333333333337123,
          "durationTicks": 400,
          "midi": 67,
          "name": "G4",
          "ticks": 622080,
          "time": 518.4,
          "velocity": 0.8267716535433071
        },
        {
          "duration": 0.33333333333337123,
          "durationTicks": 400,
          "midi": 76,
          "name": "E5",
          "ticks": 622080,
          "time": 518.4,
          "velocity": 0.8267716535433071
        },
        {
          "duration": 0.33333333333337123,
          "durationTicks": 400,
          "midi": 84,
          "name": "C6",
          "ticks": 622080,
          "time": 518.4,
          "velocity": 0.8267716535433071
        },
        {
          "duration": 0.33333333333325754,
          "durationTicks": 400,
          "midi": 79,
          "name": "G5",
          "ticks": 622560,
          "time": 518.8000000000001,
          "velocity": 0.8267716535433071
        },
        {
          "duration": 0.33333333333325754,
          "durationTicks": 400,
          "midi": 84,
          "name": "C6",
          "ticks": 623040,
          "time": 519.2,
          "velocity": 0.8267716535433071
        },
        {
          "duration": 0.33333333333325754,
          "durationTicks": 400,
          "midi": 79,
          "name": "G5",
          "ticks": 623520,
          "time": 519.6,
          "velocity": 0.8267716535433071
        },
        {
          "duration": 0.33333333333337123,
          "durationTicks": 400,
          "midi": 84,
          "name": "C6",
          "ticks": 624000,
          "time": 520,
          "velocity": 0.8267716535433071
        },
        {
          "duration": 0.33333333333337123,
          "durationTicks": 400,
          "midi": 79,
          "name": "G5",
          "ticks": 624480,
          "time": 520.4,
          "velocity": 0.8267716535433071
        },
        {
          "duration": 0.33333333333325754,
          "durationTicks": 400,
          "midi": 76,
          "name": "E5",
          "ticks": 624960,
          "time": 520.8000000000001,
          "velocity": 0.8267716535433071
        },
        {
          "duration": 0.33333333333325754,
          "durationTicks": 400,
          "midi": 72,
          "name": "C5",
          "ticks": 625440,
          "time": 521.2,
          "velocity": 0.8267716535433071
        },
        {
          "duration": 0.33333333333325754,
          "durationTicks": 400,
          "midi": 67,
          "name": "G4",
          "ticks": 625920,
          "time": 521.6,
          "velocity": 0.8267716535433071
        },
        {
          "duration": 0.1966666666666015,
          "durationTicks": 236,
          "midi": 83,
          "name": "B5",
          "ticks": 626640,
          "time": 522.2,
          "velocity": 0.8267716535433071
        },
        {
          "duration": 0.33333333333337123,
          "durationTicks": 400,
          "midi": 84,
          "name": "C6",
          "ticks": 626880,
          "time": 522.4,
          "velocity": 0.8267716535433071
        },
        {
          "duration": 0.1966666666666015,
          "durationTicks": 236,
          "midi": 84,
          "name": "C6",
          "ticks": 627600,
          "time": 523,
          "velocity": 0.8267716535433071
        },
        {
          "duration": 0.33333333333325754,
          "durationTicks": 400,
          "midi": 83,
          "name": "B5",
          "ticks": 627840,
          "time": 523.2,
          "velocity": 0.8267716535433071
        },
        {
          "duration": 0.1966666666666015,
          "durationTicks": 236,
          "midi": 83,
          "name": "B5",
          "ticks": 628560,
          "time": 523.8000000000001,
          "velocity": 0.8267716535433071
        },
        {
          "duration": 0.33333333333337123,
          "durationTicks": 400,
          "midi": 84,
          "name": "C6",
          "ticks": 628800,
          "time": 524,
          "velocity": 0.8267716535433071
        },
        {
          "duration": 0.1966666666666015,
          "durationTicks": 236,
          "midi": 84,
          "name": "C6",
          "ticks": 629520,
          "time": 524.6,
          "velocity": 0.8267716535433071
        },
        {
          "duration": 0.1966666666666015,
          "durationTicks": 236,
          "midi": 83,
          "name": "B5",
          "ticks": 629760,
          "time": 524.8000000000001,
          "velocity": 0.8267716535433071
        },
        {
          "duration": 0.1966666666666015,
          "durationTicks": 236,
          "midi": 84,
          "name": "C6",
          "ticks": 630000,
          "time": 525,
          "velocity": 0.8346456692913385
        },
        {
          "duration": 0.1966666666666015,
          "durationTicks": 236,
          "midi": 83,
          "name": "B5",
          "ticks": 630240,
          "time": 525.2,
          "velocity": 0.8503937007874016
        },
        {
          "duration": 0.19666666666671517,
          "durationTicks": 236,
          "midi": 84,
          "name": "C6",
          "ticks": 630480,
          "time": 525.4,
          "velocity": 0.8582677165354331
        },
        {
          "duration": 0.1966666666666015,
          "durationTicks": 236,
          "midi": 83,
          "name": "B5",
          "ticks": 630720,
          "time": 525.6,
          "velocity": 0.8661417322834646
        },
        {
          "duration": 0.1966666666666015,
          "durationTicks": 236,
          "midi": 84,
          "name": "C6",
          "ticks": 630960,
          "time": 525.8000000000001,
          "velocity": 0.8740157480314961
        },
        {
          "duration": 0.1966666666666015,
          "durationTicks": 236,
          "midi": 83,
          "name": "B5",
          "ticks": 631200,
          "time": 526,
          "velocity": 0.8818897637795275
        },
        {
          "duration": 0.1966666666666015,
          "durationTicks": 236,
          "midi": 84,
          "name": "C6",
          "ticks": 631440,
          "time": 526.2,
          "velocity": 0.889763779527559
        },
        {
          "duration": 0.33333333333337123,
          "durationTicks": 400,
          "midi": 83,
          "name": "B5",
          "ticks": 631680,
          "time": 526.4,
          "velocity": 0.905511811023622
        },
        {
          "duration": 0.33333333333325754,
          "durationTicks": 400,
          "midi": 62,
          "name": "D4",
          "ticks": 632160,
          "time": 526.8000000000001,
          "velocity": 0.9212598425196851
        },
        {
          "duration": 0.33333333333325754,
          "durationTicks": 400,
          "midi": 71,
          "name": "B4",
          "ticks": 632160,
          "time": 526.8000000000001,
          "velocity": 0.9212598425196851
        },
        {
          "duration": 0.33333333333325754,
          "durationTicks": 400,
          "midi": 79,
          "name": "G5",
          "ticks": 632160,
          "time": 526.8000000000001,
          "velocity": 0.9212598425196851
        },
        {
          "duration": 0.33333333333325754,
          "durationTicks": 400,
          "midi": 55,
          "name": "G3",
          "ticks": 632640,
          "time": 527.2,
          "velocity": 0.937007874015748
        },
        {
          "duration": 0.33333333333325754,
          "durationTicks": 400,
          "midi": 67,
          "name": "G4",
          "ticks": 632640,
          "time": 527.2,
          "velocity": 0.937007874015748
        },
        {
          "duration": 0.33333333333325754,
          "durationTicks": 400,
          "midi": 55,
          "name": "G3",
          "ticks": 633120,
          "time": 527.6,
          "velocity": 0.952755905511811
        },
        {
          "duration": 0.33333333333325754,
          "durationTicks": 400,
          "midi": 67,
          "name": "G4",
          "ticks": 633120,
          "time": 527.6,
          "velocity": 0.952755905511811
        },
        {
          "duration": 1.5,
          "durationTicks": 1800,
          "midi": 55,
          "name": "G3",
          "ticks": 633600,
          "time": 528,
          "velocity": 0.9763779527559056
        },
        {
          "duration": 1.5,
          "durationTicks": 1800,
          "midi": 67,
          "name": "G4",
          "ticks": 633600,
          "time": 528,
          "velocity": 0.9763779527559056
        },
        {
          "duration": 0.33333333333325754,
          "durationTicks": 400,
          "midi": 60,
          "name": "C4",
          "ticks": 635520,
          "time": 529.6,
          "velocity": 0.4015748031496063
        },
        {
          "duration": 0.06666666666671972,
          "durationTicks": 80,
          "midi": 55,
          "name": "G3",
          "ticks": 636240,
          "time": 530.2,
          "velocity": 0.4015748031496063
        },
        {
          "duration": 0.06666666666660603,
          "durationTicks": 80,
          "midi": 57,
          "name": "A3",
          "ticks": 636320,
          "time": 530.2666666666668,
          "velocity": 0.4015748031496063
        },
        {
          "duration": 0.06666666666660603,
          "durationTicks": 80,
          "midi": 59,
          "name": "B3",
          "ticks": 636400,
          "time": 530.3333333333334,
          "velocity": 0.4015748031496063
        },
        {
          "duration": 0.33333333333337123,
          "durationTicks": 400,
          "midi": 60,
          "name": "C4",
          "ticks": 636480,
          "time": 530.4,
          "velocity": 0.4015748031496063
        },
        {
          "duration": 0.06666666666671972,
          "durationTicks": 80,
          "midi": 55,
          "name": "G3",
          "ticks": 637200,
          "time": 531,
          "velocity": 0.4015748031496063
        },
        {
          "duration": 0.06666666666660603,
          "durationTicks": 80,
          "midi": 57,
          "name": "A3",
          "ticks": 637280,
          "time": 531.0666666666667,
          "velocity": 0.4015748031496063
        },
        {
          "duration": 0.06666666666671972,
          "durationTicks": 80,
          "midi": 59,
          "name": "B3",
          "ticks": 637360,
          "time": 531.1333333333333,
          "velocity": 0.4015748031496063
        },
        {
          "duration": 0.33333333333325754,
          "durationTicks": 400,
          "midi": 60,
          "name": "C4",
          "ticks": 637440,
          "time": 531.2,
          "velocity": 0.4015748031496063
        },
        {
          "duration": 0.06666666666671972,
          "durationTicks": 80,
          "midi": 75,
          "name": "D#5",
          "ticks": 639120,
          "time": 532.6,
          "velocity": 0.4015748031496063
        },
        {
          "duration": 0.599999999999909,
          "durationTicks": 720,
          "midi": 75,
          "name": "D#5",
          "ticks": 639360,
          "time": 532.8000000000001,
          "velocity": 0.4015748031496063
        },
        {
          "duration": 0.20000000000004547,
          "durationTicks": 240,
          "midi": 74,
          "name": "D5",
          "ticks": 640080,
          "time": 533.4,
          "velocity": 0.4015748031496063
        },
        {
          "duration": 0.6000000000000227,
          "durationTicks": 720,
          "midi": 77,
          "name": "F5",
          "ticks": 640320,
          "time": 533.6,
          "velocity": 0.4015748031496063
        },
        {
          "duration": 0.1966666666666015,
          "durationTicks": 236,
          "midi": 75,
          "name": "D#5",
          "ticks": 641040,
          "time": 534.2,
          "velocity": 0.4015748031496063
        },
        {
          "duration": 0.8000000000000682,
          "durationTicks": 960,
          "midi": 82,
          "name": "A#5",
          "ticks": 641280,
          "time": 534.4,
          "velocity": 0.4015748031496063
        },
        {
          "duration": 0.33333333333325754,
          "durationTicks": 400,
          "midi": 80,
          "name": "G#5",
          "ticks": 642240,
          "time": 535.2,
          "velocity": 0.4015748031496063
        },
        {
          "duration": 0.33333333333337123,
          "durationTicks": 400,
          "midi": 70,
          "name": "A#4",
          "ticks": 643200,
          "time": 536,
          "velocity": 0.4015748031496063
        },
        {
          "duration": 0.06666666666671972,
          "durationTicks": 80,
          "midi": 65,
          "name": "F4",
          "ticks": 643920,
          "time": 536.6,
          "velocity": 0.4015748031496063
        },
        {
          "duration": 0.06666666666660603,
          "durationTicks": 80,
          "midi": 67,
          "name": "G4",
          "ticks": 644000,
          "time": 536.6666666666667,
          "velocity": 0.4015748031496063
        },
        {
          "duration": 0.06666666666671972,
          "durationTicks": 80,
          "midi": 69,
          "name": "A4",
          "ticks": 644080,
          "time": 536.7333333333333,
          "velocity": 0.4015748031496063
        },
        {
          "duration": 0.33333333333325754,
          "durationTicks": 400,
          "midi": 70,
          "name": "A#4",
          "ticks": 644160,
          "time": 536.8000000000001,
          "velocity": 0.4015748031496063
        },
        {
          "duration": 0.06666666666671972,
          "durationTicks": 80,
          "midi": 65,
          "name": "F4",
          "ticks": 644880,
          "time": 537.4,
          "velocity": 0.4015748031496063
        },
        {
          "duration": 0.06666666666660603,
          "durationTicks": 80,
          "midi": 67,
          "name": "G4",
          "ticks": 644960,
          "time": 537.4666666666667,
          "velocity": 0.4015748031496063
        },
        {
          "duration": 0.06666666666671972,
          "durationTicks": 80,
          "midi": 69,
          "name": "A4",
          "ticks": 645040,
          "time": 537.5333333333333,
          "velocity": 0.4015748031496063
        },
        {
          "duration": 0.33333333333325754,
          "durationTicks": 400,
          "midi": 70,
          "name": "A#4",
          "ticks": 645120,
          "time": 537.6,
          "velocity": 0.4015748031496063
        },
        {
          "duration": 0.06666666666671972,
          "durationTicks": 80,
          "midi": 77,
          "name": "F5",
          "ticks": 646800,
          "time": 539,
          "velocity": 0.4015748031496063
        },
        {
          "duration": 0.6000000000000227,
          "durationTicks": 720,
          "midi": 77,
          "name": "F5",
          "ticks": 647040,
          "time": 539.2,
          "velocity": 0.4015748031496063
        },
        {
          "duration": 0.1999999999999318,
          "durationTicks": 240,
          "midi": 76,
          "name": "E5",
          "ticks": 647760,
          "time": 539.8000000000001,
          "velocity": 0.4015748031496063
        },
        {
          "duration": 0.6000000000000227,
          "durationTicks": 720,
          "midi": 79,
          "name": "G5",
          "ticks": 648000,
          "time": 540,
          "velocity": 0.4015748031496063
        },
        {
          "duration": 0.1966666666666015,
          "durationTicks": 236,
          "midi": 77,
          "name": "F5",
          "ticks": 648720,
          "time": 540.6,
          "velocity": 0.4015748031496063
        },
        {
          "duration": 0.7999999999999545,
          "durationTicks": 960,
          "midi": 84,
          "name": "C6",
          "ticks": 648960,
          "time": 540.8000000000001,
          "velocity": 0.4015748031496063
        },
        {
          "duration": 0.1966666666666015,
          "durationTicks": 236,
          "midi": 82,
          "name": "A#5",
          "ticks": 649920,
          "time": 541.6,
          "velocity": 0.4015748031496063
        },
        {
          "duration": 0.13333333333332575,
          "durationTicks": 160,
          "midi": 79,
          "name": "G5",
          "ticks": 650400,
          "time": 542,
          "velocity": 0.4015748031496063
        },
        {
          "duration": 0.8000000000000682,
          "durationTicks": 960,
          "midi": 82,
          "name": "A#5",
          "ticks": 650880,
          "time": 542.4,
          "velocity": 0.4015748031496063
        },
        {
          "duration": 0.1966666666666015,
          "durationTicks": 236,
          "midi": 80,
          "name": "G#5",
          "ticks": 651840,
          "time": 543.2,
          "velocity": 0.4015748031496063
        },
        {
          "duration": 0.13333333333332575,
          "durationTicks": 160,
          "midi": 77,
          "name": "F5",
          "ticks": 652320,
          "time": 543.6,
          "velocity": 0.4015748031496063
        },
        {
          "duration": 0.8000000000000682,
          "durationTicks": 960,
          "midi": 80,
          "name": "G#5",
          "ticks": 652800,
          "time": 544,
          "velocity": 0.4015748031496063
        },
        {
          "duration": 0.1966666666666015,
          "durationTicks": 236,
          "midi": 79,
          "name": "G5",
          "ticks": 653760,
          "time": 544.8000000000001,
          "velocity": 0.4015748031496063
        },
        {
          "duration": 0.13333333333332575,
          "durationTicks": 160,
          "midi": 75,
          "name": "D#5",
          "ticks": 654240,
          "time": 545.2,
          "velocity": 0.4015748031496063
        },
        {
          "duration": 0.7999999999999545,
          "durationTicks": 960,
          "midi": 79,
          "name": "G5",
          "ticks": 654720,
          "time": 545.6,
          "velocity": 0.4015748031496063
        },
        {
          "duration": 0.19666666666671517,
          "durationTicks": 236,
          "midi": 77,
          "name": "F5",
          "ticks": 655680,
          "time": 546.4,
          "velocity": 0.4015748031496063
        },
        {
          "duration": 0.06666666666660603,
          "durationTicks": 80,
          "midi": 74,
          "name": "D5",
          "ticks": 656160,
          "time": 546.8000000000001,
          "velocity": 0.4015748031496063
        },
        {
          "duration": 0.7999999999999545,
          "durationTicks": 960,
          "midi": 77,
          "name": "F5",
          "ticks": 656640,
          "time": 547.2,
          "velocity": 0.4015748031496063
        },
        {
          "duration": 0.1966666666666015,
          "durationTicks": 236,
          "midi": 75,
          "name": "D#5",
          "ticks": 657600,
          "time": 548,
          "velocity": 0.4015748031496063
        },
        {
          "duration": 0.06666666666671972,
          "durationTicks": 80,
          "midi": 74,
          "name": "D5",
          "ticks": 658080,
          "time": 548.4,
          "velocity": 0.4015748031496063
        },
        {
          "duration": 1.5,
          "durationTicks": 1800,
          "midi": 72,
          "name": "C5",
          "ticks": 658560,
          "time": 548.8000000000001,
          "velocity": 0.4015748031496063
        },
        {
          "duration": 0.33333333333337123,
          "durationTicks": 400,
          "midi": 62,
          "name": "D4",
          "ticks": 660480,
          "time": 550.4,
          "velocity": 0.8267716535433071
        },
        {
          "duration": 0.33333333333337123,
          "durationTicks": 400,
          "midi": 71,
          "name": "B4",
          "ticks": 660480,
          "time": 550.4,
          "velocity": 0.8267716535433071
        },
        {
          "duration": 0.33333333333337123,
          "durationTicks": 400,
          "midi": 79,
          "name": "G5",
          "ticks": 660480,
          "time": 550.4,
          "velocity": 0.8267716535433071
        },
        {
          "duration": 0.06666666666671972,
          "durationTicks": 80,
          "midi": 62,
          "name": "D4",
          "ticks": 661200,
          "time": 551,
          "velocity": 0.8267716535433071
        },
        {
          "duration": 0.06666666666660603,
          "durationTicks": 80,
          "midi": 64,
          "name": "E4",
          "ticks": 661280,
          "time": 551.0666666666667,
          "velocity": 0.8267716535433071
        },
        {
          "duration": 0.06666666666671972,
          "durationTicks": 80,
          "midi": 66,
          "name": "F#4",
          "ticks": 661360,
          "time": 551.1333333333333,
          "velocity": 0.8267716535433071
        },
        {
          "duration": 0.33333333333325754,
          "durationTicks": 400,
          "midi": 67,
          "name": "G4",
          "ticks": 661440,
          "time": 551.2,
          "velocity": 0.8267716535433071
        },
        {
          "duration": 0.06666666666660603,
          "durationTicks": 80,
          "midi": 62,
          "name": "D4",
          "ticks": 662160,
          "time": 551.8000000000001,
          "velocity": 0.8267716535433071
        },
        {
          "duration": 0.06666666666660603,
          "durationTicks": 80,
          "midi": 64,
          "name": "E4",
          "ticks": 662240,
          "time": 551.8666666666667,
          "velocity": 0.8267716535433071
        },
        {
          "duration": 0.06666666666671972,
          "durationTicks": 80,
          "midi": 66,
          "name": "F#4",
          "ticks": 662320,
          "time": 551.9333333333333,
          "velocity": 0.8267716535433071
        },
        {
          "duration": 0.33333333333337123,
          "durationTicks": 400,
          "midi": 67,
          "name": "G4",
          "ticks": 662400,
          "time": 552,
          "velocity": 0.8267716535433071
        },
        {
          "duration": 0.06666666666671972,
          "durationTicks": 80,
          "midi": 79,
          "name": "G5",
          "ticks": 664080,
          "time": 553.4,
          "velocity": 0.8267716535433071
        },
        {
          "duration": 0.6000000000000227,
          "durationTicks": 720,
          "midi": 81,
          "name": "A5",
          "ticks": 664320,
          "time": 553.6,
          "velocity": 0.8267716535433071
        },
        {
          "duration": 0.1966666666666015,
          "durationTicks": 236,
          "midi": 79,
          "name": "G5",
          "ticks": 665040,
          "time": 554.2,
          "velocity": 0.8267716535433071
        },
        {
          "duration": 0.6000000000000227,
          "durationTicks": 720,
          "midi": 83,
          "name": "B5",
          "ticks": 665280,
          "time": 554.4,
          "velocity": 0.8267716535433071
        },
        {
          "duration": 0.1966666666666015,
          "durationTicks": 236,
          "midi": 81,
          "name": "A5",
          "ticks": 666000,
          "time": 555,
          "velocity": 0.8267716535433071
        },
        {
          "duration": 0.7999999999999545,
          "durationTicks": 960,
          "midi": 84,
          "name": "C6",
          "ticks": 666240,
          "time": 555.2,
          "velocity": 0.8267716535433071
        },
        {
          "duration": 0.33333333333337123,
          "durationTicks": 400,
          "midi": 83,
          "name": "B5",
          "ticks": 667200,
          "time": 556,
          "velocity": 0.8267716535433071
        },
        {
          "duration": 0.13333333333332575,
          "durationTicks": 160,
          "midi": 80,
          "name": "G#5",
          "ticks": 667920,
          "time": 556.6,
          "velocity": 0.8267716535433071
        },
        {
          "duration": 0.599999999999909,
          "durationTicks": 720,
          "midi": 83,
          "name": "B5",
          "ticks": 668160,
          "time": 556.8000000000001,
          "velocity": 0.8267716535433071
        },
        {
          "duration": 0.19666666666671517,
          "durationTicks": 236,
          "midi": 81,
          "name": "A5",
          "ticks": 668880,
          "time": 557.4,
          "velocity": 0.8267716535433071
        },
        {
          "duration": 0.6000000000000227,
          "durationTicks": 720,
          "midi": 84,
          "name": "C6",
          "ticks": 669120,
          "time": 557.6,
          "velocity": 0.8267716535433071
        },
        {
          "duration": 0.1966666666666015,
          "durationTicks": 236,
          "midi": 83,
          "name": "B5",
          "ticks": 669840,
          "time": 558.2,
          "velocity": 0.8267716535433071
        },
        {
          "duration": 0.8000000000000682,
          "durationTicks": 960,
          "midi": 86,
          "name": "D6",
          "ticks": 670080,
          "time": 558.4,
          "velocity": 0.8267716535433071
        },
        {
          "duration": 0.33333333333325754,
          "durationTicks": 400,
          "midi": 84,
          "name": "C6",
          "ticks": 671040,
          "time": 559.2,
          "velocity": 0.8267716535433071
        },
        {
          "duration": 0.13333333333321207,
          "durationTicks": 160,
          "midi": 82,
          "name": "A#5",
          "ticks": 671760,
          "time": 559.8000000000001,
          "velocity": 0.8267716535433071
        },
        {
          "duration": 0.6000000000000227,
          "durationTicks": 720,
          "midi": 84,
          "name": "C6",
          "ticks": 672000,
          "time": 560,
          "velocity": 0.8267716535433071
        },
        {
          "duration": 0.1966666666666015,
          "durationTicks": 236,
          "midi": 83,
          "name": "B5",
          "ticks": 672720,
          "time": 560.6,
          "velocity": 0.8267716535433071
        },
        {
          "duration": 0.599999999999909,
          "durationTicks": 720,
          "midi": 86,
          "name": "D6",
          "ticks": 672960,
          "time": 560.8000000000001,
          "velocity": 0.8267716535433071
        },
        {
          "duration": 0.19666666666671517,
          "durationTicks": 236,
          "midi": 85,
          "name": "C#6",
          "ticks": 673680,
          "time": 561.4,
          "velocity": 0.8267716535433071
        },
        {
          "duration": 0.7999999999999545,
          "durationTicks": 960,
          "midi": 88,
          "name": "E6",
          "ticks": 673920,
          "time": 561.6,
          "velocity": 0.8267716535433071
        },
        {
          "duration": 0.33333333333337123,
          "durationTicks": 400,
          "midi": 86,
          "name": "D6",
          "ticks": 674880,
          "time": 562.4,
          "velocity": 0.8267716535433071
        },
        {
          "duration": 0.13333333333332575,
          "durationTicks": 160,
          "midi": 83,
          "name": "B5",
          "ticks": 675600,
          "time": 563,
          "velocity": 0.8267716535433071
        },
        {
          "duration": 0.7999999999999545,
          "durationTicks": 960,
          "midi": 86,
          "name": "D6",
          "ticks": 675840,
          "time": 563.2,
          "velocity": 0.8267716535433071
        },
        {
          "duration": 0.33333333333337123,
          "durationTicks": 400,
          "midi": 84,
          "name": "C6",
          "ticks": 676800,
          "time": 564,
          "velocity": 0.8267716535433071
        },
        {
          "duration": 0.13333333333332575,
          "durationTicks": 160,
          "midi": 82,
          "name": "A#5",
          "ticks": 677520,
          "time": 564.6,
          "velocity": 0.8267716535433071
        },
        {
          "duration": 0.7999999999999545,
          "durationTicks": 960,
          "midi": 84,
          "name": "C6",
          "ticks": 677760,
          "time": 564.8000000000001,
          "velocity": 0.8267716535433071
        },
        {
          "duration": 0.33333333333325754,
          "durationTicks": 400,
          "midi": 83,
          "name": "B5",
          "ticks": 678720,
          "time": 565.6,
          "velocity": 0.8267716535433071
        },
        {
          "duration": 0.13333333333332575,
          "durationTicks": 160,
          "midi": 79,
          "name": "G5",
          "ticks": 679440,
          "time": 566.2,
          "velocity": 0.8267716535433071
        },
        {
          "duration": 0.33333333333337123,
          "durationTicks": 400,
          "midi": 78,
          "name": "F#5",
          "ticks": 679680,
          "time": 566.4,
          "velocity": 0.8267716535433071
        },
        {
          "duration": 0.33333333333325754,
          "durationTicks": 400,
          "midi": 79,
          "name": "G5",
          "ticks": 680160,
          "time": 566.8000000000001,
          "velocity": 0.8267716535433071
        },
        {
          "duration": 0.33333333333325754,
          "durationTicks": 400,
          "midi": 78,
          "name": "F#5",
          "ticks": 680640,
          "time": 567.2,
          "velocity": 0.8267716535433071
        },
        {
          "duration": 0.33333333333325754,
          "durationTicks": 400,
          "midi": 79,
          "name": "G5",
          "ticks": 681120,
          "time": 567.6,
          "velocity": 0.8267716535433071
        },
        {
          "duration": 0.33333333333337123,
          "durationTicks": 400,
          "midi": 78,
          "name": "F#5",
          "ticks": 681600,
          "time": 568,
          "velocity": 0.8267716535433071
        },
        {
          "duration": 0.33333333333337123,
          "durationTicks": 400,
          "midi": 84,
          "name": "C6",
          "ticks": 682080,
          "time": 568.4,
          "velocity": 0.8267716535433071
        },
        {
          "duration": 0.33333333333325754,
          "durationTicks": 400,
          "midi": 81,
          "name": "A5",
          "ticks": 682560,
          "time": 568.8000000000001,
          "velocity": 0.8267716535433071
        },
        {
          "duration": 0.33333333333325754,
          "durationTicks": 400,
          "midi": 78,
          "name": "F#5",
          "ticks": 683040,
          "time": 569.2,
          "velocity": 0.8267716535433071
        },
        {
          "duration": 0.33333333333325754,
          "durationTicks": 400,
          "midi": 79,
          "name": "G5",
          "ticks": 683520,
          "time": 569.6,
          "velocity": 0.8267716535433071
        },
        {
          "duration": 0.33333333333325754,
          "durationTicks": 400,
          "midi": 67,
          "name": "G4",
          "ticks": 684960,
          "time": 570.8000000000001,
          "velocity": 0.8267716535433071
        },
        {
          "duration": 0.33333333333325754,
          "durationTicks": 400,
          "midi": 74,
          "name": "D5",
          "ticks": 684960,
          "time": 570.8000000000001,
          "velocity": 0.8267716535433071
        },
        {
          "duration": 0.33333333333325754,
          "durationTicks": 400,
          "midi": 83,
          "name": "B5",
          "ticks": 684960,
          "time": 570.8000000000001,
          "velocity": 0.8267716535433071
        },
        {
          "duration": 0.33333333333325754,
          "durationTicks": 400,
          "midi": 67,
          "name": "G4",
          "ticks": 685440,
          "time": 571.2,
          "velocity": 0.8267716535433071
        },
        {
          "duration": 0.33333333333325754,
          "durationTicks": 400,
          "midi": 76,
          "name": "E5",
          "ticks": 685440,
          "time": 571.2,
          "velocity": 0.8267716535433071
        },
        {
          "duration": 0.33333333333325754,
          "durationTicks": 400,
          "midi": 84,
          "name": "C6",
          "ticks": 685440,
          "time": 571.2,
          "velocity": 0.8267716535433071
        },
        {
          "duration": 0.33333333333337123,
          "durationTicks": 400,
          "midi": 64,
          "name": "E4",
          "ticks": 686880,
          "time": 572.4,
          "velocity": 0.8267716535433071
        },
        {
          "duration": 0.33333333333337123,
          "durationTicks": 400,
          "midi": 72,
          "name": "C5",
          "ticks": 686880,
          "time": 572.4,
          "velocity": 0.8267716535433071
        },
        {
          "duration": 0.33333333333337123,
          "durationTicks": 400,
          "midi": 76,
          "name": "E5",
          "ticks": 686880,
          "time": 572.4,
          "velocity": 0.8267716535433071
        },
        {
          "duration": 0.33333333333325754,
          "durationTicks": 400,
          "midi": 62,
          "name": "D4",
          "ticks": 687360,
          "time": 572.8000000000001,
          "velocity": 0.8267716535433071
        },
        {
          "duration": 0.33333333333325754,
          "durationTicks": 400,
          "midi": 71,
          "name": "B4",
          "ticks": 687360,
          "time": 572.8000000000001,
          "velocity": 0.8267716535433071
        },
        {
          "duration": 0.33333333333325754,
          "durationTicks": 400,
          "midi": 79,
          "name": "G5",
          "ticks": 687360,
          "time": 572.8000000000001,
          "velocity": 0.8267716535433071
        },
        {
          "duration": 0.33333333333337123,
          "durationTicks": 400,
          "midi": 67,
          "name": "G4",
          "ticks": 688800,
          "time": 574,
          "velocity": 0.8267716535433071
        },
        {
          "duration": 0.33333333333337123,
          "durationTicks": 400,
          "midi": 74,
          "name": "D5",
          "ticks": 688800,
          "time": 574,
          "velocity": 0.8267716535433071
        },
        {
          "duration": 0.33333333333337123,
          "durationTicks": 400,
          "midi": 83,
          "name": "B5",
          "ticks": 688800,
          "time": 574,
          "velocity": 0.8267716535433071
        },
        {
          "duration": 0.33333333333337123,
          "durationTicks": 400,
          "midi": 67,
          "name": "G4",
          "ticks": 689280,
          "time": 574.4,
          "velocity": 0.8267716535433071
        },
        {
          "duration": 0.33333333333337123,
          "durationTicks": 400,
          "midi": 76,
          "name": "E5",
          "ticks": 689280,
          "time": 574.4,
          "velocity": 0.8267716535433071
        },
        {
          "duration": 0.33333333333337123,
          "durationTicks": 400,
          "midi": 84,
          "name": "C6",
          "ticks": 689280,
          "time": 574.4,
          "velocity": 0.8267716535433071
        },
        {
          "duration": 0.33333333333325754,
          "durationTicks": 400,
          "midi": 64,
          "name": "E4",
          "ticks": 690720,
          "time": 575.6,
          "velocity": 0.8267716535433071
        },
        {
          "duration": 0.33333333333325754,
          "durationTicks": 400,
          "midi": 72,
          "name": "C5",
          "ticks": 690720,
          "time": 575.6,
          "velocity": 0.8267716535433071
        },
        {
          "duration": 0.33333333333325754,
          "durationTicks": 400,
          "midi": 76,
          "name": "E5",
          "ticks": 690720,
          "time": 575.6,
          "velocity": 0.8267716535433071
        },
        {
          "duration": 0.33333333333337123,
          "durationTicks": 400,
          "midi": 62,
          "name": "D4",
          "ticks": 691200,
          "time": 576,
          "velocity": 0.8267716535433071
        },
        {
          "duration": 0.33333333333337123,
          "durationTicks": 400,
          "midi": 71,
          "name": "B4",
          "ticks": 691200,
          "time": 576,
          "velocity": 0.8267716535433071
        },
        {
          "duration": 0.33333333333337123,
          "durationTicks": 400,
          "midi": 79,
          "name": "G5",
          "ticks": 691200,
          "time": 576,
          "velocity": 0.8267716535433071
        },
        {
          "duration": 0.33333333333337123,
          "durationTicks": 400,
          "midi": 67,
          "name": "G4",
          "ticks": 691680,
          "time": 576.4,
          "velocity": 0.8267716535433071
        },
        {
          "duration": 0.33333333333337123,
          "durationTicks": 400,
          "midi": 74,
          "name": "D5",
          "ticks": 691680,
          "time": 576.4,
          "velocity": 0.8267716535433071
        },
        {
          "duration": 0.33333333333337123,
          "durationTicks": 400,
          "midi": 83,
          "name": "B5",
          "ticks": 691680,
          "time": 576.4,
          "velocity": 0.8267716535433071
        },
        {
          "duration": 0.33333333333325754,
          "durationTicks": 400,
          "midi": 67,
          "name": "G4",
          "ticks": 692640,
          "time": 577.2,
          "velocity": 0.8267716535433071
        },
        {
          "duration": 0.33333333333325754,
          "durationTicks": 400,
          "midi": 76,
          "name": "E5",
          "ticks": 692640,
          "time": 577.2,
          "velocity": 0.8267716535433071
        },
        {
          "duration": 0.33333333333325754,
          "durationTicks": 400,
          "midi": 84,
          "name": "C6",
          "ticks": 692640,
          "time": 577.2,
          "velocity": 0.8267716535433071
        },
        {
          "duration": 0.33333333333337123,
          "durationTicks": 400,
          "midi": 67,
          "name": "G4",
          "ticks": 693600,
          "time": 578,
          "velocity": 0.8267716535433071
        },
        {
          "duration": 0.33333333333337123,
          "durationTicks": 400,
          "midi": 74,
          "name": "D5",
          "ticks": 693600,
          "time": 578,
          "velocity": 0.8267716535433071
        },
        {
          "duration": 0.33333333333337123,
          "durationTicks": 400,
          "midi": 83,
          "name": "B5",
          "ticks": 693600,
          "time": 578,
          "velocity": 0.8267716535433071
        },
        {
          "duration": 0.33333333333325754,
          "durationTicks": 400,
          "midi": 67,
          "name": "G4",
          "ticks": 694560,
          "time": 578.8000000000001,
          "velocity": 0.8267716535433071
        },
        {
          "duration": 0.33333333333325754,
          "durationTicks": 400,
          "midi": 76,
          "name": "E5",
          "ticks": 694560,
          "time": 578.8000000000001,
          "velocity": 0.8267716535433071
        },
        {
          "duration": 0.33333333333325754,
          "durationTicks": 400,
          "midi": 84,
          "name": "C6",
          "ticks": 694560,
          "time": 578.8000000000001,
          "velocity": 0.8267716535433071
        },
        {
          "duration": 0.33333333333325754,
          "durationTicks": 400,
          "midi": 67,
          "name": "G4",
          "ticks": 695040,
          "time": 579.2,
          "velocity": 0.8267716535433071
        },
        {
          "duration": 0.33333333333325754,
          "durationTicks": 400,
          "midi": 74,
          "name": "D5",
          "ticks": 695040,
          "time": 579.2,
          "velocity": 0.8267716535433071
        },
        {
          "duration": 0.33333333333325754,
          "durationTicks": 400,
          "midi": 83,
          "name": "B5",
          "ticks": 695040,
          "time": 579.2,
          "velocity": 0.8267716535433071
        },
        {
          "duration": 1.1999999999999318,
          "durationTicks": 1440,
          "midi": 72,
          "name": "C5",
          "ticks": 696960,
          "time": 580.8000000000001,
          "velocity": 0.4015748031496063
        },
        {
          "duration": 0.39999999999997726,
          "durationTicks": 480,
          "midi": 73,
          "name": "C#5",
          "ticks": 698400,
          "time": 582,
          "velocity": 0.4015748031496063
        },
        {
          "duration": 0.33333333333337123,
          "durationTicks": 400,
          "midi": 74,
          "name": "D5",
          "ticks": 698880,
          "time": 582.4,
          "velocity": 0.4015748031496063
        },
        {
          "duration": 0.3000000000000682,
          "durationTicks": 360,
          "midi": 77,
          "name": "F5",
          "ticks": 701280,
          "time": 584.4,
          "velocity": 0.4015748031496063
        },
        {
          "duration": 0.10000000000002274,
          "durationTicks": 120,
          "midi": 74,
          "name": "D5",
          "ticks": 701640,
          "time": 584.7,
          "velocity": 0.4015748031496063
        },
        {
          "duration": 0.1999999999999318,
          "durationTicks": 240,
          "midi": 83,
          "name": "B5",
          "ticks": 701760,
          "time": 584.8000000000001,
          "velocity": 0.4015748031496063
        },
        {
          "duration": 0.1999999999999318,
          "durationTicks": 240,
          "midi": 83,
          "name": "B5",
          "ticks": 702240,
          "time": 585.2,
          "velocity": 0.4015748031496063
        },
        {
          "duration": 0.6000000000000227,
          "durationTicks": 720,
          "midi": 84,
          "name": "C6",
          "ticks": 702720,
          "time": 585.6,
          "velocity": 0.4015748031496063
        },
        {
          "duration": 0.10000000000002274,
          "durationTicks": 120,
          "midi": 83,
          "name": "B5",
          "ticks": 703440,
          "time": 586.2,
          "velocity": 0.4015748031496063
        },
        {
          "duration": 0.09999999999990905,
          "durationTicks": 120,
          "midi": 81,
          "name": "A5",
          "ticks": 703560,
          "time": 586.3000000000001,
          "velocity": 0.4015748031496063
        },
        {
          "duration": 0.19666666666671517,
          "durationTicks": 236,
          "midi": 79,
          "name": "G5",
          "ticks": 703680,
          "time": 586.4,
          "velocity": 0.4015748031496063
        },
        {
          "duration": 0.2999999999999545,
          "durationTicks": 360,
          "midi": 79,
          "name": "G5",
          "ticks": 704160,
          "time": 586.8000000000001,
          "velocity": 0.4015748031496063
        },
        {
          "duration": 0.09666666666657875,
          "durationTicks": 116,
          "midi": 81,
          "name": "A5",
          "ticks": 704520,
          "time": 587.1,
          "velocity": 0.4015748031496063
        },
        {
          "duration": 0.1999999999999318,
          "durationTicks": 240,
          "midi": 77,
          "name": "F5",
          "ticks": 704640,
          "time": 587.2,
          "velocity": 0.4015748031496063
        },
        {
          "duration": 0.2999999999999545,
          "durationTicks": 360,
          "midi": 77,
          "name": "F5",
          "ticks": 705120,
          "time": 587.6,
          "velocity": 0.4015748031496063
        },
        {
          "duration": 0.09666666666669244,
          "durationTicks": 116,
          "midi": 79,
          "name": "G5",
          "ticks": 705480,
          "time": 587.9,
          "velocity": 0.4015748031496063
        },
        {
          "duration": 0.20000000000004547,
          "durationTicks": 240,
          "midi": 76,
          "name": "E5",
          "ticks": 705600,
          "time": 588,
          "velocity": 0.4015748031496063
        },
        {
          "duration": 0.3000000000000682,
          "durationTicks": 360,
          "midi": 76,
          "name": "E5",
          "ticks": 706080,
          "time": 588.4,
          "velocity": 0.4015748031496063
        },
        {
          "duration": 0.09666666666657875,
          "durationTicks": 116,
          "midi": 77,
          "name": "F5",
          "ticks": 706440,
          "time": 588.7,
          "velocity": 0.4015748031496063
        },
        {
          "duration": 0.1999999999999318,
          "durationTicks": 240,
          "midi": 74,
          "name": "D5",
          "ticks": 706560,
          "time": 588.8000000000001,
          "velocity": 0.4015748031496063
        },
        {
          "duration": 0.20000000000004547,
          "durationTicks": 240,
          "midi": 76,
          "name": "E5",
          "ticks": 706800,
          "time": 589,
          "velocity": 0.4015748031496063
        },
        {
          "duration": 0.1999999999999318,
          "durationTicks": 240,
          "midi": 77,
          "name": "F5",
          "ticks": 707040,
          "time": 589.2,
          "velocity": 0.4015748031496063
        },
        {
          "duration": 0.20000000000004547,
          "durationTicks": 240,
          "midi": 78,
          "name": "F#5",
          "ticks": 707280,
          "time": 589.4,
          "velocity": 0.4015748031496063
        },
        {
          "duration": 0.20000000000004547,
          "durationTicks": 240,
          "midi": 79,
          "name": "G5",
          "ticks": 707520,
          "time": 589.6,
          "velocity": 0.4015748031496063
        },
        {
          "duration": 0.1999999999999318,
          "durationTicks": 240,
          "midi": 76,
          "name": "E5",
          "ticks": 707760,
          "time": 589.8000000000001,
          "velocity": 0.4015748031496063
        },
        {
          "duration": 0.20000000000004547,
          "durationTicks": 240,
          "midi": 77,
          "name": "F5",
          "ticks": 708000,
          "time": 590,
          "velocity": 0.4015748031496063
        },
        {
          "duration": 0.1966666666666015,
          "durationTicks": 236,
          "midi": 74,
          "name": "D5",
          "ticks": 708240,
          "time": 590.2,
          "velocity": 0.4015748031496063
        },
        {
          "duration": 1.2000000000000455,
          "durationTicks": 1440,
          "midi": 72,
          "name": "C5",
          "ticks": 708480,
          "time": 590.4,
          "velocity": 0.4015748031496063
        },
        {
          "duration": 0.39999999999997726,
          "durationTicks": 480,
          "midi": 73,
          "name": "C#5",
          "ticks": 709920,
          "time": 591.6,
          "velocity": 0.4015748031496063
        },
        {
          "duration": 0.33333333333337123,
          "durationTicks": 400,
          "midi": 74,
          "name": "D5",
          "ticks": 710400,
          "time": 592,
          "velocity": 0.4015748031496063
        },
        {
          "duration": 0.3000000000000682,
          "durationTicks": 360,
          "midi": 77,
          "name": "F5",
          "ticks": 712800,
          "time": 594,
          "velocity": 0.4015748031496063
        },
        {
          "duration": 0.09999999999990905,
          "durationTicks": 120,
          "midi": 74,
          "name": "D5",
          "ticks": 713160,
          "time": 594.3000000000001,
          "velocity": 0.4015748031496063
        },
        {
          "duration": 0.19666666666671517,
          "durationTicks": 236,
          "midi": 71,
          "name": "B4",
          "ticks": 713280,
          "time": 594.4,
          "velocity": 0.4015748031496063
        },
        {
          "duration": 0.1999999999999318,
          "durationTicks": 240,
          "midi": 71,
          "name": "B4",
          "ticks": 713760,
          "time": 594.8000000000001,
          "velocity": 0.4015748031496063
        },
        {
          "duration": 0.049999999999954525,
          "durationTicks": 60,
          "midi": 74,
          "name": "D5",
          "ticks": 714240,
          "time": 595.2,
          "velocity": 0.4015748031496063
        },
        {
          "duration": 0.05000000000006821,
          "durationTicks": 60,
          "midi": 72,
          "name": "C5",
          "ticks": 714300,
          "time": 595.25,
          "velocity": 0.4015748031496063
        },
        {
          "duration": 0.049999999999954525,
          "durationTicks": 60,
          "midi": 74,
          "name": "D5",
          "ticks": 714360,
          "time": 595.3000000000001,
          "velocity": 0.4015748031496063
        },
        {
          "duration": 0.049999999999954525,
          "durationTicks": 60,
          "midi": 72,
          "name": "C5",
          "ticks": 714420,
          "time": 595.35,
          "velocity": 0.4015748031496063
        },
        {
          "duration": 0.05000000000006821,
          "durationTicks": 60,
          "midi": 74,
          "name": "D5",
          "ticks": 714480,
          "time": 595.4,
          "velocity": 0.4015748031496063
        },
        {
          "duration": 0.049999999999954525,
          "durationTicks": 60,
          "midi": 72,
          "name": "C5",
          "ticks": 714540,
          "time": 595.45,
          "velocity": 0.4015748031496063
        },
        {
          "duration": 0.05000000000006821,
          "durationTicks": 60,
          "midi": 74,
          "name": "D5",
          "ticks": 714600,
          "time": 595.5,
          "velocity": 0.4015748031496063
        },
        {
          "duration": 0.049999999999954525,
          "durationTicks": 60,
          "midi": 72,
          "name": "C5",
          "ticks": 714660,
          "time": 595.5500000000001,
          "velocity": 0.4015748031496063
        },
        {
          "duration": 0.049999999999954525,
          "durationTicks": 60,
          "midi": 74,
          "name": "D5",
          "ticks": 714720,
          "time": 595.6,
          "velocity": 0.4015748031496063
        },
        {
          "duration": 0.05000000000006821,
          "durationTicks": 60,
          "midi": 72,
          "name": "C5",
          "ticks": 714780,
          "time": 595.65,
          "velocity": 0.4015748031496063
        },
        {
          "duration": 0.049999999999954525,
          "durationTicks": 60,
          "midi": 74,
          "name": "D5",
          "ticks": 714840,
          "time": 595.7,
          "velocity": 0.4015748031496063
        },
        {
          "duration": 0.05000000000006821,
          "durationTicks": 60,
          "midi": 72,
          "name": "C5",
          "ticks": 714900,
          "time": 595.75,
          "velocity": 0.4015748031496063
        },
        {
          "duration": 0.09999999999990905,
          "durationTicks": 120,
          "midi": 71,
          "name": "B4",
          "ticks": 714960,
          "time": 595.8000000000001,
          "velocity": 0.4015748031496063
        },
        {
          "duration": 0.10000000000002274,
          "durationTicks": 120,
          "midi": 69,
          "name": "A4",
          "ticks": 715080,
          "time": 595.9,
          "velocity": 0.4015748031496063
        },
        {
          "duration": 0.1966666666666015,
          "durationTicks": 236,
          "midi": 67,
          "name": "G4",
          "ticks": 715200,
          "time": 596,
          "velocity": 0.4015748031496063
        },
        {
          "duration": 0.3000000000000682,
          "durationTicks": 360,
          "midi": 67,
          "name": "G4",
          "ticks": 715680,
          "time": 596.4,
          "velocity": 0.4015748031496063
        },
        {
          "duration": 0.09666666666657875,
          "durationTicks": 116,
          "midi": 69,
          "name": "A4",
          "ticks": 716040,
          "time": 596.7,
          "velocity": 0.4015748031496063
        },
        {
          "duration": 0.1999999999999318,
          "durationTicks": 240,
          "midi": 65,
          "name": "F4",
          "ticks": 716160,
          "time": 596.8000000000001,
          "velocity": 0.4015748031496063
        },
        {
          "duration": 0.2999999999999545,
          "durationTicks": 360,
          "midi": 65,
          "name": "F4",
          "ticks": 716640,
          "time": 597.2,
          "velocity": 0.4015748031496063
        },
        {
          "duration": 0.09666666666669244,
          "durationTicks": 116,
          "midi": 67,
          "name": "G4",
          "ticks": 717000,
          "time": 597.5,
          "velocity": 0.4015748031496063
        },
        {
          "duration": 0.20000000000004547,
          "durationTicks": 240,
          "midi": 64,
          "name": "E4",
          "ticks": 717120,
          "time": 597.6,
          "velocity": 0.4015748031496063
        },
        {
          "duration": 0.3000000000000682,
          "durationTicks": 360,
          "midi": 64,
          "name": "E4",
          "ticks": 717600,
          "time": 598,
          "velocity": 0.4015748031496063
        },
        {
          "duration": 0.09666666666657875,
          "durationTicks": 116,
          "midi": 65,
          "name": "F4",
          "ticks": 717960,
          "time": 598.3000000000001,
          "velocity": 0.4015748031496063
        },
        {
          "duration": 0.20000000000004547,
          "durationTicks": 240,
          "midi": 62,
          "name": "D4",
          "ticks": 718080,
          "time": 598.4,
          "velocity": 0.4015748031496063
        },
        {
          "duration": 0.1999999999999318,
          "durationTicks": 240,
          "midi": 62,
          "name": "D4",
          "ticks": 718560,
          "time": 598.8000000000001,
          "velocity": 0.4015748031496063
        },
        {
          "duration": 0.1999999999999318,
          "durationTicks": 240,
          "midi": 62,
          "name": "D4",
          "ticks": 719040,
          "time": 599.2,
          "velocity": 0.4015748031496063
        },
        {
          "duration": 0.2999999999999545,
          "durationTicks": 360,
          "midi": 64,
          "name": "E4",
          "ticks": 719520,
          "time": 599.6,
          "velocity": 0.4015748031496063
        },
        {
          "duration": 0.09666666666669244,
          "durationTicks": 116,
          "midi": 65,
          "name": "F4",
          "ticks": 719880,
          "time": 599.9,
          "velocity": 0.4015748031496063
        },
        {
          "duration": 0.20000000000004547,
          "durationTicks": 240,
          "midi": 67,
          "name": "G4",
          "ticks": 720000,
          "time": 600,
          "velocity": 0.4015748031496063
        },
        {
          "duration": 0.3000000000000682,
          "durationTicks": 360,
          "midi": 67,
          "name": "G4",
          "ticks": 720480,
          "time": 600.4,
          "velocity": 0.4015748031496063
        },
        {
          "duration": 0.09666666666657875,
          "durationTicks": 116,
          "midi": 69,
          "name": "A4",
          "ticks": 720840,
          "time": 600.7,
          "velocity": 0.4015748031496063
        },
        {
          "duration": 0.1999999999999318,
          "durationTicks": 240,
          "midi": 65,
          "name": "F4",
          "ticks": 720960,
          "time": 600.8000000000001,
          "velocity": 0.4015748031496063
        },
        {
          "duration": 0.2999999999999545,
          "durationTicks": 360,
          "midi": 65,
          "name": "F4",
          "ticks": 721440,
          "time": 601.2,
          "velocity": 0.4015748031496063
        },
        {
          "duration": 0.09666666666669244,
          "durationTicks": 116,
          "midi": 67,
          "name": "G4",
          "ticks": 721800,
          "time": 601.5,
          "velocity": 0.4015748031496063
        },
        {
          "duration": 0.20000000000004547,
          "durationTicks": 240,
          "midi": 64,
          "name": "E4",
          "ticks": 721920,
          "time": 601.6,
          "velocity": 0.4015748031496063
        },
        {
          "duration": 0.20000000000004547,
          "durationTicks": 240,
          "midi": 64,
          "name": "E4",
          "ticks": 722400,
          "time": 602,
          "velocity": 0.4015748031496063
        },
        {
          "duration": 0.20000000000004547,
          "durationTicks": 240,
          "midi": 64,
          "name": "E4",
          "ticks": 722880,
          "time": 602.4,
          "velocity": 0.4015748031496063
        },
        {
          "duration": 0.20000000000004547,
          "durationTicks": 240,
          "midi": 67,
          "name": "G4",
          "ticks": 723120,
          "time": 602.6,
          "velocity": 0.4015748031496063
        },
        {
          "duration": 0.1999999999999318,
          "durationTicks": 240,
          "midi": 65,
          "name": "F4",
          "ticks": 723360,
          "time": 602.8000000000001,
          "velocity": 0.4015748031496063
        },
        {
          "duration": 0.1966666666666015,
          "durationTicks": 236,
          "midi": 62,
          "name": "D4",
          "ticks": 723600,
          "time": 603,
          "velocity": 0.4015748031496063
        },
        {
          "duration": 1.1999999999999318,
          "durationTicks": 1440,
          "midi": 60,
          "name": "C4",
          "ticks": 723840,
          "time": 603.2,
          "velocity": 0.4015748031496063
        },
        {
          "duration": 0.20000000000004547,
          "durationTicks": 240,
          "midi": 64,
          "name": "E4",
          "ticks": 725280,
          "time": 604.4,
          "velocity": 0.4015748031496063
        },
        {
          "duration": 0.1966666666666015,
          "durationTicks": 236,
          "midi": 62,
          "name": "D4",
          "ticks": 725520,
          "time": 604.6,
          "velocity": 0.4015748031496063
        },
        {
          "duration": 0.33333333333325754,
          "durationTicks": 400,
          "midi": 60,
          "name": "C4",
          "ticks": 725760,
          "time": 604.8000000000001,
          "velocity": 0.4015748031496063
        },
        {
          "duration": 1.2000000000000455,
          "durationTicks": 1440,
          "midi": 74,
          "name": "D5",
          "ticks": 727680,
          "time": 606.4,
          "velocity": 0.4015748031496063
        },
        {
          "duration": 0.20000000000004547,
          "durationTicks": 240,
          "midi": 76,
          "name": "E5",
          "ticks": 729120,
          "time": 607.6,
          "velocity": 0.4015748031496063
        },
        {
          "duration": 0.1966666666666015,
          "durationTicks": 236,
          "midi": 77,
          "name": "F5",
          "ticks": 729360,
          "time": 607.8000000000001,
          "velocity": 0.4015748031496063
        },
        {
          "duration": 0.20000000000004547,
          "durationTicks": 240,
          "midi": 79,
          "name": "G5",
          "ticks": 729600,
          "time": 608,
          "velocity": 0.4015748031496063
        },
        {
          "duration": 0.20000000000004547,
          "durationTicks": 240,
          "midi": 79,
          "name": "G5",
          "ticks": 730080,
          "time": 608.4,
          "velocity": 0.4015748031496063
        },
        {
          "duration": 0.39999999999997726,
          "durationTicks": 480,
          "midi": 79,
          "name": "G5",
          "ticks": 730560,
          "time": 608.8000000000001,
          "velocity": 0.4015748031496063
        },
        {
          "duration": 0.10000000000002274,
          "durationTicks": 120,
          "midi": 77,
          "name": "F5",
          "ticks": 731040,
          "time": 609.2,
          "velocity": 0.4015748031496063
        },
        {
          "duration": 0.09999999999990905,
          "durationTicks": 120,
          "midi": 76,
          "name": "E5",
          "ticks": 731160,
          "time": 609.3000000000001,
          "velocity": 0.4015748031496063
        },
        {
          "duration": 0.10000000000002274,
          "durationTicks": 120,
          "midi": 74,
          "name": "D5",
          "ticks": 731280,
          "time": 609.4,
          "velocity": 0.4015748031496063
        },
        {
          "duration": 0.09666666666669244,
          "durationTicks": 116,
          "midi": 72,
          "name": "C5",
          "ticks": 731400,
          "time": 609.5,
          "velocity": 0.4015748031496063
        },
        {
          "duration": 0.20000000000004547,
          "durationTicks": 240,
          "midi": 74,
          "name": "D5",
          "ticks": 731520,
          "time": 609.6,
          "velocity": 0.4015748031496063
        },
        {
          "duration": 0.20000000000004547,
          "durationTicks": 240,
          "midi": 74,
          "name": "D5",
          "ticks": 732000,
          "time": 610,
          "velocity": 0.4015748031496063
        },
        {
          "duration": 0.40000000000009095,
          "durationTicks": 480,
          "midi": 74,
          "name": "D5",
          "ticks": 732480,
          "time": 610.4,
          "velocity": 0.4015748031496063
        },
        {
          "duration": 0.09999999999990905,
          "durationTicks": 120,
          "midi": 72,
          "name": "C5",
          "ticks": 732960,
          "time": 610.8000000000001,
          "velocity": 0.4015748031496063
        },
        {
          "duration": 0.10000000000002274,
          "durationTicks": 120,
          "midi": 71,
          "name": "B4",
          "ticks": 733080,
          "time": 610.9,
          "velocity": 0.4015748031496063
        },
        {
          "duration": 0.10000000000002274,
          "durationTicks": 120,
          "midi": 69,
          "name": "A4",
          "ticks": 733200,
          "time": 611,
          "velocity": 0.4015748031496063
        },
        {
          "duration": 0.09666666666657875,
          "durationTicks": 116,
          "midi": 67,
          "name": "G4",
          "ticks": 733320,
          "time": 611.1,
          "velocity": 0.4015748031496063
        },
        {
          "duration": 0.33333333333325754,
          "durationTicks": 400,
          "midi": 72,
          "name": "C5",
          "ticks": 733440,
          "time": 611.2,
          "velocity": 0.4015748031496063
        },
        {
          "duration": 1.1999999999999318,
          "durationTicks": 1440,
          "midi": 74,
          "name": "D5",
          "ticks": 735360,
          "time": 612.8000000000001,
          "velocity": 0.4015748031496063
        },
        {
          "duration": 0.20000000000004547,
          "durationTicks": 240,
          "midi": 76,
          "name": "E5",
          "ticks": 736800,
          "time": 614,
          "velocity": 0.4015748031496063
        },
        {
          "duration": 0.1966666666666015,
          "durationTicks": 236,
          "midi": 77,
          "name": "F5",
          "ticks": 737040,
          "time": 614.2,
          "velocity": 0.4015748031496063
        },
        {
          "duration": 0.1999999999999318,
          "durationTicks": 240,
          "midi": 79,
          "name": "G5",
          "ticks": 737280,
          "time": 614.4000000000001,
          "velocity": 0.4015748031496063
        },
        {
          "duration": 0.1999999999999318,
          "durationTicks": 240,
          "midi": 79,
          "name": "G5",
          "ticks": 737760,
          "time": 614.8000000000001,
          "velocity": 0.4015748031496063
        },
        {
          "duration": 0.39999999999997726,
          "durationTicks": 480,
          "midi": 79,
          "name": "G5",
          "ticks": 738240,
          "time": 615.2,
          "velocity": 0.4015748031496063
        },
        {
          "duration": 0.10000000000002274,
          "durationTicks": 120,
          "midi": 77,
          "name": "F5",
          "ticks": 738720,
          "time": 615.6,
          "velocity": 0.4015748031496063
        },
        {
          "duration": 0.10000000000002274,
          "durationTicks": 120,
          "midi": 76,
          "name": "E5",
          "ticks": 738840,
          "time": 615.7,
          "velocity": 0.4015748031496063
        },
        {
          "duration": 0.10000000000002274,
          "durationTicks": 120,
          "midi": 74,
          "name": "D5",
          "ticks": 738960,
          "time": 615.8000000000001,
          "velocity": 0.4015748031496063
        },
        {
          "duration": 0.09666666666657875,
          "durationTicks": 116,
          "midi": 73,
          "name": "C#5",
          "ticks": 739080,
          "time": 615.9000000000001,
          "velocity": 0.4015748031496063
        },
        {
          "duration": 0.16000000000008185,
          "durationTicks": 192,
          "midi": 81,
          "name": "A5",
          "ticks": 739200,
          "time": 616,
          "velocity": 0.4015748031496063
        },
        {
          "duration": 0.15999999999996817,
          "durationTicks": 192,
          "midi": 81,
          "name": "A5",
          "ticks": 739680,
          "time": 616.4000000000001,
          "velocity": 0.4015748031496063
        },
        {
          "duration": 0.39999999999997726,
          "durationTicks": 480,
          "midi": 81,
          "name": "A5",
          "ticks": 740160,
          "time": 616.8000000000001,
          "velocity": 0.4015748031496063
        },
        {
          "duration": 0.10000000000002274,
          "durationTicks": 120,
          "midi": 79,
          "name": "G5",
          "ticks": 740640,
          "time": 617.2,
          "velocity": 0.4015748031496063
        },
        {
          "duration": 0.10000000000002274,
          "durationTicks": 120,
          "midi": 77,
          "name": "F5",
          "ticks": 740760,
          "time": 617.3000000000001,
          "velocity": 0.4015748031496063
        },
        {
          "duration": 0.09999999999990905,
          "durationTicks": 120,
          "midi": 76,
          "name": "E5",
          "ticks": 740880,
          "time": 617.4000000000001,
          "velocity": 0.4015748031496063
        },
        {
          "duration": 0.09666666666669244,
          "durationTicks": 116,
          "midi": 74,
          "name": "D5",
          "ticks": 741000,
          "time": 617.5,
          "velocity": 0.4015748031496063
        },
        {
          "duration": 0.16000000000008185,
          "durationTicks": 192,
          "midi": 82,
          "name": "A#5",
          "ticks": 741120,
          "time": 617.6,
          "velocity": 0.4015748031496063
        },
        {
          "duration": 0.16000000000008185,
          "durationTicks": 192,
          "midi": 82,
          "name": "A#5",
          "ticks": 741600,
          "time": 618,
          "velocity": 0.4015748031496063
        },
        {
          "duration": 0.15999999999996817,
          "durationTicks": 192,
          "midi": 82,
          "name": "A#5",
          "ticks": 742080,
          "time": 618.4000000000001,
          "velocity": 0.4015748031496063
        },
        {
          "duration": 1.5,
          "durationTicks": 1800,
          "midi": 80,
          "name": "G#5",
          "ticks": 744960,
          "time": 620.8000000000001,
          "velocity": 0.8267716535433071
        },
        {
          "duration": 0.049999999999954525,
          "durationTicks": 60,
          "midi": 79,
          "name": "G5",
          "ticks": 746880,
          "time": 622.4000000000001,
          "velocity": 0.8267716535433071
        },
        {
          "duration": 0.6833333333332803,
          "durationTicks": 820,
          "midi": 80,
          "name": "G#5",
          "ticks": 746940,
          "time": 622.45,
          "velocity": 0.8267716535433071
        },
        {
          "duration": 0.049999999999954525,
          "durationTicks": 60,
          "midi": 79,
          "name": "G5",
          "ticks": 747840,
          "time": 623.2,
          "velocity": 0.8267716535433071
        },
        {
          "duration": 0.683333333333394,
          "durationTicks": 820,
          "midi": 80,
          "name": "G#5",
          "ticks": 747900,
          "time": 623.25,
          "velocity": 0.8267716535433071
        },
        {
          "duration": 1.5,
          "durationTicks": 1800,
          "midi": 85,
          "name": "C#6",
          "ticks": 748800,
          "time": 624,
          "velocity": 0.8267716535433071
        },
        {
          "duration": 0.05000000000006821,
          "durationTicks": 60,
          "midi": 84,
          "name": "C6",
          "ticks": 750720,
          "time": 625.6,
          "velocity": 0.8267716535433071
        },
        {
          "duration": 0.6833333333332803,
          "durationTicks": 820,
          "midi": 85,
          "name": "C#6",
          "ticks": 750780,
          "time": 625.6500000000001,
          "velocity": 0.8267716535433071
        },
        {
          "duration": 0.049999999999954525,
          "durationTicks": 60,
          "midi": 84,
          "name": "C6",
          "ticks": 751680,
          "time": 626.4000000000001,
          "velocity": 0.8267716535433071
        },
        {
          "duration": 0.6833333333332803,
          "durationTicks": 820,
          "midi": 85,
          "name": "C#6",
          "ticks": 751740,
          "time": 626.45,
          "velocity": 0.8267716535433071
        },
        {
          "duration": 0.7000000000000455,
          "durationTicks": 840,
          "midi": 85,
          "name": "C#6",
          "ticks": 752640,
          "time": 627.2,
          "velocity": 0.8267716535433071
        },
        {
          "duration": 0.7000000000000455,
          "durationTicks": 840,
          "midi": 84,
          "name": "C6",
          "ticks": 753600,
          "time": 628,
          "velocity": 0.8267716535433071
        },
        {
          "duration": 0.6999999999999318,
          "durationTicks": 840,
          "midi": 84,
          "name": "C6",
          "ticks": 754560,
          "time": 628.8000000000001,
          "velocity": 0.8267716535433071
        },
        {
          "duration": 0.7000000000000455,
          "durationTicks": 840,
          "midi": 83,
          "name": "B5",
          "ticks": 755520,
          "time": 629.6,
          "velocity": 0.8267716535433071
        },
        {
          "duration": 0.33333333333325754,
          "durationTicks": 400,
          "midi": 84,
          "name": "C6",
          "ticks": 756480,
          "time": 630.4000000000001,
          "velocity": 0.8267716535433071
        },
        {
          "duration": 0.33333333333325754,
          "durationTicks": 400,
          "midi": 67,
          "name": "G4",
          "ticks": 756960,
          "time": 630.8000000000001,
          "velocity": 0.8267716535433071
        },
        {
          "duration": 0.33333333333325754,
          "durationTicks": 400,
          "midi": 76,
          "name": "E5",
          "ticks": 756960,
          "time": 630.8000000000001,
          "velocity": 0.8267716535433071
        },
        {
          "duration": 0.33333333333325754,
          "durationTicks": 400,
          "midi": 84,
          "name": "C6",
          "ticks": 756960,
          "time": 630.8000000000001,
          "velocity": 0.8267716535433071
        },
        {
          "duration": 0.33333333333337123,
          "durationTicks": 400,
          "midi": 65,
          "name": "F4",
          "ticks": 757920,
          "time": 631.6,
          "velocity": 0.8267716535433071
        },
        {
          "duration": 0.33333333333337123,
          "durationTicks": 400,
          "midi": 72,
          "name": "C5",
          "ticks": 757920,
          "time": 631.6,
          "velocity": 0.8267716535433071
        },
        {
          "duration": 0.33333333333337123,
          "durationTicks": 400,
          "midi": 81,
          "name": "A5",
          "ticks": 757920,
          "time": 631.6,
          "velocity": 0.8267716535433071
        },
        {
          "duration": 0.33333333333325754,
          "durationTicks": 400,
          "midi": 64,
          "name": "E4",
          "ticks": 758880,
          "time": 632.4000000000001,
          "velocity": 0.8267716535433071
        },
        {
          "duration": 0.33333333333325754,
          "durationTicks": 400,
          "midi": 72,
          "name": "C5",
          "ticks": 758880,
          "time": 632.4000000000001,
          "velocity": 0.8267716535433071
        },
        {
          "duration": 0.33333333333325754,
          "durationTicks": 400,
          "midi": 79,
          "name": "G5",
          "ticks": 758880,
          "time": 632.4000000000001,
          "velocity": 0.8267716535433071
        },
        {
          "duration": 0.33333333333325754,
          "durationTicks": 400,
          "midi": 55,
          "name": "G3",
          "ticks": 759840,
          "time": 633.2,
          "velocity": 0.8267716535433071
        },
        {
          "duration": 0.33333333333325754,
          "durationTicks": 400,
          "midi": 62,
          "name": "D4",
          "ticks": 759840,
          "time": 633.2,
          "velocity": 0.8267716535433071
        },
        {
          "duration": 0.33333333333325754,
          "durationTicks": 400,
          "midi": 74,
          "name": "D5",
          "ticks": 759840,
          "time": 633.2,
          "velocity": 0.8267716535433071
        },
        {
          "duration": 0.6000000000000227,
          "durationTicks": 720,
          "midi": 72,
          "name": "C5",
          "ticks": 760320,
          "time": 633.6,
          "velocity": 0.8267716535433071
        },
        {
          "duration": 0.1966666666666015,
          "durationTicks": 236,
          "midi": 71,
          "name": "B4",
          "ticks": 761040,
          "time": 634.2,
          "velocity": 0.8267716535433071
        },
        {
          "duration": 0.2999999999999545,
          "durationTicks": 360,
          "midi": 74,
          "name": "D5",
          "ticks": 761280,
          "time": 634.4000000000001,
          "velocity": 0.8267716535433071
        },
        {
          "duration": 0.09666666666657875,
          "durationTicks": 116,
          "midi": 72,
          "name": "C5",
          "ticks": 761640,
          "time": 634.7,
          "velocity": 0.8267716535433071
        },
        {
          "duration": 0.2999999999999545,
          "durationTicks": 360,
          "midi": 77,
          "name": "F5",
          "ticks": 761760,
          "time": 634.8000000000001,
          "velocity": 0.8267716535433071
        },
        {
          "duration": 0.09666666666669244,
          "durationTicks": 116,
          "midi": 76,
          "name": "E5",
          "ticks": 762120,
          "time": 635.1,
          "velocity": 0.8267716535433071
        },
        {
          "duration": 0.6000000000000227,
          "durationTicks": 720,
          "midi": 74,
          "name": "D5",
          "ticks": 762240,
          "time": 635.2,
          "velocity": 0.8267716535433071
        },
        {
          "duration": 0.1966666666666015,
          "durationTicks": 236,
          "midi": 73,
          "name": "C#5",
          "ticks": 762960,
          "time": 635.8000000000001,
          "velocity": 0.8267716535433071
        },
        {
          "duration": 0.3000000000000682,
          "durationTicks": 360,
          "midi": 76,
          "name": "E5",
          "ticks": 763200,
          "time": 636,
          "velocity": 0.8267716535433071
        },
        {
          "duration": 0.09666666666657875,
          "durationTicks": 116,
          "midi": 74,
          "name": "D5",
          "ticks": 763560,
          "time": 636.3000000000001,
          "velocity": 0.8267716535433071
        },
        {
          "duration": 0.2999999999999545,
          "durationTicks": 360,
          "midi": 79,
          "name": "G5",
          "ticks": 763680,
          "time": 636.4000000000001,
          "velocity": 0.8267716535433071
        },
        {
          "duration": 0.09666666666657875,
          "durationTicks": 116,
          "midi": 77,
          "name": "F5",
          "ticks": 764040,
          "time": 636.7,
          "velocity": 0.8267716535433071
        },
        {
          "duration": 0.6000000000000227,
          "durationTicks": 720,
          "midi": 76,
          "name": "E5",
          "ticks": 764160,
          "time": 636.8000000000001,
          "velocity": 0.8267716535433071
        },
        {
          "duration": 0.1966666666666015,
          "durationTicks": 236,
          "midi": 75,
          "name": "D#5",
          "ticks": 764880,
          "time": 637.4000000000001,
          "velocity": 0.8267716535433071
        },
        {
          "duration": 0.3000000000000682,
          "durationTicks": 360,
          "midi": 77,
          "name": "F5",
          "ticks": 765120,
          "time": 637.6,
          "velocity": 0.8267716535433071
        },
        {
          "duration": 0.09666666666657875,
          "durationTicks": 116,
          "midi": 76,
          "name": "E5",
          "ticks": 765480,
          "time": 637.9000000000001,
          "velocity": 0.8267716535433071
        },
        {
          "duration": 0.3000000000000682,
          "durationTicks": 360,
          "midi": 81,
          "name": "A5",
          "ticks": 765600,
          "time": 638,
          "velocity": 0.8267716535433071
        },
        {
          "duration": 0.09666666666657875,
          "durationTicks": 116,
          "midi": 79,
          "name": "G5",
          "ticks": 765960,
          "time": 638.3000000000001,
          "velocity": 0.8267716535433071
        },
        {
          "duration": 0.09999999999990905,
          "durationTicks": 120,
          "midi": 77,
          "name": "F5",
          "ticks": 766080,
          "time": 638.4000000000001,
          "velocity": 0.6771653543307087
        },
        {
          "duration": 0.10000000000002274,
          "durationTicks": 120,
          "midi": 79,
          "name": "G5",
          "ticks": 766200,
          "time": 638.5,
          "velocity": 0.6771653543307087
        },
        {
          "duration": 0.10000000000002274,
          "durationTicks": 120,
          "midi": 81,
          "name": "A5",
          "ticks": 766320,
          "time": 638.6,
          "velocity": 0.6771653543307087
        },
        {
          "duration": 0.09666666666657875,
          "durationTicks": 116,
          "midi": 79,
          "name": "G5",
          "ticks": 766440,
          "time": 638.7,
          "velocity": 0.6771653543307087
        },
        {
          "duration": 0.1966666666666015,
          "durationTicks": 236,
          "midi": 77,
          "name": "F5",
          "ticks": 766560,
          "time": 638.8000000000001,
          "velocity": 0.6771653543307087
        },
        {
          "duration": 0.06666666666671972,
          "durationTicks": 80,
          "midi": 77,
          "name": "F5",
          "ticks": 766800,
          "time": 639,
          "velocity": 0.6771653543307087
        },
        {
          "duration": 0.10000000000002274,
          "durationTicks": 120,
          "midi": 76,
          "name": "E5",
          "ticks": 767040,
          "time": 639.2,
          "velocity": 0.6771653543307087
        },
        {
          "duration": 0.10000000000002274,
          "durationTicks": 120,
          "midi": 77,
          "name": "F5",
          "ticks": 767160,
          "time": 639.3000000000001,
          "velocity": 0.6771653543307087
        },
        {
          "duration": 0.09999999999990905,
          "durationTicks": 120,
          "midi": 79,
          "name": "G5",
          "ticks": 767280,
          "time": 639.4000000000001,
          "velocity": 0.6771653543307087
        },
        {
          "duration": 0.09666666666669244,
          "durationTicks": 116,
          "midi": 77,
          "name": "F5",
          "ticks": 767400,
          "time": 639.5,
          "velocity": 0.6771653543307087
        },
        {
          "duration": 0.1966666666666015,
          "durationTicks": 236,
          "midi": 76,
          "name": "E5",
          "ticks": 767520,
          "time": 639.6,
          "velocity": 0.6771653543307087
        },
        {
          "duration": 0.06666666666671972,
          "durationTicks": 80,
          "midi": 76,
          "name": "E5",
          "ticks": 767760,
          "time": 639.8000000000001,
          "velocity": 0.6771653543307087
        },
        {
          "duration": 0.6000000000000227,
          "durationTicks": 720,
          "midi": 74,
          "name": "D5",
          "ticks": 768000,
          "time": 640,
          "velocity": 0.6771653543307087
        },
        {
          "duration": 0.10000000000002274,
          "durationTicks": 120,
          "midi": 76,
          "name": "E5",
          "ticks": 768720,
          "time": 640.6,
          "velocity": 0.6771653543307087
        },
        {
          "duration": 0.09666666666657875,
          "durationTicks": 116,
          "midi": 77,
          "name": "F5",
          "ticks": 768840,
          "time": 640.7,
          "velocity": 0.6771653543307087
        },
        {
          "duration": 0.6000000000000227,
          "durationTicks": 720,
          "midi": 67,
          "name": "G4",
          "ticks": 768960,
          "time": 640.8000000000001,
          "velocity": 0.6771653543307087
        },
        {
          "duration": 0.09999999999990905,
          "durationTicks": 120,
          "midi": 69,
          "name": "A4",
          "ticks": 769680,
          "time": 641.4000000000001,
          "velocity": 0.6771653543307087
        },
        {
          "duration": 0.09666666666669244,
          "durationTicks": 116,
          "midi": 71,
          "name": "B4",
          "ticks": 769800,
          "time": 641.5,
          "velocity": 0.6771653543307087
        },
        {
          "duration": 0.1966666666666015,
          "durationTicks": 236,
          "midi": 72,
          "name": "C5",
          "ticks": 769920,
          "time": 641.6,
          "velocity": 0.6771653543307087
        },
        {
          "duration": 0.33333333333325754,
          "durationTicks": 400,
          "midi": 84,
          "name": "C6",
          "ticks": 770160,
          "time": 641.8000000000001,
          "velocity": 0.6771653543307087
        },
        {
          "duration": 0.33333333333325754,
          "durationTicks": 400,
          "midi": 84,
          "name": "C6",
          "ticks": 770640,
          "time": 642.2,
          "velocity": 0.6771653543307087
        },
        {
          "duration": 0.33333333333337123,
          "durationTicks": 400,
          "midi": 84,
          "name": "C6",
          "ticks": 771120,
          "time": 642.6,
          "velocity": 0.6771653543307087
        },
        {
          "duration": 0.20000000000004547,
          "durationTicks": 240,
          "midi": 84,
          "name": "C6",
          "ticks": 771600,
          "time": 643,
          "velocity": 0.6771653543307087
        },
        {
          "duration": 0.1966666666666015,
          "durationTicks": 236,
          "midi": 84,
          "name": "C6",
          "ticks": 771840,
          "time": 643.2,
          "velocity": 0.6771653543307087
        },
        {
          "duration": 0.33333333333325754,
          "durationTicks": 400,
          "midi": 84,
          "name": "C6",
          "ticks": 772080,
          "time": 643.4000000000001,
          "velocity": 0.6771653543307087
        },
        {
          "duration": 0.33333333333325754,
          "durationTicks": 400,
          "midi": 84,
          "name": "C6",
          "ticks": 772560,
          "time": 643.8000000000001,
          "velocity": 0.6771653543307087
        },
        {
          "duration": 0.33333333333325754,
          "durationTicks": 400,
          "midi": 84,
          "name": "C6",
          "ticks": 773040,
          "time": 644.2,
          "velocity": 0.6771653543307087
        },
        {
          "duration": 0.20000000000004547,
          "durationTicks": 240,
          "midi": 84,
          "name": "C6",
          "ticks": 773520,
          "time": 644.6,
          "velocity": 0.6771653543307087
        },
        {
          "duration": 0.1966666666666015,
          "durationTicks": 236,
          "midi": 84,
          "name": "C6",
          "ticks": 773760,
          "time": 644.8000000000001,
          "velocity": 0.6771653543307087
        },
        {
          "duration": 0.33333333333337123,
          "durationTicks": 400,
          "midi": 84,
          "name": "C6",
          "ticks": 774000,
          "time": 645,
          "velocity": 0.6771653543307087
        },
        {
          "duration": 0.33333333333325754,
          "durationTicks": 400,
          "midi": 84,
          "name": "C6",
          "ticks": 774480,
          "time": 645.4000000000001,
          "velocity": 0.6771653543307087
        },
        {
          "duration": 0.33333333333325754,
          "durationTicks": 400,
          "midi": 84,
          "name": "C6",
          "ticks": 774960,
          "time": 645.8000000000001,
          "velocity": 0.6771653543307087
        },
        {
          "duration": 0.1966666666666015,
          "durationTicks": 236,
          "midi": 84,
          "name": "C6",
          "ticks": 775440,
          "time": 646.2,
          "velocity": 0.6771653543307087
        },
        {
          "duration": 0.33333333333325754,
          "durationTicks": 400,
          "midi": 84,
          "name": "C6",
          "ticks": 775680,
          "time": 646.4000000000001,
          "velocity": 0.6771653543307087
        },
        {
          "duration": 0.33333333333325754,
          "durationTicks": 400,
          "midi": 85,
          "name": "C#6",
          "ticks": 776160,
          "time": 646.8000000000001,
          "velocity": 0.6771653543307087
        },
        {
          "duration": 0.33333333333325754,
          "durationTicks": 400,
          "midi": 86,
          "name": "D6",
          "ticks": 776640,
          "time": 647.2,
          "velocity": 0.6771653543307087
        },
        {
          "duration": 0.33333333333337123,
          "durationTicks": 400,
          "midi": 88,
          "name": "E6",
          "ticks": 777120,
          "time": 647.6,
          "velocity": 0.6771653543307087
        },
        {
          "duration": 0.19666666666671517,
          "durationTicks": 236,
          "midi": 89,
          "name": "F6",
          "ticks": 777600,
          "time": 648,
          "velocity": 0.6771653543307087
        },
        {
          "duration": 0.33333333333325754,
          "durationTicks": 400,
          "midi": 89,
          "name": "F6",
          "ticks": 777840,
          "time": 648.2,
          "velocity": 0.6771653543307087
        },
        {
          "duration": 0.33333333333337123,
          "durationTicks": 400,
          "midi": 89,
          "name": "F6",
          "ticks": 778320,
          "time": 648.6,
          "velocity": 0.6771653543307087
        },
        {
          "duration": 0.33333333333337123,
          "durationTicks": 400,
          "midi": 89,
          "name": "F6",
          "ticks": 778800,
          "time": 649,
          "velocity": 0.6771653543307087
        },
        {
          "duration": 0.39999999999997726,
          "durationTicks": 480,
          "midi": 89,
          "name": "F6",
          "ticks": 779280,
          "time": 649.4000000000001,
          "velocity": 0.6771653543307087
        },
        {
          "duration": 0.1999999999999318,
          "durationTicks": 240,
          "midi": 86,
          "name": "D6",
          "ticks": 779760,
          "time": 649.8000000000001,
          "velocity": 0.4015748031496063
        },
        {
          "duration": 0.20000000000004547,
          "durationTicks": 240,
          "midi": 83,
          "name": "B5",
          "ticks": 780000,
          "time": 650,
          "velocity": 0.4015748031496063
        },
        {
          "duration": 0.20000000000004547,
          "durationTicks": 240,
          "midi": 79,
          "name": "G5",
          "ticks": 780240,
          "time": 650.2,
          "velocity": 0.4015748031496063
        },
        {
          "duration": 0.1999999999999318,
          "durationTicks": 240,
          "midi": 77,
          "name": "F5",
          "ticks": 780480,
          "time": 650.4000000000001,
          "velocity": 0.4015748031496063
        },
        {
          "duration": 0.20000000000004547,
          "durationTicks": 240,
          "midi": 74,
          "name": "D5",
          "ticks": 780720,
          "time": 650.6,
          "velocity": 0.4015748031496063
        },
        {
          "duration": 0.1999999999999318,
          "durationTicks": 240,
          "midi": 71,
          "name": "B4",
          "ticks": 780960,
          "time": 650.8000000000001,
          "velocity": 0.4015748031496063
        },
        {
          "duration": 0.19666666666671517,
          "durationTicks": 236,
          "midi": 67,
          "name": "G4",
          "ticks": 781200,
          "time": 651,
          "velocity": 0.4015748031496063
        },
        {
          "duration": 0.33333333333325754,
          "durationTicks": 400,
          "midi": 65,
          "name": "F4",
          "ticks": 781440,
          "time": 651.2,
          "velocity": 0.4015748031496063
        },
        {
          "duration": 0.1999999999999318,
          "durationTicks": 240,
          "midi": 67,
          "name": "G4",
          "ticks": 784080,
          "time": 653.4000000000001,
          "velocity": 0.4015748031496063
        },
        {
          "duration": 0.33333333333337123,
          "durationTicks": 400,
          "midi": 76,
          "name": "E5",
          "ticks": 784320,
          "time": 653.6,
          "velocity": 0.4015748031496063
        },
        {
          "duration": 0.06666666666671972,
          "durationTicks": 80,
          "midi": 76,
          "name": "E5",
          "ticks": 784800,
          "time": 654,
          "velocity": 0.4015748031496063
        },
        {
          "duration": 0.06666666666671972,
          "durationTicks": 80,
          "midi": 76,
          "name": "E5",
          "ticks": 785040,
          "time": 654.2,
          "velocity": 0.4015748031496063
        },
        {
          "duration": 0.1999999999999318,
          "durationTicks": 240,
          "midi": 76,
          "name": "E5",
          "ticks": 785280,
          "time": 654.4000000000001,
          "velocity": 0.4015748031496063
        },
        {
          "duration": 0.1966666666666015,
          "durationTicks": 236,
          "midi": 74,
          "name": "D5",
          "ticks": 785520,
          "time": 654.6,
          "velocity": 0.4015748031496063
        },
        {
          "duration": 0.06666666666671972,
          "durationTicks": 80,
          "midi": 74,
          "name": "D5",
          "ticks": 785760,
          "time": 654.8000000000001,
          "velocity": 0.4015748031496063
        },
        {
          "duration": 0.06666666666671972,
          "durationTicks": 80,
          "midi": 74,
          "name": "D5",
          "ticks": 786000,
          "time": 655,
          "velocity": 0.4015748031496063
        },
        {
          "duration": 0.049999999999954525,
          "durationTicks": 60,
          "midi": 76,
          "name": "E5",
          "ticks": 786240,
          "time": 655.2,
          "velocity": 0.4015748031496063
        },
        {
          "duration": 0.10000000000002274,
          "durationTicks": 120,
          "midi": 74,
          "name": "D5",
          "ticks": 786300,
          "time": 655.25,
          "velocity": 0.4015748031496063
        },
        {
          "duration": 0.06666666666660603,
          "durationTicks": 80,
          "midi": 72,
          "name": "C5",
          "ticks": 786480,
          "time": 655.4000000000001,
          "velocity": 0.4015748031496063
        },
        {
          "duration": 0.06666666666671972,
          "durationTicks": 80,
          "midi": 74,
          "name": "D5",
          "ticks": 786720,
          "time": 655.6,
          "velocity": 0.4015748031496063
        },
        {
          "duration": 0.06666666666671972,
          "durationTicks": 80,
          "midi": 76,
          "name": "E5",
          "ticks": 786960,
          "time": 655.8000000000001,
          "velocity": 0.4015748031496063
        },
        {
          "duration": 0.40000000000009095,
          "durationTicks": 480,
          "midi": 72,
          "name": "C5",
          "ticks": 787200,
          "time": 656,
          "velocity": 0.4015748031496063
        },
        {
          "duration": 0.1966666666666015,
          "durationTicks": 236,
          "midi": 67,
          "name": "G4",
          "ticks": 787680,
          "time": 656.4000000000001,
          "velocity": 0.4015748031496063
        },
        {
          "duration": 0.06666666666671972,
          "durationTicks": 80,
          "midi": 67,
          "name": "G4",
          "ticks": 787920,
          "time": 656.6,
          "velocity": 0.4015748031496063
        },
        {
          "duration": 0.1999999999999318,
          "durationTicks": 240,
          "midi": 67,
          "name": "G4",
          "ticks": 788160,
          "time": 656.8000000000001,
          "velocity": 0.4015748031496063
        },
        {
          "duration": 0.19666666666671517,
          "durationTicks": 236,
          "midi": 76,
          "name": "E5",
          "ticks": 788400,
          "time": 657,
          "velocity": 0.4015748031496063
        },
        {
          "duration": 0.06666666666671972,
          "durationTicks": 80,
          "midi": 76,
          "name": "E5",
          "ticks": 788640,
          "time": 657.2,
          "velocity": 0.4015748031496063
        },
        {
          "duration": 0.06666666666660603,
          "durationTicks": 80,
          "midi": 76,
          "name": "E5",
          "ticks": 788880,
          "time": 657.4000000000001,
          "velocity": 0.4015748031496063
        },
        {
          "duration": 0.20000000000004547,
          "durationTicks": 240,
          "midi": 76,
          "name": "E5",
          "ticks": 789120,
          "time": 657.6,
          "velocity": 0.4015748031496063
        },
        {
          "duration": 0.1966666666666015,
          "durationTicks": 236,
          "midi": 74,
          "name": "D5",
          "ticks": 789360,
          "time": 657.8000000000001,
          "velocity": 0.4015748031496063
        },
        {
          "duration": 0.06666666666671972,
          "durationTicks": 80,
          "midi": 74,
          "name": "D5",
          "ticks": 789600,
          "time": 658,
          "velocity": 0.4015748031496063
        },
        {
          "duration": 0.06666666666671972,
          "durationTicks": 80,
          "midi": 74,
          "name": "D5",
          "ticks": 789840,
          "time": 658.2,
          "velocity": 0.4015748031496063
        },
        {
          "duration": 0.049999999999954525,
          "durationTicks": 60,
          "midi": 76,
          "name": "E5",
          "ticks": 790080,
          "time": 658.4000000000001,
          "velocity": 0.4015748031496063
        },
        {
          "duration": 0.10000000000002274,
          "durationTicks": 120,
          "midi": 74,
          "name": "D5",
          "ticks": 790140,
          "time": 658.45,
          "velocity": 0.4015748031496063
        },
        {
          "duration": 0.06666666666671972,
          "durationTicks": 80,
          "midi": 72,
          "name": "C5",
          "ticks": 790320,
          "time": 658.6,
          "velocity": 0.4015748031496063
        },
        {
          "duration": 0.06666666666671972,
          "durationTicks": 80,
          "midi": 74,
          "name": "D5",
          "ticks": 790560,
          "time": 658.8000000000001,
          "velocity": 0.4015748031496063
        },
        {
          "duration": 0.06666666666671972,
          "durationTicks": 80,
          "midi": 76,
          "name": "E5",
          "ticks": 790800,
          "time": 659,
          "velocity": 0.4015748031496063
        },
        {
          "duration": 0.39999999999997726,
          "durationTicks": 480,
          "midi": 72,
          "name": "C5",
          "ticks": 791040,
          "time": 659.2,
          "velocity": 0.4015748031496063
        },
        {
          "duration": 0.1966666666666015,
          "durationTicks": 236,
          "midi": 79,
          "name": "G5",
          "ticks": 791520,
          "time": 659.6,
          "velocity": 0.4015748031496063
        },
        {
          "duration": 0.06666666666671972,
          "durationTicks": 80,
          "midi": 67,
          "name": "G4",
          "ticks": 791760,
          "time": 659.8000000000001,
          "velocity": 0.4015748031496063
        },
        {
          "duration": 0.20000000000004547,
          "durationTicks": 240,
          "midi": 67,
          "name": "G4",
          "ticks": 792000,
          "time": 660,
          "velocity": 0.4015748031496063
        },
        {
          "duration": 0.1966666666666015,
          "durationTicks": 236,
          "midi": 76,
          "name": "E5",
          "ticks": 792240,
          "time": 660.2,
          "velocity": 0.4015748031496063
        },
        {
          "duration": 0.06666666666660603,
          "durationTicks": 80,
          "midi": 76,
          "name": "E5",
          "ticks": 792480,
          "time": 660.4000000000001,
          "velocity": 0.4015748031496063
        },
        {
          "duration": 0.06666666666671972,
          "durationTicks": 80,
          "midi": 76,
          "name": "E5",
          "ticks": 792720,
          "time": 660.6,
          "velocity": 0.4015748031496063
        },
        {
          "duration": 0.1999999999999318,
          "durationTicks": 240,
          "midi": 76,
          "name": "E5",
          "ticks": 792960,
          "time": 660.8000000000001,
          "velocity": 0.4015748031496063
        },
        {
          "duration": 0.19666666666671517,
          "durationTicks": 236,
          "midi": 74,
          "name": "D5",
          "ticks": 793200,
          "time": 661,
          "velocity": 0.4015748031496063
        },
        {
          "duration": 0.06666666666671972,
          "durationTicks": 80,
          "midi": 74,
          "name": "D5",
          "ticks": 793440,
          "time": 661.2,
          "velocity": 0.4015748031496063
        },
        {
          "duration": 0.06666666666660603,
          "durationTicks": 80,
          "midi": 74,
          "name": "D5",
          "ticks": 793680,
          "time": 661.4000000000001,
          "velocity": 0.4015748031496063
        },
        {
          "duration": 0.05000000000006821,
          "durationTicks": 60,
          "midi": 76,
          "name": "E5",
          "ticks": 793920,
          "time": 661.6,
          "velocity": 0.4015748031496063
        },
        {
          "duration": 0.09999999999990905,
          "durationTicks": 120,
          "midi": 74,
          "name": "D5",
          "ticks": 793980,
          "time": 661.6500000000001,
          "velocity": 0.4015748031496063
        },
        {
          "duration": 0.06666666666671972,
          "durationTicks": 80,
          "midi": 72,
          "name": "C5",
          "ticks": 794160,
          "time": 661.8000000000001,
          "velocity": 0.4015748031496063
        },
        {
          "duration": 0.06666666666671972,
          "durationTicks": 80,
          "midi": 74,
          "name": "D5",
          "ticks": 794400,
          "time": 662,
          "velocity": 0.4015748031496063
        },
        {
          "duration": 0.06666666666671972,
          "durationTicks": 80,
          "midi": 76,
          "name": "E5",
          "ticks": 794640,
          "time": 662.2,
          "velocity": 0.4015748031496063
        },
        {
          "duration": 0.599999999999909,
          "durationTicks": 720,
          "midi": 72,
          "name": "C5",
          "ticks": 794880,
          "time": 662.4000000000001,
          "velocity": 0.4015748031496063
        },
        {
          "duration": 0.19666666666671517,
          "durationTicks": 236,
          "midi": 76,
          "name": "E5",
          "ticks": 795600,
          "time": 663,
          "velocity": 0.4015748031496063
        },
        {
          "duration": 0.6000000000000227,
          "durationTicks": 720,
          "midi": 69,
          "name": "A4",
          "ticks": 795840,
          "time": 663.2,
          "velocity": 0.4015748031496063
        },
        {
          "duration": 0.1966666666666015,
          "durationTicks": 236,
          "midi": 77,
          "name": "F5",
          "ticks": 796560,
          "time": 663.8000000000001,
          "velocity": 0.4015748031496063
        },
        {
          "duration": 0.20000000000004547,
          "durationTicks": 240,
          "midi": 74,
          "name": "D5",
          "ticks": 796800,
          "time": 664,
          "velocity": 0.4015748031496063
        },
        {
          "duration": 0.1966666666666015,
          "durationTicks": 236,
          "midi": 81,
          "name": "A5",
          "ticks": 797040,
          "time": 664.2,
          "velocity": 0.4015748031496063
        },
        {
          "duration": 0.06666666666660603,
          "durationTicks": 80,
          "midi": 77,
          "name": "F5",
          "ticks": 797280,
          "time": 664.4000000000001,
          "velocity": 0.4015748031496063
        },
        {
          "duration": 0.06666666666671972,
          "durationTicks": 80,
          "midi": 74,
          "name": "D5",
          "ticks": 797520,
          "time": 664.6,
          "velocity": 0.4015748031496063
        },
        {
          "duration": 0.06666666666671972,
          "durationTicks": 80,
          "midi": 71,
          "name": "B4",
          "ticks": 797760,
          "time": 664.8000000000001,
          "velocity": 0.4015748031496063
        },
        {
          "duration": 0.06666666666671972,
          "durationTicks": 80,
          "midi": 72,
          "name": "C5",
          "ticks": 798000,
          "time": 665,
          "velocity": 0.4015748031496063
        },
        {
          "duration": 0.06666666666671972,
          "durationTicks": 80,
          "midi": 74,
          "name": "D5",
          "ticks": 798240,
          "time": 665.2,
          "velocity": 0.4015748031496063
        },
        {
          "duration": 0.06666666666660603,
          "durationTicks": 80,
          "midi": 76,
          "name": "E5",
          "ticks": 798480,
          "time": 665.4000000000001,
          "velocity": 0.4015748031496063
        },
        {
          "duration": 0.6000000000000227,
          "durationTicks": 720,
          "midi": 72,
          "name": "C5",
          "ticks": 798720,
          "time": 665.6,
          "velocity": 0.4015748031496063
        },
        {
          "duration": 0.1966666666666015,
          "durationTicks": 236,
          "midi": 76,
          "name": "E5",
          "ticks": 799440,
          "time": 666.2,
          "velocity": 0.4015748031496063
        },
        {
          "duration": 0.599999999999909,
          "durationTicks": 720,
          "midi": 69,
          "name": "A4",
          "ticks": 799680,
          "time": 666.4000000000001,
          "velocity": 0.4015748031496063
        },
        {
          "duration": 0.19666666666671517,
          "durationTicks": 236,
          "midi": 77,
          "name": "F5",
          "ticks": 800400,
          "time": 667,
          "velocity": 0.4015748031496063
        },
        {
          "duration": 0.20000000000004547,
          "durationTicks": 240,
          "midi": 74,
          "name": "D5",
          "ticks": 800640,
          "time": 667.2,
          "velocity": 0.4015748031496063
        },
        {
          "duration": 0.1966666666666015,
          "durationTicks": 236,
          "midi": 81,
          "name": "A5",
          "ticks": 800880,
          "time": 667.4000000000001,
          "velocity": 0.4015748031496063
        },
        {
          "duration": 0.06666666666671972,
          "durationTicks": 80,
          "midi": 77,
          "name": "F5",
          "ticks": 801120,
          "time": 667.6,
          "velocity": 0.4015748031496063
        },
        {
          "duration": 0.06666666666671972,
          "durationTicks": 80,
          "midi": 74,
          "name": "D5",
          "ticks": 801360,
          "time": 667.8000000000001,
          "velocity": 0.4015748031496063
        },
        {
          "duration": 0.06666666666671972,
          "durationTicks": 80,
          "midi": 71,
          "name": "B4",
          "ticks": 801600,
          "time": 668,
          "velocity": 0.4015748031496063
        },
        {
          "duration": 0.06666666666671972,
          "durationTicks": 80,
          "midi": 72,
          "name": "C5",
          "ticks": 801840,
          "time": 668.2,
          "velocity": 0.4015748031496063
        },
        {
          "duration": 0.06666666666660603,
          "durationTicks": 80,
          "midi": 74,
          "name": "D5",
          "ticks": 802080,
          "time": 668.4000000000001,
          "velocity": 0.4015748031496063
        },
        {
          "duration": 0.06666666666671972,
          "durationTicks": 80,
          "midi": 76,
          "name": "E5",
          "ticks": 802320,
          "time": 668.6,
          "velocity": 0.4015748031496063
        },
        {
          "duration": 0.1966666666666015,
          "durationTicks": 236,
          "midi": 72,
          "name": "C5",
          "ticks": 802560,
          "time": 668.8000000000001,
          "velocity": 0.4015748031496063
        },
        {
          "duration": 0.09666666666657875,
          "durationTicks": 116,
          "midi": 79,
          "name": "G5",
          "ticks": 803040,
          "time": 669.2,
          "velocity": 0.8267716535433071
        },
        {
          "duration": 0.09666666666657875,
          "durationTicks": 116,
          "midi": 79,
          "name": "G5",
          "ticks": 803160,
          "time": 669.3000000000001,
          "velocity": 0.8267716535433071
        },
        {
          "duration": 0.09666666666657875,
          "durationTicks": 116,
          "midi": 78,
          "name": "F#5",
          "ticks": 803280,
          "time": 669.4000000000001,
          "velocity": 0.8267716535433071
        },
        {
          "duration": 0.09666666666669244,
          "durationTicks": 116,
          "midi": 78,
          "name": "F#5",
          "ticks": 803400,
          "time": 669.5,
          "velocity": 0.8267716535433071
        },
        {
          "duration": 0.09666666666669244,
          "durationTicks": 116,
          "midi": 79,
          "name": "G5",
          "ticks": 803520,
          "time": 669.6,
          "velocity": 0.8267716535433071
        },
        {
          "duration": 0.09666666666657875,
          "durationTicks": 116,
          "midi": 79,
          "name": "G5",
          "ticks": 803640,
          "time": 669.7,
          "velocity": 0.8267716535433071
        },
        {
          "duration": 0.09666666666657875,
          "durationTicks": 116,
          "midi": 78,
          "name": "F#5",
          "ticks": 803760,
          "time": 669.8000000000001,
          "velocity": 0.8267716535433071
        },
        {
          "duration": 0.09666666666657875,
          "durationTicks": 116,
          "midi": 78,
          "name": "F#5",
          "ticks": 803880,
          "time": 669.9000000000001,
          "velocity": 0.8267716535433071
        },
        {
          "duration": 0.09666666666669244,
          "durationTicks": 116,
          "midi": 79,
          "name": "G5",
          "ticks": 804000,
          "time": 670,
          "velocity": 0.8267716535433071
        },
        {
          "duration": 0.09666666666669244,
          "durationTicks": 116,
          "midi": 79,
          "name": "G5",
          "ticks": 804120,
          "time": 670.1,
          "velocity": 0.8267716535433071
        },
        {
          "duration": 0.09666666666657875,
          "durationTicks": 116,
          "midi": 76,
          "name": "E5",
          "ticks": 804240,
          "time": 670.2,
          "velocity": 0.8267716535433071
        },
        {
          "duration": 0.09666666666657875,
          "durationTicks": 116,
          "midi": 76,
          "name": "E5",
          "ticks": 804360,
          "time": 670.3000000000001,
          "velocity": 0.8267716535433071
        },
        {
          "duration": 0.1966666666666015,
          "durationTicks": 236,
          "midi": 77,
          "name": "F5",
          "ticks": 804480,
          "time": 670.4000000000001,
          "velocity": 0.8267716535433071
        },
        {
          "duration": 0.09666666666657875,
          "durationTicks": 116,
          "midi": 77,
          "name": "F5",
          "ticks": 804960,
          "time": 670.8000000000001,
          "velocity": 0.8267716535433071
        },
        {
          "duration": 0.09666666666657875,
          "durationTicks": 116,
          "midi": 77,
          "name": "F5",
          "ticks": 805080,
          "time": 670.9000000000001,
          "velocity": 0.8267716535433071
        },
        {
          "duration": 0.09666666666669244,
          "durationTicks": 116,
          "midi": 76,
          "name": "E5",
          "ticks": 805200,
          "time": 671,
          "velocity": 0.8267716535433071
        },
        {
          "duration": 0.09666666666669244,
          "durationTicks": 116,
          "midi": 76,
          "name": "E5",
          "ticks": 805320,
          "time": 671.1,
          "velocity": 0.8267716535433071
        },
        {
          "duration": 0.09666666666657875,
          "durationTicks": 116,
          "midi": 77,
          "name": "F5",
          "ticks": 805440,
          "time": 671.2,
          "velocity": 0.8267716535433071
        },
        {
          "duration": 0.09666666666657875,
          "durationTicks": 116,
          "midi": 77,
          "name": "F5",
          "ticks": 805560,
          "time": 671.3000000000001,
          "velocity": 0.8267716535433071
        },
        {
          "duration": 0.09666666666657875,
          "durationTicks": 116,
          "midi": 76,
          "name": "E5",
          "ticks": 805680,
          "time": 671.4000000000001,
          "velocity": 0.8267716535433071
        },
        {
          "duration": 0.09666666666669244,
          "durationTicks": 116,
          "midi": 76,
          "name": "E5",
          "ticks": 805800,
          "time": 671.5,
          "velocity": 0.8267716535433071
        },
        {
          "duration": 0.09666666666669244,
          "durationTicks": 116,
          "midi": 77,
          "name": "F5",
          "ticks": 805920,
          "time": 671.6,
          "velocity": 0.8267716535433071
        },
        {
          "duration": 0.09666666666657875,
          "durationTicks": 116,
          "midi": 77,
          "name": "F5",
          "ticks": 806040,
          "time": 671.7,
          "velocity": 0.8267716535433071
        },
        {
          "duration": 0.09666666666657875,
          "durationTicks": 116,
          "midi": 74,
          "name": "D5",
          "ticks": 806160,
          "time": 671.8000000000001,
          "velocity": 0.8267716535433071
        },
        {
          "duration": 0.09666666666657875,
          "durationTicks": 116,
          "midi": 74,
          "name": "D5",
          "ticks": 806280,
          "time": 671.9000000000001,
          "velocity": 0.8267716535433071
        },
        {
          "duration": 0.19666666666671517,
          "durationTicks": 236,
          "midi": 76,
          "name": "E5",
          "ticks": 806400,
          "time": 672,
          "velocity": 0.8267716535433071
        },
        {
          "duration": 0.049999999999954525,
          "durationTicks": 60,
          "midi": 74,
          "name": "D5",
          "ticks": 806880,
          "time": 672.4000000000001,
          "velocity": 0.8267716535433071
        },
        {
          "duration": 0.049999999999954525,
          "durationTicks": 60,
          "midi": 72,
          "name": "C5",
          "ticks": 806940,
          "time": 672.45,
          "velocity": 0.8267716535433071
        },
        {
          "duration": 0.05000000000006821,
          "durationTicks": 60,
          "midi": 74,
          "name": "D5",
          "ticks": 807000,
          "time": 672.5,
          "velocity": 0.8267716535433071
        },
        {
          "duration": 0.049999999999954525,
          "durationTicks": 60,
          "midi": 72,
          "name": "C5",
          "ticks": 807060,
          "time": 672.5500000000001,
          "velocity": 0.8267716535433071
        },
        {
          "duration": 0.10000000000002274,
          "durationTicks": 120,
          "midi": 71,
          "name": "B4",
          "ticks": 807120,
          "time": 672.6,
          "velocity": 0.8267716535433071
        },
        {
          "duration": 0.10000000000002274,
          "durationTicks": 120,
          "midi": 72,
          "name": "C5",
          "ticks": 807240,
          "time": 672.7,
          "velocity": 0.8267716535433071
        },
        {
          "duration": 0.1966666666666015,
          "durationTicks": 236,
          "midi": 81,
          "name": "A5",
          "ticks": 807360,
          "time": 672.8000000000001,
          "velocity": 0.8267716535433071
        },
        {
          "duration": 0.13333333333332575,
          "durationTicks": 160,
          "midi": 81,
          "name": "A5",
          "ticks": 807600,
          "time": 673,
          "velocity": 0.8267716535433071
        },
        {
          "duration": 0.13333333333332575,
          "durationTicks": 160,
          "midi": 71,
          "name": "B4",
          "ticks": 807840,
          "time": 673.2,
          "velocity": 0.8267716535433071
        },
        {
          "duration": 0.13333333333321207,
          "durationTicks": 160,
          "midi": 71,
          "name": "B4",
          "ticks": 808080,
          "time": 673.4000000000001,
          "velocity": 0.8267716535433071
        },
        {
          "duration": 0.1966666666666015,
          "durationTicks": 236,
          "midi": 72,
          "name": "C5",
          "ticks": 808320,
          "time": 673.6,
          "velocity": 0.8267716535433071
        },
        {
          "duration": 0.09666666666669244,
          "durationTicks": 116,
          "midi": 79,
          "name": "G5",
          "ticks": 808800,
          "time": 674,
          "velocity": 0.8267716535433071
        },
        {
          "duration": 0.09666666666669244,
          "durationTicks": 116,
          "midi": 79,
          "name": "G5",
          "ticks": 808920,
          "time": 674.1,
          "velocity": 0.8267716535433071
        },
        {
          "duration": 0.09666666666657875,
          "durationTicks": 116,
          "midi": 78,
          "name": "F#5",
          "ticks": 809040,
          "time": 674.2,
          "velocity": 0.8267716535433071
        },
        {
          "duration": 0.09666666666657875,
          "durationTicks": 116,
          "midi": 78,
          "name": "F#5",
          "ticks": 809160,
          "time": 674.3000000000001,
          "velocity": 0.8267716535433071
        },
        {
          "duration": 0.09666666666657875,
          "durationTicks": 116,
          "midi": 79,
          "name": "G5",
          "ticks": 809280,
          "time": 674.4000000000001,
          "velocity": 0.8267716535433071
        },
        {
          "duration": 0.09666666666669244,
          "durationTicks": 116,
          "midi": 79,
          "name": "G5",
          "ticks": 809400,
          "time": 674.5,
          "velocity": 0.8267716535433071
        },
        {
          "duration": 0.09666666666669244,
          "durationTicks": 116,
          "midi": 78,
          "name": "F#5",
          "ticks": 809520,
          "time": 674.6,
          "velocity": 0.8267716535433071
        },
        {
          "duration": 0.09666666666657875,
          "durationTicks": 116,
          "midi": 78,
          "name": "F#5",
          "ticks": 809640,
          "time": 674.7,
          "velocity": 0.8267716535433071
        },
        {
          "duration": 0.09666666666657875,
          "durationTicks": 116,
          "midi": 79,
          "name": "G5",
          "ticks": 809760,
          "time": 674.8000000000001,
          "velocity": 0.8267716535433071
        },
        {
          "duration": 0.09666666666657875,
          "durationTicks": 116,
          "midi": 79,
          "name": "G5",
          "ticks": 809880,
          "time": 674.9000000000001,
          "velocity": 0.8267716535433071
        },
        {
          "duration": 0.09666666666669244,
          "durationTicks": 116,
          "midi": 88,
          "name": "E6",
          "ticks": 810000,
          "time": 675,
          "velocity": 0.8267716535433071
        },
        {
          "duration": 0.09666666666669244,
          "durationTicks": 116,
          "midi": 88,
          "name": "E6",
          "ticks": 810120,
          "time": 675.1,
          "velocity": 0.8267716535433071
        },
        {
          "duration": 0.1966666666666015,
          "durationTicks": 236,
          "midi": 77,
          "name": "F5",
          "ticks": 810240,
          "time": 675.2,
          "velocity": 0.8267716535433071
        },
        {
          "duration": 0.09666666666669244,
          "durationTicks": 116,
          "midi": 77,
          "name": "F5",
          "ticks": 810720,
          "time": 675.6,
          "velocity": 0.8267716535433071
        },
        {
          "duration": 0.09666666666657875,
          "durationTicks": 116,
          "midi": 77,
          "name": "F5",
          "ticks": 810840,
          "time": 675.7,
          "velocity": 0.8267716535433071
        },
        {
          "duration": 0.09666666666657875,
          "durationTicks": 116,
          "midi": 76,
          "name": "E5",
          "ticks": 810960,
          "time": 675.8000000000001,
          "velocity": 0.8267716535433071
        },
        {
          "duration": 0.09666666666657875,
          "durationTicks": 116,
          "midi": 76,
          "name": "E5",
          "ticks": 811080,
          "time": 675.9000000000001,
          "velocity": 0.8267716535433071
        },
        {
          "duration": 0.09666666666669244,
          "durationTicks": 116,
          "midi": 77,
          "name": "F5",
          "ticks": 811200,
          "time": 676,
          "velocity": 0.8267716535433071
        },
        {
          "duration": 0.09666666666669244,
          "durationTicks": 116,
          "midi": 77,
          "name": "F5",
          "ticks": 811320,
          "time": 676.1,
          "velocity": 0.8267716535433071
        },
        {
          "duration": 0.09666666666657875,
          "durationTicks": 116,
          "midi": 76,
          "name": "E5",
          "ticks": 811440,
          "time": 676.2,
          "velocity": 0.8267716535433071
        },
        {
          "duration": 0.09666666666657875,
          "durationTicks": 116,
          "midi": 76,
          "name": "E5",
          "ticks": 811560,
          "time": 676.3000000000001,
          "velocity": 0.8267716535433071
        },
        {
          "duration": 0.09666666666657875,
          "durationTicks": 116,
          "midi": 77,
          "name": "F5",
          "ticks": 811680,
          "time": 676.4000000000001,
          "velocity": 0.8267716535433071
        },
        {
          "duration": 0.09666666666669244,
          "durationTicks": 116,
          "midi": 77,
          "name": "F5",
          "ticks": 811800,
          "time": 676.5,
          "velocity": 0.8267716535433071
        },
        {
          "duration": 0.09666666666669244,
          "durationTicks": 116,
          "midi": 86,
          "name": "D6",
          "ticks": 811920,
          "time": 676.6,
          "velocity": 0.8267716535433071
        },
        {
          "duration": 0.09666666666657875,
          "durationTicks": 116,
          "midi": 86,
          "name": "D6",
          "ticks": 812040,
          "time": 676.7,
          "velocity": 0.8267716535433071
        },
        {
          "duration": 0.1966666666666015,
          "durationTicks": 236,
          "midi": 76,
          "name": "E5",
          "ticks": 812160,
          "time": 676.8000000000001,
          "velocity": 0.8267716535433071
        },
        {
          "duration": 0.049999999999954525,
          "durationTicks": 60,
          "midi": 81,
          "name": "A5",
          "ticks": 812640,
          "time": 677.2,
          "velocity": 0.8267716535433071
        },
        {
          "duration": 0.05000000000006821,
          "durationTicks": 60,
          "midi": 79,
          "name": "G5",
          "ticks": 812700,
          "time": 677.25,
          "velocity": 0.8267716535433071
        },
        {
          "duration": 0.049999999999954525,
          "durationTicks": 60,
          "midi": 81,
          "name": "A5",
          "ticks": 812760,
          "time": 677.3000000000001,
          "velocity": 0.8267716535433071
        },
        {
          "duration": 0.05000000000006821,
          "durationTicks": 60,
          "midi": 79,
          "name": "G5",
          "ticks": 812820,
          "time": 677.35,
          "velocity": 0.8267716535433071
        },
        {
          "duration": 0.09999999999990905,
          "durationTicks": 120,
          "midi": 77,
          "name": "F5",
          "ticks": 812880,
          "time": 677.4000000000001,
          "velocity": 0.8267716535433071
        },
        {
          "duration": 0.10000000000002274,
          "durationTicks": 120,
          "midi": 79,
          "name": "G5",
          "ticks": 813000,
          "time": 677.5,
          "velocity": 0.8267716535433071
        },
        {
          "duration": 0.1966666666666015,
          "durationTicks": 236,
          "midi": 81,
          "name": "A5",
          "ticks": 813120,
          "time": 677.6,
          "velocity": 0.8267716535433071
        },
        {
          "duration": 0.13333333333332575,
          "durationTicks": 160,
          "midi": 81,
          "name": "A5",
          "ticks": 813360,
          "time": 677.8000000000001,
          "velocity": 0.8267716535433071
        },
        {
          "duration": 0.13333333333332575,
          "durationTicks": 160,
          "midi": 83,
          "name": "B5",
          "ticks": 813600,
          "time": 678,
          "velocity": 0.8267716535433071
        },
        {
          "duration": 0.13333333333332575,
          "durationTicks": 160,
          "midi": 83,
          "name": "B5",
          "ticks": 813840,
          "time": 678.2,
          "velocity": 0.8267716535433071
        },
        {
          "duration": 0.06666666666660603,
          "durationTicks": 80,
          "midi": 84,
          "name": "C6",
          "ticks": 814080,
          "time": 678.4000000000001,
          "velocity": 0.8267716535433071
        },
        {
          "duration": 0.06666666666671972,
          "durationTicks": 80,
          "midi": 84,
          "name": "C6",
          "ticks": 814320,
          "time": 678.6,
          "velocity": 0.8267716535433071
        },
        {
          "duration": 0.06666666666671972,
          "durationTicks": 80,
          "midi": 81,
          "name": "A5",
          "ticks": 814560,
          "time": 678.8000000000001,
          "velocity": 0.8267716535433071
        },
        {
          "duration": 0.06666666666671972,
          "durationTicks": 80,
          "midi": 81,
          "name": "A5",
          "ticks": 814800,
          "time": 679,
          "velocity": 0.8267716535433071
        },
        {
          "duration": 0.06666666666671972,
          "durationTicks": 80,
          "midi": 79,
          "name": "G5",
          "ticks": 815040,
          "time": 679.2,
          "velocity": 0.8267716535433071
        },
        {
          "duration": 0.06666666666660603,
          "durationTicks": 80,
          "midi": 79,
          "name": "G5",
          "ticks": 815280,
          "time": 679.4000000000001,
          "velocity": 0.8267716535433071
        },
        {
          "duration": 0.06666666666671972,
          "durationTicks": 80,
          "midi": 71,
          "name": "B4",
          "ticks": 815520,
          "time": 679.6,
          "velocity": 0.8267716535433071
        },
        {
          "duration": 0.06666666666671972,
          "durationTicks": 80,
          "midi": 71,
          "name": "B4",
          "ticks": 815760,
          "time": 679.8000000000001,
          "velocity": 0.8267716535433071
        },
        {
          "duration": 0.33333333333337123,
          "durationTicks": 400,
          "midi": 72,
          "name": "C5",
          "ticks": 816000,
          "time": 680,
          "velocity": 0.9763779527559056
        },
        {
          "duration": 0.05000000000006821,
          "durationTicks": 60,
          "midi": 77,
          "name": "F5",
          "ticks": 816720,
          "time": 680.6,
          "velocity": 1
        },
        {
          "duration": 0.049999999999954525,
          "durationTicks": 60,
          "midi": 76,
          "name": "E5",
          "ticks": 816780,
          "time": 680.6500000000001,
          "velocity": 1
        },
        {
          "duration": 0.049999999999954525,
          "durationTicks": 60,
          "midi": 74,
          "name": "D5",
          "ticks": 816840,
          "time": 680.7,
          "velocity": 1
        },
        {
          "duration": 0.05000000000006821,
          "durationTicks": 60,
          "midi": 72,
          "name": "C5",
          "ticks": 816900,
          "time": 680.75,
          "velocity": 1
        },
        {
          "duration": 0.33333333333325754,
          "durationTicks": 400,
          "midi": 71,
          "name": "B4",
          "ticks": 816960,
          "time": 680.8000000000001,
          "velocity": 1
        },
        {
          "duration": 0.049999999999954525,
          "durationTicks": 60,
          "midi": 79,
          "name": "G5",
          "ticks": 817680,
          "time": 681.4000000000001,
          "velocity": 1
        },
        {
          "duration": 0.049999999999954525,
          "durationTicks": 60,
          "midi": 77,
          "name": "F5",
          "ticks": 817740,
          "time": 681.45,
          "velocity": 1
        },
        {
          "duration": 0.05000000000006821,
          "durationTicks": 60,
          "midi": 76,
          "name": "E5",
          "ticks": 817800,
          "time": 681.5,
          "velocity": 1
        },
        {
          "duration": 0.049999999999954525,
          "durationTicks": 60,
          "midi": 74,
          "name": "D5",
          "ticks": 817860,
          "time": 681.5500000000001,
          "velocity": 1
        },
        {
          "duration": 0.33333333333337123,
          "durationTicks": 400,
          "midi": 76,
          "name": "E5",
          "ticks": 817920,
          "time": 681.6,
          "velocity": 1
        },
        {
          "duration": 0.049999999999954525,
          "durationTicks": 60,
          "midi": 77,
          "name": "F5",
          "ticks": 818640,
          "time": 682.2,
          "velocity": 1
        },
        {
          "duration": 0.05000000000006821,
          "durationTicks": 60,
          "midi": 76,
          "name": "E5",
          "ticks": 818700,
          "time": 682.25,
          "velocity": 1
        },
        {
          "duration": 0.049999999999954525,
          "durationTicks": 60,
          "midi": 74,
          "name": "D5",
          "ticks": 818760,
          "time": 682.3000000000001,
          "velocity": 1
        },
        {
          "duration": 0.05000000000006821,
          "durationTicks": 60,
          "midi": 72,
          "name": "C5",
          "ticks": 818820,
          "time": 682.35,
          "velocity": 1
        },
        {
          "duration": 0.33333333333325754,
          "durationTicks": 400,
          "midi": 71,
          "name": "B4",
          "ticks": 818880,
          "time": 682.4000000000001,
          "velocity": 1
        },
        {
          "duration": 0.05000000000006821,
          "durationTicks": 60,
          "midi": 79,
          "name": "G5",
          "ticks": 819600,
          "time": 683,
          "velocity": 1
        },
        {
          "duration": 0.049999999999954525,
          "durationTicks": 60,
          "midi": 77,
          "name": "F5",
          "ticks": 819660,
          "time": 683.0500000000001,
          "velocity": 1
        },
        {
          "duration": 0.05000000000006821,
          "durationTicks": 60,
          "midi": 76,
          "name": "E5",
          "ticks": 819720,
          "time": 683.1,
          "velocity": 1
        },
        {
          "duration": 0.049999999999954525,
          "durationTicks": 60,
          "midi": 74,
          "name": "D5",
          "ticks": 819780,
          "time": 683.1500000000001,
          "velocity": 1
        },
        {
          "duration": 0.33333333333325754,
          "durationTicks": 400,
          "midi": 76,
          "name": "E5",
          "ticks": 819840,
          "time": 683.2,
          "velocity": 1
        },
        {
          "duration": 0.049999999999954525,
          "durationTicks": 60,
          "midi": 77,
          "name": "F5",
          "ticks": 820560,
          "time": 683.8000000000001,
          "velocity": 1
        },
        {
          "duration": 0.05000000000006821,
          "durationTicks": 60,
          "midi": 76,
          "name": "E5",
          "ticks": 820620,
          "time": 683.85,
          "velocity": 1
        },
        {
          "duration": 0.049999999999954525,
          "durationTicks": 60,
          "midi": 74,
          "name": "D5",
          "ticks": 820680,
          "time": 683.9000000000001,
          "velocity": 1
        },
        {
          "duration": 0.049999999999954525,
          "durationTicks": 60,
          "midi": 72,
          "name": "C5",
          "ticks": 820740,
          "time": 683.95,
          "velocity": 1
        },
        {
          "duration": 0.33333333333337123,
          "durationTicks": 400,
          "midi": 71,
          "name": "B4",
          "ticks": 820800,
          "time": 684,
          "velocity": 1
        },
        {
          "duration": 0.05000000000006821,
          "durationTicks": 60,
          "midi": 79,
          "name": "G5",
          "ticks": 821520,
          "time": 684.6,
          "velocity": 1
        },
        {
          "duration": 0.049999999999954525,
          "durationTicks": 60,
          "midi": 77,
          "name": "F5",
          "ticks": 821580,
          "time": 684.6500000000001,
          "velocity": 1
        },
        {
          "duration": 0.049999999999954525,
          "durationTicks": 60,
          "midi": 76,
          "name": "E5",
          "ticks": 821640,
          "time": 684.7,
          "velocity": 1
        },
        {
          "duration": 0.05000000000006821,
          "durationTicks": 60,
          "midi": 74,
          "name": "D5",
          "ticks": 821700,
          "time": 684.75,
          "velocity": 1
        },
        {
          "duration": 0.1966666666666015,
          "durationTicks": 236,
          "midi": 72,
          "name": "C5",
          "ticks": 821760,
          "time": 684.8000000000001,
          "velocity": 1
        },
        {
          "duration": 0.19666666666671517,
          "durationTicks": 236,
          "midi": 67,
          "name": "G4",
          "ticks": 822000,
          "time": 685,
          "velocity": 1
        },
        {
          "duration": 0.1966666666666015,
          "durationTicks": 236,
          "midi": 72,
          "name": "C5",
          "ticks": 822240,
          "time": 685.2,
          "velocity": 1
        },
        {
          "duration": 0.1966666666666015,
          "durationTicks": 236,
          "midi": 67,
          "name": "G4",
          "ticks": 822480,
          "time": 685.4000000000001,
          "velocity": 1
        },
        {
          "duration": 0.1966666666666015,
          "durationTicks": 236,
          "midi": 72,
          "name": "C5",
          "ticks": 822720,
          "time": 685.6,
          "velocity": 1
        },
        {
          "duration": 0.1966666666666015,
          "durationTicks": 236,
          "midi": 67,
          "name": "G4",
          "ticks": 822960,
          "time": 685.8000000000001,
          "velocity": 1
        },
        {
          "duration": 0.19666666666671517,
          "durationTicks": 236,
          "midi": 72,
          "name": "C5",
          "ticks": 823200,
          "time": 686,
          "velocity": 1
        },
        {
          "duration": 0.1966666666666015,
          "durationTicks": 236,
          "midi": 67,
          "name": "G4",
          "ticks": 823440,
          "time": 686.2,
          "velocity": 1
        },
        {
          "duration": 0.1966666666666015,
          "durationTicks": 236,
          "midi": 72,
          "name": "C5",
          "ticks": 823680,
          "time": 686.4000000000001,
          "velocity": 1
        },
        {
          "duration": 0.1966666666666015,
          "durationTicks": 236,
          "midi": 76,
          "name": "E5",
          "ticks": 823920,
          "time": 686.6,
          "velocity": 1
        },
        {
          "duration": 0.1966666666666015,
          "durationTicks": 236,
          "midi": 79,
          "name": "G5",
          "ticks": 824160,
          "time": 686.8000000000001,
          "velocity": 1
        },
        {
          "duration": 0.19666666666671517,
          "durationTicks": 236,
          "midi": 76,
          "name": "E5",
          "ticks": 824400,
          "time": 687,
          "velocity": 1
        },
        {
          "duration": 0.1966666666666015,
          "durationTicks": 236,
          "midi": 79,
          "name": "G5",
          "ticks": 824640,
          "time": 687.2,
          "velocity": 1
        },
        {
          "duration": 0.1966666666666015,
          "durationTicks": 236,
          "midi": 76,
          "name": "E5",
          "ticks": 824880,
          "time": 687.4000000000001,
          "velocity": 1
        },
        {
          "duration": 0.1966666666666015,
          "durationTicks": 236,
          "midi": 79,
          "name": "G5",
          "ticks": 825120,
          "time": 687.6,
          "velocity": 1
        },
        {
          "duration": 0.1966666666666015,
          "durationTicks": 236,
          "midi": 76,
          "name": "E5",
          "ticks": 825360,
          "time": 687.8000000000001,
          "velocity": 1
        },
        {
          "duration": 0.33333333333337123,
          "durationTicks": 400,
          "midi": 72,
          "name": "C5",
          "ticks": 825600,
          "time": 688,
          "velocity": 1
        },
        {
          "duration": 0.33333333333325754,
          "durationTicks": 400,
          "midi": 67,
          "name": "G4",
          "ticks": 826080,
          "time": 688.4000000000001,
          "velocity": 1
        },
        {
          "duration": 0.33333333333325754,
          "durationTicks": 400,
          "midi": 76,
          "name": "E5",
          "ticks": 826080,
          "time": 688.4000000000001,
          "velocity": 1
        },
        {
          "duration": 0.33333333333325754,
          "durationTicks": 400,
          "midi": 84,
          "name": "C6",
          "ticks": 826080,
          "time": 688.4000000000001,
          "velocity": 1
        },
        {
          "duration": 0.33333333333325754,
          "durationTicks": 400,
          "midi": 67,
          "name": "G4",
          "ticks": 826560,
          "time": 688.8000000000001,
          "velocity": 1
        },
        {
          "duration": 0.33333333333325754,
          "durationTicks": 400,
          "midi": 76,
          "name": "E5",
          "ticks": 826560,
          "time": 688.8000000000001,
          "velocity": 1
        },
        {
          "duration": 0.33333333333325754,
          "durationTicks": 400,
          "midi": 84,
          "name": "C6",
          "ticks": 826560,
          "time": 688.8000000000001,
          "velocity": 1
        },
        {
          "duration": 0.33333333333325754,
          "durationTicks": 400,
          "midi": 67,
          "name": "G4",
          "ticks": 827040,
          "time": 689.2,
          "velocity": 1
        },
        {
          "duration": 0.33333333333325754,
          "durationTicks": 400,
          "midi": 76,
          "name": "E5",
          "ticks": 827040,
          "time": 689.2,
          "velocity": 1
        },
        {
          "duration": 0.33333333333325754,
          "durationTicks": 400,
          "midi": 84,
          "name": "C6",
          "ticks": 827040,
          "time": 689.2,
          "velocity": 1
        },
        {
          "duration": 0.38461500000005344,
          "durationTicks": 400,
          "midi": 67,
          "name": "G4",
          "ticks": 827520,
          "time": 689.6,
          "velocity": 1
        },
        {
          "duration": 0.38461500000005344,
          "durationTicks": 400,
          "midi": 76,
          "name": "E5",
          "ticks": 827520,
          "time": 689.6,
          "velocity": 1
        },
        {
          "duration": 0.38461500000005344,
          "durationTicks": 400,
          "midi": 84,
          "name": "C6",
          "ticks": 827520,
          "time": 689.6,
          "velocity": 1
        },
        {
          "duration": 0.4545458333333272,
          "durationTicks": 400,
          "midi": 67,
          "name": "G4",
          "ticks": 828480,
          "time": 690.5230760000001,
          "velocity": 1
        },
        {
          "duration": 0.4545458333333272,
          "durationTicks": 400,
          "midi": 76,
          "name": "E5",
          "ticks": 828480,
          "time": 690.5230760000001,
          "velocity": 1
        },
        {
          "duration": 0.4545458333333272,
          "durationTicks": 400,
          "midi": 84,
          "name": "C6",
          "ticks": 828480,
          "time": 690.5230760000001,
          "velocity": 1
        },
        {
          "duration": 1.0499999999999545,
          "durationTicks": 840,
          "midi": 67,
          "name": "G4",
          "ticks": 829440,
          "time": 691.6139860000001,
          "velocity": 1
        },
        {
          "duration": 1.0499999999999545,
          "durationTicks": 840,
          "midi": 76,
          "name": "E5",
          "ticks": 829440,
          "time": 691.6139860000001,
          "velocity": 1
        },
        {
          "duration": 1.0499999999999545,
          "durationTicks": 840,
          "midi": 84,
          "name": "C6",
          "ticks": 829440,
          "time": 691.6139860000001,
          "velocity": 1
        },
        {
          "duration": 0.6000000000000227,
          "durationTicks": 480,
          "midi": 72,
          "name": "C5",
          "ticks": 834240,
          "time": 697.6139860000001,
          "velocity": 0.007874015748031496
        }
      ]
    },
    {
      "channel": 0,
      "controlChanges": {},
      "pitchBends": [],
      "instrument": {
        "family": "piano",
        "number": 0,
        "name": "acoustic grand piano"
      },
      "name": "Violini II.",
      "notes": [],
      "endOfTrackTicks": 831360
    },
    {
      "channel": 7,
      "controlChanges": {
        "7": [
          {
            "number": 7,
            "ticks": 0,
            "time": 0,
            "value": 0.8661417322834646
          }
        ],
        "10": [
          {
            "number": 10,
            "ticks": 0,
            "time": 0,
            "value": 0.3464566929133858
          }
        ]
      },
      "pitchBends": [],
      "instrument": {
        "family": "ensemble",
        "number": 48,
        "name": "string ensemble 1"
      },
      "name": "",
      "notes": [
        {
          "duration": 0.33333333333333337,
          "durationTicks": 400,
          "midi": 60,
          "name": "C4",
          "ticks": 0,
          "time": 0,
          "velocity": 0.8267716535433071
        },
        {
          "duration": 0.06666666666666665,
          "durationTicks": 80,
          "midi": 55,
          "name": "G3",
          "ticks": 720,
          "time": 0.6000000000000001,
          "velocity": 0.8267716535433071
        },
        {
          "duration": 0.06666666666666665,
          "durationTicks": 80,
          "midi": 57,
          "name": "A3",
          "ticks": 800,
          "time": 0.6666666666666667,
          "velocity": 0.8267716535433071
        },
        {
          "duration": 0.06666666666666665,
          "durationTicks": 80,
          "midi": 59,
          "name": "B3",
          "ticks": 880,
          "time": 0.7333333333333334,
          "velocity": 0.8267716535433071
        },
        {
          "duration": 0.3333333333333335,
          "durationTicks": 400,
          "midi": 60,
          "name": "C4",
          "ticks": 960,
          "time": 0.8,
          "velocity": 0.8267716535433071
        },
        {
          "duration": 0.06666666666666665,
          "durationTicks": 80,
          "midi": 55,
          "name": "G3",
          "ticks": 1680,
          "time": 1.4000000000000001,
          "velocity": 0.8267716535433071
        },
        {
          "duration": 0.06666666666666665,
          "durationTicks": 80,
          "midi": 57,
          "name": "A3",
          "ticks": 1760,
          "time": 1.4666666666666668,
          "velocity": 0.8267716535433071
        },
        {
          "duration": 0.06666666666666665,
          "durationTicks": 80,
          "midi": 59,
          "name": "B3",
          "ticks": 1840,
          "time": 1.5333333333333334,
          "velocity": 0.8267716535433071
        },
        {
          "duration": 0.33333333333333326,
          "durationTicks": 400,
          "midi": 60,
          "name": "C4",
          "ticks": 1920,
          "time": 1.6,
          "velocity": 0.8267716535433071
        },
        {
          "duration": 0.7999999999999998,
          "durationTicks": 960,
          "midi": 65,
          "name": "F4",
          "ticks": 3840,
          "time": 3.2,
          "velocity": 0.4015748031496063
        },
        {
          "duration": 0.7000000000000002,
          "durationTicks": 840,
          "midi": 64,
          "name": "E4",
          "ticks": 4800,
          "time": 4,
          "velocity": 0.4015748031496063
        },
        {
          "duration": 1.0999999999999996,
          "durationTicks": 1320,
          "midi": 62,
          "name": "D4",
          "ticks": 5760,
          "time": 4.800000000000001,
          "velocity": 0.4015748031496063
        },
        {
          "duration": 0.33333333333333304,
          "durationTicks": 400,
          "midi": 55,
          "name": "G3",
          "ticks": 7680,
          "time": 6.4,
          "velocity": 0.8267716535433071
        },
        {
          "duration": 0.33333333333333304,
          "durationTicks": 400,
          "midi": 67,
          "name": "G4",
          "ticks": 7680,
          "time": 6.4,
          "velocity": 0.8267716535433071
        },
        {
          "duration": 0.06666666666666732,
          "durationTicks": 80,
          "midi": 62,
          "name": "D4",
          "ticks": 8400,
          "time": 7,
          "velocity": 0.8267716535433071
        },
        {
          "duration": 0.06666666666666554,
          "durationTicks": 80,
          "midi": 64,
          "name": "E4",
          "ticks": 8480,
          "time": 7.066666666666667,
          "velocity": 0.8267716535433071
        },
        {
          "duration": 0.06666666666666732,
          "durationTicks": 80,
          "midi": 66,
          "name": "F#4",
          "ticks": 8560,
          "time": 7.133333333333333,
          "velocity": 0.8267716535433071
        },
        {
          "duration": 0.33333333333333304,
          "durationTicks": 400,
          "midi": 67,
          "name": "G4",
          "ticks": 8640,
          "time": 7.2,
          "velocity": 0.8267716535433071
        },
        {
          "duration": 0.06666666666666643,
          "durationTicks": 80,
          "midi": 62,
          "name": "D4",
          "ticks": 9360,
          "time": 7.800000000000001,
          "velocity": 0.8267716535433071
        },
        {
          "duration": 0.06666666666666643,
          "durationTicks": 80,
          "midi": 64,
          "name": "E4",
          "ticks": 9440,
          "time": 7.866666666666667,
          "velocity": 0.8267716535433071
        },
        {
          "duration": 0.06666666666666643,
          "durationTicks": 80,
          "midi": 66,
          "name": "F#4",
          "ticks": 9520,
          "time": 7.933333333333334,
          "velocity": 0.8267716535433071
        },
        {
          "duration": 0.3333333333333339,
          "durationTicks": 400,
          "midi": 67,
          "name": "G4",
          "ticks": 9600,
          "time": 8,
          "velocity": 0.8267716535433071
        },
        {
          "duration": 0.7999999999999989,
          "durationTicks": 960,
          "midi": 67,
          "name": "G4",
          "ticks": 11520,
          "time": 9.600000000000001,
          "velocity": 0.4015748031496063
        },
        {
          "duration": 0.7000000000000011,
          "durationTicks": 840,
          "midi": 71,
          "name": "B4",
          "ticks": 12480,
          "time": 10.4,
          "velocity": 0.4015748031496063
        },
        {
          "duration": 0.7999999999999989,
          "durationTicks": 960,
          "midi": 77,
          "name": "F5",
          "ticks": 13440,
          "time": 11.200000000000001,
          "velocity": 0.4015748031496063
        },
        {
          "duration": 0.3333333333333339,
          "durationTicks": 400,
          "midi": 76,
          "name": "E5",
          "ticks": 14400,
          "time": 12,
          "velocity": 0.4015748031496063
        },
        {
          "duration": 0.05000000000000071,
          "durationTicks": 60,
          "midi": 67,
          "name": "G4",
          "ticks": 16080,
          "time": 13.4,
          "velocity": 0.8267716535433071
        },
        {
          "duration": 0.049999999999998934,
          "durationTicks": 60,
          "midi": 65,
          "name": "F4",
          "ticks": 16140,
          "time": 13.450000000000001,
          "velocity": 0.8267716535433071
        },
        {
          "duration": 0.05000000000000071,
          "durationTicks": 60,
          "midi": 64,
          "name": "E4",
          "ticks": 16200,
          "time": 13.5,
          "velocity": 0.8267716535433071
        },
        {
          "duration": 0.05000000000000071,
          "durationTicks": 60,
          "midi": 62,
          "name": "D4",
          "ticks": 16260,
          "time": 13.55,
          "velocity": 0.8267716535433071
        },
        {
          "duration": 0.3333333333333339,
          "durationTicks": 400,
          "midi": 60,
          "name": "C4",
          "ticks": 16320,
          "time": 13.600000000000001,
          "velocity": 0.8267716535433071
        },
        {
          "duration": 0.05000000000000071,
          "durationTicks": 60,
          "midi": 72,
          "name": "C5",
          "ticks": 18000,
          "time": 15,
          "velocity": 0.8267716535433071
        },
        {
          "duration": 0.05000000000000071,
          "durationTicks": 60,
          "midi": 70,
          "name": "A#4",
          "ticks": 18060,
          "time": 15.05,
          "velocity": 0.8267716535433071
        },
        {
          "duration": 0.049999999999998934,
          "durationTicks": 60,
          "midi": 69,
          "name": "A4",
          "ticks": 18120,
          "time": 15.100000000000001,
          "velocity": 0.8267716535433071
        },
        {
          "duration": 0.05000000000000071,
          "durationTicks": 60,
          "midi": 67,
          "name": "G4",
          "ticks": 18180,
          "time": 15.15,
          "velocity": 0.8267716535433071
        },
        {
          "duration": 0.3333333333333339,
          "durationTicks": 400,
          "midi": 65,
          "name": "F4",
          "ticks": 18240,
          "time": 15.200000000000001,
          "velocity": 0.8267716535433071
        },
        {
          "duration": 0.05000000000000071,
          "durationTicks": 60,
          "midi": 74,
          "name": "D5",
          "ticks": 19920,
          "time": 16.6,
          "velocity": 0.8267716535433071
        },
        {
          "duration": 0.04999999999999716,
          "durationTicks": 60,
          "midi": 72,
          "name": "C5",
          "ticks": 19980,
          "time": 16.650000000000002,
          "velocity": 0.8267716535433071
        },
        {
          "duration": 0.05000000000000071,
          "durationTicks": 60,
          "midi": 71,
          "name": "B4",
          "ticks": 20040,
          "time": 16.7,
          "velocity": 0.8267716535433071
        },
        {
          "duration": 0.05000000000000071,
          "durationTicks": 60,
          "midi": 69,
          "name": "A4",
          "ticks": 20100,
          "time": 16.75,
          "velocity": 0.8267716535433071
        },
        {
          "duration": 0.3333333333333357,
          "durationTicks": 400,
          "midi": 67,
          "name": "G4",
          "ticks": 20160,
          "time": 16.8,
          "velocity": 0.8267716535433071
        },
        {
          "duration": 0.05000000000000071,
          "durationTicks": 60,
          "midi": 79,
          "name": "G5",
          "ticks": 21840,
          "time": 18.2,
          "velocity": 0.8267716535433071
        },
        {
          "duration": 0.05000000000000071,
          "durationTicks": 60,
          "midi": 77,
          "name": "F5",
          "ticks": 21900,
          "time": 18.25,
          "velocity": 0.8267716535433071
        },
        {
          "duration": 0.05000000000000071,
          "durationTicks": 60,
          "midi": 76,
          "name": "E5",
          "ticks": 21960,
          "time": 18.3,
          "velocity": 0.8267716535433071
        },
        {
          "duration": 0.05000000000000071,
          "durationTicks": 60,
          "midi": 74,
          "name": "D5",
          "ticks": 22020,
          "time": 18.35,
          "velocity": 0.8267716535433071
        },
        {
          "duration": 0.33333333333333215,
          "durationTicks": 400,
          "midi": 72,
          "name": "C5",
          "ticks": 22080,
          "time": 18.400000000000002,
          "velocity": 0.8267716535433071
        },
        {
          "duration": 0.05000000000000071,
          "durationTicks": 60,
          "midi": 72,
          "name": "C5",
          "ticks": 23760,
          "time": 19.8,
          "velocity": 0.8267716535433071
        },
        {
          "duration": 0.05000000000000071,
          "durationTicks": 60,
          "midi": 70,
          "name": "A#4",
          "ticks": 23820,
          "time": 19.85,
          "velocity": 0.8267716535433071
        },
        {
          "duration": 0.05000000000000071,
          "durationTicks": 60,
          "midi": 69,
          "name": "A4",
          "ticks": 23880,
          "time": 19.900000000000002,
          "velocity": 0.8267716535433071
        },
        {
          "duration": 0.04999999999999716,
          "durationTicks": 60,
          "midi": 67,
          "name": "G4",
          "ticks": 23940,
          "time": 19.950000000000003,
          "velocity": 0.8267716535433071
        },
        {
          "duration": 0.3333333333333357,
          "durationTicks": 400,
          "midi": 65,
          "name": "F4",
          "ticks": 24000,
          "time": 20,
          "velocity": 0.8267716535433071
        },
        {
          "duration": 0.05000000000000071,
          "durationTicks": 60,
          "midi": 74,
          "name": "D5",
          "ticks": 25680,
          "time": 21.400000000000002,
          "velocity": 0.8267716535433071
        },
        {
          "duration": 0.04999999999999716,
          "durationTicks": 60,
          "midi": 72,
          "name": "C5",
          "ticks": 25740,
          "time": 21.450000000000003,
          "velocity": 0.8267716535433071
        },
        {
          "duration": 0.05000000000000071,
          "durationTicks": 60,
          "midi": 71,
          "name": "B4",
          "ticks": 25800,
          "time": 21.5,
          "velocity": 0.8267716535433071
        },
        {
          "duration": 0.05000000000000071,
          "durationTicks": 60,
          "midi": 69,
          "name": "A4",
          "ticks": 25860,
          "time": 21.55,
          "velocity": 0.8267716535433071
        },
        {
          "duration": 0.3333333333333357,
          "durationTicks": 400,
          "midi": 67,
          "name": "G4",
          "ticks": 25920,
          "time": 21.6,
          "velocity": 0.8267716535433071
        },
        {
          "duration": 0.33333333333333215,
          "durationTicks": 400,
          "midi": 72,
          "name": "C5",
          "ticks": 26880,
          "time": 22.400000000000002,
          "velocity": 0.8267716535433071
        },
        {
          "duration": 0.05000000000000071,
          "durationTicks": 60,
          "midi": 77,
          "name": "F5",
          "ticks": 27600,
          "time": 23,
          "velocity": 0.8267716535433071
        },
        {
          "duration": 0.05000000000000071,
          "durationTicks": 60,
          "midi": 76,
          "name": "E5",
          "ticks": 27660,
          "time": 23.05,
          "velocity": 0.8267716535433071
        },
        {
          "duration": 0.05000000000000071,
          "durationTicks": 60,
          "midi": 74,
          "name": "D5",
          "ticks": 27720,
          "time": 23.1,
          "velocity": 0.8267716535433071
        },
        {
          "duration": 0.05000000000000071,
          "durationTicks": 60,
          "midi": 72,
          "name": "C5",
          "ticks": 27780,
          "time": 23.150000000000002,
          "velocity": 0.8267716535433071
        },
        {
          "duration": 0.33333333333333215,
          "durationTicks": 400,
          "midi": 71,
          "name": "B4",
          "ticks": 27840,
          "time": 23.200000000000003,
          "velocity": 0.8267716535433071
        },
        {
          "duration": 0.05000000000000071,
          "durationTicks": 60,
          "midi": 79,
          "name": "G5",
          "ticks": 28560,
          "time": 23.8,
          "velocity": 0.8267716535433071
        },
        {
          "duration": 0.05000000000000071,
          "durationTicks": 60,
          "midi": 77,
          "name": "F5",
          "ticks": 28620,
          "time": 23.85,
          "velocity": 0.8267716535433071
        },
        {
          "duration": 0.05000000000000071,
          "durationTicks": 60,
          "midi": 76,
          "name": "E5",
          "ticks": 28680,
          "time": 23.900000000000002,
          "velocity": 0.8267716535433071
        },
        {
          "duration": 0.04999999999999716,
          "durationTicks": 60,
          "midi": 74,
          "name": "D5",
          "ticks": 28740,
          "time": 23.950000000000003,
          "velocity": 0.8267716535433071
        },
        {
          "duration": 0.3333333333333357,
          "durationTicks": 400,
          "midi": 76,
          "name": "E5",
          "ticks": 28800,
          "time": 24,
          "velocity": 0.8267716535433071
        },
        {
          "duration": 0.05000000000000071,
          "durationTicks": 60,
          "midi": 77,
          "name": "F5",
          "ticks": 29520,
          "time": 24.6,
          "velocity": 0.8267716535433071
        },
        {
          "duration": 0.05000000000000071,
          "durationTicks": 60,
          "midi": 76,
          "name": "E5",
          "ticks": 29580,
          "time": 24.650000000000002,
          "velocity": 0.8267716535433071
        },
        {
          "duration": 0.04999999999999716,
          "durationTicks": 60,
          "midi": 74,
          "name": "D5",
          "ticks": 29640,
          "time": 24.700000000000003,
          "velocity": 0.8267716535433071
        },
        {
          "duration": 0.05000000000000071,
          "durationTicks": 60,
          "midi": 72,
          "name": "C5",
          "ticks": 29700,
          "time": 24.75,
          "velocity": 0.8267716535433071
        },
        {
          "duration": 0.3333333333333357,
          "durationTicks": 400,
          "midi": 71,
          "name": "B4",
          "ticks": 29760,
          "time": 24.8,
          "velocity": 0.8267716535433071
        },
        {
          "duration": 0.05000000000000071,
          "durationTicks": 60,
          "midi": 79,
          "name": "G5",
          "ticks": 30480,
          "time": 25.400000000000002,
          "velocity": 0.8267716535433071
        },
        {
          "duration": 0.04999999999999716,
          "durationTicks": 60,
          "midi": 77,
          "name": "F5",
          "ticks": 30540,
          "time": 25.450000000000003,
          "velocity": 0.8267716535433071
        },
        {
          "duration": 0.05000000000000071,
          "durationTicks": 60,
          "midi": 76,
          "name": "E5",
          "ticks": 30600,
          "time": 25.5,
          "velocity": 0.8267716535433071
        },
        {
          "duration": 0.05000000000000071,
          "durationTicks": 60,
          "midi": 74,
          "name": "D5",
          "ticks": 30660,
          "time": 25.55,
          "velocity": 0.8267716535433071
        },
        {
          "duration": 0.33333333333333215,
          "durationTicks": 400,
          "midi": 76,
          "name": "E5",
          "ticks": 30720,
          "time": 25.6,
          "velocity": 0.8267716535433071
        },
        {
          "duration": 0.33333333333333215,
          "durationTicks": 400,
          "midi": 79,
          "name": "G5",
          "ticks": 31200,
          "time": 26,
          "velocity": 0.8267716535433071
        },
        {
          "duration": 0.33333333333333215,
          "durationTicks": 400,
          "midi": 84,
          "name": "C6",
          "ticks": 31680,
          "time": 26.400000000000002,
          "velocity": 0.8267716535433071
        },
        {
          "duration": 0.33333333333333215,
          "durationTicks": 400,
          "midi": 79,
          "name": "G5",
          "ticks": 32160,
          "time": 26.8,
          "velocity": 0.8267716535433071
        },
        {
          "duration": 0.3333333333333286,
          "durationTicks": 400,
          "midi": 84,
          "name": "C6",
          "ticks": 32640,
          "time": 27.200000000000003,
          "velocity": 0.8267716535433071
        },
        {
          "duration": 0.33333333333333215,
          "durationTicks": 400,
          "midi": 79,
          "name": "G5",
          "ticks": 33120,
          "time": 27.6,
          "velocity": 0.8267716535433071
        },
        {
          "duration": 0.33333333333333215,
          "durationTicks": 400,
          "midi": 76,
          "name": "E5",
          "ticks": 33600,
          "time": 28,
          "velocity": 0.8267716535433071
        },
        {
          "duration": 0.33333333333333215,
          "durationTicks": 400,
          "midi": 72,
          "name": "C5",
          "ticks": 34080,
          "time": 28.400000000000002,
          "velocity": 0.8267716535433071
        },
        {
          "duration": 0.33333333333333215,
          "durationTicks": 400,
          "midi": 67,
          "name": "G4",
          "ticks": 34560,
          "time": 28.8,
          "velocity": 0.8267716535433071
        },
        {
          "duration": 0.19666666666666188,
          "durationTicks": 236,
          "midi": 74,
          "name": "D5",
          "ticks": 35280,
          "time": 29.400000000000002,
          "velocity": 0.8267716535433071
        },
        {
          "duration": 0.33333333333333215,
          "durationTicks": 400,
          "midi": 76,
          "name": "E5",
          "ticks": 35520,
          "time": 29.6,
          "velocity": 0.8267716535433071
        },
        {
          "duration": 0.19666666666666188,
          "durationTicks": 236,
          "midi": 76,
          "name": "E5",
          "ticks": 36240,
          "time": 30.200000000000003,
          "velocity": 0.8267716535433071
        },
        {
          "duration": 0.33333333333333215,
          "durationTicks": 400,
          "midi": 74,
          "name": "D5",
          "ticks": 36480,
          "time": 30.400000000000002,
          "velocity": 0.8267716535433071
        },
        {
          "duration": 0.19666666666666544,
          "durationTicks": 236,
          "midi": 74,
          "name": "D5",
          "ticks": 37200,
          "time": 31,
          "velocity": 0.8267716535433071
        },
        {
          "duration": 0.3333333333333286,
          "durationTicks": 400,
          "midi": 76,
          "name": "E5",
          "ticks": 37440,
          "time": 31.200000000000003,
          "velocity": 0.8267716535433071
        },
        {
          "duration": 0.19666666666666544,
          "durationTicks": 236,
          "midi": 76,
          "name": "E5",
          "ticks": 38160,
          "time": 31.8,
          "velocity": 0.8267716535433071
        },
        {
          "duration": 0.19666666666666544,
          "durationTicks": 236,
          "midi": 74,
          "name": "D5",
          "ticks": 38400,
          "time": 32,
          "velocity": 0.8267716535433071
        },
        {
          "duration": 0.19666666666666544,
          "durationTicks": 236,
          "midi": 76,
          "name": "E5",
          "ticks": 38640,
          "time": 32.2,
          "velocity": 0.8346456692913385
        },
        {
          "duration": 0.19666666666666544,
          "durationTicks": 236,
          "midi": 74,
          "name": "D5",
          "ticks": 38880,
          "time": 32.4,
          "velocity": 0.8503937007874016
        },
        {
          "duration": 0.19666666666666544,
          "durationTicks": 236,
          "midi": 76,
          "name": "E5",
          "ticks": 39120,
          "time": 32.6,
          "velocity": 0.8582677165354331
        },
        {
          "duration": 0.19666666666665833,
          "durationTicks": 236,
          "midi": 74,
          "name": "D5",
          "ticks": 39360,
          "time": 32.800000000000004,
          "velocity": 0.8661417322834646
        },
        {
          "duration": 0.19666666666666544,
          "durationTicks": 236,
          "midi": 76,
          "name": "E5",
          "ticks": 39600,
          "time": 33,
          "velocity": 0.8740157480314961
        },
        {
          "duration": 0.19666666666666544,
          "durationTicks": 236,
          "midi": 74,
          "name": "D5",
          "ticks": 39840,
          "time": 33.2,
          "velocity": 0.8818897637795275
        },
        {
          "duration": 0.19666666666666544,
          "durationTicks": 236,
          "midi": 76,
          "name": "E5",
          "ticks": 40080,
          "time": 33.4,
          "velocity": 0.889763779527559
        },
        {
          "duration": 0.3333333333333286,
          "durationTicks": 400,
          "midi": 74,
          "name": "D5",
          "ticks": 40320,
          "time": 33.6,
          "velocity": 0.905511811023622
        },
        {
          "duration": 0.3333333333333357,
          "durationTicks": 400,
          "midi": 62,
          "name": "D4",
          "ticks": 40800,
          "time": 34,
          "velocity": 0.9212598425196851
        },
        {
          "duration": 0.3333333333333357,
          "durationTicks": 400,
          "midi": 71,
          "name": "B4",
          "ticks": 40800,
          "time": 34,
          "velocity": 0.9212598425196851
        },
        {
          "duration": 0.3333333333333357,
          "durationTicks": 400,
          "midi": 79,
          "name": "G5",
          "ticks": 40800,
          "time": 34,
          "velocity": 0.9212598425196851
        },
        {
          "duration": 0.3333333333333357,
          "durationTicks": 400,
          "midi": 55,
          "name": "G3",
          "ticks": 41280,
          "time": 34.4,
          "velocity": 0.937007874015748
        },
        {
          "duration": 0.3333333333333357,
          "durationTicks": 400,
          "midi": 67,
          "name": "G4",
          "ticks": 41280,
          "time": 34.4,
          "velocity": 0.937007874015748
        },
        {
          "duration": 0.3333333333333286,
          "durationTicks": 400,
          "midi": 55,
          "name": "G3",
          "ticks": 41760,
          "time": 34.800000000000004,
          "velocity": 0.952755905511811
        },
        {
          "duration": 0.3333333333333286,
          "durationTicks": 400,
          "midi": 67,
          "name": "G4",
          "ticks": 41760,
          "time": 34.800000000000004,
          "velocity": 0.952755905511811
        },
        {
          "duration": 1.5,
          "durationTicks": 1800,
          "midi": 55,
          "name": "G3",
          "ticks": 42240,
          "time": 35.2,
          "velocity": 0.9763779527559056
        },
        {
          "duration": 1.5,
          "durationTicks": 1800,
          "midi": 67,
          "name": "G4",
          "ticks": 42240,
          "time": 35.2,
          "velocity": 0.9763779527559056
        },
        {
          "duration": 0.3333333333333286,
          "durationTicks": 400,
          "midi": 60,
          "name": "C4",
          "ticks": 44160,
          "time": 36.800000000000004,
          "velocity": 0.4015748031496063
        },
        {
          "duration": 0.06666666666666998,
          "durationTicks": 80,
          "midi": 55,
          "name": "G3",
          "ticks": 44880,
          "time": 37.4,
          "velocity": 0.4015748031496063
        },
        {
          "duration": 0.06666666666666288,
          "durationTicks": 80,
          "midi": 57,
          "name": "A3",
          "ticks": 44960,
          "time": 37.46666666666667,
          "velocity": 0.4015748031496063
        },
        {
          "duration": 0.06666666666666998,
          "durationTicks": 80,
          "midi": 59,
          "name": "B3",
          "ticks": 45040,
          "time": 37.53333333333333,
          "velocity": 0.4015748031496063
        },
        {
          "duration": 0.3333333333333286,
          "durationTicks": 400,
          "midi": 60,
          "name": "C4",
          "ticks": 45120,
          "time": 37.6,
          "velocity": 0.4015748031496063
        },
        {
          "duration": 0.06666666666666998,
          "durationTicks": 80,
          "midi": 55,
          "name": "G3",
          "ticks": 45840,
          "time": 38.2,
          "velocity": 0.4015748031496063
        },
        {
          "duration": 0.06666666666666288,
          "durationTicks": 80,
          "midi": 57,
          "name": "A3",
          "ticks": 45920,
          "time": 38.26666666666667,
          "velocity": 0.4015748031496063
        },
        {
          "duration": 0.06666666666666998,
          "durationTicks": 80,
          "midi": 59,
          "name": "B3",
          "ticks": 46000,
          "time": 38.333333333333336,
          "velocity": 0.4015748031496063
        },
        {
          "duration": 0.3333333333333286,
          "durationTicks": 400,
          "midi": 60,
          "name": "C4",
          "ticks": 46080,
          "time": 38.400000000000006,
          "velocity": 0.4015748031496063
        },
        {
          "duration": 0.19666666666666544,
          "durationTicks": 236,
          "midi": 60,
          "name": "C4",
          "ticks": 47760,
          "time": 39.800000000000004,
          "velocity": 0.4015748031496063
        },
        {
          "duration": 0.6000000000000014,
          "durationTicks": 720,
          "midi": 60,
          "name": "C4",
          "ticks": 48000,
          "time": 40,
          "velocity": 0.4015748031496063
        },
        {
          "duration": 0.20000000000000284,
          "durationTicks": 240,
          "midi": 59,
          "name": "B3",
          "ticks": 48720,
          "time": 40.6,
          "velocity": 0.4015748031496063
        },
        {
          "duration": 0.6000000000000014,
          "durationTicks": 720,
          "midi": 62,
          "name": "D4",
          "ticks": 48960,
          "time": 40.800000000000004,
          "velocity": 0.4015748031496063
        },
        {
          "duration": 0.19666666666665833,
          "durationTicks": 236,
          "midi": 60,
          "name": "C4",
          "ticks": 49680,
          "time": 41.400000000000006,
          "velocity": 0.4015748031496063
        },
        {
          "duration": 0.8000000000000043,
          "durationTicks": 960,
          "midi": 67,
          "name": "G4",
          "ticks": 49920,
          "time": 41.6,
          "velocity": 0.4015748031496063
        },
        {
          "duration": 0.3333333333333286,
          "durationTicks": 400,
          "midi": 65,
          "name": "F4",
          "ticks": 50880,
          "time": 42.400000000000006,
          "velocity": 0.4015748031496063
        },
        {
          "duration": 0.3333333333333286,
          "durationTicks": 400,
          "midi": 67,
          "name": "G4",
          "ticks": 51840,
          "time": 43.2,
          "velocity": 0.4015748031496063
        },
        {
          "duration": 0.06666666666666998,
          "durationTicks": 80,
          "midi": 62,
          "name": "D4",
          "ticks": 52560,
          "time": 43.800000000000004,
          "velocity": 0.4015748031496063
        },
        {
          "duration": 0.06666666666666288,
          "durationTicks": 80,
          "midi": 64,
          "name": "E4",
          "ticks": 52640,
          "time": 43.866666666666674,
          "velocity": 0.4015748031496063
        },
        {
          "duration": 0.06666666666666288,
          "durationTicks": 80,
          "midi": 66,
          "name": "F#4",
          "ticks": 52720,
          "time": 43.93333333333334,
          "velocity": 0.4015748031496063
        },
        {
          "duration": 0.3333333333333357,
          "durationTicks": 400,
          "midi": 67,
          "name": "G4",
          "ticks": 52800,
          "time": 44,
          "velocity": 0.4015748031496063
        },
        {
          "duration": 0.06666666666666998,
          "durationTicks": 80,
          "midi": 62,
          "name": "D4",
          "ticks": 53520,
          "time": 44.6,
          "velocity": 0.4015748031496063
        },
        {
          "duration": 0.06666666666666288,
          "durationTicks": 80,
          "midi": 64,
          "name": "E4",
          "ticks": 53600,
          "time": 44.66666666666667,
          "velocity": 0.4015748031496063
        },
        {
          "duration": 0.06666666666666998,
          "durationTicks": 80,
          "midi": 66,
          "name": "F#4",
          "ticks": 53680,
          "time": 44.733333333333334,
          "velocity": 0.4015748031496063
        },
        {
          "duration": 0.3333333333333286,
          "durationTicks": 400,
          "midi": 67,
          "name": "G4",
          "ticks": 53760,
          "time": 44.800000000000004,
          "velocity": 0.4015748031496063
        },
        {
          "duration": 0.19666666666666544,
          "durationTicks": 236,
          "midi": 62,
          "name": "D4",
          "ticks": 55440,
          "time": 46.2,
          "velocity": 0.4015748031496063
        },
        {
          "duration": 0.5999999999999943,
          "durationTicks": 720,
          "midi": 62,
          "name": "D4",
          "ticks": 55680,
          "time": 46.400000000000006,
          "velocity": 0.4015748031496063
        },
        {
          "duration": 0.20000000000000284,
          "durationTicks": 240,
          "midi": 61,
          "name": "C#4",
          "ticks": 56400,
          "time": 47,
          "velocity": 0.4015748031496063
        },
        {
          "duration": 0.6000000000000014,
          "durationTicks": 720,
          "midi": 64,
          "name": "E4",
          "ticks": 56640,
          "time": 47.2,
          "velocity": 0.4015748031496063
        },
        {
          "duration": 0.19666666666666544,
          "durationTicks": 236,
          "midi": 62,
          "name": "D4",
          "ticks": 57360,
          "time": 47.800000000000004,
          "velocity": 0.4015748031496063
        },
        {
          "duration": 0.8000000000000043,
          "durationTicks": 960,
          "midi": 70,
          "name": "A#4",
          "ticks": 57600,
          "time": 48,
          "velocity": 0.4015748031496063
        },
        {
          "duration": 0.19666666666666544,
          "durationTicks": 236,
          "midi": 69,
          "name": "A4",
          "ticks": 58560,
          "time": 48.800000000000004,
          "velocity": 0.4015748031496063
        },
        {
          "duration": 0.2666666666666657,
          "durationTicks": 320,
          "midi": 64,
          "name": "E4",
          "ticks": 59040,
          "time": 49.2,
          "velocity": 0.4015748031496063
        },
        {
          "duration": 0.8000000000000043,
          "durationTicks": 960,
          "midi": 67,
          "name": "G4",
          "ticks": 59520,
          "time": 49.6,
          "velocity": 0.4015748031496063
        },
        {
          "duration": 0.19666666666665833,
          "durationTicks": 236,
          "midi": 66,
          "name": "F#4",
          "ticks": 60480,
          "time": 50.400000000000006,
          "velocity": 0.4015748031496063
        },
        {
          "duration": 0.2666666666666657,
          "durationTicks": 320,
          "midi": 62,
          "name": "D4",
          "ticks": 60960,
          "time": 50.800000000000004,
          "velocity": 0.4015748031496063
        },
        {
          "duration": 0.7999999999999972,
          "durationTicks": 960,
          "midi": 68,
          "name": "G#4",
          "ticks": 61440,
          "time": 51.2,
          "velocity": 0.4015748031496063
        },
        {
          "duration": 0.19666666666667254,
          "durationTicks": 236,
          "midi": 67,
          "name": "G4",
          "ticks": 62400,
          "time": 52,
          "velocity": 0.4015748031496063
        },
        {
          "duration": 0.2666666666666586,
          "durationTicks": 320,
          "midi": 62,
          "name": "D4",
          "ticks": 62880,
          "time": 52.400000000000006,
          "velocity": 0.4015748031496063
        },
        {
          "duration": 0.7999999999999972,
          "durationTicks": 960,
          "midi": 65,
          "name": "F4",
          "ticks": 63360,
          "time": 52.800000000000004,
          "velocity": 0.4015748031496063
        },
        {
          "duration": 0.19666666666667254,
          "durationTicks": 236,
          "midi": 64,
          "name": "E4",
          "ticks": 64320,
          "time": 53.6,
          "velocity": 0.4015748031496063
        },
        {
          "duration": 0.2666666666666657,
          "durationTicks": 320,
          "midi": 60,
          "name": "C4",
          "ticks": 64800,
          "time": 54,
          "velocity": 0.4015748031496063
        },
        {
          "duration": 0.3999999999999986,
          "durationTicks": 480,
          "midi": 67,
          "name": "G4",
          "ticks": 65280,
          "time": 54.400000000000006,
          "velocity": 0.4015748031496063
        },
        {
          "duration": 0.7999999999999972,
          "durationTicks": 960,
          "midi": 65,
          "name": "F4",
          "ticks": 65760,
          "time": 54.800000000000004,
          "velocity": 0.4015748031496063
        },
        {
          "duration": 0.3999999999999986,
          "durationTicks": 480,
          "midi": 64,
          "name": "E4",
          "ticks": 66720,
          "time": 55.6,
          "velocity": 0.4015748031496063
        },
        {
          "duration": 0.4000000000000057,
          "durationTicks": 480,
          "midi": 64,
          "name": "E4",
          "ticks": 67200,
          "time": 56,
          "velocity": 0.4015748031496063
        },
        {
          "duration": 0.3999999999999986,
          "durationTicks": 480,
          "midi": 62,
          "name": "D4",
          "ticks": 67680,
          "time": 56.400000000000006,
          "velocity": 0.4015748031496063
        },
        {
          "duration": 0.3999999999999986,
          "durationTicks": 480,
          "midi": 69,
          "name": "A4",
          "ticks": 68160,
          "time": 56.800000000000004,
          "velocity": 0.4015748031496063
        },
        {
          "duration": 0.3333333333333357,
          "durationTicks": 400,
          "midi": 60,
          "name": "C4",
          "ticks": 68640,
          "time": 57.2,
          "velocity": 0.4015748031496063
        },
        {
          "duration": 0.3333333333333357,
          "durationTicks": 400,
          "midi": 59,
          "name": "B3",
          "ticks": 69120,
          "time": 57.6,
          "velocity": 0.8267716535433071
        },
        {
          "duration": 0.3333333333333357,
          "durationTicks": 400,
          "midi": 67,
          "name": "G4",
          "ticks": 69120,
          "time": 57.6,
          "velocity": 0.8267716535433071
        },
        {
          "duration": 0.06666666666666288,
          "durationTicks": 80,
          "midi": 62,
          "name": "D4",
          "ticks": 69840,
          "time": 58.2,
          "velocity": 0.8267716535433071
        },
        {
          "duration": 0.06666666666667709,
          "durationTicks": 80,
          "midi": 64,
          "name": "E4",
          "ticks": 69920,
          "time": 58.266666666666666,
          "velocity": 0.8267716535433071
        },
        {
          "duration": 0.06666666666666288,
          "durationTicks": 80,
          "midi": 66,
          "name": "F#4",
          "ticks": 70000,
          "time": 58.33333333333334,
          "velocity": 0.8267716535433071
        },
        {
          "duration": 0.3333333333333357,
          "durationTicks": 400,
          "midi": 67,
          "name": "G4",
          "ticks": 70080,
          "time": 58.400000000000006,
          "velocity": 0.8267716535433071
        },
        {
          "duration": 0.06666666666666288,
          "durationTicks": 80,
          "midi": 62,
          "name": "D4",
          "ticks": 70800,
          "time": 59,
          "velocity": 0.8267716535433071
        },
        {
          "duration": 0.06666666666667709,
          "durationTicks": 80,
          "midi": 64,
          "name": "E4",
          "ticks": 70880,
          "time": 59.06666666666666,
          "velocity": 0.8267716535433071
        },
        {
          "duration": 0.06666666666666288,
          "durationTicks": 80,
          "midi": 66,
          "name": "F#4",
          "ticks": 70960,
          "time": 59.13333333333334,
          "velocity": 0.8267716535433071
        },
        {
          "duration": 0.3333333333333357,
          "durationTicks": 400,
          "midi": 67,
          "name": "G4",
          "ticks": 71040,
          "time": 59.2,
          "velocity": 0.8267716535433071
        },
        {
          "duration": 0.13333333333333997,
          "durationTicks": 160,
          "midi": 59,
          "name": "B3",
          "ticks": 72720,
          "time": 60.6,
          "velocity": 0.8267716535433071
        },
        {
          "duration": 0.6000000000000014,
          "durationTicks": 720,
          "midi": 60,
          "name": "C4",
          "ticks": 72960,
          "time": 60.800000000000004,
          "velocity": 0.8267716535433071
        },
        {
          "duration": 0.19666666666666544,
          "durationTicks": 236,
          "midi": 59,
          "name": "B3",
          "ticks": 73680,
          "time": 61.400000000000006,
          "velocity": 0.8267716535433071
        },
        {
          "duration": 0.6000000000000014,
          "durationTicks": 720,
          "midi": 62,
          "name": "D4",
          "ticks": 73920,
          "time": 61.6,
          "velocity": 0.8267716535433071
        },
        {
          "duration": 0.19666666666667254,
          "durationTicks": 236,
          "midi": 60,
          "name": "C4",
          "ticks": 74640,
          "time": 62.2,
          "velocity": 0.8267716535433071
        },
        {
          "duration": 0.7999999999999972,
          "durationTicks": 960,
          "midi": 64,
          "name": "E4",
          "ticks": 74880,
          "time": 62.400000000000006,
          "velocity": 0.8267716535433071
        },
        {
          "duration": 0.3333333333333357,
          "durationTicks": 400,
          "midi": 62,
          "name": "D4",
          "ticks": 75840,
          "time": 63.2,
          "velocity": 0.8267716535433071
        },
        {
          "duration": 0.13333333333333286,
          "durationTicks": 160,
          "midi": 59,
          "name": "B3",
          "ticks": 76560,
          "time": 63.800000000000004,
          "velocity": 0.8267716535433071
        },
        {
          "duration": 0.6000000000000085,
          "durationTicks": 720,
          "midi": 62,
          "name": "D4",
          "ticks": 76800,
          "time": 64,
          "velocity": 0.8267716535433071
        },
        {
          "duration": 0.19666666666665833,
          "durationTicks": 236,
          "midi": 60,
          "name": "C4",
          "ticks": 77520,
          "time": 64.60000000000001,
          "velocity": 0.8267716535433071
        },
        {
          "duration": 0.6000000000000085,
          "durationTicks": 720,
          "midi": 64,
          "name": "E4",
          "ticks": 77760,
          "time": 64.8,
          "velocity": 0.8267716535433071
        },
        {
          "duration": 0.19666666666667254,
          "durationTicks": 236,
          "midi": 62,
          "name": "D4",
          "ticks": 78480,
          "time": 65.4,
          "velocity": 0.8267716535433071
        },
        {
          "duration": 0.7999999999999972,
          "durationTicks": 960,
          "midi": 65,
          "name": "F4",
          "ticks": 78720,
          "time": 65.60000000000001,
          "velocity": 0.8267716535433071
        },
        {
          "duration": 0.3333333333333286,
          "durationTicks": 400,
          "midi": 64,
          "name": "E4",
          "ticks": 79680,
          "time": 66.4,
          "velocity": 0.8267716535433071
        },
        {
          "duration": 0.15000000000000568,
          "durationTicks": 180,
          "midi": 60,
          "name": "C4",
          "ticks": 80400,
          "time": 67,
          "velocity": 0.8267716535433071
        },
        {
          "duration": 0.5999999999999943,
          "durationTicks": 720,
          "midi": 64,
          "name": "E4",
          "ticks": 80640,
          "time": 67.2,
          "velocity": 0.8267716535433071
        },
        {
          "duration": 0.19666666666667254,
          "durationTicks": 236,
          "midi": 62,
          "name": "D4",
          "ticks": 81360,
          "time": 67.8,
          "velocity": 0.8267716535433071
        },
        {
          "duration": 0.6000000000000085,
          "durationTicks": 720,
          "midi": 65,
          "name": "F4",
          "ticks": 81600,
          "time": 68,
          "velocity": 0.8267716535433071
        },
        {
          "duration": 0.19666666666665833,
          "durationTicks": 236,
          "midi": 64,
          "name": "E4",
          "ticks": 82320,
          "time": 68.60000000000001,
          "velocity": 0.8267716535433071
        },
        {
          "duration": 0.8000000000000114,
          "durationTicks": 960,
          "midi": 67,
          "name": "G4",
          "ticks": 82560,
          "time": 68.8,
          "velocity": 0.8267716535433071
        },
        {
          "duration": 0.3333333333333286,
          "durationTicks": 400,
          "midi": 65,
          "name": "F4",
          "ticks": 83520,
          "time": 69.60000000000001,
          "velocity": 0.8267716535433071
        },
        {
          "duration": 0.15000000000000568,
          "durationTicks": 180,
          "midi": 63,
          "name": "D#4",
          "ticks": 84240,
          "time": 70.2,
          "velocity": 0.8267716535433071
        },
        {
          "duration": 0.7999999999999972,
          "durationTicks": 960,
          "midi": 65,
          "name": "F4",
          "ticks": 84480,
          "time": 70.4,
          "velocity": 0.8267716535433071
        },
        {
          "duration": 0.3333333333333428,
          "durationTicks": 400,
          "midi": 64,
          "name": "E4",
          "ticks": 85440,
          "time": 71.2,
          "velocity": 0.8267716535433071
        },
        {
          "duration": 0.15000000000000568,
          "durationTicks": 180,
          "midi": 60,
          "name": "C4",
          "ticks": 86160,
          "time": 71.8,
          "velocity": 0.8267716535433071
        },
        {
          "duration": 0.7999999999999972,
          "durationTicks": 960,
          "midi": 64,
          "name": "E4",
          "ticks": 86400,
          "time": 72,
          "velocity": 0.8267716535433071
        },
        {
          "duration": 0.3333333333333428,
          "durationTicks": 400,
          "midi": 62,
          "name": "D4",
          "ticks": 87360,
          "time": 72.8,
          "velocity": 0.8267716535433071
        },
        {
          "duration": 0.14999999999999147,
          "durationTicks": 180,
          "midi": 62,
          "name": "D4",
          "ticks": 88080,
          "time": 73.4,
          "velocity": 0.8267716535433071
        },
        {
          "duration": 0.3333333333333286,
          "durationTicks": 400,
          "midi": 64,
          "name": "E4",
          "ticks": 88320,
          "time": 73.60000000000001,
          "velocity": 0.8267716535433071
        },
        {
          "duration": 0.3333333333333428,
          "durationTicks": 400,
          "midi": 65,
          "name": "F4",
          "ticks": 88800,
          "time": 74,
          "velocity": 0.8267716535433071
        },
        {
          "duration": 0.3333333333333286,
          "durationTicks": 400,
          "midi": 64,
          "name": "E4",
          "ticks": 89280,
          "time": 74.4,
          "velocity": 0.8267716535433071
        },
        {
          "duration": 0.3333333333333428,
          "durationTicks": 400,
          "midi": 65,
          "name": "F4",
          "ticks": 89760,
          "time": 74.8,
          "velocity": 0.8267716535433071
        },
        {
          "duration": 1.0999999999999943,
          "durationTicks": 1320,
          "midi": 64,
          "name": "E4",
          "ticks": 90240,
          "time": 75.2,
          "velocity": 0.8267716535433071
        },
        {
          "duration": 0.3333333333333286,
          "durationTicks": 400,
          "midi": 76,
          "name": "E5",
          "ticks": 91680,
          "time": 76.4,
          "velocity": 0.8267716535433071
        },
        {
          "duration": 0.3333333333333286,
          "durationTicks": 400,
          "midi": 74,
          "name": "D5",
          "ticks": 92160,
          "time": 76.80000000000001,
          "velocity": 0.8267716535433071
        },
        {
          "duration": 0.04999999999999716,
          "durationTicks": 60,
          "midi": 69,
          "name": "A4",
          "ticks": 92880,
          "time": 77.4,
          "velocity": 0.8267716535433071
        },
        {
          "duration": 0.04999999999999716,
          "durationTicks": 60,
          "midi": 67,
          "name": "G4",
          "ticks": 92940,
          "time": 77.45,
          "velocity": 0.8267716535433071
        },
        {
          "duration": 0.05000000000001137,
          "durationTicks": 60,
          "midi": 66,
          "name": "F#4",
          "ticks": 93000,
          "time": 77.5,
          "velocity": 0.8267716535433071
        },
        {
          "duration": 0.04999999999999716,
          "durationTicks": 60,
          "midi": 64,
          "name": "E4",
          "ticks": 93060,
          "time": 77.55000000000001,
          "velocity": 0.8267716535433071
        },
        {
          "duration": 0.3333333333333286,
          "durationTicks": 400,
          "midi": 62,
          "name": "D4",
          "ticks": 93120,
          "time": 77.60000000000001,
          "velocity": 0.8267716535433071
        },
        {
          "duration": 0.05000000000001137,
          "durationTicks": 60,
          "midi": 74,
          "name": "D5",
          "ticks": 94800,
          "time": 79,
          "velocity": 0.8267716535433071
        },
        {
          "duration": 0.04999999999999716,
          "durationTicks": 60,
          "midi": 72,
          "name": "C5",
          "ticks": 94860,
          "time": 79.05000000000001,
          "velocity": 0.8267716535433071
        },
        {
          "duration": 0.04999999999999716,
          "durationTicks": 60,
          "midi": 71,
          "name": "B4",
          "ticks": 94920,
          "time": 79.10000000000001,
          "velocity": 0.8267716535433071
        },
        {
          "duration": 0.04999999999999716,
          "durationTicks": 60,
          "midi": 69,
          "name": "A4",
          "ticks": 94980,
          "time": 79.15,
          "velocity": 0.8267716535433071
        },
        {
          "duration": 0.3333333333333428,
          "durationTicks": 400,
          "midi": 67,
          "name": "G4",
          "ticks": 95040,
          "time": 79.2,
          "velocity": 0.8267716535433071
        },
        {
          "duration": 0.04999999999999716,
          "durationTicks": 60,
          "midi": 81,
          "name": "A5",
          "ticks": 96720,
          "time": 80.60000000000001,
          "velocity": 0.8267716535433071
        },
        {
          "duration": 0.04999999999999716,
          "durationTicks": 60,
          "midi": 79,
          "name": "G5",
          "ticks": 96780,
          "time": 80.65,
          "velocity": 0.8267716535433071
        },
        {
          "duration": 0.04999999999999716,
          "durationTicks": 60,
          "midi": 78,
          "name": "F#5",
          "ticks": 96840,
          "time": 80.7,
          "velocity": 0.8267716535433071
        },
        {
          "duration": 0.05000000000001137,
          "durationTicks": 60,
          "midi": 76,
          "name": "E5",
          "ticks": 96900,
          "time": 80.75,
          "velocity": 0.8267716535433071
        },
        {
          "duration": 0.3333333333333286,
          "durationTicks": 400,
          "midi": 74,
          "name": "D5",
          "ticks": 96960,
          "time": 80.80000000000001,
          "velocity": 0.8267716535433071
        },
        {
          "duration": 0.04999999999999716,
          "durationTicks": 60,
          "midi": 74,
          "name": "D5",
          "ticks": 98640,
          "time": 82.2,
          "velocity": 0.8267716535433071
        },
        {
          "duration": 0.05000000000001137,
          "durationTicks": 60,
          "midi": 72,
          "name": "C5",
          "ticks": 98700,
          "time": 82.25,
          "velocity": 0.8267716535433071
        },
        {
          "duration": 0.04999999999999716,
          "durationTicks": 60,
          "midi": 71,
          "name": "B4",
          "ticks": 98760,
          "time": 82.30000000000001,
          "velocity": 0.8267716535433071
        },
        {
          "duration": 0.04999999999999716,
          "durationTicks": 60,
          "midi": 69,
          "name": "A4",
          "ticks": 98820,
          "time": 82.35000000000001,
          "velocity": 0.8267716535433071
        },
        {
          "duration": 0.3333333333333428,
          "durationTicks": 400,
          "midi": 67,
          "name": "G4",
          "ticks": 98880,
          "time": 82.4,
          "velocity": 0.8267716535433071
        },
        {
          "duration": 0.3333333333333428,
          "durationTicks": 400,
          "midi": 62,
          "name": "D4",
          "ticks": 99840,
          "time": 83.2,
          "velocity": 0.8267716535433071
        },
        {
          "duration": 0.04999999999999716,
          "durationTicks": 60,
          "midi": 74,
          "name": "D5",
          "ticks": 100560,
          "time": 83.80000000000001,
          "velocity": 0.8267716535433071
        },
        {
          "duration": 0.04999999999999716,
          "durationTicks": 60,
          "midi": 72,
          "name": "C5",
          "ticks": 100620,
          "time": 83.85000000000001,
          "velocity": 0.8267716535433071
        },
        {
          "duration": 0.04999999999999716,
          "durationTicks": 60,
          "midi": 71,
          "name": "B4",
          "ticks": 100680,
          "time": 83.9,
          "velocity": 0.8267716535433071
        },
        {
          "duration": 0.04999999999999716,
          "durationTicks": 60,
          "midi": 69,
          "name": "A4",
          "ticks": 100740,
          "time": 83.95,
          "velocity": 0.8267716535433071
        },
        {
          "duration": 0.3333333333333428,
          "durationTicks": 400,
          "midi": 71,
          "name": "B4",
          "ticks": 100800,
          "time": 84,
          "velocity": 0.8267716535433071
        },
        {
          "duration": 0.04999999999999716,
          "durationTicks": 60,
          "midi": 72,
          "name": "C5",
          "ticks": 101520,
          "time": 84.60000000000001,
          "velocity": 0.8267716535433071
        },
        {
          "duration": 0.04999999999999716,
          "durationTicks": 60,
          "midi": 71,
          "name": "B4",
          "ticks": 101580,
          "time": 84.65,
          "velocity": 0.8267716535433071
        },
        {
          "duration": 0.04999999999999716,
          "durationTicks": 60,
          "midi": 69,
          "name": "A4",
          "ticks": 101640,
          "time": 84.7,
          "velocity": 0.8267716535433071
        },
        {
          "duration": 0.05000000000001137,
          "durationTicks": 60,
          "midi": 67,
          "name": "G4",
          "ticks": 101700,
          "time": 84.75,
          "velocity": 0.8267716535433071
        },
        {
          "duration": 0.3333333333333286,
          "durationTicks": 400,
          "midi": 66,
          "name": "F#4",
          "ticks": 101760,
          "time": 84.80000000000001,
          "velocity": 0.8267716535433071
        },
        {
          "duration": 0.04999999999999716,
          "durationTicks": 60,
          "midi": 74,
          "name": "D5",
          "ticks": 102480,
          "time": 85.4,
          "velocity": 0.8267716535433071
        },
        {
          "duration": 0.04999999999999716,
          "durationTicks": 60,
          "midi": 72,
          "name": "C5",
          "ticks": 102540,
          "time": 85.45,
          "velocity": 0.8267716535433071
        },
        {
          "duration": 0.05000000000001137,
          "durationTicks": 60,
          "midi": 71,
          "name": "B4",
          "ticks": 102600,
          "time": 85.5,
          "velocity": 0.8267716535433071
        },
        {
          "duration": 0.04999999999999716,
          "durationTicks": 60,
          "midi": 69,
          "name": "A4",
          "ticks": 102660,
          "time": 85.55000000000001,
          "velocity": 0.8267716535433071
        },
        {
          "duration": 0.3333333333333286,
          "durationTicks": 400,
          "midi": 71,
          "name": "B4",
          "ticks": 102720,
          "time": 85.60000000000001,
          "velocity": 0.8267716535433071
        },
        {
          "duration": 0.04999999999999716,
          "durationTicks": 60,
          "midi": 72,
          "name": "C5",
          "ticks": 103440,
          "time": 86.2,
          "velocity": 0.8267716535433071
        },
        {
          "duration": 0.05000000000001137,
          "durationTicks": 60,
          "midi": 71,
          "name": "B4",
          "ticks": 103500,
          "time": 86.25,
          "velocity": 0.8267716535433071
        },
        {
          "duration": 0.04999999999999716,
          "durationTicks": 60,
          "midi": 69,
          "name": "A4",
          "ticks": 103560,
          "time": 86.30000000000001,
          "velocity": 0.8267716535433071
        },
        {
          "duration": 0.04999999999999716,
          "durationTicks": 60,
          "midi": 67,
          "name": "G4",
          "ticks": 103620,
          "time": 86.35000000000001,
          "velocity": 0.8267716535433071
        },
        {
          "duration": 0.3333333333333428,
          "durationTicks": 400,
          "midi": 66,
          "name": "F#4",
          "ticks": 103680,
          "time": 86.4,
          "velocity": 0.8267716535433071
        },
        {
          "duration": 0.20000000000000284,
          "durationTicks": 240,
          "midi": 59,
          "name": "B3",
          "ticks": 105600,
          "time": 88,
          "velocity": 0.4015748031496063
        },
        {
          "duration": 0.20000000000000284,
          "durationTicks": 240,
          "midi": 62,
          "name": "D4",
          "ticks": 105840,
          "time": 88.2,
          "velocity": 0.4015748031496063
        },
        {
          "duration": 0.20000000000000284,
          "durationTicks": 240,
          "midi": 59,
          "name": "B3",
          "ticks": 106080,
          "time": 88.4,
          "velocity": 0.4015748031496063
        },
        {
          "duration": 0.20000000000000284,
          "durationTicks": 240,
          "midi": 62,
          "name": "D4",
          "ticks": 106320,
          "time": 88.60000000000001,
          "velocity": 0.4015748031496063
        },
        {
          "duration": 0.19999999999998863,
          "durationTicks": 240,
          "midi": 59,
          "name": "B3",
          "ticks": 106560,
          "time": 88.80000000000001,
          "velocity": 0.4015748031496063
        },
        {
          "duration": 0.20000000000000284,
          "durationTicks": 240,
          "midi": 62,
          "name": "D4",
          "ticks": 106800,
          "time": 89,
          "velocity": 0.4015748031496063
        },
        {
          "duration": 0.20000000000000284,
          "durationTicks": 240,
          "midi": 59,
          "name": "B3",
          "ticks": 107040,
          "time": 89.2,
          "velocity": 0.4015748031496063
        },
        {
          "duration": 0.19666666666667254,
          "durationTicks": 236,
          "midi": 62,
          "name": "D4",
          "ticks": 107280,
          "time": 89.4,
          "velocity": 0.4015748031496063
        },
        {
          "duration": 0.20000000000000284,
          "durationTicks": 240,
          "midi": 60,
          "name": "C4",
          "ticks": 107520,
          "time": 89.60000000000001,
          "velocity": 0.4015748031496063
        },
        {
          "duration": 0.19999999999998863,
          "durationTicks": 240,
          "midi": 62,
          "name": "D4",
          "ticks": 107760,
          "time": 89.80000000000001,
          "velocity": 0.4015748031496063
        },
        {
          "duration": 0.20000000000000284,
          "durationTicks": 240,
          "midi": 60,
          "name": "C4",
          "ticks": 108000,
          "time": 90,
          "velocity": 0.4015748031496063
        },
        {
          "duration": 0.20000000000000284,
          "durationTicks": 240,
          "midi": 62,
          "name": "D4",
          "ticks": 108240,
          "time": 90.2,
          "velocity": 0.4015748031496063
        },
        {
          "duration": 0.20000000000000284,
          "durationTicks": 240,
          "midi": 60,
          "name": "C4",
          "ticks": 108480,
          "time": 90.4,
          "velocity": 0.4015748031496063
        },
        {
          "duration": 0.20000000000000284,
          "durationTicks": 240,
          "midi": 62,
          "name": "D4",
          "ticks": 108720,
          "time": 90.60000000000001,
          "velocity": 0.4015748031496063
        },
        {
          "duration": 0.19999999999998863,
          "durationTicks": 240,
          "midi": 60,
          "name": "C4",
          "ticks": 108960,
          "time": 90.80000000000001,
          "velocity": 0.4015748031496063
        },
        {
          "duration": 0.19666666666667254,
          "durationTicks": 236,
          "midi": 62,
          "name": "D4",
          "ticks": 109200,
          "time": 91,
          "velocity": 0.4015748031496063
        },
        {
          "duration": 0.20000000000000284,
          "durationTicks": 240,
          "midi": 57,
          "name": "A3",
          "ticks": 109440,
          "time": 91.2,
          "velocity": 0.4015748031496063
        },
        {
          "duration": 0.20000000000000284,
          "durationTicks": 240,
          "midi": 62,
          "name": "D4",
          "ticks": 109680,
          "time": 91.4,
          "velocity": 0.4015748031496063
        },
        {
          "duration": 0.20000000000000284,
          "durationTicks": 240,
          "midi": 57,
          "name": "A3",
          "ticks": 109920,
          "time": 91.60000000000001,
          "velocity": 0.4015748031496063
        },
        {
          "duration": 0.19999999999998863,
          "durationTicks": 240,
          "midi": 62,
          "name": "D4",
          "ticks": 110160,
          "time": 91.80000000000001,
          "velocity": 0.4015748031496063
        },
        {
          "duration": 0.20000000000000284,
          "durationTicks": 240,
          "midi": 57,
          "name": "A3",
          "ticks": 110400,
          "time": 92,
          "velocity": 0.4015748031496063
        },
        {
          "duration": 0.20000000000000284,
          "durationTicks": 240,
          "midi": 62,
          "name": "D4",
          "ticks": 110640,
          "time": 92.2,
          "velocity": 0.4015748031496063
        },
        {
          "duration": 0.20000000000000284,
          "durationTicks": 240,
          "midi": 58,
          "name": "A#3",
          "ticks": 110880,
          "time": 92.4,
          "velocity": 0.4015748031496063
        },
        {
          "duration": 0.19666666666667254,
          "durationTicks": 236,
          "midi": 62,
          "name": "D4",
          "ticks": 111120,
          "time": 92.60000000000001,
          "velocity": 0.4015748031496063
        },
        {
          "duration": 0.19999999999998863,
          "durationTicks": 240,
          "midi": 59,
          "name": "B3",
          "ticks": 111360,
          "time": 92.80000000000001,
          "velocity": 0.4015748031496063
        },
        {
          "duration": 0.20000000000000284,
          "durationTicks": 240,
          "midi": 62,
          "name": "D4",
          "ticks": 111600,
          "time": 93,
          "velocity": 0.4015748031496063
        },
        {
          "duration": 0.20000000000000284,
          "durationTicks": 240,
          "midi": 59,
          "name": "B3",
          "ticks": 111840,
          "time": 93.2,
          "velocity": 0.4015748031496063
        },
        {
          "duration": 0.20000000000000284,
          "durationTicks": 240,
          "midi": 62,
          "name": "D4",
          "ticks": 112080,
          "time": 93.4,
          "velocity": 0.4015748031496063
        },
        {
          "duration": 0.20000000000000284,
          "durationTicks": 240,
          "midi": 59,
          "name": "B3",
          "ticks": 112320,
          "time": 93.60000000000001,
          "velocity": 0.4015748031496063
        },
        {
          "duration": 0.19999999999998863,
          "durationTicks": 240,
          "midi": 62,
          "name": "D4",
          "ticks": 112560,
          "time": 93.80000000000001,
          "velocity": 0.4015748031496063
        },
        {
          "duration": 0.20000000000000284,
          "durationTicks": 240,
          "midi": 59,
          "name": "B3",
          "ticks": 112800,
          "time": 94,
          "velocity": 0.4015748031496063
        },
        {
          "duration": 0.19666666666667254,
          "durationTicks": 236,
          "midi": 62,
          "name": "D4",
          "ticks": 113040,
          "time": 94.2,
          "velocity": 0.4015748031496063
        },
        {
          "duration": 0.20000000000000284,
          "durationTicks": 240,
          "midi": 57,
          "name": "A3",
          "ticks": 113280,
          "time": 94.4,
          "velocity": 0.4015748031496063
        },
        {
          "duration": 0.20000000000000284,
          "durationTicks": 240,
          "midi": 62,
          "name": "D4",
          "ticks": 113520,
          "time": 94.60000000000001,
          "velocity": 0.4015748031496063
        },
        {
          "duration": 0.19999999999998863,
          "durationTicks": 240,
          "midi": 57,
          "name": "A3",
          "ticks": 113760,
          "time": 94.80000000000001,
          "velocity": 0.4015748031496063
        },
        {
          "duration": 0.20000000000000284,
          "durationTicks": 240,
          "midi": 62,
          "name": "D4",
          "ticks": 114000,
          "time": 95,
          "velocity": 0.4015748031496063
        },
        {
          "duration": 0.20000000000000284,
          "durationTicks": 240,
          "midi": 55,
          "name": "G3",
          "ticks": 114240,
          "time": 95.2,
          "velocity": 0.4015748031496063
        },
        {
          "duration": 0.20000000000000284,
          "durationTicks": 240,
          "midi": 62,
          "name": "D4",
          "ticks": 114480,
          "time": 95.4,
          "velocity": 0.4015748031496063
        },
        {
          "duration": 0.20000000000000284,
          "durationTicks": 240,
          "midi": 55,
          "name": "G3",
          "ticks": 114720,
          "time": 95.60000000000001,
          "velocity": 0.4015748031496063
        },
        {
          "duration": 0.19666666666665833,
          "durationTicks": 236,
          "midi": 67,
          "name": "G4",
          "ticks": 114960,
          "time": 95.80000000000001,
          "velocity": 0.4015748031496063
        },
        {
          "duration": 0.3333333333333428,
          "durationTicks": 400,
          "midi": 66,
          "name": "F#4",
          "ticks": 115200,
          "time": 96,
          "velocity": 0.4015748031496063
        },
        {
          "duration": 0.20000000000000284,
          "durationTicks": 240,
          "midi": 59,
          "name": "B3",
          "ticks": 117120,
          "time": 97.60000000000001,
          "velocity": 0.4015748031496063
        },
        {
          "duration": 0.19999999999998863,
          "durationTicks": 240,
          "midi": 62,
          "name": "D4",
          "ticks": 117360,
          "time": 97.80000000000001,
          "velocity": 0.4015748031496063
        },
        {
          "duration": 0.20000000000000284,
          "durationTicks": 240,
          "midi": 59,
          "name": "B3",
          "ticks": 117600,
          "time": 98,
          "velocity": 0.4015748031496063
        },
        {
          "duration": 0.20000000000000284,
          "durationTicks": 240,
          "midi": 62,
          "name": "D4",
          "ticks": 117840,
          "time": 98.2,
          "velocity": 0.4015748031496063
        },
        {
          "duration": 0.20000000000000284,
          "durationTicks": 240,
          "midi": 59,
          "name": "B3",
          "ticks": 118080,
          "time": 98.4,
          "velocity": 0.4015748031496063
        },
        {
          "duration": 0.20000000000000284,
          "durationTicks": 240,
          "midi": 62,
          "name": "D4",
          "ticks": 118320,
          "time": 98.60000000000001,
          "velocity": 0.4015748031496063
        },
        {
          "duration": 0.19999999999998863,
          "durationTicks": 240,
          "midi": 59,
          "name": "B3",
          "ticks": 118560,
          "time": 98.80000000000001,
          "velocity": 0.4015748031496063
        },
        {
          "duration": 0.19666666666667254,
          "durationTicks": 236,
          "midi": 62,
          "name": "D4",
          "ticks": 118800,
          "time": 99,
          "velocity": 0.4015748031496063
        },
        {
          "duration": 0.20000000000000284,
          "durationTicks": 240,
          "midi": 60,
          "name": "C4",
          "ticks": 119040,
          "time": 99.2,
          "velocity": 0.4015748031496063
        },
        {
          "duration": 0.20000000000000284,
          "durationTicks": 240,
          "midi": 62,
          "name": "D4",
          "ticks": 119280,
          "time": 99.4,
          "velocity": 0.4015748031496063
        },
        {
          "duration": 0.20000000000000284,
          "durationTicks": 240,
          "midi": 60,
          "name": "C4",
          "ticks": 119520,
          "time": 99.60000000000001,
          "velocity": 0.4015748031496063
        },
        {
          "duration": 0.19999999999998863,
          "durationTicks": 240,
          "midi": 62,
          "name": "D4",
          "ticks": 119760,
          "time": 99.80000000000001,
          "velocity": 0.4015748031496063
        },
        {
          "duration": 0.20000000000000284,
          "durationTicks": 240,
          "midi": 60,
          "name": "C4",
          "ticks": 120000,
          "time": 100,
          "velocity": 0.4015748031496063
        },
        {
          "duration": 0.20000000000000284,
          "durationTicks": 240,
          "midi": 62,
          "name": "D4",
          "ticks": 120240,
          "time": 100.2,
          "velocity": 0.4015748031496063
        },
        {
          "duration": 0.20000000000000284,
          "durationTicks": 240,
          "midi": 60,
          "name": "C4",
          "ticks": 120480,
          "time": 100.4,
          "velocity": 0.4015748031496063
        },
        {
          "duration": 0.19666666666667254,
          "durationTicks": 236,
          "midi": 62,
          "name": "D4",
          "ticks": 120720,
          "time": 100.60000000000001,
          "velocity": 0.4015748031496063
        },
        {
          "duration": 0.19999999999998863,
          "durationTicks": 240,
          "midi": 57,
          "name": "A3",
          "ticks": 120960,
          "time": 100.80000000000001,
          "velocity": 0.4015748031496063
        },
        {
          "duration": 0.20000000000000284,
          "durationTicks": 240,
          "midi": 62,
          "name": "D4",
          "ticks": 121200,
          "time": 101,
          "velocity": 0.4015748031496063
        },
        {
          "duration": 0.20000000000000284,
          "durationTicks": 240,
          "midi": 57,
          "name": "A3",
          "ticks": 121440,
          "time": 101.2,
          "velocity": 0.4015748031496063
        },
        {
          "duration": 0.20000000000000284,
          "durationTicks": 240,
          "midi": 62,
          "name": "D4",
          "ticks": 121680,
          "time": 101.4,
          "velocity": 0.4015748031496063
        },
        {
          "duration": 0.20000000000000284,
          "durationTicks": 240,
          "midi": 57,
          "name": "A3",
          "ticks": 121920,
          "time": 101.60000000000001,
          "velocity": 0.4015748031496063
        },
        {
          "duration": 0.19999999999998863,
          "durationTicks": 240,
          "midi": 62,
          "name": "D4",
          "ticks": 122160,
          "time": 101.80000000000001,
          "velocity": 0.4015748031496063
        },
        {
          "duration": 0.20000000000000284,
          "durationTicks": 240,
          "midi": 58,
          "name": "A#3",
          "ticks": 122400,
          "time": 102,
          "velocity": 0.4015748031496063
        },
        {
          "duration": 0.19666666666667254,
          "durationTicks": 236,
          "midi": 62,
          "name": "D4",
          "ticks": 122640,
          "time": 102.2,
          "velocity": 0.4015748031496063
        },
        {
          "duration": 0.20000000000000284,
          "durationTicks": 240,
          "midi": 59,
          "name": "B3",
          "ticks": 122880,
          "time": 102.4,
          "velocity": 0.4015748031496063
        },
        {
          "duration": 0.20000000000000284,
          "durationTicks": 240,
          "midi": 62,
          "name": "D4",
          "ticks": 123120,
          "time": 102.60000000000001,
          "velocity": 0.4015748031496063
        },
        {
          "duration": 0.19999999999998863,
          "durationTicks": 240,
          "midi": 59,
          "name": "B3",
          "ticks": 123360,
          "time": 102.80000000000001,
          "velocity": 0.4015748031496063
        },
        {
          "duration": 0.20000000000000284,
          "durationTicks": 240,
          "midi": 62,
          "name": "D4",
          "ticks": 123600,
          "time": 103,
          "velocity": 0.4015748031496063
        },
        {
          "duration": 0.20000000000000284,
          "durationTicks": 240,
          "midi": 59,
          "name": "B3",
          "ticks": 123840,
          "time": 103.2,
          "velocity": 0.4015748031496063
        },
        {
          "duration": 0.20000000000000284,
          "durationTicks": 240,
          "midi": 62,
          "name": "D4",
          "ticks": 124080,
          "time": 103.4,
          "velocity": 0.4015748031496063
        },
        {
          "duration": 0.20000000000000284,
          "durationTicks": 240,
          "midi": 59,
          "name": "B3",
          "ticks": 124320,
          "time": 103.60000000000001,
          "velocity": 0.4015748031496063
        },
        {
          "duration": 0.19666666666665833,
          "durationTicks": 236,
          "midi": 62,
          "name": "D4",
          "ticks": 124560,
          "time": 103.80000000000001,
          "velocity": 0.4015748031496063
        },
        {
          "duration": 0.20000000000000284,
          "durationTicks": 240,
          "midi": 57,
          "name": "A3",
          "ticks": 124800,
          "time": 104,
          "velocity": 0.4015748031496063
        },
        {
          "duration": 0.20000000000000284,
          "durationTicks": 240,
          "midi": 62,
          "name": "D4",
          "ticks": 125040,
          "time": 104.2,
          "velocity": 0.4015748031496063
        },
        {
          "duration": 0.20000000000000284,
          "durationTicks": 240,
          "midi": 57,
          "name": "A3",
          "ticks": 125280,
          "time": 104.4,
          "velocity": 0.4015748031496063
        },
        {
          "duration": 0.20000000000000284,
          "durationTicks": 240,
          "midi": 62,
          "name": "D4",
          "ticks": 125520,
          "time": 104.60000000000001,
          "velocity": 0.4015748031496063
        },
        {
          "duration": 0.19999999999998863,
          "durationTicks": 240,
          "midi": 55,
          "name": "G3",
          "ticks": 125760,
          "time": 104.80000000000001,
          "velocity": 0.4015748031496063
        },
        {
          "duration": 0.20000000000000284,
          "durationTicks": 240,
          "midi": 62,
          "name": "D4",
          "ticks": 126000,
          "time": 105,
          "velocity": 0.4015748031496063
        },
        {
          "duration": 0.20000000000000284,
          "durationTicks": 240,
          "midi": 55,
          "name": "G3",
          "ticks": 126240,
          "time": 105.2,
          "velocity": 0.4015748031496063
        },
        {
          "duration": 0.19666666666667254,
          "durationTicks": 236,
          "midi": 67,
          "name": "G4",
          "ticks": 126480,
          "time": 105.4,
          "velocity": 0.4015748031496063
        },
        {
          "duration": 0.20000000000000284,
          "durationTicks": 240,
          "midi": 66,
          "name": "F#4",
          "ticks": 126720,
          "time": 105.60000000000001,
          "velocity": 0.4015748031496063
        },
        {
          "duration": 0.19999999999998863,
          "durationTicks": 240,
          "midi": 62,
          "name": "D4",
          "ticks": 126960,
          "time": 105.80000000000001,
          "velocity": 0.4015748031496063
        },
        {
          "duration": 0.20000000000000284,
          "durationTicks": 240,
          "midi": 66,
          "name": "F#4",
          "ticks": 127200,
          "time": 106,
          "velocity": 0.4015748031496063
        },
        {
          "duration": 0.20000000000000284,
          "durationTicks": 240,
          "midi": 62,
          "name": "D4",
          "ticks": 127440,
          "time": 106.2,
          "velocity": 0.4015748031496063
        },
        {
          "duration": 0.20000000000000284,
          "durationTicks": 240,
          "midi": 66,
          "name": "F#4",
          "ticks": 127680,
          "time": 106.4,
          "velocity": 0.4015748031496063
        },
        {
          "duration": 0.20000000000000284,
          "durationTicks": 240,
          "midi": 62,
          "name": "D4",
          "ticks": 127920,
          "time": 106.60000000000001,
          "velocity": 0.4015748031496063
        },
        {
          "duration": 0.19999999999998863,
          "durationTicks": 240,
          "midi": 66,
          "name": "F#4",
          "ticks": 128160,
          "time": 106.80000000000001,
          "velocity": 0.4015748031496063
        },
        {
          "duration": 0.19666666666667254,
          "durationTicks": 236,
          "midi": 69,
          "name": "A4",
          "ticks": 128400,
          "time": 107,
          "velocity": 0.4015748031496063
        },
        {
          "duration": 0.20000000000000284,
          "durationTicks": 240,
          "midi": 67,
          "name": "G4",
          "ticks": 128640,
          "time": 107.2,
          "velocity": 0.4015748031496063
        },
        {
          "duration": 0.20000000000000284,
          "durationTicks": 240,
          "midi": 62,
          "name": "D4",
          "ticks": 128880,
          "time": 107.4,
          "velocity": 0.4015748031496063
        },
        {
          "duration": 0.20000000000000284,
          "durationTicks": 240,
          "midi": 59,
          "name": "B3",
          "ticks": 129120,
          "time": 107.60000000000001,
          "velocity": 0.4015748031496063
        },
        {
          "duration": 0.19999999999998863,
          "durationTicks": 240,
          "midi": 67,
          "name": "G4",
          "ticks": 129360,
          "time": 107.80000000000001,
          "velocity": 0.4015748031496063
        },
        {
          "duration": 0.20000000000000284,
          "durationTicks": 240,
          "midi": 66,
          "name": "F#4",
          "ticks": 129600,
          "time": 108,
          "velocity": 0.4015748031496063
        },
        {
          "duration": 0.20000000000000284,
          "durationTicks": 240,
          "midi": 60,
          "name": "C4",
          "ticks": 129840,
          "time": 108.2,
          "velocity": 0.4015748031496063
        },
        {
          "duration": 0.20000000000000284,
          "durationTicks": 240,
          "midi": 57,
          "name": "A3",
          "ticks": 130080,
          "time": 108.4,
          "velocity": 0.4015748031496063
        },
        {
          "duration": 0.19666666666667254,
          "durationTicks": 236,
          "midi": 66,
          "name": "F#4",
          "ticks": 130320,
          "time": 108.60000000000001,
          "velocity": 0.4015748031496063
        },
        {
          "duration": 0.19999999999998863,
          "durationTicks": 240,
          "midi": 67,
          "name": "G4",
          "ticks": 130560,
          "time": 108.80000000000001,
          "velocity": 0.4015748031496063
        },
        {
          "duration": 0.20000000000000284,
          "durationTicks": 240,
          "midi": 64,
          "name": "E4",
          "ticks": 130800,
          "time": 109,
          "velocity": 0.4015748031496063
        },
        {
          "duration": 0.20000000000000284,
          "durationTicks": 240,
          "midi": 59,
          "name": "B3",
          "ticks": 131040,
          "time": 109.2,
          "velocity": 0.4015748031496063
        },
        {
          "duration": 0.20000000000000284,
          "durationTicks": 240,
          "midi": 64,
          "name": "E4",
          "ticks": 131280,
          "time": 109.4,
          "velocity": 0.4015748031496063
        },
        {
          "duration": 0.20000000000000284,
          "durationTicks": 240,
          "midi": 67,
          "name": "G4",
          "ticks": 131520,
          "time": 109.60000000000001,
          "velocity": 0.4015748031496063
        },
        {
          "duration": 0.19999999999998863,
          "durationTicks": 240,
          "midi": 59,
          "name": "B3",
          "ticks": 131760,
          "time": 109.80000000000001,
          "velocity": 0.4015748031496063
        },
        {
          "duration": 0.20000000000000284,
          "durationTicks": 240,
          "midi": 64,
          "name": "E4",
          "ticks": 132000,
          "time": 110,
          "velocity": 0.4015748031496063
        },
        {
          "duration": 0.19666666666667254,
          "durationTicks": 236,
          "midi": 60,
          "name": "C4",
          "ticks": 132240,
          "time": 110.2,
          "velocity": 0.4015748031496063
        },
        {
          "duration": 0.20000000000000284,
          "durationTicks": 240,
          "midi": 59,
          "name": "B3",
          "ticks": 132480,
          "time": 110.4,
          "velocity": 0.4015748031496063
        },
        {
          "duration": 0.20000000000000284,
          "durationTicks": 240,
          "midi": 62,
          "name": "D4",
          "ticks": 132720,
          "time": 110.60000000000001,
          "velocity": 0.4015748031496063
        },
        {
          "duration": 0.19999999999998863,
          "durationTicks": 240,
          "midi": 59,
          "name": "B3",
          "ticks": 132960,
          "time": 110.80000000000001,
          "velocity": 0.4015748031496063
        },
        {
          "duration": 0.20000000000000284,
          "durationTicks": 240,
          "midi": 62,
          "name": "D4",
          "ticks": 133200,
          "time": 111,
          "velocity": 0.4015748031496063
        },
        {
          "duration": 0.20000000000000284,
          "durationTicks": 240,
          "midi": 59,
          "name": "B3",
          "ticks": 133440,
          "time": 111.2,
          "velocity": 0.4015748031496063
        },
        {
          "duration": 0.20000000000000284,
          "durationTicks": 240,
          "midi": 62,
          "name": "D4",
          "ticks": 133680,
          "time": 111.4,
          "velocity": 0.4015748031496063
        },
        {
          "duration": 0.20000000000000284,
          "durationTicks": 240,
          "midi": 60,
          "name": "C4",
          "ticks": 133920,
          "time": 111.60000000000001,
          "velocity": 0.4015748031496063
        },
        {
          "duration": 0.19666666666665833,
          "durationTicks": 236,
          "midi": 62,
          "name": "D4",
          "ticks": 134160,
          "time": 111.80000000000001,
          "velocity": 0.4015748031496063
        },
        {
          "duration": 0.20000000000000284,
          "durationTicks": 240,
          "midi": 59,
          "name": "B3",
          "ticks": 134400,
          "time": 112,
          "velocity": 0.4015748031496063
        },
        {
          "duration": 0.20000000000000284,
          "durationTicks": 240,
          "midi": 62,
          "name": "D4",
          "ticks": 134640,
          "time": 112.2,
          "velocity": 0.4015748031496063
        },
        {
          "duration": 0.20000000000000284,
          "durationTicks": 240,
          "midi": 67,
          "name": "G4",
          "ticks": 134880,
          "time": 112.4,
          "velocity": 0.4015748031496063
        },
        {
          "duration": 0.20000000000000284,
          "durationTicks": 240,
          "midi": 62,
          "name": "D4",
          "ticks": 135120,
          "time": 112.60000000000001,
          "velocity": 0.4015748031496063
        },
        {
          "duration": 0.19999999999998863,
          "durationTicks": 240,
          "midi": 59,
          "name": "B3",
          "ticks": 135360,
          "time": 112.80000000000001,
          "velocity": 0.4015748031496063
        },
        {
          "duration": 0.20000000000000284,
          "durationTicks": 240,
          "midi": 62,
          "name": "D4",
          "ticks": 135600,
          "time": 113,
          "velocity": 0.4015748031496063
        },
        {
          "duration": 0.20000000000000284,
          "durationTicks": 240,
          "midi": 67,
          "name": "G4",
          "ticks": 135840,
          "time": 113.2,
          "velocity": 0.4015748031496063
        },
        {
          "duration": 0.19666666666667254,
          "durationTicks": 236,
          "midi": 62,
          "name": "D4",
          "ticks": 136080,
          "time": 113.4,
          "velocity": 0.4015748031496063
        },
        {
          "duration": 0.20000000000000284,
          "durationTicks": 240,
          "midi": 66,
          "name": "F#4",
          "ticks": 136320,
          "time": 113.60000000000001,
          "velocity": 0.4015748031496063
        },
        {
          "duration": 0.19999999999998863,
          "durationTicks": 240,
          "midi": 62,
          "name": "D4",
          "ticks": 136560,
          "time": 113.80000000000001,
          "velocity": 0.4015748031496063
        },
        {
          "duration": 0.20000000000000284,
          "durationTicks": 240,
          "midi": 57,
          "name": "A3",
          "ticks": 136800,
          "time": 114,
          "velocity": 0.4015748031496063
        },
        {
          "duration": 0.20000000000000284,
          "durationTicks": 240,
          "midi": 62,
          "name": "D4",
          "ticks": 137040,
          "time": 114.2,
          "velocity": 0.4015748031496063
        },
        {
          "duration": 0.20000000000000284,
          "durationTicks": 240,
          "midi": 66,
          "name": "F#4",
          "ticks": 137280,
          "time": 114.4,
          "velocity": 0.4015748031496063
        },
        {
          "duration": 0.20000000000000284,
          "durationTicks": 240,
          "midi": 62,
          "name": "D4",
          "ticks": 137520,
          "time": 114.60000000000001,
          "velocity": 0.4015748031496063
        },
        {
          "duration": 0.19999999999998863,
          "durationTicks": 240,
          "midi": 66,
          "name": "F#4",
          "ticks": 137760,
          "time": 114.80000000000001,
          "velocity": 0.4015748031496063
        },
        {
          "duration": 0.19666666666667254,
          "durationTicks": 236,
          "midi": 62,
          "name": "D4",
          "ticks": 138000,
          "time": 115,
          "velocity": 0.4015748031496063
        },
        {
          "duration": 0.20000000000000284,
          "durationTicks": 240,
          "midi": 67,
          "name": "G4",
          "ticks": 138240,
          "time": 115.2,
          "velocity": 0.4015748031496063
        },
        {
          "duration": 0.20000000000000284,
          "durationTicks": 240,
          "midi": 62,
          "name": "D4",
          "ticks": 138480,
          "time": 115.4,
          "velocity": 0.4015748031496063
        },
        {
          "duration": 0.20000000000000284,
          "durationTicks": 240,
          "midi": 59,
          "name": "B3",
          "ticks": 138720,
          "time": 115.60000000000001,
          "velocity": 0.4015748031496063
        },
        {
          "duration": 0.19999999999998863,
          "durationTicks": 240,
          "midi": 62,
          "name": "D4",
          "ticks": 138960,
          "time": 115.80000000000001,
          "velocity": 0.4015748031496063
        },
        {
          "duration": 0.20000000000000284,
          "durationTicks": 240,
          "midi": 67,
          "name": "G4",
          "ticks": 139200,
          "time": 116,
          "velocity": 0.4015748031496063
        },
        {
          "duration": 0.20000000000000284,
          "durationTicks": 240,
          "midi": 59,
          "name": "B3",
          "ticks": 139440,
          "time": 116.2,
          "velocity": 0.4015748031496063
        },
        {
          "duration": 0.20000000000000284,
          "durationTicks": 240,
          "midi": 55,
          "name": "G3",
          "ticks": 139680,
          "time": 116.4,
          "velocity": 0.4015748031496063
        },
        {
          "duration": 0.19666666666667254,
          "durationTicks": 236,
          "midi": 59,
          "name": "B3",
          "ticks": 139920,
          "time": 116.60000000000001,
          "velocity": 0.4015748031496063
        },
        {
          "duration": 0.19999999999998863,
          "durationTicks": 240,
          "midi": 67,
          "name": "G4",
          "ticks": 140160,
          "time": 116.80000000000001,
          "velocity": 0.4015748031496063
        },
        {
          "duration": 0.20000000000000284,
          "durationTicks": 240,
          "midi": 64,
          "name": "E4",
          "ticks": 140400,
          "time": 117,
          "velocity": 0.4015748031496063
        },
        {
          "duration": 0.20000000000000284,
          "durationTicks": 240,
          "midi": 57,
          "name": "A3",
          "ticks": 140640,
          "time": 117.2,
          "velocity": 0.4015748031496063
        },
        {
          "duration": 0.20000000000000284,
          "durationTicks": 240,
          "midi": 64,
          "name": "E4",
          "ticks": 140880,
          "time": 117.4,
          "velocity": 0.4015748031496063
        },
        {
          "duration": 0.20000000000000284,
          "durationTicks": 240,
          "midi": 66,
          "name": "F#4",
          "ticks": 141120,
          "time": 117.60000000000001,
          "velocity": 0.4015748031496063
        },
        {
          "duration": 0.19999999999998863,
          "durationTicks": 240,
          "midi": 62,
          "name": "D4",
          "ticks": 141360,
          "time": 117.80000000000001,
          "velocity": 0.4015748031496063
        },
        {
          "duration": 0.20000000000000284,
          "durationTicks": 240,
          "midi": 60,
          "name": "C4",
          "ticks": 141600,
          "time": 118,
          "velocity": 0.4015748031496063
        },
        {
          "duration": 0.19666666666667254,
          "durationTicks": 236,
          "midi": 62,
          "name": "D4",
          "ticks": 141840,
          "time": 118.2,
          "velocity": 0.4015748031496063
        },
        {
          "duration": 0.20000000000000284,
          "durationTicks": 240,
          "midi": 59,
          "name": "B3",
          "ticks": 142080,
          "time": 118.4,
          "velocity": 0.4015748031496063
        },
        {
          "duration": 0.20000000000000284,
          "durationTicks": 240,
          "midi": 62,
          "name": "D4",
          "ticks": 142320,
          "time": 118.60000000000001,
          "velocity": 0.4015748031496063
        },
        {
          "duration": 0.19999999999998863,
          "durationTicks": 240,
          "midi": 67,
          "name": "G4",
          "ticks": 142560,
          "time": 118.80000000000001,
          "velocity": 0.4015748031496063
        },
        {
          "duration": 0.20000000000000284,
          "durationTicks": 240,
          "midi": 62,
          "name": "D4",
          "ticks": 142800,
          "time": 119,
          "velocity": 0.4015748031496063
        },
        {
          "duration": 0.20000000000000284,
          "durationTicks": 240,
          "midi": 59,
          "name": "B3",
          "ticks": 143040,
          "time": 119.2,
          "velocity": 0.4015748031496063
        },
        {
          "duration": 0.20000000000000284,
          "durationTicks": 240,
          "midi": 62,
          "name": "D4",
          "ticks": 143280,
          "time": 119.4,
          "velocity": 0.4015748031496063
        },
        {
          "duration": 0.20000000000000284,
          "durationTicks": 240,
          "midi": 67,
          "name": "G4",
          "ticks": 143520,
          "time": 119.60000000000001,
          "velocity": 0.4015748031496063
        },
        {
          "duration": 0.19666666666665833,
          "durationTicks": 236,
          "midi": 62,
          "name": "D4",
          "ticks": 143760,
          "time": 119.80000000000001,
          "velocity": 0.4015748031496063
        },
        {
          "duration": 0.20000000000000284,
          "durationTicks": 240,
          "midi": 66,
          "name": "F#4",
          "ticks": 144000,
          "time": 120,
          "velocity": 0.4015748031496063
        },
        {
          "duration": 0.20000000000000284,
          "durationTicks": 240,
          "midi": 62,
          "name": "D4",
          "ticks": 144240,
          "time": 120.2,
          "velocity": 0.4015748031496063
        },
        {
          "duration": 0.20000000000000284,
          "durationTicks": 240,
          "midi": 57,
          "name": "A3",
          "ticks": 144480,
          "time": 120.4,
          "velocity": 0.4015748031496063
        },
        {
          "duration": 0.20000000000000284,
          "durationTicks": 240,
          "midi": 62,
          "name": "D4",
          "ticks": 144720,
          "time": 120.60000000000001,
          "velocity": 0.4015748031496063
        },
        {
          "duration": 0.19999999999998863,
          "durationTicks": 240,
          "midi": 66,
          "name": "F#4",
          "ticks": 144960,
          "time": 120.80000000000001,
          "velocity": 0.4015748031496063
        },
        {
          "duration": 0.20000000000000284,
          "durationTicks": 240,
          "midi": 62,
          "name": "D4",
          "ticks": 145200,
          "time": 121,
          "velocity": 0.4015748031496063
        },
        {
          "duration": 0.20000000000000284,
          "durationTicks": 240,
          "midi": 57,
          "name": "A3",
          "ticks": 145440,
          "time": 121.2,
          "velocity": 0.4015748031496063
        },
        {
          "duration": 0.19666666666667254,
          "durationTicks": 236,
          "midi": 62,
          "name": "D4",
          "ticks": 145680,
          "time": 121.4,
          "velocity": 0.4015748031496063
        },
        {
          "duration": 0.09999999999999432,
          "durationTicks": 120,
          "midi": 67,
          "name": "G4",
          "ticks": 145920,
          "time": 121.60000000000001,
          "velocity": 0.4015748031496063
        },
        {
          "duration": 0.10000000000000853,
          "durationTicks": 120,
          "midi": 77,
          "name": "F5",
          "ticks": 146400,
          "time": 122,
          "velocity": 0.4015748031496063
        },
        {
          "duration": 0.09999999999999432,
          "durationTicks": 120,
          "midi": 77,
          "name": "F5",
          "ticks": 146880,
          "time": 122.4,
          "velocity": 0.4015748031496063
        },
        {
          "duration": 0.10000000000000853,
          "durationTicks": 120,
          "midi": 76,
          "name": "E5",
          "ticks": 147840,
          "time": 123.2,
          "velocity": 0.4015748031496063
        },
        {
          "duration": 0.09999999999999432,
          "durationTicks": 120,
          "midi": 76,
          "name": "E5",
          "ticks": 148320,
          "time": 123.60000000000001,
          "velocity": 0.4015748031496063
        },
        {
          "duration": 0.10000000000000853,
          "durationTicks": 120,
          "midi": 76,
          "name": "E5",
          "ticks": 148800,
          "time": 124,
          "velocity": 0.4015748031496063
        },
        {
          "duration": 0.09999999999999432,
          "durationTicks": 120,
          "midi": 79,
          "name": "G5",
          "ticks": 149760,
          "time": 124.80000000000001,
          "velocity": 0.4015748031496063
        },
        {
          "duration": 0.10000000000000853,
          "durationTicks": 120,
          "midi": 79,
          "name": "G5",
          "ticks": 150240,
          "time": 125.2,
          "velocity": 0.4015748031496063
        },
        {
          "duration": 0.09999999999999432,
          "durationTicks": 120,
          "midi": 79,
          "name": "G5",
          "ticks": 150720,
          "time": 125.60000000000001,
          "velocity": 0.4015748031496063
        },
        {
          "duration": 0.700000000000017,
          "durationTicks": 840,
          "midi": 55,
          "name": "G3",
          "ticks": 153600,
          "time": 128,
          "velocity": 0.8267716535433071
        },
        {
          "duration": 0.6999999999999886,
          "durationTicks": 840,
          "midi": 55,
          "name": "G3",
          "ticks": 154560,
          "time": 128.8,
          "velocity": 0.8267716535433071
        },
        {
          "duration": 0.700000000000017,
          "durationTicks": 840,
          "midi": 55,
          "name": "G3",
          "ticks": 155520,
          "time": 129.6,
          "velocity": 0.8267716535433071
        },
        {
          "duration": 0.6999999999999886,
          "durationTicks": 840,
          "midi": 55,
          "name": "G3",
          "ticks": 156480,
          "time": 130.4,
          "velocity": 0.8267716535433071
        },
        {
          "duration": 0.6999999999999886,
          "durationTicks": 840,
          "midi": 55,
          "name": "G3",
          "ticks": 157440,
          "time": 131.20000000000002,
          "velocity": 0.8267716535433071
        },
        {
          "duration": 0.700000000000017,
          "durationTicks": 840,
          "midi": 56,
          "name": "G#3",
          "ticks": 158400,
          "time": 132,
          "velocity": 0.8267716535433071
        },
        {
          "duration": 0.6999999999999886,
          "durationTicks": 840,
          "midi": 57,
          "name": "A3",
          "ticks": 159360,
          "time": 132.8,
          "velocity": 0.8267716535433071
        },
        {
          "duration": 0.700000000000017,
          "durationTicks": 840,
          "midi": 59,
          "name": "B3",
          "ticks": 160320,
          "time": 133.6,
          "velocity": 0.8267716535433071
        },
        {
          "duration": 0.3333333333333144,
          "durationTicks": 400,
          "midi": 60,
          "name": "C4",
          "ticks": 161280,
          "time": 134.4,
          "velocity": 0.8267716535433071
        },
        {
          "duration": 0.3333333333333144,
          "durationTicks": 400,
          "midi": 55,
          "name": "G3",
          "ticks": 161760,
          "time": 134.8,
          "velocity": 0.8267716535433071
        },
        {
          "duration": 0.3333333333333144,
          "durationTicks": 400,
          "midi": 60,
          "name": "C4",
          "ticks": 162240,
          "time": 135.20000000000002,
          "velocity": 0.8267716535433071
        },
        {
          "duration": 0.3333333333333428,
          "durationTicks": 400,
          "midi": 64,
          "name": "E4",
          "ticks": 162720,
          "time": 135.6,
          "velocity": 0.8267716535433071
        },
        {
          "duration": 0.3333333333333428,
          "durationTicks": 400,
          "midi": 67,
          "name": "G4",
          "ticks": 163200,
          "time": 136,
          "velocity": 0.8267716535433071
        },
        {
          "duration": 0.3333333333333144,
          "durationTicks": 400,
          "midi": 72,
          "name": "C5",
          "ticks": 163680,
          "time": 136.4,
          "velocity": 0.8267716535433071
        },
        {
          "duration": 0.19999999999998863,
          "durationTicks": 240,
          "midi": 76,
          "name": "E5",
          "ticks": 164160,
          "time": 136.8,
          "velocity": 0.8267716535433071
        },
        {
          "duration": 0.19999999999998863,
          "durationTicks": 240,
          "midi": 79,
          "name": "G5",
          "ticks": 164640,
          "time": 137.20000000000002,
          "velocity": 0.8267716535433071
        },
        {
          "duration": 0.19666666666668675,
          "durationTicks": 236,
          "midi": 71,
          "name": "B4",
          "ticks": 165120,
          "time": 137.6,
          "velocity": 0.8267716535433071
        },
        {
          "duration": 0.19666666666668675,
          "durationTicks": 236,
          "midi": 79,
          "name": "G5",
          "ticks": 165120,
          "time": 137.6,
          "velocity": 0.8267716535433071
        },
        {
          "duration": 0.3333333333333144,
          "durationTicks": 400,
          "midi": 71,
          "name": "B4",
          "ticks": 165360,
          "time": 137.8,
          "velocity": 0.8267716535433071
        },
        {
          "duration": 0.3333333333333144,
          "durationTicks": 400,
          "midi": 79,
          "name": "G5",
          "ticks": 165360,
          "time": 137.8,
          "velocity": 0.8267716535433071
        },
        {
          "duration": 0.3333333333333144,
          "durationTicks": 400,
          "midi": 71,
          "name": "B4",
          "ticks": 165840,
          "time": 138.20000000000002,
          "velocity": 0.8267716535433071
        },
        {
          "duration": 0.3333333333333144,
          "durationTicks": 400,
          "midi": 79,
          "name": "G5",
          "ticks": 165840,
          "time": 138.20000000000002,
          "velocity": 0.8267716535433071
        },
        {
          "duration": 0.3333333333333428,
          "durationTicks": 400,
          "midi": 71,
          "name": "B4",
          "ticks": 166320,
          "time": 138.6,
          "velocity": 0.8267716535433071
        },
        {
          "duration": 0.3333333333333428,
          "durationTicks": 400,
          "midi": 79,
          "name": "G5",
          "ticks": 166320,
          "time": 138.6,
          "velocity": 0.8267716535433071
        },
        {
          "duration": 0.20000000000001705,
          "durationTicks": 240,
          "midi": 71,
          "name": "B4",
          "ticks": 166800,
          "time": 139,
          "velocity": 0.8267716535433071
        },
        {
          "duration": 0.20000000000001705,
          "durationTicks": 240,
          "midi": 79,
          "name": "G5",
          "ticks": 166800,
          "time": 139,
          "velocity": 0.8267716535433071
        },
        {
          "duration": 0.19666666666665833,
          "durationTicks": 236,
          "midi": 71,
          "name": "B4",
          "ticks": 167040,
          "time": 139.20000000000002,
          "velocity": 0.8267716535433071
        },
        {
          "duration": 0.19666666666665833,
          "durationTicks": 236,
          "midi": 79,
          "name": "G5",
          "ticks": 167040,
          "time": 139.20000000000002,
          "velocity": 0.8267716535433071
        },
        {
          "duration": 0.3333333333333144,
          "durationTicks": 400,
          "midi": 71,
          "name": "B4",
          "ticks": 167280,
          "time": 139.4,
          "velocity": 0.8267716535433071
        },
        {
          "duration": 0.3333333333333144,
          "durationTicks": 400,
          "midi": 79,
          "name": "G5",
          "ticks": 167280,
          "time": 139.4,
          "velocity": 0.8267716535433071
        },
        {
          "duration": 0.19999999999998863,
          "durationTicks": 240,
          "midi": 71,
          "name": "B4",
          "ticks": 167760,
          "time": 139.8,
          "velocity": 0.8267716535433071
        },
        {
          "duration": 0.19999999999998863,
          "durationTicks": 240,
          "midi": 79,
          "name": "G5",
          "ticks": 167760,
          "time": 139.8,
          "velocity": 0.8267716535433071
        },
        {
          "duration": 0.19666666666668675,
          "durationTicks": 236,
          "midi": 71,
          "name": "B4",
          "ticks": 168000,
          "time": 140,
          "velocity": 0.8267716535433071
        },
        {
          "duration": 0.19666666666668675,
          "durationTicks": 236,
          "midi": 79,
          "name": "G5",
          "ticks": 168000,
          "time": 140,
          "velocity": 0.8267716535433071
        },
        {
          "duration": 0.19666666666665833,
          "durationTicks": 236,
          "midi": 62,
          "name": "D4",
          "ticks": 168480,
          "time": 140.4,
          "velocity": 0.8267716535433071
        },
        {
          "duration": 0.19666666666665833,
          "durationTicks": 236,
          "midi": 69,
          "name": "A4",
          "ticks": 168480,
          "time": 140.4,
          "velocity": 0.8267716535433071
        },
        {
          "duration": 0.19666666666665833,
          "durationTicks": 236,
          "midi": 78,
          "name": "F#5",
          "ticks": 168480,
          "time": 140.4,
          "velocity": 0.8267716535433071
        },
        {
          "duration": 0.5999999999999943,
          "durationTicks": 720,
          "midi": 59,
          "name": "B3",
          "ticks": 168960,
          "time": 140.8,
          "velocity": 0.8267716535433071
        },
        {
          "duration": 0.19666666666665833,
          "durationTicks": 236,
          "midi": 57,
          "name": "A3",
          "ticks": 169680,
          "time": 141.4,
          "velocity": 0.8267716535433071
        },
        {
          "duration": 0.30000000000001137,
          "durationTicks": 360,
          "midi": 60,
          "name": "C4",
          "ticks": 169920,
          "time": 141.6,
          "velocity": 0.8267716535433071
        },
        {
          "duration": 0.09999999999999432,
          "durationTicks": 120,
          "midi": 59,
          "name": "B3",
          "ticks": 170280,
          "time": 141.9,
          "velocity": 0.8267716535433071
        },
        {
          "duration": 0.30000000000001137,
          "durationTicks": 360,
          "midi": 64,
          "name": "E4",
          "ticks": 170400,
          "time": 142,
          "velocity": 0.8267716535433071
        },
        {
          "duration": 0.09666666666666401,
          "durationTicks": 116,
          "midi": 62,
          "name": "D4",
          "ticks": 170760,
          "time": 142.3,
          "velocity": 0.8267716535433071
        },
        {
          "duration": 0.5999999999999943,
          "durationTicks": 720,
          "midi": 60,
          "name": "C4",
          "ticks": 170880,
          "time": 142.4,
          "velocity": 0.8267716535433071
        },
        {
          "duration": 0.19666666666668675,
          "durationTicks": 236,
          "midi": 59,
          "name": "B3",
          "ticks": 171600,
          "time": 143,
          "velocity": 0.8267716535433071
        },
        {
          "duration": 0.29999999999998295,
          "durationTicks": 360,
          "midi": 62,
          "name": "D4",
          "ticks": 171840,
          "time": 143.20000000000002,
          "velocity": 0.8267716535433071
        },
        {
          "duration": 0.09999999999999432,
          "durationTicks": 120,
          "midi": 60,
          "name": "C4",
          "ticks": 172200,
          "time": 143.5,
          "velocity": 0.8267716535433071
        },
        {
          "duration": 0.30000000000001137,
          "durationTicks": 360,
          "midi": 65,
          "name": "F4",
          "ticks": 172320,
          "time": 143.6,
          "velocity": 0.8267716535433071
        },
        {
          "duration": 0.09666666666666401,
          "durationTicks": 116,
          "midi": 64,
          "name": "E4",
          "ticks": 172680,
          "time": 143.9,
          "velocity": 0.8267716535433071
        },
        {
          "duration": 0.5999999999999943,
          "durationTicks": 720,
          "midi": 62,
          "name": "D4",
          "ticks": 172800,
          "time": 144,
          "velocity": 0.8267716535433071
        },
        {
          "duration": 0.19666666666668675,
          "durationTicks": 236,
          "midi": 61,
          "name": "C#4",
          "ticks": 173520,
          "time": 144.6,
          "velocity": 0.8267716535433071
        },
        {
          "duration": 0.29999999999998295,
          "durationTicks": 360,
          "midi": 64,
          "name": "E4",
          "ticks": 173760,
          "time": 144.8,
          "velocity": 0.8267716535433071
        },
        {
          "duration": 0.10000000000002274,
          "durationTicks": 120,
          "midi": 62,
          "name": "D4",
          "ticks": 174120,
          "time": 145.1,
          "velocity": 0.8267716535433071
        },
        {
          "duration": 0.29999999999998295,
          "durationTicks": 360,
          "midi": 67,
          "name": "G4",
          "ticks": 174240,
          "time": 145.20000000000002,
          "velocity": 0.8267716535433071
        },
        {
          "duration": 0.09666666666666401,
          "durationTicks": 116,
          "midi": 65,
          "name": "F4",
          "ticks": 174600,
          "time": 145.5,
          "velocity": 0.8267716535433071
        },
        {
          "duration": 0.5333333333333314,
          "durationTicks": 640,
          "midi": 64,
          "name": "E4",
          "ticks": 174720,
          "time": 145.6,
          "velocity": 0.6771653543307087
        },
        {
          "duration": 0.19666666666665833,
          "durationTicks": 236,
          "midi": 64,
          "name": "E4",
          "ticks": 175440,
          "time": 146.20000000000002,
          "velocity": 0.6771653543307087
        },
        {
          "duration": 0.5333333333333314,
          "durationTicks": 640,
          "midi": 62,
          "name": "D4",
          "ticks": 175680,
          "time": 146.4,
          "velocity": 0.6771653543307087
        },
        {
          "duration": 0.19666666666668675,
          "durationTicks": 236,
          "midi": 62,
          "name": "D4",
          "ticks": 176400,
          "time": 147,
          "velocity": 0.6771653543307087
        },
        {
          "duration": 0.3333333333333144,
          "durationTicks": 400,
          "midi": 64,
          "name": "E4",
          "ticks": 176640,
          "time": 147.20000000000002,
          "velocity": 0.6771653543307087
        },
        {
          "duration": 0.3333333333333144,
          "durationTicks": 400,
          "midi": 72,
          "name": "C5",
          "ticks": 176640,
          "time": 147.20000000000002,
          "velocity": 0.6771653543307087
        },
        {
          "duration": 0.3333333333333428,
          "durationTicks": 400,
          "midi": 57,
          "name": "A3",
          "ticks": 177600,
          "time": 148,
          "velocity": 0.6771653543307087
        },
        {
          "duration": 0.3333333333333428,
          "durationTicks": 400,
          "midi": 66,
          "name": "F#4",
          "ticks": 177600,
          "time": 148,
          "velocity": 0.6771653543307087
        },
        {
          "duration": 0.5999999999999943,
          "durationTicks": 720,
          "midi": 59,
          "name": "B3",
          "ticks": 178560,
          "time": 148.8,
          "velocity": 0.6771653543307087
        },
        {
          "duration": 0.19666666666665833,
          "durationTicks": 236,
          "midi": 57,
          "name": "A3",
          "ticks": 179280,
          "time": 149.4,
          "velocity": 0.6771653543307087
        },
        {
          "duration": 0.30000000000001137,
          "durationTicks": 360,
          "midi": 60,
          "name": "C4",
          "ticks": 179520,
          "time": 149.6,
          "velocity": 0.6771653543307087
        },
        {
          "duration": 0.09666666666666401,
          "durationTicks": 116,
          "midi": 59,
          "name": "B3",
          "ticks": 179880,
          "time": 149.9,
          "velocity": 0.6771653543307087
        },
        {
          "duration": 0.30000000000001137,
          "durationTicks": 360,
          "midi": 64,
          "name": "E4",
          "ticks": 180000,
          "time": 150,
          "velocity": 0.6771653543307087
        },
        {
          "duration": 0.09666666666666401,
          "durationTicks": 116,
          "midi": 62,
          "name": "D4",
          "ticks": 180360,
          "time": 150.3,
          "velocity": 0.6771653543307087
        },
        {
          "duration": 0.5999999999999943,
          "durationTicks": 720,
          "midi": 60,
          "name": "C4",
          "ticks": 180480,
          "time": 150.4,
          "velocity": 0.6771653543307087
        },
        {
          "duration": 0.19666666666668675,
          "durationTicks": 236,
          "midi": 59,
          "name": "B3",
          "ticks": 181200,
          "time": 151,
          "velocity": 0.6771653543307087
        },
        {
          "duration": 0.29999999999998295,
          "durationTicks": 360,
          "midi": 62,
          "name": "D4",
          "ticks": 181440,
          "time": 151.20000000000002,
          "velocity": 0.6771653543307087
        },
        {
          "duration": 0.09666666666666401,
          "durationTicks": 116,
          "midi": 60,
          "name": "C4",
          "ticks": 181800,
          "time": 151.5,
          "velocity": 0.6771653543307087
        },
        {
          "duration": 0.30000000000001137,
          "durationTicks": 360,
          "midi": 65,
          "name": "F4",
          "ticks": 181920,
          "time": 151.6,
          "velocity": 0.6771653543307087
        },
        {
          "duration": 0.09666666666666401,
          "durationTicks": 116,
          "midi": 64,
          "name": "E4",
          "ticks": 182280,
          "time": 151.9,
          "velocity": 0.6771653543307087
        },
        {
          "duration": 0.5999999999999943,
          "durationTicks": 720,
          "midi": 62,
          "name": "D4",
          "ticks": 182400,
          "time": 152,
          "velocity": 0.6771653543307087
        },
        {
          "duration": 0.19666666666668675,
          "durationTicks": 236,
          "midi": 61,
          "name": "C#4",
          "ticks": 183120,
          "time": 152.6,
          "velocity": 0.6771653543307087
        },
        {
          "duration": 0.29999999999998295,
          "durationTicks": 360,
          "midi": 64,
          "name": "E4",
          "ticks": 183360,
          "time": 152.8,
          "velocity": 0.6771653543307087
        },
        {
          "duration": 0.09666666666669244,
          "durationTicks": 116,
          "midi": 62,
          "name": "D4",
          "ticks": 183720,
          "time": 153.1,
          "velocity": 0.6771653543307087
        },
        {
          "duration": 0.29999999999998295,
          "durationTicks": 360,
          "midi": 67,
          "name": "G4",
          "ticks": 183840,
          "time": 153.20000000000002,
          "velocity": 0.6771653543307087
        },
        {
          "duration": 0.09666666666666401,
          "durationTicks": 116,
          "midi": 65,
          "name": "F4",
          "ticks": 184200,
          "time": 153.5,
          "velocity": 0.6771653543307087
        },
        {
          "duration": 0.3333333333333144,
          "durationTicks": 400,
          "midi": 64,
          "name": "E4",
          "ticks": 184320,
          "time": 153.60000000000002,
          "velocity": 0.6771653543307087
        },
        {
          "duration": 0.3333333333333428,
          "durationTicks": 400,
          "midi": 65,
          "name": "F4",
          "ticks": 184800,
          "time": 154,
          "velocity": 0.6771653543307087
        },
        {
          "duration": 0.3333333333333428,
          "durationTicks": 400,
          "midi": 64,
          "name": "E4",
          "ticks": 185280,
          "time": 154.4,
          "velocity": 0.6771653543307087
        },
        {
          "duration": 0.3333333333333144,
          "durationTicks": 400,
          "midi": 62,
          "name": "D4",
          "ticks": 185760,
          "time": 154.8,
          "velocity": 0.6771653543307087
        },
        {
          "duration": 0.3333333333333144,
          "durationTicks": 400,
          "midi": 60,
          "name": "C4",
          "ticks": 186240,
          "time": 155.20000000000002,
          "velocity": 0.6771653543307087
        },
        {
          "duration": 0.3333333333333144,
          "durationTicks": 400,
          "midi": 63,
          "name": "D#4",
          "ticks": 186720,
          "time": 155.60000000000002,
          "velocity": 0.6771653543307087
        },
        {
          "duration": 0.3333333333333428,
          "durationTicks": 400,
          "midi": 62,
          "name": "D4",
          "ticks": 187200,
          "time": 156,
          "velocity": 0.6771653543307087
        },
        {
          "duration": 0.3333333333333428,
          "durationTicks": 400,
          "midi": 63,
          "name": "D#4",
          "ticks": 187680,
          "time": 156.4,
          "velocity": 0.6771653543307087
        },
        {
          "duration": 0.3333333333333144,
          "durationTicks": 400,
          "midi": 62,
          "name": "D4",
          "ticks": 188160,
          "time": 156.8,
          "velocity": 0.6771653543307087
        },
        {
          "duration": 0.19999999999998863,
          "durationTicks": 240,
          "midi": 62,
          "name": "D4",
          "ticks": 192720,
          "time": 160.60000000000002,
          "velocity": 0.4015748031496063
        },
        {
          "duration": 0.3333333333333144,
          "durationTicks": 400,
          "midi": 71,
          "name": "B4",
          "ticks": 192960,
          "time": 160.8,
          "velocity": 0.4015748031496063
        },
        {
          "duration": 0.06666666666666288,
          "durationTicks": 80,
          "midi": 71,
          "name": "B4",
          "ticks": 193440,
          "time": 161.20000000000002,
          "velocity": 0.4015748031496063
        },
        {
          "duration": 0.0666666666666913,
          "durationTicks": 80,
          "midi": 71,
          "name": "B4",
          "ticks": 193680,
          "time": 161.4,
          "velocity": 0.4015748031496063
        },
        {
          "duration": 0.19999999999998863,
          "durationTicks": 240,
          "midi": 71,
          "name": "B4",
          "ticks": 193920,
          "time": 161.60000000000002,
          "velocity": 0.4015748031496063
        },
        {
          "duration": 0.19666666666665833,
          "durationTicks": 236,
          "midi": 69,
          "name": "A4",
          "ticks": 194160,
          "time": 161.8,
          "velocity": 0.4015748031496063
        },
        {
          "duration": 0.0666666666666913,
          "durationTicks": 80,
          "midi": 69,
          "name": "A4",
          "ticks": 194400,
          "time": 162,
          "velocity": 0.4015748031496063
        },
        {
          "duration": 0.06666666666666288,
          "durationTicks": 80,
          "midi": 69,
          "name": "A4",
          "ticks": 194640,
          "time": 162.20000000000002,
          "velocity": 0.4015748031496063
        },
        {
          "duration": 0.05000000000001137,
          "durationTicks": 60,
          "midi": 71,
          "name": "B4",
          "ticks": 194880,
          "time": 162.4,
          "velocity": 0.4015748031496063
        },
        {
          "duration": 0.09999999999999432,
          "durationTicks": 120,
          "midi": 69,
          "name": "A4",
          "ticks": 194940,
          "time": 162.45000000000002,
          "velocity": 0.4015748031496063
        },
        {
          "duration": 0.13333333333332575,
          "durationTicks": 160,
          "midi": 67,
          "name": "G4",
          "ticks": 195120,
          "time": 162.60000000000002,
          "velocity": 0.4015748031496063
        },
        {
          "duration": 0.13333333333332575,
          "durationTicks": 160,
          "midi": 69,
          "name": "A4",
          "ticks": 195360,
          "time": 162.8,
          "velocity": 0.4015748031496063
        },
        {
          "duration": 0.13333333333332575,
          "durationTicks": 160,
          "midi": 71,
          "name": "B4",
          "ticks": 195600,
          "time": 163,
          "velocity": 0.4015748031496063
        },
        {
          "duration": 0.4000000000000057,
          "durationTicks": 480,
          "midi": 67,
          "name": "G4",
          "ticks": 195840,
          "time": 163.20000000000002,
          "velocity": 0.4015748031496063
        },
        {
          "duration": 0.19666666666665833,
          "durationTicks": 236,
          "midi": 62,
          "name": "D4",
          "ticks": 196320,
          "time": 163.60000000000002,
          "velocity": 0.4015748031496063
        },
        {
          "duration": 0.06666666666666288,
          "durationTicks": 80,
          "midi": 62,
          "name": "D4",
          "ticks": 196560,
          "time": 163.8,
          "velocity": 0.4015748031496063
        },
        {
          "duration": 0.20000000000001705,
          "durationTicks": 240,
          "midi": 62,
          "name": "D4",
          "ticks": 196800,
          "time": 164,
          "velocity": 0.4015748031496063
        },
        {
          "duration": 0.19666666666665833,
          "durationTicks": 236,
          "midi": 71,
          "name": "B4",
          "ticks": 197040,
          "time": 164.20000000000002,
          "velocity": 0.4015748031496063
        },
        {
          "duration": 0.0666666666666913,
          "durationTicks": 80,
          "midi": 71,
          "name": "B4",
          "ticks": 197280,
          "time": 164.4,
          "velocity": 0.4015748031496063
        },
        {
          "duration": 0.06666666666666288,
          "durationTicks": 80,
          "midi": 71,
          "name": "B4",
          "ticks": 197520,
          "time": 164.60000000000002,
          "velocity": 0.4015748031496063
        },
        {
          "duration": 0.19999999999998863,
          "durationTicks": 240,
          "midi": 71,
          "name": "B4",
          "ticks": 197760,
          "time": 164.8,
          "velocity": 0.4015748031496063
        },
        {
          "duration": 0.19666666666668675,
          "durationTicks": 236,
          "midi": 69,
          "name": "A4",
          "ticks": 198000,
          "time": 165,
          "velocity": 0.4015748031496063
        },
        {
          "duration": 0.06666666666666288,
          "durationTicks": 80,
          "midi": 69,
          "name": "A4",
          "ticks": 198240,
          "time": 165.20000000000002,
          "velocity": 0.4015748031496063
        },
        {
          "duration": 0.0666666666666913,
          "durationTicks": 80,
          "midi": 69,
          "name": "A4",
          "ticks": 198480,
          "time": 165.4,
          "velocity": 0.4015748031496063
        },
        {
          "duration": 0.04999999999998295,
          "durationTicks": 60,
          "midi": 71,
          "name": "B4",
          "ticks": 198720,
          "time": 165.60000000000002,
          "velocity": 0.4015748031496063
        },
        {
          "duration": 0.09999999999999432,
          "durationTicks": 120,
          "midi": 69,
          "name": "A4",
          "ticks": 198780,
          "time": 165.65,
          "velocity": 0.4015748031496063
        },
        {
          "duration": 0.13333333333332575,
          "durationTicks": 160,
          "midi": 67,
          "name": "G4",
          "ticks": 198960,
          "time": 165.8,
          "velocity": 0.4015748031496063
        },
        {
          "duration": 0.13333333333332575,
          "durationTicks": 160,
          "midi": 69,
          "name": "A4",
          "ticks": 199200,
          "time": 166,
          "velocity": 0.4015748031496063
        },
        {
          "duration": 0.13333333333332575,
          "durationTicks": 160,
          "midi": 71,
          "name": "B4",
          "ticks": 199440,
          "time": 166.20000000000002,
          "velocity": 0.4015748031496063
        },
        {
          "duration": 0.4000000000000057,
          "durationTicks": 480,
          "midi": 67,
          "name": "G4",
          "ticks": 199680,
          "time": 166.4,
          "velocity": 0.4015748031496063
        },
        {
          "duration": 0.19666666666665833,
          "durationTicks": 236,
          "midi": 74,
          "name": "D5",
          "ticks": 200160,
          "time": 166.8,
          "velocity": 0.4015748031496063
        },
        {
          "duration": 0.0666666666666913,
          "durationTicks": 80,
          "midi": 62,
          "name": "D4",
          "ticks": 200400,
          "time": 167,
          "velocity": 0.4015748031496063
        },
        {
          "duration": 0.19999999999998863,
          "durationTicks": 240,
          "midi": 62,
          "name": "D4",
          "ticks": 200640,
          "time": 167.20000000000002,
          "velocity": 0.4015748031496063
        },
        {
          "duration": 0.19666666666668675,
          "durationTicks": 236,
          "midi": 71,
          "name": "B4",
          "ticks": 200880,
          "time": 167.4,
          "velocity": 0.4015748031496063
        },
        {
          "duration": 0.06666666666666288,
          "durationTicks": 80,
          "midi": 71,
          "name": "B4",
          "ticks": 201120,
          "time": 167.60000000000002,
          "velocity": 0.4015748031496063
        },
        {
          "duration": 0.06666666666666288,
          "durationTicks": 80,
          "midi": 71,
          "name": "B4",
          "ticks": 201360,
          "time": 167.8,
          "velocity": 0.4015748031496063
        },
        {
          "duration": 0.20000000000001705,
          "durationTicks": 240,
          "midi": 71,
          "name": "B4",
          "ticks": 201600,
          "time": 168,
          "velocity": 0.4015748031496063
        },
        {
          "duration": 0.19666666666665833,
          "durationTicks": 236,
          "midi": 69,
          "name": "A4",
          "ticks": 201840,
          "time": 168.20000000000002,
          "velocity": 0.4015748031496063
        },
        {
          "duration": 0.0666666666666913,
          "durationTicks": 80,
          "midi": 69,
          "name": "A4",
          "ticks": 202080,
          "time": 168.4,
          "velocity": 0.4015748031496063
        },
        {
          "duration": 0.06666666666666288,
          "durationTicks": 80,
          "midi": 69,
          "name": "A4",
          "ticks": 202320,
          "time": 168.60000000000002,
          "velocity": 0.4015748031496063
        },
        {
          "duration": 0.05000000000001137,
          "durationTicks": 60,
          "midi": 71,
          "name": "B4",
          "ticks": 202560,
          "time": 168.8,
          "velocity": 0.4015748031496063
        },
        {
          "duration": 0.09999999999999432,
          "durationTicks": 120,
          "midi": 69,
          "name": "A4",
          "ticks": 202620,
          "time": 168.85000000000002,
          "velocity": 0.4015748031496063
        },
        {
          "duration": 0.0666666666666913,
          "durationTicks": 80,
          "midi": 67,
          "name": "G4",
          "ticks": 202800,
          "time": 169,
          "velocity": 0.4015748031496063
        },
        {
          "duration": 0.06666666666666288,
          "durationTicks": 80,
          "midi": 69,
          "name": "A4",
          "ticks": 203040,
          "time": 169.20000000000002,
          "velocity": 0.4015748031496063
        },
        {
          "duration": 0.0666666666666913,
          "durationTicks": 80,
          "midi": 71,
          "name": "B4",
          "ticks": 203280,
          "time": 169.4,
          "velocity": 0.4015748031496063
        },
        {
          "duration": 0.5999999999999943,
          "durationTicks": 720,
          "midi": 67,
          "name": "G4",
          "ticks": 203520,
          "time": 169.60000000000002,
          "velocity": 0.4015748031496063
        },
        {
          "duration": 0.19666666666665833,
          "durationTicks": 236,
          "midi": 71,
          "name": "B4",
          "ticks": 204240,
          "time": 170.20000000000002,
          "velocity": 0.4015748031496063
        },
        {
          "duration": 0.5999999999999943,
          "durationTicks": 720,
          "midi": 64,
          "name": "E4",
          "ticks": 204480,
          "time": 170.4,
          "velocity": 0.4015748031496063
        },
        {
          "duration": 0.19666666666668675,
          "durationTicks": 236,
          "midi": 72,
          "name": "C5",
          "ticks": 205200,
          "time": 171,
          "velocity": 0.4015748031496063
        },
        {
          "duration": 0.19999999999998863,
          "durationTicks": 240,
          "midi": 69,
          "name": "A4",
          "ticks": 205440,
          "time": 171.20000000000002,
          "velocity": 0.4015748031496063
        },
        {
          "duration": 0.19666666666668675,
          "durationTicks": 236,
          "midi": 76,
          "name": "E5",
          "ticks": 205680,
          "time": 171.4,
          "velocity": 0.4015748031496063
        },
        {
          "duration": 0.06666666666666288,
          "durationTicks": 80,
          "midi": 72,
          "name": "C5",
          "ticks": 205920,
          "time": 171.60000000000002,
          "velocity": 0.4015748031496063
        },
        {
          "duration": 0.06666666666666288,
          "durationTicks": 80,
          "midi": 69,
          "name": "A4",
          "ticks": 206160,
          "time": 171.8,
          "velocity": 0.4015748031496063
        },
        {
          "duration": 0.0666666666666913,
          "durationTicks": 80,
          "midi": 66,
          "name": "F#4",
          "ticks": 206400,
          "time": 172,
          "velocity": 0.4015748031496063
        },
        {
          "duration": 0.06666666666666288,
          "durationTicks": 80,
          "midi": 67,
          "name": "G4",
          "ticks": 206640,
          "time": 172.20000000000002,
          "velocity": 0.4015748031496063
        },
        {
          "duration": 0.0666666666666913,
          "durationTicks": 80,
          "midi": 69,
          "name": "A4",
          "ticks": 206880,
          "time": 172.4,
          "velocity": 0.4015748031496063
        },
        {
          "duration": 0.06666666666666288,
          "durationTicks": 80,
          "midi": 71,
          "name": "B4",
          "ticks": 207120,
          "time": 172.60000000000002,
          "velocity": 0.4015748031496063
        },
        {
          "duration": 0.5999999999999943,
          "durationTicks": 720,
          "midi": 67,
          "name": "G4",
          "ticks": 207360,
          "time": 172.8,
          "velocity": 0.4015748031496063
        },
        {
          "duration": 0.19666666666668675,
          "durationTicks": 236,
          "midi": 71,
          "name": "B4",
          "ticks": 208080,
          "time": 173.4,
          "velocity": 0.4015748031496063
        },
        {
          "duration": 0.5999999999999943,
          "durationTicks": 720,
          "midi": 64,
          "name": "E4",
          "ticks": 208320,
          "time": 173.60000000000002,
          "velocity": 0.4015748031496063
        },
        {
          "duration": 0.19666666666665833,
          "durationTicks": 236,
          "midi": 72,
          "name": "C5",
          "ticks": 209040,
          "time": 174.20000000000002,
          "velocity": 0.4015748031496063
        },
        {
          "duration": 0.20000000000001705,
          "durationTicks": 240,
          "midi": 69,
          "name": "A4",
          "ticks": 209280,
          "time": 174.4,
          "velocity": 0.4015748031496063
        },
        {
          "duration": 0.19666666666665833,
          "durationTicks": 236,
          "midi": 76,
          "name": "E5",
          "ticks": 209520,
          "time": 174.60000000000002,
          "velocity": 0.4015748031496063
        },
        {
          "duration": 0.06666666666666288,
          "durationTicks": 80,
          "midi": 72,
          "name": "C5",
          "ticks": 209760,
          "time": 174.8,
          "velocity": 0.4015748031496063
        },
        {
          "duration": 0.0666666666666913,
          "durationTicks": 80,
          "midi": 69,
          "name": "A4",
          "ticks": 210000,
          "time": 175,
          "velocity": 0.4015748031496063
        },
        {
          "duration": 0.06666666666666288,
          "durationTicks": 80,
          "midi": 66,
          "name": "F#4",
          "ticks": 210240,
          "time": 175.20000000000002,
          "velocity": 0.4015748031496063
        },
        {
          "duration": 0.0666666666666913,
          "durationTicks": 80,
          "midi": 67,
          "name": "G4",
          "ticks": 210480,
          "time": 175.4,
          "velocity": 0.4015748031496063
        },
        {
          "duration": 0.06666666666666288,
          "durationTicks": 80,
          "midi": 69,
          "name": "A4",
          "ticks": 210720,
          "time": 175.60000000000002,
          "velocity": 0.4015748031496063
        },
        {
          "duration": 0.06666666666666288,
          "durationTicks": 80,
          "midi": 71,
          "name": "B4",
          "ticks": 210960,
          "time": 175.8,
          "velocity": 0.4015748031496063
        },
        {
          "duration": 0.19666666666668675,
          "durationTicks": 236,
          "midi": 67,
          "name": "G4",
          "ticks": 211200,
          "time": 176,
          "velocity": 0.4015748031496063
        },
        {
          "duration": 0.09666666666666401,
          "durationTicks": 116,
          "midi": 74,
          "name": "D5",
          "ticks": 211680,
          "time": 176.4,
          "velocity": 0.8267716535433071
        },
        {
          "duration": 0.09666666666669244,
          "durationTicks": 116,
          "midi": 74,
          "name": "D5",
          "ticks": 211800,
          "time": 176.5,
          "velocity": 0.8267716535433071
        },
        {
          "duration": 0.09666666666666401,
          "durationTicks": 116,
          "midi": 74,
          "name": "D5",
          "ticks": 211920,
          "time": 176.60000000000002,
          "velocity": 0.8267716535433071
        },
        {
          "duration": 0.09666666666666401,
          "durationTicks": 116,
          "midi": 74,
          "name": "D5",
          "ticks": 212040,
          "time": 176.70000000000002,
          "velocity": 0.8267716535433071
        },
        {
          "duration": 0.6999999999999886,
          "durationTicks": 840,
          "midi": 74,
          "name": "D5",
          "ticks": 212160,
          "time": 176.8,
          "velocity": 0.8267716535433071
        },
        {
          "duration": 0.19666666666665833,
          "durationTicks": 236,
          "midi": 71,
          "name": "B4",
          "ticks": 213120,
          "time": 177.60000000000002,
          "velocity": 0.8267716535433071
        },
        {
          "duration": 0.09666666666669244,
          "durationTicks": 116,
          "midi": 71,
          "name": "B4",
          "ticks": 213600,
          "time": 178,
          "velocity": 0.8267716535433071
        },
        {
          "duration": 0.09666666666666401,
          "durationTicks": 116,
          "midi": 71,
          "name": "B4",
          "ticks": 213720,
          "time": 178.10000000000002,
          "velocity": 0.8267716535433071
        },
        {
          "duration": 0.09666666666666401,
          "durationTicks": 116,
          "midi": 71,
          "name": "B4",
          "ticks": 213840,
          "time": 178.20000000000002,
          "velocity": 0.8267716535433071
        },
        {
          "duration": 0.09666666666666401,
          "durationTicks": 116,
          "midi": 71,
          "name": "B4",
          "ticks": 213960,
          "time": 178.3,
          "velocity": 0.8267716535433071
        },
        {
          "duration": 0.700000000000017,
          "durationTicks": 840,
          "midi": 71,
          "name": "B4",
          "ticks": 214080,
          "time": 178.4,
          "velocity": 0.8267716535433071
        },
        {
          "duration": 0.19666666666665833,
          "durationTicks": 236,
          "midi": 74,
          "name": "D5",
          "ticks": 215040,
          "time": 179.20000000000002,
          "velocity": 0.8267716535433071
        },
        {
          "duration": 0.04999999999998295,
          "durationTicks": 60,
          "midi": 72,
          "name": "C5",
          "ticks": 215520,
          "time": 179.60000000000002,
          "velocity": 0.8267716535433071
        },
        {
          "duration": 0.05000000000001137,
          "durationTicks": 60,
          "midi": 71,
          "name": "B4",
          "ticks": 215580,
          "time": 179.65,
          "velocity": 0.8267716535433071
        },
        {
          "duration": 0.04999999999998295,
          "durationTicks": 60,
          "midi": 72,
          "name": "C5",
          "ticks": 215640,
          "time": 179.70000000000002,
          "velocity": 0.8267716535433071
        },
        {
          "duration": 0.05000000000001137,
          "durationTicks": 60,
          "midi": 71,
          "name": "B4",
          "ticks": 215700,
          "time": 179.75,
          "velocity": 0.8267716535433071
        },
        {
          "duration": 0.09999999999999432,
          "durationTicks": 120,
          "midi": 69,
          "name": "A4",
          "ticks": 215760,
          "time": 179.8,
          "velocity": 0.8267716535433071
        },
        {
          "duration": 0.09999999999999432,
          "durationTicks": 120,
          "midi": 71,
          "name": "B4",
          "ticks": 215880,
          "time": 179.9,
          "velocity": 0.8267716535433071
        },
        {
          "duration": 0.19666666666668675,
          "durationTicks": 236,
          "midi": 72,
          "name": "C5",
          "ticks": 216000,
          "time": 180,
          "velocity": 0.8267716535433071
        },
        {
          "duration": 0.13333333333332575,
          "durationTicks": 160,
          "midi": 72,
          "name": "C5",
          "ticks": 216240,
          "time": 180.20000000000002,
          "velocity": 0.8267716535433071
        },
        {
          "duration": 0.13333333333332575,
          "durationTicks": 160,
          "midi": 69,
          "name": "A4",
          "ticks": 216480,
          "time": 180.4,
          "velocity": 0.8267716535433071
        },
        {
          "duration": 0.13333333333332575,
          "durationTicks": 160,
          "midi": 69,
          "name": "A4",
          "ticks": 216720,
          "time": 180.60000000000002,
          "velocity": 0.8267716535433071
        },
        {
          "duration": 0.19666666666665833,
          "durationTicks": 236,
          "midi": 71,
          "name": "B4",
          "ticks": 216960,
          "time": 180.8,
          "velocity": 0.8267716535433071
        },
        {
          "duration": 0.09666666666666401,
          "durationTicks": 116,
          "midi": 74,
          "name": "D5",
          "ticks": 217440,
          "time": 181.20000000000002,
          "velocity": 0.8267716535433071
        },
        {
          "duration": 0.09666666666666401,
          "durationTicks": 116,
          "midi": 74,
          "name": "D5",
          "ticks": 217560,
          "time": 181.3,
          "velocity": 0.8267716535433071
        },
        {
          "duration": 0.09666666666666401,
          "durationTicks": 116,
          "midi": 74,
          "name": "D5",
          "ticks": 217680,
          "time": 181.4,
          "velocity": 0.8267716535433071
        },
        {
          "duration": 0.09666666666669244,
          "durationTicks": 116,
          "midi": 74,
          "name": "D5",
          "ticks": 217800,
          "time": 181.5,
          "velocity": 0.8267716535433071
        },
        {
          "duration": 0.6999999999999886,
          "durationTicks": 840,
          "midi": 74,
          "name": "D5",
          "ticks": 217920,
          "time": 181.60000000000002,
          "velocity": 0.8267716535433071
        },
        {
          "duration": 0.19666666666668675,
          "durationTicks": 236,
          "midi": 71,
          "name": "B4",
          "ticks": 218880,
          "time": 182.4,
          "velocity": 0.8267716535433071
        },
        {
          "duration": 0.09666666666666401,
          "durationTicks": 116,
          "midi": 74,
          "name": "D5",
          "ticks": 219360,
          "time": 182.8,
          "velocity": 0.8267716535433071
        },
        {
          "duration": 0.09666666666666401,
          "durationTicks": 116,
          "midi": 74,
          "name": "D5",
          "ticks": 219480,
          "time": 182.9,
          "velocity": 0.8267716535433071
        },
        {
          "duration": 0.09666666666669244,
          "durationTicks": 116,
          "midi": 74,
          "name": "D5",
          "ticks": 219600,
          "time": 183,
          "velocity": 0.8267716535433071
        },
        {
          "duration": 0.09666666666666401,
          "durationTicks": 116,
          "midi": 74,
          "name": "D5",
          "ticks": 219720,
          "time": 183.10000000000002,
          "velocity": 0.8267716535433071
        },
        {
          "duration": 0.6999999999999886,
          "durationTicks": 840,
          "midi": 74,
          "name": "D5",
          "ticks": 219840,
          "time": 183.20000000000002,
          "velocity": 0.8267716535433071
        },
        {
          "duration": 0.19666666666668675,
          "durationTicks": 236,
          "midi": 74,
          "name": "D5",
          "ticks": 220800,
          "time": 184,
          "velocity": 0.8267716535433071
        },
        {
          "duration": 0.05000000000001137,
          "durationTicks": 60,
          "midi": 72,
          "name": "C5",
          "ticks": 221280,
          "time": 184.4,
          "velocity": 0.8267716535433071
        },
        {
          "duration": 0.04999999999998295,
          "durationTicks": 60,
          "midi": 71,
          "name": "B4",
          "ticks": 221340,
          "time": 184.45000000000002,
          "velocity": 0.8267716535433071
        },
        {
          "duration": 0.05000000000001137,
          "durationTicks": 60,
          "midi": 72,
          "name": "C5",
          "ticks": 221400,
          "time": 184.5,
          "velocity": 0.8267716535433071
        },
        {
          "duration": 0.05000000000001137,
          "durationTicks": 60,
          "midi": 71,
          "name": "B4",
          "ticks": 221460,
          "time": 184.55,
          "velocity": 0.8267716535433071
        },
        {
          "duration": 0.09999999999999432,
          "durationTicks": 120,
          "midi": 69,
          "name": "A4",
          "ticks": 221520,
          "time": 184.60000000000002,
          "velocity": 0.8267716535433071
        },
        {
          "duration": 0.09999999999999432,
          "durationTicks": 120,
          "midi": 71,
          "name": "B4",
          "ticks": 221640,
          "time": 184.70000000000002,
          "velocity": 0.8267716535433071
        },
        {
          "duration": 0.19666666666665833,
          "durationTicks": 236,
          "midi": 72,
          "name": "C5",
          "ticks": 221760,
          "time": 184.8,
          "velocity": 0.8267716535433071
        },
        {
          "duration": 0.13333333333332575,
          "durationTicks": 160,
          "midi": 72,
          "name": "C5",
          "ticks": 222000,
          "time": 185,
          "velocity": 0.8267716535433071
        },
        {
          "duration": 0.13333333333332575,
          "durationTicks": 160,
          "midi": 69,
          "name": "A4",
          "ticks": 222240,
          "time": 185.20000000000002,
          "velocity": 0.8267716535433071
        },
        {
          "duration": 0.13333333333332575,
          "durationTicks": 160,
          "midi": 69,
          "name": "A4",
          "ticks": 222480,
          "time": 185.4,
          "velocity": 0.8267716535433071
        },
        {
          "duration": 0.3333333333333144,
          "durationTicks": 400,
          "midi": 71,
          "name": "B4",
          "ticks": 222720,
          "time": 185.60000000000002,
          "velocity": 0.8267716535433071
        },
        {
          "duration": 0.3333333333333428,
          "durationTicks": 400,
          "midi": 62,
          "name": "D4",
          "ticks": 223200,
          "time": 186,
          "velocity": 0.8267716535433071
        },
        {
          "duration": 0.3333333333333428,
          "durationTicks": 400,
          "midi": 71,
          "name": "B4",
          "ticks": 223200,
          "time": 186,
          "velocity": 0.8267716535433071
        },
        {
          "duration": 0.3333333333333428,
          "durationTicks": 400,
          "midi": 79,
          "name": "G5",
          "ticks": 223200,
          "time": 186,
          "velocity": 0.8267716535433071
        },
        {
          "duration": 0.3333333333333144,
          "durationTicks": 400,
          "midi": 62,
          "name": "D4",
          "ticks": 224160,
          "time": 186.8,
          "velocity": 0.8267716535433071
        },
        {
          "duration": 0.3333333333333144,
          "durationTicks": 400,
          "midi": 69,
          "name": "A4",
          "ticks": 224160,
          "time": 186.8,
          "velocity": 0.8267716535433071
        },
        {
          "duration": 0.3333333333333144,
          "durationTicks": 400,
          "midi": 78,
          "name": "F#5",
          "ticks": 224160,
          "time": 186.8,
          "velocity": 0.8267716535433071
        },
        {
          "duration": 0.3333333333333144,
          "durationTicks": 400,
          "midi": 62,
          "name": "D4",
          "ticks": 225120,
          "time": 187.60000000000002,
          "velocity": 0.8267716535433071
        },
        {
          "duration": 0.3333333333333144,
          "durationTicks": 400,
          "midi": 71,
          "name": "B4",
          "ticks": 225120,
          "time": 187.60000000000002,
          "velocity": 0.8267716535433071
        },
        {
          "duration": 0.3333333333333144,
          "durationTicks": 400,
          "midi": 79,
          "name": "G5",
          "ticks": 225120,
          "time": 187.60000000000002,
          "velocity": 0.8267716535433071
        },
        {
          "duration": 0.3333333333333428,
          "durationTicks": 400,
          "midi": 62,
          "name": "D4",
          "ticks": 226080,
          "time": 188.4,
          "velocity": 0.8267716535433071
        },
        {
          "duration": 0.3333333333333428,
          "durationTicks": 400,
          "midi": 69,
          "name": "A4",
          "ticks": 226080,
          "time": 188.4,
          "velocity": 0.8267716535433071
        },
        {
          "duration": 0.3333333333333428,
          "durationTicks": 400,
          "midi": 78,
          "name": "F#5",
          "ticks": 226080,
          "time": 188.4,
          "velocity": 0.8267716535433071
        },
        {
          "duration": 0.3333333333333144,
          "durationTicks": 400,
          "midi": 62,
          "name": "D4",
          "ticks": 227040,
          "time": 189.20000000000002,
          "velocity": 0.8267716535433071
        },
        {
          "duration": 0.3333333333333144,
          "durationTicks": 400,
          "midi": 71,
          "name": "B4",
          "ticks": 227040,
          "time": 189.20000000000002,
          "velocity": 0.8267716535433071
        },
        {
          "duration": 0.3333333333333144,
          "durationTicks": 400,
          "midi": 79,
          "name": "G5",
          "ticks": 227040,
          "time": 189.20000000000002,
          "velocity": 0.8267716535433071
        },
        {
          "duration": 0.3333333333333428,
          "durationTicks": 400,
          "midi": 62,
          "name": "D4",
          "ticks": 228000,
          "time": 190,
          "velocity": 0.8267716535433071
        },
        {
          "duration": 0.3333333333333428,
          "durationTicks": 400,
          "midi": 69,
          "name": "A4",
          "ticks": 228000,
          "time": 190,
          "velocity": 0.8267716535433071
        },
        {
          "duration": 0.3333333333333428,
          "durationTicks": 400,
          "midi": 78,
          "name": "F#5",
          "ticks": 228000,
          "time": 190,
          "velocity": 0.8267716535433071
        },
        {
          "duration": 0.3333333333333428,
          "durationTicks": 400,
          "midi": 62,
          "name": "D4",
          "ticks": 228480,
          "time": 190.4,
          "velocity": 0.8267716535433071
        },
        {
          "duration": 0.3333333333333428,
          "durationTicks": 400,
          "midi": 71,
          "name": "B4",
          "ticks": 228480,
          "time": 190.4,
          "velocity": 0.8267716535433071
        },
        {
          "duration": 0.3333333333333428,
          "durationTicks": 400,
          "midi": 79,
          "name": "G5",
          "ticks": 228480,
          "time": 190.4,
          "velocity": 0.8267716535433071
        },
        {
          "duration": 0.3333333333333144,
          "durationTicks": 400,
          "midi": 62,
          "name": "D4",
          "ticks": 228960,
          "time": 190.8,
          "velocity": 0.8267716535433071
        },
        {
          "duration": 0.3333333333333144,
          "durationTicks": 400,
          "midi": 74,
          "name": "D5",
          "ticks": 228960,
          "time": 190.8,
          "velocity": 0.8267716535433071
        },
        {
          "duration": 0.3333333333333144,
          "durationTicks": 400,
          "midi": 83,
          "name": "B5",
          "ticks": 228960,
          "time": 190.8,
          "velocity": 0.8267716535433071
        },
        {
          "duration": 0.3333333333333144,
          "durationTicks": 400,
          "midi": 62,
          "name": "D4",
          "ticks": 229440,
          "time": 191.20000000000002,
          "velocity": 0.8267716535433071
        },
        {
          "duration": 0.3333333333333144,
          "durationTicks": 400,
          "midi": 71,
          "name": "B4",
          "ticks": 229440,
          "time": 191.20000000000002,
          "velocity": 0.8267716535433071
        },
        {
          "duration": 0.3333333333333144,
          "durationTicks": 400,
          "midi": 79,
          "name": "G5",
          "ticks": 229440,
          "time": 191.20000000000002,
          "velocity": 0.8267716535433071
        },
        {
          "duration": 0.3333333333333428,
          "durationTicks": 400,
          "midi": 60,
          "name": "C4",
          "ticks": 230400,
          "time": 192,
          "velocity": 0.8267716535433071
        },
        {
          "duration": 0.06666666666666288,
          "durationTicks": 80,
          "midi": 55,
          "name": "G3",
          "ticks": 231120,
          "time": 192.60000000000002,
          "velocity": 0.8267716535433071
        },
        {
          "duration": 0.06666666666666288,
          "durationTicks": 80,
          "midi": 57,
          "name": "A3",
          "ticks": 231200,
          "time": 192.66666666666669,
          "velocity": 0.8267716535433071
        },
        {
          "duration": 0.06666666666666288,
          "durationTicks": 80,
          "midi": 59,
          "name": "B3",
          "ticks": 231280,
          "time": 192.73333333333335,
          "velocity": 0.8267716535433071
        },
        {
          "duration": 0.3333333333333144,
          "durationTicks": 400,
          "midi": 60,
          "name": "C4",
          "ticks": 231360,
          "time": 192.8,
          "velocity": 0.8267716535433071
        },
        {
          "duration": 0.0666666666666913,
          "durationTicks": 80,
          "midi": 55,
          "name": "G3",
          "ticks": 232080,
          "time": 193.4,
          "velocity": 0.8267716535433071
        },
        {
          "duration": 0.06666666666663446,
          "durationTicks": 80,
          "midi": 57,
          "name": "A3",
          "ticks": 232160,
          "time": 193.4666666666667,
          "velocity": 0.8267716535433071
        },
        {
          "duration": 0.0666666666666913,
          "durationTicks": 80,
          "midi": 59,
          "name": "B3",
          "ticks": 232240,
          "time": 193.53333333333333,
          "velocity": 0.8267716535433071
        },
        {
          "duration": 0.3333333333333144,
          "durationTicks": 400,
          "midi": 60,
          "name": "C4",
          "ticks": 232320,
          "time": 193.60000000000002,
          "velocity": 0.8267716535433071
        },
        {
          "duration": 0.799999999999983,
          "durationTicks": 960,
          "midi": 65,
          "name": "F4",
          "ticks": 234240,
          "time": 195.20000000000002,
          "velocity": 0.4015748031496063
        },
        {
          "duration": 0.700000000000017,
          "durationTicks": 840,
          "midi": 64,
          "name": "E4",
          "ticks": 235200,
          "time": 196,
          "velocity": 0.4015748031496063
        },
        {
          "duration": 1.0999999999999943,
          "durationTicks": 1320,
          "midi": 62,
          "name": "D4",
          "ticks": 236160,
          "time": 196.8,
          "velocity": 0.4015748031496063
        },
        {
          "duration": 0.3333333333333428,
          "durationTicks": 400,
          "midi": 55,
          "name": "G3",
          "ticks": 238080,
          "time": 198.4,
          "velocity": 0.8267716535433071
        },
        {
          "duration": 0.3333333333333428,
          "durationTicks": 400,
          "midi": 67,
          "name": "G4",
          "ticks": 238080,
          "time": 198.4,
          "velocity": 0.8267716535433071
        },
        {
          "duration": 0.0666666666666913,
          "durationTicks": 80,
          "midi": 62,
          "name": "D4",
          "ticks": 238800,
          "time": 199,
          "velocity": 0.8267716535433071
        },
        {
          "duration": 0.06666666666663446,
          "durationTicks": 80,
          "midi": 64,
          "name": "E4",
          "ticks": 238880,
          "time": 199.0666666666667,
          "velocity": 0.8267716535433071
        },
        {
          "duration": 0.0666666666666913,
          "durationTicks": 80,
          "midi": 66,
          "name": "F#4",
          "ticks": 238960,
          "time": 199.13333333333333,
          "velocity": 0.8267716535433071
        },
        {
          "duration": 0.3333333333333144,
          "durationTicks": 400,
          "midi": 67,
          "name": "G4",
          "ticks": 239040,
          "time": 199.20000000000002,
          "velocity": 0.8267716535433071
        },
        {
          "duration": 0.06666666666666288,
          "durationTicks": 80,
          "midi": 62,
          "name": "D4",
          "ticks": 239760,
          "time": 199.8,
          "velocity": 0.8267716535433071
        },
        {
          "duration": 0.06666666666666288,
          "durationTicks": 80,
          "midi": 64,
          "name": "E4",
          "ticks": 239840,
          "time": 199.86666666666667,
          "velocity": 0.8267716535433071
        },
        {
          "duration": 0.06666666666666288,
          "durationTicks": 80,
          "midi": 66,
          "name": "F#4",
          "ticks": 239920,
          "time": 199.93333333333334,
          "velocity": 0.8267716535433071
        },
        {
          "duration": 0.3333333333333428,
          "durationTicks": 400,
          "midi": 67,
          "name": "G4",
          "ticks": 240000,
          "time": 200,
          "velocity": 0.8267716535433071
        },
        {
          "duration": 0.799999999999983,
          "durationTicks": 960,
          "midi": 67,
          "name": "G4",
          "ticks": 241920,
          "time": 201.60000000000002,
          "velocity": 0.4015748031496063
        },
        {
          "duration": 0.700000000000017,
          "durationTicks": 840,
          "midi": 71,
          "name": "B4",
          "ticks": 242880,
          "time": 202.4,
          "velocity": 0.4015748031496063
        },
        {
          "duration": 0.799999999999983,
          "durationTicks": 960,
          "midi": 77,
          "name": "F5",
          "ticks": 243840,
          "time": 203.20000000000002,
          "velocity": 0.4015748031496063
        },
        {
          "duration": 0.3333333333333428,
          "durationTicks": 400,
          "midi": 76,
          "name": "E5",
          "ticks": 244800,
          "time": 204,
          "velocity": 0.4015748031496063
        },
        {
          "duration": 0.05000000000001137,
          "durationTicks": 60,
          "midi": 67,
          "name": "G4",
          "ticks": 246480,
          "time": 205.4,
          "velocity": 0.8267716535433071
        },
        {
          "duration": 0.04999999999998295,
          "durationTicks": 60,
          "midi": 65,
          "name": "F4",
          "ticks": 246540,
          "time": 205.45000000000002,
          "velocity": 0.8267716535433071
        },
        {
          "duration": 0.05000000000001137,
          "durationTicks": 60,
          "midi": 64,
          "name": "E4",
          "ticks": 246600,
          "time": 205.5,
          "velocity": 0.8267716535433071
        },
        {
          "duration": 0.05000000000001137,
          "durationTicks": 60,
          "midi": 62,
          "name": "D4",
          "ticks": 246660,
          "time": 205.55,
          "velocity": 0.8267716535433071
        },
        {
          "duration": 0.3333333333333428,
          "durationTicks": 400,
          "midi": 60,
          "name": "C4",
          "ticks": 246720,
          "time": 205.60000000000002,
          "velocity": 0.8267716535433071
        },
        {
          "duration": 0.05000000000001137,
          "durationTicks": 60,
          "midi": 72,
          "name": "C5",
          "ticks": 248400,
          "time": 207,
          "velocity": 0.8267716535433071
        },
        {
          "duration": 0.05000000000001137,
          "durationTicks": 60,
          "midi": 70,
          "name": "A#4",
          "ticks": 248460,
          "time": 207.05,
          "velocity": 0.8267716535433071
        },
        {
          "duration": 0.04999999999998295,
          "durationTicks": 60,
          "midi": 69,
          "name": "A4",
          "ticks": 248520,
          "time": 207.10000000000002,
          "velocity": 0.8267716535433071
        },
        {
          "duration": 0.05000000000001137,
          "durationTicks": 60,
          "midi": 67,
          "name": "G4",
          "ticks": 248580,
          "time": 207.15,
          "velocity": 0.8267716535433071
        },
        {
          "duration": 0.3333333333333428,
          "durationTicks": 400,
          "midi": 65,
          "name": "F4",
          "ticks": 248640,
          "time": 207.20000000000002,
          "velocity": 0.8267716535433071
        },
        {
          "duration": 0.04999999999998295,
          "durationTicks": 60,
          "midi": 74,
          "name": "D5",
          "ticks": 250320,
          "time": 208.60000000000002,
          "velocity": 0.8267716535433071
        },
        {
          "duration": 0.05000000000001137,
          "durationTicks": 60,
          "midi": 72,
          "name": "C5",
          "ticks": 250380,
          "time": 208.65,
          "velocity": 0.8267716535433071
        },
        {
          "duration": 0.04999999999998295,
          "durationTicks": 60,
          "midi": 71,
          "name": "B4",
          "ticks": 250440,
          "time": 208.70000000000002,
          "velocity": 0.8267716535433071
        },
        {
          "duration": 0.05000000000001137,
          "durationTicks": 60,
          "midi": 69,
          "name": "A4",
          "ticks": 250500,
          "time": 208.75,
          "velocity": 0.8267716535433071
        },
        {
          "duration": 0.3333333333333428,
          "durationTicks": 400,
          "midi": 67,
          "name": "G4",
          "ticks": 250560,
          "time": 208.8,
          "velocity": 0.8267716535433071
        },
        {
          "duration": 0.04999999999998295,
          "durationTicks": 60,
          "midi": 79,
          "name": "G5",
          "ticks": 252240,
          "time": 210.20000000000002,
          "velocity": 0.8267716535433071
        },
        {
          "duration": 0.05000000000001137,
          "durationTicks": 60,
          "midi": 77,
          "name": "F5",
          "ticks": 252300,
          "time": 210.25,
          "velocity": 0.8267716535433071
        },
        {
          "duration": 0.05000000000001137,
          "durationTicks": 60,
          "midi": 76,
          "name": "E5",
          "ticks": 252360,
          "time": 210.3,
          "velocity": 0.8267716535433071
        },
        {
          "duration": 0.04999999999998295,
          "durationTicks": 60,
          "midi": 74,
          "name": "D5",
          "ticks": 252420,
          "time": 210.35000000000002,
          "velocity": 0.8267716535433071
        },
        {
          "duration": 0.3333333333333428,
          "durationTicks": 400,
          "midi": 72,
          "name": "C5",
          "ticks": 252480,
          "time": 210.4,
          "velocity": 0.8267716535433071
        },
        {
          "duration": 0.05000000000001137,
          "durationTicks": 60,
          "midi": 72,
          "name": "C5",
          "ticks": 254160,
          "time": 211.8,
          "velocity": 0.8267716535433071
        },
        {
          "duration": 0.04999999999998295,
          "durationTicks": 60,
          "midi": 70,
          "name": "A#4",
          "ticks": 254220,
          "time": 211.85000000000002,
          "velocity": 0.8267716535433071
        },
        {
          "duration": 0.05000000000001137,
          "durationTicks": 60,
          "midi": 69,
          "name": "A4",
          "ticks": 254280,
          "time": 211.9,
          "velocity": 0.8267716535433071
        },
        {
          "duration": 0.04999999999998295,
          "durationTicks": 60,
          "midi": 67,
          "name": "G4",
          "ticks": 254340,
          "time": 211.95000000000002,
          "velocity": 0.8267716535433071
        },
        {
          "duration": 0.33333333333337123,
          "durationTicks": 400,
          "midi": 65,
          "name": "F4",
          "ticks": 254400,
          "time": 212,
          "velocity": 0.8267716535433071
        },
        {
          "duration": 0.05000000000001137,
          "durationTicks": 60,
          "midi": 74,
          "name": "D5",
          "ticks": 256080,
          "time": 213.4,
          "velocity": 0.8267716535433071
        },
        {
          "duration": 0.04999999999998295,
          "durationTicks": 60,
          "midi": 72,
          "name": "C5",
          "ticks": 256140,
          "time": 213.45000000000002,
          "velocity": 0.8267716535433071
        },
        {
          "duration": 0.05000000000001137,
          "durationTicks": 60,
          "midi": 71,
          "name": "B4",
          "ticks": 256200,
          "time": 213.5,
          "velocity": 0.8267716535433071
        },
        {
          "duration": 0.05000000000001137,
          "durationTicks": 60,
          "midi": 69,
          "name": "A4",
          "ticks": 256260,
          "time": 213.55,
          "velocity": 0.8267716535433071
        },
        {
          "duration": 0.3333333333333428,
          "durationTicks": 400,
          "midi": 67,
          "name": "G4",
          "ticks": 256320,
          "time": 213.60000000000002,
          "velocity": 0.8267716535433071
        },
        {
          "duration": 0.3333333333333428,
          "durationTicks": 400,
          "midi": 72,
          "name": "C5",
          "ticks": 257280,
          "time": 214.4,
          "velocity": 0.8267716535433071
        },
        {
          "duration": 0.05000000000001137,
          "durationTicks": 60,
          "midi": 77,
          "name": "F5",
          "ticks": 258000,
          "time": 215,
          "velocity": 0.8267716535433071
        },
        {
          "duration": 0.05000000000001137,
          "durationTicks": 60,
          "midi": 76,
          "name": "E5",
          "ticks": 258060,
          "time": 215.05,
          "velocity": 0.8267716535433071
        },
        {
          "duration": 0.04999999999998295,
          "durationTicks": 60,
          "midi": 74,
          "name": "D5",
          "ticks": 258120,
          "time": 215.10000000000002,
          "velocity": 0.8267716535433071
        },
        {
          "duration": 0.05000000000001137,
          "durationTicks": 60,
          "midi": 72,
          "name": "C5",
          "ticks": 258180,
          "time": 215.15,
          "velocity": 0.8267716535433071
        },
        {
          "duration": 0.3333333333333428,
          "durationTicks": 400,
          "midi": 71,
          "name": "B4",
          "ticks": 258240,
          "time": 215.20000000000002,
          "velocity": 0.8267716535433071
        },
        {
          "duration": 0.05000000000001137,
          "durationTicks": 60,
          "midi": 79,
          "name": "G5",
          "ticks": 258960,
          "time": 215.8,
          "velocity": 0.8267716535433071
        },
        {
          "duration": 0.04999999999998295,
          "durationTicks": 60,
          "midi": 77,
          "name": "F5",
          "ticks": 259020,
          "time": 215.85000000000002,
          "velocity": 0.8267716535433071
        },
        {
          "duration": 0.05000000000001137,
          "durationTicks": 60,
          "midi": 76,
          "name": "E5",
          "ticks": 259080,
          "time": 215.9,
          "velocity": 0.8267716535433071
        },
        {
          "duration": 0.04999999999998295,
          "durationTicks": 60,
          "midi": 74,
          "name": "D5",
          "ticks": 259140,
          "time": 215.95000000000002,
          "velocity": 0.8267716535433071
        },
        {
          "duration": 0.33333333333337123,
          "durationTicks": 400,
          "midi": 76,
          "name": "E5",
          "ticks": 259200,
          "time": 216,
          "velocity": 0.8267716535433071
        },
        {
          "duration": 0.04999999999998295,
          "durationTicks": 60,
          "midi": 77,
          "name": "F5",
          "ticks": 259920,
          "time": 216.60000000000002,
          "velocity": 0.8267716535433071
        },
        {
          "duration": 0.05000000000001137,
          "durationTicks": 60,
          "midi": 76,
          "name": "E5",
          "ticks": 259980,
          "time": 216.65,
          "velocity": 0.8267716535433071
        },
        {
          "duration": 0.04999999999998295,
          "durationTicks": 60,
          "midi": 74,
          "name": "D5",
          "ticks": 260040,
          "time": 216.70000000000002,
          "velocity": 0.8267716535433071
        },
        {
          "duration": 0.05000000000001137,
          "durationTicks": 60,
          "midi": 72,
          "name": "C5",
          "ticks": 260100,
          "time": 216.75,
          "velocity": 0.8267716535433071
        },
        {
          "duration": 0.3333333333333428,
          "durationTicks": 400,
          "midi": 71,
          "name": "B4",
          "ticks": 260160,
          "time": 216.8,
          "velocity": 0.8267716535433071
        },
        {
          "duration": 0.05000000000001137,
          "durationTicks": 60,
          "midi": 79,
          "name": "G5",
          "ticks": 260880,
          "time": 217.4,
          "velocity": 0.8267716535433071
        },
        {
          "duration": 0.04999999999998295,
          "durationTicks": 60,
          "midi": 77,
          "name": "F5",
          "ticks": 260940,
          "time": 217.45000000000002,
          "velocity": 0.8267716535433071
        },
        {
          "duration": 0.05000000000001137,
          "durationTicks": 60,
          "midi": 76,
          "name": "E5",
          "ticks": 261000,
          "time": 217.5,
          "velocity": 0.8267716535433071
        },
        {
          "duration": 0.05000000000001137,
          "durationTicks": 60,
          "midi": 74,
          "name": "D5",
          "ticks": 261060,
          "time": 217.55,
          "velocity": 0.8267716535433071
        },
        {
          "duration": 0.3333333333333428,
          "durationTicks": 400,
          "midi": 76,
          "name": "E5",
          "ticks": 261120,
          "time": 217.60000000000002,
          "velocity": 0.8267716535433071
        },
        {
          "duration": 0.33333333333337123,
          "durationTicks": 400,
          "midi": 79,
          "name": "G5",
          "ticks": 261600,
          "time": 218,
          "velocity": 0.8267716535433071
        },
        {
          "duration": 0.3333333333333428,
          "durationTicks": 400,
          "midi": 84,
          "name": "C6",
          "ticks": 262080,
          "time": 218.4,
          "velocity": 0.8267716535433071
        },
        {
          "duration": 0.3333333333333428,
          "durationTicks": 400,
          "midi": 79,
          "name": "G5",
          "ticks": 262560,
          "time": 218.8,
          "velocity": 0.8267716535433071
        },
        {
          "duration": 0.3333333333333428,
          "durationTicks": 400,
          "midi": 84,
          "name": "C6",
          "ticks": 263040,
          "time": 219.20000000000002,
          "velocity": 0.8267716535433071
        },
        {
          "duration": 0.3333333333333428,
          "durationTicks": 400,
          "midi": 79,
          "name": "G5",
          "ticks": 263520,
          "time": 219.60000000000002,
          "velocity": 0.8267716535433071
        },
        {
          "duration": 0.33333333333337123,
          "durationTicks": 400,
          "midi": 76,
          "name": "E5",
          "ticks": 264000,
          "time": 220,
          "velocity": 0.8267716535433071
        },
        {
          "duration": 0.3333333333333428,
          "durationTicks": 400,
          "midi": 72,
          "name": "C5",
          "ticks": 264480,
          "time": 220.4,
          "velocity": 0.8267716535433071
        },
        {
          "duration": 0.3333333333333428,
          "durationTicks": 400,
          "midi": 67,
          "name": "G4",
          "ticks": 264960,
          "time": 220.8,
          "velocity": 0.8267716535433071
        },
        {
          "duration": 0.19666666666668675,
          "durationTicks": 236,
          "midi": 74,
          "name": "D5",
          "ticks": 265680,
          "time": 221.4,
          "velocity": 0.8267716535433071
        },
        {
          "duration": 0.3333333333333428,
          "durationTicks": 400,
          "midi": 76,
          "name": "E5",
          "ticks": 265920,
          "time": 221.60000000000002,
          "velocity": 0.8267716535433071
        },
        {
          "duration": 0.19666666666665833,
          "durationTicks": 236,
          "midi": 76,
          "name": "E5",
          "ticks": 266640,
          "time": 222.20000000000002,
          "velocity": 0.8267716535433071
        },
        {
          "duration": 0.3333333333333428,
          "durationTicks": 400,
          "midi": 74,
          "name": "D5",
          "ticks": 266880,
          "time": 222.4,
          "velocity": 0.8267716535433071
        },
        {
          "duration": 0.19666666666668675,
          "durationTicks": 236,
          "midi": 74,
          "name": "D5",
          "ticks": 267600,
          "time": 223,
          "velocity": 0.8267716535433071
        },
        {
          "duration": 0.3333333333333428,
          "durationTicks": 400,
          "midi": 76,
          "name": "E5",
          "ticks": 267840,
          "time": 223.20000000000002,
          "velocity": 0.8267716535433071
        },
        {
          "duration": 0.19666666666665833,
          "durationTicks": 236,
          "midi": 76,
          "name": "E5",
          "ticks": 268560,
          "time": 223.8,
          "velocity": 0.8267716535433071
        },
        {
          "duration": 0.19666666666668675,
          "durationTicks": 236,
          "midi": 74,
          "name": "D5",
          "ticks": 268800,
          "time": 224,
          "velocity": 0.8267716535433071
        },
        {
          "duration": 0.19666666666665833,
          "durationTicks": 236,
          "midi": 76,
          "name": "E5",
          "ticks": 269040,
          "time": 224.20000000000002,
          "velocity": 0.8346456692913385
        },
        {
          "duration": 0.19666666666668675,
          "durationTicks": 236,
          "midi": 74,
          "name": "D5",
          "ticks": 269280,
          "time": 224.4,
          "velocity": 0.8503937007874016
        },
        {
          "duration": 0.19666666666665833,
          "durationTicks": 236,
          "midi": 76,
          "name": "E5",
          "ticks": 269520,
          "time": 224.60000000000002,
          "velocity": 0.8582677165354331
        },
        {
          "duration": 0.19666666666665833,
          "durationTicks": 236,
          "midi": 74,
          "name": "D5",
          "ticks": 269760,
          "time": 224.8,
          "velocity": 0.8661417322834646
        },
        {
          "duration": 0.19666666666668675,
          "durationTicks": 236,
          "midi": 76,
          "name": "E5",
          "ticks": 270000,
          "time": 225,
          "velocity": 0.8740157480314961
        },
        {
          "duration": 0.19666666666665833,
          "durationTicks": 236,
          "midi": 74,
          "name": "D5",
          "ticks": 270240,
          "time": 225.20000000000002,
          "velocity": 0.8818897637795275
        },
        {
          "duration": 0.19666666666668675,
          "durationTicks": 236,
          "midi": 76,
          "name": "E5",
          "ticks": 270480,
          "time": 225.4,
          "velocity": 0.889763779527559
        },
        {
          "duration": 0.3333333333333428,
          "durationTicks": 400,
          "midi": 74,
          "name": "D5",
          "ticks": 270720,
          "time": 225.60000000000002,
          "velocity": 0.905511811023622
        },
        {
          "duration": 0.33333333333337123,
          "durationTicks": 400,
          "midi": 62,
          "name": "D4",
          "ticks": 271200,
          "time": 226,
          "velocity": 0.9212598425196851
        },
        {
          "duration": 0.33333333333337123,
          "durationTicks": 400,
          "midi": 71,
          "name": "B4",
          "ticks": 271200,
          "time": 226,
          "velocity": 0.9212598425196851
        },
        {
          "duration": 0.33333333333337123,
          "durationTicks": 400,
          "midi": 79,
          "name": "G5",
          "ticks": 271200,
          "time": 226,
          "velocity": 0.9212598425196851
        },
        {
          "duration": 0.3333333333333428,
          "durationTicks": 400,
          "midi": 55,
          "name": "G3",
          "ticks": 271680,
          "time": 226.4,
          "velocity": 0.937007874015748
        },
        {
          "duration": 0.3333333333333428,
          "durationTicks": 400,
          "midi": 67,
          "name": "G4",
          "ticks": 271680,
          "time": 226.4,
          "velocity": 0.937007874015748
        },
        {
          "duration": 0.3333333333333428,
          "durationTicks": 400,
          "midi": 55,
          "name": "G3",
          "ticks": 272160,
          "time": 226.8,
          "velocity": 0.952755905511811
        },
        {
          "duration": 0.3333333333333428,
          "durationTicks": 400,
          "midi": 67,
          "name": "G4",
          "ticks": 272160,
          "time": 226.8,
          "velocity": 0.952755905511811
        },
        {
          "duration": 1.5,
          "durationTicks": 1800,
          "midi": 55,
          "name": "G3",
          "ticks": 272640,
          "time": 227.20000000000002,
          "velocity": 0.9763779527559056
        },
        {
          "duration": 1.5,
          "durationTicks": 1800,
          "midi": 67,
          "name": "G4",
          "ticks": 272640,
          "time": 227.20000000000002,
          "velocity": 0.9763779527559056
        },
        {
          "duration": 0.3333333333333428,
          "durationTicks": 400,
          "midi": 60,
          "name": "C4",
          "ticks": 274560,
          "time": 228.8,
          "velocity": 0.4015748031496063
        },
        {
          "duration": 0.06666666666666288,
          "durationTicks": 80,
          "midi": 55,
          "name": "G3",
          "ticks": 275280,
          "time": 229.4,
          "velocity": 0.4015748031496063
        },
        {
          "duration": 0.0666666666666913,
          "durationTicks": 80,
          "midi": 57,
          "name": "A3",
          "ticks": 275360,
          "time": 229.46666666666667,
          "velocity": 0.4015748031496063
        },
        {
          "duration": 0.06666666666666288,
          "durationTicks": 80,
          "midi": 59,
          "name": "B3",
          "ticks": 275440,
          "time": 229.53333333333336,
          "velocity": 0.4015748031496063
        },
        {
          "duration": 0.3333333333333428,
          "durationTicks": 400,
          "midi": 60,
          "name": "C4",
          "ticks": 275520,
          "time": 229.60000000000002,
          "velocity": 0.4015748031496063
        },
        {
          "duration": 0.06666666666663446,
          "durationTicks": 80,
          "midi": 55,
          "name": "G3",
          "ticks": 276240,
          "time": 230.20000000000002,
          "velocity": 0.4015748031496063
        },
        {
          "duration": 0.06666666666671972,
          "durationTicks": 80,
          "midi": 57,
          "name": "A3",
          "ticks": 276320,
          "time": 230.26666666666665,
          "velocity": 0.4015748031496063
        },
        {
          "duration": 0.06666666666663446,
          "durationTicks": 80,
          "midi": 59,
          "name": "B3",
          "ticks": 276400,
          "time": 230.33333333333337,
          "velocity": 0.4015748031496063
        },
        {
          "duration": 0.3333333333333428,
          "durationTicks": 400,
          "midi": 60,
          "name": "C4",
          "ticks": 276480,
          "time": 230.4,
          "velocity": 0.4015748031496063
        },
        {
          "duration": 0.19666666666665833,
          "durationTicks": 236,
          "midi": 60,
          "name": "C4",
          "ticks": 278160,
          "time": 231.8,
          "velocity": 0.4015748031496063
        },
        {
          "duration": 0.6000000000000227,
          "durationTicks": 720,
          "midi": 60,
          "name": "C4",
          "ticks": 278400,
          "time": 232,
          "velocity": 0.4015748031496063
        },
        {
          "duration": 0.19999999999998863,
          "durationTicks": 240,
          "midi": 59,
          "name": "B3",
          "ticks": 279120,
          "time": 232.60000000000002,
          "velocity": 0.4015748031496063
        },
        {
          "duration": 0.5999999999999943,
          "durationTicks": 720,
          "midi": 62,
          "name": "D4",
          "ticks": 279360,
          "time": 232.8,
          "velocity": 0.4015748031496063
        },
        {
          "duration": 0.19666666666668675,
          "durationTicks": 236,
          "midi": 60,
          "name": "C4",
          "ticks": 280080,
          "time": 233.4,
          "velocity": 0.4015748031496063
        },
        {
          "duration": 0.799999999999983,
          "durationTicks": 960,
          "midi": 67,
          "name": "G4",
          "ticks": 280320,
          "time": 233.60000000000002,
          "velocity": 0.4015748031496063
        },
        {
          "duration": 0.3333333333333428,
          "durationTicks": 400,
          "midi": 65,
          "name": "F4",
          "ticks": 281280,
          "time": 234.4,
          "velocity": 0.4015748031496063
        },
        {
          "duration": 0.3333333333333428,
          "durationTicks": 400,
          "midi": 67,
          "name": "G4",
          "ticks": 282240,
          "time": 235.20000000000002,
          "velocity": 0.4015748031496063
        },
        {
          "duration": 0.06666666666666288,
          "durationTicks": 80,
          "midi": 62,
          "name": "D4",
          "ticks": 282960,
          "time": 235.8,
          "velocity": 0.4015748031496063
        },
        {
          "duration": 0.0666666666666913,
          "durationTicks": 80,
          "midi": 64,
          "name": "E4",
          "ticks": 283040,
          "time": 235.86666666666667,
          "velocity": 0.4015748031496063
        },
        {
          "duration": 0.06666666666663446,
          "durationTicks": 80,
          "midi": 66,
          "name": "F#4",
          "ticks": 283120,
          "time": 235.93333333333337,
          "velocity": 0.4015748031496063
        },
        {
          "duration": 0.33333333333337123,
          "durationTicks": 400,
          "midi": 67,
          "name": "G4",
          "ticks": 283200,
          "time": 236,
          "velocity": 0.4015748031496063
        },
        {
          "duration": 0.06666666666663446,
          "durationTicks": 80,
          "midi": 62,
          "name": "D4",
          "ticks": 283920,
          "time": 236.60000000000002,
          "velocity": 0.4015748031496063
        },
        {
          "duration": 0.0666666666666913,
          "durationTicks": 80,
          "midi": 64,
          "name": "E4",
          "ticks": 284000,
          "time": 236.66666666666666,
          "velocity": 0.4015748031496063
        },
        {
          "duration": 0.06666666666666288,
          "durationTicks": 80,
          "midi": 66,
          "name": "F#4",
          "ticks": 284080,
          "time": 236.73333333333335,
          "velocity": 0.4015748031496063
        },
        {
          "duration": 0.3333333333333428,
          "durationTicks": 400,
          "midi": 67,
          "name": "G4",
          "ticks": 284160,
          "time": 236.8,
          "velocity": 0.4015748031496063
        },
        {
          "duration": 0.19666666666665833,
          "durationTicks": 236,
          "midi": 62,
          "name": "D4",
          "ticks": 285840,
          "time": 238.20000000000002,
          "velocity": 0.4015748031496063
        },
        {
          "duration": 0.5999999999999943,
          "durationTicks": 720,
          "midi": 62,
          "name": "D4",
          "ticks": 286080,
          "time": 238.4,
          "velocity": 0.4015748031496063
        },
        {
          "duration": 0.20000000000001705,
          "durationTicks": 240,
          "midi": 61,
          "name": "C#4",
          "ticks": 286800,
          "time": 239,
          "velocity": 0.4015748031496063
        },
        {
          "duration": 0.5999999999999943,
          "durationTicks": 720,
          "midi": 64,
          "name": "E4",
          "ticks": 287040,
          "time": 239.20000000000002,
          "velocity": 0.4015748031496063
        },
        {
          "duration": 0.19666666666665833,
          "durationTicks": 236,
          "midi": 62,
          "name": "D4",
          "ticks": 287760,
          "time": 239.8,
          "velocity": 0.4015748031496063
        },
        {
          "duration": 0.8000000000000114,
          "durationTicks": 960,
          "midi": 70,
          "name": "A#4",
          "ticks": 288000,
          "time": 240,
          "velocity": 0.4015748031496063
        },
        {
          "duration": 0.19666666666665833,
          "durationTicks": 236,
          "midi": 69,
          "name": "A4",
          "ticks": 288960,
          "time": 240.8,
          "velocity": 0.4015748031496063
        },
        {
          "duration": 0.2666666666666515,
          "durationTicks": 320,
          "midi": 64,
          "name": "E4",
          "ticks": 289440,
          "time": 241.20000000000002,
          "velocity": 0.4015748031496063
        },
        {
          "duration": 0.799999999999983,
          "durationTicks": 960,
          "midi": 67,
          "name": "G4",
          "ticks": 289920,
          "time": 241.60000000000002,
          "velocity": 0.4015748031496063
        },
        {
          "duration": 0.19666666666668675,
          "durationTicks": 236,
          "midi": 66,
          "name": "F#4",
          "ticks": 290880,
          "time": 242.4,
          "velocity": 0.4015748031496063
        },
        {
          "duration": 0.2666666666666515,
          "durationTicks": 320,
          "midi": 62,
          "name": "D4",
          "ticks": 291360,
          "time": 242.8,
          "velocity": 0.4015748031496063
        },
        {
          "duration": 0.799999999999983,
          "durationTicks": 960,
          "midi": 68,
          "name": "G#4",
          "ticks": 291840,
          "time": 243.20000000000002,
          "velocity": 0.4015748031496063
        },
        {
          "duration": 0.19666666666668675,
          "durationTicks": 236,
          "midi": 67,
          "name": "G4",
          "ticks": 292800,
          "time": 244,
          "velocity": 0.4015748031496063
        },
        {
          "duration": 0.2666666666666515,
          "durationTicks": 320,
          "midi": 62,
          "name": "D4",
          "ticks": 293280,
          "time": 244.4,
          "velocity": 0.4015748031496063
        },
        {
          "duration": 0.8000000000000114,
          "durationTicks": 960,
          "midi": 65,
          "name": "F4",
          "ticks": 293760,
          "time": 244.8,
          "velocity": 0.4015748031496063
        },
        {
          "duration": 0.19666666666665833,
          "durationTicks": 236,
          "midi": 64,
          "name": "E4",
          "ticks": 294720,
          "time": 245.60000000000002,
          "velocity": 0.4015748031496063
        },
        {
          "duration": 0.2666666666666515,
          "durationTicks": 320,
          "midi": 60,
          "name": "C4",
          "ticks": 295200,
          "time": 246,
          "velocity": 0.4015748031496063
        },
        {
          "duration": 0.4000000000000057,
          "durationTicks": 480,
          "midi": 67,
          "name": "G4",
          "ticks": 295680,
          "time": 246.4,
          "velocity": 0.4015748031496063
        },
        {
          "duration": 0.8000000000000114,
          "durationTicks": 960,
          "midi": 65,
          "name": "F4",
          "ticks": 296160,
          "time": 246.8,
          "velocity": 0.4015748031496063
        },
        {
          "duration": 0.39999999999997726,
          "durationTicks": 480,
          "midi": 64,
          "name": "E4",
          "ticks": 297120,
          "time": 247.60000000000002,
          "velocity": 0.4015748031496063
        },
        {
          "duration": 0.4000000000000057,
          "durationTicks": 480,
          "midi": 64,
          "name": "E4",
          "ticks": 297600,
          "time": 248,
          "velocity": 0.4015748031496063
        },
        {
          "duration": 0.4000000000000057,
          "durationTicks": 480,
          "midi": 62,
          "name": "D4",
          "ticks": 298080,
          "time": 248.4,
          "velocity": 0.4015748031496063
        },
        {
          "duration": 0.4000000000000057,
          "durationTicks": 480,
          "midi": 69,
          "name": "A4",
          "ticks": 298560,
          "time": 248.8,
          "velocity": 0.4015748031496063
        },
        {
          "duration": 0.3333333333333428,
          "durationTicks": 400,
          "midi": 60,
          "name": "C4",
          "ticks": 299040,
          "time": 249.20000000000002,
          "velocity": 0.4015748031496063
        },
        {
          "duration": 0.3333333333333428,
          "durationTicks": 400,
          "midi": 59,
          "name": "B3",
          "ticks": 299520,
          "time": 249.60000000000002,
          "velocity": 0.8267716535433071
        },
        {
          "duration": 0.3333333333333428,
          "durationTicks": 400,
          "midi": 67,
          "name": "G4",
          "ticks": 299520,
          "time": 249.60000000000002,
          "velocity": 0.8267716535433071
        },
        {
          "duration": 0.06666666666663446,
          "durationTicks": 80,
          "midi": 62,
          "name": "D4",
          "ticks": 300240,
          "time": 250.20000000000002,
          "velocity": 0.8267716535433071
        },
        {
          "duration": 0.06666666666671972,
          "durationTicks": 80,
          "midi": 64,
          "name": "E4",
          "ticks": 300320,
          "time": 250.26666666666665,
          "velocity": 0.8267716535433071
        },
        {
          "duration": 0.06666666666663446,
          "durationTicks": 80,
          "midi": 66,
          "name": "F#4",
          "ticks": 300400,
          "time": 250.33333333333337,
          "velocity": 0.8267716535433071
        },
        {
          "duration": 0.3333333333333428,
          "durationTicks": 400,
          "midi": 67,
          "name": "G4",
          "ticks": 300480,
          "time": 250.4,
          "velocity": 0.8267716535433071
        },
        {
          "duration": 0.06666666666666288,
          "durationTicks": 80,
          "midi": 62,
          "name": "D4",
          "ticks": 301200,
          "time": 251,
          "velocity": 0.8267716535433071
        },
        {
          "duration": 0.0666666666666913,
          "durationTicks": 80,
          "midi": 64,
          "name": "E4",
          "ticks": 301280,
          "time": 251.06666666666666,
          "velocity": 0.8267716535433071
        },
        {
          "duration": 0.06666666666666288,
          "durationTicks": 80,
          "midi": 66,
          "name": "F#4",
          "ticks": 301360,
          "time": 251.13333333333335,
          "velocity": 0.8267716535433071
        },
        {
          "duration": 0.3333333333333428,
          "durationTicks": 400,
          "midi": 67,
          "name": "G4",
          "ticks": 301440,
          "time": 251.20000000000002,
          "velocity": 0.8267716535433071
        },
        {
          "duration": 0.13333333333332575,
          "durationTicks": 160,
          "midi": 59,
          "name": "B3",
          "ticks": 303120,
          "time": 252.60000000000002,
          "velocity": 0.8267716535433071
        },
        {
          "duration": 0.5999999999999943,
          "durationTicks": 720,
          "midi": 60,
          "name": "C4",
          "ticks": 303360,
          "time": 252.8,
          "velocity": 0.8267716535433071
        },
        {
          "duration": 0.19666666666668675,
          "durationTicks": 236,
          "midi": 59,
          "name": "B3",
          "ticks": 304080,
          "time": 253.4,
          "velocity": 0.8267716535433071
        },
        {
          "duration": 0.5999999999999943,
          "durationTicks": 720,
          "midi": 62,
          "name": "D4",
          "ticks": 304320,
          "time": 253.60000000000002,
          "velocity": 0.8267716535433071
        },
        {
          "duration": 0.19666666666665833,
          "durationTicks": 236,
          "midi": 60,
          "name": "C4",
          "ticks": 305040,
          "time": 254.20000000000002,
          "velocity": 0.8267716535433071
        },
        {
          "duration": 0.8000000000000114,
          "durationTicks": 960,
          "midi": 64,
          "name": "E4",
          "ticks": 305280,
          "time": 254.4,
          "velocity": 0.8267716535433071
        },
        {
          "duration": 0.3333333333333428,
          "durationTicks": 400,
          "midi": 62,
          "name": "D4",
          "ticks": 306240,
          "time": 255.20000000000002,
          "velocity": 0.8267716535433071
        },
        {
          "duration": 0.13333333333335418,
          "durationTicks": 160,
          "midi": 59,
          "name": "B3",
          "ticks": 306960,
          "time": 255.8,
          "velocity": 0.8267716535433071
        },
        {
          "duration": 0.6000000000000227,
          "durationTicks": 720,
          "midi": 62,
          "name": "D4",
          "ticks": 307200,
          "time": 256,
          "velocity": 0.8267716535433071
        },
        {
          "duration": 0.19666666666665833,
          "durationTicks": 236,
          "midi": 60,
          "name": "C4",
          "ticks": 307920,
          "time": 256.6,
          "velocity": 0.8267716535433071
        },
        {
          "duration": 0.6000000000000227,
          "durationTicks": 720,
          "midi": 64,
          "name": "E4",
          "ticks": 308160,
          "time": 256.8,
          "velocity": 0.8267716535433071
        },
        {
          "duration": 0.19666666666665833,
          "durationTicks": 236,
          "midi": 62,
          "name": "D4",
          "ticks": 308880,
          "time": 257.40000000000003,
          "velocity": 0.8267716535433071
        },
        {
          "duration": 0.8000000000000114,
          "durationTicks": 960,
          "midi": 65,
          "name": "F4",
          "ticks": 309120,
          "time": 257.6,
          "velocity": 0.8267716535433071
        },
        {
          "duration": 0.3333333333333144,
          "durationTicks": 400,
          "midi": 64,
          "name": "E4",
          "ticks": 310080,
          "time": 258.40000000000003,
          "velocity": 0.8267716535433071
        },
        {
          "duration": 0.1500000000000341,
          "durationTicks": 180,
          "midi": 60,
          "name": "C4",
          "ticks": 310800,
          "time": 259,
          "velocity": 0.8267716535433071
        },
        {
          "duration": 0.6000000000000227,
          "durationTicks": 720,
          "midi": 64,
          "name": "E4",
          "ticks": 311040,
          "time": 259.2,
          "velocity": 0.8267716535433071
        },
        {
          "duration": 0.19666666666665833,
          "durationTicks": 236,
          "midi": 62,
          "name": "D4",
          "ticks": 311760,
          "time": 259.8,
          "velocity": 0.8267716535433071
        },
        {
          "duration": 0.6000000000000227,
          "durationTicks": 720,
          "midi": 65,
          "name": "F4",
          "ticks": 312000,
          "time": 260,
          "velocity": 0.8267716535433071
        },
        {
          "duration": 0.19666666666665833,
          "durationTicks": 236,
          "midi": 64,
          "name": "E4",
          "ticks": 312720,
          "time": 260.6,
          "velocity": 0.8267716535433071
        },
        {
          "duration": 0.8000000000000114,
          "durationTicks": 960,
          "midi": 67,
          "name": "G4",
          "ticks": 312960,
          "time": 260.8,
          "velocity": 0.8267716535433071
        },
        {
          "duration": 0.3333333333333144,
          "durationTicks": 400,
          "midi": 65,
          "name": "F4",
          "ticks": 313920,
          "time": 261.6,
          "velocity": 0.8267716535433071
        },
        {
          "duration": 0.1500000000000341,
          "durationTicks": 180,
          "midi": 63,
          "name": "D#4",
          "ticks": 314640,
          "time": 262.2,
          "velocity": 0.8267716535433071
        },
        {
          "duration": 0.7999999999999545,
          "durationTicks": 960,
          "midi": 65,
          "name": "F4",
          "ticks": 314880,
          "time": 262.40000000000003,
          "velocity": 0.8267716535433071
        },
        {
          "duration": 0.33333333333337123,
          "durationTicks": 400,
          "midi": 64,
          "name": "E4",
          "ticks": 315840,
          "time": 263.2,
          "velocity": 0.8267716535433071
        },
        {
          "duration": 0.14999999999997726,
          "durationTicks": 180,
          "midi": 60,
          "name": "C4",
          "ticks": 316560,
          "time": 263.8,
          "velocity": 0.8267716535433071
        },
        {
          "duration": 0.8000000000000114,
          "durationTicks": 960,
          "midi": 64,
          "name": "E4",
          "ticks": 316800,
          "time": 264,
          "velocity": 0.8267716535433071
        },
        {
          "duration": 0.33333333333337123,
          "durationTicks": 400,
          "midi": 62,
          "name": "D4",
          "ticks": 317760,
          "time": 264.8,
          "velocity": 0.8267716535433071
        },
        {
          "duration": 0.14999999999997726,
          "durationTicks": 180,
          "midi": 62,
          "name": "D4",
          "ticks": 318480,
          "time": 265.40000000000003,
          "velocity": 0.8267716535433071
        },
        {
          "duration": 0.3333333333333144,
          "durationTicks": 400,
          "midi": 64,
          "name": "E4",
          "ticks": 318720,
          "time": 265.6,
          "velocity": 0.8267716535433071
        },
        {
          "duration": 0.33333333333337123,
          "durationTicks": 400,
          "midi": 65,
          "name": "F4",
          "ticks": 319200,
          "time": 266,
          "velocity": 0.8267716535433071
        },
        {
          "duration": 0.3333333333333144,
          "durationTicks": 400,
          "midi": 64,
          "name": "E4",
          "ticks": 319680,
          "time": 266.40000000000003,
          "velocity": 0.8267716535433071
        },
        {
          "duration": 0.33333333333337123,
          "durationTicks": 400,
          "midi": 65,
          "name": "F4",
          "ticks": 320160,
          "time": 266.8,
          "velocity": 0.8267716535433071
        },
        {
          "duration": 1.1000000000000227,
          "durationTicks": 1320,
          "midi": 64,
          "name": "E4",
          "ticks": 320640,
          "time": 267.2,
          "velocity": 0.8267716535433071
        },
        {
          "duration": 0.3333333333333144,
          "durationTicks": 400,
          "midi": 76,
          "name": "E5",
          "ticks": 322080,
          "time": 268.40000000000003,
          "velocity": 0.8267716535433071
        },
        {
          "duration": 0.33333333333337123,
          "durationTicks": 400,
          "midi": 74,
          "name": "D5",
          "ticks": 322560,
          "time": 268.8,
          "velocity": 0.8267716535433071
        },
        {
          "duration": 0.049999999999954525,
          "durationTicks": 60,
          "midi": 69,
          "name": "A4",
          "ticks": 323280,
          "time": 269.40000000000003,
          "velocity": 0.8267716535433071
        },
        {
          "duration": 0.05000000000001137,
          "durationTicks": 60,
          "midi": 67,
          "name": "G4",
          "ticks": 323340,
          "time": 269.45,
          "velocity": 0.8267716535433071
        },
        {
          "duration": 0.05000000000001137,
          "durationTicks": 60,
          "midi": 66,
          "name": "F#4",
          "ticks": 323400,
          "time": 269.5,
          "velocity": 0.8267716535433071
        },
        {
          "duration": 0.05000000000001137,
          "durationTicks": 60,
          "midi": 64,
          "name": "E4",
          "ticks": 323460,
          "time": 269.55,
          "velocity": 0.8267716535433071
        },
        {
          "duration": 0.3333333333333144,
          "durationTicks": 400,
          "midi": 62,
          "name": "D4",
          "ticks": 323520,
          "time": 269.6,
          "velocity": 0.8267716535433071
        },
        {
          "duration": 0.05000000000001137,
          "durationTicks": 60,
          "midi": 74,
          "name": "D5",
          "ticks": 325200,
          "time": 271,
          "velocity": 0.8267716535433071
        },
        {
          "duration": 0.05000000000001137,
          "durationTicks": 60,
          "midi": 72,
          "name": "C5",
          "ticks": 325260,
          "time": 271.05,
          "velocity": 0.8267716535433071
        },
        {
          "duration": 0.05000000000001137,
          "durationTicks": 60,
          "midi": 71,
          "name": "B4",
          "ticks": 325320,
          "time": 271.1,
          "velocity": 0.8267716535433071
        },
        {
          "duration": 0.049999999999954525,
          "durationTicks": 60,
          "midi": 69,
          "name": "A4",
          "ticks": 325380,
          "time": 271.15000000000003,
          "velocity": 0.8267716535433071
        },
        {
          "duration": 0.33333333333337123,
          "durationTicks": 400,
          "midi": 67,
          "name": "G4",
          "ticks": 325440,
          "time": 271.2,
          "velocity": 0.8267716535433071
        },
        {
          "duration": 0.05000000000001137,
          "durationTicks": 60,
          "midi": 81,
          "name": "A5",
          "ticks": 327120,
          "time": 272.6,
          "velocity": 0.8267716535433071
        },
        {
          "duration": 0.049999999999954525,
          "durationTicks": 60,
          "midi": 79,
          "name": "G5",
          "ticks": 327180,
          "time": 272.65000000000003,
          "velocity": 0.8267716535433071
        },
        {
          "duration": 0.05000000000001137,
          "durationTicks": 60,
          "midi": 78,
          "name": "F#5",
          "ticks": 327240,
          "time": 272.7,
          "velocity": 0.8267716535433071
        },
        {
          "duration": 0.05000000000001137,
          "durationTicks": 60,
          "midi": 76,
          "name": "E5",
          "ticks": 327300,
          "time": 272.75,
          "velocity": 0.8267716535433071
        },
        {
          "duration": 0.33333333333337123,
          "durationTicks": 400,
          "midi": 74,
          "name": "D5",
          "ticks": 327360,
          "time": 272.8,
          "velocity": 0.8267716535433071
        },
        {
          "duration": 0.05000000000001137,
          "durationTicks": 60,
          "midi": 74,
          "name": "D5",
          "ticks": 329040,
          "time": 274.2,
          "velocity": 0.8267716535433071
        },
        {
          "duration": 0.05000000000001137,
          "durationTicks": 60,
          "midi": 72,
          "name": "C5",
          "ticks": 329100,
          "time": 274.25,
          "velocity": 0.8267716535433071
        },
        {
          "duration": 0.05000000000001137,
          "durationTicks": 60,
          "midi": 71,
          "name": "B4",
          "ticks": 329160,
          "time": 274.3,
          "velocity": 0.8267716535433071
        },
        {
          "duration": 0.05000000000001137,
          "durationTicks": 60,
          "midi": 69,
          "name": "A4",
          "ticks": 329220,
          "time": 274.35,
          "velocity": 0.8267716535433071
        },
        {
          "duration": 0.3333333333333144,
          "durationTicks": 400,
          "midi": 67,
          "name": "G4",
          "ticks": 329280,
          "time": 274.40000000000003,
          "velocity": 0.8267716535433071
        },
        {
          "duration": 0.33333333333337123,
          "durationTicks": 400,
          "midi": 62,
          "name": "D4",
          "ticks": 330240,
          "time": 275.2,
          "velocity": 0.8267716535433071
        },
        {
          "duration": 0.05000000000001137,
          "durationTicks": 60,
          "midi": 74,
          "name": "D5",
          "ticks": 330960,
          "time": 275.8,
          "velocity": 0.8267716535433071
        },
        {
          "duration": 0.05000000000001137,
          "durationTicks": 60,
          "midi": 72,
          "name": "C5",
          "ticks": 331020,
          "time": 275.85,
          "velocity": 0.8267716535433071
        },
        {
          "duration": 0.049999999999954525,
          "durationTicks": 60,
          "midi": 71,
          "name": "B4",
          "ticks": 331080,
          "time": 275.90000000000003,
          "velocity": 0.8267716535433071
        },
        {
          "duration": 0.05000000000001137,
          "durationTicks": 60,
          "midi": 69,
          "name": "A4",
          "ticks": 331140,
          "time": 275.95,
          "velocity": 0.8267716535433071
        },
        {
          "duration": 0.33333333333337123,
          "durationTicks": 400,
          "midi": 71,
          "name": "B4",
          "ticks": 331200,
          "time": 276,
          "velocity": 0.8267716535433071
        },
        {
          "duration": 0.05000000000001137,
          "durationTicks": 60,
          "midi": 72,
          "name": "C5",
          "ticks": 331920,
          "time": 276.6,
          "velocity": 0.8267716535433071
        },
        {
          "duration": 0.049999999999954525,
          "durationTicks": 60,
          "midi": 71,
          "name": "B4",
          "ticks": 331980,
          "time": 276.65000000000003,
          "velocity": 0.8267716535433071
        },
        {
          "duration": 0.05000000000001137,
          "durationTicks": 60,
          "midi": 69,
          "name": "A4",
          "ticks": 332040,
          "time": 276.7,
          "velocity": 0.8267716535433071
        },
        {
          "duration": 0.05000000000001137,
          "durationTicks": 60,
          "midi": 67,
          "name": "G4",
          "ticks": 332100,
          "time": 276.75,
          "velocity": 0.8267716535433071
        },
        {
          "duration": 0.33333333333337123,
          "durationTicks": 400,
          "midi": 66,
          "name": "F#4",
          "ticks": 332160,
          "time": 276.8,
          "velocity": 0.8267716535433071
        },
        {
          "duration": 0.049999999999954525,
          "durationTicks": 60,
          "midi": 74,
          "name": "D5",
          "ticks": 332880,
          "time": 277.40000000000003,
          "velocity": 0.8267716535433071
        },
        {
          "duration": 0.05000000000001137,
          "durationTicks": 60,
          "midi": 72,
          "name": "C5",
          "ticks": 332940,
          "time": 277.45,
          "velocity": 0.8267716535433071
        },
        {
          "duration": 0.05000000000001137,
          "durationTicks": 60,
          "midi": 71,
          "name": "B4",
          "ticks": 333000,
          "time": 277.5,
          "velocity": 0.8267716535433071
        },
        {
          "duration": 0.05000000000001137,
          "durationTicks": 60,
          "midi": 69,
          "name": "A4",
          "ticks": 333060,
          "time": 277.55,
          "velocity": 0.8267716535433071
        },
        {
          "duration": 0.3333333333333144,
          "durationTicks": 400,
          "midi": 71,
          "name": "B4",
          "ticks": 333120,
          "time": 277.6,
          "velocity": 0.8267716535433071
        },
        {
          "duration": 0.05000000000001137,
          "durationTicks": 60,
          "midi": 72,
          "name": "C5",
          "ticks": 333840,
          "time": 278.2,
          "velocity": 0.8267716535433071
        },
        {
          "duration": 0.05000000000001137,
          "durationTicks": 60,
          "midi": 71,
          "name": "B4",
          "ticks": 333900,
          "time": 278.25,
          "velocity": 0.8267716535433071
        },
        {
          "duration": 0.05000000000001137,
          "durationTicks": 60,
          "midi": 69,
          "name": "A4",
          "ticks": 333960,
          "time": 278.3,
          "velocity": 0.8267716535433071
        },
        {
          "duration": 0.05000000000001137,
          "durationTicks": 60,
          "midi": 67,
          "name": "G4",
          "ticks": 334020,
          "time": 278.35,
          "velocity": 0.8267716535433071
        },
        {
          "duration": 0.3333333333333144,
          "durationTicks": 400,
          "midi": 66,
          "name": "F#4",
          "ticks": 334080,
          "time": 278.40000000000003,
          "velocity": 0.8267716535433071
        },
        {
          "duration": 0.19999999999998863,
          "durationTicks": 240,
          "midi": 59,
          "name": "B3",
          "ticks": 336000,
          "time": 280,
          "velocity": 0.4015748031496063
        },
        {
          "duration": 0.20000000000004547,
          "durationTicks": 240,
          "midi": 62,
          "name": "D4",
          "ticks": 336240,
          "time": 280.2,
          "velocity": 0.4015748031496063
        },
        {
          "duration": 0.19999999999998863,
          "durationTicks": 240,
          "midi": 59,
          "name": "B3",
          "ticks": 336480,
          "time": 280.40000000000003,
          "velocity": 0.4015748031496063
        },
        {
          "duration": 0.19999999999998863,
          "durationTicks": 240,
          "midi": 62,
          "name": "D4",
          "ticks": 336720,
          "time": 280.6,
          "velocity": 0.4015748031496063
        },
        {
          "duration": 0.19999999999998863,
          "durationTicks": 240,
          "midi": 59,
          "name": "B3",
          "ticks": 336960,
          "time": 280.8,
          "velocity": 0.4015748031496063
        },
        {
          "duration": 0.19999999999998863,
          "durationTicks": 240,
          "midi": 62,
          "name": "D4",
          "ticks": 337200,
          "time": 281,
          "velocity": 0.4015748031496063
        },
        {
          "duration": 0.20000000000004547,
          "durationTicks": 240,
          "midi": 59,
          "name": "B3",
          "ticks": 337440,
          "time": 281.2,
          "velocity": 0.4015748031496063
        },
        {
          "duration": 0.19666666666665833,
          "durationTicks": 236,
          "midi": 62,
          "name": "D4",
          "ticks": 337680,
          "time": 281.40000000000003,
          "velocity": 0.4015748031496063
        },
        {
          "duration": 0.19999999999998863,
          "durationTicks": 240,
          "midi": 60,
          "name": "C4",
          "ticks": 337920,
          "time": 281.6,
          "velocity": 0.4015748031496063
        },
        {
          "duration": 0.19999999999998863,
          "durationTicks": 240,
          "midi": 62,
          "name": "D4",
          "ticks": 338160,
          "time": 281.8,
          "velocity": 0.4015748031496063
        },
        {
          "duration": 0.19999999999998863,
          "durationTicks": 240,
          "midi": 60,
          "name": "C4",
          "ticks": 338400,
          "time": 282,
          "velocity": 0.4015748031496063
        },
        {
          "duration": 0.20000000000004547,
          "durationTicks": 240,
          "midi": 62,
          "name": "D4",
          "ticks": 338640,
          "time": 282.2,
          "velocity": 0.4015748031496063
        },
        {
          "duration": 0.19999999999998863,
          "durationTicks": 240,
          "midi": 60,
          "name": "C4",
          "ticks": 338880,
          "time": 282.40000000000003,
          "velocity": 0.4015748031496063
        },
        {
          "duration": 0.19999999999998863,
          "durationTicks": 240,
          "midi": 62,
          "name": "D4",
          "ticks": 339120,
          "time": 282.6,
          "velocity": 0.4015748031496063
        },
        {
          "duration": 0.19999999999998863,
          "durationTicks": 240,
          "midi": 60,
          "name": "C4",
          "ticks": 339360,
          "time": 282.8,
          "velocity": 0.4015748031496063
        },
        {
          "duration": 0.19666666666665833,
          "durationTicks": 236,
          "midi": 62,
          "name": "D4",
          "ticks": 339600,
          "time": 283,
          "velocity": 0.4015748031496063
        },
        {
          "duration": 0.20000000000004547,
          "durationTicks": 240,
          "midi": 57,
          "name": "A3",
          "ticks": 339840,
          "time": 283.2,
          "velocity": 0.4015748031496063
        },
        {
          "duration": 0.19999999999998863,
          "durationTicks": 240,
          "midi": 62,
          "name": "D4",
          "ticks": 340080,
          "time": 283.40000000000003,
          "velocity": 0.4015748031496063
        },
        {
          "duration": 0.19999999999998863,
          "durationTicks": 240,
          "midi": 57,
          "name": "A3",
          "ticks": 340320,
          "time": 283.6,
          "velocity": 0.4015748031496063
        },
        {
          "duration": 0.19999999999998863,
          "durationTicks": 240,
          "midi": 62,
          "name": "D4",
          "ticks": 340560,
          "time": 283.8,
          "velocity": 0.4015748031496063
        },
        {
          "duration": 0.19999999999998863,
          "durationTicks": 240,
          "midi": 57,
          "name": "A3",
          "ticks": 340800,
          "time": 284,
          "velocity": 0.4015748031496063
        },
        {
          "duration": 0.20000000000004547,
          "durationTicks": 240,
          "midi": 62,
          "name": "D4",
          "ticks": 341040,
          "time": 284.2,
          "velocity": 0.4015748031496063
        },
        {
          "duration": 0.19999999999998863,
          "durationTicks": 240,
          "midi": 58,
          "name": "A#3",
          "ticks": 341280,
          "time": 284.40000000000003,
          "velocity": 0.4015748031496063
        },
        {
          "duration": 0.19666666666665833,
          "durationTicks": 236,
          "midi": 62,
          "name": "D4",
          "ticks": 341520,
          "time": 284.6,
          "velocity": 0.4015748031496063
        },
        {
          "duration": 0.19999999999998863,
          "durationTicks": 240,
          "midi": 59,
          "name": "B3",
          "ticks": 341760,
          "time": 284.8,
          "velocity": 0.4015748031496063
        },
        {
          "duration": 0.19999999999998863,
          "durationTicks": 240,
          "midi": 62,
          "name": "D4",
          "ticks": 342000,
          "time": 285,
          "velocity": 0.4015748031496063
        },
        {
          "duration": 0.20000000000004547,
          "durationTicks": 240,
          "midi": 59,
          "name": "B3",
          "ticks": 342240,
          "time": 285.2,
          "velocity": 0.4015748031496063
        },
        {
          "duration": 0.19999999999998863,
          "durationTicks": 240,
          "midi": 62,
          "name": "D4",
          "ticks": 342480,
          "time": 285.40000000000003,
          "velocity": 0.4015748031496063
        },
        {
          "duration": 0.19999999999998863,
          "durationTicks": 240,
          "midi": 59,
          "name": "B3",
          "ticks": 342720,
          "time": 285.6,
          "velocity": 0.4015748031496063
        },
        {
          "duration": 0.19999999999998863,
          "durationTicks": 240,
          "midi": 62,
          "name": "D4",
          "ticks": 342960,
          "time": 285.8,
          "velocity": 0.4015748031496063
        },
        {
          "duration": 0.19999999999998863,
          "durationTicks": 240,
          "midi": 59,
          "name": "B3",
          "ticks": 343200,
          "time": 286,
          "velocity": 0.4015748031496063
        },
        {
          "duration": 0.19666666666671517,
          "durationTicks": 236,
          "midi": 62,
          "name": "D4",
          "ticks": 343440,
          "time": 286.2,
          "velocity": 0.4015748031496063
        },
        {
          "duration": 0.19999999999998863,
          "durationTicks": 240,
          "midi": 57,
          "name": "A3",
          "ticks": 343680,
          "time": 286.40000000000003,
          "velocity": 0.4015748031496063
        },
        {
          "duration": 0.19999999999998863,
          "durationTicks": 240,
          "midi": 62,
          "name": "D4",
          "ticks": 343920,
          "time": 286.6,
          "velocity": 0.4015748031496063
        },
        {
          "duration": 0.19999999999998863,
          "durationTicks": 240,
          "midi": 57,
          "name": "A3",
          "ticks": 344160,
          "time": 286.8,
          "velocity": 0.4015748031496063
        },
        {
          "duration": 0.19999999999998863,
          "durationTicks": 240,
          "midi": 62,
          "name": "D4",
          "ticks": 344400,
          "time": 287,
          "velocity": 0.4015748031496063
        },
        {
          "duration": 0.20000000000004547,
          "durationTicks": 240,
          "midi": 55,
          "name": "G3",
          "ticks": 344640,
          "time": 287.2,
          "velocity": 0.4015748031496063
        },
        {
          "duration": 0.19999999999998863,
          "durationTicks": 240,
          "midi": 62,
          "name": "D4",
          "ticks": 344880,
          "time": 287.40000000000003,
          "velocity": 0.4015748031496063
        },
        {
          "duration": 0.19999999999998863,
          "durationTicks": 240,
          "midi": 55,
          "name": "G3",
          "ticks": 345120,
          "time": 287.6,
          "velocity": 0.4015748031496063
        },
        {
          "duration": 0.19666666666665833,
          "durationTicks": 236,
          "midi": 67,
          "name": "G4",
          "ticks": 345360,
          "time": 287.8,
          "velocity": 0.4015748031496063
        },
        {
          "duration": 0.33333333333337123,
          "durationTicks": 400,
          "midi": 66,
          "name": "F#4",
          "ticks": 345600,
          "time": 288,
          "velocity": 0.4015748031496063
        },
        {
          "duration": 0.19999999999998863,
          "durationTicks": 240,
          "midi": 59,
          "name": "B3",
          "ticks": 347520,
          "time": 289.6,
          "velocity": 0.4015748031496063
        },
        {
          "duration": 0.19999999999998863,
          "durationTicks": 240,
          "midi": 62,
          "name": "D4",
          "ticks": 347760,
          "time": 289.8,
          "velocity": 0.4015748031496063
        },
        {
          "duration": 0.19999999999998863,
          "durationTicks": 240,
          "midi": 59,
          "name": "B3",
          "ticks": 348000,
          "time": 290,
          "velocity": 0.4015748031496063
        },
        {
          "duration": 0.20000000000004547,
          "durationTicks": 240,
          "midi": 62,
          "name": "D4",
          "ticks": 348240,
          "time": 290.2,
          "velocity": 0.4015748031496063
        },
        {
          "duration": 0.19999999999998863,
          "durationTicks": 240,
          "midi": 59,
          "name": "B3",
          "ticks": 348480,
          "time": 290.40000000000003,
          "velocity": 0.4015748031496063
        },
        {
          "duration": 0.19999999999998863,
          "durationTicks": 240,
          "midi": 62,
          "name": "D4",
          "ticks": 348720,
          "time": 290.6,
          "velocity": 0.4015748031496063
        },
        {
          "duration": 0.19999999999998863,
          "durationTicks": 240,
          "midi": 59,
          "name": "B3",
          "ticks": 348960,
          "time": 290.8,
          "velocity": 0.4015748031496063
        },
        {
          "duration": 0.19666666666665833,
          "durationTicks": 236,
          "midi": 62,
          "name": "D4",
          "ticks": 349200,
          "time": 291,
          "velocity": 0.4015748031496063
        },
        {
          "duration": 0.20000000000004547,
          "durationTicks": 240,
          "midi": 60,
          "name": "C4",
          "ticks": 349440,
          "time": 291.2,
          "velocity": 0.4015748031496063
        },
        {
          "duration": 0.19999999999998863,
          "durationTicks": 240,
          "midi": 62,
          "name": "D4",
          "ticks": 349680,
          "time": 291.40000000000003,
          "velocity": 0.4015748031496063
        },
        {
          "duration": 0.19999999999998863,
          "durationTicks": 240,
          "midi": 60,
          "name": "C4",
          "ticks": 349920,
          "time": 291.6,
          "velocity": 0.4015748031496063
        },
        {
          "duration": 0.19999999999998863,
          "durationTicks": 240,
          "midi": 62,
          "name": "D4",
          "ticks": 350160,
          "time": 291.8,
          "velocity": 0.4015748031496063
        },
        {
          "duration": 0.19999999999998863,
          "durationTicks": 240,
          "midi": 60,
          "name": "C4",
          "ticks": 350400,
          "time": 292,
          "velocity": 0.4015748031496063
        },
        {
          "duration": 0.20000000000004547,
          "durationTicks": 240,
          "midi": 62,
          "name": "D4",
          "ticks": 350640,
          "time": 292.2,
          "velocity": 0.4015748031496063
        },
        {
          "duration": 0.19999999999998863,
          "durationTicks": 240,
          "midi": 60,
          "name": "C4",
          "ticks": 350880,
          "time": 292.40000000000003,
          "velocity": 0.4015748031496063
        },
        {
          "duration": 0.19666666666665833,
          "durationTicks": 236,
          "midi": 62,
          "name": "D4",
          "ticks": 351120,
          "time": 292.6,
          "velocity": 0.4015748031496063
        },
        {
          "duration": 0.19999999999998863,
          "durationTicks": 240,
          "midi": 57,
          "name": "A3",
          "ticks": 351360,
          "time": 292.8,
          "velocity": 0.4015748031496063
        },
        {
          "duration": 0.19999999999998863,
          "durationTicks": 240,
          "midi": 62,
          "name": "D4",
          "ticks": 351600,
          "time": 293,
          "velocity": 0.4015748031496063
        },
        {
          "duration": 0.20000000000004547,
          "durationTicks": 240,
          "midi": 57,
          "name": "A3",
          "ticks": 351840,
          "time": 293.2,
          "velocity": 0.4015748031496063
        },
        {
          "duration": 0.19999999999998863,
          "durationTicks": 240,
          "midi": 62,
          "name": "D4",
          "ticks": 352080,
          "time": 293.40000000000003,
          "velocity": 0.4015748031496063
        },
        {
          "duration": 0.19999999999998863,
          "durationTicks": 240,
          "midi": 57,
          "name": "A3",
          "ticks": 352320,
          "time": 293.6,
          "velocity": 0.4015748031496063
        },
        {
          "duration": 0.19999999999998863,
          "durationTicks": 240,
          "midi": 62,
          "name": "D4",
          "ticks": 352560,
          "time": 293.8,
          "velocity": 0.4015748031496063
        },
        {
          "duration": 0.19999999999998863,
          "durationTicks": 240,
          "midi": 58,
          "name": "A#3",
          "ticks": 352800,
          "time": 294,
          "velocity": 0.4015748031496063
        },
        {
          "duration": 0.19666666666671517,
          "durationTicks": 236,
          "midi": 62,
          "name": "D4",
          "ticks": 353040,
          "time": 294.2,
          "velocity": 0.4015748031496063
        },
        {
          "duration": 0.19999999999998863,
          "durationTicks": 240,
          "midi": 59,
          "name": "B3",
          "ticks": 353280,
          "time": 294.40000000000003,
          "velocity": 0.4015748031496063
        },
        {
          "duration": 0.19999999999998863,
          "durationTicks": 240,
          "midi": 62,
          "name": "D4",
          "ticks": 353520,
          "time": 294.6,
          "velocity": 0.4015748031496063
        },
        {
          "duration": 0.19999999999998863,
          "durationTicks": 240,
          "midi": 59,
          "name": "B3",
          "ticks": 353760,
          "time": 294.8,
          "velocity": 0.4015748031496063
        },
        {
          "duration": 0.19999999999998863,
          "durationTicks": 240,
          "midi": 62,
          "name": "D4",
          "ticks": 354000,
          "time": 295,
          "velocity": 0.4015748031496063
        },
        {
          "duration": 0.20000000000004547,
          "durationTicks": 240,
          "midi": 59,
          "name": "B3",
          "ticks": 354240,
          "time": 295.2,
          "velocity": 0.4015748031496063
        },
        {
          "duration": 0.19999999999998863,
          "durationTicks": 240,
          "midi": 62,
          "name": "D4",
          "ticks": 354480,
          "time": 295.40000000000003,
          "velocity": 0.4015748031496063
        },
        {
          "duration": 0.19999999999998863,
          "durationTicks": 240,
          "midi": 59,
          "name": "B3",
          "ticks": 354720,
          "time": 295.6,
          "velocity": 0.4015748031496063
        },
        {
          "duration": 0.19666666666665833,
          "durationTicks": 236,
          "midi": 62,
          "name": "D4",
          "ticks": 354960,
          "time": 295.8,
          "velocity": 0.4015748031496063
        },
        {
          "duration": 0.19999999999998863,
          "durationTicks": 240,
          "midi": 57,
          "name": "A3",
          "ticks": 355200,
          "time": 296,
          "velocity": 0.4015748031496063
        },
        {
          "duration": 0.20000000000004547,
          "durationTicks": 240,
          "midi": 62,
          "name": "D4",
          "ticks": 355440,
          "time": 296.2,
          "velocity": 0.4015748031496063
        },
        {
          "duration": 0.19999999999998863,
          "durationTicks": 240,
          "midi": 57,
          "name": "A3",
          "ticks": 355680,
          "time": 296.40000000000003,
          "velocity": 0.4015748031496063
        },
        {
          "duration": 0.19999999999998863,
          "durationTicks": 240,
          "midi": 62,
          "name": "D4",
          "ticks": 355920,
          "time": 296.6,
          "velocity": 0.4015748031496063
        },
        {
          "duration": 0.19999999999998863,
          "durationTicks": 240,
          "midi": 55,
          "name": "G3",
          "ticks": 356160,
          "time": 296.8,
          "velocity": 0.4015748031496063
        },
        {
          "duration": 0.19999999999998863,
          "durationTicks": 240,
          "midi": 62,
          "name": "D4",
          "ticks": 356400,
          "time": 297,
          "velocity": 0.4015748031496063
        },
        {
          "duration": 0.20000000000004547,
          "durationTicks": 240,
          "midi": 55,
          "name": "G3",
          "ticks": 356640,
          "time": 297.2,
          "velocity": 0.4015748031496063
        },
        {
          "duration": 0.19666666666665833,
          "durationTicks": 236,
          "midi": 67,
          "name": "G4",
          "ticks": 356880,
          "time": 297.40000000000003,
          "velocity": 0.4015748031496063
        },
        {
          "duration": 0.19999999999998863,
          "durationTicks": 240,
          "midi": 66,
          "name": "F#4",
          "ticks": 357120,
          "time": 297.6,
          "velocity": 0.4015748031496063
        },
        {
          "duration": 0.19999999999998863,
          "durationTicks": 240,
          "midi": 62,
          "name": "D4",
          "ticks": 357360,
          "time": 297.8,
          "velocity": 0.4015748031496063
        },
        {
          "duration": 0.19999999999998863,
          "durationTicks": 240,
          "midi": 66,
          "name": "F#4",
          "ticks": 357600,
          "time": 298,
          "velocity": 0.4015748031496063
        },
        {
          "duration": 0.20000000000004547,
          "durationTicks": 240,
          "midi": 62,
          "name": "D4",
          "ticks": 357840,
          "time": 298.2,
          "velocity": 0.4015748031496063
        },
        {
          "duration": 0.19999999999998863,
          "durationTicks": 240,
          "midi": 66,
          "name": "F#4",
          "ticks": 358080,
          "time": 298.40000000000003,
          "velocity": 0.4015748031496063
        },
        {
          "duration": 0.19999999999998863,
          "durationTicks": 240,
          "midi": 62,
          "name": "D4",
          "ticks": 358320,
          "time": 298.6,
          "velocity": 0.4015748031496063
        },
        {
          "duration": 0.19999999999998863,
          "durationTicks": 240,
          "midi": 66,
          "name": "F#4",
          "ticks": 358560,
          "time": 298.8,
          "velocity": 0.4015748031496063
        },
        {
          "duration": 0.19666666666665833,
          "durationTicks": 236,
          "midi": 69,
          "name": "A4",
          "ticks": 358800,
          "time": 299,
          "velocity": 0.4015748031496063
        },
        {
          "duration": 0.20000000000004547,
          "durationTicks": 240,
          "midi": 67,
          "name": "G4",
          "ticks": 359040,
          "time": 299.2,
          "velocity": 0.4015748031496063
        },
        {
          "duration": 0.19999999999998863,
          "durationTicks": 240,
          "midi": 62,
          "name": "D4",
          "ticks": 359280,
          "time": 299.40000000000003,
          "velocity": 0.4015748031496063
        },
        {
          "duration": 0.19999999999998863,
          "durationTicks": 240,
          "midi": 59,
          "name": "B3",
          "ticks": 359520,
          "time": 299.6,
          "velocity": 0.4015748031496063
        },
        {
          "duration": 0.19999999999998863,
          "durationTicks": 240,
          "midi": 67,
          "name": "G4",
          "ticks": 359760,
          "time": 299.8,
          "velocity": 0.4015748031496063
        },
        {
          "duration": 0.19999999999998863,
          "durationTicks": 240,
          "midi": 66,
          "name": "F#4",
          "ticks": 360000,
          "time": 300,
          "velocity": 0.4015748031496063
        },
        {
          "duration": 0.20000000000004547,
          "durationTicks": 240,
          "midi": 60,
          "name": "C4",
          "ticks": 360240,
          "time": 300.2,
          "velocity": 0.4015748031496063
        },
        {
          "duration": 0.19999999999998863,
          "durationTicks": 240,
          "midi": 57,
          "name": "A3",
          "ticks": 360480,
          "time": 300.40000000000003,
          "velocity": 0.4015748031496063
        },
        {
          "duration": 0.19666666666665833,
          "durationTicks": 236,
          "midi": 66,
          "name": "F#4",
          "ticks": 360720,
          "time": 300.6,
          "velocity": 0.4015748031496063
        },
        {
          "duration": 0.19999999999998863,
          "durationTicks": 240,
          "midi": 67,
          "name": "G4",
          "ticks": 360960,
          "time": 300.8,
          "velocity": 0.4015748031496063
        },
        {
          "duration": 0.19999999999998863,
          "durationTicks": 240,
          "midi": 64,
          "name": "E4",
          "ticks": 361200,
          "time": 301,
          "velocity": 0.4015748031496063
        },
        {
          "duration": 0.20000000000004547,
          "durationTicks": 240,
          "midi": 59,
          "name": "B3",
          "ticks": 361440,
          "time": 301.2,
          "velocity": 0.4015748031496063
        },
        {
          "duration": 0.19999999999998863,
          "durationTicks": 240,
          "midi": 64,
          "name": "E4",
          "ticks": 361680,
          "time": 301.40000000000003,
          "velocity": 0.4015748031496063
        },
        {
          "duration": 0.19999999999998863,
          "durationTicks": 240,
          "midi": 67,
          "name": "G4",
          "ticks": 361920,
          "time": 301.6,
          "velocity": 0.4015748031496063
        },
        {
          "duration": 0.19999999999998863,
          "durationTicks": 240,
          "midi": 59,
          "name": "B3",
          "ticks": 362160,
          "time": 301.8,
          "velocity": 0.4015748031496063
        },
        {
          "duration": 0.19999999999998863,
          "durationTicks": 240,
          "midi": 64,
          "name": "E4",
          "ticks": 362400,
          "time": 302,
          "velocity": 0.4015748031496063
        },
        {
          "duration": 0.19666666666671517,
          "durationTicks": 236,
          "midi": 60,
          "name": "C4",
          "ticks": 362640,
          "time": 302.2,
          "velocity": 0.4015748031496063
        },
        {
          "duration": 0.19999999999998863,
          "durationTicks": 240,
          "midi": 59,
          "name": "B3",
          "ticks": 362880,
          "time": 302.40000000000003,
          "velocity": 0.4015748031496063
        },
        {
          "duration": 0.19999999999998863,
          "durationTicks": 240,
          "midi": 62,
          "name": "D4",
          "ticks": 363120,
          "time": 302.6,
          "velocity": 0.4015748031496063
        },
        {
          "duration": 0.19999999999998863,
          "durationTicks": 240,
          "midi": 59,
          "name": "B3",
          "ticks": 363360,
          "time": 302.8,
          "velocity": 0.4015748031496063
        },
        {
          "duration": 0.19999999999998863,
          "durationTicks": 240,
          "midi": 62,
          "name": "D4",
          "ticks": 363600,
          "time": 303,
          "velocity": 0.4015748031496063
        },
        {
          "duration": 0.20000000000004547,
          "durationTicks": 240,
          "midi": 59,
          "name": "B3",
          "ticks": 363840,
          "time": 303.2,
          "velocity": 0.4015748031496063
        },
        {
          "duration": 0.19999999999998863,
          "durationTicks": 240,
          "midi": 62,
          "name": "D4",
          "ticks": 364080,
          "time": 303.40000000000003,
          "velocity": 0.4015748031496063
        },
        {
          "duration": 0.19999999999998863,
          "durationTicks": 240,
          "midi": 60,
          "name": "C4",
          "ticks": 364320,
          "time": 303.6,
          "velocity": 0.4015748031496063
        },
        {
          "duration": 0.19666666666665833,
          "durationTicks": 236,
          "midi": 62,
          "name": "D4",
          "ticks": 364560,
          "time": 303.8,
          "velocity": 0.4015748031496063
        },
        {
          "duration": 0.19999999999998863,
          "durationTicks": 240,
          "midi": 59,
          "name": "B3",
          "ticks": 364800,
          "time": 304,
          "velocity": 0.4015748031496063
        },
        {
          "duration": 0.20000000000004547,
          "durationTicks": 240,
          "midi": 62,
          "name": "D4",
          "ticks": 365040,
          "time": 304.2,
          "velocity": 0.4015748031496063
        },
        {
          "duration": 0.19999999999998863,
          "durationTicks": 240,
          "midi": 67,
          "name": "G4",
          "ticks": 365280,
          "time": 304.40000000000003,
          "velocity": 0.4015748031496063
        },
        {
          "duration": 0.19999999999998863,
          "durationTicks": 240,
          "midi": 62,
          "name": "D4",
          "ticks": 365520,
          "time": 304.6,
          "velocity": 0.4015748031496063
        },
        {
          "duration": 0.19999999999998863,
          "durationTicks": 240,
          "midi": 59,
          "name": "B3",
          "ticks": 365760,
          "time": 304.8,
          "velocity": 0.4015748031496063
        },
        {
          "duration": 0.19999999999998863,
          "durationTicks": 240,
          "midi": 62,
          "name": "D4",
          "ticks": 366000,
          "time": 305,
          "velocity": 0.4015748031496063
        },
        {
          "duration": 0.20000000000004547,
          "durationTicks": 240,
          "midi": 67,
          "name": "G4",
          "ticks": 366240,
          "time": 305.2,
          "velocity": 0.4015748031496063
        },
        {
          "duration": 0.19666666666665833,
          "durationTicks": 236,
          "midi": 62,
          "name": "D4",
          "ticks": 366480,
          "time": 305.40000000000003,
          "velocity": 0.4015748031496063
        },
        {
          "duration": 0.19999999999998863,
          "durationTicks": 240,
          "midi": 66,
          "name": "F#4",
          "ticks": 366720,
          "time": 305.6,
          "velocity": 0.4015748031496063
        },
        {
          "duration": 0.19999999999998863,
          "durationTicks": 240,
          "midi": 62,
          "name": "D4",
          "ticks": 366960,
          "time": 305.8,
          "velocity": 0.4015748031496063
        },
        {
          "duration": 0.19999999999998863,
          "durationTicks": 240,
          "midi": 57,
          "name": "A3",
          "ticks": 367200,
          "time": 306,
          "velocity": 0.4015748031496063
        },
        {
          "duration": 0.20000000000004547,
          "durationTicks": 240,
          "midi": 62,
          "name": "D4",
          "ticks": 367440,
          "time": 306.2,
          "velocity": 0.4015748031496063
        },
        {
          "duration": 0.19999999999998863,
          "durationTicks": 240,
          "midi": 66,
          "name": "F#4",
          "ticks": 367680,
          "time": 306.40000000000003,
          "velocity": 0.4015748031496063
        },
        {
          "duration": 0.19999999999998863,
          "durationTicks": 240,
          "midi": 62,
          "name": "D4",
          "ticks": 367920,
          "time": 306.6,
          "velocity": 0.4015748031496063
        },
        {
          "duration": 0.19999999999998863,
          "durationTicks": 240,
          "midi": 66,
          "name": "F#4",
          "ticks": 368160,
          "time": 306.8,
          "velocity": 0.4015748031496063
        },
        {
          "duration": 0.19666666666665833,
          "durationTicks": 236,
          "midi": 62,
          "name": "D4",
          "ticks": 368400,
          "time": 307,
          "velocity": 0.4015748031496063
        },
        {
          "duration": 0.19999999999998863,
          "durationTicks": 240,
          "midi": 67,
          "name": "G4",
          "ticks": 368640,
          "time": 307.20000000000005,
          "velocity": 0.4015748031496063
        },
        {
          "duration": 0.19999999999998863,
          "durationTicks": 240,
          "midi": 62,
          "name": "D4",
          "ticks": 368880,
          "time": 307.40000000000003,
          "velocity": 0.4015748031496063
        },
        {
          "duration": 0.19999999999998863,
          "durationTicks": 240,
          "midi": 59,
          "name": "B3",
          "ticks": 369120,
          "time": 307.6,
          "velocity": 0.4015748031496063
        },
        {
          "duration": 0.19999999999998863,
          "durationTicks": 240,
          "midi": 62,
          "name": "D4",
          "ticks": 369360,
          "time": 307.8,
          "velocity": 0.4015748031496063
        },
        {
          "duration": 0.20000000000004547,
          "durationTicks": 240,
          "midi": 67,
          "name": "G4",
          "ticks": 369600,
          "time": 308,
          "velocity": 0.4015748031496063
        },
        {
          "duration": 0.19999999999998863,
          "durationTicks": 240,
          "midi": 59,
          "name": "B3",
          "ticks": 369840,
          "time": 308.20000000000005,
          "velocity": 0.4015748031496063
        },
        {
          "duration": 0.19999999999998863,
          "durationTicks": 240,
          "midi": 55,
          "name": "G3",
          "ticks": 370080,
          "time": 308.40000000000003,
          "velocity": 0.4015748031496063
        },
        {
          "duration": 0.19666666666665833,
          "durationTicks": 236,
          "midi": 59,
          "name": "B3",
          "ticks": 370320,
          "time": 308.6,
          "velocity": 0.4015748031496063
        },
        {
          "duration": 0.19999999999998863,
          "durationTicks": 240,
          "midi": 67,
          "name": "G4",
          "ticks": 370560,
          "time": 308.8,
          "velocity": 0.4015748031496063
        },
        {
          "duration": 0.20000000000004547,
          "durationTicks": 240,
          "midi": 64,
          "name": "E4",
          "ticks": 370800,
          "time": 309,
          "velocity": 0.4015748031496063
        },
        {
          "duration": 0.19999999999998863,
          "durationTicks": 240,
          "midi": 57,
          "name": "A3",
          "ticks": 371040,
          "time": 309.20000000000005,
          "velocity": 0.4015748031496063
        },
        {
          "duration": 0.19999999999998863,
          "durationTicks": 240,
          "midi": 64,
          "name": "E4",
          "ticks": 371280,
          "time": 309.40000000000003,
          "velocity": 0.4015748031496063
        },
        {
          "duration": 0.19999999999998863,
          "durationTicks": 240,
          "midi": 66,
          "name": "F#4",
          "ticks": 371520,
          "time": 309.6,
          "velocity": 0.4015748031496063
        },
        {
          "duration": 0.19999999999998863,
          "durationTicks": 240,
          "midi": 62,
          "name": "D4",
          "ticks": 371760,
          "time": 309.8,
          "velocity": 0.4015748031496063
        },
        {
          "duration": 0.20000000000004547,
          "durationTicks": 240,
          "midi": 60,
          "name": "C4",
          "ticks": 372000,
          "time": 310,
          "velocity": 0.4015748031496063
        },
        {
          "duration": 0.19666666666665833,
          "durationTicks": 236,
          "midi": 62,
          "name": "D4",
          "ticks": 372240,
          "time": 310.20000000000005,
          "velocity": 0.4015748031496063
        },
        {
          "duration": 0.19999999999998863,
          "durationTicks": 240,
          "midi": 59,
          "name": "B3",
          "ticks": 372480,
          "time": 310.40000000000003,
          "velocity": 0.4015748031496063
        },
        {
          "duration": 0.19999999999998863,
          "durationTicks": 240,
          "midi": 62,
          "name": "D4",
          "ticks": 372720,
          "time": 310.6,
          "velocity": 0.4015748031496063
        },
        {
          "duration": 0.19999999999998863,
          "durationTicks": 240,
          "midi": 67,
          "name": "G4",
          "ticks": 372960,
          "time": 310.8,
          "velocity": 0.4015748031496063
        },
        {
          "duration": 0.20000000000004547,
          "durationTicks": 240,
          "midi": 62,
          "name": "D4",
          "ticks": 373200,
          "time": 311,
          "velocity": 0.4015748031496063
        },
        {
          "duration": 0.19999999999998863,
          "durationTicks": 240,
          "midi": 59,
          "name": "B3",
          "ticks": 373440,
          "time": 311.20000000000005,
          "velocity": 0.4015748031496063
        },
        {
          "duration": 0.19999999999998863,
          "durationTicks": 240,
          "midi": 62,
          "name": "D4",
          "ticks": 373680,
          "time": 311.40000000000003,
          "velocity": 0.4015748031496063
        },
        {
          "duration": 0.19999999999998863,
          "durationTicks": 240,
          "midi": 67,
          "name": "G4",
          "ticks": 373920,
          "time": 311.6,
          "velocity": 0.4015748031496063
        },
        {
          "duration": 0.19666666666665833,
          "durationTicks": 236,
          "midi": 62,
          "name": "D4",
          "ticks": 374160,
          "time": 311.8,
          "velocity": 0.4015748031496063
        },
        {
          "duration": 0.20000000000004547,
          "durationTicks": 240,
          "midi": 66,
          "name": "F#4",
          "ticks": 374400,
          "time": 312,
          "velocity": 0.4015748031496063
        },
        {
          "duration": 0.19999999999998863,
          "durationTicks": 240,
          "midi": 62,
          "name": "D4",
          "ticks": 374640,
          "time": 312.20000000000005,
          "velocity": 0.4015748031496063
        },
        {
          "duration": 0.19999999999998863,
          "durationTicks": 240,
          "midi": 57,
          "name": "A3",
          "ticks": 374880,
          "time": 312.40000000000003,
          "velocity": 0.4015748031496063
        },
        {
          "duration": 0.19999999999998863,
          "durationTicks": 240,
          "midi": 62,
          "name": "D4",
          "ticks": 375120,
          "time": 312.6,
          "velocity": 0.4015748031496063
        },
        {
          "duration": 0.19999999999998863,
          "durationTicks": 240,
          "midi": 66,
          "name": "F#4",
          "ticks": 375360,
          "time": 312.8,
          "velocity": 0.4015748031496063
        },
        {
          "duration": 0.20000000000004547,
          "durationTicks": 240,
          "midi": 62,
          "name": "D4",
          "ticks": 375600,
          "time": 313,
          "velocity": 0.4015748031496063
        },
        {
          "duration": 0.19999999999998863,
          "durationTicks": 240,
          "midi": 57,
          "name": "A3",
          "ticks": 375840,
          "time": 313.20000000000005,
          "velocity": 0.4015748031496063
        },
        {
          "duration": 0.19666666666665833,
          "durationTicks": 236,
          "midi": 62,
          "name": "D4",
          "ticks": 376080,
          "time": 313.40000000000003,
          "velocity": 0.4015748031496063
        },
        {
          "duration": 0.10000000000002274,
          "durationTicks": 120,
          "midi": 67,
          "name": "G4",
          "ticks": 376320,
          "time": 313.6,
          "velocity": 0.4015748031496063
        },
        {
          "duration": 0.10000000000002274,
          "durationTicks": 120,
          "midi": 77,
          "name": "F5",
          "ticks": 376800,
          "time": 314,
          "velocity": 0.4015748031496063
        },
        {
          "duration": 0.0999999999999659,
          "durationTicks": 120,
          "midi": 77,
          "name": "F5",
          "ticks": 377280,
          "time": 314.40000000000003,
          "velocity": 0.4015748031496063
        },
        {
          "duration": 0.0999999999999659,
          "durationTicks": 120,
          "midi": 76,
          "name": "E5",
          "ticks": 378240,
          "time": 315.20000000000005,
          "velocity": 0.4015748031496063
        },
        {
          "duration": 0.10000000000002274,
          "durationTicks": 120,
          "midi": 76,
          "name": "E5",
          "ticks": 378720,
          "time": 315.6,
          "velocity": 0.4015748031496063
        },
        {
          "duration": 0.10000000000002274,
          "durationTicks": 120,
          "midi": 76,
          "name": "E5",
          "ticks": 379200,
          "time": 316,
          "velocity": 0.4015748031496063
        },
        {
          "duration": 0.10000000000002274,
          "durationTicks": 120,
          "midi": 79,
          "name": "G5",
          "ticks": 380160,
          "time": 316.8,
          "velocity": 0.4015748031496063
        },
        {
          "duration": 0.0999999999999659,
          "durationTicks": 120,
          "midi": 79,
          "name": "G5",
          "ticks": 380640,
          "time": 317.20000000000005,
          "velocity": 0.4015748031496063
        },
        {
          "duration": 0.10000000000002274,
          "durationTicks": 120,
          "midi": 79,
          "name": "G5",
          "ticks": 381120,
          "time": 317.6,
          "velocity": 0.4015748031496063
        },
        {
          "duration": 0.7000000000000455,
          "durationTicks": 840,
          "midi": 55,
          "name": "G3",
          "ticks": 384000,
          "time": 320,
          "velocity": 0.8267716535433071
        },
        {
          "duration": 0.6999999999999886,
          "durationTicks": 840,
          "midi": 55,
          "name": "G3",
          "ticks": 384960,
          "time": 320.8,
          "velocity": 0.8267716535433071
        },
        {
          "duration": 0.6999999999999886,
          "durationTicks": 840,
          "midi": 55,
          "name": "G3",
          "ticks": 385920,
          "time": 321.6,
          "velocity": 0.8267716535433071
        },
        {
          "duration": 0.6999999999999886,
          "durationTicks": 840,
          "midi": 55,
          "name": "G3",
          "ticks": 386880,
          "time": 322.40000000000003,
          "velocity": 0.8267716535433071
        },
        {
          "duration": 0.6999999999999886,
          "durationTicks": 840,
          "midi": 55,
          "name": "G3",
          "ticks": 387840,
          "time": 323.20000000000005,
          "velocity": 0.8267716535433071
        },
        {
          "duration": 0.7000000000000455,
          "durationTicks": 840,
          "midi": 56,
          "name": "G#3",
          "ticks": 388800,
          "time": 324,
          "velocity": 0.8267716535433071
        },
        {
          "duration": 0.6999999999999886,
          "durationTicks": 840,
          "midi": 57,
          "name": "A3",
          "ticks": 389760,
          "time": 324.8,
          "velocity": 0.8267716535433071
        },
        {
          "duration": 0.6999999999999886,
          "durationTicks": 840,
          "midi": 59,
          "name": "B3",
          "ticks": 390720,
          "time": 325.6,
          "velocity": 0.8267716535433071
        },
        {
          "duration": 0.3333333333333144,
          "durationTicks": 400,
          "midi": 60,
          "name": "C4",
          "ticks": 391680,
          "time": 326.40000000000003,
          "velocity": 0.8267716535433071
        },
        {
          "duration": 0.33333333333337123,
          "durationTicks": 400,
          "midi": 55,
          "name": "G3",
          "ticks": 392160,
          "time": 326.8,
          "velocity": 0.8267716535433071
        },
        {
          "duration": 0.3333333333333144,
          "durationTicks": 400,
          "midi": 60,
          "name": "C4",
          "ticks": 392640,
          "time": 327.20000000000005,
          "velocity": 0.8267716535433071
        },
        {
          "duration": 0.33333333333337123,
          "durationTicks": 400,
          "midi": 64,
          "name": "E4",
          "ticks": 393120,
          "time": 327.6,
          "velocity": 0.8267716535433071
        },
        {
          "duration": 0.33333333333337123,
          "durationTicks": 400,
          "midi": 67,
          "name": "G4",
          "ticks": 393600,
          "time": 328,
          "velocity": 0.8267716535433071
        },
        {
          "duration": 0.3333333333333144,
          "durationTicks": 400,
          "midi": 72,
          "name": "C5",
          "ticks": 394080,
          "time": 328.40000000000003,
          "velocity": 0.8267716535433071
        },
        {
          "duration": 0.19999999999998863,
          "durationTicks": 240,
          "midi": 76,
          "name": "E5",
          "ticks": 394560,
          "time": 328.8,
          "velocity": 0.8267716535433071
        },
        {
          "duration": 0.19999999999998863,
          "durationTicks": 240,
          "midi": 79,
          "name": "G5",
          "ticks": 395040,
          "time": 329.20000000000005,
          "velocity": 0.8267716535433071
        },
        {
          "duration": 0.19666666666665833,
          "durationTicks": 236,
          "midi": 71,
          "name": "B4",
          "ticks": 395520,
          "time": 329.6,
          "velocity": 0.8267716535433071
        },
        {
          "duration": 0.19666666666665833,
          "durationTicks": 236,
          "midi": 79,
          "name": "G5",
          "ticks": 395520,
          "time": 329.6,
          "velocity": 0.8267716535433071
        },
        {
          "duration": 0.33333333333337123,
          "durationTicks": 400,
          "midi": 71,
          "name": "B4",
          "ticks": 395760,
          "time": 329.8,
          "velocity": 0.8267716535433071
        },
        {
          "duration": 0.33333333333337123,
          "durationTicks": 400,
          "midi": 79,
          "name": "G5",
          "ticks": 395760,
          "time": 329.8,
          "velocity": 0.8267716535433071
        },
        {
          "duration": 0.3333333333333144,
          "durationTicks": 400,
          "midi": 71,
          "name": "B4",
          "ticks": 396240,
          "time": 330.20000000000005,
          "velocity": 0.8267716535433071
        },
        {
          "duration": 0.3333333333333144,
          "durationTicks": 400,
          "midi": 79,
          "name": "G5",
          "ticks": 396240,
          "time": 330.20000000000005,
          "velocity": 0.8267716535433071
        },
        {
          "duration": 0.33333333333337123,
          "durationTicks": 400,
          "midi": 71,
          "name": "B4",
          "ticks": 396720,
          "time": 330.6,
          "velocity": 0.8267716535433071
        },
        {
          "duration": 0.33333333333337123,
          "durationTicks": 400,
          "midi": 79,
          "name": "G5",
          "ticks": 396720,
          "time": 330.6,
          "velocity": 0.8267716535433071
        },
        {
          "duration": 0.20000000000004547,
          "durationTicks": 240,
          "midi": 71,
          "name": "B4",
          "ticks": 397200,
          "time": 331,
          "velocity": 0.8267716535433071
        },
        {
          "duration": 0.20000000000004547,
          "durationTicks": 240,
          "midi": 79,
          "name": "G5",
          "ticks": 397200,
          "time": 331,
          "velocity": 0.8267716535433071
        },
        {
          "duration": 0.19666666666665833,
          "durationTicks": 236,
          "midi": 71,
          "name": "B4",
          "ticks": 397440,
          "time": 331.20000000000005,
          "velocity": 0.8267716535433071
        },
        {
          "duration": 0.19666666666665833,
          "durationTicks": 236,
          "midi": 79,
          "name": "G5",
          "ticks": 397440,
          "time": 331.20000000000005,
          "velocity": 0.8267716535433071
        },
        {
          "duration": 0.3333333333333144,
          "durationTicks": 400,
          "midi": 71,
          "name": "B4",
          "ticks": 397680,
          "time": 331.40000000000003,
          "velocity": 0.8267716535433071
        },
        {
          "duration": 0.3333333333333144,
          "durationTicks": 400,
          "midi": 79,
          "name": "G5",
          "ticks": 397680,
          "time": 331.40000000000003,
          "velocity": 0.8267716535433071
        },
        {
          "duration": 0.19999999999998863,
          "durationTicks": 240,
          "midi": 71,
          "name": "B4",
          "ticks": 398160,
          "time": 331.8,
          "velocity": 0.8267716535433071
        },
        {
          "duration": 0.19999999999998863,
          "durationTicks": 240,
          "midi": 79,
          "name": "G5",
          "ticks": 398160,
          "time": 331.8,
          "velocity": 0.8267716535433071
        },
        {
          "duration": 0.19666666666671517,
          "durationTicks": 236,
          "midi": 71,
          "name": "B4",
          "ticks": 398400,
          "time": 332,
          "velocity": 0.8267716535433071
        },
        {
          "duration": 0.19666666666671517,
          "durationTicks": 236,
          "midi": 79,
          "name": "G5",
          "ticks": 398400,
          "time": 332,
          "velocity": 0.8267716535433071
        },
        {
          "duration": 0.19666666666665833,
          "durationTicks": 236,
          "midi": 62,
          "name": "D4",
          "ticks": 398880,
          "time": 332.40000000000003,
          "velocity": 0.8267716535433071
        },
        {
          "duration": 0.19666666666665833,
          "durationTicks": 236,
          "midi": 69,
          "name": "A4",
          "ticks": 398880,
          "time": 332.40000000000003,
          "velocity": 0.8267716535433071
        },
        {
          "duration": 0.19666666666665833,
          "durationTicks": 236,
          "midi": 78,
          "name": "F#5",
          "ticks": 398880,
          "time": 332.40000000000003,
          "velocity": 0.8267716535433071
        },
        {
          "duration": 0.6000000000000227,
          "durationTicks": 720,
          "midi": 59,
          "name": "B3",
          "ticks": 399360,
          "time": 332.8,
          "velocity": 0.8267716535433071
        },
        {
          "duration": 0.19666666666665833,
          "durationTicks": 236,
          "midi": 57,
          "name": "A3",
          "ticks": 400080,
          "time": 333.40000000000003,
          "velocity": 0.8267716535433071
        },
        {
          "duration": 0.30000000000001137,
          "durationTicks": 360,
          "midi": 60,
          "name": "C4",
          "ticks": 400320,
          "time": 333.6,
          "velocity": 0.8267716535433071
        },
        {
          "duration": 0.0999999999999659,
          "durationTicks": 120,
          "midi": 59,
          "name": "B3",
          "ticks": 400680,
          "time": 333.90000000000003,
          "velocity": 0.8267716535433071
        },
        {
          "duration": 0.30000000000001137,
          "durationTicks": 360,
          "midi": 64,
          "name": "E4",
          "ticks": 400800,
          "time": 334,
          "velocity": 0.8267716535433071
        },
        {
          "duration": 0.09666666666669244,
          "durationTicks": 116,
          "midi": 62,
          "name": "D4",
          "ticks": 401160,
          "time": 334.3,
          "velocity": 0.8267716535433071
        },
        {
          "duration": 0.5999999999999659,
          "durationTicks": 720,
          "midi": 60,
          "name": "C4",
          "ticks": 401280,
          "time": 334.40000000000003,
          "velocity": 0.8267716535433071
        },
        {
          "duration": 0.19666666666671517,
          "durationTicks": 236,
          "midi": 59,
          "name": "B3",
          "ticks": 402000,
          "time": 335,
          "velocity": 0.8267716535433071
        },
        {
          "duration": 0.2999999999999545,
          "durationTicks": 360,
          "midi": 62,
          "name": "D4",
          "ticks": 402240,
          "time": 335.20000000000005,
          "velocity": 0.8267716535433071
        },
        {
          "duration": 0.10000000000002274,
          "durationTicks": 120,
          "midi": 60,
          "name": "C4",
          "ticks": 402600,
          "time": 335.5,
          "velocity": 0.8267716535433071
        },
        {
          "duration": 0.30000000000001137,
          "durationTicks": 360,
          "midi": 65,
          "name": "F4",
          "ticks": 402720,
          "time": 335.6,
          "velocity": 0.8267716535433071
        },
        {
          "duration": 0.09666666666663559,
          "durationTicks": 116,
          "midi": 64,
          "name": "E4",
          "ticks": 403080,
          "time": 335.90000000000003,
          "velocity": 0.8267716535433071
        },
        {
          "duration": 0.6000000000000227,
          "durationTicks": 720,
          "midi": 62,
          "name": "D4",
          "ticks": 403200,
          "time": 336,
          "velocity": 0.8267716535433071
        },
        {
          "duration": 0.19666666666665833,
          "durationTicks": 236,
          "midi": 61,
          "name": "C#4",
          "ticks": 403920,
          "time": 336.6,
          "velocity": 0.8267716535433071
        },
        {
          "duration": 0.30000000000001137,
          "durationTicks": 360,
          "midi": 64,
          "name": "E4",
          "ticks": 404160,
          "time": 336.8,
          "velocity": 0.8267716535433071
        },
        {
          "duration": 0.10000000000002274,
          "durationTicks": 120,
          "midi": 62,
          "name": "D4",
          "ticks": 404520,
          "time": 337.1,
          "velocity": 0.8267716535433071
        },
        {
          "duration": 0.2999999999999545,
          "durationTicks": 360,
          "midi": 67,
          "name": "G4",
          "ticks": 404640,
          "time": 337.20000000000005,
          "velocity": 0.8267716535433071
        },
        {
          "duration": 0.09666666666669244,
          "durationTicks": 116,
          "midi": 65,
          "name": "F4",
          "ticks": 405000,
          "time": 337.5,
          "velocity": 0.8267716535433071
        },
        {
          "duration": 0.5333333333333599,
          "durationTicks": 640,
          "midi": 64,
          "name": "E4",
          "ticks": 405120,
          "time": 337.6,
          "velocity": 0.6771653543307087
        },
        {
          "duration": 0.19666666666665833,
          "durationTicks": 236,
          "midi": 64,
          "name": "E4",
          "ticks": 405840,
          "time": 338.20000000000005,
          "velocity": 0.6771653543307087
        },
        {
          "duration": 0.5333333333333599,
          "durationTicks": 640,
          "midi": 62,
          "name": "D4",
          "ticks": 406080,
          "time": 338.40000000000003,
          "velocity": 0.6771653543307087
        },
        {
          "duration": 0.19666666666671517,
          "durationTicks": 236,
          "midi": 62,
          "name": "D4",
          "ticks": 406800,
          "time": 339,
          "velocity": 0.6771653543307087
        },
        {
          "duration": 0.3333333333333144,
          "durationTicks": 400,
          "midi": 64,
          "name": "E4",
          "ticks": 407040,
          "time": 339.20000000000005,
          "velocity": 0.6771653543307087
        },
        {
          "duration": 0.3333333333333144,
          "durationTicks": 400,
          "midi": 72,
          "name": "C5",
          "ticks": 407040,
          "time": 339.20000000000005,
          "velocity": 0.6771653543307087
        },
        {
          "duration": 0.33333333333337123,
          "durationTicks": 400,
          "midi": 57,
          "name": "A3",
          "ticks": 408000,
          "time": 340,
          "velocity": 0.6771653543307087
        },
        {
          "duration": 0.33333333333337123,
          "durationTicks": 400,
          "midi": 66,
          "name": "F#4",
          "ticks": 408000,
          "time": 340,
          "velocity": 0.6771653543307087
        },
        {
          "duration": 0.6000000000000227,
          "durationTicks": 720,
          "midi": 59,
          "name": "B3",
          "ticks": 408960,
          "time": 340.8,
          "velocity": 0.6771653543307087
        },
        {
          "duration": 0.19666666666665833,
          "durationTicks": 236,
          "midi": 57,
          "name": "A3",
          "ticks": 409680,
          "time": 341.40000000000003,
          "velocity": 0.6771653543307087
        },
        {
          "duration": 0.30000000000001137,
          "durationTicks": 360,
          "midi": 60,
          "name": "C4",
          "ticks": 409920,
          "time": 341.6,
          "velocity": 0.6771653543307087
        },
        {
          "duration": 0.09666666666663559,
          "durationTicks": 116,
          "midi": 59,
          "name": "B3",
          "ticks": 410280,
          "time": 341.90000000000003,
          "velocity": 0.6771653543307087
        },
        {
          "duration": 0.30000000000001137,
          "durationTicks": 360,
          "midi": 64,
          "name": "E4",
          "ticks": 410400,
          "time": 342,
          "velocity": 0.6771653543307087
        },
        {
          "duration": 0.09666666666669244,
          "durationTicks": 116,
          "midi": 62,
          "name": "D4",
          "ticks": 410760,
          "time": 342.3,
          "velocity": 0.6771653543307087
        },
        {
          "duration": 0.5999999999999659,
          "durationTicks": 720,
          "midi": 60,
          "name": "C4",
          "ticks": 410880,
          "time": 342.40000000000003,
          "velocity": 0.6771653543307087
        },
        {
          "duration": 0.19666666666671517,
          "durationTicks": 236,
          "midi": 59,
          "name": "B3",
          "ticks": 411600,
          "time": 343,
          "velocity": 0.6771653543307087
        },
        {
          "duration": 0.2999999999999545,
          "durationTicks": 360,
          "midi": 62,
          "name": "D4",
          "ticks": 411840,
          "time": 343.20000000000005,
          "velocity": 0.6771653543307087
        },
        {
          "duration": 0.09666666666669244,
          "durationTicks": 116,
          "midi": 60,
          "name": "C4",
          "ticks": 412200,
          "time": 343.5,
          "velocity": 0.6771653543307087
        },
        {
          "duration": 0.30000000000001137,
          "durationTicks": 360,
          "midi": 65,
          "name": "F4",
          "ticks": 412320,
          "time": 343.6,
          "velocity": 0.6771653543307087
        },
        {
          "duration": 0.09666666666663559,
          "durationTicks": 116,
          "midi": 64,
          "name": "E4",
          "ticks": 412680,
          "time": 343.90000000000003,
          "velocity": 0.6771653543307087
        },
        {
          "duration": 0.6000000000000227,
          "durationTicks": 720,
          "midi": 62,
          "name": "D4",
          "ticks": 412800,
          "time": 344,
          "velocity": 0.6771653543307087
        },
        {
          "duration": 0.19666666666665833,
          "durationTicks": 236,
          "midi": 61,
          "name": "C#4",
          "ticks": 413520,
          "time": 344.6,
          "velocity": 0.6771653543307087
        },
        {
          "duration": 0.30000000000001137,
          "durationTicks": 360,
          "midi": 64,
          "name": "E4",
          "ticks": 413760,
          "time": 344.8,
          "velocity": 0.6771653543307087
        },
        {
          "duration": 0.09666666666669244,
          "durationTicks": 116,
          "midi": 62,
          "name": "D4",
          "ticks": 414120,
          "time": 345.1,
          "velocity": 0.6771653543307087
        },
        {
          "duration": 0.2999999999999545,
          "durationTicks": 360,
          "midi": 67,
          "name": "G4",
          "ticks": 414240,
          "time": 345.20000000000005,
          "velocity": 0.6771653543307087
        },
        {
          "duration": 0.09666666666669244,
          "durationTicks": 116,
          "midi": 65,
          "name": "F4",
          "ticks": 414600,
          "time": 345.5,
          "velocity": 0.6771653543307087
        },
        {
          "duration": 0.33333333333337123,
          "durationTicks": 400,
          "midi": 64,
          "name": "E4",
          "ticks": 414720,
          "time": 345.6,
          "velocity": 0.6771653543307087
        },
        {
          "duration": 0.33333333333337123,
          "durationTicks": 400,
          "midi": 65,
          "name": "F4",
          "ticks": 415200,
          "time": 346,
          "velocity": 0.6771653543307087
        },
        {
          "duration": 0.3333333333333144,
          "durationTicks": 400,
          "midi": 64,
          "name": "E4",
          "ticks": 415680,
          "time": 346.40000000000003,
          "velocity": 0.6771653543307087
        },
        {
          "duration": 0.33333333333337123,
          "durationTicks": 400,
          "midi": 62,
          "name": "D4",
          "ticks": 416160,
          "time": 346.8,
          "velocity": 0.6771653543307087
        },
        {
          "duration": 0.3333333333333144,
          "durationTicks": 400,
          "midi": 60,
          "name": "C4",
          "ticks": 416640,
          "time": 347.20000000000005,
          "velocity": 0.6771653543307087
        },
        {
          "duration": 0.33333333333337123,
          "durationTicks": 400,
          "midi": 63,
          "name": "D#4",
          "ticks": 417120,
          "time": 347.6,
          "velocity": 0.6771653543307087
        },
        {
          "duration": 0.33333333333337123,
          "durationTicks": 400,
          "midi": 62,
          "name": "D4",
          "ticks": 417600,
          "time": 348,
          "velocity": 0.6771653543307087
        },
        {
          "duration": 0.3333333333333144,
          "durationTicks": 400,
          "midi": 63,
          "name": "D#4",
          "ticks": 418080,
          "time": 348.40000000000003,
          "velocity": 0.6771653543307087
        },
        {
          "duration": 0.33333333333337123,
          "durationTicks": 400,
          "midi": 62,
          "name": "D4",
          "ticks": 418560,
          "time": 348.8,
          "velocity": 0.6771653543307087
        },
        {
          "duration": 0.19999999999998863,
          "durationTicks": 240,
          "midi": 62,
          "name": "D4",
          "ticks": 423120,
          "time": 352.6,
          "velocity": 0.4015748031496063
        },
        {
          "duration": 0.33333333333337123,
          "durationTicks": 400,
          "midi": 71,
          "name": "B4",
          "ticks": 423360,
          "time": 352.8,
          "velocity": 0.4015748031496063
        },
        {
          "duration": 0.06666666666660603,
          "durationTicks": 80,
          "midi": 71,
          "name": "B4",
          "ticks": 423840,
          "time": 353.20000000000005,
          "velocity": 0.4015748031496063
        },
        {
          "duration": 0.06666666666666288,
          "durationTicks": 80,
          "midi": 71,
          "name": "B4",
          "ticks": 424080,
          "time": 353.40000000000003,
          "velocity": 0.4015748031496063
        },
        {
          "duration": 0.19999999999998863,
          "durationTicks": 240,
          "midi": 71,
          "name": "B4",
          "ticks": 424320,
          "time": 353.6,
          "velocity": 0.4015748031496063
        },
        {
          "duration": 0.19666666666665833,
          "durationTicks": 236,
          "midi": 69,
          "name": "A4",
          "ticks": 424560,
          "time": 353.8,
          "velocity": 0.4015748031496063
        },
        {
          "duration": 0.06666666666666288,
          "durationTicks": 80,
          "midi": 69,
          "name": "A4",
          "ticks": 424800,
          "time": 354,
          "velocity": 0.4015748031496063
        },
        {
          "duration": 0.06666666666660603,
          "durationTicks": 80,
          "midi": 69,
          "name": "A4",
          "ticks": 425040,
          "time": 354.20000000000005,
          "velocity": 0.4015748031496063
        },
        {
          "duration": 0.05000000000001137,
          "durationTicks": 60,
          "midi": 71,
          "name": "B4",
          "ticks": 425280,
          "time": 354.40000000000003,
          "velocity": 0.4015748031496063
        },
        {
          "duration": 0.0999999999999659,
          "durationTicks": 120,
          "midi": 69,
          "name": "A4",
          "ticks": 425340,
          "time": 354.45000000000005,
          "velocity": 0.4015748031496063
        },
        {
          "duration": 0.13333333333332575,
          "durationTicks": 160,
          "midi": 67,
          "name": "G4",
          "ticks": 425520,
          "time": 354.6,
          "velocity": 0.4015748031496063
        },
        {
          "duration": 0.1333333333333826,
          "durationTicks": 160,
          "midi": 69,
          "name": "A4",
          "ticks": 425760,
          "time": 354.8,
          "velocity": 0.4015748031496063
        },
        {
          "duration": 0.1333333333333826,
          "durationTicks": 160,
          "midi": 71,
          "name": "B4",
          "ticks": 426000,
          "time": 355,
          "velocity": 0.4015748031496063
        },
        {
          "duration": 0.39999999999997726,
          "durationTicks": 480,
          "midi": 67,
          "name": "G4",
          "ticks": 426240,
          "time": 355.20000000000005,
          "velocity": 0.4015748031496063
        },
        {
          "duration": 0.19666666666665833,
          "durationTicks": 236,
          "midi": 62,
          "name": "D4",
          "ticks": 426720,
          "time": 355.6,
          "velocity": 0.4015748031496063
        },
        {
          "duration": 0.06666666666666288,
          "durationTicks": 80,
          "midi": 62,
          "name": "D4",
          "ticks": 426960,
          "time": 355.8,
          "velocity": 0.4015748031496063
        },
        {
          "duration": 0.20000000000004547,
          "durationTicks": 240,
          "midi": 62,
          "name": "D4",
          "ticks": 427200,
          "time": 356,
          "velocity": 0.4015748031496063
        },
        {
          "duration": 0.19666666666665833,
          "durationTicks": 236,
          "midi": 71,
          "name": "B4",
          "ticks": 427440,
          "time": 356.20000000000005,
          "velocity": 0.4015748031496063
        },
        {
          "duration": 0.06666666666666288,
          "durationTicks": 80,
          "midi": 71,
          "name": "B4",
          "ticks": 427680,
          "time": 356.40000000000003,
          "velocity": 0.4015748031496063
        },
        {
          "duration": 0.06666666666666288,
          "durationTicks": 80,
          "midi": 71,
          "name": "B4",
          "ticks": 427920,
          "time": 356.6,
          "velocity": 0.4015748031496063
        },
        {
          "duration": 0.19999999999998863,
          "durationTicks": 240,
          "midi": 71,
          "name": "B4",
          "ticks": 428160,
          "time": 356.8,
          "velocity": 0.4015748031496063
        },
        {
          "duration": 0.19666666666671517,
          "durationTicks": 236,
          "midi": 69,
          "name": "A4",
          "ticks": 428400,
          "time": 357,
          "velocity": 0.4015748031496063
        },
        {
          "duration": 0.06666666666660603,
          "durationTicks": 80,
          "midi": 69,
          "name": "A4",
          "ticks": 428640,
          "time": 357.20000000000005,
          "velocity": 0.4015748031496063
        },
        {
          "duration": 0.06666666666666288,
          "durationTicks": 80,
          "midi": 69,
          "name": "A4",
          "ticks": 428880,
          "time": 357.40000000000003,
          "velocity": 0.4015748031496063
        },
        {
          "duration": 0.05000000000001137,
          "durationTicks": 60,
          "midi": 71,
          "name": "B4",
          "ticks": 429120,
          "time": 357.6,
          "velocity": 0.4015748031496063
        },
        {
          "duration": 0.0999999999999659,
          "durationTicks": 120,
          "midi": 69,
          "name": "A4",
          "ticks": 429180,
          "time": 357.65000000000003,
          "velocity": 0.4015748031496063
        },
        {
          "duration": 0.1333333333333826,
          "durationTicks": 160,
          "midi": 67,
          "name": "G4",
          "ticks": 429360,
          "time": 357.8,
          "velocity": 0.4015748031496063
        },
        {
          "duration": 0.1333333333333826,
          "durationTicks": 160,
          "midi": 69,
          "name": "A4",
          "ticks": 429600,
          "time": 358,
          "velocity": 0.4015748031496063
        },
        {
          "duration": 0.13333333333332575,
          "durationTicks": 160,
          "midi": 71,
          "name": "B4",
          "ticks": 429840,
          "time": 358.20000000000005,
          "velocity": 0.4015748031496063
        },
        {
          "duration": 0.39999999999997726,
          "durationTicks": 480,
          "midi": 67,
          "name": "G4",
          "ticks": 430080,
          "time": 358.40000000000003,
          "velocity": 0.4015748031496063
        },
        {
          "duration": 0.19666666666665833,
          "durationTicks": 236,
          "midi": 74,
          "name": "D5",
          "ticks": 430560,
          "time": 358.8,
          "velocity": 0.4015748031496063
        },
        {
          "duration": 0.06666666666666288,
          "durationTicks": 80,
          "midi": 62,
          "name": "D4",
          "ticks": 430800,
          "time": 359,
          "velocity": 0.4015748031496063
        },
        {
          "duration": 0.19999999999998863,
          "durationTicks": 240,
          "midi": 62,
          "name": "D4",
          "ticks": 431040,
          "time": 359.20000000000005,
          "velocity": 0.4015748031496063
        },
        {
          "duration": 0.19666666666665833,
          "durationTicks": 236,
          "midi": 71,
          "name": "B4",
          "ticks": 431280,
          "time": 359.40000000000003,
          "velocity": 0.4015748031496063
        },
        {
          "duration": 0.06666666666666288,
          "durationTicks": 80,
          "midi": 71,
          "name": "B4",
          "ticks": 431520,
          "time": 359.6,
          "velocity": 0.4015748031496063
        },
        {
          "duration": 0.06666666666666288,
          "durationTicks": 80,
          "midi": 71,
          "name": "B4",
          "ticks": 431760,
          "time": 359.8,
          "velocity": 0.4015748031496063
        },
        {
          "duration": 0.20000000000004547,
          "durationTicks": 240,
          "midi": 71,
          "name": "B4",
          "ticks": 432000,
          "time": 360,
          "velocity": 0.4015748031496063
        },
        {
          "duration": 0.19666666666665833,
          "durationTicks": 236,
          "midi": 69,
          "name": "A4",
          "ticks": 432240,
          "time": 360.20000000000005,
          "velocity": 0.4015748031496063
        },
        {
          "duration": 0.06666666666666288,
          "durationTicks": 80,
          "midi": 69,
          "name": "A4",
          "ticks": 432480,
          "time": 360.40000000000003,
          "velocity": 0.4015748031496063
        },
        {
          "duration": 0.06666666666666288,
          "durationTicks": 80,
          "midi": 69,
          "name": "A4",
          "ticks": 432720,
          "time": 360.6,
          "velocity": 0.4015748031496063
        },
        {
          "duration": 0.05000000000001137,
          "durationTicks": 60,
          "midi": 71,
          "name": "B4",
          "ticks": 432960,
          "time": 360.8,
          "velocity": 0.4015748031496063
        },
        {
          "duration": 0.10000000000002274,
          "durationTicks": 120,
          "midi": 69,
          "name": "A4",
          "ticks": 433020,
          "time": 360.85,
          "velocity": 0.4015748031496063
        },
        {
          "duration": 0.06666666666666288,
          "durationTicks": 80,
          "midi": 67,
          "name": "G4",
          "ticks": 433200,
          "time": 361,
          "velocity": 0.4015748031496063
        },
        {
          "duration": 0.06666666666660603,
          "durationTicks": 80,
          "midi": 69,
          "name": "A4",
          "ticks": 433440,
          "time": 361.20000000000005,
          "velocity": 0.4015748031496063
        },
        {
          "duration": 0.06666666666666288,
          "durationTicks": 80,
          "midi": 71,
          "name": "B4",
          "ticks": 433680,
          "time": 361.40000000000003,
          "velocity": 0.4015748031496063
        },
        {
          "duration": 0.6000000000000227,
          "durationTicks": 720,
          "midi": 67,
          "name": "G4",
          "ticks": 433920,
          "time": 361.6,
          "velocity": 0.4015748031496063
        },
        {
          "duration": 0.19666666666665833,
          "durationTicks": 236,
          "midi": 71,
          "name": "B4",
          "ticks": 434640,
          "time": 362.20000000000005,
          "velocity": 0.4015748031496063
        },
        {
          "duration": 0.5999999999999659,
          "durationTicks": 720,
          "midi": 64,
          "name": "E4",
          "ticks": 434880,
          "time": 362.40000000000003,
          "velocity": 0.4015748031496063
        },
        {
          "duration": 0.19666666666671517,
          "durationTicks": 236,
          "midi": 72,
          "name": "C5",
          "ticks": 435600,
          "time": 363,
          "velocity": 0.4015748031496063
        },
        {
          "duration": 0.19999999999998863,
          "durationTicks": 240,
          "midi": 69,
          "name": "A4",
          "ticks": 435840,
          "time": 363.20000000000005,
          "velocity": 0.4015748031496063
        },
        {
          "duration": 0.19666666666665833,
          "durationTicks": 236,
          "midi": 76,
          "name": "E5",
          "ticks": 436080,
          "time": 363.40000000000003,
          "velocity": 0.4015748031496063
        },
        {
          "duration": 0.06666666666666288,
          "durationTicks": 80,
          "midi": 72,
          "name": "C5",
          "ticks": 436320,
          "time": 363.6,
          "velocity": 0.4015748031496063
        },
        {
          "duration": 0.06666666666666288,
          "durationTicks": 80,
          "midi": 69,
          "name": "A4",
          "ticks": 436560,
          "time": 363.8,
          "velocity": 0.4015748031496063
        },
        {
          "duration": 0.06666666666666288,
          "durationTicks": 80,
          "midi": 66,
          "name": "F#4",
          "ticks": 436800,
          "time": 364,
          "velocity": 0.4015748031496063
        },
        {
          "duration": 0.06666666666660603,
          "durationTicks": 80,
          "midi": 67,
          "name": "G4",
          "ticks": 437040,
          "time": 364.20000000000005,
          "velocity": 0.4015748031496063
        },
        {
          "duration": 0.06666666666666288,
          "durationTicks": 80,
          "midi": 69,
          "name": "A4",
          "ticks": 437280,
          "time": 364.40000000000003,
          "velocity": 0.4015748031496063
        },
        {
          "duration": 0.06666666666666288,
          "durationTicks": 80,
          "midi": 71,
          "name": "B4",
          "ticks": 437520,
          "time": 364.6,
          "velocity": 0.4015748031496063
        },
        {
          "duration": 0.6000000000000227,
          "durationTicks": 720,
          "midi": 67,
          "name": "G4",
          "ticks": 437760,
          "time": 364.8,
          "velocity": 0.4015748031496063
        },
        {
          "duration": 0.19666666666665833,
          "durationTicks": 236,
          "midi": 71,
          "name": "B4",
          "ticks": 438480,
          "time": 365.40000000000003,
          "velocity": 0.4015748031496063
        },
        {
          "duration": 0.6000000000000227,
          "durationTicks": 720,
          "midi": 64,
          "name": "E4",
          "ticks": 438720,
          "time": 365.6,
          "velocity": 0.4015748031496063
        },
        {
          "duration": 0.19666666666665833,
          "durationTicks": 236,
          "midi": 72,
          "name": "C5",
          "ticks": 439440,
          "time": 366.20000000000005,
          "velocity": 0.4015748031496063
        },
        {
          "duration": 0.19999999999998863,
          "durationTicks": 240,
          "midi": 69,
          "name": "A4",
          "ticks": 439680,
          "time": 366.40000000000003,
          "velocity": 0.4015748031496063
        },
        {
          "duration": 0.19666666666665833,
          "durationTicks": 236,
          "midi": 76,
          "name": "E5",
          "ticks": 439920,
          "time": 366.6,
          "velocity": 0.4015748031496063
        },
        {
          "duration": 0.06666666666666288,
          "durationTicks": 80,
          "midi": 72,
          "name": "C5",
          "ticks": 440160,
          "time": 366.8,
          "velocity": 0.4015748031496063
        },
        {
          "duration": 0.06666666666666288,
          "durationTicks": 80,
          "midi": 69,
          "name": "A4",
          "ticks": 440400,
          "time": 367,
          "velocity": 0.4015748031496063
        },
        {
          "duration": 0.06666666666660603,
          "durationTicks": 80,
          "midi": 66,
          "name": "F#4",
          "ticks": 440640,
          "time": 367.20000000000005,
          "velocity": 0.4015748031496063
        },
        {
          "duration": 0.06666666666666288,
          "durationTicks": 80,
          "midi": 67,
          "name": "G4",
          "ticks": 440880,
          "time": 367.40000000000003,
          "velocity": 0.4015748031496063
        },
        {
          "duration": 0.06666666666666288,
          "durationTicks": 80,
          "midi": 69,
          "name": "A4",
          "ticks": 441120,
          "time": 367.6,
          "velocity": 0.4015748031496063
        },
        {
          "duration": 0.06666666666666288,
          "durationTicks": 80,
          "midi": 71,
          "name": "B4",
          "ticks": 441360,
          "time": 367.8,
          "velocity": 0.4015748031496063
        },
        {
          "duration": 0.19666666666671517,
          "durationTicks": 236,
          "midi": 67,
          "name": "G4",
          "ticks": 441600,
          "time": 368,
          "velocity": 0.4015748031496063
        },
        {
          "duration": 0.09666666666663559,
          "durationTicks": 116,
          "midi": 74,
          "name": "D5",
          "ticks": 442080,
          "time": 368.40000000000003,
          "velocity": 0.8267716535433071
        },
        {
          "duration": 0.09666666666669244,
          "durationTicks": 116,
          "midi": 74,
          "name": "D5",
          "ticks": 442200,
          "time": 368.5,
          "velocity": 0.8267716535433071
        },
        {
          "duration": 0.09666666666669244,
          "durationTicks": 116,
          "midi": 74,
          "name": "D5",
          "ticks": 442320,
          "time": 368.6,
          "velocity": 0.8267716535433071
        },
        {
          "duration": 0.09666666666663559,
          "durationTicks": 116,
          "midi": 74,
          "name": "D5",
          "ticks": 442440,
          "time": 368.70000000000005,
          "velocity": 0.8267716535433071
        },
        {
          "duration": 0.6999999999999886,
          "durationTicks": 840,
          "midi": 74,
          "name": "D5",
          "ticks": 442560,
          "time": 368.8,
          "velocity": 0.8267716535433071
        },
        {
          "duration": 0.19666666666665833,
          "durationTicks": 236,
          "midi": 71,
          "name": "B4",
          "ticks": 443520,
          "time": 369.6,
          "velocity": 0.8267716535433071
        },
        {
          "duration": 0.09666666666669244,
          "durationTicks": 116,
          "midi": 71,
          "name": "B4",
          "ticks": 444000,
          "time": 370,
          "velocity": 0.8267716535433071
        },
        {
          "duration": 0.09666666666669244,
          "durationTicks": 116,
          "midi": 71,
          "name": "B4",
          "ticks": 444120,
          "time": 370.1,
          "velocity": 0.8267716535433071
        },
        {
          "duration": 0.09666666666663559,
          "durationTicks": 116,
          "midi": 71,
          "name": "B4",
          "ticks": 444240,
          "time": 370.20000000000005,
          "velocity": 0.8267716535433071
        },
        {
          "duration": 0.09666666666669244,
          "durationTicks": 116,
          "midi": 71,
          "name": "B4",
          "ticks": 444360,
          "time": 370.3,
          "velocity": 0.8267716535433071
        },
        {
          "duration": 0.6999999999999886,
          "durationTicks": 840,
          "midi": 71,
          "name": "B4",
          "ticks": 444480,
          "time": 370.40000000000003,
          "velocity": 0.8267716535433071
        },
        {
          "duration": 0.19666666666665833,
          "durationTicks": 236,
          "midi": 74,
          "name": "D5",
          "ticks": 445440,
          "time": 371.20000000000005,
          "velocity": 0.8267716535433071
        },
        {
          "duration": 0.05000000000001137,
          "durationTicks": 60,
          "midi": 72,
          "name": "C5",
          "ticks": 445920,
          "time": 371.6,
          "velocity": 0.8267716535433071
        },
        {
          "duration": 0.05000000000001137,
          "durationTicks": 60,
          "midi": 71,
          "name": "B4",
          "ticks": 445980,
          "time": 371.65000000000003,
          "velocity": 0.8267716535433071
        },
        {
          "duration": 0.049999999999954525,
          "durationTicks": 60,
          "midi": 72,
          "name": "C5",
          "ticks": 446040,
          "time": 371.70000000000005,
          "velocity": 0.8267716535433071
        },
        {
          "duration": 0.05000000000001137,
          "durationTicks": 60,
          "midi": 71,
          "name": "B4",
          "ticks": 446100,
          "time": 371.75,
          "velocity": 0.8267716535433071
        },
        {
          "duration": 0.10000000000002274,
          "durationTicks": 120,
          "midi": 69,
          "name": "A4",
          "ticks": 446160,
          "time": 371.8,
          "velocity": 0.8267716535433071
        },
        {
          "duration": 0.0999999999999659,
          "durationTicks": 120,
          "midi": 71,
          "name": "B4",
          "ticks": 446280,
          "time": 371.90000000000003,
          "velocity": 0.8267716535433071
        },
        {
          "duration": 0.19666666666671517,
          "durationTicks": 236,
          "midi": 72,
          "name": "C5",
          "ticks": 446400,
          "time": 372,
          "velocity": 0.8267716535433071
        },
        {
          "duration": 0.13333333333332575,
          "durationTicks": 160,
          "midi": 72,
          "name": "C5",
          "ticks": 446640,
          "time": 372.20000000000005,
          "velocity": 0.8267716535433071
        },
        {
          "duration": 0.13333333333332575,
          "durationTicks": 160,
          "midi": 69,
          "name": "A4",
          "ticks": 446880,
          "time": 372.40000000000003,
          "velocity": 0.8267716535433071
        },
        {
          "duration": 0.13333333333332575,
          "durationTicks": 160,
          "midi": 69,
          "name": "A4",
          "ticks": 447120,
          "time": 372.6,
          "velocity": 0.8267716535433071
        },
        {
          "duration": 0.19666666666665833,
          "durationTicks": 236,
          "midi": 71,
          "name": "B4",
          "ticks": 447360,
          "time": 372.8,
          "velocity": 0.8267716535433071
        },
        {
          "duration": 0.09666666666663559,
          "durationTicks": 116,
          "midi": 74,
          "name": "D5",
          "ticks": 447840,
          "time": 373.20000000000005,
          "velocity": 0.8267716535433071
        },
        {
          "duration": 0.09666666666669244,
          "durationTicks": 116,
          "midi": 74,
          "name": "D5",
          "ticks": 447960,
          "time": 373.3,
          "velocity": 0.8267716535433071
        },
        {
          "duration": 0.09666666666663559,
          "durationTicks": 116,
          "midi": 74,
          "name": "D5",
          "ticks": 448080,
          "time": 373.40000000000003,
          "velocity": 0.8267716535433071
        },
        {
          "duration": 0.09666666666669244,
          "durationTicks": 116,
          "midi": 74,
          "name": "D5",
          "ticks": 448200,
          "time": 373.5,
          "velocity": 0.8267716535433071
        },
        {
          "duration": 0.6999999999999886,
          "durationTicks": 840,
          "midi": 74,
          "name": "D5",
          "ticks": 448320,
          "time": 373.6,
          "velocity": 0.8267716535433071
        },
        {
          "duration": 0.19666666666665833,
          "durationTicks": 236,
          "midi": 71,
          "name": "B4",
          "ticks": 449280,
          "time": 374.40000000000003,
          "velocity": 0.8267716535433071
        },
        {
          "duration": 0.09666666666669244,
          "durationTicks": 116,
          "midi": 74,
          "name": "D5",
          "ticks": 449760,
          "time": 374.8,
          "velocity": 0.8267716535433071
        },
        {
          "duration": 0.09666666666663559,
          "durationTicks": 116,
          "midi": 74,
          "name": "D5",
          "ticks": 449880,
          "time": 374.90000000000003,
          "velocity": 0.8267716535433071
        },
        {
          "duration": 0.09666666666669244,
          "durationTicks": 116,
          "midi": 74,
          "name": "D5",
          "ticks": 450000,
          "time": 375,
          "velocity": 0.8267716535433071
        },
        {
          "duration": 0.09666666666669244,
          "durationTicks": 116,
          "midi": 74,
          "name": "D5",
          "ticks": 450120,
          "time": 375.1,
          "velocity": 0.8267716535433071
        },
        {
          "duration": 0.6999999999999886,
          "durationTicks": 840,
          "midi": 74,
          "name": "D5",
          "ticks": 450240,
          "time": 375.20000000000005,
          "velocity": 0.8267716535433071
        },
        {
          "duration": 0.19666666666671517,
          "durationTicks": 236,
          "midi": 74,
          "name": "D5",
          "ticks": 451200,
          "time": 376,
          "velocity": 0.8267716535433071
        },
        {
          "duration": 0.05000000000001137,
          "durationTicks": 60,
          "midi": 72,
          "name": "C5",
          "ticks": 451680,
          "time": 376.40000000000003,
          "velocity": 0.8267716535433071
        },
        {
          "duration": 0.049999999999954525,
          "durationTicks": 60,
          "midi": 71,
          "name": "B4",
          "ticks": 451740,
          "time": 376.45000000000005,
          "velocity": 0.8267716535433071
        },
        {
          "duration": 0.05000000000001137,
          "durationTicks": 60,
          "midi": 72,
          "name": "C5",
          "ticks": 451800,
          "time": 376.5,
          "velocity": 0.8267716535433071
        },
        {
          "duration": 0.05000000000001137,
          "durationTicks": 60,
          "midi": 71,
          "name": "B4",
          "ticks": 451860,
          "time": 376.55,
          "velocity": 0.8267716535433071
        },
        {
          "duration": 0.10000000000002274,
          "durationTicks": 120,
          "midi": 69,
          "name": "A4",
          "ticks": 451920,
          "time": 376.6,
          "velocity": 0.8267716535433071
        },
        {
          "duration": 0.0999999999999659,
          "durationTicks": 120,
          "midi": 71,
          "name": "B4",
          "ticks": 452040,
          "time": 376.70000000000005,
          "velocity": 0.8267716535433071
        },
        {
          "duration": 0.19666666666665833,
          "durationTicks": 236,
          "midi": 72,
          "name": "C5",
          "ticks": 452160,
          "time": 376.8,
          "velocity": 0.8267716535433071
        },
        {
          "duration": 0.1333333333333826,
          "durationTicks": 160,
          "midi": 72,
          "name": "C5",
          "ticks": 452400,
          "time": 377,
          "velocity": 0.8267716535433071
        },
        {
          "duration": 0.13333333333332575,
          "durationTicks": 160,
          "midi": 69,
          "name": "A4",
          "ticks": 452640,
          "time": 377.20000000000005,
          "velocity": 0.8267716535433071
        },
        {
          "duration": 0.13333333333332575,
          "durationTicks": 160,
          "midi": 69,
          "name": "A4",
          "ticks": 452880,
          "time": 377.40000000000003,
          "velocity": 0.8267716535433071
        },
        {
          "duration": 0.33333333333337123,
          "durationTicks": 400,
          "midi": 71,
          "name": "B4",
          "ticks": 453120,
          "time": 377.6,
          "velocity": 0.8267716535433071
        },
        {
          "duration": 0.33333333333337123,
          "durationTicks": 400,
          "midi": 62,
          "name": "D4",
          "ticks": 453600,
          "time": 378,
          "velocity": 0.8267716535433071
        },
        {
          "duration": 0.33333333333337123,
          "durationTicks": 400,
          "midi": 71,
          "name": "B4",
          "ticks": 453600,
          "time": 378,
          "velocity": 0.8267716535433071
        },
        {
          "duration": 0.33333333333337123,
          "durationTicks": 400,
          "midi": 79,
          "name": "G5",
          "ticks": 453600,
          "time": 378,
          "velocity": 0.8267716535433071
        },
        {
          "duration": 0.33333333333337123,
          "durationTicks": 400,
          "midi": 62,
          "name": "D4",
          "ticks": 454560,
          "time": 378.8,
          "velocity": 0.8267716535433071
        },
        {
          "duration": 0.33333333333337123,
          "durationTicks": 400,
          "midi": 69,
          "name": "A4",
          "ticks": 454560,
          "time": 378.8,
          "velocity": 0.8267716535433071
        },
        {
          "duration": 0.33333333333337123,
          "durationTicks": 400,
          "midi": 78,
          "name": "F#5",
          "ticks": 454560,
          "time": 378.8,
          "velocity": 0.8267716535433071
        },
        {
          "duration": 0.33333333333337123,
          "durationTicks": 400,
          "midi": 62,
          "name": "D4",
          "ticks": 455520,
          "time": 379.6,
          "velocity": 0.8267716535433071
        },
        {
          "duration": 0.33333333333337123,
          "durationTicks": 400,
          "midi": 71,
          "name": "B4",
          "ticks": 455520,
          "time": 379.6,
          "velocity": 0.8267716535433071
        },
        {
          "duration": 0.33333333333337123,
          "durationTicks": 400,
          "midi": 79,
          "name": "G5",
          "ticks": 455520,
          "time": 379.6,
          "velocity": 0.8267716535433071
        },
        {
          "duration": 0.3333333333333144,
          "durationTicks": 400,
          "midi": 62,
          "name": "D4",
          "ticks": 456480,
          "time": 380.40000000000003,
          "velocity": 0.8267716535433071
        },
        {
          "duration": 0.3333333333333144,
          "durationTicks": 400,
          "midi": 69,
          "name": "A4",
          "ticks": 456480,
          "time": 380.40000000000003,
          "velocity": 0.8267716535433071
        },
        {
          "duration": 0.3333333333333144,
          "durationTicks": 400,
          "midi": 78,
          "name": "F#5",
          "ticks": 456480,
          "time": 380.40000000000003,
          "velocity": 0.8267716535433071
        },
        {
          "duration": 0.3333333333333144,
          "durationTicks": 400,
          "midi": 62,
          "name": "D4",
          "ticks": 457440,
          "time": 381.20000000000005,
          "velocity": 0.8267716535433071
        },
        {
          "duration": 0.3333333333333144,
          "durationTicks": 400,
          "midi": 71,
          "name": "B4",
          "ticks": 457440,
          "time": 381.20000000000005,
          "velocity": 0.8267716535433071
        },
        {
          "duration": 0.3333333333333144,
          "durationTicks": 400,
          "midi": 79,
          "name": "G5",
          "ticks": 457440,
          "time": 381.20000000000005,
          "velocity": 0.8267716535433071
        },
        {
          "duration": 0.33333333333337123,
          "durationTicks": 400,
          "midi": 62,
          "name": "D4",
          "ticks": 458400,
          "time": 382,
          "velocity": 0.8267716535433071
        },
        {
          "duration": 0.33333333333337123,
          "durationTicks": 400,
          "midi": 69,
          "name": "A4",
          "ticks": 458400,
          "time": 382,
          "velocity": 0.8267716535433071
        },
        {
          "duration": 0.33333333333337123,
          "durationTicks": 400,
          "midi": 78,
          "name": "F#5",
          "ticks": 458400,
          "time": 382,
          "velocity": 0.8267716535433071
        },
        {
          "duration": 0.3333333333333144,
          "durationTicks": 400,
          "midi": 62,
          "name": "D4",
          "ticks": 458880,
          "time": 382.40000000000003,
          "velocity": 0.8267716535433071
        },
        {
          "duration": 0.3333333333333144,
          "durationTicks": 400,
          "midi": 71,
          "name": "B4",
          "ticks": 458880,
          "time": 382.40000000000003,
          "velocity": 0.8267716535433071
        },
        {
          "duration": 0.3333333333333144,
          "durationTicks": 400,
          "midi": 79,
          "name": "G5",
          "ticks": 458880,
          "time": 382.40000000000003,
          "velocity": 0.8267716535433071
        },
        {
          "duration": 0.33333333333337123,
          "durationTicks": 400,
          "midi": 62,
          "name": "D4",
          "ticks": 459360,
          "time": 382.8,
          "velocity": 0.8267716535433071
        },
        {
          "duration": 0.33333333333337123,
          "durationTicks": 400,
          "midi": 74,
          "name": "D5",
          "ticks": 459360,
          "time": 382.8,
          "velocity": 0.8267716535433071
        },
        {
          "duration": 0.33333333333337123,
          "durationTicks": 400,
          "midi": 83,
          "name": "B5",
          "ticks": 459360,
          "time": 382.8,
          "velocity": 0.8267716535433071
        },
        {
          "duration": 0.3333333333333144,
          "durationTicks": 400,
          "midi": 62,
          "name": "D4",
          "ticks": 459840,
          "time": 383.20000000000005,
          "velocity": 0.8267716535433071
        },
        {
          "duration": 0.3333333333333144,
          "durationTicks": 400,
          "midi": 71,
          "name": "B4",
          "ticks": 459840,
          "time": 383.20000000000005,
          "velocity": 0.8267716535433071
        },
        {
          "duration": 0.3333333333333144,
          "durationTicks": 400,
          "midi": 79,
          "name": "G5",
          "ticks": 459840,
          "time": 383.20000000000005,
          "velocity": 0.8267716535433071
        },
        {
          "duration": 0.19999999999998863,
          "durationTicks": 240,
          "midi": 58,
          "name": "A#3",
          "ticks": 465360,
          "time": 387.8,
          "velocity": 0.4015748031496063
        },
        {
          "duration": 0.33333333333337123,
          "durationTicks": 400,
          "midi": 67,
          "name": "G4",
          "ticks": 465600,
          "time": 388,
          "velocity": 0.4015748031496063
        },
        {
          "duration": 0.06666666666666288,
          "durationTicks": 80,
          "midi": 67,
          "name": "G4",
          "ticks": 466080,
          "time": 388.40000000000003,
          "velocity": 0.4015748031496063
        },
        {
          "duration": 0.06666666666666288,
          "durationTicks": 80,
          "midi": 67,
          "name": "G4",
          "ticks": 466320,
          "time": 388.6,
          "velocity": 0.4015748031496063
        },
        {
          "duration": 0.19999999999998863,
          "durationTicks": 240,
          "midi": 67,
          "name": "G4",
          "ticks": 466560,
          "time": 388.8,
          "velocity": 0.4015748031496063
        },
        {
          "duration": 0.19666666666671517,
          "durationTicks": 236,
          "midi": 65,
          "name": "F4",
          "ticks": 466800,
          "time": 389,
          "velocity": 0.4015748031496063
        },
        {
          "duration": 0.06666666666660603,
          "durationTicks": 80,
          "midi": 65,
          "name": "F4",
          "ticks": 467040,
          "time": 389.20000000000005,
          "velocity": 0.4015748031496063
        },
        {
          "duration": 0.06666666666666288,
          "durationTicks": 80,
          "midi": 65,
          "name": "F4",
          "ticks": 467280,
          "time": 389.40000000000003,
          "velocity": 0.4015748031496063
        },
        {
          "duration": 0.04666666666668107,
          "durationTicks": 56,
          "midi": 67,
          "name": "G4",
          "ticks": 467520,
          "time": 389.6,
          "velocity": 0.4015748031496063
        },
        {
          "duration": 0.14666666666664696,
          "durationTicks": 176,
          "midi": 65,
          "name": "F4",
          "ticks": 467580,
          "time": 389.65000000000003,
          "velocity": 0.4015748031496063
        },
        {
          "duration": 0.06666666666666288,
          "durationTicks": 80,
          "midi": 63,
          "name": "D#4",
          "ticks": 467760,
          "time": 389.8,
          "velocity": 0.4015748031496063
        },
        {
          "duration": 0.06666666666666288,
          "durationTicks": 80,
          "midi": 65,
          "name": "F4",
          "ticks": 468000,
          "time": 390,
          "velocity": 0.4015748031496063
        },
        {
          "duration": 0.06666666666660603,
          "durationTicks": 80,
          "midi": 67,
          "name": "G4",
          "ticks": 468240,
          "time": 390.20000000000005,
          "velocity": 0.4015748031496063
        },
        {
          "duration": 0.39999999999997726,
          "durationTicks": 480,
          "midi": 63,
          "name": "D#4",
          "ticks": 468480,
          "time": 390.40000000000003,
          "velocity": 0.4015748031496063
        },
        {
          "duration": 0.19666666666665833,
          "durationTicks": 236,
          "midi": 58,
          "name": "A#3",
          "ticks": 468960,
          "time": 390.8,
          "velocity": 0.4015748031496063
        },
        {
          "duration": 0.06666666666666288,
          "durationTicks": 80,
          "midi": 58,
          "name": "A#3",
          "ticks": 469200,
          "time": 391,
          "velocity": 0.4015748031496063
        },
        {
          "duration": 0.19999999999998863,
          "durationTicks": 240,
          "midi": 58,
          "name": "A#3",
          "ticks": 469440,
          "time": 391.20000000000005,
          "velocity": 0.4015748031496063
        },
        {
          "duration": 0.19666666666665833,
          "durationTicks": 236,
          "midi": 67,
          "name": "G4",
          "ticks": 469680,
          "time": 391.40000000000003,
          "velocity": 0.4015748031496063
        },
        {
          "duration": 0.06666666666666288,
          "durationTicks": 80,
          "midi": 67,
          "name": "G4",
          "ticks": 469920,
          "time": 391.6,
          "velocity": 0.4015748031496063
        },
        {
          "duration": 0.06666666666666288,
          "durationTicks": 80,
          "midi": 67,
          "name": "G4",
          "ticks": 470160,
          "time": 391.8,
          "velocity": 0.4015748031496063
        },
        {
          "duration": 0.20000000000004547,
          "durationTicks": 240,
          "midi": 67,
          "name": "G4",
          "ticks": 470400,
          "time": 392,
          "velocity": 0.4015748031496063
        },
        {
          "duration": 0.19666666666665833,
          "durationTicks": 236,
          "midi": 65,
          "name": "F4",
          "ticks": 470640,
          "time": 392.20000000000005,
          "velocity": 0.4015748031496063
        },
        {
          "duration": 0.06666666666666288,
          "durationTicks": 80,
          "midi": 65,
          "name": "F4",
          "ticks": 470880,
          "time": 392.40000000000003,
          "velocity": 0.4015748031496063
        },
        {
          "duration": 0.06666666666666288,
          "durationTicks": 80,
          "midi": 65,
          "name": "F4",
          "ticks": 471120,
          "time": 392.6,
          "velocity": 0.4015748031496063
        },
        {
          "duration": 0.04666666666668107,
          "durationTicks": 56,
          "midi": 67,
          "name": "G4",
          "ticks": 471360,
          "time": 392.8,
          "velocity": 0.4015748031496063
        },
        {
          "duration": 0.14666666666664696,
          "durationTicks": 176,
          "midi": 65,
          "name": "F4",
          "ticks": 471420,
          "time": 392.85,
          "velocity": 0.4015748031496063
        },
        {
          "duration": 0.06666666666666288,
          "durationTicks": 80,
          "midi": 63,
          "name": "D#4",
          "ticks": 471600,
          "time": 393,
          "velocity": 0.4015748031496063
        },
        {
          "duration": 0.06666666666660603,
          "durationTicks": 80,
          "midi": 65,
          "name": "F4",
          "ticks": 471840,
          "time": 393.20000000000005,
          "velocity": 0.4015748031496063
        },
        {
          "duration": 0.06666666666666288,
          "durationTicks": 80,
          "midi": 67,
          "name": "G4",
          "ticks": 472080,
          "time": 393.40000000000003,
          "velocity": 0.4015748031496063
        },
        {
          "duration": 0.39999999999997726,
          "durationTicks": 480,
          "midi": 63,
          "name": "D#4",
          "ticks": 472320,
          "time": 393.6,
          "velocity": 0.4015748031496063
        },
        {
          "duration": 0.19666666666671517,
          "durationTicks": 236,
          "midi": 70,
          "name": "A#4",
          "ticks": 472800,
          "time": 394,
          "velocity": 0.4015748031496063
        },
        {
          "duration": 0.06666666666660603,
          "durationTicks": 80,
          "midi": 58,
          "name": "A#3",
          "ticks": 473040,
          "time": 394.20000000000005,
          "velocity": 0.4015748031496063
        },
        {
          "duration": 0.19999999999998863,
          "durationTicks": 240,
          "midi": 58,
          "name": "A#3",
          "ticks": 473280,
          "time": 394.40000000000003,
          "velocity": 0.4015748031496063
        },
        {
          "duration": 0.19666666666665833,
          "durationTicks": 236,
          "midi": 67,
          "name": "G4",
          "ticks": 473520,
          "time": 394.6,
          "velocity": 0.4015748031496063
        },
        {
          "duration": 0.06666666666666288,
          "durationTicks": 80,
          "midi": 67,
          "name": "G4",
          "ticks": 473760,
          "time": 394.8,
          "velocity": 0.4015748031496063
        },
        {
          "duration": 0.06666666666666288,
          "durationTicks": 80,
          "midi": 67,
          "name": "G4",
          "ticks": 474000,
          "time": 395,
          "velocity": 0.4015748031496063
        },
        {
          "duration": 0.19999999999998863,
          "durationTicks": 240,
          "midi": 67,
          "name": "G4",
          "ticks": 474240,
          "time": 395.20000000000005,
          "velocity": 0.4015748031496063
        },
        {
          "duration": 0.19666666666665833,
          "durationTicks": 236,
          "midi": 65,
          "name": "F4",
          "ticks": 474480,
          "time": 395.40000000000003,
          "velocity": 0.4015748031496063
        },
        {
          "duration": 0.06666666666666288,
          "durationTicks": 80,
          "midi": 65,
          "name": "F4",
          "ticks": 474720,
          "time": 395.6,
          "velocity": 0.4015748031496063
        },
        {
          "duration": 0.06666666666666288,
          "durationTicks": 80,
          "midi": 65,
          "name": "F4",
          "ticks": 474960,
          "time": 395.8,
          "velocity": 0.4015748031496063
        },
        {
          "duration": 0.04666666666668107,
          "durationTicks": 56,
          "midi": 67,
          "name": "G4",
          "ticks": 475200,
          "time": 396,
          "velocity": 0.4015748031496063
        },
        {
          "duration": 0.1466666666667038,
          "durationTicks": 176,
          "midi": 65,
          "name": "F4",
          "ticks": 475260,
          "time": 396.05,
          "velocity": 0.4015748031496063
        },
        {
          "duration": 0.06666666666660603,
          "durationTicks": 80,
          "midi": 63,
          "name": "D#4",
          "ticks": 475440,
          "time": 396.20000000000005,
          "velocity": 0.4015748031496063
        },
        {
          "duration": 0.06666666666666288,
          "durationTicks": 80,
          "midi": 65,
          "name": "F4",
          "ticks": 475680,
          "time": 396.40000000000003,
          "velocity": 0.4015748031496063
        },
        {
          "duration": 0.06666666666666288,
          "durationTicks": 80,
          "midi": 67,
          "name": "G4",
          "ticks": 475920,
          "time": 396.6,
          "velocity": 0.4015748031496063
        },
        {
          "duration": 0.6000000000000227,
          "durationTicks": 720,
          "midi": 63,
          "name": "D#4",
          "ticks": 476160,
          "time": 396.8,
          "velocity": 0.4015748031496063
        },
        {
          "duration": 0.19666666666665833,
          "durationTicks": 236,
          "midi": 67,
          "name": "G4",
          "ticks": 476880,
          "time": 397.40000000000003,
          "velocity": 0.4015748031496063
        },
        {
          "duration": 0.6000000000000227,
          "durationTicks": 720,
          "midi": 60,
          "name": "C4",
          "ticks": 477120,
          "time": 397.6,
          "velocity": 0.4015748031496063
        },
        {
          "duration": 0.19666666666665833,
          "durationTicks": 236,
          "midi": 68,
          "name": "G#4",
          "ticks": 477840,
          "time": 398.20000000000005,
          "velocity": 0.4015748031496063
        },
        {
          "duration": 0.19999999999998863,
          "durationTicks": 240,
          "midi": 65,
          "name": "F4",
          "ticks": 478080,
          "time": 398.40000000000003,
          "velocity": 0.4015748031496063
        },
        {
          "duration": 0.19666666666665833,
          "durationTicks": 236,
          "midi": 72,
          "name": "C5",
          "ticks": 478320,
          "time": 398.6,
          "velocity": 0.4015748031496063
        },
        {
          "duration": 0.06666666666666288,
          "durationTicks": 80,
          "midi": 68,
          "name": "G#4",
          "ticks": 478560,
          "time": 398.8,
          "velocity": 0.4015748031496063
        },
        {
          "duration": 0.06666666666666288,
          "durationTicks": 80,
          "midi": 65,
          "name": "F4",
          "ticks": 478800,
          "time": 399,
          "velocity": 0.4015748031496063
        },
        {
          "duration": 0.06666666666660603,
          "durationTicks": 80,
          "midi": 62,
          "name": "D4",
          "ticks": 479040,
          "time": 399.20000000000005,
          "velocity": 0.4015748031496063
        },
        {
          "duration": 0.06666666666666288,
          "durationTicks": 80,
          "midi": 63,
          "name": "D#4",
          "ticks": 479280,
          "time": 399.40000000000003,
          "velocity": 0.4015748031496063
        },
        {
          "duration": 0.06666666666666288,
          "durationTicks": 80,
          "midi": 65,
          "name": "F4",
          "ticks": 479520,
          "time": 399.6,
          "velocity": 0.4015748031496063
        },
        {
          "duration": 0.06666666666666288,
          "durationTicks": 80,
          "midi": 67,
          "name": "G4",
          "ticks": 479760,
          "time": 399.8,
          "velocity": 0.4015748031496063
        },
        {
          "duration": 0.33333333333337123,
          "durationTicks": 400,
          "midi": 63,
          "name": "D#4",
          "ticks": 480000,
          "time": 400,
          "velocity": 0.4015748031496063
        },
        {
          "duration": 0.19999999999998863,
          "durationTicks": 240,
          "midi": 75,
          "name": "D#5",
          "ticks": 483840,
          "time": 403.20000000000005,
          "velocity": 0.8267716535433071
        },
        {
          "duration": 0.19666666666665833,
          "durationTicks": 236,
          "midi": 82,
          "name": "A#5",
          "ticks": 484080,
          "time": 403.40000000000003,
          "velocity": 0.8267716535433071
        },
        {
          "duration": 0.06666666666666288,
          "durationTicks": 80,
          "midi": 79,
          "name": "G5",
          "ticks": 484320,
          "time": 403.6,
          "velocity": 0.8267716535433071
        },
        {
          "duration": 0.06666666666666288,
          "durationTicks": 80,
          "midi": 75,
          "name": "D#5",
          "ticks": 484560,
          "time": 403.8,
          "velocity": 0.8267716535433071
        },
        {
          "duration": 0.06666666666666288,
          "durationTicks": 80,
          "midi": 74,
          "name": "D5",
          "ticks": 484800,
          "time": 404,
          "velocity": 0.8267716535433071
        },
        {
          "duration": 0.06666666666660603,
          "durationTicks": 80,
          "midi": 75,
          "name": "D#5",
          "ticks": 485040,
          "time": 404.20000000000005,
          "velocity": 0.8267716535433071
        },
        {
          "duration": 0.06666666666666288,
          "durationTicks": 80,
          "midi": 77,
          "name": "F5",
          "ticks": 485280,
          "time": 404.40000000000003,
          "velocity": 0.8267716535433071
        },
        {
          "duration": 0.06666666666666288,
          "durationTicks": 80,
          "midi": 79,
          "name": "G5",
          "ticks": 485520,
          "time": 404.6,
          "velocity": 0.8267716535433071
        },
        {
          "duration": 0.33333333333337123,
          "durationTicks": 400,
          "midi": 75,
          "name": "D#5",
          "ticks": 485760,
          "time": 404.8,
          "velocity": 0.8267716535433071
        },
        {
          "duration": 0.33333333333337123,
          "durationTicks": 400,
          "midi": 62,
          "name": "D4",
          "ticks": 486720,
          "time": 405.6,
          "velocity": 0.8267716535433071
        },
        {
          "duration": 0.33333333333337123,
          "durationTicks": 400,
          "midi": 70,
          "name": "A#4",
          "ticks": 486720,
          "time": 405.6,
          "velocity": 0.8267716535433071
        },
        {
          "duration": 0.33333333333337123,
          "durationTicks": 400,
          "midi": 80,
          "name": "G#5",
          "ticks": 486720,
          "time": 405.6,
          "velocity": 0.8267716535433071
        },
        {
          "duration": 0.19999999999998863,
          "durationTicks": 240,
          "midi": 79,
          "name": "G5",
          "ticks": 487680,
          "time": 406.40000000000003,
          "velocity": 0.8267716535433071
        },
        {
          "duration": 0.19666666666665833,
          "durationTicks": 236,
          "midi": 85,
          "name": "C#6",
          "ticks": 487920,
          "time": 406.6,
          "velocity": 0.8267716535433071
        },
        {
          "duration": 0.06666666666666288,
          "durationTicks": 80,
          "midi": 82,
          "name": "A#5",
          "ticks": 488160,
          "time": 406.8,
          "velocity": 0.8267716535433071
        },
        {
          "duration": 0.06666666666666288,
          "durationTicks": 80,
          "midi": 79,
          "name": "G5",
          "ticks": 488400,
          "time": 407,
          "velocity": 0.8267716535433071
        },
        {
          "duration": 0.06666666666660603,
          "durationTicks": 80,
          "midi": 76,
          "name": "E5",
          "ticks": 488640,
          "time": 407.20000000000005,
          "velocity": 0.8267716535433071
        },
        {
          "duration": 0.06666666666666288,
          "durationTicks": 80,
          "midi": 77,
          "name": "F5",
          "ticks": 488880,
          "time": 407.40000000000003,
          "velocity": 0.8267716535433071
        },
        {
          "duration": 0.06666666666666288,
          "durationTicks": 80,
          "midi": 79,
          "name": "G5",
          "ticks": 489120,
          "time": 407.6,
          "velocity": 0.8267716535433071
        },
        {
          "duration": 0.06666666666666288,
          "durationTicks": 80,
          "midi": 80,
          "name": "G#5",
          "ticks": 489360,
          "time": 407.8,
          "velocity": 0.8267716535433071
        },
        {
          "duration": 0.33333333333337123,
          "durationTicks": 400,
          "midi": 77,
          "name": "F5",
          "ticks": 489600,
          "time": 408,
          "velocity": 0.8267716535433071
        },
        {
          "duration": 0.33333333333337123,
          "durationTicks": 400,
          "midi": 64,
          "name": "E4",
          "ticks": 490560,
          "time": 408.8,
          "velocity": 0.8267716535433071
        },
        {
          "duration": 0.33333333333337123,
          "durationTicks": 400,
          "midi": 72,
          "name": "C5",
          "ticks": 490560,
          "time": 408.8,
          "velocity": 0.8267716535433071
        },
        {
          "duration": 0.33333333333337123,
          "durationTicks": 400,
          "midi": 82,
          "name": "A#5",
          "ticks": 490560,
          "time": 408.8,
          "velocity": 0.8267716535433071
        },
        {
          "duration": 0.19999999999998863,
          "durationTicks": 240,
          "midi": 81,
          "name": "A5",
          "ticks": 491520,
          "time": 409.6,
          "velocity": 0.8267716535433071
        },
        {
          "duration": 0.19666666666665833,
          "durationTicks": 236,
          "midi": 87,
          "name": "D#6",
          "ticks": 491760,
          "time": 409.8,
          "velocity": 0.8267716535433071
        },
        {
          "duration": 0.06666666666671972,
          "durationTicks": 80,
          "midi": 84,
          "name": "C6",
          "ticks": 492000,
          "time": 410,
          "velocity": 0.8267716535433071
        },
        {
          "duration": 0.06666666666666288,
          "durationTicks": 80,
          "midi": 81,
          "name": "A5",
          "ticks": 492240,
          "time": 410.20000000000005,
          "velocity": 0.8267716535433071
        },
        {
          "duration": 0.06666666666666288,
          "durationTicks": 80,
          "midi": 78,
          "name": "F#5",
          "ticks": 492480,
          "time": 410.40000000000003,
          "velocity": 0.8267716535433071
        },
        {
          "duration": 0.06666666666671972,
          "durationTicks": 80,
          "midi": 79,
          "name": "G5",
          "ticks": 492720,
          "time": 410.6,
          "velocity": 0.8267716535433071
        },
        {
          "duration": 0.06666666666671972,
          "durationTicks": 80,
          "midi": 81,
          "name": "A5",
          "ticks": 492960,
          "time": 410.8,
          "velocity": 0.8267716535433071
        },
        {
          "duration": 0.06666666666671972,
          "durationTicks": 80,
          "midi": 82,
          "name": "A#5",
          "ticks": 493200,
          "time": 411,
          "velocity": 0.8267716535433071
        },
        {
          "duration": 0.33333333333325754,
          "durationTicks": 400,
          "midi": 79,
          "name": "G5",
          "ticks": 493440,
          "time": 411.20000000000005,
          "velocity": 0.8267716535433071
        },
        {
          "duration": 0.3333333333333144,
          "durationTicks": 400,
          "midi": 62,
          "name": "D4",
          "ticks": 494400,
          "time": 412,
          "velocity": 0.8267716535433071
        },
        {
          "duration": 0.3333333333333144,
          "durationTicks": 400,
          "midi": 74,
          "name": "D5",
          "ticks": 494400,
          "time": 412,
          "velocity": 0.8267716535433071
        },
        {
          "duration": 0.3333333333333144,
          "durationTicks": 400,
          "midi": 84,
          "name": "C6",
          "ticks": 494400,
          "time": 412,
          "velocity": 0.8267716535433071
        },
        {
          "duration": 0.19999999999998863,
          "durationTicks": 240,
          "midi": 82,
          "name": "A#5",
          "ticks": 495360,
          "time": 412.8,
          "velocity": 0.8267716535433071
        },
        {
          "duration": 0.19666666666665833,
          "durationTicks": 236,
          "midi": 86,
          "name": "D6",
          "ticks": 495600,
          "time": 413,
          "velocity": 0.8267716535433071
        },
        {
          "duration": 0.06666666666666288,
          "durationTicks": 80,
          "midi": 82,
          "name": "A#5",
          "ticks": 495840,
          "time": 413.20000000000005,
          "velocity": 0.8267716535433071
        },
        {
          "duration": 0.06666666666666288,
          "durationTicks": 80,
          "midi": 81,
          "name": "A5",
          "ticks": 496080,
          "time": 413.40000000000003,
          "velocity": 0.8267716535433071
        },
        {
          "duration": 0.19999999999998863,
          "durationTicks": 240,
          "midi": 79,
          "name": "G5",
          "ticks": 496320,
          "time": 413.6,
          "velocity": 0.8267716535433071
        },
        {
          "duration": 0.19666666666665833,
          "durationTicks": 236,
          "midi": 82,
          "name": "A#5",
          "ticks": 496560,
          "time": 413.8,
          "velocity": 0.8267716535433071
        },
        {
          "duration": 0.06666666666671972,
          "durationTicks": 80,
          "midi": 79,
          "name": "G5",
          "ticks": 496800,
          "time": 414,
          "velocity": 0.8267716535433071
        },
        {
          "duration": 0.06666666666666288,
          "durationTicks": 80,
          "midi": 77,
          "name": "F5",
          "ticks": 497040,
          "time": 414.20000000000005,
          "velocity": 0.8267716535433071
        },
        {
          "duration": 0.19999999999998863,
          "durationTicks": 240,
          "midi": 76,
          "name": "E5",
          "ticks": 497280,
          "time": 414.40000000000003,
          "velocity": 0.8267716535433071
        },
        {
          "duration": 0.1966666666666015,
          "durationTicks": 236,
          "midi": 79,
          "name": "G5",
          "ticks": 497520,
          "time": 414.6,
          "velocity": 0.8267716535433071
        },
        {
          "duration": 0.06666666666671972,
          "durationTicks": 80,
          "midi": 76,
          "name": "E5",
          "ticks": 497760,
          "time": 414.8,
          "velocity": 0.8267716535433071
        },
        {
          "duration": 0.06666666666671972,
          "durationTicks": 80,
          "midi": 74,
          "name": "D5",
          "ticks": 498000,
          "time": 415,
          "velocity": 0.8267716535433071
        },
        {
          "duration": 0.33333333333325754,
          "durationTicks": 400,
          "midi": 72,
          "name": "C5",
          "ticks": 498240,
          "time": 415.20000000000005,
          "velocity": 0.8267716535433071
        },
        {
          "duration": 0.3333333333333144,
          "durationTicks": 400,
          "midi": 64,
          "name": "E4",
          "ticks": 498720,
          "time": 415.6,
          "velocity": 0.8267716535433071
        },
        {
          "duration": 0.3333333333333144,
          "durationTicks": 400,
          "midi": 72,
          "name": "C5",
          "ticks": 498720,
          "time": 415.6,
          "velocity": 0.8267716535433071
        },
        {
          "duration": 0.3333333333333144,
          "durationTicks": 400,
          "midi": 82,
          "name": "A#5",
          "ticks": 498720,
          "time": 415.6,
          "velocity": 0.8267716535433071
        },
        {
          "duration": 0.20000000000004547,
          "durationTicks": 240,
          "midi": 80,
          "name": "G#5",
          "ticks": 499200,
          "time": 416,
          "velocity": 0.8267716535433071
        },
        {
          "duration": 0.1966666666666015,
          "durationTicks": 236,
          "midi": 84,
          "name": "C6",
          "ticks": 499440,
          "time": 416.20000000000005,
          "velocity": 0.8267716535433071
        },
        {
          "duration": 0.06666666666666288,
          "durationTicks": 80,
          "midi": 80,
          "name": "G#5",
          "ticks": 499680,
          "time": 416.40000000000003,
          "velocity": 0.8267716535433071
        },
        {
          "duration": 0.06666666666671972,
          "durationTicks": 80,
          "midi": 79,
          "name": "G5",
          "ticks": 499920,
          "time": 416.6,
          "velocity": 0.8267716535433071
        },
        {
          "duration": 0.19999999999998863,
          "durationTicks": 240,
          "midi": 77,
          "name": "F5",
          "ticks": 500160,
          "time": 416.8,
          "velocity": 0.8267716535433071
        },
        {
          "duration": 0.19666666666665833,
          "durationTicks": 236,
          "midi": 80,
          "name": "G#5",
          "ticks": 500400,
          "time": 417,
          "velocity": 0.8267716535433071
        },
        {
          "duration": 0.06666666666666288,
          "durationTicks": 80,
          "midi": 77,
          "name": "F5",
          "ticks": 500640,
          "time": 417.20000000000005,
          "velocity": 0.8267716535433071
        },
        {
          "duration": 0.06666666666666288,
          "durationTicks": 80,
          "midi": 75,
          "name": "D#5",
          "ticks": 500880,
          "time": 417.40000000000003,
          "velocity": 0.8267716535433071
        },
        {
          "duration": 0.19999999999998863,
          "durationTicks": 240,
          "midi": 74,
          "name": "D5",
          "ticks": 501120,
          "time": 417.6,
          "velocity": 0.8267716535433071
        },
        {
          "duration": 0.19666666666665833,
          "durationTicks": 236,
          "midi": 77,
          "name": "F5",
          "ticks": 501360,
          "time": 417.8,
          "velocity": 0.8267716535433071
        },
        {
          "duration": 0.06666666666671972,
          "durationTicks": 80,
          "midi": 74,
          "name": "D5",
          "ticks": 501600,
          "time": 418,
          "velocity": 0.8267716535433071
        },
        {
          "duration": 0.06666666666666288,
          "durationTicks": 80,
          "midi": 72,
          "name": "C5",
          "ticks": 501840,
          "time": 418.20000000000005,
          "velocity": 0.8267716535433071
        },
        {
          "duration": 0.3333333333333144,
          "durationTicks": 400,
          "midi": 70,
          "name": "A#4",
          "ticks": 502080,
          "time": 418.40000000000003,
          "velocity": 0.8267716535433071
        },
        {
          "duration": 0.3333333333333144,
          "durationTicks": 400,
          "midi": 62,
          "name": "D4",
          "ticks": 502560,
          "time": 418.8,
          "velocity": 0.8267716535433071
        },
        {
          "duration": 0.3333333333333144,
          "durationTicks": 400,
          "midi": 70,
          "name": "A#4",
          "ticks": 502560,
          "time": 418.8,
          "velocity": 0.8267716535433071
        },
        {
          "duration": 0.3333333333333144,
          "durationTicks": 400,
          "midi": 80,
          "name": "G#5",
          "ticks": 502560,
          "time": 418.8,
          "velocity": 0.8267716535433071
        },
        {
          "duration": 0.19999999999998863,
          "durationTicks": 240,
          "midi": 79,
          "name": "G5",
          "ticks": 503040,
          "time": 419.20000000000005,
          "velocity": 0.8267716535433071
        },
        {
          "duration": 0.1966666666666015,
          "durationTicks": 236,
          "midi": 82,
          "name": "A#5",
          "ticks": 503280,
          "time": 419.40000000000003,
          "velocity": 0.8267716535433071
        },
        {
          "duration": 0.06666666666671972,
          "durationTicks": 80,
          "midi": 75,
          "name": "D#5",
          "ticks": 503520,
          "time": 419.6,
          "velocity": 0.8267716535433071
        },
        {
          "duration": 0.06666666666671972,
          "durationTicks": 80,
          "midi": 79,
          "name": "G5",
          "ticks": 503760,
          "time": 419.8,
          "velocity": 0.8267716535433071
        },
        {
          "duration": 0.3333333333333144,
          "durationTicks": 400,
          "midi": 80,
          "name": "G#5",
          "ticks": 504000,
          "time": 420,
          "velocity": 0.8267716535433071
        },
        {
          "duration": 0.1966666666666015,
          "durationTicks": 236,
          "midi": 80,
          "name": "G#5",
          "ticks": 504720,
          "time": 420.6,
          "velocity": 0.8267716535433071
        },
        {
          "duration": 0.19999999999998863,
          "durationTicks": 240,
          "midi": 77,
          "name": "F5",
          "ticks": 504960,
          "time": 420.8,
          "velocity": 0.8267716535433071
        },
        {
          "duration": 0.19666666666665833,
          "durationTicks": 236,
          "midi": 80,
          "name": "G#5",
          "ticks": 505200,
          "time": 421,
          "velocity": 0.8267716535433071
        },
        {
          "duration": 0.06666666666666288,
          "durationTicks": 80,
          "midi": 74,
          "name": "D5",
          "ticks": 505440,
          "time": 421.20000000000005,
          "velocity": 0.8267716535433071
        },
        {
          "duration": 0.06666666666666288,
          "durationTicks": 80,
          "midi": 77,
          "name": "F5",
          "ticks": 505680,
          "time": 421.40000000000003,
          "velocity": 0.8267716535433071
        },
        {
          "duration": 0.3333333333333144,
          "durationTicks": 400,
          "midi": 79,
          "name": "G5",
          "ticks": 505920,
          "time": 421.6,
          "velocity": 0.8267716535433071
        },
        {
          "duration": 0.1966666666666015,
          "durationTicks": 236,
          "midi": 79,
          "name": "G5",
          "ticks": 506640,
          "time": 422.20000000000005,
          "velocity": 0.8267716535433071
        },
        {
          "duration": 0.19999999999998863,
          "durationTicks": 240,
          "midi": 75,
          "name": "D#5",
          "ticks": 506880,
          "time": 422.40000000000003,
          "velocity": 0.8267716535433071
        },
        {
          "duration": 0.1966666666666015,
          "durationTicks": 236,
          "midi": 79,
          "name": "G5",
          "ticks": 507120,
          "time": 422.6,
          "velocity": 0.8267716535433071
        },
        {
          "duration": 0.06666666666671972,
          "durationTicks": 80,
          "midi": 75,
          "name": "D#5",
          "ticks": 507360,
          "time": 422.8,
          "velocity": 0.8267716535433071
        },
        {
          "duration": 0.06666666666671972,
          "durationTicks": 80,
          "midi": 74,
          "name": "D5",
          "ticks": 507600,
          "time": 423,
          "velocity": 0.8267716535433071
        },
        {
          "duration": 0.19999999999998863,
          "durationTicks": 240,
          "midi": 72,
          "name": "C5",
          "ticks": 507840,
          "time": 423.20000000000005,
          "velocity": 0.8267716535433071
        },
        {
          "duration": 0.1966666666666015,
          "durationTicks": 236,
          "midi": 75,
          "name": "D#5",
          "ticks": 508080,
          "time": 423.40000000000003,
          "velocity": 0.8267716535433071
        },
        {
          "duration": 0.06666666666671972,
          "durationTicks": 80,
          "midi": 72,
          "name": "C5",
          "ticks": 508320,
          "time": 423.6,
          "velocity": 0.8267716535433071
        },
        {
          "duration": 0.06666666666671972,
          "durationTicks": 80,
          "midi": 70,
          "name": "A#4",
          "ticks": 508560,
          "time": 423.8,
          "velocity": 0.8267716535433071
        },
        {
          "duration": 0.20000000000004547,
          "durationTicks": 240,
          "midi": 69,
          "name": "A4",
          "ticks": 508800,
          "time": 424,
          "velocity": 0.8267716535433071
        },
        {
          "duration": 0.1966666666666015,
          "durationTicks": 236,
          "midi": 72,
          "name": "C5",
          "ticks": 509040,
          "time": 424.20000000000005,
          "velocity": 0.8267716535433071
        },
        {
          "duration": 0.06666666666666288,
          "durationTicks": 80,
          "midi": 69,
          "name": "A4",
          "ticks": 509280,
          "time": 424.40000000000003,
          "velocity": 0.8267716535433071
        },
        {
          "duration": 0.06666666666671972,
          "durationTicks": 80,
          "midi": 67,
          "name": "G4",
          "ticks": 509520,
          "time": 424.6,
          "velocity": 0.8267716535433071
        },
        {
          "duration": 0.3333333333333144,
          "durationTicks": 400,
          "midi": 66,
          "name": "F#4",
          "ticks": 509760,
          "time": 424.8,
          "velocity": 0.8267716535433071
        },
        {
          "duration": 0.33333333333325754,
          "durationTicks": 400,
          "midi": 62,
          "name": "D4",
          "ticks": 510240,
          "time": 425.20000000000005,
          "velocity": 0.8267716535433071
        },
        {
          "duration": 0.33333333333325754,
          "durationTicks": 400,
          "midi": 72,
          "name": "C5",
          "ticks": 510240,
          "time": 425.20000000000005,
          "velocity": 0.8267716535433071
        },
        {
          "duration": 0.3333333333333144,
          "durationTicks": 400,
          "midi": 62,
          "name": "D4",
          "ticks": 510720,
          "time": 425.6,
          "velocity": 0.8267716535433071
        },
        {
          "duration": 0.3333333333333144,
          "durationTicks": 400,
          "midi": 70,
          "name": "A#4",
          "ticks": 510720,
          "time": 425.6,
          "velocity": 0.8267716535433071
        },
        {
          "duration": 0.3333333333333144,
          "durationTicks": 400,
          "midi": 62,
          "name": "D4",
          "ticks": 511200,
          "time": 426,
          "velocity": 0.8267716535433071
        },
        {
          "duration": 0.3333333333333144,
          "durationTicks": 400,
          "midi": 70,
          "name": "A#4",
          "ticks": 511200,
          "time": 426,
          "velocity": 0.8267716535433071
        },
        {
          "duration": 0.3333333333333144,
          "durationTicks": 400,
          "midi": 79,
          "name": "G5",
          "ticks": 511200,
          "time": 426,
          "velocity": 0.8267716535433071
        },
        {
          "duration": 0.3333333333333144,
          "durationTicks": 400,
          "midi": 55,
          "name": "G3",
          "ticks": 512160,
          "time": 426.8,
          "velocity": 0.8267716535433071
        },
        {
          "duration": 0.3333333333333144,
          "durationTicks": 400,
          "midi": 63,
          "name": "D#4",
          "ticks": 512160,
          "time": 426.8,
          "velocity": 0.8267716535433071
        },
        {
          "duration": 0.3333333333333144,
          "durationTicks": 400,
          "midi": 72,
          "name": "C5",
          "ticks": 512160,
          "time": 426.8,
          "velocity": 0.8267716535433071
        },
        {
          "duration": 0.3333333333333144,
          "durationTicks": 400,
          "midi": 75,
          "name": "D#5",
          "ticks": 513120,
          "time": 427.6,
          "velocity": 0.8267716535433071
        },
        {
          "duration": 0.3333333333333144,
          "durationTicks": 400,
          "midi": 84,
          "name": "C6",
          "ticks": 513120,
          "time": 427.6,
          "velocity": 0.8267716535433071
        },
        {
          "duration": 0.3333333333333144,
          "durationTicks": 400,
          "midi": 62,
          "name": "D4",
          "ticks": 514080,
          "time": 428.40000000000003,
          "velocity": 0.8267716535433071
        },
        {
          "duration": 0.3333333333333144,
          "durationTicks": 400,
          "midi": 72,
          "name": "C5",
          "ticks": 514080,
          "time": 428.40000000000003,
          "velocity": 0.8267716535433071
        },
        {
          "duration": 0.6000000000000227,
          "durationTicks": 720,
          "midi": 70,
          "name": "A#4",
          "ticks": 514560,
          "time": 428.8,
          "velocity": 0.8267716535433071
        },
        {
          "duration": 0.1966666666666015,
          "durationTicks": 236,
          "midi": 74,
          "name": "D5",
          "ticks": 515280,
          "time": 429.40000000000003,
          "velocity": 0.8267716535433071
        },
        {
          "duration": 0.533333333333303,
          "durationTicks": 640,
          "midi": 67,
          "name": "G4",
          "ticks": 515520,
          "time": 429.6,
          "velocity": 0.8267716535433071
        },
        {
          "duration": 0.1966666666666015,
          "durationTicks": 236,
          "midi": 82,
          "name": "A#5",
          "ticks": 516240,
          "time": 430.20000000000005,
          "velocity": 0.8267716535433071
        },
        {
          "duration": 0.19999999999998863,
          "durationTicks": 240,
          "midi": 79,
          "name": "G5",
          "ticks": 516480,
          "time": 430.40000000000003,
          "velocity": 0.8267716535433071
        },
        {
          "duration": 0.1966666666666015,
          "durationTicks": 236,
          "midi": 82,
          "name": "A#5",
          "ticks": 516720,
          "time": 430.6,
          "velocity": 0.8267716535433071
        },
        {
          "duration": 0.06666666666671972,
          "durationTicks": 80,
          "midi": 76,
          "name": "E5",
          "ticks": 516960,
          "time": 430.8,
          "velocity": 0.8267716535433071
        },
        {
          "duration": 0.06666666666671972,
          "durationTicks": 80,
          "midi": 79,
          "name": "G5",
          "ticks": 517200,
          "time": 431,
          "velocity": 0.8267716535433071
        },
        {
          "duration": 0.06666666666666288,
          "durationTicks": 80,
          "midi": 73,
          "name": "C#5",
          "ticks": 517440,
          "time": 431.20000000000005,
          "velocity": 0.8267716535433071
        },
        {
          "duration": 0.06666666666666288,
          "durationTicks": 80,
          "midi": 76,
          "name": "E5",
          "ticks": 517680,
          "time": 431.40000000000003,
          "velocity": 0.8267716535433071
        },
        {
          "duration": 0.06666666666671972,
          "durationTicks": 80,
          "midi": 69,
          "name": "A4",
          "ticks": 517920,
          "time": 431.6,
          "velocity": 0.8267716535433071
        },
        {
          "duration": 0.06666666666671972,
          "durationTicks": 80,
          "midi": 81,
          "name": "A5",
          "ticks": 518160,
          "time": 431.8,
          "velocity": 0.8267716535433071
        },
        {
          "duration": 0.10000000000002274,
          "durationTicks": 120,
          "midi": 77,
          "name": "F5",
          "ticks": 518400,
          "time": 432,
          "velocity": 0.8267716535433071
        },
        {
          "duration": 0.0999999999999659,
          "durationTicks": 120,
          "midi": 74,
          "name": "D5",
          "ticks": 518880,
          "time": 432.40000000000003,
          "velocity": 0.8267716535433071
        },
        {
          "duration": 0.10000000000002274,
          "durationTicks": 120,
          "midi": 71,
          "name": "B4",
          "ticks": 519360,
          "time": 432.8,
          "velocity": 0.8267716535433071
        },
        {
          "duration": 0.1966666666666015,
          "durationTicks": 236,
          "midi": 80,
          "name": "G#5",
          "ticks": 520080,
          "time": 433.40000000000003,
          "velocity": 0.8267716535433071
        },
        {
          "duration": 0.19999999999998863,
          "durationTicks": 240,
          "midi": 81,
          "name": "A5",
          "ticks": 520320,
          "time": 433.6,
          "velocity": 0.8267716535433071
        },
        {
          "duration": 0.19666666666665833,
          "durationTicks": 236,
          "midi": 84,
          "name": "C6",
          "ticks": 520560,
          "time": 433.8,
          "velocity": 0.8267716535433071
        },
        {
          "duration": 0.06666666666671972,
          "durationTicks": 80,
          "midi": 77,
          "name": "F5",
          "ticks": 520800,
          "time": 434,
          "velocity": 0.8267716535433071
        },
        {
          "duration": 0.06666666666666288,
          "durationTicks": 80,
          "midi": 81,
          "name": "A5",
          "ticks": 521040,
          "time": 434.20000000000005,
          "velocity": 0.8267716535433071
        },
        {
          "duration": 0.06666666666666288,
          "durationTicks": 80,
          "midi": 76,
          "name": "E5",
          "ticks": 521280,
          "time": 434.40000000000003,
          "velocity": 0.8267716535433071
        },
        {
          "duration": 0.06666666666671972,
          "durationTicks": 80,
          "midi": 81,
          "name": "A5",
          "ticks": 521520,
          "time": 434.6,
          "velocity": 0.8267716535433071
        },
        {
          "duration": 0.06666666666671972,
          "durationTicks": 80,
          "midi": 75,
          "name": "D#5",
          "ticks": 521760,
          "time": 434.8,
          "velocity": 0.8267716535433071
        },
        {
          "duration": 0.06666666666671972,
          "durationTicks": 80,
          "midi": 81,
          "name": "A5",
          "ticks": 522000,
          "time": 435,
          "velocity": 0.8267716535433071
        },
        {
          "duration": 0.33333333333325754,
          "durationTicks": 400,
          "midi": 80,
          "name": "G#5",
          "ticks": 522240,
          "time": 435.20000000000005,
          "velocity": 0.8267716535433071
        },
        {
          "duration": 0.10000000000002274,
          "durationTicks": 120,
          "midi": 69,
          "name": "A4",
          "ticks": 523200,
          "time": 436,
          "velocity": 0.4015748031496063
        },
        {
          "duration": 0.10000000000002274,
          "durationTicks": 120,
          "midi": 72,
          "name": "C5",
          "ticks": 523200,
          "time": 436,
          "velocity": 0.4015748031496063
        },
        {
          "duration": 0.0999999999999659,
          "durationTicks": 120,
          "midi": 69,
          "name": "A4",
          "ticks": 523680,
          "time": 436.40000000000003,
          "velocity": 0.4015748031496063
        },
        {
          "duration": 0.0999999999999659,
          "durationTicks": 120,
          "midi": 72,
          "name": "C5",
          "ticks": 523680,
          "time": 436.40000000000003,
          "velocity": 0.4015748031496063
        },
        {
          "duration": 0.3333333333333144,
          "durationTicks": 400,
          "midi": 68,
          "name": "G#4",
          "ticks": 524160,
          "time": 436.8,
          "velocity": 0.4015748031496063
        },
        {
          "duration": 0.3333333333333144,
          "durationTicks": 400,
          "midi": 71,
          "name": "B4",
          "ticks": 524160,
          "time": 436.8,
          "velocity": 0.4015748031496063
        },
        {
          "duration": 0.10000000000002274,
          "durationTicks": 120,
          "midi": 69,
          "name": "A4",
          "ticks": 525120,
          "time": 437.6,
          "velocity": 0.4015748031496063
        },
        {
          "duration": 0.10000000000002274,
          "durationTicks": 120,
          "midi": 72,
          "name": "C5",
          "ticks": 525120,
          "time": 437.6,
          "velocity": 0.4015748031496063
        },
        {
          "duration": 0.10000000000002274,
          "durationTicks": 120,
          "midi": 69,
          "name": "A4",
          "ticks": 525600,
          "time": 438,
          "velocity": 0.4015748031496063
        },
        {
          "duration": 0.10000000000002274,
          "durationTicks": 120,
          "midi": 72,
          "name": "C5",
          "ticks": 525600,
          "time": 438,
          "velocity": 0.4015748031496063
        },
        {
          "duration": 0.3333333333333144,
          "durationTicks": 400,
          "midi": 68,
          "name": "G#4",
          "ticks": 526080,
          "time": 438.40000000000003,
          "velocity": 0.4015748031496063
        },
        {
          "duration": 0.3333333333333144,
          "durationTicks": 400,
          "midi": 71,
          "name": "B4",
          "ticks": 526080,
          "time": 438.40000000000003,
          "velocity": 0.4015748031496063
        },
        {
          "duration": 3.1000000000000227,
          "durationTicks": 3720,
          "midi": 71,
          "name": "B4",
          "ticks": 529920,
          "time": 441.6,
          "velocity": 0.4015748031496063
        },
        {
          "duration": 1.9333333333333371,
          "durationTicks": 2320,
          "midi": 70,
          "name": "A#4",
          "ticks": 533760,
          "time": 444.8,
          "velocity": 0.4015748031496063
        },
        {
          "duration": 0.3333333333333144,
          "durationTicks": 400,
          "midi": 65,
          "name": "F4",
          "ticks": 537600,
          "time": 448,
          "velocity": 0.4015748031496063
        },
        {
          "duration": 0.06666666666671972,
          "durationTicks": 80,
          "midi": 60,
          "name": "C4",
          "ticks": 538320,
          "time": 448.6,
          "velocity": 0.4015748031496063
        },
        {
          "duration": 0.06666666666660603,
          "durationTicks": 80,
          "midi": 62,
          "name": "D4",
          "ticks": 538400,
          "time": 448.66666666666674,
          "velocity": 0.4015748031496063
        },
        {
          "duration": 0.06666666666666288,
          "durationTicks": 80,
          "midi": 64,
          "name": "E4",
          "ticks": 538480,
          "time": 448.73333333333335,
          "velocity": 0.4015748031496063
        },
        {
          "duration": 0.3333333333333144,
          "durationTicks": 400,
          "midi": 65,
          "name": "F4",
          "ticks": 538560,
          "time": 448.8,
          "velocity": 0.4015748031496063
        },
        {
          "duration": 0.06666666666666288,
          "durationTicks": 80,
          "midi": 60,
          "name": "C4",
          "ticks": 539280,
          "time": 449.40000000000003,
          "velocity": 0.4015748031496063
        },
        {
          "duration": 0.06666666666660603,
          "durationTicks": 80,
          "midi": 62,
          "name": "D4",
          "ticks": 539360,
          "time": 449.4666666666667,
          "velocity": 0.4015748031496063
        },
        {
          "duration": 0.06666666666671972,
          "durationTicks": 80,
          "midi": 64,
          "name": "E4",
          "ticks": 539440,
          "time": 449.5333333333333,
          "velocity": 0.4015748031496063
        },
        {
          "duration": 0.3333333333333144,
          "durationTicks": 400,
          "midi": 65,
          "name": "F4",
          "ticks": 539520,
          "time": 449.6,
          "velocity": 0.4015748031496063
        },
        {
          "duration": 0.19666666666665833,
          "durationTicks": 236,
          "midi": 65,
          "name": "F4",
          "ticks": 541200,
          "time": 451,
          "velocity": 0.4015748031496063
        },
        {
          "duration": 0.5999999999999659,
          "durationTicks": 720,
          "midi": 65,
          "name": "F4",
          "ticks": 541440,
          "time": 451.20000000000005,
          "velocity": 0.4015748031496063
        },
        {
          "duration": 0.19999999999998863,
          "durationTicks": 240,
          "midi": 64,
          "name": "E4",
          "ticks": 542160,
          "time": 451.8,
          "velocity": 0.4015748031496063
        },
        {
          "duration": 0.6000000000000227,
          "durationTicks": 720,
          "midi": 67,
          "name": "G4",
          "ticks": 542400,
          "time": 452,
          "velocity": 0.4015748031496063
        },
        {
          "duration": 0.1966666666666015,
          "durationTicks": 236,
          "midi": 65,
          "name": "F4",
          "ticks": 543120,
          "time": 452.6,
          "velocity": 0.4015748031496063
        },
        {
          "duration": 0.8000000000000114,
          "durationTicks": 960,
          "midi": 72,
          "name": "C5",
          "ticks": 543360,
          "time": 452.8,
          "velocity": 0.4015748031496063
        },
        {
          "duration": 0.3333333333333144,
          "durationTicks": 400,
          "midi": 70,
          "name": "A#4",
          "ticks": 544320,
          "time": 453.6,
          "velocity": 0.4015748031496063
        },
        {
          "duration": 0.3333333333333144,
          "durationTicks": 400,
          "midi": 60,
          "name": "C4",
          "ticks": 545280,
          "time": 454.40000000000003,
          "velocity": 0.4015748031496063
        },
        {
          "duration": 0.06666666666671972,
          "durationTicks": 80,
          "midi": 55,
          "name": "G3",
          "ticks": 546000,
          "time": 455,
          "velocity": 0.4015748031496063
        },
        {
          "duration": 0.06666666666660603,
          "durationTicks": 80,
          "midi": 57,
          "name": "A3",
          "ticks": 546080,
          "time": 455.0666666666667,
          "velocity": 0.4015748031496063
        },
        {
          "duration": 0.06666666666671972,
          "durationTicks": 80,
          "midi": 59,
          "name": "B3",
          "ticks": 546160,
          "time": 455.1333333333333,
          "velocity": 0.4015748031496063
        },
        {
          "duration": 0.33333333333325754,
          "durationTicks": 400,
          "midi": 60,
          "name": "C4",
          "ticks": 546240,
          "time": 455.20000000000005,
          "velocity": 0.4015748031496063
        },
        {
          "duration": 0.06666666666671972,
          "durationTicks": 80,
          "midi": 55,
          "name": "G3",
          "ticks": 546960,
          "time": 455.8,
          "velocity": 0.4015748031496063
        },
        {
          "duration": 0.06666666666660603,
          "durationTicks": 80,
          "midi": 57,
          "name": "A3",
          "ticks": 547040,
          "time": 455.86666666666673,
          "velocity": 0.4015748031496063
        },
        {
          "duration": 0.06666666666666288,
          "durationTicks": 80,
          "midi": 59,
          "name": "B3",
          "ticks": 547120,
          "time": 455.93333333333334,
          "velocity": 0.4015748031496063
        },
        {
          "duration": 0.3333333333333144,
          "durationTicks": 400,
          "midi": 60,
          "name": "C4",
          "ticks": 547200,
          "time": 456,
          "velocity": 0.4015748031496063
        },
        {
          "duration": 0.3333333333333144,
          "durationTicks": 400,
          "midi": 62,
          "name": "D4",
          "ticks": 549120,
          "time": 457.6,
          "velocity": 0.4015748031496063
        },
        {
          "duration": 0.06666666666666288,
          "durationTicks": 80,
          "midi": 57,
          "name": "A3",
          "ticks": 549840,
          "time": 458.20000000000005,
          "velocity": 0.4015748031496063
        },
        {
          "duration": 0.06666666666660603,
          "durationTicks": 80,
          "midi": 59,
          "name": "B3",
          "ticks": 549920,
          "time": 458.2666666666667,
          "velocity": 0.4015748031496063
        },
        {
          "duration": 0.06666666666671972,
          "durationTicks": 80,
          "midi": 61,
          "name": "C#4",
          "ticks": 550000,
          "time": 458.3333333333333,
          "velocity": 0.4015748031496063
        },
        {
          "duration": 0.3333333333333144,
          "durationTicks": 400,
          "midi": 62,
          "name": "D4",
          "ticks": 550080,
          "time": 458.40000000000003,
          "velocity": 0.4015748031496063
        },
        {
          "duration": 0.06666666666671972,
          "durationTicks": 80,
          "midi": 57,
          "name": "A3",
          "ticks": 550800,
          "time": 459,
          "velocity": 0.4015748031496063
        },
        {
          "duration": 0.06666666666660603,
          "durationTicks": 80,
          "midi": 59,
          "name": "B3",
          "ticks": 550880,
          "time": 459.0666666666667,
          "velocity": 0.4015748031496063
        },
        {
          "duration": 0.06666666666671972,
          "durationTicks": 80,
          "midi": 61,
          "name": "C#4",
          "ticks": 550960,
          "time": 459.1333333333333,
          "velocity": 0.4015748031496063
        },
        {
          "duration": 0.33333333333325754,
          "durationTicks": 400,
          "midi": 62,
          "name": "D4",
          "ticks": 551040,
          "time": 459.20000000000005,
          "velocity": 0.4015748031496063
        },
        {
          "duration": 0.3333333333333144,
          "durationTicks": 400,
          "midi": 64,
          "name": "E4",
          "ticks": 552960,
          "time": 460.8,
          "velocity": 0.4015748031496063
        },
        {
          "duration": 0.06666666666666288,
          "durationTicks": 80,
          "midi": 59,
          "name": "B3",
          "ticks": 553680,
          "time": 461.40000000000003,
          "velocity": 0.4015748031496063
        },
        {
          "duration": 0.06666666666660603,
          "durationTicks": 80,
          "midi": 61,
          "name": "C#4",
          "ticks": 553760,
          "time": 461.4666666666667,
          "velocity": 0.4015748031496063
        },
        {
          "duration": 0.06666666666671972,
          "durationTicks": 80,
          "midi": 63,
          "name": "D#4",
          "ticks": 553840,
          "time": 461.5333333333333,
          "velocity": 0.4015748031496063
        },
        {
          "duration": 0.3333333333333144,
          "durationTicks": 400,
          "midi": 64,
          "name": "E4",
          "ticks": 553920,
          "time": 461.6,
          "velocity": 0.4015748031496063
        },
        {
          "duration": 0.06666666666666288,
          "durationTicks": 80,
          "midi": 59,
          "name": "B3",
          "ticks": 554640,
          "time": 462.20000000000005,
          "velocity": 0.4015748031496063
        },
        {
          "duration": 0.06666666666660603,
          "durationTicks": 80,
          "midi": 61,
          "name": "C#4",
          "ticks": 554720,
          "time": 462.2666666666667,
          "velocity": 0.4015748031496063
        },
        {
          "duration": 0.06666666666671972,
          "durationTicks": 80,
          "midi": 63,
          "name": "D#4",
          "ticks": 554800,
          "time": 462.3333333333333,
          "velocity": 0.4015748031496063
        },
        {
          "duration": 0.3333333333333144,
          "durationTicks": 400,
          "midi": 64,
          "name": "E4",
          "ticks": 554880,
          "time": 462.40000000000003,
          "velocity": 0.4015748031496063
        },
        {
          "duration": 0.3333333333333144,
          "durationTicks": 400,
          "midi": 57,
          "name": "A3",
          "ticks": 556800,
          "time": 464,
          "velocity": 0.4015748031496063
        },
        {
          "duration": 0.06666666666671972,
          "durationTicks": 80,
          "midi": 68,
          "name": "G#4",
          "ticks": 557520,
          "time": 464.6,
          "velocity": 0.4015748031496063
        },
        {
          "duration": 0.06666666666660603,
          "durationTicks": 80,
          "midi": 69,
          "name": "A4",
          "ticks": 557600,
          "time": 464.66666666666674,
          "velocity": 0.4015748031496063
        },
        {
          "duration": 0.06666666666666288,
          "durationTicks": 80,
          "midi": 71,
          "name": "B4",
          "ticks": 557680,
          "time": 464.73333333333335,
          "velocity": 0.4015748031496063
        },
        {
          "duration": 0.3333333333333144,
          "durationTicks": 400,
          "midi": 72,
          "name": "C5",
          "ticks": 557760,
          "time": 464.8,
          "velocity": 0.4015748031496063
        },
        {
          "duration": 0.05000000000001137,
          "durationTicks": 60,
          "midi": 69,
          "name": "A4",
          "ticks": 558480,
          "time": 465.40000000000003,
          "velocity": 0.4015748031496063
        },
        {
          "duration": 0.049999999999954525,
          "durationTicks": 60,
          "midi": 67,
          "name": "G4",
          "ticks": 558540,
          "time": 465.45000000000005,
          "velocity": 0.4015748031496063
        },
        {
          "duration": 0.05000000000001137,
          "durationTicks": 60,
          "midi": 66,
          "name": "F#4",
          "ticks": 558600,
          "time": 465.5,
          "velocity": 0.4015748031496063
        },
        {
          "duration": 0.046666666666624224,
          "durationTicks": 56,
          "midi": 64,
          "name": "E4",
          "ticks": 558660,
          "time": 465.55,
          "velocity": 0.4015748031496063
        },
        {
          "duration": 0.3333333333333144,
          "durationTicks": 400,
          "midi": 63,
          "name": "D#4",
          "ticks": 558720,
          "time": 465.6,
          "velocity": 0.4015748031496063
        },
        {
          "duration": 0.06666666666666288,
          "durationTicks": 80,
          "midi": 66,
          "name": "F#4",
          "ticks": 559440,
          "time": 466.20000000000005,
          "velocity": 0.4015748031496063
        },
        {
          "duration": 0.06666666666660603,
          "durationTicks": 80,
          "midi": 67,
          "name": "G4",
          "ticks": 559520,
          "time": 466.2666666666667,
          "velocity": 0.4015748031496063
        },
        {
          "duration": 0.06666666666671972,
          "durationTicks": 80,
          "midi": 69,
          "name": "A4",
          "ticks": 559600,
          "time": 466.3333333333333,
          "velocity": 0.4015748031496063
        },
        {
          "duration": 0.3333333333333144,
          "durationTicks": 400,
          "midi": 71,
          "name": "B4",
          "ticks": 559680,
          "time": 466.40000000000003,
          "velocity": 0.4015748031496063
        },
        {
          "duration": 0.06666666666671972,
          "durationTicks": 80,
          "midi": 71,
          "name": "B4",
          "ticks": 560400,
          "time": 467,
          "velocity": 0.4015748031496063
        },
        {
          "duration": 0.06666666666660603,
          "durationTicks": 80,
          "midi": 73,
          "name": "C#5",
          "ticks": 560480,
          "time": 467.0666666666667,
          "velocity": 0.4015748031496063
        },
        {
          "duration": 0.06666666666671972,
          "durationTicks": 80,
          "midi": 75,
          "name": "D#5",
          "ticks": 560560,
          "time": 467.1333333333333,
          "velocity": 0.4015748031496063
        },
        {
          "duration": 0.33333333333325754,
          "durationTicks": 400,
          "midi": 76,
          "name": "E5",
          "ticks": 560640,
          "time": 467.20000000000005,
          "velocity": 0.4015748031496063
        },
        {
          "duration": 0.06666666666671972,
          "durationTicks": 80,
          "midi": 66,
          "name": "F#4",
          "ticks": 561360,
          "time": 467.8,
          "velocity": 0.4015748031496063
        },
        {
          "duration": 0.06666666666660603,
          "durationTicks": 80,
          "midi": 67,
          "name": "G4",
          "ticks": 561440,
          "time": 467.86666666666673,
          "velocity": 0.4015748031496063
        },
        {
          "duration": 0.06666666666666288,
          "durationTicks": 80,
          "midi": 69,
          "name": "A4",
          "ticks": 561520,
          "time": 467.93333333333334,
          "velocity": 0.4015748031496063
        },
        {
          "duration": 0.3333333333333144,
          "durationTicks": 400,
          "midi": 70,
          "name": "A#4",
          "ticks": 561600,
          "time": 468,
          "velocity": 0.4015748031496063
        },
        {
          "duration": 0.05000000000001137,
          "durationTicks": 60,
          "midi": 67,
          "name": "G4",
          "ticks": 562320,
          "time": 468.6,
          "velocity": 0.4015748031496063
        },
        {
          "duration": 0.05000000000001137,
          "durationTicks": 60,
          "midi": 65,
          "name": "F4",
          "ticks": 562380,
          "time": 468.65000000000003,
          "velocity": 0.4015748031496063
        },
        {
          "duration": 0.049999999999954525,
          "durationTicks": 60,
          "midi": 64,
          "name": "E4",
          "ticks": 562440,
          "time": 468.70000000000005,
          "velocity": 0.4015748031496063
        },
        {
          "duration": 0.05000000000001137,
          "durationTicks": 60,
          "midi": 62,
          "name": "D4",
          "ticks": 562500,
          "time": 468.75,
          "velocity": 0.4015748031496063
        },
        {
          "duration": 0.3333333333333144,
          "durationTicks": 400,
          "midi": 61,
          "name": "C#4",
          "ticks": 562560,
          "time": 468.8,
          "velocity": 0.4015748031496063
        },
        {
          "duration": 0.06666666666666288,
          "durationTicks": 80,
          "midi": 64,
          "name": "E4",
          "ticks": 563280,
          "time": 469.40000000000003,
          "velocity": 0.4015748031496063
        },
        {
          "duration": 0.06666666666660603,
          "durationTicks": 80,
          "midi": 65,
          "name": "F4",
          "ticks": 563360,
          "time": 469.4666666666667,
          "velocity": 0.4015748031496063
        },
        {
          "duration": 0.06666666666671972,
          "durationTicks": 80,
          "midi": 67,
          "name": "G4",
          "ticks": 563440,
          "time": 469.5333333333333,
          "velocity": 0.4015748031496063
        },
        {
          "duration": 0.3333333333333144,
          "durationTicks": 400,
          "midi": 69,
          "name": "A4",
          "ticks": 563520,
          "time": 469.6,
          "velocity": 0.4015748031496063
        },
        {
          "duration": 0.06666666666666288,
          "durationTicks": 80,
          "midi": 69,
          "name": "A4",
          "ticks": 564240,
          "time": 470.20000000000005,
          "velocity": 0.4015748031496063
        },
        {
          "duration": 0.06666666666660603,
          "durationTicks": 80,
          "midi": 71,
          "name": "B4",
          "ticks": 564320,
          "time": 470.2666666666667,
          "velocity": 0.4015748031496063
        },
        {
          "duration": 0.06666666666671972,
          "durationTicks": 80,
          "midi": 73,
          "name": "C#5",
          "ticks": 564400,
          "time": 470.3333333333333,
          "velocity": 0.4015748031496063
        },
        {
          "duration": 0.3333333333333144,
          "durationTicks": 400,
          "midi": 74,
          "name": "D5",
          "ticks": 564480,
          "time": 470.40000000000003,
          "velocity": 0.4015748031496063
        },
        {
          "duration": 0.06666666666671972,
          "durationTicks": 80,
          "midi": 64,
          "name": "E4",
          "ticks": 565200,
          "time": 471,
          "velocity": 0.4015748031496063
        },
        {
          "duration": 0.06666666666660603,
          "durationTicks": 80,
          "midi": 65,
          "name": "F4",
          "ticks": 565280,
          "time": 471.0666666666667,
          "velocity": 0.4015748031496063
        },
        {
          "duration": 0.06666666666671972,
          "durationTicks": 80,
          "midi": 67,
          "name": "G4",
          "ticks": 565360,
          "time": 471.1333333333333,
          "velocity": 0.4015748031496063
        },
        {
          "duration": 0.33333333333325754,
          "durationTicks": 400,
          "midi": 68,
          "name": "G#4",
          "ticks": 565440,
          "time": 471.20000000000005,
          "velocity": 0.4015748031496063
        },
        {
          "duration": 0.05000000000001137,
          "durationTicks": 60,
          "midi": 65,
          "name": "F4",
          "ticks": 566160,
          "time": 471.8,
          "velocity": 0.4015748031496063
        },
        {
          "duration": 0.05000000000001137,
          "durationTicks": 60,
          "midi": 63,
          "name": "D#4",
          "ticks": 566220,
          "time": 471.85,
          "velocity": 0.4015748031496063
        },
        {
          "duration": 0.05000000000001137,
          "durationTicks": 60,
          "midi": 62,
          "name": "D4",
          "ticks": 566280,
          "time": 471.90000000000003,
          "velocity": 0.4015748031496063
        },
        {
          "duration": 0.049999999999954525,
          "durationTicks": 60,
          "midi": 60,
          "name": "C4",
          "ticks": 566340,
          "time": 471.95000000000005,
          "velocity": 0.4015748031496063
        },
        {
          "duration": 0.3333333333333144,
          "durationTicks": 400,
          "midi": 59,
          "name": "B3",
          "ticks": 566400,
          "time": 472,
          "velocity": 0.4015748031496063
        },
        {
          "duration": 0.06666666666671972,
          "durationTicks": 80,
          "midi": 62,
          "name": "D4",
          "ticks": 567120,
          "time": 472.6,
          "velocity": 0.4015748031496063
        },
        {
          "duration": 0.06666666666660603,
          "durationTicks": 80,
          "midi": 64,
          "name": "E4",
          "ticks": 567200,
          "time": 472.66666666666674,
          "velocity": 0.4015748031496063
        },
        {
          "duration": 0.06666666666666288,
          "durationTicks": 80,
          "midi": 66,
          "name": "F#4",
          "ticks": 567280,
          "time": 472.73333333333335,
          "velocity": 0.4015748031496063
        },
        {
          "duration": 0.3333333333333144,
          "durationTicks": 400,
          "midi": 67,
          "name": "G4",
          "ticks": 567360,
          "time": 472.8,
          "velocity": 0.4015748031496063
        },
        {
          "duration": 0.06666666666666288,
          "durationTicks": 80,
          "midi": 67,
          "name": "G4",
          "ticks": 568080,
          "time": 473.40000000000003,
          "velocity": 0.4015748031496063
        },
        {
          "duration": 0.06666666666660603,
          "durationTicks": 80,
          "midi": 69,
          "name": "A4",
          "ticks": 568160,
          "time": 473.4666666666667,
          "velocity": 0.4015748031496063
        },
        {
          "duration": 0.06666666666671972,
          "durationTicks": 80,
          "midi": 71,
          "name": "B4",
          "ticks": 568240,
          "time": 473.5333333333333,
          "velocity": 0.4015748031496063
        },
        {
          "duration": 0.3333333333333144,
          "durationTicks": 400,
          "midi": 72,
          "name": "C5",
          "ticks": 568320,
          "time": 473.6,
          "velocity": 0.4015748031496063
        },
        {
          "duration": 0.06666666666666288,
          "durationTicks": 80,
          "midi": 67,
          "name": "G4",
          "ticks": 569040,
          "time": 474.20000000000005,
          "velocity": 0.4015748031496063
        },
        {
          "duration": 0.06666666666660603,
          "durationTicks": 80,
          "midi": 69,
          "name": "A4",
          "ticks": 569120,
          "time": 474.2666666666667,
          "velocity": 0.4015748031496063
        },
        {
          "duration": 0.06666666666671972,
          "durationTicks": 80,
          "midi": 71,
          "name": "B4",
          "ticks": 569200,
          "time": 474.3333333333333,
          "velocity": 0.4015748031496063
        },
        {
          "duration": 0.3333333333333144,
          "durationTicks": 400,
          "midi": 72,
          "name": "C5",
          "ticks": 569280,
          "time": 474.40000000000003,
          "velocity": 0.4015748031496063
        },
        {
          "duration": 0.05000000000001137,
          "durationTicks": 60,
          "midi": 72,
          "name": "C5",
          "ticks": 570000,
          "time": 475,
          "velocity": 0.4015748031496063
        },
        {
          "duration": 0.05000000000001137,
          "durationTicks": 60,
          "midi": 70,
          "name": "A#4",
          "ticks": 570060,
          "time": 475.05,
          "velocity": 0.4015748031496063
        },
        {
          "duration": 0.05000000000001137,
          "durationTicks": 60,
          "midi": 68,
          "name": "G#4",
          "ticks": 570120,
          "time": 475.1,
          "velocity": 0.4015748031496063
        },
        {
          "duration": 0.05000000000001137,
          "durationTicks": 60,
          "midi": 67,
          "name": "G4",
          "ticks": 570180,
          "time": 475.15000000000003,
          "velocity": 0.4015748031496063
        },
        {
          "duration": 0.33333333333325754,
          "durationTicks": 400,
          "midi": 66,
          "name": "F#4",
          "ticks": 570240,
          "time": 475.20000000000005,
          "velocity": 0.4015748031496063
        },
        {
          "duration": 0.06666666666671972,
          "durationTicks": 80,
          "midi": 71,
          "name": "B4",
          "ticks": 570960,
          "time": 475.8,
          "velocity": 0.4015748031496063
        },
        {
          "duration": 0.06666666666660603,
          "durationTicks": 80,
          "midi": 72,
          "name": "C5",
          "ticks": 571040,
          "time": 475.86666666666673,
          "velocity": 0.4015748031496063
        },
        {
          "duration": 0.06666666666666288,
          "durationTicks": 80,
          "midi": 74,
          "name": "D5",
          "ticks": 571120,
          "time": 475.93333333333334,
          "velocity": 0.4015748031496063
        },
        {
          "duration": 0.3333333333333144,
          "durationTicks": 400,
          "midi": 75,
          "name": "D#5",
          "ticks": 571200,
          "time": 476,
          "velocity": 0.4015748031496063
        },
        {
          "duration": 0.06666666666671972,
          "durationTicks": 80,
          "midi": 63,
          "name": "D#4",
          "ticks": 571920,
          "time": 476.6,
          "velocity": 0.4015748031496063
        },
        {
          "duration": 0.06666666666660603,
          "durationTicks": 80,
          "midi": 62,
          "name": "D4",
          "ticks": 572000,
          "time": 476.66666666666674,
          "velocity": 0.4015748031496063
        },
        {
          "duration": 0.06666666666666288,
          "durationTicks": 80,
          "midi": 60,
          "name": "C4",
          "ticks": 572080,
          "time": 476.73333333333335,
          "velocity": 0.4015748031496063
        },
        {
          "duration": 0.3333333333333144,
          "durationTicks": 400,
          "midi": 59,
          "name": "B3",
          "ticks": 572160,
          "time": 476.8,
          "velocity": 0.4015748031496063
        },
        {
          "duration": 0.33333333333325754,
          "durationTicks": 400,
          "midi": 62,
          "name": "D4",
          "ticks": 572640,
          "time": 477.20000000000005,
          "velocity": 0.4015748031496063
        },
        {
          "duration": 0.33333333333325754,
          "durationTicks": 400,
          "midi": 71,
          "name": "B4",
          "ticks": 572640,
          "time": 477.20000000000005,
          "velocity": 0.4015748031496063
        },
        {
          "duration": 0.33333333333325754,
          "durationTicks": 400,
          "midi": 79,
          "name": "G5",
          "ticks": 572640,
          "time": 477.20000000000005,
          "velocity": 0.4015748031496063
        },
        {
          "duration": 0.3333333333333144,
          "durationTicks": 400,
          "midi": 62,
          "name": "D4",
          "ticks": 573600,
          "time": 478,
          "velocity": 0.4015748031496063
        },
        {
          "duration": 0.3333333333333144,
          "durationTicks": 400,
          "midi": 72,
          "name": "C5",
          "ticks": 573600,
          "time": 478,
          "velocity": 0.4015748031496063
        },
        {
          "duration": 0.3333333333333144,
          "durationTicks": 400,
          "midi": 62,
          "name": "D4",
          "ticks": 574080,
          "time": 478.40000000000003,
          "velocity": 0.4015748031496063
        },
        {
          "duration": 0.3333333333333144,
          "durationTicks": 400,
          "midi": 71,
          "name": "B4",
          "ticks": 574080,
          "time": 478.40000000000003,
          "velocity": 0.4015748031496063
        },
        {
          "duration": 0.3333333333333144,
          "durationTicks": 400,
          "midi": 62,
          "name": "D4",
          "ticks": 574560,
          "time": 478.8,
          "velocity": 0.4015748031496063
        },
        {
          "duration": 0.3333333333333144,
          "durationTicks": 400,
          "midi": 71,
          "name": "B4",
          "ticks": 574560,
          "time": 478.8,
          "velocity": 0.4015748031496063
        },
        {
          "duration": 0.3333333333333144,
          "durationTicks": 400,
          "midi": 79,
          "name": "G5",
          "ticks": 574560,
          "time": 478.8,
          "velocity": 0.4015748031496063
        },
        {
          "duration": 0.3333333333333144,
          "durationTicks": 400,
          "midi": 62,
          "name": "D4",
          "ticks": 575520,
          "time": 479.6,
          "velocity": 0.4015748031496063
        },
        {
          "duration": 0.3333333333333144,
          "durationTicks": 400,
          "midi": 72,
          "name": "C5",
          "ticks": 575520,
          "time": 479.6,
          "velocity": 0.4015748031496063
        },
        {
          "duration": 0.3333333333333144,
          "durationTicks": 400,
          "midi": 62,
          "name": "D4",
          "ticks": 576000,
          "time": 480,
          "velocity": 0.4015748031496063
        },
        {
          "duration": 0.3333333333333144,
          "durationTicks": 400,
          "midi": 71,
          "name": "B4",
          "ticks": 576000,
          "time": 480,
          "velocity": 0.4015748031496063
        },
        {
          "duration": 0.10000000000002274,
          "durationTicks": 120,
          "midi": 72,
          "name": "C5",
          "ticks": 576960,
          "time": 480.8,
          "velocity": 0.4015748031496063
        },
        {
          "duration": 0.0999999999999659,
          "durationTicks": 120,
          "midi": 72,
          "name": "C5",
          "ticks": 577440,
          "time": 481.20000000000005,
          "velocity": 0.4015748031496063
        },
        {
          "duration": 0.10000000000002274,
          "durationTicks": 120,
          "midi": 71,
          "name": "B4",
          "ticks": 577920,
          "time": 481.6,
          "velocity": 0.4015748031496063
        },
        {
          "duration": 0.0999999999999659,
          "durationTicks": 120,
          "midi": 72,
          "name": "C5",
          "ticks": 578880,
          "time": 482.40000000000003,
          "velocity": 0.4015748031496063
        },
        {
          "duration": 0.10000000000002274,
          "durationTicks": 120,
          "midi": 72,
          "name": "C5",
          "ticks": 579360,
          "time": 482.8,
          "velocity": 0.4015748031496063
        },
        {
          "duration": 0.0999999999999659,
          "durationTicks": 120,
          "midi": 71,
          "name": "B4",
          "ticks": 579840,
          "time": 483.20000000000005,
          "velocity": 0.4015748031496063
        },
        {
          "duration": 0.06666666666671972,
          "durationTicks": 80,
          "midi": 72,
          "name": "C5",
          "ticks": 589200,
          "time": 491,
          "velocity": 0.4015748031496063
        },
        {
          "duration": 0.06666666666666288,
          "durationTicks": 80,
          "midi": 71,
          "name": "B4",
          "ticks": 589440,
          "time": 491.20000000000005,
          "velocity": 0.4015748031496063
        },
        {
          "duration": 0.06666666666666288,
          "durationTicks": 80,
          "midi": 69,
          "name": "A4",
          "ticks": 589680,
          "time": 491.40000000000003,
          "velocity": 0.4015748031496063
        },
        {
          "duration": 0.06666666666671972,
          "durationTicks": 80,
          "midi": 67,
          "name": "G4",
          "ticks": 589920,
          "time": 491.6,
          "velocity": 0.4015748031496063
        },
        {
          "duration": 0.06666666666671972,
          "durationTicks": 80,
          "midi": 65,
          "name": "F4",
          "ticks": 590160,
          "time": 491.8,
          "velocity": 0.4015748031496063
        },
        {
          "duration": 0.06666666666671972,
          "durationTicks": 80,
          "midi": 64,
          "name": "E4",
          "ticks": 590400,
          "time": 492,
          "velocity": 0.4015748031496063
        },
        {
          "duration": 0.06666666666666288,
          "durationTicks": 80,
          "midi": 62,
          "name": "D4",
          "ticks": 590640,
          "time": 492.20000000000005,
          "velocity": 0.4015748031496063
        },
        {
          "duration": 0.06666666666666288,
          "durationTicks": 80,
          "midi": 60,
          "name": "C4",
          "ticks": 590880,
          "time": 492.40000000000003,
          "velocity": 0.4015748031496063
        },
        {
          "duration": 0.06666666666671972,
          "durationTicks": 80,
          "midi": 59,
          "name": "B3",
          "ticks": 591120,
          "time": 492.6,
          "velocity": 0.4015748031496063
        },
        {
          "duration": 0.3333333333333144,
          "durationTicks": 400,
          "midi": 60,
          "name": "C4",
          "ticks": 591360,
          "time": 492.8,
          "velocity": 0.8267716535433071
        },
        {
          "duration": 0.06666666666666288,
          "durationTicks": 80,
          "midi": 55,
          "name": "G3",
          "ticks": 592080,
          "time": 493.40000000000003,
          "velocity": 0.8267716535433071
        },
        {
          "duration": 0.06666666666660603,
          "durationTicks": 80,
          "midi": 57,
          "name": "A3",
          "ticks": 592160,
          "time": 493.4666666666667,
          "velocity": 0.8267716535433071
        },
        {
          "duration": 0.06666666666671972,
          "durationTicks": 80,
          "midi": 59,
          "name": "B3",
          "ticks": 592240,
          "time": 493.5333333333333,
          "velocity": 0.8267716535433071
        },
        {
          "duration": 0.3333333333333144,
          "durationTicks": 400,
          "midi": 60,
          "name": "C4",
          "ticks": 592320,
          "time": 493.6,
          "velocity": 0.8267716535433071
        },
        {
          "duration": 0.06666666666666288,
          "durationTicks": 80,
          "midi": 55,
          "name": "G3",
          "ticks": 593040,
          "time": 494.20000000000005,
          "velocity": 0.8267716535433071
        },
        {
          "duration": 0.06666666666660603,
          "durationTicks": 80,
          "midi": 57,
          "name": "A3",
          "ticks": 593120,
          "time": 494.2666666666667,
          "velocity": 0.8267716535433071
        },
        {
          "duration": 0.06666666666671972,
          "durationTicks": 80,
          "midi": 59,
          "name": "B3",
          "ticks": 593200,
          "time": 494.3333333333333,
          "velocity": 0.8267716535433071
        },
        {
          "duration": 0.3333333333333144,
          "durationTicks": 400,
          "midi": 60,
          "name": "C4",
          "ticks": 593280,
          "time": 494.40000000000003,
          "velocity": 0.8267716535433071
        },
        {
          "duration": 0.8000000000000114,
          "durationTicks": 960,
          "midi": 65,
          "name": "F4",
          "ticks": 595200,
          "time": 496,
          "velocity": 0.4015748031496063
        },
        {
          "duration": 0.6999999999999886,
          "durationTicks": 840,
          "midi": 64,
          "name": "E4",
          "ticks": 596160,
          "time": 496.8,
          "velocity": 0.4015748031496063
        },
        {
          "duration": 1.1000000000000227,
          "durationTicks": 1320,
          "midi": 62,
          "name": "D4",
          "ticks": 597120,
          "time": 497.6,
          "velocity": 0.4015748031496063
        },
        {
          "duration": 0.33333333333325754,
          "durationTicks": 400,
          "midi": 55,
          "name": "G3",
          "ticks": 599040,
          "time": 499.20000000000005,
          "velocity": 0.8267716535433071
        },
        {
          "duration": 0.33333333333325754,
          "durationTicks": 400,
          "midi": 67,
          "name": "G4",
          "ticks": 599040,
          "time": 499.20000000000005,
          "velocity": 0.8267716535433071
        },
        {
          "duration": 0.06666666666671972,
          "durationTicks": 80,
          "midi": 62,
          "name": "D4",
          "ticks": 599760,
          "time": 499.8,
          "velocity": 0.8267716535433071
        },
        {
          "duration": 0.06666666666660603,
          "durationTicks": 80,
          "midi": 64,
          "name": "E4",
          "ticks": 599840,
          "time": 499.86666666666673,
          "velocity": 0.8267716535433071
        },
        {
          "duration": 0.06666666666666288,
          "durationTicks": 80,
          "midi": 66,
          "name": "F#4",
          "ticks": 599920,
          "time": 499.93333333333334,
          "velocity": 0.8267716535433071
        },
        {
          "duration": 0.3333333333333144,
          "durationTicks": 400,
          "midi": 67,
          "name": "G4",
          "ticks": 600000,
          "time": 500,
          "velocity": 0.8267716535433071
        },
        {
          "duration": 0.06666666666671972,
          "durationTicks": 80,
          "midi": 62,
          "name": "D4",
          "ticks": 600720,
          "time": 500.6,
          "velocity": 0.8267716535433071
        },
        {
          "duration": 0.06666666666660603,
          "durationTicks": 80,
          "midi": 64,
          "name": "E4",
          "ticks": 600800,
          "time": 500.66666666666674,
          "velocity": 0.8267716535433071
        },
        {
          "duration": 0.06666666666666288,
          "durationTicks": 80,
          "midi": 66,
          "name": "F#4",
          "ticks": 600880,
          "time": 500.73333333333335,
          "velocity": 0.8267716535433071
        },
        {
          "duration": 0.3333333333333144,
          "durationTicks": 400,
          "midi": 67,
          "name": "G4",
          "ticks": 600960,
          "time": 500.8,
          "velocity": 0.8267716535433071
        },
        {
          "duration": 0.8000000000000114,
          "durationTicks": 960,
          "midi": 67,
          "name": "G4",
          "ticks": 602880,
          "time": 502.40000000000003,
          "velocity": 0.4015748031496063
        },
        {
          "duration": 0.6999999999999886,
          "durationTicks": 840,
          "midi": 71,
          "name": "B4",
          "ticks": 603840,
          "time": 503.20000000000005,
          "velocity": 0.4015748031496063
        },
        {
          "duration": 0.8000000000000114,
          "durationTicks": 960,
          "midi": 77,
          "name": "F5",
          "ticks": 604800,
          "time": 504,
          "velocity": 0.4015748031496063
        },
        {
          "duration": 0.3333333333333144,
          "durationTicks": 400,
          "midi": 76,
          "name": "E5",
          "ticks": 605760,
          "time": 504.8,
          "velocity": 0.4015748031496063
        },
        {
          "duration": 0.049999999999954525,
          "durationTicks": 60,
          "midi": 67,
          "name": "G4",
          "ticks": 607440,
          "time": 506.20000000000005,
          "velocity": 0.8267716535433071
        },
        {
          "duration": 0.05000000000001137,
          "durationTicks": 60,
          "midi": 65,
          "name": "F4",
          "ticks": 607500,
          "time": 506.25,
          "velocity": 0.8267716535433071
        },
        {
          "duration": 0.05000000000001137,
          "durationTicks": 60,
          "midi": 64,
          "name": "E4",
          "ticks": 607560,
          "time": 506.3,
          "velocity": 0.8267716535433071
        },
        {
          "duration": 0.05000000000001137,
          "durationTicks": 60,
          "midi": 62,
          "name": "D4",
          "ticks": 607620,
          "time": 506.35,
          "velocity": 0.8267716535433071
        },
        {
          "duration": 0.3333333333333144,
          "durationTicks": 400,
          "midi": 60,
          "name": "C4",
          "ticks": 607680,
          "time": 506.40000000000003,
          "velocity": 0.8267716535433071
        },
        {
          "duration": 0.05000000000001137,
          "durationTicks": 60,
          "midi": 72,
          "name": "C5",
          "ticks": 609360,
          "time": 507.8,
          "velocity": 0.8267716535433071
        },
        {
          "duration": 0.05000000000001137,
          "durationTicks": 60,
          "midi": 70,
          "name": "A#4",
          "ticks": 609420,
          "time": 507.85,
          "velocity": 0.8267716535433071
        },
        {
          "duration": 0.05000000000001137,
          "durationTicks": 60,
          "midi": 69,
          "name": "A4",
          "ticks": 609480,
          "time": 507.90000000000003,
          "velocity": 0.8267716535433071
        },
        {
          "duration": 0.049999999999954525,
          "durationTicks": 60,
          "midi": 67,
          "name": "G4",
          "ticks": 609540,
          "time": 507.95000000000005,
          "velocity": 0.8267716535433071
        },
        {
          "duration": 0.3333333333333144,
          "durationTicks": 400,
          "midi": 65,
          "name": "F4",
          "ticks": 609600,
          "time": 508,
          "velocity": 0.8267716535433071
        },
        {
          "duration": 0.05000000000001137,
          "durationTicks": 60,
          "midi": 74,
          "name": "D5",
          "ticks": 611280,
          "time": 509.40000000000003,
          "velocity": 0.8267716535433071
        },
        {
          "duration": 0.049999999999954525,
          "durationTicks": 60,
          "midi": 72,
          "name": "C5",
          "ticks": 611340,
          "time": 509.45000000000005,
          "velocity": 0.8267716535433071
        },
        {
          "duration": 0.05000000000001137,
          "durationTicks": 60,
          "midi": 71,
          "name": "B4",
          "ticks": 611400,
          "time": 509.5,
          "velocity": 0.8267716535433071
        },
        {
          "duration": 0.05000000000001137,
          "durationTicks": 60,
          "midi": 69,
          "name": "A4",
          "ticks": 611460,
          "time": 509.55,
          "velocity": 0.8267716535433071
        },
        {
          "duration": 0.3333333333333144,
          "durationTicks": 400,
          "midi": 67,
          "name": "G4",
          "ticks": 611520,
          "time": 509.6,
          "velocity": 0.8267716535433071
        },
        {
          "duration": 0.05000000000001137,
          "durationTicks": 60,
          "midi": 79,
          "name": "G5",
          "ticks": 613200,
          "time": 511,
          "velocity": 0.8267716535433071
        },
        {
          "duration": 0.05000000000001137,
          "durationTicks": 60,
          "midi": 77,
          "name": "F5",
          "ticks": 613260,
          "time": 511.05,
          "velocity": 0.8267716535433071
        },
        {
          "duration": 0.05000000000001137,
          "durationTicks": 60,
          "midi": 76,
          "name": "E5",
          "ticks": 613320,
          "time": 511.1,
          "velocity": 0.8267716535433071
        },
        {
          "duration": 0.05000000000001137,
          "durationTicks": 60,
          "midi": 74,
          "name": "D5",
          "ticks": 613380,
          "time": 511.15000000000003,
          "velocity": 0.8267716535433071
        },
        {
          "duration": 0.33333333333325754,
          "durationTicks": 400,
          "midi": 72,
          "name": "C5",
          "ticks": 613440,
          "time": 511.20000000000005,
          "velocity": 0.8267716535433071
        },
        {
          "duration": 0.049999999999954525,
          "durationTicks": 60,
          "midi": 72,
          "name": "C5",
          "ticks": 615120,
          "time": 512.6,
          "velocity": 0.8267716535433071
        },
        {
          "duration": 0.05000000000006821,
          "durationTicks": 60,
          "midi": 70,
          "name": "A#4",
          "ticks": 615180,
          "time": 512.65,
          "velocity": 0.8267716535433071
        },
        {
          "duration": 0.049999999999954525,
          "durationTicks": 60,
          "midi": 69,
          "name": "A4",
          "ticks": 615240,
          "time": 512.7,
          "velocity": 0.8267716535433071
        },
        {
          "duration": 0.05000000000006821,
          "durationTicks": 60,
          "midi": 67,
          "name": "G4",
          "ticks": 615300,
          "time": 512.75,
          "velocity": 0.8267716535433071
        },
        {
          "duration": 0.33333333333325754,
          "durationTicks": 400,
          "midi": 65,
          "name": "F4",
          "ticks": 615360,
          "time": 512.8000000000001,
          "velocity": 0.8267716535433071
        },
        {
          "duration": 0.049999999999954525,
          "durationTicks": 60,
          "midi": 74,
          "name": "D5",
          "ticks": 617040,
          "time": 514.2,
          "velocity": 0.8267716535433071
        },
        {
          "duration": 0.05000000000006821,
          "durationTicks": 60,
          "midi": 72,
          "name": "C5",
          "ticks": 617100,
          "time": 514.25,
          "velocity": 0.8267716535433071
        },
        {
          "duration": 0.049999999999954525,
          "durationTicks": 60,
          "midi": 71,
          "name": "B4",
          "ticks": 617160,
          "time": 514.3000000000001,
          "velocity": 0.8267716535433071
        },
        {
          "duration": 0.049999999999954525,
          "durationTicks": 60,
          "midi": 69,
          "name": "A4",
          "ticks": 617220,
          "time": 514.35,
          "velocity": 0.8267716535433071
        },
        {
          "duration": 0.33333333333337123,
          "durationTicks": 400,
          "midi": 67,
          "name": "G4",
          "ticks": 617280,
          "time": 514.4,
          "velocity": 0.8267716535433071
        },
        {
          "duration": 0.33333333333325754,
          "durationTicks": 400,
          "midi": 72,
          "name": "C5",
          "ticks": 618240,
          "time": 515.2,
          "velocity": 0.8267716535433071
        },
        {
          "duration": 0.049999999999954525,
          "durationTicks": 60,
          "midi": 77,
          "name": "F5",
          "ticks": 618960,
          "time": 515.8000000000001,
          "velocity": 0.8267716535433071
        },
        {
          "duration": 0.049999999999954525,
          "durationTicks": 60,
          "midi": 76,
          "name": "E5",
          "ticks": 619020,
          "time": 515.85,
          "velocity": 0.8267716535433071
        },
        {
          "duration": 0.05000000000006821,
          "durationTicks": 60,
          "midi": 74,
          "name": "D5",
          "ticks": 619080,
          "time": 515.9,
          "velocity": 0.8267716535433071
        },
        {
          "duration": 0.049999999999954525,
          "durationTicks": 60,
          "midi": 72,
          "name": "C5",
          "ticks": 619140,
          "time": 515.95,
          "velocity": 0.8267716535433071
        },
        {
          "duration": 0.33333333333337123,
          "durationTicks": 400,
          "midi": 71,
          "name": "B4",
          "ticks": 619200,
          "time": 516,
          "velocity": 0.8267716535433071
        },
        {
          "duration": 0.049999999999954525,
          "durationTicks": 60,
          "midi": 79,
          "name": "G5",
          "ticks": 619920,
          "time": 516.6,
          "velocity": 0.8267716535433071
        },
        {
          "duration": 0.05000000000006821,
          "durationTicks": 60,
          "midi": 77,
          "name": "F5",
          "ticks": 619980,
          "time": 516.65,
          "velocity": 0.8267716535433071
        },
        {
          "duration": 0.049999999999954525,
          "durationTicks": 60,
          "midi": 76,
          "name": "E5",
          "ticks": 620040,
          "time": 516.7,
          "velocity": 0.8267716535433071
        },
        {
          "duration": 0.05000000000006821,
          "durationTicks": 60,
          "midi": 74,
          "name": "D5",
          "ticks": 620100,
          "time": 516.75,
          "velocity": 0.8267716535433071
        },
        {
          "duration": 0.33333333333325754,
          "durationTicks": 400,
          "midi": 76,
          "name": "E5",
          "ticks": 620160,
          "time": 516.8000000000001,
          "velocity": 0.8267716535433071
        },
        {
          "duration": 0.05000000000006821,
          "durationTicks": 60,
          "midi": 77,
          "name": "F5",
          "ticks": 620880,
          "time": 517.4,
          "velocity": 0.8267716535433071
        },
        {
          "duration": 0.049999999999954525,
          "durationTicks": 60,
          "midi": 76,
          "name": "E5",
          "ticks": 620940,
          "time": 517.45,
          "velocity": 0.8267716535433071
        },
        {
          "duration": 0.05000000000006821,
          "durationTicks": 60,
          "midi": 74,
          "name": "D5",
          "ticks": 621000,
          "time": 517.5,
          "velocity": 0.8267716535433071
        },
        {
          "duration": 0.049999999999954525,
          "durationTicks": 60,
          "midi": 72,
          "name": "C5",
          "ticks": 621060,
          "time": 517.5500000000001,
          "velocity": 0.8267716535433071
        },
        {
          "duration": 0.33333333333325754,
          "durationTicks": 400,
          "midi": 71,
          "name": "B4",
          "ticks": 621120,
          "time": 517.6,
          "velocity": 0.8267716535433071
        },
        {
          "duration": 0.049999999999954525,
          "durationTicks": 60,
          "midi": 79,
          "name": "G5",
          "ticks": 621840,
          "time": 518.2,
          "velocity": 0.8267716535433071
        },
        {
          "duration": 0.05000000000006821,
          "durationTicks": 60,
          "midi": 77,
          "name": "F5",
          "ticks": 621900,
          "time": 518.25,
          "velocity": 0.8267716535433071
        },
        {
          "duration": 0.049999999999954525,
          "durationTicks": 60,
          "midi": 76,
          "name": "E5",
          "ticks": 621960,
          "time": 518.3000000000001,
          "velocity": 0.8267716535433071
        },
        {
          "duration": 0.049999999999954525,
          "durationTicks": 60,
          "midi": 74,
          "name": "D5",
          "ticks": 622020,
          "time": 518.35,
          "velocity": 0.8267716535433071
        },
        {
          "duration": 0.33333333333337123,
          "durationTicks": 400,
          "midi": 76,
          "name": "E5",
          "ticks": 622080,
          "time": 518.4,
          "velocity": 0.8267716535433071
        },
        {
          "duration": 0.33333333333325754,
          "durationTicks": 400,
          "midi": 79,
          "name": "G5",
          "ticks": 622560,
          "time": 518.8000000000001,
          "velocity": 0.8267716535433071
        },
        {
          "duration": 0.33333333333325754,
          "durationTicks": 400,
          "midi": 84,
          "name": "C6",
          "ticks": 623040,
          "time": 519.2,
          "velocity": 0.8267716535433071
        },
        {
          "duration": 0.33333333333325754,
          "durationTicks": 400,
          "midi": 79,
          "name": "G5",
          "ticks": 623520,
          "time": 519.6,
          "velocity": 0.8267716535433071
        },
        {
          "duration": 0.33333333333337123,
          "durationTicks": 400,
          "midi": 84,
          "name": "C6",
          "ticks": 624000,
          "time": 520,
          "velocity": 0.8267716535433071
        },
        {
          "duration": 0.33333333333337123,
          "durationTicks": 400,
          "midi": 79,
          "name": "G5",
          "ticks": 624480,
          "time": 520.4,
          "velocity": 0.8267716535433071
        },
        {
          "duration": 0.33333333333325754,
          "durationTicks": 400,
          "midi": 76,
          "name": "E5",
          "ticks": 624960,
          "time": 520.8000000000001,
          "velocity": 0.8267716535433071
        },
        {
          "duration": 0.33333333333325754,
          "durationTicks": 400,
          "midi": 72,
          "name": "C5",
          "ticks": 625440,
          "time": 521.2,
          "velocity": 0.8267716535433071
        },
        {
          "duration": 0.33333333333325754,
          "durationTicks": 400,
          "midi": 67,
          "name": "G4",
          "ticks": 625920,
          "time": 521.6,
          "velocity": 0.8267716535433071
        },
        {
          "duration": 0.1966666666666015,
          "durationTicks": 236,
          "midi": 74,
          "name": "D5",
          "ticks": 626640,
          "time": 522.2,
          "velocity": 0.8267716535433071
        },
        {
          "duration": 0.33333333333337123,
          "durationTicks": 400,
          "midi": 76,
          "name": "E5",
          "ticks": 626880,
          "time": 522.4,
          "velocity": 0.8267716535433071
        },
        {
          "duration": 0.1966666666666015,
          "durationTicks": 236,
          "midi": 76,
          "name": "E5",
          "ticks": 627600,
          "time": 523,
          "velocity": 0.8267716535433071
        },
        {
          "duration": 0.33333333333325754,
          "durationTicks": 400,
          "midi": 74,
          "name": "D5",
          "ticks": 627840,
          "time": 523.2,
          "velocity": 0.8267716535433071
        },
        {
          "duration": 0.1966666666666015,
          "durationTicks": 236,
          "midi": 74,
          "name": "D5",
          "ticks": 628560,
          "time": 523.8000000000001,
          "velocity": 0.8267716535433071
        },
        {
          "duration": 0.33333333333337123,
          "durationTicks": 400,
          "midi": 76,
          "name": "E5",
          "ticks": 628800,
          "time": 524,
          "velocity": 0.8267716535433071
        },
        {
          "duration": 0.1966666666666015,
          "durationTicks": 236,
          "midi": 76,
          "name": "E5",
          "ticks": 629520,
          "time": 524.6,
          "velocity": 0.8267716535433071
        },
        {
          "duration": 0.1966666666666015,
          "durationTicks": 236,
          "midi": 74,
          "name": "D5",
          "ticks": 629760,
          "time": 524.8000000000001,
          "velocity": 0.8267716535433071
        },
        {
          "duration": 0.1966666666666015,
          "durationTicks": 236,
          "midi": 76,
          "name": "E5",
          "ticks": 630000,
          "time": 525,
          "velocity": 0.8346456692913385
        },
        {
          "duration": 0.1966666666666015,
          "durationTicks": 236,
          "midi": 74,
          "name": "D5",
          "ticks": 630240,
          "time": 525.2,
          "velocity": 0.8503937007874016
        },
        {
          "duration": 0.19666666666671517,
          "durationTicks": 236,
          "midi": 76,
          "name": "E5",
          "ticks": 630480,
          "time": 525.4,
          "velocity": 0.8582677165354331
        },
        {
          "duration": 0.1966666666666015,
          "durationTicks": 236,
          "midi": 74,
          "name": "D5",
          "ticks": 630720,
          "time": 525.6,
          "velocity": 0.8661417322834646
        },
        {
          "duration": 0.1966666666666015,
          "durationTicks": 236,
          "midi": 76,
          "name": "E5",
          "ticks": 630960,
          "time": 525.8000000000001,
          "velocity": 0.8740157480314961
        },
        {
          "duration": 0.1966666666666015,
          "durationTicks": 236,
          "midi": 74,
          "name": "D5",
          "ticks": 631200,
          "time": 526,
          "velocity": 0.8818897637795275
        },
        {
          "duration": 0.1966666666666015,
          "durationTicks": 236,
          "midi": 76,
          "name": "E5",
          "ticks": 631440,
          "time": 526.2,
          "velocity": 0.889763779527559
        },
        {
          "duration": 0.33333333333337123,
          "durationTicks": 400,
          "midi": 74,
          "name": "D5",
          "ticks": 631680,
          "time": 526.4,
          "velocity": 0.905511811023622
        },
        {
          "duration": 0.33333333333325754,
          "durationTicks": 400,
          "midi": 62,
          "name": "D4",
          "ticks": 632160,
          "time": 526.8000000000001,
          "velocity": 0.9212598425196851
        },
        {
          "duration": 0.33333333333325754,
          "durationTicks": 400,
          "midi": 71,
          "name": "B4",
          "ticks": 632160,
          "time": 526.8000000000001,
          "velocity": 0.9212598425196851
        },
        {
          "duration": 0.33333333333325754,
          "durationTicks": 400,
          "midi": 79,
          "name": "G5",
          "ticks": 632160,
          "time": 526.8000000000001,
          "velocity": 0.9212598425196851
        },
        {
          "duration": 0.33333333333325754,
          "durationTicks": 400,
          "midi": 55,
          "name": "G3",
          "ticks": 632640,
          "time": 527.2,
          "velocity": 0.937007874015748
        },
        {
          "duration": 0.33333333333325754,
          "durationTicks": 400,
          "midi": 67,
          "name": "G4",
          "ticks": 632640,
          "time": 527.2,
          "velocity": 0.937007874015748
        },
        {
          "duration": 0.33333333333325754,
          "durationTicks": 400,
          "midi": 55,
          "name": "G3",
          "ticks": 633120,
          "time": 527.6,
          "velocity": 0.952755905511811
        },
        {
          "duration": 0.33333333333325754,
          "durationTicks": 400,
          "midi": 67,
          "name": "G4",
          "ticks": 633120,
          "time": 527.6,
          "velocity": 0.952755905511811
        },
        {
          "duration": 1.5,
          "durationTicks": 1800,
          "midi": 55,
          "name": "G3",
          "ticks": 633600,
          "time": 528,
          "velocity": 0.9763779527559056
        },
        {
          "duration": 1.5,
          "durationTicks": 1800,
          "midi": 67,
          "name": "G4",
          "ticks": 633600,
          "time": 528,
          "velocity": 0.9763779527559056
        },
        {
          "duration": 0.33333333333325754,
          "durationTicks": 400,
          "midi": 60,
          "name": "C4",
          "ticks": 635520,
          "time": 529.6,
          "velocity": 0.4015748031496063
        },
        {
          "duration": 0.06666666666671972,
          "durationTicks": 80,
          "midi": 55,
          "name": "G3",
          "ticks": 636240,
          "time": 530.2,
          "velocity": 0.4015748031496063
        },
        {
          "duration": 0.06666666666660603,
          "durationTicks": 80,
          "midi": 57,
          "name": "A3",
          "ticks": 636320,
          "time": 530.2666666666668,
          "velocity": 0.4015748031496063
        },
        {
          "duration": 0.06666666666660603,
          "durationTicks": 80,
          "midi": 59,
          "name": "B3",
          "ticks": 636400,
          "time": 530.3333333333334,
          "velocity": 0.4015748031496063
        },
        {
          "duration": 0.33333333333337123,
          "durationTicks": 400,
          "midi": 60,
          "name": "C4",
          "ticks": 636480,
          "time": 530.4,
          "velocity": 0.4015748031496063
        },
        {
          "duration": 0.06666666666671972,
          "durationTicks": 80,
          "midi": 55,
          "name": "G3",
          "ticks": 637200,
          "time": 531,
          "velocity": 0.4015748031496063
        },
        {
          "duration": 0.06666666666660603,
          "durationTicks": 80,
          "midi": 57,
          "name": "A3",
          "ticks": 637280,
          "time": 531.0666666666667,
          "velocity": 0.4015748031496063
        },
        {
          "duration": 0.06666666666671972,
          "durationTicks": 80,
          "midi": 59,
          "name": "B3",
          "ticks": 637360,
          "time": 531.1333333333333,
          "velocity": 0.4015748031496063
        },
        {
          "duration": 0.33333333333325754,
          "durationTicks": 400,
          "midi": 60,
          "name": "C4",
          "ticks": 637440,
          "time": 531.2,
          "velocity": 0.4015748031496063
        },
        {
          "duration": 0.06666666666671972,
          "durationTicks": 80,
          "midi": 63,
          "name": "D#4",
          "ticks": 639120,
          "time": 532.6,
          "velocity": 0.4015748031496063
        },
        {
          "duration": 0.599999999999909,
          "durationTicks": 720,
          "midi": 63,
          "name": "D#4",
          "ticks": 639360,
          "time": 532.8000000000001,
          "velocity": 0.4015748031496063
        },
        {
          "duration": 0.20000000000004547,
          "durationTicks": 240,
          "midi": 62,
          "name": "D4",
          "ticks": 640080,
          "time": 533.4,
          "velocity": 0.4015748031496063
        },
        {
          "duration": 0.6000000000000227,
          "durationTicks": 720,
          "midi": 65,
          "name": "F4",
          "ticks": 640320,
          "time": 533.6,
          "velocity": 0.4015748031496063
        },
        {
          "duration": 0.1966666666666015,
          "durationTicks": 236,
          "midi": 63,
          "name": "D#4",
          "ticks": 641040,
          "time": 534.2,
          "velocity": 0.4015748031496063
        },
        {
          "duration": 0.8000000000000682,
          "durationTicks": 960,
          "midi": 70,
          "name": "A#4",
          "ticks": 641280,
          "time": 534.4,
          "velocity": 0.4015748031496063
        },
        {
          "duration": 0.33333333333325754,
          "durationTicks": 400,
          "midi": 68,
          "name": "G#4",
          "ticks": 642240,
          "time": 535.2,
          "velocity": 0.4015748031496063
        },
        {
          "duration": 0.33333333333337123,
          "durationTicks": 400,
          "midi": 70,
          "name": "A#4",
          "ticks": 643200,
          "time": 536,
          "velocity": 0.4015748031496063
        },
        {
          "duration": 0.06666666666671972,
          "durationTicks": 80,
          "midi": 65,
          "name": "F4",
          "ticks": 643920,
          "time": 536.6,
          "velocity": 0.4015748031496063
        },
        {
          "duration": 0.06666666666660603,
          "durationTicks": 80,
          "midi": 67,
          "name": "G4",
          "ticks": 644000,
          "time": 536.6666666666667,
          "velocity": 0.4015748031496063
        },
        {
          "duration": 0.06666666666671972,
          "durationTicks": 80,
          "midi": 69,
          "name": "A4",
          "ticks": 644080,
          "time": 536.7333333333333,
          "velocity": 0.4015748031496063
        },
        {
          "duration": 0.33333333333325754,
          "durationTicks": 400,
          "midi": 70,
          "name": "A#4",
          "ticks": 644160,
          "time": 536.8000000000001,
          "velocity": 0.4015748031496063
        },
        {
          "duration": 0.06666666666671972,
          "durationTicks": 80,
          "midi": 65,
          "name": "F4",
          "ticks": 644880,
          "time": 537.4,
          "velocity": 0.4015748031496063
        },
        {
          "duration": 0.06666666666660603,
          "durationTicks": 80,
          "midi": 67,
          "name": "G4",
          "ticks": 644960,
          "time": 537.4666666666667,
          "velocity": 0.4015748031496063
        },
        {
          "duration": 0.06666666666671972,
          "durationTicks": 80,
          "midi": 69,
          "name": "A4",
          "ticks": 645040,
          "time": 537.5333333333333,
          "velocity": 0.4015748031496063
        },
        {
          "duration": 0.33333333333325754,
          "durationTicks": 400,
          "midi": 70,
          "name": "A#4",
          "ticks": 645120,
          "time": 537.6,
          "velocity": 0.4015748031496063
        },
        {
          "duration": 0.06666666666671972,
          "durationTicks": 80,
          "midi": 65,
          "name": "F4",
          "ticks": 646800,
          "time": 539,
          "velocity": 0.4015748031496063
        },
        {
          "duration": 0.6000000000000227,
          "durationTicks": 720,
          "midi": 65,
          "name": "F4",
          "ticks": 647040,
          "time": 539.2,
          "velocity": 0.4015748031496063
        },
        {
          "duration": 0.1999999999999318,
          "durationTicks": 240,
          "midi": 64,
          "name": "E4",
          "ticks": 647760,
          "time": 539.8000000000001,
          "velocity": 0.4015748031496063
        },
        {
          "duration": 0.6000000000000227,
          "durationTicks": 720,
          "midi": 67,
          "name": "G4",
          "ticks": 648000,
          "time": 540,
          "velocity": 0.4015748031496063
        },
        {
          "duration": 0.1966666666666015,
          "durationTicks": 236,
          "midi": 65,
          "name": "F4",
          "ticks": 648720,
          "time": 540.6,
          "velocity": 0.4015748031496063
        },
        {
          "duration": 0.33333333333325754,
          "durationTicks": 400,
          "midi": 72,
          "name": "C5",
          "ticks": 648960,
          "time": 540.8000000000001,
          "velocity": 0.4015748031496063
        },
        {
          "duration": 0.7999999999999545,
          "durationTicks": 960,
          "midi": 79,
          "name": "G5",
          "ticks": 649920,
          "time": 541.6,
          "velocity": 0.4015748031496063
        },
        {
          "duration": 0.19666666666671517,
          "durationTicks": 236,
          "midi": 77,
          "name": "F5",
          "ticks": 650880,
          "time": 542.4,
          "velocity": 0.4015748031496063
        },
        {
          "duration": 0.06666666666660603,
          "durationTicks": 80,
          "midi": 72,
          "name": "C5",
          "ticks": 651360,
          "time": 542.8000000000001,
          "velocity": 0.4015748031496063
        },
        {
          "duration": 0.7999999999999545,
          "durationTicks": 960,
          "midi": 75,
          "name": "D#5",
          "ticks": 651840,
          "time": 543.2,
          "velocity": 0.4015748031496063
        },
        {
          "duration": 0.1966666666666015,
          "durationTicks": 236,
          "midi": 74,
          "name": "D5",
          "ticks": 652800,
          "time": 544,
          "velocity": 0.4015748031496063
        },
        {
          "duration": 0.06666666666671972,
          "durationTicks": 80,
          "midi": 70,
          "name": "A#4",
          "ticks": 653280,
          "time": 544.4,
          "velocity": 0.4015748031496063
        },
        {
          "duration": 0.7999999999999545,
          "durationTicks": 960,
          "midi": 74,
          "name": "D5",
          "ticks": 653760,
          "time": 544.8000000000001,
          "velocity": 0.4015748031496063
        },
        {
          "duration": 0.1966666666666015,
          "durationTicks": 236,
          "midi": 72,
          "name": "C5",
          "ticks": 654720,
          "time": 545.6,
          "velocity": 0.4015748031496063
        },
        {
          "duration": 0.06666666666671972,
          "durationTicks": 80,
          "midi": 69,
          "name": "A4",
          "ticks": 655200,
          "time": 546,
          "velocity": 0.4015748031496063
        },
        {
          "duration": 0.8000000000000682,
          "durationTicks": 960,
          "midi": 72,
          "name": "C5",
          "ticks": 655680,
          "time": 546.4,
          "velocity": 0.4015748031496063
        },
        {
          "duration": 0.1966666666666015,
          "durationTicks": 236,
          "midi": 71,
          "name": "B4",
          "ticks": 656640,
          "time": 547.2,
          "velocity": 0.4015748031496063
        },
        {
          "duration": 0.7000000000000455,
          "durationTicks": 840,
          "midi": 67,
          "name": "G4",
          "ticks": 657120,
          "time": 547.6,
          "velocity": 0.4015748031496063
        },
        {
          "duration": 0.33333333333337123,
          "durationTicks": 400,
          "midi": 67,
          "name": "G4",
          "ticks": 658080,
          "time": 548.4,
          "velocity": 0.4015748031496063
        },
        {
          "duration": 0.7999999999999545,
          "durationTicks": 960,
          "midi": 67,
          "name": "G4",
          "ticks": 658560,
          "time": 548.8000000000001,
          "velocity": 0.4015748031496063
        },
        {
          "duration": 0.7000000000000455,
          "durationTicks": 840,
          "midi": 66,
          "name": "F#4",
          "ticks": 659520,
          "time": 549.6,
          "velocity": 0.4015748031496063
        },
        {
          "duration": 0.33333333333337123,
          "durationTicks": 400,
          "midi": 59,
          "name": "B3",
          "ticks": 660480,
          "time": 550.4,
          "velocity": 0.8267716535433071
        },
        {
          "duration": 0.33333333333337123,
          "durationTicks": 400,
          "midi": 67,
          "name": "G4",
          "ticks": 660480,
          "time": 550.4,
          "velocity": 0.8267716535433071
        },
        {
          "duration": 0.06666666666671972,
          "durationTicks": 80,
          "midi": 62,
          "name": "D4",
          "ticks": 661200,
          "time": 551,
          "velocity": 0.8267716535433071
        },
        {
          "duration": 0.06666666666660603,
          "durationTicks": 80,
          "midi": 64,
          "name": "E4",
          "ticks": 661280,
          "time": 551.0666666666667,
          "velocity": 0.8267716535433071
        },
        {
          "duration": 0.06666666666671972,
          "durationTicks": 80,
          "midi": 66,
          "name": "F#4",
          "ticks": 661360,
          "time": 551.1333333333333,
          "velocity": 0.8267716535433071
        },
        {
          "duration": 0.33333333333325754,
          "durationTicks": 400,
          "midi": 67,
          "name": "G4",
          "ticks": 661440,
          "time": 551.2,
          "velocity": 0.8267716535433071
        },
        {
          "duration": 0.06666666666660603,
          "durationTicks": 80,
          "midi": 62,
          "name": "D4",
          "ticks": 662160,
          "time": 551.8000000000001,
          "velocity": 0.8267716535433071
        },
        {
          "duration": 0.06666666666660603,
          "durationTicks": 80,
          "midi": 64,
          "name": "E4",
          "ticks": 662240,
          "time": 551.8666666666667,
          "velocity": 0.8267716535433071
        },
        {
          "duration": 0.06666666666671972,
          "durationTicks": 80,
          "midi": 66,
          "name": "F#4",
          "ticks": 662320,
          "time": 551.9333333333333,
          "velocity": 0.8267716535433071
        },
        {
          "duration": 0.33333333333337123,
          "durationTicks": 400,
          "midi": 67,
          "name": "G4",
          "ticks": 662400,
          "time": 552,
          "velocity": 0.8267716535433071
        },
        {
          "duration": 0.06666666666671972,
          "durationTicks": 80,
          "midi": 59,
          "name": "B3",
          "ticks": 664080,
          "time": 553.4,
          "velocity": 0.8267716535433071
        },
        {
          "duration": 0.6000000000000227,
          "durationTicks": 720,
          "midi": 60,
          "name": "C4",
          "ticks": 664320,
          "time": 553.6,
          "velocity": 0.8267716535433071
        },
        {
          "duration": 0.1966666666666015,
          "durationTicks": 236,
          "midi": 59,
          "name": "B3",
          "ticks": 665040,
          "time": 554.2,
          "velocity": 0.8267716535433071
        },
        {
          "duration": 0.6000000000000227,
          "durationTicks": 720,
          "midi": 62,
          "name": "D4",
          "ticks": 665280,
          "time": 554.4,
          "velocity": 0.8267716535433071
        },
        {
          "duration": 0.1966666666666015,
          "durationTicks": 236,
          "midi": 60,
          "name": "C4",
          "ticks": 666000,
          "time": 555,
          "velocity": 0.8267716535433071
        },
        {
          "duration": 0.7999999999999545,
          "durationTicks": 960,
          "midi": 64,
          "name": "E4",
          "ticks": 666240,
          "time": 555.2,
          "velocity": 0.8267716535433071
        },
        {
          "duration": 0.33333333333337123,
          "durationTicks": 400,
          "midi": 62,
          "name": "D4",
          "ticks": 667200,
          "time": 556,
          "velocity": 0.8267716535433071
        },
        {
          "duration": 0.13333333333332575,
          "durationTicks": 160,
          "midi": 59,
          "name": "B3",
          "ticks": 667920,
          "time": 556.6,
          "velocity": 0.8267716535433071
        },
        {
          "duration": 0.599999999999909,
          "durationTicks": 720,
          "midi": 62,
          "name": "D4",
          "ticks": 668160,
          "time": 556.8000000000001,
          "velocity": 0.8267716535433071
        },
        {
          "duration": 0.19666666666671517,
          "durationTicks": 236,
          "midi": 60,
          "name": "C4",
          "ticks": 668880,
          "time": 557.4,
          "velocity": 0.8267716535433071
        },
        {
          "duration": 0.6000000000000227,
          "durationTicks": 720,
          "midi": 64,
          "name": "E4",
          "ticks": 669120,
          "time": 557.6,
          "velocity": 0.8267716535433071
        },
        {
          "duration": 0.1966666666666015,
          "durationTicks": 236,
          "midi": 62,
          "name": "D4",
          "ticks": 669840,
          "time": 558.2,
          "velocity": 0.8267716535433071
        },
        {
          "duration": 0.8000000000000682,
          "durationTicks": 960,
          "midi": 65,
          "name": "F4",
          "ticks": 670080,
          "time": 558.4,
          "velocity": 0.8267716535433071
        },
        {
          "duration": 0.33333333333325754,
          "durationTicks": 400,
          "midi": 64,
          "name": "E4",
          "ticks": 671040,
          "time": 559.2,
          "velocity": 0.8267716535433071
        },
        {
          "duration": 0.13333333333321207,
          "durationTicks": 160,
          "midi": 61,
          "name": "C#4",
          "ticks": 671760,
          "time": 559.8000000000001,
          "velocity": 0.8267716535433071
        },
        {
          "duration": 0.6000000000000227,
          "durationTicks": 720,
          "midi": 64,
          "name": "E4",
          "ticks": 672000,
          "time": 560,
          "velocity": 0.8267716535433071
        },
        {
          "duration": 0.1966666666666015,
          "durationTicks": 236,
          "midi": 62,
          "name": "D4",
          "ticks": 672720,
          "time": 560.6,
          "velocity": 0.8267716535433071
        },
        {
          "duration": 0.599999999999909,
          "durationTicks": 720,
          "midi": 65,
          "name": "F4",
          "ticks": 672960,
          "time": 560.8000000000001,
          "velocity": 0.8267716535433071
        },
        {
          "duration": 0.19666666666671517,
          "durationTicks": 236,
          "midi": 64,
          "name": "E4",
          "ticks": 673680,
          "time": 561.4,
          "velocity": 0.8267716535433071
        },
        {
          "duration": 0.7999999999999545,
          "durationTicks": 960,
          "midi": 67,
          "name": "G4",
          "ticks": 673920,
          "time": 561.6,
          "velocity": 0.8267716535433071
        },
        {
          "duration": 0.33333333333337123,
          "durationTicks": 400,
          "midi": 65,
          "name": "F4",
          "ticks": 674880,
          "time": 562.4,
          "velocity": 0.8267716535433071
        },
        {
          "duration": 0.13333333333332575,
          "durationTicks": 160,
          "midi": 63,
          "name": "D#4",
          "ticks": 675600,
          "time": 563,
          "velocity": 0.8267716535433071
        },
        {
          "duration": 0.7999999999999545,
          "durationTicks": 960,
          "midi": 65,
          "name": "F4",
          "ticks": 675840,
          "time": 563.2,
          "velocity": 0.8267716535433071
        },
        {
          "duration": 0.33333333333337123,
          "durationTicks": 400,
          "midi": 64,
          "name": "E4",
          "ticks": 676800,
          "time": 564,
          "velocity": 0.8267716535433071
        },
        {
          "duration": 0.13333333333332575,
          "durationTicks": 160,
          "midi": 61,
          "name": "C#4",
          "ticks": 677520,
          "time": 564.6,
          "velocity": 0.8267716535433071
        },
        {
          "duration": 0.7999999999999545,
          "durationTicks": 960,
          "midi": 64,
          "name": "E4",
          "ticks": 677760,
          "time": 564.8000000000001,
          "velocity": 0.8267716535433071
        },
        {
          "duration": 0.33333333333325754,
          "durationTicks": 400,
          "midi": 62,
          "name": "D4",
          "ticks": 678720,
          "time": 565.6,
          "velocity": 0.8267716535433071
        },
        {
          "duration": 0.13333333333332575,
          "durationTicks": 160,
          "midi": 59,
          "name": "B3",
          "ticks": 679440,
          "time": 566.2,
          "velocity": 0.8267716535433071
        },
        {
          "duration": 0.33333333333337123,
          "durationTicks": 400,
          "midi": 60,
          "name": "C4",
          "ticks": 679680,
          "time": 566.4,
          "velocity": 0.8267716535433071
        },
        {
          "duration": 0.33333333333325754,
          "durationTicks": 400,
          "midi": 59,
          "name": "B3",
          "ticks": 680160,
          "time": 566.8000000000001,
          "velocity": 0.8267716535433071
        },
        {
          "duration": 0.33333333333325754,
          "durationTicks": 400,
          "midi": 60,
          "name": "C4",
          "ticks": 680640,
          "time": 567.2,
          "velocity": 0.8267716535433071
        },
        {
          "duration": 0.33333333333325754,
          "durationTicks": 400,
          "midi": 59,
          "name": "B3",
          "ticks": 681120,
          "time": 567.6,
          "velocity": 0.8267716535433071
        },
        {
          "duration": 1.1000000000000227,
          "durationTicks": 1320,
          "midi": 60,
          "name": "C4",
          "ticks": 681600,
          "time": 568,
          "velocity": 0.8267716535433071
        },
        {
          "duration": 0.33333333333325754,
          "durationTicks": 400,
          "midi": 60,
          "name": "C4",
          "ticks": 683040,
          "time": 569.2,
          "velocity": 0.8267716535433071
        },
        {
          "duration": 0.33333333333325754,
          "durationTicks": 400,
          "midi": 59,
          "name": "B3",
          "ticks": 683520,
          "time": 569.6,
          "velocity": 0.8267716535433071
        },
        {
          "duration": 0.049999999999954525,
          "durationTicks": 60,
          "midi": 74,
          "name": "D5",
          "ticks": 684240,
          "time": 570.2,
          "velocity": 0.8267716535433071
        },
        {
          "duration": 0.05000000000006821,
          "durationTicks": 60,
          "midi": 72,
          "name": "C5",
          "ticks": 684300,
          "time": 570.25,
          "velocity": 0.8267716535433071
        },
        {
          "duration": 0.049999999999954525,
          "durationTicks": 60,
          "midi": 71,
          "name": "B4",
          "ticks": 684360,
          "time": 570.3000000000001,
          "velocity": 0.8267716535433071
        },
        {
          "duration": 0.049999999999954525,
          "durationTicks": 60,
          "midi": 69,
          "name": "A4",
          "ticks": 684420,
          "time": 570.35,
          "velocity": 0.8267716535433071
        },
        {
          "duration": 0.33333333333337123,
          "durationTicks": 400,
          "midi": 67,
          "name": "G4",
          "ticks": 684480,
          "time": 570.4,
          "velocity": 0.8267716535433071
        },
        {
          "duration": 0.049999999999954525,
          "durationTicks": 60,
          "midi": 79,
          "name": "G5",
          "ticks": 686160,
          "time": 571.8000000000001,
          "velocity": 0.8267716535433071
        },
        {
          "duration": 0.049999999999954525,
          "durationTicks": 60,
          "midi": 77,
          "name": "F5",
          "ticks": 686220,
          "time": 571.85,
          "velocity": 0.8267716535433071
        },
        {
          "duration": 0.05000000000006821,
          "durationTicks": 60,
          "midi": 76,
          "name": "E5",
          "ticks": 686280,
          "time": 571.9,
          "velocity": 0.8267716535433071
        },
        {
          "duration": 0.049999999999954525,
          "durationTicks": 60,
          "midi": 74,
          "name": "D5",
          "ticks": 686340,
          "time": 571.95,
          "velocity": 0.8267716535433071
        },
        {
          "duration": 0.33333333333337123,
          "durationTicks": 400,
          "midi": 72,
          "name": "C5",
          "ticks": 686400,
          "time": 572,
          "velocity": 0.8267716535433071
        },
        {
          "duration": 0.05000000000006821,
          "durationTicks": 60,
          "midi": 86,
          "name": "D6",
          "ticks": 688080,
          "time": 573.4,
          "velocity": 0.8267716535433071
        },
        {
          "duration": 0.049999999999954525,
          "durationTicks": 60,
          "midi": 84,
          "name": "C6",
          "ticks": 688140,
          "time": 573.45,
          "velocity": 0.8267716535433071
        },
        {
          "duration": 0.05000000000006821,
          "durationTicks": 60,
          "midi": 83,
          "name": "B5",
          "ticks": 688200,
          "time": 573.5,
          "velocity": 0.8267716535433071
        },
        {
          "duration": 0.049999999999954525,
          "durationTicks": 60,
          "midi": 81,
          "name": "A5",
          "ticks": 688260,
          "time": 573.5500000000001,
          "velocity": 0.8267716535433071
        },
        {
          "duration": 0.33333333333325754,
          "durationTicks": 400,
          "midi": 79,
          "name": "G5",
          "ticks": 688320,
          "time": 573.6,
          "velocity": 0.8267716535433071
        },
        {
          "duration": 0.05000000000006821,
          "durationTicks": 60,
          "midi": 79,
          "name": "G5",
          "ticks": 690000,
          "time": 575,
          "velocity": 0.8267716535433071
        },
        {
          "duration": 0.049999999999954525,
          "durationTicks": 60,
          "midi": 77,
          "name": "F5",
          "ticks": 690060,
          "time": 575.0500000000001,
          "velocity": 0.8267716535433071
        },
        {
          "duration": 0.049999999999954525,
          "durationTicks": 60,
          "midi": 76,
          "name": "E5",
          "ticks": 690120,
          "time": 575.1,
          "velocity": 0.8267716535433071
        },
        {
          "duration": 0.05000000000006821,
          "durationTicks": 60,
          "midi": 74,
          "name": "D5",
          "ticks": 690180,
          "time": 575.15,
          "velocity": 0.8267716535433071
        },
        {
          "duration": 0.33333333333325754,
          "durationTicks": 400,
          "midi": 72,
          "name": "C5",
          "ticks": 690240,
          "time": 575.2,
          "velocity": 0.8267716535433071
        },
        {
          "duration": 0.33333333333337123,
          "durationTicks": 400,
          "midi": 67,
          "name": "G4",
          "ticks": 691200,
          "time": 576,
          "velocity": 0.8267716535433071
        },
        {
          "duration": 0.049999999999954525,
          "durationTicks": 60,
          "midi": 79,
          "name": "G5",
          "ticks": 691920,
          "time": 576.6,
          "velocity": 0.8267716535433071
        },
        {
          "duration": 0.05000000000006821,
          "durationTicks": 60,
          "midi": 77,
          "name": "F5",
          "ticks": 691980,
          "time": 576.65,
          "velocity": 0.8267716535433071
        },
        {
          "duration": 0.049999999999954525,
          "durationTicks": 60,
          "midi": 76,
          "name": "E5",
          "ticks": 692040,
          "time": 576.7,
          "velocity": 0.8267716535433071
        },
        {
          "duration": 0.05000000000006821,
          "durationTicks": 60,
          "midi": 74,
          "name": "D5",
          "ticks": 692100,
          "time": 576.75,
          "velocity": 0.8267716535433071
        },
        {
          "duration": 0.33333333333325754,
          "durationTicks": 400,
          "midi": 76,
          "name": "E5",
          "ticks": 692160,
          "time": 576.8000000000001,
          "velocity": 0.8267716535433071
        },
        {
          "duration": 0.05000000000006821,
          "durationTicks": 60,
          "midi": 77,
          "name": "F5",
          "ticks": 692880,
          "time": 577.4,
          "velocity": 0.8267716535433071
        },
        {
          "duration": 0.049999999999954525,
          "durationTicks": 60,
          "midi": 76,
          "name": "E5",
          "ticks": 692940,
          "time": 577.45,
          "velocity": 0.8267716535433071
        },
        {
          "duration": 0.05000000000006821,
          "durationTicks": 60,
          "midi": 74,
          "name": "D5",
          "ticks": 693000,
          "time": 577.5,
          "velocity": 0.8267716535433071
        },
        {
          "duration": 0.049999999999954525,
          "durationTicks": 60,
          "midi": 72,
          "name": "C5",
          "ticks": 693060,
          "time": 577.5500000000001,
          "velocity": 0.8267716535433071
        },
        {
          "duration": 0.33333333333325754,
          "durationTicks": 400,
          "midi": 71,
          "name": "B4",
          "ticks": 693120,
          "time": 577.6,
          "velocity": 0.8267716535433071
        },
        {
          "duration": 0.049999999999954525,
          "durationTicks": 60,
          "midi": 79,
          "name": "G5",
          "ticks": 693840,
          "time": 578.2,
          "velocity": 0.8267716535433071
        },
        {
          "duration": 0.05000000000006821,
          "durationTicks": 60,
          "midi": 77,
          "name": "F5",
          "ticks": 693900,
          "time": 578.25,
          "velocity": 0.8267716535433071
        },
        {
          "duration": 0.049999999999954525,
          "durationTicks": 60,
          "midi": 76,
          "name": "E5",
          "ticks": 693960,
          "time": 578.3000000000001,
          "velocity": 0.8267716535433071
        },
        {
          "duration": 0.049999999999954525,
          "durationTicks": 60,
          "midi": 74,
          "name": "D5",
          "ticks": 694020,
          "time": 578.35,
          "velocity": 0.8267716535433071
        },
        {
          "duration": 0.33333333333337123,
          "durationTicks": 400,
          "midi": 76,
          "name": "E5",
          "ticks": 694080,
          "time": 578.4,
          "velocity": 0.8267716535433071
        },
        {
          "duration": 0.05000000000006821,
          "durationTicks": 60,
          "midi": 77,
          "name": "F5",
          "ticks": 694800,
          "time": 579,
          "velocity": 0.8267716535433071
        },
        {
          "duration": 0.049999999999954525,
          "durationTicks": 60,
          "midi": 76,
          "name": "E5",
          "ticks": 694860,
          "time": 579.0500000000001,
          "velocity": 0.8267716535433071
        },
        {
          "duration": 0.049999999999954525,
          "durationTicks": 60,
          "midi": 74,
          "name": "D5",
          "ticks": 694920,
          "time": 579.1,
          "velocity": 0.8267716535433071
        },
        {
          "duration": 0.05000000000006821,
          "durationTicks": 60,
          "midi": 72,
          "name": "C5",
          "ticks": 694980,
          "time": 579.15,
          "velocity": 0.8267716535433071
        },
        {
          "duration": 0.33333333333325754,
          "durationTicks": 400,
          "midi": 79,
          "name": "G5",
          "ticks": 695040,
          "time": 579.2,
          "velocity": 0.8267716535433071
        },
        {
          "duration": 0.1999999999999318,
          "durationTicks": 240,
          "midi": 64,
          "name": "E4",
          "ticks": 696960,
          "time": 580.8000000000001,
          "velocity": 0.4015748031496063
        },
        {
          "duration": 0.20000000000004547,
          "durationTicks": 240,
          "midi": 67,
          "name": "G4",
          "ticks": 697200,
          "time": 581,
          "velocity": 0.4015748031496063
        },
        {
          "duration": 0.1999999999999318,
          "durationTicks": 240,
          "midi": 64,
          "name": "E4",
          "ticks": 697440,
          "time": 581.2,
          "velocity": 0.4015748031496063
        },
        {
          "duration": 0.20000000000004547,
          "durationTicks": 240,
          "midi": 67,
          "name": "G4",
          "ticks": 697680,
          "time": 581.4,
          "velocity": 0.4015748031496063
        },
        {
          "duration": 0.20000000000004547,
          "durationTicks": 240,
          "midi": 64,
          "name": "E4",
          "ticks": 697920,
          "time": 581.6,
          "velocity": 0.4015748031496063
        },
        {
          "duration": 0.1999999999999318,
          "durationTicks": 240,
          "midi": 67,
          "name": "G4",
          "ticks": 698160,
          "time": 581.8000000000001,
          "velocity": 0.4015748031496063
        },
        {
          "duration": 0.20000000000004547,
          "durationTicks": 240,
          "midi": 64,
          "name": "E4",
          "ticks": 698400,
          "time": 582,
          "velocity": 0.4015748031496063
        },
        {
          "duration": 0.1966666666666015,
          "durationTicks": 236,
          "midi": 67,
          "name": "G4",
          "ticks": 698640,
          "time": 582.2,
          "velocity": 0.4015748031496063
        },
        {
          "duration": 0.20000000000004547,
          "durationTicks": 240,
          "midi": 65,
          "name": "F4",
          "ticks": 698880,
          "time": 582.4,
          "velocity": 0.4015748031496063
        },
        {
          "duration": 0.20000000000004547,
          "durationTicks": 240,
          "midi": 67,
          "name": "G4",
          "ticks": 699120,
          "time": 582.6,
          "velocity": 0.4015748031496063
        },
        {
          "duration": 0.1999999999999318,
          "durationTicks": 240,
          "midi": 65,
          "name": "F4",
          "ticks": 699360,
          "time": 582.8000000000001,
          "velocity": 0.4015748031496063
        },
        {
          "duration": 0.20000000000004547,
          "durationTicks": 240,
          "midi": 67,
          "name": "G4",
          "ticks": 699600,
          "time": 583,
          "velocity": 0.4015748031496063
        },
        {
          "duration": 0.1999999999999318,
          "durationTicks": 240,
          "midi": 65,
          "name": "F4",
          "ticks": 699840,
          "time": 583.2,
          "velocity": 0.4015748031496063
        },
        {
          "duration": 0.20000000000004547,
          "durationTicks": 240,
          "midi": 67,
          "name": "G4",
          "ticks": 700080,
          "time": 583.4,
          "velocity": 0.4015748031496063
        },
        {
          "duration": 0.20000000000004547,
          "durationTicks": 240,
          "midi": 65,
          "name": "F4",
          "ticks": 700320,
          "time": 583.6,
          "velocity": 0.4015748031496063
        },
        {
          "duration": 0.1966666666666015,
          "durationTicks": 236,
          "midi": 67,
          "name": "G4",
          "ticks": 700560,
          "time": 583.8000000000001,
          "velocity": 0.4015748031496063
        },
        {
          "duration": 0.20000000000004547,
          "durationTicks": 240,
          "midi": 62,
          "name": "D4",
          "ticks": 700800,
          "time": 584,
          "velocity": 0.4015748031496063
        },
        {
          "duration": 0.1999999999999318,
          "durationTicks": 240,
          "midi": 67,
          "name": "G4",
          "ticks": 701040,
          "time": 584.2,
          "velocity": 0.4015748031496063
        },
        {
          "duration": 0.20000000000004547,
          "durationTicks": 240,
          "midi": 62,
          "name": "D4",
          "ticks": 701280,
          "time": 584.4,
          "velocity": 0.4015748031496063
        },
        {
          "duration": 0.20000000000004547,
          "durationTicks": 240,
          "midi": 67,
          "name": "G4",
          "ticks": 701520,
          "time": 584.6,
          "velocity": 0.4015748031496063
        },
        {
          "duration": 0.1999999999999318,
          "durationTicks": 240,
          "midi": 62,
          "name": "D4",
          "ticks": 701760,
          "time": 584.8000000000001,
          "velocity": 0.4015748031496063
        },
        {
          "duration": 0.20000000000004547,
          "durationTicks": 240,
          "midi": 67,
          "name": "G4",
          "ticks": 702000,
          "time": 585,
          "velocity": 0.4015748031496063
        },
        {
          "duration": 0.1999999999999318,
          "durationTicks": 240,
          "midi": 63,
          "name": "D#4",
          "ticks": 702240,
          "time": 585.2,
          "velocity": 0.4015748031496063
        },
        {
          "duration": 0.19666666666671517,
          "durationTicks": 236,
          "midi": 67,
          "name": "G4",
          "ticks": 702480,
          "time": 585.4,
          "velocity": 0.4015748031496063
        },
        {
          "duration": 0.20000000000004547,
          "durationTicks": 240,
          "midi": 64,
          "name": "E4",
          "ticks": 702720,
          "time": 585.6,
          "velocity": 0.4015748031496063
        },
        {
          "duration": 0.1999999999999318,
          "durationTicks": 240,
          "midi": 67,
          "name": "G4",
          "ticks": 702960,
          "time": 585.8000000000001,
          "velocity": 0.4015748031496063
        },
        {
          "duration": 0.20000000000004547,
          "durationTicks": 240,
          "midi": 64,
          "name": "E4",
          "ticks": 703200,
          "time": 586,
          "velocity": 0.4015748031496063
        },
        {
          "duration": 0.1999999999999318,
          "durationTicks": 240,
          "midi": 67,
          "name": "G4",
          "ticks": 703440,
          "time": 586.2,
          "velocity": 0.4015748031496063
        },
        {
          "duration": 0.20000000000004547,
          "durationTicks": 240,
          "midi": 64,
          "name": "E4",
          "ticks": 703680,
          "time": 586.4,
          "velocity": 0.4015748031496063
        },
        {
          "duration": 0.20000000000004547,
          "durationTicks": 240,
          "midi": 67,
          "name": "G4",
          "ticks": 703920,
          "time": 586.6,
          "velocity": 0.4015748031496063
        },
        {
          "duration": 0.1999999999999318,
          "durationTicks": 240,
          "midi": 64,
          "name": "E4",
          "ticks": 704160,
          "time": 586.8000000000001,
          "velocity": 0.4015748031496063
        },
        {
          "duration": 0.1966666666666015,
          "durationTicks": 236,
          "midi": 67,
          "name": "G4",
          "ticks": 704400,
          "time": 587,
          "velocity": 0.4015748031496063
        },
        {
          "duration": 0.1999999999999318,
          "durationTicks": 240,
          "midi": 62,
          "name": "D4",
          "ticks": 704640,
          "time": 587.2,
          "velocity": 0.4015748031496063
        },
        {
          "duration": 0.20000000000004547,
          "durationTicks": 240,
          "midi": 67,
          "name": "G4",
          "ticks": 704880,
          "time": 587.4,
          "velocity": 0.4015748031496063
        },
        {
          "duration": 0.20000000000004547,
          "durationTicks": 240,
          "midi": 62,
          "name": "D4",
          "ticks": 705120,
          "time": 587.6,
          "velocity": 0.4015748031496063
        },
        {
          "duration": 0.1999999999999318,
          "durationTicks": 240,
          "midi": 67,
          "name": "G4",
          "ticks": 705360,
          "time": 587.8000000000001,
          "velocity": 0.4015748031496063
        },
        {
          "duration": 0.20000000000004547,
          "durationTicks": 240,
          "midi": 60,
          "name": "C4",
          "ticks": 705600,
          "time": 588,
          "velocity": 0.4015748031496063
        },
        {
          "duration": 0.1999999999999318,
          "durationTicks": 240,
          "midi": 67,
          "name": "G4",
          "ticks": 705840,
          "time": 588.2,
          "velocity": 0.4015748031496063
        },
        {
          "duration": 0.20000000000004547,
          "durationTicks": 240,
          "midi": 60,
          "name": "C4",
          "ticks": 706080,
          "time": 588.4,
          "velocity": 0.4015748031496063
        },
        {
          "duration": 0.1966666666666015,
          "durationTicks": 236,
          "midi": 67,
          "name": "G4",
          "ticks": 706320,
          "time": 588.6,
          "velocity": 0.4015748031496063
        },
        {
          "duration": 0.33333333333325754,
          "durationTicks": 400,
          "midi": 59,
          "name": "B3",
          "ticks": 706560,
          "time": 588.8000000000001,
          "velocity": 0.4015748031496063
        },
        {
          "duration": 0.20000000000004547,
          "durationTicks": 240,
          "midi": 64,
          "name": "E4",
          "ticks": 708480,
          "time": 590.4,
          "velocity": 0.4015748031496063
        },
        {
          "duration": 0.20000000000004547,
          "durationTicks": 240,
          "midi": 67,
          "name": "G4",
          "ticks": 708720,
          "time": 590.6,
          "velocity": 0.4015748031496063
        },
        {
          "duration": 0.1999999999999318,
          "durationTicks": 240,
          "midi": 64,
          "name": "E4",
          "ticks": 708960,
          "time": 590.8000000000001,
          "velocity": 0.4015748031496063
        },
        {
          "duration": 0.20000000000004547,
          "durationTicks": 240,
          "midi": 67,
          "name": "G4",
          "ticks": 709200,
          "time": 591,
          "velocity": 0.4015748031496063
        },
        {
          "duration": 0.1999999999999318,
          "durationTicks": 240,
          "midi": 64,
          "name": "E4",
          "ticks": 709440,
          "time": 591.2,
          "velocity": 0.4015748031496063
        },
        {
          "duration": 0.20000000000004547,
          "durationTicks": 240,
          "midi": 67,
          "name": "G4",
          "ticks": 709680,
          "time": 591.4,
          "velocity": 0.4015748031496063
        },
        {
          "duration": 0.20000000000004547,
          "durationTicks": 240,
          "midi": 64,
          "name": "E4",
          "ticks": 709920,
          "time": 591.6,
          "velocity": 0.4015748031496063
        },
        {
          "duration": 0.1966666666666015,
          "durationTicks": 236,
          "midi": 67,
          "name": "G4",
          "ticks": 710160,
          "time": 591.8000000000001,
          "velocity": 0.4015748031496063
        },
        {
          "duration": 0.20000000000004547,
          "durationTicks": 240,
          "midi": 65,
          "name": "F4",
          "ticks": 710400,
          "time": 592,
          "velocity": 0.4015748031496063
        },
        {
          "duration": 0.1999999999999318,
          "durationTicks": 240,
          "midi": 67,
          "name": "G4",
          "ticks": 710640,
          "time": 592.2,
          "velocity": 0.4015748031496063
        },
        {
          "duration": 0.20000000000004547,
          "durationTicks": 240,
          "midi": 65,
          "name": "F4",
          "ticks": 710880,
          "time": 592.4,
          "velocity": 0.4015748031496063
        },
        {
          "duration": 0.20000000000004547,
          "durationTicks": 240,
          "midi": 67,
          "name": "G4",
          "ticks": 711120,
          "time": 592.6,
          "velocity": 0.4015748031496063
        },
        {
          "duration": 0.1999999999999318,
          "durationTicks": 240,
          "midi": 65,
          "name": "F4",
          "ticks": 711360,
          "time": 592.8000000000001,
          "velocity": 0.4015748031496063
        },
        {
          "duration": 0.20000000000004547,
          "durationTicks": 240,
          "midi": 67,
          "name": "G4",
          "ticks": 711600,
          "time": 593,
          "velocity": 0.4015748031496063
        },
        {
          "duration": 0.1999999999999318,
          "durationTicks": 240,
          "midi": 65,
          "name": "F4",
          "ticks": 711840,
          "time": 593.2,
          "velocity": 0.4015748031496063
        },
        {
          "duration": 0.19666666666671517,
          "durationTicks": 236,
          "midi": 67,
          "name": "G4",
          "ticks": 712080,
          "time": 593.4,
          "velocity": 0.4015748031496063
        },
        {
          "duration": 0.20000000000004547,
          "durationTicks": 240,
          "midi": 62,
          "name": "D4",
          "ticks": 712320,
          "time": 593.6,
          "velocity": 0.4015748031496063
        },
        {
          "duration": 0.1999999999999318,
          "durationTicks": 240,
          "midi": 67,
          "name": "G4",
          "ticks": 712560,
          "time": 593.8000000000001,
          "velocity": 0.4015748031496063
        },
        {
          "duration": 0.20000000000004547,
          "durationTicks": 240,
          "midi": 62,
          "name": "D4",
          "ticks": 712800,
          "time": 594,
          "velocity": 0.4015748031496063
        },
        {
          "duration": 0.1999999999999318,
          "durationTicks": 240,
          "midi": 67,
          "name": "G4",
          "ticks": 713040,
          "time": 594.2,
          "velocity": 0.4015748031496063
        },
        {
          "duration": 0.20000000000004547,
          "durationTicks": 240,
          "midi": 62,
          "name": "D4",
          "ticks": 713280,
          "time": 594.4,
          "velocity": 0.4015748031496063
        },
        {
          "duration": 0.20000000000004547,
          "durationTicks": 240,
          "midi": 67,
          "name": "G4",
          "ticks": 713520,
          "time": 594.6,
          "velocity": 0.4015748031496063
        },
        {
          "duration": 0.1999999999999318,
          "durationTicks": 240,
          "midi": 63,
          "name": "D#4",
          "ticks": 713760,
          "time": 594.8000000000001,
          "velocity": 0.4015748031496063
        },
        {
          "duration": 0.1966666666666015,
          "durationTicks": 236,
          "midi": 67,
          "name": "G4",
          "ticks": 714000,
          "time": 595,
          "velocity": 0.4015748031496063
        },
        {
          "duration": 0.1999999999999318,
          "durationTicks": 240,
          "midi": 64,
          "name": "E4",
          "ticks": 714240,
          "time": 595.2,
          "velocity": 0.4015748031496063
        },
        {
          "duration": 0.20000000000004547,
          "durationTicks": 240,
          "midi": 67,
          "name": "G4",
          "ticks": 714480,
          "time": 595.4,
          "velocity": 0.4015748031496063
        },
        {
          "duration": 0.20000000000004547,
          "durationTicks": 240,
          "midi": 64,
          "name": "E4",
          "ticks": 714720,
          "time": 595.6,
          "velocity": 0.4015748031496063
        },
        {
          "duration": 0.1999999999999318,
          "durationTicks": 240,
          "midi": 67,
          "name": "G4",
          "ticks": 714960,
          "time": 595.8000000000001,
          "velocity": 0.4015748031496063
        },
        {
          "duration": 0.20000000000004547,
          "durationTicks": 240,
          "midi": 64,
          "name": "E4",
          "ticks": 715200,
          "time": 596,
          "velocity": 0.4015748031496063
        },
        {
          "duration": 0.1999999999999318,
          "durationTicks": 240,
          "midi": 67,
          "name": "G4",
          "ticks": 715440,
          "time": 596.2,
          "velocity": 0.4015748031496063
        },
        {
          "duration": 0.20000000000004547,
          "durationTicks": 240,
          "midi": 64,
          "name": "E4",
          "ticks": 715680,
          "time": 596.4,
          "velocity": 0.4015748031496063
        },
        {
          "duration": 0.1966666666666015,
          "durationTicks": 236,
          "midi": 60,
          "name": "C4",
          "ticks": 715920,
          "time": 596.6,
          "velocity": 0.4015748031496063
        },
        {
          "duration": 0.1999999999999318,
          "durationTicks": 240,
          "midi": 62,
          "name": "D4",
          "ticks": 716160,
          "time": 596.8000000000001,
          "velocity": 0.4015748031496063
        },
        {
          "duration": 0.20000000000004547,
          "durationTicks": 240,
          "midi": 55,
          "name": "G3",
          "ticks": 716400,
          "time": 597,
          "velocity": 0.4015748031496063
        },
        {
          "duration": 0.1999999999999318,
          "durationTicks": 240,
          "midi": 62,
          "name": "D4",
          "ticks": 716640,
          "time": 597.2,
          "velocity": 0.4015748031496063
        },
        {
          "duration": 0.20000000000004547,
          "durationTicks": 240,
          "midi": 55,
          "name": "G3",
          "ticks": 716880,
          "time": 597.4,
          "velocity": 0.4015748031496063
        },
        {
          "duration": 0.20000000000004547,
          "durationTicks": 240,
          "midi": 60,
          "name": "C4",
          "ticks": 717120,
          "time": 597.6,
          "velocity": 0.4015748031496063
        },
        {
          "duration": 0.1999999999999318,
          "durationTicks": 240,
          "midi": 55,
          "name": "G3",
          "ticks": 717360,
          "time": 597.8000000000001,
          "velocity": 0.4015748031496063
        },
        {
          "duration": 0.20000000000004547,
          "durationTicks": 240,
          "midi": 60,
          "name": "C4",
          "ticks": 717600,
          "time": 598,
          "velocity": 0.4015748031496063
        },
        {
          "duration": 0.1966666666666015,
          "durationTicks": 236,
          "midi": 55,
          "name": "G3",
          "ticks": 717840,
          "time": 598.2,
          "velocity": 0.4015748031496063
        },
        {
          "duration": 0.20000000000004547,
          "durationTicks": 240,
          "midi": 59,
          "name": "B3",
          "ticks": 718080,
          "time": 598.4,
          "velocity": 0.4015748031496063
        },
        {
          "duration": 0.20000000000004547,
          "durationTicks": 240,
          "midi": 55,
          "name": "G3",
          "ticks": 718320,
          "time": 598.6,
          "velocity": 0.4015748031496063
        },
        {
          "duration": 0.1999999999999318,
          "durationTicks": 240,
          "midi": 59,
          "name": "B3",
          "ticks": 718560,
          "time": 598.8000000000001,
          "velocity": 0.4015748031496063
        },
        {
          "duration": 0.20000000000004547,
          "durationTicks": 240,
          "midi": 55,
          "name": "G3",
          "ticks": 718800,
          "time": 599,
          "velocity": 0.4015748031496063
        },
        {
          "duration": 0.1999999999999318,
          "durationTicks": 240,
          "midi": 59,
          "name": "B3",
          "ticks": 719040,
          "time": 599.2,
          "velocity": 0.4015748031496063
        },
        {
          "duration": 0.20000000000004547,
          "durationTicks": 240,
          "midi": 55,
          "name": "G3",
          "ticks": 719280,
          "time": 599.4,
          "velocity": 0.4015748031496063
        },
        {
          "duration": 0.20000000000004547,
          "durationTicks": 240,
          "midi": 59,
          "name": "B3",
          "ticks": 719520,
          "time": 599.6,
          "velocity": 0.4015748031496063
        },
        {
          "duration": 0.1966666666666015,
          "durationTicks": 236,
          "midi": 62,
          "name": "D4",
          "ticks": 719760,
          "time": 599.8000000000001,
          "velocity": 0.4015748031496063
        },
        {
          "duration": 0.20000000000004547,
          "durationTicks": 240,
          "midi": 64,
          "name": "E4",
          "ticks": 720000,
          "time": 600,
          "velocity": 0.4015748031496063
        },
        {
          "duration": 0.1999999999999318,
          "durationTicks": 240,
          "midi": 60,
          "name": "C4",
          "ticks": 720240,
          "time": 600.2,
          "velocity": 0.4015748031496063
        },
        {
          "duration": 0.20000000000004547,
          "durationTicks": 240,
          "midi": 55,
          "name": "G3",
          "ticks": 720480,
          "time": 600.4,
          "velocity": 0.4015748031496063
        },
        {
          "duration": 0.20000000000004547,
          "durationTicks": 240,
          "midi": 64,
          "name": "E4",
          "ticks": 720720,
          "time": 600.6,
          "velocity": 0.4015748031496063
        },
        {
          "duration": 0.1999999999999318,
          "durationTicks": 240,
          "midi": 62,
          "name": "D4",
          "ticks": 720960,
          "time": 600.8000000000001,
          "velocity": 0.4015748031496063
        },
        {
          "duration": 0.20000000000004547,
          "durationTicks": 240,
          "midi": 60,
          "name": "C4",
          "ticks": 721200,
          "time": 601,
          "velocity": 0.4015748031496063
        },
        {
          "duration": 0.1999999999999318,
          "durationTicks": 240,
          "midi": 59,
          "name": "B3",
          "ticks": 721440,
          "time": 601.2,
          "velocity": 0.4015748031496063
        },
        {
          "duration": 0.19666666666671517,
          "durationTicks": 236,
          "midi": 62,
          "name": "D4",
          "ticks": 721680,
          "time": 601.4,
          "velocity": 0.4015748031496063
        },
        {
          "duration": 0.20000000000004547,
          "durationTicks": 240,
          "midi": 60,
          "name": "C4",
          "ticks": 721920,
          "time": 601.6,
          "velocity": 0.4015748031496063
        },
        {
          "duration": 0.1999999999999318,
          "durationTicks": 240,
          "midi": 57,
          "name": "A3",
          "ticks": 722160,
          "time": 601.8000000000001,
          "velocity": 0.4015748031496063
        },
        {
          "duration": 0.20000000000004547,
          "durationTicks": 240,
          "midi": 60,
          "name": "C4",
          "ticks": 722400,
          "time": 602,
          "velocity": 0.4015748031496063
        },
        {
          "duration": 0.1999999999999318,
          "durationTicks": 240,
          "midi": 57,
          "name": "A3",
          "ticks": 722640,
          "time": 602.2,
          "velocity": 0.4015748031496063
        },
        {
          "duration": 0.20000000000004547,
          "durationTicks": 240,
          "midi": 60,
          "name": "C4",
          "ticks": 722880,
          "time": 602.4,
          "velocity": 0.4015748031496063
        },
        {
          "duration": 0.20000000000004547,
          "durationTicks": 240,
          "midi": 64,
          "name": "E4",
          "ticks": 723120,
          "time": 602.6,
          "velocity": 0.4015748031496063
        },
        {
          "duration": 0.1999999999999318,
          "durationTicks": 240,
          "midi": 60,
          "name": "C4",
          "ticks": 723360,
          "time": 602.8000000000001,
          "velocity": 0.4015748031496063
        },
        {
          "duration": 0.1966666666666015,
          "durationTicks": 236,
          "midi": 57,
          "name": "A3",
          "ticks": 723600,
          "time": 603,
          "velocity": 0.4015748031496063
        },
        {
          "duration": 1.1999999999999318,
          "durationTicks": 1440,
          "midi": 55,
          "name": "G3",
          "ticks": 723840,
          "time": 603.2,
          "velocity": 0.4015748031496063
        },
        {
          "duration": 0.33333333333337123,
          "durationTicks": 400,
          "midi": 59,
          "name": "B3",
          "ticks": 725280,
          "time": 604.4,
          "velocity": 0.4015748031496063
        },
        {
          "duration": 0.1999999999999318,
          "durationTicks": 240,
          "midi": 60,
          "name": "C4",
          "ticks": 725760,
          "time": 604.8000000000001,
          "velocity": 0.4015748031496063
        },
        {
          "duration": 0.20000000000004547,
          "durationTicks": 240,
          "midi": 64,
          "name": "E4",
          "ticks": 726000,
          "time": 605,
          "velocity": 0.4015748031496063
        },
        {
          "duration": 0.1999999999999318,
          "durationTicks": 240,
          "midi": 60,
          "name": "C4",
          "ticks": 726240,
          "time": 605.2,
          "velocity": 0.4015748031496063
        },
        {
          "duration": 0.20000000000004547,
          "durationTicks": 240,
          "midi": 55,
          "name": "G3",
          "ticks": 726480,
          "time": 605.4,
          "velocity": 0.4015748031496063
        },
        {
          "duration": 0.20000000000004547,
          "durationTicks": 240,
          "midi": 60,
          "name": "C4",
          "ticks": 726720,
          "time": 605.6,
          "velocity": 0.4015748031496063
        },
        {
          "duration": 0.1999999999999318,
          "durationTicks": 240,
          "midi": 64,
          "name": "E4",
          "ticks": 726960,
          "time": 605.8000000000001,
          "velocity": 0.4015748031496063
        },
        {
          "duration": 0.20000000000004547,
          "durationTicks": 240,
          "midi": 60,
          "name": "C4",
          "ticks": 727200,
          "time": 606,
          "velocity": 0.4015748031496063
        },
        {
          "duration": 0.1966666666666015,
          "durationTicks": 236,
          "midi": 55,
          "name": "G3",
          "ticks": 727440,
          "time": 606.2,
          "velocity": 0.4015748031496063
        },
        {
          "duration": 0.20000000000004547,
          "durationTicks": 240,
          "midi": 59,
          "name": "B3",
          "ticks": 727680,
          "time": 606.4,
          "velocity": 0.4015748031496063
        },
        {
          "duration": 0.20000000000004547,
          "durationTicks": 240,
          "midi": 62,
          "name": "D4",
          "ticks": 727920,
          "time": 606.6,
          "velocity": 0.4015748031496063
        },
        {
          "duration": 0.1999999999999318,
          "durationTicks": 240,
          "midi": 59,
          "name": "B3",
          "ticks": 728160,
          "time": 606.8000000000001,
          "velocity": 0.4015748031496063
        },
        {
          "duration": 0.20000000000004547,
          "durationTicks": 240,
          "midi": 55,
          "name": "G3",
          "ticks": 728400,
          "time": 607,
          "velocity": 0.4015748031496063
        },
        {
          "duration": 0.1999999999999318,
          "durationTicks": 240,
          "midi": 59,
          "name": "B3",
          "ticks": 728640,
          "time": 607.2,
          "velocity": 0.4015748031496063
        },
        {
          "duration": 0.20000000000004547,
          "durationTicks": 240,
          "midi": 62,
          "name": "D4",
          "ticks": 728880,
          "time": 607.4,
          "velocity": 0.4015748031496063
        },
        {
          "duration": 0.20000000000004547,
          "durationTicks": 240,
          "midi": 59,
          "name": "B3",
          "ticks": 729120,
          "time": 607.6,
          "velocity": 0.4015748031496063
        },
        {
          "duration": 0.1966666666666015,
          "durationTicks": 236,
          "midi": 55,
          "name": "G3",
          "ticks": 729360,
          "time": 607.8000000000001,
          "velocity": 0.4015748031496063
        },
        {
          "duration": 0.20000000000004547,
          "durationTicks": 240,
          "midi": 60,
          "name": "C4",
          "ticks": 729600,
          "time": 608,
          "velocity": 0.4015748031496063
        },
        {
          "duration": 0.1999999999999318,
          "durationTicks": 240,
          "midi": 64,
          "name": "E4",
          "ticks": 729840,
          "time": 608.2,
          "velocity": 0.4015748031496063
        },
        {
          "duration": 0.20000000000004547,
          "durationTicks": 240,
          "midi": 60,
          "name": "C4",
          "ticks": 730080,
          "time": 608.4,
          "velocity": 0.4015748031496063
        },
        {
          "duration": 0.20000000000004547,
          "durationTicks": 240,
          "midi": 55,
          "name": "G3",
          "ticks": 730320,
          "time": 608.6,
          "velocity": 0.4015748031496063
        },
        {
          "duration": 0.1999999999999318,
          "durationTicks": 240,
          "midi": 60,
          "name": "C4",
          "ticks": 730560,
          "time": 608.8000000000001,
          "velocity": 0.4015748031496063
        },
        {
          "duration": 0.20000000000004547,
          "durationTicks": 240,
          "midi": 64,
          "name": "E4",
          "ticks": 730800,
          "time": 609,
          "velocity": 0.4015748031496063
        },
        {
          "duration": 0.1999999999999318,
          "durationTicks": 240,
          "midi": 60,
          "name": "C4",
          "ticks": 731040,
          "time": 609.2,
          "velocity": 0.4015748031496063
        },
        {
          "duration": 0.19666666666671517,
          "durationTicks": 236,
          "midi": 57,
          "name": "A3",
          "ticks": 731280,
          "time": 609.4,
          "velocity": 0.4015748031496063
        },
        {
          "duration": 0.20000000000004547,
          "durationTicks": 240,
          "midi": 60,
          "name": "C4",
          "ticks": 731520,
          "time": 609.6,
          "velocity": 0.4015748031496063
        },
        {
          "duration": 0.1999999999999318,
          "durationTicks": 240,
          "midi": 69,
          "name": "A4",
          "ticks": 731760,
          "time": 609.8000000000001,
          "velocity": 0.4015748031496063
        },
        {
          "duration": 0.20000000000004547,
          "durationTicks": 240,
          "midi": 60,
          "name": "C4",
          "ticks": 732000,
          "time": 610,
          "velocity": 0.4015748031496063
        },
        {
          "duration": 0.1999999999999318,
          "durationTicks": 240,
          "midi": 57,
          "name": "A3",
          "ticks": 732240,
          "time": 610.2,
          "velocity": 0.4015748031496063
        },
        {
          "duration": 0.20000000000004547,
          "durationTicks": 240,
          "midi": 59,
          "name": "B3",
          "ticks": 732480,
          "time": 610.4,
          "velocity": 0.4015748031496063
        },
        {
          "duration": 0.20000000000004547,
          "durationTicks": 240,
          "midi": 62,
          "name": "D4",
          "ticks": 732720,
          "time": 610.6,
          "velocity": 0.4015748031496063
        },
        {
          "duration": 0.1999999999999318,
          "durationTicks": 240,
          "midi": 65,
          "name": "F4",
          "ticks": 732960,
          "time": 610.8000000000001,
          "velocity": 0.4015748031496063
        },
        {
          "duration": 0.1966666666666015,
          "durationTicks": 236,
          "midi": 62,
          "name": "D4",
          "ticks": 733200,
          "time": 611,
          "velocity": 0.4015748031496063
        },
        {
          "duration": 0.1999999999999318,
          "durationTicks": 240,
          "midi": 60,
          "name": "C4",
          "ticks": 733440,
          "time": 611.2,
          "velocity": 0.4015748031496063
        },
        {
          "duration": 0.20000000000004547,
          "durationTicks": 240,
          "midi": 64,
          "name": "E4",
          "ticks": 733680,
          "time": 611.4,
          "velocity": 0.4015748031496063
        },
        {
          "duration": 0.20000000000004547,
          "durationTicks": 240,
          "midi": 60,
          "name": "C4",
          "ticks": 733920,
          "time": 611.6,
          "velocity": 0.4015748031496063
        },
        {
          "duration": 0.1999999999999318,
          "durationTicks": 240,
          "midi": 55,
          "name": "G3",
          "ticks": 734160,
          "time": 611.8000000000001,
          "velocity": 0.4015748031496063
        },
        {
          "duration": 0.20000000000004547,
          "durationTicks": 240,
          "midi": 60,
          "name": "C4",
          "ticks": 734400,
          "time": 612,
          "velocity": 0.4015748031496063
        },
        {
          "duration": 0.1999999999999318,
          "durationTicks": 240,
          "midi": 64,
          "name": "E4",
          "ticks": 734640,
          "time": 612.2,
          "velocity": 0.4015748031496063
        },
        {
          "duration": 0.20000000000004547,
          "durationTicks": 240,
          "midi": 60,
          "name": "C4",
          "ticks": 734880,
          "time": 612.4,
          "velocity": 0.4015748031496063
        },
        {
          "duration": 0.1966666666666015,
          "durationTicks": 236,
          "midi": 55,
          "name": "G3",
          "ticks": 735120,
          "time": 612.6,
          "velocity": 0.4015748031496063
        },
        {
          "duration": 0.1999999999999318,
          "durationTicks": 240,
          "midi": 59,
          "name": "B3",
          "ticks": 735360,
          "time": 612.8000000000001,
          "velocity": 0.4015748031496063
        },
        {
          "duration": 0.20000000000004547,
          "durationTicks": 240,
          "midi": 62,
          "name": "D4",
          "ticks": 735600,
          "time": 613,
          "velocity": 0.4015748031496063
        },
        {
          "duration": 0.1999999999999318,
          "durationTicks": 240,
          "midi": 59,
          "name": "B3",
          "ticks": 735840,
          "time": 613.2,
          "velocity": 0.4015748031496063
        },
        {
          "duration": 0.20000000000004547,
          "durationTicks": 240,
          "midi": 55,
          "name": "G3",
          "ticks": 736080,
          "time": 613.4,
          "velocity": 0.4015748031496063
        },
        {
          "duration": 0.20000000000004547,
          "durationTicks": 240,
          "midi": 59,
          "name": "B3",
          "ticks": 736320,
          "time": 613.6,
          "velocity": 0.4015748031496063
        },
        {
          "duration": 0.1999999999999318,
          "durationTicks": 240,
          "midi": 62,
          "name": "D4",
          "ticks": 736560,
          "time": 613.8000000000001,
          "velocity": 0.4015748031496063
        },
        {
          "duration": 0.20000000000004547,
          "durationTicks": 240,
          "midi": 59,
          "name": "B3",
          "ticks": 736800,
          "time": 614,
          "velocity": 0.4015748031496063
        },
        {
          "duration": 0.1966666666666015,
          "durationTicks": 236,
          "midi": 55,
          "name": "G3",
          "ticks": 737040,
          "time": 614.2,
          "velocity": 0.4015748031496063
        },
        {
          "duration": 0.1999999999999318,
          "durationTicks": 240,
          "midi": 61,
          "name": "C#4",
          "ticks": 737280,
          "time": 614.4000000000001,
          "velocity": 0.4015748031496063
        },
        {
          "duration": 0.1999999999999318,
          "durationTicks": 240,
          "midi": 73,
          "name": "C#5",
          "ticks": 737760,
          "time": 614.8000000000001,
          "velocity": 0.4015748031496063
        },
        {
          "duration": 0.20000000000004547,
          "durationTicks": 240,
          "midi": 73,
          "name": "C#5",
          "ticks": 738240,
          "time": 615.2,
          "velocity": 0.4015748031496063
        },
        {
          "duration": 0.16000000000008185,
          "durationTicks": 192,
          "midi": 74,
          "name": "D5",
          "ticks": 739200,
          "time": 616,
          "velocity": 0.4015748031496063
        },
        {
          "duration": 0.15999999999996817,
          "durationTicks": 192,
          "midi": 74,
          "name": "D5",
          "ticks": 739680,
          "time": 616.4000000000001,
          "velocity": 0.4015748031496063
        },
        {
          "duration": 0.15999999999996817,
          "durationTicks": 192,
          "midi": 74,
          "name": "D5",
          "ticks": 740160,
          "time": 616.8000000000001,
          "velocity": 0.4015748031496063
        },
        {
          "duration": 0.16000000000008185,
          "durationTicks": 192,
          "midi": 76,
          "name": "E5",
          "ticks": 741120,
          "time": 617.6,
          "velocity": 0.4015748031496063
        },
        {
          "duration": 0.16000000000008185,
          "durationTicks": 192,
          "midi": 76,
          "name": "E5",
          "ticks": 741600,
          "time": 618,
          "velocity": 0.4015748031496063
        },
        {
          "duration": 0.15999999999996817,
          "durationTicks": 192,
          "midi": 76,
          "name": "E5",
          "ticks": 742080,
          "time": 618.4000000000001,
          "velocity": 0.4015748031496063
        },
        {
          "duration": 1.5,
          "durationTicks": 1800,
          "midi": 68,
          "name": "G#4",
          "ticks": 744960,
          "time": 620.8000000000001,
          "velocity": 0.8267716535433071
        },
        {
          "duration": 0.049999999999954525,
          "durationTicks": 60,
          "midi": 67,
          "name": "G4",
          "ticks": 746880,
          "time": 622.4000000000001,
          "velocity": 0.8267716535433071
        },
        {
          "duration": 0.6833333333332803,
          "durationTicks": 820,
          "midi": 68,
          "name": "G#4",
          "ticks": 746940,
          "time": 622.45,
          "velocity": 0.8267716535433071
        },
        {
          "duration": 0.049999999999954525,
          "durationTicks": 60,
          "midi": 67,
          "name": "G4",
          "ticks": 747840,
          "time": 623.2,
          "velocity": 0.8267716535433071
        },
        {
          "duration": 0.683333333333394,
          "durationTicks": 820,
          "midi": 68,
          "name": "G#4",
          "ticks": 747900,
          "time": 623.25,
          "velocity": 0.8267716535433071
        },
        {
          "duration": 0.7000000000000455,
          "durationTicks": 840,
          "midi": 80,
          "name": "G#5",
          "ticks": 748800,
          "time": 624,
          "velocity": 0.8267716535433071
        },
        {
          "duration": 0.6999999999999318,
          "durationTicks": 840,
          "midi": 80,
          "name": "G#5",
          "ticks": 749760,
          "time": 624.8000000000001,
          "velocity": 0.8267716535433071
        },
        {
          "duration": 0.7000000000000455,
          "durationTicks": 840,
          "midi": 80,
          "name": "G#5",
          "ticks": 750720,
          "time": 625.6,
          "velocity": 0.8267716535433071
        },
        {
          "duration": 0.6999999999999318,
          "durationTicks": 840,
          "midi": 80,
          "name": "G#5",
          "ticks": 751680,
          "time": 626.4000000000001,
          "velocity": 0.8267716535433071
        },
        {
          "duration": 0.7000000000000455,
          "durationTicks": 840,
          "midi": 79,
          "name": "G5",
          "ticks": 752640,
          "time": 627.2,
          "velocity": 0.8267716535433071
        },
        {
          "duration": 0.7000000000000455,
          "durationTicks": 840,
          "midi": 79,
          "name": "G5",
          "ticks": 753600,
          "time": 628,
          "velocity": 0.8267716535433071
        },
        {
          "duration": 0.6999999999999318,
          "durationTicks": 840,
          "midi": 77,
          "name": "F5",
          "ticks": 754560,
          "time": 628.8000000000001,
          "velocity": 0.8267716535433071
        },
        {
          "duration": 0.7000000000000455,
          "durationTicks": 840,
          "midi": 77,
          "name": "F5",
          "ticks": 755520,
          "time": 629.6,
          "velocity": 0.8267716535433071
        },
        {
          "duration": 0.33333333333325754,
          "durationTicks": 400,
          "midi": 76,
          "name": "E5",
          "ticks": 756480,
          "time": 630.4000000000001,
          "velocity": 0.8267716535433071
        },
        {
          "duration": 0.33333333333325754,
          "durationTicks": 400,
          "midi": 64,
          "name": "E4",
          "ticks": 756960,
          "time": 630.8000000000001,
          "velocity": 0.8267716535433071
        },
        {
          "duration": 0.33333333333325754,
          "durationTicks": 400,
          "midi": 72,
          "name": "C5",
          "ticks": 756960,
          "time": 630.8000000000001,
          "velocity": 0.8267716535433071
        },
        {
          "duration": 0.33333333333325754,
          "durationTicks": 400,
          "midi": 79,
          "name": "G5",
          "ticks": 756960,
          "time": 630.8000000000001,
          "velocity": 0.8267716535433071
        },
        {
          "duration": 0.33333333333337123,
          "durationTicks": 400,
          "midi": 65,
          "name": "F4",
          "ticks": 757920,
          "time": 631.6,
          "velocity": 0.8267716535433071
        },
        {
          "duration": 0.33333333333337123,
          "durationTicks": 400,
          "midi": 72,
          "name": "C5",
          "ticks": 757920,
          "time": 631.6,
          "velocity": 0.8267716535433071
        },
        {
          "duration": 0.33333333333337123,
          "durationTicks": 400,
          "midi": 81,
          "name": "A5",
          "ticks": 757920,
          "time": 631.6,
          "velocity": 0.8267716535433071
        },
        {
          "duration": 0.33333333333325754,
          "durationTicks": 400,
          "midi": 64,
          "name": "E4",
          "ticks": 758880,
          "time": 632.4000000000001,
          "velocity": 0.8267716535433071
        },
        {
          "duration": 0.33333333333325754,
          "durationTicks": 400,
          "midi": 72,
          "name": "C5",
          "ticks": 758880,
          "time": 632.4000000000001,
          "velocity": 0.8267716535433071
        },
        {
          "duration": 0.33333333333325754,
          "durationTicks": 400,
          "midi": 79,
          "name": "G5",
          "ticks": 758880,
          "time": 632.4000000000001,
          "velocity": 0.8267716535433071
        },
        {
          "duration": 0.33333333333325754,
          "durationTicks": 400,
          "midi": 55,
          "name": "G3",
          "ticks": 759840,
          "time": 633.2,
          "velocity": 0.8267716535433071
        },
        {
          "duration": 0.33333333333325754,
          "durationTicks": 400,
          "midi": 62,
          "name": "D4",
          "ticks": 759840,
          "time": 633.2,
          "velocity": 0.8267716535433071
        },
        {
          "duration": 0.33333333333325754,
          "durationTicks": 400,
          "midi": 74,
          "name": "D5",
          "ticks": 759840,
          "time": 633.2,
          "velocity": 0.8267716535433071
        },
        {
          "duration": 0.6000000000000227,
          "durationTicks": 720,
          "midi": 64,
          "name": "E4",
          "ticks": 760320,
          "time": 633.6,
          "velocity": 0.8267716535433071
        },
        {
          "duration": 0.1966666666666015,
          "durationTicks": 236,
          "midi": 62,
          "name": "D4",
          "ticks": 761040,
          "time": 634.2,
          "velocity": 0.8267716535433071
        },
        {
          "duration": 0.2999999999999545,
          "durationTicks": 360,
          "midi": 65,
          "name": "F4",
          "ticks": 761280,
          "time": 634.4000000000001,
          "velocity": 0.8267716535433071
        },
        {
          "duration": 0.09666666666657875,
          "durationTicks": 116,
          "midi": 64,
          "name": "E4",
          "ticks": 761640,
          "time": 634.7,
          "velocity": 0.8267716535433071
        },
        {
          "duration": 0.2999999999999545,
          "durationTicks": 360,
          "midi": 69,
          "name": "A4",
          "ticks": 761760,
          "time": 634.8000000000001,
          "velocity": 0.8267716535433071
        },
        {
          "duration": 0.09666666666669244,
          "durationTicks": 116,
          "midi": 67,
          "name": "G4",
          "ticks": 762120,
          "time": 635.1,
          "velocity": 0.8267716535433071
        },
        {
          "duration": 0.6000000000000227,
          "durationTicks": 720,
          "midi": 65,
          "name": "F4",
          "ticks": 762240,
          "time": 635.2,
          "velocity": 0.8267716535433071
        },
        {
          "duration": 0.1966666666666015,
          "durationTicks": 236,
          "midi": 64,
          "name": "E4",
          "ticks": 762960,
          "time": 635.8000000000001,
          "velocity": 0.8267716535433071
        },
        {
          "duration": 0.3000000000000682,
          "durationTicks": 360,
          "midi": 67,
          "name": "G4",
          "ticks": 763200,
          "time": 636,
          "velocity": 0.8267716535433071
        },
        {
          "duration": 0.09666666666657875,
          "durationTicks": 116,
          "midi": 65,
          "name": "F4",
          "ticks": 763560,
          "time": 636.3000000000001,
          "velocity": 0.8267716535433071
        },
        {
          "duration": 0.2999999999999545,
          "durationTicks": 360,
          "midi": 70,
          "name": "A#4",
          "ticks": 763680,
          "time": 636.4000000000001,
          "velocity": 0.8267716535433071
        },
        {
          "duration": 0.09666666666657875,
          "durationTicks": 116,
          "midi": 69,
          "name": "A4",
          "ticks": 764040,
          "time": 636.7,
          "velocity": 0.8267716535433071
        },
        {
          "duration": 0.6000000000000227,
          "durationTicks": 720,
          "midi": 67,
          "name": "G4",
          "ticks": 764160,
          "time": 636.8000000000001,
          "velocity": 0.8267716535433071
        },
        {
          "duration": 0.1966666666666015,
          "durationTicks": 236,
          "midi": 66,
          "name": "F#4",
          "ticks": 764880,
          "time": 637.4000000000001,
          "velocity": 0.8267716535433071
        },
        {
          "duration": 0.3000000000000682,
          "durationTicks": 360,
          "midi": 69,
          "name": "A4",
          "ticks": 765120,
          "time": 637.6,
          "velocity": 0.8267716535433071
        },
        {
          "duration": 0.09666666666657875,
          "durationTicks": 116,
          "midi": 67,
          "name": "G4",
          "ticks": 765480,
          "time": 637.9000000000001,
          "velocity": 0.8267716535433071
        },
        {
          "duration": 0.3000000000000682,
          "durationTicks": 360,
          "midi": 72,
          "name": "C5",
          "ticks": 765600,
          "time": 638,
          "velocity": 0.8267716535433071
        },
        {
          "duration": 0.09666666666657875,
          "durationTicks": 116,
          "midi": 70,
          "name": "A#4",
          "ticks": 765960,
          "time": 638.3000000000001,
          "velocity": 0.8267716535433071
        },
        {
          "duration": 0.533333333333303,
          "durationTicks": 640,
          "midi": 69,
          "name": "A4",
          "ticks": 766080,
          "time": 638.4000000000001,
          "velocity": 0.6771653543307087
        },
        {
          "duration": 0.19666666666671517,
          "durationTicks": 236,
          "midi": 69,
          "name": "A4",
          "ticks": 766800,
          "time": 639,
          "velocity": 0.6771653543307087
        },
        {
          "duration": 0.533333333333303,
          "durationTicks": 640,
          "midi": 67,
          "name": "G4",
          "ticks": 767040,
          "time": 639.2,
          "velocity": 0.6771653543307087
        },
        {
          "duration": 0.1966666666666015,
          "durationTicks": 236,
          "midi": 67,
          "name": "G4",
          "ticks": 767760,
          "time": 639.8000000000001,
          "velocity": 0.6771653543307087
        },
        {
          "duration": 0.33333333333337123,
          "durationTicks": 400,
          "midi": 72,
          "name": "C5",
          "ticks": 768000,
          "time": 640,
          "velocity": 0.6771653543307087
        },
        {
          "duration": 0.33333333333325754,
          "durationTicks": 400,
          "midi": 55,
          "name": "G3",
          "ticks": 768960,
          "time": 640.8000000000001,
          "velocity": 0.6771653543307087
        },
        {
          "duration": 0.33333333333325754,
          "durationTicks": 400,
          "midi": 65,
          "name": "F4",
          "ticks": 768960,
          "time": 640.8000000000001,
          "velocity": 0.6771653543307087
        },
        {
          "duration": 0.6000000000000227,
          "durationTicks": 720,
          "midi": 64,
          "name": "E4",
          "ticks": 769920,
          "time": 641.6,
          "velocity": 0.6771653543307087
        },
        {
          "duration": 0.1966666666666015,
          "durationTicks": 236,
          "midi": 62,
          "name": "D4",
          "ticks": 770640,
          "time": 642.2,
          "velocity": 0.6771653543307087
        },
        {
          "duration": 0.2999999999999545,
          "durationTicks": 360,
          "midi": 65,
          "name": "F4",
          "ticks": 770880,
          "time": 642.4000000000001,
          "velocity": 0.6771653543307087
        },
        {
          "duration": 0.09666666666657875,
          "durationTicks": 116,
          "midi": 64,
          "name": "E4",
          "ticks": 771240,
          "time": 642.7,
          "velocity": 0.6771653543307087
        },
        {
          "duration": 0.2999999999999545,
          "durationTicks": 360,
          "midi": 69,
          "name": "A4",
          "ticks": 771360,
          "time": 642.8000000000001,
          "velocity": 0.6771653543307087
        },
        {
          "duration": 0.09666666666669244,
          "durationTicks": 116,
          "midi": 67,
          "name": "G4",
          "ticks": 771720,
          "time": 643.1,
          "velocity": 0.6771653543307087
        },
        {
          "duration": 0.6000000000000227,
          "durationTicks": 720,
          "midi": 65,
          "name": "F4",
          "ticks": 771840,
          "time": 643.2,
          "velocity": 0.6771653543307087
        },
        {
          "duration": 0.1966666666666015,
          "durationTicks": 236,
          "midi": 64,
          "name": "E4",
          "ticks": 772560,
          "time": 643.8000000000001,
          "velocity": 0.6771653543307087
        },
        {
          "duration": 0.3000000000000682,
          "durationTicks": 360,
          "midi": 67,
          "name": "G4",
          "ticks": 772800,
          "time": 644,
          "velocity": 0.6771653543307087
        },
        {
          "duration": 0.09666666666657875,
          "durationTicks": 116,
          "midi": 65,
          "name": "F4",
          "ticks": 773160,
          "time": 644.3000000000001,
          "velocity": 0.6771653543307087
        },
        {
          "duration": 0.2999999999999545,
          "durationTicks": 360,
          "midi": 70,
          "name": "A#4",
          "ticks": 773280,
          "time": 644.4000000000001,
          "velocity": 0.6771653543307087
        },
        {
          "duration": 0.09666666666657875,
          "durationTicks": 116,
          "midi": 69,
          "name": "A4",
          "ticks": 773640,
          "time": 644.7,
          "velocity": 0.6771653543307087
        },
        {
          "duration": 0.6000000000000227,
          "durationTicks": 720,
          "midi": 67,
          "name": "G4",
          "ticks": 773760,
          "time": 644.8000000000001,
          "velocity": 0.6771653543307087
        },
        {
          "duration": 0.1966666666666015,
          "durationTicks": 236,
          "midi": 66,
          "name": "F#4",
          "ticks": 774480,
          "time": 645.4000000000001,
          "velocity": 0.6771653543307087
        },
        {
          "duration": 0.3000000000000682,
          "durationTicks": 360,
          "midi": 69,
          "name": "A4",
          "ticks": 774720,
          "time": 645.6,
          "velocity": 0.6771653543307087
        },
        {
          "duration": 0.09666666666657875,
          "durationTicks": 116,
          "midi": 67,
          "name": "G4",
          "ticks": 775080,
          "time": 645.9000000000001,
          "velocity": 0.6771653543307087
        },
        {
          "duration": 0.3000000000000682,
          "durationTicks": 360,
          "midi": 72,
          "name": "C5",
          "ticks": 775200,
          "time": 646,
          "velocity": 0.6771653543307087
        },
        {
          "duration": 0.09666666666657875,
          "durationTicks": 116,
          "midi": 70,
          "name": "A#4",
          "ticks": 775560,
          "time": 646.3000000000001,
          "velocity": 0.6771653543307087
        },
        {
          "duration": 0.33333333333325754,
          "durationTicks": 400,
          "midi": 69,
          "name": "A4",
          "ticks": 775680,
          "time": 646.4000000000001,
          "velocity": 0.6771653543307087
        },
        {
          "duration": 0.33333333333325754,
          "durationTicks": 400,
          "midi": 70,
          "name": "A#4",
          "ticks": 776160,
          "time": 646.8000000000001,
          "velocity": 0.6771653543307087
        },
        {
          "duration": 0.33333333333325754,
          "durationTicks": 400,
          "midi": 69,
          "name": "A4",
          "ticks": 776640,
          "time": 647.2,
          "velocity": 0.6771653543307087
        },
        {
          "duration": 0.33333333333337123,
          "durationTicks": 400,
          "midi": 67,
          "name": "G4",
          "ticks": 777120,
          "time": 647.6,
          "velocity": 0.6771653543307087
        },
        {
          "duration": 0.33333333333337123,
          "durationTicks": 400,
          "midi": 65,
          "name": "F4",
          "ticks": 777600,
          "time": 648,
          "velocity": 0.6771653543307087
        },
        {
          "duration": 0.33333333333325754,
          "durationTicks": 400,
          "midi": 56,
          "name": "G#3",
          "ticks": 778080,
          "time": 648.4000000000001,
          "velocity": 0.6771653543307087
        },
        {
          "duration": 0.33333333333325754,
          "durationTicks": 400,
          "midi": 55,
          "name": "G3",
          "ticks": 778560,
          "time": 648.8000000000001,
          "velocity": 0.6771653543307087
        },
        {
          "duration": 0.33333333333325754,
          "durationTicks": 400,
          "midi": 56,
          "name": "G#3",
          "ticks": 779040,
          "time": 649.2,
          "velocity": 0.6771653543307087
        },
        {
          "duration": 0.33333333333337123,
          "durationTicks": 400,
          "midi": 55,
          "name": "G3",
          "ticks": 779520,
          "time": 649.6,
          "velocity": 0.6771653543307087
        },
        {
          "duration": 0.1999999999999318,
          "durationTicks": 240,
          "midi": 55,
          "name": "G3",
          "ticks": 784080,
          "time": 653.4000000000001,
          "velocity": 0.4015748031496063
        },
        {
          "duration": 0.33333333333337123,
          "durationTicks": 400,
          "midi": 64,
          "name": "E4",
          "ticks": 784320,
          "time": 653.6,
          "velocity": 0.4015748031496063
        },
        {
          "duration": 0.06666666666671972,
          "durationTicks": 80,
          "midi": 64,
          "name": "E4",
          "ticks": 784800,
          "time": 654,
          "velocity": 0.4015748031496063
        },
        {
          "duration": 0.06666666666671972,
          "durationTicks": 80,
          "midi": 64,
          "name": "E4",
          "ticks": 785040,
          "time": 654.2,
          "velocity": 0.4015748031496063
        },
        {
          "duration": 0.1999999999999318,
          "durationTicks": 240,
          "midi": 64,
          "name": "E4",
          "ticks": 785280,
          "time": 654.4000000000001,
          "velocity": 0.4015748031496063
        },
        {
          "duration": 0.1966666666666015,
          "durationTicks": 236,
          "midi": 62,
          "name": "D4",
          "ticks": 785520,
          "time": 654.6,
          "velocity": 0.4015748031496063
        },
        {
          "duration": 0.06666666666671972,
          "durationTicks": 80,
          "midi": 62,
          "name": "D4",
          "ticks": 785760,
          "time": 654.8000000000001,
          "velocity": 0.4015748031496063
        },
        {
          "duration": 0.06666666666671972,
          "durationTicks": 80,
          "midi": 62,
          "name": "D4",
          "ticks": 786000,
          "time": 655,
          "velocity": 0.4015748031496063
        },
        {
          "duration": 0.049999999999954525,
          "durationTicks": 60,
          "midi": 64,
          "name": "E4",
          "ticks": 786240,
          "time": 655.2,
          "velocity": 0.4015748031496063
        },
        {
          "duration": 0.10000000000002274,
          "durationTicks": 120,
          "midi": 62,
          "name": "D4",
          "ticks": 786300,
          "time": 655.25,
          "velocity": 0.4015748031496063
        },
        {
          "duration": 0.06666666666660603,
          "durationTicks": 80,
          "midi": 60,
          "name": "C4",
          "ticks": 786480,
          "time": 655.4000000000001,
          "velocity": 0.4015748031496063
        },
        {
          "duration": 0.06666666666671972,
          "durationTicks": 80,
          "midi": 62,
          "name": "D4",
          "ticks": 786720,
          "time": 655.6,
          "velocity": 0.4015748031496063
        },
        {
          "duration": 0.06666666666671972,
          "durationTicks": 80,
          "midi": 64,
          "name": "E4",
          "ticks": 786960,
          "time": 655.8000000000001,
          "velocity": 0.4015748031496063
        },
        {
          "duration": 0.40000000000009095,
          "durationTicks": 480,
          "midi": 60,
          "name": "C4",
          "ticks": 787200,
          "time": 656,
          "velocity": 0.4015748031496063
        },
        {
          "duration": 0.1966666666666015,
          "durationTicks": 236,
          "midi": 55,
          "name": "G3",
          "ticks": 787680,
          "time": 656.4000000000001,
          "velocity": 0.4015748031496063
        },
        {
          "duration": 0.06666666666671972,
          "durationTicks": 80,
          "midi": 55,
          "name": "G3",
          "ticks": 787920,
          "time": 656.6,
          "velocity": 0.4015748031496063
        },
        {
          "duration": 0.1999999999999318,
          "durationTicks": 240,
          "midi": 55,
          "name": "G3",
          "ticks": 788160,
          "time": 656.8000000000001,
          "velocity": 0.4015748031496063
        },
        {
          "duration": 0.19666666666671517,
          "durationTicks": 236,
          "midi": 64,
          "name": "E4",
          "ticks": 788400,
          "time": 657,
          "velocity": 0.4015748031496063
        },
        {
          "duration": 0.06666666666671972,
          "durationTicks": 80,
          "midi": 64,
          "name": "E4",
          "ticks": 788640,
          "time": 657.2,
          "velocity": 0.4015748031496063
        },
        {
          "duration": 0.06666666666660603,
          "durationTicks": 80,
          "midi": 64,
          "name": "E4",
          "ticks": 788880,
          "time": 657.4000000000001,
          "velocity": 0.4015748031496063
        },
        {
          "duration": 0.20000000000004547,
          "durationTicks": 240,
          "midi": 64,
          "name": "E4",
          "ticks": 789120,
          "time": 657.6,
          "velocity": 0.4015748031496063
        },
        {
          "duration": 0.1966666666666015,
          "durationTicks": 236,
          "midi": 62,
          "name": "D4",
          "ticks": 789360,
          "time": 657.8000000000001,
          "velocity": 0.4015748031496063
        },
        {
          "duration": 0.06666666666671972,
          "durationTicks": 80,
          "midi": 62,
          "name": "D4",
          "ticks": 789600,
          "time": 658,
          "velocity": 0.4015748031496063
        },
        {
          "duration": 0.06666666666671972,
          "durationTicks": 80,
          "midi": 62,
          "name": "D4",
          "ticks": 789840,
          "time": 658.2,
          "velocity": 0.4015748031496063
        },
        {
          "duration": 0.049999999999954525,
          "durationTicks": 60,
          "midi": 64,
          "name": "E4",
          "ticks": 790080,
          "time": 658.4000000000001,
          "velocity": 0.4015748031496063
        },
        {
          "duration": 0.10000000000002274,
          "durationTicks": 120,
          "midi": 62,
          "name": "D4",
          "ticks": 790140,
          "time": 658.45,
          "velocity": 0.4015748031496063
        },
        {
          "duration": 0.06666666666671972,
          "durationTicks": 80,
          "midi": 60,
          "name": "C4",
          "ticks": 790320,
          "time": 658.6,
          "velocity": 0.4015748031496063
        },
        {
          "duration": 0.06666666666671972,
          "durationTicks": 80,
          "midi": 62,
          "name": "D4",
          "ticks": 790560,
          "time": 658.8000000000001,
          "velocity": 0.4015748031496063
        },
        {
          "duration": 0.06666666666671972,
          "durationTicks": 80,
          "midi": 64,
          "name": "E4",
          "ticks": 790800,
          "time": 659,
          "velocity": 0.4015748031496063
        },
        {
          "duration": 0.39999999999997726,
          "durationTicks": 480,
          "midi": 60,
          "name": "C4",
          "ticks": 791040,
          "time": 659.2,
          "velocity": 0.4015748031496063
        },
        {
          "duration": 0.1966666666666015,
          "durationTicks": 236,
          "midi": 67,
          "name": "G4",
          "ticks": 791520,
          "time": 659.6,
          "velocity": 0.4015748031496063
        },
        {
          "duration": 0.06666666666671972,
          "durationTicks": 80,
          "midi": 55,
          "name": "G3",
          "ticks": 791760,
          "time": 659.8000000000001,
          "velocity": 0.4015748031496063
        },
        {
          "duration": 0.20000000000004547,
          "durationTicks": 240,
          "midi": 55,
          "name": "G3",
          "ticks": 792000,
          "time": 660,
          "velocity": 0.4015748031496063
        },
        {
          "duration": 0.1966666666666015,
          "durationTicks": 236,
          "midi": 64,
          "name": "E4",
          "ticks": 792240,
          "time": 660.2,
          "velocity": 0.4015748031496063
        },
        {
          "duration": 0.06666666666660603,
          "durationTicks": 80,
          "midi": 64,
          "name": "E4",
          "ticks": 792480,
          "time": 660.4000000000001,
          "velocity": 0.4015748031496063
        },
        {
          "duration": 0.06666666666671972,
          "durationTicks": 80,
          "midi": 64,
          "name": "E4",
          "ticks": 792720,
          "time": 660.6,
          "velocity": 0.4015748031496063
        },
        {
          "duration": 0.1999999999999318,
          "durationTicks": 240,
          "midi": 64,
          "name": "E4",
          "ticks": 792960,
          "time": 660.8000000000001,
          "velocity": 0.4015748031496063
        },
        {
          "duration": 0.19666666666671517,
          "durationTicks": 236,
          "midi": 62,
          "name": "D4",
          "ticks": 793200,
          "time": 661,
          "velocity": 0.4015748031496063
        },
        {
          "duration": 0.06666666666671972,
          "durationTicks": 80,
          "midi": 62,
          "name": "D4",
          "ticks": 793440,
          "time": 661.2,
          "velocity": 0.4015748031496063
        },
        {
          "duration": 0.06666666666660603,
          "durationTicks": 80,
          "midi": 62,
          "name": "D4",
          "ticks": 793680,
          "time": 661.4000000000001,
          "velocity": 0.4015748031496063
        },
        {
          "duration": 0.05000000000006821,
          "durationTicks": 60,
          "midi": 64,
          "name": "E4",
          "ticks": 793920,
          "time": 661.6,
          "velocity": 0.4015748031496063
        },
        {
          "duration": 0.09999999999990905,
          "durationTicks": 120,
          "midi": 62,
          "name": "D4",
          "ticks": 793980,
          "time": 661.6500000000001,
          "velocity": 0.4015748031496063
        },
        {
          "duration": 0.06666666666671972,
          "durationTicks": 80,
          "midi": 60,
          "name": "C4",
          "ticks": 794160,
          "time": 661.8000000000001,
          "velocity": 0.4015748031496063
        },
        {
          "duration": 0.06666666666671972,
          "durationTicks": 80,
          "midi": 62,
          "name": "D4",
          "ticks": 794400,
          "time": 662,
          "velocity": 0.4015748031496063
        },
        {
          "duration": 0.06666666666671972,
          "durationTicks": 80,
          "midi": 64,
          "name": "E4",
          "ticks": 794640,
          "time": 662.2,
          "velocity": 0.4015748031496063
        },
        {
          "duration": 0.599999999999909,
          "durationTicks": 720,
          "midi": 60,
          "name": "C4",
          "ticks": 794880,
          "time": 662.4000000000001,
          "velocity": 0.4015748031496063
        },
        {
          "duration": 0.19666666666671517,
          "durationTicks": 236,
          "midi": 64,
          "name": "E4",
          "ticks": 795600,
          "time": 663,
          "velocity": 0.4015748031496063
        },
        {
          "duration": 0.6000000000000227,
          "durationTicks": 720,
          "midi": 57,
          "name": "A3",
          "ticks": 795840,
          "time": 663.2,
          "velocity": 0.4015748031496063
        },
        {
          "duration": 0.1966666666666015,
          "durationTicks": 236,
          "midi": 65,
          "name": "F4",
          "ticks": 796560,
          "time": 663.8000000000001,
          "velocity": 0.4015748031496063
        },
        {
          "duration": 0.20000000000004547,
          "durationTicks": 240,
          "midi": 62,
          "name": "D4",
          "ticks": 796800,
          "time": 664,
          "velocity": 0.4015748031496063
        },
        {
          "duration": 0.1966666666666015,
          "durationTicks": 236,
          "midi": 69,
          "name": "A4",
          "ticks": 797040,
          "time": 664.2,
          "velocity": 0.4015748031496063
        },
        {
          "duration": 0.06666666666660603,
          "durationTicks": 80,
          "midi": 65,
          "name": "F4",
          "ticks": 797280,
          "time": 664.4000000000001,
          "velocity": 0.4015748031496063
        },
        {
          "duration": 0.06666666666671972,
          "durationTicks": 80,
          "midi": 62,
          "name": "D4",
          "ticks": 797520,
          "time": 664.6,
          "velocity": 0.4015748031496063
        },
        {
          "duration": 0.06666666666671972,
          "durationTicks": 80,
          "midi": 59,
          "name": "B3",
          "ticks": 797760,
          "time": 664.8000000000001,
          "velocity": 0.4015748031496063
        },
        {
          "duration": 0.06666666666671972,
          "durationTicks": 80,
          "midi": 60,
          "name": "C4",
          "ticks": 798000,
          "time": 665,
          "velocity": 0.4015748031496063
        },
        {
          "duration": 0.06666666666671972,
          "durationTicks": 80,
          "midi": 62,
          "name": "D4",
          "ticks": 798240,
          "time": 665.2,
          "velocity": 0.4015748031496063
        },
        {
          "duration": 0.06666666666660603,
          "durationTicks": 80,
          "midi": 64,
          "name": "E4",
          "ticks": 798480,
          "time": 665.4000000000001,
          "velocity": 0.4015748031496063
        },
        {
          "duration": 0.6000000000000227,
          "durationTicks": 720,
          "midi": 60,
          "name": "C4",
          "ticks": 798720,
          "time": 665.6,
          "velocity": 0.4015748031496063
        },
        {
          "duration": 0.1966666666666015,
          "durationTicks": 236,
          "midi": 64,
          "name": "E4",
          "ticks": 799440,
          "time": 666.2,
          "velocity": 0.4015748031496063
        },
        {
          "duration": 0.599999999999909,
          "durationTicks": 720,
          "midi": 57,
          "name": "A3",
          "ticks": 799680,
          "time": 666.4000000000001,
          "velocity": 0.4015748031496063
        },
        {
          "duration": 0.19666666666671517,
          "durationTicks": 236,
          "midi": 65,
          "name": "F4",
          "ticks": 800400,
          "time": 667,
          "velocity": 0.4015748031496063
        },
        {
          "duration": 0.20000000000004547,
          "durationTicks": 240,
          "midi": 62,
          "name": "D4",
          "ticks": 800640,
          "time": 667.2,
          "velocity": 0.4015748031496063
        },
        {
          "duration": 0.1966666666666015,
          "durationTicks": 236,
          "midi": 69,
          "name": "A4",
          "ticks": 800880,
          "time": 667.4000000000001,
          "velocity": 0.4015748031496063
        },
        {
          "duration": 0.06666666666671972,
          "durationTicks": 80,
          "midi": 65,
          "name": "F4",
          "ticks": 801120,
          "time": 667.6,
          "velocity": 0.4015748031496063
        },
        {
          "duration": 0.06666666666671972,
          "durationTicks": 80,
          "midi": 62,
          "name": "D4",
          "ticks": 801360,
          "time": 667.8000000000001,
          "velocity": 0.4015748031496063
        },
        {
          "duration": 0.06666666666671972,
          "durationTicks": 80,
          "midi": 59,
          "name": "B3",
          "ticks": 801600,
          "time": 668,
          "velocity": 0.4015748031496063
        },
        {
          "duration": 0.06666666666671972,
          "durationTicks": 80,
          "midi": 60,
          "name": "C4",
          "ticks": 801840,
          "time": 668.2,
          "velocity": 0.4015748031496063
        },
        {
          "duration": 0.06666666666660603,
          "durationTicks": 80,
          "midi": 62,
          "name": "D4",
          "ticks": 802080,
          "time": 668.4000000000001,
          "velocity": 0.4015748031496063
        },
        {
          "duration": 0.06666666666671972,
          "durationTicks": 80,
          "midi": 64,
          "name": "E4",
          "ticks": 802320,
          "time": 668.6,
          "velocity": 0.4015748031496063
        },
        {
          "duration": 0.1966666666666015,
          "durationTicks": 236,
          "midi": 60,
          "name": "C4",
          "ticks": 802560,
          "time": 668.8000000000001,
          "velocity": 0.4015748031496063
        },
        {
          "duration": 0.09666666666657875,
          "durationTicks": 116,
          "midi": 67,
          "name": "G4",
          "ticks": 803040,
          "time": 669.2,
          "velocity": 0.8267716535433071
        },
        {
          "duration": 0.09666666666657875,
          "durationTicks": 116,
          "midi": 67,
          "name": "G4",
          "ticks": 803160,
          "time": 669.3000000000001,
          "velocity": 0.8267716535433071
        },
        {
          "duration": 0.09666666666657875,
          "durationTicks": 116,
          "midi": 66,
          "name": "F#4",
          "ticks": 803280,
          "time": 669.4000000000001,
          "velocity": 0.8267716535433071
        },
        {
          "duration": 0.09666666666669244,
          "durationTicks": 116,
          "midi": 66,
          "name": "F#4",
          "ticks": 803400,
          "time": 669.5,
          "velocity": 0.8267716535433071
        },
        {
          "duration": 0.09666666666669244,
          "durationTicks": 116,
          "midi": 67,
          "name": "G4",
          "ticks": 803520,
          "time": 669.6,
          "velocity": 0.8267716535433071
        },
        {
          "duration": 0.09666666666657875,
          "durationTicks": 116,
          "midi": 67,
          "name": "G4",
          "ticks": 803640,
          "time": 669.7,
          "velocity": 0.8267716535433071
        },
        {
          "duration": 0.09666666666657875,
          "durationTicks": 116,
          "midi": 66,
          "name": "F#4",
          "ticks": 803760,
          "time": 669.8000000000001,
          "velocity": 0.8267716535433071
        },
        {
          "duration": 0.09666666666657875,
          "durationTicks": 116,
          "midi": 66,
          "name": "F#4",
          "ticks": 803880,
          "time": 669.9000000000001,
          "velocity": 0.8267716535433071
        },
        {
          "duration": 0.09666666666669244,
          "durationTicks": 116,
          "midi": 67,
          "name": "G4",
          "ticks": 804000,
          "time": 670,
          "velocity": 0.8267716535433071
        },
        {
          "duration": 0.09666666666669244,
          "durationTicks": 116,
          "midi": 67,
          "name": "G4",
          "ticks": 804120,
          "time": 670.1,
          "velocity": 0.8267716535433071
        },
        {
          "duration": 0.09666666666657875,
          "durationTicks": 116,
          "midi": 64,
          "name": "E4",
          "ticks": 804240,
          "time": 670.2,
          "velocity": 0.8267716535433071
        },
        {
          "duration": 0.09666666666657875,
          "durationTicks": 116,
          "midi": 64,
          "name": "E4",
          "ticks": 804360,
          "time": 670.3000000000001,
          "velocity": 0.8267716535433071
        },
        {
          "duration": 0.1966666666666015,
          "durationTicks": 236,
          "midi": 65,
          "name": "F4",
          "ticks": 804480,
          "time": 670.4000000000001,
          "velocity": 0.8267716535433071
        },
        {
          "duration": 0.09666666666657875,
          "durationTicks": 116,
          "midi": 65,
          "name": "F4",
          "ticks": 804960,
          "time": 670.8000000000001,
          "velocity": 0.8267716535433071
        },
        {
          "duration": 0.09666666666657875,
          "durationTicks": 116,
          "midi": 65,
          "name": "F4",
          "ticks": 805080,
          "time": 670.9000000000001,
          "velocity": 0.8267716535433071
        },
        {
          "duration": 0.09666666666669244,
          "durationTicks": 116,
          "midi": 64,
          "name": "E4",
          "ticks": 805200,
          "time": 671,
          "velocity": 0.8267716535433071
        },
        {
          "duration": 0.09666666666669244,
          "durationTicks": 116,
          "midi": 64,
          "name": "E4",
          "ticks": 805320,
          "time": 671.1,
          "velocity": 0.8267716535433071
        },
        {
          "duration": 0.09666666666657875,
          "durationTicks": 116,
          "midi": 65,
          "name": "F4",
          "ticks": 805440,
          "time": 671.2,
          "velocity": 0.8267716535433071
        },
        {
          "duration": 0.09666666666657875,
          "durationTicks": 116,
          "midi": 65,
          "name": "F4",
          "ticks": 805560,
          "time": 671.3000000000001,
          "velocity": 0.8267716535433071
        },
        {
          "duration": 0.09666666666657875,
          "durationTicks": 116,
          "midi": 64,
          "name": "E4",
          "ticks": 805680,
          "time": 671.4000000000001,
          "velocity": 0.8267716535433071
        },
        {
          "duration": 0.09666666666669244,
          "durationTicks": 116,
          "midi": 64,
          "name": "E4",
          "ticks": 805800,
          "time": 671.5,
          "velocity": 0.8267716535433071
        },
        {
          "duration": 0.09666666666669244,
          "durationTicks": 116,
          "midi": 65,
          "name": "F4",
          "ticks": 805920,
          "time": 671.6,
          "velocity": 0.8267716535433071
        },
        {
          "duration": 0.09666666666657875,
          "durationTicks": 116,
          "midi": 65,
          "name": "F4",
          "ticks": 806040,
          "time": 671.7,
          "velocity": 0.8267716535433071
        },
        {
          "duration": 0.09666666666657875,
          "durationTicks": 116,
          "midi": 62,
          "name": "D4",
          "ticks": 806160,
          "time": 671.8000000000001,
          "velocity": 0.8267716535433071
        },
        {
          "duration": 0.09666666666657875,
          "durationTicks": 116,
          "midi": 62,
          "name": "D4",
          "ticks": 806280,
          "time": 671.9000000000001,
          "velocity": 0.8267716535433071
        },
        {
          "duration": 0.19666666666671517,
          "durationTicks": 236,
          "midi": 67,
          "name": "G4",
          "ticks": 806400,
          "time": 672,
          "velocity": 0.8267716535433071
        },
        {
          "duration": 0.049999999999954525,
          "durationTicks": 60,
          "midi": 65,
          "name": "F4",
          "ticks": 806880,
          "time": 672.4000000000001,
          "velocity": 0.8267716535433071
        },
        {
          "duration": 0.049999999999954525,
          "durationTicks": 60,
          "midi": 64,
          "name": "E4",
          "ticks": 806940,
          "time": 672.45,
          "velocity": 0.8267716535433071
        },
        {
          "duration": 0.05000000000006821,
          "durationTicks": 60,
          "midi": 65,
          "name": "F4",
          "ticks": 807000,
          "time": 672.5,
          "velocity": 0.8267716535433071
        },
        {
          "duration": 0.049999999999954525,
          "durationTicks": 60,
          "midi": 64,
          "name": "E4",
          "ticks": 807060,
          "time": 672.5500000000001,
          "velocity": 0.8267716535433071
        },
        {
          "duration": 0.10000000000002274,
          "durationTicks": 120,
          "midi": 62,
          "name": "D4",
          "ticks": 807120,
          "time": 672.6,
          "velocity": 0.8267716535433071
        },
        {
          "duration": 0.10000000000002274,
          "durationTicks": 120,
          "midi": 64,
          "name": "E4",
          "ticks": 807240,
          "time": 672.7,
          "velocity": 0.8267716535433071
        },
        {
          "duration": 0.1966666666666015,
          "durationTicks": 236,
          "midi": 65,
          "name": "F4",
          "ticks": 807360,
          "time": 672.8000000000001,
          "velocity": 0.8267716535433071
        },
        {
          "duration": 0.13333333333332575,
          "durationTicks": 160,
          "midi": 65,
          "name": "F4",
          "ticks": 807600,
          "time": 673,
          "velocity": 0.8267716535433071
        },
        {
          "duration": 0.13333333333332575,
          "durationTicks": 160,
          "midi": 62,
          "name": "D4",
          "ticks": 807840,
          "time": 673.2,
          "velocity": 0.8267716535433071
        },
        {
          "duration": 0.13333333333321207,
          "durationTicks": 160,
          "midi": 62,
          "name": "D4",
          "ticks": 808080,
          "time": 673.4000000000001,
          "velocity": 0.8267716535433071
        },
        {
          "duration": 0.1966666666666015,
          "durationTicks": 236,
          "midi": 64,
          "name": "E4",
          "ticks": 808320,
          "time": 673.6,
          "velocity": 0.8267716535433071
        },
        {
          "duration": 0.09666666666669244,
          "durationTicks": 116,
          "midi": 67,
          "name": "G4",
          "ticks": 808800,
          "time": 674,
          "velocity": 0.8267716535433071
        },
        {
          "duration": 0.09666666666669244,
          "durationTicks": 116,
          "midi": 67,
          "name": "G4",
          "ticks": 808920,
          "time": 674.1,
          "velocity": 0.8267716535433071
        },
        {
          "duration": 0.09666666666657875,
          "durationTicks": 116,
          "midi": 66,
          "name": "F#4",
          "ticks": 809040,
          "time": 674.2,
          "velocity": 0.8267716535433071
        },
        {
          "duration": 0.09666666666657875,
          "durationTicks": 116,
          "midi": 66,
          "name": "F#4",
          "ticks": 809160,
          "time": 674.3000000000001,
          "velocity": 0.8267716535433071
        },
        {
          "duration": 0.09666666666657875,
          "durationTicks": 116,
          "midi": 67,
          "name": "G4",
          "ticks": 809280,
          "time": 674.4000000000001,
          "velocity": 0.8267716535433071
        },
        {
          "duration": 0.09666666666669244,
          "durationTicks": 116,
          "midi": 67,
          "name": "G4",
          "ticks": 809400,
          "time": 674.5,
          "velocity": 0.8267716535433071
        },
        {
          "duration": 0.09666666666669244,
          "durationTicks": 116,
          "midi": 66,
          "name": "F#4",
          "ticks": 809520,
          "time": 674.6,
          "velocity": 0.8267716535433071
        },
        {
          "duration": 0.09666666666657875,
          "durationTicks": 116,
          "midi": 66,
          "name": "F#4",
          "ticks": 809640,
          "time": 674.7,
          "velocity": 0.8267716535433071
        },
        {
          "duration": 0.09666666666657875,
          "durationTicks": 116,
          "midi": 67,
          "name": "G4",
          "ticks": 809760,
          "time": 674.8000000000001,
          "velocity": 0.8267716535433071
        },
        {
          "duration": 0.09666666666657875,
          "durationTicks": 116,
          "midi": 67,
          "name": "G4",
          "ticks": 809880,
          "time": 674.9000000000001,
          "velocity": 0.8267716535433071
        },
        {
          "duration": 0.09666666666669244,
          "durationTicks": 116,
          "midi": 76,
          "name": "E5",
          "ticks": 810000,
          "time": 675,
          "velocity": 0.8267716535433071
        },
        {
          "duration": 0.09666666666669244,
          "durationTicks": 116,
          "midi": 76,
          "name": "E5",
          "ticks": 810120,
          "time": 675.1,
          "velocity": 0.8267716535433071
        },
        {
          "duration": 0.1966666666666015,
          "durationTicks": 236,
          "midi": 65,
          "name": "F4",
          "ticks": 810240,
          "time": 675.2,
          "velocity": 0.8267716535433071
        },
        {
          "duration": 0.09666666666669244,
          "durationTicks": 116,
          "midi": 65,
          "name": "F4",
          "ticks": 810720,
          "time": 675.6,
          "velocity": 0.8267716535433071
        },
        {
          "duration": 0.09666666666657875,
          "durationTicks": 116,
          "midi": 65,
          "name": "F4",
          "ticks": 810840,
          "time": 675.7,
          "velocity": 0.8267716535433071
        },
        {
          "duration": 0.09666666666657875,
          "durationTicks": 116,
          "midi": 64,
          "name": "E4",
          "ticks": 810960,
          "time": 675.8000000000001,
          "velocity": 0.8267716535433071
        },
        {
          "duration": 0.09666666666657875,
          "durationTicks": 116,
          "midi": 64,
          "name": "E4",
          "ticks": 811080,
          "time": 675.9000000000001,
          "velocity": 0.8267716535433071
        },
        {
          "duration": 0.09666666666669244,
          "durationTicks": 116,
          "midi": 65,
          "name": "F4",
          "ticks": 811200,
          "time": 676,
          "velocity": 0.8267716535433071
        },
        {
          "duration": 0.09666666666669244,
          "durationTicks": 116,
          "midi": 65,
          "name": "F4",
          "ticks": 811320,
          "time": 676.1,
          "velocity": 0.8267716535433071
        },
        {
          "duration": 0.09666666666657875,
          "durationTicks": 116,
          "midi": 64,
          "name": "E4",
          "ticks": 811440,
          "time": 676.2,
          "velocity": 0.8267716535433071
        },
        {
          "duration": 0.09666666666657875,
          "durationTicks": 116,
          "midi": 64,
          "name": "E4",
          "ticks": 811560,
          "time": 676.3000000000001,
          "velocity": 0.8267716535433071
        },
        {
          "duration": 0.09666666666657875,
          "durationTicks": 116,
          "midi": 65,
          "name": "F4",
          "ticks": 811680,
          "time": 676.4000000000001,
          "velocity": 0.8267716535433071
        },
        {
          "duration": 0.09666666666669244,
          "durationTicks": 116,
          "midi": 65,
          "name": "F4",
          "ticks": 811800,
          "time": 676.5,
          "velocity": 0.8267716535433071
        },
        {
          "duration": 0.09666666666669244,
          "durationTicks": 116,
          "midi": 74,
          "name": "D5",
          "ticks": 811920,
          "time": 676.6,
          "velocity": 0.8267716535433071
        },
        {
          "duration": 0.09666666666657875,
          "durationTicks": 116,
          "midi": 74,
          "name": "D5",
          "ticks": 812040,
          "time": 676.7,
          "velocity": 0.8267716535433071
        },
        {
          "duration": 0.1966666666666015,
          "durationTicks": 236,
          "midi": 64,
          "name": "E4",
          "ticks": 812160,
          "time": 676.8000000000001,
          "velocity": 0.8267716535433071
        },
        {
          "duration": 0.049999999999954525,
          "durationTicks": 60,
          "midi": 69,
          "name": "A4",
          "ticks": 812640,
          "time": 677.2,
          "velocity": 0.8267716535433071
        },
        {
          "duration": 0.05000000000006821,
          "durationTicks": 60,
          "midi": 67,
          "name": "G4",
          "ticks": 812700,
          "time": 677.25,
          "velocity": 0.8267716535433071
        },
        {
          "duration": 0.049999999999954525,
          "durationTicks": 60,
          "midi": 69,
          "name": "A4",
          "ticks": 812760,
          "time": 677.3000000000001,
          "velocity": 0.8267716535433071
        },
        {
          "duration": 0.05000000000006821,
          "durationTicks": 60,
          "midi": 67,
          "name": "G4",
          "ticks": 812820,
          "time": 677.35,
          "velocity": 0.8267716535433071
        },
        {
          "duration": 0.09999999999990905,
          "durationTicks": 120,
          "midi": 65,
          "name": "F4",
          "ticks": 812880,
          "time": 677.4000000000001,
          "velocity": 0.8267716535433071
        },
        {
          "duration": 0.10000000000002274,
          "durationTicks": 120,
          "midi": 67,
          "name": "G4",
          "ticks": 813000,
          "time": 677.5,
          "velocity": 0.8267716535433071
        },
        {
          "duration": 0.1966666666666015,
          "durationTicks": 236,
          "midi": 69,
          "name": "A4",
          "ticks": 813120,
          "time": 677.6,
          "velocity": 0.8267716535433071
        },
        {
          "duration": 0.13333333333332575,
          "durationTicks": 160,
          "midi": 69,
          "name": "A4",
          "ticks": 813360,
          "time": 677.8000000000001,
          "velocity": 0.8267716535433071
        },
        {
          "duration": 0.13333333333332575,
          "durationTicks": 160,
          "midi": 71,
          "name": "B4",
          "ticks": 813600,
          "time": 678,
          "velocity": 0.8267716535433071
        },
        {
          "duration": 0.13333333333332575,
          "durationTicks": 160,
          "midi": 71,
          "name": "B4",
          "ticks": 813840,
          "time": 678.2,
          "velocity": 0.8267716535433071
        },
        {
          "duration": 0.06666666666660603,
          "durationTicks": 80,
          "midi": 72,
          "name": "C5",
          "ticks": 814080,
          "time": 678.4000000000001,
          "velocity": 0.8267716535433071
        },
        {
          "duration": 0.06666666666671972,
          "durationTicks": 80,
          "midi": 72,
          "name": "C5",
          "ticks": 814320,
          "time": 678.6,
          "velocity": 0.8267716535433071
        },
        {
          "duration": 0.06666666666671972,
          "durationTicks": 80,
          "midi": 69,
          "name": "A4",
          "ticks": 814560,
          "time": 678.8000000000001,
          "velocity": 0.8267716535433071
        },
        {
          "duration": 0.06666666666671972,
          "durationTicks": 80,
          "midi": 69,
          "name": "A4",
          "ticks": 814800,
          "time": 679,
          "velocity": 0.8267716535433071
        },
        {
          "duration": 0.06666666666671972,
          "durationTicks": 80,
          "midi": 67,
          "name": "G4",
          "ticks": 815040,
          "time": 679.2,
          "velocity": 0.8267716535433071
        },
        {
          "duration": 0.06666666666660603,
          "durationTicks": 80,
          "midi": 67,
          "name": "G4",
          "ticks": 815280,
          "time": 679.4000000000001,
          "velocity": 0.8267716535433071
        },
        {
          "duration": 0.06666666666671972,
          "durationTicks": 80,
          "midi": 59,
          "name": "B3",
          "ticks": 815520,
          "time": 679.6,
          "velocity": 0.8267716535433071
        },
        {
          "duration": 0.06666666666671972,
          "durationTicks": 80,
          "midi": 59,
          "name": "B3",
          "ticks": 815760,
          "time": 679.8000000000001,
          "velocity": 0.8267716535433071
        },
        {
          "duration": 0.33333333333337123,
          "durationTicks": 400,
          "midi": 60,
          "name": "C4",
          "ticks": 816000,
          "time": 680,
          "velocity": 0.9763779527559056
        },
        {
          "duration": 0.33333333333325754,
          "durationTicks": 400,
          "midi": 55,
          "name": "G3",
          "ticks": 816480,
          "time": 680.4000000000001,
          "velocity": 0.9763779527559056
        },
        {
          "duration": 0.33333333333325754,
          "durationTicks": 400,
          "midi": 64,
          "name": "E4",
          "ticks": 816480,
          "time": 680.4000000000001,
          "velocity": 0.9763779527559056
        },
        {
          "duration": 0.33333333333325754,
          "durationTicks": 400,
          "midi": 72,
          "name": "C5",
          "ticks": 816480,
          "time": 680.4000000000001,
          "velocity": 0.9763779527559056
        },
        {
          "duration": 0.33333333333325754,
          "durationTicks": 400,
          "midi": 55,
          "name": "G3",
          "ticks": 817440,
          "time": 681.2,
          "velocity": 0.9763779527559056
        },
        {
          "duration": 0.33333333333325754,
          "durationTicks": 400,
          "midi": 62,
          "name": "D4",
          "ticks": 817440,
          "time": 681.2,
          "velocity": 0.9763779527559056
        },
        {
          "duration": 0.33333333333325754,
          "durationTicks": 400,
          "midi": 71,
          "name": "B4",
          "ticks": 817440,
          "time": 681.2,
          "velocity": 0.9763779527559056
        },
        {
          "duration": 0.33333333333337123,
          "durationTicks": 400,
          "midi": 55,
          "name": "G3",
          "ticks": 818400,
          "time": 682,
          "velocity": 0.9763779527559056
        },
        {
          "duration": 0.33333333333337123,
          "durationTicks": 400,
          "midi": 64,
          "name": "E4",
          "ticks": 818400,
          "time": 682,
          "velocity": 0.9763779527559056
        },
        {
          "duration": 0.33333333333337123,
          "durationTicks": 400,
          "midi": 72,
          "name": "C5",
          "ticks": 818400,
          "time": 682,
          "velocity": 0.9763779527559056
        },
        {
          "duration": 0.33333333333325754,
          "durationTicks": 400,
          "midi": 55,
          "name": "G3",
          "ticks": 819360,
          "time": 682.8000000000001,
          "velocity": 0.9763779527559056
        },
        {
          "duration": 0.33333333333325754,
          "durationTicks": 400,
          "midi": 62,
          "name": "D4",
          "ticks": 819360,
          "time": 682.8000000000001,
          "velocity": 0.9763779527559056
        },
        {
          "duration": 0.33333333333325754,
          "durationTicks": 400,
          "midi": 71,
          "name": "B4",
          "ticks": 819360,
          "time": 682.8000000000001,
          "velocity": 0.9763779527559056
        },
        {
          "duration": 0.33333333333337123,
          "durationTicks": 400,
          "midi": 55,
          "name": "G3",
          "ticks": 820320,
          "time": 683.6,
          "velocity": 0.9763779527559056
        },
        {
          "duration": 0.33333333333337123,
          "durationTicks": 400,
          "midi": 64,
          "name": "E4",
          "ticks": 820320,
          "time": 683.6,
          "velocity": 0.9763779527559056
        },
        {
          "duration": 0.33333333333337123,
          "durationTicks": 400,
          "midi": 72,
          "name": "C5",
          "ticks": 820320,
          "time": 683.6,
          "velocity": 0.9763779527559056
        },
        {
          "duration": 0.33333333333325754,
          "durationTicks": 400,
          "midi": 55,
          "name": "G3",
          "ticks": 821280,
          "time": 684.4000000000001,
          "velocity": 0.9763779527559056
        },
        {
          "duration": 0.33333333333325754,
          "durationTicks": 400,
          "midi": 62,
          "name": "D4",
          "ticks": 821280,
          "time": 684.4000000000001,
          "velocity": 0.9763779527559056
        },
        {
          "duration": 0.33333333333325754,
          "durationTicks": 400,
          "midi": 71,
          "name": "B4",
          "ticks": 821280,
          "time": 684.4000000000001,
          "velocity": 0.9763779527559056
        },
        {
          "duration": 0.1966666666666015,
          "durationTicks": 236,
          "midi": 72,
          "name": "C5",
          "ticks": 821760,
          "time": 684.8000000000001,
          "velocity": 0.9763779527559056
        },
        {
          "duration": 0.19666666666671517,
          "durationTicks": 236,
          "midi": 67,
          "name": "G4",
          "ticks": 822000,
          "time": 685,
          "velocity": 0.9763779527559056
        },
        {
          "duration": 0.1966666666666015,
          "durationTicks": 236,
          "midi": 72,
          "name": "C5",
          "ticks": 822240,
          "time": 685.2,
          "velocity": 0.9763779527559056
        },
        {
          "duration": 0.1966666666666015,
          "durationTicks": 236,
          "midi": 67,
          "name": "G4",
          "ticks": 822480,
          "time": 685.4000000000001,
          "velocity": 0.9763779527559056
        },
        {
          "duration": 0.1966666666666015,
          "durationTicks": 236,
          "midi": 72,
          "name": "C5",
          "ticks": 822720,
          "time": 685.6,
          "velocity": 0.9763779527559056
        },
        {
          "duration": 0.1966666666666015,
          "durationTicks": 236,
          "midi": 67,
          "name": "G4",
          "ticks": 822960,
          "time": 685.8000000000001,
          "velocity": 0.9763779527559056
        },
        {
          "duration": 0.19666666666671517,
          "durationTicks": 236,
          "midi": 72,
          "name": "C5",
          "ticks": 823200,
          "time": 686,
          "velocity": 0.984251968503937
        },
        {
          "duration": 0.1966666666666015,
          "durationTicks": 236,
          "midi": 67,
          "name": "G4",
          "ticks": 823440,
          "time": 686.2,
          "velocity": 0.9921259842519685
        },
        {
          "duration": 0.1966666666666015,
          "durationTicks": 236,
          "midi": 72,
          "name": "C5",
          "ticks": 823680,
          "time": 686.4000000000001,
          "velocity": 1
        },
        {
          "duration": 0.1966666666666015,
          "durationTicks": 236,
          "midi": 76,
          "name": "E5",
          "ticks": 823920,
          "time": 686.6,
          "velocity": 1
        },
        {
          "duration": 0.1966666666666015,
          "durationTicks": 236,
          "midi": 79,
          "name": "G5",
          "ticks": 824160,
          "time": 686.8000000000001,
          "velocity": 1
        },
        {
          "duration": 0.19666666666671517,
          "durationTicks": 236,
          "midi": 76,
          "name": "E5",
          "ticks": 824400,
          "time": 687,
          "velocity": 1
        },
        {
          "duration": 0.1966666666666015,
          "durationTicks": 236,
          "midi": 79,
          "name": "G5",
          "ticks": 824640,
          "time": 687.2,
          "velocity": 1
        },
        {
          "duration": 0.1966666666666015,
          "durationTicks": 236,
          "midi": 76,
          "name": "E5",
          "ticks": 824880,
          "time": 687.4000000000001,
          "velocity": 1
        },
        {
          "duration": 0.1966666666666015,
          "durationTicks": 236,
          "midi": 79,
          "name": "G5",
          "ticks": 825120,
          "time": 687.6,
          "velocity": 1
        },
        {
          "duration": 0.1966666666666015,
          "durationTicks": 236,
          "midi": 76,
          "name": "E5",
          "ticks": 825360,
          "time": 687.8000000000001,
          "velocity": 1
        },
        {
          "duration": 0.33333333333337123,
          "durationTicks": 400,
          "midi": 72,
          "name": "C5",
          "ticks": 825600,
          "time": 688,
          "velocity": 1
        },
        {
          "duration": 0.33333333333325754,
          "durationTicks": 400,
          "midi": 67,
          "name": "G4",
          "ticks": 826080,
          "time": 688.4000000000001,
          "velocity": 1
        },
        {
          "duration": 0.33333333333325754,
          "durationTicks": 400,
          "midi": 76,
          "name": "E5",
          "ticks": 826080,
          "time": 688.4000000000001,
          "velocity": 1
        },
        {
          "duration": 0.33333333333325754,
          "durationTicks": 400,
          "midi": 84,
          "name": "C6",
          "ticks": 826080,
          "time": 688.4000000000001,
          "velocity": 1
        },
        {
          "duration": 0.33333333333325754,
          "durationTicks": 400,
          "midi": 67,
          "name": "G4",
          "ticks": 826560,
          "time": 688.8000000000001,
          "velocity": 1
        },
        {
          "duration": 0.33333333333325754,
          "durationTicks": 400,
          "midi": 76,
          "name": "E5",
          "ticks": 826560,
          "time": 688.8000000000001,
          "velocity": 1
        },
        {
          "duration": 0.33333333333325754,
          "durationTicks": 400,
          "midi": 84,
          "name": "C6",
          "ticks": 826560,
          "time": 688.8000000000001,
          "velocity": 1
        },
        {
          "duration": 0.33333333333325754,
          "durationTicks": 400,
          "midi": 67,
          "name": "G4",
          "ticks": 827040,
          "time": 689.2,
          "velocity": 1
        },
        {
          "duration": 0.33333333333325754,
          "durationTicks": 400,
          "midi": 76,
          "name": "E5",
          "ticks": 827040,
          "time": 689.2,
          "velocity": 1
        },
        {
          "duration": 0.33333333333325754,
          "durationTicks": 400,
          "midi": 84,
          "name": "C6",
          "ticks": 827040,
          "time": 689.2,
          "velocity": 1
        },
        {
          "duration": 0.38461500000005344,
          "durationTicks": 400,
          "midi": 67,
          "name": "G4",
          "ticks": 827520,
          "time": 689.6,
          "velocity": 1
        },
        {
          "duration": 0.38461500000005344,
          "durationTicks": 400,
          "midi": 76,
          "name": "E5",
          "ticks": 827520,
          "time": 689.6,
          "velocity": 1
        },
        {
          "duration": 0.38461500000005344,
          "durationTicks": 400,
          "midi": 84,
          "name": "C6",
          "ticks": 827520,
          "time": 689.6,
          "velocity": 1
        },
        {
          "duration": 0.4545458333333272,
          "durationTicks": 400,
          "midi": 67,
          "name": "G4",
          "ticks": 828480,
          "time": 690.5230760000001,
          "velocity": 1
        },
        {
          "duration": 0.4545458333333272,
          "durationTicks": 400,
          "midi": 76,
          "name": "E5",
          "ticks": 828480,
          "time": 690.5230760000001,
          "velocity": 1
        },
        {
          "duration": 0.4545458333333272,
          "durationTicks": 400,
          "midi": 84,
          "name": "C6",
          "ticks": 828480,
          "time": 690.5230760000001,
          "velocity": 1
        },
        {
          "duration": 1.0499999999999545,
          "durationTicks": 840,
          "midi": 67,
          "name": "G4",
          "ticks": 829440,
          "time": 691.6139860000001,
          "velocity": 1
        },
        {
          "duration": 1.0499999999999545,
          "durationTicks": 840,
          "midi": 76,
          "name": "E5",
          "ticks": 829440,
          "time": 691.6139860000001,
          "velocity": 1
        },
        {
          "duration": 1.0499999999999545,
          "durationTicks": 840,
          "midi": 84,
          "name": "C6",
          "ticks": 829440,
          "time": 691.6139860000001,
          "velocity": 1
        }
      ]
    },
    {
      "channel": 0,
      "controlChanges": {},
      "pitchBends": [],
      "instrument": {
        "family": "piano",
        "number": 0,
        "name": "acoustic grand piano"
      },
      "name": "Viole",
      "notes": [],
      "endOfTrackTicks": 831360
    },
    {
      "channel": 8,
      "controlChanges": {
        "7": [
          {
            "number": 7,
            "ticks": 0,
            "time": 0,
            "value": 0.8661417322834646
          }
        ],
        "10": [
          {
            "number": 10,
            "ticks": 0,
            "time": 0,
            "value": 0.6771653543307087
          }
        ]
      },
      "pitchBends": [],
      "instrument": {
        "family": "ensemble",
        "number": 48,
        "name": "string ensemble 1"
      },
      "name": "",
      "notes": [
        {
          "duration": 0.33333333333333337,
          "durationTicks": 400,
          "midi": 60,
          "name": "C4",
          "ticks": 0,
          "time": 0,
          "velocity": 0.8267716535433071
        },
        {
          "duration": 0.06666666666666665,
          "durationTicks": 80,
          "midi": 55,
          "name": "G3",
          "ticks": 720,
          "time": 0.6000000000000001,
          "velocity": 0.8267716535433071
        },
        {
          "duration": 0.06666666666666665,
          "durationTicks": 80,
          "midi": 57,
          "name": "A3",
          "ticks": 800,
          "time": 0.6666666666666667,
          "velocity": 0.8267716535433071
        },
        {
          "duration": 0.06666666666666665,
          "durationTicks": 80,
          "midi": 59,
          "name": "B3",
          "ticks": 880,
          "time": 0.7333333333333334,
          "velocity": 0.8267716535433071
        },
        {
          "duration": 0.3333333333333335,
          "durationTicks": 400,
          "midi": 60,
          "name": "C4",
          "ticks": 960,
          "time": 0.8,
          "velocity": 0.8267716535433071
        },
        {
          "duration": 0.06666666666666665,
          "durationTicks": 80,
          "midi": 55,
          "name": "G3",
          "ticks": 1680,
          "time": 1.4000000000000001,
          "velocity": 0.8267716535433071
        },
        {
          "duration": 0.06666666666666665,
          "durationTicks": 80,
          "midi": 57,
          "name": "A3",
          "ticks": 1760,
          "time": 1.4666666666666668,
          "velocity": 0.8267716535433071
        },
        {
          "duration": 0.06666666666666665,
          "durationTicks": 80,
          "midi": 59,
          "name": "B3",
          "ticks": 1840,
          "time": 1.5333333333333334,
          "velocity": 0.8267716535433071
        },
        {
          "duration": 0.33333333333333326,
          "durationTicks": 400,
          "midi": 60,
          "name": "C4",
          "ticks": 1920,
          "time": 1.6,
          "velocity": 0.8267716535433071
        },
        {
          "duration": 2.7,
          "durationTicks": 3240,
          "midi": 67,
          "name": "G4",
          "ticks": 3840,
          "time": 3.2,
          "velocity": 0.4015748031496063
        },
        {
          "duration": 0.33333333333333304,
          "durationTicks": 400,
          "midi": 67,
          "name": "G4",
          "ticks": 7680,
          "time": 6.4,
          "velocity": 0.8267716535433071
        },
        {
          "duration": 0.06666666666666732,
          "durationTicks": 80,
          "midi": 62,
          "name": "D4",
          "ticks": 8400,
          "time": 7,
          "velocity": 0.8267716535433071
        },
        {
          "duration": 0.06666666666666554,
          "durationTicks": 80,
          "midi": 64,
          "name": "E4",
          "ticks": 8480,
          "time": 7.066666666666667,
          "velocity": 0.8267716535433071
        },
        {
          "duration": 0.06666666666666732,
          "durationTicks": 80,
          "midi": 66,
          "name": "F#4",
          "ticks": 8560,
          "time": 7.133333333333333,
          "velocity": 0.8267716535433071
        },
        {
          "duration": 0.33333333333333304,
          "durationTicks": 400,
          "midi": 67,
          "name": "G4",
          "ticks": 8640,
          "time": 7.2,
          "velocity": 0.8267716535433071
        },
        {
          "duration": 0.06666666666666643,
          "durationTicks": 80,
          "midi": 62,
          "name": "D4",
          "ticks": 9360,
          "time": 7.800000000000001,
          "velocity": 0.8267716535433071
        },
        {
          "duration": 0.06666666666666643,
          "durationTicks": 80,
          "midi": 64,
          "name": "E4",
          "ticks": 9440,
          "time": 7.866666666666667,
          "velocity": 0.8267716535433071
        },
        {
          "duration": 0.06666666666666643,
          "durationTicks": 80,
          "midi": 66,
          "name": "F#4",
          "ticks": 9520,
          "time": 7.933333333333334,
          "velocity": 0.8267716535433071
        },
        {
          "duration": 0.3333333333333339,
          "durationTicks": 400,
          "midi": 67,
          "name": "G4",
          "ticks": 9600,
          "time": 8,
          "velocity": 0.8267716535433071
        },
        {
          "duration": 1.5,
          "durationTicks": 1800,
          "midi": 67,
          "name": "G4",
          "ticks": 11520,
          "time": 9.600000000000001,
          "velocity": 0.4015748031496063
        },
        {
          "duration": 1.0999999999999996,
          "durationTicks": 1320,
          "midi": 72,
          "name": "C5",
          "ticks": 13440,
          "time": 11.200000000000001,
          "velocity": 0.4015748031496063
        },
        {
          "duration": 0.05000000000000071,
          "durationTicks": 60,
          "midi": 55,
          "name": "G3",
          "ticks": 16080,
          "time": 13.4,
          "velocity": 0.8267716535433071
        },
        {
          "duration": 0.049999999999998934,
          "durationTicks": 60,
          "midi": 53,
          "name": "F3",
          "ticks": 16140,
          "time": 13.450000000000001,
          "velocity": 0.8267716535433071
        },
        {
          "duration": 0.05000000000000071,
          "durationTicks": 60,
          "midi": 52,
          "name": "E3",
          "ticks": 16200,
          "time": 13.5,
          "velocity": 0.8267716535433071
        },
        {
          "duration": 0.05000000000000071,
          "durationTicks": 60,
          "midi": 50,
          "name": "D3",
          "ticks": 16260,
          "time": 13.55,
          "velocity": 0.8267716535433071
        },
        {
          "duration": 0.3333333333333339,
          "durationTicks": 400,
          "midi": 48,
          "name": "C3",
          "ticks": 16320,
          "time": 13.600000000000001,
          "velocity": 0.8267716535433071
        },
        {
          "duration": 0.05000000000000071,
          "durationTicks": 60,
          "midi": 60,
          "name": "C4",
          "ticks": 18000,
          "time": 15,
          "velocity": 0.8267716535433071
        },
        {
          "duration": 0.05000000000000071,
          "durationTicks": 60,
          "midi": 58,
          "name": "A#3",
          "ticks": 18060,
          "time": 15.05,
          "velocity": 0.8267716535433071
        },
        {
          "duration": 0.049999999999998934,
          "durationTicks": 60,
          "midi": 57,
          "name": "A3",
          "ticks": 18120,
          "time": 15.100000000000001,
          "velocity": 0.8267716535433071
        },
        {
          "duration": 0.05000000000000071,
          "durationTicks": 60,
          "midi": 55,
          "name": "G3",
          "ticks": 18180,
          "time": 15.15,
          "velocity": 0.8267716535433071
        },
        {
          "duration": 0.3333333333333339,
          "durationTicks": 400,
          "midi": 53,
          "name": "F3",
          "ticks": 18240,
          "time": 15.200000000000001,
          "velocity": 0.8267716535433071
        },
        {
          "duration": 0.05000000000000071,
          "durationTicks": 60,
          "midi": 62,
          "name": "D4",
          "ticks": 19920,
          "time": 16.6,
          "velocity": 0.8267716535433071
        },
        {
          "duration": 0.04999999999999716,
          "durationTicks": 60,
          "midi": 60,
          "name": "C4",
          "ticks": 19980,
          "time": 16.650000000000002,
          "velocity": 0.8267716535433071
        },
        {
          "duration": 0.05000000000000071,
          "durationTicks": 60,
          "midi": 59,
          "name": "B3",
          "ticks": 20040,
          "time": 16.7,
          "velocity": 0.8267716535433071
        },
        {
          "duration": 0.05000000000000071,
          "durationTicks": 60,
          "midi": 57,
          "name": "A3",
          "ticks": 20100,
          "time": 16.75,
          "velocity": 0.8267716535433071
        },
        {
          "duration": 0.3333333333333357,
          "durationTicks": 400,
          "midi": 55,
          "name": "G3",
          "ticks": 20160,
          "time": 16.8,
          "velocity": 0.8267716535433071
        },
        {
          "duration": 0.05000000000000071,
          "durationTicks": 60,
          "midi": 67,
          "name": "G4",
          "ticks": 21840,
          "time": 18.2,
          "velocity": 0.8267716535433071
        },
        {
          "duration": 0.05000000000000071,
          "durationTicks": 60,
          "midi": 65,
          "name": "F4",
          "ticks": 21900,
          "time": 18.25,
          "velocity": 0.8267716535433071
        },
        {
          "duration": 0.05000000000000071,
          "durationTicks": 60,
          "midi": 64,
          "name": "E4",
          "ticks": 21960,
          "time": 18.3,
          "velocity": 0.8267716535433071
        },
        {
          "duration": 0.05000000000000071,
          "durationTicks": 60,
          "midi": 62,
          "name": "D4",
          "ticks": 22020,
          "time": 18.35,
          "velocity": 0.8267716535433071
        },
        {
          "duration": 0.33333333333333215,
          "durationTicks": 400,
          "midi": 60,
          "name": "C4",
          "ticks": 22080,
          "time": 18.400000000000002,
          "velocity": 0.8267716535433071
        },
        {
          "duration": 0.05000000000000071,
          "durationTicks": 60,
          "midi": 60,
          "name": "C4",
          "ticks": 23760,
          "time": 19.8,
          "velocity": 0.8267716535433071
        },
        {
          "duration": 0.05000000000000071,
          "durationTicks": 60,
          "midi": 58,
          "name": "A#3",
          "ticks": 23820,
          "time": 19.85,
          "velocity": 0.8267716535433071
        },
        {
          "duration": 0.05000000000000071,
          "durationTicks": 60,
          "midi": 57,
          "name": "A3",
          "ticks": 23880,
          "time": 19.900000000000002,
          "velocity": 0.8267716535433071
        },
        {
          "duration": 0.04999999999999716,
          "durationTicks": 60,
          "midi": 55,
          "name": "G3",
          "ticks": 23940,
          "time": 19.950000000000003,
          "velocity": 0.8267716535433071
        },
        {
          "duration": 0.3333333333333357,
          "durationTicks": 400,
          "midi": 53,
          "name": "F3",
          "ticks": 24000,
          "time": 20,
          "velocity": 0.8267716535433071
        },
        {
          "duration": 0.05000000000000071,
          "durationTicks": 60,
          "midi": 62,
          "name": "D4",
          "ticks": 25680,
          "time": 21.400000000000002,
          "velocity": 0.8267716535433071
        },
        {
          "duration": 0.04999999999999716,
          "durationTicks": 60,
          "midi": 60,
          "name": "C4",
          "ticks": 25740,
          "time": 21.450000000000003,
          "velocity": 0.8267716535433071
        },
        {
          "duration": 0.05000000000000071,
          "durationTicks": 60,
          "midi": 59,
          "name": "B3",
          "ticks": 25800,
          "time": 21.5,
          "velocity": 0.8267716535433071
        },
        {
          "duration": 0.05000000000000071,
          "durationTicks": 60,
          "midi": 57,
          "name": "A3",
          "ticks": 25860,
          "time": 21.55,
          "velocity": 0.8267716535433071
        },
        {
          "duration": 0.3333333333333357,
          "durationTicks": 400,
          "midi": 55,
          "name": "G3",
          "ticks": 25920,
          "time": 21.6,
          "velocity": 0.8267716535433071
        },
        {
          "duration": 0.33333333333333215,
          "durationTicks": 400,
          "midi": 60,
          "name": "C4",
          "ticks": 26880,
          "time": 22.400000000000002,
          "velocity": 0.8267716535433071
        },
        {
          "duration": 0.05000000000000071,
          "durationTicks": 60,
          "midi": 65,
          "name": "F4",
          "ticks": 27600,
          "time": 23,
          "velocity": 0.8267716535433071
        },
        {
          "duration": 0.05000000000000071,
          "durationTicks": 60,
          "midi": 64,
          "name": "E4",
          "ticks": 27660,
          "time": 23.05,
          "velocity": 0.8267716535433071
        },
        {
          "duration": 0.05000000000000071,
          "durationTicks": 60,
          "midi": 62,
          "name": "D4",
          "ticks": 27720,
          "time": 23.1,
          "velocity": 0.8267716535433071
        },
        {
          "duration": 0.05000000000000071,
          "durationTicks": 60,
          "midi": 60,
          "name": "C4",
          "ticks": 27780,
          "time": 23.150000000000002,
          "velocity": 0.8267716535433071
        },
        {
          "duration": 0.33333333333333215,
          "durationTicks": 400,
          "midi": 59,
          "name": "B3",
          "ticks": 27840,
          "time": 23.200000000000003,
          "velocity": 0.8267716535433071
        },
        {
          "duration": 0.05000000000000071,
          "durationTicks": 60,
          "midi": 67,
          "name": "G4",
          "ticks": 28560,
          "time": 23.8,
          "velocity": 0.8267716535433071
        },
        {
          "duration": 0.05000000000000071,
          "durationTicks": 60,
          "midi": 65,
          "name": "F4",
          "ticks": 28620,
          "time": 23.85,
          "velocity": 0.8267716535433071
        },
        {
          "duration": 0.05000000000000071,
          "durationTicks": 60,
          "midi": 64,
          "name": "E4",
          "ticks": 28680,
          "time": 23.900000000000002,
          "velocity": 0.8267716535433071
        },
        {
          "duration": 0.04999999999999716,
          "durationTicks": 60,
          "midi": 62,
          "name": "D4",
          "ticks": 28740,
          "time": 23.950000000000003,
          "velocity": 0.8267716535433071
        },
        {
          "duration": 0.3333333333333357,
          "durationTicks": 400,
          "midi": 64,
          "name": "E4",
          "ticks": 28800,
          "time": 24,
          "velocity": 0.8267716535433071
        },
        {
          "duration": 0.046666666666666856,
          "durationTicks": 56,
          "midi": 65,
          "name": "F4",
          "ticks": 29520,
          "time": 24.6,
          "velocity": 0.8267716535433071
        },
        {
          "duration": 0.046666666666666856,
          "durationTicks": 56,
          "midi": 64,
          "name": "E4",
          "ticks": 29580,
          "time": 24.650000000000002,
          "velocity": 0.8267716535433071
        },
        {
          "duration": 0.046666666666666856,
          "durationTicks": 56,
          "midi": 62,
          "name": "D4",
          "ticks": 29640,
          "time": 24.700000000000003,
          "velocity": 0.8267716535433071
        },
        {
          "duration": 0.046666666666666856,
          "durationTicks": 56,
          "midi": 60,
          "name": "C4",
          "ticks": 29700,
          "time": 24.75,
          "velocity": 0.8267716535433071
        },
        {
          "duration": 0.3333333333333357,
          "durationTicks": 400,
          "midi": 59,
          "name": "B3",
          "ticks": 29760,
          "time": 24.8,
          "velocity": 0.8267716535433071
        },
        {
          "duration": 0.05000000000000071,
          "durationTicks": 60,
          "midi": 67,
          "name": "G4",
          "ticks": 30480,
          "time": 25.400000000000002,
          "velocity": 0.8267716535433071
        },
        {
          "duration": 0.04999999999999716,
          "durationTicks": 60,
          "midi": 65,
          "name": "F4",
          "ticks": 30540,
          "time": 25.450000000000003,
          "velocity": 0.8267716535433071
        },
        {
          "duration": 0.05000000000000071,
          "durationTicks": 60,
          "midi": 64,
          "name": "E4",
          "ticks": 30600,
          "time": 25.5,
          "velocity": 0.8267716535433071
        },
        {
          "duration": 0.05000000000000071,
          "durationTicks": 60,
          "midi": 62,
          "name": "D4",
          "ticks": 30660,
          "time": 25.55,
          "velocity": 0.8267716535433071
        },
        {
          "duration": 0.33333333333333215,
          "durationTicks": 400,
          "midi": 64,
          "name": "E4",
          "ticks": 30720,
          "time": 25.6,
          "velocity": 0.8267716535433071
        },
        {
          "duration": 0.19666666666666544,
          "durationTicks": 236,
          "midi": 67,
          "name": "G4",
          "ticks": 31200,
          "time": 26,
          "velocity": 0.8267716535433071
        },
        {
          "duration": 0.19666666666666188,
          "durationTicks": 236,
          "midi": 67,
          "name": "G4",
          "ticks": 31440,
          "time": 26.200000000000003,
          "velocity": 0.8267716535433071
        },
        {
          "duration": 0.19666666666666188,
          "durationTicks": 236,
          "midi": 72,
          "name": "C5",
          "ticks": 31680,
          "time": 26.400000000000002,
          "velocity": 0.8267716535433071
        },
        {
          "duration": 0.19666666666666544,
          "durationTicks": 236,
          "midi": 72,
          "name": "C5",
          "ticks": 31920,
          "time": 26.6,
          "velocity": 0.8267716535433071
        },
        {
          "duration": 0.19666666666666544,
          "durationTicks": 236,
          "midi": 67,
          "name": "G4",
          "ticks": 32160,
          "time": 26.8,
          "velocity": 0.8267716535433071
        },
        {
          "duration": 0.19666666666666544,
          "durationTicks": 236,
          "midi": 67,
          "name": "G4",
          "ticks": 32400,
          "time": 27,
          "velocity": 0.8267716535433071
        },
        {
          "duration": 0.19666666666666188,
          "durationTicks": 236,
          "midi": 72,
          "name": "C5",
          "ticks": 32640,
          "time": 27.200000000000003,
          "velocity": 0.8267716535433071
        },
        {
          "duration": 0.19666666666666188,
          "durationTicks": 236,
          "midi": 72,
          "name": "C5",
          "ticks": 32880,
          "time": 27.400000000000002,
          "velocity": 0.8267716535433071
        },
        {
          "duration": 0.19666666666666544,
          "durationTicks": 236,
          "midi": 67,
          "name": "G4",
          "ticks": 33120,
          "time": 27.6,
          "velocity": 0.8267716535433071
        },
        {
          "duration": 0.19666666666666544,
          "durationTicks": 236,
          "midi": 67,
          "name": "G4",
          "ticks": 33360,
          "time": 27.8,
          "velocity": 0.8267716535433071
        },
        {
          "duration": 0.19666666666666544,
          "durationTicks": 236,
          "midi": 64,
          "name": "E4",
          "ticks": 33600,
          "time": 28,
          "velocity": 0.8267716535433071
        },
        {
          "duration": 0.19666666666666188,
          "durationTicks": 236,
          "midi": 64,
          "name": "E4",
          "ticks": 33840,
          "time": 28.200000000000003,
          "velocity": 0.8267716535433071
        },
        {
          "duration": 0.19666666666666188,
          "durationTicks": 236,
          "midi": 60,
          "name": "C4",
          "ticks": 34080,
          "time": 28.400000000000002,
          "velocity": 0.8267716535433071
        },
        {
          "duration": 0.19666666666666544,
          "durationTicks": 236,
          "midi": 60,
          "name": "C4",
          "ticks": 34320,
          "time": 28.6,
          "velocity": 0.8267716535433071
        },
        {
          "duration": 0.33333333333333215,
          "durationTicks": 400,
          "midi": 55,
          "name": "G3",
          "ticks": 34560,
          "time": 28.8,
          "velocity": 0.8267716535433071
        },
        {
          "duration": 0.19666666666666188,
          "durationTicks": 236,
          "midi": 67,
          "name": "G4",
          "ticks": 35280,
          "time": 29.400000000000002,
          "velocity": 0.8267716535433071
        },
        {
          "duration": 0.33333333333333215,
          "durationTicks": 400,
          "midi": 72,
          "name": "C5",
          "ticks": 35520,
          "time": 29.6,
          "velocity": 0.8267716535433071
        },
        {
          "duration": 0.19666666666666188,
          "durationTicks": 236,
          "midi": 72,
          "name": "C5",
          "ticks": 36240,
          "time": 30.200000000000003,
          "velocity": 0.8267716535433071
        },
        {
          "duration": 0.33333333333333215,
          "durationTicks": 400,
          "midi": 67,
          "name": "G4",
          "ticks": 36480,
          "time": 30.400000000000002,
          "velocity": 0.8267716535433071
        },
        {
          "duration": 0.19666666666666544,
          "durationTicks": 236,
          "midi": 67,
          "name": "G4",
          "ticks": 37200,
          "time": 31,
          "velocity": 0.8267716535433071
        },
        {
          "duration": 0.3333333333333286,
          "durationTicks": 400,
          "midi": 72,
          "name": "C5",
          "ticks": 37440,
          "time": 31.200000000000003,
          "velocity": 0.8267716535433071
        },
        {
          "duration": 0.19666666666666544,
          "durationTicks": 236,
          "midi": 72,
          "name": "C5",
          "ticks": 38160,
          "time": 31.8,
          "velocity": 0.8267716535433071
        },
        {
          "duration": 0.19666666666666544,
          "durationTicks": 236,
          "midi": 67,
          "name": "G4",
          "ticks": 38400,
          "time": 32,
          "velocity": 0.8267716535433071
        },
        {
          "duration": 0.19666666666666544,
          "durationTicks": 236,
          "midi": 72,
          "name": "C5",
          "ticks": 38640,
          "time": 32.2,
          "velocity": 0.8346456692913385
        },
        {
          "duration": 0.19666666666666544,
          "durationTicks": 236,
          "midi": 67,
          "name": "G4",
          "ticks": 38880,
          "time": 32.4,
          "velocity": 0.8503937007874016
        },
        {
          "duration": 0.19666666666666544,
          "durationTicks": 236,
          "midi": 72,
          "name": "C5",
          "ticks": 39120,
          "time": 32.6,
          "velocity": 0.8582677165354331
        },
        {
          "duration": 0.19666666666665833,
          "durationTicks": 236,
          "midi": 67,
          "name": "G4",
          "ticks": 39360,
          "time": 32.800000000000004,
          "velocity": 0.8661417322834646
        },
        {
          "duration": 0.19666666666666544,
          "durationTicks": 236,
          "midi": 72,
          "name": "C5",
          "ticks": 39600,
          "time": 33,
          "velocity": 0.8740157480314961
        },
        {
          "duration": 0.19666666666666544,
          "durationTicks": 236,
          "midi": 67,
          "name": "G4",
          "ticks": 39840,
          "time": 33.2,
          "velocity": 0.8818897637795275
        },
        {
          "duration": 0.19666666666666544,
          "durationTicks": 236,
          "midi": 72,
          "name": "C5",
          "ticks": 40080,
          "time": 33.4,
          "velocity": 0.889763779527559
        },
        {
          "duration": 0.3333333333333286,
          "durationTicks": 400,
          "midi": 67,
          "name": "G4",
          "ticks": 40320,
          "time": 33.6,
          "velocity": 0.905511811023622
        },
        {
          "duration": 0.3333333333333357,
          "durationTicks": 400,
          "midi": 67,
          "name": "G4",
          "ticks": 40800,
          "time": 34,
          "velocity": 0.9212598425196851
        },
        {
          "duration": 0.3333333333333357,
          "durationTicks": 400,
          "midi": 55,
          "name": "G3",
          "ticks": 41280,
          "time": 34.4,
          "velocity": 0.937007874015748
        },
        {
          "duration": 0.3333333333333286,
          "durationTicks": 400,
          "midi": 55,
          "name": "G3",
          "ticks": 41760,
          "time": 34.800000000000004,
          "velocity": 0.952755905511811
        },
        {
          "duration": 1.5,
          "durationTicks": 1800,
          "midi": 55,
          "name": "G3",
          "ticks": 42240,
          "time": 35.2,
          "velocity": 0.9763779527559056
        },
        {
          "duration": 0.7999999999999972,
          "durationTicks": 960,
          "midi": 60,
          "name": "C4",
          "ticks": 65280,
          "time": 54.400000000000006,
          "velocity": 0.4015748031496063
        },
        {
          "duration": 0.7999999999999972,
          "durationTicks": 960,
          "midi": 59,
          "name": "B3",
          "ticks": 66240,
          "time": 55.2,
          "velocity": 0.4015748031496063
        },
        {
          "duration": 1.5,
          "durationTicks": 1800,
          "midi": 57,
          "name": "A3",
          "ticks": 67200,
          "time": 56,
          "velocity": 0.4015748031496063
        },
        {
          "duration": 0.3333333333333357,
          "durationTicks": 400,
          "midi": 55,
          "name": "G3",
          "ticks": 69120,
          "time": 57.6,
          "velocity": 0.8267716535433071
        },
        {
          "duration": 0.3333333333333357,
          "durationTicks": 400,
          "midi": 67,
          "name": "G4",
          "ticks": 69120,
          "time": 57.6,
          "velocity": 0.8267716535433071
        },
        {
          "duration": 0.06666666666666288,
          "durationTicks": 80,
          "midi": 62,
          "name": "D4",
          "ticks": 69840,
          "time": 58.2,
          "velocity": 0.8267716535433071
        },
        {
          "duration": 0.06666666666667709,
          "durationTicks": 80,
          "midi": 64,
          "name": "E4",
          "ticks": 69920,
          "time": 58.266666666666666,
          "velocity": 0.8267716535433071
        },
        {
          "duration": 0.06666666666666288,
          "durationTicks": 80,
          "midi": 66,
          "name": "F#4",
          "ticks": 70000,
          "time": 58.33333333333334,
          "velocity": 0.8267716535433071
        },
        {
          "duration": 0.3333333333333357,
          "durationTicks": 400,
          "midi": 67,
          "name": "G4",
          "ticks": 70080,
          "time": 58.400000000000006,
          "velocity": 0.8267716535433071
        },
        {
          "duration": 0.06666666666666288,
          "durationTicks": 80,
          "midi": 62,
          "name": "D4",
          "ticks": 70800,
          "time": 59,
          "velocity": 0.8267716535433071
        },
        {
          "duration": 0.06666666666667709,
          "durationTicks": 80,
          "midi": 64,
          "name": "E4",
          "ticks": 70880,
          "time": 59.06666666666666,
          "velocity": 0.8267716535433071
        },
        {
          "duration": 0.06666666666666288,
          "durationTicks": 80,
          "midi": 66,
          "name": "F#4",
          "ticks": 70960,
          "time": 59.13333333333334,
          "velocity": 0.8267716535433071
        },
        {
          "duration": 0.3333333333333357,
          "durationTicks": 400,
          "midi": 67,
          "name": "G4",
          "ticks": 71040,
          "time": 59.2,
          "velocity": 0.8267716535433071
        },
        {
          "duration": 0.19666666666666544,
          "durationTicks": 236,
          "midi": 55,
          "name": "G3",
          "ticks": 72960,
          "time": 60.800000000000004,
          "velocity": 0.8267716535433071
        },
        {
          "duration": 0.19666666666666544,
          "durationTicks": 236,
          "midi": 67,
          "name": "G4",
          "ticks": 72960,
          "time": 60.800000000000004,
          "velocity": 0.8267716535433071
        },
        {
          "duration": 0.19666666666667254,
          "durationTicks": 236,
          "midi": 55,
          "name": "G3",
          "ticks": 73200,
          "time": 61,
          "velocity": 0.8267716535433071
        },
        {
          "duration": 0.19666666666667254,
          "durationTicks": 236,
          "midi": 67,
          "name": "G4",
          "ticks": 73200,
          "time": 61,
          "velocity": 0.8267716535433071
        },
        {
          "duration": 0.19666666666667254,
          "durationTicks": 236,
          "midi": 55,
          "name": "G3",
          "ticks": 73440,
          "time": 61.2,
          "velocity": 0.8267716535433071
        },
        {
          "duration": 0.19666666666667254,
          "durationTicks": 236,
          "midi": 67,
          "name": "G4",
          "ticks": 73440,
          "time": 61.2,
          "velocity": 0.8267716535433071
        },
        {
          "duration": 0.19666666666666544,
          "durationTicks": 236,
          "midi": 55,
          "name": "G3",
          "ticks": 73680,
          "time": 61.400000000000006,
          "velocity": 0.8267716535433071
        },
        {
          "duration": 0.19666666666666544,
          "durationTicks": 236,
          "midi": 67,
          "name": "G4",
          "ticks": 73680,
          "time": 61.400000000000006,
          "velocity": 0.8267716535433071
        },
        {
          "duration": 0.19666666666667254,
          "durationTicks": 236,
          "midi": 55,
          "name": "G3",
          "ticks": 73920,
          "time": 61.6,
          "velocity": 0.8267716535433071
        },
        {
          "duration": 0.19666666666667254,
          "durationTicks": 236,
          "midi": 67,
          "name": "G4",
          "ticks": 73920,
          "time": 61.6,
          "velocity": 0.8267716535433071
        },
        {
          "duration": 0.19666666666666544,
          "durationTicks": 236,
          "midi": 55,
          "name": "G3",
          "ticks": 74160,
          "time": 61.800000000000004,
          "velocity": 0.8267716535433071
        },
        {
          "duration": 0.19666666666666544,
          "durationTicks": 236,
          "midi": 67,
          "name": "G4",
          "ticks": 74160,
          "time": 61.800000000000004,
          "velocity": 0.8267716535433071
        },
        {
          "duration": 0.19666666666667254,
          "durationTicks": 236,
          "midi": 55,
          "name": "G3",
          "ticks": 74400,
          "time": 62,
          "velocity": 0.8267716535433071
        },
        {
          "duration": 0.19666666666667254,
          "durationTicks": 236,
          "midi": 67,
          "name": "G4",
          "ticks": 74400,
          "time": 62,
          "velocity": 0.8267716535433071
        },
        {
          "duration": 0.19666666666667254,
          "durationTicks": 236,
          "midi": 55,
          "name": "G3",
          "ticks": 74640,
          "time": 62.2,
          "velocity": 0.8267716535433071
        },
        {
          "duration": 0.19666666666667254,
          "durationTicks": 236,
          "midi": 67,
          "name": "G4",
          "ticks": 74640,
          "time": 62.2,
          "velocity": 0.8267716535433071
        },
        {
          "duration": 0.19666666666666544,
          "durationTicks": 236,
          "midi": 55,
          "name": "G3",
          "ticks": 74880,
          "time": 62.400000000000006,
          "velocity": 0.8267716535433071
        },
        {
          "duration": 0.19666666666666544,
          "durationTicks": 236,
          "midi": 67,
          "name": "G4",
          "ticks": 74880,
          "time": 62.400000000000006,
          "velocity": 0.8267716535433071
        },
        {
          "duration": 0.19666666666667254,
          "durationTicks": 236,
          "midi": 55,
          "name": "G3",
          "ticks": 75120,
          "time": 62.6,
          "velocity": 0.8267716535433071
        },
        {
          "duration": 0.19666666666667254,
          "durationTicks": 236,
          "midi": 67,
          "name": "G4",
          "ticks": 75120,
          "time": 62.6,
          "velocity": 0.8267716535433071
        },
        {
          "duration": 0.19666666666666544,
          "durationTicks": 236,
          "midi": 55,
          "name": "G3",
          "ticks": 75360,
          "time": 62.800000000000004,
          "velocity": 0.8267716535433071
        },
        {
          "duration": 0.19666666666666544,
          "durationTicks": 236,
          "midi": 67,
          "name": "G4",
          "ticks": 75360,
          "time": 62.800000000000004,
          "velocity": 0.8267716535433071
        },
        {
          "duration": 0.19666666666667254,
          "durationTicks": 236,
          "midi": 55,
          "name": "G3",
          "ticks": 75600,
          "time": 63,
          "velocity": 0.8267716535433071
        },
        {
          "duration": 0.19666666666667254,
          "durationTicks": 236,
          "midi": 67,
          "name": "G4",
          "ticks": 75600,
          "time": 63,
          "velocity": 0.8267716535433071
        },
        {
          "duration": 0.19666666666667254,
          "durationTicks": 236,
          "midi": 55,
          "name": "G3",
          "ticks": 75840,
          "time": 63.2,
          "velocity": 0.8267716535433071
        },
        {
          "duration": 0.19666666666667254,
          "durationTicks": 236,
          "midi": 67,
          "name": "G4",
          "ticks": 75840,
          "time": 63.2,
          "velocity": 0.8267716535433071
        },
        {
          "duration": 0.19666666666666544,
          "durationTicks": 236,
          "midi": 55,
          "name": "G3",
          "ticks": 76080,
          "time": 63.400000000000006,
          "velocity": 0.8267716535433071
        },
        {
          "duration": 0.19666666666666544,
          "durationTicks": 236,
          "midi": 67,
          "name": "G4",
          "ticks": 76080,
          "time": 63.400000000000006,
          "velocity": 0.8267716535433071
        },
        {
          "duration": 0.19666666666667254,
          "durationTicks": 236,
          "midi": 55,
          "name": "G3",
          "ticks": 76320,
          "time": 63.6,
          "velocity": 0.8267716535433071
        },
        {
          "duration": 0.19666666666667254,
          "durationTicks": 236,
          "midi": 67,
          "name": "G4",
          "ticks": 76320,
          "time": 63.6,
          "velocity": 0.8267716535433071
        },
        {
          "duration": 0.19666666666666544,
          "durationTicks": 236,
          "midi": 55,
          "name": "G3",
          "ticks": 76560,
          "time": 63.800000000000004,
          "velocity": 0.8267716535433071
        },
        {
          "duration": 0.19666666666666544,
          "durationTicks": 236,
          "midi": 67,
          "name": "G4",
          "ticks": 76560,
          "time": 63.800000000000004,
          "velocity": 0.8267716535433071
        },
        {
          "duration": 0.19666666666667254,
          "durationTicks": 236,
          "midi": 55,
          "name": "G3",
          "ticks": 76800,
          "time": 64,
          "velocity": 0.8267716535433071
        },
        {
          "duration": 0.19666666666667254,
          "durationTicks": 236,
          "midi": 67,
          "name": "G4",
          "ticks": 76800,
          "time": 64,
          "velocity": 0.8267716535433071
        },
        {
          "duration": 0.19666666666667254,
          "durationTicks": 236,
          "midi": 55,
          "name": "G3",
          "ticks": 77040,
          "time": 64.2,
          "velocity": 0.8267716535433071
        },
        {
          "duration": 0.19666666666667254,
          "durationTicks": 236,
          "midi": 67,
          "name": "G4",
          "ticks": 77040,
          "time": 64.2,
          "velocity": 0.8267716535433071
        },
        {
          "duration": 0.19666666666667254,
          "durationTicks": 236,
          "midi": 55,
          "name": "G3",
          "ticks": 77280,
          "time": 64.4,
          "velocity": 0.8267716535433071
        },
        {
          "duration": 0.19666666666667254,
          "durationTicks": 236,
          "midi": 67,
          "name": "G4",
          "ticks": 77280,
          "time": 64.4,
          "velocity": 0.8267716535433071
        },
        {
          "duration": 0.19666666666665833,
          "durationTicks": 236,
          "midi": 55,
          "name": "G3",
          "ticks": 77520,
          "time": 64.60000000000001,
          "velocity": 0.8267716535433071
        },
        {
          "duration": 0.19666666666665833,
          "durationTicks": 236,
          "midi": 67,
          "name": "G4",
          "ticks": 77520,
          "time": 64.60000000000001,
          "velocity": 0.8267716535433071
        },
        {
          "duration": 0.19666666666667254,
          "durationTicks": 236,
          "midi": 55,
          "name": "G3",
          "ticks": 77760,
          "time": 64.8,
          "velocity": 0.8267716535433071
        },
        {
          "duration": 0.19666666666667254,
          "durationTicks": 236,
          "midi": 67,
          "name": "G4",
          "ticks": 77760,
          "time": 64.8,
          "velocity": 0.8267716535433071
        },
        {
          "duration": 0.19666666666667254,
          "durationTicks": 236,
          "midi": 55,
          "name": "G3",
          "ticks": 78000,
          "time": 65,
          "velocity": 0.8267716535433071
        },
        {
          "duration": 0.19666666666667254,
          "durationTicks": 236,
          "midi": 67,
          "name": "G4",
          "ticks": 78000,
          "time": 65,
          "velocity": 0.8267716535433071
        },
        {
          "duration": 0.19666666666667254,
          "durationTicks": 236,
          "midi": 55,
          "name": "G3",
          "ticks": 78240,
          "time": 65.2,
          "velocity": 0.8267716535433071
        },
        {
          "duration": 0.19666666666667254,
          "durationTicks": 236,
          "midi": 67,
          "name": "G4",
          "ticks": 78240,
          "time": 65.2,
          "velocity": 0.8267716535433071
        },
        {
          "duration": 0.19666666666667254,
          "durationTicks": 236,
          "midi": 55,
          "name": "G3",
          "ticks": 78480,
          "time": 65.4,
          "velocity": 0.8267716535433071
        },
        {
          "duration": 0.19666666666667254,
          "durationTicks": 236,
          "midi": 67,
          "name": "G4",
          "ticks": 78480,
          "time": 65.4,
          "velocity": 0.8267716535433071
        },
        {
          "duration": 0.19666666666665833,
          "durationTicks": 236,
          "midi": 55,
          "name": "G3",
          "ticks": 78720,
          "time": 65.60000000000001,
          "velocity": 0.8267716535433071
        },
        {
          "duration": 0.19666666666665833,
          "durationTicks": 236,
          "midi": 67,
          "name": "G4",
          "ticks": 78720,
          "time": 65.60000000000001,
          "velocity": 0.8267716535433071
        },
        {
          "duration": 0.19666666666667254,
          "durationTicks": 236,
          "midi": 55,
          "name": "G3",
          "ticks": 78960,
          "time": 65.8,
          "velocity": 0.8267716535433071
        },
        {
          "duration": 0.19666666666667254,
          "durationTicks": 236,
          "midi": 67,
          "name": "G4",
          "ticks": 78960,
          "time": 65.8,
          "velocity": 0.8267716535433071
        },
        {
          "duration": 0.19666666666667254,
          "durationTicks": 236,
          "midi": 55,
          "name": "G3",
          "ticks": 79200,
          "time": 66,
          "velocity": 0.8267716535433071
        },
        {
          "duration": 0.19666666666667254,
          "durationTicks": 236,
          "midi": 67,
          "name": "G4",
          "ticks": 79200,
          "time": 66,
          "velocity": 0.8267716535433071
        },
        {
          "duration": 0.19666666666667254,
          "durationTicks": 236,
          "midi": 55,
          "name": "G3",
          "ticks": 79440,
          "time": 66.2,
          "velocity": 0.8267716535433071
        },
        {
          "duration": 0.19666666666667254,
          "durationTicks": 236,
          "midi": 67,
          "name": "G4",
          "ticks": 79440,
          "time": 66.2,
          "velocity": 0.8267716535433071
        },
        {
          "duration": 0.19666666666667254,
          "durationTicks": 236,
          "midi": 55,
          "name": "G3",
          "ticks": 79680,
          "time": 66.4,
          "velocity": 0.8267716535433071
        },
        {
          "duration": 0.19666666666667254,
          "durationTicks": 236,
          "midi": 67,
          "name": "G4",
          "ticks": 79680,
          "time": 66.4,
          "velocity": 0.8267716535433071
        },
        {
          "duration": 0.19666666666665833,
          "durationTicks": 236,
          "midi": 55,
          "name": "G3",
          "ticks": 79920,
          "time": 66.60000000000001,
          "velocity": 0.8267716535433071
        },
        {
          "duration": 0.19666666666665833,
          "durationTicks": 236,
          "midi": 67,
          "name": "G4",
          "ticks": 79920,
          "time": 66.60000000000001,
          "velocity": 0.8267716535433071
        },
        {
          "duration": 0.19666666666667254,
          "durationTicks": 236,
          "midi": 55,
          "name": "G3",
          "ticks": 80160,
          "time": 66.8,
          "velocity": 0.8267716535433071
        },
        {
          "duration": 0.19666666666667254,
          "durationTicks": 236,
          "midi": 67,
          "name": "G4",
          "ticks": 80160,
          "time": 66.8,
          "velocity": 0.8267716535433071
        },
        {
          "duration": 0.19666666666667254,
          "durationTicks": 236,
          "midi": 55,
          "name": "G3",
          "ticks": 80400,
          "time": 67,
          "velocity": 0.8267716535433071
        },
        {
          "duration": 0.19666666666667254,
          "durationTicks": 236,
          "midi": 67,
          "name": "G4",
          "ticks": 80400,
          "time": 67,
          "velocity": 0.8267716535433071
        },
        {
          "duration": 0.19666666666667254,
          "durationTicks": 236,
          "midi": 55,
          "name": "G3",
          "ticks": 80640,
          "time": 67.2,
          "velocity": 0.8267716535433071
        },
        {
          "duration": 0.19666666666667254,
          "durationTicks": 236,
          "midi": 67,
          "name": "G4",
          "ticks": 80640,
          "time": 67.2,
          "velocity": 0.8267716535433071
        },
        {
          "duration": 0.19666666666667254,
          "durationTicks": 236,
          "midi": 55,
          "name": "G3",
          "ticks": 80880,
          "time": 67.4,
          "velocity": 0.8267716535433071
        },
        {
          "duration": 0.19666666666667254,
          "durationTicks": 236,
          "midi": 67,
          "name": "G4",
          "ticks": 80880,
          "time": 67.4,
          "velocity": 0.8267716535433071
        },
        {
          "duration": 0.19666666666665833,
          "durationTicks": 236,
          "midi": 55,
          "name": "G3",
          "ticks": 81120,
          "time": 67.60000000000001,
          "velocity": 0.8267716535433071
        },
        {
          "duration": 0.19666666666665833,
          "durationTicks": 236,
          "midi": 67,
          "name": "G4",
          "ticks": 81120,
          "time": 67.60000000000001,
          "velocity": 0.8267716535433071
        },
        {
          "duration": 0.19666666666667254,
          "durationTicks": 236,
          "midi": 55,
          "name": "G3",
          "ticks": 81360,
          "time": 67.8,
          "velocity": 0.8267716535433071
        },
        {
          "duration": 0.19666666666667254,
          "durationTicks": 236,
          "midi": 67,
          "name": "G4",
          "ticks": 81360,
          "time": 67.8,
          "velocity": 0.8267716535433071
        },
        {
          "duration": 0.19666666666667254,
          "durationTicks": 236,
          "midi": 55,
          "name": "G3",
          "ticks": 81600,
          "time": 68,
          "velocity": 0.8267716535433071
        },
        {
          "duration": 0.19666666666667254,
          "durationTicks": 236,
          "midi": 67,
          "name": "G4",
          "ticks": 81600,
          "time": 68,
          "velocity": 0.8267716535433071
        },
        {
          "duration": 0.19666666666667254,
          "durationTicks": 236,
          "midi": 55,
          "name": "G3",
          "ticks": 81840,
          "time": 68.2,
          "velocity": 0.8267716535433071
        },
        {
          "duration": 0.19666666666667254,
          "durationTicks": 236,
          "midi": 67,
          "name": "G4",
          "ticks": 81840,
          "time": 68.2,
          "velocity": 0.8267716535433071
        },
        {
          "duration": 0.19666666666667254,
          "durationTicks": 236,
          "midi": 55,
          "name": "G3",
          "ticks": 82080,
          "time": 68.4,
          "velocity": 0.8267716535433071
        },
        {
          "duration": 0.19666666666667254,
          "durationTicks": 236,
          "midi": 67,
          "name": "G4",
          "ticks": 82080,
          "time": 68.4,
          "velocity": 0.8267716535433071
        },
        {
          "duration": 0.19666666666665833,
          "durationTicks": 236,
          "midi": 55,
          "name": "G3",
          "ticks": 82320,
          "time": 68.60000000000001,
          "velocity": 0.8267716535433071
        },
        {
          "duration": 0.19666666666665833,
          "durationTicks": 236,
          "midi": 67,
          "name": "G4",
          "ticks": 82320,
          "time": 68.60000000000001,
          "velocity": 0.8267716535433071
        },
        {
          "duration": 0.19666666666667254,
          "durationTicks": 236,
          "midi": 55,
          "name": "G3",
          "ticks": 82560,
          "time": 68.8,
          "velocity": 0.8267716535433071
        },
        {
          "duration": 0.19666666666667254,
          "durationTicks": 236,
          "midi": 67,
          "name": "G4",
          "ticks": 82560,
          "time": 68.8,
          "velocity": 0.8267716535433071
        },
        {
          "duration": 0.19666666666667254,
          "durationTicks": 236,
          "midi": 55,
          "name": "G3",
          "ticks": 82800,
          "time": 69,
          "velocity": 0.8267716535433071
        },
        {
          "duration": 0.19666666666667254,
          "durationTicks": 236,
          "midi": 67,
          "name": "G4",
          "ticks": 82800,
          "time": 69,
          "velocity": 0.8267716535433071
        },
        {
          "duration": 0.19666666666667254,
          "durationTicks": 236,
          "midi": 55,
          "name": "G3",
          "ticks": 83040,
          "time": 69.2,
          "velocity": 0.8267716535433071
        },
        {
          "duration": 0.19666666666667254,
          "durationTicks": 236,
          "midi": 67,
          "name": "G4",
          "ticks": 83040,
          "time": 69.2,
          "velocity": 0.8267716535433071
        },
        {
          "duration": 0.19666666666667254,
          "durationTicks": 236,
          "midi": 55,
          "name": "G3",
          "ticks": 83280,
          "time": 69.4,
          "velocity": 0.8267716535433071
        },
        {
          "duration": 0.19666666666667254,
          "durationTicks": 236,
          "midi": 67,
          "name": "G4",
          "ticks": 83280,
          "time": 69.4,
          "velocity": 0.8267716535433071
        },
        {
          "duration": 0.19666666666665833,
          "durationTicks": 236,
          "midi": 55,
          "name": "G3",
          "ticks": 83520,
          "time": 69.60000000000001,
          "velocity": 0.8267716535433071
        },
        {
          "duration": 0.19666666666665833,
          "durationTicks": 236,
          "midi": 67,
          "name": "G4",
          "ticks": 83520,
          "time": 69.60000000000001,
          "velocity": 0.8267716535433071
        },
        {
          "duration": 0.19666666666667254,
          "durationTicks": 236,
          "midi": 55,
          "name": "G3",
          "ticks": 83760,
          "time": 69.8,
          "velocity": 0.8267716535433071
        },
        {
          "duration": 0.19666666666667254,
          "durationTicks": 236,
          "midi": 67,
          "name": "G4",
          "ticks": 83760,
          "time": 69.8,
          "velocity": 0.8267716535433071
        },
        {
          "duration": 0.19666666666667254,
          "durationTicks": 236,
          "midi": 55,
          "name": "G3",
          "ticks": 84000,
          "time": 70,
          "velocity": 0.8267716535433071
        },
        {
          "duration": 0.19666666666667254,
          "durationTicks": 236,
          "midi": 67,
          "name": "G4",
          "ticks": 84000,
          "time": 70,
          "velocity": 0.8267716535433071
        },
        {
          "duration": 0.19666666666667254,
          "durationTicks": 236,
          "midi": 55,
          "name": "G3",
          "ticks": 84240,
          "time": 70.2,
          "velocity": 0.8267716535433071
        },
        {
          "duration": 0.19666666666667254,
          "durationTicks": 236,
          "midi": 67,
          "name": "G4",
          "ticks": 84240,
          "time": 70.2,
          "velocity": 0.8267716535433071
        },
        {
          "duration": 0.19666666666667254,
          "durationTicks": 236,
          "midi": 55,
          "name": "G3",
          "ticks": 84480,
          "time": 70.4,
          "velocity": 0.8267716535433071
        },
        {
          "duration": 0.19666666666667254,
          "durationTicks": 236,
          "midi": 67,
          "name": "G4",
          "ticks": 84480,
          "time": 70.4,
          "velocity": 0.8267716535433071
        },
        {
          "duration": 0.19666666666665833,
          "durationTicks": 236,
          "midi": 55,
          "name": "G3",
          "ticks": 84720,
          "time": 70.60000000000001,
          "velocity": 0.8267716535433071
        },
        {
          "duration": 0.19666666666665833,
          "durationTicks": 236,
          "midi": 67,
          "name": "G4",
          "ticks": 84720,
          "time": 70.60000000000001,
          "velocity": 0.8267716535433071
        },
        {
          "duration": 0.19666666666667254,
          "durationTicks": 236,
          "midi": 55,
          "name": "G3",
          "ticks": 84960,
          "time": 70.8,
          "velocity": 0.8267716535433071
        },
        {
          "duration": 0.19666666666667254,
          "durationTicks": 236,
          "midi": 67,
          "name": "G4",
          "ticks": 84960,
          "time": 70.8,
          "velocity": 0.8267716535433071
        },
        {
          "duration": 0.19666666666667254,
          "durationTicks": 236,
          "midi": 55,
          "name": "G3",
          "ticks": 85200,
          "time": 71,
          "velocity": 0.8267716535433071
        },
        {
          "duration": 0.19666666666667254,
          "durationTicks": 236,
          "midi": 67,
          "name": "G4",
          "ticks": 85200,
          "time": 71,
          "velocity": 0.8267716535433071
        },
        {
          "duration": 0.19666666666667254,
          "durationTicks": 236,
          "midi": 55,
          "name": "G3",
          "ticks": 85440,
          "time": 71.2,
          "velocity": 0.8267716535433071
        },
        {
          "duration": 0.19666666666667254,
          "durationTicks": 236,
          "midi": 67,
          "name": "G4",
          "ticks": 85440,
          "time": 71.2,
          "velocity": 0.8267716535433071
        },
        {
          "duration": 0.19666666666667254,
          "durationTicks": 236,
          "midi": 55,
          "name": "G3",
          "ticks": 85680,
          "time": 71.4,
          "velocity": 0.8267716535433071
        },
        {
          "duration": 0.19666666666667254,
          "durationTicks": 236,
          "midi": 67,
          "name": "G4",
          "ticks": 85680,
          "time": 71.4,
          "velocity": 0.8267716535433071
        },
        {
          "duration": 0.19666666666665833,
          "durationTicks": 236,
          "midi": 55,
          "name": "G3",
          "ticks": 85920,
          "time": 71.60000000000001,
          "velocity": 0.8267716535433071
        },
        {
          "duration": 0.19666666666665833,
          "durationTicks": 236,
          "midi": 67,
          "name": "G4",
          "ticks": 85920,
          "time": 71.60000000000001,
          "velocity": 0.8267716535433071
        },
        {
          "duration": 0.19666666666667254,
          "durationTicks": 236,
          "midi": 55,
          "name": "G3",
          "ticks": 86160,
          "time": 71.8,
          "velocity": 0.8267716535433071
        },
        {
          "duration": 0.19666666666667254,
          "durationTicks": 236,
          "midi": 67,
          "name": "G4",
          "ticks": 86160,
          "time": 71.8,
          "velocity": 0.8267716535433071
        },
        {
          "duration": 0.19666666666667254,
          "durationTicks": 236,
          "midi": 55,
          "name": "G3",
          "ticks": 86400,
          "time": 72,
          "velocity": 0.8267716535433071
        },
        {
          "duration": 0.19666666666667254,
          "durationTicks": 236,
          "midi": 67,
          "name": "G4",
          "ticks": 86400,
          "time": 72,
          "velocity": 0.8267716535433071
        },
        {
          "duration": 0.19666666666667254,
          "durationTicks": 236,
          "midi": 55,
          "name": "G3",
          "ticks": 86640,
          "time": 72.2,
          "velocity": 0.8267716535433071
        },
        {
          "duration": 0.19666666666667254,
          "durationTicks": 236,
          "midi": 67,
          "name": "G4",
          "ticks": 86640,
          "time": 72.2,
          "velocity": 0.8267716535433071
        },
        {
          "duration": 0.19666666666667254,
          "durationTicks": 236,
          "midi": 55,
          "name": "G3",
          "ticks": 86880,
          "time": 72.4,
          "velocity": 0.8267716535433071
        },
        {
          "duration": 0.19666666666667254,
          "durationTicks": 236,
          "midi": 67,
          "name": "G4",
          "ticks": 86880,
          "time": 72.4,
          "velocity": 0.8267716535433071
        },
        {
          "duration": 0.19666666666665833,
          "durationTicks": 236,
          "midi": 55,
          "name": "G3",
          "ticks": 87120,
          "time": 72.60000000000001,
          "velocity": 0.8267716535433071
        },
        {
          "duration": 0.19666666666665833,
          "durationTicks": 236,
          "midi": 67,
          "name": "G4",
          "ticks": 87120,
          "time": 72.60000000000001,
          "velocity": 0.8267716535433071
        },
        {
          "duration": 0.19666666666667254,
          "durationTicks": 236,
          "midi": 55,
          "name": "G3",
          "ticks": 87360,
          "time": 72.8,
          "velocity": 0.8267716535433071
        },
        {
          "duration": 0.19666666666667254,
          "durationTicks": 236,
          "midi": 67,
          "name": "G4",
          "ticks": 87360,
          "time": 72.8,
          "velocity": 0.8267716535433071
        },
        {
          "duration": 0.19666666666667254,
          "durationTicks": 236,
          "midi": 55,
          "name": "G3",
          "ticks": 87600,
          "time": 73,
          "velocity": 0.8267716535433071
        },
        {
          "duration": 0.19666666666667254,
          "durationTicks": 236,
          "midi": 67,
          "name": "G4",
          "ticks": 87600,
          "time": 73,
          "velocity": 0.8267716535433071
        },
        {
          "duration": 0.19666666666667254,
          "durationTicks": 236,
          "midi": 55,
          "name": "G3",
          "ticks": 87840,
          "time": 73.2,
          "velocity": 0.8267716535433071
        },
        {
          "duration": 0.19666666666667254,
          "durationTicks": 236,
          "midi": 67,
          "name": "G4",
          "ticks": 87840,
          "time": 73.2,
          "velocity": 0.8267716535433071
        },
        {
          "duration": 0.19666666666667254,
          "durationTicks": 236,
          "midi": 55,
          "name": "G3",
          "ticks": 88080,
          "time": 73.4,
          "velocity": 0.8267716535433071
        },
        {
          "duration": 0.19666666666667254,
          "durationTicks": 236,
          "midi": 67,
          "name": "G4",
          "ticks": 88080,
          "time": 73.4,
          "velocity": 0.8267716535433071
        },
        {
          "duration": 0.19666666666665833,
          "durationTicks": 236,
          "midi": 60,
          "name": "C4",
          "ticks": 88320,
          "time": 73.60000000000001,
          "velocity": 0.8267716535433071
        },
        {
          "duration": 0.19666666666667254,
          "durationTicks": 236,
          "midi": 60,
          "name": "C4",
          "ticks": 88560,
          "time": 73.8,
          "velocity": 0.8267716535433071
        },
        {
          "duration": 0.19666666666667254,
          "durationTicks": 236,
          "midi": 62,
          "name": "D4",
          "ticks": 88800,
          "time": 74,
          "velocity": 0.8267716535433071
        },
        {
          "duration": 0.19666666666667254,
          "durationTicks": 236,
          "midi": 62,
          "name": "D4",
          "ticks": 89040,
          "time": 74.2,
          "velocity": 0.8267716535433071
        },
        {
          "duration": 0.19666666666667254,
          "durationTicks": 236,
          "midi": 60,
          "name": "C4",
          "ticks": 89280,
          "time": 74.4,
          "velocity": 0.8267716535433071
        },
        {
          "duration": 0.19666666666665833,
          "durationTicks": 236,
          "midi": 60,
          "name": "C4",
          "ticks": 89520,
          "time": 74.60000000000001,
          "velocity": 0.8267716535433071
        },
        {
          "duration": 0.19666666666667254,
          "durationTicks": 236,
          "midi": 62,
          "name": "D4",
          "ticks": 89760,
          "time": 74.8,
          "velocity": 0.8267716535433071
        },
        {
          "duration": 0.19666666666667254,
          "durationTicks": 236,
          "midi": 62,
          "name": "D4",
          "ticks": 90000,
          "time": 75,
          "velocity": 0.8267716535433071
        },
        {
          "duration": 1.0999999999999943,
          "durationTicks": 1320,
          "midi": 60,
          "name": "C4",
          "ticks": 90240,
          "time": 75.2,
          "velocity": 0.8267716535433071
        },
        {
          "duration": 0.3333333333333286,
          "durationTicks": 400,
          "midi": 61,
          "name": "C#4",
          "ticks": 91680,
          "time": 76.4,
          "velocity": 0.8267716535433071
        },
        {
          "duration": 0.3333333333333286,
          "durationTicks": 400,
          "midi": 62,
          "name": "D4",
          "ticks": 92160,
          "time": 76.80000000000001,
          "velocity": 0.8267716535433071
        },
        {
          "duration": 0.04999999999999716,
          "durationTicks": 60,
          "midi": 57,
          "name": "A3",
          "ticks": 92880,
          "time": 77.4,
          "velocity": 0.8267716535433071
        },
        {
          "duration": 0.04999999999999716,
          "durationTicks": 60,
          "midi": 55,
          "name": "G3",
          "ticks": 92940,
          "time": 77.45,
          "velocity": 0.8267716535433071
        },
        {
          "duration": 0.05000000000001137,
          "durationTicks": 60,
          "midi": 54,
          "name": "F#3",
          "ticks": 93000,
          "time": 77.5,
          "velocity": 0.8267716535433071
        },
        {
          "duration": 0.04999999999999716,
          "durationTicks": 60,
          "midi": 52,
          "name": "E3",
          "ticks": 93060,
          "time": 77.55000000000001,
          "velocity": 0.8267716535433071
        },
        {
          "duration": 0.3333333333333286,
          "durationTicks": 400,
          "midi": 50,
          "name": "D3",
          "ticks": 93120,
          "time": 77.60000000000001,
          "velocity": 0.8267716535433071
        },
        {
          "duration": 0.05000000000001137,
          "durationTicks": 60,
          "midi": 62,
          "name": "D4",
          "ticks": 94800,
          "time": 79,
          "velocity": 0.8267716535433071
        },
        {
          "duration": 0.04999999999999716,
          "durationTicks": 60,
          "midi": 60,
          "name": "C4",
          "ticks": 94860,
          "time": 79.05000000000001,
          "velocity": 0.8267716535433071
        },
        {
          "duration": 0.04999999999999716,
          "durationTicks": 60,
          "midi": 59,
          "name": "B3",
          "ticks": 94920,
          "time": 79.10000000000001,
          "velocity": 0.8267716535433071
        },
        {
          "duration": 0.04999999999999716,
          "durationTicks": 60,
          "midi": 57,
          "name": "A3",
          "ticks": 94980,
          "time": 79.15,
          "velocity": 0.8267716535433071
        },
        {
          "duration": 0.3333333333333428,
          "durationTicks": 400,
          "midi": 55,
          "name": "G3",
          "ticks": 95040,
          "time": 79.2,
          "velocity": 0.8267716535433071
        },
        {
          "duration": 0.04999999999999716,
          "durationTicks": 60,
          "midi": 69,
          "name": "A4",
          "ticks": 96720,
          "time": 80.60000000000001,
          "velocity": 0.8267716535433071
        },
        {
          "duration": 0.04999999999999716,
          "durationTicks": 60,
          "midi": 67,
          "name": "G4",
          "ticks": 96780,
          "time": 80.65,
          "velocity": 0.8267716535433071
        },
        {
          "duration": 0.04999999999999716,
          "durationTicks": 60,
          "midi": 66,
          "name": "F#4",
          "ticks": 96840,
          "time": 80.7,
          "velocity": 0.8267716535433071
        },
        {
          "duration": 0.05000000000001137,
          "durationTicks": 60,
          "midi": 64,
          "name": "E4",
          "ticks": 96900,
          "time": 80.75,
          "velocity": 0.8267716535433071
        },
        {
          "duration": 0.3333333333333286,
          "durationTicks": 400,
          "midi": 62,
          "name": "D4",
          "ticks": 96960,
          "time": 80.80000000000001,
          "velocity": 0.8267716535433071
        },
        {
          "duration": 0.04999999999999716,
          "durationTicks": 60,
          "midi": 62,
          "name": "D4",
          "ticks": 98640,
          "time": 82.2,
          "velocity": 0.8267716535433071
        },
        {
          "duration": 0.05000000000001137,
          "durationTicks": 60,
          "midi": 60,
          "name": "C4",
          "ticks": 98700,
          "time": 82.25,
          "velocity": 0.8267716535433071
        },
        {
          "duration": 0.04999999999999716,
          "durationTicks": 60,
          "midi": 59,
          "name": "B3",
          "ticks": 98760,
          "time": 82.30000000000001,
          "velocity": 0.8267716535433071
        },
        {
          "duration": 0.04999999999999716,
          "durationTicks": 60,
          "midi": 57,
          "name": "A3",
          "ticks": 98820,
          "time": 82.35000000000001,
          "velocity": 0.8267716535433071
        },
        {
          "duration": 0.3333333333333428,
          "durationTicks": 400,
          "midi": 55,
          "name": "G3",
          "ticks": 98880,
          "time": 82.4,
          "velocity": 0.8267716535433071
        },
        {
          "duration": 0.3333333333333428,
          "durationTicks": 400,
          "midi": 50,
          "name": "D3",
          "ticks": 99840,
          "time": 83.2,
          "velocity": 0.8267716535433071
        },
        {
          "duration": 0.04999999999999716,
          "durationTicks": 60,
          "midi": 62,
          "name": "D4",
          "ticks": 100560,
          "time": 83.80000000000001,
          "velocity": 0.8267716535433071
        },
        {
          "duration": 0.04999999999999716,
          "durationTicks": 60,
          "midi": 60,
          "name": "C4",
          "ticks": 100620,
          "time": 83.85000000000001,
          "velocity": 0.8267716535433071
        },
        {
          "duration": 0.04999999999999716,
          "durationTicks": 60,
          "midi": 59,
          "name": "B3",
          "ticks": 100680,
          "time": 83.9,
          "velocity": 0.8267716535433071
        },
        {
          "duration": 0.04999999999999716,
          "durationTicks": 60,
          "midi": 57,
          "name": "A3",
          "ticks": 100740,
          "time": 83.95,
          "velocity": 0.8267716535433071
        },
        {
          "duration": 0.3333333333333428,
          "durationTicks": 400,
          "midi": 59,
          "name": "B3",
          "ticks": 100800,
          "time": 84,
          "velocity": 0.8267716535433071
        },
        {
          "duration": 0.04999999999999716,
          "durationTicks": 60,
          "midi": 60,
          "name": "C4",
          "ticks": 101520,
          "time": 84.60000000000001,
          "velocity": 0.8267716535433071
        },
        {
          "duration": 0.04999999999999716,
          "durationTicks": 60,
          "midi": 59,
          "name": "B3",
          "ticks": 101580,
          "time": 84.65,
          "velocity": 0.8267716535433071
        },
        {
          "duration": 0.04999999999999716,
          "durationTicks": 60,
          "midi": 57,
          "name": "A3",
          "ticks": 101640,
          "time": 84.7,
          "velocity": 0.8267716535433071
        },
        {
          "duration": 0.05000000000001137,
          "durationTicks": 60,
          "midi": 55,
          "name": "G3",
          "ticks": 101700,
          "time": 84.75,
          "velocity": 0.8267716535433071
        },
        {
          "duration": 0.3333333333333286,
          "durationTicks": 400,
          "midi": 54,
          "name": "F#3",
          "ticks": 101760,
          "time": 84.80000000000001,
          "velocity": 0.8267716535433071
        },
        {
          "duration": 0.04999999999999716,
          "durationTicks": 60,
          "midi": 62,
          "name": "D4",
          "ticks": 102480,
          "time": 85.4,
          "velocity": 0.8267716535433071
        },
        {
          "duration": 0.04999999999999716,
          "durationTicks": 60,
          "midi": 60,
          "name": "C4",
          "ticks": 102540,
          "time": 85.45,
          "velocity": 0.8267716535433071
        },
        {
          "duration": 0.05000000000001137,
          "durationTicks": 60,
          "midi": 59,
          "name": "B3",
          "ticks": 102600,
          "time": 85.5,
          "velocity": 0.8267716535433071
        },
        {
          "duration": 0.04999999999999716,
          "durationTicks": 60,
          "midi": 57,
          "name": "A3",
          "ticks": 102660,
          "time": 85.55000000000001,
          "velocity": 0.8267716535433071
        },
        {
          "duration": 0.3333333333333286,
          "durationTicks": 400,
          "midi": 59,
          "name": "B3",
          "ticks": 102720,
          "time": 85.60000000000001,
          "velocity": 0.8267716535433071
        },
        {
          "duration": 0.04999999999999716,
          "durationTicks": 60,
          "midi": 60,
          "name": "C4",
          "ticks": 103440,
          "time": 86.2,
          "velocity": 0.8267716535433071
        },
        {
          "duration": 0.05000000000001137,
          "durationTicks": 60,
          "midi": 59,
          "name": "B3",
          "ticks": 103500,
          "time": 86.25,
          "velocity": 0.8267716535433071
        },
        {
          "duration": 0.04999999999999716,
          "durationTicks": 60,
          "midi": 57,
          "name": "A3",
          "ticks": 103560,
          "time": 86.30000000000001,
          "velocity": 0.8267716535433071
        },
        {
          "duration": 0.04999999999999716,
          "durationTicks": 60,
          "midi": 55,
          "name": "G3",
          "ticks": 103620,
          "time": 86.35000000000001,
          "velocity": 0.8267716535433071
        },
        {
          "duration": 0.3333333333333428,
          "durationTicks": 400,
          "midi": 54,
          "name": "F#3",
          "ticks": 103680,
          "time": 86.4,
          "velocity": 0.8267716535433071
        },
        {
          "duration": 1.2000000000000028,
          "durationTicks": 1440,
          "midi": 57,
          "name": "A3",
          "ticks": 109440,
          "time": 91.2,
          "velocity": 0.4015748031496063
        },
        {
          "duration": 0.4000000000000057,
          "durationTicks": 480,
          "midi": 58,
          "name": "A#3",
          "ticks": 110880,
          "time": 92.4,
          "velocity": 0.4015748031496063
        },
        {
          "duration": 0.3999999999999915,
          "durationTicks": 480,
          "midi": 59,
          "name": "B3",
          "ticks": 111360,
          "time": 92.80000000000001,
          "velocity": 0.4015748031496063
        },
        {
          "duration": 0.3333333333333428,
          "durationTicks": 400,
          "midi": 54,
          "name": "F#3",
          "ticks": 113280,
          "time": 94.4,
          "velocity": 0.4015748031496063
        },
        {
          "duration": 0.3333333333333428,
          "durationTicks": 400,
          "midi": 55,
          "name": "G3",
          "ticks": 114240,
          "time": 95.2,
          "velocity": 0.4015748031496063
        },
        {
          "duration": 0.3333333333333428,
          "durationTicks": 400,
          "midi": 50,
          "name": "D3",
          "ticks": 115200,
          "time": 96,
          "velocity": 0.4015748031496063
        },
        {
          "duration": 1.1999999999999886,
          "durationTicks": 1440,
          "midi": 57,
          "name": "A3",
          "ticks": 120960,
          "time": 100.80000000000001,
          "velocity": 0.4015748031496063
        },
        {
          "duration": 0.4000000000000057,
          "durationTicks": 480,
          "midi": 58,
          "name": "A#3",
          "ticks": 122400,
          "time": 102,
          "velocity": 0.4015748031496063
        },
        {
          "duration": 0.3333333333333286,
          "durationTicks": 400,
          "midi": 59,
          "name": "B3",
          "ticks": 122880,
          "time": 102.4,
          "velocity": 0.4015748031496063
        },
        {
          "duration": 0.3333333333333286,
          "durationTicks": 400,
          "midi": 54,
          "name": "F#3",
          "ticks": 124800,
          "time": 104,
          "velocity": 0.4015748031496063
        },
        {
          "duration": 0.3333333333333144,
          "durationTicks": 400,
          "midi": 55,
          "name": "G3",
          "ticks": 125760,
          "time": 104.80000000000001,
          "velocity": 0.4015748031496063
        },
        {
          "duration": 1.5999999999999943,
          "durationTicks": 1920,
          "midi": 60,
          "name": "C4",
          "ticks": 126720,
          "time": 105.60000000000001,
          "velocity": 0.4015748031496063
        },
        {
          "duration": 0.3333333333333286,
          "durationTicks": 400,
          "midi": 59,
          "name": "B3",
          "ticks": 128640,
          "time": 107.2,
          "velocity": 0.4015748031496063
        },
        {
          "duration": 0.3333333333333286,
          "durationTicks": 400,
          "midi": 63,
          "name": "D#4",
          "ticks": 129600,
          "time": 108,
          "velocity": 0.4015748031496063
        },
        {
          "duration": 1.1999999999999886,
          "durationTicks": 1440,
          "midi": 64,
          "name": "E4",
          "ticks": 130560,
          "time": 108.80000000000001,
          "velocity": 0.4015748031496063
        },
        {
          "duration": 0.3333333333333286,
          "durationTicks": 400,
          "midi": 60,
          "name": "C4",
          "ticks": 132000,
          "time": 110,
          "velocity": 0.4015748031496063
        },
        {
          "duration": 1.2000000000000028,
          "durationTicks": 1440,
          "midi": 62,
          "name": "D4",
          "ticks": 132480,
          "time": 110.4,
          "velocity": 0.4015748031496063
        },
        {
          "duration": 0.3333333333333286,
          "durationTicks": 400,
          "midi": 54,
          "name": "F#3",
          "ticks": 133920,
          "time": 111.60000000000001,
          "velocity": 0.4015748031496063
        },
        {
          "duration": 0.6000000000000085,
          "durationTicks": 720,
          "midi": 55,
          "name": "G3",
          "ticks": 134400,
          "time": 112,
          "velocity": 0.4015748031496063
        },
        {
          "duration": 0.19666666666667254,
          "durationTicks": 236,
          "midi": 54,
          "name": "F#3",
          "ticks": 135120,
          "time": 112.60000000000001,
          "velocity": 0.4015748031496063
        },
        {
          "duration": 0.5999999999999943,
          "durationTicks": 720,
          "midi": 59,
          "name": "B3",
          "ticks": 135360,
          "time": 112.80000000000001,
          "velocity": 0.4015748031496063
        },
        {
          "duration": 0.19666666666667254,
          "durationTicks": 236,
          "midi": 57,
          "name": "A3",
          "ticks": 136080,
          "time": 113.4,
          "velocity": 0.4015748031496063
        },
        {
          "duration": 0.7999999999999972,
          "durationTicks": 960,
          "midi": 62,
          "name": "D4",
          "ticks": 136320,
          "time": 113.60000000000001,
          "velocity": 0.4015748031496063
        },
        {
          "duration": 0.7000000000000028,
          "durationTicks": 840,
          "midi": 60,
          "name": "C4",
          "ticks": 137280,
          "time": 114.4,
          "velocity": 0.4015748031496063
        },
        {
          "duration": 0.3333333333333286,
          "durationTicks": 400,
          "midi": 59,
          "name": "B3",
          "ticks": 138240,
          "time": 115.2,
          "velocity": 0.4015748031496063
        },
        {
          "duration": 0.3333333333333286,
          "durationTicks": 400,
          "midi": 64,
          "name": "E4",
          "ticks": 139200,
          "time": 116,
          "velocity": 0.4015748031496063
        },
        {
          "duration": 0.3333333333333144,
          "durationTicks": 400,
          "midi": 60,
          "name": "C4",
          "ticks": 140160,
          "time": 116.80000000000001,
          "velocity": 0.4015748031496063
        },
        {
          "duration": 0.3333333333333286,
          "durationTicks": 400,
          "midi": 62,
          "name": "D4",
          "ticks": 141120,
          "time": 117.60000000000001,
          "velocity": 0.4015748031496063
        },
        {
          "duration": 0.06666666666667709,
          "durationTicks": 80,
          "midi": 62,
          "name": "D4",
          "ticks": 141840,
          "time": 118.2,
          "velocity": 0.4015748031496063
        },
        {
          "duration": 0.5999999999999943,
          "durationTicks": 720,
          "midi": 67,
          "name": "G4",
          "ticks": 142080,
          "time": 118.4,
          "velocity": 0.4015748031496063
        },
        {
          "duration": 0.19666666666667254,
          "durationTicks": 236,
          "midi": 66,
          "name": "F#4",
          "ticks": 142800,
          "time": 119,
          "velocity": 0.4015748031496063
        },
        {
          "duration": 0.6000000000000085,
          "durationTicks": 720,
          "midi": 71,
          "name": "B4",
          "ticks": 143040,
          "time": 119.2,
          "velocity": 0.4015748031496063
        },
        {
          "duration": 0.19666666666665833,
          "durationTicks": 236,
          "midi": 69,
          "name": "A4",
          "ticks": 143760,
          "time": 119.80000000000001,
          "velocity": 0.4015748031496063
        },
        {
          "duration": 0.8000000000000114,
          "durationTicks": 960,
          "midi": 74,
          "name": "D5",
          "ticks": 144000,
          "time": 120,
          "velocity": 0.4015748031496063
        },
        {
          "duration": 0.6999999999999886,
          "durationTicks": 840,
          "midi": 72,
          "name": "C5",
          "ticks": 144960,
          "time": 120.80000000000001,
          "velocity": 0.4015748031496063
        },
        {
          "duration": 0.09999999999999432,
          "durationTicks": 120,
          "midi": 71,
          "name": "B4",
          "ticks": 145920,
          "time": 121.60000000000001,
          "velocity": 0.4015748031496063
        },
        {
          "duration": 0.10000000000000853,
          "durationTicks": 120,
          "midi": 68,
          "name": "G#4",
          "ticks": 146400,
          "time": 122,
          "velocity": 0.4015748031496063
        },
        {
          "duration": 0.09999999999999432,
          "durationTicks": 120,
          "midi": 68,
          "name": "G#4",
          "ticks": 146880,
          "time": 122.4,
          "velocity": 0.4015748031496063
        },
        {
          "duration": 0.10000000000000853,
          "durationTicks": 120,
          "midi": 69,
          "name": "A4",
          "ticks": 147840,
          "time": 123.2,
          "velocity": 0.4015748031496063
        },
        {
          "duration": 0.09999999999999432,
          "durationTicks": 120,
          "midi": 69,
          "name": "A4",
          "ticks": 148320,
          "time": 123.60000000000001,
          "velocity": 0.4015748031496063
        },
        {
          "duration": 0.10000000000000853,
          "durationTicks": 120,
          "midi": 69,
          "name": "A4",
          "ticks": 148800,
          "time": 124,
          "velocity": 0.4015748031496063
        },
        {
          "duration": 0.09999999999999432,
          "durationTicks": 120,
          "midi": 71,
          "name": "B4",
          "ticks": 149760,
          "time": 124.80000000000001,
          "velocity": 0.4015748031496063
        },
        {
          "duration": 0.10000000000000853,
          "durationTicks": 120,
          "midi": 71,
          "name": "B4",
          "ticks": 150240,
          "time": 125.2,
          "velocity": 0.4015748031496063
        },
        {
          "duration": 0.09999999999999432,
          "durationTicks": 120,
          "midi": 71,
          "name": "B4",
          "ticks": 150720,
          "time": 125.60000000000001,
          "velocity": 0.4015748031496063
        },
        {
          "duration": 0.700000000000017,
          "durationTicks": 840,
          "midi": 55,
          "name": "G3",
          "ticks": 153600,
          "time": 128,
          "velocity": 0.8267716535433071
        },
        {
          "duration": 0.6999999999999886,
          "durationTicks": 840,
          "midi": 55,
          "name": "G3",
          "ticks": 154560,
          "time": 128.8,
          "velocity": 0.8267716535433071
        },
        {
          "duration": 0.700000000000017,
          "durationTicks": 840,
          "midi": 55,
          "name": "G3",
          "ticks": 155520,
          "time": 129.6,
          "velocity": 0.8267716535433071
        },
        {
          "duration": 0.6999999999999886,
          "durationTicks": 840,
          "midi": 55,
          "name": "G3",
          "ticks": 156480,
          "time": 130.4,
          "velocity": 0.8267716535433071
        },
        {
          "duration": 0.6999999999999886,
          "durationTicks": 840,
          "midi": 55,
          "name": "G3",
          "ticks": 157440,
          "time": 131.20000000000002,
          "velocity": 0.8267716535433071
        },
        {
          "duration": 0.700000000000017,
          "durationTicks": 840,
          "midi": 56,
          "name": "G#3",
          "ticks": 158400,
          "time": 132,
          "velocity": 0.8267716535433071
        },
        {
          "duration": 0.6999999999999886,
          "durationTicks": 840,
          "midi": 57,
          "name": "A3",
          "ticks": 159360,
          "time": 132.8,
          "velocity": 0.8267716535433071
        },
        {
          "duration": 0.700000000000017,
          "durationTicks": 840,
          "midi": 59,
          "name": "B3",
          "ticks": 160320,
          "time": 133.6,
          "velocity": 0.8267716535433071
        },
        {
          "duration": 0.19666666666665833,
          "durationTicks": 236,
          "midi": 60,
          "name": "C4",
          "ticks": 161280,
          "time": 134.4,
          "velocity": 0.8267716535433071
        },
        {
          "duration": 0.19666666666668675,
          "durationTicks": 236,
          "midi": 60,
          "name": "C4",
          "ticks": 161520,
          "time": 134.6,
          "velocity": 0.8267716535433071
        },
        {
          "duration": 0.19666666666665833,
          "durationTicks": 236,
          "midi": 60,
          "name": "C4",
          "ticks": 161760,
          "time": 134.8,
          "velocity": 0.8267716535433071
        },
        {
          "duration": 0.19666666666668675,
          "durationTicks": 236,
          "midi": 60,
          "name": "C4",
          "ticks": 162000,
          "time": 135,
          "velocity": 0.8267716535433071
        },
        {
          "duration": 0.19666666666665833,
          "durationTicks": 236,
          "midi": 60,
          "name": "C4",
          "ticks": 162240,
          "time": 135.20000000000002,
          "velocity": 0.8267716535433071
        },
        {
          "duration": 0.19666666666665833,
          "durationTicks": 236,
          "midi": 60,
          "name": "C4",
          "ticks": 162480,
          "time": 135.4,
          "velocity": 0.8267716535433071
        },
        {
          "duration": 0.19666666666668675,
          "durationTicks": 236,
          "midi": 60,
          "name": "C4",
          "ticks": 162720,
          "time": 135.6,
          "velocity": 0.8267716535433071
        },
        {
          "duration": 0.19666666666665833,
          "durationTicks": 236,
          "midi": 60,
          "name": "C4",
          "ticks": 162960,
          "time": 135.8,
          "velocity": 0.8267716535433071
        },
        {
          "duration": 0.19666666666668675,
          "durationTicks": 236,
          "midi": 60,
          "name": "C4",
          "ticks": 163200,
          "time": 136,
          "velocity": 0.8267716535433071
        },
        {
          "duration": 0.19666666666665833,
          "durationTicks": 236,
          "midi": 60,
          "name": "C4",
          "ticks": 163440,
          "time": 136.20000000000002,
          "velocity": 0.8267716535433071
        },
        {
          "duration": 0.19666666666665833,
          "durationTicks": 236,
          "midi": 60,
          "name": "C4",
          "ticks": 163680,
          "time": 136.4,
          "velocity": 0.8267716535433071
        },
        {
          "duration": 0.19666666666668675,
          "durationTicks": 236,
          "midi": 60,
          "name": "C4",
          "ticks": 163920,
          "time": 136.6,
          "velocity": 0.8267716535433071
        },
        {
          "duration": 0.19666666666665833,
          "durationTicks": 236,
          "midi": 60,
          "name": "C4",
          "ticks": 164160,
          "time": 136.8,
          "velocity": 0.8267716535433071
        },
        {
          "duration": 0.19666666666668675,
          "durationTicks": 236,
          "midi": 60,
          "name": "C4",
          "ticks": 164400,
          "time": 137,
          "velocity": 0.8267716535433071
        },
        {
          "duration": 0.19666666666665833,
          "durationTicks": 236,
          "midi": 60,
          "name": "C4",
          "ticks": 164640,
          "time": 137.20000000000002,
          "velocity": 0.8267716535433071
        },
        {
          "duration": 0.19666666666665833,
          "durationTicks": 236,
          "midi": 60,
          "name": "C4",
          "ticks": 164880,
          "time": 137.4,
          "velocity": 0.8267716535433071
        },
        {
          "duration": 0.19666666666668675,
          "durationTicks": 236,
          "midi": 62,
          "name": "D4",
          "ticks": 165120,
          "time": 137.6,
          "velocity": 0.8267716535433071
        },
        {
          "duration": 0.19666666666665833,
          "durationTicks": 236,
          "midi": 62,
          "name": "D4",
          "ticks": 165360,
          "time": 137.8,
          "velocity": 0.8267716535433071
        },
        {
          "duration": 0.19666666666668675,
          "durationTicks": 236,
          "midi": 62,
          "name": "D4",
          "ticks": 165600,
          "time": 138,
          "velocity": 0.8267716535433071
        },
        {
          "duration": 0.19666666666665833,
          "durationTicks": 236,
          "midi": 62,
          "name": "D4",
          "ticks": 165840,
          "time": 138.20000000000002,
          "velocity": 0.8267716535433071
        },
        {
          "duration": 0.19666666666665833,
          "durationTicks": 236,
          "midi": 62,
          "name": "D4",
          "ticks": 166080,
          "time": 138.4,
          "velocity": 0.8267716535433071
        },
        {
          "duration": 0.19666666666668675,
          "durationTicks": 236,
          "midi": 62,
          "name": "D4",
          "ticks": 166320,
          "time": 138.6,
          "velocity": 0.8267716535433071
        },
        {
          "duration": 0.19666666666665833,
          "durationTicks": 236,
          "midi": 62,
          "name": "D4",
          "ticks": 166560,
          "time": 138.8,
          "velocity": 0.8267716535433071
        },
        {
          "duration": 0.19666666666668675,
          "durationTicks": 236,
          "midi": 62,
          "name": "D4",
          "ticks": 166800,
          "time": 139,
          "velocity": 0.8267716535433071
        },
        {
          "duration": 0.19666666666665833,
          "durationTicks": 236,
          "midi": 62,
          "name": "D4",
          "ticks": 167040,
          "time": 139.20000000000002,
          "velocity": 0.8267716535433071
        },
        {
          "duration": 0.19666666666665833,
          "durationTicks": 236,
          "midi": 62,
          "name": "D4",
          "ticks": 167280,
          "time": 139.4,
          "velocity": 0.8267716535433071
        },
        {
          "duration": 0.19666666666668675,
          "durationTicks": 236,
          "midi": 62,
          "name": "D4",
          "ticks": 167520,
          "time": 139.6,
          "velocity": 0.8267716535433071
        },
        {
          "duration": 0.19666666666665833,
          "durationTicks": 236,
          "midi": 62,
          "name": "D4",
          "ticks": 167760,
          "time": 139.8,
          "velocity": 0.8267716535433071
        },
        {
          "duration": 0.19666666666668675,
          "durationTicks": 236,
          "midi": 62,
          "name": "D4",
          "ticks": 168000,
          "time": 140,
          "velocity": 0.8267716535433071
        },
        {
          "duration": 0.19666666666665833,
          "durationTicks": 236,
          "midi": 62,
          "name": "D4",
          "ticks": 168240,
          "time": 140.20000000000002,
          "velocity": 0.8267716535433071
        },
        {
          "duration": 0.19666666666665833,
          "durationTicks": 236,
          "midi": 62,
          "name": "D4",
          "ticks": 168480,
          "time": 140.4,
          "velocity": 0.8267716535433071
        },
        {
          "duration": 0.19666666666668675,
          "durationTicks": 236,
          "midi": 62,
          "name": "D4",
          "ticks": 168720,
          "time": 140.6,
          "velocity": 0.8267716535433071
        },
        {
          "duration": 0.19666666666665833,
          "durationTicks": 236,
          "midi": 55,
          "name": "G3",
          "ticks": 168960,
          "time": 140.8,
          "velocity": 0.8267716535433071
        },
        {
          "duration": 0.19666666666665833,
          "durationTicks": 236,
          "midi": 67,
          "name": "G4",
          "ticks": 168960,
          "time": 140.8,
          "velocity": 0.8267716535433071
        },
        {
          "duration": 0.19666666666668675,
          "durationTicks": 236,
          "midi": 55,
          "name": "G3",
          "ticks": 169200,
          "time": 141,
          "velocity": 0.8267716535433071
        },
        {
          "duration": 0.19666666666668675,
          "durationTicks": 236,
          "midi": 67,
          "name": "G4",
          "ticks": 169200,
          "time": 141,
          "velocity": 0.8267716535433071
        },
        {
          "duration": 0.19666666666665833,
          "durationTicks": 236,
          "midi": 55,
          "name": "G3",
          "ticks": 169440,
          "time": 141.20000000000002,
          "velocity": 0.8267716535433071
        },
        {
          "duration": 0.19666666666665833,
          "durationTicks": 236,
          "midi": 67,
          "name": "G4",
          "ticks": 169440,
          "time": 141.20000000000002,
          "velocity": 0.8267716535433071
        },
        {
          "duration": 0.19666666666665833,
          "durationTicks": 236,
          "midi": 55,
          "name": "G3",
          "ticks": 169680,
          "time": 141.4,
          "velocity": 0.8267716535433071
        },
        {
          "duration": 0.19666666666665833,
          "durationTicks": 236,
          "midi": 67,
          "name": "G4",
          "ticks": 169680,
          "time": 141.4,
          "velocity": 0.8267716535433071
        },
        {
          "duration": 0.19666666666668675,
          "durationTicks": 236,
          "midi": 55,
          "name": "G3",
          "ticks": 169920,
          "time": 141.6,
          "velocity": 0.8267716535433071
        },
        {
          "duration": 0.19666666666668675,
          "durationTicks": 236,
          "midi": 67,
          "name": "G4",
          "ticks": 169920,
          "time": 141.6,
          "velocity": 0.8267716535433071
        },
        {
          "duration": 0.19666666666665833,
          "durationTicks": 236,
          "midi": 55,
          "name": "G3",
          "ticks": 170160,
          "time": 141.8,
          "velocity": 0.8267716535433071
        },
        {
          "duration": 0.19666666666665833,
          "durationTicks": 236,
          "midi": 67,
          "name": "G4",
          "ticks": 170160,
          "time": 141.8,
          "velocity": 0.8267716535433071
        },
        {
          "duration": 0.19666666666668675,
          "durationTicks": 236,
          "midi": 55,
          "name": "G3",
          "ticks": 170400,
          "time": 142,
          "velocity": 0.8267716535433071
        },
        {
          "duration": 0.19666666666668675,
          "durationTicks": 236,
          "midi": 67,
          "name": "G4",
          "ticks": 170400,
          "time": 142,
          "velocity": 0.8267716535433071
        },
        {
          "duration": 0.19666666666665833,
          "durationTicks": 236,
          "midi": 55,
          "name": "G3",
          "ticks": 170640,
          "time": 142.20000000000002,
          "velocity": 0.8267716535433071
        },
        {
          "duration": 0.19666666666665833,
          "durationTicks": 236,
          "midi": 67,
          "name": "G4",
          "ticks": 170640,
          "time": 142.20000000000002,
          "velocity": 0.8267716535433071
        },
        {
          "duration": 0.19666666666665833,
          "durationTicks": 236,
          "midi": 55,
          "name": "G3",
          "ticks": 170880,
          "time": 142.4,
          "velocity": 0.8267716535433071
        },
        {
          "duration": 0.19666666666665833,
          "durationTicks": 236,
          "midi": 67,
          "name": "G4",
          "ticks": 170880,
          "time": 142.4,
          "velocity": 0.8267716535433071
        },
        {
          "duration": 0.19666666666668675,
          "durationTicks": 236,
          "midi": 55,
          "name": "G3",
          "ticks": 171120,
          "time": 142.6,
          "velocity": 0.8267716535433071
        },
        {
          "duration": 0.19666666666668675,
          "durationTicks": 236,
          "midi": 67,
          "name": "G4",
          "ticks": 171120,
          "time": 142.6,
          "velocity": 0.8267716535433071
        },
        {
          "duration": 0.19666666666665833,
          "durationTicks": 236,
          "midi": 55,
          "name": "G3",
          "ticks": 171360,
          "time": 142.8,
          "velocity": 0.8267716535433071
        },
        {
          "duration": 0.19666666666665833,
          "durationTicks": 236,
          "midi": 67,
          "name": "G4",
          "ticks": 171360,
          "time": 142.8,
          "velocity": 0.8267716535433071
        },
        {
          "duration": 0.19666666666668675,
          "durationTicks": 236,
          "midi": 55,
          "name": "G3",
          "ticks": 171600,
          "time": 143,
          "velocity": 0.8267716535433071
        },
        {
          "duration": 0.19666666666668675,
          "durationTicks": 236,
          "midi": 67,
          "name": "G4",
          "ticks": 171600,
          "time": 143,
          "velocity": 0.8267716535433071
        },
        {
          "duration": 0.19666666666665833,
          "durationTicks": 236,
          "midi": 55,
          "name": "G3",
          "ticks": 171840,
          "time": 143.20000000000002,
          "velocity": 0.8267716535433071
        },
        {
          "duration": 0.19666666666665833,
          "durationTicks": 236,
          "midi": 67,
          "name": "G4",
          "ticks": 171840,
          "time": 143.20000000000002,
          "velocity": 0.8267716535433071
        },
        {
          "duration": 0.19666666666665833,
          "durationTicks": 236,
          "midi": 55,
          "name": "G3",
          "ticks": 172080,
          "time": 143.4,
          "velocity": 0.8267716535433071
        },
        {
          "duration": 0.19666666666665833,
          "durationTicks": 236,
          "midi": 67,
          "name": "G4",
          "ticks": 172080,
          "time": 143.4,
          "velocity": 0.8267716535433071
        },
        {
          "duration": 0.19666666666668675,
          "durationTicks": 236,
          "midi": 55,
          "name": "G3",
          "ticks": 172320,
          "time": 143.6,
          "velocity": 0.8267716535433071
        },
        {
          "duration": 0.19666666666668675,
          "durationTicks": 236,
          "midi": 67,
          "name": "G4",
          "ticks": 172320,
          "time": 143.6,
          "velocity": 0.8267716535433071
        },
        {
          "duration": 0.19666666666665833,
          "durationTicks": 236,
          "midi": 55,
          "name": "G3",
          "ticks": 172560,
          "time": 143.8,
          "velocity": 0.8267716535433071
        },
        {
          "duration": 0.19666666666665833,
          "durationTicks": 236,
          "midi": 67,
          "name": "G4",
          "ticks": 172560,
          "time": 143.8,
          "velocity": 0.8267716535433071
        },
        {
          "duration": 0.19666666666668675,
          "durationTicks": 236,
          "midi": 55,
          "name": "G3",
          "ticks": 172800,
          "time": 144,
          "velocity": 0.8267716535433071
        },
        {
          "duration": 0.19666666666668675,
          "durationTicks": 236,
          "midi": 67,
          "name": "G4",
          "ticks": 172800,
          "time": 144,
          "velocity": 0.8267716535433071
        },
        {
          "duration": 0.19666666666665833,
          "durationTicks": 236,
          "midi": 55,
          "name": "G3",
          "ticks": 173040,
          "time": 144.20000000000002,
          "velocity": 0.8267716535433071
        },
        {
          "duration": 0.19666666666665833,
          "durationTicks": 236,
          "midi": 67,
          "name": "G4",
          "ticks": 173040,
          "time": 144.20000000000002,
          "velocity": 0.8267716535433071
        },
        {
          "duration": 0.19666666666665833,
          "durationTicks": 236,
          "midi": 55,
          "name": "G3",
          "ticks": 173280,
          "time": 144.4,
          "velocity": 0.8267716535433071
        },
        {
          "duration": 0.19666666666665833,
          "durationTicks": 236,
          "midi": 67,
          "name": "G4",
          "ticks": 173280,
          "time": 144.4,
          "velocity": 0.8267716535433071
        },
        {
          "duration": 0.19666666666668675,
          "durationTicks": 236,
          "midi": 55,
          "name": "G3",
          "ticks": 173520,
          "time": 144.6,
          "velocity": 0.8267716535433071
        },
        {
          "duration": 0.19666666666668675,
          "durationTicks": 236,
          "midi": 67,
          "name": "G4",
          "ticks": 173520,
          "time": 144.6,
          "velocity": 0.8267716535433071
        },
        {
          "duration": 0.19666666666665833,
          "durationTicks": 236,
          "midi": 55,
          "name": "G3",
          "ticks": 173760,
          "time": 144.8,
          "velocity": 0.8267716535433071
        },
        {
          "duration": 0.19666666666665833,
          "durationTicks": 236,
          "midi": 67,
          "name": "G4",
          "ticks": 173760,
          "time": 144.8,
          "velocity": 0.8267716535433071
        },
        {
          "duration": 0.19666666666668675,
          "durationTicks": 236,
          "midi": 55,
          "name": "G3",
          "ticks": 174000,
          "time": 145,
          "velocity": 0.8267716535433071
        },
        {
          "duration": 0.19666666666668675,
          "durationTicks": 236,
          "midi": 67,
          "name": "G4",
          "ticks": 174000,
          "time": 145,
          "velocity": 0.8267716535433071
        },
        {
          "duration": 0.19666666666665833,
          "durationTicks": 236,
          "midi": 55,
          "name": "G3",
          "ticks": 174240,
          "time": 145.20000000000002,
          "velocity": 0.8267716535433071
        },
        {
          "duration": 0.19666666666665833,
          "durationTicks": 236,
          "midi": 67,
          "name": "G4",
          "ticks": 174240,
          "time": 145.20000000000002,
          "velocity": 0.8267716535433071
        },
        {
          "duration": 0.19666666666665833,
          "durationTicks": 236,
          "midi": 55,
          "name": "G3",
          "ticks": 174480,
          "time": 145.4,
          "velocity": 0.8267716535433071
        },
        {
          "duration": 0.19666666666665833,
          "durationTicks": 236,
          "midi": 67,
          "name": "G4",
          "ticks": 174480,
          "time": 145.4,
          "velocity": 0.8267716535433071
        },
        {
          "duration": 0.19666666666668675,
          "durationTicks": 236,
          "midi": 55,
          "name": "G3",
          "ticks": 174720,
          "time": 145.6,
          "velocity": 0.6771653543307087
        },
        {
          "duration": 0.19666666666668675,
          "durationTicks": 236,
          "midi": 67,
          "name": "G4",
          "ticks": 174720,
          "time": 145.6,
          "velocity": 0.6771653543307087
        },
        {
          "duration": 0.19666666666665833,
          "durationTicks": 236,
          "midi": 55,
          "name": "G3",
          "ticks": 174960,
          "time": 145.8,
          "velocity": 0.6771653543307087
        },
        {
          "duration": 0.19666666666665833,
          "durationTicks": 236,
          "midi": 67,
          "name": "G4",
          "ticks": 174960,
          "time": 145.8,
          "velocity": 0.6771653543307087
        },
        {
          "duration": 0.19666666666668675,
          "durationTicks": 236,
          "midi": 55,
          "name": "G3",
          "ticks": 175200,
          "time": 146,
          "velocity": 0.6771653543307087
        },
        {
          "duration": 0.19666666666668675,
          "durationTicks": 236,
          "midi": 67,
          "name": "G4",
          "ticks": 175200,
          "time": 146,
          "velocity": 0.6771653543307087
        },
        {
          "duration": 0.19666666666665833,
          "durationTicks": 236,
          "midi": 55,
          "name": "G3",
          "ticks": 175440,
          "time": 146.20000000000002,
          "velocity": 0.6771653543307087
        },
        {
          "duration": 0.19666666666665833,
          "durationTicks": 236,
          "midi": 67,
          "name": "G4",
          "ticks": 175440,
          "time": 146.20000000000002,
          "velocity": 0.6771653543307087
        },
        {
          "duration": 0.19666666666665833,
          "durationTicks": 236,
          "midi": 55,
          "name": "G3",
          "ticks": 175680,
          "time": 146.4,
          "velocity": 0.6771653543307087
        },
        {
          "duration": 0.19666666666665833,
          "durationTicks": 236,
          "midi": 67,
          "name": "G4",
          "ticks": 175680,
          "time": 146.4,
          "velocity": 0.6771653543307087
        },
        {
          "duration": 0.19666666666668675,
          "durationTicks": 236,
          "midi": 55,
          "name": "G3",
          "ticks": 175920,
          "time": 146.6,
          "velocity": 0.6771653543307087
        },
        {
          "duration": 0.19666666666668675,
          "durationTicks": 236,
          "midi": 67,
          "name": "G4",
          "ticks": 175920,
          "time": 146.6,
          "velocity": 0.6771653543307087
        },
        {
          "duration": 0.19666666666665833,
          "durationTicks": 236,
          "midi": 55,
          "name": "G3",
          "ticks": 176160,
          "time": 146.8,
          "velocity": 0.6771653543307087
        },
        {
          "duration": 0.19666666666665833,
          "durationTicks": 236,
          "midi": 67,
          "name": "G4",
          "ticks": 176160,
          "time": 146.8,
          "velocity": 0.6771653543307087
        },
        {
          "duration": 0.19666666666668675,
          "durationTicks": 236,
          "midi": 55,
          "name": "G3",
          "ticks": 176400,
          "time": 147,
          "velocity": 0.6771653543307087
        },
        {
          "duration": 0.19666666666668675,
          "durationTicks": 236,
          "midi": 67,
          "name": "G4",
          "ticks": 176400,
          "time": 147,
          "velocity": 0.6771653543307087
        },
        {
          "duration": 0.19666666666665833,
          "durationTicks": 236,
          "midi": 60,
          "name": "C4",
          "ticks": 176640,
          "time": 147.20000000000002,
          "velocity": 0.6771653543307087
        },
        {
          "duration": 0.19666666666665833,
          "durationTicks": 236,
          "midi": 60,
          "name": "C4",
          "ticks": 176880,
          "time": 147.4,
          "velocity": 0.6771653543307087
        },
        {
          "duration": 0.19666666666668675,
          "durationTicks": 236,
          "midi": 60,
          "name": "C4",
          "ticks": 177120,
          "time": 147.6,
          "velocity": 0.6771653543307087
        },
        {
          "duration": 0.19666666666665833,
          "durationTicks": 236,
          "midi": 60,
          "name": "C4",
          "ticks": 177360,
          "time": 147.8,
          "velocity": 0.6771653543307087
        },
        {
          "duration": 0.19666666666668675,
          "durationTicks": 236,
          "midi": 62,
          "name": "D4",
          "ticks": 177600,
          "time": 148,
          "velocity": 0.6771653543307087
        },
        {
          "duration": 0.19666666666665833,
          "durationTicks": 236,
          "midi": 62,
          "name": "D4",
          "ticks": 177840,
          "time": 148.20000000000002,
          "velocity": 0.6771653543307087
        },
        {
          "duration": 0.19666666666665833,
          "durationTicks": 236,
          "midi": 62,
          "name": "D4",
          "ticks": 178080,
          "time": 148.4,
          "velocity": 0.6771653543307087
        },
        {
          "duration": 0.19666666666668675,
          "durationTicks": 236,
          "midi": 62,
          "name": "D4",
          "ticks": 178320,
          "time": 148.6,
          "velocity": 0.6771653543307087
        },
        {
          "duration": 0.5999999999999943,
          "durationTicks": 720,
          "midi": 55,
          "name": "G3",
          "ticks": 178560,
          "time": 148.8,
          "velocity": 0.6771653543307087
        },
        {
          "duration": 0.19666666666665833,
          "durationTicks": 236,
          "midi": 54,
          "name": "F#3",
          "ticks": 179280,
          "time": 149.4,
          "velocity": 0.6771653543307087
        },
        {
          "duration": 0.30000000000001137,
          "durationTicks": 360,
          "midi": 57,
          "name": "A3",
          "ticks": 179520,
          "time": 149.6,
          "velocity": 0.6771653543307087
        },
        {
          "duration": 0.09666666666666401,
          "durationTicks": 116,
          "midi": 55,
          "name": "G3",
          "ticks": 179880,
          "time": 149.9,
          "velocity": 0.6771653543307087
        },
        {
          "duration": 0.30000000000001137,
          "durationTicks": 360,
          "midi": 60,
          "name": "C4",
          "ticks": 180000,
          "time": 150,
          "velocity": 0.6771653543307087
        },
        {
          "duration": 0.09666666666666401,
          "durationTicks": 116,
          "midi": 59,
          "name": "B3",
          "ticks": 180360,
          "time": 150.3,
          "velocity": 0.6771653543307087
        },
        {
          "duration": 0.5999999999999943,
          "durationTicks": 720,
          "midi": 57,
          "name": "A3",
          "ticks": 180480,
          "time": 150.4,
          "velocity": 0.6771653543307087
        },
        {
          "duration": 0.19666666666668675,
          "durationTicks": 236,
          "midi": 56,
          "name": "G#3",
          "ticks": 181200,
          "time": 151,
          "velocity": 0.6771653543307087
        },
        {
          "duration": 0.29999999999998295,
          "durationTicks": 360,
          "midi": 59,
          "name": "B3",
          "ticks": 181440,
          "time": 151.20000000000002,
          "velocity": 0.6771653543307087
        },
        {
          "duration": 0.09666666666666401,
          "durationTicks": 116,
          "midi": 57,
          "name": "A3",
          "ticks": 181800,
          "time": 151.5,
          "velocity": 0.6771653543307087
        },
        {
          "duration": 0.30000000000001137,
          "durationTicks": 360,
          "midi": 62,
          "name": "D4",
          "ticks": 181920,
          "time": 151.6,
          "velocity": 0.6771653543307087
        },
        {
          "duration": 0.09666666666666401,
          "durationTicks": 116,
          "midi": 60,
          "name": "C4",
          "ticks": 182280,
          "time": 151.9,
          "velocity": 0.6771653543307087
        },
        {
          "duration": 0.5999999999999943,
          "durationTicks": 720,
          "midi": 59,
          "name": "B3",
          "ticks": 182400,
          "time": 152,
          "velocity": 0.6771653543307087
        },
        {
          "duration": 0.19666666666668675,
          "durationTicks": 236,
          "midi": 58,
          "name": "A#3",
          "ticks": 183120,
          "time": 152.6,
          "velocity": 0.6771653543307087
        },
        {
          "duration": 0.29999999999998295,
          "durationTicks": 360,
          "midi": 60,
          "name": "C4",
          "ticks": 183360,
          "time": 152.8,
          "velocity": 0.6771653543307087
        },
        {
          "duration": 0.09666666666669244,
          "durationTicks": 116,
          "midi": 59,
          "name": "B3",
          "ticks": 183720,
          "time": 153.1,
          "velocity": 0.6771653543307087
        },
        {
          "duration": 0.29999999999998295,
          "durationTicks": 360,
          "midi": 64,
          "name": "E4",
          "ticks": 183840,
          "time": 153.20000000000002,
          "velocity": 0.6771653543307087
        },
        {
          "duration": 0.09666666666666401,
          "durationTicks": 116,
          "midi": 62,
          "name": "D4",
          "ticks": 184200,
          "time": 153.5,
          "velocity": 0.6771653543307087
        },
        {
          "duration": 0.3333333333333144,
          "durationTicks": 400,
          "midi": 60,
          "name": "C4",
          "ticks": 184320,
          "time": 153.60000000000002,
          "velocity": 0.6771653543307087
        },
        {
          "duration": 0.3333333333333428,
          "durationTicks": 400,
          "midi": 59,
          "name": "B3",
          "ticks": 184800,
          "time": 154,
          "velocity": 0.6771653543307087
        },
        {
          "duration": 0.3333333333333428,
          "durationTicks": 400,
          "midi": 60,
          "name": "C4",
          "ticks": 185280,
          "time": 154.4,
          "velocity": 0.6771653543307087
        },
        {
          "duration": 0.4000000000000057,
          "durationTicks": 480,
          "midi": 64,
          "name": "E4",
          "ticks": 185760,
          "time": 154.8,
          "velocity": 0.6771653543307087
        },
        {
          "duration": 0.19666666666665833,
          "durationTicks": 236,
          "midi": 64,
          "name": "E4",
          "ticks": 186240,
          "time": 155.20000000000002,
          "velocity": 0.6771653543307087
        },
        {
          "duration": 0.19666666666668675,
          "durationTicks": 236,
          "midi": 57,
          "name": "A3",
          "ticks": 186480,
          "time": 155.4,
          "velocity": 0.6771653543307087
        },
        {
          "duration": 0.19666666666665833,
          "durationTicks": 236,
          "midi": 58,
          "name": "A#3",
          "ticks": 186720,
          "time": 155.60000000000002,
          "velocity": 0.6771653543307087
        },
        {
          "duration": 0.19666666666665833,
          "durationTicks": 236,
          "midi": 58,
          "name": "A#3",
          "ticks": 186960,
          "time": 155.8,
          "velocity": 0.6771653543307087
        },
        {
          "duration": 0.19666666666668675,
          "durationTicks": 236,
          "midi": 57,
          "name": "A3",
          "ticks": 187200,
          "time": 156,
          "velocity": 0.6771653543307087
        },
        {
          "duration": 0.19666666666665833,
          "durationTicks": 236,
          "midi": 57,
          "name": "A3",
          "ticks": 187440,
          "time": 156.20000000000002,
          "velocity": 0.6771653543307087
        },
        {
          "duration": 0.19666666666668675,
          "durationTicks": 236,
          "midi": 58,
          "name": "A#3",
          "ticks": 187680,
          "time": 156.4,
          "velocity": 0.6771653543307087
        },
        {
          "duration": 0.19666666666665833,
          "durationTicks": 236,
          "midi": 58,
          "name": "A#3",
          "ticks": 187920,
          "time": 156.60000000000002,
          "velocity": 0.6771653543307087
        },
        {
          "duration": 0.3333333333333144,
          "durationTicks": 400,
          "midi": 57,
          "name": "A3",
          "ticks": 188160,
          "time": 156.8,
          "velocity": 0.6771653543307087
        },
        {
          "duration": 0.20000000000001705,
          "durationTicks": 240,
          "midi": 71,
          "name": "B4",
          "ticks": 211680,
          "time": 176.4,
          "velocity": 0.8267716535433071
        },
        {
          "duration": 0.19999999999998863,
          "durationTicks": 240,
          "midi": 70,
          "name": "A#4",
          "ticks": 211920,
          "time": 176.60000000000002,
          "velocity": 0.8267716535433071
        },
        {
          "duration": 0.19999999999998863,
          "durationTicks": 240,
          "midi": 71,
          "name": "B4",
          "ticks": 212160,
          "time": 176.8,
          "velocity": 0.8267716535433071
        },
        {
          "duration": 0.20000000000001705,
          "durationTicks": 240,
          "midi": 70,
          "name": "A#4",
          "ticks": 212400,
          "time": 177,
          "velocity": 0.8267716535433071
        },
        {
          "duration": 0.19999999999998863,
          "durationTicks": 240,
          "midi": 71,
          "name": "B4",
          "ticks": 212640,
          "time": 177.20000000000002,
          "velocity": 0.8267716535433071
        },
        {
          "duration": 0.19666666666668675,
          "durationTicks": 236,
          "midi": 68,
          "name": "G#4",
          "ticks": 212880,
          "time": 177.4,
          "velocity": 0.8267716535433071
        },
        {
          "duration": 0.19666666666665833,
          "durationTicks": 236,
          "midi": 69,
          "name": "A4",
          "ticks": 213120,
          "time": 177.60000000000002,
          "velocity": 0.8267716535433071
        },
        {
          "duration": 0.20000000000001705,
          "durationTicks": 240,
          "midi": 69,
          "name": "A4",
          "ticks": 213600,
          "time": 178,
          "velocity": 0.8267716535433071
        },
        {
          "duration": 0.19999999999998863,
          "durationTicks": 240,
          "midi": 68,
          "name": "G#4",
          "ticks": 213840,
          "time": 178.20000000000002,
          "velocity": 0.8267716535433071
        },
        {
          "duration": 0.20000000000001705,
          "durationTicks": 240,
          "midi": 69,
          "name": "A4",
          "ticks": 214080,
          "time": 178.4,
          "velocity": 0.8267716535433071
        },
        {
          "duration": 0.19999999999998863,
          "durationTicks": 240,
          "midi": 68,
          "name": "G#4",
          "ticks": 214320,
          "time": 178.60000000000002,
          "velocity": 0.8267716535433071
        },
        {
          "duration": 0.19999999999998863,
          "durationTicks": 240,
          "midi": 69,
          "name": "A4",
          "ticks": 214560,
          "time": 178.8,
          "velocity": 0.8267716535433071
        },
        {
          "duration": 0.19666666666668675,
          "durationTicks": 236,
          "midi": 66,
          "name": "F#4",
          "ticks": 214800,
          "time": 179,
          "velocity": 0.8267716535433071
        },
        {
          "duration": 0.19666666666665833,
          "durationTicks": 236,
          "midi": 67,
          "name": "G4",
          "ticks": 215040,
          "time": 179.20000000000002,
          "velocity": 0.8267716535433071
        },
        {
          "duration": 0.19666666666665833,
          "durationTicks": 236,
          "midi": 64,
          "name": "E4",
          "ticks": 215520,
          "time": 179.60000000000002,
          "velocity": 0.8267716535433071
        },
        {
          "duration": 0.19666666666665833,
          "durationTicks": 236,
          "midi": 64,
          "name": "E4",
          "ticks": 215760,
          "time": 179.8,
          "velocity": 0.8267716535433071
        },
        {
          "duration": 0.19666666666668675,
          "durationTicks": 236,
          "midi": 60,
          "name": "C4",
          "ticks": 216000,
          "time": 180,
          "velocity": 0.8267716535433071
        },
        {
          "duration": 0.19666666666665833,
          "durationTicks": 236,
          "midi": 60,
          "name": "C4",
          "ticks": 216240,
          "time": 180.20000000000002,
          "velocity": 0.8267716535433071
        },
        {
          "duration": 0.19666666666668675,
          "durationTicks": 236,
          "midi": 62,
          "name": "D4",
          "ticks": 216480,
          "time": 180.4,
          "velocity": 0.8267716535433071
        },
        {
          "duration": 0.19666666666665833,
          "durationTicks": 236,
          "midi": 62,
          "name": "D4",
          "ticks": 216720,
          "time": 180.60000000000002,
          "velocity": 0.8267716535433071
        },
        {
          "duration": 0.19666666666665833,
          "durationTicks": 236,
          "midi": 67,
          "name": "G4",
          "ticks": 216960,
          "time": 180.8,
          "velocity": 0.8267716535433071
        },
        {
          "duration": 0.19999999999998863,
          "durationTicks": 240,
          "midi": 71,
          "name": "B4",
          "ticks": 217440,
          "time": 181.20000000000002,
          "velocity": 0.8267716535433071
        },
        {
          "duration": 0.20000000000001705,
          "durationTicks": 240,
          "midi": 70,
          "name": "A#4",
          "ticks": 217680,
          "time": 181.4,
          "velocity": 0.8267716535433071
        },
        {
          "duration": 0.19999999999998863,
          "durationTicks": 240,
          "midi": 71,
          "name": "B4",
          "ticks": 217920,
          "time": 181.60000000000002,
          "velocity": 0.8267716535433071
        },
        {
          "duration": 0.19999999999998863,
          "durationTicks": 240,
          "midi": 70,
          "name": "A#4",
          "ticks": 218160,
          "time": 181.8,
          "velocity": 0.8267716535433071
        },
        {
          "duration": 0.20000000000001705,
          "durationTicks": 240,
          "midi": 71,
          "name": "B4",
          "ticks": 218400,
          "time": 182,
          "velocity": 0.8267716535433071
        },
        {
          "duration": 0.19666666666665833,
          "durationTicks": 236,
          "midi": 68,
          "name": "G#4",
          "ticks": 218640,
          "time": 182.20000000000002,
          "velocity": 0.8267716535433071
        },
        {
          "duration": 0.19666666666668675,
          "durationTicks": 236,
          "midi": 69,
          "name": "A4",
          "ticks": 218880,
          "time": 182.4,
          "velocity": 0.8267716535433071
        },
        {
          "duration": 0.19999999999998863,
          "durationTicks": 240,
          "midi": 69,
          "name": "A4",
          "ticks": 219360,
          "time": 182.8,
          "velocity": 0.8267716535433071
        },
        {
          "duration": 0.20000000000001705,
          "durationTicks": 240,
          "midi": 68,
          "name": "G#4",
          "ticks": 219600,
          "time": 183,
          "velocity": 0.8267716535433071
        },
        {
          "duration": 0.19999999999998863,
          "durationTicks": 240,
          "midi": 69,
          "name": "A4",
          "ticks": 219840,
          "time": 183.20000000000002,
          "velocity": 0.8267716535433071
        },
        {
          "duration": 0.20000000000001705,
          "durationTicks": 240,
          "midi": 68,
          "name": "G#4",
          "ticks": 220080,
          "time": 183.4,
          "velocity": 0.8267716535433071
        },
        {
          "duration": 0.19999999999998863,
          "durationTicks": 240,
          "midi": 69,
          "name": "A4",
          "ticks": 220320,
          "time": 183.60000000000002,
          "velocity": 0.8267716535433071
        },
        {
          "duration": 0.19666666666665833,
          "durationTicks": 236,
          "midi": 66,
          "name": "F#4",
          "ticks": 220560,
          "time": 183.8,
          "velocity": 0.8267716535433071
        },
        {
          "duration": 0.19666666666668675,
          "durationTicks": 236,
          "midi": 67,
          "name": "G4",
          "ticks": 220800,
          "time": 184,
          "velocity": 0.8267716535433071
        },
        {
          "duration": 0.19666666666668675,
          "durationTicks": 236,
          "midi": 64,
          "name": "E4",
          "ticks": 221280,
          "time": 184.4,
          "velocity": 0.8267716535433071
        },
        {
          "duration": 0.19666666666665833,
          "durationTicks": 236,
          "midi": 64,
          "name": "E4",
          "ticks": 221520,
          "time": 184.60000000000002,
          "velocity": 0.8267716535433071
        },
        {
          "duration": 0.19666666666665833,
          "durationTicks": 236,
          "midi": 60,
          "name": "C4",
          "ticks": 221760,
          "time": 184.8,
          "velocity": 0.8267716535433071
        },
        {
          "duration": 0.19666666666668675,
          "durationTicks": 236,
          "midi": 60,
          "name": "C4",
          "ticks": 222000,
          "time": 185,
          "velocity": 0.8267716535433071
        },
        {
          "duration": 0.19666666666665833,
          "durationTicks": 236,
          "midi": 62,
          "name": "D4",
          "ticks": 222240,
          "time": 185.20000000000002,
          "velocity": 0.8267716535433071
        },
        {
          "duration": 0.19666666666668675,
          "durationTicks": 236,
          "midi": 62,
          "name": "D4",
          "ticks": 222480,
          "time": 185.4,
          "velocity": 0.8267716535433071
        },
        {
          "duration": 0.3333333333333144,
          "durationTicks": 400,
          "midi": 67,
          "name": "G4",
          "ticks": 222720,
          "time": 185.60000000000002,
          "velocity": 0.8267716535433071
        },
        {
          "duration": 0.3333333333333428,
          "durationTicks": 400,
          "midi": 67,
          "name": "G4",
          "ticks": 223200,
          "time": 186,
          "velocity": 0.8267716535433071
        },
        {
          "duration": 0.3333333333333144,
          "durationTicks": 400,
          "midi": 62,
          "name": "D4",
          "ticks": 224160,
          "time": 186.8,
          "velocity": 0.8267716535433071
        },
        {
          "duration": 0.3333333333333144,
          "durationTicks": 400,
          "midi": 67,
          "name": "G4",
          "ticks": 225120,
          "time": 187.60000000000002,
          "velocity": 0.8267716535433071
        },
        {
          "duration": 0.3333333333333428,
          "durationTicks": 400,
          "midi": 62,
          "name": "D4",
          "ticks": 226080,
          "time": 188.4,
          "velocity": 0.8267716535433071
        },
        {
          "duration": 0.3333333333333144,
          "durationTicks": 400,
          "midi": 67,
          "name": "G4",
          "ticks": 227040,
          "time": 189.20000000000002,
          "velocity": 0.8267716535433071
        },
        {
          "duration": 0.3333333333333428,
          "durationTicks": 400,
          "midi": 62,
          "name": "D4",
          "ticks": 228000,
          "time": 190,
          "velocity": 0.8267716535433071
        },
        {
          "duration": 0.3333333333333428,
          "durationTicks": 400,
          "midi": 67,
          "name": "G4",
          "ticks": 228480,
          "time": 190.4,
          "velocity": 0.8267716535433071
        },
        {
          "duration": 0.3333333333333144,
          "durationTicks": 400,
          "midi": 67,
          "name": "G4",
          "ticks": 228960,
          "time": 190.8,
          "velocity": 0.8267716535433071
        },
        {
          "duration": 0.3333333333333144,
          "durationTicks": 400,
          "midi": 55,
          "name": "G3",
          "ticks": 229440,
          "time": 191.20000000000002,
          "velocity": 0.8267716535433071
        },
        {
          "duration": 0.3333333333333428,
          "durationTicks": 400,
          "midi": 60,
          "name": "C4",
          "ticks": 230400,
          "time": 192,
          "velocity": 0.8267716535433071
        },
        {
          "duration": 0.06666666666666288,
          "durationTicks": 80,
          "midi": 55,
          "name": "G3",
          "ticks": 231120,
          "time": 192.60000000000002,
          "velocity": 0.8267716535433071
        },
        {
          "duration": 0.06666666666666288,
          "durationTicks": 80,
          "midi": 57,
          "name": "A3",
          "ticks": 231200,
          "time": 192.66666666666669,
          "velocity": 0.8267716535433071
        },
        {
          "duration": 0.06666666666666288,
          "durationTicks": 80,
          "midi": 59,
          "name": "B3",
          "ticks": 231280,
          "time": 192.73333333333335,
          "velocity": 0.8267716535433071
        },
        {
          "duration": 0.3333333333333144,
          "durationTicks": 400,
          "midi": 60,
          "name": "C4",
          "ticks": 231360,
          "time": 192.8,
          "velocity": 0.8267716535433071
        },
        {
          "duration": 0.0666666666666913,
          "durationTicks": 80,
          "midi": 55,
          "name": "G3",
          "ticks": 232080,
          "time": 193.4,
          "velocity": 0.8267716535433071
        },
        {
          "duration": 0.06666666666663446,
          "durationTicks": 80,
          "midi": 57,
          "name": "A3",
          "ticks": 232160,
          "time": 193.4666666666667,
          "velocity": 0.8267716535433071
        },
        {
          "duration": 0.0666666666666913,
          "durationTicks": 80,
          "midi": 59,
          "name": "B3",
          "ticks": 232240,
          "time": 193.53333333333333,
          "velocity": 0.8267716535433071
        },
        {
          "duration": 0.3333333333333144,
          "durationTicks": 400,
          "midi": 60,
          "name": "C4",
          "ticks": 232320,
          "time": 193.60000000000002,
          "velocity": 0.8267716535433071
        },
        {
          "duration": 2.6999999999999886,
          "durationTicks": 3240,
          "midi": 67,
          "name": "G4",
          "ticks": 234240,
          "time": 195.20000000000002,
          "velocity": 0.4015748031496063
        },
        {
          "duration": 0.3333333333333428,
          "durationTicks": 400,
          "midi": 67,
          "name": "G4",
          "ticks": 238080,
          "time": 198.4,
          "velocity": 0.8267716535433071
        },
        {
          "duration": 0.0666666666666913,
          "durationTicks": 80,
          "midi": 62,
          "name": "D4",
          "ticks": 238800,
          "time": 199,
          "velocity": 0.8267716535433071
        },
        {
          "duration": 0.06666666666663446,
          "durationTicks": 80,
          "midi": 64,
          "name": "E4",
          "ticks": 238880,
          "time": 199.0666666666667,
          "velocity": 0.8267716535433071
        },
        {
          "duration": 0.0666666666666913,
          "durationTicks": 80,
          "midi": 66,
          "name": "F#4",
          "ticks": 238960,
          "time": 199.13333333333333,
          "velocity": 0.8267716535433071
        },
        {
          "duration": 0.3333333333333144,
          "durationTicks": 400,
          "midi": 67,
          "name": "G4",
          "ticks": 239040,
          "time": 199.20000000000002,
          "velocity": 0.8267716535433071
        },
        {
          "duration": 0.06666666666666288,
          "durationTicks": 80,
          "midi": 62,
          "name": "D4",
          "ticks": 239760,
          "time": 199.8,
          "velocity": 0.8267716535433071
        },
        {
          "duration": 0.06666666666666288,
          "durationTicks": 80,
          "midi": 64,
          "name": "E4",
          "ticks": 239840,
          "time": 199.86666666666667,
          "velocity": 0.8267716535433071
        },
        {
          "duration": 0.06666666666666288,
          "durationTicks": 80,
          "midi": 66,
          "name": "F#4",
          "ticks": 239920,
          "time": 199.93333333333334,
          "velocity": 0.8267716535433071
        },
        {
          "duration": 0.3333333333333428,
          "durationTicks": 400,
          "midi": 67,
          "name": "G4",
          "ticks": 240000,
          "time": 200,
          "velocity": 0.8267716535433071
        },
        {
          "duration": 1.5,
          "durationTicks": 1800,
          "midi": 67,
          "name": "G4",
          "ticks": 241920,
          "time": 201.60000000000002,
          "velocity": 0.4015748031496063
        },
        {
          "duration": 1.0999999999999943,
          "durationTicks": 1320,
          "midi": 72,
          "name": "C5",
          "ticks": 243840,
          "time": 203.20000000000002,
          "velocity": 0.4015748031496063
        },
        {
          "duration": 0.05000000000001137,
          "durationTicks": 60,
          "midi": 55,
          "name": "G3",
          "ticks": 246480,
          "time": 205.4,
          "velocity": 0.8267716535433071
        },
        {
          "duration": 0.04999999999998295,
          "durationTicks": 60,
          "midi": 53,
          "name": "F3",
          "ticks": 246540,
          "time": 205.45000000000002,
          "velocity": 0.8267716535433071
        },
        {
          "duration": 0.05000000000001137,
          "durationTicks": 60,
          "midi": 52,
          "name": "E3",
          "ticks": 246600,
          "time": 205.5,
          "velocity": 0.8267716535433071
        },
        {
          "duration": 0.05000000000001137,
          "durationTicks": 60,
          "midi": 50,
          "name": "D3",
          "ticks": 246660,
          "time": 205.55,
          "velocity": 0.8267716535433071
        },
        {
          "duration": 0.3333333333333428,
          "durationTicks": 400,
          "midi": 48,
          "name": "C3",
          "ticks": 246720,
          "time": 205.60000000000002,
          "velocity": 0.8267716535433071
        },
        {
          "duration": 0.05000000000001137,
          "durationTicks": 60,
          "midi": 60,
          "name": "C4",
          "ticks": 248400,
          "time": 207,
          "velocity": 0.8267716535433071
        },
        {
          "duration": 0.05000000000001137,
          "durationTicks": 60,
          "midi": 58,
          "name": "A#3",
          "ticks": 248460,
          "time": 207.05,
          "velocity": 0.8267716535433071
        },
        {
          "duration": 0.04999999999998295,
          "durationTicks": 60,
          "midi": 57,
          "name": "A3",
          "ticks": 248520,
          "time": 207.10000000000002,
          "velocity": 0.8267716535433071
        },
        {
          "duration": 0.05000000000001137,
          "durationTicks": 60,
          "midi": 55,
          "name": "G3",
          "ticks": 248580,
          "time": 207.15,
          "velocity": 0.8267716535433071
        },
        {
          "duration": 0.3333333333333428,
          "durationTicks": 400,
          "midi": 53,
          "name": "F3",
          "ticks": 248640,
          "time": 207.20000000000002,
          "velocity": 0.8267716535433071
        },
        {
          "duration": 0.04999999999998295,
          "durationTicks": 60,
          "midi": 62,
          "name": "D4",
          "ticks": 250320,
          "time": 208.60000000000002,
          "velocity": 0.8267716535433071
        },
        {
          "duration": 0.05000000000001137,
          "durationTicks": 60,
          "midi": 60,
          "name": "C4",
          "ticks": 250380,
          "time": 208.65,
          "velocity": 0.8267716535433071
        },
        {
          "duration": 0.04999999999998295,
          "durationTicks": 60,
          "midi": 59,
          "name": "B3",
          "ticks": 250440,
          "time": 208.70000000000002,
          "velocity": 0.8267716535433071
        },
        {
          "duration": 0.05000000000001137,
          "durationTicks": 60,
          "midi": 57,
          "name": "A3",
          "ticks": 250500,
          "time": 208.75,
          "velocity": 0.8267716535433071
        },
        {
          "duration": 0.3333333333333428,
          "durationTicks": 400,
          "midi": 55,
          "name": "G3",
          "ticks": 250560,
          "time": 208.8,
          "velocity": 0.8267716535433071
        },
        {
          "duration": 0.04999999999998295,
          "durationTicks": 60,
          "midi": 67,
          "name": "G4",
          "ticks": 252240,
          "time": 210.20000000000002,
          "velocity": 0.8267716535433071
        },
        {
          "duration": 0.05000000000001137,
          "durationTicks": 60,
          "midi": 65,
          "name": "F4",
          "ticks": 252300,
          "time": 210.25,
          "velocity": 0.8267716535433071
        },
        {
          "duration": 0.05000000000001137,
          "durationTicks": 60,
          "midi": 64,
          "name": "E4",
          "ticks": 252360,
          "time": 210.3,
          "velocity": 0.8267716535433071
        },
        {
          "duration": 0.04999999999998295,
          "durationTicks": 60,
          "midi": 62,
          "name": "D4",
          "ticks": 252420,
          "time": 210.35000000000002,
          "velocity": 0.8267716535433071
        },
        {
          "duration": 0.3333333333333428,
          "durationTicks": 400,
          "midi": 60,
          "name": "C4",
          "ticks": 252480,
          "time": 210.4,
          "velocity": 0.8267716535433071
        },
        {
          "duration": 0.05000000000001137,
          "durationTicks": 60,
          "midi": 60,
          "name": "C4",
          "ticks": 254160,
          "time": 211.8,
          "velocity": 0.8267716535433071
        },
        {
          "duration": 0.04999999999998295,
          "durationTicks": 60,
          "midi": 58,
          "name": "A#3",
          "ticks": 254220,
          "time": 211.85000000000002,
          "velocity": 0.8267716535433071
        },
        {
          "duration": 0.05000000000001137,
          "durationTicks": 60,
          "midi": 57,
          "name": "A3",
          "ticks": 254280,
          "time": 211.9,
          "velocity": 0.8267716535433071
        },
        {
          "duration": 0.04999999999998295,
          "durationTicks": 60,
          "midi": 55,
          "name": "G3",
          "ticks": 254340,
          "time": 211.95000000000002,
          "velocity": 0.8267716535433071
        },
        {
          "duration": 0.33333333333337123,
          "durationTicks": 400,
          "midi": 53,
          "name": "F3",
          "ticks": 254400,
          "time": 212,
          "velocity": 0.8267716535433071
        },
        {
          "duration": 0.05000000000001137,
          "durationTicks": 60,
          "midi": 62,
          "name": "D4",
          "ticks": 256080,
          "time": 213.4,
          "velocity": 0.8267716535433071
        },
        {
          "duration": 0.04999999999998295,
          "durationTicks": 60,
          "midi": 60,
          "name": "C4",
          "ticks": 256140,
          "time": 213.45000000000002,
          "velocity": 0.8267716535433071
        },
        {
          "duration": 0.05000000000001137,
          "durationTicks": 60,
          "midi": 59,
          "name": "B3",
          "ticks": 256200,
          "time": 213.5,
          "velocity": 0.8267716535433071
        },
        {
          "duration": 0.05000000000001137,
          "durationTicks": 60,
          "midi": 57,
          "name": "A3",
          "ticks": 256260,
          "time": 213.55,
          "velocity": 0.8267716535433071
        },
        {
          "duration": 0.3333333333333428,
          "durationTicks": 400,
          "midi": 55,
          "name": "G3",
          "ticks": 256320,
          "time": 213.60000000000002,
          "velocity": 0.8267716535433071
        },
        {
          "duration": 0.3333333333333428,
          "durationTicks": 400,
          "midi": 60,
          "name": "C4",
          "ticks": 257280,
          "time": 214.4,
          "velocity": 0.8267716535433071
        },
        {
          "duration": 0.05000000000001137,
          "durationTicks": 60,
          "midi": 65,
          "name": "F4",
          "ticks": 258000,
          "time": 215,
          "velocity": 0.8267716535433071
        },
        {
          "duration": 0.05000000000001137,
          "durationTicks": 60,
          "midi": 64,
          "name": "E4",
          "ticks": 258060,
          "time": 215.05,
          "velocity": 0.8267716535433071
        },
        {
          "duration": 0.04999999999998295,
          "durationTicks": 60,
          "midi": 62,
          "name": "D4",
          "ticks": 258120,
          "time": 215.10000000000002,
          "velocity": 0.8267716535433071
        },
        {
          "duration": 0.05000000000001137,
          "durationTicks": 60,
          "midi": 60,
          "name": "C4",
          "ticks": 258180,
          "time": 215.15,
          "velocity": 0.8267716535433071
        },
        {
          "duration": 0.3333333333333428,
          "durationTicks": 400,
          "midi": 59,
          "name": "B3",
          "ticks": 258240,
          "time": 215.20000000000002,
          "velocity": 0.8267716535433071
        },
        {
          "duration": 0.05000000000001137,
          "durationTicks": 60,
          "midi": 67,
          "name": "G4",
          "ticks": 258960,
          "time": 215.8,
          "velocity": 0.8267716535433071
        },
        {
          "duration": 0.04999999999998295,
          "durationTicks": 60,
          "midi": 65,
          "name": "F4",
          "ticks": 259020,
          "time": 215.85000000000002,
          "velocity": 0.8267716535433071
        },
        {
          "duration": 0.05000000000001137,
          "durationTicks": 60,
          "midi": 64,
          "name": "E4",
          "ticks": 259080,
          "time": 215.9,
          "velocity": 0.8267716535433071
        },
        {
          "duration": 0.04999999999998295,
          "durationTicks": 60,
          "midi": 62,
          "name": "D4",
          "ticks": 259140,
          "time": 215.95000000000002,
          "velocity": 0.8267716535433071
        },
        {
          "duration": 0.33333333333337123,
          "durationTicks": 400,
          "midi": 64,
          "name": "E4",
          "ticks": 259200,
          "time": 216,
          "velocity": 0.8267716535433071
        },
        {
          "duration": 0.046666666666652645,
          "durationTicks": 56,
          "midi": 65,
          "name": "F4",
          "ticks": 259920,
          "time": 216.60000000000002,
          "velocity": 0.8267716535433071
        },
        {
          "duration": 0.04666666666668107,
          "durationTicks": 56,
          "midi": 64,
          "name": "E4",
          "ticks": 259980,
          "time": 216.65,
          "velocity": 0.8267716535433071
        },
        {
          "duration": 0.046666666666652645,
          "durationTicks": 56,
          "midi": 62,
          "name": "D4",
          "ticks": 260040,
          "time": 216.70000000000002,
          "velocity": 0.8267716535433071
        },
        {
          "duration": 0.04666666666668107,
          "durationTicks": 56,
          "midi": 60,
          "name": "C4",
          "ticks": 260100,
          "time": 216.75,
          "velocity": 0.8267716535433071
        },
        {
          "duration": 0.3333333333333428,
          "durationTicks": 400,
          "midi": 59,
          "name": "B3",
          "ticks": 260160,
          "time": 216.8,
          "velocity": 0.8267716535433071
        },
        {
          "duration": 0.05000000000001137,
          "durationTicks": 60,
          "midi": 67,
          "name": "G4",
          "ticks": 260880,
          "time": 217.4,
          "velocity": 0.8267716535433071
        },
        {
          "duration": 0.04999999999998295,
          "durationTicks": 60,
          "midi": 65,
          "name": "F4",
          "ticks": 260940,
          "time": 217.45000000000002,
          "velocity": 0.8267716535433071
        },
        {
          "duration": 0.05000000000001137,
          "durationTicks": 60,
          "midi": 64,
          "name": "E4",
          "ticks": 261000,
          "time": 217.5,
          "velocity": 0.8267716535433071
        },
        {
          "duration": 0.05000000000001137,
          "durationTicks": 60,
          "midi": 62,
          "name": "D4",
          "ticks": 261060,
          "time": 217.55,
          "velocity": 0.8267716535433071
        },
        {
          "duration": 0.3333333333333428,
          "durationTicks": 400,
          "midi": 64,
          "name": "E4",
          "ticks": 261120,
          "time": 217.60000000000002,
          "velocity": 0.8267716535433071
        },
        {
          "duration": 0.19666666666668675,
          "durationTicks": 236,
          "midi": 67,
          "name": "G4",
          "ticks": 261600,
          "time": 218,
          "velocity": 0.8267716535433071
        },
        {
          "duration": 0.19666666666665833,
          "durationTicks": 236,
          "midi": 67,
          "name": "G4",
          "ticks": 261840,
          "time": 218.20000000000002,
          "velocity": 0.8267716535433071
        },
        {
          "duration": 0.19666666666668675,
          "durationTicks": 236,
          "midi": 72,
          "name": "C5",
          "ticks": 262080,
          "time": 218.4,
          "velocity": 0.8267716535433071
        },
        {
          "duration": 0.19666666666665833,
          "durationTicks": 236,
          "midi": 72,
          "name": "C5",
          "ticks": 262320,
          "time": 218.60000000000002,
          "velocity": 0.8267716535433071
        },
        {
          "duration": 0.19666666666665833,
          "durationTicks": 236,
          "midi": 67,
          "name": "G4",
          "ticks": 262560,
          "time": 218.8,
          "velocity": 0.8267716535433071
        },
        {
          "duration": 0.19666666666668675,
          "durationTicks": 236,
          "midi": 67,
          "name": "G4",
          "ticks": 262800,
          "time": 219,
          "velocity": 0.8267716535433071
        },
        {
          "duration": 0.19666666666665833,
          "durationTicks": 236,
          "midi": 72,
          "name": "C5",
          "ticks": 263040,
          "time": 219.20000000000002,
          "velocity": 0.8267716535433071
        },
        {
          "duration": 0.19666666666668675,
          "durationTicks": 236,
          "midi": 72,
          "name": "C5",
          "ticks": 263280,
          "time": 219.4,
          "velocity": 0.8267716535433071
        },
        {
          "duration": 0.19666666666665833,
          "durationTicks": 236,
          "midi": 67,
          "name": "G4",
          "ticks": 263520,
          "time": 219.60000000000002,
          "velocity": 0.8267716535433071
        },
        {
          "duration": 0.19666666666665833,
          "durationTicks": 236,
          "midi": 67,
          "name": "G4",
          "ticks": 263760,
          "time": 219.8,
          "velocity": 0.8267716535433071
        },
        {
          "duration": 0.19666666666668675,
          "durationTicks": 236,
          "midi": 64,
          "name": "E4",
          "ticks": 264000,
          "time": 220,
          "velocity": 0.8267716535433071
        },
        {
          "duration": 0.19666666666665833,
          "durationTicks": 236,
          "midi": 64,
          "name": "E4",
          "ticks": 264240,
          "time": 220.20000000000002,
          "velocity": 0.8267716535433071
        },
        {
          "duration": 0.19666666666668675,
          "durationTicks": 236,
          "midi": 60,
          "name": "C4",
          "ticks": 264480,
          "time": 220.4,
          "velocity": 0.8267716535433071
        },
        {
          "duration": 0.19666666666665833,
          "durationTicks": 236,
          "midi": 60,
          "name": "C4",
          "ticks": 264720,
          "time": 220.60000000000002,
          "velocity": 0.8267716535433071
        },
        {
          "duration": 0.3333333333333428,
          "durationTicks": 400,
          "midi": 55,
          "name": "G3",
          "ticks": 264960,
          "time": 220.8,
          "velocity": 0.8267716535433071
        },
        {
          "duration": 0.19666666666668675,
          "durationTicks": 236,
          "midi": 67,
          "name": "G4",
          "ticks": 265680,
          "time": 221.4,
          "velocity": 0.8267716535433071
        },
        {
          "duration": 0.3333333333333428,
          "durationTicks": 400,
          "midi": 72,
          "name": "C5",
          "ticks": 265920,
          "time": 221.60000000000002,
          "velocity": 0.8267716535433071
        },
        {
          "duration": 0.19666666666665833,
          "durationTicks": 236,
          "midi": 72,
          "name": "C5",
          "ticks": 266640,
          "time": 222.20000000000002,
          "velocity": 0.8267716535433071
        },
        {
          "duration": 0.3333333333333428,
          "durationTicks": 400,
          "midi": 67,
          "name": "G4",
          "ticks": 266880,
          "time": 222.4,
          "velocity": 0.8267716535433071
        },
        {
          "duration": 0.19666666666668675,
          "durationTicks": 236,
          "midi": 67,
          "name": "G4",
          "ticks": 267600,
          "time": 223,
          "velocity": 0.8267716535433071
        },
        {
          "duration": 0.3333333333333428,
          "durationTicks": 400,
          "midi": 72,
          "name": "C5",
          "ticks": 267840,
          "time": 223.20000000000002,
          "velocity": 0.8267716535433071
        },
        {
          "duration": 0.19666666666665833,
          "durationTicks": 236,
          "midi": 72,
          "name": "C5",
          "ticks": 268560,
          "time": 223.8,
          "velocity": 0.8267716535433071
        },
        {
          "duration": 0.19666666666668675,
          "durationTicks": 236,
          "midi": 67,
          "name": "G4",
          "ticks": 268800,
          "time": 224,
          "velocity": 0.8267716535433071
        },
        {
          "duration": 0.19666666666665833,
          "durationTicks": 236,
          "midi": 72,
          "name": "C5",
          "ticks": 269040,
          "time": 224.20000000000002,
          "velocity": 0.8346456692913385
        },
        {
          "duration": 0.19666666666668675,
          "durationTicks": 236,
          "midi": 67,
          "name": "G4",
          "ticks": 269280,
          "time": 224.4,
          "velocity": 0.8503937007874016
        },
        {
          "duration": 0.19666666666665833,
          "durationTicks": 236,
          "midi": 72,
          "name": "C5",
          "ticks": 269520,
          "time": 224.60000000000002,
          "velocity": 0.8582677165354331
        },
        {
          "duration": 0.19666666666665833,
          "durationTicks": 236,
          "midi": 67,
          "name": "G4",
          "ticks": 269760,
          "time": 224.8,
          "velocity": 0.8661417322834646
        },
        {
          "duration": 0.19666666666668675,
          "durationTicks": 236,
          "midi": 72,
          "name": "C5",
          "ticks": 270000,
          "time": 225,
          "velocity": 0.8740157480314961
        },
        {
          "duration": 0.19666666666665833,
          "durationTicks": 236,
          "midi": 67,
          "name": "G4",
          "ticks": 270240,
          "time": 225.20000000000002,
          "velocity": 0.8818897637795275
        },
        {
          "duration": 0.19666666666668675,
          "durationTicks": 236,
          "midi": 72,
          "name": "C5",
          "ticks": 270480,
          "time": 225.4,
          "velocity": 0.889763779527559
        },
        {
          "duration": 0.3333333333333428,
          "durationTicks": 400,
          "midi": 67,
          "name": "G4",
          "ticks": 270720,
          "time": 225.60000000000002,
          "velocity": 0.905511811023622
        },
        {
          "duration": 0.33333333333337123,
          "durationTicks": 400,
          "midi": 67,
          "name": "G4",
          "ticks": 271200,
          "time": 226,
          "velocity": 0.9212598425196851
        },
        {
          "duration": 0.3333333333333428,
          "durationTicks": 400,
          "midi": 55,
          "name": "G3",
          "ticks": 271680,
          "time": 226.4,
          "velocity": 0.937007874015748
        },
        {
          "duration": 0.3333333333333428,
          "durationTicks": 400,
          "midi": 55,
          "name": "G3",
          "ticks": 272160,
          "time": 226.8,
          "velocity": 0.952755905511811
        },
        {
          "duration": 1.5,
          "durationTicks": 1800,
          "midi": 55,
          "name": "G3",
          "ticks": 272640,
          "time": 227.20000000000002,
          "velocity": 0.9763779527559056
        },
        {
          "duration": 0.8000000000000114,
          "durationTicks": 960,
          "midi": 60,
          "name": "C4",
          "ticks": 295680,
          "time": 246.4,
          "velocity": 0.4015748031496063
        },
        {
          "duration": 0.799999999999983,
          "durationTicks": 960,
          "midi": 59,
          "name": "B3",
          "ticks": 296640,
          "time": 247.20000000000002,
          "velocity": 0.4015748031496063
        },
        {
          "duration": 1.5,
          "durationTicks": 1800,
          "midi": 57,
          "name": "A3",
          "ticks": 297600,
          "time": 248,
          "velocity": 0.4015748031496063
        },
        {
          "duration": 0.3333333333333428,
          "durationTicks": 400,
          "midi": 55,
          "name": "G3",
          "ticks": 299520,
          "time": 249.60000000000002,
          "velocity": 0.8267716535433071
        },
        {
          "duration": 0.3333333333333428,
          "durationTicks": 400,
          "midi": 67,
          "name": "G4",
          "ticks": 299520,
          "time": 249.60000000000002,
          "velocity": 0.8267716535433071
        },
        {
          "duration": 0.06666666666663446,
          "durationTicks": 80,
          "midi": 62,
          "name": "D4",
          "ticks": 300240,
          "time": 250.20000000000002,
          "velocity": 0.8267716535433071
        },
        {
          "duration": 0.06666666666671972,
          "durationTicks": 80,
          "midi": 64,
          "name": "E4",
          "ticks": 300320,
          "time": 250.26666666666665,
          "velocity": 0.8267716535433071
        },
        {
          "duration": 0.06666666666663446,
          "durationTicks": 80,
          "midi": 66,
          "name": "F#4",
          "ticks": 300400,
          "time": 250.33333333333337,
          "velocity": 0.8267716535433071
        },
        {
          "duration": 0.3333333333333428,
          "durationTicks": 400,
          "midi": 67,
          "name": "G4",
          "ticks": 300480,
          "time": 250.4,
          "velocity": 0.8267716535433071
        },
        {
          "duration": 0.06666666666666288,
          "durationTicks": 80,
          "midi": 62,
          "name": "D4",
          "ticks": 301200,
          "time": 251,
          "velocity": 0.8267716535433071
        },
        {
          "duration": 0.0666666666666913,
          "durationTicks": 80,
          "midi": 64,
          "name": "E4",
          "ticks": 301280,
          "time": 251.06666666666666,
          "velocity": 0.8267716535433071
        },
        {
          "duration": 0.06666666666666288,
          "durationTicks": 80,
          "midi": 66,
          "name": "F#4",
          "ticks": 301360,
          "time": 251.13333333333335,
          "velocity": 0.8267716535433071
        },
        {
          "duration": 0.3333333333333428,
          "durationTicks": 400,
          "midi": 67,
          "name": "G4",
          "ticks": 301440,
          "time": 251.20000000000002,
          "velocity": 0.8267716535433071
        },
        {
          "duration": 0.19666666666665833,
          "durationTicks": 236,
          "midi": 55,
          "name": "G3",
          "ticks": 303360,
          "time": 252.8,
          "velocity": 0.8267716535433071
        },
        {
          "duration": 0.19666666666665833,
          "durationTicks": 236,
          "midi": 67,
          "name": "G4",
          "ticks": 303360,
          "time": 252.8,
          "velocity": 0.8267716535433071
        },
        {
          "duration": 0.19666666666668675,
          "durationTicks": 236,
          "midi": 55,
          "name": "G3",
          "ticks": 303600,
          "time": 253,
          "velocity": 0.8267716535433071
        },
        {
          "duration": 0.19666666666668675,
          "durationTicks": 236,
          "midi": 67,
          "name": "G4",
          "ticks": 303600,
          "time": 253,
          "velocity": 0.8267716535433071
        },
        {
          "duration": 0.19666666666665833,
          "durationTicks": 236,
          "midi": 55,
          "name": "G3",
          "ticks": 303840,
          "time": 253.20000000000002,
          "velocity": 0.8267716535433071
        },
        {
          "duration": 0.19666666666665833,
          "durationTicks": 236,
          "midi": 67,
          "name": "G4",
          "ticks": 303840,
          "time": 253.20000000000002,
          "velocity": 0.8267716535433071
        },
        {
          "duration": 0.19666666666668675,
          "durationTicks": 236,
          "midi": 55,
          "name": "G3",
          "ticks": 304080,
          "time": 253.4,
          "velocity": 0.8267716535433071
        },
        {
          "duration": 0.19666666666668675,
          "durationTicks": 236,
          "midi": 67,
          "name": "G4",
          "ticks": 304080,
          "time": 253.4,
          "velocity": 0.8267716535433071
        },
        {
          "duration": 0.19666666666665833,
          "durationTicks": 236,
          "midi": 55,
          "name": "G3",
          "ticks": 304320,
          "time": 253.60000000000002,
          "velocity": 0.8267716535433071
        },
        {
          "duration": 0.19666666666665833,
          "durationTicks": 236,
          "midi": 67,
          "name": "G4",
          "ticks": 304320,
          "time": 253.60000000000002,
          "velocity": 0.8267716535433071
        },
        {
          "duration": 0.19666666666665833,
          "durationTicks": 236,
          "midi": 55,
          "name": "G3",
          "ticks": 304560,
          "time": 253.8,
          "velocity": 0.8267716535433071
        },
        {
          "duration": 0.19666666666665833,
          "durationTicks": 236,
          "midi": 67,
          "name": "G4",
          "ticks": 304560,
          "time": 253.8,
          "velocity": 0.8267716535433071
        },
        {
          "duration": 0.19666666666668675,
          "durationTicks": 236,
          "midi": 55,
          "name": "G3",
          "ticks": 304800,
          "time": 254,
          "velocity": 0.8267716535433071
        },
        {
          "duration": 0.19666666666668675,
          "durationTicks": 236,
          "midi": 67,
          "name": "G4",
          "ticks": 304800,
          "time": 254,
          "velocity": 0.8267716535433071
        },
        {
          "duration": 0.19666666666665833,
          "durationTicks": 236,
          "midi": 55,
          "name": "G3",
          "ticks": 305040,
          "time": 254.20000000000002,
          "velocity": 0.8267716535433071
        },
        {
          "duration": 0.19666666666665833,
          "durationTicks": 236,
          "midi": 67,
          "name": "G4",
          "ticks": 305040,
          "time": 254.20000000000002,
          "velocity": 0.8267716535433071
        },
        {
          "duration": 0.19666666666668675,
          "durationTicks": 236,
          "midi": 55,
          "name": "G3",
          "ticks": 305280,
          "time": 254.4,
          "velocity": 0.8267716535433071
        },
        {
          "duration": 0.19666666666668675,
          "durationTicks": 236,
          "midi": 67,
          "name": "G4",
          "ticks": 305280,
          "time": 254.4,
          "velocity": 0.8267716535433071
        },
        {
          "duration": 0.19666666666665833,
          "durationTicks": 236,
          "midi": 55,
          "name": "G3",
          "ticks": 305520,
          "time": 254.60000000000002,
          "velocity": 0.8267716535433071
        },
        {
          "duration": 0.19666666666665833,
          "durationTicks": 236,
          "midi": 67,
          "name": "G4",
          "ticks": 305520,
          "time": 254.60000000000002,
          "velocity": 0.8267716535433071
        },
        {
          "duration": 0.19666666666665833,
          "durationTicks": 236,
          "midi": 55,
          "name": "G3",
          "ticks": 305760,
          "time": 254.8,
          "velocity": 0.8267716535433071
        },
        {
          "duration": 0.19666666666665833,
          "durationTicks": 236,
          "midi": 67,
          "name": "G4",
          "ticks": 305760,
          "time": 254.8,
          "velocity": 0.8267716535433071
        },
        {
          "duration": 0.19666666666668675,
          "durationTicks": 236,
          "midi": 55,
          "name": "G3",
          "ticks": 306000,
          "time": 255,
          "velocity": 0.8267716535433071
        },
        {
          "duration": 0.19666666666668675,
          "durationTicks": 236,
          "midi": 67,
          "name": "G4",
          "ticks": 306000,
          "time": 255,
          "velocity": 0.8267716535433071
        },
        {
          "duration": 0.19666666666665833,
          "durationTicks": 236,
          "midi": 55,
          "name": "G3",
          "ticks": 306240,
          "time": 255.20000000000002,
          "velocity": 0.8267716535433071
        },
        {
          "duration": 0.19666666666665833,
          "durationTicks": 236,
          "midi": 67,
          "name": "G4",
          "ticks": 306240,
          "time": 255.20000000000002,
          "velocity": 0.8267716535433071
        },
        {
          "duration": 0.19666666666668675,
          "durationTicks": 236,
          "midi": 55,
          "name": "G3",
          "ticks": 306480,
          "time": 255.4,
          "velocity": 0.8267716535433071
        },
        {
          "duration": 0.19666666666668675,
          "durationTicks": 236,
          "midi": 67,
          "name": "G4",
          "ticks": 306480,
          "time": 255.4,
          "velocity": 0.8267716535433071
        },
        {
          "duration": 0.19666666666665833,
          "durationTicks": 236,
          "midi": 55,
          "name": "G3",
          "ticks": 306720,
          "time": 255.60000000000002,
          "velocity": 0.8267716535433071
        },
        {
          "duration": 0.19666666666665833,
          "durationTicks": 236,
          "midi": 67,
          "name": "G4",
          "ticks": 306720,
          "time": 255.60000000000002,
          "velocity": 0.8267716535433071
        },
        {
          "duration": 0.19666666666665833,
          "durationTicks": 236,
          "midi": 55,
          "name": "G3",
          "ticks": 306960,
          "time": 255.8,
          "velocity": 0.8267716535433071
        },
        {
          "duration": 0.19666666666665833,
          "durationTicks": 236,
          "midi": 67,
          "name": "G4",
          "ticks": 306960,
          "time": 255.8,
          "velocity": 0.8267716535433071
        },
        {
          "duration": 0.19666666666665833,
          "durationTicks": 236,
          "midi": 55,
          "name": "G3",
          "ticks": 307200,
          "time": 256,
          "velocity": 0.8267716535433071
        },
        {
          "duration": 0.19666666666665833,
          "durationTicks": 236,
          "midi": 67,
          "name": "G4",
          "ticks": 307200,
          "time": 256,
          "velocity": 0.8267716535433071
        },
        {
          "duration": 0.19666666666671517,
          "durationTicks": 236,
          "midi": 55,
          "name": "G3",
          "ticks": 307440,
          "time": 256.2,
          "velocity": 0.8267716535433071
        },
        {
          "duration": 0.19666666666671517,
          "durationTicks": 236,
          "midi": 67,
          "name": "G4",
          "ticks": 307440,
          "time": 256.2,
          "velocity": 0.8267716535433071
        },
        {
          "duration": 0.19666666666665833,
          "durationTicks": 236,
          "midi": 55,
          "name": "G3",
          "ticks": 307680,
          "time": 256.40000000000003,
          "velocity": 0.8267716535433071
        },
        {
          "duration": 0.19666666666665833,
          "durationTicks": 236,
          "midi": 67,
          "name": "G4",
          "ticks": 307680,
          "time": 256.40000000000003,
          "velocity": 0.8267716535433071
        },
        {
          "duration": 0.19666666666665833,
          "durationTicks": 236,
          "midi": 55,
          "name": "G3",
          "ticks": 307920,
          "time": 256.6,
          "velocity": 0.8267716535433071
        },
        {
          "duration": 0.19666666666665833,
          "durationTicks": 236,
          "midi": 67,
          "name": "G4",
          "ticks": 307920,
          "time": 256.6,
          "velocity": 0.8267716535433071
        },
        {
          "duration": 0.19666666666665833,
          "durationTicks": 236,
          "midi": 55,
          "name": "G3",
          "ticks": 308160,
          "time": 256.8,
          "velocity": 0.8267716535433071
        },
        {
          "duration": 0.19666666666665833,
          "durationTicks": 236,
          "midi": 67,
          "name": "G4",
          "ticks": 308160,
          "time": 256.8,
          "velocity": 0.8267716535433071
        },
        {
          "duration": 0.19666666666665833,
          "durationTicks": 236,
          "midi": 55,
          "name": "G3",
          "ticks": 308400,
          "time": 257,
          "velocity": 0.8267716535433071
        },
        {
          "duration": 0.19666666666665833,
          "durationTicks": 236,
          "midi": 67,
          "name": "G4",
          "ticks": 308400,
          "time": 257,
          "velocity": 0.8267716535433071
        },
        {
          "duration": 0.19666666666671517,
          "durationTicks": 236,
          "midi": 55,
          "name": "G3",
          "ticks": 308640,
          "time": 257.2,
          "velocity": 0.8267716535433071
        },
        {
          "duration": 0.19666666666671517,
          "durationTicks": 236,
          "midi": 67,
          "name": "G4",
          "ticks": 308640,
          "time": 257.2,
          "velocity": 0.8267716535433071
        },
        {
          "duration": 0.19666666666665833,
          "durationTicks": 236,
          "midi": 55,
          "name": "G3",
          "ticks": 308880,
          "time": 257.40000000000003,
          "velocity": 0.8267716535433071
        },
        {
          "duration": 0.19666666666665833,
          "durationTicks": 236,
          "midi": 67,
          "name": "G4",
          "ticks": 308880,
          "time": 257.40000000000003,
          "velocity": 0.8267716535433071
        },
        {
          "duration": 0.19666666666665833,
          "durationTicks": 236,
          "midi": 55,
          "name": "G3",
          "ticks": 309120,
          "time": 257.6,
          "velocity": 0.8267716535433071
        },
        {
          "duration": 0.19666666666665833,
          "durationTicks": 236,
          "midi": 67,
          "name": "G4",
          "ticks": 309120,
          "time": 257.6,
          "velocity": 0.8267716535433071
        },
        {
          "duration": 0.19666666666665833,
          "durationTicks": 236,
          "midi": 55,
          "name": "G3",
          "ticks": 309360,
          "time": 257.8,
          "velocity": 0.8267716535433071
        },
        {
          "duration": 0.19666666666665833,
          "durationTicks": 236,
          "midi": 67,
          "name": "G4",
          "ticks": 309360,
          "time": 257.8,
          "velocity": 0.8267716535433071
        },
        {
          "duration": 0.19666666666665833,
          "durationTicks": 236,
          "midi": 55,
          "name": "G3",
          "ticks": 309600,
          "time": 258,
          "velocity": 0.8267716535433071
        },
        {
          "duration": 0.19666666666665833,
          "durationTicks": 236,
          "midi": 67,
          "name": "G4",
          "ticks": 309600,
          "time": 258,
          "velocity": 0.8267716535433071
        },
        {
          "duration": 0.19666666666671517,
          "durationTicks": 236,
          "midi": 55,
          "name": "G3",
          "ticks": 309840,
          "time": 258.2,
          "velocity": 0.8267716535433071
        },
        {
          "duration": 0.19666666666671517,
          "durationTicks": 236,
          "midi": 67,
          "name": "G4",
          "ticks": 309840,
          "time": 258.2,
          "velocity": 0.8267716535433071
        },
        {
          "duration": 0.19666666666665833,
          "durationTicks": 236,
          "midi": 55,
          "name": "G3",
          "ticks": 310080,
          "time": 258.40000000000003,
          "velocity": 0.8267716535433071
        },
        {
          "duration": 0.19666666666665833,
          "durationTicks": 236,
          "midi": 67,
          "name": "G4",
          "ticks": 310080,
          "time": 258.40000000000003,
          "velocity": 0.8267716535433071
        },
        {
          "duration": 0.19666666666665833,
          "durationTicks": 236,
          "midi": 55,
          "name": "G3",
          "ticks": 310320,
          "time": 258.6,
          "velocity": 0.8267716535433071
        },
        {
          "duration": 0.19666666666665833,
          "durationTicks": 236,
          "midi": 67,
          "name": "G4",
          "ticks": 310320,
          "time": 258.6,
          "velocity": 0.8267716535433071
        },
        {
          "duration": 0.19666666666665833,
          "durationTicks": 236,
          "midi": 55,
          "name": "G3",
          "ticks": 310560,
          "time": 258.8,
          "velocity": 0.8267716535433071
        },
        {
          "duration": 0.19666666666665833,
          "durationTicks": 236,
          "midi": 67,
          "name": "G4",
          "ticks": 310560,
          "time": 258.8,
          "velocity": 0.8267716535433071
        },
        {
          "duration": 0.19666666666665833,
          "durationTicks": 236,
          "midi": 55,
          "name": "G3",
          "ticks": 310800,
          "time": 259,
          "velocity": 0.8267716535433071
        },
        {
          "duration": 0.19666666666665833,
          "durationTicks": 236,
          "midi": 67,
          "name": "G4",
          "ticks": 310800,
          "time": 259,
          "velocity": 0.8267716535433071
        },
        {
          "duration": 0.19666666666671517,
          "durationTicks": 236,
          "midi": 55,
          "name": "G3",
          "ticks": 311040,
          "time": 259.2,
          "velocity": 0.8267716535433071
        },
        {
          "duration": 0.19666666666671517,
          "durationTicks": 236,
          "midi": 67,
          "name": "G4",
          "ticks": 311040,
          "time": 259.2,
          "velocity": 0.8267716535433071
        },
        {
          "duration": 0.19666666666665833,
          "durationTicks": 236,
          "midi": 55,
          "name": "G3",
          "ticks": 311280,
          "time": 259.40000000000003,
          "velocity": 0.8267716535433071
        },
        {
          "duration": 0.19666666666665833,
          "durationTicks": 236,
          "midi": 67,
          "name": "G4",
          "ticks": 311280,
          "time": 259.40000000000003,
          "velocity": 0.8267716535433071
        },
        {
          "duration": 0.19666666666665833,
          "durationTicks": 236,
          "midi": 55,
          "name": "G3",
          "ticks": 311520,
          "time": 259.6,
          "velocity": 0.8267716535433071
        },
        {
          "duration": 0.19666666666665833,
          "durationTicks": 236,
          "midi": 67,
          "name": "G4",
          "ticks": 311520,
          "time": 259.6,
          "velocity": 0.8267716535433071
        },
        {
          "duration": 0.19666666666665833,
          "durationTicks": 236,
          "midi": 55,
          "name": "G3",
          "ticks": 311760,
          "time": 259.8,
          "velocity": 0.8267716535433071
        },
        {
          "duration": 0.19666666666665833,
          "durationTicks": 236,
          "midi": 67,
          "name": "G4",
          "ticks": 311760,
          "time": 259.8,
          "velocity": 0.8267716535433071
        },
        {
          "duration": 0.19666666666665833,
          "durationTicks": 236,
          "midi": 55,
          "name": "G3",
          "ticks": 312000,
          "time": 260,
          "velocity": 0.8267716535433071
        },
        {
          "duration": 0.19666666666665833,
          "durationTicks": 236,
          "midi": 67,
          "name": "G4",
          "ticks": 312000,
          "time": 260,
          "velocity": 0.8267716535433071
        },
        {
          "duration": 0.19666666666671517,
          "durationTicks": 236,
          "midi": 55,
          "name": "G3",
          "ticks": 312240,
          "time": 260.2,
          "velocity": 0.8267716535433071
        },
        {
          "duration": 0.19666666666671517,
          "durationTicks": 236,
          "midi": 67,
          "name": "G4",
          "ticks": 312240,
          "time": 260.2,
          "velocity": 0.8267716535433071
        },
        {
          "duration": 0.19666666666665833,
          "durationTicks": 236,
          "midi": 55,
          "name": "G3",
          "ticks": 312480,
          "time": 260.40000000000003,
          "velocity": 0.8267716535433071
        },
        {
          "duration": 0.19666666666665833,
          "durationTicks": 236,
          "midi": 67,
          "name": "G4",
          "ticks": 312480,
          "time": 260.40000000000003,
          "velocity": 0.8267716535433071
        },
        {
          "duration": 0.19666666666665833,
          "durationTicks": 236,
          "midi": 55,
          "name": "G3",
          "ticks": 312720,
          "time": 260.6,
          "velocity": 0.8267716535433071
        },
        {
          "duration": 0.19666666666665833,
          "durationTicks": 236,
          "midi": 67,
          "name": "G4",
          "ticks": 312720,
          "time": 260.6,
          "velocity": 0.8267716535433071
        },
        {
          "duration": 0.19666666666665833,
          "durationTicks": 236,
          "midi": 55,
          "name": "G3",
          "ticks": 312960,
          "time": 260.8,
          "velocity": 0.8267716535433071
        },
        {
          "duration": 0.19666666666665833,
          "durationTicks": 236,
          "midi": 67,
          "name": "G4",
          "ticks": 312960,
          "time": 260.8,
          "velocity": 0.8267716535433071
        },
        {
          "duration": 0.19666666666665833,
          "durationTicks": 236,
          "midi": 55,
          "name": "G3",
          "ticks": 313200,
          "time": 261,
          "velocity": 0.8267716535433071
        },
        {
          "duration": 0.19666666666665833,
          "durationTicks": 236,
          "midi": 67,
          "name": "G4",
          "ticks": 313200,
          "time": 261,
          "velocity": 0.8267716535433071
        },
        {
          "duration": 0.19666666666671517,
          "durationTicks": 236,
          "midi": 55,
          "name": "G3",
          "ticks": 313440,
          "time": 261.2,
          "velocity": 0.8267716535433071
        },
        {
          "duration": 0.19666666666671517,
          "durationTicks": 236,
          "midi": 67,
          "name": "G4",
          "ticks": 313440,
          "time": 261.2,
          "velocity": 0.8267716535433071
        },
        {
          "duration": 0.19666666666665833,
          "durationTicks": 236,
          "midi": 55,
          "name": "G3",
          "ticks": 313680,
          "time": 261.40000000000003,
          "velocity": 0.8267716535433071
        },
        {
          "duration": 0.19666666666665833,
          "durationTicks": 236,
          "midi": 67,
          "name": "G4",
          "ticks": 313680,
          "time": 261.40000000000003,
          "velocity": 0.8267716535433071
        },
        {
          "duration": 0.19666666666665833,
          "durationTicks": 236,
          "midi": 55,
          "name": "G3",
          "ticks": 313920,
          "time": 261.6,
          "velocity": 0.8267716535433071
        },
        {
          "duration": 0.19666666666665833,
          "durationTicks": 236,
          "midi": 67,
          "name": "G4",
          "ticks": 313920,
          "time": 261.6,
          "velocity": 0.8267716535433071
        },
        {
          "duration": 0.19666666666665833,
          "durationTicks": 236,
          "midi": 55,
          "name": "G3",
          "ticks": 314160,
          "time": 261.8,
          "velocity": 0.8267716535433071
        },
        {
          "duration": 0.19666666666665833,
          "durationTicks": 236,
          "midi": 67,
          "name": "G4",
          "ticks": 314160,
          "time": 261.8,
          "velocity": 0.8267716535433071
        },
        {
          "duration": 0.19666666666665833,
          "durationTicks": 236,
          "midi": 55,
          "name": "G3",
          "ticks": 314400,
          "time": 262,
          "velocity": 0.8267716535433071
        },
        {
          "duration": 0.19666666666665833,
          "durationTicks": 236,
          "midi": 67,
          "name": "G4",
          "ticks": 314400,
          "time": 262,
          "velocity": 0.8267716535433071
        },
        {
          "duration": 0.19666666666671517,
          "durationTicks": 236,
          "midi": 55,
          "name": "G3",
          "ticks": 314640,
          "time": 262.2,
          "velocity": 0.8267716535433071
        },
        {
          "duration": 0.19666666666671517,
          "durationTicks": 236,
          "midi": 67,
          "name": "G4",
          "ticks": 314640,
          "time": 262.2,
          "velocity": 0.8267716535433071
        },
        {
          "duration": 0.19666666666665833,
          "durationTicks": 236,
          "midi": 55,
          "name": "G3",
          "ticks": 314880,
          "time": 262.40000000000003,
          "velocity": 0.8267716535433071
        },
        {
          "duration": 0.19666666666665833,
          "durationTicks": 236,
          "midi": 67,
          "name": "G4",
          "ticks": 314880,
          "time": 262.40000000000003,
          "velocity": 0.8267716535433071
        },
        {
          "duration": 0.19666666666665833,
          "durationTicks": 236,
          "midi": 55,
          "name": "G3",
          "ticks": 315120,
          "time": 262.6,
          "velocity": 0.8267716535433071
        },
        {
          "duration": 0.19666666666665833,
          "durationTicks": 236,
          "midi": 67,
          "name": "G4",
          "ticks": 315120,
          "time": 262.6,
          "velocity": 0.8267716535433071
        },
        {
          "duration": 0.19666666666665833,
          "durationTicks": 236,
          "midi": 55,
          "name": "G3",
          "ticks": 315360,
          "time": 262.8,
          "velocity": 0.8267716535433071
        },
        {
          "duration": 0.19666666666665833,
          "durationTicks": 236,
          "midi": 67,
          "name": "G4",
          "ticks": 315360,
          "time": 262.8,
          "velocity": 0.8267716535433071
        },
        {
          "duration": 0.19666666666665833,
          "durationTicks": 236,
          "midi": 55,
          "name": "G3",
          "ticks": 315600,
          "time": 263,
          "velocity": 0.8267716535433071
        },
        {
          "duration": 0.19666666666665833,
          "durationTicks": 236,
          "midi": 67,
          "name": "G4",
          "ticks": 315600,
          "time": 263,
          "velocity": 0.8267716535433071
        },
        {
          "duration": 0.19666666666671517,
          "durationTicks": 236,
          "midi": 55,
          "name": "G3",
          "ticks": 315840,
          "time": 263.2,
          "velocity": 0.8267716535433071
        },
        {
          "duration": 0.19666666666671517,
          "durationTicks": 236,
          "midi": 67,
          "name": "G4",
          "ticks": 315840,
          "time": 263.2,
          "velocity": 0.8267716535433071
        },
        {
          "duration": 0.19666666666665833,
          "durationTicks": 236,
          "midi": 55,
          "name": "G3",
          "ticks": 316080,
          "time": 263.40000000000003,
          "velocity": 0.8267716535433071
        },
        {
          "duration": 0.19666666666665833,
          "durationTicks": 236,
          "midi": 67,
          "name": "G4",
          "ticks": 316080,
          "time": 263.40000000000003,
          "velocity": 0.8267716535433071
        },
        {
          "duration": 0.19666666666665833,
          "durationTicks": 236,
          "midi": 55,
          "name": "G3",
          "ticks": 316320,
          "time": 263.6,
          "velocity": 0.8267716535433071
        },
        {
          "duration": 0.19666666666665833,
          "durationTicks": 236,
          "midi": 67,
          "name": "G4",
          "ticks": 316320,
          "time": 263.6,
          "velocity": 0.8267716535433071
        },
        {
          "duration": 0.19666666666665833,
          "durationTicks": 236,
          "midi": 55,
          "name": "G3",
          "ticks": 316560,
          "time": 263.8,
          "velocity": 0.8267716535433071
        },
        {
          "duration": 0.19666666666665833,
          "durationTicks": 236,
          "midi": 67,
          "name": "G4",
          "ticks": 316560,
          "time": 263.8,
          "velocity": 0.8267716535433071
        },
        {
          "duration": 0.19666666666665833,
          "durationTicks": 236,
          "midi": 55,
          "name": "G3",
          "ticks": 316800,
          "time": 264,
          "velocity": 0.8267716535433071
        },
        {
          "duration": 0.19666666666665833,
          "durationTicks": 236,
          "midi": 67,
          "name": "G4",
          "ticks": 316800,
          "time": 264,
          "velocity": 0.8267716535433071
        },
        {
          "duration": 0.19666666666671517,
          "durationTicks": 236,
          "midi": 55,
          "name": "G3",
          "ticks": 317040,
          "time": 264.2,
          "velocity": 0.8267716535433071
        },
        {
          "duration": 0.19666666666671517,
          "durationTicks": 236,
          "midi": 67,
          "name": "G4",
          "ticks": 317040,
          "time": 264.2,
          "velocity": 0.8267716535433071
        },
        {
          "duration": 0.19666666666665833,
          "durationTicks": 236,
          "midi": 55,
          "name": "G3",
          "ticks": 317280,
          "time": 264.40000000000003,
          "velocity": 0.8267716535433071
        },
        {
          "duration": 0.19666666666665833,
          "durationTicks": 236,
          "midi": 67,
          "name": "G4",
          "ticks": 317280,
          "time": 264.40000000000003,
          "velocity": 0.8267716535433071
        },
        {
          "duration": 0.19666666666665833,
          "durationTicks": 236,
          "midi": 55,
          "name": "G3",
          "ticks": 317520,
          "time": 264.6,
          "velocity": 0.8267716535433071
        },
        {
          "duration": 0.19666666666665833,
          "durationTicks": 236,
          "midi": 67,
          "name": "G4",
          "ticks": 317520,
          "time": 264.6,
          "velocity": 0.8267716535433071
        },
        {
          "duration": 0.19666666666665833,
          "durationTicks": 236,
          "midi": 55,
          "name": "G3",
          "ticks": 317760,
          "time": 264.8,
          "velocity": 0.8267716535433071
        },
        {
          "duration": 0.19666666666665833,
          "durationTicks": 236,
          "midi": 67,
          "name": "G4",
          "ticks": 317760,
          "time": 264.8,
          "velocity": 0.8267716535433071
        },
        {
          "duration": 0.19666666666665833,
          "durationTicks": 236,
          "midi": 55,
          "name": "G3",
          "ticks": 318000,
          "time": 265,
          "velocity": 0.8267716535433071
        },
        {
          "duration": 0.19666666666665833,
          "durationTicks": 236,
          "midi": 67,
          "name": "G4",
          "ticks": 318000,
          "time": 265,
          "velocity": 0.8267716535433071
        },
        {
          "duration": 0.19666666666671517,
          "durationTicks": 236,
          "midi": 55,
          "name": "G3",
          "ticks": 318240,
          "time": 265.2,
          "velocity": 0.8267716535433071
        },
        {
          "duration": 0.19666666666671517,
          "durationTicks": 236,
          "midi": 67,
          "name": "G4",
          "ticks": 318240,
          "time": 265.2,
          "velocity": 0.8267716535433071
        },
        {
          "duration": 0.19666666666665833,
          "durationTicks": 236,
          "midi": 55,
          "name": "G3",
          "ticks": 318480,
          "time": 265.40000000000003,
          "velocity": 0.8267716535433071
        },
        {
          "duration": 0.19666666666665833,
          "durationTicks": 236,
          "midi": 67,
          "name": "G4",
          "ticks": 318480,
          "time": 265.40000000000003,
          "velocity": 0.8267716535433071
        },
        {
          "duration": 0.19666666666665833,
          "durationTicks": 236,
          "midi": 60,
          "name": "C4",
          "ticks": 318720,
          "time": 265.6,
          "velocity": 0.8267716535433071
        },
        {
          "duration": 0.19666666666665833,
          "durationTicks": 236,
          "midi": 60,
          "name": "C4",
          "ticks": 318960,
          "time": 265.8,
          "velocity": 0.8267716535433071
        },
        {
          "duration": 0.19666666666665833,
          "durationTicks": 236,
          "midi": 62,
          "name": "D4",
          "ticks": 319200,
          "time": 266,
          "velocity": 0.8267716535433071
        },
        {
          "duration": 0.19666666666671517,
          "durationTicks": 236,
          "midi": 62,
          "name": "D4",
          "ticks": 319440,
          "time": 266.2,
          "velocity": 0.8267716535433071
        },
        {
          "duration": 0.19666666666665833,
          "durationTicks": 236,
          "midi": 60,
          "name": "C4",
          "ticks": 319680,
          "time": 266.40000000000003,
          "velocity": 0.8267716535433071
        },
        {
          "duration": 0.19666666666665833,
          "durationTicks": 236,
          "midi": 60,
          "name": "C4",
          "ticks": 319920,
          "time": 266.6,
          "velocity": 0.8267716535433071
        },
        {
          "duration": 0.19666666666665833,
          "durationTicks": 236,
          "midi": 62,
          "name": "D4",
          "ticks": 320160,
          "time": 266.8,
          "velocity": 0.8267716535433071
        },
        {
          "duration": 0.19666666666665833,
          "durationTicks": 236,
          "midi": 62,
          "name": "D4",
          "ticks": 320400,
          "time": 267,
          "velocity": 0.8267716535433071
        },
        {
          "duration": 1.1000000000000227,
          "durationTicks": 1320,
          "midi": 60,
          "name": "C4",
          "ticks": 320640,
          "time": 267.2,
          "velocity": 0.8267716535433071
        },
        {
          "duration": 0.3333333333333144,
          "durationTicks": 400,
          "midi": 61,
          "name": "C#4",
          "ticks": 322080,
          "time": 268.40000000000003,
          "velocity": 0.8267716535433071
        },
        {
          "duration": 0.33333333333337123,
          "durationTicks": 400,
          "midi": 62,
          "name": "D4",
          "ticks": 322560,
          "time": 268.8,
          "velocity": 0.8267716535433071
        },
        {
          "duration": 0.049999999999954525,
          "durationTicks": 60,
          "midi": 57,
          "name": "A3",
          "ticks": 323280,
          "time": 269.40000000000003,
          "velocity": 0.8267716535433071
        },
        {
          "duration": 0.05000000000001137,
          "durationTicks": 60,
          "midi": 55,
          "name": "G3",
          "ticks": 323340,
          "time": 269.45,
          "velocity": 0.8267716535433071
        },
        {
          "duration": 0.05000000000001137,
          "durationTicks": 60,
          "midi": 54,
          "name": "F#3",
          "ticks": 323400,
          "time": 269.5,
          "velocity": 0.8267716535433071
        },
        {
          "duration": 0.05000000000001137,
          "durationTicks": 60,
          "midi": 52,
          "name": "E3",
          "ticks": 323460,
          "time": 269.55,
          "velocity": 0.8267716535433071
        },
        {
          "duration": 0.3333333333333144,
          "durationTicks": 400,
          "midi": 50,
          "name": "D3",
          "ticks": 323520,
          "time": 269.6,
          "velocity": 0.8267716535433071
        },
        {
          "duration": 0.05000000000001137,
          "durationTicks": 60,
          "midi": 62,
          "name": "D4",
          "ticks": 325200,
          "time": 271,
          "velocity": 0.8267716535433071
        },
        {
          "duration": 0.05000000000001137,
          "durationTicks": 60,
          "midi": 60,
          "name": "C4",
          "ticks": 325260,
          "time": 271.05,
          "velocity": 0.8267716535433071
        },
        {
          "duration": 0.05000000000001137,
          "durationTicks": 60,
          "midi": 59,
          "name": "B3",
          "ticks": 325320,
          "time": 271.1,
          "velocity": 0.8267716535433071
        },
        {
          "duration": 0.049999999999954525,
          "durationTicks": 60,
          "midi": 57,
          "name": "A3",
          "ticks": 325380,
          "time": 271.15000000000003,
          "velocity": 0.8267716535433071
        },
        {
          "duration": 0.33333333333337123,
          "durationTicks": 400,
          "midi": 55,
          "name": "G3",
          "ticks": 325440,
          "time": 271.2,
          "velocity": 0.8267716535433071
        },
        {
          "duration": 0.05000000000001137,
          "durationTicks": 60,
          "midi": 69,
          "name": "A4",
          "ticks": 327120,
          "time": 272.6,
          "velocity": 0.8267716535433071
        },
        {
          "duration": 0.049999999999954525,
          "durationTicks": 60,
          "midi": 67,
          "name": "G4",
          "ticks": 327180,
          "time": 272.65000000000003,
          "velocity": 0.8267716535433071
        },
        {
          "duration": 0.05000000000001137,
          "durationTicks": 60,
          "midi": 66,
          "name": "F#4",
          "ticks": 327240,
          "time": 272.7,
          "velocity": 0.8267716535433071
        },
        {
          "duration": 0.05000000000001137,
          "durationTicks": 60,
          "midi": 64,
          "name": "E4",
          "ticks": 327300,
          "time": 272.75,
          "velocity": 0.8267716535433071
        },
        {
          "duration": 0.33333333333337123,
          "durationTicks": 400,
          "midi": 62,
          "name": "D4",
          "ticks": 327360,
          "time": 272.8,
          "velocity": 0.8267716535433071
        },
        {
          "duration": 0.05000000000001137,
          "durationTicks": 60,
          "midi": 62,
          "name": "D4",
          "ticks": 329040,
          "time": 274.2,
          "velocity": 0.8267716535433071
        },
        {
          "duration": 0.05000000000001137,
          "durationTicks": 60,
          "midi": 60,
          "name": "C4",
          "ticks": 329100,
          "time": 274.25,
          "velocity": 0.8267716535433071
        },
        {
          "duration": 0.05000000000001137,
          "durationTicks": 60,
          "midi": 59,
          "name": "B3",
          "ticks": 329160,
          "time": 274.3,
          "velocity": 0.8267716535433071
        },
        {
          "duration": 0.05000000000001137,
          "durationTicks": 60,
          "midi": 57,
          "name": "A3",
          "ticks": 329220,
          "time": 274.35,
          "velocity": 0.8267716535433071
        },
        {
          "duration": 0.3333333333333144,
          "durationTicks": 400,
          "midi": 55,
          "name": "G3",
          "ticks": 329280,
          "time": 274.40000000000003,
          "velocity": 0.8267716535433071
        },
        {
          "duration": 0.33333333333337123,
          "durationTicks": 400,
          "midi": 50,
          "name": "D3",
          "ticks": 330240,
          "time": 275.2,
          "velocity": 0.8267716535433071
        },
        {
          "duration": 0.05000000000001137,
          "durationTicks": 60,
          "midi": 62,
          "name": "D4",
          "ticks": 330960,
          "time": 275.8,
          "velocity": 0.8267716535433071
        },
        {
          "duration": 0.05000000000001137,
          "durationTicks": 60,
          "midi": 60,
          "name": "C4",
          "ticks": 331020,
          "time": 275.85,
          "velocity": 0.8267716535433071
        },
        {
          "duration": 0.049999999999954525,
          "durationTicks": 60,
          "midi": 59,
          "name": "B3",
          "ticks": 331080,
          "time": 275.90000000000003,
          "velocity": 0.8267716535433071
        },
        {
          "duration": 0.05000000000001137,
          "durationTicks": 60,
          "midi": 57,
          "name": "A3",
          "ticks": 331140,
          "time": 275.95,
          "velocity": 0.8267716535433071
        },
        {
          "duration": 0.33333333333337123,
          "durationTicks": 400,
          "midi": 59,
          "name": "B3",
          "ticks": 331200,
          "time": 276,
          "velocity": 0.8267716535433071
        },
        {
          "duration": 0.05000000000001137,
          "durationTicks": 60,
          "midi": 60,
          "name": "C4",
          "ticks": 331920,
          "time": 276.6,
          "velocity": 0.8267716535433071
        },
        {
          "duration": 0.049999999999954525,
          "durationTicks": 60,
          "midi": 59,
          "name": "B3",
          "ticks": 331980,
          "time": 276.65000000000003,
          "velocity": 0.8267716535433071
        },
        {
          "duration": 0.05000000000001137,
          "durationTicks": 60,
          "midi": 57,
          "name": "A3",
          "ticks": 332040,
          "time": 276.7,
          "velocity": 0.8267716535433071
        },
        {
          "duration": 0.05000000000001137,
          "durationTicks": 60,
          "midi": 55,
          "name": "G3",
          "ticks": 332100,
          "time": 276.75,
          "velocity": 0.8267716535433071
        },
        {
          "duration": 0.33333333333337123,
          "durationTicks": 400,
          "midi": 54,
          "name": "F#3",
          "ticks": 332160,
          "time": 276.8,
          "velocity": 0.8267716535433071
        },
        {
          "duration": 0.049999999999954525,
          "durationTicks": 60,
          "midi": 62,
          "name": "D4",
          "ticks": 332880,
          "time": 277.40000000000003,
          "velocity": 0.8267716535433071
        },
        {
          "duration": 0.05000000000001137,
          "durationTicks": 60,
          "midi": 60,
          "name": "C4",
          "ticks": 332940,
          "time": 277.45,
          "velocity": 0.8267716535433071
        },
        {
          "duration": 0.05000000000001137,
          "durationTicks": 60,
          "midi": 59,
          "name": "B3",
          "ticks": 333000,
          "time": 277.5,
          "velocity": 0.8267716535433071
        },
        {
          "duration": 0.05000000000001137,
          "durationTicks": 60,
          "midi": 57,
          "name": "A3",
          "ticks": 333060,
          "time": 277.55,
          "velocity": 0.8267716535433071
        },
        {
          "duration": 0.3333333333333144,
          "durationTicks": 400,
          "midi": 59,
          "name": "B3",
          "ticks": 333120,
          "time": 277.6,
          "velocity": 0.8267716535433071
        },
        {
          "duration": 0.05000000000001137,
          "durationTicks": 60,
          "midi": 60,
          "name": "C4",
          "ticks": 333840,
          "time": 278.2,
          "velocity": 0.8267716535433071
        },
        {
          "duration": 0.05000000000001137,
          "durationTicks": 60,
          "midi": 59,
          "name": "B3",
          "ticks": 333900,
          "time": 278.25,
          "velocity": 0.8267716535433071
        },
        {
          "duration": 0.05000000000001137,
          "durationTicks": 60,
          "midi": 57,
          "name": "A3",
          "ticks": 333960,
          "time": 278.3,
          "velocity": 0.8267716535433071
        },
        {
          "duration": 0.05000000000001137,
          "durationTicks": 60,
          "midi": 55,
          "name": "G3",
          "ticks": 334020,
          "time": 278.35,
          "velocity": 0.8267716535433071
        },
        {
          "duration": 0.3333333333333144,
          "durationTicks": 400,
          "midi": 54,
          "name": "F#3",
          "ticks": 334080,
          "time": 278.40000000000003,
          "velocity": 0.8267716535433071
        },
        {
          "duration": 1.2000000000000455,
          "durationTicks": 1440,
          "midi": 57,
          "name": "A3",
          "ticks": 339840,
          "time": 283.2,
          "velocity": 0.4015748031496063
        },
        {
          "duration": 0.39999999999997726,
          "durationTicks": 480,
          "midi": 58,
          "name": "A#3",
          "ticks": 341280,
          "time": 284.40000000000003,
          "velocity": 0.4015748031496063
        },
        {
          "duration": 0.39999999999997726,
          "durationTicks": 480,
          "midi": 59,
          "name": "B3",
          "ticks": 341760,
          "time": 284.8,
          "velocity": 0.4015748031496063
        },
        {
          "duration": 0.3333333333333144,
          "durationTicks": 400,
          "midi": 54,
          "name": "F#3",
          "ticks": 343680,
          "time": 286.40000000000003,
          "velocity": 0.4015748031496063
        },
        {
          "duration": 0.33333333333337123,
          "durationTicks": 400,
          "midi": 55,
          "name": "G3",
          "ticks": 344640,
          "time": 287.2,
          "velocity": 0.4015748031496063
        },
        {
          "duration": 0.33333333333337123,
          "durationTicks": 400,
          "midi": 50,
          "name": "D3",
          "ticks": 345600,
          "time": 288,
          "velocity": 0.4015748031496063
        },
        {
          "duration": 1.1999999999999886,
          "durationTicks": 1440,
          "midi": 57,
          "name": "A3",
          "ticks": 351360,
          "time": 292.8,
          "velocity": 0.4015748031496063
        },
        {
          "duration": 0.4000000000000341,
          "durationTicks": 480,
          "midi": 58,
          "name": "A#3",
          "ticks": 352800,
          "time": 294,
          "velocity": 0.4015748031496063
        },
        {
          "duration": 0.3333333333333144,
          "durationTicks": 400,
          "midi": 59,
          "name": "B3",
          "ticks": 353280,
          "time": 294.40000000000003,
          "velocity": 0.4015748031496063
        },
        {
          "duration": 0.33333333333337123,
          "durationTicks": 400,
          "midi": 54,
          "name": "F#3",
          "ticks": 355200,
          "time": 296,
          "velocity": 0.4015748031496063
        },
        {
          "duration": 0.33333333333337123,
          "durationTicks": 400,
          "midi": 55,
          "name": "G3",
          "ticks": 356160,
          "time": 296.8,
          "velocity": 0.4015748031496063
        },
        {
          "duration": 1.599999999999966,
          "durationTicks": 1920,
          "midi": 60,
          "name": "C4",
          "ticks": 357120,
          "time": 297.6,
          "velocity": 0.4015748031496063
        },
        {
          "duration": 0.33333333333337123,
          "durationTicks": 400,
          "midi": 59,
          "name": "B3",
          "ticks": 359040,
          "time": 299.2,
          "velocity": 0.4015748031496063
        },
        {
          "duration": 0.33333333333337123,
          "durationTicks": 400,
          "midi": 63,
          "name": "D#4",
          "ticks": 360000,
          "time": 300,
          "velocity": 0.4015748031496063
        },
        {
          "duration": 1.1999999999999886,
          "durationTicks": 1440,
          "midi": 64,
          "name": "E4",
          "ticks": 360960,
          "time": 300.8,
          "velocity": 0.4015748031496063
        },
        {
          "duration": 0.33333333333337123,
          "durationTicks": 400,
          "midi": 60,
          "name": "C4",
          "ticks": 362400,
          "time": 302,
          "velocity": 0.4015748031496063
        },
        {
          "duration": 1.1999999999999886,
          "durationTicks": 1440,
          "midi": 62,
          "name": "D4",
          "ticks": 362880,
          "time": 302.40000000000003,
          "velocity": 0.4015748031496063
        },
        {
          "duration": 0.3333333333333144,
          "durationTicks": 400,
          "midi": 54,
          "name": "F#3",
          "ticks": 364320,
          "time": 303.6,
          "velocity": 0.4015748031496063
        },
        {
          "duration": 0.6000000000000227,
          "durationTicks": 720,
          "midi": 55,
          "name": "G3",
          "ticks": 364800,
          "time": 304,
          "velocity": 0.4015748031496063
        },
        {
          "duration": 0.19666666666665833,
          "durationTicks": 236,
          "midi": 54,
          "name": "F#3",
          "ticks": 365520,
          "time": 304.6,
          "velocity": 0.4015748031496063
        },
        {
          "duration": 0.6000000000000227,
          "durationTicks": 720,
          "midi": 59,
          "name": "B3",
          "ticks": 365760,
          "time": 304.8,
          "velocity": 0.4015748031496063
        },
        {
          "duration": 0.19666666666665833,
          "durationTicks": 236,
          "midi": 57,
          "name": "A3",
          "ticks": 366480,
          "time": 305.40000000000003,
          "velocity": 0.4015748031496063
        },
        {
          "duration": 0.8000000000000114,
          "durationTicks": 960,
          "midi": 62,
          "name": "D4",
          "ticks": 366720,
          "time": 305.6,
          "velocity": 0.4015748031496063
        },
        {
          "duration": 0.6999999999999886,
          "durationTicks": 840,
          "midi": 60,
          "name": "C4",
          "ticks": 367680,
          "time": 306.40000000000003,
          "velocity": 0.4015748031496063
        },
        {
          "duration": 0.3333333333333144,
          "durationTicks": 400,
          "midi": 59,
          "name": "B3",
          "ticks": 368640,
          "time": 307.20000000000005,
          "velocity": 0.4015748031496063
        },
        {
          "duration": 0.33333333333337123,
          "durationTicks": 400,
          "midi": 64,
          "name": "E4",
          "ticks": 369600,
          "time": 308,
          "velocity": 0.4015748031496063
        },
        {
          "duration": 0.33333333333337123,
          "durationTicks": 400,
          "midi": 60,
          "name": "C4",
          "ticks": 370560,
          "time": 308.8,
          "velocity": 0.4015748031496063
        },
        {
          "duration": 0.33333333333337123,
          "durationTicks": 400,
          "midi": 62,
          "name": "D4",
          "ticks": 371520,
          "time": 309.6,
          "velocity": 0.4015748031496063
        },
        {
          "duration": 0.06666666666660603,
          "durationTicks": 80,
          "midi": 62,
          "name": "D4",
          "ticks": 372240,
          "time": 310.20000000000005,
          "velocity": 0.4015748031496063
        },
        {
          "duration": 0.5999999999999659,
          "durationTicks": 720,
          "midi": 67,
          "name": "G4",
          "ticks": 372480,
          "time": 310.40000000000003,
          "velocity": 0.4015748031496063
        },
        {
          "duration": 0.19666666666671517,
          "durationTicks": 236,
          "midi": 66,
          "name": "F#4",
          "ticks": 373200,
          "time": 311,
          "velocity": 0.4015748031496063
        },
        {
          "duration": 0.5999999999999659,
          "durationTicks": 720,
          "midi": 71,
          "name": "B4",
          "ticks": 373440,
          "time": 311.20000000000005,
          "velocity": 0.4015748031496063
        },
        {
          "duration": 0.19666666666665833,
          "durationTicks": 236,
          "midi": 69,
          "name": "A4",
          "ticks": 374160,
          "time": 311.8,
          "velocity": 0.4015748031496063
        },
        {
          "duration": 0.8000000000000114,
          "durationTicks": 960,
          "midi": 74,
          "name": "D5",
          "ticks": 374400,
          "time": 312,
          "velocity": 0.4015748031496063
        },
        {
          "duration": 0.6999999999999886,
          "durationTicks": 840,
          "midi": 72,
          "name": "C5",
          "ticks": 375360,
          "time": 312.8,
          "velocity": 0.4015748031496063
        },
        {
          "duration": 0.10000000000002274,
          "durationTicks": 120,
          "midi": 71,
          "name": "B4",
          "ticks": 376320,
          "time": 313.6,
          "velocity": 0.4015748031496063
        },
        {
          "duration": 0.10000000000002274,
          "durationTicks": 120,
          "midi": 68,
          "name": "G#4",
          "ticks": 376800,
          "time": 314,
          "velocity": 0.4015748031496063
        },
        {
          "duration": 0.0999999999999659,
          "durationTicks": 120,
          "midi": 68,
          "name": "G#4",
          "ticks": 377280,
          "time": 314.40000000000003,
          "velocity": 0.4015748031496063
        },
        {
          "duration": 0.0999999999999659,
          "durationTicks": 120,
          "midi": 69,
          "name": "A4",
          "ticks": 378240,
          "time": 315.20000000000005,
          "velocity": 0.4015748031496063
        },
        {
          "duration": 0.10000000000002274,
          "durationTicks": 120,
          "midi": 69,
          "name": "A4",
          "ticks": 378720,
          "time": 315.6,
          "velocity": 0.4015748031496063
        },
        {
          "duration": 0.10000000000002274,
          "durationTicks": 120,
          "midi": 69,
          "name": "A4",
          "ticks": 379200,
          "time": 316,
          "velocity": 0.4015748031496063
        },
        {
          "duration": 0.10000000000002274,
          "durationTicks": 120,
          "midi": 71,
          "name": "B4",
          "ticks": 380160,
          "time": 316.8,
          "velocity": 0.4015748031496063
        },
        {
          "duration": 0.0999999999999659,
          "durationTicks": 120,
          "midi": 71,
          "name": "B4",
          "ticks": 380640,
          "time": 317.20000000000005,
          "velocity": 0.4015748031496063
        },
        {
          "duration": 0.10000000000002274,
          "durationTicks": 120,
          "midi": 71,
          "name": "B4",
          "ticks": 381120,
          "time": 317.6,
          "velocity": 0.4015748031496063
        },
        {
          "duration": 0.7000000000000455,
          "durationTicks": 840,
          "midi": 55,
          "name": "G3",
          "ticks": 384000,
          "time": 320,
          "velocity": 0.8267716535433071
        },
        {
          "duration": 0.6999999999999886,
          "durationTicks": 840,
          "midi": 55,
          "name": "G3",
          "ticks": 384960,
          "time": 320.8,
          "velocity": 0.8267716535433071
        },
        {
          "duration": 0.6999999999999886,
          "durationTicks": 840,
          "midi": 55,
          "name": "G3",
          "ticks": 385920,
          "time": 321.6,
          "velocity": 0.8267716535433071
        },
        {
          "duration": 0.6999999999999886,
          "durationTicks": 840,
          "midi": 55,
          "name": "G3",
          "ticks": 386880,
          "time": 322.40000000000003,
          "velocity": 0.8267716535433071
        },
        {
          "duration": 0.6999999999999886,
          "durationTicks": 840,
          "midi": 55,
          "name": "G3",
          "ticks": 387840,
          "time": 323.20000000000005,
          "velocity": 0.8267716535433071
        },
        {
          "duration": 0.7000000000000455,
          "durationTicks": 840,
          "midi": 56,
          "name": "G#3",
          "ticks": 388800,
          "time": 324,
          "velocity": 0.8267716535433071
        },
        {
          "duration": 0.6999999999999886,
          "durationTicks": 840,
          "midi": 57,
          "name": "A3",
          "ticks": 389760,
          "time": 324.8,
          "velocity": 0.8267716535433071
        },
        {
          "duration": 0.6999999999999886,
          "durationTicks": 840,
          "midi": 59,
          "name": "B3",
          "ticks": 390720,
          "time": 325.6,
          "velocity": 0.8267716535433071
        },
        {
          "duration": 0.19666666666665833,
          "durationTicks": 236,
          "midi": 60,
          "name": "C4",
          "ticks": 391680,
          "time": 326.40000000000003,
          "velocity": 0.8267716535433071
        },
        {
          "duration": 0.19666666666665833,
          "durationTicks": 236,
          "midi": 60,
          "name": "C4",
          "ticks": 391920,
          "time": 326.6,
          "velocity": 0.8267716535433071
        },
        {
          "duration": 0.19666666666665833,
          "durationTicks": 236,
          "midi": 60,
          "name": "C4",
          "ticks": 392160,
          "time": 326.8,
          "velocity": 0.8267716535433071
        },
        {
          "duration": 0.19666666666671517,
          "durationTicks": 236,
          "midi": 60,
          "name": "C4",
          "ticks": 392400,
          "time": 327,
          "velocity": 0.8267716535433071
        },
        {
          "duration": 0.19666666666665833,
          "durationTicks": 236,
          "midi": 60,
          "name": "C4",
          "ticks": 392640,
          "time": 327.20000000000005,
          "velocity": 0.8267716535433071
        },
        {
          "duration": 0.19666666666665833,
          "durationTicks": 236,
          "midi": 60,
          "name": "C4",
          "ticks": 392880,
          "time": 327.40000000000003,
          "velocity": 0.8267716535433071
        },
        {
          "duration": 0.19666666666665833,
          "durationTicks": 236,
          "midi": 60,
          "name": "C4",
          "ticks": 393120,
          "time": 327.6,
          "velocity": 0.8267716535433071
        },
        {
          "duration": 0.19666666666665833,
          "durationTicks": 236,
          "midi": 60,
          "name": "C4",
          "ticks": 393360,
          "time": 327.8,
          "velocity": 0.8267716535433071
        },
        {
          "duration": 0.19666666666671517,
          "durationTicks": 236,
          "midi": 60,
          "name": "C4",
          "ticks": 393600,
          "time": 328,
          "velocity": 0.8267716535433071
        },
        {
          "duration": 0.19666666666665833,
          "durationTicks": 236,
          "midi": 60,
          "name": "C4",
          "ticks": 393840,
          "time": 328.20000000000005,
          "velocity": 0.8267716535433071
        },
        {
          "duration": 0.19666666666665833,
          "durationTicks": 236,
          "midi": 60,
          "name": "C4",
          "ticks": 394080,
          "time": 328.40000000000003,
          "velocity": 0.8267716535433071
        },
        {
          "duration": 0.19666666666665833,
          "durationTicks": 236,
          "midi": 60,
          "name": "C4",
          "ticks": 394320,
          "time": 328.6,
          "velocity": 0.8267716535433071
        },
        {
          "duration": 0.19666666666665833,
          "durationTicks": 236,
          "midi": 60,
          "name": "C4",
          "ticks": 394560,
          "time": 328.8,
          "velocity": 0.8267716535433071
        },
        {
          "duration": 0.19666666666671517,
          "durationTicks": 236,
          "midi": 60,
          "name": "C4",
          "ticks": 394800,
          "time": 329,
          "velocity": 0.8267716535433071
        },
        {
          "duration": 0.19666666666665833,
          "durationTicks": 236,
          "midi": 60,
          "name": "C4",
          "ticks": 395040,
          "time": 329.20000000000005,
          "velocity": 0.8267716535433071
        },
        {
          "duration": 0.19666666666665833,
          "durationTicks": 236,
          "midi": 60,
          "name": "C4",
          "ticks": 395280,
          "time": 329.40000000000003,
          "velocity": 0.8267716535433071
        },
        {
          "duration": 0.19666666666665833,
          "durationTicks": 236,
          "midi": 62,
          "name": "D4",
          "ticks": 395520,
          "time": 329.6,
          "velocity": 0.8267716535433071
        },
        {
          "duration": 0.19666666666665833,
          "durationTicks": 236,
          "midi": 62,
          "name": "D4",
          "ticks": 395760,
          "time": 329.8,
          "velocity": 0.8267716535433071
        },
        {
          "duration": 0.19666666666671517,
          "durationTicks": 236,
          "midi": 62,
          "name": "D4",
          "ticks": 396000,
          "time": 330,
          "velocity": 0.8267716535433071
        },
        {
          "duration": 0.19666666666665833,
          "durationTicks": 236,
          "midi": 62,
          "name": "D4",
          "ticks": 396240,
          "time": 330.20000000000005,
          "velocity": 0.8267716535433071
        },
        {
          "duration": 0.19666666666665833,
          "durationTicks": 236,
          "midi": 62,
          "name": "D4",
          "ticks": 396480,
          "time": 330.40000000000003,
          "velocity": 0.8267716535433071
        },
        {
          "duration": 0.19666666666665833,
          "durationTicks": 236,
          "midi": 62,
          "name": "D4",
          "ticks": 396720,
          "time": 330.6,
          "velocity": 0.8267716535433071
        },
        {
          "duration": 0.19666666666665833,
          "durationTicks": 236,
          "midi": 62,
          "name": "D4",
          "ticks": 396960,
          "time": 330.8,
          "velocity": 0.8267716535433071
        },
        {
          "duration": 0.19666666666671517,
          "durationTicks": 236,
          "midi": 62,
          "name": "D4",
          "ticks": 397200,
          "time": 331,
          "velocity": 0.8267716535433071
        },
        {
          "duration": 0.19666666666665833,
          "durationTicks": 236,
          "midi": 62,
          "name": "D4",
          "ticks": 397440,
          "time": 331.20000000000005,
          "velocity": 0.8267716535433071
        },
        {
          "duration": 0.19666666666665833,
          "durationTicks": 236,
          "midi": 62,
          "name": "D4",
          "ticks": 397680,
          "time": 331.40000000000003,
          "velocity": 0.8267716535433071
        },
        {
          "duration": 0.19666666666665833,
          "durationTicks": 236,
          "midi": 62,
          "name": "D4",
          "ticks": 397920,
          "time": 331.6,
          "velocity": 0.8267716535433071
        },
        {
          "duration": 0.19666666666665833,
          "durationTicks": 236,
          "midi": 62,
          "name": "D4",
          "ticks": 398160,
          "time": 331.8,
          "velocity": 0.8267716535433071
        },
        {
          "duration": 0.19666666666671517,
          "durationTicks": 236,
          "midi": 62,
          "name": "D4",
          "ticks": 398400,
          "time": 332,
          "velocity": 0.8267716535433071
        },
        {
          "duration": 0.19666666666665833,
          "durationTicks": 236,
          "midi": 62,
          "name": "D4",
          "ticks": 398640,
          "time": 332.20000000000005,
          "velocity": 0.8267716535433071
        },
        {
          "duration": 0.19666666666665833,
          "durationTicks": 236,
          "midi": 62,
          "name": "D4",
          "ticks": 398880,
          "time": 332.40000000000003,
          "velocity": 0.8267716535433071
        },
        {
          "duration": 0.19666666666665833,
          "durationTicks": 236,
          "midi": 62,
          "name": "D4",
          "ticks": 399120,
          "time": 332.6,
          "velocity": 0.8267716535433071
        },
        {
          "duration": 0.19666666666665833,
          "durationTicks": 236,
          "midi": 55,
          "name": "G3",
          "ticks": 399360,
          "time": 332.8,
          "velocity": 0.8267716535433071
        },
        {
          "duration": 0.19666666666665833,
          "durationTicks": 236,
          "midi": 67,
          "name": "G4",
          "ticks": 399360,
          "time": 332.8,
          "velocity": 0.8267716535433071
        },
        {
          "duration": 0.19666666666671517,
          "durationTicks": 236,
          "midi": 55,
          "name": "G3",
          "ticks": 399600,
          "time": 333,
          "velocity": 0.8267716535433071
        },
        {
          "duration": 0.19666666666671517,
          "durationTicks": 236,
          "midi": 67,
          "name": "G4",
          "ticks": 399600,
          "time": 333,
          "velocity": 0.8267716535433071
        },
        {
          "duration": 0.19666666666665833,
          "durationTicks": 236,
          "midi": 55,
          "name": "G3",
          "ticks": 399840,
          "time": 333.20000000000005,
          "velocity": 0.8267716535433071
        },
        {
          "duration": 0.19666666666665833,
          "durationTicks": 236,
          "midi": 67,
          "name": "G4",
          "ticks": 399840,
          "time": 333.20000000000005,
          "velocity": 0.8267716535433071
        },
        {
          "duration": 0.19666666666665833,
          "durationTicks": 236,
          "midi": 55,
          "name": "G3",
          "ticks": 400080,
          "time": 333.40000000000003,
          "velocity": 0.8267716535433071
        },
        {
          "duration": 0.19666666666665833,
          "durationTicks": 236,
          "midi": 67,
          "name": "G4",
          "ticks": 400080,
          "time": 333.40000000000003,
          "velocity": 0.8267716535433071
        },
        {
          "duration": 0.19666666666665833,
          "durationTicks": 236,
          "midi": 55,
          "name": "G3",
          "ticks": 400320,
          "time": 333.6,
          "velocity": 0.8267716535433071
        },
        {
          "duration": 0.19666666666665833,
          "durationTicks": 236,
          "midi": 67,
          "name": "G4",
          "ticks": 400320,
          "time": 333.6,
          "velocity": 0.8267716535433071
        },
        {
          "duration": 0.19666666666665833,
          "durationTicks": 236,
          "midi": 55,
          "name": "G3",
          "ticks": 400560,
          "time": 333.8,
          "velocity": 0.8267716535433071
        },
        {
          "duration": 0.19666666666665833,
          "durationTicks": 236,
          "midi": 67,
          "name": "G4",
          "ticks": 400560,
          "time": 333.8,
          "velocity": 0.8267716535433071
        },
        {
          "duration": 0.19666666666671517,
          "durationTicks": 236,
          "midi": 55,
          "name": "G3",
          "ticks": 400800,
          "time": 334,
          "velocity": 0.8267716535433071
        },
        {
          "duration": 0.19666666666671517,
          "durationTicks": 236,
          "midi": 67,
          "name": "G4",
          "ticks": 400800,
          "time": 334,
          "velocity": 0.8267716535433071
        },
        {
          "duration": 0.19666666666665833,
          "durationTicks": 236,
          "midi": 55,
          "name": "G3",
          "ticks": 401040,
          "time": 334.20000000000005,
          "velocity": 0.8267716535433071
        },
        {
          "duration": 0.19666666666665833,
          "durationTicks": 236,
          "midi": 67,
          "name": "G4",
          "ticks": 401040,
          "time": 334.20000000000005,
          "velocity": 0.8267716535433071
        },
        {
          "duration": 0.19666666666665833,
          "durationTicks": 236,
          "midi": 55,
          "name": "G3",
          "ticks": 401280,
          "time": 334.40000000000003,
          "velocity": 0.8267716535433071
        },
        {
          "duration": 0.19666666666665833,
          "durationTicks": 236,
          "midi": 67,
          "name": "G4",
          "ticks": 401280,
          "time": 334.40000000000003,
          "velocity": 0.8267716535433071
        },
        {
          "duration": 0.19666666666665833,
          "durationTicks": 236,
          "midi": 55,
          "name": "G3",
          "ticks": 401520,
          "time": 334.6,
          "velocity": 0.8267716535433071
        },
        {
          "duration": 0.19666666666665833,
          "durationTicks": 236,
          "midi": 67,
          "name": "G4",
          "ticks": 401520,
          "time": 334.6,
          "velocity": 0.8267716535433071
        },
        {
          "duration": 0.19666666666665833,
          "durationTicks": 236,
          "midi": 55,
          "name": "G3",
          "ticks": 401760,
          "time": 334.8,
          "velocity": 0.8267716535433071
        },
        {
          "duration": 0.19666666666665833,
          "durationTicks": 236,
          "midi": 67,
          "name": "G4",
          "ticks": 401760,
          "time": 334.8,
          "velocity": 0.8267716535433071
        },
        {
          "duration": 0.19666666666671517,
          "durationTicks": 236,
          "midi": 55,
          "name": "G3",
          "ticks": 402000,
          "time": 335,
          "velocity": 0.8267716535433071
        },
        {
          "duration": 0.19666666666671517,
          "durationTicks": 236,
          "midi": 67,
          "name": "G4",
          "ticks": 402000,
          "time": 335,
          "velocity": 0.8267716535433071
        },
        {
          "duration": 0.19666666666665833,
          "durationTicks": 236,
          "midi": 55,
          "name": "G3",
          "ticks": 402240,
          "time": 335.20000000000005,
          "velocity": 0.8267716535433071
        },
        {
          "duration": 0.19666666666665833,
          "durationTicks": 236,
          "midi": 67,
          "name": "G4",
          "ticks": 402240,
          "time": 335.20000000000005,
          "velocity": 0.8267716535433071
        },
        {
          "duration": 0.19666666666665833,
          "durationTicks": 236,
          "midi": 55,
          "name": "G3",
          "ticks": 402480,
          "time": 335.40000000000003,
          "velocity": 0.8267716535433071
        },
        {
          "duration": 0.19666666666665833,
          "durationTicks": 236,
          "midi": 67,
          "name": "G4",
          "ticks": 402480,
          "time": 335.40000000000003,
          "velocity": 0.8267716535433071
        },
        {
          "duration": 0.19666666666665833,
          "durationTicks": 236,
          "midi": 55,
          "name": "G3",
          "ticks": 402720,
          "time": 335.6,
          "velocity": 0.8267716535433071
        },
        {
          "duration": 0.19666666666665833,
          "durationTicks": 236,
          "midi": 67,
          "name": "G4",
          "ticks": 402720,
          "time": 335.6,
          "velocity": 0.8267716535433071
        },
        {
          "duration": 0.19666666666665833,
          "durationTicks": 236,
          "midi": 55,
          "name": "G3",
          "ticks": 402960,
          "time": 335.8,
          "velocity": 0.8267716535433071
        },
        {
          "duration": 0.19666666666665833,
          "durationTicks": 236,
          "midi": 67,
          "name": "G4",
          "ticks": 402960,
          "time": 335.8,
          "velocity": 0.8267716535433071
        },
        {
          "duration": 0.19666666666671517,
          "durationTicks": 236,
          "midi": 55,
          "name": "G3",
          "ticks": 403200,
          "time": 336,
          "velocity": 0.8267716535433071
        },
        {
          "duration": 0.19666666666671517,
          "durationTicks": 236,
          "midi": 67,
          "name": "G4",
          "ticks": 403200,
          "time": 336,
          "velocity": 0.8267716535433071
        },
        {
          "duration": 0.19666666666665833,
          "durationTicks": 236,
          "midi": 55,
          "name": "G3",
          "ticks": 403440,
          "time": 336.20000000000005,
          "velocity": 0.8267716535433071
        },
        {
          "duration": 0.19666666666665833,
          "durationTicks": 236,
          "midi": 67,
          "name": "G4",
          "ticks": 403440,
          "time": 336.20000000000005,
          "velocity": 0.8267716535433071
        },
        {
          "duration": 0.19666666666665833,
          "durationTicks": 236,
          "midi": 55,
          "name": "G3",
          "ticks": 403680,
          "time": 336.40000000000003,
          "velocity": 0.8267716535433071
        },
        {
          "duration": 0.19666666666665833,
          "durationTicks": 236,
          "midi": 67,
          "name": "G4",
          "ticks": 403680,
          "time": 336.40000000000003,
          "velocity": 0.8267716535433071
        },
        {
          "duration": 0.19666666666665833,
          "durationTicks": 236,
          "midi": 55,
          "name": "G3",
          "ticks": 403920,
          "time": 336.6,
          "velocity": 0.8267716535433071
        },
        {
          "duration": 0.19666666666665833,
          "durationTicks": 236,
          "midi": 67,
          "name": "G4",
          "ticks": 403920,
          "time": 336.6,
          "velocity": 0.8267716535433071
        },
        {
          "duration": 0.19666666666665833,
          "durationTicks": 236,
          "midi": 55,
          "name": "G3",
          "ticks": 404160,
          "time": 336.8,
          "velocity": 0.8267716535433071
        },
        {
          "duration": 0.19666666666665833,
          "durationTicks": 236,
          "midi": 67,
          "name": "G4",
          "ticks": 404160,
          "time": 336.8,
          "velocity": 0.8267716535433071
        },
        {
          "duration": 0.19666666666671517,
          "durationTicks": 236,
          "midi": 55,
          "name": "G3",
          "ticks": 404400,
          "time": 337,
          "velocity": 0.8267716535433071
        },
        {
          "duration": 0.19666666666671517,
          "durationTicks": 236,
          "midi": 67,
          "name": "G4",
          "ticks": 404400,
          "time": 337,
          "velocity": 0.8267716535433071
        },
        {
          "duration": 0.19666666666665833,
          "durationTicks": 236,
          "midi": 55,
          "name": "G3",
          "ticks": 404640,
          "time": 337.20000000000005,
          "velocity": 0.8267716535433071
        },
        {
          "duration": 0.19666666666665833,
          "durationTicks": 236,
          "midi": 67,
          "name": "G4",
          "ticks": 404640,
          "time": 337.20000000000005,
          "velocity": 0.8267716535433071
        },
        {
          "duration": 0.19666666666665833,
          "durationTicks": 236,
          "midi": 55,
          "name": "G3",
          "ticks": 404880,
          "time": 337.40000000000003,
          "velocity": 0.8267716535433071
        },
        {
          "duration": 0.19666666666665833,
          "durationTicks": 236,
          "midi": 67,
          "name": "G4",
          "ticks": 404880,
          "time": 337.40000000000003,
          "velocity": 0.8267716535433071
        },
        {
          "duration": 0.19666666666665833,
          "durationTicks": 236,
          "midi": 55,
          "name": "G3",
          "ticks": 405120,
          "time": 337.6,
          "velocity": 0.6771653543307087
        },
        {
          "duration": 0.19666666666665833,
          "durationTicks": 236,
          "midi": 67,
          "name": "G4",
          "ticks": 405120,
          "time": 337.6,
          "velocity": 0.6771653543307087
        },
        {
          "duration": 0.19666666666665833,
          "durationTicks": 236,
          "midi": 55,
          "name": "G3",
          "ticks": 405360,
          "time": 337.8,
          "velocity": 0.6771653543307087
        },
        {
          "duration": 0.19666666666665833,
          "durationTicks": 236,
          "midi": 67,
          "name": "G4",
          "ticks": 405360,
          "time": 337.8,
          "velocity": 0.6771653543307087
        },
        {
          "duration": 0.19666666666671517,
          "durationTicks": 236,
          "midi": 55,
          "name": "G3",
          "ticks": 405600,
          "time": 338,
          "velocity": 0.6771653543307087
        },
        {
          "duration": 0.19666666666671517,
          "durationTicks": 236,
          "midi": 67,
          "name": "G4",
          "ticks": 405600,
          "time": 338,
          "velocity": 0.6771653543307087
        },
        {
          "duration": 0.19666666666665833,
          "durationTicks": 236,
          "midi": 55,
          "name": "G3",
          "ticks": 405840,
          "time": 338.20000000000005,
          "velocity": 0.6771653543307087
        },
        {
          "duration": 0.19666666666665833,
          "durationTicks": 236,
          "midi": 67,
          "name": "G4",
          "ticks": 405840,
          "time": 338.20000000000005,
          "velocity": 0.6771653543307087
        },
        {
          "duration": 0.19666666666665833,
          "durationTicks": 236,
          "midi": 55,
          "name": "G3",
          "ticks": 406080,
          "time": 338.40000000000003,
          "velocity": 0.6771653543307087
        },
        {
          "duration": 0.19666666666665833,
          "durationTicks": 236,
          "midi": 67,
          "name": "G4",
          "ticks": 406080,
          "time": 338.40000000000003,
          "velocity": 0.6771653543307087
        },
        {
          "duration": 0.19666666666665833,
          "durationTicks": 236,
          "midi": 55,
          "name": "G3",
          "ticks": 406320,
          "time": 338.6,
          "velocity": 0.6771653543307087
        },
        {
          "duration": 0.19666666666665833,
          "durationTicks": 236,
          "midi": 67,
          "name": "G4",
          "ticks": 406320,
          "time": 338.6,
          "velocity": 0.6771653543307087
        },
        {
          "duration": 0.19666666666665833,
          "durationTicks": 236,
          "midi": 55,
          "name": "G3",
          "ticks": 406560,
          "time": 338.8,
          "velocity": 0.6771653543307087
        },
        {
          "duration": 0.19666666666665833,
          "durationTicks": 236,
          "midi": 67,
          "name": "G4",
          "ticks": 406560,
          "time": 338.8,
          "velocity": 0.6771653543307087
        },
        {
          "duration": 0.19666666666671517,
          "durationTicks": 236,
          "midi": 55,
          "name": "G3",
          "ticks": 406800,
          "time": 339,
          "velocity": 0.6771653543307087
        },
        {
          "duration": 0.19666666666671517,
          "durationTicks": 236,
          "midi": 67,
          "name": "G4",
          "ticks": 406800,
          "time": 339,
          "velocity": 0.6771653543307087
        },
        {
          "duration": 0.19666666666665833,
          "durationTicks": 236,
          "midi": 60,
          "name": "C4",
          "ticks": 407040,
          "time": 339.20000000000005,
          "velocity": 0.6771653543307087
        },
        {
          "duration": 0.19666666666665833,
          "durationTicks": 236,
          "midi": 60,
          "name": "C4",
          "ticks": 407280,
          "time": 339.40000000000003,
          "velocity": 0.6771653543307087
        },
        {
          "duration": 0.19666666666665833,
          "durationTicks": 236,
          "midi": 60,
          "name": "C4",
          "ticks": 407520,
          "time": 339.6,
          "velocity": 0.6771653543307087
        },
        {
          "duration": 0.19666666666665833,
          "durationTicks": 236,
          "midi": 60,
          "name": "C4",
          "ticks": 407760,
          "time": 339.8,
          "velocity": 0.6771653543307087
        },
        {
          "duration": 0.19666666666671517,
          "durationTicks": 236,
          "midi": 62,
          "name": "D4",
          "ticks": 408000,
          "time": 340,
          "velocity": 0.6771653543307087
        },
        {
          "duration": 0.19666666666665833,
          "durationTicks": 236,
          "midi": 62,
          "name": "D4",
          "ticks": 408240,
          "time": 340.20000000000005,
          "velocity": 0.6771653543307087
        },
        {
          "duration": 0.19666666666665833,
          "durationTicks": 236,
          "midi": 62,
          "name": "D4",
          "ticks": 408480,
          "time": 340.40000000000003,
          "velocity": 0.6771653543307087
        },
        {
          "duration": 0.19666666666665833,
          "durationTicks": 236,
          "midi": 62,
          "name": "D4",
          "ticks": 408720,
          "time": 340.6,
          "velocity": 0.6771653543307087
        },
        {
          "duration": 0.6000000000000227,
          "durationTicks": 720,
          "midi": 55,
          "name": "G3",
          "ticks": 408960,
          "time": 340.8,
          "velocity": 0.6771653543307087
        },
        {
          "duration": 0.19666666666665833,
          "durationTicks": 236,
          "midi": 54,
          "name": "F#3",
          "ticks": 409680,
          "time": 341.40000000000003,
          "velocity": 0.6771653543307087
        },
        {
          "duration": 0.30000000000001137,
          "durationTicks": 360,
          "midi": 57,
          "name": "A3",
          "ticks": 409920,
          "time": 341.6,
          "velocity": 0.6771653543307087
        },
        {
          "duration": 0.09666666666663559,
          "durationTicks": 116,
          "midi": 55,
          "name": "G3",
          "ticks": 410280,
          "time": 341.90000000000003,
          "velocity": 0.6771653543307087
        },
        {
          "duration": 0.30000000000001137,
          "durationTicks": 360,
          "midi": 60,
          "name": "C4",
          "ticks": 410400,
          "time": 342,
          "velocity": 0.6771653543307087
        },
        {
          "duration": 0.09666666666669244,
          "durationTicks": 116,
          "midi": 59,
          "name": "B3",
          "ticks": 410760,
          "time": 342.3,
          "velocity": 0.6771653543307087
        },
        {
          "duration": 0.5999999999999659,
          "durationTicks": 720,
          "midi": 57,
          "name": "A3",
          "ticks": 410880,
          "time": 342.40000000000003,
          "velocity": 0.6771653543307087
        },
        {
          "duration": 0.19666666666671517,
          "durationTicks": 236,
          "midi": 56,
          "name": "G#3",
          "ticks": 411600,
          "time": 343,
          "velocity": 0.6771653543307087
        },
        {
          "duration": 0.2999999999999545,
          "durationTicks": 360,
          "midi": 59,
          "name": "B3",
          "ticks": 411840,
          "time": 343.20000000000005,
          "velocity": 0.6771653543307087
        },
        {
          "duration": 0.09666666666669244,
          "durationTicks": 116,
          "midi": 57,
          "name": "A3",
          "ticks": 412200,
          "time": 343.5,
          "velocity": 0.6771653543307087
        },
        {
          "duration": 0.30000000000001137,
          "durationTicks": 360,
          "midi": 62,
          "name": "D4",
          "ticks": 412320,
          "time": 343.6,
          "velocity": 0.6771653543307087
        },
        {
          "duration": 0.09666666666663559,
          "durationTicks": 116,
          "midi": 60,
          "name": "C4",
          "ticks": 412680,
          "time": 343.90000000000003,
          "velocity": 0.6771653543307087
        },
        {
          "duration": 0.6000000000000227,
          "durationTicks": 720,
          "midi": 59,
          "name": "B3",
          "ticks": 412800,
          "time": 344,
          "velocity": 0.6771653543307087
        },
        {
          "duration": 0.19666666666665833,
          "durationTicks": 236,
          "midi": 58,
          "name": "A#3",
          "ticks": 413520,
          "time": 344.6,
          "velocity": 0.6771653543307087
        },
        {
          "duration": 0.30000000000001137,
          "durationTicks": 360,
          "midi": 60,
          "name": "C4",
          "ticks": 413760,
          "time": 344.8,
          "velocity": 0.6771653543307087
        },
        {
          "duration": 0.09666666666669244,
          "durationTicks": 116,
          "midi": 59,
          "name": "B3",
          "ticks": 414120,
          "time": 345.1,
          "velocity": 0.6771653543307087
        },
        {
          "duration": 0.2999999999999545,
          "durationTicks": 360,
          "midi": 64,
          "name": "E4",
          "ticks": 414240,
          "time": 345.20000000000005,
          "velocity": 0.6771653543307087
        },
        {
          "duration": 0.09666666666669244,
          "durationTicks": 116,
          "midi": 62,
          "name": "D4",
          "ticks": 414600,
          "time": 345.5,
          "velocity": 0.6771653543307087
        },
        {
          "duration": 0.33333333333337123,
          "durationTicks": 400,
          "midi": 60,
          "name": "C4",
          "ticks": 414720,
          "time": 345.6,
          "velocity": 0.6771653543307087
        },
        {
          "duration": 0.33333333333337123,
          "durationTicks": 400,
          "midi": 59,
          "name": "B3",
          "ticks": 415200,
          "time": 346,
          "velocity": 0.6771653543307087
        },
        {
          "duration": 0.3333333333333144,
          "durationTicks": 400,
          "midi": 60,
          "name": "C4",
          "ticks": 415680,
          "time": 346.40000000000003,
          "velocity": 0.6771653543307087
        },
        {
          "duration": 0.4000000000000341,
          "durationTicks": 480,
          "midi": 64,
          "name": "E4",
          "ticks": 416160,
          "time": 346.8,
          "velocity": 0.6771653543307087
        },
        {
          "duration": 0.19666666666665833,
          "durationTicks": 236,
          "midi": 64,
          "name": "E4",
          "ticks": 416640,
          "time": 347.20000000000005,
          "velocity": 0.6771653543307087
        },
        {
          "duration": 0.19666666666665833,
          "durationTicks": 236,
          "midi": 57,
          "name": "A3",
          "ticks": 416880,
          "time": 347.40000000000003,
          "velocity": 0.6771653543307087
        },
        {
          "duration": 0.19666666666665833,
          "durationTicks": 236,
          "midi": 58,
          "name": "A#3",
          "ticks": 417120,
          "time": 347.6,
          "velocity": 0.6771653543307087
        },
        {
          "duration": 0.19666666666665833,
          "durationTicks": 236,
          "midi": 58,
          "name": "A#3",
          "ticks": 417360,
          "time": 347.8,
          "velocity": 0.6771653543307087
        },
        {
          "duration": 0.19666666666671517,
          "durationTicks": 236,
          "midi": 57,
          "name": "A3",
          "ticks": 417600,
          "time": 348,
          "velocity": 0.6771653543307087
        },
        {
          "duration": 0.19666666666665833,
          "durationTicks": 236,
          "midi": 57,
          "name": "A3",
          "ticks": 417840,
          "time": 348.20000000000005,
          "velocity": 0.6771653543307087
        },
        {
          "duration": 0.19666666666665833,
          "durationTicks": 236,
          "midi": 58,
          "name": "A#3",
          "ticks": 418080,
          "time": 348.40000000000003,
          "velocity": 0.6771653543307087
        },
        {
          "duration": 0.19666666666665833,
          "durationTicks": 236,
          "midi": 58,
          "name": "A#3",
          "ticks": 418320,
          "time": 348.6,
          "velocity": 0.6771653543307087
        },
        {
          "duration": 0.33333333333337123,
          "durationTicks": 400,
          "midi": 57,
          "name": "A3",
          "ticks": 418560,
          "time": 348.8,
          "velocity": 0.6771653543307087
        },
        {
          "duration": 0.19999999999998863,
          "durationTicks": 240,
          "midi": 71,
          "name": "B4",
          "ticks": 442080,
          "time": 368.40000000000003,
          "velocity": 0.8267716535433071
        },
        {
          "duration": 0.19999999999998863,
          "durationTicks": 240,
          "midi": 70,
          "name": "A#4",
          "ticks": 442320,
          "time": 368.6,
          "velocity": 0.8267716535433071
        },
        {
          "duration": 0.19999999999998863,
          "durationTicks": 240,
          "midi": 71,
          "name": "B4",
          "ticks": 442560,
          "time": 368.8,
          "velocity": 0.8267716535433071
        },
        {
          "duration": 0.20000000000004547,
          "durationTicks": 240,
          "midi": 70,
          "name": "A#4",
          "ticks": 442800,
          "time": 369,
          "velocity": 0.8267716535433071
        },
        {
          "duration": 0.19999999999998863,
          "durationTicks": 240,
          "midi": 71,
          "name": "B4",
          "ticks": 443040,
          "time": 369.20000000000005,
          "velocity": 0.8267716535433071
        },
        {
          "duration": 0.19666666666665833,
          "durationTicks": 236,
          "midi": 68,
          "name": "G#4",
          "ticks": 443280,
          "time": 369.40000000000003,
          "velocity": 0.8267716535433071
        },
        {
          "duration": 0.19666666666665833,
          "durationTicks": 236,
          "midi": 69,
          "name": "A4",
          "ticks": 443520,
          "time": 369.6,
          "velocity": 0.8267716535433071
        },
        {
          "duration": 0.20000000000004547,
          "durationTicks": 240,
          "midi": 69,
          "name": "A4",
          "ticks": 444000,
          "time": 370,
          "velocity": 0.8267716535433071
        },
        {
          "duration": 0.19999999999998863,
          "durationTicks": 240,
          "midi": 68,
          "name": "G#4",
          "ticks": 444240,
          "time": 370.20000000000005,
          "velocity": 0.8267716535433071
        },
        {
          "duration": 0.19999999999998863,
          "durationTicks": 240,
          "midi": 69,
          "name": "A4",
          "ticks": 444480,
          "time": 370.40000000000003,
          "velocity": 0.8267716535433071
        },
        {
          "duration": 0.19999999999998863,
          "durationTicks": 240,
          "midi": 68,
          "name": "G#4",
          "ticks": 444720,
          "time": 370.6,
          "velocity": 0.8267716535433071
        },
        {
          "duration": 0.19999999999998863,
          "durationTicks": 240,
          "midi": 69,
          "name": "A4",
          "ticks": 444960,
          "time": 370.8,
          "velocity": 0.8267716535433071
        },
        {
          "duration": 0.19666666666671517,
          "durationTicks": 236,
          "midi": 66,
          "name": "F#4",
          "ticks": 445200,
          "time": 371,
          "velocity": 0.8267716535433071
        },
        {
          "duration": 0.19666666666665833,
          "durationTicks": 236,
          "midi": 67,
          "name": "G4",
          "ticks": 445440,
          "time": 371.20000000000005,
          "velocity": 0.8267716535433071
        },
        {
          "duration": 0.19666666666665833,
          "durationTicks": 236,
          "midi": 64,
          "name": "E4",
          "ticks": 445920,
          "time": 371.6,
          "velocity": 0.8267716535433071
        },
        {
          "duration": 0.19666666666665833,
          "durationTicks": 236,
          "midi": 64,
          "name": "E4",
          "ticks": 446160,
          "time": 371.8,
          "velocity": 0.8267716535433071
        },
        {
          "duration": 0.19666666666671517,
          "durationTicks": 236,
          "midi": 60,
          "name": "C4",
          "ticks": 446400,
          "time": 372,
          "velocity": 0.8267716535433071
        },
        {
          "duration": 0.19666666666665833,
          "durationTicks": 236,
          "midi": 60,
          "name": "C4",
          "ticks": 446640,
          "time": 372.20000000000005,
          "velocity": 0.8267716535433071
        },
        {
          "duration": 0.19666666666665833,
          "durationTicks": 236,
          "midi": 62,
          "name": "D4",
          "ticks": 446880,
          "time": 372.40000000000003,
          "velocity": 0.8267716535433071
        },
        {
          "duration": 0.19666666666665833,
          "durationTicks": 236,
          "midi": 62,
          "name": "D4",
          "ticks": 447120,
          "time": 372.6,
          "velocity": 0.8267716535433071
        },
        {
          "duration": 0.19666666666665833,
          "durationTicks": 236,
          "midi": 67,
          "name": "G4",
          "ticks": 447360,
          "time": 372.8,
          "velocity": 0.8267716535433071
        },
        {
          "duration": 0.19999999999998863,
          "durationTicks": 240,
          "midi": 71,
          "name": "B4",
          "ticks": 447840,
          "time": 373.20000000000005,
          "velocity": 0.8267716535433071
        },
        {
          "duration": 0.19999999999998863,
          "durationTicks": 240,
          "midi": 70,
          "name": "A#4",
          "ticks": 448080,
          "time": 373.40000000000003,
          "velocity": 0.8267716535433071
        },
        {
          "duration": 0.19999999999998863,
          "durationTicks": 240,
          "midi": 71,
          "name": "B4",
          "ticks": 448320,
          "time": 373.6,
          "velocity": 0.8267716535433071
        },
        {
          "duration": 0.19999999999998863,
          "durationTicks": 240,
          "midi": 70,
          "name": "A#4",
          "ticks": 448560,
          "time": 373.8,
          "velocity": 0.8267716535433071
        },
        {
          "duration": 0.20000000000004547,
          "durationTicks": 240,
          "midi": 71,
          "name": "B4",
          "ticks": 448800,
          "time": 374,
          "velocity": 0.8267716535433071
        },
        {
          "duration": 0.19666666666665833,
          "durationTicks": 236,
          "midi": 68,
          "name": "G#4",
          "ticks": 449040,
          "time": 374.20000000000005,
          "velocity": 0.8267716535433071
        },
        {
          "duration": 0.19666666666665833,
          "durationTicks": 236,
          "midi": 69,
          "name": "A4",
          "ticks": 449280,
          "time": 374.40000000000003,
          "velocity": 0.8267716535433071
        },
        {
          "duration": 0.19999999999998863,
          "durationTicks": 240,
          "midi": 69,
          "name": "A4",
          "ticks": 449760,
          "time": 374.8,
          "velocity": 0.8267716535433071
        },
        {
          "duration": 0.20000000000004547,
          "durationTicks": 240,
          "midi": 68,
          "name": "G#4",
          "ticks": 450000,
          "time": 375,
          "velocity": 0.8267716535433071
        },
        {
          "duration": 0.19999999999998863,
          "durationTicks": 240,
          "midi": 69,
          "name": "A4",
          "ticks": 450240,
          "time": 375.20000000000005,
          "velocity": 0.8267716535433071
        },
        {
          "duration": 0.19999999999998863,
          "durationTicks": 240,
          "midi": 68,
          "name": "G#4",
          "ticks": 450480,
          "time": 375.40000000000003,
          "velocity": 0.8267716535433071
        },
        {
          "duration": 0.19999999999998863,
          "durationTicks": 240,
          "midi": 69,
          "name": "A4",
          "ticks": 450720,
          "time": 375.6,
          "velocity": 0.8267716535433071
        },
        {
          "duration": 0.19666666666665833,
          "durationTicks": 236,
          "midi": 66,
          "name": "F#4",
          "ticks": 450960,
          "time": 375.8,
          "velocity": 0.8267716535433071
        },
        {
          "duration": 0.19666666666671517,
          "durationTicks": 236,
          "midi": 67,
          "name": "G4",
          "ticks": 451200,
          "time": 376,
          "velocity": 0.8267716535433071
        },
        {
          "duration": 0.19666666666665833,
          "durationTicks": 236,
          "midi": 64,
          "name": "E4",
          "ticks": 451680,
          "time": 376.40000000000003,
          "velocity": 0.8267716535433071
        },
        {
          "duration": 0.19666666666665833,
          "durationTicks": 236,
          "midi": 64,
          "name": "E4",
          "ticks": 451920,
          "time": 376.6,
          "velocity": 0.8267716535433071
        },
        {
          "duration": 0.19666666666665833,
          "durationTicks": 236,
          "midi": 60,
          "name": "C4",
          "ticks": 452160,
          "time": 376.8,
          "velocity": 0.8267716535433071
        },
        {
          "duration": 0.19666666666671517,
          "durationTicks": 236,
          "midi": 60,
          "name": "C4",
          "ticks": 452400,
          "time": 377,
          "velocity": 0.8267716535433071
        },
        {
          "duration": 0.19666666666665833,
          "durationTicks": 236,
          "midi": 62,
          "name": "D4",
          "ticks": 452640,
          "time": 377.20000000000005,
          "velocity": 0.8267716535433071
        },
        {
          "duration": 0.19666666666665833,
          "durationTicks": 236,
          "midi": 62,
          "name": "D4",
          "ticks": 452880,
          "time": 377.40000000000003,
          "velocity": 0.8267716535433071
        },
        {
          "duration": 0.33333333333337123,
          "durationTicks": 400,
          "midi": 67,
          "name": "G4",
          "ticks": 453120,
          "time": 377.6,
          "velocity": 0.8267716535433071
        },
        {
          "duration": 0.33333333333337123,
          "durationTicks": 400,
          "midi": 67,
          "name": "G4",
          "ticks": 453600,
          "time": 378,
          "velocity": 0.8267716535433071
        },
        {
          "duration": 0.33333333333337123,
          "durationTicks": 400,
          "midi": 62,
          "name": "D4",
          "ticks": 454560,
          "time": 378.8,
          "velocity": 0.8267716535433071
        },
        {
          "duration": 0.33333333333337123,
          "durationTicks": 400,
          "midi": 67,
          "name": "G4",
          "ticks": 455520,
          "time": 379.6,
          "velocity": 0.8267716535433071
        },
        {
          "duration": 0.3333333333333144,
          "durationTicks": 400,
          "midi": 62,
          "name": "D4",
          "ticks": 456480,
          "time": 380.40000000000003,
          "velocity": 0.8267716535433071
        },
        {
          "duration": 0.3333333333333144,
          "durationTicks": 400,
          "midi": 67,
          "name": "G4",
          "ticks": 457440,
          "time": 381.20000000000005,
          "velocity": 0.8267716535433071
        },
        {
          "duration": 0.33333333333337123,
          "durationTicks": 400,
          "midi": 62,
          "name": "D4",
          "ticks": 458400,
          "time": 382,
          "velocity": 0.8267716535433071
        },
        {
          "duration": 0.3333333333333144,
          "durationTicks": 400,
          "midi": 67,
          "name": "G4",
          "ticks": 458880,
          "time": 382.40000000000003,
          "velocity": 0.8267716535433071
        },
        {
          "duration": 0.33333333333337123,
          "durationTicks": 400,
          "midi": 67,
          "name": "G4",
          "ticks": 459360,
          "time": 382.8,
          "velocity": 0.8267716535433071
        },
        {
          "duration": 0.3333333333333144,
          "durationTicks": 400,
          "midi": 55,
          "name": "G3",
          "ticks": 459840,
          "time": 383.20000000000005,
          "velocity": 0.8267716535433071
        },
        {
          "duration": 0.3333333333333144,
          "durationTicks": 400,
          "midi": 63,
          "name": "D#4",
          "ticks": 464640,
          "time": 387.20000000000005,
          "velocity": 0.4015748031496063
        },
        {
          "duration": 0.33333333333337123,
          "durationTicks": 400,
          "midi": 58,
          "name": "A#3",
          "ticks": 466560,
          "time": 388.8,
          "velocity": 0.4015748031496063
        },
        {
          "duration": 0.3333333333333144,
          "durationTicks": 400,
          "midi": 51,
          "name": "D#3",
          "ticks": 468480,
          "time": 390.40000000000003,
          "velocity": 0.4015748031496063
        },
        {
          "duration": 0.33333333333337123,
          "durationTicks": 400,
          "midi": 58,
          "name": "A#3",
          "ticks": 470400,
          "time": 392,
          "velocity": 0.4015748031496063
        },
        {
          "duration": 0.33333333333337123,
          "durationTicks": 400,
          "midi": 63,
          "name": "D#4",
          "ticks": 472320,
          "time": 393.6,
          "velocity": 0.4015748031496063
        },
        {
          "duration": 0.3333333333333144,
          "durationTicks": 400,
          "midi": 58,
          "name": "A#3",
          "ticks": 474240,
          "time": 395.20000000000005,
          "velocity": 0.4015748031496063
        },
        {
          "duration": 0.33333333333337123,
          "durationTicks": 400,
          "midi": 63,
          "name": "D#4",
          "ticks": 476160,
          "time": 396.8,
          "velocity": 0.4015748031496063
        },
        {
          "duration": 0.19666666666665833,
          "durationTicks": 236,
          "midi": 56,
          "name": "G#3",
          "ticks": 479040,
          "time": 399.20000000000005,
          "velocity": 0.4015748031496063
        },
        {
          "duration": 0.19666666666665833,
          "durationTicks": 236,
          "midi": 58,
          "name": "A#3",
          "ticks": 479040,
          "time": 399.20000000000005,
          "velocity": 0.4015748031496063
        },
        {
          "duration": 0.19666666666665833,
          "durationTicks": 236,
          "midi": 56,
          "name": "G#3",
          "ticks": 479520,
          "time": 399.6,
          "velocity": 0.4015748031496063
        },
        {
          "duration": 0.19666666666665833,
          "durationTicks": 236,
          "midi": 58,
          "name": "A#3",
          "ticks": 479520,
          "time": 399.6,
          "velocity": 0.4015748031496063
        },
        {
          "duration": 0.33333333333337123,
          "durationTicks": 400,
          "midi": 55,
          "name": "G3",
          "ticks": 480000,
          "time": 400,
          "velocity": 0.4015748031496063
        },
        {
          "duration": 0.33333333333337123,
          "durationTicks": 400,
          "midi": 58,
          "name": "A#3",
          "ticks": 480000,
          "time": 400,
          "velocity": 0.4015748031496063
        },
        {
          "duration": 0.19666666666665833,
          "durationTicks": 236,
          "midi": 56,
          "name": "G#3",
          "ticks": 482880,
          "time": 402.40000000000003,
          "velocity": 0.4015748031496063
        },
        {
          "duration": 0.19666666666665833,
          "durationTicks": 236,
          "midi": 58,
          "name": "A#3",
          "ticks": 482880,
          "time": 402.40000000000003,
          "velocity": 0.4015748031496063
        },
        {
          "duration": 0.19666666666665833,
          "durationTicks": 236,
          "midi": 56,
          "name": "G#3",
          "ticks": 483360,
          "time": 402.8,
          "velocity": 0.4015748031496063
        },
        {
          "duration": 0.19666666666665833,
          "durationTicks": 236,
          "midi": 58,
          "name": "A#3",
          "ticks": 483360,
          "time": 402.8,
          "velocity": 0.4015748031496063
        },
        {
          "duration": 0.3333333333333144,
          "durationTicks": 400,
          "midi": 55,
          "name": "G3",
          "ticks": 483840,
          "time": 403.20000000000005,
          "velocity": 0.4015748031496063
        },
        {
          "duration": 0.3333333333333144,
          "durationTicks": 400,
          "midi": 58,
          "name": "A#3",
          "ticks": 483840,
          "time": 403.20000000000005,
          "velocity": 0.4015748031496063
        },
        {
          "duration": 0.33333333333337123,
          "durationTicks": 400,
          "midi": 68,
          "name": "G#4",
          "ticks": 484800,
          "time": 404,
          "velocity": 0.8267716535433071
        },
        {
          "duration": 0.19999999999998863,
          "durationTicks": 240,
          "midi": 67,
          "name": "G4",
          "ticks": 485760,
          "time": 404.8,
          "velocity": 0.8267716535433071
        },
        {
          "duration": 0.19666666666671517,
          "durationTicks": 236,
          "midi": 70,
          "name": "A#4",
          "ticks": 486000,
          "time": 405,
          "velocity": 0.8267716535433071
        },
        {
          "duration": 0.06666666666660603,
          "durationTicks": 80,
          "midi": 67,
          "name": "G4",
          "ticks": 486240,
          "time": 405.20000000000005,
          "velocity": 0.8267716535433071
        },
        {
          "duration": 0.06666666666666288,
          "durationTicks": 80,
          "midi": 63,
          "name": "D#4",
          "ticks": 486480,
          "time": 405.40000000000003,
          "velocity": 0.8267716535433071
        },
        {
          "duration": 0.06666666666666288,
          "durationTicks": 80,
          "midi": 62,
          "name": "D4",
          "ticks": 486720,
          "time": 405.6,
          "velocity": 0.8267716535433071
        },
        {
          "duration": 0.06666666666666288,
          "durationTicks": 80,
          "midi": 63,
          "name": "D#4",
          "ticks": 486960,
          "time": 405.8,
          "velocity": 0.8267716535433071
        },
        {
          "duration": 0.06666666666666288,
          "durationTicks": 80,
          "midi": 65,
          "name": "F4",
          "ticks": 487200,
          "time": 406,
          "velocity": 0.8267716535433071
        },
        {
          "duration": 0.06666666666660603,
          "durationTicks": 80,
          "midi": 67,
          "name": "G4",
          "ticks": 487440,
          "time": 406.20000000000005,
          "velocity": 0.8267716535433071
        },
        {
          "duration": 0.3333333333333144,
          "durationTicks": 400,
          "midi": 63,
          "name": "D#4",
          "ticks": 487680,
          "time": 406.40000000000003,
          "velocity": 0.8267716535433071
        },
        {
          "duration": 0.3333333333333144,
          "durationTicks": 400,
          "midi": 70,
          "name": "A#4",
          "ticks": 488640,
          "time": 407.20000000000005,
          "velocity": 0.8267716535433071
        },
        {
          "duration": 0.20000000000004547,
          "durationTicks": 240,
          "midi": 68,
          "name": "G#4",
          "ticks": 489600,
          "time": 408,
          "velocity": 0.8267716535433071
        },
        {
          "duration": 0.19666666666665833,
          "durationTicks": 236,
          "midi": 72,
          "name": "C5",
          "ticks": 489840,
          "time": 408.20000000000005,
          "velocity": 0.8267716535433071
        },
        {
          "duration": 0.06666666666666288,
          "durationTicks": 80,
          "midi": 68,
          "name": "G#4",
          "ticks": 490080,
          "time": 408.40000000000003,
          "velocity": 0.8267716535433071
        },
        {
          "duration": 0.06666666666666288,
          "durationTicks": 80,
          "midi": 65,
          "name": "F4",
          "ticks": 490320,
          "time": 408.6,
          "velocity": 0.8267716535433071
        },
        {
          "duration": 0.06666666666666288,
          "durationTicks": 80,
          "midi": 64,
          "name": "E4",
          "ticks": 490560,
          "time": 408.8,
          "velocity": 0.8267716535433071
        },
        {
          "duration": 0.06666666666666288,
          "durationTicks": 80,
          "midi": 65,
          "name": "F4",
          "ticks": 490800,
          "time": 409,
          "velocity": 0.8267716535433071
        },
        {
          "duration": 0.06666666666660603,
          "durationTicks": 80,
          "midi": 67,
          "name": "G4",
          "ticks": 491040,
          "time": 409.20000000000005,
          "velocity": 0.8267716535433071
        },
        {
          "duration": 0.06666666666666288,
          "durationTicks": 80,
          "midi": 69,
          "name": "A4",
          "ticks": 491280,
          "time": 409.40000000000003,
          "velocity": 0.8267716535433071
        },
        {
          "duration": 0.3333333333333144,
          "durationTicks": 400,
          "midi": 65,
          "name": "F4",
          "ticks": 491520,
          "time": 409.6,
          "velocity": 0.8267716535433071
        },
        {
          "duration": 0.3333333333333144,
          "durationTicks": 400,
          "midi": 72,
          "name": "C5",
          "ticks": 492480,
          "time": 410.40000000000003,
          "velocity": 0.8267716535433071
        },
        {
          "duration": 0.19999999999998863,
          "durationTicks": 240,
          "midi": 70,
          "name": "A#4",
          "ticks": 493440,
          "time": 411.20000000000005,
          "velocity": 0.8267716535433071
        },
        {
          "duration": 0.1966666666666015,
          "durationTicks": 236,
          "midi": 74,
          "name": "D5",
          "ticks": 493680,
          "time": 411.40000000000003,
          "velocity": 0.8267716535433071
        },
        {
          "duration": 0.06666666666671972,
          "durationTicks": 80,
          "midi": 70,
          "name": "A#4",
          "ticks": 493920,
          "time": 411.6,
          "velocity": 0.8267716535433071
        },
        {
          "duration": 0.06666666666671972,
          "durationTicks": 80,
          "midi": 67,
          "name": "G4",
          "ticks": 494160,
          "time": 411.8,
          "velocity": 0.8267716535433071
        },
        {
          "duration": 0.06666666666671972,
          "durationTicks": 80,
          "midi": 66,
          "name": "F#4",
          "ticks": 494400,
          "time": 412,
          "velocity": 0.8267716535433071
        },
        {
          "duration": 0.06666666666666288,
          "durationTicks": 80,
          "midi": 67,
          "name": "G4",
          "ticks": 494640,
          "time": 412.20000000000005,
          "velocity": 0.8267716535433071
        },
        {
          "duration": 0.06666666666666288,
          "durationTicks": 80,
          "midi": 69,
          "name": "A4",
          "ticks": 494880,
          "time": 412.40000000000003,
          "velocity": 0.8267716535433071
        },
        {
          "duration": 0.06666666666671972,
          "durationTicks": 80,
          "midi": 70,
          "name": "A#4",
          "ticks": 495120,
          "time": 412.6,
          "velocity": 0.8267716535433071
        },
        {
          "duration": 0.3333333333333144,
          "durationTicks": 400,
          "midi": 67,
          "name": "G4",
          "ticks": 495360,
          "time": 412.8,
          "velocity": 0.8267716535433071
        },
        {
          "duration": 0.19999999999998863,
          "durationTicks": 240,
          "midi": 70,
          "name": "A#4",
          "ticks": 496320,
          "time": 413.6,
          "velocity": 0.8267716535433071
        },
        {
          "duration": 0.19666666666665833,
          "durationTicks": 236,
          "midi": 73,
          "name": "C#5",
          "ticks": 496560,
          "time": 413.8,
          "velocity": 0.8267716535433071
        },
        {
          "duration": 0.06666666666671972,
          "durationTicks": 80,
          "midi": 70,
          "name": "A#4",
          "ticks": 496800,
          "time": 414,
          "velocity": 0.8267716535433071
        },
        {
          "duration": 0.06666666666666288,
          "durationTicks": 80,
          "midi": 68,
          "name": "G#4",
          "ticks": 497040,
          "time": 414.20000000000005,
          "velocity": 0.8267716535433071
        },
        {
          "duration": 0.19999999999998863,
          "durationTicks": 240,
          "midi": 67,
          "name": "G4",
          "ticks": 497280,
          "time": 414.40000000000003,
          "velocity": 0.8267716535433071
        },
        {
          "duration": 0.1966666666666015,
          "durationTicks": 236,
          "midi": 70,
          "name": "A#4",
          "ticks": 497520,
          "time": 414.6,
          "velocity": 0.8267716535433071
        },
        {
          "duration": 0.06666666666671972,
          "durationTicks": 80,
          "midi": 67,
          "name": "G4",
          "ticks": 497760,
          "time": 414.8,
          "velocity": 0.8267716535433071
        },
        {
          "duration": 0.06666666666671972,
          "durationTicks": 80,
          "midi": 65,
          "name": "F4",
          "ticks": 498000,
          "time": 415,
          "velocity": 0.8267716535433071
        },
        {
          "duration": 0.1966666666666015,
          "durationTicks": 236,
          "midi": 64,
          "name": "E4",
          "ticks": 498240,
          "time": 415.20000000000005,
          "velocity": 0.8267716535433071
        },
        {
          "duration": 0.1966666666666015,
          "durationTicks": 236,
          "midi": 67,
          "name": "G4",
          "ticks": 498480,
          "time": 415.40000000000003,
          "velocity": 0.8267716535433071
        },
        {
          "duration": 0.1966666666666015,
          "durationTicks": 236,
          "midi": 60,
          "name": "C4",
          "ticks": 498720,
          "time": 415.6,
          "velocity": 0.8267716535433071
        },
        {
          "duration": 0.19666666666665833,
          "durationTicks": 236,
          "midi": 64,
          "name": "E4",
          "ticks": 498960,
          "time": 415.8,
          "velocity": 0.8267716535433071
        },
        {
          "duration": 0.3333333333333144,
          "durationTicks": 400,
          "midi": 65,
          "name": "F4",
          "ticks": 499200,
          "time": 416,
          "velocity": 0.8267716535433071
        },
        {
          "duration": 0.3333333333333144,
          "durationTicks": 400,
          "midi": 53,
          "name": "F3",
          "ticks": 499680,
          "time": 416.40000000000003,
          "velocity": 0.8267716535433071
        },
        {
          "duration": 0.19999999999998863,
          "durationTicks": 240,
          "midi": 68,
          "name": "G#4",
          "ticks": 500160,
          "time": 416.8,
          "velocity": 0.8267716535433071
        },
        {
          "duration": 0.19666666666665833,
          "durationTicks": 236,
          "midi": 72,
          "name": "C5",
          "ticks": 500400,
          "time": 417,
          "velocity": 0.8267716535433071
        },
        {
          "duration": 0.06666666666666288,
          "durationTicks": 80,
          "midi": 68,
          "name": "G#4",
          "ticks": 500640,
          "time": 417.20000000000005,
          "velocity": 0.8267716535433071
        },
        {
          "duration": 0.06666666666666288,
          "durationTicks": 80,
          "midi": 67,
          "name": "G4",
          "ticks": 500880,
          "time": 417.40000000000003,
          "velocity": 0.8267716535433071
        },
        {
          "duration": 0.19999999999998863,
          "durationTicks": 240,
          "midi": 65,
          "name": "F4",
          "ticks": 501120,
          "time": 417.6,
          "velocity": 0.8267716535433071
        },
        {
          "duration": 0.19666666666665833,
          "durationTicks": 236,
          "midi": 68,
          "name": "G#4",
          "ticks": 501360,
          "time": 417.8,
          "velocity": 0.8267716535433071
        },
        {
          "duration": 0.06666666666671972,
          "durationTicks": 80,
          "midi": 65,
          "name": "F4",
          "ticks": 501600,
          "time": 418,
          "velocity": 0.8267716535433071
        },
        {
          "duration": 0.06666666666666288,
          "durationTicks": 80,
          "midi": 63,
          "name": "D#4",
          "ticks": 501840,
          "time": 418.20000000000005,
          "velocity": 0.8267716535433071
        },
        {
          "duration": 0.1966666666666015,
          "durationTicks": 236,
          "midi": 62,
          "name": "D4",
          "ticks": 502080,
          "time": 418.40000000000003,
          "velocity": 0.8267716535433071
        },
        {
          "duration": 0.1966666666666015,
          "durationTicks": 236,
          "midi": 65,
          "name": "F4",
          "ticks": 502320,
          "time": 418.6,
          "velocity": 0.8267716535433071
        },
        {
          "duration": 0.19666666666665833,
          "durationTicks": 236,
          "midi": 58,
          "name": "A#3",
          "ticks": 502560,
          "time": 418.8,
          "velocity": 0.8267716535433071
        },
        {
          "duration": 0.19666666666665833,
          "durationTicks": 236,
          "midi": 62,
          "name": "D4",
          "ticks": 502800,
          "time": 419,
          "velocity": 0.8267716535433071
        },
        {
          "duration": 0.33333333333325754,
          "durationTicks": 400,
          "midi": 63,
          "name": "D#4",
          "ticks": 503040,
          "time": 419.20000000000005,
          "velocity": 0.8267716535433071
        },
        {
          "duration": 0.19666666666665833,
          "durationTicks": 236,
          "midi": 75,
          "name": "D#5",
          "ticks": 503760,
          "time": 419.8,
          "velocity": 0.8267716535433071
        },
        {
          "duration": 0.20000000000004547,
          "durationTicks": 240,
          "midi": 72,
          "name": "C5",
          "ticks": 504000,
          "time": 420,
          "velocity": 0.8267716535433071
        },
        {
          "duration": 0.1966666666666015,
          "durationTicks": 236,
          "midi": 75,
          "name": "D#5",
          "ticks": 504240,
          "time": 420.20000000000005,
          "velocity": 0.8267716535433071
        },
        {
          "duration": 0.06666666666666288,
          "durationTicks": 80,
          "midi": 68,
          "name": "G#4",
          "ticks": 504480,
          "time": 420.40000000000003,
          "velocity": 0.8267716535433071
        },
        {
          "duration": 0.06666666666671972,
          "durationTicks": 80,
          "midi": 72,
          "name": "C5",
          "ticks": 504720,
          "time": 420.6,
          "velocity": 0.8267716535433071
        },
        {
          "duration": 0.3333333333333144,
          "durationTicks": 400,
          "midi": 74,
          "name": "D5",
          "ticks": 504960,
          "time": 420.8,
          "velocity": 0.8267716535433071
        },
        {
          "duration": 0.1966666666666015,
          "durationTicks": 236,
          "midi": 74,
          "name": "D5",
          "ticks": 505680,
          "time": 421.40000000000003,
          "velocity": 0.8267716535433071
        },
        {
          "duration": 0.19999999999998863,
          "durationTicks": 240,
          "midi": 71,
          "name": "B4",
          "ticks": 505920,
          "time": 421.6,
          "velocity": 0.8267716535433071
        },
        {
          "duration": 0.19666666666665833,
          "durationTicks": 236,
          "midi": 74,
          "name": "D5",
          "ticks": 506160,
          "time": 421.8,
          "velocity": 0.8267716535433071
        },
        {
          "duration": 0.06666666666671972,
          "durationTicks": 80,
          "midi": 67,
          "name": "G4",
          "ticks": 506400,
          "time": 422,
          "velocity": 0.8267716535433071
        },
        {
          "duration": 0.06666666666666288,
          "durationTicks": 80,
          "midi": 71,
          "name": "B4",
          "ticks": 506640,
          "time": 422.20000000000005,
          "velocity": 0.8267716535433071
        },
        {
          "duration": 0.3333333333333144,
          "durationTicks": 400,
          "midi": 72,
          "name": "C5",
          "ticks": 506880,
          "time": 422.40000000000003,
          "velocity": 0.8267716535433071
        },
        {
          "duration": 0.19666666666665833,
          "durationTicks": 236,
          "midi": 67,
          "name": "G4",
          "ticks": 507600,
          "time": 423,
          "velocity": 0.8267716535433071
        },
        {
          "duration": 0.19999999999998863,
          "durationTicks": 240,
          "midi": 63,
          "name": "D#4",
          "ticks": 507840,
          "time": 423.20000000000005,
          "velocity": 0.8267716535433071
        },
        {
          "duration": 0.1966666666666015,
          "durationTicks": 236,
          "midi": 67,
          "name": "G4",
          "ticks": 508080,
          "time": 423.40000000000003,
          "velocity": 0.8267716535433071
        },
        {
          "duration": 0.06666666666671972,
          "durationTicks": 80,
          "midi": 63,
          "name": "D#4",
          "ticks": 508320,
          "time": 423.6,
          "velocity": 0.8267716535433071
        },
        {
          "duration": 0.06666666666671972,
          "durationTicks": 80,
          "midi": 62,
          "name": "D4",
          "ticks": 508560,
          "time": 423.8,
          "velocity": 0.8267716535433071
        },
        {
          "duration": 0.20000000000004547,
          "durationTicks": 240,
          "midi": 60,
          "name": "C4",
          "ticks": 508800,
          "time": 424,
          "velocity": 0.8267716535433071
        },
        {
          "duration": 0.1966666666666015,
          "durationTicks": 236,
          "midi": 63,
          "name": "D#4",
          "ticks": 509040,
          "time": 424.20000000000005,
          "velocity": 0.8267716535433071
        },
        {
          "duration": 0.06666666666666288,
          "durationTicks": 80,
          "midi": 60,
          "name": "C4",
          "ticks": 509280,
          "time": 424.40000000000003,
          "velocity": 0.8267716535433071
        },
        {
          "duration": 0.06666666666671972,
          "durationTicks": 80,
          "midi": 58,
          "name": "A#3",
          "ticks": 509520,
          "time": 424.6,
          "velocity": 0.8267716535433071
        },
        {
          "duration": 0.06666666666671972,
          "durationTicks": 80,
          "midi": 57,
          "name": "A3",
          "ticks": 509760,
          "time": 424.8,
          "velocity": 0.8267716535433071
        },
        {
          "duration": 0.06666666666671972,
          "durationTicks": 80,
          "midi": 60,
          "name": "C4",
          "ticks": 510000,
          "time": 425,
          "velocity": 0.8267716535433071
        },
        {
          "duration": 0.06666666666666288,
          "durationTicks": 80,
          "midi": 62,
          "name": "D4",
          "ticks": 510240,
          "time": 425.20000000000005,
          "velocity": 0.8267716535433071
        },
        {
          "duration": 0.06666666666666288,
          "durationTicks": 80,
          "midi": 66,
          "name": "F#4",
          "ticks": 510480,
          "time": 425.40000000000003,
          "velocity": 0.8267716535433071
        },
        {
          "duration": 0.6000000000000227,
          "durationTicks": 720,
          "midi": 67,
          "name": "G4",
          "ticks": 510720,
          "time": 425.6,
          "velocity": 0.8267716535433071
        },
        {
          "duration": 0.1966666666666015,
          "durationTicks": 236,
          "midi": 70,
          "name": "A#4",
          "ticks": 511440,
          "time": 426.20000000000005,
          "velocity": 0.8267716535433071
        },
        {
          "duration": 0.5999999999999659,
          "durationTicks": 720,
          "midi": 63,
          "name": "D#4",
          "ticks": 511680,
          "time": 426.40000000000003,
          "velocity": 0.8267716535433071
        },
        {
          "duration": 0.19666666666665833,
          "durationTicks": 236,
          "midi": 72,
          "name": "C5",
          "ticks": 512400,
          "time": 427,
          "velocity": 0.8267716535433071
        },
        {
          "duration": 0.19999999999998863,
          "durationTicks": 240,
          "midi": 69,
          "name": "A4",
          "ticks": 512640,
          "time": 427.20000000000005,
          "velocity": 0.8267716535433071
        },
        {
          "duration": 0.1966666666666015,
          "durationTicks": 236,
          "midi": 75,
          "name": "D#5",
          "ticks": 512880,
          "time": 427.40000000000003,
          "velocity": 0.8267716535433071
        },
        {
          "duration": 0.06666666666671972,
          "durationTicks": 80,
          "midi": 72,
          "name": "C5",
          "ticks": 513120,
          "time": 427.6,
          "velocity": 0.8267716535433071
        },
        {
          "duration": 0.06666666666671972,
          "durationTicks": 80,
          "midi": 69,
          "name": "A4",
          "ticks": 513360,
          "time": 427.8,
          "velocity": 0.8267716535433071
        },
        {
          "duration": 0.06666666666671972,
          "durationTicks": 80,
          "midi": 66,
          "name": "F#4",
          "ticks": 513600,
          "time": 428,
          "velocity": 0.8267716535433071
        },
        {
          "duration": 0.06666666666666288,
          "durationTicks": 80,
          "midi": 67,
          "name": "G4",
          "ticks": 513840,
          "time": 428.20000000000005,
          "velocity": 0.8267716535433071
        },
        {
          "duration": 0.06666666666666288,
          "durationTicks": 80,
          "midi": 69,
          "name": "A4",
          "ticks": 514080,
          "time": 428.40000000000003,
          "velocity": 0.8267716535433071
        },
        {
          "duration": 0.06666666666671972,
          "durationTicks": 80,
          "midi": 70,
          "name": "A#4",
          "ticks": 514320,
          "time": 428.6,
          "velocity": 0.8267716535433071
        },
        {
          "duration": 0.10000000000002274,
          "durationTicks": 120,
          "midi": 67,
          "name": "G4",
          "ticks": 514560,
          "time": 428.8,
          "velocity": 0.8267716535433071
        },
        {
          "duration": 0.0999999999999659,
          "durationTicks": 120,
          "midi": 67,
          "name": "G4",
          "ticks": 515040,
          "time": 429.20000000000005,
          "velocity": 0.8267716535433071
        },
        {
          "duration": 0.10000000000002274,
          "durationTicks": 120,
          "midi": 64,
          "name": "E4",
          "ticks": 516000,
          "time": 430,
          "velocity": 0.8267716535433071
        },
        {
          "duration": 0.10000000000002274,
          "durationTicks": 120,
          "midi": 61,
          "name": "C#4",
          "ticks": 516960,
          "time": 430.8,
          "velocity": 0.8267716535433071
        },
        {
          "duration": 0.10000000000002274,
          "durationTicks": 120,
          "midi": 57,
          "name": "A3",
          "ticks": 517920,
          "time": 431.6,
          "velocity": 0.8267716535433071
        },
        {
          "duration": 0.20000000000004547,
          "durationTicks": 240,
          "midi": 74,
          "name": "D5",
          "ticks": 518400,
          "time": 432,
          "velocity": 0.8267716535433071
        },
        {
          "duration": 0.1966666666666015,
          "durationTicks": 236,
          "midi": 77,
          "name": "F5",
          "ticks": 518640,
          "time": 432.20000000000005,
          "velocity": 0.8267716535433071
        },
        {
          "duration": 0.06666666666666288,
          "durationTicks": 80,
          "midi": 71,
          "name": "B4",
          "ticks": 518880,
          "time": 432.40000000000003,
          "velocity": 0.8267716535433071
        },
        {
          "duration": 0.06666666666671972,
          "durationTicks": 80,
          "midi": 74,
          "name": "D5",
          "ticks": 519120,
          "time": 432.6,
          "velocity": 0.8267716535433071
        },
        {
          "duration": 0.06666666666671972,
          "durationTicks": 80,
          "midi": 68,
          "name": "G#4",
          "ticks": 519360,
          "time": 432.8,
          "velocity": 0.8267716535433071
        },
        {
          "duration": 0.06666666666671972,
          "durationTicks": 80,
          "midi": 71,
          "name": "B4",
          "ticks": 519600,
          "time": 433,
          "velocity": 0.8267716535433071
        },
        {
          "duration": 0.06666666666666288,
          "durationTicks": 80,
          "midi": 64,
          "name": "E4",
          "ticks": 519840,
          "time": 433.20000000000005,
          "velocity": 0.8267716535433071
        },
        {
          "duration": 0.06666666666666288,
          "durationTicks": 80,
          "midi": 76,
          "name": "E5",
          "ticks": 520080,
          "time": 433.40000000000003,
          "velocity": 0.8267716535433071
        },
        {
          "duration": 0.10000000000002274,
          "durationTicks": 120,
          "midi": 72,
          "name": "C5",
          "ticks": 520320,
          "time": 433.6,
          "velocity": 0.8267716535433071
        },
        {
          "duration": 0.10000000000002274,
          "durationTicks": 120,
          "midi": 69,
          "name": "A4",
          "ticks": 520800,
          "time": 434,
          "velocity": 0.8267716535433071
        },
        {
          "duration": 0.0999999999999659,
          "durationTicks": 120,
          "midi": 67,
          "name": "G4",
          "ticks": 521280,
          "time": 434.40000000000003,
          "velocity": 0.8267716535433071
        },
        {
          "duration": 0.10000000000002274,
          "durationTicks": 120,
          "midi": 65,
          "name": "F4",
          "ticks": 521760,
          "time": 434.8,
          "velocity": 0.8267716535433071
        },
        {
          "duration": 0.0999999999999659,
          "durationTicks": 120,
          "midi": 64,
          "name": "E4",
          "ticks": 522240,
          "time": 435.20000000000005,
          "velocity": 0.8267716535433071
        },
        {
          "duration": 0.10000000000002274,
          "durationTicks": 120,
          "midi": 64,
          "name": "E4",
          "ticks": 523200,
          "time": 436,
          "velocity": 0.4015748031496063
        },
        {
          "duration": 0.0999999999999659,
          "durationTicks": 120,
          "midi": 64,
          "name": "E4",
          "ticks": 523680,
          "time": 436.40000000000003,
          "velocity": 0.4015748031496063
        },
        {
          "duration": 0.10000000000002274,
          "durationTicks": 120,
          "midi": 64,
          "name": "E4",
          "ticks": 524160,
          "time": 436.8,
          "velocity": 0.4015748031496063
        },
        {
          "duration": 0.10000000000002274,
          "durationTicks": 120,
          "midi": 64,
          "name": "E4",
          "ticks": 525120,
          "time": 437.6,
          "velocity": 0.4015748031496063
        },
        {
          "duration": 0.10000000000002274,
          "durationTicks": 120,
          "midi": 64,
          "name": "E4",
          "ticks": 525600,
          "time": 438,
          "velocity": 0.4015748031496063
        },
        {
          "duration": 0.3333333333333144,
          "durationTicks": 400,
          "midi": 64,
          "name": "E4",
          "ticks": 526080,
          "time": 438.40000000000003,
          "velocity": 0.4015748031496063
        },
        {
          "duration": 3.1000000000000227,
          "durationTicks": 3720,
          "midi": 68,
          "name": "G#4",
          "ticks": 529920,
          "time": 441.6,
          "velocity": 0.4015748031496063
        },
        {
          "duration": 1.9333333333333371,
          "durationTicks": 2320,
          "midi": 67,
          "name": "G4",
          "ticks": 533760,
          "time": 444.8,
          "velocity": 0.4015748031496063
        },
        {
          "duration": 0.3333333333333144,
          "durationTicks": 400,
          "midi": 65,
          "name": "F4",
          "ticks": 537600,
          "time": 448,
          "velocity": 0.4015748031496063
        },
        {
          "duration": 0.06666666666671972,
          "durationTicks": 80,
          "midi": 60,
          "name": "C4",
          "ticks": 538320,
          "time": 448.6,
          "velocity": 0.4015748031496063
        },
        {
          "duration": 0.06666666666660603,
          "durationTicks": 80,
          "midi": 62,
          "name": "D4",
          "ticks": 538400,
          "time": 448.66666666666674,
          "velocity": 0.4015748031496063
        },
        {
          "duration": 0.06666666666666288,
          "durationTicks": 80,
          "midi": 64,
          "name": "E4",
          "ticks": 538480,
          "time": 448.73333333333335,
          "velocity": 0.4015748031496063
        },
        {
          "duration": 0.3333333333333144,
          "durationTicks": 400,
          "midi": 65,
          "name": "F4",
          "ticks": 538560,
          "time": 448.8,
          "velocity": 0.4015748031496063
        },
        {
          "duration": 0.06666666666666288,
          "durationTicks": 80,
          "midi": 60,
          "name": "C4",
          "ticks": 539280,
          "time": 449.40000000000003,
          "velocity": 0.4015748031496063
        },
        {
          "duration": 0.06666666666660603,
          "durationTicks": 80,
          "midi": 62,
          "name": "D4",
          "ticks": 539360,
          "time": 449.4666666666667,
          "velocity": 0.4015748031496063
        },
        {
          "duration": 0.06666666666671972,
          "durationTicks": 80,
          "midi": 64,
          "name": "E4",
          "ticks": 539440,
          "time": 449.5333333333333,
          "velocity": 0.4015748031496063
        },
        {
          "duration": 0.3333333333333144,
          "durationTicks": 400,
          "midi": 65,
          "name": "F4",
          "ticks": 539520,
          "time": 449.6,
          "velocity": 0.4015748031496063
        },
        {
          "duration": 0.3333333333333144,
          "durationTicks": 400,
          "midi": 60,
          "name": "C4",
          "ticks": 545280,
          "time": 454.40000000000003,
          "velocity": 0.4015748031496063
        },
        {
          "duration": 0.06666666666671972,
          "durationTicks": 80,
          "midi": 55,
          "name": "G3",
          "ticks": 546000,
          "time": 455,
          "velocity": 0.4015748031496063
        },
        {
          "duration": 0.06666666666660603,
          "durationTicks": 80,
          "midi": 57,
          "name": "A3",
          "ticks": 546080,
          "time": 455.0666666666667,
          "velocity": 0.4015748031496063
        },
        {
          "duration": 0.06666666666671972,
          "durationTicks": 80,
          "midi": 59,
          "name": "B3",
          "ticks": 546160,
          "time": 455.1333333333333,
          "velocity": 0.4015748031496063
        },
        {
          "duration": 0.33333333333325754,
          "durationTicks": 400,
          "midi": 60,
          "name": "C4",
          "ticks": 546240,
          "time": 455.20000000000005,
          "velocity": 0.4015748031496063
        },
        {
          "duration": 0.06666666666671972,
          "durationTicks": 80,
          "midi": 55,
          "name": "G3",
          "ticks": 546960,
          "time": 455.8,
          "velocity": 0.4015748031496063
        },
        {
          "duration": 0.06666666666660603,
          "durationTicks": 80,
          "midi": 57,
          "name": "A3",
          "ticks": 547040,
          "time": 455.86666666666673,
          "velocity": 0.4015748031496063
        },
        {
          "duration": 0.06666666666666288,
          "durationTicks": 80,
          "midi": 59,
          "name": "B3",
          "ticks": 547120,
          "time": 455.93333333333334,
          "velocity": 0.4015748031496063
        },
        {
          "duration": 0.3333333333333144,
          "durationTicks": 400,
          "midi": 60,
          "name": "C4",
          "ticks": 547200,
          "time": 456,
          "velocity": 0.4015748031496063
        },
        {
          "duration": 0.3333333333333144,
          "durationTicks": 400,
          "midi": 62,
          "name": "D4",
          "ticks": 549120,
          "time": 457.6,
          "velocity": 0.4015748031496063
        },
        {
          "duration": 0.06666666666666288,
          "durationTicks": 80,
          "midi": 57,
          "name": "A3",
          "ticks": 549840,
          "time": 458.20000000000005,
          "velocity": 0.4015748031496063
        },
        {
          "duration": 0.06666666666660603,
          "durationTicks": 80,
          "midi": 59,
          "name": "B3",
          "ticks": 549920,
          "time": 458.2666666666667,
          "velocity": 0.4015748031496063
        },
        {
          "duration": 0.06666666666671972,
          "durationTicks": 80,
          "midi": 61,
          "name": "C#4",
          "ticks": 550000,
          "time": 458.3333333333333,
          "velocity": 0.4015748031496063
        },
        {
          "duration": 0.3333333333333144,
          "durationTicks": 400,
          "midi": 62,
          "name": "D4",
          "ticks": 550080,
          "time": 458.40000000000003,
          "velocity": 0.4015748031496063
        },
        {
          "duration": 0.06666666666671972,
          "durationTicks": 80,
          "midi": 57,
          "name": "A3",
          "ticks": 550800,
          "time": 459,
          "velocity": 0.4015748031496063
        },
        {
          "duration": 0.06666666666660603,
          "durationTicks": 80,
          "midi": 59,
          "name": "B3",
          "ticks": 550880,
          "time": 459.0666666666667,
          "velocity": 0.4015748031496063
        },
        {
          "duration": 0.06666666666671972,
          "durationTicks": 80,
          "midi": 61,
          "name": "C#4",
          "ticks": 550960,
          "time": 459.1333333333333,
          "velocity": 0.4015748031496063
        },
        {
          "duration": 0.33333333333325754,
          "durationTicks": 400,
          "midi": 62,
          "name": "D4",
          "ticks": 551040,
          "time": 459.20000000000005,
          "velocity": 0.4015748031496063
        },
        {
          "duration": 0.3333333333333144,
          "durationTicks": 400,
          "midi": 64,
          "name": "E4",
          "ticks": 552960,
          "time": 460.8,
          "velocity": 0.4015748031496063
        },
        {
          "duration": 0.06666666666666288,
          "durationTicks": 80,
          "midi": 59,
          "name": "B3",
          "ticks": 553680,
          "time": 461.40000000000003,
          "velocity": 0.4015748031496063
        },
        {
          "duration": 0.06666666666660603,
          "durationTicks": 80,
          "midi": 61,
          "name": "C#4",
          "ticks": 553760,
          "time": 461.4666666666667,
          "velocity": 0.4015748031496063
        },
        {
          "duration": 0.06666666666671972,
          "durationTicks": 80,
          "midi": 63,
          "name": "D#4",
          "ticks": 553840,
          "time": 461.5333333333333,
          "velocity": 0.4015748031496063
        },
        {
          "duration": 0.3333333333333144,
          "durationTicks": 400,
          "midi": 64,
          "name": "E4",
          "ticks": 553920,
          "time": 461.6,
          "velocity": 0.4015748031496063
        },
        {
          "duration": 0.06666666666666288,
          "durationTicks": 80,
          "midi": 59,
          "name": "B3",
          "ticks": 554640,
          "time": 462.20000000000005,
          "velocity": 0.4015748031496063
        },
        {
          "duration": 0.06666666666660603,
          "durationTicks": 80,
          "midi": 61,
          "name": "C#4",
          "ticks": 554720,
          "time": 462.2666666666667,
          "velocity": 0.4015748031496063
        },
        {
          "duration": 0.06666666666671972,
          "durationTicks": 80,
          "midi": 63,
          "name": "D#4",
          "ticks": 554800,
          "time": 462.3333333333333,
          "velocity": 0.4015748031496063
        },
        {
          "duration": 0.3333333333333144,
          "durationTicks": 400,
          "midi": 64,
          "name": "E4",
          "ticks": 554880,
          "time": 462.40000000000003,
          "velocity": 0.4015748031496063
        },
        {
          "duration": 0.10000000000002274,
          "durationTicks": 120,
          "midi": 57,
          "name": "A3",
          "ticks": 556800,
          "time": 464,
          "velocity": 0.8267716535433071
        },
        {
          "duration": 0.0999999999999659,
          "durationTicks": 120,
          "midi": 69,
          "name": "A4",
          "ticks": 557280,
          "time": 464.40000000000003,
          "velocity": 0.8267716535433071
        },
        {
          "duration": 0.0999999999999659,
          "durationTicks": 120,
          "midi": 69,
          "name": "A4",
          "ticks": 558240,
          "time": 465.20000000000005,
          "velocity": 0.8267716535433071
        },
        {
          "duration": 0.10000000000002274,
          "durationTicks": 120,
          "midi": 69,
          "name": "A4",
          "ticks": 559200,
          "time": 466,
          "velocity": 0.8267716535433071
        },
        {
          "duration": 0.10000000000002274,
          "durationTicks": 120,
          "midi": 69,
          "name": "A4",
          "ticks": 560160,
          "time": 466.8,
          "velocity": 0.8267716535433071
        },
        {
          "duration": 0.0999999999999659,
          "durationTicks": 120,
          "midi": 68,
          "name": "G#4",
          "ticks": 560640,
          "time": 467.20000000000005,
          "velocity": 0.8267716535433071
        },
        {
          "duration": 0.10000000000002274,
          "durationTicks": 120,
          "midi": 67,
          "name": "G4",
          "ticks": 561120,
          "time": 467.6,
          "velocity": 0.8267716535433071
        },
        {
          "duration": 0.0999999999999659,
          "durationTicks": 120,
          "midi": 67,
          "name": "G4",
          "ticks": 562080,
          "time": 468.40000000000003,
          "velocity": 0.8267716535433071
        },
        {
          "duration": 0.0999999999999659,
          "durationTicks": 120,
          "midi": 67,
          "name": "G4",
          "ticks": 563040,
          "time": 469.20000000000005,
          "velocity": 0.8267716535433071
        },
        {
          "duration": 0.10000000000002274,
          "durationTicks": 120,
          "midi": 67,
          "name": "G4",
          "ticks": 564000,
          "time": 470,
          "velocity": 0.8267716535433071
        },
        {
          "duration": 0.0999999999999659,
          "durationTicks": 120,
          "midi": 66,
          "name": "F#4",
          "ticks": 564480,
          "time": 470.40000000000003,
          "velocity": 0.8267716535433071
        },
        {
          "duration": 0.10000000000002274,
          "durationTicks": 120,
          "midi": 65,
          "name": "F4",
          "ticks": 564960,
          "time": 470.8,
          "velocity": 0.8267716535433071
        },
        {
          "duration": 0.10000000000002274,
          "durationTicks": 120,
          "midi": 65,
          "name": "F4",
          "ticks": 565920,
          "time": 471.6,
          "velocity": 0.8267716535433071
        },
        {
          "duration": 0.0999999999999659,
          "durationTicks": 120,
          "midi": 65,
          "name": "F4",
          "ticks": 566880,
          "time": 472.40000000000003,
          "velocity": 0.8267716535433071
        },
        {
          "duration": 0.0999999999999659,
          "durationTicks": 120,
          "midi": 65,
          "name": "F4",
          "ticks": 567840,
          "time": 473.20000000000005,
          "velocity": 0.8267716535433071
        },
        {
          "duration": 0.10000000000002274,
          "durationTicks": 120,
          "midi": 64,
          "name": "E4",
          "ticks": 568320,
          "time": 473.6,
          "velocity": 0.8267716535433071
        },
        {
          "duration": 0.10000000000002274,
          "durationTicks": 120,
          "midi": 63,
          "name": "D#4",
          "ticks": 568800,
          "time": 474,
          "velocity": 0.8267716535433071
        },
        {
          "duration": 0.10000000000002274,
          "durationTicks": 120,
          "midi": 63,
          "name": "D#4",
          "ticks": 569760,
          "time": 474.8,
          "velocity": 0.8267716535433071
        },
        {
          "duration": 0.10000000000002274,
          "durationTicks": 120,
          "midi": 56,
          "name": "G#3",
          "ticks": 570720,
          "time": 475.6,
          "velocity": 0.8267716535433071
        },
        {
          "duration": 0.0999999999999659,
          "durationTicks": 120,
          "midi": 68,
          "name": "G#4",
          "ticks": 571680,
          "time": 476.40000000000003,
          "velocity": 0.8267716535433071
        },
        {
          "duration": 0.3333333333333144,
          "durationTicks": 400,
          "midi": 67,
          "name": "G4",
          "ticks": 572160,
          "time": 476.8,
          "velocity": 0.8267716535433071
        },
        {
          "duration": 0.05000000000001137,
          "durationTicks": 60,
          "midi": 67,
          "name": "G4",
          "ticks": 572880,
          "time": 477.40000000000003,
          "velocity": 0.8267716535433071
        },
        {
          "duration": 0.049999999999954525,
          "durationTicks": 60,
          "midi": 69,
          "name": "A4",
          "ticks": 572940,
          "time": 477.45000000000005,
          "velocity": 0.8267716535433071
        },
        {
          "duration": 0.05000000000001137,
          "durationTicks": 60,
          "midi": 71,
          "name": "B4",
          "ticks": 573000,
          "time": 477.5,
          "velocity": 0.8267716535433071
        },
        {
          "duration": 0.05000000000001137,
          "durationTicks": 60,
          "midi": 72,
          "name": "C5",
          "ticks": 573060,
          "time": 477.55,
          "velocity": 0.8267716535433071
        },
        {
          "duration": 0.3333333333333144,
          "durationTicks": 400,
          "midi": 74,
          "name": "D5",
          "ticks": 573120,
          "time": 477.6,
          "velocity": 0.8267716535433071
        },
        {
          "duration": 0.049999999999954525,
          "durationTicks": 60,
          "midi": 74,
          "name": "D5",
          "ticks": 573840,
          "time": 478.20000000000005,
          "velocity": 0.8267716535433071
        },
        {
          "duration": 0.05000000000001137,
          "durationTicks": 60,
          "midi": 72,
          "name": "C5",
          "ticks": 573900,
          "time": 478.25,
          "velocity": 0.8267716535433071
        },
        {
          "duration": 0.05000000000001137,
          "durationTicks": 60,
          "midi": 71,
          "name": "B4",
          "ticks": 573960,
          "time": 478.3,
          "velocity": 0.8267716535433071
        },
        {
          "duration": 0.05000000000001137,
          "durationTicks": 60,
          "midi": 69,
          "name": "A4",
          "ticks": 574020,
          "time": 478.35,
          "velocity": 0.8267716535433071
        },
        {
          "duration": 0.3333333333333144,
          "durationTicks": 400,
          "midi": 67,
          "name": "G4",
          "ticks": 574080,
          "time": 478.40000000000003,
          "velocity": 0.8267716535433071
        },
        {
          "duration": 0.05000000000001137,
          "durationTicks": 60,
          "midi": 67,
          "name": "G4",
          "ticks": 574800,
          "time": 479,
          "velocity": 0.8267716535433071
        },
        {
          "duration": 0.05000000000001137,
          "durationTicks": 60,
          "midi": 69,
          "name": "A4",
          "ticks": 574860,
          "time": 479.05,
          "velocity": 0.8267716535433071
        },
        {
          "duration": 0.05000000000001137,
          "durationTicks": 60,
          "midi": 71,
          "name": "B4",
          "ticks": 574920,
          "time": 479.1,
          "velocity": 0.8267716535433071
        },
        {
          "duration": 0.05000000000001137,
          "durationTicks": 60,
          "midi": 72,
          "name": "C5",
          "ticks": 574980,
          "time": 479.15000000000003,
          "velocity": 0.8267716535433071
        },
        {
          "duration": 0.33333333333325754,
          "durationTicks": 400,
          "midi": 74,
          "name": "D5",
          "ticks": 575040,
          "time": 479.20000000000005,
          "velocity": 0.8267716535433071
        },
        {
          "duration": 0.05000000000001137,
          "durationTicks": 60,
          "midi": 74,
          "name": "D5",
          "ticks": 575760,
          "time": 479.8,
          "velocity": 0.8267716535433071
        },
        {
          "duration": 0.05000000000001137,
          "durationTicks": 60,
          "midi": 72,
          "name": "C5",
          "ticks": 575820,
          "time": 479.85,
          "velocity": 0.8267716535433071
        },
        {
          "duration": 0.05000000000001137,
          "durationTicks": 60,
          "midi": 71,
          "name": "B4",
          "ticks": 575880,
          "time": 479.90000000000003,
          "velocity": 0.8267716535433071
        },
        {
          "duration": 0.049999999999954525,
          "durationTicks": 60,
          "midi": 69,
          "name": "A4",
          "ticks": 575940,
          "time": 479.95000000000005,
          "velocity": 0.8267716535433071
        },
        {
          "duration": 0.3333333333333144,
          "durationTicks": 400,
          "midi": 67,
          "name": "G4",
          "ticks": 576000,
          "time": 480,
          "velocity": 0.8267716535433071
        },
        {
          "duration": 0.10000000000002274,
          "durationTicks": 120,
          "midi": 62,
          "name": "D4",
          "ticks": 576960,
          "time": 480.8,
          "velocity": 0.4015748031496063
        },
        {
          "duration": 0.0999999999999659,
          "durationTicks": 120,
          "midi": 62,
          "name": "D4",
          "ticks": 577440,
          "time": 481.20000000000005,
          "velocity": 0.4015748031496063
        },
        {
          "duration": 0.10000000000002274,
          "durationTicks": 120,
          "midi": 67,
          "name": "G4",
          "ticks": 577920,
          "time": 481.6,
          "velocity": 0.4015748031496063
        },
        {
          "duration": 0.0999999999999659,
          "durationTicks": 120,
          "midi": 62,
          "name": "D4",
          "ticks": 578880,
          "time": 482.40000000000003,
          "velocity": 0.4015748031496063
        },
        {
          "duration": 0.10000000000002274,
          "durationTicks": 120,
          "midi": 62,
          "name": "D4",
          "ticks": 579360,
          "time": 482.8,
          "velocity": 0.4015748031496063
        },
        {
          "duration": 0.0999999999999659,
          "durationTicks": 120,
          "midi": 67,
          "name": "G4",
          "ticks": 579840,
          "time": 483.20000000000005,
          "velocity": 0.4015748031496063
        },
        {
          "duration": 0.06666666666671972,
          "durationTicks": 80,
          "midi": 67,
          "name": "G4",
          "ticks": 589200,
          "time": 491,
          "velocity": 0.4015748031496063
        },
        {
          "duration": 0.06666666666666288,
          "durationTicks": 80,
          "midi": 65,
          "name": "F4",
          "ticks": 589440,
          "time": 491.20000000000005,
          "velocity": 0.4015748031496063
        },
        {
          "duration": 0.06666666666666288,
          "durationTicks": 80,
          "midi": 64,
          "name": "E4",
          "ticks": 589680,
          "time": 491.40000000000003,
          "velocity": 0.4015748031496063
        },
        {
          "duration": 0.06666666666671972,
          "durationTicks": 80,
          "midi": 62,
          "name": "D4",
          "ticks": 589920,
          "time": 491.6,
          "velocity": 0.4015748031496063
        },
        {
          "duration": 0.06666666666671972,
          "durationTicks": 80,
          "midi": 60,
          "name": "C4",
          "ticks": 590160,
          "time": 491.8,
          "velocity": 0.4015748031496063
        },
        {
          "duration": 0.06666666666671972,
          "durationTicks": 80,
          "midi": 59,
          "name": "B3",
          "ticks": 590400,
          "time": 492,
          "velocity": 0.4015748031496063
        },
        {
          "duration": 0.06666666666666288,
          "durationTicks": 80,
          "midi": 57,
          "name": "A3",
          "ticks": 590640,
          "time": 492.20000000000005,
          "velocity": 0.4015748031496063
        },
        {
          "duration": 0.06666666666666288,
          "durationTicks": 80,
          "midi": 55,
          "name": "G3",
          "ticks": 590880,
          "time": 492.40000000000003,
          "velocity": 0.4015748031496063
        },
        {
          "duration": 0.06666666666671972,
          "durationTicks": 80,
          "midi": 53,
          "name": "F3",
          "ticks": 591120,
          "time": 492.6,
          "velocity": 0.4015748031496063
        },
        {
          "duration": 0.3333333333333144,
          "durationTicks": 400,
          "midi": 52,
          "name": "E3",
          "ticks": 591360,
          "time": 492.8,
          "velocity": 0.8267716535433071
        },
        {
          "duration": 0.06666666666666288,
          "durationTicks": 80,
          "midi": 55,
          "name": "G3",
          "ticks": 592080,
          "time": 493.40000000000003,
          "velocity": 0.8267716535433071
        },
        {
          "duration": 0.06666666666660603,
          "durationTicks": 80,
          "midi": 57,
          "name": "A3",
          "ticks": 592160,
          "time": 493.4666666666667,
          "velocity": 0.8267716535433071
        },
        {
          "duration": 0.06666666666671972,
          "durationTicks": 80,
          "midi": 59,
          "name": "B3",
          "ticks": 592240,
          "time": 493.5333333333333,
          "velocity": 0.8267716535433071
        },
        {
          "duration": 0.3333333333333144,
          "durationTicks": 400,
          "midi": 60,
          "name": "C4",
          "ticks": 592320,
          "time": 493.6,
          "velocity": 0.8267716535433071
        },
        {
          "duration": 0.06666666666666288,
          "durationTicks": 80,
          "midi": 55,
          "name": "G3",
          "ticks": 593040,
          "time": 494.20000000000005,
          "velocity": 0.8267716535433071
        },
        {
          "duration": 0.06666666666660603,
          "durationTicks": 80,
          "midi": 57,
          "name": "A3",
          "ticks": 593120,
          "time": 494.2666666666667,
          "velocity": 0.8267716535433071
        },
        {
          "duration": 0.06666666666671972,
          "durationTicks": 80,
          "midi": 59,
          "name": "B3",
          "ticks": 593200,
          "time": 494.3333333333333,
          "velocity": 0.8267716535433071
        },
        {
          "duration": 0.3333333333333144,
          "durationTicks": 400,
          "midi": 60,
          "name": "C4",
          "ticks": 593280,
          "time": 494.40000000000003,
          "velocity": 0.8267716535433071
        },
        {
          "duration": 2.7000000000000455,
          "durationTicks": 3240,
          "midi": 67,
          "name": "G4",
          "ticks": 595200,
          "time": 496,
          "velocity": 0.4015748031496063
        },
        {
          "duration": 0.33333333333325754,
          "durationTicks": 400,
          "midi": 67,
          "name": "G4",
          "ticks": 599040,
          "time": 499.20000000000005,
          "velocity": 0.8267716535433071
        },
        {
          "duration": 0.06666666666671972,
          "durationTicks": 80,
          "midi": 62,
          "name": "D4",
          "ticks": 599760,
          "time": 499.8,
          "velocity": 0.8267716535433071
        },
        {
          "duration": 0.06666666666660603,
          "durationTicks": 80,
          "midi": 64,
          "name": "E4",
          "ticks": 599840,
          "time": 499.86666666666673,
          "velocity": 0.8267716535433071
        },
        {
          "duration": 0.06666666666666288,
          "durationTicks": 80,
          "midi": 66,
          "name": "F#4",
          "ticks": 599920,
          "time": 499.93333333333334,
          "velocity": 0.8267716535433071
        },
        {
          "duration": 0.3333333333333144,
          "durationTicks": 400,
          "midi": 67,
          "name": "G4",
          "ticks": 600000,
          "time": 500,
          "velocity": 0.8267716535433071
        },
        {
          "duration": 0.06666666666671972,
          "durationTicks": 80,
          "midi": 62,
          "name": "D4",
          "ticks": 600720,
          "time": 500.6,
          "velocity": 0.8267716535433071
        },
        {
          "duration": 0.06666666666660603,
          "durationTicks": 80,
          "midi": 64,
          "name": "E4",
          "ticks": 600800,
          "time": 500.66666666666674,
          "velocity": 0.8267716535433071
        },
        {
          "duration": 0.06666666666666288,
          "durationTicks": 80,
          "midi": 66,
          "name": "F#4",
          "ticks": 600880,
          "time": 500.73333333333335,
          "velocity": 0.8267716535433071
        },
        {
          "duration": 0.3333333333333144,
          "durationTicks": 400,
          "midi": 67,
          "name": "G4",
          "ticks": 600960,
          "time": 500.8,
          "velocity": 0.8267716535433071
        },
        {
          "duration": 1.5,
          "durationTicks": 1800,
          "midi": 67,
          "name": "G4",
          "ticks": 602880,
          "time": 502.40000000000003,
          "velocity": 0.4015748031496063
        },
        {
          "duration": 1.1000000000000227,
          "durationTicks": 1320,
          "midi": 72,
          "name": "C5",
          "ticks": 604800,
          "time": 504,
          "velocity": 0.4015748031496063
        },
        {
          "duration": 0.049999999999954525,
          "durationTicks": 60,
          "midi": 55,
          "name": "G3",
          "ticks": 607440,
          "time": 506.20000000000005,
          "velocity": 0.8267716535433071
        },
        {
          "duration": 0.05000000000001137,
          "durationTicks": 60,
          "midi": 53,
          "name": "F3",
          "ticks": 607500,
          "time": 506.25,
          "velocity": 0.8267716535433071
        },
        {
          "duration": 0.05000000000001137,
          "durationTicks": 60,
          "midi": 52,
          "name": "E3",
          "ticks": 607560,
          "time": 506.3,
          "velocity": 0.8267716535433071
        },
        {
          "duration": 0.05000000000001137,
          "durationTicks": 60,
          "midi": 50,
          "name": "D3",
          "ticks": 607620,
          "time": 506.35,
          "velocity": 0.8267716535433071
        },
        {
          "duration": 0.3333333333333144,
          "durationTicks": 400,
          "midi": 48,
          "name": "C3",
          "ticks": 607680,
          "time": 506.40000000000003,
          "velocity": 0.8267716535433071
        },
        {
          "duration": 0.05000000000001137,
          "durationTicks": 60,
          "midi": 60,
          "name": "C4",
          "ticks": 609360,
          "time": 507.8,
          "velocity": 0.8267716535433071
        },
        {
          "duration": 0.05000000000001137,
          "durationTicks": 60,
          "midi": 58,
          "name": "A#3",
          "ticks": 609420,
          "time": 507.85,
          "velocity": 0.8267716535433071
        },
        {
          "duration": 0.05000000000001137,
          "durationTicks": 60,
          "midi": 57,
          "name": "A3",
          "ticks": 609480,
          "time": 507.90000000000003,
          "velocity": 0.8267716535433071
        },
        {
          "duration": 0.049999999999954525,
          "durationTicks": 60,
          "midi": 55,
          "name": "G3",
          "ticks": 609540,
          "time": 507.95000000000005,
          "velocity": 0.8267716535433071
        },
        {
          "duration": 0.3333333333333144,
          "durationTicks": 400,
          "midi": 53,
          "name": "F3",
          "ticks": 609600,
          "time": 508,
          "velocity": 0.8267716535433071
        },
        {
          "duration": 0.05000000000001137,
          "durationTicks": 60,
          "midi": 62,
          "name": "D4",
          "ticks": 611280,
          "time": 509.40000000000003,
          "velocity": 0.8267716535433071
        },
        {
          "duration": 0.049999999999954525,
          "durationTicks": 60,
          "midi": 60,
          "name": "C4",
          "ticks": 611340,
          "time": 509.45000000000005,
          "velocity": 0.8267716535433071
        },
        {
          "duration": 0.05000000000001137,
          "durationTicks": 60,
          "midi": 59,
          "name": "B3",
          "ticks": 611400,
          "time": 509.5,
          "velocity": 0.8267716535433071
        },
        {
          "duration": 0.05000000000001137,
          "durationTicks": 60,
          "midi": 57,
          "name": "A3",
          "ticks": 611460,
          "time": 509.55,
          "velocity": 0.8267716535433071
        },
        {
          "duration": 0.3333333333333144,
          "durationTicks": 400,
          "midi": 55,
          "name": "G3",
          "ticks": 611520,
          "time": 509.6,
          "velocity": 0.8267716535433071
        },
        {
          "duration": 0.05000000000001137,
          "durationTicks": 60,
          "midi": 67,
          "name": "G4",
          "ticks": 613200,
          "time": 511,
          "velocity": 0.8267716535433071
        },
        {
          "duration": 0.05000000000001137,
          "durationTicks": 60,
          "midi": 65,
          "name": "F4",
          "ticks": 613260,
          "time": 511.05,
          "velocity": 0.8267716535433071
        },
        {
          "duration": 0.05000000000001137,
          "durationTicks": 60,
          "midi": 64,
          "name": "E4",
          "ticks": 613320,
          "time": 511.1,
          "velocity": 0.8267716535433071
        },
        {
          "duration": 0.05000000000001137,
          "durationTicks": 60,
          "midi": 62,
          "name": "D4",
          "ticks": 613380,
          "time": 511.15000000000003,
          "velocity": 0.8267716535433071
        },
        {
          "duration": 0.33333333333325754,
          "durationTicks": 400,
          "midi": 60,
          "name": "C4",
          "ticks": 613440,
          "time": 511.20000000000005,
          "velocity": 0.8267716535433071
        },
        {
          "duration": 0.049999999999954525,
          "durationTicks": 60,
          "midi": 60,
          "name": "C4",
          "ticks": 615120,
          "time": 512.6,
          "velocity": 0.8267716535433071
        },
        {
          "duration": 0.05000000000006821,
          "durationTicks": 60,
          "midi": 58,
          "name": "A#3",
          "ticks": 615180,
          "time": 512.65,
          "velocity": 0.8267716535433071
        },
        {
          "duration": 0.049999999999954525,
          "durationTicks": 60,
          "midi": 57,
          "name": "A3",
          "ticks": 615240,
          "time": 512.7,
          "velocity": 0.8267716535433071
        },
        {
          "duration": 0.05000000000006821,
          "durationTicks": 60,
          "midi": 55,
          "name": "G3",
          "ticks": 615300,
          "time": 512.75,
          "velocity": 0.8267716535433071
        },
        {
          "duration": 0.33333333333325754,
          "durationTicks": 400,
          "midi": 53,
          "name": "F3",
          "ticks": 615360,
          "time": 512.8000000000001,
          "velocity": 0.8267716535433071
        },
        {
          "duration": 0.049999999999954525,
          "durationTicks": 60,
          "midi": 62,
          "name": "D4",
          "ticks": 617040,
          "time": 514.2,
          "velocity": 0.8267716535433071
        },
        {
          "duration": 0.05000000000006821,
          "durationTicks": 60,
          "midi": 60,
          "name": "C4",
          "ticks": 617100,
          "time": 514.25,
          "velocity": 0.8267716535433071
        },
        {
          "duration": 0.049999999999954525,
          "durationTicks": 60,
          "midi": 59,
          "name": "B3",
          "ticks": 617160,
          "time": 514.3000000000001,
          "velocity": 0.8267716535433071
        },
        {
          "duration": 0.049999999999954525,
          "durationTicks": 60,
          "midi": 57,
          "name": "A3",
          "ticks": 617220,
          "time": 514.35,
          "velocity": 0.8267716535433071
        },
        {
          "duration": 0.33333333333337123,
          "durationTicks": 400,
          "midi": 55,
          "name": "G3",
          "ticks": 617280,
          "time": 514.4,
          "velocity": 0.8267716535433071
        },
        {
          "duration": 0.33333333333325754,
          "durationTicks": 400,
          "midi": 60,
          "name": "C4",
          "ticks": 618240,
          "time": 515.2,
          "velocity": 0.8267716535433071
        },
        {
          "duration": 0.049999999999954525,
          "durationTicks": 60,
          "midi": 65,
          "name": "F4",
          "ticks": 618960,
          "time": 515.8000000000001,
          "velocity": 0.8267716535433071
        },
        {
          "duration": 0.049999999999954525,
          "durationTicks": 60,
          "midi": 64,
          "name": "E4",
          "ticks": 619020,
          "time": 515.85,
          "velocity": 0.8267716535433071
        },
        {
          "duration": 0.05000000000006821,
          "durationTicks": 60,
          "midi": 62,
          "name": "D4",
          "ticks": 619080,
          "time": 515.9,
          "velocity": 0.8267716535433071
        },
        {
          "duration": 0.049999999999954525,
          "durationTicks": 60,
          "midi": 60,
          "name": "C4",
          "ticks": 619140,
          "time": 515.95,
          "velocity": 0.8267716535433071
        },
        {
          "duration": 0.33333333333337123,
          "durationTicks": 400,
          "midi": 59,
          "name": "B3",
          "ticks": 619200,
          "time": 516,
          "velocity": 0.8267716535433071
        },
        {
          "duration": 0.049999999999954525,
          "durationTicks": 60,
          "midi": 67,
          "name": "G4",
          "ticks": 619920,
          "time": 516.6,
          "velocity": 0.8267716535433071
        },
        {
          "duration": 0.05000000000006821,
          "durationTicks": 60,
          "midi": 65,
          "name": "F4",
          "ticks": 619980,
          "time": 516.65,
          "velocity": 0.8267716535433071
        },
        {
          "duration": 0.049999999999954525,
          "durationTicks": 60,
          "midi": 64,
          "name": "E4",
          "ticks": 620040,
          "time": 516.7,
          "velocity": 0.8267716535433071
        },
        {
          "duration": 0.05000000000006821,
          "durationTicks": 60,
          "midi": 62,
          "name": "D4",
          "ticks": 620100,
          "time": 516.75,
          "velocity": 0.8267716535433071
        },
        {
          "duration": 0.33333333333325754,
          "durationTicks": 400,
          "midi": 64,
          "name": "E4",
          "ticks": 620160,
          "time": 516.8000000000001,
          "velocity": 0.8267716535433071
        },
        {
          "duration": 0.046666666666624224,
          "durationTicks": 56,
          "midi": 65,
          "name": "F4",
          "ticks": 620880,
          "time": 517.4,
          "velocity": 0.8267716535433071
        },
        {
          "duration": 0.046666666666624224,
          "durationTicks": 56,
          "midi": 64,
          "name": "E4",
          "ticks": 620940,
          "time": 517.45,
          "velocity": 0.8267716535433071
        },
        {
          "duration": 0.046666666666624224,
          "durationTicks": 56,
          "midi": 62,
          "name": "D4",
          "ticks": 621000,
          "time": 517.5,
          "velocity": 0.8267716535433071
        },
        {
          "duration": 0.046666666666624224,
          "durationTicks": 56,
          "midi": 60,
          "name": "C4",
          "ticks": 621060,
          "time": 517.5500000000001,
          "velocity": 0.8267716535433071
        },
        {
          "duration": 0.33333333333325754,
          "durationTicks": 400,
          "midi": 59,
          "name": "B3",
          "ticks": 621120,
          "time": 517.6,
          "velocity": 0.8267716535433071
        },
        {
          "duration": 0.049999999999954525,
          "durationTicks": 60,
          "midi": 67,
          "name": "G4",
          "ticks": 621840,
          "time": 518.2,
          "velocity": 0.8267716535433071
        },
        {
          "duration": 0.05000000000006821,
          "durationTicks": 60,
          "midi": 65,
          "name": "F4",
          "ticks": 621900,
          "time": 518.25,
          "velocity": 0.8267716535433071
        },
        {
          "duration": 0.049999999999954525,
          "durationTicks": 60,
          "midi": 64,
          "name": "E4",
          "ticks": 621960,
          "time": 518.3000000000001,
          "velocity": 0.8267716535433071
        },
        {
          "duration": 0.049999999999954525,
          "durationTicks": 60,
          "midi": 62,
          "name": "D4",
          "ticks": 622020,
          "time": 518.35,
          "velocity": 0.8267716535433071
        },
        {
          "duration": 0.33333333333337123,
          "durationTicks": 400,
          "midi": 64,
          "name": "E4",
          "ticks": 622080,
          "time": 518.4,
          "velocity": 0.8267716535433071
        },
        {
          "duration": 0.1966666666666015,
          "durationTicks": 236,
          "midi": 67,
          "name": "G4",
          "ticks": 622560,
          "time": 518.8000000000001,
          "velocity": 0.8267716535433071
        },
        {
          "duration": 0.1966666666666015,
          "durationTicks": 236,
          "midi": 67,
          "name": "G4",
          "ticks": 622800,
          "time": 519,
          "velocity": 0.8267716535433071
        },
        {
          "duration": 0.1966666666666015,
          "durationTicks": 236,
          "midi": 72,
          "name": "C5",
          "ticks": 623040,
          "time": 519.2,
          "velocity": 0.8267716535433071
        },
        {
          "duration": 0.19666666666671517,
          "durationTicks": 236,
          "midi": 72,
          "name": "C5",
          "ticks": 623280,
          "time": 519.4,
          "velocity": 0.8267716535433071
        },
        {
          "duration": 0.1966666666666015,
          "durationTicks": 236,
          "midi": 67,
          "name": "G4",
          "ticks": 623520,
          "time": 519.6,
          "velocity": 0.8267716535433071
        },
        {
          "duration": 0.1966666666666015,
          "durationTicks": 236,
          "midi": 67,
          "name": "G4",
          "ticks": 623760,
          "time": 519.8000000000001,
          "velocity": 0.8267716535433071
        },
        {
          "duration": 0.1966666666666015,
          "durationTicks": 236,
          "midi": 72,
          "name": "C5",
          "ticks": 624000,
          "time": 520,
          "velocity": 0.8267716535433071
        },
        {
          "duration": 0.1966666666666015,
          "durationTicks": 236,
          "midi": 72,
          "name": "C5",
          "ticks": 624240,
          "time": 520.2,
          "velocity": 0.8267716535433071
        },
        {
          "duration": 0.19666666666671517,
          "durationTicks": 236,
          "midi": 67,
          "name": "G4",
          "ticks": 624480,
          "time": 520.4,
          "velocity": 0.8267716535433071
        },
        {
          "duration": 0.1966666666666015,
          "durationTicks": 236,
          "midi": 67,
          "name": "G4",
          "ticks": 624720,
          "time": 520.6,
          "velocity": 0.8267716535433071
        },
        {
          "duration": 0.1966666666666015,
          "durationTicks": 236,
          "midi": 64,
          "name": "E4",
          "ticks": 624960,
          "time": 520.8000000000001,
          "velocity": 0.8267716535433071
        },
        {
          "duration": 0.1966666666666015,
          "durationTicks": 236,
          "midi": 64,
          "name": "E4",
          "ticks": 625200,
          "time": 521,
          "velocity": 0.8267716535433071
        },
        {
          "duration": 0.1966666666666015,
          "durationTicks": 236,
          "midi": 60,
          "name": "C4",
          "ticks": 625440,
          "time": 521.2,
          "velocity": 0.8267716535433071
        },
        {
          "duration": 0.19666666666671517,
          "durationTicks": 236,
          "midi": 60,
          "name": "C4",
          "ticks": 625680,
          "time": 521.4,
          "velocity": 0.8267716535433071
        },
        {
          "duration": 0.33333333333325754,
          "durationTicks": 400,
          "midi": 55,
          "name": "G3",
          "ticks": 625920,
          "time": 521.6,
          "velocity": 0.8267716535433071
        },
        {
          "duration": 0.1966666666666015,
          "durationTicks": 236,
          "midi": 67,
          "name": "G4",
          "ticks": 626640,
          "time": 522.2,
          "velocity": 0.8267716535433071
        },
        {
          "duration": 0.33333333333337123,
          "durationTicks": 400,
          "midi": 72,
          "name": "C5",
          "ticks": 626880,
          "time": 522.4,
          "velocity": 0.8267716535433071
        },
        {
          "duration": 0.1966666666666015,
          "durationTicks": 236,
          "midi": 72,
          "name": "C5",
          "ticks": 627600,
          "time": 523,
          "velocity": 0.8267716535433071
        },
        {
          "duration": 0.33333333333325754,
          "durationTicks": 400,
          "midi": 67,
          "name": "G4",
          "ticks": 627840,
          "time": 523.2,
          "velocity": 0.8267716535433071
        },
        {
          "duration": 0.1966666666666015,
          "durationTicks": 236,
          "midi": 67,
          "name": "G4",
          "ticks": 628560,
          "time": 523.8000000000001,
          "velocity": 0.8267716535433071
        },
        {
          "duration": 0.33333333333337123,
          "durationTicks": 400,
          "midi": 72,
          "name": "C5",
          "ticks": 628800,
          "time": 524,
          "velocity": 0.8267716535433071
        },
        {
          "duration": 0.1966666666666015,
          "durationTicks": 236,
          "midi": 72,
          "name": "C5",
          "ticks": 629520,
          "time": 524.6,
          "velocity": 0.8267716535433071
        },
        {
          "duration": 0.1966666666666015,
          "durationTicks": 236,
          "midi": 67,
          "name": "G4",
          "ticks": 629760,
          "time": 524.8000000000001,
          "velocity": 0.8267716535433071
        },
        {
          "duration": 0.1966666666666015,
          "durationTicks": 236,
          "midi": 72,
          "name": "C5",
          "ticks": 630000,
          "time": 525,
          "velocity": 0.8346456692913385
        },
        {
          "duration": 0.1966666666666015,
          "durationTicks": 236,
          "midi": 67,
          "name": "G4",
          "ticks": 630240,
          "time": 525.2,
          "velocity": 0.8503937007874016
        },
        {
          "duration": 0.19666666666671517,
          "durationTicks": 236,
          "midi": 72,
          "name": "C5",
          "ticks": 630480,
          "time": 525.4,
          "velocity": 0.8582677165354331
        },
        {
          "duration": 0.1966666666666015,
          "durationTicks": 236,
          "midi": 67,
          "name": "G4",
          "ticks": 630720,
          "time": 525.6,
          "velocity": 0.8661417322834646
        },
        {
          "duration": 0.1966666666666015,
          "durationTicks": 236,
          "midi": 72,
          "name": "C5",
          "ticks": 630960,
          "time": 525.8000000000001,
          "velocity": 0.8740157480314961
        },
        {
          "duration": 0.1966666666666015,
          "durationTicks": 236,
          "midi": 67,
          "name": "G4",
          "ticks": 631200,
          "time": 526,
          "velocity": 0.8818897637795275
        },
        {
          "duration": 0.1966666666666015,
          "durationTicks": 236,
          "midi": 72,
          "name": "C5",
          "ticks": 631440,
          "time": 526.2,
          "velocity": 0.889763779527559
        },
        {
          "duration": 0.33333333333337123,
          "durationTicks": 400,
          "midi": 67,
          "name": "G4",
          "ticks": 631680,
          "time": 526.4,
          "velocity": 0.905511811023622
        },
        {
          "duration": 0.33333333333325754,
          "durationTicks": 400,
          "midi": 67,
          "name": "G4",
          "ticks": 632160,
          "time": 526.8000000000001,
          "velocity": 0.9212598425196851
        },
        {
          "duration": 0.33333333333325754,
          "durationTicks": 400,
          "midi": 55,
          "name": "G3",
          "ticks": 632640,
          "time": 527.2,
          "velocity": 0.937007874015748
        },
        {
          "duration": 0.33333333333325754,
          "durationTicks": 400,
          "midi": 55,
          "name": "G3",
          "ticks": 633120,
          "time": 527.6,
          "velocity": 0.952755905511811
        },
        {
          "duration": 1.5,
          "durationTicks": 1800,
          "midi": 55,
          "name": "G3",
          "ticks": 633600,
          "time": 528,
          "velocity": 0.9763779527559056
        },
        {
          "duration": 0.33333333333337123,
          "durationTicks": 400,
          "midi": 58,
          "name": "A#3",
          "ticks": 643200,
          "time": 536,
          "velocity": 0.9763779527559056
        },
        {
          "duration": 0.06666666666671972,
          "durationTicks": 80,
          "midi": 53,
          "name": "F3",
          "ticks": 643920,
          "time": 536.6,
          "velocity": 0.9763779527559056
        },
        {
          "duration": 0.06666666666660603,
          "durationTicks": 80,
          "midi": 55,
          "name": "G3",
          "ticks": 644000,
          "time": 536.6666666666667,
          "velocity": 0.9763779527559056
        },
        {
          "duration": 0.06666666666671972,
          "durationTicks": 80,
          "midi": 57,
          "name": "A3",
          "ticks": 644080,
          "time": 536.7333333333333,
          "velocity": 0.9763779527559056
        },
        {
          "duration": 0.33333333333325754,
          "durationTicks": 400,
          "midi": 58,
          "name": "A#3",
          "ticks": 644160,
          "time": 536.8000000000001,
          "velocity": 0.9763779527559056
        },
        {
          "duration": 0.06666666666671972,
          "durationTicks": 80,
          "midi": 53,
          "name": "F3",
          "ticks": 644880,
          "time": 537.4,
          "velocity": 0.9763779527559056
        },
        {
          "duration": 0.06666666666660603,
          "durationTicks": 80,
          "midi": 55,
          "name": "G3",
          "ticks": 644960,
          "time": 537.4666666666667,
          "velocity": 0.9763779527559056
        },
        {
          "duration": 0.06666666666671972,
          "durationTicks": 80,
          "midi": 57,
          "name": "A3",
          "ticks": 645040,
          "time": 537.5333333333333,
          "velocity": 0.9763779527559056
        },
        {
          "duration": 0.33333333333325754,
          "durationTicks": 400,
          "midi": 58,
          "name": "A#3",
          "ticks": 645120,
          "time": 537.6,
          "velocity": 0.9763779527559056
        },
        {
          "duration": 0.06666666666660603,
          "durationTicks": 80,
          "midi": 65,
          "name": "F4",
          "ticks": 651360,
          "time": 542.8000000000001,
          "velocity": 0.9763779527559056
        },
        {
          "duration": 0.06666666666671972,
          "durationTicks": 80,
          "midi": 53,
          "name": "F3",
          "ticks": 651840,
          "time": 543.2,
          "velocity": 0.9763779527559056
        },
        {
          "duration": 0.06666666666671972,
          "durationTicks": 80,
          "midi": 56,
          "name": "G#3",
          "ticks": 652320,
          "time": 543.6,
          "velocity": 0.9763779527559056
        },
        {
          "duration": 0.33333333333337123,
          "durationTicks": 400,
          "midi": 58,
          "name": "A#3",
          "ticks": 652800,
          "time": 544,
          "velocity": 0.9763779527559056
        },
        {
          "duration": 0.06666666666671972,
          "durationTicks": 80,
          "midi": 60,
          "name": "C4",
          "ticks": 655200,
          "time": 546,
          "velocity": 0.9763779527559056
        },
        {
          "duration": 0.06666666666671972,
          "durationTicks": 80,
          "midi": 50,
          "name": "D3",
          "ticks": 655680,
          "time": 546.4,
          "velocity": 0.9763779527559056
        },
        {
          "duration": 0.06666666666660603,
          "durationTicks": 80,
          "midi": 53,
          "name": "F3",
          "ticks": 656160,
          "time": 546.8000000000001,
          "velocity": 0.9763779527559056
        },
        {
          "duration": 0.1966666666666015,
          "durationTicks": 236,
          "midi": 55,
          "name": "G3",
          "ticks": 656640,
          "time": 547.2,
          "velocity": 0.9763779527559056
        },
        {
          "duration": 0.39999999999997726,
          "durationTicks": 480,
          "midi": 62,
          "name": "D4",
          "ticks": 657120,
          "time": 547.6,
          "velocity": 0.9763779527559056
        },
        {
          "duration": 0.39999999999997726,
          "durationTicks": 480,
          "midi": 60,
          "name": "C4",
          "ticks": 657600,
          "time": 548,
          "velocity": 0.9763779527559056
        },
        {
          "duration": 0.33333333333337123,
          "durationTicks": 400,
          "midi": 62,
          "name": "D4",
          "ticks": 658080,
          "time": 548.4,
          "velocity": 0.9763779527559056
        },
        {
          "duration": 0.7999999999999545,
          "durationTicks": 960,
          "midi": 63,
          "name": "D#4",
          "ticks": 658560,
          "time": 548.8000000000001,
          "velocity": 0.9763779527559056
        },
        {
          "duration": 0.7000000000000455,
          "durationTicks": 840,
          "midi": 60,
          "name": "C4",
          "ticks": 659520,
          "time": 549.6,
          "velocity": 0.9763779527559056
        },
        {
          "duration": 0.33333333333337123,
          "durationTicks": 400,
          "midi": 55,
          "name": "G3",
          "ticks": 660480,
          "time": 550.4,
          "velocity": 0.8267716535433071
        },
        {
          "duration": 0.33333333333337123,
          "durationTicks": 400,
          "midi": 67,
          "name": "G4",
          "ticks": 660480,
          "time": 550.4,
          "velocity": 0.8267716535433071
        },
        {
          "duration": 0.06666666666671972,
          "durationTicks": 80,
          "midi": 62,
          "name": "D4",
          "ticks": 661200,
          "time": 551,
          "velocity": 0.8267716535433071
        },
        {
          "duration": 0.06666666666660603,
          "durationTicks": 80,
          "midi": 64,
          "name": "E4",
          "ticks": 661280,
          "time": 551.0666666666667,
          "velocity": 0.8267716535433071
        },
        {
          "duration": 0.06666666666671972,
          "durationTicks": 80,
          "midi": 66,
          "name": "F#4",
          "ticks": 661360,
          "time": 551.1333333333333,
          "velocity": 0.8267716535433071
        },
        {
          "duration": 0.33333333333325754,
          "durationTicks": 400,
          "midi": 67,
          "name": "G4",
          "ticks": 661440,
          "time": 551.2,
          "velocity": 0.8267716535433071
        },
        {
          "duration": 0.06666666666660603,
          "durationTicks": 80,
          "midi": 62,
          "name": "D4",
          "ticks": 662160,
          "time": 551.8000000000001,
          "velocity": 0.8267716535433071
        },
        {
          "duration": 0.06666666666660603,
          "durationTicks": 80,
          "midi": 64,
          "name": "E4",
          "ticks": 662240,
          "time": 551.8666666666667,
          "velocity": 0.8267716535433071
        },
        {
          "duration": 0.06666666666671972,
          "durationTicks": 80,
          "midi": 66,
          "name": "F#4",
          "ticks": 662320,
          "time": 551.9333333333333,
          "velocity": 0.8267716535433071
        },
        {
          "duration": 0.33333333333337123,
          "durationTicks": 400,
          "midi": 67,
          "name": "G4",
          "ticks": 662400,
          "time": 552,
          "velocity": 0.8267716535433071
        },
        {
          "duration": 0.1966666666666015,
          "durationTicks": 236,
          "midi": 55,
          "name": "G3",
          "ticks": 664320,
          "time": 553.6,
          "velocity": 0.8267716535433071
        },
        {
          "duration": 0.1966666666666015,
          "durationTicks": 236,
          "midi": 67,
          "name": "G4",
          "ticks": 664320,
          "time": 553.6,
          "velocity": 0.8267716535433071
        },
        {
          "duration": 0.1966666666666015,
          "durationTicks": 236,
          "midi": 55,
          "name": "G3",
          "ticks": 664560,
          "time": 553.8000000000001,
          "velocity": 0.8267716535433071
        },
        {
          "duration": 0.1966666666666015,
          "durationTicks": 236,
          "midi": 67,
          "name": "G4",
          "ticks": 664560,
          "time": 553.8000000000001,
          "velocity": 0.8267716535433071
        },
        {
          "duration": 0.1966666666666015,
          "durationTicks": 236,
          "midi": 55,
          "name": "G3",
          "ticks": 664800,
          "time": 554,
          "velocity": 0.8267716535433071
        },
        {
          "duration": 0.1966666666666015,
          "durationTicks": 236,
          "midi": 67,
          "name": "G4",
          "ticks": 664800,
          "time": 554,
          "velocity": 0.8267716535433071
        },
        {
          "duration": 0.1966666666666015,
          "durationTicks": 236,
          "midi": 55,
          "name": "G3",
          "ticks": 665040,
          "time": 554.2,
          "velocity": 0.8267716535433071
        },
        {
          "duration": 0.1966666666666015,
          "durationTicks": 236,
          "midi": 67,
          "name": "G4",
          "ticks": 665040,
          "time": 554.2,
          "velocity": 0.8267716535433071
        },
        {
          "duration": 0.19666666666671517,
          "durationTicks": 236,
          "midi": 55,
          "name": "G3",
          "ticks": 665280,
          "time": 554.4,
          "velocity": 0.8267716535433071
        },
        {
          "duration": 0.19666666666671517,
          "durationTicks": 236,
          "midi": 67,
          "name": "G4",
          "ticks": 665280,
          "time": 554.4,
          "velocity": 0.8267716535433071
        },
        {
          "duration": 0.1966666666666015,
          "durationTicks": 236,
          "midi": 55,
          "name": "G3",
          "ticks": 665520,
          "time": 554.6,
          "velocity": 0.8267716535433071
        },
        {
          "duration": 0.1966666666666015,
          "durationTicks": 236,
          "midi": 67,
          "name": "G4",
          "ticks": 665520,
          "time": 554.6,
          "velocity": 0.8267716535433071
        },
        {
          "duration": 0.1966666666666015,
          "durationTicks": 236,
          "midi": 55,
          "name": "G3",
          "ticks": 665760,
          "time": 554.8000000000001,
          "velocity": 0.8267716535433071
        },
        {
          "duration": 0.1966666666666015,
          "durationTicks": 236,
          "midi": 67,
          "name": "G4",
          "ticks": 665760,
          "time": 554.8000000000001,
          "velocity": 0.8267716535433071
        },
        {
          "duration": 0.1966666666666015,
          "durationTicks": 236,
          "midi": 55,
          "name": "G3",
          "ticks": 666000,
          "time": 555,
          "velocity": 0.8267716535433071
        },
        {
          "duration": 0.1966666666666015,
          "durationTicks": 236,
          "midi": 67,
          "name": "G4",
          "ticks": 666000,
          "time": 555,
          "velocity": 0.8267716535433071
        },
        {
          "duration": 0.1966666666666015,
          "durationTicks": 236,
          "midi": 55,
          "name": "G3",
          "ticks": 666240,
          "time": 555.2,
          "velocity": 0.8267716535433071
        },
        {
          "duration": 0.1966666666666015,
          "durationTicks": 236,
          "midi": 67,
          "name": "G4",
          "ticks": 666240,
          "time": 555.2,
          "velocity": 0.8267716535433071
        },
        {
          "duration": 0.19666666666671517,
          "durationTicks": 236,
          "midi": 55,
          "name": "G3",
          "ticks": 666480,
          "time": 555.4,
          "velocity": 0.8267716535433071
        },
        {
          "duration": 0.19666666666671517,
          "durationTicks": 236,
          "midi": 67,
          "name": "G4",
          "ticks": 666480,
          "time": 555.4,
          "velocity": 0.8267716535433071
        },
        {
          "duration": 0.1966666666666015,
          "durationTicks": 236,
          "midi": 55,
          "name": "G3",
          "ticks": 666720,
          "time": 555.6,
          "velocity": 0.8267716535433071
        },
        {
          "duration": 0.1966666666666015,
          "durationTicks": 236,
          "midi": 67,
          "name": "G4",
          "ticks": 666720,
          "time": 555.6,
          "velocity": 0.8267716535433071
        },
        {
          "duration": 0.1966666666666015,
          "durationTicks": 236,
          "midi": 55,
          "name": "G3",
          "ticks": 666960,
          "time": 555.8000000000001,
          "velocity": 0.8267716535433071
        },
        {
          "duration": 0.1966666666666015,
          "durationTicks": 236,
          "midi": 67,
          "name": "G4",
          "ticks": 666960,
          "time": 555.8000000000001,
          "velocity": 0.8267716535433071
        },
        {
          "duration": 0.1966666666666015,
          "durationTicks": 236,
          "midi": 55,
          "name": "G3",
          "ticks": 667200,
          "time": 556,
          "velocity": 0.8267716535433071
        },
        {
          "duration": 0.1966666666666015,
          "durationTicks": 236,
          "midi": 67,
          "name": "G4",
          "ticks": 667200,
          "time": 556,
          "velocity": 0.8267716535433071
        },
        {
          "duration": 0.1966666666666015,
          "durationTicks": 236,
          "midi": 55,
          "name": "G3",
          "ticks": 667440,
          "time": 556.2,
          "velocity": 0.8267716535433071
        },
        {
          "duration": 0.1966666666666015,
          "durationTicks": 236,
          "midi": 67,
          "name": "G4",
          "ticks": 667440,
          "time": 556.2,
          "velocity": 0.8267716535433071
        },
        {
          "duration": 0.19666666666671517,
          "durationTicks": 236,
          "midi": 55,
          "name": "G3",
          "ticks": 667680,
          "time": 556.4,
          "velocity": 0.8267716535433071
        },
        {
          "duration": 0.19666666666671517,
          "durationTicks": 236,
          "midi": 67,
          "name": "G4",
          "ticks": 667680,
          "time": 556.4,
          "velocity": 0.8267716535433071
        },
        {
          "duration": 0.1966666666666015,
          "durationTicks": 236,
          "midi": 55,
          "name": "G3",
          "ticks": 667920,
          "time": 556.6,
          "velocity": 0.8267716535433071
        },
        {
          "duration": 0.1966666666666015,
          "durationTicks": 236,
          "midi": 67,
          "name": "G4",
          "ticks": 667920,
          "time": 556.6,
          "velocity": 0.8267716535433071
        },
        {
          "duration": 0.1966666666666015,
          "durationTicks": 236,
          "midi": 55,
          "name": "G3",
          "ticks": 668160,
          "time": 556.8000000000001,
          "velocity": 0.8267716535433071
        },
        {
          "duration": 0.1966666666666015,
          "durationTicks": 236,
          "midi": 67,
          "name": "G4",
          "ticks": 668160,
          "time": 556.8000000000001,
          "velocity": 0.8267716535433071
        },
        {
          "duration": 0.1966666666666015,
          "durationTicks": 236,
          "midi": 55,
          "name": "G3",
          "ticks": 668400,
          "time": 557,
          "velocity": 0.8267716535433071
        },
        {
          "duration": 0.1966666666666015,
          "durationTicks": 236,
          "midi": 67,
          "name": "G4",
          "ticks": 668400,
          "time": 557,
          "velocity": 0.8267716535433071
        },
        {
          "duration": 0.1966666666666015,
          "durationTicks": 236,
          "midi": 55,
          "name": "G3",
          "ticks": 668640,
          "time": 557.2,
          "velocity": 0.8267716535433071
        },
        {
          "duration": 0.1966666666666015,
          "durationTicks": 236,
          "midi": 67,
          "name": "G4",
          "ticks": 668640,
          "time": 557.2,
          "velocity": 0.8267716535433071
        },
        {
          "duration": 0.19666666666671517,
          "durationTicks": 236,
          "midi": 55,
          "name": "G3",
          "ticks": 668880,
          "time": 557.4,
          "velocity": 0.8267716535433071
        },
        {
          "duration": 0.19666666666671517,
          "durationTicks": 236,
          "midi": 67,
          "name": "G4",
          "ticks": 668880,
          "time": 557.4,
          "velocity": 0.8267716535433071
        },
        {
          "duration": 0.1966666666666015,
          "durationTicks": 236,
          "midi": 55,
          "name": "G3",
          "ticks": 669120,
          "time": 557.6,
          "velocity": 0.8267716535433071
        },
        {
          "duration": 0.1966666666666015,
          "durationTicks": 236,
          "midi": 67,
          "name": "G4",
          "ticks": 669120,
          "time": 557.6,
          "velocity": 0.8267716535433071
        },
        {
          "duration": 0.1966666666666015,
          "durationTicks": 236,
          "midi": 55,
          "name": "G3",
          "ticks": 669360,
          "time": 557.8000000000001,
          "velocity": 0.8267716535433071
        },
        {
          "duration": 0.1966666666666015,
          "durationTicks": 236,
          "midi": 67,
          "name": "G4",
          "ticks": 669360,
          "time": 557.8000000000001,
          "velocity": 0.8267716535433071
        },
        {
          "duration": 0.1966666666666015,
          "durationTicks": 236,
          "midi": 55,
          "name": "G3",
          "ticks": 669600,
          "time": 558,
          "velocity": 0.8267716535433071
        },
        {
          "duration": 0.1966666666666015,
          "durationTicks": 236,
          "midi": 67,
          "name": "G4",
          "ticks": 669600,
          "time": 558,
          "velocity": 0.8267716535433071
        },
        {
          "duration": 0.1966666666666015,
          "durationTicks": 236,
          "midi": 55,
          "name": "G3",
          "ticks": 669840,
          "time": 558.2,
          "velocity": 0.8267716535433071
        },
        {
          "duration": 0.1966666666666015,
          "durationTicks": 236,
          "midi": 67,
          "name": "G4",
          "ticks": 669840,
          "time": 558.2,
          "velocity": 0.8267716535433071
        },
        {
          "duration": 0.19666666666671517,
          "durationTicks": 236,
          "midi": 55,
          "name": "G3",
          "ticks": 670080,
          "time": 558.4,
          "velocity": 0.8267716535433071
        },
        {
          "duration": 0.19666666666671517,
          "durationTicks": 236,
          "midi": 67,
          "name": "G4",
          "ticks": 670080,
          "time": 558.4,
          "velocity": 0.8267716535433071
        },
        {
          "duration": 0.1966666666666015,
          "durationTicks": 236,
          "midi": 55,
          "name": "G3",
          "ticks": 670320,
          "time": 558.6,
          "velocity": 0.8267716535433071
        },
        {
          "duration": 0.1966666666666015,
          "durationTicks": 236,
          "midi": 67,
          "name": "G4",
          "ticks": 670320,
          "time": 558.6,
          "velocity": 0.8267716535433071
        },
        {
          "duration": 0.1966666666666015,
          "durationTicks": 236,
          "midi": 55,
          "name": "G3",
          "ticks": 670560,
          "time": 558.8000000000001,
          "velocity": 0.8267716535433071
        },
        {
          "duration": 0.1966666666666015,
          "durationTicks": 236,
          "midi": 67,
          "name": "G4",
          "ticks": 670560,
          "time": 558.8000000000001,
          "velocity": 0.8267716535433071
        },
        {
          "duration": 0.1966666666666015,
          "durationTicks": 236,
          "midi": 55,
          "name": "G3",
          "ticks": 670800,
          "time": 559,
          "velocity": 0.8267716535433071
        },
        {
          "duration": 0.1966666666666015,
          "durationTicks": 236,
          "midi": 67,
          "name": "G4",
          "ticks": 670800,
          "time": 559,
          "velocity": 0.8267716535433071
        },
        {
          "duration": 0.1966666666666015,
          "durationTicks": 236,
          "midi": 55,
          "name": "G3",
          "ticks": 671040,
          "time": 559.2,
          "velocity": 0.8267716535433071
        },
        {
          "duration": 0.1966666666666015,
          "durationTicks": 236,
          "midi": 67,
          "name": "G4",
          "ticks": 671040,
          "time": 559.2,
          "velocity": 0.8267716535433071
        },
        {
          "duration": 0.19666666666671517,
          "durationTicks": 236,
          "midi": 55,
          "name": "G3",
          "ticks": 671280,
          "time": 559.4,
          "velocity": 0.8267716535433071
        },
        {
          "duration": 0.19666666666671517,
          "durationTicks": 236,
          "midi": 67,
          "name": "G4",
          "ticks": 671280,
          "time": 559.4,
          "velocity": 0.8267716535433071
        },
        {
          "duration": 0.1966666666666015,
          "durationTicks": 236,
          "midi": 55,
          "name": "G3",
          "ticks": 671520,
          "time": 559.6,
          "velocity": 0.8267716535433071
        },
        {
          "duration": 0.1966666666666015,
          "durationTicks": 236,
          "midi": 67,
          "name": "G4",
          "ticks": 671520,
          "time": 559.6,
          "velocity": 0.8267716535433071
        },
        {
          "duration": 0.1966666666666015,
          "durationTicks": 236,
          "midi": 55,
          "name": "G3",
          "ticks": 671760,
          "time": 559.8000000000001,
          "velocity": 0.8267716535433071
        },
        {
          "duration": 0.1966666666666015,
          "durationTicks": 236,
          "midi": 67,
          "name": "G4",
          "ticks": 671760,
          "time": 559.8000000000001,
          "velocity": 0.8267716535433071
        },
        {
          "duration": 0.1966666666666015,
          "durationTicks": 236,
          "midi": 55,
          "name": "G3",
          "ticks": 672000,
          "time": 560,
          "velocity": 0.8267716535433071
        },
        {
          "duration": 0.1966666666666015,
          "durationTicks": 236,
          "midi": 67,
          "name": "G4",
          "ticks": 672000,
          "time": 560,
          "velocity": 0.8267716535433071
        },
        {
          "duration": 0.1966666666666015,
          "durationTicks": 236,
          "midi": 55,
          "name": "G3",
          "ticks": 672240,
          "time": 560.2,
          "velocity": 0.8267716535433071
        },
        {
          "duration": 0.1966666666666015,
          "durationTicks": 236,
          "midi": 67,
          "name": "G4",
          "ticks": 672240,
          "time": 560.2,
          "velocity": 0.8267716535433071
        },
        {
          "duration": 0.19666666666671517,
          "durationTicks": 236,
          "midi": 55,
          "name": "G3",
          "ticks": 672480,
          "time": 560.4,
          "velocity": 0.8267716535433071
        },
        {
          "duration": 0.19666666666671517,
          "durationTicks": 236,
          "midi": 67,
          "name": "G4",
          "ticks": 672480,
          "time": 560.4,
          "velocity": 0.8267716535433071
        },
        {
          "duration": 0.1966666666666015,
          "durationTicks": 236,
          "midi": 55,
          "name": "G3",
          "ticks": 672720,
          "time": 560.6,
          "velocity": 0.8267716535433071
        },
        {
          "duration": 0.1966666666666015,
          "durationTicks": 236,
          "midi": 67,
          "name": "G4",
          "ticks": 672720,
          "time": 560.6,
          "velocity": 0.8267716535433071
        },
        {
          "duration": 0.1966666666666015,
          "durationTicks": 236,
          "midi": 55,
          "name": "G3",
          "ticks": 672960,
          "time": 560.8000000000001,
          "velocity": 0.8267716535433071
        },
        {
          "duration": 0.1966666666666015,
          "durationTicks": 236,
          "midi": 67,
          "name": "G4",
          "ticks": 672960,
          "time": 560.8000000000001,
          "velocity": 0.8267716535433071
        },
        {
          "duration": 0.1966666666666015,
          "durationTicks": 236,
          "midi": 55,
          "name": "G3",
          "ticks": 673200,
          "time": 561,
          "velocity": 0.8267716535433071
        },
        {
          "duration": 0.1966666666666015,
          "durationTicks": 236,
          "midi": 67,
          "name": "G4",
          "ticks": 673200,
          "time": 561,
          "velocity": 0.8267716535433071
        },
        {
          "duration": 0.1966666666666015,
          "durationTicks": 236,
          "midi": 55,
          "name": "G3",
          "ticks": 673440,
          "time": 561.2,
          "velocity": 0.8267716535433071
        },
        {
          "duration": 0.1966666666666015,
          "durationTicks": 236,
          "midi": 67,
          "name": "G4",
          "ticks": 673440,
          "time": 561.2,
          "velocity": 0.8267716535433071
        },
        {
          "duration": 0.19666666666671517,
          "durationTicks": 236,
          "midi": 55,
          "name": "G3",
          "ticks": 673680,
          "time": 561.4,
          "velocity": 0.8267716535433071
        },
        {
          "duration": 0.19666666666671517,
          "durationTicks": 236,
          "midi": 67,
          "name": "G4",
          "ticks": 673680,
          "time": 561.4,
          "velocity": 0.8267716535433071
        },
        {
          "duration": 0.1966666666666015,
          "durationTicks": 236,
          "midi": 55,
          "name": "G3",
          "ticks": 673920,
          "time": 561.6,
          "velocity": 0.8267716535433071
        },
        {
          "duration": 0.1966666666666015,
          "durationTicks": 236,
          "midi": 67,
          "name": "G4",
          "ticks": 673920,
          "time": 561.6,
          "velocity": 0.8267716535433071
        },
        {
          "duration": 0.1966666666666015,
          "durationTicks": 236,
          "midi": 55,
          "name": "G3",
          "ticks": 674160,
          "time": 561.8000000000001,
          "velocity": 0.8267716535433071
        },
        {
          "duration": 0.1966666666666015,
          "durationTicks": 236,
          "midi": 67,
          "name": "G4",
          "ticks": 674160,
          "time": 561.8000000000001,
          "velocity": 0.8267716535433071
        },
        {
          "duration": 0.1966666666666015,
          "durationTicks": 236,
          "midi": 55,
          "name": "G3",
          "ticks": 674400,
          "time": 562,
          "velocity": 0.8267716535433071
        },
        {
          "duration": 0.1966666666666015,
          "durationTicks": 236,
          "midi": 67,
          "name": "G4",
          "ticks": 674400,
          "time": 562,
          "velocity": 0.8267716535433071
        },
        {
          "duration": 0.1966666666666015,
          "durationTicks": 236,
          "midi": 55,
          "name": "G3",
          "ticks": 674640,
          "time": 562.2,
          "velocity": 0.8267716535433071
        },
        {
          "duration": 0.1966666666666015,
          "durationTicks": 236,
          "midi": 67,
          "name": "G4",
          "ticks": 674640,
          "time": 562.2,
          "velocity": 0.8267716535433071
        },
        {
          "duration": 0.19666666666671517,
          "durationTicks": 236,
          "midi": 55,
          "name": "G3",
          "ticks": 674880,
          "time": 562.4,
          "velocity": 0.8267716535433071
        },
        {
          "duration": 0.19666666666671517,
          "durationTicks": 236,
          "midi": 67,
          "name": "G4",
          "ticks": 674880,
          "time": 562.4,
          "velocity": 0.8267716535433071
        },
        {
          "duration": 0.1966666666666015,
          "durationTicks": 236,
          "midi": 55,
          "name": "G3",
          "ticks": 675120,
          "time": 562.6,
          "velocity": 0.8267716535433071
        },
        {
          "duration": 0.1966666666666015,
          "durationTicks": 236,
          "midi": 67,
          "name": "G4",
          "ticks": 675120,
          "time": 562.6,
          "velocity": 0.8267716535433071
        },
        {
          "duration": 0.1966666666666015,
          "durationTicks": 236,
          "midi": 55,
          "name": "G3",
          "ticks": 675360,
          "time": 562.8000000000001,
          "velocity": 0.8267716535433071
        },
        {
          "duration": 0.1966666666666015,
          "durationTicks": 236,
          "midi": 67,
          "name": "G4",
          "ticks": 675360,
          "time": 562.8000000000001,
          "velocity": 0.8267716535433071
        },
        {
          "duration": 0.1966666666666015,
          "durationTicks": 236,
          "midi": 55,
          "name": "G3",
          "ticks": 675600,
          "time": 563,
          "velocity": 0.8267716535433071
        },
        {
          "duration": 0.1966666666666015,
          "durationTicks": 236,
          "midi": 67,
          "name": "G4",
          "ticks": 675600,
          "time": 563,
          "velocity": 0.8267716535433071
        },
        {
          "duration": 0.1966666666666015,
          "durationTicks": 236,
          "midi": 55,
          "name": "G3",
          "ticks": 675840,
          "time": 563.2,
          "velocity": 0.8267716535433071
        },
        {
          "duration": 0.1966666666666015,
          "durationTicks": 236,
          "midi": 67,
          "name": "G4",
          "ticks": 675840,
          "time": 563.2,
          "velocity": 0.8267716535433071
        },
        {
          "duration": 0.19666666666671517,
          "durationTicks": 236,
          "midi": 55,
          "name": "G3",
          "ticks": 676080,
          "time": 563.4,
          "velocity": 0.8267716535433071
        },
        {
          "duration": 0.19666666666671517,
          "durationTicks": 236,
          "midi": 67,
          "name": "G4",
          "ticks": 676080,
          "time": 563.4,
          "velocity": 0.8267716535433071
        },
        {
          "duration": 0.1966666666666015,
          "durationTicks": 236,
          "midi": 55,
          "name": "G3",
          "ticks": 676320,
          "time": 563.6,
          "velocity": 0.8267716535433071
        },
        {
          "duration": 0.1966666666666015,
          "durationTicks": 236,
          "midi": 67,
          "name": "G4",
          "ticks": 676320,
          "time": 563.6,
          "velocity": 0.8267716535433071
        },
        {
          "duration": 0.1966666666666015,
          "durationTicks": 236,
          "midi": 55,
          "name": "G3",
          "ticks": 676560,
          "time": 563.8000000000001,
          "velocity": 0.8267716535433071
        },
        {
          "duration": 0.1966666666666015,
          "durationTicks": 236,
          "midi": 67,
          "name": "G4",
          "ticks": 676560,
          "time": 563.8000000000001,
          "velocity": 0.8267716535433071
        },
        {
          "duration": 0.1966666666666015,
          "durationTicks": 236,
          "midi": 55,
          "name": "G3",
          "ticks": 676800,
          "time": 564,
          "velocity": 0.8267716535433071
        },
        {
          "duration": 0.1966666666666015,
          "durationTicks": 236,
          "midi": 67,
          "name": "G4",
          "ticks": 676800,
          "time": 564,
          "velocity": 0.8267716535433071
        },
        {
          "duration": 0.1966666666666015,
          "durationTicks": 236,
          "midi": 55,
          "name": "G3",
          "ticks": 677040,
          "time": 564.2,
          "velocity": 0.8267716535433071
        },
        {
          "duration": 0.1966666666666015,
          "durationTicks": 236,
          "midi": 67,
          "name": "G4",
          "ticks": 677040,
          "time": 564.2,
          "velocity": 0.8267716535433071
        },
        {
          "duration": 0.19666666666671517,
          "durationTicks": 236,
          "midi": 55,
          "name": "G3",
          "ticks": 677280,
          "time": 564.4,
          "velocity": 0.8267716535433071
        },
        {
          "duration": 0.19666666666671517,
          "durationTicks": 236,
          "midi": 67,
          "name": "G4",
          "ticks": 677280,
          "time": 564.4,
          "velocity": 0.8267716535433071
        },
        {
          "duration": 0.1966666666666015,
          "durationTicks": 236,
          "midi": 55,
          "name": "G3",
          "ticks": 677520,
          "time": 564.6,
          "velocity": 0.8267716535433071
        },
        {
          "duration": 0.1966666666666015,
          "durationTicks": 236,
          "midi": 67,
          "name": "G4",
          "ticks": 677520,
          "time": 564.6,
          "velocity": 0.8267716535433071
        },
        {
          "duration": 0.1966666666666015,
          "durationTicks": 236,
          "midi": 55,
          "name": "G3",
          "ticks": 677760,
          "time": 564.8000000000001,
          "velocity": 0.8267716535433071
        },
        {
          "duration": 0.1966666666666015,
          "durationTicks": 236,
          "midi": 67,
          "name": "G4",
          "ticks": 677760,
          "time": 564.8000000000001,
          "velocity": 0.8267716535433071
        },
        {
          "duration": 0.1966666666666015,
          "durationTicks": 236,
          "midi": 55,
          "name": "G3",
          "ticks": 678000,
          "time": 565,
          "velocity": 0.8267716535433071
        },
        {
          "duration": 0.1966666666666015,
          "durationTicks": 236,
          "midi": 67,
          "name": "G4",
          "ticks": 678000,
          "time": 565,
          "velocity": 0.8267716535433071
        },
        {
          "duration": 0.1966666666666015,
          "durationTicks": 236,
          "midi": 55,
          "name": "G3",
          "ticks": 678240,
          "time": 565.2,
          "velocity": 0.8267716535433071
        },
        {
          "duration": 0.1966666666666015,
          "durationTicks": 236,
          "midi": 67,
          "name": "G4",
          "ticks": 678240,
          "time": 565.2,
          "velocity": 0.8267716535433071
        },
        {
          "duration": 0.19666666666671517,
          "durationTicks": 236,
          "midi": 55,
          "name": "G3",
          "ticks": 678480,
          "time": 565.4,
          "velocity": 0.8267716535433071
        },
        {
          "duration": 0.19666666666671517,
          "durationTicks": 236,
          "midi": 67,
          "name": "G4",
          "ticks": 678480,
          "time": 565.4,
          "velocity": 0.8267716535433071
        },
        {
          "duration": 0.1966666666666015,
          "durationTicks": 236,
          "midi": 55,
          "name": "G3",
          "ticks": 678720,
          "time": 565.6,
          "velocity": 0.8267716535433071
        },
        {
          "duration": 0.1966666666666015,
          "durationTicks": 236,
          "midi": 67,
          "name": "G4",
          "ticks": 678720,
          "time": 565.6,
          "velocity": 0.8267716535433071
        },
        {
          "duration": 0.1966666666666015,
          "durationTicks": 236,
          "midi": 55,
          "name": "G3",
          "ticks": 678960,
          "time": 565.8000000000001,
          "velocity": 0.8267716535433071
        },
        {
          "duration": 0.1966666666666015,
          "durationTicks": 236,
          "midi": 67,
          "name": "G4",
          "ticks": 678960,
          "time": 565.8000000000001,
          "velocity": 0.8267716535433071
        },
        {
          "duration": 0.1966666666666015,
          "durationTicks": 236,
          "midi": 55,
          "name": "G3",
          "ticks": 679200,
          "time": 566,
          "velocity": 0.8267716535433071
        },
        {
          "duration": 0.1966666666666015,
          "durationTicks": 236,
          "midi": 67,
          "name": "G4",
          "ticks": 679200,
          "time": 566,
          "velocity": 0.8267716535433071
        },
        {
          "duration": 0.1966666666666015,
          "durationTicks": 236,
          "midi": 55,
          "name": "G3",
          "ticks": 679440,
          "time": 566.2,
          "velocity": 0.8267716535433071
        },
        {
          "duration": 0.1966666666666015,
          "durationTicks": 236,
          "midi": 67,
          "name": "G4",
          "ticks": 679440,
          "time": 566.2,
          "velocity": 0.8267716535433071
        },
        {
          "duration": 0.19666666666671517,
          "durationTicks": 236,
          "midi": 57,
          "name": "A3",
          "ticks": 679680,
          "time": 566.4,
          "velocity": 0.8267716535433071
        },
        {
          "duration": 0.1966666666666015,
          "durationTicks": 236,
          "midi": 57,
          "name": "A3",
          "ticks": 679920,
          "time": 566.6,
          "velocity": 0.8267716535433071
        },
        {
          "duration": 0.1966666666666015,
          "durationTicks": 236,
          "midi": 55,
          "name": "G3",
          "ticks": 680160,
          "time": 566.8000000000001,
          "velocity": 0.8267716535433071
        },
        {
          "duration": 0.1966666666666015,
          "durationTicks": 236,
          "midi": 55,
          "name": "G3",
          "ticks": 680400,
          "time": 567,
          "velocity": 0.8267716535433071
        },
        {
          "duration": 0.1966666666666015,
          "durationTicks": 236,
          "midi": 57,
          "name": "A3",
          "ticks": 680640,
          "time": 567.2,
          "velocity": 0.8267716535433071
        },
        {
          "duration": 0.19666666666671517,
          "durationTicks": 236,
          "midi": 57,
          "name": "A3",
          "ticks": 680880,
          "time": 567.4,
          "velocity": 0.8267716535433071
        },
        {
          "duration": 0.1966666666666015,
          "durationTicks": 236,
          "midi": 55,
          "name": "G3",
          "ticks": 681120,
          "time": 567.6,
          "velocity": 0.8267716535433071
        },
        {
          "duration": 0.1966666666666015,
          "durationTicks": 236,
          "midi": 55,
          "name": "G3",
          "ticks": 681360,
          "time": 567.8000000000001,
          "velocity": 0.8267716535433071
        },
        {
          "duration": 1.1000000000000227,
          "durationTicks": 1320,
          "midi": 57,
          "name": "A3",
          "ticks": 681600,
          "time": 568,
          "velocity": 0.8267716535433071
        },
        {
          "duration": 0.33333333333325754,
          "durationTicks": 400,
          "midi": 57,
          "name": "A3",
          "ticks": 683040,
          "time": 569.2,
          "velocity": 0.8267716535433071
        },
        {
          "duration": 0.33333333333325754,
          "durationTicks": 400,
          "midi": 55,
          "name": "G3",
          "ticks": 683520,
          "time": 569.6,
          "velocity": 0.8267716535433071
        },
        {
          "duration": 0.049999999999954525,
          "durationTicks": 60,
          "midi": 62,
          "name": "D4",
          "ticks": 684240,
          "time": 570.2,
          "velocity": 0.8267716535433071
        },
        {
          "duration": 0.05000000000006821,
          "durationTicks": 60,
          "midi": 60,
          "name": "C4",
          "ticks": 684300,
          "time": 570.25,
          "velocity": 0.8267716535433071
        },
        {
          "duration": 0.049999999999954525,
          "durationTicks": 60,
          "midi": 59,
          "name": "B3",
          "ticks": 684360,
          "time": 570.3000000000001,
          "velocity": 0.8267716535433071
        },
        {
          "duration": 0.049999999999954525,
          "durationTicks": 60,
          "midi": 57,
          "name": "A3",
          "ticks": 684420,
          "time": 570.35,
          "velocity": 0.8267716535433071
        },
        {
          "duration": 0.33333333333337123,
          "durationTicks": 400,
          "midi": 55,
          "name": "G3",
          "ticks": 684480,
          "time": 570.4,
          "velocity": 0.8267716535433071
        },
        {
          "duration": 0.049999999999954525,
          "durationTicks": 60,
          "midi": 67,
          "name": "G4",
          "ticks": 686160,
          "time": 571.8000000000001,
          "velocity": 0.8267716535433071
        },
        {
          "duration": 0.049999999999954525,
          "durationTicks": 60,
          "midi": 65,
          "name": "F4",
          "ticks": 686220,
          "time": 571.85,
          "velocity": 0.8267716535433071
        },
        {
          "duration": 0.05000000000006821,
          "durationTicks": 60,
          "midi": 64,
          "name": "E4",
          "ticks": 686280,
          "time": 571.9,
          "velocity": 0.8267716535433071
        },
        {
          "duration": 0.049999999999954525,
          "durationTicks": 60,
          "midi": 62,
          "name": "D4",
          "ticks": 686340,
          "time": 571.95,
          "velocity": 0.8267716535433071
        },
        {
          "duration": 0.33333333333337123,
          "durationTicks": 400,
          "midi": 60,
          "name": "C4",
          "ticks": 686400,
          "time": 572,
          "velocity": 0.8267716535433071
        },
        {
          "duration": 0.05000000000006821,
          "durationTicks": 60,
          "midi": 74,
          "name": "D5",
          "ticks": 688080,
          "time": 573.4,
          "velocity": 0.8267716535433071
        },
        {
          "duration": 0.049999999999954525,
          "durationTicks": 60,
          "midi": 72,
          "name": "C5",
          "ticks": 688140,
          "time": 573.45,
          "velocity": 0.8267716535433071
        },
        {
          "duration": 0.05000000000006821,
          "durationTicks": 60,
          "midi": 71,
          "name": "B4",
          "ticks": 688200,
          "time": 573.5,
          "velocity": 0.8267716535433071
        },
        {
          "duration": 0.049999999999954525,
          "durationTicks": 60,
          "midi": 69,
          "name": "A4",
          "ticks": 688260,
          "time": 573.5500000000001,
          "velocity": 0.8267716535433071
        },
        {
          "duration": 0.33333333333325754,
          "durationTicks": 400,
          "midi": 67,
          "name": "G4",
          "ticks": 688320,
          "time": 573.6,
          "velocity": 0.8267716535433071
        },
        {
          "duration": 0.05000000000006821,
          "durationTicks": 60,
          "midi": 67,
          "name": "G4",
          "ticks": 690000,
          "time": 575,
          "velocity": 0.8267716535433071
        },
        {
          "duration": 0.049999999999954525,
          "durationTicks": 60,
          "midi": 65,
          "name": "F4",
          "ticks": 690060,
          "time": 575.0500000000001,
          "velocity": 0.8267716535433071
        },
        {
          "duration": 0.049999999999954525,
          "durationTicks": 60,
          "midi": 64,
          "name": "E4",
          "ticks": 690120,
          "time": 575.1,
          "velocity": 0.8267716535433071
        },
        {
          "duration": 0.05000000000006821,
          "durationTicks": 60,
          "midi": 62,
          "name": "D4",
          "ticks": 690180,
          "time": 575.15,
          "velocity": 0.8267716535433071
        },
        {
          "duration": 0.33333333333325754,
          "durationTicks": 400,
          "midi": 60,
          "name": "C4",
          "ticks": 690240,
          "time": 575.2,
          "velocity": 0.8267716535433071
        },
        {
          "duration": 0.33333333333337123,
          "durationTicks": 400,
          "midi": 55,
          "name": "G3",
          "ticks": 691200,
          "time": 576,
          "velocity": 0.8267716535433071
        },
        {
          "duration": 0.049999999999954525,
          "durationTicks": 60,
          "midi": 67,
          "name": "G4",
          "ticks": 691920,
          "time": 576.6,
          "velocity": 0.8267716535433071
        },
        {
          "duration": 0.05000000000006821,
          "durationTicks": 60,
          "midi": 65,
          "name": "F4",
          "ticks": 691980,
          "time": 576.65,
          "velocity": 0.8267716535433071
        },
        {
          "duration": 0.049999999999954525,
          "durationTicks": 60,
          "midi": 64,
          "name": "E4",
          "ticks": 692040,
          "time": 576.7,
          "velocity": 0.8267716535433071
        },
        {
          "duration": 0.05000000000006821,
          "durationTicks": 60,
          "midi": 62,
          "name": "D4",
          "ticks": 692100,
          "time": 576.75,
          "velocity": 0.8267716535433071
        },
        {
          "duration": 0.33333333333325754,
          "durationTicks": 400,
          "midi": 64,
          "name": "E4",
          "ticks": 692160,
          "time": 576.8000000000001,
          "velocity": 0.8267716535433071
        },
        {
          "duration": 0.05000000000006821,
          "durationTicks": 60,
          "midi": 65,
          "name": "F4",
          "ticks": 692880,
          "time": 577.4,
          "velocity": 0.8267716535433071
        },
        {
          "duration": 0.049999999999954525,
          "durationTicks": 60,
          "midi": 64,
          "name": "E4",
          "ticks": 692940,
          "time": 577.45,
          "velocity": 0.8267716535433071
        },
        {
          "duration": 0.05000000000006821,
          "durationTicks": 60,
          "midi": 62,
          "name": "D4",
          "ticks": 693000,
          "time": 577.5,
          "velocity": 0.8267716535433071
        },
        {
          "duration": 0.049999999999954525,
          "durationTicks": 60,
          "midi": 60,
          "name": "C4",
          "ticks": 693060,
          "time": 577.5500000000001,
          "velocity": 0.8267716535433071
        },
        {
          "duration": 0.33333333333325754,
          "durationTicks": 400,
          "midi": 59,
          "name": "B3",
          "ticks": 693120,
          "time": 577.6,
          "velocity": 0.8267716535433071
        },
        {
          "duration": 0.049999999999954525,
          "durationTicks": 60,
          "midi": 67,
          "name": "G4",
          "ticks": 693840,
          "time": 578.2,
          "velocity": 0.8267716535433071
        },
        {
          "duration": 0.05000000000006821,
          "durationTicks": 60,
          "midi": 65,
          "name": "F4",
          "ticks": 693900,
          "time": 578.25,
          "velocity": 0.8267716535433071
        },
        {
          "duration": 0.049999999999954525,
          "durationTicks": 60,
          "midi": 64,
          "name": "E4",
          "ticks": 693960,
          "time": 578.3000000000001,
          "velocity": 0.8267716535433071
        },
        {
          "duration": 0.049999999999954525,
          "durationTicks": 60,
          "midi": 62,
          "name": "D4",
          "ticks": 694020,
          "time": 578.35,
          "velocity": 0.8267716535433071
        },
        {
          "duration": 0.33333333333337123,
          "durationTicks": 400,
          "midi": 64,
          "name": "E4",
          "ticks": 694080,
          "time": 578.4,
          "velocity": 0.8267716535433071
        },
        {
          "duration": 0.05000000000006821,
          "durationTicks": 60,
          "midi": 65,
          "name": "F4",
          "ticks": 694800,
          "time": 579,
          "velocity": 0.8267716535433071
        },
        {
          "duration": 0.049999999999954525,
          "durationTicks": 60,
          "midi": 64,
          "name": "E4",
          "ticks": 694860,
          "time": 579.0500000000001,
          "velocity": 0.8267716535433071
        },
        {
          "duration": 0.049999999999954525,
          "durationTicks": 60,
          "midi": 62,
          "name": "D4",
          "ticks": 694920,
          "time": 579.1,
          "velocity": 0.8267716535433071
        },
        {
          "duration": 0.05000000000006821,
          "durationTicks": 60,
          "midi": 60,
          "name": "C4",
          "ticks": 694980,
          "time": 579.15,
          "velocity": 0.8267716535433071
        },
        {
          "duration": 0.33333333333325754,
          "durationTicks": 400,
          "midi": 67,
          "name": "G4",
          "ticks": 695040,
          "time": 579.2,
          "velocity": 0.8267716535433071
        },
        {
          "duration": 1.2000000000000455,
          "durationTicks": 1440,
          "midi": 62,
          "name": "D4",
          "ticks": 700800,
          "time": 584,
          "velocity": 0.4015748031496063
        },
        {
          "duration": 0.39999999999997726,
          "durationTicks": 480,
          "midi": 63,
          "name": "D#4",
          "ticks": 702240,
          "time": 585.2,
          "velocity": 0.4015748031496063
        },
        {
          "duration": 0.33333333333325754,
          "durationTicks": 400,
          "midi": 64,
          "name": "E4",
          "ticks": 702720,
          "time": 585.6,
          "velocity": 0.4015748031496063
        },
        {
          "duration": 0.33333333333325754,
          "durationTicks": 400,
          "midi": 59,
          "name": "B3",
          "ticks": 704640,
          "time": 587.2,
          "velocity": 0.4015748031496063
        },
        {
          "duration": 0.33333333333337123,
          "durationTicks": 400,
          "midi": 60,
          "name": "C4",
          "ticks": 705600,
          "time": 588,
          "velocity": 0.4015748031496063
        },
        {
          "duration": 0.33333333333325754,
          "durationTicks": 400,
          "midi": 55,
          "name": "G3",
          "ticks": 706560,
          "time": 588.8000000000001,
          "velocity": 0.4015748031496063
        },
        {
          "duration": 1.2000000000000455,
          "durationTicks": 1440,
          "midi": 62,
          "name": "D4",
          "ticks": 712320,
          "time": 593.6,
          "velocity": 0.4015748031496063
        },
        {
          "duration": 0.39999999999997726,
          "durationTicks": 480,
          "midi": 63,
          "name": "D#4",
          "ticks": 713760,
          "time": 594.8000000000001,
          "velocity": 0.4015748031496063
        },
        {
          "duration": 0.33333333333325754,
          "durationTicks": 400,
          "midi": 64,
          "name": "E4",
          "ticks": 714240,
          "time": 595.2,
          "velocity": 0.4015748031496063
        },
        {
          "duration": 0.33333333333325754,
          "durationTicks": 400,
          "midi": 59,
          "name": "B3",
          "ticks": 716160,
          "time": 596.8000000000001,
          "velocity": 0.4015748031496063
        },
        {
          "duration": 0.33333333333325754,
          "durationTicks": 400,
          "midi": 60,
          "name": "C4",
          "ticks": 717120,
          "time": 597.6,
          "velocity": 0.4015748031496063
        },
        {
          "duration": 1.6000000000000227,
          "durationTicks": 1920,
          "midi": 53,
          "name": "F3",
          "ticks": 718080,
          "time": 598.4,
          "velocity": 0.4015748031496063
        },
        {
          "duration": 0.33333333333337123,
          "durationTicks": 400,
          "midi": 52,
          "name": "E3",
          "ticks": 720000,
          "time": 600,
          "velocity": 0.4015748031496063
        },
        {
          "duration": 0.33333333333325754,
          "durationTicks": 400,
          "midi": 56,
          "name": "G#3",
          "ticks": 720960,
          "time": 600.8000000000001,
          "velocity": 0.4015748031496063
        },
        {
          "duration": 1.2000000000000455,
          "durationTicks": 1440,
          "midi": 57,
          "name": "A3",
          "ticks": 721920,
          "time": 601.6,
          "velocity": 0.4015748031496063
        },
        {
          "duration": 0.1999999999999318,
          "durationTicks": 240,
          "midi": 57,
          "name": "A3",
          "ticks": 723360,
          "time": 602.8000000000001,
          "velocity": 0.4015748031496063
        },
        {
          "duration": 0.1966666666666015,
          "durationTicks": 236,
          "midi": 53,
          "name": "F3",
          "ticks": 723600,
          "time": 603,
          "velocity": 0.4015748031496063
        },
        {
          "duration": 0.1999999999999318,
          "durationTicks": 240,
          "midi": 52,
          "name": "E3",
          "ticks": 723840,
          "time": 603.2,
          "velocity": 0.4015748031496063
        },
        {
          "duration": 0.20000000000004547,
          "durationTicks": 240,
          "midi": 55,
          "name": "G3",
          "ticks": 724080,
          "time": 603.4,
          "velocity": 0.4015748031496063
        },
        {
          "duration": 0.20000000000004547,
          "durationTicks": 240,
          "midi": 52,
          "name": "E3",
          "ticks": 724320,
          "time": 603.6,
          "velocity": 0.4015748031496063
        },
        {
          "duration": 0.1999999999999318,
          "durationTicks": 240,
          "midi": 55,
          "name": "G3",
          "ticks": 724560,
          "time": 603.8000000000001,
          "velocity": 0.4015748031496063
        },
        {
          "duration": 0.20000000000004547,
          "durationTicks": 240,
          "midi": 52,
          "name": "E3",
          "ticks": 724800,
          "time": 604,
          "velocity": 0.4015748031496063
        },
        {
          "duration": 0.1999999999999318,
          "durationTicks": 240,
          "midi": 55,
          "name": "G3",
          "ticks": 725040,
          "time": 604.2,
          "velocity": 0.4015748031496063
        },
        {
          "duration": 0.20000000000004547,
          "durationTicks": 240,
          "midi": 53,
          "name": "F3",
          "ticks": 725280,
          "time": 604.4,
          "velocity": 0.4015748031496063
        },
        {
          "duration": 0.1966666666666015,
          "durationTicks": 236,
          "midi": 55,
          "name": "G3",
          "ticks": 725520,
          "time": 604.6,
          "velocity": 0.4015748031496063
        },
        {
          "duration": 0.599999999999909,
          "durationTicks": 720,
          "midi": 60,
          "name": "C4",
          "ticks": 725760,
          "time": 604.8000000000001,
          "velocity": 0.4015748031496063
        },
        {
          "duration": 0.19666666666671517,
          "durationTicks": 236,
          "midi": 59,
          "name": "B3",
          "ticks": 726480,
          "time": 605.4,
          "velocity": 0.4015748031496063
        },
        {
          "duration": 0.6000000000000227,
          "durationTicks": 720,
          "midi": 64,
          "name": "E4",
          "ticks": 726720,
          "time": 605.6,
          "velocity": 0.4015748031496063
        },
        {
          "duration": 0.1966666666666015,
          "durationTicks": 236,
          "midi": 62,
          "name": "D4",
          "ticks": 727440,
          "time": 606.2,
          "velocity": 0.4015748031496063
        },
        {
          "duration": 0.8000000000000682,
          "durationTicks": 960,
          "midi": 67,
          "name": "G4",
          "ticks": 727680,
          "time": 606.4,
          "velocity": 0.4015748031496063
        },
        {
          "duration": 0.6999999999999318,
          "durationTicks": 840,
          "midi": 65,
          "name": "F4",
          "ticks": 728640,
          "time": 607.2,
          "velocity": 0.4015748031496063
        },
        {
          "duration": 0.33333333333337123,
          "durationTicks": 400,
          "midi": 64,
          "name": "E4",
          "ticks": 729600,
          "time": 608,
          "velocity": 0.4015748031496063
        },
        {
          "duration": 0.33333333333325754,
          "durationTicks": 400,
          "midi": 69,
          "name": "A4",
          "ticks": 730560,
          "time": 608.8000000000001,
          "velocity": 0.4015748031496063
        },
        {
          "duration": 0.33333333333325754,
          "durationTicks": 400,
          "midi": 65,
          "name": "F4",
          "ticks": 731520,
          "time": 609.6,
          "velocity": 0.4015748031496063
        },
        {
          "duration": 0.33333333333337123,
          "durationTicks": 400,
          "midi": 67,
          "name": "G4",
          "ticks": 732480,
          "time": 610.4,
          "velocity": 0.4015748031496063
        },
        {
          "duration": 0.1966666666666015,
          "durationTicks": 236,
          "midi": 55,
          "name": "G3",
          "ticks": 733200,
          "time": 611,
          "velocity": 0.4015748031496063
        },
        {
          "duration": 0.6000000000000227,
          "durationTicks": 720,
          "midi": 60,
          "name": "C4",
          "ticks": 733440,
          "time": 611.2,
          "velocity": 0.4015748031496063
        },
        {
          "duration": 0.1966666666666015,
          "durationTicks": 236,
          "midi": 59,
          "name": "B3",
          "ticks": 734160,
          "time": 611.8000000000001,
          "velocity": 0.4015748031496063
        },
        {
          "duration": 0.6000000000000227,
          "durationTicks": 720,
          "midi": 64,
          "name": "E4",
          "ticks": 734400,
          "time": 612,
          "velocity": 0.4015748031496063
        },
        {
          "duration": 0.1966666666666015,
          "durationTicks": 236,
          "midi": 62,
          "name": "D4",
          "ticks": 735120,
          "time": 612.6,
          "velocity": 0.4015748031496063
        },
        {
          "duration": 0.7999999999999545,
          "durationTicks": 960,
          "midi": 67,
          "name": "G4",
          "ticks": 735360,
          "time": 612.8000000000001,
          "velocity": 0.4015748031496063
        },
        {
          "duration": 0.7000000000000455,
          "durationTicks": 840,
          "midi": 65,
          "name": "F4",
          "ticks": 736320,
          "time": 613.6,
          "velocity": 0.4015748031496063
        },
        {
          "duration": 0.1999999999999318,
          "durationTicks": 240,
          "midi": 64,
          "name": "E4",
          "ticks": 737280,
          "time": 614.4000000000001,
          "velocity": 0.4015748031496063
        },
        {
          "duration": 0.1999999999999318,
          "durationTicks": 240,
          "midi": 70,
          "name": "A#4",
          "ticks": 737760,
          "time": 614.8000000000001,
          "velocity": 0.4015748031496063
        },
        {
          "duration": 0.20000000000004547,
          "durationTicks": 240,
          "midi": 70,
          "name": "A#4",
          "ticks": 738240,
          "time": 615.2,
          "velocity": 0.4015748031496063
        },
        {
          "duration": 0.16000000000008185,
          "durationTicks": 192,
          "midi": 69,
          "name": "A4",
          "ticks": 739200,
          "time": 616,
          "velocity": 0.4015748031496063
        },
        {
          "duration": 0.15999999999996817,
          "durationTicks": 192,
          "midi": 69,
          "name": "A4",
          "ticks": 739680,
          "time": 616.4000000000001,
          "velocity": 0.4015748031496063
        },
        {
          "duration": 0.15999999999996817,
          "durationTicks": 192,
          "midi": 69,
          "name": "A4",
          "ticks": 740160,
          "time": 616.8000000000001,
          "velocity": 0.4015748031496063
        },
        {
          "duration": 0.16000000000008185,
          "durationTicks": 192,
          "midi": 72,
          "name": "C5",
          "ticks": 741120,
          "time": 617.6,
          "velocity": 0.4015748031496063
        },
        {
          "duration": 0.16000000000008185,
          "durationTicks": 192,
          "midi": 72,
          "name": "C5",
          "ticks": 741600,
          "time": 618,
          "velocity": 0.4015748031496063
        },
        {
          "duration": 0.15999999999996817,
          "durationTicks": 192,
          "midi": 72,
          "name": "C5",
          "ticks": 742080,
          "time": 618.4000000000001,
          "velocity": 0.4015748031496063
        },
        {
          "duration": 0.6999999999999318,
          "durationTicks": 840,
          "midi": 60,
          "name": "C4",
          "ticks": 744960,
          "time": 620.8000000000001,
          "velocity": 0.8267716535433071
        },
        {
          "duration": 0.7000000000000455,
          "durationTicks": 840,
          "midi": 60,
          "name": "C4",
          "ticks": 745920,
          "time": 621.6,
          "velocity": 0.8267716535433071
        },
        {
          "duration": 0.6999999999999318,
          "durationTicks": 840,
          "midi": 60,
          "name": "C4",
          "ticks": 746880,
          "time": 622.4000000000001,
          "velocity": 0.8267716535433071
        },
        {
          "duration": 0.7000000000000455,
          "durationTicks": 840,
          "midi": 60,
          "name": "C4",
          "ticks": 747840,
          "time": 623.2,
          "velocity": 0.8267716535433071
        },
        {
          "duration": 0.19666666666671517,
          "durationTicks": 236,
          "midi": 65,
          "name": "F4",
          "ticks": 748800,
          "time": 624,
          "velocity": 0.8267716535433071
        },
        {
          "duration": 0.1966666666666015,
          "durationTicks": 236,
          "midi": 65,
          "name": "F4",
          "ticks": 749040,
          "time": 624.2,
          "velocity": 0.8267716535433071
        },
        {
          "duration": 0.1966666666666015,
          "durationTicks": 236,
          "midi": 65,
          "name": "F4",
          "ticks": 749280,
          "time": 624.4000000000001,
          "velocity": 0.8267716535433071
        },
        {
          "duration": 0.1966666666666015,
          "durationTicks": 236,
          "midi": 65,
          "name": "F4",
          "ticks": 749520,
          "time": 624.6,
          "velocity": 0.8267716535433071
        },
        {
          "duration": 0.1966666666666015,
          "durationTicks": 236,
          "midi": 65,
          "name": "F4",
          "ticks": 749760,
          "time": 624.8000000000001,
          "velocity": 0.8267716535433071
        },
        {
          "duration": 0.19666666666671517,
          "durationTicks": 236,
          "midi": 65,
          "name": "F4",
          "ticks": 750000,
          "time": 625,
          "velocity": 0.8267716535433071
        },
        {
          "duration": 0.1966666666666015,
          "durationTicks": 236,
          "midi": 65,
          "name": "F4",
          "ticks": 750240,
          "time": 625.2,
          "velocity": 0.8267716535433071
        },
        {
          "duration": 0.1966666666666015,
          "durationTicks": 236,
          "midi": 65,
          "name": "F4",
          "ticks": 750480,
          "time": 625.4000000000001,
          "velocity": 0.8267716535433071
        },
        {
          "duration": 0.1966666666666015,
          "durationTicks": 236,
          "midi": 64,
          "name": "E4",
          "ticks": 750720,
          "time": 625.6,
          "velocity": 0.8267716535433071
        },
        {
          "duration": 0.1966666666666015,
          "durationTicks": 236,
          "midi": 64,
          "name": "E4",
          "ticks": 750960,
          "time": 625.8000000000001,
          "velocity": 0.8267716535433071
        },
        {
          "duration": 0.19666666666671517,
          "durationTicks": 236,
          "midi": 64,
          "name": "E4",
          "ticks": 751200,
          "time": 626,
          "velocity": 0.8267716535433071
        },
        {
          "duration": 0.1966666666666015,
          "durationTicks": 236,
          "midi": 64,
          "name": "E4",
          "ticks": 751440,
          "time": 626.2,
          "velocity": 0.8267716535433071
        },
        {
          "duration": 0.1966666666666015,
          "durationTicks": 236,
          "midi": 64,
          "name": "E4",
          "ticks": 751680,
          "time": 626.4000000000001,
          "velocity": 0.8267716535433071
        },
        {
          "duration": 0.1966666666666015,
          "durationTicks": 236,
          "midi": 64,
          "name": "E4",
          "ticks": 751920,
          "time": 626.6,
          "velocity": 0.8267716535433071
        },
        {
          "duration": 0.1966666666666015,
          "durationTicks": 236,
          "midi": 64,
          "name": "E4",
          "ticks": 752160,
          "time": 626.8000000000001,
          "velocity": 0.8267716535433071
        },
        {
          "duration": 0.19666666666671517,
          "durationTicks": 236,
          "midi": 64,
          "name": "E4",
          "ticks": 752400,
          "time": 627,
          "velocity": 0.8267716535433071
        },
        {
          "duration": 0.1966666666666015,
          "durationTicks": 236,
          "midi": 63,
          "name": "D#4",
          "ticks": 752640,
          "time": 627.2,
          "velocity": 0.8267716535433071
        },
        {
          "duration": 0.1966666666666015,
          "durationTicks": 236,
          "midi": 63,
          "name": "D#4",
          "ticks": 752880,
          "time": 627.4000000000001,
          "velocity": 0.8267716535433071
        },
        {
          "duration": 0.1966666666666015,
          "durationTicks": 236,
          "midi": 63,
          "name": "D#4",
          "ticks": 753120,
          "time": 627.6,
          "velocity": 0.8267716535433071
        },
        {
          "duration": 0.1966666666666015,
          "durationTicks": 236,
          "midi": 63,
          "name": "D#4",
          "ticks": 753360,
          "time": 627.8000000000001,
          "velocity": 0.8267716535433071
        },
        {
          "duration": 0.19666666666671517,
          "durationTicks": 236,
          "midi": 63,
          "name": "D#4",
          "ticks": 753600,
          "time": 628,
          "velocity": 0.8267716535433071
        },
        {
          "duration": 0.1966666666666015,
          "durationTicks": 236,
          "midi": 63,
          "name": "D#4",
          "ticks": 753840,
          "time": 628.2,
          "velocity": 0.8267716535433071
        },
        {
          "duration": 0.1966666666666015,
          "durationTicks": 236,
          "midi": 63,
          "name": "D#4",
          "ticks": 754080,
          "time": 628.4000000000001,
          "velocity": 0.8267716535433071
        },
        {
          "duration": 0.1966666666666015,
          "durationTicks": 236,
          "midi": 63,
          "name": "D#4",
          "ticks": 754320,
          "time": 628.6,
          "velocity": 0.8267716535433071
        },
        {
          "duration": 0.1966666666666015,
          "durationTicks": 236,
          "midi": 62,
          "name": "D4",
          "ticks": 754560,
          "time": 628.8000000000001,
          "velocity": 0.8267716535433071
        },
        {
          "duration": 0.19666666666671517,
          "durationTicks": 236,
          "midi": 62,
          "name": "D4",
          "ticks": 754800,
          "time": 629,
          "velocity": 0.8267716535433071
        },
        {
          "duration": 0.1966666666666015,
          "durationTicks": 236,
          "midi": 62,
          "name": "D4",
          "ticks": 755040,
          "time": 629.2,
          "velocity": 0.8267716535433071
        },
        {
          "duration": 0.1966666666666015,
          "durationTicks": 236,
          "midi": 62,
          "name": "D4",
          "ticks": 755280,
          "time": 629.4000000000001,
          "velocity": 0.8267716535433071
        },
        {
          "duration": 0.1966666666666015,
          "durationTicks": 236,
          "midi": 62,
          "name": "D4",
          "ticks": 755520,
          "time": 629.6,
          "velocity": 0.8267716535433071
        },
        {
          "duration": 0.1966666666666015,
          "durationTicks": 236,
          "midi": 62,
          "name": "D4",
          "ticks": 755760,
          "time": 629.8000000000001,
          "velocity": 0.8267716535433071
        },
        {
          "duration": 0.19666666666671517,
          "durationTicks": 236,
          "midi": 62,
          "name": "D4",
          "ticks": 756000,
          "time": 630,
          "velocity": 0.8267716535433071
        },
        {
          "duration": 0.1966666666666015,
          "durationTicks": 236,
          "midi": 62,
          "name": "D4",
          "ticks": 756240,
          "time": 630.2,
          "velocity": 0.8267716535433071
        },
        {
          "duration": 0.33333333333325754,
          "durationTicks": 400,
          "midi": 64,
          "name": "E4",
          "ticks": 756480,
          "time": 630.4000000000001,
          "velocity": 0.8267716535433071
        },
        {
          "duration": 0.33333333333325754,
          "durationTicks": 400,
          "midi": 65,
          "name": "F4",
          "ticks": 757440,
          "time": 631.2,
          "velocity": 0.8267716535433071
        },
        {
          "duration": 0.33333333333337123,
          "durationTicks": 400,
          "midi": 67,
          "name": "G4",
          "ticks": 758400,
          "time": 632,
          "velocity": 0.8267716535433071
        },
        {
          "duration": 0.33333333333325754,
          "durationTicks": 400,
          "midi": 55,
          "name": "G3",
          "ticks": 759360,
          "time": 632.8000000000001,
          "velocity": 0.8267716535433071
        },
        {
          "duration": 0.1966666666666015,
          "durationTicks": 236,
          "midi": 48,
          "name": "C3",
          "ticks": 760320,
          "time": 633.6,
          "velocity": 0.8267716535433071
        },
        {
          "duration": 0.1966666666666015,
          "durationTicks": 236,
          "midi": 60,
          "name": "C4",
          "ticks": 760320,
          "time": 633.6,
          "velocity": 0.8267716535433071
        },
        {
          "duration": 0.1966666666666015,
          "durationTicks": 236,
          "midi": 48,
          "name": "C3",
          "ticks": 760560,
          "time": 633.8000000000001,
          "velocity": 0.8267716535433071
        },
        {
          "duration": 0.1966666666666015,
          "durationTicks": 236,
          "midi": 60,
          "name": "C4",
          "ticks": 760560,
          "time": 633.8000000000001,
          "velocity": 0.8267716535433071
        },
        {
          "duration": 0.19666666666671517,
          "durationTicks": 236,
          "midi": 48,
          "name": "C3",
          "ticks": 760800,
          "time": 634,
          "velocity": 0.8267716535433071
        },
        {
          "duration": 0.19666666666671517,
          "durationTicks": 236,
          "midi": 60,
          "name": "C4",
          "ticks": 760800,
          "time": 634,
          "velocity": 0.8267716535433071
        },
        {
          "duration": 0.1966666666666015,
          "durationTicks": 236,
          "midi": 48,
          "name": "C3",
          "ticks": 761040,
          "time": 634.2,
          "velocity": 0.8267716535433071
        },
        {
          "duration": 0.1966666666666015,
          "durationTicks": 236,
          "midi": 60,
          "name": "C4",
          "ticks": 761040,
          "time": 634.2,
          "velocity": 0.8267716535433071
        },
        {
          "duration": 0.1966666666666015,
          "durationTicks": 236,
          "midi": 48,
          "name": "C3",
          "ticks": 761280,
          "time": 634.4000000000001,
          "velocity": 0.8267716535433071
        },
        {
          "duration": 0.1966666666666015,
          "durationTicks": 236,
          "midi": 60,
          "name": "C4",
          "ticks": 761280,
          "time": 634.4000000000001,
          "velocity": 0.8267716535433071
        },
        {
          "duration": 0.1966666666666015,
          "durationTicks": 236,
          "midi": 48,
          "name": "C3",
          "ticks": 761520,
          "time": 634.6,
          "velocity": 0.8267716535433071
        },
        {
          "duration": 0.1966666666666015,
          "durationTicks": 236,
          "midi": 60,
          "name": "C4",
          "ticks": 761520,
          "time": 634.6,
          "velocity": 0.8267716535433071
        },
        {
          "duration": 0.1966666666666015,
          "durationTicks": 236,
          "midi": 48,
          "name": "C3",
          "ticks": 761760,
          "time": 634.8000000000001,
          "velocity": 0.8267716535433071
        },
        {
          "duration": 0.1966666666666015,
          "durationTicks": 236,
          "midi": 60,
          "name": "C4",
          "ticks": 761760,
          "time": 634.8000000000001,
          "velocity": 0.8267716535433071
        },
        {
          "duration": 0.19666666666671517,
          "durationTicks": 236,
          "midi": 48,
          "name": "C3",
          "ticks": 762000,
          "time": 635,
          "velocity": 0.8267716535433071
        },
        {
          "duration": 0.19666666666671517,
          "durationTicks": 236,
          "midi": 60,
          "name": "C4",
          "ticks": 762000,
          "time": 635,
          "velocity": 0.8267716535433071
        },
        {
          "duration": 0.1966666666666015,
          "durationTicks": 236,
          "midi": 48,
          "name": "C3",
          "ticks": 762240,
          "time": 635.2,
          "velocity": 0.8267716535433071
        },
        {
          "duration": 0.1966666666666015,
          "durationTicks": 236,
          "midi": 60,
          "name": "C4",
          "ticks": 762240,
          "time": 635.2,
          "velocity": 0.8267716535433071
        },
        {
          "duration": 0.1966666666666015,
          "durationTicks": 236,
          "midi": 48,
          "name": "C3",
          "ticks": 762480,
          "time": 635.4000000000001,
          "velocity": 0.8267716535433071
        },
        {
          "duration": 0.1966666666666015,
          "durationTicks": 236,
          "midi": 60,
          "name": "C4",
          "ticks": 762480,
          "time": 635.4000000000001,
          "velocity": 0.8267716535433071
        },
        {
          "duration": 0.1966666666666015,
          "durationTicks": 236,
          "midi": 48,
          "name": "C3",
          "ticks": 762720,
          "time": 635.6,
          "velocity": 0.8267716535433071
        },
        {
          "duration": 0.1966666666666015,
          "durationTicks": 236,
          "midi": 60,
          "name": "C4",
          "ticks": 762720,
          "time": 635.6,
          "velocity": 0.8267716535433071
        },
        {
          "duration": 0.1966666666666015,
          "durationTicks": 236,
          "midi": 48,
          "name": "C3",
          "ticks": 762960,
          "time": 635.8000000000001,
          "velocity": 0.8267716535433071
        },
        {
          "duration": 0.1966666666666015,
          "durationTicks": 236,
          "midi": 60,
          "name": "C4",
          "ticks": 762960,
          "time": 635.8000000000001,
          "velocity": 0.8267716535433071
        },
        {
          "duration": 0.19666666666671517,
          "durationTicks": 236,
          "midi": 48,
          "name": "C3",
          "ticks": 763200,
          "time": 636,
          "velocity": 0.8267716535433071
        },
        {
          "duration": 0.19666666666671517,
          "durationTicks": 236,
          "midi": 60,
          "name": "C4",
          "ticks": 763200,
          "time": 636,
          "velocity": 0.8267716535433071
        },
        {
          "duration": 0.1966666666666015,
          "durationTicks": 236,
          "midi": 48,
          "name": "C3",
          "ticks": 763440,
          "time": 636.2,
          "velocity": 0.8267716535433071
        },
        {
          "duration": 0.1966666666666015,
          "durationTicks": 236,
          "midi": 60,
          "name": "C4",
          "ticks": 763440,
          "time": 636.2,
          "velocity": 0.8267716535433071
        },
        {
          "duration": 0.1966666666666015,
          "durationTicks": 236,
          "midi": 48,
          "name": "C3",
          "ticks": 763680,
          "time": 636.4000000000001,
          "velocity": 0.8267716535433071
        },
        {
          "duration": 0.1966666666666015,
          "durationTicks": 236,
          "midi": 60,
          "name": "C4",
          "ticks": 763680,
          "time": 636.4000000000001,
          "velocity": 0.8267716535433071
        },
        {
          "duration": 0.1966666666666015,
          "durationTicks": 236,
          "midi": 48,
          "name": "C3",
          "ticks": 763920,
          "time": 636.6,
          "velocity": 0.8267716535433071
        },
        {
          "duration": 0.1966666666666015,
          "durationTicks": 236,
          "midi": 60,
          "name": "C4",
          "ticks": 763920,
          "time": 636.6,
          "velocity": 0.8267716535433071
        },
        {
          "duration": 0.1966666666666015,
          "durationTicks": 236,
          "midi": 48,
          "name": "C3",
          "ticks": 764160,
          "time": 636.8000000000001,
          "velocity": 0.8267716535433071
        },
        {
          "duration": 0.1966666666666015,
          "durationTicks": 236,
          "midi": 60,
          "name": "C4",
          "ticks": 764160,
          "time": 636.8000000000001,
          "velocity": 0.8267716535433071
        },
        {
          "duration": 0.19666666666671517,
          "durationTicks": 236,
          "midi": 48,
          "name": "C3",
          "ticks": 764400,
          "time": 637,
          "velocity": 0.8267716535433071
        },
        {
          "duration": 0.19666666666671517,
          "durationTicks": 236,
          "midi": 60,
          "name": "C4",
          "ticks": 764400,
          "time": 637,
          "velocity": 0.8267716535433071
        },
        {
          "duration": 0.1966666666666015,
          "durationTicks": 236,
          "midi": 48,
          "name": "C3",
          "ticks": 764640,
          "time": 637.2,
          "velocity": 0.8267716535433071
        },
        {
          "duration": 0.1966666666666015,
          "durationTicks": 236,
          "midi": 60,
          "name": "C4",
          "ticks": 764640,
          "time": 637.2,
          "velocity": 0.8267716535433071
        },
        {
          "duration": 0.1966666666666015,
          "durationTicks": 236,
          "midi": 48,
          "name": "C3",
          "ticks": 764880,
          "time": 637.4000000000001,
          "velocity": 0.8267716535433071
        },
        {
          "duration": 0.1966666666666015,
          "durationTicks": 236,
          "midi": 60,
          "name": "C4",
          "ticks": 764880,
          "time": 637.4000000000001,
          "velocity": 0.8267716535433071
        },
        {
          "duration": 0.1966666666666015,
          "durationTicks": 236,
          "midi": 48,
          "name": "C3",
          "ticks": 765120,
          "time": 637.6,
          "velocity": 0.8267716535433071
        },
        {
          "duration": 0.1966666666666015,
          "durationTicks": 236,
          "midi": 60,
          "name": "C4",
          "ticks": 765120,
          "time": 637.6,
          "velocity": 0.8267716535433071
        },
        {
          "duration": 0.1966666666666015,
          "durationTicks": 236,
          "midi": 48,
          "name": "C3",
          "ticks": 765360,
          "time": 637.8000000000001,
          "velocity": 0.8267716535433071
        },
        {
          "duration": 0.1966666666666015,
          "durationTicks": 236,
          "midi": 60,
          "name": "C4",
          "ticks": 765360,
          "time": 637.8000000000001,
          "velocity": 0.8267716535433071
        },
        {
          "duration": 0.19666666666671517,
          "durationTicks": 236,
          "midi": 48,
          "name": "C3",
          "ticks": 765600,
          "time": 638,
          "velocity": 0.8267716535433071
        },
        {
          "duration": 0.19666666666671517,
          "durationTicks": 236,
          "midi": 60,
          "name": "C4",
          "ticks": 765600,
          "time": 638,
          "velocity": 0.8267716535433071
        },
        {
          "duration": 0.1966666666666015,
          "durationTicks": 236,
          "midi": 48,
          "name": "C3",
          "ticks": 765840,
          "time": 638.2,
          "velocity": 0.8267716535433071
        },
        {
          "duration": 0.1966666666666015,
          "durationTicks": 236,
          "midi": 60,
          "name": "C4",
          "ticks": 765840,
          "time": 638.2,
          "velocity": 0.8267716535433071
        },
        {
          "duration": 0.1966666666666015,
          "durationTicks": 236,
          "midi": 48,
          "name": "C3",
          "ticks": 766080,
          "time": 638.4000000000001,
          "velocity": 0.6771653543307087
        },
        {
          "duration": 0.1966666666666015,
          "durationTicks": 236,
          "midi": 60,
          "name": "C4",
          "ticks": 766080,
          "time": 638.4000000000001,
          "velocity": 0.6771653543307087
        },
        {
          "duration": 0.1966666666666015,
          "durationTicks": 236,
          "midi": 48,
          "name": "C3",
          "ticks": 766320,
          "time": 638.6,
          "velocity": 0.6771653543307087
        },
        {
          "duration": 0.1966666666666015,
          "durationTicks": 236,
          "midi": 60,
          "name": "C4",
          "ticks": 766320,
          "time": 638.6,
          "velocity": 0.6771653543307087
        },
        {
          "duration": 0.1966666666666015,
          "durationTicks": 236,
          "midi": 48,
          "name": "C3",
          "ticks": 766560,
          "time": 638.8000000000001,
          "velocity": 0.6771653543307087
        },
        {
          "duration": 0.1966666666666015,
          "durationTicks": 236,
          "midi": 60,
          "name": "C4",
          "ticks": 766560,
          "time": 638.8000000000001,
          "velocity": 0.6771653543307087
        },
        {
          "duration": 0.19666666666671517,
          "durationTicks": 236,
          "midi": 48,
          "name": "C3",
          "ticks": 766800,
          "time": 639,
          "velocity": 0.6771653543307087
        },
        {
          "duration": 0.19666666666671517,
          "durationTicks": 236,
          "midi": 60,
          "name": "C4",
          "ticks": 766800,
          "time": 639,
          "velocity": 0.6771653543307087
        },
        {
          "duration": 0.1966666666666015,
          "durationTicks": 236,
          "midi": 48,
          "name": "C3",
          "ticks": 767040,
          "time": 639.2,
          "velocity": 0.6771653543307087
        },
        {
          "duration": 0.1966666666666015,
          "durationTicks": 236,
          "midi": 60,
          "name": "C4",
          "ticks": 767040,
          "time": 639.2,
          "velocity": 0.6771653543307087
        },
        {
          "duration": 0.1966666666666015,
          "durationTicks": 236,
          "midi": 48,
          "name": "C3",
          "ticks": 767280,
          "time": 639.4000000000001,
          "velocity": 0.6771653543307087
        },
        {
          "duration": 0.1966666666666015,
          "durationTicks": 236,
          "midi": 60,
          "name": "C4",
          "ticks": 767280,
          "time": 639.4000000000001,
          "velocity": 0.6771653543307087
        },
        {
          "duration": 0.1966666666666015,
          "durationTicks": 236,
          "midi": 48,
          "name": "C3",
          "ticks": 767520,
          "time": 639.6,
          "velocity": 0.6771653543307087
        },
        {
          "duration": 0.1966666666666015,
          "durationTicks": 236,
          "midi": 60,
          "name": "C4",
          "ticks": 767520,
          "time": 639.6,
          "velocity": 0.6771653543307087
        },
        {
          "duration": 0.1966666666666015,
          "durationTicks": 236,
          "midi": 48,
          "name": "C3",
          "ticks": 767760,
          "time": 639.8000000000001,
          "velocity": 0.6771653543307087
        },
        {
          "duration": 0.1966666666666015,
          "durationTicks": 236,
          "midi": 60,
          "name": "C4",
          "ticks": 767760,
          "time": 639.8000000000001,
          "velocity": 0.6771653543307087
        },
        {
          "duration": 0.6000000000000227,
          "durationTicks": 720,
          "midi": 65,
          "name": "F4",
          "ticks": 768000,
          "time": 640,
          "velocity": 0.6771653543307087
        },
        {
          "duration": 0.10000000000002274,
          "durationTicks": 120,
          "midi": 67,
          "name": "G4",
          "ticks": 768720,
          "time": 640.6,
          "velocity": 0.6771653543307087
        },
        {
          "duration": 0.09666666666657875,
          "durationTicks": 116,
          "midi": 69,
          "name": "A4",
          "ticks": 768840,
          "time": 640.7,
          "velocity": 0.6771653543307087
        },
        {
          "duration": 0.6000000000000227,
          "durationTicks": 720,
          "midi": 59,
          "name": "B3",
          "ticks": 768960,
          "time": 640.8000000000001,
          "velocity": 0.6771653543307087
        },
        {
          "duration": 0.09999999999990905,
          "durationTicks": 120,
          "midi": 60,
          "name": "C4",
          "ticks": 769680,
          "time": 641.4000000000001,
          "velocity": 0.6771653543307087
        },
        {
          "duration": 0.09666666666669244,
          "durationTicks": 116,
          "midi": 62,
          "name": "D4",
          "ticks": 769800,
          "time": 641.5,
          "velocity": 0.6771653543307087
        },
        {
          "duration": 0.6000000000000227,
          "durationTicks": 720,
          "midi": 60,
          "name": "C4",
          "ticks": 769920,
          "time": 641.6,
          "velocity": 0.6771653543307087
        },
        {
          "duration": 0.1966666666666015,
          "durationTicks": 236,
          "midi": 59,
          "name": "B3",
          "ticks": 770640,
          "time": 642.2,
          "velocity": 0.6771653543307087
        },
        {
          "duration": 0.2999999999999545,
          "durationTicks": 360,
          "midi": 62,
          "name": "D4",
          "ticks": 770880,
          "time": 642.4000000000001,
          "velocity": 0.6771653543307087
        },
        {
          "duration": 0.09666666666657875,
          "durationTicks": 116,
          "midi": 60,
          "name": "C4",
          "ticks": 771240,
          "time": 642.7,
          "velocity": 0.6771653543307087
        },
        {
          "duration": 0.2999999999999545,
          "durationTicks": 360,
          "midi": 65,
          "name": "F4",
          "ticks": 771360,
          "time": 642.8000000000001,
          "velocity": 0.6771653543307087
        },
        {
          "duration": 0.09666666666669244,
          "durationTicks": 116,
          "midi": 64,
          "name": "E4",
          "ticks": 771720,
          "time": 643.1,
          "velocity": 0.6771653543307087
        },
        {
          "duration": 0.6000000000000227,
          "durationTicks": 720,
          "midi": 62,
          "name": "D4",
          "ticks": 771840,
          "time": 643.2,
          "velocity": 0.6771653543307087
        },
        {
          "duration": 0.1966666666666015,
          "durationTicks": 236,
          "midi": 61,
          "name": "C#4",
          "ticks": 772560,
          "time": 643.8000000000001,
          "velocity": 0.6771653543307087
        },
        {
          "duration": 0.3000000000000682,
          "durationTicks": 360,
          "midi": 64,
          "name": "E4",
          "ticks": 772800,
          "time": 644,
          "velocity": 0.6771653543307087
        },
        {
          "duration": 0.09666666666657875,
          "durationTicks": 116,
          "midi": 62,
          "name": "D4",
          "ticks": 773160,
          "time": 644.3000000000001,
          "velocity": 0.6771653543307087
        },
        {
          "duration": 0.2999999999999545,
          "durationTicks": 360,
          "midi": 67,
          "name": "G4",
          "ticks": 773280,
          "time": 644.4000000000001,
          "velocity": 0.6771653543307087
        },
        {
          "duration": 0.09666666666657875,
          "durationTicks": 116,
          "midi": 65,
          "name": "F4",
          "ticks": 773640,
          "time": 644.7,
          "velocity": 0.6771653543307087
        },
        {
          "duration": 0.6000000000000227,
          "durationTicks": 720,
          "midi": 64,
          "name": "E4",
          "ticks": 773760,
          "time": 644.8000000000001,
          "velocity": 0.6771653543307087
        },
        {
          "duration": 0.1966666666666015,
          "durationTicks": 236,
          "midi": 63,
          "name": "D#4",
          "ticks": 774480,
          "time": 645.4000000000001,
          "velocity": 0.6771653543307087
        },
        {
          "duration": 0.3000000000000682,
          "durationTicks": 360,
          "midi": 65,
          "name": "F4",
          "ticks": 774720,
          "time": 645.6,
          "velocity": 0.6771653543307087
        },
        {
          "duration": 0.09666666666657875,
          "durationTicks": 116,
          "midi": 64,
          "name": "E4",
          "ticks": 775080,
          "time": 645.9000000000001,
          "velocity": 0.6771653543307087
        },
        {
          "duration": 0.3000000000000682,
          "durationTicks": 360,
          "midi": 69,
          "name": "A4",
          "ticks": 775200,
          "time": 646,
          "velocity": 0.6771653543307087
        },
        {
          "duration": 0.09666666666657875,
          "durationTicks": 116,
          "midi": 67,
          "name": "G4",
          "ticks": 775560,
          "time": 646.3000000000001,
          "velocity": 0.6771653543307087
        },
        {
          "duration": 0.33333333333325754,
          "durationTicks": 400,
          "midi": 65,
          "name": "F4",
          "ticks": 775680,
          "time": 646.4000000000001,
          "velocity": 0.6771653543307087
        },
        {
          "duration": 0.33333333333325754,
          "durationTicks": 400,
          "midi": 64,
          "name": "E4",
          "ticks": 776160,
          "time": 646.8000000000001,
          "velocity": 0.6771653543307087
        },
        {
          "duration": 0.33333333333325754,
          "durationTicks": 400,
          "midi": 65,
          "name": "F4",
          "ticks": 776640,
          "time": 647.2,
          "velocity": 0.6771653543307087
        },
        {
          "duration": 0.39999999999997726,
          "durationTicks": 480,
          "midi": 69,
          "name": "A4",
          "ticks": 777120,
          "time": 647.6,
          "velocity": 0.6771653543307087
        },
        {
          "duration": 0.19666666666671517,
          "durationTicks": 236,
          "midi": 69,
          "name": "A4",
          "ticks": 777600,
          "time": 648,
          "velocity": 0.6771653543307087
        },
        {
          "duration": 0.33333333333325754,
          "durationTicks": 400,
          "midi": 62,
          "name": "D4",
          "ticks": 777840,
          "time": 648.2,
          "velocity": 0.6771653543307087
        },
        {
          "duration": 0.33333333333337123,
          "durationTicks": 400,
          "midi": 62,
          "name": "D4",
          "ticks": 778320,
          "time": 648.6,
          "velocity": 0.6771653543307087
        },
        {
          "duration": 0.33333333333337123,
          "durationTicks": 400,
          "midi": 62,
          "name": "D4",
          "ticks": 778800,
          "time": 649,
          "velocity": 0.6771653543307087
        },
        {
          "duration": 0.1999999999999318,
          "durationTicks": 240,
          "midi": 62,
          "name": "D4",
          "ticks": 779280,
          "time": 649.4000000000001,
          "velocity": 0.6771653543307087
        },
        {
          "duration": 0.33333333333337123,
          "durationTicks": 400,
          "midi": 62,
          "name": "D4",
          "ticks": 779520,
          "time": 649.6,
          "velocity": 0.6771653543307087
        },
        {
          "duration": 0.1966666666666015,
          "durationTicks": 236,
          "midi": 64,
          "name": "E4",
          "ticks": 803040,
          "time": 669.2,
          "velocity": 0.8267716535433071
        },
        {
          "duration": 0.1966666666666015,
          "durationTicks": 236,
          "midi": 63,
          "name": "D#4",
          "ticks": 803280,
          "time": 669.4000000000001,
          "velocity": 0.8267716535433071
        },
        {
          "duration": 0.1966666666666015,
          "durationTicks": 236,
          "midi": 64,
          "name": "E4",
          "ticks": 803520,
          "time": 669.6,
          "velocity": 0.8267716535433071
        },
        {
          "duration": 0.1966666666666015,
          "durationTicks": 236,
          "midi": 63,
          "name": "D#4",
          "ticks": 803760,
          "time": 669.8000000000001,
          "velocity": 0.8267716535433071
        },
        {
          "duration": 0.19666666666671517,
          "durationTicks": 236,
          "midi": 64,
          "name": "E4",
          "ticks": 804000,
          "time": 670,
          "velocity": 0.8267716535433071
        },
        {
          "duration": 0.1966666666666015,
          "durationTicks": 236,
          "midi": 61,
          "name": "C#4",
          "ticks": 804240,
          "time": 670.2,
          "velocity": 0.8267716535433071
        },
        {
          "duration": 0.1966666666666015,
          "durationTicks": 236,
          "midi": 62,
          "name": "D4",
          "ticks": 804480,
          "time": 670.4000000000001,
          "velocity": 0.8267716535433071
        },
        {
          "duration": 0.1966666666666015,
          "durationTicks": 236,
          "midi": 62,
          "name": "D4",
          "ticks": 804960,
          "time": 670.8000000000001,
          "velocity": 0.8267716535433071
        },
        {
          "duration": 0.19666666666671517,
          "durationTicks": 236,
          "midi": 61,
          "name": "C#4",
          "ticks": 805200,
          "time": 671,
          "velocity": 0.8267716535433071
        },
        {
          "duration": 0.1966666666666015,
          "durationTicks": 236,
          "midi": 62,
          "name": "D4",
          "ticks": 805440,
          "time": 671.2,
          "velocity": 0.8267716535433071
        },
        {
          "duration": 0.1966666666666015,
          "durationTicks": 236,
          "midi": 61,
          "name": "C#4",
          "ticks": 805680,
          "time": 671.4000000000001,
          "velocity": 0.8267716535433071
        },
        {
          "duration": 0.1966666666666015,
          "durationTicks": 236,
          "midi": 62,
          "name": "D4",
          "ticks": 805920,
          "time": 671.6,
          "velocity": 0.8267716535433071
        },
        {
          "duration": 0.1966666666666015,
          "durationTicks": 236,
          "midi": 59,
          "name": "B3",
          "ticks": 806160,
          "time": 671.8000000000001,
          "velocity": 0.8267716535433071
        },
        {
          "duration": 0.19666666666671517,
          "durationTicks": 236,
          "midi": 60,
          "name": "C4",
          "ticks": 806400,
          "time": 672,
          "velocity": 0.8267716535433071
        },
        {
          "duration": 0.06666666666660603,
          "durationTicks": 80,
          "midi": 69,
          "name": "A4",
          "ticks": 806880,
          "time": 672.4000000000001,
          "velocity": 0.8267716535433071
        },
        {
          "duration": 0.06666666666671972,
          "durationTicks": 80,
          "midi": 69,
          "name": "A4",
          "ticks": 807120,
          "time": 672.6,
          "velocity": 0.8267716535433071
        },
        {
          "duration": 0.06666666666671972,
          "durationTicks": 80,
          "midi": 65,
          "name": "F4",
          "ticks": 807360,
          "time": 672.8000000000001,
          "velocity": 0.8267716535433071
        },
        {
          "duration": 0.06666666666671972,
          "durationTicks": 80,
          "midi": 65,
          "name": "F4",
          "ticks": 807600,
          "time": 673,
          "velocity": 0.8267716535433071
        },
        {
          "duration": 0.06666666666671972,
          "durationTicks": 80,
          "midi": 67,
          "name": "G4",
          "ticks": 807840,
          "time": 673.2,
          "velocity": 0.8267716535433071
        },
        {
          "duration": 0.06666666666660603,
          "durationTicks": 80,
          "midi": 67,
          "name": "G4",
          "ticks": 808080,
          "time": 673.4000000000001,
          "velocity": 0.8267716535433071
        },
        {
          "duration": 0.1966666666666015,
          "durationTicks": 236,
          "midi": 60,
          "name": "C4",
          "ticks": 808320,
          "time": 673.6,
          "velocity": 0.8267716535433071
        },
        {
          "duration": 0.19666666666671517,
          "durationTicks": 236,
          "midi": 64,
          "name": "E4",
          "ticks": 808800,
          "time": 674,
          "velocity": 0.8267716535433071
        },
        {
          "duration": 0.1966666666666015,
          "durationTicks": 236,
          "midi": 63,
          "name": "D#4",
          "ticks": 809040,
          "time": 674.2,
          "velocity": 0.8267716535433071
        },
        {
          "duration": 0.1966666666666015,
          "durationTicks": 236,
          "midi": 64,
          "name": "E4",
          "ticks": 809280,
          "time": 674.4000000000001,
          "velocity": 0.8267716535433071
        },
        {
          "duration": 0.1966666666666015,
          "durationTicks": 236,
          "midi": 63,
          "name": "D#4",
          "ticks": 809520,
          "time": 674.6,
          "velocity": 0.8267716535433071
        },
        {
          "duration": 0.1966666666666015,
          "durationTicks": 236,
          "midi": 64,
          "name": "E4",
          "ticks": 809760,
          "time": 674.8000000000001,
          "velocity": 0.8267716535433071
        },
        {
          "duration": 0.19666666666671517,
          "durationTicks": 236,
          "midi": 61,
          "name": "C#4",
          "ticks": 810000,
          "time": 675,
          "velocity": 0.8267716535433071
        },
        {
          "duration": 0.1966666666666015,
          "durationTicks": 236,
          "midi": 62,
          "name": "D4",
          "ticks": 810240,
          "time": 675.2,
          "velocity": 0.8267716535433071
        },
        {
          "duration": 0.1966666666666015,
          "durationTicks": 236,
          "midi": 62,
          "name": "D4",
          "ticks": 810720,
          "time": 675.6,
          "velocity": 0.8267716535433071
        },
        {
          "duration": 0.1966666666666015,
          "durationTicks": 236,
          "midi": 61,
          "name": "C#4",
          "ticks": 810960,
          "time": 675.8000000000001,
          "velocity": 0.8267716535433071
        },
        {
          "duration": 0.19666666666671517,
          "durationTicks": 236,
          "midi": 62,
          "name": "D4",
          "ticks": 811200,
          "time": 676,
          "velocity": 0.8267716535433071
        },
        {
          "duration": 0.1966666666666015,
          "durationTicks": 236,
          "midi": 61,
          "name": "C#4",
          "ticks": 811440,
          "time": 676.2,
          "velocity": 0.8267716535433071
        },
        {
          "duration": 0.1966666666666015,
          "durationTicks": 236,
          "midi": 62,
          "name": "D4",
          "ticks": 811680,
          "time": 676.4000000000001,
          "velocity": 0.8267716535433071
        },
        {
          "duration": 0.1966666666666015,
          "durationTicks": 236,
          "midi": 59,
          "name": "B3",
          "ticks": 811920,
          "time": 676.6,
          "velocity": 0.8267716535433071
        },
        {
          "duration": 0.1966666666666015,
          "durationTicks": 236,
          "midi": 60,
          "name": "C4",
          "ticks": 812160,
          "time": 676.8000000000001,
          "velocity": 0.8267716535433071
        },
        {
          "duration": 0.1966666666666015,
          "durationTicks": 236,
          "midi": 64,
          "name": "E4",
          "ticks": 812640,
          "time": 677.2,
          "velocity": 0.8267716535433071
        },
        {
          "duration": 0.1966666666666015,
          "durationTicks": 236,
          "midi": 64,
          "name": "E4",
          "ticks": 812880,
          "time": 677.4000000000001,
          "velocity": 0.8267716535433071
        },
        {
          "duration": 0.1966666666666015,
          "durationTicks": 236,
          "midi": 65,
          "name": "F4",
          "ticks": 813120,
          "time": 677.6,
          "velocity": 0.8267716535433071
        },
        {
          "duration": 0.1966666666666015,
          "durationTicks": 236,
          "midi": 65,
          "name": "F4",
          "ticks": 813360,
          "time": 677.8000000000001,
          "velocity": 0.8267716535433071
        },
        {
          "duration": 0.19666666666671517,
          "durationTicks": 236,
          "midi": 67,
          "name": "G4",
          "ticks": 813600,
          "time": 678,
          "velocity": 0.8267716535433071
        },
        {
          "duration": 0.1966666666666015,
          "durationTicks": 236,
          "midi": 67,
          "name": "G4",
          "ticks": 813840,
          "time": 678.2,
          "velocity": 0.8267716535433071
        },
        {
          "duration": 0.1966666666666015,
          "durationTicks": 236,
          "midi": 69,
          "name": "A4",
          "ticks": 814080,
          "time": 678.4000000000001,
          "velocity": 0.8267716535433071
        },
        {
          "duration": 0.1966666666666015,
          "durationTicks": 236,
          "midi": 69,
          "name": "A4",
          "ticks": 814320,
          "time": 678.6,
          "velocity": 0.8267716535433071
        },
        {
          "duration": 0.1966666666666015,
          "durationTicks": 236,
          "midi": 65,
          "name": "F4",
          "ticks": 814560,
          "time": 678.8000000000001,
          "velocity": 0.8267716535433071
        },
        {
          "duration": 0.19666666666671517,
          "durationTicks": 236,
          "midi": 65,
          "name": "F4",
          "ticks": 814800,
          "time": 679,
          "velocity": 0.8267716535433071
        },
        {
          "duration": 0.1966666666666015,
          "durationTicks": 236,
          "midi": 67,
          "name": "G4",
          "ticks": 815040,
          "time": 679.2,
          "velocity": 0.8267716535433071
        },
        {
          "duration": 0.1966666666666015,
          "durationTicks": 236,
          "midi": 67,
          "name": "G4",
          "ticks": 815280,
          "time": 679.4000000000001,
          "velocity": 0.8267716535433071
        },
        {
          "duration": 0.1966666666666015,
          "durationTicks": 236,
          "midi": 55,
          "name": "G3",
          "ticks": 815520,
          "time": 679.6,
          "velocity": 0.8267716535433071
        },
        {
          "duration": 0.1966666666666015,
          "durationTicks": 236,
          "midi": 55,
          "name": "G3",
          "ticks": 815760,
          "time": 679.8000000000001,
          "velocity": 0.8267716535433071
        },
        {
          "duration": 0.33333333333337123,
          "durationTicks": 400,
          "midi": 60,
          "name": "C4",
          "ticks": 816000,
          "time": 680,
          "velocity": 0.9763779527559056
        },
        {
          "duration": 0.33333333333325754,
          "durationTicks": 400,
          "midi": 60,
          "name": "C4",
          "ticks": 816480,
          "time": 680.4000000000001,
          "velocity": 0.9763779527559056
        },
        {
          "duration": 0.33333333333325754,
          "durationTicks": 400,
          "midi": 55,
          "name": "G3",
          "ticks": 817440,
          "time": 681.2,
          "velocity": 0.9763779527559056
        },
        {
          "duration": 0.33333333333337123,
          "durationTicks": 400,
          "midi": 60,
          "name": "C4",
          "ticks": 818400,
          "time": 682,
          "velocity": 0.9763779527559056
        },
        {
          "duration": 0.33333333333325754,
          "durationTicks": 400,
          "midi": 55,
          "name": "G3",
          "ticks": 819360,
          "time": 682.8000000000001,
          "velocity": 0.9763779527559056
        },
        {
          "duration": 0.33333333333337123,
          "durationTicks": 400,
          "midi": 60,
          "name": "C4",
          "ticks": 820320,
          "time": 683.6,
          "velocity": 0.9763779527559056
        },
        {
          "duration": 0.33333333333325754,
          "durationTicks": 400,
          "midi": 55,
          "name": "G3",
          "ticks": 821280,
          "time": 684.4000000000001,
          "velocity": 0.9763779527559056
        },
        {
          "duration": 0.1966666666666015,
          "durationTicks": 236,
          "midi": 60,
          "name": "C4",
          "ticks": 821760,
          "time": 684.8000000000001,
          "velocity": 0.9763779527559056
        },
        {
          "duration": 0.19666666666671517,
          "durationTicks": 236,
          "midi": 55,
          "name": "G3",
          "ticks": 822000,
          "time": 685,
          "velocity": 0.9763779527559056
        },
        {
          "duration": 0.1966666666666015,
          "durationTicks": 236,
          "midi": 60,
          "name": "C4",
          "ticks": 822240,
          "time": 685.2,
          "velocity": 0.9763779527559056
        },
        {
          "duration": 0.1966666666666015,
          "durationTicks": 236,
          "midi": 55,
          "name": "G3",
          "ticks": 822480,
          "time": 685.4000000000001,
          "velocity": 0.9763779527559056
        },
        {
          "duration": 0.1966666666666015,
          "durationTicks": 236,
          "midi": 60,
          "name": "C4",
          "ticks": 822720,
          "time": 685.6,
          "velocity": 0.9763779527559056
        },
        {
          "duration": 0.1966666666666015,
          "durationTicks": 236,
          "midi": 55,
          "name": "G3",
          "ticks": 822960,
          "time": 685.8000000000001,
          "velocity": 0.9763779527559056
        },
        {
          "duration": 0.19666666666671517,
          "durationTicks": 236,
          "midi": 60,
          "name": "C4",
          "ticks": 823200,
          "time": 686,
          "velocity": 0.984251968503937
        },
        {
          "duration": 0.1966666666666015,
          "durationTicks": 236,
          "midi": 55,
          "name": "G3",
          "ticks": 823440,
          "time": 686.2,
          "velocity": 0.9921259842519685
        },
        {
          "duration": 0.1966666666666015,
          "durationTicks": 236,
          "midi": 60,
          "name": "C4",
          "ticks": 823680,
          "time": 686.4000000000001,
          "velocity": 1
        },
        {
          "duration": 0.1966666666666015,
          "durationTicks": 236,
          "midi": 64,
          "name": "E4",
          "ticks": 823920,
          "time": 686.6,
          "velocity": 1
        },
        {
          "duration": 0.1966666666666015,
          "durationTicks": 236,
          "midi": 67,
          "name": "G4",
          "ticks": 824160,
          "time": 686.8000000000001,
          "velocity": 1
        },
        {
          "duration": 0.19666666666671517,
          "durationTicks": 236,
          "midi": 64,
          "name": "E4",
          "ticks": 824400,
          "time": 687,
          "velocity": 1
        },
        {
          "duration": 0.1966666666666015,
          "durationTicks": 236,
          "midi": 67,
          "name": "G4",
          "ticks": 824640,
          "time": 687.2,
          "velocity": 1
        },
        {
          "duration": 0.1966666666666015,
          "durationTicks": 236,
          "midi": 64,
          "name": "E4",
          "ticks": 824880,
          "time": 687.4000000000001,
          "velocity": 1
        },
        {
          "duration": 0.1966666666666015,
          "durationTicks": 236,
          "midi": 67,
          "name": "G4",
          "ticks": 825120,
          "time": 687.6,
          "velocity": 1
        },
        {
          "duration": 0.1966666666666015,
          "durationTicks": 236,
          "midi": 64,
          "name": "E4",
          "ticks": 825360,
          "time": 687.8000000000001,
          "velocity": 1
        },
        {
          "duration": 0.33333333333337123,
          "durationTicks": 400,
          "midi": 60,
          "name": "C4",
          "ticks": 825600,
          "time": 688,
          "velocity": 1
        },
        {
          "duration": 0.33333333333325754,
          "durationTicks": 400,
          "midi": 64,
          "name": "E4",
          "ticks": 826080,
          "time": 688.4000000000001,
          "velocity": 1
        },
        {
          "duration": 0.33333333333325754,
          "durationTicks": 400,
          "midi": 67,
          "name": "G4",
          "ticks": 826560,
          "time": 688.8000000000001,
          "velocity": 1
        },
        {
          "duration": 0.33333333333325754,
          "durationTicks": 400,
          "midi": 64,
          "name": "E4",
          "ticks": 827040,
          "time": 689.2,
          "velocity": 1
        },
        {
          "duration": 0.38461500000005344,
          "durationTicks": 400,
          "midi": 60,
          "name": "C4",
          "ticks": 827520,
          "time": 689.6,
          "velocity": 1
        },
        {
          "duration": 0.4545458333333272,
          "durationTicks": 400,
          "midi": 60,
          "name": "C4",
          "ticks": 828480,
          "time": 690.5230760000001,
          "velocity": 1
        },
        {
          "duration": 1.0499999999999545,
          "durationTicks": 840,
          "midi": 60,
          "name": "C4",
          "ticks": 829440,
          "time": 691.6139860000001,
          "velocity": 1
        }
      ]
    },
    {
      "channel": 8,
      "controlChanges": {},
      "pitchBends": [],
      "instrument": {
        "family": "strings",
        "number": 45,
        "name": "pizzicato strings"
      },
      "name": "",
      "notes": [
        {
          "duration": 0.3333333333333428,
          "durationTicks": 400,
          "midi": 67,
          "name": "G4",
          "ticks": 192000,
          "time": 160,
          "velocity": 0.4015748031496063
        },
        {
          "duration": 0.3333333333333144,
          "durationTicks": 400,
          "midi": 62,
          "name": "D4",
          "ticks": 193920,
          "time": 161.60000000000002,
          "velocity": 0.4015748031496063
        },
        {
          "duration": 0.3333333333333144,
          "durationTicks": 400,
          "midi": 55,
          "name": "G3",
          "ticks": 195840,
          "time": 163.20000000000002,
          "velocity": 0.4015748031496063
        },
        {
          "duration": 0.3333333333333144,
          "durationTicks": 400,
          "midi": 62,
          "name": "D4",
          "ticks": 197760,
          "time": 164.8,
          "velocity": 0.4015748031496063
        },
        {
          "duration": 0.3333333333333428,
          "durationTicks": 400,
          "midi": 67,
          "name": "G4",
          "ticks": 199680,
          "time": 166.4,
          "velocity": 0.4015748031496063
        },
        {
          "duration": 0.3333333333333428,
          "durationTicks": 400,
          "midi": 62,
          "name": "D4",
          "ticks": 201600,
          "time": 168,
          "velocity": 0.4015748031496063
        },
        {
          "duration": 0.3333333333333144,
          "durationTicks": 400,
          "midi": 55,
          "name": "G3",
          "ticks": 203520,
          "time": 169.60000000000002,
          "velocity": 0.4015748031496063
        },
        {
          "duration": 0.19666666666668675,
          "durationTicks": 236,
          "midi": 60,
          "name": "C4",
          "ticks": 206400,
          "time": 172,
          "velocity": 0.4015748031496063
        },
        {
          "duration": 0.19666666666668675,
          "durationTicks": 236,
          "midi": 62,
          "name": "D4",
          "ticks": 206400,
          "time": 172,
          "velocity": 0.4015748031496063
        },
        {
          "duration": 0.19666666666668675,
          "durationTicks": 236,
          "midi": 60,
          "name": "C4",
          "ticks": 206880,
          "time": 172.4,
          "velocity": 0.4015748031496063
        },
        {
          "duration": 0.19666666666668675,
          "durationTicks": 236,
          "midi": 62,
          "name": "D4",
          "ticks": 206880,
          "time": 172.4,
          "velocity": 0.4015748031496063
        },
        {
          "duration": 0.3333333333333144,
          "durationTicks": 400,
          "midi": 59,
          "name": "B3",
          "ticks": 207360,
          "time": 172.8,
          "velocity": 0.4015748031496063
        },
        {
          "duration": 0.3333333333333144,
          "durationTicks": 400,
          "midi": 62,
          "name": "D4",
          "ticks": 207360,
          "time": 172.8,
          "velocity": 0.4015748031496063
        },
        {
          "duration": 0.19666666666665833,
          "durationTicks": 236,
          "midi": 60,
          "name": "C4",
          "ticks": 210240,
          "time": 175.20000000000002,
          "velocity": 0.4015748031496063
        },
        {
          "duration": 0.19666666666665833,
          "durationTicks": 236,
          "midi": 62,
          "name": "D4",
          "ticks": 210240,
          "time": 175.20000000000002,
          "velocity": 0.4015748031496063
        },
        {
          "duration": 0.19666666666665833,
          "durationTicks": 236,
          "midi": 60,
          "name": "C4",
          "ticks": 210720,
          "time": 175.60000000000002,
          "velocity": 0.4015748031496063
        },
        {
          "duration": 0.19666666666665833,
          "durationTicks": 236,
          "midi": 62,
          "name": "D4",
          "ticks": 210720,
          "time": 175.60000000000002,
          "velocity": 0.4015748031496063
        },
        {
          "duration": 0.19666666666668675,
          "durationTicks": 236,
          "midi": 59,
          "name": "B3",
          "ticks": 211200,
          "time": 176,
          "velocity": 0.4015748031496063
        },
        {
          "duration": 0.19666666666668675,
          "durationTicks": 236,
          "midi": 62,
          "name": "D4",
          "ticks": 211200,
          "time": 176,
          "velocity": 0.4015748031496063
        },
        {
          "duration": 0.33333333333337123,
          "durationTicks": 400,
          "midi": 67,
          "name": "G4",
          "ticks": 422400,
          "time": 352,
          "velocity": 0.4015748031496063
        },
        {
          "duration": 0.33333333333337123,
          "durationTicks": 400,
          "midi": 62,
          "name": "D4",
          "ticks": 424320,
          "time": 353.6,
          "velocity": 0.4015748031496063
        },
        {
          "duration": 0.3333333333333144,
          "durationTicks": 400,
          "midi": 55,
          "name": "G3",
          "ticks": 426240,
          "time": 355.20000000000005,
          "velocity": 0.4015748031496063
        },
        {
          "duration": 0.33333333333337123,
          "durationTicks": 400,
          "midi": 62,
          "name": "D4",
          "ticks": 428160,
          "time": 356.8,
          "velocity": 0.4015748031496063
        },
        {
          "duration": 0.3333333333333144,
          "durationTicks": 400,
          "midi": 67,
          "name": "G4",
          "ticks": 430080,
          "time": 358.40000000000003,
          "velocity": 0.4015748031496063
        },
        {
          "duration": 0.33333333333337123,
          "durationTicks": 400,
          "midi": 62,
          "name": "D4",
          "ticks": 432000,
          "time": 360,
          "velocity": 0.4015748031496063
        },
        {
          "duration": 0.33333333333337123,
          "durationTicks": 400,
          "midi": 55,
          "name": "G3",
          "ticks": 433920,
          "time": 361.6,
          "velocity": 0.4015748031496063
        },
        {
          "duration": 0.19666666666671517,
          "durationTicks": 236,
          "midi": 60,
          "name": "C4",
          "ticks": 436800,
          "time": 364,
          "velocity": 0.4015748031496063
        },
        {
          "duration": 0.19666666666671517,
          "durationTicks": 236,
          "midi": 62,
          "name": "D4",
          "ticks": 436800,
          "time": 364,
          "velocity": 0.4015748031496063
        },
        {
          "duration": 0.19666666666665833,
          "durationTicks": 236,
          "midi": 60,
          "name": "C4",
          "ticks": 437280,
          "time": 364.40000000000003,
          "velocity": 0.4015748031496063
        },
        {
          "duration": 0.19666666666665833,
          "durationTicks": 236,
          "midi": 62,
          "name": "D4",
          "ticks": 437280,
          "time": 364.40000000000003,
          "velocity": 0.4015748031496063
        },
        {
          "duration": 0.33333333333337123,
          "durationTicks": 400,
          "midi": 59,
          "name": "B3",
          "ticks": 437760,
          "time": 364.8,
          "velocity": 0.4015748031496063
        },
        {
          "duration": 0.33333333333337123,
          "durationTicks": 400,
          "midi": 62,
          "name": "D4",
          "ticks": 437760,
          "time": 364.8,
          "velocity": 0.4015748031496063
        },
        {
          "duration": 0.19666666666665833,
          "durationTicks": 236,
          "midi": 60,
          "name": "C4",
          "ticks": 440640,
          "time": 367.20000000000005,
          "velocity": 0.4015748031496063
        },
        {
          "duration": 0.19666666666665833,
          "durationTicks": 236,
          "midi": 62,
          "name": "D4",
          "ticks": 440640,
          "time": 367.20000000000005,
          "velocity": 0.4015748031496063
        },
        {
          "duration": 0.19666666666665833,
          "durationTicks": 236,
          "midi": 60,
          "name": "C4",
          "ticks": 441120,
          "time": 367.6,
          "velocity": 0.4015748031496063
        },
        {
          "duration": 0.19666666666665833,
          "durationTicks": 236,
          "midi": 62,
          "name": "D4",
          "ticks": 441120,
          "time": 367.6,
          "velocity": 0.4015748031496063
        },
        {
          "duration": 0.19666666666671517,
          "durationTicks": 236,
          "midi": 59,
          "name": "B3",
          "ticks": 441600,
          "time": 368,
          "velocity": 0.4015748031496063
        },
        {
          "duration": 0.19666666666671517,
          "durationTicks": 236,
          "midi": 62,
          "name": "D4",
          "ticks": 441600,
          "time": 368,
          "velocity": 0.4015748031496063
        },
        {
          "duration": 0.33333333333325754,
          "durationTicks": 400,
          "midi": 60,
          "name": "C4",
          "ticks": 783360,
          "time": 652.8000000000001,
          "velocity": 0.4015748031496063
        },
        {
          "duration": 0.33333333333325754,
          "durationTicks": 400,
          "midi": 55,
          "name": "G3",
          "ticks": 785280,
          "time": 654.4000000000001,
          "velocity": 0.4015748031496063
        },
        {
          "duration": 0.33333333333337123,
          "durationTicks": 400,
          "midi": 60,
          "name": "C4",
          "ticks": 787200,
          "time": 656,
          "velocity": 0.4015748031496063
        },
        {
          "duration": 0.33333333333337123,
          "durationTicks": 400,
          "midi": 55,
          "name": "G3",
          "ticks": 789120,
          "time": 657.6,
          "velocity": 0.4015748031496063
        },
        {
          "duration": 0.33333333333325754,
          "durationTicks": 400,
          "midi": 60,
          "name": "C4",
          "ticks": 791040,
          "time": 659.2,
          "velocity": 0.4015748031496063
        },
        {
          "duration": 0.33333333333325754,
          "durationTicks": 400,
          "midi": 55,
          "name": "G3",
          "ticks": 792960,
          "time": 660.8000000000001,
          "velocity": 0.4015748031496063
        },
        {
          "duration": 0.33333333333325754,
          "durationTicks": 400,
          "midi": 60,
          "name": "C4",
          "ticks": 794880,
          "time": 662.4000000000001,
          "velocity": 0.4015748031496063
        },
        {
          "duration": 0.1966666666666015,
          "durationTicks": 236,
          "midi": 53,
          "name": "F3",
          "ticks": 797760,
          "time": 664.8000000000001,
          "velocity": 0.4015748031496063
        },
        {
          "duration": 0.1966666666666015,
          "durationTicks": 236,
          "midi": 59,
          "name": "B3",
          "ticks": 797760,
          "time": 664.8000000000001,
          "velocity": 0.4015748031496063
        },
        {
          "duration": 0.1966666666666015,
          "durationTicks": 236,
          "midi": 53,
          "name": "F3",
          "ticks": 798240,
          "time": 665.2,
          "velocity": 0.4015748031496063
        },
        {
          "duration": 0.1966666666666015,
          "durationTicks": 236,
          "midi": 59,
          "name": "B3",
          "ticks": 798240,
          "time": 665.2,
          "velocity": 0.4015748031496063
        },
        {
          "duration": 0.33333333333337123,
          "durationTicks": 400,
          "midi": 52,
          "name": "E3",
          "ticks": 798720,
          "time": 665.6,
          "velocity": 0.4015748031496063
        },
        {
          "duration": 0.33333333333337123,
          "durationTicks": 400,
          "midi": 60,
          "name": "C4",
          "ticks": 798720,
          "time": 665.6,
          "velocity": 0.4015748031496063
        },
        {
          "duration": 0.19666666666671517,
          "durationTicks": 236,
          "midi": 59,
          "name": "B3",
          "ticks": 801600,
          "time": 668,
          "velocity": 0.4015748031496063
        },
        {
          "duration": 0.19666666666671517,
          "durationTicks": 236,
          "midi": 65,
          "name": "F4",
          "ticks": 801600,
          "time": 668,
          "velocity": 0.4015748031496063
        },
        {
          "duration": 0.1966666666666015,
          "durationTicks": 236,
          "midi": 59,
          "name": "B3",
          "ticks": 802080,
          "time": 668.4000000000001,
          "velocity": 0.4015748031496063
        },
        {
          "duration": 0.1966666666666015,
          "durationTicks": 236,
          "midi": 65,
          "name": "F4",
          "ticks": 802080,
          "time": 668.4000000000001,
          "velocity": 0.4015748031496063
        },
        {
          "duration": 0.1966666666666015,
          "durationTicks": 236,
          "midi": 60,
          "name": "C4",
          "ticks": 802560,
          "time": 668.8000000000001,
          "velocity": 0.4015748031496063
        },
        {
          "duration": 0.1966666666666015,
          "durationTicks": 236,
          "midi": 64,
          "name": "E4",
          "ticks": 802560,
          "time": 668.8000000000001,
          "velocity": 0.4015748031496063
        }
      ]
    },
    {
      "channel": 0,
      "controlChanges": {},
      "pitchBends": [],
      "instrument": {
        "family": "piano",
        "number": 0,
        "name": "acoustic grand piano"
      },
      "name": "Celli",
      "notes": [],
      "endOfTrackTicks": 831360
    },
    {
      "channel": 10,
      "controlChanges": {
        "7": [
          {
            "number": 7,
            "ticks": 0,
            "time": 0,
            "value": 0.8661417322834646
          }
        ],
        "10": [
          {
            "number": 10,
            "ticks": 0,
            "time": 0,
            "value": 0.8267716535433071
          }
        ]
      },
      "pitchBends": [],
      "instrument": {
        "family": "ensemble",
        "number": 48,
        "name": "string ensemble 1"
      },
      "name": "",
      "notes": [
        {
          "duration": 0.33333333333333337,
          "durationTicks": 400,
          "midi": 48,
          "name": "C3",
          "ticks": 0,
          "time": 0,
          "velocity": 0.8267716535433071
        },
        {
          "duration": 0.06666666666666665,
          "durationTicks": 80,
          "midi": 43,
          "name": "G2",
          "ticks": 720,
          "time": 0.6000000000000001,
          "velocity": 0.8267716535433071
        },
        {
          "duration": 0.06666666666666665,
          "durationTicks": 80,
          "midi": 45,
          "name": "A2",
          "ticks": 800,
          "time": 0.6666666666666667,
          "velocity": 0.8267716535433071
        },
        {
          "duration": 0.06666666666666665,
          "durationTicks": 80,
          "midi": 47,
          "name": "B2",
          "ticks": 880,
          "time": 0.7333333333333334,
          "velocity": 0.8267716535433071
        },
        {
          "duration": 0.3333333333333335,
          "durationTicks": 400,
          "midi": 48,
          "name": "C3",
          "ticks": 960,
          "time": 0.8,
          "velocity": 0.8267716535433071
        },
        {
          "duration": 0.06666666666666665,
          "durationTicks": 80,
          "midi": 43,
          "name": "G2",
          "ticks": 1680,
          "time": 1.4000000000000001,
          "velocity": 0.8267716535433071
        },
        {
          "duration": 0.06666666666666665,
          "durationTicks": 80,
          "midi": 45,
          "name": "A2",
          "ticks": 1760,
          "time": 1.4666666666666668,
          "velocity": 0.8267716535433071
        },
        {
          "duration": 0.06666666666666665,
          "durationTicks": 80,
          "midi": 47,
          "name": "B2",
          "ticks": 1840,
          "time": 1.5333333333333334,
          "velocity": 0.8267716535433071
        },
        {
          "duration": 0.33333333333333326,
          "durationTicks": 400,
          "midi": 48,
          "name": "C3",
          "ticks": 1920,
          "time": 1.6,
          "velocity": 0.8267716535433071
        },
        {
          "duration": 0.7999999999999998,
          "durationTicks": 960,
          "midi": 62,
          "name": "D4",
          "ticks": 3840,
          "time": 3.2,
          "velocity": 0.4015748031496063
        },
        {
          "duration": 0.7000000000000002,
          "durationTicks": 840,
          "midi": 60,
          "name": "C4",
          "ticks": 4800,
          "time": 4,
          "velocity": 0.4015748031496063
        },
        {
          "duration": 1.0999999999999996,
          "durationTicks": 1320,
          "midi": 59,
          "name": "B3",
          "ticks": 5760,
          "time": 4.800000000000001,
          "velocity": 0.4015748031496063
        },
        {
          "duration": 0.33333333333333304,
          "durationTicks": 400,
          "midi": 55,
          "name": "G3",
          "ticks": 7680,
          "time": 6.4,
          "velocity": 0.8267716535433071
        },
        {
          "duration": 0.06666666666666732,
          "durationTicks": 80,
          "midi": 50,
          "name": "D3",
          "ticks": 8400,
          "time": 7,
          "velocity": 0.8267716535433071
        },
        {
          "duration": 0.06666666666666554,
          "durationTicks": 80,
          "midi": 52,
          "name": "E3",
          "ticks": 8480,
          "time": 7.066666666666667,
          "velocity": 0.8267716535433071
        },
        {
          "duration": 0.06666666666666732,
          "durationTicks": 80,
          "midi": 54,
          "name": "F#3",
          "ticks": 8560,
          "time": 7.133333333333333,
          "velocity": 0.8267716535433071
        },
        {
          "duration": 0.33333333333333304,
          "durationTicks": 400,
          "midi": 55,
          "name": "G3",
          "ticks": 8640,
          "time": 7.2,
          "velocity": 0.8267716535433071
        },
        {
          "duration": 0.06666666666666643,
          "durationTicks": 80,
          "midi": 50,
          "name": "D3",
          "ticks": 9360,
          "time": 7.800000000000001,
          "velocity": 0.8267716535433071
        },
        {
          "duration": 0.06666666666666643,
          "durationTicks": 80,
          "midi": 52,
          "name": "E3",
          "ticks": 9440,
          "time": 7.866666666666667,
          "velocity": 0.8267716535433071
        },
        {
          "duration": 0.06666666666666643,
          "durationTicks": 80,
          "midi": 54,
          "name": "F#3",
          "ticks": 9520,
          "time": 7.933333333333334,
          "velocity": 0.8267716535433071
        },
        {
          "duration": 0.3333333333333339,
          "durationTicks": 400,
          "midi": 55,
          "name": "G3",
          "ticks": 9600,
          "time": 8,
          "velocity": 0.8267716535433071
        },
        {
          "duration": 0.7999999999999989,
          "durationTicks": 960,
          "midi": 64,
          "name": "E4",
          "ticks": 11520,
          "time": 9.600000000000001,
          "velocity": 0.4015748031496063
        },
        {
          "duration": 0.7000000000000011,
          "durationTicks": 840,
          "midi": 62,
          "name": "D4",
          "ticks": 12480,
          "time": 10.4,
          "velocity": 0.4015748031496063
        },
        {
          "duration": 1.0999999999999996,
          "durationTicks": 1320,
          "midi": 60,
          "name": "C4",
          "ticks": 13440,
          "time": 11.200000000000001,
          "velocity": 0.4015748031496063
        },
        {
          "duration": 0.3333333333333339,
          "durationTicks": 400,
          "midi": 48,
          "name": "C3",
          "ticks": 15360,
          "time": 12.8,
          "velocity": 0.8267716535433071
        },
        {
          "duration": 0.3333333333333357,
          "durationTicks": 400,
          "midi": 60,
          "name": "C4",
          "ticks": 16800,
          "time": 14,
          "velocity": 0.8267716535433071
        },
        {
          "duration": 0.3333333333333339,
          "durationTicks": 400,
          "midi": 48,
          "name": "C3",
          "ticks": 17280,
          "time": 14.4,
          "velocity": 0.8267716535433071
        },
        {
          "duration": 0.3333333333333339,
          "durationTicks": 400,
          "midi": 60,
          "name": "C4",
          "ticks": 18720,
          "time": 15.600000000000001,
          "velocity": 0.8267716535433071
        },
        {
          "duration": 0.3333333333333357,
          "durationTicks": 400,
          "midi": 48,
          "name": "C3",
          "ticks": 19200,
          "time": 16,
          "velocity": 0.8267716535433071
        },
        {
          "duration": 0.3333333333333357,
          "durationTicks": 400,
          "midi": 60,
          "name": "C4",
          "ticks": 20640,
          "time": 17.2,
          "velocity": 0.8267716535433071
        },
        {
          "duration": 0.33333333333333215,
          "durationTicks": 400,
          "midi": 48,
          "name": "C3",
          "ticks": 21120,
          "time": 17.6,
          "velocity": 0.8267716535433071
        },
        {
          "duration": 0.3333333333333357,
          "durationTicks": 400,
          "midi": 60,
          "name": "C4",
          "ticks": 22560,
          "time": 18.8,
          "velocity": 0.8267716535433071
        },
        {
          "duration": 0.33333333333333215,
          "durationTicks": 400,
          "midi": 48,
          "name": "C3",
          "ticks": 23040,
          "time": 19.200000000000003,
          "velocity": 0.8267716535433071
        },
        {
          "duration": 0.33333333333333215,
          "durationTicks": 400,
          "midi": 60,
          "name": "C4",
          "ticks": 24480,
          "time": 20.400000000000002,
          "velocity": 0.8267716535433071
        },
        {
          "duration": 0.3333333333333357,
          "durationTicks": 400,
          "midi": 48,
          "name": "C3",
          "ticks": 24960,
          "time": 20.8,
          "velocity": 0.8267716535433071
        },
        {
          "duration": 0.3333333333333357,
          "durationTicks": 400,
          "midi": 60,
          "name": "C4",
          "ticks": 26400,
          "time": 22,
          "velocity": 0.8267716535433071
        },
        {
          "duration": 0.33333333333333215,
          "durationTicks": 400,
          "midi": 48,
          "name": "C3",
          "ticks": 26880,
          "time": 22.400000000000002,
          "velocity": 0.8267716535433071
        },
        {
          "duration": 0.33333333333333215,
          "durationTicks": 400,
          "midi": 55,
          "name": "G3",
          "ticks": 27840,
          "time": 23.200000000000003,
          "velocity": 0.8267716535433071
        },
        {
          "duration": 0.3333333333333357,
          "durationTicks": 400,
          "midi": 60,
          "name": "C4",
          "ticks": 28800,
          "time": 24,
          "velocity": 0.8267716535433071
        },
        {
          "duration": 0.3333333333333357,
          "durationTicks": 400,
          "midi": 55,
          "name": "G3",
          "ticks": 29760,
          "time": 24.8,
          "velocity": 0.8267716535433071
        },
        {
          "duration": 0.33333333333333215,
          "durationTicks": 400,
          "midi": 48,
          "name": "C3",
          "ticks": 30720,
          "time": 25.6,
          "velocity": 0.8267716535433071
        },
        {
          "duration": 0.19666666666666544,
          "durationTicks": 236,
          "midi": 55,
          "name": "G3",
          "ticks": 31200,
          "time": 26,
          "velocity": 0.8267716535433071
        },
        {
          "duration": 0.19666666666666188,
          "durationTicks": 236,
          "midi": 55,
          "name": "G3",
          "ticks": 31440,
          "time": 26.200000000000003,
          "velocity": 0.8267716535433071
        },
        {
          "duration": 0.19666666666666188,
          "durationTicks": 236,
          "midi": 60,
          "name": "C4",
          "ticks": 31680,
          "time": 26.400000000000002,
          "velocity": 0.8267716535433071
        },
        {
          "duration": 0.19666666666666544,
          "durationTicks": 236,
          "midi": 60,
          "name": "C4",
          "ticks": 31920,
          "time": 26.6,
          "velocity": 0.8267716535433071
        },
        {
          "duration": 0.19666666666666544,
          "durationTicks": 236,
          "midi": 55,
          "name": "G3",
          "ticks": 32160,
          "time": 26.8,
          "velocity": 0.8267716535433071
        },
        {
          "duration": 0.19666666666666544,
          "durationTicks": 236,
          "midi": 55,
          "name": "G3",
          "ticks": 32400,
          "time": 27,
          "velocity": 0.8267716535433071
        },
        {
          "duration": 0.19666666666666188,
          "durationTicks": 236,
          "midi": 60,
          "name": "C4",
          "ticks": 32640,
          "time": 27.200000000000003,
          "velocity": 0.8267716535433071
        },
        {
          "duration": 0.19666666666666188,
          "durationTicks": 236,
          "midi": 60,
          "name": "C4",
          "ticks": 32880,
          "time": 27.400000000000002,
          "velocity": 0.8267716535433071
        },
        {
          "duration": 0.19666666666666544,
          "durationTicks": 236,
          "midi": 55,
          "name": "G3",
          "ticks": 33120,
          "time": 27.6,
          "velocity": 0.8267716535433071
        },
        {
          "duration": 0.19666666666666544,
          "durationTicks": 236,
          "midi": 55,
          "name": "G3",
          "ticks": 33360,
          "time": 27.8,
          "velocity": 0.8267716535433071
        },
        {
          "duration": 0.19666666666666544,
          "durationTicks": 236,
          "midi": 52,
          "name": "E3",
          "ticks": 33600,
          "time": 28,
          "velocity": 0.8267716535433071
        },
        {
          "duration": 0.19666666666666188,
          "durationTicks": 236,
          "midi": 52,
          "name": "E3",
          "ticks": 33840,
          "time": 28.200000000000003,
          "velocity": 0.8267716535433071
        },
        {
          "duration": 0.19666666666666188,
          "durationTicks": 236,
          "midi": 48,
          "name": "C3",
          "ticks": 34080,
          "time": 28.400000000000002,
          "velocity": 0.8267716535433071
        },
        {
          "duration": 0.19666666666666544,
          "durationTicks": 236,
          "midi": 48,
          "name": "C3",
          "ticks": 34320,
          "time": 28.6,
          "velocity": 0.8267716535433071
        },
        {
          "duration": 0.33333333333333215,
          "durationTicks": 400,
          "midi": 43,
          "name": "G2",
          "ticks": 34560,
          "time": 28.8,
          "velocity": 0.8267716535433071
        },
        {
          "duration": 0.19666666666666188,
          "durationTicks": 236,
          "midi": 55,
          "name": "G3",
          "ticks": 35280,
          "time": 29.400000000000002,
          "velocity": 0.8267716535433071
        },
        {
          "duration": 0.33333333333333215,
          "durationTicks": 400,
          "midi": 60,
          "name": "C4",
          "ticks": 35520,
          "time": 29.6,
          "velocity": 0.8267716535433071
        },
        {
          "duration": 0.19666666666666188,
          "durationTicks": 236,
          "midi": 60,
          "name": "C4",
          "ticks": 36240,
          "time": 30.200000000000003,
          "velocity": 0.8267716535433071
        },
        {
          "duration": 0.33333333333333215,
          "durationTicks": 400,
          "midi": 55,
          "name": "G3",
          "ticks": 36480,
          "time": 30.400000000000002,
          "velocity": 0.8267716535433071
        },
        {
          "duration": 0.19666666666666544,
          "durationTicks": 236,
          "midi": 55,
          "name": "G3",
          "ticks": 37200,
          "time": 31,
          "velocity": 0.8267716535433071
        },
        {
          "duration": 0.3333333333333286,
          "durationTicks": 400,
          "midi": 60,
          "name": "C4",
          "ticks": 37440,
          "time": 31.200000000000003,
          "velocity": 0.8267716535433071
        },
        {
          "duration": 0.19666666666666544,
          "durationTicks": 236,
          "midi": 60,
          "name": "C4",
          "ticks": 38160,
          "time": 31.8,
          "velocity": 0.8267716535433071
        },
        {
          "duration": 0.19666666666666544,
          "durationTicks": 236,
          "midi": 55,
          "name": "G3",
          "ticks": 38400,
          "time": 32,
          "velocity": 0.8267716535433071
        },
        {
          "duration": 0.19666666666666544,
          "durationTicks": 236,
          "midi": 60,
          "name": "C4",
          "ticks": 38640,
          "time": 32.2,
          "velocity": 0.8346456692913385
        },
        {
          "duration": 0.19666666666666544,
          "durationTicks": 236,
          "midi": 55,
          "name": "G3",
          "ticks": 38880,
          "time": 32.4,
          "velocity": 0.8503937007874016
        },
        {
          "duration": 0.19666666666666544,
          "durationTicks": 236,
          "midi": 60,
          "name": "C4",
          "ticks": 39120,
          "time": 32.6,
          "velocity": 0.8582677165354331
        },
        {
          "duration": 0.19666666666665833,
          "durationTicks": 236,
          "midi": 55,
          "name": "G3",
          "ticks": 39360,
          "time": 32.800000000000004,
          "velocity": 0.8661417322834646
        },
        {
          "duration": 0.19666666666666544,
          "durationTicks": 236,
          "midi": 60,
          "name": "C4",
          "ticks": 39600,
          "time": 33,
          "velocity": 0.8740157480314961
        },
        {
          "duration": 0.19666666666666544,
          "durationTicks": 236,
          "midi": 55,
          "name": "G3",
          "ticks": 39840,
          "time": 33.2,
          "velocity": 0.8818897637795275
        },
        {
          "duration": 0.19666666666666544,
          "durationTicks": 236,
          "midi": 60,
          "name": "C4",
          "ticks": 40080,
          "time": 33.4,
          "velocity": 0.889763779527559
        },
        {
          "duration": 0.3333333333333286,
          "durationTicks": 400,
          "midi": 55,
          "name": "G3",
          "ticks": 40320,
          "time": 33.6,
          "velocity": 0.905511811023622
        },
        {
          "duration": 0.3333333333333357,
          "durationTicks": 400,
          "midi": 55,
          "name": "G3",
          "ticks": 40800,
          "time": 34,
          "velocity": 0.9212598425196851
        },
        {
          "duration": 0.3333333333333357,
          "durationTicks": 400,
          "midi": 43,
          "name": "G2",
          "ticks": 41280,
          "time": 34.4,
          "velocity": 0.937007874015748
        },
        {
          "duration": 0.3333333333333286,
          "durationTicks": 400,
          "midi": 43,
          "name": "G2",
          "ticks": 41760,
          "time": 34.800000000000004,
          "velocity": 0.952755905511811
        },
        {
          "duration": 1.5,
          "durationTicks": 1800,
          "midi": 43,
          "name": "G2",
          "ticks": 42240,
          "time": 35.2,
          "velocity": 0.9763779527559056
        },
        {
          "duration": 0.7999999999999972,
          "durationTicks": 960,
          "midi": 57,
          "name": "A3",
          "ticks": 65280,
          "time": 54.400000000000006,
          "velocity": 0.4015748031496063
        },
        {
          "duration": 0.7000000000000028,
          "durationTicks": 840,
          "midi": 55,
          "name": "G3",
          "ticks": 66240,
          "time": 55.2,
          "velocity": 0.4015748031496063
        },
        {
          "duration": 1.2000000000000028,
          "durationTicks": 1440,
          "midi": 53,
          "name": "F3",
          "ticks": 67200,
          "time": 56,
          "velocity": 0.4015748031496063
        },
        {
          "duration": 0.3333333333333357,
          "durationTicks": 400,
          "midi": 54,
          "name": "F#3",
          "ticks": 68640,
          "time": 57.2,
          "velocity": 0.4015748031496063
        },
        {
          "duration": 0.3333333333333357,
          "durationTicks": 400,
          "midi": 55,
          "name": "G3",
          "ticks": 69120,
          "time": 57.6,
          "velocity": 0.8267716535433071
        },
        {
          "duration": 0.06666666666666288,
          "durationTicks": 80,
          "midi": 50,
          "name": "D3",
          "ticks": 69840,
          "time": 58.2,
          "velocity": 0.8267716535433071
        },
        {
          "duration": 0.06666666666667709,
          "durationTicks": 80,
          "midi": 52,
          "name": "E3",
          "ticks": 69920,
          "time": 58.266666666666666,
          "velocity": 0.8267716535433071
        },
        {
          "duration": 0.06666666666666288,
          "durationTicks": 80,
          "midi": 54,
          "name": "F#3",
          "ticks": 70000,
          "time": 58.33333333333334,
          "velocity": 0.8267716535433071
        },
        {
          "duration": 0.3333333333333357,
          "durationTicks": 400,
          "midi": 55,
          "name": "G3",
          "ticks": 70080,
          "time": 58.400000000000006,
          "velocity": 0.8267716535433071
        },
        {
          "duration": 0.06666666666666288,
          "durationTicks": 80,
          "midi": 50,
          "name": "D3",
          "ticks": 70800,
          "time": 59,
          "velocity": 0.8267716535433071
        },
        {
          "duration": 0.06666666666667709,
          "durationTicks": 80,
          "midi": 52,
          "name": "E3",
          "ticks": 70880,
          "time": 59.06666666666666,
          "velocity": 0.8267716535433071
        },
        {
          "duration": 0.06666666666666288,
          "durationTicks": 80,
          "midi": 54,
          "name": "F#3",
          "ticks": 70960,
          "time": 59.13333333333334,
          "velocity": 0.8267716535433071
        },
        {
          "duration": 0.3333333333333357,
          "durationTicks": 400,
          "midi": 55,
          "name": "G3",
          "ticks": 71040,
          "time": 59.2,
          "velocity": 0.8267716535433071
        },
        {
          "duration": 0.19666666666667254,
          "durationTicks": 236,
          "midi": 59,
          "name": "B3",
          "ticks": 72720,
          "time": 60.6,
          "velocity": 0.8267716535433071
        },
        {
          "duration": 0.19999999999999574,
          "durationTicks": 240,
          "midi": 55,
          "name": "G3",
          "ticks": 72960,
          "time": 60.800000000000004,
          "velocity": 0.8267716535433071
        },
        {
          "duration": 0.5333333333333385,
          "durationTicks": 640,
          "midi": 60,
          "name": "C4",
          "ticks": 72960,
          "time": 60.800000000000004,
          "velocity": 0.8267716535433071
        },
        {
          "duration": 0.20000000000000284,
          "durationTicks": 240,
          "midi": 55,
          "name": "G3",
          "ticks": 73200,
          "time": 61,
          "velocity": 0.8267716535433071
        },
        {
          "duration": 0.20000000000000284,
          "durationTicks": 240,
          "midi": 55,
          "name": "G3",
          "ticks": 73440,
          "time": 61.2,
          "velocity": 0.8267716535433071
        },
        {
          "duration": 0.19666666666666544,
          "durationTicks": 236,
          "midi": 55,
          "name": "G3",
          "ticks": 73680,
          "time": 61.400000000000006,
          "velocity": 0.8267716535433071
        },
        {
          "duration": 0.19666666666666544,
          "durationTicks": 236,
          "midi": 59,
          "name": "B3",
          "ticks": 73680,
          "time": 61.400000000000006,
          "velocity": 0.8267716535433071
        },
        {
          "duration": 0.20000000000000284,
          "durationTicks": 240,
          "midi": 55,
          "name": "G3",
          "ticks": 73920,
          "time": 61.6,
          "velocity": 0.8267716535433071
        },
        {
          "duration": 0.5333333333333385,
          "durationTicks": 640,
          "midi": 62,
          "name": "D4",
          "ticks": 73920,
          "time": 61.6,
          "velocity": 0.8267716535433071
        },
        {
          "duration": 0.19999999999999574,
          "durationTicks": 240,
          "midi": 55,
          "name": "G3",
          "ticks": 74160,
          "time": 61.800000000000004,
          "velocity": 0.8267716535433071
        },
        {
          "duration": 0.20000000000000284,
          "durationTicks": 240,
          "midi": 55,
          "name": "G3",
          "ticks": 74400,
          "time": 62,
          "velocity": 0.8267716535433071
        },
        {
          "duration": 0.19666666666667254,
          "durationTicks": 236,
          "midi": 55,
          "name": "G3",
          "ticks": 74640,
          "time": 62.2,
          "velocity": 0.8267716535433071
        },
        {
          "duration": 0.19666666666667254,
          "durationTicks": 236,
          "midi": 60,
          "name": "C4",
          "ticks": 74640,
          "time": 62.2,
          "velocity": 0.8267716535433071
        },
        {
          "duration": 0.19999999999999574,
          "durationTicks": 240,
          "midi": 55,
          "name": "G3",
          "ticks": 74880,
          "time": 62.400000000000006,
          "velocity": 0.8267716535433071
        },
        {
          "duration": 0.6999999999999957,
          "durationTicks": 840,
          "midi": 64,
          "name": "E4",
          "ticks": 74880,
          "time": 62.400000000000006,
          "velocity": 0.8267716535433071
        },
        {
          "duration": 0.20000000000000284,
          "durationTicks": 240,
          "midi": 55,
          "name": "G3",
          "ticks": 75120,
          "time": 62.6,
          "velocity": 0.8267716535433071
        },
        {
          "duration": 0.19999999999999574,
          "durationTicks": 240,
          "midi": 55,
          "name": "G3",
          "ticks": 75360,
          "time": 62.800000000000004,
          "velocity": 0.8267716535433071
        },
        {
          "duration": 0.20000000000000284,
          "durationTicks": 240,
          "midi": 55,
          "name": "G3",
          "ticks": 75600,
          "time": 63,
          "velocity": 0.8267716535433071
        },
        {
          "duration": 0.19666666666667254,
          "durationTicks": 236,
          "midi": 55,
          "name": "G3",
          "ticks": 75840,
          "time": 63.2,
          "velocity": 0.8267716535433071
        },
        {
          "duration": 0.3333333333333357,
          "durationTicks": 400,
          "midi": 62,
          "name": "D4",
          "ticks": 75840,
          "time": 63.2,
          "velocity": 0.8267716535433071
        },
        {
          "duration": 0.19666666666666544,
          "durationTicks": 236,
          "midi": 55,
          "name": "G3",
          "ticks": 76080,
          "time": 63.400000000000006,
          "velocity": 0.8267716535433071
        },
        {
          "duration": 0.19666666666667254,
          "durationTicks": 236,
          "midi": 55,
          "name": "G3",
          "ticks": 76320,
          "time": 63.6,
          "velocity": 0.8267716535433071
        },
        {
          "duration": 0.19666666666666544,
          "durationTicks": 236,
          "midi": 55,
          "name": "G3",
          "ticks": 76560,
          "time": 63.800000000000004,
          "velocity": 0.8267716535433071
        },
        {
          "duration": 0.19666666666666544,
          "durationTicks": 236,
          "midi": 59,
          "name": "B3",
          "ticks": 76560,
          "time": 63.800000000000004,
          "velocity": 0.8267716535433071
        },
        {
          "duration": 0.20000000000000284,
          "durationTicks": 240,
          "midi": 55,
          "name": "G3",
          "ticks": 76800,
          "time": 64,
          "velocity": 0.8267716535433071
        },
        {
          "duration": 0.5333333333333456,
          "durationTicks": 640,
          "midi": 62,
          "name": "D4",
          "ticks": 76800,
          "time": 64,
          "velocity": 0.8267716535433071
        },
        {
          "duration": 0.20000000000000284,
          "durationTicks": 240,
          "midi": 55,
          "name": "G3",
          "ticks": 77040,
          "time": 64.2,
          "velocity": 0.8267716535433071
        },
        {
          "duration": 0.20000000000000284,
          "durationTicks": 240,
          "midi": 55,
          "name": "G3",
          "ticks": 77280,
          "time": 64.4,
          "velocity": 0.8267716535433071
        },
        {
          "duration": 0.19666666666665833,
          "durationTicks": 236,
          "midi": 55,
          "name": "G3",
          "ticks": 77520,
          "time": 64.60000000000001,
          "velocity": 0.8267716535433071
        },
        {
          "duration": 0.19666666666665833,
          "durationTicks": 236,
          "midi": 60,
          "name": "C4",
          "ticks": 77520,
          "time": 64.60000000000001,
          "velocity": 0.8267716535433071
        },
        {
          "duration": 0.20000000000000284,
          "durationTicks": 240,
          "midi": 55,
          "name": "G3",
          "ticks": 77760,
          "time": 64.8,
          "velocity": 0.8267716535433071
        },
        {
          "duration": 0.5333333333333456,
          "durationTicks": 640,
          "midi": 64,
          "name": "E4",
          "ticks": 77760,
          "time": 64.8,
          "velocity": 0.8267716535433071
        },
        {
          "duration": 0.20000000000000284,
          "durationTicks": 240,
          "midi": 55,
          "name": "G3",
          "ticks": 78000,
          "time": 65,
          "velocity": 0.8267716535433071
        },
        {
          "duration": 0.20000000000000284,
          "durationTicks": 240,
          "midi": 55,
          "name": "G3",
          "ticks": 78240,
          "time": 65.2,
          "velocity": 0.8267716535433071
        },
        {
          "duration": 0.19666666666667254,
          "durationTicks": 236,
          "midi": 55,
          "name": "G3",
          "ticks": 78480,
          "time": 65.4,
          "velocity": 0.8267716535433071
        },
        {
          "duration": 0.19666666666667254,
          "durationTicks": 236,
          "midi": 62,
          "name": "D4",
          "ticks": 78480,
          "time": 65.4,
          "velocity": 0.8267716535433071
        },
        {
          "duration": 0.19999999999998863,
          "durationTicks": 240,
          "midi": 55,
          "name": "G3",
          "ticks": 78720,
          "time": 65.60000000000001,
          "velocity": 0.8267716535433071
        },
        {
          "duration": 0.6999999999999886,
          "durationTicks": 840,
          "midi": 65,
          "name": "F4",
          "ticks": 78720,
          "time": 65.60000000000001,
          "velocity": 0.8267716535433071
        },
        {
          "duration": 0.20000000000000284,
          "durationTicks": 240,
          "midi": 55,
          "name": "G3",
          "ticks": 78960,
          "time": 65.8,
          "velocity": 0.8267716535433071
        },
        {
          "duration": 0.20000000000000284,
          "durationTicks": 240,
          "midi": 55,
          "name": "G3",
          "ticks": 79200,
          "time": 66,
          "velocity": 0.8267716535433071
        },
        {
          "duration": 0.20000000000000284,
          "durationTicks": 240,
          "midi": 55,
          "name": "G3",
          "ticks": 79440,
          "time": 66.2,
          "velocity": 0.8267716535433071
        },
        {
          "duration": 0.19666666666667254,
          "durationTicks": 236,
          "midi": 55,
          "name": "G3",
          "ticks": 79680,
          "time": 66.4,
          "velocity": 0.8267716535433071
        },
        {
          "duration": 0.5333333333333314,
          "durationTicks": 640,
          "midi": 64,
          "name": "E4",
          "ticks": 79680,
          "time": 66.4,
          "velocity": 0.8267716535433071
        },
        {
          "duration": 0.19666666666665833,
          "durationTicks": 236,
          "midi": 55,
          "name": "G3",
          "ticks": 79920,
          "time": 66.60000000000001,
          "velocity": 0.8267716535433071
        },
        {
          "duration": 0.19666666666667254,
          "durationTicks": 236,
          "midi": 55,
          "name": "G3",
          "ticks": 80160,
          "time": 66.8,
          "velocity": 0.8267716535433071
        },
        {
          "duration": 0.19666666666667254,
          "durationTicks": 236,
          "midi": 55,
          "name": "G3",
          "ticks": 80400,
          "time": 67,
          "velocity": 0.8267716535433071
        },
        {
          "duration": 0.19666666666667254,
          "durationTicks": 236,
          "midi": 61,
          "name": "C#4",
          "ticks": 80400,
          "time": 67,
          "velocity": 0.8267716535433071
        },
        {
          "duration": 0.20000000000000284,
          "durationTicks": 240,
          "midi": 55,
          "name": "G3",
          "ticks": 80640,
          "time": 67.2,
          "velocity": 0.8267716535433071
        },
        {
          "duration": 0.5333333333333314,
          "durationTicks": 640,
          "midi": 64,
          "name": "E4",
          "ticks": 80640,
          "time": 67.2,
          "velocity": 0.8267716535433071
        },
        {
          "duration": 0.20000000000000284,
          "durationTicks": 240,
          "midi": 55,
          "name": "G3",
          "ticks": 80880,
          "time": 67.4,
          "velocity": 0.8267716535433071
        },
        {
          "duration": 0.19999999999998863,
          "durationTicks": 240,
          "midi": 55,
          "name": "G3",
          "ticks": 81120,
          "time": 67.60000000000001,
          "velocity": 0.8267716535433071
        },
        {
          "duration": 0.19666666666667254,
          "durationTicks": 236,
          "midi": 55,
          "name": "G3",
          "ticks": 81360,
          "time": 67.8,
          "velocity": 0.8267716535433071
        },
        {
          "duration": 0.19666666666667254,
          "durationTicks": 236,
          "midi": 62,
          "name": "D4",
          "ticks": 81360,
          "time": 67.8,
          "velocity": 0.8267716535433071
        },
        {
          "duration": 0.20000000000000284,
          "durationTicks": 240,
          "midi": 55,
          "name": "G3",
          "ticks": 81600,
          "time": 68,
          "velocity": 0.8267716535433071
        },
        {
          "duration": 0.5333333333333456,
          "durationTicks": 640,
          "midi": 65,
          "name": "F4",
          "ticks": 81600,
          "time": 68,
          "velocity": 0.8267716535433071
        },
        {
          "duration": 0.20000000000000284,
          "durationTicks": 240,
          "midi": 55,
          "name": "G3",
          "ticks": 81840,
          "time": 68.2,
          "velocity": 0.8267716535433071
        },
        {
          "duration": 0.20000000000000284,
          "durationTicks": 240,
          "midi": 55,
          "name": "G3",
          "ticks": 82080,
          "time": 68.4,
          "velocity": 0.8267716535433071
        },
        {
          "duration": 0.19666666666665833,
          "durationTicks": 236,
          "midi": 55,
          "name": "G3",
          "ticks": 82320,
          "time": 68.60000000000001,
          "velocity": 0.8267716535433071
        },
        {
          "duration": 0.19666666666665833,
          "durationTicks": 236,
          "midi": 64,
          "name": "E4",
          "ticks": 82320,
          "time": 68.60000000000001,
          "velocity": 0.8267716535433071
        },
        {
          "duration": 0.20000000000000284,
          "durationTicks": 240,
          "midi": 55,
          "name": "G3",
          "ticks": 82560,
          "time": 68.8,
          "velocity": 0.8267716535433071
        },
        {
          "duration": 0.7000000000000028,
          "durationTicks": 840,
          "midi": 67,
          "name": "G4",
          "ticks": 82560,
          "time": 68.8,
          "velocity": 0.8267716535433071
        },
        {
          "duration": 0.20000000000000284,
          "durationTicks": 240,
          "midi": 55,
          "name": "G3",
          "ticks": 82800,
          "time": 69,
          "velocity": 0.8267716535433071
        },
        {
          "duration": 0.20000000000000284,
          "durationTicks": 240,
          "midi": 55,
          "name": "G3",
          "ticks": 83040,
          "time": 69.2,
          "velocity": 0.8267716535433071
        },
        {
          "duration": 0.20000000000000284,
          "durationTicks": 240,
          "midi": 55,
          "name": "G3",
          "ticks": 83280,
          "time": 69.4,
          "velocity": 0.8267716535433071
        },
        {
          "duration": 0.19666666666665833,
          "durationTicks": 236,
          "midi": 55,
          "name": "G3",
          "ticks": 83520,
          "time": 69.60000000000001,
          "velocity": 0.8267716535433071
        },
        {
          "duration": 0.5333333333333314,
          "durationTicks": 640,
          "midi": 65,
          "name": "F4",
          "ticks": 83520,
          "time": 69.60000000000001,
          "velocity": 0.8267716535433071
        },
        {
          "duration": 0.19666666666667254,
          "durationTicks": 236,
          "midi": 55,
          "name": "G3",
          "ticks": 83760,
          "time": 69.8,
          "velocity": 0.8267716535433071
        },
        {
          "duration": 0.19666666666667254,
          "durationTicks": 236,
          "midi": 55,
          "name": "G3",
          "ticks": 84000,
          "time": 70,
          "velocity": 0.8267716535433071
        },
        {
          "duration": 0.19666666666667254,
          "durationTicks": 236,
          "midi": 55,
          "name": "G3",
          "ticks": 84240,
          "time": 70.2,
          "velocity": 0.8267716535433071
        },
        {
          "duration": 0.19666666666667254,
          "durationTicks": 236,
          "midi": 63,
          "name": "D#4",
          "ticks": 84240,
          "time": 70.2,
          "velocity": 0.8267716535433071
        },
        {
          "duration": 0.20000000000000284,
          "durationTicks": 240,
          "midi": 55,
          "name": "G3",
          "ticks": 84480,
          "time": 70.4,
          "velocity": 0.8267716535433071
        },
        {
          "duration": 0.7000000000000028,
          "durationTicks": 840,
          "midi": 65,
          "name": "F4",
          "ticks": 84480,
          "time": 70.4,
          "velocity": 0.8267716535433071
        },
        {
          "duration": 0.19999999999998863,
          "durationTicks": 240,
          "midi": 55,
          "name": "G3",
          "ticks": 84720,
          "time": 70.60000000000001,
          "velocity": 0.8267716535433071
        },
        {
          "duration": 0.20000000000000284,
          "durationTicks": 240,
          "midi": 55,
          "name": "G3",
          "ticks": 84960,
          "time": 70.8,
          "velocity": 0.8267716535433071
        },
        {
          "duration": 0.20000000000000284,
          "durationTicks": 240,
          "midi": 55,
          "name": "G3",
          "ticks": 85200,
          "time": 71,
          "velocity": 0.8267716535433071
        },
        {
          "duration": 0.19666666666667254,
          "durationTicks": 236,
          "midi": 55,
          "name": "G3",
          "ticks": 85440,
          "time": 71.2,
          "velocity": 0.8267716535433071
        },
        {
          "duration": 0.5333333333333314,
          "durationTicks": 640,
          "midi": 64,
          "name": "E4",
          "ticks": 85440,
          "time": 71.2,
          "velocity": 0.8267716535433071
        },
        {
          "duration": 0.19666666666667254,
          "durationTicks": 236,
          "midi": 55,
          "name": "G3",
          "ticks": 85680,
          "time": 71.4,
          "velocity": 0.8267716535433071
        },
        {
          "duration": 0.19666666666665833,
          "durationTicks": 236,
          "midi": 55,
          "name": "G3",
          "ticks": 85920,
          "time": 71.60000000000001,
          "velocity": 0.8267716535433071
        },
        {
          "duration": 0.19666666666667254,
          "durationTicks": 236,
          "midi": 55,
          "name": "G3",
          "ticks": 86160,
          "time": 71.8,
          "velocity": 0.8267716535433071
        },
        {
          "duration": 0.19666666666667254,
          "durationTicks": 236,
          "midi": 61,
          "name": "C#4",
          "ticks": 86160,
          "time": 71.8,
          "velocity": 0.8267716535433071
        },
        {
          "duration": 0.20000000000000284,
          "durationTicks": 240,
          "midi": 55,
          "name": "G3",
          "ticks": 86400,
          "time": 72,
          "velocity": 0.8267716535433071
        },
        {
          "duration": 0.7000000000000028,
          "durationTicks": 840,
          "midi": 64,
          "name": "E4",
          "ticks": 86400,
          "time": 72,
          "velocity": 0.8267716535433071
        },
        {
          "duration": 0.20000000000000284,
          "durationTicks": 240,
          "midi": 55,
          "name": "G3",
          "ticks": 86640,
          "time": 72.2,
          "velocity": 0.8267716535433071
        },
        {
          "duration": 0.20000000000000284,
          "durationTicks": 240,
          "midi": 55,
          "name": "G3",
          "ticks": 86880,
          "time": 72.4,
          "velocity": 0.8267716535433071
        },
        {
          "duration": 0.19999999999998863,
          "durationTicks": 240,
          "midi": 55,
          "name": "G3",
          "ticks": 87120,
          "time": 72.60000000000001,
          "velocity": 0.8267716535433071
        },
        {
          "duration": 0.19666666666667254,
          "durationTicks": 236,
          "midi": 55,
          "name": "G3",
          "ticks": 87360,
          "time": 72.8,
          "velocity": 0.8267716535433071
        },
        {
          "duration": 0.3333333333333428,
          "durationTicks": 400,
          "midi": 62,
          "name": "D4",
          "ticks": 87360,
          "time": 72.8,
          "velocity": 0.8267716535433071
        },
        {
          "duration": 0.19666666666667254,
          "durationTicks": 236,
          "midi": 55,
          "name": "G3",
          "ticks": 87600,
          "time": 73,
          "velocity": 0.8267716535433071
        },
        {
          "duration": 0.19666666666667254,
          "durationTicks": 236,
          "midi": 55,
          "name": "G3",
          "ticks": 87840,
          "time": 73.2,
          "velocity": 0.8267716535433071
        },
        {
          "duration": 0.19666666666667254,
          "durationTicks": 236,
          "midi": 55,
          "name": "G3",
          "ticks": 88080,
          "time": 73.4,
          "velocity": 0.8267716535433071
        },
        {
          "duration": 0.19666666666665833,
          "durationTicks": 236,
          "midi": 60,
          "name": "C4",
          "ticks": 88320,
          "time": 73.60000000000001,
          "velocity": 0.8267716535433071
        },
        {
          "duration": 0.19666666666667254,
          "durationTicks": 236,
          "midi": 60,
          "name": "C4",
          "ticks": 88560,
          "time": 73.8,
          "velocity": 0.8267716535433071
        },
        {
          "duration": 0.19666666666667254,
          "durationTicks": 236,
          "midi": 59,
          "name": "B3",
          "ticks": 88800,
          "time": 74,
          "velocity": 0.8267716535433071
        },
        {
          "duration": 0.19666666666667254,
          "durationTicks": 236,
          "midi": 59,
          "name": "B3",
          "ticks": 89040,
          "time": 74.2,
          "velocity": 0.8267716535433071
        },
        {
          "duration": 0.19666666666667254,
          "durationTicks": 236,
          "midi": 60,
          "name": "C4",
          "ticks": 89280,
          "time": 74.4,
          "velocity": 0.8267716535433071
        },
        {
          "duration": 0.19666666666665833,
          "durationTicks": 236,
          "midi": 60,
          "name": "C4",
          "ticks": 89520,
          "time": 74.60000000000001,
          "velocity": 0.8267716535433071
        },
        {
          "duration": 0.19666666666667254,
          "durationTicks": 236,
          "midi": 59,
          "name": "B3",
          "ticks": 89760,
          "time": 74.8,
          "velocity": 0.8267716535433071
        },
        {
          "duration": 0.19666666666667254,
          "durationTicks": 236,
          "midi": 59,
          "name": "B3",
          "ticks": 90000,
          "time": 75,
          "velocity": 0.8267716535433071
        },
        {
          "duration": 1.0999999999999943,
          "durationTicks": 1320,
          "midi": 60,
          "name": "C4",
          "ticks": 90240,
          "time": 75.2,
          "velocity": 0.8267716535433071
        },
        {
          "duration": 0.3333333333333286,
          "durationTicks": 400,
          "midi": 61,
          "name": "C#4",
          "ticks": 91680,
          "time": 76.4,
          "velocity": 0.8267716535433071
        },
        {
          "duration": 0.3333333333333286,
          "durationTicks": 400,
          "midi": 62,
          "name": "D4",
          "ticks": 92160,
          "time": 76.80000000000001,
          "velocity": 0.8267716535433071
        },
        {
          "duration": 0.3333333333333428,
          "durationTicks": 400,
          "midi": 62,
          "name": "D4",
          "ticks": 93600,
          "time": 78,
          "velocity": 0.8267716535433071
        },
        {
          "duration": 0.3333333333333428,
          "durationTicks": 400,
          "midi": 50,
          "name": "D3",
          "ticks": 94080,
          "time": 78.4,
          "velocity": 0.8267716535433071
        },
        {
          "duration": 0.3333333333333286,
          "durationTicks": 400,
          "midi": 62,
          "name": "D4",
          "ticks": 95520,
          "time": 79.60000000000001,
          "velocity": 0.8267716535433071
        },
        {
          "duration": 0.3333333333333428,
          "durationTicks": 400,
          "midi": 50,
          "name": "D3",
          "ticks": 96000,
          "time": 80,
          "velocity": 0.8267716535433071
        },
        {
          "duration": 0.3333333333333428,
          "durationTicks": 400,
          "midi": 62,
          "name": "D4",
          "ticks": 97440,
          "time": 81.2,
          "velocity": 0.8267716535433071
        },
        {
          "duration": 0.3333333333333286,
          "durationTicks": 400,
          "midi": 50,
          "name": "D3",
          "ticks": 97920,
          "time": 81.60000000000001,
          "velocity": 0.8267716535433071
        },
        {
          "duration": 0.3333333333333286,
          "durationTicks": 400,
          "midi": 62,
          "name": "D4",
          "ticks": 99360,
          "time": 82.80000000000001,
          "velocity": 0.8267716535433071
        },
        {
          "duration": 0.3333333333333428,
          "durationTicks": 400,
          "midi": 50,
          "name": "D3",
          "ticks": 99840,
          "time": 83.2,
          "velocity": 0.8267716535433071
        },
        {
          "duration": 0.3333333333333428,
          "durationTicks": 400,
          "midi": 62,
          "name": "D4",
          "ticks": 100800,
          "time": 84,
          "velocity": 0.8267716535433071
        },
        {
          "duration": 0.3333333333333286,
          "durationTicks": 400,
          "midi": 50,
          "name": "D3",
          "ticks": 101760,
          "time": 84.80000000000001,
          "velocity": 0.8267716535433071
        },
        {
          "duration": 0.3333333333333286,
          "durationTicks": 400,
          "midi": 62,
          "name": "D4",
          "ticks": 102720,
          "time": 85.60000000000001,
          "velocity": 0.8267716535433071
        },
        {
          "duration": 0.3333333333333428,
          "durationTicks": 400,
          "midi": 50,
          "name": "D3",
          "ticks": 103680,
          "time": 86.4,
          "velocity": 0.8267716535433071
        },
        {
          "duration": 1.2000000000000028,
          "durationTicks": 1440,
          "midi": 57,
          "name": "A3",
          "ticks": 109440,
          "time": 91.2,
          "velocity": 0.4015748031496063
        },
        {
          "duration": 0.4000000000000057,
          "durationTicks": 480,
          "midi": 58,
          "name": "A#3",
          "ticks": 110880,
          "time": 92.4,
          "velocity": 0.4015748031496063
        },
        {
          "duration": 0.3999999999999915,
          "durationTicks": 480,
          "midi": 59,
          "name": "B3",
          "ticks": 111360,
          "time": 92.80000000000001,
          "velocity": 0.4015748031496063
        },
        {
          "duration": 0.3333333333333428,
          "durationTicks": 400,
          "midi": 54,
          "name": "F#3",
          "ticks": 113280,
          "time": 94.4,
          "velocity": 0.4015748031496063
        },
        {
          "duration": 0.3333333333333428,
          "durationTicks": 400,
          "midi": 55,
          "name": "G3",
          "ticks": 114240,
          "time": 95.2,
          "velocity": 0.4015748031496063
        },
        {
          "duration": 0.3333333333333428,
          "durationTicks": 400,
          "midi": 50,
          "name": "D3",
          "ticks": 115200,
          "time": 96,
          "velocity": 0.4015748031496063
        },
        {
          "duration": 1.1999999999999886,
          "durationTicks": 1440,
          "midi": 57,
          "name": "A3",
          "ticks": 120960,
          "time": 100.80000000000001,
          "velocity": 0.4015748031496063
        },
        {
          "duration": 0.4000000000000057,
          "durationTicks": 480,
          "midi": 58,
          "name": "A#3",
          "ticks": 122400,
          "time": 102,
          "velocity": 0.4015748031496063
        },
        {
          "duration": 0.3333333333333286,
          "durationTicks": 400,
          "midi": 59,
          "name": "B3",
          "ticks": 122880,
          "time": 102.4,
          "velocity": 0.4015748031496063
        },
        {
          "duration": 0.3333333333333286,
          "durationTicks": 400,
          "midi": 54,
          "name": "F#3",
          "ticks": 124800,
          "time": 104,
          "velocity": 0.4015748031496063
        },
        {
          "duration": 0.3333333333333144,
          "durationTicks": 400,
          "midi": 55,
          "name": "G3",
          "ticks": 125760,
          "time": 104.80000000000001,
          "velocity": 0.4015748031496063
        },
        {
          "duration": 1.5999999999999943,
          "durationTicks": 1920,
          "midi": 48,
          "name": "C3",
          "ticks": 126720,
          "time": 105.60000000000001,
          "velocity": 0.4015748031496063
        },
        {
          "duration": 0.3333333333333286,
          "durationTicks": 400,
          "midi": 47,
          "name": "B2",
          "ticks": 128640,
          "time": 107.2,
          "velocity": 0.4015748031496063
        },
        {
          "duration": 0.3333333333333286,
          "durationTicks": 400,
          "midi": 51,
          "name": "D#3",
          "ticks": 129600,
          "time": 108,
          "velocity": 0.4015748031496063
        },
        {
          "duration": 1.1999999999999886,
          "durationTicks": 1440,
          "midi": 52,
          "name": "E3",
          "ticks": 130560,
          "time": 108.80000000000001,
          "velocity": 0.4015748031496063
        },
        {
          "duration": 0.3333333333333286,
          "durationTicks": 400,
          "midi": 48,
          "name": "C3",
          "ticks": 132000,
          "time": 110,
          "velocity": 0.4015748031496063
        },
        {
          "duration": 0.3333333333333286,
          "durationTicks": 400,
          "midi": 50,
          "name": "D3",
          "ticks": 132480,
          "time": 110.4,
          "velocity": 0.4015748031496063
        },
        {
          "duration": 0.3333333333333144,
          "durationTicks": 400,
          "midi": 50,
          "name": "D3",
          "ticks": 132960,
          "time": 110.80000000000001,
          "velocity": 0.4015748031496063
        },
        {
          "duration": 0.3333333333333286,
          "durationTicks": 400,
          "midi": 50,
          "name": "D3",
          "ticks": 133440,
          "time": 111.2,
          "velocity": 0.4015748031496063
        },
        {
          "duration": 0.3333333333333286,
          "durationTicks": 400,
          "midi": 50,
          "name": "D3",
          "ticks": 133920,
          "time": 111.60000000000001,
          "velocity": 0.4015748031496063
        },
        {
          "duration": 0.6000000000000085,
          "durationTicks": 720,
          "midi": 55,
          "name": "G3",
          "ticks": 134400,
          "time": 112,
          "velocity": 0.4015748031496063
        },
        {
          "duration": 0.19666666666667254,
          "durationTicks": 236,
          "midi": 54,
          "name": "F#3",
          "ticks": 135120,
          "time": 112.60000000000001,
          "velocity": 0.4015748031496063
        },
        {
          "duration": 0.5999999999999943,
          "durationTicks": 720,
          "midi": 59,
          "name": "B3",
          "ticks": 135360,
          "time": 112.80000000000001,
          "velocity": 0.4015748031496063
        },
        {
          "duration": 0.19666666666667254,
          "durationTicks": 236,
          "midi": 57,
          "name": "A3",
          "ticks": 136080,
          "time": 113.4,
          "velocity": 0.4015748031496063
        },
        {
          "duration": 0.7999999999999972,
          "durationTicks": 960,
          "midi": 62,
          "name": "D4",
          "ticks": 136320,
          "time": 113.60000000000001,
          "velocity": 0.4015748031496063
        },
        {
          "duration": 0.7000000000000028,
          "durationTicks": 840,
          "midi": 60,
          "name": "C4",
          "ticks": 137280,
          "time": 114.4,
          "velocity": 0.4015748031496063
        },
        {
          "duration": 0.3333333333333286,
          "durationTicks": 400,
          "midi": 59,
          "name": "B3",
          "ticks": 138240,
          "time": 115.2,
          "velocity": 0.4015748031496063
        },
        {
          "duration": 0.3333333333333286,
          "durationTicks": 400,
          "midi": 64,
          "name": "E4",
          "ticks": 139200,
          "time": 116,
          "velocity": 0.4015748031496063
        },
        {
          "duration": 0.3333333333333144,
          "durationTicks": 400,
          "midi": 60,
          "name": "C4",
          "ticks": 140160,
          "time": 116.80000000000001,
          "velocity": 0.4015748031496063
        },
        {
          "duration": 0.3333333333333286,
          "durationTicks": 400,
          "midi": 62,
          "name": "D4",
          "ticks": 141120,
          "time": 117.60000000000001,
          "velocity": 0.4015748031496063
        },
        {
          "duration": 0.06666666666667709,
          "durationTicks": 80,
          "midi": 50,
          "name": "D3",
          "ticks": 141840,
          "time": 118.2,
          "velocity": 0.4015748031496063
        },
        {
          "duration": 0.5999999999999943,
          "durationTicks": 720,
          "midi": 55,
          "name": "G3",
          "ticks": 142080,
          "time": 118.4,
          "velocity": 0.4015748031496063
        },
        {
          "duration": 0.19666666666667254,
          "durationTicks": 236,
          "midi": 54,
          "name": "F#3",
          "ticks": 142800,
          "time": 119,
          "velocity": 0.4015748031496063
        },
        {
          "duration": 0.6000000000000085,
          "durationTicks": 720,
          "midi": 59,
          "name": "B3",
          "ticks": 143040,
          "time": 119.2,
          "velocity": 0.4015748031496063
        },
        {
          "duration": 0.19666666666665833,
          "durationTicks": 236,
          "midi": 57,
          "name": "A3",
          "ticks": 143760,
          "time": 119.80000000000001,
          "velocity": 0.4015748031496063
        },
        {
          "duration": 0.8000000000000114,
          "durationTicks": 960,
          "midi": 62,
          "name": "D4",
          "ticks": 144000,
          "time": 120,
          "velocity": 0.4015748031496063
        },
        {
          "duration": 0.6999999999999886,
          "durationTicks": 840,
          "midi": 60,
          "name": "C4",
          "ticks": 144960,
          "time": 120.80000000000001,
          "velocity": 0.4015748031496063
        },
        {
          "duration": 0.09999999999999432,
          "durationTicks": 120,
          "midi": 59,
          "name": "B3",
          "ticks": 145920,
          "time": 121.60000000000001,
          "velocity": 0.4015748031496063
        },
        {
          "duration": 0.10000000000000853,
          "durationTicks": 120,
          "midi": 59,
          "name": "B3",
          "ticks": 146400,
          "time": 122,
          "velocity": 0.4015748031496063
        },
        {
          "duration": 0.09999999999999432,
          "durationTicks": 120,
          "midi": 59,
          "name": "B3",
          "ticks": 146880,
          "time": 122.4,
          "velocity": 0.4015748031496063
        },
        {
          "duration": 0.10000000000000853,
          "durationTicks": 120,
          "midi": 60,
          "name": "C4",
          "ticks": 147840,
          "time": 123.2,
          "velocity": 0.4015748031496063
        },
        {
          "duration": 0.09999999999999432,
          "durationTicks": 120,
          "midi": 60,
          "name": "C4",
          "ticks": 148320,
          "time": 123.60000000000001,
          "velocity": 0.4015748031496063
        },
        {
          "duration": 0.10000000000000853,
          "durationTicks": 120,
          "midi": 60,
          "name": "C4",
          "ticks": 148800,
          "time": 124,
          "velocity": 0.4015748031496063
        },
        {
          "duration": 0.09999999999999432,
          "durationTicks": 120,
          "midi": 62,
          "name": "D4",
          "ticks": 149760,
          "time": 124.80000000000001,
          "velocity": 0.4015748031496063
        },
        {
          "duration": 0.10000000000000853,
          "durationTicks": 120,
          "midi": 62,
          "name": "D4",
          "ticks": 150240,
          "time": 125.2,
          "velocity": 0.4015748031496063
        },
        {
          "duration": 0.09999999999999432,
          "durationTicks": 120,
          "midi": 62,
          "name": "D4",
          "ticks": 150720,
          "time": 125.60000000000001,
          "velocity": 0.4015748031496063
        },
        {
          "duration": 0.19666666666668675,
          "durationTicks": 236,
          "midi": 60,
          "name": "C4",
          "ticks": 153600,
          "time": 128,
          "velocity": 0.8267716535433071
        },
        {
          "duration": 0.19666666666665833,
          "durationTicks": 236,
          "midi": 60,
          "name": "C4",
          "ticks": 153840,
          "time": 128.20000000000002,
          "velocity": 0.8267716535433071
        },
        {
          "duration": 0.19666666666665833,
          "durationTicks": 236,
          "midi": 60,
          "name": "C4",
          "ticks": 154080,
          "time": 128.4,
          "velocity": 0.8267716535433071
        },
        {
          "duration": 0.19666666666668675,
          "durationTicks": 236,
          "midi": 60,
          "name": "C4",
          "ticks": 154320,
          "time": 128.6,
          "velocity": 0.8267716535433071
        },
        {
          "duration": 0.19666666666665833,
          "durationTicks": 236,
          "midi": 60,
          "name": "C4",
          "ticks": 154560,
          "time": 128.8,
          "velocity": 0.8267716535433071
        },
        {
          "duration": 0.19666666666668675,
          "durationTicks": 236,
          "midi": 60,
          "name": "C4",
          "ticks": 154800,
          "time": 129,
          "velocity": 0.8267716535433071
        },
        {
          "duration": 0.19666666666665833,
          "durationTicks": 236,
          "midi": 60,
          "name": "C4",
          "ticks": 155040,
          "time": 129.20000000000002,
          "velocity": 0.8267716535433071
        },
        {
          "duration": 0.19666666666665833,
          "durationTicks": 236,
          "midi": 60,
          "name": "C4",
          "ticks": 155280,
          "time": 129.4,
          "velocity": 0.8267716535433071
        },
        {
          "duration": 0.19666666666668675,
          "durationTicks": 236,
          "midi": 60,
          "name": "C4",
          "ticks": 155520,
          "time": 129.6,
          "velocity": 0.8267716535433071
        },
        {
          "duration": 0.19666666666665833,
          "durationTicks": 236,
          "midi": 60,
          "name": "C4",
          "ticks": 155760,
          "time": 129.8,
          "velocity": 0.8267716535433071
        },
        {
          "duration": 0.19666666666668675,
          "durationTicks": 236,
          "midi": 60,
          "name": "C4",
          "ticks": 156000,
          "time": 130,
          "velocity": 0.8267716535433071
        },
        {
          "duration": 0.19666666666665833,
          "durationTicks": 236,
          "midi": 60,
          "name": "C4",
          "ticks": 156240,
          "time": 130.20000000000002,
          "velocity": 0.8267716535433071
        },
        {
          "duration": 0.19666666666665833,
          "durationTicks": 236,
          "midi": 60,
          "name": "C4",
          "ticks": 156480,
          "time": 130.4,
          "velocity": 0.8267716535433071
        },
        {
          "duration": 0.19666666666668675,
          "durationTicks": 236,
          "midi": 60,
          "name": "C4",
          "ticks": 156720,
          "time": 130.6,
          "velocity": 0.8267716535433071
        },
        {
          "duration": 0.19666666666665833,
          "durationTicks": 236,
          "midi": 60,
          "name": "C4",
          "ticks": 156960,
          "time": 130.8,
          "velocity": 0.8267716535433071
        },
        {
          "duration": 0.19666666666668675,
          "durationTicks": 236,
          "midi": 60,
          "name": "C4",
          "ticks": 157200,
          "time": 131,
          "velocity": 0.8267716535433071
        },
        {
          "duration": 0.19666666666665833,
          "durationTicks": 236,
          "midi": 60,
          "name": "C4",
          "ticks": 157440,
          "time": 131.20000000000002,
          "velocity": 0.8267716535433071
        },
        {
          "duration": 0.19666666666665833,
          "durationTicks": 236,
          "midi": 48,
          "name": "C3",
          "ticks": 157680,
          "time": 131.4,
          "velocity": 0.8267716535433071
        },
        {
          "duration": 0.19666666666668675,
          "durationTicks": 236,
          "midi": 48,
          "name": "C3",
          "ticks": 157920,
          "time": 131.6,
          "velocity": 0.8267716535433071
        },
        {
          "duration": 0.19666666666665833,
          "durationTicks": 236,
          "midi": 48,
          "name": "C3",
          "ticks": 158160,
          "time": 131.8,
          "velocity": 0.8267716535433071
        },
        {
          "duration": 0.19666666666668675,
          "durationTicks": 236,
          "midi": 48,
          "name": "C3",
          "ticks": 158400,
          "time": 132,
          "velocity": 0.8267716535433071
        },
        {
          "duration": 0.19666666666665833,
          "durationTicks": 236,
          "midi": 48,
          "name": "C3",
          "ticks": 158640,
          "time": 132.20000000000002,
          "velocity": 0.8267716535433071
        },
        {
          "duration": 0.19666666666665833,
          "durationTicks": 236,
          "midi": 48,
          "name": "C3",
          "ticks": 158880,
          "time": 132.4,
          "velocity": 0.8267716535433071
        },
        {
          "duration": 0.19666666666668675,
          "durationTicks": 236,
          "midi": 48,
          "name": "C3",
          "ticks": 159120,
          "time": 132.6,
          "velocity": 0.8267716535433071
        },
        {
          "duration": 0.19666666666665833,
          "durationTicks": 236,
          "midi": 48,
          "name": "C3",
          "ticks": 159360,
          "time": 132.8,
          "velocity": 0.8267716535433071
        },
        {
          "duration": 0.19666666666668675,
          "durationTicks": 236,
          "midi": 48,
          "name": "C3",
          "ticks": 159600,
          "time": 133,
          "velocity": 0.8267716535433071
        },
        {
          "duration": 0.19666666666665833,
          "durationTicks": 236,
          "midi": 48,
          "name": "C3",
          "ticks": 159840,
          "time": 133.20000000000002,
          "velocity": 0.8267716535433071
        },
        {
          "duration": 0.19666666666665833,
          "durationTicks": 236,
          "midi": 48,
          "name": "C3",
          "ticks": 160080,
          "time": 133.4,
          "velocity": 0.8267716535433071
        },
        {
          "duration": 0.19666666666668675,
          "durationTicks": 236,
          "midi": 48,
          "name": "C3",
          "ticks": 160320,
          "time": 133.6,
          "velocity": 0.8267716535433071
        },
        {
          "duration": 0.19666666666665833,
          "durationTicks": 236,
          "midi": 48,
          "name": "C3",
          "ticks": 160560,
          "time": 133.8,
          "velocity": 0.8267716535433071
        },
        {
          "duration": 0.19666666666668675,
          "durationTicks": 236,
          "midi": 48,
          "name": "C3",
          "ticks": 160800,
          "time": 134,
          "velocity": 0.8267716535433071
        },
        {
          "duration": 0.19666666666665833,
          "durationTicks": 236,
          "midi": 48,
          "name": "C3",
          "ticks": 161040,
          "time": 134.20000000000002,
          "velocity": 0.8267716535433071
        },
        {
          "duration": 0.19666666666665833,
          "durationTicks": 236,
          "midi": 48,
          "name": "C3",
          "ticks": 161280,
          "time": 134.4,
          "velocity": 0.8267716535433071
        },
        {
          "duration": 0.19666666666668675,
          "durationTicks": 236,
          "midi": 48,
          "name": "C3",
          "ticks": 161520,
          "time": 134.6,
          "velocity": 0.8267716535433071
        },
        {
          "duration": 0.19666666666665833,
          "durationTicks": 236,
          "midi": 48,
          "name": "C3",
          "ticks": 161760,
          "time": 134.8,
          "velocity": 0.8267716535433071
        },
        {
          "duration": 0.19666666666668675,
          "durationTicks": 236,
          "midi": 48,
          "name": "C3",
          "ticks": 162000,
          "time": 135,
          "velocity": 0.8267716535433071
        },
        {
          "duration": 0.19666666666665833,
          "durationTicks": 236,
          "midi": 48,
          "name": "C3",
          "ticks": 162240,
          "time": 135.20000000000002,
          "velocity": 0.8267716535433071
        },
        {
          "duration": 0.19666666666665833,
          "durationTicks": 236,
          "midi": 48,
          "name": "C3",
          "ticks": 162480,
          "time": 135.4,
          "velocity": 0.8267716535433071
        },
        {
          "duration": 0.19666666666668675,
          "durationTicks": 236,
          "midi": 48,
          "name": "C3",
          "ticks": 162720,
          "time": 135.6,
          "velocity": 0.8267716535433071
        },
        {
          "duration": 0.19666666666665833,
          "durationTicks": 236,
          "midi": 48,
          "name": "C3",
          "ticks": 162960,
          "time": 135.8,
          "velocity": 0.8267716535433071
        },
        {
          "duration": 0.19666666666668675,
          "durationTicks": 236,
          "midi": 48,
          "name": "C3",
          "ticks": 163200,
          "time": 136,
          "velocity": 0.8267716535433071
        },
        {
          "duration": 0.19666666666665833,
          "durationTicks": 236,
          "midi": 48,
          "name": "C3",
          "ticks": 163440,
          "time": 136.20000000000002,
          "velocity": 0.8267716535433071
        },
        {
          "duration": 0.19666666666665833,
          "durationTicks": 236,
          "midi": 48,
          "name": "C3",
          "ticks": 163680,
          "time": 136.4,
          "velocity": 0.8267716535433071
        },
        {
          "duration": 0.19666666666668675,
          "durationTicks": 236,
          "midi": 48,
          "name": "C3",
          "ticks": 163920,
          "time": 136.6,
          "velocity": 0.8267716535433071
        },
        {
          "duration": 0.19666666666665833,
          "durationTicks": 236,
          "midi": 48,
          "name": "C3",
          "ticks": 164160,
          "time": 136.8,
          "velocity": 0.8267716535433071
        },
        {
          "duration": 0.19666666666668675,
          "durationTicks": 236,
          "midi": 48,
          "name": "C3",
          "ticks": 164400,
          "time": 137,
          "velocity": 0.8267716535433071
        },
        {
          "duration": 0.19666666666665833,
          "durationTicks": 236,
          "midi": 48,
          "name": "C3",
          "ticks": 164640,
          "time": 137.20000000000002,
          "velocity": 0.8267716535433071
        },
        {
          "duration": 0.19666666666665833,
          "durationTicks": 236,
          "midi": 48,
          "name": "C3",
          "ticks": 164880,
          "time": 137.4,
          "velocity": 0.8267716535433071
        },
        {
          "duration": 0.19666666666668675,
          "durationTicks": 236,
          "midi": 50,
          "name": "D3",
          "ticks": 165120,
          "time": 137.6,
          "velocity": 0.8267716535433071
        },
        {
          "duration": 0.19666666666665833,
          "durationTicks": 236,
          "midi": 50,
          "name": "D3",
          "ticks": 165360,
          "time": 137.8,
          "velocity": 0.8267716535433071
        },
        {
          "duration": 0.19666666666668675,
          "durationTicks": 236,
          "midi": 50,
          "name": "D3",
          "ticks": 165600,
          "time": 138,
          "velocity": 0.8267716535433071
        },
        {
          "duration": 0.19666666666665833,
          "durationTicks": 236,
          "midi": 50,
          "name": "D3",
          "ticks": 165840,
          "time": 138.20000000000002,
          "velocity": 0.8267716535433071
        },
        {
          "duration": 0.19666666666665833,
          "durationTicks": 236,
          "midi": 50,
          "name": "D3",
          "ticks": 166080,
          "time": 138.4,
          "velocity": 0.8267716535433071
        },
        {
          "duration": 0.19666666666668675,
          "durationTicks": 236,
          "midi": 50,
          "name": "D3",
          "ticks": 166320,
          "time": 138.6,
          "velocity": 0.8267716535433071
        },
        {
          "duration": 0.19666666666665833,
          "durationTicks": 236,
          "midi": 50,
          "name": "D3",
          "ticks": 166560,
          "time": 138.8,
          "velocity": 0.8267716535433071
        },
        {
          "duration": 0.19666666666668675,
          "durationTicks": 236,
          "midi": 50,
          "name": "D3",
          "ticks": 166800,
          "time": 139,
          "velocity": 0.8267716535433071
        },
        {
          "duration": 0.19666666666665833,
          "durationTicks": 236,
          "midi": 50,
          "name": "D3",
          "ticks": 167040,
          "time": 139.20000000000002,
          "velocity": 0.8267716535433071
        },
        {
          "duration": 0.19666666666665833,
          "durationTicks": 236,
          "midi": 50,
          "name": "D3",
          "ticks": 167280,
          "time": 139.4,
          "velocity": 0.8267716535433071
        },
        {
          "duration": 0.19666666666668675,
          "durationTicks": 236,
          "midi": 50,
          "name": "D3",
          "ticks": 167520,
          "time": 139.6,
          "velocity": 0.8267716535433071
        },
        {
          "duration": 0.19666666666665833,
          "durationTicks": 236,
          "midi": 50,
          "name": "D3",
          "ticks": 167760,
          "time": 139.8,
          "velocity": 0.8267716535433071
        },
        {
          "duration": 0.19666666666668675,
          "durationTicks": 236,
          "midi": 50,
          "name": "D3",
          "ticks": 168000,
          "time": 140,
          "velocity": 0.8267716535433071
        },
        {
          "duration": 0.19666666666665833,
          "durationTicks": 236,
          "midi": 50,
          "name": "D3",
          "ticks": 168240,
          "time": 140.20000000000002,
          "velocity": 0.8267716535433071
        },
        {
          "duration": 0.19666666666665833,
          "durationTicks": 236,
          "midi": 50,
          "name": "D3",
          "ticks": 168480,
          "time": 140.4,
          "velocity": 0.8267716535433071
        },
        {
          "duration": 0.19666666666668675,
          "durationTicks": 236,
          "midi": 50,
          "name": "D3",
          "ticks": 168720,
          "time": 140.6,
          "velocity": 0.8267716535433071
        },
        {
          "duration": 0.19999999999998863,
          "durationTicks": 240,
          "midi": 55,
          "name": "G3",
          "ticks": 168960,
          "time": 140.8,
          "velocity": 0.8267716535433071
        },
        {
          "duration": 0.5333333333333314,
          "durationTicks": 640,
          "midi": 59,
          "name": "B3",
          "ticks": 168960,
          "time": 140.8,
          "velocity": 0.8267716535433071
        },
        {
          "duration": 0.20000000000001705,
          "durationTicks": 240,
          "midi": 55,
          "name": "G3",
          "ticks": 169200,
          "time": 141,
          "velocity": 0.8267716535433071
        },
        {
          "duration": 0.19999999999998863,
          "durationTicks": 240,
          "midi": 55,
          "name": "G3",
          "ticks": 169440,
          "time": 141.20000000000002,
          "velocity": 0.8267716535433071
        },
        {
          "duration": 0.19666666666665833,
          "durationTicks": 236,
          "midi": 55,
          "name": "G3",
          "ticks": 169680,
          "time": 141.4,
          "velocity": 0.8267716535433071
        },
        {
          "duration": 0.19666666666665833,
          "durationTicks": 236,
          "midi": 57,
          "name": "A3",
          "ticks": 169680,
          "time": 141.4,
          "velocity": 0.8267716535433071
        },
        {
          "duration": 0.20000000000001705,
          "durationTicks": 240,
          "midi": 55,
          "name": "G3",
          "ticks": 169920,
          "time": 141.6,
          "velocity": 0.8267716535433071
        },
        {
          "duration": 0.29666666666668107,
          "durationTicks": 356,
          "midi": 60,
          "name": "C4",
          "ticks": 169920,
          "time": 141.6,
          "velocity": 0.8267716535433071
        },
        {
          "duration": 0.19999999999998863,
          "durationTicks": 240,
          "midi": 55,
          "name": "G3",
          "ticks": 170160,
          "time": 141.8,
          "velocity": 0.8267716535433071
        },
        {
          "duration": 0.09666666666666401,
          "durationTicks": 116,
          "midi": 59,
          "name": "B3",
          "ticks": 170400,
          "time": 142,
          "velocity": 0.8267716535433071
        },
        {
          "duration": 0.20000000000001705,
          "durationTicks": 240,
          "midi": 55,
          "name": "G3",
          "ticks": 170520,
          "time": 142.1,
          "velocity": 0.8267716535433071
        },
        {
          "duration": 0.29666666666668107,
          "durationTicks": 356,
          "midi": 64,
          "name": "E4",
          "ticks": 170520,
          "time": 142.1,
          "velocity": 0.8267716535433071
        },
        {
          "duration": 0.19666666666665833,
          "durationTicks": 236,
          "midi": 55,
          "name": "G3",
          "ticks": 170760,
          "time": 142.3,
          "velocity": 0.8267716535433071
        },
        {
          "duration": 0.09666666666666401,
          "durationTicks": 116,
          "midi": 62,
          "name": "D4",
          "ticks": 170760,
          "time": 142.3,
          "velocity": 0.8267716535433071
        },
        {
          "duration": 0.19999999999998863,
          "durationTicks": 240,
          "midi": 55,
          "name": "G3",
          "ticks": 170880,
          "time": 142.4,
          "velocity": 0.8267716535433071
        },
        {
          "duration": 0.5333333333333314,
          "durationTicks": 640,
          "midi": 60,
          "name": "C4",
          "ticks": 170880,
          "time": 142.4,
          "velocity": 0.8267716535433071
        },
        {
          "duration": 0.20000000000001705,
          "durationTicks": 240,
          "midi": 55,
          "name": "G3",
          "ticks": 171120,
          "time": 142.6,
          "velocity": 0.8267716535433071
        },
        {
          "duration": 0.19999999999998863,
          "durationTicks": 240,
          "midi": 55,
          "name": "G3",
          "ticks": 171360,
          "time": 142.8,
          "velocity": 0.8267716535433071
        },
        {
          "duration": 0.19666666666668675,
          "durationTicks": 236,
          "midi": 55,
          "name": "G3",
          "ticks": 171600,
          "time": 143,
          "velocity": 0.8267716535433071
        },
        {
          "duration": 0.19666666666668675,
          "durationTicks": 236,
          "midi": 59,
          "name": "B3",
          "ticks": 171600,
          "time": 143,
          "velocity": 0.8267716535433071
        },
        {
          "duration": 0.19999999999998863,
          "durationTicks": 240,
          "midi": 55,
          "name": "G3",
          "ticks": 171840,
          "time": 143.20000000000002,
          "velocity": 0.8267716535433071
        },
        {
          "duration": 0.29666666666665265,
          "durationTicks": 356,
          "midi": 62,
          "name": "D4",
          "ticks": 171840,
          "time": 143.20000000000002,
          "velocity": 0.8267716535433071
        },
        {
          "duration": 0.19999999999998863,
          "durationTicks": 240,
          "midi": 55,
          "name": "G3",
          "ticks": 172080,
          "time": 143.4,
          "velocity": 0.8267716535433071
        },
        {
          "duration": 0.09666666666669244,
          "durationTicks": 116,
          "midi": 60,
          "name": "C4",
          "ticks": 172320,
          "time": 143.6,
          "velocity": 0.8267716535433071
        },
        {
          "duration": 0.19999999999998863,
          "durationTicks": 240,
          "midi": 55,
          "name": "G3",
          "ticks": 172440,
          "time": 143.70000000000002,
          "velocity": 0.8267716535433071
        },
        {
          "duration": 0.29666666666665265,
          "durationTicks": 356,
          "midi": 65,
          "name": "F4",
          "ticks": 172440,
          "time": 143.70000000000002,
          "velocity": 0.8267716535433071
        },
        {
          "duration": 0.19666666666665833,
          "durationTicks": 236,
          "midi": 55,
          "name": "G3",
          "ticks": 172680,
          "time": 143.9,
          "velocity": 0.8267716535433071
        },
        {
          "duration": 0.09666666666666401,
          "durationTicks": 116,
          "midi": 64,
          "name": "E4",
          "ticks": 172680,
          "time": 143.9,
          "velocity": 0.8267716535433071
        },
        {
          "duration": 0.20000000000001705,
          "durationTicks": 240,
          "midi": 55,
          "name": "G3",
          "ticks": 172800,
          "time": 144,
          "velocity": 0.8267716535433071
        },
        {
          "duration": 0.5333333333333314,
          "durationTicks": 640,
          "midi": 62,
          "name": "D4",
          "ticks": 172800,
          "time": 144,
          "velocity": 0.8267716535433071
        },
        {
          "duration": 0.19999999999998863,
          "durationTicks": 240,
          "midi": 55,
          "name": "G3",
          "ticks": 173040,
          "time": 144.20000000000002,
          "velocity": 0.8267716535433071
        },
        {
          "duration": 0.19999999999998863,
          "durationTicks": 240,
          "midi": 55,
          "name": "G3",
          "ticks": 173280,
          "time": 144.4,
          "velocity": 0.8267716535433071
        },
        {
          "duration": 0.19666666666668675,
          "durationTicks": 236,
          "midi": 55,
          "name": "G3",
          "ticks": 173520,
          "time": 144.6,
          "velocity": 0.8267716535433071
        },
        {
          "duration": 0.19666666666668675,
          "durationTicks": 236,
          "midi": 61,
          "name": "C#4",
          "ticks": 173520,
          "time": 144.6,
          "velocity": 0.8267716535433071
        },
        {
          "duration": 0.19999999999998863,
          "durationTicks": 240,
          "midi": 55,
          "name": "G3",
          "ticks": 173760,
          "time": 144.8,
          "velocity": 0.8267716535433071
        },
        {
          "duration": 0.29666666666665265,
          "durationTicks": 356,
          "midi": 64,
          "name": "E4",
          "ticks": 173760,
          "time": 144.8,
          "velocity": 0.8267716535433071
        },
        {
          "duration": 0.20000000000001705,
          "durationTicks": 240,
          "midi": 55,
          "name": "G3",
          "ticks": 174000,
          "time": 145,
          "velocity": 0.8267716535433071
        },
        {
          "duration": 0.09666666666666401,
          "durationTicks": 116,
          "midi": 62,
          "name": "D4",
          "ticks": 174240,
          "time": 145.20000000000002,
          "velocity": 0.8267716535433071
        },
        {
          "duration": 0.19999999999998863,
          "durationTicks": 240,
          "midi": 55,
          "name": "G3",
          "ticks": 174360,
          "time": 145.3,
          "velocity": 0.8267716535433071
        },
        {
          "duration": 0.29666666666665265,
          "durationTicks": 356,
          "midi": 67,
          "name": "G4",
          "ticks": 174360,
          "time": 145.3,
          "velocity": 0.8267716535433071
        },
        {
          "duration": 0.19666666666668675,
          "durationTicks": 236,
          "midi": 55,
          "name": "G3",
          "ticks": 174600,
          "time": 145.5,
          "velocity": 0.8267716535433071
        },
        {
          "duration": 0.09666666666666401,
          "durationTicks": 116,
          "midi": 65,
          "name": "F4",
          "ticks": 174600,
          "time": 145.5,
          "velocity": 0.8267716535433071
        },
        {
          "duration": 0.19666666666668675,
          "durationTicks": 236,
          "midi": 55,
          "name": "G3",
          "ticks": 174720,
          "time": 145.6,
          "velocity": 0.6771653543307087
        },
        {
          "duration": 0.5333333333333314,
          "durationTicks": 640,
          "midi": 64,
          "name": "E4",
          "ticks": 174720,
          "time": 145.6,
          "velocity": 0.6771653543307087
        },
        {
          "duration": 0.19666666666665833,
          "durationTicks": 236,
          "midi": 55,
          "name": "G3",
          "ticks": 174960,
          "time": 145.8,
          "velocity": 0.6771653543307087
        },
        {
          "duration": 0.19666666666668675,
          "durationTicks": 236,
          "midi": 55,
          "name": "G3",
          "ticks": 175200,
          "time": 146,
          "velocity": 0.6771653543307087
        },
        {
          "duration": 0.19666666666665833,
          "durationTicks": 236,
          "midi": 55,
          "name": "G3",
          "ticks": 175440,
          "time": 146.20000000000002,
          "velocity": 0.6771653543307087
        },
        {
          "duration": 0.19666666666665833,
          "durationTicks": 236,
          "midi": 64,
          "name": "E4",
          "ticks": 175440,
          "time": 146.20000000000002,
          "velocity": 0.6771653543307087
        },
        {
          "duration": 0.19666666666665833,
          "durationTicks": 236,
          "midi": 55,
          "name": "G3",
          "ticks": 175680,
          "time": 146.4,
          "velocity": 0.6771653543307087
        },
        {
          "duration": 0.5333333333333314,
          "durationTicks": 640,
          "midi": 62,
          "name": "D4",
          "ticks": 175680,
          "time": 146.4,
          "velocity": 0.6771653543307087
        },
        {
          "duration": 0.19666666666668675,
          "durationTicks": 236,
          "midi": 55,
          "name": "G3",
          "ticks": 175920,
          "time": 146.6,
          "velocity": 0.6771653543307087
        },
        {
          "duration": 0.19666666666665833,
          "durationTicks": 236,
          "midi": 55,
          "name": "G3",
          "ticks": 176160,
          "time": 146.8,
          "velocity": 0.6771653543307087
        },
        {
          "duration": 0.19666666666668675,
          "durationTicks": 236,
          "midi": 55,
          "name": "G3",
          "ticks": 176400,
          "time": 147,
          "velocity": 0.6771653543307087
        },
        {
          "duration": 0.19666666666668675,
          "durationTicks": 236,
          "midi": 62,
          "name": "D4",
          "ticks": 176400,
          "time": 147,
          "velocity": 0.6771653543307087
        },
        {
          "duration": 0.19666666666665833,
          "durationTicks": 236,
          "midi": 48,
          "name": "C3",
          "ticks": 176640,
          "time": 147.20000000000002,
          "velocity": 0.6771653543307087
        },
        {
          "duration": 0.19666666666665833,
          "durationTicks": 236,
          "midi": 60,
          "name": "C4",
          "ticks": 176640,
          "time": 147.20000000000002,
          "velocity": 0.6771653543307087
        },
        {
          "duration": 0.19666666666665833,
          "durationTicks": 236,
          "midi": 48,
          "name": "C3",
          "ticks": 176880,
          "time": 147.4,
          "velocity": 0.6771653543307087
        },
        {
          "duration": 0.19666666666665833,
          "durationTicks": 236,
          "midi": 60,
          "name": "C4",
          "ticks": 176880,
          "time": 147.4,
          "velocity": 0.6771653543307087
        },
        {
          "duration": 0.19666666666668675,
          "durationTicks": 236,
          "midi": 48,
          "name": "C3",
          "ticks": 177120,
          "time": 147.6,
          "velocity": 0.6771653543307087
        },
        {
          "duration": 0.19666666666668675,
          "durationTicks": 236,
          "midi": 60,
          "name": "C4",
          "ticks": 177120,
          "time": 147.6,
          "velocity": 0.6771653543307087
        },
        {
          "duration": 0.19666666666665833,
          "durationTicks": 236,
          "midi": 48,
          "name": "C3",
          "ticks": 177360,
          "time": 147.8,
          "velocity": 0.6771653543307087
        },
        {
          "duration": 0.19666666666665833,
          "durationTicks": 236,
          "midi": 60,
          "name": "C4",
          "ticks": 177360,
          "time": 147.8,
          "velocity": 0.6771653543307087
        },
        {
          "duration": 0.19666666666668675,
          "durationTicks": 236,
          "midi": 50,
          "name": "D3",
          "ticks": 177600,
          "time": 148,
          "velocity": 0.6771653543307087
        },
        {
          "duration": 0.19666666666668675,
          "durationTicks": 236,
          "midi": 62,
          "name": "D4",
          "ticks": 177600,
          "time": 148,
          "velocity": 0.6771653543307087
        },
        {
          "duration": 0.19666666666665833,
          "durationTicks": 236,
          "midi": 50,
          "name": "D3",
          "ticks": 177840,
          "time": 148.20000000000002,
          "velocity": 0.6771653543307087
        },
        {
          "duration": 0.19666666666665833,
          "durationTicks": 236,
          "midi": 62,
          "name": "D4",
          "ticks": 177840,
          "time": 148.20000000000002,
          "velocity": 0.6771653543307087
        },
        {
          "duration": 0.19666666666665833,
          "durationTicks": 236,
          "midi": 50,
          "name": "D3",
          "ticks": 178080,
          "time": 148.4,
          "velocity": 0.6771653543307087
        },
        {
          "duration": 0.19666666666665833,
          "durationTicks": 236,
          "midi": 62,
          "name": "D4",
          "ticks": 178080,
          "time": 148.4,
          "velocity": 0.6771653543307087
        },
        {
          "duration": 0.19666666666668675,
          "durationTicks": 236,
          "midi": 50,
          "name": "D3",
          "ticks": 178320,
          "time": 148.6,
          "velocity": 0.6771653543307087
        },
        {
          "duration": 0.19666666666668675,
          "durationTicks": 236,
          "midi": 62,
          "name": "D4",
          "ticks": 178320,
          "time": 148.6,
          "velocity": 0.6771653543307087
        },
        {
          "duration": 0.5999999999999943,
          "durationTicks": 720,
          "midi": 55,
          "name": "G3",
          "ticks": 178560,
          "time": 148.8,
          "velocity": 0.6771653543307087
        },
        {
          "duration": 0.19666666666665833,
          "durationTicks": 236,
          "midi": 54,
          "name": "F#3",
          "ticks": 179280,
          "time": 149.4,
          "velocity": 0.6771653543307087
        },
        {
          "duration": 0.30000000000001137,
          "durationTicks": 360,
          "midi": 57,
          "name": "A3",
          "ticks": 179520,
          "time": 149.6,
          "velocity": 0.6771653543307087
        },
        {
          "duration": 0.09666666666666401,
          "durationTicks": 116,
          "midi": 55,
          "name": "G3",
          "ticks": 179880,
          "time": 149.9,
          "velocity": 0.6771653543307087
        },
        {
          "duration": 0.30000000000001137,
          "durationTicks": 360,
          "midi": 60,
          "name": "C4",
          "ticks": 180000,
          "time": 150,
          "velocity": 0.6771653543307087
        },
        {
          "duration": 0.09666666666666401,
          "durationTicks": 116,
          "midi": 59,
          "name": "B3",
          "ticks": 180360,
          "time": 150.3,
          "velocity": 0.6771653543307087
        },
        {
          "duration": 0.5999999999999943,
          "durationTicks": 720,
          "midi": 57,
          "name": "A3",
          "ticks": 180480,
          "time": 150.4,
          "velocity": 0.6771653543307087
        },
        {
          "duration": 0.19666666666668675,
          "durationTicks": 236,
          "midi": 56,
          "name": "G#3",
          "ticks": 181200,
          "time": 151,
          "velocity": 0.6771653543307087
        },
        {
          "duration": 0.29999999999998295,
          "durationTicks": 360,
          "midi": 59,
          "name": "B3",
          "ticks": 181440,
          "time": 151.20000000000002,
          "velocity": 0.6771653543307087
        },
        {
          "duration": 0.09666666666666401,
          "durationTicks": 116,
          "midi": 57,
          "name": "A3",
          "ticks": 181800,
          "time": 151.5,
          "velocity": 0.6771653543307087
        },
        {
          "duration": 0.30000000000001137,
          "durationTicks": 360,
          "midi": 62,
          "name": "D4",
          "ticks": 181920,
          "time": 151.6,
          "velocity": 0.6771653543307087
        },
        {
          "duration": 0.09666666666666401,
          "durationTicks": 116,
          "midi": 60,
          "name": "C4",
          "ticks": 182280,
          "time": 151.9,
          "velocity": 0.6771653543307087
        },
        {
          "duration": 0.5999999999999943,
          "durationTicks": 720,
          "midi": 59,
          "name": "B3",
          "ticks": 182400,
          "time": 152,
          "velocity": 0.6771653543307087
        },
        {
          "duration": 0.19666666666668675,
          "durationTicks": 236,
          "midi": 58,
          "name": "A#3",
          "ticks": 183120,
          "time": 152.6,
          "velocity": 0.6771653543307087
        },
        {
          "duration": 0.29999999999998295,
          "durationTicks": 360,
          "midi": 60,
          "name": "C4",
          "ticks": 183360,
          "time": 152.8,
          "velocity": 0.6771653543307087
        },
        {
          "duration": 0.09666666666669244,
          "durationTicks": 116,
          "midi": 59,
          "name": "B3",
          "ticks": 183720,
          "time": 153.1,
          "velocity": 0.6771653543307087
        },
        {
          "duration": 0.29999999999998295,
          "durationTicks": 360,
          "midi": 64,
          "name": "E4",
          "ticks": 183840,
          "time": 153.20000000000002,
          "velocity": 0.6771653543307087
        },
        {
          "duration": 0.09666666666666401,
          "durationTicks": 116,
          "midi": 62,
          "name": "D4",
          "ticks": 184200,
          "time": 153.5,
          "velocity": 0.6771653543307087
        },
        {
          "duration": 0.3333333333333144,
          "durationTicks": 400,
          "midi": 60,
          "name": "C4",
          "ticks": 184320,
          "time": 153.60000000000002,
          "velocity": 0.6771653543307087
        },
        {
          "duration": 0.3333333333333428,
          "durationTicks": 400,
          "midi": 62,
          "name": "D4",
          "ticks": 184800,
          "time": 154,
          "velocity": 0.6771653543307087
        },
        {
          "duration": 0.3333333333333428,
          "durationTicks": 400,
          "midi": 60,
          "name": "C4",
          "ticks": 185280,
          "time": 154.4,
          "velocity": 0.6771653543307087
        },
        {
          "duration": 0.3333333333333144,
          "durationTicks": 400,
          "midi": 56,
          "name": "G#3",
          "ticks": 185760,
          "time": 154.8,
          "velocity": 0.6771653543307087
        },
        {
          "duration": 0.19666666666665833,
          "durationTicks": 236,
          "midi": 57,
          "name": "A3",
          "ticks": 186240,
          "time": 155.20000000000002,
          "velocity": 0.6771653543307087
        },
        {
          "duration": 0.19666666666668675,
          "durationTicks": 236,
          "midi": 57,
          "name": "A3",
          "ticks": 186480,
          "time": 155.4,
          "velocity": 0.6771653543307087
        },
        {
          "duration": 0.19666666666665833,
          "durationTicks": 236,
          "midi": 55,
          "name": "G3",
          "ticks": 186720,
          "time": 155.60000000000002,
          "velocity": 0.6771653543307087
        },
        {
          "duration": 0.19666666666665833,
          "durationTicks": 236,
          "midi": 55,
          "name": "G3",
          "ticks": 186960,
          "time": 155.8,
          "velocity": 0.6771653543307087
        },
        {
          "duration": 0.19666666666668675,
          "durationTicks": 236,
          "midi": 54,
          "name": "F#3",
          "ticks": 187200,
          "time": 156,
          "velocity": 0.6771653543307087
        },
        {
          "duration": 0.19666666666665833,
          "durationTicks": 236,
          "midi": 54,
          "name": "F#3",
          "ticks": 187440,
          "time": 156.20000000000002,
          "velocity": 0.6771653543307087
        },
        {
          "duration": 0.19666666666668675,
          "durationTicks": 236,
          "midi": 55,
          "name": "G3",
          "ticks": 187680,
          "time": 156.4,
          "velocity": 0.6771653543307087
        },
        {
          "duration": 0.19666666666665833,
          "durationTicks": 236,
          "midi": 55,
          "name": "G3",
          "ticks": 187920,
          "time": 156.60000000000002,
          "velocity": 0.6771653543307087
        },
        {
          "duration": 0.3333333333333144,
          "durationTicks": 400,
          "midi": 54,
          "name": "F#3",
          "ticks": 188160,
          "time": 156.8,
          "velocity": 0.6771653543307087
        },
        {
          "duration": 0.20000000000001705,
          "durationTicks": 240,
          "midi": 59,
          "name": "B3",
          "ticks": 211680,
          "time": 176.4,
          "velocity": 0.8267716535433071
        },
        {
          "duration": 0.19999999999998863,
          "durationTicks": 240,
          "midi": 58,
          "name": "A#3",
          "ticks": 211920,
          "time": 176.60000000000002,
          "velocity": 0.8267716535433071
        },
        {
          "duration": 0.19999999999998863,
          "durationTicks": 240,
          "midi": 59,
          "name": "B3",
          "ticks": 212160,
          "time": 176.8,
          "velocity": 0.8267716535433071
        },
        {
          "duration": 0.20000000000001705,
          "durationTicks": 240,
          "midi": 58,
          "name": "A#3",
          "ticks": 212400,
          "time": 177,
          "velocity": 0.8267716535433071
        },
        {
          "duration": 0.19999999999998863,
          "durationTicks": 240,
          "midi": 59,
          "name": "B3",
          "ticks": 212640,
          "time": 177.20000000000002,
          "velocity": 0.8267716535433071
        },
        {
          "duration": 0.19666666666668675,
          "durationTicks": 236,
          "midi": 56,
          "name": "G#3",
          "ticks": 212880,
          "time": 177.4,
          "velocity": 0.8267716535433071
        },
        {
          "duration": 0.19666666666665833,
          "durationTicks": 236,
          "midi": 57,
          "name": "A3",
          "ticks": 213120,
          "time": 177.60000000000002,
          "velocity": 0.8267716535433071
        },
        {
          "duration": 0.20000000000001705,
          "durationTicks": 240,
          "midi": 57,
          "name": "A3",
          "ticks": 213600,
          "time": 178,
          "velocity": 0.8267716535433071
        },
        {
          "duration": 0.19999999999998863,
          "durationTicks": 240,
          "midi": 56,
          "name": "G#3",
          "ticks": 213840,
          "time": 178.20000000000002,
          "velocity": 0.8267716535433071
        },
        {
          "duration": 0.20000000000001705,
          "durationTicks": 240,
          "midi": 57,
          "name": "A3",
          "ticks": 214080,
          "time": 178.4,
          "velocity": 0.8267716535433071
        },
        {
          "duration": 0.19999999999998863,
          "durationTicks": 240,
          "midi": 56,
          "name": "G#3",
          "ticks": 214320,
          "time": 178.60000000000002,
          "velocity": 0.8267716535433071
        },
        {
          "duration": 0.19999999999998863,
          "durationTicks": 240,
          "midi": 57,
          "name": "A3",
          "ticks": 214560,
          "time": 178.8,
          "velocity": 0.8267716535433071
        },
        {
          "duration": 0.19666666666668675,
          "durationTicks": 236,
          "midi": 54,
          "name": "F#3",
          "ticks": 214800,
          "time": 179,
          "velocity": 0.8267716535433071
        },
        {
          "duration": 0.19666666666665833,
          "durationTicks": 236,
          "midi": 55,
          "name": "G3",
          "ticks": 215040,
          "time": 179.20000000000002,
          "velocity": 0.8267716535433071
        },
        {
          "duration": 0.19666666666665833,
          "durationTicks": 236,
          "midi": 52,
          "name": "E3",
          "ticks": 215520,
          "time": 179.60000000000002,
          "velocity": 0.8267716535433071
        },
        {
          "duration": 0.19666666666665833,
          "durationTicks": 236,
          "midi": 52,
          "name": "E3",
          "ticks": 215760,
          "time": 179.8,
          "velocity": 0.8267716535433071
        },
        {
          "duration": 0.19666666666668675,
          "durationTicks": 236,
          "midi": 48,
          "name": "C3",
          "ticks": 216000,
          "time": 180,
          "velocity": 0.8267716535433071
        },
        {
          "duration": 0.19666666666665833,
          "durationTicks": 236,
          "midi": 48,
          "name": "C3",
          "ticks": 216240,
          "time": 180.20000000000002,
          "velocity": 0.8267716535433071
        },
        {
          "duration": 0.19666666666668675,
          "durationTicks": 236,
          "midi": 50,
          "name": "D3",
          "ticks": 216480,
          "time": 180.4,
          "velocity": 0.8267716535433071
        },
        {
          "duration": 0.19666666666665833,
          "durationTicks": 236,
          "midi": 50,
          "name": "D3",
          "ticks": 216720,
          "time": 180.60000000000002,
          "velocity": 0.8267716535433071
        },
        {
          "duration": 0.19666666666665833,
          "durationTicks": 236,
          "midi": 55,
          "name": "G3",
          "ticks": 216960,
          "time": 180.8,
          "velocity": 0.8267716535433071
        },
        {
          "duration": 0.19999999999998863,
          "durationTicks": 240,
          "midi": 59,
          "name": "B3",
          "ticks": 217440,
          "time": 181.20000000000002,
          "velocity": 0.8267716535433071
        },
        {
          "duration": 0.20000000000001705,
          "durationTicks": 240,
          "midi": 58,
          "name": "A#3",
          "ticks": 217680,
          "time": 181.4,
          "velocity": 0.8267716535433071
        },
        {
          "duration": 0.19999999999998863,
          "durationTicks": 240,
          "midi": 59,
          "name": "B3",
          "ticks": 217920,
          "time": 181.60000000000002,
          "velocity": 0.8267716535433071
        },
        {
          "duration": 0.19999999999998863,
          "durationTicks": 240,
          "midi": 58,
          "name": "A#3",
          "ticks": 218160,
          "time": 181.8,
          "velocity": 0.8267716535433071
        },
        {
          "duration": 0.20000000000001705,
          "durationTicks": 240,
          "midi": 59,
          "name": "B3",
          "ticks": 218400,
          "time": 182,
          "velocity": 0.8267716535433071
        },
        {
          "duration": 0.19666666666665833,
          "durationTicks": 236,
          "midi": 56,
          "name": "G#3",
          "ticks": 218640,
          "time": 182.20000000000002,
          "velocity": 0.8267716535433071
        },
        {
          "duration": 0.19666666666668675,
          "durationTicks": 236,
          "midi": 57,
          "name": "A3",
          "ticks": 218880,
          "time": 182.4,
          "velocity": 0.8267716535433071
        },
        {
          "duration": 0.19999999999998863,
          "durationTicks": 240,
          "midi": 57,
          "name": "A3",
          "ticks": 219360,
          "time": 182.8,
          "velocity": 0.8267716535433071
        },
        {
          "duration": 0.20000000000001705,
          "durationTicks": 240,
          "midi": 56,
          "name": "G#3",
          "ticks": 219600,
          "time": 183,
          "velocity": 0.8267716535433071
        },
        {
          "duration": 0.19999999999998863,
          "durationTicks": 240,
          "midi": 57,
          "name": "A3",
          "ticks": 219840,
          "time": 183.20000000000002,
          "velocity": 0.8267716535433071
        },
        {
          "duration": 0.20000000000001705,
          "durationTicks": 240,
          "midi": 56,
          "name": "G#3",
          "ticks": 220080,
          "time": 183.4,
          "velocity": 0.8267716535433071
        },
        {
          "duration": 0.19999999999998863,
          "durationTicks": 240,
          "midi": 57,
          "name": "A3",
          "ticks": 220320,
          "time": 183.60000000000002,
          "velocity": 0.8267716535433071
        },
        {
          "duration": 0.19666666666665833,
          "durationTicks": 236,
          "midi": 54,
          "name": "F#3",
          "ticks": 220560,
          "time": 183.8,
          "velocity": 0.8267716535433071
        },
        {
          "duration": 0.19666666666668675,
          "durationTicks": 236,
          "midi": 55,
          "name": "G3",
          "ticks": 220800,
          "time": 184,
          "velocity": 0.8267716535433071
        },
        {
          "duration": 0.19666666666668675,
          "durationTicks": 236,
          "midi": 52,
          "name": "E3",
          "ticks": 221280,
          "time": 184.4,
          "velocity": 0.8267716535433071
        },
        {
          "duration": 0.19666666666665833,
          "durationTicks": 236,
          "midi": 52,
          "name": "E3",
          "ticks": 221520,
          "time": 184.60000000000002,
          "velocity": 0.8267716535433071
        },
        {
          "duration": 0.19666666666665833,
          "durationTicks": 236,
          "midi": 48,
          "name": "C3",
          "ticks": 221760,
          "time": 184.8,
          "velocity": 0.8267716535433071
        },
        {
          "duration": 0.19666666666668675,
          "durationTicks": 236,
          "midi": 48,
          "name": "C3",
          "ticks": 222000,
          "time": 185,
          "velocity": 0.8267716535433071
        },
        {
          "duration": 0.19666666666665833,
          "durationTicks": 236,
          "midi": 50,
          "name": "D3",
          "ticks": 222240,
          "time": 185.20000000000002,
          "velocity": 0.8267716535433071
        },
        {
          "duration": 0.19666666666668675,
          "durationTicks": 236,
          "midi": 50,
          "name": "D3",
          "ticks": 222480,
          "time": 185.4,
          "velocity": 0.8267716535433071
        },
        {
          "duration": 0.3333333333333144,
          "durationTicks": 400,
          "midi": 55,
          "name": "G3",
          "ticks": 222720,
          "time": 185.60000000000002,
          "velocity": 0.8267716535433071
        },
        {
          "duration": 0.3333333333333428,
          "durationTicks": 400,
          "midi": 55,
          "name": "G3",
          "ticks": 223200,
          "time": 186,
          "velocity": 0.8267716535433071
        },
        {
          "duration": 0.3333333333333144,
          "durationTicks": 400,
          "midi": 50,
          "name": "D3",
          "ticks": 224160,
          "time": 186.8,
          "velocity": 0.8267716535433071
        },
        {
          "duration": 0.3333333333333144,
          "durationTicks": 400,
          "midi": 55,
          "name": "G3",
          "ticks": 225120,
          "time": 187.60000000000002,
          "velocity": 0.8267716535433071
        },
        {
          "duration": 0.3333333333333428,
          "durationTicks": 400,
          "midi": 50,
          "name": "D3",
          "ticks": 226080,
          "time": 188.4,
          "velocity": 0.8267716535433071
        },
        {
          "duration": 0.3333333333333144,
          "durationTicks": 400,
          "midi": 55,
          "name": "G3",
          "ticks": 227040,
          "time": 189.20000000000002,
          "velocity": 0.8267716535433071
        },
        {
          "duration": 0.3333333333333428,
          "durationTicks": 400,
          "midi": 50,
          "name": "D3",
          "ticks": 228000,
          "time": 190,
          "velocity": 0.8267716535433071
        },
        {
          "duration": 0.3333333333333428,
          "durationTicks": 400,
          "midi": 55,
          "name": "G3",
          "ticks": 228480,
          "time": 190.4,
          "velocity": 0.8267716535433071
        },
        {
          "duration": 0.3333333333333144,
          "durationTicks": 400,
          "midi": 55,
          "name": "G3",
          "ticks": 228960,
          "time": 190.8,
          "velocity": 0.8267716535433071
        },
        {
          "duration": 0.3333333333333144,
          "durationTicks": 400,
          "midi": 43,
          "name": "G2",
          "ticks": 229440,
          "time": 191.20000000000002,
          "velocity": 0.8267716535433071
        },
        {
          "duration": 0.3333333333333428,
          "durationTicks": 400,
          "midi": 48,
          "name": "C3",
          "ticks": 230400,
          "time": 192,
          "velocity": 0.8267716535433071
        },
        {
          "duration": 0.06666666666666288,
          "durationTicks": 80,
          "midi": 43,
          "name": "G2",
          "ticks": 231120,
          "time": 192.60000000000002,
          "velocity": 0.8267716535433071
        },
        {
          "duration": 0.06666666666666288,
          "durationTicks": 80,
          "midi": 45,
          "name": "A2",
          "ticks": 231200,
          "time": 192.66666666666669,
          "velocity": 0.8267716535433071
        },
        {
          "duration": 0.06666666666666288,
          "durationTicks": 80,
          "midi": 47,
          "name": "B2",
          "ticks": 231280,
          "time": 192.73333333333335,
          "velocity": 0.8267716535433071
        },
        {
          "duration": 0.3333333333333144,
          "durationTicks": 400,
          "midi": 48,
          "name": "C3",
          "ticks": 231360,
          "time": 192.8,
          "velocity": 0.8267716535433071
        },
        {
          "duration": 0.0666666666666913,
          "durationTicks": 80,
          "midi": 43,
          "name": "G2",
          "ticks": 232080,
          "time": 193.4,
          "velocity": 0.8267716535433071
        },
        {
          "duration": 0.06666666666663446,
          "durationTicks": 80,
          "midi": 45,
          "name": "A2",
          "ticks": 232160,
          "time": 193.4666666666667,
          "velocity": 0.8267716535433071
        },
        {
          "duration": 0.0666666666666913,
          "durationTicks": 80,
          "midi": 47,
          "name": "B2",
          "ticks": 232240,
          "time": 193.53333333333333,
          "velocity": 0.8267716535433071
        },
        {
          "duration": 0.3333333333333144,
          "durationTicks": 400,
          "midi": 48,
          "name": "C3",
          "ticks": 232320,
          "time": 193.60000000000002,
          "velocity": 0.8267716535433071
        },
        {
          "duration": 0.799999999999983,
          "durationTicks": 960,
          "midi": 62,
          "name": "D4",
          "ticks": 234240,
          "time": 195.20000000000002,
          "velocity": 0.4015748031496063
        },
        {
          "duration": 0.700000000000017,
          "durationTicks": 840,
          "midi": 60,
          "name": "C4",
          "ticks": 235200,
          "time": 196,
          "velocity": 0.4015748031496063
        },
        {
          "duration": 1.0999999999999943,
          "durationTicks": 1320,
          "midi": 59,
          "name": "B3",
          "ticks": 236160,
          "time": 196.8,
          "velocity": 0.4015748031496063
        },
        {
          "duration": 0.3333333333333428,
          "durationTicks": 400,
          "midi": 55,
          "name": "G3",
          "ticks": 238080,
          "time": 198.4,
          "velocity": 0.8267716535433071
        },
        {
          "duration": 0.0666666666666913,
          "durationTicks": 80,
          "midi": 50,
          "name": "D3",
          "ticks": 238800,
          "time": 199,
          "velocity": 0.8267716535433071
        },
        {
          "duration": 0.06666666666663446,
          "durationTicks": 80,
          "midi": 52,
          "name": "E3",
          "ticks": 238880,
          "time": 199.0666666666667,
          "velocity": 0.8267716535433071
        },
        {
          "duration": 0.0666666666666913,
          "durationTicks": 80,
          "midi": 54,
          "name": "F#3",
          "ticks": 238960,
          "time": 199.13333333333333,
          "velocity": 0.8267716535433071
        },
        {
          "duration": 0.3333333333333144,
          "durationTicks": 400,
          "midi": 55,
          "name": "G3",
          "ticks": 239040,
          "time": 199.20000000000002,
          "velocity": 0.8267716535433071
        },
        {
          "duration": 0.06666666666666288,
          "durationTicks": 80,
          "midi": 50,
          "name": "D3",
          "ticks": 239760,
          "time": 199.8,
          "velocity": 0.8267716535433071
        },
        {
          "duration": 0.06666666666666288,
          "durationTicks": 80,
          "midi": 52,
          "name": "E3",
          "ticks": 239840,
          "time": 199.86666666666667,
          "velocity": 0.8267716535433071
        },
        {
          "duration": 0.06666666666666288,
          "durationTicks": 80,
          "midi": 54,
          "name": "F#3",
          "ticks": 239920,
          "time": 199.93333333333334,
          "velocity": 0.8267716535433071
        },
        {
          "duration": 0.3333333333333428,
          "durationTicks": 400,
          "midi": 55,
          "name": "G3",
          "ticks": 240000,
          "time": 200,
          "velocity": 0.8267716535433071
        },
        {
          "duration": 0.799999999999983,
          "durationTicks": 960,
          "midi": 64,
          "name": "E4",
          "ticks": 241920,
          "time": 201.60000000000002,
          "velocity": 0.4015748031496063
        },
        {
          "duration": 0.700000000000017,
          "durationTicks": 840,
          "midi": 62,
          "name": "D4",
          "ticks": 242880,
          "time": 202.4,
          "velocity": 0.4015748031496063
        },
        {
          "duration": 1.0999999999999943,
          "durationTicks": 1320,
          "midi": 60,
          "name": "C4",
          "ticks": 243840,
          "time": 203.20000000000002,
          "velocity": 0.4015748031496063
        },
        {
          "duration": 0.3333333333333428,
          "durationTicks": 400,
          "midi": 48,
          "name": "C3",
          "ticks": 245760,
          "time": 204.8,
          "velocity": 0.8267716535433071
        },
        {
          "duration": 0.33333333333337123,
          "durationTicks": 400,
          "midi": 60,
          "name": "C4",
          "ticks": 247200,
          "time": 206,
          "velocity": 0.8267716535433071
        },
        {
          "duration": 0.3333333333333428,
          "durationTicks": 400,
          "midi": 48,
          "name": "C3",
          "ticks": 247680,
          "time": 206.4,
          "velocity": 0.8267716535433071
        },
        {
          "duration": 0.3333333333333428,
          "durationTicks": 400,
          "midi": 60,
          "name": "C4",
          "ticks": 249120,
          "time": 207.60000000000002,
          "velocity": 0.8267716535433071
        },
        {
          "duration": 0.33333333333337123,
          "durationTicks": 400,
          "midi": 48,
          "name": "C3",
          "ticks": 249600,
          "time": 208,
          "velocity": 0.8267716535433071
        },
        {
          "duration": 0.3333333333333428,
          "durationTicks": 400,
          "midi": 60,
          "name": "C4",
          "ticks": 251040,
          "time": 209.20000000000002,
          "velocity": 0.8267716535433071
        },
        {
          "duration": 0.3333333333333428,
          "durationTicks": 400,
          "midi": 48,
          "name": "C3",
          "ticks": 251520,
          "time": 209.60000000000002,
          "velocity": 0.8267716535433071
        },
        {
          "duration": 0.3333333333333428,
          "durationTicks": 400,
          "midi": 60,
          "name": "C4",
          "ticks": 252960,
          "time": 210.8,
          "velocity": 0.8267716535433071
        },
        {
          "duration": 0.3333333333333428,
          "durationTicks": 400,
          "midi": 48,
          "name": "C3",
          "ticks": 253440,
          "time": 211.20000000000002,
          "velocity": 0.8267716535433071
        },
        {
          "duration": 0.3333333333333428,
          "durationTicks": 400,
          "midi": 60,
          "name": "C4",
          "ticks": 254880,
          "time": 212.4,
          "velocity": 0.8267716535433071
        },
        {
          "duration": 0.3333333333333428,
          "durationTicks": 400,
          "midi": 48,
          "name": "C3",
          "ticks": 255360,
          "time": 212.8,
          "velocity": 0.8267716535433071
        },
        {
          "duration": 0.33333333333337123,
          "durationTicks": 400,
          "midi": 60,
          "name": "C4",
          "ticks": 256800,
          "time": 214,
          "velocity": 0.8267716535433071
        },
        {
          "duration": 0.3333333333333428,
          "durationTicks": 400,
          "midi": 48,
          "name": "C3",
          "ticks": 257280,
          "time": 214.4,
          "velocity": 0.8267716535433071
        },
        {
          "duration": 0.3333333333333428,
          "durationTicks": 400,
          "midi": 55,
          "name": "G3",
          "ticks": 258240,
          "time": 215.20000000000002,
          "velocity": 0.8267716535433071
        },
        {
          "duration": 0.33333333333337123,
          "durationTicks": 400,
          "midi": 60,
          "name": "C4",
          "ticks": 259200,
          "time": 216,
          "velocity": 0.8267716535433071
        },
        {
          "duration": 0.3333333333333428,
          "durationTicks": 400,
          "midi": 55,
          "name": "G3",
          "ticks": 260160,
          "time": 216.8,
          "velocity": 0.8267716535433071
        },
        {
          "duration": 0.3333333333333428,
          "durationTicks": 400,
          "midi": 48,
          "name": "C3",
          "ticks": 261120,
          "time": 217.60000000000002,
          "velocity": 0.8267716535433071
        },
        {
          "duration": 0.19666666666668675,
          "durationTicks": 236,
          "midi": 55,
          "name": "G3",
          "ticks": 261600,
          "time": 218,
          "velocity": 0.8267716535433071
        },
        {
          "duration": 0.19666666666665833,
          "durationTicks": 236,
          "midi": 55,
          "name": "G3",
          "ticks": 261840,
          "time": 218.20000000000002,
          "velocity": 0.8267716535433071
        },
        {
          "duration": 0.19666666666668675,
          "durationTicks": 236,
          "midi": 60,
          "name": "C4",
          "ticks": 262080,
          "time": 218.4,
          "velocity": 0.8267716535433071
        },
        {
          "duration": 0.19666666666665833,
          "durationTicks": 236,
          "midi": 60,
          "name": "C4",
          "ticks": 262320,
          "time": 218.60000000000002,
          "velocity": 0.8267716535433071
        },
        {
          "duration": 0.19666666666665833,
          "durationTicks": 236,
          "midi": 55,
          "name": "G3",
          "ticks": 262560,
          "time": 218.8,
          "velocity": 0.8267716535433071
        },
        {
          "duration": 0.19666666666668675,
          "durationTicks": 236,
          "midi": 55,
          "name": "G3",
          "ticks": 262800,
          "time": 219,
          "velocity": 0.8267716535433071
        },
        {
          "duration": 0.19666666666665833,
          "durationTicks": 236,
          "midi": 60,
          "name": "C4",
          "ticks": 263040,
          "time": 219.20000000000002,
          "velocity": 0.8267716535433071
        },
        {
          "duration": 0.19666666666668675,
          "durationTicks": 236,
          "midi": 60,
          "name": "C4",
          "ticks": 263280,
          "time": 219.4,
          "velocity": 0.8267716535433071
        },
        {
          "duration": 0.19666666666665833,
          "durationTicks": 236,
          "midi": 55,
          "name": "G3",
          "ticks": 263520,
          "time": 219.60000000000002,
          "velocity": 0.8267716535433071
        },
        {
          "duration": 0.19666666666665833,
          "durationTicks": 236,
          "midi": 55,
          "name": "G3",
          "ticks": 263760,
          "time": 219.8,
          "velocity": 0.8267716535433071
        },
        {
          "duration": 0.19666666666668675,
          "durationTicks": 236,
          "midi": 52,
          "name": "E3",
          "ticks": 264000,
          "time": 220,
          "velocity": 0.8267716535433071
        },
        {
          "duration": 0.19666666666665833,
          "durationTicks": 236,
          "midi": 52,
          "name": "E3",
          "ticks": 264240,
          "time": 220.20000000000002,
          "velocity": 0.8267716535433071
        },
        {
          "duration": 0.19666666666668675,
          "durationTicks": 236,
          "midi": 48,
          "name": "C3",
          "ticks": 264480,
          "time": 220.4,
          "velocity": 0.8267716535433071
        },
        {
          "duration": 0.19666666666665833,
          "durationTicks": 236,
          "midi": 48,
          "name": "C3",
          "ticks": 264720,
          "time": 220.60000000000002,
          "velocity": 0.8267716535433071
        },
        {
          "duration": 0.3333333333333428,
          "durationTicks": 400,
          "midi": 43,
          "name": "G2",
          "ticks": 264960,
          "time": 220.8,
          "velocity": 0.8267716535433071
        },
        {
          "duration": 0.19666666666668675,
          "durationTicks": 236,
          "midi": 55,
          "name": "G3",
          "ticks": 265680,
          "time": 221.4,
          "velocity": 0.8267716535433071
        },
        {
          "duration": 0.3333333333333428,
          "durationTicks": 400,
          "midi": 60,
          "name": "C4",
          "ticks": 265920,
          "time": 221.60000000000002,
          "velocity": 0.8267716535433071
        },
        {
          "duration": 0.19666666666665833,
          "durationTicks": 236,
          "midi": 60,
          "name": "C4",
          "ticks": 266640,
          "time": 222.20000000000002,
          "velocity": 0.8267716535433071
        },
        {
          "duration": 0.3333333333333428,
          "durationTicks": 400,
          "midi": 55,
          "name": "G3",
          "ticks": 266880,
          "time": 222.4,
          "velocity": 0.8267716535433071
        },
        {
          "duration": 0.19666666666668675,
          "durationTicks": 236,
          "midi": 55,
          "name": "G3",
          "ticks": 267600,
          "time": 223,
          "velocity": 0.8267716535433071
        },
        {
          "duration": 0.3333333333333428,
          "durationTicks": 400,
          "midi": 60,
          "name": "C4",
          "ticks": 267840,
          "time": 223.20000000000002,
          "velocity": 0.8267716535433071
        },
        {
          "duration": 0.19666666666665833,
          "durationTicks": 236,
          "midi": 60,
          "name": "C4",
          "ticks": 268560,
          "time": 223.8,
          "velocity": 0.8267716535433071
        },
        {
          "duration": 0.19666666666668675,
          "durationTicks": 236,
          "midi": 55,
          "name": "G3",
          "ticks": 268800,
          "time": 224,
          "velocity": 0.8267716535433071
        },
        {
          "duration": 0.19666666666665833,
          "durationTicks": 236,
          "midi": 60,
          "name": "C4",
          "ticks": 269040,
          "time": 224.20000000000002,
          "velocity": 0.8346456692913385
        },
        {
          "duration": 0.19666666666668675,
          "durationTicks": 236,
          "midi": 55,
          "name": "G3",
          "ticks": 269280,
          "time": 224.4,
          "velocity": 0.8503937007874016
        },
        {
          "duration": 0.19666666666665833,
          "durationTicks": 236,
          "midi": 60,
          "name": "C4",
          "ticks": 269520,
          "time": 224.60000000000002,
          "velocity": 0.8582677165354331
        },
        {
          "duration": 0.19666666666665833,
          "durationTicks": 236,
          "midi": 55,
          "name": "G3",
          "ticks": 269760,
          "time": 224.8,
          "velocity": 0.8661417322834646
        },
        {
          "duration": 0.19666666666668675,
          "durationTicks": 236,
          "midi": 60,
          "name": "C4",
          "ticks": 270000,
          "time": 225,
          "velocity": 0.8740157480314961
        },
        {
          "duration": 0.19666666666665833,
          "durationTicks": 236,
          "midi": 55,
          "name": "G3",
          "ticks": 270240,
          "time": 225.20000000000002,
          "velocity": 0.8818897637795275
        },
        {
          "duration": 0.19666666666668675,
          "durationTicks": 236,
          "midi": 60,
          "name": "C4",
          "ticks": 270480,
          "time": 225.4,
          "velocity": 0.889763779527559
        },
        {
          "duration": 0.3333333333333428,
          "durationTicks": 400,
          "midi": 55,
          "name": "G3",
          "ticks": 270720,
          "time": 225.60000000000002,
          "velocity": 0.905511811023622
        },
        {
          "duration": 0.33333333333337123,
          "durationTicks": 400,
          "midi": 55,
          "name": "G3",
          "ticks": 271200,
          "time": 226,
          "velocity": 0.9212598425196851
        },
        {
          "duration": 0.3333333333333428,
          "durationTicks": 400,
          "midi": 43,
          "name": "G2",
          "ticks": 271680,
          "time": 226.4,
          "velocity": 0.937007874015748
        },
        {
          "duration": 0.3333333333333428,
          "durationTicks": 400,
          "midi": 43,
          "name": "G2",
          "ticks": 272160,
          "time": 226.8,
          "velocity": 0.952755905511811
        },
        {
          "duration": 1.5,
          "durationTicks": 1800,
          "midi": 43,
          "name": "G2",
          "ticks": 272640,
          "time": 227.20000000000002,
          "velocity": 0.9763779527559056
        },
        {
          "duration": 0.8000000000000114,
          "durationTicks": 960,
          "midi": 57,
          "name": "A3",
          "ticks": 295680,
          "time": 246.4,
          "velocity": 0.4015748031496063
        },
        {
          "duration": 0.6999999999999886,
          "durationTicks": 840,
          "midi": 55,
          "name": "G3",
          "ticks": 296640,
          "time": 247.20000000000002,
          "velocity": 0.4015748031496063
        },
        {
          "duration": 1.200000000000017,
          "durationTicks": 1440,
          "midi": 53,
          "name": "F3",
          "ticks": 297600,
          "time": 248,
          "velocity": 0.4015748031496063
        },
        {
          "duration": 0.3333333333333428,
          "durationTicks": 400,
          "midi": 54,
          "name": "F#3",
          "ticks": 299040,
          "time": 249.20000000000002,
          "velocity": 0.4015748031496063
        },
        {
          "duration": 0.3333333333333428,
          "durationTicks": 400,
          "midi": 55,
          "name": "G3",
          "ticks": 299520,
          "time": 249.60000000000002,
          "velocity": 0.8267716535433071
        },
        {
          "duration": 0.06666666666663446,
          "durationTicks": 80,
          "midi": 50,
          "name": "D3",
          "ticks": 300240,
          "time": 250.20000000000002,
          "velocity": 0.8267716535433071
        },
        {
          "duration": 0.06666666666671972,
          "durationTicks": 80,
          "midi": 52,
          "name": "E3",
          "ticks": 300320,
          "time": 250.26666666666665,
          "velocity": 0.8267716535433071
        },
        {
          "duration": 0.06666666666663446,
          "durationTicks": 80,
          "midi": 54,
          "name": "F#3",
          "ticks": 300400,
          "time": 250.33333333333337,
          "velocity": 0.8267716535433071
        },
        {
          "duration": 0.3333333333333428,
          "durationTicks": 400,
          "midi": 55,
          "name": "G3",
          "ticks": 300480,
          "time": 250.4,
          "velocity": 0.8267716535433071
        },
        {
          "duration": 0.06666666666666288,
          "durationTicks": 80,
          "midi": 50,
          "name": "D3",
          "ticks": 301200,
          "time": 251,
          "velocity": 0.8267716535433071
        },
        {
          "duration": 0.0666666666666913,
          "durationTicks": 80,
          "midi": 52,
          "name": "E3",
          "ticks": 301280,
          "time": 251.06666666666666,
          "velocity": 0.8267716535433071
        },
        {
          "duration": 0.06666666666666288,
          "durationTicks": 80,
          "midi": 54,
          "name": "F#3",
          "ticks": 301360,
          "time": 251.13333333333335,
          "velocity": 0.8267716535433071
        },
        {
          "duration": 0.3333333333333428,
          "durationTicks": 400,
          "midi": 55,
          "name": "G3",
          "ticks": 301440,
          "time": 251.20000000000002,
          "velocity": 0.8267716535433071
        },
        {
          "duration": 0.19666666666665833,
          "durationTicks": 236,
          "midi": 59,
          "name": "B3",
          "ticks": 303120,
          "time": 252.60000000000002,
          "velocity": 0.8267716535433071
        },
        {
          "duration": 0.19999999999998863,
          "durationTicks": 240,
          "midi": 55,
          "name": "G3",
          "ticks": 303360,
          "time": 252.8,
          "velocity": 0.8267716535433071
        },
        {
          "duration": 0.5333333333333599,
          "durationTicks": 640,
          "midi": 60,
          "name": "C4",
          "ticks": 303360,
          "time": 252.8,
          "velocity": 0.8267716535433071
        },
        {
          "duration": 0.20000000000001705,
          "durationTicks": 240,
          "midi": 55,
          "name": "G3",
          "ticks": 303600,
          "time": 253,
          "velocity": 0.8267716535433071
        },
        {
          "duration": 0.19999999999998863,
          "durationTicks": 240,
          "midi": 55,
          "name": "G3",
          "ticks": 303840,
          "time": 253.20000000000002,
          "velocity": 0.8267716535433071
        },
        {
          "duration": 0.19666666666668675,
          "durationTicks": 236,
          "midi": 55,
          "name": "G3",
          "ticks": 304080,
          "time": 253.4,
          "velocity": 0.8267716535433071
        },
        {
          "duration": 0.19666666666668675,
          "durationTicks": 236,
          "midi": 59,
          "name": "B3",
          "ticks": 304080,
          "time": 253.4,
          "velocity": 0.8267716535433071
        },
        {
          "duration": 0.19999999999998863,
          "durationTicks": 240,
          "midi": 55,
          "name": "G3",
          "ticks": 304320,
          "time": 253.60000000000002,
          "velocity": 0.8267716535433071
        },
        {
          "duration": 0.5333333333333314,
          "durationTicks": 640,
          "midi": 62,
          "name": "D4",
          "ticks": 304320,
          "time": 253.60000000000002,
          "velocity": 0.8267716535433071
        },
        {
          "duration": 0.19999999999998863,
          "durationTicks": 240,
          "midi": 55,
          "name": "G3",
          "ticks": 304560,
          "time": 253.8,
          "velocity": 0.8267716535433071
        },
        {
          "duration": 0.20000000000001705,
          "durationTicks": 240,
          "midi": 55,
          "name": "G3",
          "ticks": 304800,
          "time": 254,
          "velocity": 0.8267716535433071
        },
        {
          "duration": 0.19666666666665833,
          "durationTicks": 236,
          "midi": 55,
          "name": "G3",
          "ticks": 305040,
          "time": 254.20000000000002,
          "velocity": 0.8267716535433071
        },
        {
          "duration": 0.19666666666665833,
          "durationTicks": 236,
          "midi": 60,
          "name": "C4",
          "ticks": 305040,
          "time": 254.20000000000002,
          "velocity": 0.8267716535433071
        },
        {
          "duration": 0.20000000000001705,
          "durationTicks": 240,
          "midi": 55,
          "name": "G3",
          "ticks": 305280,
          "time": 254.4,
          "velocity": 0.8267716535433071
        },
        {
          "duration": 0.700000000000017,
          "durationTicks": 840,
          "midi": 64,
          "name": "E4",
          "ticks": 305280,
          "time": 254.4,
          "velocity": 0.8267716535433071
        },
        {
          "duration": 0.19999999999998863,
          "durationTicks": 240,
          "midi": 55,
          "name": "G3",
          "ticks": 305520,
          "time": 254.60000000000002,
          "velocity": 0.8267716535433071
        },
        {
          "duration": 0.19999999999998863,
          "durationTicks": 240,
          "midi": 55,
          "name": "G3",
          "ticks": 305760,
          "time": 254.8,
          "velocity": 0.8267716535433071
        },
        {
          "duration": 0.20000000000001705,
          "durationTicks": 240,
          "midi": 55,
          "name": "G3",
          "ticks": 306000,
          "time": 255,
          "velocity": 0.8267716535433071
        },
        {
          "duration": 0.19666666666665833,
          "durationTicks": 236,
          "midi": 55,
          "name": "G3",
          "ticks": 306240,
          "time": 255.20000000000002,
          "velocity": 0.8267716535433071
        },
        {
          "duration": 0.3333333333333428,
          "durationTicks": 400,
          "midi": 62,
          "name": "D4",
          "ticks": 306240,
          "time": 255.20000000000002,
          "velocity": 0.8267716535433071
        },
        {
          "duration": 0.19666666666668675,
          "durationTicks": 236,
          "midi": 55,
          "name": "G3",
          "ticks": 306480,
          "time": 255.4,
          "velocity": 0.8267716535433071
        },
        {
          "duration": 0.19666666666665833,
          "durationTicks": 236,
          "midi": 55,
          "name": "G3",
          "ticks": 306720,
          "time": 255.60000000000002,
          "velocity": 0.8267716535433071
        },
        {
          "duration": 0.19666666666665833,
          "durationTicks": 236,
          "midi": 55,
          "name": "G3",
          "ticks": 306960,
          "time": 255.8,
          "velocity": 0.8267716535433071
        },
        {
          "duration": 0.19666666666665833,
          "durationTicks": 236,
          "midi": 59,
          "name": "B3",
          "ticks": 306960,
          "time": 255.8,
          "velocity": 0.8267716535433071
        },
        {
          "duration": 0.19999999999998863,
          "durationTicks": 240,
          "midi": 55,
          "name": "G3",
          "ticks": 307200,
          "time": 256,
          "velocity": 0.8267716535433071
        },
        {
          "duration": 0.5333333333333599,
          "durationTicks": 640,
          "midi": 62,
          "name": "D4",
          "ticks": 307200,
          "time": 256,
          "velocity": 0.8267716535433071
        },
        {
          "duration": 0.20000000000004547,
          "durationTicks": 240,
          "midi": 55,
          "name": "G3",
          "ticks": 307440,
          "time": 256.2,
          "velocity": 0.8267716535433071
        },
        {
          "duration": 0.19999999999998863,
          "durationTicks": 240,
          "midi": 55,
          "name": "G3",
          "ticks": 307680,
          "time": 256.40000000000003,
          "velocity": 0.8267716535433071
        },
        {
          "duration": 0.19666666666665833,
          "durationTicks": 236,
          "midi": 55,
          "name": "G3",
          "ticks": 307920,
          "time": 256.6,
          "velocity": 0.8267716535433071
        },
        {
          "duration": 0.19666666666665833,
          "durationTicks": 236,
          "midi": 60,
          "name": "C4",
          "ticks": 307920,
          "time": 256.6,
          "velocity": 0.8267716535433071
        },
        {
          "duration": 0.19999999999998863,
          "durationTicks": 240,
          "midi": 55,
          "name": "G3",
          "ticks": 308160,
          "time": 256.8,
          "velocity": 0.8267716535433071
        },
        {
          "duration": 0.5333333333333599,
          "durationTicks": 640,
          "midi": 64,
          "name": "E4",
          "ticks": 308160,
          "time": 256.8,
          "velocity": 0.8267716535433071
        },
        {
          "duration": 0.19999999999998863,
          "durationTicks": 240,
          "midi": 55,
          "name": "G3",
          "ticks": 308400,
          "time": 257,
          "velocity": 0.8267716535433071
        },
        {
          "duration": 0.20000000000004547,
          "durationTicks": 240,
          "midi": 55,
          "name": "G3",
          "ticks": 308640,
          "time": 257.2,
          "velocity": 0.8267716535433071
        },
        {
          "duration": 0.19666666666665833,
          "durationTicks": 236,
          "midi": 55,
          "name": "G3",
          "ticks": 308880,
          "time": 257.40000000000003,
          "velocity": 0.8267716535433071
        },
        {
          "duration": 0.19666666666665833,
          "durationTicks": 236,
          "midi": 62,
          "name": "D4",
          "ticks": 308880,
          "time": 257.40000000000003,
          "velocity": 0.8267716535433071
        },
        {
          "duration": 0.19999999999998863,
          "durationTicks": 240,
          "midi": 55,
          "name": "G3",
          "ticks": 309120,
          "time": 257.6,
          "velocity": 0.8267716535433071
        },
        {
          "duration": 0.6999999999999886,
          "durationTicks": 840,
          "midi": 65,
          "name": "F4",
          "ticks": 309120,
          "time": 257.6,
          "velocity": 0.8267716535433071
        },
        {
          "duration": 0.19999999999998863,
          "durationTicks": 240,
          "midi": 55,
          "name": "G3",
          "ticks": 309360,
          "time": 257.8,
          "velocity": 0.8267716535433071
        },
        {
          "duration": 0.19999999999998863,
          "durationTicks": 240,
          "midi": 55,
          "name": "G3",
          "ticks": 309600,
          "time": 258,
          "velocity": 0.8267716535433071
        },
        {
          "duration": 0.20000000000004547,
          "durationTicks": 240,
          "midi": 55,
          "name": "G3",
          "ticks": 309840,
          "time": 258.2,
          "velocity": 0.8267716535433071
        },
        {
          "duration": 0.19666666666665833,
          "durationTicks": 236,
          "midi": 55,
          "name": "G3",
          "ticks": 310080,
          "time": 258.40000000000003,
          "velocity": 0.8267716535433071
        },
        {
          "duration": 0.533333333333303,
          "durationTicks": 640,
          "midi": 64,
          "name": "E4",
          "ticks": 310080,
          "time": 258.40000000000003,
          "velocity": 0.8267716535433071
        },
        {
          "duration": 0.19666666666665833,
          "durationTicks": 236,
          "midi": 55,
          "name": "G3",
          "ticks": 310320,
          "time": 258.6,
          "velocity": 0.8267716535433071
        },
        {
          "duration": 0.19666666666665833,
          "durationTicks": 236,
          "midi": 55,
          "name": "G3",
          "ticks": 310560,
          "time": 258.8,
          "velocity": 0.8267716535433071
        },
        {
          "duration": 0.19666666666665833,
          "durationTicks": 236,
          "midi": 55,
          "name": "G3",
          "ticks": 310800,
          "time": 259,
          "velocity": 0.8267716535433071
        },
        {
          "duration": 0.19666666666665833,
          "durationTicks": 236,
          "midi": 61,
          "name": "C#4",
          "ticks": 310800,
          "time": 259,
          "velocity": 0.8267716535433071
        },
        {
          "duration": 0.20000000000004547,
          "durationTicks": 240,
          "midi": 55,
          "name": "G3",
          "ticks": 311040,
          "time": 259.2,
          "velocity": 0.8267716535433071
        },
        {
          "duration": 0.5333333333333599,
          "durationTicks": 640,
          "midi": 64,
          "name": "E4",
          "ticks": 311040,
          "time": 259.2,
          "velocity": 0.8267716535433071
        },
        {
          "duration": 0.19999999999998863,
          "durationTicks": 240,
          "midi": 55,
          "name": "G3",
          "ticks": 311280,
          "time": 259.40000000000003,
          "velocity": 0.8267716535433071
        },
        {
          "duration": 0.19999999999998863,
          "durationTicks": 240,
          "midi": 55,
          "name": "G3",
          "ticks": 311520,
          "time": 259.6,
          "velocity": 0.8267716535433071
        },
        {
          "duration": 0.19666666666665833,
          "durationTicks": 236,
          "midi": 55,
          "name": "G3",
          "ticks": 311760,
          "time": 259.8,
          "velocity": 0.8267716535433071
        },
        {
          "duration": 0.19666666666665833,
          "durationTicks": 236,
          "midi": 62,
          "name": "D4",
          "ticks": 311760,
          "time": 259.8,
          "velocity": 0.8267716535433071
        },
        {
          "duration": 0.19999999999998863,
          "durationTicks": 240,
          "midi": 55,
          "name": "G3",
          "ticks": 312000,
          "time": 260,
          "velocity": 0.8267716535433071
        },
        {
          "duration": 0.5333333333333599,
          "durationTicks": 640,
          "midi": 65,
          "name": "F4",
          "ticks": 312000,
          "time": 260,
          "velocity": 0.8267716535433071
        },
        {
          "duration": 0.20000000000004547,
          "durationTicks": 240,
          "midi": 55,
          "name": "G3",
          "ticks": 312240,
          "time": 260.2,
          "velocity": 0.8267716535433071
        },
        {
          "duration": 0.19999999999998863,
          "durationTicks": 240,
          "midi": 55,
          "name": "G3",
          "ticks": 312480,
          "time": 260.40000000000003,
          "velocity": 0.8267716535433071
        },
        {
          "duration": 0.19666666666665833,
          "durationTicks": 236,
          "midi": 55,
          "name": "G3",
          "ticks": 312720,
          "time": 260.6,
          "velocity": 0.8267716535433071
        },
        {
          "duration": 0.19666666666665833,
          "durationTicks": 236,
          "midi": 64,
          "name": "E4",
          "ticks": 312720,
          "time": 260.6,
          "velocity": 0.8267716535433071
        },
        {
          "duration": 0.19999999999998863,
          "durationTicks": 240,
          "midi": 55,
          "name": "G3",
          "ticks": 312960,
          "time": 260.8,
          "velocity": 0.8267716535433071
        },
        {
          "duration": 0.6999999999999886,
          "durationTicks": 840,
          "midi": 67,
          "name": "G4",
          "ticks": 312960,
          "time": 260.8,
          "velocity": 0.8267716535433071
        },
        {
          "duration": 0.19999999999998863,
          "durationTicks": 240,
          "midi": 55,
          "name": "G3",
          "ticks": 313200,
          "time": 261,
          "velocity": 0.8267716535433071
        },
        {
          "duration": 0.20000000000004547,
          "durationTicks": 240,
          "midi": 55,
          "name": "G3",
          "ticks": 313440,
          "time": 261.2,
          "velocity": 0.8267716535433071
        },
        {
          "duration": 0.19999999999998863,
          "durationTicks": 240,
          "midi": 55,
          "name": "G3",
          "ticks": 313680,
          "time": 261.40000000000003,
          "velocity": 0.8267716535433071
        },
        {
          "duration": 0.19666666666665833,
          "durationTicks": 236,
          "midi": 55,
          "name": "G3",
          "ticks": 313920,
          "time": 261.6,
          "velocity": 0.8267716535433071
        },
        {
          "duration": 0.5333333333333599,
          "durationTicks": 640,
          "midi": 65,
          "name": "F4",
          "ticks": 313920,
          "time": 261.6,
          "velocity": 0.8267716535433071
        },
        {
          "duration": 0.19666666666665833,
          "durationTicks": 236,
          "midi": 55,
          "name": "G3",
          "ticks": 314160,
          "time": 261.8,
          "velocity": 0.8267716535433071
        },
        {
          "duration": 0.19666666666665833,
          "durationTicks": 236,
          "midi": 55,
          "name": "G3",
          "ticks": 314400,
          "time": 262,
          "velocity": 0.8267716535433071
        },
        {
          "duration": 0.19666666666671517,
          "durationTicks": 236,
          "midi": 55,
          "name": "G3",
          "ticks": 314640,
          "time": 262.2,
          "velocity": 0.8267716535433071
        },
        {
          "duration": 0.19666666666671517,
          "durationTicks": 236,
          "midi": 63,
          "name": "D#4",
          "ticks": 314640,
          "time": 262.2,
          "velocity": 0.8267716535433071
        },
        {
          "duration": 0.19999999999998863,
          "durationTicks": 240,
          "midi": 55,
          "name": "G3",
          "ticks": 314880,
          "time": 262.40000000000003,
          "velocity": 0.8267716535433071
        },
        {
          "duration": 0.6999999999999886,
          "durationTicks": 840,
          "midi": 65,
          "name": "F4",
          "ticks": 314880,
          "time": 262.40000000000003,
          "velocity": 0.8267716535433071
        },
        {
          "duration": 0.19999999999998863,
          "durationTicks": 240,
          "midi": 55,
          "name": "G3",
          "ticks": 315120,
          "time": 262.6,
          "velocity": 0.8267716535433071
        },
        {
          "duration": 0.19999999999998863,
          "durationTicks": 240,
          "midi": 55,
          "name": "G3",
          "ticks": 315360,
          "time": 262.8,
          "velocity": 0.8267716535433071
        },
        {
          "duration": 0.19999999999998863,
          "durationTicks": 240,
          "midi": 55,
          "name": "G3",
          "ticks": 315600,
          "time": 263,
          "velocity": 0.8267716535433071
        },
        {
          "duration": 0.19666666666671517,
          "durationTicks": 236,
          "midi": 55,
          "name": "G3",
          "ticks": 315840,
          "time": 263.2,
          "velocity": 0.8267716535433071
        },
        {
          "duration": 0.5333333333333599,
          "durationTicks": 640,
          "midi": 64,
          "name": "E4",
          "ticks": 315840,
          "time": 263.2,
          "velocity": 0.8267716535433071
        },
        {
          "duration": 0.19666666666665833,
          "durationTicks": 236,
          "midi": 55,
          "name": "G3",
          "ticks": 316080,
          "time": 263.40000000000003,
          "velocity": 0.8267716535433071
        },
        {
          "duration": 0.19666666666665833,
          "durationTicks": 236,
          "midi": 55,
          "name": "G3",
          "ticks": 316320,
          "time": 263.6,
          "velocity": 0.8267716535433071
        },
        {
          "duration": 0.19666666666665833,
          "durationTicks": 236,
          "midi": 55,
          "name": "G3",
          "ticks": 316560,
          "time": 263.8,
          "velocity": 0.8267716535433071
        },
        {
          "duration": 0.19666666666665833,
          "durationTicks": 236,
          "midi": 61,
          "name": "C#4",
          "ticks": 316560,
          "time": 263.8,
          "velocity": 0.8267716535433071
        },
        {
          "duration": 0.19999999999998863,
          "durationTicks": 240,
          "midi": 55,
          "name": "G3",
          "ticks": 316800,
          "time": 264,
          "velocity": 0.8267716535433071
        },
        {
          "duration": 0.6999999999999886,
          "durationTicks": 840,
          "midi": 64,
          "name": "E4",
          "ticks": 316800,
          "time": 264,
          "velocity": 0.8267716535433071
        },
        {
          "duration": 0.20000000000004547,
          "durationTicks": 240,
          "midi": 55,
          "name": "G3",
          "ticks": 317040,
          "time": 264.2,
          "velocity": 0.8267716535433071
        },
        {
          "duration": 0.19999999999998863,
          "durationTicks": 240,
          "midi": 55,
          "name": "G3",
          "ticks": 317280,
          "time": 264.40000000000003,
          "velocity": 0.8267716535433071
        },
        {
          "duration": 0.19999999999998863,
          "durationTicks": 240,
          "midi": 55,
          "name": "G3",
          "ticks": 317520,
          "time": 264.6,
          "velocity": 0.8267716535433071
        },
        {
          "duration": 0.19666666666665833,
          "durationTicks": 236,
          "midi": 55,
          "name": "G3",
          "ticks": 317760,
          "time": 264.8,
          "velocity": 0.8267716535433071
        },
        {
          "duration": 0.33333333333337123,
          "durationTicks": 400,
          "midi": 62,
          "name": "D4",
          "ticks": 317760,
          "time": 264.8,
          "velocity": 0.8267716535433071
        },
        {
          "duration": 0.19666666666665833,
          "durationTicks": 236,
          "midi": 55,
          "name": "G3",
          "ticks": 318000,
          "time": 265,
          "velocity": 0.8267716535433071
        },
        {
          "duration": 0.19666666666671517,
          "durationTicks": 236,
          "midi": 55,
          "name": "G3",
          "ticks": 318240,
          "time": 265.2,
          "velocity": 0.8267716535433071
        },
        {
          "duration": 0.19666666666665833,
          "durationTicks": 236,
          "midi": 55,
          "name": "G3",
          "ticks": 318480,
          "time": 265.40000000000003,
          "velocity": 0.8267716535433071
        },
        {
          "duration": 0.19666666666665833,
          "durationTicks": 236,
          "midi": 60,
          "name": "C4",
          "ticks": 318720,
          "time": 265.6,
          "velocity": 0.8267716535433071
        },
        {
          "duration": 0.19666666666665833,
          "durationTicks": 236,
          "midi": 60,
          "name": "C4",
          "ticks": 318960,
          "time": 265.8,
          "velocity": 0.8267716535433071
        },
        {
          "duration": 0.19666666666665833,
          "durationTicks": 236,
          "midi": 59,
          "name": "B3",
          "ticks": 319200,
          "time": 266,
          "velocity": 0.8267716535433071
        },
        {
          "duration": 0.19666666666671517,
          "durationTicks": 236,
          "midi": 59,
          "name": "B3",
          "ticks": 319440,
          "time": 266.2,
          "velocity": 0.8267716535433071
        },
        {
          "duration": 0.19666666666665833,
          "durationTicks": 236,
          "midi": 60,
          "name": "C4",
          "ticks": 319680,
          "time": 266.40000000000003,
          "velocity": 0.8267716535433071
        },
        {
          "duration": 0.19666666666665833,
          "durationTicks": 236,
          "midi": 60,
          "name": "C4",
          "ticks": 319920,
          "time": 266.6,
          "velocity": 0.8267716535433071
        },
        {
          "duration": 0.19666666666665833,
          "durationTicks": 236,
          "midi": 59,
          "name": "B3",
          "ticks": 320160,
          "time": 266.8,
          "velocity": 0.8267716535433071
        },
        {
          "duration": 0.19666666666665833,
          "durationTicks": 236,
          "midi": 59,
          "name": "B3",
          "ticks": 320400,
          "time": 267,
          "velocity": 0.8267716535433071
        },
        {
          "duration": 1.1000000000000227,
          "durationTicks": 1320,
          "midi": 60,
          "name": "C4",
          "ticks": 320640,
          "time": 267.2,
          "velocity": 0.8267716535433071
        },
        {
          "duration": 0.3333333333333144,
          "durationTicks": 400,
          "midi": 61,
          "name": "C#4",
          "ticks": 322080,
          "time": 268.40000000000003,
          "velocity": 0.8267716535433071
        },
        {
          "duration": 0.33333333333337123,
          "durationTicks": 400,
          "midi": 62,
          "name": "D4",
          "ticks": 322560,
          "time": 268.8,
          "velocity": 0.8267716535433071
        },
        {
          "duration": 0.33333333333337123,
          "durationTicks": 400,
          "midi": 62,
          "name": "D4",
          "ticks": 324000,
          "time": 270,
          "velocity": 0.8267716535433071
        },
        {
          "duration": 0.3333333333333144,
          "durationTicks": 400,
          "midi": 50,
          "name": "D3",
          "ticks": 324480,
          "time": 270.40000000000003,
          "velocity": 0.8267716535433071
        },
        {
          "duration": 0.3333333333333144,
          "durationTicks": 400,
          "midi": 62,
          "name": "D4",
          "ticks": 325920,
          "time": 271.6,
          "velocity": 0.8267716535433071
        },
        {
          "duration": 0.33333333333337123,
          "durationTicks": 400,
          "midi": 50,
          "name": "D3",
          "ticks": 326400,
          "time": 272,
          "velocity": 0.8267716535433071
        },
        {
          "duration": 0.33333333333337123,
          "durationTicks": 400,
          "midi": 62,
          "name": "D4",
          "ticks": 327840,
          "time": 273.2,
          "velocity": 0.8267716535433071
        },
        {
          "duration": 0.3333333333333144,
          "durationTicks": 400,
          "midi": 50,
          "name": "D3",
          "ticks": 328320,
          "time": 273.6,
          "velocity": 0.8267716535433071
        },
        {
          "duration": 0.33333333333337123,
          "durationTicks": 400,
          "midi": 62,
          "name": "D4",
          "ticks": 329760,
          "time": 274.8,
          "velocity": 0.8267716535433071
        },
        {
          "duration": 0.33333333333337123,
          "durationTicks": 400,
          "midi": 50,
          "name": "D3",
          "ticks": 330240,
          "time": 275.2,
          "velocity": 0.8267716535433071
        },
        {
          "duration": 0.33333333333337123,
          "durationTicks": 400,
          "midi": 62,
          "name": "D4",
          "ticks": 331200,
          "time": 276,
          "velocity": 0.8267716535433071
        },
        {
          "duration": 0.33333333333337123,
          "durationTicks": 400,
          "midi": 50,
          "name": "D3",
          "ticks": 332160,
          "time": 276.8,
          "velocity": 0.8267716535433071
        },
        {
          "duration": 0.3333333333333144,
          "durationTicks": 400,
          "midi": 62,
          "name": "D4",
          "ticks": 333120,
          "time": 277.6,
          "velocity": 0.8267716535433071
        },
        {
          "duration": 0.3333333333333144,
          "durationTicks": 400,
          "midi": 50,
          "name": "D3",
          "ticks": 334080,
          "time": 278.40000000000003,
          "velocity": 0.8267716535433071
        },
        {
          "duration": 1.2000000000000455,
          "durationTicks": 1440,
          "midi": 57,
          "name": "A3",
          "ticks": 339840,
          "time": 283.2,
          "velocity": 0.4015748031496063
        },
        {
          "duration": 0.39999999999997726,
          "durationTicks": 480,
          "midi": 58,
          "name": "A#3",
          "ticks": 341280,
          "time": 284.40000000000003,
          "velocity": 0.4015748031496063
        },
        {
          "duration": 0.39999999999997726,
          "durationTicks": 480,
          "midi": 59,
          "name": "B3",
          "ticks": 341760,
          "time": 284.8,
          "velocity": 0.4015748031496063
        },
        {
          "duration": 0.3333333333333144,
          "durationTicks": 400,
          "midi": 54,
          "name": "F#3",
          "ticks": 343680,
          "time": 286.40000000000003,
          "velocity": 0.4015748031496063
        },
        {
          "duration": 0.33333333333337123,
          "durationTicks": 400,
          "midi": 55,
          "name": "G3",
          "ticks": 344640,
          "time": 287.2,
          "velocity": 0.4015748031496063
        },
        {
          "duration": 0.33333333333337123,
          "durationTicks": 400,
          "midi": 50,
          "name": "D3",
          "ticks": 345600,
          "time": 288,
          "velocity": 0.4015748031496063
        },
        {
          "duration": 1.1999999999999886,
          "durationTicks": 1440,
          "midi": 57,
          "name": "A3",
          "ticks": 351360,
          "time": 292.8,
          "velocity": 0.4015748031496063
        },
        {
          "duration": 0.4000000000000341,
          "durationTicks": 480,
          "midi": 58,
          "name": "A#3",
          "ticks": 352800,
          "time": 294,
          "velocity": 0.4015748031496063
        },
        {
          "duration": 0.3333333333333144,
          "durationTicks": 400,
          "midi": 59,
          "name": "B3",
          "ticks": 353280,
          "time": 294.40000000000003,
          "velocity": 0.4015748031496063
        },
        {
          "duration": 0.33333333333337123,
          "durationTicks": 400,
          "midi": 54,
          "name": "F#3",
          "ticks": 355200,
          "time": 296,
          "velocity": 0.4015748031496063
        },
        {
          "duration": 0.33333333333337123,
          "durationTicks": 400,
          "midi": 55,
          "name": "G3",
          "ticks": 356160,
          "time": 296.8,
          "velocity": 0.4015748031496063
        },
        {
          "duration": 1.599999999999966,
          "durationTicks": 1920,
          "midi": 48,
          "name": "C3",
          "ticks": 357120,
          "time": 297.6,
          "velocity": 0.4015748031496063
        },
        {
          "duration": 0.33333333333337123,
          "durationTicks": 400,
          "midi": 47,
          "name": "B2",
          "ticks": 359040,
          "time": 299.2,
          "velocity": 0.4015748031496063
        },
        {
          "duration": 0.33333333333337123,
          "durationTicks": 400,
          "midi": 51,
          "name": "D#3",
          "ticks": 360000,
          "time": 300,
          "velocity": 0.4015748031496063
        },
        {
          "duration": 1.1999999999999886,
          "durationTicks": 1440,
          "midi": 52,
          "name": "E3",
          "ticks": 360960,
          "time": 300.8,
          "velocity": 0.4015748031496063
        },
        {
          "duration": 0.33333333333337123,
          "durationTicks": 400,
          "midi": 48,
          "name": "C3",
          "ticks": 362400,
          "time": 302,
          "velocity": 0.4015748031496063
        },
        {
          "duration": 0.3333333333333144,
          "durationTicks": 400,
          "midi": 50,
          "name": "D3",
          "ticks": 362880,
          "time": 302.40000000000003,
          "velocity": 0.4015748031496063
        },
        {
          "duration": 0.33333333333337123,
          "durationTicks": 400,
          "midi": 50,
          "name": "D3",
          "ticks": 363360,
          "time": 302.8,
          "velocity": 0.4015748031496063
        },
        {
          "duration": 0.33333333333337123,
          "durationTicks": 400,
          "midi": 50,
          "name": "D3",
          "ticks": 363840,
          "time": 303.2,
          "velocity": 0.4015748031496063
        },
        {
          "duration": 0.3333333333333144,
          "durationTicks": 400,
          "midi": 50,
          "name": "D3",
          "ticks": 364320,
          "time": 303.6,
          "velocity": 0.4015748031496063
        },
        {
          "duration": 0.6000000000000227,
          "durationTicks": 720,
          "midi": 55,
          "name": "G3",
          "ticks": 364800,
          "time": 304,
          "velocity": 0.4015748031496063
        },
        {
          "duration": 0.19666666666665833,
          "durationTicks": 236,
          "midi": 54,
          "name": "F#3",
          "ticks": 365520,
          "time": 304.6,
          "velocity": 0.4015748031496063
        },
        {
          "duration": 0.6000000000000227,
          "durationTicks": 720,
          "midi": 59,
          "name": "B3",
          "ticks": 365760,
          "time": 304.8,
          "velocity": 0.4015748031496063
        },
        {
          "duration": 0.19666666666665833,
          "durationTicks": 236,
          "midi": 57,
          "name": "A3",
          "ticks": 366480,
          "time": 305.40000000000003,
          "velocity": 0.4015748031496063
        },
        {
          "duration": 0.8000000000000114,
          "durationTicks": 960,
          "midi": 62,
          "name": "D4",
          "ticks": 366720,
          "time": 305.6,
          "velocity": 0.4015748031496063
        },
        {
          "duration": 0.6999999999999886,
          "durationTicks": 840,
          "midi": 60,
          "name": "C4",
          "ticks": 367680,
          "time": 306.40000000000003,
          "velocity": 0.4015748031496063
        },
        {
          "duration": 0.3333333333333144,
          "durationTicks": 400,
          "midi": 59,
          "name": "B3",
          "ticks": 368640,
          "time": 307.20000000000005,
          "velocity": 0.4015748031496063
        },
        {
          "duration": 0.33333333333337123,
          "durationTicks": 400,
          "midi": 64,
          "name": "E4",
          "ticks": 369600,
          "time": 308,
          "velocity": 0.4015748031496063
        },
        {
          "duration": 0.33333333333337123,
          "durationTicks": 400,
          "midi": 60,
          "name": "C4",
          "ticks": 370560,
          "time": 308.8,
          "velocity": 0.4015748031496063
        },
        {
          "duration": 0.33333333333337123,
          "durationTicks": 400,
          "midi": 62,
          "name": "D4",
          "ticks": 371520,
          "time": 309.6,
          "velocity": 0.4015748031496063
        },
        {
          "duration": 0.06666666666660603,
          "durationTicks": 80,
          "midi": 50,
          "name": "D3",
          "ticks": 372240,
          "time": 310.20000000000005,
          "velocity": 0.4015748031496063
        },
        {
          "duration": 0.5999999999999659,
          "durationTicks": 720,
          "midi": 55,
          "name": "G3",
          "ticks": 372480,
          "time": 310.40000000000003,
          "velocity": 0.4015748031496063
        },
        {
          "duration": 0.19666666666671517,
          "durationTicks": 236,
          "midi": 54,
          "name": "F#3",
          "ticks": 373200,
          "time": 311,
          "velocity": 0.4015748031496063
        },
        {
          "duration": 0.5999999999999659,
          "durationTicks": 720,
          "midi": 59,
          "name": "B3",
          "ticks": 373440,
          "time": 311.20000000000005,
          "velocity": 0.4015748031496063
        },
        {
          "duration": 0.19666666666665833,
          "durationTicks": 236,
          "midi": 57,
          "name": "A3",
          "ticks": 374160,
          "time": 311.8,
          "velocity": 0.4015748031496063
        },
        {
          "duration": 0.8000000000000114,
          "durationTicks": 960,
          "midi": 62,
          "name": "D4",
          "ticks": 374400,
          "time": 312,
          "velocity": 0.4015748031496063
        },
        {
          "duration": 0.6999999999999886,
          "durationTicks": 840,
          "midi": 60,
          "name": "C4",
          "ticks": 375360,
          "time": 312.8,
          "velocity": 0.4015748031496063
        },
        {
          "duration": 0.10000000000002274,
          "durationTicks": 120,
          "midi": 59,
          "name": "B3",
          "ticks": 376320,
          "time": 313.6,
          "velocity": 0.4015748031496063
        },
        {
          "duration": 0.10000000000002274,
          "durationTicks": 120,
          "midi": 59,
          "name": "B3",
          "ticks": 376800,
          "time": 314,
          "velocity": 0.4015748031496063
        },
        {
          "duration": 0.0999999999999659,
          "durationTicks": 120,
          "midi": 59,
          "name": "B3",
          "ticks": 377280,
          "time": 314.40000000000003,
          "velocity": 0.4015748031496063
        },
        {
          "duration": 0.0999999999999659,
          "durationTicks": 120,
          "midi": 60,
          "name": "C4",
          "ticks": 378240,
          "time": 315.20000000000005,
          "velocity": 0.4015748031496063
        },
        {
          "duration": 0.10000000000002274,
          "durationTicks": 120,
          "midi": 60,
          "name": "C4",
          "ticks": 378720,
          "time": 315.6,
          "velocity": 0.4015748031496063
        },
        {
          "duration": 0.10000000000002274,
          "durationTicks": 120,
          "midi": 60,
          "name": "C4",
          "ticks": 379200,
          "time": 316,
          "velocity": 0.4015748031496063
        },
        {
          "duration": 0.10000000000002274,
          "durationTicks": 120,
          "midi": 62,
          "name": "D4",
          "ticks": 380160,
          "time": 316.8,
          "velocity": 0.4015748031496063
        },
        {
          "duration": 0.0999999999999659,
          "durationTicks": 120,
          "midi": 62,
          "name": "D4",
          "ticks": 380640,
          "time": 317.20000000000005,
          "velocity": 0.4015748031496063
        },
        {
          "duration": 0.10000000000002274,
          "durationTicks": 120,
          "midi": 62,
          "name": "D4",
          "ticks": 381120,
          "time": 317.6,
          "velocity": 0.4015748031496063
        },
        {
          "duration": 0.19666666666671517,
          "durationTicks": 236,
          "midi": 60,
          "name": "C4",
          "ticks": 384000,
          "time": 320,
          "velocity": 0.8267716535433071
        },
        {
          "duration": 0.19666666666665833,
          "durationTicks": 236,
          "midi": 60,
          "name": "C4",
          "ticks": 384240,
          "time": 320.20000000000005,
          "velocity": 0.8267716535433071
        },
        {
          "duration": 0.19666666666665833,
          "durationTicks": 236,
          "midi": 60,
          "name": "C4",
          "ticks": 384480,
          "time": 320.40000000000003,
          "velocity": 0.8267716535433071
        },
        {
          "duration": 0.19666666666665833,
          "durationTicks": 236,
          "midi": 60,
          "name": "C4",
          "ticks": 384720,
          "time": 320.6,
          "velocity": 0.8267716535433071
        },
        {
          "duration": 0.19666666666665833,
          "durationTicks": 236,
          "midi": 60,
          "name": "C4",
          "ticks": 384960,
          "time": 320.8,
          "velocity": 0.8267716535433071
        },
        {
          "duration": 0.19666666666671517,
          "durationTicks": 236,
          "midi": 60,
          "name": "C4",
          "ticks": 385200,
          "time": 321,
          "velocity": 0.8267716535433071
        },
        {
          "duration": 0.19666666666665833,
          "durationTicks": 236,
          "midi": 60,
          "name": "C4",
          "ticks": 385440,
          "time": 321.20000000000005,
          "velocity": 0.8267716535433071
        },
        {
          "duration": 0.19666666666665833,
          "durationTicks": 236,
          "midi": 60,
          "name": "C4",
          "ticks": 385680,
          "time": 321.40000000000003,
          "velocity": 0.8267716535433071
        },
        {
          "duration": 0.19666666666665833,
          "durationTicks": 236,
          "midi": 60,
          "name": "C4",
          "ticks": 385920,
          "time": 321.6,
          "velocity": 0.8267716535433071
        },
        {
          "duration": 0.19666666666665833,
          "durationTicks": 236,
          "midi": 60,
          "name": "C4",
          "ticks": 386160,
          "time": 321.8,
          "velocity": 0.8267716535433071
        },
        {
          "duration": 0.19666666666671517,
          "durationTicks": 236,
          "midi": 60,
          "name": "C4",
          "ticks": 386400,
          "time": 322,
          "velocity": 0.8267716535433071
        },
        {
          "duration": 0.19666666666665833,
          "durationTicks": 236,
          "midi": 60,
          "name": "C4",
          "ticks": 386640,
          "time": 322.20000000000005,
          "velocity": 0.8267716535433071
        },
        {
          "duration": 0.19666666666665833,
          "durationTicks": 236,
          "midi": 60,
          "name": "C4",
          "ticks": 386880,
          "time": 322.40000000000003,
          "velocity": 0.8267716535433071
        },
        {
          "duration": 0.19666666666665833,
          "durationTicks": 236,
          "midi": 60,
          "name": "C4",
          "ticks": 387120,
          "time": 322.6,
          "velocity": 0.8267716535433071
        },
        {
          "duration": 0.19666666666665833,
          "durationTicks": 236,
          "midi": 60,
          "name": "C4",
          "ticks": 387360,
          "time": 322.8,
          "velocity": 0.8267716535433071
        },
        {
          "duration": 0.19666666666671517,
          "durationTicks": 236,
          "midi": 60,
          "name": "C4",
          "ticks": 387600,
          "time": 323,
          "velocity": 0.8267716535433071
        },
        {
          "duration": 0.19666666666665833,
          "durationTicks": 236,
          "midi": 60,
          "name": "C4",
          "ticks": 387840,
          "time": 323.20000000000005,
          "velocity": 0.8267716535433071
        },
        {
          "duration": 0.19666666666665833,
          "durationTicks": 236,
          "midi": 48,
          "name": "C3",
          "ticks": 388080,
          "time": 323.40000000000003,
          "velocity": 0.8267716535433071
        },
        {
          "duration": 0.19666666666665833,
          "durationTicks": 236,
          "midi": 48,
          "name": "C3",
          "ticks": 388320,
          "time": 323.6,
          "velocity": 0.8267716535433071
        },
        {
          "duration": 0.19666666666665833,
          "durationTicks": 236,
          "midi": 48,
          "name": "C3",
          "ticks": 388560,
          "time": 323.8,
          "velocity": 0.8267716535433071
        },
        {
          "duration": 0.19666666666671517,
          "durationTicks": 236,
          "midi": 48,
          "name": "C3",
          "ticks": 388800,
          "time": 324,
          "velocity": 0.8267716535433071
        },
        {
          "duration": 0.19666666666665833,
          "durationTicks": 236,
          "midi": 48,
          "name": "C3",
          "ticks": 389040,
          "time": 324.20000000000005,
          "velocity": 0.8267716535433071
        },
        {
          "duration": 0.19666666666665833,
          "durationTicks": 236,
          "midi": 48,
          "name": "C3",
          "ticks": 389280,
          "time": 324.40000000000003,
          "velocity": 0.8267716535433071
        },
        {
          "duration": 0.19666666666665833,
          "durationTicks": 236,
          "midi": 48,
          "name": "C3",
          "ticks": 389520,
          "time": 324.6,
          "velocity": 0.8267716535433071
        },
        {
          "duration": 0.19666666666665833,
          "durationTicks": 236,
          "midi": 48,
          "name": "C3",
          "ticks": 389760,
          "time": 324.8,
          "velocity": 0.8267716535433071
        },
        {
          "duration": 0.19666666666671517,
          "durationTicks": 236,
          "midi": 48,
          "name": "C3",
          "ticks": 390000,
          "time": 325,
          "velocity": 0.8267716535433071
        },
        {
          "duration": 0.19666666666665833,
          "durationTicks": 236,
          "midi": 48,
          "name": "C3",
          "ticks": 390240,
          "time": 325.20000000000005,
          "velocity": 0.8267716535433071
        },
        {
          "duration": 0.19666666666665833,
          "durationTicks": 236,
          "midi": 48,
          "name": "C3",
          "ticks": 390480,
          "time": 325.40000000000003,
          "velocity": 0.8267716535433071
        },
        {
          "duration": 0.19666666666665833,
          "durationTicks": 236,
          "midi": 48,
          "name": "C3",
          "ticks": 390720,
          "time": 325.6,
          "velocity": 0.8267716535433071
        },
        {
          "duration": 0.19666666666665833,
          "durationTicks": 236,
          "midi": 48,
          "name": "C3",
          "ticks": 390960,
          "time": 325.8,
          "velocity": 0.8267716535433071
        },
        {
          "duration": 0.19666666666671517,
          "durationTicks": 236,
          "midi": 48,
          "name": "C3",
          "ticks": 391200,
          "time": 326,
          "velocity": 0.8267716535433071
        },
        {
          "duration": 0.19666666666665833,
          "durationTicks": 236,
          "midi": 48,
          "name": "C3",
          "ticks": 391440,
          "time": 326.20000000000005,
          "velocity": 0.8267716535433071
        },
        {
          "duration": 0.19666666666665833,
          "durationTicks": 236,
          "midi": 48,
          "name": "C3",
          "ticks": 391680,
          "time": 326.40000000000003,
          "velocity": 0.8267716535433071
        },
        {
          "duration": 0.19666666666665833,
          "durationTicks": 236,
          "midi": 48,
          "name": "C3",
          "ticks": 391920,
          "time": 326.6,
          "velocity": 0.8267716535433071
        },
        {
          "duration": 0.19666666666665833,
          "durationTicks": 236,
          "midi": 48,
          "name": "C3",
          "ticks": 392160,
          "time": 326.8,
          "velocity": 0.8267716535433071
        },
        {
          "duration": 0.19666666666671517,
          "durationTicks": 236,
          "midi": 48,
          "name": "C3",
          "ticks": 392400,
          "time": 327,
          "velocity": 0.8267716535433071
        },
        {
          "duration": 0.19666666666665833,
          "durationTicks": 236,
          "midi": 48,
          "name": "C3",
          "ticks": 392640,
          "time": 327.20000000000005,
          "velocity": 0.8267716535433071
        },
        {
          "duration": 0.19666666666665833,
          "durationTicks": 236,
          "midi": 48,
          "name": "C3",
          "ticks": 392880,
          "time": 327.40000000000003,
          "velocity": 0.8267716535433071
        },
        {
          "duration": 0.19666666666665833,
          "durationTicks": 236,
          "midi": 48,
          "name": "C3",
          "ticks": 393120,
          "time": 327.6,
          "velocity": 0.8267716535433071
        },
        {
          "duration": 0.19666666666665833,
          "durationTicks": 236,
          "midi": 48,
          "name": "C3",
          "ticks": 393360,
          "time": 327.8,
          "velocity": 0.8267716535433071
        },
        {
          "duration": 0.19666666666671517,
          "durationTicks": 236,
          "midi": 48,
          "name": "C3",
          "ticks": 393600,
          "time": 328,
          "velocity": 0.8267716535433071
        },
        {
          "duration": 0.19666666666665833,
          "durationTicks": 236,
          "midi": 48,
          "name": "C3",
          "ticks": 393840,
          "time": 328.20000000000005,
          "velocity": 0.8267716535433071
        },
        {
          "duration": 0.19666666666665833,
          "durationTicks": 236,
          "midi": 48,
          "name": "C3",
          "ticks": 394080,
          "time": 328.40000000000003,
          "velocity": 0.8267716535433071
        },
        {
          "duration": 0.19666666666665833,
          "durationTicks": 236,
          "midi": 48,
          "name": "C3",
          "ticks": 394320,
          "time": 328.6,
          "velocity": 0.8267716535433071
        },
        {
          "duration": 0.19666666666665833,
          "durationTicks": 236,
          "midi": 48,
          "name": "C3",
          "ticks": 394560,
          "time": 328.8,
          "velocity": 0.8267716535433071
        },
        {
          "duration": 0.19666666666671517,
          "durationTicks": 236,
          "midi": 48,
          "name": "C3",
          "ticks": 394800,
          "time": 329,
          "velocity": 0.8267716535433071
        },
        {
          "duration": 0.19666666666665833,
          "durationTicks": 236,
          "midi": 48,
          "name": "C3",
          "ticks": 395040,
          "time": 329.20000000000005,
          "velocity": 0.8267716535433071
        },
        {
          "duration": 0.19666666666665833,
          "durationTicks": 236,
          "midi": 48,
          "name": "C3",
          "ticks": 395280,
          "time": 329.40000000000003,
          "velocity": 0.8267716535433071
        },
        {
          "duration": 0.19666666666665833,
          "durationTicks": 236,
          "midi": 50,
          "name": "D3",
          "ticks": 395520,
          "time": 329.6,
          "velocity": 0.8267716535433071
        },
        {
          "duration": 0.19666666666665833,
          "durationTicks": 236,
          "midi": 50,
          "name": "D3",
          "ticks": 395760,
          "time": 329.8,
          "velocity": 0.8267716535433071
        },
        {
          "duration": 0.19666666666671517,
          "durationTicks": 236,
          "midi": 50,
          "name": "D3",
          "ticks": 396000,
          "time": 330,
          "velocity": 0.8267716535433071
        },
        {
          "duration": 0.19666666666665833,
          "durationTicks": 236,
          "midi": 50,
          "name": "D3",
          "ticks": 396240,
          "time": 330.20000000000005,
          "velocity": 0.8267716535433071
        },
        {
          "duration": 0.19666666666665833,
          "durationTicks": 236,
          "midi": 50,
          "name": "D3",
          "ticks": 396480,
          "time": 330.40000000000003,
          "velocity": 0.8267716535433071
        },
        {
          "duration": 0.19666666666665833,
          "durationTicks": 236,
          "midi": 50,
          "name": "D3",
          "ticks": 396720,
          "time": 330.6,
          "velocity": 0.8267716535433071
        },
        {
          "duration": 0.19666666666665833,
          "durationTicks": 236,
          "midi": 50,
          "name": "D3",
          "ticks": 396960,
          "time": 330.8,
          "velocity": 0.8267716535433071
        },
        {
          "duration": 0.19666666666671517,
          "durationTicks": 236,
          "midi": 50,
          "name": "D3",
          "ticks": 397200,
          "time": 331,
          "velocity": 0.8267716535433071
        },
        {
          "duration": 0.19666666666665833,
          "durationTicks": 236,
          "midi": 50,
          "name": "D3",
          "ticks": 397440,
          "time": 331.20000000000005,
          "velocity": 0.8267716535433071
        },
        {
          "duration": 0.19666666666665833,
          "durationTicks": 236,
          "midi": 50,
          "name": "D3",
          "ticks": 397680,
          "time": 331.40000000000003,
          "velocity": 0.8267716535433071
        },
        {
          "duration": 0.19666666666665833,
          "durationTicks": 236,
          "midi": 50,
          "name": "D3",
          "ticks": 397920,
          "time": 331.6,
          "velocity": 0.8267716535433071
        },
        {
          "duration": 0.19666666666665833,
          "durationTicks": 236,
          "midi": 50,
          "name": "D3",
          "ticks": 398160,
          "time": 331.8,
          "velocity": 0.8267716535433071
        },
        {
          "duration": 0.19666666666671517,
          "durationTicks": 236,
          "midi": 50,
          "name": "D3",
          "ticks": 398400,
          "time": 332,
          "velocity": 0.8267716535433071
        },
        {
          "duration": 0.19666666666665833,
          "durationTicks": 236,
          "midi": 50,
          "name": "D3",
          "ticks": 398640,
          "time": 332.20000000000005,
          "velocity": 0.8267716535433071
        },
        {
          "duration": 0.19666666666665833,
          "durationTicks": 236,
          "midi": 50,
          "name": "D3",
          "ticks": 398880,
          "time": 332.40000000000003,
          "velocity": 0.8267716535433071
        },
        {
          "duration": 0.19666666666665833,
          "durationTicks": 236,
          "midi": 50,
          "name": "D3",
          "ticks": 399120,
          "time": 332.6,
          "velocity": 0.8267716535433071
        },
        {
          "duration": 0.19999999999998863,
          "durationTicks": 240,
          "midi": 55,
          "name": "G3",
          "ticks": 399360,
          "time": 332.8,
          "velocity": 0.8267716535433071
        },
        {
          "duration": 0.5333333333333599,
          "durationTicks": 640,
          "midi": 59,
          "name": "B3",
          "ticks": 399360,
          "time": 332.8,
          "velocity": 0.8267716535433071
        },
        {
          "duration": 0.20000000000004547,
          "durationTicks": 240,
          "midi": 55,
          "name": "G3",
          "ticks": 399600,
          "time": 333,
          "velocity": 0.8267716535433071
        },
        {
          "duration": 0.19999999999998863,
          "durationTicks": 240,
          "midi": 55,
          "name": "G3",
          "ticks": 399840,
          "time": 333.20000000000005,
          "velocity": 0.8267716535433071
        },
        {
          "duration": 0.19666666666665833,
          "durationTicks": 236,
          "midi": 55,
          "name": "G3",
          "ticks": 400080,
          "time": 333.40000000000003,
          "velocity": 0.8267716535433071
        },
        {
          "duration": 0.19666666666665833,
          "durationTicks": 236,
          "midi": 57,
          "name": "A3",
          "ticks": 400080,
          "time": 333.40000000000003,
          "velocity": 0.8267716535433071
        },
        {
          "duration": 0.19999999999998863,
          "durationTicks": 240,
          "midi": 55,
          "name": "G3",
          "ticks": 400320,
          "time": 333.6,
          "velocity": 0.8267716535433071
        },
        {
          "duration": 0.29666666666668107,
          "durationTicks": 356,
          "midi": 60,
          "name": "C4",
          "ticks": 400320,
          "time": 333.6,
          "velocity": 0.8267716535433071
        },
        {
          "duration": 0.19999999999998863,
          "durationTicks": 240,
          "midi": 55,
          "name": "G3",
          "ticks": 400560,
          "time": 333.8,
          "velocity": 0.8267716535433071
        },
        {
          "duration": 0.09666666666669244,
          "durationTicks": 116,
          "midi": 59,
          "name": "B3",
          "ticks": 400800,
          "time": 334,
          "velocity": 0.8267716535433071
        },
        {
          "duration": 0.19999999999998863,
          "durationTicks": 240,
          "midi": 55,
          "name": "G3",
          "ticks": 400920,
          "time": 334.1,
          "velocity": 0.8267716535433071
        },
        {
          "duration": 0.29666666666668107,
          "durationTicks": 356,
          "midi": 64,
          "name": "E4",
          "ticks": 400920,
          "time": 334.1,
          "velocity": 0.8267716535433071
        },
        {
          "duration": 0.19666666666665833,
          "durationTicks": 236,
          "midi": 55,
          "name": "G3",
          "ticks": 401160,
          "time": 334.3,
          "velocity": 0.8267716535433071
        },
        {
          "duration": 0.09666666666669244,
          "durationTicks": 116,
          "midi": 62,
          "name": "D4",
          "ticks": 401160,
          "time": 334.3,
          "velocity": 0.8267716535433071
        },
        {
          "duration": 0.19999999999998863,
          "durationTicks": 240,
          "midi": 55,
          "name": "G3",
          "ticks": 401280,
          "time": 334.40000000000003,
          "velocity": 0.8267716535433071
        },
        {
          "duration": 0.5333333333333599,
          "durationTicks": 640,
          "midi": 60,
          "name": "C4",
          "ticks": 401280,
          "time": 334.40000000000003,
          "velocity": 0.8267716535433071
        },
        {
          "duration": 0.19999999999998863,
          "durationTicks": 240,
          "midi": 55,
          "name": "G3",
          "ticks": 401520,
          "time": 334.6,
          "velocity": 0.8267716535433071
        },
        {
          "duration": 0.19999999999998863,
          "durationTicks": 240,
          "midi": 55,
          "name": "G3",
          "ticks": 401760,
          "time": 334.8,
          "velocity": 0.8267716535433071
        },
        {
          "duration": 0.19666666666671517,
          "durationTicks": 236,
          "midi": 55,
          "name": "G3",
          "ticks": 402000,
          "time": 335,
          "velocity": 0.8267716535433071
        },
        {
          "duration": 0.19666666666671517,
          "durationTicks": 236,
          "midi": 59,
          "name": "B3",
          "ticks": 402000,
          "time": 335,
          "velocity": 0.8267716535433071
        },
        {
          "duration": 0.19999999999998863,
          "durationTicks": 240,
          "midi": 55,
          "name": "G3",
          "ticks": 402240,
          "time": 335.20000000000005,
          "velocity": 0.8267716535433071
        },
        {
          "duration": 0.2966666666666242,
          "durationTicks": 356,
          "midi": 62,
          "name": "D4",
          "ticks": 402240,
          "time": 335.20000000000005,
          "velocity": 0.8267716535433071
        },
        {
          "duration": 0.19999999999998863,
          "durationTicks": 240,
          "midi": 55,
          "name": "G3",
          "ticks": 402480,
          "time": 335.40000000000003,
          "velocity": 0.8267716535433071
        },
        {
          "duration": 0.09666666666669244,
          "durationTicks": 116,
          "midi": 60,
          "name": "C4",
          "ticks": 402720,
          "time": 335.6,
          "velocity": 0.8267716535433071
        },
        {
          "duration": 0.19999999999998863,
          "durationTicks": 240,
          "midi": 55,
          "name": "G3",
          "ticks": 402840,
          "time": 335.70000000000005,
          "velocity": 0.8267716535433071
        },
        {
          "duration": 0.2966666666666242,
          "durationTicks": 356,
          "midi": 65,
          "name": "F4",
          "ticks": 402840,
          "time": 335.70000000000005,
          "velocity": 0.8267716535433071
        },
        {
          "duration": 0.19666666666665833,
          "durationTicks": 236,
          "midi": 55,
          "name": "G3",
          "ticks": 403080,
          "time": 335.90000000000003,
          "velocity": 0.8267716535433071
        },
        {
          "duration": 0.09666666666663559,
          "durationTicks": 116,
          "midi": 64,
          "name": "E4",
          "ticks": 403080,
          "time": 335.90000000000003,
          "velocity": 0.8267716535433071
        },
        {
          "duration": 0.20000000000004547,
          "durationTicks": 240,
          "midi": 55,
          "name": "G3",
          "ticks": 403200,
          "time": 336,
          "velocity": 0.8267716535433071
        },
        {
          "duration": 0.5333333333333599,
          "durationTicks": 640,
          "midi": 62,
          "name": "D4",
          "ticks": 403200,
          "time": 336,
          "velocity": 0.8267716535433071
        },
        {
          "duration": 0.19999999999998863,
          "durationTicks": 240,
          "midi": 55,
          "name": "G3",
          "ticks": 403440,
          "time": 336.20000000000005,
          "velocity": 0.8267716535433071
        },
        {
          "duration": 0.19999999999998863,
          "durationTicks": 240,
          "midi": 55,
          "name": "G3",
          "ticks": 403680,
          "time": 336.40000000000003,
          "velocity": 0.8267716535433071
        },
        {
          "duration": 0.19666666666665833,
          "durationTicks": 236,
          "midi": 55,
          "name": "G3",
          "ticks": 403920,
          "time": 336.6,
          "velocity": 0.8267716535433071
        },
        {
          "duration": 0.19666666666665833,
          "durationTicks": 236,
          "midi": 61,
          "name": "C#4",
          "ticks": 403920,
          "time": 336.6,
          "velocity": 0.8267716535433071
        },
        {
          "duration": 0.19999999999998863,
          "durationTicks": 240,
          "midi": 55,
          "name": "G3",
          "ticks": 404160,
          "time": 336.8,
          "velocity": 0.8267716535433071
        },
        {
          "duration": 0.29666666666668107,
          "durationTicks": 356,
          "midi": 64,
          "name": "E4",
          "ticks": 404160,
          "time": 336.8,
          "velocity": 0.8267716535433071
        },
        {
          "duration": 0.20000000000004547,
          "durationTicks": 240,
          "midi": 55,
          "name": "G3",
          "ticks": 404400,
          "time": 337,
          "velocity": 0.8267716535433071
        },
        {
          "duration": 0.09666666666663559,
          "durationTicks": 116,
          "midi": 62,
          "name": "D4",
          "ticks": 404640,
          "time": 337.20000000000005,
          "velocity": 0.8267716535433071
        },
        {
          "duration": 0.19999999999998863,
          "durationTicks": 240,
          "midi": 55,
          "name": "G3",
          "ticks": 404760,
          "time": 337.3,
          "velocity": 0.8267716535433071
        },
        {
          "duration": 0.29666666666668107,
          "durationTicks": 356,
          "midi": 67,
          "name": "G4",
          "ticks": 404760,
          "time": 337.3,
          "velocity": 0.8267716535433071
        },
        {
          "duration": 0.19666666666671517,
          "durationTicks": 236,
          "midi": 55,
          "name": "G3",
          "ticks": 405000,
          "time": 337.5,
          "velocity": 0.8267716535433071
        },
        {
          "duration": 0.09666666666669244,
          "durationTicks": 116,
          "midi": 65,
          "name": "F4",
          "ticks": 405000,
          "time": 337.5,
          "velocity": 0.8267716535433071
        },
        {
          "duration": 0.19666666666665833,
          "durationTicks": 236,
          "midi": 55,
          "name": "G3",
          "ticks": 405120,
          "time": 337.6,
          "velocity": 0.6771653543307087
        },
        {
          "duration": 0.5333333333333599,
          "durationTicks": 640,
          "midi": 64,
          "name": "E4",
          "ticks": 405120,
          "time": 337.6,
          "velocity": 0.6771653543307087
        },
        {
          "duration": 0.19666666666665833,
          "durationTicks": 236,
          "midi": 55,
          "name": "G3",
          "ticks": 405360,
          "time": 337.8,
          "velocity": 0.6771653543307087
        },
        {
          "duration": 0.19666666666671517,
          "durationTicks": 236,
          "midi": 55,
          "name": "G3",
          "ticks": 405600,
          "time": 338,
          "velocity": 0.6771653543307087
        },
        {
          "duration": 0.19666666666665833,
          "durationTicks": 236,
          "midi": 55,
          "name": "G3",
          "ticks": 405840,
          "time": 338.20000000000005,
          "velocity": 0.6771653543307087
        },
        {
          "duration": 0.19666666666665833,
          "durationTicks": 236,
          "midi": 64,
          "name": "E4",
          "ticks": 405840,
          "time": 338.20000000000005,
          "velocity": 0.6771653543307087
        },
        {
          "duration": 0.19666666666665833,
          "durationTicks": 236,
          "midi": 55,
          "name": "G3",
          "ticks": 406080,
          "time": 338.40000000000003,
          "velocity": 0.6771653543307087
        },
        {
          "duration": 0.5333333333333599,
          "durationTicks": 640,
          "midi": 62,
          "name": "D4",
          "ticks": 406080,
          "time": 338.40000000000003,
          "velocity": 0.6771653543307087
        },
        {
          "duration": 0.19666666666665833,
          "durationTicks": 236,
          "midi": 55,
          "name": "G3",
          "ticks": 406320,
          "time": 338.6,
          "velocity": 0.6771653543307087
        },
        {
          "duration": 0.19666666666665833,
          "durationTicks": 236,
          "midi": 55,
          "name": "G3",
          "ticks": 406560,
          "time": 338.8,
          "velocity": 0.6771653543307087
        },
        {
          "duration": 0.19666666666671517,
          "durationTicks": 236,
          "midi": 55,
          "name": "G3",
          "ticks": 406800,
          "time": 339,
          "velocity": 0.6771653543307087
        },
        {
          "duration": 0.19666666666671517,
          "durationTicks": 236,
          "midi": 62,
          "name": "D4",
          "ticks": 406800,
          "time": 339,
          "velocity": 0.6771653543307087
        },
        {
          "duration": 0.19666666666665833,
          "durationTicks": 236,
          "midi": 48,
          "name": "C3",
          "ticks": 407040,
          "time": 339.20000000000005,
          "velocity": 0.6771653543307087
        },
        {
          "duration": 0.19666666666665833,
          "durationTicks": 236,
          "midi": 60,
          "name": "C4",
          "ticks": 407040,
          "time": 339.20000000000005,
          "velocity": 0.6771653543307087
        },
        {
          "duration": 0.19666666666665833,
          "durationTicks": 236,
          "midi": 48,
          "name": "C3",
          "ticks": 407280,
          "time": 339.40000000000003,
          "velocity": 0.6771653543307087
        },
        {
          "duration": 0.19666666666665833,
          "durationTicks": 236,
          "midi": 60,
          "name": "C4",
          "ticks": 407280,
          "time": 339.40000000000003,
          "velocity": 0.6771653543307087
        },
        {
          "duration": 0.19666666666665833,
          "durationTicks": 236,
          "midi": 48,
          "name": "C3",
          "ticks": 407520,
          "time": 339.6,
          "velocity": 0.6771653543307087
        },
        {
          "duration": 0.19666666666665833,
          "durationTicks": 236,
          "midi": 60,
          "name": "C4",
          "ticks": 407520,
          "time": 339.6,
          "velocity": 0.6771653543307087
        },
        {
          "duration": 0.19666666666665833,
          "durationTicks": 236,
          "midi": 48,
          "name": "C3",
          "ticks": 407760,
          "time": 339.8,
          "velocity": 0.6771653543307087
        },
        {
          "duration": 0.19666666666665833,
          "durationTicks": 236,
          "midi": 60,
          "name": "C4",
          "ticks": 407760,
          "time": 339.8,
          "velocity": 0.6771653543307087
        },
        {
          "duration": 0.19666666666671517,
          "durationTicks": 236,
          "midi": 50,
          "name": "D3",
          "ticks": 408000,
          "time": 340,
          "velocity": 0.6771653543307087
        },
        {
          "duration": 0.19666666666671517,
          "durationTicks": 236,
          "midi": 62,
          "name": "D4",
          "ticks": 408000,
          "time": 340,
          "velocity": 0.6771653543307087
        },
        {
          "duration": 0.19666666666665833,
          "durationTicks": 236,
          "midi": 50,
          "name": "D3",
          "ticks": 408240,
          "time": 340.20000000000005,
          "velocity": 0.6771653543307087
        },
        {
          "duration": 0.19666666666665833,
          "durationTicks": 236,
          "midi": 62,
          "name": "D4",
          "ticks": 408240,
          "time": 340.20000000000005,
          "velocity": 0.6771653543307087
        },
        {
          "duration": 0.19666666666665833,
          "durationTicks": 236,
          "midi": 50,
          "name": "D3",
          "ticks": 408480,
          "time": 340.40000000000003,
          "velocity": 0.6771653543307087
        },
        {
          "duration": 0.19666666666665833,
          "durationTicks": 236,
          "midi": 62,
          "name": "D4",
          "ticks": 408480,
          "time": 340.40000000000003,
          "velocity": 0.6771653543307087
        },
        {
          "duration": 0.19666666666665833,
          "durationTicks": 236,
          "midi": 50,
          "name": "D3",
          "ticks": 408720,
          "time": 340.6,
          "velocity": 0.6771653543307087
        },
        {
          "duration": 0.19666666666665833,
          "durationTicks": 236,
          "midi": 62,
          "name": "D4",
          "ticks": 408720,
          "time": 340.6,
          "velocity": 0.6771653543307087
        },
        {
          "duration": 0.6000000000000227,
          "durationTicks": 720,
          "midi": 55,
          "name": "G3",
          "ticks": 408960,
          "time": 340.8,
          "velocity": 0.6771653543307087
        },
        {
          "duration": 0.19666666666665833,
          "durationTicks": 236,
          "midi": 54,
          "name": "F#3",
          "ticks": 409680,
          "time": 341.40000000000003,
          "velocity": 0.6771653543307087
        },
        {
          "duration": 0.30000000000001137,
          "durationTicks": 360,
          "midi": 57,
          "name": "A3",
          "ticks": 409920,
          "time": 341.6,
          "velocity": 0.6771653543307087
        },
        {
          "duration": 0.09666666666663559,
          "durationTicks": 116,
          "midi": 55,
          "name": "G3",
          "ticks": 410280,
          "time": 341.90000000000003,
          "velocity": 0.6771653543307087
        },
        {
          "duration": 0.30000000000001137,
          "durationTicks": 360,
          "midi": 60,
          "name": "C4",
          "ticks": 410400,
          "time": 342,
          "velocity": 0.6771653543307087
        },
        {
          "duration": 0.09666666666669244,
          "durationTicks": 116,
          "midi": 59,
          "name": "B3",
          "ticks": 410760,
          "time": 342.3,
          "velocity": 0.6771653543307087
        },
        {
          "duration": 0.5999999999999659,
          "durationTicks": 720,
          "midi": 57,
          "name": "A3",
          "ticks": 410880,
          "time": 342.40000000000003,
          "velocity": 0.6771653543307087
        },
        {
          "duration": 0.19666666666671517,
          "durationTicks": 236,
          "midi": 56,
          "name": "G#3",
          "ticks": 411600,
          "time": 343,
          "velocity": 0.6771653543307087
        },
        {
          "duration": 0.2999999999999545,
          "durationTicks": 360,
          "midi": 59,
          "name": "B3",
          "ticks": 411840,
          "time": 343.20000000000005,
          "velocity": 0.6771653543307087
        },
        {
          "duration": 0.09666666666669244,
          "durationTicks": 116,
          "midi": 57,
          "name": "A3",
          "ticks": 412200,
          "time": 343.5,
          "velocity": 0.6771653543307087
        },
        {
          "duration": 0.30000000000001137,
          "durationTicks": 360,
          "midi": 62,
          "name": "D4",
          "ticks": 412320,
          "time": 343.6,
          "velocity": 0.6771653543307087
        },
        {
          "duration": 0.09666666666663559,
          "durationTicks": 116,
          "midi": 60,
          "name": "C4",
          "ticks": 412680,
          "time": 343.90000000000003,
          "velocity": 0.6771653543307087
        },
        {
          "duration": 0.6000000000000227,
          "durationTicks": 720,
          "midi": 59,
          "name": "B3",
          "ticks": 412800,
          "time": 344,
          "velocity": 0.6771653543307087
        },
        {
          "duration": 0.19666666666665833,
          "durationTicks": 236,
          "midi": 58,
          "name": "A#3",
          "ticks": 413520,
          "time": 344.6,
          "velocity": 0.6771653543307087
        },
        {
          "duration": 0.30000000000001137,
          "durationTicks": 360,
          "midi": 60,
          "name": "C4",
          "ticks": 413760,
          "time": 344.8,
          "velocity": 0.6771653543307087
        },
        {
          "duration": 0.09666666666669244,
          "durationTicks": 116,
          "midi": 59,
          "name": "B3",
          "ticks": 414120,
          "time": 345.1,
          "velocity": 0.6771653543307087
        },
        {
          "duration": 0.2999999999999545,
          "durationTicks": 360,
          "midi": 64,
          "name": "E4",
          "ticks": 414240,
          "time": 345.20000000000005,
          "velocity": 0.6771653543307087
        },
        {
          "duration": 0.09666666666669244,
          "durationTicks": 116,
          "midi": 62,
          "name": "D4",
          "ticks": 414600,
          "time": 345.5,
          "velocity": 0.6771653543307087
        },
        {
          "duration": 0.33333333333337123,
          "durationTicks": 400,
          "midi": 60,
          "name": "C4",
          "ticks": 414720,
          "time": 345.6,
          "velocity": 0.6771653543307087
        },
        {
          "duration": 0.33333333333337123,
          "durationTicks": 400,
          "midi": 62,
          "name": "D4",
          "ticks": 415200,
          "time": 346,
          "velocity": 0.6771653543307087
        },
        {
          "duration": 0.3333333333333144,
          "durationTicks": 400,
          "midi": 60,
          "name": "C4",
          "ticks": 415680,
          "time": 346.40000000000003,
          "velocity": 0.6771653543307087
        },
        {
          "duration": 0.33333333333337123,
          "durationTicks": 400,
          "midi": 56,
          "name": "G#3",
          "ticks": 416160,
          "time": 346.8,
          "velocity": 0.6771653543307087
        },
        {
          "duration": 0.19666666666665833,
          "durationTicks": 236,
          "midi": 57,
          "name": "A3",
          "ticks": 416640,
          "time": 347.20000000000005,
          "velocity": 0.6771653543307087
        },
        {
          "duration": 0.19666666666665833,
          "durationTicks": 236,
          "midi": 57,
          "name": "A3",
          "ticks": 416880,
          "time": 347.40000000000003,
          "velocity": 0.6771653543307087
        },
        {
          "duration": 0.19666666666665833,
          "durationTicks": 236,
          "midi": 55,
          "name": "G3",
          "ticks": 417120,
          "time": 347.6,
          "velocity": 0.6771653543307087
        },
        {
          "duration": 0.19666666666665833,
          "durationTicks": 236,
          "midi": 55,
          "name": "G3",
          "ticks": 417360,
          "time": 347.8,
          "velocity": 0.6771653543307087
        },
        {
          "duration": 0.19666666666671517,
          "durationTicks": 236,
          "midi": 54,
          "name": "F#3",
          "ticks": 417600,
          "time": 348,
          "velocity": 0.6771653543307087
        },
        {
          "duration": 0.19666666666665833,
          "durationTicks": 236,
          "midi": 54,
          "name": "F#3",
          "ticks": 417840,
          "time": 348.20000000000005,
          "velocity": 0.6771653543307087
        },
        {
          "duration": 0.19666666666665833,
          "durationTicks": 236,
          "midi": 55,
          "name": "G3",
          "ticks": 418080,
          "time": 348.40000000000003,
          "velocity": 0.6771653543307087
        },
        {
          "duration": 0.19666666666665833,
          "durationTicks": 236,
          "midi": 55,
          "name": "G3",
          "ticks": 418320,
          "time": 348.6,
          "velocity": 0.6771653543307087
        },
        {
          "duration": 0.33333333333337123,
          "durationTicks": 400,
          "midi": 54,
          "name": "F#3",
          "ticks": 418560,
          "time": 348.8,
          "velocity": 0.6771653543307087
        },
        {
          "duration": 0.19999999999998863,
          "durationTicks": 240,
          "midi": 59,
          "name": "B3",
          "ticks": 442080,
          "time": 368.40000000000003,
          "velocity": 0.8267716535433071
        },
        {
          "duration": 0.19999999999998863,
          "durationTicks": 240,
          "midi": 58,
          "name": "A#3",
          "ticks": 442320,
          "time": 368.6,
          "velocity": 0.8267716535433071
        },
        {
          "duration": 0.19999999999998863,
          "durationTicks": 240,
          "midi": 59,
          "name": "B3",
          "ticks": 442560,
          "time": 368.8,
          "velocity": 0.8267716535433071
        },
        {
          "duration": 0.20000000000004547,
          "durationTicks": 240,
          "midi": 58,
          "name": "A#3",
          "ticks": 442800,
          "time": 369,
          "velocity": 0.8267716535433071
        },
        {
          "duration": 0.19999999999998863,
          "durationTicks": 240,
          "midi": 59,
          "name": "B3",
          "ticks": 443040,
          "time": 369.20000000000005,
          "velocity": 0.8267716535433071
        },
        {
          "duration": 0.19666666666665833,
          "durationTicks": 236,
          "midi": 56,
          "name": "G#3",
          "ticks": 443280,
          "time": 369.40000000000003,
          "velocity": 0.8267716535433071
        },
        {
          "duration": 0.19666666666665833,
          "durationTicks": 236,
          "midi": 57,
          "name": "A3",
          "ticks": 443520,
          "time": 369.6,
          "velocity": 0.8267716535433071
        },
        {
          "duration": 0.20000000000004547,
          "durationTicks": 240,
          "midi": 57,
          "name": "A3",
          "ticks": 444000,
          "time": 370,
          "velocity": 0.8267716535433071
        },
        {
          "duration": 0.19999999999998863,
          "durationTicks": 240,
          "midi": 56,
          "name": "G#3",
          "ticks": 444240,
          "time": 370.20000000000005,
          "velocity": 0.8267716535433071
        },
        {
          "duration": 0.19999999999998863,
          "durationTicks": 240,
          "midi": 57,
          "name": "A3",
          "ticks": 444480,
          "time": 370.40000000000003,
          "velocity": 0.8267716535433071
        },
        {
          "duration": 0.19999999999998863,
          "durationTicks": 240,
          "midi": 56,
          "name": "G#3",
          "ticks": 444720,
          "time": 370.6,
          "velocity": 0.8267716535433071
        },
        {
          "duration": 0.19999999999998863,
          "durationTicks": 240,
          "midi": 57,
          "name": "A3",
          "ticks": 444960,
          "time": 370.8,
          "velocity": 0.8267716535433071
        },
        {
          "duration": 0.19666666666671517,
          "durationTicks": 236,
          "midi": 54,
          "name": "F#3",
          "ticks": 445200,
          "time": 371,
          "velocity": 0.8267716535433071
        },
        {
          "duration": 0.19666666666665833,
          "durationTicks": 236,
          "midi": 55,
          "name": "G3",
          "ticks": 445440,
          "time": 371.20000000000005,
          "velocity": 0.8267716535433071
        },
        {
          "duration": 0.19666666666665833,
          "durationTicks": 236,
          "midi": 52,
          "name": "E3",
          "ticks": 445920,
          "time": 371.6,
          "velocity": 0.8267716535433071
        },
        {
          "duration": 0.19666666666665833,
          "durationTicks": 236,
          "midi": 52,
          "name": "E3",
          "ticks": 446160,
          "time": 371.8,
          "velocity": 0.8267716535433071
        },
        {
          "duration": 0.19666666666671517,
          "durationTicks": 236,
          "midi": 48,
          "name": "C3",
          "ticks": 446400,
          "time": 372,
          "velocity": 0.8267716535433071
        },
        {
          "duration": 0.19666666666665833,
          "durationTicks": 236,
          "midi": 48,
          "name": "C3",
          "ticks": 446640,
          "time": 372.20000000000005,
          "velocity": 0.8267716535433071
        },
        {
          "duration": 0.19666666666665833,
          "durationTicks": 236,
          "midi": 50,
          "name": "D3",
          "ticks": 446880,
          "time": 372.40000000000003,
          "velocity": 0.8267716535433071
        },
        {
          "duration": 0.19666666666665833,
          "durationTicks": 236,
          "midi": 50,
          "name": "D3",
          "ticks": 447120,
          "time": 372.6,
          "velocity": 0.8267716535433071
        },
        {
          "duration": 0.19666666666665833,
          "durationTicks": 236,
          "midi": 55,
          "name": "G3",
          "ticks": 447360,
          "time": 372.8,
          "velocity": 0.8267716535433071
        },
        {
          "duration": 0.19999999999998863,
          "durationTicks": 240,
          "midi": 59,
          "name": "B3",
          "ticks": 447840,
          "time": 373.20000000000005,
          "velocity": 0.8267716535433071
        },
        {
          "duration": 0.19999999999998863,
          "durationTicks": 240,
          "midi": 58,
          "name": "A#3",
          "ticks": 448080,
          "time": 373.40000000000003,
          "velocity": 0.8267716535433071
        },
        {
          "duration": 0.19999999999998863,
          "durationTicks": 240,
          "midi": 59,
          "name": "B3",
          "ticks": 448320,
          "time": 373.6,
          "velocity": 0.8267716535433071
        },
        {
          "duration": 0.19999999999998863,
          "durationTicks": 240,
          "midi": 58,
          "name": "A#3",
          "ticks": 448560,
          "time": 373.8,
          "velocity": 0.8267716535433071
        },
        {
          "duration": 0.20000000000004547,
          "durationTicks": 240,
          "midi": 59,
          "name": "B3",
          "ticks": 448800,
          "time": 374,
          "velocity": 0.8267716535433071
        },
        {
          "duration": 0.19666666666665833,
          "durationTicks": 236,
          "midi": 56,
          "name": "G#3",
          "ticks": 449040,
          "time": 374.20000000000005,
          "velocity": 0.8267716535433071
        },
        {
          "duration": 0.19666666666665833,
          "durationTicks": 236,
          "midi": 57,
          "name": "A3",
          "ticks": 449280,
          "time": 374.40000000000003,
          "velocity": 0.8267716535433071
        },
        {
          "duration": 0.19999999999998863,
          "durationTicks": 240,
          "midi": 57,
          "name": "A3",
          "ticks": 449760,
          "time": 374.8,
          "velocity": 0.8267716535433071
        },
        {
          "duration": 0.20000000000004547,
          "durationTicks": 240,
          "midi": 56,
          "name": "G#3",
          "ticks": 450000,
          "time": 375,
          "velocity": 0.8267716535433071
        },
        {
          "duration": 0.19999999999998863,
          "durationTicks": 240,
          "midi": 57,
          "name": "A3",
          "ticks": 450240,
          "time": 375.20000000000005,
          "velocity": 0.8267716535433071
        },
        {
          "duration": 0.19999999999998863,
          "durationTicks": 240,
          "midi": 56,
          "name": "G#3",
          "ticks": 450480,
          "time": 375.40000000000003,
          "velocity": 0.8267716535433071
        },
        {
          "duration": 0.19999999999998863,
          "durationTicks": 240,
          "midi": 57,
          "name": "A3",
          "ticks": 450720,
          "time": 375.6,
          "velocity": 0.8267716535433071
        },
        {
          "duration": 0.19666666666665833,
          "durationTicks": 236,
          "midi": 54,
          "name": "F#3",
          "ticks": 450960,
          "time": 375.8,
          "velocity": 0.8267716535433071
        },
        {
          "duration": 0.19666666666671517,
          "durationTicks": 236,
          "midi": 55,
          "name": "G3",
          "ticks": 451200,
          "time": 376,
          "velocity": 0.8267716535433071
        },
        {
          "duration": 0.19666666666665833,
          "durationTicks": 236,
          "midi": 52,
          "name": "E3",
          "ticks": 451680,
          "time": 376.40000000000003,
          "velocity": 0.8267716535433071
        },
        {
          "duration": 0.19666666666665833,
          "durationTicks": 236,
          "midi": 52,
          "name": "E3",
          "ticks": 451920,
          "time": 376.6,
          "velocity": 0.8267716535433071
        },
        {
          "duration": 0.19666666666665833,
          "durationTicks": 236,
          "midi": 48,
          "name": "C3",
          "ticks": 452160,
          "time": 376.8,
          "velocity": 0.8267716535433071
        },
        {
          "duration": 0.19666666666671517,
          "durationTicks": 236,
          "midi": 48,
          "name": "C3",
          "ticks": 452400,
          "time": 377,
          "velocity": 0.8267716535433071
        },
        {
          "duration": 0.19666666666665833,
          "durationTicks": 236,
          "midi": 50,
          "name": "D3",
          "ticks": 452640,
          "time": 377.20000000000005,
          "velocity": 0.8267716535433071
        },
        {
          "duration": 0.19666666666665833,
          "durationTicks": 236,
          "midi": 50,
          "name": "D3",
          "ticks": 452880,
          "time": 377.40000000000003,
          "velocity": 0.8267716535433071
        },
        {
          "duration": 0.33333333333337123,
          "durationTicks": 400,
          "midi": 55,
          "name": "G3",
          "ticks": 453120,
          "time": 377.6,
          "velocity": 0.8267716535433071
        },
        {
          "duration": 0.33333333333337123,
          "durationTicks": 400,
          "midi": 55,
          "name": "G3",
          "ticks": 453600,
          "time": 378,
          "velocity": 0.8267716535433071
        },
        {
          "duration": 0.33333333333337123,
          "durationTicks": 400,
          "midi": 50,
          "name": "D3",
          "ticks": 454560,
          "time": 378.8,
          "velocity": 0.8267716535433071
        },
        {
          "duration": 0.33333333333337123,
          "durationTicks": 400,
          "midi": 55,
          "name": "G3",
          "ticks": 455520,
          "time": 379.6,
          "velocity": 0.8267716535433071
        },
        {
          "duration": 0.3333333333333144,
          "durationTicks": 400,
          "midi": 50,
          "name": "D3",
          "ticks": 456480,
          "time": 380.40000000000003,
          "velocity": 0.8267716535433071
        },
        {
          "duration": 0.3333333333333144,
          "durationTicks": 400,
          "midi": 55,
          "name": "G3",
          "ticks": 457440,
          "time": 381.20000000000005,
          "velocity": 0.8267716535433071
        },
        {
          "duration": 0.33333333333337123,
          "durationTicks": 400,
          "midi": 50,
          "name": "D3",
          "ticks": 458400,
          "time": 382,
          "velocity": 0.8267716535433071
        },
        {
          "duration": 0.3333333333333144,
          "durationTicks": 400,
          "midi": 55,
          "name": "G3",
          "ticks": 458880,
          "time": 382.40000000000003,
          "velocity": 0.8267716535433071
        },
        {
          "duration": 0.33333333333337123,
          "durationTicks": 400,
          "midi": 55,
          "name": "G3",
          "ticks": 459360,
          "time": 382.8,
          "velocity": 0.8267716535433071
        },
        {
          "duration": 0.3333333333333144,
          "durationTicks": 400,
          "midi": 43,
          "name": "G2",
          "ticks": 459840,
          "time": 383.20000000000005,
          "velocity": 0.8267716535433071
        },
        {
          "duration": 0.19999999999998863,
          "durationTicks": 240,
          "midi": 51,
          "name": "D#3",
          "ticks": 464640,
          "time": 387.20000000000005,
          "velocity": 0.4015748031496063
        },
        {
          "duration": 0.19999999999998863,
          "durationTicks": 240,
          "midi": 55,
          "name": "G3",
          "ticks": 464880,
          "time": 387.40000000000003,
          "velocity": 0.4015748031496063
        },
        {
          "duration": 0.19999999999998863,
          "durationTicks": 240,
          "midi": 58,
          "name": "A#3",
          "ticks": 465120,
          "time": 387.6,
          "velocity": 0.4015748031496063
        },
        {
          "duration": 0.19666666666665833,
          "durationTicks": 236,
          "midi": 55,
          "name": "G3",
          "ticks": 465360,
          "time": 387.8,
          "velocity": 0.4015748031496063
        },
        {
          "duration": 0.20000000000004547,
          "durationTicks": 240,
          "midi": 51,
          "name": "D#3",
          "ticks": 465600,
          "time": 388,
          "velocity": 0.4015748031496063
        },
        {
          "duration": 0.19999999999998863,
          "durationTicks": 240,
          "midi": 55,
          "name": "G3",
          "ticks": 465840,
          "time": 388.20000000000005,
          "velocity": 0.4015748031496063
        },
        {
          "duration": 0.19999999999998863,
          "durationTicks": 240,
          "midi": 58,
          "name": "A#3",
          "ticks": 466080,
          "time": 388.40000000000003,
          "velocity": 0.4015748031496063
        },
        {
          "duration": 0.19666666666665833,
          "durationTicks": 236,
          "midi": 55,
          "name": "G3",
          "ticks": 466320,
          "time": 388.6,
          "velocity": 0.4015748031496063
        },
        {
          "duration": 0.33333333333337123,
          "durationTicks": 400,
          "midi": 46,
          "name": "A#2",
          "ticks": 466560,
          "time": 388.8,
          "velocity": 0.4015748031496063
        },
        {
          "duration": 0.19999999999998863,
          "durationTicks": 240,
          "midi": 50,
          "name": "D3",
          "ticks": 466560,
          "time": 388.8,
          "velocity": 0.4015748031496063
        },
        {
          "duration": 0.20000000000004547,
          "durationTicks": 240,
          "midi": 56,
          "name": "G#3",
          "ticks": 466800,
          "time": 389,
          "velocity": 0.4015748031496063
        },
        {
          "duration": 0.19999999999998863,
          "durationTicks": 240,
          "midi": 58,
          "name": "A#3",
          "ticks": 467040,
          "time": 389.20000000000005,
          "velocity": 0.4015748031496063
        },
        {
          "duration": 0.19666666666665833,
          "durationTicks": 236,
          "midi": 56,
          "name": "G#3",
          "ticks": 467280,
          "time": 389.40000000000003,
          "velocity": 0.4015748031496063
        },
        {
          "duration": 0.19999999999998863,
          "durationTicks": 240,
          "midi": 50,
          "name": "D3",
          "ticks": 467520,
          "time": 389.6,
          "velocity": 0.4015748031496063
        },
        {
          "duration": 0.19999999999998863,
          "durationTicks": 240,
          "midi": 56,
          "name": "G#3",
          "ticks": 467760,
          "time": 389.8,
          "velocity": 0.4015748031496063
        },
        {
          "duration": 0.20000000000004547,
          "durationTicks": 240,
          "midi": 58,
          "name": "A#3",
          "ticks": 468000,
          "time": 390,
          "velocity": 0.4015748031496063
        },
        {
          "duration": 0.19666666666665833,
          "durationTicks": 236,
          "midi": 56,
          "name": "G#3",
          "ticks": 468240,
          "time": 390.20000000000005,
          "velocity": 0.4015748031496063
        },
        {
          "duration": 0.19999999999998863,
          "durationTicks": 240,
          "midi": 51,
          "name": "D#3",
          "ticks": 468480,
          "time": 390.40000000000003,
          "velocity": 0.4015748031496063
        },
        {
          "duration": 0.19999999999998863,
          "durationTicks": 240,
          "midi": 55,
          "name": "G3",
          "ticks": 468720,
          "time": 390.6,
          "velocity": 0.4015748031496063
        },
        {
          "duration": 0.19999999999998863,
          "durationTicks": 240,
          "midi": 58,
          "name": "A#3",
          "ticks": 468960,
          "time": 390.8,
          "velocity": 0.4015748031496063
        },
        {
          "duration": 0.19666666666671517,
          "durationTicks": 236,
          "midi": 55,
          "name": "G3",
          "ticks": 469200,
          "time": 391,
          "velocity": 0.4015748031496063
        },
        {
          "duration": 0.19999999999998863,
          "durationTicks": 240,
          "midi": 51,
          "name": "D#3",
          "ticks": 469440,
          "time": 391.20000000000005,
          "velocity": 0.4015748031496063
        },
        {
          "duration": 0.19999999999998863,
          "durationTicks": 240,
          "midi": 55,
          "name": "G3",
          "ticks": 469680,
          "time": 391.40000000000003,
          "velocity": 0.4015748031496063
        },
        {
          "duration": 0.19999999999998863,
          "durationTicks": 240,
          "midi": 58,
          "name": "A#3",
          "ticks": 469920,
          "time": 391.6,
          "velocity": 0.4015748031496063
        },
        {
          "duration": 0.19666666666665833,
          "durationTicks": 236,
          "midi": 55,
          "name": "G3",
          "ticks": 470160,
          "time": 391.8,
          "velocity": 0.4015748031496063
        },
        {
          "duration": 0.33333333333337123,
          "durationTicks": 400,
          "midi": 46,
          "name": "A#2",
          "ticks": 470400,
          "time": 392,
          "velocity": 0.4015748031496063
        },
        {
          "duration": 0.20000000000004547,
          "durationTicks": 240,
          "midi": 50,
          "name": "D3",
          "ticks": 470400,
          "time": 392,
          "velocity": 0.4015748031496063
        },
        {
          "duration": 0.19999999999998863,
          "durationTicks": 240,
          "midi": 56,
          "name": "G#3",
          "ticks": 470640,
          "time": 392.20000000000005,
          "velocity": 0.4015748031496063
        },
        {
          "duration": 0.19999999999998863,
          "durationTicks": 240,
          "midi": 58,
          "name": "A#3",
          "ticks": 470880,
          "time": 392.40000000000003,
          "velocity": 0.4015748031496063
        },
        {
          "duration": 0.19666666666665833,
          "durationTicks": 236,
          "midi": 56,
          "name": "G#3",
          "ticks": 471120,
          "time": 392.6,
          "velocity": 0.4015748031496063
        },
        {
          "duration": 0.19999999999998863,
          "durationTicks": 240,
          "midi": 50,
          "name": "D3",
          "ticks": 471360,
          "time": 392.8,
          "velocity": 0.4015748031496063
        },
        {
          "duration": 0.20000000000004547,
          "durationTicks": 240,
          "midi": 56,
          "name": "G#3",
          "ticks": 471600,
          "time": 393,
          "velocity": 0.4015748031496063
        },
        {
          "duration": 0.19999999999998863,
          "durationTicks": 240,
          "midi": 58,
          "name": "A#3",
          "ticks": 471840,
          "time": 393.20000000000005,
          "velocity": 0.4015748031496063
        },
        {
          "duration": 0.19666666666665833,
          "durationTicks": 236,
          "midi": 56,
          "name": "G#3",
          "ticks": 472080,
          "time": 393.40000000000003,
          "velocity": 0.4015748031496063
        },
        {
          "duration": 0.33333333333337123,
          "durationTicks": 400,
          "midi": 51,
          "name": "D#3",
          "ticks": 472320,
          "time": 393.6,
          "velocity": 0.4015748031496063
        },
        {
          "duration": 0.19999999999998863,
          "durationTicks": 240,
          "midi": 55,
          "name": "G3",
          "ticks": 472320,
          "time": 393.6,
          "velocity": 0.4015748031496063
        },
        {
          "duration": 0.19999999999998863,
          "durationTicks": 240,
          "midi": 58,
          "name": "A#3",
          "ticks": 472560,
          "time": 393.8,
          "velocity": 0.4015748031496063
        },
        {
          "duration": 0.20000000000004547,
          "durationTicks": 240,
          "midi": 63,
          "name": "D#4",
          "ticks": 472800,
          "time": 394,
          "velocity": 0.4015748031496063
        },
        {
          "duration": 0.19666666666665833,
          "durationTicks": 236,
          "midi": 61,
          "name": "C#4",
          "ticks": 473040,
          "time": 394.20000000000005,
          "velocity": 0.4015748031496063
        },
        {
          "duration": 0.19999999999998863,
          "durationTicks": 240,
          "midi": 55,
          "name": "G3",
          "ticks": 473280,
          "time": 394.40000000000003,
          "velocity": 0.4015748031496063
        },
        {
          "duration": 0.19999999999998863,
          "durationTicks": 240,
          "midi": 58,
          "name": "A#3",
          "ticks": 473520,
          "time": 394.6,
          "velocity": 0.4015748031496063
        },
        {
          "duration": 0.19999999999998863,
          "durationTicks": 240,
          "midi": 63,
          "name": "D#4",
          "ticks": 473760,
          "time": 394.8,
          "velocity": 0.4015748031496063
        },
        {
          "duration": 0.19666666666671517,
          "durationTicks": 236,
          "midi": 61,
          "name": "C#4",
          "ticks": 474000,
          "time": 395,
          "velocity": 0.4015748031496063
        },
        {
          "duration": 0.3333333333333144,
          "durationTicks": 400,
          "midi": 46,
          "name": "A#2",
          "ticks": 474240,
          "time": 395.20000000000005,
          "velocity": 0.4015748031496063
        },
        {
          "duration": 0.19999999999998863,
          "durationTicks": 240,
          "midi": 56,
          "name": "G#3",
          "ticks": 474240,
          "time": 395.20000000000005,
          "velocity": 0.4015748031496063
        },
        {
          "duration": 0.19999999999998863,
          "durationTicks": 240,
          "midi": 58,
          "name": "A#3",
          "ticks": 474480,
          "time": 395.40000000000003,
          "velocity": 0.4015748031496063
        },
        {
          "duration": 0.19999999999998863,
          "durationTicks": 240,
          "midi": 62,
          "name": "D4",
          "ticks": 474720,
          "time": 395.6,
          "velocity": 0.4015748031496063
        },
        {
          "duration": 0.19666666666665833,
          "durationTicks": 236,
          "midi": 58,
          "name": "A#3",
          "ticks": 474960,
          "time": 395.8,
          "velocity": 0.4015748031496063
        },
        {
          "duration": 0.20000000000004547,
          "durationTicks": 240,
          "midi": 56,
          "name": "G#3",
          "ticks": 475200,
          "time": 396,
          "velocity": 0.4015748031496063
        },
        {
          "duration": 0.19999999999998863,
          "durationTicks": 240,
          "midi": 58,
          "name": "A#3",
          "ticks": 475440,
          "time": 396.20000000000005,
          "velocity": 0.4015748031496063
        },
        {
          "duration": 0.19999999999998863,
          "durationTicks": 240,
          "midi": 62,
          "name": "D4",
          "ticks": 475680,
          "time": 396.40000000000003,
          "velocity": 0.4015748031496063
        },
        {
          "duration": 0.19666666666665833,
          "durationTicks": 236,
          "midi": 58,
          "name": "A#3",
          "ticks": 475920,
          "time": 396.6,
          "velocity": 0.4015748031496063
        },
        {
          "duration": 0.33333333333337123,
          "durationTicks": 400,
          "midi": 51,
          "name": "D#3",
          "ticks": 476160,
          "time": 396.8,
          "velocity": 0.4015748031496063
        },
        {
          "duration": 0.33333333333337123,
          "durationTicks": 400,
          "midi": 55,
          "name": "G3",
          "ticks": 476160,
          "time": 396.8,
          "velocity": 0.4015748031496063
        },
        {
          "duration": 0.19666666666665833,
          "durationTicks": 236,
          "midi": 46,
          "name": "A#2",
          "ticks": 479040,
          "time": 399.20000000000005,
          "velocity": 0.4015748031496063
        },
        {
          "duration": 0.19666666666665833,
          "durationTicks": 236,
          "midi": 46,
          "name": "A#2",
          "ticks": 479520,
          "time": 399.6,
          "velocity": 0.4015748031496063
        },
        {
          "duration": 0.33333333333337123,
          "durationTicks": 400,
          "midi": 51,
          "name": "D#3",
          "ticks": 480000,
          "time": 400,
          "velocity": 0.4015748031496063
        },
        {
          "duration": 0.19666666666665833,
          "durationTicks": 236,
          "midi": 46,
          "name": "A#2",
          "ticks": 482880,
          "time": 402.40000000000003,
          "velocity": 0.4015748031496063
        },
        {
          "duration": 0.19666666666665833,
          "durationTicks": 236,
          "midi": 46,
          "name": "A#2",
          "ticks": 483360,
          "time": 402.8,
          "velocity": 0.4015748031496063
        },
        {
          "duration": 0.3333333333333144,
          "durationTicks": 400,
          "midi": 51,
          "name": "D#3",
          "ticks": 483840,
          "time": 403.20000000000005,
          "velocity": 0.4015748031496063
        },
        {
          "duration": 0.33333333333337123,
          "durationTicks": 400,
          "midi": 56,
          "name": "G#3",
          "ticks": 484800,
          "time": 404,
          "velocity": 0.8267716535433071
        },
        {
          "duration": 0.19999999999998863,
          "durationTicks": 240,
          "midi": 55,
          "name": "G3",
          "ticks": 485760,
          "time": 404.8,
          "velocity": 0.8267716535433071
        },
        {
          "duration": 0.19666666666671517,
          "durationTicks": 236,
          "midi": 58,
          "name": "A#3",
          "ticks": 486000,
          "time": 405,
          "velocity": 0.8267716535433071
        },
        {
          "duration": 0.06666666666660603,
          "durationTicks": 80,
          "midi": 55,
          "name": "G3",
          "ticks": 486240,
          "time": 405.20000000000005,
          "velocity": 0.8267716535433071
        },
        {
          "duration": 0.06666666666666288,
          "durationTicks": 80,
          "midi": 51,
          "name": "D#3",
          "ticks": 486480,
          "time": 405.40000000000003,
          "velocity": 0.8267716535433071
        },
        {
          "duration": 0.06666666666666288,
          "durationTicks": 80,
          "midi": 50,
          "name": "D3",
          "ticks": 486720,
          "time": 405.6,
          "velocity": 0.8267716535433071
        },
        {
          "duration": 0.06666666666666288,
          "durationTicks": 80,
          "midi": 51,
          "name": "D#3",
          "ticks": 486960,
          "time": 405.8,
          "velocity": 0.8267716535433071
        },
        {
          "duration": 0.06666666666666288,
          "durationTicks": 80,
          "midi": 53,
          "name": "F3",
          "ticks": 487200,
          "time": 406,
          "velocity": 0.8267716535433071
        },
        {
          "duration": 0.06666666666660603,
          "durationTicks": 80,
          "midi": 55,
          "name": "G3",
          "ticks": 487440,
          "time": 406.20000000000005,
          "velocity": 0.8267716535433071
        },
        {
          "duration": 0.3333333333333144,
          "durationTicks": 400,
          "midi": 51,
          "name": "D#3",
          "ticks": 487680,
          "time": 406.40000000000003,
          "velocity": 0.8267716535433071
        },
        {
          "duration": 0.3333333333333144,
          "durationTicks": 400,
          "midi": 58,
          "name": "A#3",
          "ticks": 488640,
          "time": 407.20000000000005,
          "velocity": 0.8267716535433071
        },
        {
          "duration": 0.20000000000004547,
          "durationTicks": 240,
          "midi": 56,
          "name": "G#3",
          "ticks": 489600,
          "time": 408,
          "velocity": 0.8267716535433071
        },
        {
          "duration": 0.19666666666665833,
          "durationTicks": 236,
          "midi": 60,
          "name": "C4",
          "ticks": 489840,
          "time": 408.20000000000005,
          "velocity": 0.8267716535433071
        },
        {
          "duration": 0.06666666666666288,
          "durationTicks": 80,
          "midi": 56,
          "name": "G#3",
          "ticks": 490080,
          "time": 408.40000000000003,
          "velocity": 0.8267716535433071
        },
        {
          "duration": 0.06666666666666288,
          "durationTicks": 80,
          "midi": 53,
          "name": "F3",
          "ticks": 490320,
          "time": 408.6,
          "velocity": 0.8267716535433071
        },
        {
          "duration": 0.06666666666666288,
          "durationTicks": 80,
          "midi": 52,
          "name": "E3",
          "ticks": 490560,
          "time": 408.8,
          "velocity": 0.8267716535433071
        },
        {
          "duration": 0.06666666666666288,
          "durationTicks": 80,
          "midi": 53,
          "name": "F3",
          "ticks": 490800,
          "time": 409,
          "velocity": 0.8267716535433071
        },
        {
          "duration": 0.06666666666660603,
          "durationTicks": 80,
          "midi": 55,
          "name": "G3",
          "ticks": 491040,
          "time": 409.20000000000005,
          "velocity": 0.8267716535433071
        },
        {
          "duration": 0.06666666666666288,
          "durationTicks": 80,
          "midi": 57,
          "name": "A3",
          "ticks": 491280,
          "time": 409.40000000000003,
          "velocity": 0.8267716535433071
        },
        {
          "duration": 0.3333333333333144,
          "durationTicks": 400,
          "midi": 53,
          "name": "F3",
          "ticks": 491520,
          "time": 409.6,
          "velocity": 0.8267716535433071
        },
        {
          "duration": 0.3333333333333144,
          "durationTicks": 400,
          "midi": 60,
          "name": "C4",
          "ticks": 492480,
          "time": 410.40000000000003,
          "velocity": 0.8267716535433071
        },
        {
          "duration": 0.19999999999998863,
          "durationTicks": 240,
          "midi": 58,
          "name": "A#3",
          "ticks": 493440,
          "time": 411.20000000000005,
          "velocity": 0.8267716535433071
        },
        {
          "duration": 0.1966666666666015,
          "durationTicks": 236,
          "midi": 62,
          "name": "D4",
          "ticks": 493680,
          "time": 411.40000000000003,
          "velocity": 0.8267716535433071
        },
        {
          "duration": 0.06666666666671972,
          "durationTicks": 80,
          "midi": 58,
          "name": "A#3",
          "ticks": 493920,
          "time": 411.6,
          "velocity": 0.8267716535433071
        },
        {
          "duration": 0.06666666666671972,
          "durationTicks": 80,
          "midi": 55,
          "name": "G3",
          "ticks": 494160,
          "time": 411.8,
          "velocity": 0.8267716535433071
        },
        {
          "duration": 0.06666666666671972,
          "durationTicks": 80,
          "midi": 54,
          "name": "F#3",
          "ticks": 494400,
          "time": 412,
          "velocity": 0.8267716535433071
        },
        {
          "duration": 0.06666666666666288,
          "durationTicks": 80,
          "midi": 55,
          "name": "G3",
          "ticks": 494640,
          "time": 412.20000000000005,
          "velocity": 0.8267716535433071
        },
        {
          "duration": 0.06666666666666288,
          "durationTicks": 80,
          "midi": 57,
          "name": "A3",
          "ticks": 494880,
          "time": 412.40000000000003,
          "velocity": 0.8267716535433071
        },
        {
          "duration": 0.06666666666671972,
          "durationTicks": 80,
          "midi": 58,
          "name": "A#3",
          "ticks": 495120,
          "time": 412.6,
          "velocity": 0.8267716535433071
        },
        {
          "duration": 0.3333333333333144,
          "durationTicks": 400,
          "midi": 55,
          "name": "G3",
          "ticks": 495360,
          "time": 412.8,
          "velocity": 0.8267716535433071
        },
        {
          "duration": 0.19999999999998863,
          "durationTicks": 240,
          "midi": 58,
          "name": "A#3",
          "ticks": 496320,
          "time": 413.6,
          "velocity": 0.8267716535433071
        },
        {
          "duration": 0.19666666666665833,
          "durationTicks": 236,
          "midi": 61,
          "name": "C#4",
          "ticks": 496560,
          "time": 413.8,
          "velocity": 0.8267716535433071
        },
        {
          "duration": 0.06666666666671972,
          "durationTicks": 80,
          "midi": 58,
          "name": "A#3",
          "ticks": 496800,
          "time": 414,
          "velocity": 0.8267716535433071
        },
        {
          "duration": 0.06666666666666288,
          "durationTicks": 80,
          "midi": 56,
          "name": "G#3",
          "ticks": 497040,
          "time": 414.20000000000005,
          "velocity": 0.8267716535433071
        },
        {
          "duration": 0.19999999999998863,
          "durationTicks": 240,
          "midi": 55,
          "name": "G3",
          "ticks": 497280,
          "time": 414.40000000000003,
          "velocity": 0.8267716535433071
        },
        {
          "duration": 0.1966666666666015,
          "durationTicks": 236,
          "midi": 58,
          "name": "A#3",
          "ticks": 497520,
          "time": 414.6,
          "velocity": 0.8267716535433071
        },
        {
          "duration": 0.06666666666671972,
          "durationTicks": 80,
          "midi": 55,
          "name": "G3",
          "ticks": 497760,
          "time": 414.8,
          "velocity": 0.8267716535433071
        },
        {
          "duration": 0.06666666666671972,
          "durationTicks": 80,
          "midi": 53,
          "name": "F3",
          "ticks": 498000,
          "time": 415,
          "velocity": 0.8267716535433071
        },
        {
          "duration": 0.1966666666666015,
          "durationTicks": 236,
          "midi": 52,
          "name": "E3",
          "ticks": 498240,
          "time": 415.20000000000005,
          "velocity": 0.8267716535433071
        },
        {
          "duration": 0.1966666666666015,
          "durationTicks": 236,
          "midi": 55,
          "name": "G3",
          "ticks": 498480,
          "time": 415.40000000000003,
          "velocity": 0.8267716535433071
        },
        {
          "duration": 0.1966666666666015,
          "durationTicks": 236,
          "midi": 48,
          "name": "C3",
          "ticks": 498720,
          "time": 415.6,
          "velocity": 0.8267716535433071
        },
        {
          "duration": 0.19666666666665833,
          "durationTicks": 236,
          "midi": 52,
          "name": "E3",
          "ticks": 498960,
          "time": 415.8,
          "velocity": 0.8267716535433071
        },
        {
          "duration": 0.3333333333333144,
          "durationTicks": 400,
          "midi": 53,
          "name": "F3",
          "ticks": 499200,
          "time": 416,
          "velocity": 0.8267716535433071
        },
        {
          "duration": 0.3333333333333144,
          "durationTicks": 400,
          "midi": 41,
          "name": "F2",
          "ticks": 499680,
          "time": 416.40000000000003,
          "velocity": 0.8267716535433071
        },
        {
          "duration": 0.19999999999998863,
          "durationTicks": 240,
          "midi": 56,
          "name": "G#3",
          "ticks": 500160,
          "time": 416.8,
          "velocity": 0.8267716535433071
        },
        {
          "duration": 0.19666666666665833,
          "durationTicks": 236,
          "midi": 60,
          "name": "C4",
          "ticks": 500400,
          "time": 417,
          "velocity": 0.8267716535433071
        },
        {
          "duration": 0.06666666666666288,
          "durationTicks": 80,
          "midi": 56,
          "name": "G#3",
          "ticks": 500640,
          "time": 417.20000000000005,
          "velocity": 0.8267716535433071
        },
        {
          "duration": 0.06666666666666288,
          "durationTicks": 80,
          "midi": 55,
          "name": "G3",
          "ticks": 500880,
          "time": 417.40000000000003,
          "velocity": 0.8267716535433071
        },
        {
          "duration": 0.19999999999998863,
          "durationTicks": 240,
          "midi": 53,
          "name": "F3",
          "ticks": 501120,
          "time": 417.6,
          "velocity": 0.8267716535433071
        },
        {
          "duration": 0.19666666666665833,
          "durationTicks": 236,
          "midi": 56,
          "name": "G#3",
          "ticks": 501360,
          "time": 417.8,
          "velocity": 0.8267716535433071
        },
        {
          "duration": 0.06666666666671972,
          "durationTicks": 80,
          "midi": 53,
          "name": "F3",
          "ticks": 501600,
          "time": 418,
          "velocity": 0.8267716535433071
        },
        {
          "duration": 0.06666666666666288,
          "durationTicks": 80,
          "midi": 51,
          "name": "D#3",
          "ticks": 501840,
          "time": 418.20000000000005,
          "velocity": 0.8267716535433071
        },
        {
          "duration": 0.1966666666666015,
          "durationTicks": 236,
          "midi": 50,
          "name": "D3",
          "ticks": 502080,
          "time": 418.40000000000003,
          "velocity": 0.8267716535433071
        },
        {
          "duration": 0.1966666666666015,
          "durationTicks": 236,
          "midi": 53,
          "name": "F3",
          "ticks": 502320,
          "time": 418.6,
          "velocity": 0.8267716535433071
        },
        {
          "duration": 0.19666666666665833,
          "durationTicks": 236,
          "midi": 46,
          "name": "A#2",
          "ticks": 502560,
          "time": 418.8,
          "velocity": 0.8267716535433071
        },
        {
          "duration": 0.19666666666665833,
          "durationTicks": 236,
          "midi": 50,
          "name": "D3",
          "ticks": 502800,
          "time": 419,
          "velocity": 0.8267716535433071
        },
        {
          "duration": 0.33333333333325754,
          "durationTicks": 400,
          "midi": 51,
          "name": "D#3",
          "ticks": 503040,
          "time": 419.20000000000005,
          "velocity": 0.8267716535433071
        },
        {
          "duration": 0.19666666666665833,
          "durationTicks": 236,
          "midi": 63,
          "name": "D#4",
          "ticks": 503760,
          "time": 419.8,
          "velocity": 0.8267716535433071
        },
        {
          "duration": 0.20000000000004547,
          "durationTicks": 240,
          "midi": 60,
          "name": "C4",
          "ticks": 504000,
          "time": 420,
          "velocity": 0.8267716535433071
        },
        {
          "duration": 0.1966666666666015,
          "durationTicks": 236,
          "midi": 63,
          "name": "D#4",
          "ticks": 504240,
          "time": 420.20000000000005,
          "velocity": 0.8267716535433071
        },
        {
          "duration": 0.06666666666666288,
          "durationTicks": 80,
          "midi": 56,
          "name": "G#3",
          "ticks": 504480,
          "time": 420.40000000000003,
          "velocity": 0.8267716535433071
        },
        {
          "duration": 0.06666666666671972,
          "durationTicks": 80,
          "midi": 60,
          "name": "C4",
          "ticks": 504720,
          "time": 420.6,
          "velocity": 0.8267716535433071
        },
        {
          "duration": 0.3333333333333144,
          "durationTicks": 400,
          "midi": 62,
          "name": "D4",
          "ticks": 504960,
          "time": 420.8,
          "velocity": 0.8267716535433071
        },
        {
          "duration": 0.1966666666666015,
          "durationTicks": 236,
          "midi": 62,
          "name": "D4",
          "ticks": 505680,
          "time": 421.40000000000003,
          "velocity": 0.8267716535433071
        },
        {
          "duration": 0.19999999999998863,
          "durationTicks": 240,
          "midi": 59,
          "name": "B3",
          "ticks": 505920,
          "time": 421.6,
          "velocity": 0.8267716535433071
        },
        {
          "duration": 0.19666666666665833,
          "durationTicks": 236,
          "midi": 62,
          "name": "D4",
          "ticks": 506160,
          "time": 421.8,
          "velocity": 0.8267716535433071
        },
        {
          "duration": 0.06666666666671972,
          "durationTicks": 80,
          "midi": 55,
          "name": "G3",
          "ticks": 506400,
          "time": 422,
          "velocity": 0.8267716535433071
        },
        {
          "duration": 0.06666666666666288,
          "durationTicks": 80,
          "midi": 59,
          "name": "B3",
          "ticks": 506640,
          "time": 422.20000000000005,
          "velocity": 0.8267716535433071
        },
        {
          "duration": 0.3333333333333144,
          "durationTicks": 400,
          "midi": 60,
          "name": "C4",
          "ticks": 506880,
          "time": 422.40000000000003,
          "velocity": 0.8267716535433071
        },
        {
          "duration": 0.19666666666665833,
          "durationTicks": 236,
          "midi": 67,
          "name": "G4",
          "ticks": 507600,
          "time": 423,
          "velocity": 0.8267716535433071
        },
        {
          "duration": 0.19999999999998863,
          "durationTicks": 240,
          "midi": 63,
          "name": "D#4",
          "ticks": 507840,
          "time": 423.20000000000005,
          "velocity": 0.8267716535433071
        },
        {
          "duration": 0.1966666666666015,
          "durationTicks": 236,
          "midi": 67,
          "name": "G4",
          "ticks": 508080,
          "time": 423.40000000000003,
          "velocity": 0.8267716535433071
        },
        {
          "duration": 0.06666666666671972,
          "durationTicks": 80,
          "midi": 63,
          "name": "D#4",
          "ticks": 508320,
          "time": 423.6,
          "velocity": 0.8267716535433071
        },
        {
          "duration": 0.06666666666671972,
          "durationTicks": 80,
          "midi": 62,
          "name": "D4",
          "ticks": 508560,
          "time": 423.8,
          "velocity": 0.8267716535433071
        },
        {
          "duration": 0.20000000000004547,
          "durationTicks": 240,
          "midi": 60,
          "name": "C4",
          "ticks": 508800,
          "time": 424,
          "velocity": 0.8267716535433071
        },
        {
          "duration": 0.1966666666666015,
          "durationTicks": 236,
          "midi": 63,
          "name": "D#4",
          "ticks": 509040,
          "time": 424.20000000000005,
          "velocity": 0.8267716535433071
        },
        {
          "duration": 0.06666666666666288,
          "durationTicks": 80,
          "midi": 60,
          "name": "C4",
          "ticks": 509280,
          "time": 424.40000000000003,
          "velocity": 0.8267716535433071
        },
        {
          "duration": 0.06666666666671972,
          "durationTicks": 80,
          "midi": 58,
          "name": "A#3",
          "ticks": 509520,
          "time": 424.6,
          "velocity": 0.8267716535433071
        },
        {
          "duration": 0.06666666666671972,
          "durationTicks": 80,
          "midi": 57,
          "name": "A3",
          "ticks": 509760,
          "time": 424.8,
          "velocity": 0.8267716535433071
        },
        {
          "duration": 0.06666666666671972,
          "durationTicks": 80,
          "midi": 60,
          "name": "C4",
          "ticks": 510000,
          "time": 425,
          "velocity": 0.8267716535433071
        },
        {
          "duration": 0.06666666666666288,
          "durationTicks": 80,
          "midi": 50,
          "name": "D3",
          "ticks": 510240,
          "time": 425.20000000000005,
          "velocity": 0.8267716535433071
        },
        {
          "duration": 0.06666666666666288,
          "durationTicks": 80,
          "midi": 54,
          "name": "F#3",
          "ticks": 510480,
          "time": 425.40000000000003,
          "velocity": 0.8267716535433071
        },
        {
          "duration": 0.6000000000000227,
          "durationTicks": 720,
          "midi": 55,
          "name": "G3",
          "ticks": 510720,
          "time": 425.6,
          "velocity": 0.8267716535433071
        },
        {
          "duration": 0.1966666666666015,
          "durationTicks": 236,
          "midi": 58,
          "name": "A#3",
          "ticks": 511440,
          "time": 426.20000000000005,
          "velocity": 0.8267716535433071
        },
        {
          "duration": 0.5999999999999659,
          "durationTicks": 720,
          "midi": 51,
          "name": "D#3",
          "ticks": 511680,
          "time": 426.40000000000003,
          "velocity": 0.8267716535433071
        },
        {
          "duration": 0.19666666666665833,
          "durationTicks": 236,
          "midi": 60,
          "name": "C4",
          "ticks": 512400,
          "time": 427,
          "velocity": 0.8267716535433071
        },
        {
          "duration": 0.19999999999998863,
          "durationTicks": 240,
          "midi": 57,
          "name": "A3",
          "ticks": 512640,
          "time": 427.20000000000005,
          "velocity": 0.8267716535433071
        },
        {
          "duration": 0.1966666666666015,
          "durationTicks": 236,
          "midi": 63,
          "name": "D#4",
          "ticks": 512880,
          "time": 427.40000000000003,
          "velocity": 0.8267716535433071
        },
        {
          "duration": 0.06666666666671972,
          "durationTicks": 80,
          "midi": 60,
          "name": "C4",
          "ticks": 513120,
          "time": 427.6,
          "velocity": 0.8267716535433071
        },
        {
          "duration": 0.06666666666671972,
          "durationTicks": 80,
          "midi": 57,
          "name": "A3",
          "ticks": 513360,
          "time": 427.8,
          "velocity": 0.8267716535433071
        },
        {
          "duration": 0.06666666666671972,
          "durationTicks": 80,
          "midi": 54,
          "name": "F#3",
          "ticks": 513600,
          "time": 428,
          "velocity": 0.8267716535433071
        },
        {
          "duration": 0.06666666666666288,
          "durationTicks": 80,
          "midi": 55,
          "name": "G3",
          "ticks": 513840,
          "time": 428.20000000000005,
          "velocity": 0.8267716535433071
        },
        {
          "duration": 0.06666666666666288,
          "durationTicks": 80,
          "midi": 57,
          "name": "A3",
          "ticks": 514080,
          "time": 428.40000000000003,
          "velocity": 0.8267716535433071
        },
        {
          "duration": 0.06666666666671972,
          "durationTicks": 80,
          "midi": 58,
          "name": "A#3",
          "ticks": 514320,
          "time": 428.6,
          "velocity": 0.8267716535433071
        },
        {
          "duration": 0.10000000000002274,
          "durationTicks": 120,
          "midi": 55,
          "name": "G3",
          "ticks": 514560,
          "time": 428.8,
          "velocity": 0.8267716535433071
        },
        {
          "duration": 0.0999999999999659,
          "durationTicks": 120,
          "midi": 55,
          "name": "G3",
          "ticks": 515040,
          "time": 429.20000000000005,
          "velocity": 0.8267716535433071
        },
        {
          "duration": 0.10000000000002274,
          "durationTicks": 120,
          "midi": 52,
          "name": "E3",
          "ticks": 516000,
          "time": 430,
          "velocity": 0.8267716535433071
        },
        {
          "duration": 0.10000000000002274,
          "durationTicks": 120,
          "midi": 49,
          "name": "C#3",
          "ticks": 516960,
          "time": 430.8,
          "velocity": 0.8267716535433071
        },
        {
          "duration": 0.10000000000002274,
          "durationTicks": 120,
          "midi": 45,
          "name": "A2",
          "ticks": 517920,
          "time": 431.6,
          "velocity": 0.8267716535433071
        },
        {
          "duration": 0.20000000000004547,
          "durationTicks": 240,
          "midi": 62,
          "name": "D4",
          "ticks": 518400,
          "time": 432,
          "velocity": 0.8267716535433071
        },
        {
          "duration": 0.1966666666666015,
          "durationTicks": 236,
          "midi": 65,
          "name": "F4",
          "ticks": 518640,
          "time": 432.20000000000005,
          "velocity": 0.8267716535433071
        },
        {
          "duration": 0.06666666666666288,
          "durationTicks": 80,
          "midi": 59,
          "name": "B3",
          "ticks": 518880,
          "time": 432.40000000000003,
          "velocity": 0.8267716535433071
        },
        {
          "duration": 0.06666666666671972,
          "durationTicks": 80,
          "midi": 62,
          "name": "D4",
          "ticks": 519120,
          "time": 432.6,
          "velocity": 0.8267716535433071
        },
        {
          "duration": 0.06666666666671972,
          "durationTicks": 80,
          "midi": 56,
          "name": "G#3",
          "ticks": 519360,
          "time": 432.8,
          "velocity": 0.8267716535433071
        },
        {
          "duration": 0.06666666666671972,
          "durationTicks": 80,
          "midi": 59,
          "name": "B3",
          "ticks": 519600,
          "time": 433,
          "velocity": 0.8267716535433071
        },
        {
          "duration": 0.06666666666666288,
          "durationTicks": 80,
          "midi": 52,
          "name": "E3",
          "ticks": 519840,
          "time": 433.20000000000005,
          "velocity": 0.8267716535433071
        },
        {
          "duration": 0.06666666666666288,
          "durationTicks": 80,
          "midi": 64,
          "name": "E4",
          "ticks": 520080,
          "time": 433.40000000000003,
          "velocity": 0.8267716535433071
        },
        {
          "duration": 0.10000000000002274,
          "durationTicks": 120,
          "midi": 60,
          "name": "C4",
          "ticks": 520320,
          "time": 433.6,
          "velocity": 0.8267716535433071
        },
        {
          "duration": 0.10000000000002274,
          "durationTicks": 120,
          "midi": 57,
          "name": "A3",
          "ticks": 520800,
          "time": 434,
          "velocity": 0.8267716535433071
        },
        {
          "duration": 0.0999999999999659,
          "durationTicks": 120,
          "midi": 55,
          "name": "G3",
          "ticks": 521280,
          "time": 434.40000000000003,
          "velocity": 0.8267716535433071
        },
        {
          "duration": 0.10000000000002274,
          "durationTicks": 120,
          "midi": 53,
          "name": "F3",
          "ticks": 521760,
          "time": 434.8,
          "velocity": 0.8267716535433071
        },
        {
          "duration": 0.33333333333325754,
          "durationTicks": 400,
          "midi": 52,
          "name": "E3",
          "ticks": 522240,
          "time": 435.20000000000005,
          "velocity": 0.8267716535433071
        },
        {
          "duration": 1.6000000000000227,
          "durationTicks": 1920,
          "midi": 64,
          "name": "E4",
          "ticks": 529920,
          "time": 441.6,
          "velocity": 0.4015748031496063
        },
        {
          "duration": 1.599999999999966,
          "durationTicks": 1920,
          "midi": 62,
          "name": "D4",
          "ticks": 531840,
          "time": 443.20000000000005,
          "velocity": 0.4015748031496063
        },
        {
          "duration": 1.6000000000000227,
          "durationTicks": 1920,
          "midi": 61,
          "name": "C#4",
          "ticks": 533760,
          "time": 444.8,
          "velocity": 0.4015748031496063
        },
        {
          "duration": 0.3333333333333144,
          "durationTicks": 400,
          "midi": 60,
          "name": "C4",
          "ticks": 535680,
          "time": 446.40000000000003,
          "velocity": 0.4015748031496063
        },
        {
          "duration": 0.3333333333333144,
          "durationTicks": 400,
          "midi": 53,
          "name": "F3",
          "ticks": 537600,
          "time": 448,
          "velocity": 0.4015748031496063
        },
        {
          "duration": 0.06666666666671972,
          "durationTicks": 80,
          "midi": 48,
          "name": "C3",
          "ticks": 538320,
          "time": 448.6,
          "velocity": 0.4015748031496063
        },
        {
          "duration": 0.06666666666660603,
          "durationTicks": 80,
          "midi": 50,
          "name": "D3",
          "ticks": 538400,
          "time": 448.66666666666674,
          "velocity": 0.4015748031496063
        },
        {
          "duration": 0.06666666666666288,
          "durationTicks": 80,
          "midi": 52,
          "name": "E3",
          "ticks": 538480,
          "time": 448.73333333333335,
          "velocity": 0.4015748031496063
        },
        {
          "duration": 0.3333333333333144,
          "durationTicks": 400,
          "midi": 53,
          "name": "F3",
          "ticks": 538560,
          "time": 448.8,
          "velocity": 0.4015748031496063
        },
        {
          "duration": 0.06666666666666288,
          "durationTicks": 80,
          "midi": 48,
          "name": "C3",
          "ticks": 539280,
          "time": 449.40000000000003,
          "velocity": 0.4015748031496063
        },
        {
          "duration": 0.06666666666660603,
          "durationTicks": 80,
          "midi": 50,
          "name": "D3",
          "ticks": 539360,
          "time": 449.4666666666667,
          "velocity": 0.4015748031496063
        },
        {
          "duration": 0.06666666666671972,
          "durationTicks": 80,
          "midi": 52,
          "name": "E3",
          "ticks": 539440,
          "time": 449.5333333333333,
          "velocity": 0.4015748031496063
        },
        {
          "duration": 0.3333333333333144,
          "durationTicks": 400,
          "midi": 53,
          "name": "F3",
          "ticks": 539520,
          "time": 449.6,
          "velocity": 0.4015748031496063
        },
        {
          "duration": 0.3333333333333144,
          "durationTicks": 400,
          "midi": 48,
          "name": "C3",
          "ticks": 545280,
          "time": 454.40000000000003,
          "velocity": 0.4015748031496063
        },
        {
          "duration": 0.06666666666671972,
          "durationTicks": 80,
          "midi": 43,
          "name": "G2",
          "ticks": 546000,
          "time": 455,
          "velocity": 0.4015748031496063
        },
        {
          "duration": 0.06666666666660603,
          "durationTicks": 80,
          "midi": 45,
          "name": "A2",
          "ticks": 546080,
          "time": 455.0666666666667,
          "velocity": 0.4015748031496063
        },
        {
          "duration": 0.06666666666671972,
          "durationTicks": 80,
          "midi": 47,
          "name": "B2",
          "ticks": 546160,
          "time": 455.1333333333333,
          "velocity": 0.4015748031496063
        },
        {
          "duration": 0.33333333333325754,
          "durationTicks": 400,
          "midi": 48,
          "name": "C3",
          "ticks": 546240,
          "time": 455.20000000000005,
          "velocity": 0.4015748031496063
        },
        {
          "duration": 0.06666666666671972,
          "durationTicks": 80,
          "midi": 43,
          "name": "G2",
          "ticks": 546960,
          "time": 455.8,
          "velocity": 0.4015748031496063
        },
        {
          "duration": 0.06666666666660603,
          "durationTicks": 80,
          "midi": 45,
          "name": "A2",
          "ticks": 547040,
          "time": 455.86666666666673,
          "velocity": 0.4015748031496063
        },
        {
          "duration": 0.06666666666666288,
          "durationTicks": 80,
          "midi": 47,
          "name": "B2",
          "ticks": 547120,
          "time": 455.93333333333334,
          "velocity": 0.4015748031496063
        },
        {
          "duration": 0.3333333333333144,
          "durationTicks": 400,
          "midi": 48,
          "name": "C3",
          "ticks": 547200,
          "time": 456,
          "velocity": 0.4015748031496063
        },
        {
          "duration": 0.3333333333333144,
          "durationTicks": 400,
          "midi": 50,
          "name": "D3",
          "ticks": 549120,
          "time": 457.6,
          "velocity": 0.4015748031496063
        },
        {
          "duration": 0.06666666666666288,
          "durationTicks": 80,
          "midi": 45,
          "name": "A2",
          "ticks": 549840,
          "time": 458.20000000000005,
          "velocity": 0.4015748031496063
        },
        {
          "duration": 0.06666666666660603,
          "durationTicks": 80,
          "midi": 47,
          "name": "B2",
          "ticks": 549920,
          "time": 458.2666666666667,
          "velocity": 0.4015748031496063
        },
        {
          "duration": 0.06666666666671972,
          "durationTicks": 80,
          "midi": 49,
          "name": "C#3",
          "ticks": 550000,
          "time": 458.3333333333333,
          "velocity": 0.4015748031496063
        },
        {
          "duration": 0.3333333333333144,
          "durationTicks": 400,
          "midi": 50,
          "name": "D3",
          "ticks": 550080,
          "time": 458.40000000000003,
          "velocity": 0.4015748031496063
        },
        {
          "duration": 0.06666666666671972,
          "durationTicks": 80,
          "midi": 45,
          "name": "A2",
          "ticks": 550800,
          "time": 459,
          "velocity": 0.4015748031496063
        },
        {
          "duration": 0.06666666666660603,
          "durationTicks": 80,
          "midi": 47,
          "name": "B2",
          "ticks": 550880,
          "time": 459.0666666666667,
          "velocity": 0.4015748031496063
        },
        {
          "duration": 0.06666666666671972,
          "durationTicks": 80,
          "midi": 49,
          "name": "C#3",
          "ticks": 550960,
          "time": 459.1333333333333,
          "velocity": 0.4015748031496063
        },
        {
          "duration": 0.33333333333325754,
          "durationTicks": 400,
          "midi": 50,
          "name": "D3",
          "ticks": 551040,
          "time": 459.20000000000005,
          "velocity": 0.4015748031496063
        },
        {
          "duration": 0.3333333333333144,
          "durationTicks": 400,
          "midi": 52,
          "name": "E3",
          "ticks": 552960,
          "time": 460.8,
          "velocity": 0.4015748031496063
        },
        {
          "duration": 0.06666666666666288,
          "durationTicks": 80,
          "midi": 47,
          "name": "B2",
          "ticks": 553680,
          "time": 461.40000000000003,
          "velocity": 0.4015748031496063
        },
        {
          "duration": 0.06666666666660603,
          "durationTicks": 80,
          "midi": 49,
          "name": "C#3",
          "ticks": 553760,
          "time": 461.4666666666667,
          "velocity": 0.4015748031496063
        },
        {
          "duration": 0.06666666666671972,
          "durationTicks": 80,
          "midi": 51,
          "name": "D#3",
          "ticks": 553840,
          "time": 461.5333333333333,
          "velocity": 0.4015748031496063
        },
        {
          "duration": 0.3333333333333144,
          "durationTicks": 400,
          "midi": 52,
          "name": "E3",
          "ticks": 553920,
          "time": 461.6,
          "velocity": 0.4015748031496063
        },
        {
          "duration": 0.06666666666666288,
          "durationTicks": 80,
          "midi": 47,
          "name": "B2",
          "ticks": 554640,
          "time": 462.20000000000005,
          "velocity": 0.4015748031496063
        },
        {
          "duration": 0.06666666666660603,
          "durationTicks": 80,
          "midi": 49,
          "name": "C#3",
          "ticks": 554720,
          "time": 462.2666666666667,
          "velocity": 0.4015748031496063
        },
        {
          "duration": 0.06666666666671972,
          "durationTicks": 80,
          "midi": 51,
          "name": "D#3",
          "ticks": 554800,
          "time": 462.3333333333333,
          "velocity": 0.4015748031496063
        },
        {
          "duration": 0.3333333333333144,
          "durationTicks": 400,
          "midi": 52,
          "name": "E3",
          "ticks": 554880,
          "time": 462.40000000000003,
          "velocity": 0.4015748031496063
        },
        {
          "duration": 0.10000000000002274,
          "durationTicks": 120,
          "midi": 45,
          "name": "A2",
          "ticks": 556800,
          "time": 464,
          "velocity": 0.8267716535433071
        },
        {
          "duration": 0.0999999999999659,
          "durationTicks": 120,
          "midi": 57,
          "name": "A3",
          "ticks": 557280,
          "time": 464.40000000000003,
          "velocity": 0.8267716535433071
        },
        {
          "duration": 0.0999999999999659,
          "durationTicks": 120,
          "midi": 57,
          "name": "A3",
          "ticks": 558240,
          "time": 465.20000000000005,
          "velocity": 0.8267716535433071
        },
        {
          "duration": 0.10000000000002274,
          "durationTicks": 120,
          "midi": 57,
          "name": "A3",
          "ticks": 559200,
          "time": 466,
          "velocity": 0.8267716535433071
        },
        {
          "duration": 0.10000000000002274,
          "durationTicks": 120,
          "midi": 57,
          "name": "A3",
          "ticks": 560160,
          "time": 466.8,
          "velocity": 0.8267716535433071
        },
        {
          "duration": 0.0999999999999659,
          "durationTicks": 120,
          "midi": 56,
          "name": "G#3",
          "ticks": 560640,
          "time": 467.20000000000005,
          "velocity": 0.8267716535433071
        },
        {
          "duration": 0.10000000000002274,
          "durationTicks": 120,
          "midi": 55,
          "name": "G3",
          "ticks": 561120,
          "time": 467.6,
          "velocity": 0.8267716535433071
        },
        {
          "duration": 0.0999999999999659,
          "durationTicks": 120,
          "midi": 55,
          "name": "G3",
          "ticks": 562080,
          "time": 468.40000000000003,
          "velocity": 0.8267716535433071
        },
        {
          "duration": 0.0999999999999659,
          "durationTicks": 120,
          "midi": 55,
          "name": "G3",
          "ticks": 563040,
          "time": 469.20000000000005,
          "velocity": 0.8267716535433071
        },
        {
          "duration": 0.10000000000002274,
          "durationTicks": 120,
          "midi": 55,
          "name": "G3",
          "ticks": 564000,
          "time": 470,
          "velocity": 0.8267716535433071
        },
        {
          "duration": 0.0999999999999659,
          "durationTicks": 120,
          "midi": 54,
          "name": "F#3",
          "ticks": 564480,
          "time": 470.40000000000003,
          "velocity": 0.8267716535433071
        },
        {
          "duration": 0.10000000000002274,
          "durationTicks": 120,
          "midi": 53,
          "name": "F3",
          "ticks": 564960,
          "time": 470.8,
          "velocity": 0.8267716535433071
        },
        {
          "duration": 0.10000000000002274,
          "durationTicks": 120,
          "midi": 53,
          "name": "F3",
          "ticks": 565920,
          "time": 471.6,
          "velocity": 0.8267716535433071
        },
        {
          "duration": 0.0999999999999659,
          "durationTicks": 120,
          "midi": 53,
          "name": "F3",
          "ticks": 566880,
          "time": 472.40000000000003,
          "velocity": 0.8267716535433071
        },
        {
          "duration": 0.0999999999999659,
          "durationTicks": 120,
          "midi": 53,
          "name": "F3",
          "ticks": 567840,
          "time": 473.20000000000005,
          "velocity": 0.8267716535433071
        },
        {
          "duration": 0.10000000000002274,
          "durationTicks": 120,
          "midi": 52,
          "name": "E3",
          "ticks": 568320,
          "time": 473.6,
          "velocity": 0.8267716535433071
        },
        {
          "duration": 0.10000000000002274,
          "durationTicks": 120,
          "midi": 51,
          "name": "D#3",
          "ticks": 568800,
          "time": 474,
          "velocity": 0.8267716535433071
        },
        {
          "duration": 0.10000000000002274,
          "durationTicks": 120,
          "midi": 51,
          "name": "D#3",
          "ticks": 569760,
          "time": 474.8,
          "velocity": 0.8267716535433071
        },
        {
          "duration": 0.10000000000002274,
          "durationTicks": 120,
          "midi": 44,
          "name": "G#2",
          "ticks": 570720,
          "time": 475.6,
          "velocity": 0.8267716535433071
        },
        {
          "duration": 0.0999999999999659,
          "durationTicks": 120,
          "midi": 56,
          "name": "G#3",
          "ticks": 571680,
          "time": 476.40000000000003,
          "velocity": 0.8267716535433071
        },
        {
          "duration": 0.3333333333333144,
          "durationTicks": 400,
          "midi": 55,
          "name": "G3",
          "ticks": 572160,
          "time": 476.8,
          "velocity": 0.8267716535433071
        },
        {
          "duration": 0.05000000000001137,
          "durationTicks": 60,
          "midi": 55,
          "name": "G3",
          "ticks": 572880,
          "time": 477.40000000000003,
          "velocity": 0.8267716535433071
        },
        {
          "duration": 0.049999999999954525,
          "durationTicks": 60,
          "midi": 57,
          "name": "A3",
          "ticks": 572940,
          "time": 477.45000000000005,
          "velocity": 0.8267716535433071
        },
        {
          "duration": 0.05000000000001137,
          "durationTicks": 60,
          "midi": 59,
          "name": "B3",
          "ticks": 573000,
          "time": 477.5,
          "velocity": 0.8267716535433071
        },
        {
          "duration": 0.05000000000001137,
          "durationTicks": 60,
          "midi": 60,
          "name": "C4",
          "ticks": 573060,
          "time": 477.55,
          "velocity": 0.8267716535433071
        },
        {
          "duration": 0.3333333333333144,
          "durationTicks": 400,
          "midi": 62,
          "name": "D4",
          "ticks": 573120,
          "time": 477.6,
          "velocity": 0.8267716535433071
        },
        {
          "duration": 0.049999999999954525,
          "durationTicks": 60,
          "midi": 62,
          "name": "D4",
          "ticks": 573840,
          "time": 478.20000000000005,
          "velocity": 0.8267716535433071
        },
        {
          "duration": 0.05000000000001137,
          "durationTicks": 60,
          "midi": 60,
          "name": "C4",
          "ticks": 573900,
          "time": 478.25,
          "velocity": 0.8267716535433071
        },
        {
          "duration": 0.05000000000001137,
          "durationTicks": 60,
          "midi": 59,
          "name": "B3",
          "ticks": 573960,
          "time": 478.3,
          "velocity": 0.8267716535433071
        },
        {
          "duration": 0.05000000000001137,
          "durationTicks": 60,
          "midi": 57,
          "name": "A3",
          "ticks": 574020,
          "time": 478.35,
          "velocity": 0.8267716535433071
        },
        {
          "duration": 0.3333333333333144,
          "durationTicks": 400,
          "midi": 55,
          "name": "G3",
          "ticks": 574080,
          "time": 478.40000000000003,
          "velocity": 0.8267716535433071
        },
        {
          "duration": 0.05000000000001137,
          "durationTicks": 60,
          "midi": 55,
          "name": "G3",
          "ticks": 574800,
          "time": 479,
          "velocity": 0.8267716535433071
        },
        {
          "duration": 0.05000000000001137,
          "durationTicks": 60,
          "midi": 57,
          "name": "A3",
          "ticks": 574860,
          "time": 479.05,
          "velocity": 0.8267716535433071
        },
        {
          "duration": 0.05000000000001137,
          "durationTicks": 60,
          "midi": 59,
          "name": "B3",
          "ticks": 574920,
          "time": 479.1,
          "velocity": 0.8267716535433071
        },
        {
          "duration": 0.05000000000001137,
          "durationTicks": 60,
          "midi": 60,
          "name": "C4",
          "ticks": 574980,
          "time": 479.15000000000003,
          "velocity": 0.8267716535433071
        },
        {
          "duration": 0.33333333333325754,
          "durationTicks": 400,
          "midi": 62,
          "name": "D4",
          "ticks": 575040,
          "time": 479.20000000000005,
          "velocity": 0.8267716535433071
        },
        {
          "duration": 0.05000000000001137,
          "durationTicks": 60,
          "midi": 62,
          "name": "D4",
          "ticks": 575760,
          "time": 479.8,
          "velocity": 0.8267716535433071
        },
        {
          "duration": 0.05000000000001137,
          "durationTicks": 60,
          "midi": 60,
          "name": "C4",
          "ticks": 575820,
          "time": 479.85,
          "velocity": 0.8267716535433071
        },
        {
          "duration": 0.05000000000001137,
          "durationTicks": 60,
          "midi": 59,
          "name": "B3",
          "ticks": 575880,
          "time": 479.90000000000003,
          "velocity": 0.8267716535433071
        },
        {
          "duration": 0.049999999999954525,
          "durationTicks": 60,
          "midi": 57,
          "name": "A3",
          "ticks": 575940,
          "time": 479.95000000000005,
          "velocity": 0.8267716535433071
        },
        {
          "duration": 0.3333333333333144,
          "durationTicks": 400,
          "midi": 55,
          "name": "G3",
          "ticks": 576000,
          "time": 480,
          "velocity": 0.8267716535433071
        },
        {
          "duration": 0.06666666666671972,
          "durationTicks": 80,
          "midi": 64,
          "name": "E4",
          "ticks": 589200,
          "time": 491,
          "velocity": 0.4015748031496063
        },
        {
          "duration": 0.06666666666666288,
          "durationTicks": 80,
          "midi": 62,
          "name": "D4",
          "ticks": 589440,
          "time": 491.20000000000005,
          "velocity": 0.4015748031496063
        },
        {
          "duration": 0.06666666666666288,
          "durationTicks": 80,
          "midi": 60,
          "name": "C4",
          "ticks": 589680,
          "time": 491.40000000000003,
          "velocity": 0.4015748031496063
        },
        {
          "duration": 0.06666666666671972,
          "durationTicks": 80,
          "midi": 59,
          "name": "B3",
          "ticks": 589920,
          "time": 491.6,
          "velocity": 0.4015748031496063
        },
        {
          "duration": 0.06666666666671972,
          "durationTicks": 80,
          "midi": 57,
          "name": "A3",
          "ticks": 590160,
          "time": 491.8,
          "velocity": 0.4015748031496063
        },
        {
          "duration": 0.06666666666671972,
          "durationTicks": 80,
          "midi": 55,
          "name": "G3",
          "ticks": 590400,
          "time": 492,
          "velocity": 0.4015748031496063
        },
        {
          "duration": 0.06666666666666288,
          "durationTicks": 80,
          "midi": 53,
          "name": "F3",
          "ticks": 590640,
          "time": 492.20000000000005,
          "velocity": 0.4015748031496063
        },
        {
          "duration": 0.06666666666666288,
          "durationTicks": 80,
          "midi": 52,
          "name": "E3",
          "ticks": 590880,
          "time": 492.40000000000003,
          "velocity": 0.4015748031496063
        },
        {
          "duration": 0.06666666666671972,
          "durationTicks": 80,
          "midi": 50,
          "name": "D3",
          "ticks": 591120,
          "time": 492.6,
          "velocity": 0.4015748031496063
        },
        {
          "duration": 0.3333333333333144,
          "durationTicks": 400,
          "midi": 48,
          "name": "C3",
          "ticks": 591360,
          "time": 492.8,
          "velocity": 0.8267716535433071
        },
        {
          "duration": 0.06666666666666288,
          "durationTicks": 80,
          "midi": 43,
          "name": "G2",
          "ticks": 592080,
          "time": 493.40000000000003,
          "velocity": 0.8267716535433071
        },
        {
          "duration": 0.06666666666660603,
          "durationTicks": 80,
          "midi": 45,
          "name": "A2",
          "ticks": 592160,
          "time": 493.4666666666667,
          "velocity": 0.8267716535433071
        },
        {
          "duration": 0.06666666666671972,
          "durationTicks": 80,
          "midi": 47,
          "name": "B2",
          "ticks": 592240,
          "time": 493.5333333333333,
          "velocity": 0.8267716535433071
        },
        {
          "duration": 0.3333333333333144,
          "durationTicks": 400,
          "midi": 48,
          "name": "C3",
          "ticks": 592320,
          "time": 493.6,
          "velocity": 0.8267716535433071
        },
        {
          "duration": 0.06666666666666288,
          "durationTicks": 80,
          "midi": 43,
          "name": "G2",
          "ticks": 593040,
          "time": 494.20000000000005,
          "velocity": 0.8267716535433071
        },
        {
          "duration": 0.06666666666660603,
          "durationTicks": 80,
          "midi": 45,
          "name": "A2",
          "ticks": 593120,
          "time": 494.2666666666667,
          "velocity": 0.8267716535433071
        },
        {
          "duration": 0.06666666666671972,
          "durationTicks": 80,
          "midi": 47,
          "name": "B2",
          "ticks": 593200,
          "time": 494.3333333333333,
          "velocity": 0.8267716535433071
        },
        {
          "duration": 0.3333333333333144,
          "durationTicks": 400,
          "midi": 48,
          "name": "C3",
          "ticks": 593280,
          "time": 494.40000000000003,
          "velocity": 0.8267716535433071
        },
        {
          "duration": 0.8000000000000114,
          "durationTicks": 960,
          "midi": 62,
          "name": "D4",
          "ticks": 595200,
          "time": 496,
          "velocity": 0.4015748031496063
        },
        {
          "duration": 0.6999999999999886,
          "durationTicks": 840,
          "midi": 60,
          "name": "C4",
          "ticks": 596160,
          "time": 496.8,
          "velocity": 0.4015748031496063
        },
        {
          "duration": 1.1000000000000227,
          "durationTicks": 1320,
          "midi": 59,
          "name": "B3",
          "ticks": 597120,
          "time": 497.6,
          "velocity": 0.4015748031496063
        },
        {
          "duration": 0.33333333333325754,
          "durationTicks": 400,
          "midi": 55,
          "name": "G3",
          "ticks": 599040,
          "time": 499.20000000000005,
          "velocity": 0.8267716535433071
        },
        {
          "duration": 0.06666666666671972,
          "durationTicks": 80,
          "midi": 50,
          "name": "D3",
          "ticks": 599760,
          "time": 499.8,
          "velocity": 0.8267716535433071
        },
        {
          "duration": 0.06666666666660603,
          "durationTicks": 80,
          "midi": 52,
          "name": "E3",
          "ticks": 599840,
          "time": 499.86666666666673,
          "velocity": 0.8267716535433071
        },
        {
          "duration": 0.06666666666666288,
          "durationTicks": 80,
          "midi": 54,
          "name": "F#3",
          "ticks": 599920,
          "time": 499.93333333333334,
          "velocity": 0.8267716535433071
        },
        {
          "duration": 0.3333333333333144,
          "durationTicks": 400,
          "midi": 55,
          "name": "G3",
          "ticks": 600000,
          "time": 500,
          "velocity": 0.8267716535433071
        },
        {
          "duration": 0.06666666666671972,
          "durationTicks": 80,
          "midi": 50,
          "name": "D3",
          "ticks": 600720,
          "time": 500.6,
          "velocity": 0.8267716535433071
        },
        {
          "duration": 0.06666666666660603,
          "durationTicks": 80,
          "midi": 52,
          "name": "E3",
          "ticks": 600800,
          "time": 500.66666666666674,
          "velocity": 0.8267716535433071
        },
        {
          "duration": 0.06666666666666288,
          "durationTicks": 80,
          "midi": 54,
          "name": "F#3",
          "ticks": 600880,
          "time": 500.73333333333335,
          "velocity": 0.8267716535433071
        },
        {
          "duration": 0.3333333333333144,
          "durationTicks": 400,
          "midi": 55,
          "name": "G3",
          "ticks": 600960,
          "time": 500.8,
          "velocity": 0.8267716535433071
        },
        {
          "duration": 0.8000000000000114,
          "durationTicks": 960,
          "midi": 64,
          "name": "E4",
          "ticks": 602880,
          "time": 502.40000000000003,
          "velocity": 0.4015748031496063
        },
        {
          "duration": 0.6999999999999886,
          "durationTicks": 840,
          "midi": 62,
          "name": "D4",
          "ticks": 603840,
          "time": 503.20000000000005,
          "velocity": 0.4015748031496063
        },
        {
          "duration": 1.1000000000000227,
          "durationTicks": 1320,
          "midi": 60,
          "name": "C4",
          "ticks": 604800,
          "time": 504,
          "velocity": 0.4015748031496063
        },
        {
          "duration": 0.3333333333333144,
          "durationTicks": 400,
          "midi": 48,
          "name": "C3",
          "ticks": 606720,
          "time": 505.6,
          "velocity": 0.8267716535433071
        },
        {
          "duration": 0.3333333333333144,
          "durationTicks": 400,
          "midi": 60,
          "name": "C4",
          "ticks": 608160,
          "time": 506.8,
          "velocity": 0.8267716535433071
        },
        {
          "duration": 0.33333333333325754,
          "durationTicks": 400,
          "midi": 48,
          "name": "C3",
          "ticks": 608640,
          "time": 507.20000000000005,
          "velocity": 0.8267716535433071
        },
        {
          "duration": 0.3333333333333144,
          "durationTicks": 400,
          "midi": 60,
          "name": "C4",
          "ticks": 610080,
          "time": 508.40000000000003,
          "velocity": 0.8267716535433071
        },
        {
          "duration": 0.3333333333333144,
          "durationTicks": 400,
          "midi": 48,
          "name": "C3",
          "ticks": 610560,
          "time": 508.8,
          "velocity": 0.8267716535433071
        },
        {
          "duration": 0.3333333333333144,
          "durationTicks": 400,
          "midi": 60,
          "name": "C4",
          "ticks": 612000,
          "time": 510,
          "velocity": 0.8267716535433071
        },
        {
          "duration": 0.3333333333333144,
          "durationTicks": 400,
          "midi": 48,
          "name": "C3",
          "ticks": 612480,
          "time": 510.40000000000003,
          "velocity": 0.8267716535433071
        },
        {
          "duration": 0.3333333333333144,
          "durationTicks": 400,
          "midi": 60,
          "name": "C4",
          "ticks": 613920,
          "time": 511.6,
          "velocity": 0.8267716535433071
        },
        {
          "duration": 0.33333333333337123,
          "durationTicks": 400,
          "midi": 48,
          "name": "C3",
          "ticks": 614400,
          "time": 512,
          "velocity": 0.8267716535433071
        },
        {
          "duration": 0.33333333333325754,
          "durationTicks": 400,
          "midi": 60,
          "name": "C4",
          "ticks": 615840,
          "time": 513.2,
          "velocity": 0.8267716535433071
        },
        {
          "duration": 0.33333333333325754,
          "durationTicks": 400,
          "midi": 48,
          "name": "C3",
          "ticks": 616320,
          "time": 513.6,
          "velocity": 0.8267716535433071
        },
        {
          "duration": 0.33333333333325754,
          "durationTicks": 400,
          "midi": 60,
          "name": "C4",
          "ticks": 617760,
          "time": 514.8000000000001,
          "velocity": 0.8267716535433071
        },
        {
          "duration": 0.33333333333325754,
          "durationTicks": 400,
          "midi": 48,
          "name": "C3",
          "ticks": 618240,
          "time": 515.2,
          "velocity": 0.8267716535433071
        },
        {
          "duration": 0.33333333333337123,
          "durationTicks": 400,
          "midi": 55,
          "name": "G3",
          "ticks": 619200,
          "time": 516,
          "velocity": 0.8267716535433071
        },
        {
          "duration": 0.33333333333325754,
          "durationTicks": 400,
          "midi": 60,
          "name": "C4",
          "ticks": 620160,
          "time": 516.8000000000001,
          "velocity": 0.8267716535433071
        },
        {
          "duration": 0.33333333333325754,
          "durationTicks": 400,
          "midi": 55,
          "name": "G3",
          "ticks": 621120,
          "time": 517.6,
          "velocity": 0.8267716535433071
        },
        {
          "duration": 0.33333333333337123,
          "durationTicks": 400,
          "midi": 48,
          "name": "C3",
          "ticks": 622080,
          "time": 518.4,
          "velocity": 0.8267716535433071
        },
        {
          "duration": 0.1966666666666015,
          "durationTicks": 236,
          "midi": 55,
          "name": "G3",
          "ticks": 622560,
          "time": 518.8000000000001,
          "velocity": 0.8267716535433071
        },
        {
          "duration": 0.1966666666666015,
          "durationTicks": 236,
          "midi": 55,
          "name": "G3",
          "ticks": 622800,
          "time": 519,
          "velocity": 0.8267716535433071
        },
        {
          "duration": 0.1966666666666015,
          "durationTicks": 236,
          "midi": 60,
          "name": "C4",
          "ticks": 623040,
          "time": 519.2,
          "velocity": 0.8267716535433071
        },
        {
          "duration": 0.19666666666671517,
          "durationTicks": 236,
          "midi": 60,
          "name": "C4",
          "ticks": 623280,
          "time": 519.4,
          "velocity": 0.8267716535433071
        },
        {
          "duration": 0.1966666666666015,
          "durationTicks": 236,
          "midi": 55,
          "name": "G3",
          "ticks": 623520,
          "time": 519.6,
          "velocity": 0.8267716535433071
        },
        {
          "duration": 0.1966666666666015,
          "durationTicks": 236,
          "midi": 55,
          "name": "G3",
          "ticks": 623760,
          "time": 519.8000000000001,
          "velocity": 0.8267716535433071
        },
        {
          "duration": 0.1966666666666015,
          "durationTicks": 236,
          "midi": 60,
          "name": "C4",
          "ticks": 624000,
          "time": 520,
          "velocity": 0.8267716535433071
        },
        {
          "duration": 0.1966666666666015,
          "durationTicks": 236,
          "midi": 60,
          "name": "C4",
          "ticks": 624240,
          "time": 520.2,
          "velocity": 0.8267716535433071
        },
        {
          "duration": 0.19666666666671517,
          "durationTicks": 236,
          "midi": 55,
          "name": "G3",
          "ticks": 624480,
          "time": 520.4,
          "velocity": 0.8267716535433071
        },
        {
          "duration": 0.1966666666666015,
          "durationTicks": 236,
          "midi": 55,
          "name": "G3",
          "ticks": 624720,
          "time": 520.6,
          "velocity": 0.8267716535433071
        },
        {
          "duration": 0.1966666666666015,
          "durationTicks": 236,
          "midi": 52,
          "name": "E3",
          "ticks": 624960,
          "time": 520.8000000000001,
          "velocity": 0.8267716535433071
        },
        {
          "duration": 0.1966666666666015,
          "durationTicks": 236,
          "midi": 52,
          "name": "E3",
          "ticks": 625200,
          "time": 521,
          "velocity": 0.8267716535433071
        },
        {
          "duration": 0.1966666666666015,
          "durationTicks": 236,
          "midi": 48,
          "name": "C3",
          "ticks": 625440,
          "time": 521.2,
          "velocity": 0.8267716535433071
        },
        {
          "duration": 0.19666666666671517,
          "durationTicks": 236,
          "midi": 48,
          "name": "C3",
          "ticks": 625680,
          "time": 521.4,
          "velocity": 0.8267716535433071
        },
        {
          "duration": 0.33333333333325754,
          "durationTicks": 400,
          "midi": 43,
          "name": "G2",
          "ticks": 625920,
          "time": 521.6,
          "velocity": 0.8267716535433071
        },
        {
          "duration": 0.1966666666666015,
          "durationTicks": 236,
          "midi": 55,
          "name": "G3",
          "ticks": 626640,
          "time": 522.2,
          "velocity": 0.8267716535433071
        },
        {
          "duration": 0.33333333333337123,
          "durationTicks": 400,
          "midi": 60,
          "name": "C4",
          "ticks": 626880,
          "time": 522.4,
          "velocity": 0.8267716535433071
        },
        {
          "duration": 0.1966666666666015,
          "durationTicks": 236,
          "midi": 60,
          "name": "C4",
          "ticks": 627600,
          "time": 523,
          "velocity": 0.8267716535433071
        },
        {
          "duration": 0.33333333333325754,
          "durationTicks": 400,
          "midi": 55,
          "name": "G3",
          "ticks": 627840,
          "time": 523.2,
          "velocity": 0.8267716535433071
        },
        {
          "duration": 0.1966666666666015,
          "durationTicks": 236,
          "midi": 55,
          "name": "G3",
          "ticks": 628560,
          "time": 523.8000000000001,
          "velocity": 0.8267716535433071
        },
        {
          "duration": 0.33333333333337123,
          "durationTicks": 400,
          "midi": 60,
          "name": "C4",
          "ticks": 628800,
          "time": 524,
          "velocity": 0.8267716535433071
        },
        {
          "duration": 0.1966666666666015,
          "durationTicks": 236,
          "midi": 60,
          "name": "C4",
          "ticks": 629520,
          "time": 524.6,
          "velocity": 0.8267716535433071
        },
        {
          "duration": 0.1966666666666015,
          "durationTicks": 236,
          "midi": 55,
          "name": "G3",
          "ticks": 629760,
          "time": 524.8000000000001,
          "velocity": 0.8267716535433071
        },
        {
          "duration": 0.1966666666666015,
          "durationTicks": 236,
          "midi": 60,
          "name": "C4",
          "ticks": 630000,
          "time": 525,
          "velocity": 0.8346456692913385
        },
        {
          "duration": 0.1966666666666015,
          "durationTicks": 236,
          "midi": 55,
          "name": "G3",
          "ticks": 630240,
          "time": 525.2,
          "velocity": 0.8503937007874016
        },
        {
          "duration": 0.19666666666671517,
          "durationTicks": 236,
          "midi": 60,
          "name": "C4",
          "ticks": 630480,
          "time": 525.4,
          "velocity": 0.8582677165354331
        },
        {
          "duration": 0.1966666666666015,
          "durationTicks": 236,
          "midi": 55,
          "name": "G3",
          "ticks": 630720,
          "time": 525.6,
          "velocity": 0.8661417322834646
        },
        {
          "duration": 0.1966666666666015,
          "durationTicks": 236,
          "midi": 60,
          "name": "C4",
          "ticks": 630960,
          "time": 525.8000000000001,
          "velocity": 0.8740157480314961
        },
        {
          "duration": 0.1966666666666015,
          "durationTicks": 236,
          "midi": 55,
          "name": "G3",
          "ticks": 631200,
          "time": 526,
          "velocity": 0.8818897637795275
        },
        {
          "duration": 0.1966666666666015,
          "durationTicks": 236,
          "midi": 60,
          "name": "C4",
          "ticks": 631440,
          "time": 526.2,
          "velocity": 0.889763779527559
        },
        {
          "duration": 0.33333333333337123,
          "durationTicks": 400,
          "midi": 55,
          "name": "G3",
          "ticks": 631680,
          "time": 526.4,
          "velocity": 0.905511811023622
        },
        {
          "duration": 0.33333333333325754,
          "durationTicks": 400,
          "midi": 55,
          "name": "G3",
          "ticks": 632160,
          "time": 526.8000000000001,
          "velocity": 0.9212598425196851
        },
        {
          "duration": 0.33333333333325754,
          "durationTicks": 400,
          "midi": 43,
          "name": "G2",
          "ticks": 632640,
          "time": 527.2,
          "velocity": 0.937007874015748
        },
        {
          "duration": 0.33333333333325754,
          "durationTicks": 400,
          "midi": 43,
          "name": "G2",
          "ticks": 633120,
          "time": 527.6,
          "velocity": 0.952755905511811
        },
        {
          "duration": 1.5,
          "durationTicks": 1800,
          "midi": 43,
          "name": "G2",
          "ticks": 633600,
          "time": 528,
          "velocity": 0.9763779527559056
        },
        {
          "duration": 0.39999999999997726,
          "durationTicks": 480,
          "midi": 46,
          "name": "A#2",
          "ticks": 643200,
          "time": 536,
          "velocity": 0.4015748031496063
        },
        {
          "duration": 0.40000000000009095,
          "durationTicks": 480,
          "midi": 50,
          "name": "D3",
          "ticks": 643680,
          "time": 536.4,
          "velocity": 0.4015748031496063
        },
        {
          "duration": 0.39999999999997726,
          "durationTicks": 480,
          "midi": 53,
          "name": "F3",
          "ticks": 644160,
          "time": 536.8000000000001,
          "velocity": 0.4015748031496063
        },
        {
          "duration": 0.33333333333325754,
          "durationTicks": 400,
          "midi": 50,
          "name": "D3",
          "ticks": 644640,
          "time": 537.2,
          "velocity": 0.4015748031496063
        },
        {
          "duration": 0.33333333333325754,
          "durationTicks": 400,
          "midi": 46,
          "name": "A#2",
          "ticks": 645120,
          "time": 537.6,
          "velocity": 0.4015748031496063
        },
        {
          "duration": 0.20000000000004547,
          "durationTicks": 240,
          "midi": 62,
          "name": "D4",
          "ticks": 653280,
          "time": 544.4,
          "velocity": 0.4015748031496063
        },
        {
          "duration": 0.1999999999999318,
          "durationTicks": 240,
          "midi": 51,
          "name": "D#3",
          "ticks": 653760,
          "time": 544.8000000000001,
          "velocity": 0.4015748031496063
        },
        {
          "duration": 0.13333333333332575,
          "durationTicks": 160,
          "midi": 55,
          "name": "G3",
          "ticks": 654240,
          "time": 545.2,
          "velocity": 0.4015748031496063
        },
        {
          "duration": 0.33333333333325754,
          "durationTicks": 400,
          "midi": 57,
          "name": "A3",
          "ticks": 654720,
          "time": 545.6,
          "velocity": 0.4015748031496063
        },
        {
          "duration": 0.39999999999997726,
          "durationTicks": 480,
          "midi": 59,
          "name": "B3",
          "ticks": 657120,
          "time": 547.6,
          "velocity": 0.4015748031496063
        },
        {
          "duration": 0.39999999999997726,
          "durationTicks": 480,
          "midi": 60,
          "name": "C4",
          "ticks": 657600,
          "time": 548,
          "velocity": 0.4015748031496063
        },
        {
          "duration": 0.33333333333337123,
          "durationTicks": 400,
          "midi": 58,
          "name": "A#3",
          "ticks": 658080,
          "time": 548.4,
          "velocity": 0.4015748031496063
        },
        {
          "duration": 0.7999999999999545,
          "durationTicks": 960,
          "midi": 57,
          "name": "A3",
          "ticks": 658560,
          "time": 548.8000000000001,
          "velocity": 0.4015748031496063
        },
        {
          "duration": 0.7000000000000455,
          "durationTicks": 840,
          "midi": 56,
          "name": "G#3",
          "ticks": 659520,
          "time": 549.6,
          "velocity": 0.4015748031496063
        },
        {
          "duration": 0.33333333333337123,
          "durationTicks": 400,
          "midi": 55,
          "name": "G3",
          "ticks": 660480,
          "time": 550.4,
          "velocity": 0.8267716535433071
        },
        {
          "duration": 0.06666666666671972,
          "durationTicks": 80,
          "midi": 50,
          "name": "D3",
          "ticks": 661200,
          "time": 551,
          "velocity": 0.8267716535433071
        },
        {
          "duration": 0.06666666666660603,
          "durationTicks": 80,
          "midi": 52,
          "name": "E3",
          "ticks": 661280,
          "time": 551.0666666666667,
          "velocity": 0.8267716535433071
        },
        {
          "duration": 0.06666666666671972,
          "durationTicks": 80,
          "midi": 54,
          "name": "F#3",
          "ticks": 661360,
          "time": 551.1333333333333,
          "velocity": 0.8267716535433071
        },
        {
          "duration": 0.33333333333325754,
          "durationTicks": 400,
          "midi": 55,
          "name": "G3",
          "ticks": 661440,
          "time": 551.2,
          "velocity": 0.8267716535433071
        },
        {
          "duration": 0.06666666666660603,
          "durationTicks": 80,
          "midi": 50,
          "name": "D3",
          "ticks": 662160,
          "time": 551.8000000000001,
          "velocity": 0.8267716535433071
        },
        {
          "duration": 0.06666666666660603,
          "durationTicks": 80,
          "midi": 52,
          "name": "E3",
          "ticks": 662240,
          "time": 551.8666666666667,
          "velocity": 0.8267716535433071
        },
        {
          "duration": 0.06666666666671972,
          "durationTicks": 80,
          "midi": 54,
          "name": "F#3",
          "ticks": 662320,
          "time": 551.9333333333333,
          "velocity": 0.8267716535433071
        },
        {
          "duration": 0.33333333333337123,
          "durationTicks": 400,
          "midi": 55,
          "name": "G3",
          "ticks": 662400,
          "time": 552,
          "velocity": 0.8267716535433071
        },
        {
          "duration": 0.19666666666671517,
          "durationTicks": 236,
          "midi": 59,
          "name": "B3",
          "ticks": 664080,
          "time": 553.4,
          "velocity": 0.8267716535433071
        },
        {
          "duration": 0.20000000000004547,
          "durationTicks": 240,
          "midi": 55,
          "name": "G3",
          "ticks": 664320,
          "time": 553.6,
          "velocity": 0.8267716535433071
        },
        {
          "duration": 0.533333333333303,
          "durationTicks": 640,
          "midi": 60,
          "name": "C4",
          "ticks": 664320,
          "time": 553.6,
          "velocity": 0.8267716535433071
        },
        {
          "duration": 0.1999999999999318,
          "durationTicks": 240,
          "midi": 55,
          "name": "G3",
          "ticks": 664560,
          "time": 553.8000000000001,
          "velocity": 0.8267716535433071
        },
        {
          "duration": 0.20000000000004547,
          "durationTicks": 240,
          "midi": 55,
          "name": "G3",
          "ticks": 664800,
          "time": 554,
          "velocity": 0.8267716535433071
        },
        {
          "duration": 0.1966666666666015,
          "durationTicks": 236,
          "midi": 55,
          "name": "G3",
          "ticks": 665040,
          "time": 554.2,
          "velocity": 0.8267716535433071
        },
        {
          "duration": 0.1966666666666015,
          "durationTicks": 236,
          "midi": 59,
          "name": "B3",
          "ticks": 665040,
          "time": 554.2,
          "velocity": 0.8267716535433071
        },
        {
          "duration": 0.20000000000004547,
          "durationTicks": 240,
          "midi": 55,
          "name": "G3",
          "ticks": 665280,
          "time": 554.4,
          "velocity": 0.8267716535433071
        },
        {
          "duration": 0.533333333333303,
          "durationTicks": 640,
          "midi": 62,
          "name": "D4",
          "ticks": 665280,
          "time": 554.4,
          "velocity": 0.8267716535433071
        },
        {
          "duration": 0.20000000000004547,
          "durationTicks": 240,
          "midi": 55,
          "name": "G3",
          "ticks": 665520,
          "time": 554.6,
          "velocity": 0.8267716535433071
        },
        {
          "duration": 0.1999999999999318,
          "durationTicks": 240,
          "midi": 55,
          "name": "G3",
          "ticks": 665760,
          "time": 554.8000000000001,
          "velocity": 0.8267716535433071
        },
        {
          "duration": 0.1966666666666015,
          "durationTicks": 236,
          "midi": 55,
          "name": "G3",
          "ticks": 666000,
          "time": 555,
          "velocity": 0.8267716535433071
        },
        {
          "duration": 0.1966666666666015,
          "durationTicks": 236,
          "midi": 60,
          "name": "C4",
          "ticks": 666000,
          "time": 555,
          "velocity": 0.8267716535433071
        },
        {
          "duration": 0.1999999999999318,
          "durationTicks": 240,
          "midi": 55,
          "name": "G3",
          "ticks": 666240,
          "time": 555.2,
          "velocity": 0.8267716535433071
        },
        {
          "duration": 0.6999999999999318,
          "durationTicks": 840,
          "midi": 64,
          "name": "E4",
          "ticks": 666240,
          "time": 555.2,
          "velocity": 0.8267716535433071
        },
        {
          "duration": 0.20000000000004547,
          "durationTicks": 240,
          "midi": 55,
          "name": "G3",
          "ticks": 666480,
          "time": 555.4,
          "velocity": 0.8267716535433071
        },
        {
          "duration": 0.20000000000004547,
          "durationTicks": 240,
          "midi": 55,
          "name": "G3",
          "ticks": 666720,
          "time": 555.6,
          "velocity": 0.8267716535433071
        },
        {
          "duration": 0.1999999999999318,
          "durationTicks": 240,
          "midi": 55,
          "name": "G3",
          "ticks": 666960,
          "time": 555.8000000000001,
          "velocity": 0.8267716535433071
        },
        {
          "duration": 0.1966666666666015,
          "durationTicks": 236,
          "midi": 55,
          "name": "G3",
          "ticks": 667200,
          "time": 556,
          "velocity": 0.8267716535433071
        },
        {
          "duration": 0.33333333333337123,
          "durationTicks": 400,
          "midi": 62,
          "name": "D4",
          "ticks": 667200,
          "time": 556,
          "velocity": 0.8267716535433071
        },
        {
          "duration": 0.1966666666666015,
          "durationTicks": 236,
          "midi": 55,
          "name": "G3",
          "ticks": 667440,
          "time": 556.2,
          "velocity": 0.8267716535433071
        },
        {
          "duration": 0.19666666666671517,
          "durationTicks": 236,
          "midi": 55,
          "name": "G3",
          "ticks": 667680,
          "time": 556.4,
          "velocity": 0.8267716535433071
        },
        {
          "duration": 0.1966666666666015,
          "durationTicks": 236,
          "midi": 55,
          "name": "G3",
          "ticks": 667920,
          "time": 556.6,
          "velocity": 0.8267716535433071
        },
        {
          "duration": 0.1966666666666015,
          "durationTicks": 236,
          "midi": 59,
          "name": "B3",
          "ticks": 667920,
          "time": 556.6,
          "velocity": 0.8267716535433071
        },
        {
          "duration": 0.1999999999999318,
          "durationTicks": 240,
          "midi": 55,
          "name": "G3",
          "ticks": 668160,
          "time": 556.8000000000001,
          "velocity": 0.8267716535433071
        },
        {
          "duration": 0.533333333333303,
          "durationTicks": 640,
          "midi": 62,
          "name": "D4",
          "ticks": 668160,
          "time": 556.8000000000001,
          "velocity": 0.8267716535433071
        },
        {
          "duration": 0.20000000000004547,
          "durationTicks": 240,
          "midi": 55,
          "name": "G3",
          "ticks": 668400,
          "time": 557,
          "velocity": 0.8267716535433071
        },
        {
          "duration": 0.1999999999999318,
          "durationTicks": 240,
          "midi": 55,
          "name": "G3",
          "ticks": 668640,
          "time": 557.2,
          "velocity": 0.8267716535433071
        },
        {
          "duration": 0.19666666666671517,
          "durationTicks": 236,
          "midi": 55,
          "name": "G3",
          "ticks": 668880,
          "time": 557.4,
          "velocity": 0.8267716535433071
        },
        {
          "duration": 0.19666666666671517,
          "durationTicks": 236,
          "midi": 60,
          "name": "C4",
          "ticks": 668880,
          "time": 557.4,
          "velocity": 0.8267716535433071
        },
        {
          "duration": 0.20000000000004547,
          "durationTicks": 240,
          "midi": 55,
          "name": "G3",
          "ticks": 669120,
          "time": 557.6,
          "velocity": 0.8267716535433071
        },
        {
          "duration": 0.533333333333303,
          "durationTicks": 640,
          "midi": 64,
          "name": "E4",
          "ticks": 669120,
          "time": 557.6,
          "velocity": 0.8267716535433071
        },
        {
          "duration": 0.1999999999999318,
          "durationTicks": 240,
          "midi": 55,
          "name": "G3",
          "ticks": 669360,
          "time": 557.8000000000001,
          "velocity": 0.8267716535433071
        },
        {
          "duration": 0.20000000000004547,
          "durationTicks": 240,
          "midi": 55,
          "name": "G3",
          "ticks": 669600,
          "time": 558,
          "velocity": 0.8267716535433071
        },
        {
          "duration": 0.1966666666666015,
          "durationTicks": 236,
          "midi": 55,
          "name": "G3",
          "ticks": 669840,
          "time": 558.2,
          "velocity": 0.8267716535433071
        },
        {
          "duration": 0.1966666666666015,
          "durationTicks": 236,
          "midi": 62,
          "name": "D4",
          "ticks": 669840,
          "time": 558.2,
          "velocity": 0.8267716535433071
        },
        {
          "duration": 0.20000000000004547,
          "durationTicks": 240,
          "midi": 55,
          "name": "G3",
          "ticks": 670080,
          "time": 558.4,
          "velocity": 0.8267716535433071
        },
        {
          "duration": 0.7000000000000455,
          "durationTicks": 840,
          "midi": 65,
          "name": "F4",
          "ticks": 670080,
          "time": 558.4,
          "velocity": 0.8267716535433071
        },
        {
          "duration": 0.20000000000004547,
          "durationTicks": 240,
          "midi": 55,
          "name": "G3",
          "ticks": 670320,
          "time": 558.6,
          "velocity": 0.8267716535433071
        },
        {
          "duration": 0.1999999999999318,
          "durationTicks": 240,
          "midi": 55,
          "name": "G3",
          "ticks": 670560,
          "time": 558.8000000000001,
          "velocity": 0.8267716535433071
        },
        {
          "duration": 0.20000000000004547,
          "durationTicks": 240,
          "midi": 55,
          "name": "G3",
          "ticks": 670800,
          "time": 559,
          "velocity": 0.8267716535433071
        },
        {
          "duration": 0.1966666666666015,
          "durationTicks": 236,
          "midi": 55,
          "name": "G3",
          "ticks": 671040,
          "time": 559.2,
          "velocity": 0.8267716535433071
        },
        {
          "duration": 0.533333333333303,
          "durationTicks": 640,
          "midi": 64,
          "name": "E4",
          "ticks": 671040,
          "time": 559.2,
          "velocity": 0.8267716535433071
        },
        {
          "duration": 0.19666666666671517,
          "durationTicks": 236,
          "midi": 55,
          "name": "G3",
          "ticks": 671280,
          "time": 559.4,
          "velocity": 0.8267716535433071
        },
        {
          "duration": 0.1966666666666015,
          "durationTicks": 236,
          "midi": 55,
          "name": "G3",
          "ticks": 671520,
          "time": 559.6,
          "velocity": 0.8267716535433071
        },
        {
          "duration": 0.1966666666666015,
          "durationTicks": 236,
          "midi": 55,
          "name": "G3",
          "ticks": 671760,
          "time": 559.8000000000001,
          "velocity": 0.8267716535433071
        },
        {
          "duration": 0.1966666666666015,
          "durationTicks": 236,
          "midi": 61,
          "name": "C#4",
          "ticks": 671760,
          "time": 559.8000000000001,
          "velocity": 0.8267716535433071
        },
        {
          "duration": 0.20000000000004547,
          "durationTicks": 240,
          "midi": 55,
          "name": "G3",
          "ticks": 672000,
          "time": 560,
          "velocity": 0.8267716535433071
        },
        {
          "duration": 0.533333333333303,
          "durationTicks": 640,
          "midi": 64,
          "name": "E4",
          "ticks": 672000,
          "time": 560,
          "velocity": 0.8267716535433071
        },
        {
          "duration": 0.1999999999999318,
          "durationTicks": 240,
          "midi": 55,
          "name": "G3",
          "ticks": 672240,
          "time": 560.2,
          "velocity": 0.8267716535433071
        },
        {
          "duration": 0.20000000000004547,
          "durationTicks": 240,
          "midi": 55,
          "name": "G3",
          "ticks": 672480,
          "time": 560.4,
          "velocity": 0.8267716535433071
        },
        {
          "duration": 0.1966666666666015,
          "durationTicks": 236,
          "midi": 55,
          "name": "G3",
          "ticks": 672720,
          "time": 560.6,
          "velocity": 0.8267716535433071
        },
        {
          "duration": 0.1966666666666015,
          "durationTicks": 236,
          "midi": 62,
          "name": "D4",
          "ticks": 672720,
          "time": 560.6,
          "velocity": 0.8267716535433071
        },
        {
          "duration": 0.1999999999999318,
          "durationTicks": 240,
          "midi": 55,
          "name": "G3",
          "ticks": 672960,
          "time": 560.8000000000001,
          "velocity": 0.8267716535433071
        },
        {
          "duration": 0.533333333333303,
          "durationTicks": 640,
          "midi": 65,
          "name": "F4",
          "ticks": 672960,
          "time": 560.8000000000001,
          "velocity": 0.8267716535433071
        },
        {
          "duration": 0.20000000000004547,
          "durationTicks": 240,
          "midi": 55,
          "name": "G3",
          "ticks": 673200,
          "time": 561,
          "velocity": 0.8267716535433071
        },
        {
          "duration": 0.1999999999999318,
          "durationTicks": 240,
          "midi": 55,
          "name": "G3",
          "ticks": 673440,
          "time": 561.2,
          "velocity": 0.8267716535433071
        },
        {
          "duration": 0.19666666666671517,
          "durationTicks": 236,
          "midi": 55,
          "name": "G3",
          "ticks": 673680,
          "time": 561.4,
          "velocity": 0.8267716535433071
        },
        {
          "duration": 0.19666666666671517,
          "durationTicks": 236,
          "midi": 64,
          "name": "E4",
          "ticks": 673680,
          "time": 561.4,
          "velocity": 0.8267716535433071
        },
        {
          "duration": 0.20000000000004547,
          "durationTicks": 240,
          "midi": 55,
          "name": "G3",
          "ticks": 673920,
          "time": 561.6,
          "velocity": 0.8267716535433071
        },
        {
          "duration": 0.7000000000000455,
          "durationTicks": 840,
          "midi": 67,
          "name": "G4",
          "ticks": 673920,
          "time": 561.6,
          "velocity": 0.8267716535433071
        },
        {
          "duration": 0.1999999999999318,
          "durationTicks": 240,
          "midi": 55,
          "name": "G3",
          "ticks": 674160,
          "time": 561.8000000000001,
          "velocity": 0.8267716535433071
        },
        {
          "duration": 0.20000000000004547,
          "durationTicks": 240,
          "midi": 55,
          "name": "G3",
          "ticks": 674400,
          "time": 562,
          "velocity": 0.8267716535433071
        },
        {
          "duration": 0.1999999999999318,
          "durationTicks": 240,
          "midi": 55,
          "name": "G3",
          "ticks": 674640,
          "time": 562.2,
          "velocity": 0.8267716535433071
        },
        {
          "duration": 0.19666666666671517,
          "durationTicks": 236,
          "midi": 55,
          "name": "G3",
          "ticks": 674880,
          "time": 562.4,
          "velocity": 0.8267716535433071
        },
        {
          "duration": 0.533333333333303,
          "durationTicks": 640,
          "midi": 65,
          "name": "F4",
          "ticks": 674880,
          "time": 562.4,
          "velocity": 0.8267716535433071
        },
        {
          "duration": 0.1966666666666015,
          "durationTicks": 236,
          "midi": 55,
          "name": "G3",
          "ticks": 675120,
          "time": 562.6,
          "velocity": 0.8267716535433071
        },
        {
          "duration": 0.1966666666666015,
          "durationTicks": 236,
          "midi": 55,
          "name": "G3",
          "ticks": 675360,
          "time": 562.8000000000001,
          "velocity": 0.8267716535433071
        },
        {
          "duration": 0.1966666666666015,
          "durationTicks": 236,
          "midi": 55,
          "name": "G3",
          "ticks": 675600,
          "time": 563,
          "velocity": 0.8267716535433071
        },
        {
          "duration": 0.1966666666666015,
          "durationTicks": 236,
          "midi": 63,
          "name": "D#4",
          "ticks": 675600,
          "time": 563,
          "velocity": 0.8267716535433071
        },
        {
          "duration": 0.1999999999999318,
          "durationTicks": 240,
          "midi": 55,
          "name": "G3",
          "ticks": 675840,
          "time": 563.2,
          "velocity": 0.8267716535433071
        },
        {
          "duration": 0.6999999999999318,
          "durationTicks": 840,
          "midi": 65,
          "name": "F4",
          "ticks": 675840,
          "time": 563.2,
          "velocity": 0.8267716535433071
        },
        {
          "duration": 0.20000000000004547,
          "durationTicks": 240,
          "midi": 55,
          "name": "G3",
          "ticks": 676080,
          "time": 563.4,
          "velocity": 0.8267716535433071
        },
        {
          "duration": 0.20000000000004547,
          "durationTicks": 240,
          "midi": 55,
          "name": "G3",
          "ticks": 676320,
          "time": 563.6,
          "velocity": 0.8267716535433071
        },
        {
          "duration": 0.1999999999999318,
          "durationTicks": 240,
          "midi": 55,
          "name": "G3",
          "ticks": 676560,
          "time": 563.8000000000001,
          "velocity": 0.8267716535433071
        },
        {
          "duration": 0.1966666666666015,
          "durationTicks": 236,
          "midi": 55,
          "name": "G3",
          "ticks": 676800,
          "time": 564,
          "velocity": 0.8267716535433071
        },
        {
          "duration": 0.533333333333303,
          "durationTicks": 640,
          "midi": 64,
          "name": "E4",
          "ticks": 676800,
          "time": 564,
          "velocity": 0.8267716535433071
        },
        {
          "duration": 0.1966666666666015,
          "durationTicks": 236,
          "midi": 55,
          "name": "G3",
          "ticks": 677040,
          "time": 564.2,
          "velocity": 0.8267716535433071
        },
        {
          "duration": 0.19666666666671517,
          "durationTicks": 236,
          "midi": 55,
          "name": "G3",
          "ticks": 677280,
          "time": 564.4,
          "velocity": 0.8267716535433071
        },
        {
          "duration": 0.1966666666666015,
          "durationTicks": 236,
          "midi": 55,
          "name": "G3",
          "ticks": 677520,
          "time": 564.6,
          "velocity": 0.8267716535433071
        },
        {
          "duration": 0.1966666666666015,
          "durationTicks": 236,
          "midi": 61,
          "name": "C#4",
          "ticks": 677520,
          "time": 564.6,
          "velocity": 0.8267716535433071
        },
        {
          "duration": 0.1999999999999318,
          "durationTicks": 240,
          "midi": 55,
          "name": "G3",
          "ticks": 677760,
          "time": 564.8000000000001,
          "velocity": 0.8267716535433071
        },
        {
          "duration": 0.6999999999999318,
          "durationTicks": 840,
          "midi": 64,
          "name": "E4",
          "ticks": 677760,
          "time": 564.8000000000001,
          "velocity": 0.8267716535433071
        },
        {
          "duration": 0.20000000000004547,
          "durationTicks": 240,
          "midi": 55,
          "name": "G3",
          "ticks": 678000,
          "time": 565,
          "velocity": 0.8267716535433071
        },
        {
          "duration": 0.1999999999999318,
          "durationTicks": 240,
          "midi": 55,
          "name": "G3",
          "ticks": 678240,
          "time": 565.2,
          "velocity": 0.8267716535433071
        },
        {
          "duration": 0.20000000000004547,
          "durationTicks": 240,
          "midi": 55,
          "name": "G3",
          "ticks": 678480,
          "time": 565.4,
          "velocity": 0.8267716535433071
        },
        {
          "duration": 0.1966666666666015,
          "durationTicks": 236,
          "midi": 55,
          "name": "G3",
          "ticks": 678720,
          "time": 565.6,
          "velocity": 0.8267716535433071
        },
        {
          "duration": 0.33333333333325754,
          "durationTicks": 400,
          "midi": 62,
          "name": "D4",
          "ticks": 678720,
          "time": 565.6,
          "velocity": 0.8267716535433071
        },
        {
          "duration": 0.1966666666666015,
          "durationTicks": 236,
          "midi": 55,
          "name": "G3",
          "ticks": 678960,
          "time": 565.8000000000001,
          "velocity": 0.8267716535433071
        },
        {
          "duration": 0.1966666666666015,
          "durationTicks": 236,
          "midi": 55,
          "name": "G3",
          "ticks": 679200,
          "time": 566,
          "velocity": 0.8267716535433071
        },
        {
          "duration": 0.1966666666666015,
          "durationTicks": 236,
          "midi": 55,
          "name": "G3",
          "ticks": 679440,
          "time": 566.2,
          "velocity": 0.8267716535433071
        },
        {
          "duration": 0.19666666666671517,
          "durationTicks": 236,
          "midi": 57,
          "name": "A3",
          "ticks": 679680,
          "time": 566.4,
          "velocity": 0.8267716535433071
        },
        {
          "duration": 0.1966666666666015,
          "durationTicks": 236,
          "midi": 57,
          "name": "A3",
          "ticks": 679920,
          "time": 566.6,
          "velocity": 0.8267716535433071
        },
        {
          "duration": 0.1966666666666015,
          "durationTicks": 236,
          "midi": 55,
          "name": "G3",
          "ticks": 680160,
          "time": 566.8000000000001,
          "velocity": 0.8267716535433071
        },
        {
          "duration": 0.1966666666666015,
          "durationTicks": 236,
          "midi": 55,
          "name": "G3",
          "ticks": 680400,
          "time": 567,
          "velocity": 0.8267716535433071
        },
        {
          "duration": 0.1966666666666015,
          "durationTicks": 236,
          "midi": 57,
          "name": "A3",
          "ticks": 680640,
          "time": 567.2,
          "velocity": 0.8267716535433071
        },
        {
          "duration": 0.19666666666671517,
          "durationTicks": 236,
          "midi": 57,
          "name": "A3",
          "ticks": 680880,
          "time": 567.4,
          "velocity": 0.8267716535433071
        },
        {
          "duration": 0.1966666666666015,
          "durationTicks": 236,
          "midi": 55,
          "name": "G3",
          "ticks": 681120,
          "time": 567.6,
          "velocity": 0.8267716535433071
        },
        {
          "duration": 0.1966666666666015,
          "durationTicks": 236,
          "midi": 55,
          "name": "G3",
          "ticks": 681360,
          "time": 567.8000000000001,
          "velocity": 0.8267716535433071
        },
        {
          "duration": 1.1000000000000227,
          "durationTicks": 1320,
          "midi": 57,
          "name": "A3",
          "ticks": 681600,
          "time": 568,
          "velocity": 0.8267716535433071
        },
        {
          "duration": 0.33333333333325754,
          "durationTicks": 400,
          "midi": 57,
          "name": "A3",
          "ticks": 683040,
          "time": 569.2,
          "velocity": 0.8267716535433071
        },
        {
          "duration": 0.33333333333325754,
          "durationTicks": 400,
          "midi": 55,
          "name": "G3",
          "ticks": 683520,
          "time": 569.6,
          "velocity": 0.8267716535433071
        },
        {
          "duration": 0.33333333333325754,
          "durationTicks": 400,
          "midi": 55,
          "name": "G3",
          "ticks": 684960,
          "time": 570.8000000000001,
          "velocity": 0.8267716535433071
        },
        {
          "duration": 0.33333333333325754,
          "durationTicks": 400,
          "midi": 43,
          "name": "G2",
          "ticks": 685440,
          "time": 571.2,
          "velocity": 0.8267716535433071
        },
        {
          "duration": 0.33333333333337123,
          "durationTicks": 400,
          "midi": 55,
          "name": "G3",
          "ticks": 686880,
          "time": 572.4,
          "velocity": 0.8267716535433071
        },
        {
          "duration": 0.33333333333325754,
          "durationTicks": 400,
          "midi": 43,
          "name": "G2",
          "ticks": 687360,
          "time": 572.8000000000001,
          "velocity": 0.8267716535433071
        },
        {
          "duration": 0.33333333333337123,
          "durationTicks": 400,
          "midi": 55,
          "name": "G3",
          "ticks": 688800,
          "time": 574,
          "velocity": 0.8267716535433071
        },
        {
          "duration": 0.33333333333337123,
          "durationTicks": 400,
          "midi": 43,
          "name": "G2",
          "ticks": 689280,
          "time": 574.4,
          "velocity": 0.8267716535433071
        },
        {
          "duration": 0.33333333333325754,
          "durationTicks": 400,
          "midi": 55,
          "name": "G3",
          "ticks": 690720,
          "time": 575.6,
          "velocity": 0.8267716535433071
        },
        {
          "duration": 0.33333333333337123,
          "durationTicks": 400,
          "midi": 43,
          "name": "G2",
          "ticks": 691200,
          "time": 576,
          "velocity": 0.8267716535433071
        },
        {
          "duration": 0.33333333333325754,
          "durationTicks": 400,
          "midi": 55,
          "name": "G3",
          "ticks": 692160,
          "time": 576.8000000000001,
          "velocity": 0.8267716535433071
        },
        {
          "duration": 0.33333333333325754,
          "durationTicks": 400,
          "midi": 43,
          "name": "G2",
          "ticks": 693120,
          "time": 577.6,
          "velocity": 0.8267716535433071
        },
        {
          "duration": 0.33333333333337123,
          "durationTicks": 400,
          "midi": 55,
          "name": "G3",
          "ticks": 694080,
          "time": 578.4,
          "velocity": 0.8267716535433071
        },
        {
          "duration": 0.33333333333325754,
          "durationTicks": 400,
          "midi": 43,
          "name": "G2",
          "ticks": 695040,
          "time": 579.2,
          "velocity": 0.8267716535433071
        },
        {
          "duration": 1.2000000000000455,
          "durationTicks": 1440,
          "midi": 62,
          "name": "D4",
          "ticks": 700800,
          "time": 584,
          "velocity": 0.4015748031496063
        },
        {
          "duration": 0.39999999999997726,
          "durationTicks": 480,
          "midi": 63,
          "name": "D#4",
          "ticks": 702240,
          "time": 585.2,
          "velocity": 0.4015748031496063
        },
        {
          "duration": 0.33333333333325754,
          "durationTicks": 400,
          "midi": 64,
          "name": "E4",
          "ticks": 702720,
          "time": 585.6,
          "velocity": 0.4015748031496063
        },
        {
          "duration": 0.33333333333325754,
          "durationTicks": 400,
          "midi": 59,
          "name": "B3",
          "ticks": 704640,
          "time": 587.2,
          "velocity": 0.4015748031496063
        },
        {
          "duration": 0.33333333333337123,
          "durationTicks": 400,
          "midi": 60,
          "name": "C4",
          "ticks": 705600,
          "time": 588,
          "velocity": 0.4015748031496063
        },
        {
          "duration": 0.33333333333325754,
          "durationTicks": 400,
          "midi": 55,
          "name": "G3",
          "ticks": 706560,
          "time": 588.8000000000001,
          "velocity": 0.4015748031496063
        },
        {
          "duration": 1.2000000000000455,
          "durationTicks": 1440,
          "midi": 62,
          "name": "D4",
          "ticks": 712320,
          "time": 593.6,
          "velocity": 0.4015748031496063
        },
        {
          "duration": 0.39999999999997726,
          "durationTicks": 480,
          "midi": 63,
          "name": "D#4",
          "ticks": 713760,
          "time": 594.8000000000001,
          "velocity": 0.4015748031496063
        },
        {
          "duration": 0.33333333333325754,
          "durationTicks": 400,
          "midi": 64,
          "name": "E4",
          "ticks": 714240,
          "time": 595.2,
          "velocity": 0.4015748031496063
        },
        {
          "duration": 0.33333333333325754,
          "durationTicks": 400,
          "midi": 59,
          "name": "B3",
          "ticks": 716160,
          "time": 596.8000000000001,
          "velocity": 0.4015748031496063
        },
        {
          "duration": 0.33333333333325754,
          "durationTicks": 400,
          "midi": 60,
          "name": "C4",
          "ticks": 717120,
          "time": 597.6,
          "velocity": 0.4015748031496063
        },
        {
          "duration": 1.6000000000000227,
          "durationTicks": 1920,
          "midi": 53,
          "name": "F3",
          "ticks": 718080,
          "time": 598.4,
          "velocity": 0.4015748031496063
        },
        {
          "duration": 0.33333333333337123,
          "durationTicks": 400,
          "midi": 52,
          "name": "E3",
          "ticks": 720000,
          "time": 600,
          "velocity": 0.4015748031496063
        },
        {
          "duration": 0.33333333333325754,
          "durationTicks": 400,
          "midi": 56,
          "name": "G#3",
          "ticks": 720960,
          "time": 600.8000000000001,
          "velocity": 0.4015748031496063
        },
        {
          "duration": 1.2000000000000455,
          "durationTicks": 1440,
          "midi": 57,
          "name": "A3",
          "ticks": 721920,
          "time": 601.6,
          "velocity": 0.4015748031496063
        },
        {
          "duration": 0.33333333333325754,
          "durationTicks": 400,
          "midi": 57,
          "name": "A3",
          "ticks": 723360,
          "time": 602.8000000000001,
          "velocity": 0.4015748031496063
        },
        {
          "duration": 0.33333333333325754,
          "durationTicks": 400,
          "midi": 55,
          "name": "G3",
          "ticks": 723840,
          "time": 603.2,
          "velocity": 0.4015748031496063
        },
        {
          "duration": 0.33333333333325754,
          "durationTicks": 400,
          "midi": 43,
          "name": "G2",
          "ticks": 724320,
          "time": 603.6,
          "velocity": 0.4015748031496063
        },
        {
          "duration": 0.33333333333337123,
          "durationTicks": 400,
          "midi": 43,
          "name": "G2",
          "ticks": 724800,
          "time": 604,
          "velocity": 0.4015748031496063
        },
        {
          "duration": 0.33333333333337123,
          "durationTicks": 400,
          "midi": 43,
          "name": "G2",
          "ticks": 725280,
          "time": 604.4,
          "velocity": 0.4015748031496063
        },
        {
          "duration": 0.599999999999909,
          "durationTicks": 720,
          "midi": 48,
          "name": "C3",
          "ticks": 725760,
          "time": 604.8000000000001,
          "velocity": 0.4015748031496063
        },
        {
          "duration": 0.19666666666671517,
          "durationTicks": 236,
          "midi": 47,
          "name": "B2",
          "ticks": 726480,
          "time": 605.4,
          "velocity": 0.4015748031496063
        },
        {
          "duration": 0.6000000000000227,
          "durationTicks": 720,
          "midi": 52,
          "name": "E3",
          "ticks": 726720,
          "time": 605.6,
          "velocity": 0.4015748031496063
        },
        {
          "duration": 0.1966666666666015,
          "durationTicks": 236,
          "midi": 50,
          "name": "D3",
          "ticks": 727440,
          "time": 606.2,
          "velocity": 0.4015748031496063
        },
        {
          "duration": 0.8000000000000682,
          "durationTicks": 960,
          "midi": 55,
          "name": "G3",
          "ticks": 727680,
          "time": 606.4,
          "velocity": 0.4015748031496063
        },
        {
          "duration": 0.6999999999999318,
          "durationTicks": 840,
          "midi": 53,
          "name": "F3",
          "ticks": 728640,
          "time": 607.2,
          "velocity": 0.4015748031496063
        },
        {
          "duration": 0.33333333333337123,
          "durationTicks": 400,
          "midi": 52,
          "name": "E3",
          "ticks": 729600,
          "time": 608,
          "velocity": 0.4015748031496063
        },
        {
          "duration": 0.33333333333325754,
          "durationTicks": 400,
          "midi": 57,
          "name": "A3",
          "ticks": 730560,
          "time": 608.8000000000001,
          "velocity": 0.4015748031496063
        },
        {
          "duration": 0.33333333333325754,
          "durationTicks": 400,
          "midi": 53,
          "name": "F3",
          "ticks": 731520,
          "time": 609.6,
          "velocity": 0.4015748031496063
        },
        {
          "duration": 0.33333333333337123,
          "durationTicks": 400,
          "midi": 55,
          "name": "G3",
          "ticks": 732480,
          "time": 610.4,
          "velocity": 0.4015748031496063
        },
        {
          "duration": 0.1966666666666015,
          "durationTicks": 236,
          "midi": 55,
          "name": "G3",
          "ticks": 733200,
          "time": 611,
          "velocity": 0.4015748031496063
        },
        {
          "duration": 0.6000000000000227,
          "durationTicks": 720,
          "midi": 60,
          "name": "C4",
          "ticks": 733440,
          "time": 611.2,
          "velocity": 0.4015748031496063
        },
        {
          "duration": 0.1966666666666015,
          "durationTicks": 236,
          "midi": 59,
          "name": "B3",
          "ticks": 734160,
          "time": 611.8000000000001,
          "velocity": 0.4015748031496063
        },
        {
          "duration": 0.6000000000000227,
          "durationTicks": 720,
          "midi": 64,
          "name": "E4",
          "ticks": 734400,
          "time": 612,
          "velocity": 0.4015748031496063
        },
        {
          "duration": 0.1966666666666015,
          "durationTicks": 236,
          "midi": 62,
          "name": "D4",
          "ticks": 735120,
          "time": 612.6,
          "velocity": 0.4015748031496063
        },
        {
          "duration": 0.7999999999999545,
          "durationTicks": 960,
          "midi": 67,
          "name": "G4",
          "ticks": 735360,
          "time": 612.8000000000001,
          "velocity": 0.4015748031496063
        },
        {
          "duration": 0.7000000000000455,
          "durationTicks": 840,
          "midi": 65,
          "name": "F4",
          "ticks": 736320,
          "time": 613.6,
          "velocity": 0.4015748031496063
        },
        {
          "duration": 0.09999999999990905,
          "durationTicks": 120,
          "midi": 64,
          "name": "E4",
          "ticks": 737280,
          "time": 614.4000000000001,
          "velocity": 0.4015748031496063
        },
        {
          "duration": 0.10000000000002274,
          "durationTicks": 120,
          "midi": 64,
          "name": "E4",
          "ticks": 737760,
          "time": 614.8000000000001,
          "velocity": 0.4015748031496063
        },
        {
          "duration": 0.10000000000002274,
          "durationTicks": 120,
          "midi": 64,
          "name": "E4",
          "ticks": 738240,
          "time": 615.2,
          "velocity": 0.4015748031496063
        },
        {
          "duration": 0.16000000000008185,
          "durationTicks": 192,
          "midi": 65,
          "name": "F4",
          "ticks": 739200,
          "time": 616,
          "velocity": 0.4015748031496063
        },
        {
          "duration": 0.15999999999996817,
          "durationTicks": 192,
          "midi": 65,
          "name": "F4",
          "ticks": 739680,
          "time": 616.4000000000001,
          "velocity": 0.4015748031496063
        },
        {
          "duration": 0.15999999999996817,
          "durationTicks": 192,
          "midi": 65,
          "name": "F4",
          "ticks": 740160,
          "time": 616.8000000000001,
          "velocity": 0.4015748031496063
        },
        {
          "duration": 0.16000000000008185,
          "durationTicks": 192,
          "midi": 67,
          "name": "G4",
          "ticks": 741120,
          "time": 617.6,
          "velocity": 0.4015748031496063
        },
        {
          "duration": 0.16000000000008185,
          "durationTicks": 192,
          "midi": 67,
          "name": "G4",
          "ticks": 741600,
          "time": 618,
          "velocity": 0.4015748031496063
        },
        {
          "duration": 0.15999999999996817,
          "durationTicks": 192,
          "midi": 67,
          "name": "G4",
          "ticks": 742080,
          "time": 618.4000000000001,
          "velocity": 0.4015748031496063
        },
        {
          "duration": 0.1966666666666015,
          "durationTicks": 236,
          "midi": 65,
          "name": "F4",
          "ticks": 744960,
          "time": 620.8000000000001,
          "velocity": 0.8267716535433071
        },
        {
          "duration": 0.19666666666671517,
          "durationTicks": 236,
          "midi": 65,
          "name": "F4",
          "ticks": 745200,
          "time": 621,
          "velocity": 0.8267716535433071
        },
        {
          "duration": 0.1966666666666015,
          "durationTicks": 236,
          "midi": 65,
          "name": "F4",
          "ticks": 745440,
          "time": 621.2,
          "velocity": 0.8267716535433071
        },
        {
          "duration": 0.1966666666666015,
          "durationTicks": 236,
          "midi": 65,
          "name": "F4",
          "ticks": 745680,
          "time": 621.4000000000001,
          "velocity": 0.8267716535433071
        },
        {
          "duration": 0.1966666666666015,
          "durationTicks": 236,
          "midi": 65,
          "name": "F4",
          "ticks": 745920,
          "time": 621.6,
          "velocity": 0.8267716535433071
        },
        {
          "duration": 0.1966666666666015,
          "durationTicks": 236,
          "midi": 65,
          "name": "F4",
          "ticks": 746160,
          "time": 621.8000000000001,
          "velocity": 0.8267716535433071
        },
        {
          "duration": 0.19666666666671517,
          "durationTicks": 236,
          "midi": 65,
          "name": "F4",
          "ticks": 746400,
          "time": 622,
          "velocity": 0.8267716535433071
        },
        {
          "duration": 0.1966666666666015,
          "durationTicks": 236,
          "midi": 65,
          "name": "F4",
          "ticks": 746640,
          "time": 622.2,
          "velocity": 0.8267716535433071
        },
        {
          "duration": 0.1966666666666015,
          "durationTicks": 236,
          "midi": 65,
          "name": "F4",
          "ticks": 746880,
          "time": 622.4000000000001,
          "velocity": 0.8267716535433071
        },
        {
          "duration": 0.1966666666666015,
          "durationTicks": 236,
          "midi": 65,
          "name": "F4",
          "ticks": 747120,
          "time": 622.6,
          "velocity": 0.8267716535433071
        },
        {
          "duration": 0.1966666666666015,
          "durationTicks": 236,
          "midi": 65,
          "name": "F4",
          "ticks": 747360,
          "time": 622.8000000000001,
          "velocity": 0.8267716535433071
        },
        {
          "duration": 0.19666666666671517,
          "durationTicks": 236,
          "midi": 65,
          "name": "F4",
          "ticks": 747600,
          "time": 623,
          "velocity": 0.8267716535433071
        },
        {
          "duration": 0.1966666666666015,
          "durationTicks": 236,
          "midi": 65,
          "name": "F4",
          "ticks": 747840,
          "time": 623.2,
          "velocity": 0.8267716535433071
        },
        {
          "duration": 0.1966666666666015,
          "durationTicks": 236,
          "midi": 65,
          "name": "F4",
          "ticks": 748080,
          "time": 623.4000000000001,
          "velocity": 0.8267716535433071
        },
        {
          "duration": 0.1966666666666015,
          "durationTicks": 236,
          "midi": 65,
          "name": "F4",
          "ticks": 748320,
          "time": 623.6,
          "velocity": 0.8267716535433071
        },
        {
          "duration": 0.1966666666666015,
          "durationTicks": 236,
          "midi": 65,
          "name": "F4",
          "ticks": 748560,
          "time": 623.8000000000001,
          "velocity": 0.8267716535433071
        },
        {
          "duration": 0.19666666666671517,
          "durationTicks": 236,
          "midi": 65,
          "name": "F4",
          "ticks": 748800,
          "time": 624,
          "velocity": 0.8267716535433071
        },
        {
          "duration": 0.1966666666666015,
          "durationTicks": 236,
          "midi": 53,
          "name": "F3",
          "ticks": 749040,
          "time": 624.2,
          "velocity": 0.8267716535433071
        },
        {
          "duration": 0.1966666666666015,
          "durationTicks": 236,
          "midi": 53,
          "name": "F3",
          "ticks": 749280,
          "time": 624.4000000000001,
          "velocity": 0.8267716535433071
        },
        {
          "duration": 0.1966666666666015,
          "durationTicks": 236,
          "midi": 53,
          "name": "F3",
          "ticks": 749520,
          "time": 624.6,
          "velocity": 0.8267716535433071
        },
        {
          "duration": 0.1966666666666015,
          "durationTicks": 236,
          "midi": 53,
          "name": "F3",
          "ticks": 749760,
          "time": 624.8000000000001,
          "velocity": 0.8267716535433071
        },
        {
          "duration": 0.19666666666671517,
          "durationTicks": 236,
          "midi": 53,
          "name": "F3",
          "ticks": 750000,
          "time": 625,
          "velocity": 0.8267716535433071
        },
        {
          "duration": 0.1966666666666015,
          "durationTicks": 236,
          "midi": 53,
          "name": "F3",
          "ticks": 750240,
          "time": 625.2,
          "velocity": 0.8267716535433071
        },
        {
          "duration": 0.1966666666666015,
          "durationTicks": 236,
          "midi": 53,
          "name": "F3",
          "ticks": 750480,
          "time": 625.4000000000001,
          "velocity": 0.8267716535433071
        },
        {
          "duration": 0.1966666666666015,
          "durationTicks": 236,
          "midi": 52,
          "name": "E3",
          "ticks": 750720,
          "time": 625.6,
          "velocity": 0.8267716535433071
        },
        {
          "duration": 0.1966666666666015,
          "durationTicks": 236,
          "midi": 52,
          "name": "E3",
          "ticks": 750960,
          "time": 625.8000000000001,
          "velocity": 0.8267716535433071
        },
        {
          "duration": 0.19666666666671517,
          "durationTicks": 236,
          "midi": 52,
          "name": "E3",
          "ticks": 751200,
          "time": 626,
          "velocity": 0.8267716535433071
        },
        {
          "duration": 0.1966666666666015,
          "durationTicks": 236,
          "midi": 52,
          "name": "E3",
          "ticks": 751440,
          "time": 626.2,
          "velocity": 0.8267716535433071
        },
        {
          "duration": 0.1966666666666015,
          "durationTicks": 236,
          "midi": 52,
          "name": "E3",
          "ticks": 751680,
          "time": 626.4000000000001,
          "velocity": 0.8267716535433071
        },
        {
          "duration": 0.1966666666666015,
          "durationTicks": 236,
          "midi": 52,
          "name": "E3",
          "ticks": 751920,
          "time": 626.6,
          "velocity": 0.8267716535433071
        },
        {
          "duration": 0.1966666666666015,
          "durationTicks": 236,
          "midi": 52,
          "name": "E3",
          "ticks": 752160,
          "time": 626.8000000000001,
          "velocity": 0.8267716535433071
        },
        {
          "duration": 0.19666666666671517,
          "durationTicks": 236,
          "midi": 52,
          "name": "E3",
          "ticks": 752400,
          "time": 627,
          "velocity": 0.8267716535433071
        },
        {
          "duration": 0.1966666666666015,
          "durationTicks": 236,
          "midi": 51,
          "name": "D#3",
          "ticks": 752640,
          "time": 627.2,
          "velocity": 0.8267716535433071
        },
        {
          "duration": 0.1966666666666015,
          "durationTicks": 236,
          "midi": 51,
          "name": "D#3",
          "ticks": 752880,
          "time": 627.4000000000001,
          "velocity": 0.8267716535433071
        },
        {
          "duration": 0.1966666666666015,
          "durationTicks": 236,
          "midi": 51,
          "name": "D#3",
          "ticks": 753120,
          "time": 627.6,
          "velocity": 0.8267716535433071
        },
        {
          "duration": 0.1966666666666015,
          "durationTicks": 236,
          "midi": 51,
          "name": "D#3",
          "ticks": 753360,
          "time": 627.8000000000001,
          "velocity": 0.8267716535433071
        },
        {
          "duration": 0.19666666666671517,
          "durationTicks": 236,
          "midi": 51,
          "name": "D#3",
          "ticks": 753600,
          "time": 628,
          "velocity": 0.8267716535433071
        },
        {
          "duration": 0.1966666666666015,
          "durationTicks": 236,
          "midi": 51,
          "name": "D#3",
          "ticks": 753840,
          "time": 628.2,
          "velocity": 0.8267716535433071
        },
        {
          "duration": 0.1966666666666015,
          "durationTicks": 236,
          "midi": 51,
          "name": "D#3",
          "ticks": 754080,
          "time": 628.4000000000001,
          "velocity": 0.8267716535433071
        },
        {
          "duration": 0.1966666666666015,
          "durationTicks": 236,
          "midi": 51,
          "name": "D#3",
          "ticks": 754320,
          "time": 628.6,
          "velocity": 0.8267716535433071
        },
        {
          "duration": 0.1966666666666015,
          "durationTicks": 236,
          "midi": 50,
          "name": "D3",
          "ticks": 754560,
          "time": 628.8000000000001,
          "velocity": 0.8267716535433071
        },
        {
          "duration": 0.19666666666671517,
          "durationTicks": 236,
          "midi": 50,
          "name": "D3",
          "ticks": 754800,
          "time": 629,
          "velocity": 0.8267716535433071
        },
        {
          "duration": 0.1966666666666015,
          "durationTicks": 236,
          "midi": 50,
          "name": "D3",
          "ticks": 755040,
          "time": 629.2,
          "velocity": 0.8267716535433071
        },
        {
          "duration": 0.1966666666666015,
          "durationTicks": 236,
          "midi": 50,
          "name": "D3",
          "ticks": 755280,
          "time": 629.4000000000001,
          "velocity": 0.8267716535433071
        },
        {
          "duration": 0.1966666666666015,
          "durationTicks": 236,
          "midi": 50,
          "name": "D3",
          "ticks": 755520,
          "time": 629.6,
          "velocity": 0.8267716535433071
        },
        {
          "duration": 0.1966666666666015,
          "durationTicks": 236,
          "midi": 50,
          "name": "D3",
          "ticks": 755760,
          "time": 629.8000000000001,
          "velocity": 0.8267716535433071
        },
        {
          "duration": 0.19666666666671517,
          "durationTicks": 236,
          "midi": 50,
          "name": "D3",
          "ticks": 756000,
          "time": 630,
          "velocity": 0.8267716535433071
        },
        {
          "duration": 0.1966666666666015,
          "durationTicks": 236,
          "midi": 50,
          "name": "D3",
          "ticks": 756240,
          "time": 630.2,
          "velocity": 0.8267716535433071
        },
        {
          "duration": 0.33333333333325754,
          "durationTicks": 400,
          "midi": 52,
          "name": "E3",
          "ticks": 756480,
          "time": 630.4000000000001,
          "velocity": 0.8267716535433071
        },
        {
          "duration": 0.33333333333325754,
          "durationTicks": 400,
          "midi": 53,
          "name": "F3",
          "ticks": 757440,
          "time": 631.2,
          "velocity": 0.8267716535433071
        },
        {
          "duration": 0.33333333333337123,
          "durationTicks": 400,
          "midi": 55,
          "name": "G3",
          "ticks": 758400,
          "time": 632,
          "velocity": 0.8267716535433071
        },
        {
          "duration": 0.33333333333325754,
          "durationTicks": 400,
          "midi": 43,
          "name": "G2",
          "ticks": 759360,
          "time": 632.8000000000001,
          "velocity": 0.8267716535433071
        },
        {
          "duration": 0.1966666666666015,
          "durationTicks": 236,
          "midi": 48,
          "name": "C3",
          "ticks": 760320,
          "time": 633.6,
          "velocity": 0.8267716535433071
        },
        {
          "duration": 0.1966666666666015,
          "durationTicks": 236,
          "midi": 48,
          "name": "C3",
          "ticks": 760560,
          "time": 633.8000000000001,
          "velocity": 0.8267716535433071
        },
        {
          "duration": 0.19666666666671517,
          "durationTicks": 236,
          "midi": 48,
          "name": "C3",
          "ticks": 760800,
          "time": 634,
          "velocity": 0.8267716535433071
        },
        {
          "duration": 0.1966666666666015,
          "durationTicks": 236,
          "midi": 48,
          "name": "C3",
          "ticks": 761040,
          "time": 634.2,
          "velocity": 0.8267716535433071
        },
        {
          "duration": 0.1966666666666015,
          "durationTicks": 236,
          "midi": 48,
          "name": "C3",
          "ticks": 761280,
          "time": 634.4000000000001,
          "velocity": 0.8267716535433071
        },
        {
          "duration": 0.1966666666666015,
          "durationTicks": 236,
          "midi": 48,
          "name": "C3",
          "ticks": 761520,
          "time": 634.6,
          "velocity": 0.8267716535433071
        },
        {
          "duration": 0.1966666666666015,
          "durationTicks": 236,
          "midi": 48,
          "name": "C3",
          "ticks": 761760,
          "time": 634.8000000000001,
          "velocity": 0.8267716535433071
        },
        {
          "duration": 0.19666666666671517,
          "durationTicks": 236,
          "midi": 48,
          "name": "C3",
          "ticks": 762000,
          "time": 635,
          "velocity": 0.8267716535433071
        },
        {
          "duration": 0.1966666666666015,
          "durationTicks": 236,
          "midi": 48,
          "name": "C3",
          "ticks": 762240,
          "time": 635.2,
          "velocity": 0.8267716535433071
        },
        {
          "duration": 0.1966666666666015,
          "durationTicks": 236,
          "midi": 48,
          "name": "C3",
          "ticks": 762480,
          "time": 635.4000000000001,
          "velocity": 0.8267716535433071
        },
        {
          "duration": 0.1966666666666015,
          "durationTicks": 236,
          "midi": 48,
          "name": "C3",
          "ticks": 762720,
          "time": 635.6,
          "velocity": 0.8267716535433071
        },
        {
          "duration": 0.1966666666666015,
          "durationTicks": 236,
          "midi": 48,
          "name": "C3",
          "ticks": 762960,
          "time": 635.8000000000001,
          "velocity": 0.8267716535433071
        },
        {
          "duration": 0.19666666666671517,
          "durationTicks": 236,
          "midi": 48,
          "name": "C3",
          "ticks": 763200,
          "time": 636,
          "velocity": 0.8267716535433071
        },
        {
          "duration": 0.1966666666666015,
          "durationTicks": 236,
          "midi": 48,
          "name": "C3",
          "ticks": 763440,
          "time": 636.2,
          "velocity": 0.8267716535433071
        },
        {
          "duration": 0.1966666666666015,
          "durationTicks": 236,
          "midi": 48,
          "name": "C3",
          "ticks": 763680,
          "time": 636.4000000000001,
          "velocity": 0.8267716535433071
        },
        {
          "duration": 0.1966666666666015,
          "durationTicks": 236,
          "midi": 48,
          "name": "C3",
          "ticks": 763920,
          "time": 636.6,
          "velocity": 0.8267716535433071
        },
        {
          "duration": 0.1966666666666015,
          "durationTicks": 236,
          "midi": 48,
          "name": "C3",
          "ticks": 764160,
          "time": 636.8000000000001,
          "velocity": 0.8267716535433071
        },
        {
          "duration": 0.19666666666671517,
          "durationTicks": 236,
          "midi": 48,
          "name": "C3",
          "ticks": 764400,
          "time": 637,
          "velocity": 0.8267716535433071
        },
        {
          "duration": 0.1966666666666015,
          "durationTicks": 236,
          "midi": 48,
          "name": "C3",
          "ticks": 764640,
          "time": 637.2,
          "velocity": 0.8267716535433071
        },
        {
          "duration": 0.1966666666666015,
          "durationTicks": 236,
          "midi": 48,
          "name": "C3",
          "ticks": 764880,
          "time": 637.4000000000001,
          "velocity": 0.8267716535433071
        },
        {
          "duration": 0.1966666666666015,
          "durationTicks": 236,
          "midi": 48,
          "name": "C3",
          "ticks": 765120,
          "time": 637.6,
          "velocity": 0.8267716535433071
        },
        {
          "duration": 0.1966666666666015,
          "durationTicks": 236,
          "midi": 48,
          "name": "C3",
          "ticks": 765360,
          "time": 637.8000000000001,
          "velocity": 0.8267716535433071
        },
        {
          "duration": 0.19666666666671517,
          "durationTicks": 236,
          "midi": 48,
          "name": "C3",
          "ticks": 765600,
          "time": 638,
          "velocity": 0.8267716535433071
        },
        {
          "duration": 0.1966666666666015,
          "durationTicks": 236,
          "midi": 48,
          "name": "C3",
          "ticks": 765840,
          "time": 638.2,
          "velocity": 0.8267716535433071
        },
        {
          "duration": 0.1966666666666015,
          "durationTicks": 236,
          "midi": 48,
          "name": "C3",
          "ticks": 766080,
          "time": 638.4000000000001,
          "velocity": 0.6771653543307087
        },
        {
          "duration": 0.1966666666666015,
          "durationTicks": 236,
          "midi": 48,
          "name": "C3",
          "ticks": 766320,
          "time": 638.6,
          "velocity": 0.6771653543307087
        },
        {
          "duration": 0.1966666666666015,
          "durationTicks": 236,
          "midi": 48,
          "name": "C3",
          "ticks": 766560,
          "time": 638.8000000000001,
          "velocity": 0.6771653543307087
        },
        {
          "duration": 0.19666666666671517,
          "durationTicks": 236,
          "midi": 48,
          "name": "C3",
          "ticks": 766800,
          "time": 639,
          "velocity": 0.6771653543307087
        },
        {
          "duration": 0.1966666666666015,
          "durationTicks": 236,
          "midi": 48,
          "name": "C3",
          "ticks": 767040,
          "time": 639.2,
          "velocity": 0.6771653543307087
        },
        {
          "duration": 0.1966666666666015,
          "durationTicks": 236,
          "midi": 48,
          "name": "C3",
          "ticks": 767280,
          "time": 639.4000000000001,
          "velocity": 0.6771653543307087
        },
        {
          "duration": 0.1966666666666015,
          "durationTicks": 236,
          "midi": 48,
          "name": "C3",
          "ticks": 767520,
          "time": 639.6,
          "velocity": 0.6771653543307087
        },
        {
          "duration": 0.1966666666666015,
          "durationTicks": 236,
          "midi": 48,
          "name": "C3",
          "ticks": 767760,
          "time": 639.8000000000001,
          "velocity": 0.6771653543307087
        },
        {
          "duration": 0.19666666666671517,
          "durationTicks": 236,
          "midi": 53,
          "name": "F3",
          "ticks": 768000,
          "time": 640,
          "velocity": 0.6771653543307087
        },
        {
          "duration": 0.1966666666666015,
          "durationTicks": 236,
          "midi": 53,
          "name": "F3",
          "ticks": 768240,
          "time": 640.2,
          "velocity": 0.6771653543307087
        },
        {
          "duration": 0.1966666666666015,
          "durationTicks": 236,
          "midi": 53,
          "name": "F3",
          "ticks": 768480,
          "time": 640.4000000000001,
          "velocity": 0.6771653543307087
        },
        {
          "duration": 0.1966666666666015,
          "durationTicks": 236,
          "midi": 53,
          "name": "F3",
          "ticks": 768720,
          "time": 640.6,
          "velocity": 0.6771653543307087
        },
        {
          "duration": 0.1966666666666015,
          "durationTicks": 236,
          "midi": 55,
          "name": "G3",
          "ticks": 768960,
          "time": 640.8000000000001,
          "velocity": 0.6771653543307087
        },
        {
          "duration": 0.19666666666671517,
          "durationTicks": 236,
          "midi": 55,
          "name": "G3",
          "ticks": 769200,
          "time": 641,
          "velocity": 0.6771653543307087
        },
        {
          "duration": 0.1966666666666015,
          "durationTicks": 236,
          "midi": 55,
          "name": "G3",
          "ticks": 769440,
          "time": 641.2,
          "velocity": 0.6771653543307087
        },
        {
          "duration": 0.1966666666666015,
          "durationTicks": 236,
          "midi": 55,
          "name": "G3",
          "ticks": 769680,
          "time": 641.4000000000001,
          "velocity": 0.6771653543307087
        },
        {
          "duration": 0.6000000000000227,
          "durationTicks": 720,
          "midi": 48,
          "name": "C3",
          "ticks": 769920,
          "time": 641.6,
          "velocity": 0.6771653543307087
        },
        {
          "duration": 0.1966666666666015,
          "durationTicks": 236,
          "midi": 47,
          "name": "B2",
          "ticks": 770640,
          "time": 642.2,
          "velocity": 0.6771653543307087
        },
        {
          "duration": 0.2999999999999545,
          "durationTicks": 360,
          "midi": 50,
          "name": "D3",
          "ticks": 770880,
          "time": 642.4000000000001,
          "velocity": 0.6771653543307087
        },
        {
          "duration": 0.09666666666657875,
          "durationTicks": 116,
          "midi": 48,
          "name": "C3",
          "ticks": 771240,
          "time": 642.7,
          "velocity": 0.6771653543307087
        },
        {
          "duration": 0.2999999999999545,
          "durationTicks": 360,
          "midi": 53,
          "name": "F3",
          "ticks": 771360,
          "time": 642.8000000000001,
          "velocity": 0.6771653543307087
        },
        {
          "duration": 0.09666666666669244,
          "durationTicks": 116,
          "midi": 52,
          "name": "E3",
          "ticks": 771720,
          "time": 643.1,
          "velocity": 0.6771653543307087
        },
        {
          "duration": 0.6000000000000227,
          "durationTicks": 720,
          "midi": 50,
          "name": "D3",
          "ticks": 771840,
          "time": 643.2,
          "velocity": 0.6771653543307087
        },
        {
          "duration": 0.1966666666666015,
          "durationTicks": 236,
          "midi": 49,
          "name": "C#3",
          "ticks": 772560,
          "time": 643.8000000000001,
          "velocity": 0.6771653543307087
        },
        {
          "duration": 0.3000000000000682,
          "durationTicks": 360,
          "midi": 52,
          "name": "E3",
          "ticks": 772800,
          "time": 644,
          "velocity": 0.6771653543307087
        },
        {
          "duration": 0.09666666666657875,
          "durationTicks": 116,
          "midi": 50,
          "name": "D3",
          "ticks": 773160,
          "time": 644.3000000000001,
          "velocity": 0.6771653543307087
        },
        {
          "duration": 0.2999999999999545,
          "durationTicks": 360,
          "midi": 55,
          "name": "G3",
          "ticks": 773280,
          "time": 644.4000000000001,
          "velocity": 0.6771653543307087
        },
        {
          "duration": 0.09666666666657875,
          "durationTicks": 116,
          "midi": 53,
          "name": "F3",
          "ticks": 773640,
          "time": 644.7,
          "velocity": 0.6771653543307087
        },
        {
          "duration": 0.6000000000000227,
          "durationTicks": 720,
          "midi": 52,
          "name": "E3",
          "ticks": 773760,
          "time": 644.8000000000001,
          "velocity": 0.6771653543307087
        },
        {
          "duration": 0.1966666666666015,
          "durationTicks": 236,
          "midi": 51,
          "name": "D#3",
          "ticks": 774480,
          "time": 645.4000000000001,
          "velocity": 0.6771653543307087
        },
        {
          "duration": 0.3000000000000682,
          "durationTicks": 360,
          "midi": 53,
          "name": "F3",
          "ticks": 774720,
          "time": 645.6,
          "velocity": 0.6771653543307087
        },
        {
          "duration": 0.09666666666657875,
          "durationTicks": 116,
          "midi": 52,
          "name": "E3",
          "ticks": 775080,
          "time": 645.9000000000001,
          "velocity": 0.6771653543307087
        },
        {
          "duration": 0.3000000000000682,
          "durationTicks": 360,
          "midi": 57,
          "name": "A3",
          "ticks": 775200,
          "time": 646,
          "velocity": 0.6771653543307087
        },
        {
          "duration": 0.09666666666657875,
          "durationTicks": 116,
          "midi": 55,
          "name": "G3",
          "ticks": 775560,
          "time": 646.3000000000001,
          "velocity": 0.6771653543307087
        },
        {
          "duration": 0.33333333333325754,
          "durationTicks": 400,
          "midi": 53,
          "name": "F3",
          "ticks": 775680,
          "time": 646.4000000000001,
          "velocity": 0.6771653543307087
        },
        {
          "duration": 0.33333333333325754,
          "durationTicks": 400,
          "midi": 55,
          "name": "G3",
          "ticks": 776160,
          "time": 646.8000000000001,
          "velocity": 0.6771653543307087
        },
        {
          "duration": 0.33333333333325754,
          "durationTicks": 400,
          "midi": 53,
          "name": "F3",
          "ticks": 776640,
          "time": 647.2,
          "velocity": 0.6771653543307087
        },
        {
          "duration": 0.33333333333337123,
          "durationTicks": 400,
          "midi": 61,
          "name": "C#4",
          "ticks": 777120,
          "time": 647.6,
          "velocity": 0.6771653543307087
        },
        {
          "duration": 0.19666666666671517,
          "durationTicks": 236,
          "midi": 62,
          "name": "D4",
          "ticks": 777600,
          "time": 648,
          "velocity": 0.6771653543307087
        },
        {
          "duration": 0.1966666666666015,
          "durationTicks": 236,
          "midi": 62,
          "name": "D4",
          "ticks": 777840,
          "time": 648.2,
          "velocity": 0.6771653543307087
        },
        {
          "duration": 0.1966666666666015,
          "durationTicks": 236,
          "midi": 60,
          "name": "C4",
          "ticks": 778080,
          "time": 648.4000000000001,
          "velocity": 0.6771653543307087
        },
        {
          "duration": 0.1966666666666015,
          "durationTicks": 236,
          "midi": 60,
          "name": "C4",
          "ticks": 778320,
          "time": 648.6,
          "velocity": 0.6771653543307087
        },
        {
          "duration": 0.1966666666666015,
          "durationTicks": 236,
          "midi": 59,
          "name": "B3",
          "ticks": 778560,
          "time": 648.8000000000001,
          "velocity": 0.6771653543307087
        },
        {
          "duration": 0.19666666666671517,
          "durationTicks": 236,
          "midi": 59,
          "name": "B3",
          "ticks": 778800,
          "time": 649,
          "velocity": 0.6771653543307087
        },
        {
          "duration": 0.1966666666666015,
          "durationTicks": 236,
          "midi": 60,
          "name": "C4",
          "ticks": 779040,
          "time": 649.2,
          "velocity": 0.6771653543307087
        },
        {
          "duration": 0.1966666666666015,
          "durationTicks": 236,
          "midi": 60,
          "name": "C4",
          "ticks": 779280,
          "time": 649.4000000000001,
          "velocity": 0.6771653543307087
        },
        {
          "duration": 0.33333333333337123,
          "durationTicks": 400,
          "midi": 59,
          "name": "B3",
          "ticks": 779520,
          "time": 649.6,
          "velocity": 0.6771653543307087
        },
        {
          "duration": 0.20000000000004547,
          "durationTicks": 240,
          "midi": 64,
          "name": "E4",
          "ticks": 803040,
          "time": 669.2,
          "velocity": 0.8267716535433071
        },
        {
          "duration": 0.1999999999999318,
          "durationTicks": 240,
          "midi": 63,
          "name": "D#4",
          "ticks": 803280,
          "time": 669.4000000000001,
          "velocity": 0.8267716535433071
        },
        {
          "duration": 0.20000000000004547,
          "durationTicks": 240,
          "midi": 64,
          "name": "E4",
          "ticks": 803520,
          "time": 669.6,
          "velocity": 0.8267716535433071
        },
        {
          "duration": 0.1999999999999318,
          "durationTicks": 240,
          "midi": 63,
          "name": "D#4",
          "ticks": 803760,
          "time": 669.8000000000001,
          "velocity": 0.8267716535433071
        },
        {
          "duration": 0.20000000000004547,
          "durationTicks": 240,
          "midi": 64,
          "name": "E4",
          "ticks": 804000,
          "time": 670,
          "velocity": 0.8267716535433071
        },
        {
          "duration": 0.1966666666666015,
          "durationTicks": 236,
          "midi": 61,
          "name": "C#4",
          "ticks": 804240,
          "time": 670.2,
          "velocity": 0.8267716535433071
        },
        {
          "duration": 0.1966666666666015,
          "durationTicks": 236,
          "midi": 62,
          "name": "D4",
          "ticks": 804480,
          "time": 670.4000000000001,
          "velocity": 0.8267716535433071
        },
        {
          "duration": 0.1999999999999318,
          "durationTicks": 240,
          "midi": 62,
          "name": "D4",
          "ticks": 804960,
          "time": 670.8000000000001,
          "velocity": 0.8267716535433071
        },
        {
          "duration": 0.20000000000004547,
          "durationTicks": 240,
          "midi": 61,
          "name": "C#4",
          "ticks": 805200,
          "time": 671,
          "velocity": 0.8267716535433071
        },
        {
          "duration": 0.20000000000004547,
          "durationTicks": 240,
          "midi": 62,
          "name": "D4",
          "ticks": 805440,
          "time": 671.2,
          "velocity": 0.8267716535433071
        },
        {
          "duration": 0.1999999999999318,
          "durationTicks": 240,
          "midi": 61,
          "name": "C#4",
          "ticks": 805680,
          "time": 671.4000000000001,
          "velocity": 0.8267716535433071
        },
        {
          "duration": 0.20000000000004547,
          "durationTicks": 240,
          "midi": 62,
          "name": "D4",
          "ticks": 805920,
          "time": 671.6,
          "velocity": 0.8267716535433071
        },
        {
          "duration": 0.1966666666666015,
          "durationTicks": 236,
          "midi": 59,
          "name": "B3",
          "ticks": 806160,
          "time": 671.8000000000001,
          "velocity": 0.8267716535433071
        },
        {
          "duration": 0.19666666666671517,
          "durationTicks": 236,
          "midi": 60,
          "name": "C4",
          "ticks": 806400,
          "time": 672,
          "velocity": 0.8267716535433071
        },
        {
          "duration": 0.06666666666660603,
          "durationTicks": 80,
          "midi": 57,
          "name": "A3",
          "ticks": 806880,
          "time": 672.4000000000001,
          "velocity": 0.8267716535433071
        },
        {
          "duration": 0.06666666666671972,
          "durationTicks": 80,
          "midi": 57,
          "name": "A3",
          "ticks": 807120,
          "time": 672.6,
          "velocity": 0.8267716535433071
        },
        {
          "duration": 0.06666666666671972,
          "durationTicks": 80,
          "midi": 53,
          "name": "F3",
          "ticks": 807360,
          "time": 672.8000000000001,
          "velocity": 0.8267716535433071
        },
        {
          "duration": 0.06666666666671972,
          "durationTicks": 80,
          "midi": 53,
          "name": "F3",
          "ticks": 807600,
          "time": 673,
          "velocity": 0.8267716535433071
        },
        {
          "duration": 0.06666666666671972,
          "durationTicks": 80,
          "midi": 55,
          "name": "G3",
          "ticks": 807840,
          "time": 673.2,
          "velocity": 0.8267716535433071
        },
        {
          "duration": 0.06666666666660603,
          "durationTicks": 80,
          "midi": 55,
          "name": "G3",
          "ticks": 808080,
          "time": 673.4000000000001,
          "velocity": 0.8267716535433071
        },
        {
          "duration": 0.1966666666666015,
          "durationTicks": 236,
          "midi": 48,
          "name": "C3",
          "ticks": 808320,
          "time": 673.6,
          "velocity": 0.8267716535433071
        },
        {
          "duration": 0.20000000000004547,
          "durationTicks": 240,
          "midi": 64,
          "name": "E4",
          "ticks": 808800,
          "time": 674,
          "velocity": 0.8267716535433071
        },
        {
          "duration": 0.20000000000004547,
          "durationTicks": 240,
          "midi": 63,
          "name": "D#4",
          "ticks": 809040,
          "time": 674.2,
          "velocity": 0.8267716535433071
        },
        {
          "duration": 0.1999999999999318,
          "durationTicks": 240,
          "midi": 64,
          "name": "E4",
          "ticks": 809280,
          "time": 674.4000000000001,
          "velocity": 0.8267716535433071
        },
        {
          "duration": 0.20000000000004547,
          "durationTicks": 240,
          "midi": 63,
          "name": "D#4",
          "ticks": 809520,
          "time": 674.6,
          "velocity": 0.8267716535433071
        },
        {
          "duration": 0.1999999999999318,
          "durationTicks": 240,
          "midi": 64,
          "name": "E4",
          "ticks": 809760,
          "time": 674.8000000000001,
          "velocity": 0.8267716535433071
        },
        {
          "duration": 0.19666666666671517,
          "durationTicks": 236,
          "midi": 61,
          "name": "C#4",
          "ticks": 810000,
          "time": 675,
          "velocity": 0.8267716535433071
        },
        {
          "duration": 0.1966666666666015,
          "durationTicks": 236,
          "midi": 62,
          "name": "D4",
          "ticks": 810240,
          "time": 675.2,
          "velocity": 0.8267716535433071
        },
        {
          "duration": 0.20000000000004547,
          "durationTicks": 240,
          "midi": 62,
          "name": "D4",
          "ticks": 810720,
          "time": 675.6,
          "velocity": 0.8267716535433071
        },
        {
          "duration": 0.1999999999999318,
          "durationTicks": 240,
          "midi": 61,
          "name": "C#4",
          "ticks": 810960,
          "time": 675.8000000000001,
          "velocity": 0.8267716535433071
        },
        {
          "duration": 0.20000000000004547,
          "durationTicks": 240,
          "midi": 62,
          "name": "D4",
          "ticks": 811200,
          "time": 676,
          "velocity": 0.8267716535433071
        },
        {
          "duration": 0.20000000000004547,
          "durationTicks": 240,
          "midi": 61,
          "name": "C#4",
          "ticks": 811440,
          "time": 676.2,
          "velocity": 0.8267716535433071
        },
        {
          "duration": 0.1999999999999318,
          "durationTicks": 240,
          "midi": 62,
          "name": "D4",
          "ticks": 811680,
          "time": 676.4000000000001,
          "velocity": 0.8267716535433071
        },
        {
          "duration": 0.1966666666666015,
          "durationTicks": 236,
          "midi": 59,
          "name": "B3",
          "ticks": 811920,
          "time": 676.6,
          "velocity": 0.8267716535433071
        },
        {
          "duration": 0.1966666666666015,
          "durationTicks": 236,
          "midi": 60,
          "name": "C4",
          "ticks": 812160,
          "time": 676.8000000000001,
          "velocity": 0.8267716535433071
        },
        {
          "duration": 0.1966666666666015,
          "durationTicks": 236,
          "midi": 52,
          "name": "E3",
          "ticks": 812640,
          "time": 677.2,
          "velocity": 0.8267716535433071
        },
        {
          "duration": 0.1966666666666015,
          "durationTicks": 236,
          "midi": 52,
          "name": "E3",
          "ticks": 812880,
          "time": 677.4000000000001,
          "velocity": 0.8267716535433071
        },
        {
          "duration": 0.1966666666666015,
          "durationTicks": 236,
          "midi": 53,
          "name": "F3",
          "ticks": 813120,
          "time": 677.6,
          "velocity": 0.8267716535433071
        },
        {
          "duration": 0.1966666666666015,
          "durationTicks": 236,
          "midi": 53,
          "name": "F3",
          "ticks": 813360,
          "time": 677.8000000000001,
          "velocity": 0.8267716535433071
        },
        {
          "duration": 0.19666666666671517,
          "durationTicks": 236,
          "midi": 55,
          "name": "G3",
          "ticks": 813600,
          "time": 678,
          "velocity": 0.8267716535433071
        },
        {
          "duration": 0.1966666666666015,
          "durationTicks": 236,
          "midi": 55,
          "name": "G3",
          "ticks": 813840,
          "time": 678.2,
          "velocity": 0.8267716535433071
        },
        {
          "duration": 0.1966666666666015,
          "durationTicks": 236,
          "midi": 57,
          "name": "A3",
          "ticks": 814080,
          "time": 678.4000000000001,
          "velocity": 0.8267716535433071
        },
        {
          "duration": 0.1966666666666015,
          "durationTicks": 236,
          "midi": 57,
          "name": "A3",
          "ticks": 814320,
          "time": 678.6,
          "velocity": 0.8267716535433071
        },
        {
          "duration": 0.1966666666666015,
          "durationTicks": 236,
          "midi": 53,
          "name": "F3",
          "ticks": 814560,
          "time": 678.8000000000001,
          "velocity": 0.8267716535433071
        },
        {
          "duration": 0.19666666666671517,
          "durationTicks": 236,
          "midi": 53,
          "name": "F3",
          "ticks": 814800,
          "time": 679,
          "velocity": 0.8267716535433071
        },
        {
          "duration": 0.1966666666666015,
          "durationTicks": 236,
          "midi": 55,
          "name": "G3",
          "ticks": 815040,
          "time": 679.2,
          "velocity": 0.8267716535433071
        },
        {
          "duration": 0.1966666666666015,
          "durationTicks": 236,
          "midi": 55,
          "name": "G3",
          "ticks": 815280,
          "time": 679.4000000000001,
          "velocity": 0.8267716535433071
        },
        {
          "duration": 0.1966666666666015,
          "durationTicks": 236,
          "midi": 43,
          "name": "G2",
          "ticks": 815520,
          "time": 679.6,
          "velocity": 0.8267716535433071
        },
        {
          "duration": 0.1966666666666015,
          "durationTicks": 236,
          "midi": 43,
          "name": "G2",
          "ticks": 815760,
          "time": 679.8000000000001,
          "velocity": 0.8267716535433071
        },
        {
          "duration": 0.33333333333337123,
          "durationTicks": 400,
          "midi": 48,
          "name": "C3",
          "ticks": 816000,
          "time": 680,
          "velocity": 0.9763779527559056
        },
        {
          "duration": 0.33333333333325754,
          "durationTicks": 400,
          "midi": 60,
          "name": "C4",
          "ticks": 816480,
          "time": 680.4000000000001,
          "velocity": 0.9763779527559056
        },
        {
          "duration": 0.33333333333325754,
          "durationTicks": 400,
          "midi": 55,
          "name": "G3",
          "ticks": 817440,
          "time": 681.2,
          "velocity": 0.9763779527559056
        },
        {
          "duration": 0.33333333333337123,
          "durationTicks": 400,
          "midi": 60,
          "name": "C4",
          "ticks": 818400,
          "time": 682,
          "velocity": 0.9763779527559056
        },
        {
          "duration": 0.33333333333325754,
          "durationTicks": 400,
          "midi": 55,
          "name": "G3",
          "ticks": 819360,
          "time": 682.8000000000001,
          "velocity": 0.9763779527559056
        },
        {
          "duration": 0.33333333333337123,
          "durationTicks": 400,
          "midi": 60,
          "name": "C4",
          "ticks": 820320,
          "time": 683.6,
          "velocity": 0.9763779527559056
        },
        {
          "duration": 0.33333333333325754,
          "durationTicks": 400,
          "midi": 55,
          "name": "G3",
          "ticks": 821280,
          "time": 684.4000000000001,
          "velocity": 0.9763779527559056
        },
        {
          "duration": 0.1966666666666015,
          "durationTicks": 236,
          "midi": 48,
          "name": "C3",
          "ticks": 821760,
          "time": 684.8000000000001,
          "velocity": 0.9763779527559056
        },
        {
          "duration": 0.19666666666671517,
          "durationTicks": 236,
          "midi": 43,
          "name": "G2",
          "ticks": 822000,
          "time": 685,
          "velocity": 0.9763779527559056
        },
        {
          "duration": 0.1966666666666015,
          "durationTicks": 236,
          "midi": 48,
          "name": "C3",
          "ticks": 822240,
          "time": 685.2,
          "velocity": 0.9763779527559056
        },
        {
          "duration": 0.1966666666666015,
          "durationTicks": 236,
          "midi": 43,
          "name": "G2",
          "ticks": 822480,
          "time": 685.4000000000001,
          "velocity": 0.9763779527559056
        },
        {
          "duration": 0.1966666666666015,
          "durationTicks": 236,
          "midi": 48,
          "name": "C3",
          "ticks": 822720,
          "time": 685.6,
          "velocity": 0.9763779527559056
        },
        {
          "duration": 0.1966666666666015,
          "durationTicks": 236,
          "midi": 43,
          "name": "G2",
          "ticks": 822960,
          "time": 685.8000000000001,
          "velocity": 0.9763779527559056
        },
        {
          "duration": 0.19666666666671517,
          "durationTicks": 236,
          "midi": 48,
          "name": "C3",
          "ticks": 823200,
          "time": 686,
          "velocity": 0.984251968503937
        },
        {
          "duration": 0.1966666666666015,
          "durationTicks": 236,
          "midi": 43,
          "name": "G2",
          "ticks": 823440,
          "time": 686.2,
          "velocity": 0.9921259842519685
        },
        {
          "duration": 0.1966666666666015,
          "durationTicks": 236,
          "midi": 48,
          "name": "C3",
          "ticks": 823680,
          "time": 686.4000000000001,
          "velocity": 1
        },
        {
          "duration": 0.1966666666666015,
          "durationTicks": 236,
          "midi": 52,
          "name": "E3",
          "ticks": 823920,
          "time": 686.6,
          "velocity": 1
        },
        {
          "duration": 0.1966666666666015,
          "durationTicks": 236,
          "midi": 55,
          "name": "G3",
          "ticks": 824160,
          "time": 686.8000000000001,
          "velocity": 1
        },
        {
          "duration": 0.19666666666671517,
          "durationTicks": 236,
          "midi": 52,
          "name": "E3",
          "ticks": 824400,
          "time": 687,
          "velocity": 1
        },
        {
          "duration": 0.1966666666666015,
          "durationTicks": 236,
          "midi": 55,
          "name": "G3",
          "ticks": 824640,
          "time": 687.2,
          "velocity": 1
        },
        {
          "duration": 0.1966666666666015,
          "durationTicks": 236,
          "midi": 52,
          "name": "E3",
          "ticks": 824880,
          "time": 687.4000000000001,
          "velocity": 1
        },
        {
          "duration": 0.1966666666666015,
          "durationTicks": 236,
          "midi": 55,
          "name": "G3",
          "ticks": 825120,
          "time": 687.6,
          "velocity": 1
        },
        {
          "duration": 0.1966666666666015,
          "durationTicks": 236,
          "midi": 52,
          "name": "E3",
          "ticks": 825360,
          "time": 687.8000000000001,
          "velocity": 1
        },
        {
          "duration": 0.33333333333337123,
          "durationTicks": 400,
          "midi": 48,
          "name": "C3",
          "ticks": 825600,
          "time": 688,
          "velocity": 1
        },
        {
          "duration": 0.33333333333325754,
          "durationTicks": 400,
          "midi": 52,
          "name": "E3",
          "ticks": 826080,
          "time": 688.4000000000001,
          "velocity": 1
        },
        {
          "duration": 0.33333333333325754,
          "durationTicks": 400,
          "midi": 55,
          "name": "G3",
          "ticks": 826560,
          "time": 688.8000000000001,
          "velocity": 1
        },
        {
          "duration": 0.33333333333325754,
          "durationTicks": 400,
          "midi": 52,
          "name": "E3",
          "ticks": 827040,
          "time": 689.2,
          "velocity": 1
        },
        {
          "duration": 0.38461500000005344,
          "durationTicks": 400,
          "midi": 48,
          "name": "C3",
          "ticks": 827520,
          "time": 689.6,
          "velocity": 1
        },
        {
          "duration": 0.4545458333333272,
          "durationTicks": 400,
          "midi": 48,
          "name": "C3",
          "ticks": 828480,
          "time": 690.5230760000001,
          "velocity": 1
        },
        {
          "duration": 1.0499999999999545,
          "durationTicks": 840,
          "midi": 48,
          "name": "C3",
          "ticks": 829440,
          "time": 691.6139860000001,
          "velocity": 1
        }
      ]
    },
    {
      "channel": 10,
      "controlChanges": {},
      "pitchBends": [],
      "instrument": {
        "family": "strings",
        "number": 45,
        "name": "pizzicato strings"
      },
      "name": "",
      "notes": [
        {
          "duration": 0.20000000000001705,
          "durationTicks": 240,
          "midi": 55,
          "name": "G3",
          "ticks": 192000,
          "time": 160,
          "velocity": 0.4015748031496063
        },
        {
          "duration": 0.19999999999998863,
          "durationTicks": 240,
          "midi": 59,
          "name": "B3",
          "ticks": 192240,
          "time": 160.20000000000002,
          "velocity": 0.4015748031496063
        },
        {
          "duration": 0.20000000000001705,
          "durationTicks": 240,
          "midi": 62,
          "name": "D4",
          "ticks": 192480,
          "time": 160.4,
          "velocity": 0.4015748031496063
        },
        {
          "duration": 0.19666666666665833,
          "durationTicks": 236,
          "midi": 59,
          "name": "B3",
          "ticks": 192720,
          "time": 160.60000000000002,
          "velocity": 0.4015748031496063
        },
        {
          "duration": 0.19999999999998863,
          "durationTicks": 240,
          "midi": 55,
          "name": "G3",
          "ticks": 192960,
          "time": 160.8,
          "velocity": 0.4015748031496063
        },
        {
          "duration": 0.20000000000001705,
          "durationTicks": 240,
          "midi": 59,
          "name": "B3",
          "ticks": 193200,
          "time": 161,
          "velocity": 0.4015748031496063
        },
        {
          "duration": 0.19999999999998863,
          "durationTicks": 240,
          "midi": 62,
          "name": "D4",
          "ticks": 193440,
          "time": 161.20000000000002,
          "velocity": 0.4015748031496063
        },
        {
          "duration": 0.19666666666668675,
          "durationTicks": 236,
          "midi": 59,
          "name": "B3",
          "ticks": 193680,
          "time": 161.4,
          "velocity": 0.4015748031496063
        },
        {
          "duration": 0.19999999999998863,
          "durationTicks": 240,
          "midi": 54,
          "name": "F#3",
          "ticks": 193920,
          "time": 161.60000000000002,
          "velocity": 0.4015748031496063
        },
        {
          "duration": 0.19999999999998863,
          "durationTicks": 240,
          "midi": 60,
          "name": "C4",
          "ticks": 194160,
          "time": 161.8,
          "velocity": 0.4015748031496063
        },
        {
          "duration": 0.20000000000001705,
          "durationTicks": 240,
          "midi": 62,
          "name": "D4",
          "ticks": 194400,
          "time": 162,
          "velocity": 0.4015748031496063
        },
        {
          "duration": 0.19666666666665833,
          "durationTicks": 236,
          "midi": 60,
          "name": "C4",
          "ticks": 194640,
          "time": 162.20000000000002,
          "velocity": 0.4015748031496063
        },
        {
          "duration": 0.20000000000001705,
          "durationTicks": 240,
          "midi": 54,
          "name": "F#3",
          "ticks": 194880,
          "time": 162.4,
          "velocity": 0.4015748031496063
        },
        {
          "duration": 0.19999999999998863,
          "durationTicks": 240,
          "midi": 60,
          "name": "C4",
          "ticks": 195120,
          "time": 162.60000000000002,
          "velocity": 0.4015748031496063
        },
        {
          "duration": 0.19999999999998863,
          "durationTicks": 240,
          "midi": 62,
          "name": "D4",
          "ticks": 195360,
          "time": 162.8,
          "velocity": 0.4015748031496063
        },
        {
          "duration": 0.19666666666668675,
          "durationTicks": 236,
          "midi": 60,
          "name": "C4",
          "ticks": 195600,
          "time": 163,
          "velocity": 0.4015748031496063
        },
        {
          "duration": 0.19999999999998863,
          "durationTicks": 240,
          "midi": 55,
          "name": "G3",
          "ticks": 195840,
          "time": 163.20000000000002,
          "velocity": 0.4015748031496063
        },
        {
          "duration": 0.20000000000001705,
          "durationTicks": 240,
          "midi": 59,
          "name": "B3",
          "ticks": 196080,
          "time": 163.4,
          "velocity": 0.4015748031496063
        },
        {
          "duration": 0.19999999999998863,
          "durationTicks": 240,
          "midi": 62,
          "name": "D4",
          "ticks": 196320,
          "time": 163.60000000000002,
          "velocity": 0.4015748031496063
        },
        {
          "duration": 0.19666666666665833,
          "durationTicks": 236,
          "midi": 59,
          "name": "B3",
          "ticks": 196560,
          "time": 163.8,
          "velocity": 0.4015748031496063
        },
        {
          "duration": 0.20000000000001705,
          "durationTicks": 240,
          "midi": 55,
          "name": "G3",
          "ticks": 196800,
          "time": 164,
          "velocity": 0.4015748031496063
        },
        {
          "duration": 0.19999999999998863,
          "durationTicks": 240,
          "midi": 59,
          "name": "B3",
          "ticks": 197040,
          "time": 164.20000000000002,
          "velocity": 0.4015748031496063
        },
        {
          "duration": 0.20000000000001705,
          "durationTicks": 240,
          "midi": 62,
          "name": "D4",
          "ticks": 197280,
          "time": 164.4,
          "velocity": 0.4015748031496063
        },
        {
          "duration": 0.19666666666665833,
          "durationTicks": 236,
          "midi": 59,
          "name": "B3",
          "ticks": 197520,
          "time": 164.60000000000002,
          "velocity": 0.4015748031496063
        },
        {
          "duration": 0.19999999999998863,
          "durationTicks": 240,
          "midi": 54,
          "name": "F#3",
          "ticks": 197760,
          "time": 164.8,
          "velocity": 0.4015748031496063
        },
        {
          "duration": 0.20000000000001705,
          "durationTicks": 240,
          "midi": 60,
          "name": "C4",
          "ticks": 198000,
          "time": 165,
          "velocity": 0.4015748031496063
        },
        {
          "duration": 0.19999999999998863,
          "durationTicks": 240,
          "midi": 62,
          "name": "D4",
          "ticks": 198240,
          "time": 165.20000000000002,
          "velocity": 0.4015748031496063
        },
        {
          "duration": 0.19666666666668675,
          "durationTicks": 236,
          "midi": 60,
          "name": "C4",
          "ticks": 198480,
          "time": 165.4,
          "velocity": 0.4015748031496063
        },
        {
          "duration": 0.19999999999998863,
          "durationTicks": 240,
          "midi": 54,
          "name": "F#3",
          "ticks": 198720,
          "time": 165.60000000000002,
          "velocity": 0.4015748031496063
        },
        {
          "duration": 0.19999999999998863,
          "durationTicks": 240,
          "midi": 60,
          "name": "C4",
          "ticks": 198960,
          "time": 165.8,
          "velocity": 0.4015748031496063
        },
        {
          "duration": 0.20000000000001705,
          "durationTicks": 240,
          "midi": 62,
          "name": "D4",
          "ticks": 199200,
          "time": 166,
          "velocity": 0.4015748031496063
        },
        {
          "duration": 0.19666666666665833,
          "durationTicks": 236,
          "midi": 60,
          "name": "C4",
          "ticks": 199440,
          "time": 166.20000000000002,
          "velocity": 0.4015748031496063
        },
        {
          "duration": 0.20000000000001705,
          "durationTicks": 240,
          "midi": 55,
          "name": "G3",
          "ticks": 199680,
          "time": 166.4,
          "velocity": 0.4015748031496063
        },
        {
          "duration": 0.19999999999998863,
          "durationTicks": 240,
          "midi": 59,
          "name": "B3",
          "ticks": 199920,
          "time": 166.60000000000002,
          "velocity": 0.4015748031496063
        },
        {
          "duration": 0.19999999999998863,
          "durationTicks": 240,
          "midi": 62,
          "name": "D4",
          "ticks": 200160,
          "time": 166.8,
          "velocity": 0.4015748031496063
        },
        {
          "duration": 0.19666666666668675,
          "durationTicks": 236,
          "midi": 59,
          "name": "B3",
          "ticks": 200400,
          "time": 167,
          "velocity": 0.4015748031496063
        },
        {
          "duration": 0.19999999999998863,
          "durationTicks": 240,
          "midi": 55,
          "name": "G3",
          "ticks": 200640,
          "time": 167.20000000000002,
          "velocity": 0.4015748031496063
        },
        {
          "duration": 0.20000000000001705,
          "durationTicks": 240,
          "midi": 59,
          "name": "B3",
          "ticks": 200880,
          "time": 167.4,
          "velocity": 0.4015748031496063
        },
        {
          "duration": 0.19999999999998863,
          "durationTicks": 240,
          "midi": 62,
          "name": "D4",
          "ticks": 201120,
          "time": 167.60000000000002,
          "velocity": 0.4015748031496063
        },
        {
          "duration": 0.19666666666665833,
          "durationTicks": 236,
          "midi": 59,
          "name": "B3",
          "ticks": 201360,
          "time": 167.8,
          "velocity": 0.4015748031496063
        },
        {
          "duration": 0.20000000000001705,
          "durationTicks": 240,
          "midi": 54,
          "name": "F#3",
          "ticks": 201600,
          "time": 168,
          "velocity": 0.4015748031496063
        },
        {
          "duration": 0.19999999999998863,
          "durationTicks": 240,
          "midi": 60,
          "name": "C4",
          "ticks": 201840,
          "time": 168.20000000000002,
          "velocity": 0.4015748031496063
        },
        {
          "duration": 0.20000000000001705,
          "durationTicks": 240,
          "midi": 62,
          "name": "D4",
          "ticks": 202080,
          "time": 168.4,
          "velocity": 0.4015748031496063
        },
        {
          "duration": 0.19666666666665833,
          "durationTicks": 236,
          "midi": 60,
          "name": "C4",
          "ticks": 202320,
          "time": 168.60000000000002,
          "velocity": 0.4015748031496063
        },
        {
          "duration": 0.19999999999998863,
          "durationTicks": 240,
          "midi": 54,
          "name": "F#3",
          "ticks": 202560,
          "time": 168.8,
          "velocity": 0.4015748031496063
        },
        {
          "duration": 0.20000000000001705,
          "durationTicks": 240,
          "midi": 60,
          "name": "C4",
          "ticks": 202800,
          "time": 169,
          "velocity": 0.4015748031496063
        },
        {
          "duration": 0.19999999999998863,
          "durationTicks": 240,
          "midi": 62,
          "name": "D4",
          "ticks": 203040,
          "time": 169.20000000000002,
          "velocity": 0.4015748031496063
        },
        {
          "duration": 0.19666666666668675,
          "durationTicks": 236,
          "midi": 60,
          "name": "C4",
          "ticks": 203280,
          "time": 169.4,
          "velocity": 0.4015748031496063
        },
        {
          "duration": 0.3333333333333144,
          "durationTicks": 400,
          "midi": 43,
          "name": "G2",
          "ticks": 203520,
          "time": 169.60000000000002,
          "velocity": 0.4015748031496063
        },
        {
          "duration": 0.3333333333333144,
          "durationTicks": 400,
          "midi": 59,
          "name": "B3",
          "ticks": 203520,
          "time": 169.60000000000002,
          "velocity": 0.4015748031496063
        },
        {
          "duration": 0.19666666666668675,
          "durationTicks": 236,
          "midi": 50,
          "name": "D3",
          "ticks": 206400,
          "time": 172,
          "velocity": 0.4015748031496063
        },
        {
          "duration": 0.19666666666668675,
          "durationTicks": 236,
          "midi": 50,
          "name": "D3",
          "ticks": 206880,
          "time": 172.4,
          "velocity": 0.4015748031496063
        },
        {
          "duration": 0.3333333333333144,
          "durationTicks": 400,
          "midi": 55,
          "name": "G3",
          "ticks": 207360,
          "time": 172.8,
          "velocity": 0.4015748031496063
        },
        {
          "duration": 0.19666666666665833,
          "durationTicks": 236,
          "midi": 50,
          "name": "D3",
          "ticks": 210240,
          "time": 175.20000000000002,
          "velocity": 0.4015748031496063
        },
        {
          "duration": 0.19666666666665833,
          "durationTicks": 236,
          "midi": 50,
          "name": "D3",
          "ticks": 210720,
          "time": 175.60000000000002,
          "velocity": 0.4015748031496063
        },
        {
          "duration": 0.19666666666668675,
          "durationTicks": 236,
          "midi": 55,
          "name": "G3",
          "ticks": 211200,
          "time": 176,
          "velocity": 0.4015748031496063
        },
        {
          "duration": 0.20000000000004547,
          "durationTicks": 240,
          "midi": 55,
          "name": "G3",
          "ticks": 422400,
          "time": 352,
          "velocity": 0.4015748031496063
        },
        {
          "duration": 0.19999999999998863,
          "durationTicks": 240,
          "midi": 59,
          "name": "B3",
          "ticks": 422640,
          "time": 352.20000000000005,
          "velocity": 0.4015748031496063
        },
        {
          "duration": 0.19999999999998863,
          "durationTicks": 240,
          "midi": 62,
          "name": "D4",
          "ticks": 422880,
          "time": 352.40000000000003,
          "velocity": 0.4015748031496063
        },
        {
          "duration": 0.19666666666665833,
          "durationTicks": 236,
          "midi": 59,
          "name": "B3",
          "ticks": 423120,
          "time": 352.6,
          "velocity": 0.4015748031496063
        },
        {
          "duration": 0.19999999999998863,
          "durationTicks": 240,
          "midi": 55,
          "name": "G3",
          "ticks": 423360,
          "time": 352.8,
          "velocity": 0.4015748031496063
        },
        {
          "duration": 0.20000000000004547,
          "durationTicks": 240,
          "midi": 59,
          "name": "B3",
          "ticks": 423600,
          "time": 353,
          "velocity": 0.4015748031496063
        },
        {
          "duration": 0.19999999999998863,
          "durationTicks": 240,
          "midi": 62,
          "name": "D4",
          "ticks": 423840,
          "time": 353.20000000000005,
          "velocity": 0.4015748031496063
        },
        {
          "duration": 0.19666666666665833,
          "durationTicks": 236,
          "midi": 59,
          "name": "B3",
          "ticks": 424080,
          "time": 353.40000000000003,
          "velocity": 0.4015748031496063
        },
        {
          "duration": 0.19999999999998863,
          "durationTicks": 240,
          "midi": 54,
          "name": "F#3",
          "ticks": 424320,
          "time": 353.6,
          "velocity": 0.4015748031496063
        },
        {
          "duration": 0.19999999999998863,
          "durationTicks": 240,
          "midi": 60,
          "name": "C4",
          "ticks": 424560,
          "time": 353.8,
          "velocity": 0.4015748031496063
        },
        {
          "duration": 0.20000000000004547,
          "durationTicks": 240,
          "midi": 62,
          "name": "D4",
          "ticks": 424800,
          "time": 354,
          "velocity": 0.4015748031496063
        },
        {
          "duration": 0.19666666666665833,
          "durationTicks": 236,
          "midi": 60,
          "name": "C4",
          "ticks": 425040,
          "time": 354.20000000000005,
          "velocity": 0.4015748031496063
        },
        {
          "duration": 0.19999999999998863,
          "durationTicks": 240,
          "midi": 54,
          "name": "F#3",
          "ticks": 425280,
          "time": 354.40000000000003,
          "velocity": 0.4015748031496063
        },
        {
          "duration": 0.19999999999998863,
          "durationTicks": 240,
          "midi": 60,
          "name": "C4",
          "ticks": 425520,
          "time": 354.6,
          "velocity": 0.4015748031496063
        },
        {
          "duration": 0.19999999999998863,
          "durationTicks": 240,
          "midi": 62,
          "name": "D4",
          "ticks": 425760,
          "time": 354.8,
          "velocity": 0.4015748031496063
        },
        {
          "duration": 0.19666666666671517,
          "durationTicks": 236,
          "midi": 60,
          "name": "C4",
          "ticks": 426000,
          "time": 355,
          "velocity": 0.4015748031496063
        },
        {
          "duration": 0.19999999999998863,
          "durationTicks": 240,
          "midi": 55,
          "name": "G3",
          "ticks": 426240,
          "time": 355.20000000000005,
          "velocity": 0.4015748031496063
        },
        {
          "duration": 0.19999999999998863,
          "durationTicks": 240,
          "midi": 59,
          "name": "B3",
          "ticks": 426480,
          "time": 355.40000000000003,
          "velocity": 0.4015748031496063
        },
        {
          "duration": 0.19999999999998863,
          "durationTicks": 240,
          "midi": 62,
          "name": "D4",
          "ticks": 426720,
          "time": 355.6,
          "velocity": 0.4015748031496063
        },
        {
          "duration": 0.19666666666665833,
          "durationTicks": 236,
          "midi": 59,
          "name": "B3",
          "ticks": 426960,
          "time": 355.8,
          "velocity": 0.4015748031496063
        },
        {
          "duration": 0.20000000000004547,
          "durationTicks": 240,
          "midi": 55,
          "name": "G3",
          "ticks": 427200,
          "time": 356,
          "velocity": 0.4015748031496063
        },
        {
          "duration": 0.19999999999998863,
          "durationTicks": 240,
          "midi": 59,
          "name": "B3",
          "ticks": 427440,
          "time": 356.20000000000005,
          "velocity": 0.4015748031496063
        },
        {
          "duration": 0.19999999999998863,
          "durationTicks": 240,
          "midi": 62,
          "name": "D4",
          "ticks": 427680,
          "time": 356.40000000000003,
          "velocity": 0.4015748031496063
        },
        {
          "duration": 0.19666666666665833,
          "durationTicks": 236,
          "midi": 59,
          "name": "B3",
          "ticks": 427920,
          "time": 356.6,
          "velocity": 0.4015748031496063
        },
        {
          "duration": 0.19999999999998863,
          "durationTicks": 240,
          "midi": 54,
          "name": "F#3",
          "ticks": 428160,
          "time": 356.8,
          "velocity": 0.4015748031496063
        },
        {
          "duration": 0.20000000000004547,
          "durationTicks": 240,
          "midi": 60,
          "name": "C4",
          "ticks": 428400,
          "time": 357,
          "velocity": 0.4015748031496063
        },
        {
          "duration": 0.19999999999998863,
          "durationTicks": 240,
          "midi": 62,
          "name": "D4",
          "ticks": 428640,
          "time": 357.20000000000005,
          "velocity": 0.4015748031496063
        },
        {
          "duration": 0.19666666666665833,
          "durationTicks": 236,
          "midi": 60,
          "name": "C4",
          "ticks": 428880,
          "time": 357.40000000000003,
          "velocity": 0.4015748031496063
        },
        {
          "duration": 0.19999999999998863,
          "durationTicks": 240,
          "midi": 54,
          "name": "F#3",
          "ticks": 429120,
          "time": 357.6,
          "velocity": 0.4015748031496063
        },
        {
          "duration": 0.19999999999998863,
          "durationTicks": 240,
          "midi": 60,
          "name": "C4",
          "ticks": 429360,
          "time": 357.8,
          "velocity": 0.4015748031496063
        },
        {
          "duration": 0.20000000000004547,
          "durationTicks": 240,
          "midi": 62,
          "name": "D4",
          "ticks": 429600,
          "time": 358,
          "velocity": 0.4015748031496063
        },
        {
          "duration": 0.19666666666665833,
          "durationTicks": 236,
          "midi": 60,
          "name": "C4",
          "ticks": 429840,
          "time": 358.20000000000005,
          "velocity": 0.4015748031496063
        },
        {
          "duration": 0.19999999999998863,
          "durationTicks": 240,
          "midi": 55,
          "name": "G3",
          "ticks": 430080,
          "time": 358.40000000000003,
          "velocity": 0.4015748031496063
        },
        {
          "duration": 0.19999999999998863,
          "durationTicks": 240,
          "midi": 59,
          "name": "B3",
          "ticks": 430320,
          "time": 358.6,
          "velocity": 0.4015748031496063
        },
        {
          "duration": 0.19999999999998863,
          "durationTicks": 240,
          "midi": 62,
          "name": "D4",
          "ticks": 430560,
          "time": 358.8,
          "velocity": 0.4015748031496063
        },
        {
          "duration": 0.19666666666671517,
          "durationTicks": 236,
          "midi": 59,
          "name": "B3",
          "ticks": 430800,
          "time": 359,
          "velocity": 0.4015748031496063
        },
        {
          "duration": 0.19999999999998863,
          "durationTicks": 240,
          "midi": 55,
          "name": "G3",
          "ticks": 431040,
          "time": 359.20000000000005,
          "velocity": 0.4015748031496063
        },
        {
          "duration": 0.19999999999998863,
          "durationTicks": 240,
          "midi": 59,
          "name": "B3",
          "ticks": 431280,
          "time": 359.40000000000003,
          "velocity": 0.4015748031496063
        },
        {
          "duration": 0.19999999999998863,
          "durationTicks": 240,
          "midi": 62,
          "name": "D4",
          "ticks": 431520,
          "time": 359.6,
          "velocity": 0.4015748031496063
        },
        {
          "duration": 0.19666666666665833,
          "durationTicks": 236,
          "midi": 59,
          "name": "B3",
          "ticks": 431760,
          "time": 359.8,
          "velocity": 0.4015748031496063
        },
        {
          "duration": 0.20000000000004547,
          "durationTicks": 240,
          "midi": 54,
          "name": "F#3",
          "ticks": 432000,
          "time": 360,
          "velocity": 0.4015748031496063
        },
        {
          "duration": 0.19999999999998863,
          "durationTicks": 240,
          "midi": 60,
          "name": "C4",
          "ticks": 432240,
          "time": 360.20000000000005,
          "velocity": 0.4015748031496063
        },
        {
          "duration": 0.19999999999998863,
          "durationTicks": 240,
          "midi": 62,
          "name": "D4",
          "ticks": 432480,
          "time": 360.40000000000003,
          "velocity": 0.4015748031496063
        },
        {
          "duration": 0.19666666666665833,
          "durationTicks": 236,
          "midi": 60,
          "name": "C4",
          "ticks": 432720,
          "time": 360.6,
          "velocity": 0.4015748031496063
        },
        {
          "duration": 0.19999999999998863,
          "durationTicks": 240,
          "midi": 54,
          "name": "F#3",
          "ticks": 432960,
          "time": 360.8,
          "velocity": 0.4015748031496063
        },
        {
          "duration": 0.20000000000004547,
          "durationTicks": 240,
          "midi": 60,
          "name": "C4",
          "ticks": 433200,
          "time": 361,
          "velocity": 0.4015748031496063
        },
        {
          "duration": 0.19999999999998863,
          "durationTicks": 240,
          "midi": 62,
          "name": "D4",
          "ticks": 433440,
          "time": 361.20000000000005,
          "velocity": 0.4015748031496063
        },
        {
          "duration": 0.19666666666665833,
          "durationTicks": 236,
          "midi": 60,
          "name": "C4",
          "ticks": 433680,
          "time": 361.40000000000003,
          "velocity": 0.4015748031496063
        },
        {
          "duration": 0.33333333333337123,
          "durationTicks": 400,
          "midi": 43,
          "name": "G2",
          "ticks": 433920,
          "time": 361.6,
          "velocity": 0.4015748031496063
        },
        {
          "duration": 0.33333333333337123,
          "durationTicks": 400,
          "midi": 59,
          "name": "B3",
          "ticks": 433920,
          "time": 361.6,
          "velocity": 0.4015748031496063
        },
        {
          "duration": 0.19666666666671517,
          "durationTicks": 236,
          "midi": 50,
          "name": "D3",
          "ticks": 436800,
          "time": 364,
          "velocity": 0.4015748031496063
        },
        {
          "duration": 0.19666666666665833,
          "durationTicks": 236,
          "midi": 50,
          "name": "D3",
          "ticks": 437280,
          "time": 364.40000000000003,
          "velocity": 0.4015748031496063
        },
        {
          "duration": 0.33333333333337123,
          "durationTicks": 400,
          "midi": 55,
          "name": "G3",
          "ticks": 437760,
          "time": 364.8,
          "velocity": 0.4015748031496063
        },
        {
          "duration": 0.19666666666665833,
          "durationTicks": 236,
          "midi": 50,
          "name": "D3",
          "ticks": 440640,
          "time": 367.20000000000005,
          "velocity": 0.4015748031496063
        },
        {
          "duration": 0.19666666666665833,
          "durationTicks": 236,
          "midi": 50,
          "name": "D3",
          "ticks": 441120,
          "time": 367.6,
          "velocity": 0.4015748031496063
        },
        {
          "duration": 0.19666666666671517,
          "durationTicks": 236,
          "midi": 55,
          "name": "G3",
          "ticks": 441600,
          "time": 368,
          "velocity": 0.4015748031496063
        },
        {
          "duration": 0.33333333333325754,
          "durationTicks": 400,
          "midi": 48,
          "name": "C3",
          "ticks": 783360,
          "time": 652.8000000000001,
          "velocity": 0.4015748031496063
        },
        {
          "duration": 0.1999999999999318,
          "durationTicks": 240,
          "midi": 52,
          "name": "E3",
          "ticks": 783360,
          "time": 652.8000000000001,
          "velocity": 0.4015748031496063
        },
        {
          "duration": 0.20000000000004547,
          "durationTicks": 240,
          "midi": 55,
          "name": "G3",
          "ticks": 783600,
          "time": 653,
          "velocity": 0.4015748031496063
        },
        {
          "duration": 0.20000000000004547,
          "durationTicks": 240,
          "midi": 60,
          "name": "C4",
          "ticks": 783840,
          "time": 653.2,
          "velocity": 0.4015748031496063
        },
        {
          "duration": 0.1966666666666015,
          "durationTicks": 236,
          "midi": 55,
          "name": "G3",
          "ticks": 784080,
          "time": 653.4000000000001,
          "velocity": 0.4015748031496063
        },
        {
          "duration": 0.20000000000004547,
          "durationTicks": 240,
          "midi": 52,
          "name": "E3",
          "ticks": 784320,
          "time": 653.6,
          "velocity": 0.4015748031496063
        },
        {
          "duration": 0.1999999999999318,
          "durationTicks": 240,
          "midi": 55,
          "name": "G3",
          "ticks": 784560,
          "time": 653.8000000000001,
          "velocity": 0.4015748031496063
        },
        {
          "duration": 0.20000000000004547,
          "durationTicks": 240,
          "midi": 60,
          "name": "C4",
          "ticks": 784800,
          "time": 654,
          "velocity": 0.4015748031496063
        },
        {
          "duration": 0.1966666666666015,
          "durationTicks": 236,
          "midi": 55,
          "name": "G3",
          "ticks": 785040,
          "time": 654.2,
          "velocity": 0.4015748031496063
        },
        {
          "duration": 0.33333333333325754,
          "durationTicks": 400,
          "midi": 43,
          "name": "G2",
          "ticks": 785280,
          "time": 654.4000000000001,
          "velocity": 0.4015748031496063
        },
        {
          "duration": 0.1999999999999318,
          "durationTicks": 240,
          "midi": 53,
          "name": "F3",
          "ticks": 785280,
          "time": 654.4000000000001,
          "velocity": 0.4015748031496063
        },
        {
          "duration": 0.20000000000004547,
          "durationTicks": 240,
          "midi": 55,
          "name": "G3",
          "ticks": 785520,
          "time": 654.6,
          "velocity": 0.4015748031496063
        },
        {
          "duration": 0.1999999999999318,
          "durationTicks": 240,
          "midi": 59,
          "name": "B3",
          "ticks": 785760,
          "time": 654.8000000000001,
          "velocity": 0.4015748031496063
        },
        {
          "duration": 0.19666666666671517,
          "durationTicks": 236,
          "midi": 55,
          "name": "G3",
          "ticks": 786000,
          "time": 655,
          "velocity": 0.4015748031496063
        },
        {
          "duration": 0.20000000000004547,
          "durationTicks": 240,
          "midi": 53,
          "name": "F3",
          "ticks": 786240,
          "time": 655.2,
          "velocity": 0.4015748031496063
        },
        {
          "duration": 0.1999999999999318,
          "durationTicks": 240,
          "midi": 55,
          "name": "G3",
          "ticks": 786480,
          "time": 655.4000000000001,
          "velocity": 0.4015748031496063
        },
        {
          "duration": 0.20000000000004547,
          "durationTicks": 240,
          "midi": 59,
          "name": "B3",
          "ticks": 786720,
          "time": 655.6,
          "velocity": 0.4015748031496063
        },
        {
          "duration": 0.1966666666666015,
          "durationTicks": 236,
          "midi": 55,
          "name": "G3",
          "ticks": 786960,
          "time": 655.8000000000001,
          "velocity": 0.4015748031496063
        },
        {
          "duration": 0.33333333333337123,
          "durationTicks": 400,
          "midi": 48,
          "name": "C3",
          "ticks": 787200,
          "time": 656,
          "velocity": 0.4015748031496063
        },
        {
          "duration": 0.20000000000004547,
          "durationTicks": 240,
          "midi": 52,
          "name": "E3",
          "ticks": 787200,
          "time": 656,
          "velocity": 0.4015748031496063
        },
        {
          "duration": 0.20000000000004547,
          "durationTicks": 240,
          "midi": 55,
          "name": "G3",
          "ticks": 787440,
          "time": 656.2,
          "velocity": 0.4015748031496063
        },
        {
          "duration": 0.1999999999999318,
          "durationTicks": 240,
          "midi": 60,
          "name": "C4",
          "ticks": 787680,
          "time": 656.4000000000001,
          "velocity": 0.4015748031496063
        },
        {
          "duration": 0.1966666666666015,
          "durationTicks": 236,
          "midi": 55,
          "name": "G3",
          "ticks": 787920,
          "time": 656.6,
          "velocity": 0.4015748031496063
        },
        {
          "duration": 0.1999999999999318,
          "durationTicks": 240,
          "midi": 52,
          "name": "E3",
          "ticks": 788160,
          "time": 656.8000000000001,
          "velocity": 0.4015748031496063
        },
        {
          "duration": 0.20000000000004547,
          "durationTicks": 240,
          "midi": 55,
          "name": "G3",
          "ticks": 788400,
          "time": 657,
          "velocity": 0.4015748031496063
        },
        {
          "duration": 0.20000000000004547,
          "durationTicks": 240,
          "midi": 60,
          "name": "C4",
          "ticks": 788640,
          "time": 657.2,
          "velocity": 0.4015748031496063
        },
        {
          "duration": 0.1966666666666015,
          "durationTicks": 236,
          "midi": 55,
          "name": "G3",
          "ticks": 788880,
          "time": 657.4000000000001,
          "velocity": 0.4015748031496063
        },
        {
          "duration": 0.33333333333337123,
          "durationTicks": 400,
          "midi": 43,
          "name": "G2",
          "ticks": 789120,
          "time": 657.6,
          "velocity": 0.4015748031496063
        },
        {
          "duration": 0.20000000000004547,
          "durationTicks": 240,
          "midi": 53,
          "name": "F3",
          "ticks": 789120,
          "time": 657.6,
          "velocity": 0.4015748031496063
        },
        {
          "duration": 0.1999999999999318,
          "durationTicks": 240,
          "midi": 55,
          "name": "G3",
          "ticks": 789360,
          "time": 657.8000000000001,
          "velocity": 0.4015748031496063
        },
        {
          "duration": 0.20000000000004547,
          "durationTicks": 240,
          "midi": 59,
          "name": "B3",
          "ticks": 789600,
          "time": 658,
          "velocity": 0.4015748031496063
        },
        {
          "duration": 0.1966666666666015,
          "durationTicks": 236,
          "midi": 55,
          "name": "G3",
          "ticks": 789840,
          "time": 658.2,
          "velocity": 0.4015748031496063
        },
        {
          "duration": 0.1999999999999318,
          "durationTicks": 240,
          "midi": 53,
          "name": "F3",
          "ticks": 790080,
          "time": 658.4000000000001,
          "velocity": 0.4015748031496063
        },
        {
          "duration": 0.20000000000004547,
          "durationTicks": 240,
          "midi": 55,
          "name": "G3",
          "ticks": 790320,
          "time": 658.6,
          "velocity": 0.4015748031496063
        },
        {
          "duration": 0.1999999999999318,
          "durationTicks": 240,
          "midi": 59,
          "name": "B3",
          "ticks": 790560,
          "time": 658.8000000000001,
          "velocity": 0.4015748031496063
        },
        {
          "duration": 0.19666666666671517,
          "durationTicks": 236,
          "midi": 55,
          "name": "G3",
          "ticks": 790800,
          "time": 659,
          "velocity": 0.4015748031496063
        },
        {
          "duration": 0.33333333333325754,
          "durationTicks": 400,
          "midi": 48,
          "name": "C3",
          "ticks": 791040,
          "time": 659.2,
          "velocity": 0.4015748031496063
        },
        {
          "duration": 0.20000000000004547,
          "durationTicks": 240,
          "midi": 52,
          "name": "E3",
          "ticks": 791040,
          "time": 659.2,
          "velocity": 0.4015748031496063
        },
        {
          "duration": 0.1999999999999318,
          "durationTicks": 240,
          "midi": 55,
          "name": "G3",
          "ticks": 791280,
          "time": 659.4000000000001,
          "velocity": 0.4015748031496063
        },
        {
          "duration": 0.20000000000004547,
          "durationTicks": 240,
          "midi": 60,
          "name": "C4",
          "ticks": 791520,
          "time": 659.6,
          "velocity": 0.4015748031496063
        },
        {
          "duration": 0.1966666666666015,
          "durationTicks": 236,
          "midi": 55,
          "name": "G3",
          "ticks": 791760,
          "time": 659.8000000000001,
          "velocity": 0.4015748031496063
        },
        {
          "duration": 0.20000000000004547,
          "durationTicks": 240,
          "midi": 52,
          "name": "E3",
          "ticks": 792000,
          "time": 660,
          "velocity": 0.4015748031496063
        },
        {
          "duration": 0.20000000000004547,
          "durationTicks": 240,
          "midi": 55,
          "name": "G3",
          "ticks": 792240,
          "time": 660.2,
          "velocity": 0.4015748031496063
        },
        {
          "duration": 0.1999999999999318,
          "durationTicks": 240,
          "midi": 60,
          "name": "C4",
          "ticks": 792480,
          "time": 660.4000000000001,
          "velocity": 0.4015748031496063
        },
        {
          "duration": 0.1966666666666015,
          "durationTicks": 236,
          "midi": 55,
          "name": "G3",
          "ticks": 792720,
          "time": 660.6,
          "velocity": 0.4015748031496063
        },
        {
          "duration": 0.33333333333325754,
          "durationTicks": 400,
          "midi": 43,
          "name": "G2",
          "ticks": 792960,
          "time": 660.8000000000001,
          "velocity": 0.4015748031496063
        },
        {
          "duration": 0.1999999999999318,
          "durationTicks": 240,
          "midi": 53,
          "name": "F3",
          "ticks": 792960,
          "time": 660.8000000000001,
          "velocity": 0.4015748031496063
        },
        {
          "duration": 0.20000000000004547,
          "durationTicks": 240,
          "midi": 55,
          "name": "G3",
          "ticks": 793200,
          "time": 661,
          "velocity": 0.4015748031496063
        },
        {
          "duration": 0.20000000000004547,
          "durationTicks": 240,
          "midi": 59,
          "name": "B3",
          "ticks": 793440,
          "time": 661.2,
          "velocity": 0.4015748031496063
        },
        {
          "duration": 0.1966666666666015,
          "durationTicks": 236,
          "midi": 55,
          "name": "G3",
          "ticks": 793680,
          "time": 661.4000000000001,
          "velocity": 0.4015748031496063
        },
        {
          "duration": 0.20000000000004547,
          "durationTicks": 240,
          "midi": 53,
          "name": "F3",
          "ticks": 793920,
          "time": 661.6,
          "velocity": 0.4015748031496063
        },
        {
          "duration": 0.1999999999999318,
          "durationTicks": 240,
          "midi": 55,
          "name": "G3",
          "ticks": 794160,
          "time": 661.8000000000001,
          "velocity": 0.4015748031496063
        },
        {
          "duration": 0.20000000000004547,
          "durationTicks": 240,
          "midi": 59,
          "name": "B3",
          "ticks": 794400,
          "time": 662,
          "velocity": 0.4015748031496063
        },
        {
          "duration": 0.1966666666666015,
          "durationTicks": 236,
          "midi": 55,
          "name": "G3",
          "ticks": 794640,
          "time": 662.2,
          "velocity": 0.4015748031496063
        },
        {
          "duration": 0.33333333333325754,
          "durationTicks": 400,
          "midi": 48,
          "name": "C3",
          "ticks": 794880,
          "time": 662.4000000000001,
          "velocity": 0.4015748031496063
        },
        {
          "duration": 0.33333333333325754,
          "durationTicks": 400,
          "midi": 52,
          "name": "E3",
          "ticks": 794880,
          "time": 662.4000000000001,
          "velocity": 0.4015748031496063
        },
        {
          "duration": 0.1966666666666015,
          "durationTicks": 236,
          "midi": 55,
          "name": "G3",
          "ticks": 797760,
          "time": 664.8000000000001,
          "velocity": 0.4015748031496063
        },
        {
          "duration": 0.1966666666666015,
          "durationTicks": 236,
          "midi": 55,
          "name": "G3",
          "ticks": 798240,
          "time": 665.2,
          "velocity": 0.4015748031496063
        },
        {
          "duration": 0.33333333333337123,
          "durationTicks": 400,
          "midi": 60,
          "name": "C4",
          "ticks": 798720,
          "time": 665.6,
          "velocity": 0.4015748031496063
        },
        {
          "duration": 0.19666666666671517,
          "durationTicks": 236,
          "midi": 55,
          "name": "G3",
          "ticks": 801600,
          "time": 668,
          "velocity": 0.4015748031496063
        },
        {
          "duration": 0.1966666666666015,
          "durationTicks": 236,
          "midi": 55,
          "name": "G3",
          "ticks": 802080,
          "time": 668.4000000000001,
          "velocity": 0.4015748031496063
        },
        {
          "duration": 0.1966666666666015,
          "durationTicks": 236,
          "midi": 48,
          "name": "C3",
          "ticks": 802560,
          "time": 668.8000000000001,
          "velocity": 0.4015748031496063
        }
      ]
    },
    {
      "channel": 0,
      "controlChanges": {},
      "pitchBends": [],
      "instrument": {
        "family": "piano",
        "number": 0,
        "name": "acoustic grand piano"
      },
      "name": "Contrabassi",
      "notes": [],
      "endOfTrackTicks": 831360
    },
    {
      "channel": 11,
      "controlChanges": {
        "7": [
          {
            "number": 7,
            "ticks": 0,
            "time": 0,
            "value": 0.8661417322834646
          }
        ],
        "10": [
          {
            "number": 10,
            "ticks": 0,
            "time": 0,
            "value": 0.9448818897637795
          }
        ]
      },
      "pitchBends": [],
      "instrument": {
        "family": "ensemble",
        "number": 48,
        "name": "string ensemble 1"
      },
      "name": "",
      "notes": [
        {
          "duration": 0.33333333333333337,
          "durationTicks": 400,
          "midi": 36,
          "name": "C2",
          "ticks": 0,
          "time": 0,
          "velocity": 0.8267716535433071
        },
        {
          "duration": 0.06666666666666665,
          "durationTicks": 80,
          "midi": 31,
          "name": "G1",
          "ticks": 720,
          "time": 0.6000000000000001,
          "velocity": 0.8267716535433071
        },
        {
          "duration": 0.06666666666666665,
          "durationTicks": 80,
          "midi": 33,
          "name": "A1",
          "ticks": 800,
          "time": 0.6666666666666667,
          "velocity": 0.8267716535433071
        },
        {
          "duration": 0.06666666666666665,
          "durationTicks": 80,
          "midi": 35,
          "name": "B1",
          "ticks": 880,
          "time": 0.7333333333333334,
          "velocity": 0.8267716535433071
        },
        {
          "duration": 0.3333333333333335,
          "durationTicks": 400,
          "midi": 36,
          "name": "C2",
          "ticks": 960,
          "time": 0.8,
          "velocity": 0.8267716535433071
        },
        {
          "duration": 0.06666666666666665,
          "durationTicks": 80,
          "midi": 31,
          "name": "G1",
          "ticks": 1680,
          "time": 1.4000000000000001,
          "velocity": 0.8267716535433071
        },
        {
          "duration": 0.06666666666666665,
          "durationTicks": 80,
          "midi": 33,
          "name": "A1",
          "ticks": 1760,
          "time": 1.4666666666666668,
          "velocity": 0.8267716535433071
        },
        {
          "duration": 0.06666666666666665,
          "durationTicks": 80,
          "midi": 35,
          "name": "B1",
          "ticks": 1840,
          "time": 1.5333333333333334,
          "velocity": 0.8267716535433071
        },
        {
          "duration": 0.33333333333333326,
          "durationTicks": 400,
          "midi": 36,
          "name": "C2",
          "ticks": 1920,
          "time": 1.6,
          "velocity": 0.8267716535433071
        },
        {
          "duration": 0.7999999999999998,
          "durationTicks": 960,
          "midi": 50,
          "name": "D3",
          "ticks": 3840,
          "time": 3.2,
          "velocity": 0.4015748031496063
        },
        {
          "duration": 0.7000000000000002,
          "durationTicks": 840,
          "midi": 48,
          "name": "C3",
          "ticks": 4800,
          "time": 4,
          "velocity": 0.4015748031496063
        },
        {
          "duration": 1.0999999999999996,
          "durationTicks": 1320,
          "midi": 47,
          "name": "B2",
          "ticks": 5760,
          "time": 4.800000000000001,
          "velocity": 0.4015748031496063
        },
        {
          "duration": 0.33333333333333304,
          "durationTicks": 400,
          "midi": 43,
          "name": "G2",
          "ticks": 7680,
          "time": 6.4,
          "velocity": 0.8267716535433071
        },
        {
          "duration": 0.06666666666666732,
          "durationTicks": 80,
          "midi": 38,
          "name": "D2",
          "ticks": 8400,
          "time": 7,
          "velocity": 0.8267716535433071
        },
        {
          "duration": 0.06666666666666554,
          "durationTicks": 80,
          "midi": 40,
          "name": "E2",
          "ticks": 8480,
          "time": 7.066666666666667,
          "velocity": 0.8267716535433071
        },
        {
          "duration": 0.06666666666666732,
          "durationTicks": 80,
          "midi": 42,
          "name": "F#2",
          "ticks": 8560,
          "time": 7.133333333333333,
          "velocity": 0.8267716535433071
        },
        {
          "duration": 0.33333333333333304,
          "durationTicks": 400,
          "midi": 43,
          "name": "G2",
          "ticks": 8640,
          "time": 7.2,
          "velocity": 0.8267716535433071
        },
        {
          "duration": 0.06666666666666643,
          "durationTicks": 80,
          "midi": 38,
          "name": "D2",
          "ticks": 9360,
          "time": 7.800000000000001,
          "velocity": 0.8267716535433071
        },
        {
          "duration": 0.06666666666666643,
          "durationTicks": 80,
          "midi": 40,
          "name": "E2",
          "ticks": 9440,
          "time": 7.866666666666667,
          "velocity": 0.8267716535433071
        },
        {
          "duration": 0.06666666666666643,
          "durationTicks": 80,
          "midi": 42,
          "name": "F#2",
          "ticks": 9520,
          "time": 7.933333333333334,
          "velocity": 0.8267716535433071
        },
        {
          "duration": 0.3333333333333339,
          "durationTicks": 400,
          "midi": 43,
          "name": "G2",
          "ticks": 9600,
          "time": 8,
          "velocity": 0.8267716535433071
        },
        {
          "duration": 0.7999999999999989,
          "durationTicks": 960,
          "midi": 52,
          "name": "E3",
          "ticks": 11520,
          "time": 9.600000000000001,
          "velocity": 0.4015748031496063
        },
        {
          "duration": 0.7000000000000011,
          "durationTicks": 840,
          "midi": 50,
          "name": "D3",
          "ticks": 12480,
          "time": 10.4,
          "velocity": 0.4015748031496063
        },
        {
          "duration": 1.0999999999999996,
          "durationTicks": 1320,
          "midi": 48,
          "name": "C3",
          "ticks": 13440,
          "time": 11.200000000000001,
          "velocity": 0.4015748031496063
        },
        {
          "duration": 0.3333333333333339,
          "durationTicks": 400,
          "midi": 36,
          "name": "C2",
          "ticks": 15360,
          "time": 12.8,
          "velocity": 0.8267716535433071
        },
        {
          "duration": 0.3333333333333357,
          "durationTicks": 400,
          "midi": 48,
          "name": "C3",
          "ticks": 16800,
          "time": 14,
          "velocity": 0.8267716535433071
        },
        {
          "duration": 0.3333333333333339,
          "durationTicks": 400,
          "midi": 36,
          "name": "C2",
          "ticks": 17280,
          "time": 14.4,
          "velocity": 0.8267716535433071
        },
        {
          "duration": 0.3333333333333339,
          "durationTicks": 400,
          "midi": 48,
          "name": "C3",
          "ticks": 18720,
          "time": 15.600000000000001,
          "velocity": 0.8267716535433071
        },
        {
          "duration": 0.3333333333333357,
          "durationTicks": 400,
          "midi": 36,
          "name": "C2",
          "ticks": 19200,
          "time": 16,
          "velocity": 0.8267716535433071
        },
        {
          "duration": 0.3333333333333357,
          "durationTicks": 400,
          "midi": 48,
          "name": "C3",
          "ticks": 20640,
          "time": 17.2,
          "velocity": 0.8267716535433071
        },
        {
          "duration": 0.33333333333333215,
          "durationTicks": 400,
          "midi": 36,
          "name": "C2",
          "ticks": 21120,
          "time": 17.6,
          "velocity": 0.8267716535433071
        },
        {
          "duration": 0.3333333333333357,
          "durationTicks": 400,
          "midi": 48,
          "name": "C3",
          "ticks": 22560,
          "time": 18.8,
          "velocity": 0.8267716535433071
        },
        {
          "duration": 0.33333333333333215,
          "durationTicks": 400,
          "midi": 36,
          "name": "C2",
          "ticks": 23040,
          "time": 19.200000000000003,
          "velocity": 0.8267716535433071
        },
        {
          "duration": 0.33333333333333215,
          "durationTicks": 400,
          "midi": 48,
          "name": "C3",
          "ticks": 24480,
          "time": 20.400000000000002,
          "velocity": 0.8267716535433071
        },
        {
          "duration": 0.3333333333333357,
          "durationTicks": 400,
          "midi": 36,
          "name": "C2",
          "ticks": 24960,
          "time": 20.8,
          "velocity": 0.8267716535433071
        },
        {
          "duration": 0.3333333333333357,
          "durationTicks": 400,
          "midi": 48,
          "name": "C3",
          "ticks": 26400,
          "time": 22,
          "velocity": 0.8267716535433071
        },
        {
          "duration": 0.33333333333333215,
          "durationTicks": 400,
          "midi": 36,
          "name": "C2",
          "ticks": 26880,
          "time": 22.400000000000002,
          "velocity": 0.8267716535433071
        },
        {
          "duration": 0.33333333333333215,
          "durationTicks": 400,
          "midi": 43,
          "name": "G2",
          "ticks": 27840,
          "time": 23.200000000000003,
          "velocity": 0.8267716535433071
        },
        {
          "duration": 0.3333333333333357,
          "durationTicks": 400,
          "midi": 48,
          "name": "C3",
          "ticks": 28800,
          "time": 24,
          "velocity": 0.8267716535433071
        },
        {
          "duration": 0.3333333333333357,
          "durationTicks": 400,
          "midi": 43,
          "name": "G2",
          "ticks": 29760,
          "time": 24.8,
          "velocity": 0.8267716535433071
        },
        {
          "duration": 0.33333333333333215,
          "durationTicks": 400,
          "midi": 36,
          "name": "C2",
          "ticks": 30720,
          "time": 25.6,
          "velocity": 0.8267716535433071
        },
        {
          "duration": 0.19666666666666544,
          "durationTicks": 236,
          "midi": 43,
          "name": "G2",
          "ticks": 31200,
          "time": 26,
          "velocity": 0.8267716535433071
        },
        {
          "duration": 0.19666666666666188,
          "durationTicks": 236,
          "midi": 43,
          "name": "G2",
          "ticks": 31440,
          "time": 26.200000000000003,
          "velocity": 0.8267716535433071
        },
        {
          "duration": 0.19666666666666188,
          "durationTicks": 236,
          "midi": 48,
          "name": "C3",
          "ticks": 31680,
          "time": 26.400000000000002,
          "velocity": 0.8267716535433071
        },
        {
          "duration": 0.19666666666666544,
          "durationTicks": 236,
          "midi": 48,
          "name": "C3",
          "ticks": 31920,
          "time": 26.6,
          "velocity": 0.8267716535433071
        },
        {
          "duration": 0.19666666666666544,
          "durationTicks": 236,
          "midi": 43,
          "name": "G2",
          "ticks": 32160,
          "time": 26.8,
          "velocity": 0.8267716535433071
        },
        {
          "duration": 0.19666666666666544,
          "durationTicks": 236,
          "midi": 43,
          "name": "G2",
          "ticks": 32400,
          "time": 27,
          "velocity": 0.8267716535433071
        },
        {
          "duration": 0.19666666666666188,
          "durationTicks": 236,
          "midi": 48,
          "name": "C3",
          "ticks": 32640,
          "time": 27.200000000000003,
          "velocity": 0.8267716535433071
        },
        {
          "duration": 0.19666666666666188,
          "durationTicks": 236,
          "midi": 48,
          "name": "C3",
          "ticks": 32880,
          "time": 27.400000000000002,
          "velocity": 0.8267716535433071
        },
        {
          "duration": 0.19666666666666544,
          "durationTicks": 236,
          "midi": 43,
          "name": "G2",
          "ticks": 33120,
          "time": 27.6,
          "velocity": 0.8267716535433071
        },
        {
          "duration": 0.19666666666666544,
          "durationTicks": 236,
          "midi": 43,
          "name": "G2",
          "ticks": 33360,
          "time": 27.8,
          "velocity": 0.8267716535433071
        },
        {
          "duration": 0.19666666666666544,
          "durationTicks": 236,
          "midi": 40,
          "name": "E2",
          "ticks": 33600,
          "time": 28,
          "velocity": 0.8267716535433071
        },
        {
          "duration": 0.19666666666666188,
          "durationTicks": 236,
          "midi": 40,
          "name": "E2",
          "ticks": 33840,
          "time": 28.200000000000003,
          "velocity": 0.8267716535433071
        },
        {
          "duration": 0.19666666666666188,
          "durationTicks": 236,
          "midi": 36,
          "name": "C2",
          "ticks": 34080,
          "time": 28.400000000000002,
          "velocity": 0.8267716535433071
        },
        {
          "duration": 0.19666666666666544,
          "durationTicks": 236,
          "midi": 36,
          "name": "C2",
          "ticks": 34320,
          "time": 28.6,
          "velocity": 0.8267716535433071
        },
        {
          "duration": 0.33333333333333215,
          "durationTicks": 400,
          "midi": 31,
          "name": "G1",
          "ticks": 34560,
          "time": 28.8,
          "velocity": 0.8267716535433071
        },
        {
          "duration": 0.19666666666666188,
          "durationTicks": 236,
          "midi": 43,
          "name": "G2",
          "ticks": 35280,
          "time": 29.400000000000002,
          "velocity": 0.8267716535433071
        },
        {
          "duration": 0.33333333333333215,
          "durationTicks": 400,
          "midi": 48,
          "name": "C3",
          "ticks": 35520,
          "time": 29.6,
          "velocity": 0.8267716535433071
        },
        {
          "duration": 0.19666666666666188,
          "durationTicks": 236,
          "midi": 48,
          "name": "C3",
          "ticks": 36240,
          "time": 30.200000000000003,
          "velocity": 0.8267716535433071
        },
        {
          "duration": 0.33333333333333215,
          "durationTicks": 400,
          "midi": 43,
          "name": "G2",
          "ticks": 36480,
          "time": 30.400000000000002,
          "velocity": 0.8267716535433071
        },
        {
          "duration": 0.19666666666666544,
          "durationTicks": 236,
          "midi": 43,
          "name": "G2",
          "ticks": 37200,
          "time": 31,
          "velocity": 0.8267716535433071
        },
        {
          "duration": 0.3333333333333286,
          "durationTicks": 400,
          "midi": 48,
          "name": "C3",
          "ticks": 37440,
          "time": 31.200000000000003,
          "velocity": 0.8267716535433071
        },
        {
          "duration": 0.19666666666666544,
          "durationTicks": 236,
          "midi": 48,
          "name": "C3",
          "ticks": 38160,
          "time": 31.8,
          "velocity": 0.8267716535433071
        },
        {
          "duration": 0.19666666666666544,
          "durationTicks": 236,
          "midi": 43,
          "name": "G2",
          "ticks": 38400,
          "time": 32,
          "velocity": 0.8267716535433071
        },
        {
          "duration": 0.19666666666666544,
          "durationTicks": 236,
          "midi": 48,
          "name": "C3",
          "ticks": 38640,
          "time": 32.2,
          "velocity": 0.8346456692913385
        },
        {
          "duration": 0.19666666666666544,
          "durationTicks": 236,
          "midi": 43,
          "name": "G2",
          "ticks": 38880,
          "time": 32.4,
          "velocity": 0.8503937007874016
        },
        {
          "duration": 0.19666666666666544,
          "durationTicks": 236,
          "midi": 48,
          "name": "C3",
          "ticks": 39120,
          "time": 32.6,
          "velocity": 0.8582677165354331
        },
        {
          "duration": 0.19666666666665833,
          "durationTicks": 236,
          "midi": 43,
          "name": "G2",
          "ticks": 39360,
          "time": 32.800000000000004,
          "velocity": 0.8661417322834646
        },
        {
          "duration": 0.19666666666666544,
          "durationTicks": 236,
          "midi": 48,
          "name": "C3",
          "ticks": 39600,
          "time": 33,
          "velocity": 0.8740157480314961
        },
        {
          "duration": 0.19666666666666544,
          "durationTicks": 236,
          "midi": 43,
          "name": "G2",
          "ticks": 39840,
          "time": 33.2,
          "velocity": 0.8818897637795275
        },
        {
          "duration": 0.19666666666666544,
          "durationTicks": 236,
          "midi": 48,
          "name": "C3",
          "ticks": 40080,
          "time": 33.4,
          "velocity": 0.889763779527559
        },
        {
          "duration": 0.3333333333333286,
          "durationTicks": 400,
          "midi": 43,
          "name": "G2",
          "ticks": 40320,
          "time": 33.6,
          "velocity": 0.905511811023622
        },
        {
          "duration": 0.3333333333333357,
          "durationTicks": 400,
          "midi": 43,
          "name": "G2",
          "ticks": 40800,
          "time": 34,
          "velocity": 0.9212598425196851
        },
        {
          "duration": 0.3333333333333357,
          "durationTicks": 400,
          "midi": 31,
          "name": "G1",
          "ticks": 41280,
          "time": 34.4,
          "velocity": 0.937007874015748
        },
        {
          "duration": 0.3333333333333286,
          "durationTicks": 400,
          "midi": 31,
          "name": "G1",
          "ticks": 41760,
          "time": 34.800000000000004,
          "velocity": 0.952755905511811
        },
        {
          "duration": 1.5,
          "durationTicks": 1800,
          "midi": 31,
          "name": "G1",
          "ticks": 42240,
          "time": 35.2,
          "velocity": 0.9763779527559056
        },
        {
          "duration": 0.7999999999999972,
          "durationTicks": 960,
          "midi": 45,
          "name": "A2",
          "ticks": 65280,
          "time": 54.400000000000006,
          "velocity": 0.4015748031496063
        },
        {
          "duration": 0.7000000000000028,
          "durationTicks": 840,
          "midi": 43,
          "name": "G2",
          "ticks": 66240,
          "time": 55.2,
          "velocity": 0.4015748031496063
        },
        {
          "duration": 1.2000000000000028,
          "durationTicks": 1440,
          "midi": 41,
          "name": "F2",
          "ticks": 67200,
          "time": 56,
          "velocity": 0.4015748031496063
        },
        {
          "duration": 0.3333333333333357,
          "durationTicks": 400,
          "midi": 42,
          "name": "F#2",
          "ticks": 68640,
          "time": 57.2,
          "velocity": 0.4015748031496063
        },
        {
          "duration": 0.3333333333333357,
          "durationTicks": 400,
          "midi": 43,
          "name": "G2",
          "ticks": 69120,
          "time": 57.6,
          "velocity": 0.8267716535433071
        },
        {
          "duration": 0.06666666666666288,
          "durationTicks": 80,
          "midi": 38,
          "name": "D2",
          "ticks": 69840,
          "time": 58.2,
          "velocity": 0.8267716535433071
        },
        {
          "duration": 0.06666666666667709,
          "durationTicks": 80,
          "midi": 40,
          "name": "E2",
          "ticks": 69920,
          "time": 58.266666666666666,
          "velocity": 0.8267716535433071
        },
        {
          "duration": 0.06666666666666288,
          "durationTicks": 80,
          "midi": 42,
          "name": "F#2",
          "ticks": 70000,
          "time": 58.33333333333334,
          "velocity": 0.8267716535433071
        },
        {
          "duration": 0.3333333333333357,
          "durationTicks": 400,
          "midi": 43,
          "name": "G2",
          "ticks": 70080,
          "time": 58.400000000000006,
          "velocity": 0.8267716535433071
        },
        {
          "duration": 0.06666666666666288,
          "durationTicks": 80,
          "midi": 38,
          "name": "D2",
          "ticks": 70800,
          "time": 59,
          "velocity": 0.8267716535433071
        },
        {
          "duration": 0.06666666666667709,
          "durationTicks": 80,
          "midi": 40,
          "name": "E2",
          "ticks": 70880,
          "time": 59.06666666666666,
          "velocity": 0.8267716535433071
        },
        {
          "duration": 0.06666666666666288,
          "durationTicks": 80,
          "midi": 42,
          "name": "F#2",
          "ticks": 70960,
          "time": 59.13333333333334,
          "velocity": 0.8267716535433071
        },
        {
          "duration": 0.3333333333333357,
          "durationTicks": 400,
          "midi": 43,
          "name": "G2",
          "ticks": 71040,
          "time": 59.2,
          "velocity": 0.8267716535433071
        },
        {
          "duration": 0.19666666666667254,
          "durationTicks": 236,
          "midi": 47,
          "name": "B2",
          "ticks": 72720,
          "time": 60.6,
          "velocity": 0.8267716535433071
        },
        {
          "duration": 0.19999999999999574,
          "durationTicks": 240,
          "midi": 43,
          "name": "G2",
          "ticks": 72960,
          "time": 60.800000000000004,
          "velocity": 0.8267716535433071
        },
        {
          "duration": 0.20000000000000284,
          "durationTicks": 240,
          "midi": 43,
          "name": "G2",
          "ticks": 73200,
          "time": 61,
          "velocity": 0.8267716535433071
        },
        {
          "duration": 0.20000000000000284,
          "durationTicks": 240,
          "midi": 43,
          "name": "G2",
          "ticks": 73440,
          "time": 61.2,
          "velocity": 0.8267716535433071
        },
        {
          "duration": 0.19666666666666544,
          "durationTicks": 236,
          "midi": 43,
          "name": "G2",
          "ticks": 73680,
          "time": 61.400000000000006,
          "velocity": 0.8267716535433071
        },
        {
          "duration": 0.20000000000000284,
          "durationTicks": 240,
          "midi": 43,
          "name": "G2",
          "ticks": 73920,
          "time": 61.6,
          "velocity": 0.8267716535433071
        },
        {
          "duration": 0.19999999999999574,
          "durationTicks": 240,
          "midi": 43,
          "name": "G2",
          "ticks": 74160,
          "time": 61.800000000000004,
          "velocity": 0.8267716535433071
        },
        {
          "duration": 0.20000000000000284,
          "durationTicks": 240,
          "midi": 43,
          "name": "G2",
          "ticks": 74400,
          "time": 62,
          "velocity": 0.8267716535433071
        },
        {
          "duration": 0.19666666666667254,
          "durationTicks": 236,
          "midi": 43,
          "name": "G2",
          "ticks": 74640,
          "time": 62.2,
          "velocity": 0.8267716535433071
        },
        {
          "duration": 0.19999999999999574,
          "durationTicks": 240,
          "midi": 43,
          "name": "G2",
          "ticks": 74880,
          "time": 62.400000000000006,
          "velocity": 0.8267716535433071
        },
        {
          "duration": 0.20000000000000284,
          "durationTicks": 240,
          "midi": 43,
          "name": "G2",
          "ticks": 75120,
          "time": 62.6,
          "velocity": 0.8267716535433071
        },
        {
          "duration": 0.19999999999999574,
          "durationTicks": 240,
          "midi": 43,
          "name": "G2",
          "ticks": 75360,
          "time": 62.800000000000004,
          "velocity": 0.8267716535433071
        },
        {
          "duration": 0.20000000000000284,
          "durationTicks": 240,
          "midi": 43,
          "name": "G2",
          "ticks": 75600,
          "time": 63,
          "velocity": 0.8267716535433071
        },
        {
          "duration": 0.19666666666667254,
          "durationTicks": 236,
          "midi": 43,
          "name": "G2",
          "ticks": 75840,
          "time": 63.2,
          "velocity": 0.8267716535433071
        },
        {
          "duration": 0.19666666666666544,
          "durationTicks": 236,
          "midi": 43,
          "name": "G2",
          "ticks": 76080,
          "time": 63.400000000000006,
          "velocity": 0.8267716535433071
        },
        {
          "duration": 0.19666666666667254,
          "durationTicks": 236,
          "midi": 43,
          "name": "G2",
          "ticks": 76320,
          "time": 63.6,
          "velocity": 0.8267716535433071
        },
        {
          "duration": 0.19666666666666544,
          "durationTicks": 236,
          "midi": 43,
          "name": "G2",
          "ticks": 76560,
          "time": 63.800000000000004,
          "velocity": 0.8267716535433071
        },
        {
          "duration": 0.20000000000000284,
          "durationTicks": 240,
          "midi": 43,
          "name": "G2",
          "ticks": 76800,
          "time": 64,
          "velocity": 0.8267716535433071
        },
        {
          "duration": 0.20000000000000284,
          "durationTicks": 240,
          "midi": 43,
          "name": "G2",
          "ticks": 77040,
          "time": 64.2,
          "velocity": 0.8267716535433071
        },
        {
          "duration": 0.20000000000000284,
          "durationTicks": 240,
          "midi": 43,
          "name": "G2",
          "ticks": 77280,
          "time": 64.4,
          "velocity": 0.8267716535433071
        },
        {
          "duration": 0.19666666666665833,
          "durationTicks": 236,
          "midi": 43,
          "name": "G2",
          "ticks": 77520,
          "time": 64.60000000000001,
          "velocity": 0.8267716535433071
        },
        {
          "duration": 0.20000000000000284,
          "durationTicks": 240,
          "midi": 43,
          "name": "G2",
          "ticks": 77760,
          "time": 64.8,
          "velocity": 0.8267716535433071
        },
        {
          "duration": 0.20000000000000284,
          "durationTicks": 240,
          "midi": 43,
          "name": "G2",
          "ticks": 78000,
          "time": 65,
          "velocity": 0.8267716535433071
        },
        {
          "duration": 0.20000000000000284,
          "durationTicks": 240,
          "midi": 43,
          "name": "G2",
          "ticks": 78240,
          "time": 65.2,
          "velocity": 0.8267716535433071
        },
        {
          "duration": 0.19666666666667254,
          "durationTicks": 236,
          "midi": 43,
          "name": "G2",
          "ticks": 78480,
          "time": 65.4,
          "velocity": 0.8267716535433071
        },
        {
          "duration": 0.19999999999998863,
          "durationTicks": 240,
          "midi": 43,
          "name": "G2",
          "ticks": 78720,
          "time": 65.60000000000001,
          "velocity": 0.8267716535433071
        },
        {
          "duration": 0.20000000000000284,
          "durationTicks": 240,
          "midi": 43,
          "name": "G2",
          "ticks": 78960,
          "time": 65.8,
          "velocity": 0.8267716535433071
        },
        {
          "duration": 0.20000000000000284,
          "durationTicks": 240,
          "midi": 43,
          "name": "G2",
          "ticks": 79200,
          "time": 66,
          "velocity": 0.8267716535433071
        },
        {
          "duration": 0.20000000000000284,
          "durationTicks": 240,
          "midi": 43,
          "name": "G2",
          "ticks": 79440,
          "time": 66.2,
          "velocity": 0.8267716535433071
        },
        {
          "duration": 0.19666666666667254,
          "durationTicks": 236,
          "midi": 43,
          "name": "G2",
          "ticks": 79680,
          "time": 66.4,
          "velocity": 0.8267716535433071
        },
        {
          "duration": 0.19666666666665833,
          "durationTicks": 236,
          "midi": 43,
          "name": "G2",
          "ticks": 79920,
          "time": 66.60000000000001,
          "velocity": 0.8267716535433071
        },
        {
          "duration": 0.19666666666667254,
          "durationTicks": 236,
          "midi": 43,
          "name": "G2",
          "ticks": 80160,
          "time": 66.8,
          "velocity": 0.8267716535433071
        },
        {
          "duration": 0.19666666666667254,
          "durationTicks": 236,
          "midi": 43,
          "name": "G2",
          "ticks": 80400,
          "time": 67,
          "velocity": 0.8267716535433071
        },
        {
          "duration": 0.20000000000000284,
          "durationTicks": 240,
          "midi": 43,
          "name": "G2",
          "ticks": 80640,
          "time": 67.2,
          "velocity": 0.8267716535433071
        },
        {
          "duration": 0.20000000000000284,
          "durationTicks": 240,
          "midi": 43,
          "name": "G2",
          "ticks": 80880,
          "time": 67.4,
          "velocity": 0.8267716535433071
        },
        {
          "duration": 0.19999999999998863,
          "durationTicks": 240,
          "midi": 43,
          "name": "G2",
          "ticks": 81120,
          "time": 67.60000000000001,
          "velocity": 0.8267716535433071
        },
        {
          "duration": 0.19666666666667254,
          "durationTicks": 236,
          "midi": 43,
          "name": "G2",
          "ticks": 81360,
          "time": 67.8,
          "velocity": 0.8267716535433071
        },
        {
          "duration": 0.20000000000000284,
          "durationTicks": 240,
          "midi": 43,
          "name": "G2",
          "ticks": 81600,
          "time": 68,
          "velocity": 0.8267716535433071
        },
        {
          "duration": 0.20000000000000284,
          "durationTicks": 240,
          "midi": 43,
          "name": "G2",
          "ticks": 81840,
          "time": 68.2,
          "velocity": 0.8267716535433071
        },
        {
          "duration": 0.20000000000000284,
          "durationTicks": 240,
          "midi": 43,
          "name": "G2",
          "ticks": 82080,
          "time": 68.4,
          "velocity": 0.8267716535433071
        },
        {
          "duration": 0.19666666666665833,
          "durationTicks": 236,
          "midi": 43,
          "name": "G2",
          "ticks": 82320,
          "time": 68.60000000000001,
          "velocity": 0.8267716535433071
        },
        {
          "duration": 0.20000000000000284,
          "durationTicks": 240,
          "midi": 43,
          "name": "G2",
          "ticks": 82560,
          "time": 68.8,
          "velocity": 0.8267716535433071
        },
        {
          "duration": 0.20000000000000284,
          "durationTicks": 240,
          "midi": 43,
          "name": "G2",
          "ticks": 82800,
          "time": 69,
          "velocity": 0.8267716535433071
        },
        {
          "duration": 0.20000000000000284,
          "durationTicks": 240,
          "midi": 43,
          "name": "G2",
          "ticks": 83040,
          "time": 69.2,
          "velocity": 0.8267716535433071
        },
        {
          "duration": 0.20000000000000284,
          "durationTicks": 240,
          "midi": 43,
          "name": "G2",
          "ticks": 83280,
          "time": 69.4,
          "velocity": 0.8267716535433071
        },
        {
          "duration": 0.19666666666665833,
          "durationTicks": 236,
          "midi": 43,
          "name": "G2",
          "ticks": 83520,
          "time": 69.60000000000001,
          "velocity": 0.8267716535433071
        },
        {
          "duration": 0.19666666666667254,
          "durationTicks": 236,
          "midi": 43,
          "name": "G2",
          "ticks": 83760,
          "time": 69.8,
          "velocity": 0.8267716535433071
        },
        {
          "duration": 0.19666666666667254,
          "durationTicks": 236,
          "midi": 43,
          "name": "G2",
          "ticks": 84000,
          "time": 70,
          "velocity": 0.8267716535433071
        },
        {
          "duration": 0.19666666666667254,
          "durationTicks": 236,
          "midi": 43,
          "name": "G2",
          "ticks": 84240,
          "time": 70.2,
          "velocity": 0.8267716535433071
        },
        {
          "duration": 0.20000000000000284,
          "durationTicks": 240,
          "midi": 43,
          "name": "G2",
          "ticks": 84480,
          "time": 70.4,
          "velocity": 0.8267716535433071
        },
        {
          "duration": 0.19999999999998863,
          "durationTicks": 240,
          "midi": 43,
          "name": "G2",
          "ticks": 84720,
          "time": 70.60000000000001,
          "velocity": 0.8267716535433071
        },
        {
          "duration": 0.20000000000000284,
          "durationTicks": 240,
          "midi": 43,
          "name": "G2",
          "ticks": 84960,
          "time": 70.8,
          "velocity": 0.8267716535433071
        },
        {
          "duration": 0.20000000000000284,
          "durationTicks": 240,
          "midi": 43,
          "name": "G2",
          "ticks": 85200,
          "time": 71,
          "velocity": 0.8267716535433071
        },
        {
          "duration": 0.19666666666667254,
          "durationTicks": 236,
          "midi": 43,
          "name": "G2",
          "ticks": 85440,
          "time": 71.2,
          "velocity": 0.8267716535433071
        },
        {
          "duration": 0.19666666666667254,
          "durationTicks": 236,
          "midi": 43,
          "name": "G2",
          "ticks": 85680,
          "time": 71.4,
          "velocity": 0.8267716535433071
        },
        {
          "duration": 0.19666666666665833,
          "durationTicks": 236,
          "midi": 43,
          "name": "G2",
          "ticks": 85920,
          "time": 71.60000000000001,
          "velocity": 0.8267716535433071
        },
        {
          "duration": 0.19666666666667254,
          "durationTicks": 236,
          "midi": 43,
          "name": "G2",
          "ticks": 86160,
          "time": 71.8,
          "velocity": 0.8267716535433071
        },
        {
          "duration": 0.20000000000000284,
          "durationTicks": 240,
          "midi": 43,
          "name": "G2",
          "ticks": 86400,
          "time": 72,
          "velocity": 0.8267716535433071
        },
        {
          "duration": 0.20000000000000284,
          "durationTicks": 240,
          "midi": 43,
          "name": "G2",
          "ticks": 86640,
          "time": 72.2,
          "velocity": 0.8267716535433071
        },
        {
          "duration": 0.20000000000000284,
          "durationTicks": 240,
          "midi": 43,
          "name": "G2",
          "ticks": 86880,
          "time": 72.4,
          "velocity": 0.8267716535433071
        },
        {
          "duration": 0.19999999999998863,
          "durationTicks": 240,
          "midi": 43,
          "name": "G2",
          "ticks": 87120,
          "time": 72.60000000000001,
          "velocity": 0.8267716535433071
        },
        {
          "duration": 0.19666666666667254,
          "durationTicks": 236,
          "midi": 43,
          "name": "G2",
          "ticks": 87360,
          "time": 72.8,
          "velocity": 0.8267716535433071
        },
        {
          "duration": 0.19666666666667254,
          "durationTicks": 236,
          "midi": 43,
          "name": "G2",
          "ticks": 87600,
          "time": 73,
          "velocity": 0.8267716535433071
        },
        {
          "duration": 0.19666666666667254,
          "durationTicks": 236,
          "midi": 43,
          "name": "G2",
          "ticks": 87840,
          "time": 73.2,
          "velocity": 0.8267716535433071
        },
        {
          "duration": 0.19666666666667254,
          "durationTicks": 236,
          "midi": 43,
          "name": "G2",
          "ticks": 88080,
          "time": 73.4,
          "velocity": 0.8267716535433071
        },
        {
          "duration": 0.19666666666665833,
          "durationTicks": 236,
          "midi": 48,
          "name": "C3",
          "ticks": 88320,
          "time": 73.60000000000001,
          "velocity": 0.8267716535433071
        },
        {
          "duration": 0.19666666666667254,
          "durationTicks": 236,
          "midi": 48,
          "name": "C3",
          "ticks": 88560,
          "time": 73.8,
          "velocity": 0.8267716535433071
        },
        {
          "duration": 0.19666666666667254,
          "durationTicks": 236,
          "midi": 47,
          "name": "B2",
          "ticks": 88800,
          "time": 74,
          "velocity": 0.8267716535433071
        },
        {
          "duration": 0.19666666666667254,
          "durationTicks": 236,
          "midi": 47,
          "name": "B2",
          "ticks": 89040,
          "time": 74.2,
          "velocity": 0.8267716535433071
        },
        {
          "duration": 0.19666666666667254,
          "durationTicks": 236,
          "midi": 48,
          "name": "C3",
          "ticks": 89280,
          "time": 74.4,
          "velocity": 0.8267716535433071
        },
        {
          "duration": 0.19666666666665833,
          "durationTicks": 236,
          "midi": 48,
          "name": "C3",
          "ticks": 89520,
          "time": 74.60000000000001,
          "velocity": 0.8267716535433071
        },
        {
          "duration": 0.19666666666667254,
          "durationTicks": 236,
          "midi": 47,
          "name": "B2",
          "ticks": 89760,
          "time": 74.8,
          "velocity": 0.8267716535433071
        },
        {
          "duration": 0.19666666666667254,
          "durationTicks": 236,
          "midi": 47,
          "name": "B2",
          "ticks": 90000,
          "time": 75,
          "velocity": 0.8267716535433071
        },
        {
          "duration": 1.0999999999999943,
          "durationTicks": 1320,
          "midi": 48,
          "name": "C3",
          "ticks": 90240,
          "time": 75.2,
          "velocity": 0.8267716535433071
        },
        {
          "duration": 0.3333333333333286,
          "durationTicks": 400,
          "midi": 49,
          "name": "C#3",
          "ticks": 91680,
          "time": 76.4,
          "velocity": 0.8267716535433071
        },
        {
          "duration": 0.3333333333333286,
          "durationTicks": 400,
          "midi": 50,
          "name": "D3",
          "ticks": 92160,
          "time": 76.80000000000001,
          "velocity": 0.8267716535433071
        },
        {
          "duration": 0.3333333333333428,
          "durationTicks": 400,
          "midi": 50,
          "name": "D3",
          "ticks": 93600,
          "time": 78,
          "velocity": 0.8267716535433071
        },
        {
          "duration": 0.3333333333333428,
          "durationTicks": 400,
          "midi": 38,
          "name": "D2",
          "ticks": 94080,
          "time": 78.4,
          "velocity": 0.8267716535433071
        },
        {
          "duration": 0.3333333333333286,
          "durationTicks": 400,
          "midi": 50,
          "name": "D3",
          "ticks": 95520,
          "time": 79.60000000000001,
          "velocity": 0.8267716535433071
        },
        {
          "duration": 0.3333333333333428,
          "durationTicks": 400,
          "midi": 38,
          "name": "D2",
          "ticks": 96000,
          "time": 80,
          "velocity": 0.8267716535433071
        },
        {
          "duration": 0.3333333333333428,
          "durationTicks": 400,
          "midi": 50,
          "name": "D3",
          "ticks": 97440,
          "time": 81.2,
          "velocity": 0.8267716535433071
        },
        {
          "duration": 0.3333333333333286,
          "durationTicks": 400,
          "midi": 38,
          "name": "D2",
          "ticks": 97920,
          "time": 81.60000000000001,
          "velocity": 0.8267716535433071
        },
        {
          "duration": 0.3333333333333286,
          "durationTicks": 400,
          "midi": 50,
          "name": "D3",
          "ticks": 99360,
          "time": 82.80000000000001,
          "velocity": 0.8267716535433071
        },
        {
          "duration": 0.3333333333333428,
          "durationTicks": 400,
          "midi": 38,
          "name": "D2",
          "ticks": 99840,
          "time": 83.2,
          "velocity": 0.8267716535433071
        },
        {
          "duration": 0.3333333333333428,
          "durationTicks": 400,
          "midi": 50,
          "name": "D3",
          "ticks": 100800,
          "time": 84,
          "velocity": 0.8267716535433071
        },
        {
          "duration": 0.3333333333333286,
          "durationTicks": 400,
          "midi": 38,
          "name": "D2",
          "ticks": 101760,
          "time": 84.80000000000001,
          "velocity": 0.8267716535433071
        },
        {
          "duration": 0.3333333333333286,
          "durationTicks": 400,
          "midi": 50,
          "name": "D3",
          "ticks": 102720,
          "time": 85.60000000000001,
          "velocity": 0.8267716535433071
        },
        {
          "duration": 0.3333333333333428,
          "durationTicks": 400,
          "midi": 38,
          "name": "D2",
          "ticks": 103680,
          "time": 86.4,
          "velocity": 0.8267716535433071
        },
        {
          "duration": 1.2000000000000028,
          "durationTicks": 1440,
          "midi": 45,
          "name": "A2",
          "ticks": 109440,
          "time": 91.2,
          "velocity": 0.4015748031496063
        },
        {
          "duration": 0.4000000000000057,
          "durationTicks": 480,
          "midi": 46,
          "name": "A#2",
          "ticks": 110880,
          "time": 92.4,
          "velocity": 0.4015748031496063
        },
        {
          "duration": 0.3333333333333286,
          "durationTicks": 400,
          "midi": 47,
          "name": "B2",
          "ticks": 111360,
          "time": 92.80000000000001,
          "velocity": 0.4015748031496063
        },
        {
          "duration": 0.3333333333333428,
          "durationTicks": 400,
          "midi": 42,
          "name": "F#2",
          "ticks": 113280,
          "time": 94.4,
          "velocity": 0.4015748031496063
        },
        {
          "duration": 0.3333333333333428,
          "durationTicks": 400,
          "midi": 43,
          "name": "G2",
          "ticks": 114240,
          "time": 95.2,
          "velocity": 0.4015748031496063
        },
        {
          "duration": 0.3333333333333428,
          "durationTicks": 400,
          "midi": 38,
          "name": "D2",
          "ticks": 115200,
          "time": 96,
          "velocity": 0.4015748031496063
        },
        {
          "duration": 1.1999999999999886,
          "durationTicks": 1440,
          "midi": 45,
          "name": "A2",
          "ticks": 120960,
          "time": 100.80000000000001,
          "velocity": 0.4015748031496063
        },
        {
          "duration": 0.4000000000000057,
          "durationTicks": 480,
          "midi": 46,
          "name": "A#2",
          "ticks": 122400,
          "time": 102,
          "velocity": 0.4015748031496063
        },
        {
          "duration": 0.3333333333333286,
          "durationTicks": 400,
          "midi": 47,
          "name": "B2",
          "ticks": 122880,
          "time": 102.4,
          "velocity": 0.4015748031496063
        },
        {
          "duration": 0.3333333333333286,
          "durationTicks": 400,
          "midi": 42,
          "name": "F#2",
          "ticks": 124800,
          "time": 104,
          "velocity": 0.4015748031496063
        },
        {
          "duration": 0.3333333333333144,
          "durationTicks": 400,
          "midi": 43,
          "name": "G2",
          "ticks": 125760,
          "time": 104.80000000000001,
          "velocity": 0.4015748031496063
        },
        {
          "duration": 1.5999999999999943,
          "durationTicks": 1920,
          "midi": 36,
          "name": "C2",
          "ticks": 126720,
          "time": 105.60000000000001,
          "velocity": 0.4015748031496063
        },
        {
          "duration": 0.3333333333333286,
          "durationTicks": 400,
          "midi": 35,
          "name": "B1",
          "ticks": 128640,
          "time": 107.2,
          "velocity": 0.4015748031496063
        },
        {
          "duration": 0.3333333333333286,
          "durationTicks": 400,
          "midi": 39,
          "name": "D#2",
          "ticks": 129600,
          "time": 108,
          "velocity": 0.4015748031496063
        },
        {
          "duration": 1.1999999999999886,
          "durationTicks": 1440,
          "midi": 40,
          "name": "E2",
          "ticks": 130560,
          "time": 108.80000000000001,
          "velocity": 0.4015748031496063
        },
        {
          "duration": 0.3333333333333286,
          "durationTicks": 400,
          "midi": 36,
          "name": "C2",
          "ticks": 132000,
          "time": 110,
          "velocity": 0.4015748031496063
        },
        {
          "duration": 0.3333333333333286,
          "durationTicks": 400,
          "midi": 38,
          "name": "D2",
          "ticks": 132480,
          "time": 110.4,
          "velocity": 0.4015748031496063
        },
        {
          "duration": 0.3333333333333144,
          "durationTicks": 400,
          "midi": 38,
          "name": "D2",
          "ticks": 132960,
          "time": 110.80000000000001,
          "velocity": 0.4015748031496063
        },
        {
          "duration": 0.3333333333333286,
          "durationTicks": 400,
          "midi": 38,
          "name": "D2",
          "ticks": 133440,
          "time": 111.2,
          "velocity": 0.4015748031496063
        },
        {
          "duration": 0.3333333333333286,
          "durationTicks": 400,
          "midi": 38,
          "name": "D2",
          "ticks": 133920,
          "time": 111.60000000000001,
          "velocity": 0.4015748031496063
        },
        {
          "duration": 0.6000000000000085,
          "durationTicks": 720,
          "midi": 43,
          "name": "G2",
          "ticks": 134400,
          "time": 112,
          "velocity": 0.4015748031496063
        },
        {
          "duration": 0.19666666666667254,
          "durationTicks": 236,
          "midi": 42,
          "name": "F#2",
          "ticks": 135120,
          "time": 112.60000000000001,
          "velocity": 0.4015748031496063
        },
        {
          "duration": 0.5999999999999943,
          "durationTicks": 720,
          "midi": 47,
          "name": "B2",
          "ticks": 135360,
          "time": 112.80000000000001,
          "velocity": 0.4015748031496063
        },
        {
          "duration": 0.19666666666667254,
          "durationTicks": 236,
          "midi": 45,
          "name": "A2",
          "ticks": 136080,
          "time": 113.4,
          "velocity": 0.4015748031496063
        },
        {
          "duration": 0.7999999999999972,
          "durationTicks": 960,
          "midi": 50,
          "name": "D3",
          "ticks": 136320,
          "time": 113.60000000000001,
          "velocity": 0.4015748031496063
        },
        {
          "duration": 0.7000000000000028,
          "durationTicks": 840,
          "midi": 48,
          "name": "C3",
          "ticks": 137280,
          "time": 114.4,
          "velocity": 0.4015748031496063
        },
        {
          "duration": 0.3333333333333286,
          "durationTicks": 400,
          "midi": 47,
          "name": "B2",
          "ticks": 138240,
          "time": 115.2,
          "velocity": 0.4015748031496063
        },
        {
          "duration": 0.3333333333333286,
          "durationTicks": 400,
          "midi": 52,
          "name": "E3",
          "ticks": 139200,
          "time": 116,
          "velocity": 0.4015748031496063
        },
        {
          "duration": 0.3333333333333144,
          "durationTicks": 400,
          "midi": 48,
          "name": "C3",
          "ticks": 140160,
          "time": 116.80000000000001,
          "velocity": 0.4015748031496063
        },
        {
          "duration": 0.3333333333333286,
          "durationTicks": 400,
          "midi": 50,
          "name": "D3",
          "ticks": 141120,
          "time": 117.60000000000001,
          "velocity": 0.4015748031496063
        },
        {
          "duration": 0.06666666666667709,
          "durationTicks": 80,
          "midi": 38,
          "name": "D2",
          "ticks": 141840,
          "time": 118.2,
          "velocity": 0.4015748031496063
        },
        {
          "duration": 0.5999999999999943,
          "durationTicks": 720,
          "midi": 43,
          "name": "G2",
          "ticks": 142080,
          "time": 118.4,
          "velocity": 0.4015748031496063
        },
        {
          "duration": 0.19666666666667254,
          "durationTicks": 236,
          "midi": 42,
          "name": "F#2",
          "ticks": 142800,
          "time": 119,
          "velocity": 0.4015748031496063
        },
        {
          "duration": 0.6000000000000085,
          "durationTicks": 720,
          "midi": 47,
          "name": "B2",
          "ticks": 143040,
          "time": 119.2,
          "velocity": 0.4015748031496063
        },
        {
          "duration": 0.19666666666665833,
          "durationTicks": 236,
          "midi": 45,
          "name": "A2",
          "ticks": 143760,
          "time": 119.80000000000001,
          "velocity": 0.4015748031496063
        },
        {
          "duration": 0.8000000000000114,
          "durationTicks": 960,
          "midi": 50,
          "name": "D3",
          "ticks": 144000,
          "time": 120,
          "velocity": 0.4015748031496063
        },
        {
          "duration": 0.6999999999999886,
          "durationTicks": 840,
          "midi": 48,
          "name": "C3",
          "ticks": 144960,
          "time": 120.80000000000001,
          "velocity": 0.4015748031496063
        },
        {
          "duration": 0.09999999999999432,
          "durationTicks": 120,
          "midi": 47,
          "name": "B2",
          "ticks": 145920,
          "time": 121.60000000000001,
          "velocity": 0.4015748031496063
        },
        {
          "duration": 0.10000000000000853,
          "durationTicks": 120,
          "midi": 47,
          "name": "B2",
          "ticks": 146400,
          "time": 122,
          "velocity": 0.4015748031496063
        },
        {
          "duration": 0.09999999999999432,
          "durationTicks": 120,
          "midi": 47,
          "name": "B2",
          "ticks": 146880,
          "time": 122.4,
          "velocity": 0.4015748031496063
        },
        {
          "duration": 0.10000000000000853,
          "durationTicks": 120,
          "midi": 48,
          "name": "C3",
          "ticks": 147840,
          "time": 123.2,
          "velocity": 0.4015748031496063
        },
        {
          "duration": 0.09999999999999432,
          "durationTicks": 120,
          "midi": 48,
          "name": "C3",
          "ticks": 148320,
          "time": 123.60000000000001,
          "velocity": 0.4015748031496063
        },
        {
          "duration": 0.10000000000000853,
          "durationTicks": 120,
          "midi": 48,
          "name": "C3",
          "ticks": 148800,
          "time": 124,
          "velocity": 0.4015748031496063
        },
        {
          "duration": 0.09999999999999432,
          "durationTicks": 120,
          "midi": 50,
          "name": "D3",
          "ticks": 149760,
          "time": 124.80000000000001,
          "velocity": 0.4015748031496063
        },
        {
          "duration": 0.10000000000000853,
          "durationTicks": 120,
          "midi": 50,
          "name": "D3",
          "ticks": 150240,
          "time": 125.2,
          "velocity": 0.4015748031496063
        },
        {
          "duration": 0.09999999999999432,
          "durationTicks": 120,
          "midi": 50,
          "name": "D3",
          "ticks": 150720,
          "time": 125.60000000000001,
          "velocity": 0.4015748031496063
        },
        {
          "duration": 0.19666666666668675,
          "durationTicks": 236,
          "midi": 48,
          "name": "C3",
          "ticks": 153600,
          "time": 128,
          "velocity": 0.8267716535433071
        },
        {
          "duration": 0.19666666666665833,
          "durationTicks": 236,
          "midi": 48,
          "name": "C3",
          "ticks": 153840,
          "time": 128.20000000000002,
          "velocity": 0.8267716535433071
        },
        {
          "duration": 0.19666666666665833,
          "durationTicks": 236,
          "midi": 48,
          "name": "C3",
          "ticks": 154080,
          "time": 128.4,
          "velocity": 0.8267716535433071
        },
        {
          "duration": 0.19666666666668675,
          "durationTicks": 236,
          "midi": 48,
          "name": "C3",
          "ticks": 154320,
          "time": 128.6,
          "velocity": 0.8267716535433071
        },
        {
          "duration": 0.19666666666665833,
          "durationTicks": 236,
          "midi": 48,
          "name": "C3",
          "ticks": 154560,
          "time": 128.8,
          "velocity": 0.8267716535433071
        },
        {
          "duration": 0.19666666666668675,
          "durationTicks": 236,
          "midi": 48,
          "name": "C3",
          "ticks": 154800,
          "time": 129,
          "velocity": 0.8267716535433071
        },
        {
          "duration": 0.19666666666665833,
          "durationTicks": 236,
          "midi": 48,
          "name": "C3",
          "ticks": 155040,
          "time": 129.20000000000002,
          "velocity": 0.8267716535433071
        },
        {
          "duration": 0.19666666666665833,
          "durationTicks": 236,
          "midi": 48,
          "name": "C3",
          "ticks": 155280,
          "time": 129.4,
          "velocity": 0.8267716535433071
        },
        {
          "duration": 0.19666666666668675,
          "durationTicks": 236,
          "midi": 48,
          "name": "C3",
          "ticks": 155520,
          "time": 129.6,
          "velocity": 0.8267716535433071
        },
        {
          "duration": 0.19666666666665833,
          "durationTicks": 236,
          "midi": 48,
          "name": "C3",
          "ticks": 155760,
          "time": 129.8,
          "velocity": 0.8267716535433071
        },
        {
          "duration": 0.19666666666668675,
          "durationTicks": 236,
          "midi": 48,
          "name": "C3",
          "ticks": 156000,
          "time": 130,
          "velocity": 0.8267716535433071
        },
        {
          "duration": 0.19666666666665833,
          "durationTicks": 236,
          "midi": 48,
          "name": "C3",
          "ticks": 156240,
          "time": 130.20000000000002,
          "velocity": 0.8267716535433071
        },
        {
          "duration": 0.19666666666665833,
          "durationTicks": 236,
          "midi": 48,
          "name": "C3",
          "ticks": 156480,
          "time": 130.4,
          "velocity": 0.8267716535433071
        },
        {
          "duration": 0.19666666666668675,
          "durationTicks": 236,
          "midi": 48,
          "name": "C3",
          "ticks": 156720,
          "time": 130.6,
          "velocity": 0.8267716535433071
        },
        {
          "duration": 0.19666666666665833,
          "durationTicks": 236,
          "midi": 48,
          "name": "C3",
          "ticks": 156960,
          "time": 130.8,
          "velocity": 0.8267716535433071
        },
        {
          "duration": 0.19666666666668675,
          "durationTicks": 236,
          "midi": 48,
          "name": "C3",
          "ticks": 157200,
          "time": 131,
          "velocity": 0.8267716535433071
        },
        {
          "duration": 0.19666666666665833,
          "durationTicks": 236,
          "midi": 48,
          "name": "C3",
          "ticks": 157440,
          "time": 131.20000000000002,
          "velocity": 0.8267716535433071
        },
        {
          "duration": 0.19666666666665833,
          "durationTicks": 236,
          "midi": 36,
          "name": "C2",
          "ticks": 157680,
          "time": 131.4,
          "velocity": 0.8267716535433071
        },
        {
          "duration": 0.19666666666668675,
          "durationTicks": 236,
          "midi": 36,
          "name": "C2",
          "ticks": 157920,
          "time": 131.6,
          "velocity": 0.8267716535433071
        },
        {
          "duration": 0.19666666666665833,
          "durationTicks": 236,
          "midi": 36,
          "name": "C2",
          "ticks": 158160,
          "time": 131.8,
          "velocity": 0.8267716535433071
        },
        {
          "duration": 0.19666666666668675,
          "durationTicks": 236,
          "midi": 36,
          "name": "C2",
          "ticks": 158400,
          "time": 132,
          "velocity": 0.8267716535433071
        },
        {
          "duration": 0.19666666666665833,
          "durationTicks": 236,
          "midi": 36,
          "name": "C2",
          "ticks": 158640,
          "time": 132.20000000000002,
          "velocity": 0.8267716535433071
        },
        {
          "duration": 0.19666666666665833,
          "durationTicks": 236,
          "midi": 36,
          "name": "C2",
          "ticks": 158880,
          "time": 132.4,
          "velocity": 0.8267716535433071
        },
        {
          "duration": 0.19666666666668675,
          "durationTicks": 236,
          "midi": 36,
          "name": "C2",
          "ticks": 159120,
          "time": 132.6,
          "velocity": 0.8267716535433071
        },
        {
          "duration": 0.19666666666665833,
          "durationTicks": 236,
          "midi": 36,
          "name": "C2",
          "ticks": 159360,
          "time": 132.8,
          "velocity": 0.8267716535433071
        },
        {
          "duration": 0.19666666666668675,
          "durationTicks": 236,
          "midi": 36,
          "name": "C2",
          "ticks": 159600,
          "time": 133,
          "velocity": 0.8267716535433071
        },
        {
          "duration": 0.19666666666665833,
          "durationTicks": 236,
          "midi": 36,
          "name": "C2",
          "ticks": 159840,
          "time": 133.20000000000002,
          "velocity": 0.8267716535433071
        },
        {
          "duration": 0.19666666666665833,
          "durationTicks": 236,
          "midi": 36,
          "name": "C2",
          "ticks": 160080,
          "time": 133.4,
          "velocity": 0.8267716535433071
        },
        {
          "duration": 0.19666666666668675,
          "durationTicks": 236,
          "midi": 36,
          "name": "C2",
          "ticks": 160320,
          "time": 133.6,
          "velocity": 0.8267716535433071
        },
        {
          "duration": 0.19666666666665833,
          "durationTicks": 236,
          "midi": 36,
          "name": "C2",
          "ticks": 160560,
          "time": 133.8,
          "velocity": 0.8267716535433071
        },
        {
          "duration": 0.19666666666668675,
          "durationTicks": 236,
          "midi": 36,
          "name": "C2",
          "ticks": 160800,
          "time": 134,
          "velocity": 0.8267716535433071
        },
        {
          "duration": 0.19666666666665833,
          "durationTicks": 236,
          "midi": 36,
          "name": "C2",
          "ticks": 161040,
          "time": 134.20000000000002,
          "velocity": 0.8267716535433071
        },
        {
          "duration": 0.19666666666665833,
          "durationTicks": 236,
          "midi": 36,
          "name": "C2",
          "ticks": 161280,
          "time": 134.4,
          "velocity": 0.8267716535433071
        },
        {
          "duration": 0.19666666666668675,
          "durationTicks": 236,
          "midi": 36,
          "name": "C2",
          "ticks": 161520,
          "time": 134.6,
          "velocity": 0.8267716535433071
        },
        {
          "duration": 0.19666666666665833,
          "durationTicks": 236,
          "midi": 36,
          "name": "C2",
          "ticks": 161760,
          "time": 134.8,
          "velocity": 0.8267716535433071
        },
        {
          "duration": 0.19666666666668675,
          "durationTicks": 236,
          "midi": 36,
          "name": "C2",
          "ticks": 162000,
          "time": 135,
          "velocity": 0.8267716535433071
        },
        {
          "duration": 0.19666666666665833,
          "durationTicks": 236,
          "midi": 36,
          "name": "C2",
          "ticks": 162240,
          "time": 135.20000000000002,
          "velocity": 0.8267716535433071
        },
        {
          "duration": 0.19666666666665833,
          "durationTicks": 236,
          "midi": 36,
          "name": "C2",
          "ticks": 162480,
          "time": 135.4,
          "velocity": 0.8267716535433071
        },
        {
          "duration": 0.19666666666668675,
          "durationTicks": 236,
          "midi": 36,
          "name": "C2",
          "ticks": 162720,
          "time": 135.6,
          "velocity": 0.8267716535433071
        },
        {
          "duration": 0.19666666666665833,
          "durationTicks": 236,
          "midi": 36,
          "name": "C2",
          "ticks": 162960,
          "time": 135.8,
          "velocity": 0.8267716535433071
        },
        {
          "duration": 0.19666666666668675,
          "durationTicks": 236,
          "midi": 36,
          "name": "C2",
          "ticks": 163200,
          "time": 136,
          "velocity": 0.8267716535433071
        },
        {
          "duration": 0.19666666666665833,
          "durationTicks": 236,
          "midi": 36,
          "name": "C2",
          "ticks": 163440,
          "time": 136.20000000000002,
          "velocity": 0.8267716535433071
        },
        {
          "duration": 0.19666666666665833,
          "durationTicks": 236,
          "midi": 36,
          "name": "C2",
          "ticks": 163680,
          "time": 136.4,
          "velocity": 0.8267716535433071
        },
        {
          "duration": 0.19666666666668675,
          "durationTicks": 236,
          "midi": 36,
          "name": "C2",
          "ticks": 163920,
          "time": 136.6,
          "velocity": 0.8267716535433071
        },
        {
          "duration": 0.19666666666665833,
          "durationTicks": 236,
          "midi": 36,
          "name": "C2",
          "ticks": 164160,
          "time": 136.8,
          "velocity": 0.8267716535433071
        },
        {
          "duration": 0.19666666666668675,
          "durationTicks": 236,
          "midi": 36,
          "name": "C2",
          "ticks": 164400,
          "time": 137,
          "velocity": 0.8267716535433071
        },
        {
          "duration": 0.19666666666665833,
          "durationTicks": 236,
          "midi": 36,
          "name": "C2",
          "ticks": 164640,
          "time": 137.20000000000002,
          "velocity": 0.8267716535433071
        },
        {
          "duration": 0.19666666666665833,
          "durationTicks": 236,
          "midi": 36,
          "name": "C2",
          "ticks": 164880,
          "time": 137.4,
          "velocity": 0.8267716535433071
        },
        {
          "duration": 0.19666666666668675,
          "durationTicks": 236,
          "midi": 38,
          "name": "D2",
          "ticks": 165120,
          "time": 137.6,
          "velocity": 0.8267716535433071
        },
        {
          "duration": 0.19666666666665833,
          "durationTicks": 236,
          "midi": 38,
          "name": "D2",
          "ticks": 165360,
          "time": 137.8,
          "velocity": 0.8267716535433071
        },
        {
          "duration": 0.19666666666668675,
          "durationTicks": 236,
          "midi": 38,
          "name": "D2",
          "ticks": 165600,
          "time": 138,
          "velocity": 0.8267716535433071
        },
        {
          "duration": 0.19666666666665833,
          "durationTicks": 236,
          "midi": 38,
          "name": "D2",
          "ticks": 165840,
          "time": 138.20000000000002,
          "velocity": 0.8267716535433071
        },
        {
          "duration": 0.19666666666665833,
          "durationTicks": 236,
          "midi": 38,
          "name": "D2",
          "ticks": 166080,
          "time": 138.4,
          "velocity": 0.8267716535433071
        },
        {
          "duration": 0.19666666666668675,
          "durationTicks": 236,
          "midi": 38,
          "name": "D2",
          "ticks": 166320,
          "time": 138.6,
          "velocity": 0.8267716535433071
        },
        {
          "duration": 0.19666666666665833,
          "durationTicks": 236,
          "midi": 38,
          "name": "D2",
          "ticks": 166560,
          "time": 138.8,
          "velocity": 0.8267716535433071
        },
        {
          "duration": 0.19666666666668675,
          "durationTicks": 236,
          "midi": 38,
          "name": "D2",
          "ticks": 166800,
          "time": 139,
          "velocity": 0.8267716535433071
        },
        {
          "duration": 0.19666666666665833,
          "durationTicks": 236,
          "midi": 38,
          "name": "D2",
          "ticks": 167040,
          "time": 139.20000000000002,
          "velocity": 0.8267716535433071
        },
        {
          "duration": 0.19666666666665833,
          "durationTicks": 236,
          "midi": 38,
          "name": "D2",
          "ticks": 167280,
          "time": 139.4,
          "velocity": 0.8267716535433071
        },
        {
          "duration": 0.19666666666668675,
          "durationTicks": 236,
          "midi": 38,
          "name": "D2",
          "ticks": 167520,
          "time": 139.6,
          "velocity": 0.8267716535433071
        },
        {
          "duration": 0.19666666666665833,
          "durationTicks": 236,
          "midi": 38,
          "name": "D2",
          "ticks": 167760,
          "time": 139.8,
          "velocity": 0.8267716535433071
        },
        {
          "duration": 0.19666666666668675,
          "durationTicks": 236,
          "midi": 38,
          "name": "D2",
          "ticks": 168000,
          "time": 140,
          "velocity": 0.8267716535433071
        },
        {
          "duration": 0.19666666666665833,
          "durationTicks": 236,
          "midi": 38,
          "name": "D2",
          "ticks": 168240,
          "time": 140.20000000000002,
          "velocity": 0.8267716535433071
        },
        {
          "duration": 0.19666666666665833,
          "durationTicks": 236,
          "midi": 38,
          "name": "D2",
          "ticks": 168480,
          "time": 140.4,
          "velocity": 0.8267716535433071
        },
        {
          "duration": 0.19666666666668675,
          "durationTicks": 236,
          "midi": 38,
          "name": "D2",
          "ticks": 168720,
          "time": 140.6,
          "velocity": 0.8267716535433071
        },
        {
          "duration": 0.19999999999998863,
          "durationTicks": 240,
          "midi": 43,
          "name": "G2",
          "ticks": 168960,
          "time": 140.8,
          "velocity": 0.8267716535433071
        },
        {
          "duration": 0.20000000000001705,
          "durationTicks": 240,
          "midi": 43,
          "name": "G2",
          "ticks": 169200,
          "time": 141,
          "velocity": 0.8267716535433071
        },
        {
          "duration": 0.19999999999998863,
          "durationTicks": 240,
          "midi": 43,
          "name": "G2",
          "ticks": 169440,
          "time": 141.20000000000002,
          "velocity": 0.8267716535433071
        },
        {
          "duration": 0.19666666666665833,
          "durationTicks": 236,
          "midi": 43,
          "name": "G2",
          "ticks": 169680,
          "time": 141.4,
          "velocity": 0.8267716535433071
        },
        {
          "duration": 0.20000000000001705,
          "durationTicks": 240,
          "midi": 43,
          "name": "G2",
          "ticks": 169920,
          "time": 141.6,
          "velocity": 0.8267716535433071
        },
        {
          "duration": 0.19999999999998863,
          "durationTicks": 240,
          "midi": 43,
          "name": "G2",
          "ticks": 170160,
          "time": 141.8,
          "velocity": 0.8267716535433071
        },
        {
          "duration": 0.20000000000001705,
          "durationTicks": 240,
          "midi": 43,
          "name": "G2",
          "ticks": 170400,
          "time": 142,
          "velocity": 0.8267716535433071
        },
        {
          "duration": 0.19999999999998863,
          "durationTicks": 240,
          "midi": 43,
          "name": "G2",
          "ticks": 170640,
          "time": 142.20000000000002,
          "velocity": 0.8267716535433071
        },
        {
          "duration": 0.19999999999998863,
          "durationTicks": 240,
          "midi": 43,
          "name": "G2",
          "ticks": 170880,
          "time": 142.4,
          "velocity": 0.8267716535433071
        },
        {
          "duration": 0.20000000000001705,
          "durationTicks": 240,
          "midi": 43,
          "name": "G2",
          "ticks": 171120,
          "time": 142.6,
          "velocity": 0.8267716535433071
        },
        {
          "duration": 0.19999999999998863,
          "durationTicks": 240,
          "midi": 43,
          "name": "G2",
          "ticks": 171360,
          "time": 142.8,
          "velocity": 0.8267716535433071
        },
        {
          "duration": 0.19666666666668675,
          "durationTicks": 236,
          "midi": 43,
          "name": "G2",
          "ticks": 171600,
          "time": 143,
          "velocity": 0.8267716535433071
        },
        {
          "duration": 0.19999999999998863,
          "durationTicks": 240,
          "midi": 43,
          "name": "G2",
          "ticks": 171840,
          "time": 143.20000000000002,
          "velocity": 0.8267716535433071
        },
        {
          "duration": 0.19999999999998863,
          "durationTicks": 240,
          "midi": 43,
          "name": "G2",
          "ticks": 172080,
          "time": 143.4,
          "velocity": 0.8267716535433071
        },
        {
          "duration": 0.20000000000001705,
          "durationTicks": 240,
          "midi": 43,
          "name": "G2",
          "ticks": 172320,
          "time": 143.6,
          "velocity": 0.8267716535433071
        },
        {
          "duration": 0.19999999999998863,
          "durationTicks": 240,
          "midi": 43,
          "name": "G2",
          "ticks": 172560,
          "time": 143.8,
          "velocity": 0.8267716535433071
        },
        {
          "duration": 0.20000000000001705,
          "durationTicks": 240,
          "midi": 43,
          "name": "G2",
          "ticks": 172800,
          "time": 144,
          "velocity": 0.8267716535433071
        },
        {
          "duration": 0.19999999999998863,
          "durationTicks": 240,
          "midi": 43,
          "name": "G2",
          "ticks": 173040,
          "time": 144.20000000000002,
          "velocity": 0.8267716535433071
        },
        {
          "duration": 0.19999999999998863,
          "durationTicks": 240,
          "midi": 43,
          "name": "G2",
          "ticks": 173280,
          "time": 144.4,
          "velocity": 0.8267716535433071
        },
        {
          "duration": 0.19666666666668675,
          "durationTicks": 236,
          "midi": 43,
          "name": "G2",
          "ticks": 173520,
          "time": 144.6,
          "velocity": 0.8267716535433071
        },
        {
          "duration": 0.19999999999998863,
          "durationTicks": 240,
          "midi": 43,
          "name": "G2",
          "ticks": 173760,
          "time": 144.8,
          "velocity": 0.8267716535433071
        },
        {
          "duration": 0.20000000000001705,
          "durationTicks": 240,
          "midi": 43,
          "name": "G2",
          "ticks": 174000,
          "time": 145,
          "velocity": 0.8267716535433071
        },
        {
          "duration": 0.19999999999998863,
          "durationTicks": 240,
          "midi": 43,
          "name": "G2",
          "ticks": 174240,
          "time": 145.20000000000002,
          "velocity": 0.8267716535433071
        },
        {
          "duration": 0.19999999999998863,
          "durationTicks": 240,
          "midi": 43,
          "name": "G2",
          "ticks": 174480,
          "time": 145.4,
          "velocity": 0.8267716535433071
        },
        {
          "duration": 0.19666666666668675,
          "durationTicks": 236,
          "midi": 43,
          "name": "G2",
          "ticks": 174720,
          "time": 145.6,
          "velocity": 0.6771653543307087
        },
        {
          "duration": 0.19666666666665833,
          "durationTicks": 236,
          "midi": 43,
          "name": "G2",
          "ticks": 174960,
          "time": 145.8,
          "velocity": 0.6771653543307087
        },
        {
          "duration": 0.19666666666668675,
          "durationTicks": 236,
          "midi": 43,
          "name": "G2",
          "ticks": 175200,
          "time": 146,
          "velocity": 0.6771653543307087
        },
        {
          "duration": 0.19666666666665833,
          "durationTicks": 236,
          "midi": 43,
          "name": "G2",
          "ticks": 175440,
          "time": 146.20000000000002,
          "velocity": 0.6771653543307087
        },
        {
          "duration": 0.19666666666665833,
          "durationTicks": 236,
          "midi": 43,
          "name": "G2",
          "ticks": 175680,
          "time": 146.4,
          "velocity": 0.6771653543307087
        },
        {
          "duration": 0.19666666666668675,
          "durationTicks": 236,
          "midi": 43,
          "name": "G2",
          "ticks": 175920,
          "time": 146.6,
          "velocity": 0.6771653543307087
        },
        {
          "duration": 0.19666666666665833,
          "durationTicks": 236,
          "midi": 43,
          "name": "G2",
          "ticks": 176160,
          "time": 146.8,
          "velocity": 0.6771653543307087
        },
        {
          "duration": 0.19666666666668675,
          "durationTicks": 236,
          "midi": 43,
          "name": "G2",
          "ticks": 176400,
          "time": 147,
          "velocity": 0.6771653543307087
        },
        {
          "duration": 0.19666666666665833,
          "durationTicks": 236,
          "midi": 36,
          "name": "C2",
          "ticks": 176640,
          "time": 147.20000000000002,
          "velocity": 0.6771653543307087
        },
        {
          "duration": 0.19666666666665833,
          "durationTicks": 236,
          "midi": 36,
          "name": "C2",
          "ticks": 176880,
          "time": 147.4,
          "velocity": 0.6771653543307087
        },
        {
          "duration": 0.19666666666668675,
          "durationTicks": 236,
          "midi": 36,
          "name": "C2",
          "ticks": 177120,
          "time": 147.6,
          "velocity": 0.6771653543307087
        },
        {
          "duration": 0.19666666666665833,
          "durationTicks": 236,
          "midi": 36,
          "name": "C2",
          "ticks": 177360,
          "time": 147.8,
          "velocity": 0.6771653543307087
        },
        {
          "duration": 0.19666666666668675,
          "durationTicks": 236,
          "midi": 38,
          "name": "D2",
          "ticks": 177600,
          "time": 148,
          "velocity": 0.6771653543307087
        },
        {
          "duration": 0.19666666666665833,
          "durationTicks": 236,
          "midi": 38,
          "name": "D2",
          "ticks": 177840,
          "time": 148.20000000000002,
          "velocity": 0.6771653543307087
        },
        {
          "duration": 0.19666666666665833,
          "durationTicks": 236,
          "midi": 38,
          "name": "D2",
          "ticks": 178080,
          "time": 148.4,
          "velocity": 0.6771653543307087
        },
        {
          "duration": 0.19666666666668675,
          "durationTicks": 236,
          "midi": 38,
          "name": "D2",
          "ticks": 178320,
          "time": 148.6,
          "velocity": 0.6771653543307087
        },
        {
          "duration": 0.5999999999999943,
          "durationTicks": 720,
          "midi": 43,
          "name": "G2",
          "ticks": 178560,
          "time": 148.8,
          "velocity": 0.6771653543307087
        },
        {
          "duration": 0.19666666666665833,
          "durationTicks": 236,
          "midi": 42,
          "name": "F#2",
          "ticks": 179280,
          "time": 149.4,
          "velocity": 0.6771653543307087
        },
        {
          "duration": 0.30000000000001137,
          "durationTicks": 360,
          "midi": 45,
          "name": "A2",
          "ticks": 179520,
          "time": 149.6,
          "velocity": 0.6771653543307087
        },
        {
          "duration": 0.09666666666666401,
          "durationTicks": 116,
          "midi": 43,
          "name": "G2",
          "ticks": 179880,
          "time": 149.9,
          "velocity": 0.6771653543307087
        },
        {
          "duration": 0.30000000000001137,
          "durationTicks": 360,
          "midi": 48,
          "name": "C3",
          "ticks": 180000,
          "time": 150,
          "velocity": 0.6771653543307087
        },
        {
          "duration": 0.09666666666666401,
          "durationTicks": 116,
          "midi": 47,
          "name": "B2",
          "ticks": 180360,
          "time": 150.3,
          "velocity": 0.6771653543307087
        },
        {
          "duration": 0.5999999999999943,
          "durationTicks": 720,
          "midi": 45,
          "name": "A2",
          "ticks": 180480,
          "time": 150.4,
          "velocity": 0.6771653543307087
        },
        {
          "duration": 0.19666666666668675,
          "durationTicks": 236,
          "midi": 44,
          "name": "G#2",
          "ticks": 181200,
          "time": 151,
          "velocity": 0.6771653543307087
        },
        {
          "duration": 0.29999999999998295,
          "durationTicks": 360,
          "midi": 47,
          "name": "B2",
          "ticks": 181440,
          "time": 151.20000000000002,
          "velocity": 0.6771653543307087
        },
        {
          "duration": 0.09666666666666401,
          "durationTicks": 116,
          "midi": 45,
          "name": "A2",
          "ticks": 181800,
          "time": 151.5,
          "velocity": 0.6771653543307087
        },
        {
          "duration": 0.30000000000001137,
          "durationTicks": 360,
          "midi": 50,
          "name": "D3",
          "ticks": 181920,
          "time": 151.6,
          "velocity": 0.6771653543307087
        },
        {
          "duration": 0.09666666666666401,
          "durationTicks": 116,
          "midi": 48,
          "name": "C3",
          "ticks": 182280,
          "time": 151.9,
          "velocity": 0.6771653543307087
        },
        {
          "duration": 0.5999999999999943,
          "durationTicks": 720,
          "midi": 47,
          "name": "B2",
          "ticks": 182400,
          "time": 152,
          "velocity": 0.6771653543307087
        },
        {
          "duration": 0.19666666666668675,
          "durationTicks": 236,
          "midi": 46,
          "name": "A#2",
          "ticks": 183120,
          "time": 152.6,
          "velocity": 0.6771653543307087
        },
        {
          "duration": 0.29999999999998295,
          "durationTicks": 360,
          "midi": 48,
          "name": "C3",
          "ticks": 183360,
          "time": 152.8,
          "velocity": 0.6771653543307087
        },
        {
          "duration": 0.09666666666669244,
          "durationTicks": 116,
          "midi": 47,
          "name": "B2",
          "ticks": 183720,
          "time": 153.1,
          "velocity": 0.6771653543307087
        },
        {
          "duration": 0.29999999999998295,
          "durationTicks": 360,
          "midi": 52,
          "name": "E3",
          "ticks": 183840,
          "time": 153.20000000000002,
          "velocity": 0.6771653543307087
        },
        {
          "duration": 0.09666666666666401,
          "durationTicks": 116,
          "midi": 50,
          "name": "D3",
          "ticks": 184200,
          "time": 153.5,
          "velocity": 0.6771653543307087
        },
        {
          "duration": 0.3333333333333144,
          "durationTicks": 400,
          "midi": 48,
          "name": "C3",
          "ticks": 184320,
          "time": 153.60000000000002,
          "velocity": 0.6771653543307087
        },
        {
          "duration": 0.3333333333333428,
          "durationTicks": 400,
          "midi": 50,
          "name": "D3",
          "ticks": 184800,
          "time": 154,
          "velocity": 0.6771653543307087
        },
        {
          "duration": 0.3333333333333428,
          "durationTicks": 400,
          "midi": 48,
          "name": "C3",
          "ticks": 185280,
          "time": 154.4,
          "velocity": 0.6771653543307087
        },
        {
          "duration": 0.3333333333333144,
          "durationTicks": 400,
          "midi": 44,
          "name": "G#2",
          "ticks": 185760,
          "time": 154.8,
          "velocity": 0.6771653543307087
        },
        {
          "duration": 0.19666666666665833,
          "durationTicks": 236,
          "midi": 45,
          "name": "A2",
          "ticks": 186240,
          "time": 155.20000000000002,
          "velocity": 0.6771653543307087
        },
        {
          "duration": 0.19666666666668675,
          "durationTicks": 236,
          "midi": 45,
          "name": "A2",
          "ticks": 186480,
          "time": 155.4,
          "velocity": 0.6771653543307087
        },
        {
          "duration": 0.19666666666665833,
          "durationTicks": 236,
          "midi": 43,
          "name": "G2",
          "ticks": 186720,
          "time": 155.60000000000002,
          "velocity": 0.6771653543307087
        },
        {
          "duration": 0.19666666666665833,
          "durationTicks": 236,
          "midi": 43,
          "name": "G2",
          "ticks": 186960,
          "time": 155.8,
          "velocity": 0.6771653543307087
        },
        {
          "duration": 0.19666666666668675,
          "durationTicks": 236,
          "midi": 42,
          "name": "F#2",
          "ticks": 187200,
          "time": 156,
          "velocity": 0.6771653543307087
        },
        {
          "duration": 0.19666666666665833,
          "durationTicks": 236,
          "midi": 42,
          "name": "F#2",
          "ticks": 187440,
          "time": 156.20000000000002,
          "velocity": 0.6771653543307087
        },
        {
          "duration": 0.19666666666668675,
          "durationTicks": 236,
          "midi": 43,
          "name": "G2",
          "ticks": 187680,
          "time": 156.4,
          "velocity": 0.6771653543307087
        },
        {
          "duration": 0.19666666666665833,
          "durationTicks": 236,
          "midi": 43,
          "name": "G2",
          "ticks": 187920,
          "time": 156.60000000000002,
          "velocity": 0.6771653543307087
        },
        {
          "duration": 0.3333333333333144,
          "durationTicks": 400,
          "midi": 42,
          "name": "F#2",
          "ticks": 188160,
          "time": 156.8,
          "velocity": 0.6771653543307087
        },
        {
          "duration": 0.20000000000001705,
          "durationTicks": 240,
          "midi": 47,
          "name": "B2",
          "ticks": 211680,
          "time": 176.4,
          "velocity": 0.8267716535433071
        },
        {
          "duration": 0.19999999999998863,
          "durationTicks": 240,
          "midi": 46,
          "name": "A#2",
          "ticks": 211920,
          "time": 176.60000000000002,
          "velocity": 0.8267716535433071
        },
        {
          "duration": 0.19999999999998863,
          "durationTicks": 240,
          "midi": 47,
          "name": "B2",
          "ticks": 212160,
          "time": 176.8,
          "velocity": 0.8267716535433071
        },
        {
          "duration": 0.20000000000001705,
          "durationTicks": 240,
          "midi": 46,
          "name": "A#2",
          "ticks": 212400,
          "time": 177,
          "velocity": 0.8267716535433071
        },
        {
          "duration": 0.19999999999998863,
          "durationTicks": 240,
          "midi": 47,
          "name": "B2",
          "ticks": 212640,
          "time": 177.20000000000002,
          "velocity": 0.8267716535433071
        },
        {
          "duration": 0.19666666666668675,
          "durationTicks": 236,
          "midi": 44,
          "name": "G#2",
          "ticks": 212880,
          "time": 177.4,
          "velocity": 0.8267716535433071
        },
        {
          "duration": 0.19666666666665833,
          "durationTicks": 236,
          "midi": 45,
          "name": "A2",
          "ticks": 213120,
          "time": 177.60000000000002,
          "velocity": 0.8267716535433071
        },
        {
          "duration": 0.20000000000001705,
          "durationTicks": 240,
          "midi": 45,
          "name": "A2",
          "ticks": 213600,
          "time": 178,
          "velocity": 0.8267716535433071
        },
        {
          "duration": 0.19999999999998863,
          "durationTicks": 240,
          "midi": 44,
          "name": "G#2",
          "ticks": 213840,
          "time": 178.20000000000002,
          "velocity": 0.8267716535433071
        },
        {
          "duration": 0.20000000000001705,
          "durationTicks": 240,
          "midi": 45,
          "name": "A2",
          "ticks": 214080,
          "time": 178.4,
          "velocity": 0.8267716535433071
        },
        {
          "duration": 0.19999999999998863,
          "durationTicks": 240,
          "midi": 44,
          "name": "G#2",
          "ticks": 214320,
          "time": 178.60000000000002,
          "velocity": 0.8267716535433071
        },
        {
          "duration": 0.19999999999998863,
          "durationTicks": 240,
          "midi": 45,
          "name": "A2",
          "ticks": 214560,
          "time": 178.8,
          "velocity": 0.8267716535433071
        },
        {
          "duration": 0.19666666666668675,
          "durationTicks": 236,
          "midi": 42,
          "name": "F#2",
          "ticks": 214800,
          "time": 179,
          "velocity": 0.8267716535433071
        },
        {
          "duration": 0.19666666666665833,
          "durationTicks": 236,
          "midi": 43,
          "name": "G2",
          "ticks": 215040,
          "time": 179.20000000000002,
          "velocity": 0.8267716535433071
        },
        {
          "duration": 0.19666666666665833,
          "durationTicks": 236,
          "midi": 40,
          "name": "E2",
          "ticks": 215520,
          "time": 179.60000000000002,
          "velocity": 0.8267716535433071
        },
        {
          "duration": 0.19666666666665833,
          "durationTicks": 236,
          "midi": 40,
          "name": "E2",
          "ticks": 215760,
          "time": 179.8,
          "velocity": 0.8267716535433071
        },
        {
          "duration": 0.19666666666668675,
          "durationTicks": 236,
          "midi": 36,
          "name": "C2",
          "ticks": 216000,
          "time": 180,
          "velocity": 0.8267716535433071
        },
        {
          "duration": 0.19666666666665833,
          "durationTicks": 236,
          "midi": 36,
          "name": "C2",
          "ticks": 216240,
          "time": 180.20000000000002,
          "velocity": 0.8267716535433071
        },
        {
          "duration": 0.19666666666668675,
          "durationTicks": 236,
          "midi": 38,
          "name": "D2",
          "ticks": 216480,
          "time": 180.4,
          "velocity": 0.8267716535433071
        },
        {
          "duration": 0.19666666666665833,
          "durationTicks": 236,
          "midi": 38,
          "name": "D2",
          "ticks": 216720,
          "time": 180.60000000000002,
          "velocity": 0.8267716535433071
        },
        {
          "duration": 0.19666666666665833,
          "durationTicks": 236,
          "midi": 43,
          "name": "G2",
          "ticks": 216960,
          "time": 180.8,
          "velocity": 0.8267716535433071
        },
        {
          "duration": 0.19999999999998863,
          "durationTicks": 240,
          "midi": 47,
          "name": "B2",
          "ticks": 217440,
          "time": 181.20000000000002,
          "velocity": 0.8267716535433071
        },
        {
          "duration": 0.20000000000001705,
          "durationTicks": 240,
          "midi": 46,
          "name": "A#2",
          "ticks": 217680,
          "time": 181.4,
          "velocity": 0.8267716535433071
        },
        {
          "duration": 0.19999999999998863,
          "durationTicks": 240,
          "midi": 47,
          "name": "B2",
          "ticks": 217920,
          "time": 181.60000000000002,
          "velocity": 0.8267716535433071
        },
        {
          "duration": 0.19999999999998863,
          "durationTicks": 240,
          "midi": 46,
          "name": "A#2",
          "ticks": 218160,
          "time": 181.8,
          "velocity": 0.8267716535433071
        },
        {
          "duration": 0.20000000000001705,
          "durationTicks": 240,
          "midi": 47,
          "name": "B2",
          "ticks": 218400,
          "time": 182,
          "velocity": 0.8267716535433071
        },
        {
          "duration": 0.19666666666665833,
          "durationTicks": 236,
          "midi": 44,
          "name": "G#2",
          "ticks": 218640,
          "time": 182.20000000000002,
          "velocity": 0.8267716535433071
        },
        {
          "duration": 0.19666666666668675,
          "durationTicks": 236,
          "midi": 45,
          "name": "A2",
          "ticks": 218880,
          "time": 182.4,
          "velocity": 0.8267716535433071
        },
        {
          "duration": 0.19999999999998863,
          "durationTicks": 240,
          "midi": 45,
          "name": "A2",
          "ticks": 219360,
          "time": 182.8,
          "velocity": 0.8267716535433071
        },
        {
          "duration": 0.20000000000001705,
          "durationTicks": 240,
          "midi": 44,
          "name": "G#2",
          "ticks": 219600,
          "time": 183,
          "velocity": 0.8267716535433071
        },
        {
          "duration": 0.19999999999998863,
          "durationTicks": 240,
          "midi": 45,
          "name": "A2",
          "ticks": 219840,
          "time": 183.20000000000002,
          "velocity": 0.8267716535433071
        },
        {
          "duration": 0.20000000000001705,
          "durationTicks": 240,
          "midi": 44,
          "name": "G#2",
          "ticks": 220080,
          "time": 183.4,
          "velocity": 0.8267716535433071
        },
        {
          "duration": 0.19999999999998863,
          "durationTicks": 240,
          "midi": 45,
          "name": "A2",
          "ticks": 220320,
          "time": 183.60000000000002,
          "velocity": 0.8267716535433071
        },
        {
          "duration": 0.19666666666665833,
          "durationTicks": 236,
          "midi": 42,
          "name": "F#2",
          "ticks": 220560,
          "time": 183.8,
          "velocity": 0.8267716535433071
        },
        {
          "duration": 0.19666666666668675,
          "durationTicks": 236,
          "midi": 43,
          "name": "G2",
          "ticks": 220800,
          "time": 184,
          "velocity": 0.8267716535433071
        },
        {
          "duration": 0.19666666666668675,
          "durationTicks": 236,
          "midi": 40,
          "name": "E2",
          "ticks": 221280,
          "time": 184.4,
          "velocity": 0.8267716535433071
        },
        {
          "duration": 0.19666666666665833,
          "durationTicks": 236,
          "midi": 40,
          "name": "E2",
          "ticks": 221520,
          "time": 184.60000000000002,
          "velocity": 0.8267716535433071
        },
        {
          "duration": 0.19666666666665833,
          "durationTicks": 236,
          "midi": 36,
          "name": "C2",
          "ticks": 221760,
          "time": 184.8,
          "velocity": 0.8267716535433071
        },
        {
          "duration": 0.19666666666668675,
          "durationTicks": 236,
          "midi": 36,
          "name": "C2",
          "ticks": 222000,
          "time": 185,
          "velocity": 0.8267716535433071
        },
        {
          "duration": 0.19666666666665833,
          "durationTicks": 236,
          "midi": 38,
          "name": "D2",
          "ticks": 222240,
          "time": 185.20000000000002,
          "velocity": 0.8267716535433071
        },
        {
          "duration": 0.19666666666668675,
          "durationTicks": 236,
          "midi": 38,
          "name": "D2",
          "ticks": 222480,
          "time": 185.4,
          "velocity": 0.8267716535433071
        },
        {
          "duration": 0.3333333333333144,
          "durationTicks": 400,
          "midi": 43,
          "name": "G2",
          "ticks": 222720,
          "time": 185.60000000000002,
          "velocity": 0.8267716535433071
        },
        {
          "duration": 0.3333333333333428,
          "durationTicks": 400,
          "midi": 43,
          "name": "G2",
          "ticks": 223200,
          "time": 186,
          "velocity": 0.8267716535433071
        },
        {
          "duration": 0.3333333333333144,
          "durationTicks": 400,
          "midi": 38,
          "name": "D2",
          "ticks": 224160,
          "time": 186.8,
          "velocity": 0.8267716535433071
        },
        {
          "duration": 0.3333333333333144,
          "durationTicks": 400,
          "midi": 43,
          "name": "G2",
          "ticks": 225120,
          "time": 187.60000000000002,
          "velocity": 0.8267716535433071
        },
        {
          "duration": 0.3333333333333428,
          "durationTicks": 400,
          "midi": 38,
          "name": "D2",
          "ticks": 226080,
          "time": 188.4,
          "velocity": 0.8267716535433071
        },
        {
          "duration": 0.3333333333333144,
          "durationTicks": 400,
          "midi": 43,
          "name": "G2",
          "ticks": 227040,
          "time": 189.20000000000002,
          "velocity": 0.8267716535433071
        },
        {
          "duration": 0.3333333333333428,
          "durationTicks": 400,
          "midi": 38,
          "name": "D2",
          "ticks": 228000,
          "time": 190,
          "velocity": 0.8267716535433071
        },
        {
          "duration": 0.3333333333333428,
          "durationTicks": 400,
          "midi": 43,
          "name": "G2",
          "ticks": 228480,
          "time": 190.4,
          "velocity": 0.8267716535433071
        },
        {
          "duration": 0.3333333333333144,
          "durationTicks": 400,
          "midi": 43,
          "name": "G2",
          "ticks": 228960,
          "time": 190.8,
          "velocity": 0.8267716535433071
        },
        {
          "duration": 0.3333333333333144,
          "durationTicks": 400,
          "midi": 31,
          "name": "G1",
          "ticks": 229440,
          "time": 191.20000000000002,
          "velocity": 0.8267716535433071
        },
        {
          "duration": 0.3333333333333428,
          "durationTicks": 400,
          "midi": 36,
          "name": "C2",
          "ticks": 230400,
          "time": 192,
          "velocity": 0.8267716535433071
        },
        {
          "duration": 0.06666666666666288,
          "durationTicks": 80,
          "midi": 31,
          "name": "G1",
          "ticks": 231120,
          "time": 192.60000000000002,
          "velocity": 0.8267716535433071
        },
        {
          "duration": 0.06666666666666288,
          "durationTicks": 80,
          "midi": 33,
          "name": "A1",
          "ticks": 231200,
          "time": 192.66666666666669,
          "velocity": 0.8267716535433071
        },
        {
          "duration": 0.06666666666666288,
          "durationTicks": 80,
          "midi": 35,
          "name": "B1",
          "ticks": 231280,
          "time": 192.73333333333335,
          "velocity": 0.8267716535433071
        },
        {
          "duration": 0.3333333333333144,
          "durationTicks": 400,
          "midi": 36,
          "name": "C2",
          "ticks": 231360,
          "time": 192.8,
          "velocity": 0.8267716535433071
        },
        {
          "duration": 0.0666666666666913,
          "durationTicks": 80,
          "midi": 31,
          "name": "G1",
          "ticks": 232080,
          "time": 193.4,
          "velocity": 0.8267716535433071
        },
        {
          "duration": 0.06666666666663446,
          "durationTicks": 80,
          "midi": 33,
          "name": "A1",
          "ticks": 232160,
          "time": 193.4666666666667,
          "velocity": 0.8267716535433071
        },
        {
          "duration": 0.0666666666666913,
          "durationTicks": 80,
          "midi": 35,
          "name": "B1",
          "ticks": 232240,
          "time": 193.53333333333333,
          "velocity": 0.8267716535433071
        },
        {
          "duration": 0.3333333333333144,
          "durationTicks": 400,
          "midi": 36,
          "name": "C2",
          "ticks": 232320,
          "time": 193.60000000000002,
          "velocity": 0.8267716535433071
        },
        {
          "duration": 0.799999999999983,
          "durationTicks": 960,
          "midi": 50,
          "name": "D3",
          "ticks": 234240,
          "time": 195.20000000000002,
          "velocity": 0.4015748031496063
        },
        {
          "duration": 0.700000000000017,
          "durationTicks": 840,
          "midi": 48,
          "name": "C3",
          "ticks": 235200,
          "time": 196,
          "velocity": 0.4015748031496063
        },
        {
          "duration": 1.0999999999999943,
          "durationTicks": 1320,
          "midi": 47,
          "name": "B2",
          "ticks": 236160,
          "time": 196.8,
          "velocity": 0.4015748031496063
        },
        {
          "duration": 0.3333333333333428,
          "durationTicks": 400,
          "midi": 43,
          "name": "G2",
          "ticks": 238080,
          "time": 198.4,
          "velocity": 0.8267716535433071
        },
        {
          "duration": 0.0666666666666913,
          "durationTicks": 80,
          "midi": 38,
          "name": "D2",
          "ticks": 238800,
          "time": 199,
          "velocity": 0.8267716535433071
        },
        {
          "duration": 0.06666666666663446,
          "durationTicks": 80,
          "midi": 40,
          "name": "E2",
          "ticks": 238880,
          "time": 199.0666666666667,
          "velocity": 0.8267716535433071
        },
        {
          "duration": 0.0666666666666913,
          "durationTicks": 80,
          "midi": 42,
          "name": "F#2",
          "ticks": 238960,
          "time": 199.13333333333333,
          "velocity": 0.8267716535433071
        },
        {
          "duration": 0.3333333333333144,
          "durationTicks": 400,
          "midi": 43,
          "name": "G2",
          "ticks": 239040,
          "time": 199.20000000000002,
          "velocity": 0.8267716535433071
        },
        {
          "duration": 0.06666666666666288,
          "durationTicks": 80,
          "midi": 38,
          "name": "D2",
          "ticks": 239760,
          "time": 199.8,
          "velocity": 0.8267716535433071
        },
        {
          "duration": 0.06666666666666288,
          "durationTicks": 80,
          "midi": 40,
          "name": "E2",
          "ticks": 239840,
          "time": 199.86666666666667,
          "velocity": 0.8267716535433071
        },
        {
          "duration": 0.06666666666666288,
          "durationTicks": 80,
          "midi": 42,
          "name": "F#2",
          "ticks": 239920,
          "time": 199.93333333333334,
          "velocity": 0.8267716535433071
        },
        {
          "duration": 0.3333333333333428,
          "durationTicks": 400,
          "midi": 43,
          "name": "G2",
          "ticks": 240000,
          "time": 200,
          "velocity": 0.8267716535433071
        },
        {
          "duration": 0.799999999999983,
          "durationTicks": 960,
          "midi": 52,
          "name": "E3",
          "ticks": 241920,
          "time": 201.60000000000002,
          "velocity": 0.4015748031496063
        },
        {
          "duration": 0.700000000000017,
          "durationTicks": 840,
          "midi": 50,
          "name": "D3",
          "ticks": 242880,
          "time": 202.4,
          "velocity": 0.4015748031496063
        },
        {
          "duration": 1.0999999999999943,
          "durationTicks": 1320,
          "midi": 48,
          "name": "C3",
          "ticks": 243840,
          "time": 203.20000000000002,
          "velocity": 0.4015748031496063
        },
        {
          "duration": 0.3333333333333428,
          "durationTicks": 400,
          "midi": 36,
          "name": "C2",
          "ticks": 245760,
          "time": 204.8,
          "velocity": 0.8267716535433071
        },
        {
          "duration": 0.33333333333337123,
          "durationTicks": 400,
          "midi": 48,
          "name": "C3",
          "ticks": 247200,
          "time": 206,
          "velocity": 0.8267716535433071
        },
        {
          "duration": 0.3333333333333428,
          "durationTicks": 400,
          "midi": 36,
          "name": "C2",
          "ticks": 247680,
          "time": 206.4,
          "velocity": 0.8267716535433071
        },
        {
          "duration": 0.3333333333333428,
          "durationTicks": 400,
          "midi": 48,
          "name": "C3",
          "ticks": 249120,
          "time": 207.60000000000002,
          "velocity": 0.8267716535433071
        },
        {
          "duration": 0.33333333333337123,
          "durationTicks": 400,
          "midi": 36,
          "name": "C2",
          "ticks": 249600,
          "time": 208,
          "velocity": 0.8267716535433071
        },
        {
          "duration": 0.3333333333333428,
          "durationTicks": 400,
          "midi": 48,
          "name": "C3",
          "ticks": 251040,
          "time": 209.20000000000002,
          "velocity": 0.8267716535433071
        },
        {
          "duration": 0.3333333333333428,
          "durationTicks": 400,
          "midi": 36,
          "name": "C2",
          "ticks": 251520,
          "time": 209.60000000000002,
          "velocity": 0.8267716535433071
        },
        {
          "duration": 0.3333333333333428,
          "durationTicks": 400,
          "midi": 48,
          "name": "C3",
          "ticks": 252960,
          "time": 210.8,
          "velocity": 0.8267716535433071
        },
        {
          "duration": 0.3333333333333428,
          "durationTicks": 400,
          "midi": 36,
          "name": "C2",
          "ticks": 253440,
          "time": 211.20000000000002,
          "velocity": 0.8267716535433071
        },
        {
          "duration": 0.3333333333333428,
          "durationTicks": 400,
          "midi": 48,
          "name": "C3",
          "ticks": 254880,
          "time": 212.4,
          "velocity": 0.8267716535433071
        },
        {
          "duration": 0.3333333333333428,
          "durationTicks": 400,
          "midi": 36,
          "name": "C2",
          "ticks": 255360,
          "time": 212.8,
          "velocity": 0.8267716535433071
        },
        {
          "duration": 0.33333333333337123,
          "durationTicks": 400,
          "midi": 48,
          "name": "C3",
          "ticks": 256800,
          "time": 214,
          "velocity": 0.8267716535433071
        },
        {
          "duration": 0.3333333333333428,
          "durationTicks": 400,
          "midi": 36,
          "name": "C2",
          "ticks": 257280,
          "time": 214.4,
          "velocity": 0.8267716535433071
        },
        {
          "duration": 0.3333333333333428,
          "durationTicks": 400,
          "midi": 43,
          "name": "G2",
          "ticks": 258240,
          "time": 215.20000000000002,
          "velocity": 0.8267716535433071
        },
        {
          "duration": 0.33333333333337123,
          "durationTicks": 400,
          "midi": 48,
          "name": "C3",
          "ticks": 259200,
          "time": 216,
          "velocity": 0.8267716535433071
        },
        {
          "duration": 0.3333333333333428,
          "durationTicks": 400,
          "midi": 43,
          "name": "G2",
          "ticks": 260160,
          "time": 216.8,
          "velocity": 0.8267716535433071
        },
        {
          "duration": 0.3333333333333428,
          "durationTicks": 400,
          "midi": 36,
          "name": "C2",
          "ticks": 261120,
          "time": 217.60000000000002,
          "velocity": 0.8267716535433071
        },
        {
          "duration": 0.19666666666668675,
          "durationTicks": 236,
          "midi": 43,
          "name": "G2",
          "ticks": 261600,
          "time": 218,
          "velocity": 0.8267716535433071
        },
        {
          "duration": 0.19666666666665833,
          "durationTicks": 236,
          "midi": 43,
          "name": "G2",
          "ticks": 261840,
          "time": 218.20000000000002,
          "velocity": 0.8267716535433071
        },
        {
          "duration": 0.19666666666668675,
          "durationTicks": 236,
          "midi": 48,
          "name": "C3",
          "ticks": 262080,
          "time": 218.4,
          "velocity": 0.8267716535433071
        },
        {
          "duration": 0.19666666666665833,
          "durationTicks": 236,
          "midi": 48,
          "name": "C3",
          "ticks": 262320,
          "time": 218.60000000000002,
          "velocity": 0.8267716535433071
        },
        {
          "duration": 0.19666666666665833,
          "durationTicks": 236,
          "midi": 43,
          "name": "G2",
          "ticks": 262560,
          "time": 218.8,
          "velocity": 0.8267716535433071
        },
        {
          "duration": 0.19666666666668675,
          "durationTicks": 236,
          "midi": 43,
          "name": "G2",
          "ticks": 262800,
          "time": 219,
          "velocity": 0.8267716535433071
        },
        {
          "duration": 0.19666666666665833,
          "durationTicks": 236,
          "midi": 48,
          "name": "C3",
          "ticks": 263040,
          "time": 219.20000000000002,
          "velocity": 0.8267716535433071
        },
        {
          "duration": 0.19666666666668675,
          "durationTicks": 236,
          "midi": 48,
          "name": "C3",
          "ticks": 263280,
          "time": 219.4,
          "velocity": 0.8267716535433071
        },
        {
          "duration": 0.19666666666665833,
          "durationTicks": 236,
          "midi": 43,
          "name": "G2",
          "ticks": 263520,
          "time": 219.60000000000002,
          "velocity": 0.8267716535433071
        },
        {
          "duration": 0.19666666666665833,
          "durationTicks": 236,
          "midi": 43,
          "name": "G2",
          "ticks": 263760,
          "time": 219.8,
          "velocity": 0.8267716535433071
        },
        {
          "duration": 0.19666666666668675,
          "durationTicks": 236,
          "midi": 40,
          "name": "E2",
          "ticks": 264000,
          "time": 220,
          "velocity": 0.8267716535433071
        },
        {
          "duration": 0.19666666666665833,
          "durationTicks": 236,
          "midi": 40,
          "name": "E2",
          "ticks": 264240,
          "time": 220.20000000000002,
          "velocity": 0.8267716535433071
        },
        {
          "duration": 0.19666666666668675,
          "durationTicks": 236,
          "midi": 36,
          "name": "C2",
          "ticks": 264480,
          "time": 220.4,
          "velocity": 0.8267716535433071
        },
        {
          "duration": 0.19666666666665833,
          "durationTicks": 236,
          "midi": 36,
          "name": "C2",
          "ticks": 264720,
          "time": 220.60000000000002,
          "velocity": 0.8267716535433071
        },
        {
          "duration": 0.3333333333333428,
          "durationTicks": 400,
          "midi": 31,
          "name": "G1",
          "ticks": 264960,
          "time": 220.8,
          "velocity": 0.8267716535433071
        },
        {
          "duration": 0.19666666666668675,
          "durationTicks": 236,
          "midi": 43,
          "name": "G2",
          "ticks": 265680,
          "time": 221.4,
          "velocity": 0.8267716535433071
        },
        {
          "duration": 0.3333333333333428,
          "durationTicks": 400,
          "midi": 48,
          "name": "C3",
          "ticks": 265920,
          "time": 221.60000000000002,
          "velocity": 0.8267716535433071
        },
        {
          "duration": 0.19666666666665833,
          "durationTicks": 236,
          "midi": 48,
          "name": "C3",
          "ticks": 266640,
          "time": 222.20000000000002,
          "velocity": 0.8267716535433071
        },
        {
          "duration": 0.3333333333333428,
          "durationTicks": 400,
          "midi": 43,
          "name": "G2",
          "ticks": 266880,
          "time": 222.4,
          "velocity": 0.8267716535433071
        },
        {
          "duration": 0.19666666666668675,
          "durationTicks": 236,
          "midi": 43,
          "name": "G2",
          "ticks": 267600,
          "time": 223,
          "velocity": 0.8267716535433071
        },
        {
          "duration": 0.3333333333333428,
          "durationTicks": 400,
          "midi": 48,
          "name": "C3",
          "ticks": 267840,
          "time": 223.20000000000002,
          "velocity": 0.8267716535433071
        },
        {
          "duration": 0.19666666666665833,
          "durationTicks": 236,
          "midi": 48,
          "name": "C3",
          "ticks": 268560,
          "time": 223.8,
          "velocity": 0.8267716535433071
        },
        {
          "duration": 0.19666666666668675,
          "durationTicks": 236,
          "midi": 43,
          "name": "G2",
          "ticks": 268800,
          "time": 224,
          "velocity": 0.8267716535433071
        },
        {
          "duration": 0.19666666666665833,
          "durationTicks": 236,
          "midi": 48,
          "name": "C3",
          "ticks": 269040,
          "time": 224.20000000000002,
          "velocity": 0.8346456692913385
        },
        {
          "duration": 0.19666666666668675,
          "durationTicks": 236,
          "midi": 43,
          "name": "G2",
          "ticks": 269280,
          "time": 224.4,
          "velocity": 0.8503937007874016
        },
        {
          "duration": 0.19666666666665833,
          "durationTicks": 236,
          "midi": 48,
          "name": "C3",
          "ticks": 269520,
          "time": 224.60000000000002,
          "velocity": 0.8582677165354331
        },
        {
          "duration": 0.19666666666665833,
          "durationTicks": 236,
          "midi": 43,
          "name": "G2",
          "ticks": 269760,
          "time": 224.8,
          "velocity": 0.8661417322834646
        },
        {
          "duration": 0.19666666666668675,
          "durationTicks": 236,
          "midi": 48,
          "name": "C3",
          "ticks": 270000,
          "time": 225,
          "velocity": 0.8740157480314961
        },
        {
          "duration": 0.19666666666665833,
          "durationTicks": 236,
          "midi": 43,
          "name": "G2",
          "ticks": 270240,
          "time": 225.20000000000002,
          "velocity": 0.8818897637795275
        },
        {
          "duration": 0.19666666666668675,
          "durationTicks": 236,
          "midi": 48,
          "name": "C3",
          "ticks": 270480,
          "time": 225.4,
          "velocity": 0.889763779527559
        },
        {
          "duration": 0.3333333333333428,
          "durationTicks": 400,
          "midi": 43,
          "name": "G2",
          "ticks": 270720,
          "time": 225.60000000000002,
          "velocity": 0.905511811023622
        },
        {
          "duration": 0.33333333333337123,
          "durationTicks": 400,
          "midi": 43,
          "name": "G2",
          "ticks": 271200,
          "time": 226,
          "velocity": 0.9212598425196851
        },
        {
          "duration": 0.3333333333333428,
          "durationTicks": 400,
          "midi": 31,
          "name": "G1",
          "ticks": 271680,
          "time": 226.4,
          "velocity": 0.937007874015748
        },
        {
          "duration": 0.3333333333333428,
          "durationTicks": 400,
          "midi": 31,
          "name": "G1",
          "ticks": 272160,
          "time": 226.8,
          "velocity": 0.952755905511811
        },
        {
          "duration": 1.5,
          "durationTicks": 1800,
          "midi": 31,
          "name": "G1",
          "ticks": 272640,
          "time": 227.20000000000002,
          "velocity": 0.9763779527559056
        },
        {
          "duration": 0.8000000000000114,
          "durationTicks": 960,
          "midi": 45,
          "name": "A2",
          "ticks": 295680,
          "time": 246.4,
          "velocity": 0.4015748031496063
        },
        {
          "duration": 0.6999999999999886,
          "durationTicks": 840,
          "midi": 43,
          "name": "G2",
          "ticks": 296640,
          "time": 247.20000000000002,
          "velocity": 0.4015748031496063
        },
        {
          "duration": 1.200000000000017,
          "durationTicks": 1440,
          "midi": 41,
          "name": "F2",
          "ticks": 297600,
          "time": 248,
          "velocity": 0.4015748031496063
        },
        {
          "duration": 0.3333333333333428,
          "durationTicks": 400,
          "midi": 42,
          "name": "F#2",
          "ticks": 299040,
          "time": 249.20000000000002,
          "velocity": 0.4015748031496063
        },
        {
          "duration": 0.3333333333333428,
          "durationTicks": 400,
          "midi": 43,
          "name": "G2",
          "ticks": 299520,
          "time": 249.60000000000002,
          "velocity": 0.8267716535433071
        },
        {
          "duration": 0.06666666666663446,
          "durationTicks": 80,
          "midi": 38,
          "name": "D2",
          "ticks": 300240,
          "time": 250.20000000000002,
          "velocity": 0.8267716535433071
        },
        {
          "duration": 0.06666666666671972,
          "durationTicks": 80,
          "midi": 40,
          "name": "E2",
          "ticks": 300320,
          "time": 250.26666666666665,
          "velocity": 0.8267716535433071
        },
        {
          "duration": 0.06666666666663446,
          "durationTicks": 80,
          "midi": 42,
          "name": "F#2",
          "ticks": 300400,
          "time": 250.33333333333337,
          "velocity": 0.8267716535433071
        },
        {
          "duration": 0.3333333333333428,
          "durationTicks": 400,
          "midi": 43,
          "name": "G2",
          "ticks": 300480,
          "time": 250.4,
          "velocity": 0.8267716535433071
        },
        {
          "duration": 0.06666666666666288,
          "durationTicks": 80,
          "midi": 38,
          "name": "D2",
          "ticks": 301200,
          "time": 251,
          "velocity": 0.8267716535433071
        },
        {
          "duration": 0.0666666666666913,
          "durationTicks": 80,
          "midi": 40,
          "name": "E2",
          "ticks": 301280,
          "time": 251.06666666666666,
          "velocity": 0.8267716535433071
        },
        {
          "duration": 0.06666666666666288,
          "durationTicks": 80,
          "midi": 42,
          "name": "F#2",
          "ticks": 301360,
          "time": 251.13333333333335,
          "velocity": 0.8267716535433071
        },
        {
          "duration": 0.3333333333333428,
          "durationTicks": 400,
          "midi": 43,
          "name": "G2",
          "ticks": 301440,
          "time": 251.20000000000002,
          "velocity": 0.8267716535433071
        },
        {
          "duration": 0.19666666666665833,
          "durationTicks": 236,
          "midi": 47,
          "name": "B2",
          "ticks": 303120,
          "time": 252.60000000000002,
          "velocity": 0.8267716535433071
        },
        {
          "duration": 0.19999999999998863,
          "durationTicks": 240,
          "midi": 43,
          "name": "G2",
          "ticks": 303360,
          "time": 252.8,
          "velocity": 0.8267716535433071
        },
        {
          "duration": 0.20000000000001705,
          "durationTicks": 240,
          "midi": 43,
          "name": "G2",
          "ticks": 303600,
          "time": 253,
          "velocity": 0.8267716535433071
        },
        {
          "duration": 0.19999999999998863,
          "durationTicks": 240,
          "midi": 43,
          "name": "G2",
          "ticks": 303840,
          "time": 253.20000000000002,
          "velocity": 0.8267716535433071
        },
        {
          "duration": 0.19666666666668675,
          "durationTicks": 236,
          "midi": 43,
          "name": "G2",
          "ticks": 304080,
          "time": 253.4,
          "velocity": 0.8267716535433071
        },
        {
          "duration": 0.19999999999998863,
          "durationTicks": 240,
          "midi": 43,
          "name": "G2",
          "ticks": 304320,
          "time": 253.60000000000002,
          "velocity": 0.8267716535433071
        },
        {
          "duration": 0.19999999999998863,
          "durationTicks": 240,
          "midi": 43,
          "name": "G2",
          "ticks": 304560,
          "time": 253.8,
          "velocity": 0.8267716535433071
        },
        {
          "duration": 0.20000000000001705,
          "durationTicks": 240,
          "midi": 43,
          "name": "G2",
          "ticks": 304800,
          "time": 254,
          "velocity": 0.8267716535433071
        },
        {
          "duration": 0.19666666666665833,
          "durationTicks": 236,
          "midi": 43,
          "name": "G2",
          "ticks": 305040,
          "time": 254.20000000000002,
          "velocity": 0.8267716535433071
        },
        {
          "duration": 0.20000000000001705,
          "durationTicks": 240,
          "midi": 43,
          "name": "G2",
          "ticks": 305280,
          "time": 254.4,
          "velocity": 0.8267716535433071
        },
        {
          "duration": 0.19999999999998863,
          "durationTicks": 240,
          "midi": 43,
          "name": "G2",
          "ticks": 305520,
          "time": 254.60000000000002,
          "velocity": 0.8267716535433071
        },
        {
          "duration": 0.19999999999998863,
          "durationTicks": 240,
          "midi": 43,
          "name": "G2",
          "ticks": 305760,
          "time": 254.8,
          "velocity": 0.8267716535433071
        },
        {
          "duration": 0.20000000000001705,
          "durationTicks": 240,
          "midi": 43,
          "name": "G2",
          "ticks": 306000,
          "time": 255,
          "velocity": 0.8267716535433071
        },
        {
          "duration": 0.19666666666665833,
          "durationTicks": 236,
          "midi": 43,
          "name": "G2",
          "ticks": 306240,
          "time": 255.20000000000002,
          "velocity": 0.8267716535433071
        },
        {
          "duration": 0.19666666666668675,
          "durationTicks": 236,
          "midi": 43,
          "name": "G2",
          "ticks": 306480,
          "time": 255.4,
          "velocity": 0.8267716535433071
        },
        {
          "duration": 0.19666666666665833,
          "durationTicks": 236,
          "midi": 43,
          "name": "G2",
          "ticks": 306720,
          "time": 255.60000000000002,
          "velocity": 0.8267716535433071
        },
        {
          "duration": 0.19666666666665833,
          "durationTicks": 236,
          "midi": 43,
          "name": "G2",
          "ticks": 306960,
          "time": 255.8,
          "velocity": 0.8267716535433071
        },
        {
          "duration": 0.19999999999998863,
          "durationTicks": 240,
          "midi": 43,
          "name": "G2",
          "ticks": 307200,
          "time": 256,
          "velocity": 0.8267716535433071
        },
        {
          "duration": 0.20000000000004547,
          "durationTicks": 240,
          "midi": 43,
          "name": "G2",
          "ticks": 307440,
          "time": 256.2,
          "velocity": 0.8267716535433071
        },
        {
          "duration": 0.19999999999998863,
          "durationTicks": 240,
          "midi": 43,
          "name": "G2",
          "ticks": 307680,
          "time": 256.40000000000003,
          "velocity": 0.8267716535433071
        },
        {
          "duration": 0.19666666666665833,
          "durationTicks": 236,
          "midi": 43,
          "name": "G2",
          "ticks": 307920,
          "time": 256.6,
          "velocity": 0.8267716535433071
        },
        {
          "duration": 0.19999999999998863,
          "durationTicks": 240,
          "midi": 43,
          "name": "G2",
          "ticks": 308160,
          "time": 256.8,
          "velocity": 0.8267716535433071
        },
        {
          "duration": 0.19999999999998863,
          "durationTicks": 240,
          "midi": 43,
          "name": "G2",
          "ticks": 308400,
          "time": 257,
          "velocity": 0.8267716535433071
        },
        {
          "duration": 0.20000000000004547,
          "durationTicks": 240,
          "midi": 43,
          "name": "G2",
          "ticks": 308640,
          "time": 257.2,
          "velocity": 0.8267716535433071
        },
        {
          "duration": 0.19666666666665833,
          "durationTicks": 236,
          "midi": 43,
          "name": "G2",
          "ticks": 308880,
          "time": 257.40000000000003,
          "velocity": 0.8267716535433071
        },
        {
          "duration": 0.19999999999998863,
          "durationTicks": 240,
          "midi": 43,
          "name": "G2",
          "ticks": 309120,
          "time": 257.6,
          "velocity": 0.8267716535433071
        },
        {
          "duration": 0.19999999999998863,
          "durationTicks": 240,
          "midi": 43,
          "name": "G2",
          "ticks": 309360,
          "time": 257.8,
          "velocity": 0.8267716535433071
        },
        {
          "duration": 0.19999999999998863,
          "durationTicks": 240,
          "midi": 43,
          "name": "G2",
          "ticks": 309600,
          "time": 258,
          "velocity": 0.8267716535433071
        },
        {
          "duration": 0.20000000000004547,
          "durationTicks": 240,
          "midi": 43,
          "name": "G2",
          "ticks": 309840,
          "time": 258.2,
          "velocity": 0.8267716535433071
        },
        {
          "duration": 0.19666666666665833,
          "durationTicks": 236,
          "midi": 43,
          "name": "G2",
          "ticks": 310080,
          "time": 258.40000000000003,
          "velocity": 0.8267716535433071
        },
        {
          "duration": 0.19666666666665833,
          "durationTicks": 236,
          "midi": 43,
          "name": "G2",
          "ticks": 310320,
          "time": 258.6,
          "velocity": 0.8267716535433071
        },
        {
          "duration": 0.19666666666665833,
          "durationTicks": 236,
          "midi": 43,
          "name": "G2",
          "ticks": 310560,
          "time": 258.8,
          "velocity": 0.8267716535433071
        },
        {
          "duration": 0.19666666666665833,
          "durationTicks": 236,
          "midi": 43,
          "name": "G2",
          "ticks": 310800,
          "time": 259,
          "velocity": 0.8267716535433071
        },
        {
          "duration": 0.20000000000004547,
          "durationTicks": 240,
          "midi": 43,
          "name": "G2",
          "ticks": 311040,
          "time": 259.2,
          "velocity": 0.8267716535433071
        },
        {
          "duration": 0.19999999999998863,
          "durationTicks": 240,
          "midi": 43,
          "name": "G2",
          "ticks": 311280,
          "time": 259.40000000000003,
          "velocity": 0.8267716535433071
        },
        {
          "duration": 0.19999999999998863,
          "durationTicks": 240,
          "midi": 43,
          "name": "G2",
          "ticks": 311520,
          "time": 259.6,
          "velocity": 0.8267716535433071
        },
        {
          "duration": 0.19666666666665833,
          "durationTicks": 236,
          "midi": 43,
          "name": "G2",
          "ticks": 311760,
          "time": 259.8,
          "velocity": 0.8267716535433071
        },
        {
          "duration": 0.19999999999998863,
          "durationTicks": 240,
          "midi": 43,
          "name": "G2",
          "ticks": 312000,
          "time": 260,
          "velocity": 0.8267716535433071
        },
        {
          "duration": 0.20000000000004547,
          "durationTicks": 240,
          "midi": 43,
          "name": "G2",
          "ticks": 312240,
          "time": 260.2,
          "velocity": 0.8267716535433071
        },
        {
          "duration": 0.19999999999998863,
          "durationTicks": 240,
          "midi": 43,
          "name": "G2",
          "ticks": 312480,
          "time": 260.40000000000003,
          "velocity": 0.8267716535433071
        },
        {
          "duration": 0.19666666666665833,
          "durationTicks": 236,
          "midi": 43,
          "name": "G2",
          "ticks": 312720,
          "time": 260.6,
          "velocity": 0.8267716535433071
        },
        {
          "duration": 0.19999999999998863,
          "durationTicks": 240,
          "midi": 43,
          "name": "G2",
          "ticks": 312960,
          "time": 260.8,
          "velocity": 0.8267716535433071
        },
        {
          "duration": 0.19999999999998863,
          "durationTicks": 240,
          "midi": 43,
          "name": "G2",
          "ticks": 313200,
          "time": 261,
          "velocity": 0.8267716535433071
        },
        {
          "duration": 0.20000000000004547,
          "durationTicks": 240,
          "midi": 43,
          "name": "G2",
          "ticks": 313440,
          "time": 261.2,
          "velocity": 0.8267716535433071
        },
        {
          "duration": 0.19999999999998863,
          "durationTicks": 240,
          "midi": 43,
          "name": "G2",
          "ticks": 313680,
          "time": 261.40000000000003,
          "velocity": 0.8267716535433071
        },
        {
          "duration": 0.19666666666665833,
          "durationTicks": 236,
          "midi": 43,
          "name": "G2",
          "ticks": 313920,
          "time": 261.6,
          "velocity": 0.8267716535433071
        },
        {
          "duration": 0.19666666666665833,
          "durationTicks": 236,
          "midi": 43,
          "name": "G2",
          "ticks": 314160,
          "time": 261.8,
          "velocity": 0.8267716535433071
        },
        {
          "duration": 0.19666666666665833,
          "durationTicks": 236,
          "midi": 43,
          "name": "G2",
          "ticks": 314400,
          "time": 262,
          "velocity": 0.8267716535433071
        },
        {
          "duration": 0.19666666666671517,
          "durationTicks": 236,
          "midi": 43,
          "name": "G2",
          "ticks": 314640,
          "time": 262.2,
          "velocity": 0.8267716535433071
        },
        {
          "duration": 0.19999999999998863,
          "durationTicks": 240,
          "midi": 43,
          "name": "G2",
          "ticks": 314880,
          "time": 262.40000000000003,
          "velocity": 0.8267716535433071
        },
        {
          "duration": 0.19999999999998863,
          "durationTicks": 240,
          "midi": 43,
          "name": "G2",
          "ticks": 315120,
          "time": 262.6,
          "velocity": 0.8267716535433071
        },
        {
          "duration": 0.19999999999998863,
          "durationTicks": 240,
          "midi": 43,
          "name": "G2",
          "ticks": 315360,
          "time": 262.8,
          "velocity": 0.8267716535433071
        },
        {
          "duration": 0.19999999999998863,
          "durationTicks": 240,
          "midi": 43,
          "name": "G2",
          "ticks": 315600,
          "time": 263,
          "velocity": 0.8267716535433071
        },
        {
          "duration": 0.19666666666671517,
          "durationTicks": 236,
          "midi": 43,
          "name": "G2",
          "ticks": 315840,
          "time": 263.2,
          "velocity": 0.8267716535433071
        },
        {
          "duration": 0.19666666666665833,
          "durationTicks": 236,
          "midi": 43,
          "name": "G2",
          "ticks": 316080,
          "time": 263.40000000000003,
          "velocity": 0.8267716535433071
        },
        {
          "duration": 0.19666666666665833,
          "durationTicks": 236,
          "midi": 43,
          "name": "G2",
          "ticks": 316320,
          "time": 263.6,
          "velocity": 0.8267716535433071
        },
        {
          "duration": 0.19666666666665833,
          "durationTicks": 236,
          "midi": 43,
          "name": "G2",
          "ticks": 316560,
          "time": 263.8,
          "velocity": 0.8267716535433071
        },
        {
          "duration": 0.19999999999998863,
          "durationTicks": 240,
          "midi": 43,
          "name": "G2",
          "ticks": 316800,
          "time": 264,
          "velocity": 0.8267716535433071
        },
        {
          "duration": 0.20000000000004547,
          "durationTicks": 240,
          "midi": 43,
          "name": "G2",
          "ticks": 317040,
          "time": 264.2,
          "velocity": 0.8267716535433071
        },
        {
          "duration": 0.19999999999998863,
          "durationTicks": 240,
          "midi": 43,
          "name": "G2",
          "ticks": 317280,
          "time": 264.40000000000003,
          "velocity": 0.8267716535433071
        },
        {
          "duration": 0.19999999999998863,
          "durationTicks": 240,
          "midi": 43,
          "name": "G2",
          "ticks": 317520,
          "time": 264.6,
          "velocity": 0.8267716535433071
        },
        {
          "duration": 0.19666666666665833,
          "durationTicks": 236,
          "midi": 43,
          "name": "G2",
          "ticks": 317760,
          "time": 264.8,
          "velocity": 0.8267716535433071
        },
        {
          "duration": 0.19666666666665833,
          "durationTicks": 236,
          "midi": 43,
          "name": "G2",
          "ticks": 318000,
          "time": 265,
          "velocity": 0.8267716535433071
        },
        {
          "duration": 0.19666666666671517,
          "durationTicks": 236,
          "midi": 43,
          "name": "G2",
          "ticks": 318240,
          "time": 265.2,
          "velocity": 0.8267716535433071
        },
        {
          "duration": 0.19666666666665833,
          "durationTicks": 236,
          "midi": 43,
          "name": "G2",
          "ticks": 318480,
          "time": 265.40000000000003,
          "velocity": 0.8267716535433071
        },
        {
          "duration": 0.19666666666665833,
          "durationTicks": 236,
          "midi": 48,
          "name": "C3",
          "ticks": 318720,
          "time": 265.6,
          "velocity": 0.8267716535433071
        },
        {
          "duration": 0.19666666666665833,
          "durationTicks": 236,
          "midi": 48,
          "name": "C3",
          "ticks": 318960,
          "time": 265.8,
          "velocity": 0.8267716535433071
        },
        {
          "duration": 0.19666666666665833,
          "durationTicks": 236,
          "midi": 47,
          "name": "B2",
          "ticks": 319200,
          "time": 266,
          "velocity": 0.8267716535433071
        },
        {
          "duration": 0.19666666666671517,
          "durationTicks": 236,
          "midi": 47,
          "name": "B2",
          "ticks": 319440,
          "time": 266.2,
          "velocity": 0.8267716535433071
        },
        {
          "duration": 0.19666666666665833,
          "durationTicks": 236,
          "midi": 48,
          "name": "C3",
          "ticks": 319680,
          "time": 266.40000000000003,
          "velocity": 0.8267716535433071
        },
        {
          "duration": 0.19666666666665833,
          "durationTicks": 236,
          "midi": 48,
          "name": "C3",
          "ticks": 319920,
          "time": 266.6,
          "velocity": 0.8267716535433071
        },
        {
          "duration": 0.19666666666665833,
          "durationTicks": 236,
          "midi": 47,
          "name": "B2",
          "ticks": 320160,
          "time": 266.8,
          "velocity": 0.8267716535433071
        },
        {
          "duration": 0.19666666666665833,
          "durationTicks": 236,
          "midi": 47,
          "name": "B2",
          "ticks": 320400,
          "time": 267,
          "velocity": 0.8267716535433071
        },
        {
          "duration": 1.1000000000000227,
          "durationTicks": 1320,
          "midi": 48,
          "name": "C3",
          "ticks": 320640,
          "time": 267.2,
          "velocity": 0.8267716535433071
        },
        {
          "duration": 0.3333333333333144,
          "durationTicks": 400,
          "midi": 49,
          "name": "C#3",
          "ticks": 322080,
          "time": 268.40000000000003,
          "velocity": 0.8267716535433071
        },
        {
          "duration": 0.33333333333337123,
          "durationTicks": 400,
          "midi": 50,
          "name": "D3",
          "ticks": 322560,
          "time": 268.8,
          "velocity": 0.8267716535433071
        },
        {
          "duration": 0.33333333333337123,
          "durationTicks": 400,
          "midi": 50,
          "name": "D3",
          "ticks": 324000,
          "time": 270,
          "velocity": 0.8267716535433071
        },
        {
          "duration": 0.3333333333333144,
          "durationTicks": 400,
          "midi": 38,
          "name": "D2",
          "ticks": 324480,
          "time": 270.40000000000003,
          "velocity": 0.8267716535433071
        },
        {
          "duration": 0.3333333333333144,
          "durationTicks": 400,
          "midi": 50,
          "name": "D3",
          "ticks": 325920,
          "time": 271.6,
          "velocity": 0.8267716535433071
        },
        {
          "duration": 0.33333333333337123,
          "durationTicks": 400,
          "midi": 38,
          "name": "D2",
          "ticks": 326400,
          "time": 272,
          "velocity": 0.8267716535433071
        },
        {
          "duration": 0.33333333333337123,
          "durationTicks": 400,
          "midi": 50,
          "name": "D3",
          "ticks": 327840,
          "time": 273.2,
          "velocity": 0.8267716535433071
        },
        {
          "duration": 0.3333333333333144,
          "durationTicks": 400,
          "midi": 38,
          "name": "D2",
          "ticks": 328320,
          "time": 273.6,
          "velocity": 0.8267716535433071
        },
        {
          "duration": 0.33333333333337123,
          "durationTicks": 400,
          "midi": 50,
          "name": "D3",
          "ticks": 329760,
          "time": 274.8,
          "velocity": 0.8267716535433071
        },
        {
          "duration": 0.33333333333337123,
          "durationTicks": 400,
          "midi": 38,
          "name": "D2",
          "ticks": 330240,
          "time": 275.2,
          "velocity": 0.8267716535433071
        },
        {
          "duration": 0.33333333333337123,
          "durationTicks": 400,
          "midi": 50,
          "name": "D3",
          "ticks": 331200,
          "time": 276,
          "velocity": 0.8267716535433071
        },
        {
          "duration": 0.33333333333337123,
          "durationTicks": 400,
          "midi": 38,
          "name": "D2",
          "ticks": 332160,
          "time": 276.8,
          "velocity": 0.8267716535433071
        },
        {
          "duration": 0.3333333333333144,
          "durationTicks": 400,
          "midi": 50,
          "name": "D3",
          "ticks": 333120,
          "time": 277.6,
          "velocity": 0.8267716535433071
        },
        {
          "duration": 0.3333333333333144,
          "durationTicks": 400,
          "midi": 38,
          "name": "D2",
          "ticks": 334080,
          "time": 278.40000000000003,
          "velocity": 0.8267716535433071
        },
        {
          "duration": 1.2000000000000455,
          "durationTicks": 1440,
          "midi": 45,
          "name": "A2",
          "ticks": 339840,
          "time": 283.2,
          "velocity": 0.4015748031496063
        },
        {
          "duration": 0.39999999999997726,
          "durationTicks": 480,
          "midi": 46,
          "name": "A#2",
          "ticks": 341280,
          "time": 284.40000000000003,
          "velocity": 0.4015748031496063
        },
        {
          "duration": 0.33333333333337123,
          "durationTicks": 400,
          "midi": 47,
          "name": "B2",
          "ticks": 341760,
          "time": 284.8,
          "velocity": 0.4015748031496063
        },
        {
          "duration": 0.3333333333333144,
          "durationTicks": 400,
          "midi": 42,
          "name": "F#2",
          "ticks": 343680,
          "time": 286.40000000000003,
          "velocity": 0.4015748031496063
        },
        {
          "duration": 0.33333333333337123,
          "durationTicks": 400,
          "midi": 43,
          "name": "G2",
          "ticks": 344640,
          "time": 287.2,
          "velocity": 0.4015748031496063
        },
        {
          "duration": 0.33333333333337123,
          "durationTicks": 400,
          "midi": 38,
          "name": "D2",
          "ticks": 345600,
          "time": 288,
          "velocity": 0.4015748031496063
        },
        {
          "duration": 1.1999999999999886,
          "durationTicks": 1440,
          "midi": 45,
          "name": "A2",
          "ticks": 351360,
          "time": 292.8,
          "velocity": 0.4015748031496063
        },
        {
          "duration": 0.4000000000000341,
          "durationTicks": 480,
          "midi": 46,
          "name": "A#2",
          "ticks": 352800,
          "time": 294,
          "velocity": 0.4015748031496063
        },
        {
          "duration": 0.3333333333333144,
          "durationTicks": 400,
          "midi": 47,
          "name": "B2",
          "ticks": 353280,
          "time": 294.40000000000003,
          "velocity": 0.4015748031496063
        },
        {
          "duration": 0.33333333333337123,
          "durationTicks": 400,
          "midi": 42,
          "name": "F#2",
          "ticks": 355200,
          "time": 296,
          "velocity": 0.4015748031496063
        },
        {
          "duration": 0.33333333333337123,
          "durationTicks": 400,
          "midi": 43,
          "name": "G2",
          "ticks": 356160,
          "time": 296.8,
          "velocity": 0.4015748031496063
        },
        {
          "duration": 1.599999999999966,
          "durationTicks": 1920,
          "midi": 36,
          "name": "C2",
          "ticks": 357120,
          "time": 297.6,
          "velocity": 0.4015748031496063
        },
        {
          "duration": 0.33333333333337123,
          "durationTicks": 400,
          "midi": 35,
          "name": "B1",
          "ticks": 359040,
          "time": 299.2,
          "velocity": 0.4015748031496063
        },
        {
          "duration": 0.33333333333337123,
          "durationTicks": 400,
          "midi": 39,
          "name": "D#2",
          "ticks": 360000,
          "time": 300,
          "velocity": 0.4015748031496063
        },
        {
          "duration": 1.1999999999999886,
          "durationTicks": 1440,
          "midi": 40,
          "name": "E2",
          "ticks": 360960,
          "time": 300.8,
          "velocity": 0.4015748031496063
        },
        {
          "duration": 0.33333333333337123,
          "durationTicks": 400,
          "midi": 36,
          "name": "C2",
          "ticks": 362400,
          "time": 302,
          "velocity": 0.4015748031496063
        },
        {
          "duration": 0.3333333333333144,
          "durationTicks": 400,
          "midi": 38,
          "name": "D2",
          "ticks": 362880,
          "time": 302.40000000000003,
          "velocity": 0.4015748031496063
        },
        {
          "duration": 0.33333333333337123,
          "durationTicks": 400,
          "midi": 38,
          "name": "D2",
          "ticks": 363360,
          "time": 302.8,
          "velocity": 0.4015748031496063
        },
        {
          "duration": 0.33333333333337123,
          "durationTicks": 400,
          "midi": 38,
          "name": "D2",
          "ticks": 363840,
          "time": 303.2,
          "velocity": 0.4015748031496063
        },
        {
          "duration": 0.3333333333333144,
          "durationTicks": 400,
          "midi": 38,
          "name": "D2",
          "ticks": 364320,
          "time": 303.6,
          "velocity": 0.4015748031496063
        },
        {
          "duration": 0.6000000000000227,
          "durationTicks": 720,
          "midi": 43,
          "name": "G2",
          "ticks": 364800,
          "time": 304,
          "velocity": 0.4015748031496063
        },
        {
          "duration": 0.19666666666665833,
          "durationTicks": 236,
          "midi": 42,
          "name": "F#2",
          "ticks": 365520,
          "time": 304.6,
          "velocity": 0.4015748031496063
        },
        {
          "duration": 0.6000000000000227,
          "durationTicks": 720,
          "midi": 47,
          "name": "B2",
          "ticks": 365760,
          "time": 304.8,
          "velocity": 0.4015748031496063
        },
        {
          "duration": 0.19666666666665833,
          "durationTicks": 236,
          "midi": 45,
          "name": "A2",
          "ticks": 366480,
          "time": 305.40000000000003,
          "velocity": 0.4015748031496063
        },
        {
          "duration": 0.8000000000000114,
          "durationTicks": 960,
          "midi": 50,
          "name": "D3",
          "ticks": 366720,
          "time": 305.6,
          "velocity": 0.4015748031496063
        },
        {
          "duration": 0.6999999999999886,
          "durationTicks": 840,
          "midi": 48,
          "name": "C3",
          "ticks": 367680,
          "time": 306.40000000000003,
          "velocity": 0.4015748031496063
        },
        {
          "duration": 0.3333333333333144,
          "durationTicks": 400,
          "midi": 47,
          "name": "B2",
          "ticks": 368640,
          "time": 307.20000000000005,
          "velocity": 0.4015748031496063
        },
        {
          "duration": 0.33333333333337123,
          "durationTicks": 400,
          "midi": 52,
          "name": "E3",
          "ticks": 369600,
          "time": 308,
          "velocity": 0.4015748031496063
        },
        {
          "duration": 0.33333333333337123,
          "durationTicks": 400,
          "midi": 48,
          "name": "C3",
          "ticks": 370560,
          "time": 308.8,
          "velocity": 0.4015748031496063
        },
        {
          "duration": 0.33333333333337123,
          "durationTicks": 400,
          "midi": 50,
          "name": "D3",
          "ticks": 371520,
          "time": 309.6,
          "velocity": 0.4015748031496063
        },
        {
          "duration": 0.06666666666660603,
          "durationTicks": 80,
          "midi": 38,
          "name": "D2",
          "ticks": 372240,
          "time": 310.20000000000005,
          "velocity": 0.4015748031496063
        },
        {
          "duration": 0.5999999999999659,
          "durationTicks": 720,
          "midi": 43,
          "name": "G2",
          "ticks": 372480,
          "time": 310.40000000000003,
          "velocity": 0.4015748031496063
        },
        {
          "duration": 0.19666666666671517,
          "durationTicks": 236,
          "midi": 42,
          "name": "F#2",
          "ticks": 373200,
          "time": 311,
          "velocity": 0.4015748031496063
        },
        {
          "duration": 0.5999999999999659,
          "durationTicks": 720,
          "midi": 47,
          "name": "B2",
          "ticks": 373440,
          "time": 311.20000000000005,
          "velocity": 0.4015748031496063
        },
        {
          "duration": 0.19666666666665833,
          "durationTicks": 236,
          "midi": 45,
          "name": "A2",
          "ticks": 374160,
          "time": 311.8,
          "velocity": 0.4015748031496063
        },
        {
          "duration": 0.8000000000000114,
          "durationTicks": 960,
          "midi": 50,
          "name": "D3",
          "ticks": 374400,
          "time": 312,
          "velocity": 0.4015748031496063
        },
        {
          "duration": 0.6999999999999886,
          "durationTicks": 840,
          "midi": 48,
          "name": "C3",
          "ticks": 375360,
          "time": 312.8,
          "velocity": 0.4015748031496063
        },
        {
          "duration": 0.10000000000002274,
          "durationTicks": 120,
          "midi": 47,
          "name": "B2",
          "ticks": 376320,
          "time": 313.6,
          "velocity": 0.4015748031496063
        },
        {
          "duration": 0.10000000000002274,
          "durationTicks": 120,
          "midi": 47,
          "name": "B2",
          "ticks": 376800,
          "time": 314,
          "velocity": 0.4015748031496063
        },
        {
          "duration": 0.0999999999999659,
          "durationTicks": 120,
          "midi": 47,
          "name": "B2",
          "ticks": 377280,
          "time": 314.40000000000003,
          "velocity": 0.4015748031496063
        },
        {
          "duration": 0.0999999999999659,
          "durationTicks": 120,
          "midi": 48,
          "name": "C3",
          "ticks": 378240,
          "time": 315.20000000000005,
          "velocity": 0.4015748031496063
        },
        {
          "duration": 0.10000000000002274,
          "durationTicks": 120,
          "midi": 48,
          "name": "C3",
          "ticks": 378720,
          "time": 315.6,
          "velocity": 0.4015748031496063
        },
        {
          "duration": 0.10000000000002274,
          "durationTicks": 120,
          "midi": 48,
          "name": "C3",
          "ticks": 379200,
          "time": 316,
          "velocity": 0.4015748031496063
        },
        {
          "duration": 0.10000000000002274,
          "durationTicks": 120,
          "midi": 50,
          "name": "D3",
          "ticks": 380160,
          "time": 316.8,
          "velocity": 0.4015748031496063
        },
        {
          "duration": 0.0999999999999659,
          "durationTicks": 120,
          "midi": 50,
          "name": "D3",
          "ticks": 380640,
          "time": 317.20000000000005,
          "velocity": 0.4015748031496063
        },
        {
          "duration": 0.10000000000002274,
          "durationTicks": 120,
          "midi": 50,
          "name": "D3",
          "ticks": 381120,
          "time": 317.6,
          "velocity": 0.4015748031496063
        },
        {
          "duration": 0.19666666666671517,
          "durationTicks": 236,
          "midi": 48,
          "name": "C3",
          "ticks": 384000,
          "time": 320,
          "velocity": 0.8267716535433071
        },
        {
          "duration": 0.19666666666665833,
          "durationTicks": 236,
          "midi": 48,
          "name": "C3",
          "ticks": 384240,
          "time": 320.20000000000005,
          "velocity": 0.8267716535433071
        },
        {
          "duration": 0.19666666666665833,
          "durationTicks": 236,
          "midi": 48,
          "name": "C3",
          "ticks": 384480,
          "time": 320.40000000000003,
          "velocity": 0.8267716535433071
        },
        {
          "duration": 0.19666666666665833,
          "durationTicks": 236,
          "midi": 48,
          "name": "C3",
          "ticks": 384720,
          "time": 320.6,
          "velocity": 0.8267716535433071
        },
        {
          "duration": 0.19666666666665833,
          "durationTicks": 236,
          "midi": 48,
          "name": "C3",
          "ticks": 384960,
          "time": 320.8,
          "velocity": 0.8267716535433071
        },
        {
          "duration": 0.19666666666671517,
          "durationTicks": 236,
          "midi": 48,
          "name": "C3",
          "ticks": 385200,
          "time": 321,
          "velocity": 0.8267716535433071
        },
        {
          "duration": 0.19666666666665833,
          "durationTicks": 236,
          "midi": 48,
          "name": "C3",
          "ticks": 385440,
          "time": 321.20000000000005,
          "velocity": 0.8267716535433071
        },
        {
          "duration": 0.19666666666665833,
          "durationTicks": 236,
          "midi": 48,
          "name": "C3",
          "ticks": 385680,
          "time": 321.40000000000003,
          "velocity": 0.8267716535433071
        },
        {
          "duration": 0.19666666666665833,
          "durationTicks": 236,
          "midi": 48,
          "name": "C3",
          "ticks": 385920,
          "time": 321.6,
          "velocity": 0.8267716535433071
        },
        {
          "duration": 0.19666666666665833,
          "durationTicks": 236,
          "midi": 48,
          "name": "C3",
          "ticks": 386160,
          "time": 321.8,
          "velocity": 0.8267716535433071
        },
        {
          "duration": 0.19666666666671517,
          "durationTicks": 236,
          "midi": 48,
          "name": "C3",
          "ticks": 386400,
          "time": 322,
          "velocity": 0.8267716535433071
        },
        {
          "duration": 0.19666666666665833,
          "durationTicks": 236,
          "midi": 48,
          "name": "C3",
          "ticks": 386640,
          "time": 322.20000000000005,
          "velocity": 0.8267716535433071
        },
        {
          "duration": 0.19666666666665833,
          "durationTicks": 236,
          "midi": 48,
          "name": "C3",
          "ticks": 386880,
          "time": 322.40000000000003,
          "velocity": 0.8267716535433071
        },
        {
          "duration": 0.19666666666665833,
          "durationTicks": 236,
          "midi": 48,
          "name": "C3",
          "ticks": 387120,
          "time": 322.6,
          "velocity": 0.8267716535433071
        },
        {
          "duration": 0.19666666666665833,
          "durationTicks": 236,
          "midi": 48,
          "name": "C3",
          "ticks": 387360,
          "time": 322.8,
          "velocity": 0.8267716535433071
        },
        {
          "duration": 0.19666666666671517,
          "durationTicks": 236,
          "midi": 48,
          "name": "C3",
          "ticks": 387600,
          "time": 323,
          "velocity": 0.8267716535433071
        },
        {
          "duration": 0.19666666666665833,
          "durationTicks": 236,
          "midi": 48,
          "name": "C3",
          "ticks": 387840,
          "time": 323.20000000000005,
          "velocity": 0.8267716535433071
        },
        {
          "duration": 0.19666666666665833,
          "durationTicks": 236,
          "midi": 36,
          "name": "C2",
          "ticks": 388080,
          "time": 323.40000000000003,
          "velocity": 0.8267716535433071
        },
        {
          "duration": 0.19666666666665833,
          "durationTicks": 236,
          "midi": 36,
          "name": "C2",
          "ticks": 388320,
          "time": 323.6,
          "velocity": 0.8267716535433071
        },
        {
          "duration": 0.19666666666665833,
          "durationTicks": 236,
          "midi": 36,
          "name": "C2",
          "ticks": 388560,
          "time": 323.8,
          "velocity": 0.8267716535433071
        },
        {
          "duration": 0.19666666666671517,
          "durationTicks": 236,
          "midi": 36,
          "name": "C2",
          "ticks": 388800,
          "time": 324,
          "velocity": 0.8267716535433071
        },
        {
          "duration": 0.19666666666665833,
          "durationTicks": 236,
          "midi": 36,
          "name": "C2",
          "ticks": 389040,
          "time": 324.20000000000005,
          "velocity": 0.8267716535433071
        },
        {
          "duration": 0.19666666666665833,
          "durationTicks": 236,
          "midi": 36,
          "name": "C2",
          "ticks": 389280,
          "time": 324.40000000000003,
          "velocity": 0.8267716535433071
        },
        {
          "duration": 0.19666666666665833,
          "durationTicks": 236,
          "midi": 36,
          "name": "C2",
          "ticks": 389520,
          "time": 324.6,
          "velocity": 0.8267716535433071
        },
        {
          "duration": 0.19666666666665833,
          "durationTicks": 236,
          "midi": 36,
          "name": "C2",
          "ticks": 389760,
          "time": 324.8,
          "velocity": 0.8267716535433071
        },
        {
          "duration": 0.19666666666671517,
          "durationTicks": 236,
          "midi": 36,
          "name": "C2",
          "ticks": 390000,
          "time": 325,
          "velocity": 0.8267716535433071
        },
        {
          "duration": 0.19666666666665833,
          "durationTicks": 236,
          "midi": 36,
          "name": "C2",
          "ticks": 390240,
          "time": 325.20000000000005,
          "velocity": 0.8267716535433071
        },
        {
          "duration": 0.19666666666665833,
          "durationTicks": 236,
          "midi": 36,
          "name": "C2",
          "ticks": 390480,
          "time": 325.40000000000003,
          "velocity": 0.8267716535433071
        },
        {
          "duration": 0.19666666666665833,
          "durationTicks": 236,
          "midi": 36,
          "name": "C2",
          "ticks": 390720,
          "time": 325.6,
          "velocity": 0.8267716535433071
        },
        {
          "duration": 0.19666666666665833,
          "durationTicks": 236,
          "midi": 36,
          "name": "C2",
          "ticks": 390960,
          "time": 325.8,
          "velocity": 0.8267716535433071
        },
        {
          "duration": 0.19666666666671517,
          "durationTicks": 236,
          "midi": 36,
          "name": "C2",
          "ticks": 391200,
          "time": 326,
          "velocity": 0.8267716535433071
        },
        {
          "duration": 0.19666666666665833,
          "durationTicks": 236,
          "midi": 36,
          "name": "C2",
          "ticks": 391440,
          "time": 326.20000000000005,
          "velocity": 0.8267716535433071
        },
        {
          "duration": 0.19666666666665833,
          "durationTicks": 236,
          "midi": 36,
          "name": "C2",
          "ticks": 391680,
          "time": 326.40000000000003,
          "velocity": 0.8267716535433071
        },
        {
          "duration": 0.19666666666665833,
          "durationTicks": 236,
          "midi": 36,
          "name": "C2",
          "ticks": 391920,
          "time": 326.6,
          "velocity": 0.8267716535433071
        },
        {
          "duration": 0.19666666666665833,
          "durationTicks": 236,
          "midi": 36,
          "name": "C2",
          "ticks": 392160,
          "time": 326.8,
          "velocity": 0.8267716535433071
        },
        {
          "duration": 0.19666666666671517,
          "durationTicks": 236,
          "midi": 36,
          "name": "C2",
          "ticks": 392400,
          "time": 327,
          "velocity": 0.8267716535433071
        },
        {
          "duration": 0.19666666666665833,
          "durationTicks": 236,
          "midi": 36,
          "name": "C2",
          "ticks": 392640,
          "time": 327.20000000000005,
          "velocity": 0.8267716535433071
        },
        {
          "duration": 0.19666666666665833,
          "durationTicks": 236,
          "midi": 36,
          "name": "C2",
          "ticks": 392880,
          "time": 327.40000000000003,
          "velocity": 0.8267716535433071
        },
        {
          "duration": 0.19666666666665833,
          "durationTicks": 236,
          "midi": 36,
          "name": "C2",
          "ticks": 393120,
          "time": 327.6,
          "velocity": 0.8267716535433071
        },
        {
          "duration": 0.19666666666665833,
          "durationTicks": 236,
          "midi": 36,
          "name": "C2",
          "ticks": 393360,
          "time": 327.8,
          "velocity": 0.8267716535433071
        },
        {
          "duration": 0.19666666666671517,
          "durationTicks": 236,
          "midi": 36,
          "name": "C2",
          "ticks": 393600,
          "time": 328,
          "velocity": 0.8267716535433071
        },
        {
          "duration": 0.19666666666665833,
          "durationTicks": 236,
          "midi": 36,
          "name": "C2",
          "ticks": 393840,
          "time": 328.20000000000005,
          "velocity": 0.8267716535433071
        },
        {
          "duration": 0.19666666666665833,
          "durationTicks": 236,
          "midi": 36,
          "name": "C2",
          "ticks": 394080,
          "time": 328.40000000000003,
          "velocity": 0.8267716535433071
        },
        {
          "duration": 0.19666666666665833,
          "durationTicks": 236,
          "midi": 36,
          "name": "C2",
          "ticks": 394320,
          "time": 328.6,
          "velocity": 0.8267716535433071
        },
        {
          "duration": 0.19666666666665833,
          "durationTicks": 236,
          "midi": 36,
          "name": "C2",
          "ticks": 394560,
          "time": 328.8,
          "velocity": 0.8267716535433071
        },
        {
          "duration": 0.19666666666671517,
          "durationTicks": 236,
          "midi": 36,
          "name": "C2",
          "ticks": 394800,
          "time": 329,
          "velocity": 0.8267716535433071
        },
        {
          "duration": 0.19666666666665833,
          "durationTicks": 236,
          "midi": 36,
          "name": "C2",
          "ticks": 395040,
          "time": 329.20000000000005,
          "velocity": 0.8267716535433071
        },
        {
          "duration": 0.19666666666665833,
          "durationTicks": 236,
          "midi": 36,
          "name": "C2",
          "ticks": 395280,
          "time": 329.40000000000003,
          "velocity": 0.8267716535433071
        },
        {
          "duration": 0.19666666666665833,
          "durationTicks": 236,
          "midi": 38,
          "name": "D2",
          "ticks": 395520,
          "time": 329.6,
          "velocity": 0.8267716535433071
        },
        {
          "duration": 0.19666666666665833,
          "durationTicks": 236,
          "midi": 38,
          "name": "D2",
          "ticks": 395760,
          "time": 329.8,
          "velocity": 0.8267716535433071
        },
        {
          "duration": 0.19666666666671517,
          "durationTicks": 236,
          "midi": 38,
          "name": "D2",
          "ticks": 396000,
          "time": 330,
          "velocity": 0.8267716535433071
        },
        {
          "duration": 0.19666666666665833,
          "durationTicks": 236,
          "midi": 38,
          "name": "D2",
          "ticks": 396240,
          "time": 330.20000000000005,
          "velocity": 0.8267716535433071
        },
        {
          "duration": 0.19666666666665833,
          "durationTicks": 236,
          "midi": 38,
          "name": "D2",
          "ticks": 396480,
          "time": 330.40000000000003,
          "velocity": 0.8267716535433071
        },
        {
          "duration": 0.19666666666665833,
          "durationTicks": 236,
          "midi": 38,
          "name": "D2",
          "ticks": 396720,
          "time": 330.6,
          "velocity": 0.8267716535433071
        },
        {
          "duration": 0.19666666666665833,
          "durationTicks": 236,
          "midi": 38,
          "name": "D2",
          "ticks": 396960,
          "time": 330.8,
          "velocity": 0.8267716535433071
        },
        {
          "duration": 0.19666666666671517,
          "durationTicks": 236,
          "midi": 38,
          "name": "D2",
          "ticks": 397200,
          "time": 331,
          "velocity": 0.8267716535433071
        },
        {
          "duration": 0.19666666666665833,
          "durationTicks": 236,
          "midi": 38,
          "name": "D2",
          "ticks": 397440,
          "time": 331.20000000000005,
          "velocity": 0.8267716535433071
        },
        {
          "duration": 0.19666666666665833,
          "durationTicks": 236,
          "midi": 38,
          "name": "D2",
          "ticks": 397680,
          "time": 331.40000000000003,
          "velocity": 0.8267716535433071
        },
        {
          "duration": 0.19666666666665833,
          "durationTicks": 236,
          "midi": 38,
          "name": "D2",
          "ticks": 397920,
          "time": 331.6,
          "velocity": 0.8267716535433071
        },
        {
          "duration": 0.19666666666665833,
          "durationTicks": 236,
          "midi": 38,
          "name": "D2",
          "ticks": 398160,
          "time": 331.8,
          "velocity": 0.8267716535433071
        },
        {
          "duration": 0.19666666666671517,
          "durationTicks": 236,
          "midi": 38,
          "name": "D2",
          "ticks": 398400,
          "time": 332,
          "velocity": 0.8267716535433071
        },
        {
          "duration": 0.19666666666665833,
          "durationTicks": 236,
          "midi": 38,
          "name": "D2",
          "ticks": 398640,
          "time": 332.20000000000005,
          "velocity": 0.8267716535433071
        },
        {
          "duration": 0.19666666666665833,
          "durationTicks": 236,
          "midi": 38,
          "name": "D2",
          "ticks": 398880,
          "time": 332.40000000000003,
          "velocity": 0.8267716535433071
        },
        {
          "duration": 0.19666666666665833,
          "durationTicks": 236,
          "midi": 38,
          "name": "D2",
          "ticks": 399120,
          "time": 332.6,
          "velocity": 0.8267716535433071
        },
        {
          "duration": 0.19999999999998863,
          "durationTicks": 240,
          "midi": 43,
          "name": "G2",
          "ticks": 399360,
          "time": 332.8,
          "velocity": 0.8267716535433071
        },
        {
          "duration": 0.20000000000004547,
          "durationTicks": 240,
          "midi": 43,
          "name": "G2",
          "ticks": 399600,
          "time": 333,
          "velocity": 0.8267716535433071
        },
        {
          "duration": 0.19999999999998863,
          "durationTicks": 240,
          "midi": 43,
          "name": "G2",
          "ticks": 399840,
          "time": 333.20000000000005,
          "velocity": 0.8267716535433071
        },
        {
          "duration": 0.19666666666665833,
          "durationTicks": 236,
          "midi": 43,
          "name": "G2",
          "ticks": 400080,
          "time": 333.40000000000003,
          "velocity": 0.8267716535433071
        },
        {
          "duration": 0.19999999999998863,
          "durationTicks": 240,
          "midi": 43,
          "name": "G2",
          "ticks": 400320,
          "time": 333.6,
          "velocity": 0.8267716535433071
        },
        {
          "duration": 0.19999999999998863,
          "durationTicks": 240,
          "midi": 43,
          "name": "G2",
          "ticks": 400560,
          "time": 333.8,
          "velocity": 0.8267716535433071
        },
        {
          "duration": 0.20000000000004547,
          "durationTicks": 240,
          "midi": 43,
          "name": "G2",
          "ticks": 400800,
          "time": 334,
          "velocity": 0.8267716535433071
        },
        {
          "duration": 0.19999999999998863,
          "durationTicks": 240,
          "midi": 43,
          "name": "G2",
          "ticks": 401040,
          "time": 334.20000000000005,
          "velocity": 0.8267716535433071
        },
        {
          "duration": 0.19999999999998863,
          "durationTicks": 240,
          "midi": 43,
          "name": "G2",
          "ticks": 401280,
          "time": 334.40000000000003,
          "velocity": 0.8267716535433071
        },
        {
          "duration": 0.19999999999998863,
          "durationTicks": 240,
          "midi": 43,
          "name": "G2",
          "ticks": 401520,
          "time": 334.6,
          "velocity": 0.8267716535433071
        },
        {
          "duration": 0.19999999999998863,
          "durationTicks": 240,
          "midi": 43,
          "name": "G2",
          "ticks": 401760,
          "time": 334.8,
          "velocity": 0.8267716535433071
        },
        {
          "duration": 0.19666666666671517,
          "durationTicks": 236,
          "midi": 43,
          "name": "G2",
          "ticks": 402000,
          "time": 335,
          "velocity": 0.8267716535433071
        },
        {
          "duration": 0.19999999999998863,
          "durationTicks": 240,
          "midi": 43,
          "name": "G2",
          "ticks": 402240,
          "time": 335.20000000000005,
          "velocity": 0.8267716535433071
        },
        {
          "duration": 0.19999999999998863,
          "durationTicks": 240,
          "midi": 43,
          "name": "G2",
          "ticks": 402480,
          "time": 335.40000000000003,
          "velocity": 0.8267716535433071
        },
        {
          "duration": 0.19999999999998863,
          "durationTicks": 240,
          "midi": 43,
          "name": "G2",
          "ticks": 402720,
          "time": 335.6,
          "velocity": 0.8267716535433071
        },
        {
          "duration": 0.19999999999998863,
          "durationTicks": 240,
          "midi": 43,
          "name": "G2",
          "ticks": 402960,
          "time": 335.8,
          "velocity": 0.8267716535433071
        },
        {
          "duration": 0.20000000000004547,
          "durationTicks": 240,
          "midi": 43,
          "name": "G2",
          "ticks": 403200,
          "time": 336,
          "velocity": 0.8267716535433071
        },
        {
          "duration": 0.19999999999998863,
          "durationTicks": 240,
          "midi": 43,
          "name": "G2",
          "ticks": 403440,
          "time": 336.20000000000005,
          "velocity": 0.8267716535433071
        },
        {
          "duration": 0.19999999999998863,
          "durationTicks": 240,
          "midi": 43,
          "name": "G2",
          "ticks": 403680,
          "time": 336.40000000000003,
          "velocity": 0.8267716535433071
        },
        {
          "duration": 0.19666666666665833,
          "durationTicks": 236,
          "midi": 43,
          "name": "G2",
          "ticks": 403920,
          "time": 336.6,
          "velocity": 0.8267716535433071
        },
        {
          "duration": 0.19999999999998863,
          "durationTicks": 240,
          "midi": 43,
          "name": "G2",
          "ticks": 404160,
          "time": 336.8,
          "velocity": 0.8267716535433071
        },
        {
          "duration": 0.20000000000004547,
          "durationTicks": 240,
          "midi": 43,
          "name": "G2",
          "ticks": 404400,
          "time": 337,
          "velocity": 0.8267716535433071
        },
        {
          "duration": 0.19999999999998863,
          "durationTicks": 240,
          "midi": 43,
          "name": "G2",
          "ticks": 404640,
          "time": 337.20000000000005,
          "velocity": 0.8267716535433071
        },
        {
          "duration": 0.19999999999998863,
          "durationTicks": 240,
          "midi": 43,
          "name": "G2",
          "ticks": 404880,
          "time": 337.40000000000003,
          "velocity": 0.8267716535433071
        },
        {
          "duration": 0.19666666666665833,
          "durationTicks": 236,
          "midi": 43,
          "name": "G2",
          "ticks": 405120,
          "time": 337.6,
          "velocity": 0.6771653543307087
        },
        {
          "duration": 0.19666666666665833,
          "durationTicks": 236,
          "midi": 43,
          "name": "G2",
          "ticks": 405360,
          "time": 337.8,
          "velocity": 0.6771653543307087
        },
        {
          "duration": 0.19666666666671517,
          "durationTicks": 236,
          "midi": 43,
          "name": "G2",
          "ticks": 405600,
          "time": 338,
          "velocity": 0.6771653543307087
        },
        {
          "duration": 0.19666666666665833,
          "durationTicks": 236,
          "midi": 43,
          "name": "G2",
          "ticks": 405840,
          "time": 338.20000000000005,
          "velocity": 0.6771653543307087
        },
        {
          "duration": 0.19666666666665833,
          "durationTicks": 236,
          "midi": 43,
          "name": "G2",
          "ticks": 406080,
          "time": 338.40000000000003,
          "velocity": 0.6771653543307087
        },
        {
          "duration": 0.19666666666665833,
          "durationTicks": 236,
          "midi": 43,
          "name": "G2",
          "ticks": 406320,
          "time": 338.6,
          "velocity": 0.6771653543307087
        },
        {
          "duration": 0.19666666666665833,
          "durationTicks": 236,
          "midi": 43,
          "name": "G2",
          "ticks": 406560,
          "time": 338.8,
          "velocity": 0.6771653543307087
        },
        {
          "duration": 0.19666666666671517,
          "durationTicks": 236,
          "midi": 43,
          "name": "G2",
          "ticks": 406800,
          "time": 339,
          "velocity": 0.6771653543307087
        },
        {
          "duration": 0.19666666666665833,
          "durationTicks": 236,
          "midi": 36,
          "name": "C2",
          "ticks": 407040,
          "time": 339.20000000000005,
          "velocity": 0.6771653543307087
        },
        {
          "duration": 0.19666666666665833,
          "durationTicks": 236,
          "midi": 36,
          "name": "C2",
          "ticks": 407280,
          "time": 339.40000000000003,
          "velocity": 0.6771653543307087
        },
        {
          "duration": 0.19666666666665833,
          "durationTicks": 236,
          "midi": 36,
          "name": "C2",
          "ticks": 407520,
          "time": 339.6,
          "velocity": 0.6771653543307087
        },
        {
          "duration": 0.19666666666665833,
          "durationTicks": 236,
          "midi": 36,
          "name": "C2",
          "ticks": 407760,
          "time": 339.8,
          "velocity": 0.6771653543307087
        },
        {
          "duration": 0.19666666666671517,
          "durationTicks": 236,
          "midi": 38,
          "name": "D2",
          "ticks": 408000,
          "time": 340,
          "velocity": 0.6771653543307087
        },
        {
          "duration": 0.19666666666665833,
          "durationTicks": 236,
          "midi": 38,
          "name": "D2",
          "ticks": 408240,
          "time": 340.20000000000005,
          "velocity": 0.6771653543307087
        },
        {
          "duration": 0.19666666666665833,
          "durationTicks": 236,
          "midi": 38,
          "name": "D2",
          "ticks": 408480,
          "time": 340.40000000000003,
          "velocity": 0.6771653543307087
        },
        {
          "duration": 0.19666666666665833,
          "durationTicks": 236,
          "midi": 38,
          "name": "D2",
          "ticks": 408720,
          "time": 340.6,
          "velocity": 0.6771653543307087
        },
        {
          "duration": 0.6000000000000227,
          "durationTicks": 720,
          "midi": 43,
          "name": "G2",
          "ticks": 408960,
          "time": 340.8,
          "velocity": 0.6771653543307087
        },
        {
          "duration": 0.19666666666665833,
          "durationTicks": 236,
          "midi": 42,
          "name": "F#2",
          "ticks": 409680,
          "time": 341.40000000000003,
          "velocity": 0.6771653543307087
        },
        {
          "duration": 0.30000000000001137,
          "durationTicks": 360,
          "midi": 45,
          "name": "A2",
          "ticks": 409920,
          "time": 341.6,
          "velocity": 0.6771653543307087
        },
        {
          "duration": 0.09666666666663559,
          "durationTicks": 116,
          "midi": 43,
          "name": "G2",
          "ticks": 410280,
          "time": 341.90000000000003,
          "velocity": 0.6771653543307087
        },
        {
          "duration": 0.30000000000001137,
          "durationTicks": 360,
          "midi": 48,
          "name": "C3",
          "ticks": 410400,
          "time": 342,
          "velocity": 0.6771653543307087
        },
        {
          "duration": 0.09666666666669244,
          "durationTicks": 116,
          "midi": 47,
          "name": "B2",
          "ticks": 410760,
          "time": 342.3,
          "velocity": 0.6771653543307087
        },
        {
          "duration": 0.5999999999999659,
          "durationTicks": 720,
          "midi": 45,
          "name": "A2",
          "ticks": 410880,
          "time": 342.40000000000003,
          "velocity": 0.6771653543307087
        },
        {
          "duration": 0.19666666666671517,
          "durationTicks": 236,
          "midi": 44,
          "name": "G#2",
          "ticks": 411600,
          "time": 343,
          "velocity": 0.6771653543307087
        },
        {
          "duration": 0.2999999999999545,
          "durationTicks": 360,
          "midi": 47,
          "name": "B2",
          "ticks": 411840,
          "time": 343.20000000000005,
          "velocity": 0.6771653543307087
        },
        {
          "duration": 0.09666666666669244,
          "durationTicks": 116,
          "midi": 45,
          "name": "A2",
          "ticks": 412200,
          "time": 343.5,
          "velocity": 0.6771653543307087
        },
        {
          "duration": 0.30000000000001137,
          "durationTicks": 360,
          "midi": 50,
          "name": "D3",
          "ticks": 412320,
          "time": 343.6,
          "velocity": 0.6771653543307087
        },
        {
          "duration": 0.09666666666663559,
          "durationTicks": 116,
          "midi": 48,
          "name": "C3",
          "ticks": 412680,
          "time": 343.90000000000003,
          "velocity": 0.6771653543307087
        },
        {
          "duration": 0.6000000000000227,
          "durationTicks": 720,
          "midi": 47,
          "name": "B2",
          "ticks": 412800,
          "time": 344,
          "velocity": 0.6771653543307087
        },
        {
          "duration": 0.19666666666665833,
          "durationTicks": 236,
          "midi": 46,
          "name": "A#2",
          "ticks": 413520,
          "time": 344.6,
          "velocity": 0.6771653543307087
        },
        {
          "duration": 0.30000000000001137,
          "durationTicks": 360,
          "midi": 48,
          "name": "C3",
          "ticks": 413760,
          "time": 344.8,
          "velocity": 0.6771653543307087
        },
        {
          "duration": 0.09666666666669244,
          "durationTicks": 116,
          "midi": 47,
          "name": "B2",
          "ticks": 414120,
          "time": 345.1,
          "velocity": 0.6771653543307087
        },
        {
          "duration": 0.2999999999999545,
          "durationTicks": 360,
          "midi": 52,
          "name": "E3",
          "ticks": 414240,
          "time": 345.20000000000005,
          "velocity": 0.6771653543307087
        },
        {
          "duration": 0.09666666666669244,
          "durationTicks": 116,
          "midi": 50,
          "name": "D3",
          "ticks": 414600,
          "time": 345.5,
          "velocity": 0.6771653543307087
        },
        {
          "duration": 0.33333333333337123,
          "durationTicks": 400,
          "midi": 48,
          "name": "C3",
          "ticks": 414720,
          "time": 345.6,
          "velocity": 0.6771653543307087
        },
        {
          "duration": 0.33333333333337123,
          "durationTicks": 400,
          "midi": 50,
          "name": "D3",
          "ticks": 415200,
          "time": 346,
          "velocity": 0.6771653543307087
        },
        {
          "duration": 0.3333333333333144,
          "durationTicks": 400,
          "midi": 48,
          "name": "C3",
          "ticks": 415680,
          "time": 346.40000000000003,
          "velocity": 0.6771653543307087
        },
        {
          "duration": 0.33333333333337123,
          "durationTicks": 400,
          "midi": 44,
          "name": "G#2",
          "ticks": 416160,
          "time": 346.8,
          "velocity": 0.6771653543307087
        },
        {
          "duration": 0.19666666666665833,
          "durationTicks": 236,
          "midi": 45,
          "name": "A2",
          "ticks": 416640,
          "time": 347.20000000000005,
          "velocity": 0.6771653543307087
        },
        {
          "duration": 0.19666666666665833,
          "durationTicks": 236,
          "midi": 45,
          "name": "A2",
          "ticks": 416880,
          "time": 347.40000000000003,
          "velocity": 0.6771653543307087
        },
        {
          "duration": 0.19666666666665833,
          "durationTicks": 236,
          "midi": 43,
          "name": "G2",
          "ticks": 417120,
          "time": 347.6,
          "velocity": 0.6771653543307087
        },
        {
          "duration": 0.19666666666665833,
          "durationTicks": 236,
          "midi": 43,
          "name": "G2",
          "ticks": 417360,
          "time": 347.8,
          "velocity": 0.6771653543307087
        },
        {
          "duration": 0.19666666666671517,
          "durationTicks": 236,
          "midi": 42,
          "name": "F#2",
          "ticks": 417600,
          "time": 348,
          "velocity": 0.6771653543307087
        },
        {
          "duration": 0.19666666666665833,
          "durationTicks": 236,
          "midi": 42,
          "name": "F#2",
          "ticks": 417840,
          "time": 348.20000000000005,
          "velocity": 0.6771653543307087
        },
        {
          "duration": 0.19666666666665833,
          "durationTicks": 236,
          "midi": 43,
          "name": "G2",
          "ticks": 418080,
          "time": 348.40000000000003,
          "velocity": 0.6771653543307087
        },
        {
          "duration": 0.19666666666665833,
          "durationTicks": 236,
          "midi": 43,
          "name": "G2",
          "ticks": 418320,
          "time": 348.6,
          "velocity": 0.6771653543307087
        },
        {
          "duration": 0.33333333333337123,
          "durationTicks": 400,
          "midi": 42,
          "name": "F#2",
          "ticks": 418560,
          "time": 348.8,
          "velocity": 0.6771653543307087
        },
        {
          "duration": 0.19999999999998863,
          "durationTicks": 240,
          "midi": 47,
          "name": "B2",
          "ticks": 442080,
          "time": 368.40000000000003,
          "velocity": 0.8267716535433071
        },
        {
          "duration": 0.19999999999998863,
          "durationTicks": 240,
          "midi": 46,
          "name": "A#2",
          "ticks": 442320,
          "time": 368.6,
          "velocity": 0.8267716535433071
        },
        {
          "duration": 0.19999999999998863,
          "durationTicks": 240,
          "midi": 47,
          "name": "B2",
          "ticks": 442560,
          "time": 368.8,
          "velocity": 0.8267716535433071
        },
        {
          "duration": 0.20000000000004547,
          "durationTicks": 240,
          "midi": 46,
          "name": "A#2",
          "ticks": 442800,
          "time": 369,
          "velocity": 0.8267716535433071
        },
        {
          "duration": 0.19999999999998863,
          "durationTicks": 240,
          "midi": 47,
          "name": "B2",
          "ticks": 443040,
          "time": 369.20000000000005,
          "velocity": 0.8267716535433071
        },
        {
          "duration": 0.19666666666665833,
          "durationTicks": 236,
          "midi": 44,
          "name": "G#2",
          "ticks": 443280,
          "time": 369.40000000000003,
          "velocity": 0.8267716535433071
        },
        {
          "duration": 0.19666666666665833,
          "durationTicks": 236,
          "midi": 45,
          "name": "A2",
          "ticks": 443520,
          "time": 369.6,
          "velocity": 0.8267716535433071
        },
        {
          "duration": 0.20000000000004547,
          "durationTicks": 240,
          "midi": 45,
          "name": "A2",
          "ticks": 444000,
          "time": 370,
          "velocity": 0.8267716535433071
        },
        {
          "duration": 0.19999999999998863,
          "durationTicks": 240,
          "midi": 44,
          "name": "G#2",
          "ticks": 444240,
          "time": 370.20000000000005,
          "velocity": 0.8267716535433071
        },
        {
          "duration": 0.19999999999998863,
          "durationTicks": 240,
          "midi": 45,
          "name": "A2",
          "ticks": 444480,
          "time": 370.40000000000003,
          "velocity": 0.8267716535433071
        },
        {
          "duration": 0.19999999999998863,
          "durationTicks": 240,
          "midi": 44,
          "name": "G#2",
          "ticks": 444720,
          "time": 370.6,
          "velocity": 0.8267716535433071
        },
        {
          "duration": 0.19999999999998863,
          "durationTicks": 240,
          "midi": 45,
          "name": "A2",
          "ticks": 444960,
          "time": 370.8,
          "velocity": 0.8267716535433071
        },
        {
          "duration": 0.19666666666671517,
          "durationTicks": 236,
          "midi": 42,
          "name": "F#2",
          "ticks": 445200,
          "time": 371,
          "velocity": 0.8267716535433071
        },
        {
          "duration": 0.19666666666665833,
          "durationTicks": 236,
          "midi": 43,
          "name": "G2",
          "ticks": 445440,
          "time": 371.20000000000005,
          "velocity": 0.8267716535433071
        },
        {
          "duration": 0.19666666666665833,
          "durationTicks": 236,
          "midi": 40,
          "name": "E2",
          "ticks": 445920,
          "time": 371.6,
          "velocity": 0.8267716535433071
        },
        {
          "duration": 0.19666666666665833,
          "durationTicks": 236,
          "midi": 40,
          "name": "E2",
          "ticks": 446160,
          "time": 371.8,
          "velocity": 0.8267716535433071
        },
        {
          "duration": 0.19666666666671517,
          "durationTicks": 236,
          "midi": 36,
          "name": "C2",
          "ticks": 446400,
          "time": 372,
          "velocity": 0.8267716535433071
        },
        {
          "duration": 0.19666666666665833,
          "durationTicks": 236,
          "midi": 36,
          "name": "C2",
          "ticks": 446640,
          "time": 372.20000000000005,
          "velocity": 0.8267716535433071
        },
        {
          "duration": 0.19666666666665833,
          "durationTicks": 236,
          "midi": 38,
          "name": "D2",
          "ticks": 446880,
          "time": 372.40000000000003,
          "velocity": 0.8267716535433071
        },
        {
          "duration": 0.19666666666665833,
          "durationTicks": 236,
          "midi": 38,
          "name": "D2",
          "ticks": 447120,
          "time": 372.6,
          "velocity": 0.8267716535433071
        },
        {
          "duration": 0.19666666666665833,
          "durationTicks": 236,
          "midi": 43,
          "name": "G2",
          "ticks": 447360,
          "time": 372.8,
          "velocity": 0.8267716535433071
        },
        {
          "duration": 0.19999999999998863,
          "durationTicks": 240,
          "midi": 47,
          "name": "B2",
          "ticks": 447840,
          "time": 373.20000000000005,
          "velocity": 0.8267716535433071
        },
        {
          "duration": 0.19999999999998863,
          "durationTicks": 240,
          "midi": 46,
          "name": "A#2",
          "ticks": 448080,
          "time": 373.40000000000003,
          "velocity": 0.8267716535433071
        },
        {
          "duration": 0.19999999999998863,
          "durationTicks": 240,
          "midi": 47,
          "name": "B2",
          "ticks": 448320,
          "time": 373.6,
          "velocity": 0.8267716535433071
        },
        {
          "duration": 0.19999999999998863,
          "durationTicks": 240,
          "midi": 46,
          "name": "A#2",
          "ticks": 448560,
          "time": 373.8,
          "velocity": 0.8267716535433071
        },
        {
          "duration": 0.20000000000004547,
          "durationTicks": 240,
          "midi": 47,
          "name": "B2",
          "ticks": 448800,
          "time": 374,
          "velocity": 0.8267716535433071
        },
        {
          "duration": 0.19666666666665833,
          "durationTicks": 236,
          "midi": 44,
          "name": "G#2",
          "ticks": 449040,
          "time": 374.20000000000005,
          "velocity": 0.8267716535433071
        },
        {
          "duration": 0.19666666666665833,
          "durationTicks": 236,
          "midi": 45,
          "name": "A2",
          "ticks": 449280,
          "time": 374.40000000000003,
          "velocity": 0.8267716535433071
        },
        {
          "duration": 0.19999999999998863,
          "durationTicks": 240,
          "midi": 45,
          "name": "A2",
          "ticks": 449760,
          "time": 374.8,
          "velocity": 0.8267716535433071
        },
        {
          "duration": 0.20000000000004547,
          "durationTicks": 240,
          "midi": 44,
          "name": "G#2",
          "ticks": 450000,
          "time": 375,
          "velocity": 0.8267716535433071
        },
        {
          "duration": 0.19999999999998863,
          "durationTicks": 240,
          "midi": 45,
          "name": "A2",
          "ticks": 450240,
          "time": 375.20000000000005,
          "velocity": 0.8267716535433071
        },
        {
          "duration": 0.19999999999998863,
          "durationTicks": 240,
          "midi": 44,
          "name": "G#2",
          "ticks": 450480,
          "time": 375.40000000000003,
          "velocity": 0.8267716535433071
        },
        {
          "duration": 0.19999999999998863,
          "durationTicks": 240,
          "midi": 45,
          "name": "A2",
          "ticks": 450720,
          "time": 375.6,
          "velocity": 0.8267716535433071
        },
        {
          "duration": 0.19666666666665833,
          "durationTicks": 236,
          "midi": 42,
          "name": "F#2",
          "ticks": 450960,
          "time": 375.8,
          "velocity": 0.8267716535433071
        },
        {
          "duration": 0.19666666666671517,
          "durationTicks": 236,
          "midi": 43,
          "name": "G2",
          "ticks": 451200,
          "time": 376,
          "velocity": 0.8267716535433071
        },
        {
          "duration": 0.19666666666665833,
          "durationTicks": 236,
          "midi": 40,
          "name": "E2",
          "ticks": 451680,
          "time": 376.40000000000003,
          "velocity": 0.8267716535433071
        },
        {
          "duration": 0.19666666666665833,
          "durationTicks": 236,
          "midi": 40,
          "name": "E2",
          "ticks": 451920,
          "time": 376.6,
          "velocity": 0.8267716535433071
        },
        {
          "duration": 0.19666666666665833,
          "durationTicks": 236,
          "midi": 36,
          "name": "C2",
          "ticks": 452160,
          "time": 376.8,
          "velocity": 0.8267716535433071
        },
        {
          "duration": 0.19666666666671517,
          "durationTicks": 236,
          "midi": 36,
          "name": "C2",
          "ticks": 452400,
          "time": 377,
          "velocity": 0.8267716535433071
        },
        {
          "duration": 0.19666666666665833,
          "durationTicks": 236,
          "midi": 38,
          "name": "D2",
          "ticks": 452640,
          "time": 377.20000000000005,
          "velocity": 0.8267716535433071
        },
        {
          "duration": 0.19666666666665833,
          "durationTicks": 236,
          "midi": 38,
          "name": "D2",
          "ticks": 452880,
          "time": 377.40000000000003,
          "velocity": 0.8267716535433071
        },
        {
          "duration": 0.33333333333337123,
          "durationTicks": 400,
          "midi": 43,
          "name": "G2",
          "ticks": 453120,
          "time": 377.6,
          "velocity": 0.8267716535433071
        },
        {
          "duration": 0.33333333333337123,
          "durationTicks": 400,
          "midi": 43,
          "name": "G2",
          "ticks": 453600,
          "time": 378,
          "velocity": 0.8267716535433071
        },
        {
          "duration": 0.33333333333337123,
          "durationTicks": 400,
          "midi": 38,
          "name": "D2",
          "ticks": 454560,
          "time": 378.8,
          "velocity": 0.8267716535433071
        },
        {
          "duration": 0.33333333333337123,
          "durationTicks": 400,
          "midi": 43,
          "name": "G2",
          "ticks": 455520,
          "time": 379.6,
          "velocity": 0.8267716535433071
        },
        {
          "duration": 0.3333333333333144,
          "durationTicks": 400,
          "midi": 38,
          "name": "D2",
          "ticks": 456480,
          "time": 380.40000000000003,
          "velocity": 0.8267716535433071
        },
        {
          "duration": 0.3333333333333144,
          "durationTicks": 400,
          "midi": 43,
          "name": "G2",
          "ticks": 457440,
          "time": 381.20000000000005,
          "velocity": 0.8267716535433071
        },
        {
          "duration": 0.33333333333337123,
          "durationTicks": 400,
          "midi": 38,
          "name": "D2",
          "ticks": 458400,
          "time": 382,
          "velocity": 0.8267716535433071
        },
        {
          "duration": 0.3333333333333144,
          "durationTicks": 400,
          "midi": 43,
          "name": "G2",
          "ticks": 458880,
          "time": 382.40000000000003,
          "velocity": 0.8267716535433071
        },
        {
          "duration": 0.33333333333337123,
          "durationTicks": 400,
          "midi": 43,
          "name": "G2",
          "ticks": 459360,
          "time": 382.8,
          "velocity": 0.8267716535433071
        },
        {
          "duration": 0.3333333333333144,
          "durationTicks": 400,
          "midi": 31,
          "name": "G1",
          "ticks": 459840,
          "time": 383.20000000000005,
          "velocity": 0.8267716535433071
        },
        {
          "duration": 0.33333333333337123,
          "durationTicks": 400,
          "midi": 34,
          "name": "A#1",
          "ticks": 466560,
          "time": 388.8,
          "velocity": 0.4015748031496063
        },
        {
          "duration": 0.33333333333337123,
          "durationTicks": 400,
          "midi": 34,
          "name": "A#1",
          "ticks": 470400,
          "time": 392,
          "velocity": 0.4015748031496063
        },
        {
          "duration": 0.33333333333337123,
          "durationTicks": 400,
          "midi": 39,
          "name": "D#2",
          "ticks": 472320,
          "time": 393.6,
          "velocity": 0.4015748031496063
        },
        {
          "duration": 0.3333333333333144,
          "durationTicks": 400,
          "midi": 34,
          "name": "A#1",
          "ticks": 474240,
          "time": 395.20000000000005,
          "velocity": 0.4015748031496063
        },
        {
          "duration": 0.33333333333337123,
          "durationTicks": 400,
          "midi": 39,
          "name": "D#2",
          "ticks": 476160,
          "time": 396.8,
          "velocity": 0.4015748031496063
        },
        {
          "duration": 0.19666666666665833,
          "durationTicks": 236,
          "midi": 34,
          "name": "A#1",
          "ticks": 479040,
          "time": 399.20000000000005,
          "velocity": 0.4015748031496063
        },
        {
          "duration": 0.19666666666665833,
          "durationTicks": 236,
          "midi": 34,
          "name": "A#1",
          "ticks": 479520,
          "time": 399.6,
          "velocity": 0.4015748031496063
        },
        {
          "duration": 0.33333333333337123,
          "durationTicks": 400,
          "midi": 39,
          "name": "D#2",
          "ticks": 480000,
          "time": 400,
          "velocity": 0.4015748031496063
        },
        {
          "duration": 0.19666666666665833,
          "durationTicks": 236,
          "midi": 34,
          "name": "A#1",
          "ticks": 482880,
          "time": 402.40000000000003,
          "velocity": 0.4015748031496063
        },
        {
          "duration": 0.19666666666665833,
          "durationTicks": 236,
          "midi": 34,
          "name": "A#1",
          "ticks": 483360,
          "time": 402.8,
          "velocity": 0.4015748031496063
        },
        {
          "duration": 0.3333333333333144,
          "durationTicks": 400,
          "midi": 39,
          "name": "D#2",
          "ticks": 483840,
          "time": 403.20000000000005,
          "velocity": 0.4015748031496063
        },
        {
          "duration": 0.33333333333337123,
          "durationTicks": 400,
          "midi": 44,
          "name": "G#2",
          "ticks": 484800,
          "time": 404,
          "velocity": 0.8267716535433071
        },
        {
          "duration": 0.19999999999998863,
          "durationTicks": 240,
          "midi": 43,
          "name": "G2",
          "ticks": 485760,
          "time": 404.8,
          "velocity": 0.8267716535433071
        },
        {
          "duration": 0.19666666666671517,
          "durationTicks": 236,
          "midi": 46,
          "name": "A#2",
          "ticks": 486000,
          "time": 405,
          "velocity": 0.8267716535433071
        },
        {
          "duration": 0.06666666666660603,
          "durationTicks": 80,
          "midi": 43,
          "name": "G2",
          "ticks": 486240,
          "time": 405.20000000000005,
          "velocity": 0.8267716535433071
        },
        {
          "duration": 0.06666666666666288,
          "durationTicks": 80,
          "midi": 39,
          "name": "D#2",
          "ticks": 486480,
          "time": 405.40000000000003,
          "velocity": 0.8267716535433071
        },
        {
          "duration": 0.06666666666666288,
          "durationTicks": 80,
          "midi": 38,
          "name": "D2",
          "ticks": 486720,
          "time": 405.6,
          "velocity": 0.8267716535433071
        },
        {
          "duration": 0.06666666666666288,
          "durationTicks": 80,
          "midi": 39,
          "name": "D#2",
          "ticks": 486960,
          "time": 405.8,
          "velocity": 0.8267716535433071
        },
        {
          "duration": 0.06666666666666288,
          "durationTicks": 80,
          "midi": 41,
          "name": "F2",
          "ticks": 487200,
          "time": 406,
          "velocity": 0.8267716535433071
        },
        {
          "duration": 0.06666666666660603,
          "durationTicks": 80,
          "midi": 43,
          "name": "G2",
          "ticks": 487440,
          "time": 406.20000000000005,
          "velocity": 0.8267716535433071
        },
        {
          "duration": 0.3333333333333144,
          "durationTicks": 400,
          "midi": 39,
          "name": "D#2",
          "ticks": 487680,
          "time": 406.40000000000003,
          "velocity": 0.8267716535433071
        },
        {
          "duration": 0.3333333333333144,
          "durationTicks": 400,
          "midi": 46,
          "name": "A#2",
          "ticks": 488640,
          "time": 407.20000000000005,
          "velocity": 0.8267716535433071
        },
        {
          "duration": 0.20000000000004547,
          "durationTicks": 240,
          "midi": 44,
          "name": "G#2",
          "ticks": 489600,
          "time": 408,
          "velocity": 0.8267716535433071
        },
        {
          "duration": 0.19666666666665833,
          "durationTicks": 236,
          "midi": 48,
          "name": "C3",
          "ticks": 489840,
          "time": 408.20000000000005,
          "velocity": 0.8267716535433071
        },
        {
          "duration": 0.06666666666666288,
          "durationTicks": 80,
          "midi": 44,
          "name": "G#2",
          "ticks": 490080,
          "time": 408.40000000000003,
          "velocity": 0.8267716535433071
        },
        {
          "duration": 0.06666666666666288,
          "durationTicks": 80,
          "midi": 41,
          "name": "F2",
          "ticks": 490320,
          "time": 408.6,
          "velocity": 0.8267716535433071
        },
        {
          "duration": 0.06666666666666288,
          "durationTicks": 80,
          "midi": 40,
          "name": "E2",
          "ticks": 490560,
          "time": 408.8,
          "velocity": 0.8267716535433071
        },
        {
          "duration": 0.06666666666666288,
          "durationTicks": 80,
          "midi": 41,
          "name": "F2",
          "ticks": 490800,
          "time": 409,
          "velocity": 0.8267716535433071
        },
        {
          "duration": 0.06666666666660603,
          "durationTicks": 80,
          "midi": 43,
          "name": "G2",
          "ticks": 491040,
          "time": 409.20000000000005,
          "velocity": 0.8267716535433071
        },
        {
          "duration": 0.06666666666666288,
          "durationTicks": 80,
          "midi": 45,
          "name": "A2",
          "ticks": 491280,
          "time": 409.40000000000003,
          "velocity": 0.8267716535433071
        },
        {
          "duration": 0.3333333333333144,
          "durationTicks": 400,
          "midi": 41,
          "name": "F2",
          "ticks": 491520,
          "time": 409.6,
          "velocity": 0.8267716535433071
        },
        {
          "duration": 0.3333333333333144,
          "durationTicks": 400,
          "midi": 48,
          "name": "C3",
          "ticks": 492480,
          "time": 410.40000000000003,
          "velocity": 0.8267716535433071
        },
        {
          "duration": 0.19999999999998863,
          "durationTicks": 240,
          "midi": 46,
          "name": "A#2",
          "ticks": 493440,
          "time": 411.20000000000005,
          "velocity": 0.8267716535433071
        },
        {
          "duration": 0.1966666666666015,
          "durationTicks": 236,
          "midi": 50,
          "name": "D3",
          "ticks": 493680,
          "time": 411.40000000000003,
          "velocity": 0.8267716535433071
        },
        {
          "duration": 0.06666666666671972,
          "durationTicks": 80,
          "midi": 46,
          "name": "A#2",
          "ticks": 493920,
          "time": 411.6,
          "velocity": 0.8267716535433071
        },
        {
          "duration": 0.06666666666671972,
          "durationTicks": 80,
          "midi": 43,
          "name": "G2",
          "ticks": 494160,
          "time": 411.8,
          "velocity": 0.8267716535433071
        },
        {
          "duration": 0.06666666666671972,
          "durationTicks": 80,
          "midi": 42,
          "name": "F#2",
          "ticks": 494400,
          "time": 412,
          "velocity": 0.8267716535433071
        },
        {
          "duration": 0.06666666666666288,
          "durationTicks": 80,
          "midi": 43,
          "name": "G2",
          "ticks": 494640,
          "time": 412.20000000000005,
          "velocity": 0.8267716535433071
        },
        {
          "duration": 0.06666666666666288,
          "durationTicks": 80,
          "midi": 45,
          "name": "A2",
          "ticks": 494880,
          "time": 412.40000000000003,
          "velocity": 0.8267716535433071
        },
        {
          "duration": 0.06666666666671972,
          "durationTicks": 80,
          "midi": 46,
          "name": "A#2",
          "ticks": 495120,
          "time": 412.6,
          "velocity": 0.8267716535433071
        },
        {
          "duration": 0.3333333333333144,
          "durationTicks": 400,
          "midi": 43,
          "name": "G2",
          "ticks": 495360,
          "time": 412.8,
          "velocity": 0.8267716535433071
        },
        {
          "duration": 0.19999999999998863,
          "durationTicks": 240,
          "midi": 46,
          "name": "A#2",
          "ticks": 496320,
          "time": 413.6,
          "velocity": 0.8267716535433071
        },
        {
          "duration": 0.19666666666665833,
          "durationTicks": 236,
          "midi": 49,
          "name": "C#3",
          "ticks": 496560,
          "time": 413.8,
          "velocity": 0.8267716535433071
        },
        {
          "duration": 0.06666666666671972,
          "durationTicks": 80,
          "midi": 46,
          "name": "A#2",
          "ticks": 496800,
          "time": 414,
          "velocity": 0.8267716535433071
        },
        {
          "duration": 0.06666666666666288,
          "durationTicks": 80,
          "midi": 44,
          "name": "G#2",
          "ticks": 497040,
          "time": 414.20000000000005,
          "velocity": 0.8267716535433071
        },
        {
          "duration": 0.19999999999998863,
          "durationTicks": 240,
          "midi": 43,
          "name": "G2",
          "ticks": 497280,
          "time": 414.40000000000003,
          "velocity": 0.8267716535433071
        },
        {
          "duration": 0.1966666666666015,
          "durationTicks": 236,
          "midi": 46,
          "name": "A#2",
          "ticks": 497520,
          "time": 414.6,
          "velocity": 0.8267716535433071
        },
        {
          "duration": 0.06666666666671972,
          "durationTicks": 80,
          "midi": 43,
          "name": "G2",
          "ticks": 497760,
          "time": 414.8,
          "velocity": 0.8267716535433071
        },
        {
          "duration": 0.06666666666671972,
          "durationTicks": 80,
          "midi": 41,
          "name": "F2",
          "ticks": 498000,
          "time": 415,
          "velocity": 0.8267716535433071
        },
        {
          "duration": 0.1966666666666015,
          "durationTicks": 236,
          "midi": 40,
          "name": "E2",
          "ticks": 498240,
          "time": 415.20000000000005,
          "velocity": 0.8267716535433071
        },
        {
          "duration": 0.1966666666666015,
          "durationTicks": 236,
          "midi": 43,
          "name": "G2",
          "ticks": 498480,
          "time": 415.40000000000003,
          "velocity": 0.8267716535433071
        },
        {
          "duration": 0.1966666666666015,
          "durationTicks": 236,
          "midi": 36,
          "name": "C2",
          "ticks": 498720,
          "time": 415.6,
          "velocity": 0.8267716535433071
        },
        {
          "duration": 0.19666666666665833,
          "durationTicks": 236,
          "midi": 40,
          "name": "E2",
          "ticks": 498960,
          "time": 415.8,
          "velocity": 0.8267716535433071
        },
        {
          "duration": 0.3333333333333144,
          "durationTicks": 400,
          "midi": 41,
          "name": "F2",
          "ticks": 499200,
          "time": 416,
          "velocity": 0.8267716535433071
        },
        {
          "duration": 0.3333333333333144,
          "durationTicks": 400,
          "midi": 29,
          "name": "F1",
          "ticks": 499680,
          "time": 416.40000000000003,
          "velocity": 0.8267716535433071
        },
        {
          "duration": 0.19999999999998863,
          "durationTicks": 240,
          "midi": 44,
          "name": "G#2",
          "ticks": 500160,
          "time": 416.8,
          "velocity": 0.8267716535433071
        },
        {
          "duration": 0.19666666666665833,
          "durationTicks": 236,
          "midi": 48,
          "name": "C3",
          "ticks": 500400,
          "time": 417,
          "velocity": 0.8267716535433071
        },
        {
          "duration": 0.06666666666666288,
          "durationTicks": 80,
          "midi": 44,
          "name": "G#2",
          "ticks": 500640,
          "time": 417.20000000000005,
          "velocity": 0.8267716535433071
        },
        {
          "duration": 0.06666666666666288,
          "durationTicks": 80,
          "midi": 43,
          "name": "G2",
          "ticks": 500880,
          "time": 417.40000000000003,
          "velocity": 0.8267716535433071
        },
        {
          "duration": 0.19999999999998863,
          "durationTicks": 240,
          "midi": 41,
          "name": "F2",
          "ticks": 501120,
          "time": 417.6,
          "velocity": 0.8267716535433071
        },
        {
          "duration": 0.19666666666665833,
          "durationTicks": 236,
          "midi": 44,
          "name": "G#2",
          "ticks": 501360,
          "time": 417.8,
          "velocity": 0.8267716535433071
        },
        {
          "duration": 0.06666666666671972,
          "durationTicks": 80,
          "midi": 41,
          "name": "F2",
          "ticks": 501600,
          "time": 418,
          "velocity": 0.8267716535433071
        },
        {
          "duration": 0.06666666666666288,
          "durationTicks": 80,
          "midi": 39,
          "name": "D#2",
          "ticks": 501840,
          "time": 418.20000000000005,
          "velocity": 0.8267716535433071
        },
        {
          "duration": 0.1966666666666015,
          "durationTicks": 236,
          "midi": 38,
          "name": "D2",
          "ticks": 502080,
          "time": 418.40000000000003,
          "velocity": 0.8267716535433071
        },
        {
          "duration": 0.1966666666666015,
          "durationTicks": 236,
          "midi": 41,
          "name": "F2",
          "ticks": 502320,
          "time": 418.6,
          "velocity": 0.8267716535433071
        },
        {
          "duration": 0.19666666666665833,
          "durationTicks": 236,
          "midi": 34,
          "name": "A#1",
          "ticks": 502560,
          "time": 418.8,
          "velocity": 0.8267716535433071
        },
        {
          "duration": 0.19666666666665833,
          "durationTicks": 236,
          "midi": 38,
          "name": "D2",
          "ticks": 502800,
          "time": 419,
          "velocity": 0.8267716535433071
        },
        {
          "duration": 0.33333333333325754,
          "durationTicks": 400,
          "midi": 39,
          "name": "D#2",
          "ticks": 503040,
          "time": 419.20000000000005,
          "velocity": 0.8267716535433071
        },
        {
          "duration": 0.19666666666665833,
          "durationTicks": 236,
          "midi": 51,
          "name": "D#3",
          "ticks": 503760,
          "time": 419.8,
          "velocity": 0.8267716535433071
        },
        {
          "duration": 0.20000000000004547,
          "durationTicks": 240,
          "midi": 48,
          "name": "C3",
          "ticks": 504000,
          "time": 420,
          "velocity": 0.8267716535433071
        },
        {
          "duration": 0.1966666666666015,
          "durationTicks": 236,
          "midi": 51,
          "name": "D#3",
          "ticks": 504240,
          "time": 420.20000000000005,
          "velocity": 0.8267716535433071
        },
        {
          "duration": 0.06666666666666288,
          "durationTicks": 80,
          "midi": 44,
          "name": "G#2",
          "ticks": 504480,
          "time": 420.40000000000003,
          "velocity": 0.8267716535433071
        },
        {
          "duration": 0.06666666666671972,
          "durationTicks": 80,
          "midi": 48,
          "name": "C3",
          "ticks": 504720,
          "time": 420.6,
          "velocity": 0.8267716535433071
        },
        {
          "duration": 0.3333333333333144,
          "durationTicks": 400,
          "midi": 50,
          "name": "D3",
          "ticks": 504960,
          "time": 420.8,
          "velocity": 0.8267716535433071
        },
        {
          "duration": 0.1966666666666015,
          "durationTicks": 236,
          "midi": 50,
          "name": "D3",
          "ticks": 505680,
          "time": 421.40000000000003,
          "velocity": 0.8267716535433071
        },
        {
          "duration": 0.19999999999998863,
          "durationTicks": 240,
          "midi": 47,
          "name": "B2",
          "ticks": 505920,
          "time": 421.6,
          "velocity": 0.8267716535433071
        },
        {
          "duration": 0.19666666666665833,
          "durationTicks": 236,
          "midi": 50,
          "name": "D3",
          "ticks": 506160,
          "time": 421.8,
          "velocity": 0.8267716535433071
        },
        {
          "duration": 0.06666666666671972,
          "durationTicks": 80,
          "midi": 43,
          "name": "G2",
          "ticks": 506400,
          "time": 422,
          "velocity": 0.8267716535433071
        },
        {
          "duration": 0.06666666666666288,
          "durationTicks": 80,
          "midi": 47,
          "name": "B2",
          "ticks": 506640,
          "time": 422.20000000000005,
          "velocity": 0.8267716535433071
        },
        {
          "duration": 0.3333333333333144,
          "durationTicks": 400,
          "midi": 48,
          "name": "C3",
          "ticks": 506880,
          "time": 422.40000000000003,
          "velocity": 0.8267716535433071
        },
        {
          "duration": 0.19666666666665833,
          "durationTicks": 236,
          "midi": 55,
          "name": "G3",
          "ticks": 507600,
          "time": 423,
          "velocity": 0.8267716535433071
        },
        {
          "duration": 0.19999999999998863,
          "durationTicks": 240,
          "midi": 51,
          "name": "D#3",
          "ticks": 507840,
          "time": 423.20000000000005,
          "velocity": 0.8267716535433071
        },
        {
          "duration": 0.1966666666666015,
          "durationTicks": 236,
          "midi": 55,
          "name": "G3",
          "ticks": 508080,
          "time": 423.40000000000003,
          "velocity": 0.8267716535433071
        },
        {
          "duration": 0.06666666666671972,
          "durationTicks": 80,
          "midi": 51,
          "name": "D#3",
          "ticks": 508320,
          "time": 423.6,
          "velocity": 0.8267716535433071
        },
        {
          "duration": 0.06666666666671972,
          "durationTicks": 80,
          "midi": 50,
          "name": "D3",
          "ticks": 508560,
          "time": 423.8,
          "velocity": 0.8267716535433071
        },
        {
          "duration": 0.20000000000004547,
          "durationTicks": 240,
          "midi": 48,
          "name": "C3",
          "ticks": 508800,
          "time": 424,
          "velocity": 0.8267716535433071
        },
        {
          "duration": 0.1966666666666015,
          "durationTicks": 236,
          "midi": 51,
          "name": "D#3",
          "ticks": 509040,
          "time": 424.20000000000005,
          "velocity": 0.8267716535433071
        },
        {
          "duration": 0.06666666666666288,
          "durationTicks": 80,
          "midi": 48,
          "name": "C3",
          "ticks": 509280,
          "time": 424.40000000000003,
          "velocity": 0.8267716535433071
        },
        {
          "duration": 0.06666666666671972,
          "durationTicks": 80,
          "midi": 46,
          "name": "A#2",
          "ticks": 509520,
          "time": 424.6,
          "velocity": 0.8267716535433071
        },
        {
          "duration": 0.06666666666671972,
          "durationTicks": 80,
          "midi": 45,
          "name": "A2",
          "ticks": 509760,
          "time": 424.8,
          "velocity": 0.8267716535433071
        },
        {
          "duration": 0.06666666666671972,
          "durationTicks": 80,
          "midi": 48,
          "name": "C3",
          "ticks": 510000,
          "time": 425,
          "velocity": 0.8267716535433071
        },
        {
          "duration": 0.06666666666666288,
          "durationTicks": 80,
          "midi": 38,
          "name": "D2",
          "ticks": 510240,
          "time": 425.20000000000005,
          "velocity": 0.8267716535433071
        },
        {
          "duration": 0.06666666666666288,
          "durationTicks": 80,
          "midi": 42,
          "name": "F#2",
          "ticks": 510480,
          "time": 425.40000000000003,
          "velocity": 0.8267716535433071
        },
        {
          "duration": 0.6000000000000227,
          "durationTicks": 720,
          "midi": 43,
          "name": "G2",
          "ticks": 510720,
          "time": 425.6,
          "velocity": 0.8267716535433071
        },
        {
          "duration": 0.1966666666666015,
          "durationTicks": 236,
          "midi": 46,
          "name": "A#2",
          "ticks": 511440,
          "time": 426.20000000000005,
          "velocity": 0.8267716535433071
        },
        {
          "duration": 0.5999999999999659,
          "durationTicks": 720,
          "midi": 39,
          "name": "D#2",
          "ticks": 511680,
          "time": 426.40000000000003,
          "velocity": 0.8267716535433071
        },
        {
          "duration": 0.19666666666665833,
          "durationTicks": 236,
          "midi": 48,
          "name": "C3",
          "ticks": 512400,
          "time": 427,
          "velocity": 0.8267716535433071
        },
        {
          "duration": 0.19999999999998863,
          "durationTicks": 240,
          "midi": 45,
          "name": "A2",
          "ticks": 512640,
          "time": 427.20000000000005,
          "velocity": 0.8267716535433071
        },
        {
          "duration": 0.1966666666666015,
          "durationTicks": 236,
          "midi": 51,
          "name": "D#3",
          "ticks": 512880,
          "time": 427.40000000000003,
          "velocity": 0.8267716535433071
        },
        {
          "duration": 0.06666666666671972,
          "durationTicks": 80,
          "midi": 48,
          "name": "C3",
          "ticks": 513120,
          "time": 427.6,
          "velocity": 0.8267716535433071
        },
        {
          "duration": 0.06666666666671972,
          "durationTicks": 80,
          "midi": 45,
          "name": "A2",
          "ticks": 513360,
          "time": 427.8,
          "velocity": 0.8267716535433071
        },
        {
          "duration": 0.06666666666671972,
          "durationTicks": 80,
          "midi": 42,
          "name": "F#2",
          "ticks": 513600,
          "time": 428,
          "velocity": 0.8267716535433071
        },
        {
          "duration": 0.06666666666666288,
          "durationTicks": 80,
          "midi": 43,
          "name": "G2",
          "ticks": 513840,
          "time": 428.20000000000005,
          "velocity": 0.8267716535433071
        },
        {
          "duration": 0.06666666666666288,
          "durationTicks": 80,
          "midi": 45,
          "name": "A2",
          "ticks": 514080,
          "time": 428.40000000000003,
          "velocity": 0.8267716535433071
        },
        {
          "duration": 0.06666666666671972,
          "durationTicks": 80,
          "midi": 46,
          "name": "A#2",
          "ticks": 514320,
          "time": 428.6,
          "velocity": 0.8267716535433071
        },
        {
          "duration": 0.10000000000002274,
          "durationTicks": 120,
          "midi": 43,
          "name": "G2",
          "ticks": 514560,
          "time": 428.8,
          "velocity": 0.8267716535433071
        },
        {
          "duration": 0.0999999999999659,
          "durationTicks": 120,
          "midi": 43,
          "name": "G2",
          "ticks": 515040,
          "time": 429.20000000000005,
          "velocity": 0.8267716535433071
        },
        {
          "duration": 0.10000000000002274,
          "durationTicks": 120,
          "midi": 40,
          "name": "E2",
          "ticks": 516000,
          "time": 430,
          "velocity": 0.8267716535433071
        },
        {
          "duration": 0.10000000000002274,
          "durationTicks": 120,
          "midi": 37,
          "name": "C#2",
          "ticks": 516960,
          "time": 430.8,
          "velocity": 0.8267716535433071
        },
        {
          "duration": 0.10000000000002274,
          "durationTicks": 120,
          "midi": 33,
          "name": "A1",
          "ticks": 517920,
          "time": 431.6,
          "velocity": 0.8267716535433071
        },
        {
          "duration": 0.20000000000004547,
          "durationTicks": 240,
          "midi": 50,
          "name": "D3",
          "ticks": 518400,
          "time": 432,
          "velocity": 0.8267716535433071
        },
        {
          "duration": 0.1966666666666015,
          "durationTicks": 236,
          "midi": 53,
          "name": "F3",
          "ticks": 518640,
          "time": 432.20000000000005,
          "velocity": 0.8267716535433071
        },
        {
          "duration": 0.06666666666666288,
          "durationTicks": 80,
          "midi": 47,
          "name": "B2",
          "ticks": 518880,
          "time": 432.40000000000003,
          "velocity": 0.8267716535433071
        },
        {
          "duration": 0.06666666666671972,
          "durationTicks": 80,
          "midi": 50,
          "name": "D3",
          "ticks": 519120,
          "time": 432.6,
          "velocity": 0.8267716535433071
        },
        {
          "duration": 0.06666666666671972,
          "durationTicks": 80,
          "midi": 44,
          "name": "G#2",
          "ticks": 519360,
          "time": 432.8,
          "velocity": 0.8267716535433071
        },
        {
          "duration": 0.06666666666671972,
          "durationTicks": 80,
          "midi": 47,
          "name": "B2",
          "ticks": 519600,
          "time": 433,
          "velocity": 0.8267716535433071
        },
        {
          "duration": 0.06666666666666288,
          "durationTicks": 80,
          "midi": 40,
          "name": "E2",
          "ticks": 519840,
          "time": 433.20000000000005,
          "velocity": 0.8267716535433071
        },
        {
          "duration": 0.06666666666666288,
          "durationTicks": 80,
          "midi": 52,
          "name": "E3",
          "ticks": 520080,
          "time": 433.40000000000003,
          "velocity": 0.8267716535433071
        },
        {
          "duration": 0.10000000000002274,
          "durationTicks": 120,
          "midi": 48,
          "name": "C3",
          "ticks": 520320,
          "time": 433.6,
          "velocity": 0.8267716535433071
        },
        {
          "duration": 0.10000000000002274,
          "durationTicks": 120,
          "midi": 45,
          "name": "A2",
          "ticks": 520800,
          "time": 434,
          "velocity": 0.8267716535433071
        },
        {
          "duration": 0.0999999999999659,
          "durationTicks": 120,
          "midi": 43,
          "name": "G2",
          "ticks": 521280,
          "time": 434.40000000000003,
          "velocity": 0.8267716535433071
        },
        {
          "duration": 0.10000000000002274,
          "durationTicks": 120,
          "midi": 41,
          "name": "F2",
          "ticks": 521760,
          "time": 434.8,
          "velocity": 0.8267716535433071
        },
        {
          "duration": 0.33333333333325754,
          "durationTicks": 400,
          "midi": 40,
          "name": "E2",
          "ticks": 522240,
          "time": 435.20000000000005,
          "velocity": 0.8267716535433071
        },
        {
          "duration": 1.6000000000000227,
          "durationTicks": 1920,
          "midi": 52,
          "name": "E3",
          "ticks": 529920,
          "time": 441.6,
          "velocity": 0.4015748031496063
        },
        {
          "duration": 1.599999999999966,
          "durationTicks": 1920,
          "midi": 50,
          "name": "D3",
          "ticks": 531840,
          "time": 443.20000000000005,
          "velocity": 0.4015748031496063
        },
        {
          "duration": 1.6000000000000227,
          "durationTicks": 1920,
          "midi": 49,
          "name": "C#3",
          "ticks": 533760,
          "time": 444.8,
          "velocity": 0.4015748031496063
        },
        {
          "duration": 0.3333333333333144,
          "durationTicks": 400,
          "midi": 48,
          "name": "C3",
          "ticks": 535680,
          "time": 446.40000000000003,
          "velocity": 0.4015748031496063
        },
        {
          "duration": 0.3333333333333144,
          "durationTicks": 400,
          "midi": 41,
          "name": "F2",
          "ticks": 537600,
          "time": 448,
          "velocity": 0.4015748031496063
        },
        {
          "duration": 0.06666666666671972,
          "durationTicks": 80,
          "midi": 36,
          "name": "C2",
          "ticks": 538320,
          "time": 448.6,
          "velocity": 0.4015748031496063
        },
        {
          "duration": 0.06666666666660603,
          "durationTicks": 80,
          "midi": 38,
          "name": "D2",
          "ticks": 538400,
          "time": 448.66666666666674,
          "velocity": 0.4015748031496063
        },
        {
          "duration": 0.06666666666666288,
          "durationTicks": 80,
          "midi": 40,
          "name": "E2",
          "ticks": 538480,
          "time": 448.73333333333335,
          "velocity": 0.4015748031496063
        },
        {
          "duration": 0.3333333333333144,
          "durationTicks": 400,
          "midi": 41,
          "name": "F2",
          "ticks": 538560,
          "time": 448.8,
          "velocity": 0.4015748031496063
        },
        {
          "duration": 0.06666666666666288,
          "durationTicks": 80,
          "midi": 36,
          "name": "C2",
          "ticks": 539280,
          "time": 449.40000000000003,
          "velocity": 0.4015748031496063
        },
        {
          "duration": 0.06666666666660603,
          "durationTicks": 80,
          "midi": 38,
          "name": "D2",
          "ticks": 539360,
          "time": 449.4666666666667,
          "velocity": 0.4015748031496063
        },
        {
          "duration": 0.06666666666671972,
          "durationTicks": 80,
          "midi": 40,
          "name": "E2",
          "ticks": 539440,
          "time": 449.5333333333333,
          "velocity": 0.4015748031496063
        },
        {
          "duration": 0.3333333333333144,
          "durationTicks": 400,
          "midi": 41,
          "name": "F2",
          "ticks": 539520,
          "time": 449.6,
          "velocity": 0.4015748031496063
        },
        {
          "duration": 0.3333333333333144,
          "durationTicks": 400,
          "midi": 36,
          "name": "C2",
          "ticks": 545280,
          "time": 454.40000000000003,
          "velocity": 0.4015748031496063
        },
        {
          "duration": 0.06666666666671972,
          "durationTicks": 80,
          "midi": 31,
          "name": "G1",
          "ticks": 546000,
          "time": 455,
          "velocity": 0.4015748031496063
        },
        {
          "duration": 0.06666666666660603,
          "durationTicks": 80,
          "midi": 33,
          "name": "A1",
          "ticks": 546080,
          "time": 455.0666666666667,
          "velocity": 0.4015748031496063
        },
        {
          "duration": 0.06666666666671972,
          "durationTicks": 80,
          "midi": 35,
          "name": "B1",
          "ticks": 546160,
          "time": 455.1333333333333,
          "velocity": 0.4015748031496063
        },
        {
          "duration": 0.33333333333325754,
          "durationTicks": 400,
          "midi": 36,
          "name": "C2",
          "ticks": 546240,
          "time": 455.20000000000005,
          "velocity": 0.4015748031496063
        },
        {
          "duration": 0.06666666666671972,
          "durationTicks": 80,
          "midi": 31,
          "name": "G1",
          "ticks": 546960,
          "time": 455.8,
          "velocity": 0.4015748031496063
        },
        {
          "duration": 0.06666666666660603,
          "durationTicks": 80,
          "midi": 33,
          "name": "A1",
          "ticks": 547040,
          "time": 455.86666666666673,
          "velocity": 0.4015748031496063
        },
        {
          "duration": 0.06666666666666288,
          "durationTicks": 80,
          "midi": 35,
          "name": "B1",
          "ticks": 547120,
          "time": 455.93333333333334,
          "velocity": 0.4015748031496063
        },
        {
          "duration": 0.3333333333333144,
          "durationTicks": 400,
          "midi": 36,
          "name": "C2",
          "ticks": 547200,
          "time": 456,
          "velocity": 0.4015748031496063
        },
        {
          "duration": 0.3333333333333144,
          "durationTicks": 400,
          "midi": 38,
          "name": "D2",
          "ticks": 549120,
          "time": 457.6,
          "velocity": 0.4015748031496063
        },
        {
          "duration": 0.06666666666666288,
          "durationTicks": 80,
          "midi": 33,
          "name": "A1",
          "ticks": 549840,
          "time": 458.20000000000005,
          "velocity": 0.4015748031496063
        },
        {
          "duration": 0.06666666666660603,
          "durationTicks": 80,
          "midi": 35,
          "name": "B1",
          "ticks": 549920,
          "time": 458.2666666666667,
          "velocity": 0.4015748031496063
        },
        {
          "duration": 0.06666666666671972,
          "durationTicks": 80,
          "midi": 37,
          "name": "C#2",
          "ticks": 550000,
          "time": 458.3333333333333,
          "velocity": 0.4015748031496063
        },
        {
          "duration": 0.3333333333333144,
          "durationTicks": 400,
          "midi": 38,
          "name": "D2",
          "ticks": 550080,
          "time": 458.40000000000003,
          "velocity": 0.4015748031496063
        },
        {
          "duration": 0.06666666666671972,
          "durationTicks": 80,
          "midi": 33,
          "name": "A1",
          "ticks": 550800,
          "time": 459,
          "velocity": 0.4015748031496063
        },
        {
          "duration": 0.06666666666660603,
          "durationTicks": 80,
          "midi": 35,
          "name": "B1",
          "ticks": 550880,
          "time": 459.0666666666667,
          "velocity": 0.4015748031496063
        },
        {
          "duration": 0.06666666666671972,
          "durationTicks": 80,
          "midi": 37,
          "name": "C#2",
          "ticks": 550960,
          "time": 459.1333333333333,
          "velocity": 0.4015748031496063
        },
        {
          "duration": 0.33333333333325754,
          "durationTicks": 400,
          "midi": 38,
          "name": "D2",
          "ticks": 551040,
          "time": 459.20000000000005,
          "velocity": 0.4015748031496063
        },
        {
          "duration": 0.3333333333333144,
          "durationTicks": 400,
          "midi": 40,
          "name": "E2",
          "ticks": 552960,
          "time": 460.8,
          "velocity": 0.4015748031496063
        },
        {
          "duration": 0.06666666666666288,
          "durationTicks": 80,
          "midi": 35,
          "name": "B1",
          "ticks": 553680,
          "time": 461.40000000000003,
          "velocity": 0.4015748031496063
        },
        {
          "duration": 0.06666666666660603,
          "durationTicks": 80,
          "midi": 37,
          "name": "C#2",
          "ticks": 553760,
          "time": 461.4666666666667,
          "velocity": 0.4015748031496063
        },
        {
          "duration": 0.06666666666671972,
          "durationTicks": 80,
          "midi": 39,
          "name": "D#2",
          "ticks": 553840,
          "time": 461.5333333333333,
          "velocity": 0.4015748031496063
        },
        {
          "duration": 0.3333333333333144,
          "durationTicks": 400,
          "midi": 40,
          "name": "E2",
          "ticks": 553920,
          "time": 461.6,
          "velocity": 0.4015748031496063
        },
        {
          "duration": 0.06666666666666288,
          "durationTicks": 80,
          "midi": 35,
          "name": "B1",
          "ticks": 554640,
          "time": 462.20000000000005,
          "velocity": 0.4015748031496063
        },
        {
          "duration": 0.06666666666660603,
          "durationTicks": 80,
          "midi": 37,
          "name": "C#2",
          "ticks": 554720,
          "time": 462.2666666666667,
          "velocity": 0.4015748031496063
        },
        {
          "duration": 0.06666666666671972,
          "durationTicks": 80,
          "midi": 39,
          "name": "D#2",
          "ticks": 554800,
          "time": 462.3333333333333,
          "velocity": 0.4015748031496063
        },
        {
          "duration": 0.3333333333333144,
          "durationTicks": 400,
          "midi": 40,
          "name": "E2",
          "ticks": 554880,
          "time": 462.40000000000003,
          "velocity": 0.4015748031496063
        },
        {
          "duration": 0.10000000000002274,
          "durationTicks": 120,
          "midi": 33,
          "name": "A1",
          "ticks": 556800,
          "time": 464,
          "velocity": 0.8267716535433071
        },
        {
          "duration": 0.0999999999999659,
          "durationTicks": 120,
          "midi": 45,
          "name": "A2",
          "ticks": 557280,
          "time": 464.40000000000003,
          "velocity": 0.8267716535433071
        },
        {
          "duration": 0.0999999999999659,
          "durationTicks": 120,
          "midi": 45,
          "name": "A2",
          "ticks": 558240,
          "time": 465.20000000000005,
          "velocity": 0.8267716535433071
        },
        {
          "duration": 0.10000000000002274,
          "durationTicks": 120,
          "midi": 45,
          "name": "A2",
          "ticks": 559200,
          "time": 466,
          "velocity": 0.8267716535433071
        },
        {
          "duration": 0.10000000000002274,
          "durationTicks": 120,
          "midi": 45,
          "name": "A2",
          "ticks": 560160,
          "time": 466.8,
          "velocity": 0.8267716535433071
        },
        {
          "duration": 0.0999999999999659,
          "durationTicks": 120,
          "midi": 44,
          "name": "G#2",
          "ticks": 560640,
          "time": 467.20000000000005,
          "velocity": 0.8267716535433071
        },
        {
          "duration": 0.10000000000002274,
          "durationTicks": 120,
          "midi": 43,
          "name": "G2",
          "ticks": 561120,
          "time": 467.6,
          "velocity": 0.8267716535433071
        },
        {
          "duration": 0.0999999999999659,
          "durationTicks": 120,
          "midi": 43,
          "name": "G2",
          "ticks": 562080,
          "time": 468.40000000000003,
          "velocity": 0.8267716535433071
        },
        {
          "duration": 0.0999999999999659,
          "durationTicks": 120,
          "midi": 43,
          "name": "G2",
          "ticks": 563040,
          "time": 469.20000000000005,
          "velocity": 0.8267716535433071
        },
        {
          "duration": 0.10000000000002274,
          "durationTicks": 120,
          "midi": 43,
          "name": "G2",
          "ticks": 564000,
          "time": 470,
          "velocity": 0.8267716535433071
        },
        {
          "duration": 0.0999999999999659,
          "durationTicks": 120,
          "midi": 42,
          "name": "F#2",
          "ticks": 564480,
          "time": 470.40000000000003,
          "velocity": 0.8267716535433071
        },
        {
          "duration": 0.10000000000002274,
          "durationTicks": 120,
          "midi": 41,
          "name": "F2",
          "ticks": 564960,
          "time": 470.8,
          "velocity": 0.8267716535433071
        },
        {
          "duration": 0.10000000000002274,
          "durationTicks": 120,
          "midi": 41,
          "name": "F2",
          "ticks": 565920,
          "time": 471.6,
          "velocity": 0.8267716535433071
        },
        {
          "duration": 0.0999999999999659,
          "durationTicks": 120,
          "midi": 41,
          "name": "F2",
          "ticks": 566880,
          "time": 472.40000000000003,
          "velocity": 0.8267716535433071
        },
        {
          "duration": 0.0999999999999659,
          "durationTicks": 120,
          "midi": 41,
          "name": "F2",
          "ticks": 567840,
          "time": 473.20000000000005,
          "velocity": 0.8267716535433071
        },
        {
          "duration": 0.10000000000002274,
          "durationTicks": 120,
          "midi": 40,
          "name": "E2",
          "ticks": 568320,
          "time": 473.6,
          "velocity": 0.8267716535433071
        },
        {
          "duration": 0.10000000000002274,
          "durationTicks": 120,
          "midi": 39,
          "name": "D#2",
          "ticks": 568800,
          "time": 474,
          "velocity": 0.8267716535433071
        },
        {
          "duration": 0.10000000000002274,
          "durationTicks": 120,
          "midi": 39,
          "name": "D#2",
          "ticks": 569760,
          "time": 474.8,
          "velocity": 0.8267716535433071
        },
        {
          "duration": 0.10000000000002274,
          "durationTicks": 120,
          "midi": 32,
          "name": "G#1",
          "ticks": 570720,
          "time": 475.6,
          "velocity": 0.8267716535433071
        },
        {
          "duration": 0.0999999999999659,
          "durationTicks": 120,
          "midi": 44,
          "name": "G#2",
          "ticks": 571680,
          "time": 476.40000000000003,
          "velocity": 0.8267716535433071
        },
        {
          "duration": 0.3333333333333144,
          "durationTicks": 400,
          "midi": 43,
          "name": "G2",
          "ticks": 572160,
          "time": 476.8,
          "velocity": 0.8267716535433071
        },
        {
          "duration": 0.05000000000001137,
          "durationTicks": 60,
          "midi": 43,
          "name": "G2",
          "ticks": 572880,
          "time": 477.40000000000003,
          "velocity": 0.8267716535433071
        },
        {
          "duration": 0.049999999999954525,
          "durationTicks": 60,
          "midi": 45,
          "name": "A2",
          "ticks": 572940,
          "time": 477.45000000000005,
          "velocity": 0.8267716535433071
        },
        {
          "duration": 0.05000000000001137,
          "durationTicks": 60,
          "midi": 47,
          "name": "B2",
          "ticks": 573000,
          "time": 477.5,
          "velocity": 0.8267716535433071
        },
        {
          "duration": 0.05000000000001137,
          "durationTicks": 60,
          "midi": 48,
          "name": "C3",
          "ticks": 573060,
          "time": 477.55,
          "velocity": 0.8267716535433071
        },
        {
          "duration": 0.3333333333333144,
          "durationTicks": 400,
          "midi": 50,
          "name": "D3",
          "ticks": 573120,
          "time": 477.6,
          "velocity": 0.8267716535433071
        },
        {
          "duration": 0.049999999999954525,
          "durationTicks": 60,
          "midi": 50,
          "name": "D3",
          "ticks": 573840,
          "time": 478.20000000000005,
          "velocity": 0.8267716535433071
        },
        {
          "duration": 0.05000000000001137,
          "durationTicks": 60,
          "midi": 48,
          "name": "C3",
          "ticks": 573900,
          "time": 478.25,
          "velocity": 0.8267716535433071
        },
        {
          "duration": 0.05000000000001137,
          "durationTicks": 60,
          "midi": 47,
          "name": "B2",
          "ticks": 573960,
          "time": 478.3,
          "velocity": 0.8267716535433071
        },
        {
          "duration": 0.05000000000001137,
          "durationTicks": 60,
          "midi": 45,
          "name": "A2",
          "ticks": 574020,
          "time": 478.35,
          "velocity": 0.8267716535433071
        },
        {
          "duration": 0.3333333333333144,
          "durationTicks": 400,
          "midi": 43,
          "name": "G2",
          "ticks": 574080,
          "time": 478.40000000000003,
          "velocity": 0.8267716535433071
        },
        {
          "duration": 0.05000000000001137,
          "durationTicks": 60,
          "midi": 43,
          "name": "G2",
          "ticks": 574800,
          "time": 479,
          "velocity": 0.8267716535433071
        },
        {
          "duration": 0.05000000000001137,
          "durationTicks": 60,
          "midi": 45,
          "name": "A2",
          "ticks": 574860,
          "time": 479.05,
          "velocity": 0.8267716535433071
        },
        {
          "duration": 0.05000000000001137,
          "durationTicks": 60,
          "midi": 47,
          "name": "B2",
          "ticks": 574920,
          "time": 479.1,
          "velocity": 0.8267716535433071
        },
        {
          "duration": 0.05000000000001137,
          "durationTicks": 60,
          "midi": 48,
          "name": "C3",
          "ticks": 574980,
          "time": 479.15000000000003,
          "velocity": 0.8267716535433071
        },
        {
          "duration": 0.33333333333325754,
          "durationTicks": 400,
          "midi": 50,
          "name": "D3",
          "ticks": 575040,
          "time": 479.20000000000005,
          "velocity": 0.8267716535433071
        },
        {
          "duration": 0.05000000000001137,
          "durationTicks": 60,
          "midi": 50,
          "name": "D3",
          "ticks": 575760,
          "time": 479.8,
          "velocity": 0.8267716535433071
        },
        {
          "duration": 0.05000000000001137,
          "durationTicks": 60,
          "midi": 48,
          "name": "C3",
          "ticks": 575820,
          "time": 479.85,
          "velocity": 0.8267716535433071
        },
        {
          "duration": 0.05000000000001137,
          "durationTicks": 60,
          "midi": 47,
          "name": "B2",
          "ticks": 575880,
          "time": 479.90000000000003,
          "velocity": 0.8267716535433071
        },
        {
          "duration": 0.049999999999954525,
          "durationTicks": 60,
          "midi": 45,
          "name": "A2",
          "ticks": 575940,
          "time": 479.95000000000005,
          "velocity": 0.8267716535433071
        },
        {
          "duration": 0.3333333333333144,
          "durationTicks": 400,
          "midi": 43,
          "name": "G2",
          "ticks": 576000,
          "time": 480,
          "velocity": 0.8267716535433071
        },
        {
          "duration": 0.06666666666671972,
          "durationTicks": 80,
          "midi": 52,
          "name": "E3",
          "ticks": 589200,
          "time": 491,
          "velocity": 0.4015748031496063
        },
        {
          "duration": 0.06666666666666288,
          "durationTicks": 80,
          "midi": 50,
          "name": "D3",
          "ticks": 589440,
          "time": 491.20000000000005,
          "velocity": 0.4015748031496063
        },
        {
          "duration": 0.06666666666666288,
          "durationTicks": 80,
          "midi": 48,
          "name": "C3",
          "ticks": 589680,
          "time": 491.40000000000003,
          "velocity": 0.4015748031496063
        },
        {
          "duration": 0.06666666666671972,
          "durationTicks": 80,
          "midi": 47,
          "name": "B2",
          "ticks": 589920,
          "time": 491.6,
          "velocity": 0.4015748031496063
        },
        {
          "duration": 0.06666666666671972,
          "durationTicks": 80,
          "midi": 45,
          "name": "A2",
          "ticks": 590160,
          "time": 491.8,
          "velocity": 0.4015748031496063
        },
        {
          "duration": 0.06666666666671972,
          "durationTicks": 80,
          "midi": 43,
          "name": "G2",
          "ticks": 590400,
          "time": 492,
          "velocity": 0.4015748031496063
        },
        {
          "duration": 0.06666666666666288,
          "durationTicks": 80,
          "midi": 41,
          "name": "F2",
          "ticks": 590640,
          "time": 492.20000000000005,
          "velocity": 0.4015748031496063
        },
        {
          "duration": 0.06666666666666288,
          "durationTicks": 80,
          "midi": 40,
          "name": "E2",
          "ticks": 590880,
          "time": 492.40000000000003,
          "velocity": 0.4015748031496063
        },
        {
          "duration": 0.06666666666671972,
          "durationTicks": 80,
          "midi": 38,
          "name": "D2",
          "ticks": 591120,
          "time": 492.6,
          "velocity": 0.4015748031496063
        },
        {
          "duration": 0.3333333333333144,
          "durationTicks": 400,
          "midi": 36,
          "name": "C2",
          "ticks": 591360,
          "time": 492.8,
          "velocity": 0.8267716535433071
        },
        {
          "duration": 0.06666666666666288,
          "durationTicks": 80,
          "midi": 31,
          "name": "G1",
          "ticks": 592080,
          "time": 493.40000000000003,
          "velocity": 0.8267716535433071
        },
        {
          "duration": 0.06666666666660603,
          "durationTicks": 80,
          "midi": 33,
          "name": "A1",
          "ticks": 592160,
          "time": 493.4666666666667,
          "velocity": 0.8267716535433071
        },
        {
          "duration": 0.06666666666671972,
          "durationTicks": 80,
          "midi": 35,
          "name": "B1",
          "ticks": 592240,
          "time": 493.5333333333333,
          "velocity": 0.8267716535433071
        },
        {
          "duration": 0.3333333333333144,
          "durationTicks": 400,
          "midi": 36,
          "name": "C2",
          "ticks": 592320,
          "time": 493.6,
          "velocity": 0.8267716535433071
        },
        {
          "duration": 0.06666666666666288,
          "durationTicks": 80,
          "midi": 31,
          "name": "G1",
          "ticks": 593040,
          "time": 494.20000000000005,
          "velocity": 0.8267716535433071
        },
        {
          "duration": 0.06666666666660603,
          "durationTicks": 80,
          "midi": 33,
          "name": "A1",
          "ticks": 593120,
          "time": 494.2666666666667,
          "velocity": 0.8267716535433071
        },
        {
          "duration": 0.06666666666671972,
          "durationTicks": 80,
          "midi": 35,
          "name": "B1",
          "ticks": 593200,
          "time": 494.3333333333333,
          "velocity": 0.8267716535433071
        },
        {
          "duration": 0.3333333333333144,
          "durationTicks": 400,
          "midi": 36,
          "name": "C2",
          "ticks": 593280,
          "time": 494.40000000000003,
          "velocity": 0.8267716535433071
        },
        {
          "duration": 0.8000000000000114,
          "durationTicks": 960,
          "midi": 50,
          "name": "D3",
          "ticks": 595200,
          "time": 496,
          "velocity": 0.4015748031496063
        },
        {
          "duration": 0.6999999999999886,
          "durationTicks": 840,
          "midi": 48,
          "name": "C3",
          "ticks": 596160,
          "time": 496.8,
          "velocity": 0.4015748031496063
        },
        {
          "duration": 1.1000000000000227,
          "durationTicks": 1320,
          "midi": 47,
          "name": "B2",
          "ticks": 597120,
          "time": 497.6,
          "velocity": 0.4015748031496063
        },
        {
          "duration": 0.33333333333325754,
          "durationTicks": 400,
          "midi": 43,
          "name": "G2",
          "ticks": 599040,
          "time": 499.20000000000005,
          "velocity": 0.8267716535433071
        },
        {
          "duration": 0.06666666666671972,
          "durationTicks": 80,
          "midi": 38,
          "name": "D2",
          "ticks": 599760,
          "time": 499.8,
          "velocity": 0.8267716535433071
        },
        {
          "duration": 0.06666666666660603,
          "durationTicks": 80,
          "midi": 40,
          "name": "E2",
          "ticks": 599840,
          "time": 499.86666666666673,
          "velocity": 0.8267716535433071
        },
        {
          "duration": 0.06666666666666288,
          "durationTicks": 80,
          "midi": 42,
          "name": "F#2",
          "ticks": 599920,
          "time": 499.93333333333334,
          "velocity": 0.8267716535433071
        },
        {
          "duration": 0.3333333333333144,
          "durationTicks": 400,
          "midi": 43,
          "name": "G2",
          "ticks": 600000,
          "time": 500,
          "velocity": 0.8267716535433071
        },
        {
          "duration": 0.06666666666671972,
          "durationTicks": 80,
          "midi": 38,
          "name": "D2",
          "ticks": 600720,
          "time": 500.6,
          "velocity": 0.8267716535433071
        },
        {
          "duration": 0.06666666666660603,
          "durationTicks": 80,
          "midi": 40,
          "name": "E2",
          "ticks": 600800,
          "time": 500.66666666666674,
          "velocity": 0.8267716535433071
        },
        {
          "duration": 0.06666666666666288,
          "durationTicks": 80,
          "midi": 42,
          "name": "F#2",
          "ticks": 600880,
          "time": 500.73333333333335,
          "velocity": 0.8267716535433071
        },
        {
          "duration": 0.3333333333333144,
          "durationTicks": 400,
          "midi": 43,
          "name": "G2",
          "ticks": 600960,
          "time": 500.8,
          "velocity": 0.8267716535433071
        },
        {
          "duration": 0.8000000000000114,
          "durationTicks": 960,
          "midi": 52,
          "name": "E3",
          "ticks": 602880,
          "time": 502.40000000000003,
          "velocity": 0.4015748031496063
        },
        {
          "duration": 0.6999999999999886,
          "durationTicks": 840,
          "midi": 50,
          "name": "D3",
          "ticks": 603840,
          "time": 503.20000000000005,
          "velocity": 0.4015748031496063
        },
        {
          "duration": 1.1000000000000227,
          "durationTicks": 1320,
          "midi": 48,
          "name": "C3",
          "ticks": 604800,
          "time": 504,
          "velocity": 0.4015748031496063
        },
        {
          "duration": 0.3333333333333144,
          "durationTicks": 400,
          "midi": 36,
          "name": "C2",
          "ticks": 606720,
          "time": 505.6,
          "velocity": 0.8267716535433071
        },
        {
          "duration": 0.3333333333333144,
          "durationTicks": 400,
          "midi": 48,
          "name": "C3",
          "ticks": 608160,
          "time": 506.8,
          "velocity": 0.8267716535433071
        },
        {
          "duration": 0.33333333333325754,
          "durationTicks": 400,
          "midi": 36,
          "name": "C2",
          "ticks": 608640,
          "time": 507.20000000000005,
          "velocity": 0.8267716535433071
        },
        {
          "duration": 0.3333333333333144,
          "durationTicks": 400,
          "midi": 48,
          "name": "C3",
          "ticks": 610080,
          "time": 508.40000000000003,
          "velocity": 0.8267716535433071
        },
        {
          "duration": 0.3333333333333144,
          "durationTicks": 400,
          "midi": 36,
          "name": "C2",
          "ticks": 610560,
          "time": 508.8,
          "velocity": 0.8267716535433071
        },
        {
          "duration": 0.3333333333333144,
          "durationTicks": 400,
          "midi": 48,
          "name": "C3",
          "ticks": 612000,
          "time": 510,
          "velocity": 0.8267716535433071
        },
        {
          "duration": 0.3333333333333144,
          "durationTicks": 400,
          "midi": 36,
          "name": "C2",
          "ticks": 612480,
          "time": 510.40000000000003,
          "velocity": 0.8267716535433071
        },
        {
          "duration": 0.3333333333333144,
          "durationTicks": 400,
          "midi": 48,
          "name": "C3",
          "ticks": 613920,
          "time": 511.6,
          "velocity": 0.8267716535433071
        },
        {
          "duration": 0.33333333333337123,
          "durationTicks": 400,
          "midi": 36,
          "name": "C2",
          "ticks": 614400,
          "time": 512,
          "velocity": 0.8267716535433071
        },
        {
          "duration": 0.33333333333325754,
          "durationTicks": 400,
          "midi": 48,
          "name": "C3",
          "ticks": 615840,
          "time": 513.2,
          "velocity": 0.8267716535433071
        },
        {
          "duration": 0.33333333333325754,
          "durationTicks": 400,
          "midi": 36,
          "name": "C2",
          "ticks": 616320,
          "time": 513.6,
          "velocity": 0.8267716535433071
        },
        {
          "duration": 0.33333333333325754,
          "durationTicks": 400,
          "midi": 48,
          "name": "C3",
          "ticks": 617760,
          "time": 514.8000000000001,
          "velocity": 0.8267716535433071
        },
        {
          "duration": 0.33333333333325754,
          "durationTicks": 400,
          "midi": 36,
          "name": "C2",
          "ticks": 618240,
          "time": 515.2,
          "velocity": 0.8267716535433071
        },
        {
          "duration": 0.33333333333337123,
          "durationTicks": 400,
          "midi": 43,
          "name": "G2",
          "ticks": 619200,
          "time": 516,
          "velocity": 0.8267716535433071
        },
        {
          "duration": 0.33333333333325754,
          "durationTicks": 400,
          "midi": 48,
          "name": "C3",
          "ticks": 620160,
          "time": 516.8000000000001,
          "velocity": 0.8267716535433071
        },
        {
          "duration": 0.33333333333325754,
          "durationTicks": 400,
          "midi": 43,
          "name": "G2",
          "ticks": 621120,
          "time": 517.6,
          "velocity": 0.8267716535433071
        },
        {
          "duration": 0.33333333333337123,
          "durationTicks": 400,
          "midi": 36,
          "name": "C2",
          "ticks": 622080,
          "time": 518.4,
          "velocity": 0.8267716535433071
        },
        {
          "duration": 0.1966666666666015,
          "durationTicks": 236,
          "midi": 43,
          "name": "G2",
          "ticks": 622560,
          "time": 518.8000000000001,
          "velocity": 0.8267716535433071
        },
        {
          "duration": 0.1966666666666015,
          "durationTicks": 236,
          "midi": 43,
          "name": "G2",
          "ticks": 622800,
          "time": 519,
          "velocity": 0.8267716535433071
        },
        {
          "duration": 0.1966666666666015,
          "durationTicks": 236,
          "midi": 48,
          "name": "C3",
          "ticks": 623040,
          "time": 519.2,
          "velocity": 0.8267716535433071
        },
        {
          "duration": 0.19666666666671517,
          "durationTicks": 236,
          "midi": 48,
          "name": "C3",
          "ticks": 623280,
          "time": 519.4,
          "velocity": 0.8267716535433071
        },
        {
          "duration": 0.1966666666666015,
          "durationTicks": 236,
          "midi": 43,
          "name": "G2",
          "ticks": 623520,
          "time": 519.6,
          "velocity": 0.8267716535433071
        },
        {
          "duration": 0.1966666666666015,
          "durationTicks": 236,
          "midi": 43,
          "name": "G2",
          "ticks": 623760,
          "time": 519.8000000000001,
          "velocity": 0.8267716535433071
        },
        {
          "duration": 0.1966666666666015,
          "durationTicks": 236,
          "midi": 48,
          "name": "C3",
          "ticks": 624000,
          "time": 520,
          "velocity": 0.8267716535433071
        },
        {
          "duration": 0.1966666666666015,
          "durationTicks": 236,
          "midi": 48,
          "name": "C3",
          "ticks": 624240,
          "time": 520.2,
          "velocity": 0.8267716535433071
        },
        {
          "duration": 0.19666666666671517,
          "durationTicks": 236,
          "midi": 43,
          "name": "G2",
          "ticks": 624480,
          "time": 520.4,
          "velocity": 0.8267716535433071
        },
        {
          "duration": 0.1966666666666015,
          "durationTicks": 236,
          "midi": 43,
          "name": "G2",
          "ticks": 624720,
          "time": 520.6,
          "velocity": 0.8267716535433071
        },
        {
          "duration": 0.1966666666666015,
          "durationTicks": 236,
          "midi": 40,
          "name": "E2",
          "ticks": 624960,
          "time": 520.8000000000001,
          "velocity": 0.8267716535433071
        },
        {
          "duration": 0.1966666666666015,
          "durationTicks": 236,
          "midi": 40,
          "name": "E2",
          "ticks": 625200,
          "time": 521,
          "velocity": 0.8267716535433071
        },
        {
          "duration": 0.1966666666666015,
          "durationTicks": 236,
          "midi": 36,
          "name": "C2",
          "ticks": 625440,
          "time": 521.2,
          "velocity": 0.8267716535433071
        },
        {
          "duration": 0.19666666666671517,
          "durationTicks": 236,
          "midi": 36,
          "name": "C2",
          "ticks": 625680,
          "time": 521.4,
          "velocity": 0.8267716535433071
        },
        {
          "duration": 0.33333333333325754,
          "durationTicks": 400,
          "midi": 31,
          "name": "G1",
          "ticks": 625920,
          "time": 521.6,
          "velocity": 0.8267716535433071
        },
        {
          "duration": 0.1966666666666015,
          "durationTicks": 236,
          "midi": 43,
          "name": "G2",
          "ticks": 626640,
          "time": 522.2,
          "velocity": 0.8267716535433071
        },
        {
          "duration": 0.33333333333337123,
          "durationTicks": 400,
          "midi": 48,
          "name": "C3",
          "ticks": 626880,
          "time": 522.4,
          "velocity": 0.8267716535433071
        },
        {
          "duration": 0.1966666666666015,
          "durationTicks": 236,
          "midi": 48,
          "name": "C3",
          "ticks": 627600,
          "time": 523,
          "velocity": 0.8267716535433071
        },
        {
          "duration": 0.33333333333325754,
          "durationTicks": 400,
          "midi": 43,
          "name": "G2",
          "ticks": 627840,
          "time": 523.2,
          "velocity": 0.8267716535433071
        },
        {
          "duration": 0.1966666666666015,
          "durationTicks": 236,
          "midi": 43,
          "name": "G2",
          "ticks": 628560,
          "time": 523.8000000000001,
          "velocity": 0.8267716535433071
        },
        {
          "duration": 0.33333333333337123,
          "durationTicks": 400,
          "midi": 48,
          "name": "C3",
          "ticks": 628800,
          "time": 524,
          "velocity": 0.8267716535433071
        },
        {
          "duration": 0.1966666666666015,
          "durationTicks": 236,
          "midi": 48,
          "name": "C3",
          "ticks": 629520,
          "time": 524.6,
          "velocity": 0.8267716535433071
        },
        {
          "duration": 0.1966666666666015,
          "durationTicks": 236,
          "midi": 43,
          "name": "G2",
          "ticks": 629760,
          "time": 524.8000000000001,
          "velocity": 0.8267716535433071
        },
        {
          "duration": 0.1966666666666015,
          "durationTicks": 236,
          "midi": 48,
          "name": "C3",
          "ticks": 630000,
          "time": 525,
          "velocity": 0.8346456692913385
        },
        {
          "duration": 0.1966666666666015,
          "durationTicks": 236,
          "midi": 43,
          "name": "G2",
          "ticks": 630240,
          "time": 525.2,
          "velocity": 0.8503937007874016
        },
        {
          "duration": 0.19666666666671517,
          "durationTicks": 236,
          "midi": 48,
          "name": "C3",
          "ticks": 630480,
          "time": 525.4,
          "velocity": 0.8582677165354331
        },
        {
          "duration": 0.1966666666666015,
          "durationTicks": 236,
          "midi": 43,
          "name": "G2",
          "ticks": 630720,
          "time": 525.6,
          "velocity": 0.8661417322834646
        },
        {
          "duration": 0.1966666666666015,
          "durationTicks": 236,
          "midi": 48,
          "name": "C3",
          "ticks": 630960,
          "time": 525.8000000000001,
          "velocity": 0.8740157480314961
        },
        {
          "duration": 0.1966666666666015,
          "durationTicks": 236,
          "midi": 43,
          "name": "G2",
          "ticks": 631200,
          "time": 526,
          "velocity": 0.8818897637795275
        },
        {
          "duration": 0.1966666666666015,
          "durationTicks": 236,
          "midi": 48,
          "name": "C3",
          "ticks": 631440,
          "time": 526.2,
          "velocity": 0.889763779527559
        },
        {
          "duration": 0.33333333333337123,
          "durationTicks": 400,
          "midi": 43,
          "name": "G2",
          "ticks": 631680,
          "time": 526.4,
          "velocity": 0.905511811023622
        },
        {
          "duration": 0.33333333333325754,
          "durationTicks": 400,
          "midi": 43,
          "name": "G2",
          "ticks": 632160,
          "time": 526.8000000000001,
          "velocity": 0.9212598425196851
        },
        {
          "duration": 0.33333333333325754,
          "durationTicks": 400,
          "midi": 31,
          "name": "G1",
          "ticks": 632640,
          "time": 527.2,
          "velocity": 0.937007874015748
        },
        {
          "duration": 0.33333333333325754,
          "durationTicks": 400,
          "midi": 31,
          "name": "G1",
          "ticks": 633120,
          "time": 527.6,
          "velocity": 0.952755905511811
        },
        {
          "duration": 1.5,
          "durationTicks": 1800,
          "midi": 31,
          "name": "G1",
          "ticks": 633600,
          "time": 528,
          "velocity": 0.9763779527559056
        },
        {
          "duration": 0.39999999999997726,
          "durationTicks": 480,
          "midi": 34,
          "name": "A#1",
          "ticks": 643200,
          "time": 536,
          "velocity": 0.4015748031496063
        },
        {
          "duration": 0.40000000000009095,
          "durationTicks": 480,
          "midi": 38,
          "name": "D2",
          "ticks": 643680,
          "time": 536.4,
          "velocity": 0.4015748031496063
        },
        {
          "duration": 0.39999999999997726,
          "durationTicks": 480,
          "midi": 41,
          "name": "F2",
          "ticks": 644160,
          "time": 536.8000000000001,
          "velocity": 0.4015748031496063
        },
        {
          "duration": 0.33333333333325754,
          "durationTicks": 400,
          "midi": 38,
          "name": "D2",
          "ticks": 644640,
          "time": 537.2,
          "velocity": 0.4015748031496063
        },
        {
          "duration": 0.33333333333325754,
          "durationTicks": 400,
          "midi": 34,
          "name": "A#1",
          "ticks": 645120,
          "time": 537.6,
          "velocity": 0.4015748031496063
        },
        {
          "duration": 0.06666666666671972,
          "durationTicks": 80,
          "midi": 50,
          "name": "D3",
          "ticks": 653280,
          "time": 544.4,
          "velocity": 0.4015748031496063
        },
        {
          "duration": 0.06666666666660603,
          "durationTicks": 80,
          "midi": 39,
          "name": "D#2",
          "ticks": 653760,
          "time": 544.8000000000001,
          "velocity": 0.4015748031496063
        },
        {
          "duration": 0.06666666666671972,
          "durationTicks": 80,
          "midi": 43,
          "name": "G2",
          "ticks": 654240,
          "time": 545.2,
          "velocity": 0.4015748031496063
        },
        {
          "duration": 0.33333333333325754,
          "durationTicks": 400,
          "midi": 45,
          "name": "A2",
          "ticks": 654720,
          "time": 545.6,
          "velocity": 0.4015748031496063
        },
        {
          "duration": 0.39999999999997726,
          "durationTicks": 480,
          "midi": 47,
          "name": "B2",
          "ticks": 657120,
          "time": 547.6,
          "velocity": 0.4015748031496063
        },
        {
          "duration": 0.39999999999997726,
          "durationTicks": 480,
          "midi": 48,
          "name": "C3",
          "ticks": 657600,
          "time": 548,
          "velocity": 0.4015748031496063
        },
        {
          "duration": 0.33333333333337123,
          "durationTicks": 400,
          "midi": 46,
          "name": "A#2",
          "ticks": 658080,
          "time": 548.4,
          "velocity": 0.4015748031496063
        },
        {
          "duration": 0.7999999999999545,
          "durationTicks": 960,
          "midi": 45,
          "name": "A2",
          "ticks": 658560,
          "time": 548.8000000000001,
          "velocity": 0.4015748031496063
        },
        {
          "duration": 0.7000000000000455,
          "durationTicks": 840,
          "midi": 44,
          "name": "G#2",
          "ticks": 659520,
          "time": 549.6,
          "velocity": 0.4015748031496063
        },
        {
          "duration": 0.33333333333337123,
          "durationTicks": 400,
          "midi": 43,
          "name": "G2",
          "ticks": 660480,
          "time": 550.4,
          "velocity": 0.8267716535433071
        },
        {
          "duration": 0.06666666666671972,
          "durationTicks": 80,
          "midi": 38,
          "name": "D2",
          "ticks": 661200,
          "time": 551,
          "velocity": 0.8267716535433071
        },
        {
          "duration": 0.06666666666660603,
          "durationTicks": 80,
          "midi": 40,
          "name": "E2",
          "ticks": 661280,
          "time": 551.0666666666667,
          "velocity": 0.8267716535433071
        },
        {
          "duration": 0.06666666666671972,
          "durationTicks": 80,
          "midi": 42,
          "name": "F#2",
          "ticks": 661360,
          "time": 551.1333333333333,
          "velocity": 0.8267716535433071
        },
        {
          "duration": 0.33333333333325754,
          "durationTicks": 400,
          "midi": 43,
          "name": "G2",
          "ticks": 661440,
          "time": 551.2,
          "velocity": 0.8267716535433071
        },
        {
          "duration": 0.06666666666660603,
          "durationTicks": 80,
          "midi": 38,
          "name": "D2",
          "ticks": 662160,
          "time": 551.8000000000001,
          "velocity": 0.8267716535433071
        },
        {
          "duration": 0.06666666666660603,
          "durationTicks": 80,
          "midi": 40,
          "name": "E2",
          "ticks": 662240,
          "time": 551.8666666666667,
          "velocity": 0.8267716535433071
        },
        {
          "duration": 0.06666666666671972,
          "durationTicks": 80,
          "midi": 42,
          "name": "F#2",
          "ticks": 662320,
          "time": 551.9333333333333,
          "velocity": 0.8267716535433071
        },
        {
          "duration": 0.33333333333337123,
          "durationTicks": 400,
          "midi": 43,
          "name": "G2",
          "ticks": 662400,
          "time": 552,
          "velocity": 0.8267716535433071
        },
        {
          "duration": 0.19666666666671517,
          "durationTicks": 236,
          "midi": 47,
          "name": "B2",
          "ticks": 664080,
          "time": 553.4,
          "velocity": 0.8267716535433071
        },
        {
          "duration": 0.20000000000004547,
          "durationTicks": 240,
          "midi": 43,
          "name": "G2",
          "ticks": 664320,
          "time": 553.6,
          "velocity": 0.8267716535433071
        },
        {
          "duration": 0.533333333333303,
          "durationTicks": 640,
          "midi": 48,
          "name": "C3",
          "ticks": 664320,
          "time": 553.6,
          "velocity": 0.8267716535433071
        },
        {
          "duration": 0.1999999999999318,
          "durationTicks": 240,
          "midi": 43,
          "name": "G2",
          "ticks": 664560,
          "time": 553.8000000000001,
          "velocity": 0.8267716535433071
        },
        {
          "duration": 0.20000000000004547,
          "durationTicks": 240,
          "midi": 43,
          "name": "G2",
          "ticks": 664800,
          "time": 554,
          "velocity": 0.8267716535433071
        },
        {
          "duration": 0.1966666666666015,
          "durationTicks": 236,
          "midi": 43,
          "name": "G2",
          "ticks": 665040,
          "time": 554.2,
          "velocity": 0.8267716535433071
        },
        {
          "duration": 0.1966666666666015,
          "durationTicks": 236,
          "midi": 47,
          "name": "B2",
          "ticks": 665040,
          "time": 554.2,
          "velocity": 0.8267716535433071
        },
        {
          "duration": 0.20000000000004547,
          "durationTicks": 240,
          "midi": 43,
          "name": "G2",
          "ticks": 665280,
          "time": 554.4,
          "velocity": 0.8267716535433071
        },
        {
          "duration": 0.533333333333303,
          "durationTicks": 640,
          "midi": 50,
          "name": "D3",
          "ticks": 665280,
          "time": 554.4,
          "velocity": 0.8267716535433071
        },
        {
          "duration": 0.20000000000004547,
          "durationTicks": 240,
          "midi": 43,
          "name": "G2",
          "ticks": 665520,
          "time": 554.6,
          "velocity": 0.8267716535433071
        },
        {
          "duration": 0.1999999999999318,
          "durationTicks": 240,
          "midi": 43,
          "name": "G2",
          "ticks": 665760,
          "time": 554.8000000000001,
          "velocity": 0.8267716535433071
        },
        {
          "duration": 0.1966666666666015,
          "durationTicks": 236,
          "midi": 43,
          "name": "G2",
          "ticks": 666000,
          "time": 555,
          "velocity": 0.8267716535433071
        },
        {
          "duration": 0.1966666666666015,
          "durationTicks": 236,
          "midi": 48,
          "name": "C3",
          "ticks": 666000,
          "time": 555,
          "velocity": 0.8267716535433071
        },
        {
          "duration": 0.1999999999999318,
          "durationTicks": 240,
          "midi": 43,
          "name": "G2",
          "ticks": 666240,
          "time": 555.2,
          "velocity": 0.8267716535433071
        },
        {
          "duration": 0.6999999999999318,
          "durationTicks": 840,
          "midi": 52,
          "name": "E3",
          "ticks": 666240,
          "time": 555.2,
          "velocity": 0.8267716535433071
        },
        {
          "duration": 0.20000000000004547,
          "durationTicks": 240,
          "midi": 43,
          "name": "G2",
          "ticks": 666480,
          "time": 555.4,
          "velocity": 0.8267716535433071
        },
        {
          "duration": 0.20000000000004547,
          "durationTicks": 240,
          "midi": 43,
          "name": "G2",
          "ticks": 666720,
          "time": 555.6,
          "velocity": 0.8267716535433071
        },
        {
          "duration": 0.1999999999999318,
          "durationTicks": 240,
          "midi": 43,
          "name": "G2",
          "ticks": 666960,
          "time": 555.8000000000001,
          "velocity": 0.8267716535433071
        },
        {
          "duration": 0.1966666666666015,
          "durationTicks": 236,
          "midi": 43,
          "name": "G2",
          "ticks": 667200,
          "time": 556,
          "velocity": 0.8267716535433071
        },
        {
          "duration": 0.33333333333337123,
          "durationTicks": 400,
          "midi": 50,
          "name": "D3",
          "ticks": 667200,
          "time": 556,
          "velocity": 0.8267716535433071
        },
        {
          "duration": 0.1966666666666015,
          "durationTicks": 236,
          "midi": 43,
          "name": "G2",
          "ticks": 667440,
          "time": 556.2,
          "velocity": 0.8267716535433071
        },
        {
          "duration": 0.19666666666671517,
          "durationTicks": 236,
          "midi": 43,
          "name": "G2",
          "ticks": 667680,
          "time": 556.4,
          "velocity": 0.8267716535433071
        },
        {
          "duration": 0.1966666666666015,
          "durationTicks": 236,
          "midi": 43,
          "name": "G2",
          "ticks": 667920,
          "time": 556.6,
          "velocity": 0.8267716535433071
        },
        {
          "duration": 0.1966666666666015,
          "durationTicks": 236,
          "midi": 47,
          "name": "B2",
          "ticks": 667920,
          "time": 556.6,
          "velocity": 0.8267716535433071
        },
        {
          "duration": 0.1999999999999318,
          "durationTicks": 240,
          "midi": 43,
          "name": "G2",
          "ticks": 668160,
          "time": 556.8000000000001,
          "velocity": 0.8267716535433071
        },
        {
          "duration": 0.533333333333303,
          "durationTicks": 640,
          "midi": 50,
          "name": "D3",
          "ticks": 668160,
          "time": 556.8000000000001,
          "velocity": 0.8267716535433071
        },
        {
          "duration": 0.20000000000004547,
          "durationTicks": 240,
          "midi": 43,
          "name": "G2",
          "ticks": 668400,
          "time": 557,
          "velocity": 0.8267716535433071
        },
        {
          "duration": 0.1999999999999318,
          "durationTicks": 240,
          "midi": 43,
          "name": "G2",
          "ticks": 668640,
          "time": 557.2,
          "velocity": 0.8267716535433071
        },
        {
          "duration": 0.19666666666671517,
          "durationTicks": 236,
          "midi": 43,
          "name": "G2",
          "ticks": 668880,
          "time": 557.4,
          "velocity": 0.8267716535433071
        },
        {
          "duration": 0.19666666666671517,
          "durationTicks": 236,
          "midi": 48,
          "name": "C3",
          "ticks": 668880,
          "time": 557.4,
          "velocity": 0.8267716535433071
        },
        {
          "duration": 0.20000000000004547,
          "durationTicks": 240,
          "midi": 43,
          "name": "G2",
          "ticks": 669120,
          "time": 557.6,
          "velocity": 0.8267716535433071
        },
        {
          "duration": 0.533333333333303,
          "durationTicks": 640,
          "midi": 52,
          "name": "E3",
          "ticks": 669120,
          "time": 557.6,
          "velocity": 0.8267716535433071
        },
        {
          "duration": 0.1999999999999318,
          "durationTicks": 240,
          "midi": 43,
          "name": "G2",
          "ticks": 669360,
          "time": 557.8000000000001,
          "velocity": 0.8267716535433071
        },
        {
          "duration": 0.20000000000004547,
          "durationTicks": 240,
          "midi": 43,
          "name": "G2",
          "ticks": 669600,
          "time": 558,
          "velocity": 0.8267716535433071
        },
        {
          "duration": 0.1966666666666015,
          "durationTicks": 236,
          "midi": 43,
          "name": "G2",
          "ticks": 669840,
          "time": 558.2,
          "velocity": 0.8267716535433071
        },
        {
          "duration": 0.1966666666666015,
          "durationTicks": 236,
          "midi": 50,
          "name": "D3",
          "ticks": 669840,
          "time": 558.2,
          "velocity": 0.8267716535433071
        },
        {
          "duration": 0.20000000000004547,
          "durationTicks": 240,
          "midi": 43,
          "name": "G2",
          "ticks": 670080,
          "time": 558.4,
          "velocity": 0.8267716535433071
        },
        {
          "duration": 0.7000000000000455,
          "durationTicks": 840,
          "midi": 53,
          "name": "F3",
          "ticks": 670080,
          "time": 558.4,
          "velocity": 0.8267716535433071
        },
        {
          "duration": 0.20000000000004547,
          "durationTicks": 240,
          "midi": 43,
          "name": "G2",
          "ticks": 670320,
          "time": 558.6,
          "velocity": 0.8267716535433071
        },
        {
          "duration": 0.1999999999999318,
          "durationTicks": 240,
          "midi": 43,
          "name": "G2",
          "ticks": 670560,
          "time": 558.8000000000001,
          "velocity": 0.8267716535433071
        },
        {
          "duration": 0.20000000000004547,
          "durationTicks": 240,
          "midi": 43,
          "name": "G2",
          "ticks": 670800,
          "time": 559,
          "velocity": 0.8267716535433071
        },
        {
          "duration": 0.1966666666666015,
          "durationTicks": 236,
          "midi": 43,
          "name": "G2",
          "ticks": 671040,
          "time": 559.2,
          "velocity": 0.8267716535433071
        },
        {
          "duration": 0.533333333333303,
          "durationTicks": 640,
          "midi": 52,
          "name": "E3",
          "ticks": 671040,
          "time": 559.2,
          "velocity": 0.8267716535433071
        },
        {
          "duration": 0.19666666666671517,
          "durationTicks": 236,
          "midi": 43,
          "name": "G2",
          "ticks": 671280,
          "time": 559.4,
          "velocity": 0.8267716535433071
        },
        {
          "duration": 0.1966666666666015,
          "durationTicks": 236,
          "midi": 43,
          "name": "G2",
          "ticks": 671520,
          "time": 559.6,
          "velocity": 0.8267716535433071
        },
        {
          "duration": 0.1966666666666015,
          "durationTicks": 236,
          "midi": 43,
          "name": "G2",
          "ticks": 671760,
          "time": 559.8000000000001,
          "velocity": 0.8267716535433071
        },
        {
          "duration": 0.1966666666666015,
          "durationTicks": 236,
          "midi": 49,
          "name": "C#3",
          "ticks": 671760,
          "time": 559.8000000000001,
          "velocity": 0.8267716535433071
        },
        {
          "duration": 0.20000000000004547,
          "durationTicks": 240,
          "midi": 43,
          "name": "G2",
          "ticks": 672000,
          "time": 560,
          "velocity": 0.8267716535433071
        },
        {
          "duration": 0.533333333333303,
          "durationTicks": 640,
          "midi": 52,
          "name": "E3",
          "ticks": 672000,
          "time": 560,
          "velocity": 0.8267716535433071
        },
        {
          "duration": 0.1999999999999318,
          "durationTicks": 240,
          "midi": 43,
          "name": "G2",
          "ticks": 672240,
          "time": 560.2,
          "velocity": 0.8267716535433071
        },
        {
          "duration": 0.20000000000004547,
          "durationTicks": 240,
          "midi": 43,
          "name": "G2",
          "ticks": 672480,
          "time": 560.4,
          "velocity": 0.8267716535433071
        },
        {
          "duration": 0.1966666666666015,
          "durationTicks": 236,
          "midi": 43,
          "name": "G2",
          "ticks": 672720,
          "time": 560.6,
          "velocity": 0.8267716535433071
        },
        {
          "duration": 0.1966666666666015,
          "durationTicks": 236,
          "midi": 50,
          "name": "D3",
          "ticks": 672720,
          "time": 560.6,
          "velocity": 0.8267716535433071
        },
        {
          "duration": 0.1999999999999318,
          "durationTicks": 240,
          "midi": 43,
          "name": "G2",
          "ticks": 672960,
          "time": 560.8000000000001,
          "velocity": 0.8267716535433071
        },
        {
          "duration": 0.533333333333303,
          "durationTicks": 640,
          "midi": 53,
          "name": "F3",
          "ticks": 672960,
          "time": 560.8000000000001,
          "velocity": 0.8267716535433071
        },
        {
          "duration": 0.20000000000004547,
          "durationTicks": 240,
          "midi": 43,
          "name": "G2",
          "ticks": 673200,
          "time": 561,
          "velocity": 0.8267716535433071
        },
        {
          "duration": 0.1999999999999318,
          "durationTicks": 240,
          "midi": 43,
          "name": "G2",
          "ticks": 673440,
          "time": 561.2,
          "velocity": 0.8267716535433071
        },
        {
          "duration": 0.19666666666671517,
          "durationTicks": 236,
          "midi": 43,
          "name": "G2",
          "ticks": 673680,
          "time": 561.4,
          "velocity": 0.8267716535433071
        },
        {
          "duration": 0.19666666666671517,
          "durationTicks": 236,
          "midi": 52,
          "name": "E3",
          "ticks": 673680,
          "time": 561.4,
          "velocity": 0.8267716535433071
        },
        {
          "duration": 0.20000000000004547,
          "durationTicks": 240,
          "midi": 43,
          "name": "G2",
          "ticks": 673920,
          "time": 561.6,
          "velocity": 0.8267716535433071
        },
        {
          "duration": 0.7000000000000455,
          "durationTicks": 840,
          "midi": 55,
          "name": "G3",
          "ticks": 673920,
          "time": 561.6,
          "velocity": 0.8267716535433071
        },
        {
          "duration": 0.1999999999999318,
          "durationTicks": 240,
          "midi": 43,
          "name": "G2",
          "ticks": 674160,
          "time": 561.8000000000001,
          "velocity": 0.8267716535433071
        },
        {
          "duration": 0.20000000000004547,
          "durationTicks": 240,
          "midi": 43,
          "name": "G2",
          "ticks": 674400,
          "time": 562,
          "velocity": 0.8267716535433071
        },
        {
          "duration": 0.1999999999999318,
          "durationTicks": 240,
          "midi": 43,
          "name": "G2",
          "ticks": 674640,
          "time": 562.2,
          "velocity": 0.8267716535433071
        },
        {
          "duration": 0.19666666666671517,
          "durationTicks": 236,
          "midi": 43,
          "name": "G2",
          "ticks": 674880,
          "time": 562.4,
          "velocity": 0.8267716535433071
        },
        {
          "duration": 0.533333333333303,
          "durationTicks": 640,
          "midi": 53,
          "name": "F3",
          "ticks": 674880,
          "time": 562.4,
          "velocity": 0.8267716535433071
        },
        {
          "duration": 0.1966666666666015,
          "durationTicks": 236,
          "midi": 43,
          "name": "G2",
          "ticks": 675120,
          "time": 562.6,
          "velocity": 0.8267716535433071
        },
        {
          "duration": 0.1966666666666015,
          "durationTicks": 236,
          "midi": 43,
          "name": "G2",
          "ticks": 675360,
          "time": 562.8000000000001,
          "velocity": 0.8267716535433071
        },
        {
          "duration": 0.1966666666666015,
          "durationTicks": 236,
          "midi": 43,
          "name": "G2",
          "ticks": 675600,
          "time": 563,
          "velocity": 0.8267716535433071
        },
        {
          "duration": 0.1966666666666015,
          "durationTicks": 236,
          "midi": 51,
          "name": "D#3",
          "ticks": 675600,
          "time": 563,
          "velocity": 0.8267716535433071
        },
        {
          "duration": 0.1999999999999318,
          "durationTicks": 240,
          "midi": 43,
          "name": "G2",
          "ticks": 675840,
          "time": 563.2,
          "velocity": 0.8267716535433071
        },
        {
          "duration": 0.6999999999999318,
          "durationTicks": 840,
          "midi": 53,
          "name": "F3",
          "ticks": 675840,
          "time": 563.2,
          "velocity": 0.8267716535433071
        },
        {
          "duration": 0.20000000000004547,
          "durationTicks": 240,
          "midi": 43,
          "name": "G2",
          "ticks": 676080,
          "time": 563.4,
          "velocity": 0.8267716535433071
        },
        {
          "duration": 0.20000000000004547,
          "durationTicks": 240,
          "midi": 43,
          "name": "G2",
          "ticks": 676320,
          "time": 563.6,
          "velocity": 0.8267716535433071
        },
        {
          "duration": 0.1999999999999318,
          "durationTicks": 240,
          "midi": 43,
          "name": "G2",
          "ticks": 676560,
          "time": 563.8000000000001,
          "velocity": 0.8267716535433071
        },
        {
          "duration": 0.1966666666666015,
          "durationTicks": 236,
          "midi": 43,
          "name": "G2",
          "ticks": 676800,
          "time": 564,
          "velocity": 0.8267716535433071
        },
        {
          "duration": 0.533333333333303,
          "durationTicks": 640,
          "midi": 52,
          "name": "E3",
          "ticks": 676800,
          "time": 564,
          "velocity": 0.8267716535433071
        },
        {
          "duration": 0.1966666666666015,
          "durationTicks": 236,
          "midi": 43,
          "name": "G2",
          "ticks": 677040,
          "time": 564.2,
          "velocity": 0.8267716535433071
        },
        {
          "duration": 0.19666666666671517,
          "durationTicks": 236,
          "midi": 43,
          "name": "G2",
          "ticks": 677280,
          "time": 564.4,
          "velocity": 0.8267716535433071
        },
        {
          "duration": 0.1966666666666015,
          "durationTicks": 236,
          "midi": 43,
          "name": "G2",
          "ticks": 677520,
          "time": 564.6,
          "velocity": 0.8267716535433071
        },
        {
          "duration": 0.1966666666666015,
          "durationTicks": 236,
          "midi": 49,
          "name": "C#3",
          "ticks": 677520,
          "time": 564.6,
          "velocity": 0.8267716535433071
        },
        {
          "duration": 0.1999999999999318,
          "durationTicks": 240,
          "midi": 43,
          "name": "G2",
          "ticks": 677760,
          "time": 564.8000000000001,
          "velocity": 0.8267716535433071
        },
        {
          "duration": 0.6999999999999318,
          "durationTicks": 840,
          "midi": 52,
          "name": "E3",
          "ticks": 677760,
          "time": 564.8000000000001,
          "velocity": 0.8267716535433071
        },
        {
          "duration": 0.20000000000004547,
          "durationTicks": 240,
          "midi": 43,
          "name": "G2",
          "ticks": 678000,
          "time": 565,
          "velocity": 0.8267716535433071
        },
        {
          "duration": 0.1999999999999318,
          "durationTicks": 240,
          "midi": 43,
          "name": "G2",
          "ticks": 678240,
          "time": 565.2,
          "velocity": 0.8267716535433071
        },
        {
          "duration": 0.20000000000004547,
          "durationTicks": 240,
          "midi": 43,
          "name": "G2",
          "ticks": 678480,
          "time": 565.4,
          "velocity": 0.8267716535433071
        },
        {
          "duration": 0.1966666666666015,
          "durationTicks": 236,
          "midi": 43,
          "name": "G2",
          "ticks": 678720,
          "time": 565.6,
          "velocity": 0.8267716535433071
        },
        {
          "duration": 0.33333333333325754,
          "durationTicks": 400,
          "midi": 50,
          "name": "D3",
          "ticks": 678720,
          "time": 565.6,
          "velocity": 0.8267716535433071
        },
        {
          "duration": 0.1966666666666015,
          "durationTicks": 236,
          "midi": 43,
          "name": "G2",
          "ticks": 678960,
          "time": 565.8000000000001,
          "velocity": 0.8267716535433071
        },
        {
          "duration": 0.1966666666666015,
          "durationTicks": 236,
          "midi": 43,
          "name": "G2",
          "ticks": 679200,
          "time": 566,
          "velocity": 0.8267716535433071
        },
        {
          "duration": 0.1966666666666015,
          "durationTicks": 236,
          "midi": 43,
          "name": "G2",
          "ticks": 679440,
          "time": 566.2,
          "velocity": 0.8267716535433071
        },
        {
          "duration": 0.19666666666671517,
          "durationTicks": 236,
          "midi": 45,
          "name": "A2",
          "ticks": 679680,
          "time": 566.4,
          "velocity": 0.8267716535433071
        },
        {
          "duration": 0.1966666666666015,
          "durationTicks": 236,
          "midi": 45,
          "name": "A2",
          "ticks": 679920,
          "time": 566.6,
          "velocity": 0.8267716535433071
        },
        {
          "duration": 0.1966666666666015,
          "durationTicks": 236,
          "midi": 43,
          "name": "G2",
          "ticks": 680160,
          "time": 566.8000000000001,
          "velocity": 0.8267716535433071
        },
        {
          "duration": 0.1966666666666015,
          "durationTicks": 236,
          "midi": 43,
          "name": "G2",
          "ticks": 680400,
          "time": 567,
          "velocity": 0.8267716535433071
        },
        {
          "duration": 0.1966666666666015,
          "durationTicks": 236,
          "midi": 45,
          "name": "A2",
          "ticks": 680640,
          "time": 567.2,
          "velocity": 0.8267716535433071
        },
        {
          "duration": 0.19666666666671517,
          "durationTicks": 236,
          "midi": 45,
          "name": "A2",
          "ticks": 680880,
          "time": 567.4,
          "velocity": 0.8267716535433071
        },
        {
          "duration": 0.1966666666666015,
          "durationTicks": 236,
          "midi": 43,
          "name": "G2",
          "ticks": 681120,
          "time": 567.6,
          "velocity": 0.8267716535433071
        },
        {
          "duration": 0.1966666666666015,
          "durationTicks": 236,
          "midi": 43,
          "name": "G2",
          "ticks": 681360,
          "time": 567.8000000000001,
          "velocity": 0.8267716535433071
        },
        {
          "duration": 1.1000000000000227,
          "durationTicks": 1320,
          "midi": 45,
          "name": "A2",
          "ticks": 681600,
          "time": 568,
          "velocity": 0.8267716535433071
        },
        {
          "duration": 0.33333333333325754,
          "durationTicks": 400,
          "midi": 45,
          "name": "A2",
          "ticks": 683040,
          "time": 569.2,
          "velocity": 0.8267716535433071
        },
        {
          "duration": 0.33333333333325754,
          "durationTicks": 400,
          "midi": 43,
          "name": "G2",
          "ticks": 683520,
          "time": 569.6,
          "velocity": 0.8267716535433071
        },
        {
          "duration": 0.33333333333325754,
          "durationTicks": 400,
          "midi": 43,
          "name": "G2",
          "ticks": 684960,
          "time": 570.8000000000001,
          "velocity": 0.8267716535433071
        },
        {
          "duration": 0.33333333333325754,
          "durationTicks": 400,
          "midi": 31,
          "name": "G1",
          "ticks": 685440,
          "time": 571.2,
          "velocity": 0.8267716535433071
        },
        {
          "duration": 0.33333333333337123,
          "durationTicks": 400,
          "midi": 43,
          "name": "G2",
          "ticks": 686880,
          "time": 572.4,
          "velocity": 0.8267716535433071
        },
        {
          "duration": 0.33333333333325754,
          "durationTicks": 400,
          "midi": 31,
          "name": "G1",
          "ticks": 687360,
          "time": 572.8000000000001,
          "velocity": 0.8267716535433071
        },
        {
          "duration": 0.33333333333337123,
          "durationTicks": 400,
          "midi": 43,
          "name": "G2",
          "ticks": 688800,
          "time": 574,
          "velocity": 0.8267716535433071
        },
        {
          "duration": 0.33333333333337123,
          "durationTicks": 400,
          "midi": 31,
          "name": "G1",
          "ticks": 689280,
          "time": 574.4,
          "velocity": 0.8267716535433071
        },
        {
          "duration": 0.33333333333325754,
          "durationTicks": 400,
          "midi": 43,
          "name": "G2",
          "ticks": 690720,
          "time": 575.6,
          "velocity": 0.8267716535433071
        },
        {
          "duration": 0.33333333333337123,
          "durationTicks": 400,
          "midi": 31,
          "name": "G1",
          "ticks": 691200,
          "time": 576,
          "velocity": 0.8267716535433071
        },
        {
          "duration": 0.33333333333325754,
          "durationTicks": 400,
          "midi": 43,
          "name": "G2",
          "ticks": 692160,
          "time": 576.8000000000001,
          "velocity": 0.8267716535433071
        },
        {
          "duration": 0.33333333333325754,
          "durationTicks": 400,
          "midi": 31,
          "name": "G1",
          "ticks": 693120,
          "time": 577.6,
          "velocity": 0.8267716535433071
        },
        {
          "duration": 0.33333333333337123,
          "durationTicks": 400,
          "midi": 43,
          "name": "G2",
          "ticks": 694080,
          "time": 578.4,
          "velocity": 0.8267716535433071
        },
        {
          "duration": 0.33333333333325754,
          "durationTicks": 400,
          "midi": 31,
          "name": "G1",
          "ticks": 695040,
          "time": 579.2,
          "velocity": 0.8267716535433071
        },
        {
          "duration": 1.2000000000000455,
          "durationTicks": 1440,
          "midi": 50,
          "name": "D3",
          "ticks": 700800,
          "time": 584,
          "velocity": 0.4015748031496063
        },
        {
          "duration": 0.39999999999997726,
          "durationTicks": 480,
          "midi": 51,
          "name": "D#3",
          "ticks": 702240,
          "time": 585.2,
          "velocity": 0.4015748031496063
        },
        {
          "duration": 0.33333333333325754,
          "durationTicks": 400,
          "midi": 52,
          "name": "E3",
          "ticks": 702720,
          "time": 585.6,
          "velocity": 0.4015748031496063
        },
        {
          "duration": 0.33333333333325754,
          "durationTicks": 400,
          "midi": 47,
          "name": "B2",
          "ticks": 704640,
          "time": 587.2,
          "velocity": 0.4015748031496063
        },
        {
          "duration": 0.33333333333337123,
          "durationTicks": 400,
          "midi": 48,
          "name": "C3",
          "ticks": 705600,
          "time": 588,
          "velocity": 0.4015748031496063
        },
        {
          "duration": 0.33333333333325754,
          "durationTicks": 400,
          "midi": 43,
          "name": "G2",
          "ticks": 706560,
          "time": 588.8000000000001,
          "velocity": 0.4015748031496063
        },
        {
          "duration": 1.2000000000000455,
          "durationTicks": 1440,
          "midi": 50,
          "name": "D3",
          "ticks": 712320,
          "time": 593.6,
          "velocity": 0.4015748031496063
        },
        {
          "duration": 0.39999999999997726,
          "durationTicks": 480,
          "midi": 51,
          "name": "D#3",
          "ticks": 713760,
          "time": 594.8000000000001,
          "velocity": 0.4015748031496063
        },
        {
          "duration": 0.33333333333325754,
          "durationTicks": 400,
          "midi": 52,
          "name": "E3",
          "ticks": 714240,
          "time": 595.2,
          "velocity": 0.4015748031496063
        },
        {
          "duration": 0.33333333333325754,
          "durationTicks": 400,
          "midi": 47,
          "name": "B2",
          "ticks": 716160,
          "time": 596.8000000000001,
          "velocity": 0.4015748031496063
        },
        {
          "duration": 0.33333333333325754,
          "durationTicks": 400,
          "midi": 48,
          "name": "C3",
          "ticks": 717120,
          "time": 597.6,
          "velocity": 0.4015748031496063
        },
        {
          "duration": 1.6000000000000227,
          "durationTicks": 1920,
          "midi": 41,
          "name": "F2",
          "ticks": 718080,
          "time": 598.4,
          "velocity": 0.4015748031496063
        },
        {
          "duration": 0.33333333333337123,
          "durationTicks": 400,
          "midi": 40,
          "name": "E2",
          "ticks": 720000,
          "time": 600,
          "velocity": 0.4015748031496063
        },
        {
          "duration": 0.33333333333325754,
          "durationTicks": 400,
          "midi": 44,
          "name": "G#2",
          "ticks": 720960,
          "time": 600.8000000000001,
          "velocity": 0.4015748031496063
        },
        {
          "duration": 1.2000000000000455,
          "durationTicks": 1440,
          "midi": 45,
          "name": "A2",
          "ticks": 721920,
          "time": 601.6,
          "velocity": 0.4015748031496063
        },
        {
          "duration": 0.33333333333325754,
          "durationTicks": 400,
          "midi": 45,
          "name": "A2",
          "ticks": 723360,
          "time": 602.8000000000001,
          "velocity": 0.4015748031496063
        },
        {
          "duration": 0.33333333333325754,
          "durationTicks": 400,
          "midi": 43,
          "name": "G2",
          "ticks": 723840,
          "time": 603.2,
          "velocity": 0.4015748031496063
        },
        {
          "duration": 0.33333333333325754,
          "durationTicks": 400,
          "midi": 31,
          "name": "G1",
          "ticks": 724320,
          "time": 603.6,
          "velocity": 0.4015748031496063
        },
        {
          "duration": 0.33333333333337123,
          "durationTicks": 400,
          "midi": 31,
          "name": "G1",
          "ticks": 724800,
          "time": 604,
          "velocity": 0.4015748031496063
        },
        {
          "duration": 0.33333333333337123,
          "durationTicks": 400,
          "midi": 31,
          "name": "G1",
          "ticks": 725280,
          "time": 604.4,
          "velocity": 0.4015748031496063
        },
        {
          "duration": 0.599999999999909,
          "durationTicks": 720,
          "midi": 36,
          "name": "C2",
          "ticks": 725760,
          "time": 604.8000000000001,
          "velocity": 0.4015748031496063
        },
        {
          "duration": 0.19666666666671517,
          "durationTicks": 236,
          "midi": 35,
          "name": "B1",
          "ticks": 726480,
          "time": 605.4,
          "velocity": 0.4015748031496063
        },
        {
          "duration": 0.6000000000000227,
          "durationTicks": 720,
          "midi": 40,
          "name": "E2",
          "ticks": 726720,
          "time": 605.6,
          "velocity": 0.4015748031496063
        },
        {
          "duration": 0.1966666666666015,
          "durationTicks": 236,
          "midi": 38,
          "name": "D2",
          "ticks": 727440,
          "time": 606.2,
          "velocity": 0.4015748031496063
        },
        {
          "duration": 0.8000000000000682,
          "durationTicks": 960,
          "midi": 43,
          "name": "G2",
          "ticks": 727680,
          "time": 606.4,
          "velocity": 0.4015748031496063
        },
        {
          "duration": 0.6999999999999318,
          "durationTicks": 840,
          "midi": 41,
          "name": "F2",
          "ticks": 728640,
          "time": 607.2,
          "velocity": 0.4015748031496063
        },
        {
          "duration": 0.33333333333337123,
          "durationTicks": 400,
          "midi": 40,
          "name": "E2",
          "ticks": 729600,
          "time": 608,
          "velocity": 0.4015748031496063
        },
        {
          "duration": 0.33333333333325754,
          "durationTicks": 400,
          "midi": 45,
          "name": "A2",
          "ticks": 730560,
          "time": 608.8000000000001,
          "velocity": 0.4015748031496063
        },
        {
          "duration": 0.33333333333325754,
          "durationTicks": 400,
          "midi": 41,
          "name": "F2",
          "ticks": 731520,
          "time": 609.6,
          "velocity": 0.4015748031496063
        },
        {
          "duration": 0.33333333333337123,
          "durationTicks": 400,
          "midi": 43,
          "name": "G2",
          "ticks": 732480,
          "time": 610.4,
          "velocity": 0.4015748031496063
        },
        {
          "duration": 0.1966666666666015,
          "durationTicks": 236,
          "midi": 43,
          "name": "G2",
          "ticks": 733200,
          "time": 611,
          "velocity": 0.4015748031496063
        },
        {
          "duration": 0.6000000000000227,
          "durationTicks": 720,
          "midi": 48,
          "name": "C3",
          "ticks": 733440,
          "time": 611.2,
          "velocity": 0.4015748031496063
        },
        {
          "duration": 0.1966666666666015,
          "durationTicks": 236,
          "midi": 47,
          "name": "B2",
          "ticks": 734160,
          "time": 611.8000000000001,
          "velocity": 0.4015748031496063
        },
        {
          "duration": 0.6000000000000227,
          "durationTicks": 720,
          "midi": 52,
          "name": "E3",
          "ticks": 734400,
          "time": 612,
          "velocity": 0.4015748031496063
        },
        {
          "duration": 0.1966666666666015,
          "durationTicks": 236,
          "midi": 50,
          "name": "D3",
          "ticks": 735120,
          "time": 612.6,
          "velocity": 0.4015748031496063
        },
        {
          "duration": 0.7999999999999545,
          "durationTicks": 960,
          "midi": 55,
          "name": "G3",
          "ticks": 735360,
          "time": 612.8000000000001,
          "velocity": 0.4015748031496063
        },
        {
          "duration": 0.7000000000000455,
          "durationTicks": 840,
          "midi": 53,
          "name": "F3",
          "ticks": 736320,
          "time": 613.6,
          "velocity": 0.4015748031496063
        },
        {
          "duration": 0.09999999999990905,
          "durationTicks": 120,
          "midi": 52,
          "name": "E3",
          "ticks": 737280,
          "time": 614.4000000000001,
          "velocity": 0.4015748031496063
        },
        {
          "duration": 0.10000000000002274,
          "durationTicks": 120,
          "midi": 52,
          "name": "E3",
          "ticks": 737760,
          "time": 614.8000000000001,
          "velocity": 0.4015748031496063
        },
        {
          "duration": 0.10000000000002274,
          "durationTicks": 120,
          "midi": 52,
          "name": "E3",
          "ticks": 738240,
          "time": 615.2,
          "velocity": 0.4015748031496063
        },
        {
          "duration": 0.10000000000002274,
          "durationTicks": 120,
          "midi": 53,
          "name": "F3",
          "ticks": 739200,
          "time": 616,
          "velocity": 0.4015748031496063
        },
        {
          "duration": 0.09999999999990905,
          "durationTicks": 120,
          "midi": 53,
          "name": "F3",
          "ticks": 739680,
          "time": 616.4000000000001,
          "velocity": 0.4015748031496063
        },
        {
          "duration": 0.10000000000002274,
          "durationTicks": 120,
          "midi": 53,
          "name": "F3",
          "ticks": 740160,
          "time": 616.8000000000001,
          "velocity": 0.4015748031496063
        },
        {
          "duration": 0.10000000000002274,
          "durationTicks": 120,
          "midi": 55,
          "name": "G3",
          "ticks": 741120,
          "time": 617.6,
          "velocity": 0.4015748031496063
        },
        {
          "duration": 0.10000000000002274,
          "durationTicks": 120,
          "midi": 55,
          "name": "G3",
          "ticks": 741600,
          "time": 618,
          "velocity": 0.4015748031496063
        },
        {
          "duration": 0.09999999999990905,
          "durationTicks": 120,
          "midi": 55,
          "name": "G3",
          "ticks": 742080,
          "time": 618.4000000000001,
          "velocity": 0.4015748031496063
        },
        {
          "duration": 0.1966666666666015,
          "durationTicks": 236,
          "midi": 53,
          "name": "F3",
          "ticks": 744960,
          "time": 620.8000000000001,
          "velocity": 0.8267716535433071
        },
        {
          "duration": 0.19666666666671517,
          "durationTicks": 236,
          "midi": 53,
          "name": "F3",
          "ticks": 745200,
          "time": 621,
          "velocity": 0.8267716535433071
        },
        {
          "duration": 0.1966666666666015,
          "durationTicks": 236,
          "midi": 53,
          "name": "F3",
          "ticks": 745440,
          "time": 621.2,
          "velocity": 0.8267716535433071
        },
        {
          "duration": 0.1966666666666015,
          "durationTicks": 236,
          "midi": 53,
          "name": "F3",
          "ticks": 745680,
          "time": 621.4000000000001,
          "velocity": 0.8267716535433071
        },
        {
          "duration": 0.1966666666666015,
          "durationTicks": 236,
          "midi": 53,
          "name": "F3",
          "ticks": 745920,
          "time": 621.6,
          "velocity": 0.8267716535433071
        },
        {
          "duration": 0.1966666666666015,
          "durationTicks": 236,
          "midi": 53,
          "name": "F3",
          "ticks": 746160,
          "time": 621.8000000000001,
          "velocity": 0.8267716535433071
        },
        {
          "duration": 0.19666666666671517,
          "durationTicks": 236,
          "midi": 53,
          "name": "F3",
          "ticks": 746400,
          "time": 622,
          "velocity": 0.8267716535433071
        },
        {
          "duration": 0.1966666666666015,
          "durationTicks": 236,
          "midi": 53,
          "name": "F3",
          "ticks": 746640,
          "time": 622.2,
          "velocity": 0.8267716535433071
        },
        {
          "duration": 0.1966666666666015,
          "durationTicks": 236,
          "midi": 53,
          "name": "F3",
          "ticks": 746880,
          "time": 622.4000000000001,
          "velocity": 0.8267716535433071
        },
        {
          "duration": 0.1966666666666015,
          "durationTicks": 236,
          "midi": 53,
          "name": "F3",
          "ticks": 747120,
          "time": 622.6,
          "velocity": 0.8267716535433071
        },
        {
          "duration": 0.1966666666666015,
          "durationTicks": 236,
          "midi": 53,
          "name": "F3",
          "ticks": 747360,
          "time": 622.8000000000001,
          "velocity": 0.8267716535433071
        },
        {
          "duration": 0.19666666666671517,
          "durationTicks": 236,
          "midi": 53,
          "name": "F3",
          "ticks": 747600,
          "time": 623,
          "velocity": 0.8267716535433071
        },
        {
          "duration": 0.1966666666666015,
          "durationTicks": 236,
          "midi": 53,
          "name": "F3",
          "ticks": 747840,
          "time": 623.2,
          "velocity": 0.8267716535433071
        },
        {
          "duration": 0.1966666666666015,
          "durationTicks": 236,
          "midi": 53,
          "name": "F3",
          "ticks": 748080,
          "time": 623.4000000000001,
          "velocity": 0.8267716535433071
        },
        {
          "duration": 0.1966666666666015,
          "durationTicks": 236,
          "midi": 53,
          "name": "F3",
          "ticks": 748320,
          "time": 623.6,
          "velocity": 0.8267716535433071
        },
        {
          "duration": 0.1966666666666015,
          "durationTicks": 236,
          "midi": 53,
          "name": "F3",
          "ticks": 748560,
          "time": 623.8000000000001,
          "velocity": 0.8267716535433071
        },
        {
          "duration": 0.19666666666671517,
          "durationTicks": 236,
          "midi": 53,
          "name": "F3",
          "ticks": 748800,
          "time": 624,
          "velocity": 0.8267716535433071
        },
        {
          "duration": 0.1966666666666015,
          "durationTicks": 236,
          "midi": 41,
          "name": "F2",
          "ticks": 749040,
          "time": 624.2,
          "velocity": 0.8267716535433071
        },
        {
          "duration": 0.1966666666666015,
          "durationTicks": 236,
          "midi": 41,
          "name": "F2",
          "ticks": 749280,
          "time": 624.4000000000001,
          "velocity": 0.8267716535433071
        },
        {
          "duration": 0.1966666666666015,
          "durationTicks": 236,
          "midi": 41,
          "name": "F2",
          "ticks": 749520,
          "time": 624.6,
          "velocity": 0.8267716535433071
        },
        {
          "duration": 0.1966666666666015,
          "durationTicks": 236,
          "midi": 41,
          "name": "F2",
          "ticks": 749760,
          "time": 624.8000000000001,
          "velocity": 0.8267716535433071
        },
        {
          "duration": 0.19666666666671517,
          "durationTicks": 236,
          "midi": 41,
          "name": "F2",
          "ticks": 750000,
          "time": 625,
          "velocity": 0.8267716535433071
        },
        {
          "duration": 0.1966666666666015,
          "durationTicks": 236,
          "midi": 41,
          "name": "F2",
          "ticks": 750240,
          "time": 625.2,
          "velocity": 0.8267716535433071
        },
        {
          "duration": 0.1966666666666015,
          "durationTicks": 236,
          "midi": 41,
          "name": "F2",
          "ticks": 750480,
          "time": 625.4000000000001,
          "velocity": 0.8267716535433071
        },
        {
          "duration": 0.1966666666666015,
          "durationTicks": 236,
          "midi": 40,
          "name": "E2",
          "ticks": 750720,
          "time": 625.6,
          "velocity": 0.8267716535433071
        },
        {
          "duration": 0.1966666666666015,
          "durationTicks": 236,
          "midi": 40,
          "name": "E2",
          "ticks": 750960,
          "time": 625.8000000000001,
          "velocity": 0.8267716535433071
        },
        {
          "duration": 0.19666666666671517,
          "durationTicks": 236,
          "midi": 40,
          "name": "E2",
          "ticks": 751200,
          "time": 626,
          "velocity": 0.8267716535433071
        },
        {
          "duration": 0.1966666666666015,
          "durationTicks": 236,
          "midi": 40,
          "name": "E2",
          "ticks": 751440,
          "time": 626.2,
          "velocity": 0.8267716535433071
        },
        {
          "duration": 0.1966666666666015,
          "durationTicks": 236,
          "midi": 40,
          "name": "E2",
          "ticks": 751680,
          "time": 626.4000000000001,
          "velocity": 0.8267716535433071
        },
        {
          "duration": 0.1966666666666015,
          "durationTicks": 236,
          "midi": 40,
          "name": "E2",
          "ticks": 751920,
          "time": 626.6,
          "velocity": 0.8267716535433071
        },
        {
          "duration": 0.1966666666666015,
          "durationTicks": 236,
          "midi": 40,
          "name": "E2",
          "ticks": 752160,
          "time": 626.8000000000001,
          "velocity": 0.8267716535433071
        },
        {
          "duration": 0.19666666666671517,
          "durationTicks": 236,
          "midi": 40,
          "name": "E2",
          "ticks": 752400,
          "time": 627,
          "velocity": 0.8267716535433071
        },
        {
          "duration": 0.1966666666666015,
          "durationTicks": 236,
          "midi": 39,
          "name": "D#2",
          "ticks": 752640,
          "time": 627.2,
          "velocity": 0.8267716535433071
        },
        {
          "duration": 0.1966666666666015,
          "durationTicks": 236,
          "midi": 39,
          "name": "D#2",
          "ticks": 752880,
          "time": 627.4000000000001,
          "velocity": 0.8267716535433071
        },
        {
          "duration": 0.1966666666666015,
          "durationTicks": 236,
          "midi": 39,
          "name": "D#2",
          "ticks": 753120,
          "time": 627.6,
          "velocity": 0.8267716535433071
        },
        {
          "duration": 0.1966666666666015,
          "durationTicks": 236,
          "midi": 39,
          "name": "D#2",
          "ticks": 753360,
          "time": 627.8000000000001,
          "velocity": 0.8267716535433071
        },
        {
          "duration": 0.19666666666671517,
          "durationTicks": 236,
          "midi": 39,
          "name": "D#2",
          "ticks": 753600,
          "time": 628,
          "velocity": 0.8267716535433071
        },
        {
          "duration": 0.1966666666666015,
          "durationTicks": 236,
          "midi": 39,
          "name": "D#2",
          "ticks": 753840,
          "time": 628.2,
          "velocity": 0.8267716535433071
        },
        {
          "duration": 0.1966666666666015,
          "durationTicks": 236,
          "midi": 39,
          "name": "D#2",
          "ticks": 754080,
          "time": 628.4000000000001,
          "velocity": 0.8267716535433071
        },
        {
          "duration": 0.1966666666666015,
          "durationTicks": 236,
          "midi": 39,
          "name": "D#2",
          "ticks": 754320,
          "time": 628.6,
          "velocity": 0.8267716535433071
        },
        {
          "duration": 0.1966666666666015,
          "durationTicks": 236,
          "midi": 38,
          "name": "D2",
          "ticks": 754560,
          "time": 628.8000000000001,
          "velocity": 0.8267716535433071
        },
        {
          "duration": 0.19666666666671517,
          "durationTicks": 236,
          "midi": 38,
          "name": "D2",
          "ticks": 754800,
          "time": 629,
          "velocity": 0.8267716535433071
        },
        {
          "duration": 0.1966666666666015,
          "durationTicks": 236,
          "midi": 38,
          "name": "D2",
          "ticks": 755040,
          "time": 629.2,
          "velocity": 0.8267716535433071
        },
        {
          "duration": 0.1966666666666015,
          "durationTicks": 236,
          "midi": 38,
          "name": "D2",
          "ticks": 755280,
          "time": 629.4000000000001,
          "velocity": 0.8267716535433071
        },
        {
          "duration": 0.1966666666666015,
          "durationTicks": 236,
          "midi": 38,
          "name": "D2",
          "ticks": 755520,
          "time": 629.6,
          "velocity": 0.8267716535433071
        },
        {
          "duration": 0.1966666666666015,
          "durationTicks": 236,
          "midi": 38,
          "name": "D2",
          "ticks": 755760,
          "time": 629.8000000000001,
          "velocity": 0.8267716535433071
        },
        {
          "duration": 0.19666666666671517,
          "durationTicks": 236,
          "midi": 38,
          "name": "D2",
          "ticks": 756000,
          "time": 630,
          "velocity": 0.8267716535433071
        },
        {
          "duration": 0.1966666666666015,
          "durationTicks": 236,
          "midi": 38,
          "name": "D2",
          "ticks": 756240,
          "time": 630.2,
          "velocity": 0.8267716535433071
        },
        {
          "duration": 0.33333333333325754,
          "durationTicks": 400,
          "midi": 40,
          "name": "E2",
          "ticks": 756480,
          "time": 630.4000000000001,
          "velocity": 0.8267716535433071
        },
        {
          "duration": 0.33333333333325754,
          "durationTicks": 400,
          "midi": 41,
          "name": "F2",
          "ticks": 757440,
          "time": 631.2,
          "velocity": 0.8267716535433071
        },
        {
          "duration": 0.33333333333337123,
          "durationTicks": 400,
          "midi": 43,
          "name": "G2",
          "ticks": 758400,
          "time": 632,
          "velocity": 0.8267716535433071
        },
        {
          "duration": 0.33333333333325754,
          "durationTicks": 400,
          "midi": 31,
          "name": "G1",
          "ticks": 759360,
          "time": 632.8000000000001,
          "velocity": 0.8267716535433071
        },
        {
          "duration": 0.1966666666666015,
          "durationTicks": 236,
          "midi": 36,
          "name": "C2",
          "ticks": 760320,
          "time": 633.6,
          "velocity": 0.8267716535433071
        },
        {
          "duration": 0.1966666666666015,
          "durationTicks": 236,
          "midi": 36,
          "name": "C2",
          "ticks": 760560,
          "time": 633.8000000000001,
          "velocity": 0.8267716535433071
        },
        {
          "duration": 0.19666666666671517,
          "durationTicks": 236,
          "midi": 36,
          "name": "C2",
          "ticks": 760800,
          "time": 634,
          "velocity": 0.8267716535433071
        },
        {
          "duration": 0.1966666666666015,
          "durationTicks": 236,
          "midi": 36,
          "name": "C2",
          "ticks": 761040,
          "time": 634.2,
          "velocity": 0.8267716535433071
        },
        {
          "duration": 0.1966666666666015,
          "durationTicks": 236,
          "midi": 36,
          "name": "C2",
          "ticks": 761280,
          "time": 634.4000000000001,
          "velocity": 0.8267716535433071
        },
        {
          "duration": 0.1966666666666015,
          "durationTicks": 236,
          "midi": 36,
          "name": "C2",
          "ticks": 761520,
          "time": 634.6,
          "velocity": 0.8267716535433071
        },
        {
          "duration": 0.1966666666666015,
          "durationTicks": 236,
          "midi": 36,
          "name": "C2",
          "ticks": 761760,
          "time": 634.8000000000001,
          "velocity": 0.8267716535433071
        },
        {
          "duration": 0.19666666666671517,
          "durationTicks": 236,
          "midi": 36,
          "name": "C2",
          "ticks": 762000,
          "time": 635,
          "velocity": 0.8267716535433071
        },
        {
          "duration": 0.1966666666666015,
          "durationTicks": 236,
          "midi": 36,
          "name": "C2",
          "ticks": 762240,
          "time": 635.2,
          "velocity": 0.8267716535433071
        },
        {
          "duration": 0.1966666666666015,
          "durationTicks": 236,
          "midi": 36,
          "name": "C2",
          "ticks": 762480,
          "time": 635.4000000000001,
          "velocity": 0.8267716535433071
        },
        {
          "duration": 0.1966666666666015,
          "durationTicks": 236,
          "midi": 36,
          "name": "C2",
          "ticks": 762720,
          "time": 635.6,
          "velocity": 0.8267716535433071
        },
        {
          "duration": 0.1966666666666015,
          "durationTicks": 236,
          "midi": 36,
          "name": "C2",
          "ticks": 762960,
          "time": 635.8000000000001,
          "velocity": 0.8267716535433071
        },
        {
          "duration": 0.19666666666671517,
          "durationTicks": 236,
          "midi": 36,
          "name": "C2",
          "ticks": 763200,
          "time": 636,
          "velocity": 0.8267716535433071
        },
        {
          "duration": 0.1966666666666015,
          "durationTicks": 236,
          "midi": 36,
          "name": "C2",
          "ticks": 763440,
          "time": 636.2,
          "velocity": 0.8267716535433071
        },
        {
          "duration": 0.1966666666666015,
          "durationTicks": 236,
          "midi": 36,
          "name": "C2",
          "ticks": 763680,
          "time": 636.4000000000001,
          "velocity": 0.8267716535433071
        },
        {
          "duration": 0.1966666666666015,
          "durationTicks": 236,
          "midi": 36,
          "name": "C2",
          "ticks": 763920,
          "time": 636.6,
          "velocity": 0.8267716535433071
        },
        {
          "duration": 0.1966666666666015,
          "durationTicks": 236,
          "midi": 36,
          "name": "C2",
          "ticks": 764160,
          "time": 636.8000000000001,
          "velocity": 0.8267716535433071
        },
        {
          "duration": 0.19666666666671517,
          "durationTicks": 236,
          "midi": 36,
          "name": "C2",
          "ticks": 764400,
          "time": 637,
          "velocity": 0.8267716535433071
        },
        {
          "duration": 0.1966666666666015,
          "durationTicks": 236,
          "midi": 36,
          "name": "C2",
          "ticks": 764640,
          "time": 637.2,
          "velocity": 0.8267716535433071
        },
        {
          "duration": 0.1966666666666015,
          "durationTicks": 236,
          "midi": 36,
          "name": "C2",
          "ticks": 764880,
          "time": 637.4000000000001,
          "velocity": 0.8267716535433071
        },
        {
          "duration": 0.1966666666666015,
          "durationTicks": 236,
          "midi": 36,
          "name": "C2",
          "ticks": 765120,
          "time": 637.6,
          "velocity": 0.8267716535433071
        },
        {
          "duration": 0.1966666666666015,
          "durationTicks": 236,
          "midi": 36,
          "name": "C2",
          "ticks": 765360,
          "time": 637.8000000000001,
          "velocity": 0.8267716535433071
        },
        {
          "duration": 0.19666666666671517,
          "durationTicks": 236,
          "midi": 36,
          "name": "C2",
          "ticks": 765600,
          "time": 638,
          "velocity": 0.8267716535433071
        },
        {
          "duration": 0.1966666666666015,
          "durationTicks": 236,
          "midi": 36,
          "name": "C2",
          "ticks": 765840,
          "time": 638.2,
          "velocity": 0.8267716535433071
        },
        {
          "duration": 0.1966666666666015,
          "durationTicks": 236,
          "midi": 36,
          "name": "C2",
          "ticks": 766080,
          "time": 638.4000000000001,
          "velocity": 0.6771653543307087
        },
        {
          "duration": 0.1966666666666015,
          "durationTicks": 236,
          "midi": 36,
          "name": "C2",
          "ticks": 766320,
          "time": 638.6,
          "velocity": 0.6771653543307087
        },
        {
          "duration": 0.1966666666666015,
          "durationTicks": 236,
          "midi": 36,
          "name": "C2",
          "ticks": 766560,
          "time": 638.8000000000001,
          "velocity": 0.6771653543307087
        },
        {
          "duration": 0.19666666666671517,
          "durationTicks": 236,
          "midi": 36,
          "name": "C2",
          "ticks": 766800,
          "time": 639,
          "velocity": 0.6771653543307087
        },
        {
          "duration": 0.1966666666666015,
          "durationTicks": 236,
          "midi": 36,
          "name": "C2",
          "ticks": 767040,
          "time": 639.2,
          "velocity": 0.6771653543307087
        },
        {
          "duration": 0.1966666666666015,
          "durationTicks": 236,
          "midi": 36,
          "name": "C2",
          "ticks": 767280,
          "time": 639.4000000000001,
          "velocity": 0.6771653543307087
        },
        {
          "duration": 0.1966666666666015,
          "durationTicks": 236,
          "midi": 36,
          "name": "C2",
          "ticks": 767520,
          "time": 639.6,
          "velocity": 0.6771653543307087
        },
        {
          "duration": 0.1966666666666015,
          "durationTicks": 236,
          "midi": 36,
          "name": "C2",
          "ticks": 767760,
          "time": 639.8000000000001,
          "velocity": 0.6771653543307087
        },
        {
          "duration": 0.19666666666671517,
          "durationTicks": 236,
          "midi": 41,
          "name": "F2",
          "ticks": 768000,
          "time": 640,
          "velocity": 0.6771653543307087
        },
        {
          "duration": 0.1966666666666015,
          "durationTicks": 236,
          "midi": 41,
          "name": "F2",
          "ticks": 768240,
          "time": 640.2,
          "velocity": 0.6771653543307087
        },
        {
          "duration": 0.1966666666666015,
          "durationTicks": 236,
          "midi": 41,
          "name": "F2",
          "ticks": 768480,
          "time": 640.4000000000001,
          "velocity": 0.6771653543307087
        },
        {
          "duration": 0.1966666666666015,
          "durationTicks": 236,
          "midi": 41,
          "name": "F2",
          "ticks": 768720,
          "time": 640.6,
          "velocity": 0.6771653543307087
        },
        {
          "duration": 0.1966666666666015,
          "durationTicks": 236,
          "midi": 43,
          "name": "G2",
          "ticks": 768960,
          "time": 640.8000000000001,
          "velocity": 0.6771653543307087
        },
        {
          "duration": 0.19666666666671517,
          "durationTicks": 236,
          "midi": 43,
          "name": "G2",
          "ticks": 769200,
          "time": 641,
          "velocity": 0.6771653543307087
        },
        {
          "duration": 0.1966666666666015,
          "durationTicks": 236,
          "midi": 43,
          "name": "G2",
          "ticks": 769440,
          "time": 641.2,
          "velocity": 0.6771653543307087
        },
        {
          "duration": 0.1966666666666015,
          "durationTicks": 236,
          "midi": 43,
          "name": "G2",
          "ticks": 769680,
          "time": 641.4000000000001,
          "velocity": 0.6771653543307087
        },
        {
          "duration": 0.6000000000000227,
          "durationTicks": 720,
          "midi": 36,
          "name": "C2",
          "ticks": 769920,
          "time": 641.6,
          "velocity": 0.6771653543307087
        },
        {
          "duration": 0.1966666666666015,
          "durationTicks": 236,
          "midi": 35,
          "name": "B1",
          "ticks": 770640,
          "time": 642.2,
          "velocity": 0.6771653543307087
        },
        {
          "duration": 0.2999999999999545,
          "durationTicks": 360,
          "midi": 38,
          "name": "D2",
          "ticks": 770880,
          "time": 642.4000000000001,
          "velocity": 0.6771653543307087
        },
        {
          "duration": 0.09666666666657875,
          "durationTicks": 116,
          "midi": 36,
          "name": "C2",
          "ticks": 771240,
          "time": 642.7,
          "velocity": 0.6771653543307087
        },
        {
          "duration": 0.2999999999999545,
          "durationTicks": 360,
          "midi": 41,
          "name": "F2",
          "ticks": 771360,
          "time": 642.8000000000001,
          "velocity": 0.6771653543307087
        },
        {
          "duration": 0.09666666666669244,
          "durationTicks": 116,
          "midi": 40,
          "name": "E2",
          "ticks": 771720,
          "time": 643.1,
          "velocity": 0.6771653543307087
        },
        {
          "duration": 0.6000000000000227,
          "durationTicks": 720,
          "midi": 38,
          "name": "D2",
          "ticks": 771840,
          "time": 643.2,
          "velocity": 0.6771653543307087
        },
        {
          "duration": 0.1966666666666015,
          "durationTicks": 236,
          "midi": 37,
          "name": "C#2",
          "ticks": 772560,
          "time": 643.8000000000001,
          "velocity": 0.6771653543307087
        },
        {
          "duration": 0.3000000000000682,
          "durationTicks": 360,
          "midi": 40,
          "name": "E2",
          "ticks": 772800,
          "time": 644,
          "velocity": 0.6771653543307087
        },
        {
          "duration": 0.09666666666657875,
          "durationTicks": 116,
          "midi": 38,
          "name": "D2",
          "ticks": 773160,
          "time": 644.3000000000001,
          "velocity": 0.6771653543307087
        },
        {
          "duration": 0.2999999999999545,
          "durationTicks": 360,
          "midi": 43,
          "name": "G2",
          "ticks": 773280,
          "time": 644.4000000000001,
          "velocity": 0.6771653543307087
        },
        {
          "duration": 0.09666666666657875,
          "durationTicks": 116,
          "midi": 41,
          "name": "F2",
          "ticks": 773640,
          "time": 644.7,
          "velocity": 0.6771653543307087
        },
        {
          "duration": 0.6000000000000227,
          "durationTicks": 720,
          "midi": 40,
          "name": "E2",
          "ticks": 773760,
          "time": 644.8000000000001,
          "velocity": 0.6771653543307087
        },
        {
          "duration": 0.1966666666666015,
          "durationTicks": 236,
          "midi": 39,
          "name": "D#2",
          "ticks": 774480,
          "time": 645.4000000000001,
          "velocity": 0.6771653543307087
        },
        {
          "duration": 0.3000000000000682,
          "durationTicks": 360,
          "midi": 41,
          "name": "F2",
          "ticks": 774720,
          "time": 645.6,
          "velocity": 0.6771653543307087
        },
        {
          "duration": 0.09666666666657875,
          "durationTicks": 116,
          "midi": 40,
          "name": "E2",
          "ticks": 775080,
          "time": 645.9000000000001,
          "velocity": 0.6771653543307087
        },
        {
          "duration": 0.3000000000000682,
          "durationTicks": 360,
          "midi": 45,
          "name": "A2",
          "ticks": 775200,
          "time": 646,
          "velocity": 0.6771653543307087
        },
        {
          "duration": 0.09666666666657875,
          "durationTicks": 116,
          "midi": 43,
          "name": "G2",
          "ticks": 775560,
          "time": 646.3000000000001,
          "velocity": 0.6771653543307087
        },
        {
          "duration": 0.33333333333325754,
          "durationTicks": 400,
          "midi": 41,
          "name": "F2",
          "ticks": 775680,
          "time": 646.4000000000001,
          "velocity": 0.6771653543307087
        },
        {
          "duration": 0.33333333333325754,
          "durationTicks": 400,
          "midi": 43,
          "name": "G2",
          "ticks": 776160,
          "time": 646.8000000000001,
          "velocity": 0.6771653543307087
        },
        {
          "duration": 0.33333333333325754,
          "durationTicks": 400,
          "midi": 41,
          "name": "F2",
          "ticks": 776640,
          "time": 647.2,
          "velocity": 0.6771653543307087
        },
        {
          "duration": 0.33333333333337123,
          "durationTicks": 400,
          "midi": 49,
          "name": "C#3",
          "ticks": 777120,
          "time": 647.6,
          "velocity": 0.6771653543307087
        },
        {
          "duration": 0.19666666666671517,
          "durationTicks": 236,
          "midi": 50,
          "name": "D3",
          "ticks": 777600,
          "time": 648,
          "velocity": 0.6771653543307087
        },
        {
          "duration": 0.1966666666666015,
          "durationTicks": 236,
          "midi": 50,
          "name": "D3",
          "ticks": 777840,
          "time": 648.2,
          "velocity": 0.6771653543307087
        },
        {
          "duration": 0.1966666666666015,
          "durationTicks": 236,
          "midi": 48,
          "name": "C3",
          "ticks": 778080,
          "time": 648.4000000000001,
          "velocity": 0.6771653543307087
        },
        {
          "duration": 0.1966666666666015,
          "durationTicks": 236,
          "midi": 48,
          "name": "C3",
          "ticks": 778320,
          "time": 648.6,
          "velocity": 0.6771653543307087
        },
        {
          "duration": 0.1966666666666015,
          "durationTicks": 236,
          "midi": 47,
          "name": "B2",
          "ticks": 778560,
          "time": 648.8000000000001,
          "velocity": 0.6771653543307087
        },
        {
          "duration": 0.19666666666671517,
          "durationTicks": 236,
          "midi": 47,
          "name": "B2",
          "ticks": 778800,
          "time": 649,
          "velocity": 0.6771653543307087
        },
        {
          "duration": 0.1966666666666015,
          "durationTicks": 236,
          "midi": 48,
          "name": "C3",
          "ticks": 779040,
          "time": 649.2,
          "velocity": 0.6771653543307087
        },
        {
          "duration": 0.1966666666666015,
          "durationTicks": 236,
          "midi": 48,
          "name": "C3",
          "ticks": 779280,
          "time": 649.4000000000001,
          "velocity": 0.6771653543307087
        },
        {
          "duration": 0.33333333333337123,
          "durationTicks": 400,
          "midi": 47,
          "name": "B2",
          "ticks": 779520,
          "time": 649.6,
          "velocity": 0.6771653543307087
        },
        {
          "duration": 0.20000000000004547,
          "durationTicks": 240,
          "midi": 52,
          "name": "E3",
          "ticks": 803040,
          "time": 669.2,
          "velocity": 0.8267716535433071
        },
        {
          "duration": 0.1999999999999318,
          "durationTicks": 240,
          "midi": 51,
          "name": "D#3",
          "ticks": 803280,
          "time": 669.4000000000001,
          "velocity": 0.8267716535433071
        },
        {
          "duration": 0.20000000000004547,
          "durationTicks": 240,
          "midi": 52,
          "name": "E3",
          "ticks": 803520,
          "time": 669.6,
          "velocity": 0.8267716535433071
        },
        {
          "duration": 0.1999999999999318,
          "durationTicks": 240,
          "midi": 51,
          "name": "D#3",
          "ticks": 803760,
          "time": 669.8000000000001,
          "velocity": 0.8267716535433071
        },
        {
          "duration": 0.20000000000004547,
          "durationTicks": 240,
          "midi": 52,
          "name": "E3",
          "ticks": 804000,
          "time": 670,
          "velocity": 0.8267716535433071
        },
        {
          "duration": 0.1966666666666015,
          "durationTicks": 236,
          "midi": 49,
          "name": "C#3",
          "ticks": 804240,
          "time": 670.2,
          "velocity": 0.8267716535433071
        },
        {
          "duration": 0.1966666666666015,
          "durationTicks": 236,
          "midi": 50,
          "name": "D3",
          "ticks": 804480,
          "time": 670.4000000000001,
          "velocity": 0.8267716535433071
        },
        {
          "duration": 0.1999999999999318,
          "durationTicks": 240,
          "midi": 50,
          "name": "D3",
          "ticks": 804960,
          "time": 670.8000000000001,
          "velocity": 0.8267716535433071
        },
        {
          "duration": 0.20000000000004547,
          "durationTicks": 240,
          "midi": 49,
          "name": "C#3",
          "ticks": 805200,
          "time": 671,
          "velocity": 0.8267716535433071
        },
        {
          "duration": 0.20000000000004547,
          "durationTicks": 240,
          "midi": 50,
          "name": "D3",
          "ticks": 805440,
          "time": 671.2,
          "velocity": 0.8267716535433071
        },
        {
          "duration": 0.1999999999999318,
          "durationTicks": 240,
          "midi": 49,
          "name": "C#3",
          "ticks": 805680,
          "time": 671.4000000000001,
          "velocity": 0.8267716535433071
        },
        {
          "duration": 0.20000000000004547,
          "durationTicks": 240,
          "midi": 50,
          "name": "D3",
          "ticks": 805920,
          "time": 671.6,
          "velocity": 0.8267716535433071
        },
        {
          "duration": 0.1966666666666015,
          "durationTicks": 236,
          "midi": 47,
          "name": "B2",
          "ticks": 806160,
          "time": 671.8000000000001,
          "velocity": 0.8267716535433071
        },
        {
          "duration": 0.19666666666671517,
          "durationTicks": 236,
          "midi": 48,
          "name": "C3",
          "ticks": 806400,
          "time": 672,
          "velocity": 0.8267716535433071
        },
        {
          "duration": 0.06666666666660603,
          "durationTicks": 80,
          "midi": 45,
          "name": "A2",
          "ticks": 806880,
          "time": 672.4000000000001,
          "velocity": 0.8267716535433071
        },
        {
          "duration": 0.06666666666671972,
          "durationTicks": 80,
          "midi": 45,
          "name": "A2",
          "ticks": 807120,
          "time": 672.6,
          "velocity": 0.8267716535433071
        },
        {
          "duration": 0.06666666666671972,
          "durationTicks": 80,
          "midi": 41,
          "name": "F2",
          "ticks": 807360,
          "time": 672.8000000000001,
          "velocity": 0.8267716535433071
        },
        {
          "duration": 0.06666666666671972,
          "durationTicks": 80,
          "midi": 41,
          "name": "F2",
          "ticks": 807600,
          "time": 673,
          "velocity": 0.8267716535433071
        },
        {
          "duration": 0.06666666666671972,
          "durationTicks": 80,
          "midi": 43,
          "name": "G2",
          "ticks": 807840,
          "time": 673.2,
          "velocity": 0.8267716535433071
        },
        {
          "duration": 0.06666666666660603,
          "durationTicks": 80,
          "midi": 43,
          "name": "G2",
          "ticks": 808080,
          "time": 673.4000000000001,
          "velocity": 0.8267716535433071
        },
        {
          "duration": 0.1966666666666015,
          "durationTicks": 236,
          "midi": 36,
          "name": "C2",
          "ticks": 808320,
          "time": 673.6,
          "velocity": 0.8267716535433071
        },
        {
          "duration": 0.20000000000004547,
          "durationTicks": 240,
          "midi": 52,
          "name": "E3",
          "ticks": 808800,
          "time": 674,
          "velocity": 0.8267716535433071
        },
        {
          "duration": 0.20000000000004547,
          "durationTicks": 240,
          "midi": 51,
          "name": "D#3",
          "ticks": 809040,
          "time": 674.2,
          "velocity": 0.8267716535433071
        },
        {
          "duration": 0.1999999999999318,
          "durationTicks": 240,
          "midi": 52,
          "name": "E3",
          "ticks": 809280,
          "time": 674.4000000000001,
          "velocity": 0.8267716535433071
        },
        {
          "duration": 0.20000000000004547,
          "durationTicks": 240,
          "midi": 51,
          "name": "D#3",
          "ticks": 809520,
          "time": 674.6,
          "velocity": 0.8267716535433071
        },
        {
          "duration": 0.1999999999999318,
          "durationTicks": 240,
          "midi": 52,
          "name": "E3",
          "ticks": 809760,
          "time": 674.8000000000001,
          "velocity": 0.8267716535433071
        },
        {
          "duration": 0.19666666666671517,
          "durationTicks": 236,
          "midi": 49,
          "name": "C#3",
          "ticks": 810000,
          "time": 675,
          "velocity": 0.8267716535433071
        },
        {
          "duration": 0.1966666666666015,
          "durationTicks": 236,
          "midi": 50,
          "name": "D3",
          "ticks": 810240,
          "time": 675.2,
          "velocity": 0.8267716535433071
        },
        {
          "duration": 0.20000000000004547,
          "durationTicks": 240,
          "midi": 50,
          "name": "D3",
          "ticks": 810720,
          "time": 675.6,
          "velocity": 0.8267716535433071
        },
        {
          "duration": 0.1999999999999318,
          "durationTicks": 240,
          "midi": 49,
          "name": "C#3",
          "ticks": 810960,
          "time": 675.8000000000001,
          "velocity": 0.8267716535433071
        },
        {
          "duration": 0.20000000000004547,
          "durationTicks": 240,
          "midi": 50,
          "name": "D3",
          "ticks": 811200,
          "time": 676,
          "velocity": 0.8267716535433071
        },
        {
          "duration": 0.20000000000004547,
          "durationTicks": 240,
          "midi": 49,
          "name": "C#3",
          "ticks": 811440,
          "time": 676.2,
          "velocity": 0.8267716535433071
        },
        {
          "duration": 0.1999999999999318,
          "durationTicks": 240,
          "midi": 50,
          "name": "D3",
          "ticks": 811680,
          "time": 676.4000000000001,
          "velocity": 0.8267716535433071
        },
        {
          "duration": 0.1966666666666015,
          "durationTicks": 236,
          "midi": 47,
          "name": "B2",
          "ticks": 811920,
          "time": 676.6,
          "velocity": 0.8267716535433071
        },
        {
          "duration": 0.1966666666666015,
          "durationTicks": 236,
          "midi": 48,
          "name": "C3",
          "ticks": 812160,
          "time": 676.8000000000001,
          "velocity": 0.8267716535433071
        },
        {
          "duration": 0.1966666666666015,
          "durationTicks": 236,
          "midi": 40,
          "name": "E2",
          "ticks": 812640,
          "time": 677.2,
          "velocity": 0.8267716535433071
        },
        {
          "duration": 0.1966666666666015,
          "durationTicks": 236,
          "midi": 40,
          "name": "E2",
          "ticks": 812880,
          "time": 677.4000000000001,
          "velocity": 0.8267716535433071
        },
        {
          "duration": 0.1966666666666015,
          "durationTicks": 236,
          "midi": 41,
          "name": "F2",
          "ticks": 813120,
          "time": 677.6,
          "velocity": 0.8267716535433071
        },
        {
          "duration": 0.1966666666666015,
          "durationTicks": 236,
          "midi": 41,
          "name": "F2",
          "ticks": 813360,
          "time": 677.8000000000001,
          "velocity": 0.8267716535433071
        },
        {
          "duration": 0.19666666666671517,
          "durationTicks": 236,
          "midi": 43,
          "name": "G2",
          "ticks": 813600,
          "time": 678,
          "velocity": 0.8267716535433071
        },
        {
          "duration": 0.1966666666666015,
          "durationTicks": 236,
          "midi": 43,
          "name": "G2",
          "ticks": 813840,
          "time": 678.2,
          "velocity": 0.8267716535433071
        },
        {
          "duration": 0.1966666666666015,
          "durationTicks": 236,
          "midi": 45,
          "name": "A2",
          "ticks": 814080,
          "time": 678.4000000000001,
          "velocity": 0.8267716535433071
        },
        {
          "duration": 0.1966666666666015,
          "durationTicks": 236,
          "midi": 45,
          "name": "A2",
          "ticks": 814320,
          "time": 678.6,
          "velocity": 0.8267716535433071
        },
        {
          "duration": 0.1966666666666015,
          "durationTicks": 236,
          "midi": 41,
          "name": "F2",
          "ticks": 814560,
          "time": 678.8000000000001,
          "velocity": 0.8267716535433071
        },
        {
          "duration": 0.19666666666671517,
          "durationTicks": 236,
          "midi": 41,
          "name": "F2",
          "ticks": 814800,
          "time": 679,
          "velocity": 0.8267716535433071
        },
        {
          "duration": 0.1966666666666015,
          "durationTicks": 236,
          "midi": 43,
          "name": "G2",
          "ticks": 815040,
          "time": 679.2,
          "velocity": 0.8267716535433071
        },
        {
          "duration": 0.1966666666666015,
          "durationTicks": 236,
          "midi": 43,
          "name": "G2",
          "ticks": 815280,
          "time": 679.4000000000001,
          "velocity": 0.8267716535433071
        },
        {
          "duration": 0.1966666666666015,
          "durationTicks": 236,
          "midi": 31,
          "name": "G1",
          "ticks": 815520,
          "time": 679.6,
          "velocity": 0.8267716535433071
        },
        {
          "duration": 0.1966666666666015,
          "durationTicks": 236,
          "midi": 31,
          "name": "G1",
          "ticks": 815760,
          "time": 679.8000000000001,
          "velocity": 0.8267716535433071
        },
        {
          "duration": 0.33333333333337123,
          "durationTicks": 400,
          "midi": 36,
          "name": "C2",
          "ticks": 816000,
          "time": 680,
          "velocity": 0.9763779527559056
        },
        {
          "duration": 0.33333333333325754,
          "durationTicks": 400,
          "midi": 48,
          "name": "C3",
          "ticks": 816480,
          "time": 680.4000000000001,
          "velocity": 0.9763779527559056
        },
        {
          "duration": 0.33333333333325754,
          "durationTicks": 400,
          "midi": 43,
          "name": "G2",
          "ticks": 817440,
          "time": 681.2,
          "velocity": 0.9763779527559056
        },
        {
          "duration": 0.33333333333337123,
          "durationTicks": 400,
          "midi": 48,
          "name": "C3",
          "ticks": 818400,
          "time": 682,
          "velocity": 0.9763779527559056
        },
        {
          "duration": 0.33333333333325754,
          "durationTicks": 400,
          "midi": 43,
          "name": "G2",
          "ticks": 819360,
          "time": 682.8000000000001,
          "velocity": 0.9763779527559056
        },
        {
          "duration": 0.33333333333337123,
          "durationTicks": 400,
          "midi": 48,
          "name": "C3",
          "ticks": 820320,
          "time": 683.6,
          "velocity": 0.9763779527559056
        },
        {
          "duration": 0.33333333333325754,
          "durationTicks": 400,
          "midi": 43,
          "name": "G2",
          "ticks": 821280,
          "time": 684.4000000000001,
          "velocity": 0.9763779527559056
        },
        {
          "duration": 0.1966666666666015,
          "durationTicks": 236,
          "midi": 36,
          "name": "C2",
          "ticks": 821760,
          "time": 684.8000000000001,
          "velocity": 0.9763779527559056
        },
        {
          "duration": 0.19666666666671517,
          "durationTicks": 236,
          "midi": 31,
          "name": "G1",
          "ticks": 822000,
          "time": 685,
          "velocity": 0.9763779527559056
        },
        {
          "duration": 0.1966666666666015,
          "durationTicks": 236,
          "midi": 36,
          "name": "C2",
          "ticks": 822240,
          "time": 685.2,
          "velocity": 0.9763779527559056
        },
        {
          "duration": 0.1966666666666015,
          "durationTicks": 236,
          "midi": 31,
          "name": "G1",
          "ticks": 822480,
          "time": 685.4000000000001,
          "velocity": 0.9763779527559056
        },
        {
          "duration": 0.1966666666666015,
          "durationTicks": 236,
          "midi": 36,
          "name": "C2",
          "ticks": 822720,
          "time": 685.6,
          "velocity": 0.9763779527559056
        },
        {
          "duration": 0.1966666666666015,
          "durationTicks": 236,
          "midi": 31,
          "name": "G1",
          "ticks": 822960,
          "time": 685.8000000000001,
          "velocity": 0.9763779527559056
        },
        {
          "duration": 0.19666666666671517,
          "durationTicks": 236,
          "midi": 36,
          "name": "C2",
          "ticks": 823200,
          "time": 686,
          "velocity": 0.984251968503937
        },
        {
          "duration": 0.1966666666666015,
          "durationTicks": 236,
          "midi": 31,
          "name": "G1",
          "ticks": 823440,
          "time": 686.2,
          "velocity": 0.9921259842519685
        },
        {
          "duration": 0.1966666666666015,
          "durationTicks": 236,
          "midi": 36,
          "name": "C2",
          "ticks": 823680,
          "time": 686.4000000000001,
          "velocity": 1
        },
        {
          "duration": 0.1966666666666015,
          "durationTicks": 236,
          "midi": 40,
          "name": "E2",
          "ticks": 823920,
          "time": 686.6,
          "velocity": 1
        },
        {
          "duration": 0.1966666666666015,
          "durationTicks": 236,
          "midi": 43,
          "name": "G2",
          "ticks": 824160,
          "time": 686.8000000000001,
          "velocity": 1
        },
        {
          "duration": 0.19666666666671517,
          "durationTicks": 236,
          "midi": 40,
          "name": "E2",
          "ticks": 824400,
          "time": 687,
          "velocity": 1
        },
        {
          "duration": 0.1966666666666015,
          "durationTicks": 236,
          "midi": 43,
          "name": "G2",
          "ticks": 824640,
          "time": 687.2,
          "velocity": 1
        },
        {
          "duration": 0.1966666666666015,
          "durationTicks": 236,
          "midi": 40,
          "name": "E2",
          "ticks": 824880,
          "time": 687.4000000000001,
          "velocity": 1
        },
        {
          "duration": 0.1966666666666015,
          "durationTicks": 236,
          "midi": 43,
          "name": "G2",
          "ticks": 825120,
          "time": 687.6,
          "velocity": 1
        },
        {
          "duration": 0.1966666666666015,
          "durationTicks": 236,
          "midi": 40,
          "name": "E2",
          "ticks": 825360,
          "time": 687.8000000000001,
          "velocity": 1
        },
        {
          "duration": 0.33333333333337123,
          "durationTicks": 400,
          "midi": 36,
          "name": "C2",
          "ticks": 825600,
          "time": 688,
          "velocity": 1
        },
        {
          "duration": 0.33333333333325754,
          "durationTicks": 400,
          "midi": 40,
          "name": "E2",
          "ticks": 826080,
          "time": 688.4000000000001,
          "velocity": 1
        },
        {
          "duration": 0.33333333333325754,
          "durationTicks": 400,
          "midi": 43,
          "name": "G2",
          "ticks": 826560,
          "time": 688.8000000000001,
          "velocity": 1
        },
        {
          "duration": 0.33333333333325754,
          "durationTicks": 400,
          "midi": 40,
          "name": "E2",
          "ticks": 827040,
          "time": 689.2,
          "velocity": 1
        },
        {
          "duration": 0.38461500000005344,
          "durationTicks": 400,
          "midi": 36,
          "name": "C2",
          "ticks": 827520,
          "time": 689.6,
          "velocity": 1
        },
        {
          "duration": 0.4545458333333272,
          "durationTicks": 400,
          "midi": 36,
          "name": "C2",
          "ticks": 828480,
          "time": 690.5230760000001,
          "velocity": 1
        },
        {
          "duration": 1.0499999999999545,
          "durationTicks": 840,
          "midi": 36,
          "name": "C2",
          "ticks": 829440,
          "time": 691.6139860000001,
          "velocity": 1
        }
      ]
    },
    {
      "channel": 11,
      "controlChanges": {},
      "pitchBends": [],
      "instrument": {
        "family": "strings",
        "number": 45,
        "name": "pizzicato strings"
      },
      "name": "",
      "notes": [
        {
          "duration": 0.3333333333333144,
          "durationTicks": 400,
          "midi": 38,
          "name": "D2",
          "ticks": 193920,
          "time": 161.60000000000002,
          "velocity": 0.4015748031496063
        },
        {
          "duration": 0.3333333333333144,
          "durationTicks": 400,
          "midi": 38,
          "name": "D2",
          "ticks": 197760,
          "time": 164.8,
          "velocity": 0.4015748031496063
        },
        {
          "duration": 0.19999999999998863,
          "durationTicks": 240,
          "midi": 42,
          "name": "F#2",
          "ticks": 198720,
          "time": 165.60000000000002,
          "velocity": 0.4015748031496063
        },
        {
          "duration": 0.3333333333333428,
          "durationTicks": 400,
          "midi": 38,
          "name": "D2",
          "ticks": 201600,
          "time": 168,
          "velocity": 0.4015748031496063
        },
        {
          "duration": 0.19999999999998863,
          "durationTicks": 240,
          "midi": 42,
          "name": "F#2",
          "ticks": 202560,
          "time": 168.8,
          "velocity": 0.4015748031496063
        },
        {
          "duration": 0.3333333333333144,
          "durationTicks": 400,
          "midi": 31,
          "name": "G1",
          "ticks": 203520,
          "time": 169.60000000000002,
          "velocity": 0.4015748031496063
        },
        {
          "duration": 0.19666666666668675,
          "durationTicks": 236,
          "midi": 38,
          "name": "D2",
          "ticks": 206400,
          "time": 172,
          "velocity": 0.4015748031496063
        },
        {
          "duration": 0.19666666666668675,
          "durationTicks": 236,
          "midi": 38,
          "name": "D2",
          "ticks": 206880,
          "time": 172.4,
          "velocity": 0.4015748031496063
        },
        {
          "duration": 0.3333333333333144,
          "durationTicks": 400,
          "midi": 43,
          "name": "G2",
          "ticks": 207360,
          "time": 172.8,
          "velocity": 0.4015748031496063
        },
        {
          "duration": 0.19666666666665833,
          "durationTicks": 236,
          "midi": 38,
          "name": "D2",
          "ticks": 210240,
          "time": 175.20000000000002,
          "velocity": 0.4015748031496063
        },
        {
          "duration": 0.19666666666665833,
          "durationTicks": 236,
          "midi": 38,
          "name": "D2",
          "ticks": 210720,
          "time": 175.60000000000002,
          "velocity": 0.4015748031496063
        },
        {
          "duration": 0.19666666666668675,
          "durationTicks": 236,
          "midi": 43,
          "name": "G2",
          "ticks": 211200,
          "time": 176,
          "velocity": 0.4015748031496063
        },
        {
          "duration": 0.33333333333337123,
          "durationTicks": 400,
          "midi": 38,
          "name": "D2",
          "ticks": 424320,
          "time": 353.6,
          "velocity": 0.4015748031496063
        },
        {
          "duration": 0.33333333333337123,
          "durationTicks": 400,
          "midi": 38,
          "name": "D2",
          "ticks": 428160,
          "time": 356.8,
          "velocity": 0.4015748031496063
        },
        {
          "duration": 0.19999999999998863,
          "durationTicks": 240,
          "midi": 42,
          "name": "F#2",
          "ticks": 429120,
          "time": 357.6,
          "velocity": 0.4015748031496063
        },
        {
          "duration": 0.33333333333337123,
          "durationTicks": 400,
          "midi": 38,
          "name": "D2",
          "ticks": 432000,
          "time": 360,
          "velocity": 0.4015748031496063
        },
        {
          "duration": 0.19999999999998863,
          "durationTicks": 240,
          "midi": 42,
          "name": "F#2",
          "ticks": 432960,
          "time": 360.8,
          "velocity": 0.4015748031496063
        },
        {
          "duration": 0.33333333333337123,
          "durationTicks": 400,
          "midi": 31,
          "name": "G1",
          "ticks": 433920,
          "time": 361.6,
          "velocity": 0.4015748031496063
        },
        {
          "duration": 0.19666666666671517,
          "durationTicks": 236,
          "midi": 38,
          "name": "D2",
          "ticks": 436800,
          "time": 364,
          "velocity": 0.4015748031496063
        },
        {
          "duration": 0.19666666666665833,
          "durationTicks": 236,
          "midi": 38,
          "name": "D2",
          "ticks": 437280,
          "time": 364.40000000000003,
          "velocity": 0.4015748031496063
        },
        {
          "duration": 0.33333333333337123,
          "durationTicks": 400,
          "midi": 43,
          "name": "G2",
          "ticks": 437760,
          "time": 364.8,
          "velocity": 0.4015748031496063
        },
        {
          "duration": 0.19666666666665833,
          "durationTicks": 236,
          "midi": 38,
          "name": "D2",
          "ticks": 440640,
          "time": 367.20000000000005,
          "velocity": 0.4015748031496063
        },
        {
          "duration": 0.19666666666665833,
          "durationTicks": 236,
          "midi": 38,
          "name": "D2",
          "ticks": 441120,
          "time": 367.6,
          "velocity": 0.4015748031496063
        },
        {
          "duration": 0.19666666666671517,
          "durationTicks": 236,
          "midi": 43,
          "name": "G2",
          "ticks": 441600,
          "time": 368,
          "velocity": 0.4015748031496063
        },
        {
          "duration": 0.33333333333325754,
          "durationTicks": 400,
          "midi": 36,
          "name": "C2",
          "ticks": 783360,
          "time": 652.8000000000001,
          "velocity": 0.4015748031496063
        },
        {
          "duration": 0.33333333333325754,
          "durationTicks": 400,
          "midi": 31,
          "name": "G1",
          "ticks": 785280,
          "time": 654.4000000000001,
          "velocity": 0.4015748031496063
        },
        {
          "duration": 0.33333333333337123,
          "durationTicks": 400,
          "midi": 36,
          "name": "C2",
          "ticks": 787200,
          "time": 656,
          "velocity": 0.4015748031496063
        },
        {
          "duration": 0.33333333333337123,
          "durationTicks": 400,
          "midi": 31,
          "name": "G1",
          "ticks": 789120,
          "time": 657.6,
          "velocity": 0.4015748031496063
        },
        {
          "duration": 0.33333333333325754,
          "durationTicks": 400,
          "midi": 36,
          "name": "C2",
          "ticks": 791040,
          "time": 659.2,
          "velocity": 0.4015748031496063
        },
        {
          "duration": 0.33333333333325754,
          "durationTicks": 400,
          "midi": 31,
          "name": "G1",
          "ticks": 792960,
          "time": 660.8000000000001,
          "velocity": 0.4015748031496063
        },
        {
          "duration": 0.33333333333325754,
          "durationTicks": 400,
          "midi": 36,
          "name": "C2",
          "ticks": 794880,
          "time": 662.4000000000001,
          "velocity": 0.4015748031496063
        },
        {
          "duration": 0.1966666666666015,
          "durationTicks": 236,
          "midi": 43,
          "name": "G2",
          "ticks": 797760,
          "time": 664.8000000000001,
          "velocity": 0.4015748031496063
        },
        {
          "duration": 0.1966666666666015,
          "durationTicks": 236,
          "midi": 43,
          "name": "G2",
          "ticks": 798240,
          "time": 665.2,
          "velocity": 0.4015748031496063
        },
        {
          "duration": 0.33333333333337123,
          "durationTicks": 400,
          "midi": 48,
          "name": "C3",
          "ticks": 798720,
          "time": 665.6,
          "velocity": 0.4015748031496063
        },
        {
          "duration": 0.19666666666671517,
          "durationTicks": 236,
          "midi": 43,
          "name": "G2",
          "ticks": 801600,
          "time": 668,
          "velocity": 0.4015748031496063
        },
        {
          "duration": 0.1966666666666015,
          "durationTicks": 236,
          "midi": 43,
          "name": "G2",
          "ticks": 802080,
          "time": 668.4000000000001,
          "velocity": 0.4015748031496063
        },
        {
          "duration": 0.1966666666666015,
          "durationTicks": 236,
          "midi": 36,
          "name": "C2",
          "ticks": 802560,
          "time": 668.8000000000001,
          "velocity": 0.4015748031496063
        }
      ]
    }
  ]
}