{
  "header": {
    "keySignatures": [],
    "meta": [],
    "name": "A Day In The Life - GS",
    "ppq": 96,
    "tempos": [
      {
        "bpm": 82.00003553334874,
        "ticks": 0
      }
    ],
    "timeSignatures": [
      {
        "ticks": 0,
        "timeSignature": [
          4,
          4
        ],
        "measures": 0
      },
      {
        "ticks": 384,
        "timeSignature": [
          4,
          4
        ],
        "measures": 1
      },
      {
        "ticks": 18432,
        "timeSignature": [
          2,
          4
        ],
        "measures": 48
      },
      {
        "ticks": 18624,
        "timeSignature": [
          4,
          4
        ],
        "measures": 49
      },
      {
        "ticks": 19776,
        "timeSignature": [
          2,
          4
        ],
        "measures": 52
      },
      {
        "ticks": 19968,
        "timeSignature": [
          4,
          4
        ],
        "measures": 53
      },
      {
        "ticks": 20352,
        "timeSignature": [
          2,
          4
        ],
        "measures": 54
      },
      {
        "ticks": 20544,
        "timeSignature": [
          4,
          4
        ],
        "measures": 55
      }
    ]
  },
  "tracks": [
    {
      "channel": 0,
      "controlChanges": {
        "1": [
          {
            "number": 1,
            "ticks": 198,
            "time": 1.5091456875,
            "value": 0
          }
        ],
        "7": [
          {
            "number": 7,
            "ticks": 200,
            "time": 1.5243895833333334,
            "value": 0.7559055118110236
          }
        ],
        "10": [
          {
            "number": 10,
            "ticks": 202,
            "time": 1.5396334791666666,
            "value": 0.5039370078740157
          },
          {
            "number": 10,
            "ticks": 212,
            "time": 1.6158529583333334,
            "value": 0.5039370078740157
          }
        ],
        "11": [
          {
            "number": 11,
            "ticks": 204,
            "time": 1.554877375,
            "value": 1
          }
        ],
        "32": [
          {
            "number": 32,
            "ticks": 194,
            "time": 1.4786578958333334,
            "value": 0
          }
        ],
        "64": [
          {
            "number": 64,
            "ticks": 206,
            "time": 1.5701212708333334,
            "value": 0
          }
        ],
        "91": [
          {
            "number": 91,
            "ticks": 208,
            "time": 1.5853651666666666,
            "value": 0
          }
        ],
        "93": [
          {
            "number": 93,
            "ticks": 210,
            "time": 1.6006090625,
            "value": 0
          }
        ]
      },
      "pitchBends": [
        {
          "ticks": 212,
          "time": 1.6158529583333334,
          "value": 0
        }
      ],
      "instrument": {
        "family": "piano",
        "number": 0,
        "name": "acoustic grand piano"
      },
      "name": "Other Unit",
      "notes": [],
      "endOfTrackTicks": 212
    },
    {
      "channel": 0,
      "controlChanges": {
        "0": [
          {
            "number": 0,
            "ticks": 192,
            "time": 1.463414,
            "value": 0
          }
        ],
        "32": [
          {
            "number": 32,
            "ticks": 194,
            "time": 1.4786578958333334,
            "value": 0
          }
        ]
      },
      "pitchBends": [],
      "instrument": {
        "family": "piano",
        "number": 0,
        "name": "acoustic grand piano"
      },
      "name": "Vocal",
      "notes": [],
      "endOfTrackTicks": 29752
    },
    {
      "channel": 1,
      "controlChanges": {
        "0": [
          {
            "number": 0,
            "ticks": 17856,
            "time": 136.097502,
            "value": 0
          }
        ],
        "1": [
          {
            "number": 1,
            "ticks": 198,
            "time": 1.5091456875,
            "value": 0
          }
        ],
        "7": [
          {
            "number": 7,
            "ticks": 200,
            "time": 1.5243895833333334,
            "value": 0.8503937007874016
          },
          {
            "number": 7,
            "ticks": 480,
            "time": 3.658535,
            "value": 0.8503937007874016
          },
          {
            "number": 7,
            "ticks": 17664,
            "time": 134.634088,
            "value": 0.7559055118110236
          },
          {
            "number": 7,
            "ticks": 17688,
            "time": 134.81701475,
            "value": 0.7637795275590551
          },
          {
            "number": 7,
            "ticks": 17700,
            "time": 134.908478125,
            "value": 0.7716535433070866
          },
          {
            "number": 7,
            "ticks": 17712,
            "time": 134.9999415,
            "value": 0.7795275590551181
          },
          {
            "number": 7,
            "ticks": 17724,
            "time": 135.091404875,
            "value": 0.7874015748031497
          },
          {
            "number": 7,
            "ticks": 17736,
            "time": 135.18286825,
            "value": 0.7952755905511811
          },
          {
            "number": 7,
            "ticks": 17748,
            "time": 135.274331625,
            "value": 0.8031496062992126
          },
          {
            "number": 7,
            "ticks": 17760,
            "time": 135.365795,
            "value": 0.8110236220472441
          },
          {
            "number": 7,
            "ticks": 17772,
            "time": 135.457258375,
            "value": 0.8188976377952756
          },
          {
            "number": 7,
            "ticks": 17796,
            "time": 135.640185125,
            "value": 0.8267716535433071
          },
          {
            "number": 7,
            "ticks": 17808,
            "time": 135.7316485,
            "value": 0.8346456692913385
          },
          {
            "number": 7,
            "ticks": 17820,
            "time": 135.823111875,
            "value": 0.84251968503937
          },
          {
            "number": 7,
            "ticks": 17832,
            "time": 135.91457525,
            "value": 0.8503937007874016
          },
          {
            "number": 7,
            "ticks": 17844,
            "time": 136.006038625,
            "value": 0.8582677165354331
          }
        ],
        "10": [
          {
            "number": 10,
            "ticks": 202,
            "time": 1.5396334791666666,
            "value": 0.5039370078740157
          }
        ],
        "11": [
          {
            "number": 11,
            "ticks": 204,
            "time": 1.554877375,
            "value": 1
          }
        ],
        "32": [
          {
            "number": 32,
            "ticks": 17856,
            "time": 136.097502,
            "value": 0
          }
        ],
        "64": [
          {
            "number": 64,
            "ticks": 206,
            "time": 1.5701212708333334,
            "value": 0
          }
        ],
        "91": [
          {
            "number": 91,
            "ticks": 208,
            "time": 1.5853651666666666,
            "value": 1
          },
          {
            "number": 91,
            "ticks": 480,
            "time": 3.658535,
            "value": 1
          }
        ],
        "93": [
          {
            "number": 93,
            "ticks": 210,
            "time": 1.6006090625,
            "value": 0.905511811023622
          },
          {
            "number": 93,
            "ticks": 480,
            "time": 3.658535,
            "value": 0.905511811023622
          }
        ]
      },
      "pitchBends": [
        {
          "ticks": 212,
          "time": 1.6158529583333334,
          "value": 0
        }
      ],
      "instrument": {
        "family": "synth lead",
        "number": 85,
        "name": "lead 6 (voice)"
      },
      "name": "",
      "notes": [
        {
          "duration": 0.24390233333333278,
          "durationTicks": 32,
          "midi": 71,
          "name": "B4",
          "ticks": 1968,
          "time": 14.9999935,
          "velocity": 0.6220472440944882
        },
        {
          "duration": 0.24390233333333278,
          "durationTicks": 32,
          "midi": 74,
          "name": "D5",
          "ticks": 2016,
          "time": 15.365847,
          "velocity": 0.6220472440944882
        },
        {
          "duration": 0.243902333333331,
          "durationTicks": 32,
          "midi": 71,
          "name": "B4",
          "ticks": 2064,
          "time": 15.7317005,
          "velocity": 0.6220472440944882
        },
        {
          "duration": 0.24390233333333455,
          "durationTicks": 32,
          "midi": 76,
          "name": "E5",
          "ticks": 2112,
          "time": 16.097554,
          "velocity": 0.6220472440944882
        },
        {
          "duration": 0.12195116666666905,
          "durationTicks": 16,
          "midi": 71,
          "name": "B4",
          "ticks": 2160,
          "time": 16.4634075,
          "velocity": 0.6220472440944882
        },
        {
          "duration": 0.18292675000000003,
          "durationTicks": 24,
          "midi": 74,
          "name": "D5",
          "ticks": 2184,
          "time": 16.64633425,
          "velocity": 0.6220472440944882
        },
        {
          "duration": 0.24390233333333455,
          "durationTicks": 32,
          "midi": 74,
          "name": "D5",
          "ticks": 2208,
          "time": 16.829261,
          "velocity": 0.6220472440944882
        },
        {
          "duration": 0.24390233333333455,
          "durationTicks": 32,
          "midi": 76,
          "name": "E5",
          "ticks": 2256,
          "time": 17.1951145,
          "velocity": 0.6220472440944882
        },
        {
          "duration": 1.4329262083333347,
          "durationTicks": 188,
          "midi": 71,
          "name": "B4",
          "ticks": 2304,
          "time": 17.560968,
          "velocity": 0.6220472440944882
        },
        {
          "duration": 0.12195116666666905,
          "durationTicks": 16,
          "midi": 67,
          "name": "G4",
          "ticks": 2736,
          "time": 20.8536495,
          "velocity": 0.6220472440944882
        },
        {
          "duration": 0.18292675000000003,
          "durationTicks": 24,
          "midi": 71,
          "name": "B4",
          "ticks": 2760,
          "time": 21.03657625,
          "velocity": 0.6220472440944882
        },
        {
          "duration": 0.24390233333333455,
          "durationTicks": 32,
          "midi": 71,
          "name": "B4",
          "ticks": 2784,
          "time": 21.219503,
          "velocity": 0.6220472440944882
        },
        {
          "duration": 0.243902333333331,
          "durationTicks": 32,
          "midi": 72,
          "name": "C5",
          "ticks": 2832,
          "time": 21.5853565,
          "velocity": 0.6220472440944882
        },
        {
          "duration": 0.243902333333331,
          "durationTicks": 32,
          "midi": 71,
          "name": "B4",
          "ticks": 2880,
          "time": 21.95121,
          "velocity": 0.6220472440944882
        },
        {
          "duration": 0.243902333333331,
          "durationTicks": 32,
          "midi": 69,
          "name": "A4",
          "ticks": 2928,
          "time": 22.3170635,
          "velocity": 0.6220472440944882
        },
        {
          "duration": 0.243902333333331,
          "durationTicks": 32,
          "midi": 67,
          "name": "G4",
          "ticks": 2976,
          "time": 22.682917,
          "velocity": 0.6220472440944882
        },
        {
          "duration": 0.243902333333331,
          "durationTicks": 32,
          "midi": 69,
          "name": "A4",
          "ticks": 3024,
          "time": 23.0487705,
          "velocity": 0.6220472440944882
        },
        {
          "duration": 0.36585350000000005,
          "durationTicks": 48,
          "midi": 64,
          "name": "E4",
          "ticks": 3072,
          "time": 23.414624,
          "velocity": 0.6220472440944882
        },
        {
          "duration": 0.1219511666666655,
          "durationTicks": 16,
          "midi": 71,
          "name": "B4",
          "ticks": 3144,
          "time": 23.96340425,
          "velocity": 0.6220472440944882
        },
        {
          "duration": 0.7317070000000001,
          "durationTicks": 96,
          "midi": 71,
          "name": "B4",
          "ticks": 3168,
          "time": 24.146331,
          "velocity": 0.6220472440944882
        },
        {
          "duration": 0.9603654374999984,
          "durationTicks": 126,
          "midi": 71,
          "name": "B4",
          "ticks": 3264,
          "time": 24.878038,
          "velocity": 0.6220472440944882
        },
        {
          "duration": 0.24390233333333455,
          "durationTicks": 32,
          "midi": 71,
          "name": "B4",
          "ticks": 3504,
          "time": 26.7073055,
          "velocity": 0.6220472440944882
        },
        {
          "duration": 0.24390233333333455,
          "durationTicks": 32,
          "midi": 74,
          "name": "D5",
          "ticks": 3552,
          "time": 27.073159,
          "velocity": 0.6220472440944882
        },
        {
          "duration": 0.1219511666666655,
          "durationTicks": 16,
          "midi": 74,
          "name": "D5",
          "ticks": 3600,
          "time": 27.4390125,
          "velocity": 0.6220472440944882
        },
        {
          "duration": 0.18292675000000003,
          "durationTicks": 24,
          "midi": 76,
          "name": "E5",
          "ticks": 3624,
          "time": 27.62193925,
          "velocity": 0.6220472440944882
        },
        {
          "duration": 0.24390233333333455,
          "durationTicks": 32,
          "midi": 76,
          "name": "E5",
          "ticks": 3648,
          "time": 27.804866,
          "velocity": 0.6220472440944882
        },
        {
          "duration": 0.24390233333333455,
          "durationTicks": 32,
          "midi": 71,
          "name": "B4",
          "ticks": 3696,
          "time": 28.1707195,
          "velocity": 0.6220472440944882
        },
        {
          "duration": 0.24390233333333455,
          "durationTicks": 32,
          "midi": 74,
          "name": "D5",
          "ticks": 3744,
          "time": 28.536573,
          "velocity": 0.6220472440944882
        },
        {
          "duration": 0.24390233333333455,
          "durationTicks": 32,
          "midi": 76,
          "name": "E5",
          "ticks": 3792,
          "time": 28.9024265,
          "velocity": 0.6220472440944882
        },
        {
          "duration": 1.448170104166664,
          "durationTicks": 190,
          "midi": 71,
          "name": "B4",
          "ticks": 3840,
          "time": 29.26828,
          "velocity": 0.6220472440944882
        },
        {
          "duration": 0.2439023333333381,
          "durationTicks": 32,
          "midi": 67,
          "name": "G4",
          "ticks": 4272,
          "time": 32.5609615,
          "velocity": 0.6220472440944882
        },
        {
          "duration": 0.2439023333333381,
          "durationTicks": 32,
          "midi": 71,
          "name": "B4",
          "ticks": 4320,
          "time": 32.926815,
          "velocity": 0.6220472440944882
        },
        {
          "duration": 0.2439023333333381,
          "durationTicks": 32,
          "midi": 72,
          "name": "C5",
          "ticks": 4368,
          "time": 33.2926685,
          "velocity": 0.6220472440944882
        },
        {
          "duration": 0.2439023333333381,
          "durationTicks": 32,
          "midi": 71,
          "name": "B4",
          "ticks": 4416,
          "time": 33.658522,
          "velocity": 0.6220472440944882
        },
        {
          "duration": 0.18292675000000003,
          "durationTicks": 24,
          "midi": 69,
          "name": "A4",
          "ticks": 4464,
          "time": 34.0243755,
          "velocity": 0.6220472440944882
        },
        {
          "duration": 0.18292675000000003,
          "durationTicks": 24,
          "midi": 67,
          "name": "G4",
          "ticks": 4488,
          "time": 34.20730225,
          "velocity": 0.6220472440944882
        },
        {
          "duration": 0.36585350000000005,
          "durationTicks": 48,
          "midi": 67,
          "name": "G4",
          "ticks": 4512,
          "time": 34.390229,
          "velocity": 0.6220472440944882
        },
        {
          "duration": 0.36585350000000005,
          "durationTicks": 48,
          "midi": 67,
          "name": "G4",
          "ticks": 4560,
          "time": 34.7560825,
          "velocity": 0.6220472440944882
        },
        {
          "duration": 0.4878046666666691,
          "durationTicks": 64,
          "midi": 67,
          "name": "G4",
          "ticks": 4608,
          "time": 35.121936,
          "velocity": 0.6220472440944882
        },
        {
          "duration": 0.2439023333333381,
          "durationTicks": 32,
          "midi": 67,
          "name": "G4",
          "ticks": 5040,
          "time": 38.4146175,
          "velocity": 0.6220472440944882
        },
        {
          "duration": 0.2439023333333381,
          "durationTicks": 32,
          "midi": 71,
          "name": "B4",
          "ticks": 5088,
          "time": 38.780471,
          "velocity": 0.6220472440944882
        },
        {
          "duration": 0.2439023333333381,
          "durationTicks": 32,
          "midi": 72,
          "name": "C5",
          "ticks": 5136,
          "time": 39.1463245,
          "velocity": 0.6220472440944882
        },
        {
          "duration": 0.2439023333333381,
          "durationTicks": 32,
          "midi": 71,
          "name": "B4",
          "ticks": 5184,
          "time": 39.512178,
          "velocity": 0.6220472440944882
        },
        {
          "duration": 0.12195116666666905,
          "durationTicks": 16,
          "midi": 69,
          "name": "A4",
          "ticks": 5232,
          "time": 39.8780315,
          "velocity": 0.6220472440944882
        },
        {
          "duration": 0.18292675000000003,
          "durationTicks": 24,
          "midi": 67,
          "name": "G4",
          "ticks": 5256,
          "time": 40.06095825,
          "velocity": 0.6220472440944882
        },
        {
          "duration": 0.36585350000000005,
          "durationTicks": 48,
          "midi": 67,
          "name": "G4",
          "ticks": 5280,
          "time": 40.243885,
          "velocity": 0.6220472440944882
        },
        {
          "duration": 0.36585350000000005,
          "durationTicks": 48,
          "midi": 67,
          "name": "G4",
          "ticks": 5328,
          "time": 40.6097385,
          "velocity": 0.6220472440944882
        },
        {
          "duration": 0.4878046666666691,
          "durationTicks": 64,
          "midi": 67,
          "name": "G4",
          "ticks": 5376,
          "time": 40.975592,
          "velocity": 0.6220472440944882
        },
        {
          "duration": 0.2439023333333381,
          "durationTicks": 32,
          "midi": 71,
          "name": "B4",
          "ticks": 5808,
          "time": 44.2682735,
          "velocity": 0.6220472440944882
        },
        {
          "duration": 0.2439023333333381,
          "durationTicks": 32,
          "midi": 74,
          "name": "D5",
          "ticks": 5856,
          "time": 44.634127,
          "velocity": 0.6220472440944882
        },
        {
          "duration": 0.2439023333333381,
          "durationTicks": 32,
          "midi": 71,
          "name": "B4",
          "ticks": 5904,
          "time": 44.9999805,
          "velocity": 0.6220472440944882
        },
        {
          "duration": 0.2439023333333381,
          "durationTicks": 32,
          "midi": 76,
          "name": "E5",
          "ticks": 5952,
          "time": 45.365834,
          "velocity": 0.6220472440944882
        },
        {
          "duration": 0.12195116666666195,
          "durationTicks": 16,
          "midi": 71,
          "name": "B4",
          "ticks": 6000,
          "time": 45.7316875,
          "velocity": 0.6220472440944882
        },
        {
          "duration": 0.18292675000000003,
          "durationTicks": 24,
          "midi": 74,
          "name": "D5",
          "ticks": 6024,
          "time": 45.91461425,
          "velocity": 0.6220472440944882
        },
        {
          "duration": 0.2439023333333381,
          "durationTicks": 32,
          "midi": 74,
          "name": "D5",
          "ticks": 6048,
          "time": 46.097541,
          "velocity": 0.6220472440944882
        },
        {
          "duration": 0.2439023333333381,
          "durationTicks": 32,
          "midi": 76,
          "name": "E5",
          "ticks": 6096,
          "time": 46.4633945,
          "velocity": 0.6220472440944882
        },
        {
          "duration": 1.448170104166671,
          "durationTicks": 190,
          "midi": 71,
          "name": "B4",
          "ticks": 6144,
          "time": 46.829248,
          "velocity": 0.6220472440944882
        },
        {
          "duration": 0.243902333333331,
          "durationTicks": 32,
          "midi": 67,
          "name": "G4",
          "ticks": 6576,
          "time": 50.1219295,
          "velocity": 0.6220472440944882
        },
        {
          "duration": 0.243902333333331,
          "durationTicks": 32,
          "midi": 71,
          "name": "B4",
          "ticks": 6624,
          "time": 50.487783,
          "velocity": 0.6220472440944882
        },
        {
          "duration": 0.243902333333331,
          "durationTicks": 32,
          "midi": 72,
          "name": "C5",
          "ticks": 6672,
          "time": 50.8536365,
          "velocity": 0.6220472440944882
        },
        {
          "duration": 0.243902333333331,
          "durationTicks": 32,
          "midi": 71,
          "name": "B4",
          "ticks": 6720,
          "time": 51.21949,
          "velocity": 0.6220472440944882
        },
        {
          "duration": 0.243902333333331,
          "durationTicks": 32,
          "midi": 69,
          "name": "A4",
          "ticks": 6768,
          "time": 51.5853435,
          "velocity": 0.6220472440944882
        },
        {
          "duration": 0.243902333333331,
          "durationTicks": 32,
          "midi": 67,
          "name": "G4",
          "ticks": 6816,
          "time": 51.951197,
          "velocity": 0.6220472440944882
        },
        {
          "duration": 0.243902333333331,
          "durationTicks": 32,
          "midi": 69,
          "name": "A4",
          "ticks": 6864,
          "time": 52.3170505,
          "velocity": 0.6220472440944882
        },
        {
          "duration": 0.36585350000000005,
          "durationTicks": 48,
          "midi": 64,
          "name": "E4",
          "ticks": 6912,
          "time": 52.682904,
          "velocity": 0.6220472440944882
        },
        {
          "duration": 0.12195116666666905,
          "durationTicks": 16,
          "midi": 71,
          "name": "B4",
          "ticks": 6984,
          "time": 53.23168425,
          "velocity": 0.6220472440944882
        },
        {
          "duration": 0.7317070000000001,
          "durationTicks": 96,
          "midi": 71,
          "name": "B4",
          "ticks": 7008,
          "time": 53.414611,
          "velocity": 0.6220472440944882
        },
        {
          "duration": 0.9603654375000019,
          "durationTicks": 126,
          "midi": 71,
          "name": "B4",
          "ticks": 7104,
          "time": 54.146318,
          "velocity": 0.6220472440944882
        },
        {
          "duration": 0.243902333333331,
          "durationTicks": 32,
          "midi": 71,
          "name": "B4",
          "ticks": 7344,
          "time": 55.9755855,
          "velocity": 0.6220472440944882
        },
        {
          "duration": 0.243902333333331,
          "durationTicks": 32,
          "midi": 74,
          "name": "D5",
          "ticks": 7392,
          "time": 56.341439,
          "velocity": 0.6220472440944882
        },
        {
          "duration": 0.12195116666666905,
          "durationTicks": 16,
          "midi": 71,
          "name": "B4",
          "ticks": 7440,
          "time": 56.7072925,
          "velocity": 0.6220472440944882
        },
        {
          "duration": 0.18292675000000003,
          "durationTicks": 24,
          "midi": 76,
          "name": "E5",
          "ticks": 7464,
          "time": 56.89021925,
          "velocity": 0.6220472440944882
        },
        {
          "duration": 0.243902333333331,
          "durationTicks": 32,
          "midi": 76,
          "name": "E5",
          "ticks": 7488,
          "time": 57.073146,
          "velocity": 0.6220472440944882
        },
        {
          "duration": 0.243902333333331,
          "durationTicks": 32,
          "midi": 71,
          "name": "B4",
          "ticks": 7536,
          "time": 57.4389995,
          "velocity": 0.6220472440944882
        },
        {
          "duration": 0.243902333333331,
          "durationTicks": 32,
          "midi": 74,
          "name": "D5",
          "ticks": 7584,
          "time": 57.804853,
          "velocity": 0.6220472440944882
        },
        {
          "duration": 0.243902333333331,
          "durationTicks": 32,
          "midi": 76,
          "name": "E5",
          "ticks": 7632,
          "time": 58.1707065,
          "velocity": 0.6220472440944882
        },
        {
          "duration": 1.448170104166671,
          "durationTicks": 190,
          "midi": 71,
          "name": "B4",
          "ticks": 7680,
          "time": 58.53656,
          "velocity": 0.6220472440944882
        },
        {
          "duration": 0.243902333333331,
          "durationTicks": 32,
          "midi": 67,
          "name": "G4",
          "ticks": 8112,
          "time": 61.8292415,
          "velocity": 0.6220472440944882
        },
        {
          "duration": 0.243902333333331,
          "durationTicks": 32,
          "midi": 71,
          "name": "B4",
          "ticks": 8160,
          "time": 62.195095,
          "velocity": 0.6220472440944882
        },
        {
          "duration": 0.243902333333331,
          "durationTicks": 32,
          "midi": 72,
          "name": "C5",
          "ticks": 8208,
          "time": 62.5609485,
          "velocity": 0.6220472440944882
        },
        {
          "duration": 0.2439023333333239,
          "durationTicks": 32,
          "midi": 71,
          "name": "B4",
          "ticks": 8256,
          "time": 62.926802,
          "velocity": 0.6220472440944882
        },
        {
          "duration": 0.12195116666666905,
          "durationTicks": 16,
          "midi": 69,
          "name": "A4",
          "ticks": 8304,
          "time": 63.2926555,
          "velocity": 0.6220472440944882
        },
        {
          "duration": 0.18292675000000003,
          "durationTicks": 24,
          "midi": 67,
          "name": "G4",
          "ticks": 8328,
          "time": 63.47558225,
          "velocity": 0.6220472440944882
        },
        {
          "duration": 0.4725607708333328,
          "durationTicks": 62,
          "midi": 67,
          "name": "G4",
          "ticks": 8352,
          "time": 63.658509,
          "velocity": 0.6220472440944882
        },
        {
          "duration": 0.10670727083333986,
          "durationTicks": 14,
          "midi": 71,
          "name": "B4",
          "ticks": 8448,
          "time": 64.390216,
          "velocity": 0.6220472440944882
        },
        {
          "duration": 0.10670727083332565,
          "durationTicks": 14,
          "midi": 70,
          "name": "A#4",
          "ticks": 8472,
          "time": 64.57314275,
          "velocity": 0.6220472440944882
        },
        {
          "duration": 0.10670727083333986,
          "durationTicks": 14,
          "midi": 71,
          "name": "B4",
          "ticks": 8496,
          "time": 64.7560695,
          "velocity": 0.6220472440944882
        },
        {
          "duration": 0.10670727083332565,
          "durationTicks": 14,
          "midi": 70,
          "name": "A#4",
          "ticks": 8520,
          "time": 64.93899625,
          "velocity": 0.6220472440944882
        },
        {
          "duration": 0.10670727083333986,
          "durationTicks": 14,
          "midi": 71,
          "name": "B4",
          "ticks": 8544,
          "time": 65.121923,
          "velocity": 0.6220472440944882
        },
        {
          "duration": 0.10670727083332565,
          "durationTicks": 14,
          "midi": 70,
          "name": "A#4",
          "ticks": 8568,
          "time": 65.30484975,
          "velocity": 0.6220472440944882
        },
        {
          "duration": 0.10670727083333986,
          "durationTicks": 14,
          "midi": 71,
          "name": "B4",
          "ticks": 8592,
          "time": 65.4877765,
          "velocity": 0.6220472440944882
        },
        {
          "duration": 0.10670727083332565,
          "durationTicks": 14,
          "midi": 70,
          "name": "A#4",
          "ticks": 8616,
          "time": 65.67070325,
          "velocity": 0.6220472440944882
        },
        {
          "duration": 0.10670727083333986,
          "durationTicks": 14,
          "midi": 71,
          "name": "B4",
          "ticks": 8640,
          "time": 65.85363,
          "velocity": 0.6220472440944882
        },
        {
          "duration": 0.10670727083332565,
          "durationTicks": 14,
          "midi": 70,
          "name": "A#4",
          "ticks": 8664,
          "time": 66.03655675,
          "velocity": 0.6220472440944882
        },
        {
          "duration": 0.10670727083333986,
          "durationTicks": 14,
          "midi": 71,
          "name": "B4",
          "ticks": 8688,
          "time": 66.2194835,
          "velocity": 0.6220472440944882
        },
        {
          "duration": 0.10670727083332565,
          "durationTicks": 14,
          "midi": 70,
          "name": "A#4",
          "ticks": 8712,
          "time": 66.40241025,
          "velocity": 0.6220472440944882
        },
        {
          "duration": 0.2286584375000018,
          "durationTicks": 30,
          "midi": 71,
          "name": "B4",
          "ticks": 8736,
          "time": 66.585337,
          "velocity": 0.6220472440944882
        },
        {
          "duration": 0.10670727083333986,
          "durationTicks": 14,
          "midi": 76,
          "name": "E5",
          "ticks": 8784,
          "time": 66.9511905,
          "velocity": 0.6220472440944882
        },
        {
          "duration": 0.18292674999999292,
          "durationTicks": 24,
          "midi": 79,
          "name": "G5",
          "ticks": 8808,
          "time": 67.13411725,
          "velocity": 0.6220472440944882
        },
        {
          "duration": 0.9146337500000072,
          "durationTicks": 120,
          "midi": 79,
          "name": "G5",
          "ticks": 8832,
          "time": 67.317044,
          "velocity": 0.6220472440944882
        },
        {
          "duration": 0.2439023333333381,
          "durationTicks": 32,
          "midi": 71,
          "name": "B4",
          "ticks": 9264,
          "time": 70.6097255,
          "velocity": 0.6220472440944882
        },
        {
          "duration": 0.2439023333333381,
          "durationTicks": 32,
          "midi": 74,
          "name": "D5",
          "ticks": 9312,
          "time": 70.975579,
          "velocity": 0.6220472440944882
        },
        {
          "duration": 0.2439023333333381,
          "durationTicks": 32,
          "midi": 71,
          "name": "B4",
          "ticks": 9360,
          "time": 71.3414325,
          "velocity": 0.6220472440944882
        },
        {
          "duration": 0.2439023333333381,
          "durationTicks": 32,
          "midi": 76,
          "name": "E5",
          "ticks": 9408,
          "time": 71.707286,
          "velocity": 0.6220472440944882
        },
        {
          "duration": 0.12195116666667616,
          "durationTicks": 16,
          "midi": 71,
          "name": "B4",
          "ticks": 9456,
          "time": 72.0731395,
          "velocity": 0.6220472440944882
        },
        {
          "duration": 0.18292674999999292,
          "durationTicks": 24,
          "midi": 74,
          "name": "D5",
          "ticks": 9480,
          "time": 72.25606625,
          "velocity": 0.6220472440944882
        },
        {
          "duration": 0.2439023333333381,
          "durationTicks": 32,
          "midi": 74,
          "name": "D5",
          "ticks": 9504,
          "time": 72.438993,
          "velocity": 0.6220472440944882
        },
        {
          "duration": 0.2439023333333381,
          "durationTicks": 32,
          "midi": 76,
          "name": "E5",
          "ticks": 9552,
          "time": 72.8048465,
          "velocity": 0.6220472440944882
        },
        {
          "duration": 1.4481701041666781,
          "durationTicks": 190,
          "midi": 71,
          "name": "B4",
          "ticks": 9600,
          "time": 73.1707,
          "velocity": 0.6220472440944882
        },
        {
          "duration": 0.2439023333333381,
          "durationTicks": 32,
          "midi": 67,
          "name": "G4",
          "ticks": 10032,
          "time": 76.4633815,
          "velocity": 0.6220472440944882
        },
        {
          "duration": 0.2439023333333381,
          "durationTicks": 32,
          "midi": 71,
          "name": "B4",
          "ticks": 10080,
          "time": 76.829235,
          "velocity": 0.6220472440944882
        },
        {
          "duration": 0.2439023333333381,
          "durationTicks": 32,
          "midi": 72,
          "name": "C5",
          "ticks": 10128,
          "time": 77.1950885,
          "velocity": 0.6220472440944882
        },
        {
          "duration": 0.2439023333333381,
          "durationTicks": 32,
          "midi": 71,
          "name": "B4",
          "ticks": 10176,
          "time": 77.560942,
          "velocity": 0.6220472440944882
        },
        {
          "duration": 0.2439023333333381,
          "durationTicks": 32,
          "midi": 69,
          "name": "A4",
          "ticks": 10224,
          "time": 77.9267955,
          "velocity": 0.6220472440944882
        },
        {
          "duration": 0.2439023333333381,
          "durationTicks": 32,
          "midi": 67,
          "name": "G4",
          "ticks": 10272,
          "time": 78.292649,
          "velocity": 0.6220472440944882
        },
        {
          "duration": 0.2439023333333381,
          "durationTicks": 32,
          "midi": 69,
          "name": "A4",
          "ticks": 10320,
          "time": 78.6585025,
          "velocity": 0.6220472440944882
        },
        {
          "duration": 0.36585350000000005,
          "durationTicks": 48,
          "midi": 64,
          "name": "E4",
          "ticks": 10368,
          "time": 79.024356,
          "velocity": 0.6220472440944882
        },
        {
          "duration": 0.12195116666666195,
          "durationTicks": 16,
          "midi": 71,
          "name": "B4",
          "ticks": 10440,
          "time": 79.57313625,
          "velocity": 0.6220472440944882
        },
        {
          "duration": 0.7317070000000001,
          "durationTicks": 96,
          "midi": 71,
          "name": "B4",
          "ticks": 10464,
          "time": 79.756063,
          "velocity": 0.6220472440944882
        },
        {
          "duration": 0.9603654375000019,
          "durationTicks": 126,
          "midi": 71,
          "name": "B4",
          "ticks": 10560,
          "time": 80.48777,
          "velocity": 0.6220472440944882
        },
        {
          "duration": 0.2439023333333381,
          "durationTicks": 32,
          "midi": 71,
          "name": "B4",
          "ticks": 10800,
          "time": 82.3170375,
          "velocity": 0.6220472440944882
        },
        {
          "duration": 0.2439023333333381,
          "durationTicks": 32,
          "midi": 74,
          "name": "D5",
          "ticks": 10848,
          "time": 82.682891,
          "velocity": 0.6220472440944882
        },
        {
          "duration": 0.12195116666667616,
          "durationTicks": 16,
          "midi": 71,
          "name": "B4",
          "ticks": 10896,
          "time": 83.0487445,
          "velocity": 0.6220472440944882
        },
        {
          "duration": 0.18292674999999292,
          "durationTicks": 24,
          "midi": 76,
          "name": "E5",
          "ticks": 10920,
          "time": 83.23167125,
          "velocity": 0.6220472440944882
        },
        {
          "duration": 0.2439023333333381,
          "durationTicks": 32,
          "midi": 76,
          "name": "E5",
          "ticks": 10944,
          "time": 83.414598,
          "velocity": 0.6220472440944882
        },
        {
          "duration": 0.2439023333333381,
          "durationTicks": 32,
          "midi": 71,
          "name": "B4",
          "ticks": 10992,
          "time": 83.7804515,
          "velocity": 0.6220472440944882
        },
        {
          "duration": 0.2439023333333381,
          "durationTicks": 32,
          "midi": 74,
          "name": "D5",
          "ticks": 11040,
          "time": 84.146305,
          "velocity": 0.6220472440944882
        },
        {
          "duration": 0.2439023333333381,
          "durationTicks": 32,
          "midi": 76,
          "name": "E5",
          "ticks": 11088,
          "time": 84.5121585,
          "velocity": 0.6220472440944882
        },
        {
          "duration": 1.4481701041666781,
          "durationTicks": 190,
          "midi": 71,
          "name": "B4",
          "ticks": 11136,
          "time": 84.878012,
          "velocity": 0.6220472440944882
        },
        {
          "duration": 0.2439023333333239,
          "durationTicks": 32,
          "midi": 67,
          "name": "G4",
          "ticks": 11568,
          "time": 88.1706935,
          "velocity": 0.6220472440944882
        },
        {
          "duration": 0.2439023333333239,
          "durationTicks": 32,
          "midi": 71,
          "name": "B4",
          "ticks": 11616,
          "time": 88.536547,
          "velocity": 0.6220472440944882
        },
        {
          "duration": 0.2439023333333239,
          "durationTicks": 32,
          "midi": 72,
          "name": "C5",
          "ticks": 11664,
          "time": 88.9024005,
          "velocity": 0.6220472440944882
        },
        {
          "duration": 0.2439023333333239,
          "durationTicks": 32,
          "midi": 71,
          "name": "B4",
          "ticks": 11712,
          "time": 89.268254,
          "velocity": 0.6220472440944882
        },
        {
          "duration": 0.12195116666667616,
          "durationTicks": 16,
          "midi": 69,
          "name": "A4",
          "ticks": 11760,
          "time": 89.6341075,
          "velocity": 0.6220472440944882
        },
        {
          "duration": 0.18292674999999292,
          "durationTicks": 24,
          "midi": 67,
          "name": "G4",
          "ticks": 11784,
          "time": 89.81703425,
          "velocity": 0.6220472440944882
        },
        {
          "duration": 0.4725607708333257,
          "durationTicks": 62,
          "midi": 67,
          "name": "G4",
          "ticks": 11808,
          "time": 89.999961,
          "velocity": 0.6220472440944882
        },
        {
          "duration": 0.2439023333333239,
          "durationTicks": 32,
          "midi": 71,
          "name": "B4",
          "ticks": 12000,
          "time": 91.463375,
          "velocity": 0.6220472440944882
        },
        {
          "duration": 0.2439023333333239,
          "durationTicks": 32,
          "midi": 72,
          "name": "C5",
          "ticks": 12048,
          "time": 91.8292285,
          "velocity": 0.6220472440944882
        },
        {
          "duration": 0.4878046666666762,
          "durationTicks": 64,
          "midi": 71,
          "name": "B4",
          "ticks": 12096,
          "time": 92.195082,
          "velocity": 0.6220472440944882
        },
        {
          "duration": 0.4878046666666762,
          "durationTicks": 64,
          "midi": 76,
          "name": "E5",
          "ticks": 12192,
          "time": 92.926789,
          "velocity": 0.6220472440944882
        },
        {
          "duration": 0.9603654375000019,
          "durationTicks": 126,
          "midi": 79,
          "name": "G5",
          "ticks": 12288,
          "time": 93.658496,
          "velocity": 0.6220472440944882
        },
        {
          "duration": 0.2439023333333381,
          "durationTicks": 32,
          "midi": 76,
          "name": "E5",
          "ticks": 12624,
          "time": 96.2194705,
          "velocity": 0.6220472440944882
        },
        {
          "duration": 0.487804666666662,
          "durationTicks": 64,
          "midi": 79,
          "name": "G5",
          "ticks": 12672,
          "time": 96.585324,
          "velocity": 0.6220472440944882
        },
        {
          "duration": 0.487804666666662,
          "durationTicks": 64,
          "midi": 76,
          "name": "E5",
          "ticks": 12768,
          "time": 97.317031,
          "velocity": 0.6220472440944882
        },
        {
          "duration": 0.18292674999999292,
          "durationTicks": 24,
          "midi": 71,
          "name": "B4",
          "ticks": 12864,
          "time": 98.048738,
          "velocity": 0.6220472440944882
        },
        {
          "duration": 0.18292675000000713,
          "durationTicks": 24,
          "midi": 72,
          "name": "C5",
          "ticks": 12888,
          "time": 98.23166475,
          "velocity": 0.6220472440944882
        },
        {
          "duration": 0.18292674999999292,
          "durationTicks": 24,
          "midi": 71,
          "name": "B4",
          "ticks": 12912,
          "time": 98.4145915,
          "velocity": 0.6220472440944882
        },
        {
          "duration": 0.18292675000000713,
          "durationTicks": 24,
          "midi": 72,
          "name": "C5",
          "ticks": 12936,
          "time": 98.59751825,
          "velocity": 0.6220472440944882
        },
        {
          "duration": 0.18292674999999292,
          "durationTicks": 24,
          "midi": 71,
          "name": "B4",
          "ticks": 12960,
          "time": 98.780445,
          "velocity": 0.6220472440944882
        },
        {
          "duration": 0.18292675000000713,
          "durationTicks": 24,
          "midi": 72,
          "name": "C5",
          "ticks": 12984,
          "time": 98.96337175,
          "velocity": 0.6220472440944882
        },
        {
          "duration": 0.18292674999999292,
          "durationTicks": 24,
          "midi": 71,
          "name": "B4",
          "ticks": 13008,
          "time": 99.1462985,
          "velocity": 0.6220472440944882
        },
        {
          "duration": 0.12195116666666195,
          "durationTicks": 16,
          "midi": 72,
          "name": "C5",
          "ticks": 13032,
          "time": 99.32922525,
          "velocity": 0.6220472440944882
        },
        {
          "duration": 0.18292674999999292,
          "durationTicks": 24,
          "midi": 71,
          "name": "B4",
          "ticks": 13056,
          "time": 99.512152,
          "velocity": 0.6220472440944882
        },
        {
          "duration": 0.18292675000000713,
          "durationTicks": 24,
          "midi": 72,
          "name": "C5",
          "ticks": 13080,
          "time": 99.69507875,
          "velocity": 0.6220472440944882
        },
        {
          "duration": 0.18292674999999292,
          "durationTicks": 24,
          "midi": 71,
          "name": "B4",
          "ticks": 13104,
          "time": 99.8780055,
          "velocity": 0.6220472440944882
        },
        {
          "duration": 0.18292675000000713,
          "durationTicks": 24,
          "midi": 72,
          "name": "C5",
          "ticks": 13128,
          "time": 100.06093225,
          "velocity": 0.6220472440944882
        },
        {
          "duration": 0.18292674999999292,
          "durationTicks": 24,
          "midi": 71,
          "name": "B4",
          "ticks": 13152,
          "time": 100.243859,
          "velocity": 0.6220472440944882
        },
        {
          "duration": 0.18292675000000713,
          "durationTicks": 24,
          "midi": 72,
          "name": "C5",
          "ticks": 13176,
          "time": 100.42678575,
          "velocity": 0.6220472440944882
        },
        {
          "duration": 0.18292674999999292,
          "durationTicks": 24,
          "midi": 71,
          "name": "B4",
          "ticks": 13200,
          "time": 100.6097125,
          "velocity": 0.6220472440944882
        },
        {
          "duration": 0.12195116666666195,
          "durationTicks": 16,
          "midi": 72,
          "name": "C5",
          "ticks": 13224,
          "time": 100.79263925,
          "velocity": 0.6220472440944882
        },
        {
          "duration": 0.18292674999999292,
          "durationTicks": 24,
          "midi": 71,
          "name": "B4",
          "ticks": 13248,
          "time": 100.975566,
          "velocity": 0.6220472440944882
        },
        {
          "duration": 0.18292675000000713,
          "durationTicks": 24,
          "midi": 72,
          "name": "C5",
          "ticks": 13272,
          "time": 101.15849275,
          "velocity": 0.6220472440944882
        },
        {
          "duration": 0.18292674999999292,
          "durationTicks": 24,
          "midi": 71,
          "name": "B4",
          "ticks": 13296,
          "time": 101.3414195,
          "velocity": 0.6220472440944882
        },
        {
          "duration": 0.18292675000000713,
          "durationTicks": 24,
          "midi": 72,
          "name": "C5",
          "ticks": 13320,
          "time": 101.52434625,
          "velocity": 0.6220472440944882
        },
        {
          "duration": 0.18292674999999292,
          "durationTicks": 24,
          "midi": 71,
          "name": "B4",
          "ticks": 13344,
          "time": 101.707273,
          "velocity": 0.6220472440944882
        },
        {
          "duration": 0.18292675000000713,
          "durationTicks": 24,
          "midi": 72,
          "name": "C5",
          "ticks": 13368,
          "time": 101.89019975,
          "velocity": 0.6220472440944882
        },
        {
          "duration": 0.18292674999999292,
          "durationTicks": 24,
          "midi": 71,
          "name": "B4",
          "ticks": 13392,
          "time": 102.0731265,
          "velocity": 0.6220472440944882
        },
        {
          "duration": 0.12195116666666195,
          "durationTicks": 16,
          "midi": 72,
          "name": "C5",
          "ticks": 13416,
          "time": 102.25605325,
          "velocity": 0.6220472440944882
        },
        {
          "duration": 0.2439023333333239,
          "durationTicks": 32,
          "midi": 71,
          "name": "B4",
          "ticks": 25584,
          "time": 194.9999155,
          "velocity": 0.6220472440944882
        },
        {
          "duration": 0.2439023333333239,
          "durationTicks": 32,
          "midi": 74,
          "name": "D5",
          "ticks": 25632,
          "time": 195.365769,
          "velocity": 0.6220472440944882
        },
        {
          "duration": 0.2439023333333239,
          "durationTicks": 32,
          "midi": 71,
          "name": "B4",
          "ticks": 25680,
          "time": 195.7316225,
          "velocity": 0.6220472440944882
        },
        {
          "duration": 0.2439023333333239,
          "durationTicks": 32,
          "midi": 76,
          "name": "E5",
          "ticks": 25728,
          "time": 196.097476,
          "velocity": 0.6220472440944882
        },
        {
          "duration": 0.12195116666669037,
          "durationTicks": 16,
          "midi": 71,
          "name": "B4",
          "ticks": 25776,
          "time": 196.4633295,
          "velocity": 0.6220472440944882
        },
        {
          "duration": 0.18292675000000713,
          "durationTicks": 24,
          "midi": 74,
          "name": "D5",
          "ticks": 25800,
          "time": 196.64625625,
          "velocity": 0.6220472440944882
        },
        {
          "duration": 0.2439023333333239,
          "durationTicks": 32,
          "midi": 74,
          "name": "D5",
          "ticks": 25824,
          "time": 196.829183,
          "velocity": 0.6220472440944882
        },
        {
          "duration": 0.2439023333333239,
          "durationTicks": 32,
          "midi": 76,
          "name": "E5",
          "ticks": 25872,
          "time": 197.1950365,
          "velocity": 0.6220472440944882
        },
        {
          "duration": 1.4481701041666781,
          "durationTicks": 190,
          "midi": 71,
          "name": "B4",
          "ticks": 25920,
          "time": 197.56089,
          "velocity": 0.6220472440944882
        },
        {
          "duration": 0.2439023333333239,
          "durationTicks": 32,
          "midi": 67,
          "name": "G4",
          "ticks": 26352,
          "time": 200.8535715,
          "velocity": 0.6220472440944882
        },
        {
          "duration": 0.2439023333333239,
          "durationTicks": 32,
          "midi": 71,
          "name": "B4",
          "ticks": 26400,
          "time": 201.219425,
          "velocity": 0.6220472440944882
        },
        {
          "duration": 0.2439023333333239,
          "durationTicks": 32,
          "midi": 72,
          "name": "C5",
          "ticks": 26448,
          "time": 201.5852785,
          "velocity": 0.6220472440944882
        },
        {
          "duration": 0.2439023333333239,
          "durationTicks": 32,
          "midi": 71,
          "name": "B4",
          "ticks": 26496,
          "time": 201.951132,
          "velocity": 0.6220472440944882
        },
        {
          "duration": 0.2439023333333239,
          "durationTicks": 32,
          "midi": 69,
          "name": "A4",
          "ticks": 26544,
          "time": 202.3169855,
          "velocity": 0.6220472440944882
        },
        {
          "duration": 0.2439023333333239,
          "durationTicks": 32,
          "midi": 67,
          "name": "G4",
          "ticks": 26592,
          "time": 202.682839,
          "velocity": 0.6220472440944882
        },
        {
          "duration": 0.2439023333333239,
          "durationTicks": 32,
          "midi": 69,
          "name": "A4",
          "ticks": 26640,
          "time": 203.0486925,
          "velocity": 0.6220472440944882
        },
        {
          "duration": 0.36585349999998584,
          "durationTicks": 48,
          "midi": 64,
          "name": "E4",
          "ticks": 26688,
          "time": 203.414546,
          "velocity": 0.6220472440944882
        },
        {
          "duration": 0.12195116666669037,
          "durationTicks": 16,
          "midi": 71,
          "name": "B4",
          "ticks": 26760,
          "time": 203.96332625,
          "velocity": 0.6220472440944882
        },
        {
          "duration": 0.7317070000000001,
          "durationTicks": 96,
          "midi": 71,
          "name": "B4",
          "ticks": 26784,
          "time": 204.146253,
          "velocity": 0.6220472440944882
        },
        {
          "duration": 0.9603654375000019,
          "durationTicks": 126,
          "midi": 71,
          "name": "B4",
          "ticks": 26880,
          "time": 204.87796,
          "velocity": 0.6220472440944882
        },
        {
          "duration": 0.2439023333333239,
          "durationTicks": 32,
          "midi": 71,
          "name": "B4",
          "ticks": 27120,
          "time": 206.7072275,
          "velocity": 0.6220472440944882
        },
        {
          "duration": 0.2439023333333239,
          "durationTicks": 32,
          "midi": 74,
          "name": "D5",
          "ticks": 27168,
          "time": 207.073081,
          "velocity": 0.6220472440944882
        },
        {
          "duration": 0.12195116666669037,
          "durationTicks": 16,
          "midi": 71,
          "name": "B4",
          "ticks": 27216,
          "time": 207.4389345,
          "velocity": 0.6220472440944882
        },
        {
          "duration": 0.18292675000000713,
          "durationTicks": 24,
          "midi": 76,
          "name": "E5",
          "ticks": 27240,
          "time": 207.62186125,
          "velocity": 0.6220472440944882
        },
        {
          "duration": 0.2439023333333239,
          "durationTicks": 32,
          "midi": 76,
          "name": "E5",
          "ticks": 27264,
          "time": 207.804788,
          "velocity": 0.6220472440944882
        },
        {
          "duration": 0.2439023333333239,
          "durationTicks": 32,
          "midi": 71,
          "name": "B4",
          "ticks": 27312,
          "time": 208.1706415,
          "velocity": 0.6220472440944882
        },
        {
          "duration": 0.2439023333333239,
          "durationTicks": 32,
          "midi": 74,
          "name": "D5",
          "ticks": 27360,
          "time": 208.536495,
          "velocity": 0.6220472440944882
        },
        {
          "duration": 0.2439023333333239,
          "durationTicks": 32,
          "midi": 76,
          "name": "E5",
          "ticks": 27408,
          "time": 208.9023485,
          "velocity": 0.6220472440944882
        },
        {
          "duration": 1.4481701041666781,
          "durationTicks": 190,
          "midi": 71,
          "name": "B4",
          "ticks": 27456,
          "time": 209.268202,
          "velocity": 0.6220472440944882
        },
        {
          "duration": 0.2439023333333239,
          "durationTicks": 32,
          "midi": 67,
          "name": "G4",
          "ticks": 27888,
          "time": 212.5608835,
          "velocity": 0.6220472440944882
        },
        {
          "duration": 0.2439023333333239,
          "durationTicks": 32,
          "midi": 71,
          "name": "B4",
          "ticks": 27936,
          "time": 212.926737,
          "velocity": 0.6220472440944882
        },
        {
          "duration": 0.2439023333333239,
          "durationTicks": 32,
          "midi": 72,
          "name": "C5",
          "ticks": 27984,
          "time": 213.2925905,
          "velocity": 0.6220472440944882
        },
        {
          "duration": 0.2439023333333239,
          "durationTicks": 32,
          "midi": 71,
          "name": "B4",
          "ticks": 28032,
          "time": 213.658444,
          "velocity": 0.6220472440944882
        },
        {
          "duration": 0.12195116666669037,
          "durationTicks": 16,
          "midi": 69,
          "name": "A4",
          "ticks": 28080,
          "time": 214.0242975,
          "velocity": 0.6220472440944882
        },
        {
          "duration": 0.18292675000000713,
          "durationTicks": 24,
          "midi": 67,
          "name": "G4",
          "ticks": 28104,
          "time": 214.20722425,
          "velocity": 0.6220472440944882
        },
        {
          "duration": 0.2439023333333239,
          "durationTicks": 32,
          "midi": 67,
          "name": "G4",
          "ticks": 28128,
          "time": 214.390151,
          "velocity": 0.6220472440944882
        },
        {
          "duration": 0.12195116666669037,
          "durationTicks": 16,
          "midi": 71,
          "name": "B4",
          "ticks": 28224,
          "time": 215.121858,
          "velocity": 0.6220472440944882
        },
        {
          "duration": 0.12195116666666195,
          "durationTicks": 16,
          "midi": 70,
          "name": "A#4",
          "ticks": 28248,
          "time": 215.30478475,
          "velocity": 0.6220472440944882
        },
        {
          "duration": 0.12195116666669037,
          "durationTicks": 16,
          "midi": 71,
          "name": "B4",
          "ticks": 28272,
          "time": 215.4877115,
          "velocity": 0.6220472440944882
        },
        {
          "duration": 0.12195116666669037,
          "durationTicks": 16,
          "midi": 70,
          "name": "A#4",
          "ticks": 28296,
          "time": 215.67063825,
          "velocity": 0.6220472440944882
        },
        {
          "duration": 0.12195116666669037,
          "durationTicks": 16,
          "midi": 71,
          "name": "B4",
          "ticks": 28320,
          "time": 215.853565,
          "velocity": 0.6220472440944882
        },
        {
          "duration": 0.12195116666666195,
          "durationTicks": 16,
          "midi": 70,
          "name": "A#4",
          "ticks": 28344,
          "time": 216.03649175,
          "velocity": 0.6220472440944882
        },
        {
          "duration": 0.12195116666669037,
          "durationTicks": 16,
          "midi": 71,
          "name": "B4",
          "ticks": 28368,
          "time": 216.2194185,
          "velocity": 0.6220472440944882
        },
        {
          "duration": 0.12195116666669037,
          "durationTicks": 16,
          "midi": 70,
          "name": "A#4",
          "ticks": 28392,
          "time": 216.40234525,
          "velocity": 0.6220472440944882
        },
        {
          "duration": 0.12195116666666195,
          "durationTicks": 16,
          "midi": 71,
          "name": "B4",
          "ticks": 28416,
          "time": 216.585272,
          "velocity": 0.6220472440944882
        },
        {
          "duration": 0.12195116666666195,
          "durationTicks": 16,
          "midi": 70,
          "name": "A#4",
          "ticks": 28440,
          "time": 216.76819875,
          "velocity": 0.6220472440944882
        },
        {
          "duration": 0.12195116666669037,
          "durationTicks": 16,
          "midi": 71,
          "name": "B4",
          "ticks": 28464,
          "time": 216.9511255,
          "velocity": 0.6220472440944882
        },
        {
          "duration": 0.12195116666669037,
          "durationTicks": 16,
          "midi": 70,
          "name": "A#4",
          "ticks": 28488,
          "time": 217.13405225,
          "velocity": 0.6220472440944882
        },
        {
          "duration": 0.2439023333333239,
          "durationTicks": 32,
          "midi": 71,
          "name": "B4",
          "ticks": 28512,
          "time": 217.316979,
          "velocity": 0.6220472440944882
        },
        {
          "duration": 0.2439023333333239,
          "durationTicks": 32,
          "midi": 76,
          "name": "E5",
          "ticks": 28560,
          "time": 217.6828325,
          "velocity": 0.6220472440944882
        },
        {
          "duration": 1.4481701041666781,
          "durationTicks": 190,
          "midi": 79,
          "name": "G5",
          "ticks": 28608,
          "time": 218.048686,
          "velocity": 0.6220472440944882
        },
        {
          "duration": 0.2439023333333239,
          "durationTicks": 32,
          "midi": 76,
          "name": "E5",
          "ticks": 28896,
          "time": 220.243807,
          "velocity": 0.6220472440944882
        },
        {
          "duration": 0.4878046666666762,
          "durationTicks": 64,
          "midi": 79,
          "name": "G5",
          "ticks": 28992,
          "time": 220.975514,
          "velocity": 0.6220472440944882
        },
        {
          "duration": 0.4878046666666762,
          "durationTicks": 64,
          "midi": 76,
          "name": "E5",
          "ticks": 29088,
          "time": 221.707221,
          "velocity": 0.6220472440944882
        },
        {
          "duration": 0.18292675000000713,
          "durationTicks": 24,
          "midi": 71,
          "name": "B4",
          "ticks": 29184,
          "time": 222.438928,
          "velocity": 0.6220472440944882
        },
        {
          "duration": 0.1829267499999787,
          "durationTicks": 24,
          "midi": 72,
          "name": "C5",
          "ticks": 29208,
          "time": 222.62185475,
          "velocity": 0.6220472440944882
        },
        {
          "duration": 0.18292675000000713,
          "durationTicks": 24,
          "midi": 71,
          "name": "B4",
          "ticks": 29232,
          "time": 222.8047815,
          "velocity": 0.6220472440944882
        },
        {
          "duration": 0.18292675000000713,
          "durationTicks": 24,
          "midi": 72,
          "name": "C5",
          "ticks": 29256,
          "time": 222.98770825,
          "velocity": 0.6220472440944882
        },
        {
          "duration": 0.18292675000000713,
          "durationTicks": 24,
          "midi": 71,
          "name": "B4",
          "ticks": 29280,
          "time": 223.170635,
          "velocity": 0.6220472440944882
        },
        {
          "duration": 0.1829267499999787,
          "durationTicks": 24,
          "midi": 72,
          "name": "C5",
          "ticks": 29304,
          "time": 223.35356175,
          "velocity": 0.6220472440944882
        },
        {
          "duration": 0.18292675000000713,
          "durationTicks": 24,
          "midi": 71,
          "name": "B4",
          "ticks": 29328,
          "time": 223.5364885,
          "velocity": 0.6220472440944882
        },
        {
          "duration": 0.12195116666669037,
          "durationTicks": 16,
          "midi": 72,
          "name": "C5",
          "ticks": 29352,
          "time": 223.71941525,
          "velocity": 0.6220472440944882
        },
        {
          "duration": 0.18292675000000713,
          "durationTicks": 24,
          "midi": 71,
          "name": "B4",
          "ticks": 29376,
          "time": 223.902342,
          "velocity": 0.6220472440944882
        },
        {
          "duration": 0.1829267499999787,
          "durationTicks": 24,
          "midi": 72,
          "name": "C5",
          "ticks": 29400,
          "time": 224.08526875,
          "velocity": 0.6220472440944882
        },
        {
          "duration": 0.18292675000000713,
          "durationTicks": 24,
          "midi": 71,
          "name": "B4",
          "ticks": 29424,
          "time": 224.2681955,
          "velocity": 0.6220472440944882
        },
        {
          "duration": 0.18292675000000713,
          "durationTicks": 24,
          "midi": 72,
          "name": "C5",
          "ticks": 29448,
          "time": 224.45112225,
          "velocity": 0.6220472440944882
        },
        {
          "duration": 0.18292675000000713,
          "durationTicks": 24,
          "midi": 71,
          "name": "B4",
          "ticks": 29472,
          "time": 224.634049,
          "velocity": 0.6220472440944882
        },
        {
          "duration": 0.1829267499999787,
          "durationTicks": 24,
          "midi": 72,
          "name": "C5",
          "ticks": 29496,
          "time": 224.81697575,
          "velocity": 0.6220472440944882
        },
        {
          "duration": 0.18292675000000713,
          "durationTicks": 24,
          "midi": 71,
          "name": "B4",
          "ticks": 29520,
          "time": 224.9999025,
          "velocity": 0.6220472440944882
        },
        {
          "duration": 0.12195116666669037,
          "durationTicks": 16,
          "midi": 72,
          "name": "C5",
          "ticks": 29544,
          "time": 225.18282925,
          "velocity": 0.6220472440944882
        },
        {
          "duration": 0.18292675000000713,
          "durationTicks": 24,
          "midi": 71,
          "name": "B4",
          "ticks": 29568,
          "time": 225.365756,
          "velocity": 0.6220472440944882
        },
        {
          "duration": 0.1829267499999787,
          "durationTicks": 24,
          "midi": 72,
          "name": "C5",
          "ticks": 29592,
          "time": 225.54868275,
          "velocity": 0.6220472440944882
        },
        {
          "duration": 0.18292675000000713,
          "durationTicks": 24,
          "midi": 71,
          "name": "B4",
          "ticks": 29616,
          "time": 225.7316095,
          "velocity": 0.6220472440944882
        },
        {
          "duration": 0.18292675000000713,
          "durationTicks": 24,
          "midi": 72,
          "name": "C5",
          "ticks": 29640,
          "time": 225.91453625,
          "velocity": 0.6220472440944882
        },
        {
          "duration": 0.18292675000000713,
          "durationTicks": 24,
          "midi": 71,
          "name": "B4",
          "ticks": 29664,
          "time": 226.097463,
          "velocity": 0.6220472440944882
        },
        {
          "duration": 0.1829267499999787,
          "durationTicks": 24,
          "midi": 72,
          "name": "C5",
          "ticks": 29688,
          "time": 226.28038975,
          "velocity": 0.6220472440944882
        },
        {
          "duration": 0.18292675000000713,
          "durationTicks": 24,
          "midi": 71,
          "name": "B4",
          "ticks": 29712,
          "time": 226.4633165,
          "velocity": 0.6220472440944882
        },
        {
          "duration": 0.12195116666669037,
          "durationTicks": 16,
          "midi": 72,
          "name": "C5",
          "ticks": 29736,
          "time": 226.64624325,
          "velocity": 0.6220472440944882
        }
      ]
    },
    {
      "channel": 1,
      "controlChanges": {
        "1": [
          {
            "number": 1,
            "ticks": 21698,
            "time": 165.38102589583335,
            "value": 0.8031496062992126
          },
          {
            "number": 1,
            "ticks": 21700,
            "time": 165.39626979166667,
            "value": 0.952755905511811
          },
          {
            "number": 1,
            "ticks": 21704,
            "time": 165.42675758333334,
            "value": 0.9763779527559056
          },
          {
            "number": 1,
            "ticks": 21706,
            "time": 165.44200147916666,
            "value": 0.984251968503937
          },
          {
            "number": 1,
            "ticks": 21730,
            "time": 165.62492822916667,
            "value": 0.9921259842519685
          },
          {
            "number": 1,
            "ticks": 25114,
            "time": 191.41759997916668,
            "value": 0.968503937007874
          },
          {
            "number": 1,
            "ticks": 25118,
            "time": 191.44808777083333,
            "value": 0.29133858267716534
          },
          {
            "number": 1,
            "ticks": 25120,
            "time": 191.46333166666668,
            "value": 0.023622047244094488
          },
          {
            "number": 1,
            "ticks": 25122,
            "time": 191.4785755625,
            "value": 0
          }
        ],
        "7": [
          {
            "number": 7,
            "ticks": 17868,
            "time": 136.188965375,
            "value": 0.8740157480314961
          },
          {
            "number": 7,
            "ticks": 17880,
            "time": 136.28042875,
            "value": 0.8818897637795275
          },
          {
            "number": 7,
            "ticks": 17904,
            "time": 136.4633555,
            "value": 0.889763779527559
          },
          {
            "number": 7,
            "ticks": 17916,
            "time": 136.554818875,
            "value": 0.8976377952755905
          },
          {
            "number": 7,
            "ticks": 17928,
            "time": 136.64628225,
            "value": 0.905511811023622
          },
          {
            "number": 7,
            "ticks": 17940,
            "time": 136.737745625,
            "value": 0.9133858267716536
          },
          {
            "number": 7,
            "ticks": 17952,
            "time": 136.829209,
            "value": 0.9212598425196851
          },
          {
            "number": 7,
            "ticks": 17964,
            "time": 136.920672375,
            "value": 0.9291338582677166
          },
          {
            "number": 7,
            "ticks": 17976,
            "time": 137.01213575,
            "value": 0.937007874015748
          },
          {
            "number": 7,
            "ticks": 17988,
            "time": 137.103599125,
            "value": 0.9448818897637795
          },
          {
            "number": 7,
            "ticks": 18000,
            "time": 137.1950625,
            "value": 0.952755905511811
          },
          {
            "number": 7,
            "ticks": 21600,
            "time": 164.634075,
            "value": 0.952755905511811
          },
          {
            "number": 7,
            "ticks": 21612,
            "time": 164.72553837499999,
            "value": 0.9448818897637795
          },
          {
            "number": 7,
            "ticks": 21624,
            "time": 164.81700175,
            "value": 0.9291338582677166
          },
          {
            "number": 7,
            "ticks": 21636,
            "time": 164.908465125,
            "value": 0.9212598425196851
          },
          {
            "number": 7,
            "ticks": 21648,
            "time": 164.9999285,
            "value": 0.905511811023622
          },
          {
            "number": 7,
            "ticks": 21660,
            "time": 165.091391875,
            "value": 0.889763779527559
          },
          {
            "number": 7,
            "ticks": 21672,
            "time": 165.18285525,
            "value": 0.8818897637795275
          },
          {
            "number": 7,
            "ticks": 21684,
            "time": 165.274318625,
            "value": 0.8661417322834646
          },
          {
            "number": 7,
            "ticks": 21696,
            "time": 165.365782,
            "value": 0.8503937007874016
          }
        ],
        "32": [
          {
            "number": 32,
            "ticks": 25536,
            "time": 194.634062,
            "value": 0
          }
        ]
      },
      "pitchBends": [],
      "instrument": {
        "family": "synth lead",
        "number": 82,
        "name": "lead 3 (calliope)"
      },
      "name": "",
      "notes": [
        {
          "duration": 0.12195116666666195,
          "durationTicks": 16,
          "midi": 68,
          "name": "G#4",
          "ticks": 18000,
          "time": 137.1950625,
          "velocity": 0.6220472440944882
        },
        {
          "duration": 0.12195116666663353,
          "durationTicks": 16,
          "midi": 71,
          "name": "B4",
          "ticks": 18024,
          "time": 137.37798925,
          "velocity": 0.6220472440944882
        },
        {
          "duration": 0.12195116666666195,
          "durationTicks": 16,
          "midi": 68,
          "name": "G#4",
          "ticks": 18168,
          "time": 138.47554975,
          "velocity": 0.6220472440944882
        },
        {
          "duration": 0.12195116666666195,
          "durationTicks": 16,
          "midi": 71,
          "name": "B4",
          "ticks": 18192,
          "time": 138.6584765,
          "velocity": 0.6220472440944882
        },
        {
          "duration": 0.12195116666663353,
          "durationTicks": 16,
          "midi": 68,
          "name": "G#4",
          "ticks": 18216,
          "time": 138.84140325,
          "velocity": 0.6220472440944882
        },
        {
          "duration": 0.4878046666666762,
          "durationTicks": 64,
          "midi": 71,
          "name": "B4",
          "ticks": 18240,
          "time": 139.02433,
          "velocity": 0.6220472440944882
        },
        {
          "duration": 0.12195116666666195,
          "durationTicks": 16,
          "midi": 71,
          "name": "B4",
          "ticks": 18384,
          "time": 140.1218905,
          "velocity": 0.6220472440944882
        },
        {
          "duration": 0.12195116666663353,
          "durationTicks": 16,
          "midi": 68,
          "name": "G#4",
          "ticks": 18408,
          "time": 140.30481725,
          "velocity": 0.6220472440944882
        },
        {
          "duration": 0.36585350000001426,
          "durationTicks": 48,
          "midi": 71,
          "name": "B4",
          "ticks": 18432,
          "time": 140.487744,
          "velocity": 0.6220472440944882
        },
        {
          "duration": 0.12195116666666195,
          "durationTicks": 16,
          "midi": 68,
          "name": "G#4",
          "ticks": 18504,
          "time": 141.03652424999999,
          "velocity": 0.6220472440944882
        },
        {
          "duration": 0.24390233333335232,
          "durationTicks": 32,
          "midi": 64,
          "name": "E4",
          "ticks": 18528,
          "time": 141.219451,
          "velocity": 0.6220472440944882
        },
        {
          "duration": 0.12195116666666195,
          "durationTicks": 16,
          "midi": 62,
          "name": "D4",
          "ticks": 18576,
          "time": 141.5853045,
          "velocity": 0.6220472440944882
        },
        {
          "duration": 0.18292675000000713,
          "durationTicks": 24,
          "midi": 64,
          "name": "E4",
          "ticks": 18600,
          "time": 141.76823124999999,
          "velocity": 0.6220472440944882
        },
        {
          "duration": 0.24390233333335232,
          "durationTicks": 32,
          "midi": 64,
          "name": "E4",
          "ticks": 18624,
          "time": 141.951158,
          "velocity": 0.6220472440944882
        },
        {
          "duration": 0.12195116666666195,
          "durationTicks": 16,
          "midi": 68,
          "name": "G#4",
          "ticks": 18960,
          "time": 144.5121325,
          "velocity": 0.6220472440944882
        },
        {
          "duration": 0.12195116666666195,
          "durationTicks": 16,
          "midi": 69,
          "name": "A4",
          "ticks": 18984,
          "time": 144.69505924999999,
          "velocity": 0.6220472440944882
        },
        {
          "duration": 0.12195116666666195,
          "durationTicks": 16,
          "midi": 71,
          "name": "B4",
          "ticks": 19008,
          "time": 144.877986,
          "velocity": 0.6220472440944882
        },
        {
          "duration": 0.36585349999998584,
          "durationTicks": 48,
          "midi": 71,
          "name": "B4",
          "ticks": 19032,
          "time": 145.06091275,
          "velocity": 0.6220472440944882
        },
        {
          "duration": 0.36585350000001426,
          "durationTicks": 48,
          "midi": 71,
          "name": "B4",
          "ticks": 19104,
          "time": 145.609693,
          "velocity": 0.6220472440944882
        },
        {
          "duration": 0.12195116666666195,
          "durationTicks": 16,
          "midi": 68,
          "name": "G#4",
          "ticks": 19176,
          "time": 146.15847325,
          "velocity": 0.6220472440944882
        },
        {
          "duration": 0.12195116666666195,
          "durationTicks": 16,
          "midi": 69,
          "name": "A4",
          "ticks": 19200,
          "time": 146.3414,
          "velocity": 0.6220472440944882
        },
        {
          "duration": 0.12195116666666195,
          "durationTicks": 16,
          "midi": 66,
          "name": "F#4",
          "ticks": 19224,
          "time": 146.52432675,
          "velocity": 0.6220472440944882
        },
        {
          "duration": 0.2439023333333239,
          "durationTicks": 32,
          "midi": 66,
          "name": "F#4",
          "ticks": 19248,
          "time": 146.7072535,
          "velocity": 0.6220472440944882
        },
        {
          "duration": 0.12195116666666195,
          "durationTicks": 16,
          "midi": 59,
          "name": "B3",
          "ticks": 19368,
          "time": 147.62188725,
          "velocity": 0.6220472440944882
        },
        {
          "duration": 0.12195116666666195,
          "durationTicks": 16,
          "midi": 71,
          "name": "B4",
          "ticks": 19392,
          "time": 147.804814,
          "velocity": 0.6220472440944882
        },
        {
          "duration": 0.36585349999998584,
          "durationTicks": 48,
          "midi": 71,
          "name": "B4",
          "ticks": 19416,
          "time": 147.98774075,
          "velocity": 0.6220472440944882
        },
        {
          "duration": 0.36585350000001426,
          "durationTicks": 48,
          "midi": 71,
          "name": "B4",
          "ticks": 19488,
          "time": 148.536521,
          "velocity": 0.6220472440944882
        },
        {
          "duration": 0.12195116666666195,
          "durationTicks": 16,
          "midi": 68,
          "name": "G#4",
          "ticks": 19560,
          "time": 149.08530125,
          "velocity": 0.6220472440944882
        },
        {
          "duration": 0.12195116666666195,
          "durationTicks": 16,
          "midi": 69,
          "name": "A4",
          "ticks": 19584,
          "time": 149.268228,
          "velocity": 0.6220472440944882
        },
        {
          "duration": 0.12195116666666195,
          "durationTicks": 16,
          "midi": 66,
          "name": "F#4",
          "ticks": 19608,
          "time": 149.45115475,
          "velocity": 0.6220472440944882
        },
        {
          "duration": 0.12195116666666195,
          "durationTicks": 16,
          "midi": 66,
          "name": "F#4",
          "ticks": 19632,
          "time": 149.6340815,
          "velocity": 0.6220472440944882
        },
        {
          "duration": 0.12195116666666195,
          "durationTicks": 16,
          "midi": 66,
          "name": "F#4",
          "ticks": 19656,
          "time": 149.81700825,
          "velocity": 0.6220472440944882
        },
        {
          "duration": 0.4878046666666762,
          "durationTicks": 64,
          "midi": 66,
          "name": "F#4",
          "ticks": 19680,
          "time": 149.999935,
          "velocity": 0.6220472440944882
        },
        {
          "duration": 0.12195116666666195,
          "durationTicks": 16,
          "midi": 71,
          "name": "B4",
          "ticks": 19920,
          "time": 151.8292025,
          "velocity": 0.6220472440944882
        },
        {
          "duration": 0.12195116666666195,
          "durationTicks": 16,
          "midi": 68,
          "name": "G#4",
          "ticks": 19944,
          "time": 152.01212925,
          "velocity": 0.6220472440944882
        },
        {
          "duration": 0.36585350000001426,
          "durationTicks": 48,
          "midi": 71,
          "name": "B4",
          "ticks": 19968,
          "time": 152.195056,
          "velocity": 0.6220472440944882
        },
        {
          "duration": 0.12195116666666195,
          "durationTicks": 16,
          "midi": 68,
          "name": "G#4",
          "ticks": 20040,
          "time": 152.74383625,
          "velocity": 0.6220472440944882
        },
        {
          "duration": 0.24390233333335232,
          "durationTicks": 32,
          "midi": 71,
          "name": "B4",
          "ticks": 20064,
          "time": 152.926763,
          "velocity": 0.6220472440944882
        },
        {
          "duration": 0.12195116666666195,
          "durationTicks": 16,
          "midi": 68,
          "name": "G#4",
          "ticks": 20112,
          "time": 153.2926165,
          "velocity": 0.6220472440944882
        },
        {
          "duration": 0.18292675000000713,
          "durationTicks": 24,
          "midi": 71,
          "name": "B4",
          "ticks": 20136,
          "time": 153.47554325,
          "velocity": 0.6220472440944882
        },
        {
          "duration": 0.4878046666666762,
          "durationTicks": 64,
          "midi": 71,
          "name": "B4",
          "ticks": 20160,
          "time": 153.65847,
          "velocity": 0.6220472440944882
        },
        {
          "duration": 0.12195116666666195,
          "durationTicks": 16,
          "midi": 71,
          "name": "B4",
          "ticks": 20304,
          "time": 154.7560305,
          "velocity": 0.6220472440944882
        },
        {
          "duration": 0.12195116666666195,
          "durationTicks": 16,
          "midi": 68,
          "name": "G#4",
          "ticks": 20328,
          "time": 154.93895725,
          "velocity": 0.6220472440944882
        },
        {
          "duration": 0.36585350000001426,
          "durationTicks": 48,
          "midi": 71,
          "name": "B4",
          "ticks": 20352,
          "time": 155.121884,
          "velocity": 0.6220472440944882
        },
        {
          "duration": 0.12195116666666195,
          "durationTicks": 16,
          "midi": 68,
          "name": "G#4",
          "ticks": 20424,
          "time": 155.67066425,
          "velocity": 0.6220472440944882
        },
        {
          "duration": 0.12195116666666195,
          "durationTicks": 16,
          "midi": 64,
          "name": "E4",
          "ticks": 20448,
          "time": 155.853591,
          "velocity": 0.6220472440944882
        },
        {
          "duration": 0.36585349999998584,
          "durationTicks": 48,
          "midi": 62,
          "name": "D4",
          "ticks": 20472,
          "time": 156.03651775,
          "velocity": 0.6220472440944882
        },
        {
          "duration": 0.4878046666666762,
          "durationTicks": 64,
          "midi": 64,
          "name": "E4",
          "ticks": 20544,
          "time": 156.585298,
          "velocity": 0.6220472440944882
        },
        {
          "duration": 0.12195116666666195,
          "durationTicks": 16,
          "midi": 68,
          "name": "G#4",
          "ticks": 20880,
          "time": 159.1462725,
          "velocity": 0.6220472440944882
        },
        {
          "duration": 0.12195116666666195,
          "durationTicks": 16,
          "midi": 69,
          "name": "A4",
          "ticks": 20904,
          "time": 159.32919925,
          "velocity": 0.6220472440944882
        },
        {
          "duration": 0.12195116666666195,
          "durationTicks": 16,
          "midi": 71,
          "name": "B4",
          "ticks": 20928,
          "time": 159.512126,
          "velocity": 0.6220472440944882
        },
        {
          "duration": 0.36585349999998584,
          "durationTicks": 48,
          "midi": 71,
          "name": "B4",
          "ticks": 20952,
          "time": 159.69505275,
          "velocity": 0.6220472440944882
        },
        {
          "duration": 0.24390233333335232,
          "durationTicks": 32,
          "midi": 71,
          "name": "B4",
          "ticks": 21024,
          "time": 160.243833,
          "velocity": 0.6220472440944882
        },
        {
          "duration": 0.2439023333333239,
          "durationTicks": 32,
          "midi": 68,
          "name": "G#4",
          "ticks": 21072,
          "time": 160.6096865,
          "velocity": 0.6220472440944882
        },
        {
          "duration": 0.12195116666666195,
          "durationTicks": 16,
          "midi": 69,
          "name": "A4",
          "ticks": 21120,
          "time": 160.97554,
          "velocity": 0.6220472440944882
        },
        {
          "duration": 0.36585349999998584,
          "durationTicks": 48,
          "midi": 66,
          "name": "F#4",
          "ticks": 21144,
          "time": 161.15846675,
          "velocity": 0.6220472440944882
        },
        {
          "duration": 0.36585350000001426,
          "durationTicks": 48,
          "midi": 66,
          "name": "F#4",
          "ticks": 21216,
          "time": 161.707247,
          "velocity": 0.6220472440944882
        },
        {
          "duration": 0.12195116666666195,
          "durationTicks": 16,
          "midi": 66,
          "name": "F#4",
          "ticks": 21288,
          "time": 162.25602725,
          "velocity": 0.6220472440944882
        },
        {
          "duration": 0.12195116666666195,
          "durationTicks": 16,
          "midi": 71,
          "name": "B4",
          "ticks": 21312,
          "time": 162.438954,
          "velocity": 0.6220472440944882
        },
        {
          "duration": 0.12195116666666195,
          "durationTicks": 16,
          "midi": 71,
          "name": "B4",
          "ticks": 21336,
          "time": 162.62188075,
          "velocity": 0.6220472440944882
        },
        {
          "duration": 0.2439023333333239,
          "durationTicks": 32,
          "midi": 71,
          "name": "B4",
          "ticks": 21360,
          "time": 162.8048075,
          "velocity": 0.6220472440944882
        },
        {
          "duration": 0.24390233333335232,
          "durationTicks": 32,
          "midi": 71,
          "name": "B4",
          "ticks": 21408,
          "time": 163.170661,
          "velocity": 0.6220472440944882
        },
        {
          "duration": 0.12195116666666195,
          "durationTicks": 16,
          "midi": 68,
          "name": "G#4",
          "ticks": 21456,
          "time": 163.5365145,
          "velocity": 0.6220472440944882
        },
        {
          "duration": 0.12195116666666195,
          "durationTicks": 16,
          "midi": 68,
          "name": "G#4",
          "ticks": 21480,
          "time": 163.71944125,
          "velocity": 0.6220472440944882
        },
        {
          "duration": 0.12195116666666195,
          "durationTicks": 16,
          "midi": 69,
          "name": "A4",
          "ticks": 21504,
          "time": 163.902368,
          "velocity": 0.6220472440944882
        },
        {
          "duration": 0.12195116666666195,
          "durationTicks": 16,
          "midi": 66,
          "name": "F#4",
          "ticks": 21528,
          "time": 164.08529475,
          "velocity": 0.6220472440944882
        },
        {
          "duration": 0.12195116666666195,
          "durationTicks": 16,
          "midi": 66,
          "name": "F#4",
          "ticks": 21552,
          "time": 164.2682215,
          "velocity": 0.6220472440944882
        },
        {
          "duration": 0.12195116666666195,
          "durationTicks": 16,
          "midi": 66,
          "name": "F#4",
          "ticks": 21576,
          "time": 164.45114825,
          "velocity": 0.6220472440944882
        },
        {
          "duration": 0.4878046666666762,
          "durationTicks": 64,
          "midi": 66,
          "name": "F#4",
          "ticks": 21600,
          "time": 164.634075,
          "velocity": 0.6220472440944882
        },
        {
          "duration": 2.1951210000000003,
          "durationTicks": 288,
          "midi": 64,
          "name": "E4",
          "ticks": 21696,
          "time": 165.365782,
          "velocity": 0.6220472440944882
        },
        {
          "duration": 0.36585350000001426,
          "durationTicks": 48,
          "midi": 62,
          "name": "D4",
          "ticks": 21984,
          "time": 167.560903,
          "velocity": 0.6220472440944882
        },
        {
          "duration": 0.36585349999998584,
          "durationTicks": 48,
          "midi": 60,
          "name": "C4",
          "ticks": 22032,
          "time": 167.9267565,
          "velocity": 0.6220472440944882
        },
        {
          "duration": 2.1951210000000003,
          "durationTicks": 288,
          "midi": 59,
          "name": "B3",
          "ticks": 22080,
          "time": 168.29261,
          "velocity": 0.6220472440944882
        },
        {
          "duration": 0.36585350000001426,
          "durationTicks": 48,
          "midi": 62,
          "name": "D4",
          "ticks": 22368,
          "time": 170.487731,
          "velocity": 0.6220472440944882
        },
        {
          "duration": 0.36585349999998584,
          "durationTicks": 48,
          "midi": 64,
          "name": "E4",
          "ticks": 22416,
          "time": 170.8535845,
          "velocity": 0.6220472440944882
        },
        {
          "duration": 2.1951210000000003,
          "durationTicks": 288,
          "midi": 66,
          "name": "F#4",
          "ticks": 22464,
          "time": 171.219438,
          "velocity": 0.6220472440944882
        },
        {
          "duration": 0.36585350000001426,
          "durationTicks": 48,
          "midi": 67,
          "name": "G4",
          "ticks": 22752,
          "time": 173.414559,
          "velocity": 0.6220472440944882
        },
        {
          "duration": 0.36585349999998584,
          "durationTicks": 48,
          "midi": 66,
          "name": "F#4",
          "ticks": 22800,
          "time": 173.7804125,
          "velocity": 0.6220472440944882
        },
        {
          "duration": 1.9359747708333543,
          "durationTicks": 254,
          "midi": 64,
          "name": "E4",
          "ticks": 22848,
          "time": 174.146266,
          "velocity": 0.6220472440944882
        },
        {
          "duration": 1.9359747708333543,
          "durationTicks": 254,
          "midi": 64,
          "name": "E4",
          "ticks": 23232,
          "time": 177.073094,
          "velocity": 0.6220472440944882
        },
        {
          "duration": 2.1951210000000003,
          "durationTicks": 288,
          "midi": 64,
          "name": "E4",
          "ticks": 23616,
          "time": 179.999922,
          "velocity": 0.6220472440944882
        },
        {
          "duration": 0.36585350000001426,
          "durationTicks": 48,
          "midi": 65,
          "name": "F4",
          "ticks": 23904,
          "time": 182.195043,
          "velocity": 0.6220472440944882
        },
        {
          "duration": 0.36585349999998584,
          "durationTicks": 48,
          "midi": 62,
          "name": "D4",
          "ticks": 23952,
          "time": 182.5608965,
          "velocity": 0.6220472440944882
        },
        {
          "duration": 1.4481701041666497,
          "durationTicks": 190,
          "midi": 62,
          "name": "D4",
          "ticks": 24000,
          "time": 182.92675,
          "velocity": 0.6220472440944882
        },
        {
          "duration": 0.36585350000001426,
          "durationTicks": 48,
          "midi": 62,
          "name": "D4",
          "ticks": 24288,
          "time": 185.121871,
          "velocity": 0.6220472440944882
        },
        {
          "duration": 0.36585349999998584,
          "durationTicks": 48,
          "midi": 64,
          "name": "E4",
          "ticks": 24336,
          "time": 185.4877245,
          "velocity": 0.6220472440944882
        },
        {
          "duration": 2.1951210000000003,
          "durationTicks": 288,
          "midi": 66,
          "name": "F#4",
          "ticks": 24384,
          "time": 185.853578,
          "velocity": 0.6220472440944882
        },
        {
          "duration": 0.36585349999998584,
          "durationTicks": 48,
          "midi": 67,
          "name": "G4",
          "ticks": 24672,
          "time": 188.048699,
          "velocity": 0.6220472440944882
        },
        {
          "duration": 0.36585350000001426,
          "durationTicks": 48,
          "midi": 66,
          "name": "F#4",
          "ticks": 24720,
          "time": 188.41455249999999,
          "velocity": 0.6220472440944882
        },
        {
          "duration": 1.935974770833326,
          "durationTicks": 254,
          "midi": 64,
          "name": "E4",
          "ticks": 24768,
          "time": 188.780406,
          "velocity": 0.6220472440944882
        }
      ]
    },
    {
      "channel": 0,
      "controlChanges": {
        "0": [
          {
            "number": 0,
            "ticks": 192,
            "time": 1.463414,
            "value": 0
          }
        ],
        "32": [
          {
            "number": 32,
            "ticks": 194,
            "time": 1.4786578958333334,
            "value": 0
          }
        ]
      },
      "pitchBends": [],
      "instrument": {
        "family": "piano",
        "number": 0,
        "name": "acoustic grand piano"
      },
      "name": "AcouGuitar",
      "notes": [],
      "endOfTrackTicks": 29152
    },
    {
      "channel": 2,
      "controlChanges": {
        "1": [
          {
            "number": 1,
            "ticks": 198,
            "time": 1.5091456875,
            "value": 0
          }
        ],
        "7": [
          {
            "number": 7,
            "ticks": 200,
            "time": 1.5243895833333334,
            "value": 0.8582677165354331
          },
          {
            "number": 7,
            "ticks": 480,
            "time": 3.658535,
            "value": 0.8582677165354331
          }
        ],
        "10": [
          {
            "number": 10,
            "ticks": 202,
            "time": 1.5396334791666666,
            "value": 0.5039370078740157
          },
          {
            "number": 10,
            "ticks": 1152,
            "time": 8.780484,
            "value": 0.2125984251968504
          }
        ],
        "11": [
          {
            "number": 11,
            "ticks": 204,
            "time": 1.554877375,
            "value": 1
          }
        ],
        "64": [
          {
            "number": 64,
            "ticks": 206,
            "time": 1.5701212708333334,
            "value": 0
          }
        ],
        "91": [
          {
            "number": 91,
            "ticks": 208,
            "time": 1.5853651666666666,
            "value": 0.5039370078740157
          }
        ],
        "93": [
          {
            "number": 93,
            "ticks": 210,
            "time": 1.6006090625,
            "value": 0.5039370078740157
          }
        ]
      },
      "pitchBends": [
        {
          "ticks": 212,
          "time": 1.6158529583333334,
          "value": 0
        }
      ],
      "instrument": {
        "family": "guitar",
        "number": 25,
        "name": "acoustic guitar (steel)"
      },
      "name": "",
      "notes": [
        {
          "duration": 0.24390233333333322,
          "durationTicks": 32,
          "midi": 71,
          "name": "B4",
          "ticks": 432,
          "time": 3.2926815,
          "velocity": 0.7480314960629921
        },
        {
          "duration": 0.24390233333333322,
          "durationTicks": 32,
          "midi": 67,
          "name": "G4",
          "ticks": 432,
          "time": 3.2926815,
          "velocity": 0.7480314960629921
        },
        {
          "duration": 0.24390233333333322,
          "durationTicks": 32,
          "midi": 74,
          "name": "D5",
          "ticks": 432,
          "time": 3.2926815,
          "velocity": 0.7480314960629921
        },
        {
          "duration": 0.24390233333333322,
          "durationTicks": 32,
          "midi": 71,
          "name": "B4",
          "ticks": 480,
          "time": 3.658535,
          "velocity": 0.6220472440944882
        },
        {
          "duration": 0.24390233333333322,
          "durationTicks": 32,
          "midi": 67,
          "name": "G4",
          "ticks": 480,
          "time": 3.658535,
          "velocity": 0.6220472440944882
        },
        {
          "duration": 0.24390233333333322,
          "durationTicks": 32,
          "midi": 74,
          "name": "D5",
          "ticks": 480,
          "time": 3.658535,
          "velocity": 0.6220472440944882
        },
        {
          "duration": 0.6097558333333337,
          "durationTicks": 80,
          "midi": 71,
          "name": "B4",
          "ticks": 528,
          "time": 4.0243885,
          "velocity": 0.7480314960629921
        },
        {
          "duration": 0.6097558333333337,
          "durationTicks": 80,
          "midi": 67,
          "name": "G4",
          "ticks": 528,
          "time": 4.0243885,
          "velocity": 0.7480314960629921
        },
        {
          "duration": 0.6097558333333337,
          "durationTicks": 80,
          "midi": 74,
          "name": "D5",
          "ticks": 528,
          "time": 4.0243885,
          "velocity": 0.7480314960629921
        },
        {
          "duration": 0.24390233333333367,
          "durationTicks": 32,
          "midi": 66,
          "name": "F#4",
          "ticks": 624,
          "time": 4.7560955,
          "velocity": 0.7480314960629921
        },
        {
          "duration": 0.24390233333333367,
          "durationTicks": 32,
          "midi": 62,
          "name": "D4",
          "ticks": 624,
          "time": 4.7560955,
          "velocity": 0.7480314960629921
        },
        {
          "duration": 0.24390233333333367,
          "durationTicks": 32,
          "midi": 71,
          "name": "B4",
          "ticks": 624,
          "time": 4.7560955,
          "velocity": 0.7480314960629921
        },
        {
          "duration": 0.24390233333333367,
          "durationTicks": 32,
          "midi": 66,
          "name": "F#4",
          "ticks": 672,
          "time": 5.121949,
          "velocity": 0.6220472440944882
        },
        {
          "duration": 0.24390233333333367,
          "durationTicks": 32,
          "midi": 62,
          "name": "D4",
          "ticks": 672,
          "time": 5.121949,
          "velocity": 0.6220472440944882
        },
        {
          "duration": 0.24390233333333367,
          "durationTicks": 32,
          "midi": 71,
          "name": "B4",
          "ticks": 672,
          "time": 5.121949,
          "velocity": 0.6220472440944882
        },
        {
          "duration": 0.24390233333333278,
          "durationTicks": 32,
          "midi": 66,
          "name": "F#4",
          "ticks": 720,
          "time": 5.4878025,
          "velocity": 0.7480314960629921
        },
        {
          "duration": 0.24390233333333278,
          "durationTicks": 32,
          "midi": 62,
          "name": "D4",
          "ticks": 720,
          "time": 5.4878025,
          "velocity": 0.7480314960629921
        },
        {
          "duration": 0.24390233333333278,
          "durationTicks": 32,
          "midi": 71,
          "name": "B4",
          "ticks": 720,
          "time": 5.4878025,
          "velocity": 0.7480314960629921
        },
        {
          "duration": 0.24390233333333367,
          "durationTicks": 32,
          "midi": 64,
          "name": "E4",
          "ticks": 768,
          "time": 5.853656,
          "velocity": 0.6220472440944882
        },
        {
          "duration": 0.24390233333333367,
          "durationTicks": 32,
          "midi": 67,
          "name": "G4",
          "ticks": 768,
          "time": 5.853656,
          "velocity": 0.6220472440944882
        },
        {
          "duration": 0.24390233333333367,
          "durationTicks": 32,
          "midi": 71,
          "name": "B4",
          "ticks": 768,
          "time": 5.853656,
          "velocity": 0.6220472440944882
        },
        {
          "duration": 0.24390233333333367,
          "durationTicks": 32,
          "midi": 64,
          "name": "E4",
          "ticks": 816,
          "time": 6.2195095,
          "velocity": 0.7480314960629921
        },
        {
          "duration": 0.24390233333333367,
          "durationTicks": 32,
          "midi": 67,
          "name": "G4",
          "ticks": 816,
          "time": 6.2195095,
          "velocity": 0.7480314960629921
        },
        {
          "duration": 0.24390233333333367,
          "durationTicks": 32,
          "midi": 71,
          "name": "B4",
          "ticks": 816,
          "time": 6.2195095,
          "velocity": 0.7480314960629921
        },
        {
          "duration": 0.24390233333333367,
          "durationTicks": 32,
          "midi": 67,
          "name": "G4",
          "ticks": 864,
          "time": 6.585363,
          "velocity": 0.6220472440944882
        },
        {
          "duration": 0.24390233333333367,
          "durationTicks": 32,
          "midi": 64,
          "name": "E4",
          "ticks": 864,
          "time": 6.585363,
          "velocity": 0.6220472440944882
        },
        {
          "duration": 0.24390233333333367,
          "durationTicks": 32,
          "midi": 71,
          "name": "B4",
          "ticks": 864,
          "time": 6.585363,
          "velocity": 0.6220472440944882
        },
        {
          "duration": 0.24390233333333367,
          "durationTicks": 32,
          "midi": 67,
          "name": "G4",
          "ticks": 912,
          "time": 6.9512165,
          "velocity": 0.7480314960629921
        },
        {
          "duration": 0.24390233333333367,
          "durationTicks": 32,
          "midi": 64,
          "name": "E4",
          "ticks": 912,
          "time": 6.9512165,
          "velocity": 0.7480314960629921
        },
        {
          "duration": 0.24390233333333367,
          "durationTicks": 32,
          "midi": 71,
          "name": "B4",
          "ticks": 912,
          "time": 6.9512165,
          "velocity": 0.7480314960629921
        },
        {
          "duration": 0.24390233333333367,
          "durationTicks": 32,
          "midi": 71,
          "name": "B4",
          "ticks": 960,
          "time": 7.31707,
          "velocity": 0.6220472440944882
        },
        {
          "duration": 0.24390233333333367,
          "durationTicks": 32,
          "midi": 67,
          "name": "G4",
          "ticks": 960,
          "time": 7.31707,
          "velocity": 0.6220472440944882
        },
        {
          "duration": 0.24390233333333367,
          "durationTicks": 32,
          "midi": 64,
          "name": "E4",
          "ticks": 960,
          "time": 7.31707,
          "velocity": 0.6220472440944882
        },
        {
          "duration": 0.24390233333333367,
          "durationTicks": 32,
          "midi": 74,
          "name": "D5",
          "ticks": 960,
          "time": 7.31707,
          "velocity": 0.6220472440944882
        },
        {
          "duration": 0.24390233333333367,
          "durationTicks": 32,
          "midi": 71,
          "name": "B4",
          "ticks": 1008,
          "time": 7.6829235,
          "velocity": 0.7480314960629921
        },
        {
          "duration": 0.24390233333333367,
          "durationTicks": 32,
          "midi": 67,
          "name": "G4",
          "ticks": 1008,
          "time": 7.6829235,
          "velocity": 0.7480314960629921
        },
        {
          "duration": 0.24390233333333367,
          "durationTicks": 32,
          "midi": 64,
          "name": "E4",
          "ticks": 1008,
          "time": 7.6829235,
          "velocity": 0.7480314960629921
        },
        {
          "duration": 0.24390233333333367,
          "durationTicks": 32,
          "midi": 74,
          "name": "D5",
          "ticks": 1008,
          "time": 7.6829235,
          "velocity": 0.7480314960629921
        },
        {
          "duration": 0.24390233333333455,
          "durationTicks": 32,
          "midi": 71,
          "name": "B4",
          "ticks": 1056,
          "time": 8.048777,
          "velocity": 0.6220472440944882
        },
        {
          "duration": 0.24390233333333455,
          "durationTicks": 32,
          "midi": 67,
          "name": "G4",
          "ticks": 1056,
          "time": 8.048777,
          "velocity": 0.6220472440944882
        },
        {
          "duration": 0.24390233333333455,
          "durationTicks": 32,
          "midi": 64,
          "name": "E4",
          "ticks": 1056,
          "time": 8.048777,
          "velocity": 0.6220472440944882
        },
        {
          "duration": 0.24390233333333455,
          "durationTicks": 32,
          "midi": 74,
          "name": "D5",
          "ticks": 1056,
          "time": 8.048777,
          "velocity": 0.6220472440944882
        },
        {
          "duration": 0.24390233333333455,
          "durationTicks": 32,
          "midi": 71,
          "name": "B4",
          "ticks": 1104,
          "time": 8.4146305,
          "velocity": 0.7480314960629921
        },
        {
          "duration": 0.24390233333333455,
          "durationTicks": 32,
          "midi": 67,
          "name": "G4",
          "ticks": 1104,
          "time": 8.4146305,
          "velocity": 0.7480314960629921
        },
        {
          "duration": 0.24390233333333455,
          "durationTicks": 32,
          "midi": 64,
          "name": "E4",
          "ticks": 1104,
          "time": 8.4146305,
          "velocity": 0.7480314960629921
        },
        {
          "duration": 0.24390233333333455,
          "durationTicks": 32,
          "midi": 74,
          "name": "D5",
          "ticks": 1104,
          "time": 8.4146305,
          "velocity": 0.7480314960629921
        },
        {
          "duration": 0.24390233333333455,
          "durationTicks": 32,
          "midi": 67,
          "name": "G4",
          "ticks": 1200,
          "time": 9.1463375,
          "velocity": 0.7480314960629921
        },
        {
          "duration": 0.24390233333333455,
          "durationTicks": 32,
          "midi": 64,
          "name": "E4",
          "ticks": 1200,
          "time": 9.1463375,
          "velocity": 0.7480314960629921
        },
        {
          "duration": 0.24390233333333455,
          "durationTicks": 32,
          "midi": 72,
          "name": "C5",
          "ticks": 1200,
          "time": 9.1463375,
          "velocity": 0.7480314960629921
        },
        {
          "duration": 0.24390233333333455,
          "durationTicks": 32,
          "midi": 67,
          "name": "G4",
          "ticks": 1248,
          "time": 9.512191,
          "velocity": 0.6220472440944882
        },
        {
          "duration": 0.24390233333333455,
          "durationTicks": 32,
          "midi": 64,
          "name": "E4",
          "ticks": 1248,
          "time": 9.512191,
          "velocity": 0.6220472440944882
        },
        {
          "duration": 0.24390233333333455,
          "durationTicks": 32,
          "midi": 72,
          "name": "C5",
          "ticks": 1248,
          "time": 9.512191,
          "velocity": 0.6220472440944882
        },
        {
          "duration": 0.24390233333333455,
          "durationTicks": 32,
          "midi": 67,
          "name": "G4",
          "ticks": 1296,
          "time": 9.8780445,
          "velocity": 0.7480314960629921
        },
        {
          "duration": 0.24390233333333455,
          "durationTicks": 32,
          "midi": 64,
          "name": "E4",
          "ticks": 1296,
          "time": 9.8780445,
          "velocity": 0.7480314960629921
        },
        {
          "duration": 0.24390233333333455,
          "durationTicks": 32,
          "midi": 72,
          "name": "C5",
          "ticks": 1296,
          "time": 9.8780445,
          "velocity": 0.7480314960629921
        },
        {
          "duration": 0.24390233333333455,
          "durationTicks": 32,
          "midi": 67,
          "name": "G4",
          "ticks": 1344,
          "time": 10.243898,
          "velocity": 0.6220472440944882
        },
        {
          "duration": 0.24390233333333455,
          "durationTicks": 32,
          "midi": 64,
          "name": "E4",
          "ticks": 1344,
          "time": 10.243898,
          "velocity": 0.6220472440944882
        },
        {
          "duration": 0.24390233333333455,
          "durationTicks": 32,
          "midi": 72,
          "name": "C5",
          "ticks": 1344,
          "time": 10.243898,
          "velocity": 0.6220472440944882
        },
        {
          "duration": 0.24390233333333455,
          "durationTicks": 32,
          "midi": 67,
          "name": "G4",
          "ticks": 1392,
          "time": 10.6097515,
          "velocity": 0.7480314960629921
        },
        {
          "duration": 0.24390233333333455,
          "durationTicks": 32,
          "midi": 64,
          "name": "E4",
          "ticks": 1392,
          "time": 10.6097515,
          "velocity": 0.7480314960629921
        },
        {
          "duration": 0.24390233333333455,
          "durationTicks": 32,
          "midi": 72,
          "name": "C5",
          "ticks": 1392,
          "time": 10.6097515,
          "velocity": 0.7480314960629921
        },
        {
          "duration": 0.24390233333333455,
          "durationTicks": 32,
          "midi": 67,
          "name": "G4",
          "ticks": 1440,
          "time": 10.975605,
          "velocity": 0.6220472440944882
        },
        {
          "duration": 0.24390233333333455,
          "durationTicks": 32,
          "midi": 64,
          "name": "E4",
          "ticks": 1440,
          "time": 10.975605,
          "velocity": 0.6220472440944882
        },
        {
          "duration": 0.24390233333333455,
          "durationTicks": 32,
          "midi": 72,
          "name": "C5",
          "ticks": 1440,
          "time": 10.975605,
          "velocity": 0.6220472440944882
        },
        {
          "duration": 0.24390233333333455,
          "durationTicks": 32,
          "midi": 67,
          "name": "G4",
          "ticks": 1488,
          "time": 11.3414585,
          "velocity": 0.7480314960629921
        },
        {
          "duration": 0.24390233333333455,
          "durationTicks": 32,
          "midi": 64,
          "name": "E4",
          "ticks": 1488,
          "time": 11.3414585,
          "velocity": 0.7480314960629921
        },
        {
          "duration": 0.24390233333333455,
          "durationTicks": 32,
          "midi": 72,
          "name": "C5",
          "ticks": 1488,
          "time": 11.3414585,
          "velocity": 0.7480314960629921
        },
        {
          "duration": 0.24390233333333278,
          "durationTicks": 32,
          "midi": 67,
          "name": "G4",
          "ticks": 1536,
          "time": 11.707312,
          "velocity": 0.6220472440944882
        },
        {
          "duration": 0.24390233333333278,
          "durationTicks": 32,
          "midi": 64,
          "name": "E4",
          "ticks": 1536,
          "time": 11.707312,
          "velocity": 0.6220472440944882
        },
        {
          "duration": 0.24390233333333278,
          "durationTicks": 32,
          "midi": 72,
          "name": "C5",
          "ticks": 1536,
          "time": 11.707312,
          "velocity": 0.6220472440944882
        },
        {
          "duration": 0.24390233333333278,
          "durationTicks": 32,
          "midi": 67,
          "name": "G4",
          "ticks": 1584,
          "time": 12.0731655,
          "velocity": 0.7480314960629921
        },
        {
          "duration": 0.24390233333333278,
          "durationTicks": 32,
          "midi": 64,
          "name": "E4",
          "ticks": 1584,
          "time": 12.0731655,
          "velocity": 0.7480314960629921
        },
        {
          "duration": 0.24390233333333278,
          "durationTicks": 32,
          "midi": 72,
          "name": "C5",
          "ticks": 1584,
          "time": 12.0731655,
          "velocity": 0.7480314960629921
        },
        {
          "duration": 0.24390233333333278,
          "durationTicks": 32,
          "midi": 67,
          "name": "G4",
          "ticks": 1632,
          "time": 12.439019,
          "velocity": 0.6220472440944882
        },
        {
          "duration": 0.24390233333333278,
          "durationTicks": 32,
          "midi": 64,
          "name": "E4",
          "ticks": 1632,
          "time": 12.439019,
          "velocity": 0.6220472440944882
        },
        {
          "duration": 0.24390233333333278,
          "durationTicks": 32,
          "midi": 72,
          "name": "C5",
          "ticks": 1632,
          "time": 12.439019,
          "velocity": 0.6220472440944882
        },
        {
          "duration": 0.24390233333333278,
          "durationTicks": 32,
          "midi": 67,
          "name": "G4",
          "ticks": 1680,
          "time": 12.8048725,
          "velocity": 0.7480314960629921
        },
        {
          "duration": 0.24390233333333278,
          "durationTicks": 32,
          "midi": 64,
          "name": "E4",
          "ticks": 1680,
          "time": 12.8048725,
          "velocity": 0.7480314960629921
        },
        {
          "duration": 0.24390233333333278,
          "durationTicks": 32,
          "midi": 72,
          "name": "C5",
          "ticks": 1680,
          "time": 12.8048725,
          "velocity": 0.7480314960629921
        },
        {
          "duration": 0.24390233333333278,
          "durationTicks": 32,
          "midi": 67,
          "name": "G4",
          "ticks": 1728,
          "time": 13.170726,
          "velocity": 0.6220472440944882
        },
        {
          "duration": 0.24390233333333278,
          "durationTicks": 32,
          "midi": 64,
          "name": "E4",
          "ticks": 1728,
          "time": 13.170726,
          "velocity": 0.6220472440944882
        },
        {
          "duration": 0.24390233333333278,
          "durationTicks": 32,
          "midi": 72,
          "name": "C5",
          "ticks": 1728,
          "time": 13.170726,
          "velocity": 0.6220472440944882
        },
        {
          "duration": 0.24390233333333278,
          "durationTicks": 32,
          "midi": 67,
          "name": "G4",
          "ticks": 1776,
          "time": 13.5365795,
          "velocity": 0.7480314960629921
        },
        {
          "duration": 0.24390233333333278,
          "durationTicks": 32,
          "midi": 64,
          "name": "E4",
          "ticks": 1776,
          "time": 13.5365795,
          "velocity": 0.7480314960629921
        },
        {
          "duration": 0.24390233333333278,
          "durationTicks": 32,
          "midi": 72,
          "name": "C5",
          "ticks": 1776,
          "time": 13.5365795,
          "velocity": 0.7480314960629921
        },
        {
          "duration": 0.24390233333333278,
          "durationTicks": 32,
          "midi": 67,
          "name": "G4",
          "ticks": 1824,
          "time": 13.902433,
          "velocity": 0.6220472440944882
        },
        {
          "duration": 0.24390233333333278,
          "durationTicks": 32,
          "midi": 64,
          "name": "E4",
          "ticks": 1824,
          "time": 13.902433,
          "velocity": 0.6220472440944882
        },
        {
          "duration": 0.24390233333333278,
          "durationTicks": 32,
          "midi": 72,
          "name": "C5",
          "ticks": 1824,
          "time": 13.902433,
          "velocity": 0.6220472440944882
        },
        {
          "duration": 0.24390233333333278,
          "durationTicks": 32,
          "midi": 67,
          "name": "G4",
          "ticks": 1872,
          "time": 14.2682865,
          "velocity": 0.7480314960629921
        },
        {
          "duration": 0.24390233333333278,
          "durationTicks": 32,
          "midi": 64,
          "name": "E4",
          "ticks": 1872,
          "time": 14.2682865,
          "velocity": 0.7480314960629921
        },
        {
          "duration": 0.24390233333333278,
          "durationTicks": 32,
          "midi": 72,
          "name": "C5",
          "ticks": 1872,
          "time": 14.2682865,
          "velocity": 0.7480314960629921
        },
        {
          "duration": 0.24390233333333278,
          "durationTicks": 32,
          "midi": 71,
          "name": "B4",
          "ticks": 1968,
          "time": 14.9999935,
          "velocity": 0.7480314960629921
        },
        {
          "duration": 0.24390233333333278,
          "durationTicks": 32,
          "midi": 67,
          "name": "G4",
          "ticks": 1968,
          "time": 14.9999935,
          "velocity": 0.7480314960629921
        },
        {
          "duration": 0.24390233333333278,
          "durationTicks": 32,
          "midi": 74,
          "name": "D5",
          "ticks": 1968,
          "time": 14.9999935,
          "velocity": 0.7480314960629921
        },
        {
          "duration": 0.24390233333333278,
          "durationTicks": 32,
          "midi": 71,
          "name": "B4",
          "ticks": 2016,
          "time": 15.365847,
          "velocity": 0.6220472440944882
        },
        {
          "duration": 0.24390233333333278,
          "durationTicks": 32,
          "midi": 67,
          "name": "G4",
          "ticks": 2016,
          "time": 15.365847,
          "velocity": 0.6220472440944882
        },
        {
          "duration": 0.24390233333333278,
          "durationTicks": 32,
          "midi": 74,
          "name": "D5",
          "ticks": 2016,
          "time": 15.365847,
          "velocity": 0.6220472440944882
        },
        {
          "duration": 0.243902333333331,
          "durationTicks": 32,
          "midi": 71,
          "name": "B4",
          "ticks": 2064,
          "time": 15.7317005,
          "velocity": 0.7480314960629921
        },
        {
          "duration": 0.243902333333331,
          "durationTicks": 32,
          "midi": 67,
          "name": "G4",
          "ticks": 2064,
          "time": 15.7317005,
          "velocity": 0.7480314960629921
        },
        {
          "duration": 0.243902333333331,
          "durationTicks": 32,
          "midi": 74,
          "name": "D5",
          "ticks": 2064,
          "time": 15.7317005,
          "velocity": 0.7480314960629921
        },
        {
          "duration": 0.24390233333333455,
          "durationTicks": 32,
          "midi": 66,
          "name": "F#4",
          "ticks": 2112,
          "time": 16.097554,
          "velocity": 0.6220472440944882
        },
        {
          "duration": 0.24390233333333455,
          "durationTicks": 32,
          "midi": 62,
          "name": "D4",
          "ticks": 2112,
          "time": 16.097554,
          "velocity": 0.6220472440944882
        },
        {
          "duration": 0.24390233333333455,
          "durationTicks": 32,
          "midi": 71,
          "name": "B4",
          "ticks": 2112,
          "time": 16.097554,
          "velocity": 0.6220472440944882
        },
        {
          "duration": 0.24390233333333455,
          "durationTicks": 32,
          "midi": 66,
          "name": "F#4",
          "ticks": 2160,
          "time": 16.4634075,
          "velocity": 0.7480314960629921
        },
        {
          "duration": 0.24390233333333455,
          "durationTicks": 32,
          "midi": 62,
          "name": "D4",
          "ticks": 2160,
          "time": 16.4634075,
          "velocity": 0.7480314960629921
        },
        {
          "duration": 0.24390233333333455,
          "durationTicks": 32,
          "midi": 71,
          "name": "B4",
          "ticks": 2160,
          "time": 16.4634075,
          "velocity": 0.7480314960629921
        },
        {
          "duration": 0.24390233333333455,
          "durationTicks": 32,
          "midi": 66,
          "name": "F#4",
          "ticks": 2208,
          "time": 16.829261,
          "velocity": 0.6220472440944882
        },
        {
          "duration": 0.24390233333333455,
          "durationTicks": 32,
          "midi": 62,
          "name": "D4",
          "ticks": 2208,
          "time": 16.829261,
          "velocity": 0.6220472440944882
        },
        {
          "duration": 0.24390233333333455,
          "durationTicks": 32,
          "midi": 71,
          "name": "B4",
          "ticks": 2208,
          "time": 16.829261,
          "velocity": 0.6220472440944882
        },
        {
          "duration": 0.24390233333333455,
          "durationTicks": 32,
          "midi": 66,
          "name": "F#4",
          "ticks": 2256,
          "time": 17.1951145,
          "velocity": 0.7480314960629921
        },
        {
          "duration": 0.24390233333333455,
          "durationTicks": 32,
          "midi": 62,
          "name": "D4",
          "ticks": 2256,
          "time": 17.1951145,
          "velocity": 0.7480314960629921
        },
        {
          "duration": 0.24390233333333455,
          "durationTicks": 32,
          "midi": 71,
          "name": "B4",
          "ticks": 2256,
          "time": 17.1951145,
          "velocity": 0.7480314960629921
        },
        {
          "duration": 0.24390233333333455,
          "durationTicks": 32,
          "midi": 64,
          "name": "E4",
          "ticks": 2304,
          "time": 17.560968,
          "velocity": 0.6220472440944882
        },
        {
          "duration": 0.24390233333333455,
          "durationTicks": 32,
          "midi": 67,
          "name": "G4",
          "ticks": 2304,
          "time": 17.560968,
          "velocity": 0.6220472440944882
        },
        {
          "duration": 0.24390233333333455,
          "durationTicks": 32,
          "midi": 71,
          "name": "B4",
          "ticks": 2304,
          "time": 17.560968,
          "velocity": 0.6220472440944882
        },
        {
          "duration": 0.24390233333333455,
          "durationTicks": 32,
          "midi": 64,
          "name": "E4",
          "ticks": 2352,
          "time": 17.9268215,
          "velocity": 0.7480314960629921
        },
        {
          "duration": 0.24390233333333455,
          "durationTicks": 32,
          "midi": 67,
          "name": "G4",
          "ticks": 2352,
          "time": 17.9268215,
          "velocity": 0.7480314960629921
        },
        {
          "duration": 0.24390233333333455,
          "durationTicks": 32,
          "midi": 71,
          "name": "B4",
          "ticks": 2352,
          "time": 17.9268215,
          "velocity": 0.7480314960629921
        },
        {
          "duration": 0.24390233333333455,
          "durationTicks": 32,
          "midi": 67,
          "name": "G4",
          "ticks": 2400,
          "time": 18.292675,
          "velocity": 0.6220472440944882
        },
        {
          "duration": 0.24390233333333455,
          "durationTicks": 32,
          "midi": 64,
          "name": "E4",
          "ticks": 2400,
          "time": 18.292675,
          "velocity": 0.6220472440944882
        },
        {
          "duration": 0.24390233333333455,
          "durationTicks": 32,
          "midi": 71,
          "name": "B4",
          "ticks": 2400,
          "time": 18.292675,
          "velocity": 0.6220472440944882
        },
        {
          "duration": 0.24390233333333455,
          "durationTicks": 32,
          "midi": 67,
          "name": "G4",
          "ticks": 2448,
          "time": 18.6585285,
          "velocity": 0.7480314960629921
        },
        {
          "duration": 0.24390233333333455,
          "durationTicks": 32,
          "midi": 64,
          "name": "E4",
          "ticks": 2448,
          "time": 18.6585285,
          "velocity": 0.7480314960629921
        },
        {
          "duration": 0.24390233333333455,
          "durationTicks": 32,
          "midi": 71,
          "name": "B4",
          "ticks": 2448,
          "time": 18.6585285,
          "velocity": 0.7480314960629921
        },
        {
          "duration": 0.24390233333333455,
          "durationTicks": 32,
          "midi": 64,
          "name": "E4",
          "ticks": 2496,
          "time": 19.024382,
          "velocity": 0.6220472440944882
        },
        {
          "duration": 0.24390233333333455,
          "durationTicks": 32,
          "midi": 67,
          "name": "G4",
          "ticks": 2496,
          "time": 19.024382,
          "velocity": 0.6220472440944882
        },
        {
          "duration": 0.24390233333333455,
          "durationTicks": 32,
          "midi": 71,
          "name": "B4",
          "ticks": 2496,
          "time": 19.024382,
          "velocity": 0.6220472440944882
        },
        {
          "duration": 0.24390233333333455,
          "durationTicks": 32,
          "midi": 64,
          "name": "E4",
          "ticks": 2544,
          "time": 19.3902355,
          "velocity": 0.7480314960629921
        },
        {
          "duration": 0.24390233333333455,
          "durationTicks": 32,
          "midi": 67,
          "name": "G4",
          "ticks": 2544,
          "time": 19.3902355,
          "velocity": 0.7480314960629921
        },
        {
          "duration": 0.24390233333333455,
          "durationTicks": 32,
          "midi": 71,
          "name": "B4",
          "ticks": 2544,
          "time": 19.3902355,
          "velocity": 0.7480314960629921
        },
        {
          "duration": 0.24390233333333455,
          "durationTicks": 32,
          "midi": 67,
          "name": "G4",
          "ticks": 2592,
          "time": 19.756089,
          "velocity": 0.6220472440944882
        },
        {
          "duration": 0.24390233333333455,
          "durationTicks": 32,
          "midi": 64,
          "name": "E4",
          "ticks": 2592,
          "time": 19.756089,
          "velocity": 0.6220472440944882
        },
        {
          "duration": 0.24390233333333455,
          "durationTicks": 32,
          "midi": 71,
          "name": "B4",
          "ticks": 2592,
          "time": 19.756089,
          "velocity": 0.6220472440944882
        },
        {
          "duration": 0.24390233333333455,
          "durationTicks": 32,
          "midi": 67,
          "name": "G4",
          "ticks": 2640,
          "time": 20.1219425,
          "velocity": 0.7480314960629921
        },
        {
          "duration": 0.24390233333333455,
          "durationTicks": 32,
          "midi": 64,
          "name": "E4",
          "ticks": 2640,
          "time": 20.1219425,
          "velocity": 0.7480314960629921
        },
        {
          "duration": 0.24390233333333455,
          "durationTicks": 32,
          "midi": 71,
          "name": "B4",
          "ticks": 2640,
          "time": 20.1219425,
          "velocity": 0.7480314960629921
        },
        {
          "duration": 0.24390233333333455,
          "durationTicks": 32,
          "midi": 67,
          "name": "G4",
          "ticks": 2688,
          "time": 20.487796,
          "velocity": 0.6220472440944882
        },
        {
          "duration": 0.24390233333333455,
          "durationTicks": 32,
          "midi": 64,
          "name": "E4",
          "ticks": 2688,
          "time": 20.487796,
          "velocity": 0.6220472440944882
        },
        {
          "duration": 0.24390233333333455,
          "durationTicks": 32,
          "midi": 72,
          "name": "C5",
          "ticks": 2688,
          "time": 20.487796,
          "velocity": 0.6220472440944882
        },
        {
          "duration": 0.24390233333333455,
          "durationTicks": 32,
          "midi": 67,
          "name": "G4",
          "ticks": 2736,
          "time": 20.8536495,
          "velocity": 0.7480314960629921
        },
        {
          "duration": 0.24390233333333455,
          "durationTicks": 32,
          "midi": 64,
          "name": "E4",
          "ticks": 2736,
          "time": 20.8536495,
          "velocity": 0.7480314960629921
        },
        {
          "duration": 0.24390233333333455,
          "durationTicks": 32,
          "midi": 72,
          "name": "C5",
          "ticks": 2736,
          "time": 20.8536495,
          "velocity": 0.7480314960629921
        },
        {
          "duration": 0.24390233333333455,
          "durationTicks": 32,
          "midi": 67,
          "name": "G4",
          "ticks": 2784,
          "time": 21.219503,
          "velocity": 0.6220472440944882
        },
        {
          "duration": 0.24390233333333455,
          "durationTicks": 32,
          "midi": 64,
          "name": "E4",
          "ticks": 2784,
          "time": 21.219503,
          "velocity": 0.6220472440944882
        },
        {
          "duration": 0.24390233333333455,
          "durationTicks": 32,
          "midi": 72,
          "name": "C5",
          "ticks": 2784,
          "time": 21.219503,
          "velocity": 0.6220472440944882
        },
        {
          "duration": 0.243902333333331,
          "durationTicks": 32,
          "midi": 67,
          "name": "G4",
          "ticks": 2832,
          "time": 21.5853565,
          "velocity": 0.7480314960629921
        },
        {
          "duration": 0.243902333333331,
          "durationTicks": 32,
          "midi": 64,
          "name": "E4",
          "ticks": 2832,
          "time": 21.5853565,
          "velocity": 0.7480314960629921
        },
        {
          "duration": 0.243902333333331,
          "durationTicks": 32,
          "midi": 72,
          "name": "C5",
          "ticks": 2832,
          "time": 21.5853565,
          "velocity": 0.7480314960629921
        },
        {
          "duration": 0.243902333333331,
          "durationTicks": 32,
          "midi": 67,
          "name": "G4",
          "ticks": 2880,
          "time": 21.95121,
          "velocity": 0.6220472440944882
        },
        {
          "duration": 0.243902333333331,
          "durationTicks": 32,
          "midi": 64,
          "name": "E4",
          "ticks": 2880,
          "time": 21.95121,
          "velocity": 0.6220472440944882
        },
        {
          "duration": 0.243902333333331,
          "durationTicks": 32,
          "midi": 71,
          "name": "B4",
          "ticks": 2880,
          "time": 21.95121,
          "velocity": 0.6220472440944882
        },
        {
          "duration": 0.243902333333331,
          "durationTicks": 32,
          "midi": 67,
          "name": "G4",
          "ticks": 2928,
          "time": 22.3170635,
          "velocity": 0.7480314960629921
        },
        {
          "duration": 0.243902333333331,
          "durationTicks": 32,
          "midi": 64,
          "name": "E4",
          "ticks": 2928,
          "time": 22.3170635,
          "velocity": 0.7480314960629921
        },
        {
          "duration": 0.243902333333331,
          "durationTicks": 32,
          "midi": 71,
          "name": "B4",
          "ticks": 2928,
          "time": 22.3170635,
          "velocity": 0.7480314960629921
        },
        {
          "duration": 0.243902333333331,
          "durationTicks": 32,
          "midi": 67,
          "name": "G4",
          "ticks": 2976,
          "time": 22.682917,
          "velocity": 0.6220472440944882
        },
        {
          "duration": 0.243902333333331,
          "durationTicks": 32,
          "midi": 64,
          "name": "E4",
          "ticks": 2976,
          "time": 22.682917,
          "velocity": 0.6220472440944882
        },
        {
          "duration": 0.243902333333331,
          "durationTicks": 32,
          "midi": 71,
          "name": "B4",
          "ticks": 2976,
          "time": 22.682917,
          "velocity": 0.6220472440944882
        },
        {
          "duration": 0.243902333333331,
          "durationTicks": 32,
          "midi": 67,
          "name": "G4",
          "ticks": 3024,
          "time": 23.0487705,
          "velocity": 0.7480314960629921
        },
        {
          "duration": 0.243902333333331,
          "durationTicks": 32,
          "midi": 64,
          "name": "E4",
          "ticks": 3024,
          "time": 23.0487705,
          "velocity": 0.7480314960629921
        },
        {
          "duration": 0.243902333333331,
          "durationTicks": 32,
          "midi": 71,
          "name": "B4",
          "ticks": 3024,
          "time": 23.0487705,
          "velocity": 0.7480314960629921
        },
        {
          "duration": 0.24390233333333455,
          "durationTicks": 32,
          "midi": 64,
          "name": "E4",
          "ticks": 3072,
          "time": 23.414624,
          "velocity": 0.6220472440944882
        },
        {
          "duration": 0.24390233333333455,
          "durationTicks": 32,
          "midi": 60,
          "name": "C4",
          "ticks": 3072,
          "time": 23.414624,
          "velocity": 0.6220472440944882
        },
        {
          "duration": 0.24390233333333455,
          "durationTicks": 32,
          "midi": 69,
          "name": "A4",
          "ticks": 3072,
          "time": 23.414624,
          "velocity": 0.6220472440944882
        },
        {
          "duration": 0.24390233333333455,
          "durationTicks": 32,
          "midi": 64,
          "name": "E4",
          "ticks": 3120,
          "time": 23.7804775,
          "velocity": 0.7480314960629921
        },
        {
          "duration": 0.24390233333333455,
          "durationTicks": 32,
          "midi": 60,
          "name": "C4",
          "ticks": 3120,
          "time": 23.7804775,
          "velocity": 0.7480314960629921
        },
        {
          "duration": 0.24390233333333455,
          "durationTicks": 32,
          "midi": 69,
          "name": "A4",
          "ticks": 3120,
          "time": 23.7804775,
          "velocity": 0.7480314960629921
        },
        {
          "duration": 0.24390233333333455,
          "durationTicks": 32,
          "midi": 64,
          "name": "E4",
          "ticks": 3168,
          "time": 24.146331,
          "velocity": 0.6220472440944882
        },
        {
          "duration": 0.24390233333333455,
          "durationTicks": 32,
          "midi": 60,
          "name": "C4",
          "ticks": 3168,
          "time": 24.146331,
          "velocity": 0.6220472440944882
        },
        {
          "duration": 0.24390233333333455,
          "durationTicks": 32,
          "midi": 69,
          "name": "A4",
          "ticks": 3168,
          "time": 24.146331,
          "velocity": 0.6220472440944882
        },
        {
          "duration": 0.24390233333333455,
          "durationTicks": 32,
          "midi": 64,
          "name": "E4",
          "ticks": 3216,
          "time": 24.5121845,
          "velocity": 0.7480314960629921
        },
        {
          "duration": 0.24390233333333455,
          "durationTicks": 32,
          "midi": 60,
          "name": "C4",
          "ticks": 3216,
          "time": 24.5121845,
          "velocity": 0.7480314960629921
        },
        {
          "duration": 0.24390233333333455,
          "durationTicks": 32,
          "midi": 69,
          "name": "A4",
          "ticks": 3216,
          "time": 24.5121845,
          "velocity": 0.7480314960629921
        },
        {
          "duration": 0.24390233333333455,
          "durationTicks": 32,
          "midi": 64,
          "name": "E4",
          "ticks": 3264,
          "time": 24.878038,
          "velocity": 0.6220472440944882
        },
        {
          "duration": 0.24390233333333455,
          "durationTicks": 32,
          "midi": 60,
          "name": "C4",
          "ticks": 3264,
          "time": 24.878038,
          "velocity": 0.6220472440944882
        },
        {
          "duration": 0.24390233333333455,
          "durationTicks": 32,
          "midi": 67,
          "name": "G4",
          "ticks": 3264,
          "time": 24.878038,
          "velocity": 0.6220472440944882
        },
        {
          "duration": 0.24390233333333455,
          "durationTicks": 32,
          "midi": 71,
          "name": "B4",
          "ticks": 3264,
          "time": 24.878038,
          "velocity": 0.6220472440944882
        },
        {
          "duration": 0.24390233333333455,
          "durationTicks": 32,
          "midi": 64,
          "name": "E4",
          "ticks": 3312,
          "time": 25.2438915,
          "velocity": 0.7480314960629921
        },
        {
          "duration": 0.24390233333333455,
          "durationTicks": 32,
          "midi": 60,
          "name": "C4",
          "ticks": 3312,
          "time": 25.2438915,
          "velocity": 0.7480314960629921
        },
        {
          "duration": 0.24390233333333455,
          "durationTicks": 32,
          "midi": 69,
          "name": "A4",
          "ticks": 3312,
          "time": 25.2438915,
          "velocity": 0.7480314960629921
        },
        {
          "duration": 0.24390233333333455,
          "durationTicks": 32,
          "midi": 64,
          "name": "E4",
          "ticks": 3360,
          "time": 25.609745,
          "velocity": 0.6220472440944882
        },
        {
          "duration": 0.24390233333333455,
          "durationTicks": 32,
          "midi": 60,
          "name": "C4",
          "ticks": 3360,
          "time": 25.609745,
          "velocity": 0.6220472440944882
        },
        {
          "duration": 0.24390233333333455,
          "durationTicks": 32,
          "midi": 67,
          "name": "G4",
          "ticks": 3360,
          "time": 25.609745,
          "velocity": 0.6220472440944882
        },
        {
          "duration": 0.24390233333333455,
          "durationTicks": 32,
          "midi": 71,
          "name": "B4",
          "ticks": 3360,
          "time": 25.609745,
          "velocity": 0.6220472440944882
        },
        {
          "duration": 0.24390233333333455,
          "durationTicks": 32,
          "midi": 64,
          "name": "E4",
          "ticks": 3408,
          "time": 25.9755985,
          "velocity": 0.7480314960629921
        },
        {
          "duration": 0.24390233333333455,
          "durationTicks": 32,
          "midi": 60,
          "name": "C4",
          "ticks": 3408,
          "time": 25.9755985,
          "velocity": 0.7480314960629921
        },
        {
          "duration": 0.24390233333333455,
          "durationTicks": 32,
          "midi": 69,
          "name": "A4",
          "ticks": 3408,
          "time": 25.9755985,
          "velocity": 0.7480314960629921
        },
        {
          "duration": 0.24390233333333455,
          "durationTicks": 32,
          "midi": 67,
          "name": "G4",
          "ticks": 3456,
          "time": 26.341452,
          "velocity": 0.6220472440944882
        },
        {
          "duration": 0.24390233333333455,
          "durationTicks": 32,
          "midi": 62,
          "name": "D4",
          "ticks": 3456,
          "time": 26.341452,
          "velocity": 0.6220472440944882
        },
        {
          "duration": 0.24390233333333455,
          "durationTicks": 32,
          "midi": 71,
          "name": "B4",
          "ticks": 3456,
          "time": 26.341452,
          "velocity": 0.6220472440944882
        },
        {
          "duration": 0.24390233333333455,
          "durationTicks": 32,
          "midi": 67,
          "name": "G4",
          "ticks": 3504,
          "time": 26.7073055,
          "velocity": 0.7480314960629921
        },
        {
          "duration": 0.24390233333333455,
          "durationTicks": 32,
          "midi": 62,
          "name": "D4",
          "ticks": 3504,
          "time": 26.7073055,
          "velocity": 0.7480314960629921
        },
        {
          "duration": 0.24390233333333455,
          "durationTicks": 32,
          "midi": 71,
          "name": "B4",
          "ticks": 3504,
          "time": 26.7073055,
          "velocity": 0.7480314960629921
        },
        {
          "duration": 0.24390233333333455,
          "durationTicks": 32,
          "midi": 67,
          "name": "G4",
          "ticks": 3552,
          "time": 27.073159,
          "velocity": 0.6220472440944882
        },
        {
          "duration": 0.24390233333333455,
          "durationTicks": 32,
          "midi": 62,
          "name": "D4",
          "ticks": 3552,
          "time": 27.073159,
          "velocity": 0.6220472440944882
        },
        {
          "duration": 0.24390233333333455,
          "durationTicks": 32,
          "midi": 71,
          "name": "B4",
          "ticks": 3552,
          "time": 27.073159,
          "velocity": 0.6220472440944882
        },
        {
          "duration": 0.24390233333333455,
          "durationTicks": 32,
          "midi": 67,
          "name": "G4",
          "ticks": 3600,
          "time": 27.4390125,
          "velocity": 0.7480314960629921
        },
        {
          "duration": 0.24390233333333455,
          "durationTicks": 32,
          "midi": 62,
          "name": "D4",
          "ticks": 3600,
          "time": 27.4390125,
          "velocity": 0.7480314960629921
        },
        {
          "duration": 0.24390233333333455,
          "durationTicks": 32,
          "midi": 71,
          "name": "B4",
          "ticks": 3600,
          "time": 27.4390125,
          "velocity": 0.7480314960629921
        },
        {
          "duration": 0.24390233333333455,
          "durationTicks": 32,
          "midi": 66,
          "name": "F#4",
          "ticks": 3648,
          "time": 27.804866,
          "velocity": 0.6220472440944882
        },
        {
          "duration": 0.24390233333333455,
          "durationTicks": 32,
          "midi": 62,
          "name": "D4",
          "ticks": 3648,
          "time": 27.804866,
          "velocity": 0.6220472440944882
        },
        {
          "duration": 0.24390233333333455,
          "durationTicks": 32,
          "midi": 71,
          "name": "B4",
          "ticks": 3648,
          "time": 27.804866,
          "velocity": 0.6220472440944882
        },
        {
          "duration": 0.24390233333333455,
          "durationTicks": 32,
          "midi": 66,
          "name": "F#4",
          "ticks": 3696,
          "time": 28.1707195,
          "velocity": 0.7480314960629921
        },
        {
          "duration": 0.24390233333333455,
          "durationTicks": 32,
          "midi": 62,
          "name": "D4",
          "ticks": 3696,
          "time": 28.1707195,
          "velocity": 0.7480314960629921
        },
        {
          "duration": 0.24390233333333455,
          "durationTicks": 32,
          "midi": 71,
          "name": "B4",
          "ticks": 3696,
          "time": 28.1707195,
          "velocity": 0.7480314960629921
        },
        {
          "duration": 0.24390233333333455,
          "durationTicks": 32,
          "midi": 66,
          "name": "F#4",
          "ticks": 3744,
          "time": 28.536573,
          "velocity": 0.6220472440944882
        },
        {
          "duration": 0.24390233333333455,
          "durationTicks": 32,
          "midi": 62,
          "name": "D4",
          "ticks": 3744,
          "time": 28.536573,
          "velocity": 0.6220472440944882
        },
        {
          "duration": 0.24390233333333455,
          "durationTicks": 32,
          "midi": 71,
          "name": "B4",
          "ticks": 3744,
          "time": 28.536573,
          "velocity": 0.6220472440944882
        },
        {
          "duration": 0.24390233333333455,
          "durationTicks": 32,
          "midi": 66,
          "name": "F#4",
          "ticks": 3792,
          "time": 28.9024265,
          "velocity": 0.7480314960629921
        },
        {
          "duration": 0.24390233333333455,
          "durationTicks": 32,
          "midi": 62,
          "name": "D4",
          "ticks": 3792,
          "time": 28.9024265,
          "velocity": 0.7480314960629921
        },
        {
          "duration": 0.24390233333333455,
          "durationTicks": 32,
          "midi": 71,
          "name": "B4",
          "ticks": 3792,
          "time": 28.9024265,
          "velocity": 0.7480314960629921
        },
        {
          "duration": 0.24390233333333455,
          "durationTicks": 32,
          "midi": 64,
          "name": "E4",
          "ticks": 3840,
          "time": 29.26828,
          "velocity": 0.6220472440944882
        },
        {
          "duration": 0.24390233333333455,
          "durationTicks": 32,
          "midi": 67,
          "name": "G4",
          "ticks": 3840,
          "time": 29.26828,
          "velocity": 0.6220472440944882
        },
        {
          "duration": 0.24390233333333455,
          "durationTicks": 32,
          "midi": 71,
          "name": "B4",
          "ticks": 3840,
          "time": 29.26828,
          "velocity": 0.6220472440944882
        },
        {
          "duration": 0.24390233333333455,
          "durationTicks": 32,
          "midi": 64,
          "name": "E4",
          "ticks": 3888,
          "time": 29.6341335,
          "velocity": 0.7480314960629921
        },
        {
          "duration": 0.24390233333333455,
          "durationTicks": 32,
          "midi": 67,
          "name": "G4",
          "ticks": 3888,
          "time": 29.6341335,
          "velocity": 0.7480314960629921
        },
        {
          "duration": 0.24390233333333455,
          "durationTicks": 32,
          "midi": 71,
          "name": "B4",
          "ticks": 3888,
          "time": 29.6341335,
          "velocity": 0.7480314960629921
        },
        {
          "duration": 0.24390233333333455,
          "durationTicks": 32,
          "midi": 67,
          "name": "G4",
          "ticks": 3936,
          "time": 29.999987,
          "velocity": 0.6220472440944882
        },
        {
          "duration": 0.24390233333333455,
          "durationTicks": 32,
          "midi": 64,
          "name": "E4",
          "ticks": 3936,
          "time": 29.999987,
          "velocity": 0.6220472440944882
        },
        {
          "duration": 0.24390233333333455,
          "durationTicks": 32,
          "midi": 71,
          "name": "B4",
          "ticks": 3936,
          "time": 29.999987,
          "velocity": 0.6220472440944882
        },
        {
          "duration": 0.24390233333333455,
          "durationTicks": 32,
          "midi": 67,
          "name": "G4",
          "ticks": 3984,
          "time": 30.3658405,
          "velocity": 0.7480314960629921
        },
        {
          "duration": 0.24390233333333455,
          "durationTicks": 32,
          "midi": 64,
          "name": "E4",
          "ticks": 3984,
          "time": 30.3658405,
          "velocity": 0.7480314960629921
        },
        {
          "duration": 0.24390233333333455,
          "durationTicks": 32,
          "midi": 71,
          "name": "B4",
          "ticks": 3984,
          "time": 30.3658405,
          "velocity": 0.7480314960629921
        },
        {
          "duration": 0.24390233333333455,
          "durationTicks": 32,
          "midi": 64,
          "name": "E4",
          "ticks": 4032,
          "time": 30.731694,
          "velocity": 0.6220472440944882
        },
        {
          "duration": 0.24390233333333455,
          "durationTicks": 32,
          "midi": 67,
          "name": "G4",
          "ticks": 4032,
          "time": 30.731694,
          "velocity": 0.6220472440944882
        },
        {
          "duration": 0.24390233333333455,
          "durationTicks": 32,
          "midi": 71,
          "name": "B4",
          "ticks": 4032,
          "time": 30.731694,
          "velocity": 0.6220472440944882
        },
        {
          "duration": 0.24390233333333455,
          "durationTicks": 32,
          "midi": 64,
          "name": "E4",
          "ticks": 4080,
          "time": 31.0975475,
          "velocity": 0.7480314960629921
        },
        {
          "duration": 0.24390233333333455,
          "durationTicks": 32,
          "midi": 67,
          "name": "G4",
          "ticks": 4080,
          "time": 31.0975475,
          "velocity": 0.7480314960629921
        },
        {
          "duration": 0.24390233333333455,
          "durationTicks": 32,
          "midi": 71,
          "name": "B4",
          "ticks": 4080,
          "time": 31.0975475,
          "velocity": 0.7480314960629921
        },
        {
          "duration": 0.24390233333333455,
          "durationTicks": 32,
          "midi": 67,
          "name": "G4",
          "ticks": 4128,
          "time": 31.463401,
          "velocity": 0.6220472440944882
        },
        {
          "duration": 0.24390233333333455,
          "durationTicks": 32,
          "midi": 64,
          "name": "E4",
          "ticks": 4128,
          "time": 31.463401,
          "velocity": 0.6220472440944882
        },
        {
          "duration": 0.24390233333333455,
          "durationTicks": 32,
          "midi": 71,
          "name": "B4",
          "ticks": 4128,
          "time": 31.463401,
          "velocity": 0.6220472440944882
        },
        {
          "duration": 0.24390233333333455,
          "durationTicks": 32,
          "midi": 67,
          "name": "G4",
          "ticks": 4176,
          "time": 31.8292545,
          "velocity": 0.7480314960629921
        },
        {
          "duration": 0.24390233333333455,
          "durationTicks": 32,
          "midi": 64,
          "name": "E4",
          "ticks": 4176,
          "time": 31.8292545,
          "velocity": 0.7480314960629921
        },
        {
          "duration": 0.24390233333333455,
          "durationTicks": 32,
          "midi": 71,
          "name": "B4",
          "ticks": 4176,
          "time": 31.8292545,
          "velocity": 0.7480314960629921
        },
        {
          "duration": 0.2439023333333381,
          "durationTicks": 32,
          "midi": 67,
          "name": "G4",
          "ticks": 4224,
          "time": 32.195108,
          "velocity": 0.6220472440944882
        },
        {
          "duration": 0.2439023333333381,
          "durationTicks": 32,
          "midi": 64,
          "name": "E4",
          "ticks": 4224,
          "time": 32.195108,
          "velocity": 0.6220472440944882
        },
        {
          "duration": 0.2439023333333381,
          "durationTicks": 32,
          "midi": 72,
          "name": "C5",
          "ticks": 4224,
          "time": 32.195108,
          "velocity": 0.6220472440944882
        },
        {
          "duration": 0.2439023333333381,
          "durationTicks": 32,
          "midi": 67,
          "name": "G4",
          "ticks": 4272,
          "time": 32.5609615,
          "velocity": 0.7480314960629921
        },
        {
          "duration": 0.2439023333333381,
          "durationTicks": 32,
          "midi": 64,
          "name": "E4",
          "ticks": 4272,
          "time": 32.5609615,
          "velocity": 0.7480314960629921
        },
        {
          "duration": 0.2439023333333381,
          "durationTicks": 32,
          "midi": 72,
          "name": "C5",
          "ticks": 4272,
          "time": 32.5609615,
          "velocity": 0.7480314960629921
        },
        {
          "duration": 0.2439023333333381,
          "durationTicks": 32,
          "midi": 67,
          "name": "G4",
          "ticks": 4320,
          "time": 32.926815,
          "velocity": 0.6220472440944882
        },
        {
          "duration": 0.2439023333333381,
          "durationTicks": 32,
          "midi": 64,
          "name": "E4",
          "ticks": 4320,
          "time": 32.926815,
          "velocity": 0.6220472440944882
        },
        {
          "duration": 0.2439023333333381,
          "durationTicks": 32,
          "midi": 72,
          "name": "C5",
          "ticks": 4320,
          "time": 32.926815,
          "velocity": 0.6220472440944882
        },
        {
          "duration": 0.2439023333333381,
          "durationTicks": 32,
          "midi": 67,
          "name": "G4",
          "ticks": 4368,
          "time": 33.2926685,
          "velocity": 0.7480314960629921
        },
        {
          "duration": 0.2439023333333381,
          "durationTicks": 32,
          "midi": 64,
          "name": "E4",
          "ticks": 4368,
          "time": 33.2926685,
          "velocity": 0.7480314960629921
        },
        {
          "duration": 0.2439023333333381,
          "durationTicks": 32,
          "midi": 72,
          "name": "C5",
          "ticks": 4368,
          "time": 33.2926685,
          "velocity": 0.7480314960629921
        },
        {
          "duration": 0.2439023333333381,
          "durationTicks": 32,
          "midi": 69,
          "name": "A4",
          "ticks": 4416,
          "time": 33.658522,
          "velocity": 0.6220472440944882
        },
        {
          "duration": 0.2439023333333381,
          "durationTicks": 32,
          "midi": 65,
          "name": "F4",
          "ticks": 4416,
          "time": 33.658522,
          "velocity": 0.6220472440944882
        },
        {
          "duration": 0.2439023333333381,
          "durationTicks": 32,
          "midi": 72,
          "name": "C5",
          "ticks": 4416,
          "time": 33.658522,
          "velocity": 0.6220472440944882
        },
        {
          "duration": 0.2439023333333381,
          "durationTicks": 32,
          "midi": 69,
          "name": "A4",
          "ticks": 4464,
          "time": 34.0243755,
          "velocity": 0.7480314960629921
        },
        {
          "duration": 0.2439023333333381,
          "durationTicks": 32,
          "midi": 65,
          "name": "F4",
          "ticks": 4464,
          "time": 34.0243755,
          "velocity": 0.6220472440944882
        },
        {
          "duration": 0.2439023333333381,
          "durationTicks": 32,
          "midi": 72,
          "name": "C5",
          "ticks": 4464,
          "time": 34.0243755,
          "velocity": 0.7480314960629921
        },
        {
          "duration": 0.2439023333333381,
          "durationTicks": 32,
          "midi": 69,
          "name": "A4",
          "ticks": 4512,
          "time": 34.390229,
          "velocity": 0.6220472440944882
        },
        {
          "duration": 0.2439023333333381,
          "durationTicks": 32,
          "midi": 65,
          "name": "F4",
          "ticks": 4512,
          "time": 34.390229,
          "velocity": 0.6220472440944882
        },
        {
          "duration": 0.2439023333333381,
          "durationTicks": 32,
          "midi": 72,
          "name": "C5",
          "ticks": 4512,
          "time": 34.390229,
          "velocity": 0.6220472440944882
        },
        {
          "duration": 0.2439023333333381,
          "durationTicks": 32,
          "midi": 69,
          "name": "A4",
          "ticks": 4560,
          "time": 34.7560825,
          "velocity": 0.7480314960629921
        },
        {
          "duration": 0.2439023333333381,
          "durationTicks": 32,
          "midi": 65,
          "name": "F4",
          "ticks": 4560,
          "time": 34.7560825,
          "velocity": 0.7480314960629921
        },
        {
          "duration": 0.2439023333333381,
          "durationTicks": 32,
          "midi": 72,
          "name": "C5",
          "ticks": 4560,
          "time": 34.7560825,
          "velocity": 0.7480314960629921
        },
        {
          "duration": 0.2439023333333381,
          "durationTicks": 32,
          "midi": 64,
          "name": "E4",
          "ticks": 4608,
          "time": 35.121936,
          "velocity": 0.6220472440944882
        },
        {
          "duration": 0.2439023333333381,
          "durationTicks": 32,
          "midi": 67,
          "name": "G4",
          "ticks": 4608,
          "time": 35.121936,
          "velocity": 0.6220472440944882
        },
        {
          "duration": 0.2439023333333381,
          "durationTicks": 32,
          "midi": 71,
          "name": "B4",
          "ticks": 4608,
          "time": 35.121936,
          "velocity": 0.6220472440944882
        },
        {
          "duration": 0.2439023333333381,
          "durationTicks": 32,
          "midi": 64,
          "name": "E4",
          "ticks": 4656,
          "time": 35.4877895,
          "velocity": 0.7480314960629921
        },
        {
          "duration": 0.2439023333333381,
          "durationTicks": 32,
          "midi": 67,
          "name": "G4",
          "ticks": 4656,
          "time": 35.4877895,
          "velocity": 0.7480314960629921
        },
        {
          "duration": 0.2439023333333381,
          "durationTicks": 32,
          "midi": 71,
          "name": "B4",
          "ticks": 4656,
          "time": 35.4877895,
          "velocity": 0.7480314960629921
        },
        {
          "duration": 0.2439023333333381,
          "durationTicks": 32,
          "midi": 67,
          "name": "G4",
          "ticks": 4704,
          "time": 35.853643,
          "velocity": 0.6220472440944882
        },
        {
          "duration": 0.2439023333333381,
          "durationTicks": 32,
          "midi": 64,
          "name": "E4",
          "ticks": 4704,
          "time": 35.853643,
          "velocity": 0.6220472440944882
        },
        {
          "duration": 0.2439023333333381,
          "durationTicks": 32,
          "midi": 71,
          "name": "B4",
          "ticks": 4704,
          "time": 35.853643,
          "velocity": 0.6220472440944882
        },
        {
          "duration": 0.2439023333333381,
          "durationTicks": 32,
          "midi": 67,
          "name": "G4",
          "ticks": 4752,
          "time": 36.2194965,
          "velocity": 0.7480314960629921
        },
        {
          "duration": 0.2439023333333381,
          "durationTicks": 32,
          "midi": 64,
          "name": "E4",
          "ticks": 4752,
          "time": 36.2194965,
          "velocity": 0.7480314960629921
        },
        {
          "duration": 0.2439023333333381,
          "durationTicks": 32,
          "midi": 71,
          "name": "B4",
          "ticks": 4752,
          "time": 36.2194965,
          "velocity": 0.7480314960629921
        },
        {
          "duration": 0.2439023333333381,
          "durationTicks": 32,
          "midi": 64,
          "name": "E4",
          "ticks": 4800,
          "time": 36.58535,
          "velocity": 0.6220472440944882
        },
        {
          "duration": 0.2439023333333381,
          "durationTicks": 32,
          "midi": 67,
          "name": "G4",
          "ticks": 4800,
          "time": 36.58535,
          "velocity": 0.6220472440944882
        },
        {
          "duration": 0.2439023333333381,
          "durationTicks": 32,
          "midi": 71,
          "name": "B4",
          "ticks": 4800,
          "time": 36.58535,
          "velocity": 0.6220472440944882
        },
        {
          "duration": 0.2439023333333381,
          "durationTicks": 32,
          "midi": 64,
          "name": "E4",
          "ticks": 4848,
          "time": 36.9512035,
          "velocity": 0.7480314960629921
        },
        {
          "duration": 0.2439023333333381,
          "durationTicks": 32,
          "midi": 67,
          "name": "G4",
          "ticks": 4848,
          "time": 36.9512035,
          "velocity": 0.7480314960629921
        },
        {
          "duration": 0.2439023333333381,
          "durationTicks": 32,
          "midi": 71,
          "name": "B4",
          "ticks": 4848,
          "time": 36.9512035,
          "velocity": 0.7480314960629921
        },
        {
          "duration": 0.2439023333333381,
          "durationTicks": 32,
          "midi": 67,
          "name": "G4",
          "ticks": 4896,
          "time": 37.317057,
          "velocity": 0.6220472440944882
        },
        {
          "duration": 0.2439023333333381,
          "durationTicks": 32,
          "midi": 64,
          "name": "E4",
          "ticks": 4896,
          "time": 37.317057,
          "velocity": 0.6220472440944882
        },
        {
          "duration": 0.2439023333333381,
          "durationTicks": 32,
          "midi": 71,
          "name": "B4",
          "ticks": 4896,
          "time": 37.317057,
          "velocity": 0.6220472440944882
        },
        {
          "duration": 0.2439023333333381,
          "durationTicks": 32,
          "midi": 67,
          "name": "G4",
          "ticks": 4944,
          "time": 37.6829105,
          "velocity": 0.7480314960629921
        },
        {
          "duration": 0.2439023333333381,
          "durationTicks": 32,
          "midi": 64,
          "name": "E4",
          "ticks": 4944,
          "time": 37.6829105,
          "velocity": 0.7480314960629921
        },
        {
          "duration": 0.2439023333333381,
          "durationTicks": 32,
          "midi": 71,
          "name": "B4",
          "ticks": 4944,
          "time": 37.6829105,
          "velocity": 0.7480314960629921
        },
        {
          "duration": 0.2439023333333381,
          "durationTicks": 32,
          "midi": 67,
          "name": "G4",
          "ticks": 4992,
          "time": 38.048764,
          "velocity": 0.6220472440944882
        },
        {
          "duration": 0.2439023333333381,
          "durationTicks": 32,
          "midi": 64,
          "name": "E4",
          "ticks": 4992,
          "time": 38.048764,
          "velocity": 0.6220472440944882
        },
        {
          "duration": 0.2439023333333381,
          "durationTicks": 32,
          "midi": 60,
          "name": "C4",
          "ticks": 4992,
          "time": 38.048764,
          "velocity": 0.6220472440944882
        },
        {
          "duration": 0.2439023333333381,
          "durationTicks": 32,
          "midi": 64,
          "name": "E4",
          "ticks": 5040,
          "time": 38.4146175,
          "velocity": 0.7480314960629921
        },
        {
          "duration": 0.2439023333333381,
          "durationTicks": 32,
          "midi": 60,
          "name": "C4",
          "ticks": 5040,
          "time": 38.4146175,
          "velocity": 0.7480314960629921
        },
        {
          "duration": 0.2439023333333381,
          "durationTicks": 32,
          "midi": 67,
          "name": "G4",
          "ticks": 5040,
          "time": 38.4146175,
          "velocity": 0.7480314960629921
        },
        {
          "duration": 0.2439023333333381,
          "durationTicks": 32,
          "midi": 64,
          "name": "E4",
          "ticks": 5088,
          "time": 38.780471,
          "velocity": 0.6220472440944882
        },
        {
          "duration": 0.2439023333333381,
          "durationTicks": 32,
          "midi": 60,
          "name": "C4",
          "ticks": 5088,
          "time": 38.780471,
          "velocity": 0.6220472440944882
        },
        {
          "duration": 0.2439023333333381,
          "durationTicks": 32,
          "midi": 67,
          "name": "G4",
          "ticks": 5088,
          "time": 38.780471,
          "velocity": 0.6220472440944882
        },
        {
          "duration": 0.2439023333333381,
          "durationTicks": 32,
          "midi": 64,
          "name": "E4",
          "ticks": 5136,
          "time": 39.1463245,
          "velocity": 0.7480314960629921
        },
        {
          "duration": 0.2439023333333381,
          "durationTicks": 32,
          "midi": 60,
          "name": "C4",
          "ticks": 5136,
          "time": 39.1463245,
          "velocity": 0.7480314960629921
        },
        {
          "duration": 0.2439023333333381,
          "durationTicks": 32,
          "midi": 67,
          "name": "G4",
          "ticks": 5136,
          "time": 39.1463245,
          "velocity": 0.7480314960629921
        },
        {
          "duration": 0.2439023333333381,
          "durationTicks": 32,
          "midi": 69,
          "name": "A4",
          "ticks": 5184,
          "time": 39.512178,
          "velocity": 0.6220472440944882
        },
        {
          "duration": 0.2439023333333381,
          "durationTicks": 32,
          "midi": 65,
          "name": "F4",
          "ticks": 5184,
          "time": 39.512178,
          "velocity": 0.6220472440944882
        },
        {
          "duration": 0.2439023333333381,
          "durationTicks": 32,
          "midi": 72,
          "name": "C5",
          "ticks": 5184,
          "time": 39.512178,
          "velocity": 0.6220472440944882
        },
        {
          "duration": 0.2439023333333381,
          "durationTicks": 32,
          "midi": 69,
          "name": "A4",
          "ticks": 5232,
          "time": 39.8780315,
          "velocity": 0.7480314960629921
        },
        {
          "duration": 0.2439023333333381,
          "durationTicks": 32,
          "midi": 65,
          "name": "F4",
          "ticks": 5232,
          "time": 39.8780315,
          "velocity": 0.7480314960629921
        },
        {
          "duration": 0.2439023333333381,
          "durationTicks": 32,
          "midi": 72,
          "name": "C5",
          "ticks": 5232,
          "time": 39.8780315,
          "velocity": 0.7480314960629921
        },
        {
          "duration": 0.2439023333333381,
          "durationTicks": 32,
          "midi": 69,
          "name": "A4",
          "ticks": 5280,
          "time": 40.243885,
          "velocity": 0.6220472440944882
        },
        {
          "duration": 0.2439023333333381,
          "durationTicks": 32,
          "midi": 65,
          "name": "F4",
          "ticks": 5280,
          "time": 40.243885,
          "velocity": 0.6220472440944882
        },
        {
          "duration": 0.2439023333333381,
          "durationTicks": 32,
          "midi": 72,
          "name": "C5",
          "ticks": 5280,
          "time": 40.243885,
          "velocity": 0.6220472440944882
        },
        {
          "duration": 0.2439023333333381,
          "durationTicks": 32,
          "midi": 69,
          "name": "A4",
          "ticks": 5328,
          "time": 40.6097385,
          "velocity": 0.7480314960629921
        },
        {
          "duration": 0.2439023333333381,
          "durationTicks": 32,
          "midi": 65,
          "name": "F4",
          "ticks": 5328,
          "time": 40.6097385,
          "velocity": 0.7480314960629921
        },
        {
          "duration": 0.2439023333333381,
          "durationTicks": 32,
          "midi": 72,
          "name": "C5",
          "ticks": 5328,
          "time": 40.6097385,
          "velocity": 0.7480314960629921
        },
        {
          "duration": 0.2439023333333381,
          "durationTicks": 32,
          "midi": 67,
          "name": "G4",
          "ticks": 5376,
          "time": 40.975592,
          "velocity": 0.6220472440944882
        },
        {
          "duration": 0.2439023333333381,
          "durationTicks": 32,
          "midi": 64,
          "name": "E4",
          "ticks": 5376,
          "time": 40.975592,
          "velocity": 0.6220472440944882
        },
        {
          "duration": 0.2439023333333381,
          "durationTicks": 32,
          "midi": 71,
          "name": "B4",
          "ticks": 5376,
          "time": 40.975592,
          "velocity": 0.6220472440944882
        },
        {
          "duration": 0.2439023333333381,
          "durationTicks": 32,
          "midi": 67,
          "name": "G4",
          "ticks": 5424,
          "time": 41.3414455,
          "velocity": 0.7480314960629921
        },
        {
          "duration": 0.2439023333333381,
          "durationTicks": 32,
          "midi": 64,
          "name": "E4",
          "ticks": 5424,
          "time": 41.3414455,
          "velocity": 0.7480314960629921
        },
        {
          "duration": 0.2439023333333381,
          "durationTicks": 32,
          "midi": 71,
          "name": "B4",
          "ticks": 5424,
          "time": 41.3414455,
          "velocity": 0.7480314960629921
        },
        {
          "duration": 0.2439023333333381,
          "durationTicks": 32,
          "midi": 67,
          "name": "G4",
          "ticks": 5472,
          "time": 41.707299,
          "velocity": 0.6220472440944882
        },
        {
          "duration": 0.2439023333333381,
          "durationTicks": 32,
          "midi": 64,
          "name": "E4",
          "ticks": 5472,
          "time": 41.707299,
          "velocity": 0.6220472440944882
        },
        {
          "duration": 0.2439023333333381,
          "durationTicks": 32,
          "midi": 71,
          "name": "B4",
          "ticks": 5472,
          "time": 41.707299,
          "velocity": 0.6220472440944882
        },
        {
          "duration": 0.2439023333333381,
          "durationTicks": 32,
          "midi": 67,
          "name": "G4",
          "ticks": 5520,
          "time": 42.0731525,
          "velocity": 0.7480314960629921
        },
        {
          "duration": 0.2439023333333381,
          "durationTicks": 32,
          "midi": 64,
          "name": "E4",
          "ticks": 5520,
          "time": 42.0731525,
          "velocity": 0.7480314960629921
        },
        {
          "duration": 0.2439023333333381,
          "durationTicks": 32,
          "midi": 71,
          "name": "B4",
          "ticks": 5520,
          "time": 42.0731525,
          "velocity": 0.7480314960629921
        },
        {
          "duration": 0.2439023333333381,
          "durationTicks": 32,
          "midi": 64,
          "name": "E4",
          "ticks": 5568,
          "time": 42.439006,
          "velocity": 0.6220472440944882
        },
        {
          "duration": 0.2439023333333381,
          "durationTicks": 32,
          "midi": 60,
          "name": "C4",
          "ticks": 5568,
          "time": 42.439006,
          "velocity": 0.6220472440944882
        },
        {
          "duration": 0.2439023333333381,
          "durationTicks": 32,
          "midi": 67,
          "name": "G4",
          "ticks": 5568,
          "time": 42.439006,
          "velocity": 0.6220472440944882
        },
        {
          "duration": 0.2439023333333381,
          "durationTicks": 32,
          "midi": 64,
          "name": "E4",
          "ticks": 5616,
          "time": 42.8048595,
          "velocity": 0.7480314960629921
        },
        {
          "duration": 0.2439023333333381,
          "durationTicks": 32,
          "midi": 60,
          "name": "C4",
          "ticks": 5616,
          "time": 42.8048595,
          "velocity": 0.7480314960629921
        },
        {
          "duration": 0.2439023333333381,
          "durationTicks": 32,
          "midi": 67,
          "name": "G4",
          "ticks": 5616,
          "time": 42.8048595,
          "velocity": 0.7480314960629921
        },
        {
          "duration": 0.2439023333333381,
          "durationTicks": 32,
          "midi": 64,
          "name": "E4",
          "ticks": 5664,
          "time": 43.170713,
          "velocity": 0.6220472440944882
        },
        {
          "duration": 0.2439023333333381,
          "durationTicks": 32,
          "midi": 60,
          "name": "C4",
          "ticks": 5664,
          "time": 43.170713,
          "velocity": 0.6220472440944882
        },
        {
          "duration": 0.2439023333333381,
          "durationTicks": 32,
          "midi": 67,
          "name": "G4",
          "ticks": 5664,
          "time": 43.170713,
          "velocity": 0.6220472440944882
        },
        {
          "duration": 0.2439023333333381,
          "durationTicks": 32,
          "midi": 64,
          "name": "E4",
          "ticks": 5712,
          "time": 43.5365665,
          "velocity": 0.7480314960629921
        },
        {
          "duration": 0.2439023333333381,
          "durationTicks": 32,
          "midi": 60,
          "name": "C4",
          "ticks": 5712,
          "time": 43.5365665,
          "velocity": 0.7480314960629921
        },
        {
          "duration": 0.2439023333333381,
          "durationTicks": 32,
          "midi": 67,
          "name": "G4",
          "ticks": 5712,
          "time": 43.5365665,
          "velocity": 0.7480314960629921
        },
        {
          "duration": 0.2439023333333381,
          "durationTicks": 32,
          "midi": 71,
          "name": "B4",
          "ticks": 5760,
          "time": 43.90242,
          "velocity": 0.6220472440944882
        },
        {
          "duration": 0.2439023333333381,
          "durationTicks": 32,
          "midi": 67,
          "name": "G4",
          "ticks": 5760,
          "time": 43.90242,
          "velocity": 0.6220472440944882
        },
        {
          "duration": 0.2439023333333381,
          "durationTicks": 32,
          "midi": 74,
          "name": "D5",
          "ticks": 5760,
          "time": 43.90242,
          "velocity": 0.6220472440944882
        },
        {
          "duration": 0.2439023333333381,
          "durationTicks": 32,
          "midi": 71,
          "name": "B4",
          "ticks": 5808,
          "time": 44.2682735,
          "velocity": 0.7480314960629921
        },
        {
          "duration": 0.2439023333333381,
          "durationTicks": 32,
          "midi": 67,
          "name": "G4",
          "ticks": 5808,
          "time": 44.2682735,
          "velocity": 0.7480314960629921
        },
        {
          "duration": 0.2439023333333381,
          "durationTicks": 32,
          "midi": 74,
          "name": "D5",
          "ticks": 5808,
          "time": 44.2682735,
          "velocity": 0.7480314960629921
        },
        {
          "duration": 0.2439023333333381,
          "durationTicks": 32,
          "midi": 71,
          "name": "B4",
          "ticks": 5856,
          "time": 44.634127,
          "velocity": 0.6220472440944882
        },
        {
          "duration": 0.2439023333333381,
          "durationTicks": 32,
          "midi": 67,
          "name": "G4",
          "ticks": 5856,
          "time": 44.634127,
          "velocity": 0.6220472440944882
        },
        {
          "duration": 0.2439023333333381,
          "durationTicks": 32,
          "midi": 74,
          "name": "D5",
          "ticks": 5856,
          "time": 44.634127,
          "velocity": 0.6220472440944882
        },
        {
          "duration": 0.2439023333333381,
          "durationTicks": 32,
          "midi": 71,
          "name": "B4",
          "ticks": 5904,
          "time": 44.9999805,
          "velocity": 0.7480314960629921
        },
        {
          "duration": 0.2439023333333381,
          "durationTicks": 32,
          "midi": 67,
          "name": "G4",
          "ticks": 5904,
          "time": 44.9999805,
          "velocity": 0.7480314960629921
        },
        {
          "duration": 0.2439023333333381,
          "durationTicks": 32,
          "midi": 74,
          "name": "D5",
          "ticks": 5904,
          "time": 44.9999805,
          "velocity": 0.7480314960629921
        },
        {
          "duration": 0.2439023333333381,
          "durationTicks": 32,
          "midi": 71,
          "name": "B4",
          "ticks": 5952,
          "time": 45.365834,
          "velocity": 0.6220472440944882
        },
        {
          "duration": 0.2439023333333381,
          "durationTicks": 32,
          "midi": 66,
          "name": "F#4",
          "ticks": 5952,
          "time": 45.365834,
          "velocity": 0.6220472440944882
        },
        {
          "duration": 0.2439023333333381,
          "durationTicks": 32,
          "midi": 74,
          "name": "D5",
          "ticks": 5952,
          "time": 45.365834,
          "velocity": 0.6220472440944882
        },
        {
          "duration": 0.2439023333333381,
          "durationTicks": 32,
          "midi": 71,
          "name": "B4",
          "ticks": 6000,
          "time": 45.7316875,
          "velocity": 0.7480314960629921
        },
        {
          "duration": 0.2439023333333381,
          "durationTicks": 32,
          "midi": 66,
          "name": "F#4",
          "ticks": 6000,
          "time": 45.7316875,
          "velocity": 0.7480314960629921
        },
        {
          "duration": 0.2439023333333381,
          "durationTicks": 32,
          "midi": 74,
          "name": "D5",
          "ticks": 6000,
          "time": 45.7316875,
          "velocity": 0.7480314960629921
        },
        {
          "duration": 0.2439023333333381,
          "durationTicks": 32,
          "midi": 71,
          "name": "B4",
          "ticks": 6048,
          "time": 46.097541,
          "velocity": 0.6220472440944882
        },
        {
          "duration": 0.2439023333333381,
          "durationTicks": 32,
          "midi": 66,
          "name": "F#4",
          "ticks": 6048,
          "time": 46.097541,
          "velocity": 0.6220472440944882
        },
        {
          "duration": 0.2439023333333381,
          "durationTicks": 32,
          "midi": 74,
          "name": "D5",
          "ticks": 6048,
          "time": 46.097541,
          "velocity": 0.6220472440944882
        },
        {
          "duration": 0.2439023333333381,
          "durationTicks": 32,
          "midi": 71,
          "name": "B4",
          "ticks": 6096,
          "time": 46.4633945,
          "velocity": 0.7480314960629921
        },
        {
          "duration": 0.2439023333333381,
          "durationTicks": 32,
          "midi": 66,
          "name": "F#4",
          "ticks": 6096,
          "time": 46.4633945,
          "velocity": 0.7480314960629921
        },
        {
          "duration": 0.2439023333333381,
          "durationTicks": 32,
          "midi": 74,
          "name": "D5",
          "ticks": 6096,
          "time": 46.4633945,
          "velocity": 0.7480314960629921
        },
        {
          "duration": 0.243902333333331,
          "durationTicks": 32,
          "midi": 67,
          "name": "G4",
          "ticks": 6144,
          "time": 46.829248,
          "velocity": 0.6220472440944882
        },
        {
          "duration": 0.243902333333331,
          "durationTicks": 32,
          "midi": 64,
          "name": "E4",
          "ticks": 6144,
          "time": 46.829248,
          "velocity": 0.6220472440944882
        },
        {
          "duration": 0.243902333333331,
          "durationTicks": 32,
          "midi": 71,
          "name": "B4",
          "ticks": 6144,
          "time": 46.829248,
          "velocity": 0.6220472440944882
        },
        {
          "duration": 0.243902333333331,
          "durationTicks": 32,
          "midi": 67,
          "name": "G4",
          "ticks": 6192,
          "time": 47.1951015,
          "velocity": 0.7480314960629921
        },
        {
          "duration": 0.243902333333331,
          "durationTicks": 32,
          "midi": 64,
          "name": "E4",
          "ticks": 6192,
          "time": 47.1951015,
          "velocity": 0.7480314960629921
        },
        {
          "duration": 0.243902333333331,
          "durationTicks": 32,
          "midi": 71,
          "name": "B4",
          "ticks": 6192,
          "time": 47.1951015,
          "velocity": 0.7480314960629921
        },
        {
          "duration": 0.243902333333331,
          "durationTicks": 32,
          "midi": 67,
          "name": "G4",
          "ticks": 6240,
          "time": 47.560955,
          "velocity": 0.6220472440944882
        },
        {
          "duration": 0.243902333333331,
          "durationTicks": 32,
          "midi": 64,
          "name": "E4",
          "ticks": 6240,
          "time": 47.560955,
          "velocity": 0.6220472440944882
        },
        {
          "duration": 0.243902333333331,
          "durationTicks": 32,
          "midi": 71,
          "name": "B4",
          "ticks": 6240,
          "time": 47.560955,
          "velocity": 0.6220472440944882
        },
        {
          "duration": 0.243902333333331,
          "durationTicks": 32,
          "midi": 67,
          "name": "G4",
          "ticks": 6288,
          "time": 47.9268085,
          "velocity": 0.7480314960629921
        },
        {
          "duration": 0.243902333333331,
          "durationTicks": 32,
          "midi": 64,
          "name": "E4",
          "ticks": 6288,
          "time": 47.9268085,
          "velocity": 0.7480314960629921
        },
        {
          "duration": 0.243902333333331,
          "durationTicks": 32,
          "midi": 71,
          "name": "B4",
          "ticks": 6288,
          "time": 47.9268085,
          "velocity": 0.7480314960629921
        },
        {
          "duration": 0.243902333333331,
          "durationTicks": 32,
          "midi": 67,
          "name": "G4",
          "ticks": 6336,
          "time": 48.292662,
          "velocity": 0.6220472440944882
        },
        {
          "duration": 0.243902333333331,
          "durationTicks": 32,
          "midi": 64,
          "name": "E4",
          "ticks": 6336,
          "time": 48.292662,
          "velocity": 0.6220472440944882
        },
        {
          "duration": 0.243902333333331,
          "durationTicks": 32,
          "midi": 71,
          "name": "B4",
          "ticks": 6336,
          "time": 48.292662,
          "velocity": 0.6220472440944882
        },
        {
          "duration": 0.243902333333331,
          "durationTicks": 32,
          "midi": 67,
          "name": "G4",
          "ticks": 6384,
          "time": 48.6585155,
          "velocity": 0.7480314960629921
        },
        {
          "duration": 0.243902333333331,
          "durationTicks": 32,
          "midi": 64,
          "name": "E4",
          "ticks": 6384,
          "time": 48.6585155,
          "velocity": 0.7480314960629921
        },
        {
          "duration": 0.243902333333331,
          "durationTicks": 32,
          "midi": 71,
          "name": "B4",
          "ticks": 6384,
          "time": 48.6585155,
          "velocity": 0.7480314960629921
        },
        {
          "duration": 0.243902333333331,
          "durationTicks": 32,
          "midi": 67,
          "name": "G4",
          "ticks": 6432,
          "time": 49.024369,
          "velocity": 0.6220472440944882
        },
        {
          "duration": 0.243902333333331,
          "durationTicks": 32,
          "midi": 64,
          "name": "E4",
          "ticks": 6432,
          "time": 49.024369,
          "velocity": 0.6220472440944882
        },
        {
          "duration": 0.243902333333331,
          "durationTicks": 32,
          "midi": 71,
          "name": "B4",
          "ticks": 6432,
          "time": 49.024369,
          "velocity": 0.6220472440944882
        },
        {
          "duration": 0.243902333333331,
          "durationTicks": 32,
          "midi": 67,
          "name": "G4",
          "ticks": 6480,
          "time": 49.3902225,
          "velocity": 0.7480314960629921
        },
        {
          "duration": 0.243902333333331,
          "durationTicks": 32,
          "midi": 64,
          "name": "E4",
          "ticks": 6480,
          "time": 49.3902225,
          "velocity": 0.7480314960629921
        },
        {
          "duration": 0.243902333333331,
          "durationTicks": 32,
          "midi": 71,
          "name": "B4",
          "ticks": 6480,
          "time": 49.3902225,
          "velocity": 0.7480314960629921
        },
        {
          "duration": 0.243902333333331,
          "durationTicks": 32,
          "midi": 67,
          "name": "G4",
          "ticks": 6528,
          "time": 49.756076,
          "velocity": 0.6220472440944882
        },
        {
          "duration": 0.243902333333331,
          "durationTicks": 32,
          "midi": 64,
          "name": "E4",
          "ticks": 6528,
          "time": 49.756076,
          "velocity": 0.6220472440944882
        },
        {
          "duration": 0.243902333333331,
          "durationTicks": 32,
          "midi": 60,
          "name": "C4",
          "ticks": 6528,
          "time": 49.756076,
          "velocity": 0.6220472440944882
        },
        {
          "duration": 0.243902333333331,
          "durationTicks": 32,
          "midi": 64,
          "name": "E4",
          "ticks": 6576,
          "time": 50.1219295,
          "velocity": 0.7480314960629921
        },
        {
          "duration": 0.243902333333331,
          "durationTicks": 32,
          "midi": 60,
          "name": "C4",
          "ticks": 6576,
          "time": 50.1219295,
          "velocity": 0.7480314960629921
        },
        {
          "duration": 0.243902333333331,
          "durationTicks": 32,
          "midi": 67,
          "name": "G4",
          "ticks": 6576,
          "time": 50.1219295,
          "velocity": 0.7480314960629921
        },
        {
          "duration": 0.243902333333331,
          "durationTicks": 32,
          "midi": 64,
          "name": "E4",
          "ticks": 6624,
          "time": 50.487783,
          "velocity": 0.6220472440944882
        },
        {
          "duration": 0.243902333333331,
          "durationTicks": 32,
          "midi": 60,
          "name": "C4",
          "ticks": 6624,
          "time": 50.487783,
          "velocity": 0.6220472440944882
        },
        {
          "duration": 0.243902333333331,
          "durationTicks": 32,
          "midi": 67,
          "name": "G4",
          "ticks": 6624,
          "time": 50.487783,
          "velocity": 0.6220472440944882
        },
        {
          "duration": 0.243902333333331,
          "durationTicks": 32,
          "midi": 64,
          "name": "E4",
          "ticks": 6672,
          "time": 50.8536365,
          "velocity": 0.7480314960629921
        },
        {
          "duration": 0.243902333333331,
          "durationTicks": 32,
          "midi": 60,
          "name": "C4",
          "ticks": 6672,
          "time": 50.8536365,
          "velocity": 0.7480314960629921
        },
        {
          "duration": 0.243902333333331,
          "durationTicks": 32,
          "midi": 67,
          "name": "G4",
          "ticks": 6672,
          "time": 50.8536365,
          "velocity": 0.7480314960629921
        },
        {
          "duration": 0.243902333333331,
          "durationTicks": 32,
          "midi": 67,
          "name": "G4",
          "ticks": 6720,
          "time": 51.21949,
          "velocity": 0.6220472440944882
        },
        {
          "duration": 0.243902333333331,
          "durationTicks": 32,
          "midi": 64,
          "name": "E4",
          "ticks": 6720,
          "time": 51.21949,
          "velocity": 0.6220472440944882
        },
        {
          "duration": 0.243902333333331,
          "durationTicks": 32,
          "midi": 71,
          "name": "B4",
          "ticks": 6720,
          "time": 51.21949,
          "velocity": 0.6220472440944882
        },
        {
          "duration": 0.243902333333331,
          "durationTicks": 32,
          "midi": 67,
          "name": "G4",
          "ticks": 6768,
          "time": 51.5853435,
          "velocity": 0.7480314960629921
        },
        {
          "duration": 0.243902333333331,
          "durationTicks": 32,
          "midi": 64,
          "name": "E4",
          "ticks": 6768,
          "time": 51.5853435,
          "velocity": 0.7480314960629921
        },
        {
          "duration": 0.243902333333331,
          "durationTicks": 32,
          "midi": 71,
          "name": "B4",
          "ticks": 6768,
          "time": 51.5853435,
          "velocity": 0.7480314960629921
        },
        {
          "duration": 0.243902333333331,
          "durationTicks": 32,
          "midi": 67,
          "name": "G4",
          "ticks": 6816,
          "time": 51.951197,
          "velocity": 0.6220472440944882
        },
        {
          "duration": 0.243902333333331,
          "durationTicks": 32,
          "midi": 64,
          "name": "E4",
          "ticks": 6816,
          "time": 51.951197,
          "velocity": 0.6220472440944882
        },
        {
          "duration": 0.243902333333331,
          "durationTicks": 32,
          "midi": 71,
          "name": "B4",
          "ticks": 6816,
          "time": 51.951197,
          "velocity": 0.6220472440944882
        },
        {
          "duration": 0.243902333333331,
          "durationTicks": 32,
          "midi": 67,
          "name": "G4",
          "ticks": 6864,
          "time": 52.3170505,
          "velocity": 0.7480314960629921
        },
        {
          "duration": 0.243902333333331,
          "durationTicks": 32,
          "midi": 64,
          "name": "E4",
          "ticks": 6864,
          "time": 52.3170505,
          "velocity": 0.7480314960629921
        },
        {
          "duration": 0.243902333333331,
          "durationTicks": 32,
          "midi": 71,
          "name": "B4",
          "ticks": 6864,
          "time": 52.3170505,
          "velocity": 0.7480314960629921
        },
        {
          "duration": 0.243902333333331,
          "durationTicks": 32,
          "midi": 64,
          "name": "E4",
          "ticks": 6912,
          "time": 52.682904,
          "velocity": 0.6220472440944882
        },
        {
          "duration": 0.243902333333331,
          "durationTicks": 32,
          "midi": 60,
          "name": "C4",
          "ticks": 6912,
          "time": 52.682904,
          "velocity": 0.6220472440944882
        },
        {
          "duration": 0.243902333333331,
          "durationTicks": 32,
          "midi": 69,
          "name": "A4",
          "ticks": 6912,
          "time": 52.682904,
          "velocity": 0.6220472440944882
        },
        {
          "duration": 0.243902333333331,
          "durationTicks": 32,
          "midi": 64,
          "name": "E4",
          "ticks": 6960,
          "time": 53.0487575,
          "velocity": 0.7480314960629921
        },
        {
          "duration": 0.243902333333331,
          "durationTicks": 32,
          "midi": 60,
          "name": "C4",
          "ticks": 6960,
          "time": 53.0487575,
          "velocity": 0.7480314960629921
        },
        {
          "duration": 0.243902333333331,
          "durationTicks": 32,
          "midi": 69,
          "name": "A4",
          "ticks": 6960,
          "time": 53.0487575,
          "velocity": 0.7480314960629921
        },
        {
          "duration": 0.243902333333331,
          "durationTicks": 32,
          "midi": 64,
          "name": "E4",
          "ticks": 7008,
          "time": 53.414611,
          "velocity": 0.6220472440944882
        },
        {
          "duration": 0.243902333333331,
          "durationTicks": 32,
          "midi": 60,
          "name": "C4",
          "ticks": 7008,
          "time": 53.414611,
          "velocity": 0.6220472440944882
        },
        {
          "duration": 0.243902333333331,
          "durationTicks": 32,
          "midi": 69,
          "name": "A4",
          "ticks": 7008,
          "time": 53.414611,
          "velocity": 0.6220472440944882
        },
        {
          "duration": 0.243902333333331,
          "durationTicks": 32,
          "midi": 64,
          "name": "E4",
          "ticks": 7056,
          "time": 53.7804645,
          "velocity": 0.7480314960629921
        },
        {
          "duration": 0.243902333333331,
          "durationTicks": 32,
          "midi": 60,
          "name": "C4",
          "ticks": 7056,
          "time": 53.7804645,
          "velocity": 0.7480314960629921
        },
        {
          "duration": 0.243902333333331,
          "durationTicks": 32,
          "midi": 69,
          "name": "A4",
          "ticks": 7056,
          "time": 53.7804645,
          "velocity": 0.7480314960629921
        },
        {
          "duration": 0.243902333333331,
          "durationTicks": 32,
          "midi": 64,
          "name": "E4",
          "ticks": 7104,
          "time": 54.146318,
          "velocity": 0.6220472440944882
        },
        {
          "duration": 0.243902333333331,
          "durationTicks": 32,
          "midi": 60,
          "name": "C4",
          "ticks": 7104,
          "time": 54.146318,
          "velocity": 0.6220472440944882
        },
        {
          "duration": 0.243902333333331,
          "durationTicks": 32,
          "midi": 67,
          "name": "G4",
          "ticks": 7104,
          "time": 54.146318,
          "velocity": 0.6220472440944882
        },
        {
          "duration": 0.243902333333331,
          "durationTicks": 32,
          "midi": 71,
          "name": "B4",
          "ticks": 7104,
          "time": 54.146318,
          "velocity": 0.6220472440944882
        },
        {
          "duration": 0.243902333333331,
          "durationTicks": 32,
          "midi": 64,
          "name": "E4",
          "ticks": 7152,
          "time": 54.5121715,
          "velocity": 0.7480314960629921
        },
        {
          "duration": 0.243902333333331,
          "durationTicks": 32,
          "midi": 60,
          "name": "C4",
          "ticks": 7152,
          "time": 54.5121715,
          "velocity": 0.7480314960629921
        },
        {
          "duration": 0.243902333333331,
          "durationTicks": 32,
          "midi": 69,
          "name": "A4",
          "ticks": 7152,
          "time": 54.5121715,
          "velocity": 0.7480314960629921
        },
        {
          "duration": 0.243902333333331,
          "durationTicks": 32,
          "midi": 64,
          "name": "E4",
          "ticks": 7200,
          "time": 54.878025,
          "velocity": 0.6220472440944882
        },
        {
          "duration": 0.243902333333331,
          "durationTicks": 32,
          "midi": 60,
          "name": "C4",
          "ticks": 7200,
          "time": 54.878025,
          "velocity": 0.6220472440944882
        },
        {
          "duration": 0.243902333333331,
          "durationTicks": 32,
          "midi": 67,
          "name": "G4",
          "ticks": 7200,
          "time": 54.878025,
          "velocity": 0.6220472440944882
        },
        {
          "duration": 0.243902333333331,
          "durationTicks": 32,
          "midi": 71,
          "name": "B4",
          "ticks": 7200,
          "time": 54.878025,
          "velocity": 0.6220472440944882
        },
        {
          "duration": 0.243902333333331,
          "durationTicks": 32,
          "midi": 64,
          "name": "E4",
          "ticks": 7248,
          "time": 55.2438785,
          "velocity": 0.7480314960629921
        },
        {
          "duration": 0.243902333333331,
          "durationTicks": 32,
          "midi": 60,
          "name": "C4",
          "ticks": 7248,
          "time": 55.2438785,
          "velocity": 0.7480314960629921
        },
        {
          "duration": 0.243902333333331,
          "durationTicks": 32,
          "midi": 69,
          "name": "A4",
          "ticks": 7248,
          "time": 55.2438785,
          "velocity": 0.7480314960629921
        },
        {
          "duration": 0.243902333333331,
          "durationTicks": 32,
          "midi": 67,
          "name": "G4",
          "ticks": 7344,
          "time": 55.9755855,
          "velocity": 0.7480314960629921
        },
        {
          "duration": 0.243902333333331,
          "durationTicks": 32,
          "midi": 62,
          "name": "D4",
          "ticks": 7344,
          "time": 55.9755855,
          "velocity": 0.7480314960629921
        },
        {
          "duration": 0.243902333333331,
          "durationTicks": 32,
          "midi": 71,
          "name": "B4",
          "ticks": 7344,
          "time": 55.9755855,
          "velocity": 0.7480314960629921
        },
        {
          "duration": 0.243902333333331,
          "durationTicks": 32,
          "midi": 67,
          "name": "G4",
          "ticks": 7392,
          "time": 56.341439,
          "velocity": 0.6220472440944882
        },
        {
          "duration": 0.243902333333331,
          "durationTicks": 32,
          "midi": 62,
          "name": "D4",
          "ticks": 7392,
          "time": 56.341439,
          "velocity": 0.6220472440944882
        },
        {
          "duration": 0.243902333333331,
          "durationTicks": 32,
          "midi": 71,
          "name": "B4",
          "ticks": 7392,
          "time": 56.341439,
          "velocity": 0.6220472440944882
        },
        {
          "duration": 0.243902333333331,
          "durationTicks": 32,
          "midi": 67,
          "name": "G4",
          "ticks": 7440,
          "time": 56.7072925,
          "velocity": 0.7480314960629921
        },
        {
          "duration": 0.243902333333331,
          "durationTicks": 32,
          "midi": 62,
          "name": "D4",
          "ticks": 7440,
          "time": 56.7072925,
          "velocity": 0.7480314960629921
        },
        {
          "duration": 0.243902333333331,
          "durationTicks": 32,
          "midi": 71,
          "name": "B4",
          "ticks": 7440,
          "time": 56.7072925,
          "velocity": 0.7480314960629921
        },
        {
          "duration": 0.243902333333331,
          "durationTicks": 32,
          "midi": 66,
          "name": "F#4",
          "ticks": 7488,
          "time": 57.073146,
          "velocity": 0.6220472440944882
        },
        {
          "duration": 0.243902333333331,
          "durationTicks": 32,
          "midi": 62,
          "name": "D4",
          "ticks": 7488,
          "time": 57.073146,
          "velocity": 0.6220472440944882
        },
        {
          "duration": 0.243902333333331,
          "durationTicks": 32,
          "midi": 71,
          "name": "B4",
          "ticks": 7488,
          "time": 57.073146,
          "velocity": 0.6220472440944882
        },
        {
          "duration": 0.243902333333331,
          "durationTicks": 32,
          "midi": 66,
          "name": "F#4",
          "ticks": 7536,
          "time": 57.4389995,
          "velocity": 0.7480314960629921
        },
        {
          "duration": 0.243902333333331,
          "durationTicks": 32,
          "midi": 62,
          "name": "D4",
          "ticks": 7536,
          "time": 57.4389995,
          "velocity": 0.7480314960629921
        },
        {
          "duration": 0.243902333333331,
          "durationTicks": 32,
          "midi": 71,
          "name": "B4",
          "ticks": 7536,
          "time": 57.4389995,
          "velocity": 0.7480314960629921
        },
        {
          "duration": 0.243902333333331,
          "durationTicks": 32,
          "midi": 66,
          "name": "F#4",
          "ticks": 7584,
          "time": 57.804853,
          "velocity": 0.6220472440944882
        },
        {
          "duration": 0.243902333333331,
          "durationTicks": 32,
          "midi": 62,
          "name": "D4",
          "ticks": 7584,
          "time": 57.804853,
          "velocity": 0.6220472440944882
        },
        {
          "duration": 0.243902333333331,
          "durationTicks": 32,
          "midi": 71,
          "name": "B4",
          "ticks": 7584,
          "time": 57.804853,
          "velocity": 0.6220472440944882
        },
        {
          "duration": 0.243902333333331,
          "durationTicks": 32,
          "midi": 66,
          "name": "F#4",
          "ticks": 7632,
          "time": 58.1707065,
          "velocity": 0.7480314960629921
        },
        {
          "duration": 0.243902333333331,
          "durationTicks": 32,
          "midi": 62,
          "name": "D4",
          "ticks": 7632,
          "time": 58.1707065,
          "velocity": 0.7480314960629921
        },
        {
          "duration": 0.243902333333331,
          "durationTicks": 32,
          "midi": 71,
          "name": "B4",
          "ticks": 7632,
          "time": 58.1707065,
          "velocity": 0.7480314960629921
        },
        {
          "duration": 0.243902333333331,
          "durationTicks": 32,
          "midi": 67,
          "name": "G4",
          "ticks": 7680,
          "time": 58.53656,
          "velocity": 0.6220472440944882
        },
        {
          "duration": 0.243902333333331,
          "durationTicks": 32,
          "midi": 64,
          "name": "E4",
          "ticks": 7680,
          "time": 58.53656,
          "velocity": 0.6220472440944882
        },
        {
          "duration": 0.243902333333331,
          "durationTicks": 32,
          "midi": 71,
          "name": "B4",
          "ticks": 7680,
          "time": 58.53656,
          "velocity": 0.6220472440944882
        },
        {
          "duration": 0.243902333333331,
          "durationTicks": 32,
          "midi": 67,
          "name": "G4",
          "ticks": 7728,
          "time": 58.9024135,
          "velocity": 0.7480314960629921
        },
        {
          "duration": 0.243902333333331,
          "durationTicks": 32,
          "midi": 64,
          "name": "E4",
          "ticks": 7728,
          "time": 58.9024135,
          "velocity": 0.7480314960629921
        },
        {
          "duration": 0.243902333333331,
          "durationTicks": 32,
          "midi": 71,
          "name": "B4",
          "ticks": 7728,
          "time": 58.9024135,
          "velocity": 0.7480314960629921
        },
        {
          "duration": 0.243902333333331,
          "durationTicks": 32,
          "midi": 67,
          "name": "G4",
          "ticks": 7776,
          "time": 59.268267,
          "velocity": 0.6220472440944882
        },
        {
          "duration": 0.243902333333331,
          "durationTicks": 32,
          "midi": 64,
          "name": "E4",
          "ticks": 7776,
          "time": 59.268267,
          "velocity": 0.6220472440944882
        },
        {
          "duration": 0.243902333333331,
          "durationTicks": 32,
          "midi": 71,
          "name": "B4",
          "ticks": 7776,
          "time": 59.268267,
          "velocity": 0.6220472440944882
        },
        {
          "duration": 0.243902333333331,
          "durationTicks": 32,
          "midi": 67,
          "name": "G4",
          "ticks": 7824,
          "time": 59.6341205,
          "velocity": 0.7480314960629921
        },
        {
          "duration": 0.243902333333331,
          "durationTicks": 32,
          "midi": 64,
          "name": "E4",
          "ticks": 7824,
          "time": 59.6341205,
          "velocity": 0.7480314960629921
        },
        {
          "duration": 0.243902333333331,
          "durationTicks": 32,
          "midi": 71,
          "name": "B4",
          "ticks": 7824,
          "time": 59.6341205,
          "velocity": 0.7480314960629921
        },
        {
          "duration": 0.243902333333331,
          "durationTicks": 32,
          "midi": 67,
          "name": "G4",
          "ticks": 7872,
          "time": 59.999974,
          "velocity": 0.6220472440944882
        },
        {
          "duration": 0.243902333333331,
          "durationTicks": 32,
          "midi": 64,
          "name": "E4",
          "ticks": 7872,
          "time": 59.999974,
          "velocity": 0.6220472440944882
        },
        {
          "duration": 0.243902333333331,
          "durationTicks": 32,
          "midi": 71,
          "name": "B4",
          "ticks": 7872,
          "time": 59.999974,
          "velocity": 0.6220472440944882
        },
        {
          "duration": 0.243902333333331,
          "durationTicks": 32,
          "midi": 67,
          "name": "G4",
          "ticks": 7920,
          "time": 60.3658275,
          "velocity": 0.7480314960629921
        },
        {
          "duration": 0.243902333333331,
          "durationTicks": 32,
          "midi": 64,
          "name": "E4",
          "ticks": 7920,
          "time": 60.3658275,
          "velocity": 0.7480314960629921
        },
        {
          "duration": 0.243902333333331,
          "durationTicks": 32,
          "midi": 71,
          "name": "B4",
          "ticks": 7920,
          "time": 60.3658275,
          "velocity": 0.7480314960629921
        },
        {
          "duration": 0.243902333333331,
          "durationTicks": 32,
          "midi": 67,
          "name": "G4",
          "ticks": 7968,
          "time": 60.731681,
          "velocity": 0.6220472440944882
        },
        {
          "duration": 0.243902333333331,
          "durationTicks": 32,
          "midi": 64,
          "name": "E4",
          "ticks": 7968,
          "time": 60.731681,
          "velocity": 0.6220472440944882
        },
        {
          "duration": 0.243902333333331,
          "durationTicks": 32,
          "midi": 71,
          "name": "B4",
          "ticks": 7968,
          "time": 60.731681,
          "velocity": 0.6220472440944882
        },
        {
          "duration": 0.243902333333331,
          "durationTicks": 32,
          "midi": 67,
          "name": "G4",
          "ticks": 8016,
          "time": 61.0975345,
          "velocity": 0.7480314960629921
        },
        {
          "duration": 0.243902333333331,
          "durationTicks": 32,
          "midi": 64,
          "name": "E4",
          "ticks": 8016,
          "time": 61.0975345,
          "velocity": 0.7480314960629921
        },
        {
          "duration": 0.243902333333331,
          "durationTicks": 32,
          "midi": 71,
          "name": "B4",
          "ticks": 8016,
          "time": 61.0975345,
          "velocity": 0.7480314960629921
        },
        {
          "duration": 0.243902333333331,
          "durationTicks": 32,
          "midi": 67,
          "name": "G4",
          "ticks": 8064,
          "time": 61.463388,
          "velocity": 0.6220472440944882
        },
        {
          "duration": 0.243902333333331,
          "durationTicks": 32,
          "midi": 64,
          "name": "E4",
          "ticks": 8064,
          "time": 61.463388,
          "velocity": 0.6220472440944882
        },
        {
          "duration": 0.243902333333331,
          "durationTicks": 32,
          "midi": 60,
          "name": "C4",
          "ticks": 8064,
          "time": 61.463388,
          "velocity": 0.6220472440944882
        },
        {
          "duration": 0.243902333333331,
          "durationTicks": 32,
          "midi": 64,
          "name": "E4",
          "ticks": 8112,
          "time": 61.8292415,
          "velocity": 0.7480314960629921
        },
        {
          "duration": 0.243902333333331,
          "durationTicks": 32,
          "midi": 60,
          "name": "C4",
          "ticks": 8112,
          "time": 61.8292415,
          "velocity": 0.7480314960629921
        },
        {
          "duration": 0.243902333333331,
          "durationTicks": 32,
          "midi": 67,
          "name": "G4",
          "ticks": 8112,
          "time": 61.8292415,
          "velocity": 0.7480314960629921
        },
        {
          "duration": 0.243902333333331,
          "durationTicks": 32,
          "midi": 64,
          "name": "E4",
          "ticks": 8160,
          "time": 62.195095,
          "velocity": 0.6220472440944882
        },
        {
          "duration": 0.243902333333331,
          "durationTicks": 32,
          "midi": 60,
          "name": "C4",
          "ticks": 8160,
          "time": 62.195095,
          "velocity": 0.6220472440944882
        },
        {
          "duration": 0.243902333333331,
          "durationTicks": 32,
          "midi": 67,
          "name": "G4",
          "ticks": 8160,
          "time": 62.195095,
          "velocity": 0.6220472440944882
        },
        {
          "duration": 0.243902333333331,
          "durationTicks": 32,
          "midi": 64,
          "name": "E4",
          "ticks": 8208,
          "time": 62.5609485,
          "velocity": 0.7480314960629921
        },
        {
          "duration": 0.243902333333331,
          "durationTicks": 32,
          "midi": 60,
          "name": "C4",
          "ticks": 8208,
          "time": 62.5609485,
          "velocity": 0.7480314960629921
        },
        {
          "duration": 0.243902333333331,
          "durationTicks": 32,
          "midi": 67,
          "name": "G4",
          "ticks": 8208,
          "time": 62.5609485,
          "velocity": 0.7480314960629921
        },
        {
          "duration": 0.2439023333333239,
          "durationTicks": 32,
          "midi": 69,
          "name": "A4",
          "ticks": 8256,
          "time": 62.926802,
          "velocity": 0.6220472440944882
        },
        {
          "duration": 0.2439023333333239,
          "durationTicks": 32,
          "midi": 65,
          "name": "F4",
          "ticks": 8256,
          "time": 62.926802,
          "velocity": 0.6220472440944882
        },
        {
          "duration": 0.2439023333333239,
          "durationTicks": 32,
          "midi": 72,
          "name": "C5",
          "ticks": 8256,
          "time": 62.926802,
          "velocity": 0.6220472440944882
        },
        {
          "duration": 0.2439023333333239,
          "durationTicks": 32,
          "midi": 69,
          "name": "A4",
          "ticks": 8304,
          "time": 63.2926555,
          "velocity": 0.7480314960629921
        },
        {
          "duration": 0.2439023333333239,
          "durationTicks": 32,
          "midi": 65,
          "name": "F4",
          "ticks": 8304,
          "time": 63.2926555,
          "velocity": 0.7480314960629921
        },
        {
          "duration": 0.2439023333333239,
          "durationTicks": 32,
          "midi": 72,
          "name": "C5",
          "ticks": 8304,
          "time": 63.2926555,
          "velocity": 0.7480314960629921
        },
        {
          "duration": 0.2439023333333239,
          "durationTicks": 32,
          "midi": 69,
          "name": "A4",
          "ticks": 8352,
          "time": 63.658509,
          "velocity": 0.6220472440944882
        },
        {
          "duration": 0.2439023333333239,
          "durationTicks": 32,
          "midi": 65,
          "name": "F4",
          "ticks": 8352,
          "time": 63.658509,
          "velocity": 0.6220472440944882
        },
        {
          "duration": 0.2439023333333239,
          "durationTicks": 32,
          "midi": 72,
          "name": "C5",
          "ticks": 8352,
          "time": 63.658509,
          "velocity": 0.6220472440944882
        },
        {
          "duration": 0.2439023333333381,
          "durationTicks": 32,
          "midi": 69,
          "name": "A4",
          "ticks": 8400,
          "time": 64.0243625,
          "velocity": 0.7480314960629921
        },
        {
          "duration": 0.2439023333333381,
          "durationTicks": 32,
          "midi": 65,
          "name": "F4",
          "ticks": 8400,
          "time": 64.0243625,
          "velocity": 0.7480314960629921
        },
        {
          "duration": 0.2439023333333381,
          "durationTicks": 32,
          "midi": 72,
          "name": "C5",
          "ticks": 8400,
          "time": 64.0243625,
          "velocity": 0.7480314960629921
        },
        {
          "duration": 0.2439023333333381,
          "durationTicks": 32,
          "midi": 67,
          "name": "G4",
          "ticks": 8448,
          "time": 64.390216,
          "velocity": 0.6220472440944882
        },
        {
          "duration": 0.2439023333333381,
          "durationTicks": 32,
          "midi": 64,
          "name": "E4",
          "ticks": 8448,
          "time": 64.390216,
          "velocity": 0.6220472440944882
        },
        {
          "duration": 0.2439023333333381,
          "durationTicks": 32,
          "midi": 71,
          "name": "B4",
          "ticks": 8448,
          "time": 64.390216,
          "velocity": 0.6220472440944882
        },
        {
          "duration": 0.2439023333333381,
          "durationTicks": 32,
          "midi": 67,
          "name": "G4",
          "ticks": 8496,
          "time": 64.7560695,
          "velocity": 0.7480314960629921
        },
        {
          "duration": 0.2439023333333381,
          "durationTicks": 32,
          "midi": 64,
          "name": "E4",
          "ticks": 8496,
          "time": 64.7560695,
          "velocity": 0.7480314960629921
        },
        {
          "duration": 0.2439023333333381,
          "durationTicks": 32,
          "midi": 71,
          "name": "B4",
          "ticks": 8496,
          "time": 64.7560695,
          "velocity": 0.7480314960629921
        },
        {
          "duration": 0.2439023333333381,
          "durationTicks": 32,
          "midi": 67,
          "name": "G4",
          "ticks": 8544,
          "time": 65.121923,
          "velocity": 0.6220472440944882
        },
        {
          "duration": 0.2439023333333381,
          "durationTicks": 32,
          "midi": 64,
          "name": "E4",
          "ticks": 8544,
          "time": 65.121923,
          "velocity": 0.6220472440944882
        },
        {
          "duration": 0.2439023333333381,
          "durationTicks": 32,
          "midi": 71,
          "name": "B4",
          "ticks": 8544,
          "time": 65.121923,
          "velocity": 0.6220472440944882
        },
        {
          "duration": 0.2439023333333381,
          "durationTicks": 32,
          "midi": 67,
          "name": "G4",
          "ticks": 8592,
          "time": 65.4877765,
          "velocity": 0.7480314960629921
        },
        {
          "duration": 0.2439023333333381,
          "durationTicks": 32,
          "midi": 64,
          "name": "E4",
          "ticks": 8592,
          "time": 65.4877765,
          "velocity": 0.7480314960629921
        },
        {
          "duration": 0.2439023333333381,
          "durationTicks": 32,
          "midi": 71,
          "name": "B4",
          "ticks": 8592,
          "time": 65.4877765,
          "velocity": 0.7480314960629921
        },
        {
          "duration": 0.2439023333333381,
          "durationTicks": 32,
          "midi": 67,
          "name": "G4",
          "ticks": 8640,
          "time": 65.85363,
          "velocity": 0.6220472440944882
        },
        {
          "duration": 0.2439023333333381,
          "durationTicks": 32,
          "midi": 64,
          "name": "E4",
          "ticks": 8640,
          "time": 65.85363,
          "velocity": 0.6220472440944882
        },
        {
          "duration": 0.2439023333333381,
          "durationTicks": 32,
          "midi": 71,
          "name": "B4",
          "ticks": 8640,
          "time": 65.85363,
          "velocity": 0.6220472440944882
        },
        {
          "duration": 0.2439023333333381,
          "durationTicks": 32,
          "midi": 67,
          "name": "G4",
          "ticks": 8688,
          "time": 66.2194835,
          "velocity": 0.7480314960629921
        },
        {
          "duration": 0.2439023333333381,
          "durationTicks": 32,
          "midi": 64,
          "name": "E4",
          "ticks": 8688,
          "time": 66.2194835,
          "velocity": 0.7480314960629921
        },
        {
          "duration": 0.2439023333333381,
          "durationTicks": 32,
          "midi": 71,
          "name": "B4",
          "ticks": 8688,
          "time": 66.2194835,
          "velocity": 0.7480314960629921
        },
        {
          "duration": 0.2439023333333381,
          "durationTicks": 32,
          "midi": 67,
          "name": "G4",
          "ticks": 8736,
          "time": 66.585337,
          "velocity": 0.6220472440944882
        },
        {
          "duration": 0.2439023333333381,
          "durationTicks": 32,
          "midi": 64,
          "name": "E4",
          "ticks": 8736,
          "time": 66.585337,
          "velocity": 0.6220472440944882
        },
        {
          "duration": 0.2439023333333381,
          "durationTicks": 32,
          "midi": 71,
          "name": "B4",
          "ticks": 8736,
          "time": 66.585337,
          "velocity": 0.6220472440944882
        },
        {
          "duration": 0.2439023333333381,
          "durationTicks": 32,
          "midi": 67,
          "name": "G4",
          "ticks": 8784,
          "time": 66.9511905,
          "velocity": 0.7480314960629921
        },
        {
          "duration": 0.2439023333333381,
          "durationTicks": 32,
          "midi": 64,
          "name": "E4",
          "ticks": 8784,
          "time": 66.9511905,
          "velocity": 0.7480314960629921
        },
        {
          "duration": 0.2439023333333381,
          "durationTicks": 32,
          "midi": 71,
          "name": "B4",
          "ticks": 8784,
          "time": 66.9511905,
          "velocity": 0.7480314960629921
        },
        {
          "duration": 0.2439023333333381,
          "durationTicks": 32,
          "midi": 67,
          "name": "G4",
          "ticks": 8832,
          "time": 67.317044,
          "velocity": 0.6220472440944882
        },
        {
          "duration": 0.2439023333333381,
          "durationTicks": 32,
          "midi": 64,
          "name": "E4",
          "ticks": 8832,
          "time": 67.317044,
          "velocity": 0.6220472440944882
        },
        {
          "duration": 0.2439023333333381,
          "durationTicks": 32,
          "midi": 60,
          "name": "C4",
          "ticks": 8832,
          "time": 67.317044,
          "velocity": 0.6220472440944882
        },
        {
          "duration": 0.2439023333333381,
          "durationTicks": 32,
          "midi": 64,
          "name": "E4",
          "ticks": 8880,
          "time": 67.6828975,
          "velocity": 0.7480314960629921
        },
        {
          "duration": 0.2439023333333381,
          "durationTicks": 32,
          "midi": 60,
          "name": "C4",
          "ticks": 8880,
          "time": 67.6828975,
          "velocity": 0.7480314960629921
        },
        {
          "duration": 0.2439023333333381,
          "durationTicks": 32,
          "midi": 67,
          "name": "G4",
          "ticks": 8880,
          "time": 67.6828975,
          "velocity": 0.7480314960629921
        },
        {
          "duration": 0.2439023333333381,
          "durationTicks": 32,
          "midi": 64,
          "name": "E4",
          "ticks": 8928,
          "time": 68.048751,
          "velocity": 0.6220472440944882
        },
        {
          "duration": 0.2439023333333381,
          "durationTicks": 32,
          "midi": 60,
          "name": "C4",
          "ticks": 8928,
          "time": 68.048751,
          "velocity": 0.6220472440944882
        },
        {
          "duration": 0.2439023333333381,
          "durationTicks": 32,
          "midi": 67,
          "name": "G4",
          "ticks": 8928,
          "time": 68.048751,
          "velocity": 0.6220472440944882
        },
        {
          "duration": 0.2439023333333381,
          "durationTicks": 32,
          "midi": 64,
          "name": "E4",
          "ticks": 8976,
          "time": 68.4146045,
          "velocity": 0.7480314960629921
        },
        {
          "duration": 0.2439023333333381,
          "durationTicks": 32,
          "midi": 60,
          "name": "C4",
          "ticks": 8976,
          "time": 68.4146045,
          "velocity": 0.7480314960629921
        },
        {
          "duration": 0.2439023333333381,
          "durationTicks": 32,
          "midi": 67,
          "name": "G4",
          "ticks": 8976,
          "time": 68.4146045,
          "velocity": 0.7480314960629921
        },
        {
          "duration": 0.2439023333333381,
          "durationTicks": 32,
          "midi": 67,
          "name": "G4",
          "ticks": 9024,
          "time": 68.780458,
          "velocity": 0.6220472440944882
        },
        {
          "duration": 0.2439023333333381,
          "durationTicks": 32,
          "midi": 64,
          "name": "E4",
          "ticks": 9024,
          "time": 68.780458,
          "velocity": 0.6220472440944882
        },
        {
          "duration": 0.2439023333333381,
          "durationTicks": 32,
          "midi": 60,
          "name": "C4",
          "ticks": 9024,
          "time": 68.780458,
          "velocity": 0.6220472440944882
        },
        {
          "duration": 0.2439023333333381,
          "durationTicks": 32,
          "midi": 64,
          "name": "E4",
          "ticks": 9072,
          "time": 69.1463115,
          "velocity": 0.7480314960629921
        },
        {
          "duration": 0.2439023333333381,
          "durationTicks": 32,
          "midi": 60,
          "name": "C4",
          "ticks": 9072,
          "time": 69.1463115,
          "velocity": 0.7480314960629921
        },
        {
          "duration": 0.2439023333333381,
          "durationTicks": 32,
          "midi": 67,
          "name": "G4",
          "ticks": 9072,
          "time": 69.1463115,
          "velocity": 0.7480314960629921
        },
        {
          "duration": 0.2439023333333381,
          "durationTicks": 32,
          "midi": 64,
          "name": "E4",
          "ticks": 9120,
          "time": 69.512165,
          "velocity": 0.6220472440944882
        },
        {
          "duration": 0.2439023333333381,
          "durationTicks": 32,
          "midi": 60,
          "name": "C4",
          "ticks": 9120,
          "time": 69.512165,
          "velocity": 0.6220472440944882
        },
        {
          "duration": 0.2439023333333381,
          "durationTicks": 32,
          "midi": 67,
          "name": "G4",
          "ticks": 9120,
          "time": 69.512165,
          "velocity": 0.6220472440944882
        },
        {
          "duration": 0.2439023333333381,
          "durationTicks": 32,
          "midi": 64,
          "name": "E4",
          "ticks": 9168,
          "time": 69.8780185,
          "velocity": 0.7480314960629921
        },
        {
          "duration": 0.2439023333333381,
          "durationTicks": 32,
          "midi": 60,
          "name": "C4",
          "ticks": 9168,
          "time": 69.8780185,
          "velocity": 0.7480314960629921
        },
        {
          "duration": 0.2439023333333381,
          "durationTicks": 32,
          "midi": 67,
          "name": "G4",
          "ticks": 9168,
          "time": 69.8780185,
          "velocity": 0.7480314960629921
        },
        {
          "duration": 0.2439023333333381,
          "durationTicks": 32,
          "midi": 71,
          "name": "B4",
          "ticks": 9216,
          "time": 70.243872,
          "velocity": 0.6220472440944882
        },
        {
          "duration": 0.2439023333333381,
          "durationTicks": 32,
          "midi": 67,
          "name": "G4",
          "ticks": 9216,
          "time": 70.243872,
          "velocity": 0.6220472440944882
        },
        {
          "duration": 0.2439023333333381,
          "durationTicks": 32,
          "midi": 74,
          "name": "D5",
          "ticks": 9216,
          "time": 70.243872,
          "velocity": 0.6220472440944882
        },
        {
          "duration": 0.2439023333333381,
          "durationTicks": 32,
          "midi": 71,
          "name": "B4",
          "ticks": 9264,
          "time": 70.6097255,
          "velocity": 0.7480314960629921
        },
        {
          "duration": 0.2439023333333381,
          "durationTicks": 32,
          "midi": 67,
          "name": "G4",
          "ticks": 9264,
          "time": 70.6097255,
          "velocity": 0.7480314960629921
        },
        {
          "duration": 0.2439023333333381,
          "durationTicks": 32,
          "midi": 74,
          "name": "D5",
          "ticks": 9264,
          "time": 70.6097255,
          "velocity": 0.7480314960629921
        },
        {
          "duration": 0.2439023333333381,
          "durationTicks": 32,
          "midi": 71,
          "name": "B4",
          "ticks": 9312,
          "time": 70.975579,
          "velocity": 0.6220472440944882
        },
        {
          "duration": 0.2439023333333381,
          "durationTicks": 32,
          "midi": 67,
          "name": "G4",
          "ticks": 9312,
          "time": 70.975579,
          "velocity": 0.6220472440944882
        },
        {
          "duration": 0.2439023333333381,
          "durationTicks": 32,
          "midi": 74,
          "name": "D5",
          "ticks": 9312,
          "time": 70.975579,
          "velocity": 0.6220472440944882
        },
        {
          "duration": 0.2439023333333381,
          "durationTicks": 32,
          "midi": 71,
          "name": "B4",
          "ticks": 9360,
          "time": 71.3414325,
          "velocity": 0.7480314960629921
        },
        {
          "duration": 0.2439023333333381,
          "durationTicks": 32,
          "midi": 67,
          "name": "G4",
          "ticks": 9360,
          "time": 71.3414325,
          "velocity": 0.7480314960629921
        },
        {
          "duration": 0.2439023333333381,
          "durationTicks": 32,
          "midi": 74,
          "name": "D5",
          "ticks": 9360,
          "time": 71.3414325,
          "velocity": 0.7480314960629921
        },
        {
          "duration": 0.2439023333333381,
          "durationTicks": 32,
          "midi": 71,
          "name": "B4",
          "ticks": 9408,
          "time": 71.707286,
          "velocity": 0.6220472440944882
        },
        {
          "duration": 0.2439023333333381,
          "durationTicks": 32,
          "midi": 66,
          "name": "F#4",
          "ticks": 9408,
          "time": 71.707286,
          "velocity": 0.6220472440944882
        },
        {
          "duration": 0.2439023333333381,
          "durationTicks": 32,
          "midi": 74,
          "name": "D5",
          "ticks": 9408,
          "time": 71.707286,
          "velocity": 0.6220472440944882
        },
        {
          "duration": 0.2439023333333381,
          "durationTicks": 32,
          "midi": 71,
          "name": "B4",
          "ticks": 9456,
          "time": 72.0731395,
          "velocity": 0.7480314960629921
        },
        {
          "duration": 0.2439023333333381,
          "durationTicks": 32,
          "midi": 66,
          "name": "F#4",
          "ticks": 9456,
          "time": 72.0731395,
          "velocity": 0.7480314960629921
        },
        {
          "duration": 0.2439023333333381,
          "durationTicks": 32,
          "midi": 74,
          "name": "D5",
          "ticks": 9456,
          "time": 72.0731395,
          "velocity": 0.7480314960629921
        },
        {
          "duration": 0.2439023333333381,
          "durationTicks": 32,
          "midi": 71,
          "name": "B4",
          "ticks": 9504,
          "time": 72.438993,
          "velocity": 0.6220472440944882
        },
        {
          "duration": 0.2439023333333381,
          "durationTicks": 32,
          "midi": 66,
          "name": "F#4",
          "ticks": 9504,
          "time": 72.438993,
          "velocity": 0.6220472440944882
        },
        {
          "duration": 0.2439023333333381,
          "durationTicks": 32,
          "midi": 74,
          "name": "D5",
          "ticks": 9504,
          "time": 72.438993,
          "velocity": 0.6220472440944882
        },
        {
          "duration": 0.2439023333333381,
          "durationTicks": 32,
          "midi": 71,
          "name": "B4",
          "ticks": 9552,
          "time": 72.8048465,
          "velocity": 0.7480314960629921
        },
        {
          "duration": 0.2439023333333381,
          "durationTicks": 32,
          "midi": 66,
          "name": "F#4",
          "ticks": 9552,
          "time": 72.8048465,
          "velocity": 0.7480314960629921
        },
        {
          "duration": 0.2439023333333381,
          "durationTicks": 32,
          "midi": 74,
          "name": "D5",
          "ticks": 9552,
          "time": 72.8048465,
          "velocity": 0.7480314960629921
        },
        {
          "duration": 0.2439023333333381,
          "durationTicks": 32,
          "midi": 67,
          "name": "G4",
          "ticks": 9600,
          "time": 73.1707,
          "velocity": 0.6220472440944882
        },
        {
          "duration": 0.2439023333333381,
          "durationTicks": 32,
          "midi": 64,
          "name": "E4",
          "ticks": 9600,
          "time": 73.1707,
          "velocity": 0.6220472440944882
        },
        {
          "duration": 0.2439023333333381,
          "durationTicks": 32,
          "midi": 71,
          "name": "B4",
          "ticks": 9600,
          "time": 73.1707,
          "velocity": 0.6220472440944882
        },
        {
          "duration": 0.2439023333333381,
          "durationTicks": 32,
          "midi": 67,
          "name": "G4",
          "ticks": 9648,
          "time": 73.5365535,
          "velocity": 0.7480314960629921
        },
        {
          "duration": 0.2439023333333381,
          "durationTicks": 32,
          "midi": 64,
          "name": "E4",
          "ticks": 9648,
          "time": 73.5365535,
          "velocity": 0.7480314960629921
        },
        {
          "duration": 0.2439023333333381,
          "durationTicks": 32,
          "midi": 71,
          "name": "B4",
          "ticks": 9648,
          "time": 73.5365535,
          "velocity": 0.7480314960629921
        },
        {
          "duration": 0.2439023333333381,
          "durationTicks": 32,
          "midi": 67,
          "name": "G4",
          "ticks": 9696,
          "time": 73.902407,
          "velocity": 0.6220472440944882
        },
        {
          "duration": 0.2439023333333381,
          "durationTicks": 32,
          "midi": 64,
          "name": "E4",
          "ticks": 9696,
          "time": 73.902407,
          "velocity": 0.6220472440944882
        },
        {
          "duration": 0.2439023333333381,
          "durationTicks": 32,
          "midi": 71,
          "name": "B4",
          "ticks": 9696,
          "time": 73.902407,
          "velocity": 0.6220472440944882
        },
        {
          "duration": 0.2439023333333381,
          "durationTicks": 32,
          "midi": 67,
          "name": "G4",
          "ticks": 9744,
          "time": 74.2682605,
          "velocity": 0.7480314960629921
        },
        {
          "duration": 0.2439023333333381,
          "durationTicks": 32,
          "midi": 64,
          "name": "E4",
          "ticks": 9744,
          "time": 74.2682605,
          "velocity": 0.7480314960629921
        },
        {
          "duration": 0.2439023333333381,
          "durationTicks": 32,
          "midi": 71,
          "name": "B4",
          "ticks": 9744,
          "time": 74.2682605,
          "velocity": 0.7480314960629921
        },
        {
          "duration": 0.2439023333333381,
          "durationTicks": 32,
          "midi": 67,
          "name": "G4",
          "ticks": 9792,
          "time": 74.634114,
          "velocity": 0.6220472440944882
        },
        {
          "duration": 0.2439023333333381,
          "durationTicks": 32,
          "midi": 64,
          "name": "E4",
          "ticks": 9792,
          "time": 74.634114,
          "velocity": 0.6220472440944882
        },
        {
          "duration": 0.2439023333333381,
          "durationTicks": 32,
          "midi": 71,
          "name": "B4",
          "ticks": 9792,
          "time": 74.634114,
          "velocity": 0.6220472440944882
        },
        {
          "duration": 0.2439023333333381,
          "durationTicks": 32,
          "midi": 67,
          "name": "G4",
          "ticks": 9840,
          "time": 74.9999675,
          "velocity": 0.7480314960629921
        },
        {
          "duration": 0.2439023333333381,
          "durationTicks": 32,
          "midi": 64,
          "name": "E4",
          "ticks": 9840,
          "time": 74.9999675,
          "velocity": 0.7480314960629921
        },
        {
          "duration": 0.2439023333333381,
          "durationTicks": 32,
          "midi": 71,
          "name": "B4",
          "ticks": 9840,
          "time": 74.9999675,
          "velocity": 0.7480314960629921
        },
        {
          "duration": 0.2439023333333381,
          "durationTicks": 32,
          "midi": 67,
          "name": "G4",
          "ticks": 9888,
          "time": 75.365821,
          "velocity": 0.6220472440944882
        },
        {
          "duration": 0.2439023333333381,
          "durationTicks": 32,
          "midi": 64,
          "name": "E4",
          "ticks": 9888,
          "time": 75.365821,
          "velocity": 0.6220472440944882
        },
        {
          "duration": 0.2439023333333381,
          "durationTicks": 32,
          "midi": 71,
          "name": "B4",
          "ticks": 9888,
          "time": 75.365821,
          "velocity": 0.6220472440944882
        },
        {
          "duration": 0.2439023333333381,
          "durationTicks": 32,
          "midi": 67,
          "name": "G4",
          "ticks": 9936,
          "time": 75.7316745,
          "velocity": 0.7480314960629921
        },
        {
          "duration": 0.2439023333333381,
          "durationTicks": 32,
          "midi": 64,
          "name": "E4",
          "ticks": 9936,
          "time": 75.7316745,
          "velocity": 0.7480314960629921
        },
        {
          "duration": 0.2439023333333381,
          "durationTicks": 32,
          "midi": 71,
          "name": "B4",
          "ticks": 9936,
          "time": 75.7316745,
          "velocity": 0.7480314960629921
        },
        {
          "duration": 0.2439023333333381,
          "durationTicks": 32,
          "midi": 67,
          "name": "G4",
          "ticks": 9984,
          "time": 76.097528,
          "velocity": 0.6220472440944882
        },
        {
          "duration": 0.2439023333333381,
          "durationTicks": 32,
          "midi": 64,
          "name": "E4",
          "ticks": 9984,
          "time": 76.097528,
          "velocity": 0.6220472440944882
        },
        {
          "duration": 0.2439023333333381,
          "durationTicks": 32,
          "midi": 60,
          "name": "C4",
          "ticks": 9984,
          "time": 76.097528,
          "velocity": 0.6220472440944882
        },
        {
          "duration": 0.2439023333333381,
          "durationTicks": 32,
          "midi": 64,
          "name": "E4",
          "ticks": 10032,
          "time": 76.4633815,
          "velocity": 0.7480314960629921
        },
        {
          "duration": 0.2439023333333381,
          "durationTicks": 32,
          "midi": 60,
          "name": "C4",
          "ticks": 10032,
          "time": 76.4633815,
          "velocity": 0.7480314960629921
        },
        {
          "duration": 0.2439023333333381,
          "durationTicks": 32,
          "midi": 67,
          "name": "G4",
          "ticks": 10032,
          "time": 76.4633815,
          "velocity": 0.7480314960629921
        },
        {
          "duration": 0.2439023333333381,
          "durationTicks": 32,
          "midi": 64,
          "name": "E4",
          "ticks": 10080,
          "time": 76.829235,
          "velocity": 0.6220472440944882
        },
        {
          "duration": 0.2439023333333381,
          "durationTicks": 32,
          "midi": 60,
          "name": "C4",
          "ticks": 10080,
          "time": 76.829235,
          "velocity": 0.6220472440944882
        },
        {
          "duration": 0.2439023333333381,
          "durationTicks": 32,
          "midi": 67,
          "name": "G4",
          "ticks": 10080,
          "time": 76.829235,
          "velocity": 0.6220472440944882
        },
        {
          "duration": 0.2439023333333381,
          "durationTicks": 32,
          "midi": 64,
          "name": "E4",
          "ticks": 10128,
          "time": 77.1950885,
          "velocity": 0.7480314960629921
        },
        {
          "duration": 0.2439023333333381,
          "durationTicks": 32,
          "midi": 60,
          "name": "C4",
          "ticks": 10128,
          "time": 77.1950885,
          "velocity": 0.7480314960629921
        },
        {
          "duration": 0.2439023333333381,
          "durationTicks": 32,
          "midi": 67,
          "name": "G4",
          "ticks": 10128,
          "time": 77.1950885,
          "velocity": 0.7480314960629921
        },
        {
          "duration": 0.2439023333333381,
          "durationTicks": 32,
          "midi": 67,
          "name": "G4",
          "ticks": 10176,
          "time": 77.560942,
          "velocity": 0.6220472440944882
        },
        {
          "duration": 0.2439023333333381,
          "durationTicks": 32,
          "midi": 64,
          "name": "E4",
          "ticks": 10176,
          "time": 77.560942,
          "velocity": 0.6220472440944882
        },
        {
          "duration": 0.2439023333333381,
          "durationTicks": 32,
          "midi": 71,
          "name": "B4",
          "ticks": 10176,
          "time": 77.560942,
          "velocity": 0.6220472440944882
        },
        {
          "duration": 0.2439023333333381,
          "durationTicks": 32,
          "midi": 67,
          "name": "G4",
          "ticks": 10224,
          "time": 77.9267955,
          "velocity": 0.7480314960629921
        },
        {
          "duration": 0.2439023333333381,
          "durationTicks": 32,
          "midi": 64,
          "name": "E4",
          "ticks": 10224,
          "time": 77.9267955,
          "velocity": 0.7480314960629921
        },
        {
          "duration": 0.2439023333333381,
          "durationTicks": 32,
          "midi": 71,
          "name": "B4",
          "ticks": 10224,
          "time": 77.9267955,
          "velocity": 0.7480314960629921
        },
        {
          "duration": 0.2439023333333381,
          "durationTicks": 32,
          "midi": 67,
          "name": "G4",
          "ticks": 10272,
          "time": 78.292649,
          "velocity": 0.6220472440944882
        },
        {
          "duration": 0.2439023333333381,
          "durationTicks": 32,
          "midi": 64,
          "name": "E4",
          "ticks": 10272,
          "time": 78.292649,
          "velocity": 0.6220472440944882
        },
        {
          "duration": 0.2439023333333381,
          "durationTicks": 32,
          "midi": 71,
          "name": "B4",
          "ticks": 10272,
          "time": 78.292649,
          "velocity": 0.6220472440944882
        },
        {
          "duration": 0.2439023333333381,
          "durationTicks": 32,
          "midi": 67,
          "name": "G4",
          "ticks": 10320,
          "time": 78.6585025,
          "velocity": 0.7480314960629921
        },
        {
          "duration": 0.2439023333333381,
          "durationTicks": 32,
          "midi": 64,
          "name": "E4",
          "ticks": 10320,
          "time": 78.6585025,
          "velocity": 0.7480314960629921
        },
        {
          "duration": 0.2439023333333381,
          "durationTicks": 32,
          "midi": 71,
          "name": "B4",
          "ticks": 10320,
          "time": 78.6585025,
          "velocity": 0.7480314960629921
        },
        {
          "duration": 0.2439023333333381,
          "durationTicks": 32,
          "midi": 64,
          "name": "E4",
          "ticks": 10368,
          "time": 79.024356,
          "velocity": 0.6220472440944882
        },
        {
          "duration": 0.2439023333333381,
          "durationTicks": 32,
          "midi": 60,
          "name": "C4",
          "ticks": 10368,
          "time": 79.024356,
          "velocity": 0.6220472440944882
        },
        {
          "duration": 0.2439023333333381,
          "durationTicks": 32,
          "midi": 69,
          "name": "A4",
          "ticks": 10368,
          "time": 79.024356,
          "velocity": 0.6220472440944882
        },
        {
          "duration": 0.2439023333333381,
          "durationTicks": 32,
          "midi": 64,
          "name": "E4",
          "ticks": 10416,
          "time": 79.3902095,
          "velocity": 0.7480314960629921
        },
        {
          "duration": 0.2439023333333381,
          "durationTicks": 32,
          "midi": 60,
          "name": "C4",
          "ticks": 10416,
          "time": 79.3902095,
          "velocity": 0.7480314960629921
        },
        {
          "duration": 0.2439023333333381,
          "durationTicks": 32,
          "midi": 69,
          "name": "A4",
          "ticks": 10416,
          "time": 79.3902095,
          "velocity": 0.7480314960629921
        },
        {
          "duration": 0.2439023333333381,
          "durationTicks": 32,
          "midi": 64,
          "name": "E4",
          "ticks": 10464,
          "time": 79.756063,
          "velocity": 0.6220472440944882
        },
        {
          "duration": 0.2439023333333381,
          "durationTicks": 32,
          "midi": 60,
          "name": "C4",
          "ticks": 10464,
          "time": 79.756063,
          "velocity": 0.6220472440944882
        },
        {
          "duration": 0.2439023333333381,
          "durationTicks": 32,
          "midi": 69,
          "name": "A4",
          "ticks": 10464,
          "time": 79.756063,
          "velocity": 0.6220472440944882
        },
        {
          "duration": 0.2439023333333381,
          "durationTicks": 32,
          "midi": 64,
          "name": "E4",
          "ticks": 10512,
          "time": 80.1219165,
          "velocity": 0.7480314960629921
        },
        {
          "duration": 0.2439023333333381,
          "durationTicks": 32,
          "midi": 60,
          "name": "C4",
          "ticks": 10512,
          "time": 80.1219165,
          "velocity": 0.7480314960629921
        },
        {
          "duration": 0.2439023333333381,
          "durationTicks": 32,
          "midi": 69,
          "name": "A4",
          "ticks": 10512,
          "time": 80.1219165,
          "velocity": 0.7480314960629921
        },
        {
          "duration": 0.2439023333333381,
          "durationTicks": 32,
          "midi": 64,
          "name": "E4",
          "ticks": 10560,
          "time": 80.48777,
          "velocity": 0.6220472440944882
        },
        {
          "duration": 0.2439023333333381,
          "durationTicks": 32,
          "midi": 60,
          "name": "C4",
          "ticks": 10560,
          "time": 80.48777,
          "velocity": 0.6220472440944882
        },
        {
          "duration": 0.2439023333333381,
          "durationTicks": 32,
          "midi": 67,
          "name": "G4",
          "ticks": 10560,
          "time": 80.48777,
          "velocity": 0.6220472440944882
        },
        {
          "duration": 0.2439023333333381,
          "durationTicks": 32,
          "midi": 71,
          "name": "B4",
          "ticks": 10560,
          "time": 80.48777,
          "velocity": 0.6220472440944882
        },
        {
          "duration": 0.2439023333333381,
          "durationTicks": 32,
          "midi": 64,
          "name": "E4",
          "ticks": 10608,
          "time": 80.8536235,
          "velocity": 0.7480314960629921
        },
        {
          "duration": 0.2439023333333381,
          "durationTicks": 32,
          "midi": 60,
          "name": "C4",
          "ticks": 10608,
          "time": 80.8536235,
          "velocity": 0.7480314960629921
        },
        {
          "duration": 0.2439023333333381,
          "durationTicks": 32,
          "midi": 69,
          "name": "A4",
          "ticks": 10608,
          "time": 80.8536235,
          "velocity": 0.7480314960629921
        },
        {
          "duration": 0.2439023333333381,
          "durationTicks": 32,
          "midi": 64,
          "name": "E4",
          "ticks": 10656,
          "time": 81.219477,
          "velocity": 0.6220472440944882
        },
        {
          "duration": 0.2439023333333381,
          "durationTicks": 32,
          "midi": 60,
          "name": "C4",
          "ticks": 10656,
          "time": 81.219477,
          "velocity": 0.6220472440944882
        },
        {
          "duration": 0.2439023333333381,
          "durationTicks": 32,
          "midi": 67,
          "name": "G4",
          "ticks": 10656,
          "time": 81.219477,
          "velocity": 0.6220472440944882
        },
        {
          "duration": 0.2439023333333381,
          "durationTicks": 32,
          "midi": 71,
          "name": "B4",
          "ticks": 10656,
          "time": 81.219477,
          "velocity": 0.6220472440944882
        },
        {
          "duration": 0.2439023333333381,
          "durationTicks": 32,
          "midi": 64,
          "name": "E4",
          "ticks": 10704,
          "time": 81.5853305,
          "velocity": 0.7480314960629921
        },
        {
          "duration": 0.2439023333333381,
          "durationTicks": 32,
          "midi": 60,
          "name": "C4",
          "ticks": 10704,
          "time": 81.5853305,
          "velocity": 0.7480314960629921
        },
        {
          "duration": 0.2439023333333381,
          "durationTicks": 32,
          "midi": 69,
          "name": "A4",
          "ticks": 10704,
          "time": 81.5853305,
          "velocity": 0.7480314960629921
        },
        {
          "duration": 0.2439023333333381,
          "durationTicks": 32,
          "midi": 67,
          "name": "G4",
          "ticks": 10800,
          "time": 82.3170375,
          "velocity": 0.7480314960629921
        },
        {
          "duration": 0.2439023333333381,
          "durationTicks": 32,
          "midi": 62,
          "name": "D4",
          "ticks": 10800,
          "time": 82.3170375,
          "velocity": 0.7480314960629921
        },
        {
          "duration": 0.2439023333333381,
          "durationTicks": 32,
          "midi": 71,
          "name": "B4",
          "ticks": 10800,
          "time": 82.3170375,
          "velocity": 0.7480314960629921
        },
        {
          "duration": 0.2439023333333381,
          "durationTicks": 32,
          "midi": 67,
          "name": "G4",
          "ticks": 10848,
          "time": 82.682891,
          "velocity": 0.6220472440944882
        },
        {
          "duration": 0.2439023333333381,
          "durationTicks": 32,
          "midi": 62,
          "name": "D4",
          "ticks": 10848,
          "time": 82.682891,
          "velocity": 0.6220472440944882
        },
        {
          "duration": 0.2439023333333381,
          "durationTicks": 32,
          "midi": 71,
          "name": "B4",
          "ticks": 10848,
          "time": 82.682891,
          "velocity": 0.6220472440944882
        },
        {
          "duration": 0.2439023333333381,
          "durationTicks": 32,
          "midi": 67,
          "name": "G4",
          "ticks": 10896,
          "time": 83.0487445,
          "velocity": 0.7480314960629921
        },
        {
          "duration": 0.2439023333333381,
          "durationTicks": 32,
          "midi": 62,
          "name": "D4",
          "ticks": 10896,
          "time": 83.0487445,
          "velocity": 0.7480314960629921
        },
        {
          "duration": 0.2439023333333381,
          "durationTicks": 32,
          "midi": 71,
          "name": "B4",
          "ticks": 10896,
          "time": 83.0487445,
          "velocity": 0.7480314960629921
        },
        {
          "duration": 0.2439023333333381,
          "durationTicks": 32,
          "midi": 66,
          "name": "F#4",
          "ticks": 10944,
          "time": 83.414598,
          "velocity": 0.6220472440944882
        },
        {
          "duration": 0.2439023333333381,
          "durationTicks": 32,
          "midi": 62,
          "name": "D4",
          "ticks": 10944,
          "time": 83.414598,
          "velocity": 0.6220472440944882
        },
        {
          "duration": 0.2439023333333381,
          "durationTicks": 32,
          "midi": 71,
          "name": "B4",
          "ticks": 10944,
          "time": 83.414598,
          "velocity": 0.6220472440944882
        },
        {
          "duration": 0.2439023333333381,
          "durationTicks": 32,
          "midi": 66,
          "name": "F#4",
          "ticks": 10992,
          "time": 83.7804515,
          "velocity": 0.7480314960629921
        },
        {
          "duration": 0.2439023333333381,
          "durationTicks": 32,
          "midi": 62,
          "name": "D4",
          "ticks": 10992,
          "time": 83.7804515,
          "velocity": 0.7480314960629921
        },
        {
          "duration": 0.2439023333333381,
          "durationTicks": 32,
          "midi": 71,
          "name": "B4",
          "ticks": 10992,
          "time": 83.7804515,
          "velocity": 0.7480314960629921
        },
        {
          "duration": 0.2439023333333381,
          "durationTicks": 32,
          "midi": 66,
          "name": "F#4",
          "ticks": 11040,
          "time": 84.146305,
          "velocity": 0.6220472440944882
        },
        {
          "duration": 0.2439023333333381,
          "durationTicks": 32,
          "midi": 62,
          "name": "D4",
          "ticks": 11040,
          "time": 84.146305,
          "velocity": 0.6220472440944882
        },
        {
          "duration": 0.2439023333333381,
          "durationTicks": 32,
          "midi": 71,
          "name": "B4",
          "ticks": 11040,
          "time": 84.146305,
          "velocity": 0.6220472440944882
        },
        {
          "duration": 0.2439023333333381,
          "durationTicks": 32,
          "midi": 66,
          "name": "F#4",
          "ticks": 11088,
          "time": 84.5121585,
          "velocity": 0.7480314960629921
        },
        {
          "duration": 0.2439023333333381,
          "durationTicks": 32,
          "midi": 62,
          "name": "D4",
          "ticks": 11088,
          "time": 84.5121585,
          "velocity": 0.7480314960629921
        },
        {
          "duration": 0.2439023333333381,
          "durationTicks": 32,
          "midi": 71,
          "name": "B4",
          "ticks": 11088,
          "time": 84.5121585,
          "velocity": 0.7480314960629921
        },
        {
          "duration": 0.2439023333333381,
          "durationTicks": 32,
          "midi": 67,
          "name": "G4",
          "ticks": 11136,
          "time": 84.878012,
          "velocity": 0.6220472440944882
        },
        {
          "duration": 0.2439023333333381,
          "durationTicks": 32,
          "midi": 64,
          "name": "E4",
          "ticks": 11136,
          "time": 84.878012,
          "velocity": 0.6220472440944882
        },
        {
          "duration": 0.2439023333333381,
          "durationTicks": 32,
          "midi": 71,
          "name": "B4",
          "ticks": 11136,
          "time": 84.878012,
          "velocity": 0.6220472440944882
        },
        {
          "duration": 0.2439023333333381,
          "durationTicks": 32,
          "midi": 67,
          "name": "G4",
          "ticks": 11184,
          "time": 85.2438655,
          "velocity": 0.7480314960629921
        },
        {
          "duration": 0.2439023333333381,
          "durationTicks": 32,
          "midi": 64,
          "name": "E4",
          "ticks": 11184,
          "time": 85.2438655,
          "velocity": 0.7480314960629921
        },
        {
          "duration": 0.2439023333333381,
          "durationTicks": 32,
          "midi": 71,
          "name": "B4",
          "ticks": 11184,
          "time": 85.2438655,
          "velocity": 0.7480314960629921
        },
        {
          "duration": 0.2439023333333381,
          "durationTicks": 32,
          "midi": 67,
          "name": "G4",
          "ticks": 11232,
          "time": 85.609719,
          "velocity": 0.6220472440944882
        },
        {
          "duration": 0.2439023333333381,
          "durationTicks": 32,
          "midi": 64,
          "name": "E4",
          "ticks": 11232,
          "time": 85.609719,
          "velocity": 0.6220472440944882
        },
        {
          "duration": 0.2439023333333381,
          "durationTicks": 32,
          "midi": 71,
          "name": "B4",
          "ticks": 11232,
          "time": 85.609719,
          "velocity": 0.6220472440944882
        },
        {
          "duration": 0.2439023333333381,
          "durationTicks": 32,
          "midi": 67,
          "name": "G4",
          "ticks": 11280,
          "time": 85.9755725,
          "velocity": 0.7480314960629921
        },
        {
          "duration": 0.2439023333333381,
          "durationTicks": 32,
          "midi": 64,
          "name": "E4",
          "ticks": 11280,
          "time": 85.9755725,
          "velocity": 0.7480314960629921
        },
        {
          "duration": 0.2439023333333381,
          "durationTicks": 32,
          "midi": 71,
          "name": "B4",
          "ticks": 11280,
          "time": 85.9755725,
          "velocity": 0.7480314960629921
        },
        {
          "duration": 0.2439023333333239,
          "durationTicks": 32,
          "midi": 67,
          "name": "G4",
          "ticks": 11328,
          "time": 86.341426,
          "velocity": 0.6220472440944882
        },
        {
          "duration": 0.2439023333333239,
          "durationTicks": 32,
          "midi": 64,
          "name": "E4",
          "ticks": 11328,
          "time": 86.341426,
          "velocity": 0.6220472440944882
        },
        {
          "duration": 0.2439023333333239,
          "durationTicks": 32,
          "midi": 71,
          "name": "B4",
          "ticks": 11328,
          "time": 86.341426,
          "velocity": 0.6220472440944882
        },
        {
          "duration": 0.2439023333333239,
          "durationTicks": 32,
          "midi": 67,
          "name": "G4",
          "ticks": 11376,
          "time": 86.7072795,
          "velocity": 0.7480314960629921
        },
        {
          "duration": 0.2439023333333239,
          "durationTicks": 32,
          "midi": 64,
          "name": "E4",
          "ticks": 11376,
          "time": 86.7072795,
          "velocity": 0.7480314960629921
        },
        {
          "duration": 0.2439023333333239,
          "durationTicks": 32,
          "midi": 71,
          "name": "B4",
          "ticks": 11376,
          "time": 86.7072795,
          "velocity": 0.7480314960629921
        },
        {
          "duration": 0.2439023333333239,
          "durationTicks": 32,
          "midi": 67,
          "name": "G4",
          "ticks": 11424,
          "time": 87.073133,
          "velocity": 0.6220472440944882
        },
        {
          "duration": 0.2439023333333239,
          "durationTicks": 32,
          "midi": 64,
          "name": "E4",
          "ticks": 11424,
          "time": 87.073133,
          "velocity": 0.6220472440944882
        },
        {
          "duration": 0.2439023333333239,
          "durationTicks": 32,
          "midi": 71,
          "name": "B4",
          "ticks": 11424,
          "time": 87.073133,
          "velocity": 0.6220472440944882
        },
        {
          "duration": 0.2439023333333239,
          "durationTicks": 32,
          "midi": 67,
          "name": "G4",
          "ticks": 11472,
          "time": 87.4389865,
          "velocity": 0.7480314960629921
        },
        {
          "duration": 0.2439023333333239,
          "durationTicks": 32,
          "midi": 64,
          "name": "E4",
          "ticks": 11472,
          "time": 87.4389865,
          "velocity": 0.7480314960629921
        },
        {
          "duration": 0.2439023333333239,
          "durationTicks": 32,
          "midi": 71,
          "name": "B4",
          "ticks": 11472,
          "time": 87.4389865,
          "velocity": 0.7480314960629921
        },
        {
          "duration": 0.2439023333333239,
          "durationTicks": 32,
          "midi": 67,
          "name": "G4",
          "ticks": 11520,
          "time": 87.80484,
          "velocity": 0.6220472440944882
        },
        {
          "duration": 0.2439023333333239,
          "durationTicks": 32,
          "midi": 64,
          "name": "E4",
          "ticks": 11520,
          "time": 87.80484,
          "velocity": 0.6220472440944882
        },
        {
          "duration": 0.2439023333333239,
          "durationTicks": 32,
          "midi": 60,
          "name": "C4",
          "ticks": 11520,
          "time": 87.80484,
          "velocity": 0.6220472440944882
        },
        {
          "duration": 0.2439023333333239,
          "durationTicks": 32,
          "midi": 64,
          "name": "E4",
          "ticks": 11568,
          "time": 88.1706935,
          "velocity": 0.7480314960629921
        },
        {
          "duration": 0.2439023333333239,
          "durationTicks": 32,
          "midi": 60,
          "name": "C4",
          "ticks": 11568,
          "time": 88.1706935,
          "velocity": 0.7480314960629921
        },
        {
          "duration": 0.2439023333333239,
          "durationTicks": 32,
          "midi": 67,
          "name": "G4",
          "ticks": 11568,
          "time": 88.1706935,
          "velocity": 0.7480314960629921
        },
        {
          "duration": 0.2439023333333239,
          "durationTicks": 32,
          "midi": 64,
          "name": "E4",
          "ticks": 11616,
          "time": 88.536547,
          "velocity": 0.6220472440944882
        },
        {
          "duration": 0.2439023333333239,
          "durationTicks": 32,
          "midi": 60,
          "name": "C4",
          "ticks": 11616,
          "time": 88.536547,
          "velocity": 0.6220472440944882
        },
        {
          "duration": 0.2439023333333239,
          "durationTicks": 32,
          "midi": 67,
          "name": "G4",
          "ticks": 11616,
          "time": 88.536547,
          "velocity": 0.6220472440944882
        },
        {
          "duration": 0.2439023333333239,
          "durationTicks": 32,
          "midi": 64,
          "name": "E4",
          "ticks": 11664,
          "time": 88.9024005,
          "velocity": 0.7480314960629921
        },
        {
          "duration": 0.2439023333333239,
          "durationTicks": 32,
          "midi": 60,
          "name": "C4",
          "ticks": 11664,
          "time": 88.9024005,
          "velocity": 0.7480314960629921
        },
        {
          "duration": 0.2439023333333239,
          "durationTicks": 32,
          "midi": 67,
          "name": "G4",
          "ticks": 11664,
          "time": 88.9024005,
          "velocity": 0.7480314960629921
        },
        {
          "duration": 0.2439023333333239,
          "durationTicks": 32,
          "midi": 69,
          "name": "A4",
          "ticks": 11712,
          "time": 89.268254,
          "velocity": 0.6220472440944882
        },
        {
          "duration": 0.2439023333333239,
          "durationTicks": 32,
          "midi": 65,
          "name": "F4",
          "ticks": 11712,
          "time": 89.268254,
          "velocity": 0.6220472440944882
        },
        {
          "duration": 0.2439023333333239,
          "durationTicks": 32,
          "midi": 72,
          "name": "C5",
          "ticks": 11712,
          "time": 89.268254,
          "velocity": 0.6220472440944882
        },
        {
          "duration": 0.2439023333333239,
          "durationTicks": 32,
          "midi": 69,
          "name": "A4",
          "ticks": 11760,
          "time": 89.6341075,
          "velocity": 0.7480314960629921
        },
        {
          "duration": 0.2439023333333239,
          "durationTicks": 32,
          "midi": 65,
          "name": "F4",
          "ticks": 11760,
          "time": 89.6341075,
          "velocity": 0.7480314960629921
        },
        {
          "duration": 0.2439023333333239,
          "durationTicks": 32,
          "midi": 72,
          "name": "C5",
          "ticks": 11760,
          "time": 89.6341075,
          "velocity": 0.7480314960629921
        },
        {
          "duration": 0.2439023333333239,
          "durationTicks": 32,
          "midi": 69,
          "name": "A4",
          "ticks": 11808,
          "time": 89.999961,
          "velocity": 0.6220472440944882
        },
        {
          "duration": 0.2439023333333239,
          "durationTicks": 32,
          "midi": 65,
          "name": "F4",
          "ticks": 11808,
          "time": 89.999961,
          "velocity": 0.6220472440944882
        },
        {
          "duration": 0.2439023333333239,
          "durationTicks": 32,
          "midi": 72,
          "name": "C5",
          "ticks": 11808,
          "time": 89.999961,
          "velocity": 0.6220472440944882
        },
        {
          "duration": 0.2439023333333239,
          "durationTicks": 32,
          "midi": 69,
          "name": "A4",
          "ticks": 11856,
          "time": 90.3658145,
          "velocity": 0.7480314960629921
        },
        {
          "duration": 0.2439023333333239,
          "durationTicks": 32,
          "midi": 65,
          "name": "F4",
          "ticks": 11856,
          "time": 90.3658145,
          "velocity": 0.7480314960629921
        },
        {
          "duration": 0.2439023333333239,
          "durationTicks": 32,
          "midi": 72,
          "name": "C5",
          "ticks": 11856,
          "time": 90.3658145,
          "velocity": 0.7480314960629921
        },
        {
          "duration": 0.2439023333333239,
          "durationTicks": 32,
          "midi": 67,
          "name": "G4",
          "ticks": 11904,
          "time": 90.731668,
          "velocity": 0.6220472440944882
        },
        {
          "duration": 0.2439023333333239,
          "durationTicks": 32,
          "midi": 64,
          "name": "E4",
          "ticks": 11904,
          "time": 90.731668,
          "velocity": 0.6220472440944882
        },
        {
          "duration": 0.2439023333333239,
          "durationTicks": 32,
          "midi": 71,
          "name": "B4",
          "ticks": 11904,
          "time": 90.731668,
          "velocity": 0.6220472440944882
        },
        {
          "duration": 0.2439023333333239,
          "durationTicks": 32,
          "midi": 67,
          "name": "G4",
          "ticks": 11952,
          "time": 91.0975215,
          "velocity": 0.7480314960629921
        },
        {
          "duration": 0.2439023333333239,
          "durationTicks": 32,
          "midi": 64,
          "name": "E4",
          "ticks": 11952,
          "time": 91.0975215,
          "velocity": 0.7480314960629921
        },
        {
          "duration": 0.2439023333333239,
          "durationTicks": 32,
          "midi": 71,
          "name": "B4",
          "ticks": 11952,
          "time": 91.0975215,
          "velocity": 0.7480314960629921
        },
        {
          "duration": 0.2439023333333239,
          "durationTicks": 32,
          "midi": 67,
          "name": "G4",
          "ticks": 12000,
          "time": 91.463375,
          "velocity": 0.6220472440944882
        },
        {
          "duration": 0.2439023333333239,
          "durationTicks": 32,
          "midi": 64,
          "name": "E4",
          "ticks": 12000,
          "time": 91.463375,
          "velocity": 0.6220472440944882
        },
        {
          "duration": 0.2439023333333239,
          "durationTicks": 32,
          "midi": 71,
          "name": "B4",
          "ticks": 12000,
          "time": 91.463375,
          "velocity": 0.6220472440944882
        },
        {
          "duration": 0.2439023333333239,
          "durationTicks": 32,
          "midi": 67,
          "name": "G4",
          "ticks": 12048,
          "time": 91.8292285,
          "velocity": 0.7480314960629921
        },
        {
          "duration": 0.2439023333333239,
          "durationTicks": 32,
          "midi": 64,
          "name": "E4",
          "ticks": 12048,
          "time": 91.8292285,
          "velocity": 0.7480314960629921
        },
        {
          "duration": 0.2439023333333239,
          "durationTicks": 32,
          "midi": 71,
          "name": "B4",
          "ticks": 12048,
          "time": 91.8292285,
          "velocity": 0.7480314960629921
        },
        {
          "duration": 0.2439023333333239,
          "durationTicks": 32,
          "midi": 67,
          "name": "G4",
          "ticks": 12096,
          "time": 92.195082,
          "velocity": 0.6220472440944882
        },
        {
          "duration": 0.2439023333333239,
          "durationTicks": 32,
          "midi": 64,
          "name": "E4",
          "ticks": 12096,
          "time": 92.195082,
          "velocity": 0.6220472440944882
        },
        {
          "duration": 0.2439023333333239,
          "durationTicks": 32,
          "midi": 71,
          "name": "B4",
          "ticks": 12096,
          "time": 92.195082,
          "velocity": 0.6220472440944882
        },
        {
          "duration": 0.2439023333333239,
          "durationTicks": 32,
          "midi": 67,
          "name": "G4",
          "ticks": 12144,
          "time": 92.5609355,
          "velocity": 0.7480314960629921
        },
        {
          "duration": 0.2439023333333239,
          "durationTicks": 32,
          "midi": 64,
          "name": "E4",
          "ticks": 12144,
          "time": 92.5609355,
          "velocity": 0.7480314960629921
        },
        {
          "duration": 0.2439023333333239,
          "durationTicks": 32,
          "midi": 71,
          "name": "B4",
          "ticks": 12144,
          "time": 92.5609355,
          "velocity": 0.7480314960629921
        },
        {
          "duration": 0.2439023333333239,
          "durationTicks": 32,
          "midi": 67,
          "name": "G4",
          "ticks": 12192,
          "time": 92.926789,
          "velocity": 0.6220472440944882
        },
        {
          "duration": 0.2439023333333239,
          "durationTicks": 32,
          "midi": 64,
          "name": "E4",
          "ticks": 12192,
          "time": 92.926789,
          "velocity": 0.6220472440944882
        },
        {
          "duration": 0.2439023333333239,
          "durationTicks": 32,
          "midi": 71,
          "name": "B4",
          "ticks": 12192,
          "time": 92.926789,
          "velocity": 0.6220472440944882
        },
        {
          "duration": 0.2439023333333239,
          "durationTicks": 32,
          "midi": 67,
          "name": "G4",
          "ticks": 12240,
          "time": 93.2926425,
          "velocity": 0.7480314960629921
        },
        {
          "duration": 0.2439023333333239,
          "durationTicks": 32,
          "midi": 64,
          "name": "E4",
          "ticks": 12240,
          "time": 93.2926425,
          "velocity": 0.7480314960629921
        },
        {
          "duration": 0.2439023333333239,
          "durationTicks": 32,
          "midi": 71,
          "name": "B4",
          "ticks": 12240,
          "time": 93.2926425,
          "velocity": 0.7480314960629921
        },
        {
          "duration": 0.2439023333333381,
          "durationTicks": 32,
          "midi": 67,
          "name": "G4",
          "ticks": 12288,
          "time": 93.658496,
          "velocity": 0.6220472440944882
        },
        {
          "duration": 0.2439023333333381,
          "durationTicks": 32,
          "midi": 64,
          "name": "E4",
          "ticks": 12288,
          "time": 93.658496,
          "velocity": 0.6220472440944882
        },
        {
          "duration": 0.2439023333333381,
          "durationTicks": 32,
          "midi": 60,
          "name": "C4",
          "ticks": 12288,
          "time": 93.658496,
          "velocity": 0.6220472440944882
        },
        {
          "duration": 0.2439023333333381,
          "durationTicks": 32,
          "midi": 64,
          "name": "E4",
          "ticks": 12336,
          "time": 94.0243495,
          "velocity": 0.7480314960629921
        },
        {
          "duration": 0.2439023333333381,
          "durationTicks": 32,
          "midi": 60,
          "name": "C4",
          "ticks": 12336,
          "time": 94.0243495,
          "velocity": 0.7480314960629921
        },
        {
          "duration": 0.2439023333333381,
          "durationTicks": 32,
          "midi": 67,
          "name": "G4",
          "ticks": 12336,
          "time": 94.0243495,
          "velocity": 0.7480314960629921
        },
        {
          "duration": 0.2439023333333381,
          "durationTicks": 32,
          "midi": 64,
          "name": "E4",
          "ticks": 12384,
          "time": 94.390203,
          "velocity": 0.6220472440944882
        },
        {
          "duration": 0.2439023333333381,
          "durationTicks": 32,
          "midi": 60,
          "name": "C4",
          "ticks": 12384,
          "time": 94.390203,
          "velocity": 0.6220472440944882
        },
        {
          "duration": 0.2439023333333381,
          "durationTicks": 32,
          "midi": 67,
          "name": "G4",
          "ticks": 12384,
          "time": 94.390203,
          "velocity": 0.6220472440944882
        },
        {
          "duration": 0.2439023333333381,
          "durationTicks": 32,
          "midi": 64,
          "name": "E4",
          "ticks": 12432,
          "time": 94.7560565,
          "velocity": 0.7480314960629921
        },
        {
          "duration": 0.2439023333333381,
          "durationTicks": 32,
          "midi": 60,
          "name": "C4",
          "ticks": 12432,
          "time": 94.7560565,
          "velocity": 0.7480314960629921
        },
        {
          "duration": 0.2439023333333381,
          "durationTicks": 32,
          "midi": 67,
          "name": "G4",
          "ticks": 12432,
          "time": 94.7560565,
          "velocity": 0.7480314960629921
        },
        {
          "duration": 0.2439023333333381,
          "durationTicks": 32,
          "midi": 67,
          "name": "G4",
          "ticks": 12480,
          "time": 95.12191,
          "velocity": 0.6220472440944882
        },
        {
          "duration": 0.2439023333333381,
          "durationTicks": 32,
          "midi": 64,
          "name": "E4",
          "ticks": 12480,
          "time": 95.12191,
          "velocity": 0.6220472440944882
        },
        {
          "duration": 0.2439023333333381,
          "durationTicks": 32,
          "midi": 60,
          "name": "C4",
          "ticks": 12480,
          "time": 95.12191,
          "velocity": 0.6220472440944882
        },
        {
          "duration": 0.2439023333333381,
          "durationTicks": 32,
          "midi": 64,
          "name": "E4",
          "ticks": 12528,
          "time": 95.4877635,
          "velocity": 0.7480314960629921
        },
        {
          "duration": 0.2439023333333381,
          "durationTicks": 32,
          "midi": 60,
          "name": "C4",
          "ticks": 12528,
          "time": 95.4877635,
          "velocity": 0.7480314960629921
        },
        {
          "duration": 0.2439023333333381,
          "durationTicks": 32,
          "midi": 67,
          "name": "G4",
          "ticks": 12528,
          "time": 95.4877635,
          "velocity": 0.7480314960629921
        },
        {
          "duration": 0.2439023333333381,
          "durationTicks": 32,
          "midi": 64,
          "name": "E4",
          "ticks": 12576,
          "time": 95.853617,
          "velocity": 0.6220472440944882
        },
        {
          "duration": 0.2439023333333381,
          "durationTicks": 32,
          "midi": 60,
          "name": "C4",
          "ticks": 12576,
          "time": 95.853617,
          "velocity": 0.6220472440944882
        },
        {
          "duration": 0.2439023333333381,
          "durationTicks": 32,
          "midi": 67,
          "name": "G4",
          "ticks": 12576,
          "time": 95.853617,
          "velocity": 0.6220472440944882
        },
        {
          "duration": 0.2439023333333381,
          "durationTicks": 32,
          "midi": 64,
          "name": "E4",
          "ticks": 12624,
          "time": 96.2194705,
          "velocity": 0.7480314960629921
        },
        {
          "duration": 0.2439023333333381,
          "durationTicks": 32,
          "midi": 60,
          "name": "C4",
          "ticks": 12624,
          "time": 96.2194705,
          "velocity": 0.7480314960629921
        },
        {
          "duration": 0.2439023333333381,
          "durationTicks": 32,
          "midi": 67,
          "name": "G4",
          "ticks": 12624,
          "time": 96.2194705,
          "velocity": 0.7480314960629921
        },
        {
          "duration": 0.2439023333333381,
          "durationTicks": 32,
          "midi": 67,
          "name": "G4",
          "ticks": 12672,
          "time": 96.585324,
          "velocity": 0.6220472440944882
        },
        {
          "duration": 0.2439023333333381,
          "durationTicks": 32,
          "midi": 64,
          "name": "E4",
          "ticks": 12672,
          "time": 96.585324,
          "velocity": 0.6220472440944882
        },
        {
          "duration": 0.2439023333333381,
          "durationTicks": 32,
          "midi": 60,
          "name": "C4",
          "ticks": 12672,
          "time": 96.585324,
          "velocity": 0.6220472440944882
        },
        {
          "duration": 0.2439023333333381,
          "durationTicks": 32,
          "midi": 64,
          "name": "E4",
          "ticks": 12720,
          "time": 96.9511775,
          "velocity": 0.7480314960629921
        },
        {
          "duration": 0.2439023333333381,
          "durationTicks": 32,
          "midi": 60,
          "name": "C4",
          "ticks": 12720,
          "time": 96.9511775,
          "velocity": 0.7480314960629921
        },
        {
          "duration": 0.2439023333333381,
          "durationTicks": 32,
          "midi": 67,
          "name": "G4",
          "ticks": 12720,
          "time": 96.9511775,
          "velocity": 0.7480314960629921
        },
        {
          "duration": 0.2439023333333381,
          "durationTicks": 32,
          "midi": 64,
          "name": "E4",
          "ticks": 12768,
          "time": 97.317031,
          "velocity": 0.6220472440944882
        },
        {
          "duration": 0.2439023333333381,
          "durationTicks": 32,
          "midi": 60,
          "name": "C4",
          "ticks": 12768,
          "time": 97.317031,
          "velocity": 0.6220472440944882
        },
        {
          "duration": 0.2439023333333381,
          "durationTicks": 32,
          "midi": 67,
          "name": "G4",
          "ticks": 12768,
          "time": 97.317031,
          "velocity": 0.6220472440944882
        },
        {
          "duration": 0.2439023333333381,
          "durationTicks": 32,
          "midi": 64,
          "name": "E4",
          "ticks": 12816,
          "time": 97.6828845,
          "velocity": 0.7480314960629921
        },
        {
          "duration": 0.2439023333333381,
          "durationTicks": 32,
          "midi": 60,
          "name": "C4",
          "ticks": 12816,
          "time": 97.6828845,
          "velocity": 0.7480314960629921
        },
        {
          "duration": 0.2439023333333381,
          "durationTicks": 32,
          "midi": 67,
          "name": "G4",
          "ticks": 12816,
          "time": 97.6828845,
          "velocity": 0.7480314960629921
        },
        {
          "duration": 0.2439023333333381,
          "durationTicks": 32,
          "midi": 67,
          "name": "G4",
          "ticks": 12864,
          "time": 98.048738,
          "velocity": 0.6220472440944882
        },
        {
          "duration": 0.2439023333333381,
          "durationTicks": 32,
          "midi": 64,
          "name": "E4",
          "ticks": 12864,
          "time": 98.048738,
          "velocity": 0.6220472440944882
        },
        {
          "duration": 0.2439023333333381,
          "durationTicks": 32,
          "midi": 60,
          "name": "C4",
          "ticks": 12864,
          "time": 98.048738,
          "velocity": 0.6220472440944882
        },
        {
          "duration": 0.2439023333333381,
          "durationTicks": 32,
          "midi": 64,
          "name": "E4",
          "ticks": 12912,
          "time": 98.4145915,
          "velocity": 0.7480314960629921
        },
        {
          "duration": 0.2439023333333381,
          "durationTicks": 32,
          "midi": 60,
          "name": "C4",
          "ticks": 12912,
          "time": 98.4145915,
          "velocity": 0.7480314960629921
        },
        {
          "duration": 0.2439023333333381,
          "durationTicks": 32,
          "midi": 67,
          "name": "G4",
          "ticks": 12912,
          "time": 98.4145915,
          "velocity": 0.7480314960629921
        },
        {
          "duration": 0.2439023333333381,
          "durationTicks": 32,
          "midi": 64,
          "name": "E4",
          "ticks": 12960,
          "time": 98.780445,
          "velocity": 0.6220472440944882
        },
        {
          "duration": 0.2439023333333381,
          "durationTicks": 32,
          "midi": 60,
          "name": "C4",
          "ticks": 12960,
          "time": 98.780445,
          "velocity": 0.6220472440944882
        },
        {
          "duration": 0.2439023333333381,
          "durationTicks": 32,
          "midi": 67,
          "name": "G4",
          "ticks": 12960,
          "time": 98.780445,
          "velocity": 0.6220472440944882
        },
        {
          "duration": 0.2439023333333381,
          "durationTicks": 32,
          "midi": 64,
          "name": "E4",
          "ticks": 13008,
          "time": 99.1462985,
          "velocity": 0.7480314960629921
        },
        {
          "duration": 0.2439023333333381,
          "durationTicks": 32,
          "midi": 60,
          "name": "C4",
          "ticks": 13008,
          "time": 99.1462985,
          "velocity": 0.7480314960629921
        },
        {
          "duration": 0.2439023333333381,
          "durationTicks": 32,
          "midi": 67,
          "name": "G4",
          "ticks": 13008,
          "time": 99.1462985,
          "velocity": 0.7480314960629921
        },
        {
          "duration": 0.2439023333333239,
          "durationTicks": 32,
          "midi": 64,
          "name": "E4",
          "ticks": 17328,
          "time": 132.0731135,
          "velocity": 0.6220472440944882
        },
        {
          "duration": 0.2439023333333239,
          "durationTicks": 32,
          "midi": 68,
          "name": "G#4",
          "ticks": 17328,
          "time": 132.0731135,
          "velocity": 0.6220472440944882
        },
        {
          "duration": 0.2439023333333239,
          "durationTicks": 32,
          "midi": 71,
          "name": "B4",
          "ticks": 17328,
          "time": 132.0731135,
          "velocity": 0.6220472440944882
        },
        {
          "duration": 0.2439023333333239,
          "durationTicks": 32,
          "midi": 64,
          "name": "E4",
          "ticks": 17424,
          "time": 132.8048205,
          "velocity": 0.6220472440944882
        },
        {
          "duration": 0.2439023333333239,
          "durationTicks": 32,
          "midi": 68,
          "name": "G#4",
          "ticks": 17424,
          "time": 132.8048205,
          "velocity": 0.6220472440944882
        },
        {
          "duration": 0.2439023333333239,
          "durationTicks": 32,
          "midi": 71,
          "name": "B4",
          "ticks": 17424,
          "time": 132.8048205,
          "velocity": 0.6220472440944882
        },
        {
          "duration": 0.2439023333333239,
          "durationTicks": 32,
          "midi": 64,
          "name": "E4",
          "ticks": 17520,
          "time": 133.5365275,
          "velocity": 0.6220472440944882
        },
        {
          "duration": 0.2439023333333239,
          "durationTicks": 32,
          "midi": 68,
          "name": "G#4",
          "ticks": 17520,
          "time": 133.5365275,
          "velocity": 0.6220472440944882
        },
        {
          "duration": 0.2439023333333239,
          "durationTicks": 32,
          "midi": 71,
          "name": "B4",
          "ticks": 17520,
          "time": 133.5365275,
          "velocity": 0.6220472440944882
        },
        {
          "duration": 0.2439023333333239,
          "durationTicks": 32,
          "midi": 64,
          "name": "E4",
          "ticks": 17616,
          "time": 134.2682345,
          "velocity": 0.6220472440944882
        },
        {
          "duration": 0.2439023333333239,
          "durationTicks": 32,
          "midi": 68,
          "name": "G#4",
          "ticks": 17616,
          "time": 134.2682345,
          "velocity": 0.6220472440944882
        },
        {
          "duration": 0.2439023333333239,
          "durationTicks": 32,
          "midi": 71,
          "name": "B4",
          "ticks": 17616,
          "time": 134.2682345,
          "velocity": 0.6220472440944882
        },
        {
          "duration": 0.2439023333333239,
          "durationTicks": 32,
          "midi": 64,
          "name": "E4",
          "ticks": 17712,
          "time": 134.9999415,
          "velocity": 0.6220472440944882
        },
        {
          "duration": 0.2439023333333239,
          "durationTicks": 32,
          "midi": 68,
          "name": "G#4",
          "ticks": 17712,
          "time": 134.9999415,
          "velocity": 0.6220472440944882
        },
        {
          "duration": 0.2439023333333239,
          "durationTicks": 32,
          "midi": 71,
          "name": "B4",
          "ticks": 17712,
          "time": 134.9999415,
          "velocity": 0.6220472440944882
        },
        {
          "duration": 0.2439023333333239,
          "durationTicks": 32,
          "midi": 64,
          "name": "E4",
          "ticks": 17808,
          "time": 135.7316485,
          "velocity": 0.6220472440944882
        },
        {
          "duration": 0.2439023333333239,
          "durationTicks": 32,
          "midi": 68,
          "name": "G#4",
          "ticks": 17808,
          "time": 135.7316485,
          "velocity": 0.6220472440944882
        },
        {
          "duration": 0.2439023333333239,
          "durationTicks": 32,
          "midi": 71,
          "name": "B4",
          "ticks": 17808,
          "time": 135.7316485,
          "velocity": 0.6220472440944882
        },
        {
          "duration": 0.2439023333333239,
          "durationTicks": 32,
          "midi": 64,
          "name": "E4",
          "ticks": 17904,
          "time": 136.4633555,
          "velocity": 0.6220472440944882
        },
        {
          "duration": 0.2439023333333239,
          "durationTicks": 32,
          "midi": 68,
          "name": "G#4",
          "ticks": 17904,
          "time": 136.4633555,
          "velocity": 0.6220472440944882
        },
        {
          "duration": 0.2439023333333239,
          "durationTicks": 32,
          "midi": 71,
          "name": "B4",
          "ticks": 17904,
          "time": 136.4633555,
          "velocity": 0.6220472440944882
        },
        {
          "duration": 0.2439023333333239,
          "durationTicks": 32,
          "midi": 64,
          "name": "E4",
          "ticks": 18000,
          "time": 137.1950625,
          "velocity": 0.6220472440944882
        },
        {
          "duration": 0.2439023333333239,
          "durationTicks": 32,
          "midi": 68,
          "name": "G#4",
          "ticks": 18000,
          "time": 137.1950625,
          "velocity": 0.6220472440944882
        },
        {
          "duration": 0.2439023333333239,
          "durationTicks": 32,
          "midi": 71,
          "name": "B4",
          "ticks": 18000,
          "time": 137.1950625,
          "velocity": 0.6220472440944882
        },
        {
          "duration": 0.2439023333333239,
          "durationTicks": 32,
          "midi": 64,
          "name": "E4",
          "ticks": 18096,
          "time": 137.9267695,
          "velocity": 0.6220472440944882
        },
        {
          "duration": 0.2439023333333239,
          "durationTicks": 32,
          "midi": 68,
          "name": "G#4",
          "ticks": 18096,
          "time": 137.9267695,
          "velocity": 0.6220472440944882
        },
        {
          "duration": 0.2439023333333239,
          "durationTicks": 32,
          "midi": 71,
          "name": "B4",
          "ticks": 18096,
          "time": 137.9267695,
          "velocity": 0.6220472440944882
        },
        {
          "duration": 0.2439023333333239,
          "durationTicks": 32,
          "midi": 64,
          "name": "E4",
          "ticks": 18192,
          "time": 138.6584765,
          "velocity": 0.6220472440944882
        },
        {
          "duration": 0.2439023333333239,
          "durationTicks": 32,
          "midi": 68,
          "name": "G#4",
          "ticks": 18192,
          "time": 138.6584765,
          "velocity": 0.6220472440944882
        },
        {
          "duration": 0.2439023333333239,
          "durationTicks": 32,
          "midi": 71,
          "name": "B4",
          "ticks": 18192,
          "time": 138.6584765,
          "velocity": 0.6220472440944882
        },
        {
          "duration": 0.2439023333333239,
          "durationTicks": 32,
          "midi": 64,
          "name": "E4",
          "ticks": 18288,
          "time": 139.3901835,
          "velocity": 0.6220472440944882
        },
        {
          "duration": 0.2439023333333239,
          "durationTicks": 32,
          "midi": 68,
          "name": "G#4",
          "ticks": 18288,
          "time": 139.3901835,
          "velocity": 0.6220472440944882
        },
        {
          "duration": 0.2439023333333239,
          "durationTicks": 32,
          "midi": 71,
          "name": "B4",
          "ticks": 18288,
          "time": 139.3901835,
          "velocity": 0.6220472440944882
        },
        {
          "duration": 0.2439023333333239,
          "durationTicks": 32,
          "midi": 64,
          "name": "E4",
          "ticks": 18384,
          "time": 140.1218905,
          "velocity": 0.6220472440944882
        },
        {
          "duration": 0.2439023333333239,
          "durationTicks": 32,
          "midi": 68,
          "name": "G#4",
          "ticks": 18384,
          "time": 140.1218905,
          "velocity": 0.6220472440944882
        },
        {
          "duration": 0.2439023333333239,
          "durationTicks": 32,
          "midi": 71,
          "name": "B4",
          "ticks": 18384,
          "time": 140.1218905,
          "velocity": 0.6220472440944882
        },
        {
          "duration": 0.2439023333333239,
          "durationTicks": 32,
          "midi": 64,
          "name": "E4",
          "ticks": 18480,
          "time": 140.8535975,
          "velocity": 0.6220472440944882
        },
        {
          "duration": 0.2439023333333239,
          "durationTicks": 32,
          "midi": 68,
          "name": "G#4",
          "ticks": 18480,
          "time": 140.8535975,
          "velocity": 0.6220472440944882
        },
        {
          "duration": 0.2439023333333239,
          "durationTicks": 32,
          "midi": 71,
          "name": "B4",
          "ticks": 18480,
          "time": 140.8535975,
          "velocity": 0.6220472440944882
        },
        {
          "duration": 0.2439023333333239,
          "durationTicks": 32,
          "midi": 64,
          "name": "E4",
          "ticks": 18576,
          "time": 141.5853045,
          "velocity": 0.6220472440944882
        },
        {
          "duration": 0.2439023333333239,
          "durationTicks": 32,
          "midi": 68,
          "name": "G#4",
          "ticks": 18576,
          "time": 141.5853045,
          "velocity": 0.6220472440944882
        },
        {
          "duration": 0.2439023333333239,
          "durationTicks": 32,
          "midi": 71,
          "name": "B4",
          "ticks": 18576,
          "time": 141.5853045,
          "velocity": 0.6220472440944882
        },
        {
          "duration": 0.2439023333333239,
          "durationTicks": 32,
          "midi": 66,
          "name": "F#4",
          "ticks": 18672,
          "time": 142.3170115,
          "velocity": 0.6220472440944882
        },
        {
          "duration": 0.2439023333333239,
          "durationTicks": 32,
          "midi": 62,
          "name": "D4",
          "ticks": 18672,
          "time": 142.3170115,
          "velocity": 0.6220472440944882
        },
        {
          "duration": 0.2439023333333239,
          "durationTicks": 32,
          "midi": 69,
          "name": "A4",
          "ticks": 18672,
          "time": 142.3170115,
          "velocity": 0.6220472440944882
        },
        {
          "duration": 0.2439023333333239,
          "durationTicks": 32,
          "midi": 66,
          "name": "F#4",
          "ticks": 18768,
          "time": 143.0487185,
          "velocity": 0.6220472440944882
        },
        {
          "duration": 0.2439023333333239,
          "durationTicks": 32,
          "midi": 62,
          "name": "D4",
          "ticks": 18768,
          "time": 143.0487185,
          "velocity": 0.6220472440944882
        },
        {
          "duration": 0.2439023333333239,
          "durationTicks": 32,
          "midi": 69,
          "name": "A4",
          "ticks": 18768,
          "time": 143.0487185,
          "velocity": 0.6220472440944882
        },
        {
          "duration": 0.2439023333333239,
          "durationTicks": 32,
          "midi": 66,
          "name": "F#4",
          "ticks": 18864,
          "time": 143.7804255,
          "velocity": 0.6220472440944882
        },
        {
          "duration": 0.2439023333333239,
          "durationTicks": 32,
          "midi": 62,
          "name": "D4",
          "ticks": 18864,
          "time": 143.7804255,
          "velocity": 0.6220472440944882
        },
        {
          "duration": 0.2439023333333239,
          "durationTicks": 32,
          "midi": 69,
          "name": "A4",
          "ticks": 18864,
          "time": 143.7804255,
          "velocity": 0.6220472440944882
        },
        {
          "duration": 0.2439023333333239,
          "durationTicks": 32,
          "midi": 66,
          "name": "F#4",
          "ticks": 18960,
          "time": 144.5121325,
          "velocity": 0.6220472440944882
        },
        {
          "duration": 0.2439023333333239,
          "durationTicks": 32,
          "midi": 62,
          "name": "D4",
          "ticks": 18960,
          "time": 144.5121325,
          "velocity": 0.6220472440944882
        },
        {
          "duration": 0.2439023333333239,
          "durationTicks": 32,
          "midi": 69,
          "name": "A4",
          "ticks": 18960,
          "time": 144.5121325,
          "velocity": 0.6220472440944882
        },
        {
          "duration": 0.2439023333333239,
          "durationTicks": 32,
          "midi": 68,
          "name": "G#4",
          "ticks": 19056,
          "time": 145.2438395,
          "velocity": 0.6220472440944882
        },
        {
          "duration": 0.2439023333333239,
          "durationTicks": 32,
          "midi": 64,
          "name": "E4",
          "ticks": 19056,
          "time": 145.2438395,
          "velocity": 0.6220472440944882
        },
        {
          "duration": 0.2439023333333239,
          "durationTicks": 32,
          "midi": 71,
          "name": "B4",
          "ticks": 19056,
          "time": 145.2438395,
          "velocity": 0.6220472440944882
        },
        {
          "duration": 0.2439023333333239,
          "durationTicks": 32,
          "midi": 68,
          "name": "G#4",
          "ticks": 19152,
          "time": 145.9755465,
          "velocity": 0.6220472440944882
        },
        {
          "duration": 0.2439023333333239,
          "durationTicks": 32,
          "midi": 64,
          "name": "E4",
          "ticks": 19152,
          "time": 145.9755465,
          "velocity": 0.6220472440944882
        },
        {
          "duration": 0.2439023333333239,
          "durationTicks": 32,
          "midi": 71,
          "name": "B4",
          "ticks": 19152,
          "time": 145.9755465,
          "velocity": 0.6220472440944882
        },
        {
          "duration": 0.2439023333333239,
          "durationTicks": 32,
          "midi": 64,
          "name": "E4",
          "ticks": 19248,
          "time": 146.7072535,
          "velocity": 0.6220472440944882
        },
        {
          "duration": 0.2439023333333239,
          "durationTicks": 32,
          "midi": 61,
          "name": "C#4",
          "ticks": 19248,
          "time": 146.7072535,
          "velocity": 0.6220472440944882
        },
        {
          "duration": 0.2439023333333239,
          "durationTicks": 32,
          "midi": 66,
          "name": "F#4",
          "ticks": 19248,
          "time": 146.7072535,
          "velocity": 0.6220472440944882
        },
        {
          "duration": 0.2439023333333239,
          "durationTicks": 32,
          "midi": 61,
          "name": "C#4",
          "ticks": 19344,
          "time": 147.4389605,
          "velocity": 0.6220472440944882
        },
        {
          "duration": 0.2439023333333239,
          "durationTicks": 32,
          "midi": 64,
          "name": "E4",
          "ticks": 19344,
          "time": 147.4389605,
          "velocity": 0.6220472440944882
        },
        {
          "duration": 0.2439023333333239,
          "durationTicks": 32,
          "midi": 66,
          "name": "F#4",
          "ticks": 19344,
          "time": 147.4389605,
          "velocity": 0.6220472440944882
        },
        {
          "duration": 0.2439023333333239,
          "durationTicks": 32,
          "midi": 68,
          "name": "G#4",
          "ticks": 19440,
          "time": 148.1706675,
          "velocity": 0.6220472440944882
        },
        {
          "duration": 0.2439023333333239,
          "durationTicks": 32,
          "midi": 64,
          "name": "E4",
          "ticks": 19440,
          "time": 148.1706675,
          "velocity": 0.6220472440944882
        },
        {
          "duration": 0.2439023333333239,
          "durationTicks": 32,
          "midi": 71,
          "name": "B4",
          "ticks": 19440,
          "time": 148.1706675,
          "velocity": 0.6220472440944882
        },
        {
          "duration": 0.2439023333333239,
          "durationTicks": 32,
          "midi": 68,
          "name": "G#4",
          "ticks": 19536,
          "time": 148.9023745,
          "velocity": 0.6220472440944882
        },
        {
          "duration": 0.2439023333333239,
          "durationTicks": 32,
          "midi": 64,
          "name": "E4",
          "ticks": 19536,
          "time": 148.9023745,
          "velocity": 0.6220472440944882
        },
        {
          "duration": 0.2439023333333239,
          "durationTicks": 32,
          "midi": 71,
          "name": "B4",
          "ticks": 19536,
          "time": 148.9023745,
          "velocity": 0.6220472440944882
        },
        {
          "duration": 0.2439023333333239,
          "durationTicks": 32,
          "midi": 64,
          "name": "E4",
          "ticks": 19632,
          "time": 149.6340815,
          "velocity": 0.6220472440944882
        },
        {
          "duration": 0.2439023333333239,
          "durationTicks": 32,
          "midi": 61,
          "name": "C#4",
          "ticks": 19632,
          "time": 149.6340815,
          "velocity": 0.6220472440944882
        },
        {
          "duration": 0.2439023333333239,
          "durationTicks": 32,
          "midi": 66,
          "name": "F#4",
          "ticks": 19632,
          "time": 149.6340815,
          "velocity": 0.6220472440944882
        },
        {
          "duration": 0.2439023333333239,
          "durationTicks": 32,
          "midi": 61,
          "name": "C#4",
          "ticks": 19728,
          "time": 150.3657885,
          "velocity": 0.6220472440944882
        },
        {
          "duration": 0.2439023333333239,
          "durationTicks": 32,
          "midi": 64,
          "name": "E4",
          "ticks": 19728,
          "time": 150.3657885,
          "velocity": 0.6220472440944882
        },
        {
          "duration": 0.2439023333333239,
          "durationTicks": 32,
          "midi": 66,
          "name": "F#4",
          "ticks": 19728,
          "time": 150.3657885,
          "velocity": 0.6220472440944882
        },
        {
          "duration": 0.2439023333333239,
          "durationTicks": 32,
          "midi": 66,
          "name": "F#4",
          "ticks": 19824,
          "time": 151.0974955,
          "velocity": 0.6220472440944882
        },
        {
          "duration": 0.2439023333333239,
          "durationTicks": 32,
          "midi": 63,
          "name": "D#4",
          "ticks": 19824,
          "time": 151.0974955,
          "velocity": 0.6220472440944882
        },
        {
          "duration": 0.2439023333333239,
          "durationTicks": 32,
          "midi": 71,
          "name": "B4",
          "ticks": 19824,
          "time": 151.0974955,
          "velocity": 0.6220472440944882
        },
        {
          "duration": 0.24390233333335232,
          "durationTicks": 32,
          "midi": 63,
          "name": "D#4",
          "ticks": 19872,
          "time": 151.463349,
          "velocity": 0.6220472440944882
        },
        {
          "duration": 0.24390233333335232,
          "durationTicks": 32,
          "midi": 66,
          "name": "F#4",
          "ticks": 19872,
          "time": 151.463349,
          "velocity": 0.6220472440944882
        },
        {
          "duration": 0.24390233333335232,
          "durationTicks": 32,
          "midi": 71,
          "name": "B4",
          "ticks": 19872,
          "time": 151.463349,
          "velocity": 0.6220472440944882
        },
        {
          "duration": 0.2439023333333239,
          "durationTicks": 32,
          "midi": 68,
          "name": "G#4",
          "ticks": 20016,
          "time": 152.5609095,
          "velocity": 0.6220472440944882
        },
        {
          "duration": 0.2439023333333239,
          "durationTicks": 32,
          "midi": 64,
          "name": "E4",
          "ticks": 20016,
          "time": 152.5609095,
          "velocity": 0.6220472440944882
        },
        {
          "duration": 0.2439023333333239,
          "durationTicks": 32,
          "midi": 71,
          "name": "B4",
          "ticks": 20016,
          "time": 152.5609095,
          "velocity": 0.6220472440944882
        },
        {
          "duration": 0.2439023333333239,
          "durationTicks": 32,
          "midi": 68,
          "name": "G#4",
          "ticks": 20112,
          "time": 153.2926165,
          "velocity": 0.6220472440944882
        },
        {
          "duration": 0.2439023333333239,
          "durationTicks": 32,
          "midi": 64,
          "name": "E4",
          "ticks": 20112,
          "time": 153.2926165,
          "velocity": 0.6220472440944882
        },
        {
          "duration": 0.2439023333333239,
          "durationTicks": 32,
          "midi": 71,
          "name": "B4",
          "ticks": 20112,
          "time": 153.2926165,
          "velocity": 0.6220472440944882
        },
        {
          "duration": 0.2439023333333239,
          "durationTicks": 32,
          "midi": 68,
          "name": "G#4",
          "ticks": 20208,
          "time": 154.0243235,
          "velocity": 0.6220472440944882
        },
        {
          "duration": 0.2439023333333239,
          "durationTicks": 32,
          "midi": 64,
          "name": "E4",
          "ticks": 20208,
          "time": 154.0243235,
          "velocity": 0.6220472440944882
        },
        {
          "duration": 0.2439023333333239,
          "durationTicks": 32,
          "midi": 71,
          "name": "B4",
          "ticks": 20208,
          "time": 154.0243235,
          "velocity": 0.6220472440944882
        },
        {
          "duration": 0.2439023333333239,
          "durationTicks": 32,
          "midi": 68,
          "name": "G#4",
          "ticks": 20304,
          "time": 154.7560305,
          "velocity": 0.6220472440944882
        },
        {
          "duration": 0.2439023333333239,
          "durationTicks": 32,
          "midi": 64,
          "name": "E4",
          "ticks": 20304,
          "time": 154.7560305,
          "velocity": 0.6220472440944882
        },
        {
          "duration": 0.2439023333333239,
          "durationTicks": 32,
          "midi": 71,
          "name": "B4",
          "ticks": 20304,
          "time": 154.7560305,
          "velocity": 0.6220472440944882
        },
        {
          "duration": 0.2439023333333239,
          "durationTicks": 32,
          "midi": 68,
          "name": "G#4",
          "ticks": 20400,
          "time": 155.4877375,
          "velocity": 0.6220472440944882
        },
        {
          "duration": 0.2439023333333239,
          "durationTicks": 32,
          "midi": 64,
          "name": "E4",
          "ticks": 20400,
          "time": 155.4877375,
          "velocity": 0.6220472440944882
        },
        {
          "duration": 0.2439023333333239,
          "durationTicks": 32,
          "midi": 71,
          "name": "B4",
          "ticks": 20400,
          "time": 155.4877375,
          "velocity": 0.6220472440944882
        },
        {
          "duration": 0.2439023333333239,
          "durationTicks": 32,
          "midi": 68,
          "name": "G#4",
          "ticks": 20496,
          "time": 156.2194445,
          "velocity": 0.6220472440944882
        },
        {
          "duration": 0.2439023333333239,
          "durationTicks": 32,
          "midi": 64,
          "name": "E4",
          "ticks": 20496,
          "time": 156.2194445,
          "velocity": 0.6220472440944882
        },
        {
          "duration": 0.2439023333333239,
          "durationTicks": 32,
          "midi": 71,
          "name": "B4",
          "ticks": 20496,
          "time": 156.2194445,
          "velocity": 0.6220472440944882
        },
        {
          "duration": 0.2439023333333239,
          "durationTicks": 32,
          "midi": 66,
          "name": "F#4",
          "ticks": 20592,
          "time": 156.9511515,
          "velocity": 0.6220472440944882
        },
        {
          "duration": 0.2439023333333239,
          "durationTicks": 32,
          "midi": 62,
          "name": "D4",
          "ticks": 20592,
          "time": 156.9511515,
          "velocity": 0.6220472440944882
        },
        {
          "duration": 0.2439023333333239,
          "durationTicks": 32,
          "midi": 69,
          "name": "A4",
          "ticks": 20592,
          "time": 156.9511515,
          "velocity": 0.6220472440944882
        },
        {
          "duration": 0.2439023333333239,
          "durationTicks": 32,
          "midi": 66,
          "name": "F#4",
          "ticks": 20688,
          "time": 157.6828585,
          "velocity": 0.6220472440944882
        },
        {
          "duration": 0.2439023333333239,
          "durationTicks": 32,
          "midi": 62,
          "name": "D4",
          "ticks": 20688,
          "time": 157.6828585,
          "velocity": 0.6220472440944882
        },
        {
          "duration": 0.2439023333333239,
          "durationTicks": 32,
          "midi": 69,
          "name": "A4",
          "ticks": 20688,
          "time": 157.6828585,
          "velocity": 0.6220472440944882
        },
        {
          "duration": 0.2439023333333239,
          "durationTicks": 32,
          "midi": 66,
          "name": "F#4",
          "ticks": 20784,
          "time": 158.4145655,
          "velocity": 0.6220472440944882
        },
        {
          "duration": 0.2439023333333239,
          "durationTicks": 32,
          "midi": 62,
          "name": "D4",
          "ticks": 20784,
          "time": 158.4145655,
          "velocity": 0.6220472440944882
        },
        {
          "duration": 0.2439023333333239,
          "durationTicks": 32,
          "midi": 69,
          "name": "A4",
          "ticks": 20784,
          "time": 158.4145655,
          "velocity": 0.6220472440944882
        },
        {
          "duration": 0.2439023333333239,
          "durationTicks": 32,
          "midi": 66,
          "name": "F#4",
          "ticks": 20880,
          "time": 159.1462725,
          "velocity": 0.6220472440944882
        },
        {
          "duration": 0.2439023333333239,
          "durationTicks": 32,
          "midi": 62,
          "name": "D4",
          "ticks": 20880,
          "time": 159.1462725,
          "velocity": 0.6220472440944882
        },
        {
          "duration": 0.2439023333333239,
          "durationTicks": 32,
          "midi": 69,
          "name": "A4",
          "ticks": 20880,
          "time": 159.1462725,
          "velocity": 0.6220472440944882
        },
        {
          "duration": 0.2439023333333239,
          "durationTicks": 32,
          "midi": 68,
          "name": "G#4",
          "ticks": 20976,
          "time": 159.8779795,
          "velocity": 0.6220472440944882
        },
        {
          "duration": 0.2439023333333239,
          "durationTicks": 32,
          "midi": 64,
          "name": "E4",
          "ticks": 20976,
          "time": 159.8779795,
          "velocity": 0.6220472440944882
        },
        {
          "duration": 0.2439023333333239,
          "durationTicks": 32,
          "midi": 71,
          "name": "B4",
          "ticks": 20976,
          "time": 159.8779795,
          "velocity": 0.6220472440944882
        },
        {
          "duration": 0.2439023333333239,
          "durationTicks": 32,
          "midi": 68,
          "name": "G#4",
          "ticks": 21072,
          "time": 160.6096865,
          "velocity": 0.6220472440944882
        },
        {
          "duration": 0.2439023333333239,
          "durationTicks": 32,
          "midi": 64,
          "name": "E4",
          "ticks": 21072,
          "time": 160.6096865,
          "velocity": 0.6220472440944882
        },
        {
          "duration": 0.2439023333333239,
          "durationTicks": 32,
          "midi": 71,
          "name": "B4",
          "ticks": 21072,
          "time": 160.6096865,
          "velocity": 0.6220472440944882
        },
        {
          "duration": 0.2439023333333239,
          "durationTicks": 32,
          "midi": 64,
          "name": "E4",
          "ticks": 21168,
          "time": 161.3413935,
          "velocity": 0.6220472440944882
        },
        {
          "duration": 0.2439023333333239,
          "durationTicks": 32,
          "midi": 61,
          "name": "C#4",
          "ticks": 21168,
          "time": 161.3413935,
          "velocity": 0.6220472440944882
        },
        {
          "duration": 0.2439023333333239,
          "durationTicks": 32,
          "midi": 66,
          "name": "F#4",
          "ticks": 21168,
          "time": 161.3413935,
          "velocity": 0.6220472440944882
        },
        {
          "duration": 0.2439023333333239,
          "durationTicks": 32,
          "midi": 61,
          "name": "C#4",
          "ticks": 21264,
          "time": 162.0731005,
          "velocity": 0.6220472440944882
        },
        {
          "duration": 0.2439023333333239,
          "durationTicks": 32,
          "midi": 64,
          "name": "E4",
          "ticks": 21264,
          "time": 162.0731005,
          "velocity": 0.6220472440944882
        },
        {
          "duration": 0.2439023333333239,
          "durationTicks": 32,
          "midi": 66,
          "name": "F#4",
          "ticks": 21264,
          "time": 162.0731005,
          "velocity": 0.6220472440944882
        },
        {
          "duration": 0.2439023333333239,
          "durationTicks": 32,
          "midi": 68,
          "name": "G#4",
          "ticks": 21360,
          "time": 162.8048075,
          "velocity": 0.6220472440944882
        },
        {
          "duration": 0.2439023333333239,
          "durationTicks": 32,
          "midi": 64,
          "name": "E4",
          "ticks": 21360,
          "time": 162.8048075,
          "velocity": 0.6220472440944882
        },
        {
          "duration": 0.2439023333333239,
          "durationTicks": 32,
          "midi": 71,
          "name": "B4",
          "ticks": 21360,
          "time": 162.8048075,
          "velocity": 0.6220472440944882
        },
        {
          "duration": 0.2439023333333239,
          "durationTicks": 32,
          "midi": 68,
          "name": "G#4",
          "ticks": 21456,
          "time": 163.5365145,
          "velocity": 0.6220472440944882
        },
        {
          "duration": 0.2439023333333239,
          "durationTicks": 32,
          "midi": 64,
          "name": "E4",
          "ticks": 21456,
          "time": 163.5365145,
          "velocity": 0.6220472440944882
        },
        {
          "duration": 0.2439023333333239,
          "durationTicks": 32,
          "midi": 71,
          "name": "B4",
          "ticks": 21456,
          "time": 163.5365145,
          "velocity": 0.6220472440944882
        },
        {
          "duration": 0.2439023333333239,
          "durationTicks": 32,
          "midi": 64,
          "name": "E4",
          "ticks": 21552,
          "time": 164.2682215,
          "velocity": 0.6220472440944882
        },
        {
          "duration": 0.2439023333333239,
          "durationTicks": 32,
          "midi": 61,
          "name": "C#4",
          "ticks": 21552,
          "time": 164.2682215,
          "velocity": 0.6220472440944882
        },
        {
          "duration": 0.2439023333333239,
          "durationTicks": 32,
          "midi": 66,
          "name": "F#4",
          "ticks": 21552,
          "time": 164.2682215,
          "velocity": 0.6220472440944882
        },
        {
          "duration": 0.2439023333333239,
          "durationTicks": 32,
          "midi": 61,
          "name": "C#4",
          "ticks": 21648,
          "time": 164.9999285,
          "velocity": 0.6220472440944882
        },
        {
          "duration": 0.2439023333333239,
          "durationTicks": 32,
          "midi": 64,
          "name": "E4",
          "ticks": 21648,
          "time": 164.9999285,
          "velocity": 0.6220472440944882
        },
        {
          "duration": 0.2439023333333239,
          "durationTicks": 32,
          "midi": 66,
          "name": "F#4",
          "ticks": 21648,
          "time": 164.9999285,
          "velocity": 0.6220472440944882
        },
        {
          "duration": 1.9359747708333543,
          "durationTicks": 254,
          "midi": 67,
          "name": "G4",
          "ticks": 21696,
          "time": 165.365782,
          "velocity": 0.6220472440944882
        },
        {
          "duration": 1.9359747708333543,
          "durationTicks": 254,
          "midi": 64,
          "name": "E4",
          "ticks": 21696,
          "time": 165.365782,
          "velocity": 0.6220472440944882
        },
        {
          "duration": 1.9359747708333543,
          "durationTicks": 254,
          "midi": 60,
          "name": "C4",
          "ticks": 21696,
          "time": 165.365782,
          "velocity": 0.6220472440944882
        },
        {
          "duration": 1.9359747708333543,
          "durationTicks": 254,
          "midi": 71,
          "name": "B4",
          "ticks": 22080,
          "time": 168.29261,
          "velocity": 0.6220472440944882
        },
        {
          "duration": 1.9359747708333543,
          "durationTicks": 254,
          "midi": 67,
          "name": "G4",
          "ticks": 22080,
          "time": 168.29261,
          "velocity": 0.6220472440944882
        },
        {
          "duration": 1.9359747708333543,
          "durationTicks": 254,
          "midi": 62,
          "name": "D4",
          "ticks": 22080,
          "time": 168.29261,
          "velocity": 0.6220472440944882
        },
        {
          "duration": 1.9359747708333543,
          "durationTicks": 254,
          "midi": 66,
          "name": "F#4",
          "ticks": 22464,
          "time": 171.219438,
          "velocity": 0.6220472440944882
        },
        {
          "duration": 1.9359747708333543,
          "durationTicks": 254,
          "midi": 62,
          "name": "D4",
          "ticks": 22464,
          "time": 171.219438,
          "velocity": 0.6220472440944882
        },
        {
          "duration": 1.9359747708333543,
          "durationTicks": 254,
          "midi": 69,
          "name": "A4",
          "ticks": 22464,
          "time": 171.219438,
          "velocity": 0.6220472440944882
        },
        {
          "duration": 1.9359747708333543,
          "durationTicks": 254,
          "midi": 64,
          "name": "E4",
          "ticks": 22848,
          "time": 174.146266,
          "velocity": 0.6220472440944882
        },
        {
          "duration": 1.9359747708333543,
          "durationTicks": 254,
          "midi": 60,
          "name": "C4",
          "ticks": 22848,
          "time": 174.146266,
          "velocity": 0.6220472440944882
        },
        {
          "duration": 1.9359747708333543,
          "durationTicks": 254,
          "midi": 69,
          "name": "A4",
          "ticks": 22848,
          "time": 174.146266,
          "velocity": 0.6220472440944882
        },
        {
          "duration": 1.9359747708333543,
          "durationTicks": 254,
          "midi": 68,
          "name": "G#4",
          "ticks": 23232,
          "time": 177.073094,
          "velocity": 0.6220472440944882
        },
        {
          "duration": 1.9359747708333543,
          "durationTicks": 254,
          "midi": 64,
          "name": "E4",
          "ticks": 23232,
          "time": 177.073094,
          "velocity": 0.6220472440944882
        },
        {
          "duration": 1.9359747708333543,
          "durationTicks": 254,
          "midi": 71,
          "name": "B4",
          "ticks": 23232,
          "time": 177.073094,
          "velocity": 0.6220472440944882
        },
        {
          "duration": 1.9359747708333543,
          "durationTicks": 254,
          "midi": 64,
          "name": "E4",
          "ticks": 23616,
          "time": 179.999922,
          "velocity": 0.6220472440944882
        },
        {
          "duration": 1.9359747708333543,
          "durationTicks": 254,
          "midi": 60,
          "name": "C4",
          "ticks": 23616,
          "time": 179.999922,
          "velocity": 0.6220472440944882
        },
        {
          "duration": 1.9359747708333543,
          "durationTicks": 254,
          "midi": 67,
          "name": "G4",
          "ticks": 23616,
          "time": 179.999922,
          "velocity": 0.6220472440944882
        },
        {
          "duration": 1.9359747708333543,
          "durationTicks": 254,
          "midi": 67,
          "name": "G4",
          "ticks": 24000,
          "time": 182.92675,
          "velocity": 0.6220472440944882
        },
        {
          "duration": 1.9359747708333543,
          "durationTicks": 254,
          "midi": 62,
          "name": "D4",
          "ticks": 24000,
          "time": 182.92675,
          "velocity": 0.6220472440944882
        },
        {
          "duration": 1.9359747708333543,
          "durationTicks": 254,
          "midi": 71,
          "name": "B4",
          "ticks": 24000,
          "time": 182.92675,
          "velocity": 0.6220472440944882
        },
        {
          "duration": 1.935974770833326,
          "durationTicks": 254,
          "midi": 66,
          "name": "F#4",
          "ticks": 24384,
          "time": 185.853578,
          "velocity": 0.6220472440944882
        },
        {
          "duration": 1.935974770833326,
          "durationTicks": 254,
          "midi": 62,
          "name": "D4",
          "ticks": 24384,
          "time": 185.853578,
          "velocity": 0.6220472440944882
        },
        {
          "duration": 1.935974770833326,
          "durationTicks": 254,
          "midi": 69,
          "name": "A4",
          "ticks": 24384,
          "time": 185.853578,
          "velocity": 0.6220472440944882
        },
        {
          "duration": 1.935974770833326,
          "durationTicks": 254,
          "midi": 64,
          "name": "E4",
          "ticks": 24768,
          "time": 188.780406,
          "velocity": 0.6220472440944882
        },
        {
          "duration": 1.935974770833326,
          "durationTicks": 254,
          "midi": 61,
          "name": "C#4",
          "ticks": 24768,
          "time": 188.780406,
          "velocity": 0.6220472440944882
        },
        {
          "duration": 1.935974770833326,
          "durationTicks": 254,
          "midi": 69,
          "name": "A4",
          "ticks": 24768,
          "time": 188.780406,
          "velocity": 0.6220472440944882
        },
        {
          "duration": 0.2439023333333239,
          "durationTicks": 32,
          "midi": 71,
          "name": "B4",
          "ticks": 25536,
          "time": 194.634062,
          "velocity": 0.6220472440944882
        },
        {
          "duration": 0.2439023333333239,
          "durationTicks": 32,
          "midi": 67,
          "name": "G4",
          "ticks": 25536,
          "time": 194.634062,
          "velocity": 0.6220472440944882
        },
        {
          "duration": 0.2439023333333239,
          "durationTicks": 32,
          "midi": 74,
          "name": "D5",
          "ticks": 25536,
          "time": 194.634062,
          "velocity": 0.6220472440944882
        },
        {
          "duration": 0.2439023333333239,
          "durationTicks": 32,
          "midi": 71,
          "name": "B4",
          "ticks": 25584,
          "time": 194.9999155,
          "velocity": 0.7480314960629921
        },
        {
          "duration": 0.2439023333333239,
          "durationTicks": 32,
          "midi": 67,
          "name": "G4",
          "ticks": 25584,
          "time": 194.9999155,
          "velocity": 0.7480314960629921
        },
        {
          "duration": 0.2439023333333239,
          "durationTicks": 32,
          "midi": 74,
          "name": "D5",
          "ticks": 25584,
          "time": 194.9999155,
          "velocity": 0.7480314960629921
        },
        {
          "duration": 0.2439023333333239,
          "durationTicks": 32,
          "midi": 71,
          "name": "B4",
          "ticks": 25632,
          "time": 195.365769,
          "velocity": 0.6220472440944882
        },
        {
          "duration": 0.2439023333333239,
          "durationTicks": 32,
          "midi": 67,
          "name": "G4",
          "ticks": 25632,
          "time": 195.365769,
          "velocity": 0.6220472440944882
        },
        {
          "duration": 0.2439023333333239,
          "durationTicks": 32,
          "midi": 74,
          "name": "D5",
          "ticks": 25632,
          "time": 195.365769,
          "velocity": 0.6220472440944882
        },
        {
          "duration": 0.2439023333333239,
          "durationTicks": 32,
          "midi": 71,
          "name": "B4",
          "ticks": 25680,
          "time": 195.7316225,
          "velocity": 0.7480314960629921
        },
        {
          "duration": 0.2439023333333239,
          "durationTicks": 32,
          "midi": 67,
          "name": "G4",
          "ticks": 25680,
          "time": 195.7316225,
          "velocity": 0.7480314960629921
        },
        {
          "duration": 0.2439023333333239,
          "durationTicks": 32,
          "midi": 74,
          "name": "D5",
          "ticks": 25680,
          "time": 195.7316225,
          "velocity": 0.7480314960629921
        },
        {
          "duration": 0.2439023333333239,
          "durationTicks": 32,
          "midi": 71,
          "name": "B4",
          "ticks": 25728,
          "time": 196.097476,
          "velocity": 0.6220472440944882
        },
        {
          "duration": 0.2439023333333239,
          "durationTicks": 32,
          "midi": 66,
          "name": "F#4",
          "ticks": 25728,
          "time": 196.097476,
          "velocity": 0.6220472440944882
        },
        {
          "duration": 0.2439023333333239,
          "durationTicks": 32,
          "midi": 74,
          "name": "D5",
          "ticks": 25728,
          "time": 196.097476,
          "velocity": 0.6220472440944882
        },
        {
          "duration": 0.2439023333333239,
          "durationTicks": 32,
          "midi": 71,
          "name": "B4",
          "ticks": 25776,
          "time": 196.4633295,
          "velocity": 0.7480314960629921
        },
        {
          "duration": 0.2439023333333239,
          "durationTicks": 32,
          "midi": 66,
          "name": "F#4",
          "ticks": 25776,
          "time": 196.4633295,
          "velocity": 0.7480314960629921
        },
        {
          "duration": 0.2439023333333239,
          "durationTicks": 32,
          "midi": 74,
          "name": "D5",
          "ticks": 25776,
          "time": 196.4633295,
          "velocity": 0.7480314960629921
        },
        {
          "duration": 0.2439023333333239,
          "durationTicks": 32,
          "midi": 71,
          "name": "B4",
          "ticks": 25824,
          "time": 196.829183,
          "velocity": 0.6220472440944882
        },
        {
          "duration": 0.2439023333333239,
          "durationTicks": 32,
          "midi": 66,
          "name": "F#4",
          "ticks": 25824,
          "time": 196.829183,
          "velocity": 0.6220472440944882
        },
        {
          "duration": 0.2439023333333239,
          "durationTicks": 32,
          "midi": 74,
          "name": "D5",
          "ticks": 25824,
          "time": 196.829183,
          "velocity": 0.6220472440944882
        },
        {
          "duration": 0.2439023333333239,
          "durationTicks": 32,
          "midi": 71,
          "name": "B4",
          "ticks": 25872,
          "time": 197.1950365,
          "velocity": 0.7480314960629921
        },
        {
          "duration": 0.2439023333333239,
          "durationTicks": 32,
          "midi": 66,
          "name": "F#4",
          "ticks": 25872,
          "time": 197.1950365,
          "velocity": 0.7480314960629921
        },
        {
          "duration": 0.2439023333333239,
          "durationTicks": 32,
          "midi": 74,
          "name": "D5",
          "ticks": 25872,
          "time": 197.1950365,
          "velocity": 0.7480314960629921
        },
        {
          "duration": 0.2439023333333239,
          "durationTicks": 32,
          "midi": 67,
          "name": "G4",
          "ticks": 25920,
          "time": 197.56089,
          "velocity": 0.6220472440944882
        },
        {
          "duration": 0.2439023333333239,
          "durationTicks": 32,
          "midi": 64,
          "name": "E4",
          "ticks": 25920,
          "time": 197.56089,
          "velocity": 0.6220472440944882
        },
        {
          "duration": 0.2439023333333239,
          "durationTicks": 32,
          "midi": 71,
          "name": "B4",
          "ticks": 25920,
          "time": 197.56089,
          "velocity": 0.6220472440944882
        },
        {
          "duration": 0.2439023333333239,
          "durationTicks": 32,
          "midi": 67,
          "name": "G4",
          "ticks": 25968,
          "time": 197.9267435,
          "velocity": 0.7480314960629921
        },
        {
          "duration": 0.2439023333333239,
          "durationTicks": 32,
          "midi": 64,
          "name": "E4",
          "ticks": 25968,
          "time": 197.9267435,
          "velocity": 0.7480314960629921
        },
        {
          "duration": 0.2439023333333239,
          "durationTicks": 32,
          "midi": 71,
          "name": "B4",
          "ticks": 25968,
          "time": 197.9267435,
          "velocity": 0.7480314960629921
        },
        {
          "duration": 0.2439023333333239,
          "durationTicks": 32,
          "midi": 67,
          "name": "G4",
          "ticks": 26016,
          "time": 198.292597,
          "velocity": 0.6220472440944882
        },
        {
          "duration": 0.2439023333333239,
          "durationTicks": 32,
          "midi": 64,
          "name": "E4",
          "ticks": 26016,
          "time": 198.292597,
          "velocity": 0.6220472440944882
        },
        {
          "duration": 0.2439023333333239,
          "durationTicks": 32,
          "midi": 71,
          "name": "B4",
          "ticks": 26016,
          "time": 198.292597,
          "velocity": 0.6220472440944882
        },
        {
          "duration": 0.2439023333333239,
          "durationTicks": 32,
          "midi": 67,
          "name": "G4",
          "ticks": 26064,
          "time": 198.6584505,
          "velocity": 0.7480314960629921
        },
        {
          "duration": 0.2439023333333239,
          "durationTicks": 32,
          "midi": 64,
          "name": "E4",
          "ticks": 26064,
          "time": 198.6584505,
          "velocity": 0.7480314960629921
        },
        {
          "duration": 0.2439023333333239,
          "durationTicks": 32,
          "midi": 71,
          "name": "B4",
          "ticks": 26064,
          "time": 198.6584505,
          "velocity": 0.7480314960629921
        },
        {
          "duration": 0.2439023333333239,
          "durationTicks": 32,
          "midi": 67,
          "name": "G4",
          "ticks": 26112,
          "time": 199.024304,
          "velocity": 0.6220472440944882
        },
        {
          "duration": 0.2439023333333239,
          "durationTicks": 32,
          "midi": 64,
          "name": "E4",
          "ticks": 26112,
          "time": 199.024304,
          "velocity": 0.6220472440944882
        },
        {
          "duration": 0.2439023333333239,
          "durationTicks": 32,
          "midi": 71,
          "name": "B4",
          "ticks": 26112,
          "time": 199.024304,
          "velocity": 0.6220472440944882
        },
        {
          "duration": 0.2439023333333239,
          "durationTicks": 32,
          "midi": 67,
          "name": "G4",
          "ticks": 26160,
          "time": 199.3901575,
          "velocity": 0.7480314960629921
        },
        {
          "duration": 0.2439023333333239,
          "durationTicks": 32,
          "midi": 64,
          "name": "E4",
          "ticks": 26160,
          "time": 199.3901575,
          "velocity": 0.7480314960629921
        },
        {
          "duration": 0.2439023333333239,
          "durationTicks": 32,
          "midi": 71,
          "name": "B4",
          "ticks": 26160,
          "time": 199.3901575,
          "velocity": 0.7480314960629921
        },
        {
          "duration": 0.2439023333333239,
          "durationTicks": 32,
          "midi": 67,
          "name": "G4",
          "ticks": 26208,
          "time": 199.756011,
          "velocity": 0.6220472440944882
        },
        {
          "duration": 0.2439023333333239,
          "durationTicks": 32,
          "midi": 64,
          "name": "E4",
          "ticks": 26208,
          "time": 199.756011,
          "velocity": 0.6220472440944882
        },
        {
          "duration": 0.2439023333333239,
          "durationTicks": 32,
          "midi": 71,
          "name": "B4",
          "ticks": 26208,
          "time": 199.756011,
          "velocity": 0.6220472440944882
        },
        {
          "duration": 0.2439023333333239,
          "durationTicks": 32,
          "midi": 67,
          "name": "G4",
          "ticks": 26256,
          "time": 200.1218645,
          "velocity": 0.7480314960629921
        },
        {
          "duration": 0.2439023333333239,
          "durationTicks": 32,
          "midi": 64,
          "name": "E4",
          "ticks": 26256,
          "time": 200.1218645,
          "velocity": 0.7480314960629921
        },
        {
          "duration": 0.2439023333333239,
          "durationTicks": 32,
          "midi": 71,
          "name": "B4",
          "ticks": 26256,
          "time": 200.1218645,
          "velocity": 0.7480314960629921
        },
        {
          "duration": 0.2439023333333239,
          "durationTicks": 32,
          "midi": 64,
          "name": "E4",
          "ticks": 26304,
          "time": 200.487718,
          "velocity": 0.6220472440944882
        },
        {
          "duration": 0.2439023333333239,
          "durationTicks": 32,
          "midi": 60,
          "name": "C4",
          "ticks": 26304,
          "time": 200.487718,
          "velocity": 0.6220472440944882
        },
        {
          "duration": 0.2439023333333239,
          "durationTicks": 32,
          "midi": 67,
          "name": "G4",
          "ticks": 26304,
          "time": 200.487718,
          "velocity": 0.6220472440944882
        },
        {
          "duration": 0.2439023333333239,
          "durationTicks": 32,
          "midi": 64,
          "name": "E4",
          "ticks": 26352,
          "time": 200.8535715,
          "velocity": 0.7480314960629921
        },
        {
          "duration": 0.2439023333333239,
          "durationTicks": 32,
          "midi": 60,
          "name": "C4",
          "ticks": 26352,
          "time": 200.8535715,
          "velocity": 0.7480314960629921
        },
        {
          "duration": 0.2439023333333239,
          "durationTicks": 32,
          "midi": 67,
          "name": "G4",
          "ticks": 26352,
          "time": 200.8535715,
          "velocity": 0.7480314960629921
        },
        {
          "duration": 0.2439023333333239,
          "durationTicks": 32,
          "midi": 64,
          "name": "E4",
          "ticks": 26400,
          "time": 201.219425,
          "velocity": 0.6220472440944882
        },
        {
          "duration": 0.2439023333333239,
          "durationTicks": 32,
          "midi": 60,
          "name": "C4",
          "ticks": 26400,
          "time": 201.219425,
          "velocity": 0.6220472440944882
        },
        {
          "duration": 0.2439023333333239,
          "durationTicks": 32,
          "midi": 67,
          "name": "G4",
          "ticks": 26400,
          "time": 201.219425,
          "velocity": 0.6220472440944882
        },
        {
          "duration": 0.2439023333333239,
          "durationTicks": 32,
          "midi": 64,
          "name": "E4",
          "ticks": 26448,
          "time": 201.5852785,
          "velocity": 0.7480314960629921
        },
        {
          "duration": 0.2439023333333239,
          "durationTicks": 32,
          "midi": 60,
          "name": "C4",
          "ticks": 26448,
          "time": 201.5852785,
          "velocity": 0.7480314960629921
        },
        {
          "duration": 0.2439023333333239,
          "durationTicks": 32,
          "midi": 67,
          "name": "G4",
          "ticks": 26448,
          "time": 201.5852785,
          "velocity": 0.7480314960629921
        },
        {
          "duration": 0.2439023333333239,
          "durationTicks": 32,
          "midi": 67,
          "name": "G4",
          "ticks": 26496,
          "time": 201.951132,
          "velocity": 0.6220472440944882
        },
        {
          "duration": 0.2439023333333239,
          "durationTicks": 32,
          "midi": 64,
          "name": "E4",
          "ticks": 26496,
          "time": 201.951132,
          "velocity": 0.6220472440944882
        },
        {
          "duration": 0.2439023333333239,
          "durationTicks": 32,
          "midi": 71,
          "name": "B4",
          "ticks": 26496,
          "time": 201.951132,
          "velocity": 0.6220472440944882
        },
        {
          "duration": 0.2439023333333239,
          "durationTicks": 32,
          "midi": 67,
          "name": "G4",
          "ticks": 26544,
          "time": 202.3169855,
          "velocity": 0.7480314960629921
        },
        {
          "duration": 0.2439023333333239,
          "durationTicks": 32,
          "midi": 64,
          "name": "E4",
          "ticks": 26544,
          "time": 202.3169855,
          "velocity": 0.7480314960629921
        },
        {
          "duration": 0.2439023333333239,
          "durationTicks": 32,
          "midi": 71,
          "name": "B4",
          "ticks": 26544,
          "time": 202.3169855,
          "velocity": 0.7480314960629921
        },
        {
          "duration": 0.2439023333333239,
          "durationTicks": 32,
          "midi": 67,
          "name": "G4",
          "ticks": 26592,
          "time": 202.682839,
          "velocity": 0.6220472440944882
        },
        {
          "duration": 0.2439023333333239,
          "durationTicks": 32,
          "midi": 64,
          "name": "E4",
          "ticks": 26592,
          "time": 202.682839,
          "velocity": 0.6220472440944882
        },
        {
          "duration": 0.2439023333333239,
          "durationTicks": 32,
          "midi": 71,
          "name": "B4",
          "ticks": 26592,
          "time": 202.682839,
          "velocity": 0.6220472440944882
        },
        {
          "duration": 0.2439023333333239,
          "durationTicks": 32,
          "midi": 67,
          "name": "G4",
          "ticks": 26640,
          "time": 203.0486925,
          "velocity": 0.7480314960629921
        },
        {
          "duration": 0.2439023333333239,
          "durationTicks": 32,
          "midi": 64,
          "name": "E4",
          "ticks": 26640,
          "time": 203.0486925,
          "velocity": 0.7480314960629921
        },
        {
          "duration": 0.2439023333333239,
          "durationTicks": 32,
          "midi": 71,
          "name": "B4",
          "ticks": 26640,
          "time": 203.0486925,
          "velocity": 0.7480314960629921
        },
        {
          "duration": 0.2439023333333239,
          "durationTicks": 32,
          "midi": 64,
          "name": "E4",
          "ticks": 26688,
          "time": 203.414546,
          "velocity": 0.6220472440944882
        },
        {
          "duration": 0.2439023333333239,
          "durationTicks": 32,
          "midi": 60,
          "name": "C4",
          "ticks": 26688,
          "time": 203.414546,
          "velocity": 0.6220472440944882
        },
        {
          "duration": 0.2439023333333239,
          "durationTicks": 32,
          "midi": 69,
          "name": "A4",
          "ticks": 26688,
          "time": 203.414546,
          "velocity": 0.6220472440944882
        },
        {
          "duration": 0.2439023333333239,
          "durationTicks": 32,
          "midi": 64,
          "name": "E4",
          "ticks": 26736,
          "time": 203.7803995,
          "velocity": 0.7480314960629921
        },
        {
          "duration": 0.2439023333333239,
          "durationTicks": 32,
          "midi": 60,
          "name": "C4",
          "ticks": 26736,
          "time": 203.7803995,
          "velocity": 0.7480314960629921
        },
        {
          "duration": 0.2439023333333239,
          "durationTicks": 32,
          "midi": 69,
          "name": "A4",
          "ticks": 26736,
          "time": 203.7803995,
          "velocity": 0.7480314960629921
        },
        {
          "duration": 0.2439023333333239,
          "durationTicks": 32,
          "midi": 64,
          "name": "E4",
          "ticks": 26784,
          "time": 204.146253,
          "velocity": 0.6220472440944882
        },
        {
          "duration": 0.2439023333333239,
          "durationTicks": 32,
          "midi": 60,
          "name": "C4",
          "ticks": 26784,
          "time": 204.146253,
          "velocity": 0.6220472440944882
        },
        {
          "duration": 0.2439023333333239,
          "durationTicks": 32,
          "midi": 69,
          "name": "A4",
          "ticks": 26784,
          "time": 204.146253,
          "velocity": 0.6220472440944882
        },
        {
          "duration": 0.2439023333333239,
          "durationTicks": 32,
          "midi": 64,
          "name": "E4",
          "ticks": 26832,
          "time": 204.5121065,
          "velocity": 0.7480314960629921
        },
        {
          "duration": 0.2439023333333239,
          "durationTicks": 32,
          "midi": 60,
          "name": "C4",
          "ticks": 26832,
          "time": 204.5121065,
          "velocity": 0.7480314960629921
        },
        {
          "duration": 0.2439023333333239,
          "durationTicks": 32,
          "midi": 69,
          "name": "A4",
          "ticks": 26832,
          "time": 204.5121065,
          "velocity": 0.7480314960629921
        },
        {
          "duration": 0.2439023333333239,
          "durationTicks": 32,
          "midi": 64,
          "name": "E4",
          "ticks": 26880,
          "time": 204.87796,
          "velocity": 0.6220472440944882
        },
        {
          "duration": 0.2439023333333239,
          "durationTicks": 32,
          "midi": 60,
          "name": "C4",
          "ticks": 26880,
          "time": 204.87796,
          "velocity": 0.6220472440944882
        },
        {
          "duration": 0.2439023333333239,
          "durationTicks": 32,
          "midi": 69,
          "name": "A4",
          "ticks": 26880,
          "time": 204.87796,
          "velocity": 0.6220472440944882
        },
        {
          "duration": 0.2439023333333239,
          "durationTicks": 32,
          "midi": 64,
          "name": "E4",
          "ticks": 26928,
          "time": 205.2438135,
          "velocity": 0.7480314960629921
        },
        {
          "duration": 0.2439023333333239,
          "durationTicks": 32,
          "midi": 60,
          "name": "C4",
          "ticks": 26928,
          "time": 205.2438135,
          "velocity": 0.7480314960629921
        },
        {
          "duration": 0.2439023333333239,
          "durationTicks": 32,
          "midi": 69,
          "name": "A4",
          "ticks": 26928,
          "time": 205.2438135,
          "velocity": 0.7480314960629921
        },
        {
          "duration": 0.2439023333333239,
          "durationTicks": 32,
          "midi": 64,
          "name": "E4",
          "ticks": 26976,
          "time": 205.609667,
          "velocity": 0.6220472440944882
        },
        {
          "duration": 0.2439023333333239,
          "durationTicks": 32,
          "midi": 60,
          "name": "C4",
          "ticks": 26976,
          "time": 205.609667,
          "velocity": 0.6220472440944882
        },
        {
          "duration": 0.2439023333333239,
          "durationTicks": 32,
          "midi": 69,
          "name": "A4",
          "ticks": 26976,
          "time": 205.609667,
          "velocity": 0.6220472440944882
        },
        {
          "duration": 0.2439023333333239,
          "durationTicks": 32,
          "midi": 64,
          "name": "E4",
          "ticks": 27024,
          "time": 205.9755205,
          "velocity": 0.7480314960629921
        },
        {
          "duration": 0.2439023333333239,
          "durationTicks": 32,
          "midi": 60,
          "name": "C4",
          "ticks": 27024,
          "time": 205.9755205,
          "velocity": 0.7480314960629921
        },
        {
          "duration": 0.2439023333333239,
          "durationTicks": 32,
          "midi": 69,
          "name": "A4",
          "ticks": 27024,
          "time": 205.9755205,
          "velocity": 0.7480314960629921
        },
        {
          "duration": 0.2439023333333239,
          "durationTicks": 32,
          "midi": 67,
          "name": "G4",
          "ticks": 27120,
          "time": 206.7072275,
          "velocity": 0.7480314960629921
        },
        {
          "duration": 0.2439023333333239,
          "durationTicks": 32,
          "midi": 62,
          "name": "D4",
          "ticks": 27120,
          "time": 206.7072275,
          "velocity": 0.7480314960629921
        },
        {
          "duration": 0.2439023333333239,
          "durationTicks": 32,
          "midi": 71,
          "name": "B4",
          "ticks": 27120,
          "time": 206.7072275,
          "velocity": 0.7480314960629921
        },
        {
          "duration": 0.2439023333333239,
          "durationTicks": 32,
          "midi": 67,
          "name": "G4",
          "ticks": 27168,
          "time": 207.073081,
          "velocity": 0.6220472440944882
        },
        {
          "duration": 0.2439023333333239,
          "durationTicks": 32,
          "midi": 62,
          "name": "D4",
          "ticks": 27168,
          "time": 207.073081,
          "velocity": 0.6220472440944882
        },
        {
          "duration": 0.2439023333333239,
          "durationTicks": 32,
          "midi": 71,
          "name": "B4",
          "ticks": 27168,
          "time": 207.073081,
          "velocity": 0.6220472440944882
        },
        {
          "duration": 0.2439023333333239,
          "durationTicks": 32,
          "midi": 67,
          "name": "G4",
          "ticks": 27216,
          "time": 207.4389345,
          "velocity": 0.7480314960629921
        },
        {
          "duration": 0.2439023333333239,
          "durationTicks": 32,
          "midi": 62,
          "name": "D4",
          "ticks": 27216,
          "time": 207.4389345,
          "velocity": 0.7480314960629921
        },
        {
          "duration": 0.2439023333333239,
          "durationTicks": 32,
          "midi": 71,
          "name": "B4",
          "ticks": 27216,
          "time": 207.4389345,
          "velocity": 0.7480314960629921
        },
        {
          "duration": 0.2439023333333239,
          "durationTicks": 32,
          "midi": 66,
          "name": "F#4",
          "ticks": 27264,
          "time": 207.804788,
          "velocity": 0.6220472440944882
        },
        {
          "duration": 0.2439023333333239,
          "durationTicks": 32,
          "midi": 62,
          "name": "D4",
          "ticks": 27264,
          "time": 207.804788,
          "velocity": 0.6220472440944882
        },
        {
          "duration": 0.2439023333333239,
          "durationTicks": 32,
          "midi": 71,
          "name": "B4",
          "ticks": 27264,
          "time": 207.804788,
          "velocity": 0.6220472440944882
        },
        {
          "duration": 0.2439023333333239,
          "durationTicks": 32,
          "midi": 66,
          "name": "F#4",
          "ticks": 27312,
          "time": 208.1706415,
          "velocity": 0.7480314960629921
        },
        {
          "duration": 0.2439023333333239,
          "durationTicks": 32,
          "midi": 62,
          "name": "D4",
          "ticks": 27312,
          "time": 208.1706415,
          "velocity": 0.7480314960629921
        },
        {
          "duration": 0.2439023333333239,
          "durationTicks": 32,
          "midi": 71,
          "name": "B4",
          "ticks": 27312,
          "time": 208.1706415,
          "velocity": 0.7480314960629921
        },
        {
          "duration": 0.2439023333333239,
          "durationTicks": 32,
          "midi": 66,
          "name": "F#4",
          "ticks": 27360,
          "time": 208.536495,
          "velocity": 0.6220472440944882
        },
        {
          "duration": 0.2439023333333239,
          "durationTicks": 32,
          "midi": 62,
          "name": "D4",
          "ticks": 27360,
          "time": 208.536495,
          "velocity": 0.6220472440944882
        },
        {
          "duration": 0.2439023333333239,
          "durationTicks": 32,
          "midi": 71,
          "name": "B4",
          "ticks": 27360,
          "time": 208.536495,
          "velocity": 0.6220472440944882
        },
        {
          "duration": 0.2439023333333239,
          "durationTicks": 32,
          "midi": 66,
          "name": "F#4",
          "ticks": 27408,
          "time": 208.9023485,
          "velocity": 0.7480314960629921
        },
        {
          "duration": 0.2439023333333239,
          "durationTicks": 32,
          "midi": 62,
          "name": "D4",
          "ticks": 27408,
          "time": 208.9023485,
          "velocity": 0.7480314960629921
        },
        {
          "duration": 0.2439023333333239,
          "durationTicks": 32,
          "midi": 71,
          "name": "B4",
          "ticks": 27408,
          "time": 208.9023485,
          "velocity": 0.7480314960629921
        },
        {
          "duration": 0.2439023333333239,
          "durationTicks": 32,
          "midi": 67,
          "name": "G4",
          "ticks": 27456,
          "time": 209.268202,
          "velocity": 0.6220472440944882
        },
        {
          "duration": 0.2439023333333239,
          "durationTicks": 32,
          "midi": 64,
          "name": "E4",
          "ticks": 27456,
          "time": 209.268202,
          "velocity": 0.6220472440944882
        },
        {
          "duration": 0.2439023333333239,
          "durationTicks": 32,
          "midi": 71,
          "name": "B4",
          "ticks": 27456,
          "time": 209.268202,
          "velocity": 0.6220472440944882
        },
        {
          "duration": 0.2439023333333239,
          "durationTicks": 32,
          "midi": 67,
          "name": "G4",
          "ticks": 27504,
          "time": 209.6340555,
          "velocity": 0.7480314960629921
        },
        {
          "duration": 0.2439023333333239,
          "durationTicks": 32,
          "midi": 64,
          "name": "E4",
          "ticks": 27504,
          "time": 209.6340555,
          "velocity": 0.7480314960629921
        },
        {
          "duration": 0.2439023333333239,
          "durationTicks": 32,
          "midi": 71,
          "name": "B4",
          "ticks": 27504,
          "time": 209.6340555,
          "velocity": 0.7480314960629921
        },
        {
          "duration": 0.2439023333333239,
          "durationTicks": 32,
          "midi": 67,
          "name": "G4",
          "ticks": 27552,
          "time": 209.999909,
          "velocity": 0.6220472440944882
        },
        {
          "duration": 0.2439023333333239,
          "durationTicks": 32,
          "midi": 64,
          "name": "E4",
          "ticks": 27552,
          "time": 209.999909,
          "velocity": 0.6220472440944882
        },
        {
          "duration": 0.2439023333333239,
          "durationTicks": 32,
          "midi": 71,
          "name": "B4",
          "ticks": 27552,
          "time": 209.999909,
          "velocity": 0.6220472440944882
        },
        {
          "duration": 0.2439023333333239,
          "durationTicks": 32,
          "midi": 67,
          "name": "G4",
          "ticks": 27600,
          "time": 210.3657625,
          "velocity": 0.7480314960629921
        },
        {
          "duration": 0.2439023333333239,
          "durationTicks": 32,
          "midi": 64,
          "name": "E4",
          "ticks": 27600,
          "time": 210.3657625,
          "velocity": 0.7480314960629921
        },
        {
          "duration": 0.2439023333333239,
          "durationTicks": 32,
          "midi": 71,
          "name": "B4",
          "ticks": 27600,
          "time": 210.3657625,
          "velocity": 0.7480314960629921
        },
        {
          "duration": 0.2439023333333239,
          "durationTicks": 32,
          "midi": 67,
          "name": "G4",
          "ticks": 27648,
          "time": 210.731616,
          "velocity": 0.6220472440944882
        },
        {
          "duration": 0.2439023333333239,
          "durationTicks": 32,
          "midi": 64,
          "name": "E4",
          "ticks": 27648,
          "time": 210.731616,
          "velocity": 0.6220472440944882
        },
        {
          "duration": 0.2439023333333239,
          "durationTicks": 32,
          "midi": 71,
          "name": "B4",
          "ticks": 27648,
          "time": 210.731616,
          "velocity": 0.6220472440944882
        },
        {
          "duration": 0.2439023333333239,
          "durationTicks": 32,
          "midi": 67,
          "name": "G4",
          "ticks": 27696,
          "time": 211.0974695,
          "velocity": 0.7480314960629921
        },
        {
          "duration": 0.2439023333333239,
          "durationTicks": 32,
          "midi": 64,
          "name": "E4",
          "ticks": 27696,
          "time": 211.0974695,
          "velocity": 0.7480314960629921
        },
        {
          "duration": 0.2439023333333239,
          "durationTicks": 32,
          "midi": 71,
          "name": "B4",
          "ticks": 27696,
          "time": 211.0974695,
          "velocity": 0.7480314960629921
        },
        {
          "duration": 0.2439023333333239,
          "durationTicks": 32,
          "midi": 67,
          "name": "G4",
          "ticks": 27744,
          "time": 211.463323,
          "velocity": 0.6220472440944882
        },
        {
          "duration": 0.2439023333333239,
          "durationTicks": 32,
          "midi": 64,
          "name": "E4",
          "ticks": 27744,
          "time": 211.463323,
          "velocity": 0.6220472440944882
        },
        {
          "duration": 0.2439023333333239,
          "durationTicks": 32,
          "midi": 71,
          "name": "B4",
          "ticks": 27744,
          "time": 211.463323,
          "velocity": 0.6220472440944882
        },
        {
          "duration": 0.2439023333333239,
          "durationTicks": 32,
          "midi": 67,
          "name": "G4",
          "ticks": 27792,
          "time": 211.8291765,
          "velocity": 0.7480314960629921
        },
        {
          "duration": 0.2439023333333239,
          "durationTicks": 32,
          "midi": 64,
          "name": "E4",
          "ticks": 27792,
          "time": 211.8291765,
          "velocity": 0.7480314960629921
        },
        {
          "duration": 0.2439023333333239,
          "durationTicks": 32,
          "midi": 71,
          "name": "B4",
          "ticks": 27792,
          "time": 211.8291765,
          "velocity": 0.7480314960629921
        },
        {
          "duration": 0.2439023333333239,
          "durationTicks": 32,
          "midi": 64,
          "name": "E4",
          "ticks": 27840,
          "time": 212.19503,
          "velocity": 0.6220472440944882
        },
        {
          "duration": 0.2439023333333239,
          "durationTicks": 32,
          "midi": 60,
          "name": "C4",
          "ticks": 27840,
          "time": 212.19503,
          "velocity": 0.6220472440944882
        },
        {
          "duration": 0.2439023333333239,
          "durationTicks": 32,
          "midi": 67,
          "name": "G4",
          "ticks": 27840,
          "time": 212.19503,
          "velocity": 0.6220472440944882
        },
        {
          "duration": 0.2439023333333239,
          "durationTicks": 32,
          "midi": 64,
          "name": "E4",
          "ticks": 27888,
          "time": 212.5608835,
          "velocity": 0.7480314960629921
        },
        {
          "duration": 0.2439023333333239,
          "durationTicks": 32,
          "midi": 60,
          "name": "C4",
          "ticks": 27888,
          "time": 212.5608835,
          "velocity": 0.7480314960629921
        },
        {
          "duration": 0.2439023333333239,
          "durationTicks": 32,
          "midi": 67,
          "name": "G4",
          "ticks": 27888,
          "time": 212.5608835,
          "velocity": 0.7480314960629921
        },
        {
          "duration": 0.2439023333333239,
          "durationTicks": 32,
          "midi": 64,
          "name": "E4",
          "ticks": 27936,
          "time": 212.926737,
          "velocity": 0.6220472440944882
        },
        {
          "duration": 0.2439023333333239,
          "durationTicks": 32,
          "midi": 60,
          "name": "C4",
          "ticks": 27936,
          "time": 212.926737,
          "velocity": 0.6220472440944882
        },
        {
          "duration": 0.2439023333333239,
          "durationTicks": 32,
          "midi": 67,
          "name": "G4",
          "ticks": 27936,
          "time": 212.926737,
          "velocity": 0.6220472440944882
        },
        {
          "duration": 0.2439023333333239,
          "durationTicks": 32,
          "midi": 64,
          "name": "E4",
          "ticks": 27984,
          "time": 213.2925905,
          "velocity": 0.7480314960629921
        },
        {
          "duration": 0.2439023333333239,
          "durationTicks": 32,
          "midi": 60,
          "name": "C4",
          "ticks": 27984,
          "time": 213.2925905,
          "velocity": 0.7480314960629921
        },
        {
          "duration": 0.2439023333333239,
          "durationTicks": 32,
          "midi": 67,
          "name": "G4",
          "ticks": 27984,
          "time": 213.2925905,
          "velocity": 0.7480314960629921
        },
        {
          "duration": 0.2439023333333239,
          "durationTicks": 32,
          "midi": 65,
          "name": "F4",
          "ticks": 28032,
          "time": 213.658444,
          "velocity": 0.6220472440944882
        },
        {
          "duration": 0.2439023333333239,
          "durationTicks": 32,
          "midi": 60,
          "name": "C4",
          "ticks": 28032,
          "time": 213.658444,
          "velocity": 0.6220472440944882
        },
        {
          "duration": 0.2439023333333239,
          "durationTicks": 32,
          "midi": 69,
          "name": "A4",
          "ticks": 28032,
          "time": 213.658444,
          "velocity": 0.6220472440944882
        },
        {
          "duration": 0.2439023333333239,
          "durationTicks": 32,
          "midi": 65,
          "name": "F4",
          "ticks": 28080,
          "time": 214.0242975,
          "velocity": 0.7480314960629921
        },
        {
          "duration": 0.2439023333333239,
          "durationTicks": 32,
          "midi": 60,
          "name": "C4",
          "ticks": 28080,
          "time": 214.0242975,
          "velocity": 0.7480314960629921
        },
        {
          "duration": 0.2439023333333239,
          "durationTicks": 32,
          "midi": 69,
          "name": "A4",
          "ticks": 28080,
          "time": 214.0242975,
          "velocity": 0.7480314960629921
        },
        {
          "duration": 0.2439023333333239,
          "durationTicks": 32,
          "midi": 65,
          "name": "F4",
          "ticks": 28128,
          "time": 214.390151,
          "velocity": 0.6220472440944882
        },
        {
          "duration": 0.2439023333333239,
          "durationTicks": 32,
          "midi": 60,
          "name": "C4",
          "ticks": 28128,
          "time": 214.390151,
          "velocity": 0.6220472440944882
        },
        {
          "duration": 0.2439023333333239,
          "durationTicks": 32,
          "midi": 69,
          "name": "A4",
          "ticks": 28128,
          "time": 214.390151,
          "velocity": 0.6220472440944882
        },
        {
          "duration": 0.2439023333333239,
          "durationTicks": 32,
          "midi": 65,
          "name": "F4",
          "ticks": 28176,
          "time": 214.7560045,
          "velocity": 0.7480314960629921
        },
        {
          "duration": 0.2439023333333239,
          "durationTicks": 32,
          "midi": 60,
          "name": "C4",
          "ticks": 28176,
          "time": 214.7560045,
          "velocity": 0.7480314960629921
        },
        {
          "duration": 0.2439023333333239,
          "durationTicks": 32,
          "midi": 69,
          "name": "A4",
          "ticks": 28176,
          "time": 214.7560045,
          "velocity": 0.7480314960629921
        },
        {
          "duration": 0.2439023333333239,
          "durationTicks": 32,
          "midi": 67,
          "name": "G4",
          "ticks": 28224,
          "time": 215.121858,
          "velocity": 0.6220472440944882
        },
        {
          "duration": 0.2439023333333239,
          "durationTicks": 32,
          "midi": 64,
          "name": "E4",
          "ticks": 28224,
          "time": 215.121858,
          "velocity": 0.6220472440944882
        },
        {
          "duration": 0.2439023333333239,
          "durationTicks": 32,
          "midi": 71,
          "name": "B4",
          "ticks": 28224,
          "time": 215.121858,
          "velocity": 0.6220472440944882
        },
        {
          "duration": 0.2439023333333239,
          "durationTicks": 32,
          "midi": 67,
          "name": "G4",
          "ticks": 28272,
          "time": 215.4877115,
          "velocity": 0.6220472440944882
        },
        {
          "duration": 0.2439023333333239,
          "durationTicks": 32,
          "midi": 64,
          "name": "E4",
          "ticks": 28272,
          "time": 215.4877115,
          "velocity": 0.6220472440944882
        },
        {
          "duration": 0.2439023333333239,
          "durationTicks": 32,
          "midi": 71,
          "name": "B4",
          "ticks": 28272,
          "time": 215.4877115,
          "velocity": 0.6220472440944882
        },
        {
          "duration": 0.2439023333333239,
          "durationTicks": 32,
          "midi": 67,
          "name": "G4",
          "ticks": 28320,
          "time": 215.853565,
          "velocity": 0.6220472440944882
        },
        {
          "duration": 0.2439023333333239,
          "durationTicks": 32,
          "midi": 64,
          "name": "E4",
          "ticks": 28320,
          "time": 215.853565,
          "velocity": 0.6220472440944882
        },
        {
          "duration": 0.2439023333333239,
          "durationTicks": 32,
          "midi": 71,
          "name": "B4",
          "ticks": 28320,
          "time": 215.853565,
          "velocity": 0.6220472440944882
        },
        {
          "duration": 0.2439023333333239,
          "durationTicks": 32,
          "midi": 67,
          "name": "G4",
          "ticks": 28368,
          "time": 216.2194185,
          "velocity": 0.6220472440944882
        },
        {
          "duration": 0.2439023333333239,
          "durationTicks": 32,
          "midi": 64,
          "name": "E4",
          "ticks": 28368,
          "time": 216.2194185,
          "velocity": 0.6220472440944882
        },
        {
          "duration": 0.2439023333333239,
          "durationTicks": 32,
          "midi": 71,
          "name": "B4",
          "ticks": 28368,
          "time": 216.2194185,
          "velocity": 0.6220472440944882
        },
        {
          "duration": 0.2439023333333239,
          "durationTicks": 32,
          "midi": 67,
          "name": "G4",
          "ticks": 28416,
          "time": 216.585272,
          "velocity": 0.6220472440944882
        },
        {
          "duration": 0.2439023333333239,
          "durationTicks": 32,
          "midi": 64,
          "name": "E4",
          "ticks": 28416,
          "time": 216.585272,
          "velocity": 0.6220472440944882
        },
        {
          "duration": 0.2439023333333239,
          "durationTicks": 32,
          "midi": 71,
          "name": "B4",
          "ticks": 28416,
          "time": 216.585272,
          "velocity": 0.6220472440944882
        },
        {
          "duration": 0.2439023333333239,
          "durationTicks": 32,
          "midi": 67,
          "name": "G4",
          "ticks": 28464,
          "time": 216.9511255,
          "velocity": 0.6220472440944882
        },
        {
          "duration": 0.2439023333333239,
          "durationTicks": 32,
          "midi": 64,
          "name": "E4",
          "ticks": 28464,
          "time": 216.9511255,
          "velocity": 0.6220472440944882
        },
        {
          "duration": 0.2439023333333239,
          "durationTicks": 32,
          "midi": 71,
          "name": "B4",
          "ticks": 28464,
          "time": 216.9511255,
          "velocity": 0.6220472440944882
        },
        {
          "duration": 0.2439023333333239,
          "durationTicks": 32,
          "midi": 67,
          "name": "G4",
          "ticks": 28512,
          "time": 217.316979,
          "velocity": 0.6220472440944882
        },
        {
          "duration": 0.2439023333333239,
          "durationTicks": 32,
          "midi": 64,
          "name": "E4",
          "ticks": 28512,
          "time": 217.316979,
          "velocity": 0.6220472440944882
        },
        {
          "duration": 0.2439023333333239,
          "durationTicks": 32,
          "midi": 71,
          "name": "B4",
          "ticks": 28512,
          "time": 217.316979,
          "velocity": 0.6220472440944882
        },
        {
          "duration": 0.2439023333333239,
          "durationTicks": 32,
          "midi": 67,
          "name": "G4",
          "ticks": 28560,
          "time": 217.6828325,
          "velocity": 0.6220472440944882
        },
        {
          "duration": 0.2439023333333239,
          "durationTicks": 32,
          "midi": 64,
          "name": "E4",
          "ticks": 28560,
          "time": 217.6828325,
          "velocity": 0.6220472440944882
        },
        {
          "duration": 0.2439023333333239,
          "durationTicks": 32,
          "midi": 71,
          "name": "B4",
          "ticks": 28560,
          "time": 217.6828325,
          "velocity": 0.6220472440944882
        },
        {
          "duration": 0.2439023333333239,
          "durationTicks": 32,
          "midi": 67,
          "name": "G4",
          "ticks": 28608,
          "time": 218.048686,
          "velocity": 0.6220472440944882
        },
        {
          "duration": 0.2439023333333239,
          "durationTicks": 32,
          "midi": 64,
          "name": "E4",
          "ticks": 28608,
          "time": 218.048686,
          "velocity": 0.6220472440944882
        },
        {
          "duration": 0.2439023333333239,
          "durationTicks": 32,
          "midi": 60,
          "name": "C4",
          "ticks": 28608,
          "time": 218.048686,
          "velocity": 0.6220472440944882
        },
        {
          "duration": 0.2439023333333239,
          "durationTicks": 32,
          "midi": 64,
          "name": "E4",
          "ticks": 28656,
          "time": 218.4145395,
          "velocity": 0.7480314960629921
        },
        {
          "duration": 0.2439023333333239,
          "durationTicks": 32,
          "midi": 60,
          "name": "C4",
          "ticks": 28656,
          "time": 218.4145395,
          "velocity": 0.7480314960629921
        },
        {
          "duration": 0.2439023333333239,
          "durationTicks": 32,
          "midi": 67,
          "name": "G4",
          "ticks": 28656,
          "time": 218.4145395,
          "velocity": 0.7480314960629921
        },
        {
          "duration": 0.2439023333333239,
          "durationTicks": 32,
          "midi": 64,
          "name": "E4",
          "ticks": 28704,
          "time": 218.780393,
          "velocity": 0.6220472440944882
        },
        {
          "duration": 0.2439023333333239,
          "durationTicks": 32,
          "midi": 60,
          "name": "C4",
          "ticks": 28704,
          "time": 218.780393,
          "velocity": 0.6220472440944882
        },
        {
          "duration": 0.2439023333333239,
          "durationTicks": 32,
          "midi": 67,
          "name": "G4",
          "ticks": 28704,
          "time": 218.780393,
          "velocity": 0.6220472440944882
        },
        {
          "duration": 0.2439023333333239,
          "durationTicks": 32,
          "midi": 64,
          "name": "E4",
          "ticks": 28752,
          "time": 219.1462465,
          "velocity": 0.7480314960629921
        },
        {
          "duration": 0.2439023333333239,
          "durationTicks": 32,
          "midi": 60,
          "name": "C4",
          "ticks": 28752,
          "time": 219.1462465,
          "velocity": 0.7480314960629921
        },
        {
          "duration": 0.2439023333333239,
          "durationTicks": 32,
          "midi": 67,
          "name": "G4",
          "ticks": 28752,
          "time": 219.1462465,
          "velocity": 0.7480314960629921
        },
        {
          "duration": 0.2439023333333239,
          "durationTicks": 32,
          "midi": 67,
          "name": "G4",
          "ticks": 28800,
          "time": 219.5121,
          "velocity": 0.6220472440944882
        },
        {
          "duration": 0.2439023333333239,
          "durationTicks": 32,
          "midi": 64,
          "name": "E4",
          "ticks": 28800,
          "time": 219.5121,
          "velocity": 0.6220472440944882
        },
        {
          "duration": 0.2439023333333239,
          "durationTicks": 32,
          "midi": 60,
          "name": "C4",
          "ticks": 28800,
          "time": 219.5121,
          "velocity": 0.6220472440944882
        },
        {
          "duration": 0.2439023333333239,
          "durationTicks": 32,
          "midi": 64,
          "name": "E4",
          "ticks": 28848,
          "time": 219.8779535,
          "velocity": 0.7480314960629921
        },
        {
          "duration": 0.2439023333333239,
          "durationTicks": 32,
          "midi": 60,
          "name": "C4",
          "ticks": 28848,
          "time": 219.8779535,
          "velocity": 0.7480314960629921
        },
        {
          "duration": 0.2439023333333239,
          "durationTicks": 32,
          "midi": 67,
          "name": "G4",
          "ticks": 28848,
          "time": 219.8779535,
          "velocity": 0.7480314960629921
        },
        {
          "duration": 0.2439023333333239,
          "durationTicks": 32,
          "midi": 64,
          "name": "E4",
          "ticks": 28896,
          "time": 220.243807,
          "velocity": 0.6220472440944882
        },
        {
          "duration": 0.2439023333333239,
          "durationTicks": 32,
          "midi": 60,
          "name": "C4",
          "ticks": 28896,
          "time": 220.243807,
          "velocity": 0.6220472440944882
        },
        {
          "duration": 0.2439023333333239,
          "durationTicks": 32,
          "midi": 67,
          "name": "G4",
          "ticks": 28896,
          "time": 220.243807,
          "velocity": 0.6220472440944882
        },
        {
          "duration": 0.2439023333333239,
          "durationTicks": 32,
          "midi": 64,
          "name": "E4",
          "ticks": 28944,
          "time": 220.6096605,
          "velocity": 0.7480314960629921
        },
        {
          "duration": 0.2439023333333239,
          "durationTicks": 32,
          "midi": 60,
          "name": "C4",
          "ticks": 28944,
          "time": 220.6096605,
          "velocity": 0.7480314960629921
        },
        {
          "duration": 0.2439023333333239,
          "durationTicks": 32,
          "midi": 67,
          "name": "G4",
          "ticks": 28944,
          "time": 220.6096605,
          "velocity": 0.7480314960629921
        },
        {
          "duration": 0.4878046666666762,
          "durationTicks": 64,
          "midi": 67,
          "name": "G4",
          "ticks": 28992,
          "time": 220.975514,
          "velocity": 0.6220472440944882
        },
        {
          "duration": 0.4878046666666762,
          "durationTicks": 64,
          "midi": 64,
          "name": "E4",
          "ticks": 28992,
          "time": 220.975514,
          "velocity": 0.6220472440944882
        },
        {
          "duration": 0.4878046666666762,
          "durationTicks": 64,
          "midi": 71,
          "name": "B4",
          "ticks": 28992,
          "time": 220.975514,
          "velocity": 0.6220472440944882
        },
        {
          "duration": 0.4878046666666762,
          "durationTicks": 64,
          "midi": 67,
          "name": "G4",
          "ticks": 29088,
          "time": 221.707221,
          "velocity": 0.6220472440944882
        },
        {
          "duration": 0.4878046666666762,
          "durationTicks": 64,
          "midi": 64,
          "name": "E4",
          "ticks": 29088,
          "time": 221.707221,
          "velocity": 0.6220472440944882
        },
        {
          "duration": 0.4878046666666762,
          "durationTicks": 64,
          "midi": 71,
          "name": "B4",
          "ticks": 29088,
          "time": 221.707221,
          "velocity": 0.6220472440944882
        }
      ]
    },
    {
      "channel": 0,
      "controlChanges": {
        "0": [
          {
            "number": 0,
            "ticks": 192,
            "time": 1.463414,
            "value": 0
          }
        ],
        "32": [
          {
            "number": 32,
            "ticks": 194,
            "time": 1.4786578958333334,
            "value": 0
          }
        ]
      },
      "pitchBends": [],
      "instrument": {
        "family": "piano",
        "number": 0,
        "name": "acoustic grand piano"
      },
      "name": "Piano",
      "notes": [],
      "endOfTrackTicks": 29360
    },
    {
      "channel": 3,
      "controlChanges": {
        "1": [
          {
            "number": 1,
            "ticks": 198,
            "time": 1.5091456875,
            "value": 0
          }
        ],
        "7": [
          {
            "number": 7,
            "ticks": 200,
            "time": 1.5243895833333334,
            "value": 0.905511811023622
          },
          {
            "number": 7,
            "ticks": 480,
            "time": 3.658535,
            "value": 0.905511811023622
          }
        ],
        "10": [
          {
            "number": 10,
            "ticks": 202,
            "time": 1.5396334791666666,
            "value": 0.7795275590551181
          }
        ],
        "11": [
          {
            "number": 11,
            "ticks": 204,
            "time": 1.554877375,
            "value": 1
          }
        ],
        "64": [
          {
            "number": 64,
            "ticks": 206,
            "time": 1.5701212708333334,
            "value": 0
          }
        ],
        "91": [
          {
            "number": 91,
            "ticks": 208,
            "time": 1.5853651666666666,
            "value": 0.7559055118110236
          },
          {
            "number": 91,
            "ticks": 480,
            "time": 3.658535,
            "value": 0.7559055118110236
          }
        ],
        "93": [
          {
            "number": 93,
            "ticks": 210,
            "time": 1.6006090625,
            "value": 0.7559055118110236
          },
          {
            "number": 93,
            "ticks": 480,
            "time": 3.658535,
            "value": 0.7559055118110236
          }
        ]
      },
      "pitchBends": [
        {
          "ticks": 212,
          "time": 1.6158529583333334,
          "value": 0
        }
      ],
      "instrument": {
        "family": "piano",
        "number": 3,
        "name": "honky-tonk piano"
      },
      "name": "",
      "notes": [
        {
          "duration": 0.24390233333333455,
          "durationTicks": 32,
          "midi": 55,
          "name": "G3",
          "ticks": 1200,
          "time": 9.1463375,
          "velocity": 0.6220472440944882
        },
        {
          "duration": 0.24390233333333455,
          "durationTicks": 32,
          "midi": 52,
          "name": "E3",
          "ticks": 1200,
          "time": 9.1463375,
          "velocity": 0.6220472440944882
        },
        {
          "duration": 0.24390233333333455,
          "durationTicks": 32,
          "midi": 48,
          "name": "C3",
          "ticks": 1200,
          "time": 9.1463375,
          "velocity": 0.6220472440944882
        },
        {
          "duration": 0.24390233333333455,
          "durationTicks": 32,
          "midi": 36,
          "name": "C2",
          "ticks": 1200,
          "time": 9.1463375,
          "velocity": 0.6220472440944882
        },
        {
          "duration": 0.24390233333333455,
          "durationTicks": 32,
          "midi": 60,
          "name": "C4",
          "ticks": 1200,
          "time": 9.1463375,
          "velocity": 0.6220472440944882
        },
        {
          "duration": 0.24390233333333455,
          "durationTicks": 32,
          "midi": 55,
          "name": "G3",
          "ticks": 1248,
          "time": 9.512191,
          "velocity": 0.6220472440944882
        },
        {
          "duration": 0.24390233333333455,
          "durationTicks": 32,
          "midi": 52,
          "name": "E3",
          "ticks": 1248,
          "time": 9.512191,
          "velocity": 0.6220472440944882
        },
        {
          "duration": 0.24390233333333455,
          "durationTicks": 32,
          "midi": 48,
          "name": "C3",
          "ticks": 1248,
          "time": 9.512191,
          "velocity": 0.6220472440944882
        },
        {
          "duration": 0.24390233333333455,
          "durationTicks": 32,
          "midi": 36,
          "name": "C2",
          "ticks": 1248,
          "time": 9.512191,
          "velocity": 0.6220472440944882
        },
        {
          "duration": 0.24390233333333455,
          "durationTicks": 32,
          "midi": 60,
          "name": "C4",
          "ticks": 1248,
          "time": 9.512191,
          "velocity": 0.6220472440944882
        },
        {
          "duration": 0.6097558333333346,
          "durationTicks": 80,
          "midi": 55,
          "name": "G3",
          "ticks": 1296,
          "time": 9.8780445,
          "velocity": 0.6220472440944882
        },
        {
          "duration": 0.6097558333333346,
          "durationTicks": 80,
          "midi": 52,
          "name": "E3",
          "ticks": 1296,
          "time": 9.8780445,
          "velocity": 0.6220472440944882
        },
        {
          "duration": 0.6097558333333346,
          "durationTicks": 80,
          "midi": 48,
          "name": "C3",
          "ticks": 1296,
          "time": 9.8780445,
          "velocity": 0.6220472440944882
        },
        {
          "duration": 0.6097558333333346,
          "durationTicks": 80,
          "midi": 36,
          "name": "C2",
          "ticks": 1296,
          "time": 9.8780445,
          "velocity": 0.6220472440944882
        },
        {
          "duration": 0.6097558333333346,
          "durationTicks": 80,
          "midi": 60,
          "name": "C4",
          "ticks": 1296,
          "time": 9.8780445,
          "velocity": 0.6220472440944882
        },
        {
          "duration": 0.24390233333333455,
          "durationTicks": 32,
          "midi": 55,
          "name": "G3",
          "ticks": 1392,
          "time": 10.6097515,
          "velocity": 0.6220472440944882
        },
        {
          "duration": 0.24390233333333455,
          "durationTicks": 32,
          "midi": 52,
          "name": "E3",
          "ticks": 1392,
          "time": 10.6097515,
          "velocity": 0.6220472440944882
        },
        {
          "duration": 0.24390233333333455,
          "durationTicks": 32,
          "midi": 48,
          "name": "C3",
          "ticks": 1392,
          "time": 10.6097515,
          "velocity": 0.6220472440944882
        },
        {
          "duration": 0.24390233333333455,
          "durationTicks": 32,
          "midi": 36,
          "name": "C2",
          "ticks": 1392,
          "time": 10.6097515,
          "velocity": 0.6220472440944882
        },
        {
          "duration": 0.24390233333333455,
          "durationTicks": 32,
          "midi": 60,
          "name": "C4",
          "ticks": 1392,
          "time": 10.6097515,
          "velocity": 0.6220472440944882
        },
        {
          "duration": 0.48780466666666555,
          "durationTicks": 64,
          "midi": 55,
          "name": "G3",
          "ticks": 1440,
          "time": 10.975605,
          "velocity": 0.6220472440944882
        },
        {
          "duration": 0.48780466666666555,
          "durationTicks": 64,
          "midi": 52,
          "name": "E3",
          "ticks": 1440,
          "time": 10.975605,
          "velocity": 0.6220472440944882
        },
        {
          "duration": 0.48780466666666555,
          "durationTicks": 64,
          "midi": 48,
          "name": "C3",
          "ticks": 1440,
          "time": 10.975605,
          "velocity": 0.6220472440944882
        },
        {
          "duration": 0.48780466666666555,
          "durationTicks": 64,
          "midi": 36,
          "name": "C2",
          "ticks": 1440,
          "time": 10.975605,
          "velocity": 0.6220472440944882
        },
        {
          "duration": 0.48780466666666555,
          "durationTicks": 64,
          "midi": 60,
          "name": "C4",
          "ticks": 1440,
          "time": 10.975605,
          "velocity": 0.6220472440944882
        },
        {
          "duration": 0.24390233333333278,
          "durationTicks": 32,
          "midi": 59,
          "name": "B3",
          "ticks": 1584,
          "time": 12.0731655,
          "velocity": 0.6220472440944882
        },
        {
          "duration": 0.24390233333333278,
          "durationTicks": 32,
          "midi": 55,
          "name": "G3",
          "ticks": 1584,
          "time": 12.0731655,
          "velocity": 0.6220472440944882
        },
        {
          "duration": 0.24390233333333278,
          "durationTicks": 32,
          "midi": 48,
          "name": "C3",
          "ticks": 1584,
          "time": 12.0731655,
          "velocity": 0.6220472440944882
        },
        {
          "duration": 0.24390233333333278,
          "durationTicks": 32,
          "midi": 36,
          "name": "C2",
          "ticks": 1584,
          "time": 12.0731655,
          "velocity": 0.6220472440944882
        },
        {
          "duration": 0.24390233333333278,
          "durationTicks": 32,
          "midi": 64,
          "name": "E4",
          "ticks": 1584,
          "time": 12.0731655,
          "velocity": 0.6220472440944882
        },
        {
          "duration": 0.24390233333333278,
          "durationTicks": 32,
          "midi": 59,
          "name": "B3",
          "ticks": 1632,
          "time": 12.439019,
          "velocity": 0.6220472440944882
        },
        {
          "duration": 0.24390233333333278,
          "durationTicks": 32,
          "midi": 55,
          "name": "G3",
          "ticks": 1632,
          "time": 12.439019,
          "velocity": 0.6220472440944882
        },
        {
          "duration": 0.24390233333333278,
          "durationTicks": 32,
          "midi": 48,
          "name": "C3",
          "ticks": 1632,
          "time": 12.439019,
          "velocity": 0.6220472440944882
        },
        {
          "duration": 0.24390233333333278,
          "durationTicks": 32,
          "midi": 36,
          "name": "C2",
          "ticks": 1632,
          "time": 12.439019,
          "velocity": 0.6220472440944882
        },
        {
          "duration": 0.24390233333333278,
          "durationTicks": 32,
          "midi": 64,
          "name": "E4",
          "ticks": 1632,
          "time": 12.439019,
          "velocity": 0.6220472440944882
        },
        {
          "duration": 0.6097558333333328,
          "durationTicks": 80,
          "midi": 59,
          "name": "B3",
          "ticks": 1680,
          "time": 12.8048725,
          "velocity": 0.6220472440944882
        },
        {
          "duration": 0.6097558333333328,
          "durationTicks": 80,
          "midi": 55,
          "name": "G3",
          "ticks": 1680,
          "time": 12.8048725,
          "velocity": 0.6220472440944882
        },
        {
          "duration": 0.6097558333333328,
          "durationTicks": 80,
          "midi": 48,
          "name": "C3",
          "ticks": 1680,
          "time": 12.8048725,
          "velocity": 0.6220472440944882
        },
        {
          "duration": 0.6097558333333328,
          "durationTicks": 80,
          "midi": 36,
          "name": "C2",
          "ticks": 1680,
          "time": 12.8048725,
          "velocity": 0.6220472440944882
        },
        {
          "duration": 0.6097558333333328,
          "durationTicks": 80,
          "midi": 64,
          "name": "E4",
          "ticks": 1680,
          "time": 12.8048725,
          "velocity": 0.6220472440944882
        },
        {
          "duration": 0.24390233333333278,
          "durationTicks": 32,
          "midi": 59,
          "name": "B3",
          "ticks": 1776,
          "time": 13.5365795,
          "velocity": 0.6220472440944882
        },
        {
          "duration": 0.24390233333333278,
          "durationTicks": 32,
          "midi": 55,
          "name": "G3",
          "ticks": 1776,
          "time": 13.5365795,
          "velocity": 0.6220472440944882
        },
        {
          "duration": 0.24390233333333278,
          "durationTicks": 32,
          "midi": 36,
          "name": "C2",
          "ticks": 1776,
          "time": 13.5365795,
          "velocity": 0.6220472440944882
        },
        {
          "duration": 0.24390233333333278,
          "durationTicks": 32,
          "midi": 48,
          "name": "C3",
          "ticks": 1776,
          "time": 13.5365795,
          "velocity": 0.6220472440944882
        },
        {
          "duration": 0.24390233333333278,
          "durationTicks": 32,
          "midi": 64,
          "name": "E4",
          "ticks": 1776,
          "time": 13.5365795,
          "velocity": 0.6220472440944882
        },
        {
          "duration": 0.48780466666666733,
          "durationTicks": 64,
          "midi": 59,
          "name": "B3",
          "ticks": 1824,
          "time": 13.902433,
          "velocity": 0.6220472440944882
        },
        {
          "duration": 0.48780466666666733,
          "durationTicks": 64,
          "midi": 55,
          "name": "G3",
          "ticks": 1824,
          "time": 13.902433,
          "velocity": 0.6220472440944882
        },
        {
          "duration": 0.48780466666666733,
          "durationTicks": 64,
          "midi": 36,
          "name": "C2",
          "ticks": 1824,
          "time": 13.902433,
          "velocity": 0.6220472440944882
        },
        {
          "duration": 0.48780466666666733,
          "durationTicks": 64,
          "midi": 48,
          "name": "C3",
          "ticks": 1824,
          "time": 13.902433,
          "velocity": 0.6220472440944882
        },
        {
          "duration": 0.48780466666666733,
          "durationTicks": 64,
          "midi": 64,
          "name": "E4",
          "ticks": 1824,
          "time": 13.902433,
          "velocity": 0.6220472440944882
        },
        {
          "duration": 0.48780466666666733,
          "durationTicks": 64,
          "midi": 62,
          "name": "D4",
          "ticks": 1920,
          "time": 14.63414,
          "velocity": 0.6220472440944882
        },
        {
          "duration": 0.48780466666666733,
          "durationTicks": 64,
          "midi": 59,
          "name": "B3",
          "ticks": 1920,
          "time": 14.63414,
          "velocity": 0.6220472440944882
        },
        {
          "duration": 0.9603654375000001,
          "durationTicks": 126,
          "midi": 43,
          "name": "G2",
          "ticks": 1920,
          "time": 14.63414,
          "velocity": 0.6220472440944882
        },
        {
          "duration": 0.48780466666666733,
          "durationTicks": 64,
          "midi": 67,
          "name": "G4",
          "ticks": 1920,
          "time": 14.63414,
          "velocity": 0.6220472440944882
        },
        {
          "duration": 0.48780466666666733,
          "durationTicks": 64,
          "midi": 62,
          "name": "D4",
          "ticks": 2016,
          "time": 15.365847,
          "velocity": 0.6220472440944882
        },
        {
          "duration": 0.48780466666666733,
          "durationTicks": 64,
          "midi": 59,
          "name": "B3",
          "ticks": 2016,
          "time": 15.365847,
          "velocity": 0.6220472440944882
        },
        {
          "duration": 0.48780466666666733,
          "durationTicks": 64,
          "midi": 67,
          "name": "G4",
          "ticks": 2016,
          "time": 15.365847,
          "velocity": 0.6220472440944882
        },
        {
          "duration": 0.4878046666666691,
          "durationTicks": 64,
          "midi": 62,
          "name": "D4",
          "ticks": 2112,
          "time": 16.097554,
          "velocity": 0.6220472440944882
        },
        {
          "duration": 0.4878046666666691,
          "durationTicks": 64,
          "midi": 59,
          "name": "B3",
          "ticks": 2112,
          "time": 16.097554,
          "velocity": 0.6220472440944882
        },
        {
          "duration": 0.9603654375000019,
          "durationTicks": 126,
          "midi": 42,
          "name": "F#2",
          "ticks": 2112,
          "time": 16.097554,
          "velocity": 0.6220472440944882
        },
        {
          "duration": 0.4878046666666691,
          "durationTicks": 64,
          "midi": 66,
          "name": "F#4",
          "ticks": 2112,
          "time": 16.097554,
          "velocity": 0.6220472440944882
        },
        {
          "duration": 0.4878046666666691,
          "durationTicks": 64,
          "midi": 62,
          "name": "D4",
          "ticks": 2208,
          "time": 16.829261,
          "velocity": 0.6220472440944882
        },
        {
          "duration": 0.4878046666666691,
          "durationTicks": 64,
          "midi": 59,
          "name": "B3",
          "ticks": 2208,
          "time": 16.829261,
          "velocity": 0.6220472440944882
        },
        {
          "duration": 0.4878046666666691,
          "durationTicks": 64,
          "midi": 66,
          "name": "F#4",
          "ticks": 2208,
          "time": 16.829261,
          "velocity": 0.6220472440944882
        },
        {
          "duration": 1.935974770833333,
          "durationTicks": 254,
          "midi": 40,
          "name": "E2",
          "ticks": 2304,
          "time": 17.560968,
          "velocity": 0.6220472440944882
        },
        {
          "duration": 0.4878046666666691,
          "durationTicks": 64,
          "midi": 59,
          "name": "B3",
          "ticks": 2304,
          "time": 17.560968,
          "velocity": 0.6220472440944882
        },
        {
          "duration": 0.4878046666666691,
          "durationTicks": 64,
          "midi": 55,
          "name": "G3",
          "ticks": 2304,
          "time": 17.560968,
          "velocity": 0.6220472440944882
        },
        {
          "duration": 0.4878046666666691,
          "durationTicks": 64,
          "midi": 64,
          "name": "E4",
          "ticks": 2304,
          "time": 17.560968,
          "velocity": 0.6220472440944882
        },
        {
          "duration": 0.4878046666666691,
          "durationTicks": 64,
          "midi": 59,
          "name": "B3",
          "ticks": 2400,
          "time": 18.292675,
          "velocity": 0.6220472440944882
        },
        {
          "duration": 0.4878046666666691,
          "durationTicks": 64,
          "midi": 55,
          "name": "G3",
          "ticks": 2400,
          "time": 18.292675,
          "velocity": 0.6220472440944882
        },
        {
          "duration": 0.4878046666666691,
          "durationTicks": 64,
          "midi": 64,
          "name": "E4",
          "ticks": 2400,
          "time": 18.292675,
          "velocity": 0.6220472440944882
        },
        {
          "duration": 0.4878046666666691,
          "durationTicks": 64,
          "midi": 59,
          "name": "B3",
          "ticks": 2496,
          "time": 19.024382,
          "velocity": 0.6220472440944882
        },
        {
          "duration": 0.4878046666666691,
          "durationTicks": 64,
          "midi": 55,
          "name": "G3",
          "ticks": 2496,
          "time": 19.024382,
          "velocity": 0.6220472440944882
        },
        {
          "duration": 0.4878046666666691,
          "durationTicks": 64,
          "midi": 64,
          "name": "E4",
          "ticks": 2496,
          "time": 19.024382,
          "velocity": 0.6220472440944882
        },
        {
          "duration": 0.4878046666666691,
          "durationTicks": 64,
          "midi": 59,
          "name": "B3",
          "ticks": 2592,
          "time": 19.756089,
          "velocity": 0.6220472440944882
        },
        {
          "duration": 0.4878046666666691,
          "durationTicks": 64,
          "midi": 55,
          "name": "G3",
          "ticks": 2592,
          "time": 19.756089,
          "velocity": 0.6220472440944882
        },
        {
          "duration": 0.4878046666666691,
          "durationTicks": 64,
          "midi": 64,
          "name": "E4",
          "ticks": 2592,
          "time": 19.756089,
          "velocity": 0.6220472440944882
        },
        {
          "duration": 0.4878046666666691,
          "durationTicks": 64,
          "midi": 60,
          "name": "C4",
          "ticks": 2688,
          "time": 20.487796,
          "velocity": 0.6220472440944882
        },
        {
          "duration": 0.4878046666666691,
          "durationTicks": 64,
          "midi": 55,
          "name": "G3",
          "ticks": 2688,
          "time": 20.487796,
          "velocity": 0.6220472440944882
        },
        {
          "duration": 0.9603654375000019,
          "durationTicks": 126,
          "midi": 48,
          "name": "C3",
          "ticks": 2688,
          "time": 20.487796,
          "velocity": 0.6220472440944882
        },
        {
          "duration": 0.4878046666666691,
          "durationTicks": 64,
          "midi": 64,
          "name": "E4",
          "ticks": 2688,
          "time": 20.487796,
          "velocity": 0.6220472440944882
        },
        {
          "duration": 0.4878046666666691,
          "durationTicks": 64,
          "midi": 60,
          "name": "C4",
          "ticks": 2784,
          "time": 21.219503,
          "velocity": 0.6220472440944882
        },
        {
          "duration": 0.4878046666666691,
          "durationTicks": 64,
          "midi": 55,
          "name": "G3",
          "ticks": 2784,
          "time": 21.219503,
          "velocity": 0.6220472440944882
        },
        {
          "duration": 0.4878046666666691,
          "durationTicks": 64,
          "midi": 64,
          "name": "E4",
          "ticks": 2784,
          "time": 21.219503,
          "velocity": 0.6220472440944882
        },
        {
          "duration": 0.4878046666666691,
          "durationTicks": 64,
          "midi": 59,
          "name": "B3",
          "ticks": 2880,
          "time": 21.95121,
          "velocity": 0.6220472440944882
        },
        {
          "duration": 0.4878046666666691,
          "durationTicks": 64,
          "midi": 55,
          "name": "G3",
          "ticks": 2880,
          "time": 21.95121,
          "velocity": 0.6220472440944882
        },
        {
          "duration": 0.9603654375000019,
          "durationTicks": 126,
          "midi": 47,
          "name": "B2",
          "ticks": 2880,
          "time": 21.95121,
          "velocity": 0.6220472440944882
        },
        {
          "duration": 0.4878046666666691,
          "durationTicks": 64,
          "midi": 64,
          "name": "E4",
          "ticks": 2880,
          "time": 21.95121,
          "velocity": 0.6220472440944882
        },
        {
          "duration": 0.4878046666666691,
          "durationTicks": 64,
          "midi": 59,
          "name": "B3",
          "ticks": 2976,
          "time": 22.682917,
          "velocity": 0.6220472440944882
        },
        {
          "duration": 0.4878046666666691,
          "durationTicks": 64,
          "midi": 55,
          "name": "G3",
          "ticks": 2976,
          "time": 22.682917,
          "velocity": 0.6220472440944882
        },
        {
          "duration": 0.4878046666666691,
          "durationTicks": 64,
          "midi": 64,
          "name": "E4",
          "ticks": 2976,
          "time": 22.682917,
          "velocity": 0.6220472440944882
        },
        {
          "duration": 0.48780466666666555,
          "durationTicks": 64,
          "midi": 60,
          "name": "C4",
          "ticks": 3072,
          "time": 23.414624,
          "velocity": 0.6220472440944882
        },
        {
          "duration": 0.48780466666666555,
          "durationTicks": 64,
          "midi": 57,
          "name": "A3",
          "ticks": 3072,
          "time": 23.414624,
          "velocity": 0.6220472440944882
        },
        {
          "duration": 0.9603654374999984,
          "durationTicks": 126,
          "midi": 45,
          "name": "A2",
          "ticks": 3072,
          "time": 23.414624,
          "velocity": 0.6220472440944882
        },
        {
          "duration": 0.48780466666666555,
          "durationTicks": 64,
          "midi": 64,
          "name": "E4",
          "ticks": 3072,
          "time": 23.414624,
          "velocity": 0.6220472440944882
        },
        {
          "duration": 0.48780466666666555,
          "durationTicks": 64,
          "midi": 60,
          "name": "C4",
          "ticks": 3168,
          "time": 24.146331,
          "velocity": 0.6220472440944882
        },
        {
          "duration": 0.48780466666666555,
          "durationTicks": 64,
          "midi": 57,
          "name": "A3",
          "ticks": 3168,
          "time": 24.146331,
          "velocity": 0.6220472440944882
        },
        {
          "duration": 0.48780466666666555,
          "durationTicks": 64,
          "midi": 64,
          "name": "E4",
          "ticks": 3168,
          "time": 24.146331,
          "velocity": 0.6220472440944882
        },
        {
          "duration": 0.9603654374999984,
          "durationTicks": 126,
          "midi": 45,
          "name": "A2",
          "ticks": 3264,
          "time": 24.878038,
          "velocity": 0.6220472440944882
        },
        {
          "duration": 0.1219511666666655,
          "durationTicks": 16,
          "midi": 59,
          "name": "B3",
          "ticks": 3312,
          "time": 25.2438915,
          "velocity": 0.7480314960629921
        },
        {
          "duration": 0.1219511666666655,
          "durationTicks": 16,
          "midi": 60,
          "name": "C4",
          "ticks": 3312,
          "time": 25.2438915,
          "velocity": 0.7480314960629921
        },
        {
          "duration": 0.1219511666666655,
          "durationTicks": 16,
          "midi": 57,
          "name": "A3",
          "ticks": 3336,
          "time": 25.42681825,
          "velocity": 0.7480314960629921
        },
        {
          "duration": 0.48780466666666555,
          "durationTicks": 64,
          "midi": 59,
          "name": "B3",
          "ticks": 3360,
          "time": 25.609745,
          "velocity": 0.7480314960629921
        },
        {
          "duration": 0.48780466666666555,
          "durationTicks": 64,
          "midi": 60,
          "name": "C4",
          "ticks": 3360,
          "time": 25.609745,
          "velocity": 0.7480314960629921
        },
        {
          "duration": 0.48780466666666555,
          "durationTicks": 64,
          "midi": 62,
          "name": "D4",
          "ticks": 3456,
          "time": 26.341452,
          "velocity": 0.6220472440944882
        },
        {
          "duration": 0.48780466666666555,
          "durationTicks": 64,
          "midi": 59,
          "name": "B3",
          "ticks": 3456,
          "time": 26.341452,
          "velocity": 0.6220472440944882
        },
        {
          "duration": 0.9603654374999984,
          "durationTicks": 126,
          "midi": 43,
          "name": "G2",
          "ticks": 3456,
          "time": 26.341452,
          "velocity": 0.6220472440944882
        },
        {
          "duration": 0.48780466666666555,
          "durationTicks": 64,
          "midi": 67,
          "name": "G4",
          "ticks": 3456,
          "time": 26.341452,
          "velocity": 0.6220472440944882
        },
        {
          "duration": 0.48780466666666555,
          "durationTicks": 64,
          "midi": 62,
          "name": "D4",
          "ticks": 3552,
          "time": 27.073159,
          "velocity": 0.6220472440944882
        },
        {
          "duration": 0.48780466666666555,
          "durationTicks": 64,
          "midi": 59,
          "name": "B3",
          "ticks": 3552,
          "time": 27.073159,
          "velocity": 0.6220472440944882
        },
        {
          "duration": 0.48780466666666555,
          "durationTicks": 64,
          "midi": 67,
          "name": "G4",
          "ticks": 3552,
          "time": 27.073159,
          "velocity": 0.6220472440944882
        },
        {
          "duration": 0.48780466666666555,
          "durationTicks": 64,
          "midi": 62,
          "name": "D4",
          "ticks": 3648,
          "time": 27.804866,
          "velocity": 0.6220472440944882
        },
        {
          "duration": 0.48780466666666555,
          "durationTicks": 64,
          "midi": 59,
          "name": "B3",
          "ticks": 3648,
          "time": 27.804866,
          "velocity": 0.6220472440944882
        },
        {
          "duration": 0.9603654374999984,
          "durationTicks": 126,
          "midi": 47,
          "name": "B2",
          "ticks": 3648,
          "time": 27.804866,
          "velocity": 0.6220472440944882
        },
        {
          "duration": 0.48780466666666555,
          "durationTicks": 64,
          "midi": 66,
          "name": "F#4",
          "ticks": 3648,
          "time": 27.804866,
          "velocity": 0.6220472440944882
        },
        {
          "duration": 0.48780466666666555,
          "durationTicks": 64,
          "midi": 62,
          "name": "D4",
          "ticks": 3744,
          "time": 28.536573,
          "velocity": 0.6220472440944882
        },
        {
          "duration": 0.48780466666666555,
          "durationTicks": 64,
          "midi": 59,
          "name": "B3",
          "ticks": 3744,
          "time": 28.536573,
          "velocity": 0.6220472440944882
        },
        {
          "duration": 0.48780466666666555,
          "durationTicks": 64,
          "midi": 66,
          "name": "F#4",
          "ticks": 3744,
          "time": 28.536573,
          "velocity": 0.6220472440944882
        },
        {
          "duration": 0.48780466666666555,
          "durationTicks": 64,
          "midi": 59,
          "name": "B3",
          "ticks": 3840,
          "time": 29.26828,
          "velocity": 0.6220472440944882
        },
        {
          "duration": 0.48780466666666555,
          "durationTicks": 64,
          "midi": 55,
          "name": "G3",
          "ticks": 3840,
          "time": 29.26828,
          "velocity": 0.6220472440944882
        },
        {
          "duration": 1.935974770833333,
          "durationTicks": 254,
          "midi": 40,
          "name": "E2",
          "ticks": 3840,
          "time": 29.26828,
          "velocity": 0.6220472440944882
        },
        {
          "duration": 0.48780466666666555,
          "durationTicks": 64,
          "midi": 64,
          "name": "E4",
          "ticks": 3840,
          "time": 29.26828,
          "velocity": 0.6220472440944882
        },
        {
          "duration": 0.48780466666666555,
          "durationTicks": 64,
          "midi": 59,
          "name": "B3",
          "ticks": 3936,
          "time": 29.999987,
          "velocity": 0.6220472440944882
        },
        {
          "duration": 0.48780466666666555,
          "durationTicks": 64,
          "midi": 55,
          "name": "G3",
          "ticks": 3936,
          "time": 29.999987,
          "velocity": 0.6220472440944882
        },
        {
          "duration": 0.48780466666666555,
          "durationTicks": 64,
          "midi": 64,
          "name": "E4",
          "ticks": 3936,
          "time": 29.999987,
          "velocity": 0.6220472440944882
        },
        {
          "duration": 0.48780466666666555,
          "durationTicks": 64,
          "midi": 59,
          "name": "B3",
          "ticks": 4032,
          "time": 30.731694,
          "velocity": 0.6220472440944882
        },
        {
          "duration": 0.48780466666666555,
          "durationTicks": 64,
          "midi": 55,
          "name": "G3",
          "ticks": 4032,
          "time": 30.731694,
          "velocity": 0.6220472440944882
        },
        {
          "duration": 0.48780466666666555,
          "durationTicks": 64,
          "midi": 64,
          "name": "E4",
          "ticks": 4032,
          "time": 30.731694,
          "velocity": 0.6220472440944882
        },
        {
          "duration": 0.487804666666662,
          "durationTicks": 64,
          "midi": 59,
          "name": "B3",
          "ticks": 4128,
          "time": 31.463401,
          "velocity": 0.6220472440944882
        },
        {
          "duration": 0.487804666666662,
          "durationTicks": 64,
          "midi": 55,
          "name": "G3",
          "ticks": 4128,
          "time": 31.463401,
          "velocity": 0.6220472440944882
        },
        {
          "duration": 0.487804666666662,
          "durationTicks": 64,
          "midi": 64,
          "name": "E4",
          "ticks": 4128,
          "time": 31.463401,
          "velocity": 0.6220472440944882
        },
        {
          "duration": 0.4878046666666691,
          "durationTicks": 64,
          "midi": 60,
          "name": "C4",
          "ticks": 4224,
          "time": 32.195108,
          "velocity": 0.6220472440944882
        },
        {
          "duration": 0.4878046666666691,
          "durationTicks": 64,
          "midi": 55,
          "name": "G3",
          "ticks": 4224,
          "time": 32.195108,
          "velocity": 0.6220472440944882
        },
        {
          "duration": 0.9603654375000019,
          "durationTicks": 126,
          "midi": 48,
          "name": "C3",
          "ticks": 4224,
          "time": 32.195108,
          "velocity": 0.6220472440944882
        },
        {
          "duration": 0.4878046666666691,
          "durationTicks": 64,
          "midi": 64,
          "name": "E4",
          "ticks": 4224,
          "time": 32.195108,
          "velocity": 0.6220472440944882
        },
        {
          "duration": 0.4878046666666691,
          "durationTicks": 64,
          "midi": 60,
          "name": "C4",
          "ticks": 4320,
          "time": 32.926815,
          "velocity": 0.6220472440944882
        },
        {
          "duration": 0.4878046666666691,
          "durationTicks": 64,
          "midi": 55,
          "name": "G3",
          "ticks": 4320,
          "time": 32.926815,
          "velocity": 0.6220472440944882
        },
        {
          "duration": 0.4878046666666691,
          "durationTicks": 64,
          "midi": 64,
          "name": "E4",
          "ticks": 4320,
          "time": 32.926815,
          "velocity": 0.6220472440944882
        },
        {
          "duration": 0.4878046666666691,
          "durationTicks": 64,
          "midi": 60,
          "name": "C4",
          "ticks": 4416,
          "time": 33.658522,
          "velocity": 0.6220472440944882
        },
        {
          "duration": 0.4878046666666691,
          "durationTicks": 64,
          "midi": 57,
          "name": "A3",
          "ticks": 4416,
          "time": 33.658522,
          "velocity": 0.6220472440944882
        },
        {
          "duration": 0.9603654375000019,
          "durationTicks": 126,
          "midi": 41,
          "name": "F2",
          "ticks": 4416,
          "time": 33.658522,
          "velocity": 0.6220472440944882
        },
        {
          "duration": 0.4878046666666691,
          "durationTicks": 64,
          "midi": 65,
          "name": "F4",
          "ticks": 4416,
          "time": 33.658522,
          "velocity": 0.6220472440944882
        },
        {
          "duration": 0.4878046666666691,
          "durationTicks": 64,
          "midi": 60,
          "name": "C4",
          "ticks": 4512,
          "time": 34.390229,
          "velocity": 0.6220472440944882
        },
        {
          "duration": 0.4878046666666691,
          "durationTicks": 64,
          "midi": 57,
          "name": "A3",
          "ticks": 4512,
          "time": 34.390229,
          "velocity": 0.6220472440944882
        },
        {
          "duration": 0.4878046666666691,
          "durationTicks": 64,
          "midi": 65,
          "name": "F4",
          "ticks": 4512,
          "time": 34.390229,
          "velocity": 0.6220472440944882
        },
        {
          "duration": 0.9603654375000019,
          "durationTicks": 126,
          "midi": 40,
          "name": "E2",
          "ticks": 4608,
          "time": 35.121936,
          "velocity": 0.6220472440944882
        },
        {
          "duration": 0.4878046666666691,
          "durationTicks": 64,
          "midi": 59,
          "name": "B3",
          "ticks": 4608,
          "time": 35.121936,
          "velocity": 0.6220472440944882
        },
        {
          "duration": 0.4878046666666691,
          "durationTicks": 64,
          "midi": 55,
          "name": "G3",
          "ticks": 4608,
          "time": 35.121936,
          "velocity": 0.6220472440944882
        },
        {
          "duration": 0.4878046666666691,
          "durationTicks": 64,
          "midi": 64,
          "name": "E4",
          "ticks": 4608,
          "time": 35.121936,
          "velocity": 0.6220472440944882
        },
        {
          "duration": 0.4878046666666691,
          "durationTicks": 64,
          "midi": 59,
          "name": "B3",
          "ticks": 4704,
          "time": 35.853643,
          "velocity": 0.6220472440944882
        },
        {
          "duration": 0.4878046666666691,
          "durationTicks": 64,
          "midi": 55,
          "name": "G3",
          "ticks": 4704,
          "time": 35.853643,
          "velocity": 0.6220472440944882
        },
        {
          "duration": 0.4878046666666691,
          "durationTicks": 64,
          "midi": 64,
          "name": "E4",
          "ticks": 4704,
          "time": 35.853643,
          "velocity": 0.6220472440944882
        },
        {
          "duration": 0.9603654375000019,
          "durationTicks": 126,
          "midi": 38,
          "name": "D2",
          "ticks": 4800,
          "time": 36.58535,
          "velocity": 0.6220472440944882
        },
        {
          "duration": 0.4878046666666691,
          "durationTicks": 64,
          "midi": 59,
          "name": "B3",
          "ticks": 4800,
          "time": 36.58535,
          "velocity": 0.6220472440944882
        },
        {
          "duration": 0.4878046666666691,
          "durationTicks": 64,
          "midi": 55,
          "name": "G3",
          "ticks": 4800,
          "time": 36.58535,
          "velocity": 0.6220472440944882
        },
        {
          "duration": 0.4878046666666691,
          "durationTicks": 64,
          "midi": 64,
          "name": "E4",
          "ticks": 4800,
          "time": 36.58535,
          "velocity": 0.6220472440944882
        },
        {
          "duration": 0.4878046666666691,
          "durationTicks": 64,
          "midi": 59,
          "name": "B3",
          "ticks": 4896,
          "time": 37.317057,
          "velocity": 0.6220472440944882
        },
        {
          "duration": 0.4878046666666691,
          "durationTicks": 64,
          "midi": 55,
          "name": "G3",
          "ticks": 4896,
          "time": 37.317057,
          "velocity": 0.6220472440944882
        },
        {
          "duration": 0.4878046666666691,
          "durationTicks": 64,
          "midi": 64,
          "name": "E4",
          "ticks": 4896,
          "time": 37.317057,
          "velocity": 0.6220472440944882
        },
        {
          "duration": 0.4878046666666691,
          "durationTicks": 64,
          "midi": 60,
          "name": "C4",
          "ticks": 4992,
          "time": 38.048764,
          "velocity": 0.6220472440944882
        },
        {
          "duration": 0.4878046666666691,
          "durationTicks": 64,
          "midi": 55,
          "name": "G3",
          "ticks": 4992,
          "time": 38.048764,
          "velocity": 0.6220472440944882
        },
        {
          "duration": 0.9603654375000019,
          "durationTicks": 126,
          "midi": 48,
          "name": "C3",
          "ticks": 4992,
          "time": 38.048764,
          "velocity": 0.6220472440944882
        },
        {
          "duration": 0.4878046666666691,
          "durationTicks": 64,
          "midi": 64,
          "name": "E4",
          "ticks": 4992,
          "time": 38.048764,
          "velocity": 0.6220472440944882
        },
        {
          "duration": 0.4878046666666691,
          "durationTicks": 64,
          "midi": 60,
          "name": "C4",
          "ticks": 5088,
          "time": 38.780471,
          "velocity": 0.6220472440944882
        },
        {
          "duration": 0.4878046666666691,
          "durationTicks": 64,
          "midi": 55,
          "name": "G3",
          "ticks": 5088,
          "time": 38.780471,
          "velocity": 0.6220472440944882
        },
        {
          "duration": 0.4878046666666691,
          "durationTicks": 64,
          "midi": 64,
          "name": "E4",
          "ticks": 5088,
          "time": 38.780471,
          "velocity": 0.6220472440944882
        },
        {
          "duration": 0.4878046666666691,
          "durationTicks": 64,
          "midi": 60,
          "name": "C4",
          "ticks": 5184,
          "time": 39.512178,
          "velocity": 0.6220472440944882
        },
        {
          "duration": 0.4878046666666691,
          "durationTicks": 64,
          "midi": 57,
          "name": "A3",
          "ticks": 5184,
          "time": 39.512178,
          "velocity": 0.6220472440944882
        },
        {
          "duration": 0.9603654375000019,
          "durationTicks": 126,
          "midi": 41,
          "name": "F2",
          "ticks": 5184,
          "time": 39.512178,
          "velocity": 0.6220472440944882
        },
        {
          "duration": 0.4878046666666691,
          "durationTicks": 64,
          "midi": 65,
          "name": "F4",
          "ticks": 5184,
          "time": 39.512178,
          "velocity": 0.6220472440944882
        },
        {
          "duration": 0.4878046666666691,
          "durationTicks": 64,
          "midi": 60,
          "name": "C4",
          "ticks": 5280,
          "time": 40.243885,
          "velocity": 0.6220472440944882
        },
        {
          "duration": 0.4878046666666691,
          "durationTicks": 64,
          "midi": 57,
          "name": "A3",
          "ticks": 5280,
          "time": 40.243885,
          "velocity": 0.6220472440944882
        },
        {
          "duration": 0.4878046666666691,
          "durationTicks": 64,
          "midi": 65,
          "name": "F4",
          "ticks": 5280,
          "time": 40.243885,
          "velocity": 0.6220472440944882
        },
        {
          "duration": 0.4878046666666691,
          "durationTicks": 64,
          "midi": 59,
          "name": "B3",
          "ticks": 5376,
          "time": 40.975592,
          "velocity": 0.6220472440944882
        },
        {
          "duration": 0.4878046666666691,
          "durationTicks": 64,
          "midi": 55,
          "name": "G3",
          "ticks": 5376,
          "time": 40.975592,
          "velocity": 0.6220472440944882
        },
        {
          "duration": 0.9603654375000019,
          "durationTicks": 126,
          "midi": 40,
          "name": "E2",
          "ticks": 5376,
          "time": 40.975592,
          "velocity": 0.6220472440944882
        },
        {
          "duration": 0.4878046666666691,
          "durationTicks": 64,
          "midi": 64,
          "name": "E4",
          "ticks": 5376,
          "time": 40.975592,
          "velocity": 0.6220472440944882
        },
        {
          "duration": 0.4878046666666691,
          "durationTicks": 64,
          "midi": 59,
          "name": "B3",
          "ticks": 5472,
          "time": 41.707299,
          "velocity": 0.6220472440944882
        },
        {
          "duration": 0.4878046666666691,
          "durationTicks": 64,
          "midi": 55,
          "name": "G3",
          "ticks": 5472,
          "time": 41.707299,
          "velocity": 0.6220472440944882
        },
        {
          "duration": 0.4878046666666691,
          "durationTicks": 64,
          "midi": 64,
          "name": "E4",
          "ticks": 5472,
          "time": 41.707299,
          "velocity": 0.6220472440944882
        },
        {
          "duration": 0.4878046666666691,
          "durationTicks": 64,
          "midi": 60,
          "name": "C4",
          "ticks": 5568,
          "time": 42.439006,
          "velocity": 0.6220472440944882
        },
        {
          "duration": 0.4878046666666691,
          "durationTicks": 64,
          "midi": 55,
          "name": "G3",
          "ticks": 5568,
          "time": 42.439006,
          "velocity": 0.6220472440944882
        },
        {
          "duration": 0.9603654375000019,
          "durationTicks": 126,
          "midi": 48,
          "name": "C3",
          "ticks": 5568,
          "time": 42.439006,
          "velocity": 0.6220472440944882
        },
        {
          "duration": 0.4878046666666691,
          "durationTicks": 64,
          "midi": 64,
          "name": "E4",
          "ticks": 5568,
          "time": 42.439006,
          "velocity": 0.6220472440944882
        },
        {
          "duration": 0.487804666666662,
          "durationTicks": 64,
          "midi": 60,
          "name": "C4",
          "ticks": 5664,
          "time": 43.170713,
          "velocity": 0.6220472440944882
        },
        {
          "duration": 0.487804666666662,
          "durationTicks": 64,
          "midi": 55,
          "name": "G3",
          "ticks": 5664,
          "time": 43.170713,
          "velocity": 0.6220472440944882
        },
        {
          "duration": 0.487804666666662,
          "durationTicks": 64,
          "midi": 64,
          "name": "E4",
          "ticks": 5664,
          "time": 43.170713,
          "velocity": 0.6220472440944882
        },
        {
          "duration": 0.487804666666662,
          "durationTicks": 64,
          "midi": 62,
          "name": "D4",
          "ticks": 5760,
          "time": 43.90242,
          "velocity": 0.6220472440944882
        },
        {
          "duration": 0.487804666666662,
          "durationTicks": 64,
          "midi": 59,
          "name": "B3",
          "ticks": 5760,
          "time": 43.90242,
          "velocity": 0.6220472440944882
        },
        {
          "duration": 0.9603654375000019,
          "durationTicks": 126,
          "midi": 43,
          "name": "G2",
          "ticks": 5760,
          "time": 43.90242,
          "velocity": 0.6220472440944882
        },
        {
          "duration": 0.487804666666662,
          "durationTicks": 64,
          "midi": 67,
          "name": "G4",
          "ticks": 5760,
          "time": 43.90242,
          "velocity": 0.6220472440944882
        },
        {
          "duration": 0.487804666666662,
          "durationTicks": 64,
          "midi": 62,
          "name": "D4",
          "ticks": 5856,
          "time": 44.634127,
          "velocity": 0.6220472440944882
        },
        {
          "duration": 0.487804666666662,
          "durationTicks": 64,
          "midi": 59,
          "name": "B3",
          "ticks": 5856,
          "time": 44.634127,
          "velocity": 0.6220472440944882
        },
        {
          "duration": 0.487804666666662,
          "durationTicks": 64,
          "midi": 67,
          "name": "G4",
          "ticks": 5856,
          "time": 44.634127,
          "velocity": 0.6220472440944882
        },
        {
          "duration": 0.487804666666662,
          "durationTicks": 64,
          "midi": 62,
          "name": "D4",
          "ticks": 5952,
          "time": 45.365834,
          "velocity": 0.6220472440944882
        },
        {
          "duration": 0.487804666666662,
          "durationTicks": 64,
          "midi": 59,
          "name": "B3",
          "ticks": 5952,
          "time": 45.365834,
          "velocity": 0.6220472440944882
        },
        {
          "duration": 0.9603654375000019,
          "durationTicks": 126,
          "midi": 42,
          "name": "F#2",
          "ticks": 5952,
          "time": 45.365834,
          "velocity": 0.6220472440944882
        },
        {
          "duration": 0.487804666666662,
          "durationTicks": 64,
          "midi": 66,
          "name": "F#4",
          "ticks": 5952,
          "time": 45.365834,
          "velocity": 0.6220472440944882
        },
        {
          "duration": 0.487804666666662,
          "durationTicks": 64,
          "midi": 62,
          "name": "D4",
          "ticks": 6048,
          "time": 46.097541,
          "velocity": 0.6220472440944882
        },
        {
          "duration": 0.487804666666662,
          "durationTicks": 64,
          "midi": 59,
          "name": "B3",
          "ticks": 6048,
          "time": 46.097541,
          "velocity": 0.6220472440944882
        },
        {
          "duration": 0.487804666666662,
          "durationTicks": 64,
          "midi": 66,
          "name": "F#4",
          "ticks": 6048,
          "time": 46.097541,
          "velocity": 0.6220472440944882
        },
        {
          "duration": 0.4878046666666691,
          "durationTicks": 64,
          "midi": 59,
          "name": "B3",
          "ticks": 6144,
          "time": 46.829248,
          "velocity": 0.6220472440944882
        },
        {
          "duration": 0.4878046666666691,
          "durationTicks": 64,
          "midi": 55,
          "name": "G3",
          "ticks": 6144,
          "time": 46.829248,
          "velocity": 0.6220472440944882
        },
        {
          "duration": 0.9603654375000019,
          "durationTicks": 126,
          "midi": 40,
          "name": "E2",
          "ticks": 6144,
          "time": 46.829248,
          "velocity": 0.6220472440944882
        },
        {
          "duration": 0.4878046666666691,
          "durationTicks": 64,
          "midi": 64,
          "name": "E4",
          "ticks": 6144,
          "time": 46.829248,
          "velocity": 0.6220472440944882
        },
        {
          "duration": 0.4878046666666691,
          "durationTicks": 64,
          "midi": 59,
          "name": "B3",
          "ticks": 6240,
          "time": 47.560955,
          "velocity": 0.6220472440944882
        },
        {
          "duration": 0.4878046666666691,
          "durationTicks": 64,
          "midi": 55,
          "name": "G3",
          "ticks": 6240,
          "time": 47.560955,
          "velocity": 0.6220472440944882
        },
        {
          "duration": 0.4878046666666691,
          "durationTicks": 64,
          "midi": 64,
          "name": "E4",
          "ticks": 6240,
          "time": 47.560955,
          "velocity": 0.6220472440944882
        },
        {
          "duration": 0.4878046666666691,
          "durationTicks": 64,
          "midi": 59,
          "name": "B3",
          "ticks": 6336,
          "time": 48.292662,
          "velocity": 0.6220472440944882
        },
        {
          "duration": 0.4878046666666691,
          "durationTicks": 64,
          "midi": 55,
          "name": "G3",
          "ticks": 6336,
          "time": 48.292662,
          "velocity": 0.6220472440944882
        },
        {
          "duration": 0.9603654375000019,
          "durationTicks": 126,
          "midi": 38,
          "name": "D2",
          "ticks": 6336,
          "time": 48.292662,
          "velocity": 0.6220472440944882
        },
        {
          "duration": 0.4878046666666691,
          "durationTicks": 64,
          "midi": 64,
          "name": "E4",
          "ticks": 6336,
          "time": 48.292662,
          "velocity": 0.6220472440944882
        },
        {
          "duration": 0.4878046666666691,
          "durationTicks": 64,
          "midi": 59,
          "name": "B3",
          "ticks": 6432,
          "time": 49.024369,
          "velocity": 0.6220472440944882
        },
        {
          "duration": 0.4878046666666691,
          "durationTicks": 64,
          "midi": 55,
          "name": "G3",
          "ticks": 6432,
          "time": 49.024369,
          "velocity": 0.6220472440944882
        },
        {
          "duration": 0.4878046666666691,
          "durationTicks": 64,
          "midi": 64,
          "name": "E4",
          "ticks": 6432,
          "time": 49.024369,
          "velocity": 0.6220472440944882
        },
        {
          "duration": 0.4878046666666691,
          "durationTicks": 64,
          "midi": 60,
          "name": "C4",
          "ticks": 6528,
          "time": 49.756076,
          "velocity": 0.6220472440944882
        },
        {
          "duration": 0.4878046666666691,
          "durationTicks": 64,
          "midi": 55,
          "name": "G3",
          "ticks": 6528,
          "time": 49.756076,
          "velocity": 0.6220472440944882
        },
        {
          "duration": 0.9603654375000019,
          "durationTicks": 126,
          "midi": 48,
          "name": "C3",
          "ticks": 6528,
          "time": 49.756076,
          "velocity": 0.6220472440944882
        },
        {
          "duration": 0.4878046666666691,
          "durationTicks": 64,
          "midi": 64,
          "name": "E4",
          "ticks": 6528,
          "time": 49.756076,
          "velocity": 0.6220472440944882
        },
        {
          "duration": 0.4878046666666691,
          "durationTicks": 64,
          "midi": 60,
          "name": "C4",
          "ticks": 6624,
          "time": 50.487783,
          "velocity": 0.6220472440944882
        },
        {
          "duration": 0.4878046666666691,
          "durationTicks": 64,
          "midi": 55,
          "name": "G3",
          "ticks": 6624,
          "time": 50.487783,
          "velocity": 0.6220472440944882
        },
        {
          "duration": 0.4878046666666691,
          "durationTicks": 64,
          "midi": 64,
          "name": "E4",
          "ticks": 6624,
          "time": 50.487783,
          "velocity": 0.6220472440944882
        },
        {
          "duration": 0.4878046666666691,
          "durationTicks": 64,
          "midi": 59,
          "name": "B3",
          "ticks": 6720,
          "time": 51.21949,
          "velocity": 0.6220472440944882
        },
        {
          "duration": 0.4878046666666691,
          "durationTicks": 64,
          "midi": 55,
          "name": "G3",
          "ticks": 6720,
          "time": 51.21949,
          "velocity": 0.6220472440944882
        },
        {
          "duration": 0.9603654375000019,
          "durationTicks": 126,
          "midi": 47,
          "name": "B2",
          "ticks": 6720,
          "time": 51.21949,
          "velocity": 0.6220472440944882
        },
        {
          "duration": 0.4878046666666691,
          "durationTicks": 64,
          "midi": 64,
          "name": "E4",
          "ticks": 6720,
          "time": 51.21949,
          "velocity": 0.6220472440944882
        },
        {
          "duration": 0.4878046666666691,
          "durationTicks": 64,
          "midi": 59,
          "name": "B3",
          "ticks": 6816,
          "time": 51.951197,
          "velocity": 0.6220472440944882
        },
        {
          "duration": 0.4878046666666691,
          "durationTicks": 64,
          "midi": 55,
          "name": "G3",
          "ticks": 6816,
          "time": 51.951197,
          "velocity": 0.6220472440944882
        },
        {
          "duration": 0.4878046666666691,
          "durationTicks": 64,
          "midi": 64,
          "name": "E4",
          "ticks": 6816,
          "time": 51.951197,
          "velocity": 0.6220472440944882
        },
        {
          "duration": 1.935974770833326,
          "durationTicks": 254,
          "midi": 45,
          "name": "A2",
          "ticks": 6912,
          "time": 52.682904,
          "velocity": 0.6220472440944882
        },
        {
          "duration": 0.4878046666666691,
          "durationTicks": 64,
          "midi": 60,
          "name": "C4",
          "ticks": 6912,
          "time": 52.682904,
          "velocity": 0.6220472440944882
        },
        {
          "duration": 0.4878046666666691,
          "durationTicks": 64,
          "midi": 57,
          "name": "A3",
          "ticks": 6912,
          "time": 52.682904,
          "velocity": 0.6220472440944882
        },
        {
          "duration": 0.4878046666666691,
          "durationTicks": 64,
          "midi": 64,
          "name": "E4",
          "ticks": 6912,
          "time": 52.682904,
          "velocity": 0.6220472440944882
        },
        {
          "duration": 0.4878046666666691,
          "durationTicks": 64,
          "midi": 60,
          "name": "C4",
          "ticks": 7008,
          "time": 53.414611,
          "velocity": 0.6220472440944882
        },
        {
          "duration": 0.4878046666666691,
          "durationTicks": 64,
          "midi": 57,
          "name": "A3",
          "ticks": 7008,
          "time": 53.414611,
          "velocity": 0.6220472440944882
        },
        {
          "duration": 0.4878046666666691,
          "durationTicks": 64,
          "midi": 64,
          "name": "E4",
          "ticks": 7008,
          "time": 53.414611,
          "velocity": 0.6220472440944882
        },
        {
          "duration": 0.12195116666666905,
          "durationTicks": 16,
          "midi": 59,
          "name": "B3",
          "ticks": 7152,
          "time": 54.5121715,
          "velocity": 0.7480314960629921
        },
        {
          "duration": 0.12195116666666905,
          "durationTicks": 16,
          "midi": 60,
          "name": "C4",
          "ticks": 7152,
          "time": 54.5121715,
          "velocity": 0.7480314960629921
        },
        {
          "duration": 0.12195116666666905,
          "durationTicks": 16,
          "midi": 57,
          "name": "A3",
          "ticks": 7176,
          "time": 54.69509825,
          "velocity": 0.7480314960629921
        },
        {
          "duration": 0.12195116666666905,
          "durationTicks": 16,
          "midi": 60,
          "name": "C4",
          "ticks": 7176,
          "time": 54.69509825,
          "velocity": 0.7480314960629921
        },
        {
          "duration": 0.12195116666666905,
          "durationTicks": 16,
          "midi": 59,
          "name": "B3",
          "ticks": 7200,
          "time": 54.878025,
          "velocity": 0.7480314960629921
        },
        {
          "duration": 0.12195116666666905,
          "durationTicks": 16,
          "midi": 60,
          "name": "C4",
          "ticks": 7200,
          "time": 54.878025,
          "velocity": 0.7480314960629921
        },
        {
          "duration": 0.36585350000000005,
          "durationTicks": 48,
          "midi": 57,
          "name": "A3",
          "ticks": 7224,
          "time": 55.06095175,
          "velocity": 0.7480314960629921
        },
        {
          "duration": 0.4878046666666691,
          "durationTicks": 64,
          "midi": 62,
          "name": "D4",
          "ticks": 7296,
          "time": 55.609732,
          "velocity": 0.6220472440944882
        },
        {
          "duration": 0.4878046666666691,
          "durationTicks": 64,
          "midi": 59,
          "name": "B3",
          "ticks": 7296,
          "time": 55.609732,
          "velocity": 0.6220472440944882
        },
        {
          "duration": 0.9603654375000019,
          "durationTicks": 126,
          "midi": 43,
          "name": "G2",
          "ticks": 7296,
          "time": 55.609732,
          "velocity": 0.6220472440944882
        },
        {
          "duration": 0.4878046666666691,
          "durationTicks": 64,
          "midi": 67,
          "name": "G4",
          "ticks": 7296,
          "time": 55.609732,
          "velocity": 0.6220472440944882
        },
        {
          "duration": 0.4878046666666691,
          "durationTicks": 64,
          "midi": 62,
          "name": "D4",
          "ticks": 7392,
          "time": 56.341439,
          "velocity": 0.6220472440944882
        },
        {
          "duration": 0.4878046666666691,
          "durationTicks": 64,
          "midi": 59,
          "name": "B3",
          "ticks": 7392,
          "time": 56.341439,
          "velocity": 0.6220472440944882
        },
        {
          "duration": 0.4878046666666691,
          "durationTicks": 64,
          "midi": 67,
          "name": "G4",
          "ticks": 7392,
          "time": 56.341439,
          "velocity": 0.6220472440944882
        },
        {
          "duration": 0.4878046666666691,
          "durationTicks": 64,
          "midi": 62,
          "name": "D4",
          "ticks": 7488,
          "time": 57.073146,
          "velocity": 0.6220472440944882
        },
        {
          "duration": 0.4878046666666691,
          "durationTicks": 64,
          "midi": 59,
          "name": "B3",
          "ticks": 7488,
          "time": 57.073146,
          "velocity": 0.6220472440944882
        },
        {
          "duration": 0.9603654375000019,
          "durationTicks": 126,
          "midi": 47,
          "name": "B2",
          "ticks": 7488,
          "time": 57.073146,
          "velocity": 0.6220472440944882
        },
        {
          "duration": 0.4878046666666691,
          "durationTicks": 64,
          "midi": 66,
          "name": "F#4",
          "ticks": 7488,
          "time": 57.073146,
          "velocity": 0.6220472440944882
        },
        {
          "duration": 0.4878046666666691,
          "durationTicks": 64,
          "midi": 62,
          "name": "D4",
          "ticks": 7584,
          "time": 57.804853,
          "velocity": 0.6220472440944882
        },
        {
          "duration": 0.4878046666666691,
          "durationTicks": 64,
          "midi": 59,
          "name": "B3",
          "ticks": 7584,
          "time": 57.804853,
          "velocity": 0.6220472440944882
        },
        {
          "duration": 0.4878046666666691,
          "durationTicks": 64,
          "midi": 66,
          "name": "F#4",
          "ticks": 7584,
          "time": 57.804853,
          "velocity": 0.6220472440944882
        },
        {
          "duration": 0.4878046666666691,
          "durationTicks": 64,
          "midi": 59,
          "name": "B3",
          "ticks": 7680,
          "time": 58.53656,
          "velocity": 0.6220472440944882
        },
        {
          "duration": 0.4878046666666691,
          "durationTicks": 64,
          "midi": 55,
          "name": "G3",
          "ticks": 7680,
          "time": 58.53656,
          "velocity": 0.6220472440944882
        },
        {
          "duration": 0.9603654374999948,
          "durationTicks": 126,
          "midi": 40,
          "name": "E2",
          "ticks": 7680,
          "time": 58.53656,
          "velocity": 0.6220472440944882
        },
        {
          "duration": 0.4878046666666691,
          "durationTicks": 64,
          "midi": 64,
          "name": "E4",
          "ticks": 7680,
          "time": 58.53656,
          "velocity": 0.6220472440944882
        },
        {
          "duration": 0.4878046666666691,
          "durationTicks": 64,
          "midi": 59,
          "name": "B3",
          "ticks": 7776,
          "time": 59.268267,
          "velocity": 0.6220472440944882
        },
        {
          "duration": 0.4878046666666691,
          "durationTicks": 64,
          "midi": 55,
          "name": "G3",
          "ticks": 7776,
          "time": 59.268267,
          "velocity": 0.6220472440944882
        },
        {
          "duration": 0.4878046666666691,
          "durationTicks": 64,
          "midi": 64,
          "name": "E4",
          "ticks": 7776,
          "time": 59.268267,
          "velocity": 0.6220472440944882
        },
        {
          "duration": 0.4878046666666691,
          "durationTicks": 64,
          "midi": 59,
          "name": "B3",
          "ticks": 7872,
          "time": 59.999974,
          "velocity": 0.6220472440944882
        },
        {
          "duration": 0.4878046666666691,
          "durationTicks": 64,
          "midi": 55,
          "name": "G3",
          "ticks": 7872,
          "time": 59.999974,
          "velocity": 0.6220472440944882
        },
        {
          "duration": 0.9603654374999948,
          "durationTicks": 126,
          "midi": 38,
          "name": "D2",
          "ticks": 7872,
          "time": 59.999974,
          "velocity": 0.6220472440944882
        },
        {
          "duration": 0.4878046666666691,
          "durationTicks": 64,
          "midi": 64,
          "name": "E4",
          "ticks": 7872,
          "time": 59.999974,
          "velocity": 0.6220472440944882
        },
        {
          "duration": 0.4878046666666691,
          "durationTicks": 64,
          "midi": 59,
          "name": "B3",
          "ticks": 7968,
          "time": 60.731681,
          "velocity": 0.6220472440944882
        },
        {
          "duration": 0.4878046666666691,
          "durationTicks": 64,
          "midi": 55,
          "name": "G3",
          "ticks": 7968,
          "time": 60.731681,
          "velocity": 0.6220472440944882
        },
        {
          "duration": 0.4878046666666691,
          "durationTicks": 64,
          "midi": 64,
          "name": "E4",
          "ticks": 7968,
          "time": 60.731681,
          "velocity": 0.6220472440944882
        },
        {
          "duration": 0.4878046666666691,
          "durationTicks": 64,
          "midi": 60,
          "name": "C4",
          "ticks": 8064,
          "time": 61.463388,
          "velocity": 0.6220472440944882
        },
        {
          "duration": 0.4878046666666691,
          "durationTicks": 64,
          "midi": 55,
          "name": "G3",
          "ticks": 8064,
          "time": 61.463388,
          "velocity": 0.6220472440944882
        },
        {
          "duration": 0.9603654374999948,
          "durationTicks": 126,
          "midi": 48,
          "name": "C3",
          "ticks": 8064,
          "time": 61.463388,
          "velocity": 0.6220472440944882
        },
        {
          "duration": 0.4878046666666691,
          "durationTicks": 64,
          "midi": 64,
          "name": "E4",
          "ticks": 8064,
          "time": 61.463388,
          "velocity": 0.6220472440944882
        },
        {
          "duration": 0.4878046666666691,
          "durationTicks": 64,
          "midi": 60,
          "name": "C4",
          "ticks": 8160,
          "time": 62.195095,
          "velocity": 0.6220472440944882
        },
        {
          "duration": 0.4878046666666691,
          "durationTicks": 64,
          "midi": 55,
          "name": "G3",
          "ticks": 8160,
          "time": 62.195095,
          "velocity": 0.6220472440944882
        },
        {
          "duration": 0.4878046666666691,
          "durationTicks": 64,
          "midi": 64,
          "name": "E4",
          "ticks": 8160,
          "time": 62.195095,
          "velocity": 0.6220472440944882
        },
        {
          "duration": 0.4878046666666691,
          "durationTicks": 64,
          "midi": 60,
          "name": "C4",
          "ticks": 8256,
          "time": 62.926802,
          "velocity": 0.6220472440944882
        },
        {
          "duration": 0.4878046666666691,
          "durationTicks": 64,
          "midi": 57,
          "name": "A3",
          "ticks": 8256,
          "time": 62.926802,
          "velocity": 0.6220472440944882
        },
        {
          "duration": 0.9603654374999948,
          "durationTicks": 126,
          "midi": 41,
          "name": "F2",
          "ticks": 8256,
          "time": 62.926802,
          "velocity": 0.6220472440944882
        },
        {
          "duration": 0.4878046666666691,
          "durationTicks": 64,
          "midi": 65,
          "name": "F4",
          "ticks": 8256,
          "time": 62.926802,
          "velocity": 0.6220472440944882
        },
        {
          "duration": 0.4878046666666691,
          "durationTicks": 64,
          "midi": 60,
          "name": "C4",
          "ticks": 8352,
          "time": 63.658509,
          "velocity": 0.6220472440944882
        },
        {
          "duration": 0.4878046666666691,
          "durationTicks": 64,
          "midi": 57,
          "name": "A3",
          "ticks": 8352,
          "time": 63.658509,
          "velocity": 0.6220472440944882
        },
        {
          "duration": 0.4878046666666691,
          "durationTicks": 64,
          "midi": 65,
          "name": "F4",
          "ticks": 8352,
          "time": 63.658509,
          "velocity": 0.6220472440944882
        },
        {
          "duration": 0.4878046666666762,
          "durationTicks": 64,
          "midi": 59,
          "name": "B3",
          "ticks": 8448,
          "time": 64.390216,
          "velocity": 0.6220472440944882
        },
        {
          "duration": 0.4878046666666762,
          "durationTicks": 64,
          "midi": 55,
          "name": "G3",
          "ticks": 8448,
          "time": 64.390216,
          "velocity": 0.6220472440944882
        },
        {
          "duration": 0.9603654375000019,
          "durationTicks": 126,
          "midi": 40,
          "name": "E2",
          "ticks": 8448,
          "time": 64.390216,
          "velocity": 0.6220472440944882
        },
        {
          "duration": 0.4878046666666762,
          "durationTicks": 64,
          "midi": 64,
          "name": "E4",
          "ticks": 8448,
          "time": 64.390216,
          "velocity": 0.6220472440944882
        },
        {
          "duration": 0.4878046666666762,
          "durationTicks": 64,
          "midi": 59,
          "name": "B3",
          "ticks": 8544,
          "time": 65.121923,
          "velocity": 0.6220472440944882
        },
        {
          "duration": 0.4878046666666762,
          "durationTicks": 64,
          "midi": 55,
          "name": "G3",
          "ticks": 8544,
          "time": 65.121923,
          "velocity": 0.6220472440944882
        },
        {
          "duration": 0.4878046666666762,
          "durationTicks": 64,
          "midi": 64,
          "name": "E4",
          "ticks": 8544,
          "time": 65.121923,
          "velocity": 0.6220472440944882
        },
        {
          "duration": 0.4878046666666762,
          "durationTicks": 64,
          "midi": 59,
          "name": "B3",
          "ticks": 8640,
          "time": 65.85363,
          "velocity": 0.6220472440944882
        },
        {
          "duration": 0.4878046666666762,
          "durationTicks": 64,
          "midi": 55,
          "name": "G3",
          "ticks": 8640,
          "time": 65.85363,
          "velocity": 0.6220472440944882
        },
        {
          "duration": 0.9603654375000019,
          "durationTicks": 126,
          "midi": 38,
          "name": "D2",
          "ticks": 8640,
          "time": 65.85363,
          "velocity": 0.6220472440944882
        },
        {
          "duration": 0.4878046666666762,
          "durationTicks": 64,
          "midi": 64,
          "name": "E4",
          "ticks": 8640,
          "time": 65.85363,
          "velocity": 0.6220472440944882
        },
        {
          "duration": 0.4878046666666762,
          "durationTicks": 64,
          "midi": 59,
          "name": "B3",
          "ticks": 8736,
          "time": 66.585337,
          "velocity": 0.6220472440944882
        },
        {
          "duration": 0.4878046666666762,
          "durationTicks": 64,
          "midi": 55,
          "name": "G3",
          "ticks": 8736,
          "time": 66.585337,
          "velocity": 0.6220472440944882
        },
        {
          "duration": 0.4878046666666762,
          "durationTicks": 64,
          "midi": 64,
          "name": "E4",
          "ticks": 8736,
          "time": 66.585337,
          "velocity": 0.6220472440944882
        },
        {
          "duration": 0.4878046666666762,
          "durationTicks": 64,
          "midi": 60,
          "name": "C4",
          "ticks": 8832,
          "time": 67.317044,
          "velocity": 0.6220472440944882
        },
        {
          "duration": 0.4878046666666762,
          "durationTicks": 64,
          "midi": 55,
          "name": "G3",
          "ticks": 8832,
          "time": 67.317044,
          "velocity": 0.6220472440944882
        },
        {
          "duration": 0.4878046666666762,
          "durationTicks": 64,
          "midi": 36,
          "name": "C2",
          "ticks": 8832,
          "time": 67.317044,
          "velocity": 0.6220472440944882
        },
        {
          "duration": 0.4878046666666762,
          "durationTicks": 64,
          "midi": 64,
          "name": "E4",
          "ticks": 8832,
          "time": 67.317044,
          "velocity": 0.6220472440944882
        },
        {
          "duration": 0.4878046666666762,
          "durationTicks": 64,
          "midi": 60,
          "name": "C4",
          "ticks": 8928,
          "time": 68.048751,
          "velocity": 0.6220472440944882
        },
        {
          "duration": 0.4878046666666762,
          "durationTicks": 64,
          "midi": 55,
          "name": "G3",
          "ticks": 8928,
          "time": 68.048751,
          "velocity": 0.6220472440944882
        },
        {
          "duration": 0.4878046666666762,
          "durationTicks": 64,
          "midi": 36,
          "name": "C2",
          "ticks": 8928,
          "time": 68.048751,
          "velocity": 0.6220472440944882
        },
        {
          "duration": 0.4878046666666762,
          "durationTicks": 64,
          "midi": 64,
          "name": "E4",
          "ticks": 8928,
          "time": 68.048751,
          "velocity": 0.6220472440944882
        },
        {
          "duration": 0.36585350000000005,
          "durationTicks": 48,
          "midi": 67,
          "name": "G4",
          "ticks": 9024,
          "time": 68.780458,
          "velocity": 0.6220472440944882
        },
        {
          "duration": 0.36585350000000005,
          "durationTicks": 48,
          "midi": 64,
          "name": "E4",
          "ticks": 9024,
          "time": 68.780458,
          "velocity": 0.7480314960629921
        },
        {
          "duration": 0.4878046666666762,
          "durationTicks": 64,
          "midi": 36,
          "name": "C2",
          "ticks": 9024,
          "time": 68.780458,
          "velocity": 0.7480314960629921
        },
        {
          "duration": 0.36585350000000005,
          "durationTicks": 48,
          "midi": 72,
          "name": "C5",
          "ticks": 9024,
          "time": 68.780458,
          "velocity": 0.6220472440944882
        },
        {
          "duration": 0.12195116666666195,
          "durationTicks": 16,
          "midi": 67,
          "name": "G4",
          "ticks": 9096,
          "time": 69.32923825,
          "velocity": 0.6220472440944882
        },
        {
          "duration": 0.12195116666666195,
          "durationTicks": 16,
          "midi": 64,
          "name": "E4",
          "ticks": 9096,
          "time": 69.32923825,
          "velocity": 0.6220472440944882
        },
        {
          "duration": 0.12195116666666195,
          "durationTicks": 16,
          "midi": 72,
          "name": "C5",
          "ticks": 9096,
          "time": 69.32923825,
          "velocity": 0.6220472440944882
        },
        {
          "duration": 0.2439023333333381,
          "durationTicks": 32,
          "midi": 67,
          "name": "G4",
          "ticks": 9120,
          "time": 69.512165,
          "velocity": 0.6220472440944882
        },
        {
          "duration": 0.2439023333333381,
          "durationTicks": 32,
          "midi": 64,
          "name": "E4",
          "ticks": 9120,
          "time": 69.512165,
          "velocity": 0.6220472440944882
        },
        {
          "duration": 0.4878046666666762,
          "durationTicks": 64,
          "midi": 36,
          "name": "C2",
          "ticks": 9120,
          "time": 69.512165,
          "velocity": 0.7480314960629921
        },
        {
          "duration": 0.2439023333333381,
          "durationTicks": 32,
          "midi": 72,
          "name": "C5",
          "ticks": 9120,
          "time": 69.512165,
          "velocity": 0.6220472440944882
        },
        {
          "duration": 0.2439023333333381,
          "durationTicks": 32,
          "midi": 67,
          "name": "G4",
          "ticks": 9168,
          "time": 69.8780185,
          "velocity": 0.6220472440944882
        },
        {
          "duration": 0.2439023333333381,
          "durationTicks": 32,
          "midi": 64,
          "name": "E4",
          "ticks": 9168,
          "time": 69.8780185,
          "velocity": 0.6220472440944882
        },
        {
          "duration": 0.2439023333333381,
          "durationTicks": 32,
          "midi": 72,
          "name": "C5",
          "ticks": 9168,
          "time": 69.8780185,
          "velocity": 0.6220472440944882
        },
        {
          "duration": 0.4878046666666762,
          "durationTicks": 64,
          "midi": 62,
          "name": "D4",
          "ticks": 9216,
          "time": 70.243872,
          "velocity": 0.6220472440944882
        },
        {
          "duration": 0.4878046666666762,
          "durationTicks": 64,
          "midi": 59,
          "name": "B3",
          "ticks": 9216,
          "time": 70.243872,
          "velocity": 0.6220472440944882
        },
        {
          "duration": 0.9603654375000019,
          "durationTicks": 126,
          "midi": 43,
          "name": "G2",
          "ticks": 9216,
          "time": 70.243872,
          "velocity": 0.6220472440944882
        },
        {
          "duration": 0.4878046666666762,
          "durationTicks": 64,
          "midi": 67,
          "name": "G4",
          "ticks": 9216,
          "time": 70.243872,
          "velocity": 0.6220472440944882
        },
        {
          "duration": 0.4878046666666762,
          "durationTicks": 64,
          "midi": 62,
          "name": "D4",
          "ticks": 9312,
          "time": 70.975579,
          "velocity": 0.6220472440944882
        },
        {
          "duration": 0.4878046666666762,
          "durationTicks": 64,
          "midi": 59,
          "name": "B3",
          "ticks": 9312,
          "time": 70.975579,
          "velocity": 0.6220472440944882
        },
        {
          "duration": 0.4878046666666762,
          "durationTicks": 64,
          "midi": 67,
          "name": "G4",
          "ticks": 9312,
          "time": 70.975579,
          "velocity": 0.6220472440944882
        },
        {
          "duration": 0.4878046666666762,
          "durationTicks": 64,
          "midi": 62,
          "name": "D4",
          "ticks": 9408,
          "time": 71.707286,
          "velocity": 0.6220472440944882
        },
        {
          "duration": 0.4878046666666762,
          "durationTicks": 64,
          "midi": 59,
          "name": "B3",
          "ticks": 9408,
          "time": 71.707286,
          "velocity": 0.6220472440944882
        },
        {
          "duration": 0.9603654375000019,
          "durationTicks": 126,
          "midi": 42,
          "name": "F#2",
          "ticks": 9408,
          "time": 71.707286,
          "velocity": 0.6220472440944882
        },
        {
          "duration": 0.4878046666666762,
          "durationTicks": 64,
          "midi": 66,
          "name": "F#4",
          "ticks": 9408,
          "time": 71.707286,
          "velocity": 0.6220472440944882
        },
        {
          "duration": 0.4878046666666762,
          "durationTicks": 64,
          "midi": 62,
          "name": "D4",
          "ticks": 9504,
          "time": 72.438993,
          "velocity": 0.6220472440944882
        },
        {
          "duration": 0.4878046666666762,
          "durationTicks": 64,
          "midi": 59,
          "name": "B3",
          "ticks": 9504,
          "time": 72.438993,
          "velocity": 0.6220472440944882
        },
        {
          "duration": 0.4878046666666762,
          "durationTicks": 64,
          "midi": 66,
          "name": "F#4",
          "ticks": 9504,
          "time": 72.438993,
          "velocity": 0.6220472440944882
        },
        {
          "duration": 0.4878046666666762,
          "durationTicks": 64,
          "midi": 59,
          "name": "B3",
          "ticks": 9600,
          "time": 73.1707,
          "velocity": 0.6220472440944882
        },
        {
          "duration": 0.4878046666666762,
          "durationTicks": 64,
          "midi": 55,
          "name": "G3",
          "ticks": 9600,
          "time": 73.1707,
          "velocity": 0.6220472440944882
        },
        {
          "duration": 0.9603654375000019,
          "durationTicks": 126,
          "midi": 40,
          "name": "E2",
          "ticks": 9600,
          "time": 73.1707,
          "velocity": 0.6220472440944882
        },
        {
          "duration": 0.4878046666666762,
          "durationTicks": 64,
          "midi": 64,
          "name": "E4",
          "ticks": 9600,
          "time": 73.1707,
          "velocity": 0.6220472440944882
        },
        {
          "duration": 0.4878046666666762,
          "durationTicks": 64,
          "midi": 59,
          "name": "B3",
          "ticks": 9696,
          "time": 73.902407,
          "velocity": 0.6220472440944882
        },
        {
          "duration": 0.4878046666666762,
          "durationTicks": 64,
          "midi": 55,
          "name": "G3",
          "ticks": 9696,
          "time": 73.902407,
          "velocity": 0.6220472440944882
        },
        {
          "duration": 0.4878046666666762,
          "durationTicks": 64,
          "midi": 64,
          "name": "E4",
          "ticks": 9696,
          "time": 73.902407,
          "velocity": 0.6220472440944882
        },
        {
          "duration": 0.4878046666666762,
          "durationTicks": 64,
          "midi": 59,
          "name": "B3",
          "ticks": 9792,
          "time": 74.634114,
          "velocity": 0.6220472440944882
        },
        {
          "duration": 0.4878046666666762,
          "durationTicks": 64,
          "midi": 55,
          "name": "G3",
          "ticks": 9792,
          "time": 74.634114,
          "velocity": 0.6220472440944882
        },
        {
          "duration": 0.9603654375000019,
          "durationTicks": 126,
          "midi": 38,
          "name": "D2",
          "ticks": 9792,
          "time": 74.634114,
          "velocity": 0.6220472440944882
        },
        {
          "duration": 0.4878046666666762,
          "durationTicks": 64,
          "midi": 64,
          "name": "E4",
          "ticks": 9792,
          "time": 74.634114,
          "velocity": 0.6220472440944882
        },
        {
          "duration": 0.4878046666666762,
          "durationTicks": 64,
          "midi": 59,
          "name": "B3",
          "ticks": 9888,
          "time": 75.365821,
          "velocity": 0.6220472440944882
        },
        {
          "duration": 0.4878046666666762,
          "durationTicks": 64,
          "midi": 55,
          "name": "G3",
          "ticks": 9888,
          "time": 75.365821,
          "velocity": 0.6220472440944882
        },
        {
          "duration": 0.4878046666666762,
          "durationTicks": 64,
          "midi": 64,
          "name": "E4",
          "ticks": 9888,
          "time": 75.365821,
          "velocity": 0.6220472440944882
        },
        {
          "duration": 0.4878046666666762,
          "durationTicks": 64,
          "midi": 60,
          "name": "C4",
          "ticks": 9984,
          "time": 76.097528,
          "velocity": 0.6220472440944882
        },
        {
          "duration": 0.4878046666666762,
          "durationTicks": 64,
          "midi": 55,
          "name": "G3",
          "ticks": 9984,
          "time": 76.097528,
          "velocity": 0.6220472440944882
        },
        {
          "duration": 0.9603654375000019,
          "durationTicks": 126,
          "midi": 48,
          "name": "C3",
          "ticks": 9984,
          "time": 76.097528,
          "velocity": 0.6220472440944882
        },
        {
          "duration": 0.4878046666666762,
          "durationTicks": 64,
          "midi": 64,
          "name": "E4",
          "ticks": 9984,
          "time": 76.097528,
          "velocity": 0.6220472440944882
        },
        {
          "duration": 0.4878046666666762,
          "durationTicks": 64,
          "midi": 60,
          "name": "C4",
          "ticks": 10080,
          "time": 76.829235,
          "velocity": 0.6220472440944882
        },
        {
          "duration": 0.4878046666666762,
          "durationTicks": 64,
          "midi": 55,
          "name": "G3",
          "ticks": 10080,
          "time": 76.829235,
          "velocity": 0.6220472440944882
        },
        {
          "duration": 0.4878046666666762,
          "durationTicks": 64,
          "midi": 64,
          "name": "E4",
          "ticks": 10080,
          "time": 76.829235,
          "velocity": 0.6220472440944882
        },
        {
          "duration": 0.4878046666666762,
          "durationTicks": 64,
          "midi": 59,
          "name": "B3",
          "ticks": 10176,
          "time": 77.560942,
          "velocity": 0.6220472440944882
        },
        {
          "duration": 0.4878046666666762,
          "durationTicks": 64,
          "midi": 55,
          "name": "G3",
          "ticks": 10176,
          "time": 77.560942,
          "velocity": 0.6220472440944882
        },
        {
          "duration": 0.9603654375000019,
          "durationTicks": 126,
          "midi": 47,
          "name": "B2",
          "ticks": 10176,
          "time": 77.560942,
          "velocity": 0.6220472440944882
        },
        {
          "duration": 0.4878046666666762,
          "durationTicks": 64,
          "midi": 64,
          "name": "E4",
          "ticks": 10176,
          "time": 77.560942,
          "velocity": 0.6220472440944882
        },
        {
          "duration": 0.4878046666666762,
          "durationTicks": 64,
          "midi": 59,
          "name": "B3",
          "ticks": 10272,
          "time": 78.292649,
          "velocity": 0.6220472440944882
        },
        {
          "duration": 0.4878046666666762,
          "durationTicks": 64,
          "midi": 55,
          "name": "G3",
          "ticks": 10272,
          "time": 78.292649,
          "velocity": 0.6220472440944882
        },
        {
          "duration": 0.4878046666666762,
          "durationTicks": 64,
          "midi": 64,
          "name": "E4",
          "ticks": 10272,
          "time": 78.292649,
          "velocity": 0.6220472440944882
        },
        {
          "duration": 1.935974770833326,
          "durationTicks": 254,
          "midi": 45,
          "name": "A2",
          "ticks": 10368,
          "time": 79.024356,
          "velocity": 0.6220472440944882
        },
        {
          "duration": 0.4878046666666762,
          "durationTicks": 64,
          "midi": 60,
          "name": "C4",
          "ticks": 10368,
          "time": 79.024356,
          "velocity": 0.6220472440944882
        },
        {
          "duration": 0.4878046666666762,
          "durationTicks": 64,
          "midi": 57,
          "name": "A3",
          "ticks": 10368,
          "time": 79.024356,
          "velocity": 0.6220472440944882
        },
        {
          "duration": 0.4878046666666762,
          "durationTicks": 64,
          "midi": 64,
          "name": "E4",
          "ticks": 10368,
          "time": 79.024356,
          "velocity": 0.6220472440944882
        },
        {
          "duration": 0.4878046666666762,
          "durationTicks": 64,
          "midi": 60,
          "name": "C4",
          "ticks": 10464,
          "time": 79.756063,
          "velocity": 0.6220472440944882
        },
        {
          "duration": 0.4878046666666762,
          "durationTicks": 64,
          "midi": 57,
          "name": "A3",
          "ticks": 10464,
          "time": 79.756063,
          "velocity": 0.6220472440944882
        },
        {
          "duration": 0.4878046666666762,
          "durationTicks": 64,
          "midi": 64,
          "name": "E4",
          "ticks": 10464,
          "time": 79.756063,
          "velocity": 0.6220472440944882
        },
        {
          "duration": 0.12195116666667616,
          "durationTicks": 16,
          "midi": 59,
          "name": "B3",
          "ticks": 10608,
          "time": 80.8536235,
          "velocity": 0.7480314960629921
        },
        {
          "duration": 0.12195116666667616,
          "durationTicks": 16,
          "midi": 60,
          "name": "C4",
          "ticks": 10608,
          "time": 80.8536235,
          "velocity": 0.7480314960629921
        },
        {
          "duration": 0.12195116666666195,
          "durationTicks": 16,
          "midi": 57,
          "name": "A3",
          "ticks": 10632,
          "time": 81.03655025,
          "velocity": 0.7480314960629921
        },
        {
          "duration": 0.12195116666666195,
          "durationTicks": 16,
          "midi": 60,
          "name": "C4",
          "ticks": 10632,
          "time": 81.03655025,
          "velocity": 0.7480314960629921
        },
        {
          "duration": 0.12195116666667616,
          "durationTicks": 16,
          "midi": 59,
          "name": "B3",
          "ticks": 10656,
          "time": 81.219477,
          "velocity": 0.7480314960629921
        },
        {
          "duration": 0.12195116666667616,
          "durationTicks": 16,
          "midi": 60,
          "name": "C4",
          "ticks": 10656,
          "time": 81.219477,
          "velocity": 0.7480314960629921
        },
        {
          "duration": 0.36585350000000005,
          "durationTicks": 48,
          "midi": 57,
          "name": "A3",
          "ticks": 10680,
          "time": 81.40240375,
          "velocity": 0.7480314960629921
        },
        {
          "duration": 0.4878046666666762,
          "durationTicks": 64,
          "midi": 62,
          "name": "D4",
          "ticks": 10752,
          "time": 81.951184,
          "velocity": 0.6220472440944882
        },
        {
          "duration": 0.4878046666666762,
          "durationTicks": 64,
          "midi": 59,
          "name": "B3",
          "ticks": 10752,
          "time": 81.951184,
          "velocity": 0.6220472440944882
        },
        {
          "duration": 0.9603654375000019,
          "durationTicks": 126,
          "midi": 43,
          "name": "G2",
          "ticks": 10752,
          "time": 81.951184,
          "velocity": 0.6220472440944882
        },
        {
          "duration": 0.4878046666666762,
          "durationTicks": 64,
          "midi": 67,
          "name": "G4",
          "ticks": 10752,
          "time": 81.951184,
          "velocity": 0.6220472440944882
        },
        {
          "duration": 0.4878046666666762,
          "durationTicks": 64,
          "midi": 62,
          "name": "D4",
          "ticks": 10848,
          "time": 82.682891,
          "velocity": 0.6220472440944882
        },
        {
          "duration": 0.4878046666666762,
          "durationTicks": 64,
          "midi": 59,
          "name": "B3",
          "ticks": 10848,
          "time": 82.682891,
          "velocity": 0.6220472440944882
        },
        {
          "duration": 0.4878046666666762,
          "durationTicks": 64,
          "midi": 67,
          "name": "G4",
          "ticks": 10848,
          "time": 82.682891,
          "velocity": 0.6220472440944882
        },
        {
          "duration": 0.4878046666666762,
          "durationTicks": 64,
          "midi": 62,
          "name": "D4",
          "ticks": 10944,
          "time": 83.414598,
          "velocity": 0.6220472440944882
        },
        {
          "duration": 0.4878046666666762,
          "durationTicks": 64,
          "midi": 59,
          "name": "B3",
          "ticks": 10944,
          "time": 83.414598,
          "velocity": 0.6220472440944882
        },
        {
          "duration": 0.9603654375000019,
          "durationTicks": 126,
          "midi": 47,
          "name": "B2",
          "ticks": 10944,
          "time": 83.414598,
          "velocity": 0.6220472440944882
        },
        {
          "duration": 0.4878046666666762,
          "durationTicks": 64,
          "midi": 66,
          "name": "F#4",
          "ticks": 10944,
          "time": 83.414598,
          "velocity": 0.6220472440944882
        },
        {
          "duration": 0.4878046666666762,
          "durationTicks": 64,
          "midi": 62,
          "name": "D4",
          "ticks": 11040,
          "time": 84.146305,
          "velocity": 0.6220472440944882
        },
        {
          "duration": 0.4878046666666762,
          "durationTicks": 64,
          "midi": 59,
          "name": "B3",
          "ticks": 11040,
          "time": 84.146305,
          "velocity": 0.6220472440944882
        },
        {
          "duration": 0.4878046666666762,
          "durationTicks": 64,
          "midi": 66,
          "name": "F#4",
          "ticks": 11040,
          "time": 84.146305,
          "velocity": 0.6220472440944882
        },
        {
          "duration": 0.4878046666666762,
          "durationTicks": 64,
          "midi": 59,
          "name": "B3",
          "ticks": 11136,
          "time": 84.878012,
          "velocity": 0.6220472440944882
        },
        {
          "duration": 0.4878046666666762,
          "durationTicks": 64,
          "midi": 55,
          "name": "G3",
          "ticks": 11136,
          "time": 84.878012,
          "velocity": 0.6220472440944882
        },
        {
          "duration": 0.9603654375000019,
          "durationTicks": 126,
          "midi": 40,
          "name": "E2",
          "ticks": 11136,
          "time": 84.878012,
          "velocity": 0.6220472440944882
        },
        {
          "duration": 0.4878046666666762,
          "durationTicks": 64,
          "midi": 64,
          "name": "E4",
          "ticks": 11136,
          "time": 84.878012,
          "velocity": 0.6220472440944882
        },
        {
          "duration": 0.4878046666666762,
          "durationTicks": 64,
          "midi": 59,
          "name": "B3",
          "ticks": 11232,
          "time": 85.609719,
          "velocity": 0.6220472440944882
        },
        {
          "duration": 0.4878046666666762,
          "durationTicks": 64,
          "midi": 55,
          "name": "G3",
          "ticks": 11232,
          "time": 85.609719,
          "velocity": 0.6220472440944882
        },
        {
          "duration": 0.4878046666666762,
          "durationTicks": 64,
          "midi": 64,
          "name": "E4",
          "ticks": 11232,
          "time": 85.609719,
          "velocity": 0.6220472440944882
        },
        {
          "duration": 0.4878046666666762,
          "durationTicks": 64,
          "midi": 59,
          "name": "B3",
          "ticks": 11328,
          "time": 86.341426,
          "velocity": 0.6220472440944882
        },
        {
          "duration": 0.4878046666666762,
          "durationTicks": 64,
          "midi": 55,
          "name": "G3",
          "ticks": 11328,
          "time": 86.341426,
          "velocity": 0.6220472440944882
        },
        {
          "duration": 0.9603654375000019,
          "durationTicks": 126,
          "midi": 38,
          "name": "D2",
          "ticks": 11328,
          "time": 86.341426,
          "velocity": 0.6220472440944882
        },
        {
          "duration": 0.4878046666666762,
          "durationTicks": 64,
          "midi": 64,
          "name": "E4",
          "ticks": 11328,
          "time": 86.341426,
          "velocity": 0.6220472440944882
        },
        {
          "duration": 0.4878046666666762,
          "durationTicks": 64,
          "midi": 59,
          "name": "B3",
          "ticks": 11424,
          "time": 87.073133,
          "velocity": 0.6220472440944882
        },
        {
          "duration": 0.4878046666666762,
          "durationTicks": 64,
          "midi": 55,
          "name": "G3",
          "ticks": 11424,
          "time": 87.073133,
          "velocity": 0.6220472440944882
        },
        {
          "duration": 0.4878046666666762,
          "durationTicks": 64,
          "midi": 64,
          "name": "E4",
          "ticks": 11424,
          "time": 87.073133,
          "velocity": 0.6220472440944882
        },
        {
          "duration": 0.4878046666666762,
          "durationTicks": 64,
          "midi": 60,
          "name": "C4",
          "ticks": 11520,
          "time": 87.80484,
          "velocity": 0.6220472440944882
        },
        {
          "duration": 0.4878046666666762,
          "durationTicks": 64,
          "midi": 55,
          "name": "G3",
          "ticks": 11520,
          "time": 87.80484,
          "velocity": 0.6220472440944882
        },
        {
          "duration": 0.9603654375000019,
          "durationTicks": 126,
          "midi": 48,
          "name": "C3",
          "ticks": 11520,
          "time": 87.80484,
          "velocity": 0.6220472440944882
        },
        {
          "duration": 0.4878046666666762,
          "durationTicks": 64,
          "midi": 64,
          "name": "E4",
          "ticks": 11520,
          "time": 87.80484,
          "velocity": 0.6220472440944882
        },
        {
          "duration": 0.4878046666666762,
          "durationTicks": 64,
          "midi": 60,
          "name": "C4",
          "ticks": 11616,
          "time": 88.536547,
          "velocity": 0.6220472440944882
        },
        {
          "duration": 0.4878046666666762,
          "durationTicks": 64,
          "midi": 55,
          "name": "G3",
          "ticks": 11616,
          "time": 88.536547,
          "velocity": 0.6220472440944882
        },
        {
          "duration": 0.4878046666666762,
          "durationTicks": 64,
          "midi": 64,
          "name": "E4",
          "ticks": 11616,
          "time": 88.536547,
          "velocity": 0.6220472440944882
        },
        {
          "duration": 0.4878046666666762,
          "durationTicks": 64,
          "midi": 60,
          "name": "C4",
          "ticks": 11712,
          "time": 89.268254,
          "velocity": 0.6220472440944882
        },
        {
          "duration": 0.4878046666666762,
          "durationTicks": 64,
          "midi": 57,
          "name": "A3",
          "ticks": 11712,
          "time": 89.268254,
          "velocity": 0.6220472440944882
        },
        {
          "duration": 0.9603654375000019,
          "durationTicks": 126,
          "midi": 41,
          "name": "F2",
          "ticks": 11712,
          "time": 89.268254,
          "velocity": 0.6220472440944882
        },
        {
          "duration": 0.4878046666666762,
          "durationTicks": 64,
          "midi": 65,
          "name": "F4",
          "ticks": 11712,
          "time": 89.268254,
          "velocity": 0.6220472440944882
        },
        {
          "duration": 0.4878046666666762,
          "durationTicks": 64,
          "midi": 60,
          "name": "C4",
          "ticks": 11808,
          "time": 89.999961,
          "velocity": 0.6220472440944882
        },
        {
          "duration": 0.4878046666666762,
          "durationTicks": 64,
          "midi": 57,
          "name": "A3",
          "ticks": 11808,
          "time": 89.999961,
          "velocity": 0.6220472440944882
        },
        {
          "duration": 0.4878046666666762,
          "durationTicks": 64,
          "midi": 65,
          "name": "F4",
          "ticks": 11808,
          "time": 89.999961,
          "velocity": 0.6220472440944882
        },
        {
          "duration": 0.4878046666666762,
          "durationTicks": 64,
          "midi": 59,
          "name": "B3",
          "ticks": 11904,
          "time": 90.731668,
          "velocity": 0.6220472440944882
        },
        {
          "duration": 0.4878046666666762,
          "durationTicks": 64,
          "midi": 55,
          "name": "G3",
          "ticks": 11904,
          "time": 90.731668,
          "velocity": 0.6220472440944882
        },
        {
          "duration": 0.9603654375000019,
          "durationTicks": 126,
          "midi": 40,
          "name": "E2",
          "ticks": 11904,
          "time": 90.731668,
          "velocity": 0.6220472440944882
        },
        {
          "duration": 0.4878046666666762,
          "durationTicks": 64,
          "midi": 64,
          "name": "E4",
          "ticks": 11904,
          "time": 90.731668,
          "velocity": 0.6220472440944882
        },
        {
          "duration": 0.4878046666666762,
          "durationTicks": 64,
          "midi": 59,
          "name": "B3",
          "ticks": 12000,
          "time": 91.463375,
          "velocity": 0.6220472440944882
        },
        {
          "duration": 0.4878046666666762,
          "durationTicks": 64,
          "midi": 55,
          "name": "G3",
          "ticks": 12000,
          "time": 91.463375,
          "velocity": 0.6220472440944882
        },
        {
          "duration": 0.4878046666666762,
          "durationTicks": 64,
          "midi": 64,
          "name": "E4",
          "ticks": 12000,
          "time": 91.463375,
          "velocity": 0.6220472440944882
        },
        {
          "duration": 0.4878046666666762,
          "durationTicks": 64,
          "midi": 59,
          "name": "B3",
          "ticks": 12096,
          "time": 92.195082,
          "velocity": 0.6220472440944882
        },
        {
          "duration": 0.4878046666666762,
          "durationTicks": 64,
          "midi": 55,
          "name": "G3",
          "ticks": 12096,
          "time": 92.195082,
          "velocity": 0.6220472440944882
        },
        {
          "duration": 0.9603654375000019,
          "durationTicks": 126,
          "midi": 38,
          "name": "D2",
          "ticks": 12096,
          "time": 92.195082,
          "velocity": 0.6220472440944882
        },
        {
          "duration": 0.4878046666666762,
          "durationTicks": 64,
          "midi": 64,
          "name": "E4",
          "ticks": 12096,
          "time": 92.195082,
          "velocity": 0.6220472440944882
        },
        {
          "duration": 0.4878046666666762,
          "durationTicks": 64,
          "midi": 59,
          "name": "B3",
          "ticks": 12192,
          "time": 92.926789,
          "velocity": 0.6220472440944882
        },
        {
          "duration": 0.4878046666666762,
          "durationTicks": 64,
          "midi": 55,
          "name": "G3",
          "ticks": 12192,
          "time": 92.926789,
          "velocity": 0.6220472440944882
        },
        {
          "duration": 0.4878046666666762,
          "durationTicks": 64,
          "midi": 64,
          "name": "E4",
          "ticks": 12192,
          "time": 92.926789,
          "velocity": 0.6220472440944882
        },
        {
          "duration": 0.487804666666662,
          "durationTicks": 64,
          "midi": 60,
          "name": "C4",
          "ticks": 12288,
          "time": 93.658496,
          "velocity": 0.6220472440944882
        },
        {
          "duration": 0.487804666666662,
          "durationTicks": 64,
          "midi": 55,
          "name": "G3",
          "ticks": 12288,
          "time": 93.658496,
          "velocity": 0.6220472440944882
        },
        {
          "duration": 0.487804666666662,
          "durationTicks": 64,
          "midi": 36,
          "name": "C2",
          "ticks": 12288,
          "time": 93.658496,
          "velocity": 0.6220472440944882
        },
        {
          "duration": 0.487804666666662,
          "durationTicks": 64,
          "midi": 48,
          "name": "C3",
          "ticks": 12288,
          "time": 93.658496,
          "velocity": 0.7480314960629921
        },
        {
          "duration": 0.487804666666662,
          "durationTicks": 64,
          "midi": 64,
          "name": "E4",
          "ticks": 12288,
          "time": 93.658496,
          "velocity": 0.6220472440944882
        },
        {
          "duration": 0.487804666666662,
          "durationTicks": 64,
          "midi": 60,
          "name": "C4",
          "ticks": 12384,
          "time": 94.390203,
          "velocity": 0.6220472440944882
        },
        {
          "duration": 0.487804666666662,
          "durationTicks": 64,
          "midi": 55,
          "name": "G3",
          "ticks": 12384,
          "time": 94.390203,
          "velocity": 0.6220472440944882
        },
        {
          "duration": 0.487804666666662,
          "durationTicks": 64,
          "midi": 36,
          "name": "C2",
          "ticks": 12384,
          "time": 94.390203,
          "velocity": 0.6220472440944882
        },
        {
          "duration": 0.487804666666662,
          "durationTicks": 64,
          "midi": 48,
          "name": "C3",
          "ticks": 12384,
          "time": 94.390203,
          "velocity": 0.7480314960629921
        },
        {
          "duration": 0.487804666666662,
          "durationTicks": 64,
          "midi": 64,
          "name": "E4",
          "ticks": 12384,
          "time": 94.390203,
          "velocity": 0.6220472440944882
        },
        {
          "duration": 0.487804666666662,
          "durationTicks": 64,
          "midi": 67,
          "name": "G4",
          "ticks": 12480,
          "time": 95.12191,
          "velocity": 0.6220472440944882
        },
        {
          "duration": 0.487804666666662,
          "durationTicks": 64,
          "midi": 64,
          "name": "E4",
          "ticks": 12480,
          "time": 95.12191,
          "velocity": 0.6220472440944882
        },
        {
          "duration": 0.487804666666662,
          "durationTicks": 64,
          "midi": 48,
          "name": "C3",
          "ticks": 12480,
          "time": 95.12191,
          "velocity": 0.6220472440944882
        },
        {
          "duration": 0.487804666666662,
          "durationTicks": 64,
          "midi": 36,
          "name": "C2",
          "ticks": 12480,
          "time": 95.12191,
          "velocity": 0.6220472440944882
        },
        {
          "duration": 0.487804666666662,
          "durationTicks": 64,
          "midi": 72,
          "name": "C5",
          "ticks": 12480,
          "time": 95.12191,
          "velocity": 0.6220472440944882
        },
        {
          "duration": 0.487804666666662,
          "durationTicks": 64,
          "midi": 67,
          "name": "G4",
          "ticks": 12576,
          "time": 95.853617,
          "velocity": 0.6220472440944882
        },
        {
          "duration": 0.487804666666662,
          "durationTicks": 64,
          "midi": 64,
          "name": "E4",
          "ticks": 12576,
          "time": 95.853617,
          "velocity": 0.6220472440944882
        },
        {
          "duration": 0.487804666666662,
          "durationTicks": 64,
          "midi": 48,
          "name": "C3",
          "ticks": 12576,
          "time": 95.853617,
          "velocity": 0.6220472440944882
        },
        {
          "duration": 0.487804666666662,
          "durationTicks": 64,
          "midi": 36,
          "name": "C2",
          "ticks": 12576,
          "time": 95.853617,
          "velocity": 0.6220472440944882
        },
        {
          "duration": 0.487804666666662,
          "durationTicks": 64,
          "midi": 72,
          "name": "C5",
          "ticks": 12576,
          "time": 95.853617,
          "velocity": 0.6220472440944882
        },
        {
          "duration": 0.487804666666662,
          "durationTicks": 64,
          "midi": 60,
          "name": "C4",
          "ticks": 12672,
          "time": 96.585324,
          "velocity": 0.6220472440944882
        },
        {
          "duration": 0.487804666666662,
          "durationTicks": 64,
          "midi": 55,
          "name": "G3",
          "ticks": 12672,
          "time": 96.585324,
          "velocity": 0.6220472440944882
        },
        {
          "duration": 0.9603654375000019,
          "durationTicks": 126,
          "midi": 48,
          "name": "C3",
          "ticks": 12672,
          "time": 96.585324,
          "velocity": 0.6220472440944882
        },
        {
          "duration": 0.9603654375000019,
          "durationTicks": 126,
          "midi": 36,
          "name": "C2",
          "ticks": 12672,
          "time": 96.585324,
          "velocity": 0.6220472440944882
        },
        {
          "duration": 0.487804666666662,
          "durationTicks": 64,
          "midi": 64,
          "name": "E4",
          "ticks": 12672,
          "time": 96.585324,
          "velocity": 0.6220472440944882
        },
        {
          "duration": 0.2439023333333381,
          "durationTicks": 32,
          "midi": 60,
          "name": "C4",
          "ticks": 12768,
          "time": 97.317031,
          "velocity": 0.6220472440944882
        },
        {
          "duration": 0.2439023333333381,
          "durationTicks": 32,
          "midi": 55,
          "name": "G3",
          "ticks": 12768,
          "time": 97.317031,
          "velocity": 0.6220472440944882
        },
        {
          "duration": 0.2439023333333381,
          "durationTicks": 32,
          "midi": 64,
          "name": "E4",
          "ticks": 12768,
          "time": 97.317031,
          "velocity": 0.6220472440944882
        },
        {
          "duration": 0.2439023333333381,
          "durationTicks": 32,
          "midi": 60,
          "name": "C4",
          "ticks": 12816,
          "time": 97.6828845,
          "velocity": 0.6220472440944882
        },
        {
          "duration": 0.2439023333333381,
          "durationTicks": 32,
          "midi": 55,
          "name": "G3",
          "ticks": 12816,
          "time": 97.6828845,
          "velocity": 0.6220472440944882
        },
        {
          "duration": 0.2439023333333381,
          "durationTicks": 32,
          "midi": 64,
          "name": "E4",
          "ticks": 12816,
          "time": 97.6828845,
          "velocity": 0.6220472440944882
        },
        {
          "duration": 0.2439023333333381,
          "durationTicks": 32,
          "midi": 59,
          "name": "B3",
          "ticks": 12864,
          "time": 98.048738,
          "velocity": 0.6220472440944882
        },
        {
          "duration": 0.9603654375000019,
          "durationTicks": 126,
          "midi": 42,
          "name": "F#2",
          "ticks": 12864,
          "time": 98.048738,
          "velocity": 0.6220472440944882
        },
        {
          "duration": 0.2439023333333381,
          "durationTicks": 32,
          "midi": 64,
          "name": "E4",
          "ticks": 12864,
          "time": 98.048738,
          "velocity": 0.6220472440944882
        },
        {
          "duration": 0.2439023333333381,
          "durationTicks": 32,
          "midi": 59,
          "name": "B3",
          "ticks": 12912,
          "time": 98.4145915,
          "velocity": 0.6220472440944882
        },
        {
          "duration": 0.2439023333333381,
          "durationTicks": 32,
          "midi": 64,
          "name": "E4",
          "ticks": 12912,
          "time": 98.4145915,
          "velocity": 0.6220472440944882
        },
        {
          "duration": 0.2439023333333381,
          "durationTicks": 32,
          "midi": 59,
          "name": "B3",
          "ticks": 12960,
          "time": 98.780445,
          "velocity": 0.6220472440944882
        },
        {
          "duration": 0.2439023333333381,
          "durationTicks": 32,
          "midi": 64,
          "name": "E4",
          "ticks": 12960,
          "time": 98.780445,
          "velocity": 0.6220472440944882
        },
        {
          "duration": 0.2439023333333381,
          "durationTicks": 32,
          "midi": 59,
          "name": "B3",
          "ticks": 13008,
          "time": 99.1462985,
          "velocity": 0.6220472440944882
        },
        {
          "duration": 0.2439023333333381,
          "durationTicks": 32,
          "midi": 64,
          "name": "E4",
          "ticks": 13008,
          "time": 99.1462985,
          "velocity": 0.6220472440944882
        },
        {
          "duration": 0.24390233333335232,
          "durationTicks": 32,
          "midi": 59,
          "name": "B3",
          "ticks": 17280,
          "time": 131.70726,
          "velocity": 0.6220472440944882
        },
        {
          "duration": 0.24390233333335232,
          "durationTicks": 32,
          "midi": 52,
          "name": "E3",
          "ticks": 17280,
          "time": 131.70726,
          "velocity": 0.6220472440944882
        },
        {
          "duration": 0.24390233333335232,
          "durationTicks": 32,
          "midi": 64,
          "name": "E4",
          "ticks": 17280,
          "time": 131.70726,
          "velocity": 0.6220472440944882
        },
        {
          "duration": 0.2439023333333239,
          "durationTicks": 32,
          "midi": 59,
          "name": "B3",
          "ticks": 17328,
          "time": 132.0731135,
          "velocity": 0.6220472440944882
        },
        {
          "duration": 0.2439023333333239,
          "durationTicks": 32,
          "midi": 52,
          "name": "E3",
          "ticks": 17328,
          "time": 132.0731135,
          "velocity": 0.6220472440944882
        },
        {
          "duration": 0.2439023333333239,
          "durationTicks": 32,
          "midi": 64,
          "name": "E4",
          "ticks": 17328,
          "time": 132.0731135,
          "velocity": 0.6220472440944882
        },
        {
          "duration": 0.24390233333335232,
          "durationTicks": 32,
          "midi": 59,
          "name": "B3",
          "ticks": 17376,
          "time": 132.438967,
          "velocity": 0.6220472440944882
        },
        {
          "duration": 0.24390233333335232,
          "durationTicks": 32,
          "midi": 52,
          "name": "E3",
          "ticks": 17376,
          "time": 132.438967,
          "velocity": 0.6220472440944882
        },
        {
          "duration": 0.24390233333335232,
          "durationTicks": 32,
          "midi": 64,
          "name": "E4",
          "ticks": 17376,
          "time": 132.438967,
          "velocity": 0.6220472440944882
        },
        {
          "duration": 0.2439023333333239,
          "durationTicks": 32,
          "midi": 59,
          "name": "B3",
          "ticks": 17424,
          "time": 132.8048205,
          "velocity": 0.6220472440944882
        },
        {
          "duration": 0.2439023333333239,
          "durationTicks": 32,
          "midi": 52,
          "name": "E3",
          "ticks": 17424,
          "time": 132.8048205,
          "velocity": 0.6220472440944882
        },
        {
          "duration": 0.2439023333333239,
          "durationTicks": 32,
          "midi": 64,
          "name": "E4",
          "ticks": 17424,
          "time": 132.8048205,
          "velocity": 0.6220472440944882
        },
        {
          "duration": 0.24390233333335232,
          "durationTicks": 32,
          "midi": 59,
          "name": "B3",
          "ticks": 17472,
          "time": 133.170674,
          "velocity": 0.6220472440944882
        },
        {
          "duration": 0.24390233333335232,
          "durationTicks": 32,
          "midi": 52,
          "name": "E3",
          "ticks": 17472,
          "time": 133.170674,
          "velocity": 0.6220472440944882
        },
        {
          "duration": 0.24390233333335232,
          "durationTicks": 32,
          "midi": 64,
          "name": "E4",
          "ticks": 17472,
          "time": 133.170674,
          "velocity": 0.6220472440944882
        },
        {
          "duration": 0.2439023333333239,
          "durationTicks": 32,
          "midi": 59,
          "name": "B3",
          "ticks": 17520,
          "time": 133.5365275,
          "velocity": 0.6220472440944882
        },
        {
          "duration": 0.2439023333333239,
          "durationTicks": 32,
          "midi": 52,
          "name": "E3",
          "ticks": 17520,
          "time": 133.5365275,
          "velocity": 0.6220472440944882
        },
        {
          "duration": 0.2439023333333239,
          "durationTicks": 32,
          "midi": 64,
          "name": "E4",
          "ticks": 17520,
          "time": 133.5365275,
          "velocity": 0.6220472440944882
        },
        {
          "duration": 0.24390233333335232,
          "durationTicks": 32,
          "midi": 59,
          "name": "B3",
          "ticks": 17568,
          "time": 133.902381,
          "velocity": 0.6220472440944882
        },
        {
          "duration": 0.24390233333335232,
          "durationTicks": 32,
          "midi": 52,
          "name": "E3",
          "ticks": 17568,
          "time": 133.902381,
          "velocity": 0.6220472440944882
        },
        {
          "duration": 0.24390233333335232,
          "durationTicks": 32,
          "midi": 64,
          "name": "E4",
          "ticks": 17568,
          "time": 133.902381,
          "velocity": 0.6220472440944882
        },
        {
          "duration": 0.2439023333333239,
          "durationTicks": 32,
          "midi": 59,
          "name": "B3",
          "ticks": 17616,
          "time": 134.2682345,
          "velocity": 0.6220472440944882
        },
        {
          "duration": 0.2439023333333239,
          "durationTicks": 32,
          "midi": 52,
          "name": "E3",
          "ticks": 17616,
          "time": 134.2682345,
          "velocity": 0.6220472440944882
        },
        {
          "duration": 0.2439023333333239,
          "durationTicks": 32,
          "midi": 64,
          "name": "E4",
          "ticks": 17616,
          "time": 134.2682345,
          "velocity": 0.6220472440944882
        },
        {
          "duration": 0.24390233333335232,
          "durationTicks": 32,
          "midi": 59,
          "name": "B3",
          "ticks": 17664,
          "time": 134.634088,
          "velocity": 0.6220472440944882
        },
        {
          "duration": 0.24390233333335232,
          "durationTicks": 32,
          "midi": 52,
          "name": "E3",
          "ticks": 17664,
          "time": 134.634088,
          "velocity": 0.6220472440944882
        },
        {
          "duration": 0.24390233333335232,
          "durationTicks": 32,
          "midi": 64,
          "name": "E4",
          "ticks": 17664,
          "time": 134.634088,
          "velocity": 0.6220472440944882
        },
        {
          "duration": 0.2439023333333239,
          "durationTicks": 32,
          "midi": 59,
          "name": "B3",
          "ticks": 17712,
          "time": 134.9999415,
          "velocity": 0.6220472440944882
        },
        {
          "duration": 0.2439023333333239,
          "durationTicks": 32,
          "midi": 52,
          "name": "E3",
          "ticks": 17712,
          "time": 134.9999415,
          "velocity": 0.6220472440944882
        },
        {
          "duration": 0.2439023333333239,
          "durationTicks": 32,
          "midi": 64,
          "name": "E4",
          "ticks": 17712,
          "time": 134.9999415,
          "velocity": 0.6220472440944882
        },
        {
          "duration": 0.24390233333335232,
          "durationTicks": 32,
          "midi": 59,
          "name": "B3",
          "ticks": 17760,
          "time": 135.365795,
          "velocity": 0.6220472440944882
        },
        {
          "duration": 0.24390233333335232,
          "durationTicks": 32,
          "midi": 52,
          "name": "E3",
          "ticks": 17760,
          "time": 135.365795,
          "velocity": 0.6220472440944882
        },
        {
          "duration": 0.24390233333335232,
          "durationTicks": 32,
          "midi": 64,
          "name": "E4",
          "ticks": 17760,
          "time": 135.365795,
          "velocity": 0.6220472440944882
        },
        {
          "duration": 0.2439023333333239,
          "durationTicks": 32,
          "midi": 59,
          "name": "B3",
          "ticks": 17808,
          "time": 135.7316485,
          "velocity": 0.6220472440944882
        },
        {
          "duration": 0.2439023333333239,
          "durationTicks": 32,
          "midi": 52,
          "name": "E3",
          "ticks": 17808,
          "time": 135.7316485,
          "velocity": 0.6220472440944882
        },
        {
          "duration": 0.2439023333333239,
          "durationTicks": 32,
          "midi": 64,
          "name": "E4",
          "ticks": 17808,
          "time": 135.7316485,
          "velocity": 0.6220472440944882
        },
        {
          "duration": 0.24390233333335232,
          "durationTicks": 32,
          "midi": 59,
          "name": "B3",
          "ticks": 17856,
          "time": 136.097502,
          "velocity": 0.6220472440944882
        },
        {
          "duration": 0.24390233333335232,
          "durationTicks": 32,
          "midi": 52,
          "name": "E3",
          "ticks": 17856,
          "time": 136.097502,
          "velocity": 0.6220472440944882
        },
        {
          "duration": 0.24390233333335232,
          "durationTicks": 32,
          "midi": 64,
          "name": "E4",
          "ticks": 17856,
          "time": 136.097502,
          "velocity": 0.6220472440944882
        },
        {
          "duration": 0.2439023333333239,
          "durationTicks": 32,
          "midi": 59,
          "name": "B3",
          "ticks": 17904,
          "time": 136.4633555,
          "velocity": 0.6220472440944882
        },
        {
          "duration": 0.2439023333333239,
          "durationTicks": 32,
          "midi": 52,
          "name": "E3",
          "ticks": 17904,
          "time": 136.4633555,
          "velocity": 0.6220472440944882
        },
        {
          "duration": 0.2439023333333239,
          "durationTicks": 32,
          "midi": 64,
          "name": "E4",
          "ticks": 17904,
          "time": 136.4633555,
          "velocity": 0.6220472440944882
        },
        {
          "duration": 0.24390233333335232,
          "durationTicks": 32,
          "midi": 59,
          "name": "B3",
          "ticks": 17952,
          "time": 136.829209,
          "velocity": 0.6220472440944882
        },
        {
          "duration": 0.24390233333335232,
          "durationTicks": 32,
          "midi": 52,
          "name": "E3",
          "ticks": 17952,
          "time": 136.829209,
          "velocity": 0.6220472440944882
        },
        {
          "duration": 0.24390233333335232,
          "durationTicks": 32,
          "midi": 64,
          "name": "E4",
          "ticks": 17952,
          "time": 136.829209,
          "velocity": 0.6220472440944882
        },
        {
          "duration": 0.2439023333333239,
          "durationTicks": 32,
          "midi": 59,
          "name": "B3",
          "ticks": 18000,
          "time": 137.1950625,
          "velocity": 0.6220472440944882
        },
        {
          "duration": 0.2439023333333239,
          "durationTicks": 32,
          "midi": 52,
          "name": "E3",
          "ticks": 18000,
          "time": 137.1950625,
          "velocity": 0.6220472440944882
        },
        {
          "duration": 0.2439023333333239,
          "durationTicks": 32,
          "midi": 64,
          "name": "E4",
          "ticks": 18000,
          "time": 137.1950625,
          "velocity": 0.6220472440944882
        },
        {
          "duration": 0.24390233333335232,
          "durationTicks": 32,
          "midi": 59,
          "name": "B3",
          "ticks": 18048,
          "time": 137.560916,
          "velocity": 0.6220472440944882
        },
        {
          "duration": 0.24390233333335232,
          "durationTicks": 32,
          "midi": 52,
          "name": "E3",
          "ticks": 18048,
          "time": 137.560916,
          "velocity": 0.6220472440944882
        },
        {
          "duration": 0.24390233333335232,
          "durationTicks": 32,
          "midi": 64,
          "name": "E4",
          "ticks": 18048,
          "time": 137.560916,
          "velocity": 0.6220472440944882
        },
        {
          "duration": 0.2439023333333239,
          "durationTicks": 32,
          "midi": 59,
          "name": "B3",
          "ticks": 18096,
          "time": 137.9267695,
          "velocity": 0.6220472440944882
        },
        {
          "duration": 0.2439023333333239,
          "durationTicks": 32,
          "midi": 52,
          "name": "E3",
          "ticks": 18096,
          "time": 137.9267695,
          "velocity": 0.6220472440944882
        },
        {
          "duration": 0.2439023333333239,
          "durationTicks": 32,
          "midi": 64,
          "name": "E4",
          "ticks": 18096,
          "time": 137.9267695,
          "velocity": 0.6220472440944882
        },
        {
          "duration": 0.24390233333335232,
          "durationTicks": 32,
          "midi": 59,
          "name": "B3",
          "ticks": 18144,
          "time": 138.292623,
          "velocity": 0.6220472440944882
        },
        {
          "duration": 0.24390233333335232,
          "durationTicks": 32,
          "midi": 52,
          "name": "E3",
          "ticks": 18144,
          "time": 138.292623,
          "velocity": 0.6220472440944882
        },
        {
          "duration": 0.24390233333335232,
          "durationTicks": 32,
          "midi": 64,
          "name": "E4",
          "ticks": 18144,
          "time": 138.292623,
          "velocity": 0.6220472440944882
        },
        {
          "duration": 0.2439023333333239,
          "durationTicks": 32,
          "midi": 59,
          "name": "B3",
          "ticks": 18192,
          "time": 138.6584765,
          "velocity": 0.6220472440944882
        },
        {
          "duration": 0.2439023333333239,
          "durationTicks": 32,
          "midi": 52,
          "name": "E3",
          "ticks": 18192,
          "time": 138.6584765,
          "velocity": 0.6220472440944882
        },
        {
          "duration": 0.2439023333333239,
          "durationTicks": 32,
          "midi": 64,
          "name": "E4",
          "ticks": 18192,
          "time": 138.6584765,
          "velocity": 0.6220472440944882
        },
        {
          "duration": 0.24390233333335232,
          "durationTicks": 32,
          "midi": 59,
          "name": "B3",
          "ticks": 18240,
          "time": 139.02433,
          "velocity": 0.6220472440944882
        },
        {
          "duration": 0.24390233333335232,
          "durationTicks": 32,
          "midi": 52,
          "name": "E3",
          "ticks": 18240,
          "time": 139.02433,
          "velocity": 0.6220472440944882
        },
        {
          "duration": 0.24390233333335232,
          "durationTicks": 32,
          "midi": 64,
          "name": "E4",
          "ticks": 18240,
          "time": 139.02433,
          "velocity": 0.6220472440944882
        },
        {
          "duration": 0.2439023333333239,
          "durationTicks": 32,
          "midi": 59,
          "name": "B3",
          "ticks": 18288,
          "time": 139.3901835,
          "velocity": 0.6220472440944882
        },
        {
          "duration": 0.2439023333333239,
          "durationTicks": 32,
          "midi": 52,
          "name": "E3",
          "ticks": 18288,
          "time": 139.3901835,
          "velocity": 0.6220472440944882
        },
        {
          "duration": 0.2439023333333239,
          "durationTicks": 32,
          "midi": 64,
          "name": "E4",
          "ticks": 18288,
          "time": 139.3901835,
          "velocity": 0.6220472440944882
        },
        {
          "duration": 0.24390233333335232,
          "durationTicks": 32,
          "midi": 59,
          "name": "B3",
          "ticks": 18336,
          "time": 139.756037,
          "velocity": 0.6220472440944882
        },
        {
          "duration": 0.24390233333335232,
          "durationTicks": 32,
          "midi": 52,
          "name": "E3",
          "ticks": 18336,
          "time": 139.756037,
          "velocity": 0.6220472440944882
        },
        {
          "duration": 0.24390233333335232,
          "durationTicks": 32,
          "midi": 64,
          "name": "E4",
          "ticks": 18336,
          "time": 139.756037,
          "velocity": 0.6220472440944882
        },
        {
          "duration": 0.2439023333333239,
          "durationTicks": 32,
          "midi": 59,
          "name": "B3",
          "ticks": 18384,
          "time": 140.1218905,
          "velocity": 0.6220472440944882
        },
        {
          "duration": 0.2439023333333239,
          "durationTicks": 32,
          "midi": 52,
          "name": "E3",
          "ticks": 18384,
          "time": 140.1218905,
          "velocity": 0.6220472440944882
        },
        {
          "duration": 0.2439023333333239,
          "durationTicks": 32,
          "midi": 64,
          "name": "E4",
          "ticks": 18384,
          "time": 140.1218905,
          "velocity": 0.6220472440944882
        },
        {
          "duration": 0.24390233333335232,
          "durationTicks": 32,
          "midi": 59,
          "name": "B3",
          "ticks": 18432,
          "time": 140.487744,
          "velocity": 0.6220472440944882
        },
        {
          "duration": 0.24390233333335232,
          "durationTicks": 32,
          "midi": 52,
          "name": "E3",
          "ticks": 18432,
          "time": 140.487744,
          "velocity": 0.6220472440944882
        },
        {
          "duration": 0.24390233333335232,
          "durationTicks": 32,
          "midi": 64,
          "name": "E4",
          "ticks": 18432,
          "time": 140.487744,
          "velocity": 0.6220472440944882
        },
        {
          "duration": 0.2439023333333239,
          "durationTicks": 32,
          "midi": 59,
          "name": "B3",
          "ticks": 18480,
          "time": 140.8535975,
          "velocity": 0.6220472440944882
        },
        {
          "duration": 0.2439023333333239,
          "durationTicks": 32,
          "midi": 52,
          "name": "E3",
          "ticks": 18480,
          "time": 140.8535975,
          "velocity": 0.6220472440944882
        },
        {
          "duration": 0.2439023333333239,
          "durationTicks": 32,
          "midi": 64,
          "name": "E4",
          "ticks": 18480,
          "time": 140.8535975,
          "velocity": 0.6220472440944882
        },
        {
          "duration": 0.24390233333335232,
          "durationTicks": 32,
          "midi": 59,
          "name": "B3",
          "ticks": 18528,
          "time": 141.219451,
          "velocity": 0.6220472440944882
        },
        {
          "duration": 0.24390233333335232,
          "durationTicks": 32,
          "midi": 52,
          "name": "E3",
          "ticks": 18528,
          "time": 141.219451,
          "velocity": 0.6220472440944882
        },
        {
          "duration": 0.24390233333335232,
          "durationTicks": 32,
          "midi": 64,
          "name": "E4",
          "ticks": 18528,
          "time": 141.219451,
          "velocity": 0.6220472440944882
        },
        {
          "duration": 0.2439023333333239,
          "durationTicks": 32,
          "midi": 59,
          "name": "B3",
          "ticks": 18576,
          "time": 141.5853045,
          "velocity": 0.6220472440944882
        },
        {
          "duration": 0.2439023333333239,
          "durationTicks": 32,
          "midi": 52,
          "name": "E3",
          "ticks": 18576,
          "time": 141.5853045,
          "velocity": 0.6220472440944882
        },
        {
          "duration": 0.2439023333333239,
          "durationTicks": 32,
          "midi": 64,
          "name": "E4",
          "ticks": 18576,
          "time": 141.5853045,
          "velocity": 0.6220472440944882
        },
        {
          "duration": 0.24390233333335232,
          "durationTicks": 32,
          "midi": 59,
          "name": "B3",
          "ticks": 18624,
          "time": 141.951158,
          "velocity": 0.7480314960629921
        },
        {
          "duration": 0.36585350000001426,
          "durationTicks": 48,
          "midi": 38,
          "name": "D2",
          "ticks": 18624,
          "time": 141.951158,
          "velocity": 0.7480314960629921
        },
        {
          "duration": 0.24390233333335232,
          "durationTicks": 32,
          "midi": 64,
          "name": "E4",
          "ticks": 18624,
          "time": 141.951158,
          "velocity": 0.7480314960629921
        },
        {
          "duration": 0.2439023333333239,
          "durationTicks": 32,
          "midi": 59,
          "name": "B3",
          "ticks": 18672,
          "time": 142.3170115,
          "velocity": 0.7480314960629921
        },
        {
          "duration": 0.2439023333333239,
          "durationTicks": 32,
          "midi": 64,
          "name": "E4",
          "ticks": 18672,
          "time": 142.3170115,
          "velocity": 0.7480314960629921
        },
        {
          "duration": 0.42682908333335945,
          "durationTicks": 56,
          "midi": 45,
          "name": "A2",
          "ticks": 18696,
          "time": 142.49993824999999,
          "velocity": 0.7480314960629921
        },
        {
          "duration": 0.24390233333335232,
          "durationTicks": 32,
          "midi": 59,
          "name": "B3",
          "ticks": 18720,
          "time": 142.682865,
          "velocity": 0.7480314960629921
        },
        {
          "duration": 0.24390233333335232,
          "durationTicks": 32,
          "midi": 64,
          "name": "E4",
          "ticks": 18720,
          "time": 142.682865,
          "velocity": 0.7480314960629921
        },
        {
          "duration": 0.2439023333333239,
          "durationTicks": 32,
          "midi": 59,
          "name": "B3",
          "ticks": 18768,
          "time": 143.0487185,
          "velocity": 0.7480314960629921
        },
        {
          "duration": 0.4878046666666478,
          "durationTicks": 64,
          "midi": 50,
          "name": "D3",
          "ticks": 18768,
          "time": 143.0487185,
          "velocity": 0.7480314960629921
        },
        {
          "duration": 0.2439023333333239,
          "durationTicks": 32,
          "midi": 64,
          "name": "E4",
          "ticks": 18768,
          "time": 143.0487185,
          "velocity": 0.7480314960629921
        },
        {
          "duration": 0.24390233333335232,
          "durationTicks": 32,
          "midi": 59,
          "name": "B3",
          "ticks": 18816,
          "time": 143.414572,
          "velocity": 0.7480314960629921
        },
        {
          "duration": 0.24390233333335232,
          "durationTicks": 32,
          "midi": 64,
          "name": "E4",
          "ticks": 18816,
          "time": 143.414572,
          "velocity": 0.7480314960629921
        },
        {
          "duration": 0.36585349999998584,
          "durationTicks": 48,
          "midi": 45,
          "name": "A2",
          "ticks": 18840,
          "time": 143.59749875,
          "velocity": 0.7480314960629921
        },
        {
          "duration": 0.2439023333333239,
          "durationTicks": 32,
          "midi": 59,
          "name": "B3",
          "ticks": 18864,
          "time": 143.7804255,
          "velocity": 0.7480314960629921
        },
        {
          "duration": 0.2439023333333239,
          "durationTicks": 32,
          "midi": 64,
          "name": "E4",
          "ticks": 18864,
          "time": 143.7804255,
          "velocity": 0.7480314960629921
        },
        {
          "duration": 0.24390233333335232,
          "durationTicks": 32,
          "midi": 59,
          "name": "B3",
          "ticks": 18912,
          "time": 144.146279,
          "velocity": 0.7480314960629921
        },
        {
          "duration": 0.24390233333335232,
          "durationTicks": 32,
          "midi": 38,
          "name": "D2",
          "ticks": 18912,
          "time": 144.146279,
          "velocity": 0.7480314960629921
        },
        {
          "duration": 0.24390233333335232,
          "durationTicks": 32,
          "midi": 64,
          "name": "E4",
          "ticks": 18912,
          "time": 144.146279,
          "velocity": 0.7480314960629921
        },
        {
          "duration": 0.2439023333333239,
          "durationTicks": 32,
          "midi": 59,
          "name": "B3",
          "ticks": 18960,
          "time": 144.5121325,
          "velocity": 0.7480314960629921
        },
        {
          "duration": 0.2439023333333239,
          "durationTicks": 32,
          "midi": 45,
          "name": "A2",
          "ticks": 18960,
          "time": 144.5121325,
          "velocity": 0.7480314960629921
        },
        {
          "duration": 0.2439023333333239,
          "durationTicks": 32,
          "midi": 64,
          "name": "E4",
          "ticks": 18960,
          "time": 144.5121325,
          "velocity": 0.7480314960629921
        },
        {
          "duration": 0.24390233333335232,
          "durationTicks": 32,
          "midi": 59,
          "name": "B3",
          "ticks": 19008,
          "time": 144.877986,
          "velocity": 0.6220472440944882
        },
        {
          "duration": 0.24390233333335232,
          "durationTicks": 32,
          "midi": 52,
          "name": "E3",
          "ticks": 19008,
          "time": 144.877986,
          "velocity": 0.6220472440944882
        },
        {
          "duration": 0.24390233333335232,
          "durationTicks": 32,
          "midi": 64,
          "name": "E4",
          "ticks": 19008,
          "time": 144.877986,
          "velocity": 0.6220472440944882
        },
        {
          "duration": 0.2439023333333239,
          "durationTicks": 32,
          "midi": 59,
          "name": "B3",
          "ticks": 19056,
          "time": 145.2438395,
          "velocity": 0.6220472440944882
        },
        {
          "duration": 0.2439023333333239,
          "durationTicks": 32,
          "midi": 52,
          "name": "E3",
          "ticks": 19056,
          "time": 145.2438395,
          "velocity": 0.6220472440944882
        },
        {
          "duration": 0.2439023333333239,
          "durationTicks": 32,
          "midi": 64,
          "name": "E4",
          "ticks": 19056,
          "time": 145.2438395,
          "velocity": 0.6220472440944882
        },
        {
          "duration": 0.24390233333335232,
          "durationTicks": 32,
          "midi": 59,
          "name": "B3",
          "ticks": 19104,
          "time": 145.609693,
          "velocity": 0.6220472440944882
        },
        {
          "duration": 0.24390233333335232,
          "durationTicks": 32,
          "midi": 52,
          "name": "E3",
          "ticks": 19104,
          "time": 145.609693,
          "velocity": 0.6220472440944882
        },
        {
          "duration": 0.24390233333335232,
          "durationTicks": 32,
          "midi": 64,
          "name": "E4",
          "ticks": 19104,
          "time": 145.609693,
          "velocity": 0.6220472440944882
        },
        {
          "duration": 0.2439023333333239,
          "durationTicks": 32,
          "midi": 59,
          "name": "B3",
          "ticks": 19152,
          "time": 145.9755465,
          "velocity": 0.6220472440944882
        },
        {
          "duration": 0.2439023333333239,
          "durationTicks": 32,
          "midi": 52,
          "name": "E3",
          "ticks": 19152,
          "time": 145.9755465,
          "velocity": 0.6220472440944882
        },
        {
          "duration": 0.2439023333333239,
          "durationTicks": 32,
          "midi": 64,
          "name": "E4",
          "ticks": 19152,
          "time": 145.9755465,
          "velocity": 0.6220472440944882
        },
        {
          "duration": 0.36585349999998584,
          "durationTicks": 48,
          "midi": 64,
          "name": "E4",
          "ticks": 19224,
          "time": 146.52432675,
          "velocity": 0.7480314960629921
        },
        {
          "duration": 0.36585349999998584,
          "durationTicks": 48,
          "midi": 61,
          "name": "C#4",
          "ticks": 19224,
          "time": 146.52432675,
          "velocity": 0.7480314960629921
        },
        {
          "duration": 0.36585349999998584,
          "durationTicks": 48,
          "midi": 47,
          "name": "B2",
          "ticks": 19224,
          "time": 146.52432675,
          "velocity": 0.7480314960629921
        },
        {
          "duration": 0.36585349999998584,
          "durationTicks": 48,
          "midi": 66,
          "name": "F#4",
          "ticks": 19224,
          "time": 146.52432675,
          "velocity": 0.7480314960629921
        },
        {
          "duration": 0.4878046666666762,
          "durationTicks": 64,
          "midi": 61,
          "name": "C#4",
          "ticks": 19296,
          "time": 147.073107,
          "velocity": 0.7480314960629921
        },
        {
          "duration": 0.4878046666666762,
          "durationTicks": 64,
          "midi": 64,
          "name": "E4",
          "ticks": 19296,
          "time": 147.073107,
          "velocity": 0.7480314960629921
        },
        {
          "duration": 0.4878046666666762,
          "durationTicks": 64,
          "midi": 47,
          "name": "B2",
          "ticks": 19296,
          "time": 147.073107,
          "velocity": 0.7480314960629921
        },
        {
          "duration": 0.4878046666666762,
          "durationTicks": 64,
          "midi": 66,
          "name": "F#4",
          "ticks": 19296,
          "time": 147.073107,
          "velocity": 0.7480314960629921
        },
        {
          "duration": 0.12195116666666195,
          "durationTicks": 16,
          "midi": 59,
          "name": "B3",
          "ticks": 19392,
          "time": 147.804814,
          "velocity": 0.6220472440944882
        },
        {
          "duration": 0.24390233333335232,
          "durationTicks": 32,
          "midi": 52,
          "name": "E3",
          "ticks": 19392,
          "time": 147.804814,
          "velocity": 0.6220472440944882
        },
        {
          "duration": 0.12195116666666195,
          "durationTicks": 16,
          "midi": 64,
          "name": "E4",
          "ticks": 19392,
          "time": 147.804814,
          "velocity": 0.6220472440944882
        },
        {
          "duration": 0.36585349999998584,
          "durationTicks": 48,
          "midi": 59,
          "name": "B3",
          "ticks": 19416,
          "time": 147.98774075,
          "velocity": 0.6220472440944882
        },
        {
          "duration": 0.36585349999998584,
          "durationTicks": 48,
          "midi": 64,
          "name": "E4",
          "ticks": 19416,
          "time": 147.98774075,
          "velocity": 0.6220472440944882
        },
        {
          "duration": 0.2439023333333239,
          "durationTicks": 32,
          "midi": 52,
          "name": "E3",
          "ticks": 19440,
          "time": 148.1706675,
          "velocity": 0.6220472440944882
        },
        {
          "duration": 0.24390233333335232,
          "durationTicks": 32,
          "midi": 52,
          "name": "E3",
          "ticks": 19488,
          "time": 148.536521,
          "velocity": 0.6220472440944882
        },
        {
          "duration": 0.24390233333335232,
          "durationTicks": 32,
          "midi": 59,
          "name": "B3",
          "ticks": 19488,
          "time": 148.536521,
          "velocity": 0.6220472440944882
        },
        {
          "duration": 0.24390233333335232,
          "durationTicks": 32,
          "midi": 64,
          "name": "E4",
          "ticks": 19488,
          "time": 148.536521,
          "velocity": 0.6220472440944882
        },
        {
          "duration": 0.2439023333333239,
          "durationTicks": 32,
          "midi": 52,
          "name": "E3",
          "ticks": 19536,
          "time": 148.9023745,
          "velocity": 0.6220472440944882
        },
        {
          "duration": 0.2439023333333239,
          "durationTicks": 32,
          "midi": 59,
          "name": "B3",
          "ticks": 19536,
          "time": 148.9023745,
          "velocity": 0.6220472440944882
        },
        {
          "duration": 0.2439023333333239,
          "durationTicks": 32,
          "midi": 64,
          "name": "E4",
          "ticks": 19536,
          "time": 148.9023745,
          "velocity": 0.6220472440944882
        },
        {
          "duration": 0.12195116666666195,
          "durationTicks": 16,
          "midi": 64,
          "name": "E4",
          "ticks": 19608,
          "time": 149.45115475,
          "velocity": 0.7480314960629921
        },
        {
          "duration": 0.12195116666666195,
          "durationTicks": 16,
          "midi": 61,
          "name": "C#4",
          "ticks": 19608,
          "time": 149.45115475,
          "velocity": 0.7480314960629921
        },
        {
          "duration": 0.36585349999998584,
          "durationTicks": 48,
          "midi": 47,
          "name": "B2",
          "ticks": 19608,
          "time": 149.45115475,
          "velocity": 0.7480314960629921
        },
        {
          "duration": 0.12195116666666195,
          "durationTicks": 16,
          "midi": 66,
          "name": "F#4",
          "ticks": 19608,
          "time": 149.45115475,
          "velocity": 0.7480314960629921
        },
        {
          "duration": 0.12195116666666195,
          "durationTicks": 16,
          "midi": 64,
          "name": "E4",
          "ticks": 19632,
          "time": 149.6340815,
          "velocity": 0.7480314960629921
        },
        {
          "duration": 0.12195116666666195,
          "durationTicks": 16,
          "midi": 61,
          "name": "C#4",
          "ticks": 19632,
          "time": 149.6340815,
          "velocity": 0.7480314960629921
        },
        {
          "duration": 0.12195116666666195,
          "durationTicks": 16,
          "midi": 66,
          "name": "F#4",
          "ticks": 19632,
          "time": 149.6340815,
          "velocity": 0.7480314960629921
        },
        {
          "duration": 0.12195116666666195,
          "durationTicks": 16,
          "midi": 64,
          "name": "E4",
          "ticks": 19656,
          "time": 149.81700825,
          "velocity": 0.7480314960629921
        },
        {
          "duration": 0.12195116666666195,
          "durationTicks": 16,
          "midi": 61,
          "name": "C#4",
          "ticks": 19656,
          "time": 149.81700825,
          "velocity": 0.7480314960629921
        },
        {
          "duration": 0.12195116666666195,
          "durationTicks": 16,
          "midi": 66,
          "name": "F#4",
          "ticks": 19656,
          "time": 149.81700825,
          "velocity": 0.7480314960629921
        },
        {
          "duration": 0.24390233333335232,
          "durationTicks": 32,
          "midi": 61,
          "name": "C#4",
          "ticks": 19680,
          "time": 149.999935,
          "velocity": 0.7480314960629921
        },
        {
          "duration": 0.24390233333335232,
          "durationTicks": 32,
          "midi": 64,
          "name": "E4",
          "ticks": 19680,
          "time": 149.999935,
          "velocity": 0.7480314960629921
        },
        {
          "duration": 0.4878046666666762,
          "durationTicks": 64,
          "midi": 47,
          "name": "B2",
          "ticks": 19680,
          "time": 149.999935,
          "velocity": 0.7480314960629921
        },
        {
          "duration": 0.24390233333335232,
          "durationTicks": 32,
          "midi": 66,
          "name": "F#4",
          "ticks": 19680,
          "time": 149.999935,
          "velocity": 0.7480314960629921
        },
        {
          "duration": 0.2439023333333239,
          "durationTicks": 32,
          "midi": 61,
          "name": "C#4",
          "ticks": 19728,
          "time": 150.3657885,
          "velocity": 0.7480314960629921
        },
        {
          "duration": 0.2439023333333239,
          "durationTicks": 32,
          "midi": 64,
          "name": "E4",
          "ticks": 19728,
          "time": 150.3657885,
          "velocity": 0.7480314960629921
        },
        {
          "duration": 0.2439023333333239,
          "durationTicks": 32,
          "midi": 66,
          "name": "F#4",
          "ticks": 19728,
          "time": 150.3657885,
          "velocity": 0.7480314960629921
        },
        {
          "duration": 0.24390233333335232,
          "durationTicks": 32,
          "midi": 63,
          "name": "D#4",
          "ticks": 19776,
          "time": 150.731642,
          "velocity": 0.6220472440944882
        },
        {
          "duration": 0.24390233333335232,
          "durationTicks": 32,
          "midi": 47,
          "name": "B2",
          "ticks": 19776,
          "time": 150.731642,
          "velocity": 0.6220472440944882
        },
        {
          "duration": 0.24390233333335232,
          "durationTicks": 32,
          "midi": 66,
          "name": "F#4",
          "ticks": 19776,
          "time": 150.731642,
          "velocity": 0.6220472440944882
        },
        {
          "duration": 0.2439023333333239,
          "durationTicks": 32,
          "midi": 63,
          "name": "D#4",
          "ticks": 19824,
          "time": 151.0974955,
          "velocity": 0.6220472440944882
        },
        {
          "duration": 0.2439023333333239,
          "durationTicks": 32,
          "midi": 47,
          "name": "B2",
          "ticks": 19824,
          "time": 151.0974955,
          "velocity": 0.6220472440944882
        },
        {
          "duration": 0.2439023333333239,
          "durationTicks": 32,
          "midi": 66,
          "name": "F#4",
          "ticks": 19824,
          "time": 151.0974955,
          "velocity": 0.6220472440944882
        },
        {
          "duration": 0.24390233333335232,
          "durationTicks": 32,
          "midi": 63,
          "name": "D#4",
          "ticks": 19872,
          "time": 151.463349,
          "velocity": 0.6220472440944882
        },
        {
          "duration": 0.24390233333335232,
          "durationTicks": 32,
          "midi": 47,
          "name": "B2",
          "ticks": 19872,
          "time": 151.463349,
          "velocity": 0.6220472440944882
        },
        {
          "duration": 0.24390233333335232,
          "durationTicks": 32,
          "midi": 66,
          "name": "F#4",
          "ticks": 19872,
          "time": 151.463349,
          "velocity": 0.6220472440944882
        },
        {
          "duration": 0.2439023333333239,
          "durationTicks": 32,
          "midi": 63,
          "name": "D#4",
          "ticks": 19920,
          "time": 151.8292025,
          "velocity": 0.6220472440944882
        },
        {
          "duration": 0.2439023333333239,
          "durationTicks": 32,
          "midi": 47,
          "name": "B2",
          "ticks": 19920,
          "time": 151.8292025,
          "velocity": 0.6220472440944882
        },
        {
          "duration": 0.2439023333333239,
          "durationTicks": 32,
          "midi": 66,
          "name": "F#4",
          "ticks": 19920,
          "time": 151.8292025,
          "velocity": 0.6220472440944882
        },
        {
          "duration": 0.36585349999998584,
          "durationTicks": 48,
          "midi": 59,
          "name": "B3",
          "ticks": 19992,
          "time": 152.37798275,
          "velocity": 0.6220472440944882
        },
        {
          "duration": 0.36585349999998584,
          "durationTicks": 48,
          "midi": 56,
          "name": "G#3",
          "ticks": 19992,
          "time": 152.37798275,
          "velocity": 0.6220472440944882
        },
        {
          "duration": 0.36585349999998584,
          "durationTicks": 48,
          "midi": 52,
          "name": "E3",
          "ticks": 19992,
          "time": 152.37798275,
          "velocity": 0.6220472440944882
        },
        {
          "duration": 0.36585349999998584,
          "durationTicks": 48,
          "midi": 64,
          "name": "E4",
          "ticks": 19992,
          "time": 152.37798275,
          "velocity": 0.6220472440944882
        },
        {
          "duration": 0.4878046666666762,
          "durationTicks": 64,
          "midi": 56,
          "name": "G#3",
          "ticks": 20064,
          "time": 152.926763,
          "velocity": 0.6220472440944882
        },
        {
          "duration": 0.4878046666666762,
          "durationTicks": 64,
          "midi": 59,
          "name": "B3",
          "ticks": 20064,
          "time": 152.926763,
          "velocity": 0.6220472440944882
        },
        {
          "duration": 0.4878046666666762,
          "durationTicks": 64,
          "midi": 52,
          "name": "E3",
          "ticks": 20064,
          "time": 152.926763,
          "velocity": 0.6220472440944882
        },
        {
          "duration": 0.4878046666666762,
          "durationTicks": 64,
          "midi": 64,
          "name": "E4",
          "ticks": 20064,
          "time": 152.926763,
          "velocity": 0.6220472440944882
        },
        {
          "duration": 0.12195116666666195,
          "durationTicks": 16,
          "midi": 56,
          "name": "G#3",
          "ticks": 20160,
          "time": 153.65847,
          "velocity": 0.6220472440944882
        },
        {
          "duration": 0.12195116666666195,
          "durationTicks": 16,
          "midi": 59,
          "name": "B3",
          "ticks": 20160,
          "time": 153.65847,
          "velocity": 0.6220472440944882
        },
        {
          "duration": 0.4878046666666762,
          "durationTicks": 64,
          "midi": 52,
          "name": "E3",
          "ticks": 20160,
          "time": 153.65847,
          "velocity": 0.6220472440944882
        },
        {
          "duration": 0.12195116666666195,
          "durationTicks": 16,
          "midi": 64,
          "name": "E4",
          "ticks": 20160,
          "time": 153.65847,
          "velocity": 0.6220472440944882
        },
        {
          "duration": 0.36585349999998584,
          "durationTicks": 48,
          "midi": 56,
          "name": "G#3",
          "ticks": 20184,
          "time": 153.84139675,
          "velocity": 0.6220472440944882
        },
        {
          "duration": 0.36585349999998584,
          "durationTicks": 48,
          "midi": 59,
          "name": "B3",
          "ticks": 20184,
          "time": 153.84139675,
          "velocity": 0.6220472440944882
        },
        {
          "duration": 0.36585349999998584,
          "durationTicks": 48,
          "midi": 64,
          "name": "E4",
          "ticks": 20184,
          "time": 153.84139675,
          "velocity": 0.6220472440944882
        },
        {
          "duration": 0.4878046666666762,
          "durationTicks": 64,
          "midi": 56,
          "name": "G#3",
          "ticks": 20256,
          "time": 154.390177,
          "velocity": 0.6220472440944882
        },
        {
          "duration": 0.4878046666666762,
          "durationTicks": 64,
          "midi": 59,
          "name": "B3",
          "ticks": 20256,
          "time": 154.390177,
          "velocity": 0.6220472440944882
        },
        {
          "duration": 0.4878046666666762,
          "durationTicks": 64,
          "midi": 52,
          "name": "E3",
          "ticks": 20256,
          "time": 154.390177,
          "velocity": 0.6220472440944882
        },
        {
          "duration": 0.4878046666666762,
          "durationTicks": 64,
          "midi": 64,
          "name": "E4",
          "ticks": 20256,
          "time": 154.390177,
          "velocity": 0.6220472440944882
        },
        {
          "duration": 0.12195116666666195,
          "durationTicks": 16,
          "midi": 59,
          "name": "B3",
          "ticks": 20352,
          "time": 155.121884,
          "velocity": 0.6220472440944882
        },
        {
          "duration": 0.12195116666666195,
          "durationTicks": 16,
          "midi": 56,
          "name": "G#3",
          "ticks": 20352,
          "time": 155.121884,
          "velocity": 0.6220472440944882
        },
        {
          "duration": 0.9603654375000019,
          "durationTicks": 126,
          "midi": 52,
          "name": "E3",
          "ticks": 20352,
          "time": 155.121884,
          "velocity": 0.6220472440944882
        },
        {
          "duration": 0.12195116666666195,
          "durationTicks": 16,
          "midi": 64,
          "name": "E4",
          "ticks": 20352,
          "time": 155.121884,
          "velocity": 0.6220472440944882
        },
        {
          "duration": 0.18292675000000713,
          "durationTicks": 24,
          "midi": 56,
          "name": "G#3",
          "ticks": 20376,
          "time": 155.30481075,
          "velocity": 0.6220472440944882
        },
        {
          "duration": 0.18292675000000713,
          "durationTicks": 24,
          "midi": 59,
          "name": "B3",
          "ticks": 20376,
          "time": 155.30481075,
          "velocity": 0.6220472440944882
        },
        {
          "duration": 0.18292675000000713,
          "durationTicks": 24,
          "midi": 64,
          "name": "E4",
          "ticks": 20376,
          "time": 155.30481075,
          "velocity": 0.6220472440944882
        },
        {
          "duration": 0.12195116666666195,
          "durationTicks": 16,
          "midi": 56,
          "name": "G#3",
          "ticks": 20400,
          "time": 155.4877375,
          "velocity": 0.6220472440944882
        },
        {
          "duration": 0.12195116666666195,
          "durationTicks": 16,
          "midi": 59,
          "name": "B3",
          "ticks": 20400,
          "time": 155.4877375,
          "velocity": 0.6220472440944882
        },
        {
          "duration": 0.12195116666666195,
          "durationTicks": 16,
          "midi": 64,
          "name": "E4",
          "ticks": 20400,
          "time": 155.4877375,
          "velocity": 0.6220472440944882
        },
        {
          "duration": 0.36585350000001426,
          "durationTicks": 48,
          "midi": 38,
          "name": "D2",
          "ticks": 20544,
          "time": 156.585298,
          "velocity": 0.6220472440944882
        },
        {
          "duration": 0.36585349999998584,
          "durationTicks": 48,
          "midi": 59,
          "name": "B3",
          "ticks": 20568,
          "time": 156.76822475,
          "velocity": 0.6220472440944882
        },
        {
          "duration": 0.36585349999998584,
          "durationTicks": 48,
          "midi": 64,
          "name": "E4",
          "ticks": 20568,
          "time": 156.76822475,
          "velocity": 0.6220472440944882
        },
        {
          "duration": 0.42682908333335945,
          "durationTicks": 56,
          "midi": 45,
          "name": "A2",
          "ticks": 20616,
          "time": 157.13407825,
          "velocity": 0.6220472440944882
        },
        {
          "duration": 0.36585350000001426,
          "durationTicks": 48,
          "midi": 59,
          "name": "B3",
          "ticks": 20640,
          "time": 157.317005,
          "velocity": 0.6220472440944882
        },
        {
          "duration": 0.36585350000001426,
          "durationTicks": 48,
          "midi": 64,
          "name": "E4",
          "ticks": 20640,
          "time": 157.317005,
          "velocity": 0.6220472440944882
        },
        {
          "duration": 0.4878046666666478,
          "durationTicks": 64,
          "midi": 50,
          "name": "D3",
          "ticks": 20688,
          "time": 157.6828585,
          "velocity": 0.6220472440944882
        },
        {
          "duration": 0.12195116666666195,
          "durationTicks": 16,
          "midi": 59,
          "name": "B3",
          "ticks": 20712,
          "time": 157.86578525,
          "velocity": 0.6220472440944882
        },
        {
          "duration": 0.12195116666666195,
          "durationTicks": 16,
          "midi": 64,
          "name": "E4",
          "ticks": 20712,
          "time": 157.86578525,
          "velocity": 0.6220472440944882
        },
        {
          "duration": 0.36585349999998584,
          "durationTicks": 48,
          "midi": 45,
          "name": "A2",
          "ticks": 20760,
          "time": 158.23163875,
          "velocity": 0.6220472440944882
        },
        {
          "duration": 0.2439023333333239,
          "durationTicks": 32,
          "midi": 59,
          "name": "B3",
          "ticks": 20784,
          "time": 158.4145655,
          "velocity": 0.6220472440944882
        },
        {
          "duration": 0.2439023333333239,
          "durationTicks": 32,
          "midi": 64,
          "name": "E4",
          "ticks": 20784,
          "time": 158.4145655,
          "velocity": 0.6220472440944882
        },
        {
          "duration": 0.24390233333335232,
          "durationTicks": 32,
          "midi": 50,
          "name": "D3",
          "ticks": 20832,
          "time": 158.780419,
          "velocity": 0.6220472440944882
        },
        {
          "duration": 0.36585349999998584,
          "durationTicks": 48,
          "midi": 59,
          "name": "B3",
          "ticks": 20856,
          "time": 158.96334575,
          "velocity": 0.6220472440944882
        },
        {
          "duration": 0.36585349999998584,
          "durationTicks": 48,
          "midi": 64,
          "name": "E4",
          "ticks": 20856,
          "time": 158.96334575,
          "velocity": 0.6220472440944882
        },
        {
          "duration": 0.2439023333333239,
          "durationTicks": 32,
          "midi": 45,
          "name": "A2",
          "ticks": 20880,
          "time": 159.1462725,
          "velocity": 0.6220472440944882
        },
        {
          "duration": 0.24390233333335232,
          "durationTicks": 32,
          "midi": 59,
          "name": "B3",
          "ticks": 20928,
          "time": 159.512126,
          "velocity": 0.6220472440944882
        },
        {
          "duration": 0.24390233333335232,
          "durationTicks": 32,
          "midi": 52,
          "name": "E3",
          "ticks": 20928,
          "time": 159.512126,
          "velocity": 0.6220472440944882
        },
        {
          "duration": 0.24390233333335232,
          "durationTicks": 32,
          "midi": 64,
          "name": "E4",
          "ticks": 20928,
          "time": 159.512126,
          "velocity": 0.6220472440944882
        },
        {
          "duration": 0.2439023333333239,
          "durationTicks": 32,
          "midi": 59,
          "name": "B3",
          "ticks": 20976,
          "time": 159.8779795,
          "velocity": 0.6220472440944882
        },
        {
          "duration": 0.2439023333333239,
          "durationTicks": 32,
          "midi": 52,
          "name": "E3",
          "ticks": 20976,
          "time": 159.8779795,
          "velocity": 0.6220472440944882
        },
        {
          "duration": 0.2439023333333239,
          "durationTicks": 32,
          "midi": 64,
          "name": "E4",
          "ticks": 20976,
          "time": 159.8779795,
          "velocity": 0.6220472440944882
        },
        {
          "duration": 0.24390233333335232,
          "durationTicks": 32,
          "midi": 59,
          "name": "B3",
          "ticks": 21024,
          "time": 160.243833,
          "velocity": 0.6220472440944882
        },
        {
          "duration": 0.24390233333335232,
          "durationTicks": 32,
          "midi": 52,
          "name": "E3",
          "ticks": 21024,
          "time": 160.243833,
          "velocity": 0.6220472440944882
        },
        {
          "duration": 0.24390233333335232,
          "durationTicks": 32,
          "midi": 64,
          "name": "E4",
          "ticks": 21024,
          "time": 160.243833,
          "velocity": 0.6220472440944882
        },
        {
          "duration": 0.2439023333333239,
          "durationTicks": 32,
          "midi": 59,
          "name": "B3",
          "ticks": 21072,
          "time": 160.6096865,
          "velocity": 0.6220472440944882
        },
        {
          "duration": 0.2439023333333239,
          "durationTicks": 32,
          "midi": 52,
          "name": "E3",
          "ticks": 21072,
          "time": 160.6096865,
          "velocity": 0.6220472440944882
        },
        {
          "duration": 0.2439023333333239,
          "durationTicks": 32,
          "midi": 64,
          "name": "E4",
          "ticks": 21072,
          "time": 160.6096865,
          "velocity": 0.6220472440944882
        },
        {
          "duration": 0.36585349999998584,
          "durationTicks": 48,
          "midi": 64,
          "name": "E4",
          "ticks": 21144,
          "time": 161.15846675,
          "velocity": 0.7480314960629921
        },
        {
          "duration": 0.36585349999998584,
          "durationTicks": 48,
          "midi": 61,
          "name": "C#4",
          "ticks": 21144,
          "time": 161.15846675,
          "velocity": 0.7480314960629921
        },
        {
          "duration": 0.36585349999998584,
          "durationTicks": 48,
          "midi": 47,
          "name": "B2",
          "ticks": 21144,
          "time": 161.15846675,
          "velocity": 0.7480314960629921
        },
        {
          "duration": 0.36585349999998584,
          "durationTicks": 48,
          "midi": 66,
          "name": "F#4",
          "ticks": 21144,
          "time": 161.15846675,
          "velocity": 0.7480314960629921
        },
        {
          "duration": 0.4878046666666762,
          "durationTicks": 64,
          "midi": 61,
          "name": "C#4",
          "ticks": 21216,
          "time": 161.707247,
          "velocity": 0.7480314960629921
        },
        {
          "duration": 0.4878046666666762,
          "durationTicks": 64,
          "midi": 64,
          "name": "E4",
          "ticks": 21216,
          "time": 161.707247,
          "velocity": 0.7480314960629921
        },
        {
          "duration": 0.4878046666666762,
          "durationTicks": 64,
          "midi": 47,
          "name": "B2",
          "ticks": 21216,
          "time": 161.707247,
          "velocity": 0.7480314960629921
        },
        {
          "duration": 0.4878046666666762,
          "durationTicks": 64,
          "midi": 66,
          "name": "F#4",
          "ticks": 21216,
          "time": 161.707247,
          "velocity": 0.7480314960629921
        },
        {
          "duration": 0.12195116666666195,
          "durationTicks": 16,
          "midi": 59,
          "name": "B3",
          "ticks": 21312,
          "time": 162.438954,
          "velocity": 0.6220472440944882
        },
        {
          "duration": 0.12195116666666195,
          "durationTicks": 16,
          "midi": 52,
          "name": "E3",
          "ticks": 21312,
          "time": 162.438954,
          "velocity": 0.6220472440944882
        },
        {
          "duration": 0.12195116666666195,
          "durationTicks": 16,
          "midi": 64,
          "name": "E4",
          "ticks": 21312,
          "time": 162.438954,
          "velocity": 0.6220472440944882
        },
        {
          "duration": 0.36585349999998584,
          "durationTicks": 48,
          "midi": 59,
          "name": "B3",
          "ticks": 21336,
          "time": 162.62188075,
          "velocity": 0.6220472440944882
        },
        {
          "duration": 0.36585349999998584,
          "durationTicks": 48,
          "midi": 52,
          "name": "E3",
          "ticks": 21336,
          "time": 162.62188075,
          "velocity": 0.6220472440944882
        },
        {
          "duration": 0.36585349999998584,
          "durationTicks": 48,
          "midi": 64,
          "name": "E4",
          "ticks": 21336,
          "time": 162.62188075,
          "velocity": 0.6220472440944882
        },
        {
          "duration": 0.4878046666666762,
          "durationTicks": 64,
          "midi": 59,
          "name": "B3",
          "ticks": 21408,
          "time": 163.170661,
          "velocity": 0.7480314960629921
        },
        {
          "duration": 0.4878046666666762,
          "durationTicks": 64,
          "midi": 52,
          "name": "E3",
          "ticks": 21408,
          "time": 163.170661,
          "velocity": 0.7480314960629921
        },
        {
          "duration": 0.4878046666666762,
          "durationTicks": 64,
          "midi": 64,
          "name": "E4",
          "ticks": 21408,
          "time": 163.170661,
          "velocity": 0.7480314960629921
        },
        {
          "duration": 0.12195116666666195,
          "durationTicks": 16,
          "midi": 47,
          "name": "B2",
          "ticks": 21504,
          "time": 163.902368,
          "velocity": 0.6220472440944882
        },
        {
          "duration": 0.12195116666666195,
          "durationTicks": 16,
          "midi": 64,
          "name": "E4",
          "ticks": 21504,
          "time": 163.902368,
          "velocity": 0.6220472440944882
        },
        {
          "duration": 0.12195116666666195,
          "durationTicks": 16,
          "midi": 61,
          "name": "C#4",
          "ticks": 21504,
          "time": 163.902368,
          "velocity": 0.6220472440944882
        },
        {
          "duration": 0.12195116666666195,
          "durationTicks": 16,
          "midi": 66,
          "name": "F#4",
          "ticks": 21504,
          "time": 163.902368,
          "velocity": 0.6220472440944882
        },
        {
          "duration": 0.2439023333333239,
          "durationTicks": 32,
          "midi": 47,
          "name": "B2",
          "ticks": 21528,
          "time": 164.08529475,
          "velocity": 0.6220472440944882
        },
        {
          "duration": 0.2439023333333239,
          "durationTicks": 32,
          "midi": 64,
          "name": "E4",
          "ticks": 21528,
          "time": 164.08529475,
          "velocity": 0.6220472440944882
        },
        {
          "duration": 0.2439023333333239,
          "durationTicks": 32,
          "midi": 61,
          "name": "C#4",
          "ticks": 21528,
          "time": 164.08529475,
          "velocity": 0.6220472440944882
        },
        {
          "duration": 0.2439023333333239,
          "durationTicks": 32,
          "midi": 66,
          "name": "F#4",
          "ticks": 21528,
          "time": 164.08529475,
          "velocity": 0.6220472440944882
        },
        {
          "duration": 0.12195116666666195,
          "durationTicks": 16,
          "midi": 47,
          "name": "B2",
          "ticks": 21576,
          "time": 164.45114825,
          "velocity": 0.6220472440944882
        },
        {
          "duration": 0.12195116666666195,
          "durationTicks": 16,
          "midi": 64,
          "name": "E4",
          "ticks": 21576,
          "time": 164.45114825,
          "velocity": 0.6220472440944882
        },
        {
          "duration": 0.12195116666666195,
          "durationTicks": 16,
          "midi": 61,
          "name": "C#4",
          "ticks": 21576,
          "time": 164.45114825,
          "velocity": 0.6220472440944882
        },
        {
          "duration": 0.12195116666666195,
          "durationTicks": 16,
          "midi": 66,
          "name": "F#4",
          "ticks": 21576,
          "time": 164.45114825,
          "velocity": 0.6220472440944882
        },
        {
          "duration": 0.4878046666666762,
          "durationTicks": 64,
          "midi": 47,
          "name": "B2",
          "ticks": 21600,
          "time": 164.634075,
          "velocity": 0.6220472440944882
        },
        {
          "duration": 0.4878046666666762,
          "durationTicks": 64,
          "midi": 64,
          "name": "E4",
          "ticks": 21600,
          "time": 164.634075,
          "velocity": 0.6220472440944882
        },
        {
          "duration": 0.4878046666666762,
          "durationTicks": 64,
          "midi": 61,
          "name": "C#4",
          "ticks": 21600,
          "time": 164.634075,
          "velocity": 0.6220472440944882
        },
        {
          "duration": 0.4878046666666762,
          "durationTicks": 64,
          "midi": 66,
          "name": "F#4",
          "ticks": 21600,
          "time": 164.634075,
          "velocity": 0.6220472440944882
        },
        {
          "duration": 0.9603654375000019,
          "durationTicks": 126,
          "midi": 60,
          "name": "C4",
          "ticks": 21696,
          "time": 165.365782,
          "velocity": 0.6220472440944882
        },
        {
          "duration": 0.9603654375000019,
          "durationTicks": 126,
          "midi": 55,
          "name": "G3",
          "ticks": 21696,
          "time": 165.365782,
          "velocity": 0.6220472440944882
        },
        {
          "duration": 0.9603654375000019,
          "durationTicks": 126,
          "midi": 48,
          "name": "C3",
          "ticks": 21696,
          "time": 165.365782,
          "velocity": 0.6220472440944882
        },
        {
          "duration": 0.9603654375000019,
          "durationTicks": 126,
          "midi": 64,
          "name": "E4",
          "ticks": 21696,
          "time": 165.365782,
          "velocity": 0.6220472440944882
        },
        {
          "duration": 0.24390233333335232,
          "durationTicks": 32,
          "midi": 60,
          "name": "C4",
          "ticks": 21888,
          "time": 166.829196,
          "velocity": 0.6220472440944882
        },
        {
          "duration": 0.24390233333335232,
          "durationTicks": 32,
          "midi": 55,
          "name": "G3",
          "ticks": 21888,
          "time": 166.829196,
          "velocity": 0.6220472440944882
        },
        {
          "duration": 0.9603654375000019,
          "durationTicks": 126,
          "midi": 48,
          "name": "C3",
          "ticks": 21888,
          "time": 166.829196,
          "velocity": 0.6220472440944882
        },
        {
          "duration": 0.24390233333335232,
          "durationTicks": 32,
          "midi": 64,
          "name": "E4",
          "ticks": 21888,
          "time": 166.829196,
          "velocity": 0.6220472440944882
        },
        {
          "duration": 0.2439023333333239,
          "durationTicks": 32,
          "midi": 60,
          "name": "C4",
          "ticks": 21936,
          "time": 167.1950495,
          "velocity": 0.6220472440944882
        },
        {
          "duration": 0.2439023333333239,
          "durationTicks": 32,
          "midi": 55,
          "name": "G3",
          "ticks": 21936,
          "time": 167.1950495,
          "velocity": 0.6220472440944882
        },
        {
          "duration": 0.2439023333333239,
          "durationTicks": 32,
          "midi": 64,
          "name": "E4",
          "ticks": 21936,
          "time": 167.1950495,
          "velocity": 0.6220472440944882
        },
        {
          "duration": 0.24390233333335232,
          "durationTicks": 32,
          "midi": 60,
          "name": "C4",
          "ticks": 21984,
          "time": 167.560903,
          "velocity": 0.6220472440944882
        },
        {
          "duration": 0.24390233333335232,
          "durationTicks": 32,
          "midi": 55,
          "name": "G3",
          "ticks": 21984,
          "time": 167.560903,
          "velocity": 0.6220472440944882
        },
        {
          "duration": 0.24390233333335232,
          "durationTicks": 32,
          "midi": 64,
          "name": "E4",
          "ticks": 21984,
          "time": 167.560903,
          "velocity": 0.6220472440944882
        },
        {
          "duration": 0.2439023333333239,
          "durationTicks": 32,
          "midi": 60,
          "name": "C4",
          "ticks": 22032,
          "time": 167.9267565,
          "velocity": 0.6220472440944882
        },
        {
          "duration": 0.2439023333333239,
          "durationTicks": 32,
          "midi": 55,
          "name": "G3",
          "ticks": 22032,
          "time": 167.9267565,
          "velocity": 0.6220472440944882
        },
        {
          "duration": 0.2439023333333239,
          "durationTicks": 32,
          "midi": 64,
          "name": "E4",
          "ticks": 22032,
          "time": 167.9267565,
          "velocity": 0.6220472440944882
        },
        {
          "duration": 0.4878046666666762,
          "durationTicks": 64,
          "midi": 43,
          "name": "G2",
          "ticks": 25536,
          "time": 194.634062,
          "velocity": 0.7480314960629921
        },
        {
          "duration": 0.4878046666666762,
          "durationTicks": 64,
          "midi": 59,
          "name": "B3",
          "ticks": 25536,
          "time": 194.634062,
          "velocity": 0.7480314960629921
        },
        {
          "duration": 0.4878046666666762,
          "durationTicks": 64,
          "midi": 62,
          "name": "D4",
          "ticks": 25632,
          "time": 195.365769,
          "velocity": 0.6220472440944882
        },
        {
          "duration": 0.4878046666666762,
          "durationTicks": 64,
          "midi": 59,
          "name": "B3",
          "ticks": 25632,
          "time": 195.365769,
          "velocity": 0.6220472440944882
        },
        {
          "duration": 0.4878046666666762,
          "durationTicks": 64,
          "midi": 43,
          "name": "G2",
          "ticks": 25632,
          "time": 195.365769,
          "velocity": 0.6220472440944882
        },
        {
          "duration": 0.4878046666666762,
          "durationTicks": 64,
          "midi": 67,
          "name": "G4",
          "ticks": 25632,
          "time": 195.365769,
          "velocity": 0.6220472440944882
        },
        {
          "duration": 0.4878046666666762,
          "durationTicks": 64,
          "midi": 62,
          "name": "D4",
          "ticks": 25728,
          "time": 196.097476,
          "velocity": 0.6220472440944882
        },
        {
          "duration": 0.4878046666666762,
          "durationTicks": 64,
          "midi": 59,
          "name": "B3",
          "ticks": 25728,
          "time": 196.097476,
          "velocity": 0.6220472440944882
        },
        {
          "duration": 0.9603654375000019,
          "durationTicks": 126,
          "midi": 42,
          "name": "F#2",
          "ticks": 25728,
          "time": 196.097476,
          "velocity": 0.6220472440944882
        },
        {
          "duration": 0.4878046666666762,
          "durationTicks": 64,
          "midi": 66,
          "name": "F#4",
          "ticks": 25728,
          "time": 196.097476,
          "velocity": 0.6220472440944882
        },
        {
          "duration": 0.4878046666666762,
          "durationTicks": 64,
          "midi": 59,
          "name": "B3",
          "ticks": 25824,
          "time": 196.829183,
          "velocity": 0.6220472440944882
        },
        {
          "duration": 0.4878046666666762,
          "durationTicks": 64,
          "midi": 62,
          "name": "D4",
          "ticks": 25824,
          "time": 196.829183,
          "velocity": 0.6220472440944882
        },
        {
          "duration": 0.4878046666666762,
          "durationTicks": 64,
          "midi": 59,
          "name": "B3",
          "ticks": 25920,
          "time": 197.56089,
          "velocity": 0.6220472440944882
        },
        {
          "duration": 0.4878046666666762,
          "durationTicks": 64,
          "midi": 55,
          "name": "G3",
          "ticks": 25920,
          "time": 197.56089,
          "velocity": 0.6220472440944882
        },
        {
          "duration": 0.9603654375000019,
          "durationTicks": 126,
          "midi": 40,
          "name": "E2",
          "ticks": 25920,
          "time": 197.56089,
          "velocity": 0.6220472440944882
        },
        {
          "duration": 0.4878046666666762,
          "durationTicks": 64,
          "midi": 64,
          "name": "E4",
          "ticks": 25920,
          "time": 197.56089,
          "velocity": 0.6220472440944882
        },
        {
          "duration": 0.4878046666666762,
          "durationTicks": 64,
          "midi": 59,
          "name": "B3",
          "ticks": 26016,
          "time": 198.292597,
          "velocity": 0.6220472440944882
        },
        {
          "duration": 0.4878046666666762,
          "durationTicks": 64,
          "midi": 55,
          "name": "G3",
          "ticks": 26016,
          "time": 198.292597,
          "velocity": 0.6220472440944882
        },
        {
          "duration": 0.4878046666666762,
          "durationTicks": 64,
          "midi": 64,
          "name": "E4",
          "ticks": 26016,
          "time": 198.292597,
          "velocity": 0.6220472440944882
        },
        {
          "duration": 0.4878046666666762,
          "durationTicks": 64,
          "midi": 59,
          "name": "B3",
          "ticks": 26112,
          "time": 199.024304,
          "velocity": 0.6220472440944882
        },
        {
          "duration": 0.4878046666666762,
          "durationTicks": 64,
          "midi": 55,
          "name": "G3",
          "ticks": 26112,
          "time": 199.024304,
          "velocity": 0.6220472440944882
        },
        {
          "duration": 0.9603654375000019,
          "durationTicks": 126,
          "midi": 38,
          "name": "D2",
          "ticks": 26112,
          "time": 199.024304,
          "velocity": 0.6220472440944882
        },
        {
          "duration": 0.4878046666666762,
          "durationTicks": 64,
          "midi": 64,
          "name": "E4",
          "ticks": 26112,
          "time": 199.024304,
          "velocity": 0.6220472440944882
        },
        {
          "duration": 0.4878046666666762,
          "durationTicks": 64,
          "midi": 59,
          "name": "B3",
          "ticks": 26208,
          "time": 199.756011,
          "velocity": 0.6220472440944882
        },
        {
          "duration": 0.4878046666666762,
          "durationTicks": 64,
          "midi": 55,
          "name": "G3",
          "ticks": 26208,
          "time": 199.756011,
          "velocity": 0.6220472440944882
        },
        {
          "duration": 0.4878046666666762,
          "durationTicks": 64,
          "midi": 64,
          "name": "E4",
          "ticks": 26208,
          "time": 199.756011,
          "velocity": 0.6220472440944882
        },
        {
          "duration": 0.4878046666666762,
          "durationTicks": 64,
          "midi": 60,
          "name": "C4",
          "ticks": 26304,
          "time": 200.487718,
          "velocity": 0.6220472440944882
        },
        {
          "duration": 0.4878046666666762,
          "durationTicks": 64,
          "midi": 55,
          "name": "G3",
          "ticks": 26304,
          "time": 200.487718,
          "velocity": 0.6220472440944882
        },
        {
          "duration": 0.4878046666666762,
          "durationTicks": 64,
          "midi": 64,
          "name": "E4",
          "ticks": 26304,
          "time": 200.487718,
          "velocity": 0.6220472440944882
        },
        {
          "duration": 0.4878046666666762,
          "durationTicks": 64,
          "midi": 60,
          "name": "C4",
          "ticks": 26400,
          "time": 201.219425,
          "velocity": 0.6220472440944882
        },
        {
          "duration": 0.4878046666666762,
          "durationTicks": 64,
          "midi": 55,
          "name": "G3",
          "ticks": 26400,
          "time": 201.219425,
          "velocity": 0.6220472440944882
        },
        {
          "duration": 0.4878046666666762,
          "durationTicks": 64,
          "midi": 64,
          "name": "E4",
          "ticks": 26400,
          "time": 201.219425,
          "velocity": 0.6220472440944882
        },
        {
          "duration": 0.4878046666666762,
          "durationTicks": 64,
          "midi": 60,
          "name": "C4",
          "ticks": 26496,
          "time": 201.951132,
          "velocity": 0.6220472440944882
        },
        {
          "duration": 0.4878046666666762,
          "durationTicks": 64,
          "midi": 55,
          "name": "G3",
          "ticks": 26496,
          "time": 201.951132,
          "velocity": 0.6220472440944882
        },
        {
          "duration": 0.4878046666666762,
          "durationTicks": 64,
          "midi": 64,
          "name": "E4",
          "ticks": 26496,
          "time": 201.951132,
          "velocity": 0.6220472440944882
        },
        {
          "duration": 0.4878046666666762,
          "durationTicks": 64,
          "midi": 60,
          "name": "C4",
          "ticks": 26592,
          "time": 202.682839,
          "velocity": 0.6220472440944882
        },
        {
          "duration": 0.4878046666666762,
          "durationTicks": 64,
          "midi": 55,
          "name": "G3",
          "ticks": 26592,
          "time": 202.682839,
          "velocity": 0.6220472440944882
        },
        {
          "duration": 0.4878046666666762,
          "durationTicks": 64,
          "midi": 64,
          "name": "E4",
          "ticks": 26592,
          "time": 202.682839,
          "velocity": 0.6220472440944882
        },
        {
          "duration": 0.4878046666666762,
          "durationTicks": 64,
          "midi": 60,
          "name": "C4",
          "ticks": 26688,
          "time": 203.414546,
          "velocity": 0.6220472440944882
        },
        {
          "duration": 0.4878046666666762,
          "durationTicks": 64,
          "midi": 57,
          "name": "A3",
          "ticks": 26688,
          "time": 203.414546,
          "velocity": 0.6220472440944882
        },
        {
          "duration": 0.4878046666666762,
          "durationTicks": 64,
          "midi": 64,
          "name": "E4",
          "ticks": 26688,
          "time": 203.414546,
          "velocity": 0.6220472440944882
        },
        {
          "duration": 0.4878046666666762,
          "durationTicks": 64,
          "midi": 60,
          "name": "C4",
          "ticks": 26784,
          "time": 204.146253,
          "velocity": 0.6220472440944882
        },
        {
          "duration": 0.4878046666666762,
          "durationTicks": 64,
          "midi": 57,
          "name": "A3",
          "ticks": 26784,
          "time": 204.146253,
          "velocity": 0.6220472440944882
        },
        {
          "duration": 0.4878046666666762,
          "durationTicks": 64,
          "midi": 64,
          "name": "E4",
          "ticks": 26784,
          "time": 204.146253,
          "velocity": 0.6220472440944882
        },
        {
          "duration": 0.12195116666669037,
          "durationTicks": 16,
          "midi": 60,
          "name": "C4",
          "ticks": 26928,
          "time": 205.2438135,
          "velocity": 0.7480314960629921
        },
        {
          "duration": 0.3048779166666975,
          "durationTicks": 40,
          "midi": 57,
          "name": "A3",
          "ticks": 26952,
          "time": 205.42674025,
          "velocity": 0.7480314960629921
        },
        {
          "duration": 0.3048779166666975,
          "durationTicks": 40,
          "midi": 60,
          "name": "C4",
          "ticks": 26952,
          "time": 205.42674025,
          "velocity": 0.7480314960629921
        },
        {
          "duration": 0.12195116666666195,
          "durationTicks": 16,
          "midi": 57,
          "name": "A3",
          "ticks": 27000,
          "time": 205.79259375,
          "velocity": 0.7480314960629921
        },
        {
          "duration": 0.12195116666666195,
          "durationTicks": 16,
          "midi": 60,
          "name": "C4",
          "ticks": 27000,
          "time": 205.79259375,
          "velocity": 0.7480314960629921
        },
        {
          "duration": 0.2439023333333239,
          "durationTicks": 32,
          "midi": 59,
          "name": "B3",
          "ticks": 27024,
          "time": 205.9755205,
          "velocity": 0.7480314960629921
        },
        {
          "duration": 0.2439023333333239,
          "durationTicks": 32,
          "midi": 60,
          "name": "C4",
          "ticks": 27024,
          "time": 205.9755205,
          "velocity": 0.7480314960629921
        },
        {
          "duration": 0.4878046666666762,
          "durationTicks": 64,
          "midi": 62,
          "name": "D4",
          "ticks": 27072,
          "time": 206.341374,
          "velocity": 0.6220472440944882
        },
        {
          "duration": 0.4878046666666762,
          "durationTicks": 64,
          "midi": 59,
          "name": "B3",
          "ticks": 27072,
          "time": 206.341374,
          "velocity": 0.6220472440944882
        },
        {
          "duration": 0.4878046666666762,
          "durationTicks": 64,
          "midi": 67,
          "name": "G4",
          "ticks": 27072,
          "time": 206.341374,
          "velocity": 0.6220472440944882
        },
        {
          "duration": 0.4878046666666762,
          "durationTicks": 64,
          "midi": 62,
          "name": "D4",
          "ticks": 27168,
          "time": 207.073081,
          "velocity": 0.6220472440944882
        },
        {
          "duration": 0.4878046666666762,
          "durationTicks": 64,
          "midi": 59,
          "name": "B3",
          "ticks": 27168,
          "time": 207.073081,
          "velocity": 0.6220472440944882
        },
        {
          "duration": 0.4878046666666762,
          "durationTicks": 64,
          "midi": 67,
          "name": "G4",
          "ticks": 27168,
          "time": 207.073081,
          "velocity": 0.6220472440944882
        },
        {
          "duration": 0.4878046666666762,
          "durationTicks": 64,
          "midi": 66,
          "name": "F#4",
          "ticks": 27264,
          "time": 207.804788,
          "velocity": 0.6220472440944882
        },
        {
          "duration": 0.4878046666666762,
          "durationTicks": 64,
          "midi": 62,
          "name": "D4",
          "ticks": 27264,
          "time": 207.804788,
          "velocity": 0.6220472440944882
        },
        {
          "duration": 0.4878046666666762,
          "durationTicks": 64,
          "midi": 59,
          "name": "B3",
          "ticks": 27264,
          "time": 207.804788,
          "velocity": 0.6220472440944882
        },
        {
          "duration": 0.4878046666666762,
          "durationTicks": 64,
          "midi": 62,
          "name": "D4",
          "ticks": 27360,
          "time": 208.536495,
          "velocity": 0.6220472440944882
        },
        {
          "duration": 0.4878046666666762,
          "durationTicks": 64,
          "midi": 59,
          "name": "B3",
          "ticks": 27360,
          "time": 208.536495,
          "velocity": 0.6220472440944882
        },
        {
          "duration": 0.4878046666666762,
          "durationTicks": 64,
          "midi": 66,
          "name": "F#4",
          "ticks": 27360,
          "time": 208.536495,
          "velocity": 0.6220472440944882
        },
        {
          "duration": 0.4878046666666762,
          "durationTicks": 64,
          "midi": 59,
          "name": "B3",
          "ticks": 27456,
          "time": 209.268202,
          "velocity": 0.6220472440944882
        },
        {
          "duration": 0.4878046666666762,
          "durationTicks": 64,
          "midi": 55,
          "name": "G3",
          "ticks": 27456,
          "time": 209.268202,
          "velocity": 0.6220472440944882
        },
        {
          "duration": 0.4878046666666762,
          "durationTicks": 64,
          "midi": 64,
          "name": "E4",
          "ticks": 27456,
          "time": 209.268202,
          "velocity": 0.6220472440944882
        },
        {
          "duration": 0.4878046666666762,
          "durationTicks": 64,
          "midi": 59,
          "name": "B3",
          "ticks": 27552,
          "time": 209.999909,
          "velocity": 0.6220472440944882
        },
        {
          "duration": 0.4878046666666762,
          "durationTicks": 64,
          "midi": 55,
          "name": "G3",
          "ticks": 27552,
          "time": 209.999909,
          "velocity": 0.6220472440944882
        },
        {
          "duration": 0.4878046666666762,
          "durationTicks": 64,
          "midi": 64,
          "name": "E4",
          "ticks": 27552,
          "time": 209.999909,
          "velocity": 0.6220472440944882
        },
        {
          "duration": 0.4878046666666762,
          "durationTicks": 64,
          "midi": 59,
          "name": "B3",
          "ticks": 27648,
          "time": 210.731616,
          "velocity": 0.6220472440944882
        },
        {
          "duration": 0.4878046666666762,
          "durationTicks": 64,
          "midi": 55,
          "name": "G3",
          "ticks": 27648,
          "time": 210.731616,
          "velocity": 0.6220472440944882
        },
        {
          "duration": 0.4878046666666762,
          "durationTicks": 64,
          "midi": 64,
          "name": "E4",
          "ticks": 27648,
          "time": 210.731616,
          "velocity": 0.6220472440944882
        },
        {
          "duration": 0.4878046666666762,
          "durationTicks": 64,
          "midi": 59,
          "name": "B3",
          "ticks": 27744,
          "time": 211.463323,
          "velocity": 0.6220472440944882
        },
        {
          "duration": 0.4878046666666762,
          "durationTicks": 64,
          "midi": 55,
          "name": "G3",
          "ticks": 27744,
          "time": 211.463323,
          "velocity": 0.6220472440944882
        },
        {
          "duration": 0.4878046666666762,
          "durationTicks": 64,
          "midi": 64,
          "name": "E4",
          "ticks": 27744,
          "time": 211.463323,
          "velocity": 0.6220472440944882
        },
        {
          "duration": 0.4878046666666762,
          "durationTicks": 64,
          "midi": 60,
          "name": "C4",
          "ticks": 27840,
          "time": 212.19503,
          "velocity": 0.6220472440944882
        },
        {
          "duration": 0.4878046666666762,
          "durationTicks": 64,
          "midi": 55,
          "name": "G3",
          "ticks": 27840,
          "time": 212.19503,
          "velocity": 0.6220472440944882
        },
        {
          "duration": 0.4878046666666762,
          "durationTicks": 64,
          "midi": 64,
          "name": "E4",
          "ticks": 27840,
          "time": 212.19503,
          "velocity": 0.6220472440944882
        },
        {
          "duration": 0.4878046666666762,
          "durationTicks": 64,
          "midi": 55,
          "name": "G3",
          "ticks": 27936,
          "time": 212.926737,
          "velocity": 0.6220472440944882
        },
        {
          "duration": 0.4878046666666762,
          "durationTicks": 64,
          "midi": 60,
          "name": "C4",
          "ticks": 27936,
          "time": 212.926737,
          "velocity": 0.6220472440944882
        },
        {
          "duration": 0.4878046666666762,
          "durationTicks": 64,
          "midi": 64,
          "name": "E4",
          "ticks": 27936,
          "time": 212.926737,
          "velocity": 0.6220472440944882
        },
        {
          "duration": 0.4878046666666762,
          "durationTicks": 64,
          "midi": 60,
          "name": "C4",
          "ticks": 28032,
          "time": 213.658444,
          "velocity": 0.6220472440944882
        },
        {
          "duration": 0.4878046666666762,
          "durationTicks": 64,
          "midi": 57,
          "name": "A3",
          "ticks": 28032,
          "time": 213.658444,
          "velocity": 0.6220472440944882
        },
        {
          "duration": 0.4878046666666762,
          "durationTicks": 64,
          "midi": 65,
          "name": "F4",
          "ticks": 28032,
          "time": 213.658444,
          "velocity": 0.6220472440944882
        },
        {
          "duration": 0.4878046666666762,
          "durationTicks": 64,
          "midi": 60,
          "name": "C4",
          "ticks": 28128,
          "time": 214.390151,
          "velocity": 0.6220472440944882
        },
        {
          "duration": 0.4878046666666762,
          "durationTicks": 64,
          "midi": 57,
          "name": "A3",
          "ticks": 28128,
          "time": 214.390151,
          "velocity": 0.6220472440944882
        },
        {
          "duration": 0.4878046666666762,
          "durationTicks": 64,
          "midi": 65,
          "name": "F4",
          "ticks": 28128,
          "time": 214.390151,
          "velocity": 0.6220472440944882
        },
        {
          "duration": 0.4878046666666762,
          "durationTicks": 64,
          "midi": 59,
          "name": "B3",
          "ticks": 28224,
          "time": 215.121858,
          "velocity": 0.6220472440944882
        },
        {
          "duration": 0.4878046666666762,
          "durationTicks": 64,
          "midi": 55,
          "name": "G3",
          "ticks": 28224,
          "time": 215.121858,
          "velocity": 0.6220472440944882
        },
        {
          "duration": 0.4878046666666762,
          "durationTicks": 64,
          "midi": 64,
          "name": "E4",
          "ticks": 28224,
          "time": 215.121858,
          "velocity": 0.6220472440944882
        },
        {
          "duration": 0.4878046666666762,
          "durationTicks": 64,
          "midi": 59,
          "name": "B3",
          "ticks": 28320,
          "time": 215.853565,
          "velocity": 0.6220472440944882
        },
        {
          "duration": 0.4878046666666762,
          "durationTicks": 64,
          "midi": 55,
          "name": "G3",
          "ticks": 28320,
          "time": 215.853565,
          "velocity": 0.6220472440944882
        },
        {
          "duration": 0.4878046666666762,
          "durationTicks": 64,
          "midi": 64,
          "name": "E4",
          "ticks": 28320,
          "time": 215.853565,
          "velocity": 0.6220472440944882
        },
        {
          "duration": 0.4878046666666762,
          "durationTicks": 64,
          "midi": 59,
          "name": "B3",
          "ticks": 28416,
          "time": 216.585272,
          "velocity": 0.6220472440944882
        },
        {
          "duration": 0.4878046666666762,
          "durationTicks": 64,
          "midi": 55,
          "name": "G3",
          "ticks": 28416,
          "time": 216.585272,
          "velocity": 0.6220472440944882
        },
        {
          "duration": 0.4878046666666762,
          "durationTicks": 64,
          "midi": 64,
          "name": "E4",
          "ticks": 28416,
          "time": 216.585272,
          "velocity": 0.6220472440944882
        },
        {
          "duration": 0.4878046666666762,
          "durationTicks": 64,
          "midi": 59,
          "name": "B3",
          "ticks": 28512,
          "time": 217.316979,
          "velocity": 0.6220472440944882
        },
        {
          "duration": 0.4878046666666762,
          "durationTicks": 64,
          "midi": 55,
          "name": "G3",
          "ticks": 28512,
          "time": 217.316979,
          "velocity": 0.6220472440944882
        },
        {
          "duration": 0.4878046666666762,
          "durationTicks": 64,
          "midi": 64,
          "name": "E4",
          "ticks": 28512,
          "time": 217.316979,
          "velocity": 0.6220472440944882
        },
        {
          "duration": 0.36585349999998584,
          "durationTicks": 48,
          "midi": 55,
          "name": "G3",
          "ticks": 28608,
          "time": 218.048686,
          "velocity": 0.6220472440944882
        },
        {
          "duration": 0.36585349999998584,
          "durationTicks": 48,
          "midi": 52,
          "name": "E3",
          "ticks": 28608,
          "time": 218.048686,
          "velocity": 0.6220472440944882
        },
        {
          "duration": 0.36585349999998584,
          "durationTicks": 48,
          "midi": 60,
          "name": "C4",
          "ticks": 28608,
          "time": 218.048686,
          "velocity": 0.6220472440944882
        },
        {
          "duration": 0.12195116666669037,
          "durationTicks": 16,
          "midi": 60,
          "name": "C4",
          "ticks": 28680,
          "time": 218.59746625,
          "velocity": 0.6220472440944882
        },
        {
          "duration": 0.12195116666669037,
          "durationTicks": 16,
          "midi": 55,
          "name": "G3",
          "ticks": 28680,
          "time": 218.59746625,
          "velocity": 0.6220472440944882
        },
        {
          "duration": 0.12195116666669037,
          "durationTicks": 16,
          "midi": 64,
          "name": "E4",
          "ticks": 28680,
          "time": 218.59746625,
          "velocity": 0.6220472440944882
        },
        {
          "duration": 0.18292675000000713,
          "durationTicks": 24,
          "midi": 60,
          "name": "C4",
          "ticks": 28704,
          "time": 218.780393,
          "velocity": 0.6220472440944882
        },
        {
          "duration": 0.18292675000000713,
          "durationTicks": 24,
          "midi": 55,
          "name": "G3",
          "ticks": 28704,
          "time": 218.780393,
          "velocity": 0.6220472440944882
        },
        {
          "duration": 0.18292675000000713,
          "durationTicks": 24,
          "midi": 64,
          "name": "E4",
          "ticks": 28704,
          "time": 218.780393,
          "velocity": 0.6220472440944882
        },
        {
          "duration": 0.12195116666669037,
          "durationTicks": 16,
          "midi": 64,
          "name": "E4",
          "ticks": 28776,
          "time": 219.32917325,
          "velocity": 0.6220472440944882
        },
        {
          "duration": 0.12195116666669037,
          "durationTicks": 16,
          "midi": 60,
          "name": "C4",
          "ticks": 28776,
          "time": 219.32917325,
          "velocity": 0.6220472440944882
        },
        {
          "duration": 0.12195116666669037,
          "durationTicks": 16,
          "midi": 67,
          "name": "G4",
          "ticks": 28776,
          "time": 219.32917325,
          "velocity": 0.6220472440944882
        },
        {
          "duration": 0.36585349999998584,
          "durationTicks": 48,
          "midi": 64,
          "name": "E4",
          "ticks": 28800,
          "time": 219.5121,
          "velocity": 0.6220472440944882
        },
        {
          "duration": 0.36585349999998584,
          "durationTicks": 48,
          "midi": 60,
          "name": "C4",
          "ticks": 28800,
          "time": 219.5121,
          "velocity": 0.6220472440944882
        },
        {
          "duration": 0.36585349999998584,
          "durationTicks": 48,
          "midi": 67,
          "name": "G4",
          "ticks": 28800,
          "time": 219.5121,
          "velocity": 0.6220472440944882
        },
        {
          "duration": 0.12195116666669037,
          "durationTicks": 16,
          "midi": 67,
          "name": "G4",
          "ticks": 28872,
          "time": 220.06088025,
          "velocity": 0.6220472440944882
        },
        {
          "duration": 0.12195116666669037,
          "durationTicks": 16,
          "midi": 64,
          "name": "E4",
          "ticks": 28872,
          "time": 220.06088025,
          "velocity": 0.6220472440944882
        },
        {
          "duration": 0.12195116666669037,
          "durationTicks": 16,
          "midi": 72,
          "name": "C5",
          "ticks": 28872,
          "time": 220.06088025,
          "velocity": 0.6220472440944882
        },
        {
          "duration": 0.4878046666666762,
          "durationTicks": 64,
          "midi": 67,
          "name": "G4",
          "ticks": 28896,
          "time": 220.243807,
          "velocity": 0.6220472440944882
        },
        {
          "duration": 0.4878046666666762,
          "durationTicks": 64,
          "midi": 64,
          "name": "E4",
          "ticks": 28896,
          "time": 220.243807,
          "velocity": 0.6220472440944882
        },
        {
          "duration": 0.4878046666666762,
          "durationTicks": 64,
          "midi": 72,
          "name": "C5",
          "ticks": 28896,
          "time": 220.243807,
          "velocity": 0.6220472440944882
        },
        {
          "duration": 0.2439023333333239,
          "durationTicks": 32,
          "midi": 59,
          "name": "B3",
          "ticks": 28992,
          "time": 220.975514,
          "velocity": 0.6220472440944882
        },
        {
          "duration": 0.2439023333333239,
          "durationTicks": 32,
          "midi": 55,
          "name": "G3",
          "ticks": 28992,
          "time": 220.975514,
          "velocity": 0.6220472440944882
        },
        {
          "duration": 0.2439023333333239,
          "durationTicks": 32,
          "midi": 64,
          "name": "E4",
          "ticks": 28992,
          "time": 220.975514,
          "velocity": 0.6220472440944882
        },
        {
          "duration": 0.2439023333333239,
          "durationTicks": 32,
          "midi": 59,
          "name": "B3",
          "ticks": 29040,
          "time": 221.3413675,
          "velocity": 0.6220472440944882
        },
        {
          "duration": 0.2439023333333239,
          "durationTicks": 32,
          "midi": 55,
          "name": "G3",
          "ticks": 29040,
          "time": 221.3413675,
          "velocity": 0.6220472440944882
        },
        {
          "duration": 0.2439023333333239,
          "durationTicks": 32,
          "midi": 64,
          "name": "E4",
          "ticks": 29040,
          "time": 221.3413675,
          "velocity": 0.6220472440944882
        },
        {
          "duration": 0.2439023333333239,
          "durationTicks": 32,
          "midi": 59,
          "name": "B3",
          "ticks": 29088,
          "time": 221.707221,
          "velocity": 0.6220472440944882
        },
        {
          "duration": 0.2439023333333239,
          "durationTicks": 32,
          "midi": 55,
          "name": "G3",
          "ticks": 29088,
          "time": 221.707221,
          "velocity": 0.6220472440944882
        },
        {
          "duration": 0.2439023333333239,
          "durationTicks": 32,
          "midi": 64,
          "name": "E4",
          "ticks": 29088,
          "time": 221.707221,
          "velocity": 0.6220472440944882
        },
        {
          "duration": 0.2439023333333239,
          "durationTicks": 32,
          "midi": 59,
          "name": "B3",
          "ticks": 29136,
          "time": 222.0730745,
          "velocity": 0.6220472440944882
        },
        {
          "duration": 0.2439023333333239,
          "durationTicks": 32,
          "midi": 55,
          "name": "G3",
          "ticks": 29136,
          "time": 222.0730745,
          "velocity": 0.6220472440944882
        },
        {
          "duration": 0.2439023333333239,
          "durationTicks": 32,
          "midi": 64,
          "name": "E4",
          "ticks": 29136,
          "time": 222.0730745,
          "velocity": 0.6220472440944882
        },
        {
          "duration": 0.2439023333333239,
          "durationTicks": 32,
          "midi": 59,
          "name": "B3",
          "ticks": 29184,
          "time": 222.438928,
          "velocity": 0.6220472440944882
        },
        {
          "duration": 0.2439023333333239,
          "durationTicks": 32,
          "midi": 64,
          "name": "E4",
          "ticks": 29184,
          "time": 222.438928,
          "velocity": 0.6220472440944882
        },
        {
          "duration": 0.2439023333333239,
          "durationTicks": 32,
          "midi": 59,
          "name": "B3",
          "ticks": 29232,
          "time": 222.8047815,
          "velocity": 0.6220472440944882
        },
        {
          "duration": 0.2439023333333239,
          "durationTicks": 32,
          "midi": 64,
          "name": "E4",
          "ticks": 29232,
          "time": 222.8047815,
          "velocity": 0.6220472440944882
        },
        {
          "duration": 0.2439023333333239,
          "durationTicks": 32,
          "midi": 59,
          "name": "B3",
          "ticks": 29280,
          "time": 223.170635,
          "velocity": 0.6220472440944882
        },
        {
          "duration": 0.2439023333333239,
          "durationTicks": 32,
          "midi": 64,
          "name": "E4",
          "ticks": 29280,
          "time": 223.170635,
          "velocity": 0.6220472440944882
        },
        {
          "duration": 0.2439023333333239,
          "durationTicks": 32,
          "midi": 59,
          "name": "B3",
          "ticks": 29328,
          "time": 223.5364885,
          "velocity": 0.6220472440944882
        },
        {
          "duration": 0.2439023333333239,
          "durationTicks": 32,
          "midi": 64,
          "name": "E4",
          "ticks": 29328,
          "time": 223.5364885,
          "velocity": 0.6220472440944882
        }
      ]
    },
    {
      "channel": 0,
      "controlChanges": {
        "0": [
          {
            "number": 0,
            "ticks": 192,
            "time": 1.463414,
            "value": 0
          }
        ],
        "32": [
          {
            "number": 32,
            "ticks": 194,
            "time": 1.4786578958333334,
            "value": 0
          }
        ]
      },
      "pitchBends": [],
      "instrument": {
        "family": "piano",
        "number": 0,
        "name": "acoustic grand piano"
      },
      "name": "ElecBass",
      "notes": [],
      "endOfTrackTicks": 34494
    },
    {
      "channel": 4,
      "controlChanges": {
        "1": [
          {
            "number": 1,
            "ticks": 198,
            "time": 1.5091456875,
            "value": 0
          }
        ],
        "7": [
          {
            "number": 7,
            "ticks": 200,
            "time": 1.5243895833333334,
            "value": 0.7559055118110236
          }
        ],
        "10": [
          {
            "number": 10,
            "ticks": 202,
            "time": 1.5396334791666666,
            "value": 0.5039370078740157
          }
        ],
        "11": [
          {
            "number": 11,
            "ticks": 204,
            "time": 1.554877375,
            "value": 1
          }
        ],
        "64": [
          {
            "number": 64,
            "ticks": 206,
            "time": 1.5701212708333334,
            "value": 0
          }
        ],
        "91": [
          {
            "number": 91,
            "ticks": 208,
            "time": 1.5853651666666666,
            "value": 0.5039370078740157
          }
        ],
        "93": [
          {
            "number": 93,
            "ticks": 210,
            "time": 1.6006090625,
            "value": 0.5039370078740157
          }
        ]
      },
      "pitchBends": [
        {
          "ticks": 212,
          "time": 1.6158529583333334,
          "value": 0
        }
      ],
      "instrument": {
        "family": "bass",
        "number": 33,
        "name": "electric bass (finger)"
      },
      "name": "",
      "notes": [
        {
          "duration": 0.24390233333333455,
          "durationTicks": 32,
          "midi": 48,
          "name": "C3",
          "ticks": 1200,
          "time": 9.1463375,
          "velocity": 0.6220472440944882
        },
        {
          "duration": 0.24390233333333455,
          "durationTicks": 32,
          "midi": 48,
          "name": "C3",
          "ticks": 1248,
          "time": 9.512191,
          "velocity": 0.6220472440944882
        },
        {
          "duration": 0.6097558333333346,
          "durationTicks": 80,
          "midi": 48,
          "name": "C3",
          "ticks": 1296,
          "time": 9.8780445,
          "velocity": 0.6220472440944882
        },
        {
          "duration": 0.24390233333333455,
          "durationTicks": 32,
          "midi": 48,
          "name": "C3",
          "ticks": 1392,
          "time": 10.6097515,
          "velocity": 0.6220472440944882
        },
        {
          "duration": 0.48780466666666555,
          "durationTicks": 64,
          "midi": 48,
          "name": "C3",
          "ticks": 1440,
          "time": 10.975605,
          "velocity": 0.6220472440944882
        },
        {
          "duration": 0.24390233333333278,
          "durationTicks": 32,
          "midi": 48,
          "name": "C3",
          "ticks": 1584,
          "time": 12.0731655,
          "velocity": 0.6220472440944882
        },
        {
          "duration": 0.24390233333333278,
          "durationTicks": 32,
          "midi": 48,
          "name": "C3",
          "ticks": 1632,
          "time": 12.439019,
          "velocity": 0.6220472440944882
        },
        {
          "duration": 0.6097558333333328,
          "durationTicks": 80,
          "midi": 48,
          "name": "C3",
          "ticks": 1680,
          "time": 12.8048725,
          "velocity": 0.6220472440944882
        },
        {
          "duration": 0.12195116666666728,
          "durationTicks": 16,
          "midi": 55,
          "name": "G3",
          "ticks": 1776,
          "time": 13.5365795,
          "velocity": 0.6220472440944882
        },
        {
          "duration": 0.12195116666666728,
          "durationTicks": 16,
          "midi": 55,
          "name": "G3",
          "ticks": 1800,
          "time": 13.71950625,
          "velocity": 0.6220472440944882
        },
        {
          "duration": 0.12195116666666728,
          "durationTicks": 16,
          "midi": 55,
          "name": "G3",
          "ticks": 1824,
          "time": 13.902433,
          "velocity": 0.6220472440944882
        },
        {
          "duration": 0.12195116666666728,
          "durationTicks": 16,
          "midi": 55,
          "name": "G3",
          "ticks": 1848,
          "time": 14.08535975,
          "velocity": 0.6220472440944882
        },
        {
          "duration": 0.12195116666666728,
          "durationTicks": 16,
          "midi": 55,
          "name": "G3",
          "ticks": 1872,
          "time": 14.2682865,
          "velocity": 0.6220472440944882
        },
        {
          "duration": 0.12195116666666728,
          "durationTicks": 16,
          "midi": 50,
          "name": "D3",
          "ticks": 1896,
          "time": 14.45121325,
          "velocity": 0.6220472440944882
        },
        {
          "duration": 0.24390233333333278,
          "durationTicks": 32,
          "midi": 55,
          "name": "G3",
          "ticks": 1920,
          "time": 14.63414,
          "velocity": 0.6220472440944882
        },
        {
          "duration": 0.24390233333333278,
          "durationTicks": 32,
          "midi": 55,
          "name": "G3",
          "ticks": 1968,
          "time": 14.9999935,
          "velocity": 0.6220472440944882
        },
        {
          "duration": 0.24390233333333278,
          "durationTicks": 32,
          "midi": 55,
          "name": "G3",
          "ticks": 2016,
          "time": 15.365847,
          "velocity": 0.6220472440944882
        },
        {
          "duration": 0.12195116666666728,
          "durationTicks": 16,
          "midi": 55,
          "name": "G3",
          "ticks": 2064,
          "time": 15.7317005,
          "velocity": 0.6220472440944882
        },
        {
          "duration": 0.12195116666666728,
          "durationTicks": 16,
          "midi": 52,
          "name": "E3",
          "ticks": 2088,
          "time": 15.91462725,
          "velocity": 0.6220472440944882
        },
        {
          "duration": 0.24390233333333455,
          "durationTicks": 32,
          "midi": 54,
          "name": "F#3",
          "ticks": 2112,
          "time": 16.097554,
          "velocity": 0.6220472440944882
        },
        {
          "duration": 0.24390233333333455,
          "durationTicks": 32,
          "midi": 54,
          "name": "F#3",
          "ticks": 2160,
          "time": 16.4634075,
          "velocity": 0.6220472440944882
        },
        {
          "duration": 0.24390233333333455,
          "durationTicks": 32,
          "midi": 54,
          "name": "F#3",
          "ticks": 2208,
          "time": 16.829261,
          "velocity": 0.6220472440944882
        },
        {
          "duration": 0.12195116666666905,
          "durationTicks": 16,
          "midi": 54,
          "name": "F#3",
          "ticks": 2256,
          "time": 17.1951145,
          "velocity": 0.6220472440944882
        },
        {
          "duration": 0.12195116666666905,
          "durationTicks": 16,
          "midi": 50,
          "name": "D3",
          "ticks": 2280,
          "time": 17.37804125,
          "velocity": 0.6220472440944882
        },
        {
          "duration": 0.24390233333333455,
          "durationTicks": 32,
          "midi": 52,
          "name": "E3",
          "ticks": 2304,
          "time": 17.560968,
          "velocity": 0.6220472440944882
        },
        {
          "duration": 0.24390233333333455,
          "durationTicks": 32,
          "midi": 52,
          "name": "E3",
          "ticks": 2352,
          "time": 17.9268215,
          "velocity": 0.6220472440944882
        },
        {
          "duration": 0.24390233333333455,
          "durationTicks": 32,
          "midi": 52,
          "name": "E3",
          "ticks": 2400,
          "time": 18.292675,
          "velocity": 0.6220472440944882
        },
        {
          "duration": 0.12195116666666905,
          "durationTicks": 16,
          "midi": 52,
          "name": "E3",
          "ticks": 2448,
          "time": 18.6585285,
          "velocity": 0.6220472440944882
        },
        {
          "duration": 0.12195116666666905,
          "durationTicks": 16,
          "midi": 50,
          "name": "D3",
          "ticks": 2472,
          "time": 18.84145525,
          "velocity": 0.6220472440944882
        },
        {
          "duration": 0.24390233333333455,
          "durationTicks": 32,
          "midi": 52,
          "name": "E3",
          "ticks": 2496,
          "time": 19.024382,
          "velocity": 0.6220472440944882
        },
        {
          "duration": 0.12195116666666905,
          "durationTicks": 16,
          "midi": 50,
          "name": "D3",
          "ticks": 2544,
          "time": 19.3902355,
          "velocity": 0.6220472440944882
        },
        {
          "duration": 0.4268290833333346,
          "durationTicks": 56,
          "midi": 45,
          "name": "A2",
          "ticks": 2568,
          "time": 19.57316225,
          "velocity": 0.6220472440944882
        },
        {
          "duration": 0.24390233333333455,
          "durationTicks": 32,
          "midi": 47,
          "name": "B2",
          "ticks": 2640,
          "time": 20.1219425,
          "velocity": 0.6220472440944882
        },
        {
          "duration": 0.4878046666666691,
          "durationTicks": 64,
          "midi": 48,
          "name": "C3",
          "ticks": 2688,
          "time": 20.487796,
          "velocity": 0.6220472440944882
        },
        {
          "duration": 0.4878046666666691,
          "durationTicks": 64,
          "midi": 48,
          "name": "C3",
          "ticks": 2784,
          "time": 21.219503,
          "velocity": 0.6220472440944882
        },
        {
          "duration": 0.4878046666666691,
          "durationTicks": 64,
          "midi": 47,
          "name": "B2",
          "ticks": 2880,
          "time": 21.95121,
          "velocity": 0.6220472440944882
        },
        {
          "duration": 0.4878046666666691,
          "durationTicks": 64,
          "midi": 47,
          "name": "B2",
          "ticks": 2976,
          "time": 22.682917,
          "velocity": 0.6220472440944882
        },
        {
          "duration": 0.24390233333333455,
          "durationTicks": 32,
          "midi": 45,
          "name": "A2",
          "ticks": 3072,
          "time": 23.414624,
          "velocity": 0.6220472440944882
        },
        {
          "duration": 0.24390233333333455,
          "durationTicks": 32,
          "midi": 45,
          "name": "A2",
          "ticks": 3120,
          "time": 23.7804775,
          "velocity": 0.6220472440944882
        },
        {
          "duration": 0.9756093333333347,
          "durationTicks": 128,
          "midi": 45,
          "name": "A2",
          "ticks": 3168,
          "time": 24.146331,
          "velocity": 0.6220472440944882
        },
        {
          "duration": 0.6097558333333346,
          "durationTicks": 80,
          "midi": 40,
          "name": "E2",
          "ticks": 3312,
          "time": 25.2438915,
          "velocity": 0.6220472440944882
        },
        {
          "duration": 0.24390233333333455,
          "durationTicks": 32,
          "midi": 42,
          "name": "F#2",
          "ticks": 3408,
          "time": 25.9755985,
          "velocity": 0.6220472440944882
        },
        {
          "duration": 0.48780466666666555,
          "durationTicks": 64,
          "midi": 43,
          "name": "G2",
          "ticks": 3456,
          "time": 26.341452,
          "velocity": 0.6220472440944882
        },
        {
          "duration": 0.24390233333333455,
          "durationTicks": 32,
          "midi": 43,
          "name": "G2",
          "ticks": 3552,
          "time": 27.073159,
          "velocity": 0.6220472440944882
        },
        {
          "duration": 0.24390233333333455,
          "durationTicks": 32,
          "midi": 45,
          "name": "A2",
          "ticks": 3600,
          "time": 27.4390125,
          "velocity": 0.6220472440944882
        },
        {
          "duration": 0.7317070000000001,
          "durationTicks": 96,
          "midi": 47,
          "name": "B2",
          "ticks": 3648,
          "time": 27.804866,
          "velocity": 0.6220472440944882
        },
        {
          "duration": 0.24390233333333455,
          "durationTicks": 32,
          "midi": 50,
          "name": "D3",
          "ticks": 3792,
          "time": 28.9024265,
          "velocity": 0.6220472440944882
        },
        {
          "duration": 0.7317070000000001,
          "durationTicks": 96,
          "midi": 52,
          "name": "E3",
          "ticks": 3840,
          "time": 29.26828,
          "velocity": 0.6220472440944882
        },
        {
          "duration": 0.6097558333333346,
          "durationTicks": 80,
          "midi": 50,
          "name": "D3",
          "ticks": 3984,
          "time": 30.3658405,
          "velocity": 0.6220472440944882
        },
        {
          "duration": 0.6097558333333346,
          "durationTicks": 80,
          "midi": 45,
          "name": "A2",
          "ticks": 4080,
          "time": 31.0975475,
          "velocity": 0.6220472440944882
        },
        {
          "duration": 0.24390233333333455,
          "durationTicks": 32,
          "midi": 47,
          "name": "B2",
          "ticks": 4176,
          "time": 31.8292545,
          "velocity": 0.6220472440944882
        },
        {
          "duration": 0.7317070000000001,
          "durationTicks": 96,
          "midi": 48,
          "name": "C3",
          "ticks": 4224,
          "time": 32.195108,
          "velocity": 0.6220472440944882
        },
        {
          "duration": 0.2439023333333381,
          "durationTicks": 32,
          "midi": 52,
          "name": "E3",
          "ticks": 4368,
          "time": 33.2926685,
          "velocity": 0.6220472440944882
        },
        {
          "duration": 0.4878046666666691,
          "durationTicks": 64,
          "midi": 53,
          "name": "F3",
          "ticks": 4416,
          "time": 33.658522,
          "velocity": 0.6220472440944882
        },
        {
          "duration": 0.4878046666666691,
          "durationTicks": 64,
          "midi": 53,
          "name": "F3",
          "ticks": 4512,
          "time": 34.390229,
          "velocity": 0.6220472440944882
        },
        {
          "duration": 0.4878046666666691,
          "durationTicks": 64,
          "midi": 52,
          "name": "E3",
          "ticks": 4608,
          "time": 35.121936,
          "velocity": 0.6220472440944882
        },
        {
          "duration": 0.4878046666666691,
          "durationTicks": 64,
          "midi": 52,
          "name": "E3",
          "ticks": 4704,
          "time": 35.853643,
          "velocity": 0.6220472440944882
        },
        {
          "duration": 0.4878046666666691,
          "durationTicks": 64,
          "midi": 50,
          "name": "D3",
          "ticks": 4800,
          "time": 36.58535,
          "velocity": 0.6220472440944882
        },
        {
          "duration": 0.4878046666666691,
          "durationTicks": 64,
          "midi": 50,
          "name": "D3",
          "ticks": 4896,
          "time": 37.317057,
          "velocity": 0.6220472440944882
        },
        {
          "duration": 0.4878046666666691,
          "durationTicks": 64,
          "midi": 48,
          "name": "C3",
          "ticks": 4992,
          "time": 38.048764,
          "velocity": 0.6220472440944882
        },
        {
          "duration": 0.2439023333333381,
          "durationTicks": 32,
          "midi": 48,
          "name": "C3",
          "ticks": 5088,
          "time": 38.780471,
          "velocity": 0.6220472440944882
        },
        {
          "duration": 0.2439023333333381,
          "durationTicks": 32,
          "midi": 52,
          "name": "E3",
          "ticks": 5136,
          "time": 39.1463245,
          "velocity": 0.6220472440944882
        },
        {
          "duration": 0.4878046666666691,
          "durationTicks": 64,
          "midi": 53,
          "name": "F3",
          "ticks": 5184,
          "time": 39.512178,
          "velocity": 0.6220472440944882
        },
        {
          "duration": 0.36585350000000005,
          "durationTicks": 48,
          "midi": 53,
          "name": "F3",
          "ticks": 5280,
          "time": 40.243885,
          "velocity": 0.6220472440944882
        },
        {
          "duration": 0.12195116666666905,
          "durationTicks": 16,
          "midi": 50,
          "name": "D3",
          "ticks": 5352,
          "time": 40.79266525,
          "velocity": 0.6220472440944882
        },
        {
          "duration": 0.2439023333333381,
          "durationTicks": 32,
          "midi": 52,
          "name": "E3",
          "ticks": 5376,
          "time": 40.975592,
          "velocity": 0.6220472440944882
        },
        {
          "duration": 0.2439023333333381,
          "durationTicks": 32,
          "midi": 52,
          "name": "E3",
          "ticks": 5424,
          "time": 41.3414455,
          "velocity": 0.6220472440944882
        },
        {
          "duration": 0.36585350000000005,
          "durationTicks": 48,
          "midi": 52,
          "name": "E3",
          "ticks": 5472,
          "time": 41.707299,
          "velocity": 0.6220472440944882
        },
        {
          "duration": 0.12195116666666905,
          "durationTicks": 16,
          "midi": 50,
          "name": "D3",
          "ticks": 5520,
          "time": 42.0731525,
          "velocity": 0.6220472440944882
        },
        {
          "duration": 0.2439023333333381,
          "durationTicks": 32,
          "midi": 48,
          "name": "C3",
          "ticks": 5568,
          "time": 42.439006,
          "velocity": 0.6220472440944882
        },
        {
          "duration": 0.2439023333333381,
          "durationTicks": 32,
          "midi": 48,
          "name": "C3",
          "ticks": 5616,
          "time": 42.8048595,
          "velocity": 0.6220472440944882
        },
        {
          "duration": 0.2439023333333381,
          "durationTicks": 32,
          "midi": 48,
          "name": "C3",
          "ticks": 5664,
          "time": 43.170713,
          "velocity": 0.6220472440944882
        },
        {
          "duration": 0.2439023333333381,
          "durationTicks": 32,
          "midi": 50,
          "name": "D3",
          "ticks": 5712,
          "time": 43.5365665,
          "velocity": 0.6220472440944882
        },
        {
          "duration": 0.487804666666662,
          "durationTicks": 64,
          "midi": 43,
          "name": "G2",
          "ticks": 5760,
          "time": 43.90242,
          "velocity": 0.6220472440944882
        },
        {
          "duration": 0.2439023333333381,
          "durationTicks": 32,
          "midi": 55,
          "name": "G3",
          "ticks": 5856,
          "time": 44.634127,
          "velocity": 0.6220472440944882
        },
        {
          "duration": 0.12195116666666195,
          "durationTicks": 16,
          "midi": 55,
          "name": "G3",
          "ticks": 5904,
          "time": 44.9999805,
          "velocity": 0.6220472440944882
        },
        {
          "duration": 0.12195116666666195,
          "durationTicks": 16,
          "midi": 52,
          "name": "E3",
          "ticks": 5928,
          "time": 45.18290725,
          "velocity": 0.6220472440944882
        },
        {
          "duration": 0.2439023333333381,
          "durationTicks": 32,
          "midi": 54,
          "name": "F#3",
          "ticks": 5952,
          "time": 45.365834,
          "velocity": 0.6220472440944882
        },
        {
          "duration": 0.2439023333333381,
          "durationTicks": 32,
          "midi": 54,
          "name": "F#3",
          "ticks": 6000,
          "time": 45.7316875,
          "velocity": 0.6220472440944882
        },
        {
          "duration": 0.2439023333333381,
          "durationTicks": 32,
          "midi": 54,
          "name": "F#3",
          "ticks": 6048,
          "time": 46.097541,
          "velocity": 0.6220472440944882
        },
        {
          "duration": 0.2439023333333381,
          "durationTicks": 32,
          "midi": 54,
          "name": "F#3",
          "ticks": 6096,
          "time": 46.4633945,
          "velocity": 0.6220472440944882
        },
        {
          "duration": 0.243902333333331,
          "durationTicks": 32,
          "midi": 52,
          "name": "E3",
          "ticks": 6144,
          "time": 46.829248,
          "velocity": 0.6220472440944882
        },
        {
          "duration": 0.243902333333331,
          "durationTicks": 32,
          "midi": 52,
          "name": "E3",
          "ticks": 6192,
          "time": 47.1951015,
          "velocity": 0.6220472440944882
        },
        {
          "duration": 0.243902333333331,
          "durationTicks": 32,
          "midi": 52,
          "name": "E3",
          "ticks": 6240,
          "time": 47.560955,
          "velocity": 0.6220472440944882
        },
        {
          "duration": 0.243902333333331,
          "durationTicks": 32,
          "midi": 52,
          "name": "E3",
          "ticks": 6288,
          "time": 47.9268085,
          "velocity": 0.6220472440944882
        },
        {
          "duration": 0.243902333333331,
          "durationTicks": 32,
          "midi": 52,
          "name": "E3",
          "ticks": 6336,
          "time": 48.292662,
          "velocity": 0.6220472440944882
        },
        {
          "duration": 0.243902333333331,
          "durationTicks": 32,
          "midi": 52,
          "name": "E3",
          "ticks": 6384,
          "time": 48.6585155,
          "velocity": 0.6220472440944882
        },
        {
          "duration": 0.243902333333331,
          "durationTicks": 32,
          "midi": 50,
          "name": "D3",
          "ticks": 6432,
          "time": 49.024369,
          "velocity": 0.6220472440944882
        },
        {
          "duration": 0.243902333333331,
          "durationTicks": 32,
          "midi": 50,
          "name": "D3",
          "ticks": 6480,
          "time": 49.3902225,
          "velocity": 0.6220472440944882
        },
        {
          "duration": 0.243902333333331,
          "durationTicks": 32,
          "midi": 48,
          "name": "C3",
          "ticks": 6528,
          "time": 49.756076,
          "velocity": 0.6220472440944882
        },
        {
          "duration": 0.243902333333331,
          "durationTicks": 32,
          "midi": 48,
          "name": "C3",
          "ticks": 6576,
          "time": 50.1219295,
          "velocity": 0.6220472440944882
        },
        {
          "duration": 0.243902333333331,
          "durationTicks": 32,
          "midi": 48,
          "name": "C3",
          "ticks": 6624,
          "time": 50.487783,
          "velocity": 0.6220472440944882
        },
        {
          "duration": 0.243902333333331,
          "durationTicks": 32,
          "midi": 48,
          "name": "C3",
          "ticks": 6672,
          "time": 50.8536365,
          "velocity": 0.6220472440944882
        },
        {
          "duration": 0.243902333333331,
          "durationTicks": 32,
          "midi": 47,
          "name": "B2",
          "ticks": 6720,
          "time": 51.21949,
          "velocity": 0.6220472440944882
        },
        {
          "duration": 0.243902333333331,
          "durationTicks": 32,
          "midi": 47,
          "name": "B2",
          "ticks": 6768,
          "time": 51.5853435,
          "velocity": 0.6220472440944882
        },
        {
          "duration": 0.243902333333331,
          "durationTicks": 32,
          "midi": 47,
          "name": "B2",
          "ticks": 6816,
          "time": 51.951197,
          "velocity": 0.6220472440944882
        },
        {
          "duration": 0.243902333333331,
          "durationTicks": 32,
          "midi": 47,
          "name": "B2",
          "ticks": 6864,
          "time": 52.3170505,
          "velocity": 0.6220472440944882
        },
        {
          "duration": 0.243902333333331,
          "durationTicks": 32,
          "midi": 45,
          "name": "A2",
          "ticks": 6912,
          "time": 52.682904,
          "velocity": 0.6220472440944882
        },
        {
          "duration": 0.243902333333331,
          "durationTicks": 32,
          "midi": 45,
          "name": "A2",
          "ticks": 6960,
          "time": 53.0487575,
          "velocity": 0.6220472440944882
        },
        {
          "duration": 0.4878046666666691,
          "durationTicks": 64,
          "midi": 45,
          "name": "A2",
          "ticks": 7008,
          "time": 53.414611,
          "velocity": 0.6220472440944882
        },
        {
          "duration": 0.12195116666666905,
          "durationTicks": 16,
          "midi": 40,
          "name": "E2",
          "ticks": 7152,
          "time": 54.5121715,
          "velocity": 0.6220472440944882
        },
        {
          "duration": 0.12195116666666905,
          "durationTicks": 16,
          "midi": 40,
          "name": "E2",
          "ticks": 7176,
          "time": 54.69509825,
          "velocity": 0.6220472440944882
        },
        {
          "duration": 0.243902333333331,
          "durationTicks": 32,
          "midi": 40,
          "name": "E2",
          "ticks": 7200,
          "time": 54.878025,
          "velocity": 0.6220472440944882
        },
        {
          "duration": 0.243902333333331,
          "durationTicks": 32,
          "midi": 42,
          "name": "F#2",
          "ticks": 7248,
          "time": 55.2438785,
          "velocity": 0.6220472440944882
        },
        {
          "duration": 0.4878046666666691,
          "durationTicks": 64,
          "midi": 43,
          "name": "G2",
          "ticks": 7296,
          "time": 55.609732,
          "velocity": 0.6220472440944882
        },
        {
          "duration": 0.243902333333331,
          "durationTicks": 32,
          "midi": 43,
          "name": "G2",
          "ticks": 7392,
          "time": 56.341439,
          "velocity": 0.6220472440944882
        },
        {
          "duration": 0.243902333333331,
          "durationTicks": 32,
          "midi": 45,
          "name": "A2",
          "ticks": 7440,
          "time": 56.7072925,
          "velocity": 0.6220472440944882
        },
        {
          "duration": 0.4878046666666691,
          "durationTicks": 64,
          "midi": 47,
          "name": "B2",
          "ticks": 7488,
          "time": 57.073146,
          "velocity": 0.6220472440944882
        },
        {
          "duration": 0.243902333333331,
          "durationTicks": 32,
          "midi": 47,
          "name": "B2",
          "ticks": 7584,
          "time": 57.804853,
          "velocity": 0.6220472440944882
        },
        {
          "duration": 0.243902333333331,
          "durationTicks": 32,
          "midi": 50,
          "name": "D3",
          "ticks": 7632,
          "time": 58.1707065,
          "velocity": 0.6220472440944882
        },
        {
          "duration": 0.4878046666666691,
          "durationTicks": 64,
          "midi": 52,
          "name": "E3",
          "ticks": 7680,
          "time": 58.53656,
          "velocity": 0.6220472440944882
        },
        {
          "duration": 0.4878046666666691,
          "durationTicks": 64,
          "midi": 52,
          "name": "E3",
          "ticks": 7776,
          "time": 59.268267,
          "velocity": 0.6220472440944882
        },
        {
          "duration": 0.4878046666666691,
          "durationTicks": 64,
          "midi": 50,
          "name": "D3",
          "ticks": 7872,
          "time": 59.999974,
          "velocity": 0.6220472440944882
        },
        {
          "duration": 0.243902333333331,
          "durationTicks": 32,
          "midi": 50,
          "name": "D3",
          "ticks": 7968,
          "time": 60.731681,
          "velocity": 0.6220472440944882
        },
        {
          "duration": 0.243902333333331,
          "durationTicks": 32,
          "midi": 50,
          "name": "D3",
          "ticks": 8016,
          "time": 61.0975345,
          "velocity": 0.6220472440944882
        },
        {
          "duration": 0.4878046666666691,
          "durationTicks": 64,
          "midi": 48,
          "name": "C3",
          "ticks": 8064,
          "time": 61.463388,
          "velocity": 0.6220472440944882
        },
        {
          "duration": 0.243902333333331,
          "durationTicks": 32,
          "midi": 48,
          "name": "C3",
          "ticks": 8160,
          "time": 62.195095,
          "velocity": 0.6220472440944882
        },
        {
          "duration": 0.243902333333331,
          "durationTicks": 32,
          "midi": 52,
          "name": "E3",
          "ticks": 8208,
          "time": 62.5609485,
          "velocity": 0.6220472440944882
        },
        {
          "duration": 0.4878046666666691,
          "durationTicks": 64,
          "midi": 53,
          "name": "F3",
          "ticks": 8256,
          "time": 62.926802,
          "velocity": 0.6220472440944882
        },
        {
          "duration": 0.4878046666666691,
          "durationTicks": 64,
          "midi": 53,
          "name": "F3",
          "ticks": 8352,
          "time": 63.658509,
          "velocity": 0.6220472440944882
        },
        {
          "duration": 0.4878046666666762,
          "durationTicks": 64,
          "midi": 52,
          "name": "E3",
          "ticks": 8448,
          "time": 64.390216,
          "velocity": 0.6220472440944882
        },
        {
          "duration": 0.2439023333333381,
          "durationTicks": 32,
          "midi": 52,
          "name": "E3",
          "ticks": 8544,
          "time": 65.121923,
          "velocity": 0.6220472440944882
        },
        {
          "duration": 0.2439023333333381,
          "durationTicks": 32,
          "midi": 52,
          "name": "E3",
          "ticks": 8592,
          "time": 65.4877765,
          "velocity": 0.6220472440944882
        },
        {
          "duration": 0.2439023333333381,
          "durationTicks": 32,
          "midi": 50,
          "name": "D3",
          "ticks": 8640,
          "time": 65.85363,
          "velocity": 0.6220472440944882
        },
        {
          "duration": 0.2439023333333381,
          "durationTicks": 32,
          "midi": 50,
          "name": "D3",
          "ticks": 8688,
          "time": 66.2194835,
          "velocity": 0.6220472440944882
        },
        {
          "duration": 0.2439023333333381,
          "durationTicks": 32,
          "midi": 50,
          "name": "D3",
          "ticks": 8736,
          "time": 66.585337,
          "velocity": 0.6220472440944882
        },
        {
          "duration": 0.2439023333333381,
          "durationTicks": 32,
          "midi": 50,
          "name": "D3",
          "ticks": 8784,
          "time": 66.9511905,
          "velocity": 0.6220472440944882
        },
        {
          "duration": 0.2439023333333381,
          "durationTicks": 32,
          "midi": 48,
          "name": "C3",
          "ticks": 8832,
          "time": 67.317044,
          "velocity": 0.6220472440944882
        },
        {
          "duration": 0.2439023333333381,
          "durationTicks": 32,
          "midi": 48,
          "name": "C3",
          "ticks": 8880,
          "time": 67.6828975,
          "velocity": 0.6220472440944882
        },
        {
          "duration": 0.2439023333333381,
          "durationTicks": 32,
          "midi": 48,
          "name": "C3",
          "ticks": 8928,
          "time": 68.048751,
          "velocity": 0.6220472440944882
        },
        {
          "duration": 0.2439023333333381,
          "durationTicks": 32,
          "midi": 48,
          "name": "C3",
          "ticks": 8976,
          "time": 68.4146045,
          "velocity": 0.6220472440944882
        },
        {
          "duration": 0.2439023333333381,
          "durationTicks": 32,
          "midi": 48,
          "name": "C3",
          "ticks": 9024,
          "time": 68.780458,
          "velocity": 0.6220472440944882
        },
        {
          "duration": 0.2439023333333381,
          "durationTicks": 32,
          "midi": 48,
          "name": "C3",
          "ticks": 9072,
          "time": 69.1463115,
          "velocity": 0.6220472440944882
        },
        {
          "duration": 0.2439023333333381,
          "durationTicks": 32,
          "midi": 48,
          "name": "C3",
          "ticks": 9120,
          "time": 69.512165,
          "velocity": 0.6220472440944882
        },
        {
          "duration": 0.2439023333333381,
          "durationTicks": 32,
          "midi": 48,
          "name": "C3",
          "ticks": 9168,
          "time": 69.8780185,
          "velocity": 0.6220472440944882
        },
        {
          "duration": 0.4878046666666762,
          "durationTicks": 64,
          "midi": 43,
          "name": "G2",
          "ticks": 9216,
          "time": 70.243872,
          "velocity": 0.6220472440944882
        },
        {
          "duration": 0.2439023333333381,
          "durationTicks": 32,
          "midi": 55,
          "name": "G3",
          "ticks": 9312,
          "time": 70.975579,
          "velocity": 0.6220472440944882
        },
        {
          "duration": 0.12195116666667616,
          "durationTicks": 16,
          "midi": 55,
          "name": "G3",
          "ticks": 9360,
          "time": 71.3414325,
          "velocity": 0.6220472440944882
        },
        {
          "duration": 0.12195116666666195,
          "durationTicks": 16,
          "midi": 52,
          "name": "E3",
          "ticks": 9384,
          "time": 71.52435925,
          "velocity": 0.6220472440944882
        },
        {
          "duration": 0.2439023333333381,
          "durationTicks": 32,
          "midi": 54,
          "name": "F#3",
          "ticks": 9408,
          "time": 71.707286,
          "velocity": 0.6220472440944882
        },
        {
          "duration": 0.2439023333333381,
          "durationTicks": 32,
          "midi": 54,
          "name": "F#3",
          "ticks": 9456,
          "time": 72.0731395,
          "velocity": 0.6220472440944882
        },
        {
          "duration": 0.2439023333333381,
          "durationTicks": 32,
          "midi": 54,
          "name": "F#3",
          "ticks": 9504,
          "time": 72.438993,
          "velocity": 0.6220472440944882
        },
        {
          "duration": 0.2439023333333381,
          "durationTicks": 32,
          "midi": 54,
          "name": "F#3",
          "ticks": 9552,
          "time": 72.8048465,
          "velocity": 0.6220472440944882
        },
        {
          "duration": 0.2439023333333381,
          "durationTicks": 32,
          "midi": 52,
          "name": "E3",
          "ticks": 9600,
          "time": 73.1707,
          "velocity": 0.6220472440944882
        },
        {
          "duration": 0.2439023333333381,
          "durationTicks": 32,
          "midi": 52,
          "name": "E3",
          "ticks": 9648,
          "time": 73.5365535,
          "velocity": 0.6220472440944882
        },
        {
          "duration": 0.2439023333333381,
          "durationTicks": 32,
          "midi": 52,
          "name": "E3",
          "ticks": 9696,
          "time": 73.902407,
          "velocity": 0.6220472440944882
        },
        {
          "duration": 0.2439023333333381,
          "durationTicks": 32,
          "midi": 52,
          "name": "E3",
          "ticks": 9744,
          "time": 74.2682605,
          "velocity": 0.6220472440944882
        },
        {
          "duration": 0.2439023333333381,
          "durationTicks": 32,
          "midi": 52,
          "name": "E3",
          "ticks": 9792,
          "time": 74.634114,
          "velocity": 0.6220472440944882
        },
        {
          "duration": 0.2439023333333381,
          "durationTicks": 32,
          "midi": 52,
          "name": "E3",
          "ticks": 9840,
          "time": 74.9999675,
          "velocity": 0.6220472440944882
        },
        {
          "duration": 0.2439023333333381,
          "durationTicks": 32,
          "midi": 50,
          "name": "D3",
          "ticks": 9888,
          "time": 75.365821,
          "velocity": 0.6220472440944882
        },
        {
          "duration": 0.2439023333333381,
          "durationTicks": 32,
          "midi": 50,
          "name": "D3",
          "ticks": 9936,
          "time": 75.7316745,
          "velocity": 0.6220472440944882
        },
        {
          "duration": 0.4878046666666762,
          "durationTicks": 64,
          "midi": 48,
          "name": "C3",
          "ticks": 9984,
          "time": 76.097528,
          "velocity": 0.6220472440944882
        },
        {
          "duration": 0.4878046666666762,
          "durationTicks": 64,
          "midi": 48,
          "name": "C3",
          "ticks": 10080,
          "time": 76.829235,
          "velocity": 0.6220472440944882
        },
        {
          "duration": 0.4878046666666762,
          "durationTicks": 64,
          "midi": 47,
          "name": "B2",
          "ticks": 10176,
          "time": 77.560942,
          "velocity": 0.6220472440944882
        },
        {
          "duration": 0.4878046666666762,
          "durationTicks": 64,
          "midi": 47,
          "name": "B2",
          "ticks": 10272,
          "time": 78.292649,
          "velocity": 0.6220472440944882
        },
        {
          "duration": 0.2439023333333381,
          "durationTicks": 32,
          "midi": 45,
          "name": "A2",
          "ticks": 10368,
          "time": 79.024356,
          "velocity": 0.6220472440944882
        },
        {
          "duration": 0.2439023333333381,
          "durationTicks": 32,
          "midi": 45,
          "name": "A2",
          "ticks": 10416,
          "time": 79.3902095,
          "velocity": 0.6220472440944882
        },
        {
          "duration": 0.4878046666666762,
          "durationTicks": 64,
          "midi": 45,
          "name": "A2",
          "ticks": 10464,
          "time": 79.756063,
          "velocity": 0.6220472440944882
        },
        {
          "duration": 0.12195116666667616,
          "durationTicks": 16,
          "midi": 40,
          "name": "E2",
          "ticks": 10608,
          "time": 80.8536235,
          "velocity": 0.6220472440944882
        },
        {
          "duration": 0.12195116666666195,
          "durationTicks": 16,
          "midi": 40,
          "name": "E2",
          "ticks": 10632,
          "time": 81.03655025,
          "velocity": 0.6220472440944882
        },
        {
          "duration": 0.2439023333333381,
          "durationTicks": 32,
          "midi": 40,
          "name": "E2",
          "ticks": 10656,
          "time": 81.219477,
          "velocity": 0.6220472440944882
        },
        {
          "duration": 0.2439023333333381,
          "durationTicks": 32,
          "midi": 42,
          "name": "F#2",
          "ticks": 10704,
          "time": 81.5853305,
          "velocity": 0.6220472440944882
        },
        {
          "duration": 0.2439023333333381,
          "durationTicks": 32,
          "midi": 43,
          "name": "G2",
          "ticks": 10752,
          "time": 81.951184,
          "velocity": 0.6220472440944882
        },
        {
          "duration": 0.2439023333333381,
          "durationTicks": 32,
          "midi": 43,
          "name": "G2",
          "ticks": 10800,
          "time": 82.3170375,
          "velocity": 0.6220472440944882
        },
        {
          "duration": 0.2439023333333381,
          "durationTicks": 32,
          "midi": 43,
          "name": "G2",
          "ticks": 10848,
          "time": 82.682891,
          "velocity": 0.6220472440944882
        },
        {
          "duration": 0.2439023333333381,
          "durationTicks": 32,
          "midi": 43,
          "name": "G2",
          "ticks": 10896,
          "time": 83.0487445,
          "velocity": 0.6220472440944882
        },
        {
          "duration": 0.2439023333333381,
          "durationTicks": 32,
          "midi": 42,
          "name": "F#2",
          "ticks": 10944,
          "time": 83.414598,
          "velocity": 0.6220472440944882
        },
        {
          "duration": 0.2439023333333381,
          "durationTicks": 32,
          "midi": 42,
          "name": "F#2",
          "ticks": 10992,
          "time": 83.7804515,
          "velocity": 0.6220472440944882
        },
        {
          "duration": 0.2439023333333381,
          "durationTicks": 32,
          "midi": 42,
          "name": "F#2",
          "ticks": 11040,
          "time": 84.146305,
          "velocity": 0.6220472440944882
        },
        {
          "duration": 0.2439023333333381,
          "durationTicks": 32,
          "midi": 42,
          "name": "F#2",
          "ticks": 11088,
          "time": 84.5121585,
          "velocity": 0.6220472440944882
        },
        {
          "duration": 0.2439023333333381,
          "durationTicks": 32,
          "midi": 40,
          "name": "E2",
          "ticks": 11136,
          "time": 84.878012,
          "velocity": 0.6220472440944882
        },
        {
          "duration": 0.2439023333333381,
          "durationTicks": 32,
          "midi": 40,
          "name": "E2",
          "ticks": 11184,
          "time": 85.2438655,
          "velocity": 0.6220472440944882
        },
        {
          "duration": 0.2439023333333381,
          "durationTicks": 32,
          "midi": 40,
          "name": "E2",
          "ticks": 11232,
          "time": 85.609719,
          "velocity": 0.6220472440944882
        },
        {
          "duration": 0.2439023333333381,
          "durationTicks": 32,
          "midi": 40,
          "name": "E2",
          "ticks": 11280,
          "time": 85.9755725,
          "velocity": 0.6220472440944882
        },
        {
          "duration": 0.4878046666666762,
          "durationTicks": 64,
          "midi": 50,
          "name": "D3",
          "ticks": 11328,
          "time": 86.341426,
          "velocity": 0.6220472440944882
        },
        {
          "duration": 0.2439023333333239,
          "durationTicks": 32,
          "midi": 50,
          "name": "D3",
          "ticks": 11424,
          "time": 87.073133,
          "velocity": 0.6220472440944882
        },
        {
          "duration": 0.2439023333333239,
          "durationTicks": 32,
          "midi": 50,
          "name": "D3",
          "ticks": 11472,
          "time": 87.4389865,
          "velocity": 0.6220472440944882
        },
        {
          "duration": 0.4878046666666762,
          "durationTicks": 64,
          "midi": 48,
          "name": "C3",
          "ticks": 11520,
          "time": 87.80484,
          "velocity": 0.6220472440944882
        },
        {
          "duration": 0.2439023333333239,
          "durationTicks": 32,
          "midi": 48,
          "name": "C3",
          "ticks": 11616,
          "time": 88.536547,
          "velocity": 0.6220472440944882
        },
        {
          "duration": 0.2439023333333239,
          "durationTicks": 32,
          "midi": 52,
          "name": "E3",
          "ticks": 11664,
          "time": 88.9024005,
          "velocity": 0.6220472440944882
        },
        {
          "duration": 0.4878046666666762,
          "durationTicks": 64,
          "midi": 53,
          "name": "F3",
          "ticks": 11712,
          "time": 89.268254,
          "velocity": 0.6220472440944882
        },
        {
          "duration": 0.4878046666666762,
          "durationTicks": 64,
          "midi": 53,
          "name": "F3",
          "ticks": 11808,
          "time": 89.999961,
          "velocity": 0.6220472440944882
        },
        {
          "duration": 0.4878046666666762,
          "durationTicks": 64,
          "midi": 40,
          "name": "E2",
          "ticks": 11904,
          "time": 90.731668,
          "velocity": 0.6220472440944882
        },
        {
          "duration": 0.2439023333333239,
          "durationTicks": 32,
          "midi": 40,
          "name": "E2",
          "ticks": 12000,
          "time": 91.463375,
          "velocity": 0.6220472440944882
        },
        {
          "duration": 0.2439023333333239,
          "durationTicks": 32,
          "midi": 40,
          "name": "E2",
          "ticks": 12048,
          "time": 91.8292285,
          "velocity": 0.6220472440944882
        },
        {
          "duration": 0.2439023333333239,
          "durationTicks": 32,
          "midi": 50,
          "name": "D3",
          "ticks": 12096,
          "time": 92.195082,
          "velocity": 0.6220472440944882
        },
        {
          "duration": 0.2439023333333239,
          "durationTicks": 32,
          "midi": 50,
          "name": "D3",
          "ticks": 12144,
          "time": 92.5609355,
          "velocity": 0.6220472440944882
        },
        {
          "duration": 0.2439023333333239,
          "durationTicks": 32,
          "midi": 50,
          "name": "D3",
          "ticks": 12192,
          "time": 92.926789,
          "velocity": 0.6220472440944882
        },
        {
          "duration": 0.2439023333333239,
          "durationTicks": 32,
          "midi": 50,
          "name": "D3",
          "ticks": 12240,
          "time": 93.2926425,
          "velocity": 0.6220472440944882
        },
        {
          "duration": 0.2439023333333381,
          "durationTicks": 32,
          "midi": 48,
          "name": "C3",
          "ticks": 12288,
          "time": 93.658496,
          "velocity": 0.6220472440944882
        },
        {
          "duration": 0.2439023333333381,
          "durationTicks": 32,
          "midi": 48,
          "name": "C3",
          "ticks": 12336,
          "time": 94.0243495,
          "velocity": 0.6220472440944882
        },
        {
          "duration": 0.2439023333333381,
          "durationTicks": 32,
          "midi": 48,
          "name": "C3",
          "ticks": 12384,
          "time": 94.390203,
          "velocity": 0.6220472440944882
        },
        {
          "duration": 0.2439023333333381,
          "durationTicks": 32,
          "midi": 48,
          "name": "C3",
          "ticks": 12432,
          "time": 94.7560565,
          "velocity": 0.6220472440944882
        },
        {
          "duration": 0.2439023333333381,
          "durationTicks": 32,
          "midi": 48,
          "name": "C3",
          "ticks": 12480,
          "time": 95.12191,
          "velocity": 0.6220472440944882
        },
        {
          "duration": 0.2439023333333381,
          "durationTicks": 32,
          "midi": 48,
          "name": "C3",
          "ticks": 12528,
          "time": 95.4877635,
          "velocity": 0.6220472440944882
        },
        {
          "duration": 0.2439023333333381,
          "durationTicks": 32,
          "midi": 48,
          "name": "C3",
          "ticks": 12576,
          "time": 95.853617,
          "velocity": 0.6220472440944882
        },
        {
          "duration": 0.2439023333333381,
          "durationTicks": 32,
          "midi": 48,
          "name": "C3",
          "ticks": 12624,
          "time": 96.2194705,
          "velocity": 0.6220472440944882
        },
        {
          "duration": 0.2439023333333381,
          "durationTicks": 32,
          "midi": 48,
          "name": "C3",
          "ticks": 12672,
          "time": 96.585324,
          "velocity": 0.6220472440944882
        },
        {
          "duration": 0.2439023333333381,
          "durationTicks": 32,
          "midi": 48,
          "name": "C3",
          "ticks": 12720,
          "time": 96.9511775,
          "velocity": 0.6220472440944882
        },
        {
          "duration": 0.2439023333333381,
          "durationTicks": 32,
          "midi": 48,
          "name": "C3",
          "ticks": 12768,
          "time": 97.317031,
          "velocity": 0.6220472440944882
        },
        {
          "duration": 0.2439023333333381,
          "durationTicks": 32,
          "midi": 48,
          "name": "C3",
          "ticks": 12816,
          "time": 97.6828845,
          "velocity": 0.6220472440944882
        },
        {
          "duration": 0.2439023333333381,
          "durationTicks": 32,
          "midi": 42,
          "name": "F#2",
          "ticks": 12864,
          "time": 98.048738,
          "velocity": 0.6220472440944882
        },
        {
          "duration": 0.2439023333333381,
          "durationTicks": 32,
          "midi": 42,
          "name": "F#2",
          "ticks": 12912,
          "time": 98.4145915,
          "velocity": 0.6220472440944882
        },
        {
          "duration": 0.2439023333333381,
          "durationTicks": 32,
          "midi": 42,
          "name": "F#2",
          "ticks": 12960,
          "time": 98.780445,
          "velocity": 0.6220472440944882
        },
        {
          "duration": 0.2439023333333381,
          "durationTicks": 32,
          "midi": 42,
          "name": "F#2",
          "ticks": 13008,
          "time": 99.1462985,
          "velocity": 0.6220472440944882
        },
        {
          "duration": 0.2439023333333381,
          "durationTicks": 32,
          "midi": 43,
          "name": "G2",
          "ticks": 13056,
          "time": 99.512152,
          "velocity": 0.6220472440944882
        },
        {
          "duration": 0.2439023333333381,
          "durationTicks": 32,
          "midi": 43,
          "name": "G2",
          "ticks": 13104,
          "time": 99.8780055,
          "velocity": 0.6220472440944882
        },
        {
          "duration": 0.2439023333333381,
          "durationTicks": 32,
          "midi": 43,
          "name": "G2",
          "ticks": 13152,
          "time": 100.243859,
          "velocity": 0.6220472440944882
        },
        {
          "duration": 0.2439023333333381,
          "durationTicks": 32,
          "midi": 43,
          "name": "G2",
          "ticks": 13200,
          "time": 100.6097125,
          "velocity": 0.6220472440944882
        },
        {
          "duration": 0.2439023333333381,
          "durationTicks": 32,
          "midi": 45,
          "name": "A2",
          "ticks": 13248,
          "time": 100.975566,
          "velocity": 0.6220472440944882
        },
        {
          "duration": 0.2439023333333381,
          "durationTicks": 32,
          "midi": 45,
          "name": "A2",
          "ticks": 13296,
          "time": 101.3414195,
          "velocity": 0.6220472440944882
        },
        {
          "duration": 0.2439023333333381,
          "durationTicks": 32,
          "midi": 45,
          "name": "A2",
          "ticks": 13344,
          "time": 101.707273,
          "velocity": 0.6220472440944882
        },
        {
          "duration": 0.2439023333333381,
          "durationTicks": 32,
          "midi": 45,
          "name": "A2",
          "ticks": 13392,
          "time": 102.0731265,
          "velocity": 0.6220472440944882
        },
        {
          "duration": 0.2439023333333381,
          "durationTicks": 32,
          "midi": 47,
          "name": "B2",
          "ticks": 13440,
          "time": 102.43898,
          "velocity": 0.6220472440944882
        },
        {
          "duration": 0.2439023333333381,
          "durationTicks": 32,
          "midi": 47,
          "name": "B2",
          "ticks": 13488,
          "time": 102.8048335,
          "velocity": 0.6220472440944882
        },
        {
          "duration": 0.2439023333333381,
          "durationTicks": 32,
          "midi": 47,
          "name": "B2",
          "ticks": 13536,
          "time": 103.170687,
          "velocity": 0.6220472440944882
        },
        {
          "duration": 0.2439023333333381,
          "durationTicks": 32,
          "midi": 47,
          "name": "B2",
          "ticks": 13584,
          "time": 103.5365405,
          "velocity": 0.6220472440944882
        },
        {
          "duration": 0.2439023333333381,
          "durationTicks": 32,
          "midi": 49,
          "name": "C#3",
          "ticks": 13632,
          "time": 103.902394,
          "velocity": 0.6220472440944882
        },
        {
          "duration": 0.2439023333333381,
          "durationTicks": 32,
          "midi": 49,
          "name": "C#3",
          "ticks": 13680,
          "time": 104.2682475,
          "velocity": 0.6220472440944882
        },
        {
          "duration": 0.2439023333333381,
          "durationTicks": 32,
          "midi": 49,
          "name": "C#3",
          "ticks": 13728,
          "time": 104.634101,
          "velocity": 0.6220472440944882
        },
        {
          "duration": 0.2439023333333381,
          "durationTicks": 32,
          "midi": 49,
          "name": "C#3",
          "ticks": 13776,
          "time": 104.9999545,
          "velocity": 0.6220472440944882
        },
        {
          "duration": 0.2439023333333381,
          "durationTicks": 32,
          "midi": 50,
          "name": "D3",
          "ticks": 13824,
          "time": 105.365808,
          "velocity": 0.6220472440944882
        },
        {
          "duration": 0.2439023333333381,
          "durationTicks": 32,
          "midi": 50,
          "name": "D3",
          "ticks": 13872,
          "time": 105.7316615,
          "velocity": 0.6220472440944882
        },
        {
          "duration": 0.2439023333333381,
          "durationTicks": 32,
          "midi": 50,
          "name": "D3",
          "ticks": 13920,
          "time": 106.097515,
          "velocity": 0.6220472440944882
        },
        {
          "duration": 0.2439023333333381,
          "durationTicks": 32,
          "midi": 50,
          "name": "D3",
          "ticks": 13968,
          "time": 106.4633685,
          "velocity": 0.6220472440944882
        },
        {
          "duration": 0.2439023333333381,
          "durationTicks": 32,
          "midi": 52,
          "name": "E3",
          "ticks": 14016,
          "time": 106.829222,
          "velocity": 0.6220472440944882
        },
        {
          "duration": 0.2439023333333381,
          "durationTicks": 32,
          "midi": 52,
          "name": "E3",
          "ticks": 14064,
          "time": 107.1950755,
          "velocity": 0.6220472440944882
        },
        {
          "duration": 0.2439023333333381,
          "durationTicks": 32,
          "midi": 52,
          "name": "E3",
          "ticks": 14112,
          "time": 107.560929,
          "velocity": 0.6220472440944882
        },
        {
          "duration": 0.2439023333333381,
          "durationTicks": 32,
          "midi": 52,
          "name": "E3",
          "ticks": 14160,
          "time": 107.9267825,
          "velocity": 0.6220472440944882
        },
        {
          "duration": 0.2439023333333381,
          "durationTicks": 32,
          "midi": 52,
          "name": "E3",
          "ticks": 14208,
          "time": 108.292636,
          "velocity": 0.6220472440944882
        },
        {
          "duration": 0.2439023333333381,
          "durationTicks": 32,
          "midi": 52,
          "name": "E3",
          "ticks": 14256,
          "time": 108.6584895,
          "velocity": 0.6220472440944882
        },
        {
          "duration": 0.2439023333333381,
          "durationTicks": 32,
          "midi": 52,
          "name": "E3",
          "ticks": 14304,
          "time": 109.024343,
          "velocity": 0.6220472440944882
        },
        {
          "duration": 0.2439023333333381,
          "durationTicks": 32,
          "midi": 52,
          "name": "E3",
          "ticks": 14352,
          "time": 109.3901965,
          "velocity": 0.6220472440944882
        },
        {
          "duration": 0.2439023333333381,
          "durationTicks": 32,
          "midi": 52,
          "name": "E3",
          "ticks": 14400,
          "time": 109.75605,
          "velocity": 0.6220472440944882
        },
        {
          "duration": 0.2439023333333381,
          "durationTicks": 32,
          "midi": 52,
          "name": "E3",
          "ticks": 14448,
          "time": 110.1219035,
          "velocity": 0.6220472440944882
        },
        {
          "duration": 0.2439023333333381,
          "durationTicks": 32,
          "midi": 52,
          "name": "E3",
          "ticks": 14496,
          "time": 110.487757,
          "velocity": 0.6220472440944882
        },
        {
          "duration": 0.2439023333333381,
          "durationTicks": 32,
          "midi": 52,
          "name": "E3",
          "ticks": 14544,
          "time": 110.8536105,
          "velocity": 0.6220472440944882
        },
        {
          "duration": 0.2439023333333381,
          "durationTicks": 32,
          "midi": 52,
          "name": "E3",
          "ticks": 14592,
          "time": 111.219464,
          "velocity": 0.6220472440944882
        },
        {
          "duration": 0.2439023333333381,
          "durationTicks": 32,
          "midi": 52,
          "name": "E3",
          "ticks": 14640,
          "time": 111.5853175,
          "velocity": 0.6220472440944882
        },
        {
          "duration": 0.2439023333333381,
          "durationTicks": 32,
          "midi": 52,
          "name": "E3",
          "ticks": 14688,
          "time": 111.951171,
          "velocity": 0.6220472440944882
        },
        {
          "duration": 0.2439023333333381,
          "durationTicks": 32,
          "midi": 52,
          "name": "E3",
          "ticks": 14736,
          "time": 112.3170245,
          "velocity": 0.6220472440944882
        },
        {
          "duration": 0.2439023333333381,
          "durationTicks": 32,
          "midi": 52,
          "name": "E3",
          "ticks": 14784,
          "time": 112.682878,
          "velocity": 0.6220472440944882
        },
        {
          "duration": 0.2439023333333381,
          "durationTicks": 32,
          "midi": 52,
          "name": "E3",
          "ticks": 14832,
          "time": 113.0487315,
          "velocity": 0.6220472440944882
        },
        {
          "duration": 0.2439023333333381,
          "durationTicks": 32,
          "midi": 52,
          "name": "E3",
          "ticks": 14880,
          "time": 113.414585,
          "velocity": 0.6220472440944882
        },
        {
          "duration": 0.2439023333333381,
          "durationTicks": 32,
          "midi": 52,
          "name": "E3",
          "ticks": 14928,
          "time": 113.7804385,
          "velocity": 0.6220472440944882
        },
        {
          "duration": 0.2439023333333381,
          "durationTicks": 32,
          "midi": 52,
          "name": "E3",
          "ticks": 14976,
          "time": 114.146292,
          "velocity": 0.6220472440944882
        },
        {
          "duration": 0.2439023333333381,
          "durationTicks": 32,
          "midi": 52,
          "name": "E3",
          "ticks": 15024,
          "time": 114.5121455,
          "velocity": 0.6220472440944882
        },
        {
          "duration": 0.2439023333333381,
          "durationTicks": 32,
          "midi": 52,
          "name": "E3",
          "ticks": 15072,
          "time": 114.877999,
          "velocity": 0.6220472440944882
        },
        {
          "duration": 0.2439023333333381,
          "durationTicks": 32,
          "midi": 52,
          "name": "E3",
          "ticks": 15120,
          "time": 115.2438525,
          "velocity": 0.6220472440944882
        },
        {
          "duration": 0.2439023333333381,
          "durationTicks": 32,
          "midi": 52,
          "name": "E3",
          "ticks": 15168,
          "time": 115.609706,
          "velocity": 0.6220472440944882
        },
        {
          "duration": 0.2439023333333381,
          "durationTicks": 32,
          "midi": 52,
          "name": "E3",
          "ticks": 15216,
          "time": 115.9755595,
          "velocity": 0.6220472440944882
        },
        {
          "duration": 0.2439023333333381,
          "durationTicks": 32,
          "midi": 52,
          "name": "E3",
          "ticks": 15264,
          "time": 116.341413,
          "velocity": 0.6220472440944882
        },
        {
          "duration": 0.2439023333333381,
          "durationTicks": 32,
          "midi": 52,
          "name": "E3",
          "ticks": 15312,
          "time": 116.7072665,
          "velocity": 0.6220472440944882
        },
        {
          "duration": 0.2439023333333381,
          "durationTicks": 32,
          "midi": 52,
          "name": "E3",
          "ticks": 15360,
          "time": 117.07312,
          "velocity": 0.6220472440944882
        },
        {
          "duration": 0.2439023333333381,
          "durationTicks": 32,
          "midi": 52,
          "name": "E3",
          "ticks": 15408,
          "time": 117.4389735,
          "velocity": 0.6220472440944882
        },
        {
          "duration": 0.2439023333333381,
          "durationTicks": 32,
          "midi": 52,
          "name": "E3",
          "ticks": 15456,
          "time": 117.804827,
          "velocity": 0.6220472440944882
        },
        {
          "duration": 0.2439023333333381,
          "durationTicks": 32,
          "midi": 52,
          "name": "E3",
          "ticks": 15504,
          "time": 118.1706805,
          "velocity": 0.6220472440944882
        },
        {
          "duration": 0.2439023333333381,
          "durationTicks": 32,
          "midi": 52,
          "name": "E3",
          "ticks": 15552,
          "time": 118.536534,
          "velocity": 0.6220472440944882
        },
        {
          "duration": 0.2439023333333381,
          "durationTicks": 32,
          "midi": 52,
          "name": "E3",
          "ticks": 15600,
          "time": 118.9023875,
          "velocity": 0.6220472440944882
        },
        {
          "duration": 0.2439023333333381,
          "durationTicks": 32,
          "midi": 52,
          "name": "E3",
          "ticks": 15648,
          "time": 119.268241,
          "velocity": 0.6220472440944882
        },
        {
          "duration": 0.2439023333333381,
          "durationTicks": 32,
          "midi": 52,
          "name": "E3",
          "ticks": 15696,
          "time": 119.6340945,
          "velocity": 0.6220472440944882
        },
        {
          "duration": 0.2439023333333381,
          "durationTicks": 32,
          "midi": 52,
          "name": "E3",
          "ticks": 15744,
          "time": 119.999948,
          "velocity": 0.6220472440944882
        },
        {
          "duration": 0.2439023333333381,
          "durationTicks": 32,
          "midi": 52,
          "name": "E3",
          "ticks": 15792,
          "time": 120.3658015,
          "velocity": 0.6220472440944882
        },
        {
          "duration": 0.2439023333333381,
          "durationTicks": 32,
          "midi": 52,
          "name": "E3",
          "ticks": 15840,
          "time": 120.731655,
          "velocity": 0.6220472440944882
        },
        {
          "duration": 0.2439023333333381,
          "durationTicks": 32,
          "midi": 52,
          "name": "E3",
          "ticks": 15888,
          "time": 121.0975085,
          "velocity": 0.6220472440944882
        },
        {
          "duration": 0.2439023333333381,
          "durationTicks": 32,
          "midi": 52,
          "name": "E3",
          "ticks": 15936,
          "time": 121.463362,
          "velocity": 0.6220472440944882
        },
        {
          "duration": 0.2439023333333381,
          "durationTicks": 32,
          "midi": 52,
          "name": "E3",
          "ticks": 15984,
          "time": 121.8292155,
          "velocity": 0.6220472440944882
        },
        {
          "duration": 0.2439023333333381,
          "durationTicks": 32,
          "midi": 52,
          "name": "E3",
          "ticks": 16032,
          "time": 122.195069,
          "velocity": 0.6220472440944882
        },
        {
          "duration": 0.2439023333333381,
          "durationTicks": 32,
          "midi": 52,
          "name": "E3",
          "ticks": 16080,
          "time": 122.5609225,
          "velocity": 0.6220472440944882
        },
        {
          "duration": 0.2439023333333381,
          "durationTicks": 32,
          "midi": 52,
          "name": "E3",
          "ticks": 16128,
          "time": 122.926776,
          "velocity": 0.6220472440944882
        },
        {
          "duration": 0.2439023333333381,
          "durationTicks": 32,
          "midi": 52,
          "name": "E3",
          "ticks": 16176,
          "time": 123.2926295,
          "velocity": 0.6220472440944882
        },
        {
          "duration": 0.2439023333333381,
          "durationTicks": 32,
          "midi": 52,
          "name": "E3",
          "ticks": 16224,
          "time": 123.658483,
          "velocity": 0.6220472440944882
        },
        {
          "duration": 0.2439023333333381,
          "durationTicks": 32,
          "midi": 52,
          "name": "E3",
          "ticks": 16272,
          "time": 124.0243365,
          "velocity": 0.6220472440944882
        },
        {
          "duration": 0.2439023333333381,
          "durationTicks": 32,
          "midi": 52,
          "name": "E3",
          "ticks": 16320,
          "time": 124.39019,
          "velocity": 0.6220472440944882
        },
        {
          "duration": 0.2439023333333381,
          "durationTicks": 32,
          "midi": 52,
          "name": "E3",
          "ticks": 16368,
          "time": 124.7560435,
          "velocity": 0.6220472440944882
        },
        {
          "duration": 0.2439023333333381,
          "durationTicks": 32,
          "midi": 52,
          "name": "E3",
          "ticks": 16416,
          "time": 125.121897,
          "velocity": 0.6220472440944882
        },
        {
          "duration": 0.2439023333333381,
          "durationTicks": 32,
          "midi": 52,
          "name": "E3",
          "ticks": 16464,
          "time": 125.4877505,
          "velocity": 0.6220472440944882
        },
        {
          "duration": 0.2439023333333381,
          "durationTicks": 32,
          "midi": 52,
          "name": "E3",
          "ticks": 16512,
          "time": 125.853604,
          "velocity": 0.6220472440944882
        },
        {
          "duration": 0.2439023333333381,
          "durationTicks": 32,
          "midi": 52,
          "name": "E3",
          "ticks": 16560,
          "time": 126.2194575,
          "velocity": 0.6220472440944882
        },
        {
          "duration": 0.2439023333333381,
          "durationTicks": 32,
          "midi": 52,
          "name": "E3",
          "ticks": 16608,
          "time": 126.585311,
          "velocity": 0.6220472440944882
        },
        {
          "duration": 0.2439023333333381,
          "durationTicks": 32,
          "midi": 52,
          "name": "E3",
          "ticks": 16656,
          "time": 126.9511645,
          "velocity": 0.6220472440944882
        },
        {
          "duration": 0.2439023333333381,
          "durationTicks": 32,
          "midi": 52,
          "name": "E3",
          "ticks": 16704,
          "time": 127.317018,
          "velocity": 0.6220472440944882
        },
        {
          "duration": 0.2439023333333381,
          "durationTicks": 32,
          "midi": 52,
          "name": "E3",
          "ticks": 16752,
          "time": 127.6828715,
          "velocity": 0.6220472440944882
        },
        {
          "duration": 0.24390233333335232,
          "durationTicks": 32,
          "midi": 52,
          "name": "E3",
          "ticks": 16800,
          "time": 128.048725,
          "velocity": 0.6220472440944882
        },
        {
          "duration": 0.2439023333333239,
          "durationTicks": 32,
          "midi": 52,
          "name": "E3",
          "ticks": 16848,
          "time": 128.4145785,
          "velocity": 0.6220472440944882
        },
        {
          "duration": 0.24390233333335232,
          "durationTicks": 32,
          "midi": 52,
          "name": "E3",
          "ticks": 16896,
          "time": 128.780432,
          "velocity": 0.6220472440944882
        },
        {
          "duration": 0.2439023333333239,
          "durationTicks": 32,
          "midi": 52,
          "name": "E3",
          "ticks": 16944,
          "time": 129.1462855,
          "velocity": 0.6220472440944882
        },
        {
          "duration": 0.24390233333335232,
          "durationTicks": 32,
          "midi": 52,
          "name": "E3",
          "ticks": 16992,
          "time": 129.512139,
          "velocity": 0.6220472440944882
        },
        {
          "duration": 0.2439023333333239,
          "durationTicks": 32,
          "midi": 52,
          "name": "E3",
          "ticks": 17040,
          "time": 129.8779925,
          "velocity": 0.6220472440944882
        },
        {
          "duration": 0.24390233333335232,
          "durationTicks": 32,
          "midi": 52,
          "name": "E3",
          "ticks": 17088,
          "time": 130.243846,
          "velocity": 0.6220472440944882
        },
        {
          "duration": 0.2439023333333239,
          "durationTicks": 32,
          "midi": 52,
          "name": "E3",
          "ticks": 17136,
          "time": 130.6096995,
          "velocity": 0.6220472440944882
        },
        {
          "duration": 0.24390233333335232,
          "durationTicks": 32,
          "midi": 52,
          "name": "E3",
          "ticks": 17184,
          "time": 130.975553,
          "velocity": 0.6220472440944882
        },
        {
          "duration": 0.2439023333333239,
          "durationTicks": 32,
          "midi": 52,
          "name": "E3",
          "ticks": 17232,
          "time": 131.3414065,
          "velocity": 0.6220472440944882
        },
        {
          "duration": 0.24390233333335232,
          "durationTicks": 32,
          "midi": 52,
          "name": "E3",
          "ticks": 17280,
          "time": 131.70726,
          "velocity": 0.6220472440944882
        },
        {
          "duration": 0.2439023333333239,
          "durationTicks": 32,
          "midi": 52,
          "name": "E3",
          "ticks": 17328,
          "time": 132.0731135,
          "velocity": 0.6220472440944882
        },
        {
          "duration": 0.24390233333335232,
          "durationTicks": 32,
          "midi": 52,
          "name": "E3",
          "ticks": 17376,
          "time": 132.438967,
          "velocity": 0.6220472440944882
        },
        {
          "duration": 0.2439023333333239,
          "durationTicks": 32,
          "midi": 40,
          "name": "E2",
          "ticks": 17424,
          "time": 132.8048205,
          "velocity": 0.6220472440944882
        },
        {
          "duration": 0.24390233333335232,
          "durationTicks": 32,
          "midi": 40,
          "name": "E2",
          "ticks": 17472,
          "time": 133.170674,
          "velocity": 0.6220472440944882
        },
        {
          "duration": 0.2439023333333239,
          "durationTicks": 32,
          "midi": 40,
          "name": "E2",
          "ticks": 17520,
          "time": 133.5365275,
          "velocity": 0.6220472440944882
        },
        {
          "duration": 0.24390233333335232,
          "durationTicks": 32,
          "midi": 40,
          "name": "E2",
          "ticks": 17568,
          "time": 133.902381,
          "velocity": 0.6220472440944882
        },
        {
          "duration": 0.2439023333333239,
          "durationTicks": 32,
          "midi": 40,
          "name": "E2",
          "ticks": 17616,
          "time": 134.2682345,
          "velocity": 0.6220472440944882
        },
        {
          "duration": 0.24390233333335232,
          "durationTicks": 32,
          "midi": 52,
          "name": "E3",
          "ticks": 17664,
          "time": 134.634088,
          "velocity": 0.6220472440944882
        },
        {
          "duration": 0.2439023333333239,
          "durationTicks": 32,
          "midi": 52,
          "name": "E3",
          "ticks": 17712,
          "time": 134.9999415,
          "velocity": 0.6220472440944882
        },
        {
          "duration": 0.24390233333335232,
          "durationTicks": 32,
          "midi": 52,
          "name": "E3",
          "ticks": 17760,
          "time": 135.365795,
          "velocity": 0.6220472440944882
        },
        {
          "duration": 0.2439023333333239,
          "durationTicks": 32,
          "midi": 52,
          "name": "E3",
          "ticks": 17808,
          "time": 135.7316485,
          "velocity": 0.6220472440944882
        },
        {
          "duration": 0.24390233333335232,
          "durationTicks": 32,
          "midi": 52,
          "name": "E3",
          "ticks": 17856,
          "time": 136.097502,
          "velocity": 0.6220472440944882
        },
        {
          "duration": 0.2439023333333239,
          "durationTicks": 32,
          "midi": 52,
          "name": "E3",
          "ticks": 17904,
          "time": 136.4633555,
          "velocity": 0.6220472440944882
        },
        {
          "duration": 0.24390233333335232,
          "durationTicks": 32,
          "midi": 52,
          "name": "E3",
          "ticks": 17952,
          "time": 136.829209,
          "velocity": 0.6220472440944882
        },
        {
          "duration": 0.2439023333333239,
          "durationTicks": 32,
          "midi": 52,
          "name": "E3",
          "ticks": 18000,
          "time": 137.1950625,
          "velocity": 0.6220472440944882
        },
        {
          "duration": 0.24390233333335232,
          "durationTicks": 32,
          "midi": 52,
          "name": "E3",
          "ticks": 18048,
          "time": 137.560916,
          "velocity": 0.6220472440944882
        },
        {
          "duration": 0.2439023333333239,
          "durationTicks": 32,
          "midi": 52,
          "name": "E3",
          "ticks": 18096,
          "time": 137.9267695,
          "velocity": 0.6220472440944882
        },
        {
          "duration": 0.24390233333335232,
          "durationTicks": 32,
          "midi": 52,
          "name": "E3",
          "ticks": 18144,
          "time": 138.292623,
          "velocity": 0.6220472440944882
        },
        {
          "duration": 0.2439023333333239,
          "durationTicks": 32,
          "midi": 52,
          "name": "E3",
          "ticks": 18192,
          "time": 138.6584765,
          "velocity": 0.6220472440944882
        },
        {
          "duration": 0.24390233333335232,
          "durationTicks": 32,
          "midi": 52,
          "name": "E3",
          "ticks": 18240,
          "time": 139.02433,
          "velocity": 0.6220472440944882
        },
        {
          "duration": 0.2439023333333239,
          "durationTicks": 32,
          "midi": 52,
          "name": "E3",
          "ticks": 18288,
          "time": 139.3901835,
          "velocity": 0.6220472440944882
        },
        {
          "duration": 0.24390233333335232,
          "durationTicks": 32,
          "midi": 52,
          "name": "E3",
          "ticks": 18336,
          "time": 139.756037,
          "velocity": 0.6220472440944882
        },
        {
          "duration": 0.2439023333333239,
          "durationTicks": 32,
          "midi": 52,
          "name": "E3",
          "ticks": 18384,
          "time": 140.1218905,
          "velocity": 0.6220472440944882
        },
        {
          "duration": 0.24390233333335232,
          "durationTicks": 32,
          "midi": 52,
          "name": "E3",
          "ticks": 18432,
          "time": 140.487744,
          "velocity": 0.6220472440944882
        },
        {
          "duration": 0.2439023333333239,
          "durationTicks": 32,
          "midi": 52,
          "name": "E3",
          "ticks": 18480,
          "time": 140.8535975,
          "velocity": 0.6220472440944882
        },
        {
          "duration": 0.24390233333335232,
          "durationTicks": 32,
          "midi": 52,
          "name": "E3",
          "ticks": 18528,
          "time": 141.219451,
          "velocity": 0.6220472440944882
        },
        {
          "duration": 0.2439023333333239,
          "durationTicks": 32,
          "midi": 52,
          "name": "E3",
          "ticks": 18576,
          "time": 141.5853045,
          "velocity": 0.6220472440944882
        },
        {
          "duration": 0.36585350000001426,
          "durationTicks": 48,
          "midi": 50,
          "name": "D3",
          "ticks": 18624,
          "time": 141.951158,
          "velocity": 0.6220472440944882
        },
        {
          "duration": 0.42682908333335945,
          "durationTicks": 56,
          "midi": 57,
          "name": "A3",
          "ticks": 18696,
          "time": 142.49993824999999,
          "velocity": 0.6220472440944882
        },
        {
          "duration": 0.4878046666666478,
          "durationTicks": 64,
          "midi": 62,
          "name": "D4",
          "ticks": 18768,
          "time": 143.0487185,
          "velocity": 0.6220472440944882
        },
        {
          "duration": 0.36585349999998584,
          "durationTicks": 48,
          "midi": 57,
          "name": "A3",
          "ticks": 18840,
          "time": 143.59749875,
          "velocity": 0.6220472440944882
        },
        {
          "duration": 0.24390233333335232,
          "durationTicks": 32,
          "midi": 50,
          "name": "D3",
          "ticks": 18912,
          "time": 144.146279,
          "velocity": 0.6220472440944882
        },
        {
          "duration": 0.2439023333333239,
          "durationTicks": 32,
          "midi": 57,
          "name": "A3",
          "ticks": 18960,
          "time": 144.5121325,
          "velocity": 0.6220472440944882
        },
        {
          "duration": 0.24390233333335232,
          "durationTicks": 32,
          "midi": 52,
          "name": "E3",
          "ticks": 19008,
          "time": 144.877986,
          "velocity": 0.6220472440944882
        },
        {
          "duration": 0.2439023333333239,
          "durationTicks": 32,
          "midi": 51,
          "name": "D#3",
          "ticks": 19056,
          "time": 145.2438395,
          "velocity": 0.6220472440944882
        },
        {
          "duration": 0.24390233333335232,
          "durationTicks": 32,
          "midi": 49,
          "name": "C#3",
          "ticks": 19104,
          "time": 145.609693,
          "velocity": 0.6220472440944882
        },
        {
          "duration": 0.2439023333333239,
          "durationTicks": 32,
          "midi": 47,
          "name": "B2",
          "ticks": 19152,
          "time": 145.9755465,
          "velocity": 0.6220472440944882
        },
        {
          "duration": 0.24390233333335232,
          "durationTicks": 32,
          "midi": 47,
          "name": "B2",
          "ticks": 19200,
          "time": 146.3414,
          "velocity": 0.6220472440944882
        },
        {
          "duration": 0.2439023333333239,
          "durationTicks": 32,
          "midi": 47,
          "name": "B2",
          "ticks": 19248,
          "time": 146.7072535,
          "velocity": 0.6220472440944882
        },
        {
          "duration": 0.24390233333335232,
          "durationTicks": 32,
          "midi": 47,
          "name": "B2",
          "ticks": 19296,
          "time": 147.073107,
          "velocity": 0.6220472440944882
        },
        {
          "duration": 0.2439023333333239,
          "durationTicks": 32,
          "midi": 47,
          "name": "B2",
          "ticks": 19344,
          "time": 147.4389605,
          "velocity": 0.6220472440944882
        },
        {
          "duration": 0.24390233333335232,
          "durationTicks": 32,
          "midi": 52,
          "name": "E3",
          "ticks": 19392,
          "time": 147.804814,
          "velocity": 0.6220472440944882
        },
        {
          "duration": 0.2439023333333239,
          "durationTicks": 32,
          "midi": 51,
          "name": "D#3",
          "ticks": 19440,
          "time": 148.1706675,
          "velocity": 0.6220472440944882
        },
        {
          "duration": 0.24390233333335232,
          "durationTicks": 32,
          "midi": 49,
          "name": "C#3",
          "ticks": 19488,
          "time": 148.536521,
          "velocity": 0.6220472440944882
        },
        {
          "duration": 0.2439023333333239,
          "durationTicks": 32,
          "midi": 47,
          "name": "B2",
          "ticks": 19536,
          "time": 148.9023745,
          "velocity": 0.6220472440944882
        },
        {
          "duration": 0.24390233333335232,
          "durationTicks": 32,
          "midi": 47,
          "name": "B2",
          "ticks": 19584,
          "time": 149.268228,
          "velocity": 0.6220472440944882
        },
        {
          "duration": 0.12195116666666195,
          "durationTicks": 16,
          "midi": 47,
          "name": "B2",
          "ticks": 19632,
          "time": 149.6340815,
          "velocity": 0.6220472440944882
        },
        {
          "duration": 0.12195116666666195,
          "durationTicks": 16,
          "midi": 47,
          "name": "B2",
          "ticks": 19656,
          "time": 149.81700825,
          "velocity": 0.6220472440944882
        },
        {
          "duration": 0.24390233333335232,
          "durationTicks": 32,
          "midi": 47,
          "name": "B2",
          "ticks": 19680,
          "time": 149.999935,
          "velocity": 0.6220472440944882
        },
        {
          "duration": 0.12195116666666195,
          "durationTicks": 16,
          "midi": 47,
          "name": "B2",
          "ticks": 19728,
          "time": 150.3657885,
          "velocity": 0.6220472440944882
        },
        {
          "duration": 0.12195116666666195,
          "durationTicks": 16,
          "midi": 47,
          "name": "B2",
          "ticks": 19752,
          "time": 150.54871525,
          "velocity": 0.6220472440944882
        },
        {
          "duration": 0.24390233333335232,
          "durationTicks": 32,
          "midi": 47,
          "name": "B2",
          "ticks": 19776,
          "time": 150.731642,
          "velocity": 0.6220472440944882
        },
        {
          "duration": 0.2439023333333239,
          "durationTicks": 32,
          "midi": 47,
          "name": "B2",
          "ticks": 19824,
          "time": 151.0974955,
          "velocity": 0.6220472440944882
        },
        {
          "duration": 0.24390233333335232,
          "durationTicks": 32,
          "midi": 47,
          "name": "B2",
          "ticks": 19872,
          "time": 151.463349,
          "velocity": 0.6220472440944882
        },
        {
          "duration": 0.2439023333333239,
          "durationTicks": 32,
          "midi": 47,
          "name": "B2",
          "ticks": 19920,
          "time": 151.8292025,
          "velocity": 0.6220472440944882
        },
        {
          "duration": 0.24390233333335232,
          "durationTicks": 32,
          "midi": 52,
          "name": "E3",
          "ticks": 19968,
          "time": 152.195056,
          "velocity": 0.6220472440944882
        },
        {
          "duration": 0.2439023333333239,
          "durationTicks": 32,
          "midi": 51,
          "name": "D#3",
          "ticks": 20016,
          "time": 152.5609095,
          "velocity": 0.6220472440944882
        },
        {
          "duration": 0.24390233333335232,
          "durationTicks": 32,
          "midi": 49,
          "name": "C#3",
          "ticks": 20064,
          "time": 152.926763,
          "velocity": 0.6220472440944882
        },
        {
          "duration": 0.2439023333333239,
          "durationTicks": 32,
          "midi": 47,
          "name": "B2",
          "ticks": 20112,
          "time": 153.2926165,
          "velocity": 0.6220472440944882
        },
        {
          "duration": 0.24390233333335232,
          "durationTicks": 32,
          "midi": 52,
          "name": "E3",
          "ticks": 20160,
          "time": 153.65847,
          "velocity": 0.6220472440944882
        },
        {
          "duration": 0.2439023333333239,
          "durationTicks": 32,
          "midi": 51,
          "name": "D#3",
          "ticks": 20208,
          "time": 154.0243235,
          "velocity": 0.6220472440944882
        },
        {
          "duration": 0.24390233333335232,
          "durationTicks": 32,
          "midi": 49,
          "name": "C#3",
          "ticks": 20256,
          "time": 154.390177,
          "velocity": 0.6220472440944882
        },
        {
          "duration": 0.2439023333333239,
          "durationTicks": 32,
          "midi": 47,
          "name": "B2",
          "ticks": 20304,
          "time": 154.7560305,
          "velocity": 0.6220472440944882
        },
        {
          "duration": 0.24390233333335232,
          "durationTicks": 32,
          "midi": 52,
          "name": "E3",
          "ticks": 20352,
          "time": 155.121884,
          "velocity": 0.6220472440944882
        },
        {
          "duration": 0.2439023333333239,
          "durationTicks": 32,
          "midi": 51,
          "name": "D#3",
          "ticks": 20400,
          "time": 155.4877375,
          "velocity": 0.6220472440944882
        },
        {
          "duration": 0.24390233333335232,
          "durationTicks": 32,
          "midi": 49,
          "name": "C#3",
          "ticks": 20448,
          "time": 155.853591,
          "velocity": 0.6220472440944882
        },
        {
          "duration": 0.2439023333333239,
          "durationTicks": 32,
          "midi": 47,
          "name": "B2",
          "ticks": 20496,
          "time": 156.2194445,
          "velocity": 0.6220472440944882
        },
        {
          "duration": 0.24390233333335232,
          "durationTicks": 32,
          "midi": 50,
          "name": "D3",
          "ticks": 20544,
          "time": 156.585298,
          "velocity": 0.6220472440944882
        },
        {
          "duration": 0.2439023333333239,
          "durationTicks": 32,
          "midi": 50,
          "name": "D3",
          "ticks": 20592,
          "time": 156.9511515,
          "velocity": 0.6220472440944882
        },
        {
          "duration": 0.24390233333335232,
          "durationTicks": 32,
          "midi": 57,
          "name": "A3",
          "ticks": 20640,
          "time": 157.317005,
          "velocity": 0.6220472440944882
        },
        {
          "duration": 0.2439023333333239,
          "durationTicks": 32,
          "midi": 57,
          "name": "A3",
          "ticks": 20688,
          "time": 157.6828585,
          "velocity": 0.6220472440944882
        },
        {
          "duration": 0.24390233333335232,
          "durationTicks": 32,
          "midi": 57,
          "name": "A3",
          "ticks": 20736,
          "time": 158.048712,
          "velocity": 0.6220472440944882
        },
        {
          "duration": 0.2439023333333239,
          "durationTicks": 32,
          "midi": 57,
          "name": "A3",
          "ticks": 20784,
          "time": 158.4145655,
          "velocity": 0.6220472440944882
        },
        {
          "duration": 0.24390233333335232,
          "durationTicks": 32,
          "midi": 57,
          "name": "A3",
          "ticks": 20832,
          "time": 158.780419,
          "velocity": 0.6220472440944882
        },
        {
          "duration": 0.2439023333333239,
          "durationTicks": 32,
          "midi": 57,
          "name": "A3",
          "ticks": 20880,
          "time": 159.1462725,
          "velocity": 0.6220472440944882
        },
        {
          "duration": 0.24390233333335232,
          "durationTicks": 32,
          "midi": 52,
          "name": "E3",
          "ticks": 20928,
          "time": 159.512126,
          "velocity": 0.6220472440944882
        },
        {
          "duration": 0.2439023333333239,
          "durationTicks": 32,
          "midi": 51,
          "name": "D#3",
          "ticks": 20976,
          "time": 159.8779795,
          "velocity": 0.6220472440944882
        },
        {
          "duration": 0.24390233333335232,
          "durationTicks": 32,
          "midi": 49,
          "name": "C#3",
          "ticks": 21024,
          "time": 160.243833,
          "velocity": 0.6220472440944882
        },
        {
          "duration": 0.2439023333333239,
          "durationTicks": 32,
          "midi": 47,
          "name": "B2",
          "ticks": 21072,
          "time": 160.6096865,
          "velocity": 0.6220472440944882
        },
        {
          "duration": 0.24390233333335232,
          "durationTicks": 32,
          "midi": 47,
          "name": "B2",
          "ticks": 21120,
          "time": 160.97554,
          "velocity": 0.6220472440944882
        },
        {
          "duration": 0.2439023333333239,
          "durationTicks": 32,
          "midi": 47,
          "name": "B2",
          "ticks": 21168,
          "time": 161.3413935,
          "velocity": 0.6220472440944882
        },
        {
          "duration": 0.24390233333335232,
          "durationTicks": 32,
          "midi": 51,
          "name": "D#3",
          "ticks": 21216,
          "time": 161.707247,
          "velocity": 0.6220472440944882
        },
        {
          "duration": 0.2439023333333239,
          "durationTicks": 32,
          "midi": 54,
          "name": "F#3",
          "ticks": 21264,
          "time": 162.0731005,
          "velocity": 0.6220472440944882
        },
        {
          "duration": 0.24390233333335232,
          "durationTicks": 32,
          "midi": 52,
          "name": "E3",
          "ticks": 21312,
          "time": 162.438954,
          "velocity": 0.6220472440944882
        },
        {
          "duration": 0.2439023333333239,
          "durationTicks": 32,
          "midi": 51,
          "name": "D#3",
          "ticks": 21360,
          "time": 162.8048075,
          "velocity": 0.6220472440944882
        },
        {
          "duration": 0.24390233333335232,
          "durationTicks": 32,
          "midi": 49,
          "name": "C#3",
          "ticks": 21408,
          "time": 163.170661,
          "velocity": 0.6220472440944882
        },
        {
          "duration": 0.2439023333333239,
          "durationTicks": 32,
          "midi": 48,
          "name": "C3",
          "ticks": 21456,
          "time": 163.5365145,
          "velocity": 0.6220472440944882
        },
        {
          "duration": 0.24390233333335232,
          "durationTicks": 32,
          "midi": 47,
          "name": "B2",
          "ticks": 21504,
          "time": 163.902368,
          "velocity": 0.6220472440944882
        },
        {
          "duration": 0.2439023333333239,
          "durationTicks": 32,
          "midi": 47,
          "name": "B2",
          "ticks": 21552,
          "time": 164.2682215,
          "velocity": 0.6220472440944882
        },
        {
          "duration": 0.24390233333335232,
          "durationTicks": 32,
          "midi": 47,
          "name": "B2",
          "ticks": 21600,
          "time": 164.634075,
          "velocity": 0.6220472440944882
        },
        {
          "duration": 0.2439023333333239,
          "durationTicks": 32,
          "midi": 47,
          "name": "B2",
          "ticks": 21648,
          "time": 164.9999285,
          "velocity": 0.6220472440944882
        },
        {
          "duration": 0.24390233333335232,
          "durationTicks": 32,
          "midi": 48,
          "name": "C3",
          "ticks": 21696,
          "time": 165.365782,
          "velocity": 0.6220472440944882
        },
        {
          "duration": 0.2439023333333239,
          "durationTicks": 32,
          "midi": 48,
          "name": "C3",
          "ticks": 21744,
          "time": 165.7316355,
          "velocity": 0.6220472440944882
        },
        {
          "duration": 0.24390233333335232,
          "durationTicks": 32,
          "midi": 52,
          "name": "E3",
          "ticks": 21792,
          "time": 166.097489,
          "velocity": 0.6220472440944882
        },
        {
          "duration": 0.2439023333333239,
          "durationTicks": 32,
          "midi": 55,
          "name": "G3",
          "ticks": 21840,
          "time": 166.4633425,
          "velocity": 0.6220472440944882
        },
        {
          "duration": 0.24390233333335232,
          "durationTicks": 32,
          "midi": 60,
          "name": "C4",
          "ticks": 21888,
          "time": 166.829196,
          "velocity": 0.6220472440944882
        },
        {
          "duration": 0.2439023333333239,
          "durationTicks": 32,
          "midi": 60,
          "name": "C4",
          "ticks": 21936,
          "time": 167.1950495,
          "velocity": 0.6220472440944882
        },
        {
          "duration": 0.24390233333335232,
          "durationTicks": 32,
          "midi": 55,
          "name": "G3",
          "ticks": 21984,
          "time": 167.560903,
          "velocity": 0.6220472440944882
        },
        {
          "duration": 0.2439023333333239,
          "durationTicks": 32,
          "midi": 52,
          "name": "E3",
          "ticks": 22032,
          "time": 167.9267565,
          "velocity": 0.6220472440944882
        },
        {
          "duration": 0.24390233333335232,
          "durationTicks": 32,
          "midi": 55,
          "name": "G3",
          "ticks": 22080,
          "time": 168.29261,
          "velocity": 0.6220472440944882
        },
        {
          "duration": 0.2439023333333239,
          "durationTicks": 32,
          "midi": 55,
          "name": "G3",
          "ticks": 22128,
          "time": 168.6584635,
          "velocity": 0.6220472440944882
        },
        {
          "duration": 0.24390233333335232,
          "durationTicks": 32,
          "midi": 52,
          "name": "E3",
          "ticks": 22176,
          "time": 169.024317,
          "velocity": 0.6220472440944882
        },
        {
          "duration": 0.2439023333333239,
          "durationTicks": 32,
          "midi": 50,
          "name": "D3",
          "ticks": 22224,
          "time": 169.3901705,
          "velocity": 0.6220472440944882
        },
        {
          "duration": 0.24390233333335232,
          "durationTicks": 32,
          "midi": 55,
          "name": "G3",
          "ticks": 22272,
          "time": 169.756024,
          "velocity": 0.6220472440944882
        },
        {
          "duration": 0.2439023333333239,
          "durationTicks": 32,
          "midi": 55,
          "name": "G3",
          "ticks": 22320,
          "time": 170.1218775,
          "velocity": 0.6220472440944882
        },
        {
          "duration": 0.24390233333335232,
          "durationTicks": 32,
          "midi": 52,
          "name": "E3",
          "ticks": 22368,
          "time": 170.487731,
          "velocity": 0.6220472440944882
        },
        {
          "duration": 0.2439023333333239,
          "durationTicks": 32,
          "midi": 50,
          "name": "D3",
          "ticks": 22416,
          "time": 170.8535845,
          "velocity": 0.6220472440944882
        },
        {
          "duration": 0.24390233333335232,
          "durationTicks": 32,
          "midi": 50,
          "name": "D3",
          "ticks": 22464,
          "time": 171.219438,
          "velocity": 0.6220472440944882
        },
        {
          "duration": 0.2439023333333239,
          "durationTicks": 32,
          "midi": 50,
          "name": "D3",
          "ticks": 22512,
          "time": 171.5852915,
          "velocity": 0.6220472440944882
        },
        {
          "duration": 0.24390233333335232,
          "durationTicks": 32,
          "midi": 54,
          "name": "F#3",
          "ticks": 22560,
          "time": 171.951145,
          "velocity": 0.6220472440944882
        },
        {
          "duration": 0.2439023333333239,
          "durationTicks": 32,
          "midi": 57,
          "name": "A3",
          "ticks": 22608,
          "time": 172.3169985,
          "velocity": 0.6220472440944882
        },
        {
          "duration": 0.24390233333335232,
          "durationTicks": 32,
          "midi": 62,
          "name": "D4",
          "ticks": 22656,
          "time": 172.682852,
          "velocity": 0.6220472440944882
        },
        {
          "duration": 0.2439023333333239,
          "durationTicks": 32,
          "midi": 62,
          "name": "D4",
          "ticks": 22704,
          "time": 173.0487055,
          "velocity": 0.6220472440944882
        },
        {
          "duration": 0.24390233333335232,
          "durationTicks": 32,
          "midi": 57,
          "name": "A3",
          "ticks": 22752,
          "time": 173.414559,
          "velocity": 0.6220472440944882
        },
        {
          "duration": 0.2439023333333239,
          "durationTicks": 32,
          "midi": 54,
          "name": "F#3",
          "ticks": 22800,
          "time": 173.7804125,
          "velocity": 0.6220472440944882
        },
        {
          "duration": 0.24390233333335232,
          "durationTicks": 32,
          "midi": 57,
          "name": "A3",
          "ticks": 22848,
          "time": 174.146266,
          "velocity": 0.6220472440944882
        },
        {
          "duration": 0.2439023333333239,
          "durationTicks": 32,
          "midi": 57,
          "name": "A3",
          "ticks": 22896,
          "time": 174.5121195,
          "velocity": 0.6220472440944882
        },
        {
          "duration": 0.24390233333335232,
          "durationTicks": 32,
          "midi": 54,
          "name": "F#3",
          "ticks": 22944,
          "time": 174.877973,
          "velocity": 0.6220472440944882
        },
        {
          "duration": 0.2439023333333239,
          "durationTicks": 32,
          "midi": 52,
          "name": "E3",
          "ticks": 22992,
          "time": 175.2438265,
          "velocity": 0.6220472440944882
        },
        {
          "duration": 0.24390233333335232,
          "durationTicks": 32,
          "midi": 57,
          "name": "A3",
          "ticks": 23040,
          "time": 175.60968,
          "velocity": 0.6220472440944882
        },
        {
          "duration": 0.2439023333333239,
          "durationTicks": 32,
          "midi": 57,
          "name": "A3",
          "ticks": 23088,
          "time": 175.9755335,
          "velocity": 0.6220472440944882
        },
        {
          "duration": 0.24390233333335232,
          "durationTicks": 32,
          "midi": 54,
          "name": "F#3",
          "ticks": 23136,
          "time": 176.341387,
          "velocity": 0.6220472440944882
        },
        {
          "duration": 0.2439023333333239,
          "durationTicks": 32,
          "midi": 52,
          "name": "E3",
          "ticks": 23184,
          "time": 176.7072405,
          "velocity": 0.6220472440944882
        },
        {
          "duration": 0.24390233333335232,
          "durationTicks": 32,
          "midi": 52,
          "name": "E3",
          "ticks": 23232,
          "time": 177.073094,
          "velocity": 0.6220472440944882
        },
        {
          "duration": 0.2439023333333239,
          "durationTicks": 32,
          "midi": 52,
          "name": "E3",
          "ticks": 23280,
          "time": 177.4389475,
          "velocity": 0.6220472440944882
        },
        {
          "duration": 0.24390233333335232,
          "durationTicks": 32,
          "midi": 52,
          "name": "E3",
          "ticks": 23328,
          "time": 177.804801,
          "velocity": 0.6220472440944882
        },
        {
          "duration": 0.2439023333333239,
          "durationTicks": 32,
          "midi": 52,
          "name": "E3",
          "ticks": 23376,
          "time": 178.1706545,
          "velocity": 0.6220472440944882
        },
        {
          "duration": 0.24390233333335232,
          "durationTicks": 32,
          "midi": 52,
          "name": "E3",
          "ticks": 23424,
          "time": 178.536508,
          "velocity": 0.6220472440944882
        },
        {
          "duration": 0.2439023333333239,
          "durationTicks": 32,
          "midi": 52,
          "name": "E3",
          "ticks": 23472,
          "time": 178.9023615,
          "velocity": 0.6220472440944882
        },
        {
          "duration": 0.24390233333335232,
          "durationTicks": 32,
          "midi": 50,
          "name": "D3",
          "ticks": 23520,
          "time": 179.268215,
          "velocity": 0.6220472440944882
        },
        {
          "duration": 0.2439023333333239,
          "durationTicks": 32,
          "midi": 50,
          "name": "D3",
          "ticks": 23568,
          "time": 179.6340685,
          "velocity": 0.6220472440944882
        },
        {
          "duration": 0.24390233333335232,
          "durationTicks": 32,
          "midi": 48,
          "name": "C3",
          "ticks": 23616,
          "time": 179.999922,
          "velocity": 0.6220472440944882
        },
        {
          "duration": 0.2439023333333239,
          "durationTicks": 32,
          "midi": 48,
          "name": "C3",
          "ticks": 23664,
          "time": 180.3657755,
          "velocity": 0.6220472440944882
        },
        {
          "duration": 0.24390233333335232,
          "durationTicks": 32,
          "midi": 52,
          "name": "E3",
          "ticks": 23712,
          "time": 180.731629,
          "velocity": 0.6220472440944882
        },
        {
          "duration": 0.2439023333333239,
          "durationTicks": 32,
          "midi": 55,
          "name": "G3",
          "ticks": 23760,
          "time": 181.0974825,
          "velocity": 0.6220472440944882
        },
        {
          "duration": 0.24390233333335232,
          "durationTicks": 32,
          "midi": 60,
          "name": "C4",
          "ticks": 23808,
          "time": 181.463336,
          "velocity": 0.6220472440944882
        },
        {
          "duration": 0.2439023333333239,
          "durationTicks": 32,
          "midi": 60,
          "name": "C4",
          "ticks": 23856,
          "time": 181.8291895,
          "velocity": 0.6220472440944882
        },
        {
          "duration": 0.24390233333335232,
          "durationTicks": 32,
          "midi": 60,
          "name": "C4",
          "ticks": 23904,
          "time": 182.195043,
          "velocity": 0.6220472440944882
        },
        {
          "duration": 0.2439023333333239,
          "durationTicks": 32,
          "midi": 60,
          "name": "C4",
          "ticks": 23952,
          "time": 182.5608965,
          "velocity": 0.6220472440944882
        },
        {
          "duration": 0.24390233333335232,
          "durationTicks": 32,
          "midi": 55,
          "name": "G3",
          "ticks": 24000,
          "time": 182.92675,
          "velocity": 0.6220472440944882
        },
        {
          "duration": 0.2439023333333239,
          "durationTicks": 32,
          "midi": 55,
          "name": "G3",
          "ticks": 24048,
          "time": 183.2926035,
          "velocity": 0.6220472440944882
        },
        {
          "duration": 0.24390233333335232,
          "durationTicks": 32,
          "midi": 55,
          "name": "G3",
          "ticks": 24096,
          "time": 183.658457,
          "velocity": 0.6220472440944882
        },
        {
          "duration": 0.2439023333333239,
          "durationTicks": 32,
          "midi": 52,
          "name": "E3",
          "ticks": 24144,
          "time": 184.0243105,
          "velocity": 0.6220472440944882
        },
        {
          "duration": 0.24390233333335232,
          "durationTicks": 32,
          "midi": 50,
          "name": "D3",
          "ticks": 24192,
          "time": 184.390164,
          "velocity": 0.6220472440944882
        },
        {
          "duration": 0.2439023333333239,
          "durationTicks": 32,
          "midi": 50,
          "name": "D3",
          "ticks": 24240,
          "time": 184.7560175,
          "velocity": 0.6220472440944882
        },
        {
          "duration": 0.24390233333335232,
          "durationTicks": 32,
          "midi": 50,
          "name": "D3",
          "ticks": 24288,
          "time": 185.121871,
          "velocity": 0.6220472440944882
        },
        {
          "duration": 0.2439023333333239,
          "durationTicks": 32,
          "midi": 47,
          "name": "B2",
          "ticks": 24336,
          "time": 185.4877245,
          "velocity": 0.6220472440944882
        },
        {
          "duration": 0.24390233333335232,
          "durationTicks": 32,
          "midi": 50,
          "name": "D3",
          "ticks": 24384,
          "time": 185.853578,
          "velocity": 0.6220472440944882
        },
        {
          "duration": 0.2439023333333239,
          "durationTicks": 32,
          "midi": 50,
          "name": "D3",
          "ticks": 24432,
          "time": 186.2194315,
          "velocity": 0.6220472440944882
        },
        {
          "duration": 0.24390233333335232,
          "durationTicks": 32,
          "midi": 50,
          "name": "D3",
          "ticks": 24480,
          "time": 186.585285,
          "velocity": 0.6220472440944882
        },
        {
          "duration": 0.12195116666663353,
          "durationTicks": 16,
          "midi": 54,
          "name": "F#3",
          "ticks": 24528,
          "time": 186.9511385,
          "velocity": 0.6220472440944882
        },
        {
          "duration": 0.12195116666666195,
          "durationTicks": 16,
          "midi": 57,
          "name": "A3",
          "ticks": 24552,
          "time": 187.13406525,
          "velocity": 0.6220472440944882
        },
        {
          "duration": 0.2439023333333239,
          "durationTicks": 32,
          "midi": 62,
          "name": "D4",
          "ticks": 24576,
          "time": 187.316992,
          "velocity": 0.6220472440944882
        },
        {
          "duration": 0.2439023333333239,
          "durationTicks": 32,
          "midi": 62,
          "name": "D4",
          "ticks": 24624,
          "time": 187.68284549999998,
          "velocity": 0.6220472440944882
        },
        {
          "duration": 0.2439023333333239,
          "durationTicks": 32,
          "midi": 62,
          "name": "D4",
          "ticks": 24672,
          "time": 188.048699,
          "velocity": 0.6220472440944882
        },
        {
          "duration": 0.2439023333333239,
          "durationTicks": 32,
          "midi": 57,
          "name": "A3",
          "ticks": 24720,
          "time": 188.41455249999999,
          "velocity": 0.6220472440944882
        },
        {
          "duration": 0.2439023333333239,
          "durationTicks": 32,
          "midi": 57,
          "name": "A3",
          "ticks": 24768,
          "time": 188.780406,
          "velocity": 0.6220472440944882
        },
        {
          "duration": 0.2439023333333239,
          "durationTicks": 32,
          "midi": 57,
          "name": "A3",
          "ticks": 24816,
          "time": 189.14625949999999,
          "velocity": 0.6220472440944882
        },
        {
          "duration": 0.2439023333333239,
          "durationTicks": 32,
          "midi": 54,
          "name": "F#3",
          "ticks": 24864,
          "time": 189.512113,
          "velocity": 0.6220472440944882
        },
        {
          "duration": 0.2439023333333239,
          "durationTicks": 32,
          "midi": 52,
          "name": "E3",
          "ticks": 24912,
          "time": 189.87796649999999,
          "velocity": 0.6220472440944882
        },
        {
          "duration": 0.2439023333333239,
          "durationTicks": 32,
          "midi": 57,
          "name": "A3",
          "ticks": 24960,
          "time": 190.24382,
          "velocity": 0.6220472440944882
        },
        {
          "duration": 0.2439023333333239,
          "durationTicks": 32,
          "midi": 57,
          "name": "A3",
          "ticks": 25008,
          "time": 190.60967349999999,
          "velocity": 0.6220472440944882
        },
        {
          "duration": 0.2439023333333239,
          "durationTicks": 32,
          "midi": 54,
          "name": "F#3",
          "ticks": 25056,
          "time": 190.975527,
          "velocity": 0.6220472440944882
        },
        {
          "duration": 0.2439023333333239,
          "durationTicks": 32,
          "midi": 52,
          "name": "E3",
          "ticks": 25104,
          "time": 191.34138049999999,
          "velocity": 0.6220472440944882
        },
        {
          "duration": 0.2439023333333239,
          "durationTicks": 32,
          "midi": 52,
          "name": "E3",
          "ticks": 25152,
          "time": 191.707234,
          "velocity": 0.6220472440944882
        },
        {
          "duration": 0.2439023333333239,
          "durationTicks": 32,
          "midi": 52,
          "name": "E3",
          "ticks": 25200,
          "time": 192.07308749999999,
          "velocity": 0.6220472440944882
        },
        {
          "duration": 0.2439023333333239,
          "durationTicks": 32,
          "midi": 52,
          "name": "E3",
          "ticks": 25248,
          "time": 192.438941,
          "velocity": 0.6220472440944882
        },
        {
          "duration": 0.2439023333333239,
          "durationTicks": 32,
          "midi": 50,
          "name": "D3",
          "ticks": 25296,
          "time": 192.80479449999999,
          "velocity": 0.6220472440944882
        },
        {
          "duration": 0.7317070000000001,
          "durationTicks": 96,
          "midi": 48,
          "name": "C3",
          "ticks": 25344,
          "time": 193.170648,
          "velocity": 0.6220472440944882
        },
        {
          "duration": 0.2439023333333239,
          "durationTicks": 32,
          "midi": 50,
          "name": "D3",
          "ticks": 25488,
          "time": 194.2682085,
          "velocity": 0.6220472440944882
        },
        {
          "duration": 0.2439023333333239,
          "durationTicks": 32,
          "midi": 55,
          "name": "G3",
          "ticks": 25536,
          "time": 194.634062,
          "velocity": 0.6220472440944882
        },
        {
          "duration": 0.2439023333333239,
          "durationTicks": 32,
          "midi": 55,
          "name": "G3",
          "ticks": 25584,
          "time": 194.9999155,
          "velocity": 0.6220472440944882
        },
        {
          "duration": 0.2439023333333239,
          "durationTicks": 32,
          "midi": 55,
          "name": "G3",
          "ticks": 25632,
          "time": 195.365769,
          "velocity": 0.6220472440944882
        },
        {
          "duration": 0.12195116666669037,
          "durationTicks": 16,
          "midi": 55,
          "name": "G3",
          "ticks": 25680,
          "time": 195.7316225,
          "velocity": 0.6220472440944882
        },
        {
          "duration": 0.12195116666669037,
          "durationTicks": 16,
          "midi": 52,
          "name": "E3",
          "ticks": 25704,
          "time": 195.91454925,
          "velocity": 0.6220472440944882
        },
        {
          "duration": 0.2439023333333239,
          "durationTicks": 32,
          "midi": 54,
          "name": "F#3",
          "ticks": 25728,
          "time": 196.097476,
          "velocity": 0.6220472440944882
        },
        {
          "duration": 0.2439023333333239,
          "durationTicks": 32,
          "midi": 54,
          "name": "F#3",
          "ticks": 25776,
          "time": 196.4633295,
          "velocity": 0.6220472440944882
        },
        {
          "duration": 0.2439023333333239,
          "durationTicks": 32,
          "midi": 54,
          "name": "F#3",
          "ticks": 25824,
          "time": 196.829183,
          "velocity": 0.6220472440944882
        },
        {
          "duration": 0.12195116666669037,
          "durationTicks": 16,
          "midi": 54,
          "name": "F#3",
          "ticks": 25872,
          "time": 197.1950365,
          "velocity": 0.6220472440944882
        },
        {
          "duration": 0.12195116666669037,
          "durationTicks": 16,
          "midi": 50,
          "name": "D3",
          "ticks": 25896,
          "time": 197.37796325,
          "velocity": 0.6220472440944882
        },
        {
          "duration": 0.2439023333333239,
          "durationTicks": 32,
          "midi": 52,
          "name": "E3",
          "ticks": 25920,
          "time": 197.56089,
          "velocity": 0.6220472440944882
        },
        {
          "duration": 0.2439023333333239,
          "durationTicks": 32,
          "midi": 52,
          "name": "E3",
          "ticks": 25968,
          "time": 197.9267435,
          "velocity": 0.6220472440944882
        },
        {
          "duration": 0.2439023333333239,
          "durationTicks": 32,
          "midi": 52,
          "name": "E3",
          "ticks": 26016,
          "time": 198.292597,
          "velocity": 0.6220472440944882
        },
        {
          "duration": 0.2439023333333239,
          "durationTicks": 32,
          "midi": 52,
          "name": "E3",
          "ticks": 26064,
          "time": 198.6584505,
          "velocity": 0.6220472440944882
        },
        {
          "duration": 0.2439023333333239,
          "durationTicks": 32,
          "midi": 50,
          "name": "D3",
          "ticks": 26112,
          "time": 199.024304,
          "velocity": 0.6220472440944882
        },
        {
          "duration": 0.2439023333333239,
          "durationTicks": 32,
          "midi": 50,
          "name": "D3",
          "ticks": 26160,
          "time": 199.3901575,
          "velocity": 0.6220472440944882
        },
        {
          "duration": 0.2439023333333239,
          "durationTicks": 32,
          "midi": 50,
          "name": "D3",
          "ticks": 26208,
          "time": 199.756011,
          "velocity": 0.6220472440944882
        },
        {
          "duration": 0.2439023333333239,
          "durationTicks": 32,
          "midi": 50,
          "name": "D3",
          "ticks": 26256,
          "time": 200.1218645,
          "velocity": 0.6220472440944882
        },
        {
          "duration": 0.4878046666666762,
          "durationTicks": 64,
          "midi": 48,
          "name": "C3",
          "ticks": 26304,
          "time": 200.487718,
          "velocity": 0.6220472440944882
        },
        {
          "duration": 0.4878046666666762,
          "durationTicks": 64,
          "midi": 48,
          "name": "C3",
          "ticks": 26400,
          "time": 201.219425,
          "velocity": 0.6220472440944882
        },
        {
          "duration": 0.4878046666666762,
          "durationTicks": 64,
          "midi": 47,
          "name": "B2",
          "ticks": 26496,
          "time": 201.951132,
          "velocity": 0.6220472440944882
        },
        {
          "duration": 0.4878046666666762,
          "durationTicks": 64,
          "midi": 47,
          "name": "B2",
          "ticks": 26592,
          "time": 202.682839,
          "velocity": 0.6220472440944882
        },
        {
          "duration": 0.7317070000000001,
          "durationTicks": 96,
          "midi": 45,
          "name": "A2",
          "ticks": 26688,
          "time": 203.414546,
          "velocity": 0.6220472440944882
        },
        {
          "duration": 0.6097558333333382,
          "durationTicks": 80,
          "midi": 45,
          "name": "A2",
          "ticks": 26832,
          "time": 204.5121065,
          "velocity": 0.6220472440944882
        },
        {
          "duration": 0.12195116666669037,
          "durationTicks": 16,
          "midi": 40,
          "name": "E2",
          "ticks": 26928,
          "time": 205.2438135,
          "velocity": 0.7480314960629921
        },
        {
          "duration": 0.426829083333331,
          "durationTicks": 56,
          "midi": 40,
          "name": "E2",
          "ticks": 26952,
          "time": 205.42674025,
          "velocity": 0.7480314960629921
        },
        {
          "duration": 0.2439023333333239,
          "durationTicks": 32,
          "midi": 43,
          "name": "G2",
          "ticks": 27024,
          "time": 205.9755205,
          "velocity": 0.7480314960629921
        },
        {
          "duration": 0.4878046666666762,
          "durationTicks": 64,
          "midi": 43,
          "name": "G2",
          "ticks": 27072,
          "time": 206.341374,
          "velocity": 0.6220472440944882
        },
        {
          "duration": 0.4878046666666762,
          "durationTicks": 64,
          "midi": 43,
          "name": "G2",
          "ticks": 27168,
          "time": 207.073081,
          "velocity": 0.6220472440944882
        },
        {
          "duration": 0.4878046666666762,
          "durationTicks": 64,
          "midi": 42,
          "name": "F#2",
          "ticks": 27264,
          "time": 207.804788,
          "velocity": 0.6220472440944882
        },
        {
          "duration": 0.4878046666666762,
          "durationTicks": 64,
          "midi": 42,
          "name": "F#2",
          "ticks": 27360,
          "time": 208.536495,
          "velocity": 0.6220472440944882
        },
        {
          "duration": 0.2439023333333239,
          "durationTicks": 32,
          "midi": 40,
          "name": "E2",
          "ticks": 27456,
          "time": 209.268202,
          "velocity": 0.6220472440944882
        },
        {
          "duration": 0.2439023333333239,
          "durationTicks": 32,
          "midi": 40,
          "name": "E2",
          "ticks": 27504,
          "time": 209.6340555,
          "velocity": 0.6220472440944882
        },
        {
          "duration": 0.4878046666666762,
          "durationTicks": 64,
          "midi": 40,
          "name": "E2",
          "ticks": 27552,
          "time": 209.999909,
          "velocity": 0.6220472440944882
        },
        {
          "duration": 0.2439023333333239,
          "durationTicks": 32,
          "midi": 50,
          "name": "D3",
          "ticks": 27648,
          "time": 210.731616,
          "velocity": 0.6220472440944882
        },
        {
          "duration": 0.2439023333333239,
          "durationTicks": 32,
          "midi": 50,
          "name": "D3",
          "ticks": 27696,
          "time": 211.0974695,
          "velocity": 0.6220472440944882
        },
        {
          "duration": 0.2439023333333239,
          "durationTicks": 32,
          "midi": 50,
          "name": "D3",
          "ticks": 27744,
          "time": 211.463323,
          "velocity": 0.6220472440944882
        },
        {
          "duration": 0.2439023333333239,
          "durationTicks": 32,
          "midi": 50,
          "name": "D3",
          "ticks": 27792,
          "time": 211.8291765,
          "velocity": 0.6220472440944882
        },
        {
          "duration": 0.2439023333333239,
          "durationTicks": 32,
          "midi": 48,
          "name": "C3",
          "ticks": 27840,
          "time": 212.19503,
          "velocity": 0.6220472440944882
        },
        {
          "duration": 0.2439023333333239,
          "durationTicks": 32,
          "midi": 48,
          "name": "C3",
          "ticks": 27888,
          "time": 212.5608835,
          "velocity": 0.6220472440944882
        },
        {
          "duration": 0.2439023333333239,
          "durationTicks": 32,
          "midi": 48,
          "name": "C3",
          "ticks": 27936,
          "time": 212.926737,
          "velocity": 0.6220472440944882
        },
        {
          "duration": 0.2439023333333239,
          "durationTicks": 32,
          "midi": 40,
          "name": "E2",
          "ticks": 27984,
          "time": 213.2925905,
          "velocity": 0.6220472440944882
        },
        {
          "duration": 0.2439023333333239,
          "durationTicks": 32,
          "midi": 41,
          "name": "F2",
          "ticks": 28032,
          "time": 213.658444,
          "velocity": 0.6220472440944882
        },
        {
          "duration": 0.2439023333333239,
          "durationTicks": 32,
          "midi": 41,
          "name": "F2",
          "ticks": 28080,
          "time": 214.0242975,
          "velocity": 0.6220472440944882
        },
        {
          "duration": 0.2439023333333239,
          "durationTicks": 32,
          "midi": 41,
          "name": "F2",
          "ticks": 28128,
          "time": 214.390151,
          "velocity": 0.6220472440944882
        },
        {
          "duration": 0.2439023333333239,
          "durationTicks": 32,
          "midi": 41,
          "name": "F2",
          "ticks": 28176,
          "time": 214.7560045,
          "velocity": 0.6220472440944882
        },
        {
          "duration": 0.2439023333333239,
          "durationTicks": 32,
          "midi": 40,
          "name": "E2",
          "ticks": 28224,
          "time": 215.121858,
          "velocity": 0.6220472440944882
        },
        {
          "duration": 0.2439023333333239,
          "durationTicks": 32,
          "midi": 40,
          "name": "E2",
          "ticks": 28272,
          "time": 215.4877115,
          "velocity": 0.6220472440944882
        },
        {
          "duration": 0.2439023333333239,
          "durationTicks": 32,
          "midi": 40,
          "name": "E2",
          "ticks": 28320,
          "time": 215.853565,
          "velocity": 0.6220472440944882
        },
        {
          "duration": 0.2439023333333239,
          "durationTicks": 32,
          "midi": 40,
          "name": "E2",
          "ticks": 28368,
          "time": 216.2194185,
          "velocity": 0.6220472440944882
        },
        {
          "duration": 0.2439023333333239,
          "durationTicks": 32,
          "midi": 50,
          "name": "D3",
          "ticks": 28416,
          "time": 216.585272,
          "velocity": 0.6220472440944882
        },
        {
          "duration": 0.2439023333333239,
          "durationTicks": 32,
          "midi": 50,
          "name": "D3",
          "ticks": 28464,
          "time": 216.9511255,
          "velocity": 0.6220472440944882
        },
        {
          "duration": 0.2439023333333239,
          "durationTicks": 32,
          "midi": 50,
          "name": "D3",
          "ticks": 28512,
          "time": 217.316979,
          "velocity": 0.6220472440944882
        },
        {
          "duration": 0.2439023333333239,
          "durationTicks": 32,
          "midi": 50,
          "name": "D3",
          "ticks": 28560,
          "time": 217.6828325,
          "velocity": 0.6220472440944882
        },
        {
          "duration": 0.2439023333333239,
          "durationTicks": 32,
          "midi": 48,
          "name": "C3",
          "ticks": 28608,
          "time": 218.048686,
          "velocity": 0.6220472440944882
        },
        {
          "duration": 0.2439023333333239,
          "durationTicks": 32,
          "midi": 48,
          "name": "C3",
          "ticks": 28656,
          "time": 218.4145395,
          "velocity": 0.6220472440944882
        },
        {
          "duration": 0.2439023333333239,
          "durationTicks": 32,
          "midi": 48,
          "name": "C3",
          "ticks": 28704,
          "time": 218.780393,
          "velocity": 0.6220472440944882
        },
        {
          "duration": 0.2439023333333239,
          "durationTicks": 32,
          "midi": 48,
          "name": "C3",
          "ticks": 28752,
          "time": 219.1462465,
          "velocity": 0.6220472440944882
        },
        {
          "duration": 0.2439023333333239,
          "durationTicks": 32,
          "midi": 48,
          "name": "C3",
          "ticks": 28800,
          "time": 219.5121,
          "velocity": 0.6220472440944882
        },
        {
          "duration": 0.2439023333333239,
          "durationTicks": 32,
          "midi": 48,
          "name": "C3",
          "ticks": 28848,
          "time": 219.8779535,
          "velocity": 0.6220472440944882
        },
        {
          "duration": 0.2439023333333239,
          "durationTicks": 32,
          "midi": 48,
          "name": "C3",
          "ticks": 28896,
          "time": 220.243807,
          "velocity": 0.6220472440944882
        },
        {
          "duration": 0.2439023333333239,
          "durationTicks": 32,
          "midi": 48,
          "name": "C3",
          "ticks": 28944,
          "time": 220.6096605,
          "velocity": 0.6220472440944882
        },
        {
          "duration": 0.2439023333333239,
          "durationTicks": 32,
          "midi": 48,
          "name": "C3",
          "ticks": 28992,
          "time": 220.975514,
          "velocity": 0.6220472440944882
        },
        {
          "duration": 0.2439023333333239,
          "durationTicks": 32,
          "midi": 48,
          "name": "C3",
          "ticks": 29040,
          "time": 221.3413675,
          "velocity": 0.6220472440944882
        },
        {
          "duration": 0.2439023333333239,
          "durationTicks": 32,
          "midi": 48,
          "name": "C3",
          "ticks": 29088,
          "time": 221.707221,
          "velocity": 0.6220472440944882
        },
        {
          "duration": 0.2439023333333239,
          "durationTicks": 32,
          "midi": 48,
          "name": "C3",
          "ticks": 29136,
          "time": 222.0730745,
          "velocity": 0.6220472440944882
        },
        {
          "duration": 0.2439023333333239,
          "durationTicks": 32,
          "midi": 42,
          "name": "F#2",
          "ticks": 29184,
          "time": 222.438928,
          "velocity": 0.6220472440944882
        },
        {
          "duration": 0.2439023333333239,
          "durationTicks": 32,
          "midi": 42,
          "name": "F#2",
          "ticks": 29232,
          "time": 222.8047815,
          "velocity": 0.6220472440944882
        },
        {
          "duration": 0.2439023333333239,
          "durationTicks": 32,
          "midi": 42,
          "name": "F#2",
          "ticks": 29280,
          "time": 223.170635,
          "velocity": 0.6220472440944882
        },
        {
          "duration": 0.2439023333333239,
          "durationTicks": 32,
          "midi": 42,
          "name": "F#2",
          "ticks": 29328,
          "time": 223.5364885,
          "velocity": 0.6220472440944882
        },
        {
          "duration": 0.2439023333333239,
          "durationTicks": 32,
          "midi": 43,
          "name": "G2",
          "ticks": 29376,
          "time": 223.902342,
          "velocity": 0.6220472440944882
        },
        {
          "duration": 0.2439023333333239,
          "durationTicks": 32,
          "midi": 43,
          "name": "G2",
          "ticks": 29424,
          "time": 224.2681955,
          "velocity": 0.6220472440944882
        },
        {
          "duration": 0.2439023333333239,
          "durationTicks": 32,
          "midi": 43,
          "name": "G2",
          "ticks": 29472,
          "time": 224.634049,
          "velocity": 0.6220472440944882
        },
        {
          "duration": 0.2439023333333239,
          "durationTicks": 32,
          "midi": 43,
          "name": "G2",
          "ticks": 29520,
          "time": 224.9999025,
          "velocity": 0.6220472440944882
        },
        {
          "duration": 0.2439023333333239,
          "durationTicks": 32,
          "midi": 45,
          "name": "A2",
          "ticks": 29568,
          "time": 225.365756,
          "velocity": 0.6220472440944882
        },
        {
          "duration": 0.2439023333333239,
          "durationTicks": 32,
          "midi": 45,
          "name": "A2",
          "ticks": 29616,
          "time": 225.7316095,
          "velocity": 0.6220472440944882
        },
        {
          "duration": 0.2439023333333239,
          "durationTicks": 32,
          "midi": 45,
          "name": "A2",
          "ticks": 29664,
          "time": 226.097463,
          "velocity": 0.6220472440944882
        },
        {
          "duration": 0.2439023333333239,
          "durationTicks": 32,
          "midi": 45,
          "name": "A2",
          "ticks": 29712,
          "time": 226.4633165,
          "velocity": 0.6220472440944882
        },
        {
          "duration": 0.2439023333333239,
          "durationTicks": 32,
          "midi": 47,
          "name": "B2",
          "ticks": 29760,
          "time": 226.82917,
          "velocity": 0.6220472440944882
        },
        {
          "duration": 0.2439023333333239,
          "durationTicks": 32,
          "midi": 47,
          "name": "B2",
          "ticks": 29808,
          "time": 227.1950235,
          "velocity": 0.6220472440944882
        },
        {
          "duration": 0.2439023333333239,
          "durationTicks": 32,
          "midi": 47,
          "name": "B2",
          "ticks": 29856,
          "time": 227.560877,
          "velocity": 0.6220472440944882
        },
        {
          "duration": 0.2439023333333239,
          "durationTicks": 32,
          "midi": 47,
          "name": "B2",
          "ticks": 29904,
          "time": 227.9267305,
          "velocity": 0.6220472440944882
        },
        {
          "duration": 0.2439023333333239,
          "durationTicks": 32,
          "midi": 48,
          "name": "C3",
          "ticks": 29952,
          "time": 228.292584,
          "velocity": 0.6220472440944882
        },
        {
          "duration": 0.2439023333333239,
          "durationTicks": 32,
          "midi": 48,
          "name": "C3",
          "ticks": 30000,
          "time": 228.6584375,
          "velocity": 0.6220472440944882
        },
        {
          "duration": 0.2439023333333239,
          "durationTicks": 32,
          "midi": 48,
          "name": "C3",
          "ticks": 30048,
          "time": 229.024291,
          "velocity": 0.6220472440944882
        },
        {
          "duration": 0.2439023333333239,
          "durationTicks": 32,
          "midi": 48,
          "name": "C3",
          "ticks": 30096,
          "time": 229.3901445,
          "velocity": 0.6220472440944882
        },
        {
          "duration": 0.2439023333333239,
          "durationTicks": 32,
          "midi": 50,
          "name": "D3",
          "ticks": 30144,
          "time": 229.755998,
          "velocity": 0.6220472440944882
        },
        {
          "duration": 0.2439023333333239,
          "durationTicks": 32,
          "midi": 50,
          "name": "D3",
          "ticks": 30192,
          "time": 230.1218515,
          "velocity": 0.6220472440944882
        },
        {
          "duration": 0.2439023333333239,
          "durationTicks": 32,
          "midi": 50,
          "name": "D3",
          "ticks": 30240,
          "time": 230.487705,
          "velocity": 0.6220472440944882
        },
        {
          "duration": 0.2439023333333239,
          "durationTicks": 32,
          "midi": 50,
          "name": "D3",
          "ticks": 30288,
          "time": 230.8535585,
          "velocity": 0.6220472440944882
        },
        {
          "duration": 0.2439023333333239,
          "durationTicks": 32,
          "midi": 52,
          "name": "E3",
          "ticks": 30336,
          "time": 231.219412,
          "velocity": 0.6220472440944882
        },
        {
          "duration": 0.2439023333333239,
          "durationTicks": 32,
          "midi": 52,
          "name": "E3",
          "ticks": 30384,
          "time": 231.5852655,
          "velocity": 0.6220472440944882
        },
        {
          "duration": 0.2439023333333239,
          "durationTicks": 32,
          "midi": 52,
          "name": "E3",
          "ticks": 30432,
          "time": 231.951119,
          "velocity": 0.6220472440944882
        },
        {
          "duration": 0.2439023333333239,
          "durationTicks": 32,
          "midi": 52,
          "name": "E3",
          "ticks": 30480,
          "time": 232.3169725,
          "velocity": 0.6220472440944882
        },
        {
          "duration": 0.2439023333333239,
          "durationTicks": 32,
          "midi": 52,
          "name": "E3",
          "ticks": 30528,
          "time": 232.682826,
          "velocity": 0.6220472440944882
        },
        {
          "duration": 0.2439023333333239,
          "durationTicks": 32,
          "midi": 52,
          "name": "E3",
          "ticks": 30576,
          "time": 233.0486795,
          "velocity": 0.6220472440944882
        },
        {
          "duration": 0.2439023333333239,
          "durationTicks": 32,
          "midi": 52,
          "name": "E3",
          "ticks": 30624,
          "time": 233.414533,
          "velocity": 0.6220472440944882
        },
        {
          "duration": 0.2439023333333239,
          "durationTicks": 32,
          "midi": 52,
          "name": "E3",
          "ticks": 30672,
          "time": 233.7803865,
          "velocity": 0.6220472440944882
        },
        {
          "duration": 0.2439023333333239,
          "durationTicks": 32,
          "midi": 52,
          "name": "E3",
          "ticks": 30720,
          "time": 234.14624,
          "velocity": 0.6220472440944882
        },
        {
          "duration": 0.2439023333333239,
          "durationTicks": 32,
          "midi": 52,
          "name": "E3",
          "ticks": 30768,
          "time": 234.5120935,
          "velocity": 0.6220472440944882
        },
        {
          "duration": 0.2439023333333239,
          "durationTicks": 32,
          "midi": 52,
          "name": "E3",
          "ticks": 30816,
          "time": 234.877947,
          "velocity": 0.6220472440944882
        },
        {
          "duration": 0.2439023333333239,
          "durationTicks": 32,
          "midi": 52,
          "name": "E3",
          "ticks": 30864,
          "time": 235.2438005,
          "velocity": 0.6220472440944882
        },
        {
          "duration": 0.2439023333333239,
          "durationTicks": 32,
          "midi": 52,
          "name": "E3",
          "ticks": 30912,
          "time": 235.609654,
          "velocity": 0.6220472440944882
        },
        {
          "duration": 0.2439023333333239,
          "durationTicks": 32,
          "midi": 52,
          "name": "E3",
          "ticks": 30960,
          "time": 235.9755075,
          "velocity": 0.6220472440944882
        },
        {
          "duration": 0.2439023333333239,
          "durationTicks": 32,
          "midi": 52,
          "name": "E3",
          "ticks": 31008,
          "time": 236.341361,
          "velocity": 0.6220472440944882
        },
        {
          "duration": 0.2439023333333239,
          "durationTicks": 32,
          "midi": 52,
          "name": "E3",
          "ticks": 31056,
          "time": 236.7072145,
          "velocity": 0.6220472440944882
        },
        {
          "duration": 0.2439023333333239,
          "durationTicks": 32,
          "midi": 52,
          "name": "E3",
          "ticks": 31104,
          "time": 237.073068,
          "velocity": 0.6220472440944882
        },
        {
          "duration": 0.2439023333333239,
          "durationTicks": 32,
          "midi": 52,
          "name": "E3",
          "ticks": 31152,
          "time": 237.4389215,
          "velocity": 0.6220472440944882
        },
        {
          "duration": 0.2439023333333239,
          "durationTicks": 32,
          "midi": 52,
          "name": "E3",
          "ticks": 31200,
          "time": 237.804775,
          "velocity": 0.6220472440944882
        },
        {
          "duration": 0.2439023333333239,
          "durationTicks": 32,
          "midi": 52,
          "name": "E3",
          "ticks": 31248,
          "time": 238.1706285,
          "velocity": 0.6220472440944882
        },
        {
          "duration": 0.2439023333333239,
          "durationTicks": 32,
          "midi": 52,
          "name": "E3",
          "ticks": 31296,
          "time": 238.536482,
          "velocity": 0.6220472440944882
        },
        {
          "duration": 0.2439023333333239,
          "durationTicks": 32,
          "midi": 52,
          "name": "E3",
          "ticks": 31344,
          "time": 238.9023355,
          "velocity": 0.6220472440944882
        },
        {
          "duration": 0.2439023333333239,
          "durationTicks": 32,
          "midi": 52,
          "name": "E3",
          "ticks": 31392,
          "time": 239.268189,
          "velocity": 0.6220472440944882
        },
        {
          "duration": 0.2439023333333239,
          "durationTicks": 32,
          "midi": 52,
          "name": "E3",
          "ticks": 31440,
          "time": 239.6340425,
          "velocity": 0.6220472440944882
        },
        {
          "duration": 0.2439023333333239,
          "durationTicks": 32,
          "midi": 52,
          "name": "E3",
          "ticks": 31488,
          "time": 239.999896,
          "velocity": 0.6220472440944882
        },
        {
          "duration": 0.2439023333333239,
          "durationTicks": 32,
          "midi": 52,
          "name": "E3",
          "ticks": 31536,
          "time": 240.3657495,
          "velocity": 0.6220472440944882
        },
        {
          "duration": 0.2439023333333239,
          "durationTicks": 32,
          "midi": 52,
          "name": "E3",
          "ticks": 31584,
          "time": 240.731603,
          "velocity": 0.6220472440944882
        },
        {
          "duration": 0.2439023333333239,
          "durationTicks": 32,
          "midi": 52,
          "name": "E3",
          "ticks": 31632,
          "time": 241.0974565,
          "velocity": 0.6220472440944882
        },
        {
          "duration": 0.2439023333333239,
          "durationTicks": 32,
          "midi": 52,
          "name": "E3",
          "ticks": 31680,
          "time": 241.46331,
          "velocity": 0.6220472440944882
        },
        {
          "duration": 0.2439023333333239,
          "durationTicks": 32,
          "midi": 52,
          "name": "E3",
          "ticks": 31728,
          "time": 241.8291635,
          "velocity": 0.6220472440944882
        },
        {
          "duration": 0.2439023333333239,
          "durationTicks": 32,
          "midi": 52,
          "name": "E3",
          "ticks": 31776,
          "time": 242.195017,
          "velocity": 0.6220472440944882
        },
        {
          "duration": 0.2439023333333239,
          "durationTicks": 32,
          "midi": 52,
          "name": "E3",
          "ticks": 31824,
          "time": 242.5608705,
          "velocity": 0.6220472440944882
        },
        {
          "duration": 0.2439023333333239,
          "durationTicks": 32,
          "midi": 52,
          "name": "E3",
          "ticks": 31872,
          "time": 242.926724,
          "velocity": 0.6220472440944882
        },
        {
          "duration": 0.2439023333333239,
          "durationTicks": 32,
          "midi": 52,
          "name": "E3",
          "ticks": 31920,
          "time": 243.2925775,
          "velocity": 0.6220472440944882
        },
        {
          "duration": 0.2439023333333239,
          "durationTicks": 32,
          "midi": 52,
          "name": "E3",
          "ticks": 31968,
          "time": 243.658431,
          "velocity": 0.6220472440944882
        },
        {
          "duration": 0.2439023333333239,
          "durationTicks": 32,
          "midi": 52,
          "name": "E3",
          "ticks": 32016,
          "time": 244.0242845,
          "velocity": 0.6220472440944882
        },
        {
          "duration": 0.2439023333333239,
          "durationTicks": 32,
          "midi": 52,
          "name": "E3",
          "ticks": 32064,
          "time": 244.390138,
          "velocity": 0.6220472440944882
        },
        {
          "duration": 0.2439023333333239,
          "durationTicks": 32,
          "midi": 52,
          "name": "E3",
          "ticks": 32112,
          "time": 244.7559915,
          "velocity": 0.6220472440944882
        },
        {
          "duration": 0.2439023333333239,
          "durationTicks": 32,
          "midi": 52,
          "name": "E3",
          "ticks": 32160,
          "time": 245.121845,
          "velocity": 0.6220472440944882
        },
        {
          "duration": 0.2439023333333239,
          "durationTicks": 32,
          "midi": 52,
          "name": "E3",
          "ticks": 32208,
          "time": 245.4876985,
          "velocity": 0.6220472440944882
        },
        {
          "duration": 0.2439023333333239,
          "durationTicks": 32,
          "midi": 52,
          "name": "E3",
          "ticks": 32256,
          "time": 245.853552,
          "velocity": 0.6220472440944882
        },
        {
          "duration": 0.2439023333333239,
          "durationTicks": 32,
          "midi": 52,
          "name": "E3",
          "ticks": 32304,
          "time": 246.2194055,
          "velocity": 0.6220472440944882
        },
        {
          "duration": 0.2439023333333239,
          "durationTicks": 32,
          "midi": 52,
          "name": "E3",
          "ticks": 32352,
          "time": 246.585259,
          "velocity": 0.6220472440944882
        },
        {
          "duration": 0.2439023333333239,
          "durationTicks": 32,
          "midi": 52,
          "name": "E3",
          "ticks": 32400,
          "time": 246.9511125,
          "velocity": 0.6220472440944882
        },
        {
          "duration": 0.2439023333333239,
          "durationTicks": 32,
          "midi": 52,
          "name": "E3",
          "ticks": 32448,
          "time": 247.316966,
          "velocity": 0.6220472440944882
        },
        {
          "duration": 0.2439023333333239,
          "durationTicks": 32,
          "midi": 52,
          "name": "E3",
          "ticks": 32496,
          "time": 247.6828195,
          "velocity": 0.6220472440944882
        },
        {
          "duration": 0.2439023333333239,
          "durationTicks": 32,
          "midi": 52,
          "name": "E3",
          "ticks": 32544,
          "time": 248.048673,
          "velocity": 0.6220472440944882
        },
        {
          "duration": 0.2439023333333239,
          "durationTicks": 32,
          "midi": 52,
          "name": "E3",
          "ticks": 32592,
          "time": 248.4145265,
          "velocity": 0.6220472440944882
        },
        {
          "duration": 0.2439023333333239,
          "durationTicks": 32,
          "midi": 52,
          "name": "E3",
          "ticks": 32640,
          "time": 248.78038,
          "velocity": 0.6220472440944882
        },
        {
          "duration": 0.2439023333333239,
          "durationTicks": 32,
          "midi": 52,
          "name": "E3",
          "ticks": 32688,
          "time": 249.1462335,
          "velocity": 0.6220472440944882
        },
        {
          "duration": 0.2439023333333239,
          "durationTicks": 32,
          "midi": 52,
          "name": "E3",
          "ticks": 32736,
          "time": 249.512087,
          "velocity": 0.6220472440944882
        },
        {
          "duration": 0.2439023333333239,
          "durationTicks": 32,
          "midi": 52,
          "name": "E3",
          "ticks": 32784,
          "time": 249.8779405,
          "velocity": 0.6220472440944882
        },
        {
          "duration": 0.2439023333333239,
          "durationTicks": 32,
          "midi": 52,
          "name": "E3",
          "ticks": 32832,
          "time": 250.243794,
          "velocity": 0.6220472440944882
        },
        {
          "duration": 0.2439023333333239,
          "durationTicks": 32,
          "midi": 52,
          "name": "E3",
          "ticks": 32880,
          "time": 250.6096475,
          "velocity": 0.6220472440944882
        },
        {
          "duration": 0.2439023333333239,
          "durationTicks": 32,
          "midi": 52,
          "name": "E3",
          "ticks": 32928,
          "time": 250.975501,
          "velocity": 0.6220472440944882
        },
        {
          "duration": 0.2439023333333239,
          "durationTicks": 32,
          "midi": 52,
          "name": "E3",
          "ticks": 32976,
          "time": 251.3413545,
          "velocity": 0.6220472440944882
        },
        {
          "duration": 0.2439023333333239,
          "durationTicks": 32,
          "midi": 52,
          "name": "E3",
          "ticks": 33024,
          "time": 251.707208,
          "velocity": 0.6220472440944882
        },
        {
          "duration": 0.2439023333333239,
          "durationTicks": 32,
          "midi": 52,
          "name": "E3",
          "ticks": 33072,
          "time": 252.0730615,
          "velocity": 0.6220472440944882
        },
        {
          "duration": 0.24390233333329547,
          "durationTicks": 32,
          "midi": 52,
          "name": "E3",
          "ticks": 33120,
          "time": 252.438915,
          "velocity": 0.6220472440944882
        },
        {
          "duration": 0.2439023333333239,
          "durationTicks": 32,
          "midi": 52,
          "name": "E3",
          "ticks": 33168,
          "time": 252.8047685,
          "velocity": 0.6220472440944882
        },
        {
          "duration": 0.24390233333329547,
          "durationTicks": 32,
          "midi": 52,
          "name": "E3",
          "ticks": 33216,
          "time": 253.170622,
          "velocity": 0.6220472440944882
        },
        {
          "duration": 0.2439023333333239,
          "durationTicks": 32,
          "midi": 52,
          "name": "E3",
          "ticks": 33264,
          "time": 253.5364755,
          "velocity": 0.6220472440944882
        },
        {
          "duration": 0.24390233333329547,
          "durationTicks": 32,
          "midi": 52,
          "name": "E3",
          "ticks": 33312,
          "time": 253.902329,
          "velocity": 0.6220472440944882
        },
        {
          "duration": 0.2439023333333239,
          "durationTicks": 32,
          "midi": 52,
          "name": "E3",
          "ticks": 33360,
          "time": 254.2681825,
          "velocity": 0.6220472440944882
        },
        {
          "duration": 0.24390233333329547,
          "durationTicks": 32,
          "midi": 52,
          "name": "E3",
          "ticks": 33408,
          "time": 254.634036,
          "velocity": 0.6220472440944882
        },
        {
          "duration": 0.2439023333333239,
          "durationTicks": 32,
          "midi": 52,
          "name": "E3",
          "ticks": 33456,
          "time": 254.9998895,
          "velocity": 0.6220472440944882
        },
        {
          "duration": 0.24390233333329547,
          "durationTicks": 32,
          "midi": 52,
          "name": "E3",
          "ticks": 33504,
          "time": 255.365743,
          "velocity": 0.6220472440944882
        },
        {
          "duration": 0.2439023333333239,
          "durationTicks": 32,
          "midi": 52,
          "name": "E3",
          "ticks": 33552,
          "time": 255.7315965,
          "velocity": 0.6220472440944882
        },
        {
          "duration": 0.2439023333333239,
          "durationTicks": 32,
          "midi": 52,
          "name": "E3",
          "ticks": 33600,
          "time": 256.09745,
          "velocity": 0.6220472440944882
        },
        {
          "duration": 0.2439023333333239,
          "durationTicks": 32,
          "midi": 52,
          "name": "E3",
          "ticks": 33648,
          "time": 256.4633035,
          "velocity": 0.6220472440944882
        },
        {
          "duration": 0.2439023333333239,
          "durationTicks": 32,
          "midi": 52,
          "name": "E3",
          "ticks": 33696,
          "time": 256.829157,
          "velocity": 0.6220472440944882
        },
        {
          "duration": 0.24390233333326705,
          "durationTicks": 32,
          "midi": 52,
          "name": "E3",
          "ticks": 33744,
          "time": 257.1950105,
          "velocity": 0.6220472440944882
        },
        {
          "duration": 0.48780466666670463,
          "durationTicks": 64,
          "midi": 52,
          "name": "E3",
          "ticks": 33792,
          "time": 257.560864,
          "velocity": 0.8740157480314961
        },
        {
          "duration": 3.8871934375000023,
          "durationTicks": 510,
          "midi": 40,
          "name": "E2",
          "ticks": 33984,
          "time": 259.024278,
          "velocity": 0.7480314960629921
        }
      ]
    },
    {
      "channel": 0,
      "controlChanges": {
        "0": [
          {
            "number": 0,
            "ticks": 193,
            "time": 1.4710359479166666,
            "value": 0
          }
        ],
        "32": [
          {
            "number": 32,
            "ticks": 195,
            "time": 1.48627984375,
            "value": 0
          }
        ]
      },
      "pitchBends": [],
      "instrument": {
        "family": "piano",
        "number": 0,
        "name": "acoustic grand piano"
      },
      "name": "Strings",
      "notes": [],
      "endOfTrackTicks": 30904
    },
    {
      "channel": 5,
      "controlChanges": {
        "1": [
          {
            "number": 1,
            "ticks": 199,
            "time": 1.5167676354166666,
            "value": 0
          }
        ],
        "7": [
          {
            "number": 7,
            "ticks": 201,
            "time": 1.53201153125,
            "value": 0.7559055118110236
          }
        ],
        "10": [
          {
            "number": 10,
            "ticks": 203,
            "time": 1.5472554270833334,
            "value": 0.5039370078740157
          }
        ],
        "11": [
          {
            "number": 11,
            "ticks": 205,
            "time": 1.5624993229166666,
            "value": 1
          }
        ],
        "64": [
          {
            "number": 64,
            "ticks": 207,
            "time": 1.57774321875,
            "value": 0
          }
        ],
        "91": [
          {
            "number": 91,
            "ticks": 209,
            "time": 1.5929871145833334,
            "value": 0.5039370078740157
          }
        ],
        "93": [
          {
            "number": 93,
            "ticks": 211,
            "time": 1.6082310104166666,
            "value": 0.5039370078740157
          }
        ]
      },
      "pitchBends": [
        {
          "ticks": 213,
          "time": 1.62347490625,
          "value": 0
        }
      ],
      "instrument": {
        "family": "ensemble",
        "number": 48,
        "name": "string ensemble 1"
      },
      "name": "",
      "notes": [
        {
          "duration": 0.12195116666666195,
          "durationTicks": 16,
          "midi": 59,
          "name": "B3",
          "ticks": 13056,
          "time": 99.512152,
          "velocity": 0.7480314960629921
        },
        {
          "duration": 0.12195116666666195,
          "durationTicks": 16,
          "midi": 71,
          "name": "B4",
          "ticks": 13056,
          "time": 99.512152,
          "velocity": 0.7480314960629921
        },
        {
          "duration": 0.12195116666666195,
          "durationTicks": 16,
          "midi": 60,
          "name": "C4",
          "ticks": 13080,
          "time": 99.69507875,
          "velocity": 0.7480314960629921
        },
        {
          "duration": 0.12195116666666195,
          "durationTicks": 16,
          "midi": 72,
          "name": "C5",
          "ticks": 13080,
          "time": 99.69507875,
          "velocity": 0.7480314960629921
        },
        {
          "duration": 0.12195116666666195,
          "durationTicks": 16,
          "midi": 59,
          "name": "B3",
          "ticks": 13104,
          "time": 99.8780055,
          "velocity": 0.7480314960629921
        },
        {
          "duration": 0.12195116666666195,
          "durationTicks": 16,
          "midi": 71,
          "name": "B4",
          "ticks": 13104,
          "time": 99.8780055,
          "velocity": 0.7480314960629921
        },
        {
          "duration": 0.12195116666666195,
          "durationTicks": 16,
          "midi": 60,
          "name": "C4",
          "ticks": 13128,
          "time": 100.06093225,
          "velocity": 0.7480314960629921
        },
        {
          "duration": 0.12195116666666195,
          "durationTicks": 16,
          "midi": 72,
          "name": "C5",
          "ticks": 13128,
          "time": 100.06093225,
          "velocity": 0.7480314960629921
        },
        {
          "duration": 0.12195116666666195,
          "durationTicks": 16,
          "midi": 59,
          "name": "B3",
          "ticks": 13152,
          "time": 100.243859,
          "velocity": 0.7480314960629921
        },
        {
          "duration": 0.12195116666666195,
          "durationTicks": 16,
          "midi": 71,
          "name": "B4",
          "ticks": 13152,
          "time": 100.243859,
          "velocity": 0.7480314960629921
        },
        {
          "duration": 0.12195116666666195,
          "durationTicks": 16,
          "midi": 60,
          "name": "C4",
          "ticks": 13176,
          "time": 100.42678575,
          "velocity": 0.7480314960629921
        },
        {
          "duration": 0.12195116666666195,
          "durationTicks": 16,
          "midi": 72,
          "name": "C5",
          "ticks": 13176,
          "time": 100.42678575,
          "velocity": 0.7480314960629921
        },
        {
          "duration": 0.12195116666666195,
          "durationTicks": 16,
          "midi": 59,
          "name": "B3",
          "ticks": 13200,
          "time": 100.6097125,
          "velocity": 0.7480314960629921
        },
        {
          "duration": 0.12195116666666195,
          "durationTicks": 16,
          "midi": 71,
          "name": "B4",
          "ticks": 13200,
          "time": 100.6097125,
          "velocity": 0.7480314960629921
        },
        {
          "duration": 0.12195116666666195,
          "durationTicks": 16,
          "midi": 60,
          "name": "C4",
          "ticks": 13224,
          "time": 100.79263925,
          "velocity": 0.7480314960629921
        },
        {
          "duration": 0.12195116666666195,
          "durationTicks": 16,
          "midi": 72,
          "name": "C5",
          "ticks": 13224,
          "time": 100.79263925,
          "velocity": 0.7480314960629921
        },
        {
          "duration": 0.12195116666666195,
          "durationTicks": 16,
          "midi": 59,
          "name": "B3",
          "ticks": 13248,
          "time": 100.975566,
          "velocity": 0.7480314960629921
        },
        {
          "duration": 0.12195116666666195,
          "durationTicks": 16,
          "midi": 71,
          "name": "B4",
          "ticks": 13248,
          "time": 100.975566,
          "velocity": 0.7480314960629921
        },
        {
          "duration": 0.12195116666666195,
          "durationTicks": 16,
          "midi": 60,
          "name": "C4",
          "ticks": 13272,
          "time": 101.15849275,
          "velocity": 0.7480314960629921
        },
        {
          "duration": 0.12195116666666195,
          "durationTicks": 16,
          "midi": 72,
          "name": "C5",
          "ticks": 13272,
          "time": 101.15849275,
          "velocity": 0.7480314960629921
        },
        {
          "duration": 0.12195116666666195,
          "durationTicks": 16,
          "midi": 59,
          "name": "B3",
          "ticks": 13296,
          "time": 101.3414195,
          "velocity": 0.7480314960629921
        },
        {
          "duration": 0.12195116666666195,
          "durationTicks": 16,
          "midi": 71,
          "name": "B4",
          "ticks": 13296,
          "time": 101.3414195,
          "velocity": 0.7480314960629921
        },
        {
          "duration": 0.12195116666666195,
          "durationTicks": 16,
          "midi": 60,
          "name": "C4",
          "ticks": 13320,
          "time": 101.52434625,
          "velocity": 0.7480314960629921
        },
        {
          "duration": 0.12195116666666195,
          "durationTicks": 16,
          "midi": 72,
          "name": "C5",
          "ticks": 13320,
          "time": 101.52434625,
          "velocity": 0.7480314960629921
        },
        {
          "duration": 0.12195116666666195,
          "durationTicks": 16,
          "midi": 59,
          "name": "B3",
          "ticks": 13344,
          "time": 101.707273,
          "velocity": 0.7480314960629921
        },
        {
          "duration": 0.12195116666666195,
          "durationTicks": 16,
          "midi": 71,
          "name": "B4",
          "ticks": 13344,
          "time": 101.707273,
          "velocity": 0.7480314960629921
        },
        {
          "duration": 0.12195116666666195,
          "durationTicks": 16,
          "midi": 60,
          "name": "C4",
          "ticks": 13368,
          "time": 101.89019975,
          "velocity": 0.7480314960629921
        },
        {
          "duration": 0.12195116666666195,
          "durationTicks": 16,
          "midi": 72,
          "name": "C5",
          "ticks": 13368,
          "time": 101.89019975,
          "velocity": 0.7480314960629921
        },
        {
          "duration": 0.12195116666666195,
          "durationTicks": 16,
          "midi": 59,
          "name": "B3",
          "ticks": 13392,
          "time": 102.0731265,
          "velocity": 0.7480314960629921
        },
        {
          "duration": 0.12195116666666195,
          "durationTicks": 16,
          "midi": 71,
          "name": "B4",
          "ticks": 13392,
          "time": 102.0731265,
          "velocity": 0.7480314960629921
        },
        {
          "duration": 0.12195116666666195,
          "durationTicks": 16,
          "midi": 60,
          "name": "C4",
          "ticks": 13416,
          "time": 102.25605325,
          "velocity": 0.7480314960629921
        },
        {
          "duration": 0.12195116666666195,
          "durationTicks": 16,
          "midi": 72,
          "name": "C5",
          "ticks": 13416,
          "time": 102.25605325,
          "velocity": 0.7480314960629921
        },
        {
          "duration": 0.12195116666666195,
          "durationTicks": 16,
          "midi": 59,
          "name": "B3",
          "ticks": 13440,
          "time": 102.43898,
          "velocity": 0.7480314960629921
        },
        {
          "duration": 0.12195116666666195,
          "durationTicks": 16,
          "midi": 71,
          "name": "B4",
          "ticks": 13440,
          "time": 102.43898,
          "velocity": 0.7480314960629921
        },
        {
          "duration": 0.12195116666666195,
          "durationTicks": 16,
          "midi": 60,
          "name": "C4",
          "ticks": 13464,
          "time": 102.62190675,
          "velocity": 0.7480314960629921
        },
        {
          "duration": 0.12195116666666195,
          "durationTicks": 16,
          "midi": 72,
          "name": "C5",
          "ticks": 13464,
          "time": 102.62190675,
          "velocity": 0.7480314960629921
        },
        {
          "duration": 0.12195116666666195,
          "durationTicks": 16,
          "midi": 59,
          "name": "B3",
          "ticks": 13488,
          "time": 102.8048335,
          "velocity": 0.7480314960629921
        },
        {
          "duration": 0.12195116666666195,
          "durationTicks": 16,
          "midi": 71,
          "name": "B4",
          "ticks": 13488,
          "time": 102.8048335,
          "velocity": 0.7480314960629921
        },
        {
          "duration": 0.12195116666666195,
          "durationTicks": 16,
          "midi": 60,
          "name": "C4",
          "ticks": 13512,
          "time": 102.98776025,
          "velocity": 0.7480314960629921
        },
        {
          "duration": 0.12195116666666195,
          "durationTicks": 16,
          "midi": 72,
          "name": "C5",
          "ticks": 13512,
          "time": 102.98776025,
          "velocity": 0.7480314960629921
        },
        {
          "duration": 0.12195116666666195,
          "durationTicks": 16,
          "midi": 59,
          "name": "B3",
          "ticks": 13536,
          "time": 103.170687,
          "velocity": 0.7480314960629921
        },
        {
          "duration": 0.12195116666666195,
          "durationTicks": 16,
          "midi": 71,
          "name": "B4",
          "ticks": 13536,
          "time": 103.170687,
          "velocity": 0.7480314960629921
        },
        {
          "duration": 0.12195116666666195,
          "durationTicks": 16,
          "midi": 60,
          "name": "C4",
          "ticks": 13560,
          "time": 103.35361375,
          "velocity": 0.7480314960629921
        },
        {
          "duration": 0.12195116666666195,
          "durationTicks": 16,
          "midi": 72,
          "name": "C5",
          "ticks": 13560,
          "time": 103.35361375,
          "velocity": 0.7480314960629921
        },
        {
          "duration": 0.12195116666666195,
          "durationTicks": 16,
          "midi": 59,
          "name": "B3",
          "ticks": 13584,
          "time": 103.5365405,
          "velocity": 0.7480314960629921
        },
        {
          "duration": 0.12195116666666195,
          "durationTicks": 16,
          "midi": 71,
          "name": "B4",
          "ticks": 13584,
          "time": 103.5365405,
          "velocity": 0.7480314960629921
        },
        {
          "duration": 0.12195116666666195,
          "durationTicks": 16,
          "midi": 60,
          "name": "C4",
          "ticks": 13608,
          "time": 103.71946725,
          "velocity": 0.7480314960629921
        },
        {
          "duration": 0.12195116666666195,
          "durationTicks": 16,
          "midi": 72,
          "name": "C5",
          "ticks": 13608,
          "time": 103.71946725,
          "velocity": 0.7480314960629921
        },
        {
          "duration": 0.12195116666666195,
          "durationTicks": 16,
          "midi": 59,
          "name": "B3",
          "ticks": 13632,
          "time": 103.902394,
          "velocity": 0.7480314960629921
        },
        {
          "duration": 0.12195116666666195,
          "durationTicks": 16,
          "midi": 71,
          "name": "B4",
          "ticks": 13632,
          "time": 103.902394,
          "velocity": 0.7480314960629921
        },
        {
          "duration": 0.12195116666666195,
          "durationTicks": 16,
          "midi": 60,
          "name": "C4",
          "ticks": 13656,
          "time": 104.08532075,
          "velocity": 0.7480314960629921
        },
        {
          "duration": 0.12195116666666195,
          "durationTicks": 16,
          "midi": 72,
          "name": "C5",
          "ticks": 13656,
          "time": 104.08532075,
          "velocity": 0.7480314960629921
        },
        {
          "duration": 0.12195116666666195,
          "durationTicks": 16,
          "midi": 59,
          "name": "B3",
          "ticks": 13680,
          "time": 104.2682475,
          "velocity": 0.7480314960629921
        },
        {
          "duration": 0.12195116666666195,
          "durationTicks": 16,
          "midi": 71,
          "name": "B4",
          "ticks": 13680,
          "time": 104.2682475,
          "velocity": 0.7480314960629921
        },
        {
          "duration": 0.12195116666666195,
          "durationTicks": 16,
          "midi": 60,
          "name": "C4",
          "ticks": 13704,
          "time": 104.45117425,
          "velocity": 0.7480314960629921
        },
        {
          "duration": 0.12195116666666195,
          "durationTicks": 16,
          "midi": 72,
          "name": "C5",
          "ticks": 13704,
          "time": 104.45117425,
          "velocity": 0.7480314960629921
        },
        {
          "duration": 0.12195116666666195,
          "durationTicks": 16,
          "midi": 59,
          "name": "B3",
          "ticks": 13728,
          "time": 104.634101,
          "velocity": 0.7480314960629921
        },
        {
          "duration": 0.12195116666666195,
          "durationTicks": 16,
          "midi": 71,
          "name": "B4",
          "ticks": 13728,
          "time": 104.634101,
          "velocity": 0.7480314960629921
        },
        {
          "duration": 0.12195116666666195,
          "durationTicks": 16,
          "midi": 60,
          "name": "C4",
          "ticks": 13752,
          "time": 104.81702775,
          "velocity": 0.7480314960629921
        },
        {
          "duration": 0.12195116666666195,
          "durationTicks": 16,
          "midi": 72,
          "name": "C5",
          "ticks": 13752,
          "time": 104.81702775,
          "velocity": 0.7480314960629921
        },
        {
          "duration": 0.12195116666666195,
          "durationTicks": 16,
          "midi": 59,
          "name": "B3",
          "ticks": 13776,
          "time": 104.9999545,
          "velocity": 0.7480314960629921
        },
        {
          "duration": 0.12195116666666195,
          "durationTicks": 16,
          "midi": 71,
          "name": "B4",
          "ticks": 13776,
          "time": 104.9999545,
          "velocity": 0.7480314960629921
        },
        {
          "duration": 0.12195116666666195,
          "durationTicks": 16,
          "midi": 60,
          "name": "C4",
          "ticks": 13800,
          "time": 105.18288125,
          "velocity": 0.7480314960629921
        },
        {
          "duration": 0.12195116666666195,
          "durationTicks": 16,
          "midi": 72,
          "name": "C5",
          "ticks": 13800,
          "time": 105.18288125,
          "velocity": 0.7480314960629921
        },
        {
          "duration": 0.12195116666666195,
          "durationTicks": 16,
          "midi": 59,
          "name": "B3",
          "ticks": 13824,
          "time": 105.365808,
          "velocity": 0.7480314960629921
        },
        {
          "duration": 0.12195116666666195,
          "durationTicks": 16,
          "midi": 71,
          "name": "B4",
          "ticks": 13824,
          "time": 105.365808,
          "velocity": 0.7480314960629921
        },
        {
          "duration": 0.12195116666666195,
          "durationTicks": 16,
          "midi": 60,
          "name": "C4",
          "ticks": 13848,
          "time": 105.54873475,
          "velocity": 0.7480314960629921
        },
        {
          "duration": 0.12195116666666195,
          "durationTicks": 16,
          "midi": 72,
          "name": "C5",
          "ticks": 13848,
          "time": 105.54873475,
          "velocity": 0.7480314960629921
        },
        {
          "duration": 0.12195116666666195,
          "durationTicks": 16,
          "midi": 59,
          "name": "B3",
          "ticks": 13872,
          "time": 105.7316615,
          "velocity": 0.7480314960629921
        },
        {
          "duration": 0.12195116666666195,
          "durationTicks": 16,
          "midi": 71,
          "name": "B4",
          "ticks": 13872,
          "time": 105.7316615,
          "velocity": 0.7480314960629921
        },
        {
          "duration": 0.12195116666666195,
          "durationTicks": 16,
          "midi": 60,
          "name": "C4",
          "ticks": 13896,
          "time": 105.91458825,
          "velocity": 0.7480314960629921
        },
        {
          "duration": 0.12195116666666195,
          "durationTicks": 16,
          "midi": 72,
          "name": "C5",
          "ticks": 13896,
          "time": 105.91458825,
          "velocity": 0.7480314960629921
        },
        {
          "duration": 0.12195116666666195,
          "durationTicks": 16,
          "midi": 59,
          "name": "B3",
          "ticks": 13920,
          "time": 106.097515,
          "velocity": 0.7480314960629921
        },
        {
          "duration": 0.12195116666666195,
          "durationTicks": 16,
          "midi": 71,
          "name": "B4",
          "ticks": 13920,
          "time": 106.097515,
          "velocity": 0.7480314960629921
        },
        {
          "duration": 0.12195116666666195,
          "durationTicks": 16,
          "midi": 60,
          "name": "C4",
          "ticks": 13944,
          "time": 106.28044175,
          "velocity": 0.7480314960629921
        },
        {
          "duration": 0.12195116666666195,
          "durationTicks": 16,
          "midi": 72,
          "name": "C5",
          "ticks": 13944,
          "time": 106.28044175,
          "velocity": 0.7480314960629921
        },
        {
          "duration": 0.12195116666666195,
          "durationTicks": 16,
          "midi": 59,
          "name": "B3",
          "ticks": 13968,
          "time": 106.4633685,
          "velocity": 0.7480314960629921
        },
        {
          "duration": 0.12195116666666195,
          "durationTicks": 16,
          "midi": 71,
          "name": "B4",
          "ticks": 13968,
          "time": 106.4633685,
          "velocity": 0.7480314960629921
        },
        {
          "duration": 0.12195116666666195,
          "durationTicks": 16,
          "midi": 60,
          "name": "C4",
          "ticks": 13992,
          "time": 106.64629525,
          "velocity": 0.7480314960629921
        },
        {
          "duration": 0.12195116666666195,
          "durationTicks": 16,
          "midi": 72,
          "name": "C5",
          "ticks": 13992,
          "time": 106.64629525,
          "velocity": 0.7480314960629921
        },
        {
          "duration": 0.12195116666666195,
          "durationTicks": 16,
          "midi": 59,
          "name": "B3",
          "ticks": 14016,
          "time": 106.829222,
          "velocity": 0.7480314960629921
        },
        {
          "duration": 0.12195116666666195,
          "durationTicks": 16,
          "midi": 71,
          "name": "B4",
          "ticks": 14016,
          "time": 106.829222,
          "velocity": 0.7480314960629921
        },
        {
          "duration": 0.12195116666666195,
          "durationTicks": 16,
          "midi": 60,
          "name": "C4",
          "ticks": 14040,
          "time": 107.01214875,
          "velocity": 0.7480314960629921
        },
        {
          "duration": 0.12195116666666195,
          "durationTicks": 16,
          "midi": 72,
          "name": "C5",
          "ticks": 14040,
          "time": 107.01214875,
          "velocity": 0.7480314960629921
        },
        {
          "duration": 0.12195116666666195,
          "durationTicks": 16,
          "midi": 59,
          "name": "B3",
          "ticks": 14064,
          "time": 107.1950755,
          "velocity": 0.7480314960629921
        },
        {
          "duration": 0.12195116666666195,
          "durationTicks": 16,
          "midi": 71,
          "name": "B4",
          "ticks": 14064,
          "time": 107.1950755,
          "velocity": 0.7480314960629921
        },
        {
          "duration": 0.12195116666666195,
          "durationTicks": 16,
          "midi": 60,
          "name": "C4",
          "ticks": 14088,
          "time": 107.37800225,
          "velocity": 0.7480314960629921
        },
        {
          "duration": 0.12195116666666195,
          "durationTicks": 16,
          "midi": 72,
          "name": "C5",
          "ticks": 14088,
          "time": 107.37800225,
          "velocity": 0.7480314960629921
        },
        {
          "duration": 0.12195116666666195,
          "durationTicks": 16,
          "midi": 59,
          "name": "B3",
          "ticks": 14112,
          "time": 107.560929,
          "velocity": 0.7480314960629921
        },
        {
          "duration": 0.12195116666666195,
          "durationTicks": 16,
          "midi": 71,
          "name": "B4",
          "ticks": 14112,
          "time": 107.560929,
          "velocity": 0.7480314960629921
        },
        {
          "duration": 0.12195116666666195,
          "durationTicks": 16,
          "midi": 60,
          "name": "C4",
          "ticks": 14136,
          "time": 107.74385575,
          "velocity": 0.7480314960629921
        },
        {
          "duration": 0.12195116666666195,
          "durationTicks": 16,
          "midi": 72,
          "name": "C5",
          "ticks": 14136,
          "time": 107.74385575,
          "velocity": 0.7480314960629921
        },
        {
          "duration": 0.12195116666666195,
          "durationTicks": 16,
          "midi": 59,
          "name": "B3",
          "ticks": 14160,
          "time": 107.9267825,
          "velocity": 0.7480314960629921
        },
        {
          "duration": 0.12195116666666195,
          "durationTicks": 16,
          "midi": 71,
          "name": "B4",
          "ticks": 14160,
          "time": 107.9267825,
          "velocity": 0.7480314960629921
        },
        {
          "duration": 0.12195116666666195,
          "durationTicks": 16,
          "midi": 60,
          "name": "C4",
          "ticks": 14184,
          "time": 108.10970925,
          "velocity": 0.7480314960629921
        },
        {
          "duration": 0.12195116666666195,
          "durationTicks": 16,
          "midi": 72,
          "name": "C5",
          "ticks": 14184,
          "time": 108.10970925,
          "velocity": 0.7480314960629921
        },
        {
          "duration": 0.12195116666666195,
          "durationTicks": 16,
          "midi": 59,
          "name": "B3",
          "ticks": 14208,
          "time": 108.292636,
          "velocity": 0.7480314960629921
        },
        {
          "duration": 0.12195116666666195,
          "durationTicks": 16,
          "midi": 71,
          "name": "B4",
          "ticks": 14208,
          "time": 108.292636,
          "velocity": 0.7480314960629921
        },
        {
          "duration": 0.12195116666666195,
          "durationTicks": 16,
          "midi": 60,
          "name": "C4",
          "ticks": 14232,
          "time": 108.47556275,
          "velocity": 0.7480314960629921
        },
        {
          "duration": 0.12195116666666195,
          "durationTicks": 16,
          "midi": 72,
          "name": "C5",
          "ticks": 14232,
          "time": 108.47556275,
          "velocity": 0.7480314960629921
        },
        {
          "duration": 0.12195116666666195,
          "durationTicks": 16,
          "midi": 59,
          "name": "B3",
          "ticks": 14256,
          "time": 108.6584895,
          "velocity": 0.7480314960629921
        },
        {
          "duration": 0.12195116666666195,
          "durationTicks": 16,
          "midi": 71,
          "name": "B4",
          "ticks": 14256,
          "time": 108.6584895,
          "velocity": 0.7480314960629921
        },
        {
          "duration": 0.12195116666666195,
          "durationTicks": 16,
          "midi": 60,
          "name": "C4",
          "ticks": 14280,
          "time": 108.84141625,
          "velocity": 0.7480314960629921
        },
        {
          "duration": 0.12195116666666195,
          "durationTicks": 16,
          "midi": 72,
          "name": "C5",
          "ticks": 14280,
          "time": 108.84141625,
          "velocity": 0.7480314960629921
        },
        {
          "duration": 0.12195116666666195,
          "durationTicks": 16,
          "midi": 59,
          "name": "B3",
          "ticks": 14304,
          "time": 109.024343,
          "velocity": 0.7480314960629921
        },
        {
          "duration": 0.12195116666666195,
          "durationTicks": 16,
          "midi": 71,
          "name": "B4",
          "ticks": 14304,
          "time": 109.024343,
          "velocity": 0.7480314960629921
        },
        {
          "duration": 0.12195116666666195,
          "durationTicks": 16,
          "midi": 60,
          "name": "C4",
          "ticks": 14328,
          "time": 109.20726975,
          "velocity": 0.7480314960629921
        },
        {
          "duration": 0.12195116666666195,
          "durationTicks": 16,
          "midi": 72,
          "name": "C5",
          "ticks": 14328,
          "time": 109.20726975,
          "velocity": 0.7480314960629921
        },
        {
          "duration": 0.12195116666666195,
          "durationTicks": 16,
          "midi": 59,
          "name": "B3",
          "ticks": 14352,
          "time": 109.3901965,
          "velocity": 0.7480314960629921
        },
        {
          "duration": 0.12195116666666195,
          "durationTicks": 16,
          "midi": 71,
          "name": "B4",
          "ticks": 14352,
          "time": 109.3901965,
          "velocity": 0.7480314960629921
        },
        {
          "duration": 0.12195116666666195,
          "durationTicks": 16,
          "midi": 60,
          "name": "C4",
          "ticks": 14376,
          "time": 109.57312325,
          "velocity": 0.7480314960629921
        },
        {
          "duration": 0.12195116666666195,
          "durationTicks": 16,
          "midi": 72,
          "name": "C5",
          "ticks": 14376,
          "time": 109.57312325,
          "velocity": 0.7480314960629921
        },
        {
          "duration": 0.12195116666666195,
          "durationTicks": 16,
          "midi": 59,
          "name": "B3",
          "ticks": 29376,
          "time": 223.902342,
          "velocity": 0.7480314960629921
        },
        {
          "duration": 0.12195116666666195,
          "durationTicks": 16,
          "midi": 71,
          "name": "B4",
          "ticks": 29376,
          "time": 223.902342,
          "velocity": 0.7480314960629921
        },
        {
          "duration": 0.12195116666666195,
          "durationTicks": 16,
          "midi": 60,
          "name": "C4",
          "ticks": 29400,
          "time": 224.08526875,
          "velocity": 0.7480314960629921
        },
        {
          "duration": 0.12195116666666195,
          "durationTicks": 16,
          "midi": 72,
          "name": "C5",
          "ticks": 29400,
          "time": 224.08526875,
          "velocity": 0.7480314960629921
        },
        {
          "duration": 0.12195116666669037,
          "durationTicks": 16,
          "midi": 59,
          "name": "B3",
          "ticks": 29424,
          "time": 224.2681955,
          "velocity": 0.7480314960629921
        },
        {
          "duration": 0.12195116666669037,
          "durationTicks": 16,
          "midi": 71,
          "name": "B4",
          "ticks": 29424,
          "time": 224.2681955,
          "velocity": 0.7480314960629921
        },
        {
          "duration": 0.12195116666669037,
          "durationTicks": 16,
          "midi": 60,
          "name": "C4",
          "ticks": 29448,
          "time": 224.45112225,
          "velocity": 0.7480314960629921
        },
        {
          "duration": 0.12195116666669037,
          "durationTicks": 16,
          "midi": 72,
          "name": "C5",
          "ticks": 29448,
          "time": 224.45112225,
          "velocity": 0.7480314960629921
        },
        {
          "duration": 0.12195116666666195,
          "durationTicks": 16,
          "midi": 59,
          "name": "B3",
          "ticks": 29472,
          "time": 224.634049,
          "velocity": 0.7480314960629921
        },
        {
          "duration": 0.12195116666666195,
          "durationTicks": 16,
          "midi": 71,
          "name": "B4",
          "ticks": 29472,
          "time": 224.634049,
          "velocity": 0.7480314960629921
        },
        {
          "duration": 0.12195116666666195,
          "durationTicks": 16,
          "midi": 60,
          "name": "C4",
          "ticks": 29496,
          "time": 224.81697575,
          "velocity": 0.7480314960629921
        },
        {
          "duration": 0.12195116666666195,
          "durationTicks": 16,
          "midi": 72,
          "name": "C5",
          "ticks": 29496,
          "time": 224.81697575,
          "velocity": 0.7480314960629921
        },
        {
          "duration": 0.12195116666669037,
          "durationTicks": 16,
          "midi": 59,
          "name": "B3",
          "ticks": 29520,
          "time": 224.9999025,
          "velocity": 0.7480314960629921
        },
        {
          "duration": 0.12195116666669037,
          "durationTicks": 16,
          "midi": 71,
          "name": "B4",
          "ticks": 29520,
          "time": 224.9999025,
          "velocity": 0.7480314960629921
        },
        {
          "duration": 0.12195116666669037,
          "durationTicks": 16,
          "midi": 60,
          "name": "C4",
          "ticks": 29544,
          "time": 225.18282925,
          "velocity": 0.7480314960629921
        },
        {
          "duration": 0.12195116666669037,
          "durationTicks": 16,
          "midi": 72,
          "name": "C5",
          "ticks": 29544,
          "time": 225.18282925,
          "velocity": 0.7480314960629921
        },
        {
          "duration": 0.12195116666666195,
          "durationTicks": 16,
          "midi": 59,
          "name": "B3",
          "ticks": 29568,
          "time": 225.365756,
          "velocity": 0.7480314960629921
        },
        {
          "duration": 0.12195116666666195,
          "durationTicks": 16,
          "midi": 71,
          "name": "B4",
          "ticks": 29568,
          "time": 225.365756,
          "velocity": 0.7480314960629921
        },
        {
          "duration": 0.12195116666666195,
          "durationTicks": 16,
          "midi": 60,
          "name": "C4",
          "ticks": 29592,
          "time": 225.54868275,
          "velocity": 0.7480314960629921
        },
        {
          "duration": 0.12195116666666195,
          "durationTicks": 16,
          "midi": 72,
          "name": "C5",
          "ticks": 29592,
          "time": 225.54868275,
          "velocity": 0.7480314960629921
        },
        {
          "duration": 0.12195116666669037,
          "durationTicks": 16,
          "midi": 59,
          "name": "B3",
          "ticks": 29616,
          "time": 225.7316095,
          "velocity": 0.7480314960629921
        },
        {
          "duration": 0.12195116666669037,
          "durationTicks": 16,
          "midi": 71,
          "name": "B4",
          "ticks": 29616,
          "time": 225.7316095,
          "velocity": 0.7480314960629921
        },
        {
          "duration": 0.12195116666669037,
          "durationTicks": 16,
          "midi": 60,
          "name": "C4",
          "ticks": 29640,
          "time": 225.91453625,
          "velocity": 0.7480314960629921
        },
        {
          "duration": 0.12195116666669037,
          "durationTicks": 16,
          "midi": 72,
          "name": "C5",
          "ticks": 29640,
          "time": 225.91453625,
          "velocity": 0.7480314960629921
        },
        {
          "duration": 0.12195116666666195,
          "durationTicks": 16,
          "midi": 59,
          "name": "B3",
          "ticks": 29664,
          "time": 226.097463,
          "velocity": 0.7480314960629921
        },
        {
          "duration": 0.12195116666666195,
          "durationTicks": 16,
          "midi": 71,
          "name": "B4",
          "ticks": 29664,
          "time": 226.097463,
          "velocity": 0.7480314960629921
        },
        {
          "duration": 0.12195116666666195,
          "durationTicks": 16,
          "midi": 60,
          "name": "C4",
          "ticks": 29688,
          "time": 226.28038975,
          "velocity": 0.7480314960629921
        },
        {
          "duration": 0.12195116666666195,
          "durationTicks": 16,
          "midi": 72,
          "name": "C5",
          "ticks": 29688,
          "time": 226.28038975,
          "velocity": 0.7480314960629921
        },
        {
          "duration": 0.12195116666669037,
          "durationTicks": 16,
          "midi": 59,
          "name": "B3",
          "ticks": 29712,
          "time": 226.4633165,
          "velocity": 0.7480314960629921
        },
        {
          "duration": 0.12195116666669037,
          "durationTicks": 16,
          "midi": 71,
          "name": "B4",
          "ticks": 29712,
          "time": 226.4633165,
          "velocity": 0.7480314960629921
        },
        {
          "duration": 0.12195116666669037,
          "durationTicks": 16,
          "midi": 60,
          "name": "C4",
          "ticks": 29736,
          "time": 226.64624325,
          "velocity": 0.7480314960629921
        },
        {
          "duration": 0.12195116666669037,
          "durationTicks": 16,
          "midi": 72,
          "name": "C5",
          "ticks": 29736,
          "time": 226.64624325,
          "velocity": 0.7480314960629921
        },
        {
          "duration": 0.12195116666666195,
          "durationTicks": 16,
          "midi": 59,
          "name": "B3",
          "ticks": 29760,
          "time": 226.82917,
          "velocity": 0.7480314960629921
        },
        {
          "duration": 0.12195116666666195,
          "durationTicks": 16,
          "midi": 71,
          "name": "B4",
          "ticks": 29760,
          "time": 226.82917,
          "velocity": 0.7480314960629921
        },
        {
          "duration": 0.12195116666666195,
          "durationTicks": 16,
          "midi": 60,
          "name": "C4",
          "ticks": 29784,
          "time": 227.01209675,
          "velocity": 0.7480314960629921
        },
        {
          "duration": 0.12195116666666195,
          "durationTicks": 16,
          "midi": 72,
          "name": "C5",
          "ticks": 29784,
          "time": 227.01209675,
          "velocity": 0.7480314960629921
        },
        {
          "duration": 0.12195116666669037,
          "durationTicks": 16,
          "midi": 59,
          "name": "B3",
          "ticks": 29808,
          "time": 227.1950235,
          "velocity": 0.7480314960629921
        },
        {
          "duration": 0.12195116666669037,
          "durationTicks": 16,
          "midi": 71,
          "name": "B4",
          "ticks": 29808,
          "time": 227.1950235,
          "velocity": 0.7480314960629921
        },
        {
          "duration": 0.12195116666669037,
          "durationTicks": 16,
          "midi": 60,
          "name": "C4",
          "ticks": 29832,
          "time": 227.37795025,
          "velocity": 0.7480314960629921
        },
        {
          "duration": 0.12195116666669037,
          "durationTicks": 16,
          "midi": 72,
          "name": "C5",
          "ticks": 29832,
          "time": 227.37795025,
          "velocity": 0.7480314960629921
        },
        {
          "duration": 0.12195116666666195,
          "durationTicks": 16,
          "midi": 59,
          "name": "B3",
          "ticks": 29856,
          "time": 227.560877,
          "velocity": 0.7480314960629921
        },
        {
          "duration": 0.12195116666666195,
          "durationTicks": 16,
          "midi": 71,
          "name": "B4",
          "ticks": 29856,
          "time": 227.560877,
          "velocity": 0.7480314960629921
        },
        {
          "duration": 0.12195116666666195,
          "durationTicks": 16,
          "midi": 60,
          "name": "C4",
          "ticks": 29880,
          "time": 227.74380375,
          "velocity": 0.7480314960629921
        },
        {
          "duration": 0.12195116666666195,
          "durationTicks": 16,
          "midi": 72,
          "name": "C5",
          "ticks": 29880,
          "time": 227.74380375,
          "velocity": 0.7480314960629921
        },
        {
          "duration": 0.12195116666669037,
          "durationTicks": 16,
          "midi": 59,
          "name": "B3",
          "ticks": 29904,
          "time": 227.9267305,
          "velocity": 0.7480314960629921
        },
        {
          "duration": 0.12195116666669037,
          "durationTicks": 16,
          "midi": 71,
          "name": "B4",
          "ticks": 29904,
          "time": 227.9267305,
          "velocity": 0.7480314960629921
        },
        {
          "duration": 0.12195116666669037,
          "durationTicks": 16,
          "midi": 60,
          "name": "C4",
          "ticks": 29928,
          "time": 228.10965725,
          "velocity": 0.7480314960629921
        },
        {
          "duration": 0.12195116666669037,
          "durationTicks": 16,
          "midi": 72,
          "name": "C5",
          "ticks": 29928,
          "time": 228.10965725,
          "velocity": 0.7480314960629921
        },
        {
          "duration": 0.12195116666666195,
          "durationTicks": 16,
          "midi": 59,
          "name": "B3",
          "ticks": 29952,
          "time": 228.292584,
          "velocity": 0.7480314960629921
        },
        {
          "duration": 0.12195116666666195,
          "durationTicks": 16,
          "midi": 71,
          "name": "B4",
          "ticks": 29952,
          "time": 228.292584,
          "velocity": 0.7480314960629921
        },
        {
          "duration": 0.12195116666666195,
          "durationTicks": 16,
          "midi": 60,
          "name": "C4",
          "ticks": 29976,
          "time": 228.47551075,
          "velocity": 0.7480314960629921
        },
        {
          "duration": 0.12195116666666195,
          "durationTicks": 16,
          "midi": 72,
          "name": "C5",
          "ticks": 29976,
          "time": 228.47551075,
          "velocity": 0.7480314960629921
        },
        {
          "duration": 0.12195116666669037,
          "durationTicks": 16,
          "midi": 59,
          "name": "B3",
          "ticks": 30000,
          "time": 228.6584375,
          "velocity": 0.7480314960629921
        },
        {
          "duration": 0.12195116666669037,
          "durationTicks": 16,
          "midi": 71,
          "name": "B4",
          "ticks": 30000,
          "time": 228.6584375,
          "velocity": 0.7480314960629921
        },
        {
          "duration": 0.12195116666669037,
          "durationTicks": 16,
          "midi": 60,
          "name": "C4",
          "ticks": 30024,
          "time": 228.84136425,
          "velocity": 0.7480314960629921
        },
        {
          "duration": 0.12195116666669037,
          "durationTicks": 16,
          "midi": 72,
          "name": "C5",
          "ticks": 30024,
          "time": 228.84136425,
          "velocity": 0.7480314960629921
        },
        {
          "duration": 0.12195116666666195,
          "durationTicks": 16,
          "midi": 59,
          "name": "B3",
          "ticks": 30048,
          "time": 229.024291,
          "velocity": 0.7480314960629921
        },
        {
          "duration": 0.12195116666666195,
          "durationTicks": 16,
          "midi": 71,
          "name": "B4",
          "ticks": 30048,
          "time": 229.024291,
          "velocity": 0.7480314960629921
        },
        {
          "duration": 0.12195116666666195,
          "durationTicks": 16,
          "midi": 60,
          "name": "C4",
          "ticks": 30072,
          "time": 229.20721775,
          "velocity": 0.7480314960629921
        },
        {
          "duration": 0.12195116666666195,
          "durationTicks": 16,
          "midi": 72,
          "name": "C5",
          "ticks": 30072,
          "time": 229.20721775,
          "velocity": 0.7480314960629921
        },
        {
          "duration": 0.12195116666669037,
          "durationTicks": 16,
          "midi": 59,
          "name": "B3",
          "ticks": 30096,
          "time": 229.3901445,
          "velocity": 0.7480314960629921
        },
        {
          "duration": 0.12195116666669037,
          "durationTicks": 16,
          "midi": 71,
          "name": "B4",
          "ticks": 30096,
          "time": 229.3901445,
          "velocity": 0.7480314960629921
        },
        {
          "duration": 0.12195116666669037,
          "durationTicks": 16,
          "midi": 60,
          "name": "C4",
          "ticks": 30120,
          "time": 229.57307125,
          "velocity": 0.7480314960629921
        },
        {
          "duration": 0.12195116666669037,
          "durationTicks": 16,
          "midi": 72,
          "name": "C5",
          "ticks": 30120,
          "time": 229.57307125,
          "velocity": 0.7480314960629921
        },
        {
          "duration": 0.12195116666666195,
          "durationTicks": 16,
          "midi": 59,
          "name": "B3",
          "ticks": 30144,
          "time": 229.755998,
          "velocity": 0.7480314960629921
        },
        {
          "duration": 0.12195116666666195,
          "durationTicks": 16,
          "midi": 71,
          "name": "B4",
          "ticks": 30144,
          "time": 229.755998,
          "velocity": 0.7480314960629921
        },
        {
          "duration": 0.12195116666666195,
          "durationTicks": 16,
          "midi": 60,
          "name": "C4",
          "ticks": 30168,
          "time": 229.93892475,
          "velocity": 0.7480314960629921
        },
        {
          "duration": 0.12195116666666195,
          "durationTicks": 16,
          "midi": 72,
          "name": "C5",
          "ticks": 30168,
          "time": 229.93892475,
          "velocity": 0.7480314960629921
        },
        {
          "duration": 0.12195116666669037,
          "durationTicks": 16,
          "midi": 59,
          "name": "B3",
          "ticks": 30192,
          "time": 230.1218515,
          "velocity": 0.7480314960629921
        },
        {
          "duration": 0.12195116666669037,
          "durationTicks": 16,
          "midi": 71,
          "name": "B4",
          "ticks": 30192,
          "time": 230.1218515,
          "velocity": 0.7480314960629921
        },
        {
          "duration": 0.12195116666669037,
          "durationTicks": 16,
          "midi": 60,
          "name": "C4",
          "ticks": 30216,
          "time": 230.30477825,
          "velocity": 0.7480314960629921
        },
        {
          "duration": 0.12195116666669037,
          "durationTicks": 16,
          "midi": 72,
          "name": "C5",
          "ticks": 30216,
          "time": 230.30477825,
          "velocity": 0.7480314960629921
        },
        {
          "duration": 0.12195116666666195,
          "durationTicks": 16,
          "midi": 59,
          "name": "B3",
          "ticks": 30240,
          "time": 230.487705,
          "velocity": 0.7480314960629921
        },
        {
          "duration": 0.12195116666666195,
          "durationTicks": 16,
          "midi": 71,
          "name": "B4",
          "ticks": 30240,
          "time": 230.487705,
          "velocity": 0.7480314960629921
        },
        {
          "duration": 0.12195116666666195,
          "durationTicks": 16,
          "midi": 60,
          "name": "C4",
          "ticks": 30264,
          "time": 230.67063175,
          "velocity": 0.7480314960629921
        },
        {
          "duration": 0.12195116666666195,
          "durationTicks": 16,
          "midi": 72,
          "name": "C5",
          "ticks": 30264,
          "time": 230.67063175,
          "velocity": 0.7480314960629921
        },
        {
          "duration": 0.12195116666669037,
          "durationTicks": 16,
          "midi": 59,
          "name": "B3",
          "ticks": 30288,
          "time": 230.8535585,
          "velocity": 0.7480314960629921
        },
        {
          "duration": 0.12195116666669037,
          "durationTicks": 16,
          "midi": 71,
          "name": "B4",
          "ticks": 30288,
          "time": 230.8535585,
          "velocity": 0.7480314960629921
        },
        {
          "duration": 0.12195116666669037,
          "durationTicks": 16,
          "midi": 60,
          "name": "C4",
          "ticks": 30312,
          "time": 231.03648525,
          "velocity": 0.7480314960629921
        },
        {
          "duration": 0.12195116666669037,
          "durationTicks": 16,
          "midi": 72,
          "name": "C5",
          "ticks": 30312,
          "time": 231.03648525,
          "velocity": 0.7480314960629921
        },
        {
          "duration": 0.12195116666666195,
          "durationTicks": 16,
          "midi": 59,
          "name": "B3",
          "ticks": 30336,
          "time": 231.219412,
          "velocity": 0.7480314960629921
        },
        {
          "duration": 0.12195116666666195,
          "durationTicks": 16,
          "midi": 71,
          "name": "B4",
          "ticks": 30336,
          "time": 231.219412,
          "velocity": 0.7480314960629921
        },
        {
          "duration": 0.12195116666666195,
          "durationTicks": 16,
          "midi": 60,
          "name": "C4",
          "ticks": 30360,
          "time": 231.40233875,
          "velocity": 0.7480314960629921
        },
        {
          "duration": 0.12195116666666195,
          "durationTicks": 16,
          "midi": 72,
          "name": "C5",
          "ticks": 30360,
          "time": 231.40233875,
          "velocity": 0.7480314960629921
        },
        {
          "duration": 0.12195116666669037,
          "durationTicks": 16,
          "midi": 59,
          "name": "B3",
          "ticks": 30384,
          "time": 231.5852655,
          "velocity": 0.7480314960629921
        },
        {
          "duration": 0.12195116666669037,
          "durationTicks": 16,
          "midi": 71,
          "name": "B4",
          "ticks": 30384,
          "time": 231.5852655,
          "velocity": 0.7480314960629921
        },
        {
          "duration": 0.12195116666669037,
          "durationTicks": 16,
          "midi": 60,
          "name": "C4",
          "ticks": 30408,
          "time": 231.76819225,
          "velocity": 0.7480314960629921
        },
        {
          "duration": 0.12195116666669037,
          "durationTicks": 16,
          "midi": 72,
          "name": "C5",
          "ticks": 30408,
          "time": 231.76819225,
          "velocity": 0.7480314960629921
        },
        {
          "duration": 0.12195116666666195,
          "durationTicks": 16,
          "midi": 59,
          "name": "B3",
          "ticks": 30432,
          "time": 231.951119,
          "velocity": 0.7480314960629921
        },
        {
          "duration": 0.12195116666666195,
          "durationTicks": 16,
          "midi": 71,
          "name": "B4",
          "ticks": 30432,
          "time": 231.951119,
          "velocity": 0.7480314960629921
        },
        {
          "duration": 0.12195116666666195,
          "durationTicks": 16,
          "midi": 60,
          "name": "C4",
          "ticks": 30456,
          "time": 232.13404575,
          "velocity": 0.7480314960629921
        },
        {
          "duration": 0.12195116666666195,
          "durationTicks": 16,
          "midi": 72,
          "name": "C5",
          "ticks": 30456,
          "time": 232.13404575,
          "velocity": 0.7480314960629921
        },
        {
          "duration": 0.12195116666669037,
          "durationTicks": 16,
          "midi": 59,
          "name": "B3",
          "ticks": 30480,
          "time": 232.3169725,
          "velocity": 0.7480314960629921
        },
        {
          "duration": 0.12195116666669037,
          "durationTicks": 16,
          "midi": 71,
          "name": "B4",
          "ticks": 30480,
          "time": 232.3169725,
          "velocity": 0.7480314960629921
        },
        {
          "duration": 0.12195116666669037,
          "durationTicks": 16,
          "midi": 60,
          "name": "C4",
          "ticks": 30504,
          "time": 232.49989925,
          "velocity": 0.7480314960629921
        },
        {
          "duration": 0.12195116666669037,
          "durationTicks": 16,
          "midi": 72,
          "name": "C5",
          "ticks": 30504,
          "time": 232.49989925,
          "velocity": 0.7480314960629921
        },
        {
          "duration": 0.12195116666666195,
          "durationTicks": 16,
          "midi": 59,
          "name": "B3",
          "ticks": 30528,
          "time": 232.682826,
          "velocity": 0.7480314960629921
        },
        {
          "duration": 0.12195116666666195,
          "durationTicks": 16,
          "midi": 71,
          "name": "B4",
          "ticks": 30528,
          "time": 232.682826,
          "velocity": 0.7480314960629921
        },
        {
          "duration": 0.12195116666666195,
          "durationTicks": 16,
          "midi": 60,
          "name": "C4",
          "ticks": 30552,
          "time": 232.86575275,
          "velocity": 0.7480314960629921
        },
        {
          "duration": 0.12195116666666195,
          "durationTicks": 16,
          "midi": 72,
          "name": "C5",
          "ticks": 30552,
          "time": 232.86575275,
          "velocity": 0.7480314960629921
        },
        {
          "duration": 0.12195116666669037,
          "durationTicks": 16,
          "midi": 59,
          "name": "B3",
          "ticks": 30576,
          "time": 233.0486795,
          "velocity": 0.7480314960629921
        },
        {
          "duration": 0.12195116666669037,
          "durationTicks": 16,
          "midi": 71,
          "name": "B4",
          "ticks": 30576,
          "time": 233.0486795,
          "velocity": 0.7480314960629921
        },
        {
          "duration": 0.12195116666669037,
          "durationTicks": 16,
          "midi": 60,
          "name": "C4",
          "ticks": 30600,
          "time": 233.23160625,
          "velocity": 0.7480314960629921
        },
        {
          "duration": 0.12195116666669037,
          "durationTicks": 16,
          "midi": 72,
          "name": "C5",
          "ticks": 30600,
          "time": 233.23160625,
          "velocity": 0.7480314960629921
        },
        {
          "duration": 0.12195116666666195,
          "durationTicks": 16,
          "midi": 59,
          "name": "B3",
          "ticks": 30624,
          "time": 233.414533,
          "velocity": 0.7480314960629921
        },
        {
          "duration": 0.12195116666666195,
          "durationTicks": 16,
          "midi": 71,
          "name": "B4",
          "ticks": 30624,
          "time": 233.414533,
          "velocity": 0.7480314960629921
        },
        {
          "duration": 0.12195116666666195,
          "durationTicks": 16,
          "midi": 60,
          "name": "C4",
          "ticks": 30648,
          "time": 233.59745975,
          "velocity": 0.7480314960629921
        },
        {
          "duration": 0.12195116666666195,
          "durationTicks": 16,
          "midi": 72,
          "name": "C5",
          "ticks": 30648,
          "time": 233.59745975,
          "velocity": 0.7480314960629921
        },
        {
          "duration": 0.12195116666669037,
          "durationTicks": 16,
          "midi": 59,
          "name": "B3",
          "ticks": 30672,
          "time": 233.7803865,
          "velocity": 0.7480314960629921
        },
        {
          "duration": 0.12195116666669037,
          "durationTicks": 16,
          "midi": 71,
          "name": "B4",
          "ticks": 30672,
          "time": 233.7803865,
          "velocity": 0.7480314960629921
        },
        {
          "duration": 0.12195116666669037,
          "durationTicks": 16,
          "midi": 60,
          "name": "C4",
          "ticks": 30696,
          "time": 233.96331325,
          "velocity": 0.7480314960629921
        },
        {
          "duration": 0.12195116666669037,
          "durationTicks": 16,
          "midi": 72,
          "name": "C5",
          "ticks": 30696,
          "time": 233.96331325,
          "velocity": 0.7480314960629921
        },
        {
          "duration": 0.12195116666666195,
          "durationTicks": 16,
          "midi": 59,
          "name": "B3",
          "ticks": 30720,
          "time": 234.14624,
          "velocity": 0.7480314960629921
        },
        {
          "duration": 0.12195116666666195,
          "durationTicks": 16,
          "midi": 71,
          "name": "B4",
          "ticks": 30720,
          "time": 234.14624,
          "velocity": 0.7480314960629921
        },
        {
          "duration": 0.12195116666669037,
          "durationTicks": 16,
          "midi": 60,
          "name": "C4",
          "ticks": 30744,
          "time": 234.32916674999998,
          "velocity": 0.7480314960629921
        },
        {
          "duration": 0.12195116666669037,
          "durationTicks": 16,
          "midi": 72,
          "name": "C5",
          "ticks": 30744,
          "time": 234.32916674999998,
          "velocity": 0.7480314960629921
        },
        {
          "duration": 0.12195116666669037,
          "durationTicks": 16,
          "midi": 59,
          "name": "B3",
          "ticks": 30768,
          "time": 234.5120935,
          "velocity": 0.7480314960629921
        },
        {
          "duration": 0.12195116666669037,
          "durationTicks": 16,
          "midi": 71,
          "name": "B4",
          "ticks": 30768,
          "time": 234.5120935,
          "velocity": 0.7480314960629921
        },
        {
          "duration": 0.12195116666669037,
          "durationTicks": 16,
          "midi": 60,
          "name": "C4",
          "ticks": 30792,
          "time": 234.69502025,
          "velocity": 0.7480314960629921
        },
        {
          "duration": 0.12195116666669037,
          "durationTicks": 16,
          "midi": 72,
          "name": "C5",
          "ticks": 30792,
          "time": 234.69502025,
          "velocity": 0.7480314960629921
        },
        {
          "duration": 0.12195116666666195,
          "durationTicks": 16,
          "midi": 59,
          "name": "B3",
          "ticks": 30816,
          "time": 234.877947,
          "velocity": 0.7480314960629921
        },
        {
          "duration": 0.12195116666666195,
          "durationTicks": 16,
          "midi": 71,
          "name": "B4",
          "ticks": 30816,
          "time": 234.877947,
          "velocity": 0.7480314960629921
        },
        {
          "duration": 0.12195116666669037,
          "durationTicks": 16,
          "midi": 60,
          "name": "C4",
          "ticks": 30840,
          "time": 235.06087374999998,
          "velocity": 0.7480314960629921
        },
        {
          "duration": 0.12195116666669037,
          "durationTicks": 16,
          "midi": 72,
          "name": "C5",
          "ticks": 30840,
          "time": 235.06087374999998,
          "velocity": 0.7480314960629921
        },
        {
          "duration": 0.12195116666669037,
          "durationTicks": 16,
          "midi": 59,
          "name": "B3",
          "ticks": 30864,
          "time": 235.2438005,
          "velocity": 0.7480314960629921
        },
        {
          "duration": 0.12195116666669037,
          "durationTicks": 16,
          "midi": 71,
          "name": "B4",
          "ticks": 30864,
          "time": 235.2438005,
          "velocity": 0.7480314960629921
        },
        {
          "duration": 0.12195116666669037,
          "durationTicks": 16,
          "midi": 60,
          "name": "C4",
          "ticks": 30888,
          "time": 235.42672725,
          "velocity": 0.7480314960629921
        },
        {
          "duration": 0.12195116666669037,
          "durationTicks": 16,
          "midi": 72,
          "name": "C5",
          "ticks": 30888,
          "time": 235.42672725,
          "velocity": 0.7480314960629921
        }
      ]
    },
    {
      "channel": 0,
      "controlChanges": {
        "0": [
          {
            "number": 0,
            "ticks": 193,
            "time": 1.4710359479166666,
            "value": 0
          }
        ],
        "32": [
          {
            "number": 32,
            "ticks": 195,
            "time": 1.48627984375,
            "value": 0
          }
        ]
      },
      "pitchBends": [],
      "instrument": {
        "family": "piano",
        "number": 0,
        "name": "acoustic grand piano"
      },
      "name": "Brass",
      "notes": [],
      "endOfTrackTicks": 34492
    },
    {
      "channel": 6,
      "controlChanges": {
        "1": [
          {
            "number": 1,
            "ticks": 199,
            "time": 1.5167676354166666,
            "value": 0
          }
        ],
        "7": [
          {
            "number": 7,
            "ticks": 201,
            "time": 1.53201153125,
            "value": 0.8582677165354331
          },
          {
            "number": 7,
            "ticks": 480,
            "time": 3.658535,
            "value": 0.8582677165354331
          }
        ],
        "10": [
          {
            "number": 10,
            "ticks": 203,
            "time": 1.5472554270833334,
            "value": 0.5039370078740157
          }
        ],
        "11": [
          {
            "number": 11,
            "ticks": 205,
            "time": 1.5624993229166666,
            "value": 1
          }
        ],
        "64": [
          {
            "number": 64,
            "ticks": 207,
            "time": 1.57774321875,
            "value": 0
          },
          {
            "number": 64,
            "ticks": 14208,
            "time": 108.292636,
            "value": 1
          },
          {
            "number": 64,
            "ticks": 17472,
            "time": 133.170674,
            "value": 0
          },
          {
            "number": 64,
            "ticks": 30720,
            "time": 234.14624,
            "value": 1
          },
          {
            "number": 64,
            "ticks": 33768,
            "time": 257.37793725,
            "value": 0
          }
        ],
        "91": [
          {
            "number": 91,
            "ticks": 209,
            "time": 1.5929871145833334,
            "value": 0.5039370078740157
          }
        ],
        "93": [
          {
            "number": 93,
            "ticks": 211,
            "time": 1.6082310104166666,
            "value": 0.5039370078740157
          }
        ]
      },
      "pitchBends": [
        {
          "ticks": 213,
          "time": 1.62347490625,
          "value": 0
        }
      ],
      "instrument": {
        "family": "brass",
        "number": 61,
        "name": "brass section"
      },
      "name": "",
      "notes": [
        {
          "duration": 0.9603654375000019,
          "durationTicks": 126,
          "midi": 68,
          "name": "G#4",
          "ticks": 14400,
          "time": 109.75605,
          "velocity": 0.7480314960629921
        },
        {
          "duration": 0.9603654375000019,
          "durationTicks": 126,
          "midi": 67,
          "name": "G4",
          "ticks": 14400,
          "time": 109.75605,
          "velocity": 0.7480314960629921
        },
        {
          "duration": 0.9603654375000019,
          "durationTicks": 126,
          "midi": 40,
          "name": "E2",
          "ticks": 14400,
          "time": 109.75605,
          "velocity": 0.7480314960629921
        },
        {
          "duration": 0.2439023333333381,
          "durationTicks": 32,
          "midi": 74,
          "name": "D5",
          "ticks": 14400,
          "time": 109.75605,
          "velocity": 0.7480314960629921
        },
        {
          "duration": 0.9603654375000019,
          "durationTicks": 126,
          "midi": 52,
          "name": "E3",
          "ticks": 14406,
          "time": 109.8017816875,
          "velocity": 0.7480314960629921
        },
        {
          "duration": 0.2439023333333381,
          "durationTicks": 32,
          "midi": 74,
          "name": "D5",
          "ticks": 14448,
          "time": 110.1219035,
          "velocity": 0.7480314960629921
        },
        {
          "duration": 0.2439023333333381,
          "durationTicks": 32,
          "midi": 74,
          "name": "D5",
          "ticks": 14496,
          "time": 110.487757,
          "velocity": 0.7480314960629921
        },
        {
          "duration": 0.2439023333333381,
          "durationTicks": 32,
          "midi": 74,
          "name": "D5",
          "ticks": 14544,
          "time": 110.8536105,
          "velocity": 0.7480314960629921
        },
        {
          "duration": 0.9603654375000019,
          "durationTicks": 126,
          "midi": 69,
          "name": "A4",
          "ticks": 14592,
          "time": 111.219464,
          "velocity": 0.7480314960629921
        },
        {
          "duration": 0.9603654375000019,
          "durationTicks": 126,
          "midi": 68,
          "name": "G#4",
          "ticks": 14592,
          "time": 111.219464,
          "velocity": 0.7480314960629921
        },
        {
          "duration": 1.448170104166664,
          "durationTicks": 190,
          "midi": 41,
          "name": "F2",
          "ticks": 14592,
          "time": 111.219464,
          "velocity": 0.7480314960629921
        },
        {
          "duration": 0.2439023333333381,
          "durationTicks": 32,
          "midi": 75,
          "name": "D#5",
          "ticks": 14592,
          "time": 111.219464,
          "velocity": 0.7480314960629921
        },
        {
          "duration": 1.448170104166664,
          "durationTicks": 190,
          "midi": 53,
          "name": "F3",
          "ticks": 14598,
          "time": 111.2651956875,
          "velocity": 0.7480314960629921
        },
        {
          "duration": 0.2439023333333381,
          "durationTicks": 32,
          "midi": 76,
          "name": "E5",
          "ticks": 14640,
          "time": 111.5853175,
          "velocity": 0.7480314960629921
        },
        {
          "duration": 0.2439023333333381,
          "durationTicks": 32,
          "midi": 76,
          "name": "E5",
          "ticks": 14688,
          "time": 111.951171,
          "velocity": 0.7480314960629921
        },
        {
          "duration": 0.2439023333333381,
          "durationTicks": 32,
          "midi": 77,
          "name": "F5",
          "ticks": 14736,
          "time": 112.3170245,
          "velocity": 0.7480314960629921
        },
        {
          "duration": 0.9603654375000019,
          "durationTicks": 126,
          "midi": 70,
          "name": "A#4",
          "ticks": 14784,
          "time": 112.682878,
          "velocity": 0.7480314960629921
        },
        {
          "duration": 0.9603654375000019,
          "durationTicks": 126,
          "midi": 69,
          "name": "A4",
          "ticks": 14784,
          "time": 112.682878,
          "velocity": 0.7480314960629921
        },
        {
          "duration": 0.2439023333333381,
          "durationTicks": 32,
          "midi": 78,
          "name": "F#5",
          "ticks": 14784,
          "time": 112.682878,
          "velocity": 0.7480314960629921
        },
        {
          "duration": 0.2439023333333381,
          "durationTicks": 32,
          "midi": 78,
          "name": "F#5",
          "ticks": 14832,
          "time": 113.0487315,
          "velocity": 0.7480314960629921
        },
        {
          "duration": 0.487804666666662,
          "durationTicks": 64,
          "midi": 43,
          "name": "G2",
          "ticks": 14880,
          "time": 113.414585,
          "velocity": 0.7480314960629921
        },
        {
          "duration": 0.2439023333333381,
          "durationTicks": 32,
          "midi": 79,
          "name": "G5",
          "ticks": 14880,
          "time": 113.414585,
          "velocity": 0.7480314960629921
        },
        {
          "duration": 0.487804666666662,
          "durationTicks": 64,
          "midi": 55,
          "name": "G3",
          "ticks": 14886,
          "time": 113.4603166875,
          "velocity": 0.7480314960629921
        },
        {
          "duration": 0.2439023333333381,
          "durationTicks": 32,
          "midi": 79,
          "name": "G5",
          "ticks": 14928,
          "time": 113.7804385,
          "velocity": 0.7480314960629921
        },
        {
          "duration": 0.487804666666662,
          "durationTicks": 64,
          "midi": 73,
          "name": "C#5",
          "ticks": 14976,
          "time": 114.146292,
          "velocity": 0.7480314960629921
        },
        {
          "duration": 0.487804666666662,
          "durationTicks": 64,
          "midi": 72,
          "name": "C5",
          "ticks": 14976,
          "time": 114.146292,
          "velocity": 0.7480314960629921
        },
        {
          "duration": 1.9359747708333401,
          "durationTicks": 254,
          "midi": 44,
          "name": "G#2",
          "ticks": 14976,
          "time": 114.146292,
          "velocity": 0.7480314960629921
        },
        {
          "duration": 0.2439023333333381,
          "durationTicks": 32,
          "midi": 79,
          "name": "G5",
          "ticks": 14976,
          "time": 114.146292,
          "velocity": 0.7480314960629921
        },
        {
          "duration": 1.9359747708333401,
          "durationTicks": 254,
          "midi": 56,
          "name": "G#3",
          "ticks": 14982,
          "time": 114.1920236875,
          "velocity": 0.7480314960629921
        },
        {
          "duration": 0.2439023333333381,
          "durationTicks": 32,
          "midi": 80,
          "name": "G#5",
          "ticks": 15024,
          "time": 114.5121455,
          "velocity": 0.7480314960629921
        },
        {
          "duration": 0.7317070000000001,
          "durationTicks": 96,
          "midi": 74,
          "name": "D5",
          "ticks": 15072,
          "time": 114.877999,
          "velocity": 0.7480314960629921
        },
        {
          "duration": 0.7317070000000001,
          "durationTicks": 96,
          "midi": 73,
          "name": "C#5",
          "ticks": 15072,
          "time": 114.877999,
          "velocity": 0.7480314960629921
        },
        {
          "duration": 0.2439023333333381,
          "durationTicks": 32,
          "midi": 80,
          "name": "G#5",
          "ticks": 15072,
          "time": 114.877999,
          "velocity": 0.7480314960629921
        },
        {
          "duration": 0.2439023333333381,
          "durationTicks": 32,
          "midi": 81,
          "name": "A5",
          "ticks": 15120,
          "time": 115.2438525,
          "velocity": 0.7480314960629921
        },
        {
          "duration": 0.487804666666662,
          "durationTicks": 64,
          "midi": 74,
          "name": "D5",
          "ticks": 15168,
          "time": 115.609706,
          "velocity": 0.7480314960629921
        },
        {
          "duration": 0.487804666666662,
          "durationTicks": 64,
          "midi": 73,
          "name": "C#5",
          "ticks": 15168,
          "time": 115.609706,
          "velocity": 0.7480314960629921
        },
        {
          "duration": 0.2439023333333381,
          "durationTicks": 32,
          "midi": 81,
          "name": "A5",
          "ticks": 15168,
          "time": 115.609706,
          "velocity": 0.7480314960629921
        },
        {
          "duration": 0.2439023333333381,
          "durationTicks": 32,
          "midi": 82,
          "name": "A#5",
          "ticks": 15216,
          "time": 115.9755595,
          "velocity": 0.7480314960629921
        },
        {
          "duration": 0.7317070000000001,
          "durationTicks": 96,
          "midi": 78,
          "name": "F#5",
          "ticks": 15264,
          "time": 116.341413,
          "velocity": 0.7480314960629921
        },
        {
          "duration": 0.7317070000000001,
          "durationTicks": 96,
          "midi": 76,
          "name": "E5",
          "ticks": 15264,
          "time": 116.341413,
          "velocity": 0.7480314960629921
        },
        {
          "duration": 0.2439023333333381,
          "durationTicks": 32,
          "midi": 82,
          "name": "A#5",
          "ticks": 15264,
          "time": 116.341413,
          "velocity": 0.7480314960629921
        },
        {
          "duration": 0.2439023333333381,
          "durationTicks": 32,
          "midi": 83,
          "name": "B5",
          "ticks": 15312,
          "time": 116.7072665,
          "velocity": 0.7480314960629921
        },
        {
          "duration": 0.487804666666662,
          "durationTicks": 64,
          "midi": 76,
          "name": "E5",
          "ticks": 15360,
          "time": 117.07312,
          "velocity": 0.7480314960629921
        },
        {
          "duration": 0.487804666666662,
          "durationTicks": 64,
          "midi": 78,
          "name": "F#5",
          "ticks": 15360,
          "time": 117.07312,
          "velocity": 0.7480314960629921
        },
        {
          "duration": 0.9603654375000019,
          "durationTicks": 126,
          "midi": 45,
          "name": "A2",
          "ticks": 15360,
          "time": 117.07312,
          "velocity": 0.7480314960629921
        },
        {
          "duration": 0.2439023333333381,
          "durationTicks": 32,
          "midi": 83,
          "name": "B5",
          "ticks": 15360,
          "time": 117.07312,
          "velocity": 0.7480314960629921
        },
        {
          "duration": 0.9603654375000019,
          "durationTicks": 126,
          "midi": 57,
          "name": "A3",
          "ticks": 15366,
          "time": 117.1188516875,
          "velocity": 0.7480314960629921
        },
        {
          "duration": 0.2439023333333381,
          "durationTicks": 32,
          "midi": 83,
          "name": "B5",
          "ticks": 15408,
          "time": 117.4389735,
          "velocity": 0.7480314960629921
        },
        {
          "duration": 0,
          "durationTicks": 0,
          "midi": 78,
          "name": "F#5",
          "ticks": 15456,
          "time": 117.804827,
          "velocity": 0.7480314960629921
        },
        {
          "duration": 0.7317070000000001,
          "durationTicks": 96,
          "midi": 78,
          "name": "F#5",
          "ticks": 15456,
          "time": 117.804827,
          "velocity": 0.7480314960629921
        },
        {
          "duration": 0.2439023333333381,
          "durationTicks": 32,
          "midi": 84,
          "name": "C6",
          "ticks": 15456,
          "time": 117.804827,
          "velocity": 0.7480314960629921
        },
        {
          "duration": 0.2439023333333381,
          "durationTicks": 32,
          "midi": 84,
          "name": "C6",
          "ticks": 15504,
          "time": 118.1706805,
          "velocity": 0.7480314960629921
        },
        {
          "duration": 0,
          "durationTicks": 0,
          "midi": 78,
          "name": "F#5",
          "ticks": 15552,
          "time": 118.536534,
          "velocity": 0.7480314960629921
        },
        {
          "duration": 0.487804666666662,
          "durationTicks": 64,
          "midi": 78,
          "name": "F#5",
          "ticks": 15552,
          "time": 118.536534,
          "velocity": 0.7480314960629921
        },
        {
          "duration": 0.9603654375000019,
          "durationTicks": 126,
          "midi": 46,
          "name": "A#2",
          "ticks": 15552,
          "time": 118.536534,
          "velocity": 0.7480314960629921
        },
        {
          "duration": 0.2439023333333381,
          "durationTicks": 32,
          "midi": 85,
          "name": "C#6",
          "ticks": 15552,
          "time": 118.536534,
          "velocity": 0.7480314960629921
        },
        {
          "duration": 0.9603654375000019,
          "durationTicks": 126,
          "midi": 58,
          "name": "A#3",
          "ticks": 15558,
          "time": 118.5822656875,
          "velocity": 0.7480314960629921
        },
        {
          "duration": 0.2439023333333381,
          "durationTicks": 32,
          "midi": 85,
          "name": "C#6",
          "ticks": 15600,
          "time": 118.9023875,
          "velocity": 0.7480314960629921
        },
        {
          "duration": 0.487804666666662,
          "durationTicks": 64,
          "midi": 79,
          "name": "G5",
          "ticks": 15648,
          "time": 119.268241,
          "velocity": 0.7480314960629921
        },
        {
          "duration": 0.487804666666662,
          "durationTicks": 64,
          "midi": 78,
          "name": "F#5",
          "ticks": 15648,
          "time": 119.268241,
          "velocity": 0.7480314960629921
        },
        {
          "duration": 0.2439023333333381,
          "durationTicks": 32,
          "midi": 85,
          "name": "C#6",
          "ticks": 15648,
          "time": 119.268241,
          "velocity": 0.7480314960629921
        },
        {
          "duration": 0.2439023333333381,
          "durationTicks": 32,
          "midi": 86,
          "name": "D6",
          "ticks": 15696,
          "time": 119.6340945,
          "velocity": 0.7480314960629921
        },
        {
          "duration": 1.4481701041666497,
          "durationTicks": 190,
          "midi": 80,
          "name": "G#5",
          "ticks": 15744,
          "time": 119.999948,
          "velocity": 0.7480314960629921
        },
        {
          "duration": 1.4481701041666497,
          "durationTicks": 190,
          "midi": 79,
          "name": "G5",
          "ticks": 15744,
          "time": 119.999948,
          "velocity": 0.7480314960629921
        },
        {
          "duration": 0.9603654375000019,
          "durationTicks": 126,
          "midi": 58,
          "name": "A#3",
          "ticks": 15744,
          "time": 119.999948,
          "velocity": 0.7480314960629921
        },
        {
          "duration": 0.2439023333333381,
          "durationTicks": 32,
          "midi": 86,
          "name": "D6",
          "ticks": 15744,
          "time": 119.999948,
          "velocity": 0.7480314960629921
        },
        {
          "duration": 0.9603654375000019,
          "durationTicks": 126,
          "midi": 70,
          "name": "A#4",
          "ticks": 15750,
          "time": 120.0456796875,
          "velocity": 0.7480314960629921
        },
        {
          "duration": 0.2439023333333381,
          "durationTicks": 32,
          "midi": 87,
          "name": "D#6",
          "ticks": 15792,
          "time": 120.3658015,
          "velocity": 0.7480314960629921
        },
        {
          "duration": 0.2439023333333381,
          "durationTicks": 32,
          "midi": 87,
          "name": "D#6",
          "ticks": 15840,
          "time": 120.731655,
          "velocity": 0.7480314960629921
        },
        {
          "duration": 0.2439023333333381,
          "durationTicks": 32,
          "midi": 88,
          "name": "E6",
          "ticks": 15888,
          "time": 121.0975085,
          "velocity": 0.7480314960629921
        },
        {
          "duration": 0.9603654375000019,
          "durationTicks": 126,
          "midi": 59,
          "name": "B3",
          "ticks": 15936,
          "time": 121.463362,
          "velocity": 0.7480314960629921
        },
        {
          "duration": 0.2439023333333381,
          "durationTicks": 32,
          "midi": 88,
          "name": "E6",
          "ticks": 15936,
          "time": 121.463362,
          "velocity": 0.7480314960629921
        },
        {
          "duration": 0.9603654375000019,
          "durationTicks": 126,
          "midi": 71,
          "name": "B4",
          "ticks": 15942,
          "time": 121.5090936875,
          "velocity": 0.7480314960629921
        },
        {
          "duration": 0.2439023333333381,
          "durationTicks": 32,
          "midi": 88,
          "name": "E6",
          "ticks": 15984,
          "time": 121.8292155,
          "velocity": 0.7480314960629921
        },
        {
          "duration": 0.7317070000000001,
          "durationTicks": 96,
          "midi": 83,
          "name": "B5",
          "ticks": 16032,
          "time": 122.195069,
          "velocity": 0.7480314960629921
        },
        {
          "duration": 0.7317070000000001,
          "durationTicks": 96,
          "midi": 82,
          "name": "A#5",
          "ticks": 16032,
          "time": 122.195069,
          "velocity": 0.7480314960629921
        },
        {
          "duration": 0.2439023333333381,
          "durationTicks": 32,
          "midi": 89,
          "name": "F6",
          "ticks": 16032,
          "time": 122.195069,
          "velocity": 0.7480314960629921
        },
        {
          "duration": 0.2439023333333381,
          "durationTicks": 32,
          "midi": 89,
          "name": "F6",
          "ticks": 16080,
          "time": 122.5609225,
          "velocity": 0.7480314960629921
        },
        {
          "duration": 0.487804666666662,
          "durationTicks": 64,
          "midi": 83,
          "name": "B5",
          "ticks": 16128,
          "time": 122.926776,
          "velocity": 0.7480314960629921
        },
        {
          "duration": 0.487804666666662,
          "durationTicks": 64,
          "midi": 82,
          "name": "A#5",
          "ticks": 16128,
          "time": 122.926776,
          "velocity": 0.7480314960629921
        },
        {
          "duration": 0.487804666666662,
          "durationTicks": 64,
          "midi": 60,
          "name": "C4",
          "ticks": 16128,
          "time": 122.926776,
          "velocity": 0.7480314960629921
        },
        {
          "duration": 0.2439023333333381,
          "durationTicks": 32,
          "midi": 90,
          "name": "F#6",
          "ticks": 16128,
          "time": 122.926776,
          "velocity": 0.7480314960629921
        },
        {
          "duration": 0.487804666666662,
          "durationTicks": 64,
          "midi": 72,
          "name": "C5",
          "ticks": 16134,
          "time": 122.9725076875,
          "velocity": 0.7480314960629921
        },
        {
          "duration": 0.2439023333333381,
          "durationTicks": 32,
          "midi": 90,
          "name": "F#6",
          "ticks": 16176,
          "time": 123.2926295,
          "velocity": 0.7480314960629921
        },
        {
          "duration": 0.7317070000000001,
          "durationTicks": 96,
          "midi": 84,
          "name": "C6",
          "ticks": 16224,
          "time": 123.658483,
          "velocity": 0.7480314960629921
        },
        {
          "duration": 0.7317070000000001,
          "durationTicks": 96,
          "midi": 83,
          "name": "B5",
          "ticks": 16224,
          "time": 123.658483,
          "velocity": 0.7480314960629921
        },
        {
          "duration": 0.7317070000000001,
          "durationTicks": 96,
          "midi": 61,
          "name": "C#4",
          "ticks": 16224,
          "time": 123.658483,
          "velocity": 0.7480314960629921
        },
        {
          "duration": 0.2439023333333381,
          "durationTicks": 32,
          "midi": 90,
          "name": "F#6",
          "ticks": 16224,
          "time": 123.658483,
          "velocity": 0.7480314960629921
        },
        {
          "duration": 0.7317070000000001,
          "durationTicks": 96,
          "midi": 73,
          "name": "C#5",
          "ticks": 16230,
          "time": 123.7042146875,
          "velocity": 0.7480314960629921
        },
        {
          "duration": 0.2439023333333381,
          "durationTicks": 32,
          "midi": 91,
          "name": "G6",
          "ticks": 16272,
          "time": 124.0243365,
          "velocity": 0.7480314960629921
        },
        {
          "duration": 0.487804666666662,
          "durationTicks": 64,
          "midi": 84,
          "name": "C6",
          "ticks": 16320,
          "time": 124.39019,
          "velocity": 0.7480314960629921
        },
        {
          "duration": 0.487804666666662,
          "durationTicks": 64,
          "midi": 83,
          "name": "B5",
          "ticks": 16320,
          "time": 124.39019,
          "velocity": 0.7480314960629921
        },
        {
          "duration": 0.9603654375000019,
          "durationTicks": 126,
          "midi": 61,
          "name": "C#4",
          "ticks": 16320,
          "time": 124.39019,
          "velocity": 0.7480314960629921
        },
        {
          "duration": 0.2439023333333381,
          "durationTicks": 32,
          "midi": 91,
          "name": "G6",
          "ticks": 16320,
          "time": 124.39019,
          "velocity": 0.7480314960629921
        },
        {
          "duration": 0.9603654375000019,
          "durationTicks": 126,
          "midi": 73,
          "name": "C#5",
          "ticks": 16326,
          "time": 124.4359216875,
          "velocity": 0.7480314960629921
        },
        {
          "duration": 0.2439023333333381,
          "durationTicks": 32,
          "midi": 91,
          "name": "G6",
          "ticks": 16368,
          "time": 124.7560435,
          "velocity": 0.7480314960629921
        },
        {
          "duration": 0.7317070000000001,
          "durationTicks": 96,
          "midi": 86,
          "name": "D6",
          "ticks": 16416,
          "time": 125.121897,
          "velocity": 0.7480314960629921
        },
        {
          "duration": 0.7317070000000001,
          "durationTicks": 96,
          "midi": 85,
          "name": "C#6",
          "ticks": 16416,
          "time": 125.121897,
          "velocity": 0.7480314960629921
        },
        {
          "duration": 0.2439023333333381,
          "durationTicks": 32,
          "midi": 92,
          "name": "G#6",
          "ticks": 16416,
          "time": 125.121897,
          "velocity": 0.7480314960629921
        },
        {
          "duration": 0.2439023333333381,
          "durationTicks": 32,
          "midi": 92,
          "name": "G#6",
          "ticks": 16464,
          "time": 125.4877505,
          "velocity": 0.7480314960629921
        },
        {
          "duration": 0.4878046666666478,
          "durationTicks": 64,
          "midi": 86,
          "name": "D6",
          "ticks": 16512,
          "time": 125.853604,
          "velocity": 0.7480314960629921
        },
        {
          "duration": 0.4878046666666478,
          "durationTicks": 64,
          "midi": 85,
          "name": "C#6",
          "ticks": 16512,
          "time": 125.853604,
          "velocity": 0.7480314960629921
        },
        {
          "duration": 1.4481701041666497,
          "durationTicks": 190,
          "midi": 62,
          "name": "D4",
          "ticks": 16512,
          "time": 125.853604,
          "velocity": 0.7480314960629921
        },
        {
          "duration": 0.2439023333333381,
          "durationTicks": 32,
          "midi": 93,
          "name": "A6",
          "ticks": 16512,
          "time": 125.853604,
          "velocity": 0.7480314960629921
        },
        {
          "duration": 1.448170104166664,
          "durationTicks": 190,
          "midi": 74,
          "name": "D5",
          "ticks": 16518,
          "time": 125.8993356875,
          "velocity": 0.7480314960629921
        },
        {
          "duration": 0.2439023333333381,
          "durationTicks": 32,
          "midi": 93,
          "name": "A6",
          "ticks": 16560,
          "time": 126.2194575,
          "velocity": 0.7480314960629921
        },
        {
          "duration": 0.7317070000000001,
          "durationTicks": 96,
          "midi": 87,
          "name": "D#6",
          "ticks": 16608,
          "time": 126.585311,
          "velocity": 0.7480314960629921
        },
        {
          "duration": 0.7317070000000001,
          "durationTicks": 96,
          "midi": 86,
          "name": "D6",
          "ticks": 16608,
          "time": 126.585311,
          "velocity": 0.7480314960629921
        },
        {
          "duration": 0.2439023333333381,
          "durationTicks": 32,
          "midi": 93,
          "name": "A6",
          "ticks": 16608,
          "time": 126.585311,
          "velocity": 0.7480314960629921
        },
        {
          "duration": 0.2439023333333381,
          "durationTicks": 32,
          "midi": 94,
          "name": "A#6",
          "ticks": 16656,
          "time": 126.9511645,
          "velocity": 0.7480314960629921
        },
        {
          "duration": 0.9603654374999877,
          "durationTicks": 126,
          "midi": 87,
          "name": "D#6",
          "ticks": 16704,
          "time": 127.317018,
          "velocity": 0.7480314960629921
        },
        {
          "duration": 0.9603654374999877,
          "durationTicks": 126,
          "midi": 86,
          "name": "D6",
          "ticks": 16704,
          "time": 127.317018,
          "velocity": 0.7480314960629921
        },
        {
          "duration": 0.2439023333333381,
          "durationTicks": 32,
          "midi": 94,
          "name": "A#6",
          "ticks": 16704,
          "time": 127.317018,
          "velocity": 0.7480314960629921
        },
        {
          "duration": 0.2439023333333381,
          "durationTicks": 32,
          "midi": 94,
          "name": "A#6",
          "ticks": 16752,
          "time": 127.6828715,
          "velocity": 0.7480314960629921
        },
        {
          "duration": 0.4878046666666762,
          "durationTicks": 64,
          "midi": 63,
          "name": "D#4",
          "ticks": 16800,
          "time": 128.048725,
          "velocity": 0.7480314960629921
        },
        {
          "duration": 0.24390233333335232,
          "durationTicks": 32,
          "midi": 95,
          "name": "B6",
          "ticks": 16800,
          "time": 128.048725,
          "velocity": 0.7480314960629921
        },
        {
          "duration": 0.4878046666666478,
          "durationTicks": 64,
          "midi": 75,
          "name": "D#5",
          "ticks": 16806,
          "time": 128.0944566875,
          "velocity": 0.7480314960629921
        },
        {
          "duration": 0.2439023333333239,
          "durationTicks": 32,
          "midi": 95,
          "name": "B6",
          "ticks": 16848,
          "time": 128.4145785,
          "velocity": 0.7480314960629921
        },
        {
          "duration": 0.4878046666666762,
          "durationTicks": 64,
          "midi": 90,
          "name": "F#6",
          "ticks": 16896,
          "time": 128.780432,
          "velocity": 0.7480314960629921
        },
        {
          "duration": 0.4878046666666762,
          "durationTicks": 64,
          "midi": 89,
          "name": "F6",
          "ticks": 16896,
          "time": 128.780432,
          "velocity": 0.7480314960629921
        },
        {
          "duration": 1.9359747708333543,
          "durationTicks": 254,
          "midi": 63,
          "name": "D#4",
          "ticks": 16896,
          "time": 128.780432,
          "velocity": 0.7480314960629921
        },
        {
          "duration": 0.24390233333335232,
          "durationTicks": 32,
          "midi": 96,
          "name": "C7",
          "ticks": 16896,
          "time": 128.780432,
          "velocity": 0.7480314960629921
        },
        {
          "duration": 1.9359747708333543,
          "durationTicks": 254,
          "midi": 75,
          "name": "D#5",
          "ticks": 16902,
          "time": 128.82616368749999,
          "velocity": 0.7480314960629921
        },
        {
          "duration": 0.2439023333333239,
          "durationTicks": 32,
          "midi": 96,
          "name": "C7",
          "ticks": 16944,
          "time": 129.1462855,
          "velocity": 0.7480314960629921
        },
        {
          "duration": 0.7317070000000001,
          "durationTicks": 96,
          "midi": 91,
          "name": "G6",
          "ticks": 16992,
          "time": 129.512139,
          "velocity": 0.7480314960629921
        },
        {
          "duration": 0.7317070000000001,
          "durationTicks": 96,
          "midi": 90,
          "name": "F#6",
          "ticks": 16992,
          "time": 129.512139,
          "velocity": 0.7480314960629921
        },
        {
          "duration": 0.24390233333335232,
          "durationTicks": 32,
          "midi": 97,
          "name": "C#7",
          "ticks": 16992,
          "time": 129.512139,
          "velocity": 0.7480314960629921
        },
        {
          "duration": 0.2439023333333239,
          "durationTicks": 32,
          "midi": 97,
          "name": "C#7",
          "ticks": 17040,
          "time": 129.8779925,
          "velocity": 0.7480314960629921
        },
        {
          "duration": 0.4878046666666762,
          "durationTicks": 64,
          "midi": 91,
          "name": "G6",
          "ticks": 17088,
          "time": 130.243846,
          "velocity": 0.7480314960629921
        },
        {
          "duration": 0.4878046666666762,
          "durationTicks": 64,
          "midi": 90,
          "name": "F#6",
          "ticks": 17088,
          "time": 130.243846,
          "velocity": 0.7480314960629921
        },
        {
          "duration": 0.24390233333335232,
          "durationTicks": 32,
          "midi": 98,
          "name": "D7",
          "ticks": 17088,
          "time": 130.243846,
          "velocity": 0.7480314960629921
        },
        {
          "duration": 0.2439023333333239,
          "durationTicks": 32,
          "midi": 98,
          "name": "D7",
          "ticks": 17136,
          "time": 130.6096995,
          "velocity": 0.7480314960629921
        },
        {
          "duration": 0.4878046666666762,
          "durationTicks": 64,
          "midi": 93,
          "name": "A6",
          "ticks": 17184,
          "time": 130.975553,
          "velocity": 0.7480314960629921
        },
        {
          "duration": 0.24390233333335232,
          "durationTicks": 32,
          "midi": 99,
          "name": "D#7",
          "ticks": 17184,
          "time": 130.975553,
          "velocity": 0.7480314960629921
        },
        {
          "duration": 0.2439023333333239,
          "durationTicks": 32,
          "midi": 99,
          "name": "D#7",
          "ticks": 17232,
          "time": 131.3414065,
          "velocity": 0.7480314960629921
        },
        {
          "duration": 0.4878046666666762,
          "durationTicks": 64,
          "midi": 88,
          "name": "E6",
          "ticks": 17280,
          "time": 131.70726,
          "velocity": 0.7480314960629921
        },
        {
          "duration": 0.4878046666666762,
          "durationTicks": 64,
          "midi": 64,
          "name": "E4",
          "ticks": 17280,
          "time": 131.70726,
          "velocity": 0.7480314960629921
        },
        {
          "duration": 0.4878046666666762,
          "durationTicks": 64,
          "midi": 52,
          "name": "E3",
          "ticks": 17280,
          "time": 131.70726,
          "velocity": 0.7480314960629921
        },
        {
          "duration": 0.4878046666666762,
          "durationTicks": 64,
          "midi": 100,
          "name": "E7",
          "ticks": 17280,
          "time": 131.70726,
          "velocity": 0.7480314960629921
        },
        {
          "duration": 1.9359747708333543,
          "durationTicks": 254,
          "midi": 55,
          "name": "G3",
          "ticks": 22080,
          "time": 168.29261,
          "velocity": 0.7480314960629921
        },
        {
          "duration": 1.9359747708333543,
          "durationTicks": 254,
          "midi": 43,
          "name": "G2",
          "ticks": 22080,
          "time": 168.29261,
          "velocity": 0.7480314960629921
        },
        {
          "duration": 1.9359747708333543,
          "durationTicks": 254,
          "midi": 67,
          "name": "G4",
          "ticks": 22080,
          "time": 168.29261,
          "velocity": 0.7480314960629921
        },
        {
          "duration": 1.9359747708333543,
          "durationTicks": 254,
          "midi": 50,
          "name": "D3",
          "ticks": 22464,
          "time": 171.219438,
          "velocity": 0.7480314960629921
        },
        {
          "duration": 1.9359747708333543,
          "durationTicks": 254,
          "midi": 38,
          "name": "D2",
          "ticks": 22464,
          "time": 171.219438,
          "velocity": 0.7480314960629921
        },
        {
          "duration": 1.9359747708333543,
          "durationTicks": 254,
          "midi": 62,
          "name": "D4",
          "ticks": 22464,
          "time": 171.219438,
          "velocity": 0.7480314960629921
        },
        {
          "duration": 1.9359747708333543,
          "durationTicks": 254,
          "midi": 45,
          "name": "A2",
          "ticks": 22848,
          "time": 174.146266,
          "velocity": 0.7480314960629921
        },
        {
          "duration": 1.9359747708333543,
          "durationTicks": 254,
          "midi": 33,
          "name": "A1",
          "ticks": 22848,
          "time": 174.146266,
          "velocity": 0.7480314960629921
        },
        {
          "duration": 1.9359747708333543,
          "durationTicks": 254,
          "midi": 57,
          "name": "A3",
          "ticks": 22848,
          "time": 174.146266,
          "velocity": 0.7480314960629921
        },
        {
          "duration": 1.9359747708333543,
          "durationTicks": 254,
          "midi": 52,
          "name": "E3",
          "ticks": 23232,
          "time": 177.073094,
          "velocity": 0.7480314960629921
        },
        {
          "duration": 1.9359747708333543,
          "durationTicks": 254,
          "midi": 40,
          "name": "E2",
          "ticks": 23232,
          "time": 177.073094,
          "velocity": 0.7480314960629921
        },
        {
          "duration": 1.9359747708333543,
          "durationTicks": 254,
          "midi": 64,
          "name": "E4",
          "ticks": 23232,
          "time": 177.073094,
          "velocity": 0.7480314960629921
        },
        {
          "duration": 1.9359747708333543,
          "durationTicks": 254,
          "midi": 48,
          "name": "C3",
          "ticks": 23616,
          "time": 179.999922,
          "velocity": 0.7480314960629921
        },
        {
          "duration": 1.9359747708333543,
          "durationTicks": 254,
          "midi": 36,
          "name": "C2",
          "ticks": 23616,
          "time": 179.999922,
          "velocity": 0.7480314960629921
        },
        {
          "duration": 1.9359747708333543,
          "durationTicks": 254,
          "midi": 60,
          "name": "C4",
          "ticks": 23616,
          "time": 179.999922,
          "velocity": 0.7480314960629921
        },
        {
          "duration": 1.9359747708333543,
          "durationTicks": 254,
          "midi": 55,
          "name": "G3",
          "ticks": 24000,
          "time": 182.92675,
          "velocity": 0.7480314960629921
        },
        {
          "duration": 1.9359747708333543,
          "durationTicks": 254,
          "midi": 43,
          "name": "G2",
          "ticks": 24000,
          "time": 182.92675,
          "velocity": 0.7480314960629921
        },
        {
          "duration": 1.9359747708333543,
          "durationTicks": 254,
          "midi": 67,
          "name": "G4",
          "ticks": 24000,
          "time": 182.92675,
          "velocity": 0.7480314960629921
        },
        {
          "duration": 1.935974770833326,
          "durationTicks": 254,
          "midi": 50,
          "name": "D3",
          "ticks": 24384,
          "time": 185.853578,
          "velocity": 0.7480314960629921
        },
        {
          "duration": 1.935974770833326,
          "durationTicks": 254,
          "midi": 38,
          "name": "D2",
          "ticks": 24384,
          "time": 185.853578,
          "velocity": 0.7480314960629921
        },
        {
          "duration": 1.935974770833326,
          "durationTicks": 254,
          "midi": 62,
          "name": "D4",
          "ticks": 24384,
          "time": 185.853578,
          "velocity": 0.7480314960629921
        },
        {
          "duration": 1.935974770833326,
          "durationTicks": 254,
          "midi": 57,
          "name": "A3",
          "ticks": 24768,
          "time": 188.780406,
          "velocity": 0.7480314960629921
        },
        {
          "duration": 1.935974770833326,
          "durationTicks": 254,
          "midi": 45,
          "name": "A2",
          "ticks": 24768,
          "time": 188.780406,
          "velocity": 0.7480314960629921
        },
        {
          "duration": 1.935974770833326,
          "durationTicks": 254,
          "midi": 33,
          "name": "A1",
          "ticks": 24768,
          "time": 188.780406,
          "velocity": 0.7480314960629921
        },
        {
          "duration": 1.935974770833326,
          "durationTicks": 254,
          "midi": 69,
          "name": "A4",
          "ticks": 24768,
          "time": 188.780406,
          "velocity": 0.7480314960629921
        },
        {
          "duration": 0.7317070000000001,
          "durationTicks": 96,
          "midi": 52,
          "name": "E3",
          "ticks": 25152,
          "time": 191.707234,
          "velocity": 0.8740157480314961
        },
        {
          "duration": 0.7317070000000001,
          "durationTicks": 96,
          "midi": 40,
          "name": "E2",
          "ticks": 25152,
          "time": 191.707234,
          "velocity": 0.8740157480314961
        },
        {
          "duration": 0.7317070000000001,
          "durationTicks": 96,
          "midi": 64,
          "name": "E4",
          "ticks": 25152,
          "time": 191.707234,
          "velocity": 0.8740157480314961
        },
        {
          "duration": 0.2439023333333239,
          "durationTicks": 32,
          "midi": 50,
          "name": "D3",
          "ticks": 25296,
          "time": 192.80479449999999,
          "velocity": 0.8740157480314961
        },
        {
          "duration": 0.2439023333333239,
          "durationTicks": 32,
          "midi": 38,
          "name": "D2",
          "ticks": 25296,
          "time": 192.80479449999999,
          "velocity": 0.8740157480314961
        },
        {
          "duration": 0.2439023333333239,
          "durationTicks": 32,
          "midi": 62,
          "name": "D4",
          "ticks": 25296,
          "time": 192.80479449999999,
          "velocity": 0.8740157480314961
        },
        {
          "duration": 0.7317070000000001,
          "durationTicks": 96,
          "midi": 48,
          "name": "C3",
          "ticks": 25344,
          "time": 193.170648,
          "velocity": 0.8740157480314961
        },
        {
          "duration": 0.7317070000000001,
          "durationTicks": 96,
          "midi": 36,
          "name": "C2",
          "ticks": 25344,
          "time": 193.170648,
          "velocity": 0.8740157480314961
        },
        {
          "duration": 0.7317070000000001,
          "durationTicks": 96,
          "midi": 60,
          "name": "C4",
          "ticks": 25344,
          "time": 193.170648,
          "velocity": 0.8740157480314961
        },
        {
          "duration": 0.2439023333333239,
          "durationTicks": 32,
          "midi": 38,
          "name": "D2",
          "ticks": 25488,
          "time": 194.2682085,
          "velocity": 0.8740157480314961
        },
        {
          "duration": 0.2439023333333239,
          "durationTicks": 32,
          "midi": 50,
          "name": "D3",
          "ticks": 25488,
          "time": 194.2682085,
          "velocity": 0.8740157480314961
        },
        {
          "duration": 1.4481701041666781,
          "durationTicks": 190,
          "midi": 63,
          "name": "D#4",
          "ticks": 30912,
          "time": 235.609654,
          "velocity": 0.7480314960629921
        },
        {
          "duration": 1.4481701041666781,
          "durationTicks": 190,
          "midi": 62,
          "name": "D4",
          "ticks": 30912,
          "time": 235.609654,
          "velocity": 0.7480314960629921
        },
        {
          "duration": 0.9603654375000019,
          "durationTicks": 126,
          "midi": 40,
          "name": "E2",
          "ticks": 30912,
          "time": 235.609654,
          "velocity": 0.7480314960629921
        },
        {
          "duration": 0.2439023333333239,
          "durationTicks": 32,
          "midi": 71,
          "name": "B4",
          "ticks": 30912,
          "time": 235.609654,
          "velocity": 0.7480314960629921
        },
        {
          "duration": 0.9603654375000019,
          "durationTicks": 126,
          "midi": 52,
          "name": "E3",
          "ticks": 30918,
          "time": 235.6553856875,
          "velocity": 0.7480314960629921
        },
        {
          "duration": 0.2439023333333239,
          "durationTicks": 32,
          "midi": 71,
          "name": "B4",
          "ticks": 30960,
          "time": 235.9755075,
          "velocity": 0.7480314960629921
        },
        {
          "duration": 0.2439023333333239,
          "durationTicks": 32,
          "midi": 72,
          "name": "C5",
          "ticks": 31008,
          "time": 236.341361,
          "velocity": 0.7480314960629921
        },
        {
          "duration": 0.2439023333333239,
          "durationTicks": 32,
          "midi": 72,
          "name": "C5",
          "ticks": 31056,
          "time": 236.7072145,
          "velocity": 0.7480314960629921
        },
        {
          "duration": 0.9603654375000019,
          "durationTicks": 126,
          "midi": 41,
          "name": "F2",
          "ticks": 31104,
          "time": 237.073068,
          "velocity": 0.7480314960629921
        },
        {
          "duration": 0.2439023333333239,
          "durationTicks": 32,
          "midi": 72,
          "name": "C5",
          "ticks": 31104,
          "time": 237.073068,
          "velocity": 0.7480314960629921
        },
        {
          "duration": 0.9603654375000019,
          "durationTicks": 126,
          "midi": 53,
          "name": "F3",
          "ticks": 31110,
          "time": 237.1187996875,
          "velocity": 0.7480314960629921
        },
        {
          "duration": 0.2439023333333239,
          "durationTicks": 32,
          "midi": 72,
          "name": "C5",
          "ticks": 31152,
          "time": 237.4389215,
          "velocity": 0.7480314960629921
        },
        {
          "duration": 0.7317070000000001,
          "durationTicks": 96,
          "midi": 66,
          "name": "F#4",
          "ticks": 31200,
          "time": 237.804775,
          "velocity": 0.7480314960629921
        },
        {
          "duration": 0.7317070000000001,
          "durationTicks": 96,
          "midi": 65,
          "name": "F4",
          "ticks": 31200,
          "time": 237.804775,
          "velocity": 0.7480314960629921
        },
        {
          "duration": 0.2439023333333239,
          "durationTicks": 32,
          "midi": 72,
          "name": "C5",
          "ticks": 31200,
          "time": 237.804775,
          "velocity": 0.7480314960629921
        },
        {
          "duration": 0.2439023333333239,
          "durationTicks": 32,
          "midi": 72,
          "name": "C5",
          "ticks": 31248,
          "time": 238.1706285,
          "velocity": 0.7480314960629921
        },
        {
          "duration": 0.4878046666666762,
          "durationTicks": 64,
          "midi": 65,
          "name": "F4",
          "ticks": 31296,
          "time": 238.536482,
          "velocity": 0.7480314960629921
        },
        {
          "duration": 0.4878046666666762,
          "durationTicks": 64,
          "midi": 66,
          "name": "F#4",
          "ticks": 31296,
          "time": 238.536482,
          "velocity": 0.7480314960629921
        },
        {
          "duration": 0.4725607708333257,
          "durationTicks": 62,
          "midi": 42,
          "name": "F#2",
          "ticks": 31296,
          "time": 238.536482,
          "velocity": 0.7480314960629921
        },
        {
          "duration": 0.2439023333333239,
          "durationTicks": 32,
          "midi": 72,
          "name": "C5",
          "ticks": 31296,
          "time": 238.536482,
          "velocity": 0.7480314960629921
        },
        {
          "duration": 0.4725607708333257,
          "durationTicks": 62,
          "midi": 54,
          "name": "F#3",
          "ticks": 31302,
          "time": 238.5822136875,
          "velocity": 0.7480314960629921
        },
        {
          "duration": 0.2439023333333239,
          "durationTicks": 32,
          "midi": 73,
          "name": "C#5",
          "ticks": 31344,
          "time": 238.9023355,
          "velocity": 0.7480314960629921
        },
        {
          "duration": 0.7317070000000001,
          "durationTicks": 96,
          "midi": 67,
          "name": "G4",
          "ticks": 31392,
          "time": 239.268189,
          "velocity": 0.7480314960629921
        },
        {
          "duration": 0.7317070000000001,
          "durationTicks": 96,
          "midi": 66,
          "name": "F#4",
          "ticks": 31392,
          "time": 239.268189,
          "velocity": 0.7480314960629921
        },
        {
          "duration": 0.7317070000000001,
          "durationTicks": 96,
          "midi": 43,
          "name": "G2",
          "ticks": 31392,
          "time": 239.268189,
          "velocity": 0.7480314960629921
        },
        {
          "duration": 0.2439023333333239,
          "durationTicks": 32,
          "midi": 73,
          "name": "C#5",
          "ticks": 31392,
          "time": 239.268189,
          "velocity": 0.7480314960629921
        },
        {
          "duration": 0.7317070000000001,
          "durationTicks": 96,
          "midi": 55,
          "name": "G3",
          "ticks": 31398,
          "time": 239.3139206875,
          "velocity": 0.7480314960629921
        },
        {
          "duration": 0.2439023333333239,
          "durationTicks": 32,
          "midi": 73,
          "name": "C#5",
          "ticks": 31440,
          "time": 239.6340425,
          "velocity": 0.7480314960629921
        },
        {
          "duration": 0.4878046666666762,
          "durationTicks": 64,
          "midi": 67,
          "name": "G4",
          "ticks": 31488,
          "time": 239.999896,
          "velocity": 0.7480314960629921
        },
        {
          "duration": 0.4878046666666762,
          "durationTicks": 64,
          "midi": 66,
          "name": "F#4",
          "ticks": 31488,
          "time": 239.999896,
          "velocity": 0.7480314960629921
        },
        {
          "duration": 0.4878046666666762,
          "durationTicks": 64,
          "midi": 43,
          "name": "G2",
          "ticks": 31488,
          "time": 239.999896,
          "velocity": 0.7480314960629921
        },
        {
          "duration": 0.2439023333333239,
          "durationTicks": 32,
          "midi": 73,
          "name": "C#5",
          "ticks": 31488,
          "time": 239.999896,
          "velocity": 0.7480314960629921
        },
        {
          "duration": 0.4878046666666762,
          "durationTicks": 64,
          "midi": 55,
          "name": "G3",
          "ticks": 31494,
          "time": 240.0456276875,
          "velocity": 0.7480314960629921
        },
        {
          "duration": 0.2439023333333239,
          "durationTicks": 32,
          "midi": 74,
          "name": "D5",
          "ticks": 31536,
          "time": 240.3657495,
          "velocity": 0.7480314960629921
        },
        {
          "duration": 0.7317070000000001,
          "durationTicks": 96,
          "midi": 68,
          "name": "G#4",
          "ticks": 31584,
          "time": 240.731603,
          "velocity": 0.7480314960629921
        },
        {
          "duration": 0.7317070000000001,
          "durationTicks": 96,
          "midi": 67,
          "name": "G4",
          "ticks": 31584,
          "time": 240.731603,
          "velocity": 0.7480314960629921
        },
        {
          "duration": 0.4878046666666762,
          "durationTicks": 64,
          "midi": 44,
          "name": "G#2",
          "ticks": 31584,
          "time": 240.731603,
          "velocity": 0.7480314960629921
        },
        {
          "duration": 0.2439023333333239,
          "durationTicks": 32,
          "midi": 74,
          "name": "D5",
          "ticks": 31584,
          "time": 240.731603,
          "velocity": 0.7480314960629921
        },
        {
          "duration": 0.4878046666666762,
          "durationTicks": 64,
          "midi": 56,
          "name": "G#3",
          "ticks": 31590,
          "time": 240.7773346875,
          "velocity": 0.7480314960629921
        },
        {
          "duration": 0.2439023333333239,
          "durationTicks": 32,
          "midi": 74,
          "name": "D5",
          "ticks": 31632,
          "time": 241.0974565,
          "velocity": 0.7480314960629921
        },
        {
          "duration": 0.9451215416666798,
          "durationTicks": 124,
          "midi": 67,
          "name": "G4",
          "ticks": 31680,
          "time": 241.46331,
          "velocity": 0.7480314960629921
        },
        {
          "duration": 0.9603654375000019,
          "durationTicks": 126,
          "midi": 68,
          "name": "G#4",
          "ticks": 31680,
          "time": 241.46331,
          "velocity": 0.7480314960629921
        },
        {
          "duration": 1.4481701041666781,
          "durationTicks": 190,
          "midi": 44,
          "name": "G#2",
          "ticks": 31680,
          "time": 241.46331,
          "velocity": 0.7480314960629921
        },
        {
          "duration": 0.2439023333333239,
          "durationTicks": 32,
          "midi": 74,
          "name": "D5",
          "ticks": 31680,
          "time": 241.46331,
          "velocity": 0.7480314960629921
        },
        {
          "duration": 1.4481701041666781,
          "durationTicks": 190,
          "midi": 56,
          "name": "G#3",
          "ticks": 31686,
          "time": 241.5090416875,
          "velocity": 0.7480314960629921
        },
        {
          "duration": 0.2439023333333239,
          "durationTicks": 32,
          "midi": 74,
          "name": "D5",
          "ticks": 31728,
          "time": 241.8291635,
          "velocity": 0.7480314960629921
        },
        {
          "duration": 0.2439023333333239,
          "durationTicks": 32,
          "midi": 75,
          "name": "D#5",
          "ticks": 31776,
          "time": 242.195017,
          "velocity": 0.7480314960629921
        },
        {
          "duration": 0.2439023333333239,
          "durationTicks": 32,
          "midi": 75,
          "name": "D#5",
          "ticks": 31824,
          "time": 242.5608705,
          "velocity": 0.7480314960629921
        },
        {
          "duration": 1.4634140000000002,
          "durationTicks": 192,
          "midi": 69,
          "name": "A4",
          "ticks": 31872,
          "time": 242.926724,
          "velocity": 0.7480314960629921
        },
        {
          "duration": 1.4634140000000002,
          "durationTicks": 192,
          "midi": 68,
          "name": "G#4",
          "ticks": 31872,
          "time": 242.926724,
          "velocity": 0.7480314960629921
        },
        {
          "duration": 0.2439023333333239,
          "durationTicks": 32,
          "midi": 75,
          "name": "D#5",
          "ticks": 31872,
          "time": 242.926724,
          "velocity": 0.7480314960629921
        },
        {
          "duration": 0.2439023333333239,
          "durationTicks": 32,
          "midi": 76,
          "name": "E5",
          "ticks": 31920,
          "time": 243.2925775,
          "velocity": 0.7480314960629921
        },
        {
          "duration": 0.4878046666666762,
          "durationTicks": 64,
          "midi": 45,
          "name": "A2",
          "ticks": 31968,
          "time": 243.658431,
          "velocity": 0.7480314960629921
        },
        {
          "duration": 0.2439023333333239,
          "durationTicks": 32,
          "midi": 76,
          "name": "E5",
          "ticks": 31968,
          "time": 243.658431,
          "velocity": 0.7480314960629921
        },
        {
          "duration": 0.4878046666666762,
          "durationTicks": 64,
          "midi": 57,
          "name": "A3",
          "ticks": 31974,
          "time": 243.7041626875,
          "velocity": 0.7480314960629921
        },
        {
          "duration": 0.2439023333333239,
          "durationTicks": 32,
          "midi": 76,
          "name": "E5",
          "ticks": 32016,
          "time": 244.0242845,
          "velocity": 0.7480314960629921
        },
        {
          "duration": 0.4878046666666762,
          "durationTicks": 64,
          "midi": 68,
          "name": "G#4",
          "ticks": 32064,
          "time": 244.390138,
          "velocity": 0.7480314960629921
        },
        {
          "duration": 0.4878046666666762,
          "durationTicks": 64,
          "midi": 69,
          "name": "A4",
          "ticks": 32064,
          "time": 244.390138,
          "velocity": 0.7480314960629921
        },
        {
          "duration": 0.9451215416666798,
          "durationTicks": 124,
          "midi": 45,
          "name": "A2",
          "ticks": 32064,
          "time": 244.390138,
          "velocity": 0.7480314960629921
        },
        {
          "duration": 0.2439023333333239,
          "durationTicks": 32,
          "midi": 76,
          "name": "E5",
          "ticks": 32064,
          "time": 244.390138,
          "velocity": 0.7480314960629921
        },
        {
          "duration": 0.9451215416666798,
          "durationTicks": 124,
          "midi": 57,
          "name": "A3",
          "ticks": 32070,
          "time": 244.4358696875,
          "velocity": 0.7480314960629921
        },
        {
          "duration": 0.2439023333333239,
          "durationTicks": 32,
          "midi": 76,
          "name": "E5",
          "ticks": 32112,
          "time": 244.7559915,
          "velocity": 0.7480314960629921
        },
        {
          "duration": 0.7317070000000001,
          "durationTicks": 96,
          "midi": 70,
          "name": "A#4",
          "ticks": 32160,
          "time": 245.121845,
          "velocity": 0.7480314960629921
        },
        {
          "duration": 0.7317070000000001,
          "durationTicks": 96,
          "midi": 69,
          "name": "A4",
          "ticks": 32160,
          "time": 245.121845,
          "velocity": 0.7480314960629921
        },
        {
          "duration": 0.2439023333333239,
          "durationTicks": 32,
          "midi": 78,
          "name": "F#5",
          "ticks": 32160,
          "time": 245.121845,
          "velocity": 0.7480314960629921
        },
        {
          "duration": 0.2439023333333239,
          "durationTicks": 32,
          "midi": 78,
          "name": "F#5",
          "ticks": 32208,
          "time": 245.4876985,
          "velocity": 0.7480314960629921
        },
        {
          "duration": 0.4878046666666762,
          "durationTicks": 64,
          "midi": 70,
          "name": "A#4",
          "ticks": 32256,
          "time": 245.853552,
          "velocity": 0.7480314960629921
        },
        {
          "duration": 0.4878046666666762,
          "durationTicks": 64,
          "midi": 69,
          "name": "A4",
          "ticks": 32256,
          "time": 245.853552,
          "velocity": 0.7480314960629921
        },
        {
          "duration": 0.9451215416666798,
          "durationTicks": 124,
          "midi": 46,
          "name": "A#2",
          "ticks": 32256,
          "time": 245.853552,
          "velocity": 0.7480314960629921
        },
        {
          "duration": 0.2439023333333239,
          "durationTicks": 32,
          "midi": 78,
          "name": "F#5",
          "ticks": 32256,
          "time": 245.853552,
          "velocity": 0.7480314960629921
        },
        {
          "duration": 0.9451215416666798,
          "durationTicks": 124,
          "midi": 58,
          "name": "A#3",
          "ticks": 32262,
          "time": 245.8992836875,
          "velocity": 0.7480314960629921
        },
        {
          "duration": 0.2439023333333239,
          "durationTicks": 32,
          "midi": 78,
          "name": "F#5",
          "ticks": 32304,
          "time": 246.2194055,
          "velocity": 0.7480314960629921
        },
        {
          "duration": 0.7317070000000001,
          "durationTicks": 96,
          "midi": 72,
          "name": "C5",
          "ticks": 32352,
          "time": 246.585259,
          "velocity": 0.7480314960629921
        },
        {
          "duration": 0.7317070000000001,
          "durationTicks": 96,
          "midi": 71,
          "name": "B4",
          "ticks": 32352,
          "time": 246.585259,
          "velocity": 0.7480314960629921
        },
        {
          "duration": 0.2439023333333239,
          "durationTicks": 32,
          "midi": 78,
          "name": "F#5",
          "ticks": 32352,
          "time": 246.585259,
          "velocity": 0.7480314960629921
        },
        {
          "duration": 0.2439023333333239,
          "durationTicks": 32,
          "midi": 78,
          "name": "F#5",
          "ticks": 32400,
          "time": 246.9511125,
          "velocity": 0.7480314960629921
        },
        {
          "duration": 0.9603654375000019,
          "durationTicks": 126,
          "midi": 71,
          "name": "B4",
          "ticks": 32448,
          "time": 247.316966,
          "velocity": 0.7480314960629921
        },
        {
          "duration": 0.9603654375000019,
          "durationTicks": 126,
          "midi": 72,
          "name": "C5",
          "ticks": 32448,
          "time": 247.316966,
          "velocity": 0.7480314960629921
        },
        {
          "duration": 1.4329262083332992,
          "durationTicks": 188,
          "midi": 48,
          "name": "C3",
          "ticks": 32448,
          "time": 247.316966,
          "velocity": 0.7480314960629921
        },
        {
          "duration": 0.2439023333333239,
          "durationTicks": 32,
          "midi": 79,
          "name": "G5",
          "ticks": 32448,
          "time": 247.316966,
          "velocity": 0.7480314960629921
        },
        {
          "duration": 1.4329262083333276,
          "durationTicks": 188,
          "midi": 60,
          "name": "C4",
          "ticks": 32454,
          "time": 247.3626976875,
          "velocity": 0.7480314960629921
        },
        {
          "duration": 0.2439023333333239,
          "durationTicks": 32,
          "midi": 79,
          "name": "G5",
          "ticks": 32496,
          "time": 247.6828195,
          "velocity": 0.7480314960629921
        },
        {
          "duration": 0.2439023333333239,
          "durationTicks": 32,
          "midi": 79,
          "name": "G5",
          "ticks": 32544,
          "time": 248.048673,
          "velocity": 0.7480314960629921
        },
        {
          "duration": 0.2439023333333239,
          "durationTicks": 32,
          "midi": 80,
          "name": "G#5",
          "ticks": 32592,
          "time": 248.4145265,
          "velocity": 0.7480314960629921
        },
        {
          "duration": 0.9451215416666798,
          "durationTicks": 124,
          "midi": 74,
          "name": "D5",
          "ticks": 32640,
          "time": 248.78038,
          "velocity": 0.7480314960629921
        },
        {
          "duration": 0.9451215416666798,
          "durationTicks": 124,
          "midi": 73,
          "name": "C#5",
          "ticks": 32640,
          "time": 248.78038,
          "velocity": 0.7480314960629921
        },
        {
          "duration": 0.2439023333333239,
          "durationTicks": 32,
          "midi": 80,
          "name": "G#5",
          "ticks": 32640,
          "time": 248.78038,
          "velocity": 0.7480314960629921
        },
        {
          "duration": 0.2439023333333239,
          "durationTicks": 32,
          "midi": 80,
          "name": "G#5",
          "ticks": 32688,
          "time": 249.1462335,
          "velocity": 0.7480314960629921
        },
        {
          "duration": 0.4725607708332973,
          "durationTicks": 62,
          "midi": 49,
          "name": "C#3",
          "ticks": 32736,
          "time": 249.512087,
          "velocity": 0.7480314960629921
        },
        {
          "duration": 0.2439023333333239,
          "durationTicks": 32,
          "midi": 80,
          "name": "G#5",
          "ticks": 32736,
          "time": 249.512087,
          "velocity": 0.7480314960629921
        },
        {
          "duration": 0.4725607708333257,
          "durationTicks": 62,
          "midi": 61,
          "name": "C#4",
          "ticks": 32742,
          "time": 249.5578186875,
          "velocity": 0.7480314960629921
        },
        {
          "duration": 0.2439023333333239,
          "durationTicks": 32,
          "midi": 81,
          "name": "A5",
          "ticks": 32784,
          "time": 249.8779405,
          "velocity": 0.7480314960629921
        },
        {
          "duration": 0.4878046666666762,
          "durationTicks": 64,
          "midi": 75,
          "name": "D#5",
          "ticks": 32832,
          "time": 250.243794,
          "velocity": 0.7480314960629921
        },
        {
          "duration": 0.4878046666666762,
          "durationTicks": 64,
          "midi": 74,
          "name": "D5",
          "ticks": 32832,
          "time": 250.243794,
          "velocity": 0.7480314960629921
        },
        {
          "duration": 0.9451215416666798,
          "durationTicks": 124,
          "midi": 49,
          "name": "C#3",
          "ticks": 32832,
          "time": 250.243794,
          "velocity": 0.7480314960629921
        },
        {
          "duration": 0.2439023333333239,
          "durationTicks": 32,
          "midi": 81,
          "name": "A5",
          "ticks": 32832,
          "time": 250.243794,
          "velocity": 0.7480314960629921
        },
        {
          "duration": 0.9451215416666798,
          "durationTicks": 124,
          "midi": 61,
          "name": "C#4",
          "ticks": 32838,
          "time": 250.2895256875,
          "velocity": 0.7480314960629921
        },
        {
          "duration": 0.2439023333333239,
          "durationTicks": 32,
          "midi": 81,
          "name": "A5",
          "ticks": 32880,
          "time": 250.6096475,
          "velocity": 0.7480314960629921
        },
        {
          "duration": 0.7317070000000001,
          "durationTicks": 96,
          "midi": 76,
          "name": "E5",
          "ticks": 32928,
          "time": 250.975501,
          "velocity": 0.7480314960629921
        },
        {
          "duration": 0.7317070000000001,
          "durationTicks": 96,
          "midi": 75,
          "name": "D#5",
          "ticks": 32928,
          "time": 250.975501,
          "velocity": 0.7480314960629921
        },
        {
          "duration": 0.2439023333333239,
          "durationTicks": 32,
          "midi": 82,
          "name": "A#5",
          "ticks": 32928,
          "time": 250.975501,
          "velocity": 0.7480314960629921
        },
        {
          "duration": 0.2439023333333239,
          "durationTicks": 32,
          "midi": 82,
          "name": "A#5",
          "ticks": 32976,
          "time": 251.3413545,
          "velocity": 0.7480314960629921
        },
        {
          "duration": 0.4878046666666762,
          "durationTicks": 64,
          "midi": 76,
          "name": "E5",
          "ticks": 33024,
          "time": 251.707208,
          "velocity": 0.7480314960629921
        },
        {
          "duration": 0.4878046666666762,
          "durationTicks": 64,
          "midi": 75,
          "name": "D#5",
          "ticks": 33024,
          "time": 251.707208,
          "velocity": 0.7480314960629921
        },
        {
          "duration": 0.9451215416666798,
          "durationTicks": 124,
          "midi": 50,
          "name": "D3",
          "ticks": 33024,
          "time": 251.707208,
          "velocity": 0.7480314960629921
        },
        {
          "duration": 0.2439023333333239,
          "durationTicks": 32,
          "midi": 83,
          "name": "B5",
          "ticks": 33024,
          "time": 251.707208,
          "velocity": 0.7480314960629921
        },
        {
          "duration": 0.9451215416666798,
          "durationTicks": 124,
          "midi": 62,
          "name": "D4",
          "ticks": 33030,
          "time": 251.7529396875,
          "velocity": 0.7480314960629921
        },
        {
          "duration": 0.2439023333333239,
          "durationTicks": 32,
          "midi": 83,
          "name": "B5",
          "ticks": 33072,
          "time": 252.0730615,
          "velocity": 0.7480314960629921
        },
        {
          "duration": 0.7317070000000001,
          "durationTicks": 96,
          "midi": 78,
          "name": "F#5",
          "ticks": 33120,
          "time": 252.438915,
          "velocity": 0.7480314960629921
        },
        {
          "duration": 0.7317070000000001,
          "durationTicks": 96,
          "midi": 76,
          "name": "E5",
          "ticks": 33120,
          "time": 252.438915,
          "velocity": 0.7480314960629921
        },
        {
          "duration": 0.24390233333329547,
          "durationTicks": 32,
          "midi": 83,
          "name": "B5",
          "ticks": 33120,
          "time": 252.438915,
          "velocity": 0.7480314960629921
        },
        {
          "duration": 0.2439023333333239,
          "durationTicks": 32,
          "midi": 84,
          "name": "C6",
          "ticks": 33168,
          "time": 252.8047685,
          "velocity": 0.7480314960629921
        },
        {
          "duration": 0.9603654375000019,
          "durationTicks": 126,
          "midi": 76,
          "name": "E5",
          "ticks": 33216,
          "time": 253.170622,
          "velocity": 0.7480314960629921
        },
        {
          "duration": 0.9603654375000019,
          "durationTicks": 126,
          "midi": 78,
          "name": "F#5",
          "ticks": 33216,
          "time": 253.170622,
          "velocity": 0.7480314960629921
        },
        {
          "duration": 1.9054869791666817,
          "durationTicks": 250,
          "midi": 51,
          "name": "D#3",
          "ticks": 33216,
          "time": 253.170622,
          "velocity": 0.7480314960629921
        },
        {
          "duration": 0.24390233333329547,
          "durationTicks": 32,
          "midi": 84,
          "name": "C6",
          "ticks": 33216,
          "time": 253.170622,
          "velocity": 0.7480314960629921
        },
        {
          "duration": 1.9054869791666817,
          "durationTicks": 250,
          "midi": 63,
          "name": "D#4",
          "ticks": 33222,
          "time": 253.2163536875,
          "velocity": 0.7480314960629921
        },
        {
          "duration": 0.2439023333333239,
          "durationTicks": 32,
          "midi": 84,
          "name": "C6",
          "ticks": 33264,
          "time": 253.5364755,
          "velocity": 0.7480314960629921
        },
        {
          "duration": 0.24390233333329547,
          "durationTicks": 32,
          "midi": 85,
          "name": "C#6",
          "ticks": 33312,
          "time": 253.902329,
          "velocity": 0.7480314960629921
        },
        {
          "duration": 0.2439023333333239,
          "durationTicks": 32,
          "midi": 85,
          "name": "C#6",
          "ticks": 33360,
          "time": 254.2681825,
          "velocity": 0.7480314960629921
        },
        {
          "duration": 0.4878046666666762,
          "durationTicks": 64,
          "midi": 79,
          "name": "G5",
          "ticks": 33408,
          "time": 254.634036,
          "velocity": 0.7480314960629921
        },
        {
          "duration": 0.4878046666666762,
          "durationTicks": 64,
          "midi": 78,
          "name": "F#5",
          "ticks": 33408,
          "time": 254.634036,
          "velocity": 0.7480314960629921
        },
        {
          "duration": 0.24390233333329547,
          "durationTicks": 32,
          "midi": 85,
          "name": "C#6",
          "ticks": 33408,
          "time": 254.634036,
          "velocity": 0.7480314960629921
        },
        {
          "duration": 0.2439023333333239,
          "durationTicks": 32,
          "midi": 86,
          "name": "D6",
          "ticks": 33456,
          "time": 254.9998895,
          "velocity": 0.7480314960629921
        },
        {
          "duration": 0.7317069999999717,
          "durationTicks": 96,
          "midi": 81,
          "name": "A5",
          "ticks": 33504,
          "time": 255.365743,
          "velocity": 0.7480314960629921
        },
        {
          "duration": 0.7317069999999717,
          "durationTicks": 96,
          "midi": 78,
          "name": "F#5",
          "ticks": 33504,
          "time": 255.365743,
          "velocity": 0.7480314960629921
        },
        {
          "duration": 0.24390233333329547,
          "durationTicks": 32,
          "midi": 86,
          "name": "D6",
          "ticks": 33504,
          "time": 255.365743,
          "velocity": 0.7480314960629921
        },
        {
          "duration": 0.2439023333333239,
          "durationTicks": 32,
          "midi": 86,
          "name": "D6",
          "ticks": 33552,
          "time": 255.7315965,
          "velocity": 0.7480314960629921
        },
        {
          "duration": 0.9603654375000019,
          "durationTicks": 126,
          "midi": 78,
          "name": "F#5",
          "ticks": 33600,
          "time": 256.09745,
          "velocity": 0.7480314960629921
        },
        {
          "duration": 0.9451215416667083,
          "durationTicks": 124,
          "midi": 81,
          "name": "A5",
          "ticks": 33600,
          "time": 256.09745,
          "velocity": 0.7480314960629921
        },
        {
          "duration": 0.9451215416667083,
          "durationTicks": 124,
          "midi": 51,
          "name": "D#3",
          "ticks": 33600,
          "time": 256.09745,
          "velocity": 0.7480314960629921
        },
        {
          "duration": 0.2439023333333239,
          "durationTicks": 32,
          "midi": 87,
          "name": "D#6",
          "ticks": 33600,
          "time": 256.09745,
          "velocity": 0.7480314960629921
        },
        {
          "duration": 0.9451215416667083,
          "durationTicks": 124,
          "midi": 63,
          "name": "D#4",
          "ticks": 33606,
          "time": 256.1431816875,
          "velocity": 0.7480314960629921
        },
        {
          "duration": 0.2439023333333239,
          "durationTicks": 32,
          "midi": 87,
          "name": "D#6",
          "ticks": 33648,
          "time": 256.4633035,
          "velocity": 0.7480314960629921
        },
        {
          "duration": 0.2439023333333239,
          "durationTicks": 32,
          "midi": 87,
          "name": "D#6",
          "ticks": 33696,
          "time": 256.829157,
          "velocity": 0.7480314960629921
        },
        {
          "duration": 0.24390233333326705,
          "durationTicks": 32,
          "midi": 87,
          "name": "D#6",
          "ticks": 33744,
          "time": 257.1950105,
          "velocity": 0.7480314960629921
        },
        {
          "duration": 0.4725607708333541,
          "durationTicks": 62,
          "midi": 76,
          "name": "E5",
          "ticks": 33792,
          "time": 257.560864,
          "velocity": 1
        },
        {
          "duration": 0.4725607708333541,
          "durationTicks": 62,
          "midi": 52,
          "name": "E3",
          "ticks": 33792,
          "time": 257.560864,
          "velocity": 1
        },
        {
          "duration": 0.4725607708333541,
          "durationTicks": 62,
          "midi": 40,
          "name": "E2",
          "ticks": 33792,
          "time": 257.560864,
          "velocity": 1
        },
        {
          "duration": 0.4725607708333541,
          "durationTicks": 62,
          "midi": 88,
          "name": "E6",
          "ticks": 33792,
          "time": 257.560864,
          "velocity": 1
        },
        {
          "duration": 3.8719495416667087,
          "durationTicks": 508,
          "midi": 64,
          "name": "E4",
          "ticks": 33984,
          "time": 259.024278,
          "velocity": 0.7480314960629921
        },
        {
          "duration": 3.8719495416667087,
          "durationTicks": 508,
          "midi": 52,
          "name": "E3",
          "ticks": 33984,
          "time": 259.024278,
          "velocity": 0.7480314960629921
        },
        {
          "duration": 3.8719495416667087,
          "durationTicks": 508,
          "midi": 40,
          "name": "E2",
          "ticks": 33984,
          "time": 259.024278,
          "velocity": 0.7480314960629921
        },
        {
          "duration": 3.8719495416667087,
          "durationTicks": 508,
          "midi": 76,
          "name": "E5",
          "ticks": 33984,
          "time": 259.024278,
          "velocity": 0.7480314960629921
        }
      ]
    },
    {
      "channel": 0,
      "controlChanges": {
        "1": [
          {
            "number": 1,
            "ticks": 199,
            "time": 1.5167676354166666,
            "value": 0
          }
        ],
        "7": [
          {
            "number": 7,
            "ticks": 201,
            "time": 1.53201153125,
            "value": 0.7559055118110236
          }
        ],
        "10": [
          {
            "number": 10,
            "ticks": 203,
            "time": 1.5472554270833334,
            "value": 0.5039370078740157
          },
          {
            "number": 10,
            "ticks": 213,
            "time": 1.62347490625,
            "value": 0.5039370078740157
          }
        ],
        "11": [
          {
            "number": 11,
            "ticks": 205,
            "time": 1.5624993229166666,
            "value": 1
          }
        ],
        "32": [
          {
            "number": 32,
            "ticks": 195,
            "time": 1.48627984375,
            "value": 0
          }
        ],
        "64": [
          {
            "number": 64,
            "ticks": 207,
            "time": 1.57774321875,
            "value": 0
          }
        ],
        "91": [
          {
            "number": 91,
            "ticks": 209,
            "time": 1.5929871145833334,
            "value": 0
          }
        ],
        "93": [
          {
            "number": 93,
            "ticks": 211,
            "time": 1.6082310104166666,
            "value": 0
          }
        ]
      },
      "pitchBends": [
        {
          "ticks": 213,
          "time": 1.62347490625,
          "value": 0
        }
      ],
      "instrument": {
        "family": "piano",
        "number": 0,
        "name": "acoustic grand piano"
      },
      "name": "Unnamed",
      "notes": [],
      "endOfTrackTicks": 213
    },
    {
      "channel": 0,
      "controlChanges": {
        "1": [
          {
            "number": 1,
            "ticks": 199,
            "time": 1.5167676354166666,
            "value": 0
          }
        ],
        "7": [
          {
            "number": 7,
            "ticks": 201,
            "time": 1.53201153125,
            "value": 0.7559055118110236
          }
        ],
        "10": [
          {
            "number": 10,
            "ticks": 203,
            "time": 1.5472554270833334,
            "value": 0.5039370078740157
          },
          {
            "number": 10,
            "ticks": 213,
            "time": 1.62347490625,
            "value": 0.5039370078740157
          }
        ],
        "11": [
          {
            "number": 11,
            "ticks": 205,
            "time": 1.5624993229166666,
            "value": 1
          }
        ],
        "32": [
          {
            "number": 32,
            "ticks": 195,
            "time": 1.48627984375,
            "value": 0
          }
        ],
        "64": [
          {
            "number": 64,
            "ticks": 207,
            "time": 1.57774321875,
            "value": 0
          }
        ],
        "91": [
          {
            "number": 91,
            "ticks": 209,
            "time": 1.5929871145833334,
            "value": 0
          }
        ],
        "93": [
          {
            "number": 93,
            "ticks": 211,
            "time": 1.6082310104166666,
            "value": 0
          }
        ]
      },
      "pitchBends": [
        {
          "ticks": 213,
          "time": 1.62347490625,
          "value": 0
        }
      ],
      "instrument": {
        "family": "piano",
        "number": 0,
        "name": "acoustic grand piano"
      },
      "name": "Norma Wms.",
      "notes": [],
      "endOfTrackTicks": 213
    },
    {
      "channel": 9,
      "controlChanges": {
        "0": [
          {
            "number": 0,
            "ticks": 193,
            "time": 1.4710359479166666,
            "value": 0
          }
        ],
        "1": [
          {
            "number": 1,
            "ticks": 199,
            "time": 1.5167676354166666,
            "value": 0
          }
        ],
        "7": [
          {
            "number": 7,
            "ticks": 201,
            "time": 1.53201153125,
            "value": 0.7559055118110236
          }
        ],
        "10": [
          {
            "number": 10,
            "ticks": 203,
            "time": 1.5472554270833334,
            "value": 0.5039370078740157
          }
        ],
        "11": [
          {
            "number": 11,
            "ticks": 205,
            "time": 1.5624993229166666,
            "value": 1
          }
        ],
        "32": [
          {
            "number": 32,
            "ticks": 195,
            "time": 1.48627984375,
            "value": 0
          }
        ],
        "64": [
          {
            "number": 64,
            "ticks": 207,
            "time": 1.57774321875,
            "value": 0
          }
        ],
        "91": [
          {
            "number": 91,
            "ticks": 209,
            "time": 1.5929871145833334,
            "value": 0.5039370078740157
          }
        ],
        "93": [
          {
            "number": 93,
            "ticks": 211,
            "time": 1.6082310104166666,
            "value": 0.5039370078740157
          }
        ]
      },
      "pitchBends": [
        {
          "ticks": 213,
          "time": 1.62347490625,
          "value": 0
        }
      ],
      "instrument": {
        "family": "drums",
        "number": 0,
        "name": "standard kit"
      },
      "name": "Rhythm&SE",
      "notes": [
        {
          "duration": 0.24390233333333278,
          "durationTicks": 32,
          "midi": 70,
          "name": "A#4",
          "ticks": 1920,
          "time": 14.63414,
          "velocity": 0.6220472440944882
        },
        {
          "duration": 0.24390233333333278,
          "durationTicks": 32,
          "midi": 70,
          "name": "A#4",
          "ticks": 1968,
          "time": 14.9999935,
          "velocity": 0.6220472440944882
        },
        {
          "duration": 0.24390233333333278,
          "durationTicks": 32,
          "midi": 70,
          "name": "A#4",
          "ticks": 2016,
          "time": 15.365847,
          "velocity": 0.6220472440944882
        },
        {
          "duration": 0.243902333333331,
          "durationTicks": 32,
          "midi": 70,
          "name": "A#4",
          "ticks": 2064,
          "time": 15.7317005,
          "velocity": 0.6220472440944882
        },
        {
          "duration": 0.24390233333333455,
          "durationTicks": 32,
          "midi": 70,
          "name": "A#4",
          "ticks": 2112,
          "time": 16.097554,
          "velocity": 0.6220472440944882
        },
        {
          "duration": 0.24390233333333455,
          "durationTicks": 32,
          "midi": 70,
          "name": "A#4",
          "ticks": 2160,
          "time": 16.4634075,
          "velocity": 0.6220472440944882
        },
        {
          "duration": 0.24390233333333455,
          "durationTicks": 32,
          "midi": 70,
          "name": "A#4",
          "ticks": 2208,
          "time": 16.829261,
          "velocity": 0.6220472440944882
        },
        {
          "duration": 0.24390233333333455,
          "durationTicks": 32,
          "midi": 70,
          "name": "A#4",
          "ticks": 2256,
          "time": 17.1951145,
          "velocity": 0.6220472440944882
        },
        {
          "duration": 0.24390233333333455,
          "durationTicks": 32,
          "midi": 70,
          "name": "A#4",
          "ticks": 2304,
          "time": 17.560968,
          "velocity": 0.6220472440944882
        },
        {
          "duration": 0.24390233333333455,
          "durationTicks": 32,
          "midi": 70,
          "name": "A#4",
          "ticks": 2352,
          "time": 17.9268215,
          "velocity": 0.6220472440944882
        },
        {
          "duration": 0.24390233333333455,
          "durationTicks": 32,
          "midi": 70,
          "name": "A#4",
          "ticks": 2400,
          "time": 18.292675,
          "velocity": 0.6220472440944882
        },
        {
          "duration": 0.24390233333333455,
          "durationTicks": 32,
          "midi": 70,
          "name": "A#4",
          "ticks": 2448,
          "time": 18.6585285,
          "velocity": 0.6220472440944882
        },
        {
          "duration": 0.24390233333333455,
          "durationTicks": 32,
          "midi": 70,
          "name": "A#4",
          "ticks": 2496,
          "time": 19.024382,
          "velocity": 0.6220472440944882
        },
        {
          "duration": 0.24390233333333455,
          "durationTicks": 32,
          "midi": 70,
          "name": "A#4",
          "ticks": 2544,
          "time": 19.3902355,
          "velocity": 0.6220472440944882
        },
        {
          "duration": 0.24390233333333455,
          "durationTicks": 32,
          "midi": 70,
          "name": "A#4",
          "ticks": 2592,
          "time": 19.756089,
          "velocity": 0.6220472440944882
        },
        {
          "duration": 0.24390233333333455,
          "durationTicks": 32,
          "midi": 70,
          "name": "A#4",
          "ticks": 2640,
          "time": 20.1219425,
          "velocity": 0.6220472440944882
        },
        {
          "duration": 0.24390233333333455,
          "durationTicks": 32,
          "midi": 70,
          "name": "A#4",
          "ticks": 2688,
          "time": 20.487796,
          "velocity": 0.6220472440944882
        },
        {
          "duration": 0.24390233333333455,
          "durationTicks": 32,
          "midi": 70,
          "name": "A#4",
          "ticks": 2736,
          "time": 20.8536495,
          "velocity": 0.6220472440944882
        },
        {
          "duration": 0.24390233333333455,
          "durationTicks": 32,
          "midi": 70,
          "name": "A#4",
          "ticks": 2784,
          "time": 21.219503,
          "velocity": 0.6220472440944882
        },
        {
          "duration": 0.243902333333331,
          "durationTicks": 32,
          "midi": 70,
          "name": "A#4",
          "ticks": 2832,
          "time": 21.5853565,
          "velocity": 0.6220472440944882
        },
        {
          "duration": 0.243902333333331,
          "durationTicks": 32,
          "midi": 70,
          "name": "A#4",
          "ticks": 2880,
          "time": 21.95121,
          "velocity": 0.6220472440944882
        },
        {
          "duration": 0.243902333333331,
          "durationTicks": 32,
          "midi": 70,
          "name": "A#4",
          "ticks": 2928,
          "time": 22.3170635,
          "velocity": 0.6220472440944882
        },
        {
          "duration": 0.243902333333331,
          "durationTicks": 32,
          "midi": 70,
          "name": "A#4",
          "ticks": 2976,
          "time": 22.682917,
          "velocity": 0.6220472440944882
        },
        {
          "duration": 0.243902333333331,
          "durationTicks": 32,
          "midi": 70,
          "name": "A#4",
          "ticks": 3024,
          "time": 23.0487705,
          "velocity": 0.6220472440944882
        },
        {
          "duration": 0.24390233333333455,
          "durationTicks": 32,
          "midi": 70,
          "name": "A#4",
          "ticks": 3072,
          "time": 23.414624,
          "velocity": 0.6220472440944882
        },
        {
          "duration": 0.24390233333333455,
          "durationTicks": 32,
          "midi": 70,
          "name": "A#4",
          "ticks": 3120,
          "time": 23.7804775,
          "velocity": 0.6220472440944882
        },
        {
          "duration": 0.24390233333333455,
          "durationTicks": 32,
          "midi": 70,
          "name": "A#4",
          "ticks": 3168,
          "time": 24.146331,
          "velocity": 0.6220472440944882
        },
        {
          "duration": 0.24390233333333455,
          "durationTicks": 32,
          "midi": 70,
          "name": "A#4",
          "ticks": 3216,
          "time": 24.5121845,
          "velocity": 0.6220472440944882
        },
        {
          "duration": 0.24390233333333455,
          "durationTicks": 32,
          "midi": 70,
          "name": "A#4",
          "ticks": 3264,
          "time": 24.878038,
          "velocity": 0.6220472440944882
        },
        {
          "duration": 0.24390233333333455,
          "durationTicks": 32,
          "midi": 70,
          "name": "A#4",
          "ticks": 3312,
          "time": 25.2438915,
          "velocity": 0.6220472440944882
        },
        {
          "duration": 0.24390233333333455,
          "durationTicks": 32,
          "midi": 70,
          "name": "A#4",
          "ticks": 3360,
          "time": 25.609745,
          "velocity": 0.6220472440944882
        },
        {
          "duration": 0.24390233333333455,
          "durationTicks": 32,
          "midi": 70,
          "name": "A#4",
          "ticks": 3408,
          "time": 25.9755985,
          "velocity": 0.6220472440944882
        },
        {
          "duration": 0.24390233333333455,
          "durationTicks": 32,
          "midi": 70,
          "name": "A#4",
          "ticks": 3456,
          "time": 26.341452,
          "velocity": 0.6220472440944882
        },
        {
          "duration": 0.24390233333333455,
          "durationTicks": 32,
          "midi": 70,
          "name": "A#4",
          "ticks": 3504,
          "time": 26.7073055,
          "velocity": 0.6220472440944882
        },
        {
          "duration": 0.24390233333333455,
          "durationTicks": 32,
          "midi": 70,
          "name": "A#4",
          "ticks": 3552,
          "time": 27.073159,
          "velocity": 0.6220472440944882
        },
        {
          "duration": 0.24390233333333455,
          "durationTicks": 32,
          "midi": 70,
          "name": "A#4",
          "ticks": 3600,
          "time": 27.4390125,
          "velocity": 0.6220472440944882
        },
        {
          "duration": 0.24390233333333455,
          "durationTicks": 32,
          "midi": 70,
          "name": "A#4",
          "ticks": 3648,
          "time": 27.804866,
          "velocity": 0.6220472440944882
        },
        {
          "duration": 0.24390233333333455,
          "durationTicks": 32,
          "midi": 70,
          "name": "A#4",
          "ticks": 3696,
          "time": 28.1707195,
          "velocity": 0.6220472440944882
        },
        {
          "duration": 0.24390233333333455,
          "durationTicks": 32,
          "midi": 70,
          "name": "A#4",
          "ticks": 3744,
          "time": 28.536573,
          "velocity": 0.6220472440944882
        },
        {
          "duration": 0.24390233333333455,
          "durationTicks": 32,
          "midi": 70,
          "name": "A#4",
          "ticks": 3792,
          "time": 28.9024265,
          "velocity": 0.6220472440944882
        },
        {
          "duration": 0.24390233333333455,
          "durationTicks": 32,
          "midi": 70,
          "name": "A#4",
          "ticks": 3840,
          "time": 29.26828,
          "velocity": 0.6220472440944882
        },
        {
          "duration": 0.24390233333333455,
          "durationTicks": 32,
          "midi": 70,
          "name": "A#4",
          "ticks": 3888,
          "time": 29.6341335,
          "velocity": 0.6220472440944882
        },
        {
          "duration": 0.24390233333333455,
          "durationTicks": 32,
          "midi": 70,
          "name": "A#4",
          "ticks": 3936,
          "time": 29.999987,
          "velocity": 0.6220472440944882
        },
        {
          "duration": 0.24390233333333455,
          "durationTicks": 32,
          "midi": 70,
          "name": "A#4",
          "ticks": 3984,
          "time": 30.3658405,
          "velocity": 0.6220472440944882
        },
        {
          "duration": 0.24390233333333455,
          "durationTicks": 32,
          "midi": 70,
          "name": "A#4",
          "ticks": 4032,
          "time": 30.731694,
          "velocity": 0.6220472440944882
        },
        {
          "duration": 0.24390233333333455,
          "durationTicks": 32,
          "midi": 70,
          "name": "A#4",
          "ticks": 4080,
          "time": 31.0975475,
          "velocity": 0.6220472440944882
        },
        {
          "duration": 0.24390233333333455,
          "durationTicks": 32,
          "midi": 70,
          "name": "A#4",
          "ticks": 4128,
          "time": 31.463401,
          "velocity": 0.6220472440944882
        },
        {
          "duration": 0.24390233333333455,
          "durationTicks": 32,
          "midi": 70,
          "name": "A#4",
          "ticks": 4176,
          "time": 31.8292545,
          "velocity": 0.6220472440944882
        },
        {
          "duration": 0.2439023333333381,
          "durationTicks": 32,
          "midi": 70,
          "name": "A#4",
          "ticks": 4224,
          "time": 32.195108,
          "velocity": 0.6220472440944882
        },
        {
          "duration": 0.2439023333333381,
          "durationTicks": 32,
          "midi": 70,
          "name": "A#4",
          "ticks": 4272,
          "time": 32.5609615,
          "velocity": 0.6220472440944882
        },
        {
          "duration": 0.2439023333333381,
          "durationTicks": 32,
          "midi": 70,
          "name": "A#4",
          "ticks": 4320,
          "time": 32.926815,
          "velocity": 0.6220472440944882
        },
        {
          "duration": 0.2439023333333381,
          "durationTicks": 32,
          "midi": 70,
          "name": "A#4",
          "ticks": 4368,
          "time": 33.2926685,
          "velocity": 0.6220472440944882
        },
        {
          "duration": 0.2439023333333381,
          "durationTicks": 32,
          "midi": 70,
          "name": "A#4",
          "ticks": 4416,
          "time": 33.658522,
          "velocity": 0.6220472440944882
        },
        {
          "duration": 0.2439023333333381,
          "durationTicks": 32,
          "midi": 70,
          "name": "A#4",
          "ticks": 4464,
          "time": 34.0243755,
          "velocity": 0.6220472440944882
        },
        {
          "duration": 0.2439023333333381,
          "durationTicks": 32,
          "midi": 70,
          "name": "A#4",
          "ticks": 4512,
          "time": 34.390229,
          "velocity": 0.6220472440944882
        },
        {
          "duration": 0.2439023333333381,
          "durationTicks": 32,
          "midi": 70,
          "name": "A#4",
          "ticks": 4560,
          "time": 34.7560825,
          "velocity": 0.6220472440944882
        },
        {
          "duration": 0.2439023333333381,
          "durationTicks": 32,
          "midi": 70,
          "name": "A#4",
          "ticks": 4608,
          "time": 35.121936,
          "velocity": 0.6220472440944882
        },
        {
          "duration": 0.2439023333333381,
          "durationTicks": 32,
          "midi": 70,
          "name": "A#4",
          "ticks": 4656,
          "time": 35.4877895,
          "velocity": 0.6220472440944882
        },
        {
          "duration": 0.2439023333333381,
          "durationTicks": 32,
          "midi": 70,
          "name": "A#4",
          "ticks": 4704,
          "time": 35.853643,
          "velocity": 0.6220472440944882
        },
        {
          "duration": 0.2439023333333381,
          "durationTicks": 32,
          "midi": 70,
          "name": "A#4",
          "ticks": 4752,
          "time": 36.2194965,
          "velocity": 0.6220472440944882
        },
        {
          "duration": 0.2439023333333381,
          "durationTicks": 32,
          "midi": 70,
          "name": "A#4",
          "ticks": 4800,
          "time": 36.58535,
          "velocity": 0.6220472440944882
        },
        {
          "duration": 0.2439023333333381,
          "durationTicks": 32,
          "midi": 70,
          "name": "A#4",
          "ticks": 4848,
          "time": 36.9512035,
          "velocity": 0.6220472440944882
        },
        {
          "duration": 0.2439023333333381,
          "durationTicks": 32,
          "midi": 70,
          "name": "A#4",
          "ticks": 4896,
          "time": 37.317057,
          "velocity": 0.6220472440944882
        },
        {
          "duration": 0.2439023333333381,
          "durationTicks": 32,
          "midi": 70,
          "name": "A#4",
          "ticks": 4944,
          "time": 37.6829105,
          "velocity": 0.6220472440944882
        },
        {
          "duration": 0.2439023333333381,
          "durationTicks": 32,
          "midi": 70,
          "name": "A#4",
          "ticks": 4992,
          "time": 38.048764,
          "velocity": 0.6220472440944882
        },
        {
          "duration": 0.2439023333333381,
          "durationTicks": 32,
          "midi": 70,
          "name": "A#4",
          "ticks": 5040,
          "time": 38.4146175,
          "velocity": 0.6220472440944882
        },
        {
          "duration": 0.2439023333333381,
          "durationTicks": 32,
          "midi": 70,
          "name": "A#4",
          "ticks": 5088,
          "time": 38.780471,
          "velocity": 0.6220472440944882
        },
        {
          "duration": 0.2439023333333381,
          "durationTicks": 32,
          "midi": 70,
          "name": "A#4",
          "ticks": 5136,
          "time": 39.1463245,
          "velocity": 0.6220472440944882
        },
        {
          "duration": 0.2439023333333381,
          "durationTicks": 32,
          "midi": 70,
          "name": "A#4",
          "ticks": 5184,
          "time": 39.512178,
          "velocity": 0.6220472440944882
        },
        {
          "duration": 0.2439023333333381,
          "durationTicks": 32,
          "midi": 70,
          "name": "A#4",
          "ticks": 5232,
          "time": 39.8780315,
          "velocity": 0.6220472440944882
        },
        {
          "duration": 0.2439023333333381,
          "durationTicks": 32,
          "midi": 70,
          "name": "A#4",
          "ticks": 5280,
          "time": 40.243885,
          "velocity": 0.6220472440944882
        },
        {
          "duration": 0.2439023333333381,
          "durationTicks": 32,
          "midi": 70,
          "name": "A#4",
          "ticks": 5328,
          "time": 40.6097385,
          "velocity": 0.6220472440944882
        },
        {
          "duration": 0.2439023333333381,
          "durationTicks": 32,
          "midi": 70,
          "name": "A#4",
          "ticks": 5376,
          "time": 40.975592,
          "velocity": 0.6220472440944882
        },
        {
          "duration": 0.2439023333333381,
          "durationTicks": 32,
          "midi": 70,
          "name": "A#4",
          "ticks": 5424,
          "time": 41.3414455,
          "velocity": 0.6220472440944882
        },
        {
          "duration": 0.2439023333333381,
          "durationTicks": 32,
          "midi": 70,
          "name": "A#4",
          "ticks": 5472,
          "time": 41.707299,
          "velocity": 0.6220472440944882
        },
        {
          "duration": 0.2439023333333381,
          "durationTicks": 32,
          "midi": 70,
          "name": "A#4",
          "ticks": 5520,
          "time": 42.0731525,
          "velocity": 0.6220472440944882
        },
        {
          "duration": 0.2439023333333381,
          "durationTicks": 32,
          "midi": 70,
          "name": "A#4",
          "ticks": 5568,
          "time": 42.439006,
          "velocity": 0.6220472440944882
        },
        {
          "duration": 0.2439023333333381,
          "durationTicks": 32,
          "midi": 70,
          "name": "A#4",
          "ticks": 5616,
          "time": 42.8048595,
          "velocity": 0.6220472440944882
        },
        {
          "duration": 0.2439023333333381,
          "durationTicks": 32,
          "midi": 70,
          "name": "A#4",
          "ticks": 5664,
          "time": 43.170713,
          "velocity": 0.6220472440944882
        },
        {
          "duration": 0.2439023333333381,
          "durationTicks": 32,
          "midi": 70,
          "name": "A#4",
          "ticks": 5712,
          "time": 43.5365665,
          "velocity": 0.6220472440944882
        },
        {
          "duration": 0.16768285416667084,
          "durationTicks": 22,
          "midi": 38,
          "name": "D2",
          "ticks": 6192,
          "time": 47.1951015,
          "velocity": 0.7480314960629921
        },
        {
          "duration": 0.16768285416667084,
          "durationTicks": 22,
          "midi": 43,
          "name": "G2",
          "ticks": 6240,
          "time": 47.560955,
          "velocity": 0.7480314960629921
        },
        {
          "duration": 0.16768285416667084,
          "durationTicks": 22,
          "midi": 38,
          "name": "D2",
          "ticks": 6312,
          "time": 48.10973525,
          "velocity": 0.7480314960629921
        },
        {
          "duration": 0.16768285416667084,
          "durationTicks": 22,
          "midi": 43,
          "name": "G2",
          "ticks": 6336,
          "time": 48.292662,
          "velocity": 0.7480314960629921
        },
        {
          "duration": 0.16768285416667084,
          "durationTicks": 22,
          "midi": 43,
          "name": "G2",
          "ticks": 6408,
          "time": 48.84144225,
          "velocity": 0.7480314960629921
        },
        {
          "duration": 0.16768285416667084,
          "durationTicks": 22,
          "midi": 43,
          "name": "G2",
          "ticks": 6432,
          "time": 49.024369,
          "velocity": 0.7480314960629921
        },
        {
          "duration": 0.16768285416667084,
          "durationTicks": 22,
          "midi": 43,
          "name": "G2",
          "ticks": 6456,
          "time": 49.20729575,
          "velocity": 0.7480314960629921
        },
        {
          "duration": 0.16768285416667084,
          "durationTicks": 22,
          "midi": 43,
          "name": "G2",
          "ticks": 6480,
          "time": 49.3902225,
          "velocity": 0.7480314960629921
        },
        {
          "duration": 0.243902333333331,
          "durationTicks": 32,
          "midi": 38,
          "name": "D2",
          "ticks": 7104,
          "time": 54.146318,
          "velocity": 0.7480314960629921
        },
        {
          "duration": 0.243902333333331,
          "durationTicks": 32,
          "midi": 43,
          "name": "G2",
          "ticks": 7152,
          "time": 54.5121715,
          "velocity": 0.7480314960629921
        },
        {
          "duration": 0.18292675000000003,
          "durationTicks": 24,
          "midi": 43,
          "name": "G2",
          "ticks": 7224,
          "time": 55.06095175,
          "velocity": 0.7480314960629921
        },
        {
          "duration": 0.12195116666666905,
          "durationTicks": 16,
          "midi": 43,
          "name": "G2",
          "ticks": 7248,
          "time": 55.2438785,
          "velocity": 0.7480314960629921
        },
        {
          "duration": 0.12195116666666195,
          "durationTicks": 16,
          "midi": 43,
          "name": "G2",
          "ticks": 7264,
          "time": 55.36582966666667,
          "velocity": 0.7480314960629921
        },
        {
          "duration": 0.16768285416667084,
          "durationTicks": 22,
          "midi": 43,
          "name": "G2",
          "ticks": 7280,
          "time": 55.48778083333333,
          "velocity": 0.7480314960629921
        },
        {
          "duration": 0.4878046666666691,
          "durationTicks": 64,
          "midi": 36,
          "name": "C2",
          "ticks": 7296,
          "time": 55.609732,
          "velocity": 0.7480314960629921
        },
        {
          "duration": 0.4878046666666691,
          "durationTicks": 64,
          "midi": 49,
          "name": "C#3",
          "ticks": 7296,
          "time": 55.609732,
          "velocity": 0.7480314960629921
        },
        {
          "duration": 0.36585350000000005,
          "durationTicks": 48,
          "midi": 42,
          "name": "F#2",
          "ticks": 7344,
          "time": 55.9755855,
          "velocity": 0.7480314960629921
        },
        {
          "duration": 0.4878046666666691,
          "durationTicks": 64,
          "midi": 38,
          "name": "D2",
          "ticks": 7392,
          "time": 56.341439,
          "velocity": 0.7480314960629921
        },
        {
          "duration": 0.36585350000000005,
          "durationTicks": 48,
          "midi": 42,
          "name": "F#2",
          "ticks": 7392,
          "time": 56.341439,
          "velocity": 0.7480314960629921
        },
        {
          "duration": 0.36585350000000005,
          "durationTicks": 48,
          "midi": 36,
          "name": "C2",
          "ticks": 7440,
          "time": 56.7072925,
          "velocity": 0.7480314960629921
        },
        {
          "duration": 0.36585350000000005,
          "durationTicks": 48,
          "midi": 42,
          "name": "F#2",
          "ticks": 7440,
          "time": 56.7072925,
          "velocity": 0.7480314960629921
        },
        {
          "duration": 0.4878046666666691,
          "durationTicks": 64,
          "midi": 36,
          "name": "C2",
          "ticks": 7488,
          "time": 57.073146,
          "velocity": 0.7480314960629921
        },
        {
          "duration": 0.36585350000000005,
          "durationTicks": 48,
          "midi": 42,
          "name": "F#2",
          "ticks": 7488,
          "time": 57.073146,
          "velocity": 0.7480314960629921
        },
        {
          "duration": 0.36585350000000005,
          "durationTicks": 48,
          "midi": 42,
          "name": "F#2",
          "ticks": 7536,
          "time": 57.4389995,
          "velocity": 0.7480314960629921
        },
        {
          "duration": 0.4878046666666691,
          "durationTicks": 64,
          "midi": 38,
          "name": "D2",
          "ticks": 7584,
          "time": 57.804853,
          "velocity": 0.7480314960629921
        },
        {
          "duration": 0.36585350000000005,
          "durationTicks": 48,
          "midi": 42,
          "name": "F#2",
          "ticks": 7584,
          "time": 57.804853,
          "velocity": 0.7480314960629921
        },
        {
          "duration": 0.4878046666666691,
          "durationTicks": 64,
          "midi": 36,
          "name": "C2",
          "ticks": 7632,
          "time": 58.1707065,
          "velocity": 0.7480314960629921
        },
        {
          "duration": 0.4878046666666691,
          "durationTicks": 64,
          "midi": 42,
          "name": "F#2",
          "ticks": 7632,
          "time": 58.1707065,
          "velocity": 0.7480314960629921
        },
        {
          "duration": 0.18292675000000003,
          "durationTicks": 24,
          "midi": 38,
          "name": "D2",
          "ticks": 7752,
          "time": 59.08534025,
          "velocity": 0.7480314960629921
        },
        {
          "duration": 0.6402436249999965,
          "durationTicks": 84,
          "midi": 38,
          "name": "D2",
          "ticks": 7776,
          "time": 59.268267,
          "velocity": 0.7480314960629921
        },
        {
          "duration": 0.5487802500000001,
          "durationTicks": 72,
          "midi": 43,
          "name": "G2",
          "ticks": 7824,
          "time": 59.6341205,
          "velocity": 0.7480314960629921
        },
        {
          "duration": 0.18292675000000003,
          "durationTicks": 24,
          "midi": 43,
          "name": "G2",
          "ticks": 7896,
          "time": 60.18290075,
          "velocity": 0.7480314960629921
        },
        {
          "duration": 0.18292675000000003,
          "durationTicks": 24,
          "midi": 43,
          "name": "G2",
          "ticks": 7920,
          "time": 60.3658275,
          "velocity": 0.7480314960629921
        },
        {
          "duration": 0.36585350000000005,
          "durationTicks": 48,
          "midi": 43,
          "name": "G2",
          "ticks": 7944,
          "time": 60.54875425,
          "velocity": 0.7480314960629921
        },
        {
          "duration": 0.18292675000000003,
          "durationTicks": 24,
          "midi": 43,
          "name": "G2",
          "ticks": 7992,
          "time": 60.91460775,
          "velocity": 0.7480314960629921
        },
        {
          "duration": 0.12195116666666905,
          "durationTicks": 16,
          "midi": 43,
          "name": "G2",
          "ticks": 8016,
          "time": 61.0975345,
          "velocity": 0.7480314960629921
        },
        {
          "duration": 0.12195116666666195,
          "durationTicks": 16,
          "midi": 43,
          "name": "G2",
          "ticks": 8032,
          "time": 61.21948566666667,
          "velocity": 0.7480314960629921
        },
        {
          "duration": 0.42682908333333813,
          "durationTicks": 56,
          "midi": 43,
          "name": "G2",
          "ticks": 8048,
          "time": 61.34143683333333,
          "velocity": 0.7480314960629921
        },
        {
          "duration": 0.6402436249999965,
          "durationTicks": 84,
          "midi": 36,
          "name": "C2",
          "ticks": 8064,
          "time": 61.463388,
          "velocity": 0.7480314960629921
        },
        {
          "duration": 0.6402436249999965,
          "durationTicks": 84,
          "midi": 49,
          "name": "C#3",
          "ticks": 8064,
          "time": 61.463388,
          "velocity": 0.7480314960629921
        },
        {
          "duration": 0.36585350000000005,
          "durationTicks": 48,
          "midi": 42,
          "name": "F#2",
          "ticks": 8112,
          "time": 61.8292415,
          "velocity": 0.7480314960629921
        },
        {
          "duration": 0.6402436249999965,
          "durationTicks": 84,
          "midi": 38,
          "name": "D2",
          "ticks": 8160,
          "time": 62.195095,
          "velocity": 0.7480314960629921
        },
        {
          "duration": 0.36585350000000005,
          "durationTicks": 48,
          "midi": 42,
          "name": "F#2",
          "ticks": 8160,
          "time": 62.195095,
          "velocity": 0.7480314960629921
        },
        {
          "duration": 0.36585350000000005,
          "durationTicks": 48,
          "midi": 36,
          "name": "C2",
          "ticks": 8208,
          "time": 62.5609485,
          "velocity": 0.7480314960629921
        },
        {
          "duration": 0.36585350000000005,
          "durationTicks": 48,
          "midi": 42,
          "name": "F#2",
          "ticks": 8208,
          "time": 62.5609485,
          "velocity": 0.7480314960629921
        },
        {
          "duration": 0.6402436249999965,
          "durationTicks": 84,
          "midi": 36,
          "name": "C2",
          "ticks": 8256,
          "time": 62.926802,
          "velocity": 0.7480314960629921
        },
        {
          "duration": 0.36585350000000005,
          "durationTicks": 48,
          "midi": 42,
          "name": "F#2",
          "ticks": 8256,
          "time": 62.926802,
          "velocity": 0.7480314960629921
        },
        {
          "duration": 0.36585350000000005,
          "durationTicks": 48,
          "midi": 42,
          "name": "F#2",
          "ticks": 8304,
          "time": 63.2926555,
          "velocity": 0.7480314960629921
        },
        {
          "duration": 0.2439023333333239,
          "durationTicks": 32,
          "midi": 38,
          "name": "D2",
          "ticks": 8352,
          "time": 63.658509,
          "velocity": 0.7480314960629921
        },
        {
          "duration": 0.36585349999999295,
          "durationTicks": 48,
          "midi": 42,
          "name": "F#2",
          "ticks": 8352,
          "time": 63.658509,
          "velocity": 0.7480314960629921
        },
        {
          "duration": 0.2439023333333239,
          "durationTicks": 32,
          "midi": 43,
          "name": "G2",
          "ticks": 8368,
          "time": 63.78046016666667,
          "velocity": 0.7480314960629921
        },
        {
          "duration": 0.42682908333333813,
          "durationTicks": 56,
          "midi": 38,
          "name": "D2",
          "ticks": 8384,
          "time": 63.902411333333326,
          "velocity": 0.7480314960629921
        },
        {
          "duration": 0.6402436250000108,
          "durationTicks": 84,
          "midi": 42,
          "name": "F#2",
          "ticks": 8400,
          "time": 64.0243625,
          "velocity": 0.7480314960629921
        },
        {
          "duration": 0.6402436250000108,
          "durationTicks": 84,
          "midi": 43,
          "name": "G2",
          "ticks": 8400,
          "time": 64.0243625,
          "velocity": 0.7480314960629921
        },
        {
          "duration": 0.2439023333333381,
          "durationTicks": 32,
          "midi": 36,
          "name": "C2",
          "ticks": 8448,
          "time": 64.390216,
          "velocity": 0.7480314960629921
        },
        {
          "duration": 0.2439023333333381,
          "durationTicks": 32,
          "midi": 49,
          "name": "C#3",
          "ticks": 8448,
          "time": 64.390216,
          "velocity": 0.7480314960629921
        },
        {
          "duration": 0.2439023333333381,
          "durationTicks": 32,
          "midi": 38,
          "name": "D2",
          "ticks": 8544,
          "time": 65.121923,
          "velocity": 0.7480314960629921
        },
        {
          "duration": 0.2439023333333239,
          "durationTicks": 32,
          "midi": 38,
          "name": "D2",
          "ticks": 8616,
          "time": 65.67070325,
          "velocity": 0.7480314960629921
        },
        {
          "duration": 0.2439023333333381,
          "durationTicks": 32,
          "midi": 43,
          "name": "G2",
          "ticks": 8640,
          "time": 65.85363,
          "velocity": 0.7480314960629921
        },
        {
          "duration": 0.2439023333333381,
          "durationTicks": 32,
          "midi": 43,
          "name": "G2",
          "ticks": 8688,
          "time": 66.2194835,
          "velocity": 0.7480314960629921
        },
        {
          "duration": 0.18292674999999292,
          "durationTicks": 24,
          "midi": 43,
          "name": "G2",
          "ticks": 8760,
          "time": 66.76826375,
          "velocity": 0.7480314960629921
        },
        {
          "duration": 0.2439023333333381,
          "durationTicks": 32,
          "midi": 43,
          "name": "G2",
          "ticks": 8784,
          "time": 66.9511905,
          "velocity": 0.7480314960629921
        },
        {
          "duration": 0.2439023333333381,
          "durationTicks": 32,
          "midi": 36,
          "name": "C2",
          "ticks": 8832,
          "time": 67.317044,
          "velocity": 0.7480314960629921
        },
        {
          "duration": 0.2439023333333381,
          "durationTicks": 32,
          "midi": 49,
          "name": "C#3",
          "ticks": 8832,
          "time": 67.317044,
          "velocity": 0.7480314960629921
        },
        {
          "duration": 0.2439023333333381,
          "durationTicks": 32,
          "midi": 42,
          "name": "F#2",
          "ticks": 8880,
          "time": 67.6828975,
          "velocity": 0.7480314960629921
        },
        {
          "duration": 0.2439023333333381,
          "durationTicks": 32,
          "midi": 38,
          "name": "D2",
          "ticks": 8928,
          "time": 68.048751,
          "velocity": 0.7480314960629921
        },
        {
          "duration": 0.2439023333333381,
          "durationTicks": 32,
          "midi": 42,
          "name": "F#2",
          "ticks": 8928,
          "time": 68.048751,
          "velocity": 0.7480314960629921
        },
        {
          "duration": 0.2439023333333381,
          "durationTicks": 32,
          "midi": 42,
          "name": "F#2",
          "ticks": 8976,
          "time": 68.4146045,
          "velocity": 0.7480314960629921
        },
        {
          "duration": 0.2439023333333381,
          "durationTicks": 32,
          "midi": 43,
          "name": "G2",
          "ticks": 8976,
          "time": 68.4146045,
          "velocity": 0.7480314960629921
        },
        {
          "duration": 0.2439023333333381,
          "durationTicks": 32,
          "midi": 43,
          "name": "G2",
          "ticks": 9024,
          "time": 68.780458,
          "velocity": 0.7480314960629921
        },
        {
          "duration": 0.12195116666667616,
          "durationTicks": 16,
          "midi": 47,
          "name": "B2",
          "ticks": 9024,
          "time": 68.780458,
          "velocity": 0.7480314960629921
        },
        {
          "duration": 0.2439023333333381,
          "durationTicks": 32,
          "midi": 43,
          "name": "G2",
          "ticks": 9072,
          "time": 69.1463115,
          "velocity": 0.7480314960629921
        },
        {
          "duration": 0.12195116666667616,
          "durationTicks": 16,
          "midi": 47,
          "name": "B2",
          "ticks": 9072,
          "time": 69.1463115,
          "velocity": 0.7480314960629921
        },
        {
          "duration": 0.2439023333333381,
          "durationTicks": 32,
          "midi": 43,
          "name": "G2",
          "ticks": 9120,
          "time": 69.512165,
          "velocity": 0.7480314960629921
        },
        {
          "duration": 0.12195116666667616,
          "durationTicks": 16,
          "midi": 47,
          "name": "B2",
          "ticks": 9120,
          "time": 69.512165,
          "velocity": 0.7480314960629921
        },
        {
          "duration": 0.2439023333333381,
          "durationTicks": 32,
          "midi": 43,
          "name": "G2",
          "ticks": 9168,
          "time": 69.8780185,
          "velocity": 0.7480314960629921
        },
        {
          "duration": 0.12195116666667616,
          "durationTicks": 16,
          "midi": 47,
          "name": "B2",
          "ticks": 9168,
          "time": 69.8780185,
          "velocity": 0.7480314960629921
        },
        {
          "duration": 0.12195116666667616,
          "durationTicks": 16,
          "midi": 36,
          "name": "C2",
          "ticks": 9216,
          "time": 70.243872,
          "velocity": 0.7480314960629921
        },
        {
          "duration": 0.12195116666667616,
          "durationTicks": 16,
          "midi": 49,
          "name": "C#3",
          "ticks": 9216,
          "time": 70.243872,
          "velocity": 0.7480314960629921
        },
        {
          "duration": 0.060975583333330974,
          "durationTicks": 8,
          "midi": 42,
          "name": "F#2",
          "ticks": 9264,
          "time": 70.6097255,
          "velocity": 0.7480314960629921
        },
        {
          "duration": 0.12195116666667616,
          "durationTicks": 16,
          "midi": 38,
          "name": "D2",
          "ticks": 9312,
          "time": 70.975579,
          "velocity": 0.7480314960629921
        },
        {
          "duration": 0.060975583333330974,
          "durationTicks": 8,
          "midi": 42,
          "name": "F#2",
          "ticks": 9312,
          "time": 70.975579,
          "velocity": 0.7480314960629921
        },
        {
          "duration": 0.12195116666667616,
          "durationTicks": 16,
          "midi": 36,
          "name": "C2",
          "ticks": 9360,
          "time": 71.3414325,
          "velocity": 0.7480314960629921
        },
        {
          "duration": 0.060975583333330974,
          "durationTicks": 8,
          "midi": 42,
          "name": "F#2",
          "ticks": 9360,
          "time": 71.3414325,
          "velocity": 0.7480314960629921
        },
        {
          "duration": 0.12195116666667616,
          "durationTicks": 16,
          "midi": 36,
          "name": "C2",
          "ticks": 9408,
          "time": 71.707286,
          "velocity": 0.7480314960629921
        },
        {
          "duration": 0.060975583333330974,
          "durationTicks": 8,
          "midi": 42,
          "name": "F#2",
          "ticks": 9408,
          "time": 71.707286,
          "velocity": 0.7480314960629921
        },
        {
          "duration": 0.060975583333330974,
          "durationTicks": 8,
          "midi": 42,
          "name": "F#2",
          "ticks": 9456,
          "time": 72.0731395,
          "velocity": 0.7480314960629921
        },
        {
          "duration": 0.12195116666667616,
          "durationTicks": 16,
          "midi": 38,
          "name": "D2",
          "ticks": 9504,
          "time": 72.438993,
          "velocity": 0.7480314960629921
        },
        {
          "duration": 0.060975583333330974,
          "durationTicks": 8,
          "midi": 42,
          "name": "F#2",
          "ticks": 9504,
          "time": 72.438993,
          "velocity": 0.7480314960629921
        },
        {
          "duration": 0.12195116666667616,
          "durationTicks": 16,
          "midi": 36,
          "name": "C2",
          "ticks": 9552,
          "time": 72.8048465,
          "velocity": 0.7480314960629921
        },
        {
          "duration": 0.060975583333330974,
          "durationTicks": 8,
          "midi": 42,
          "name": "F#2",
          "ticks": 9552,
          "time": 72.8048465,
          "velocity": 0.7480314960629921
        },
        {
          "duration": 0.060975583333330974,
          "durationTicks": 8,
          "midi": 42,
          "name": "F#2",
          "ticks": 9600,
          "time": 73.1707,
          "velocity": 0.7480314960629921
        },
        {
          "duration": 0.16768285416667084,
          "durationTicks": 22,
          "midi": 38,
          "name": "D2",
          "ticks": 9648,
          "time": 73.5365535,
          "velocity": 0.7480314960629921
        },
        {
          "duration": 0.060975583333330974,
          "durationTicks": 8,
          "midi": 42,
          "name": "F#2",
          "ticks": 9648,
          "time": 73.5365535,
          "velocity": 0.7480314960629921
        },
        {
          "duration": 0.060975583333330974,
          "durationTicks": 8,
          "midi": 42,
          "name": "F#2",
          "ticks": 9696,
          "time": 73.902407,
          "velocity": 0.7480314960629921
        },
        {
          "duration": 0.16768285416667084,
          "durationTicks": 22,
          "midi": 43,
          "name": "G2",
          "ticks": 9696,
          "time": 73.902407,
          "velocity": 0.7480314960629921
        },
        {
          "duration": 0.060975583333330974,
          "durationTicks": 8,
          "midi": 42,
          "name": "F#2",
          "ticks": 9744,
          "time": 74.2682605,
          "velocity": 0.7480314960629921
        },
        {
          "duration": 0.16768285416667084,
          "durationTicks": 22,
          "midi": 38,
          "name": "D2",
          "ticks": 9768,
          "time": 74.45118725,
          "velocity": 0.7480314960629921
        },
        {
          "duration": 0.16768285416667084,
          "durationTicks": 22,
          "midi": 43,
          "name": "G2",
          "ticks": 9792,
          "time": 74.634114,
          "velocity": 0.7480314960629921
        },
        {
          "duration": 0.16768285416667084,
          "durationTicks": 22,
          "midi": 43,
          "name": "G2",
          "ticks": 9864,
          "time": 75.18289425,
          "velocity": 0.7480314960629921
        },
        {
          "duration": 0.16768285416667084,
          "durationTicks": 22,
          "midi": 43,
          "name": "G2",
          "ticks": 9888,
          "time": 75.365821,
          "velocity": 0.7480314960629921
        },
        {
          "duration": 0.16768285416667084,
          "durationTicks": 22,
          "midi": 43,
          "name": "G2",
          "ticks": 9912,
          "time": 75.54874775,
          "velocity": 0.7480314960629921
        },
        {
          "duration": 0.16768285416667084,
          "durationTicks": 22,
          "midi": 43,
          "name": "G2",
          "ticks": 9936,
          "time": 75.7316745,
          "velocity": 0.7480314960629921
        },
        {
          "duration": 0.060975583333330974,
          "durationTicks": 8,
          "midi": 36,
          "name": "C2",
          "ticks": 9984,
          "time": 76.097528,
          "velocity": 0.7480314960629921
        },
        {
          "duration": 0.060975583333330974,
          "durationTicks": 8,
          "midi": 49,
          "name": "C#3",
          "ticks": 9984,
          "time": 76.097528,
          "velocity": 0.7480314960629921
        },
        {
          "duration": 0.060975583333330974,
          "durationTicks": 8,
          "midi": 42,
          "name": "F#2",
          "ticks": 10032,
          "time": 76.4633815,
          "velocity": 0.7480314960629921
        },
        {
          "duration": 0.060975583333330974,
          "durationTicks": 8,
          "midi": 38,
          "name": "D2",
          "ticks": 10080,
          "time": 76.829235,
          "velocity": 0.7480314960629921
        },
        {
          "duration": 0.060975583333330974,
          "durationTicks": 8,
          "midi": 42,
          "name": "F#2",
          "ticks": 10080,
          "time": 76.829235,
          "velocity": 0.7480314960629921
        },
        {
          "duration": 0.060975583333330974,
          "durationTicks": 8,
          "midi": 36,
          "name": "C2",
          "ticks": 10128,
          "time": 77.1950885,
          "velocity": 0.7480314960629921
        },
        {
          "duration": 0.060975583333330974,
          "durationTicks": 8,
          "midi": 42,
          "name": "F#2",
          "ticks": 10128,
          "time": 77.1950885,
          "velocity": 0.7480314960629921
        },
        {
          "duration": 0.060975583333330974,
          "durationTicks": 8,
          "midi": 36,
          "name": "C2",
          "ticks": 10176,
          "time": 77.560942,
          "velocity": 0.7480314960629921
        },
        {
          "duration": 0.060975583333330974,
          "durationTicks": 8,
          "midi": 42,
          "name": "F#2",
          "ticks": 10176,
          "time": 77.560942,
          "velocity": 0.7480314960629921
        },
        {
          "duration": 0.060975583333330974,
          "durationTicks": 8,
          "midi": 42,
          "name": "F#2",
          "ticks": 10224,
          "time": 77.9267955,
          "velocity": 0.7480314960629921
        },
        {
          "duration": 0.060975583333330974,
          "durationTicks": 8,
          "midi": 38,
          "name": "D2",
          "ticks": 10272,
          "time": 78.292649,
          "velocity": 0.7480314960629921
        },
        {
          "duration": 0.060975583333330974,
          "durationTicks": 8,
          "midi": 42,
          "name": "F#2",
          "ticks": 10272,
          "time": 78.292649,
          "velocity": 0.7480314960629921
        },
        {
          "duration": 0.060975583333330974,
          "durationTicks": 8,
          "midi": 36,
          "name": "C2",
          "ticks": 10320,
          "time": 78.6585025,
          "velocity": 0.7480314960629921
        },
        {
          "duration": 0.060975583333330974,
          "durationTicks": 8,
          "midi": 42,
          "name": "F#2",
          "ticks": 10320,
          "time": 78.6585025,
          "velocity": 0.7480314960629921
        },
        {
          "duration": 0.060975583333330974,
          "durationTicks": 8,
          "midi": 36,
          "name": "C2",
          "ticks": 10368,
          "time": 79.024356,
          "velocity": 0.7480314960629921
        },
        {
          "duration": 0.060975583333330974,
          "durationTicks": 8,
          "midi": 49,
          "name": "C#3",
          "ticks": 10368,
          "time": 79.024356,
          "velocity": 0.7480314960629921
        },
        {
          "duration": 0.060975583333330974,
          "durationTicks": 8,
          "midi": 42,
          "name": "F#2",
          "ticks": 10416,
          "time": 79.3902095,
          "velocity": 0.7480314960629921
        },
        {
          "duration": 0.060975583333330974,
          "durationTicks": 8,
          "midi": 42,
          "name": "F#2",
          "ticks": 10464,
          "time": 79.756063,
          "velocity": 0.7480314960629921
        },
        {
          "duration": 0.060975583333330974,
          "durationTicks": 8,
          "midi": 38,
          "name": "D2",
          "ticks": 10512,
          "time": 80.1219165,
          "velocity": 0.7480314960629921
        },
        {
          "duration": 0.060975583333330974,
          "durationTicks": 8,
          "midi": 36,
          "name": "C2",
          "ticks": 10512,
          "time": 80.1219165,
          "velocity": 0.7480314960629921
        },
        {
          "duration": 0.060975583333330974,
          "durationTicks": 8,
          "midi": 42,
          "name": "F#2",
          "ticks": 10512,
          "time": 80.1219165,
          "velocity": 0.7480314960629921
        },
        {
          "duration": 0.2439023333333381,
          "durationTicks": 32,
          "midi": 38,
          "name": "D2",
          "ticks": 10560,
          "time": 80.48777,
          "velocity": 0.7480314960629921
        },
        {
          "duration": 0.2439023333333381,
          "durationTicks": 32,
          "midi": 43,
          "name": "G2",
          "ticks": 10608,
          "time": 80.8536235,
          "velocity": 0.7480314960629921
        },
        {
          "duration": 0.18292674999999292,
          "durationTicks": 24,
          "midi": 43,
          "name": "G2",
          "ticks": 10680,
          "time": 81.40240375,
          "velocity": 0.7480314960629921
        },
        {
          "duration": 0.12195116666667616,
          "durationTicks": 16,
          "midi": 43,
          "name": "G2",
          "ticks": 10704,
          "time": 81.5853305,
          "velocity": 0.7480314960629921
        },
        {
          "duration": 0.12195116666666195,
          "durationTicks": 16,
          "midi": 43,
          "name": "G2",
          "ticks": 10720,
          "time": 81.70728166666667,
          "velocity": 0.7480314960629921
        },
        {
          "duration": 0.16768285416665663,
          "durationTicks": 22,
          "midi": 43,
          "name": "G2",
          "ticks": 10736,
          "time": 81.82923283333334,
          "velocity": 0.7480314960629921
        },
        {
          "duration": 0.4878046666666762,
          "durationTicks": 64,
          "midi": 36,
          "name": "C2",
          "ticks": 10752,
          "time": 81.951184,
          "velocity": 0.7480314960629921
        },
        {
          "duration": 0.4878046666666762,
          "durationTicks": 64,
          "midi": 49,
          "name": "C#3",
          "ticks": 10752,
          "time": 81.951184,
          "velocity": 0.7480314960629921
        },
        {
          "duration": 0.36585350000000005,
          "durationTicks": 48,
          "midi": 42,
          "name": "F#2",
          "ticks": 10800,
          "time": 82.3170375,
          "velocity": 0.7480314960629921
        },
        {
          "duration": 0.4878046666666762,
          "durationTicks": 64,
          "midi": 38,
          "name": "D2",
          "ticks": 10848,
          "time": 82.682891,
          "velocity": 0.7480314960629921
        },
        {
          "duration": 0.36585350000000005,
          "durationTicks": 48,
          "midi": 42,
          "name": "F#2",
          "ticks": 10848,
          "time": 82.682891,
          "velocity": 0.7480314960629921
        },
        {
          "duration": 0.36585350000000005,
          "durationTicks": 48,
          "midi": 36,
          "name": "C2",
          "ticks": 10896,
          "time": 83.0487445,
          "velocity": 0.7480314960629921
        },
        {
          "duration": 0.36585350000000005,
          "durationTicks": 48,
          "midi": 42,
          "name": "F#2",
          "ticks": 10896,
          "time": 83.0487445,
          "velocity": 0.7480314960629921
        },
        {
          "duration": 0.4878046666666762,
          "durationTicks": 64,
          "midi": 36,
          "name": "C2",
          "ticks": 10944,
          "time": 83.414598,
          "velocity": 0.7480314960629921
        },
        {
          "duration": 0.36585350000000005,
          "durationTicks": 48,
          "midi": 42,
          "name": "F#2",
          "ticks": 10944,
          "time": 83.414598,
          "velocity": 0.7480314960629921
        },
        {
          "duration": 0.36585350000000005,
          "durationTicks": 48,
          "midi": 42,
          "name": "F#2",
          "ticks": 10992,
          "time": 83.7804515,
          "velocity": 0.7480314960629921
        },
        {
          "duration": 0.4878046666666762,
          "durationTicks": 64,
          "midi": 38,
          "name": "D2",
          "ticks": 11040,
          "time": 84.146305,
          "velocity": 0.7480314960629921
        },
        {
          "duration": 0.36585350000000005,
          "durationTicks": 48,
          "midi": 42,
          "name": "F#2",
          "ticks": 11040,
          "time": 84.146305,
          "velocity": 0.7480314960629921
        },
        {
          "duration": 0.4878046666666762,
          "durationTicks": 64,
          "midi": 36,
          "name": "C2",
          "ticks": 11088,
          "time": 84.5121585,
          "velocity": 0.7480314960629921
        },
        {
          "duration": 0.4878046666666762,
          "durationTicks": 64,
          "midi": 42,
          "name": "F#2",
          "ticks": 11088,
          "time": 84.5121585,
          "velocity": 0.7480314960629921
        },
        {
          "duration": 0.18292674999999292,
          "durationTicks": 24,
          "midi": 38,
          "name": "D2",
          "ticks": 11208,
          "time": 85.42679225,
          "velocity": 0.7480314960629921
        },
        {
          "duration": 0.6402436249999965,
          "durationTicks": 84,
          "midi": 38,
          "name": "D2",
          "ticks": 11232,
          "time": 85.609719,
          "velocity": 0.7480314960629921
        },
        {
          "duration": 0.5487802500000072,
          "durationTicks": 72,
          "midi": 43,
          "name": "G2",
          "ticks": 11280,
          "time": 85.9755725,
          "velocity": 0.7480314960629921
        },
        {
          "duration": 0.18292674999999292,
          "durationTicks": 24,
          "midi": 43,
          "name": "G2",
          "ticks": 11352,
          "time": 86.52435275,
          "velocity": 0.7480314960629921
        },
        {
          "duration": 0.18292675000000713,
          "durationTicks": 24,
          "midi": 43,
          "name": "G2",
          "ticks": 11376,
          "time": 86.7072795,
          "velocity": 0.7480314960629921
        },
        {
          "duration": 0.36585350000000005,
          "durationTicks": 48,
          "midi": 43,
          "name": "G2",
          "ticks": 11400,
          "time": 86.89020625,
          "velocity": 0.7480314960629921
        },
        {
          "duration": 0.18292674999999292,
          "durationTicks": 24,
          "midi": 43,
          "name": "G2",
          "ticks": 11448,
          "time": 87.25605975,
          "velocity": 0.7480314960629921
        },
        {
          "duration": 0.12195116666667616,
          "durationTicks": 16,
          "midi": 43,
          "name": "G2",
          "ticks": 11472,
          "time": 87.4389865,
          "velocity": 0.7480314960629921
        },
        {
          "duration": 0.12195116666664774,
          "durationTicks": 16,
          "midi": 43,
          "name": "G2",
          "ticks": 11488,
          "time": 87.56093766666667,
          "velocity": 0.7480314960629921
        },
        {
          "duration": 0.42682908333334524,
          "durationTicks": 56,
          "midi": 43,
          "name": "G2",
          "ticks": 11504,
          "time": 87.68288883333332,
          "velocity": 0.7480314960629921
        },
        {
          "duration": 0.6402436249999965,
          "durationTicks": 84,
          "midi": 36,
          "name": "C2",
          "ticks": 11520,
          "time": 87.80484,
          "velocity": 0.7480314960629921
        },
        {
          "duration": 0.6402436249999965,
          "durationTicks": 84,
          "midi": 49,
          "name": "C#3",
          "ticks": 11520,
          "time": 87.80484,
          "velocity": 0.7480314960629921
        },
        {
          "duration": 0.36585350000000005,
          "durationTicks": 48,
          "midi": 42,
          "name": "F#2",
          "ticks": 11568,
          "time": 88.1706935,
          "velocity": 0.7480314960629921
        },
        {
          "duration": 0.6402436249999965,
          "durationTicks": 84,
          "midi": 38,
          "name": "D2",
          "ticks": 11616,
          "time": 88.536547,
          "velocity": 0.7480314960629921
        },
        {
          "duration": 0.36585350000000005,
          "durationTicks": 48,
          "midi": 42,
          "name": "F#2",
          "ticks": 11616,
          "time": 88.536547,
          "velocity": 0.7480314960629921
        },
        {
          "duration": 0.36585350000000005,
          "durationTicks": 48,
          "midi": 36,
          "name": "C2",
          "ticks": 11664,
          "time": 88.9024005,
          "velocity": 0.7480314960629921
        },
        {
          "duration": 0.36585350000000005,
          "durationTicks": 48,
          "midi": 42,
          "name": "F#2",
          "ticks": 11664,
          "time": 88.9024005,
          "velocity": 0.7480314960629921
        },
        {
          "duration": 0.6402436249999965,
          "durationTicks": 84,
          "midi": 36,
          "name": "C2",
          "ticks": 11712,
          "time": 89.268254,
          "velocity": 0.7480314960629921
        },
        {
          "duration": 0.36585350000000005,
          "durationTicks": 48,
          "midi": 42,
          "name": "F#2",
          "ticks": 11712,
          "time": 89.268254,
          "velocity": 0.7480314960629921
        },
        {
          "duration": 0.36585350000000005,
          "durationTicks": 48,
          "midi": 42,
          "name": "F#2",
          "ticks": 11760,
          "time": 89.6341075,
          "velocity": 0.7480314960629921
        },
        {
          "duration": 0.2439023333333239,
          "durationTicks": 32,
          "midi": 38,
          "name": "D2",
          "ticks": 11808,
          "time": 89.999961,
          "velocity": 0.7480314960629921
        },
        {
          "duration": 0.36585350000000005,
          "durationTicks": 48,
          "midi": 42,
          "name": "F#2",
          "ticks": 11808,
          "time": 89.999961,
          "velocity": 0.7480314960629921
        },
        {
          "duration": 0.2439023333333239,
          "durationTicks": 32,
          "midi": 43,
          "name": "G2",
          "ticks": 11824,
          "time": 90.12191216666668,
          "velocity": 0.7480314960629921
        },
        {
          "duration": 0.42682908333334524,
          "durationTicks": 56,
          "midi": 38,
          "name": "D2",
          "ticks": 11840,
          "time": 90.24386333333332,
          "velocity": 0.7480314960629921
        },
        {
          "duration": 0.6402436249999965,
          "durationTicks": 84,
          "midi": 42,
          "name": "F#2",
          "ticks": 11856,
          "time": 90.3658145,
          "velocity": 0.7480314960629921
        },
        {
          "duration": 0.6402436249999965,
          "durationTicks": 84,
          "midi": 43,
          "name": "G2",
          "ticks": 11856,
          "time": 90.3658145,
          "velocity": 0.7480314960629921
        },
        {
          "duration": 0.2439023333333239,
          "durationTicks": 32,
          "midi": 36,
          "name": "C2",
          "ticks": 11904,
          "time": 90.731668,
          "velocity": 0.7480314960629921
        },
        {
          "duration": 0.2439023333333239,
          "durationTicks": 32,
          "midi": 49,
          "name": "C#3",
          "ticks": 11904,
          "time": 90.731668,
          "velocity": 0.7480314960629921
        },
        {
          "duration": 0.2439023333333239,
          "durationTicks": 32,
          "midi": 43,
          "name": "G2",
          "ticks": 12000,
          "time": 91.463375,
          "velocity": 0.7480314960629921
        },
        {
          "duration": 0.18292674999999292,
          "durationTicks": 24,
          "midi": 43,
          "name": "G2",
          "ticks": 12072,
          "time": 92.01215525,
          "velocity": 0.7480314960629921
        },
        {
          "duration": 0.2439023333333239,
          "durationTicks": 32,
          "midi": 43,
          "name": "G2",
          "ticks": 12096,
          "time": 92.195082,
          "velocity": 0.7480314960629921
        },
        {
          "duration": 0.2439023333333239,
          "durationTicks": 32,
          "midi": 43,
          "name": "G2",
          "ticks": 12144,
          "time": 92.5609355,
          "velocity": 0.7480314960629921
        },
        {
          "duration": 0.12195116666667616,
          "durationTicks": 16,
          "midi": 43,
          "name": "G2",
          "ticks": 12192,
          "time": 92.926789,
          "velocity": 0.7480314960629921
        },
        {
          "duration": 0.12195116666664774,
          "durationTicks": 16,
          "midi": 43,
          "name": "G2",
          "ticks": 12208,
          "time": 93.04874016666668,
          "velocity": 0.7480314960629921
        },
        {
          "duration": 0.12195116666667616,
          "durationTicks": 16,
          "midi": 43,
          "name": "G2",
          "ticks": 12224,
          "time": 93.17069133333332,
          "velocity": 0.7480314960629921
        },
        {
          "duration": 0.2439023333333239,
          "durationTicks": 32,
          "midi": 43,
          "name": "G2",
          "ticks": 12240,
          "time": 93.2926425,
          "velocity": 0.7480314960629921
        },
        {
          "duration": 0.2439023333333381,
          "durationTicks": 32,
          "midi": 36,
          "name": "C2",
          "ticks": 12288,
          "time": 93.658496,
          "velocity": 0.7480314960629921
        },
        {
          "duration": 0.2439023333333381,
          "durationTicks": 32,
          "midi": 49,
          "name": "C#3",
          "ticks": 12288,
          "time": 93.658496,
          "velocity": 0.7480314960629921
        },
        {
          "duration": 0.2439023333333381,
          "durationTicks": 32,
          "midi": 42,
          "name": "F#2",
          "ticks": 12336,
          "time": 94.0243495,
          "velocity": 0.7480314960629921
        },
        {
          "duration": 0.2439023333333381,
          "durationTicks": 32,
          "midi": 38,
          "name": "D2",
          "ticks": 12384,
          "time": 94.390203,
          "velocity": 0.7480314960629921
        },
        {
          "duration": 0.2439023333333381,
          "durationTicks": 32,
          "midi": 42,
          "name": "F#2",
          "ticks": 12384,
          "time": 94.390203,
          "velocity": 0.7480314960629921
        },
        {
          "duration": 0.2439023333333381,
          "durationTicks": 32,
          "midi": 36,
          "name": "C2",
          "ticks": 12432,
          "time": 94.7560565,
          "velocity": 0.7480314960629921
        },
        {
          "duration": 0.2439023333333381,
          "durationTicks": 32,
          "midi": 42,
          "name": "F#2",
          "ticks": 12432,
          "time": 94.7560565,
          "velocity": 0.7480314960629921
        },
        {
          "duration": 0.2439023333333381,
          "durationTicks": 32,
          "midi": 36,
          "name": "C2",
          "ticks": 12480,
          "time": 95.12191,
          "velocity": 0.7480314960629921
        },
        {
          "duration": 0.2439023333333381,
          "durationTicks": 32,
          "midi": 36,
          "name": "C2",
          "ticks": 12528,
          "time": 95.4877635,
          "velocity": 0.7480314960629921
        },
        {
          "duration": 0.12195116666666195,
          "durationTicks": 16,
          "midi": 43,
          "name": "G2",
          "ticks": 12576,
          "time": 95.853617,
          "velocity": 0.7480314960629921
        },
        {
          "duration": 0.12195116666667616,
          "durationTicks": 16,
          "midi": 43,
          "name": "G2",
          "ticks": 12592,
          "time": 95.97556816666666,
          "velocity": 0.7480314960629921
        },
        {
          "duration": 0.16768285416665663,
          "durationTicks": 22,
          "midi": 43,
          "name": "G2",
          "ticks": 12608,
          "time": 96.09751933333334,
          "velocity": 0.7480314960629921
        },
        {
          "duration": 0.2439023333333381,
          "durationTicks": 32,
          "midi": 38,
          "name": "D2",
          "ticks": 12624,
          "time": 96.2194705,
          "velocity": 0.7480314960629921
        },
        {
          "duration": 0.2439023333333381,
          "durationTicks": 32,
          "midi": 36,
          "name": "C2",
          "ticks": 12672,
          "time": 96.585324,
          "velocity": 0.7480314960629921
        },
        {
          "duration": 0.2439023333333381,
          "durationTicks": 32,
          "midi": 49,
          "name": "C#3",
          "ticks": 12672,
          "time": 96.585324,
          "velocity": 0.7480314960629921
        },
        {
          "duration": 0.2439023333333381,
          "durationTicks": 32,
          "midi": 42,
          "name": "F#2",
          "ticks": 12720,
          "time": 96.9511775,
          "velocity": 0.7480314960629921
        },
        {
          "duration": 0.2439023333333381,
          "durationTicks": 32,
          "midi": 38,
          "name": "D2",
          "ticks": 12768,
          "time": 97.317031,
          "velocity": 0.7480314960629921
        },
        {
          "duration": 0.2439023333333381,
          "durationTicks": 32,
          "midi": 42,
          "name": "F#2",
          "ticks": 12768,
          "time": 97.317031,
          "velocity": 0.7480314960629921
        },
        {
          "duration": 0.2439023333333381,
          "durationTicks": 32,
          "midi": 36,
          "name": "C2",
          "ticks": 12816,
          "time": 97.6828845,
          "velocity": 0.7480314960629921
        },
        {
          "duration": 0.2439023333333381,
          "durationTicks": 32,
          "midi": 42,
          "name": "F#2",
          "ticks": 12816,
          "time": 97.6828845,
          "velocity": 0.7480314960629921
        },
        {
          "duration": 0.2439023333333381,
          "durationTicks": 32,
          "midi": 36,
          "name": "C2",
          "ticks": 12864,
          "time": 98.048738,
          "velocity": 0.7480314960629921
        },
        {
          "duration": 0.2439023333333381,
          "durationTicks": 32,
          "midi": 42,
          "name": "F#2",
          "ticks": 12864,
          "time": 98.048738,
          "velocity": 0.7480314960629921
        },
        {
          "duration": 0.2439023333333381,
          "durationTicks": 32,
          "midi": 42,
          "name": "F#2",
          "ticks": 12912,
          "time": 98.4145915,
          "velocity": 0.7480314960629921
        },
        {
          "duration": 0.2439023333333381,
          "durationTicks": 32,
          "midi": 38,
          "name": "D2",
          "ticks": 12960,
          "time": 98.780445,
          "velocity": 0.7480314960629921
        },
        {
          "duration": 0.2439023333333381,
          "durationTicks": 32,
          "midi": 42,
          "name": "F#2",
          "ticks": 12960,
          "time": 98.780445,
          "velocity": 0.7480314960629921
        },
        {
          "duration": 0.2439023333333381,
          "durationTicks": 32,
          "midi": 36,
          "name": "C2",
          "ticks": 13008,
          "time": 99.1462985,
          "velocity": 0.7480314960629921
        },
        {
          "duration": 0.2439023333333381,
          "durationTicks": 32,
          "midi": 42,
          "name": "F#2",
          "ticks": 13008,
          "time": 99.1462985,
          "velocity": 0.7480314960629921
        },
        {
          "duration": 0.2439023333333381,
          "durationTicks": 32,
          "midi": 36,
          "name": "C2",
          "ticks": 13056,
          "time": 99.512152,
          "velocity": 0.7480314960629921
        },
        {
          "duration": 0.2439023333333381,
          "durationTicks": 32,
          "midi": 42,
          "name": "F#2",
          "ticks": 13056,
          "time": 99.512152,
          "velocity": 0.7480314960629921
        },
        {
          "duration": 0.2439023333333381,
          "durationTicks": 32,
          "midi": 42,
          "name": "F#2",
          "ticks": 13104,
          "time": 99.8780055,
          "velocity": 0.7480314960629921
        },
        {
          "duration": 0.2439023333333381,
          "durationTicks": 32,
          "midi": 38,
          "name": "D2",
          "ticks": 13152,
          "time": 100.243859,
          "velocity": 0.7480314960629921
        },
        {
          "duration": 0.2439023333333381,
          "durationTicks": 32,
          "midi": 42,
          "name": "F#2",
          "ticks": 13152,
          "time": 100.243859,
          "velocity": 0.7480314960629921
        },
        {
          "duration": 0.2439023333333381,
          "durationTicks": 32,
          "midi": 36,
          "name": "C2",
          "ticks": 13200,
          "time": 100.6097125,
          "velocity": 0.7480314960629921
        },
        {
          "duration": 0.2439023333333381,
          "durationTicks": 32,
          "midi": 42,
          "name": "F#2",
          "ticks": 13200,
          "time": 100.6097125,
          "velocity": 0.7480314960629921
        },
        {
          "duration": 0.2439023333333381,
          "durationTicks": 32,
          "midi": 36,
          "name": "C2",
          "ticks": 13248,
          "time": 100.975566,
          "velocity": 0.7480314960629921
        },
        {
          "duration": 0.2439023333333381,
          "durationTicks": 32,
          "midi": 42,
          "name": "F#2",
          "ticks": 13248,
          "time": 100.975566,
          "velocity": 0.7480314960629921
        },
        {
          "duration": 0.2439023333333381,
          "durationTicks": 32,
          "midi": 42,
          "name": "F#2",
          "ticks": 13296,
          "time": 101.3414195,
          "velocity": 0.7480314960629921
        },
        {
          "duration": 0.2439023333333381,
          "durationTicks": 32,
          "midi": 38,
          "name": "D2",
          "ticks": 13344,
          "time": 101.707273,
          "velocity": 0.7480314960629921
        },
        {
          "duration": 0.2439023333333381,
          "durationTicks": 32,
          "midi": 42,
          "name": "F#2",
          "ticks": 13344,
          "time": 101.707273,
          "velocity": 0.7480314960629921
        },
        {
          "duration": 0.2439023333333381,
          "durationTicks": 32,
          "midi": 36,
          "name": "C2",
          "ticks": 13392,
          "time": 102.0731265,
          "velocity": 0.7480314960629921
        },
        {
          "duration": 0.2439023333333381,
          "durationTicks": 32,
          "midi": 42,
          "name": "F#2",
          "ticks": 13392,
          "time": 102.0731265,
          "velocity": 0.7480314960629921
        },
        {
          "duration": 0.487804666666662,
          "durationTicks": 64,
          "midi": 42,
          "name": "F#2",
          "ticks": 13440,
          "time": 102.43898,
          "velocity": 1
        },
        {
          "duration": 0.487804666666662,
          "durationTicks": 64,
          "midi": 42,
          "name": "F#2",
          "ticks": 13536,
          "time": 103.170687,
          "velocity": 1
        },
        {
          "duration": 0.487804666666662,
          "durationTicks": 64,
          "midi": 42,
          "name": "F#2",
          "ticks": 13632,
          "time": 103.902394,
          "velocity": 1
        },
        {
          "duration": 0.487804666666662,
          "durationTicks": 64,
          "midi": 42,
          "name": "F#2",
          "ticks": 13728,
          "time": 104.634101,
          "velocity": 1
        },
        {
          "duration": 0.487804666666662,
          "durationTicks": 64,
          "midi": 42,
          "name": "F#2",
          "ticks": 13824,
          "time": 105.365808,
          "velocity": 1
        },
        {
          "duration": 0.487804666666662,
          "durationTicks": 64,
          "midi": 42,
          "name": "F#2",
          "ticks": 13920,
          "time": 106.097515,
          "velocity": 1
        },
        {
          "duration": 0.487804666666662,
          "durationTicks": 64,
          "midi": 49,
          "name": "C#3",
          "ticks": 14016,
          "time": 106.829222,
          "velocity": 1
        },
        {
          "duration": 0.487804666666662,
          "durationTicks": 64,
          "midi": 42,
          "name": "F#2",
          "ticks": 14112,
          "time": 107.560929,
          "velocity": 1
        },
        {
          "duration": 0.487804666666662,
          "durationTicks": 64,
          "midi": 42,
          "name": "F#2",
          "ticks": 14208,
          "time": 108.292636,
          "velocity": 1
        },
        {
          "duration": 0.487804666666662,
          "durationTicks": 64,
          "midi": 42,
          "name": "F#2",
          "ticks": 14304,
          "time": 109.024343,
          "velocity": 1
        },
        {
          "duration": 0.487804666666662,
          "durationTicks": 64,
          "midi": 49,
          "name": "C#3",
          "ticks": 14400,
          "time": 109.75605,
          "velocity": 1
        },
        {
          "duration": 0.487804666666662,
          "durationTicks": 64,
          "midi": 49,
          "name": "C#3",
          "ticks": 14496,
          "time": 110.487757,
          "velocity": 1
        },
        {
          "duration": 0.487804666666662,
          "durationTicks": 64,
          "midi": 49,
          "name": "C#3",
          "ticks": 14592,
          "time": 111.219464,
          "velocity": 1
        },
        {
          "duration": 0.487804666666662,
          "durationTicks": 64,
          "midi": 42,
          "name": "F#2",
          "ticks": 14688,
          "time": 111.951171,
          "velocity": 1
        },
        {
          "duration": 0.487804666666662,
          "durationTicks": 64,
          "midi": 42,
          "name": "F#2",
          "ticks": 14784,
          "time": 112.682878,
          "velocity": 1
        },
        {
          "duration": 0.487804666666662,
          "durationTicks": 64,
          "midi": 42,
          "name": "F#2",
          "ticks": 14880,
          "time": 113.414585,
          "velocity": 1
        },
        {
          "duration": 0.2439023333333381,
          "durationTicks": 32,
          "midi": 42,
          "name": "F#2",
          "ticks": 14976,
          "time": 114.146292,
          "velocity": 1
        },
        {
          "duration": 0.2439023333333381,
          "durationTicks": 32,
          "midi": 42,
          "name": "F#2",
          "ticks": 15072,
          "time": 114.877999,
          "velocity": 1
        },
        {
          "duration": 0.2439023333333381,
          "durationTicks": 32,
          "midi": 49,
          "name": "C#3",
          "ticks": 15168,
          "time": 115.609706,
          "velocity": 1
        },
        {
          "duration": 0.2439023333333381,
          "durationTicks": 32,
          "midi": 42,
          "name": "F#2",
          "ticks": 15264,
          "time": 116.341413,
          "velocity": 1
        },
        {
          "duration": 0.2439023333333381,
          "durationTicks": 32,
          "midi": 42,
          "name": "F#2",
          "ticks": 15360,
          "time": 117.07312,
          "velocity": 1
        },
        {
          "duration": 0.2439023333333381,
          "durationTicks": 32,
          "midi": 42,
          "name": "F#2",
          "ticks": 15456,
          "time": 117.804827,
          "velocity": 1
        },
        {
          "duration": 0.2439023333333381,
          "durationTicks": 32,
          "midi": 49,
          "name": "C#3",
          "ticks": 15552,
          "time": 118.536534,
          "velocity": 1
        },
        {
          "duration": 0.2439023333333381,
          "durationTicks": 32,
          "midi": 42,
          "name": "F#2",
          "ticks": 15648,
          "time": 119.268241,
          "velocity": 1
        },
        {
          "duration": 0,
          "durationTicks": 0,
          "midi": 49,
          "name": "C#3",
          "ticks": 15744,
          "time": 119.999948,
          "velocity": 1
        },
        {
          "duration": 0.2439023333333381,
          "durationTicks": 32,
          "midi": 49,
          "name": "C#3",
          "ticks": 15744,
          "time": 119.999948,
          "velocity": 1
        },
        {
          "duration": 0.2439023333333381,
          "durationTicks": 32,
          "midi": 46,
          "name": "A#2",
          "ticks": 15840,
          "time": 120.731655,
          "velocity": 1
        },
        {
          "duration": 0.2439023333333381,
          "durationTicks": 32,
          "midi": 46,
          "name": "A#2",
          "ticks": 15936,
          "time": 121.463362,
          "velocity": 1
        },
        {
          "duration": 0.2439023333333381,
          "durationTicks": 32,
          "midi": 46,
          "name": "A#2",
          "ticks": 16032,
          "time": 122.195069,
          "velocity": 1
        },
        {
          "duration": 1.9359747708333401,
          "durationTicks": 254,
          "midi": 49,
          "name": "C#3",
          "ticks": 16128,
          "time": 122.926776,
          "velocity": 1
        },
        {
          "duration": 0.7317070000000001,
          "durationTicks": 96,
          "midi": 42,
          "name": "F#2",
          "ticks": 16224,
          "time": 123.658483,
          "velocity": 1
        },
        {
          "duration": 0.7317070000000001,
          "durationTicks": 96,
          "midi": 42,
          "name": "F#2",
          "ticks": 16320,
          "time": 124.39019,
          "velocity": 1
        },
        {
          "duration": 0.7317070000000001,
          "durationTicks": 96,
          "midi": 42,
          "name": "F#2",
          "ticks": 16416,
          "time": 125.121897,
          "velocity": 1
        },
        {
          "duration": 0.7317070000000001,
          "durationTicks": 96,
          "midi": 42,
          "name": "F#2",
          "ticks": 16512,
          "time": 125.853604,
          "velocity": 1
        },
        {
          "duration": 1.463413999999986,
          "durationTicks": 192,
          "midi": 42,
          "name": "F#2",
          "ticks": 16608,
          "time": 126.585311,
          "velocity": 1
        },
        {
          "duration": 1.9359747708333401,
          "durationTicks": 254,
          "midi": 49,
          "name": "C#3",
          "ticks": 16704,
          "time": 127.317018,
          "velocity": 1
        },
        {
          "duration": 0.7317070000000001,
          "durationTicks": 96,
          "midi": 42,
          "name": "F#2",
          "ticks": 16800,
          "time": 128.048725,
          "velocity": 1
        },
        {
          "duration": 0.7317070000000001,
          "durationTicks": 96,
          "midi": 42,
          "name": "F#2",
          "ticks": 16896,
          "time": 128.780432,
          "velocity": 1
        },
        {
          "duration": 0.7317070000000001,
          "durationTicks": 96,
          "midi": 42,
          "name": "F#2",
          "ticks": 16992,
          "time": 129.512139,
          "velocity": 1
        },
        {
          "duration": 0.7317070000000001,
          "durationTicks": 96,
          "midi": 42,
          "name": "F#2",
          "ticks": 17088,
          "time": 130.243846,
          "velocity": 1
        },
        {
          "duration": 1.9359747708333543,
          "durationTicks": 254,
          "midi": 42,
          "name": "F#2",
          "ticks": 17184,
          "time": 130.975553,
          "velocity": 1
        },
        {
          "duration": 0.24390233333335232,
          "durationTicks": 32,
          "midi": 42,
          "name": "F#2",
          "ticks": 17664,
          "time": 134.634088,
          "velocity": 0.8346456692913385
        },
        {
          "duration": 0.2439023333333239,
          "durationTicks": 32,
          "midi": 42,
          "name": "F#2",
          "ticks": 17712,
          "time": 134.9999415,
          "velocity": 0.8346456692913385
        },
        {
          "duration": 0.24390233333335232,
          "durationTicks": 32,
          "midi": 42,
          "name": "F#2",
          "ticks": 17760,
          "time": 135.365795,
          "velocity": 0.8346456692913385
        },
        {
          "duration": 0.2439023333333239,
          "durationTicks": 32,
          "midi": 42,
          "name": "F#2",
          "ticks": 17808,
          "time": 135.7316485,
          "velocity": 0.8346456692913385
        },
        {
          "duration": 0.24390233333335232,
          "durationTicks": 32,
          "midi": 42,
          "name": "F#2",
          "ticks": 17856,
          "time": 136.097502,
          "velocity": 0.8346456692913385
        },
        {
          "duration": 0.2439023333333239,
          "durationTicks": 32,
          "midi": 42,
          "name": "F#2",
          "ticks": 17904,
          "time": 136.4633555,
          "velocity": 0.8346456692913385
        },
        {
          "duration": 0.24390233333335232,
          "durationTicks": 32,
          "midi": 42,
          "name": "F#2",
          "ticks": 17952,
          "time": 136.829209,
          "velocity": 0.8346456692913385
        },
        {
          "duration": 0.2439023333333239,
          "durationTicks": 32,
          "midi": 42,
          "name": "F#2",
          "ticks": 18000,
          "time": 137.1950625,
          "velocity": 0.8346456692913385
        },
        {
          "duration": 0.16768285416665663,
          "durationTicks": 22,
          "midi": 38,
          "name": "D2",
          "ticks": 18048,
          "time": 137.560916,
          "velocity": 0.7480314960629921
        },
        {
          "duration": 0.16768285416665663,
          "durationTicks": 22,
          "midi": 36,
          "name": "C2",
          "ticks": 18048,
          "time": 137.560916,
          "velocity": 0.7480314960629921
        },
        {
          "duration": 0.16768285416665663,
          "durationTicks": 22,
          "midi": 42,
          "name": "F#2",
          "ticks": 18048,
          "time": 137.560916,
          "velocity": 0.7480314960629921
        },
        {
          "duration": 0.16768285416665663,
          "durationTicks": 22,
          "midi": 38,
          "name": "D2",
          "ticks": 18096,
          "time": 137.9267695,
          "velocity": 0.7480314960629921
        },
        {
          "duration": 0.16768285416665663,
          "durationTicks": 22,
          "midi": 36,
          "name": "C2",
          "ticks": 18096,
          "time": 137.9267695,
          "velocity": 0.7480314960629921
        },
        {
          "duration": 0.16768285416665663,
          "durationTicks": 22,
          "midi": 42,
          "name": "F#2",
          "ticks": 18096,
          "time": 137.9267695,
          "velocity": 0.7480314960629921
        },
        {
          "duration": 0.16768285416665663,
          "durationTicks": 22,
          "midi": 38,
          "name": "D2",
          "ticks": 18144,
          "time": 138.292623,
          "velocity": 0.7480314960629921
        },
        {
          "duration": 0.16768285416665663,
          "durationTicks": 22,
          "midi": 36,
          "name": "C2",
          "ticks": 18144,
          "time": 138.292623,
          "velocity": 0.7480314960629921
        },
        {
          "duration": 0.16768285416665663,
          "durationTicks": 22,
          "midi": 42,
          "name": "F#2",
          "ticks": 18144,
          "time": 138.292623,
          "velocity": 0.7480314960629921
        },
        {
          "duration": 0.16768285416665663,
          "durationTicks": 22,
          "midi": 38,
          "name": "D2",
          "ticks": 18192,
          "time": 138.6584765,
          "velocity": 0.7480314960629921
        },
        {
          "duration": 0.16768285416665663,
          "durationTicks": 22,
          "midi": 36,
          "name": "C2",
          "ticks": 18192,
          "time": 138.6584765,
          "velocity": 0.7480314960629921
        },
        {
          "duration": 0.16768285416665663,
          "durationTicks": 22,
          "midi": 42,
          "name": "F#2",
          "ticks": 18192,
          "time": 138.6584765,
          "velocity": 0.7480314960629921
        },
        {
          "duration": 0.16768285416665663,
          "durationTicks": 22,
          "midi": 38,
          "name": "D2",
          "ticks": 18240,
          "time": 139.02433,
          "velocity": 0.7480314960629921
        },
        {
          "duration": 0.16768285416665663,
          "durationTicks": 22,
          "midi": 36,
          "name": "C2",
          "ticks": 18240,
          "time": 139.02433,
          "velocity": 0.7480314960629921
        },
        {
          "duration": 0.16768285416665663,
          "durationTicks": 22,
          "midi": 42,
          "name": "F#2",
          "ticks": 18240,
          "time": 139.02433,
          "velocity": 0.7480314960629921
        },
        {
          "duration": 0.16768285416665663,
          "durationTicks": 22,
          "midi": 38,
          "name": "D2",
          "ticks": 18288,
          "time": 139.3901835,
          "velocity": 0.7480314960629921
        },
        {
          "duration": 0.16768285416665663,
          "durationTicks": 22,
          "midi": 36,
          "name": "C2",
          "ticks": 18288,
          "time": 139.3901835,
          "velocity": 0.7480314960629921
        },
        {
          "duration": 0.16768285416665663,
          "durationTicks": 22,
          "midi": 42,
          "name": "F#2",
          "ticks": 18288,
          "time": 139.3901835,
          "velocity": 0.7480314960629921
        },
        {
          "duration": 0.16768285416665663,
          "durationTicks": 22,
          "midi": 38,
          "name": "D2",
          "ticks": 18336,
          "time": 139.756037,
          "velocity": 0.7480314960629921
        },
        {
          "duration": 0.16768285416665663,
          "durationTicks": 22,
          "midi": 36,
          "name": "C2",
          "ticks": 18336,
          "time": 139.756037,
          "velocity": 0.7480314960629921
        },
        {
          "duration": 0.16768285416665663,
          "durationTicks": 22,
          "midi": 42,
          "name": "F#2",
          "ticks": 18336,
          "time": 139.756037,
          "velocity": 0.7480314960629921
        },
        {
          "duration": 0.16768285416665663,
          "durationTicks": 22,
          "midi": 38,
          "name": "D2",
          "ticks": 18384,
          "time": 140.1218905,
          "velocity": 0.7480314960629921
        },
        {
          "duration": 0.16768285416665663,
          "durationTicks": 22,
          "midi": 36,
          "name": "C2",
          "ticks": 18384,
          "time": 140.1218905,
          "velocity": 0.7480314960629921
        },
        {
          "duration": 0.16768285416665663,
          "durationTicks": 22,
          "midi": 42,
          "name": "F#2",
          "ticks": 18384,
          "time": 140.1218905,
          "velocity": 0.7480314960629921
        },
        {
          "duration": 0.24390233333335232,
          "durationTicks": 32,
          "midi": 38,
          "name": "D2",
          "ticks": 18432,
          "time": 140.487744,
          "velocity": 0.7480314960629921
        },
        {
          "duration": 0.24390233333335232,
          "durationTicks": 32,
          "midi": 36,
          "name": "C2",
          "ticks": 18432,
          "time": 140.487744,
          "velocity": 0.7480314960629921
        },
        {
          "duration": 0.24390233333335232,
          "durationTicks": 32,
          "midi": 42,
          "name": "F#2",
          "ticks": 18432,
          "time": 140.487744,
          "velocity": 0.7480314960629921
        },
        {
          "duration": 0.2439023333333239,
          "durationTicks": 32,
          "midi": 38,
          "name": "D2",
          "ticks": 18480,
          "time": 140.8535975,
          "velocity": 0.7480314960629921
        },
        {
          "duration": 0.2439023333333239,
          "durationTicks": 32,
          "midi": 36,
          "name": "C2",
          "ticks": 18480,
          "time": 140.8535975,
          "velocity": 0.7480314960629921
        },
        {
          "duration": 0.2439023333333239,
          "durationTicks": 32,
          "midi": 42,
          "name": "F#2",
          "ticks": 18480,
          "time": 140.8535975,
          "velocity": 0.7480314960629921
        },
        {
          "duration": 0.24390233333335232,
          "durationTicks": 32,
          "midi": 38,
          "name": "D2",
          "ticks": 18528,
          "time": 141.219451,
          "velocity": 0.7480314960629921
        },
        {
          "duration": 0.24390233333335232,
          "durationTicks": 32,
          "midi": 36,
          "name": "C2",
          "ticks": 18528,
          "time": 141.219451,
          "velocity": 0.7480314960629921
        },
        {
          "duration": 0.24390233333335232,
          "durationTicks": 32,
          "midi": 42,
          "name": "F#2",
          "ticks": 18528,
          "time": 141.219451,
          "velocity": 0.7480314960629921
        },
        {
          "duration": 0.2439023333333239,
          "durationTicks": 32,
          "midi": 38,
          "name": "D2",
          "ticks": 18576,
          "time": 141.5853045,
          "velocity": 0.7480314960629921
        },
        {
          "duration": 0.2439023333333239,
          "durationTicks": 32,
          "midi": 36,
          "name": "C2",
          "ticks": 18576,
          "time": 141.5853045,
          "velocity": 0.7480314960629921
        },
        {
          "duration": 0.2439023333333239,
          "durationTicks": 32,
          "midi": 42,
          "name": "F#2",
          "ticks": 18576,
          "time": 141.5853045,
          "velocity": 0.7480314960629921
        },
        {
          "duration": 0.24390233333335232,
          "durationTicks": 32,
          "midi": 38,
          "name": "D2",
          "ticks": 18624,
          "time": 141.951158,
          "velocity": 0.7480314960629921
        },
        {
          "duration": 0.12195116666666195,
          "durationTicks": 16,
          "midi": 36,
          "name": "C2",
          "ticks": 18624,
          "time": 141.951158,
          "velocity": 0.7480314960629921
        },
        {
          "duration": 0.24390233333335232,
          "durationTicks": 32,
          "midi": 42,
          "name": "F#2",
          "ticks": 18624,
          "time": 141.951158,
          "velocity": 0.7480314960629921
        },
        {
          "duration": 0.2439023333333239,
          "durationTicks": 32,
          "midi": 38,
          "name": "D2",
          "ticks": 18672,
          "time": 142.3170115,
          "velocity": 0.7480314960629921
        },
        {
          "duration": 0.12195116666666195,
          "durationTicks": 16,
          "midi": 36,
          "name": "C2",
          "ticks": 18672,
          "time": 142.3170115,
          "velocity": 0.7480314960629921
        },
        {
          "duration": 0.2439023333333239,
          "durationTicks": 32,
          "midi": 42,
          "name": "F#2",
          "ticks": 18672,
          "time": 142.3170115,
          "velocity": 0.7480314960629921
        },
        {
          "duration": 0.24390233333335232,
          "durationTicks": 32,
          "midi": 38,
          "name": "D2",
          "ticks": 18720,
          "time": 142.682865,
          "velocity": 0.7480314960629921
        },
        {
          "duration": 0.12195116666666195,
          "durationTicks": 16,
          "midi": 36,
          "name": "C2",
          "ticks": 18720,
          "time": 142.682865,
          "velocity": 0.7480314960629921
        },
        {
          "duration": 0.24390233333335232,
          "durationTicks": 32,
          "midi": 42,
          "name": "F#2",
          "ticks": 18720,
          "time": 142.682865,
          "velocity": 0.7480314960629921
        },
        {
          "duration": 0.2439023333333239,
          "durationTicks": 32,
          "midi": 38,
          "name": "D2",
          "ticks": 18768,
          "time": 143.0487185,
          "velocity": 0.7480314960629921
        },
        {
          "duration": 0.12195116666666195,
          "durationTicks": 16,
          "midi": 36,
          "name": "C2",
          "ticks": 18768,
          "time": 143.0487185,
          "velocity": 0.7480314960629921
        },
        {
          "duration": 0.2439023333333239,
          "durationTicks": 32,
          "midi": 42,
          "name": "F#2",
          "ticks": 18768,
          "time": 143.0487185,
          "velocity": 0.7480314960629921
        },
        {
          "duration": 0.24390233333335232,
          "durationTicks": 32,
          "midi": 42,
          "name": "F#2",
          "ticks": 18816,
          "time": 143.414572,
          "velocity": 0.7480314960629921
        },
        {
          "duration": 0.12195116666666195,
          "durationTicks": 16,
          "midi": 36,
          "name": "C2",
          "ticks": 18816,
          "time": 143.414572,
          "velocity": 0.7480314960629921
        },
        {
          "duration": 0.24390233333335232,
          "durationTicks": 32,
          "midi": 38,
          "name": "D2",
          "ticks": 18816,
          "time": 143.414572,
          "velocity": 0.7480314960629921
        },
        {
          "duration": 0.2439023333333239,
          "durationTicks": 32,
          "midi": 38,
          "name": "D2",
          "ticks": 18864,
          "time": 143.7804255,
          "velocity": 0.7480314960629921
        },
        {
          "duration": 0.12195116666666195,
          "durationTicks": 16,
          "midi": 36,
          "name": "C2",
          "ticks": 18864,
          "time": 143.7804255,
          "velocity": 0.7480314960629921
        },
        {
          "duration": 0.2439023333333239,
          "durationTicks": 32,
          "midi": 42,
          "name": "F#2",
          "ticks": 18864,
          "time": 143.7804255,
          "velocity": 0.7480314960629921
        },
        {
          "duration": 0.24390233333335232,
          "durationTicks": 32,
          "midi": 38,
          "name": "D2",
          "ticks": 18912,
          "time": 144.146279,
          "velocity": 0.7480314960629921
        },
        {
          "duration": 0.12195116666666195,
          "durationTicks": 16,
          "midi": 36,
          "name": "C2",
          "ticks": 18912,
          "time": 144.146279,
          "velocity": 0.7480314960629921
        },
        {
          "duration": 0.24390233333335232,
          "durationTicks": 32,
          "midi": 42,
          "name": "F#2",
          "ticks": 18912,
          "time": 144.146279,
          "velocity": 0.7480314960629921
        },
        {
          "duration": 0.2439023333333239,
          "durationTicks": 32,
          "midi": 38,
          "name": "D2",
          "ticks": 18960,
          "time": 144.5121325,
          "velocity": 0.7480314960629921
        },
        {
          "duration": 0.12195116666666195,
          "durationTicks": 16,
          "midi": 36,
          "name": "C2",
          "ticks": 18960,
          "time": 144.5121325,
          "velocity": 0.7480314960629921
        },
        {
          "duration": 0.2439023333333239,
          "durationTicks": 32,
          "midi": 46,
          "name": "A#2",
          "ticks": 18960,
          "time": 144.5121325,
          "velocity": 0.7480314960629921
        },
        {
          "duration": 0.12195116666666195,
          "durationTicks": 16,
          "midi": 38,
          "name": "D2",
          "ticks": 19008,
          "time": 144.877986,
          "velocity": 0.7480314960629921
        },
        {
          "duration": 0.12195116666666195,
          "durationTicks": 16,
          "midi": 36,
          "name": "C2",
          "ticks": 19008,
          "time": 144.877986,
          "velocity": 0.7480314960629921
        },
        {
          "duration": 0.12195116666666195,
          "durationTicks": 16,
          "midi": 42,
          "name": "F#2",
          "ticks": 19008,
          "time": 144.877986,
          "velocity": 0.7480314960629921
        },
        {
          "duration": 0.12195116666666195,
          "durationTicks": 16,
          "midi": 38,
          "name": "D2",
          "ticks": 19056,
          "time": 145.2438395,
          "velocity": 0.7480314960629921
        },
        {
          "duration": 0.12195116666666195,
          "durationTicks": 16,
          "midi": 36,
          "name": "C2",
          "ticks": 19056,
          "time": 145.2438395,
          "velocity": 0.7480314960629921
        },
        {
          "duration": 0.12195116666666195,
          "durationTicks": 16,
          "midi": 42,
          "name": "F#2",
          "ticks": 19056,
          "time": 145.2438395,
          "velocity": 0.7480314960629921
        },
        {
          "duration": 0.12195116666666195,
          "durationTicks": 16,
          "midi": 38,
          "name": "D2",
          "ticks": 19104,
          "time": 145.609693,
          "velocity": 0.7480314960629921
        },
        {
          "duration": 0.12195116666666195,
          "durationTicks": 16,
          "midi": 36,
          "name": "C2",
          "ticks": 19104,
          "time": 145.609693,
          "velocity": 0.7480314960629921
        },
        {
          "duration": 0.12195116666666195,
          "durationTicks": 16,
          "midi": 42,
          "name": "F#2",
          "ticks": 19104,
          "time": 145.609693,
          "velocity": 0.7480314960629921
        },
        {
          "duration": 0.12195116666666195,
          "durationTicks": 16,
          "midi": 38,
          "name": "D2",
          "ticks": 19152,
          "time": 145.9755465,
          "velocity": 0.7480314960629921
        },
        {
          "duration": 0.12195116666666195,
          "durationTicks": 16,
          "midi": 36,
          "name": "C2",
          "ticks": 19152,
          "time": 145.9755465,
          "velocity": 0.7480314960629921
        },
        {
          "duration": 0.12195116666666195,
          "durationTicks": 16,
          "midi": 42,
          "name": "F#2",
          "ticks": 19152,
          "time": 145.9755465,
          "velocity": 0.7480314960629921
        },
        {
          "duration": 0.12195116666666195,
          "durationTicks": 16,
          "midi": 38,
          "name": "D2",
          "ticks": 19200,
          "time": 146.3414,
          "velocity": 0.7480314960629921
        },
        {
          "duration": 0.12195116666666195,
          "durationTicks": 16,
          "midi": 36,
          "name": "C2",
          "ticks": 19200,
          "time": 146.3414,
          "velocity": 0.7480314960629921
        },
        {
          "duration": 0.12195116666666195,
          "durationTicks": 16,
          "midi": 42,
          "name": "F#2",
          "ticks": 19200,
          "time": 146.3414,
          "velocity": 0.7480314960629921
        },
        {
          "duration": 0.12195116666666195,
          "durationTicks": 16,
          "midi": 38,
          "name": "D2",
          "ticks": 19248,
          "time": 146.7072535,
          "velocity": 0.7480314960629921
        },
        {
          "duration": 0.12195116666666195,
          "durationTicks": 16,
          "midi": 36,
          "name": "C2",
          "ticks": 19248,
          "time": 146.7072535,
          "velocity": 0.7480314960629921
        },
        {
          "duration": 0.12195116666666195,
          "durationTicks": 16,
          "midi": 46,
          "name": "A#2",
          "ticks": 19248,
          "time": 146.7072535,
          "velocity": 0.7480314960629921
        },
        {
          "duration": 0.12195116666666195,
          "durationTicks": 16,
          "midi": 38,
          "name": "D2",
          "ticks": 19296,
          "time": 147.073107,
          "velocity": 0.7480314960629921
        },
        {
          "duration": 0.12195116666666195,
          "durationTicks": 16,
          "midi": 36,
          "name": "C2",
          "ticks": 19296,
          "time": 147.073107,
          "velocity": 0.7480314960629921
        },
        {
          "duration": 0.12195116666666195,
          "durationTicks": 16,
          "midi": 42,
          "name": "F#2",
          "ticks": 19296,
          "time": 147.073107,
          "velocity": 0.7480314960629921
        },
        {
          "duration": 0.12195116666666195,
          "durationTicks": 16,
          "midi": 38,
          "name": "D2",
          "ticks": 19344,
          "time": 147.4389605,
          "velocity": 0.7480314960629921
        },
        {
          "duration": 0.12195116666666195,
          "durationTicks": 16,
          "midi": 36,
          "name": "C2",
          "ticks": 19344,
          "time": 147.4389605,
          "velocity": 0.7480314960629921
        },
        {
          "duration": 0.12195116666666195,
          "durationTicks": 16,
          "midi": 46,
          "name": "A#2",
          "ticks": 19344,
          "time": 147.4389605,
          "velocity": 0.7480314960629921
        },
        {
          "duration": 0.12195116666666195,
          "durationTicks": 16,
          "midi": 38,
          "name": "D2",
          "ticks": 19392,
          "time": 147.804814,
          "velocity": 0.7480314960629921
        },
        {
          "duration": 0.12195116666666195,
          "durationTicks": 16,
          "midi": 36,
          "name": "C2",
          "ticks": 19392,
          "time": 147.804814,
          "velocity": 0.7480314960629921
        },
        {
          "duration": 0.12195116666666195,
          "durationTicks": 16,
          "midi": 42,
          "name": "F#2",
          "ticks": 19392,
          "time": 147.804814,
          "velocity": 0.7480314960629921
        },
        {
          "duration": 0.12195116666666195,
          "durationTicks": 16,
          "midi": 38,
          "name": "D2",
          "ticks": 19440,
          "time": 148.1706675,
          "velocity": 0.7480314960629921
        },
        {
          "duration": 0.12195116666666195,
          "durationTicks": 16,
          "midi": 36,
          "name": "C2",
          "ticks": 19440,
          "time": 148.1706675,
          "velocity": 0.7480314960629921
        },
        {
          "duration": 0.12195116666666195,
          "durationTicks": 16,
          "midi": 42,
          "name": "F#2",
          "ticks": 19440,
          "time": 148.1706675,
          "velocity": 0.7480314960629921
        },
        {
          "duration": 0.12195116666666195,
          "durationTicks": 16,
          "midi": 38,
          "name": "D2",
          "ticks": 19488,
          "time": 148.536521,
          "velocity": 0.7480314960629921
        },
        {
          "duration": 0.12195116666666195,
          "durationTicks": 16,
          "midi": 36,
          "name": "C2",
          "ticks": 19488,
          "time": 148.536521,
          "velocity": 0.7480314960629921
        },
        {
          "duration": 0.12195116666666195,
          "durationTicks": 16,
          "midi": 42,
          "name": "F#2",
          "ticks": 19488,
          "time": 148.536521,
          "velocity": 0.7480314960629921
        },
        {
          "duration": 0.12195116666666195,
          "durationTicks": 16,
          "midi": 38,
          "name": "D2",
          "ticks": 19536,
          "time": 148.9023745,
          "velocity": 0.7480314960629921
        },
        {
          "duration": 0.12195116666666195,
          "durationTicks": 16,
          "midi": 36,
          "name": "C2",
          "ticks": 19536,
          "time": 148.9023745,
          "velocity": 0.7480314960629921
        },
        {
          "duration": 0.12195116666666195,
          "durationTicks": 16,
          "midi": 42,
          "name": "F#2",
          "ticks": 19536,
          "time": 148.9023745,
          "velocity": 0.7480314960629921
        },
        {
          "duration": 0.12195116666666195,
          "durationTicks": 16,
          "midi": 38,
          "name": "D2",
          "ticks": 19584,
          "time": 149.268228,
          "velocity": 0.7480314960629921
        },
        {
          "duration": 0.12195116666666195,
          "durationTicks": 16,
          "midi": 36,
          "name": "C2",
          "ticks": 19584,
          "time": 149.268228,
          "velocity": 0.7480314960629921
        },
        {
          "duration": 0.12195116666666195,
          "durationTicks": 16,
          "midi": 42,
          "name": "F#2",
          "ticks": 19584,
          "time": 149.268228,
          "velocity": 0.7480314960629921
        },
        {
          "duration": 0.12195116666666195,
          "durationTicks": 16,
          "midi": 38,
          "name": "D2",
          "ticks": 19632,
          "time": 149.6340815,
          "velocity": 0.7480314960629921
        },
        {
          "duration": 0.12195116666666195,
          "durationTicks": 16,
          "midi": 36,
          "name": "C2",
          "ticks": 19632,
          "time": 149.6340815,
          "velocity": 0.7480314960629921
        },
        {
          "duration": 0.060975583333345185,
          "durationTicks": 8,
          "midi": 42,
          "name": "F#2",
          "ticks": 19632,
          "time": 149.6340815,
          "velocity": 0.7480314960629921
        },
        {
          "duration": 0.12195116666666195,
          "durationTicks": 16,
          "midi": 38,
          "name": "D2",
          "ticks": 19680,
          "time": 149.999935,
          "velocity": 0.7480314960629921
        },
        {
          "duration": 0.12195116666666195,
          "durationTicks": 16,
          "midi": 36,
          "name": "C2",
          "ticks": 19680,
          "time": 149.999935,
          "velocity": 0.7480314960629921
        },
        {
          "duration": 0.12195116666666195,
          "durationTicks": 16,
          "midi": 42,
          "name": "F#2",
          "ticks": 19680,
          "time": 149.999935,
          "velocity": 0.7480314960629921
        },
        {
          "duration": 0.12195116666666195,
          "durationTicks": 16,
          "midi": 38,
          "name": "D2",
          "ticks": 19728,
          "time": 150.3657885,
          "velocity": 0.7480314960629921
        },
        {
          "duration": 0.12195116666666195,
          "durationTicks": 16,
          "midi": 36,
          "name": "C2",
          "ticks": 19728,
          "time": 150.3657885,
          "velocity": 0.7480314960629921
        },
        {
          "duration": 0.12195116666666195,
          "durationTicks": 16,
          "midi": 46,
          "name": "A#2",
          "ticks": 19728,
          "time": 150.3657885,
          "velocity": 0.7480314960629921
        },
        {
          "duration": 0.12195116666666195,
          "durationTicks": 16,
          "midi": 38,
          "name": "D2",
          "ticks": 19776,
          "time": 150.731642,
          "velocity": 0.7480314960629921
        },
        {
          "duration": 0.12195116666666195,
          "durationTicks": 16,
          "midi": 36,
          "name": "C2",
          "ticks": 19776,
          "time": 150.731642,
          "velocity": 0.7480314960629921
        },
        {
          "duration": 0.12195116666666195,
          "durationTicks": 16,
          "midi": 42,
          "name": "F#2",
          "ticks": 19776,
          "time": 150.731642,
          "velocity": 0.7480314960629921
        },
        {
          "duration": 0.12195116666666195,
          "durationTicks": 16,
          "midi": 38,
          "name": "D2",
          "ticks": 19824,
          "time": 151.0974955,
          "velocity": 0.7480314960629921
        },
        {
          "duration": 0.12195116666666195,
          "durationTicks": 16,
          "midi": 36,
          "name": "C2",
          "ticks": 19824,
          "time": 151.0974955,
          "velocity": 0.7480314960629921
        },
        {
          "duration": 0.12195116666666195,
          "durationTicks": 16,
          "midi": 42,
          "name": "F#2",
          "ticks": 19824,
          "time": 151.0974955,
          "velocity": 0.7480314960629921
        },
        {
          "duration": 0.12195116666666195,
          "durationTicks": 16,
          "midi": 38,
          "name": "D2",
          "ticks": 19872,
          "time": 151.463349,
          "velocity": 0.7480314960629921
        },
        {
          "duration": 0.12195116666666195,
          "durationTicks": 16,
          "midi": 36,
          "name": "C2",
          "ticks": 19872,
          "time": 151.463349,
          "velocity": 0.7480314960629921
        },
        {
          "duration": 0.12195116666666195,
          "durationTicks": 16,
          "midi": 42,
          "name": "F#2",
          "ticks": 19872,
          "time": 151.463349,
          "velocity": 0.7480314960629921
        },
        {
          "duration": 0.12195116666666195,
          "durationTicks": 16,
          "midi": 38,
          "name": "D2",
          "ticks": 19920,
          "time": 151.8292025,
          "velocity": 0.7480314960629921
        },
        {
          "duration": 0.12195116666666195,
          "durationTicks": 16,
          "midi": 36,
          "name": "C2",
          "ticks": 19920,
          "time": 151.8292025,
          "velocity": 0.7480314960629921
        },
        {
          "duration": 0.12195116666666195,
          "durationTicks": 16,
          "midi": 42,
          "name": "F#2",
          "ticks": 19920,
          "time": 151.8292025,
          "velocity": 0.7480314960629921
        },
        {
          "duration": 0.12195116666666195,
          "durationTicks": 16,
          "midi": 38,
          "name": "D2",
          "ticks": 19968,
          "time": 152.195056,
          "velocity": 0.7480314960629921
        },
        {
          "duration": 0.12195116666666195,
          "durationTicks": 16,
          "midi": 36,
          "name": "C2",
          "ticks": 19968,
          "time": 152.195056,
          "velocity": 0.7480314960629921
        },
        {
          "duration": 0.12195116666666195,
          "durationTicks": 16,
          "midi": 42,
          "name": "F#2",
          "ticks": 19968,
          "time": 152.195056,
          "velocity": 0.7480314960629921
        },
        {
          "duration": 0.12195116666666195,
          "durationTicks": 16,
          "midi": 38,
          "name": "D2",
          "ticks": 20016,
          "time": 152.5609095,
          "velocity": 0.7480314960629921
        },
        {
          "duration": 0.12195116666666195,
          "durationTicks": 16,
          "midi": 36,
          "name": "C2",
          "ticks": 20016,
          "time": 152.5609095,
          "velocity": 0.7480314960629921
        },
        {
          "duration": 0.12195116666666195,
          "durationTicks": 16,
          "midi": 42,
          "name": "F#2",
          "ticks": 20016,
          "time": 152.5609095,
          "velocity": 0.7480314960629921
        },
        {
          "duration": 0.12195116666666195,
          "durationTicks": 16,
          "midi": 38,
          "name": "D2",
          "ticks": 20064,
          "time": 152.926763,
          "velocity": 0.7480314960629921
        },
        {
          "duration": 0.12195116666666195,
          "durationTicks": 16,
          "midi": 36,
          "name": "C2",
          "ticks": 20064,
          "time": 152.926763,
          "velocity": 0.7480314960629921
        },
        {
          "duration": 0.12195116666666195,
          "durationTicks": 16,
          "midi": 42,
          "name": "F#2",
          "ticks": 20064,
          "time": 152.926763,
          "velocity": 0.7480314960629921
        },
        {
          "duration": 0.12195116666666195,
          "durationTicks": 16,
          "midi": 38,
          "name": "D2",
          "ticks": 20112,
          "time": 153.2926165,
          "velocity": 0.7480314960629921
        },
        {
          "duration": 0.12195116666666195,
          "durationTicks": 16,
          "midi": 36,
          "name": "C2",
          "ticks": 20112,
          "time": 153.2926165,
          "velocity": 0.7480314960629921
        },
        {
          "duration": 0.12195116666666195,
          "durationTicks": 16,
          "midi": 42,
          "name": "F#2",
          "ticks": 20112,
          "time": 153.2926165,
          "velocity": 0.7480314960629921
        },
        {
          "duration": 0.12195116666666195,
          "durationTicks": 16,
          "midi": 38,
          "name": "D2",
          "ticks": 20160,
          "time": 153.65847,
          "velocity": 0.7480314960629921
        },
        {
          "duration": 0.12195116666666195,
          "durationTicks": 16,
          "midi": 36,
          "name": "C2",
          "ticks": 20160,
          "time": 153.65847,
          "velocity": 0.7480314960629921
        },
        {
          "duration": 0.12195116666666195,
          "durationTicks": 16,
          "midi": 42,
          "name": "F#2",
          "ticks": 20160,
          "time": 153.65847,
          "velocity": 0.7480314960629921
        },
        {
          "duration": 0.12195116666666195,
          "durationTicks": 16,
          "midi": 38,
          "name": "D2",
          "ticks": 20208,
          "time": 154.0243235,
          "velocity": 0.7480314960629921
        },
        {
          "duration": 0.12195116666666195,
          "durationTicks": 16,
          "midi": 36,
          "name": "C2",
          "ticks": 20208,
          "time": 154.0243235,
          "velocity": 0.7480314960629921
        },
        {
          "duration": 0.060975583333345185,
          "durationTicks": 8,
          "midi": 42,
          "name": "F#2",
          "ticks": 20208,
          "time": 154.0243235,
          "velocity": 0.7480314960629921
        },
        {
          "duration": 0.12195116666666195,
          "durationTicks": 16,
          "midi": 38,
          "name": "D2",
          "ticks": 20256,
          "time": 154.390177,
          "velocity": 0.7480314960629921
        },
        {
          "duration": 0.12195116666666195,
          "durationTicks": 16,
          "midi": 36,
          "name": "C2",
          "ticks": 20256,
          "time": 154.390177,
          "velocity": 0.7480314960629921
        },
        {
          "duration": 0.12195116666666195,
          "durationTicks": 16,
          "midi": 42,
          "name": "F#2",
          "ticks": 20256,
          "time": 154.390177,
          "velocity": 0.7480314960629921
        },
        {
          "duration": 0.12195116666666195,
          "durationTicks": 16,
          "midi": 38,
          "name": "D2",
          "ticks": 20304,
          "time": 154.7560305,
          "velocity": 0.7480314960629921
        },
        {
          "duration": 0.12195116666666195,
          "durationTicks": 16,
          "midi": 36,
          "name": "C2",
          "ticks": 20304,
          "time": 154.7560305,
          "velocity": 0.7480314960629921
        },
        {
          "duration": 0.12195116666666195,
          "durationTicks": 16,
          "midi": 46,
          "name": "A#2",
          "ticks": 20304,
          "time": 154.7560305,
          "velocity": 0.7480314960629921
        },
        {
          "duration": 0.24390233333335232,
          "durationTicks": 32,
          "midi": 38,
          "name": "D2",
          "ticks": 20352,
          "time": 155.121884,
          "velocity": 0.7480314960629921
        },
        {
          "duration": 0.24390233333335232,
          "durationTicks": 32,
          "midi": 36,
          "name": "C2",
          "ticks": 20352,
          "time": 155.121884,
          "velocity": 0.7480314960629921
        },
        {
          "duration": 0.24390233333335232,
          "durationTicks": 32,
          "midi": 42,
          "name": "F#2",
          "ticks": 20352,
          "time": 155.121884,
          "velocity": 0.7480314960629921
        },
        {
          "duration": 0.2439023333333239,
          "durationTicks": 32,
          "midi": 38,
          "name": "D2",
          "ticks": 20400,
          "time": 155.4877375,
          "velocity": 0.7480314960629921
        },
        {
          "duration": 0.2439023333333239,
          "durationTicks": 32,
          "midi": 36,
          "name": "C2",
          "ticks": 20400,
          "time": 155.4877375,
          "velocity": 0.7480314960629921
        },
        {
          "duration": 0.2439023333333239,
          "durationTicks": 32,
          "midi": 42,
          "name": "F#2",
          "ticks": 20400,
          "time": 155.4877375,
          "velocity": 0.7480314960629921
        },
        {
          "duration": 0.24390233333335232,
          "durationTicks": 32,
          "midi": 38,
          "name": "D2",
          "ticks": 20448,
          "time": 155.853591,
          "velocity": 0.7480314960629921
        },
        {
          "duration": 0.24390233333335232,
          "durationTicks": 32,
          "midi": 36,
          "name": "C2",
          "ticks": 20448,
          "time": 155.853591,
          "velocity": 0.7480314960629921
        },
        {
          "duration": 0.24390233333335232,
          "durationTicks": 32,
          "midi": 42,
          "name": "F#2",
          "ticks": 20448,
          "time": 155.853591,
          "velocity": 0.7480314960629921
        },
        {
          "duration": 0.2439023333333239,
          "durationTicks": 32,
          "midi": 38,
          "name": "D2",
          "ticks": 20496,
          "time": 156.2194445,
          "velocity": 0.7480314960629921
        },
        {
          "duration": 0.2439023333333239,
          "durationTicks": 32,
          "midi": 36,
          "name": "C2",
          "ticks": 20496,
          "time": 156.2194445,
          "velocity": 0.7480314960629921
        },
        {
          "duration": 0.2439023333333239,
          "durationTicks": 32,
          "midi": 42,
          "name": "F#2",
          "ticks": 20496,
          "time": 156.2194445,
          "velocity": 0.7480314960629921
        },
        {
          "duration": 0.12195116666666195,
          "durationTicks": 16,
          "midi": 38,
          "name": "D2",
          "ticks": 20544,
          "time": 156.585298,
          "velocity": 0.7480314960629921
        },
        {
          "duration": 0.12195116666666195,
          "durationTicks": 16,
          "midi": 36,
          "name": "C2",
          "ticks": 20544,
          "time": 156.585298,
          "velocity": 0.7480314960629921
        },
        {
          "duration": 0.12195116666666195,
          "durationTicks": 16,
          "midi": 42,
          "name": "F#2",
          "ticks": 20544,
          "time": 156.585298,
          "velocity": 0.7480314960629921
        },
        {
          "duration": 0.12195116666666195,
          "durationTicks": 16,
          "midi": 38,
          "name": "D2",
          "ticks": 20592,
          "time": 156.9511515,
          "velocity": 0.7480314960629921
        },
        {
          "duration": 0.12195116666666195,
          "durationTicks": 16,
          "midi": 36,
          "name": "C2",
          "ticks": 20592,
          "time": 156.9511515,
          "velocity": 0.7480314960629921
        },
        {
          "duration": 0.12195116666666195,
          "durationTicks": 16,
          "midi": 42,
          "name": "F#2",
          "ticks": 20592,
          "time": 156.9511515,
          "velocity": 0.7480314960629921
        },
        {
          "duration": 0.12195116666666195,
          "durationTicks": 16,
          "midi": 38,
          "name": "D2",
          "ticks": 20640,
          "time": 157.317005,
          "velocity": 0.7480314960629921
        },
        {
          "duration": 0.12195116666666195,
          "durationTicks": 16,
          "midi": 36,
          "name": "C2",
          "ticks": 20640,
          "time": 157.317005,
          "velocity": 0.7480314960629921
        },
        {
          "duration": 0.12195116666666195,
          "durationTicks": 16,
          "midi": 42,
          "name": "F#2",
          "ticks": 20640,
          "time": 157.317005,
          "velocity": 0.7480314960629921
        },
        {
          "duration": 0.12195116666666195,
          "durationTicks": 16,
          "midi": 38,
          "name": "D2",
          "ticks": 20688,
          "time": 157.6828585,
          "velocity": 0.7480314960629921
        },
        {
          "duration": 0.12195116666666195,
          "durationTicks": 16,
          "midi": 36,
          "name": "C2",
          "ticks": 20688,
          "time": 157.6828585,
          "velocity": 0.7480314960629921
        },
        {
          "duration": 0.12195116666666195,
          "durationTicks": 16,
          "midi": 42,
          "name": "F#2",
          "ticks": 20688,
          "time": 157.6828585,
          "velocity": 0.7480314960629921
        },
        {
          "duration": 0.12195116666666195,
          "durationTicks": 16,
          "midi": 38,
          "name": "D2",
          "ticks": 20736,
          "time": 158.048712,
          "velocity": 0.7480314960629921
        },
        {
          "duration": 0.12195116666666195,
          "durationTicks": 16,
          "midi": 36,
          "name": "C2",
          "ticks": 20736,
          "time": 158.048712,
          "velocity": 0.7480314960629921
        },
        {
          "duration": 0.12195116666666195,
          "durationTicks": 16,
          "midi": 42,
          "name": "F#2",
          "ticks": 20736,
          "time": 158.048712,
          "velocity": 0.7480314960629921
        },
        {
          "duration": 0.12195116666666195,
          "durationTicks": 16,
          "midi": 38,
          "name": "D2",
          "ticks": 20784,
          "time": 158.4145655,
          "velocity": 0.7480314960629921
        },
        {
          "duration": 0.12195116666666195,
          "durationTicks": 16,
          "midi": 36,
          "name": "C2",
          "ticks": 20784,
          "time": 158.4145655,
          "velocity": 0.7480314960629921
        },
        {
          "duration": 0.06097558333331676,
          "durationTicks": 8,
          "midi": 42,
          "name": "F#2",
          "ticks": 20784,
          "time": 158.4145655,
          "velocity": 0.7480314960629921
        },
        {
          "duration": 0.12195116666666195,
          "durationTicks": 16,
          "midi": 38,
          "name": "D2",
          "ticks": 20832,
          "time": 158.780419,
          "velocity": 0.7480314960629921
        },
        {
          "duration": 0.12195116666666195,
          "durationTicks": 16,
          "midi": 36,
          "name": "C2",
          "ticks": 20832,
          "time": 158.780419,
          "velocity": 0.7480314960629921
        },
        {
          "duration": 0.12195116666666195,
          "durationTicks": 16,
          "midi": 42,
          "name": "F#2",
          "ticks": 20832,
          "time": 158.780419,
          "velocity": 0.7480314960629921
        },
        {
          "duration": 0.12195116666666195,
          "durationTicks": 16,
          "midi": 38,
          "name": "D2",
          "ticks": 20880,
          "time": 159.1462725,
          "velocity": 0.7480314960629921
        },
        {
          "duration": 0.12195116666666195,
          "durationTicks": 16,
          "midi": 36,
          "name": "C2",
          "ticks": 20880,
          "time": 159.1462725,
          "velocity": 0.7480314960629921
        },
        {
          "duration": 0.12195116666666195,
          "durationTicks": 16,
          "midi": 46,
          "name": "A#2",
          "ticks": 20880,
          "time": 159.1462725,
          "velocity": 0.7480314960629921
        },
        {
          "duration": 0.12195116666666195,
          "durationTicks": 16,
          "midi": 38,
          "name": "D2",
          "ticks": 20928,
          "time": 159.512126,
          "velocity": 0.7480314960629921
        },
        {
          "duration": 0.12195116666666195,
          "durationTicks": 16,
          "midi": 36,
          "name": "C2",
          "ticks": 20928,
          "time": 159.512126,
          "velocity": 0.7480314960629921
        },
        {
          "duration": 0.12195116666666195,
          "durationTicks": 16,
          "midi": 42,
          "name": "F#2",
          "ticks": 20928,
          "time": 159.512126,
          "velocity": 0.7480314960629921
        },
        {
          "duration": 0.12195116666666195,
          "durationTicks": 16,
          "midi": 38,
          "name": "D2",
          "ticks": 20976,
          "time": 159.8779795,
          "velocity": 0.7480314960629921
        },
        {
          "duration": 0.12195116666666195,
          "durationTicks": 16,
          "midi": 36,
          "name": "C2",
          "ticks": 20976,
          "time": 159.8779795,
          "velocity": 0.7480314960629921
        },
        {
          "duration": 0.12195116666666195,
          "durationTicks": 16,
          "midi": 42,
          "name": "F#2",
          "ticks": 20976,
          "time": 159.8779795,
          "velocity": 0.7480314960629921
        },
        {
          "duration": 0.12195116666666195,
          "durationTicks": 16,
          "midi": 38,
          "name": "D2",
          "ticks": 21024,
          "time": 160.243833,
          "velocity": 0.7480314960629921
        },
        {
          "duration": 0.12195116666666195,
          "durationTicks": 16,
          "midi": 36,
          "name": "C2",
          "ticks": 21024,
          "time": 160.243833,
          "velocity": 0.7480314960629921
        },
        {
          "duration": 0.12195116666666195,
          "durationTicks": 16,
          "midi": 42,
          "name": "F#2",
          "ticks": 21024,
          "time": 160.243833,
          "velocity": 0.7480314960629921
        },
        {
          "duration": 0.12195116666666195,
          "durationTicks": 16,
          "midi": 38,
          "name": "D2",
          "ticks": 21072,
          "time": 160.6096865,
          "velocity": 0.7480314960629921
        },
        {
          "duration": 0.12195116666666195,
          "durationTicks": 16,
          "midi": 36,
          "name": "C2",
          "ticks": 21072,
          "time": 160.6096865,
          "velocity": 0.7480314960629921
        },
        {
          "duration": 0.12195116666666195,
          "durationTicks": 16,
          "midi": 42,
          "name": "F#2",
          "ticks": 21072,
          "time": 160.6096865,
          "velocity": 0.7480314960629921
        },
        {
          "duration": 0.12195116666666195,
          "durationTicks": 16,
          "midi": 38,
          "name": "D2",
          "ticks": 21120,
          "time": 160.97554,
          "velocity": 0.7480314960629921
        },
        {
          "duration": 0.12195116666666195,
          "durationTicks": 16,
          "midi": 36,
          "name": "C2",
          "ticks": 21120,
          "time": 160.97554,
          "velocity": 0.7480314960629921
        },
        {
          "duration": 0.12195116666666195,
          "durationTicks": 16,
          "midi": 42,
          "name": "F#2",
          "ticks": 21120,
          "time": 160.97554,
          "velocity": 0.7480314960629921
        },
        {
          "duration": 0.12195116666666195,
          "durationTicks": 16,
          "midi": 38,
          "name": "D2",
          "ticks": 21168,
          "time": 161.3413935,
          "velocity": 0.7480314960629921
        },
        {
          "duration": 0.12195116666666195,
          "durationTicks": 16,
          "midi": 36,
          "name": "C2",
          "ticks": 21168,
          "time": 161.3413935,
          "velocity": 0.7480314960629921
        },
        {
          "duration": 0.06097558333331676,
          "durationTicks": 8,
          "midi": 42,
          "name": "F#2",
          "ticks": 21168,
          "time": 161.3413935,
          "velocity": 0.7480314960629921
        },
        {
          "duration": 0.12195116666666195,
          "durationTicks": 16,
          "midi": 38,
          "name": "D2",
          "ticks": 21216,
          "time": 161.707247,
          "velocity": 0.7480314960629921
        },
        {
          "duration": 0.12195116666666195,
          "durationTicks": 16,
          "midi": 36,
          "name": "C2",
          "ticks": 21216,
          "time": 161.707247,
          "velocity": 0.7480314960629921
        },
        {
          "duration": 0.12195116666666195,
          "durationTicks": 16,
          "midi": 42,
          "name": "F#2",
          "ticks": 21216,
          "time": 161.707247,
          "velocity": 0.7480314960629921
        },
        {
          "duration": 0.12195116666666195,
          "durationTicks": 16,
          "midi": 38,
          "name": "D2",
          "ticks": 21264,
          "time": 162.0731005,
          "velocity": 0.7480314960629921
        },
        {
          "duration": 0.12195116666666195,
          "durationTicks": 16,
          "midi": 36,
          "name": "C2",
          "ticks": 21264,
          "time": 162.0731005,
          "velocity": 0.7480314960629921
        },
        {
          "duration": 0.12195116666666195,
          "durationTicks": 16,
          "midi": 46,
          "name": "A#2",
          "ticks": 21264,
          "time": 162.0731005,
          "velocity": 0.7480314960629921
        },
        {
          "duration": 0.12195116666666195,
          "durationTicks": 16,
          "midi": 38,
          "name": "D2",
          "ticks": 21312,
          "time": 162.438954,
          "velocity": 0.7480314960629921
        },
        {
          "duration": 0.12195116666666195,
          "durationTicks": 16,
          "midi": 36,
          "name": "C2",
          "ticks": 21312,
          "time": 162.438954,
          "velocity": 0.7480314960629921
        },
        {
          "duration": 0.12195116666666195,
          "durationTicks": 16,
          "midi": 42,
          "name": "F#2",
          "ticks": 21312,
          "time": 162.438954,
          "velocity": 0.7480314960629921
        },
        {
          "duration": 0.12195116666666195,
          "durationTicks": 16,
          "midi": 38,
          "name": "D2",
          "ticks": 21360,
          "time": 162.8048075,
          "velocity": 0.7480314960629921
        },
        {
          "duration": 0.12195116666666195,
          "durationTicks": 16,
          "midi": 36,
          "name": "C2",
          "ticks": 21360,
          "time": 162.8048075,
          "velocity": 0.7480314960629921
        },
        {
          "duration": 0.12195116666666195,
          "durationTicks": 16,
          "midi": 42,
          "name": "F#2",
          "ticks": 21360,
          "time": 162.8048075,
          "velocity": 0.7480314960629921
        },
        {
          "duration": 0.12195116666666195,
          "durationTicks": 16,
          "midi": 38,
          "name": "D2",
          "ticks": 21408,
          "time": 163.170661,
          "velocity": 0.7480314960629921
        },
        {
          "duration": 0.12195116666666195,
          "durationTicks": 16,
          "midi": 36,
          "name": "C2",
          "ticks": 21408,
          "time": 163.170661,
          "velocity": 0.7480314960629921
        },
        {
          "duration": 0.12195116666666195,
          "durationTicks": 16,
          "midi": 42,
          "name": "F#2",
          "ticks": 21408,
          "time": 163.170661,
          "velocity": 0.7480314960629921
        },
        {
          "duration": 0.12195116666666195,
          "durationTicks": 16,
          "midi": 38,
          "name": "D2",
          "ticks": 21456,
          "time": 163.5365145,
          "velocity": 0.7480314960629921
        },
        {
          "duration": 0.12195116666666195,
          "durationTicks": 16,
          "midi": 36,
          "name": "C2",
          "ticks": 21456,
          "time": 163.5365145,
          "velocity": 0.7480314960629921
        },
        {
          "duration": 0.12195116666666195,
          "durationTicks": 16,
          "midi": 42,
          "name": "F#2",
          "ticks": 21456,
          "time": 163.5365145,
          "velocity": 0.7480314960629921
        },
        {
          "duration": 0.12195116666666195,
          "durationTicks": 16,
          "midi": 38,
          "name": "D2",
          "ticks": 21504,
          "time": 163.902368,
          "velocity": 0.7480314960629921
        },
        {
          "duration": 0.12195116666666195,
          "durationTicks": 16,
          "midi": 36,
          "name": "C2",
          "ticks": 21504,
          "time": 163.902368,
          "velocity": 0.7480314960629921
        },
        {
          "duration": 0.12195116666666195,
          "durationTicks": 16,
          "midi": 42,
          "name": "F#2",
          "ticks": 21504,
          "time": 163.902368,
          "velocity": 0.7480314960629921
        },
        {
          "duration": 0.12195116666666195,
          "durationTicks": 16,
          "midi": 38,
          "name": "D2",
          "ticks": 21552,
          "time": 164.2682215,
          "velocity": 0.7480314960629921
        },
        {
          "duration": 0.12195116666666195,
          "durationTicks": 16,
          "midi": 36,
          "name": "C2",
          "ticks": 21552,
          "time": 164.2682215,
          "velocity": 0.7480314960629921
        },
        {
          "duration": 0.06097558333331676,
          "durationTicks": 8,
          "midi": 42,
          "name": "F#2",
          "ticks": 21552,
          "time": 164.2682215,
          "velocity": 0.7480314960629921
        },
        {
          "duration": 0.12195116666666195,
          "durationTicks": 16,
          "midi": 38,
          "name": "D2",
          "ticks": 21600,
          "time": 164.634075,
          "velocity": 0.7480314960629921
        },
        {
          "duration": 0.12195116666666195,
          "durationTicks": 16,
          "midi": 36,
          "name": "C2",
          "ticks": 21600,
          "time": 164.634075,
          "velocity": 0.7480314960629921
        },
        {
          "duration": 0.12195116666666195,
          "durationTicks": 16,
          "midi": 42,
          "name": "F#2",
          "ticks": 21600,
          "time": 164.634075,
          "velocity": 0.7480314960629921
        },
        {
          "duration": 0.12195116666666195,
          "durationTicks": 16,
          "midi": 38,
          "name": "D2",
          "ticks": 21648,
          "time": 164.9999285,
          "velocity": 0.7480314960629921
        },
        {
          "duration": 0.12195116666666195,
          "durationTicks": 16,
          "midi": 36,
          "name": "C2",
          "ticks": 21648,
          "time": 164.9999285,
          "velocity": 0.7480314960629921
        },
        {
          "duration": 0.36585349999998584,
          "durationTicks": 48,
          "midi": 42,
          "name": "F#2",
          "ticks": 21648,
          "time": 164.9999285,
          "velocity": 0.7480314960629921
        },
        {
          "duration": 0.4725607708333541,
          "durationTicks": 62,
          "midi": 36,
          "name": "C2",
          "ticks": 21696,
          "time": 165.365782,
          "velocity": 0.7480314960629921
        },
        {
          "duration": 0.36585350000001426,
          "durationTicks": 48,
          "midi": 42,
          "name": "F#2",
          "ticks": 21696,
          "time": 165.365782,
          "velocity": 0.7480314960629921
        },
        {
          "duration": 0.36585349999998584,
          "durationTicks": 48,
          "midi": 42,
          "name": "F#2",
          "ticks": 21744,
          "time": 165.7316355,
          "velocity": 0.7480314960629921
        },
        {
          "duration": 0.4725607708333541,
          "durationTicks": 62,
          "midi": 38,
          "name": "D2",
          "ticks": 21792,
          "time": 166.097489,
          "velocity": 0.7480314960629921
        },
        {
          "duration": 0.36585350000001426,
          "durationTicks": 48,
          "midi": 42,
          "name": "F#2",
          "ticks": 21792,
          "time": 166.097489,
          "velocity": 0.7480314960629921
        },
        {
          "duration": 0.36585349999998584,
          "durationTicks": 48,
          "midi": 36,
          "name": "C2",
          "ticks": 21840,
          "time": 166.4633425,
          "velocity": 0.7480314960629921
        },
        {
          "duration": 0.36585349999998584,
          "durationTicks": 48,
          "midi": 42,
          "name": "F#2",
          "ticks": 21840,
          "time": 166.4633425,
          "velocity": 0.7480314960629921
        },
        {
          "duration": 0.4725607708333541,
          "durationTicks": 62,
          "midi": 36,
          "name": "C2",
          "ticks": 21888,
          "time": 166.829196,
          "velocity": 0.7480314960629921
        },
        {
          "duration": 0.36585350000001426,
          "durationTicks": 48,
          "midi": 42,
          "name": "F#2",
          "ticks": 21888,
          "time": 166.829196,
          "velocity": 0.7480314960629921
        },
        {
          "duration": 0.36585349999998584,
          "durationTicks": 48,
          "midi": 42,
          "name": "F#2",
          "ticks": 21936,
          "time": 167.1950495,
          "velocity": 0.7480314960629921
        },
        {
          "duration": 0.4725607708333541,
          "durationTicks": 62,
          "midi": 38,
          "name": "D2",
          "ticks": 21984,
          "time": 167.560903,
          "velocity": 0.7480314960629921
        },
        {
          "duration": 0.36585350000001426,
          "durationTicks": 48,
          "midi": 42,
          "name": "F#2",
          "ticks": 21984,
          "time": 167.560903,
          "velocity": 0.7480314960629921
        },
        {
          "duration": 0.36585349999998584,
          "durationTicks": 48,
          "midi": 36,
          "name": "C2",
          "ticks": 22032,
          "time": 167.9267565,
          "velocity": 0.7480314960629921
        },
        {
          "duration": 0.36585349999998584,
          "durationTicks": 48,
          "midi": 42,
          "name": "F#2",
          "ticks": 22032,
          "time": 167.9267565,
          "velocity": 0.7480314960629921
        },
        {
          "duration": 0.4725607708333541,
          "durationTicks": 62,
          "midi": 36,
          "name": "C2",
          "ticks": 22080,
          "time": 168.29261,
          "velocity": 0.7480314960629921
        },
        {
          "duration": 0.36585350000001426,
          "durationTicks": 48,
          "midi": 42,
          "name": "F#2",
          "ticks": 22080,
          "time": 168.29261,
          "velocity": 0.7480314960629921
        },
        {
          "duration": 0.36585349999998584,
          "durationTicks": 48,
          "midi": 42,
          "name": "F#2",
          "ticks": 22128,
          "time": 168.6584635,
          "velocity": 0.7480314960629921
        },
        {
          "duration": 0.4725607708333541,
          "durationTicks": 62,
          "midi": 38,
          "name": "D2",
          "ticks": 22176,
          "time": 169.024317,
          "velocity": 0.7480314960629921
        },
        {
          "duration": 0.36585350000001426,
          "durationTicks": 48,
          "midi": 42,
          "name": "F#2",
          "ticks": 22176,
          "time": 169.024317,
          "velocity": 0.7480314960629921
        },
        {
          "duration": 0.36585349999998584,
          "durationTicks": 48,
          "midi": 36,
          "name": "C2",
          "ticks": 22224,
          "time": 169.3901705,
          "velocity": 0.7480314960629921
        },
        {
          "duration": 0.36585349999998584,
          "durationTicks": 48,
          "midi": 42,
          "name": "F#2",
          "ticks": 22224,
          "time": 169.3901705,
          "velocity": 0.7480314960629921
        },
        {
          "duration": 0.4725607708333541,
          "durationTicks": 62,
          "midi": 36,
          "name": "C2",
          "ticks": 22272,
          "time": 169.756024,
          "velocity": 0.7480314960629921
        },
        {
          "duration": 0.36585350000001426,
          "durationTicks": 48,
          "midi": 42,
          "name": "F#2",
          "ticks": 22272,
          "time": 169.756024,
          "velocity": 0.7480314960629921
        },
        {
          "duration": 0.36585349999998584,
          "durationTicks": 48,
          "midi": 42,
          "name": "F#2",
          "ticks": 22320,
          "time": 170.1218775,
          "velocity": 0.7480314960629921
        },
        {
          "duration": 0.4725607708333541,
          "durationTicks": 62,
          "midi": 38,
          "name": "D2",
          "ticks": 22368,
          "time": 170.487731,
          "velocity": 0.7480314960629921
        },
        {
          "duration": 0.36585350000001426,
          "durationTicks": 48,
          "midi": 42,
          "name": "F#2",
          "ticks": 22368,
          "time": 170.487731,
          "velocity": 0.7480314960629921
        },
        {
          "duration": 0.36585349999998584,
          "durationTicks": 48,
          "midi": 36,
          "name": "C2",
          "ticks": 22416,
          "time": 170.8535845,
          "velocity": 0.7480314960629921
        },
        {
          "duration": 0.36585349999998584,
          "durationTicks": 48,
          "midi": 42,
          "name": "F#2",
          "ticks": 22416,
          "time": 170.8535845,
          "velocity": 0.7480314960629921
        },
        {
          "duration": 0.4725607708333541,
          "durationTicks": 62,
          "midi": 36,
          "name": "C2",
          "ticks": 22464,
          "time": 171.219438,
          "velocity": 0.7480314960629921
        },
        {
          "duration": 0.36585350000001426,
          "durationTicks": 48,
          "midi": 42,
          "name": "F#2",
          "ticks": 22464,
          "time": 171.219438,
          "velocity": 0.7480314960629921
        },
        {
          "duration": 0.36585349999998584,
          "durationTicks": 48,
          "midi": 42,
          "name": "F#2",
          "ticks": 22512,
          "time": 171.5852915,
          "velocity": 0.7480314960629921
        },
        {
          "duration": 0.4725607708333541,
          "durationTicks": 62,
          "midi": 38,
          "name": "D2",
          "ticks": 22560,
          "time": 171.951145,
          "velocity": 0.7480314960629921
        },
        {
          "duration": 0.36585350000001426,
          "durationTicks": 48,
          "midi": 42,
          "name": "F#2",
          "ticks": 22560,
          "time": 171.951145,
          "velocity": 0.7480314960629921
        },
        {
          "duration": 0.36585349999998584,
          "durationTicks": 48,
          "midi": 36,
          "name": "C2",
          "ticks": 22608,
          "time": 172.3169985,
          "velocity": 0.7480314960629921
        },
        {
          "duration": 0.36585349999998584,
          "durationTicks": 48,
          "midi": 42,
          "name": "F#2",
          "ticks": 22608,
          "time": 172.3169985,
          "velocity": 0.7480314960629921
        },
        {
          "duration": 0.4725607708333541,
          "durationTicks": 62,
          "midi": 36,
          "name": "C2",
          "ticks": 22656,
          "time": 172.682852,
          "velocity": 0.7480314960629921
        },
        {
          "duration": 0.36585350000001426,
          "durationTicks": 48,
          "midi": 42,
          "name": "F#2",
          "ticks": 22656,
          "time": 172.682852,
          "velocity": 0.7480314960629921
        },
        {
          "duration": 0.36585349999998584,
          "durationTicks": 48,
          "midi": 42,
          "name": "F#2",
          "ticks": 22704,
          "time": 173.0487055,
          "velocity": 0.7480314960629921
        },
        {
          "duration": 0.4725607708333541,
          "durationTicks": 62,
          "midi": 38,
          "name": "D2",
          "ticks": 22752,
          "time": 173.414559,
          "velocity": 0.7480314960629921
        },
        {
          "duration": 0.36585350000001426,
          "durationTicks": 48,
          "midi": 42,
          "name": "F#2",
          "ticks": 22752,
          "time": 173.414559,
          "velocity": 0.7480314960629921
        },
        {
          "duration": 0.36585349999998584,
          "durationTicks": 48,
          "midi": 36,
          "name": "C2",
          "ticks": 22800,
          "time": 173.7804125,
          "velocity": 0.7480314960629921
        },
        {
          "duration": 0.36585349999998584,
          "durationTicks": 48,
          "midi": 42,
          "name": "F#2",
          "ticks": 22800,
          "time": 173.7804125,
          "velocity": 0.7480314960629921
        },
        {
          "duration": 1.0975605000000144,
          "durationTicks": 144,
          "midi": 36,
          "name": "C2",
          "ticks": 22848,
          "time": 174.146266,
          "velocity": 0.7480314960629921
        },
        {
          "duration": 0.36585350000001426,
          "durationTicks": 48,
          "midi": 42,
          "name": "F#2",
          "ticks": 22848,
          "time": 174.146266,
          "velocity": 0.7480314960629921
        },
        {
          "duration": 0.36585349999998584,
          "durationTicks": 48,
          "midi": 38,
          "name": "D2",
          "ticks": 22896,
          "time": 174.5121195,
          "velocity": 0.7480314960629921
        },
        {
          "duration": 0.36585349999998584,
          "durationTicks": 48,
          "midi": 42,
          "name": "F#2",
          "ticks": 22896,
          "time": 174.5121195,
          "velocity": 0.7480314960629921
        },
        {
          "duration": 0.4725607708333541,
          "durationTicks": 62,
          "midi": 38,
          "name": "D2",
          "ticks": 22944,
          "time": 174.877973,
          "velocity": 0.7480314960629921
        },
        {
          "duration": 0.36585350000001426,
          "durationTicks": 48,
          "midi": 42,
          "name": "F#2",
          "ticks": 22944,
          "time": 174.877973,
          "velocity": 0.7480314960629921
        },
        {
          "duration": 1.829267499999986,
          "durationTicks": 240,
          "midi": 36,
          "name": "C2",
          "ticks": 22992,
          "time": 175.2438265,
          "velocity": 0.7480314960629921
        },
        {
          "duration": 0.4725607708333257,
          "durationTicks": 62,
          "midi": 42,
          "name": "F#2",
          "ticks": 22992,
          "time": 175.2438265,
          "velocity": 0.7480314960629921
        },
        {
          "duration": 0.4725607708333541,
          "durationTicks": 62,
          "midi": 46,
          "name": "A#2",
          "ticks": 23040,
          "time": 175.60968,
          "velocity": 0.7480314960629921
        },
        {
          "duration": 0.36585349999998584,
          "durationTicks": 48,
          "midi": 42,
          "name": "F#2",
          "ticks": 23088,
          "time": 175.9755335,
          "velocity": 0.7480314960629921
        },
        {
          "duration": 0.1829267499999787,
          "durationTicks": 24,
          "midi": 43,
          "name": "G2",
          "ticks": 23088,
          "time": 175.9755335,
          "velocity": 0.7480314960629921
        },
        {
          "duration": 0.5487802500000214,
          "durationTicks": 72,
          "midi": 43,
          "name": "G2",
          "ticks": 23112,
          "time": 176.15846025,
          "velocity": 0.7480314960629921
        },
        {
          "duration": 0.36585350000001426,
          "durationTicks": 48,
          "midi": 42,
          "name": "F#2",
          "ticks": 23136,
          "time": 176.341387,
          "velocity": 0.7480314960629921
        },
        {
          "duration": 0.36585349999998584,
          "durationTicks": 48,
          "midi": 42,
          "name": "F#2",
          "ticks": 23184,
          "time": 176.7072405,
          "velocity": 0.7480314960629921
        },
        {
          "duration": 0.1829267499999787,
          "durationTicks": 24,
          "midi": 43,
          "name": "G2",
          "ticks": 23184,
          "time": 176.7072405,
          "velocity": 0.7480314960629921
        },
        {
          "duration": 2.9268280000000004,
          "durationTicks": 384,
          "midi": 43,
          "name": "G2",
          "ticks": 23208,
          "time": 176.89016725,
          "velocity": 0.7480314960629921
        },
        {
          "duration": 0.24390233333335232,
          "durationTicks": 32,
          "midi": 36,
          "name": "C2",
          "ticks": 23232,
          "time": 177.073094,
          "velocity": 0.7480314960629921
        },
        {
          "duration": 0.24390233333335232,
          "durationTicks": 32,
          "midi": 42,
          "name": "F#2",
          "ticks": 23232,
          "time": 177.073094,
          "velocity": 0.7480314960629921
        },
        {
          "duration": 0.2439023333333239,
          "durationTicks": 32,
          "midi": 42,
          "name": "F#2",
          "ticks": 23280,
          "time": 177.4389475,
          "velocity": 0.7480314960629921
        },
        {
          "duration": 0.24390233333335232,
          "durationTicks": 32,
          "midi": 38,
          "name": "D2",
          "ticks": 23328,
          "time": 177.804801,
          "velocity": 0.7480314960629921
        },
        {
          "duration": 0.24390233333335232,
          "durationTicks": 32,
          "midi": 42,
          "name": "F#2",
          "ticks": 23328,
          "time": 177.804801,
          "velocity": 0.7480314960629921
        },
        {
          "duration": 0.2439023333333239,
          "durationTicks": 32,
          "midi": 36,
          "name": "C2",
          "ticks": 23376,
          "time": 178.1706545,
          "velocity": 0.7480314960629921
        },
        {
          "duration": 0.2439023333333239,
          "durationTicks": 32,
          "midi": 42,
          "name": "F#2",
          "ticks": 23376,
          "time": 178.1706545,
          "velocity": 0.7480314960629921
        },
        {
          "duration": 0.24390233333335232,
          "durationTicks": 32,
          "midi": 36,
          "name": "C2",
          "ticks": 23424,
          "time": 178.536508,
          "velocity": 0.7480314960629921
        },
        {
          "duration": 0.24390233333335232,
          "durationTicks": 32,
          "midi": 42,
          "name": "F#2",
          "ticks": 23424,
          "time": 178.536508,
          "velocity": 0.7480314960629921
        },
        {
          "duration": 0.2439023333333239,
          "durationTicks": 32,
          "midi": 42,
          "name": "F#2",
          "ticks": 23472,
          "time": 178.9023615,
          "velocity": 0.7480314960629921
        },
        {
          "duration": 0.24390233333335232,
          "durationTicks": 32,
          "midi": 38,
          "name": "D2",
          "ticks": 23520,
          "time": 179.268215,
          "velocity": 0.7480314960629921
        },
        {
          "duration": 0.24390233333335232,
          "durationTicks": 32,
          "midi": 42,
          "name": "F#2",
          "ticks": 23520,
          "time": 179.268215,
          "velocity": 0.7480314960629921
        },
        {
          "duration": 0.2439023333333239,
          "durationTicks": 32,
          "midi": 36,
          "name": "C2",
          "ticks": 23568,
          "time": 179.6340685,
          "velocity": 0.7480314960629921
        },
        {
          "duration": 0.2439023333333239,
          "durationTicks": 32,
          "midi": 42,
          "name": "F#2",
          "ticks": 23568,
          "time": 179.6340685,
          "velocity": 0.7480314960629921
        },
        {
          "duration": 0.24390233333335232,
          "durationTicks": 32,
          "midi": 36,
          "name": "C2",
          "ticks": 23616,
          "time": 179.999922,
          "velocity": 0.7480314960629921
        },
        {
          "duration": 0.24390233333335232,
          "durationTicks": 32,
          "midi": 42,
          "name": "F#2",
          "ticks": 23616,
          "time": 179.999922,
          "velocity": 0.7480314960629921
        },
        {
          "duration": 0.2439023333333239,
          "durationTicks": 32,
          "midi": 42,
          "name": "F#2",
          "ticks": 23664,
          "time": 180.3657755,
          "velocity": 0.7480314960629921
        },
        {
          "duration": 0.24390233333335232,
          "durationTicks": 32,
          "midi": 38,
          "name": "D2",
          "ticks": 23712,
          "time": 180.731629,
          "velocity": 0.7480314960629921
        },
        {
          "duration": 0.24390233333335232,
          "durationTicks": 32,
          "midi": 42,
          "name": "F#2",
          "ticks": 23712,
          "time": 180.731629,
          "velocity": 0.7480314960629921
        },
        {
          "duration": 0.2439023333333239,
          "durationTicks": 32,
          "midi": 36,
          "name": "C2",
          "ticks": 23760,
          "time": 181.0974825,
          "velocity": 0.7480314960629921
        },
        {
          "duration": 0.2439023333333239,
          "durationTicks": 32,
          "midi": 42,
          "name": "F#2",
          "ticks": 23760,
          "time": 181.0974825,
          "velocity": 0.7480314960629921
        },
        {
          "duration": 0.24390233333335232,
          "durationTicks": 32,
          "midi": 36,
          "name": "C2",
          "ticks": 23808,
          "time": 181.463336,
          "velocity": 0.7480314960629921
        },
        {
          "duration": 0.24390233333335232,
          "durationTicks": 32,
          "midi": 42,
          "name": "F#2",
          "ticks": 23808,
          "time": 181.463336,
          "velocity": 0.7480314960629921
        },
        {
          "duration": 0.2439023333333239,
          "durationTicks": 32,
          "midi": 42,
          "name": "F#2",
          "ticks": 23856,
          "time": 181.8291895,
          "velocity": 0.7480314960629921
        },
        {
          "duration": 0.24390233333335232,
          "durationTicks": 32,
          "midi": 38,
          "name": "D2",
          "ticks": 23904,
          "time": 182.195043,
          "velocity": 0.7480314960629921
        },
        {
          "duration": 0.24390233333335232,
          "durationTicks": 32,
          "midi": 42,
          "name": "F#2",
          "ticks": 23904,
          "time": 182.195043,
          "velocity": 0.7480314960629921
        },
        {
          "duration": 0.2439023333333239,
          "durationTicks": 32,
          "midi": 36,
          "name": "C2",
          "ticks": 23952,
          "time": 182.5608965,
          "velocity": 0.7480314960629921
        },
        {
          "duration": 0.2439023333333239,
          "durationTicks": 32,
          "midi": 42,
          "name": "F#2",
          "ticks": 23952,
          "time": 182.5608965,
          "velocity": 0.7480314960629921
        },
        {
          "duration": 0.24390233333335232,
          "durationTicks": 32,
          "midi": 36,
          "name": "C2",
          "ticks": 24000,
          "time": 182.92675,
          "velocity": 0.7480314960629921
        },
        {
          "duration": 0.24390233333335232,
          "durationTicks": 32,
          "midi": 42,
          "name": "F#2",
          "ticks": 24000,
          "time": 182.92675,
          "velocity": 0.7480314960629921
        },
        {
          "duration": 0.2439023333333239,
          "durationTicks": 32,
          "midi": 42,
          "name": "F#2",
          "ticks": 24048,
          "time": 183.2926035,
          "velocity": 0.7480314960629921
        },
        {
          "duration": 0.24390233333335232,
          "durationTicks": 32,
          "midi": 38,
          "name": "D2",
          "ticks": 24096,
          "time": 183.658457,
          "velocity": 0.7480314960629921
        },
        {
          "duration": 0.24390233333335232,
          "durationTicks": 32,
          "midi": 46,
          "name": "A#2",
          "ticks": 24096,
          "time": 183.658457,
          "velocity": 0.7480314960629921
        },
        {
          "duration": 0.2439023333333239,
          "durationTicks": 32,
          "midi": 36,
          "name": "C2",
          "ticks": 24144,
          "time": 184.0243105,
          "velocity": 0.7480314960629921
        },
        {
          "duration": 0.2439023333333239,
          "durationTicks": 32,
          "midi": 46,
          "name": "A#2",
          "ticks": 24144,
          "time": 184.0243105,
          "velocity": 0.7480314960629921
        },
        {
          "duration": 0.24390233333335232,
          "durationTicks": 32,
          "midi": 36,
          "name": "C2",
          "ticks": 24192,
          "time": 184.390164,
          "velocity": 0.7480314960629921
        },
        {
          "duration": 0.24390233333335232,
          "durationTicks": 32,
          "midi": 42,
          "name": "F#2",
          "ticks": 24192,
          "time": 184.390164,
          "velocity": 0.7480314960629921
        },
        {
          "duration": 0.2439023333333239,
          "durationTicks": 32,
          "midi": 42,
          "name": "F#2",
          "ticks": 24240,
          "time": 184.7560175,
          "velocity": 0.7480314960629921
        },
        {
          "duration": 0.24390233333335232,
          "durationTicks": 32,
          "midi": 38,
          "name": "D2",
          "ticks": 24288,
          "time": 185.121871,
          "velocity": 0.7480314960629921
        },
        {
          "duration": 0.24390233333335232,
          "durationTicks": 32,
          "midi": 36,
          "name": "C2",
          "ticks": 24288,
          "time": 185.121871,
          "velocity": 0.7480314960629921
        },
        {
          "duration": 0.24390233333335232,
          "durationTicks": 32,
          "midi": 49,
          "name": "C#3",
          "ticks": 24288,
          "time": 185.121871,
          "velocity": 0.7480314960629921
        },
        {
          "duration": 0.2439023333333239,
          "durationTicks": 32,
          "midi": 36,
          "name": "C2",
          "ticks": 24336,
          "time": 185.4877245,
          "velocity": 0.7480314960629921
        },
        {
          "duration": 0.2439023333333239,
          "durationTicks": 32,
          "midi": 49,
          "name": "C#3",
          "ticks": 24336,
          "time": 185.4877245,
          "velocity": 0.7480314960629921
        },
        {
          "duration": 0.24390233333335232,
          "durationTicks": 32,
          "midi": 36,
          "name": "C2",
          "ticks": 24384,
          "time": 185.853578,
          "velocity": 0.7480314960629921
        },
        {
          "duration": 0.24390233333335232,
          "durationTicks": 32,
          "midi": 49,
          "name": "C#3",
          "ticks": 24384,
          "time": 185.853578,
          "velocity": 0.7480314960629921
        },
        {
          "duration": 0.2439023333333239,
          "durationTicks": 32,
          "midi": 42,
          "name": "F#2",
          "ticks": 24432,
          "time": 186.2194315,
          "velocity": 0.7480314960629921
        },
        {
          "duration": 0.24390233333335232,
          "durationTicks": 32,
          "midi": 38,
          "name": "D2",
          "ticks": 24480,
          "time": 186.585285,
          "velocity": 0.7480314960629921
        },
        {
          "duration": 0.24390233333335232,
          "durationTicks": 32,
          "midi": 42,
          "name": "F#2",
          "ticks": 24480,
          "time": 186.585285,
          "velocity": 0.7480314960629921
        },
        {
          "duration": 0.2439023333333239,
          "durationTicks": 32,
          "midi": 36,
          "name": "C2",
          "ticks": 24528,
          "time": 186.9511385,
          "velocity": 0.7480314960629921
        },
        {
          "duration": 0.2439023333333239,
          "durationTicks": 32,
          "midi": 42,
          "name": "F#2",
          "ticks": 24528,
          "time": 186.9511385,
          "velocity": 0.7480314960629921
        },
        {
          "duration": 0.2439023333333239,
          "durationTicks": 32,
          "midi": 36,
          "name": "C2",
          "ticks": 24576,
          "time": 187.316992,
          "velocity": 0.7480314960629921
        },
        {
          "duration": 0.2439023333333239,
          "durationTicks": 32,
          "midi": 42,
          "name": "F#2",
          "ticks": 24576,
          "time": 187.316992,
          "velocity": 0.7480314960629921
        },
        {
          "duration": 0.2439023333333239,
          "durationTicks": 32,
          "midi": 42,
          "name": "F#2",
          "ticks": 24624,
          "time": 187.68284549999998,
          "velocity": 0.7480314960629921
        },
        {
          "duration": 0.2439023333333239,
          "durationTicks": 32,
          "midi": 38,
          "name": "D2",
          "ticks": 24672,
          "time": 188.048699,
          "velocity": 0.7480314960629921
        },
        {
          "duration": 0.2439023333333239,
          "durationTicks": 32,
          "midi": 42,
          "name": "F#2",
          "ticks": 24672,
          "time": 188.048699,
          "velocity": 0.7480314960629921
        },
        {
          "duration": 0.2439023333333239,
          "durationTicks": 32,
          "midi": 36,
          "name": "C2",
          "ticks": 24720,
          "time": 188.41455249999999,
          "velocity": 0.7480314960629921
        },
        {
          "duration": 0.2439023333333239,
          "durationTicks": 32,
          "midi": 42,
          "name": "F#2",
          "ticks": 24720,
          "time": 188.41455249999999,
          "velocity": 0.7480314960629921
        },
        {
          "duration": 0.2439023333333239,
          "durationTicks": 32,
          "midi": 36,
          "name": "C2",
          "ticks": 24768,
          "time": 188.780406,
          "velocity": 0.7480314960629921
        },
        {
          "duration": 0.2439023333333239,
          "durationTicks": 32,
          "midi": 42,
          "name": "F#2",
          "ticks": 24768,
          "time": 188.780406,
          "velocity": 0.7480314960629921
        },
        {
          "duration": 0.2439023333333239,
          "durationTicks": 32,
          "midi": 42,
          "name": "F#2",
          "ticks": 24816,
          "time": 189.14625949999999,
          "velocity": 0.7480314960629921
        },
        {
          "duration": 0.2439023333333239,
          "durationTicks": 32,
          "midi": 38,
          "name": "D2",
          "ticks": 24864,
          "time": 189.512113,
          "velocity": 0.7480314960629921
        },
        {
          "duration": 0.2439023333333239,
          "durationTicks": 32,
          "midi": 42,
          "name": "F#2",
          "ticks": 24864,
          "time": 189.512113,
          "velocity": 0.7480314960629921
        },
        {
          "duration": 0.2439023333333239,
          "durationTicks": 32,
          "midi": 36,
          "name": "C2",
          "ticks": 24912,
          "time": 189.87796649999999,
          "velocity": 0.7480314960629921
        },
        {
          "duration": 0.2439023333333239,
          "durationTicks": 32,
          "midi": 42,
          "name": "F#2",
          "ticks": 24912,
          "time": 189.87796649999999,
          "velocity": 0.7480314960629921
        },
        {
          "duration": 0.2439023333333239,
          "durationTicks": 32,
          "midi": 36,
          "name": "C2",
          "ticks": 24960,
          "time": 190.24382,
          "velocity": 0.7480314960629921
        },
        {
          "duration": 0.2439023333333239,
          "durationTicks": 32,
          "midi": 49,
          "name": "C#3",
          "ticks": 24960,
          "time": 190.24382,
          "velocity": 0.7480314960629921
        },
        {
          "duration": 0.2439023333333239,
          "durationTicks": 32,
          "midi": 36,
          "name": "C2",
          "ticks": 25008,
          "time": 190.60967349999999,
          "velocity": 0.7480314960629921
        },
        {
          "duration": 0.2439023333333239,
          "durationTicks": 32,
          "midi": 49,
          "name": "C#3",
          "ticks": 25008,
          "time": 190.60967349999999,
          "velocity": 0.7480314960629921
        },
        {
          "duration": 0.2439023333333239,
          "durationTicks": 32,
          "midi": 38,
          "name": "D2",
          "ticks": 25056,
          "time": 190.975527,
          "velocity": 0.7480314960629921
        },
        {
          "duration": 0.2439023333333239,
          "durationTicks": 32,
          "midi": 36,
          "name": "C2",
          "ticks": 25056,
          "time": 190.975527,
          "velocity": 0.7480314960629921
        },
        {
          "duration": 0.2439023333333239,
          "durationTicks": 32,
          "midi": 49,
          "name": "C#3",
          "ticks": 25056,
          "time": 190.975527,
          "velocity": 0.7480314960629921
        },
        {
          "duration": 0.2439023333333239,
          "durationTicks": 32,
          "midi": 36,
          "name": "C2",
          "ticks": 25104,
          "time": 191.34138049999999,
          "velocity": 0.7480314960629921
        },
        {
          "duration": 0.2439023333333239,
          "durationTicks": 32,
          "midi": 49,
          "name": "C#3",
          "ticks": 25104,
          "time": 191.34138049999999,
          "velocity": 0.7480314960629921
        },
        {
          "duration": 0.2439023333333239,
          "durationTicks": 32,
          "midi": 36,
          "name": "C2",
          "ticks": 25152,
          "time": 191.707234,
          "velocity": 0.7480314960629921
        },
        {
          "duration": 0.2439023333333239,
          "durationTicks": 32,
          "midi": 42,
          "name": "F#2",
          "ticks": 25152,
          "time": 191.707234,
          "velocity": 0.7480314960629921
        },
        {
          "duration": 0.2439023333333239,
          "durationTicks": 32,
          "midi": 42,
          "name": "F#2",
          "ticks": 25200,
          "time": 192.07308749999999,
          "velocity": 0.7480314960629921
        },
        {
          "duration": 0.2439023333333239,
          "durationTicks": 32,
          "midi": 38,
          "name": "D2",
          "ticks": 25248,
          "time": 192.438941,
          "velocity": 0.7480314960629921
        },
        {
          "duration": 0.2439023333333239,
          "durationTicks": 32,
          "midi": 42,
          "name": "F#2",
          "ticks": 25248,
          "time": 192.438941,
          "velocity": 0.7480314960629921
        },
        {
          "duration": 0.2439023333333239,
          "durationTicks": 32,
          "midi": 36,
          "name": "C2",
          "ticks": 25296,
          "time": 192.80479449999999,
          "velocity": 0.7480314960629921
        },
        {
          "duration": 0.2439023333333239,
          "durationTicks": 32,
          "midi": 42,
          "name": "F#2",
          "ticks": 25296,
          "time": 192.80479449999999,
          "velocity": 0.7480314960629921
        },
        {
          "duration": 0.2439023333333239,
          "durationTicks": 32,
          "midi": 36,
          "name": "C2",
          "ticks": 25344,
          "time": 193.170648,
          "velocity": 0.7480314960629921
        },
        {
          "duration": 0.2439023333333239,
          "durationTicks": 32,
          "midi": 42,
          "name": "F#2",
          "ticks": 25344,
          "time": 193.170648,
          "velocity": 0.7480314960629921
        },
        {
          "duration": 0.2439023333333239,
          "durationTicks": 32,
          "midi": 42,
          "name": "F#2",
          "ticks": 25392,
          "time": 193.53650149999999,
          "velocity": 0.7480314960629921
        },
        {
          "duration": 0.2439023333333239,
          "durationTicks": 32,
          "midi": 38,
          "name": "D2",
          "ticks": 25440,
          "time": 193.902355,
          "velocity": 0.7480314960629921
        },
        {
          "duration": 0.2439023333333239,
          "durationTicks": 32,
          "midi": 42,
          "name": "F#2",
          "ticks": 25440,
          "time": 193.902355,
          "velocity": 0.7480314960629921
        },
        {
          "duration": 0.2439023333333239,
          "durationTicks": 32,
          "midi": 36,
          "name": "C2",
          "ticks": 25488,
          "time": 194.2682085,
          "velocity": 0.7480314960629921
        },
        {
          "duration": 0.2439023333333239,
          "durationTicks": 32,
          "midi": 42,
          "name": "F#2",
          "ticks": 25488,
          "time": 194.2682085,
          "velocity": 0.7480314960629921
        },
        {
          "duration": 0.2439023333333239,
          "durationTicks": 32,
          "midi": 36,
          "name": "C2",
          "ticks": 25536,
          "time": 194.634062,
          "velocity": 0.7480314960629921
        },
        {
          "duration": 0.2439023333333239,
          "durationTicks": 32,
          "midi": 42,
          "name": "F#2",
          "ticks": 25536,
          "time": 194.634062,
          "velocity": 0.7480314960629921
        },
        {
          "duration": 0.2439023333333239,
          "durationTicks": 32,
          "midi": 38,
          "name": "D2",
          "ticks": 25584,
          "time": 194.9999155,
          "velocity": 0.7480314960629921
        },
        {
          "duration": 0.2439023333333239,
          "durationTicks": 32,
          "midi": 42,
          "name": "F#2",
          "ticks": 25584,
          "time": 194.9999155,
          "velocity": 0.7480314960629921
        },
        {
          "duration": 0.2439023333333239,
          "durationTicks": 32,
          "midi": 36,
          "name": "C2",
          "ticks": 25632,
          "time": 195.365769,
          "velocity": 0.7480314960629921
        },
        {
          "duration": 0.2439023333333239,
          "durationTicks": 32,
          "midi": 42,
          "name": "F#2",
          "ticks": 25632,
          "time": 195.365769,
          "velocity": 0.7480314960629921
        },
        {
          "duration": 0.2439023333333239,
          "durationTicks": 32,
          "midi": 38,
          "name": "D2",
          "ticks": 25680,
          "time": 195.7316225,
          "velocity": 0.7480314960629921
        },
        {
          "duration": 0.2439023333333239,
          "durationTicks": 32,
          "midi": 42,
          "name": "F#2",
          "ticks": 25680,
          "time": 195.7316225,
          "velocity": 0.7480314960629921
        },
        {
          "duration": 0.2439023333333239,
          "durationTicks": 32,
          "midi": 36,
          "name": "C2",
          "ticks": 25728,
          "time": 196.097476,
          "velocity": 0.7480314960629921
        },
        {
          "duration": 0.2439023333333239,
          "durationTicks": 32,
          "midi": 42,
          "name": "F#2",
          "ticks": 25728,
          "time": 196.097476,
          "velocity": 0.7480314960629921
        },
        {
          "duration": 0.2439023333333239,
          "durationTicks": 32,
          "midi": 38,
          "name": "D2",
          "ticks": 25776,
          "time": 196.4633295,
          "velocity": 0.7480314960629921
        },
        {
          "duration": 0.2439023333333239,
          "durationTicks": 32,
          "midi": 42,
          "name": "F#2",
          "ticks": 25776,
          "time": 196.4633295,
          "velocity": 0.7480314960629921
        },
        {
          "duration": 0.2439023333333239,
          "durationTicks": 32,
          "midi": 36,
          "name": "C2",
          "ticks": 25824,
          "time": 196.829183,
          "velocity": 0.7480314960629921
        },
        {
          "duration": 0.2439023333333239,
          "durationTicks": 32,
          "midi": 42,
          "name": "F#2",
          "ticks": 25824,
          "time": 196.829183,
          "velocity": 0.7480314960629921
        },
        {
          "duration": 0.2439023333333239,
          "durationTicks": 32,
          "midi": 38,
          "name": "D2",
          "ticks": 25872,
          "time": 197.1950365,
          "velocity": 0.7480314960629921
        },
        {
          "duration": 0.2439023333333239,
          "durationTicks": 32,
          "midi": 42,
          "name": "F#2",
          "ticks": 25872,
          "time": 197.1950365,
          "velocity": 0.7480314960629921
        },
        {
          "duration": 0.2439023333333239,
          "durationTicks": 32,
          "midi": 36,
          "name": "C2",
          "ticks": 25920,
          "time": 197.56089,
          "velocity": 0.7480314960629921
        },
        {
          "duration": 0.2439023333333239,
          "durationTicks": 32,
          "midi": 42,
          "name": "F#2",
          "ticks": 25920,
          "time": 197.56089,
          "velocity": 0.7480314960629921
        },
        {
          "duration": 0.2439023333333239,
          "durationTicks": 32,
          "midi": 38,
          "name": "D2",
          "ticks": 25968,
          "time": 197.9267435,
          "velocity": 0.7480314960629921
        },
        {
          "duration": 0.2439023333333239,
          "durationTicks": 32,
          "midi": 42,
          "name": "F#2",
          "ticks": 25968,
          "time": 197.9267435,
          "velocity": 0.7480314960629921
        },
        {
          "duration": 0.2439023333333239,
          "durationTicks": 32,
          "midi": 36,
          "name": "C2",
          "ticks": 26016,
          "time": 198.292597,
          "velocity": 0.7480314960629921
        },
        {
          "duration": 0.2439023333333239,
          "durationTicks": 32,
          "midi": 42,
          "name": "F#2",
          "ticks": 26016,
          "time": 198.292597,
          "velocity": 0.7480314960629921
        },
        {
          "duration": 0.2439023333333239,
          "durationTicks": 32,
          "midi": 38,
          "name": "D2",
          "ticks": 26064,
          "time": 198.6584505,
          "velocity": 0.7480314960629921
        },
        {
          "duration": 0.2439023333333239,
          "durationTicks": 32,
          "midi": 42,
          "name": "F#2",
          "ticks": 26064,
          "time": 198.6584505,
          "velocity": 0.7480314960629921
        },
        {
          "duration": 0.09146337499998936,
          "durationTicks": 12,
          "midi": 38,
          "name": "D2",
          "ticks": 26136,
          "time": 199.20723075,
          "velocity": 0.7480314960629921
        },
        {
          "duration": 0.09146337499998936,
          "durationTicks": 12,
          "midi": 38,
          "name": "D2",
          "ticks": 26148,
          "time": 199.298694125,
          "velocity": 0.7480314960629921
        },
        {
          "duration": 0.2439023333333239,
          "durationTicks": 32,
          "midi": 38,
          "name": "D2",
          "ticks": 26160,
          "time": 199.3901575,
          "velocity": 0.7480314960629921
        },
        {
          "duration": 0.2439023333333239,
          "durationTicks": 32,
          "midi": 43,
          "name": "G2",
          "ticks": 26184,
          "time": 199.57308425,
          "velocity": 0.7480314960629921
        },
        {
          "duration": 0.1829267499999787,
          "durationTicks": 24,
          "midi": 43,
          "name": "G2",
          "ticks": 26232,
          "time": 199.93893775,
          "velocity": 0.7480314960629921
        },
        {
          "duration": 0.2439023333333239,
          "durationTicks": 32,
          "midi": 43,
          "name": "G2",
          "ticks": 26256,
          "time": 200.1218645,
          "velocity": 0.7480314960629921
        },
        {
          "duration": 0.2439023333333239,
          "durationTicks": 32,
          "midi": 36,
          "name": "C2",
          "ticks": 26304,
          "time": 200.487718,
          "velocity": 0.7480314960629921
        },
        {
          "duration": 0.2439023333333239,
          "durationTicks": 32,
          "midi": 49,
          "name": "C#3",
          "ticks": 26304,
          "time": 200.487718,
          "velocity": 0.7480314960629921
        },
        {
          "duration": 0.2439023333333239,
          "durationTicks": 32,
          "midi": 38,
          "name": "D2",
          "ticks": 26352,
          "time": 200.8535715,
          "velocity": 0.7480314960629921
        },
        {
          "duration": 0.2439023333333239,
          "durationTicks": 32,
          "midi": 42,
          "name": "F#2",
          "ticks": 26352,
          "time": 200.8535715,
          "velocity": 0.7480314960629921
        },
        {
          "duration": 0.2439023333333239,
          "durationTicks": 32,
          "midi": 36,
          "name": "C2",
          "ticks": 26400,
          "time": 201.219425,
          "velocity": 0.7480314960629921
        },
        {
          "duration": 0.2439023333333239,
          "durationTicks": 32,
          "midi": 42,
          "name": "F#2",
          "ticks": 26400,
          "time": 201.219425,
          "velocity": 0.7480314960629921
        },
        {
          "duration": 0.2439023333333239,
          "durationTicks": 32,
          "midi": 38,
          "name": "D2",
          "ticks": 26448,
          "time": 201.5852785,
          "velocity": 0.7480314960629921
        },
        {
          "duration": 0.2439023333333239,
          "durationTicks": 32,
          "midi": 42,
          "name": "F#2",
          "ticks": 26448,
          "time": 201.5852785,
          "velocity": 0.7480314960629921
        },
        {
          "duration": 0.2439023333333239,
          "durationTicks": 32,
          "midi": 36,
          "name": "C2",
          "ticks": 26496,
          "time": 201.951132,
          "velocity": 0.7480314960629921
        },
        {
          "duration": 0.2439023333333239,
          "durationTicks": 32,
          "midi": 42,
          "name": "F#2",
          "ticks": 26496,
          "time": 201.951132,
          "velocity": 0.7480314960629921
        },
        {
          "duration": 0.2439023333333239,
          "durationTicks": 32,
          "midi": 38,
          "name": "D2",
          "ticks": 26544,
          "time": 202.3169855,
          "velocity": 0.7480314960629921
        },
        {
          "duration": 0.2439023333333239,
          "durationTicks": 32,
          "midi": 42,
          "name": "F#2",
          "ticks": 26544,
          "time": 202.3169855,
          "velocity": 0.7480314960629921
        },
        {
          "duration": 0.2439023333333239,
          "durationTicks": 32,
          "midi": 36,
          "name": "C2",
          "ticks": 26592,
          "time": 202.682839,
          "velocity": 0.7480314960629921
        },
        {
          "duration": 0.2439023333333239,
          "durationTicks": 32,
          "midi": 42,
          "name": "F#2",
          "ticks": 26592,
          "time": 202.682839,
          "velocity": 0.7480314960629921
        },
        {
          "duration": 0.1829267499999787,
          "durationTicks": 24,
          "midi": 38,
          "name": "D2",
          "ticks": 26616,
          "time": 202.86576575,
          "velocity": 0.7480314960629921
        },
        {
          "duration": 0.2439023333333239,
          "durationTicks": 32,
          "midi": 38,
          "name": "D2",
          "ticks": 26640,
          "time": 203.0486925,
          "velocity": 0.7480314960629921
        },
        {
          "duration": 0.2439023333333239,
          "durationTicks": 32,
          "midi": 42,
          "name": "F#2",
          "ticks": 26640,
          "time": 203.0486925,
          "velocity": 0.7480314960629921
        },
        {
          "duration": 0.2439023333333239,
          "durationTicks": 32,
          "midi": 36,
          "name": "C2",
          "ticks": 26688,
          "time": 203.414546,
          "velocity": 0.7480314960629921
        },
        {
          "duration": 0.2439023333333239,
          "durationTicks": 32,
          "midi": 42,
          "name": "F#2",
          "ticks": 26688,
          "time": 203.414546,
          "velocity": 0.7480314960629921
        },
        {
          "duration": 0.2439023333333239,
          "durationTicks": 32,
          "midi": 42,
          "name": "F#2",
          "ticks": 26736,
          "time": 203.7803995,
          "velocity": 0.7480314960629921
        },
        {
          "duration": 0.18292675000000713,
          "durationTicks": 24,
          "midi": 38,
          "name": "D2",
          "ticks": 26832,
          "time": 204.5121065,
          "velocity": 0.7480314960629921
        },
        {
          "duration": 0.2439023333333239,
          "durationTicks": 32,
          "midi": 38,
          "name": "D2",
          "ticks": 26856,
          "time": 204.69503325,
          "velocity": 0.7480314960629921
        },
        {
          "duration": 0.12195116666666195,
          "durationTicks": 16,
          "midi": 38,
          "name": "D2",
          "ticks": 26904,
          "time": 205.06088675,
          "velocity": 0.7480314960629921
        },
        {
          "duration": 0.18292675000000713,
          "durationTicks": 24,
          "midi": 43,
          "name": "G2",
          "ticks": 26928,
          "time": 205.2438135,
          "velocity": 0.7480314960629921
        },
        {
          "duration": 0.12195116666669037,
          "durationTicks": 16,
          "midi": 43,
          "name": "G2",
          "ticks": 26952,
          "time": 205.42674025,
          "velocity": 0.7480314960629921
        },
        {
          "duration": 0.24390233333329547,
          "durationTicks": 32,
          "midi": 38,
          "name": "D2",
          "ticks": 27000,
          "time": 205.79259375,
          "velocity": 0.7480314960629921
        },
        {
          "duration": 0.2439023333333239,
          "durationTicks": 32,
          "midi": 43,
          "name": "G2",
          "ticks": 27024,
          "time": 205.9755205,
          "velocity": 0.7480314960629921
        },
        {
          "duration": 0.2439023333333239,
          "durationTicks": 32,
          "midi": 36,
          "name": "C2",
          "ticks": 27072,
          "time": 206.341374,
          "velocity": 0.7480314960629921
        },
        {
          "duration": 0.2439023333333239,
          "durationTicks": 32,
          "midi": 49,
          "name": "C#3",
          "ticks": 27072,
          "time": 206.341374,
          "velocity": 0.7480314960629921
        },
        {
          "duration": 0.2439023333333239,
          "durationTicks": 32,
          "midi": 38,
          "name": "D2",
          "ticks": 27120,
          "time": 206.7072275,
          "velocity": 0.7480314960629921
        },
        {
          "duration": 0.2439023333333239,
          "durationTicks": 32,
          "midi": 42,
          "name": "F#2",
          "ticks": 27120,
          "time": 206.7072275,
          "velocity": 0.7480314960629921
        },
        {
          "duration": 0.2439023333333239,
          "durationTicks": 32,
          "midi": 36,
          "name": "C2",
          "ticks": 27168,
          "time": 207.073081,
          "velocity": 0.7480314960629921
        },
        {
          "duration": 0.2439023333333239,
          "durationTicks": 32,
          "midi": 42,
          "name": "F#2",
          "ticks": 27168,
          "time": 207.073081,
          "velocity": 0.7480314960629921
        },
        {
          "duration": 0.2439023333333239,
          "durationTicks": 32,
          "midi": 38,
          "name": "D2",
          "ticks": 27216,
          "time": 207.4389345,
          "velocity": 0.7480314960629921
        },
        {
          "duration": 0.2439023333333239,
          "durationTicks": 32,
          "midi": 42,
          "name": "F#2",
          "ticks": 27216,
          "time": 207.4389345,
          "velocity": 0.7480314960629921
        },
        {
          "duration": 0.2439023333333239,
          "durationTicks": 32,
          "midi": 36,
          "name": "C2",
          "ticks": 27264,
          "time": 207.804788,
          "velocity": 0.7480314960629921
        },
        {
          "duration": 0.2439023333333239,
          "durationTicks": 32,
          "midi": 42,
          "name": "F#2",
          "ticks": 27264,
          "time": 207.804788,
          "velocity": 0.7480314960629921
        },
        {
          "duration": 0.2439023333333239,
          "durationTicks": 32,
          "midi": 38,
          "name": "D2",
          "ticks": 27312,
          "time": 208.1706415,
          "velocity": 0.7480314960629921
        },
        {
          "duration": 0.2439023333333239,
          "durationTicks": 32,
          "midi": 42,
          "name": "F#2",
          "ticks": 27312,
          "time": 208.1706415,
          "velocity": 0.7480314960629921
        },
        {
          "duration": 0.2439023333333239,
          "durationTicks": 32,
          "midi": 36,
          "name": "C2",
          "ticks": 27360,
          "time": 208.536495,
          "velocity": 0.7480314960629921
        },
        {
          "duration": 0.2439023333333239,
          "durationTicks": 32,
          "midi": 42,
          "name": "F#2",
          "ticks": 27360,
          "time": 208.536495,
          "velocity": 0.7480314960629921
        },
        {
          "duration": 0.2439023333333239,
          "durationTicks": 32,
          "midi": 38,
          "name": "D2",
          "ticks": 27408,
          "time": 208.9023485,
          "velocity": 0.7480314960629921
        },
        {
          "duration": 0.2439023333333239,
          "durationTicks": 32,
          "midi": 42,
          "name": "F#2",
          "ticks": 27408,
          "time": 208.9023485,
          "velocity": 0.7480314960629921
        },
        {
          "duration": 0.2439023333333239,
          "durationTicks": 32,
          "midi": 36,
          "name": "C2",
          "ticks": 27456,
          "time": 209.268202,
          "velocity": 0.7480314960629921
        },
        {
          "duration": 0.2439023333333239,
          "durationTicks": 32,
          "midi": 38,
          "name": "D2",
          "ticks": 27504,
          "time": 209.6340555,
          "velocity": 0.7480314960629921
        },
        {
          "duration": 0.1829267499999787,
          "durationTicks": 24,
          "midi": 38,
          "name": "D2",
          "ticks": 27576,
          "time": 210.18283575,
          "velocity": 0.7480314960629921
        },
        {
          "duration": 0.12195116666669037,
          "durationTicks": 16,
          "midi": 38,
          "name": "D2",
          "ticks": 27600,
          "time": 210.3657625,
          "velocity": 0.7480314960629921
        },
        {
          "duration": 0.12195116666663353,
          "durationTicks": 16,
          "midi": 38,
          "name": "D2",
          "ticks": 27616,
          "time": 210.48771366666668,
          "velocity": 0.7480314960629921
        },
        {
          "duration": 0.12195116666669037,
          "durationTicks": 16,
          "midi": 38,
          "name": "D2",
          "ticks": 27632,
          "time": 210.6096648333333,
          "velocity": 0.7480314960629921
        },
        {
          "duration": 0.12195116666669037,
          "durationTicks": 16,
          "midi": 38,
          "name": "D2",
          "ticks": 27648,
          "time": 210.731616,
          "velocity": 0.7480314960629921
        },
        {
          "duration": 0.12195116666663353,
          "durationTicks": 16,
          "midi": 38,
          "name": "D2",
          "ticks": 27664,
          "time": 210.8535671666667,
          "velocity": 0.7480314960629921
        },
        {
          "duration": 0.16768285416668505,
          "durationTicks": 22,
          "midi": 38,
          "name": "D2",
          "ticks": 27680,
          "time": 210.97551833333333,
          "velocity": 0.7480314960629921
        },
        {
          "duration": 0.12195116666669037,
          "durationTicks": 16,
          "midi": 43,
          "name": "G2",
          "ticks": 27696,
          "time": 211.0974695,
          "velocity": 0.7480314960629921
        },
        {
          "duration": 0.12195116666663353,
          "durationTicks": 16,
          "midi": 43,
          "name": "G2",
          "ticks": 27712,
          "time": 211.21942066666668,
          "velocity": 0.7480314960629921
        },
        {
          "duration": 0.12195116666669037,
          "durationTicks": 16,
          "midi": 43,
          "name": "G2",
          "ticks": 27728,
          "time": 211.3413718333333,
          "velocity": 0.7480314960629921
        },
        {
          "duration": 0.12195116666669037,
          "durationTicks": 16,
          "midi": 43,
          "name": "G2",
          "ticks": 27744,
          "time": 211.463323,
          "velocity": 0.7480314960629921
        },
        {
          "duration": 0.12195116666663353,
          "durationTicks": 16,
          "midi": 43,
          "name": "G2",
          "ticks": 27760,
          "time": 211.5852741666667,
          "velocity": 0.7480314960629921
        },
        {
          "duration": 0.12195116666666195,
          "durationTicks": 16,
          "midi": 43,
          "name": "G2",
          "ticks": 27776,
          "time": 211.70722533333333,
          "velocity": 0.7480314960629921
        },
        {
          "duration": 0.12195116666669037,
          "durationTicks": 16,
          "midi": 43,
          "name": "G2",
          "ticks": 27792,
          "time": 211.8291765,
          "velocity": 0.7480314960629921
        },
        {
          "duration": 0.12195116666663353,
          "durationTicks": 16,
          "midi": 43,
          "name": "G2",
          "ticks": 27808,
          "time": 211.95112766666668,
          "velocity": 0.7480314960629921
        },
        {
          "duration": 0.16768285416668505,
          "durationTicks": 22,
          "midi": 43,
          "name": "G2",
          "ticks": 27824,
          "time": 212.0730788333333,
          "velocity": 0.7480314960629921
        },
        {
          "duration": 0.2439023333333239,
          "durationTicks": 32,
          "midi": 36,
          "name": "C2",
          "ticks": 27840,
          "time": 212.19503,
          "velocity": 0.7480314960629921
        },
        {
          "duration": 0.2439023333333239,
          "durationTicks": 32,
          "midi": 49,
          "name": "C#3",
          "ticks": 27840,
          "time": 212.19503,
          "velocity": 0.7480314960629921
        },
        {
          "duration": 0.2439023333333239,
          "durationTicks": 32,
          "midi": 38,
          "name": "D2",
          "ticks": 27888,
          "time": 212.5608835,
          "velocity": 0.7480314960629921
        },
        {
          "duration": 0.2439023333333239,
          "durationTicks": 32,
          "midi": 42,
          "name": "F#2",
          "ticks": 27888,
          "time": 212.5608835,
          "velocity": 0.7480314960629921
        },
        {
          "duration": 0.2439023333333239,
          "durationTicks": 32,
          "midi": 36,
          "name": "C2",
          "ticks": 27936,
          "time": 212.926737,
          "velocity": 0.7480314960629921
        },
        {
          "duration": 0.2439023333333239,
          "durationTicks": 32,
          "midi": 42,
          "name": "F#2",
          "ticks": 27936,
          "time": 212.926737,
          "velocity": 0.7480314960629921
        },
        {
          "duration": 0.2439023333333239,
          "durationTicks": 32,
          "midi": 38,
          "name": "D2",
          "ticks": 27984,
          "time": 213.2925905,
          "velocity": 0.7480314960629921
        },
        {
          "duration": 0.2439023333333239,
          "durationTicks": 32,
          "midi": 42,
          "name": "F#2",
          "ticks": 27984,
          "time": 213.2925905,
          "velocity": 0.7480314960629921
        },
        {
          "duration": 0.2439023333333239,
          "durationTicks": 32,
          "midi": 36,
          "name": "C2",
          "ticks": 28032,
          "time": 213.658444,
          "velocity": 0.7480314960629921
        },
        {
          "duration": 0.2439023333333239,
          "durationTicks": 32,
          "midi": 42,
          "name": "F#2",
          "ticks": 28032,
          "time": 213.658444,
          "velocity": 0.7480314960629921
        },
        {
          "duration": 0.2439023333333239,
          "durationTicks": 32,
          "midi": 38,
          "name": "D2",
          "ticks": 28080,
          "time": 214.0242975,
          "velocity": 0.7480314960629921
        },
        {
          "duration": 0.2439023333333239,
          "durationTicks": 32,
          "midi": 42,
          "name": "F#2",
          "ticks": 28080,
          "time": 214.0242975,
          "velocity": 0.7480314960629921
        },
        {
          "duration": 0.24390233333329547,
          "durationTicks": 32,
          "midi": 38,
          "name": "D2",
          "ticks": 28152,
          "time": 214.57307775,
          "velocity": 0.7480314960629921
        },
        {
          "duration": 0.12195116666669037,
          "durationTicks": 16,
          "midi": 43,
          "name": "G2",
          "ticks": 28176,
          "time": 214.7560045,
          "velocity": 0.7480314960629921
        },
        {
          "duration": 0.12195116666663353,
          "durationTicks": 16,
          "midi": 43,
          "name": "G2",
          "ticks": 28192,
          "time": 214.87795566666668,
          "velocity": 0.7480314960629921
        },
        {
          "duration": 0.16768285416668505,
          "durationTicks": 22,
          "midi": 43,
          "name": "G2",
          "ticks": 28208,
          "time": 214.9999068333333,
          "velocity": 0.7480314960629921
        },
        {
          "duration": 0.2439023333333239,
          "durationTicks": 32,
          "midi": 38,
          "name": "D2",
          "ticks": 28272,
          "time": 215.4877115,
          "velocity": 0.7480314960629921
        },
        {
          "duration": 0.1829267499999787,
          "durationTicks": 24,
          "midi": 43,
          "name": "G2",
          "ticks": 28344,
          "time": 216.03649175,
          "velocity": 0.7480314960629921
        },
        {
          "duration": 0.18292675000000713,
          "durationTicks": 24,
          "midi": 43,
          "name": "G2",
          "ticks": 28368,
          "time": 216.2194185,
          "velocity": 0.7480314960629921
        },
        {
          "duration": 0.2439023333333239,
          "durationTicks": 32,
          "midi": 43,
          "name": "G2",
          "ticks": 28392,
          "time": 216.40234525,
          "velocity": 0.7480314960629921
        },
        {
          "duration": 0.1829267499999787,
          "durationTicks": 24,
          "midi": 43,
          "name": "G2",
          "ticks": 28440,
          "time": 216.76819875,
          "velocity": 0.7480314960629921
        },
        {
          "duration": 0.18292675000000713,
          "durationTicks": 24,
          "midi": 43,
          "name": "G2",
          "ticks": 28464,
          "time": 216.9511255,
          "velocity": 0.7480314960629921
        },
        {
          "duration": 0.18292675000000713,
          "durationTicks": 24,
          "midi": 43,
          "name": "G2",
          "ticks": 28488,
          "time": 217.13405225,
          "velocity": 0.7480314960629921
        },
        {
          "duration": 0.18292675000000713,
          "durationTicks": 24,
          "midi": 43,
          "name": "G2",
          "ticks": 28512,
          "time": 217.316979,
          "velocity": 0.7480314960629921
        },
        {
          "duration": 0.1829267499999787,
          "durationTicks": 24,
          "midi": 43,
          "name": "G2",
          "ticks": 28536,
          "time": 217.49990575,
          "velocity": 0.7480314960629921
        },
        {
          "duration": 0.2439023333333239,
          "durationTicks": 32,
          "midi": 43,
          "name": "G2",
          "ticks": 28560,
          "time": 217.6828325,
          "velocity": 0.7480314960629921
        },
        {
          "duration": 0.2439023333333239,
          "durationTicks": 32,
          "midi": 36,
          "name": "C2",
          "ticks": 28608,
          "time": 218.048686,
          "velocity": 0.7480314960629921
        },
        {
          "duration": 0.2439023333333239,
          "durationTicks": 32,
          "midi": 49,
          "name": "C#3",
          "ticks": 28608,
          "time": 218.048686,
          "velocity": 0.7480314960629921
        },
        {
          "duration": 0.2439023333333239,
          "durationTicks": 32,
          "midi": 46,
          "name": "A#2",
          "ticks": 28656,
          "time": 218.4145395,
          "velocity": 0.7480314960629921
        },
        {
          "duration": 0.2439023333333239,
          "durationTicks": 32,
          "midi": 38,
          "name": "D2",
          "ticks": 28704,
          "time": 218.780393,
          "velocity": 0.7480314960629921
        },
        {
          "duration": 0.2439023333333239,
          "durationTicks": 32,
          "midi": 46,
          "name": "A#2",
          "ticks": 28704,
          "time": 218.780393,
          "velocity": 0.7480314960629921
        },
        {
          "duration": 0.2439023333333239,
          "durationTicks": 32,
          "midi": 36,
          "name": "C2",
          "ticks": 28752,
          "time": 219.1462465,
          "velocity": 0.7480314960629921
        },
        {
          "duration": 0.2439023333333239,
          "durationTicks": 32,
          "midi": 46,
          "name": "A#2",
          "ticks": 28752,
          "time": 219.1462465,
          "velocity": 0.7480314960629921
        },
        {
          "duration": 0.2439023333333239,
          "durationTicks": 32,
          "midi": 36,
          "name": "C2",
          "ticks": 28800,
          "time": 219.5121,
          "velocity": 0.7480314960629921
        },
        {
          "duration": 0.2439023333333239,
          "durationTicks": 32,
          "midi": 46,
          "name": "A#2",
          "ticks": 28800,
          "time": 219.5121,
          "velocity": 0.7480314960629921
        },
        {
          "duration": 0.2439023333333239,
          "durationTicks": 32,
          "midi": 46,
          "name": "A#2",
          "ticks": 28848,
          "time": 219.8779535,
          "velocity": 0.7480314960629921
        },
        {
          "duration": 0.2439023333333239,
          "durationTicks": 32,
          "midi": 38,
          "name": "D2",
          "ticks": 28896,
          "time": 220.243807,
          "velocity": 0.7480314960629921
        },
        {
          "duration": 0.2439023333333239,
          "durationTicks": 32,
          "midi": 46,
          "name": "A#2",
          "ticks": 28896,
          "time": 220.243807,
          "velocity": 0.7480314960629921
        },
        {
          "duration": 0.24390233333329547,
          "durationTicks": 32,
          "midi": 43,
          "name": "G2",
          "ticks": 28920,
          "time": 220.42673375,
          "velocity": 0.7480314960629921
        },
        {
          "duration": 0.2439023333333239,
          "durationTicks": 32,
          "midi": 36,
          "name": "C2",
          "ticks": 28944,
          "time": 220.6096605,
          "velocity": 0.7480314960629921
        },
        {
          "duration": 0.2439023333333239,
          "durationTicks": 32,
          "midi": 38,
          "name": "D2",
          "ticks": 28944,
          "time": 220.6096605,
          "velocity": 0.7480314960629921
        },
        {
          "duration": 0.2439023333333239,
          "durationTicks": 32,
          "midi": 46,
          "name": "A#2",
          "ticks": 28944,
          "time": 220.6096605,
          "velocity": 0.7480314960629921
        },
        {
          "duration": 0.2439023333333239,
          "durationTicks": 32,
          "midi": 36,
          "name": "C2",
          "ticks": 28992,
          "time": 220.975514,
          "velocity": 0.7480314960629921
        },
        {
          "duration": 0.2439023333333239,
          "durationTicks": 32,
          "midi": 49,
          "name": "C#3",
          "ticks": 28992,
          "time": 220.975514,
          "velocity": 0.7480314960629921
        },
        {
          "duration": 0.2439023333333239,
          "durationTicks": 32,
          "midi": 42,
          "name": "F#2",
          "ticks": 29040,
          "time": 221.3413675,
          "velocity": 0.7480314960629921
        },
        {
          "duration": 0.2439023333333239,
          "durationTicks": 32,
          "midi": 38,
          "name": "D2",
          "ticks": 29088,
          "time": 221.707221,
          "velocity": 0.7480314960629921
        },
        {
          "duration": 0.2439023333333239,
          "durationTicks": 32,
          "midi": 42,
          "name": "F#2",
          "ticks": 29088,
          "time": 221.707221,
          "velocity": 0.7480314960629921
        },
        {
          "duration": 0.2439023333333239,
          "durationTicks": 32,
          "midi": 36,
          "name": "C2",
          "ticks": 29136,
          "time": 222.0730745,
          "velocity": 0.7480314960629921
        },
        {
          "duration": 0.2439023333333239,
          "durationTicks": 32,
          "midi": 42,
          "name": "F#2",
          "ticks": 29136,
          "time": 222.0730745,
          "velocity": 0.7480314960629921
        },
        {
          "duration": 0.2439023333333239,
          "durationTicks": 32,
          "midi": 36,
          "name": "C2",
          "ticks": 29184,
          "time": 222.438928,
          "velocity": 0.7480314960629921
        },
        {
          "duration": 0.2439023333333239,
          "durationTicks": 32,
          "midi": 38,
          "name": "D2",
          "ticks": 29232,
          "time": 222.8047815,
          "velocity": 0.7480314960629921
        },
        {
          "duration": 0.2439023333333239,
          "durationTicks": 32,
          "midi": 38,
          "name": "D2",
          "ticks": 29328,
          "time": 223.5364885,
          "velocity": 0.7480314960629921
        },
        {
          "duration": 0.12195116666666195,
          "durationTicks": 16,
          "midi": 36,
          "name": "C2",
          "ticks": 29376,
          "time": 223.902342,
          "velocity": 0.7480314960629921
        },
        {
          "duration": 0.12195116666666195,
          "durationTicks": 16,
          "midi": 49,
          "name": "C#3",
          "ticks": 29376,
          "time": 223.902342,
          "velocity": 0.7480314960629921
        },
        {
          "duration": 0.12195116666669037,
          "durationTicks": 16,
          "midi": 38,
          "name": "D2",
          "ticks": 29424,
          "time": 224.2681955,
          "velocity": 0.7480314960629921
        },
        {
          "duration": 0.12195116666669037,
          "durationTicks": 16,
          "midi": 42,
          "name": "F#2",
          "ticks": 29424,
          "time": 224.2681955,
          "velocity": 0.7480314960629921
        },
        {
          "duration": 0.12195116666666195,
          "durationTicks": 16,
          "midi": 36,
          "name": "C2",
          "ticks": 29472,
          "time": 224.634049,
          "velocity": 0.7480314960629921
        },
        {
          "duration": 0.12195116666666195,
          "durationTicks": 16,
          "midi": 42,
          "name": "F#2",
          "ticks": 29472,
          "time": 224.634049,
          "velocity": 0.7480314960629921
        },
        {
          "duration": 0.12195116666669037,
          "durationTicks": 16,
          "midi": 38,
          "name": "D2",
          "ticks": 29520,
          "time": 224.9999025,
          "velocity": 0.7480314960629921
        },
        {
          "duration": 0.12195116666669037,
          "durationTicks": 16,
          "midi": 42,
          "name": "F#2",
          "ticks": 29520,
          "time": 224.9999025,
          "velocity": 0.7480314960629921
        },
        {
          "duration": 0.12195116666666195,
          "durationTicks": 16,
          "midi": 36,
          "name": "C2",
          "ticks": 29568,
          "time": 225.365756,
          "velocity": 0.7480314960629921
        },
        {
          "duration": 0.12195116666666195,
          "durationTicks": 16,
          "midi": 42,
          "name": "F#2",
          "ticks": 29568,
          "time": 225.365756,
          "velocity": 0.7480314960629921
        },
        {
          "duration": 0.12195116666669037,
          "durationTicks": 16,
          "midi": 38,
          "name": "D2",
          "ticks": 29616,
          "time": 225.7316095,
          "velocity": 0.7480314960629921
        },
        {
          "duration": 0.12195116666669037,
          "durationTicks": 16,
          "midi": 42,
          "name": "F#2",
          "ticks": 29616,
          "time": 225.7316095,
          "velocity": 0.7480314960629921
        },
        {
          "duration": 0.12195116666666195,
          "durationTicks": 16,
          "midi": 36,
          "name": "C2",
          "ticks": 29664,
          "time": 226.097463,
          "velocity": 0.7480314960629921
        },
        {
          "duration": 0.12195116666666195,
          "durationTicks": 16,
          "midi": 42,
          "name": "F#2",
          "ticks": 29664,
          "time": 226.097463,
          "velocity": 0.7480314960629921
        },
        {
          "duration": 0.12195116666669037,
          "durationTicks": 16,
          "midi": 38,
          "name": "D2",
          "ticks": 29712,
          "time": 226.4633165,
          "velocity": 0.7480314960629921
        },
        {
          "duration": 0.12195116666669037,
          "durationTicks": 16,
          "midi": 42,
          "name": "F#2",
          "ticks": 29712,
          "time": 226.4633165,
          "velocity": 0.7480314960629921
        },
        {
          "duration": 0.07621947916669569,
          "durationTicks": 10,
          "midi": 38,
          "name": "D2",
          "ticks": 29808,
          "time": 227.1950235,
          "velocity": 0.7480314960629921
        },
        {
          "duration": 0.07621947916663885,
          "durationTicks": 10,
          "midi": 38,
          "name": "D2",
          "ticks": 29824,
          "time": 227.31697466666668,
          "velocity": 0.7480314960629921
        },
        {
          "duration": 0.07621947916669569,
          "durationTicks": 10,
          "midi": 38,
          "name": "D2",
          "ticks": 29840,
          "time": 227.43892583333331,
          "velocity": 0.7480314960629921
        },
        {
          "duration": 0.07621947916666727,
          "durationTicks": 10,
          "midi": 43,
          "name": "G2",
          "ticks": 29856,
          "time": 227.560877,
          "velocity": 0.7480314960629921
        },
        {
          "duration": 0.07621947916663885,
          "durationTicks": 10,
          "midi": 38,
          "name": "D2",
          "ticks": 29872,
          "time": 227.68282816666667,
          "velocity": 0.7480314960629921
        },
        {
          "duration": 0.07621947916666727,
          "durationTicks": 10,
          "midi": 43,
          "name": "G2",
          "ticks": 29888,
          "time": 227.80477933333333,
          "velocity": 0.7480314960629921
        },
        {
          "duration": 0.12195116666669037,
          "durationTicks": 16,
          "midi": 43,
          "name": "G2",
          "ticks": 29904,
          "time": 227.9267305,
          "velocity": 0.7480314960629921
        },
        {
          "duration": 0.12195116666666195,
          "durationTicks": 16,
          "midi": 36,
          "name": "C2",
          "ticks": 29952,
          "time": 228.292584,
          "velocity": 0.7480314960629921
        },
        {
          "duration": 0.12195116666666195,
          "durationTicks": 16,
          "midi": 49,
          "name": "C#3",
          "ticks": 29952,
          "time": 228.292584,
          "velocity": 0.7480314960629921
        },
        {
          "duration": 0.12195116666669037,
          "durationTicks": 16,
          "midi": 38,
          "name": "D2",
          "ticks": 30000,
          "time": 228.6584375,
          "velocity": 0.7480314960629921
        },
        {
          "duration": 0.12195116666669037,
          "durationTicks": 16,
          "midi": 42,
          "name": "F#2",
          "ticks": 30000,
          "time": 228.6584375,
          "velocity": 0.7480314960629921
        },
        {
          "duration": 0.12195116666666195,
          "durationTicks": 16,
          "midi": 36,
          "name": "C2",
          "ticks": 30048,
          "time": 229.024291,
          "velocity": 0.7480314960629921
        },
        {
          "duration": 0.12195116666666195,
          "durationTicks": 16,
          "midi": 42,
          "name": "F#2",
          "ticks": 30048,
          "time": 229.024291,
          "velocity": 0.7480314960629921
        },
        {
          "duration": 0.12195116666669037,
          "durationTicks": 16,
          "midi": 38,
          "name": "D2",
          "ticks": 30096,
          "time": 229.3901445,
          "velocity": 0.7480314960629921
        },
        {
          "duration": 0.12195116666669037,
          "durationTicks": 16,
          "midi": 42,
          "name": "F#2",
          "ticks": 30096,
          "time": 229.3901445,
          "velocity": 0.7480314960629921
        },
        {
          "duration": 0.12195116666666195,
          "durationTicks": 16,
          "midi": 36,
          "name": "C2",
          "ticks": 30144,
          "time": 229.755998,
          "velocity": 0.7480314960629921
        },
        {
          "duration": 0.12195116666666195,
          "durationTicks": 16,
          "midi": 49,
          "name": "C#3",
          "ticks": 30144,
          "time": 229.755998,
          "velocity": 0.7480314960629921
        },
        {
          "duration": 0.12195116666669037,
          "durationTicks": 16,
          "midi": 38,
          "name": "D2",
          "ticks": 30192,
          "time": 230.1218515,
          "velocity": 0.7480314960629921
        },
        {
          "duration": 0.12195116666669037,
          "durationTicks": 16,
          "midi": 42,
          "name": "F#2",
          "ticks": 30192,
          "time": 230.1218515,
          "velocity": 0.7480314960629921
        },
        {
          "duration": 0.12195116666669037,
          "durationTicks": 16,
          "midi": 43,
          "name": "G2",
          "ticks": 30288,
          "time": 230.8535585,
          "velocity": 0.7480314960629921
        },
        {
          "duration": 0.12195116666669037,
          "durationTicks": 16,
          "midi": 43,
          "name": "G2",
          "ticks": 30312,
          "time": 231.03648525,
          "velocity": 0.7480314960629921
        },
        {
          "duration": 0.12195116666669037,
          "durationTicks": 16,
          "midi": 43,
          "name": "G2",
          "ticks": 30384,
          "time": 231.5852655,
          "velocity": 0.7480314960629921
        },
        {
          "duration": 0.12195116666669037,
          "durationTicks": 16,
          "midi": 43,
          "name": "G2",
          "ticks": 30408,
          "time": 231.76819225,
          "velocity": 0.7480314960629921
        },
        {
          "duration": 0.12195116666666195,
          "durationTicks": 16,
          "midi": 43,
          "name": "G2",
          "ticks": 30456,
          "time": 232.13404575,
          "velocity": 0.7480314960629921
        },
        {
          "duration": 0.12195116666669037,
          "durationTicks": 16,
          "midi": 43,
          "name": "G2",
          "ticks": 30480,
          "time": 232.3169725,
          "velocity": 0.7480314960629921
        },
        {
          "duration": 0.12195116666669037,
          "durationTicks": 16,
          "midi": 43,
          "name": "G2",
          "ticks": 30504,
          "time": 232.49989925,
          "velocity": 0.7480314960629921
        },
        {
          "duration": 0.18292675000000713,
          "durationTicks": 24,
          "midi": 43,
          "name": "G2",
          "ticks": 30576,
          "time": 233.0486795,
          "velocity": 0.8346456692913385
        },
        {
          "duration": 0.2439023333333239,
          "durationTicks": 32,
          "midi": 43,
          "name": "G2",
          "ticks": 30600,
          "time": 233.23160625,
          "velocity": 0.8346456692913385
        },
        {
          "duration": 0.1829267499999787,
          "durationTicks": 24,
          "midi": 43,
          "name": "G2",
          "ticks": 30648,
          "time": 233.59745975,
          "velocity": 0.8346456692913385
        },
        {
          "duration": 0.2439023333333239,
          "durationTicks": 32,
          "midi": 43,
          "name": "G2",
          "ticks": 30672,
          "time": 233.7803865,
          "velocity": 0.8346456692913385
        },
        {
          "duration": 0.2439023333333239,
          "durationTicks": 32,
          "midi": 36,
          "name": "C2",
          "ticks": 30720,
          "time": 234.14624,
          "velocity": 0.8346456692913385
        },
        {
          "duration": 0.2439023333333239,
          "durationTicks": 32,
          "midi": 49,
          "name": "C#3",
          "ticks": 30720,
          "time": 234.14624,
          "velocity": 0.8346456692913385
        },
        {
          "duration": 0.2439023333333239,
          "durationTicks": 32,
          "midi": 38,
          "name": "D2",
          "ticks": 30768,
          "time": 234.5120935,
          "velocity": 0.8346456692913385
        },
        {
          "duration": 0.2439023333333239,
          "durationTicks": 32,
          "midi": 42,
          "name": "F#2",
          "ticks": 30768,
          "time": 234.5120935,
          "velocity": 0.8346456692913385
        },
        {
          "duration": 0.2439023333333239,
          "durationTicks": 32,
          "midi": 36,
          "name": "C2",
          "ticks": 30816,
          "time": 234.877947,
          "velocity": 0.8346456692913385
        },
        {
          "duration": 0.2439023333333239,
          "durationTicks": 32,
          "midi": 42,
          "name": "F#2",
          "ticks": 30816,
          "time": 234.877947,
          "velocity": 0.8346456692913385
        },
        {
          "duration": 0.2439023333333239,
          "durationTicks": 32,
          "midi": 38,
          "name": "D2",
          "ticks": 30864,
          "time": 235.2438005,
          "velocity": 0.8346456692913385
        },
        {
          "duration": 0.2439023333333239,
          "durationTicks": 32,
          "midi": 42,
          "name": "F#2",
          "ticks": 30864,
          "time": 235.2438005,
          "velocity": 0.8346456692913385
        },
        {
          "duration": 0.2439023333333239,
          "durationTicks": 32,
          "midi": 36,
          "name": "C2",
          "ticks": 30912,
          "time": 235.609654,
          "velocity": 0.8346456692913385
        },
        {
          "duration": 0.2439023333333239,
          "durationTicks": 32,
          "midi": 38,
          "name": "D2",
          "ticks": 30960,
          "time": 235.9755075,
          "velocity": 0.8346456692913385
        },
        {
          "duration": 0.2439023333333239,
          "durationTicks": 32,
          "midi": 42,
          "name": "F#2",
          "ticks": 30960,
          "time": 235.9755075,
          "velocity": 0.8346456692913385
        },
        {
          "duration": 0.2439023333333239,
          "durationTicks": 32,
          "midi": 36,
          "name": "C2",
          "ticks": 31008,
          "time": 236.341361,
          "velocity": 0.8346456692913385
        },
        {
          "duration": 0.2439023333333239,
          "durationTicks": 32,
          "midi": 38,
          "name": "D2",
          "ticks": 31056,
          "time": 236.7072145,
          "velocity": 0.8346456692913385
        },
        {
          "duration": 0.2439023333333239,
          "durationTicks": 32,
          "midi": 42,
          "name": "F#2",
          "ticks": 31056,
          "time": 236.7072145,
          "velocity": 0.8346456692913385
        },
        {
          "duration": 0.2439023333333239,
          "durationTicks": 32,
          "midi": 36,
          "name": "C2",
          "ticks": 31104,
          "time": 237.073068,
          "velocity": 0.8346456692913385
        },
        {
          "duration": 0.2439023333333239,
          "durationTicks": 32,
          "midi": 38,
          "name": "D2",
          "ticks": 31152,
          "time": 237.4389215,
          "velocity": 0.8346456692913385
        },
        {
          "duration": 0.2439023333333239,
          "durationTicks": 32,
          "midi": 42,
          "name": "F#2",
          "ticks": 31152,
          "time": 237.4389215,
          "velocity": 0.8346456692913385
        },
        {
          "duration": 0.2439023333333239,
          "durationTicks": 32,
          "midi": 36,
          "name": "C2",
          "ticks": 31200,
          "time": 237.804775,
          "velocity": 0.8346456692913385
        },
        {
          "duration": 0.2439023333333239,
          "durationTicks": 32,
          "midi": 38,
          "name": "D2",
          "ticks": 31248,
          "time": 238.1706285,
          "velocity": 0.8346456692913385
        },
        {
          "duration": 0.2439023333333239,
          "durationTicks": 32,
          "midi": 42,
          "name": "F#2",
          "ticks": 31248,
          "time": 238.1706285,
          "velocity": 0.8346456692913385
        },
        {
          "duration": 0.2439023333333239,
          "durationTicks": 32,
          "midi": 36,
          "name": "C2",
          "ticks": 31296,
          "time": 238.536482,
          "velocity": 0.8346456692913385
        },
        {
          "duration": 0.2439023333333239,
          "durationTicks": 32,
          "midi": 38,
          "name": "D2",
          "ticks": 31344,
          "time": 238.9023355,
          "velocity": 0.8346456692913385
        },
        {
          "duration": 0.2439023333333239,
          "durationTicks": 32,
          "midi": 42,
          "name": "F#2",
          "ticks": 31344,
          "time": 238.9023355,
          "velocity": 0.8346456692913385
        },
        {
          "duration": 0.2439023333333239,
          "durationTicks": 32,
          "midi": 36,
          "name": "C2",
          "ticks": 31392,
          "time": 239.268189,
          "velocity": 0.8346456692913385
        },
        {
          "duration": 0.2439023333333239,
          "durationTicks": 32,
          "midi": 38,
          "name": "D2",
          "ticks": 31440,
          "time": 239.6340425,
          "velocity": 0.8346456692913385
        },
        {
          "duration": 0.2439023333333239,
          "durationTicks": 32,
          "midi": 42,
          "name": "F#2",
          "ticks": 31440,
          "time": 239.6340425,
          "velocity": 0.8346456692913385
        },
        {
          "duration": 0.2439023333333239,
          "durationTicks": 32,
          "midi": 36,
          "name": "C2",
          "ticks": 31488,
          "time": 239.999896,
          "velocity": 0.8346456692913385
        },
        {
          "duration": 0.2439023333333239,
          "durationTicks": 32,
          "midi": 38,
          "name": "D2",
          "ticks": 31536,
          "time": 240.3657495,
          "velocity": 0.8346456692913385
        },
        {
          "duration": 0.2439023333333239,
          "durationTicks": 32,
          "midi": 42,
          "name": "F#2",
          "ticks": 31536,
          "time": 240.3657495,
          "velocity": 0.8346456692913385
        },
        {
          "duration": 0.2439023333333239,
          "durationTicks": 32,
          "midi": 36,
          "name": "C2",
          "ticks": 31584,
          "time": 240.731603,
          "velocity": 0.8346456692913385
        },
        {
          "duration": 0.2439023333333239,
          "durationTicks": 32,
          "midi": 38,
          "name": "D2",
          "ticks": 31632,
          "time": 241.0974565,
          "velocity": 0.8346456692913385
        },
        {
          "duration": 0.2439023333333239,
          "durationTicks": 32,
          "midi": 42,
          "name": "F#2",
          "ticks": 31632,
          "time": 241.0974565,
          "velocity": 0.8346456692913385
        },
        {
          "duration": 0.4878046666666762,
          "durationTicks": 64,
          "midi": 36,
          "name": "C2",
          "ticks": 31680,
          "time": 241.46331,
          "velocity": 0.8346456692913385
        },
        {
          "duration": 0.4878046666666762,
          "durationTicks": 64,
          "midi": 38,
          "name": "D2",
          "ticks": 31728,
          "time": 241.8291635,
          "velocity": 0.8346456692913385
        },
        {
          "duration": 0.4878046666666762,
          "durationTicks": 64,
          "midi": 42,
          "name": "F#2",
          "ticks": 31728,
          "time": 241.8291635,
          "velocity": 0.8346456692913385
        },
        {
          "duration": 0.4878046666666762,
          "durationTicks": 64,
          "midi": 36,
          "name": "C2",
          "ticks": 31776,
          "time": 242.195017,
          "velocity": 0.8346456692913385
        },
        {
          "duration": 0.4878046666666762,
          "durationTicks": 64,
          "midi": 38,
          "name": "D2",
          "ticks": 31824,
          "time": 242.5608705,
          "velocity": 0.8346456692913385
        },
        {
          "duration": 0.4878046666666762,
          "durationTicks": 64,
          "midi": 42,
          "name": "F#2",
          "ticks": 31824,
          "time": 242.5608705,
          "velocity": 0.8346456692913385
        },
        {
          "duration": 0.4878046666666762,
          "durationTicks": 64,
          "midi": 36,
          "name": "C2",
          "ticks": 31872,
          "time": 242.926724,
          "velocity": 0.8346456692913385
        },
        {
          "duration": 0.4878046666666762,
          "durationTicks": 64,
          "midi": 38,
          "name": "D2",
          "ticks": 31920,
          "time": 243.2925775,
          "velocity": 0.8346456692913385
        },
        {
          "duration": 0.4878046666666762,
          "durationTicks": 64,
          "midi": 42,
          "name": "F#2",
          "ticks": 31920,
          "time": 243.2925775,
          "velocity": 0.8346456692913385
        },
        {
          "duration": 0.4878046666666762,
          "durationTicks": 64,
          "midi": 36,
          "name": "C2",
          "ticks": 31968,
          "time": 243.658431,
          "velocity": 0.8346456692913385
        },
        {
          "duration": 0.4878046666666762,
          "durationTicks": 64,
          "midi": 38,
          "name": "D2",
          "ticks": 32016,
          "time": 244.0242845,
          "velocity": 0.8346456692913385
        },
        {
          "duration": 0.4878046666666762,
          "durationTicks": 64,
          "midi": 42,
          "name": "F#2",
          "ticks": 32016,
          "time": 244.0242845,
          "velocity": 0.8346456692913385
        },
        {
          "duration": 0.4878046666666762,
          "durationTicks": 64,
          "midi": 36,
          "name": "C2",
          "ticks": 32064,
          "time": 244.390138,
          "velocity": 0.8346456692913385
        },
        {
          "duration": 0.4878046666666762,
          "durationTicks": 64,
          "midi": 38,
          "name": "D2",
          "ticks": 32112,
          "time": 244.7559915,
          "velocity": 0.8346456692913385
        },
        {
          "duration": 0.4878046666666762,
          "durationTicks": 64,
          "midi": 42,
          "name": "F#2",
          "ticks": 32112,
          "time": 244.7559915,
          "velocity": 0.8346456692913385
        },
        {
          "duration": 0.4878046666666762,
          "durationTicks": 64,
          "midi": 36,
          "name": "C2",
          "ticks": 32160,
          "time": 245.121845,
          "velocity": 0.8346456692913385
        },
        {
          "duration": 0.4878046666666762,
          "durationTicks": 64,
          "midi": 38,
          "name": "D2",
          "ticks": 32208,
          "time": 245.4876985,
          "velocity": 0.8346456692913385
        },
        {
          "duration": 0.4878046666666762,
          "durationTicks": 64,
          "midi": 42,
          "name": "F#2",
          "ticks": 32208,
          "time": 245.4876985,
          "velocity": 0.8346456692913385
        },
        {
          "duration": 0.4878046666666762,
          "durationTicks": 64,
          "midi": 36,
          "name": "C2",
          "ticks": 32256,
          "time": 245.853552,
          "velocity": 0.8346456692913385
        },
        {
          "duration": 0.4878046666666762,
          "durationTicks": 64,
          "midi": 38,
          "name": "D2",
          "ticks": 32304,
          "time": 246.2194055,
          "velocity": 0.8346456692913385
        },
        {
          "duration": 0.4878046666666762,
          "durationTicks": 64,
          "midi": 42,
          "name": "F#2",
          "ticks": 32304,
          "time": 246.2194055,
          "velocity": 0.8346456692913385
        },
        {
          "duration": 0.4878046666666762,
          "durationTicks": 64,
          "midi": 36,
          "name": "C2",
          "ticks": 32352,
          "time": 246.585259,
          "velocity": 0.8346456692913385
        },
        {
          "duration": 0.4878046666666762,
          "durationTicks": 64,
          "midi": 38,
          "name": "D2",
          "ticks": 32400,
          "time": 246.9511125,
          "velocity": 0.8346456692913385
        },
        {
          "duration": 0.4878046666666762,
          "durationTicks": 64,
          "midi": 42,
          "name": "F#2",
          "ticks": 32400,
          "time": 246.9511125,
          "velocity": 0.8346456692913385
        },
        {
          "duration": 0.4878046666666762,
          "durationTicks": 64,
          "midi": 36,
          "name": "C2",
          "ticks": 32448,
          "time": 247.316966,
          "velocity": 0.8346456692913385
        },
        {
          "duration": 0.4878046666666762,
          "durationTicks": 64,
          "midi": 38,
          "name": "D2",
          "ticks": 32496,
          "time": 247.6828195,
          "velocity": 0.8346456692913385
        },
        {
          "duration": 0.4878046666666762,
          "durationTicks": 64,
          "midi": 42,
          "name": "F#2",
          "ticks": 32496,
          "time": 247.6828195,
          "velocity": 0.8346456692913385
        },
        {
          "duration": 0.4878046666666762,
          "durationTicks": 64,
          "midi": 36,
          "name": "C2",
          "ticks": 32544,
          "time": 248.048673,
          "velocity": 0.8346456692913385
        },
        {
          "duration": 0.4878046666666762,
          "durationTicks": 64,
          "midi": 38,
          "name": "D2",
          "ticks": 32592,
          "time": 248.4145265,
          "velocity": 0.8346456692913385
        },
        {
          "duration": 0.4878046666666762,
          "durationTicks": 64,
          "midi": 42,
          "name": "F#2",
          "ticks": 32592,
          "time": 248.4145265,
          "velocity": 0.8346456692913385
        },
        {
          "duration": 0.4878046666666762,
          "durationTicks": 64,
          "midi": 36,
          "name": "C2",
          "ticks": 32640,
          "time": 248.78038,
          "velocity": 0.8346456692913385
        },
        {
          "duration": 0.4878046666666762,
          "durationTicks": 64,
          "midi": 38,
          "name": "D2",
          "ticks": 32688,
          "time": 249.1462335,
          "velocity": 0.8346456692913385
        },
        {
          "duration": 0.4878046666666762,
          "durationTicks": 64,
          "midi": 42,
          "name": "F#2",
          "ticks": 32688,
          "time": 249.1462335,
          "velocity": 0.8346456692913385
        },
        {
          "duration": 0.4878046666666762,
          "durationTicks": 64,
          "midi": 36,
          "name": "C2",
          "ticks": 32736,
          "time": 249.512087,
          "velocity": 0.8346456692913385
        },
        {
          "duration": 0.4878046666666762,
          "durationTicks": 64,
          "midi": 38,
          "name": "D2",
          "ticks": 32784,
          "time": 249.8779405,
          "velocity": 0.8346456692913385
        },
        {
          "duration": 0.4878046666666762,
          "durationTicks": 64,
          "midi": 42,
          "name": "F#2",
          "ticks": 32784,
          "time": 249.8779405,
          "velocity": 0.8346456692913385
        },
        {
          "duration": 0.4878046666666762,
          "durationTicks": 64,
          "midi": 36,
          "name": "C2",
          "ticks": 32832,
          "time": 250.243794,
          "velocity": 0.8346456692913385
        },
        {
          "duration": 0.4878046666666762,
          "durationTicks": 64,
          "midi": 38,
          "name": "D2",
          "ticks": 32880,
          "time": 250.6096475,
          "velocity": 0.8346456692913385
        },
        {
          "duration": 0.4878046666666762,
          "durationTicks": 64,
          "midi": 42,
          "name": "F#2",
          "ticks": 32880,
          "time": 250.6096475,
          "velocity": 0.8346456692913385
        },
        {
          "duration": 0.4878046666666762,
          "durationTicks": 64,
          "midi": 36,
          "name": "C2",
          "ticks": 32928,
          "time": 250.975501,
          "velocity": 0.8346456692913385
        },
        {
          "duration": 0.4878046666666762,
          "durationTicks": 64,
          "midi": 38,
          "name": "D2",
          "ticks": 32976,
          "time": 251.3413545,
          "velocity": 0.8346456692913385
        },
        {
          "duration": 0.4878046666666762,
          "durationTicks": 64,
          "midi": 42,
          "name": "F#2",
          "ticks": 32976,
          "time": 251.3413545,
          "velocity": 0.8346456692913385
        },
        {
          "duration": 0.4878046666666762,
          "durationTicks": 64,
          "midi": 36,
          "name": "C2",
          "ticks": 33024,
          "time": 251.707208,
          "velocity": 0.8346456692913385
        },
        {
          "duration": 0.4878046666666762,
          "durationTicks": 64,
          "midi": 38,
          "name": "D2",
          "ticks": 33072,
          "time": 252.0730615,
          "velocity": 0.8346456692913385
        },
        {
          "duration": 0.4878046666666762,
          "durationTicks": 64,
          "midi": 42,
          "name": "F#2",
          "ticks": 33072,
          "time": 252.0730615,
          "velocity": 0.8346456692913385
        },
        {
          "duration": 0.4878046666666762,
          "durationTicks": 64,
          "midi": 36,
          "name": "C2",
          "ticks": 33120,
          "time": 252.438915,
          "velocity": 0.8346456692913385
        },
        {
          "duration": 0.4878046666666762,
          "durationTicks": 64,
          "midi": 38,
          "name": "D2",
          "ticks": 33168,
          "time": 252.8047685,
          "velocity": 0.8346456692913385
        },
        {
          "duration": 0.4878046666666762,
          "durationTicks": 64,
          "midi": 42,
          "name": "F#2",
          "ticks": 33168,
          "time": 252.8047685,
          "velocity": 0.8346456692913385
        },
        {
          "duration": 0.4878046666666762,
          "durationTicks": 64,
          "midi": 36,
          "name": "C2",
          "ticks": 33216,
          "time": 253.170622,
          "velocity": 0.8346456692913385
        },
        {
          "duration": 0.4878046666666762,
          "durationTicks": 64,
          "midi": 38,
          "name": "D2",
          "ticks": 33264,
          "time": 253.5364755,
          "velocity": 0.8346456692913385
        },
        {
          "duration": 0.4878046666666762,
          "durationTicks": 64,
          "midi": 42,
          "name": "F#2",
          "ticks": 33264,
          "time": 253.5364755,
          "velocity": 0.8346456692913385
        },
        {
          "duration": 0.4878046666666762,
          "durationTicks": 64,
          "midi": 36,
          "name": "C2",
          "ticks": 33312,
          "time": 253.902329,
          "velocity": 0.8346456692913385
        },
        {
          "duration": 0.4878046666666762,
          "durationTicks": 64,
          "midi": 38,
          "name": "D2",
          "ticks": 33360,
          "time": 254.2681825,
          "velocity": 0.8346456692913385
        },
        {
          "duration": 0.4878046666666762,
          "durationTicks": 64,
          "midi": 42,
          "name": "F#2",
          "ticks": 33360,
          "time": 254.2681825,
          "velocity": 0.8346456692913385
        },
        {
          "duration": 0.4878046666666762,
          "durationTicks": 64,
          "midi": 36,
          "name": "C2",
          "ticks": 33408,
          "time": 254.634036,
          "velocity": 0.8346456692913385
        },
        {
          "duration": 0.4878046666666762,
          "durationTicks": 64,
          "midi": 38,
          "name": "D2",
          "ticks": 33456,
          "time": 254.9998895,
          "velocity": 0.8346456692913385
        },
        {
          "duration": 0.4878046666666762,
          "durationTicks": 64,
          "midi": 42,
          "name": "F#2",
          "ticks": 33456,
          "time": 254.9998895,
          "velocity": 0.8346456692913385
        },
        {
          "duration": 0.4878046666666762,
          "durationTicks": 64,
          "midi": 36,
          "name": "C2",
          "ticks": 33504,
          "time": 255.365743,
          "velocity": 0.8346456692913385
        },
        {
          "duration": 0.4878046666666762,
          "durationTicks": 64,
          "midi": 38,
          "name": "D2",
          "ticks": 33552,
          "time": 255.7315965,
          "velocity": 0.8346456692913385
        },
        {
          "duration": 0.4878046666666762,
          "durationTicks": 64,
          "midi": 42,
          "name": "F#2",
          "ticks": 33552,
          "time": 255.7315965,
          "velocity": 0.8346456692913385
        },
        {
          "duration": 0.7317070000000285,
          "durationTicks": 96,
          "midi": 36,
          "name": "C2",
          "ticks": 33600,
          "time": 256.09745,
          "velocity": 0.7480314960629921
        },
        {
          "duration": 0.7317070000000285,
          "durationTicks": 96,
          "midi": 38,
          "name": "D2",
          "ticks": 33648,
          "time": 256.4633035,
          "velocity": 0.7480314960629921
        },
        {
          "duration": 0.7317070000000285,
          "durationTicks": 96,
          "midi": 42,
          "name": "F#2",
          "ticks": 33648,
          "time": 256.4633035,
          "velocity": 0.7480314960629921
        },
        {
          "duration": 0.7317069999999717,
          "durationTicks": 96,
          "midi": 36,
          "name": "C2",
          "ticks": 33696,
          "time": 256.829157,
          "velocity": 0.7480314960629921
        },
        {
          "duration": 0.3658534999999574,
          "durationTicks": 48,
          "midi": 38,
          "name": "D2",
          "ticks": 33744,
          "time": 257.1950105,
          "velocity": 0.7480314960629921
        },
        {
          "duration": 1.4634140000000002,
          "durationTicks": 192,
          "midi": 42,
          "name": "F#2",
          "ticks": 33744,
          "time": 257.1950105,
          "velocity": 0.7480314960629921
        },
        {
          "duration": 1.4634140000000002,
          "durationTicks": 192,
          "midi": 36,
          "name": "C2",
          "ticks": 33792,
          "time": 257.560864,
          "velocity": 1
        },
        {
          "duration": 1.4634140000000002,
          "durationTicks": 192,
          "midi": 38,
          "name": "D2",
          "ticks": 33792,
          "time": 257.560864,
          "velocity": 1
        }
      ],
      "endOfTrackTicks": 33984
    }
  ]
}