{
  "header": {
    "keySignatures": [
      {
        "key": "F",
        "scale": "major",
        "ticks": 0
      }
    ],
    "meta": [],
    "name": "爱你-王心凌",
    "ppq": 480,
    "tempos": [
      {
        "bpm": 100,
        "ticks": 0
      }
    ],
    "timeSignatures": [
      {
        "ticks": 0,
        "timeSignature": [
          1,
          4
        ],
        "measures": 0
      }
    ]
  },
  "tracks": [
    {
      "channel": 0,
      "controlChanges": {},
      "pitchBends": [],
      "instrument": {
        "family": "piano",
        "number": 0,
        "name": "acoustic grand piano"
      },
      "name": "Ai Ni",
      "notes": [],
      "endOfTrackTicks": 28800
    },
    {
      "channel": 0,
      "controlChanges": {},
      "pitchBends": [],
      "instrument": {
        "family": "piano",
        "number": 0,
        "name": "acoustic grand piano"
      },
      "name": "Ai Ni",
      "notes": [],
      "endOfTrackTicks": 28800
    },
    {
      "channel": 0,
      "controlChanges": {
        "7": [
          {
            "number": 7,
            "ticks": 0,
            "time": 0,
            "value": 1
          }
        ],
        "10": [
          {
            "number": 10,
            "ticks": 0,
            "time": 0,
            "value": 0.5039370078740157
          }
        ]
      },
      "pitchBends": [
        {
          "ticks": 1244,
          "time": 1.555,
          "value": -0.984375
        },
        {
          "ticks": 1264,
          "time": 1.5799999999999998,
          "value": -0.859375
        },
        {
          "ticks": 1280,
          "time": 1.5999999999999999,
          "value": -0.59375
        },
        {
          "ticks": 1300,
          "time": 1.625,
          "value": -0.34375
        },
        {
          "ticks": 1324,
          "time": 1.655,
          "value": -0.203125
        },
        {
          "ticks": 1328,
          "time": 1.66,
          "value": -0.1875
        },
        {
          "ticks": 1368,
          "time": 1.71,
          "value": 0
        },
        {
          "ticks": 3160,
          "time": 3.9499999999999997,
          "value": -0.984375
        },
        {
          "ticks": 3180,
          "time": 3.9749999999999996,
          "value": -0.859375
        },
        {
          "ticks": 3196,
          "time": 3.9949999999999997,
          "value": -0.59375
        },
        {
          "ticks": 3216,
          "time": 4.02,
          "value": -0.34375
        },
        {
          "ticks": 3240,
          "time": 4.05,
          "value": -0.203125
        },
        {
          "ticks": 3244,
          "time": 4.055,
          "value": -0.1875
        },
        {
          "ticks": 3284,
          "time": 4.1049999999999995,
          "value": 0
        },
        {
          "ticks": 7240,
          "time": 9.05,
          "value": -0.984375
        },
        {
          "ticks": 7260,
          "time": 9.075,
          "value": -0.859375
        },
        {
          "ticks": 7276,
          "time": 9.094999999999999,
          "value": -0.59375
        },
        {
          "ticks": 7296,
          "time": 9.12,
          "value": -0.34375
        },
        {
          "ticks": 7320,
          "time": 9.15,
          "value": -0.203125
        },
        {
          "ticks": 7324,
          "time": 9.155,
          "value": -0.1875
        },
        {
          "ticks": 7336,
          "time": 9.17,
          "value": 0
        },
        {
          "ticks": 8920,
          "time": 11.149999999999999,
          "value": -0.984375
        },
        {
          "ticks": 8940,
          "time": 11.174999999999999,
          "value": -0.859375
        },
        {
          "ticks": 8956,
          "time": 11.195,
          "value": -0.59375
        },
        {
          "ticks": 8976,
          "time": 11.219999999999999,
          "value": -0.34375
        },
        {
          "ticks": 9000,
          "time": 11.25,
          "value": -0.203125
        },
        {
          "ticks": 9004,
          "time": 11.254999999999999,
          "value": -0.1875
        },
        {
          "ticks": 9016,
          "time": 11.270000000000001,
          "value": 0
        },
        {
          "ticks": 12520,
          "time": 15.649999999999999,
          "value": -0.984375
        },
        {
          "ticks": 12540,
          "time": 15.674999999999999,
          "value": -0.859375
        },
        {
          "ticks": 12556,
          "time": 15.695,
          "value": -0.59375
        },
        {
          "ticks": 12576,
          "time": 15.719999999999999,
          "value": -0.34375
        },
        {
          "ticks": 12600,
          "time": 15.75,
          "value": -0.203125
        },
        {
          "ticks": 12604,
          "time": 15.754999999999999,
          "value": -0.1875
        },
        {
          "ticks": 12616,
          "time": 15.77,
          "value": 0
        },
        {
          "ticks": 13964,
          "time": 17.455,
          "value": -0.984375
        },
        {
          "ticks": 13980,
          "time": 17.474999999999998,
          "value": -0.859375
        },
        {
          "ticks": 13996,
          "time": 17.495,
          "value": -0.59375
        },
        {
          "ticks": 14016,
          "time": 17.52,
          "value": -0.34375
        },
        {
          "ticks": 14040,
          "time": 17.55,
          "value": -0.203125
        },
        {
          "ticks": 14044,
          "time": 17.555,
          "value": -0.1875
        },
        {
          "ticks": 14056,
          "time": 17.57,
          "value": 0
        },
        {
          "ticks": 15404,
          "time": 19.255,
          "value": -0.984375
        },
        {
          "ticks": 15420,
          "time": 19.275,
          "value": -0.859375
        },
        {
          "ticks": 15436,
          "time": 19.294999999999998,
          "value": -0.59375
        },
        {
          "ticks": 15456,
          "time": 19.32,
          "value": -0.34375
        },
        {
          "ticks": 15480,
          "time": 19.349999999999998,
          "value": -0.203125
        },
        {
          "ticks": 15484,
          "time": 19.355,
          "value": -0.1875
        },
        {
          "ticks": 15496,
          "time": 19.369999999999997,
          "value": 0
        },
        {
          "ticks": 18876,
          "time": 23.595000000000002,
          "value": -0.984375
        },
        {
          "ticks": 18892,
          "time": 23.615,
          "value": -0.859375
        },
        {
          "ticks": 18908,
          "time": 23.634999999999998,
          "value": -0.59375
        },
        {
          "ticks": 18928,
          "time": 23.659999999999997,
          "value": -0.34375
        },
        {
          "ticks": 18952,
          "time": 23.69,
          "value": -0.203125
        },
        {
          "ticks": 18956,
          "time": 23.695,
          "value": -0.1875
        },
        {
          "ticks": 18968,
          "time": 23.709999999999997,
          "value": 0
        },
        {
          "ticks": 23564,
          "time": 29.455,
          "value": -0.984375
        },
        {
          "ticks": 23580,
          "time": 29.474999999999998,
          "value": -0.859375
        },
        {
          "ticks": 23596,
          "time": 29.494999999999997,
          "value": -0.59375
        },
        {
          "ticks": 23616,
          "time": 29.52,
          "value": -0.34375
        },
        {
          "ticks": 23640,
          "time": 29.549999999999997,
          "value": -0.203125
        },
        {
          "ticks": 23644,
          "time": 29.555,
          "value": -0.1875
        },
        {
          "ticks": 23656,
          "time": 29.569999999999997,
          "value": 0
        },
        {
          "ticks": 25480,
          "time": 31.85,
          "value": -0.984375
        },
        {
          "ticks": 25500,
          "time": 31.875,
          "value": -0.859375
        },
        {
          "ticks": 25516,
          "time": 31.894999999999996,
          "value": -0.59375
        },
        {
          "ticks": 25536,
          "time": 31.92,
          "value": -0.34375
        },
        {
          "ticks": 25560,
          "time": 31.95,
          "value": -0.203125
        },
        {
          "ticks": 25564,
          "time": 31.955,
          "value": -0.1875
        },
        {
          "ticks": 25576,
          "time": 31.97,
          "value": 0
        }
      ],
      "instrument": {
        "family": "synth lead",
        "number": 80,
        "name": "lead 1 (square)"
      },
      "name": "",
      "notes": [
        {
          "duration": 0.15,
          "durationTicks": 120,
          "midi": 77,
          "name": "F5",
          "ticks": 0,
          "time": 0,
          "velocity": 1
        },
        {
          "duration": 0.14999999999999997,
          "durationTicks": 120,
          "midi": 77,
          "name": "F5",
          "ticks": 240,
          "time": 0.3,
          "velocity": 1
        },
        {
          "duration": 0.29999999999999993,
          "durationTicks": 240,
          "midi": 77,
          "name": "F5",
          "ticks": 480,
          "time": 0.6,
          "velocity": 1
        },
        {
          "duration": 0.30000000000000004,
          "durationTicks": 240,
          "midi": 79,
          "name": "G5",
          "ticks": 720,
          "time": 0.8999999999999999,
          "velocity": 1
        },
        {
          "duration": 0.1499999999999999,
          "durationTicks": 120,
          "midi": 81,
          "name": "A5",
          "ticks": 960,
          "time": 1.2,
          "velocity": 1
        },
        {
          "duration": 0.2999999999999998,
          "durationTicks": 240,
          "midi": 81,
          "name": "A5",
          "ticks": 1200,
          "time": 1.5,
          "velocity": 1
        },
        {
          "duration": 0.2250000000000001,
          "durationTicks": 180,
          "midi": 84,
          "name": "C6",
          "ticks": 1440,
          "time": 1.7999999999999998,
          "velocity": 1
        },
        {
          "duration": 0.07499999999999973,
          "durationTicks": 60,
          "midi": 84,
          "name": "C6",
          "ticks": 1680,
          "time": 2.1,
          "velocity": 1
        },
        {
          "duration": 0.44999999999999973,
          "durationTicks": 360,
          "midi": 84,
          "name": "C6",
          "ticks": 1800,
          "time": 2.25,
          "velocity": 1
        },
        {
          "duration": 0.43000000000000016,
          "durationTicks": 344,
          "midi": 82,
          "name": "A#5",
          "ticks": 2160,
          "time": 2.6999999999999997,
          "velocity": 1
        },
        {
          "duration": 0.2999999999999998,
          "durationTicks": 240,
          "midi": 77,
          "name": "F5",
          "ticks": 2640,
          "time": 3.3,
          "velocity": 1
        },
        {
          "duration": 0.15000000000000036,
          "durationTicks": 120,
          "midi": 79,
          "name": "G5",
          "ticks": 2880,
          "time": 3.5999999999999996,
          "velocity": 1
        },
        {
          "duration": 0.30000000000000027,
          "durationTicks": 240,
          "midi": 79,
          "name": "G5",
          "ticks": 3120,
          "time": 3.9,
          "velocity": 1
        },
        {
          "duration": 0.2999999999999998,
          "durationTicks": 240,
          "midi": 82,
          "name": "A#5",
          "ticks": 3360,
          "time": 4.2,
          "velocity": 1
        },
        {
          "duration": 0.14999999999999947,
          "durationTicks": 120,
          "midi": 84,
          "name": "C6",
          "ticks": 3600,
          "time": 4.5,
          "velocity": 1
        },
        {
          "duration": 0.4500000000000002,
          "durationTicks": 360,
          "midi": 82,
          "name": "A#5",
          "ticks": 3720,
          "time": 4.6499999999999995,
          "velocity": 1
        },
        {
          "duration": 0.2999999999999998,
          "durationTicks": 240,
          "midi": 81,
          "name": "A5",
          "ticks": 4080,
          "time": 5.1,
          "velocity": 1
        },
        {
          "duration": 0.22499999999999964,
          "durationTicks": 180,
          "midi": 77,
          "name": "F5",
          "ticks": 4800,
          "time": 6,
          "velocity": 1
        },
        {
          "duration": 0.2999999999999998,
          "durationTicks": 240,
          "midi": 77,
          "name": "F5",
          "ticks": 5040,
          "time": 6.3,
          "velocity": 1
        },
        {
          "duration": 0.2999999999999998,
          "durationTicks": 240,
          "midi": 81,
          "name": "A5",
          "ticks": 5280,
          "time": 6.6,
          "velocity": 1
        },
        {
          "duration": 0.15000000000000036,
          "durationTicks": 120,
          "midi": 82,
          "name": "A#5",
          "ticks": 5520,
          "time": 6.8999999999999995,
          "velocity": 1
        },
        {
          "duration": 0.4500000000000002,
          "durationTicks": 360,
          "midi": 81,
          "name": "A5",
          "ticks": 5640,
          "time": 7.05,
          "velocity": 1
        },
        {
          "duration": 0.22499999999999964,
          "durationTicks": 180,
          "midi": 79,
          "name": "G5",
          "ticks": 6000,
          "time": 7.5,
          "velocity": 1
        },
        {
          "duration": 0.2999999999999998,
          "durationTicks": 240,
          "midi": 74,
          "name": "D5",
          "ticks": 6240,
          "time": 7.8,
          "velocity": 1
        },
        {
          "duration": 0.3000000000000007,
          "durationTicks": 240,
          "midi": 76,
          "name": "E5",
          "ticks": 6480,
          "time": 8.1,
          "velocity": 1
        },
        {
          "duration": 0.29999999999999893,
          "durationTicks": 240,
          "midi": 77,
          "name": "F5",
          "ticks": 6720,
          "time": 8.4,
          "velocity": 1
        },
        {
          "duration": 0.29999999999999893,
          "durationTicks": 240,
          "midi": 81,
          "name": "A5",
          "ticks": 7200,
          "time": 9,
          "velocity": 1
        },
        {
          "duration": 0.15000000000000036,
          "durationTicks": 120,
          "midi": 82,
          "name": "A#5",
          "ticks": 7440,
          "time": 9.299999999999999,
          "velocity": 1
        },
        {
          "duration": 0.45000000000000107,
          "durationTicks": 360,
          "midi": 81,
          "name": "A5",
          "ticks": 7560,
          "time": 9.45,
          "velocity": 1
        },
        {
          "duration": 0.4499999999999993,
          "durationTicks": 360,
          "midi": 79,
          "name": "G5",
          "ticks": 7920,
          "time": 9.9,
          "velocity": 1
        },
        {
          "duration": 0.07499999999999929,
          "durationTicks": 60,
          "midi": 72,
          "name": "C5",
          "ticks": 8400,
          "time": 10.5,
          "velocity": 1
        },
        {
          "duration": 0.14999999999999858,
          "durationTicks": 120,
          "midi": 72,
          "name": "C5",
          "ticks": 8520,
          "time": 10.65,
          "velocity": 1
        },
        {
          "duration": 0.45000000000000107,
          "durationTicks": 360,
          "midi": 81,
          "name": "A5",
          "ticks": 8640,
          "time": 10.799999999999999,
          "velocity": 1
        },
        {
          "duration": 0.14999999999999858,
          "durationTicks": 120,
          "midi": 84,
          "name": "C6",
          "ticks": 9120,
          "time": 11.4,
          "velocity": 1
        },
        {
          "duration": 0.07500000000000107,
          "durationTicks": 60,
          "midi": 84,
          "name": "C6",
          "ticks": 9360,
          "time": 11.7,
          "velocity": 1
        },
        {
          "duration": 0.4499999999999993,
          "durationTicks": 360,
          "midi": 84,
          "name": "C6",
          "ticks": 9480,
          "time": 11.85,
          "velocity": 1
        },
        {
          "duration": 0.45000000000000107,
          "durationTicks": 360,
          "midi": 82,
          "name": "A#5",
          "ticks": 9840,
          "time": 12.299999999999999,
          "velocity": 1
        },
        {
          "duration": 0.29999999999999893,
          "durationTicks": 240,
          "midi": 77,
          "name": "F5",
          "ticks": 10320,
          "time": 12.9,
          "velocity": 1
        },
        {
          "duration": 0.15000000000000036,
          "durationTicks": 120,
          "midi": 79,
          "name": "G5",
          "ticks": 10560,
          "time": 13.2,
          "velocity": 1
        },
        {
          "duration": 0.29999999999999893,
          "durationTicks": 240,
          "midi": 79,
          "name": "G5",
          "ticks": 10800,
          "time": 13.5,
          "velocity": 1
        },
        {
          "duration": 0.3000000000000007,
          "durationTicks": 240,
          "midi": 82,
          "name": "A#5",
          "ticks": 11040,
          "time": 13.799999999999999,
          "velocity": 1
        },
        {
          "duration": 0.15000000000000036,
          "durationTicks": 120,
          "midi": 84,
          "name": "C6",
          "ticks": 11280,
          "time": 14.1,
          "velocity": 1
        },
        {
          "duration": 0.375,
          "durationTicks": 300,
          "midi": 82,
          "name": "A#5",
          "ticks": 11400,
          "time": 14.25,
          "velocity": 1
        },
        {
          "duration": 0.3000000000000007,
          "durationTicks": 240,
          "midi": 81,
          "name": "A5",
          "ticks": 11760,
          "time": 14.7,
          "velocity": 1
        },
        {
          "duration": 0.2850000000000019,
          "durationTicks": 228,
          "midi": 77,
          "name": "F5",
          "ticks": 12240,
          "time": 15.299999999999999,
          "velocity": 1
        },
        {
          "duration": 0.29999999999999893,
          "durationTicks": 240,
          "midi": 77,
          "name": "F5",
          "ticks": 12480,
          "time": 15.6,
          "velocity": 1
        },
        {
          "duration": 0.3000000000000007,
          "durationTicks": 240,
          "midi": 86,
          "name": "D6",
          "ticks": 12720,
          "time": 15.899999999999999,
          "velocity": 1
        },
        {
          "duration": 0.3000000000000007,
          "durationTicks": 240,
          "midi": 77,
          "name": "F5",
          "ticks": 13200,
          "time": 16.5,
          "velocity": 1
        },
        {
          "duration": 0.4499999999999993,
          "durationTicks": 360,
          "midi": 76,
          "name": "E5",
          "ticks": 13440,
          "time": 16.8,
          "velocity": 1
        },
        {
          "duration": 0.3000000000000007,
          "durationTicks": 240,
          "midi": 81,
          "name": "A5",
          "ticks": 13920,
          "time": 17.4,
          "velocity": 1
        },
        {
          "duration": 0.14999999999999858,
          "durationTicks": 120,
          "midi": 82,
          "name": "A#5",
          "ticks": 14160,
          "time": 17.7,
          "velocity": 1
        },
        {
          "duration": 0.375,
          "durationTicks": 300,
          "midi": 81,
          "name": "A5",
          "ticks": 14280,
          "time": 17.849999999999998,
          "velocity": 1
        },
        {
          "duration": 0.29999999999999716,
          "durationTicks": 240,
          "midi": 77,
          "name": "F5",
          "ticks": 14640,
          "time": 18.3,
          "velocity": 1
        },
        {
          "duration": 0.15000000000000213,
          "durationTicks": 120,
          "midi": 79,
          "name": "G5",
          "ticks": 15120,
          "time": 18.9,
          "velocity": 1
        },
        {
          "duration": 0.22499999999999787,
          "durationTicks": 180,
          "midi": 77,
          "name": "F5",
          "ticks": 15240,
          "time": 19.05,
          "velocity": 1
        },
        {
          "duration": 0.3000000000000007,
          "durationTicks": 240,
          "midi": 81,
          "name": "A5",
          "ticks": 15600,
          "time": 19.5,
          "velocity": 1
        },
        {
          "duration": 0.29999999999999716,
          "durationTicks": 240,
          "midi": 79,
          "name": "G5",
          "ticks": 15840,
          "time": 19.8,
          "velocity": 1
        },
        {
          "duration": 0.3000000000000007,
          "durationTicks": 240,
          "midi": 77,
          "name": "F5",
          "ticks": 16080,
          "time": 20.099999999999998,
          "velocity": 1
        },
        {
          "duration": 0.3999999999999986,
          "durationTicks": 320,
          "midi": 76,
          "name": "E5",
          "ticks": 16320,
          "time": 20.4,
          "velocity": 1
        },
        {
          "duration": 0.42500000000000426,
          "durationTicks": 340,
          "midi": 77,
          "name": "F5",
          "ticks": 16680,
          "time": 20.849999999999998,
          "velocity": 1
        },
        {
          "duration": 0.22499999999999787,
          "durationTicks": 180,
          "midi": 77,
          "name": "F5",
          "ticks": 17040,
          "time": 21.3,
          "velocity": 1
        },
        {
          "duration": 0.45000000000000284,
          "durationTicks": 360,
          "midi": 76,
          "name": "E5",
          "ticks": 17280,
          "time": 21.599999999999998,
          "velocity": 1
        },
        {
          "duration": 0.5999999999999979,
          "durationTicks": 480,
          "midi": 77,
          "name": "F5",
          "ticks": 17640,
          "time": 22.05,
          "velocity": 1
        },
        {
          "duration": 0.22500000000000142,
          "durationTicks": 180,
          "midi": 77,
          "name": "F5",
          "ticks": 18480,
          "time": 23.099999999999998,
          "velocity": 1
        },
        {
          "duration": 0.15000000000000213,
          "durationTicks": 120,
          "midi": 77,
          "name": "F5",
          "ticks": 18720,
          "time": 23.4,
          "velocity": 1
        },
        {
          "duration": 0.28500000000000014,
          "durationTicks": 228,
          "midi": 79,
          "name": "G5",
          "ticks": 18840,
          "time": 23.55,
          "velocity": 1
        },
        {
          "duration": 0.46000000000000085,
          "durationTicks": 368,
          "midi": 81,
          "name": "A5",
          "ticks": 19080,
          "time": 23.849999999999998,
          "velocity": 1
        },
        {
          "duration": 0.28500000000000014,
          "durationTicks": 228,
          "midi": 79,
          "name": "G5",
          "ticks": 19440,
          "time": 24.3,
          "velocity": 1
        },
        {
          "duration": 0.3000000000000007,
          "durationTicks": 240,
          "midi": 77,
          "name": "F5",
          "ticks": 19680,
          "time": 24.599999999999998,
          "velocity": 1
        },
        {
          "duration": 0.22500000000000142,
          "durationTicks": 180,
          "midi": 76,
          "name": "E5",
          "ticks": 19920,
          "time": 24.9,
          "velocity": 1
        },
        {
          "duration": 0.3999999999999986,
          "durationTicks": 320,
          "midi": 76,
          "name": "E5",
          "ticks": 20160,
          "time": 25.2,
          "velocity": 1
        },
        {
          "duration": 0.5000000000000036,
          "durationTicks": 400,
          "midi": 77,
          "name": "F5",
          "ticks": 20520,
          "time": 25.65,
          "velocity": 1
        },
        {
          "duration": 0.07500000000000284,
          "durationTicks": 60,
          "midi": 79,
          "name": "G5",
          "ticks": 20880,
          "time": 26.099999999999998,
          "velocity": 1
        },
        {
          "duration": 0.4499999999999993,
          "durationTicks": 360,
          "midi": 76,
          "name": "E5",
          "ticks": 21120,
          "time": 26.4,
          "velocity": 1
        },
        {
          "duration": 0.5250000000000021,
          "durationTicks": 420,
          "midi": 77,
          "name": "F5",
          "ticks": 21480,
          "time": 26.849999999999998,
          "velocity": 1
        },
        {
          "duration": 0.15000000000000213,
          "durationTicks": 120,
          "midi": 77,
          "name": "F5",
          "ticks": 22320,
          "time": 27.9,
          "velocity": 1
        },
        {
          "duration": 0.14999999999999858,
          "durationTicks": 120,
          "midi": 77,
          "name": "F5",
          "ticks": 22560,
          "time": 28.2,
          "velocity": 1
        },
        {
          "duration": 0.15000000000000213,
          "durationTicks": 120,
          "midi": 79,
          "name": "G5",
          "ticks": 22680,
          "time": 28.349999999999998,
          "velocity": 1
        },
        {
          "duration": 0.4350000000000023,
          "durationTicks": 348,
          "midi": 81,
          "name": "A5",
          "ticks": 22920,
          "time": 28.65,
          "velocity": 1
        },
        {
          "duration": 0.3000000000000007,
          "durationTicks": 240,
          "midi": 82,
          "name": "A#5",
          "ticks": 23280,
          "time": 29.099999999999998,
          "velocity": 1
        },
        {
          "duration": 0.3000000000000007,
          "durationTicks": 240,
          "midi": 81,
          "name": "A5",
          "ticks": 23520,
          "time": 29.4,
          "velocity": 1
        },
        {
          "duration": 1.8000000000000007,
          "durationTicks": 1440,
          "midi": 84,
          "name": "C6",
          "ticks": 23760,
          "time": 29.7,
          "velocity": 1
        },
        {
          "duration": 0.29999999999999716,
          "durationTicks": 240,
          "midi": 82,
          "name": "A#5",
          "ticks": 25200,
          "time": 31.5,
          "velocity": 1
        },
        {
          "duration": 0.2850000000000037,
          "durationTicks": 228,
          "midi": 81,
          "name": "A5",
          "ticks": 25440,
          "time": 31.799999999999997,
          "velocity": 1
        },
        {
          "duration": 0.29999999999999716,
          "durationTicks": 240,
          "midi": 81,
          "name": "A5",
          "ticks": 25680,
          "time": 32.1,
          "velocity": 1
        },
        {
          "duration": 1.5,
          "durationTicks": 1200,
          "midi": 79,
          "name": "G5",
          "ticks": 25920,
          "time": 32.4,
          "velocity": 1
        }
      ]
    },
    {
      "channel": 0,
      "controlChanges": {},
      "pitchBends": [],
      "instrument": {
        "family": "piano",
        "number": 0,
        "name": "acoustic grand piano"
      },
      "name": "Ai Ni",
      "notes": [],
      "endOfTrackTicks": 28800
    },
    {
      "channel": 1,
      "controlChanges": {
        "6": [
          {
            "number": 6,
            "ticks": 20928,
            "time": 26.16,
            "value": 0.09448818897637795
          }
        ],
        "7": [
          {
            "number": 7,
            "ticks": 0,
            "time": 0,
            "value": 0.8661417322834646
          }
        ],
        "10": [
          {
            "number": 10,
            "ticks": 0,
            "time": 0,
            "value": 0.5039370078740157
          }
        ],
        "38": [
          {
            "number": 38,
            "ticks": 20932,
            "time": 26.165,
            "value": 0.5039370078740157
          }
        ],
        "100": [
          {
            "number": 100,
            "ticks": 20924,
            "time": 26.155,
            "value": 0
          }
        ],
        "101": [
          {
            "number": 101,
            "ticks": 20920,
            "time": 26.150000000000002,
            "value": 0
          }
        ]
      },
      "pitchBends": [
        {
          "ticks": 20920,
          "time": 26.150000000000002,
          "value": 0
        },
        {
          "ticks": 20936,
          "time": 26.169999999999998,
          "value": -0.015625
        },
        {
          "ticks": 20956,
          "time": 26.194999999999997,
          "value": -0.03125
        },
        {
          "ticks": 20968,
          "time": 26.209999999999997,
          "value": -0.046875
        },
        {
          "ticks": 20976,
          "time": 26.220000000000002,
          "value": -0.0625
        },
        {
          "ticks": 20984,
          "time": 26.23,
          "value": -0.078125
        },
        {
          "ticks": 21000,
          "time": 26.25,
          "value": -0.09375
        },
        {
          "ticks": 21004,
          "time": 26.255,
          "value": -0.109375
        },
        {
          "ticks": 21020,
          "time": 26.275,
          "value": -0.125
        },
        {
          "ticks": 21028,
          "time": 26.284999999999997,
          "value": -0.140625
        },
        {
          "ticks": 21040,
          "time": 26.3,
          "value": -0.15625
        },
        {
          "ticks": 21048,
          "time": 26.31,
          "value": -0.171875
        },
        {
          "ticks": 21056,
          "time": 26.32,
          "value": -0.203125
        },
        {
          "ticks": 21068,
          "time": 26.334999999999997,
          "value": -0.21875
        },
        {
          "ticks": 21076,
          "time": 26.345,
          "value": -0.234375
        },
        {
          "ticks": 21088,
          "time": 26.359999999999996,
          "value": -0.25
        },
        {
          "ticks": 21096,
          "time": 26.37,
          "value": -0.265625
        },
        {
          "ticks": 21116,
          "time": 26.395,
          "value": -0.28125
        },
        {
          "ticks": 21120,
          "time": 26.4,
          "value": -0.296875
        },
        {
          "ticks": 21140,
          "time": 26.424999999999997,
          "value": -0.3125
        },
        {
          "ticks": 21144,
          "time": 26.429999999999996,
          "value": -0.328125
        },
        {
          "ticks": 21152,
          "time": 26.44,
          "value": -0.34375
        },
        {
          "ticks": 21160,
          "time": 26.45,
          "value": -0.359375
        },
        {
          "ticks": 21168,
          "time": 26.46,
          "value": -0.375
        },
        {
          "ticks": 21172,
          "time": 26.465,
          "value": -0.390625
        },
        {
          "ticks": 21188,
          "time": 26.485,
          "value": -0.40625
        },
        {
          "ticks": 21196,
          "time": 26.494999999999997,
          "value": -0.421875
        },
        {
          "ticks": 21208,
          "time": 26.509999999999998,
          "value": -0.4375
        },
        {
          "ticks": 21212,
          "time": 26.515,
          "value": -0.453125
        },
        {
          "ticks": 21216,
          "time": 26.52,
          "value": -0.46875
        },
        {
          "ticks": 21220,
          "time": 26.525000000000002,
          "value": -0.484375
        },
        {
          "ticks": 21232,
          "time": 26.54,
          "value": -0.5
        },
        {
          "ticks": 21236,
          "time": 26.544999999999998,
          "value": -0.515625
        },
        {
          "ticks": 21244,
          "time": 26.555,
          "value": -0.53125
        },
        {
          "ticks": 21248,
          "time": 26.56,
          "value": -0.546875
        },
        {
          "ticks": 21260,
          "time": 26.575,
          "value": -0.5625
        },
        {
          "ticks": 21264,
          "time": 26.58,
          "value": -0.578125
        },
        {
          "ticks": 21272,
          "time": 26.59,
          "value": -0.59375
        },
        {
          "ticks": 21280,
          "time": 26.6,
          "value": -0.609375
        },
        {
          "ticks": 21288,
          "time": 26.61,
          "value": -0.625
        },
        {
          "ticks": 21292,
          "time": 26.615,
          "value": -0.640625
        },
        {
          "ticks": 21296,
          "time": 26.62,
          "value": -0.65625
        },
        {
          "ticks": 21304,
          "time": 26.63,
          "value": -0.671875
        },
        {
          "ticks": 21308,
          "time": 26.634999999999998,
          "value": -0.6875
        },
        {
          "ticks": 21312,
          "time": 26.639999999999997,
          "value": -0.703125
        },
        {
          "ticks": 21316,
          "time": 26.645,
          "value": -0.71875
        },
        {
          "ticks": 21320,
          "time": 26.65,
          "value": -0.734375
        },
        {
          "ticks": 21332,
          "time": 26.665000000000003,
          "value": -0.75
        },
        {
          "ticks": 21336,
          "time": 26.67,
          "value": -0.765625
        },
        {
          "ticks": 21340,
          "time": 26.675,
          "value": -0.78125
        },
        {
          "ticks": 21344,
          "time": 26.68,
          "value": -0.796875
        },
        {
          "ticks": 21356,
          "time": 26.695,
          "value": -0.8125
        },
        {
          "ticks": 21360,
          "time": 26.7,
          "value": -0.828125
        },
        {
          "ticks": 21364,
          "time": 26.705,
          "value": -0.84375
        },
        {
          "ticks": 21368,
          "time": 26.709999999999997,
          "value": -0.859375
        },
        {
          "ticks": 21376,
          "time": 26.72,
          "value": -0.875
        },
        {
          "ticks": 21380,
          "time": 26.724999999999998,
          "value": -0.890625
        },
        {
          "ticks": 21384,
          "time": 26.729999999999997,
          "value": -0.921875
        },
        {
          "ticks": 21388,
          "time": 26.734999999999996,
          "value": -0.953125
        },
        {
          "ticks": 21392,
          "time": 26.740000000000002,
          "value": -0.984375
        },
        {
          "ticks": 21428,
          "time": 26.785,
          "value": 0
        }
      ],
      "instrument": {
        "family": "bass",
        "number": 33,
        "name": "electric bass (finger)"
      },
      "name": "",
      "notes": [
        {
          "duration": 0.22500000000000003,
          "durationTicks": 180,
          "midi": 36,
          "name": "C2",
          "ticks": 240,
          "time": 0.3,
          "velocity": 1
        },
        {
          "duration": 0.22499999999999998,
          "durationTicks": 180,
          "midi": 38,
          "name": "D2",
          "ticks": 480,
          "time": 0.6,
          "velocity": 1
        },
        {
          "duration": 0.2250000000000001,
          "durationTicks": 180,
          "midi": 40,
          "name": "E2",
          "ticks": 720,
          "time": 0.8999999999999999,
          "velocity": 1
        },
        {
          "duration": 0.20999999999999996,
          "durationTicks": 168,
          "midi": 41,
          "name": "F2",
          "ticks": 960,
          "time": 1.2,
          "velocity": 1
        },
        {
          "duration": 0.08999999999999986,
          "durationTicks": 72,
          "midi": 41,
          "name": "F2",
          "ticks": 1200,
          "time": 1.5,
          "velocity": 1
        },
        {
          "duration": 0.09000000000000008,
          "durationTicks": 72,
          "midi": 41,
          "name": "F2",
          "ticks": 1320,
          "time": 1.65,
          "velocity": 1
        },
        {
          "duration": 0.20999999999999996,
          "durationTicks": 168,
          "midi": 45,
          "name": "A2",
          "ticks": 1440,
          "time": 1.7999999999999998,
          "velocity": 1
        },
        {
          "duration": 0.20999999999999996,
          "durationTicks": 168,
          "midi": 41,
          "name": "F2",
          "ticks": 1680,
          "time": 2.1,
          "velocity": 1
        },
        {
          "duration": 0.10499999999999998,
          "durationTicks": 84,
          "midi": 43,
          "name": "G2",
          "ticks": 1920,
          "time": 2.4,
          "velocity": 1
        },
        {
          "duration": 0.20999999999999996,
          "durationTicks": 168,
          "midi": 46,
          "name": "A#2",
          "ticks": 2040,
          "time": 2.55,
          "velocity": 1
        },
        {
          "duration": 0.10499999999999954,
          "durationTicks": 84,
          "midi": 46,
          "name": "A#2",
          "ticks": 2280,
          "time": 2.85,
          "velocity": 1
        },
        {
          "duration": 0.10499999999999998,
          "durationTicks": 84,
          "midi": 46,
          "name": "A#2",
          "ticks": 2400,
          "time": 3,
          "velocity": 1
        },
        {
          "duration": 0.10499999999999998,
          "durationTicks": 84,
          "midi": 46,
          "name": "A#2",
          "ticks": 2520,
          "time": 3.15,
          "velocity": 1
        },
        {
          "duration": 0.20999999999999996,
          "durationTicks": 168,
          "midi": 46,
          "name": "A#2",
          "ticks": 2640,
          "time": 3.3,
          "velocity": 1
        },
        {
          "duration": 0.10499999999999998,
          "durationTicks": 84,
          "midi": 45,
          "name": "A2",
          "ticks": 2880,
          "time": 3.5999999999999996,
          "velocity": 1
        },
        {
          "duration": 0.10499999999999954,
          "durationTicks": 84,
          "midi": 48,
          "name": "C3",
          "ticks": 3000,
          "time": 3.75,
          "velocity": 1
        },
        {
          "duration": 0.10499999999999998,
          "durationTicks": 84,
          "midi": 48,
          "name": "C3",
          "ticks": 3120,
          "time": 3.9,
          "velocity": 1
        },
        {
          "duration": 0.10499999999999954,
          "durationTicks": 84,
          "midi": 48,
          "name": "C3",
          "ticks": 3240,
          "time": 4.05,
          "velocity": 1
        },
        {
          "duration": 0.2999999999999998,
          "durationTicks": 240,
          "midi": 46,
          "name": "A#2",
          "ticks": 3360,
          "time": 4.2,
          "velocity": 1
        },
        {
          "duration": 0.2999999999999998,
          "durationTicks": 240,
          "midi": 48,
          "name": "C3",
          "ticks": 3600,
          "time": 4.5,
          "velocity": 1
        },
        {
          "duration": 0.375,
          "durationTicks": 300,
          "midi": 41,
          "name": "F2",
          "ticks": 3840,
          "time": 4.8,
          "velocity": 1
        },
        {
          "duration": 0.10500000000000043,
          "durationTicks": 84,
          "midi": 41,
          "name": "F2",
          "ticks": 4200,
          "time": 5.25,
          "velocity": 1
        },
        {
          "duration": 0.15000000000000036,
          "durationTicks": 120,
          "midi": 40,
          "name": "E2",
          "ticks": 4320,
          "time": 5.3999999999999995,
          "velocity": 1
        },
        {
          "duration": 0.14999999999999947,
          "durationTicks": 120,
          "midi": 41,
          "name": "F2",
          "ticks": 4560,
          "time": 5.7,
          "velocity": 1
        },
        {
          "duration": 0.10500000000000043,
          "durationTicks": 84,
          "midi": 46,
          "name": "A#2",
          "ticks": 4800,
          "time": 6,
          "velocity": 1
        },
        {
          "duration": 0.10500000000000043,
          "durationTicks": 84,
          "midi": 46,
          "name": "A#2",
          "ticks": 4920,
          "time": 6.1499999999999995,
          "velocity": 1
        },
        {
          "duration": 0.10500000000000043,
          "durationTicks": 84,
          "midi": 46,
          "name": "A#2",
          "ticks": 5040,
          "time": 6.3,
          "velocity": 1
        },
        {
          "duration": 0.10500000000000043,
          "durationTicks": 84,
          "midi": 46,
          "name": "A#2",
          "ticks": 5160,
          "time": 6.45,
          "velocity": 1
        },
        {
          "duration": 0.15000000000000036,
          "durationTicks": 120,
          "midi": 45,
          "name": "A2",
          "ticks": 5280,
          "time": 6.6,
          "velocity": 1
        },
        {
          "duration": 0.22500000000000053,
          "durationTicks": 180,
          "midi": 46,
          "name": "A#2",
          "ticks": 5520,
          "time": 6.8999999999999995,
          "velocity": 1
        },
        {
          "duration": 0.375,
          "durationTicks": 300,
          "midi": 47,
          "name": "B2",
          "ticks": 5760,
          "time": 7.199999999999999,
          "velocity": 1
        },
        {
          "duration": 0.15000000000000036,
          "durationTicks": 120,
          "midi": 47,
          "name": "B2",
          "ticks": 6120,
          "time": 7.6499999999999995,
          "velocity": 1
        },
        {
          "duration": 0.20999999999999996,
          "durationTicks": 168,
          "midi": 43,
          "name": "G2",
          "ticks": 6240,
          "time": 7.8,
          "velocity": 1
        },
        {
          "duration": 0.20999999999999908,
          "durationTicks": 168,
          "midi": 47,
          "name": "B2",
          "ticks": 6480,
          "time": 8.1,
          "velocity": 1
        },
        {
          "duration": 0.10500000000000043,
          "durationTicks": 84,
          "midi": 36,
          "name": "C2",
          "ticks": 6720,
          "time": 8.4,
          "velocity": 1
        },
        {
          "duration": 0.10500000000000043,
          "durationTicks": 84,
          "midi": 48,
          "name": "C3",
          "ticks": 6840,
          "time": 8.549999999999999,
          "velocity": 1
        },
        {
          "duration": 0.10500000000000043,
          "durationTicks": 84,
          "midi": 48,
          "name": "C3",
          "ticks": 6960,
          "time": 8.7,
          "velocity": 1
        },
        {
          "duration": 0.10500000000000043,
          "durationTicks": 84,
          "midi": 48,
          "name": "C3",
          "ticks": 7080,
          "time": 8.85,
          "velocity": 1
        },
        {
          "duration": 0.20500000000000007,
          "durationTicks": 164,
          "midi": 36,
          "name": "C2",
          "ticks": 7200,
          "time": 9,
          "velocity": 1
        },
        {
          "duration": 0.22500000000000142,
          "durationTicks": 180,
          "midi": 48,
          "name": "C3",
          "ticks": 7440,
          "time": 9.299999999999999,
          "velocity": 1
        },
        {
          "duration": 0.21000000000000085,
          "durationTicks": 168,
          "midi": 36,
          "name": "C2",
          "ticks": 7680,
          "time": 9.6,
          "velocity": 1
        },
        {
          "duration": 0.21000000000000085,
          "durationTicks": 168,
          "midi": 48,
          "name": "C3",
          "ticks": 7920,
          "time": 9.9,
          "velocity": 1
        },
        {
          "duration": 0.21000000000000085,
          "durationTicks": 168,
          "midi": 38,
          "name": "D2",
          "ticks": 8160,
          "time": 10.2,
          "velocity": 1
        },
        {
          "duration": 0.21000000000000085,
          "durationTicks": 168,
          "midi": 40,
          "name": "E2",
          "ticks": 8400,
          "time": 10.5,
          "velocity": 1
        },
        {
          "duration": 0.10500000000000043,
          "durationTicks": 84,
          "midi": 41,
          "name": "F2",
          "ticks": 8640,
          "time": 10.799999999999999,
          "velocity": 1
        },
        {
          "duration": 0.10500000000000043,
          "durationTicks": 84,
          "midi": 41,
          "name": "F2",
          "ticks": 8760,
          "time": 10.95,
          "velocity": 1
        },
        {
          "duration": 0.10500000000000043,
          "durationTicks": 84,
          "midi": 41,
          "name": "F2",
          "ticks": 8880,
          "time": 11.1,
          "velocity": 1
        },
        {
          "duration": 0.10500000000000043,
          "durationTicks": 84,
          "midi": 41,
          "name": "F2",
          "ticks": 9000,
          "time": 11.25,
          "velocity": 1
        },
        {
          "duration": 0.22499999999999964,
          "durationTicks": 180,
          "midi": 45,
          "name": "A2",
          "ticks": 9120,
          "time": 11.4,
          "velocity": 1
        },
        {
          "duration": 0.22499999999999964,
          "durationTicks": 180,
          "midi": 41,
          "name": "F2",
          "ticks": 9360,
          "time": 11.7,
          "velocity": 1
        },
        {
          "duration": 0.10500000000000043,
          "durationTicks": 84,
          "midi": 46,
          "name": "A#2",
          "ticks": 9600,
          "time": 12,
          "velocity": 1
        },
        {
          "duration": 0.21000000000000085,
          "durationTicks": 168,
          "midi": 46,
          "name": "A#2",
          "ticks": 9720,
          "time": 12.15,
          "velocity": 1
        },
        {
          "duration": 0.07500000000000107,
          "durationTicks": 60,
          "midi": 46,
          "name": "A#2",
          "ticks": 9960,
          "time": 12.45,
          "velocity": 1
        },
        {
          "duration": 0.15000000000000036,
          "durationTicks": 120,
          "midi": 45,
          "name": "A2",
          "ticks": 10080,
          "time": 12.6,
          "velocity": 1
        },
        {
          "duration": 0.14999999999999858,
          "durationTicks": 120,
          "midi": 46,
          "name": "A#2",
          "ticks": 10320,
          "time": 12.9,
          "velocity": 1
        },
        {
          "duration": 0.07500000000000107,
          "durationTicks": 60,
          "midi": 36,
          "name": "C2",
          "ticks": 10560,
          "time": 13.2,
          "velocity": 1
        },
        {
          "duration": 0.07499999999999929,
          "durationTicks": 60,
          "midi": 36,
          "name": "C2",
          "ticks": 10680,
          "time": 13.35,
          "velocity": 1
        },
        {
          "duration": 0.07499999999999929,
          "durationTicks": 60,
          "midi": 36,
          "name": "C2",
          "ticks": 10800,
          "time": 13.5,
          "velocity": 1
        },
        {
          "duration": 0.07499999999999929,
          "durationTicks": 60,
          "midi": 36,
          "name": "C2",
          "ticks": 10920,
          "time": 13.65,
          "velocity": 1
        },
        {
          "duration": 0.21000000000000085,
          "durationTicks": 168,
          "midi": 34,
          "name": "A#1",
          "ticks": 11040,
          "time": 13.799999999999999,
          "velocity": 1
        },
        {
          "duration": 0.21000000000000085,
          "durationTicks": 168,
          "midi": 36,
          "name": "C2",
          "ticks": 11280,
          "time": 14.1,
          "velocity": 1
        },
        {
          "duration": 0.10500000000000043,
          "durationTicks": 84,
          "midi": 41,
          "name": "F2",
          "ticks": 11520,
          "time": 14.399999999999999,
          "velocity": 1
        },
        {
          "duration": 0.21000000000000085,
          "durationTicks": 168,
          "midi": 41,
          "name": "F2",
          "ticks": 11640,
          "time": 14.549999999999999,
          "velocity": 1
        },
        {
          "duration": 0.10500000000000043,
          "durationTicks": 84,
          "midi": 41,
          "name": "F2",
          "ticks": 11880,
          "time": 14.85,
          "velocity": 1
        },
        {
          "duration": 0.10500000000000043,
          "durationTicks": 84,
          "midi": 38,
          "name": "D2",
          "ticks": 12000,
          "time": 15,
          "velocity": 1
        },
        {
          "duration": 0.10500000000000043,
          "durationTicks": 84,
          "midi": 41,
          "name": "F2",
          "ticks": 12120,
          "time": 15.149999999999999,
          "velocity": 1
        },
        {
          "duration": 0.10500000000000043,
          "durationTicks": 84,
          "midi": 41,
          "name": "F2",
          "ticks": 12240,
          "time": 15.299999999999999,
          "velocity": 1
        },
        {
          "duration": 0.10500000000000043,
          "durationTicks": 84,
          "midi": 41,
          "name": "F2",
          "ticks": 12360,
          "time": 15.45,
          "velocity": 1
        },
        {
          "duration": 0.10500000000000043,
          "durationTicks": 84,
          "midi": 41,
          "name": "F2",
          "ticks": 12480,
          "time": 15.6,
          "velocity": 1
        },
        {
          "duration": 0.10500000000000043,
          "durationTicks": 84,
          "midi": 46,
          "name": "A#2",
          "ticks": 12600,
          "time": 15.75,
          "velocity": 1
        },
        {
          "duration": 0.10500000000000043,
          "durationTicks": 84,
          "midi": 46,
          "name": "A#2",
          "ticks": 12720,
          "time": 15.899999999999999,
          "velocity": 1
        },
        {
          "duration": 0.10500000000000043,
          "durationTicks": 84,
          "midi": 46,
          "name": "A#2",
          "ticks": 12840,
          "time": 16.05,
          "velocity": 1
        },
        {
          "duration": 0.21000000000000085,
          "durationTicks": 168,
          "midi": 45,
          "name": "A2",
          "ticks": 12960,
          "time": 16.2,
          "velocity": 1
        },
        {
          "duration": 0.21000000000000085,
          "durationTicks": 168,
          "midi": 46,
          "name": "A#2",
          "ticks": 13200,
          "time": 16.5,
          "velocity": 1
        },
        {
          "duration": 0.10500000000000043,
          "durationTicks": 84,
          "midi": 36,
          "name": "C2",
          "ticks": 13440,
          "time": 16.8,
          "velocity": 1
        },
        {
          "duration": 0.21000000000000085,
          "durationTicks": 168,
          "midi": 48,
          "name": "C3",
          "ticks": 13560,
          "time": 16.95,
          "velocity": 1
        },
        {
          "duration": 0.10500000000000043,
          "durationTicks": 84,
          "midi": 48,
          "name": "C3",
          "ticks": 13800,
          "time": 17.25,
          "velocity": 1
        },
        {
          "duration": 0.21000000000000085,
          "durationTicks": 168,
          "midi": 46,
          "name": "A#2",
          "ticks": 13920,
          "time": 17.4,
          "velocity": 1
        },
        {
          "duration": 0.21000000000000085,
          "durationTicks": 168,
          "midi": 48,
          "name": "C3",
          "ticks": 14160,
          "time": 17.7,
          "velocity": 1
        },
        {
          "duration": 0.10500000000000043,
          "durationTicks": 84,
          "midi": 41,
          "name": "F2",
          "ticks": 14400,
          "time": 18,
          "velocity": 1
        },
        {
          "duration": 0.10500000000000043,
          "durationTicks": 84,
          "midi": 41,
          "name": "F2",
          "ticks": 14520,
          "time": 18.15,
          "velocity": 1
        },
        {
          "duration": 0.10500000000000043,
          "durationTicks": 84,
          "midi": 41,
          "name": "F2",
          "ticks": 14640,
          "time": 18.3,
          "velocity": 1
        },
        {
          "duration": 0.10500000000000043,
          "durationTicks": 84,
          "midi": 41,
          "name": "F2",
          "ticks": 14760,
          "time": 18.45,
          "velocity": 1
        },
        {
          "duration": 0.21000000000000085,
          "durationTicks": 168,
          "midi": 36,
          "name": "C2",
          "ticks": 14880,
          "time": 18.599999999999998,
          "velocity": 1
        },
        {
          "duration": 0.10500000000000043,
          "durationTicks": 84,
          "midi": 41,
          "name": "F2",
          "ticks": 15120,
          "time": 18.9,
          "velocity": 1
        },
        {
          "duration": 0.10500000000000043,
          "durationTicks": 84,
          "midi": 41,
          "name": "F2",
          "ticks": 15240,
          "time": 19.05,
          "velocity": 1
        },
        {
          "duration": 0.3149999999999977,
          "durationTicks": 252,
          "midi": 41,
          "name": "F2",
          "ticks": 15360,
          "time": 19.2,
          "velocity": 1
        },
        {
          "duration": 0.10500000000000043,
          "durationTicks": 84,
          "midi": 41,
          "name": "F2",
          "ticks": 15720,
          "time": 19.65,
          "velocity": 1
        },
        {
          "duration": 0.21000000000000085,
          "durationTicks": 168,
          "midi": 36,
          "name": "C2",
          "ticks": 15840,
          "time": 19.8,
          "velocity": 1
        },
        {
          "duration": 0.21000000000000085,
          "durationTicks": 168,
          "midi": 41,
          "name": "F2",
          "ticks": 16080,
          "time": 20.099999999999998,
          "velocity": 1
        },
        {
          "duration": 1.1999999999999993,
          "durationTicks": 960,
          "midi": 34,
          "name": "A#1",
          "ticks": 16320,
          "time": 20.4,
          "velocity": 1
        },
        {
          "duration": 1.2000000000000028,
          "durationTicks": 960,
          "midi": 33,
          "name": "A1",
          "ticks": 17280,
          "time": 21.599999999999998,
          "velocity": 1
        },
        {
          "duration": 1.1999999999999993,
          "durationTicks": 960,
          "midi": 43,
          "name": "G2",
          "ticks": 18240,
          "time": 22.8,
          "velocity": 1
        },
        {
          "duration": 1.1999999999999993,
          "durationTicks": 960,
          "midi": 36,
          "name": "C2",
          "ticks": 19200,
          "time": 24,
          "velocity": 1
        },
        {
          "duration": 0.10499999999999687,
          "durationTicks": 84,
          "midi": 41,
          "name": "F2",
          "ticks": 20160,
          "time": 25.2,
          "velocity": 1
        },
        {
          "duration": 0.10500000000000043,
          "durationTicks": 84,
          "midi": 46,
          "name": "A#2",
          "ticks": 20280,
          "time": 25.349999999999998,
          "velocity": 1
        },
        {
          "duration": 0.10499999999999687,
          "durationTicks": 84,
          "midi": 46,
          "name": "A#2",
          "ticks": 20400,
          "time": 25.5,
          "velocity": 1
        },
        {
          "duration": 0.10500000000000043,
          "durationTicks": 84,
          "midi": 46,
          "name": "A#2",
          "ticks": 20520,
          "time": 25.65,
          "velocity": 1
        },
        {
          "duration": 0.21000000000000085,
          "durationTicks": 168,
          "midi": 45,
          "name": "A2",
          "ticks": 20640,
          "time": 25.8,
          "velocity": 1
        },
        {
          "duration": 0.21000000000000085,
          "durationTicks": 168,
          "midi": 46,
          "name": "A#2",
          "ticks": 20880,
          "time": 26.099999999999998,
          "velocity": 1
        },
        {
          "duration": 0.4499999999999993,
          "durationTicks": 360,
          "midi": 45,
          "name": "A2",
          "ticks": 21120,
          "time": 26.4,
          "velocity": 1
        },
        {
          "duration": 2.3000000000000007,
          "durationTicks": 1840,
          "midi": 43,
          "name": "G2",
          "ticks": 22080,
          "time": 27.599999999999998,
          "velocity": 1
        },
        {
          "duration": 0.21000000000000085,
          "durationTicks": 168,
          "midi": 36,
          "name": "C2",
          "ticks": 24000,
          "time": 30,
          "velocity": 1
        },
        {
          "duration": 0.21000000000000085,
          "durationTicks": 168,
          "midi": 36,
          "name": "C2",
          "ticks": 24480,
          "time": 30.599999999999998,
          "velocity": 1
        },
        {
          "duration": 0.21000000000000085,
          "durationTicks": 168,
          "midi": 36,
          "name": "C2",
          "ticks": 24960,
          "time": 31.2,
          "velocity": 1
        },
        {
          "duration": 0.21000000000000085,
          "durationTicks": 168,
          "midi": 36,
          "name": "C2",
          "ticks": 25440,
          "time": 31.799999999999997,
          "velocity": 1
        },
        {
          "duration": 0.21000000000000085,
          "durationTicks": 168,
          "midi": 36,
          "name": "C2",
          "ticks": 25920,
          "time": 32.4,
          "velocity": 1
        },
        {
          "duration": 0.21000000000000085,
          "durationTicks": 168,
          "midi": 36,
          "name": "C2",
          "ticks": 26160,
          "time": 32.699999999999996,
          "velocity": 1
        },
        {
          "duration": 0.21000000000000085,
          "durationTicks": 168,
          "midi": 36,
          "name": "C2",
          "ticks": 26400,
          "time": 33,
          "velocity": 1
        },
        {
          "duration": 0.21000000000000085,
          "durationTicks": 168,
          "midi": 36,
          "name": "C2",
          "ticks": 26640,
          "time": 33.3,
          "velocity": 1
        },
        {
          "duration": 0.21000000000000085,
          "durationTicks": 168,
          "midi": 36,
          "name": "C2",
          "ticks": 26880,
          "time": 33.6,
          "velocity": 1
        }
      ]
    },
    {
      "channel": 0,
      "controlChanges": {},
      "pitchBends": [],
      "instrument": {
        "family": "piano",
        "number": 0,
        "name": "acoustic grand piano"
      },
      "name": "Ai Ni",
      "notes": [],
      "endOfTrackTicks": 28800
    },
    {
      "channel": 2,
      "controlChanges": {
        "7": [
          {
            "number": 7,
            "ticks": 0,
            "time": 0,
            "value": 0.5511811023622047
          }
        ],
        "10": [
          {
            "number": 10,
            "ticks": 0,
            "time": 0,
            "value": 0.5039370078740157
          }
        ]
      },
      "pitchBends": [],
      "instrument": {
        "family": "synth lead",
        "number": 81,
        "name": "lead 2 (sawtooth)"
      },
      "name": "",
      "notes": [
        {
          "duration": 0.1499999999999999,
          "durationTicks": 120,
          "midi": 77,
          "name": "F5",
          "ticks": 960,
          "time": 1.2,
          "velocity": 0.7874015748031497
        },
        {
          "duration": 0.2999999999999998,
          "durationTicks": 240,
          "midi": 77,
          "name": "F5",
          "ticks": 1200,
          "time": 1.5,
          "velocity": 0.7874015748031497
        },
        {
          "duration": 0.25,
          "durationTicks": 200,
          "midi": 81,
          "name": "A5",
          "ticks": 1440,
          "time": 1.7999999999999998,
          "velocity": 0.7874015748031497
        },
        {
          "duration": 0.09999999999999964,
          "durationTicks": 80,
          "midi": 81,
          "name": "A5",
          "ticks": 1680,
          "time": 2.1,
          "velocity": 0.7874015748031497
        },
        {
          "duration": 0.3999999999999999,
          "durationTicks": 320,
          "midi": 79,
          "name": "G5",
          "ticks": 1800,
          "time": 2.25,
          "velocity": 0.7874015748031497
        },
        {
          "duration": 0.4500000000000002,
          "durationTicks": 360,
          "midi": 77,
          "name": "F5",
          "ticks": 2160,
          "time": 2.6999999999999997,
          "velocity": 0.7874015748031497
        },
        {
          "duration": 0.2999999999999998,
          "durationTicks": 240,
          "midi": 74,
          "name": "D5",
          "ticks": 2640,
          "time": 3.3,
          "velocity": 1
        },
        {
          "duration": 0.15000000000000036,
          "durationTicks": 120,
          "midi": 72,
          "name": "C5",
          "ticks": 2880,
          "time": 3.5999999999999996,
          "velocity": 1
        },
        {
          "duration": 0.25000000000000044,
          "durationTicks": 200,
          "midi": 72,
          "name": "C5",
          "ticks": 3120,
          "time": 3.9,
          "velocity": 1
        },
        {
          "duration": 0.2999999999999998,
          "durationTicks": 240,
          "midi": 72,
          "name": "C5",
          "ticks": 3360,
          "time": 4.2,
          "velocity": 1
        },
        {
          "duration": 0.14999999999999947,
          "durationTicks": 120,
          "midi": 76,
          "name": "E5",
          "ticks": 3600,
          "time": 4.5,
          "velocity": 1
        },
        {
          "duration": 0.4500000000000002,
          "durationTicks": 360,
          "midi": 79,
          "name": "G5",
          "ticks": 3720,
          "time": 4.6499999999999995,
          "velocity": 1
        },
        {
          "duration": 0.2999999999999998,
          "durationTicks": 240,
          "midi": 77,
          "name": "F5",
          "ticks": 4080,
          "time": 5.1,
          "velocity": 1
        },
        {
          "duration": 0.45000000000000107,
          "durationTicks": 360,
          "midi": 77,
          "name": "F5",
          "ticks": 8640,
          "time": 10.799999999999999,
          "velocity": 1
        },
        {
          "duration": 0.09999999999999964,
          "durationTicks": 80,
          "midi": 81,
          "name": "A5",
          "ticks": 9120,
          "time": 11.4,
          "velocity": 1
        },
        {
          "duration": 0.10000000000000142,
          "durationTicks": 80,
          "midi": 81,
          "name": "A5",
          "ticks": 9360,
          "time": 11.7,
          "velocity": 1
        },
        {
          "duration": 0.4499999999999993,
          "durationTicks": 360,
          "midi": 81,
          "name": "A5",
          "ticks": 9480,
          "time": 11.85,
          "velocity": 1
        },
        {
          "duration": 0.45000000000000107,
          "durationTicks": 360,
          "midi": 77,
          "name": "F5",
          "ticks": 9840,
          "time": 12.299999999999999,
          "velocity": 1
        },
        {
          "duration": 0.2749999999999986,
          "durationTicks": 220,
          "midi": 72,
          "name": "C5",
          "ticks": 10320,
          "time": 12.9,
          "velocity": 1
        },
        {
          "duration": 0.15000000000000036,
          "durationTicks": 120,
          "midi": 76,
          "name": "E5",
          "ticks": 10560,
          "time": 13.2,
          "velocity": 1
        },
        {
          "duration": 0.29999999999999893,
          "durationTicks": 240,
          "midi": 76,
          "name": "E5",
          "ticks": 10800,
          "time": 13.5,
          "velocity": 1
        },
        {
          "duration": 0.27500000000000036,
          "durationTicks": 220,
          "midi": 77,
          "name": "F5",
          "ticks": 11040,
          "time": 13.799999999999999,
          "velocity": 1
        },
        {
          "duration": 0.15000000000000036,
          "durationTicks": 120,
          "midi": 79,
          "name": "G5",
          "ticks": 11280,
          "time": 14.1,
          "velocity": 1
        },
        {
          "duration": 0.40000000000000036,
          "durationTicks": 320,
          "midi": 77,
          "name": "F5",
          "ticks": 11400,
          "time": 14.25,
          "velocity": 1
        },
        {
          "duration": 0.3000000000000007,
          "durationTicks": 240,
          "midi": 77,
          "name": "F5",
          "ticks": 11760,
          "time": 14.7,
          "velocity": 1
        },
        {
          "duration": 0.3000000000000007,
          "durationTicks": 240,
          "midi": 74,
          "name": "D5",
          "ticks": 12240,
          "time": 15.299999999999999,
          "velocity": 1
        },
        {
          "duration": 0.29999999999999893,
          "durationTicks": 240,
          "midi": 74,
          "name": "D5",
          "ticks": 12480,
          "time": 15.6,
          "velocity": 1
        },
        {
          "duration": 0.3000000000000007,
          "durationTicks": 240,
          "midi": 82,
          "name": "A#5",
          "ticks": 12720,
          "time": 15.899999999999999,
          "velocity": 1
        },
        {
          "duration": 0.3000000000000007,
          "durationTicks": 240,
          "midi": 74,
          "name": "D5",
          "ticks": 13200,
          "time": 16.5,
          "velocity": 1
        },
        {
          "duration": 0.4499999999999993,
          "durationTicks": 360,
          "midi": 72,
          "name": "C5",
          "ticks": 13440,
          "time": 16.8,
          "velocity": 1
        },
        {
          "duration": 0.3000000000000007,
          "durationTicks": 240,
          "midi": 77,
          "name": "F5",
          "ticks": 13920,
          "time": 17.4,
          "velocity": 1
        },
        {
          "duration": 0.10000000000000142,
          "durationTicks": 80,
          "midi": 79,
          "name": "G5",
          "ticks": 14160,
          "time": 17.7,
          "velocity": 1
        },
        {
          "duration": 0.40000000000000213,
          "durationTicks": 320,
          "midi": 77,
          "name": "F5",
          "ticks": 14280,
          "time": 17.849999999999998,
          "velocity": 1
        },
        {
          "duration": 0.29999999999999716,
          "durationTicks": 240,
          "midi": 72,
          "name": "C5",
          "ticks": 14640,
          "time": 18.3,
          "velocity": 1
        },
        {
          "duration": 0.15000000000000213,
          "durationTicks": 120,
          "midi": 76,
          "name": "E5",
          "ticks": 15120,
          "time": 18.9,
          "velocity": 1
        },
        {
          "duration": 0.24999999999999645,
          "durationTicks": 200,
          "midi": 72,
          "name": "C5",
          "ticks": 15240,
          "time": 19.05,
          "velocity": 1
        }
      ]
    },
    {
      "channel": 0,
      "controlChanges": {},
      "pitchBends": [],
      "instrument": {
        "family": "piano",
        "number": 0,
        "name": "acoustic grand piano"
      },
      "name": "Ai Ni",
      "notes": [],
      "endOfTrackTicks": 28800
    },
    {
      "channel": 3,
      "controlChanges": {
        "7": [
          {
            "number": 7,
            "ticks": 0,
            "time": 0,
            "value": 0.7086614173228346
          }
        ],
        "10": [
          {
            "number": 10,
            "ticks": 0,
            "time": 0,
            "value": 0.7086614173228346
          }
        ]
      },
      "pitchBends": [],
      "instrument": {
        "family": "synth effects",
        "number": 98,
        "name": "fx 3 (crystal)"
      },
      "name": "",
      "notes": [
        {
          "duration": 0.2999999999999998,
          "durationTicks": 240,
          "midi": 89,
          "name": "F6",
          "ticks": 1200,
          "time": 1.5,
          "velocity": 0.7322834645669292
        },
        {
          "duration": 0.30000000000000027,
          "durationTicks": 240,
          "midi": 88,
          "name": "E6",
          "ticks": 1440,
          "time": 1.7999999999999998,
          "velocity": 0.7559055118110236
        },
        {
          "duration": 0.2999999999999998,
          "durationTicks": 240,
          "midi": 89,
          "name": "F6",
          "ticks": 1680,
          "time": 2.1,
          "velocity": 0.6456692913385826
        },
        {
          "duration": 0.2999999999999998,
          "durationTicks": 240,
          "midi": 86,
          "name": "D6",
          "ticks": 1920,
          "time": 2.4,
          "velocity": 0.7322834645669292
        },
        {
          "duration": 0.30000000000000027,
          "durationTicks": 240,
          "midi": 89,
          "name": "F6",
          "ticks": 2160,
          "time": 2.6999999999999997,
          "velocity": 0.6614173228346457
        },
        {
          "duration": 0.2999999999999998,
          "durationTicks": 240,
          "midi": 88,
          "name": "E6",
          "ticks": 2400,
          "time": 3,
          "velocity": 0.5118110236220472
        },
        {
          "duration": 0.2999999999999998,
          "durationTicks": 240,
          "midi": 89,
          "name": "F6",
          "ticks": 2640,
          "time": 3.3,
          "velocity": 0.5118110236220472
        },
        {
          "duration": 0.30000000000000027,
          "durationTicks": 240,
          "midi": 86,
          "name": "D6",
          "ticks": 3120,
          "time": 3.9,
          "velocity": 0.7874015748031497
        },
        {
          "duration": 0.2999999999999998,
          "durationTicks": 240,
          "midi": 84,
          "name": "C6",
          "ticks": 3360,
          "time": 4.2,
          "velocity": 0.7874015748031497
        },
        {
          "duration": 0.2999999999999998,
          "durationTicks": 240,
          "midi": 82,
          "name": "A#5",
          "ticks": 3600,
          "time": 4.5,
          "velocity": 0.7559055118110236
        },
        {
          "duration": 0.2999999999999998,
          "durationTicks": 240,
          "midi": 81,
          "name": "A5",
          "ticks": 3840,
          "time": 4.8,
          "velocity": 0.7559055118110236
        },
        {
          "duration": 0.2999999999999998,
          "durationTicks": 240,
          "midi": 84,
          "name": "C6",
          "ticks": 4080,
          "time": 5.1,
          "velocity": 0.7559055118110236
        },
        {
          "duration": 0.2999999999999998,
          "durationTicks": 240,
          "midi": 89,
          "name": "F6",
          "ticks": 5040,
          "time": 6.3,
          "velocity": 0.8976377952755905
        },
        {
          "duration": 0.2999999999999998,
          "durationTicks": 240,
          "midi": 88,
          "name": "E6",
          "ticks": 5280,
          "time": 6.6,
          "velocity": 0.7401574803149606
        },
        {
          "duration": 0.2999999999999998,
          "durationTicks": 240,
          "midi": 89,
          "name": "F6",
          "ticks": 5520,
          "time": 6.8999999999999995,
          "velocity": 0.6771653543307087
        },
        {
          "duration": 0.3000000000000007,
          "durationTicks": 240,
          "midi": 86,
          "name": "D6",
          "ticks": 5760,
          "time": 7.199999999999999,
          "velocity": 0.8582677165354331
        },
        {
          "duration": 0.2999999999999998,
          "durationTicks": 240,
          "midi": 89,
          "name": "F6",
          "ticks": 6000,
          "time": 7.5,
          "velocity": 0.8267716535433071
        },
        {
          "duration": 0.3000000000000007,
          "durationTicks": 240,
          "midi": 89,
          "name": "F6",
          "ticks": 8880,
          "time": 11.1,
          "velocity": 0.7322834645669292
        },
        {
          "duration": 0.29999999999999893,
          "durationTicks": 240,
          "midi": 88,
          "name": "E6",
          "ticks": 9120,
          "time": 11.4,
          "velocity": 0.7559055118110236
        },
        {
          "duration": 0.3000000000000007,
          "durationTicks": 240,
          "midi": 89,
          "name": "F6",
          "ticks": 9360,
          "time": 11.7,
          "velocity": 0.6456692913385826
        },
        {
          "duration": 0.29999999999999893,
          "durationTicks": 240,
          "midi": 86,
          "name": "D6",
          "ticks": 9600,
          "time": 12,
          "velocity": 0.7322834645669292
        },
        {
          "duration": 0.3000000000000007,
          "durationTicks": 240,
          "midi": 89,
          "name": "F6",
          "ticks": 9840,
          "time": 12.299999999999999,
          "velocity": 0.6614173228346457
        },
        {
          "duration": 0.3000000000000007,
          "durationTicks": 240,
          "midi": 88,
          "name": "E6",
          "ticks": 10080,
          "time": 12.6,
          "velocity": 0.5118110236220472
        },
        {
          "duration": 0.29999999999999893,
          "durationTicks": 240,
          "midi": 89,
          "name": "F6",
          "ticks": 10320,
          "time": 12.9,
          "velocity": 0.5118110236220472
        },
        {
          "duration": 0.29999999999999893,
          "durationTicks": 240,
          "midi": 86,
          "name": "D6",
          "ticks": 10800,
          "time": 13.5,
          "velocity": 0.7874015748031497
        },
        {
          "duration": 0.3000000000000007,
          "durationTicks": 240,
          "midi": 84,
          "name": "C6",
          "ticks": 11040,
          "time": 13.799999999999999,
          "velocity": 0.7874015748031497
        },
        {
          "duration": 0.29999999999999893,
          "durationTicks": 240,
          "midi": 82,
          "name": "A#5",
          "ticks": 11280,
          "time": 14.1,
          "velocity": 0.7559055118110236
        },
        {
          "duration": 0.3000000000000007,
          "durationTicks": 240,
          "midi": 81,
          "name": "A5",
          "ticks": 11520,
          "time": 14.399999999999999,
          "velocity": 0.7559055118110236
        },
        {
          "duration": 0.3000000000000007,
          "durationTicks": 240,
          "midi": 84,
          "name": "C6",
          "ticks": 11760,
          "time": 14.7,
          "velocity": 0.7559055118110236
        },
        {
          "duration": 0.29999999999999893,
          "durationTicks": 240,
          "midi": 89,
          "name": "F6",
          "ticks": 12480,
          "time": 15.6,
          "velocity": 0.7559055118110236
        },
        {
          "duration": 0.29999999999999716,
          "durationTicks": 240,
          "midi": 86,
          "name": "D6",
          "ticks": 12840,
          "time": 16.05,
          "velocity": 0.7559055118110236
        },
        {
          "duration": 0.3000000000000007,
          "durationTicks": 240,
          "midi": 84,
          "name": "C6",
          "ticks": 13200,
          "time": 16.5,
          "velocity": 0.7559055118110236
        },
        {
          "duration": 0.3999999999999986,
          "durationTicks": 320,
          "midi": 84,
          "name": "C6",
          "ticks": 13440,
          "time": 16.8,
          "velocity": 0.7559055118110236
        },
        {
          "duration": 0.4499999999999993,
          "durationTicks": 360,
          "midi": 82,
          "name": "A#5",
          "ticks": 13800,
          "time": 17.25,
          "velocity": 0.7559055118110236
        },
        {
          "duration": 0.3000000000000007,
          "durationTicks": 240,
          "midi": 81,
          "name": "A5",
          "ticks": 14160,
          "time": 17.7,
          "velocity": 0.7559055118110236
        }
      ]
    },
    {
      "channel": 0,
      "controlChanges": {},
      "pitchBends": [],
      "instrument": {
        "family": "piano",
        "number": 0,
        "name": "acoustic grand piano"
      },
      "name": "Ai Ni",
      "notes": [],
      "endOfTrackTicks": 28800
    },
    {
      "channel": 4,
      "controlChanges": {
        "7": [
          {
            "number": 7,
            "ticks": 0,
            "time": 0,
            "value": 0.6299212598425197
          }
        ],
        "10": [
          {
            "number": 10,
            "ticks": 0,
            "time": 0,
            "value": 0.3937007874015748
          }
        ]
      },
      "pitchBends": [],
      "instrument": {
        "family": "brass",
        "number": 61,
        "name": "brass section"
      },
      "name": "",
      "notes": [
        {
          "duration": 0.3,
          "durationTicks": 240,
          "midi": 60,
          "name": "C4",
          "ticks": 240,
          "time": 0.3,
          "velocity": 0.7874015748031497
        },
        {
          "duration": 0.3,
          "durationTicks": 240,
          "midi": 64,
          "name": "E4",
          "ticks": 240,
          "time": 0.3,
          "velocity": 0.7874015748031497
        },
        {
          "duration": 0.29999999999999993,
          "durationTicks": 240,
          "midi": 60,
          "name": "C4",
          "ticks": 480,
          "time": 0.6,
          "velocity": 0.7874015748031497
        },
        {
          "duration": 0.29999999999999993,
          "durationTicks": 240,
          "midi": 65,
          "name": "F4",
          "ticks": 480,
          "time": 0.6,
          "velocity": 0.7874015748031497
        },
        {
          "duration": 0.15000000000000013,
          "durationTicks": 120,
          "midi": 64,
          "name": "E4",
          "ticks": 720,
          "time": 0.8999999999999999,
          "velocity": 0.7874015748031497
        },
        {
          "duration": 0.15000000000000013,
          "durationTicks": 120,
          "midi": 67,
          "name": "G4",
          "ticks": 720,
          "time": 0.8999999999999999,
          "velocity": 0.7874015748031497
        },
        {
          "duration": 0.1499999999999999,
          "durationTicks": 120,
          "midi": 60,
          "name": "C4",
          "ticks": 1200,
          "time": 1.5,
          "velocity": 0.7874015748031497
        },
        {
          "duration": 0.1499999999999999,
          "durationTicks": 120,
          "midi": 65,
          "name": "F4",
          "ticks": 1200,
          "time": 1.5,
          "velocity": 0.7874015748031497
        },
        {
          "duration": 0.1499999999999999,
          "durationTicks": 120,
          "midi": 60,
          "name": "C4",
          "ticks": 1680,
          "time": 2.1,
          "velocity": 0.7874015748031497
        },
        {
          "duration": 0.1499999999999999,
          "durationTicks": 120,
          "midi": 65,
          "name": "F4",
          "ticks": 1680,
          "time": 2.1,
          "velocity": 0.7874015748031497
        },
        {
          "duration": 0.15000000000000036,
          "durationTicks": 120,
          "midi": 60,
          "name": "C4",
          "ticks": 2160,
          "time": 2.6999999999999997,
          "velocity": 0.7874015748031497
        },
        {
          "duration": 0.15000000000000036,
          "durationTicks": 120,
          "midi": 65,
          "name": "F4",
          "ticks": 2160,
          "time": 2.6999999999999997,
          "velocity": 0.7874015748031497
        },
        {
          "duration": 0.1499999999999999,
          "durationTicks": 120,
          "midi": 57,
          "name": "A3",
          "ticks": 2400,
          "time": 3,
          "velocity": 0.7874015748031497
        },
        {
          "duration": 0.1499999999999999,
          "durationTicks": 120,
          "midi": 61,
          "name": "C#4",
          "ticks": 2400,
          "time": 3,
          "velocity": 0.7874015748031497
        },
        {
          "duration": 0.1499999999999999,
          "durationTicks": 120,
          "midi": 58,
          "name": "A#3",
          "ticks": 2520,
          "time": 3.15,
          "velocity": 0.7874015748031497
        },
        {
          "duration": 0.1499999999999999,
          "durationTicks": 120,
          "midi": 62,
          "name": "D4",
          "ticks": 2520,
          "time": 3.15,
          "velocity": 0.7874015748031497
        },
        {
          "duration": 0.1499999999999999,
          "durationTicks": 120,
          "midi": 58,
          "name": "A#3",
          "ticks": 3120,
          "time": 3.9,
          "velocity": 0.7874015748031497
        },
        {
          "duration": 0.1499999999999999,
          "durationTicks": 120,
          "midi": 62,
          "name": "D4",
          "ticks": 3120,
          "time": 3.9,
          "velocity": 0.7874015748031497
        },
        {
          "duration": 0.14999999999999947,
          "durationTicks": 120,
          "midi": 58,
          "name": "A#3",
          "ticks": 3600,
          "time": 4.5,
          "velocity": 0.7874015748031497
        },
        {
          "duration": 0.14999999999999947,
          "durationTicks": 120,
          "midi": 62,
          "name": "D4",
          "ticks": 3600,
          "time": 4.5,
          "velocity": 0.7874015748031497
        },
        {
          "duration": 0.09999999999999964,
          "durationTicks": 80,
          "midi": 60,
          "name": "C4",
          "ticks": 3960,
          "time": 4.95,
          "velocity": 0.7874015748031497
        },
        {
          "duration": 0.09999999999999964,
          "durationTicks": 80,
          "midi": 65,
          "name": "F4",
          "ticks": 3960,
          "time": 4.95,
          "velocity": 0.7874015748031497
        },
        {
          "duration": 0.09999999999999964,
          "durationTicks": 80,
          "midi": 60,
          "name": "C4",
          "ticks": 4080,
          "time": 5.1,
          "velocity": 0.7874015748031497
        },
        {
          "duration": 0.09999999999999964,
          "durationTicks": 80,
          "midi": 65,
          "name": "F4",
          "ticks": 4080,
          "time": 5.1,
          "velocity": 0.7874015748031497
        },
        {
          "duration": 0.09999999999999964,
          "durationTicks": 80,
          "midi": 65,
          "name": "F4",
          "ticks": 4320,
          "time": 5.3999999999999995,
          "velocity": 0.7874015748031497
        },
        {
          "duration": 0.09999999999999964,
          "durationTicks": 80,
          "midi": 69,
          "name": "A4",
          "ticks": 4320,
          "time": 5.3999999999999995,
          "velocity": 0.7874015748031497
        },
        {
          "duration": 0.09999999999999964,
          "durationTicks": 80,
          "midi": 64,
          "name": "E4",
          "ticks": 4440,
          "time": 5.55,
          "velocity": 0.7874015748031497
        },
        {
          "duration": 0.09999999999999964,
          "durationTicks": 80,
          "midi": 68,
          "name": "G#4",
          "ticks": 4440,
          "time": 5.55,
          "velocity": 0.7874015748031497
        },
        {
          "duration": 0.09999999999999964,
          "durationTicks": 80,
          "midi": 65,
          "name": "F4",
          "ticks": 4560,
          "time": 5.7,
          "velocity": 0.7874015748031497
        },
        {
          "duration": 0.09999999999999964,
          "durationTicks": 80,
          "midi": 69,
          "name": "A4",
          "ticks": 4560,
          "time": 5.7,
          "velocity": 0.7874015748031497
        },
        {
          "duration": 0.09999999999999964,
          "durationTicks": 80,
          "midi": 58,
          "name": "A#3",
          "ticks": 5040,
          "time": 6.3,
          "velocity": 0.7874015748031497
        },
        {
          "duration": 0.09999999999999964,
          "durationTicks": 80,
          "midi": 65,
          "name": "F4",
          "ticks": 5040,
          "time": 6.3,
          "velocity": 0.7874015748031497
        },
        {
          "duration": 0.09999999999999964,
          "durationTicks": 80,
          "midi": 58,
          "name": "A#3",
          "ticks": 5520,
          "time": 6.8999999999999995,
          "velocity": 0.7874015748031497
        },
        {
          "duration": 0.09999999999999964,
          "durationTicks": 80,
          "midi": 65,
          "name": "F4",
          "ticks": 5520,
          "time": 6.8999999999999995,
          "velocity": 0.7874015748031497
        },
        {
          "duration": 0.09999999999999964,
          "durationTicks": 80,
          "midi": 62,
          "name": "D4",
          "ticks": 6000,
          "time": 7.5,
          "velocity": 0.7874015748031497
        },
        {
          "duration": 0.09999999999999964,
          "durationTicks": 80,
          "midi": 67,
          "name": "G4",
          "ticks": 6000,
          "time": 7.5,
          "velocity": 0.7874015748031497
        },
        {
          "duration": 0.09999999999999964,
          "durationTicks": 80,
          "midi": 62,
          "name": "D4",
          "ticks": 6480,
          "time": 8.1,
          "velocity": 0.7874015748031497
        },
        {
          "duration": 0.09999999999999964,
          "durationTicks": 80,
          "midi": 67,
          "name": "G4",
          "ticks": 6480,
          "time": 8.1,
          "velocity": 0.7874015748031497
        },
        {
          "duration": 0.09999999999999964,
          "durationTicks": 80,
          "midi": 55,
          "name": "G3",
          "ticks": 6960,
          "time": 8.7,
          "velocity": 0.7874015748031497
        },
        {
          "duration": 0.09999999999999964,
          "durationTicks": 80,
          "midi": 58,
          "name": "A#3",
          "ticks": 6960,
          "time": 8.7,
          "velocity": 0.7874015748031497
        },
        {
          "duration": 0.09999999999999964,
          "durationTicks": 80,
          "midi": 55,
          "name": "G3",
          "ticks": 7200,
          "time": 9,
          "velocity": 0.7874015748031497
        },
        {
          "duration": 0.09999999999999964,
          "durationTicks": 80,
          "midi": 58,
          "name": "A#3",
          "ticks": 7200,
          "time": 9,
          "velocity": 0.7874015748031497
        },
        {
          "duration": 0.09999999999999964,
          "durationTicks": 80,
          "midi": 57,
          "name": "A3",
          "ticks": 7320,
          "time": 9.15,
          "velocity": 0.7874015748031497
        },
        {
          "duration": 0.09999999999999964,
          "durationTicks": 80,
          "midi": 60,
          "name": "C4",
          "ticks": 7320,
          "time": 9.15,
          "velocity": 0.7874015748031497
        },
        {
          "duration": 0.09999999999999964,
          "durationTicks": 80,
          "midi": 58,
          "name": "A#3",
          "ticks": 7440,
          "time": 9.299999999999999,
          "velocity": 0.7874015748031497
        },
        {
          "duration": 0.09999999999999964,
          "durationTicks": 80,
          "midi": 62,
          "name": "D4",
          "ticks": 7440,
          "time": 9.299999999999999,
          "velocity": 0.7874015748031497
        },
        {
          "duration": 0.15000000000000036,
          "durationTicks": 120,
          "midi": 58,
          "name": "A#3",
          "ticks": 7560,
          "time": 9.45,
          "velocity": 0.7874015748031497
        },
        {
          "duration": 0.15000000000000036,
          "durationTicks": 120,
          "midi": 62,
          "name": "D4",
          "ticks": 7560,
          "time": 9.45,
          "velocity": 0.7874015748031497
        },
        {
          "duration": 0.09999999999999964,
          "durationTicks": 80,
          "midi": 60,
          "name": "C4",
          "ticks": 7800,
          "time": 9.75,
          "velocity": 0.7874015748031497
        },
        {
          "duration": 0.09999999999999964,
          "durationTicks": 80,
          "midi": 64,
          "name": "E4",
          "ticks": 7800,
          "time": 9.75,
          "velocity": 0.7874015748031497
        },
        {
          "duration": 0.2500000000000018,
          "durationTicks": 200,
          "midi": 60,
          "name": "C4",
          "ticks": 8160,
          "time": 10.2,
          "velocity": 0.7874015748031497
        },
        {
          "duration": 0.2500000000000018,
          "durationTicks": 200,
          "midi": 65,
          "name": "F4",
          "ticks": 8160,
          "time": 10.2,
          "velocity": 0.7874015748031497
        },
        {
          "duration": 0.25,
          "durationTicks": 200,
          "midi": 64,
          "name": "E4",
          "ticks": 8400,
          "time": 10.5,
          "velocity": 0.7874015748031497
        },
        {
          "duration": 0.25,
          "durationTicks": 200,
          "midi": 67,
          "name": "G4",
          "ticks": 8400,
          "time": 10.5,
          "velocity": 0.7874015748031497
        },
        {
          "duration": 0.15000000000000036,
          "durationTicks": 120,
          "midi": 60,
          "name": "C4",
          "ticks": 8880,
          "time": 11.1,
          "velocity": 0.7874015748031497
        },
        {
          "duration": 0.15000000000000036,
          "durationTicks": 120,
          "midi": 65,
          "name": "F4",
          "ticks": 8880,
          "time": 11.1,
          "velocity": 0.7874015748031497
        },
        {
          "duration": 0.15000000000000036,
          "durationTicks": 120,
          "midi": 60,
          "name": "C4",
          "ticks": 9360,
          "time": 11.7,
          "velocity": 0.7874015748031497
        },
        {
          "duration": 0.15000000000000036,
          "durationTicks": 120,
          "midi": 65,
          "name": "F4",
          "ticks": 9360,
          "time": 11.7,
          "velocity": 0.7874015748031497
        },
        {
          "duration": 0.15000000000000036,
          "durationTicks": 120,
          "midi": 60,
          "name": "C4",
          "ticks": 9840,
          "time": 12.299999999999999,
          "velocity": 0.7874015748031497
        },
        {
          "duration": 0.15000000000000036,
          "durationTicks": 120,
          "midi": 65,
          "name": "F4",
          "ticks": 9840,
          "time": 12.299999999999999,
          "velocity": 0.7874015748031497
        },
        {
          "duration": 0.15000000000000036,
          "durationTicks": 120,
          "midi": 57,
          "name": "A3",
          "ticks": 10080,
          "time": 12.6,
          "velocity": 0.7874015748031497
        },
        {
          "duration": 0.15000000000000036,
          "durationTicks": 120,
          "midi": 61,
          "name": "C#4",
          "ticks": 10080,
          "time": 12.6,
          "velocity": 0.7874015748031497
        },
        {
          "duration": 0.15000000000000036,
          "durationTicks": 120,
          "midi": 58,
          "name": "A#3",
          "ticks": 10200,
          "time": 12.75,
          "velocity": 0.7874015748031497
        },
        {
          "duration": 0.15000000000000036,
          "durationTicks": 120,
          "midi": 62,
          "name": "D4",
          "ticks": 10200,
          "time": 12.75,
          "velocity": 0.7874015748031497
        },
        {
          "duration": 0.15000000000000036,
          "durationTicks": 120,
          "midi": 58,
          "name": "A#3",
          "ticks": 10800,
          "time": 13.5,
          "velocity": 0.7874015748031497
        },
        {
          "duration": 0.15000000000000036,
          "durationTicks": 120,
          "midi": 62,
          "name": "D4",
          "ticks": 10800,
          "time": 13.5,
          "velocity": 0.7874015748031497
        },
        {
          "duration": 0.15000000000000036,
          "durationTicks": 120,
          "midi": 58,
          "name": "A#3",
          "ticks": 11280,
          "time": 14.1,
          "velocity": 0.7874015748031497
        },
        {
          "duration": 0.15000000000000036,
          "durationTicks": 120,
          "midi": 62,
          "name": "D4",
          "ticks": 11280,
          "time": 14.1,
          "velocity": 0.7874015748031497
        },
        {
          "duration": 0.10000000000000142,
          "durationTicks": 80,
          "midi": 60,
          "name": "C4",
          "ticks": 11640,
          "time": 14.549999999999999,
          "velocity": 0.7874015748031497
        },
        {
          "duration": 0.10000000000000142,
          "durationTicks": 80,
          "midi": 65,
          "name": "F4",
          "ticks": 11640,
          "time": 14.549999999999999,
          "velocity": 0.7874015748031497
        },
        {
          "duration": 0.10000000000000142,
          "durationTicks": 80,
          "midi": 60,
          "name": "C4",
          "ticks": 11760,
          "time": 14.7,
          "velocity": 0.7874015748031497
        },
        {
          "duration": 0.10000000000000142,
          "durationTicks": 80,
          "midi": 65,
          "name": "F4",
          "ticks": 11760,
          "time": 14.7,
          "velocity": 0.7874015748031497
        },
        {
          "duration": 0.10000000000000142,
          "durationTicks": 80,
          "midi": 65,
          "name": "F4",
          "ticks": 12120,
          "time": 15.149999999999999,
          "velocity": 0.7874015748031497
        },
        {
          "duration": 0.10000000000000142,
          "durationTicks": 80,
          "midi": 69,
          "name": "A4",
          "ticks": 12120,
          "time": 15.149999999999999,
          "velocity": 0.7874015748031497
        },
        {
          "duration": 0.10000000000000142,
          "durationTicks": 80,
          "midi": 64,
          "name": "E4",
          "ticks": 12240,
          "time": 15.299999999999999,
          "velocity": 0.7874015748031497
        },
        {
          "duration": 0.10000000000000142,
          "durationTicks": 80,
          "midi": 68,
          "name": "G#4",
          "ticks": 12240,
          "time": 15.299999999999999,
          "velocity": 0.7874015748031497
        },
        {
          "duration": 0.10000000000000142,
          "durationTicks": 80,
          "midi": 65,
          "name": "F4",
          "ticks": 12360,
          "time": 15.45,
          "velocity": 0.7874015748031497
        },
        {
          "duration": 0.10000000000000142,
          "durationTicks": 80,
          "midi": 69,
          "name": "A4",
          "ticks": 12360,
          "time": 15.45,
          "velocity": 0.7874015748031497
        },
        {
          "duration": 0.10000000000000142,
          "durationTicks": 80,
          "midi": 65,
          "name": "F4",
          "ticks": 12720,
          "time": 15.899999999999999,
          "velocity": 0.7874015748031497
        },
        {
          "duration": 0.10000000000000142,
          "durationTicks": 80,
          "midi": 70,
          "name": "A#4",
          "ticks": 12720,
          "time": 15.899999999999999,
          "velocity": 0.7874015748031497
        },
        {
          "duration": 0.10000000000000142,
          "durationTicks": 80,
          "midi": 65,
          "name": "F4",
          "ticks": 13080,
          "time": 16.349999999999998,
          "velocity": 0.7874015748031497
        },
        {
          "duration": 0.10000000000000142,
          "durationTicks": 80,
          "midi": 70,
          "name": "A#4",
          "ticks": 13080,
          "time": 16.349999999999998,
          "velocity": 0.7874015748031497
        },
        {
          "duration": 0.10000000000000142,
          "durationTicks": 80,
          "midi": 65,
          "name": "F4",
          "ticks": 13200,
          "time": 16.5,
          "velocity": 0.7874015748031497
        },
        {
          "duration": 0.10000000000000142,
          "durationTicks": 80,
          "midi": 70,
          "name": "A#4",
          "ticks": 13200,
          "time": 16.5,
          "velocity": 0.7874015748031497
        },
        {
          "duration": 0.07499999999999929,
          "durationTicks": 60,
          "midi": 60,
          "name": "C4",
          "ticks": 13560,
          "time": 16.95,
          "velocity": 0.9291338582677166
        },
        {
          "duration": 0.07499999999999929,
          "durationTicks": 60,
          "midi": 67,
          "name": "G4",
          "ticks": 13560,
          "time": 16.95,
          "velocity": 0.7874015748031497
        },
        {
          "duration": 0.07500000000000284,
          "durationTicks": 60,
          "midi": 60,
          "name": "C4",
          "ticks": 13680,
          "time": 17.099999999999998,
          "velocity": 0.6850393700787402
        },
        {
          "duration": 0.07500000000000284,
          "durationTicks": 60,
          "midi": 67,
          "name": "G4",
          "ticks": 13680,
          "time": 17.099999999999998,
          "velocity": 0.984251968503937
        },
        {
          "duration": 0.07499999999999929,
          "durationTicks": 60,
          "midi": 60,
          "name": "C4",
          "ticks": 14040,
          "time": 17.55,
          "velocity": 0.9291338582677166
        },
        {
          "duration": 0.07499999999999929,
          "durationTicks": 60,
          "midi": 67,
          "name": "G4",
          "ticks": 14040,
          "time": 17.55,
          "velocity": 0.7874015748031497
        },
        {
          "duration": 0.07499999999999929,
          "durationTicks": 60,
          "midi": 60,
          "name": "C4",
          "ticks": 14160,
          "time": 17.7,
          "velocity": 0.6850393700787402
        },
        {
          "duration": 0.07499999999999929,
          "durationTicks": 60,
          "midi": 67,
          "name": "G4",
          "ticks": 14160,
          "time": 17.7,
          "velocity": 0.984251968503937
        },
        {
          "duration": 2.3999999999999986,
          "durationTicks": 1920,
          "midi": 60,
          "name": "C4",
          "ticks": 14400,
          "time": 18,
          "velocity": 0.7874015748031497
        },
        {
          "duration": 2.349999999999998,
          "durationTicks": 1880,
          "midi": 65,
          "name": "F4",
          "ticks": 14400,
          "time": 18,
          "velocity": 0.7874015748031497
        },
        {
          "duration": 1.1499999999999986,
          "durationTicks": 920,
          "midi": 65,
          "name": "F4",
          "ticks": 16320,
          "time": 20.4,
          "velocity": 0.7874015748031497
        },
        {
          "duration": 1.1999999999999993,
          "durationTicks": 960,
          "midi": 70,
          "name": "A#4",
          "ticks": 16320,
          "time": 20.4,
          "velocity": 0.7874015748031497
        },
        {
          "duration": 1.2000000000000028,
          "durationTicks": 960,
          "midi": 65,
          "name": "F4",
          "ticks": 17280,
          "time": 21.599999999999998,
          "velocity": 0.7874015748031497
        },
        {
          "duration": 1.2000000000000028,
          "durationTicks": 960,
          "midi": 69,
          "name": "A4",
          "ticks": 17280,
          "time": 21.599999999999998,
          "velocity": 0.7874015748031497
        },
        {
          "duration": 1.1999999999999993,
          "durationTicks": 960,
          "midi": 65,
          "name": "F4",
          "ticks": 18240,
          "time": 22.8,
          "velocity": 0.7874015748031497
        },
        {
          "duration": 1.1999999999999993,
          "durationTicks": 960,
          "midi": 70,
          "name": "A#4",
          "ticks": 18240,
          "time": 22.8,
          "velocity": 0.7874015748031497
        },
        {
          "duration": 1.1999999999999993,
          "durationTicks": 960,
          "midi": 67,
          "name": "G4",
          "ticks": 19200,
          "time": 24,
          "velocity": 0.7874015748031497
        },
        {
          "duration": 1.1999999999999993,
          "durationTicks": 960,
          "midi": 72,
          "name": "C5",
          "ticks": 19200,
          "time": 24,
          "velocity": 0.7874015748031497
        },
        {
          "duration": 1.1999999999999993,
          "durationTicks": 960,
          "midi": 67,
          "name": "G4",
          "ticks": 20160,
          "time": 25.2,
          "velocity": 0.7874015748031497
        },
        {
          "duration": 1.1999999999999993,
          "durationTicks": 960,
          "midi": 70,
          "name": "A#4",
          "ticks": 20160,
          "time": 25.2,
          "velocity": 0.7874015748031497
        },
        {
          "duration": 1.1850000000000023,
          "durationTicks": 948,
          "midi": 67,
          "name": "G4",
          "ticks": 21120,
          "time": 26.4,
          "velocity": 0.7874015748031497
        },
        {
          "duration": 1.1850000000000023,
          "durationTicks": 948,
          "midi": 72,
          "name": "C5",
          "ticks": 21120,
          "time": 26.4,
          "velocity": 0.7874015748031497
        },
        {
          "duration": 2.349999999999998,
          "durationTicks": 1880,
          "midi": 65,
          "name": "F4",
          "ticks": 22080,
          "time": 27.599999999999998,
          "velocity": 0.7874015748031497
        },
        {
          "duration": 2.349999999999998,
          "durationTicks": 1880,
          "midi": 70,
          "name": "A#4",
          "ticks": 22080,
          "time": 27.599999999999998,
          "velocity": 0.7874015748031497
        },
        {
          "duration": 0.24999999999999645,
          "durationTicks": 200,
          "midi": 60,
          "name": "C4",
          "ticks": 24000,
          "time": 30,
          "velocity": 0.7874015748031497
        },
        {
          "duration": 0.24999999999999645,
          "durationTicks": 200,
          "midi": 67,
          "name": "G4",
          "ticks": 24000,
          "time": 30,
          "velocity": 0.7874015748031497
        },
        {
          "duration": 0.25,
          "durationTicks": 200,
          "midi": 60,
          "name": "C4",
          "ticks": 24480,
          "time": 30.599999999999998,
          "velocity": 0.7874015748031497
        },
        {
          "duration": 0.25,
          "durationTicks": 200,
          "midi": 67,
          "name": "G4",
          "ticks": 24480,
          "time": 30.599999999999998,
          "velocity": 0.7874015748031497
        },
        {
          "duration": 0.24999999999999645,
          "durationTicks": 200,
          "midi": 60,
          "name": "C4",
          "ticks": 24960,
          "time": 31.2,
          "velocity": 0.7874015748031497
        },
        {
          "duration": 0.24999999999999645,
          "durationTicks": 200,
          "midi": 67,
          "name": "G4",
          "ticks": 24960,
          "time": 31.2,
          "velocity": 0.7874015748031497
        },
        {
          "duration": 0.25,
          "durationTicks": 200,
          "midi": 60,
          "name": "C4",
          "ticks": 25440,
          "time": 31.799999999999997,
          "velocity": 0.7874015748031497
        },
        {
          "duration": 0.25,
          "durationTicks": 200,
          "midi": 67,
          "name": "G4",
          "ticks": 25440,
          "time": 31.799999999999997,
          "velocity": 0.7874015748031497
        },
        {
          "duration": 0.25,
          "durationTicks": 200,
          "midi": 60,
          "name": "C4",
          "ticks": 25920,
          "time": 32.4,
          "velocity": 0.7874015748031497
        },
        {
          "duration": 0.25,
          "durationTicks": 200,
          "midi": 67,
          "name": "G4",
          "ticks": 25920,
          "time": 32.4,
          "velocity": 0.7874015748031497
        },
        {
          "duration": 0.25,
          "durationTicks": 200,
          "midi": 60,
          "name": "C4",
          "ticks": 26160,
          "time": 32.699999999999996,
          "velocity": 0.7874015748031497
        },
        {
          "duration": 0.25,
          "durationTicks": 200,
          "midi": 67,
          "name": "G4",
          "ticks": 26160,
          "time": 32.699999999999996,
          "velocity": 0.7874015748031497
        },
        {
          "duration": 0.25,
          "durationTicks": 200,
          "midi": 60,
          "name": "C4",
          "ticks": 26400,
          "time": 33,
          "velocity": 0.7874015748031497
        },
        {
          "duration": 0.25,
          "durationTicks": 200,
          "midi": 67,
          "name": "G4",
          "ticks": 26400,
          "time": 33,
          "velocity": 0.7874015748031497
        },
        {
          "duration": 0.25,
          "durationTicks": 200,
          "midi": 60,
          "name": "C4",
          "ticks": 26640,
          "time": 33.3,
          "velocity": 0.7874015748031497
        },
        {
          "duration": 0.25,
          "durationTicks": 200,
          "midi": 67,
          "name": "G4",
          "ticks": 26640,
          "time": 33.3,
          "velocity": 0.7874015748031497
        },
        {
          "duration": 0.2499999999999929,
          "durationTicks": 200,
          "midi": 60,
          "name": "C4",
          "ticks": 26880,
          "time": 33.6,
          "velocity": 0.7874015748031497
        },
        {
          "duration": 0.2499999999999929,
          "durationTicks": 200,
          "midi": 67,
          "name": "G4",
          "ticks": 26880,
          "time": 33.6,
          "velocity": 0.7874015748031497
        }
      ]
    },
    {
      "channel": 0,
      "controlChanges": {},
      "pitchBends": [],
      "instrument": {
        "family": "piano",
        "number": 0,
        "name": "acoustic grand piano"
      },
      "name": "Ai Ni",
      "notes": [],
      "endOfTrackTicks": 28800
    },
    {
      "channel": 5,
      "controlChanges": {
        "7": [
          {
            "number": 7,
            "ticks": 0,
            "time": 0,
            "value": 0.5511811023622047
          }
        ],
        "10": [
          {
            "number": 10,
            "ticks": 0,
            "time": 0,
            "value": 0.6692913385826772
          }
        ]
      },
      "pitchBends": [],
      "instrument": {
        "family": "synth lead",
        "number": 81,
        "name": "lead 2 (sawtooth)"
      },
      "name": "",
      "notes": [
        {
          "duration": 0.07499999999999996,
          "durationTicks": 60,
          "midi": 69,
          "name": "A4",
          "ticks": 960,
          "time": 1.2,
          "velocity": 0.7874015748031497
        },
        {
          "duration": 0.07499999999999996,
          "durationTicks": 60,
          "midi": 69,
          "name": "A4",
          "ticks": 1200,
          "time": 1.5,
          "velocity": 0.7874015748031497
        },
        {
          "duration": 0.07499999999999996,
          "durationTicks": 60,
          "midi": 69,
          "name": "A4",
          "ticks": 1320,
          "time": 1.65,
          "velocity": 0.7874015748031497
        },
        {
          "duration": 0.07499999999999996,
          "durationTicks": 60,
          "midi": 69,
          "name": "A4",
          "ticks": 1560,
          "time": 1.95,
          "velocity": 0.7874015748031497
        },
        {
          "duration": 0.07499999999999973,
          "durationTicks": 60,
          "midi": 69,
          "name": "A4",
          "ticks": 1680,
          "time": 2.1,
          "velocity": 0.7874015748031497
        },
        {
          "duration": 0.07500000000000018,
          "durationTicks": 60,
          "midi": 70,
          "name": "A#4",
          "ticks": 1920,
          "time": 2.4,
          "velocity": 0.7874015748031497
        },
        {
          "duration": 0.07500000000000018,
          "durationTicks": 60,
          "midi": 70,
          "name": "A#4",
          "ticks": 2160,
          "time": 2.6999999999999997,
          "velocity": 0.7874015748031497
        },
        {
          "duration": 0.1499999999999999,
          "durationTicks": 120,
          "midi": 70,
          "name": "A#4",
          "ticks": 2280,
          "time": 2.85,
          "velocity": 0.7874015748031497
        },
        {
          "duration": 0.07500000000000018,
          "durationTicks": 60,
          "midi": 70,
          "name": "A#4",
          "ticks": 2520,
          "time": 3.15,
          "velocity": 0.7874015748031497
        },
        {
          "duration": 0.07500000000000018,
          "durationTicks": 60,
          "midi": 70,
          "name": "A#4",
          "ticks": 2640,
          "time": 3.3,
          "velocity": 0.7874015748031497
        },
        {
          "duration": 0.07500000000000018,
          "durationTicks": 60,
          "midi": 70,
          "name": "A#4",
          "ticks": 2760,
          "time": 3.4499999999999997,
          "velocity": 0.7874015748031497
        },
        {
          "duration": 0.15000000000000036,
          "durationTicks": 120,
          "midi": 67,
          "name": "G4",
          "ticks": 2880,
          "time": 3.5999999999999996,
          "velocity": 0.7874015748031497
        },
        {
          "duration": 0.07499999999999973,
          "durationTicks": 60,
          "midi": 67,
          "name": "G4",
          "ticks": 3120,
          "time": 3.9,
          "velocity": 0.7874015748031497
        },
        {
          "duration": 0.07500000000000018,
          "durationTicks": 60,
          "midi": 67,
          "name": "G4",
          "ticks": 3240,
          "time": 4.05,
          "velocity": 0.7874015748031497
        },
        {
          "duration": 0.07499999999999929,
          "durationTicks": 60,
          "midi": 67,
          "name": "G4",
          "ticks": 3360,
          "time": 4.2,
          "velocity": 0.7874015748031497
        },
        {
          "duration": 0.07500000000000018,
          "durationTicks": 60,
          "midi": 67,
          "name": "G4",
          "ticks": 3480,
          "time": 4.35,
          "velocity": 0.7874015748031497
        },
        {
          "duration": 0.07500000000000018,
          "durationTicks": 60,
          "midi": 67,
          "name": "G4",
          "ticks": 3600,
          "time": 4.5,
          "velocity": 0.7874015748031497
        },
        {
          "duration": 0.07500000000000018,
          "durationTicks": 60,
          "midi": 60,
          "name": "C4",
          "ticks": 3840,
          "time": 4.8,
          "velocity": 0.7874015748031497
        },
        {
          "duration": 0.07500000000000018,
          "durationTicks": 60,
          "midi": 60,
          "name": "C4",
          "ticks": 4080,
          "time": 5.1,
          "velocity": 0.7874015748031497
        },
        {
          "duration": 0.07500000000000018,
          "durationTicks": 60,
          "midi": 60,
          "name": "C4",
          "ticks": 4200,
          "time": 5.25,
          "velocity": 0.7874015748031497
        },
        {
          "duration": 0.07500000000000018,
          "durationTicks": 60,
          "midi": 60,
          "name": "C4",
          "ticks": 4440,
          "time": 5.55,
          "velocity": 0.7874015748031497
        },
        {
          "duration": 0.07499999999999929,
          "durationTicks": 60,
          "midi": 60,
          "name": "C4",
          "ticks": 4560,
          "time": 5.7,
          "velocity": 0.7874015748031497
        },
        {
          "duration": 0.07500000000000018,
          "durationTicks": 60,
          "midi": 60,
          "name": "C4",
          "ticks": 4680,
          "time": 5.85,
          "velocity": 0.7874015748031497
        },
        {
          "duration": 0.08999999999999986,
          "durationTicks": 72,
          "midi": 65,
          "name": "F4",
          "ticks": 4800,
          "time": 6,
          "velocity": 0.7874015748031497
        },
        {
          "duration": 0.07500000000000018,
          "durationTicks": 60,
          "midi": 65,
          "name": "F4",
          "ticks": 5040,
          "time": 6.3,
          "velocity": 0.7874015748031497
        },
        {
          "duration": 0.04999999999999982,
          "durationTicks": 40,
          "midi": 65,
          "name": "F4",
          "ticks": 5160,
          "time": 6.45,
          "velocity": 0.7874015748031497
        },
        {
          "duration": 0.07000000000000028,
          "durationTicks": 56,
          "midi": 65,
          "name": "F4",
          "ticks": 5280,
          "time": 6.6,
          "velocity": 0.7874015748031497
        },
        {
          "duration": 0.0649999999999995,
          "durationTicks": 52,
          "midi": 65,
          "name": "F4",
          "ticks": 5400,
          "time": 6.75,
          "velocity": 0.7874015748031497
        },
        {
          "duration": 0.07000000000000028,
          "durationTicks": 56,
          "midi": 65,
          "name": "F4",
          "ticks": 5520,
          "time": 6.8999999999999995,
          "velocity": 0.7874015748031497
        },
        {
          "duration": 0.08000000000000007,
          "durationTicks": 64,
          "midi": 65,
          "name": "F4",
          "ticks": 5640,
          "time": 7.05,
          "velocity": 0.7874015748031497
        },
        {
          "duration": 0.09500000000000064,
          "durationTicks": 76,
          "midi": 67,
          "name": "G4",
          "ticks": 5760,
          "time": 7.199999999999999,
          "velocity": 0.7874015748031497
        },
        {
          "duration": 0.07999999999999918,
          "durationTicks": 64,
          "midi": 67,
          "name": "G4",
          "ticks": 6000,
          "time": 7.5,
          "velocity": 0.7874015748031497
        },
        {
          "duration": 0.0649999999999995,
          "durationTicks": 52,
          "midi": 67,
          "name": "G4",
          "ticks": 6120,
          "time": 7.6499999999999995,
          "velocity": 0.7874015748031497
        },
        {
          "duration": 0.07000000000000028,
          "durationTicks": 56,
          "midi": 67,
          "name": "G4",
          "ticks": 6240,
          "time": 7.8,
          "velocity": 0.7874015748031497
        },
        {
          "duration": 0.07000000000000028,
          "durationTicks": 56,
          "midi": 67,
          "name": "G4",
          "ticks": 6360,
          "time": 7.949999999999999,
          "velocity": 0.7874015748031497
        },
        {
          "duration": 0.0600000000000005,
          "durationTicks": 48,
          "midi": 67,
          "name": "G4",
          "ticks": 6480,
          "time": 8.1,
          "velocity": 0.7874015748031497
        },
        {
          "duration": 0.07000000000000028,
          "durationTicks": 56,
          "midi": 67,
          "name": "G4",
          "ticks": 6600,
          "time": 8.25,
          "velocity": 0.7874015748031497
        },
        {
          "duration": 0.125,
          "durationTicks": 100,
          "midi": 64,
          "name": "E4",
          "ticks": 6720,
          "time": 8.4,
          "velocity": 0.7874015748031497
        },
        {
          "duration": 0.08000000000000007,
          "durationTicks": 64,
          "midi": 64,
          "name": "E4",
          "ticks": 6960,
          "time": 8.7,
          "velocity": 0.7874015748031497
        },
        {
          "duration": 0.07000000000000028,
          "durationTicks": 56,
          "midi": 64,
          "name": "E4",
          "ticks": 7080,
          "time": 8.85,
          "velocity": 0.7874015748031497
        },
        {
          "duration": 0.07000000000000028,
          "durationTicks": 56,
          "midi": 64,
          "name": "E4",
          "ticks": 7200,
          "time": 9,
          "velocity": 0.7874015748031497
        },
        {
          "duration": 0.07499999999999929,
          "durationTicks": 60,
          "midi": 64,
          "name": "E4",
          "ticks": 7320,
          "time": 9.15,
          "velocity": 0.7874015748031497
        },
        {
          "duration": 0.08000000000000007,
          "durationTicks": 64,
          "midi": 64,
          "name": "E4",
          "ticks": 7440,
          "time": 9.299999999999999,
          "velocity": 0.7874015748031497
        },
        {
          "duration": 0.09500000000000064,
          "durationTicks": 76,
          "midi": 64,
          "name": "E4",
          "ticks": 7560,
          "time": 9.45,
          "velocity": 0.7874015748031497
        },
        {
          "duration": 0.10999999999999943,
          "durationTicks": 88,
          "midi": 60,
          "name": "C4",
          "ticks": 7680,
          "time": 9.6,
          "velocity": 0.7874015748031497
        },
        {
          "duration": 0.08499999999999908,
          "durationTicks": 68,
          "midi": 60,
          "name": "C4",
          "ticks": 7920,
          "time": 9.9,
          "velocity": 0.7874015748031497
        },
        {
          "duration": 0.08500000000000085,
          "durationTicks": 68,
          "midi": 60,
          "name": "C4",
          "ticks": 8040,
          "time": 10.049999999999999,
          "velocity": 0.7874015748031497
        },
        {
          "duration": 0.10000000000000142,
          "durationTicks": 80,
          "midi": 60,
          "name": "C4",
          "ticks": 8280,
          "time": 10.35,
          "velocity": 0.7874015748031497
        },
        {
          "duration": 0.09999999999999964,
          "durationTicks": 80,
          "midi": 60,
          "name": "C4",
          "ticks": 8400,
          "time": 10.5,
          "velocity": 0.7874015748031497
        },
        {
          "duration": 0.08999999999999808,
          "durationTicks": 72,
          "midi": 60,
          "name": "C4",
          "ticks": 8520,
          "time": 10.65,
          "velocity": 0.7874015748031497
        },
        {
          "duration": 0.08999999999999986,
          "durationTicks": 72,
          "midi": 65,
          "name": "F4",
          "ticks": 8640,
          "time": 10.799999999999999,
          "velocity": 0.7874015748031497
        },
        {
          "duration": 0.07000000000000028,
          "durationTicks": 56,
          "midi": 65,
          "name": "F4",
          "ticks": 8880,
          "time": 11.1,
          "velocity": 0.7874015748031497
        },
        {
          "duration": 0.09999999999999964,
          "durationTicks": 80,
          "midi": 65,
          "name": "F4",
          "ticks": 9000,
          "time": 11.25,
          "velocity": 0.7874015748031497
        },
        {
          "duration": 0.07000000000000028,
          "durationTicks": 56,
          "midi": 65,
          "name": "F4",
          "ticks": 9240,
          "time": 11.549999999999999,
          "velocity": 0.7874015748031497
        },
        {
          "duration": 0.08000000000000007,
          "durationTicks": 64,
          "midi": 65,
          "name": "F4",
          "ticks": 9360,
          "time": 11.7,
          "velocity": 0.7874015748031497
        },
        {
          "duration": 0.08000000000000007,
          "durationTicks": 64,
          "midi": 65,
          "name": "F4",
          "ticks": 9480,
          "time": 11.85,
          "velocity": 0.7874015748031497
        },
        {
          "duration": 0.09500000000000064,
          "durationTicks": 76,
          "midi": 70,
          "name": "A#4",
          "ticks": 9600,
          "time": 12,
          "velocity": 0.7874015748031497
        },
        {
          "duration": 0.07000000000000028,
          "durationTicks": 56,
          "midi": 70,
          "name": "A#4",
          "ticks": 9840,
          "time": 12.299999999999999,
          "velocity": 0.7874015748031497
        },
        {
          "duration": 0.11999999999999922,
          "durationTicks": 96,
          "midi": 70,
          "name": "A#4",
          "ticks": 9960,
          "time": 12.45,
          "velocity": 0.7874015748031497
        },
        {
          "duration": 0.07499999999999929,
          "durationTicks": 60,
          "midi": 70,
          "name": "A#4",
          "ticks": 10200,
          "time": 12.75,
          "velocity": 0.7874015748031497
        },
        {
          "duration": 0.07499999999999929,
          "durationTicks": 60,
          "midi": 70,
          "name": "A#4",
          "ticks": 10320,
          "time": 12.9,
          "velocity": 0.7874015748031497
        },
        {
          "duration": 0.08000000000000007,
          "durationTicks": 64,
          "midi": 70,
          "name": "A#4",
          "ticks": 10440,
          "time": 13.049999999999999,
          "velocity": 0.7874015748031497
        },
        {
          "duration": 0.15000000000000036,
          "durationTicks": 120,
          "midi": 72,
          "name": "C5",
          "ticks": 10560,
          "time": 13.2,
          "velocity": 0.7874015748031497
        },
        {
          "duration": 0.0649999999999995,
          "durationTicks": 52,
          "midi": 72,
          "name": "C5",
          "ticks": 10800,
          "time": 13.5,
          "velocity": 0.7874015748031497
        },
        {
          "duration": 0.07499999999999929,
          "durationTicks": 60,
          "midi": 72,
          "name": "C5",
          "ticks": 10920,
          "time": 13.65,
          "velocity": 0.7874015748031497
        },
        {
          "duration": 0.08000000000000007,
          "durationTicks": 64,
          "midi": 72,
          "name": "C5",
          "ticks": 11040,
          "time": 13.799999999999999,
          "velocity": 0.7874015748031497
        },
        {
          "duration": 0.07000000000000028,
          "durationTicks": 56,
          "midi": 72,
          "name": "C5",
          "ticks": 11280,
          "time": 14.1,
          "velocity": 0.7874015748031497
        },
        {
          "duration": 0.09500000000000064,
          "durationTicks": 76,
          "midi": 72,
          "name": "C5",
          "ticks": 11400,
          "time": 14.25,
          "velocity": 0.7874015748031497
        },
        {
          "duration": 0.08999999999999986,
          "durationTicks": 72,
          "midi": 69,
          "name": "A4",
          "ticks": 11520,
          "time": 14.399999999999999,
          "velocity": 0.7874015748031497
        },
        {
          "duration": 0.08000000000000007,
          "durationTicks": 64,
          "midi": 69,
          "name": "A4",
          "ticks": 11760,
          "time": 14.7,
          "velocity": 0.7874015748031497
        },
        {
          "duration": 0.08499999999999908,
          "durationTicks": 68,
          "midi": 69,
          "name": "A4",
          "ticks": 11880,
          "time": 14.85,
          "velocity": 0.7874015748031497
        },
        {
          "duration": 0.08499999999999908,
          "durationTicks": 68,
          "midi": 69,
          "name": "A4",
          "ticks": 12000,
          "time": 15,
          "velocity": 0.7874015748031497
        },
        {
          "duration": 0.06500000000000128,
          "durationTicks": 52,
          "midi": 69,
          "name": "A4",
          "ticks": 12120,
          "time": 15.149999999999999,
          "velocity": 0.7874015748031497
        },
        {
          "duration": 0.0600000000000005,
          "durationTicks": 48,
          "midi": 69,
          "name": "A4",
          "ticks": 12240,
          "time": 15.299999999999999,
          "velocity": 0.7874015748031497
        },
        {
          "duration": 0.0600000000000005,
          "durationTicks": 48,
          "midi": 69,
          "name": "A4",
          "ticks": 12360,
          "time": 15.45,
          "velocity": 0.7874015748031497
        },
        {
          "duration": 0.09999999999999964,
          "durationTicks": 80,
          "midi": 70,
          "name": "A#4",
          "ticks": 12480,
          "time": 15.6,
          "velocity": 0.7874015748031497
        },
        {
          "duration": 0.07000000000000028,
          "durationTicks": 56,
          "midi": 70,
          "name": "A#4",
          "ticks": 12720,
          "time": 15.899999999999999,
          "velocity": 0.7874015748031497
        },
        {
          "duration": 0.09499999999999886,
          "durationTicks": 76,
          "midi": 70,
          "name": "A#4",
          "ticks": 12840,
          "time": 16.05,
          "velocity": 0.7874015748031497
        },
        {
          "duration": 0.07000000000000028,
          "durationTicks": 56,
          "midi": 70,
          "name": "A#4",
          "ticks": 13080,
          "time": 16.349999999999998,
          "velocity": 0.7874015748031497
        },
        {
          "duration": 0.07499999999999929,
          "durationTicks": 60,
          "midi": 70,
          "name": "A#4",
          "ticks": 13200,
          "time": 16.5,
          "velocity": 0.7874015748031497
        },
        {
          "duration": 0.08500000000000085,
          "durationTicks": 68,
          "midi": 70,
          "name": "A#4",
          "ticks": 13320,
          "time": 16.65,
          "velocity": 0.7874015748031497
        },
        {
          "duration": 0.16499999999999915,
          "durationTicks": 132,
          "midi": 67,
          "name": "G4",
          "ticks": 13440,
          "time": 16.8,
          "velocity": 0.7874015748031497
        },
        {
          "duration": 0.08500000000000085,
          "durationTicks": 68,
          "midi": 67,
          "name": "G4",
          "ticks": 13680,
          "time": 17.099999999999998,
          "velocity": 0.7874015748031497
        },
        {
          "duration": 0.11999999999999744,
          "durationTicks": 96,
          "midi": 67,
          "name": "G4",
          "ticks": 13800,
          "time": 17.25,
          "velocity": 0.7874015748031497
        },
        {
          "duration": 0.0799999999999983,
          "durationTicks": 64,
          "midi": 67,
          "name": "G4",
          "ticks": 14040,
          "time": 17.55,
          "velocity": 0.7874015748031497
        },
        {
          "duration": 0.0799999999999983,
          "durationTicks": 64,
          "midi": 67,
          "name": "G4",
          "ticks": 14160,
          "time": 17.7,
          "velocity": 0.7874015748031497
        },
        {
          "duration": 0.08999999999999986,
          "durationTicks": 72,
          "midi": 67,
          "name": "G4",
          "ticks": 14280,
          "time": 17.849999999999998,
          "velocity": 0.7874015748031497
        },
        {
          "duration": 0.16499999999999915,
          "durationTicks": 132,
          "midi": 69,
          "name": "A4",
          "ticks": 14400,
          "time": 18,
          "velocity": 0.7874015748031497
        },
        {
          "duration": 0.0849999999999973,
          "durationTicks": 68,
          "midi": 69,
          "name": "A4",
          "ticks": 14640,
          "time": 18.3,
          "velocity": 0.7874015748031497
        },
        {
          "duration": 0.120000000000001,
          "durationTicks": 96,
          "midi": 69,
          "name": "A4",
          "ticks": 14760,
          "time": 18.45,
          "velocity": 0.7874015748031497
        },
        {
          "duration": 0.0799999999999983,
          "durationTicks": 64,
          "midi": 69,
          "name": "A4",
          "ticks": 15000,
          "time": 18.75,
          "velocity": 0.7874015748031497
        },
        {
          "duration": 0.08000000000000185,
          "durationTicks": 64,
          "midi": 69,
          "name": "A4",
          "ticks": 15120,
          "time": 18.9,
          "velocity": 0.7874015748031497
        },
        {
          "duration": 0.0899999999999963,
          "durationTicks": 72,
          "midi": 69,
          "name": "A4",
          "ticks": 15240,
          "time": 19.05,
          "velocity": 0.7874015748031497
        },
        {
          "duration": 0.16499999999999915,
          "durationTicks": 132,
          "midi": 69,
          "name": "A4",
          "ticks": 15360,
          "time": 19.2,
          "velocity": 0.7874015748031497
        },
        {
          "duration": 0.0849999999999973,
          "durationTicks": 68,
          "midi": 69,
          "name": "A4",
          "ticks": 15600,
          "time": 19.5,
          "velocity": 0.7874015748031497
        },
        {
          "duration": 0.120000000000001,
          "durationTicks": 96,
          "midi": 69,
          "name": "A4",
          "ticks": 15720,
          "time": 19.65,
          "velocity": 0.7874015748031497
        },
        {
          "duration": 0.0799999999999983,
          "durationTicks": 64,
          "midi": 69,
          "name": "A4",
          "ticks": 15960,
          "time": 19.95,
          "velocity": 0.7874015748031497
        },
        {
          "duration": 0.08000000000000185,
          "durationTicks": 64,
          "midi": 69,
          "name": "A4",
          "ticks": 16080,
          "time": 20.099999999999998,
          "velocity": 0.7874015748031497
        },
        {
          "duration": 0.08999999999999986,
          "durationTicks": 72,
          "midi": 69,
          "name": "A4",
          "ticks": 16200,
          "time": 20.25,
          "velocity": 0.7874015748031497
        },
        {
          "duration": 0.08999999999999986,
          "durationTicks": 72,
          "midi": 58,
          "name": "A#3",
          "ticks": 16320,
          "time": 20.4,
          "velocity": 0.7874015748031497
        },
        {
          "duration": 0.0899999999999963,
          "durationTicks": 72,
          "midi": 58,
          "name": "A#3",
          "ticks": 16440,
          "time": 20.55,
          "velocity": 0.7874015748031497
        },
        {
          "duration": 0.08999999999999986,
          "durationTicks": 72,
          "midi": 65,
          "name": "F4",
          "ticks": 16560,
          "time": 20.7,
          "velocity": 0.7874015748031497
        },
        {
          "duration": 0.08999999999999986,
          "durationTicks": 72,
          "midi": 65,
          "name": "F4",
          "ticks": 16680,
          "time": 20.849999999999998,
          "velocity": 0.7874015748031497
        },
        {
          "duration": 0.08999999999999986,
          "durationTicks": 72,
          "midi": 70,
          "name": "A#4",
          "ticks": 16800,
          "time": 21,
          "velocity": 0.7874015748031497
        },
        {
          "duration": 0.08999999999999986,
          "durationTicks": 72,
          "midi": 70,
          "name": "A#4",
          "ticks": 16920,
          "time": 21.15,
          "velocity": 0.7874015748031497
        },
        {
          "duration": 0.0899999999999963,
          "durationTicks": 72,
          "midi": 65,
          "name": "F4",
          "ticks": 17040,
          "time": 21.3,
          "velocity": 0.7874015748031497
        },
        {
          "duration": 0.08999999999999986,
          "durationTicks": 72,
          "midi": 65,
          "name": "F4",
          "ticks": 17160,
          "time": 21.45,
          "velocity": 0.7874015748031497
        },
        {
          "duration": 0.08999999999999986,
          "durationTicks": 72,
          "midi": 60,
          "name": "C4",
          "ticks": 17280,
          "time": 21.599999999999998,
          "velocity": 0.7874015748031497
        },
        {
          "duration": 0.08999999999999986,
          "durationTicks": 72,
          "midi": 60,
          "name": "C4",
          "ticks": 17400,
          "time": 21.75,
          "velocity": 0.7874015748031497
        },
        {
          "duration": 0.08999999999999986,
          "durationTicks": 72,
          "midi": 65,
          "name": "F4",
          "ticks": 17520,
          "time": 21.9,
          "velocity": 0.7874015748031497
        },
        {
          "duration": 0.0899999999999963,
          "durationTicks": 72,
          "midi": 65,
          "name": "F4",
          "ticks": 17640,
          "time": 22.05,
          "velocity": 0.7874015748031497
        },
        {
          "duration": 0.08999999999999986,
          "durationTicks": 72,
          "midi": 72,
          "name": "C5",
          "ticks": 17760,
          "time": 22.2,
          "velocity": 0.7874015748031497
        },
        {
          "duration": 0.08999999999999986,
          "durationTicks": 72,
          "midi": 72,
          "name": "C5",
          "ticks": 17880,
          "time": 22.349999999999998,
          "velocity": 0.7874015748031497
        },
        {
          "duration": 0.08999999999999986,
          "durationTicks": 72,
          "midi": 65,
          "name": "F4",
          "ticks": 18000,
          "time": 22.5,
          "velocity": 0.7874015748031497
        },
        {
          "duration": 0.08999999999999986,
          "durationTicks": 72,
          "midi": 65,
          "name": "F4",
          "ticks": 18120,
          "time": 22.65,
          "velocity": 0.7874015748031497
        },
        {
          "duration": 0.0899999999999963,
          "durationTicks": 72,
          "midi": 62,
          "name": "D4",
          "ticks": 18240,
          "time": 22.8,
          "velocity": 0.7874015748031497
        },
        {
          "duration": 0.08999999999999986,
          "durationTicks": 72,
          "midi": 62,
          "name": "D4",
          "ticks": 18360,
          "time": 22.95,
          "velocity": 0.7874015748031497
        },
        {
          "duration": 0.08999999999999986,
          "durationTicks": 72,
          "midi": 67,
          "name": "G4",
          "ticks": 18480,
          "time": 23.099999999999998,
          "velocity": 0.7874015748031497
        },
        {
          "duration": 0.08999999999999986,
          "durationTicks": 72,
          "midi": 67,
          "name": "G4",
          "ticks": 18600,
          "time": 23.25,
          "velocity": 0.7874015748031497
        },
        {
          "duration": 0.08999999999999986,
          "durationTicks": 72,
          "midi": 70,
          "name": "A#4",
          "ticks": 18720,
          "time": 23.4,
          "velocity": 0.7874015748031497
        },
        {
          "duration": 0.0899999999999963,
          "durationTicks": 72,
          "midi": 70,
          "name": "A#4",
          "ticks": 18840,
          "time": 23.55,
          "velocity": 0.7874015748031497
        },
        {
          "duration": 0.08999999999999986,
          "durationTicks": 72,
          "midi": 67,
          "name": "G4",
          "ticks": 18960,
          "time": 23.7,
          "velocity": 0.7874015748031497
        },
        {
          "duration": 0.08999999999999986,
          "durationTicks": 72,
          "midi": 67,
          "name": "G4",
          "ticks": 19080,
          "time": 23.849999999999998,
          "velocity": 0.7874015748031497
        },
        {
          "duration": 0.08999999999999986,
          "durationTicks": 72,
          "midi": 60,
          "name": "C4",
          "ticks": 19200,
          "time": 24,
          "velocity": 0.7874015748031497
        },
        {
          "duration": 0.08999999999999986,
          "durationTicks": 72,
          "midi": 60,
          "name": "C4",
          "ticks": 19320,
          "time": 24.15,
          "velocity": 0.7874015748031497
        },
        {
          "duration": 0.0899999999999963,
          "durationTicks": 72,
          "midi": 67,
          "name": "G4",
          "ticks": 19440,
          "time": 24.3,
          "velocity": 0.7874015748031497
        },
        {
          "duration": 0.05000000000000071,
          "durationTicks": 40,
          "midi": 67,
          "name": "G4",
          "ticks": 19560,
          "time": 24.45,
          "velocity": 0.7874015748031497
        },
        {
          "duration": 0.05000000000000426,
          "durationTicks": 40,
          "midi": 72,
          "name": "C5",
          "ticks": 19680,
          "time": 24.599999999999998,
          "velocity": 0.7874015748031497
        },
        {
          "duration": 0.05000000000000071,
          "durationTicks": 40,
          "midi": 72,
          "name": "C5",
          "ticks": 19800,
          "time": 24.75,
          "velocity": 0.7874015748031497
        },
        {
          "duration": 0.05000000000000071,
          "durationTicks": 40,
          "midi": 67,
          "name": "G4",
          "ticks": 19920,
          "time": 24.9,
          "velocity": 0.7874015748031497
        },
        {
          "duration": 0.05000000000000071,
          "durationTicks": 40,
          "midi": 67,
          "name": "G4",
          "ticks": 20040,
          "time": 25.05,
          "velocity": 0.7874015748031497
        },
        {
          "duration": 0.08999999999999986,
          "durationTicks": 72,
          "midi": 58,
          "name": "A#3",
          "ticks": 20160,
          "time": 25.2,
          "velocity": 0.7874015748031497
        },
        {
          "duration": 0.08999999999999986,
          "durationTicks": 72,
          "midi": 58,
          "name": "A#3",
          "ticks": 20280,
          "time": 25.349999999999998,
          "velocity": 0.7874015748031497
        },
        {
          "duration": 0.08999999999999986,
          "durationTicks": 72,
          "midi": 65,
          "name": "F4",
          "ticks": 20400,
          "time": 25.5,
          "velocity": 0.7874015748031497
        },
        {
          "duration": 0.08999999999999986,
          "durationTicks": 72,
          "midi": 65,
          "name": "F4",
          "ticks": 20520,
          "time": 25.65,
          "velocity": 0.7874015748031497
        },
        {
          "duration": 0.0899999999999963,
          "durationTicks": 72,
          "midi": 70,
          "name": "A#4",
          "ticks": 20640,
          "time": 25.8,
          "velocity": 0.7874015748031497
        },
        {
          "duration": 0.08999999999999986,
          "durationTicks": 72,
          "midi": 70,
          "name": "A#4",
          "ticks": 20760,
          "time": 25.95,
          "velocity": 0.7874015748031497
        },
        {
          "duration": 0.08999999999999986,
          "durationTicks": 72,
          "midi": 65,
          "name": "F4",
          "ticks": 20880,
          "time": 26.099999999999998,
          "velocity": 0.7874015748031497
        },
        {
          "duration": 0.08999999999999986,
          "durationTicks": 72,
          "midi": 65,
          "name": "F4",
          "ticks": 21000,
          "time": 26.25,
          "velocity": 0.7874015748031497
        },
        {
          "duration": 0.07499999999999929,
          "durationTicks": 60,
          "midi": 60,
          "name": "C4",
          "ticks": 21120,
          "time": 26.4,
          "velocity": 0.7874015748031497
        },
        {
          "duration": 0.0899999999999963,
          "durationTicks": 72,
          "midi": 60,
          "name": "C4",
          "ticks": 21240,
          "time": 26.55,
          "velocity": 0.7874015748031497
        },
        {
          "duration": 0.08999999999999986,
          "durationTicks": 72,
          "midi": 65,
          "name": "F4",
          "ticks": 21360,
          "time": 26.7,
          "velocity": 0.7874015748031497
        },
        {
          "duration": 0.08999999999999986,
          "durationTicks": 72,
          "midi": 65,
          "name": "F4",
          "ticks": 21480,
          "time": 26.849999999999998,
          "velocity": 0.7874015748031497
        },
        {
          "duration": 0.08999999999999986,
          "durationTicks": 72,
          "midi": 72,
          "name": "C5",
          "ticks": 21600,
          "time": 27,
          "velocity": 0.7874015748031497
        },
        {
          "duration": 0.08999999999999986,
          "durationTicks": 72,
          "midi": 72,
          "name": "C5",
          "ticks": 21720,
          "time": 27.15,
          "velocity": 0.7874015748031497
        },
        {
          "duration": 0.0899999999999963,
          "durationTicks": 72,
          "midi": 65,
          "name": "F4",
          "ticks": 21840,
          "time": 27.3,
          "velocity": 0.7874015748031497
        },
        {
          "duration": 0.08999999999999986,
          "durationTicks": 72,
          "midi": 65,
          "name": "F4",
          "ticks": 21960,
          "time": 27.45,
          "velocity": 0.7874015748031497
        },
        {
          "duration": 0.08999999999999986,
          "durationTicks": 72,
          "midi": 62,
          "name": "D4",
          "ticks": 22080,
          "time": 27.599999999999998,
          "velocity": 0.7874015748031497
        },
        {
          "duration": 0.08999999999999986,
          "durationTicks": 72,
          "midi": 62,
          "name": "D4",
          "ticks": 22200,
          "time": 27.75,
          "velocity": 0.7874015748031497
        },
        {
          "duration": 0.08999999999999986,
          "durationTicks": 72,
          "midi": 67,
          "name": "G4",
          "ticks": 22320,
          "time": 27.9,
          "velocity": 0.7874015748031497
        },
        {
          "duration": 0.0899999999999963,
          "durationTicks": 72,
          "midi": 67,
          "name": "G4",
          "ticks": 22440,
          "time": 28.05,
          "velocity": 0.7874015748031497
        },
        {
          "duration": 0.08999999999999986,
          "durationTicks": 72,
          "midi": 70,
          "name": "A#4",
          "ticks": 22560,
          "time": 28.2,
          "velocity": 0.7874015748031497
        },
        {
          "duration": 0.08999999999999986,
          "durationTicks": 72,
          "midi": 70,
          "name": "A#4",
          "ticks": 22680,
          "time": 28.349999999999998,
          "velocity": 0.7874015748031497
        },
        {
          "duration": 0.08999999999999986,
          "durationTicks": 72,
          "midi": 67,
          "name": "G4",
          "ticks": 22800,
          "time": 28.5,
          "velocity": 0.7874015748031497
        },
        {
          "duration": 0.08999999999999986,
          "durationTicks": 72,
          "midi": 67,
          "name": "G4",
          "ticks": 22920,
          "time": 28.65,
          "velocity": 0.7874015748031497
        },
        {
          "duration": 0.08999999999999986,
          "durationTicks": 72,
          "midi": 62,
          "name": "D4",
          "ticks": 23040,
          "time": 28.799999999999997,
          "velocity": 0.7874015748031497
        },
        {
          "duration": 0.08999999999999986,
          "durationTicks": 72,
          "midi": 62,
          "name": "D4",
          "ticks": 23160,
          "time": 28.95,
          "velocity": 0.7874015748031497
        },
        {
          "duration": 0.08999999999999986,
          "durationTicks": 72,
          "midi": 67,
          "name": "G4",
          "ticks": 23280,
          "time": 29.099999999999998,
          "velocity": 0.7874015748031497
        },
        {
          "duration": 0.0899999999999963,
          "durationTicks": 72,
          "midi": 67,
          "name": "G4",
          "ticks": 23400,
          "time": 29.25,
          "velocity": 0.7874015748031497
        },
        {
          "duration": 0.08999999999999986,
          "durationTicks": 72,
          "midi": 70,
          "name": "A#4",
          "ticks": 23520,
          "time": 29.4,
          "velocity": 0.7874015748031497
        },
        {
          "duration": 0.08999999999999986,
          "durationTicks": 72,
          "midi": 70,
          "name": "A#4",
          "ticks": 23640,
          "time": 29.549999999999997,
          "velocity": 0.7874015748031497
        },
        {
          "duration": 0.08999999999999986,
          "durationTicks": 72,
          "midi": 67,
          "name": "G4",
          "ticks": 23760,
          "time": 29.7,
          "velocity": 0.7874015748031497
        },
        {
          "duration": 0.08999999999999986,
          "durationTicks": 72,
          "midi": 67,
          "name": "G4",
          "ticks": 23880,
          "time": 29.849999999999998,
          "velocity": 0.7874015748031497
        },
        {
          "duration": 0.0899999999999963,
          "durationTicks": 72,
          "midi": 60,
          "name": "C4",
          "ticks": 24000,
          "time": 30,
          "velocity": 0.7874015748031497
        },
        {
          "duration": 0.08999999999999986,
          "durationTicks": 72,
          "midi": 60,
          "name": "C4",
          "ticks": 24120,
          "time": 30.15,
          "velocity": 0.7874015748031497
        },
        {
          "duration": 0.08999999999999986,
          "durationTicks": 72,
          "midi": 67,
          "name": "G4",
          "ticks": 24240,
          "time": 30.299999999999997,
          "velocity": 0.7874015748031497
        },
        {
          "duration": 0.08999999999999986,
          "durationTicks": 72,
          "midi": 67,
          "name": "G4",
          "ticks": 24360,
          "time": 30.45,
          "velocity": 0.7874015748031497
        },
        {
          "duration": 0.08999999999999986,
          "durationTicks": 72,
          "midi": 72,
          "name": "C5",
          "ticks": 24480,
          "time": 30.599999999999998,
          "velocity": 0.7874015748031497
        },
        {
          "duration": 0.0899999999999963,
          "durationTicks": 72,
          "midi": 72,
          "name": "C5",
          "ticks": 24600,
          "time": 30.75,
          "velocity": 0.7874015748031497
        },
        {
          "duration": 0.08999999999999986,
          "durationTicks": 72,
          "midi": 67,
          "name": "G4",
          "ticks": 24720,
          "time": 30.9,
          "velocity": 0.7874015748031497
        },
        {
          "duration": 0.05000000000000426,
          "durationTicks": 40,
          "midi": 67,
          "name": "G4",
          "ticks": 24840,
          "time": 31.049999999999997,
          "velocity": 0.7874015748031497
        },
        {
          "duration": 0.08999999999999986,
          "durationTicks": 72,
          "midi": 60,
          "name": "C4",
          "ticks": 24960,
          "time": 31.2,
          "velocity": 0.7874015748031497
        },
        {
          "duration": 0.08999999999999986,
          "durationTicks": 72,
          "midi": 60,
          "name": "C4",
          "ticks": 25080,
          "time": 31.349999999999998,
          "velocity": 0.7874015748031497
        },
        {
          "duration": 0.0899999999999963,
          "durationTicks": 72,
          "midi": 67,
          "name": "G4",
          "ticks": 25200,
          "time": 31.5,
          "velocity": 0.7874015748031497
        },
        {
          "duration": 0.08999999999999986,
          "durationTicks": 72,
          "midi": 67,
          "name": "G4",
          "ticks": 25320,
          "time": 31.65,
          "velocity": 0.7874015748031497
        },
        {
          "duration": 0.08999999999999986,
          "durationTicks": 72,
          "midi": 72,
          "name": "C5",
          "ticks": 25440,
          "time": 31.799999999999997,
          "velocity": 0.7874015748031497
        },
        {
          "duration": 0.08999999999999986,
          "durationTicks": 72,
          "midi": 72,
          "name": "C5",
          "ticks": 25560,
          "time": 31.95,
          "velocity": 0.7874015748031497
        },
        {
          "duration": 0.0899999999999963,
          "durationTicks": 72,
          "midi": 67,
          "name": "G4",
          "ticks": 25680,
          "time": 32.1,
          "velocity": 0.7874015748031497
        },
        {
          "duration": 0.0899999999999963,
          "durationTicks": 72,
          "midi": 67,
          "name": "G4",
          "ticks": 25800,
          "time": 32.25,
          "velocity": 0.7874015748031497
        }
      ]
    },
    {
      "channel": 0,
      "controlChanges": {},
      "pitchBends": [],
      "instrument": {
        "family": "piano",
        "number": 0,
        "name": "acoustic grand piano"
      },
      "name": "Ai Ni",
      "notes": [],
      "endOfTrackTicks": 28800
    },
    {
      "channel": 6,
      "controlChanges": {
        "7": [
          {
            "number": 7,
            "ticks": 0,
            "time": 0,
            "value": 0.5511811023622047
          }
        ],
        "10": [
          {
            "number": 10,
            "ticks": 0,
            "time": 0,
            "value": 0.23622047244094488
          }
        ]
      },
      "pitchBends": [],
      "instrument": {
        "family": "guitar",
        "number": 24,
        "name": "acoustic guitar (nylon)"
      },
      "name": "",
      "notes": [
        {
          "duration": 0.07000000000000006,
          "durationTicks": 56,
          "midi": 60,
          "name": "C4",
          "ticks": 960,
          "time": 1.2,
          "velocity": 0.9133858267716536
        },
        {
          "duration": 0.04500000000000015,
          "durationTicks": 36,
          "midi": 65,
          "name": "F4",
          "ticks": 960,
          "time": 1.2,
          "velocity": 0.9291338582677166
        },
        {
          "duration": 0.04000000000000026,
          "durationTicks": 32,
          "midi": 60,
          "name": "C4",
          "ticks": 1080,
          "time": 1.3499999999999999,
          "velocity": 0.47244094488188976
        },
        {
          "duration": 0.06500000000000017,
          "durationTicks": 52,
          "midi": 65,
          "name": "F4",
          "ticks": 1080,
          "time": 1.3499999999999999,
          "velocity": 0.8976377952755905
        },
        {
          "duration": 0.08999999999999986,
          "durationTicks": 72,
          "midi": 60,
          "name": "C4",
          "ticks": 1200,
          "time": 1.5,
          "velocity": 0.7795275590551181
        },
        {
          "duration": 0.07499999999999996,
          "durationTicks": 60,
          "midi": 65,
          "name": "F4",
          "ticks": 1200,
          "time": 1.5,
          "velocity": 0.968503937007874
        },
        {
          "duration": 0.19500000000000028,
          "durationTicks": 156,
          "midi": 60,
          "name": "C4",
          "ticks": 1440,
          "time": 1.7999999999999998,
          "velocity": 0.9291338582677166
        },
        {
          "duration": 0.19000000000000017,
          "durationTicks": 152,
          "midi": 65,
          "name": "F4",
          "ticks": 1440,
          "time": 1.7999999999999998,
          "velocity": 0.984251968503937
        },
        {
          "duration": 0.04999999999999982,
          "durationTicks": 40,
          "midi": 60,
          "name": "C4",
          "ticks": 1680,
          "time": 2.1,
          "velocity": 0.5039370078740157
        },
        {
          "duration": 0.04999999999999982,
          "durationTicks": 40,
          "midi": 65,
          "name": "F4",
          "ticks": 1680,
          "time": 2.1,
          "velocity": 0.7559055118110236
        },
        {
          "duration": 0.06499999999999995,
          "durationTicks": 52,
          "midi": 60,
          "name": "C4",
          "ticks": 1800,
          "time": 2.25,
          "velocity": 0.6614173228346457
        },
        {
          "duration": 0.05500000000000016,
          "durationTicks": 44,
          "midi": 65,
          "name": "F4",
          "ticks": 1800,
          "time": 2.25,
          "velocity": 0.9291338582677166
        },
        {
          "duration": 0.08000000000000007,
          "durationTicks": 64,
          "midi": 60,
          "name": "C4",
          "ticks": 1920,
          "time": 2.4,
          "velocity": 0.6299212598425197
        },
        {
          "duration": 0.04999999999999982,
          "durationTicks": 40,
          "midi": 67,
          "name": "G4",
          "ticks": 1920,
          "time": 2.4,
          "velocity": 0.49606299212598426
        },
        {
          "duration": 0.06999999999999984,
          "durationTicks": 56,
          "midi": 60,
          "name": "C4",
          "ticks": 2040,
          "time": 2.55,
          "velocity": 0.49606299212598426
        },
        {
          "duration": 0.05500000000000016,
          "durationTicks": 44,
          "midi": 67,
          "name": "G4",
          "ticks": 2040,
          "time": 2.55,
          "velocity": 0.7322834645669292
        },
        {
          "duration": 0.14500000000000002,
          "durationTicks": 116,
          "midi": 60,
          "name": "C4",
          "ticks": 2160,
          "time": 2.6999999999999997,
          "velocity": 0.5669291338582677
        },
        {
          "duration": 0.1349999999999998,
          "durationTicks": 108,
          "midi": 67,
          "name": "G4",
          "ticks": 2160,
          "time": 2.6999999999999997,
          "velocity": 0.8031496062992126
        },
        {
          "duration": 0.17999999999999972,
          "durationTicks": 144,
          "midi": 60,
          "name": "C4",
          "ticks": 2400,
          "time": 3,
          "velocity": 0.6692913385826772
        },
        {
          "duration": 0.16999999999999993,
          "durationTicks": 136,
          "midi": 67,
          "name": "G4",
          "ticks": 2400,
          "time": 3,
          "velocity": 0.8976377952755905
        },
        {
          "duration": 0.06999999999999984,
          "durationTicks": 56,
          "midi": 60,
          "name": "C4",
          "ticks": 2640,
          "time": 3.3,
          "velocity": 0.6692913385826772
        },
        {
          "duration": 0.05500000000000016,
          "durationTicks": 44,
          "midi": 67,
          "name": "G4",
          "ticks": 2640,
          "time": 3.3,
          "velocity": 0.8976377952755905
        },
        {
          "duration": 0.0950000000000002,
          "durationTicks": 76,
          "midi": 60,
          "name": "C4",
          "ticks": 2760,
          "time": 3.4499999999999997,
          "velocity": 0.5669291338582677
        },
        {
          "duration": 0.06999999999999984,
          "durationTicks": 56,
          "midi": 67,
          "name": "G4",
          "ticks": 2760,
          "time": 3.4499999999999997,
          "velocity": 0.7795275590551181
        },
        {
          "duration": 0.08000000000000052,
          "durationTicks": 64,
          "midi": 60,
          "name": "C4",
          "ticks": 2880,
          "time": 3.5999999999999996,
          "velocity": 0.6299212598425197
        },
        {
          "duration": 0.04999999999999982,
          "durationTicks": 40,
          "midi": 67,
          "name": "G4",
          "ticks": 2880,
          "time": 3.5999999999999996,
          "velocity": 0.49606299212598426
        },
        {
          "duration": 0.0699999999999994,
          "durationTicks": 56,
          "midi": 60,
          "name": "C4",
          "ticks": 3000,
          "time": 3.75,
          "velocity": 0.49606299212598426
        },
        {
          "duration": 0.054999999999999716,
          "durationTicks": 44,
          "midi": 67,
          "name": "G4",
          "ticks": 3000,
          "time": 3.75,
          "velocity": 0.7322834645669292
        },
        {
          "duration": 0.14500000000000002,
          "durationTicks": 116,
          "midi": 60,
          "name": "C4",
          "ticks": 3120,
          "time": 3.9,
          "velocity": 0.5669291338582677
        },
        {
          "duration": 0.13499999999999934,
          "durationTicks": 108,
          "midi": 67,
          "name": "G4",
          "ticks": 3120,
          "time": 3.9,
          "velocity": 0.8031496062992126
        },
        {
          "duration": 0.17999999999999972,
          "durationTicks": 144,
          "midi": 60,
          "name": "C4",
          "ticks": 3360,
          "time": 4.2,
          "velocity": 0.6692913385826772
        },
        {
          "duration": 0.16999999999999993,
          "durationTicks": 136,
          "midi": 67,
          "name": "G4",
          "ticks": 3360,
          "time": 4.2,
          "velocity": 0.8976377952755905
        },
        {
          "duration": 0.0699999999999994,
          "durationTicks": 56,
          "midi": 60,
          "name": "C4",
          "ticks": 3600,
          "time": 4.5,
          "velocity": 0.6692913385826772
        },
        {
          "duration": 0.054999999999999716,
          "durationTicks": 44,
          "midi": 67,
          "name": "G4",
          "ticks": 3600,
          "time": 4.5,
          "velocity": 0.8976377952755905
        },
        {
          "duration": 0.09500000000000064,
          "durationTicks": 76,
          "midi": 60,
          "name": "C4",
          "ticks": 3720,
          "time": 4.6499999999999995,
          "velocity": 0.5669291338582677
        },
        {
          "duration": 0.07000000000000028,
          "durationTicks": 56,
          "midi": 67,
          "name": "G4",
          "ticks": 3720,
          "time": 4.6499999999999995,
          "velocity": 0.7795275590551181
        },
        {
          "duration": 0.07000000000000028,
          "durationTicks": 56,
          "midi": 65,
          "name": "F4",
          "ticks": 3840,
          "time": 4.8,
          "velocity": 0.49606299212598426
        },
        {
          "duration": 0.054999999999999716,
          "durationTicks": 44,
          "midi": 69,
          "name": "A4",
          "ticks": 3840,
          "time": 4.8,
          "velocity": 0.7322834645669292
        },
        {
          "duration": 0.14499999999999957,
          "durationTicks": 116,
          "midi": 65,
          "name": "F4",
          "ticks": 3960,
          "time": 4.95,
          "velocity": 0.5669291338582677
        },
        {
          "duration": 0.1349999999999998,
          "durationTicks": 108,
          "midi": 69,
          "name": "A4",
          "ticks": 3960,
          "time": 4.95,
          "velocity": 0.8031496062992126
        },
        {
          "duration": 0.1800000000000006,
          "durationTicks": 144,
          "midi": 65,
          "name": "F4",
          "ticks": 4200,
          "time": 5.25,
          "velocity": 0.6692913385826772
        },
        {
          "duration": 0.16999999999999993,
          "durationTicks": 136,
          "midi": 69,
          "name": "A4",
          "ticks": 4200,
          "time": 5.25,
          "velocity": 0.8976377952755905
        },
        {
          "duration": 0.07000000000000028,
          "durationTicks": 56,
          "midi": 65,
          "name": "F4",
          "ticks": 4440,
          "time": 5.55,
          "velocity": 0.6692913385826772
        },
        {
          "duration": 0.054999999999999716,
          "durationTicks": 44,
          "midi": 69,
          "name": "A4",
          "ticks": 4440,
          "time": 5.55,
          "velocity": 0.8976377952755905
        },
        {
          "duration": 0.09499999999999975,
          "durationTicks": 76,
          "midi": 65,
          "name": "F4",
          "ticks": 4560,
          "time": 5.7,
          "velocity": 0.5669291338582677
        },
        {
          "duration": 0.09499999999999975,
          "durationTicks": 76,
          "midi": 69,
          "name": "A4",
          "ticks": 4560,
          "time": 5.7,
          "velocity": 0.5669291338582677
        },
        {
          "duration": 0.08999999999999986,
          "durationTicks": 72,
          "midi": 58,
          "name": "A#3",
          "ticks": 4800,
          "time": 6,
          "velocity": 0.952755905511811
        },
        {
          "duration": 0.08499999999999996,
          "durationTicks": 68,
          "midi": 65,
          "name": "F4",
          "ticks": 4800,
          "time": 6,
          "velocity": 0.9133858267716536
        },
        {
          "duration": 0.0600000000000005,
          "durationTicks": 48,
          "midi": 58,
          "name": "A#3",
          "ticks": 4920,
          "time": 6.1499999999999995,
          "velocity": 0.968503937007874
        },
        {
          "duration": 0.0649999999999995,
          "durationTicks": 52,
          "midi": 65,
          "name": "F4",
          "ticks": 4920,
          "time": 6.1499999999999995,
          "velocity": 0.968503937007874
        },
        {
          "duration": 0.054999999999999716,
          "durationTicks": 44,
          "midi": 58,
          "name": "A#3",
          "ticks": 5040,
          "time": 6.3,
          "velocity": 0.6614173228346457
        },
        {
          "duration": 0.05999999999999961,
          "durationTicks": 48,
          "midi": 65,
          "name": "F4",
          "ticks": 5040,
          "time": 6.3,
          "velocity": 0.7874015748031497
        },
        {
          "duration": 0.07500000000000018,
          "durationTicks": 60,
          "midi": 58,
          "name": "A#3",
          "ticks": 5280,
          "time": 6.6,
          "velocity": 0.984251968503937
        },
        {
          "duration": 0.07000000000000028,
          "durationTicks": 56,
          "midi": 65,
          "name": "F4",
          "ticks": 5280,
          "time": 6.6,
          "velocity": 0.984251968503937
        },
        {
          "duration": 0.05000000000000071,
          "durationTicks": 40,
          "midi": 58,
          "name": "A#3",
          "ticks": 5520,
          "time": 6.8999999999999995,
          "velocity": 0.7480314960629921
        },
        {
          "duration": 0.055000000000000604,
          "durationTicks": 44,
          "midi": 65,
          "name": "F4",
          "ticks": 5520,
          "time": 6.8999999999999995,
          "velocity": 0.8582677165354331
        },
        {
          "duration": 0.0649999999999995,
          "durationTicks": 52,
          "midi": 58,
          "name": "A#3",
          "ticks": 5640,
          "time": 7.05,
          "velocity": 0.8031496062992126
        },
        {
          "duration": 0.05999999999999961,
          "durationTicks": 48,
          "midi": 65,
          "name": "F4",
          "ticks": 5640,
          "time": 7.05,
          "velocity": 0.7322834645669292
        },
        {
          "duration": 0.09000000000000075,
          "durationTicks": 72,
          "midi": 60,
          "name": "C4",
          "ticks": 5760,
          "time": 7.199999999999999,
          "velocity": 0.952755905511811
        },
        {
          "duration": 0.08500000000000085,
          "durationTicks": 68,
          "midi": 67,
          "name": "G4",
          "ticks": 5760,
          "time": 7.199999999999999,
          "velocity": 0.9133858267716536
        },
        {
          "duration": 0.05999999999999961,
          "durationTicks": 48,
          "midi": 60,
          "name": "C4",
          "ticks": 5880,
          "time": 7.35,
          "velocity": 0.968503937007874
        },
        {
          "duration": 0.0649999999999995,
          "durationTicks": 52,
          "midi": 67,
          "name": "G4",
          "ticks": 5880,
          "time": 7.35,
          "velocity": 0.968503937007874
        },
        {
          "duration": 0.054999999999999716,
          "durationTicks": 44,
          "midi": 60,
          "name": "C4",
          "ticks": 6000,
          "time": 7.5,
          "velocity": 0.6614173228346457
        },
        {
          "duration": 0.05999999999999961,
          "durationTicks": 48,
          "midi": 67,
          "name": "G4",
          "ticks": 6000,
          "time": 7.5,
          "velocity": 0.7874015748031497
        },
        {
          "duration": 0.07500000000000018,
          "durationTicks": 60,
          "midi": 60,
          "name": "C4",
          "ticks": 6240,
          "time": 7.8,
          "velocity": 0.984251968503937
        },
        {
          "duration": 0.07000000000000028,
          "durationTicks": 56,
          "midi": 67,
          "name": "G4",
          "ticks": 6240,
          "time": 7.8,
          "velocity": 0.984251968503937
        },
        {
          "duration": 0.05000000000000071,
          "durationTicks": 40,
          "midi": 60,
          "name": "C4",
          "ticks": 6480,
          "time": 8.1,
          "velocity": 0.7480314960629921
        },
        {
          "duration": 0.054999999999999716,
          "durationTicks": 44,
          "midi": 67,
          "name": "G4",
          "ticks": 6480,
          "time": 8.1,
          "velocity": 0.8582677165354331
        },
        {
          "duration": 0.0649999999999995,
          "durationTicks": 52,
          "midi": 60,
          "name": "C4",
          "ticks": 6600,
          "time": 8.25,
          "velocity": 0.8031496062992126
        },
        {
          "duration": 0.05999999999999872,
          "durationTicks": 48,
          "midi": 67,
          "name": "G4",
          "ticks": 6600,
          "time": 8.25,
          "velocity": 0.7322834645669292
        },
        {
          "duration": 0.08999999999999986,
          "durationTicks": 72,
          "midi": 60,
          "name": "C4",
          "ticks": 6720,
          "time": 8.4,
          "velocity": 0.952755905511811
        },
        {
          "duration": 0.08499999999999908,
          "durationTicks": 68,
          "midi": 67,
          "name": "G4",
          "ticks": 6720,
          "time": 8.4,
          "velocity": 0.9133858267716536
        },
        {
          "duration": 0.0600000000000005,
          "durationTicks": 48,
          "midi": 60,
          "name": "C4",
          "ticks": 6840,
          "time": 8.549999999999999,
          "velocity": 0.968503937007874
        },
        {
          "duration": 0.0649999999999995,
          "durationTicks": 52,
          "midi": 67,
          "name": "G4",
          "ticks": 6840,
          "time": 8.549999999999999,
          "velocity": 0.968503937007874
        },
        {
          "duration": 0.054999999999999716,
          "durationTicks": 44,
          "midi": 60,
          "name": "C4",
          "ticks": 6960,
          "time": 8.7,
          "velocity": 0.6614173228346457
        },
        {
          "duration": 0.0600000000000005,
          "durationTicks": 48,
          "midi": 67,
          "name": "G4",
          "ticks": 6960,
          "time": 8.7,
          "velocity": 0.7874015748031497
        },
        {
          "duration": 0.07499999999999929,
          "durationTicks": 60,
          "midi": 60,
          "name": "C4",
          "ticks": 7200,
          "time": 9,
          "velocity": 0.984251968503937
        },
        {
          "duration": 0.07000000000000028,
          "durationTicks": 56,
          "midi": 67,
          "name": "G4",
          "ticks": 7200,
          "time": 9,
          "velocity": 0.984251968503937
        },
        {
          "duration": 0.05000000000000071,
          "durationTicks": 40,
          "midi": 60,
          "name": "C4",
          "ticks": 7440,
          "time": 9.299999999999999,
          "velocity": 0.7480314960629921
        },
        {
          "duration": 0.05500000000000149,
          "durationTicks": 44,
          "midi": 67,
          "name": "G4",
          "ticks": 7440,
          "time": 9.299999999999999,
          "velocity": 0.8582677165354331
        },
        {
          "duration": 0.0649999999999995,
          "durationTicks": 52,
          "midi": 60,
          "name": "C4",
          "ticks": 7560,
          "time": 9.45,
          "velocity": 0.8031496062992126
        },
        {
          "duration": 0.0600000000000005,
          "durationTicks": 48,
          "midi": 67,
          "name": "G4",
          "ticks": 7560,
          "time": 9.45,
          "velocity": 0.7322834645669292
        },
        {
          "duration": 0.08999999999999986,
          "durationTicks": 72,
          "midi": 60,
          "name": "C4",
          "ticks": 7680,
          "time": 9.6,
          "velocity": 0.952755905511811
        },
        {
          "duration": 0.08499999999999908,
          "durationTicks": 68,
          "midi": 67,
          "name": "G4",
          "ticks": 7680,
          "time": 9.6,
          "velocity": 0.9133858267716536
        },
        {
          "duration": 0.0600000000000005,
          "durationTicks": 48,
          "midi": 60,
          "name": "C4",
          "ticks": 7800,
          "time": 9.75,
          "velocity": 0.968503937007874
        },
        {
          "duration": 0.0649999999999995,
          "durationTicks": 52,
          "midi": 67,
          "name": "G4",
          "ticks": 7800,
          "time": 9.75,
          "velocity": 0.968503937007874
        },
        {
          "duration": 0.05499999999999794,
          "durationTicks": 44,
          "midi": 60,
          "name": "C4",
          "ticks": 7920,
          "time": 9.9,
          "velocity": 0.6614173228346457
        },
        {
          "duration": 0.0600000000000005,
          "durationTicks": 48,
          "midi": 67,
          "name": "G4",
          "ticks": 7920,
          "time": 9.9,
          "velocity": 0.7874015748031497
        },
        {
          "duration": 0.07500000000000107,
          "durationTicks": 60,
          "midi": 60,
          "name": "C4",
          "ticks": 8160,
          "time": 10.2,
          "velocity": 0.984251968503937
        },
        {
          "duration": 0.07000000000000028,
          "durationTicks": 56,
          "midi": 67,
          "name": "G4",
          "ticks": 8160,
          "time": 10.2,
          "velocity": 0.984251968503937
        },
        {
          "duration": 0.049999999999998934,
          "durationTicks": 40,
          "midi": 60,
          "name": "C4",
          "ticks": 8400,
          "time": 10.5,
          "velocity": 0.7480314960629921
        },
        {
          "duration": 0.05499999999999794,
          "durationTicks": 44,
          "midi": 67,
          "name": "G4",
          "ticks": 8400,
          "time": 10.5,
          "velocity": 0.8582677165354331
        },
        {
          "duration": 0.0649999999999995,
          "durationTicks": 52,
          "midi": 60,
          "name": "C4",
          "ticks": 8520,
          "time": 10.65,
          "velocity": 0.8031496062992126
        },
        {
          "duration": 0.0600000000000005,
          "durationTicks": 48,
          "midi": 67,
          "name": "G4",
          "ticks": 8520,
          "time": 10.65,
          "velocity": 0.7322834645669292
        },
        {
          "duration": 0.07000000000000028,
          "durationTicks": 56,
          "midi": 60,
          "name": "C4",
          "ticks": 8640,
          "time": 10.799999999999999,
          "velocity": 0.9133858267716536
        },
        {
          "duration": 0.04499999999999993,
          "durationTicks": 36,
          "midi": 65,
          "name": "F4",
          "ticks": 8640,
          "time": 10.799999999999999,
          "velocity": 0.9291338582677166
        },
        {
          "duration": 0.040000000000000924,
          "durationTicks": 32,
          "midi": 60,
          "name": "C4",
          "ticks": 8760,
          "time": 10.95,
          "velocity": 0.47244094488188976
        },
        {
          "duration": 0.06500000000000128,
          "durationTicks": 52,
          "midi": 65,
          "name": "F4",
          "ticks": 8760,
          "time": 10.95,
          "velocity": 0.8976377952755905
        },
        {
          "duration": 0.08999999999999986,
          "durationTicks": 72,
          "midi": 60,
          "name": "C4",
          "ticks": 8880,
          "time": 11.1,
          "velocity": 0.7795275590551181
        },
        {
          "duration": 0.07499999999999929,
          "durationTicks": 60,
          "midi": 65,
          "name": "F4",
          "ticks": 8880,
          "time": 11.1,
          "velocity": 0.968503937007874
        },
        {
          "duration": 0.1949999999999985,
          "durationTicks": 156,
          "midi": 60,
          "name": "C4",
          "ticks": 9120,
          "time": 11.4,
          "velocity": 0.9291338582677166
        },
        {
          "duration": 0.1899999999999995,
          "durationTicks": 152,
          "midi": 65,
          "name": "F4",
          "ticks": 9120,
          "time": 11.4,
          "velocity": 0.984251968503937
        },
        {
          "duration": 0.049999999999998934,
          "durationTicks": 40,
          "midi": 60,
          "name": "C4",
          "ticks": 9360,
          "time": 11.7,
          "velocity": 0.5039370078740157
        },
        {
          "duration": 0.049999999999998934,
          "durationTicks": 40,
          "midi": 65,
          "name": "F4",
          "ticks": 9360,
          "time": 11.7,
          "velocity": 0.7559055118110236
        },
        {
          "duration": 0.06500000000000128,
          "durationTicks": 52,
          "midi": 60,
          "name": "C4",
          "ticks": 9480,
          "time": 11.85,
          "velocity": 0.6614173228346457
        },
        {
          "duration": 0.054999999999999716,
          "durationTicks": 44,
          "midi": 65,
          "name": "F4",
          "ticks": 9480,
          "time": 11.85,
          "velocity": 0.9291338582677166
        },
        {
          "duration": 0.08000000000000007,
          "durationTicks": 64,
          "midi": 60,
          "name": "C4",
          "ticks": 9600,
          "time": 12,
          "velocity": 0.6299212598425197
        },
        {
          "duration": 0.049999999999998934,
          "durationTicks": 40,
          "midi": 67,
          "name": "G4",
          "ticks": 9600,
          "time": 12,
          "velocity": 0.49606299212598426
        },
        {
          "duration": 0.07000000000000028,
          "durationTicks": 56,
          "midi": 60,
          "name": "C4",
          "ticks": 9720,
          "time": 12.15,
          "velocity": 0.49606299212598426
        },
        {
          "duration": 0.05499999999999794,
          "durationTicks": 44,
          "midi": 67,
          "name": "G4",
          "ticks": 9720,
          "time": 12.15,
          "velocity": 0.7322834645669292
        },
        {
          "duration": 0.14500000000000135,
          "durationTicks": 116,
          "midi": 60,
          "name": "C4",
          "ticks": 9840,
          "time": 12.299999999999999,
          "velocity": 0.5669291338582677
        },
        {
          "duration": 0.13500000000000156,
          "durationTicks": 108,
          "midi": 67,
          "name": "G4",
          "ticks": 9840,
          "time": 12.299999999999999,
          "velocity": 0.8031496062992126
        },
        {
          "duration": 0.17999999999999972,
          "durationTicks": 144,
          "midi": 60,
          "name": "C4",
          "ticks": 10080,
          "time": 12.6,
          "velocity": 0.6692913385826772
        },
        {
          "duration": 0.1700000000000017,
          "durationTicks": 136,
          "midi": 67,
          "name": "G4",
          "ticks": 10080,
          "time": 12.6,
          "velocity": 0.8976377952755905
        },
        {
          "duration": 0.07000000000000028,
          "durationTicks": 56,
          "midi": 60,
          "name": "C4",
          "ticks": 10320,
          "time": 12.9,
          "velocity": 0.6692913385826772
        },
        {
          "duration": 0.05499999999999794,
          "durationTicks": 44,
          "midi": 67,
          "name": "G4",
          "ticks": 10320,
          "time": 12.9,
          "velocity": 0.8976377952755905
        },
        {
          "duration": 0.09500000000000242,
          "durationTicks": 76,
          "midi": 60,
          "name": "C4",
          "ticks": 10440,
          "time": 13.049999999999999,
          "velocity": 0.5669291338582677
        },
        {
          "duration": 0.07000000000000028,
          "durationTicks": 56,
          "midi": 67,
          "name": "G4",
          "ticks": 10440,
          "time": 13.049999999999999,
          "velocity": 0.7795275590551181
        },
        {
          "duration": 0.08000000000000007,
          "durationTicks": 64,
          "midi": 60,
          "name": "C4",
          "ticks": 10560,
          "time": 13.2,
          "velocity": 0.6299212598425197
        },
        {
          "duration": 0.049999999999998934,
          "durationTicks": 40,
          "midi": 67,
          "name": "G4",
          "ticks": 10560,
          "time": 13.2,
          "velocity": 0.49606299212598426
        },
        {
          "duration": 0.07000000000000028,
          "durationTicks": 56,
          "midi": 60,
          "name": "C4",
          "ticks": 10680,
          "time": 13.35,
          "velocity": 0.49606299212598426
        },
        {
          "duration": 0.054999999999999716,
          "durationTicks": 44,
          "midi": 67,
          "name": "G4",
          "ticks": 10680,
          "time": 13.35,
          "velocity": 0.7322834645669292
        },
        {
          "duration": 0.14499999999999957,
          "durationTicks": 116,
          "midi": 60,
          "name": "C4",
          "ticks": 10800,
          "time": 13.5,
          "velocity": 0.5669291338582677
        },
        {
          "duration": 0.1349999999999998,
          "durationTicks": 108,
          "midi": 67,
          "name": "G4",
          "ticks": 10800,
          "time": 13.5,
          "velocity": 0.8031496062992126
        },
        {
          "duration": 0.1800000000000015,
          "durationTicks": 144,
          "midi": 60,
          "name": "C4",
          "ticks": 11040,
          "time": 13.799999999999999,
          "velocity": 0.6692913385826772
        },
        {
          "duration": 0.1700000000000017,
          "durationTicks": 136,
          "midi": 67,
          "name": "G4",
          "ticks": 11040,
          "time": 13.799999999999999,
          "velocity": 0.8976377952755905
        },
        {
          "duration": 0.07000000000000028,
          "durationTicks": 56,
          "midi": 60,
          "name": "C4",
          "ticks": 11280,
          "time": 14.1,
          "velocity": 0.6692913385826772
        },
        {
          "duration": 0.054999999999999716,
          "durationTicks": 44,
          "midi": 67,
          "name": "G4",
          "ticks": 11280,
          "time": 14.1,
          "velocity": 0.8976377952755905
        },
        {
          "duration": 0.09500000000000064,
          "durationTicks": 76,
          "midi": 60,
          "name": "C4",
          "ticks": 11400,
          "time": 14.25,
          "velocity": 0.5669291338582677
        },
        {
          "duration": 0.07000000000000028,
          "durationTicks": 56,
          "midi": 67,
          "name": "G4",
          "ticks": 11400,
          "time": 14.25,
          "velocity": 0.7795275590551181
        },
        {
          "duration": 0.07000000000000028,
          "durationTicks": 56,
          "midi": 65,
          "name": "F4",
          "ticks": 11520,
          "time": 14.399999999999999,
          "velocity": 0.49606299212598426
        },
        {
          "duration": 0.054999999999999716,
          "durationTicks": 44,
          "midi": 69,
          "name": "A4",
          "ticks": 11520,
          "time": 14.399999999999999,
          "velocity": 0.7322834645669292
        },
        {
          "duration": 0.14500000000000135,
          "durationTicks": 116,
          "midi": 65,
          "name": "F4",
          "ticks": 11640,
          "time": 14.549999999999999,
          "velocity": 0.5669291338582677
        },
        {
          "duration": 0.13500000000000156,
          "durationTicks": 108,
          "midi": 69,
          "name": "A4",
          "ticks": 11640,
          "time": 14.549999999999999,
          "velocity": 0.8031496062992126
        },
        {
          "duration": 0.17999999999999972,
          "durationTicks": 144,
          "midi": 65,
          "name": "F4",
          "ticks": 11880,
          "time": 14.85,
          "velocity": 0.6692913385826772
        },
        {
          "duration": 0.16999999999999993,
          "durationTicks": 136,
          "midi": 69,
          "name": "A4",
          "ticks": 11880,
          "time": 14.85,
          "velocity": 0.8976377952755905
        },
        {
          "duration": 0.07000000000000028,
          "durationTicks": 56,
          "midi": 65,
          "name": "F4",
          "ticks": 12120,
          "time": 15.149999999999999,
          "velocity": 0.6692913385826772
        },
        {
          "duration": 0.054999999999999716,
          "durationTicks": 44,
          "midi": 69,
          "name": "A4",
          "ticks": 12120,
          "time": 15.149999999999999,
          "velocity": 0.8976377952755905
        },
        {
          "duration": 0.09500000000000064,
          "durationTicks": 76,
          "midi": 65,
          "name": "F4",
          "ticks": 12240,
          "time": 15.299999999999999,
          "velocity": 0.5669291338582677
        },
        {
          "duration": 0.09500000000000064,
          "durationTicks": 76,
          "midi": 69,
          "name": "A4",
          "ticks": 12240,
          "time": 15.299999999999999,
          "velocity": 0.5669291338582677
        },
        {
          "duration": 0.08999999999999808,
          "durationTicks": 72,
          "midi": 58,
          "name": "A#3",
          "ticks": 12480,
          "time": 15.6,
          "velocity": 0.952755905511811
        },
        {
          "duration": 0.08499999999999908,
          "durationTicks": 68,
          "midi": 65,
          "name": "F4",
          "ticks": 12480,
          "time": 15.6,
          "velocity": 0.9133858267716536
        },
        {
          "duration": 0.0600000000000005,
          "durationTicks": 48,
          "midi": 58,
          "name": "A#3",
          "ticks": 12600,
          "time": 15.75,
          "velocity": 0.968503937007874
        },
        {
          "duration": 0.0649999999999995,
          "durationTicks": 52,
          "midi": 65,
          "name": "F4",
          "ticks": 12600,
          "time": 15.75,
          "velocity": 0.968503937007874
        },
        {
          "duration": 0.054999999999999716,
          "durationTicks": 44,
          "midi": 58,
          "name": "A#3",
          "ticks": 12720,
          "time": 15.899999999999999,
          "velocity": 0.6614173228346457
        },
        {
          "duration": 0.060000000000002274,
          "durationTicks": 48,
          "midi": 65,
          "name": "F4",
          "ticks": 12720,
          "time": 15.899999999999999,
          "velocity": 0.7874015748031497
        },
        {
          "duration": 0.07499999999999929,
          "durationTicks": 60,
          "midi": 58,
          "name": "A#3",
          "ticks": 12960,
          "time": 16.2,
          "velocity": 0.984251968503937
        },
        {
          "duration": 0.07000000000000028,
          "durationTicks": 56,
          "midi": 65,
          "name": "F4",
          "ticks": 12960,
          "time": 16.2,
          "velocity": 0.984251968503937
        },
        {
          "duration": 0.04999999999999716,
          "durationTicks": 40,
          "midi": 58,
          "name": "A#3",
          "ticks": 13200,
          "time": 16.5,
          "velocity": 0.7480314960629921
        },
        {
          "duration": 0.054999999999999716,
          "durationTicks": 44,
          "midi": 65,
          "name": "F4",
          "ticks": 13200,
          "time": 16.5,
          "velocity": 0.8582677165354331
        },
        {
          "duration": 0.06500000000000128,
          "durationTicks": 52,
          "midi": 58,
          "name": "A#3",
          "ticks": 13320,
          "time": 16.65,
          "velocity": 0.8031496062992126
        },
        {
          "duration": 0.060000000000002274,
          "durationTicks": 48,
          "midi": 65,
          "name": "F4",
          "ticks": 13320,
          "time": 16.65,
          "velocity": 0.7322834645669292
        },
        {
          "duration": 0.0899999999999963,
          "durationTicks": 72,
          "midi": 60,
          "name": "C4",
          "ticks": 13440,
          "time": 16.8,
          "velocity": 0.952755905511811
        },
        {
          "duration": 0.0849999999999973,
          "durationTicks": 68,
          "midi": 67,
          "name": "G4",
          "ticks": 13440,
          "time": 16.8,
          "velocity": 0.9133858267716536
        },
        {
          "duration": 0.060000000000002274,
          "durationTicks": 48,
          "midi": 60,
          "name": "C4",
          "ticks": 13560,
          "time": 16.95,
          "velocity": 0.968503937007874
        },
        {
          "duration": 0.06500000000000128,
          "durationTicks": 52,
          "midi": 67,
          "name": "G4",
          "ticks": 13560,
          "time": 16.95,
          "velocity": 0.968503937007874
        },
        {
          "duration": 0.054999999999999716,
          "durationTicks": 44,
          "midi": 60,
          "name": "C4",
          "ticks": 13680,
          "time": 17.099999999999998,
          "velocity": 0.6614173228346457
        },
        {
          "duration": 0.060000000000002274,
          "durationTicks": 48,
          "midi": 67,
          "name": "G4",
          "ticks": 13680,
          "time": 17.099999999999998,
          "velocity": 0.7874015748031497
        },
        {
          "duration": 0.07499999999999929,
          "durationTicks": 60,
          "midi": 60,
          "name": "C4",
          "ticks": 13920,
          "time": 17.4,
          "velocity": 0.984251968503937
        },
        {
          "duration": 0.07000000000000028,
          "durationTicks": 56,
          "midi": 67,
          "name": "G4",
          "ticks": 13920,
          "time": 17.4,
          "velocity": 0.984251968503937
        },
        {
          "duration": 0.05000000000000071,
          "durationTicks": 40,
          "midi": 60,
          "name": "C4",
          "ticks": 14160,
          "time": 17.7,
          "velocity": 0.7480314960629921
        },
        {
          "duration": 0.054999999999999716,
          "durationTicks": 44,
          "midi": 67,
          "name": "G4",
          "ticks": 14160,
          "time": 17.7,
          "velocity": 0.8582677165354331
        },
        {
          "duration": 0.06500000000000128,
          "durationTicks": 52,
          "midi": 60,
          "name": "C4",
          "ticks": 14280,
          "time": 17.849999999999998,
          "velocity": 0.8031496062992126
        },
        {
          "duration": 0.060000000000002274,
          "durationTicks": 48,
          "midi": 67,
          "name": "G4",
          "ticks": 14280,
          "time": 17.849999999999998,
          "velocity": 0.7322834645669292
        },
        {
          "duration": 0.08999999999999986,
          "durationTicks": 72,
          "midi": 60,
          "name": "C4",
          "ticks": 14400,
          "time": 18,
          "velocity": 0.952755905511811
        },
        {
          "duration": 0.0849999999999973,
          "durationTicks": 68,
          "midi": 67,
          "name": "G4",
          "ticks": 14400,
          "time": 18,
          "velocity": 0.9133858267716536
        },
        {
          "duration": 0.060000000000002274,
          "durationTicks": 48,
          "midi": 60,
          "name": "C4",
          "ticks": 14520,
          "time": 18.15,
          "velocity": 0.968503937007874
        },
        {
          "duration": 0.06500000000000128,
          "durationTicks": 52,
          "midi": 67,
          "name": "G4",
          "ticks": 14520,
          "time": 18.15,
          "velocity": 0.968503937007874
        },
        {
          "duration": 0.05499999999999616,
          "durationTicks": 44,
          "midi": 60,
          "name": "C4",
          "ticks": 14640,
          "time": 18.3,
          "velocity": 0.6614173228346457
        },
        {
          "duration": 0.05999999999999872,
          "durationTicks": 48,
          "midi": 67,
          "name": "G4",
          "ticks": 14640,
          "time": 18.3,
          "velocity": 0.7874015748031497
        },
        {
          "duration": 0.07500000000000284,
          "durationTicks": 60,
          "midi": 60,
          "name": "C4",
          "ticks": 14880,
          "time": 18.599999999999998,
          "velocity": 0.984251968503937
        },
        {
          "duration": 0.07000000000000028,
          "durationTicks": 56,
          "midi": 67,
          "name": "G4",
          "ticks": 14880,
          "time": 18.599999999999998,
          "velocity": 0.984251968503937
        },
        {
          "duration": 0.05000000000000071,
          "durationTicks": 40,
          "midi": 60,
          "name": "C4",
          "ticks": 15120,
          "time": 18.9,
          "velocity": 0.7480314960629921
        },
        {
          "duration": 0.054999999999999716,
          "durationTicks": 44,
          "midi": 67,
          "name": "G4",
          "ticks": 15120,
          "time": 18.9,
          "velocity": 0.8582677165354331
        },
        {
          "duration": 0.06499999999999773,
          "durationTicks": 52,
          "midi": 60,
          "name": "C4",
          "ticks": 15240,
          "time": 19.05,
          "velocity": 0.8031496062992126
        },
        {
          "duration": 0.05999999999999872,
          "durationTicks": 48,
          "midi": 67,
          "name": "G4",
          "ticks": 15240,
          "time": 19.05,
          "velocity": 0.7322834645669292
        },
        {
          "duration": 0.08999999999999986,
          "durationTicks": 72,
          "midi": 60,
          "name": "C4",
          "ticks": 15360,
          "time": 19.2,
          "velocity": 0.952755905511811
        },
        {
          "duration": 0.08500000000000085,
          "durationTicks": 68,
          "midi": 67,
          "name": "G4",
          "ticks": 15360,
          "time": 19.2,
          "velocity": 0.9133858267716536
        },
        {
          "duration": 0.060000000000002274,
          "durationTicks": 48,
          "midi": 60,
          "name": "C4",
          "ticks": 15480,
          "time": 19.349999999999998,
          "velocity": 0.968503937007874
        },
        {
          "duration": 0.06500000000000128,
          "durationTicks": 52,
          "midi": 67,
          "name": "G4",
          "ticks": 15480,
          "time": 19.349999999999998,
          "velocity": 0.968503937007874
        },
        {
          "duration": 0.054999999999999716,
          "durationTicks": 44,
          "midi": 60,
          "name": "C4",
          "ticks": 15600,
          "time": 19.5,
          "velocity": 0.6614173228346457
        },
        {
          "duration": 0.05999999999999872,
          "durationTicks": 48,
          "midi": 67,
          "name": "G4",
          "ticks": 15600,
          "time": 19.5,
          "velocity": 0.7874015748031497
        },
        {
          "duration": 0.07499999999999929,
          "durationTicks": 60,
          "midi": 60,
          "name": "C4",
          "ticks": 15840,
          "time": 19.8,
          "velocity": 0.984251968503937
        },
        {
          "duration": 0.07000000000000028,
          "durationTicks": 56,
          "midi": 67,
          "name": "G4",
          "ticks": 15840,
          "time": 19.8,
          "velocity": 0.984251968503937
        },
        {
          "duration": 0.05000000000000426,
          "durationTicks": 40,
          "midi": 60,
          "name": "C4",
          "ticks": 16080,
          "time": 20.099999999999998,
          "velocity": 0.7480314960629921
        },
        {
          "duration": 0.05500000000000327,
          "durationTicks": 44,
          "midi": 67,
          "name": "G4",
          "ticks": 16080,
          "time": 20.099999999999998,
          "velocity": 0.8582677165354331
        },
        {
          "duration": 0.06500000000000128,
          "durationTicks": 52,
          "midi": 60,
          "name": "C4",
          "ticks": 16200,
          "time": 20.25,
          "velocity": 0.8031496062992126
        },
        {
          "duration": 0.05999999999999872,
          "durationTicks": 48,
          "midi": 67,
          "name": "G4",
          "ticks": 16200,
          "time": 20.25,
          "velocity": 0.7322834645669292
        }
      ]
    },
    {
      "channel": 0,
      "controlChanges": {},
      "pitchBends": [],
      "instrument": {
        "family": "piano",
        "number": 0,
        "name": "acoustic grand piano"
      },
      "name": "Ai Ni",
      "notes": [],
      "endOfTrackTicks": 28800
    },
    {
      "channel": 8,
      "controlChanges": {
        "7": [
          {
            "number": 7,
            "ticks": 0,
            "time": 0,
            "value": 0.7874015748031497
          }
        ],
        "10": [
          {
            "number": 10,
            "ticks": 0,
            "time": 0,
            "value": 0.5511811023622047
          }
        ]
      },
      "pitchBends": [],
      "instrument": {
        "family": "ensemble",
        "number": 49,
        "name": "string ensemble 2"
      },
      "name": "",
      "notes": [
        {
          "duration": 1.1999999999999993,
          "durationTicks": 960,
          "midi": 77,
          "name": "F5",
          "ticks": 16320,
          "time": 20.4,
          "velocity": 0.7874015748031497
        },
        {
          "duration": 1.1999999999999993,
          "durationTicks": 960,
          "midi": 82,
          "name": "A#5",
          "ticks": 16320,
          "time": 20.4,
          "velocity": 0.7874015748031497
        },
        {
          "duration": 1.2000000000000028,
          "durationTicks": 960,
          "midi": 81,
          "name": "A5",
          "ticks": 17280,
          "time": 21.599999999999998,
          "velocity": 0.7874015748031497
        },
        {
          "duration": 1.2000000000000028,
          "durationTicks": 960,
          "midi": 84,
          "name": "C6",
          "ticks": 17280,
          "time": 21.599999999999998,
          "velocity": 0.7874015748031497
        },
        {
          "duration": 1.1999999999999993,
          "durationTicks": 960,
          "midi": 77,
          "name": "F5",
          "ticks": 18240,
          "time": 22.8,
          "velocity": 0.7874015748031497
        },
        {
          "duration": 1.1999999999999993,
          "durationTicks": 960,
          "midi": 82,
          "name": "A#5",
          "ticks": 18240,
          "time": 22.8,
          "velocity": 0.7874015748031497
        },
        {
          "duration": 1.1999999999999993,
          "durationTicks": 960,
          "midi": 81,
          "name": "A5",
          "ticks": 19200,
          "time": 24,
          "velocity": 0.7874015748031497
        },
        {
          "duration": 1.1999999999999993,
          "durationTicks": 960,
          "midi": 84,
          "name": "C6",
          "ticks": 19200,
          "time": 24,
          "velocity": 0.7874015748031497
        },
        {
          "duration": 1.1999999999999993,
          "durationTicks": 960,
          "midi": 77,
          "name": "F5",
          "ticks": 20160,
          "time": 25.2,
          "velocity": 0.7874015748031497
        },
        {
          "duration": 1.1999999999999993,
          "durationTicks": 960,
          "midi": 82,
          "name": "A#5",
          "ticks": 20160,
          "time": 25.2,
          "velocity": 0.7874015748031497
        },
        {
          "duration": 1.1850000000000023,
          "durationTicks": 948,
          "midi": 81,
          "name": "A5",
          "ticks": 21120,
          "time": 26.4,
          "velocity": 0.7874015748031497
        },
        {
          "duration": 1.1850000000000023,
          "durationTicks": 948,
          "midi": 84,
          "name": "C6",
          "ticks": 21120,
          "time": 26.4,
          "velocity": 0.7874015748031497
        },
        {
          "duration": 2.400000000000002,
          "durationTicks": 1920,
          "midi": 79,
          "name": "G5",
          "ticks": 22080,
          "time": 27.599999999999998,
          "velocity": 0.7874015748031497
        },
        {
          "duration": 2.400000000000002,
          "durationTicks": 1920,
          "midi": 82,
          "name": "A#5",
          "ticks": 22080,
          "time": 27.599999999999998,
          "velocity": 0.7874015748031497
        },
        {
          "duration": 3.6499999999999986,
          "durationTicks": 2920,
          "midi": 79,
          "name": "G5",
          "ticks": 24000,
          "time": 30,
          "velocity": 0.7874015748031497
        },
        {
          "duration": 3.549999999999997,
          "durationTicks": 2840,
          "midi": 84,
          "name": "C6",
          "ticks": 24000,
          "time": 30,
          "velocity": 0.7874015748031497
        }
      ]
    },
    {
      "channel": 9,
      "controlChanges": {
        "7": [
          {
            "number": 7,
            "ticks": 0,
            "time": 0,
            "value": 0.9448818897637795
          }
        ],
        "10": [
          {
            "number": 10,
            "ticks": 0,
            "time": 0,
            "value": 0.49606299212598426
          }
        ]
      },
      "pitchBends": [],
      "instrument": {
        "family": "drums",
        "number": 0,
        "name": "standard kit"
      },
      "name": "Ai Ni",
      "notes": [
        {
          "duration": 0.1,
          "durationTicks": 80,
          "midi": 40,
          "name": "E2",
          "ticks": 40,
          "time": 0.049999999999999996,
          "velocity": 0.7874015748031497
        },
        {
          "duration": 0.09999999999999992,
          "durationTicks": 80,
          "midi": 36,
          "name": "C2",
          "ticks": 280,
          "time": 0.35000000000000003,
          "velocity": 0.7874015748031497
        },
        {
          "duration": 0.09999999999999998,
          "durationTicks": 80,
          "midi": 36,
          "name": "C2",
          "ticks": 400,
          "time": 0.5,
          "velocity": 0.7874015748031497
        },
        {
          "duration": 0.10000000000000009,
          "durationTicks": 80,
          "midi": 40,
          "name": "E2",
          "ticks": 520,
          "time": 0.6499999999999999,
          "velocity": 0.7874015748031497
        },
        {
          "duration": 0.09999999999999998,
          "durationTicks": 80,
          "midi": 36,
          "name": "C2",
          "ticks": 640,
          "time": 0.7999999999999999,
          "velocity": 0.7874015748031497
        },
        {
          "duration": 0.30000000000000004,
          "durationTicks": 240,
          "midi": 36,
          "name": "C2",
          "ticks": 760,
          "time": 0.95,
          "velocity": 0.952755905511811
        },
        {
          "duration": 0.1499999999999999,
          "durationTicks": 120,
          "midi": 42,
          "name": "F#2",
          "ticks": 760,
          "time": 0.95,
          "velocity": 0.952755905511811
        },
        {
          "duration": 0.10000000000000009,
          "durationTicks": 80,
          "midi": 49,
          "name": "C#3",
          "ticks": 760,
          "time": 0.95,
          "velocity": 0.7874015748031497
        },
        {
          "duration": 0.15000000000000013,
          "durationTicks": 120,
          "midi": 42,
          "name": "F#2",
          "ticks": 1000,
          "time": 1.25,
          "velocity": 0.7559055118110236
        },
        {
          "duration": 0.1499999999999999,
          "durationTicks": 120,
          "midi": 36,
          "name": "C2",
          "ticks": 1120,
          "time": 1.4000000000000001,
          "velocity": 0.7007874015748031
        },
        {
          "duration": 0.30000000000000004,
          "durationTicks": 240,
          "midi": 40,
          "name": "E2",
          "ticks": 1240,
          "time": 1.55,
          "velocity": 0.7559055118110236
        },
        {
          "duration": 0.1499999999999999,
          "durationTicks": 120,
          "midi": 42,
          "name": "F#2",
          "ticks": 1240,
          "time": 1.55,
          "velocity": 0.968503937007874
        },
        {
          "duration": 0.1499999999999999,
          "durationTicks": 120,
          "midi": 36,
          "name": "C2",
          "ticks": 1480,
          "time": 1.85,
          "velocity": 0.6456692913385826
        },
        {
          "duration": 0.1499999999999999,
          "durationTicks": 120,
          "midi": 42,
          "name": "F#2",
          "ticks": 1480,
          "time": 1.85,
          "velocity": 0.8582677165354331
        },
        {
          "duration": 0.1499999999999999,
          "durationTicks": 120,
          "midi": 42,
          "name": "F#2",
          "ticks": 1600,
          "time": 2,
          "velocity": 0.5275590551181102
        },
        {
          "duration": 0.2999999999999998,
          "durationTicks": 240,
          "midi": 36,
          "name": "C2",
          "ticks": 1720,
          "time": 2.15,
          "velocity": 0.952755905511811
        },
        {
          "duration": 0.1499999999999999,
          "durationTicks": 120,
          "midi": 42,
          "name": "F#2",
          "ticks": 1720,
          "time": 2.15,
          "velocity": 0.6299212598425197
        },
        {
          "duration": 0.1499999999999999,
          "durationTicks": 120,
          "midi": 42,
          "name": "F#2",
          "ticks": 1840,
          "time": 2.3,
          "velocity": 0.47244094488188976
        },
        {
          "duration": 0.1499999999999999,
          "durationTicks": 120,
          "midi": 42,
          "name": "F#2",
          "ticks": 1960,
          "time": 2.4499999999999997,
          "velocity": 0.49606299212598426
        },
        {
          "duration": 0.1499999999999999,
          "durationTicks": 120,
          "midi": 36,
          "name": "C2",
          "ticks": 2080,
          "time": 2.5999999999999996,
          "velocity": 0.9133858267716536
        },
        {
          "duration": 0.1499999999999999,
          "durationTicks": 120,
          "midi": 42,
          "name": "F#2",
          "ticks": 2080,
          "time": 2.5999999999999996,
          "velocity": 0.49606299212598426
        },
        {
          "duration": 0.15000000000000036,
          "durationTicks": 120,
          "midi": 40,
          "name": "E2",
          "ticks": 2200,
          "time": 2.7499999999999996,
          "velocity": 0.9291338582677166
        },
        {
          "duration": 0.15000000000000036,
          "durationTicks": 120,
          "midi": 42,
          "name": "F#2",
          "ticks": 2200,
          "time": 2.7499999999999996,
          "velocity": 0.9291338582677166
        },
        {
          "duration": 0.1499999999999999,
          "durationTicks": 120,
          "midi": 36,
          "name": "C2",
          "ticks": 2440,
          "time": 3.05,
          "velocity": 0.9133858267716536
        },
        {
          "duration": 0.1499999999999999,
          "durationTicks": 120,
          "midi": 46,
          "name": "A#2",
          "ticks": 2440,
          "time": 3.05,
          "velocity": 0.7322834645669292
        },
        {
          "duration": 0.2999999999999998,
          "durationTicks": 240,
          "midi": 36,
          "name": "C2",
          "ticks": 2680,
          "time": 3.3499999999999996,
          "velocity": 0.968503937007874
        },
        {
          "duration": 0.1499999999999999,
          "durationTicks": 120,
          "midi": 42,
          "name": "F#2",
          "ticks": 2680,
          "time": 3.3499999999999996,
          "velocity": 0.8031496062992126
        },
        {
          "duration": 0.15000000000000036,
          "durationTicks": 120,
          "midi": 42,
          "name": "F#2",
          "ticks": 2920,
          "time": 3.6499999999999995,
          "velocity": 0.5275590551181102
        },
        {
          "duration": 0.1499999999999999,
          "durationTicks": 120,
          "midi": 36,
          "name": "C2",
          "ticks": 3040,
          "time": 3.8,
          "velocity": 0.952755905511811
        },
        {
          "duration": 0.1499999999999999,
          "durationTicks": 120,
          "midi": 40,
          "name": "E2",
          "ticks": 3160,
          "time": 3.9499999999999997,
          "velocity": 0.984251968503937
        },
        {
          "duration": 0.1499999999999999,
          "durationTicks": 120,
          "midi": 42,
          "name": "F#2",
          "ticks": 3160,
          "time": 3.9499999999999997,
          "velocity": 0.8976377952755905
        },
        {
          "duration": 0.15000000000000036,
          "durationTicks": 120,
          "midi": 36,
          "name": "C2",
          "ticks": 3280,
          "time": 4.1,
          "velocity": 0.968503937007874
        },
        {
          "duration": 0.14999999999999947,
          "durationTicks": 120,
          "midi": 42,
          "name": "F#2",
          "ticks": 3400,
          "time": 4.25,
          "velocity": 0.5275590551181102
        },
        {
          "duration": 0.15000000000000036,
          "durationTicks": 120,
          "midi": 36,
          "name": "C2",
          "ticks": 3520,
          "time": 4.3999999999999995,
          "velocity": 0.7322834645669292
        },
        {
          "duration": 0.15000000000000036,
          "durationTicks": 120,
          "midi": 42,
          "name": "F#2",
          "ticks": 3520,
          "time": 4.3999999999999995,
          "velocity": 0.49606299212598426
        },
        {
          "duration": 0.14999999999999947,
          "durationTicks": 120,
          "midi": 36,
          "name": "C2",
          "ticks": 3640,
          "time": 4.55,
          "velocity": 0.9291338582677166
        },
        {
          "duration": 0.14999999999999947,
          "durationTicks": 120,
          "midi": 42,
          "name": "F#2",
          "ticks": 3640,
          "time": 4.55,
          "velocity": 0.5826771653543307
        },
        {
          "duration": 0.15000000000000124,
          "durationTicks": 120,
          "midi": 42,
          "name": "F#2",
          "ticks": 3760,
          "time": 4.699999999999999,
          "velocity": 0.5039370078740157
        },
        {
          "duration": 0.14999999999999947,
          "durationTicks": 120,
          "midi": 36,
          "name": "C2",
          "ticks": 3880,
          "time": 4.8500000000000005,
          "velocity": 0.968503937007874
        },
        {
          "duration": 0.14999999999999947,
          "durationTicks": 120,
          "midi": 42,
          "name": "F#2",
          "ticks": 3880,
          "time": 4.8500000000000005,
          "velocity": 0.4881889763779528
        },
        {
          "duration": 0.15000000000000036,
          "durationTicks": 120,
          "midi": 42,
          "name": "F#2",
          "ticks": 4000,
          "time": 5,
          "velocity": 0.5433070866141733
        },
        {
          "duration": 0.14999999999999947,
          "durationTicks": 120,
          "midi": 40,
          "name": "E2",
          "ticks": 4120,
          "time": 5.15,
          "velocity": 0.984251968503937
        },
        {
          "duration": 0.14999999999999947,
          "durationTicks": 120,
          "midi": 42,
          "name": "F#2",
          "ticks": 4120,
          "time": 5.15,
          "velocity": 0.6456692913385826
        },
        {
          "duration": 0.15000000000000036,
          "durationTicks": 120,
          "midi": 46,
          "name": "A#2",
          "ticks": 4360,
          "time": 5.45,
          "velocity": 0.7401574803149606
        },
        {
          "duration": 0.15000000000000036,
          "durationTicks": 120,
          "midi": 36,
          "name": "C2",
          "ticks": 4600,
          "time": 5.75,
          "velocity": 0.968503937007874
        },
        {
          "duration": 0.15000000000000036,
          "durationTicks": 120,
          "midi": 42,
          "name": "F#2",
          "ticks": 4600,
          "time": 5.75,
          "velocity": 0.6850393700787402
        },
        {
          "duration": 0.15000000000000036,
          "durationTicks": 120,
          "midi": 42,
          "name": "F#2",
          "ticks": 4840,
          "time": 6.05,
          "velocity": 0.6692913385826772
        },
        {
          "duration": 0.15000000000000036,
          "durationTicks": 120,
          "midi": 36,
          "name": "C2",
          "ticks": 4960,
          "time": 6.2,
          "velocity": 0.8661417322834646
        },
        {
          "duration": 0.14999999999999947,
          "durationTicks": 120,
          "midi": 40,
          "name": "E2",
          "ticks": 5080,
          "time": 6.3500000000000005,
          "velocity": 0.8582677165354331
        },
        {
          "duration": 0.14999999999999947,
          "durationTicks": 120,
          "midi": 42,
          "name": "F#2",
          "ticks": 5080,
          "time": 6.3500000000000005,
          "velocity": 0.968503937007874
        },
        {
          "duration": 0.14999999999999947,
          "durationTicks": 120,
          "midi": 36,
          "name": "C2",
          "ticks": 5320,
          "time": 6.65,
          "velocity": 0.9291338582677166
        },
        {
          "duration": 0.14999999999999947,
          "durationTicks": 120,
          "midi": 42,
          "name": "F#2",
          "ticks": 5320,
          "time": 6.65,
          "velocity": 0.49606299212598426
        },
        {
          "duration": 0.15000000000000036,
          "durationTicks": 120,
          "midi": 42,
          "name": "F#2",
          "ticks": 5440,
          "time": 6.8,
          "velocity": 0.48031496062992124
        },
        {
          "duration": 0.15000000000000036,
          "durationTicks": 120,
          "midi": 36,
          "name": "C2",
          "ticks": 5560,
          "time": 6.95,
          "velocity": 0.968503937007874
        },
        {
          "duration": 0.15000000000000036,
          "durationTicks": 120,
          "midi": 42,
          "name": "F#2",
          "ticks": 5560,
          "time": 6.95,
          "velocity": 0.5669291338582677
        },
        {
          "duration": 0.14999999999999947,
          "durationTicks": 120,
          "midi": 42,
          "name": "F#2",
          "ticks": 5680,
          "time": 7.1000000000000005,
          "velocity": 0.6299212598425197
        },
        {
          "duration": 0.15000000000000036,
          "durationTicks": 120,
          "midi": 42,
          "name": "F#2",
          "ticks": 5800,
          "time": 7.25,
          "velocity": 0.4881889763779528
        },
        {
          "duration": 0.14999999999999947,
          "durationTicks": 120,
          "midi": 36,
          "name": "C2",
          "ticks": 5920,
          "time": 7.4,
          "velocity": 0.984251968503937
        },
        {
          "duration": 0.14999999999999947,
          "durationTicks": 120,
          "midi": 42,
          "name": "F#2",
          "ticks": 5920,
          "time": 7.4,
          "velocity": 0.47244094488188976
        },
        {
          "duration": 0.15000000000000036,
          "durationTicks": 120,
          "midi": 40,
          "name": "E2",
          "ticks": 6040,
          "time": 7.55,
          "velocity": 0.8976377952755905
        },
        {
          "duration": 0.15000000000000036,
          "durationTicks": 120,
          "midi": 42,
          "name": "F#2",
          "ticks": 6040,
          "time": 7.55,
          "velocity": 0.5669291338582677
        },
        {
          "duration": 0.15000000000000036,
          "durationTicks": 120,
          "midi": 36,
          "name": "C2",
          "ticks": 6280,
          "time": 7.85,
          "velocity": 0.952755905511811
        },
        {
          "duration": 0.15000000000000036,
          "durationTicks": 120,
          "midi": 46,
          "name": "A#2",
          "ticks": 6280,
          "time": 7.85,
          "velocity": 0.5984251968503937
        },
        {
          "duration": 0.15000000000000036,
          "durationTicks": 120,
          "midi": 36,
          "name": "C2",
          "ticks": 6520,
          "time": 8.15,
          "velocity": 0.968503937007874
        },
        {
          "duration": 0.15000000000000036,
          "durationTicks": 120,
          "midi": 42,
          "name": "F#2",
          "ticks": 6520,
          "time": 8.15,
          "velocity": 0.6850393700787402
        },
        {
          "duration": 0.14999999999999858,
          "durationTicks": 120,
          "midi": 36,
          "name": "C2",
          "ticks": 6640,
          "time": 8.3,
          "velocity": 0.8031496062992126
        },
        {
          "duration": 0.15000000000000036,
          "durationTicks": 120,
          "midi": 42,
          "name": "F#2",
          "ticks": 6760,
          "time": 8.45,
          "velocity": 0.49606299212598426
        },
        {
          "duration": 0.15000000000000036,
          "durationTicks": 120,
          "midi": 36,
          "name": "C2",
          "ticks": 6880,
          "time": 8.6,
          "velocity": 0.9291338582677166
        },
        {
          "duration": 0.15000000000000036,
          "durationTicks": 120,
          "midi": 40,
          "name": "E2",
          "ticks": 7000,
          "time": 8.75,
          "velocity": 0.968503937007874
        },
        {
          "duration": 0.15000000000000036,
          "durationTicks": 120,
          "midi": 42,
          "name": "F#2",
          "ticks": 7000,
          "time": 8.75,
          "velocity": 0.952755905511811
        },
        {
          "duration": 0.14999999999999858,
          "durationTicks": 120,
          "midi": 36,
          "name": "C2",
          "ticks": 7240,
          "time": 9.05,
          "velocity": 0.7480314960629921
        },
        {
          "duration": 0.14999999999999858,
          "durationTicks": 120,
          "midi": 42,
          "name": "F#2",
          "ticks": 7240,
          "time": 9.05,
          "velocity": 0.4645669291338583
        },
        {
          "duration": 0.15000000000000036,
          "durationTicks": 120,
          "midi": 42,
          "name": "F#2",
          "ticks": 7360,
          "time": 9.2,
          "velocity": 0.5039370078740157
        },
        {
          "duration": 0.15000000000000036,
          "durationTicks": 120,
          "midi": 36,
          "name": "C2",
          "ticks": 7480,
          "time": 9.35,
          "velocity": 0.984251968503937
        },
        {
          "duration": 0.15000000000000036,
          "durationTicks": 120,
          "midi": 42,
          "name": "F#2",
          "ticks": 7480,
          "time": 9.35,
          "velocity": 0.49606299212598426
        },
        {
          "duration": 0.14999999999999858,
          "durationTicks": 120,
          "midi": 36,
          "name": "C2",
          "ticks": 7600,
          "time": 9.5,
          "velocity": 0.9133858267716536
        },
        {
          "duration": 0.14999999999999858,
          "durationTicks": 120,
          "midi": 42,
          "name": "F#2",
          "ticks": 7600,
          "time": 9.5,
          "velocity": 0.49606299212598426
        },
        {
          "duration": 0.15000000000000036,
          "durationTicks": 120,
          "midi": 42,
          "name": "F#2",
          "ticks": 7720,
          "time": 9.649999999999999,
          "velocity": 0.48031496062992124
        },
        {
          "duration": 0.15000000000000036,
          "durationTicks": 120,
          "midi": 36,
          "name": "C2",
          "ticks": 7840,
          "time": 9.799999999999999,
          "velocity": 0.952755905511811
        },
        {
          "duration": 0.15000000000000036,
          "durationTicks": 120,
          "midi": 42,
          "name": "F#2",
          "ticks": 7840,
          "time": 9.799999999999999,
          "velocity": 0.49606299212598426
        },
        {
          "duration": 0.15000000000000036,
          "durationTicks": 120,
          "midi": 40,
          "name": "E2",
          "ticks": 7960,
          "time": 9.95,
          "velocity": 0.984251968503937
        },
        {
          "duration": 0.15000000000000036,
          "durationTicks": 120,
          "midi": 42,
          "name": "F#2",
          "ticks": 7960,
          "time": 9.95,
          "velocity": 0.6771653543307087
        },
        {
          "duration": 0.14999999999999858,
          "durationTicks": 120,
          "midi": 36,
          "name": "C2",
          "ticks": 8080,
          "time": 10.1,
          "velocity": 0.952755905511811
        },
        {
          "duration": 0.15000000000000036,
          "durationTicks": 120,
          "midi": 40,
          "name": "E2",
          "ticks": 8200,
          "time": 10.249999999999998,
          "velocity": 0.984251968503937
        },
        {
          "duration": 0.15000000000000036,
          "durationTicks": 120,
          "midi": 46,
          "name": "A#2",
          "ticks": 8200,
          "time": 10.249999999999998,
          "velocity": 0.8582677165354331
        },
        {
          "duration": 0.15000000000000036,
          "durationTicks": 120,
          "midi": 40,
          "name": "E2",
          "ticks": 8320,
          "time": 10.399999999999999,
          "velocity": 0.968503937007874
        },
        {
          "duration": 0.3000000000000007,
          "durationTicks": 240,
          "midi": 36,
          "name": "C2",
          "ticks": 8440,
          "time": 10.549999999999999,
          "velocity": 0.952755905511811
        },
        {
          "duration": 0.15000000000000036,
          "durationTicks": 120,
          "midi": 42,
          "name": "F#2",
          "ticks": 8440,
          "time": 10.549999999999999,
          "velocity": 0.952755905511811
        },
        {
          "duration": 0.6000000000000014,
          "durationTicks": 480,
          "midi": 49,
          "name": "C#3",
          "ticks": 8480,
          "time": 10.6,
          "velocity": 0.7874015748031497
        },
        {
          "duration": 0.14999999999999858,
          "durationTicks": 120,
          "midi": 42,
          "name": "F#2",
          "ticks": 8680,
          "time": 10.85,
          "velocity": 0.7559055118110236
        },
        {
          "duration": 0.15000000000000036,
          "durationTicks": 120,
          "midi": 36,
          "name": "C2",
          "ticks": 8800,
          "time": 10.999999999999998,
          "velocity": 0.7007874015748031
        },
        {
          "duration": 0.3000000000000007,
          "durationTicks": 240,
          "midi": 40,
          "name": "E2",
          "ticks": 8920,
          "time": 11.149999999999999,
          "velocity": 0.7559055118110236
        },
        {
          "duration": 0.15000000000000036,
          "durationTicks": 120,
          "midi": 42,
          "name": "F#2",
          "ticks": 8920,
          "time": 11.149999999999999,
          "velocity": 0.968503937007874
        },
        {
          "duration": 0.15000000000000036,
          "durationTicks": 120,
          "midi": 36,
          "name": "C2",
          "ticks": 9160,
          "time": 11.45,
          "velocity": 0.6456692913385826
        },
        {
          "duration": 0.15000000000000036,
          "durationTicks": 120,
          "midi": 42,
          "name": "F#2",
          "ticks": 9160,
          "time": 11.45,
          "velocity": 0.8582677165354331
        },
        {
          "duration": 0.14999999999999858,
          "durationTicks": 120,
          "midi": 42,
          "name": "F#2",
          "ticks": 9280,
          "time": 11.6,
          "velocity": 0.5275590551181102
        },
        {
          "duration": 0.3000000000000007,
          "durationTicks": 240,
          "midi": 36,
          "name": "C2",
          "ticks": 9400,
          "time": 11.749999999999998,
          "velocity": 0.952755905511811
        },
        {
          "duration": 0.15000000000000036,
          "durationTicks": 120,
          "midi": 42,
          "name": "F#2",
          "ticks": 9400,
          "time": 11.749999999999998,
          "velocity": 0.6299212598425197
        },
        {
          "duration": 0.15000000000000036,
          "durationTicks": 120,
          "midi": 42,
          "name": "F#2",
          "ticks": 9520,
          "time": 11.899999999999999,
          "velocity": 0.47244094488188976
        },
        {
          "duration": 0.15000000000000036,
          "durationTicks": 120,
          "midi": 42,
          "name": "F#2",
          "ticks": 9640,
          "time": 12.049999999999999,
          "velocity": 0.49606299212598426
        },
        {
          "duration": 0.15000000000000036,
          "durationTicks": 120,
          "midi": 36,
          "name": "C2",
          "ticks": 9760,
          "time": 12.2,
          "velocity": 0.9133858267716536
        },
        {
          "duration": 0.15000000000000036,
          "durationTicks": 120,
          "midi": 42,
          "name": "F#2",
          "ticks": 9760,
          "time": 12.2,
          "velocity": 0.49606299212598426
        },
        {
          "duration": 0.14999999999999858,
          "durationTicks": 120,
          "midi": 40,
          "name": "E2",
          "ticks": 9880,
          "time": 12.35,
          "velocity": 0.9291338582677166
        },
        {
          "duration": 0.14999999999999858,
          "durationTicks": 120,
          "midi": 42,
          "name": "F#2",
          "ticks": 9880,
          "time": 12.35,
          "velocity": 0.9291338582677166
        },
        {
          "duration": 0.15000000000000036,
          "durationTicks": 120,
          "midi": 36,
          "name": "C2",
          "ticks": 10120,
          "time": 12.649999999999999,
          "velocity": 0.9133858267716536
        },
        {
          "duration": 0.15000000000000036,
          "durationTicks": 120,
          "midi": 46,
          "name": "A#2",
          "ticks": 10120,
          "time": 12.649999999999999,
          "velocity": 0.7322834645669292
        },
        {
          "duration": 0.29999999999999893,
          "durationTicks": 240,
          "midi": 36,
          "name": "C2",
          "ticks": 10360,
          "time": 12.95,
          "velocity": 0.968503937007874
        },
        {
          "duration": 0.15000000000000036,
          "durationTicks": 120,
          "midi": 42,
          "name": "F#2",
          "ticks": 10360,
          "time": 12.95,
          "velocity": 0.8031496062992126
        },
        {
          "duration": 0.15000000000000036,
          "durationTicks": 120,
          "midi": 42,
          "name": "F#2",
          "ticks": 10600,
          "time": 13.249999999999998,
          "velocity": 0.5275590551181102
        },
        {
          "duration": 0.15000000000000036,
          "durationTicks": 120,
          "midi": 36,
          "name": "C2",
          "ticks": 10720,
          "time": 13.399999999999999,
          "velocity": 0.952755905511811
        },
        {
          "duration": 0.15000000000000036,
          "durationTicks": 120,
          "midi": 40,
          "name": "E2",
          "ticks": 10840,
          "time": 13.549999999999999,
          "velocity": 0.984251968503937
        },
        {
          "duration": 0.15000000000000036,
          "durationTicks": 120,
          "midi": 42,
          "name": "F#2",
          "ticks": 10840,
          "time": 13.549999999999999,
          "velocity": 0.8976377952755905
        },
        {
          "duration": 0.15000000000000036,
          "durationTicks": 120,
          "midi": 36,
          "name": "C2",
          "ticks": 10960,
          "time": 13.7,
          "velocity": 0.968503937007874
        },
        {
          "duration": 0.14999999999999858,
          "durationTicks": 120,
          "midi": 42,
          "name": "F#2",
          "ticks": 11080,
          "time": 13.85,
          "velocity": 0.5275590551181102
        },
        {
          "duration": 0.15000000000000036,
          "durationTicks": 120,
          "midi": 36,
          "name": "C2",
          "ticks": 11200,
          "time": 13.999999999999998,
          "velocity": 0.7322834645669292
        },
        {
          "duration": 0.15000000000000036,
          "durationTicks": 120,
          "midi": 42,
          "name": "F#2",
          "ticks": 11200,
          "time": 13.999999999999998,
          "velocity": 0.49606299212598426
        },
        {
          "duration": 0.15000000000000036,
          "durationTicks": 120,
          "midi": 36,
          "name": "C2",
          "ticks": 11320,
          "time": 14.149999999999999,
          "velocity": 0.9291338582677166
        },
        {
          "duration": 0.15000000000000036,
          "durationTicks": 120,
          "midi": 42,
          "name": "F#2",
          "ticks": 11320,
          "time": 14.149999999999999,
          "velocity": 0.5826771653543307
        },
        {
          "duration": 0.15000000000000036,
          "durationTicks": 120,
          "midi": 42,
          "name": "F#2",
          "ticks": 11440,
          "time": 14.299999999999999,
          "velocity": 0.5039370078740157
        },
        {
          "duration": 0.14999999999999858,
          "durationTicks": 120,
          "midi": 36,
          "name": "C2",
          "ticks": 11560,
          "time": 14.45,
          "velocity": 0.968503937007874
        },
        {
          "duration": 0.14999999999999858,
          "durationTicks": 120,
          "midi": 42,
          "name": "F#2",
          "ticks": 11560,
          "time": 14.45,
          "velocity": 0.4881889763779528
        },
        {
          "duration": 0.15000000000000036,
          "durationTicks": 120,
          "midi": 42,
          "name": "F#2",
          "ticks": 11680,
          "time": 14.599999999999998,
          "velocity": 0.5433070866141733
        },
        {
          "duration": 0.15000000000000036,
          "durationTicks": 120,
          "midi": 40,
          "name": "E2",
          "ticks": 11800,
          "time": 14.749999999999998,
          "velocity": 0.984251968503937
        },
        {
          "duration": 0.15000000000000036,
          "durationTicks": 120,
          "midi": 42,
          "name": "F#2",
          "ticks": 11800,
          "time": 14.749999999999998,
          "velocity": 0.6456692913385826
        },
        {
          "duration": 0.15000000000000036,
          "durationTicks": 120,
          "midi": 46,
          "name": "A#2",
          "ticks": 12040,
          "time": 15.049999999999999,
          "velocity": 0.7401574803149606
        },
        {
          "duration": 0.15000000000000036,
          "durationTicks": 120,
          "midi": 36,
          "name": "C2",
          "ticks": 12280,
          "time": 15.349999999999998,
          "velocity": 0.968503937007874
        },
        {
          "duration": 0.15000000000000036,
          "durationTicks": 120,
          "midi": 42,
          "name": "F#2",
          "ticks": 12280,
          "time": 15.349999999999998,
          "velocity": 0.6850393700787402
        },
        {
          "duration": 0.15000000000000036,
          "durationTicks": 120,
          "midi": 42,
          "name": "F#2",
          "ticks": 12520,
          "time": 15.649999999999999,
          "velocity": 0.6692913385826772
        },
        {
          "duration": 0.15000000000000036,
          "durationTicks": 120,
          "midi": 36,
          "name": "C2",
          "ticks": 12640,
          "time": 15.799999999999999,
          "velocity": 0.8661417322834646
        },
        {
          "duration": 0.14999999999999858,
          "durationTicks": 120,
          "midi": 40,
          "name": "E2",
          "ticks": 12760,
          "time": 15.95,
          "velocity": 0.8582677165354331
        },
        {
          "duration": 0.14999999999999858,
          "durationTicks": 120,
          "midi": 42,
          "name": "F#2",
          "ticks": 12760,
          "time": 15.95,
          "velocity": 0.968503937007874
        },
        {
          "duration": 0.14999999999999858,
          "durationTicks": 120,
          "midi": 36,
          "name": "C2",
          "ticks": 13000,
          "time": 16.25,
          "velocity": 0.9291338582677166
        },
        {
          "duration": 0.14999999999999858,
          "durationTicks": 120,
          "midi": 42,
          "name": "F#2",
          "ticks": 13000,
          "time": 16.25,
          "velocity": 0.49606299212598426
        },
        {
          "duration": 0.14999999999999858,
          "durationTicks": 120,
          "midi": 42,
          "name": "F#2",
          "ticks": 13120,
          "time": 16.4,
          "velocity": 0.48031496062992124
        },
        {
          "duration": 0.15000000000000213,
          "durationTicks": 120,
          "midi": 36,
          "name": "C2",
          "ticks": 13240,
          "time": 16.549999999999997,
          "velocity": 0.968503937007874
        },
        {
          "duration": 0.15000000000000213,
          "durationTicks": 120,
          "midi": 42,
          "name": "F#2",
          "ticks": 13240,
          "time": 16.549999999999997,
          "velocity": 0.5669291338582677
        },
        {
          "duration": 0.14999999999999858,
          "durationTicks": 120,
          "midi": 42,
          "name": "F#2",
          "ticks": 13360,
          "time": 16.7,
          "velocity": 0.6299212598425197
        },
        {
          "duration": 0.15000000000000213,
          "durationTicks": 120,
          "midi": 42,
          "name": "F#2",
          "ticks": 13480,
          "time": 16.849999999999998,
          "velocity": 0.4881889763779528
        },
        {
          "duration": 0.14999999999999858,
          "durationTicks": 120,
          "midi": 36,
          "name": "C2",
          "ticks": 13600,
          "time": 17,
          "velocity": 0.984251968503937
        },
        {
          "duration": 0.14999999999999858,
          "durationTicks": 120,
          "midi": 42,
          "name": "F#2",
          "ticks": 13600,
          "time": 17,
          "velocity": 0.47244094488188976
        },
        {
          "duration": 0.14999999999999858,
          "durationTicks": 120,
          "midi": 40,
          "name": "E2",
          "ticks": 13720,
          "time": 17.15,
          "velocity": 0.8976377952755905
        },
        {
          "duration": 0.14999999999999858,
          "durationTicks": 120,
          "midi": 42,
          "name": "F#2",
          "ticks": 13720,
          "time": 17.15,
          "velocity": 0.5669291338582677
        },
        {
          "duration": 0.14999999999999858,
          "durationTicks": 120,
          "midi": 36,
          "name": "C2",
          "ticks": 13960,
          "time": 17.45,
          "velocity": 0.952755905511811
        },
        {
          "duration": 0.14999999999999858,
          "durationTicks": 120,
          "midi": 46,
          "name": "A#2",
          "ticks": 13960,
          "time": 17.45,
          "velocity": 0.5984251968503937
        },
        {
          "duration": 0.14999999999999858,
          "durationTicks": 120,
          "midi": 36,
          "name": "C2",
          "ticks": 14200,
          "time": 17.75,
          "velocity": 0.968503937007874
        },
        {
          "duration": 0.14999999999999858,
          "durationTicks": 120,
          "midi": 42,
          "name": "F#2",
          "ticks": 14200,
          "time": 17.75,
          "velocity": 0.6850393700787402
        },
        {
          "duration": 0.14999999999999858,
          "durationTicks": 120,
          "midi": 36,
          "name": "C2",
          "ticks": 14320,
          "time": 17.9,
          "velocity": 0.8031496062992126
        },
        {
          "duration": 0.15000000000000213,
          "durationTicks": 120,
          "midi": 42,
          "name": "F#2",
          "ticks": 14440,
          "time": 18.049999999999997,
          "velocity": 0.49606299212598426
        },
        {
          "duration": 0.14999999999999858,
          "durationTicks": 120,
          "midi": 36,
          "name": "C2",
          "ticks": 14560,
          "time": 18.2,
          "velocity": 0.9291338582677166
        },
        {
          "duration": 0.15000000000000213,
          "durationTicks": 120,
          "midi": 40,
          "name": "E2",
          "ticks": 14680,
          "time": 18.349999999999998,
          "velocity": 0.968503937007874
        },
        {
          "duration": 0.15000000000000213,
          "durationTicks": 120,
          "midi": 42,
          "name": "F#2",
          "ticks": 14680,
          "time": 18.349999999999998,
          "velocity": 0.952755905511811
        },
        {
          "duration": 0.14999999999999858,
          "durationTicks": 120,
          "midi": 36,
          "name": "C2",
          "ticks": 14920,
          "time": 18.65,
          "velocity": 0.7480314960629921
        },
        {
          "duration": 0.14999999999999858,
          "durationTicks": 120,
          "midi": 42,
          "name": "F#2",
          "ticks": 14920,
          "time": 18.65,
          "velocity": 0.4645669291338583
        },
        {
          "duration": 0.15000000000000213,
          "durationTicks": 120,
          "midi": 42,
          "name": "F#2",
          "ticks": 15040,
          "time": 18.799999999999997,
          "velocity": 0.5039370078740157
        },
        {
          "duration": 0.14999999999999858,
          "durationTicks": 120,
          "midi": 36,
          "name": "C2",
          "ticks": 15160,
          "time": 18.95,
          "velocity": 0.984251968503937
        },
        {
          "duration": 0.14999999999999858,
          "durationTicks": 120,
          "midi": 42,
          "name": "F#2",
          "ticks": 15160,
          "time": 18.95,
          "velocity": 0.49606299212598426
        },
        {
          "duration": 0.15000000000000213,
          "durationTicks": 120,
          "midi": 36,
          "name": "C2",
          "ticks": 15280,
          "time": 19.099999999999998,
          "velocity": 0.9133858267716536
        },
        {
          "duration": 0.15000000000000213,
          "durationTicks": 120,
          "midi": 42,
          "name": "F#2",
          "ticks": 15280,
          "time": 19.099999999999998,
          "velocity": 0.49606299212598426
        },
        {
          "duration": 0.15000000000000213,
          "durationTicks": 120,
          "midi": 42,
          "name": "F#2",
          "ticks": 15400,
          "time": 19.25,
          "velocity": 0.48031496062992124
        },
        {
          "duration": 0.14999999999999858,
          "durationTicks": 120,
          "midi": 36,
          "name": "C2",
          "ticks": 15520,
          "time": 19.400000000000002,
          "velocity": 0.952755905511811
        },
        {
          "duration": 0.14999999999999858,
          "durationTicks": 120,
          "midi": 42,
          "name": "F#2",
          "ticks": 15520,
          "time": 19.400000000000002,
          "velocity": 0.49606299212598426
        },
        {
          "duration": 0.14999999999999858,
          "durationTicks": 120,
          "midi": 40,
          "name": "E2",
          "ticks": 15640,
          "time": 19.55,
          "velocity": 0.984251968503937
        },
        {
          "duration": 0.14999999999999858,
          "durationTicks": 120,
          "midi": 42,
          "name": "F#2",
          "ticks": 15640,
          "time": 19.55,
          "velocity": 0.6771653543307087
        },
        {
          "duration": 0.15000000000000213,
          "durationTicks": 120,
          "midi": 36,
          "name": "C2",
          "ticks": 15760,
          "time": 19.7,
          "velocity": 0.952755905511811
        },
        {
          "duration": 0.14999999999999858,
          "durationTicks": 120,
          "midi": 40,
          "name": "E2",
          "ticks": 15880,
          "time": 19.85,
          "velocity": 0.984251968503937
        },
        {
          "duration": 0.14999999999999858,
          "durationTicks": 120,
          "midi": 46,
          "name": "A#2",
          "ticks": 15880,
          "time": 19.85,
          "velocity": 0.8582677165354331
        },
        {
          "duration": 0.15000000000000213,
          "durationTicks": 120,
          "midi": 40,
          "name": "E2",
          "ticks": 16000,
          "time": 20,
          "velocity": 0.968503937007874
        },
        {
          "duration": 0.29999999999999716,
          "durationTicks": 240,
          "midi": 36,
          "name": "C2",
          "ticks": 16120,
          "time": 20.150000000000002,
          "velocity": 0.968503937007874
        },
        {
          "duration": 0.14999999999999858,
          "durationTicks": 120,
          "midi": 42,
          "name": "F#2",
          "ticks": 16120,
          "time": 20.150000000000002,
          "velocity": 0.9291338582677166
        },
        {
          "duration": 0.24999999999999645,
          "durationTicks": 200,
          "midi": 49,
          "name": "C#3",
          "ticks": 16120,
          "time": 20.150000000000002,
          "velocity": 0.7874015748031497
        },
        {
          "duration": 0.15000000000000213,
          "durationTicks": 120,
          "midi": 42,
          "name": "F#2",
          "ticks": 16360,
          "time": 20.45,
          "velocity": 0.4881889763779528
        },
        {
          "duration": 0.4499999999999993,
          "durationTicks": 360,
          "midi": 36,
          "name": "C2",
          "ticks": 16600,
          "time": 20.75,
          "velocity": 0.952755905511811
        },
        {
          "duration": 0.4499999999999993,
          "durationTicks": 360,
          "midi": 40,
          "name": "E2",
          "ticks": 16600,
          "time": 20.75,
          "velocity": 0.9291338582677166
        },
        {
          "duration": 0.15000000000000213,
          "durationTicks": 120,
          "midi": 42,
          "name": "F#2",
          "ticks": 16600,
          "time": 20.75,
          "velocity": 0.984251968503937
        },
        {
          "duration": 0.14999999999999858,
          "durationTicks": 120,
          "midi": 42,
          "name": "F#2",
          "ticks": 16840,
          "time": 21.05,
          "velocity": 0.5433070866141733
        },
        {
          "duration": 0.15000000000000213,
          "durationTicks": 120,
          "midi": 42,
          "name": "F#2",
          "ticks": 16960,
          "time": 21.2,
          "velocity": 0.47244094488188976
        },
        {
          "duration": 0.4499999999999993,
          "durationTicks": 360,
          "midi": 36,
          "name": "C2",
          "ticks": 17080,
          "time": 21.35,
          "velocity": 0.984251968503937
        },
        {
          "duration": 0.14999999999999858,
          "durationTicks": 120,
          "midi": 42,
          "name": "F#2",
          "ticks": 17080,
          "time": 21.35,
          "velocity": 0.49606299212598426
        },
        {
          "duration": 0.14999999999999858,
          "durationTicks": 120,
          "midi": 42,
          "name": "F#2",
          "ticks": 17320,
          "time": 21.650000000000002,
          "velocity": 0.6535433070866141
        },
        {
          "duration": 0.45000000000000284,
          "durationTicks": 360,
          "midi": 36,
          "name": "C2",
          "ticks": 17560,
          "time": 21.95,
          "velocity": 0.8267716535433071
        },
        {
          "duration": 0.3000000000000007,
          "durationTicks": 240,
          "midi": 40,
          "name": "E2",
          "ticks": 17560,
          "time": 21.95,
          "velocity": 0.968503937007874
        },
        {
          "duration": 0.15000000000000213,
          "durationTicks": 120,
          "midi": 42,
          "name": "F#2",
          "ticks": 17560,
          "time": 21.95,
          "velocity": 0.6299212598425197
        },
        {
          "duration": 0.15000000000000213,
          "durationTicks": 120,
          "midi": 46,
          "name": "A#2",
          "ticks": 17800,
          "time": 22.25,
          "velocity": 0.6692913385826772
        },
        {
          "duration": 0.4499999999999993,
          "durationTicks": 360,
          "midi": 36,
          "name": "C2",
          "ticks": 18040,
          "time": 22.55,
          "velocity": 0.968503937007874
        },
        {
          "duration": 0.14999999999999858,
          "durationTicks": 120,
          "midi": 42,
          "name": "F#2",
          "ticks": 18040,
          "time": 22.55,
          "velocity": 0.8661417322834646
        },
        {
          "duration": 0.14999999999999858,
          "durationTicks": 120,
          "midi": 42,
          "name": "F#2",
          "ticks": 18280,
          "time": 22.85,
          "velocity": 0.6692913385826772
        },
        {
          "duration": 0.29999999999999716,
          "durationTicks": 240,
          "midi": 36,
          "name": "C2",
          "ticks": 18520,
          "time": 23.150000000000002,
          "velocity": 0.9291338582677166
        },
        {
          "duration": 0.29999999999999716,
          "durationTicks": 240,
          "midi": 40,
          "name": "E2",
          "ticks": 18520,
          "time": 23.150000000000002,
          "velocity": 0.9291338582677166
        },
        {
          "duration": 0.14999999999999858,
          "durationTicks": 120,
          "midi": 42,
          "name": "F#2",
          "ticks": 18520,
          "time": 23.150000000000002,
          "velocity": 0.9133858267716536
        },
        {
          "duration": 0.15000000000000213,
          "durationTicks": 120,
          "midi": 42,
          "name": "F#2",
          "ticks": 18760,
          "time": 23.45,
          "velocity": 0.6771653543307087
        },
        {
          "duration": 0.14999999999999858,
          "durationTicks": 120,
          "midi": 36,
          "name": "C2",
          "ticks": 18880,
          "time": 23.6,
          "velocity": 0.8582677165354331
        },
        {
          "duration": 0.15000000000000213,
          "durationTicks": 120,
          "midi": 36,
          "name": "C2",
          "ticks": 19000,
          "time": 23.75,
          "velocity": 0.9291338582677166
        },
        {
          "duration": 0.15000000000000213,
          "durationTicks": 120,
          "midi": 42,
          "name": "F#2",
          "ticks": 19000,
          "time": 23.75,
          "velocity": 0.952755905511811
        },
        {
          "duration": 0.14999999999999858,
          "durationTicks": 120,
          "midi": 36,
          "name": "C2",
          "ticks": 19240,
          "time": 24.05,
          "velocity": 0.968503937007874
        },
        {
          "duration": 0.14999999999999858,
          "durationTicks": 120,
          "midi": 42,
          "name": "F#2",
          "ticks": 19240,
          "time": 24.05,
          "velocity": 0.8031496062992126
        },
        {
          "duration": 0.14999999999999858,
          "durationTicks": 120,
          "midi": 36,
          "name": "C2",
          "ticks": 19480,
          "time": 24.35,
          "velocity": 0.968503937007874
        },
        {
          "duration": 0.3000000000000007,
          "durationTicks": 240,
          "midi": 40,
          "name": "E2",
          "ticks": 19480,
          "time": 24.35,
          "velocity": 0.984251968503937
        },
        {
          "duration": 0.14999999999999858,
          "durationTicks": 120,
          "midi": 42,
          "name": "F#2",
          "ticks": 19480,
          "time": 24.35,
          "velocity": 0.9291338582677166
        },
        {
          "duration": 0.14999999999999858,
          "durationTicks": 120,
          "midi": 36,
          "name": "C2",
          "ticks": 19720,
          "time": 24.650000000000002,
          "velocity": 0.9291338582677166
        },
        {
          "duration": 0.14999999999999858,
          "durationTicks": 120,
          "midi": 46,
          "name": "A#2",
          "ticks": 19720,
          "time": 24.650000000000002,
          "velocity": 0.7559055118110236
        },
        {
          "duration": 0.3000000000000007,
          "durationTicks": 240,
          "midi": 36,
          "name": "C2",
          "ticks": 19960,
          "time": 24.95,
          "velocity": 0.968503937007874
        },
        {
          "duration": 0.15000000000000213,
          "durationTicks": 120,
          "midi": 42,
          "name": "F#2",
          "ticks": 19960,
          "time": 24.95,
          "velocity": 0.9291338582677166
        },
        {
          "duration": 0.15000000000000213,
          "durationTicks": 120,
          "midi": 42,
          "name": "F#2",
          "ticks": 20200,
          "time": 25.25,
          "velocity": 0.8661417322834646
        },
        {
          "duration": 0.3000000000000007,
          "durationTicks": 240,
          "midi": 36,
          "name": "C2",
          "ticks": 20440,
          "time": 25.55,
          "velocity": 0.968503937007874
        },
        {
          "duration": 0.4499999999999993,
          "durationTicks": 360,
          "midi": 40,
          "name": "E2",
          "ticks": 20440,
          "time": 25.55,
          "velocity": 0.952755905511811
        },
        {
          "duration": 0.14999999999999858,
          "durationTicks": 120,
          "midi": 42,
          "name": "F#2",
          "ticks": 20440,
          "time": 25.55,
          "velocity": 0.8976377952755905
        },
        {
          "duration": 0.14999999999999858,
          "durationTicks": 120,
          "midi": 42,
          "name": "F#2",
          "ticks": 20680,
          "time": 25.85,
          "velocity": 0.6614173228346457
        },
        {
          "duration": 0.4350000000000023,
          "durationTicks": 348,
          "midi": 36,
          "name": "C2",
          "ticks": 20932,
          "time": 26.165,
          "velocity": 0.952755905511811
        },
        {
          "duration": 0.13500000000000156,
          "durationTicks": 108,
          "midi": 42,
          "name": "F#2",
          "ticks": 20932,
          "time": 26.165,
          "velocity": 0.968503937007874
        },
        {
          "duration": 0.15000000000000213,
          "durationTicks": 120,
          "midi": 42,
          "name": "F#2",
          "ticks": 21160,
          "time": 26.45,
          "velocity": 0.8661417322834646
        },
        {
          "duration": 0.15000000000000213,
          "durationTicks": 120,
          "midi": 36,
          "name": "C2",
          "ticks": 21400,
          "time": 26.75,
          "velocity": 0.7795275590551181
        },
        {
          "duration": 0.15000000000000213,
          "durationTicks": 120,
          "midi": 40,
          "name": "E2",
          "ticks": 21400,
          "time": 26.75,
          "velocity": 0.9291338582677166
        },
        {
          "duration": 0.15000000000000213,
          "durationTicks": 120,
          "midi": 42,
          "name": "F#2",
          "ticks": 21400,
          "time": 26.75,
          "velocity": 0.9133858267716536
        },
        {
          "duration": 0.14999999999999858,
          "durationTicks": 120,
          "midi": 36,
          "name": "C2",
          "ticks": 21640,
          "time": 27.05,
          "velocity": 0.8267716535433071
        },
        {
          "duration": 0.14999999999999858,
          "durationTicks": 120,
          "midi": 46,
          "name": "A#2",
          "ticks": 21640,
          "time": 27.05,
          "velocity": 0.6614173228346457
        },
        {
          "duration": 0.4499999999999993,
          "durationTicks": 360,
          "midi": 36,
          "name": "C2",
          "ticks": 21880,
          "time": 27.35,
          "velocity": 0.984251968503937
        },
        {
          "duration": 0.14999999999999858,
          "durationTicks": 120,
          "midi": 42,
          "name": "F#2",
          "ticks": 21880,
          "time": 27.35,
          "velocity": 0.9133858267716536
        },
        {
          "duration": 0.14999999999999858,
          "durationTicks": 120,
          "midi": 42,
          "name": "F#2",
          "ticks": 22120,
          "time": 27.650000000000002,
          "velocity": 0.4566929133858268
        },
        {
          "duration": 0.3000000000000007,
          "durationTicks": 240,
          "midi": 36,
          "name": "C2",
          "ticks": 22360,
          "time": 27.95,
          "velocity": 0.9291338582677166
        },
        {
          "duration": 0.3000000000000007,
          "durationTicks": 240,
          "midi": 40,
          "name": "E2",
          "ticks": 22360,
          "time": 27.95,
          "velocity": 0.7322834645669292
        },
        {
          "duration": 0.15000000000000213,
          "durationTicks": 120,
          "midi": 42,
          "name": "F#2",
          "ticks": 22360,
          "time": 27.95,
          "velocity": 0.8976377952755905
        },
        {
          "duration": 0.15000000000000213,
          "durationTicks": 120,
          "midi": 42,
          "name": "F#2",
          "ticks": 22600,
          "time": 28.25,
          "velocity": 0.48031496062992124
        },
        {
          "duration": 0.14999999999999858,
          "durationTicks": 120,
          "midi": 36,
          "name": "C2",
          "ticks": 22840,
          "time": 28.55,
          "velocity": 0.952755905511811
        },
        {
          "duration": 0.14999999999999858,
          "durationTicks": 120,
          "midi": 42,
          "name": "F#2",
          "ticks": 22840,
          "time": 28.55,
          "velocity": 0.8976377952755905
        },
        {
          "duration": 0.14999999999999858,
          "durationTicks": 120,
          "midi": 36,
          "name": "C2",
          "ticks": 23080,
          "time": 28.85,
          "velocity": 0.968503937007874
        },
        {
          "duration": 0.14999999999999858,
          "durationTicks": 120,
          "midi": 42,
          "name": "F#2",
          "ticks": 23080,
          "time": 28.85,
          "velocity": 0.4881889763779528
        },
        {
          "duration": 0.15000000000000213,
          "durationTicks": 120,
          "midi": 40,
          "name": "E2",
          "ticks": 23320,
          "time": 29.15,
          "velocity": 0.984251968503937
        },
        {
          "duration": 0.15000000000000213,
          "durationTicks": 120,
          "midi": 42,
          "name": "F#2",
          "ticks": 23320,
          "time": 29.15,
          "velocity": 0.952755905511811
        },
        {
          "duration": 0.14999999999999858,
          "durationTicks": 120,
          "midi": 36,
          "name": "C2",
          "ticks": 23440,
          "time": 29.3,
          "velocity": 0.968503937007874
        },
        {
          "duration": 0.15000000000000213,
          "durationTicks": 120,
          "midi": 46,
          "name": "A#2",
          "ticks": 23560,
          "time": 29.45,
          "velocity": 0.6456692913385826
        },
        {
          "duration": 0.14999999999999858,
          "durationTicks": 120,
          "midi": 36,
          "name": "C2",
          "ticks": 23680,
          "time": 29.6,
          "velocity": 0.952755905511811
        },
        {
          "duration": 0.14999999999999858,
          "durationTicks": 120,
          "midi": 36,
          "name": "C2",
          "ticks": 23800,
          "time": 29.75,
          "velocity": 0.984251968503937
        },
        {
          "duration": 0.14999999999999858,
          "durationTicks": 120,
          "midi": 42,
          "name": "F#2",
          "ticks": 23800,
          "time": 29.75,
          "velocity": 0.952755905511811
        },
        {
          "duration": 0.6000000000000014,
          "durationTicks": 480,
          "midi": 49,
          "name": "C#3",
          "ticks": 23800,
          "time": 29.75,
          "velocity": 0.7874015748031497
        },
        {
          "duration": 0.14999999999999858,
          "durationTicks": 120,
          "midi": 36,
          "name": "C2",
          "ticks": 24040,
          "time": 30.05,
          "velocity": 0.8582677165354331
        },
        {
          "duration": 0.14999999999999858,
          "durationTicks": 120,
          "midi": 40,
          "name": "E2",
          "ticks": 24040,
          "time": 30.05,
          "velocity": 0.8031496062992126
        },
        {
          "duration": 0.14999999999999858,
          "durationTicks": 120,
          "midi": 42,
          "name": "F#2",
          "ticks": 24040,
          "time": 30.05,
          "velocity": 0.5039370078740157
        },
        {
          "duration": 0.14999999999999858,
          "durationTicks": 120,
          "midi": 36,
          "name": "C2",
          "ticks": 24280,
          "time": 30.35,
          "velocity": 0.968503937007874
        },
        {
          "duration": 0.14999999999999858,
          "durationTicks": 120,
          "midi": 42,
          "name": "F#2",
          "ticks": 24280,
          "time": 30.35,
          "velocity": 0.968503937007874
        },
        {
          "duration": 0.5999999999999979,
          "durationTicks": 480,
          "midi": 49,
          "name": "C#3",
          "ticks": 24280,
          "time": 30.35,
          "velocity": 0.7874015748031497
        },
        {
          "duration": 0.15000000000000213,
          "durationTicks": 120,
          "midi": 36,
          "name": "C2",
          "ticks": 24520,
          "time": 30.65,
          "velocity": 0.8661417322834646
        },
        {
          "duration": 0.15000000000000213,
          "durationTicks": 120,
          "midi": 40,
          "name": "E2",
          "ticks": 24520,
          "time": 30.65,
          "velocity": 0.6614173228346457
        },
        {
          "duration": 0.15000000000000213,
          "durationTicks": 120,
          "midi": 42,
          "name": "F#2",
          "ticks": 24520,
          "time": 30.65,
          "velocity": 0.47244094488188976
        },
        {
          "duration": 0.15000000000000213,
          "durationTicks": 120,
          "midi": 36,
          "name": "C2",
          "ticks": 24760,
          "time": 30.95,
          "velocity": 0.984251968503937
        },
        {
          "duration": 0.15000000000000213,
          "durationTicks": 120,
          "midi": 42,
          "name": "F#2",
          "ticks": 24760,
          "time": 30.95,
          "velocity": 0.968503937007874
        },
        {
          "duration": 0.6000000000000014,
          "durationTicks": 480,
          "midi": 49,
          "name": "C#3",
          "ticks": 24760,
          "time": 30.95,
          "velocity": 0.7874015748031497
        },
        {
          "duration": 0.14999999999999858,
          "durationTicks": 120,
          "midi": 36,
          "name": "C2",
          "ticks": 25000,
          "time": 31.25,
          "velocity": 0.968503937007874
        },
        {
          "duration": 0.14999999999999858,
          "durationTicks": 120,
          "midi": 40,
          "name": "E2",
          "ticks": 25000,
          "time": 31.25,
          "velocity": 0.968503937007874
        },
        {
          "duration": 0.14999999999999858,
          "durationTicks": 120,
          "midi": 42,
          "name": "F#2",
          "ticks": 25000,
          "time": 31.25,
          "velocity": 0.47244094488188976
        },
        {
          "duration": 0.15000000000000213,
          "durationTicks": 120,
          "midi": 40,
          "name": "E2",
          "ticks": 25120,
          "time": 31.4,
          "velocity": 0.968503937007874
        },
        {
          "duration": 0.14999999999999858,
          "durationTicks": 120,
          "midi": 36,
          "name": "C2",
          "ticks": 25240,
          "time": 31.55,
          "velocity": 0.952755905511811
        },
        {
          "duration": 0.14999999999999858,
          "durationTicks": 120,
          "midi": 42,
          "name": "F#2",
          "ticks": 25240,
          "time": 31.55,
          "velocity": 0.952755905511811
        },
        {
          "duration": 0.5999999999999979,
          "durationTicks": 480,
          "midi": 49,
          "name": "C#3",
          "ticks": 25240,
          "time": 31.55,
          "velocity": 0.7874015748031497
        },
        {
          "duration": 0.14999999999999858,
          "durationTicks": 120,
          "midi": 36,
          "name": "C2",
          "ticks": 25480,
          "time": 31.85,
          "velocity": 0.968503937007874
        },
        {
          "duration": 0.14999999999999858,
          "durationTicks": 120,
          "midi": 42,
          "name": "F#2",
          "ticks": 25480,
          "time": 31.85,
          "velocity": 0.5433070866141733
        },
        {
          "duration": 0.14999999999999858,
          "durationTicks": 120,
          "midi": 36,
          "name": "C2",
          "ticks": 25600,
          "time": 32,
          "velocity": 0.984251968503937
        },
        {
          "duration": 0.14999999999999858,
          "durationTicks": 120,
          "midi": 36,
          "name": "C2",
          "ticks": 25720,
          "time": 32.15,
          "velocity": 0.952755905511811
        },
        {
          "duration": 0.19999999999999574,
          "durationTicks": 160,
          "midi": 40,
          "name": "E2",
          "ticks": 25720,
          "time": 32.15,
          "velocity": 0.7874015748031497
        },
        {
          "duration": 0.14999999999999858,
          "durationTicks": 120,
          "midi": 42,
          "name": "F#2",
          "ticks": 25720,
          "time": 32.15,
          "velocity": 0.952755905511811
        },
        {
          "duration": 0.6000000000000014,
          "durationTicks": 480,
          "midi": 49,
          "name": "C#3",
          "ticks": 25720,
          "time": 32.15,
          "velocity": 0.7874015748031497
        },
        {
          "duration": 0.14999999999999858,
          "durationTicks": 120,
          "midi": 36,
          "name": "C2",
          "ticks": 25960,
          "time": 32.45,
          "velocity": 0.7874015748031497
        },
        {
          "duration": 0.19999999999999574,
          "durationTicks": 160,
          "midi": 40,
          "name": "E2",
          "ticks": 25960,
          "time": 32.45,
          "velocity": 0.7874015748031497
        },
        {
          "duration": 0.14999999999999858,
          "durationTicks": 120,
          "midi": 42,
          "name": "F#2",
          "ticks": 25960,
          "time": 32.45,
          "velocity": 0.49606299212598426
        },
        {
          "duration": 0.14999999999999858,
          "durationTicks": 120,
          "midi": 36,
          "name": "C2",
          "ticks": 26200,
          "time": 32.75,
          "velocity": 0.7874015748031497
        },
        {
          "duration": 0.19999999999999574,
          "durationTicks": 160,
          "midi": 40,
          "name": "E2",
          "ticks": 26200,
          "time": 32.75,
          "velocity": 0.7874015748031497
        },
        {
          "duration": 0.14999999999999858,
          "durationTicks": 120,
          "midi": 42,
          "name": "F#2",
          "ticks": 26200,
          "time": 32.75,
          "velocity": 0.9291338582677166
        },
        {
          "duration": 0.6000000000000014,
          "durationTicks": 480,
          "midi": 49,
          "name": "C#3",
          "ticks": 26200,
          "time": 32.75,
          "velocity": 0.7874015748031497
        },
        {
          "duration": 0.15000000000000568,
          "durationTicks": 120,
          "midi": 40,
          "name": "E2",
          "ticks": 26440,
          "time": 33.05,
          "velocity": 0.7874015748031497
        },
        {
          "duration": 0.15000000000000568,
          "durationTicks": 120,
          "midi": 42,
          "name": "F#2",
          "ticks": 26440,
          "time": 33.05,
          "velocity": 0.47244094488188976
        },
        {
          "duration": 0.14999999999999858,
          "durationTicks": 120,
          "midi": 36,
          "name": "C2",
          "ticks": 26680,
          "time": 33.35,
          "velocity": 0.7874015748031497
        },
        {
          "duration": 0.14999999999999858,
          "durationTicks": 120,
          "midi": 42,
          "name": "F#2",
          "ticks": 26680,
          "time": 33.35,
          "velocity": 0.9291338582677166
        },
        {
          "duration": 0.6000000000000014,
          "durationTicks": 480,
          "midi": 49,
          "name": "C#3",
          "ticks": 26680,
          "time": 33.35,
          "velocity": 0.7874015748031497
        },
        {
          "duration": 0.14999999999999858,
          "durationTicks": 120,
          "midi": 40,
          "name": "E2",
          "ticks": 26800,
          "time": 33.5,
          "velocity": 0.7874015748031497
        },
        {
          "duration": 0.14999999999999858,
          "durationTicks": 120,
          "midi": 36,
          "name": "C2",
          "ticks": 26920,
          "time": 33.65,
          "velocity": 0.7874015748031497
        },
        {
          "duration": 0.14999999999999858,
          "durationTicks": 120,
          "midi": 42,
          "name": "F#2",
          "ticks": 26920,
          "time": 33.65,
          "velocity": 0.47244094488188976
        },
        {
          "duration": 0.14999999999999858,
          "durationTicks": 120,
          "midi": 40,
          "name": "E2",
          "ticks": 27160,
          "time": 33.95,
          "velocity": 0.7874015748031497
        },
        {
          "duration": 0.14999999999999858,
          "durationTicks": 120,
          "midi": 42,
          "name": "F#2",
          "ticks": 27160,
          "time": 33.95,
          "velocity": 0.952755905511811
        },
        {
          "duration": 0.5999999999999943,
          "durationTicks": 480,
          "midi": 49,
          "name": "C#3",
          "ticks": 27160,
          "time": 33.95,
          "velocity": 0.7874015748031497
        },
        {
          "duration": 0.14999999999999858,
          "durationTicks": 120,
          "midi": 46,
          "name": "A#2",
          "ticks": 27400,
          "time": 34.25,
          "velocity": 0.7795275590551181
        }
      ],
      "endOfTrackTicks": 28800
    }
  ]
}