{
  "header": {
    "keySignatures": [],
    "meta": [],
    "name": "",
    "ppq": 384,
    "tempos": [
      {
        "bpm": 115.6002543205595,
        "ticks": 0
      }
    ],
    "timeSignatures": [
      {
        "ticks": 0,
        "timeSignature": [
          4,
          4
        ],
        "measures": 0
      }
    ]
  },
  "tracks": [
    {
      "channel": 0,
      "controlChanges": {
        "7": [
          {
            "number": 7,
            "ticks": 1536,
            "time": 2.07612,
            "value": 0.8976377952755905
          }
        ],
        "10": [
          {
            "number": 10,
            "ticks": 1536,
            "time": 2.07612,
            "value": 0.3858267716535433
          }
        ],
        "91": [
          {
            "number": 91,
            "ticks": 1536,
            "time": 2.07612,
            "value": 0.3700787401574803
          }
        ],
        "93": [
          {
            "number": 93,
            "ticks": 1536,
            "time": 2.07612,
            "value": 0.25984251968503935
          }
        ]
      },
      "pitchBends": [],
      "instrument": {
        "family": "piano",
        "number": 0,
        "name": "acoustic grand piano"
      },
      "name": "VOICE OOHS",
      "notes": [],
      "endOfTrackTicks": 104526
    },
    {
      "channel": 0,
      "controlChanges": {
        "64": [
          {
            "number": 64,
            "ticks": 1536,
            "time": 2.07612,
            "value": 0
          }
        ]
      },
      "pitchBends": [
        {
          "ticks": 1536,
          "time": 2.07612,
          "value": 0
        }
      ],
      "instrument": {
        "family": "ensemble",
        "number": 53,
        "name": "voice oohs"
      },
      "name": "",
      "notes": [
        {
          "duration": 0.12975749999999975,
          "durationTicks": 96,
          "midi": 48,
          "name": "C3",
          "ticks": 1616,
          "time": 2.18425125,
          "velocity": 0.9291338582677166
        },
        {
          "duration": 0.12975749999999975,
          "durationTicks": 96,
          "midi": 53,
          "name": "F3",
          "ticks": 1710,
          "time": 2.31130546875,
          "velocity": 0.952755905511811
        },
        {
          "duration": 0.1297575000000002,
          "durationTicks": 96,
          "midi": 50,
          "name": "D3",
          "ticks": 1806,
          "time": 2.44106296875,
          "velocity": 0.8976377952755905
        },
        {
          "duration": 0.12975749999999975,
          "durationTicks": 96,
          "midi": 51,
          "name": "D#3",
          "ticks": 1902,
          "time": 2.57082046875,
          "velocity": 0.8818897637795275
        },
        {
          "duration": 0.1297575000000002,
          "durationTicks": 96,
          "midi": 58,
          "name": "A#3",
          "ticks": 1998,
          "time": 2.70057796875,
          "velocity": 0.9133858267716536
        },
        {
          "duration": 0.1297575000000002,
          "durationTicks": 96,
          "midi": 54,
          "name": "F#3",
          "ticks": 2094,
          "time": 2.83033546875,
          "velocity": 0.8661417322834646
        },
        {
          "duration": 0.12975749999999975,
          "durationTicks": 96,
          "midi": 55,
          "name": "G3",
          "ticks": 2190,
          "time": 2.96009296875,
          "velocity": 0.8503937007874016
        },
        {
          "duration": 0.1297575000000002,
          "durationTicks": 96,
          "midi": 65,
          "name": "F4",
          "ticks": 2286,
          "time": 3.08985046875,
          "velocity": 0.8818897637795275
        },
        {
          "duration": 0.12975749999999975,
          "durationTicks": 96,
          "midi": 48,
          "name": "C3",
          "ticks": 2382,
          "time": 3.21960796875,
          "velocity": 0.9291338582677166
        },
        {
          "duration": 0.1297575000000002,
          "durationTicks": 96,
          "midi": 56,
          "name": "G#3",
          "ticks": 2478,
          "time": 3.34936546875,
          "velocity": 0.952755905511811
        },
        {
          "duration": 0.12975749999999975,
          "durationTicks": 96,
          "midi": 53,
          "name": "F3",
          "ticks": 2574,
          "time": 3.47912296875,
          "velocity": 0.8976377952755905
        },
        {
          "duration": 0.1297575000000002,
          "durationTicks": 96,
          "midi": 54,
          "name": "F#3",
          "ticks": 2670,
          "time": 3.60888046875,
          "velocity": 0.8818897637795275
        },
        {
          "duration": 0.12975749999999975,
          "durationTicks": 96,
          "midi": 61,
          "name": "C#4",
          "ticks": 2766,
          "time": 3.73863796875,
          "velocity": 0.9133858267716536
        },
        {
          "duration": 0.1297575000000002,
          "durationTicks": 96,
          "midi": 57,
          "name": "A3",
          "ticks": 2862,
          "time": 3.8683954687499997,
          "velocity": 0.8661417322834646
        },
        {
          "duration": 0.12975749999999975,
          "durationTicks": 96,
          "midi": 58,
          "name": "A#3",
          "ticks": 2958,
          "time": 3.99815296875,
          "velocity": 0.8503937007874016
        },
        {
          "duration": 0.1297575000000002,
          "durationTicks": 96,
          "midi": 68,
          "name": "G#4",
          "ticks": 3054,
          "time": 4.12791046875,
          "velocity": 0.8818897637795275
        },
        {
          "duration": 0.1297575000000002,
          "durationTicks": 96,
          "midi": 39,
          "name": "D#2",
          "ticks": 3150,
          "time": 4.25766796875,
          "velocity": 0.984251968503937
        },
        {
          "duration": 0.1108345312499992,
          "durationTicks": 82,
          "midi": 51,
          "name": "D#3",
          "ticks": 3246,
          "time": 4.38742546875,
          "velocity": 0.8976377952755905
        },
        {
          "duration": 0.09731812500000014,
          "durationTicks": 72,
          "midi": 63,
          "name": "D#4",
          "ticks": 3340,
          "time": 4.5144796875,
          "velocity": 0.9606299212598425
        },
        {
          "duration": 0.10542796874999993,
          "durationTicks": 78,
          "midi": 51,
          "name": "D#3",
          "ticks": 3436,
          "time": 4.6442371875,
          "velocity": 0.9212598425196851
        },
        {
          "duration": 0.11624109375000025,
          "durationTicks": 86,
          "midi": 61,
          "name": "C#4",
          "ticks": 3534,
          "time": 4.77669796875,
          "velocity": 0.8976377952755905
        },
        {
          "duration": 0.09731812500000014,
          "durationTicks": 72,
          "midi": 60,
          "name": "C4",
          "ticks": 3628,
          "time": 4.903752187499999,
          "velocity": 0.8818897637795275
        },
        {
          "duration": 0.09191156249999999,
          "durationTicks": 68,
          "midi": 51,
          "name": "D#3",
          "ticks": 3724,
          "time": 5.0335096875,
          "velocity": 0.8818897637795275
        },
        {
          "duration": 0.09461484374999962,
          "durationTicks": 70,
          "midi": 58,
          "name": "A#3",
          "ticks": 3822,
          "time": 5.16597046875,
          "velocity": 0.984251968503937
        },
        {
          "duration": 0.08650499999999983,
          "durationTicks": 64,
          "midi": 51,
          "name": "D#3",
          "ticks": 3918,
          "time": 5.29572796875,
          "velocity": 0.8503937007874016
        },
        {
          "duration": 0.13786734374999998,
          "durationTicks": 102,
          "midi": 58,
          "name": "A#3",
          "ticks": 4014,
          "time": 5.42548546875,
          "velocity": 0.9606299212598425
        },
        {
          "duration": 0.09191156249999999,
          "durationTicks": 68,
          "midi": 56,
          "name": "G#3",
          "ticks": 4108,
          "time": 5.5525396874999995,
          "velocity": 0.9606299212598425
        },
        {
          "duration": 0.10542796874999993,
          "durationTicks": 78,
          "midi": 51,
          "name": "D#3",
          "ticks": 4204,
          "time": 5.6822971875,
          "velocity": 0.8818897637795275
        },
        {
          "duration": 0.1027246875000003,
          "durationTicks": 76,
          "midi": 54,
          "name": "F#3",
          "ticks": 4300,
          "time": 5.8120546875,
          "velocity": 1
        },
        {
          "duration": 0.10813125000000046,
          "durationTicks": 80,
          "midi": 51,
          "name": "D#3",
          "ticks": 4398,
          "time": 5.94451546875,
          "velocity": 0.8818897637795275
        },
        {
          "duration": 0.12435093750000092,
          "durationTicks": 92,
          "midi": 54,
          "name": "F#3",
          "ticks": 4492,
          "time": 6.071569687499999,
          "velocity": 0.9133858267716536
        },
        {
          "duration": 0.11894437500000077,
          "durationTicks": 88,
          "midi": 56,
          "name": "G#3",
          "ticks": 4588,
          "time": 6.2013271875,
          "velocity": 0.905511811023622
        },
        {
          "duration": 0.14597718749999977,
          "durationTicks": 108,
          "midi": 39,
          "name": "D#2",
          "ticks": 4684,
          "time": 6.3310846875,
          "velocity": 0.9606299212598425
        },
        {
          "duration": 0.11083453125000009,
          "durationTicks": 82,
          "midi": 51,
          "name": "D#3",
          "ticks": 4780,
          "time": 6.4608421875,
          "velocity": 0.968503937007874
        },
        {
          "duration": 0.10542796874999993,
          "durationTicks": 78,
          "midi": 63,
          "name": "D#4",
          "ticks": 4876,
          "time": 6.590599687499999,
          "velocity": 0.9606299212598425
        },
        {
          "duration": 0.10542796874999993,
          "durationTicks": 78,
          "midi": 51,
          "name": "D#3",
          "ticks": 4974,
          "time": 6.72306046875,
          "velocity": 0.889763779527559
        },
        {
          "duration": 0.15408703124999956,
          "durationTicks": 114,
          "midi": 61,
          "name": "C#4",
          "ticks": 5070,
          "time": 6.85281796875,
          "velocity": 0.968503937007874
        },
        {
          "duration": 0.10542796875000082,
          "durationTicks": 78,
          "midi": 60,
          "name": "C4",
          "ticks": 5166,
          "time": 6.9825754687499995,
          "velocity": 1
        },
        {
          "duration": 0.10542796874999993,
          "durationTicks": 78,
          "midi": 51,
          "name": "D#3",
          "ticks": 5260,
          "time": 7.1096296875,
          "velocity": 0.8740157480314961
        },
        {
          "duration": 0.09191156249999999,
          "durationTicks": 68,
          "midi": 58,
          "name": "A#3",
          "ticks": 5358,
          "time": 7.24209046875,
          "velocity": 0.9448818897637795
        },
        {
          "duration": 0.10813125000000046,
          "durationTicks": 80,
          "midi": 51,
          "name": "D#3",
          "ticks": 5454,
          "time": 7.37184796875,
          "velocity": 0.8818897637795275
        },
        {
          "duration": 0.12164765624999951,
          "durationTicks": 90,
          "midi": 58,
          "name": "A#3",
          "ticks": 5550,
          "time": 7.50160546875,
          "velocity": 0.984251968503937
        },
        {
          "duration": 0.08650499999999983,
          "durationTicks": 64,
          "midi": 56,
          "name": "G#3",
          "ticks": 5646,
          "time": 7.6313629687499995,
          "velocity": 0.8818897637795275
        },
        {
          "duration": 0.0946148437500014,
          "durationTicks": 70,
          "midi": 51,
          "name": "D#3",
          "ticks": 5740,
          "time": 7.758417187499999,
          "velocity": 0.8976377952755905
        },
        {
          "duration": 0.10272468750000119,
          "durationTicks": 76,
          "midi": 54,
          "name": "F#3",
          "ticks": 5836,
          "time": 7.888174687499999,
          "velocity": 0.968503937007874
        },
        {
          "duration": 0.10542796874999993,
          "durationTicks": 78,
          "midi": 51,
          "name": "D#3",
          "ticks": 5934,
          "time": 8.02063546875,
          "velocity": 0.889763779527559
        },
        {
          "duration": 0.11353781250000061,
          "durationTicks": 84,
          "midi": 54,
          "name": "F#3",
          "ticks": 6028,
          "time": 8.1476896875,
          "velocity": 0.9606299212598425
        },
        {
          "duration": 0.1108345312499992,
          "durationTicks": 82,
          "midi": 56,
          "name": "G#3",
          "ticks": 6122,
          "time": 8.27474390625,
          "velocity": 0.9212598425196851
        },
        {
          "duration": 0.1324607812500016,
          "durationTicks": 98,
          "midi": 39,
          "name": "D#2",
          "ticks": 6218,
          "time": 8.404501406249999,
          "velocity": 0.984251968503937
        },
        {
          "duration": 0.09731812499999926,
          "durationTicks": 72,
          "midi": 51,
          "name": "D#3",
          "ticks": 6316,
          "time": 8.5369621875,
          "velocity": 0.8976377952755905
        },
        {
          "duration": 0.10542796874999993,
          "durationTicks": 78,
          "midi": 63,
          "name": "D#4",
          "ticks": 6412,
          "time": 8.6667196875,
          "velocity": 0.9606299212598425
        },
        {
          "duration": 0.10272468749999852,
          "durationTicks": 76,
          "midi": 51,
          "name": "D#3",
          "ticks": 6508,
          "time": 8.7964771875,
          "velocity": 0.8818897637795275
        },
        {
          "duration": 0.16219687499999935,
          "durationTicks": 120,
          "midi": 61,
          "name": "C#4",
          "ticks": 6604,
          "time": 8.926234687500001,
          "velocity": 0.968503937007874
        },
        {
          "duration": 0.11624109374999847,
          "durationTicks": 86,
          "midi": 60,
          "name": "C4",
          "ticks": 6700,
          "time": 9.055992187500001,
          "velocity": 1
        },
        {
          "duration": 0.10813124999999779,
          "durationTicks": 80,
          "midi": 51,
          "name": "D#3",
          "ticks": 6796,
          "time": 9.185749687500001,
          "velocity": 0.8818897637795275
        },
        {
          "duration": 0.10813124999999957,
          "durationTicks": 80,
          "midi": 58,
          "name": "A#3",
          "ticks": 6892,
          "time": 9.3155071875,
          "velocity": 0.968503937007874
        },
        {
          "duration": 0.10002140624999889,
          "durationTicks": 74,
          "midi": 51,
          "name": "D#3",
          "ticks": 6990,
          "time": 9.44796796875,
          "velocity": 0.8818897637795275
        },
        {
          "duration": 0.15949359374999972,
          "durationTicks": 118,
          "midi": 58,
          "name": "A#3",
          "ticks": 7084,
          "time": 9.5750221875,
          "velocity": 1
        },
        {
          "duration": 0.09731812500000103,
          "durationTicks": 72,
          "midi": 56,
          "name": "G#3",
          "ticks": 7180,
          "time": 9.7047796875,
          "velocity": 0.984251968503937
        },
        {
          "duration": 0.10272468749999852,
          "durationTicks": 76,
          "midi": 51,
          "name": "D#3",
          "ticks": 7276,
          "time": 9.8345371875,
          "velocity": 0.8818897637795275
        },
        {
          "duration": 0.10542796874999993,
          "durationTicks": 78,
          "midi": 54,
          "name": "F#3",
          "ticks": 7372,
          "time": 9.9642946875,
          "velocity": 0.9448818897637795
        },
        {
          "duration": 0.1108345312499992,
          "durationTicks": 82,
          "midi": 51,
          "name": "D#3",
          "ticks": 7470,
          "time": 10.09675546875,
          "velocity": 0.9291338582677166
        },
        {
          "duration": 0.12435093749999915,
          "durationTicks": 92,
          "midi": 54,
          "name": "F#3",
          "ticks": 7564,
          "time": 10.223809687500001,
          "velocity": 0.9133858267716536
        },
        {
          "duration": 0.11083453124999743,
          "durationTicks": 82,
          "midi": 56,
          "name": "G#3",
          "ticks": 7660,
          "time": 10.353567187500001,
          "velocity": 0.9212598425196851
        },
        {
          "duration": 0.1378673437499991,
          "durationTicks": 102,
          "midi": 39,
          "name": "D#2",
          "ticks": 7754,
          "time": 10.48062140625,
          "velocity": 0.9448818897637795
        },
        {
          "duration": 0.10002140625000067,
          "durationTicks": 74,
          "midi": 51,
          "name": "D#3",
          "ticks": 7852,
          "time": 10.6130821875,
          "velocity": 0.9606299212598425
        },
        {
          "duration": 0.10813124999999957,
          "durationTicks": 80,
          "midi": 63,
          "name": "D#4",
          "ticks": 7948,
          "time": 10.7428396875,
          "velocity": 0.9448818897637795
        },
        {
          "duration": 0.1108345312499992,
          "durationTicks": 82,
          "midi": 51,
          "name": "D#3",
          "ticks": 8044,
          "time": 10.8725971875,
          "velocity": 0.9212598425196851
        },
        {
          "duration": 0.17030671875000003,
          "durationTicks": 126,
          "midi": 61,
          "name": "C#4",
          "ticks": 8140,
          "time": 11.0023546875,
          "velocity": 0.968503937007874
        },
        {
          "duration": 0.11353781250000061,
          "durationTicks": 84,
          "midi": 60,
          "name": "C4",
          "ticks": 8236,
          "time": 11.1321121875,
          "velocity": 1
        },
        {
          "duration": 0.09731812499999926,
          "durationTicks": 72,
          "midi": 51,
          "name": "D#3",
          "ticks": 8332,
          "time": 11.2618696875,
          "velocity": 0.8818897637795275
        },
        {
          "duration": 0.10813124999999957,
          "durationTicks": 80,
          "midi": 58,
          "name": "A#3",
          "ticks": 8428,
          "time": 11.391627187500001,
          "velocity": 1
        },
        {
          "duration": 0.09191156249999999,
          "durationTicks": 68,
          "midi": 51,
          "name": "D#3",
          "ticks": 8526,
          "time": 11.524087968749999,
          "velocity": 0.8582677165354331
        },
        {
          "duration": 0.16219687500000113,
          "durationTicks": 120,
          "midi": 58,
          "name": "A#3",
          "ticks": 8620,
          "time": 11.6511421875,
          "velocity": 0.984251968503937
        },
        {
          "duration": 0.09461484374999962,
          "durationTicks": 70,
          "midi": 56,
          "name": "G#3",
          "ticks": 8716,
          "time": 11.7808996875,
          "velocity": 0.9448818897637795
        },
        {
          "duration": 0.11894437499999988,
          "durationTicks": 88,
          "midi": 51,
          "name": "D#3",
          "ticks": 8812,
          "time": 11.9106571875,
          "velocity": 0.9133858267716536
        },
        {
          "duration": 0.10272468749999852,
          "durationTicks": 76,
          "midi": 54,
          "name": "F#3",
          "ticks": 8908,
          "time": 12.0404146875,
          "velocity": 0.968503937007874
        },
        {
          "duration": 0.08650500000000072,
          "durationTicks": 64,
          "midi": 39,
          "name": "D#2",
          "ticks": 9006,
          "time": 12.17287546875,
          "velocity": 0.968503937007874
        },
        {
          "duration": 0.14057062499999873,
          "durationTicks": 104,
          "midi": 54,
          "name": "F#3",
          "ticks": 9100,
          "time": 12.2999296875,
          "velocity": 0.9133858267716536
        },
        {
          "duration": 0.10002140624999889,
          "durationTicks": 74,
          "midi": 56,
          "name": "G#3",
          "ticks": 9196,
          "time": 12.4296871875,
          "velocity": 0.9448818897637795
        },
        {
          "duration": 0.1297575000000002,
          "durationTicks": 96,
          "midi": 44,
          "name": "G#2",
          "ticks": 12360,
          "time": 16.706278125,
          "velocity": 0.984251968503937
        },
        {
          "duration": 0.09731812500000103,
          "durationTicks": 72,
          "midi": 51,
          "name": "D#3",
          "ticks": 12458,
          "time": 16.83873890625,
          "velocity": 0.9212598425196851
        },
        {
          "duration": 0.1027246875000003,
          "durationTicks": 76,
          "midi": 61,
          "name": "C#4",
          "ticks": 12554,
          "time": 16.96849640625,
          "velocity": 0.9448818897637795
        },
        {
          "duration": 0.08380171874999576,
          "durationTicks": 62,
          "midi": 51,
          "name": "D#3",
          "ticks": 12650,
          "time": 17.09825390625,
          "velocity": 0.9212598425196851
        },
        {
          "duration": 0.09191156250000176,
          "durationTicks": 68,
          "midi": 56,
          "name": "G#3",
          "ticks": 12844,
          "time": 17.360472187499997,
          "velocity": 0.984251968503937
        },
        {
          "duration": 0.08109843749999968,
          "durationTicks": 60,
          "midi": 51,
          "name": "D#3",
          "ticks": 12938,
          "time": 17.48752640625,
          "velocity": 0.9133858267716536
        },
        {
          "duration": 0.09191156250000176,
          "durationTicks": 68,
          "midi": 54,
          "name": "F#3",
          "ticks": 13036,
          "time": 17.619987187499998,
          "velocity": 0.984251968503937
        },
        {
          "duration": 0.07028531250000469,
          "durationTicks": 52,
          "midi": 51,
          "name": "D#3",
          "ticks": 13132,
          "time": 17.749744687499998,
          "velocity": 0.9133858267716536
        },
        {
          "duration": 0.10542796874999993,
          "durationTicks": 78,
          "midi": 54,
          "name": "F#3",
          "ticks": 13228,
          "time": 17.879502187499998,
          "velocity": 0.984251968503937
        },
        {
          "duration": 0.08920828124999858,
          "durationTicks": 66,
          "midi": 51,
          "name": "D#3",
          "ticks": 13322,
          "time": 18.006556406250002,
          "velocity": 0.9133858267716536
        },
        {
          "duration": 0.07839515624999649,
          "durationTicks": 58,
          "midi": 51,
          "name": "D#3",
          "ticks": 13418,
          "time": 18.136313906250003,
          "velocity": 0.9291338582677166
        },
        {
          "duration": 0.10272468749999675,
          "durationTicks": 76,
          "midi": 54,
          "name": "F#3",
          "ticks": 13514,
          "time": 18.266071406250003,
          "velocity": 0.984251968503937
        },
        {
          "duration": 0.08109843749999968,
          "durationTicks": 60,
          "midi": 51,
          "name": "D#3",
          "ticks": 13612,
          "time": 18.3985321875,
          "velocity": 0.9212598425196851
        },
        {
          "duration": 0.12164765625000129,
          "durationTicks": 90,
          "midi": 54,
          "name": "F#3",
          "ticks": 13706,
          "time": 18.52558640625,
          "velocity": 0.984251968503937
        },
        {
          "duration": 0.11624109374999847,
          "durationTicks": 86,
          "midi": 56,
          "name": "G#3",
          "ticks": 13802,
          "time": 18.65534390625,
          "velocity": 0.9606299212598425
        },
        {
          "duration": 0.13246078124999983,
          "durationTicks": 98,
          "midi": 44,
          "name": "G#2",
          "ticks": 13898,
          "time": 18.78510140625,
          "velocity": 0.968503937007874
        },
        {
          "duration": 0.10002140624999711,
          "durationTicks": 74,
          "midi": 51,
          "name": "D#3",
          "ticks": 13994,
          "time": 18.91485890625,
          "velocity": 0.9448818897637795
        },
        {
          "duration": 0.10002140624999711,
          "durationTicks": 74,
          "midi": 61,
          "name": "C#4",
          "ticks": 14090,
          "time": 19.04461640625,
          "velocity": 0.9291338582677166
        },
        {
          "duration": 0.08380171874999931,
          "durationTicks": 62,
          "midi": 51,
          "name": "D#3",
          "ticks": 14186,
          "time": 19.17437390625,
          "velocity": 0.8976377952755905
        },
        {
          "duration": 0.09731812500000103,
          "durationTicks": 72,
          "midi": 56,
          "name": "G#3",
          "ticks": 14378,
          "time": 19.43388890625,
          "velocity": 0.9212598425196851
        },
        {
          "duration": 0.07028531249999759,
          "durationTicks": 52,
          "midi": 51,
          "name": "D#3",
          "ticks": 14474,
          "time": 19.56364640625,
          "velocity": 0.8976377952755905
        },
        {
          "duration": 0.09731812500000103,
          "durationTicks": 72,
          "midi": 54,
          "name": "F#3",
          "ticks": 14570,
          "time": 19.69340390625,
          "velocity": 0.968503937007874
        },
        {
          "duration": 0.0675820312500015,
          "durationTicks": 50,
          "midi": 51,
          "name": "D#3",
          "ticks": 14668,
          "time": 19.825864687499998,
          "velocity": 0.8976377952755905
        },
        {
          "duration": 0.11894437500000166,
          "durationTicks": 88,
          "midi": 54,
          "name": "F#3",
          "ticks": 14764,
          "time": 19.955622187499998,
          "velocity": 0.9606299212598425
        },
        {
          "duration": 0.10813125000000312,
          "durationTicks": 80,
          "midi": 51,
          "name": "D#3",
          "ticks": 14860,
          "time": 20.085379687499998,
          "velocity": 0.9291338582677166
        },
        {
          "duration": 0.07028531249999759,
          "durationTicks": 52,
          "midi": 51,
          "name": "D#3",
          "ticks": 14958,
          "time": 20.21784046875,
          "velocity": 0.9212598425196851
        },
        {
          "duration": 0.10272468749999675,
          "durationTicks": 76,
          "midi": 54,
          "name": "F#3",
          "ticks": 15050,
          "time": 20.342191406250002,
          "velocity": 1
        },
        {
          "duration": 0.07298859375000077,
          "durationTicks": 54,
          "midi": 51,
          "name": "D#3",
          "ticks": 15148,
          "time": 20.4746521875,
          "velocity": 0.9212598425196851
        },
        {
          "duration": 0.08380171874999576,
          "durationTicks": 62,
          "midi": 51,
          "name": "D#3",
          "ticks": 15242,
          "time": 20.601706406250003,
          "velocity": 0.9448818897637795
        },
        {
          "duration": 0.1189443749999981,
          "durationTicks": 88,
          "midi": 54,
          "name": "F#3",
          "ticks": 15336,
          "time": 20.728760625,
          "velocity": 0.984251968503937
        },
        {
          "duration": 0.1108345312499992,
          "durationTicks": 82,
          "midi": 51,
          "name": "D#3",
          "ticks": 18606,
          "time": 25.148625468749998,
          "velocity": 0.8976377952755905
        },
        {
          "duration": 0.09731812500000103,
          "durationTicks": 72,
          "midi": 63,
          "name": "D#4",
          "ticks": 18700,
          "time": 25.2756796875,
          "velocity": 0.9606299212598425
        },
        {
          "duration": 0.10542796874999993,
          "durationTicks": 78,
          "midi": 51,
          "name": "D#3",
          "ticks": 18796,
          "time": 25.4054371875,
          "velocity": 0.9212598425196851
        },
        {
          "duration": 0.11624109375000202,
          "durationTicks": 86,
          "midi": 61,
          "name": "C#4",
          "ticks": 18894,
          "time": 25.53789796875,
          "velocity": 0.8976377952755905
        },
        {
          "duration": 0.09731812500000103,
          "durationTicks": 72,
          "midi": 60,
          "name": "C4",
          "ticks": 18988,
          "time": 25.6649521875,
          "velocity": 0.8818897637795275
        },
        {
          "duration": 0.09191156250000176,
          "durationTicks": 68,
          "midi": 51,
          "name": "D#3",
          "ticks": 19084,
          "time": 25.7947096875,
          "velocity": 0.8818897637795275
        },
        {
          "duration": 0.09461484374999785,
          "durationTicks": 70,
          "midi": 58,
          "name": "A#3",
          "ticks": 19182,
          "time": 25.92717046875,
          "velocity": 0.984251968503937
        },
        {
          "duration": 0.08650499999999894,
          "durationTicks": 64,
          "midi": 51,
          "name": "D#3",
          "ticks": 19278,
          "time": 26.05692796875,
          "velocity": 0.8503937007874016
        },
        {
          "duration": 0.1378673437499991,
          "durationTicks": 102,
          "midi": 58,
          "name": "A#3",
          "ticks": 19374,
          "time": 26.18668546875,
          "velocity": 0.9606299212598425
        },
        {
          "duration": 0.09191156249999821,
          "durationTicks": 68,
          "midi": 56,
          "name": "G#3",
          "ticks": 19468,
          "time": 26.3137396875,
          "velocity": 0.9606299212598425
        },
        {
          "duration": 0.10542796874999993,
          "durationTicks": 78,
          "midi": 51,
          "name": "D#3",
          "ticks": 19564,
          "time": 26.443497187499997,
          "velocity": 0.8818897637795275
        },
        {
          "duration": 0.10272468750000385,
          "durationTicks": 76,
          "midi": 54,
          "name": "F#3",
          "ticks": 19660,
          "time": 26.573254687499997,
          "velocity": 1
        },
        {
          "duration": 0.10813124999999957,
          "durationTicks": 80,
          "midi": 51,
          "name": "D#3",
          "ticks": 19758,
          "time": 26.70571546875,
          "velocity": 0.8818897637795275
        },
        {
          "duration": 0.12435093750000092,
          "durationTicks": 92,
          "midi": 54,
          "name": "F#3",
          "ticks": 19852,
          "time": 26.832769687499997,
          "velocity": 0.9133858267716536
        },
        {
          "duration": 0.11894437500000166,
          "durationTicks": 88,
          "midi": 56,
          "name": "G#3",
          "ticks": 19948,
          "time": 26.962527187499997,
          "velocity": 0.905511811023622
        },
        {
          "duration": 0.14597718750000155,
          "durationTicks": 108,
          "midi": 39,
          "name": "D#2",
          "ticks": 20044,
          "time": 27.092284687499998,
          "velocity": 0.9606299212598425
        },
        {
          "duration": 0.11083453125000275,
          "durationTicks": 82,
          "midi": 51,
          "name": "D#3",
          "ticks": 20140,
          "time": 27.222042187499998,
          "velocity": 0.968503937007874
        },
        {
          "duration": 0.10542796874999993,
          "durationTicks": 78,
          "midi": 63,
          "name": "D#4",
          "ticks": 20236,
          "time": 27.351799687499998,
          "velocity": 0.9606299212598425
        },
        {
          "duration": 0.10542796874999993,
          "durationTicks": 78,
          "midi": 51,
          "name": "D#3",
          "ticks": 20334,
          "time": 27.484260468749998,
          "velocity": 0.889763779527559
        },
        {
          "duration": 0.15408703125000045,
          "durationTicks": 114,
          "midi": 61,
          "name": "C#4",
          "ticks": 20430,
          "time": 27.614017968749998,
          "velocity": 0.968503937007874
        },
        {
          "duration": 0.10542796874999993,
          "durationTicks": 78,
          "midi": 60,
          "name": "C4",
          "ticks": 20526,
          "time": 27.74377546875,
          "velocity": 1
        },
        {
          "duration": 0.10542796874999993,
          "durationTicks": 78,
          "midi": 51,
          "name": "D#3",
          "ticks": 20620,
          "time": 27.8708296875,
          "velocity": 0.8740157480314961
        },
        {
          "duration": 0.09191156250000176,
          "durationTicks": 68,
          "midi": 58,
          "name": "A#3",
          "ticks": 20718,
          "time": 28.00329046875,
          "velocity": 0.9448818897637795
        },
        {
          "duration": 0.10813125000000312,
          "durationTicks": 80,
          "midi": 51,
          "name": "D#3",
          "ticks": 20814,
          "time": 28.13304796875,
          "velocity": 0.8818897637795275
        },
        {
          "duration": 0.12164765625000129,
          "durationTicks": 90,
          "midi": 58,
          "name": "A#3",
          "ticks": 20910,
          "time": 28.26280546875,
          "velocity": 0.984251968503937
        },
        {
          "duration": 0.08650499999999894,
          "durationTicks": 64,
          "midi": 56,
          "name": "G#3",
          "ticks": 21006,
          "time": 28.39256296875,
          "velocity": 0.8818897637795275
        },
        {
          "duration": 0.0946148437500014,
          "durationTicks": 70,
          "midi": 51,
          "name": "D#3",
          "ticks": 21100,
          "time": 28.5196171875,
          "velocity": 0.8976377952755905
        },
        {
          "duration": 0.1027246875000003,
          "durationTicks": 76,
          "midi": 54,
          "name": "F#3",
          "ticks": 21196,
          "time": 28.6493746875,
          "velocity": 0.968503937007874
        },
        {
          "duration": 0.10542796874999993,
          "durationTicks": 78,
          "midi": 51,
          "name": "D#3",
          "ticks": 21294,
          "time": 28.78183546875,
          "velocity": 0.889763779527559
        },
        {
          "duration": 0.11353781250000239,
          "durationTicks": 84,
          "midi": 54,
          "name": "F#3",
          "ticks": 21388,
          "time": 28.908889687499997,
          "velocity": 0.9606299212598425
        },
        {
          "duration": 0.1108345312499992,
          "durationTicks": 82,
          "midi": 56,
          "name": "G#3",
          "ticks": 21482,
          "time": 29.03594390625,
          "velocity": 0.9212598425196851
        },
        {
          "duration": 0.13246078124999627,
          "durationTicks": 98,
          "midi": 39,
          "name": "D#2",
          "ticks": 21578,
          "time": 29.16570140625,
          "velocity": 0.984251968503937
        },
        {
          "duration": 0.05136234375000015,
          "durationTicks": 38,
          "midi": 63,
          "name": "D#4",
          "ticks": 32430,
          "time": 43.83370546875,
          "velocity": 0.9606299212598425
        },
        {
          "duration": 0.05136234375000015,
          "durationTicks": 38,
          "midi": 51,
          "name": "D#3",
          "ticks": 32430,
          "time": 43.83370546875,
          "velocity": 0.9606299212598425
        },
        {
          "duration": 0.054065624999999784,
          "durationTicks": 40,
          "midi": 63,
          "name": "D#4",
          "ticks": 32526,
          "time": 43.96346296875,
          "velocity": 0.9448818897637795
        },
        {
          "duration": 0.054065624999999784,
          "durationTicks": 40,
          "midi": 75,
          "name": "D#5",
          "ticks": 32526,
          "time": 43.96346296875,
          "velocity": 0.9448818897637795
        },
        {
          "duration": 0.05676890624999942,
          "durationTicks": 42,
          "midi": 51,
          "name": "D#3",
          "ticks": 32622,
          "time": 44.09322046875,
          "velocity": 0.9212598425196851
        },
        {
          "duration": 0.05676890624999942,
          "durationTicks": 42,
          "midi": 63,
          "name": "D#4",
          "ticks": 32622,
          "time": 44.09322046875,
          "velocity": 0.9212598425196851
        },
        {
          "duration": 0.0865050000000025,
          "durationTicks": 64,
          "midi": 61,
          "name": "C#4",
          "ticks": 32718,
          "time": 44.22297796875,
          "velocity": 0.968503937007874
        },
        {
          "duration": 0.0865050000000025,
          "durationTicks": 64,
          "midi": 73,
          "name": "C#5",
          "ticks": 32718,
          "time": 44.22297796875,
          "velocity": 0.968503937007874
        },
        {
          "duration": 0.05676890624999942,
          "durationTicks": 42,
          "midi": 60,
          "name": "C4",
          "ticks": 32814,
          "time": 44.35273546875,
          "velocity": 1
        },
        {
          "duration": 0.05676890624999942,
          "durationTicks": 42,
          "midi": 72,
          "name": "C5",
          "ticks": 32814,
          "time": 44.35273546875,
          "velocity": 1
        },
        {
          "duration": 0.051362343749993045,
          "durationTicks": 38,
          "midi": 51,
          "name": "D#3",
          "ticks": 32910,
          "time": 44.48249296875,
          "velocity": 0.8818897637795275
        },
        {
          "duration": 0.051362343749993045,
          "durationTicks": 38,
          "midi": 63,
          "name": "D#4",
          "ticks": 32910,
          "time": 44.48249296875,
          "velocity": 0.8818897637795275
        },
        {
          "duration": 0.05406562500000689,
          "durationTicks": 40,
          "midi": 58,
          "name": "A#3",
          "ticks": 33006,
          "time": 44.61225046875,
          "velocity": 1
        },
        {
          "duration": 0.05406562500000689,
          "durationTicks": 40,
          "midi": 70,
          "name": "A#4",
          "ticks": 33006,
          "time": 44.61225046875,
          "velocity": 1
        },
        {
          "duration": 0.04595578125000088,
          "durationTicks": 34,
          "midi": 51,
          "name": "D#3",
          "ticks": 33102,
          "time": 44.74200796875,
          "velocity": 0.8582677165354331
        },
        {
          "duration": 0.04595578125000088,
          "durationTicks": 34,
          "midi": 63,
          "name": "D#4",
          "ticks": 33102,
          "time": 44.74200796875,
          "velocity": 0.8582677165354331
        },
        {
          "duration": 0.08109843750000323,
          "durationTicks": 60,
          "midi": 58,
          "name": "A#3",
          "ticks": 33198,
          "time": 44.87176546875,
          "velocity": 0.984251968503937
        },
        {
          "duration": 0.08109843750000323,
          "durationTicks": 60,
          "midi": 70,
          "name": "A#4",
          "ticks": 33198,
          "time": 44.87176546875,
          "velocity": 0.984251968503937
        },
        {
          "duration": 0.04865906249999341,
          "durationTicks": 36,
          "midi": 56,
          "name": "G#3",
          "ticks": 33294,
          "time": 45.00152296875,
          "velocity": 0.9448818897637795
        },
        {
          "duration": 0.04865906249999341,
          "durationTicks": 36,
          "midi": 68,
          "name": "G#4",
          "ticks": 33294,
          "time": 45.00152296875,
          "velocity": 0.9448818897637795
        },
        {
          "duration": 0.05947218749999905,
          "durationTicks": 44,
          "midi": 51,
          "name": "D#3",
          "ticks": 33390,
          "time": 45.13128046875,
          "velocity": 0.9133858267716536
        },
        {
          "duration": 0.05947218749999905,
          "durationTicks": 44,
          "midi": 63,
          "name": "D#4",
          "ticks": 33390,
          "time": 45.13128046875,
          "velocity": 0.9133858267716536
        },
        {
          "duration": 0.05136234375000015,
          "durationTicks": 38,
          "midi": 54,
          "name": "F#3",
          "ticks": 33486,
          "time": 45.261037968749996,
          "velocity": 0.968503937007874
        },
        {
          "duration": 0.05136234375000015,
          "durationTicks": 38,
          "midi": 66,
          "name": "F#4",
          "ticks": 33486,
          "time": 45.261037968749996,
          "velocity": 0.968503937007874
        },
        {
          "duration": 0.04595578125000088,
          "durationTicks": 34,
          "midi": 39,
          "name": "D#2",
          "ticks": 33582,
          "time": 45.39079546875,
          "velocity": 0.968503937007874
        },
        {
          "duration": 0.04595578125000088,
          "durationTicks": 34,
          "midi": 51,
          "name": "D#3",
          "ticks": 33582,
          "time": 45.39079546875,
          "velocity": 0.968503937007874
        },
        {
          "duration": 0.07298859375000433,
          "durationTicks": 54,
          "midi": 54,
          "name": "F#3",
          "ticks": 33678,
          "time": 45.520552968749996,
          "velocity": 0.9133858267716536
        },
        {
          "duration": 0.07298859375000433,
          "durationTicks": 54,
          "midi": 66,
          "name": "F#4",
          "ticks": 33678,
          "time": 45.520552968749996,
          "velocity": 0.9133858267716536
        },
        {
          "duration": 0.05136234375000015,
          "durationTicks": 38,
          "midi": 68,
          "name": "G#4",
          "ticks": 33774,
          "time": 45.65031046875,
          "velocity": 0.9448818897637795
        },
        {
          "duration": 0.05136234375000015,
          "durationTicks": 38,
          "midi": 56,
          "name": "G#3",
          "ticks": 33774,
          "time": 45.65031046875,
          "velocity": 0.9448818897637795
        },
        {
          "duration": 0.11083453125000631,
          "durationTicks": 82,
          "midi": 51,
          "name": "D#3",
          "ticks": 46248,
          "time": 62.510675625,
          "velocity": 0.9212598425196851
        },
        {
          "duration": 0.1027246875000003,
          "durationTicks": 76,
          "midi": 61,
          "name": "C#4",
          "ticks": 46344,
          "time": 62.640433125,
          "velocity": 0.9291338582677166
        },
        {
          "duration": 0.07028531250000469,
          "durationTicks": 52,
          "midi": 51,
          "name": "D#3",
          "ticks": 46442,
          "time": 62.77289390625,
          "velocity": 0.889763779527559
        },
        {
          "duration": 0.0946148437500014,
          "durationTicks": 70,
          "midi": 56,
          "name": "G#3",
          "ticks": 46634,
          "time": 63.03240890625,
          "velocity": 0.9448818897637795
        },
        {
          "duration": 0.06487875000000543,
          "durationTicks": 48,
          "midi": 51,
          "name": "D#3",
          "ticks": 46730,
          "time": 63.162166406249995,
          "velocity": 0.8818897637795275
        },
        {
          "duration": 0.10002140625000067,
          "durationTicks": 74,
          "midi": 54,
          "name": "F#3",
          "ticks": 46826,
          "time": 63.29192390625,
          "velocity": 0.984251968503937
        },
        {
          "duration": 0.06758203125000506,
          "durationTicks": 50,
          "midi": 51,
          "name": "D#3",
          "ticks": 46922,
          "time": 63.421681406249995,
          "velocity": 0.8976377952755905
        },
        {
          "duration": 0.127054218749997,
          "durationTicks": 94,
          "midi": 54,
          "name": "F#3",
          "ticks": 47018,
          "time": 63.55143890625,
          "velocity": 0.9606299212598425
        },
        {
          "duration": 0.09731812500000103,
          "durationTicks": 72,
          "midi": 51,
          "name": "D#3",
          "ticks": 47112,
          "time": 63.678493124999996,
          "velocity": 0.9212598425196851
        },
        {
          "duration": 0.0946148437500014,
          "durationTicks": 70,
          "midi": 51,
          "name": "D#3",
          "ticks": 47208,
          "time": 63.808250625,
          "velocity": 0.9448818897637795
        },
        {
          "duration": 0.10002140625000067,
          "durationTicks": 74,
          "midi": 54,
          "name": "F#3",
          "ticks": 47306,
          "time": 63.940711406249996,
          "velocity": 1
        },
        {
          "duration": 0.08109843749998902,
          "durationTicks": 60,
          "midi": 51,
          "name": "D#3",
          "ticks": 47404,
          "time": 64.0731721875,
          "velocity": 0.984251968503937
        },
        {
          "duration": 0.11353781249999884,
          "durationTicks": 84,
          "midi": 54,
          "name": "F#3",
          "ticks": 47498,
          "time": 64.20022640625,
          "velocity": 0.9606299212598425
        },
        {
          "duration": 0.10813125000001378,
          "durationTicks": 80,
          "midi": 56,
          "name": "G#3",
          "ticks": 47594,
          "time": 64.32998390624999,
          "velocity": 0.968503937007874
        },
        {
          "duration": 0.12975749999999664,
          "durationTicks": 96,
          "midi": 44,
          "name": "G#2",
          "ticks": 47688,
          "time": 64.457038125,
          "velocity": 0.9606299212598425
        },
        {
          "duration": 0.08920828124999503,
          "durationTicks": 66,
          "midi": 51,
          "name": "D#3",
          "ticks": 47786,
          "time": 64.58949890625,
          "velocity": 0.9448818897637795
        },
        {
          "duration": 0.1027246875000003,
          "durationTicks": 76,
          "midi": 61,
          "name": "C#4",
          "ticks": 47882,
          "time": 64.71925640625,
          "velocity": 0.9606299212598425
        },
        {
          "duration": 0.08380171875000997,
          "durationTicks": 62,
          "midi": 51,
          "name": "D#3",
          "ticks": 47978,
          "time": 64.84901390625,
          "velocity": 0.9291338582677166
        },
        {
          "duration": 0.09461484374999429,
          "durationTicks": 70,
          "midi": 56,
          "name": "G#3",
          "ticks": 48172,
          "time": 65.11123218750001,
          "velocity": 0.9606299212598425
        },
        {
          "duration": 0.07839515624999649,
          "durationTicks": 58,
          "midi": 51,
          "name": "D#3",
          "ticks": 48266,
          "time": 65.23828640625,
          "velocity": 0.9133858267716536
        },
        {
          "duration": 0.1027246875000003,
          "durationTicks": 76,
          "midi": 54,
          "name": "F#3",
          "ticks": 48362,
          "time": 65.36804390625,
          "velocity": 0.968503937007874
        },
        {
          "duration": 0.06487875000000543,
          "durationTicks": 48,
          "midi": 51,
          "name": "D#3",
          "ticks": 48460,
          "time": 65.5005046875,
          "velocity": 0.8818897637795275
        },
        {
          "duration": 0.11083453125000631,
          "durationTicks": 82,
          "midi": 54,
          "name": "F#3",
          "ticks": 48556,
          "time": 65.6302621875,
          "velocity": 0.9448818897637795
        },
        {
          "duration": 0.09191156250000176,
          "durationTicks": 68,
          "midi": 51,
          "name": "D#3",
          "ticks": 48650,
          "time": 65.75731640625,
          "velocity": 0.984251968503937
        },
        {
          "duration": 0.06758203124999795,
          "durationTicks": 50,
          "midi": 51,
          "name": "D#3",
          "ticks": 48748,
          "time": 65.8897771875,
          "velocity": 0.8818897637795275
        },
        {
          "duration": 0.10002140625000777,
          "durationTicks": 74,
          "midi": 54,
          "name": "F#3",
          "ticks": 48842,
          "time": 66.01683140624999,
          "velocity": 0.968503937007874
        },
        {
          "duration": 0.09731812499998682,
          "durationTicks": 72,
          "midi": 51,
          "name": "D#3",
          "ticks": 48938,
          "time": 66.14658890625,
          "velocity": 0.9448818897637795
        },
        {
          "duration": 0.12164765624999063,
          "durationTicks": 90,
          "midi": 54,
          "name": "F#3",
          "ticks": 49034,
          "time": 66.27634640625,
          "velocity": 0.9606299212598425
        },
        {
          "duration": 0.11624109375000558,
          "durationTicks": 86,
          "midi": 56,
          "name": "G#3",
          "ticks": 49128,
          "time": 66.403400625,
          "velocity": 0.9133858267716536
        },
        {
          "duration": 0.12975749999999664,
          "durationTicks": 96,
          "midi": 44,
          "name": "G#2",
          "ticks": 49224,
          "time": 66.533158125,
          "velocity": 0.984251968503937
        },
        {
          "duration": 0.09731812500000103,
          "durationTicks": 72,
          "midi": 51,
          "name": "D#3",
          "ticks": 49322,
          "time": 66.66561890625,
          "velocity": 0.9212598425196851
        },
        {
          "duration": 0.1027246875000003,
          "durationTicks": 76,
          "midi": 61,
          "name": "C#4",
          "ticks": 49418,
          "time": 66.79537640625,
          "velocity": 0.9448818897637795
        },
        {
          "duration": 0.08380171874998155,
          "durationTicks": 62,
          "midi": 51,
          "name": "D#3",
          "ticks": 49514,
          "time": 66.92513390625001,
          "velocity": 0.9212598425196851
        },
        {
          "duration": 0.09191156250000176,
          "durationTicks": 68,
          "midi": 56,
          "name": "G#3",
          "ticks": 49708,
          "time": 67.1873521875,
          "velocity": 0.984251968503937
        },
        {
          "duration": 0.08109843750000323,
          "durationTicks": 60,
          "midi": 51,
          "name": "D#3",
          "ticks": 49802,
          "time": 67.31440640625,
          "velocity": 0.9133858267716536
        },
        {
          "duration": 0.09191156250001598,
          "durationTicks": 68,
          "midi": 54,
          "name": "F#3",
          "ticks": 49900,
          "time": 67.44686718749999,
          "velocity": 0.984251968503937
        },
        {
          "duration": 0.07028531250000469,
          "durationTicks": 52,
          "midi": 51,
          "name": "D#3",
          "ticks": 49996,
          "time": 67.5766246875,
          "velocity": 0.9133858267716536
        },
        {
          "duration": 0.10542796874999283,
          "durationTicks": 78,
          "midi": 54,
          "name": "F#3",
          "ticks": 50092,
          "time": 67.7063821875,
          "velocity": 0.984251968503937
        },
        {
          "duration": 0.08920828125000924,
          "durationTicks": 66,
          "midi": 51,
          "name": "D#3",
          "ticks": 50186,
          "time": 67.83343640625,
          "velocity": 0.9133858267716536
        },
        {
          "duration": 0.07839515624999649,
          "durationTicks": 58,
          "midi": 51,
          "name": "D#3",
          "ticks": 50282,
          "time": 67.96319390625,
          "velocity": 0.9291338582677166
        },
        {
          "duration": 0.10272468749998609,
          "durationTicks": 76,
          "midi": 54,
          "name": "F#3",
          "ticks": 50378,
          "time": 68.09295140625001,
          "velocity": 0.984251968503937
        },
        {
          "duration": 0.08109843749998902,
          "durationTicks": 60,
          "midi": 51,
          "name": "D#3",
          "ticks": 50476,
          "time": 68.2254121875,
          "velocity": 0.9212598425196851
        },
        {
          "duration": 0.12164765625000484,
          "durationTicks": 90,
          "midi": 54,
          "name": "F#3",
          "ticks": 50570,
          "time": 68.35246640625,
          "velocity": 0.984251968503937
        },
        {
          "duration": 0.11624109374999136,
          "durationTicks": 86,
          "midi": 56,
          "name": "G#3",
          "ticks": 50666,
          "time": 68.48222390625,
          "velocity": 0.9606299212598425
        },
        {
          "duration": 0.13246078124998917,
          "durationTicks": 98,
          "midi": 44,
          "name": "G#2",
          "ticks": 50762,
          "time": 68.61198140625001,
          "velocity": 0.968503937007874
        },
        {
          "duration": 0.10002140624999356,
          "durationTicks": 74,
          "midi": 51,
          "name": "D#3",
          "ticks": 50858,
          "time": 68.74173890625,
          "velocity": 0.9448818897637795
        },
        {
          "duration": 0.10002140624999356,
          "durationTicks": 74,
          "midi": 61,
          "name": "C#4",
          "ticks": 50954,
          "time": 68.87149640625,
          "velocity": 0.9291338582677166
        },
        {
          "duration": 0.08380171874999576,
          "durationTicks": 62,
          "midi": 51,
          "name": "D#3",
          "ticks": 51050,
          "time": 69.00125390625,
          "velocity": 0.8976377952755905
        },
        {
          "duration": 0.09731812500000103,
          "durationTicks": 72,
          "midi": 56,
          "name": "G#3",
          "ticks": 51242,
          "time": 69.26076890625001,
          "velocity": 0.9212598425196851
        },
        {
          "duration": 0.07028531249999048,
          "durationTicks": 52,
          "midi": 51,
          "name": "D#3",
          "ticks": 51338,
          "time": 69.39052640625,
          "velocity": 0.8976377952755905
        },
        {
          "duration": 0.09731812500000103,
          "durationTicks": 72,
          "midi": 54,
          "name": "F#3",
          "ticks": 51434,
          "time": 69.52028390625,
          "velocity": 0.968503937007874
        },
        {
          "duration": 0.06758203125001216,
          "durationTicks": 50,
          "midi": 51,
          "name": "D#3",
          "ticks": 51532,
          "time": 69.65274468749999,
          "velocity": 0.8976377952755905
        },
        {
          "duration": 0.1189443749999981,
          "durationTicks": 88,
          "midi": 54,
          "name": "F#3",
          "ticks": 51628,
          "time": 69.7825021875,
          "velocity": 0.9606299212598425
        },
        {
          "duration": 0.10813124999999957,
          "durationTicks": 80,
          "midi": 51,
          "name": "D#3",
          "ticks": 51724,
          "time": 69.9122596875,
          "velocity": 0.9291338582677166
        },
        {
          "duration": 0.07028531249999048,
          "durationTicks": 52,
          "midi": 51,
          "name": "D#3",
          "ticks": 51822,
          "time": 70.04472046875,
          "velocity": 0.9212598425196851
        },
        {
          "duration": 0.1027246875000003,
          "durationTicks": 76,
          "midi": 54,
          "name": "F#3",
          "ticks": 51914,
          "time": 70.16907140625,
          "velocity": 1
        },
        {
          "duration": 0.07298859375001143,
          "durationTicks": 54,
          "midi": 51,
          "name": "D#3",
          "ticks": 52012,
          "time": 70.30153218749999,
          "velocity": 0.9212598425196851
        },
        {
          "duration": 0.08380171874998155,
          "durationTicks": 62,
          "midi": 51,
          "name": "D#3",
          "ticks": 52106,
          "time": 70.42858640625,
          "velocity": 0.9448818897637795
        },
        {
          "duration": 0.1189443749999981,
          "durationTicks": 88,
          "midi": 54,
          "name": "F#3",
          "ticks": 52200,
          "time": 70.555640625,
          "velocity": 0.984251968503937
        },
        {
          "duration": 0.12975750000001085,
          "durationTicks": 96,
          "midi": 39,
          "name": "D#2",
          "ticks": 52298,
          "time": 70.68810140625,
          "velocity": 0.984251968503937
        },
        {
          "duration": 0.1108345312499921,
          "durationTicks": 82,
          "midi": 51,
          "name": "D#3",
          "ticks": 52394,
          "time": 70.81785890625001,
          "velocity": 0.8976377952755905
        },
        {
          "duration": 0.09731812500000103,
          "durationTicks": 72,
          "midi": 63,
          "name": "D#4",
          "ticks": 52488,
          "time": 70.944913125,
          "velocity": 0.9606299212598425
        },
        {
          "duration": 0.10542796875000704,
          "durationTicks": 78,
          "midi": 51,
          "name": "D#3",
          "ticks": 52584,
          "time": 71.074670625,
          "velocity": 0.9212598425196851
        },
        {
          "duration": 0.11624109374999136,
          "durationTicks": 86,
          "midi": 61,
          "name": "C#4",
          "ticks": 52682,
          "time": 71.20713140625,
          "velocity": 0.8976377952755905
        },
        {
          "duration": 0.09731812500000103,
          "durationTicks": 72,
          "midi": 60,
          "name": "C4",
          "ticks": 52776,
          "time": 71.334185625,
          "velocity": 0.8818897637795275
        },
        {
          "duration": 0.09191156250000176,
          "durationTicks": 68,
          "midi": 51,
          "name": "D#3",
          "ticks": 52872,
          "time": 71.463943125,
          "velocity": 0.8818897637795275
        },
        {
          "duration": 0.09461484374999429,
          "durationTicks": 70,
          "midi": 58,
          "name": "A#3",
          "ticks": 52970,
          "time": 71.59640390625,
          "velocity": 0.984251968503937
        },
        {
          "duration": 0.0865050000000025,
          "durationTicks": 64,
          "midi": 51,
          "name": "D#3",
          "ticks": 53066,
          "time": 71.72616140625,
          "velocity": 0.8503937007874016
        },
        {
          "duration": 0.13786734375000265,
          "durationTicks": 102,
          "midi": 58,
          "name": "A#3",
          "ticks": 53162,
          "time": 71.85591890625,
          "velocity": 0.9606299212598425
        },
        {
          "duration": 0.09191156250000176,
          "durationTicks": 68,
          "midi": 56,
          "name": "G#3",
          "ticks": 53256,
          "time": 71.982973125,
          "velocity": 0.9606299212598425
        },
        {
          "duration": 0.10542796875000704,
          "durationTicks": 78,
          "midi": 51,
          "name": "D#3",
          "ticks": 53352,
          "time": 72.112730625,
          "velocity": 0.8818897637795275
        },
        {
          "duration": 0.1027246875000003,
          "durationTicks": 76,
          "midi": 54,
          "name": "F#3",
          "ticks": 53448,
          "time": 72.242488125,
          "velocity": 1
        },
        {
          "duration": 0.10813124999999957,
          "durationTicks": 80,
          "midi": 51,
          "name": "D#3",
          "ticks": 53546,
          "time": 72.37494890625,
          "velocity": 0.8818897637795275
        },
        {
          "duration": 0.12435093749999737,
          "durationTicks": 92,
          "midi": 54,
          "name": "F#3",
          "ticks": 53640,
          "time": 72.502003125,
          "velocity": 0.9133858267716536
        },
        {
          "duration": 0.1189443749999981,
          "durationTicks": 88,
          "midi": 56,
          "name": "G#3",
          "ticks": 53736,
          "time": 72.631760625,
          "velocity": 0.905511811023622
        },
        {
          "duration": 0.14597718750000865,
          "durationTicks": 108,
          "midi": 39,
          "name": "D#2",
          "ticks": 53832,
          "time": 72.761518125,
          "velocity": 0.9606299212598425
        },
        {
          "duration": 0.1108345312499921,
          "durationTicks": 82,
          "midi": 51,
          "name": "D#3",
          "ticks": 53928,
          "time": 72.891275625,
          "velocity": 0.968503937007874
        },
        {
          "duration": 0.10542796874999283,
          "durationTicks": 78,
          "midi": 63,
          "name": "D#4",
          "ticks": 54024,
          "time": 73.021033125,
          "velocity": 0.9606299212598425
        },
        {
          "duration": 0.10542796874999283,
          "durationTicks": 78,
          "midi": 51,
          "name": "D#3",
          "ticks": 54122,
          "time": 73.15349390625,
          "velocity": 0.889763779527559
        },
        {
          "duration": 0.15408703125000045,
          "durationTicks": 114,
          "midi": 61,
          "name": "C#4",
          "ticks": 54218,
          "time": 73.28325140625,
          "velocity": 0.968503937007874
        },
        {
          "duration": 0.10542796875000704,
          "durationTicks": 78,
          "midi": 60,
          "name": "C4",
          "ticks": 54314,
          "time": 73.41300890625,
          "velocity": 1
        },
        {
          "duration": 0.10542796874999283,
          "durationTicks": 78,
          "midi": 51,
          "name": "D#3",
          "ticks": 54408,
          "time": 73.540063125,
          "velocity": 0.8740157480314961
        },
        {
          "duration": 0.09191156249998755,
          "durationTicks": 68,
          "midi": 58,
          "name": "A#3",
          "ticks": 54506,
          "time": 73.67252390625,
          "velocity": 0.9448818897637795
        },
        {
          "duration": 0.10813124999998536,
          "durationTicks": 80,
          "midi": 51,
          "name": "D#3",
          "ticks": 54602,
          "time": 73.80228140625,
          "velocity": 0.8818897637795275
        },
        {
          "duration": 0.12164765625000484,
          "durationTicks": 90,
          "midi": 58,
          "name": "A#3",
          "ticks": 54698,
          "time": 73.93203890625,
          "velocity": 0.984251968503937
        },
        {
          "duration": 0.08650499999998829,
          "durationTicks": 64,
          "midi": 56,
          "name": "G#3",
          "ticks": 54794,
          "time": 74.06179640625001,
          "velocity": 0.8818897637795275
        },
        {
          "duration": 0.09461484374999429,
          "durationTicks": 70,
          "midi": 51,
          "name": "D#3",
          "ticks": 54888,
          "time": 74.188850625,
          "velocity": 0.8976377952755905
        },
        {
          "duration": 0.1027246875000003,
          "durationTicks": 76,
          "midi": 54,
          "name": "F#3",
          "ticks": 54984,
          "time": 74.318608125,
          "velocity": 0.968503937007874
        },
        {
          "duration": 0.10542796875000704,
          "durationTicks": 78,
          "midi": 51,
          "name": "D#3",
          "ticks": 55082,
          "time": 74.45106890625,
          "velocity": 0.889763779527559
        },
        {
          "duration": 0.11353781249999884,
          "durationTicks": 84,
          "midi": 54,
          "name": "F#3",
          "ticks": 55176,
          "time": 74.578123125,
          "velocity": 0.9606299212598425
        },
        {
          "duration": 0.11083453125000631,
          "durationTicks": 82,
          "midi": 56,
          "name": "G#3",
          "ticks": 55270,
          "time": 74.70517734375,
          "velocity": 0.9212598425196851
        },
        {
          "duration": 0.13246078125000338,
          "durationTicks": 98,
          "midi": 39,
          "name": "D#2",
          "ticks": 55366,
          "time": 74.83493484374999,
          "velocity": 0.984251968503937
        },
        {
          "duration": 0.09731812500000103,
          "durationTicks": 72,
          "midi": 51,
          "name": "D#3",
          "ticks": 55464,
          "time": 74.967395625,
          "velocity": 0.8976377952755905
        },
        {
          "duration": 0.10542796874999283,
          "durationTicks": 78,
          "midi": 63,
          "name": "D#4",
          "ticks": 55560,
          "time": 75.097153125,
          "velocity": 0.9606299212598425
        },
        {
          "duration": 0.10272468749998609,
          "durationTicks": 76,
          "midi": 51,
          "name": "D#3",
          "ticks": 55656,
          "time": 75.226910625,
          "velocity": 0.8818897637795275
        },
        {
          "duration": 0.16219687500000646,
          "durationTicks": 120,
          "midi": 61,
          "name": "C#4",
          "ticks": 55752,
          "time": 75.356668125,
          "velocity": 0.968503937007874
        },
        {
          "duration": 0.11624109375000558,
          "durationTicks": 86,
          "midi": 60,
          "name": "C4",
          "ticks": 55848,
          "time": 75.486425625,
          "velocity": 1
        },
        {
          "duration": 0.10813125000001378,
          "durationTicks": 80,
          "midi": 51,
          "name": "D#3",
          "ticks": 55944,
          "time": 75.61618312499999,
          "velocity": 0.8818897637795275
        },
        {
          "duration": 0.10813124999999957,
          "durationTicks": 80,
          "midi": 58,
          "name": "A#3",
          "ticks": 56040,
          "time": 75.745940625,
          "velocity": 0.968503937007874
        },
        {
          "duration": 0.10002140624999356,
          "durationTicks": 74,
          "midi": 51,
          "name": "D#3",
          "ticks": 56138,
          "time": 75.87840140625,
          "velocity": 0.8818897637795275
        },
        {
          "duration": 0.15949359374999972,
          "durationTicks": 118,
          "midi": 58,
          "name": "A#3",
          "ticks": 56232,
          "time": 76.005455625,
          "velocity": 1
        },
        {
          "duration": 0.09731812500000103,
          "durationTicks": 72,
          "midi": 56,
          "name": "G#3",
          "ticks": 56328,
          "time": 76.13521312499999,
          "velocity": 0.984251968503937
        },
        {
          "duration": 0.10272468749998609,
          "durationTicks": 76,
          "midi": 51,
          "name": "D#3",
          "ticks": 56424,
          "time": 76.264970625,
          "velocity": 0.8818897637795275
        },
        {
          "duration": 0.10542796874999283,
          "durationTicks": 78,
          "midi": 54,
          "name": "F#3",
          "ticks": 56520,
          "time": 76.394728125,
          "velocity": 0.9448818897637795
        },
        {
          "duration": 0.1108345312499921,
          "durationTicks": 82,
          "midi": 51,
          "name": "D#3",
          "ticks": 56618,
          "time": 76.52718890625,
          "velocity": 0.9291338582677166
        },
        {
          "duration": 0.12435093750001158,
          "durationTicks": 92,
          "midi": 54,
          "name": "F#3",
          "ticks": 56712,
          "time": 76.654243125,
          "velocity": 0.9133858267716536
        },
        {
          "duration": 0.1108345312499921,
          "durationTicks": 82,
          "midi": 56,
          "name": "G#3",
          "ticks": 56808,
          "time": 76.784000625,
          "velocity": 0.9212598425196851
        },
        {
          "duration": 0.13786734375000265,
          "durationTicks": 102,
          "midi": 39,
          "name": "D#2",
          "ticks": 56902,
          "time": 76.91105484375,
          "velocity": 0.9448818897637795
        },
        {
          "duration": 0.10002140625000777,
          "durationTicks": 74,
          "midi": 51,
          "name": "D#3",
          "ticks": 57000,
          "time": 77.043515625,
          "velocity": 0.9606299212598425
        },
        {
          "duration": 0.10813125000001378,
          "durationTicks": 80,
          "midi": 63,
          "name": "D#4",
          "ticks": 57096,
          "time": 77.173273125,
          "velocity": 0.9448818897637795
        },
        {
          "duration": 0.1108345312499921,
          "durationTicks": 82,
          "midi": 51,
          "name": "D#3",
          "ticks": 57192,
          "time": 77.303030625,
          "velocity": 0.9212598425196851
        },
        {
          "duration": 0.17030671874999825,
          "durationTicks": 126,
          "midi": 61,
          "name": "C#4",
          "ticks": 57288,
          "time": 77.432788125,
          "velocity": 0.968503937007874
        },
        {
          "duration": 0.11353781249999884,
          "durationTicks": 84,
          "midi": 60,
          "name": "C4",
          "ticks": 57384,
          "time": 77.562545625,
          "velocity": 1
        },
        {
          "duration": 0.09731812500000103,
          "durationTicks": 72,
          "midi": 51,
          "name": "D#3",
          "ticks": 57480,
          "time": 77.692303125,
          "velocity": 0.8818897637795275
        },
        {
          "duration": 0.10813125000001378,
          "durationTicks": 80,
          "midi": 58,
          "name": "A#3",
          "ticks": 57576,
          "time": 77.82206062499999,
          "velocity": 1
        },
        {
          "duration": 0.09191156249998755,
          "durationTicks": 68,
          "midi": 51,
          "name": "D#3",
          "ticks": 57674,
          "time": 77.95452140625001,
          "velocity": 0.8582677165354331
        },
        {
          "duration": 0.1351640624999959,
          "durationTicks": 100,
          "midi": 45,
          "name": "A2",
          "ticks": 58440,
          "time": 78.989878125,
          "velocity": 0.968503937007874
        },
        {
          "duration": 0.13786734374998844,
          "durationTicks": 102,
          "midi": 46,
          "name": "A#2",
          "ticks": 59974,
          "time": 81.06329484375,
          "velocity": 0.968503937007874
        },
        {
          "duration": 0.13786734375000265,
          "durationTicks": 102,
          "midi": 46,
          "name": "A#2",
          "ticks": 84550,
          "time": 114.28121484374999,
          "velocity": 0.968503937007874
        },
        {
          "duration": 0.11083453125002052,
          "durationTicks": 82,
          "midi": 53,
          "name": "F3",
          "ticks": 84646,
          "time": 114.41097234374999,
          "velocity": 0.9212598425196851
        },
        {
          "duration": 0.10272468750001451,
          "durationTicks": 76,
          "midi": 63,
          "name": "D#4",
          "ticks": 84742,
          "time": 114.54072984374999,
          "velocity": 0.9291338582677166
        },
        {
          "duration": 0.07028531249999048,
          "durationTicks": 52,
          "midi": 53,
          "name": "F3",
          "ticks": 84840,
          "time": 114.673190625,
          "velocity": 0.889763779527559
        },
        {
          "duration": 0.09461484374999429,
          "durationTicks": 70,
          "midi": 58,
          "name": "A#3",
          "ticks": 85032,
          "time": 114.932705625,
          "velocity": 0.9448818897637795
        },
        {
          "duration": 0.06487875000000543,
          "durationTicks": 48,
          "midi": 53,
          "name": "F3",
          "ticks": 85128,
          "time": 115.062463125,
          "velocity": 0.8818897637795275
        },
        {
          "duration": 0.09731812499998682,
          "durationTicks": 72,
          "midi": 56,
          "name": "G#3",
          "ticks": 85224,
          "time": 115.192220625,
          "velocity": 0.984251968503937
        },
        {
          "duration": 0.06758203124999795,
          "durationTicks": 50,
          "midi": 53,
          "name": "F3",
          "ticks": 85320,
          "time": 115.321978125,
          "velocity": 0.8976377952755905
        },
        {
          "duration": 0.12435093750001158,
          "durationTicks": 92,
          "midi": 56,
          "name": "G#3",
          "ticks": 85416,
          "time": 115.451735625,
          "velocity": 0.9606299212598425
        },
        {
          "duration": 0.0946148437500085,
          "durationTicks": 70,
          "midi": 53,
          "name": "F3",
          "ticks": 85510,
          "time": 115.57878984374999,
          "velocity": 0.9212598425196851
        },
        {
          "duration": 0.0946148437500085,
          "durationTicks": 70,
          "midi": 53,
          "name": "F3",
          "ticks": 85606,
          "time": 115.70854734375,
          "velocity": 0.9448818897637795
        },
        {
          "duration": 0.09731812500000103,
          "durationTicks": 72,
          "midi": 56,
          "name": "G#3",
          "ticks": 85704,
          "time": 115.841008125,
          "velocity": 1
        },
        {
          "duration": 0.08380171875000997,
          "durationTicks": 62,
          "midi": 53,
          "name": "F3",
          "ticks": 85800,
          "time": 115.970765625,
          "velocity": 0.984251968503937
        },
        {
          "duration": 0.11353781249999884,
          "durationTicks": 84,
          "midi": 56,
          "name": "G#3",
          "ticks": 85896,
          "time": 116.100523125,
          "velocity": 0.9606299212598425
        },
        {
          "duration": 0.10813125000001378,
          "durationTicks": 80,
          "midi": 58,
          "name": "A#3",
          "ticks": 85992,
          "time": 116.23028062499999,
          "velocity": 0.968503937007874
        },
        {
          "duration": 0.12975749999999664,
          "durationTicks": 96,
          "midi": 46,
          "name": "A#2",
          "ticks": 86086,
          "time": 116.35733484375,
          "velocity": 0.9606299212598425
        },
        {
          "duration": 0.08920828124999503,
          "durationTicks": 66,
          "midi": 53,
          "name": "F3",
          "ticks": 86184,
          "time": 116.489795625,
          "velocity": 0.9448818897637795
        },
        {
          "duration": 0.1027246875000003,
          "durationTicks": 76,
          "midi": 63,
          "name": "D#4",
          "ticks": 86280,
          "time": 116.619553125,
          "velocity": 0.9606299212598425
        },
        {
          "duration": 0.08380171875000997,
          "durationTicks": 62,
          "midi": 53,
          "name": "F3",
          "ticks": 86376,
          "time": 116.74931062499999,
          "velocity": 0.9291338582677166
        },
        {
          "duration": 0.09731812500000103,
          "durationTicks": 72,
          "midi": 58,
          "name": "A#3",
          "ticks": 86568,
          "time": 117.008825625,
          "velocity": 0.9606299212598425
        },
        {
          "duration": 0.07839515624999649,
          "durationTicks": 58,
          "midi": 53,
          "name": "F3",
          "ticks": 86664,
          "time": 117.138583125,
          "velocity": 0.9133858267716536
        },
        {
          "duration": 0.1027246875000003,
          "durationTicks": 76,
          "midi": 56,
          "name": "G#3",
          "ticks": 86760,
          "time": 117.268340625,
          "velocity": 0.968503937007874
        },
        {
          "duration": 0.06758203124999795,
          "durationTicks": 50,
          "midi": 53,
          "name": "F3",
          "ticks": 86856,
          "time": 117.398098125,
          "velocity": 0.8818897637795275
        },
        {
          "duration": 0.11353781249999884,
          "durationTicks": 84,
          "midi": 56,
          "name": "G#3",
          "ticks": 86952,
          "time": 117.527855625,
          "velocity": 0.9448818897637795
        },
        {
          "duration": 0.09191156250000176,
          "durationTicks": 68,
          "midi": 53,
          "name": "F3",
          "ticks": 87048,
          "time": 117.657613125,
          "velocity": 0.984251968503937
        },
        {
          "duration": 0.06758203124999795,
          "durationTicks": 50,
          "midi": 53,
          "name": "F3",
          "ticks": 87146,
          "time": 117.79007390625,
          "velocity": 0.8818897637795275
        },
        {
          "duration": 0.10002140624999356,
          "durationTicks": 74,
          "midi": 56,
          "name": "G#3",
          "ticks": 87240,
          "time": 117.917128125,
          "velocity": 0.968503937007874
        },
        {
          "duration": 0.09731812500000103,
          "durationTicks": 72,
          "midi": 53,
          "name": "F3",
          "ticks": 87336,
          "time": 118.046885625,
          "velocity": 0.9448818897637795
        },
        {
          "duration": 0.1189443749999981,
          "durationTicks": 88,
          "midi": 56,
          "name": "G#3",
          "ticks": 87432,
          "time": 118.176643125,
          "velocity": 0.9606299212598425
        },
        {
          "duration": 0.11624109375000558,
          "durationTicks": 86,
          "midi": 58,
          "name": "A#3",
          "ticks": 87526,
          "time": 118.30369734374999,
          "velocity": 0.9133858267716536
        },
        {
          "duration": 0.12975749999999664,
          "durationTicks": 96,
          "midi": 46,
          "name": "A#2",
          "ticks": 87622,
          "time": 118.43345484375,
          "velocity": 0.984251968503937
        },
        {
          "duration": 0.09731812500000103,
          "durationTicks": 72,
          "midi": 53,
          "name": "F3",
          "ticks": 87720,
          "time": 118.565915625,
          "velocity": 0.9212598425196851
        },
        {
          "duration": 0.1027246875000003,
          "durationTicks": 76,
          "midi": 63,
          "name": "D#4",
          "ticks": 87816,
          "time": 118.695673125,
          "velocity": 0.9448818897637795
        },
        {
          "duration": 0.08109843750000323,
          "durationTicks": 60,
          "midi": 53,
          "name": "F3",
          "ticks": 87912,
          "time": 118.825430625,
          "velocity": 0.9212598425196851
        },
        {
          "duration": 0.09461484374999429,
          "durationTicks": 70,
          "midi": 58,
          "name": "A#3",
          "ticks": 88104,
          "time": 119.084945625,
          "velocity": 0.984251968503937
        },
        {
          "duration": 0.08109843750000323,
          "durationTicks": 60,
          "midi": 53,
          "name": "F3",
          "ticks": 88200,
          "time": 119.214703125,
          "velocity": 0.9133858267716536
        },
        {
          "duration": 0.09461484374999429,
          "durationTicks": 70,
          "midi": 56,
          "name": "G#3",
          "ticks": 88296,
          "time": 119.344460625,
          "velocity": 0.984251968503937
        },
        {
          "duration": 0.07298859375001143,
          "durationTicks": 54,
          "midi": 53,
          "name": "F3",
          "ticks": 88392,
          "time": 119.474218125,
          "velocity": 0.9133858267716536
        },
        {
          "duration": 0.10813124999999957,
          "durationTicks": 80,
          "midi": 56,
          "name": "G#3",
          "ticks": 88488,
          "time": 119.603975625,
          "velocity": 0.984251968503937
        },
        {
          "duration": 0.08650499999998829,
          "durationTicks": 64,
          "midi": 53,
          "name": "F3",
          "ticks": 88584,
          "time": 119.733733125,
          "velocity": 0.9133858267716536
        },
        {
          "duration": 0.07569187500000396,
          "durationTicks": 56,
          "midi": 53,
          "name": "F3",
          "ticks": 88680,
          "time": 119.863490625,
          "velocity": 0.9291338582677166
        },
        {
          "duration": 0.1027246875000003,
          "durationTicks": 76,
          "midi": 56,
          "name": "G#3",
          "ticks": 88776,
          "time": 119.993248125,
          "velocity": 0.984251968503937
        },
        {
          "duration": 0.08380171874999576,
          "durationTicks": 62,
          "midi": 53,
          "name": "F3",
          "ticks": 88872,
          "time": 120.123005625,
          "velocity": 0.9212598425196851
        },
        {
          "duration": 0.12164765624999063,
          "durationTicks": 90,
          "midi": 56,
          "name": "G#3",
          "ticks": 88968,
          "time": 120.252763125,
          "velocity": 0.984251968503937
        },
        {
          "duration": 0.11353781249999884,
          "durationTicks": 84,
          "midi": 58,
          "name": "A#3",
          "ticks": 89064,
          "time": 120.382520625,
          "velocity": 0.9606299212598425
        },
        {
          "duration": 0.12975749999999664,
          "durationTicks": 96,
          "midi": 46,
          "name": "A#2",
          "ticks": 89160,
          "time": 120.512278125,
          "velocity": 0.968503937007874
        },
        {
          "duration": 0.10002140625000777,
          "durationTicks": 74,
          "midi": 53,
          "name": "F3",
          "ticks": 89256,
          "time": 120.64203562499999,
          "velocity": 0.9448818897637795
        },
        {
          "duration": 0.10002140625000777,
          "durationTicks": 74,
          "midi": 63,
          "name": "D#4",
          "ticks": 89352,
          "time": 120.771793125,
          "velocity": 0.9291338582677166
        },
        {
          "duration": 0.08109843750000323,
          "durationTicks": 60,
          "midi": 53,
          "name": "F3",
          "ticks": 89448,
          "time": 120.901550625,
          "velocity": 0.8976377952755905
        },
        {
          "duration": 0.09731812500000103,
          "durationTicks": 72,
          "midi": 58,
          "name": "A#3",
          "ticks": 89640,
          "time": 121.16106562499999,
          "velocity": 0.9212598425196851
        },
        {
          "duration": 0.07028531249999048,
          "durationTicks": 52,
          "midi": 53,
          "name": "F3",
          "ticks": 89736,
          "time": 121.290823125,
          "velocity": 0.8976377952755905
        },
        {
          "duration": 0.09731812500000103,
          "durationTicks": 72,
          "midi": 56,
          "name": "G#3",
          "ticks": 89832,
          "time": 121.420580625,
          "velocity": 0.968503937007874
        },
        {
          "duration": 0.06758203124998374,
          "durationTicks": 50,
          "midi": 53,
          "name": "F3",
          "ticks": 89930,
          "time": 121.55304140625,
          "velocity": 0.8976377952755905
        },
        {
          "duration": 0.12164765625000484,
          "durationTicks": 90,
          "midi": 56,
          "name": "G#3",
          "ticks": 90024,
          "time": 121.68009562499999,
          "velocity": 0.9606299212598425
        },
        {
          "duration": 0.1108345312499921,
          "durationTicks": 82,
          "midi": 53,
          "name": "F3",
          "ticks": 90120,
          "time": 121.809853125,
          "velocity": 0.9291338582677166
        },
        {
          "duration": 0.07028531250000469,
          "durationTicks": 52,
          "midi": 53,
          "name": "F3",
          "ticks": 90220,
          "time": 121.9450171875,
          "velocity": 0.9212598425196851
        },
        {
          "duration": 0.1027246875000003,
          "durationTicks": 76,
          "midi": 56,
          "name": "G#3",
          "ticks": 90312,
          "time": 122.069368125,
          "velocity": 1
        },
        {
          "duration": 0.07569187500000396,
          "durationTicks": 56,
          "midi": 53,
          "name": "F3",
          "ticks": 90408,
          "time": 122.199125625,
          "velocity": 0.9212598425196851
        },
        {
          "duration": 0.08380171874999576,
          "durationTicks": 62,
          "midi": 53,
          "name": "F3",
          "ticks": 90504,
          "time": 122.328883125,
          "velocity": 0.9448818897637795
        },
        {
          "duration": 0.11624109375000558,
          "durationTicks": 86,
          "midi": 56,
          "name": "G#3",
          "ticks": 90598,
          "time": 122.45593734375,
          "velocity": 0.984251968503937
        },
        {
          "duration": 0.12975749999999664,
          "durationTicks": 96,
          "midi": 41,
          "name": "F2",
          "ticks": 90696,
          "time": 122.588398125,
          "velocity": 0.984251968503937
        },
        {
          "duration": 0.10813125000001378,
          "durationTicks": 80,
          "midi": 53,
          "name": "F3",
          "ticks": 90792,
          "time": 122.718155625,
          "velocity": 0.8976377952755905
        },
        {
          "duration": 0.09731812500000103,
          "durationTicks": 72,
          "midi": 65,
          "name": "F4",
          "ticks": 90886,
          "time": 122.84520984375,
          "velocity": 0.9606299212598425
        },
        {
          "duration": 0.10542796874999283,
          "durationTicks": 78,
          "midi": 53,
          "name": "F3",
          "ticks": 90982,
          "time": 122.97496734375,
          "velocity": 0.9212598425196851
        },
        {
          "duration": 0.11624109375000558,
          "durationTicks": 86,
          "midi": 63,
          "name": "D#4",
          "ticks": 91080,
          "time": 123.107428125,
          "velocity": 0.8976377952755905
        },
        {
          "duration": 0.0946148437500085,
          "durationTicks": 70,
          "midi": 62,
          "name": "D4",
          "ticks": 91174,
          "time": 123.23448234374999,
          "velocity": 0.8818897637795275
        },
        {
          "duration": 0.09191156250000176,
          "durationTicks": 68,
          "midi": 53,
          "name": "F3",
          "ticks": 91270,
          "time": 123.36423984375,
          "velocity": 0.8818897637795275
        },
        {
          "duration": 0.09461484374999429,
          "durationTicks": 70,
          "midi": 60,
          "name": "C4",
          "ticks": 91368,
          "time": 123.496700625,
          "velocity": 0.984251968503937
        },
        {
          "duration": 0.08650499999998829,
          "durationTicks": 64,
          "midi": 53,
          "name": "F3",
          "ticks": 91464,
          "time": 123.626458125,
          "velocity": 0.8503937007874016
        },
        {
          "duration": 0.1351640624999959,
          "durationTicks": 100,
          "midi": 60,
          "name": "C4",
          "ticks": 91560,
          "time": 123.756215625,
          "velocity": 0.9606299212598425
        },
        {
          "duration": 0.08920828124999503,
          "durationTicks": 66,
          "midi": 58,
          "name": "A#3",
          "ticks": 91654,
          "time": 123.88326984375,
          "velocity": 0.9606299212598425
        },
        {
          "duration": 0.10542796874999283,
          "durationTicks": 78,
          "midi": 53,
          "name": "F3",
          "ticks": 91750,
          "time": 124.01302734375,
          "velocity": 0.8818897637795275
        },
        {
          "duration": 0.10272468750001451,
          "durationTicks": 76,
          "midi": 56,
          "name": "G#3",
          "ticks": 91846,
          "time": 124.14278484375,
          "velocity": 1
        },
        {
          "duration": 0.10813124999999957,
          "durationTicks": 80,
          "midi": 53,
          "name": "F3",
          "ticks": 91944,
          "time": 124.275245625,
          "velocity": 0.8818897637795275
        },
        {
          "duration": 0.12435093750001158,
          "durationTicks": 92,
          "midi": 56,
          "name": "G#3",
          "ticks": 92038,
          "time": 124.40229984374999,
          "velocity": 0.9133858267716536
        },
        {
          "duration": 0.11894437500001231,
          "durationTicks": 88,
          "midi": 58,
          "name": "A#3",
          "ticks": 92134,
          "time": 124.53205734375,
          "velocity": 0.905511811023622
        },
        {
          "duration": 0.14327390625000191,
          "durationTicks": 106,
          "midi": 41,
          "name": "F2",
          "ticks": 92230,
          "time": 124.66181484375,
          "velocity": 0.9606299212598425
        },
        {
          "duration": 0.11083453125000631,
          "durationTicks": 82,
          "midi": 53,
          "name": "F3",
          "ticks": 92326,
          "time": 124.79157234374999,
          "velocity": 0.968503937007874
        },
        {
          "duration": 0.10542796875000704,
          "durationTicks": 78,
          "midi": 65,
          "name": "F4",
          "ticks": 92422,
          "time": 124.92132984374999,
          "velocity": 0.9606299212598425
        },
        {
          "duration": 0.10542796874999283,
          "durationTicks": 78,
          "midi": 53,
          "name": "F3",
          "ticks": 92520,
          "time": 125.053790625,
          "velocity": 0.889763779527559
        },
        {
          "duration": 0.1513837499999937,
          "durationTicks": 112,
          "midi": 63,
          "name": "D#4",
          "ticks": 92616,
          "time": 125.183548125,
          "velocity": 0.968503937007874
        },
        {
          "duration": 0.1027246875000003,
          "durationTicks": 76,
          "midi": 62,
          "name": "D4",
          "ticks": 92712,
          "time": 125.313305625,
          "velocity": 1
        },
        {
          "duration": 0.10542796875000704,
          "durationTicks": 78,
          "midi": 53,
          "name": "F3",
          "ticks": 92806,
          "time": 125.44035984374999,
          "velocity": 0.8740157480314961
        },
        {
          "duration": 0.09191156250001598,
          "durationTicks": 68,
          "midi": 60,
          "name": "C4",
          "ticks": 92904,
          "time": 125.57282062499999,
          "velocity": 0.9448818897637795
        },
        {
          "duration": 0.10813124999999957,
          "durationTicks": 80,
          "midi": 53,
          "name": "F3",
          "ticks": 93000,
          "time": 125.702578125,
          "velocity": 0.8818897637795275
        },
        {
          "duration": 0.12164765625000484,
          "durationTicks": 90,
          "midi": 60,
          "name": "C4",
          "ticks": 93096,
          "time": 125.832335625,
          "velocity": 0.984251968503937
        },
        {
          "duration": 0.0865050000000025,
          "durationTicks": 64,
          "midi": 58,
          "name": "A#3",
          "ticks": 93192,
          "time": 125.962093125,
          "velocity": 0.8818897637795275
        },
        {
          "duration": 0.0946148437500085,
          "durationTicks": 70,
          "midi": 53,
          "name": "F3",
          "ticks": 93286,
          "time": 126.08914734375,
          "velocity": 0.8976377952755905
        },
        {
          "duration": 0.10002140625000777,
          "durationTicks": 74,
          "midi": 56,
          "name": "G#3",
          "ticks": 93382,
          "time": 126.21890484375,
          "velocity": 0.968503937007874
        },
        {
          "duration": 0.10542796874999283,
          "durationTicks": 78,
          "midi": 53,
          "name": "F3",
          "ticks": 93480,
          "time": 126.351365625,
          "velocity": 0.889763779527559
        },
        {
          "duration": 0.11083453125000631,
          "durationTicks": 82,
          "midi": 56,
          "name": "G#3",
          "ticks": 93574,
          "time": 126.47841984374999,
          "velocity": 0.9606299212598425
        },
        {
          "duration": 0.10813124999998536,
          "durationTicks": 80,
          "midi": 58,
          "name": "A#3",
          "ticks": 93668,
          "time": 126.60547406250001,
          "velocity": 0.9212598425196851
        },
        {
          "duration": 0.13246078124998917,
          "durationTicks": 98,
          "midi": 41,
          "name": "F2",
          "ticks": 93764,
          "time": 126.7352315625,
          "velocity": 0.984251968503937
        },
        {
          "duration": 0.10002140624999356,
          "durationTicks": 74,
          "midi": 53,
          "name": "F3",
          "ticks": 93860,
          "time": 126.8649890625,
          "velocity": 0.8976377952755905
        },
        {
          "duration": 0.10813124999999957,
          "durationTicks": 80,
          "midi": 65,
          "name": "F4",
          "ticks": 93956,
          "time": 126.9947465625,
          "velocity": 0.9606299212598425
        },
        {
          "duration": 0.10272468750001451,
          "durationTicks": 76,
          "midi": 53,
          "name": "F3",
          "ticks": 94054,
          "time": 127.12720734374999,
          "velocity": 0.8818897637795275
        },
        {
          "duration": 0.16219687499999225,
          "durationTicks": 120,
          "midi": 63,
          "name": "D#4",
          "ticks": 94150,
          "time": 127.25696484375,
          "velocity": 0.968503937007874
        },
        {
          "duration": 0.11624109375000558,
          "durationTicks": 86,
          "midi": 62,
          "name": "D4",
          "ticks": 94246,
          "time": 127.38672234375,
          "velocity": 1
        },
        {
          "duration": 0.11083453125000631,
          "durationTicks": 82,
          "midi": 53,
          "name": "F3",
          "ticks": 94340,
          "time": 127.5137765625,
          "velocity": 0.8818897637795275
        },
        {
          "duration": 0.10813125000001378,
          "durationTicks": 80,
          "midi": 60,
          "name": "C4",
          "ticks": 94438,
          "time": 127.64623734374999,
          "velocity": 0.968503937007874
        },
        {
          "duration": 0.10002140625000777,
          "durationTicks": 74,
          "midi": 53,
          "name": "F3",
          "ticks": 94536,
          "time": 127.77869812499999,
          "velocity": 0.8818897637795275
        },
        {
          "duration": 0.15949359375001393,
          "durationTicks": 118,
          "midi": 60,
          "name": "C4",
          "ticks": 94630,
          "time": 127.90575234375,
          "velocity": 1
        },
        {
          "duration": 0.09731812500001524,
          "durationTicks": 72,
          "midi": 58,
          "name": "A#3",
          "ticks": 94726,
          "time": 128.03550984375,
          "velocity": 0.984251968503937
        },
        {
          "duration": 0.10542796875000704,
          "durationTicks": 78,
          "midi": 53,
          "name": "F3",
          "ticks": 94820,
          "time": 128.1625640625,
          "velocity": 0.8818897637795275
        },
        {
          "duration": 0.10542796875000704,
          "durationTicks": 78,
          "midi": 56,
          "name": "G#3",
          "ticks": 94918,
          "time": 128.29502484374999,
          "velocity": 0.9448818897637795
        },
        {
          "duration": 0.1108345312499921,
          "durationTicks": 82,
          "midi": 53,
          "name": "F3",
          "ticks": 95016,
          "time": 128.427485625,
          "velocity": 0.9291338582677166
        },
        {
          "duration": 0.12164765624999063,
          "durationTicks": 90,
          "midi": 56,
          "name": "G#3",
          "ticks": 95110,
          "time": 128.55453984375,
          "velocity": 0.9133858267716536
        },
        {
          "duration": 0.11353781249999884,
          "durationTicks": 84,
          "midi": 58,
          "name": "A#3",
          "ticks": 95204,
          "time": 128.6815940625,
          "velocity": 0.9212598425196851
        },
        {
          "duration": 0.13786734375000265,
          "durationTicks": 102,
          "midi": 41,
          "name": "F2",
          "ticks": 95300,
          "time": 128.8113515625,
          "velocity": 0.9448818897637795
        },
        {
          "duration": 0.1027246875000003,
          "durationTicks": 76,
          "midi": 53,
          "name": "F3",
          "ticks": 95396,
          "time": 128.9411090625,
          "velocity": 0.9606299212598425
        },
        {
          "duration": 0.10542796875000704,
          "durationTicks": 78,
          "midi": 65,
          "name": "F4",
          "ticks": 95494,
          "time": 129.07356984375,
          "velocity": 0.9448818897637795
        },
        {
          "duration": 0.1108345312499921,
          "durationTicks": 82,
          "midi": 53,
          "name": "F3",
          "ticks": 95590,
          "time": 129.20332734375,
          "velocity": 0.9212598425196851
        },
        {
          "duration": 0.17030671874999825,
          "durationTicks": 126,
          "midi": 63,
          "name": "D#4",
          "ticks": 95686,
          "time": 129.33308484375,
          "velocity": 0.968503937007874
        },
        {
          "duration": 0.11353781249999884,
          "durationTicks": 84,
          "midi": 62,
          "name": "D4",
          "ticks": 95782,
          "time": 129.46284234375,
          "velocity": 1
        },
        {
          "duration": 0.09731812500001524,
          "durationTicks": 72,
          "midi": 53,
          "name": "F3",
          "ticks": 95878,
          "time": 129.59259984374998,
          "velocity": 0.8818897637795275
        },
        {
          "duration": 0.10542796875000704,
          "durationTicks": 78,
          "midi": 60,
          "name": "C4",
          "ticks": 95974,
          "time": 129.72235734375,
          "velocity": 1
        },
        {
          "duration": 0.09191156250000176,
          "durationTicks": 68,
          "midi": 53,
          "name": "F3",
          "ticks": 96072,
          "time": 129.854818125,
          "velocity": 0.8582677165354331
        },
        {
          "duration": 0.16219687500000646,
          "durationTicks": 120,
          "midi": 60,
          "name": "C4",
          "ticks": 96166,
          "time": 129.98187234374998,
          "velocity": 0.984251968503937
        },
        {
          "duration": 0.0946148437500085,
          "durationTicks": 70,
          "midi": 58,
          "name": "A#3",
          "ticks": 96262,
          "time": 130.11162984375,
          "velocity": 0.9448818897637795
        },
        {
          "duration": 0.11894437499998389,
          "durationTicks": 88,
          "midi": 53,
          "name": "F3",
          "ticks": 96358,
          "time": 130.24138734375,
          "velocity": 0.9133858267716536
        },
        {
          "duration": 0.1027246875000003,
          "durationTicks": 76,
          "midi": 56,
          "name": "G#3",
          "ticks": 96454,
          "time": 130.37114484375,
          "velocity": 0.968503937007874
        },
        {
          "duration": 0.08650499999998829,
          "durationTicks": 64,
          "midi": 41,
          "name": "F2",
          "ticks": 96552,
          "time": 130.503605625,
          "velocity": 0.968503937007874
        },
        {
          "duration": 0.14057062500000939,
          "durationTicks": 104,
          "midi": 56,
          "name": "G#3",
          "ticks": 96646,
          "time": 130.63065984374998,
          "velocity": 0.9133858267716536
        },
        {
          "duration": 0.10002140624999356,
          "durationTicks": 74,
          "midi": 58,
          "name": "A#3",
          "ticks": 96742,
          "time": 130.76041734375,
          "velocity": 0.9448818897637795
        },
        {
          "duration": 0.13786734375000265,
          "durationTicks": 102,
          "midi": 46,
          "name": "A#2",
          "ticks": 96836,
          "time": 130.8874715625,
          "velocity": 0.968503937007874
        },
        {
          "duration": 0.10813125000001378,
          "durationTicks": 80,
          "midi": 53,
          "name": "F3",
          "ticks": 96934,
          "time": 131.01993234374999,
          "velocity": 0.9212598425196851
        },
        {
          "duration": 0.10002140624999356,
          "durationTicks": 74,
          "midi": 63,
          "name": "D#4",
          "ticks": 97030,
          "time": 131.14968984375,
          "velocity": 0.9291338582677166
        },
        {
          "duration": 0.07298859375001143,
          "durationTicks": 54,
          "midi": 53,
          "name": "F3",
          "ticks": 97126,
          "time": 131.27944734374998,
          "velocity": 0.889763779527559
        },
        {
          "duration": 0.0946148437500085,
          "durationTicks": 70,
          "midi": 58,
          "name": "A#3",
          "ticks": 97318,
          "time": 131.53896234375,
          "velocity": 0.9448818897637795
        },
        {
          "duration": 0.06758203125002638,
          "durationTicks": 50,
          "midi": 53,
          "name": "F3",
          "ticks": 97414,
          "time": 131.66871984374998,
          "velocity": 0.8818897637795275
        },
        {
          "duration": 0.10002140624999356,
          "durationTicks": 74,
          "midi": 56,
          "name": "G#3",
          "ticks": 97510,
          "time": 131.79847734375,
          "velocity": 0.984251968503937
        },
        {
          "duration": 0.06758203124999795,
          "durationTicks": 50,
          "midi": 53,
          "name": "F3",
          "ticks": 97608,
          "time": 131.930938125,
          "velocity": 0.8976377952755905
        },
        {
          "duration": 0.1270542187500041,
          "durationTicks": 94,
          "midi": 56,
          "name": "G#3",
          "ticks": 97702,
          "time": 132.05799234375,
          "velocity": 0.9606299212598425
        },
        {
          "duration": 0.0946148437500085,
          "durationTicks": 70,
          "midi": 53,
          "name": "F3",
          "ticks": 97798,
          "time": 132.18774984375,
          "velocity": 0.9212598425196851
        },
        {
          "duration": 0.09191156250003019,
          "durationTicks": 68,
          "midi": 53,
          "name": "F3",
          "ticks": 97894,
          "time": 132.31750734374998,
          "velocity": 0.9448818897637795
        },
        {
          "duration": 0.09731812499998682,
          "durationTicks": 72,
          "midi": 56,
          "name": "G#3",
          "ticks": 97992,
          "time": 132.449968125,
          "velocity": 1
        },
        {
          "duration": 0.08109843749997481,
          "durationTicks": 60,
          "midi": 53,
          "name": "F3",
          "ticks": 98088,
          "time": 132.579725625,
          "velocity": 0.984251968503937
        },
        {
          "duration": 0.11624109375000558,
          "durationTicks": 86,
          "midi": 56,
          "name": "G#3",
          "ticks": 98182,
          "time": 132.70677984374998,
          "velocity": 0.9606299212598425
        },
        {
          "duration": 0.1108345312499921,
          "durationTicks": 82,
          "midi": 58,
          "name": "A#3",
          "ticks": 98278,
          "time": 132.83653734375,
          "velocity": 0.968503937007874
        },
        {
          "duration": 0.1270542187499757,
          "durationTicks": 94,
          "midi": 46,
          "name": "A#2",
          "ticks": 98374,
          "time": 132.96629484375,
          "velocity": 0.9606299212598425
        },
        {
          "duration": 0.09191156249997334,
          "durationTicks": 68,
          "midi": 53,
          "name": "F3",
          "ticks": 98470,
          "time": 133.09605234375002,
          "velocity": 0.9448818897637795
        },
        {
          "duration": 0.10542796875000704,
          "durationTicks": 78,
          "midi": 63,
          "name": "D#4",
          "ticks": 98566,
          "time": 133.22580984375,
          "velocity": 0.9606299212598425
        },
        {
          "duration": 0.08380171874998155,
          "durationTicks": 62,
          "midi": 53,
          "name": "F3",
          "ticks": 98662,
          "time": 133.35556734375,
          "velocity": 0.9291338582677166
        },
        {
          "duration": 0.09731812499998682,
          "durationTicks": 72,
          "midi": 58,
          "name": "A#3",
          "ticks": 98856,
          "time": 133.617785625,
          "velocity": 0.9606299212598425
        },
        {
          "duration": 0.08109843750000323,
          "durationTicks": 60,
          "midi": 53,
          "name": "F3",
          "ticks": 98950,
          "time": 133.74483984375001,
          "velocity": 0.9133858267716536
        },
        {
          "duration": 0.10002140624999356,
          "durationTicks": 74,
          "midi": 56,
          "name": "G#3",
          "ticks": 99048,
          "time": 133.877300625,
          "velocity": 0.968503937007874
        },
        {
          "duration": 0.06487875000001964,
          "durationTicks": 48,
          "midi": 53,
          "name": "F3",
          "ticks": 99144,
          "time": 134.007058125,
          "velocity": 0.8818897637795275
        },
        {
          "duration": 0.11353781249999884,
          "durationTicks": 84,
          "midi": 56,
          "name": "G#3",
          "ticks": 99240,
          "time": 134.136815625,
          "velocity": 0.9448818897637795
        },
        {
          "duration": 0.08920828124999503,
          "durationTicks": 66,
          "midi": 53,
          "name": "F3",
          "ticks": 99336,
          "time": 134.266573125,
          "velocity": 0.984251968503937
        },
        {
          "duration": 0.07028531250000469,
          "durationTicks": 52,
          "midi": 53,
          "name": "F3",
          "ticks": 99432,
          "time": 134.396330625,
          "velocity": 0.8818897637795275
        },
        {
          "duration": 0.1027246875000003,
          "durationTicks": 76,
          "midi": 56,
          "name": "G#3",
          "ticks": 99526,
          "time": 134.52338484375,
          "velocity": 0.968503937007874
        },
        {
          "duration": 0.09461484375003693,
          "durationTicks": 70,
          "midi": 53,
          "name": "F3",
          "ticks": 99624,
          "time": 134.65584562499998,
          "velocity": 0.9448818897637795
        },
        {
          "duration": 0.12164765624999063,
          "durationTicks": 90,
          "midi": 56,
          "name": "G#3",
          "ticks": 99718,
          "time": 134.78289984375002,
          "velocity": 0.9606299212598425
        },
        {
          "duration": 0.11624109375000558,
          "durationTicks": 86,
          "midi": 58,
          "name": "A#3",
          "ticks": 99814,
          "time": 134.91265734375,
          "velocity": 0.9133858267716536
        },
        {
          "duration": 0.12975750000001085,
          "durationTicks": 96,
          "midi": 46,
          "name": "A#2",
          "ticks": 99910,
          "time": 135.04241484375,
          "velocity": 0.984251968503937
        },
        {
          "duration": 0.10002140624996514,
          "durationTicks": 74,
          "midi": 53,
          "name": "F3",
          "ticks": 100006,
          "time": 135.17217234375002,
          "velocity": 0.9212598425196851
        },
        {
          "duration": 0.10542796875000704,
          "durationTicks": 78,
          "midi": 63,
          "name": "D#4",
          "ticks": 100102,
          "time": 135.30192984375,
          "velocity": 0.9448818897637795
        },
        {
          "duration": 0.08109843750000323,
          "durationTicks": 60,
          "midi": 53,
          "name": "F3",
          "ticks": 100200,
          "time": 135.434390625,
          "velocity": 0.9212598425196851
        },
        {
          "duration": 0.0946148437500085,
          "durationTicks": 70,
          "midi": 58,
          "name": "A#3",
          "ticks": 100392,
          "time": 135.69390562499999,
          "velocity": 0.984251968503937
        },
        {
          "duration": 0.07839515625002491,
          "durationTicks": 58,
          "midi": 53,
          "name": "F3",
          "ticks": 100488,
          "time": 135.823663125,
          "velocity": 0.9133858267716536
        },
        {
          "duration": 0.09191156249997334,
          "durationTicks": 68,
          "midi": 56,
          "name": "G#3",
          "ticks": 100584,
          "time": 135.953420625,
          "velocity": 0.984251968503937
        },
        {
          "duration": 0.07028531250000469,
          "durationTicks": 52,
          "midi": 53,
          "name": "F3",
          "ticks": 100680,
          "time": 136.083178125,
          "velocity": 0.9133858267716536
        },
        {
          "duration": 0.10813124999998536,
          "durationTicks": 80,
          "midi": 56,
          "name": "G#3",
          "ticks": 100776,
          "time": 136.212935625,
          "velocity": 0.984251968503937
        },
        {
          "duration": 0.08650499999998829,
          "durationTicks": 64,
          "midi": 53,
          "name": "F3",
          "ticks": 100872,
          "time": 136.342693125,
          "velocity": 0.9133858267716536
        },
        {
          "duration": 0.07569187499998975,
          "durationTicks": 56,
          "midi": 53,
          "name": "F3",
          "ticks": 100968,
          "time": 136.472450625,
          "velocity": 0.9291338582677166
        },
        {
          "duration": 0.10002140624999356,
          "durationTicks": 74,
          "midi": 56,
          "name": "G#3",
          "ticks": 101064,
          "time": 136.602208125,
          "velocity": 0.984251968503937
        },
        {
          "duration": 0.08109843750000323,
          "durationTicks": 60,
          "midi": 53,
          "name": "F3",
          "ticks": 101160,
          "time": 136.731965625,
          "velocity": 0.9212598425196851
        },
        {
          "duration": 0.12435093749996895,
          "durationTicks": 92,
          "midi": 56,
          "name": "G#3",
          "ticks": 101254,
          "time": 136.85901984375002,
          "velocity": 0.984251968503937
        },
        {
          "duration": 0.11353781249999884,
          "durationTicks": 84,
          "midi": 58,
          "name": "A#3",
          "ticks": 101352,
          "time": 136.991480625,
          "velocity": 0.9606299212598425
        },
        {
          "duration": 0.13246078124998917,
          "durationTicks": 98,
          "midi": 46,
          "name": "A#2",
          "ticks": 101446,
          "time": 137.11853484375,
          "velocity": 0.968503937007874
        },
        {
          "duration": 0.12975749999998243,
          "durationTicks": 96,
          "midi": 53,
          "name": "F3",
          "ticks": 101450,
          "time": 137.12394140625,
          "velocity": 0.9291338582677166
        },
        {
          "duration": 0.12975750000001085,
          "durationTicks": 96,
          "midi": 58,
          "name": "A#3",
          "ticks": 101546,
          "time": 137.25369890624998,
          "velocity": 0.952755905511811
        },
        {
          "duration": 0.12975750000001085,
          "durationTicks": 96,
          "midi": 55,
          "name": "G3",
          "ticks": 101642,
          "time": 137.38345640625,
          "velocity": 0.8976377952755905
        },
        {
          "duration": 0.12975749999998243,
          "durationTicks": 96,
          "midi": 56,
          "name": "G#3",
          "ticks": 101738,
          "time": 137.51321390625,
          "velocity": 0.8818897637795275
        },
        {
          "duration": 0.12975750000001085,
          "durationTicks": 96,
          "midi": 63,
          "name": "D#4",
          "ticks": 101834,
          "time": 137.64297140624998,
          "velocity": 0.9133858267716536
        },
        {
          "duration": 0.12975749999998243,
          "durationTicks": 96,
          "midi": 59,
          "name": "B3",
          "ticks": 101930,
          "time": 137.77272890625,
          "velocity": 0.8661417322834646
        },
        {
          "duration": 0.12975750000001085,
          "durationTicks": 96,
          "midi": 60,
          "name": "C4",
          "ticks": 102026,
          "time": 137.90248640624998,
          "velocity": 0.8503937007874016
        },
        {
          "duration": 0.12975750000001085,
          "durationTicks": 96,
          "midi": 70,
          "name": "A#4",
          "ticks": 102122,
          "time": 138.03224390625,
          "velocity": 0.8818897637795275
        },
        {
          "duration": 0.12975749999998243,
          "durationTicks": 96,
          "midi": 52,
          "name": "E3",
          "ticks": 102218,
          "time": 138.16200140625,
          "velocity": 0.8818897637795275
        },
        {
          "duration": 0.12975750000001085,
          "durationTicks": 96,
          "midi": 53,
          "name": "F3",
          "ticks": 102314,
          "time": 138.29175890624998,
          "velocity": 0.84251968503937
        },
        {
          "duration": 0.12975749999998243,
          "durationTicks": 96,
          "midi": 65,
          "name": "F4",
          "ticks": 102410,
          "time": 138.42151640625,
          "velocity": 0.8818897637795275
        },
        {
          "duration": 0.12975750000001085,
          "durationTicks": 96,
          "midi": 59,
          "name": "B3",
          "ticks": 102506,
          "time": 138.55127390624997,
          "velocity": 0.7952755905511811
        },
        {
          "duration": 0.12975750000001085,
          "durationTicks": 96,
          "midi": 60,
          "name": "C4",
          "ticks": 102602,
          "time": 138.68103140624999,
          "velocity": 0.8188976377952756
        },
        {
          "duration": 0.12975749999998243,
          "durationTicks": 96,
          "midi": 67,
          "name": "G4",
          "ticks": 102698,
          "time": 138.81078890625,
          "velocity": 0.9291338582677166
        },
        {
          "duration": 0.12975750000001085,
          "durationTicks": 96,
          "midi": 68,
          "name": "G#4",
          "ticks": 102794,
          "time": 138.94054640624998,
          "velocity": 0.84251968503937
        },
        {
          "duration": 0.5190299999999866,
          "durationTicks": 384,
          "midi": 77,
          "name": "F5",
          "ticks": 102890,
          "time": 139.07030390625,
          "velocity": 0.8503937007874016
        }
      ]
    },
    {
      "channel": 0,
      "controlChanges": {
        "7": [
          {
            "number": 7,
            "ticks": 1536,
            "time": 2.07612,
            "value": 0.8976377952755905
          }
        ],
        "10": [
          {
            "number": 10,
            "ticks": 1536,
            "time": 2.07612,
            "value": 0.5039370078740157
          }
        ],
        "91": [
          {
            "number": 91,
            "ticks": 1536,
            "time": 2.07612,
            "value": 0.05511811023622047
          }
        ],
        "93": [
          {
            "number": 93,
            "ticks": 1536,
            "time": 2.07612,
            "value": 0.07874015748031496
          }
        ]
      },
      "pitchBends": [],
      "instrument": {
        "family": "piano",
        "number": 0,
        "name": "acoustic grand piano"
      },
      "name": "SYN BASS 1",
      "notes": [],
      "endOfTrackTicks": 104526
    },
    {
      "channel": 1,
      "controlChanges": {
        "64": [
          {
            "number": 64,
            "ticks": 1536,
            "time": 2.07612,
            "value": 0
          }
        ]
      },
      "pitchBends": [
        {
          "ticks": 1536,
          "time": 2.07612,
          "value": 0
        }
      ],
      "instrument": {
        "family": "bass",
        "number": 38,
        "name": "synth bass 1"
      },
      "name": "",
      "notes": [
        {
          "duration": 0.12975749999999975,
          "durationTicks": 96,
          "midi": 24,
          "name": "C1",
          "ticks": 1616,
          "time": 2.18425125,
          "velocity": 1
        },
        {
          "duration": 0.12975749999999975,
          "durationTicks": 96,
          "midi": 29,
          "name": "F1",
          "ticks": 1710,
          "time": 2.31130546875,
          "velocity": 1
        },
        {
          "duration": 0.1297575000000002,
          "durationTicks": 96,
          "midi": 26,
          "name": "D1",
          "ticks": 1806,
          "time": 2.44106296875,
          "velocity": 1
        },
        {
          "duration": 0.12975749999999975,
          "durationTicks": 96,
          "midi": 27,
          "name": "D#1",
          "ticks": 1902,
          "time": 2.57082046875,
          "velocity": 1
        },
        {
          "duration": 0.1297575000000002,
          "durationTicks": 96,
          "midi": 34,
          "name": "A#1",
          "ticks": 1998,
          "time": 2.70057796875,
          "velocity": 1
        },
        {
          "duration": 0.1297575000000002,
          "durationTicks": 96,
          "midi": 30,
          "name": "F#1",
          "ticks": 2094,
          "time": 2.83033546875,
          "velocity": 1
        },
        {
          "duration": 0.12975749999999975,
          "durationTicks": 96,
          "midi": 31,
          "name": "G1",
          "ticks": 2190,
          "time": 2.96009296875,
          "velocity": 1
        },
        {
          "duration": 0.1297575000000002,
          "durationTicks": 96,
          "midi": 41,
          "name": "F2",
          "ticks": 2286,
          "time": 3.08985046875,
          "velocity": 1
        },
        {
          "duration": 0.12975749999999975,
          "durationTicks": 96,
          "midi": 24,
          "name": "C1",
          "ticks": 2382,
          "time": 3.21960796875,
          "velocity": 1
        },
        {
          "duration": 0.1297575000000002,
          "durationTicks": 96,
          "midi": 32,
          "name": "G#1",
          "ticks": 2478,
          "time": 3.34936546875,
          "velocity": 1
        },
        {
          "duration": 0.12975749999999975,
          "durationTicks": 96,
          "midi": 29,
          "name": "F1",
          "ticks": 2574,
          "time": 3.47912296875,
          "velocity": 1
        },
        {
          "duration": 0.1297575000000002,
          "durationTicks": 96,
          "midi": 30,
          "name": "F#1",
          "ticks": 2670,
          "time": 3.60888046875,
          "velocity": 1
        },
        {
          "duration": 0.12975749999999975,
          "durationTicks": 96,
          "midi": 37,
          "name": "C#2",
          "ticks": 2766,
          "time": 3.73863796875,
          "velocity": 1
        },
        {
          "duration": 0.1297575000000002,
          "durationTicks": 96,
          "midi": 33,
          "name": "A1",
          "ticks": 2862,
          "time": 3.8683954687499997,
          "velocity": 1
        },
        {
          "duration": 0.12975749999999975,
          "durationTicks": 96,
          "midi": 34,
          "name": "A#1",
          "ticks": 2958,
          "time": 3.99815296875,
          "velocity": 1
        },
        {
          "duration": 0.1297575000000002,
          "durationTicks": 96,
          "midi": 44,
          "name": "G#2",
          "ticks": 3054,
          "time": 4.12791046875,
          "velocity": 1
        },
        {
          "duration": 0.2487018749999983,
          "durationTicks": 184,
          "midi": 32,
          "name": "G#1",
          "ticks": 21582,
          "time": 29.17110796875,
          "velocity": 1
        },
        {
          "duration": 0.07569187500000396,
          "durationTicks": 56,
          "midi": 32,
          "name": "G#1",
          "ticks": 22254,
          "time": 30.079410468749998,
          "velocity": 1
        },
        {
          "duration": 0.20274609375000097,
          "durationTicks": 150,
          "midi": 32,
          "name": "G#1",
          "ticks": 22350,
          "time": 30.20916796875,
          "velocity": 1
        },
        {
          "duration": 0.18382312499999998,
          "durationTicks": 136,
          "midi": 32,
          "name": "G#1",
          "ticks": 22542,
          "time": 30.46868296875,
          "velocity": 1
        },
        {
          "duration": 0.10813124999999957,
          "durationTicks": 80,
          "midi": 30,
          "name": "F#1",
          "ticks": 22926,
          "time": 30.98771296875,
          "velocity": 1
        },
        {
          "duration": 0.07569187500000041,
          "durationTicks": 56,
          "midi": 31,
          "name": "G1",
          "ticks": 23022,
          "time": 31.11747046875,
          "velocity": 1
        },
        {
          "duration": 0.27303140624999855,
          "durationTicks": 202,
          "midi": 32,
          "name": "G#1",
          "ticks": 23118,
          "time": 31.24722796875,
          "velocity": 1
        },
        {
          "duration": 0.062175468749998686,
          "durationTicks": 46,
          "midi": 32,
          "name": "G#1",
          "ticks": 23790,
          "time": 32.15553046875,
          "velocity": 1
        },
        {
          "duration": 0.1973395312500017,
          "durationTicks": 146,
          "midi": 32,
          "name": "G#1",
          "ticks": 23886,
          "time": 32.28528796875,
          "velocity": 1
        },
        {
          "duration": 0.1892296875000028,
          "durationTicks": 140,
          "midi": 32,
          "name": "G#1",
          "ticks": 24078,
          "time": 32.54480296875,
          "velocity": 1
        },
        {
          "duration": 0.26492156249999965,
          "durationTicks": 196,
          "midi": 32,
          "name": "G#1",
          "ticks": 24654,
          "time": 33.32334796875,
          "velocity": 1
        },
        {
          "duration": 0.18652640625000316,
          "durationTicks": 138,
          "midi": 32,
          "name": "G#1",
          "ticks": 25326,
          "time": 34.23165046875,
          "velocity": 1
        },
        {
          "duration": 0.2054493749999935,
          "durationTicks": 152,
          "midi": 32,
          "name": "G#1",
          "ticks": 25614,
          "time": 34.62092296875,
          "velocity": 1
        },
        {
          "duration": 0.15679031249999298,
          "durationTicks": 116,
          "midi": 30,
          "name": "F#1",
          "ticks": 25998,
          "time": 35.13995296875,
          "velocity": 1
        },
        {
          "duration": 0.08380171874999576,
          "durationTicks": 62,
          "midi": 31,
          "name": "G1",
          "ticks": 26094,
          "time": 35.26971046875,
          "velocity": 1
        },
        {
          "duration": 0.3000642187499949,
          "durationTicks": 222,
          "midi": 32,
          "name": "G#1",
          "ticks": 26190,
          "time": 35.39946796875,
          "velocity": 1
        },
        {
          "duration": 0.05676890624999942,
          "durationTicks": 42,
          "midi": 32,
          "name": "G#1",
          "ticks": 26862,
          "time": 36.30777046875,
          "velocity": 1
        },
        {
          "duration": 0.1973395312500017,
          "durationTicks": 146,
          "midi": 32,
          "name": "G#1",
          "ticks": 26958,
          "time": 36.43752796875,
          "velocity": 1
        },
        {
          "duration": 0.1811198437499968,
          "durationTicks": 134,
          "midi": 32,
          "name": "G#1",
          "ticks": 27150,
          "time": 36.69704296875,
          "velocity": 1
        },
        {
          "duration": 0.07569187499999686,
          "durationTicks": 56,
          "midi": 32,
          "name": "G#1",
          "ticks": 27438,
          "time": 37.08631546875,
          "velocity": 1
        },
        {
          "duration": 0.14327390625000191,
          "durationTicks": 106,
          "midi": 33,
          "name": "A1",
          "ticks": 27534,
          "time": 37.21607296875,
          "velocity": 1
        },
        {
          "duration": 0.14597718749999444,
          "durationTicks": 108,
          "midi": 34,
          "name": "A#1",
          "ticks": 27630,
          "time": 37.34583046875,
          "velocity": 1
        },
        {
          "duration": 0.2459985937499951,
          "durationTicks": 182,
          "midi": 27,
          "name": "D#1",
          "ticks": 27726,
          "time": 37.47558796875,
          "velocity": 1
        },
        {
          "duration": 0.06217546875000579,
          "durationTicks": 46,
          "midi": 27,
          "name": "D#1",
          "ticks": 28398,
          "time": 38.383890468749996,
          "velocity": 1
        },
        {
          "duration": 0.19193296875000243,
          "durationTicks": 142,
          "midi": 27,
          "name": "D#1",
          "ticks": 28494,
          "time": 38.51364796875,
          "velocity": 1
        },
        {
          "duration": 0.1811198437499968,
          "durationTicks": 134,
          "midi": 27,
          "name": "D#1",
          "ticks": 28686,
          "time": 38.77316296875,
          "velocity": 1
        },
        {
          "duration": 0.21626249999999914,
          "durationTicks": 160,
          "midi": 27,
          "name": "D#1",
          "ticks": 29262,
          "time": 39.55170796875,
          "velocity": 1
        },
        {
          "duration": 0.18652640625000316,
          "durationTicks": 138,
          "midi": 27,
          "name": "D#1",
          "ticks": 29934,
          "time": 40.46001046875,
          "velocity": 1
        },
        {
          "duration": 0.20815265625000734,
          "durationTicks": 154,
          "midi": 27,
          "name": "D#1",
          "ticks": 30222,
          "time": 40.849282968749996,
          "velocity": 1
        },
        {
          "duration": 0.0946148437500014,
          "durationTicks": 70,
          "midi": 25,
          "name": "C#1",
          "ticks": 30606,
          "time": 41.36831296875,
          "velocity": 1
        },
        {
          "duration": 0.15408703125000045,
          "durationTicks": 114,
          "midi": 26,
          "name": "D1",
          "ticks": 30702,
          "time": 41.49807046875,
          "velocity": 1
        },
        {
          "duration": 0.2297789062499973,
          "durationTicks": 170,
          "midi": 27,
          "name": "D#1",
          "ticks": 30798,
          "time": 41.62782796875,
          "velocity": 1
        },
        {
          "duration": 0.06758203124999795,
          "durationTicks": 50,
          "midi": 27,
          "name": "D#1",
          "ticks": 31470,
          "time": 42.53613046875,
          "velocity": 1
        },
        {
          "duration": 0.18652640625000316,
          "durationTicks": 138,
          "midi": 27,
          "name": "D#1",
          "ticks": 31566,
          "time": 42.66588796875,
          "velocity": 1
        },
        {
          "duration": 0.1892296874999957,
          "durationTicks": 140,
          "midi": 27,
          "name": "D#1",
          "ticks": 31758,
          "time": 42.92540296875,
          "velocity": 1
        },
        {
          "duration": 0.0865050000000025,
          "durationTicks": 64,
          "midi": 25,
          "name": "C#1",
          "ticks": 32142,
          "time": 43.44443296875,
          "velocity": 1
        },
        {
          "duration": 0.15408703125000045,
          "durationTicks": 114,
          "midi": 26,
          "name": "D1",
          "ticks": 32238,
          "time": 43.57419046875,
          "velocity": 1
        },
        {
          "duration": 0.2459985937499951,
          "durationTicks": 182,
          "midi": 27,
          "name": "D#1",
          "ticks": 32334,
          "time": 43.70394796875,
          "velocity": 1
        },
        {
          "duration": 0.08920828125000213,
          "durationTicks": 66,
          "midi": 27,
          "name": "D#1",
          "ticks": 33006,
          "time": 44.61225046875,
          "velocity": 1
        },
        {
          "duration": 0.062175468749998686,
          "durationTicks": 46,
          "midi": 27,
          "name": "D#1",
          "ticks": 33102,
          "time": 44.74200796875,
          "velocity": 1
        },
        {
          "duration": 0.3216904687500062,
          "durationTicks": 238,
          "midi": 27,
          "name": "D#1",
          "ticks": 33198,
          "time": 44.87176546875,
          "velocity": 1
        },
        {
          "duration": 0.06217546875000579,
          "durationTicks": 46,
          "midi": 30,
          "name": "F#1",
          "ticks": 33486,
          "time": 45.261037968749996,
          "velocity": 1
        },
        {
          "duration": 0.39197578124999666,
          "durationTicks": 290,
          "midi": 30,
          "name": "F#1",
          "ticks": 33582,
          "time": 45.39079546875,
          "velocity": 1
        },
        {
          "duration": 0.2703281249999989,
          "durationTicks": 200,
          "midi": 32,
          "name": "G#1",
          "ticks": 33870,
          "time": 45.78006796875,
          "velocity": 1
        },
        {
          "duration": 0.16490015624999188,
          "durationTicks": 122,
          "midi": 42,
          "name": "F#2",
          "ticks": 34542,
          "time": 46.68837046875,
          "velocity": 1
        },
        {
          "duration": 0.15949359375000682,
          "durationTicks": 118,
          "midi": 32,
          "name": "G#1",
          "ticks": 34638,
          "time": 46.81812796875,
          "velocity": 1
        },
        {
          "duration": 0.17841656250000426,
          "durationTicks": 132,
          "midi": 32,
          "name": "G#1",
          "ticks": 34830,
          "time": 47.07764296875,
          "velocity": 1
        },
        {
          "duration": 0.08109843750000323,
          "durationTicks": 60,
          "midi": 30,
          "name": "F#1",
          "ticks": 35214,
          "time": 47.59667296875,
          "velocity": 1
        },
        {
          "duration": 0.15138375000000792,
          "durationTicks": 112,
          "midi": 31,
          "name": "G1",
          "ticks": 35310,
          "time": 47.726430468749996,
          "velocity": 1
        },
        {
          "duration": 0.25681171875000075,
          "durationTicks": 190,
          "midi": 32,
          "name": "G#1",
          "ticks": 35406,
          "time": 47.85618796875,
          "velocity": 1
        },
        {
          "duration": 0.06487874999999832,
          "durationTicks": 48,
          "midi": 32,
          "name": "G#1",
          "ticks": 36078,
          "time": 48.76449046875,
          "velocity": 1
        },
        {
          "duration": 0.18652640624999606,
          "durationTicks": 138,
          "midi": 32,
          "name": "G#1",
          "ticks": 36174,
          "time": 48.89424796875,
          "velocity": 1
        },
        {
          "duration": 0.20815265625000023,
          "durationTicks": 154,
          "midi": 32,
          "name": "G#1",
          "ticks": 36366,
          "time": 49.15376296875,
          "velocity": 1
        },
        {
          "duration": 0.14597718749999444,
          "durationTicks": 108,
          "midi": 33,
          "name": "A1",
          "ticks": 36750,
          "time": 49.67279296875,
          "velocity": 1
        },
        {
          "duration": 0.10002140625000067,
          "durationTicks": 74,
          "midi": 34,
          "name": "A#1",
          "ticks": 36846,
          "time": 49.80255046875,
          "velocity": 1
        },
        {
          "duration": 0.21085593749999987,
          "durationTicks": 156,
          "midi": 32,
          "name": "G#1",
          "ticks": 36942,
          "time": 49.93230796875,
          "velocity": 1
        },
        {
          "duration": 0.062175468749998686,
          "durationTicks": 46,
          "midi": 32,
          "name": "G#1",
          "ticks": 37614,
          "time": 50.84061046875,
          "velocity": 1
        },
        {
          "duration": 0.18652640625000316,
          "durationTicks": 138,
          "midi": 32,
          "name": "G#1",
          "ticks": 37710,
          "time": 50.97036796875,
          "velocity": 1
        },
        {
          "duration": 0.18382312500000353,
          "durationTicks": 136,
          "midi": 32,
          "name": "G#1",
          "ticks": 37902,
          "time": 51.22988296875,
          "velocity": 1
        },
        {
          "duration": 0.14327390625000191,
          "durationTicks": 106,
          "midi": 30,
          "name": "F#1",
          "ticks": 38286,
          "time": 51.74891296875,
          "velocity": 1
        },
        {
          "duration": 0.07839515624999649,
          "durationTicks": 58,
          "midi": 31,
          "name": "G1",
          "ticks": 38382,
          "time": 51.87867046875,
          "velocity": 1
        },
        {
          "duration": 0.33520687499999724,
          "durationTicks": 248,
          "midi": 32,
          "name": "G#1",
          "ticks": 38478,
          "time": 52.00842796875,
          "velocity": 1
        },
        {
          "duration": 0.06758203124999795,
          "durationTicks": 50,
          "midi": 32,
          "name": "G#1",
          "ticks": 39150,
          "time": 52.916730468749996,
          "velocity": 1
        },
        {
          "duration": 0.10542796874999993,
          "durationTicks": 78,
          "midi": 32,
          "name": "G#1",
          "ticks": 39246,
          "time": 53.04648796875,
          "velocity": 1
        },
        {
          "duration": 0.3811626562500052,
          "durationTicks": 282,
          "midi": 32,
          "name": "G#1",
          "ticks": 39342,
          "time": 53.17624546875,
          "velocity": 1
        },
        {
          "duration": 0.07569187499999686,
          "durationTicks": 56,
          "midi": 32,
          "name": "G#1",
          "ticks": 39630,
          "time": 53.56551796875,
          "velocity": 1
        },
        {
          "duration": 0.40819546875000157,
          "durationTicks": 302,
          "midi": 34,
          "name": "A#1",
          "ticks": 39726,
          "time": 53.69527546875,
          "velocity": 1
        },
        {
          "duration": 0.32709703124999834,
          "durationTicks": 242,
          "midi": 27,
          "name": "D#1",
          "ticks": 40014,
          "time": 54.08454796875,
          "velocity": 1
        },
        {
          "duration": 0.14597718750000155,
          "durationTicks": 108,
          "midi": 37,
          "name": "C#2",
          "ticks": 40686,
          "time": 54.99285046875,
          "velocity": 1
        },
        {
          "duration": 0.14597718750000155,
          "durationTicks": 108,
          "midi": 27,
          "name": "D#1",
          "ticks": 40782,
          "time": 55.122607968749996,
          "velocity": 1
        },
        {
          "duration": 0.1892296875000028,
          "durationTicks": 140,
          "midi": 27,
          "name": "D#1",
          "ticks": 40976,
          "time": 55.384826249999996,
          "velocity": 1
        },
        {
          "duration": 0.08109843750000323,
          "durationTicks": 60,
          "midi": 25,
          "name": "C#1",
          "ticks": 41358,
          "time": 55.90115296875,
          "velocity": 1
        },
        {
          "duration": 0.16219687499999935,
          "durationTicks": 120,
          "midi": 26,
          "name": "D1",
          "ticks": 41454,
          "time": 56.03091046875,
          "velocity": 1
        },
        {
          "duration": 0.2757346874999982,
          "durationTicks": 204,
          "midi": 27,
          "name": "D#1",
          "ticks": 41550,
          "time": 56.16066796875,
          "velocity": 1
        },
        {
          "duration": 0.10002140624999356,
          "durationTicks": 74,
          "midi": 27,
          "name": "D#1",
          "ticks": 42222,
          "time": 57.06897046875,
          "velocity": 1
        },
        {
          "duration": 0.25681171875000075,
          "durationTicks": 190,
          "midi": 27,
          "name": "D#1",
          "ticks": 42510,
          "time": 57.45824296875,
          "velocity": 1
        },
        {
          "duration": 0.0946148437500014,
          "durationTicks": 70,
          "midi": 25,
          "name": "C#1",
          "ticks": 42894,
          "time": 57.97727296875,
          "velocity": 1
        },
        {
          "duration": 0.14868046875000118,
          "durationTicks": 110,
          "midi": 26,
          "name": "D1",
          "ticks": 42990,
          "time": 58.10703046875,
          "velocity": 1
        },
        {
          "duration": 0.2514051562500015,
          "durationTicks": 186,
          "midi": 27,
          "name": "D#1",
          "ticks": 43086,
          "time": 58.23678796875,
          "velocity": 1
        },
        {
          "duration": 0.11624109374999847,
          "durationTicks": 86,
          "midi": 37,
          "name": "C#2",
          "ticks": 43758,
          "time": 59.14509046875,
          "velocity": 1
        },
        {
          "duration": 0.18652640624999606,
          "durationTicks": 138,
          "midi": 27,
          "name": "D#1",
          "ticks": 43854,
          "time": 59.27484796875,
          "velocity": 1
        },
        {
          "duration": 0.2054493750000006,
          "durationTicks": 152,
          "midi": 27,
          "name": "D#1",
          "ticks": 44046,
          "time": 59.534362968749996,
          "velocity": 1
        },
        {
          "duration": 0.08920828125000213,
          "durationTicks": 66,
          "midi": 25,
          "name": "C#1",
          "ticks": 44430,
          "time": 60.053392968749996,
          "velocity": 1
        },
        {
          "duration": 0.14597718750000155,
          "durationTicks": 108,
          "midi": 26,
          "name": "D1",
          "ticks": 44526,
          "time": 60.18315046875,
          "velocity": 1
        },
        {
          "duration": 0.300064218750002,
          "durationTicks": 222,
          "midi": 27,
          "name": "D#1",
          "ticks": 44622,
          "time": 60.31290796875,
          "velocity": 1
        },
        {
          "duration": 0.062175468749998686,
          "durationTicks": 46,
          "midi": 27,
          "name": "D#1",
          "ticks": 45294,
          "time": 61.22121046875,
          "velocity": 1
        },
        {
          "duration": 0.2784379687499978,
          "durationTicks": 206,
          "midi": 27,
          "name": "D#1",
          "ticks": 45390,
          "time": 61.35096796875,
          "velocity": 1
        },
        {
          "duration": 0.3568331250000014,
          "durationTicks": 264,
          "midi": 30,
          "name": "F#1",
          "ticks": 45774,
          "time": 61.86999796875,
          "velocity": 1
        },
        {
          "duration": 0.24870187500000185,
          "durationTicks": 184,
          "midi": 32,
          "name": "G#1",
          "ticks": 46158,
          "time": 62.38902796875,
          "velocity": 1
        },
        {
          "duration": 0.07569187499999686,
          "durationTicks": 56,
          "midi": 32,
          "name": "G#1",
          "ticks": 46830,
          "time": 63.29733046875,
          "velocity": 1
        },
        {
          "duration": 0.20274609375000097,
          "durationTicks": 150,
          "midi": 32,
          "name": "G#1",
          "ticks": 46926,
          "time": 63.42708796875,
          "velocity": 1
        },
        {
          "duration": 0.18382312499999642,
          "durationTicks": 136,
          "midi": 32,
          "name": "G#1",
          "ticks": 47118,
          "time": 63.68660296875,
          "velocity": 1
        },
        {
          "duration": 0.10813124999999957,
          "durationTicks": 80,
          "midi": 30,
          "name": "F#1",
          "ticks": 47502,
          "time": 64.20563296875,
          "velocity": 1
        },
        {
          "duration": 0.07569187500000396,
          "durationTicks": 56,
          "midi": 31,
          "name": "G1",
          "ticks": 47598,
          "time": 64.33539046874999,
          "velocity": 1
        },
        {
          "duration": 0.27303140624999855,
          "durationTicks": 202,
          "midi": 32,
          "name": "G#1",
          "ticks": 47694,
          "time": 64.46514796875,
          "velocity": 1
        },
        {
          "duration": 0.0621754687500129,
          "durationTicks": 46,
          "midi": 32,
          "name": "G#1",
          "ticks": 48366,
          "time": 65.37345046875,
          "velocity": 1
        },
        {
          "duration": 0.1973395312499946,
          "durationTicks": 146,
          "midi": 32,
          "name": "G#1",
          "ticks": 48462,
          "time": 65.50320796875,
          "velocity": 1
        },
        {
          "duration": 0.1892296875000028,
          "durationTicks": 140,
          "midi": 32,
          "name": "G#1",
          "ticks": 48654,
          "time": 65.76272296875,
          "velocity": 1
        },
        {
          "duration": 0.26492156249999255,
          "durationTicks": 196,
          "midi": 32,
          "name": "G#1",
          "ticks": 49230,
          "time": 66.54126796875,
          "velocity": 1
        },
        {
          "duration": 0.18652640624999606,
          "durationTicks": 138,
          "midi": 32,
          "name": "G#1",
          "ticks": 49902,
          "time": 67.44957046875,
          "velocity": 1
        },
        {
          "duration": 0.2054493750000006,
          "durationTicks": 152,
          "midi": 32,
          "name": "G#1",
          "ticks": 50190,
          "time": 67.83884296875,
          "velocity": 1
        },
        {
          "duration": 0.1567903125000072,
          "durationTicks": 116,
          "midi": 30,
          "name": "F#1",
          "ticks": 50574,
          "time": 68.35787296875,
          "velocity": 1
        },
        {
          "duration": 0.08380171875000997,
          "durationTicks": 62,
          "midi": 31,
          "name": "G1",
          "ticks": 50670,
          "time": 68.48763046875,
          "velocity": 1
        },
        {
          "duration": 0.3000642187500091,
          "durationTicks": 222,
          "midi": 32,
          "name": "G#1",
          "ticks": 50766,
          "time": 68.61738796875,
          "velocity": 1
        },
        {
          "duration": 0.05676890624999942,
          "durationTicks": 42,
          "midi": 32,
          "name": "G#1",
          "ticks": 51438,
          "time": 69.52569046875,
          "velocity": 1
        },
        {
          "duration": 0.1973395312500088,
          "durationTicks": 146,
          "midi": 32,
          "name": "G#1",
          "ticks": 51534,
          "time": 69.65544796875,
          "velocity": 1
        },
        {
          "duration": 0.1811198437499968,
          "durationTicks": 134,
          "midi": 32,
          "name": "G#1",
          "ticks": 51726,
          "time": 69.91496296875,
          "velocity": 1
        },
        {
          "duration": 0.07569187500000396,
          "durationTicks": 56,
          "midi": 32,
          "name": "G#1",
          "ticks": 52014,
          "time": 70.30423546875,
          "velocity": 1
        },
        {
          "duration": 0.1432739062499877,
          "durationTicks": 106,
          "midi": 33,
          "name": "A1",
          "ticks": 52110,
          "time": 70.43399296875,
          "velocity": 1
        },
        {
          "duration": 0.14597718749999444,
          "durationTicks": 108,
          "midi": 34,
          "name": "A#1",
          "ticks": 52206,
          "time": 70.56375046875,
          "velocity": 1
        },
        {
          "duration": 0.24599859375000221,
          "durationTicks": 182,
          "midi": 27,
          "name": "D#1",
          "ticks": 52302,
          "time": 70.69350796875,
          "velocity": 1
        },
        {
          "duration": 0.062175468749984475,
          "durationTicks": 46,
          "midi": 27,
          "name": "D#1",
          "ticks": 52974,
          "time": 71.60181046875,
          "velocity": 1
        },
        {
          "duration": 0.19193296874999533,
          "durationTicks": 142,
          "midi": 27,
          "name": "D#1",
          "ticks": 53070,
          "time": 71.73156796875,
          "velocity": 1
        },
        {
          "duration": 0.181119843750011,
          "durationTicks": 134,
          "midi": 27,
          "name": "D#1",
          "ticks": 53262,
          "time": 71.99108296874999,
          "velocity": 1
        },
        {
          "duration": 0.21626249999999914,
          "durationTicks": 160,
          "midi": 27,
          "name": "D#1",
          "ticks": 53838,
          "time": 72.76962796875,
          "velocity": 1
        },
        {
          "duration": 0.18652640624999606,
          "durationTicks": 138,
          "midi": 27,
          "name": "D#1",
          "ticks": 54510,
          "time": 73.67793046875,
          "velocity": 1
        },
        {
          "duration": 0.20815265624999313,
          "durationTicks": 154,
          "midi": 27,
          "name": "D#1",
          "ticks": 54798,
          "time": 74.06720296875,
          "velocity": 1
        },
        {
          "duration": 0.09461484374999429,
          "durationTicks": 70,
          "midi": 25,
          "name": "C#1",
          "ticks": 55182,
          "time": 74.58623296875,
          "velocity": 1
        },
        {
          "duration": 0.15408703125000045,
          "durationTicks": 114,
          "midi": 26,
          "name": "D1",
          "ticks": 55278,
          "time": 74.71599046875,
          "velocity": 1
        },
        {
          "duration": 0.2297789062500044,
          "durationTicks": 170,
          "midi": 27,
          "name": "D#1",
          "ticks": 55374,
          "time": 74.84574796875,
          "velocity": 1
        },
        {
          "duration": 0.06758203125001216,
          "durationTicks": 50,
          "midi": 27,
          "name": "D#1",
          "ticks": 56046,
          "time": 75.75405046875,
          "velocity": 1
        },
        {
          "duration": 0.18652640624999606,
          "durationTicks": 138,
          "midi": 27,
          "name": "D#1",
          "ticks": 56142,
          "time": 75.88380796875,
          "velocity": 1
        },
        {
          "duration": 0.1892296875000028,
          "durationTicks": 140,
          "midi": 27,
          "name": "D#1",
          "ticks": 56334,
          "time": 76.14332296875,
          "velocity": 1
        },
        {
          "duration": 0.08650499999998829,
          "durationTicks": 64,
          "midi": 25,
          "name": "C#1",
          "ticks": 56718,
          "time": 76.66235296875,
          "velocity": 1
        },
        {
          "duration": 0.15408703125000045,
          "durationTicks": 114,
          "midi": 26,
          "name": "D1",
          "ticks": 56814,
          "time": 76.79211046875,
          "velocity": 1
        },
        {
          "duration": 0.24599859375001643,
          "durationTicks": 182,
          "midi": 27,
          "name": "D#1",
          "ticks": 56910,
          "time": 76.92186796874999,
          "velocity": 1
        },
        {
          "duration": 0.08920828124999503,
          "durationTicks": 66,
          "midi": 27,
          "name": "D#1",
          "ticks": 57582,
          "time": 77.83017046875,
          "velocity": 1
        },
        {
          "duration": 0.062175468749998686,
          "durationTicks": 46,
          "midi": 27,
          "name": "D#1",
          "ticks": 57678,
          "time": 77.95992796875,
          "velocity": 1
        },
        {
          "duration": 0.21626249999999914,
          "durationTicks": 160,
          "midi": 33,
          "name": "A1",
          "ticks": 58446,
          "time": 78.99798796875,
          "velocity": 1
        },
        {
          "duration": 0.07028531249999048,
          "durationTicks": 52,
          "midi": 33,
          "name": "A1",
          "ticks": 59118,
          "time": 79.90629046875,
          "velocity": 1
        },
        {
          "duration": 0.062175468749998686,
          "durationTicks": 46,
          "midi": 28,
          "name": "E1",
          "ticks": 59214,
          "time": 80.03604796875,
          "velocity": 1
        },
        {
          "duration": 0.2135592187500066,
          "durationTicks": 158,
          "midi": 34,
          "name": "A#1",
          "ticks": 59982,
          "time": 81.07410796875,
          "velocity": 1
        },
        {
          "duration": 0.06758203124999795,
          "durationTicks": 50,
          "midi": 34,
          "name": "A#1",
          "ticks": 60654,
          "time": 81.98241046875,
          "velocity": 1
        },
        {
          "duration": 0.1973395312500088,
          "durationTicks": 146,
          "midi": 34,
          "name": "A#1",
          "ticks": 60750,
          "time": 82.11216796875,
          "velocity": 1
        },
        {
          "duration": 0.20004281250000133,
          "durationTicks": 148,
          "midi": 34,
          "name": "A#1",
          "ticks": 60942,
          "time": 82.37168296875,
          "velocity": 1
        },
        {
          "duration": 0.2135592187500066,
          "durationTicks": 158,
          "midi": 34,
          "name": "A#1",
          "ticks": 61518,
          "time": 83.15022796875,
          "velocity": 1
        },
        {
          "duration": 0.1973395312500088,
          "durationTicks": 146,
          "midi": 34,
          "name": "A#1",
          "ticks": 62190,
          "time": 84.05853046874999,
          "velocity": 1
        },
        {
          "duration": 0.21085593749999987,
          "durationTicks": 156,
          "midi": 34,
          "name": "A#1",
          "ticks": 62478,
          "time": 84.44780296875,
          "velocity": 1
        },
        {
          "duration": 0.08920828124999503,
          "durationTicks": 66,
          "midi": 32,
          "name": "G#1",
          "ticks": 62862,
          "time": 84.96683296875,
          "velocity": 1
        },
        {
          "duration": 0.1486804687500154,
          "durationTicks": 110,
          "midi": 33,
          "name": "A1",
          "ticks": 62958,
          "time": 85.09659046875,
          "velocity": 1
        },
        {
          "duration": 0.26492156249999255,
          "durationTicks": 196,
          "midi": 34,
          "name": "A#1",
          "ticks": 63054,
          "time": 85.22634796875,
          "velocity": 1
        },
        {
          "duration": 0.05947218750000616,
          "durationTicks": 44,
          "midi": 34,
          "name": "A#1",
          "ticks": 63726,
          "time": 86.13465046875,
          "velocity": 1
        },
        {
          "duration": 0.1973395312500088,
          "durationTicks": 146,
          "midi": 34,
          "name": "A#1",
          "ticks": 63822,
          "time": 86.26440796874999,
          "velocity": 1
        },
        {
          "duration": 0.2135592187500066,
          "durationTicks": 158,
          "midi": 34,
          "name": "A#1",
          "ticks": 64014,
          "time": 86.52392296875,
          "velocity": 1
        },
        {
          "duration": 0.21626249999999914,
          "durationTicks": 160,
          "midi": 34,
          "name": "A#1",
          "ticks": 64590,
          "time": 87.30246796875,
          "velocity": 1
        },
        {
          "duration": 0.06487875000000543,
          "durationTicks": 48,
          "midi": 34,
          "name": "A#1",
          "ticks": 65262,
          "time": 88.21077046875,
          "velocity": 1
        },
        {
          "duration": 0.17571328124999752,
          "durationTicks": 130,
          "midi": 34,
          "name": "A#1",
          "ticks": 65358,
          "time": 88.34052796875,
          "velocity": 1
        },
        {
          "duration": 0.1270542187499899,
          "durationTicks": 94,
          "midi": 34,
          "name": "A#1",
          "ticks": 65550,
          "time": 88.60004296875,
          "velocity": 1
        },
        {
          "duration": 0.062175468749998686,
          "durationTicks": 46,
          "midi": 34,
          "name": "A#1",
          "ticks": 65646,
          "time": 88.72980046875,
          "velocity": 1
        },
        {
          "duration": 0.1649001562500132,
          "durationTicks": 122,
          "midi": 34,
          "name": "A#1",
          "ticks": 65742,
          "time": 88.85955796875,
          "velocity": 1
        },
        {
          "duration": 0.12435093750001158,
          "durationTicks": 92,
          "midi": 35,
          "name": "B1",
          "ticks": 65838,
          "time": 88.98931546875,
          "velocity": 1
        },
        {
          "duration": 0.28925109374999636,
          "durationTicks": 214,
          "midi": 36,
          "name": "C2",
          "ticks": 65934,
          "time": 89.11907296875,
          "velocity": 1
        },
        {
          "duration": 0.2865478124999896,
          "durationTicks": 212,
          "midi": 29,
          "name": "F1",
          "ticks": 66128,
          "time": 89.38129125,
          "velocity": 1
        },
        {
          "duration": 0.062175468749984475,
          "durationTicks": 46,
          "midi": 29,
          "name": "F1",
          "ticks": 66798,
          "time": 90.28689046875,
          "velocity": 1
        },
        {
          "duration": 0.18652640624999606,
          "durationTicks": 138,
          "midi": 29,
          "name": "F1",
          "ticks": 66894,
          "time": 90.41664796875,
          "velocity": 1
        },
        {
          "duration": 0.19463625000000206,
          "durationTicks": 144,
          "midi": 29,
          "name": "F1",
          "ticks": 67086,
          "time": 90.67616296874999,
          "velocity": 1
        },
        {
          "duration": 0.2297789062500044,
          "durationTicks": 170,
          "midi": 29,
          "name": "F1",
          "ticks": 67662,
          "time": 91.45470796875,
          "velocity": 1
        },
        {
          "duration": 0.23248218749998273,
          "durationTicks": 172,
          "midi": 29,
          "name": "F1",
          "ticks": 68334,
          "time": 92.36301046875,
          "velocity": 1
        },
        {
          "duration": 0.24329531250000969,
          "durationTicks": 180,
          "midi": 29,
          "name": "F1",
          "ticks": 68622,
          "time": 92.75228296875,
          "velocity": 1
        },
        {
          "duration": 0.1513837499999937,
          "durationTicks": 112,
          "midi": 27,
          "name": "D#1",
          "ticks": 69006,
          "time": 93.27131296875,
          "velocity": 1
        },
        {
          "duration": 0.09461484374999429,
          "durationTicks": 70,
          "midi": 28,
          "name": "E1",
          "ticks": 69102,
          "time": 93.40107046874999,
          "velocity": 1
        },
        {
          "duration": 0.2757346874999911,
          "durationTicks": 204,
          "midi": 29,
          "name": "F1",
          "ticks": 69198,
          "time": 93.53082796875,
          "velocity": 1
        },
        {
          "duration": 0.07298859375001143,
          "durationTicks": 54,
          "midi": 29,
          "name": "F1",
          "ticks": 69870,
          "time": 94.43913046875,
          "velocity": 1
        },
        {
          "duration": 0.1757132812499833,
          "durationTicks": 130,
          "midi": 29,
          "name": "F1",
          "ticks": 69966,
          "time": 94.56888796875,
          "velocity": 1
        },
        {
          "duration": 0.21085593749999987,
          "durationTicks": 156,
          "midi": 29,
          "name": "F1",
          "ticks": 70158,
          "time": 94.82840296875,
          "velocity": 1
        },
        {
          "duration": 0.15949359374999972,
          "durationTicks": 118,
          "midi": 27,
          "name": "D#1",
          "ticks": 70542,
          "time": 95.34743296875,
          "velocity": 1
        },
        {
          "duration": 0.1108345312499921,
          "durationTicks": 82,
          "midi": 28,
          "name": "E1",
          "ticks": 70638,
          "time": 95.47719046875,
          "velocity": 1
        },
        {
          "duration": 0.24870187499999474,
          "durationTicks": 184,
          "midi": 29,
          "name": "F1",
          "ticks": 70734,
          "time": 95.60694796874999,
          "velocity": 1
        },
        {
          "duration": 0.04865906250000762,
          "durationTicks": 36,
          "midi": 29,
          "name": "F1",
          "ticks": 71406,
          "time": 96.51525046875,
          "velocity": 1
        },
        {
          "duration": 0.2297789062500044,
          "durationTicks": 170,
          "midi": 29,
          "name": "F1",
          "ticks": 71502,
          "time": 96.64500796875,
          "velocity": 1
        },
        {
          "duration": 0.3406134375000107,
          "durationTicks": 252,
          "midi": 32,
          "name": "G#1",
          "ticks": 71886,
          "time": 97.16403796875,
          "velocity": 1
        },
        {
          "duration": 0.2676248437499993,
          "durationTicks": 198,
          "midi": 34,
          "name": "A#1",
          "ticks": 72270,
          "time": 97.68306796875,
          "velocity": 1
        },
        {
          "duration": 0.16490015624999899,
          "durationTicks": 122,
          "midi": 44,
          "name": "G#2",
          "ticks": 72942,
          "time": 98.59137046875,
          "velocity": 1
        },
        {
          "duration": 0.15949359374999972,
          "durationTicks": 118,
          "midi": 34,
          "name": "A#1",
          "ticks": 73038,
          "time": 98.72112796875,
          "velocity": 1
        },
        {
          "duration": 0.17841656250000426,
          "durationTicks": 132,
          "midi": 34,
          "name": "A#1",
          "ticks": 73232,
          "time": 98.98334625,
          "velocity": 1
        },
        {
          "duration": 0.07839515624998228,
          "durationTicks": 58,
          "midi": 32,
          "name": "G#1",
          "ticks": 73614,
          "time": 99.49967296875,
          "velocity": 1
        },
        {
          "duration": 0.14868046875000118,
          "durationTicks": 110,
          "midi": 33,
          "name": "A1",
          "ticks": 73710,
          "time": 99.62943046875,
          "velocity": 1
        },
        {
          "duration": 0.2541084375000082,
          "durationTicks": 188,
          "midi": 34,
          "name": "A#1",
          "ticks": 73806,
          "time": 99.75918796875,
          "velocity": 1
        },
        {
          "duration": 0.06487874999999121,
          "durationTicks": 48,
          "midi": 34,
          "name": "A#1",
          "ticks": 74478,
          "time": 100.66749046875,
          "velocity": 1
        },
        {
          "duration": 0.18382312499998932,
          "durationTicks": 136,
          "midi": 34,
          "name": "A#1",
          "ticks": 74574,
          "time": 100.79724796875,
          "velocity": 1
        },
        {
          "duration": 0.20815265625000734,
          "durationTicks": 154,
          "midi": 34,
          "name": "A#1",
          "ticks": 74766,
          "time": 101.05676296875,
          "velocity": 1
        },
        {
          "duration": 0.14327390625000191,
          "durationTicks": 106,
          "midi": 35,
          "name": "B1",
          "ticks": 75150,
          "time": 101.57579296875,
          "velocity": 1
        },
        {
          "duration": 0.09731812499998682,
          "durationTicks": 72,
          "midi": 36,
          "name": "C2",
          "ticks": 75246,
          "time": 101.70555046875,
          "velocity": 1
        },
        {
          "duration": 0.21085593749999987,
          "durationTicks": 156,
          "midi": 34,
          "name": "A#1",
          "ticks": 75342,
          "time": 101.83530796875,
          "velocity": 1
        },
        {
          "duration": 0.062175468749998686,
          "durationTicks": 46,
          "midi": 34,
          "name": "A#1",
          "ticks": 76014,
          "time": 102.74361046874999,
          "velocity": 1
        },
        {
          "duration": 0.18652640624999606,
          "durationTicks": 138,
          "midi": 34,
          "name": "A#1",
          "ticks": 76110,
          "time": 102.87336796875,
          "velocity": 1
        },
        {
          "duration": 0.181119843750011,
          "durationTicks": 134,
          "midi": 34,
          "name": "A#1",
          "ticks": 76302,
          "time": 103.13288296875,
          "velocity": 1
        },
        {
          "duration": 0.14327390625000191,
          "durationTicks": 106,
          "midi": 32,
          "name": "G#1",
          "ticks": 76686,
          "time": 103.65191296875,
          "velocity": 1
        },
        {
          "duration": 0.07839515624999649,
          "durationTicks": 58,
          "midi": 33,
          "name": "A1",
          "ticks": 76782,
          "time": 103.78167046875,
          "velocity": 1
        },
        {
          "duration": 0.33520687499999724,
          "durationTicks": 248,
          "midi": 34,
          "name": "A#1",
          "ticks": 76878,
          "time": 103.91142796875,
          "velocity": 1
        },
        {
          "duration": 0.06758203125001216,
          "durationTicks": 50,
          "midi": 34,
          "name": "A#1",
          "ticks": 77550,
          "time": 104.81973046875,
          "velocity": 1
        },
        {
          "duration": 0.10542796875000704,
          "durationTicks": 78,
          "midi": 34,
          "name": "A#1",
          "ticks": 77646,
          "time": 104.94948796874999,
          "velocity": 1
        },
        {
          "duration": 0.3811626562499981,
          "durationTicks": 282,
          "midi": 34,
          "name": "A#1",
          "ticks": 77742,
          "time": 105.07924546875,
          "velocity": 1
        },
        {
          "duration": 0.07298859375001143,
          "durationTicks": 54,
          "midi": 34,
          "name": "A#1",
          "ticks": 78030,
          "time": 105.46851796874999,
          "velocity": 1
        },
        {
          "duration": 0.40819546874999446,
          "durationTicks": 302,
          "midi": 36,
          "name": "C2",
          "ticks": 78126,
          "time": 105.59827546875,
          "velocity": 1
        },
        {
          "duration": 0.32709703125000544,
          "durationTicks": 242,
          "midi": 29,
          "name": "F1",
          "ticks": 78414,
          "time": 105.98754796875,
          "velocity": 1
        },
        {
          "duration": 0.14327390625000191,
          "durationTicks": 106,
          "midi": 39,
          "name": "D#2",
          "ticks": 79086,
          "time": 106.89585046875,
          "velocity": 1
        },
        {
          "duration": 0.14327390625000191,
          "durationTicks": 106,
          "midi": 29,
          "name": "F1",
          "ticks": 79182,
          "time": 107.02560796875,
          "velocity": 1
        },
        {
          "duration": 0.18922968749998859,
          "durationTicks": 140,
          "midi": 29,
          "name": "F1",
          "ticks": 79376,
          "time": 107.28782625000001,
          "velocity": 1
        },
        {
          "duration": 0.07839515624999649,
          "durationTicks": 58,
          "midi": 27,
          "name": "D#1",
          "ticks": 79758,
          "time": 107.80415296875,
          "velocity": 1
        },
        {
          "duration": 0.16219687499999225,
          "durationTicks": 120,
          "midi": 28,
          "name": "E1",
          "ticks": 79854,
          "time": 107.93391046875,
          "velocity": 1
        },
        {
          "duration": 0.27303140624999855,
          "durationTicks": 202,
          "midi": 29,
          "name": "F1",
          "ticks": 79950,
          "time": 108.06366796875,
          "velocity": 1
        },
        {
          "duration": 0.10272468750001451,
          "durationTicks": 76,
          "midi": 29,
          "name": "F1",
          "ticks": 80620,
          "time": 108.9692671875,
          "velocity": 1
        },
        {
          "duration": 0.2541084375000082,
          "durationTicks": 188,
          "midi": 29,
          "name": "F1",
          "ticks": 80910,
          "time": 109.36124296874999,
          "velocity": 1
        },
        {
          "duration": 0.09191156250001598,
          "durationTicks": 68,
          "midi": 27,
          "name": "D#1",
          "ticks": 81294,
          "time": 109.88027296874999,
          "velocity": 1
        },
        {
          "duration": 0.14597718749999444,
          "durationTicks": 108,
          "midi": 28,
          "name": "E1",
          "ticks": 81390,
          "time": 110.01003046875,
          "velocity": 1
        },
        {
          "duration": 0.2514051562500015,
          "durationTicks": 186,
          "midi": 29,
          "name": "F1",
          "ticks": 81486,
          "time": 110.13978796875,
          "velocity": 1
        },
        {
          "duration": 0.11353781249999884,
          "durationTicks": 84,
          "midi": 39,
          "name": "D#2",
          "ticks": 82158,
          "time": 111.04809046875,
          "velocity": 1
        },
        {
          "duration": 0.18652640624999606,
          "durationTicks": 138,
          "midi": 29,
          "name": "F1",
          "ticks": 82254,
          "time": 111.17784796875,
          "velocity": 1
        },
        {
          "duration": 0.2054493750000148,
          "durationTicks": 152,
          "midi": 29,
          "name": "F1",
          "ticks": 82446,
          "time": 111.43736296875,
          "velocity": 1
        },
        {
          "duration": 0.08920828125000924,
          "durationTicks": 66,
          "midi": 27,
          "name": "D#1",
          "ticks": 82830,
          "time": 111.95639296875,
          "velocity": 1
        },
        {
          "duration": 0.14327390625000191,
          "durationTicks": 106,
          "midi": 28,
          "name": "E1",
          "ticks": 82926,
          "time": 112.08615046874999,
          "velocity": 1
        },
        {
          "duration": 0.3000642187499949,
          "durationTicks": 222,
          "midi": 29,
          "name": "F1",
          "ticks": 83022,
          "time": 112.21590796875,
          "velocity": 1
        },
        {
          "duration": 0.05947218750000616,
          "durationTicks": 44,
          "midi": 29,
          "name": "F1",
          "ticks": 83694,
          "time": 113.12421046875,
          "velocity": 1
        },
        {
          "duration": 0.2757346874999911,
          "durationTicks": 204,
          "midi": 29,
          "name": "F1",
          "ticks": 83790,
          "time": 113.25396796875,
          "velocity": 1
        },
        {
          "duration": 0.35412984374998757,
          "durationTicks": 262,
          "midi": 32,
          "name": "G#1",
          "ticks": 84174,
          "time": 113.77299796875,
          "velocity": 1
        },
        {
          "duration": 0.37575609375001306,
          "durationTicks": 278,
          "midi": 34,
          "name": "A#1",
          "ticks": 84558,
          "time": 114.29202796874999,
          "velocity": 1
        },
        {
          "duration": 0.062175468749998686,
          "durationTicks": 46,
          "midi": 34,
          "name": "A#1",
          "ticks": 85230,
          "time": 115.20033046875,
          "velocity": 1
        },
        {
          "duration": 0.2135592187500066,
          "durationTicks": 158,
          "midi": 34,
          "name": "A#1",
          "ticks": 85326,
          "time": 115.33008796875,
          "velocity": 1
        },
        {
          "duration": 0.19193296874999533,
          "durationTicks": 142,
          "midi": 34,
          "name": "A#1",
          "ticks": 85518,
          "time": 115.58960296875,
          "velocity": 1
        },
        {
          "duration": 0.14868046875000118,
          "durationTicks": 110,
          "midi": 32,
          "name": "G#1",
          "ticks": 85902,
          "time": 116.10863296875,
          "velocity": 1
        },
        {
          "duration": 0.07569187500000396,
          "durationTicks": 56,
          "midi": 33,
          "name": "A1",
          "ticks": 85998,
          "time": 116.23839046875,
          "velocity": 1
        },
        {
          "duration": 0.3000642187500091,
          "durationTicks": 222,
          "midi": 34,
          "name": "A#1",
          "ticks": 86094,
          "time": 116.36814796875,
          "velocity": 1
        },
        {
          "duration": 0.06487875000000543,
          "durationTicks": 48,
          "midi": 34,
          "name": "A#1",
          "ticks": 86766,
          "time": 117.27645046875,
          "velocity": 1
        },
        {
          "duration": 0.19463625000000206,
          "durationTicks": 144,
          "midi": 34,
          "name": "A#1",
          "ticks": 86862,
          "time": 117.40620796875,
          "velocity": 1
        },
        {
          "duration": 0.21626249999998493,
          "durationTicks": 160,
          "midi": 34,
          "name": "A#1",
          "ticks": 87054,
          "time": 117.66572296875,
          "velocity": 1
        },
        {
          "duration": 0.040549218750001614,
          "durationTicks": 30,
          "midi": 34,
          "name": "A#1",
          "ticks": 87342,
          "time": 118.05499546875,
          "velocity": 1
        },
        {
          "duration": 0.18652640624999606,
          "durationTicks": 138,
          "midi": 39,
          "name": "D#2",
          "ticks": 87438,
          "time": 118.18475296875,
          "velocity": 1
        },
        {
          "duration": 0.10542796874999283,
          "durationTicks": 78,
          "midi": 41,
          "name": "F2",
          "ticks": 87534,
          "time": 118.31451046875,
          "velocity": 1
        },
        {
          "duration": 0.20815265624999313,
          "durationTicks": 154,
          "midi": 34,
          "name": "A#1",
          "ticks": 87630,
          "time": 118.44426796875,
          "velocity": 1
        },
        {
          "duration": 0.062175468749984475,
          "durationTicks": 46,
          "midi": 34,
          "name": "A#1",
          "ticks": 88302,
          "time": 119.35257046875,
          "velocity": 1
        },
        {
          "duration": 0.17030671874999825,
          "durationTicks": 126,
          "midi": 34,
          "name": "A#1",
          "ticks": 88398,
          "time": 119.48232796875,
          "velocity": 1
        },
        {
          "duration": 0.21085593749999987,
          "durationTicks": 156,
          "midi": 34,
          "name": "A#1",
          "ticks": 88590,
          "time": 119.74184296874999,
          "velocity": 1
        },
        {
          "duration": 0.20815265624999313,
          "durationTicks": 154,
          "midi": 34,
          "name": "A#1",
          "ticks": 89166,
          "time": 120.52038796875,
          "velocity": 1
        },
        {
          "duration": 0.08920828125000924,
          "durationTicks": 66,
          "midi": 34,
          "name": "A#1",
          "ticks": 89838,
          "time": 121.42869046874999,
          "velocity": 1
        },
        {
          "duration": 0.07028531249999048,
          "durationTicks": 52,
          "midi": 34,
          "name": "A#1",
          "ticks": 89934,
          "time": 121.55844796875,
          "velocity": 1
        },
        {
          "duration": 0.35142656250000925,
          "durationTicks": 260,
          "midi": 34,
          "name": "A#1",
          "ticks": 90030,
          "time": 121.68820546875,
          "velocity": 1
        },
        {
          "duration": 0.029736093749988868,
          "durationTicks": 22,
          "midi": 36,
          "name": "C2",
          "ticks": 90030,
          "time": 121.68820546875,
          "velocity": 1
        },
        {
          "duration": 0.06487874999999121,
          "durationTicks": 48,
          "midi": 36,
          "name": "C2",
          "ticks": 90318,
          "time": 122.07747796875,
          "velocity": 1
        },
        {
          "duration": 0.40819546875000867,
          "durationTicks": 302,
          "midi": 36,
          "name": "C2",
          "ticks": 90414,
          "time": 122.20723546875,
          "velocity": 1
        },
        {
          "duration": 0.27303140624998434,
          "durationTicks": 202,
          "midi": 29,
          "name": "F1",
          "ticks": 90702,
          "time": 122.59650796875,
          "velocity": 1
        },
        {
          "duration": 0.05406562499999268,
          "durationTicks": 40,
          "midi": 29,
          "name": "F1",
          "ticks": 91374,
          "time": 123.50481046875,
          "velocity": 1
        },
        {
          "duration": 0.189229687500017,
          "durationTicks": 140,
          "midi": 29,
          "name": "F1",
          "ticks": 91470,
          "time": 123.63456796874999,
          "velocity": 1
        },
        {
          "duration": 0.19193296874999533,
          "durationTicks": 142,
          "midi": 29,
          "name": "F1",
          "ticks": 91662,
          "time": 123.89408296875,
          "velocity": 1
        },
        {
          "duration": 0.15408703125000045,
          "durationTicks": 114,
          "midi": 27,
          "name": "D#1",
          "ticks": 92046,
          "time": 124.41311296875,
          "velocity": 1
        },
        {
          "duration": 0.07839515624999649,
          "durationTicks": 58,
          "midi": 28,
          "name": "E1",
          "ticks": 92142,
          "time": 124.54287046875,
          "velocity": 1
        },
        {
          "duration": 0.27843796875001203,
          "durationTicks": 206,
          "midi": 29,
          "name": "F1",
          "ticks": 92238,
          "time": 124.67262796874999,
          "velocity": 1
        },
        {
          "duration": 0.20815265624999313,
          "durationTicks": 154,
          "midi": 29,
          "name": "F1",
          "ticks": 92910,
          "time": 125.58093046875,
          "velocity": 1
        },
        {
          "duration": 0.23248218749999694,
          "durationTicks": 172,
          "midi": 29,
          "name": "F1",
          "ticks": 93198,
          "time": 125.97020296875,
          "velocity": 1
        },
        {
          "duration": 0.09191156250000176,
          "durationTicks": 68,
          "midi": 27,
          "name": "D#1",
          "ticks": 93582,
          "time": 126.48923296875,
          "velocity": 1
        },
        {
          "duration": 0.1351640624999959,
          "durationTicks": 100,
          "midi": 28,
          "name": "E1",
          "ticks": 93678,
          "time": 126.61899046875,
          "velocity": 1
        },
        {
          "duration": 0.25681171875000075,
          "durationTicks": 190,
          "midi": 29,
          "name": "F1",
          "ticks": 93774,
          "time": 126.74874796875,
          "velocity": 1
        },
        {
          "duration": 0.06487874999999121,
          "durationTicks": 48,
          "midi": 29,
          "name": "F1",
          "ticks": 94446,
          "time": 127.65705046875,
          "velocity": 1
        },
        {
          "duration": 0.1973395312500088,
          "durationTicks": 146,
          "midi": 29,
          "name": "F1",
          "ticks": 94542,
          "time": 127.78680796875,
          "velocity": 1
        },
        {
          "duration": 0.21896578125000588,
          "durationTicks": 162,
          "midi": 29,
          "name": "F1",
          "ticks": 94734,
          "time": 128.04632296875,
          "velocity": 1
        },
        {
          "duration": 0.1513837499999795,
          "durationTicks": 112,
          "midi": 27,
          "name": "D#1",
          "ticks": 95118,
          "time": 128.56535296875,
          "velocity": 1
        },
        {
          "duration": 0.07839515624999649,
          "durationTicks": 58,
          "midi": 28,
          "name": "E1",
          "ticks": 95214,
          "time": 128.69511046875,
          "velocity": 1
        },
        {
          "duration": 0.3000642187500091,
          "durationTicks": 222,
          "midi": 29,
          "name": "F1",
          "ticks": 95310,
          "time": 128.82486796875,
          "velocity": 1
        },
        {
          "duration": 0.26221828125,
          "durationTicks": 194,
          "midi": 29,
          "name": "F1",
          "ticks": 96078,
          "time": 129.86292796875,
          "velocity": 1
        },
        {
          "duration": 0.36764625000000706,
          "durationTicks": 272,
          "midi": 29,
          "name": "F1",
          "ticks": 96462,
          "time": 130.38195796875,
          "velocity": 1
        },
        {
          "duration": 0.37575609374999885,
          "durationTicks": 278,
          "midi": 34,
          "name": "A#1",
          "ticks": 96846,
          "time": 130.90098796875,
          "velocity": 1
        },
        {
          "duration": 0.08380171875000997,
          "durationTicks": 62,
          "midi": 34,
          "name": "A#1",
          "ticks": 97518,
          "time": 131.80929046875,
          "velocity": 1
        },
        {
          "duration": 0.2135592187499924,
          "durationTicks": 158,
          "midi": 34,
          "name": "A#1",
          "ticks": 97806,
          "time": 132.19856296875,
          "velocity": 1
        },
        {
          "duration": 0.14868046875000118,
          "durationTicks": 110,
          "midi": 32,
          "name": "G#1",
          "ticks": 98190,
          "time": 132.71759296875,
          "velocity": 1
        },
        {
          "duration": 0.08920828124999503,
          "durationTicks": 66,
          "midi": 33,
          "name": "A1",
          "ticks": 98286,
          "time": 132.84735046875,
          "velocity": 1
        },
        {
          "duration": 0.3000642187499807,
          "durationTicks": 222,
          "midi": 34,
          "name": "A#1",
          "ticks": 98382,
          "time": 132.97710796875,
          "velocity": 1
        },
        {
          "duration": 0.19193296875002375,
          "durationTicks": 142,
          "midi": 34,
          "name": "A#1",
          "ticks": 99054,
          "time": 133.88541046875,
          "velocity": 1
        },
        {
          "duration": 0.20815265625000734,
          "durationTicks": 154,
          "midi": 34,
          "name": "A#1",
          "ticks": 99342,
          "time": 134.27468296875,
          "velocity": 1
        },
        {
          "duration": 0.04595578125000088,
          "durationTicks": 34,
          "midi": 34,
          "name": "A#1",
          "ticks": 99630,
          "time": 134.66395546875,
          "velocity": 1
        },
        {
          "duration": 0.17030671874999825,
          "durationTicks": 126,
          "midi": 44,
          "name": "G#2",
          "ticks": 99726,
          "time": 134.79371296875,
          "velocity": 1
        },
        {
          "duration": 0.11624109374997715,
          "durationTicks": 86,
          "midi": 46,
          "name": "A#2",
          "ticks": 99822,
          "time": 134.92347046875,
          "velocity": 1
        },
        {
          "duration": 0.2541084374999798,
          "durationTicks": 188,
          "midi": 34,
          "name": "A#1",
          "ticks": 99918,
          "time": 135.05322796875,
          "velocity": 1
        },
        {
          "duration": 0.07298859375001143,
          "durationTicks": 54,
          "midi": 34,
          "name": "A#1",
          "ticks": 100590,
          "time": 135.96153046875,
          "velocity": 1
        },
        {
          "duration": 0.20815265625000734,
          "durationTicks": 154,
          "midi": 34,
          "name": "A#1",
          "ticks": 100686,
          "time": 136.09128796875,
          "velocity": 1
        },
        {
          "duration": 0.2135592187499924,
          "durationTicks": 158,
          "midi": 34,
          "name": "A#1",
          "ticks": 100878,
          "time": 136.35080296875,
          "velocity": 1
        },
        {
          "duration": 0.12975749999998243,
          "durationTicks": 96,
          "midi": 29,
          "name": "F1",
          "ticks": 101454,
          "time": 137.12934796875,
          "velocity": 1
        },
        {
          "duration": 0.12975750000001085,
          "durationTicks": 96,
          "midi": 34,
          "name": "A#1",
          "ticks": 101550,
          "time": 137.25910546875,
          "velocity": 1
        },
        {
          "duration": 0.12975749999998243,
          "durationTicks": 96,
          "midi": 31,
          "name": "G1",
          "ticks": 101646,
          "time": 137.38886296875,
          "velocity": 1
        },
        {
          "duration": 0.12975750000001085,
          "durationTicks": 96,
          "midi": 32,
          "name": "G#1",
          "ticks": 101742,
          "time": 137.51862046875,
          "velocity": 1
        },
        {
          "duration": 0.12975750000001085,
          "durationTicks": 96,
          "midi": 39,
          "name": "D#2",
          "ticks": 101838,
          "time": 137.64837796875,
          "velocity": 1
        },
        {
          "duration": 0.12975749999998243,
          "durationTicks": 96,
          "midi": 35,
          "name": "B1",
          "ticks": 101934,
          "time": 137.77813546875,
          "velocity": 1
        },
        {
          "duration": 0.12975750000001085,
          "durationTicks": 96,
          "midi": 36,
          "name": "C2",
          "ticks": 102030,
          "time": 137.90789296875,
          "velocity": 1
        },
        {
          "duration": 0.12975749999998243,
          "durationTicks": 96,
          "midi": 46,
          "name": "A#2",
          "ticks": 102126,
          "time": 138.03765046875,
          "velocity": 1
        },
        {
          "duration": 0.12975750000001085,
          "durationTicks": 96,
          "midi": 40,
          "name": "E2",
          "ticks": 102222,
          "time": 138.16740796874998,
          "velocity": 1
        },
        {
          "duration": 0.12975750000001085,
          "durationTicks": 96,
          "midi": 41,
          "name": "F2",
          "ticks": 102318,
          "time": 138.29716546875,
          "velocity": 1
        },
        {
          "duration": 0.12975749999998243,
          "durationTicks": 96,
          "midi": 53,
          "name": "F3",
          "ticks": 102414,
          "time": 138.42692296875,
          "velocity": 1
        },
        {
          "duration": 0.12975750000001085,
          "durationTicks": 96,
          "midi": 47,
          "name": "B2",
          "ticks": 102510,
          "time": 138.55668046875,
          "velocity": 1
        },
        {
          "duration": 0.12975750000001085,
          "durationTicks": 96,
          "midi": 48,
          "name": "C3",
          "ticks": 102606,
          "time": 138.68643796875,
          "velocity": 1
        },
        {
          "duration": 0.12975749999998243,
          "durationTicks": 96,
          "midi": 55,
          "name": "G3",
          "ticks": 102702,
          "time": 138.81619546875,
          "velocity": 1
        },
        {
          "duration": 0.12975750000001085,
          "durationTicks": 96,
          "midi": 56,
          "name": "G#3",
          "ticks": 102798,
          "time": 138.94595296875,
          "velocity": 1
        },
        {
          "duration": 0.2865478124999754,
          "durationTicks": 212,
          "midi": 41,
          "name": "F2",
          "ticks": 102894,
          "time": 139.07571046875,
          "velocity": 1
        }
      ]
    },
    {
      "channel": 0,
      "controlChanges": {
        "7": [
          {
            "number": 7,
            "ticks": 1536,
            "time": 2.07612,
            "value": 0.9448818897637795
          }
        ],
        "10": [
          {
            "number": 10,
            "ticks": 1536,
            "time": 2.07612,
            "value": 0.5039370078740157
          }
        ],
        "91": [
          {
            "number": 91,
            "ticks": 1536,
            "time": 2.07612,
            "value": 0.5905511811023622
          }
        ],
        "93": [
          {
            "number": 93,
            "ticks": 1536,
            "time": 2.07612,
            "value": 0
          }
        ]
      },
      "pitchBends": [
        {
          "ticks": 1536,
          "time": 2.07612,
          "value": 0
        },
        {
          "ticks": 1536,
          "time": 2.07612,
          "value": 0
        }
      ],
      "instrument": {
        "family": "piano",
        "number": 0,
        "name": "acoustic grand piano"
      },
      "name": "A.PIANO 2",
      "notes": [],
      "endOfTrackTicks": 104526
    },
    {
      "channel": 2,
      "controlChanges": {
        "64": [
          {
            "number": 64,
            "ticks": 1536,
            "time": 2.07612,
            "value": 0
          },
          {
            "number": 64,
            "ticks": 21308,
            "time": 28.8007584375,
            "value": 1
          },
          {
            "number": 64,
            "ticks": 58818,
            "time": 79.50079828125,
            "value": 1
          },
          {
            "number": 64,
            "ticks": 59204,
            "time": 80.0225315625,
            "value": 0
          },
          {
            "number": 64,
            "ticks": 60354,
            "time": 81.57691828125,
            "value": 1
          },
          {
            "number": 64,
            "ticks": 60740,
            "time": 82.09865156250001,
            "value": 0
          },
          {
            "number": 64,
            "ticks": 60906,
            "time": 82.32302390625,
            "value": 1
          },
          {
            "number": 64,
            "ticks": 61030,
            "time": 82.49062734374999,
            "value": 0
          },
          {
            "number": 64,
            "ticks": 61312,
            "time": 82.87178999999999,
            "value": 1
          },
          {
            "number": 64,
            "ticks": 61400,
            "time": 82.990734375,
            "value": 0
          },
          {
            "number": 64,
            "ticks": 61616,
            "time": 83.28268875,
            "value": 1
          },
          {
            "number": 64,
            "ticks": 61804,
            "time": 83.5367971875,
            "value": 0
          },
          {
            "number": 64,
            "ticks": 84210,
            "time": 113.82165703125,
            "value": 1
          },
          {
            "number": 64,
            "ticks": 84436,
            "time": 114.12712781249999,
            "value": 0
          },
          {
            "number": 64,
            "ticks": 84956,
            "time": 114.8299809375,
            "value": 1
          },
          {
            "number": 64,
            "ticks": 85368,
            "time": 115.38685687499999,
            "value": 0
          }
        ]
      },
      "pitchBends": [],
      "instrument": {
        "family": "piano",
        "number": 1,
        "name": "bright acoustic piano"
      },
      "name": "",
      "notes": [
        {
          "duration": 0.12435093750000004,
          "durationTicks": 92,
          "midi": 48,
          "name": "C3",
          "ticks": 1616,
          "time": 2.18425125,
          "velocity": 0.9291338582677166
        },
        {
          "duration": 0.12705421875000011,
          "durationTicks": 94,
          "midi": 53,
          "name": "F3",
          "ticks": 1712,
          "time": 2.3140087499999997,
          "velocity": 0.952755905511811
        },
        {
          "duration": 0.13246078124999983,
          "durationTicks": 98,
          "midi": 50,
          "name": "D3",
          "ticks": 1804,
          "time": 2.4383596875,
          "velocity": 0.8976377952755905
        },
        {
          "duration": 0.1351640624999999,
          "durationTicks": 100,
          "midi": 51,
          "name": "D#3",
          "ticks": 1902,
          "time": 2.57082046875,
          "velocity": 0.8818897637795275
        },
        {
          "duration": 0.12435093750000004,
          "durationTicks": 92,
          "midi": 58,
          "name": "A#3",
          "ticks": 1998,
          "time": 2.70057796875,
          "velocity": 0.9133858267716536
        },
        {
          "duration": 0.12705421875000011,
          "durationTicks": 94,
          "midi": 54,
          "name": "F#3",
          "ticks": 2094,
          "time": 2.83033546875,
          "velocity": 0.8661417322834646
        },
        {
          "duration": 0.13246078124999983,
          "durationTicks": 98,
          "midi": 55,
          "name": "G3",
          "ticks": 2190,
          "time": 2.96009296875,
          "velocity": 0.8503937007874016
        },
        {
          "duration": 0.11894437500000032,
          "durationTicks": 88,
          "midi": 65,
          "name": "F4",
          "ticks": 2286,
          "time": 3.08985046875,
          "velocity": 0.8818897637795275
        },
        {
          "duration": 0.12435093750000048,
          "durationTicks": 92,
          "midi": 51,
          "name": "D#3",
          "ticks": 2384,
          "time": 3.2223112499999997,
          "velocity": 0.9291338582677166
        },
        {
          "duration": 0.12705421875000011,
          "durationTicks": 94,
          "midi": 56,
          "name": "G#3",
          "ticks": 2478,
          "time": 3.34936546875,
          "velocity": 0.952755905511811
        },
        {
          "duration": 0.1297575000000002,
          "durationTicks": 96,
          "midi": 53,
          "name": "F3",
          "ticks": 2572,
          "time": 3.4764196875,
          "velocity": 0.8976377952755905
        },
        {
          "duration": 0.13516406250000035,
          "durationTicks": 100,
          "midi": 54,
          "name": "F#3",
          "ticks": 2670,
          "time": 3.60888046875,
          "velocity": 0.8818897637795275
        },
        {
          "duration": 0.12435093749999959,
          "durationTicks": 92,
          "midi": 61,
          "name": "C#4",
          "ticks": 2766,
          "time": 3.73863796875,
          "velocity": 0.9133858267716536
        },
        {
          "duration": 0.12705421875000056,
          "durationTicks": 94,
          "midi": 57,
          "name": "A3",
          "ticks": 2862,
          "time": 3.8683954687499997,
          "velocity": 0.8661417322834646
        },
        {
          "duration": 0.12975749999999975,
          "durationTicks": 96,
          "midi": 58,
          "name": "A#3",
          "ticks": 2958,
          "time": 3.99815296875,
          "velocity": 0.8503937007874016
        },
        {
          "duration": 0.11894437499999988,
          "durationTicks": 88,
          "midi": 68,
          "name": "G#4",
          "ticks": 3054,
          "time": 4.12791046875,
          "velocity": 0.8818897637795275
        },
        {
          "duration": 2.57082046875,
          "durationTicks": 1902,
          "midi": 60,
          "name": "C4",
          "ticks": 58448,
          "time": 79.00069125,
          "velocity": 0.968503937007874
        },
        {
          "duration": 2.5546007812500022,
          "durationTicks": 1890,
          "midi": 64,
          "name": "E4",
          "ticks": 58448,
          "time": 79.00069125,
          "velocity": 0.9212598425196851
        },
        {
          "duration": 0.5812054687499995,
          "durationTicks": 430,
          "midi": 83,
          "name": "B5",
          "ticks": 58448,
          "time": 79.00069125,
          "velocity": 0.8976377952755905
        },
        {
          "duration": 2.076120000000003,
          "durationTicks": 1536,
          "midi": 55,
          "name": "G3",
          "ticks": 58448,
          "time": 79.00069125,
          "velocity": 0.8503937007874016
        },
        {
          "duration": 2.076120000000003,
          "durationTicks": 1536,
          "midi": 57,
          "name": "A3",
          "ticks": 58448,
          "time": 79.00069125,
          "velocity": 0.9291338582677166
        },
        {
          "duration": 0.5866120312499845,
          "durationTicks": 434,
          "midi": 95,
          "name": "B6",
          "ticks": 58448,
          "time": 79.00069125,
          "velocity": 0.968503937007874
        },
        {
          "duration": 2.5681171874999933,
          "durationTicks": 1900,
          "midi": 61,
          "name": "C#4",
          "ticks": 59984,
          "time": 81.07681125,
          "velocity": 0.968503937007874
        },
        {
          "duration": 2.5546007812500022,
          "durationTicks": 1890,
          "midi": 65,
          "name": "F4",
          "ticks": 59984,
          "time": 81.07681125,
          "velocity": 0.9212598425196851
        },
        {
          "duration": 0.5785021874999927,
          "durationTicks": 428,
          "midi": 84,
          "name": "C6",
          "ticks": 59984,
          "time": 81.07681125,
          "velocity": 0.8976377952755905
        },
        {
          "duration": 2.5654139062499866,
          "durationTicks": 1898,
          "midi": 56,
          "name": "G#3",
          "ticks": 59984,
          "time": 81.07681125,
          "velocity": 0.8503937007874016
        },
        {
          "duration": 2.5735237499999926,
          "durationTicks": 1904,
          "midi": 58,
          "name": "A#3",
          "ticks": 59984,
          "time": 81.07681125,
          "velocity": 0.9291338582677166
        },
        {
          "duration": 0.583908749999992,
          "durationTicks": 432,
          "midi": 96,
          "name": "C7",
          "ticks": 59984,
          "time": 81.07681125,
          "velocity": 0.968503937007874
        },
        {
          "duration": 0.24599859375000221,
          "durationTicks": 182,
          "midi": 82,
          "name": "A#5",
          "ticks": 60750,
          "time": 82.11216796875,
          "velocity": 0.9448818897637795
        },
        {
          "duration": 0.24599859375000221,
          "durationTicks": 182,
          "midi": 94,
          "name": "A#6",
          "ticks": 60750,
          "time": 82.11216796875,
          "velocity": 1
        },
        {
          "duration": 0.24870187500000895,
          "durationTicks": 184,
          "midi": 92,
          "name": "G#6",
          "ticks": 61132,
          "time": 82.6284946875,
          "velocity": 1
        },
        {
          "duration": 0.24599859375000221,
          "durationTicks": 182,
          "midi": 80,
          "name": "G#5",
          "ticks": 61132,
          "time": 82.6284946875,
          "velocity": 0.9291338582677166
        },
        {
          "duration": 0.11624109375000558,
          "durationTicks": 86,
          "midi": 82,
          "name": "A#5",
          "ticks": 61516,
          "time": 83.1475246875,
          "velocity": 0.9448818897637795
        },
        {
          "duration": 0.17030671874999825,
          "durationTicks": 126,
          "midi": 94,
          "name": "A#6",
          "ticks": 61516,
          "time": 83.1475246875,
          "velocity": 0.968503937007874
        },
        {
          "duration": 0.06487875000000543,
          "durationTicks": 48,
          "midi": 96,
          "name": "C7",
          "ticks": 61708,
          "time": 83.40703968749999,
          "velocity": 0.9212598425196851
        },
        {
          "duration": 0.06487875000000543,
          "durationTicks": 48,
          "midi": 84,
          "name": "C6",
          "ticks": 61708,
          "time": 83.40703968749999,
          "velocity": 0.8503937007874016
        },
        {
          "duration": 0.12975750000001085,
          "durationTicks": 96,
          "midi": 89,
          "name": "F6",
          "ticks": 61808,
          "time": 83.54220375,
          "velocity": 1
        },
        {
          "duration": 0.09731812500000103,
          "durationTicks": 72,
          "midi": 77,
          "name": "F5",
          "ticks": 61808,
          "time": 83.54220375,
          "velocity": 0.984251968503937
        },
        {
          "duration": 0.0946148437500085,
          "durationTicks": 70,
          "midi": 61,
          "name": "C#4",
          "ticks": 61996,
          "time": 83.79631218749999,
          "velocity": 0.9606299212598425
        },
        {
          "duration": 0.10002140625000777,
          "durationTicks": 74,
          "midi": 65,
          "name": "F4",
          "ticks": 61996,
          "time": 83.79631218749999,
          "velocity": 0.9448818897637795
        },
        {
          "duration": 0.09731812500000103,
          "durationTicks": 72,
          "midi": 58,
          "name": "A#3",
          "ticks": 61996,
          "time": 83.79631218749999,
          "velocity": 0.8818897637795275
        },
        {
          "duration": 0.09731812500000103,
          "durationTicks": 72,
          "midi": 56,
          "name": "G#3",
          "ticks": 61996,
          "time": 83.79631218749999,
          "velocity": 0.9133858267716536
        },
        {
          "duration": 0.0946148437500085,
          "durationTicks": 70,
          "midi": 65,
          "name": "F4",
          "ticks": 62188,
          "time": 84.0558271875,
          "velocity": 0.9448818897637795
        },
        {
          "duration": 0.07839515624999649,
          "durationTicks": 58,
          "midi": 61,
          "name": "C#4",
          "ticks": 62188,
          "time": 84.0558271875,
          "velocity": 0.9606299212598425
        },
        {
          "duration": 0.0865050000000025,
          "durationTicks": 64,
          "midi": 56,
          "name": "G#3",
          "ticks": 62188,
          "time": 84.0558271875,
          "velocity": 0.905511811023622
        },
        {
          "duration": 0.08109843749998902,
          "durationTicks": 60,
          "midi": 58,
          "name": "A#3",
          "ticks": 62188,
          "time": 84.0558271875,
          "velocity": 0.905511811023622
        },
        {
          "duration": 0.10272468750001451,
          "durationTicks": 76,
          "midi": 65,
          "name": "F4",
          "ticks": 62380,
          "time": 84.3153421875,
          "velocity": 0.9291338582677166
        },
        {
          "duration": 0.10542796875000704,
          "durationTicks": 78,
          "midi": 56,
          "name": "G#3",
          "ticks": 62380,
          "time": 84.3153421875,
          "velocity": 0.905511811023622
        },
        {
          "duration": 0.08920828124999503,
          "durationTicks": 66,
          "midi": 61,
          "name": "C#4",
          "ticks": 62380,
          "time": 84.3153421875,
          "velocity": 0.9448818897637795
        },
        {
          "duration": 0.09191156250000176,
          "durationTicks": 68,
          "midi": 58,
          "name": "A#3",
          "ticks": 62380,
          "time": 84.3153421875,
          "velocity": 0.905511811023622
        },
        {
          "duration": 0.10002140624999356,
          "durationTicks": 74,
          "midi": 65,
          "name": "F4",
          "ticks": 62576,
          "time": 84.58026375,
          "velocity": 0.968503937007874
        },
        {
          "duration": 0.08380171874999576,
          "durationTicks": 62,
          "midi": 61,
          "name": "C#4",
          "ticks": 62576,
          "time": 84.58026375,
          "velocity": 0.9606299212598425
        },
        {
          "duration": 0.08920828125000924,
          "durationTicks": 66,
          "midi": 56,
          "name": "G#3",
          "ticks": 62576,
          "time": 84.58026375,
          "velocity": 0.9212598425196851
        },
        {
          "duration": 0.0865050000000025,
          "durationTicks": 64,
          "midi": 58,
          "name": "A#3",
          "ticks": 62576,
          "time": 84.58026375,
          "velocity": 0.905511811023622
        },
        {
          "duration": 0.07569187499998975,
          "durationTicks": 56,
          "midi": 61,
          "name": "C#4",
          "ticks": 62768,
          "time": 84.83977875000001,
          "velocity": 0.9606299212598425
        },
        {
          "duration": 0.08650499999998829,
          "durationTicks": 64,
          "midi": 65,
          "name": "F4",
          "ticks": 62768,
          "time": 84.83977875000001,
          "velocity": 0.9212598425196851
        },
        {
          "duration": 0.08650499999998829,
          "durationTicks": 64,
          "midi": 56,
          "name": "G#3",
          "ticks": 62768,
          "time": 84.83977875000001,
          "velocity": 0.905511811023622
        },
        {
          "duration": 0.08380171874998155,
          "durationTicks": 62,
          "midi": 58,
          "name": "A#3",
          "ticks": 62768,
          "time": 84.83977875000001,
          "velocity": 0.9212598425196851
        },
        {
          "duration": 3.1601357812500055,
          "durationTicks": 2338,
          "midi": 65,
          "name": "F4",
          "ticks": 62958,
          "time": 85.09659046875,
          "velocity": 0.9606299212598425
        },
        {
          "duration": 3.170948906250004,
          "durationTicks": 2346,
          "midi": 56,
          "name": "G#3",
          "ticks": 62958,
          "time": 85.09659046875,
          "velocity": 0.9448818897637795
        },
        {
          "duration": 3.1655423437500048,
          "durationTicks": 2342,
          "midi": 61,
          "name": "C#4",
          "ticks": 62958,
          "time": 85.09659046875,
          "velocity": 0.968503937007874
        },
        {
          "duration": 3.1817620312500026,
          "durationTicks": 2354,
          "midi": 58,
          "name": "A#3",
          "ticks": 62958,
          "time": 85.09659046875,
          "velocity": 0.9448818897637795
        },
        {
          "duration": 0.08650499999998829,
          "durationTicks": 64,
          "midi": 96,
          "name": "C7",
          "ticks": 63248,
          "time": 85.48856625,
          "velocity": 0.9448818897637795
        },
        {
          "duration": 0.08380171874998155,
          "durationTicks": 62,
          "midi": 84,
          "name": "C6",
          "ticks": 63248,
          "time": 85.48856625,
          "velocity": 0.8818897637795275
        },
        {
          "duration": 0.1027246875000003,
          "durationTicks": 76,
          "midi": 96,
          "name": "C7",
          "ticks": 63344,
          "time": 85.61832375,
          "velocity": 0.9291338582677166
        },
        {
          "duration": 0.09731812500000103,
          "durationTicks": 72,
          "midi": 84,
          "name": "C6",
          "ticks": 63344,
          "time": 85.61832375,
          "velocity": 0.889763779527559
        },
        {
          "duration": 0.08380171874998155,
          "durationTicks": 62,
          "midi": 82,
          "name": "A#5",
          "ticks": 63536,
          "time": 85.87783875000001,
          "velocity": 0.8818897637795275
        },
        {
          "duration": 0.08109843749998902,
          "durationTicks": 60,
          "midi": 94,
          "name": "A#6",
          "ticks": 63536,
          "time": 85.87783875000001,
          "velocity": 0.9448818897637795
        },
        {
          "duration": 0.10272468750001451,
          "durationTicks": 76,
          "midi": 82,
          "name": "A#5",
          "ticks": 63724,
          "time": 86.13194718749999,
          "velocity": 0.9133858267716536
        },
        {
          "duration": 0.10002140625000777,
          "durationTicks": 74,
          "midi": 94,
          "name": "A#6",
          "ticks": 63726,
          "time": 86.13465046875,
          "velocity": 0.984251968503937
        },
        {
          "duration": 0.08650499999998829,
          "durationTicks": 64,
          "midi": 80,
          "name": "G#5",
          "ticks": 63918,
          "time": 86.39416546875,
          "velocity": 0.889763779527559
        },
        {
          "duration": 0.08380171874999576,
          "durationTicks": 62,
          "midi": 92,
          "name": "G#6",
          "ticks": 63918,
          "time": 86.39416546875,
          "velocity": 0.968503937007874
        },
        {
          "duration": 0.11353781249999884,
          "durationTicks": 84,
          "midi": 80,
          "name": "G#5",
          "ticks": 64108,
          "time": 86.65097718749999,
          "velocity": 0.9212598425196851
        },
        {
          "duration": 0.10542796875000704,
          "durationTicks": 78,
          "midi": 92,
          "name": "G#6",
          "ticks": 64110,
          "time": 86.65368046875,
          "velocity": 0.9448818897637795
        },
        {
          "duration": 0.09461484374999429,
          "durationTicks": 70,
          "midi": 79,
          "name": "G5",
          "ticks": 64302,
          "time": 86.91319546875,
          "velocity": 0.9133858267716536
        },
        {
          "duration": 0.08920828124999503,
          "durationTicks": 66,
          "midi": 91,
          "name": "G6",
          "ticks": 64302,
          "time": 86.91319546875,
          "velocity": 0.984251968503937
        },
        {
          "duration": 0.12435093750001158,
          "durationTicks": 92,
          "midi": 79,
          "name": "G5",
          "ticks": 64494,
          "time": 87.17271046875,
          "velocity": 0.9448818897637795
        },
        {
          "duration": 0.1270542187499899,
          "durationTicks": 94,
          "midi": 91,
          "name": "G6",
          "ticks": 64494,
          "time": 87.17271046875,
          "velocity": 0.984251968503937
        },
        {
          "duration": 0.1108345312499921,
          "durationTicks": 82,
          "midi": 89,
          "name": "F6",
          "ticks": 64686,
          "time": 87.43222546875,
          "velocity": 0.9448818897637795
        },
        {
          "duration": 0.10002140624999356,
          "durationTicks": 74,
          "midi": 77,
          "name": "F5",
          "ticks": 64686,
          "time": 87.43222546875,
          "velocity": 0.8582677165354331
        },
        {
          "duration": 0.10002140625000777,
          "durationTicks": 74,
          "midi": 77,
          "name": "F5",
          "ticks": 64878,
          "time": 87.69174046875,
          "velocity": 0.889763779527559
        },
        {
          "duration": 0.09461484374999429,
          "durationTicks": 70,
          "midi": 89,
          "name": "F6",
          "ticks": 64878,
          "time": 87.69174046875,
          "velocity": 0.9448818897637795
        },
        {
          "duration": 0.0946148437500085,
          "durationTicks": 70,
          "midi": 87,
          "name": "D#6",
          "ticks": 65070,
          "time": 87.95125546874999,
          "velocity": 0.9606299212598425
        },
        {
          "duration": 0.08109843750000323,
          "durationTicks": 60,
          "midi": 75,
          "name": "D#5",
          "ticks": 65072,
          "time": 87.95395875,
          "velocity": 0.9212598425196851
        },
        {
          "duration": 0.18652640624999606,
          "durationTicks": 138,
          "midi": 89,
          "name": "F6",
          "ticks": 65252,
          "time": 88.19725406250001,
          "velocity": 0.9448818897637795
        },
        {
          "duration": 0.07028531249999048,
          "durationTicks": 52,
          "midi": 82,
          "name": "A#5",
          "ticks": 65252,
          "time": 88.19725406250001,
          "velocity": 0.984251968503937
        },
        {
          "duration": 0.06758203124998374,
          "durationTicks": 50,
          "midi": 80,
          "name": "G#5",
          "ticks": 65252,
          "time": 88.19725406250001,
          "velocity": 0.9448818897637795
        },
        {
          "duration": 0.15949359374999972,
          "durationTicks": 118,
          "midi": 87,
          "name": "D#6",
          "ticks": 65254,
          "time": 88.19995734375,
          "velocity": 0.9448818897637795
        },
        {
          "duration": 0.14057062500000939,
          "durationTicks": 104,
          "midi": 83,
          "name": "B5",
          "ticks": 65334,
          "time": 88.30808859375,
          "velocity": 0.6929133858267716
        },
        {
          "duration": 0.06487875000000543,
          "durationTicks": 48,
          "midi": 82,
          "name": "A#5",
          "ticks": 65412,
          "time": 88.41351656249999,
          "velocity": 0.5748031496062992
        },
        {
          "duration": 0.07028531250000469,
          "durationTicks": 52,
          "midi": 80,
          "name": "G#5",
          "ticks": 65446,
          "time": 88.45947234375,
          "velocity": 0.8976377952755905
        },
        {
          "duration": 0.13246078125000338,
          "durationTicks": 98,
          "midi": 89,
          "name": "F6",
          "ticks": 65538,
          "time": 88.58382328125,
          "velocity": 0.968503937007874
        },
        {
          "duration": 0.1351640624999817,
          "durationTicks": 100,
          "midi": 82,
          "name": "A#5",
          "ticks": 65538,
          "time": 88.58382328125,
          "velocity": 0.9921259842519685
        },
        {
          "duration": 0.1432739062499877,
          "durationTicks": 106,
          "midi": 65,
          "name": "F4",
          "ticks": 65648,
          "time": 88.73250375,
          "velocity": 0.9133858267716536
        },
        {
          "duration": 0.1270542187499899,
          "durationTicks": 94,
          "midi": 61,
          "name": "C#4",
          "ticks": 65648,
          "time": 88.73250375,
          "velocity": 0.8740157480314961
        },
        {
          "duration": 0.14597718750000865,
          "durationTicks": 108,
          "midi": 58,
          "name": "A#3",
          "ticks": 65652,
          "time": 88.73791031249999,
          "velocity": 0.8818897637795275
        },
        {
          "duration": 0.13246078125000338,
          "durationTicks": 98,
          "midi": 56,
          "name": "G#3",
          "ticks": 65656,
          "time": 88.74331687499999,
          "velocity": 0.8976377952755905
        },
        {
          "duration": 0.17300999999999078,
          "durationTicks": 128,
          "midi": 82,
          "name": "A#5",
          "ticks": 65750,
          "time": 88.87037109375001,
          "velocity": 0.984251968503937
        },
        {
          "duration": 0.17300999999999078,
          "durationTicks": 128,
          "midi": 89,
          "name": "F6",
          "ticks": 65756,
          "time": 88.8784809375,
          "velocity": 0.984251968503937
        },
        {
          "duration": 0.11083453125000631,
          "durationTicks": 82,
          "midi": 80,
          "name": "G#5",
          "ticks": 65848,
          "time": 89.002831875,
          "velocity": 0.968503937007874
        },
        {
          "duration": 0.09461484374999429,
          "durationTicks": 70,
          "midi": 77,
          "name": "F5",
          "ticks": 65940,
          "time": 89.1271828125,
          "velocity": 0.8818897637795275
        },
        {
          "duration": 0.0783951562500107,
          "durationTicks": 58,
          "midi": 75,
          "name": "D#5",
          "ticks": 66040,
          "time": 89.26234687499999,
          "velocity": 0.8818897637795275
        },
        {
          "duration": 0.22707562499999767,
          "durationTicks": 168,
          "midi": 77,
          "name": "F5",
          "ticks": 66134,
          "time": 89.38940109375001,
          "velocity": 0.984251968503937
        },
        {
          "duration": 1.3516406249999875,
          "durationTicks": 1000,
          "midi": 65,
          "name": "F4",
          "ticks": 66146,
          "time": 89.40562078125001,
          "velocity": 0.8818897637795275
        },
        {
          "duration": 1.2083667187499998,
          "durationTicks": 894,
          "midi": 60,
          "name": "C4",
          "ticks": 66154,
          "time": 89.41643390624999,
          "velocity": 0.8740157480314961
        },
        {
          "duration": 1.1813339062500177,
          "durationTicks": 874,
          "midi": 56,
          "name": "G#3",
          "ticks": 66154,
          "time": 89.41643390624999,
          "velocity": 0.8267716535433071
        },
        {
          "duration": 0.12975749999999664,
          "durationTicks": 96,
          "midi": 77,
          "name": "F5",
          "ticks": 66330,
          "time": 89.65432265625,
          "velocity": 0.905511811023622
        },
        {
          "duration": 0.10272468750001451,
          "durationTicks": 76,
          "midi": 80,
          "name": "G#5",
          "ticks": 66436,
          "time": 89.79759656249999,
          "velocity": 0.984251968503937
        },
        {
          "duration": 0.11353781249999884,
          "durationTicks": 84,
          "midi": 79,
          "name": "G5",
          "ticks": 66620,
          "time": 90.0462984375,
          "velocity": 1
        },
        {
          "duration": 1.5624965624999874,
          "durationTicks": 1156,
          "midi": 75,
          "name": "D#5",
          "ticks": 66798,
          "time": 90.28689046875,
          "velocity": 1
        },
        {
          "duration": 0.09191156249998755,
          "durationTicks": 68,
          "midi": 60,
          "name": "C4",
          "ticks": 67076,
          "time": 90.6626465625,
          "velocity": 0.8503937007874016
        },
        {
          "duration": 0.08650499999998829,
          "durationTicks": 64,
          "midi": 56,
          "name": "G#3",
          "ticks": 67080,
          "time": 90.668053125,
          "velocity": 0.8740157480314961
        },
        {
          "duration": 0.08920828124999503,
          "durationTicks": 66,
          "midi": 60,
          "name": "C4",
          "ticks": 67368,
          "time": 91.057325625,
          "velocity": 0.8818897637795275
        },
        {
          "duration": 0.08109843749998902,
          "durationTicks": 60,
          "midi": 65,
          "name": "F4",
          "ticks": 67368,
          "time": 91.057325625,
          "velocity": 0.8582677165354331
        },
        {
          "duration": 0.07839515624998228,
          "durationTicks": 58,
          "midi": 56,
          "name": "G#3",
          "ticks": 67368,
          "time": 91.057325625,
          "velocity": 0.905511811023622
        },
        {
          "duration": 0.337910156250004,
          "durationTicks": 250,
          "midi": 65,
          "name": "F4",
          "ticks": 67556,
          "time": 91.3114340625,
          "velocity": 0.9212598425196851
        },
        {
          "duration": 0.33791015624998977,
          "durationTicks": 250,
          "midi": 60,
          "name": "C4",
          "ticks": 67560,
          "time": 91.316840625,
          "velocity": 0.9212598425196851
        },
        {
          "duration": 0.32980031249999797,
          "durationTicks": 244,
          "midi": 56,
          "name": "G#3",
          "ticks": 67560,
          "time": 91.316840625,
          "velocity": 0.9291338582677166
        },
        {
          "duration": 0.3162839062499927,
          "durationTicks": 234,
          "midi": 63,
          "name": "D#4",
          "ticks": 67562,
          "time": 91.31954390625,
          "velocity": 0.9212598425196851
        },
        {
          "duration": 1.8193082812500165,
          "durationTicks": 1346,
          "midi": 56,
          "name": "G#3",
          "ticks": 67852,
          "time": 91.71151968749999,
          "velocity": 0.8110236220472441
        },
        {
          "duration": 1.8247148437500016,
          "durationTicks": 1350,
          "midi": 60,
          "name": "C4",
          "ticks": 67854,
          "time": 91.71422296875,
          "velocity": 0.8503937007874016
        },
        {
          "duration": 1.8166050000000098,
          "durationTicks": 1344,
          "midi": 63,
          "name": "D#4",
          "ticks": 67854,
          "time": 91.71422296875,
          "velocity": 0.8976377952755905
        },
        {
          "duration": 1.7868689062499925,
          "durationTicks": 1322,
          "midi": 65,
          "name": "F4",
          "ticks": 67856,
          "time": 91.71692625,
          "velocity": 0.8267716535433071
        },
        {
          "duration": 0.10813124999999957,
          "durationTicks": 80,
          "midi": 77,
          "name": "F5",
          "ticks": 68058,
          "time": 91.98995765625,
          "velocity": 1
        },
        {
          "duration": 0.12975749999999664,
          "durationTicks": 96,
          "midi": 77,
          "name": "F5",
          "ticks": 68232,
          "time": 92.225143125,
          "velocity": 1
        },
        {
          "duration": 0.09191156250000176,
          "durationTicks": 68,
          "midi": 80,
          "name": "G#5",
          "ticks": 68340,
          "time": 92.3711203125,
          "velocity": 0.984251968503937
        },
        {
          "duration": 0.10542796874999283,
          "durationTicks": 78,
          "midi": 79,
          "name": "G5",
          "ticks": 68512,
          "time": 92.6036025,
          "velocity": 1
        },
        {
          "duration": 0.09461484374999429,
          "durationTicks": 70,
          "midi": 75,
          "name": "D#5",
          "ticks": 68700,
          "time": 92.8577109375,
          "velocity": 0.968503937007874
        },
        {
          "duration": 0.07839515624999649,
          "durationTicks": 58,
          "midi": 77,
          "name": "F5",
          "ticks": 68902,
          "time": 93.13074234375,
          "velocity": 0.9448818897637795
        },
        {
          "duration": 0.09461484374999429,
          "durationTicks": 70,
          "midi": 70,
          "name": "A#4",
          "ticks": 69084,
          "time": 93.3767409375,
          "velocity": 0.984251968503937
        },
        {
          "duration": 0.08109843749998902,
          "durationTicks": 60,
          "midi": 71,
          "name": "B4",
          "ticks": 69128,
          "time": 93.43621312500001,
          "velocity": 0.8267716535433071
        },
        {
          "duration": 1.0975321875000077,
          "durationTicks": 812,
          "midi": 72,
          "name": "C5",
          "ticks": 69180,
          "time": 93.5064984375,
          "velocity": 0.9212598425196851
        },
        {
          "duration": 0.1189443749999981,
          "durationTicks": 88,
          "midi": 63,
          "name": "D#4",
          "ticks": 69392,
          "time": 93.79304625,
          "velocity": 0.8818897637795275
        },
        {
          "duration": 0.14597718749999444,
          "durationTicks": 108,
          "midi": 56,
          "name": "G#3",
          "ticks": 69392,
          "time": 93.79304625,
          "velocity": 0.8503937007874016
        },
        {
          "duration": 0.12164765625000484,
          "durationTicks": 90,
          "midi": 65,
          "name": "F4",
          "ticks": 69392,
          "time": 93.79304625,
          "velocity": 0.8031496062992126
        },
        {
          "duration": 0.12435093749998316,
          "durationTicks": 92,
          "midi": 60,
          "name": "C4",
          "ticks": 69392,
          "time": 93.79304625,
          "velocity": 0.8818897637795275
        },
        {
          "duration": 0.09461484374999429,
          "durationTicks": 70,
          "midi": 63,
          "name": "D#4",
          "ticks": 69678,
          "time": 94.17961546875,
          "velocity": 0.8503937007874016
        },
        {
          "duration": 0.10002140625000777,
          "durationTicks": 74,
          "midi": 60,
          "name": "C4",
          "ticks": 69678,
          "time": 94.17961546875,
          "velocity": 0.8110236220472441
        },
        {
          "duration": 0.08920828124999503,
          "durationTicks": 66,
          "midi": 65,
          "name": "F4",
          "ticks": 69678,
          "time": 94.17961546875,
          "velocity": 0.8503937007874016
        },
        {
          "duration": 0.09731812500000103,
          "durationTicks": 72,
          "midi": 56,
          "name": "G#3",
          "ticks": 69678,
          "time": 94.17961546875,
          "velocity": 0.8188976377952756
        },
        {
          "duration": 0.13786734375000265,
          "durationTicks": 102,
          "midi": 65,
          "name": "F4",
          "ticks": 69870,
          "time": 94.43913046875,
          "velocity": 0.905511811023622
        },
        {
          "duration": 0.13246078125000338,
          "durationTicks": 98,
          "midi": 63,
          "name": "D#4",
          "ticks": 69870,
          "time": 94.43913046875,
          "velocity": 0.8818897637795275
        },
        {
          "duration": 0.1513837499999937,
          "durationTicks": 112,
          "midi": 60,
          "name": "C4",
          "ticks": 69870,
          "time": 94.43913046875,
          "velocity": 0.84251968503937
        },
        {
          "duration": 0.1649001562500132,
          "durationTicks": 122,
          "midi": 56,
          "name": "G#3",
          "ticks": 69870,
          "time": 94.43913046875,
          "velocity": 0.8503937007874016
        },
        {
          "duration": 0.14868046875000118,
          "durationTicks": 110,
          "midi": 70,
          "name": "A#4",
          "ticks": 70062,
          "time": 94.69864546875,
          "velocity": 0.984251968503937
        },
        {
          "duration": 0.1270542187499899,
          "durationTicks": 94,
          "midi": 67,
          "name": "G4",
          "ticks": 70158,
          "time": 94.82840296875,
          "velocity": 0.984251968503937
        },
        {
          "duration": 0.0865050000000025,
          "durationTicks": 64,
          "midi": 63,
          "name": "D#4",
          "ticks": 70254,
          "time": 94.95816046875,
          "velocity": 0.9212598425196851
        },
        {
          "duration": 0.1324607812500176,
          "durationTicks": 98,
          "midi": 68,
          "name": "G#4",
          "ticks": 70350,
          "time": 95.08791796874999,
          "velocity": 0.984251968503937
        },
        {
          "duration": 0.18652640624999606,
          "durationTicks": 138,
          "midi": 67,
          "name": "G4",
          "ticks": 70446,
          "time": 95.21767546875,
          "velocity": 1
        },
        {
          "duration": 0.12164765625000484,
          "durationTicks": 90,
          "midi": 65,
          "name": "F4",
          "ticks": 70542,
          "time": 95.34743296875,
          "velocity": 0.8976377952755905
        },
        {
          "duration": 0.11624109375000558,
          "durationTicks": 86,
          "midi": 63,
          "name": "D#4",
          "ticks": 70638,
          "time": 95.47719046875,
          "velocity": 0.968503937007874
        },
        {
          "duration": 0.12164765625000484,
          "durationTicks": 90,
          "midi": 65,
          "name": "F4",
          "ticks": 70734,
          "time": 95.60694796874999,
          "velocity": 0.9212598425196851
        },
        {
          "duration": 0.10542796874999283,
          "durationTicks": 78,
          "midi": 67,
          "name": "G4",
          "ticks": 70830,
          "time": 95.73670546875,
          "velocity": 0.9212598425196851
        },
        {
          "duration": 0.1108345312499921,
          "durationTicks": 82,
          "midi": 68,
          "name": "G#4",
          "ticks": 70926,
          "time": 95.86646296875,
          "velocity": 0.8818897637795275
        },
        {
          "duration": 0.12435093750001158,
          "durationTicks": 92,
          "midi": 70,
          "name": "A#4",
          "ticks": 71022,
          "time": 95.99622046875,
          "velocity": 0.968503937007874
        },
        {
          "duration": 0.19193296874999533,
          "durationTicks": 142,
          "midi": 75,
          "name": "D#5",
          "ticks": 71118,
          "time": 96.12597796875,
          "velocity": 0.968503937007874
        },
        {
          "duration": 0.11624109375000558,
          "durationTicks": 86,
          "midi": 70,
          "name": "A#4",
          "ticks": 71214,
          "time": 96.25573546875,
          "velocity": 0.8976377952755905
        },
        {
          "duration": 0.1270542187499899,
          "durationTicks": 94,
          "midi": 72,
          "name": "C5",
          "ticks": 71310,
          "time": 96.38549296875,
          "velocity": 0.8976377952755905
        },
        {
          "duration": 0.17030671874999825,
          "durationTicks": 126,
          "midi": 75,
          "name": "D#5",
          "ticks": 71404,
          "time": 96.51254718749999,
          "velocity": 0.9133858267716536
        },
        {
          "duration": 0.13786734374998844,
          "durationTicks": 102,
          "midi": 56,
          "name": "G#3",
          "ticks": 71498,
          "time": 96.63960140625001,
          "velocity": 0.8976377952755905
        },
        {
          "duration": 0.1567903125000072,
          "durationTicks": 116,
          "midi": 77,
          "name": "F5",
          "ticks": 71500,
          "time": 96.64230468749999,
          "velocity": 0.9212598425196851
        },
        {
          "duration": 0.10813124999999957,
          "durationTicks": 80,
          "midi": 63,
          "name": "D#4",
          "ticks": 71504,
          "time": 96.64771125,
          "velocity": 0.889763779527559
        },
        {
          "duration": 0.11353781249999884,
          "durationTicks": 84,
          "midi": 65,
          "name": "F4",
          "ticks": 71504,
          "time": 96.64771125,
          "velocity": 0.8818897637795275
        },
        {
          "duration": 0.12164765625000484,
          "durationTicks": 90,
          "midi": 60,
          "name": "C4",
          "ticks": 71506,
          "time": 96.65041453125,
          "velocity": 0.8582677165354331
        },
        {
          "duration": 0.14597718749999444,
          "durationTicks": 108,
          "midi": 72,
          "name": "C5",
          "ticks": 71598,
          "time": 96.77476546875,
          "velocity": 0.8582677165354331
        },
        {
          "duration": 0.15408703125000045,
          "durationTicks": 114,
          "midi": 65,
          "name": "F4",
          "ticks": 71686,
          "time": 96.89370984374999,
          "velocity": 0.8740157480314961
        },
        {
          "duration": 0.14327390625000191,
          "durationTicks": 106,
          "midi": 63,
          "name": "D#4",
          "ticks": 71688,
          "time": 96.896413125,
          "velocity": 0.8818897637795275
        },
        {
          "duration": 0.14597718750000865,
          "durationTicks": 108,
          "midi": 56,
          "name": "G#3",
          "ticks": 71688,
          "time": 96.896413125,
          "velocity": 0.8818897637795275
        },
        {
          "duration": 0.14327390625000191,
          "durationTicks": 106,
          "midi": 60,
          "name": "C4",
          "ticks": 71690,
          "time": 96.89911640625,
          "velocity": 0.8503937007874016
        },
        {
          "duration": 0.16219687499999225,
          "durationTicks": 120,
          "midi": 75,
          "name": "D#5",
          "ticks": 71694,
          "time": 96.90452296875,
          "velocity": 0.9133858267716536
        },
        {
          "duration": 0.12435093749998316,
          "durationTicks": 92,
          "midi": 77,
          "name": "F5",
          "ticks": 71792,
          "time": 97.03698375,
          "velocity": 0.8976377952755905
        },
        {
          "duration": 0.08920828124999503,
          "durationTicks": 66,
          "midi": 80,
          "name": "G#5",
          "ticks": 71888,
          "time": 97.16674125,
          "velocity": 0.8976377952755905
        },
        {
          "duration": 0.09731812500000103,
          "durationTicks": 72,
          "midi": 63,
          "name": "D#4",
          "ticks": 71964,
          "time": 97.2694659375,
          "velocity": 0.889763779527559
        },
        {
          "duration": 0.10002140624997935,
          "durationTicks": 74,
          "midi": 65,
          "name": "F4",
          "ticks": 71966,
          "time": 97.27216921875001,
          "velocity": 0.9291338582677166
        },
        {
          "duration": 0.10272468750001451,
          "durationTicks": 76,
          "midi": 60,
          "name": "C4",
          "ticks": 71968,
          "time": 97.27487249999999,
          "velocity": 0.8818897637795275
        },
        {
          "duration": 0.11894437500001231,
          "durationTicks": 88,
          "midi": 56,
          "name": "G#3",
          "ticks": 71968,
          "time": 97.27487249999999,
          "velocity": 0.8740157480314961
        },
        {
          "duration": 0.07028531250000469,
          "durationTicks": 52,
          "midi": 84,
          "name": "C6",
          "ticks": 71984,
          "time": 97.29649875,
          "velocity": 0.8976377952755905
        },
        {
          "duration": 0.14868046875000118,
          "durationTicks": 110,
          "midi": 82,
          "name": "A#5",
          "ticks": 71984,
          "time": 97.29649875,
          "velocity": 0.8818897637795275
        },
        {
          "duration": 0.08920828125000924,
          "durationTicks": 66,
          "midi": 80,
          "name": "G#5",
          "ticks": 72082,
          "time": 97.42895953124999,
          "velocity": 0.8976377952755905
        },
        {
          "duration": 0.7650285937499888,
          "durationTicks": 566,
          "midi": 60,
          "name": "C4",
          "ticks": 72152,
          "time": 97.52357437500001,
          "velocity": 0.8582677165354331
        },
        {
          "duration": 0.7569187500000112,
          "durationTicks": 560,
          "midi": 61,
          "name": "C#4",
          "ticks": 72160,
          "time": 97.5343875,
          "velocity": 0.889763779527559
        },
        {
          "duration": 0.7379957812499924,
          "durationTicks": 546,
          "midi": 56,
          "name": "G#3",
          "ticks": 72162,
          "time": 97.53709078125,
          "velocity": 0.8818897637795275
        },
        {
          "duration": 0.7379957812499924,
          "durationTicks": 546,
          "midi": 65,
          "name": "F4",
          "ticks": 72162,
          "time": 97.53709078125,
          "velocity": 0.9212598425196851
        },
        {
          "duration": 0.0946148437500085,
          "durationTicks": 70,
          "midi": 77,
          "name": "F5",
          "ticks": 72184,
          "time": 97.56682687499999,
          "velocity": 1
        },
        {
          "duration": 0.09731812500000103,
          "durationTicks": 72,
          "midi": 82,
          "name": "A#5",
          "ticks": 72270,
          "time": 97.68306796875,
          "velocity": 0.8818897637795275
        },
        {
          "duration": 0.08380171875000997,
          "durationTicks": 62,
          "midi": 83,
          "name": "B5",
          "ticks": 72312,
          "time": 97.739836875,
          "velocity": 0.8582677165354331
        },
        {
          "duration": 0.15408703125000045,
          "durationTicks": 114,
          "midi": 84,
          "name": "C6",
          "ticks": 72364,
          "time": 97.8101221875,
          "velocity": 1
        },
        {
          "duration": 0.16490015624999899,
          "durationTicks": 122,
          "midi": 87,
          "name": "D#6",
          "ticks": 72478,
          "time": 97.96420921875,
          "velocity": 0.9291338582677166
        },
        {
          "duration": 0.09461484374999429,
          "durationTicks": 70,
          "midi": 82,
          "name": "A#5",
          "ticks": 72566,
          "time": 98.08315359375,
          "velocity": 0.8818897637795275
        },
        {
          "duration": 0.07569187500000396,
          "durationTicks": 56,
          "midi": 83,
          "name": "B5",
          "ticks": 72604,
          "time": 98.1345159375,
          "velocity": 0.8740157480314961
        },
        {
          "duration": 0.12435093749999737,
          "durationTicks": 92,
          "midi": 84,
          "name": "C6",
          "ticks": 72650,
          "time": 98.19669140625,
          "velocity": 0.9606299212598425
        },
        {
          "duration": 0.09731812500000103,
          "durationTicks": 72,
          "midi": 77,
          "name": "F5",
          "ticks": 72760,
          "time": 98.345371875,
          "velocity": 0.8976377952755905
        },
        {
          "duration": 0.6947432812500125,
          "durationTicks": 514,
          "midi": 61,
          "name": "C#4",
          "ticks": 72820,
          "time": 98.42647031249999,
          "velocity": 0.8818897637795275
        },
        {
          "duration": 0.689336718749999,
          "durationTicks": 510,
          "midi": 65,
          "name": "F4",
          "ticks": 72822,
          "time": 98.42917359375,
          "velocity": 0.9212598425196851
        },
        {
          "duration": 0.6920400000000058,
          "durationTicks": 512,
          "midi": 60,
          "name": "C4",
          "ticks": 72822,
          "time": 98.42917359375,
          "velocity": 0.8818897637795275
        },
        {
          "duration": 0.7001498437499976,
          "durationTicks": 518,
          "midi": 56,
          "name": "G#3",
          "ticks": 72824,
          "time": 98.431876875,
          "velocity": 0.889763779527559
        },
        {
          "duration": 0.1270542187499899,
          "durationTicks": 94,
          "midi": 82,
          "name": "A#5",
          "ticks": 72858,
          "time": 98.47783265625,
          "velocity": 0.9448818897637795
        },
        {
          "duration": 0.0865050000000025,
          "durationTicks": 64,
          "midi": 83,
          "name": "B5",
          "ticks": 72916,
          "time": 98.5562278125,
          "velocity": 0.8582677165354331
        },
        {
          "duration": 0.10813125000001378,
          "durationTicks": 80,
          "midi": 84,
          "name": "C6",
          "ticks": 72976,
          "time": 98.63732624999999,
          "velocity": 0.9212598425196851
        },
        {
          "duration": 0.1892296875000028,
          "durationTicks": 140,
          "midi": 87,
          "name": "D#6",
          "ticks": 73056,
          "time": 98.7454575,
          "velocity": 0.9606299212598425
        },
        {
          "duration": 0.09731812500000103,
          "durationTicks": 72,
          "midi": 82,
          "name": "A#5",
          "ticks": 73164,
          "time": 98.8914346875,
          "velocity": 0.8976377952755905
        },
        {
          "duration": 0.07569187500000396,
          "durationTicks": 56,
          "midi": 83,
          "name": "B5",
          "ticks": 73204,
          "time": 98.94550031249999,
          "velocity": 0.889763779527559
        },
        {
          "duration": 0.1351640624999959,
          "durationTicks": 100,
          "midi": 84,
          "name": "C6",
          "ticks": 73254,
          "time": 99.01308234375,
          "velocity": 0.9606299212598425
        },
        {
          "duration": 0.1108345312499921,
          "durationTicks": 82,
          "midi": 77,
          "name": "F5",
          "ticks": 73358,
          "time": 99.15365296875001,
          "velocity": 0.889763779527559
        },
        {
          "duration": 0.7217760937500088,
          "durationTicks": 534,
          "midi": 61,
          "name": "C#4",
          "ticks": 73420,
          "time": 99.23745468749999,
          "velocity": 0.8740157480314961
        },
        {
          "duration": 0.7244793750000014,
          "durationTicks": 536,
          "midi": 60,
          "name": "C4",
          "ticks": 73420,
          "time": 99.23745468749999,
          "velocity": 0.8818897637795275
        },
        {
          "duration": 0.7298859375000006,
          "durationTicks": 540,
          "midi": 56,
          "name": "G#3",
          "ticks": 73424,
          "time": 99.24286125,
          "velocity": 0.8582677165354331
        },
        {
          "duration": 0.7082596874999894,
          "durationTicks": 524,
          "midi": 65,
          "name": "F4",
          "ticks": 73424,
          "time": 99.24286125,
          "velocity": 0.9606299212598425
        },
        {
          "duration": 0.1351640624999959,
          "durationTicks": 100,
          "midi": 82,
          "name": "A#5",
          "ticks": 73454,
          "time": 99.28341046875,
          "velocity": 0.9212598425196851
        },
        {
          "duration": 0.09731812500000103,
          "durationTicks": 72,
          "midi": 83,
          "name": "B5",
          "ticks": 73514,
          "time": 99.36450890625001,
          "velocity": 0.8976377952755905
        },
        {
          "duration": 0.09731812500000103,
          "durationTicks": 72,
          "midi": 84,
          "name": "C6",
          "ticks": 73584,
          "time": 99.45912375,
          "velocity": 0.9133858267716536
        },
        {
          "duration": 0.17030671874999825,
          "durationTicks": 126,
          "midi": 87,
          "name": "D#6",
          "ticks": 73648,
          "time": 99.54562874999999,
          "velocity": 0.9133858267716536
        },
        {
          "duration": 0.10272468749998609,
          "durationTicks": 76,
          "midi": 82,
          "name": "A#5",
          "ticks": 73740,
          "time": 99.6699796875,
          "velocity": 0.8503937007874016
        },
        {
          "duration": 0.07298859374999722,
          "durationTicks": 54,
          "midi": 83,
          "name": "B5",
          "ticks": 73782,
          "time": 99.72674859375,
          "velocity": 0.889763779527559
        },
        {
          "duration": 0.14057062499999518,
          "durationTicks": 104,
          "midi": 84,
          "name": "C6",
          "ticks": 73832,
          "time": 99.794330625,
          "velocity": 0.9448818897637795
        },
        {
          "duration": 0.12975749999999664,
          "durationTicks": 96,
          "midi": 77,
          "name": "F5",
          "ticks": 73940,
          "time": 99.94030781250001,
          "velocity": 0.8818897637795275
        },
        {
          "duration": 0.9731812499999961,
          "durationTicks": 720,
          "midi": 56,
          "name": "G#3",
          "ticks": 74024,
          "time": 100.05384562500001,
          "velocity": 0.889763779527559
        },
        {
          "duration": 0.9839943749999804,
          "durationTicks": 728,
          "midi": 60,
          "name": "C4",
          "ticks": 74024,
          "time": 100.05384562500001,
          "velocity": 0.8976377952755905
        },
        {
          "duration": 0.9812910937500021,
          "durationTicks": 726,
          "midi": 61,
          "name": "C#4",
          "ticks": 74026,
          "time": 100.05654890624999,
          "velocity": 0.889763779527559
        },
        {
          "duration": 0.9650714062500043,
          "durationTicks": 714,
          "midi": 65,
          "name": "F4",
          "ticks": 74028,
          "time": 100.0592521875,
          "velocity": 0.968503937007874
        },
        {
          "duration": 0.12975749999999664,
          "durationTicks": 96,
          "midi": 82,
          "name": "A#5",
          "ticks": 74036,
          "time": 100.0700653125,
          "velocity": 0.8818897637795275
        },
        {
          "duration": 0.07569187499998975,
          "durationTicks": 56,
          "midi": 83,
          "name": "B5",
          "ticks": 74096,
          "time": 100.15116375000001,
          "velocity": 0.8818897637795275
        },
        {
          "duration": 0.12164765625000484,
          "durationTicks": 90,
          "midi": 84,
          "name": "C6",
          "ticks": 74146,
          "time": 100.21874578124999,
          "velocity": 0.9212598425196851
        },
        {
          "duration": 0.181119843750011,
          "durationTicks": 134,
          "midi": 87,
          "name": "D#6",
          "ticks": 74226,
          "time": 100.32687703124999,
          "velocity": 0.9133858267716536
        },
        {
          "duration": 0.11894437500001231,
          "durationTicks": 88,
          "midi": 82,
          "name": "A#5",
          "ticks": 74332,
          "time": 100.4701509375,
          "velocity": 0.905511811023622
        },
        {
          "duration": 0.07839515624999649,
          "durationTicks": 58,
          "midi": 83,
          "name": "B5",
          "ticks": 74384,
          "time": 100.54043625,
          "velocity": 0.8818897637795275
        },
        {
          "duration": 0.13246078125000338,
          "durationTicks": 98,
          "midi": 84,
          "name": "C6",
          "ticks": 74434,
          "time": 100.60801828125,
          "velocity": 0.9606299212598425
        },
        {
          "duration": 0.1270542187500041,
          "durationTicks": 94,
          "midi": 77,
          "name": "F5",
          "ticks": 74536,
          "time": 100.745885625,
          "velocity": 0.9212598425196851
        },
        {
          "duration": 0.1594935937499855,
          "durationTicks": 118,
          "midi": 80,
          "name": "G#5",
          "ticks": 74618,
          "time": 100.85672015625,
          "velocity": 0.9212598425196851
        },
        {
          "duration": 0.14868046874998697,
          "durationTicks": 110,
          "midi": 61,
          "name": "C#4",
          "ticks": 74768,
          "time": 101.05946625,
          "velocity": 0.889763779527559
        },
        {
          "duration": 0.14327390625000191,
          "durationTicks": 106,
          "midi": 60,
          "name": "C4",
          "ticks": 74768,
          "time": 101.05946625,
          "velocity": 0.9291338582677166
        },
        {
          "duration": 0.13246078124998917,
          "durationTicks": 98,
          "midi": 56,
          "name": "G#3",
          "ticks": 74768,
          "time": 101.05946625,
          "velocity": 0.8818897637795275
        },
        {
          "duration": 0.14327390625000191,
          "durationTicks": 106,
          "midi": 65,
          "name": "F4",
          "ticks": 74768,
          "time": 101.05946625,
          "velocity": 0.968503937007874
        },
        {
          "duration": 0.12164765624999063,
          "durationTicks": 90,
          "midi": 82,
          "name": "A#5",
          "ticks": 74790,
          "time": 101.08920234375,
          "velocity": 1
        },
        {
          "duration": 0.07569187500000396,
          "durationTicks": 56,
          "midi": 80,
          "name": "G#5",
          "ticks": 74988,
          "time": 101.3568271875,
          "velocity": 0.984251968503937
        },
        {
          "duration": 0.1270542187500041,
          "durationTicks": 94,
          "midi": 82,
          "name": "A#5",
          "ticks": 75050,
          "time": 101.44062890625,
          "velocity": 0.8818897637795275
        },
        {
          "duration": 0.09461484374999429,
          "durationTicks": 70,
          "midi": 61,
          "name": "C#4",
          "ticks": 75056,
          "time": 101.44873875,
          "velocity": 0.889763779527559
        },
        {
          "duration": 0.11353781249999884,
          "durationTicks": 84,
          "midi": 56,
          "name": "G#3",
          "ticks": 75056,
          "time": 101.44873875,
          "velocity": 0.889763779527559
        },
        {
          "duration": 0.1027246875000003,
          "durationTicks": 76,
          "midi": 60,
          "name": "C4",
          "ticks": 75056,
          "time": 101.44873875,
          "velocity": 0.905511811023622
        },
        {
          "duration": 0.09191156249998755,
          "durationTicks": 68,
          "midi": 65,
          "name": "F4",
          "ticks": 75056,
          "time": 101.44873875,
          "velocity": 0.9448818897637795
        },
        {
          "duration": 0.07028531249999048,
          "durationTicks": 52,
          "midi": 80,
          "name": "G#5",
          "ticks": 75116,
          "time": 101.52983718750001,
          "velocity": 0.8976377952755905
        },
        {
          "duration": 0.07569187500000396,
          "durationTicks": 56,
          "midi": 77,
          "name": "F5",
          "ticks": 75168,
          "time": 101.6001225,
          "velocity": 0.8267716535433071
        },
        {
          "duration": 0.32169046874999196,
          "durationTicks": 238,
          "midi": 61,
          "name": "C#4",
          "ticks": 75246,
          "time": 101.70555046875,
          "velocity": 0.8110236220472441
        },
        {
          "duration": 0.32169046874999196,
          "durationTicks": 238,
          "midi": 60,
          "name": "C4",
          "ticks": 75246,
          "time": 101.70555046875,
          "velocity": 0.8503937007874016
        },
        {
          "duration": 0.3000642187499949,
          "durationTicks": 222,
          "midi": 56,
          "name": "G#3",
          "ticks": 75246,
          "time": 101.70555046875,
          "velocity": 0.8582677165354331
        },
        {
          "duration": 0.3162839062499927,
          "durationTicks": 234,
          "midi": 65,
          "name": "F4",
          "ticks": 75246,
          "time": 101.70555046875,
          "velocity": 0.9448818897637795
        },
        {
          "duration": 0.08109843750000323,
          "durationTicks": 60,
          "midi": 79,
          "name": "G5",
          "ticks": 75252,
          "time": 101.7136603125,
          "velocity": 0.984251968503937
        },
        {
          "duration": 0.189229687500017,
          "durationTicks": 140,
          "midi": 80,
          "name": "G#5",
          "ticks": 75346,
          "time": 101.84071453124999,
          "velocity": 0.9606299212598425
        },
        {
          "duration": 0.10813124999998536,
          "durationTicks": 80,
          "midi": 79,
          "name": "G5",
          "ticks": 75452,
          "time": 101.9839884375,
          "velocity": 0.9448818897637795
        },
        {
          "duration": 0.0946148437500085,
          "durationTicks": 70,
          "midi": 75,
          "name": "D#5",
          "ticks": 75532,
          "time": 102.09211968749999,
          "velocity": 0.9212598425196851
        },
        {
          "duration": 0.09461484374999429,
          "durationTicks": 70,
          "midi": 61,
          "name": "C#4",
          "ticks": 75534,
          "time": 102.09482296875,
          "velocity": 0.8976377952755905
        },
        {
          "duration": 0.09461484374999429,
          "durationTicks": 70,
          "midi": 56,
          "name": "G#3",
          "ticks": 75534,
          "time": 102.09482296875,
          "velocity": 0.889763779527559
        },
        {
          "duration": 0.09191156250000176,
          "durationTicks": 68,
          "midi": 60,
          "name": "C4",
          "ticks": 75534,
          "time": 102.09482296875,
          "velocity": 0.9606299212598425
        },
        {
          "duration": 0.08920828125000924,
          "durationTicks": 66,
          "midi": 65,
          "name": "F4",
          "ticks": 75534,
          "time": 102.09482296875,
          "velocity": 0.968503937007874
        },
        {
          "duration": 0.09731812500000103,
          "durationTicks": 72,
          "midi": 72,
          "name": "C5",
          "ticks": 75632,
          "time": 102.22728375,
          "velocity": 0.8976377952755905
        },
        {
          "duration": 0.062175468749998686,
          "durationTicks": 46,
          "midi": 70,
          "name": "A#4",
          "ticks": 75716,
          "time": 102.3408215625,
          "velocity": 0.8976377952755905
        },
        {
          "duration": 0.12435093749999737,
          "durationTicks": 92,
          "midi": 77,
          "name": "F5",
          "ticks": 75826,
          "time": 102.48950203125,
          "velocity": 0.9921259842519685
        },
        {
          "duration": 0.07028531249999048,
          "durationTicks": 52,
          "midi": 70,
          "name": "A#4",
          "ticks": 75828,
          "time": 102.4922053125,
          "velocity": 0.9606299212598425
        },
        {
          "duration": 0.04865906249999341,
          "durationTicks": 36,
          "midi": 72,
          "name": "C5",
          "ticks": 75828,
          "time": 102.4922053125,
          "velocity": 0.9291338582677166
        },
        {
          "duration": 0.05136234375000015,
          "durationTicks": 38,
          "midi": 65,
          "name": "F4",
          "ticks": 75936,
          "time": 102.6381825,
          "velocity": 0.4094488188976378
        },
        {
          "duration": 0.09731812500000103,
          "durationTicks": 72,
          "midi": 70,
          "name": "A#4",
          "ticks": 76002,
          "time": 102.72739078125,
          "velocity": 0.984251968503937
        },
        {
          "duration": 0.17571328124999752,
          "durationTicks": 130,
          "midi": 77,
          "name": "F5",
          "ticks": 76002,
          "time": 102.72739078125,
          "velocity": 0.9448818897637795
        },
        {
          "duration": 0.13786734375000265,
          "durationTicks": 102,
          "midi": 71,
          "name": "B4",
          "ticks": 76064,
          "time": 102.8111925,
          "velocity": 0.84251968503937
        },
        {
          "duration": 0.059472187499977736,
          "durationTicks": 44,
          "midi": 74,
          "name": "D5",
          "ticks": 76070,
          "time": 102.81930234375001,
          "velocity": 0.7401574803149606
        },
        {
          "duration": 0.07298859374999722,
          "durationTicks": 54,
          "midi": 70,
          "name": "A#4",
          "ticks": 76150,
          "time": 102.92743359375,
          "velocity": 0.7480314960629921
        },
        {
          "duration": 0.06758203124999795,
          "durationTicks": 50,
          "midi": 68,
          "name": "G#4",
          "ticks": 76190,
          "time": 102.98149921875,
          "velocity": 0.8503937007874016
        },
        {
          "duration": 0.12164765624999063,
          "durationTicks": 90,
          "midi": 70,
          "name": "A#4",
          "ticks": 76278,
          "time": 103.10044359375,
          "velocity": 0.984251968503937
        },
        {
          "duration": 0.10813124999998536,
          "durationTicks": 80,
          "midi": 65,
          "name": "F4",
          "ticks": 76376,
          "time": 103.232904375,
          "velocity": 0.9133858267716536
        },
        {
          "duration": 0.12164765625000484,
          "durationTicks": 90,
          "midi": 61,
          "name": "C#4",
          "ticks": 76376,
          "time": 103.232904375,
          "velocity": 0.9133858267716536
        },
        {
          "duration": 0.13516406250001012,
          "durationTicks": 100,
          "midi": 56,
          "name": "G#3",
          "ticks": 76378,
          "time": 103.23560765625,
          "velocity": 0.8818897637795275
        },
        {
          "duration": 0.1270542187499899,
          "durationTicks": 94,
          "midi": 58,
          "name": "A#3",
          "ticks": 76380,
          "time": 103.2383109375,
          "velocity": 0.8582677165354331
        },
        {
          "duration": 0.13516406250001012,
          "durationTicks": 100,
          "midi": 68,
          "name": "G#4",
          "ticks": 76468,
          "time": 103.35725531249999,
          "velocity": 0.9921259842519685
        },
        {
          "duration": 0.1027246875000003,
          "durationTicks": 76,
          "midi": 65,
          "name": "F4",
          "ticks": 76574,
          "time": 103.50052921875,
          "velocity": 1
        },
        {
          "duration": 0.0865050000000025,
          "durationTicks": 64,
          "midi": 61,
          "name": "C#4",
          "ticks": 76668,
          "time": 103.6275834375,
          "velocity": 0.8818897637795275
        },
        {
          "duration": 0.09731812500000103,
          "durationTicks": 72,
          "midi": 58,
          "name": "A#3",
          "ticks": 76668,
          "time": 103.6275834375,
          "velocity": 0.8503937007874016
        },
        {
          "duration": 0.09461484374999429,
          "durationTicks": 70,
          "midi": 56,
          "name": "G#3",
          "ticks": 76670,
          "time": 103.63028671875,
          "velocity": 0.84251968503937
        },
        {
          "duration": 0.10542796874999283,
          "durationTicks": 78,
          "midi": 65,
          "name": "F4",
          "ticks": 76778,
          "time": 103.77626390625001,
          "velocity": 1
        },
        {
          "duration": 0.005406562500013479,
          "durationTicks": 4,
          "midi": 58,
          "name": "A#3",
          "ticks": 76912,
          "time": 103.95738374999999,
          "velocity": 0.4094488188976378
        },
        {
          "duration": 0.08650500000001671,
          "durationTicks": 64,
          "midi": 65,
          "name": "F4",
          "ticks": 76984,
          "time": 104.05470187499999,
          "velocity": 1
        },
        {
          "duration": 0.09461484374999429,
          "durationTicks": 70,
          "midi": 68,
          "name": "G#4",
          "ticks": 77070,
          "time": 104.17094296875,
          "velocity": 0.984251968503937
        },
        {
          "duration": 0.10272468750001451,
          "durationTicks": 76,
          "midi": 56,
          "name": "G#3",
          "ticks": 77170,
          "time": 104.30610703125,
          "velocity": 0.8818897637795275
        },
        {
          "duration": 0.08920828124999503,
          "durationTicks": 66,
          "midi": 61,
          "name": "C#4",
          "ticks": 77174,
          "time": 104.31151359375,
          "velocity": 0.905511811023622
        },
        {
          "duration": 0.08650499999998829,
          "durationTicks": 64,
          "midi": 58,
          "name": "A#3",
          "ticks": 77174,
          "time": 104.31151359375,
          "velocity": 0.84251968503937
        },
        {
          "duration": 0.08920828124999503,
          "durationTicks": 66,
          "midi": 65,
          "name": "F4",
          "ticks": 77176,
          "time": 104.314216875,
          "velocity": 0.9212598425196851
        },
        {
          "duration": 0.09731812500000103,
          "durationTicks": 72,
          "midi": 70,
          "name": "A#4",
          "ticks": 77264,
          "time": 104.43316125,
          "velocity": 1
        },
        {
          "duration": 0.11353781249999884,
          "durationTicks": 84,
          "midi": 72,
          "name": "C5",
          "ticks": 77360,
          "time": 104.56291875000001,
          "velocity": 0.8976377952755905
        },
        {
          "duration": 0.09461484374999429,
          "durationTicks": 70,
          "midi": 75,
          "name": "D#5",
          "ticks": 77438,
          "time": 104.66834671875,
          "velocity": 0.9291338582677166
        },
        {
          "duration": 0.08920828125000924,
          "durationTicks": 66,
          "midi": 65,
          "name": "F4",
          "ticks": 77550,
          "time": 104.81973046875,
          "velocity": 0.8818897637795275
        },
        {
          "duration": 0.07569187499998975,
          "durationTicks": 56,
          "midi": 61,
          "name": "C#4",
          "ticks": 77552,
          "time": 104.82243375,
          "velocity": 0.9291338582677166
        },
        {
          "duration": 0.08920828124999503,
          "durationTicks": 66,
          "midi": 56,
          "name": "G#3",
          "ticks": 77552,
          "time": 104.82243375,
          "velocity": 0.889763779527559
        },
        {
          "duration": 0.06487874999999121,
          "durationTicks": 48,
          "midi": 58,
          "name": "A#3",
          "ticks": 77556,
          "time": 104.8278403125,
          "velocity": 0.8267716535433071
        },
        {
          "duration": 0.10813124999998536,
          "durationTicks": 80,
          "midi": 72,
          "name": "C5",
          "ticks": 77642,
          "time": 104.94408140625,
          "velocity": 1
        },
        {
          "duration": 0.12435093749998316,
          "durationTicks": 92,
          "midi": 75,
          "name": "D#5",
          "ticks": 77744,
          "time": 105.08194875000001,
          "velocity": 0.9448818897637795
        },
        {
          "duration": 0.0865050000000025,
          "durationTicks": 64,
          "midi": 77,
          "name": "F5",
          "ticks": 77832,
          "time": 105.200893125,
          "velocity": 0.9448818897637795
        },
        {
          "duration": 0.10542796875000704,
          "durationTicks": 78,
          "midi": 65,
          "name": "F4",
          "ticks": 77934,
          "time": 105.33876046875,
          "velocity": 0.889763779527559
        },
        {
          "duration": 0.0865050000000025,
          "durationTicks": 64,
          "midi": 61,
          "name": "C#4",
          "ticks": 77938,
          "time": 105.34416703125,
          "velocity": 0.9291338582677166
        },
        {
          "duration": 0.10002140625000777,
          "durationTicks": 74,
          "midi": 58,
          "name": "A#3",
          "ticks": 77940,
          "time": 105.3468703125,
          "velocity": 0.8818897637795275
        },
        {
          "duration": 0.09731812500000103,
          "durationTicks": 72,
          "midi": 56,
          "name": "G#3",
          "ticks": 77940,
          "time": 105.3468703125,
          "velocity": 0.8582677165354331
        },
        {
          "duration": 0.1270542187500041,
          "durationTicks": 94,
          "midi": 75,
          "name": "D#5",
          "ticks": 78032,
          "time": 105.47122125,
          "velocity": 1
        },
        {
          "duration": 0.1351640624999959,
          "durationTicks": 100,
          "midi": 77,
          "name": "F5",
          "ticks": 78126,
          "time": 105.59827546875,
          "velocity": 0.8582677165354331
        },
        {
          "duration": 0.12975750000001085,
          "durationTicks": 96,
          "midi": 80,
          "name": "G#5",
          "ticks": 78214,
          "time": 105.71721984374999,
          "velocity": 0.9606299212598425
        },
        {
          "duration": 0.059472187499991946,
          "durationTicks": 44,
          "midi": 75,
          "name": "D#5",
          "ticks": 78312,
          "time": 105.849680625,
          "velocity": 0.8818897637795275
        },
        {
          "duration": 0.07028531250000469,
          "durationTicks": 52,
          "midi": 65,
          "name": "F4",
          "ticks": 78334,
          "time": 105.87941671875,
          "velocity": 0.8267716535433071
        },
        {
          "duration": 0.059472187499991946,
          "durationTicks": 44,
          "midi": 56,
          "name": "G#3",
          "ticks": 78340,
          "time": 105.8875265625,
          "velocity": 0.8267716535433071
        },
        {
          "duration": 0.043252500000008354,
          "durationTicks": 32,
          "midi": 58,
          "name": "A#3",
          "ticks": 78346,
          "time": 105.89563640624999,
          "velocity": 0.6062992125984252
        },
        {
          "duration": 0.15679031249999298,
          "durationTicks": 116,
          "midi": 82,
          "name": "A#5",
          "ticks": 78396,
          "time": 105.9632184375,
          "velocity": 0.968503937007874
        },
        {
          "duration": 0.12705421875001832,
          "durationTicks": 94,
          "midi": 77,
          "name": "F5",
          "ticks": 78400,
          "time": 105.96862499999999,
          "velocity": 1
        },
        {
          "duration": 0.17571328125001173,
          "durationTicks": 130,
          "midi": 82,
          "name": "A#5",
          "ticks": 78604,
          "time": 106.2443596875,
          "velocity": 0.9212598425196851
        },
        {
          "duration": 0.17841656250000426,
          "durationTicks": 132,
          "midi": 77,
          "name": "F5",
          "ticks": 78604,
          "time": 106.2443596875,
          "velocity": 0.984251968503937
        },
        {
          "duration": 0.11353781249999884,
          "durationTicks": 84,
          "midi": 72,
          "name": "C5",
          "ticks": 78700,
          "time": 106.37411718749999,
          "velocity": 0.9212598425196851
        },
        {
          "duration": 0.12164765625000484,
          "durationTicks": 90,
          "midi": 79,
          "name": "G5",
          "ticks": 78702,
          "time": 106.37682046875,
          "velocity": 0.9606299212598425
        },
        {
          "duration": 0.09191156250001598,
          "durationTicks": 68,
          "midi": 67,
          "name": "G4",
          "ticks": 78798,
          "time": 106.50657796875,
          "velocity": 0.9212598425196851
        },
        {
          "duration": 0.11353781249999884,
          "durationTicks": 84,
          "midi": 56,
          "name": "G#3",
          "ticks": 78798,
          "time": 106.50657796875,
          "velocity": 0.8818897637795275
        },
        {
          "duration": 0.09731812500000103,
          "durationTicks": 72,
          "midi": 63,
          "name": "D#4",
          "ticks": 78798,
          "time": 106.50657796875,
          "velocity": 0.8976377952755905
        },
        {
          "duration": 0.11353781249999884,
          "durationTicks": 84,
          "midi": 60,
          "name": "C4",
          "ticks": 78800,
          "time": 106.50928125,
          "velocity": 0.8582677165354331
        },
        {
          "duration": 0.08109843749998902,
          "durationTicks": 60,
          "midi": 72,
          "name": "C5",
          "ticks": 78894,
          "time": 106.63633546875,
          "velocity": 0.9448818897637795
        },
        {
          "duration": 0.12435093749999737,
          "durationTicks": 92,
          "midi": 82,
          "name": "A#5",
          "ticks": 78990,
          "time": 106.76609296875,
          "velocity": 0.968503937007874
        },
        {
          "duration": 0.10002140625000777,
          "durationTicks": 74,
          "midi": 75,
          "name": "D#5",
          "ticks": 78990,
          "time": 106.76609296875,
          "velocity": 0.984251968503937
        },
        {
          "duration": 0.0783951562500107,
          "durationTicks": 58,
          "midi": 67,
          "name": "G4",
          "ticks": 79084,
          "time": 106.89314718749999,
          "velocity": 0.9133858267716536
        },
        {
          "duration": 0.10542796875000704,
          "durationTicks": 78,
          "midi": 63,
          "name": "D#4",
          "ticks": 79084,
          "time": 106.89314718749999,
          "velocity": 0.9212598425196851
        },
        {
          "duration": 0.10272468750001451,
          "durationTicks": 76,
          "midi": 56,
          "name": "G#3",
          "ticks": 79084,
          "time": 106.89314718749999,
          "velocity": 0.8188976377952756
        },
        {
          "duration": 0.12164765625000484,
          "durationTicks": 90,
          "midi": 60,
          "name": "C4",
          "ticks": 79086,
          "time": 106.89585046875,
          "velocity": 0.8503937007874016
        },
        {
          "duration": 0.17030671874999825,
          "durationTicks": 126,
          "midi": 82,
          "name": "A#5",
          "ticks": 79182,
          "time": 107.02560796875,
          "velocity": 0.9291338582677166
        },
        {
          "duration": 0.16760343749999151,
          "durationTicks": 124,
          "midi": 75,
          "name": "D#5",
          "ticks": 79182,
          "time": 107.02560796875,
          "velocity": 0.968503937007874
        },
        {
          "duration": 0.12164765625000484,
          "durationTicks": 90,
          "midi": 79,
          "name": "G5",
          "ticks": 79278,
          "time": 107.15536546874999,
          "velocity": 0.984251968503937
        },
        {
          "duration": 0.09191156250000176,
          "durationTicks": 68,
          "midi": 72,
          "name": "C5",
          "ticks": 79280,
          "time": 107.15806875,
          "velocity": 0.984251968503937
        },
        {
          "duration": 0.08109843749998902,
          "durationTicks": 60,
          "midi": 67,
          "name": "G4",
          "ticks": 79374,
          "time": 107.28512296875,
          "velocity": 0.905511811023622
        },
        {
          "duration": 0.10272468749998609,
          "durationTicks": 76,
          "midi": 63,
          "name": "D#4",
          "ticks": 79374,
          "time": 107.28512296875,
          "velocity": 0.9212598425196851
        },
        {
          "duration": 0.09731812500000103,
          "durationTicks": 72,
          "midi": 56,
          "name": "G#3",
          "ticks": 79376,
          "time": 107.28782625000001,
          "velocity": 0.8503937007874016
        },
        {
          "duration": 0.11894437499998389,
          "durationTicks": 88,
          "midi": 60,
          "name": "C4",
          "ticks": 79376,
          "time": 107.28782625000001,
          "velocity": 0.889763779527559
        },
        {
          "duration": 0.08920828124999503,
          "durationTicks": 66,
          "midi": 72,
          "name": "C5",
          "ticks": 79470,
          "time": 107.41488046875,
          "velocity": 0.9606299212598425
        },
        {
          "duration": 0.09461484374999429,
          "durationTicks": 70,
          "midi": 79,
          "name": "G5",
          "ticks": 79472,
          "time": 107.41758375,
          "velocity": 0.9448818897637795
        },
        {
          "duration": 0.12164765625000484,
          "durationTicks": 90,
          "midi": 82,
          "name": "A#5",
          "ticks": 79568,
          "time": 107.54734125,
          "velocity": 0.9448818897637795
        },
        {
          "duration": 0.0865050000000025,
          "durationTicks": 64,
          "midi": 75,
          "name": "D#5",
          "ticks": 79568,
          "time": 107.54734125,
          "velocity": 0.968503937007874
        },
        {
          "duration": 0.12435093749999737,
          "durationTicks": 92,
          "midi": 67,
          "name": "G4",
          "ticks": 79660,
          "time": 107.6716921875,
          "velocity": 0.9291338582677166
        },
        {
          "duration": 0.12164765625000484,
          "durationTicks": 90,
          "midi": 63,
          "name": "D#4",
          "ticks": 79662,
          "time": 107.67439546874999,
          "velocity": 0.905511811023622
        },
        {
          "duration": 0.1270542187500041,
          "durationTicks": 94,
          "midi": 56,
          "name": "G#3",
          "ticks": 79662,
          "time": 107.67439546874999,
          "velocity": 0.8503937007874016
        },
        {
          "duration": 0.1270542187500041,
          "durationTicks": 94,
          "midi": 60,
          "name": "C4",
          "ticks": 79664,
          "time": 107.67709875,
          "velocity": 0.8740157480314961
        },
        {
          "duration": 0.17841656249999005,
          "durationTicks": 132,
          "midi": 82,
          "name": "A#5",
          "ticks": 79758,
          "time": 107.80415296875,
          "velocity": 0.9291338582677166
        },
        {
          "duration": 0.10813124999999957,
          "durationTicks": 80,
          "midi": 75,
          "name": "D#5",
          "ticks": 79758,
          "time": 107.80415296875,
          "velocity": 0.984251968503937
        },
        {
          "duration": 0.12164765625000484,
          "durationTicks": 90,
          "midi": 79,
          "name": "G5",
          "ticks": 79854,
          "time": 107.93391046875,
          "velocity": 0.9606299212598425
        },
        {
          "duration": 0.10002140624999356,
          "durationTicks": 74,
          "midi": 72,
          "name": "C5",
          "ticks": 79856,
          "time": 107.93661375,
          "velocity": 0.9921259842519685
        },
        {
          "duration": 0.09191156249998755,
          "durationTicks": 68,
          "midi": 67,
          "name": "G4",
          "ticks": 79952,
          "time": 108.06637125,
          "velocity": 0.9212598425196851
        },
        {
          "duration": 0.10542796875000704,
          "durationTicks": 78,
          "midi": 63,
          "name": "D#4",
          "ticks": 79952,
          "time": 108.06637125,
          "velocity": 0.9212598425196851
        },
        {
          "duration": 0.11353781249999884,
          "durationTicks": 84,
          "midi": 56,
          "name": "G#3",
          "ticks": 79952,
          "time": 108.06637125,
          "velocity": 0.8188976377952756
        },
        {
          "duration": 0.12164765624999063,
          "durationTicks": 90,
          "midi": 60,
          "name": "C4",
          "ticks": 79954,
          "time": 108.06907453125,
          "velocity": 0.8740157480314961
        },
        {
          "duration": 0.0865050000000025,
          "durationTicks": 64,
          "midi": 72,
          "name": "C5",
          "ticks": 80046,
          "time": 108.19342546875,
          "velocity": 0.9291338582677166
        },
        {
          "duration": 0.10002140625000777,
          "durationTicks": 74,
          "midi": 79,
          "name": "G5",
          "ticks": 80046,
          "time": 108.19342546875,
          "velocity": 0.984251968503937
        },
        {
          "duration": 0.13246078125000338,
          "durationTicks": 98,
          "midi": 82,
          "name": "A#5",
          "ticks": 80142,
          "time": 108.32318296875,
          "velocity": 0.9448818897637795
        },
        {
          "duration": 0.10272468749998609,
          "durationTicks": 76,
          "midi": 77,
          "name": "F5",
          "ticks": 80142,
          "time": 108.32318296875,
          "velocity": 0.8740157480314961
        },
        {
          "duration": 0.11353781249999884,
          "durationTicks": 84,
          "midi": 67,
          "name": "G4",
          "ticks": 80236,
          "time": 108.4502371875,
          "velocity": 0.9291338582677166
        },
        {
          "duration": 0.13246078125000338,
          "durationTicks": 98,
          "midi": 56,
          "name": "G#3",
          "ticks": 80238,
          "time": 108.45294046875,
          "velocity": 0.84251968503937
        },
        {
          "duration": 0.1108345312499921,
          "durationTicks": 82,
          "midi": 63,
          "name": "D#4",
          "ticks": 80238,
          "time": 108.45294046875,
          "velocity": 0.905511811023622
        },
        {
          "duration": 0.12435093749998316,
          "durationTicks": 92,
          "midi": 60,
          "name": "C4",
          "ticks": 80240,
          "time": 108.45564375000001,
          "velocity": 0.889763779527559
        },
        {
          "duration": 0.17571328124999752,
          "durationTicks": 130,
          "midi": 82,
          "name": "A#5",
          "ticks": 80334,
          "time": 108.58269796875,
          "velocity": 0.9291338582677166
        },
        {
          "duration": 0.15679031249999298,
          "durationTicks": 116,
          "midi": 77,
          "name": "F5",
          "ticks": 80336,
          "time": 108.58540125,
          "velocity": 0.9212598425196851
        },
        {
          "duration": 0.1189443749999981,
          "durationTicks": 88,
          "midi": 79,
          "name": "G5",
          "ticks": 80432,
          "time": 108.71515875,
          "velocity": 0.968503937007874
        },
        {
          "duration": 0.10002140624999356,
          "durationTicks": 74,
          "midi": 72,
          "name": "C5",
          "ticks": 80432,
          "time": 108.71515875,
          "velocity": 0.984251968503937
        },
        {
          "duration": 0.09191156250000176,
          "durationTicks": 68,
          "midi": 67,
          "name": "G4",
          "ticks": 80528,
          "time": 108.84491625,
          "velocity": 0.9291338582677166
        },
        {
          "duration": 0.09191156250000176,
          "durationTicks": 68,
          "midi": 63,
          "name": "D#4",
          "ticks": 80528,
          "time": 108.84491625,
          "velocity": 0.8976377952755905
        },
        {
          "duration": 0.10002140624999356,
          "durationTicks": 74,
          "midi": 56,
          "name": "G#3",
          "ticks": 80528,
          "time": 108.84491625,
          "velocity": 0.8110236220472441
        },
        {
          "duration": 0.12164765625000484,
          "durationTicks": 90,
          "midi": 60,
          "name": "C4",
          "ticks": 80528,
          "time": 108.84491625,
          "velocity": 0.8503937007874016
        },
        {
          "duration": 0.08380171874999576,
          "durationTicks": 62,
          "midi": 72,
          "name": "C5",
          "ticks": 80622,
          "time": 108.97197046875,
          "velocity": 0.9212598425196851
        },
        {
          "duration": 0.07298859374999722,
          "durationTicks": 54,
          "midi": 79,
          "name": "G5",
          "ticks": 80624,
          "time": 108.97467375000001,
          "velocity": 0.968503937007874
        },
        {
          "duration": 0.08109843750000323,
          "durationTicks": 60,
          "midi": 75,
          "name": "D#5",
          "ticks": 80718,
          "time": 109.10172796875,
          "velocity": 0.968503937007874
        },
        {
          "duration": 0.12975749999999664,
          "durationTicks": 96,
          "midi": 82,
          "name": "A#5",
          "ticks": 80720,
          "time": 109.10443125,
          "velocity": 0.9606299212598425
        },
        {
          "duration": 0.0865050000000025,
          "durationTicks": 64,
          "midi": 67,
          "name": "G4",
          "ticks": 80814,
          "time": 109.23148546875,
          "velocity": 0.9291338582677166
        },
        {
          "duration": 0.09731812500000103,
          "durationTicks": 72,
          "midi": 63,
          "name": "D#4",
          "ticks": 80814,
          "time": 109.23148546875,
          "velocity": 0.905511811023622
        },
        {
          "duration": 0.1108345312499921,
          "durationTicks": 82,
          "midi": 56,
          "name": "G#3",
          "ticks": 80814,
          "time": 109.23148546875,
          "velocity": 0.8188976377952756
        },
        {
          "duration": 0.1108345312499921,
          "durationTicks": 82,
          "midi": 60,
          "name": "C4",
          "ticks": 80816,
          "time": 109.23418875,
          "velocity": 0.8818897637795275
        },
        {
          "duration": 0.18382312500000353,
          "durationTicks": 136,
          "midi": 82,
          "name": "A#5",
          "ticks": 80910,
          "time": 109.36124296874999,
          "velocity": 0.984251968503937
        },
        {
          "duration": 0.0865050000000025,
          "durationTicks": 64,
          "midi": 75,
          "name": "D#5",
          "ticks": 80910,
          "time": 109.36124296874999,
          "velocity": 0.984251968503937
        },
        {
          "duration": 0.11353781249999884,
          "durationTicks": 84,
          "midi": 79,
          "name": "G5",
          "ticks": 81006,
          "time": 109.49100046875,
          "velocity": 0.968503937007874
        },
        {
          "duration": 0.10002140625000777,
          "durationTicks": 74,
          "midi": 72,
          "name": "C5",
          "ticks": 81006,
          "time": 109.49100046875,
          "velocity": 0.984251968503937
        },
        {
          "duration": 0.0013516406250175805,
          "durationTicks": 1,
          "midi": 75,
          "name": "D#5",
          "ticks": 81010,
          "time": 109.49640703124999,
          "velocity": 0.4094488188976378
        },
        {
          "duration": 0.09731812500000103,
          "durationTicks": 72,
          "midi": 67,
          "name": "G4",
          "ticks": 81102,
          "time": 109.62075796875,
          "velocity": 0.9212598425196851
        },
        {
          "duration": 0.10002140625000777,
          "durationTicks": 74,
          "midi": 63,
          "name": "D#4",
          "ticks": 81102,
          "time": 109.62075796875,
          "velocity": 0.9133858267716536
        },
        {
          "duration": 0.12435093749998316,
          "durationTicks": 92,
          "midi": 60,
          "name": "C4",
          "ticks": 81104,
          "time": 109.62346125,
          "velocity": 0.8740157480314961
        },
        {
          "duration": 0.09731812500000103,
          "durationTicks": 72,
          "midi": 56,
          "name": "G#3",
          "ticks": 81104,
          "time": 109.62346125,
          "velocity": 0.8188976377952756
        },
        {
          "duration": 0.09191156250001598,
          "durationTicks": 68,
          "midi": 79,
          "name": "G5",
          "ticks": 81196,
          "time": 109.74781218749999,
          "velocity": 0.9606299212598425
        },
        {
          "duration": 0.08109843750000323,
          "durationTicks": 60,
          "midi": 72,
          "name": "C5",
          "ticks": 81196,
          "time": 109.74781218749999,
          "velocity": 0.9212598425196851
        },
        {
          "duration": 0.13246078125000338,
          "durationTicks": 98,
          "midi": 82,
          "name": "A#5",
          "ticks": 81292,
          "time": 109.8775696875,
          "velocity": 0.9606299212598425
        },
        {
          "duration": 0.1027246875000003,
          "durationTicks": 76,
          "midi": 77,
          "name": "F5",
          "ticks": 81292,
          "time": 109.8775696875,
          "velocity": 0.984251968503937
        },
        {
          "duration": 0.14057062499999518,
          "durationTicks": 104,
          "midi": 67,
          "name": "G4",
          "ticks": 81386,
          "time": 110.00462390625,
          "velocity": 0.9291338582677166
        },
        {
          "duration": 0.1270542187500041,
          "durationTicks": 94,
          "midi": 63,
          "name": "D#4",
          "ticks": 81388,
          "time": 110.0073271875,
          "velocity": 0.889763779527559
        },
        {
          "duration": 0.14597718749999444,
          "durationTicks": 108,
          "midi": 56,
          "name": "G#3",
          "ticks": 81388,
          "time": 110.0073271875,
          "velocity": 0.7874015748031497
        },
        {
          "duration": 0.14057062499999518,
          "durationTicks": 104,
          "midi": 60,
          "name": "C4",
          "ticks": 81388,
          "time": 110.0073271875,
          "velocity": 0.8740157480314961
        },
        {
          "duration": 0.181119843750011,
          "durationTicks": 134,
          "midi": 82,
          "name": "A#5",
          "ticks": 81484,
          "time": 110.13708468749999,
          "velocity": 0.9212598425196851
        },
        {
          "duration": 0.13786734375000265,
          "durationTicks": 102,
          "midi": 77,
          "name": "F5",
          "ticks": 81484,
          "time": 110.13708468749999,
          "velocity": 0.9921259842519685
        },
        {
          "duration": 0.12435093750001158,
          "durationTicks": 92,
          "midi": 79,
          "name": "G5",
          "ticks": 81580,
          "time": 110.26684218749999,
          "velocity": 0.9448818897637795
        },
        {
          "duration": 0.10542796875000704,
          "durationTicks": 78,
          "midi": 72,
          "name": "C5",
          "ticks": 81580,
          "time": 110.26684218749999,
          "velocity": 0.968503937007874
        },
        {
          "duration": 0.12435093749999737,
          "durationTicks": 92,
          "midi": 67,
          "name": "G4",
          "ticks": 81676,
          "time": 110.3965996875,
          "velocity": 0.9448818897637795
        },
        {
          "duration": 0.12435093750001158,
          "durationTicks": 92,
          "midi": 63,
          "name": "D#4",
          "ticks": 81678,
          "time": 110.39930296874999,
          "velocity": 0.9133858267716536
        },
        {
          "duration": 0.14327390625000191,
          "durationTicks": 106,
          "midi": 56,
          "name": "G#3",
          "ticks": 81678,
          "time": 110.39930296874999,
          "velocity": 0.8110236220472441
        },
        {
          "duration": 0.14057062500000939,
          "durationTicks": 104,
          "midi": 60,
          "name": "C4",
          "ticks": 81678,
          "time": 110.39930296874999,
          "velocity": 0.8267716535433071
        },
        {
          "duration": 0.10813124999999957,
          "durationTicks": 80,
          "midi": 72,
          "name": "C5",
          "ticks": 81774,
          "time": 110.52906046875,
          "velocity": 1
        },
        {
          "duration": 0.07298859374999722,
          "durationTicks": 54,
          "midi": 67,
          "name": "G4",
          "ticks": 81870,
          "time": 110.65881796875,
          "velocity": 0.9212598425196851
        },
        {
          "duration": 0.10272468749998609,
          "durationTicks": 76,
          "midi": 63,
          "name": "D#4",
          "ticks": 81870,
          "time": 110.65881796875,
          "velocity": 0.905511811023622
        },
        {
          "duration": 0.10813124999998536,
          "durationTicks": 80,
          "midi": 56,
          "name": "G#3",
          "ticks": 81872,
          "time": 110.66152125,
          "velocity": 0.8267716535433071
        },
        {
          "duration": 0.12435093749998316,
          "durationTicks": 92,
          "midi": 60,
          "name": "C4",
          "ticks": 81872,
          "time": 110.66152125,
          "velocity": 0.8267716535433071
        },
        {
          "duration": 0.09731812500000103,
          "durationTicks": 72,
          "midi": 75,
          "name": "D#5",
          "ticks": 81968,
          "time": 110.79127875,
          "velocity": 1
        },
        {
          "duration": 0.09191156249998755,
          "durationTicks": 68,
          "midi": 67,
          "name": "G4",
          "ticks": 82064,
          "time": 110.92103625,
          "velocity": 0.905511811023622
        },
        {
          "duration": 0.1108345312499921,
          "durationTicks": 82,
          "midi": 63,
          "name": "D#4",
          "ticks": 82064,
          "time": 110.92103625,
          "velocity": 0.9212598425196851
        },
        {
          "duration": 0.10813124999999957,
          "durationTicks": 80,
          "midi": 56,
          "name": "G#3",
          "ticks": 82064,
          "time": 110.92103625,
          "velocity": 0.84251968503937
        },
        {
          "duration": 0.11894437500001231,
          "durationTicks": 88,
          "midi": 60,
          "name": "C4",
          "ticks": 82066,
          "time": 110.92373953124999,
          "velocity": 0.8818897637795275
        },
        {
          "duration": 0.09461484374999429,
          "durationTicks": 70,
          "midi": 77,
          "name": "F5",
          "ticks": 82160,
          "time": 111.05079375,
          "velocity": 0.9448818897637795
        },
        {
          "duration": 0.09731812500000103,
          "durationTicks": 72,
          "midi": 63,
          "name": "D#4",
          "ticks": 82256,
          "time": 111.18055125000001,
          "velocity": 0.8976377952755905
        },
        {
          "duration": 0.07839515624999649,
          "durationTicks": 58,
          "midi": 67,
          "name": "G4",
          "ticks": 82256,
          "time": 111.18055125000001,
          "velocity": 0.889763779527559
        },
        {
          "duration": 0.10272468749998609,
          "durationTicks": 76,
          "midi": 60,
          "name": "C4",
          "ticks": 82256,
          "time": 111.18055125000001,
          "velocity": 0.8503937007874016
        },
        {
          "duration": 0.08109843749998902,
          "durationTicks": 60,
          "midi": 56,
          "name": "G#3",
          "ticks": 82256,
          "time": 111.18055125000001,
          "velocity": 0.7559055118110236
        },
        {
          "duration": 0.10002140625000777,
          "durationTicks": 74,
          "midi": 79,
          "name": "G5",
          "ticks": 82350,
          "time": 111.30760546875,
          "velocity": 1
        },
        {
          "duration": 0.09731812500000103,
          "durationTicks": 72,
          "midi": 67,
          "name": "G4",
          "ticks": 82444,
          "time": 111.43465968749999,
          "velocity": 0.9133858267716536
        },
        {
          "duration": 0.10002140625000777,
          "durationTicks": 74,
          "midi": 63,
          "name": "D#4",
          "ticks": 82444,
          "time": 111.43465968749999,
          "velocity": 0.905511811023622
        },
        {
          "duration": 0.10542796875000704,
          "durationTicks": 78,
          "midi": 60,
          "name": "C4",
          "ticks": 82446,
          "time": 111.43736296875,
          "velocity": 0.84251968503937
        },
        {
          "duration": 0.0865050000000025,
          "durationTicks": 64,
          "midi": 56,
          "name": "G#3",
          "ticks": 82446,
          "time": 111.43736296875,
          "velocity": 0.7952755905511811
        },
        {
          "duration": 0.09191156250000176,
          "durationTicks": 68,
          "midi": 80,
          "name": "G#5",
          "ticks": 82542,
          "time": 111.56712046875,
          "velocity": 0.9448818897637795
        },
        {
          "duration": 0.08380171874999576,
          "durationTicks": 62,
          "midi": 63,
          "name": "D#4",
          "ticks": 82638,
          "time": 111.69687796875,
          "velocity": 0.889763779527559
        },
        {
          "duration": 0.07839515624999649,
          "durationTicks": 58,
          "midi": 67,
          "name": "G4",
          "ticks": 82638,
          "time": 111.69687796875,
          "velocity": 0.889763779527559
        },
        {
          "duration": 0.10272468749998609,
          "durationTicks": 76,
          "midi": 60,
          "name": "C4",
          "ticks": 82638,
          "time": 111.69687796875,
          "velocity": 0.8267716535433071
        },
        {
          "duration": 0.05676890624999942,
          "durationTicks": 42,
          "midi": 56,
          "name": "G#3",
          "ticks": 82638,
          "time": 111.69687796875,
          "velocity": 0.7795275590551181
        },
        {
          "duration": 0.1027246875000003,
          "durationTicks": 76,
          "midi": 84,
          "name": "C6",
          "ticks": 82738,
          "time": 111.83204203125,
          "velocity": 0.984251968503937
        },
        {
          "duration": 0.07298859374999722,
          "durationTicks": 54,
          "midi": 70,
          "name": "A#4",
          "ticks": 82744,
          "time": 111.84015187499999,
          "velocity": 0.9448818897637795
        },
        {
          "duration": 0.07298859374999722,
          "durationTicks": 54,
          "midi": 72,
          "name": "C5",
          "ticks": 82744,
          "time": 111.84015187499999,
          "velocity": 0.8818897637795275
        },
        {
          "duration": 0.02703281250001055,
          "durationTicks": 20,
          "midi": 82,
          "name": "A#5",
          "ticks": 82746,
          "time": 111.84285515625,
          "velocity": 0.8818897637795275
        },
        {
          "duration": 0.08380171874999576,
          "durationTicks": 62,
          "midi": 67,
          "name": "G4",
          "ticks": 82844,
          "time": 111.9753159375,
          "velocity": 0.9212598425196851
        },
        {
          "duration": 0.08109843750000323,
          "durationTicks": 60,
          "midi": 63,
          "name": "D#4",
          "ticks": 82846,
          "time": 111.97801921874999,
          "velocity": 0.9133858267716536
        },
        {
          "duration": 0.07298859374999722,
          "durationTicks": 54,
          "midi": 56,
          "name": "G#3",
          "ticks": 82848,
          "time": 111.9807225,
          "velocity": 0.8267716535433071
        },
        {
          "duration": 0.09731812500000103,
          "durationTicks": 72,
          "midi": 60,
          "name": "C4",
          "ticks": 82850,
          "time": 111.98342578125,
          "velocity": 0.7716535433070866
        },
        {
          "duration": 0.11353781249999884,
          "durationTicks": 84,
          "midi": 84,
          "name": "C6",
          "ticks": 82928,
          "time": 112.08885375,
          "velocity": 1
        },
        {
          "duration": 0.08920828125000924,
          "durationTicks": 66,
          "midi": 72,
          "name": "C5",
          "ticks": 82930,
          "time": 112.09155703124999,
          "velocity": 0.984251968503937
        },
        {
          "duration": 0.08920828124999503,
          "durationTicks": 66,
          "midi": 67,
          "name": "G4",
          "ticks": 83030,
          "time": 112.22672109375,
          "velocity": 0.9212598425196851
        },
        {
          "duration": 0.09191156249998755,
          "durationTicks": 68,
          "midi": 63,
          "name": "D#4",
          "ticks": 83030,
          "time": 112.22672109375,
          "velocity": 0.9212598425196851
        },
        {
          "duration": 0.10272468749998609,
          "durationTicks": 76,
          "midi": 60,
          "name": "C4",
          "ticks": 83034,
          "time": 112.23212765625,
          "velocity": 0.8031496062992126
        },
        {
          "duration": 0.07569187500000396,
          "durationTicks": 56,
          "midi": 56,
          "name": "G#3",
          "ticks": 83034,
          "time": 112.23212765625,
          "velocity": 0.7952755905511811
        },
        {
          "duration": 0.0946148437500085,
          "durationTicks": 70,
          "midi": 75,
          "name": "D#5",
          "ticks": 83128,
          "time": 112.35918187499999,
          "velocity": 0.968503937007874
        },
        {
          "duration": 0.10272468750001451,
          "durationTicks": 76,
          "midi": 87,
          "name": "D#6",
          "ticks": 83128,
          "time": 112.35918187499999,
          "velocity": 1
        },
        {
          "duration": 0.08109843749998902,
          "durationTicks": 60,
          "midi": 67,
          "name": "G4",
          "ticks": 83222,
          "time": 112.48623609375001,
          "velocity": 0.9291338582677166
        },
        {
          "duration": 0.08650500000001671,
          "durationTicks": 64,
          "midi": 63,
          "name": "D#4",
          "ticks": 83224,
          "time": 112.48893937499999,
          "velocity": 0.9291338582677166
        },
        {
          "duration": 0.10002140625000777,
          "durationTicks": 74,
          "midi": 60,
          "name": "C4",
          "ticks": 83224,
          "time": 112.48893937499999,
          "velocity": 0.8582677165354331
        },
        {
          "duration": 0.062175468749998686,
          "durationTicks": 46,
          "midi": 56,
          "name": "G#3",
          "ticks": 83226,
          "time": 112.49164265625,
          "velocity": 0.84251968503937
        },
        {
          "duration": 0.1270542187500041,
          "durationTicks": 94,
          "midi": 89,
          "name": "F6",
          "ticks": 83324,
          "time": 112.6241034375,
          "velocity": 1
        },
        {
          "duration": 0.10813124999999957,
          "durationTicks": 80,
          "midi": 77,
          "name": "F5",
          "ticks": 83324,
          "time": 112.6241034375,
          "velocity": 0.984251968503937
        },
        {
          "duration": 0.07298859374999722,
          "durationTicks": 54,
          "midi": 67,
          "name": "G4",
          "ticks": 83416,
          "time": 112.748454375,
          "velocity": 0.9291338582677166
        },
        {
          "duration": 0.08109843750000323,
          "durationTicks": 60,
          "midi": 63,
          "name": "D#4",
          "ticks": 83416,
          "time": 112.748454375,
          "velocity": 0.9448818897637795
        },
        {
          "duration": 0.08920828124999503,
          "durationTicks": 66,
          "midi": 60,
          "name": "C4",
          "ticks": 83418,
          "time": 112.75115765625,
          "velocity": 0.8267716535433071
        },
        {
          "duration": 0.04865906249999341,
          "durationTicks": 36,
          "midi": 56,
          "name": "G#3",
          "ticks": 83420,
          "time": 112.75386093750001,
          "velocity": 0.8110236220472441
        },
        {
          "duration": 0.10272468749998609,
          "durationTicks": 76,
          "midi": 91,
          "name": "G6",
          "ticks": 83504,
          "time": 112.86739875,
          "velocity": 1
        },
        {
          "duration": 0.08380171875000997,
          "durationTicks": 62,
          "midi": 79,
          "name": "G5",
          "ticks": 83508,
          "time": 112.87280531249999,
          "velocity": 0.984251968503937
        },
        {
          "duration": 0.08920828124999503,
          "durationTicks": 66,
          "midi": 67,
          "name": "G4",
          "ticks": 83590,
          "time": 112.98363984375,
          "velocity": 0.9606299212598425
        },
        {
          "duration": 0.0865050000000025,
          "durationTicks": 64,
          "midi": 63,
          "name": "D#4",
          "ticks": 83594,
          "time": 112.98904640625,
          "velocity": 0.9606299212598425
        },
        {
          "duration": 0.1027246875000003,
          "durationTicks": 76,
          "midi": 60,
          "name": "C4",
          "ticks": 83594,
          "time": 112.98904640625,
          "velocity": 0.84251968503937
        },
        {
          "duration": 0.05676890624999942,
          "durationTicks": 42,
          "midi": 56,
          "name": "G#3",
          "ticks": 83598,
          "time": 112.99445296875,
          "velocity": 0.8188976377952756
        },
        {
          "duration": 0.08650499999998829,
          "durationTicks": 64,
          "midi": 80,
          "name": "G#5",
          "ticks": 83700,
          "time": 113.1323203125,
          "velocity": 1
        },
        {
          "duration": 0.10813124999999957,
          "durationTicks": 80,
          "midi": 92,
          "name": "G#6",
          "ticks": 83700,
          "time": 113.1323203125,
          "velocity": 1
        },
        {
          "duration": 0.07298859374999722,
          "durationTicks": 54,
          "midi": 67,
          "name": "G4",
          "ticks": 83780,
          "time": 113.2404515625,
          "velocity": 0.984251968503937
        },
        {
          "duration": 0.1027246875000003,
          "durationTicks": 76,
          "midi": 60,
          "name": "C4",
          "ticks": 83780,
          "time": 113.2404515625,
          "velocity": 0.8582677165354331
        },
        {
          "duration": 0.09191156249998755,
          "durationTicks": 68,
          "midi": 63,
          "name": "D#4",
          "ticks": 83780,
          "time": 113.2404515625,
          "velocity": 0.9448818897637795
        },
        {
          "duration": 0.08920828124999503,
          "durationTicks": 66,
          "midi": 56,
          "name": "G#3",
          "ticks": 83782,
          "time": 113.24315484374999,
          "velocity": 0.905511811023622
        },
        {
          "duration": 0.10002140624999356,
          "durationTicks": 74,
          "midi": 94,
          "name": "A#6",
          "ticks": 83890,
          "time": 113.38913203125,
          "velocity": 0.9921259842519685
        },
        {
          "duration": 0.08380171874999576,
          "durationTicks": 62,
          "midi": 82,
          "name": "A#5",
          "ticks": 83890,
          "time": 113.38913203125,
          "velocity": 1
        },
        {
          "duration": 0.02703281250001055,
          "durationTicks": 20,
          "midi": 92,
          "name": "G#6",
          "ticks": 83896,
          "time": 113.39724187499999,
          "velocity": 0.8976377952755905
        },
        {
          "duration": 0.07298859374999722,
          "durationTicks": 54,
          "midi": 67,
          "name": "G4",
          "ticks": 83970,
          "time": 113.49726328125,
          "velocity": 0.9606299212598425
        },
        {
          "duration": 0.08920828124999503,
          "durationTicks": 66,
          "midi": 63,
          "name": "D#4",
          "ticks": 83972,
          "time": 113.4999665625,
          "velocity": 0.9606299212598425
        },
        {
          "duration": 0.09731812500000103,
          "durationTicks": 72,
          "midi": 60,
          "name": "C4",
          "ticks": 83972,
          "time": 113.4999665625,
          "velocity": 0.8976377952755905
        },
        {
          "duration": 0.05947218750000616,
          "durationTicks": 44,
          "midi": 56,
          "name": "G#3",
          "ticks": 83976,
          "time": 113.50537312499999,
          "velocity": 0.8582677165354331
        },
        {
          "duration": 0.26492156249999255,
          "durationTicks": 196,
          "midi": 96,
          "name": "C7",
          "ticks": 84072,
          "time": 113.635130625,
          "velocity": 1
        },
        {
          "duration": 0.23248218749999694,
          "durationTicks": 172,
          "midi": 84,
          "name": "C6",
          "ticks": 84072,
          "time": 113.635130625,
          "velocity": 0.984251968503937
        },
        {
          "duration": 0.25681171874998654,
          "durationTicks": 190,
          "midi": 67,
          "name": "G4",
          "ticks": 84156,
          "time": 113.7486684375,
          "velocity": 1
        },
        {
          "duration": 0.27303140624999855,
          "durationTicks": 202,
          "midi": 60,
          "name": "C4",
          "ticks": 84156,
          "time": 113.7486684375,
          "velocity": 0.9212598425196851
        },
        {
          "duration": 0.2595149999999933,
          "durationTicks": 192,
          "midi": 63,
          "name": "D#4",
          "ticks": 84156,
          "time": 113.7486684375,
          "velocity": 0.984251968503937
        },
        {
          "duration": 0.2838445312499971,
          "durationTicks": 210,
          "midi": 56,
          "name": "G#3",
          "ticks": 84158,
          "time": 113.75137171875001,
          "velocity": 0.9133858267716536
        },
        {
          "duration": 0.10002140624997935,
          "durationTicks": 74,
          "midi": 85,
          "name": "C#6",
          "ticks": 84344,
          "time": 114.00277687500001,
          "velocity": 0.9448818897637795
        },
        {
          "duration": 0.10542796875000704,
          "durationTicks": 78,
          "midi": 97,
          "name": "C#7",
          "ticks": 84346,
          "time": 114.00548015624999,
          "velocity": 0.968503937007874
        },
        {
          "duration": 0.8677532812500033,
          "durationTicks": 642,
          "midi": 58,
          "name": "A#3",
          "ticks": 84558,
          "time": 114.29202796874999,
          "velocity": 0.8818897637795275
        },
        {
          "duration": 0.12975750000001085,
          "durationTicks": 96,
          "midi": 84,
          "name": "C6",
          "ticks": 84558,
          "time": 114.29202796874999,
          "velocity": 0.9921259842519685
        },
        {
          "duration": 0.8515335937500055,
          "durationTicks": 630,
          "midi": 65,
          "name": "F4",
          "ticks": 84560,
          "time": 114.29473125,
          "velocity": 0.9606299212598425
        },
        {
          "duration": 0.8596434375000115,
          "durationTicks": 636,
          "midi": 56,
          "name": "G#3",
          "ticks": 84560,
          "time": 114.29473125,
          "velocity": 0.905511811023622
        },
        {
          "duration": 0.8650499999999965,
          "durationTicks": 640,
          "midi": 61,
          "name": "C#4",
          "ticks": 84560,
          "time": 114.29473125,
          "velocity": 0.9448818897637795
        },
        {
          "duration": 0.20004281250000133,
          "durationTicks": 148,
          "midi": 96,
          "name": "C7",
          "ticks": 84560,
          "time": 114.29473125,
          "velocity": 1
        },
        {
          "duration": 0.1027246875000003,
          "durationTicks": 76,
          "midi": 84,
          "name": "C6",
          "ticks": 84716,
          "time": 114.5055871875,
          "velocity": 0.8110236220472441
        },
        {
          "duration": 0.09191156249998755,
          "durationTicks": 68,
          "midi": 96,
          "name": "C7",
          "ticks": 84770,
          "time": 114.57857578125001,
          "velocity": 0.8582677165354331
        },
        {
          "duration": 0.09191156249998755,
          "durationTicks": 68,
          "midi": 84,
          "name": "C6",
          "ticks": 84848,
          "time": 114.68400375,
          "velocity": 0.8976377952755905
        },
        {
          "duration": 0.08920828124999503,
          "durationTicks": 66,
          "midi": 96,
          "name": "C7",
          "ticks": 84910,
          "time": 114.76780546875,
          "velocity": 0.8818897637795275
        },
        {
          "duration": 0.08920828124999503,
          "durationTicks": 66,
          "midi": 84,
          "name": "C6",
          "ticks": 84980,
          "time": 114.8624203125,
          "velocity": 0.8582677165354331
        },
        {
          "duration": 0.09461484374999429,
          "durationTicks": 70,
          "midi": 96,
          "name": "C7",
          "ticks": 85034,
          "time": 114.93540890625,
          "velocity": 0.8582677165354331
        },
        {
          "duration": 0.13246078125000338,
          "durationTicks": 98,
          "midi": 84,
          "name": "C6",
          "ticks": 85102,
          "time": 115.02732046874999,
          "velocity": 0.8582677165354331
        },
        {
          "duration": 0.1567903125000072,
          "durationTicks": 116,
          "midi": 96,
          "name": "C7",
          "ticks": 85164,
          "time": 115.1111221875,
          "velocity": 0.8976377952755905
        },
        {
          "duration": 0.09731812500000103,
          "durationTicks": 72,
          "midi": 84,
          "name": "C6",
          "ticks": 85234,
          "time": 115.20573703125,
          "velocity": 0.8818897637795275
        },
        {
          "duration": 2.743830468750005,
          "durationTicks": 2030,
          "midi": 61,
          "name": "C#4",
          "ticks": 85272,
          "time": 115.257099375,
          "velocity": 0.8503937007874016
        },
        {
          "duration": 2.7411271874999983,
          "durationTicks": 2028,
          "midi": 65,
          "name": "F4",
          "ticks": 85272,
          "time": 115.257099375,
          "velocity": 0.8818897637795275
        },
        {
          "duration": 2.743830468749991,
          "durationTicks": 2030,
          "midi": 56,
          "name": "G#3",
          "ticks": 85274,
          "time": 115.25980265625,
          "velocity": 0.8503937007874016
        },
        {
          "duration": 2.7411271874999983,
          "durationTicks": 2028,
          "midi": 58,
          "name": "A#3",
          "ticks": 85276,
          "time": 115.2625059375,
          "velocity": 0.8740157480314961
        },
        {
          "duration": 0.10002140625000777,
          "durationTicks": 74,
          "midi": 94,
          "name": "A#6",
          "ticks": 85392,
          "time": 115.41929625,
          "velocity": 1
        },
        {
          "duration": 0.17030671874999825,
          "durationTicks": 126,
          "midi": 97,
          "name": "C#7",
          "ticks": 85596,
          "time": 115.6950309375,
          "velocity": 1
        },
        {
          "duration": 0.16219687500000646,
          "durationTicks": 120,
          "midi": 96,
          "name": "C7",
          "ticks": 85696,
          "time": 115.83019499999999,
          "velocity": 0.9133858267716536
        },
        {
          "duration": 0.1973395312500088,
          "durationTicks": 146,
          "midi": 94,
          "name": "A#6",
          "ticks": 85788,
          "time": 115.9545459375,
          "velocity": 0.9133858267716536
        },
        {
          "duration": 0.12164765625000484,
          "durationTicks": 90,
          "midi": 92,
          "name": "G#6",
          "ticks": 85896,
          "time": 116.100523125,
          "velocity": 0.9448818897637795
        },
        {
          "duration": 0.09461484374999429,
          "durationTicks": 70,
          "midi": 89,
          "name": "F6",
          "ticks": 85988,
          "time": 116.2248740625,
          "velocity": 0.9212598425196851
        },
        {
          "duration": 0.10813124999998536,
          "durationTicks": 80,
          "midi": 87,
          "name": "D#6",
          "ticks": 86096,
          "time": 116.37085125,
          "velocity": 0.9212598425196851
        },
        {
          "duration": 0.06758203124999795,
          "durationTicks": 50,
          "midi": 85,
          "name": "C#6",
          "ticks": 86188,
          "time": 116.4952021875,
          "velocity": 0.8267716535433071
        },
        {
          "duration": 0.16219687500000646,
          "durationTicks": 120,
          "midi": 92,
          "name": "G#6",
          "ticks": 86280,
          "time": 116.619553125,
          "velocity": 0.9448818897637795
        },
        {
          "duration": 0.18922968749998859,
          "durationTicks": 140,
          "midi": 91,
          "name": "G6",
          "ticks": 86372,
          "time": 116.74390406250001,
          "velocity": 0.9212598425196851
        },
        {
          "duration": 0.09731812500000103,
          "durationTicks": 72,
          "midi": 87,
          "name": "D#6",
          "ticks": 86484,
          "time": 116.8952878125,
          "velocity": 0.9606299212598425
        },
        {
          "duration": 0.07298859374999722,
          "durationTicks": 54,
          "midi": 84,
          "name": "C6",
          "ticks": 86578,
          "time": 117.02234203124999,
          "velocity": 0.9133858267716536
        },
        {
          "duration": 0.10002140624999356,
          "durationTicks": 74,
          "midi": 82,
          "name": "A#5",
          "ticks": 86666,
          "time": 117.14128640625,
          "velocity": 0.8976377952755905
        },
        {
          "duration": 0.07569187500000396,
          "durationTicks": 56,
          "midi": 80,
          "name": "G#5",
          "ticks": 86760,
          "time": 117.268340625,
          "velocity": 0.8976377952755905
        },
        {
          "duration": 0.1649001562500132,
          "durationTicks": 122,
          "midi": 89,
          "name": "F6",
          "ticks": 86860,
          "time": 117.40350468749999,
          "velocity": 0.984251968503937
        },
        {
          "duration": 0.18652640624999606,
          "durationTicks": 138,
          "midi": 84,
          "name": "C6",
          "ticks": 86952,
          "time": 117.527855625,
          "velocity": 0.9606299212598425
        },
        {
          "duration": 0.09731812500000103,
          "durationTicks": 72,
          "midi": 82,
          "name": "A#5",
          "ticks": 87054,
          "time": 117.66572296875,
          "velocity": 0.9448818897637795
        },
        {
          "duration": 0.10272468750001451,
          "durationTicks": 76,
          "midi": 77,
          "name": "F5",
          "ticks": 87148,
          "time": 117.7927771875,
          "velocity": 0.8267716535433071
        },
        {
          "duration": 0.12435093749999737,
          "durationTicks": 92,
          "midi": 80,
          "name": "G#5",
          "ticks": 87252,
          "time": 117.9333478125,
          "velocity": 0.9606299212598425
        },
        {
          "duration": 0.10002140624999356,
          "durationTicks": 74,
          "midi": 77,
          "name": "F5",
          "ticks": 87356,
          "time": 118.0739184375,
          "velocity": 0.9133858267716536
        },
        {
          "duration": 0.25681171874998654,
          "durationTicks": 190,
          "midi": 61,
          "name": "C#4",
          "ticks": 87438,
          "time": 118.18475296875,
          "velocity": 0.9133858267716536
        },
        {
          "duration": 0.24870187499999474,
          "durationTicks": 184,
          "midi": 65,
          "name": "F4",
          "ticks": 87440,
          "time": 118.18745625,
          "velocity": 0.905511811023622
        },
        {
          "duration": 0.26492156250000676,
          "durationTicks": 196,
          "midi": 56,
          "name": "G#3",
          "ticks": 87440,
          "time": 118.18745625,
          "velocity": 0.905511811023622
        },
        {
          "duration": 0.26221828125,
          "durationTicks": 194,
          "midi": 58,
          "name": "A#3",
          "ticks": 87440,
          "time": 118.18745625,
          "velocity": 0.889763779527559
        },
        {
          "duration": 0.12435093750001158,
          "durationTicks": 92,
          "midi": 92,
          "name": "G#6",
          "ticks": 87624,
          "time": 118.43615812499999,
          "velocity": 0.984251968503937
        },
        {
          "duration": 0.08380171874998155,
          "durationTicks": 62,
          "midi": 89,
          "name": "F6",
          "ticks": 87680,
          "time": 118.51185000000001,
          "velocity": 0.8976377952755905
        },
        {
          "duration": 0.0783951562500107,
          "durationTicks": 58,
          "midi": 85,
          "name": "C#6",
          "ticks": 87730,
          "time": 118.57943203125,
          "velocity": 0.8818897637795275
        },
        {
          "duration": 0.08920828124999503,
          "durationTicks": 66,
          "midi": 82,
          "name": "A#5",
          "ticks": 87774,
          "time": 118.63890421875,
          "velocity": 0.8503937007874016
        },
        {
          "duration": 0.08380171875000997,
          "durationTicks": 62,
          "midi": 91,
          "name": "G6",
          "ticks": 87840,
          "time": 118.7281125,
          "velocity": 0.905511811023622
        },
        {
          "duration": 0.07028531249999048,
          "durationTicks": 52,
          "midi": 87,
          "name": "D#6",
          "ticks": 87912,
          "time": 118.825430625,
          "velocity": 0.5590551181102362
        },
        {
          "duration": 0.05947218750000616,
          "durationTicks": 44,
          "midi": 84,
          "name": "C6",
          "ticks": 87942,
          "time": 118.86597984375,
          "velocity": 0.8582677165354331
        },
        {
          "duration": 0.10542796874999283,
          "durationTicks": 78,
          "midi": 80,
          "name": "G#5",
          "ticks": 87978,
          "time": 118.91463890625,
          "velocity": 0.8976377952755905
        },
        {
          "duration": 0.09461484374999429,
          "durationTicks": 70,
          "midi": 89,
          "name": "F6",
          "ticks": 88046,
          "time": 119.00655046875,
          "velocity": 0.8976377952755905
        },
        {
          "duration": 0.09731812500000103,
          "durationTicks": 72,
          "midi": 85,
          "name": "C#6",
          "ticks": 88080,
          "time": 119.05250625,
          "velocity": 0.8976377952755905
        },
        {
          "duration": 0.06487875000000543,
          "durationTicks": 48,
          "midi": 82,
          "name": "A#5",
          "ticks": 88142,
          "time": 119.13630796875,
          "velocity": 0.8503937007874016
        },
        {
          "duration": 0.07028531250000469,
          "durationTicks": 52,
          "midi": 78,
          "name": "F#5",
          "ticks": 88186,
          "time": 119.19578015625,
          "velocity": 0.889763779527559
        },
        {
          "duration": 0.11894437499998389,
          "durationTicks": 88,
          "midi": 87,
          "name": "D#6",
          "ticks": 88232,
          "time": 119.25795562500001,
          "velocity": 0.8818897637795275
        },
        {
          "duration": 0.09191156250000176,
          "durationTicks": 68,
          "midi": 84,
          "name": "C6",
          "ticks": 88276,
          "time": 119.3174278125,
          "velocity": 0.889763779527559
        },
        {
          "duration": 0.05947218750000616,
          "durationTicks": 44,
          "midi": 80,
          "name": "G#5",
          "ticks": 88330,
          "time": 119.39041640625,
          "velocity": 0.8267716535433071
        },
        {
          "duration": 0.07569187500000396,
          "durationTicks": 56,
          "midi": 77,
          "name": "F5",
          "ticks": 88368,
          "time": 119.44177875,
          "velocity": 0.8976377952755905
        },
        {
          "duration": 0.12164765624999063,
          "durationTicks": 90,
          "midi": 85,
          "name": "C#6",
          "ticks": 88414,
          "time": 119.50395421875,
          "velocity": 0.8818897637795275
        },
        {
          "duration": 0.1027246875000003,
          "durationTicks": 76,
          "midi": 82,
          "name": "A#5",
          "ticks": 88452,
          "time": 119.5553165625,
          "velocity": 0.8976377952755905
        },
        {
          "duration": 0.05947218750000616,
          "durationTicks": 44,
          "midi": 79,
          "name": "G5",
          "ticks": 88516,
          "time": 119.6418215625,
          "velocity": 0.8818897637795275
        },
        {
          "duration": 0.07298859374999722,
          "durationTicks": 54,
          "midi": 75,
          "name": "D#5",
          "ticks": 88550,
          "time": 119.68777734375,
          "velocity": 0.8818897637795275
        },
        {
          "duration": 0.12435093749999737,
          "durationTicks": 92,
          "midi": 84,
          "name": "C6",
          "ticks": 88600,
          "time": 119.755359375,
          "velocity": 0.9133858267716536
        },
        {
          "duration": 0.10002140624999356,
          "durationTicks": 74,
          "midi": 80,
          "name": "G#5",
          "ticks": 88630,
          "time": 119.79590859375,
          "velocity": 0.889763779527559
        },
        {
          "duration": 0.06487875000000543,
          "durationTicks": 48,
          "midi": 77,
          "name": "F5",
          "ticks": 88690,
          "time": 119.87700703124999,
          "velocity": 0.8818897637795275
        },
        {
          "duration": 0.06758203124998374,
          "durationTicks": 50,
          "midi": 73,
          "name": "C#5",
          "ticks": 88730,
          "time": 119.93107265625001,
          "velocity": 0.8818897637795275
        },
        {
          "duration": 0.1351640624999959,
          "durationTicks": 100,
          "midi": 82,
          "name": "A#5",
          "ticks": 88778,
          "time": 119.99595140625,
          "velocity": 0.8976377952755905
        },
        {
          "duration": 0.10002140625000777,
          "durationTicks": 74,
          "midi": 79,
          "name": "G5",
          "ticks": 88822,
          "time": 120.05542359374999,
          "velocity": 0.7401574803149606
        },
        {
          "duration": 0.06758203124999795,
          "durationTicks": 50,
          "midi": 75,
          "name": "D#5",
          "ticks": 88870,
          "time": 120.12030234375,
          "velocity": 0.9133858267716536
        },
        {
          "duration": 0.08109843749998902,
          "durationTicks": 60,
          "midi": 72,
          "name": "C5",
          "ticks": 88898,
          "time": 120.15814828125,
          "velocity": 0.889763779527559
        },
        {
          "duration": 0.14057062500000939,
          "durationTicks": 104,
          "midi": 80,
          "name": "G#5",
          "ticks": 88960,
          "time": 120.24194999999999,
          "velocity": 0.8818897637795275
        },
        {
          "duration": 0.11353781249999884,
          "durationTicks": 84,
          "midi": 77,
          "name": "F5",
          "ticks": 89004,
          "time": 120.3014221875,
          "velocity": 0.8818897637795275
        },
        {
          "duration": 0.05676890624999942,
          "durationTicks": 42,
          "midi": 73,
          "name": "C#5",
          "ticks": 89068,
          "time": 120.3879271875,
          "velocity": 0.8818897637795275
        },
        {
          "duration": 0.07839515624999649,
          "durationTicks": 58,
          "midi": 70,
          "name": "A#4",
          "ticks": 89088,
          "time": 120.41496,
          "velocity": 0.9133858267716536
        },
        {
          "duration": 0.1027246875000003,
          "durationTicks": 76,
          "midi": 79,
          "name": "G5",
          "ticks": 89160,
          "time": 120.512278125,
          "velocity": 0.968503937007874
        },
        {
          "duration": 0.1108345312499921,
          "durationTicks": 82,
          "midi": 75,
          "name": "D#5",
          "ticks": 89220,
          "time": 120.5933765625,
          "velocity": 0.8267716535433071
        },
        {
          "duration": 0.04865906249999341,
          "durationTicks": 36,
          "midi": 76,
          "name": "E5",
          "ticks": 89236,
          "time": 120.6150028125,
          "velocity": 0.6535433070866141
        },
        {
          "duration": 0.06758203124999795,
          "durationTicks": 50,
          "midi": 72,
          "name": "C5",
          "ticks": 89268,
          "time": 120.6582553125,
          "velocity": 0.8110236220472441
        },
        {
          "duration": 0.06758203124999795,
          "durationTicks": 50,
          "midi": 68,
          "name": "G#4",
          "ticks": 89308,
          "time": 120.7123209375,
          "velocity": 0.8818897637795275
        },
        {
          "duration": 0.11894437500001231,
          "durationTicks": 88,
          "midi": 77,
          "name": "F5",
          "ticks": 89356,
          "time": 120.77719968749999,
          "velocity": 0.9448818897637795
        },
        {
          "duration": 0.1189443749999981,
          "durationTicks": 88,
          "midi": 61,
          "name": "C#4",
          "ticks": 89456,
          "time": 120.91236375,
          "velocity": 0.9212598425196851
        },
        {
          "duration": 0.10002140624999356,
          "durationTicks": 74,
          "midi": 65,
          "name": "F4",
          "ticks": 89456,
          "time": 120.91236375,
          "velocity": 0.9212598425196851
        },
        {
          "duration": 0.1351640624999959,
          "durationTicks": 100,
          "midi": 58,
          "name": "A#3",
          "ticks": 89456,
          "time": 120.91236375,
          "velocity": 0.8818897637795275
        },
        {
          "duration": 0.12435093750001158,
          "durationTicks": 92,
          "midi": 56,
          "name": "G#3",
          "ticks": 89460,
          "time": 120.9177703125,
          "velocity": 0.889763779527559
        },
        {
          "duration": 0.02432953125000381,
          "durationTicks": 18,
          "midi": 63,
          "name": "D#4",
          "ticks": 89470,
          "time": 120.93128671874999,
          "velocity": 0.7086614173228346
        },
        {
          "duration": 0.17841656250000426,
          "durationTicks": 132,
          "midi": 75,
          "name": "D#5",
          "ticks": 89540,
          "time": 121.0259015625,
          "velocity": 1
        },
        {
          "duration": 0.09731812500000103,
          "durationTicks": 72,
          "midi": 77,
          "name": "F5",
          "ticks": 89644,
          "time": 121.16647218749999,
          "velocity": 0.9448818897637795
        },
        {
          "duration": 0.07569187500000396,
          "durationTicks": 56,
          "midi": 65,
          "name": "F4",
          "ticks": 89740,
          "time": 121.29622968749999,
          "velocity": 0.8976377952755905
        },
        {
          "duration": 0.10002140625000777,
          "durationTicks": 74,
          "midi": 58,
          "name": "A#3",
          "ticks": 89740,
          "time": 121.29622968749999,
          "velocity": 0.8818897637795275
        },
        {
          "duration": 0.07839515624999649,
          "durationTicks": 58,
          "midi": 61,
          "name": "C#4",
          "ticks": 89742,
          "time": 121.29893296875,
          "velocity": 0.905511811023622
        },
        {
          "duration": 0.09191156250000176,
          "durationTicks": 68,
          "midi": 56,
          "name": "G#3",
          "ticks": 89742,
          "time": 121.29893296875,
          "velocity": 0.8818897637795275
        },
        {
          "duration": 0.06487874999999121,
          "durationTicks": 48,
          "midi": 70,
          "name": "A#4",
          "ticks": 89834,
          "time": 121.42328390625,
          "velocity": 1
        },
        {
          "duration": 0.17571328124999752,
          "durationTicks": 130,
          "midi": 77,
          "name": "F5",
          "ticks": 89836,
          "time": 121.4259871875,
          "velocity": 0.984251968503937
        },
        {
          "duration": 0.1351640624999959,
          "durationTicks": 100,
          "midi": 71,
          "name": "B4",
          "ticks": 89900,
          "time": 121.5124921875,
          "velocity": 0.889763779527559
        },
        {
          "duration": 0.02703281249999634,
          "durationTicks": 20,
          "midi": 74,
          "name": "D5",
          "ticks": 89908,
          "time": 121.5233053125,
          "velocity": 0.6377952755905512
        },
        {
          "duration": 0.10002140624999356,
          "durationTicks": 74,
          "midi": 70,
          "name": "A#4",
          "ticks": 89966,
          "time": 121.60170046875,
          "velocity": 0.8188976377952756
        },
        {
          "duration": 0.04865906249999341,
          "durationTicks": 36,
          "midi": 68,
          "name": "G#4",
          "ticks": 90036,
          "time": 121.6963153125,
          "velocity": 0.8031496062992126
        },
        {
          "duration": 0.12975750000001085,
          "durationTicks": 96,
          "midi": 70,
          "name": "A#4",
          "ticks": 90124,
          "time": 121.81525968749999,
          "velocity": 1
        },
        {
          "duration": 0.09191156250000176,
          "durationTicks": 68,
          "midi": 61,
          "name": "C#4",
          "ticks": 90228,
          "time": 121.9558303125,
          "velocity": 0.9291338582677166
        },
        {
          "duration": 0.1108345312499921,
          "durationTicks": 82,
          "midi": 58,
          "name": "A#3",
          "ticks": 90228,
          "time": 121.9558303125,
          "velocity": 0.8818897637795275
        },
        {
          "duration": 0.1108345312499921,
          "durationTicks": 82,
          "midi": 56,
          "name": "G#3",
          "ticks": 90230,
          "time": 121.95853359375,
          "velocity": 0.8503937007874016
        },
        {
          "duration": 0.07839515624999649,
          "durationTicks": 58,
          "midi": 65,
          "name": "F4",
          "ticks": 90230,
          "time": 121.95853359375,
          "velocity": 0.8740157480314961
        },
        {
          "duration": 0.17030671874999825,
          "durationTicks": 126,
          "midi": 68,
          "name": "G#4",
          "ticks": 90320,
          "time": 122.08018125000001,
          "velocity": 1
        },
        {
          "duration": 0.09731812500000103,
          "durationTicks": 72,
          "midi": 65,
          "name": "F4",
          "ticks": 90416,
          "time": 122.20993875,
          "velocity": 1
        },
        {
          "duration": 0.10272468749998609,
          "durationTicks": 76,
          "midi": 63,
          "name": "D#4",
          "ticks": 90516,
          "time": 122.3451028125,
          "velocity": 1
        },
        {
          "duration": 0.037845937500009086,
          "durationTicks": 28,
          "midi": 63,
          "name": "D#4",
          "ticks": 90640,
          "time": 122.51270625,
          "velocity": 0.6377952755905512
        },
        {
          "duration": 1.6246720312500003,
          "durationTicks": 1202,
          "midi": 60,
          "name": "C4",
          "ticks": 90712,
          "time": 122.610024375,
          "velocity": 0.9212598425196851
        },
        {
          "duration": 1.6246720312500003,
          "durationTicks": 1202,
          "midi": 56,
          "name": "G#3",
          "ticks": 90712,
          "time": 122.610024375,
          "velocity": 0.8818897637795275
        },
        {
          "duration": 0.20274609375000807,
          "durationTicks": 150,
          "midi": 65,
          "name": "F4",
          "ticks": 90720,
          "time": 122.6208375,
          "velocity": 1
        },
        {
          "duration": 0.08920828124999503,
          "durationTicks": 66,
          "midi": 65,
          "name": "F4",
          "ticks": 90908,
          "time": 122.8749459375,
          "velocity": 0.9606299212598425
        },
        {
          "duration": 0.1027246875000003,
          "durationTicks": 76,
          "midi": 68,
          "name": "G#4",
          "ticks": 91008,
          "time": 123.01011,
          "velocity": 0.984251968503937
        },
        {
          "duration": 0.18382312500001774,
          "durationTicks": 136,
          "midi": 68,
          "name": "G#4",
          "ticks": 91192,
          "time": 123.25881187499999,
          "velocity": 1
        },
        {
          "duration": 0.16219687500000646,
          "durationTicks": 120,
          "midi": 67,
          "name": "G4",
          "ticks": 91292,
          "time": 123.3939759375,
          "velocity": 1
        },
        {
          "duration": 0.16760343750001994,
          "durationTicks": 124,
          "midi": 67,
          "name": "G4",
          "ticks": 91486,
          "time": 123.65619421874999,
          "velocity": 0.968503937007874
        },
        {
          "duration": 0.10813124999998536,
          "durationTicks": 80,
          "midi": 63,
          "name": "D#4",
          "ticks": 91592,
          "time": 123.799468125,
          "velocity": 0.984251968503937
        },
        {
          "duration": 0.10272468750001451,
          "durationTicks": 76,
          "midi": 63,
          "name": "D#4",
          "ticks": 91768,
          "time": 124.03735687499999,
          "velocity": 1
        },
        {
          "duration": 0.1108345312499921,
          "durationTicks": 82,
          "midi": 65,
          "name": "F4",
          "ticks": 91866,
          "time": 124.16981765625,
          "velocity": 1
        },
        {
          "duration": 0.14057062500000939,
          "durationTicks": 104,
          "midi": 56,
          "name": "G#3",
          "ticks": 92328,
          "time": 124.794275625,
          "velocity": 0.8976377952755905
        },
        {
          "duration": 0.0946148437500085,
          "durationTicks": 70,
          "midi": 67,
          "name": "G4",
          "ticks": 92336,
          "time": 124.80508875,
          "velocity": 0.905511811023622
        },
        {
          "duration": 0.1027246875000003,
          "durationTicks": 76,
          "midi": 63,
          "name": "D#4",
          "ticks": 92336,
          "time": 124.80508875,
          "velocity": 0.905511811023622
        },
        {
          "duration": 0.1027246875000003,
          "durationTicks": 76,
          "midi": 60,
          "name": "C4",
          "ticks": 92336,
          "time": 124.80508875,
          "velocity": 0.9212598425196851
        },
        {
          "duration": 0.16219687499999225,
          "durationTicks": 120,
          "midi": 63,
          "name": "D#4",
          "ticks": 92418,
          "time": 124.91592328125,
          "velocity": 1
        },
        {
          "duration": 0.08650499999998829,
          "durationTicks": 64,
          "midi": 65,
          "name": "F4",
          "ticks": 92520,
          "time": 125.053790625,
          "velocity": 0.984251968503937
        },
        {
          "duration": 0.09731812500000103,
          "durationTicks": 72,
          "midi": 60,
          "name": "C4",
          "ticks": 93100,
          "time": 125.8377421875,
          "velocity": 0.984251968503937
        },
        {
          "duration": 0.03243937500000982,
          "durationTicks": 24,
          "midi": 58,
          "name": "A#3",
          "ticks": 93106,
          "time": 125.84585203124999,
          "velocity": 0.8818897637795275
        },
        {
          "duration": 0.10272468749998609,
          "durationTicks": 76,
          "midi": 63,
          "name": "D#4",
          "ticks": 93186,
          "time": 125.95398328125,
          "velocity": 1
        },
        {
          "duration": 0.10272468750001451,
          "durationTicks": 76,
          "midi": 65,
          "name": "F4",
          "ticks": 93292,
          "time": 126.09725718749999,
          "velocity": 1
        },
        {
          "duration": 0.1189443749999981,
          "durationTicks": 88,
          "midi": 56,
          "name": "G#3",
          "ticks": 93474,
          "time": 126.34325578125,
          "velocity": 0.8740157480314961
        },
        {
          "duration": 0.10542796875000704,
          "durationTicks": 78,
          "midi": 63,
          "name": "D#4",
          "ticks": 93474,
          "time": 126.34325578125,
          "velocity": 0.905511811023622
        },
        {
          "duration": 0.09191156249998755,
          "durationTicks": 68,
          "midi": 67,
          "name": "G4",
          "ticks": 93476,
          "time": 126.3459590625,
          "velocity": 0.889763779527559
        },
        {
          "duration": 0.10813124999999957,
          "durationTicks": 80,
          "midi": 60,
          "name": "C4",
          "ticks": 93476,
          "time": 126.3459590625,
          "velocity": 0.8976377952755905
        },
        {
          "duration": 0.12164765625000484,
          "durationTicks": 90,
          "midi": 56,
          "name": "G#3",
          "ticks": 93660,
          "time": 126.5946609375,
          "velocity": 0.8818897637795275
        },
        {
          "duration": 0.10002140625000777,
          "durationTicks": 74,
          "midi": 67,
          "name": "G4",
          "ticks": 93660,
          "time": 126.5946609375,
          "velocity": 0.889763779527559
        },
        {
          "duration": 0.1027246875000003,
          "durationTicks": 76,
          "midi": 63,
          "name": "D#4",
          "ticks": 93660,
          "time": 126.5946609375,
          "velocity": 0.9133858267716536
        },
        {
          "duration": 0.10813125000001378,
          "durationTicks": 80,
          "midi": 60,
          "name": "C4",
          "ticks": 93660,
          "time": 126.5946609375,
          "velocity": 0.8818897637795275
        },
        {
          "duration": 0.10542796875000704,
          "durationTicks": 78,
          "midi": 60,
          "name": "C4",
          "ticks": 93884,
          "time": 126.8974284375,
          "velocity": 1
        },
        {
          "duration": 0.10813125000001378,
          "durationTicks": 80,
          "midi": 63,
          "name": "D#4",
          "ticks": 93972,
          "time": 127.0163728125,
          "velocity": 1
        },
        {
          "duration": 0.07839515624999649,
          "durationTicks": 58,
          "midi": 65,
          "name": "F4",
          "ticks": 94070,
          "time": 127.14883359375,
          "velocity": 1
        },
        {
          "duration": 0.08380171875000997,
          "durationTicks": 62,
          "midi": 63,
          "name": "D#4",
          "ticks": 94170,
          "time": 127.28399765625,
          "velocity": 0.9921259842519685
        },
        {
          "duration": 0.10002140624999356,
          "durationTicks": 74,
          "midi": 65,
          "name": "F4",
          "ticks": 94256,
          "time": 127.40023875,
          "velocity": 1
        },
        {
          "duration": 0.10002140624999356,
          "durationTicks": 74,
          "midi": 68,
          "name": "G#4",
          "ticks": 94358,
          "time": 127.53810609375,
          "velocity": 1
        },
        {
          "duration": 0.09731812500000103,
          "durationTicks": 72,
          "midi": 65,
          "name": "F4",
          "ticks": 94460,
          "time": 127.6759734375,
          "velocity": 0.968503937007874
        },
        {
          "duration": 0.16490015624999899,
          "durationTicks": 122,
          "midi": 68,
          "name": "G#4",
          "ticks": 94548,
          "time": 127.7949178125,
          "velocity": 0.984251968503937
        },
        {
          "duration": 0.09731812500000103,
          "durationTicks": 72,
          "midi": 70,
          "name": "A#4",
          "ticks": 94648,
          "time": 127.930081875,
          "velocity": 0.984251968503937
        },
        {
          "duration": 0.09731812499998682,
          "durationTicks": 72,
          "midi": 68,
          "name": "G#4",
          "ticks": 94748,
          "time": 128.0652459375,
          "velocity": 0.984251968503937
        },
        {
          "duration": 0.14057062500000939,
          "durationTicks": 104,
          "midi": 70,
          "name": "A#4",
          "ticks": 94848,
          "time": 128.20041,
          "velocity": 0.9921259842519685
        },
        {
          "duration": 0.0946148437500085,
          "durationTicks": 70,
          "midi": 72,
          "name": "C5",
          "ticks": 94940,
          "time": 128.3247609375,
          "velocity": 1
        },
        {
          "duration": 0.09461484374998008,
          "durationTicks": 70,
          "midi": 70,
          "name": "A#4",
          "ticks": 95036,
          "time": 128.4545184375,
          "velocity": 0.889763779527559
        },
        {
          "duration": 0.14597718749999444,
          "durationTicks": 108,
          "midi": 72,
          "name": "C5",
          "ticks": 95118,
          "time": 128.56535296875,
          "velocity": 1
        },
        {
          "duration": 0.08920828124999503,
          "durationTicks": 66,
          "midi": 75,
          "name": "D#5",
          "ticks": 95216,
          "time": 128.69781375,
          "velocity": 1
        },
        {
          "duration": 0.07839515625002491,
          "durationTicks": 58,
          "midi": 72,
          "name": "C5",
          "ticks": 95308,
          "time": 128.8221646875,
          "velocity": 0.968503937007874
        },
        {
          "duration": 0.10002140625002198,
          "durationTicks": 74,
          "midi": 75,
          "name": "D#5",
          "ticks": 95374,
          "time": 128.91137296875,
          "velocity": 0.9921259842519685
        },
        {
          "duration": 0.062175468749984475,
          "durationTicks": 46,
          "midi": 77,
          "name": "F5",
          "ticks": 95438,
          "time": 128.99787796875,
          "velocity": 0.9606299212598425
        },
        {
          "duration": 0.07028531250000469,
          "durationTicks": 52,
          "midi": 75,
          "name": "D#5",
          "ticks": 95502,
          "time": 129.08438296875,
          "velocity": 0.968503937007874
        },
        {
          "duration": 0.10542796875000704,
          "durationTicks": 78,
          "midi": 77,
          "name": "F5",
          "ticks": 95566,
          "time": 129.17088796874998,
          "velocity": 0.984251968503937
        },
        {
          "duration": 0.07839515624999649,
          "durationTicks": 58,
          "midi": 80,
          "name": "G#5",
          "ticks": 95630,
          "time": 129.25739296875,
          "velocity": 0.9212598425196851
        },
        {
          "duration": 0.07028531250000469,
          "durationTicks": 52,
          "midi": 77,
          "name": "F5",
          "ticks": 95694,
          "time": 129.34389796874999,
          "velocity": 0.889763779527559
        },
        {
          "duration": 0.08650499999998829,
          "durationTicks": 64,
          "midi": 77,
          "name": "F5",
          "ticks": 95758,
          "time": 129.43040296875,
          "velocity": 0.984251968503937
        },
        {
          "duration": 0.06487875000001964,
          "durationTicks": 48,
          "midi": 80,
          "name": "G#5",
          "ticks": 95822,
          "time": 129.51690796875,
          "velocity": 0.984251968503937
        },
        {
          "duration": 0.07298859374998301,
          "durationTicks": 54,
          "midi": 77,
          "name": "F5",
          "ticks": 95886,
          "time": 129.60341296875,
          "velocity": 0.8976377952755905
        },
        {
          "duration": 0.10542796875000704,
          "durationTicks": 78,
          "midi": 80,
          "name": "G#5",
          "ticks": 95950,
          "time": 129.68991796875,
          "velocity": 0.984251968503937
        },
        {
          "duration": 0.05676890624999942,
          "durationTicks": 42,
          "midi": 82,
          "name": "A#5",
          "ticks": 96014,
          "time": 129.77642296875,
          "velocity": 0.8976377952755905
        },
        {
          "duration": 0.06758203124999795,
          "durationTicks": 50,
          "midi": 80,
          "name": "G#5",
          "ticks": 96078,
          "time": 129.86292796875,
          "velocity": 0.984251968503937
        },
        {
          "duration": 0.10813125000001378,
          "durationTicks": 80,
          "midi": 82,
          "name": "A#5",
          "ticks": 96142,
          "time": 129.94943296875,
          "velocity": 0.9606299212598425
        },
        {
          "duration": 0.05676890624999942,
          "durationTicks": 42,
          "midi": 84,
          "name": "C6",
          "ticks": 96206,
          "time": 130.03593796875,
          "velocity": 0.984251968503937
        },
        {
          "duration": 0.07028531250000469,
          "durationTicks": 52,
          "midi": 82,
          "name": "A#5",
          "ticks": 96272,
          "time": 130.12514625,
          "velocity": 0.984251968503937
        },
        {
          "duration": 0.1108345312499921,
          "durationTicks": 82,
          "midi": 84,
          "name": "C6",
          "ticks": 96336,
          "time": 130.21165125,
          "velocity": 0.9212598425196851
        },
        {
          "duration": 0.05947218750000616,
          "durationTicks": 44,
          "midi": 87,
          "name": "D#6",
          "ticks": 96400,
          "time": 130.29815625,
          "velocity": 0.8818897637795275
        },
        {
          "duration": 0.06487874999999121,
          "durationTicks": 48,
          "midi": 84,
          "name": "C6",
          "ticks": 96492,
          "time": 130.4225071875,
          "velocity": 0.984251968503937
        },
        {
          "duration": 0.10813124999998536,
          "durationTicks": 80,
          "midi": 87,
          "name": "D#6",
          "ticks": 96554,
          "time": 130.50630890625,
          "velocity": 0.9448818897637795
        },
        {
          "duration": 0.08650500000001671,
          "durationTicks": 64,
          "midi": 89,
          "name": "F6",
          "ticks": 96616,
          "time": 130.590110625,
          "velocity": 0.9291338582677166
        },
        {
          "duration": 0.07028531249997627,
          "durationTicks": 52,
          "midi": 87,
          "name": "D#6",
          "ticks": 96678,
          "time": 130.67391234375,
          "velocity": 1
        },
        {
          "duration": 0.07028531250000469,
          "durationTicks": 52,
          "midi": 89,
          "name": "F6",
          "ticks": 96760,
          "time": 130.784746875,
          "velocity": 0.8740157480314961
        },
        {
          "duration": 0.18652640624998185,
          "durationTicks": 138,
          "midi": 92,
          "name": "G#6",
          "ticks": 96824,
          "time": 130.871251875,
          "velocity": 0.889763779527559
        },
        {
          "duration": 0.5676890624999942,
          "durationTicks": 420,
          "midi": 94,
          "name": "A#6",
          "ticks": 96932,
          "time": 131.0172290625,
          "velocity": 0.968503937007874
        },
        {
          "duration": 0.10002140624999356,
          "durationTicks": 74,
          "midi": 92,
          "name": "G#6",
          "ticks": 97364,
          "time": 131.6011378125,
          "velocity": 0.8740157480314961
        },
        {
          "duration": 4.630720781250005,
          "durationTicks": 3426,
          "midi": 61,
          "name": "C#4",
          "ticks": 97386,
          "time": 131.63087390625,
          "velocity": 0.8582677165354331
        },
        {
          "duration": 4.787511093749998,
          "durationTicks": 3542,
          "midi": 58,
          "name": "A#3",
          "ticks": 97390,
          "time": 131.63628046875,
          "velocity": 0.889763779527559
        },
        {
          "duration": 4.211712187500012,
          "durationTicks": 3116,
          "midi": 65,
          "name": "F4",
          "ticks": 97390,
          "time": 131.63628046875,
          "velocity": 0.84251968503937
        },
        {
          "duration": 4.806434062500017,
          "durationTicks": 3556,
          "midi": 56,
          "name": "G#3",
          "ticks": 97392,
          "time": 131.63898375,
          "velocity": 0.8503937007874016
        },
        {
          "duration": 0.08920828124999503,
          "durationTicks": 66,
          "midi": 94,
          "name": "A#6",
          "ticks": 97500,
          "time": 131.7849609375,
          "velocity": 0.984251968503937
        },
        {
          "duration": 0.14868046875000118,
          "durationTicks": 110,
          "midi": 94,
          "name": "A#6",
          "ticks": 97610,
          "time": 131.93364140625,
          "velocity": 0.8976377952755905
        },
        {
          "duration": 0.08650499999998829,
          "durationTicks": 64,
          "midi": 95,
          "name": "B6",
          "ticks": 97688,
          "time": 132.039069375,
          "velocity": 0.8267716535433071
        },
        {
          "duration": 0.10813124999998536,
          "durationTicks": 80,
          "midi": 96,
          "name": "C7",
          "ticks": 97748,
          "time": 132.1201678125,
          "velocity": 0.9291338582677166
        },
        {
          "duration": 0.1811198437500252,
          "durationTicks": 134,
          "midi": 94,
          "name": "A#6",
          "ticks": 97810,
          "time": 132.20396953124998,
          "velocity": 0.8818897637795275
        },
        {
          "duration": 0.12435093749999737,
          "durationTicks": 92,
          "midi": 92,
          "name": "G#6",
          "ticks": 97924,
          "time": 132.3580565625,
          "velocity": 0.9448818897637795
        },
        {
          "duration": 0.10813125000001378,
          "durationTicks": 80,
          "midi": 89,
          "name": "F6",
          "ticks": 98116,
          "time": 132.6175715625,
          "velocity": 1
        },
        {
          "duration": 0.11624109375000558,
          "durationTicks": 86,
          "midi": 94,
          "name": "A#6",
          "ticks": 98302,
          "time": 132.86897671875,
          "velocity": 0.9606299212598425
        },
        {
          "duration": 0.14868046874997276,
          "durationTicks": 110,
          "midi": 92,
          "name": "G#6",
          "ticks": 98494,
          "time": 133.12849171875,
          "velocity": 0.984251968503937
        },
        {
          "duration": 0.14057062499998096,
          "durationTicks": 104,
          "midi": 91,
          "name": "G6",
          "ticks": 98592,
          "time": 133.2609525,
          "velocity": 1
        },
        {
          "duration": 0.11353781250002726,
          "durationTicks": 84,
          "midi": 89,
          "name": "F6",
          "ticks": 98688,
          "time": 133.39070999999998,
          "velocity": 0.9133858267716536
        },
        {
          "duration": 0.07569187499998975,
          "durationTicks": 56,
          "midi": 87,
          "name": "D#6",
          "ticks": 98784,
          "time": 133.5204675,
          "velocity": 0.8818897637795275
        },
        {
          "duration": 0.08380171875003839,
          "durationTicks": 62,
          "midi": 84,
          "name": "C6",
          "ticks": 98888,
          "time": 133.66103812499998,
          "velocity": 0.9133858267716536
        },
        {
          "duration": 0.05136234375004278,
          "durationTicks": 38,
          "midi": 82,
          "name": "A#5",
          "ticks": 98972,
          "time": 133.77457593749997,
          "velocity": 0.8582677165354331
        },
        {
          "duration": 0.07298859374998301,
          "durationTicks": 54,
          "midi": 82,
          "name": "A#5",
          "ticks": 99070,
          "time": 133.90703671875002,
          "velocity": 0.984251968503937
        },
        {
          "duration": 0.16760343750001994,
          "durationTicks": 124,
          "midi": 89,
          "name": "F6",
          "ticks": 99072,
          "time": 133.90974,
          "velocity": 1
        },
        {
          "duration": 0.09191156249997334,
          "durationTicks": 68,
          "midi": 83,
          "name": "B5",
          "ticks": 99160,
          "time": 134.028684375,
          "velocity": 0.9133858267716536
        },
        {
          "duration": 0.09191156250003019,
          "durationTicks": 68,
          "midi": 82,
          "name": "A#5",
          "ticks": 99200,
          "time": 134.08274999999998,
          "velocity": 0.889763779527559
        },
        {
          "duration": 0.06487874999999121,
          "durationTicks": 48,
          "midi": 80,
          "name": "G#5",
          "ticks": 99272,
          "time": 134.180068125,
          "velocity": 0.8503937007874016
        },
        {
          "duration": 0.17841656249999005,
          "durationTicks": 132,
          "midi": 82,
          "name": "A#5",
          "ticks": 99354,
          "time": 134.29090265625,
          "velocity": 0.984251968503937
        },
        {
          "duration": 0.09731812499998682,
          "durationTicks": 72,
          "midi": 80,
          "name": "G#5",
          "ticks": 99458,
          "time": 134.43147328125,
          "velocity": 0.968503937007874
        },
        {
          "duration": 0.09191156250000176,
          "durationTicks": 68,
          "midi": 77,
          "name": "F5",
          "ticks": 99544,
          "time": 134.547714375,
          "velocity": 0.889763779527559
        },
        {
          "duration": 0.11353781249999884,
          "durationTicks": 84,
          "midi": 79,
          "name": "G5",
          "ticks": 99652,
          "time": 134.69369156250002,
          "velocity": 0.984251968503937
        },
        {
          "duration": 0.17030671874999825,
          "durationTicks": 126,
          "midi": 80,
          "name": "G#5",
          "ticks": 99740,
          "time": 134.81263593749998,
          "velocity": 0.9133858267716536
        },
        {
          "duration": 0.189229687500017,
          "durationTicks": 140,
          "midi": 79,
          "name": "G5",
          "ticks": 99836,
          "time": 134.9423934375,
          "velocity": 0.9448818897637795
        },
        {
          "duration": 0.1027246875000003,
          "durationTicks": 76,
          "midi": 75,
          "name": "D#5",
          "ticks": 99938,
          "time": 135.08026078125,
          "velocity": 0.8503937007874016
        },
        {
          "duration": 0.04325249999999414,
          "durationTicks": 32,
          "midi": 77,
          "name": "F5",
          "ticks": 99940,
          "time": 135.0829640625,
          "velocity": 0.8740157480314961
        },
        {
          "duration": 0.07839515624996807,
          "durationTicks": 58,
          "midi": 72,
          "name": "C5",
          "ticks": 100030,
          "time": 135.20461171875002,
          "velocity": 0.968503937007874
        },
        {
          "duration": 0.12164765624999063,
          "durationTicks": 90,
          "midi": 77,
          "name": "F5",
          "ticks": 100124,
          "time": 135.3316659375,
          "velocity": 0.984251968503937
        },
        {
          "duration": 0.06487875000001964,
          "durationTicks": 48,
          "midi": 72,
          "name": "C5",
          "ticks": 100224,
          "time": 135.46683,
          "velocity": 0.9448818897637795
        },
        {
          "duration": 0.18111984374996837,
          "durationTicks": 134,
          "midi": 77,
          "name": "F5",
          "ticks": 100314,
          "time": 135.58847765625,
          "velocity": 0.984251968503937
        },
        {
          "duration": 0.08380171874998155,
          "durationTicks": 62,
          "midi": 70,
          "name": "A#4",
          "ticks": 100314,
          "time": 135.58847765625,
          "velocity": 0.968503937007874
        },
        {
          "duration": 0.116241093750034,
          "durationTicks": 86,
          "midi": 71,
          "name": "B4",
          "ticks": 100400,
          "time": 135.70471874999998,
          "velocity": 0.905511811023622
        },
        {
          "duration": 0.02973609375001729,
          "durationTicks": 22,
          "midi": 74,
          "name": "D5",
          "ticks": 100400,
          "time": 135.70471874999998,
          "velocity": 0.7244094488188977
        },
        {
          "duration": 0.08380171875000997,
          "durationTicks": 62,
          "midi": 70,
          "name": "A#4",
          "ticks": 100456,
          "time": 135.780410625,
          "velocity": 0.8818897637795275
        },
        {
          "duration": 0.0540656250000211,
          "durationTicks": 40,
          "midi": 68,
          "name": "G#4",
          "ticks": 100512,
          "time": 135.8561025,
          "velocity": 0.8582677165354331
        },
        {
          "duration": 0.1811198437499968,
          "durationTicks": 134,
          "midi": 70,
          "name": "A#4",
          "ticks": 100596,
          "time": 135.9696403125,
          "velocity": 0.9448818897637795
        },
        {
          "duration": 0.10813124999998536,
          "durationTicks": 80,
          "midi": 68,
          "name": "G#4",
          "ticks": 100696,
          "time": 136.10480437500001,
          "velocity": 1
        },
        {
          "duration": 0.07839515624999649,
          "durationTicks": 58,
          "midi": 65,
          "name": "F4",
          "ticks": 100784,
          "time": 136.22374875,
          "velocity": 0.984251968503937
        },
        {
          "duration": 0.0946148437500085,
          "durationTicks": 70,
          "midi": 63,
          "name": "D#4",
          "ticks": 100974,
          "time": 136.48056046874999,
          "velocity": 0.968503937007874
        },
        {
          "duration": 0.06758203124996953,
          "durationTicks": 50,
          "midi": 63,
          "name": "D#4",
          "ticks": 101166,
          "time": 136.74007546875,
          "velocity": 0.9291338582677166
        },
        {
          "duration": 0.20004281250001554,
          "durationTicks": 148,
          "midi": 65,
          "name": "F4",
          "ticks": 101262,
          "time": 136.86983296875,
          "velocity": 0.9133858267716536
        },
        {
          "duration": 0.12435093749996895,
          "durationTicks": 92,
          "midi": 53,
          "name": "F3",
          "ticks": 101454,
          "time": 137.12934796875,
          "velocity": 0.9291338582677166
        },
        {
          "duration": 0.1270542187499757,
          "durationTicks": 94,
          "midi": 58,
          "name": "A#3",
          "ticks": 101548,
          "time": 137.25640218750002,
          "velocity": 0.952755905511811
        },
        {
          "duration": 0.1324607812500176,
          "durationTicks": 98,
          "midi": 55,
          "name": "G3",
          "ticks": 101640,
          "time": 137.38075312499998,
          "velocity": 0.8976377952755905
        },
        {
          "duration": 0.13516406249996749,
          "durationTicks": 100,
          "midi": 56,
          "name": "G#3",
          "ticks": 101740,
          "time": 137.5159171875,
          "velocity": 0.8818897637795275
        },
        {
          "duration": 0.12435093749996895,
          "durationTicks": 92,
          "midi": 63,
          "name": "D#4",
          "ticks": 101836,
          "time": 137.64567468750002,
          "velocity": 0.9133858267716536
        },
        {
          "duration": 0.12435093749999737,
          "durationTicks": 92,
          "midi": 59,
          "name": "B3",
          "ticks": 101932,
          "time": 137.7754321875,
          "velocity": 0.8661417322834646
        },
        {
          "duration": 0.12975749999998243,
          "durationTicks": 96,
          "midi": 60,
          "name": "C4",
          "ticks": 102028,
          "time": 137.9051896875,
          "velocity": 0.8503937007874016
        },
        {
          "duration": 0.11894437499998389,
          "durationTicks": 88,
          "midi": 70,
          "name": "A#4",
          "ticks": 102124,
          "time": 138.0349471875,
          "velocity": 0.8818897637795275
        },
        {
          "duration": 0.1270542187499757,
          "durationTicks": 94,
          "midi": 64,
          "name": "E4",
          "ticks": 102220,
          "time": 138.1647046875,
          "velocity": 0.8818897637795275
        },
        {
          "duration": 0.13516406249996749,
          "durationTicks": 100,
          "midi": 65,
          "name": "F4",
          "ticks": 102316,
          "time": 138.29446218750002,
          "velocity": 0.84251968503937
        },
        {
          "duration": 0.11624109375000558,
          "durationTicks": 86,
          "midi": 77,
          "name": "F5",
          "ticks": 102412,
          "time": 138.4242196875,
          "velocity": 0.8818897637795275
        },
        {
          "duration": 0.12435093749999737,
          "durationTicks": 92,
          "midi": 71,
          "name": "B4",
          "ticks": 102508,
          "time": 138.5539771875,
          "velocity": 0.7952755905511811
        },
        {
          "duration": 0.12164765624999063,
          "durationTicks": 90,
          "midi": 72,
          "name": "C5",
          "ticks": 102604,
          "time": 138.68373468750002,
          "velocity": 0.8188976377952756
        },
        {
          "duration": 0.12975750000001085,
          "durationTicks": 96,
          "midi": 79,
          "name": "G5",
          "ticks": 102700,
          "time": 138.8134921875,
          "velocity": 0.9291338582677166
        },
        {
          "duration": 0.12975749999998243,
          "durationTicks": 96,
          "midi": 80,
          "name": "G#5",
          "ticks": 102796,
          "time": 138.9432496875,
          "velocity": 0.84251968503937
        },
        {
          "duration": 0.5244365625,
          "durationTicks": 388,
          "midi": 89,
          "name": "F6",
          "ticks": 102892,
          "time": 139.0730071875,
          "velocity": 0.8503937007874016
        }
      ]
    },
    {
      "channel": 0,
      "controlChanges": {},
      "pitchBends": [
        {
          "ticks": 1536,
          "time": 2.07612,
          "value": 0
        }
      ],
      "instrument": {
        "family": "piano",
        "number": 0,
        "name": "acoustic grand piano"
      },
      "name": "OVERDRIVE",
      "notes": [],
      "endOfTrackTicks": 104526
    },
    {
      "channel": 3,
      "controlChanges": {
        "7": [
          {
            "number": 7,
            "ticks": 1536,
            "time": 2.07612,
            "value": 0.7637795275590551
          }
        ],
        "10": [
          {
            "number": 10,
            "ticks": 1536,
            "time": 2.07612,
            "value": 0.6220472440944882
          }
        ],
        "64": [
          {
            "number": 64,
            "ticks": 1536,
            "time": 2.07612,
            "value": 0
          }
        ],
        "91": [
          {
            "number": 91,
            "ticks": 1536,
            "time": 2.07612,
            "value": 1
          }
        ],
        "93": [
          {
            "number": 93,
            "ticks": 1536,
            "time": 2.07612,
            "value": 0.06299212598425197
          }
        ]
      },
      "pitchBends": [],
      "instrument": {
        "family": "guitar",
        "number": 29,
        "name": "overdriven guitar"
      },
      "name": "",
      "notes": [
        {
          "duration": 0.12435093750000004,
          "durationTicks": 92,
          "midi": 48,
          "name": "C3",
          "ticks": 1616,
          "time": 2.18425125,
          "velocity": 0.9291338582677166
        },
        {
          "duration": 0.12705421875000011,
          "durationTicks": 94,
          "midi": 53,
          "name": "F3",
          "ticks": 1712,
          "time": 2.3140087499999997,
          "velocity": 0.952755905511811
        },
        {
          "duration": 0.13246078124999983,
          "durationTicks": 98,
          "midi": 50,
          "name": "D3",
          "ticks": 1804,
          "time": 2.4383596875,
          "velocity": 0.8976377952755905
        },
        {
          "duration": 0.1351640624999999,
          "durationTicks": 100,
          "midi": 51,
          "name": "D#3",
          "ticks": 1902,
          "time": 2.57082046875,
          "velocity": 0.8818897637795275
        },
        {
          "duration": 0.12435093750000004,
          "durationTicks": 92,
          "midi": 58,
          "name": "A#3",
          "ticks": 1998,
          "time": 2.70057796875,
          "velocity": 0.9133858267716536
        },
        {
          "duration": 0.12705421875000011,
          "durationTicks": 94,
          "midi": 54,
          "name": "F#3",
          "ticks": 2094,
          "time": 2.83033546875,
          "velocity": 0.8661417322834646
        },
        {
          "duration": 0.13246078124999983,
          "durationTicks": 98,
          "midi": 55,
          "name": "G3",
          "ticks": 2190,
          "time": 2.96009296875,
          "velocity": 0.8503937007874016
        },
        {
          "duration": 0.11894437500000032,
          "durationTicks": 88,
          "midi": 65,
          "name": "F4",
          "ticks": 2286,
          "time": 3.08985046875,
          "velocity": 0.8818897637795275
        },
        {
          "duration": 0.12435093750000048,
          "durationTicks": 92,
          "midi": 51,
          "name": "D#3",
          "ticks": 2384,
          "time": 3.2223112499999997,
          "velocity": 0.9291338582677166
        },
        {
          "duration": 0.12705421875000011,
          "durationTicks": 94,
          "midi": 56,
          "name": "G#3",
          "ticks": 2478,
          "time": 3.34936546875,
          "velocity": 0.952755905511811
        },
        {
          "duration": 0.1297575000000002,
          "durationTicks": 96,
          "midi": 53,
          "name": "F3",
          "ticks": 2572,
          "time": 3.4764196875,
          "velocity": 0.8976377952755905
        },
        {
          "duration": 0.13516406250000035,
          "durationTicks": 100,
          "midi": 54,
          "name": "F#3",
          "ticks": 2670,
          "time": 3.60888046875,
          "velocity": 0.8818897637795275
        },
        {
          "duration": 0.12435093749999959,
          "durationTicks": 92,
          "midi": 61,
          "name": "C#4",
          "ticks": 2766,
          "time": 3.73863796875,
          "velocity": 0.9133858267716536
        },
        {
          "duration": 0.12705421875000056,
          "durationTicks": 94,
          "midi": 57,
          "name": "A3",
          "ticks": 2862,
          "time": 3.8683954687499997,
          "velocity": 0.8661417322834646
        },
        {
          "duration": 0.12975749999999975,
          "durationTicks": 96,
          "midi": 58,
          "name": "A#3",
          "ticks": 2958,
          "time": 3.99815296875,
          "velocity": 0.8503937007874016
        },
        {
          "duration": 0.11894437499999988,
          "durationTicks": 88,
          "midi": 68,
          "name": "G#4",
          "ticks": 3054,
          "time": 4.12791046875,
          "velocity": 0.8818897637795275
        },
        {
          "duration": 0.12435093749996895,
          "durationTicks": 92,
          "midi": 53,
          "name": "F3",
          "ticks": 101454,
          "time": 137.12934796875,
          "velocity": 0.9291338582677166
        },
        {
          "duration": 0.1270542187499757,
          "durationTicks": 94,
          "midi": 58,
          "name": "A#3",
          "ticks": 101548,
          "time": 137.25640218750002,
          "velocity": 0.952755905511811
        },
        {
          "duration": 0.1324607812500176,
          "durationTicks": 98,
          "midi": 55,
          "name": "G3",
          "ticks": 101640,
          "time": 137.38075312499998,
          "velocity": 0.8976377952755905
        },
        {
          "duration": 0.13516406249996749,
          "durationTicks": 100,
          "midi": 56,
          "name": "G#3",
          "ticks": 101740,
          "time": 137.5159171875,
          "velocity": 0.8818897637795275
        },
        {
          "duration": 0.12435093749996895,
          "durationTicks": 92,
          "midi": 63,
          "name": "D#4",
          "ticks": 101836,
          "time": 137.64567468750002,
          "velocity": 0.9133858267716536
        },
        {
          "duration": 0.12435093749999737,
          "durationTicks": 92,
          "midi": 59,
          "name": "B3",
          "ticks": 101932,
          "time": 137.7754321875,
          "velocity": 0.8661417322834646
        },
        {
          "duration": 0.12975749999998243,
          "durationTicks": 96,
          "midi": 60,
          "name": "C4",
          "ticks": 102028,
          "time": 137.9051896875,
          "velocity": 0.8503937007874016
        },
        {
          "duration": 0.11894437499998389,
          "durationTicks": 88,
          "midi": 70,
          "name": "A#4",
          "ticks": 102124,
          "time": 138.0349471875,
          "velocity": 0.8818897637795275
        },
        {
          "duration": 0.1270542187499757,
          "durationTicks": 94,
          "midi": 64,
          "name": "E4",
          "ticks": 102220,
          "time": 138.1647046875,
          "velocity": 0.8818897637795275
        },
        {
          "duration": 0.13516406249996749,
          "durationTicks": 100,
          "midi": 65,
          "name": "F4",
          "ticks": 102316,
          "time": 138.29446218750002,
          "velocity": 0.84251968503937
        },
        {
          "duration": 0.11624109375000558,
          "durationTicks": 86,
          "midi": 77,
          "name": "F5",
          "ticks": 102412,
          "time": 138.4242196875,
          "velocity": 0.8818897637795275
        },
        {
          "duration": 0.12435093749999737,
          "durationTicks": 92,
          "midi": 71,
          "name": "B4",
          "ticks": 102508,
          "time": 138.5539771875,
          "velocity": 0.7952755905511811
        },
        {
          "duration": 0.12164765624999063,
          "durationTicks": 90,
          "midi": 72,
          "name": "C5",
          "ticks": 102604,
          "time": 138.68373468750002,
          "velocity": 0.8188976377952756
        },
        {
          "duration": 0.12975750000001085,
          "durationTicks": 96,
          "midi": 79,
          "name": "G5",
          "ticks": 102700,
          "time": 138.8134921875,
          "velocity": 0.9291338582677166
        },
        {
          "duration": 0.12975749999998243,
          "durationTicks": 96,
          "midi": 80,
          "name": "G#5",
          "ticks": 102796,
          "time": 138.9432496875,
          "velocity": 0.84251968503937
        },
        {
          "duration": 0.3784593750000056,
          "durationTicks": 280,
          "midi": 89,
          "name": "F6",
          "ticks": 102892,
          "time": 139.0730071875,
          "velocity": 0.8503937007874016
        }
      ]
    },
    {
      "channel": 0,
      "controlChanges": {
        "7": [
          {
            "number": 7,
            "ticks": 1536,
            "time": 2.07612,
            "value": 0.6614173228346457
          }
        ],
        "10": [
          {
            "number": 10,
            "ticks": 1536,
            "time": 2.07612,
            "value": 0.5039370078740157
          }
        ],
        "64": [
          {
            "number": 64,
            "ticks": 1536,
            "time": 2.07612,
            "value": 0
          }
        ],
        "91": [
          {
            "number": 91,
            "ticks": 1536,
            "time": 2.07612,
            "value": 0.2755905511811024
          }
        ],
        "93": [
          {
            "number": 93,
            "ticks": 1536,
            "time": 2.07612,
            "value": 0.3937007874015748
          }
        ]
      },
      "pitchBends": [],
      "instrument": {
        "family": "piano",
        "number": 0,
        "name": "acoustic grand piano"
      },
      "name": "E.PIANO 2",
      "notes": [],
      "endOfTrackTicks": 104526
    },
    {
      "channel": 4,
      "controlChanges": {
        "64": [
          {
            "number": 64,
            "ticks": 9320,
            "time": 12.597290625,
            "value": 1
          },
          {
            "number": 64,
            "ticks": 14734,
            "time": 19.91507296875,
            "value": 0
          },
          {
            "number": 64,
            "ticks": 14934,
            "time": 20.18540109375,
            "value": 1
          },
          {
            "number": 64,
            "ticks": 15492,
            "time": 20.9396165625,
            "value": 0
          },
          {
            "number": 64,
            "ticks": 15776,
            "time": 21.3234825,
            "value": 1
          },
          {
            "number": 64,
            "ticks": 20848,
            "time": 28.17900375,
            "value": 0
          },
          {
            "number": 64,
            "ticks": 21188,
            "time": 28.6385615625,
            "value": 1
          },
          {
            "number": 64,
            "ticks": 21606,
            "time": 29.20354734375,
            "value": 1
          },
          {
            "number": 64,
            "ticks": 27020,
            "time": 36.5213296875,
            "value": 0
          },
          {
            "number": 64,
            "ticks": 27222,
            "time": 36.79436109375,
            "value": 1
          },
          {
            "number": 64,
            "ticks": 27780,
            "time": 37.5485765625,
            "value": 0
          },
          {
            "number": 64,
            "ticks": 28064,
            "time": 37.93244249999999,
            "value": 1
          },
          {
            "number": 64,
            "ticks": 33136,
            "time": 44.78796375,
            "value": 0
          },
          {
            "number": 64,
            "ticks": 33476,
            "time": 45.2475215625,
            "value": 1
          },
          {
            "number": 64,
            "ticks": 33894,
            "time": 45.81250734375,
            "value": 1
          },
          {
            "number": 64,
            "ticks": 39308,
            "time": 53.130289687499996,
            "value": 0
          },
          {
            "number": 64,
            "ticks": 39508,
            "time": 53.4006178125,
            "value": 1
          },
          {
            "number": 64,
            "ticks": 40066,
            "time": 54.15483328125,
            "value": 0
          },
          {
            "number": 64,
            "ticks": 40350,
            "time": 54.53869921875,
            "value": 1
          },
          {
            "number": 64,
            "ticks": 45422,
            "time": 61.39422046875,
            "value": 0
          },
          {
            "number": 64,
            "ticks": 45764,
            "time": 61.856481562499994,
            "value": 1
          },
          {
            "number": 64,
            "ticks": 46224,
            "time": 62.47823625,
            "value": 0
          },
          {
            "number": 64,
            "ticks": 46550,
            "time": 62.91887109375,
            "value": 1
          },
          {
            "number": 64,
            "ticks": 51562,
            "time": 69.69329390624999,
            "value": 0
          },
          {
            "number": 64,
            "ticks": 51724,
            "time": 69.9122596875,
            "value": 1
          },
          {
            "number": 64,
            "ticks": 52358,
            "time": 70.76919984375,
            "value": 0
          },
          {
            "number": 64,
            "ticks": 52680,
            "time": 71.20442812499999,
            "value": 1
          },
          {
            "number": 64,
            "ticks": 58470,
            "time": 79.03042734375,
            "value": 1
          },
          {
            "number": 64,
            "ticks": 60004,
            "time": 81.10384406249999,
            "value": 1
          },
          {
            "number": 64,
            "ticks": 65420,
            "time": 88.4243296875,
            "value": 0
          },
          {
            "number": 64,
            "ticks": 65620,
            "time": 88.6946578125,
            "value": 1
          },
          {
            "number": 64,
            "ticks": 66178,
            "time": 89.44887328124999,
            "value": 0
          },
          {
            "number": 64,
            "ticks": 66462,
            "time": 89.83273921874999,
            "value": 1
          },
          {
            "number": 64,
            "ticks": 71534,
            "time": 96.68826046875,
            "value": 0
          },
          {
            "number": 64,
            "ticks": 71874,
            "time": 97.14781828125,
            "value": 1
          },
          {
            "number": 64,
            "ticks": 72336,
            "time": 97.77227625,
            "value": 0
          },
          {
            "number": 64,
            "ticks": 72660,
            "time": 98.2102078125,
            "value": 1
          },
          {
            "number": 64,
            "ticks": 77674,
            "time": 104.98733390624999,
            "value": 0
          },
          {
            "number": 64,
            "ticks": 77836,
            "time": 105.20629968749999,
            "value": 1
          },
          {
            "number": 64,
            "ticks": 78468,
            "time": 106.0605365625,
            "value": 0
          },
          {
            "number": 64,
            "ticks": 78792,
            "time": 106.498468125,
            "value": 1
          },
          {
            "number": 64,
            "ticks": 83826,
            "time": 113.30262703125,
            "value": 0
          },
          {
            "number": 64,
            "ticks": 84118,
            "time": 113.69730609374999,
            "value": 1
          },
          {
            "number": 64,
            "ticks": 84580,
            "time": 114.3217640625,
            "value": 1
          },
          {
            "number": 64,
            "ticks": 89996,
            "time": 121.6422496875,
            "value": 0
          },
          {
            "number": 64,
            "ticks": 90196,
            "time": 121.91257781249999,
            "value": 1
          },
          {
            "number": 64,
            "ticks": 90754,
            "time": 122.66679328125,
            "value": 0
          },
          {
            "number": 64,
            "ticks": 91038,
            "time": 123.05065921875,
            "value": 1
          },
          {
            "number": 64,
            "ticks": 96110,
            "time": 129.90618046875,
            "value": 0
          },
          {
            "number": 64,
            "ticks": 96450,
            "time": 130.36573828125,
            "value": 1
          },
          {
            "number": 64,
            "ticks": 96912,
            "time": 130.99019625,
            "value": 0
          },
          {
            "number": 64,
            "ticks": 97236,
            "time": 131.4281278125,
            "value": 1
          }
        ]
      },
      "pitchBends": [
        {
          "ticks": 1536,
          "time": 2.07612,
          "value": 0
        }
      ],
      "instrument": {
        "family": "piano",
        "number": 5,
        "name": "electric piano 2"
      },
      "name": "",
      "notes": [
        {
          "duration": 0.5055135937500026,
          "durationTicks": 374,
          "midi": 59,
          "name": "B3",
          "ticks": 9296,
          "time": 12.564851249999998,
          "velocity": 1
        },
        {
          "duration": 0.5163267187500011,
          "durationTicks": 382,
          "midi": 56,
          "name": "G#3",
          "ticks": 9296,
          "time": 12.564851249999998,
          "velocity": 1
        },
        {
          "duration": 0.5298431250000011,
          "durationTicks": 392,
          "midi": 66,
          "name": "F#4",
          "ticks": 9296,
          "time": 12.564851249999998,
          "velocity": 1
        },
        {
          "duration": 0.5028103125000012,
          "durationTicks": 372,
          "midi": 63,
          "name": "D#4",
          "ticks": 9296,
          "time": 12.564851249999998,
          "velocity": 1
        },
        {
          "duration": 0.5352496875000021,
          "durationTicks": 396,
          "midi": 56,
          "name": "G#3",
          "ticks": 14672,
          "time": 19.83127125,
          "velocity": 1
        },
        {
          "duration": 0.5325464062499989,
          "durationTicks": 394,
          "midi": 59,
          "name": "B3",
          "ticks": 14672,
          "time": 19.83127125,
          "velocity": 1
        },
        {
          "duration": 0.5298431249999993,
          "durationTicks": 392,
          "midi": 63,
          "name": "D#4",
          "ticks": 14672,
          "time": 19.83127125,
          "velocity": 1
        },
        {
          "duration": 0.5649857812499981,
          "durationTicks": 418,
          "midi": 66,
          "name": "F#4",
          "ticks": 14672,
          "time": 19.83127125,
          "velocity": 1
        },
        {
          "duration": 0.667710468750002,
          "durationTicks": 494,
          "midi": 65,
          "name": "F4",
          "ticks": 15442,
          "time": 20.872034531249998,
          "velocity": 1
        },
        {
          "duration": 0.6460842187499978,
          "durationTicks": 478,
          "midi": 61,
          "name": "C#4",
          "ticks": 15444,
          "time": 20.8747378125,
          "velocity": 1
        },
        {
          "duration": 0.6352710937499992,
          "durationTicks": 470,
          "midi": 54,
          "name": "F#3",
          "ticks": 15444,
          "time": 20.8747378125,
          "velocity": 1
        },
        {
          "duration": 0.6352710937499992,
          "durationTicks": 470,
          "midi": 58,
          "name": "A#3",
          "ticks": 15444,
          "time": 20.8747378125,
          "velocity": 1
        },
        {
          "duration": 0.5947218749999976,
          "durationTicks": 440,
          "midi": 61,
          "name": "C#4",
          "ticks": 20816,
          "time": 28.135751250000002,
          "velocity": 1
        },
        {
          "duration": 0.6271612499999968,
          "durationTicks": 464,
          "midi": 65,
          "name": "F4",
          "ticks": 20816,
          "time": 28.135751250000002,
          "velocity": 1
        },
        {
          "duration": 0.6001284375000004,
          "durationTicks": 444,
          "midi": 58,
          "name": "A#3",
          "ticks": 20816,
          "time": 28.135751250000002,
          "velocity": 1
        },
        {
          "duration": 0.5974251562499973,
          "durationTicks": 442,
          "midi": 54,
          "name": "F#3",
          "ticks": 20816,
          "time": 28.135751250000002,
          "velocity": 1
        },
        {
          "duration": 0.5028103124999994,
          "durationTicks": 372,
          "midi": 59,
          "name": "B3",
          "ticks": 21584,
          "time": 29.17381125,
          "velocity": 1
        },
        {
          "duration": 0.513623437499998,
          "durationTicks": 380,
          "midi": 56,
          "name": "G#3",
          "ticks": 21584,
          "time": 29.17381125,
          "velocity": 1
        },
        {
          "duration": 0.5298431249999993,
          "durationTicks": 392,
          "midi": 66,
          "name": "F#4",
          "ticks": 21584,
          "time": 29.17381125,
          "velocity": 1
        },
        {
          "duration": 0.5028103124999994,
          "durationTicks": 372,
          "midi": 63,
          "name": "D#4",
          "ticks": 21584,
          "time": 29.17381125,
          "velocity": 1
        },
        {
          "duration": 0.5379529687499982,
          "durationTicks": 398,
          "midi": 56,
          "name": "G#3",
          "ticks": 26958,
          "time": 36.43752796875,
          "velocity": 1
        },
        {
          "duration": 0.5298431250000064,
          "durationTicks": 392,
          "midi": 59,
          "name": "B3",
          "ticks": 26960,
          "time": 36.44023125,
          "velocity": 1
        },
        {
          "duration": 0.5271398437499997,
          "durationTicks": 390,
          "midi": 63,
          "name": "D#4",
          "ticks": 26960,
          "time": 36.44023125,
          "velocity": 1
        },
        {
          "duration": 0.562282500000002,
          "durationTicks": 416,
          "midi": 66,
          "name": "F#4",
          "ticks": 26960,
          "time": 36.44023125,
          "velocity": 1
        },
        {
          "duration": 0.6650071874999952,
          "durationTicks": 492,
          "midi": 65,
          "name": "F4",
          "ticks": 27730,
          "time": 37.480994531250005,
          "velocity": 1
        },
        {
          "duration": 0.6460842187499907,
          "durationTicks": 478,
          "midi": 61,
          "name": "C#4",
          "ticks": 27730,
          "time": 37.480994531250005,
          "velocity": 1
        },
        {
          "duration": 0.6352710937499921,
          "durationTicks": 470,
          "midi": 54,
          "name": "F#3",
          "ticks": 27730,
          "time": 37.480994531250005,
          "velocity": 1
        },
        {
          "duration": 0.6352710937499921,
          "durationTicks": 470,
          "midi": 58,
          "name": "A#3",
          "ticks": 27730,
          "time": 37.480994531250005,
          "velocity": 1
        },
        {
          "duration": 0.5920185937500051,
          "durationTicks": 438,
          "midi": 61,
          "name": "C#4",
          "ticks": 33104,
          "time": 44.744711249999995,
          "velocity": 1
        },
        {
          "duration": 0.6271612500000074,
          "durationTicks": 464,
          "midi": 65,
          "name": "F4",
          "ticks": 33104,
          "time": 44.744711249999995,
          "velocity": 1
        },
        {
          "duration": 0.600128437500004,
          "durationTicks": 444,
          "midi": 58,
          "name": "A#3",
          "ticks": 33104,
          "time": 44.744711249999995,
          "velocity": 1
        },
        {
          "duration": 0.5947218750000047,
          "durationTicks": 440,
          "midi": 54,
          "name": "F#3",
          "ticks": 33104,
          "time": 44.744711249999995,
          "velocity": 1
        },
        {
          "duration": 0.502810312500003,
          "durationTicks": 372,
          "midi": 59,
          "name": "B3",
          "ticks": 33872,
          "time": 45.782771249999996,
          "velocity": 1
        },
        {
          "duration": 0.5136234375000086,
          "durationTicks": 380,
          "midi": 56,
          "name": "G#3",
          "ticks": 33872,
          "time": 45.782771249999996,
          "velocity": 1
        },
        {
          "duration": 0.5271398437499997,
          "durationTicks": 390,
          "midi": 66,
          "name": "F#4",
          "ticks": 33872,
          "time": 45.782771249999996,
          "velocity": 1
        },
        {
          "duration": 0.5001070312500033,
          "durationTicks": 370,
          "midi": 63,
          "name": "D#4",
          "ticks": 33872,
          "time": 45.782771249999996,
          "velocity": 1
        },
        {
          "duration": 0.5379529687499982,
          "durationTicks": 398,
          "midi": 56,
          "name": "G#3",
          "ticks": 39246,
          "time": 53.04648796875,
          "velocity": 1
        },
        {
          "duration": 0.5325464062499989,
          "durationTicks": 394,
          "midi": 59,
          "name": "B3",
          "ticks": 39246,
          "time": 53.04648796875,
          "velocity": 1
        },
        {
          "duration": 0.5298431249999993,
          "durationTicks": 392,
          "midi": 63,
          "name": "D#4",
          "ticks": 39246,
          "time": 53.04648796875,
          "velocity": 1
        },
        {
          "duration": 0.5649857812500017,
          "durationTicks": 418,
          "midi": 66,
          "name": "F#4",
          "ticks": 39246,
          "time": 53.04648796875,
          "velocity": 1
        },
        {
          "duration": 0.6677104687500091,
          "durationTicks": 494,
          "midi": 65,
          "name": "F4",
          "ticks": 40016,
          "time": 54.087251249999994,
          "velocity": 1
        },
        {
          "duration": 0.6460842187499978,
          "durationTicks": 478,
          "midi": 61,
          "name": "C#4",
          "ticks": 40018,
          "time": 54.08995453125,
          "velocity": 1
        },
        {
          "duration": 0.6352710937499992,
          "durationTicks": 470,
          "midi": 54,
          "name": "F#3",
          "ticks": 40018,
          "time": 54.08995453125,
          "velocity": 1
        },
        {
          "duration": 0.6352710937499992,
          "durationTicks": 470,
          "midi": 58,
          "name": "A#3",
          "ticks": 40018,
          "time": 54.08995453125,
          "velocity": 1
        },
        {
          "duration": 0.5947218749999976,
          "durationTicks": 440,
          "midi": 61,
          "name": "C#4",
          "ticks": 45390,
          "time": 61.35096796875,
          "velocity": 1
        },
        {
          "duration": 0.6271612500000003,
          "durationTicks": 464,
          "midi": 65,
          "name": "F4",
          "ticks": 45390,
          "time": 61.35096796875,
          "velocity": 1
        },
        {
          "duration": 0.600128437500004,
          "durationTicks": 444,
          "midi": 58,
          "name": "A#3",
          "ticks": 45390,
          "time": 61.35096796875,
          "velocity": 1
        },
        {
          "duration": 0.5974251562500044,
          "durationTicks": 442,
          "midi": 54,
          "name": "F#3",
          "ticks": 45390,
          "time": 61.35096796875,
          "velocity": 1
        },
        {
          "duration": 0.7677318749999955,
          "durationTicks": 568,
          "midi": 59,
          "name": "B3",
          "ticks": 46156,
          "time": 62.3863246875,
          "velocity": 1
        },
        {
          "duration": 0.756918749999997,
          "durationTicks": 560,
          "midi": 56,
          "name": "G#3",
          "ticks": 46156,
          "time": 62.3863246875,
          "velocity": 1
        },
        {
          "duration": 0.7812482812500008,
          "durationTicks": 578,
          "midi": 66,
          "name": "F#4",
          "ticks": 46156,
          "time": 62.3863246875,
          "velocity": 1
        },
        {
          "duration": 0.7542154687500044,
          "durationTicks": 558,
          "midi": 63,
          "name": "D#4",
          "ticks": 46156,
          "time": 62.3863246875,
          "velocity": 1
        },
        {
          "duration": 0.5433595312500046,
          "durationTicks": 402,
          "midi": 66,
          "name": "F#4",
          "ticks": 51532,
          "time": 69.65274468749999,
          "velocity": 1
        },
        {
          "duration": 0.5244365625000142,
          "durationTicks": 388,
          "midi": 63,
          "name": "D#4",
          "ticks": 51532,
          "time": 69.65274468749999,
          "velocity": 1
        },
        {
          "duration": 0.5082168750000164,
          "durationTicks": 376,
          "midi": 56,
          "name": "G#3",
          "ticks": 51532,
          "time": 69.65274468749999,
          "velocity": 1
        },
        {
          "duration": 0.5136234375000157,
          "durationTicks": 380,
          "midi": 59,
          "name": "B3",
          "ticks": 51532,
          "time": 69.65274468749999,
          "velocity": 1
        },
        {
          "duration": 0.8109843750000039,
          "durationTicks": 600,
          "midi": 58,
          "name": "A#3",
          "ticks": 52300,
          "time": 70.69080468749999,
          "velocity": 1
        },
        {
          "duration": 0.8353139062500077,
          "durationTicks": 618,
          "midi": 65,
          "name": "F4",
          "ticks": 52300,
          "time": 70.69080468749999,
          "velocity": 1
        },
        {
          "duration": 0.8055778125000046,
          "durationTicks": 596,
          "midi": 61,
          "name": "C#4",
          "ticks": 52300,
          "time": 70.69080468749999,
          "velocity": 1
        },
        {
          "duration": 0.8055778125000046,
          "durationTicks": 596,
          "midi": 54,
          "name": "F#3",
          "ticks": 52300,
          "time": 70.69080468749999,
          "velocity": 1
        },
        {
          "duration": 0.502810312500003,
          "durationTicks": 372,
          "midi": 60,
          "name": "C4",
          "ticks": 58448,
          "time": 79.00069125,
          "velocity": 1
        },
        {
          "duration": 0.5136234374999873,
          "durationTicks": 380,
          "midi": 57,
          "name": "A3",
          "ticks": 58448,
          "time": 79.00069125,
          "velocity": 1
        },
        {
          "duration": 0.5271398437500068,
          "durationTicks": 390,
          "midi": 67,
          "name": "G4",
          "ticks": 58448,
          "time": 79.00069125,
          "velocity": 1
        },
        {
          "duration": 0.5001070312499962,
          "durationTicks": 370,
          "midi": 64,
          "name": "E4",
          "ticks": 58448,
          "time": 79.00069125,
          "velocity": 1
        },
        {
          "duration": 0.5055135937500097,
          "durationTicks": 374,
          "midi": 61,
          "name": "C#4",
          "ticks": 59982,
          "time": 81.07410796875,
          "velocity": 1
        },
        {
          "duration": 0.516326718749994,
          "durationTicks": 382,
          "midi": 58,
          "name": "A#3",
          "ticks": 59982,
          "time": 81.07410796875,
          "velocity": 1
        },
        {
          "duration": 0.5298431249999993,
          "durationTicks": 392,
          "midi": 68,
          "name": "G#4",
          "ticks": 59982,
          "time": 81.07410796875,
          "velocity": 1
        },
        {
          "duration": 0.502810312500003,
          "durationTicks": 372,
          "midi": 65,
          "name": "F4",
          "ticks": 59982,
          "time": 81.07410796875,
          "velocity": 1
        },
        {
          "duration": 0.5379529687500053,
          "durationTicks": 398,
          "midi": 58,
          "name": "A#3",
          "ticks": 65356,
          "time": 88.33782468749999,
          "velocity": 1
        },
        {
          "duration": 0.5325464062499918,
          "durationTicks": 394,
          "midi": 61,
          "name": "C#4",
          "ticks": 65358,
          "time": 88.34052796875,
          "velocity": 1
        },
        {
          "duration": 0.5271398437500068,
          "durationTicks": 390,
          "midi": 65,
          "name": "F4",
          "ticks": 65358,
          "time": 88.34052796875,
          "velocity": 1
        },
        {
          "duration": 0.5649857812500017,
          "durationTicks": 418,
          "midi": 68,
          "name": "G#4",
          "ticks": 65358,
          "time": 88.34052796875,
          "velocity": 1
        },
        {
          "duration": 0.6650071874999952,
          "durationTicks": 492,
          "midi": 67,
          "name": "G4",
          "ticks": 66128,
          "time": 89.38129125,
          "velocity": 1
        },
        {
          "duration": 0.6487874999999974,
          "durationTicks": 480,
          "midi": 63,
          "name": "D#4",
          "ticks": 66128,
          "time": 89.38129125,
          "velocity": 1
        },
        {
          "duration": 0.6379743749999989,
          "durationTicks": 472,
          "midi": 56,
          "name": "G#3",
          "ticks": 66128,
          "time": 89.38129125,
          "velocity": 1
        },
        {
          "duration": 0.6379743749999989,
          "durationTicks": 472,
          "midi": 60,
          "name": "C4",
          "ticks": 66128,
          "time": 89.38129125,
          "velocity": 1
        },
        {
          "duration": 0.592018593749998,
          "durationTicks": 438,
          "midi": 63,
          "name": "D#4",
          "ticks": 71502,
          "time": 96.64500796875,
          "velocity": 1
        },
        {
          "duration": 0.6271612500000145,
          "durationTicks": 464,
          "midi": 67,
          "name": "G4",
          "ticks": 71502,
          "time": 96.64500796875,
          "velocity": 1
        },
        {
          "duration": 0.600128437500004,
          "durationTicks": 444,
          "midi": 60,
          "name": "C4",
          "ticks": 71502,
          "time": 96.64500796875,
          "velocity": 1
        },
        {
          "duration": 0.5974251562499973,
          "durationTicks": 442,
          "midi": 56,
          "name": "G#3",
          "ticks": 71502,
          "time": 96.64500796875,
          "velocity": 1
        },
        {
          "duration": 0.7677318750000097,
          "durationTicks": 568,
          "midi": 61,
          "name": "C#4",
          "ticks": 72268,
          "time": 97.68036468749999,
          "velocity": 1
        },
        {
          "duration": 0.7569187500000112,
          "durationTicks": 560,
          "midi": 58,
          "name": "A#3",
          "ticks": 72268,
          "time": 97.68036468749999,
          "velocity": 1
        },
        {
          "duration": 0.781248281250015,
          "durationTicks": 578,
          "midi": 68,
          "name": "G#4",
          "ticks": 72268,
          "time": 97.68036468749999,
          "velocity": 1
        },
        {
          "duration": 0.7542154687500044,
          "durationTicks": 558,
          "midi": 65,
          "name": "F4",
          "ticks": 72268,
          "time": 97.68036468749999,
          "velocity": 1
        },
        {
          "duration": 0.5433595312499904,
          "durationTicks": 402,
          "midi": 68,
          "name": "G#4",
          "ticks": 77644,
          "time": 104.9467846875,
          "velocity": 1
        },
        {
          "duration": 0.5244365625,
          "durationTicks": 388,
          "midi": 65,
          "name": "F4",
          "ticks": 77644,
          "time": 104.9467846875,
          "velocity": 1
        },
        {
          "duration": 0.5082168750000022,
          "durationTicks": 376,
          "midi": 58,
          "name": "A#3",
          "ticks": 77644,
          "time": 104.9467846875,
          "velocity": 1
        },
        {
          "duration": 0.5136234375000015,
          "durationTicks": 380,
          "midi": 61,
          "name": "C#4",
          "ticks": 77644,
          "time": 104.9467846875,
          "velocity": 1
        },
        {
          "duration": 0.8109843749999897,
          "durationTicks": 600,
          "midi": 60,
          "name": "C4",
          "ticks": 78410,
          "time": 105.98214140625001,
          "velocity": 1
        },
        {
          "duration": 0.8353139062499935,
          "durationTicks": 618,
          "midi": 67,
          "name": "G4",
          "ticks": 78410,
          "time": 105.98214140625001,
          "velocity": 1
        },
        {
          "duration": 0.8055778124999904,
          "durationTicks": 596,
          "midi": 63,
          "name": "D#4",
          "ticks": 78410,
          "time": 105.98214140625001,
          "velocity": 1
        },
        {
          "duration": 0.8082810937499829,
          "durationTicks": 598,
          "midi": 56,
          "name": "G#3",
          "ticks": 78410,
          "time": 105.98214140625001,
          "velocity": 1
        },
        {
          "duration": 0.6082382812499958,
          "durationTicks": 450,
          "midi": 67,
          "name": "G4",
          "ticks": 83788,
          "time": 113.2512646875,
          "velocity": 1
        },
        {
          "duration": 0.5757989062500002,
          "durationTicks": 426,
          "midi": 63,
          "name": "D#4",
          "ticks": 83788,
          "time": 113.2512646875,
          "velocity": 1
        },
        {
          "duration": 0.5812054687499995,
          "durationTicks": 430,
          "midi": 60,
          "name": "C4",
          "ticks": 83788,
          "time": 113.2512646875,
          "velocity": 1
        },
        {
          "duration": 0.5812054687499995,
          "durationTicks": 430,
          "midi": 56,
          "name": "G#3",
          "ticks": 83788,
          "time": 113.2512646875,
          "velocity": 1
        },
        {
          "duration": 0.5055135937500097,
          "durationTicks": 374,
          "midi": 61,
          "name": "C#4",
          "ticks": 84558,
          "time": 114.29202796874999,
          "velocity": 1
        },
        {
          "duration": 0.5163267187500082,
          "durationTicks": 382,
          "midi": 58,
          "name": "A#3",
          "ticks": 84558,
          "time": 114.29202796874999,
          "velocity": 1
        },
        {
          "duration": 0.5298431250000135,
          "durationTicks": 392,
          "midi": 68,
          "name": "G#4",
          "ticks": 84558,
          "time": 114.29202796874999,
          "velocity": 1
        },
        {
          "duration": 0.502810312500003,
          "durationTicks": 372,
          "midi": 65,
          "name": "F4",
          "ticks": 84558,
          "time": 114.29202796874999,
          "velocity": 1
        },
        {
          "duration": 0.5379529687500053,
          "durationTicks": 398,
          "midi": 58,
          "name": "A#3",
          "ticks": 89932,
          "time": 121.5557446875,
          "velocity": 1
        },
        {
          "duration": 0.5325464062499918,
          "durationTicks": 394,
          "midi": 61,
          "name": "C#4",
          "ticks": 89934,
          "time": 121.55844796875,
          "velocity": 1
        },
        {
          "duration": 0.5271398437499926,
          "durationTicks": 390,
          "midi": 65,
          "name": "F4",
          "ticks": 89934,
          "time": 121.55844796875,
          "velocity": 1
        },
        {
          "duration": 0.5649857812499874,
          "durationTicks": 418,
          "midi": 68,
          "name": "G#4",
          "ticks": 89934,
          "time": 121.55844796875,
          "velocity": 1
        },
        {
          "duration": 0.6650071875000094,
          "durationTicks": 492,
          "midi": 67,
          "name": "G4",
          "ticks": 90704,
          "time": 122.59921125,
          "velocity": 1
        },
        {
          "duration": 0.6487875000000116,
          "durationTicks": 480,
          "midi": 63,
          "name": "D#4",
          "ticks": 90704,
          "time": 122.59921125,
          "velocity": 1
        },
        {
          "duration": 0.6379743749999989,
          "durationTicks": 472,
          "midi": 56,
          "name": "G#3",
          "ticks": 90704,
          "time": 122.59921125,
          "velocity": 1
        },
        {
          "duration": 0.6379743749999989,
          "durationTicks": 472,
          "midi": 60,
          "name": "C4",
          "ticks": 90704,
          "time": 122.59921125,
          "velocity": 1
        },
        {
          "duration": 0.592018593749998,
          "durationTicks": 438,
          "midi": 63,
          "name": "D#4",
          "ticks": 96078,
          "time": 129.86292796875,
          "velocity": 1
        },
        {
          "duration": 0.6271612500000003,
          "durationTicks": 464,
          "midi": 67,
          "name": "G4",
          "ticks": 96078,
          "time": 129.86292796875,
          "velocity": 1
        },
        {
          "duration": 0.6001284374999898,
          "durationTicks": 444,
          "midi": 60,
          "name": "C4",
          "ticks": 96078,
          "time": 129.86292796875,
          "velocity": 1
        },
        {
          "duration": 0.597425156249983,
          "durationTicks": 442,
          "midi": 56,
          "name": "G#3",
          "ticks": 96078,
          "time": 129.86292796875,
          "velocity": 1
        },
        {
          "duration": 0.7677318750000097,
          "durationTicks": 568,
          "midi": 61,
          "name": "C#4",
          "ticks": 96844,
          "time": 130.8982846875,
          "velocity": 1
        },
        {
          "duration": 0.7569187500000112,
          "durationTicks": 560,
          "midi": 58,
          "name": "A#3",
          "ticks": 96844,
          "time": 130.8982846875,
          "velocity": 1
        },
        {
          "duration": 0.781248281250015,
          "durationTicks": 578,
          "midi": 68,
          "name": "G#4",
          "ticks": 96844,
          "time": 130.8982846875,
          "velocity": 1
        },
        {
          "duration": 0.7542154687500044,
          "durationTicks": 558,
          "midi": 65,
          "name": "F4",
          "ticks": 96844,
          "time": 130.8982846875,
          "velocity": 1
        }
      ]
    },
    {
      "channel": 0,
      "controlChanges": {
        "7": [
          {
            "number": 7,
            "ticks": 1536,
            "time": 2.07612,
            "value": 0.5905511811023622
          }
        ],
        "10": [
          {
            "number": 10,
            "ticks": 1536,
            "time": 2.07612,
            "value": 0
          }
        ],
        "91": [
          {
            "number": 91,
            "ticks": 1536,
            "time": 2.07612,
            "value": 0.31496062992125984
          }
        ],
        "93": [
          {
            "number": 93,
            "ticks": 1536,
            "time": 2.07612,
            "value": 0.7637795275590551
          }
        ]
      },
      "pitchBends": [],
      "instrument": {
        "family": "piano",
        "number": 0,
        "name": "acoustic grand piano"
      },
      "name": "CLAVINET",
      "notes": [],
      "endOfTrackTicks": 104526
    },
    {
      "channel": 5,
      "controlChanges": {
        "64": [
          {
            "number": 64,
            "ticks": 1536,
            "time": 2.07612,
            "value": 0
          }
        ]
      },
      "pitchBends": [
        {
          "ticks": 1536,
          "time": 2.07612,
          "value": 0
        }
      ],
      "instrument": {
        "family": "piano",
        "number": 7,
        "name": "clavi"
      },
      "name": "",
      "notes": [
        {
          "duration": 0.10813124999999957,
          "durationTicks": 80,
          "midi": 58,
          "name": "A#3",
          "ticks": 33964,
          "time": 45.9071221875,
          "velocity": 0.984251968503937
        },
        {
          "duration": 0.08650499999999539,
          "durationTicks": 64,
          "midi": 56,
          "name": "G#3",
          "ticks": 34060,
          "time": 46.036879687500004,
          "velocity": 0.984251968503937
        },
        {
          "duration": 0.09191156250000176,
          "durationTicks": 68,
          "midi": 49,
          "name": "C#3",
          "ticks": 34156,
          "time": 46.1666371875,
          "velocity": 0.9133858267716536
        },
        {
          "duration": 0.09731812499999393,
          "durationTicks": 72,
          "midi": 54,
          "name": "F#3",
          "ticks": 34252,
          "time": 46.296394687500005,
          "velocity": 1
        },
        {
          "duration": 0.08650499999999539,
          "durationTicks": 64,
          "midi": 49,
          "name": "C#3",
          "ticks": 34348,
          "time": 46.4261521875,
          "velocity": 0.8818897637795275
        },
        {
          "duration": 0.08380171874999576,
          "durationTicks": 62,
          "midi": 51,
          "name": "D#3",
          "ticks": 34444,
          "time": 46.555909687500005,
          "velocity": 0.9212598425196851
        },
        {
          "duration": 0.06487874999999832,
          "durationTicks": 48,
          "midi": 44,
          "name": "G#2",
          "ticks": 34540,
          "time": 46.6856671875,
          "velocity": 0.5984251968503937
        },
        {
          "duration": 0.09191156250000176,
          "durationTicks": 68,
          "midi": 56,
          "name": "G#3",
          "ticks": 34636,
          "time": 46.8154246875,
          "velocity": 0.984251968503937
        },
        {
          "duration": 0.08920828125000213,
          "durationTicks": 66,
          "midi": 44,
          "name": "G#2",
          "ticks": 34732,
          "time": 46.9451821875,
          "velocity": 0.8976377952755905
        },
        {
          "duration": 0.0946148437500014,
          "durationTicks": 70,
          "midi": 54,
          "name": "F#3",
          "ticks": 34828,
          "time": 47.0749396875,
          "velocity": 0.9448818897637795
        },
        {
          "duration": 0.08650499999999539,
          "durationTicks": 64,
          "midi": 44,
          "name": "G#2",
          "ticks": 34924,
          "time": 47.2046971875,
          "velocity": 0.8818897637795275
        },
        {
          "duration": 0.11624109374999847,
          "durationTicks": 86,
          "midi": 56,
          "name": "G#3",
          "ticks": 35020,
          "time": 47.3344546875,
          "velocity": 1
        },
        {
          "duration": 0.09461484374999429,
          "durationTicks": 70,
          "midi": 54,
          "name": "F#3",
          "ticks": 35116,
          "time": 47.4642121875,
          "velocity": 0.8818897637795275
        },
        {
          "duration": 0.07028531249999759,
          "durationTicks": 52,
          "midi": 44,
          "name": "G#2",
          "ticks": 35212,
          "time": 47.5939696875,
          "velocity": 0.8582677165354331
        },
        {
          "duration": 0.09191156249999466,
          "durationTicks": 68,
          "midi": 51,
          "name": "D#3",
          "ticks": 35308,
          "time": 47.7237271875,
          "velocity": 0.9606299212598425
        },
        {
          "duration": 0.09461484374999429,
          "durationTicks": 70,
          "midi": 44,
          "name": "G#2",
          "ticks": 35404,
          "time": 47.8534846875,
          "velocity": 0.8503937007874016
        },
        {
          "duration": 0.11353781249999884,
          "durationTicks": 84,
          "midi": 58,
          "name": "A#3",
          "ticks": 35500,
          "time": 47.983242187500004,
          "velocity": 0.984251968503937
        },
        {
          "duration": 0.08920828125000213,
          "durationTicks": 66,
          "midi": 56,
          "name": "G#3",
          "ticks": 35596,
          "time": 48.1129996875,
          "velocity": 0.9448818897637795
        },
        {
          "duration": 0.07569187499999686,
          "durationTicks": 56,
          "midi": 51,
          "name": "D#3",
          "ticks": 35692,
          "time": 48.242757187500004,
          "velocity": 0.9133858267716536
        },
        {
          "duration": 0.10002140625000067,
          "durationTicks": 74,
          "midi": 54,
          "name": "F#3",
          "ticks": 35788,
          "time": 48.3725146875,
          "velocity": 0.984251968503937
        },
        {
          "duration": 0.08920828124999503,
          "durationTicks": 66,
          "midi": 44,
          "name": "G#2",
          "ticks": 35884,
          "time": 48.502272187500004,
          "velocity": 0.9133858267716536
        },
        {
          "duration": 0.09191156249999466,
          "durationTicks": 68,
          "midi": 51,
          "name": "D#3",
          "ticks": 35980,
          "time": 48.6320296875,
          "velocity": 0.9133858267716536
        },
        {
          "duration": 0.10002140624999356,
          "durationTicks": 74,
          "midi": 44,
          "name": "G#2",
          "ticks": 36076,
          "time": 48.761787187500005,
          "velocity": 0.8818897637795275
        },
        {
          "duration": 0.09461484374999429,
          "durationTicks": 70,
          "midi": 56,
          "name": "G#3",
          "ticks": 36172,
          "time": 48.8915446875,
          "velocity": 1
        },
        {
          "duration": 0.10002140625000067,
          "durationTicks": 74,
          "midi": 44,
          "name": "G#2",
          "ticks": 36268,
          "time": 49.0213021875,
          "velocity": 0.9133858267716536
        },
        {
          "duration": 0.09461484374999429,
          "durationTicks": 70,
          "midi": 54,
          "name": "F#3",
          "ticks": 36364,
          "time": 49.1510596875,
          "velocity": 0.9606299212598425
        },
        {
          "duration": 0.09731812500000103,
          "durationTicks": 72,
          "midi": 44,
          "name": "G#2",
          "ticks": 36460,
          "time": 49.2808171875,
          "velocity": 0.8976377952755905
        },
        {
          "duration": 0.10542796874999993,
          "durationTicks": 78,
          "midi": 56,
          "name": "G#3",
          "ticks": 36556,
          "time": 49.4105746875,
          "velocity": 0.9212598425196851
        },
        {
          "duration": 0.08920828125000213,
          "durationTicks": 66,
          "midi": 54,
          "name": "F#3",
          "ticks": 36652,
          "time": 49.5403321875,
          "velocity": 0.8503937007874016
        },
        {
          "duration": 0.07839515624999649,
          "durationTicks": 58,
          "midi": 44,
          "name": "G#2",
          "ticks": 36748,
          "time": 49.6700896875,
          "velocity": 0.9133858267716536
        },
        {
          "duration": 0.08380171875000286,
          "durationTicks": 62,
          "midi": 51,
          "name": "D#3",
          "ticks": 36844,
          "time": 49.7998471875,
          "velocity": 0.984251968503937
        },
        {
          "duration": 0.10002140624999356,
          "durationTicks": 74,
          "midi": 44,
          "name": "G#2",
          "ticks": 36940,
          "time": 49.9296046875,
          "velocity": 0.8976377952755905
        },
        {
          "duration": 0.10813124999999957,
          "durationTicks": 80,
          "midi": 58,
          "name": "A#3",
          "ticks": 37036,
          "time": 50.0593621875,
          "velocity": 0.968503937007874
        },
        {
          "duration": 0.08109843749999612,
          "durationTicks": 60,
          "midi": 56,
          "name": "G#3",
          "ticks": 37132,
          "time": 50.1891196875,
          "velocity": 0.9606299212598425
        },
        {
          "duration": 0.07569187499999686,
          "durationTicks": 56,
          "midi": 51,
          "name": "D#3",
          "ticks": 37228,
          "time": 50.3188771875,
          "velocity": 0.9133858267716536
        },
        {
          "duration": 0.10002140624999356,
          "durationTicks": 74,
          "midi": 54,
          "name": "F#3",
          "ticks": 37324,
          "time": 50.448634687500004,
          "velocity": 0.9606299212598425
        },
        {
          "duration": 0.1108345312499992,
          "durationTicks": 82,
          "midi": 44,
          "name": "G#2",
          "ticks": 37420,
          "time": 50.5783921875,
          "velocity": 0.9212598425196851
        },
        {
          "duration": 0.10002140624999356,
          "durationTicks": 74,
          "midi": 51,
          "name": "D#3",
          "ticks": 37516,
          "time": 50.708149687500004,
          "velocity": 0.9606299212598425
        },
        {
          "duration": 0.06758203124999795,
          "durationTicks": 50,
          "midi": 51,
          "name": "D#3",
          "ticks": 37612,
          "time": 50.8379071875,
          "velocity": 0.8031496062992126
        },
        {
          "duration": 0.1027246874999932,
          "durationTicks": 76,
          "midi": 56,
          "name": "G#3",
          "ticks": 37708,
          "time": 50.967664687500005,
          "velocity": 0.968503937007874
        },
        {
          "duration": 0.10002140625000067,
          "durationTicks": 74,
          "midi": 44,
          "name": "G#2",
          "ticks": 37804,
          "time": 51.0974221875,
          "velocity": 0.9133858267716536
        },
        {
          "duration": 0.09461484374999429,
          "durationTicks": 70,
          "midi": 54,
          "name": "F#3",
          "ticks": 37900,
          "time": 51.227179687500005,
          "velocity": 0.9212598425196851
        },
        {
          "duration": 0.08650499999999539,
          "durationTicks": 64,
          "midi": 51,
          "name": "D#3",
          "ticks": 37996,
          "time": 51.3569371875,
          "velocity": 0.9133858267716536
        },
        {
          "duration": 0.1108345312499992,
          "durationTicks": 82,
          "midi": 56,
          "name": "G#3",
          "ticks": 38092,
          "time": 51.4866946875,
          "velocity": 0.984251968503937
        },
        {
          "duration": 0.08380171874999576,
          "durationTicks": 62,
          "midi": 54,
          "name": "F#3",
          "ticks": 38188,
          "time": 51.6164521875,
          "velocity": 0.8267716535433071
        },
        {
          "duration": 0.07028531249999759,
          "durationTicks": 52,
          "midi": 44,
          "name": "G#2",
          "ticks": 38284,
          "time": 51.7462096875,
          "velocity": 0.889763779527559
        },
        {
          "duration": 0.08650499999999539,
          "durationTicks": 64,
          "midi": 51,
          "name": "D#3",
          "ticks": 38380,
          "time": 51.8759671875,
          "velocity": 0.9606299212598425
        },
        {
          "duration": 0.08920828125000213,
          "durationTicks": 66,
          "midi": 44,
          "name": "G#2",
          "ticks": 38476,
          "time": 52.0057246875,
          "velocity": 0.8976377952755905
        },
        {
          "duration": 0.11624109374999847,
          "durationTicks": 86,
          "midi": 58,
          "name": "A#3",
          "ticks": 38572,
          "time": 52.1354821875,
          "velocity": 0.984251968503937
        },
        {
          "duration": 0.08650499999999539,
          "durationTicks": 64,
          "midi": 56,
          "name": "G#3",
          "ticks": 38668,
          "time": 52.2652396875,
          "velocity": 0.984251968503937
        },
        {
          "duration": 0.08109843749999612,
          "durationTicks": 60,
          "midi": 51,
          "name": "D#3",
          "ticks": 38764,
          "time": 52.3949971875,
          "velocity": 0.9291338582677166
        },
        {
          "duration": 0.10002140625000067,
          "durationTicks": 74,
          "midi": 54,
          "name": "F#3",
          "ticks": 38860,
          "time": 52.5247546875,
          "velocity": 0.9448818897637795
        },
        {
          "duration": 0.09191156249999466,
          "durationTicks": 68,
          "midi": 44,
          "name": "G#2",
          "ticks": 38956,
          "time": 52.6545121875,
          "velocity": 0.9133858267716536
        },
        {
          "duration": 0.09461484374999429,
          "durationTicks": 70,
          "midi": 51,
          "name": "D#3",
          "ticks": 39052,
          "time": 52.7842696875,
          "velocity": 0.9448818897637795
        },
        {
          "duration": 0.09191156249999466,
          "durationTicks": 68,
          "midi": 44,
          "name": "G#2",
          "ticks": 39148,
          "time": 52.914027187500004,
          "velocity": 0.8976377952755905
        },
        {
          "duration": 0.09461484374999429,
          "durationTicks": 70,
          "midi": 56,
          "name": "G#3",
          "ticks": 39244,
          "time": 53.0437846875,
          "velocity": 0.984251968503937
        },
        {
          "duration": 0.09461484374999429,
          "durationTicks": 70,
          "midi": 44,
          "name": "G#2",
          "ticks": 39340,
          "time": 53.173542187500004,
          "velocity": 0.9133858267716536
        },
        {
          "duration": 0.10002140625000067,
          "durationTicks": 74,
          "midi": 54,
          "name": "F#3",
          "ticks": 39436,
          "time": 53.3032996875,
          "velocity": 0.9606299212598425
        },
        {
          "duration": 0.10002140624999356,
          "durationTicks": 74,
          "midi": 44,
          "name": "G#2",
          "ticks": 39532,
          "time": 53.433057187500005,
          "velocity": 0.8976377952755905
        },
        {
          "duration": 0.13246078124999627,
          "durationTicks": 98,
          "midi": 58,
          "name": "A#3",
          "ticks": 39628,
          "time": 53.5628146875,
          "velocity": 1
        },
        {
          "duration": 0.11353781249999884,
          "durationTicks": 84,
          "midi": 56,
          "name": "G#3",
          "ticks": 39724,
          "time": 53.692572187500005,
          "velocity": 0.9448818897637795
        },
        {
          "duration": 0.09191156249999466,
          "durationTicks": 68,
          "midi": 44,
          "name": "G#2",
          "ticks": 39820,
          "time": 53.8223296875,
          "velocity": 0.9133858267716536
        },
        {
          "duration": 0.0946148437500014,
          "durationTicks": 70,
          "midi": 51,
          "name": "D#3",
          "ticks": 39916,
          "time": 53.9520871875,
          "velocity": 0.9606299212598425
        },
        {
          "duration": 0.10813124999999957,
          "durationTicks": 80,
          "midi": 39,
          "name": "D#2",
          "ticks": 40012,
          "time": 54.0818446875,
          "velocity": 0.9133858267716536
        },
        {
          "duration": 0.1027246875000003,
          "durationTicks": 76,
          "midi": 58,
          "name": "A#3",
          "ticks": 40108,
          "time": 54.2116021875,
          "velocity": 0.984251968503937
        },
        {
          "duration": 0.09731812500000103,
          "durationTicks": 72,
          "midi": 56,
          "name": "G#3",
          "ticks": 40204,
          "time": 54.3413596875,
          "velocity": 0.9133858267716536
        },
        {
          "duration": 0.08109843750000323,
          "durationTicks": 60,
          "midi": 51,
          "name": "D#3",
          "ticks": 40300,
          "time": 54.4711171875,
          "velocity": 0.8031496062992126
        },
        {
          "duration": 0.10002140624999356,
          "durationTicks": 74,
          "midi": 54,
          "name": "F#3",
          "ticks": 40396,
          "time": 54.6008746875,
          "velocity": 0.984251968503937
        },
        {
          "duration": 0.08109843750000323,
          "durationTicks": 60,
          "midi": 46,
          "name": "A#2",
          "ticks": 40492,
          "time": 54.7306321875,
          "velocity": 0.8818897637795275
        },
        {
          "duration": 0.08920828124999503,
          "durationTicks": 66,
          "midi": 51,
          "name": "D#3",
          "ticks": 40588,
          "time": 54.8603896875,
          "velocity": 0.9448818897637795
        },
        {
          "duration": 0.07839515624999649,
          "durationTicks": 58,
          "midi": 46,
          "name": "A#2",
          "ticks": 40684,
          "time": 54.9901471875,
          "velocity": 0.8582677165354331
        },
        {
          "duration": 0.10542796874999993,
          "durationTicks": 78,
          "midi": 56,
          "name": "G#3",
          "ticks": 40780,
          "time": 55.119904687500004,
          "velocity": 0.9448818897637795
        },
        {
          "duration": 0.08920828125000213,
          "durationTicks": 66,
          "midi": 46,
          "name": "A#2",
          "ticks": 40876,
          "time": 55.2496621875,
          "velocity": 0.889763779527559
        },
        {
          "duration": 0.09191156249999466,
          "durationTicks": 68,
          "midi": 54,
          "name": "F#3",
          "ticks": 40972,
          "time": 55.379419687500004,
          "velocity": 0.984251968503937
        },
        {
          "duration": 0.09461484374999429,
          "durationTicks": 70,
          "midi": 46,
          "name": "A#2",
          "ticks": 41068,
          "time": 55.5091771875,
          "velocity": 0.905511811023622
        },
        {
          "duration": 0.118944374999991,
          "durationTicks": 88,
          "midi": 56,
          "name": "G#3",
          "ticks": 41164,
          "time": 55.638934687500004,
          "velocity": 1
        },
        {
          "duration": 0.09191156249999466,
          "durationTicks": 68,
          "midi": 54,
          "name": "F#3",
          "ticks": 41260,
          "time": 55.7686921875,
          "velocity": 0.8267716535433071
        },
        {
          "duration": 0.10542796874999993,
          "durationTicks": 78,
          "midi": 49,
          "name": "C#3",
          "ticks": 41356,
          "time": 55.898449687500005,
          "velocity": 0.8188976377952756
        },
        {
          "duration": 0.08380171874999576,
          "durationTicks": 62,
          "midi": 51,
          "name": "D#3",
          "ticks": 41452,
          "time": 56.0282071875,
          "velocity": 0.984251968503937
        },
        {
          "duration": 0.07569187500000396,
          "durationTicks": 56,
          "midi": 39,
          "name": "D#2",
          "ticks": 41548,
          "time": 56.1579646875,
          "velocity": 0.8503937007874016
        },
        {
          "duration": 0.09461484374999429,
          "durationTicks": 70,
          "midi": 58,
          "name": "A#3",
          "ticks": 41644,
          "time": 56.2877221875,
          "velocity": 1
        },
        {
          "duration": 0.08920828125000213,
          "durationTicks": 66,
          "midi": 56,
          "name": "G#3",
          "ticks": 41740,
          "time": 56.4174796875,
          "velocity": 0.9133858267716536
        },
        {
          "duration": 0.07028531249999759,
          "durationTicks": 52,
          "midi": 51,
          "name": "D#3",
          "ticks": 41836,
          "time": 56.5472371875,
          "velocity": 0.7244094488188977
        },
        {
          "duration": 0.09461484374999429,
          "durationTicks": 70,
          "midi": 54,
          "name": "F#3",
          "ticks": 41932,
          "time": 56.6769946875,
          "velocity": 0.9448818897637795
        },
        {
          "duration": 0.08380171874999576,
          "durationTicks": 62,
          "midi": 46,
          "name": "A#2",
          "ticks": 42028,
          "time": 56.8067521875,
          "velocity": 0.8267716535433071
        },
        {
          "duration": 0.09191156250000176,
          "durationTicks": 68,
          "midi": 51,
          "name": "D#3",
          "ticks": 42124,
          "time": 56.9365096875,
          "velocity": 0.984251968503937
        },
        {
          "duration": 0.08650499999999539,
          "durationTicks": 64,
          "midi": 49,
          "name": "C#3",
          "ticks": 42220,
          "time": 57.0662671875,
          "velocity": 0.8818897637795275
        },
        {
          "duration": 0.1027246875000003,
          "durationTicks": 76,
          "midi": 56,
          "name": "G#3",
          "ticks": 42316,
          "time": 57.1960246875,
          "velocity": 0.9448818897637795
        },
        {
          "duration": 0.08109843749999612,
          "durationTicks": 60,
          "midi": 46,
          "name": "A#2",
          "ticks": 42412,
          "time": 57.3257821875,
          "velocity": 0.8267716535433071
        },
        {
          "duration": 0.09461484374999429,
          "durationTicks": 70,
          "midi": 54,
          "name": "F#3",
          "ticks": 42508,
          "time": 57.4555396875,
          "velocity": 0.9448818897637795
        },
        {
          "duration": 0.10542796874999993,
          "durationTicks": 78,
          "midi": 49,
          "name": "C#3",
          "ticks": 42604,
          "time": 57.585297187500004,
          "velocity": 0.8818897637795275
        },
        {
          "duration": 0.12435093749999737,
          "durationTicks": 92,
          "midi": 56,
          "name": "G#3",
          "ticks": 42700,
          "time": 57.7150546875,
          "velocity": 0.984251968503937
        },
        {
          "duration": 0.09461484374999429,
          "durationTicks": 70,
          "midi": 54,
          "name": "F#3",
          "ticks": 42796,
          "time": 57.844812187500004,
          "velocity": 0.8503937007874016
        },
        {
          "duration": 0.07569187499999686,
          "durationTicks": 56,
          "midi": 46,
          "name": "A#2",
          "ticks": 42892,
          "time": 57.9745696875,
          "velocity": 0.8582677165354331
        },
        {
          "duration": 0.09191156249999466,
          "durationTicks": 68,
          "midi": 51,
          "name": "D#3",
          "ticks": 42988,
          "time": 58.104327187500004,
          "velocity": 0.984251968503937
        },
        {
          "duration": 0.10813124999999957,
          "durationTicks": 80,
          "midi": 39,
          "name": "D#2",
          "ticks": 43084,
          "time": 58.2340846875,
          "velocity": 0.9606299212598425
        },
        {
          "duration": 0.11353781249999884,
          "durationTicks": 84,
          "midi": 58,
          "name": "A#3",
          "ticks": 43180,
          "time": 58.363842187500005,
          "velocity": 0.984251968503937
        },
        {
          "duration": 0.08380171874999576,
          "durationTicks": 62,
          "midi": 56,
          "name": "G#3",
          "ticks": 43276,
          "time": 58.4935996875,
          "velocity": 0.9133858267716536
        },
        {
          "duration": 0.09191156250000176,
          "durationTicks": 68,
          "midi": 46,
          "name": "A#2",
          "ticks": 43372,
          "time": 58.6233571875,
          "velocity": 0.8110236220472441
        },
        {
          "duration": 0.09731812500000103,
          "durationTicks": 72,
          "midi": 54,
          "name": "F#3",
          "ticks": 43468,
          "time": 58.7531146875,
          "velocity": 0.9212598425196851
        },
        {
          "duration": 0.04595578125000088,
          "durationTicks": 34,
          "midi": 51,
          "name": "D#3",
          "ticks": 43564,
          "time": 58.8828721875,
          "velocity": 0.8110236220472441
        },
        {
          "duration": 0.10002140624999356,
          "durationTicks": 74,
          "midi": 51,
          "name": "D#3",
          "ticks": 43660,
          "time": 59.0126296875,
          "velocity": 0.968503937007874
        },
        {
          "duration": 0.09191156250000176,
          "durationTicks": 68,
          "midi": 46,
          "name": "A#2",
          "ticks": 43756,
          "time": 59.1423871875,
          "velocity": 0.9133858267716536
        },
        {
          "duration": 0.09731812500000103,
          "durationTicks": 72,
          "midi": 56,
          "name": "G#3",
          "ticks": 43852,
          "time": 59.2721446875,
          "velocity": 0.9448818897637795
        },
        {
          "duration": 0.10002140625000067,
          "durationTicks": 74,
          "midi": 51,
          "name": "D#3",
          "ticks": 43948,
          "time": 59.4019021875,
          "velocity": 0.9133858267716536
        },
        {
          "duration": 0.10542796874999993,
          "durationTicks": 78,
          "midi": 54,
          "name": "F#3",
          "ticks": 44044,
          "time": 59.5316596875,
          "velocity": 0.984251968503937
        },
        {
          "duration": 0.07839515624999649,
          "durationTicks": 58,
          "midi": 46,
          "name": "A#2",
          "ticks": 44140,
          "time": 59.6614171875,
          "velocity": 0.7716535433070866
        },
        {
          "duration": 0.11624109374999847,
          "durationTicks": 86,
          "midi": 56,
          "name": "G#3",
          "ticks": 44236,
          "time": 59.7911746875,
          "velocity": 0.984251968503937
        },
        {
          "duration": 0.08920828125000213,
          "durationTicks": 66,
          "midi": 54,
          "name": "F#3",
          "ticks": 44332,
          "time": 59.9209321875,
          "velocity": 0.8503937007874016
        },
        {
          "duration": 0.09191156249999466,
          "durationTicks": 68,
          "midi": 51,
          "name": "D#3",
          "ticks": 44428,
          "time": 60.050689687500004,
          "velocity": 0.8976377952755905
        },
        {
          "duration": 0.09461484374999429,
          "durationTicks": 70,
          "midi": 51,
          "name": "D#3",
          "ticks": 44524,
          "time": 60.1804471875,
          "velocity": 0.9606299212598425
        },
        {
          "duration": 0.1027246874999932,
          "durationTicks": 76,
          "midi": 39,
          "name": "D#2",
          "ticks": 44620,
          "time": 60.310204687500004,
          "velocity": 0.9212598425196851
        },
        {
          "duration": 0.10542796874999993,
          "durationTicks": 78,
          "midi": 58,
          "name": "A#3",
          "ticks": 44716,
          "time": 60.4399621875,
          "velocity": 0.968503937007874
        },
        {
          "duration": 0.08109843749999612,
          "durationTicks": 60,
          "midi": 56,
          "name": "G#3",
          "ticks": 44812,
          "time": 60.569719687500005,
          "velocity": 0.8740157480314961
        },
        {
          "duration": 0.10002140625000067,
          "durationTicks": 74,
          "midi": 51,
          "name": "D#3",
          "ticks": 44908,
          "time": 60.6994771875,
          "velocity": 0.8818897637795275
        },
        {
          "duration": 0.1108345312499921,
          "durationTicks": 82,
          "midi": 58,
          "name": "A#3",
          "ticks": 45004,
          "time": 60.829234687500005,
          "velocity": 1
        },
        {
          "duration": 0.11353781249999884,
          "durationTicks": 84,
          "midi": 51,
          "name": "D#3",
          "ticks": 45100,
          "time": 60.9589921875,
          "velocity": 0.8976377952755905
        },
        {
          "duration": 0.1108345312499992,
          "durationTicks": 82,
          "midi": 56,
          "name": "G#3",
          "ticks": 45196,
          "time": 61.0887496875,
          "velocity": 0.9606299212598425
        },
        {
          "duration": 0.1108345312499921,
          "durationTicks": 82,
          "midi": 51,
          "name": "D#3",
          "ticks": 45292,
          "time": 61.2185071875,
          "velocity": 0.9133858267716536
        },
        {
          "duration": 0.1189443749999981,
          "durationTicks": 88,
          "midi": 58,
          "name": "A#3",
          "ticks": 45388,
          "time": 61.3482646875,
          "velocity": 0.984251968503937
        },
        {
          "duration": 0.09461484374999429,
          "durationTicks": 70,
          "midi": 51,
          "name": "D#3",
          "ticks": 45484,
          "time": 61.4780221875,
          "velocity": 0.8818897637795275
        },
        {
          "duration": 0.1027246875000003,
          "durationTicks": 76,
          "midi": 56,
          "name": "G#3",
          "ticks": 45580,
          "time": 61.6077796875,
          "velocity": 0.984251968503937
        },
        {
          "duration": 0.10542796874999993,
          "durationTicks": 78,
          "midi": 51,
          "name": "D#3",
          "ticks": 45676,
          "time": 61.7375371875,
          "velocity": 0.8818897637795275
        },
        {
          "duration": 0.1189443749999981,
          "durationTicks": 88,
          "midi": 58,
          "name": "A#3",
          "ticks": 45772,
          "time": 61.8672946875,
          "velocity": 1
        },
        {
          "duration": 0.14057062499999518,
          "durationTicks": 104,
          "midi": 51,
          "name": "D#3",
          "ticks": 45868,
          "time": 61.9970521875,
          "velocity": 0.9212598425196851
        },
        {
          "duration": 0.09461484374999429,
          "durationTicks": 70,
          "midi": 56,
          "name": "G#3",
          "ticks": 45964,
          "time": 62.1268096875,
          "velocity": 0.984251968503937
        },
        {
          "duration": 0.10813124999999246,
          "durationTicks": 80,
          "midi": 58,
          "name": "A#3",
          "ticks": 46060,
          "time": 62.2565671875,
          "velocity": 1
        },
        {
          "duration": 0.05947218749999905,
          "durationTicks": 44,
          "midi": 39,
          "name": "D#2",
          "ticks": 46156,
          "time": 62.3863246875,
          "velocity": 0.8976377952755905
        },
        {
          "duration": 0.04595578124999378,
          "durationTicks": 34,
          "midi": 40,
          "name": "E2",
          "ticks": 46156,
          "time": 62.3863246875,
          "velocity": 0.889763779527559
        },
        {
          "duration": 0.1108345312499992,
          "durationTicks": 82,
          "midi": 58,
          "name": "A#3",
          "ticks": 46250,
          "time": 62.51337890625,
          "velocity": 0.984251968503937
        },
        {
          "duration": 0.08920828125000213,
          "durationTicks": 66,
          "midi": 56,
          "name": "G#3",
          "ticks": 46346,
          "time": 62.643136406249994,
          "velocity": 0.984251968503937
        },
        {
          "duration": 0.0946148437500014,
          "durationTicks": 70,
          "midi": 49,
          "name": "C#3",
          "ticks": 46442,
          "time": 62.77289390625,
          "velocity": 0.9133858267716536
        },
        {
          "duration": 0.10002140625000777,
          "durationTicks": 74,
          "midi": 54,
          "name": "F#3",
          "ticks": 46538,
          "time": 62.902651406249994,
          "velocity": 1
        },
        {
          "duration": 0.08920828124999503,
          "durationTicks": 66,
          "midi": 49,
          "name": "C#3",
          "ticks": 46634,
          "time": 63.03240890625,
          "velocity": 0.8818897637795275
        },
        {
          "duration": 0.0865050000000025,
          "durationTicks": 64,
          "midi": 51,
          "name": "D#3",
          "ticks": 46730,
          "time": 63.162166406249995,
          "velocity": 0.9212598425196851
        },
        {
          "duration": 0.06758203125000506,
          "durationTicks": 50,
          "midi": 44,
          "name": "G#2",
          "ticks": 46826,
          "time": 63.29192390625,
          "velocity": 0.5984251968503937
        },
        {
          "duration": 0.0946148437500014,
          "durationTicks": 70,
          "midi": 56,
          "name": "G#3",
          "ticks": 46922,
          "time": 63.421681406249995,
          "velocity": 0.984251968503937
        },
        {
          "duration": 0.08920828124999503,
          "durationTicks": 66,
          "midi": 44,
          "name": "G#2",
          "ticks": 47018,
          "time": 63.55143890625,
          "velocity": 0.8976377952755905
        },
        {
          "duration": 0.09731812500000103,
          "durationTicks": 72,
          "midi": 54,
          "name": "F#3",
          "ticks": 47114,
          "time": 63.681196406249995,
          "velocity": 0.9448818897637795
        },
        {
          "duration": 0.08920828124999503,
          "durationTicks": 66,
          "midi": 44,
          "name": "G#2",
          "ticks": 47210,
          "time": 63.81095390625,
          "velocity": 0.8818897637795275
        },
        {
          "duration": 0.11894437500000521,
          "durationTicks": 88,
          "midi": 56,
          "name": "G#3",
          "ticks": 47306,
          "time": 63.940711406249996,
          "velocity": 1
        },
        {
          "duration": 0.09731812500000103,
          "durationTicks": 72,
          "midi": 54,
          "name": "F#3",
          "ticks": 47402,
          "time": 64.07046890625,
          "velocity": 0.8818897637795275
        },
        {
          "duration": 0.07298859374999722,
          "durationTicks": 54,
          "midi": 44,
          "name": "G#2",
          "ticks": 47498,
          "time": 64.20022640625,
          "velocity": 0.8582677165354331
        },
        {
          "duration": 0.0946148437500085,
          "durationTicks": 70,
          "midi": 51,
          "name": "D#3",
          "ticks": 47594,
          "time": 64.32998390624999,
          "velocity": 0.9606299212598425
        },
        {
          "duration": 0.09731812500000103,
          "durationTicks": 72,
          "midi": 44,
          "name": "G#2",
          "ticks": 47690,
          "time": 64.45974140624999,
          "velocity": 0.8503937007874016
        },
        {
          "duration": 0.11624109375000558,
          "durationTicks": 86,
          "midi": 58,
          "name": "A#3",
          "ticks": 47786,
          "time": 64.58949890625,
          "velocity": 0.984251968503937
        },
        {
          "duration": 0.09191156250000176,
          "durationTicks": 68,
          "midi": 56,
          "name": "G#3",
          "ticks": 47882,
          "time": 64.71925640625,
          "velocity": 0.9448818897637795
        },
        {
          "duration": 0.0783951562500107,
          "durationTicks": 58,
          "midi": 51,
          "name": "D#3",
          "ticks": 47978,
          "time": 64.84901390625,
          "velocity": 0.9133858267716536
        },
        {
          "duration": 0.10272468750001451,
          "durationTicks": 76,
          "midi": 54,
          "name": "F#3",
          "ticks": 48074,
          "time": 64.97877140624999,
          "velocity": 0.984251968503937
        },
        {
          "duration": 0.09191156250000176,
          "durationTicks": 68,
          "midi": 44,
          "name": "G#2",
          "ticks": 48170,
          "time": 65.10852890625,
          "velocity": 0.9133858267716536
        },
        {
          "duration": 0.09461484374999429,
          "durationTicks": 70,
          "midi": 51,
          "name": "D#3",
          "ticks": 48266,
          "time": 65.23828640625,
          "velocity": 0.9133858267716536
        },
        {
          "duration": 0.1027246875000003,
          "durationTicks": 76,
          "midi": 44,
          "name": "G#2",
          "ticks": 48362,
          "time": 65.36804390625,
          "velocity": 0.8818897637795275
        },
        {
          "duration": 0.09731812500000103,
          "durationTicks": 72,
          "midi": 56,
          "name": "G#3",
          "ticks": 48458,
          "time": 65.49780140624999,
          "velocity": 1
        },
        {
          "duration": 0.1027246875000003,
          "durationTicks": 76,
          "midi": 44,
          "name": "G#2",
          "ticks": 48554,
          "time": 65.62755890625,
          "velocity": 0.9133858267716536
        },
        {
          "duration": 0.09731812500000103,
          "durationTicks": 72,
          "midi": 54,
          "name": "F#3",
          "ticks": 48650,
          "time": 65.75731640625,
          "velocity": 0.9606299212598425
        },
        {
          "duration": 0.10002140625000777,
          "durationTicks": 74,
          "midi": 44,
          "name": "G#2",
          "ticks": 48746,
          "time": 65.88707390625,
          "velocity": 0.8976377952755905
        },
        {
          "duration": 0.10813125000001378,
          "durationTicks": 80,
          "midi": 56,
          "name": "G#3",
          "ticks": 48842,
          "time": 66.01683140624999,
          "velocity": 0.9212598425196851
        },
        {
          "duration": 0.09191156250000176,
          "durationTicks": 68,
          "midi": 54,
          "name": "F#3",
          "ticks": 48938,
          "time": 66.14658890625,
          "velocity": 0.8503937007874016
        },
        {
          "duration": 0.07839515624999649,
          "durationTicks": 58,
          "midi": 44,
          "name": "G#2",
          "ticks": 49034,
          "time": 66.27634640625,
          "velocity": 0.9133858267716536
        },
        {
          "duration": 0.0865050000000025,
          "durationTicks": 64,
          "midi": 51,
          "name": "D#3",
          "ticks": 49130,
          "time": 66.40610390625,
          "velocity": 0.984251968503937
        },
        {
          "duration": 0.10002140624999356,
          "durationTicks": 74,
          "midi": 44,
          "name": "G#2",
          "ticks": 49226,
          "time": 66.53586140625,
          "velocity": 0.8976377952755905
        },
        {
          "duration": 0.1108345312499921,
          "durationTicks": 82,
          "midi": 58,
          "name": "A#3",
          "ticks": 49322,
          "time": 66.66561890625,
          "velocity": 0.968503937007874
        },
        {
          "duration": 0.08380171874999576,
          "durationTicks": 62,
          "midi": 56,
          "name": "G#3",
          "ticks": 49418,
          "time": 66.79537640625,
          "velocity": 0.9606299212598425
        },
        {
          "duration": 0.07839515624998228,
          "durationTicks": 58,
          "midi": 51,
          "name": "D#3",
          "ticks": 49514,
          "time": 66.92513390625001,
          "velocity": 0.9133858267716536
        },
        {
          "duration": 0.10272468749998609,
          "durationTicks": 76,
          "midi": 54,
          "name": "F#3",
          "ticks": 49610,
          "time": 67.05489140625001,
          "velocity": 0.9606299212598425
        },
        {
          "duration": 0.11353781249999884,
          "durationTicks": 84,
          "midi": 44,
          "name": "G#2",
          "ticks": 49706,
          "time": 67.18464890625,
          "velocity": 0.9212598425196851
        },
        {
          "duration": 0.1027246875000003,
          "durationTicks": 76,
          "midi": 51,
          "name": "D#3",
          "ticks": 49802,
          "time": 67.31440640625,
          "velocity": 0.9606299212598425
        },
        {
          "duration": 0.07028531250000469,
          "durationTicks": 52,
          "midi": 51,
          "name": "D#3",
          "ticks": 49898,
          "time": 67.44416390625,
          "velocity": 0.8031496062992126
        },
        {
          "duration": 0.10542796874999283,
          "durationTicks": 78,
          "midi": 56,
          "name": "G#3",
          "ticks": 49994,
          "time": 67.57392140625001,
          "velocity": 0.968503937007874
        },
        {
          "duration": 0.1027246875000003,
          "durationTicks": 76,
          "midi": 44,
          "name": "G#2",
          "ticks": 50090,
          "time": 67.70367890625,
          "velocity": 0.9133858267716536
        },
        {
          "duration": 0.09461484374999429,
          "durationTicks": 70,
          "midi": 54,
          "name": "F#3",
          "ticks": 50186,
          "time": 67.83343640625,
          "velocity": 0.9212598425196851
        },
        {
          "duration": 0.08920828125000924,
          "durationTicks": 66,
          "midi": 51,
          "name": "D#3",
          "ticks": 50282,
          "time": 67.96319390625,
          "velocity": 0.9133858267716536
        },
        {
          "duration": 0.11353781249999884,
          "durationTicks": 84,
          "midi": 56,
          "name": "G#3",
          "ticks": 50378,
          "time": 68.09295140625001,
          "velocity": 0.984251968503937
        },
        {
          "duration": 0.08380171874998155,
          "durationTicks": 62,
          "midi": 54,
          "name": "F#3",
          "ticks": 50474,
          "time": 68.22270890625,
          "velocity": 0.8267716535433071
        },
        {
          "duration": 0.07298859374999722,
          "durationTicks": 54,
          "midi": 44,
          "name": "G#2",
          "ticks": 50570,
          "time": 68.35246640625,
          "velocity": 0.889763779527559
        },
        {
          "duration": 0.08920828125000924,
          "durationTicks": 66,
          "midi": 51,
          "name": "D#3",
          "ticks": 50666,
          "time": 68.48222390625,
          "velocity": 0.9606299212598425
        },
        {
          "duration": 0.09191156249998755,
          "durationTicks": 68,
          "midi": 44,
          "name": "G#2",
          "ticks": 50762,
          "time": 68.61198140625001,
          "velocity": 0.8976377952755905
        },
        {
          "duration": 0.1189443749999981,
          "durationTicks": 88,
          "midi": 58,
          "name": "A#3",
          "ticks": 50858,
          "time": 68.74173890625,
          "velocity": 0.984251968503937
        },
        {
          "duration": 0.08920828124999503,
          "durationTicks": 66,
          "midi": 56,
          "name": "G#3",
          "ticks": 50954,
          "time": 68.87149640625,
          "velocity": 0.984251968503937
        },
        {
          "duration": 0.08380171874999576,
          "durationTicks": 62,
          "midi": 51,
          "name": "D#3",
          "ticks": 51050,
          "time": 69.00125390625,
          "velocity": 0.9291338582677166
        },
        {
          "duration": 0.10272468749998609,
          "durationTicks": 76,
          "midi": 54,
          "name": "F#3",
          "ticks": 51146,
          "time": 69.13101140625001,
          "velocity": 0.9448818897637795
        },
        {
          "duration": 0.09461484374999429,
          "durationTicks": 70,
          "midi": 44,
          "name": "G#2",
          "ticks": 51242,
          "time": 69.26076890625001,
          "velocity": 0.9133858267716536
        },
        {
          "duration": 0.09731812500000103,
          "durationTicks": 72,
          "midi": 51,
          "name": "D#3",
          "ticks": 51338,
          "time": 69.39052640625,
          "velocity": 0.9448818897637795
        },
        {
          "duration": 0.09461484374999429,
          "durationTicks": 70,
          "midi": 44,
          "name": "G#2",
          "ticks": 51434,
          "time": 69.52028390625,
          "velocity": 0.8976377952755905
        },
        {
          "duration": 0.09731812500000103,
          "durationTicks": 72,
          "midi": 56,
          "name": "G#3",
          "ticks": 51530,
          "time": 69.65004140625,
          "velocity": 0.984251968503937
        },
        {
          "duration": 0.09461484374999429,
          "durationTicks": 70,
          "midi": 44,
          "name": "G#2",
          "ticks": 51626,
          "time": 69.77979890625001,
          "velocity": 0.9133858267716536
        },
        {
          "duration": 0.10002140624999356,
          "durationTicks": 74,
          "midi": 54,
          "name": "F#3",
          "ticks": 51722,
          "time": 69.90955640625,
          "velocity": 0.9606299212598425
        },
        {
          "duration": 0.1027246875000003,
          "durationTicks": 76,
          "midi": 44,
          "name": "G#2",
          "ticks": 51818,
          "time": 70.03931390625,
          "velocity": 0.8976377952755905
        },
        {
          "duration": 0.1351640624999959,
          "durationTicks": 100,
          "midi": 58,
          "name": "A#3",
          "ticks": 51914,
          "time": 70.16907140625,
          "velocity": 1
        },
        {
          "duration": 0.11624109374999136,
          "durationTicks": 86,
          "midi": 56,
          "name": "G#3",
          "ticks": 52010,
          "time": 70.29882890625001,
          "velocity": 0.9448818897637795
        },
        {
          "duration": 0.09461484374999429,
          "durationTicks": 70,
          "midi": 44,
          "name": "G#2",
          "ticks": 52106,
          "time": 70.42858640625,
          "velocity": 0.9133858267716536
        },
        {
          "duration": 0.09731812500000103,
          "durationTicks": 72,
          "midi": 51,
          "name": "D#3",
          "ticks": 52202,
          "time": 70.55834390625,
          "velocity": 0.9606299212598425
        },
        {
          "duration": 0.11083453125000631,
          "durationTicks": 82,
          "midi": 39,
          "name": "D#2",
          "ticks": 52298,
          "time": 70.68810140625,
          "velocity": 0.9133858267716536
        },
        {
          "duration": 0.10542796874999283,
          "durationTicks": 78,
          "midi": 58,
          "name": "A#3",
          "ticks": 52394,
          "time": 70.81785890625001,
          "velocity": 0.984251968503937
        },
        {
          "duration": 0.10002140624999356,
          "durationTicks": 74,
          "midi": 56,
          "name": "G#3",
          "ticks": 52490,
          "time": 70.94761640625,
          "velocity": 0.9133858267716536
        },
        {
          "duration": 0.08380171874999576,
          "durationTicks": 62,
          "midi": 51,
          "name": "D#3",
          "ticks": 52586,
          "time": 71.07737390625,
          "velocity": 0.8031496062992126
        },
        {
          "duration": 0.10002140624999356,
          "durationTicks": 74,
          "midi": 54,
          "name": "F#3",
          "ticks": 52682,
          "time": 71.20713140625,
          "velocity": 0.984251968503937
        },
        {
          "duration": 0.08380171874998155,
          "durationTicks": 62,
          "midi": 46,
          "name": "A#2",
          "ticks": 52778,
          "time": 71.33688890625001,
          "velocity": 0.8818897637795275
        },
        {
          "duration": 0.09191156249998755,
          "durationTicks": 68,
          "midi": 51,
          "name": "D#3",
          "ticks": 52874,
          "time": 71.46664640625,
          "velocity": 0.9448818897637795
        },
        {
          "duration": 0.08109843750000323,
          "durationTicks": 60,
          "midi": 46,
          "name": "A#2",
          "ticks": 52970,
          "time": 71.59640390625,
          "velocity": 0.8582677165354331
        },
        {
          "duration": 0.10542796875000704,
          "durationTicks": 78,
          "midi": 56,
          "name": "G#3",
          "ticks": 53066,
          "time": 71.72616140625,
          "velocity": 0.9448818897637795
        },
        {
          "duration": 0.09191156250000176,
          "durationTicks": 68,
          "midi": 46,
          "name": "A#2",
          "ticks": 53162,
          "time": 71.85591890625,
          "velocity": 0.889763779527559
        },
        {
          "duration": 0.09461484374999429,
          "durationTicks": 70,
          "midi": 54,
          "name": "F#3",
          "ticks": 53258,
          "time": 71.98567640625001,
          "velocity": 0.984251968503937
        },
        {
          "duration": 0.09461484374999429,
          "durationTicks": 70,
          "midi": 46,
          "name": "A#2",
          "ticks": 53354,
          "time": 72.11543390625,
          "velocity": 0.905511811023622
        },
        {
          "duration": 0.12164765625000484,
          "durationTicks": 90,
          "midi": 56,
          "name": "G#3",
          "ticks": 53450,
          "time": 72.24519140625,
          "velocity": 1
        },
        {
          "duration": 0.09461484374999429,
          "durationTicks": 70,
          "midi": 54,
          "name": "F#3",
          "ticks": 53546,
          "time": 72.37494890625,
          "velocity": 0.8267716535433071
        },
        {
          "duration": 0.10813124999998536,
          "durationTicks": 80,
          "midi": 49,
          "name": "C#3",
          "ticks": 53642,
          "time": 72.50470640625001,
          "velocity": 0.8188976377952756
        },
        {
          "duration": 0.08650499999998829,
          "durationTicks": 64,
          "midi": 51,
          "name": "D#3",
          "ticks": 53738,
          "time": 72.63446390625,
          "velocity": 0.984251968503937
        },
        {
          "duration": 0.07839515624999649,
          "durationTicks": 58,
          "midi": 39,
          "name": "D#2",
          "ticks": 53834,
          "time": 72.76422140625,
          "velocity": 0.8503937007874016
        },
        {
          "duration": 0.09731812500000103,
          "durationTicks": 72,
          "midi": 58,
          "name": "A#3",
          "ticks": 53930,
          "time": 72.89397890625,
          "velocity": 1
        },
        {
          "duration": 0.08920828124999503,
          "durationTicks": 66,
          "midi": 56,
          "name": "G#3",
          "ticks": 54026,
          "time": 73.02373640625001,
          "velocity": 0.9133858267716536
        },
        {
          "duration": 0.07298859374999722,
          "durationTicks": 54,
          "midi": 51,
          "name": "D#3",
          "ticks": 54122,
          "time": 73.15349390625,
          "velocity": 0.7244094488188977
        },
        {
          "duration": 0.09461484374999429,
          "durationTicks": 70,
          "midi": 54,
          "name": "F#3",
          "ticks": 54218,
          "time": 73.28325140625,
          "velocity": 0.9448818897637795
        },
        {
          "duration": 0.08380171874999576,
          "durationTicks": 62,
          "midi": 46,
          "name": "A#2",
          "ticks": 54314,
          "time": 73.41300890625,
          "velocity": 0.8267716535433071
        },
        {
          "duration": 0.09461484374999429,
          "durationTicks": 70,
          "midi": 51,
          "name": "D#3",
          "ticks": 54410,
          "time": 73.54276640625001,
          "velocity": 0.984251968503937
        },
        {
          "duration": 0.08920828124999503,
          "durationTicks": 66,
          "midi": 49,
          "name": "C#3",
          "ticks": 54506,
          "time": 73.67252390625,
          "velocity": 0.8818897637795275
        },
        {
          "duration": 0.10542796875000704,
          "durationTicks": 78,
          "midi": 56,
          "name": "G#3",
          "ticks": 54602,
          "time": 73.80228140625,
          "velocity": 0.9448818897637795
        },
        {
          "duration": 0.08380171874999576,
          "durationTicks": 62,
          "midi": 46,
          "name": "A#2",
          "ticks": 54698,
          "time": 73.93203890625,
          "velocity": 0.8267716535433071
        },
        {
          "duration": 0.09731812499998682,
          "durationTicks": 72,
          "midi": 54,
          "name": "F#3",
          "ticks": 54794,
          "time": 74.06179640625001,
          "velocity": 0.9448818897637795
        },
        {
          "duration": 0.10813124999998536,
          "durationTicks": 80,
          "midi": 49,
          "name": "C#3",
          "ticks": 54890,
          "time": 74.19155390625001,
          "velocity": 0.8818897637795275
        },
        {
          "duration": 0.1270542187499899,
          "durationTicks": 94,
          "midi": 56,
          "name": "G#3",
          "ticks": 54986,
          "time": 74.32131140625,
          "velocity": 0.984251968503937
        },
        {
          "duration": 0.09731812500000103,
          "durationTicks": 72,
          "midi": 54,
          "name": "F#3",
          "ticks": 55082,
          "time": 74.45106890625,
          "velocity": 0.8503937007874016
        },
        {
          "duration": 0.07839515624999649,
          "durationTicks": 58,
          "midi": 46,
          "name": "A#2",
          "ticks": 55178,
          "time": 74.58082640625,
          "velocity": 0.8582677165354331
        },
        {
          "duration": 0.09461484374999429,
          "durationTicks": 70,
          "midi": 51,
          "name": "D#3",
          "ticks": 55274,
          "time": 74.71058390625001,
          "velocity": 0.984251968503937
        },
        {
          "duration": 0.1108345312499921,
          "durationTicks": 82,
          "midi": 39,
          "name": "D#2",
          "ticks": 55370,
          "time": 74.84034140625,
          "velocity": 0.9606299212598425
        },
        {
          "duration": 0.11624109374999136,
          "durationTicks": 86,
          "midi": 58,
          "name": "A#3",
          "ticks": 55466,
          "time": 74.97009890625,
          "velocity": 0.984251968503937
        },
        {
          "duration": 0.0865050000000025,
          "durationTicks": 64,
          "midi": 56,
          "name": "G#3",
          "ticks": 55562,
          "time": 75.09985640625,
          "velocity": 0.9133858267716536
        },
        {
          "duration": 0.09461484374999429,
          "durationTicks": 70,
          "midi": 46,
          "name": "A#2",
          "ticks": 55658,
          "time": 75.22961390625001,
          "velocity": 0.8110236220472441
        },
        {
          "duration": 0.10002140624999356,
          "durationTicks": 74,
          "midi": 54,
          "name": "F#3",
          "ticks": 55754,
          "time": 75.35937140625,
          "velocity": 0.9212598425196851
        },
        {
          "duration": 0.04595578125000088,
          "durationTicks": 34,
          "midi": 51,
          "name": "D#3",
          "ticks": 55850,
          "time": 75.48912890625,
          "velocity": 0.8110236220472441
        },
        {
          "duration": 0.1027246875000003,
          "durationTicks": 76,
          "midi": 51,
          "name": "D#3",
          "ticks": 55946,
          "time": 75.61888640625,
          "velocity": 0.968503937007874
        },
        {
          "duration": 0.09461484374999429,
          "durationTicks": 70,
          "midi": 46,
          "name": "A#2",
          "ticks": 56042,
          "time": 75.74864390625001,
          "velocity": 0.9133858267716536
        },
        {
          "duration": 0.10002140624999356,
          "durationTicks": 74,
          "midi": 56,
          "name": "G#3",
          "ticks": 56138,
          "time": 75.87840140625,
          "velocity": 0.9448818897637795
        },
        {
          "duration": 0.1027246875000003,
          "durationTicks": 76,
          "midi": 51,
          "name": "D#3",
          "ticks": 56234,
          "time": 76.00815890625,
          "velocity": 0.9133858267716536
        },
        {
          "duration": 0.10813124999999957,
          "durationTicks": 80,
          "midi": 54,
          "name": "F#3",
          "ticks": 56330,
          "time": 76.13791640625,
          "velocity": 0.984251968503937
        },
        {
          "duration": 0.07839515624998228,
          "durationTicks": 58,
          "midi": 46,
          "name": "A#2",
          "ticks": 56426,
          "time": 76.26767390625001,
          "velocity": 0.7716535433070866
        },
        {
          "duration": 0.1189443749999981,
          "durationTicks": 88,
          "midi": 56,
          "name": "G#3",
          "ticks": 56522,
          "time": 76.39743140625,
          "velocity": 0.984251968503937
        },
        {
          "duration": 0.09191156249998755,
          "durationTicks": 68,
          "midi": 54,
          "name": "F#3",
          "ticks": 56618,
          "time": 76.52718890625,
          "velocity": 0.8503937007874016
        },
        {
          "duration": 0.09461484374999429,
          "durationTicks": 70,
          "midi": 51,
          "name": "D#3",
          "ticks": 56714,
          "time": 76.65694640625,
          "velocity": 0.8976377952755905
        },
        {
          "duration": 0.09731812500000103,
          "durationTicks": 72,
          "midi": 51,
          "name": "D#3",
          "ticks": 56810,
          "time": 76.78670390625,
          "velocity": 0.9606299212598425
        },
        {
          "duration": 0.10542796874999283,
          "durationTicks": 78,
          "midi": 39,
          "name": "D#2",
          "ticks": 56906,
          "time": 76.91646140625001,
          "velocity": 0.9212598425196851
        },
        {
          "duration": 0.10813124999998536,
          "durationTicks": 80,
          "midi": 58,
          "name": "A#3",
          "ticks": 57002,
          "time": 77.04621890625,
          "velocity": 0.968503937007874
        },
        {
          "duration": 0.08380171874999576,
          "durationTicks": 62,
          "midi": 56,
          "name": "G#3",
          "ticks": 57098,
          "time": 77.17597640625,
          "velocity": 0.8740157480314961
        },
        {
          "duration": 0.1027246875000003,
          "durationTicks": 76,
          "midi": 51,
          "name": "D#3",
          "ticks": 57194,
          "time": 77.30573390625,
          "velocity": 0.8818897637795275
        },
        {
          "duration": 0.11353781249999884,
          "durationTicks": 84,
          "midi": 58,
          "name": "A#3",
          "ticks": 57290,
          "time": 77.43549140625001,
          "velocity": 1
        },
        {
          "duration": 0.11624109374999136,
          "durationTicks": 86,
          "midi": 51,
          "name": "D#3",
          "ticks": 57386,
          "time": 77.56524890625,
          "velocity": 0.8976377952755905
        },
        {
          "duration": 0.11353781249999884,
          "durationTicks": 84,
          "midi": 56,
          "name": "G#3",
          "ticks": 57482,
          "time": 77.69500640625,
          "velocity": 0.9606299212598425
        },
        {
          "duration": 0.11353781249999884,
          "durationTicks": 84,
          "midi": 51,
          "name": "D#3",
          "ticks": 57578,
          "time": 77.82476390625,
          "velocity": 0.9133858267716536
        },
        {
          "duration": 0.12164765624999063,
          "durationTicks": 90,
          "midi": 58,
          "name": "A#3",
          "ticks": 57674,
          "time": 77.95452140625001,
          "velocity": 0.984251968503937
        },
        {
          "duration": 0.059472187499991946,
          "durationTicks": 44,
          "midi": 40,
          "name": "E2",
          "ticks": 58442,
          "time": 78.99258140625,
          "velocity": 0.8976377952755905
        },
        {
          "duration": 0.04595578125000088,
          "durationTicks": 34,
          "midi": 41,
          "name": "F2",
          "ticks": 58442,
          "time": 78.99258140625,
          "velocity": 0.889763779527559
        },
        {
          "duration": 0.059472187499991946,
          "durationTicks": 44,
          "midi": 41,
          "name": "F2",
          "ticks": 59978,
          "time": 81.06870140625,
          "velocity": 0.8976377952755905
        },
        {
          "duration": 0.04595578125000088,
          "durationTicks": 34,
          "midi": 42,
          "name": "F#2",
          "ticks": 59978,
          "time": 81.06870140625,
          "velocity": 0.889763779527559
        },
        {
          "duration": 0.10542796874997862,
          "durationTicks": 78,
          "midi": 46,
          "name": "A#2",
          "ticks": 101450,
          "time": 137.12394140625,
          "velocity": 0.8976377952755905
        },
        {
          "duration": 0.116241093750034,
          "durationTicks": 86,
          "midi": 60,
          "name": "C4",
          "ticks": 101546,
          "time": 137.25369890624998,
          "velocity": 1
        },
        {
          "duration": 0.0946148437500085,
          "durationTicks": 70,
          "midi": 58,
          "name": "A#3",
          "ticks": 101642,
          "time": 137.38345640625,
          "velocity": 0.9133858267716536
        },
        {
          "duration": 0.07839515624999649,
          "durationTicks": 58,
          "midi": 53,
          "name": "F3",
          "ticks": 101738,
          "time": 137.51321390625,
          "velocity": 0.8976377952755905
        },
        {
          "duration": 0.10002140625002198,
          "durationTicks": 74,
          "midi": 56,
          "name": "G#3",
          "ticks": 101834,
          "time": 137.64297140624998,
          "velocity": 0.9606299212598425
        },
        {
          "duration": 0.06758203125002638,
          "durationTicks": 50,
          "midi": 53,
          "name": "F3",
          "ticks": 101930,
          "time": 137.77272890625,
          "velocity": 0.9133858267716536
        },
        {
          "duration": 0.10002140625002198,
          "durationTicks": 74,
          "midi": 53,
          "name": "F3",
          "ticks": 102026,
          "time": 137.90248640624998,
          "velocity": 0.984251968503937
        },
        {
          "duration": 0.0946148437500085,
          "durationTicks": 70,
          "midi": 46,
          "name": "A#2",
          "ticks": 102122,
          "time": 138.03224390625,
          "velocity": 0.9133858267716536
        }
      ]
    },
    {
      "channel": 6,
      "controlChanges": {
        "7": [
          {
            "number": 7,
            "ticks": 1536,
            "time": 2.07612,
            "value": 0.8976377952755905
          }
        ],
        "10": [
          {
            "number": 10,
            "ticks": 1536,
            "time": 2.07612,
            "value": 0.7874015748031497
          }
        ],
        "64": [
          {
            "number": 64,
            "ticks": 1536,
            "time": 2.07612,
            "value": 0
          }
        ],
        "91": [
          {
            "number": 91,
            "ticks": 1536,
            "time": 2.07612,
            "value": 0
          }
        ],
        "93": [
          {
            "number": 93,
            "ticks": 1536,
            "time": 2.07612,
            "value": 0.3937007874015748
          }
        ]
      },
      "pitchBends": [
        {
          "ticks": 1536,
          "time": 2.07612,
          "value": 0
        }
      ],
      "instrument": {
        "family": "percussive",
        "number": 119,
        "name": "reverse cymbal"
      },
      "name": "REVERSCYMB",
      "notes": [
        {
          "duration": 2.2410201562499994,
          "durationTicks": 1658,
          "midi": 60,
          "name": "C4",
          "ticks": 2110,
          "time": 2.85196171875,
          "velocity": 1
        }
      ],
      "endOfTrackTicks": 104526
    },
    {
      "channel": 0,
      "controlChanges": {
        "7": [
          {
            "number": 7,
            "ticks": 1536,
            "time": 2.07612,
            "value": 0.8976377952755905
          }
        ],
        "10": [
          {
            "number": 10,
            "ticks": 1536,
            "time": 2.07612,
            "value": 0.11811023622047244
          }
        ],
        "91": [
          {
            "number": 91,
            "ticks": 1536,
            "time": 2.07612,
            "value": 0
          }
        ],
        "93": [
          {
            "number": 93,
            "ticks": 1536,
            "time": 2.07612,
            "value": 0
          }
        ]
      },
      "pitchBends": [],
      "instrument": {
        "family": "piano",
        "number": 0,
        "name": "acoustic grand piano"
      },
      "name": "BRASS 1",
      "notes": [],
      "endOfTrackTicks": 104526
    },
    {
      "channel": 7,
      "controlChanges": {
        "64": [
          {
            "number": 64,
            "ticks": 1536,
            "time": 2.07612,
            "value": 0
          }
        ]
      },
      "pitchBends": [
        {
          "ticks": 1536,
          "time": 2.07612,
          "value": 0
        }
      ],
      "instrument": {
        "family": "brass",
        "number": 61,
        "name": "brass section"
      },
      "name": "",
      "notes": [
        {
          "duration": 0.12435093750000048,
          "durationTicks": 92,
          "midi": 63,
          "name": "D#4",
          "ticks": 2384,
          "time": 3.2223112499999997,
          "velocity": 1
        },
        {
          "duration": 0.12705421875000011,
          "durationTicks": 94,
          "midi": 68,
          "name": "G#4",
          "ticks": 2478,
          "time": 3.34936546875,
          "velocity": 1
        },
        {
          "duration": 0.1297575000000002,
          "durationTicks": 96,
          "midi": 65,
          "name": "F4",
          "ticks": 2572,
          "time": 3.4764196875,
          "velocity": 0.984251968503937
        },
        {
          "duration": 0.13516406250000035,
          "durationTicks": 100,
          "midi": 66,
          "name": "F#4",
          "ticks": 2670,
          "time": 3.60888046875,
          "velocity": 0.968503937007874
        },
        {
          "duration": 0.12435093749999959,
          "durationTicks": 92,
          "midi": 73,
          "name": "C#5",
          "ticks": 2766,
          "time": 3.73863796875,
          "velocity": 1
        },
        {
          "duration": 0.12705421875000056,
          "durationTicks": 94,
          "midi": 69,
          "name": "A4",
          "ticks": 2862,
          "time": 3.8683954687499997,
          "velocity": 0.952755905511811
        },
        {
          "duration": 0.12975749999999975,
          "durationTicks": 96,
          "midi": 70,
          "name": "A#4",
          "ticks": 2958,
          "time": 3.99815296875,
          "velocity": 0.937007874015748
        },
        {
          "duration": 0.11894437499999988,
          "durationTicks": 88,
          "midi": 80,
          "name": "G#5",
          "ticks": 3054,
          "time": 4.12791046875,
          "velocity": 0.968503937007874
        },
        {
          "duration": 0.016219687500000468,
          "durationTicks": 12,
          "midi": 79,
          "name": "G5",
          "ticks": 3150,
          "time": 4.25766796875,
          "velocity": 0.8110236220472441
        },
        {
          "duration": 0.01621968749999958,
          "durationTicks": 12,
          "midi": 78,
          "name": "F#5",
          "ticks": 3162,
          "time": 4.27388765625,
          "velocity": 0.84251968503937
        },
        {
          "duration": 0.01621968749999958,
          "durationTicks": 12,
          "midi": 77,
          "name": "F5",
          "ticks": 3174,
          "time": 4.29010734375,
          "velocity": 0.8031496062992126
        },
        {
          "duration": 0.016219687500000468,
          "durationTicks": 12,
          "midi": 76,
          "name": "E5",
          "ticks": 3186,
          "time": 4.3063270312499995,
          "velocity": 0.84251968503937
        },
        {
          "duration": 0.01621968749999958,
          "durationTicks": 12,
          "midi": 75,
          "name": "D#5",
          "ticks": 3198,
          "time": 4.32254671875,
          "velocity": 0.8188976377952756
        },
        {
          "duration": 0.016219687500000468,
          "durationTicks": 12,
          "midi": 74,
          "name": "D5",
          "ticks": 3210,
          "time": 4.3387664062499995,
          "velocity": 0.8031496062992126
        },
        {
          "duration": 0.01621968749999958,
          "durationTicks": 12,
          "midi": 73,
          "name": "C#5",
          "ticks": 3222,
          "time": 4.35498609375,
          "velocity": 0.84251968503937
        },
        {
          "duration": 0.016219687500000468,
          "durationTicks": 12,
          "midi": 72,
          "name": "C5",
          "ticks": 3234,
          "time": 4.37120578125,
          "velocity": 0.7952755905511811
        },
        {
          "duration": 0.01621968749999958,
          "durationTicks": 12,
          "midi": 71,
          "name": "B4",
          "ticks": 3246,
          "time": 4.38742546875,
          "velocity": 0.8188976377952756
        },
        {
          "duration": 0.016219687500000468,
          "durationTicks": 12,
          "midi": 70,
          "name": "A#4",
          "ticks": 3258,
          "time": 4.40364515625,
          "velocity": 0.84251968503937
        },
        {
          "duration": 0.01621968749999958,
          "durationTicks": 12,
          "midi": 69,
          "name": "A4",
          "ticks": 3270,
          "time": 4.41986484375,
          "velocity": 0.8031496062992126
        },
        {
          "duration": 0.016219687500000468,
          "durationTicks": 12,
          "midi": 68,
          "name": "G#4",
          "ticks": 3282,
          "time": 4.43608453125,
          "velocity": 0.8188976377952756
        },
        {
          "duration": 0.1270542187499757,
          "durationTicks": 94,
          "midi": 64,
          "name": "E4",
          "ticks": 102220,
          "time": 138.1647046875,
          "velocity": 0.8818897637795275
        },
        {
          "duration": 0.13516406249996749,
          "durationTicks": 100,
          "midi": 65,
          "name": "F4",
          "ticks": 102316,
          "time": 138.29446218750002,
          "velocity": 0.84251968503937
        },
        {
          "duration": 0.11624109375000558,
          "durationTicks": 86,
          "midi": 77,
          "name": "F5",
          "ticks": 102412,
          "time": 138.4242196875,
          "velocity": 0.8818897637795275
        },
        {
          "duration": 0.12435093749999737,
          "durationTicks": 92,
          "midi": 71,
          "name": "B4",
          "ticks": 102508,
          "time": 138.5539771875,
          "velocity": 0.7952755905511811
        },
        {
          "duration": 0.12164765624999063,
          "durationTicks": 90,
          "midi": 72,
          "name": "C5",
          "ticks": 102604,
          "time": 138.68373468750002,
          "velocity": 0.8188976377952756
        },
        {
          "duration": 0.12975750000001085,
          "durationTicks": 96,
          "midi": 79,
          "name": "G5",
          "ticks": 102700,
          "time": 138.8134921875,
          "velocity": 0.9291338582677166
        },
        {
          "duration": 0.12975749999998243,
          "durationTicks": 96,
          "midi": 80,
          "name": "G#5",
          "ticks": 102796,
          "time": 138.9432496875,
          "velocity": 0.84251968503937
        },
        {
          "duration": 0.40008562500000266,
          "durationTicks": 296,
          "midi": 89,
          "name": "F6",
          "ticks": 102892,
          "time": 139.0730071875,
          "velocity": 0.8503937007874016
        }
      ]
    },
    {
      "channel": 0,
      "controlChanges": {
        "7": [
          {
            "number": 7,
            "ticks": 1536,
            "time": 2.07612,
            "value": 0.7795275590551181
          }
        ],
        "10": [
          {
            "number": 10,
            "ticks": 1536,
            "time": 2.07612,
            "value": 0.5039370078740157
          }
        ],
        "91": [
          {
            "number": 91,
            "ticks": 1536,
            "time": 2.07612,
            "value": 0.31496062992125984
          }
        ],
        "93": [
          {
            "number": 93,
            "ticks": 1536,
            "time": 2.07612,
            "value": 0
          }
        ]
      },
      "pitchBends": [],
      "instrument": {
        "family": "piano",
        "number": 0,
        "name": "acoustic grand piano"
      },
      "name": "DRUMS",
      "notes": [],
      "endOfTrackTicks": 104526
    },
    {
      "channel": 9,
      "controlChanges": {
        "64": [
          {
            "number": 64,
            "ticks": 1536,
            "time": 2.07612,
            "value": 0
          }
        ]
      },
      "pitchBends": [
        {
          "ticks": 1536,
          "time": 2.07612,
          "value": 0
        }
      ],
      "instrument": {
        "family": "drums",
        "number": 16,
        "name": "power kit"
      },
      "name": "",
      "notes": [
        {
          "duration": 0.013516406249999946,
          "durationTicks": 10,
          "midi": 36,
          "name": "C2",
          "ticks": 1616,
          "time": 2.18425125,
          "velocity": 0.8740157480314961
        },
        {
          "duration": 0.013516406249999946,
          "durationTicks": 10,
          "midi": 50,
          "name": "D3",
          "ticks": 1632,
          "time": 2.2058775,
          "velocity": 0.7874015748031497
        },
        {
          "duration": 0.013516406249999946,
          "durationTicks": 10,
          "midi": 40,
          "name": "E2",
          "ticks": 1720,
          "time": 2.324821875,
          "velocity": 0.7401574803149606
        },
        {
          "duration": 0.01351640625000039,
          "durationTicks": 10,
          "midi": 82,
          "name": "A#5",
          "ticks": 1806,
          "time": 2.44106296875,
          "velocity": 0.5275590551181102
        },
        {
          "duration": 0.013516406249999502,
          "durationTicks": 10,
          "midi": 50,
          "name": "D3",
          "ticks": 1828,
          "time": 2.4707990625000003,
          "velocity": 0.7874015748031497
        },
        {
          "duration": 0.013516406249999946,
          "durationTicks": 10,
          "midi": 82,
          "name": "A#5",
          "ticks": 1902,
          "time": 2.57082046875,
          "velocity": 0.5275590551181102
        },
        {
          "duration": 0.013516406249999946,
          "durationTicks": 10,
          "midi": 40,
          "name": "E2",
          "ticks": 1922,
          "time": 2.59785328125,
          "velocity": 0.84251968503937
        },
        {
          "duration": 0.01351640625000039,
          "durationTicks": 10,
          "midi": 48,
          "name": "C3",
          "ticks": 2018,
          "time": 2.7276107812499997,
          "velocity": 0.952755905511811
        },
        {
          "duration": 0.013516406249999946,
          "durationTicks": 10,
          "midi": 48,
          "name": "C3",
          "ticks": 2116,
          "time": 2.8600715625,
          "velocity": 0.7637795275590551
        },
        {
          "duration": 0.013516406249999946,
          "durationTicks": 10,
          "midi": 40,
          "name": "E2",
          "ticks": 2206,
          "time": 2.98171921875,
          "velocity": 0.8582677165354331
        },
        {
          "duration": 0.010813125000000312,
          "durationTicks": 8,
          "midi": 36,
          "name": "C2",
          "ticks": 2288,
          "time": 3.09255375,
          "velocity": 0.8503937007874016
        },
        {
          "duration": 0.013516406249999946,
          "durationTicks": 10,
          "midi": 47,
          "name": "B2",
          "ticks": 2308,
          "time": 3.1195865625,
          "velocity": 1
        },
        {
          "duration": 0.010813125000000312,
          "durationTicks": 8,
          "midi": 36,
          "name": "C2",
          "ticks": 2384,
          "time": 3.2223112499999997,
          "velocity": 0.8740157480314961
        },
        {
          "duration": 0.010813124999999868,
          "durationTicks": 8,
          "midi": 50,
          "name": "D3",
          "ticks": 2400,
          "time": 3.2439375,
          "velocity": 0.7874015748031497
        },
        {
          "duration": 0.013516406249999502,
          "durationTicks": 10,
          "midi": 40,
          "name": "E2",
          "ticks": 2488,
          "time": 3.3628818750000002,
          "velocity": 0.7401574803149606
        },
        {
          "duration": 0.013516406249999946,
          "durationTicks": 10,
          "midi": 82,
          "name": "A#5",
          "ticks": 2574,
          "time": 3.47912296875,
          "velocity": 0.5275590551181102
        },
        {
          "duration": 0.010813124999999868,
          "durationTicks": 8,
          "midi": 50,
          "name": "D3",
          "ticks": 2596,
          "time": 3.5088590625,
          "velocity": 0.7874015748031497
        },
        {
          "duration": 0.013516406249999502,
          "durationTicks": 10,
          "midi": 82,
          "name": "A#5",
          "ticks": 2668,
          "time": 3.6061771875,
          "velocity": 0.5275590551181102
        },
        {
          "duration": 0.01351640625000039,
          "durationTicks": 10,
          "midi": 40,
          "name": "E2",
          "ticks": 2690,
          "time": 3.6359132812499997,
          "velocity": 0.84251968503937
        },
        {
          "duration": 0.013516406249999946,
          "durationTicks": 10,
          "midi": 48,
          "name": "C3",
          "ticks": 2786,
          "time": 3.76567078125,
          "velocity": 0.952755905511811
        },
        {
          "duration": 0.013516406249999502,
          "durationTicks": 10,
          "midi": 48,
          "name": "C3",
          "ticks": 2884,
          "time": 3.8981315625,
          "velocity": 0.7637795275590551
        },
        {
          "duration": 0.013516406249999946,
          "durationTicks": 10,
          "midi": 40,
          "name": "E2",
          "ticks": 2972,
          "time": 4.0170759375,
          "velocity": 0.8582677165354331
        },
        {
          "duration": 0.013516406250000834,
          "durationTicks": 10,
          "midi": 36,
          "name": "C2",
          "ticks": 3054,
          "time": 4.12791046875,
          "velocity": 0.8503937007874016
        },
        {
          "duration": 0.013516406250000834,
          "durationTicks": 10,
          "midi": 47,
          "name": "B2",
          "ticks": 3076,
          "time": 4.157646562499999,
          "velocity": 1
        },
        {
          "duration": 0.013516406249999946,
          "durationTicks": 10,
          "midi": 38,
          "name": "D2",
          "ticks": 6222,
          "time": 8.40990796875,
          "velocity": 0.2125984251968504
        },
        {
          "duration": 0.013516406249999946,
          "durationTicks": 10,
          "midi": 38,
          "name": "D2",
          "ticks": 6414,
          "time": 8.66942296875,
          "velocity": 0.2047244094488189
        },
        {
          "duration": 0.013516406249999946,
          "durationTicks": 10,
          "midi": 38,
          "name": "D2",
          "ticks": 6512,
          "time": 8.80188375,
          "velocity": 0.2047244094488189
        },
        {
          "duration": 0.010813125000002088,
          "durationTicks": 8,
          "midi": 38,
          "name": "D2",
          "ticks": 6608,
          "time": 8.931641249999998,
          "velocity": 0.2440944881889764
        },
        {
          "duration": 0.013516406249999946,
          "durationTicks": 10,
          "midi": 38,
          "name": "D2",
          "ticks": 6792,
          "time": 9.180343125,
          "velocity": 0.18110236220472442
        },
        {
          "duration": 0.008109843750000678,
          "durationTicks": 6,
          "midi": 38,
          "name": "D2",
          "ticks": 6798,
          "time": 9.18845296875,
          "velocity": 0.18110236220472442
        },
        {
          "duration": 0.010813125000002088,
          "durationTicks": 8,
          "midi": 38,
          "name": "D2",
          "ticks": 6896,
          "time": 9.320913749999999,
          "velocity": 0.28346456692913385
        },
        {
          "duration": 0.013516406249999946,
          "durationTicks": 10,
          "midi": 38,
          "name": "D2",
          "ticks": 7086,
          "time": 9.57772546875,
          "velocity": 0.31496062992125984
        },
        {
          "duration": 0.013516406249999946,
          "durationTicks": 10,
          "midi": 38,
          "name": "D2",
          "ticks": 7278,
          "time": 9.83724046875,
          "velocity": 0.29133858267716534
        },
        {
          "duration": 0.010813125000000312,
          "durationTicks": 8,
          "midi": 38,
          "name": "D2",
          "ticks": 7376,
          "time": 9.96970125,
          "velocity": 0.18110236220472442
        },
        {
          "duration": 0.01351640624999817,
          "durationTicks": 10,
          "midi": 38,
          "name": "D2",
          "ticks": 7468,
          "time": 10.0940521875,
          "velocity": 0.2677165354330709
        },
        {
          "duration": 0.01351640624999817,
          "durationTicks": 10,
          "midi": 38,
          "name": "D2",
          "ticks": 7564,
          "time": 10.223809687500001,
          "velocity": 0.30708661417322836
        },
        {
          "duration": 0.010813124999998536,
          "durationTicks": 8,
          "midi": 38,
          "name": "D2",
          "ticks": 7660,
          "time": 10.353567187500001,
          "velocity": 0.36220472440944884
        },
        {
          "duration": 0.010813125000000312,
          "durationTicks": 8,
          "midi": 38,
          "name": "D2",
          "ticks": 7756,
          "time": 10.4833246875,
          "velocity": 0.4645669291338583
        },
        {
          "duration": 0.013516406250001722,
          "durationTicks": 10,
          "midi": 38,
          "name": "D2",
          "ticks": 7854,
          "time": 10.61578546875,
          "velocity": 0.3464566929133858
        },
        {
          "duration": 0.013516406249999946,
          "durationTicks": 10,
          "midi": 38,
          "name": "D2",
          "ticks": 8046,
          "time": 10.87530046875,
          "velocity": 0.29133858267716534
        },
        {
          "duration": 0.01351640624999817,
          "durationTicks": 10,
          "midi": 38,
          "name": "D2",
          "ticks": 8140,
          "time": 11.0023546875,
          "velocity": 0.31496062992125984
        },
        {
          "duration": 0.01351640624999817,
          "durationTicks": 10,
          "midi": 38,
          "name": "D2",
          "ticks": 8236,
          "time": 11.1321121875,
          "velocity": 0.3937007874015748
        },
        {
          "duration": 0.01351640624999817,
          "durationTicks": 10,
          "midi": 38,
          "name": "D2",
          "ticks": 8332,
          "time": 11.2618696875,
          "velocity": 0.3937007874015748
        },
        {
          "duration": 0.01351640624999817,
          "durationTicks": 10,
          "midi": 38,
          "name": "D2",
          "ticks": 8428,
          "time": 11.391627187500001,
          "velocity": 0.5748031496062992
        },
        {
          "duration": 0.010813125000000312,
          "durationTicks": 8,
          "midi": 38,
          "name": "D2",
          "ticks": 8620,
          "time": 11.6511421875,
          "velocity": 0.5826771653543307
        },
        {
          "duration": 0.013516406249999946,
          "durationTicks": 10,
          "midi": 38,
          "name": "D2",
          "ticks": 8716,
          "time": 11.7808996875,
          "velocity": 0.5984251968503937
        },
        {
          "duration": 0.013516406249999946,
          "durationTicks": 10,
          "midi": 38,
          "name": "D2",
          "ticks": 8814,
          "time": 11.91336046875,
          "velocity": 0.5984251968503937
        },
        {
          "duration": 0.013516406249999946,
          "durationTicks": 10,
          "midi": 38,
          "name": "D2",
          "ticks": 8910,
          "time": 12.04311796875,
          "velocity": 0.7401574803149606
        },
        {
          "duration": 0.013516406249999946,
          "durationTicks": 10,
          "midi": 38,
          "name": "D2",
          "ticks": 9006,
          "time": 12.17287546875,
          "velocity": 0.5905511811023622
        },
        {
          "duration": 0.013516406249999946,
          "durationTicks": 10,
          "midi": 38,
          "name": "D2",
          "ticks": 9102,
          "time": 12.30263296875,
          "velocity": 0.8267716535433071
        },
        {
          "duration": 0.013516406249999946,
          "durationTicks": 10,
          "midi": 38,
          "name": "D2",
          "ticks": 9198,
          "time": 12.43239046875,
          "velocity": 0.6929133858267716
        },
        {
          "duration": 0.010813125000002088,
          "durationTicks": 8,
          "midi": 36,
          "name": "C2",
          "ticks": 9296,
          "time": 12.564851249999998,
          "velocity": 0.8267716535433071
        },
        {
          "duration": 0.013516406249999946,
          "durationTicks": 10,
          "midi": 38,
          "name": "D2",
          "ticks": 9680,
          "time": 13.08388125,
          "velocity": 0.9212598425196851
        },
        {
          "duration": 0.013516406249999946,
          "durationTicks": 10,
          "midi": 36,
          "name": "C2",
          "ticks": 9968,
          "time": 13.47315375,
          "velocity": 0.8267716535433071
        },
        {
          "duration": 0.010813124999998536,
          "durationTicks": 8,
          "midi": 36,
          "name": "C2",
          "ticks": 10252,
          "time": 13.857019687500001,
          "velocity": 0.8503937007874016
        },
        {
          "duration": 0.013516406249999946,
          "durationTicks": 10,
          "midi": 38,
          "name": "D2",
          "ticks": 10448,
          "time": 14.121941249999999,
          "velocity": 0.9212598425196851
        },
        {
          "duration": 0.010813125000000312,
          "durationTicks": 8,
          "midi": 36,
          "name": "C2",
          "ticks": 10832,
          "time": 14.64097125,
          "velocity": 0.9212598425196851
        },
        {
          "duration": 0.013516406250001722,
          "durationTicks": 10,
          "midi": 38,
          "name": "D2",
          "ticks": 11214,
          "time": 15.15729796875,
          "velocity": 0.8740157480314961
        },
        {
          "duration": 0.013516406249999946,
          "durationTicks": 10,
          "midi": 36,
          "name": "C2",
          "ticks": 11502,
          "time": 15.54657046875,
          "velocity": 0.8740157480314961
        },
        {
          "duration": 0.013516406249999946,
          "durationTicks": 10,
          "midi": 36,
          "name": "C2",
          "ticks": 11790,
          "time": 15.93584296875,
          "velocity": 0.8740157480314961
        },
        {
          "duration": 0.013516406250001722,
          "durationTicks": 10,
          "midi": 38,
          "name": "D2",
          "ticks": 11984,
          "time": 16.19806125,
          "velocity": 0.8976377952755905
        },
        {
          "duration": 0.013516406250001722,
          "durationTicks": 10,
          "midi": 36,
          "name": "C2",
          "ticks": 12368,
          "time": 16.71709125,
          "velocity": 0.8503937007874016
        },
        {
          "duration": 0.01351640624999817,
          "durationTicks": 10,
          "midi": 38,
          "name": "D2",
          "ticks": 12750,
          "time": 17.23341796875,
          "velocity": 0.8267716535433071
        },
        {
          "duration": 0.01351640624999817,
          "durationTicks": 10,
          "midi": 36,
          "name": "C2",
          "ticks": 13038,
          "time": 17.62269046875,
          "velocity": 0.8976377952755905
        },
        {
          "duration": 0.013516406250001722,
          "durationTicks": 10,
          "midi": 36,
          "name": "C2",
          "ticks": 13326,
          "time": 18.011962968749998,
          "velocity": 0.8740157480314961
        },
        {
          "duration": 0.010813124999998536,
          "durationTicks": 8,
          "midi": 38,
          "name": "D2",
          "ticks": 13520,
          "time": 18.27418125,
          "velocity": 0.9212598425196851
        },
        {
          "duration": 0.01351640624999817,
          "durationTicks": 10,
          "midi": 36,
          "name": "C2",
          "ticks": 13902,
          "time": 18.79050796875,
          "velocity": 0.8976377952755905
        },
        {
          "duration": 0.01351640624999817,
          "durationTicks": 10,
          "midi": 36,
          "name": "C2",
          "ticks": 14094,
          "time": 19.05002296875,
          "velocity": 0.7795275590551181
        },
        {
          "duration": 0.01351640624999817,
          "durationTicks": 10,
          "midi": 38,
          "name": "D2",
          "ticks": 14286,
          "time": 19.30953796875,
          "velocity": 0.9212598425196851
        },
        {
          "duration": 0.01351640624999817,
          "durationTicks": 10,
          "midi": 36,
          "name": "C2",
          "ticks": 14574,
          "time": 19.69881046875,
          "velocity": 0.8267716535433071
        },
        {
          "duration": 0.01351640624999817,
          "durationTicks": 10,
          "midi": 36,
          "name": "C2",
          "ticks": 14862,
          "time": 20.08808296875,
          "velocity": 0.8976377952755905
        },
        {
          "duration": 0.010813124999998536,
          "durationTicks": 8,
          "midi": 38,
          "name": "D2",
          "ticks": 15056,
          "time": 20.35030125,
          "velocity": 0.9448818897637795
        },
        {
          "duration": 0.01351640624999817,
          "durationTicks": 10,
          "midi": 36,
          "name": "C2",
          "ticks": 15440,
          "time": 20.869331250000002,
          "velocity": 0.8976377952755905
        },
        {
          "duration": 0.01351640624999817,
          "durationTicks": 10,
          "midi": 38,
          "name": "D2",
          "ticks": 15822,
          "time": 21.38565796875,
          "velocity": 0.8976377952755905
        },
        {
          "duration": 0.013516406250001722,
          "durationTicks": 10,
          "midi": 36,
          "name": "C2",
          "ticks": 16112,
          "time": 21.77763375,
          "velocity": 0.8740157480314961
        },
        {
          "duration": 0.01351640624999817,
          "durationTicks": 10,
          "midi": 36,
          "name": "C2",
          "ticks": 16398,
          "time": 22.16420296875,
          "velocity": 0.8267716535433071
        },
        {
          "duration": 0.010813124999998536,
          "durationTicks": 8,
          "midi": 38,
          "name": "D2",
          "ticks": 16592,
          "time": 22.42642125,
          "velocity": 0.8503937007874016
        },
        {
          "duration": 0.01351640624999817,
          "durationTicks": 10,
          "midi": 36,
          "name": "C2",
          "ticks": 16976,
          "time": 22.94545125,
          "velocity": 0.8267716535433071
        },
        {
          "duration": 0.013516406250001722,
          "durationTicks": 10,
          "midi": 38,
          "name": "D2",
          "ticks": 17356,
          "time": 23.4590746875,
          "velocity": 0.8503937007874016
        },
        {
          "duration": 0.013516406250001722,
          "durationTicks": 10,
          "midi": 36,
          "name": "C2",
          "ticks": 17644,
          "time": 23.8483471875,
          "velocity": 0.8740157480314961
        },
        {
          "duration": 0.013516406250005275,
          "durationTicks": 10,
          "midi": 36,
          "name": "C2",
          "ticks": 17932,
          "time": 24.237619687499997,
          "velocity": 0.8740157480314961
        },
        {
          "duration": 0.01351640624999817,
          "durationTicks": 10,
          "midi": 38,
          "name": "D2",
          "ticks": 18126,
          "time": 24.49983796875,
          "velocity": 0.9448818897637795
        },
        {
          "duration": 0.010813124999998536,
          "durationTicks": 8,
          "midi": 36,
          "name": "C2",
          "ticks": 18512,
          "time": 25.02157125,
          "velocity": 0.8740157480314961
        },
        {
          "duration": 0.01351640624999817,
          "durationTicks": 10,
          "midi": 38,
          "name": "D2",
          "ticks": 18894,
          "time": 25.53789796875,
          "velocity": 0.8740157480314961
        },
        {
          "duration": 0.01351640624999817,
          "durationTicks": 10,
          "midi": 36,
          "name": "C2",
          "ticks": 19184,
          "time": 25.929873750000002,
          "velocity": 0.8267716535433071
        },
        {
          "duration": 0.010813124999998536,
          "durationTicks": 8,
          "midi": 36,
          "name": "C2",
          "ticks": 19472,
          "time": 26.31914625,
          "velocity": 0.8976377952755905
        },
        {
          "duration": 0.01351640624999817,
          "durationTicks": 10,
          "midi": 38,
          "name": "D2",
          "ticks": 19664,
          "time": 26.57866125,
          "velocity": 0.9448818897637795
        },
        {
          "duration": 0.01351640624999817,
          "durationTicks": 10,
          "midi": 36,
          "name": "C2",
          "ticks": 20048,
          "time": 27.09769125,
          "velocity": 0.8740157480314961
        },
        {
          "duration": 0.013516406250001722,
          "durationTicks": 10,
          "midi": 38,
          "name": "D2",
          "ticks": 20428,
          "time": 27.6113146875,
          "velocity": 0.8267716535433071
        },
        {
          "duration": 0.01351640624999817,
          "durationTicks": 10,
          "midi": 36,
          "name": "C2",
          "ticks": 20718,
          "time": 28.00329046875,
          "velocity": 0.8976377952755905
        },
        {
          "duration": 0.013516406250001722,
          "durationTicks": 10,
          "midi": 36,
          "name": "C2",
          "ticks": 21004,
          "time": 28.3898596875,
          "velocity": 0.8267716535433071
        },
        {
          "duration": 0.013516406250001722,
          "durationTicks": 10,
          "midi": 38,
          "name": "D2",
          "ticks": 21200,
          "time": 28.65478125,
          "velocity": 0.8740157480314961
        },
        {
          "duration": 0.01351640624999817,
          "durationTicks": 10,
          "midi": 46,
          "name": "A#2",
          "ticks": 21578,
          "time": 29.16570140625,
          "velocity": 0.7401574803149606
        },
        {
          "duration": 0.01351640624999817,
          "durationTicks": 10,
          "midi": 36,
          "name": "C2",
          "ticks": 21582,
          "time": 29.17110796875,
          "velocity": 0.8267716535433071
        },
        {
          "duration": 0.01351640624999817,
          "durationTicks": 10,
          "midi": 82,
          "name": "A#5",
          "ticks": 21774,
          "time": 29.43062296875,
          "velocity": 0.5826771653543307
        },
        {
          "duration": 0.01351640624999817,
          "durationTicks": 10,
          "midi": 82,
          "name": "A#5",
          "ticks": 21870,
          "time": 29.56038046875,
          "velocity": 0.5826771653543307
        },
        {
          "duration": 0.01351640624999817,
          "durationTicks": 10,
          "midi": 38,
          "name": "D2",
          "ticks": 21968,
          "time": 29.69284125,
          "velocity": 0.9212598425196851
        },
        {
          "duration": 0.010813125000002088,
          "durationTicks": 8,
          "midi": 82,
          "name": "A#5",
          "ticks": 22156,
          "time": 29.9469496875,
          "velocity": 0.5826771653543307
        },
        {
          "duration": 0.01351640624999817,
          "durationTicks": 10,
          "midi": 82,
          "name": "A#5",
          "ticks": 22250,
          "time": 30.074003906250002,
          "velocity": 0.5275590551181102
        },
        {
          "duration": 0.01351640624999817,
          "durationTicks": 10,
          "midi": 36,
          "name": "C2",
          "ticks": 22256,
          "time": 30.08211375,
          "velocity": 0.8267716535433071
        },
        {
          "duration": 0.013516406250001722,
          "durationTicks": 10,
          "midi": 36,
          "name": "C2",
          "ticks": 22538,
          "time": 30.46327640625,
          "velocity": 0.8503937007874016
        },
        {
          "duration": 0.010813125000002088,
          "durationTicks": 8,
          "midi": 82,
          "name": "A#5",
          "ticks": 22540,
          "time": 30.4659796875,
          "velocity": 0.4645669291338583
        },
        {
          "duration": 0.010813124999998536,
          "durationTicks": 8,
          "midi": 82,
          "name": "A#5",
          "ticks": 22636,
          "time": 30.5957371875,
          "velocity": 0.5826771653543307
        },
        {
          "duration": 0.010813124999994983,
          "durationTicks": 8,
          "midi": 38,
          "name": "D2",
          "ticks": 22736,
          "time": 30.730901250000002,
          "velocity": 0.9212598425196851
        },
        {
          "duration": 0.013516406250001722,
          "durationTicks": 10,
          "midi": 82,
          "name": "A#5",
          "ticks": 22924,
          "time": 30.9850096875,
          "velocity": 0.5826771653543307
        },
        {
          "duration": 0.013516406250005275,
          "durationTicks": 10,
          "midi": 82,
          "name": "A#5",
          "ticks": 23020,
          "time": 31.114767187499996,
          "velocity": 0.5275590551181102
        },
        {
          "duration": 0.01351640624999817,
          "durationTicks": 10,
          "midi": 36,
          "name": "C2",
          "ticks": 23118,
          "time": 31.24722796875,
          "velocity": 0.9212598425196851
        },
        {
          "duration": 0.010813125000002088,
          "durationTicks": 8,
          "midi": 82,
          "name": "A#5",
          "ticks": 23308,
          "time": 31.504039687499997,
          "velocity": 0.4094488188976378
        },
        {
          "duration": 0.010813125000002088,
          "durationTicks": 8,
          "midi": 82,
          "name": "A#5",
          "ticks": 23404,
          "time": 31.633797187499997,
          "velocity": 0.4094488188976378
        },
        {
          "duration": 0.013516406250001722,
          "durationTicks": 10,
          "midi": 38,
          "name": "D2",
          "ticks": 23500,
          "time": 31.763554687499997,
          "velocity": 0.8740157480314961
        },
        {
          "duration": 0.013516406250005275,
          "durationTicks": 10,
          "midi": 82,
          "name": "A#5",
          "ticks": 23692,
          "time": 32.0230696875,
          "velocity": 0.48031496062992124
        },
        {
          "duration": 0.010813124999998536,
          "durationTicks": 8,
          "midi": 82,
          "name": "A#5",
          "ticks": 23788,
          "time": 32.1528271875,
          "velocity": 0.5275590551181102
        },
        {
          "duration": 0.01351640624999817,
          "durationTicks": 10,
          "midi": 36,
          "name": "C2",
          "ticks": 23790,
          "time": 32.15553046875,
          "velocity": 0.8740157480314961
        },
        {
          "duration": 0.01351640624999817,
          "durationTicks": 10,
          "midi": 82,
          "name": "A#5",
          "ticks": 24074,
          "time": 32.53939640625,
          "velocity": 0.1968503937007874
        },
        {
          "duration": 0.013516406250005275,
          "durationTicks": 10,
          "midi": 36,
          "name": "C2",
          "ticks": 24076,
          "time": 32.5420996875,
          "velocity": 0.8740157480314961
        },
        {
          "duration": 0.01351640624999817,
          "durationTicks": 10,
          "midi": 82,
          "name": "A#5",
          "ticks": 24170,
          "time": 32.66915390625,
          "velocity": 0.5118110236220472
        },
        {
          "duration": 0.010813124999998536,
          "durationTicks": 8,
          "midi": 38,
          "name": "D2",
          "ticks": 24272,
          "time": 32.80702125,
          "velocity": 0.8976377952755905
        },
        {
          "duration": 0.010813124999998536,
          "durationTicks": 8,
          "midi": 82,
          "name": "A#5",
          "ticks": 24460,
          "time": 33.0611296875,
          "velocity": 0.5826771653543307
        },
        {
          "duration": 0.010813125000005641,
          "durationTicks": 8,
          "midi": 82,
          "name": "A#5",
          "ticks": 24556,
          "time": 33.190887187499996,
          "velocity": 0.48031496062992124
        },
        {
          "duration": 0.010813125000005641,
          "durationTicks": 8,
          "midi": 36,
          "name": "C2",
          "ticks": 24656,
          "time": 33.32605125,
          "velocity": 0.8503937007874016
        },
        {
          "duration": 0.01351640624999817,
          "durationTicks": 10,
          "midi": 82,
          "name": "A#5",
          "ticks": 24844,
          "time": 33.5801596875,
          "velocity": 0.5275590551181102
        },
        {
          "duration": 0.013516406249991064,
          "durationTicks": 10,
          "midi": 82,
          "name": "A#5",
          "ticks": 24940,
          "time": 33.709917187500004,
          "velocity": 0.4881889763779528
        },
        {
          "duration": 0.013516406250005275,
          "durationTicks": 10,
          "midi": 38,
          "name": "D2",
          "ticks": 25038,
          "time": 33.84237796875,
          "velocity": 0.8267716535433071
        },
        {
          "duration": 0.01351640624999817,
          "durationTicks": 10,
          "midi": 82,
          "name": "A#5",
          "ticks": 25228,
          "time": 34.0991896875,
          "velocity": 0.5511811023622047
        },
        {
          "duration": 0.013516406249991064,
          "durationTicks": 10,
          "midi": 82,
          "name": "A#5",
          "ticks": 25324,
          "time": 34.228947187500005,
          "velocity": 0.3858267716535433
        },
        {
          "duration": 0.013516406250005275,
          "durationTicks": 10,
          "midi": 36,
          "name": "C2",
          "ticks": 25326,
          "time": 34.23165046875,
          "velocity": 0.8976377952755905
        },
        {
          "duration": 0.01351640624999817,
          "durationTicks": 10,
          "midi": 82,
          "name": "A#5",
          "ticks": 25612,
          "time": 34.6182196875,
          "velocity": 0.4094488188976378
        },
        {
          "duration": 0.01351640624999817,
          "durationTicks": 10,
          "midi": 36,
          "name": "C2",
          "ticks": 25612,
          "time": 34.6182196875,
          "velocity": 0.8740157480314961
        },
        {
          "duration": 0.013516406249991064,
          "durationTicks": 10,
          "midi": 82,
          "name": "A#5",
          "ticks": 25708,
          "time": 34.747977187500005,
          "velocity": 0.44881889763779526
        },
        {
          "duration": 0.01351640624999817,
          "durationTicks": 10,
          "midi": 38,
          "name": "D2",
          "ticks": 25806,
          "time": 34.88043796875,
          "velocity": 0.9212598425196851
        },
        {
          "duration": 0.013516406249991064,
          "durationTicks": 10,
          "midi": 82,
          "name": "A#5",
          "ticks": 25996,
          "time": 35.1372496875,
          "velocity": 0.5511811023622047
        },
        {
          "duration": 0.01351640624999817,
          "durationTicks": 10,
          "midi": 82,
          "name": "A#5",
          "ticks": 26092,
          "time": 35.2670071875,
          "velocity": 0.4881889763779528
        },
        {
          "duration": 0.01351640624999817,
          "durationTicks": 10,
          "midi": 36,
          "name": "C2",
          "ticks": 26190,
          "time": 35.39946796875,
          "velocity": 0.8976377952755905
        },
        {
          "duration": 0.013516406249991064,
          "durationTicks": 10,
          "midi": 82,
          "name": "A#5",
          "ticks": 26380,
          "time": 35.6562796875,
          "velocity": 0.5826771653543307
        },
        {
          "duration": 0.01351640624999817,
          "durationTicks": 10,
          "midi": 36,
          "name": "C2",
          "ticks": 26382,
          "time": 35.65898296875,
          "velocity": 0.7795275590551181
        },
        {
          "duration": 0.01351640624999817,
          "durationTicks": 10,
          "midi": 82,
          "name": "A#5",
          "ticks": 26476,
          "time": 35.7860371875,
          "velocity": 0.5511811023622047
        },
        {
          "duration": 0.013516406250005275,
          "durationTicks": 10,
          "midi": 38,
          "name": "D2",
          "ticks": 26574,
          "time": 35.918497968749996,
          "velocity": 0.9212598425196851
        },
        {
          "duration": 0.013516406249991064,
          "durationTicks": 10,
          "midi": 82,
          "name": "A#5",
          "ticks": 26764,
          "time": 36.175309687500004,
          "velocity": 0.4881889763779528
        },
        {
          "duration": 0.01351640624999817,
          "durationTicks": 10,
          "midi": 82,
          "name": "A#5",
          "ticks": 26860,
          "time": 36.3050671875,
          "velocity": 0.5275590551181102
        },
        {
          "duration": 0.01351640624999817,
          "durationTicks": 10,
          "midi": 36,
          "name": "C2",
          "ticks": 26860,
          "time": 36.3050671875,
          "velocity": 0.8267716535433071
        },
        {
          "duration": 0.01081312499999143,
          "durationTicks": 8,
          "midi": 82,
          "name": "A#5",
          "ticks": 27148,
          "time": 36.694339687500005,
          "velocity": 0.1732283464566929
        },
        {
          "duration": 0.013516406249991064,
          "durationTicks": 10,
          "midi": 36,
          "name": "C2",
          "ticks": 27148,
          "time": 36.694339687500005,
          "velocity": 0.8976377952755905
        },
        {
          "duration": 0.010813124999998536,
          "durationTicks": 8,
          "midi": 82,
          "name": "A#5",
          "ticks": 27244,
          "time": 36.8240971875,
          "velocity": 0.4645669291338583
        },
        {
          "duration": 0.013516406250005275,
          "durationTicks": 10,
          "midi": 38,
          "name": "D2",
          "ticks": 27342,
          "time": 36.95655796875,
          "velocity": 0.9448818897637795
        },
        {
          "duration": 0.01351640624999817,
          "durationTicks": 10,
          "midi": 82,
          "name": "A#5",
          "ticks": 27532,
          "time": 37.2133696875,
          "velocity": 0.5826771653543307
        },
        {
          "duration": 0.01351640624999817,
          "durationTicks": 10,
          "midi": 82,
          "name": "A#5",
          "ticks": 27628,
          "time": 37.3431271875,
          "velocity": 0.44881889763779526
        },
        {
          "duration": 0.010813125000005641,
          "durationTicks": 8,
          "midi": 36,
          "name": "C2",
          "ticks": 27728,
          "time": 37.47829125,
          "velocity": 0.8976377952755905
        },
        {
          "duration": 0.01351640624999817,
          "durationTicks": 10,
          "midi": 82,
          "name": "A#5",
          "ticks": 27916,
          "time": 37.7323996875,
          "velocity": 0.2755905511811024
        },
        {
          "duration": 0.01351640624999817,
          "durationTicks": 10,
          "midi": 82,
          "name": "A#5",
          "ticks": 28014,
          "time": 37.86486046875,
          "velocity": 0.4881889763779528
        },
        {
          "duration": 0.013516406250005275,
          "durationTicks": 10,
          "midi": 38,
          "name": "D2",
          "ticks": 28110,
          "time": 37.99461796875,
          "velocity": 0.8976377952755905
        },
        {
          "duration": 0.01351640624999817,
          "durationTicks": 10,
          "midi": 82,
          "name": "A#5",
          "ticks": 28300,
          "time": 38.2514296875,
          "velocity": 0.5984251968503937
        },
        {
          "duration": 0.013516406249991064,
          "durationTicks": 10,
          "midi": 82,
          "name": "A#5",
          "ticks": 28396,
          "time": 38.381187187500004,
          "velocity": 0.48031496062992124
        },
        {
          "duration": 0.010813125000005641,
          "durationTicks": 8,
          "midi": 36,
          "name": "C2",
          "ticks": 28400,
          "time": 38.386593749999996,
          "velocity": 0.8740157480314961
        },
        {
          "duration": 0.013516406250005275,
          "durationTicks": 10,
          "midi": 82,
          "name": "A#5",
          "ticks": 28682,
          "time": 38.767756406249994,
          "velocity": 0.4094488188976378
        },
        {
          "duration": 0.01351640624999817,
          "durationTicks": 10,
          "midi": 36,
          "name": "C2",
          "ticks": 28684,
          "time": 38.7704596875,
          "velocity": 0.8267716535433071
        },
        {
          "duration": 0.01081312499999143,
          "durationTicks": 8,
          "midi": 82,
          "name": "A#5",
          "ticks": 28780,
          "time": 38.900217187500004,
          "velocity": 0.48031496062992124
        },
        {
          "duration": 0.01351640624999817,
          "durationTicks": 10,
          "midi": 38,
          "name": "D2",
          "ticks": 28878,
          "time": 39.03267796875,
          "velocity": 0.8503937007874016
        },
        {
          "duration": 0.01351640624999817,
          "durationTicks": 10,
          "midi": 82,
          "name": "A#5",
          "ticks": 29068,
          "time": 39.2894896875,
          "velocity": 0.5275590551181102
        },
        {
          "duration": 0.013516406249991064,
          "durationTicks": 10,
          "midi": 82,
          "name": "A#5",
          "ticks": 29164,
          "time": 39.419247187500005,
          "velocity": 0.4645669291338583
        },
        {
          "duration": 0.010813125000005641,
          "durationTicks": 8,
          "midi": 36,
          "name": "C2",
          "ticks": 29264,
          "time": 39.554411249999994,
          "velocity": 0.8267716535433071
        },
        {
          "duration": 0.013516406250005275,
          "durationTicks": 10,
          "midi": 82,
          "name": "A#5",
          "ticks": 29450,
          "time": 39.805816406249996,
          "velocity": 0.3858267716535433
        },
        {
          "duration": 0.01351640624999817,
          "durationTicks": 10,
          "midi": 82,
          "name": "A#5",
          "ticks": 29546,
          "time": 39.93557390625,
          "velocity": 0.44881889763779526
        },
        {
          "duration": 0.010813124999998536,
          "durationTicks": 8,
          "midi": 38,
          "name": "D2",
          "ticks": 29644,
          "time": 40.0680346875,
          "velocity": 0.8503937007874016
        },
        {
          "duration": 0.013516406250005275,
          "durationTicks": 10,
          "midi": 82,
          "name": "A#5",
          "ticks": 29834,
          "time": 40.324846406249996,
          "velocity": 0.5826771653543307
        },
        {
          "duration": 0.010813124999998536,
          "durationTicks": 8,
          "midi": 82,
          "name": "A#5",
          "ticks": 29932,
          "time": 40.4573071875,
          "velocity": 0.4094488188976378
        },
        {
          "duration": 0.01351640624999817,
          "durationTicks": 10,
          "midi": 36,
          "name": "C2",
          "ticks": 29932,
          "time": 40.4573071875,
          "velocity": 0.8740157480314961
        },
        {
          "duration": 0.013516406250005275,
          "durationTicks": 10,
          "midi": 82,
          "name": "A#5",
          "ticks": 30218,
          "time": 40.84387640625,
          "velocity": 0.5118110236220472
        },
        {
          "duration": 0.013516406249991064,
          "durationTicks": 10,
          "midi": 36,
          "name": "C2",
          "ticks": 30220,
          "time": 40.846579687500004,
          "velocity": 0.8740157480314961
        },
        {
          "duration": 0.013516406250005275,
          "durationTicks": 10,
          "midi": 82,
          "name": "A#5",
          "ticks": 30314,
          "time": 40.973633906249994,
          "velocity": 0.2755905511811024
        },
        {
          "duration": 0.013516406249991064,
          "durationTicks": 10,
          "midi": 38,
          "name": "D2",
          "ticks": 30412,
          "time": 41.106094687500004,
          "velocity": 0.9448818897637795
        },
        {
          "duration": 0.01351640624999817,
          "durationTicks": 10,
          "midi": 82,
          "name": "A#5",
          "ticks": 30602,
          "time": 41.36290640625,
          "velocity": 0.5826771653543307
        },
        {
          "duration": 0.013516406250005275,
          "durationTicks": 10,
          "midi": 82,
          "name": "A#5",
          "ticks": 30698,
          "time": 41.492663906249994,
          "velocity": 0.4094488188976378
        },
        {
          "duration": 0.013516406250005275,
          "durationTicks": 10,
          "midi": 36,
          "name": "C2",
          "ticks": 30798,
          "time": 41.62782796875,
          "velocity": 0.8740157480314961
        },
        {
          "duration": 0.01351640624999817,
          "durationTicks": 10,
          "midi": 82,
          "name": "A#5",
          "ticks": 30986,
          "time": 41.88193640625,
          "velocity": 0.5118110236220472
        },
        {
          "duration": 0.013516406250005275,
          "durationTicks": 10,
          "midi": 82,
          "name": "A#5",
          "ticks": 31082,
          "time": 42.011693906249995,
          "velocity": 0.48031496062992124
        },
        {
          "duration": 0.013516406250005275,
          "durationTicks": 10,
          "midi": 38,
          "name": "D2",
          "ticks": 31182,
          "time": 42.14685796875,
          "velocity": 0.8740157480314961
        },
        {
          "duration": 0.01351640624999817,
          "durationTicks": 10,
          "midi": 82,
          "name": "A#5",
          "ticks": 31370,
          "time": 42.40096640625,
          "velocity": 0.5118110236220472
        },
        {
          "duration": 0.010813124999998536,
          "durationTicks": 8,
          "midi": 82,
          "name": "A#5",
          "ticks": 31468,
          "time": 42.5334271875,
          "velocity": 0.5984251968503937
        },
        {
          "duration": 0.013516406250005275,
          "durationTicks": 10,
          "midi": 36,
          "name": "C2",
          "ticks": 31472,
          "time": 42.538833749999995,
          "velocity": 0.8267716535433071
        },
        {
          "duration": 0.01351640624999817,
          "durationTicks": 10,
          "midi": 82,
          "name": "A#5",
          "ticks": 31754,
          "time": 42.91999640625,
          "velocity": 0.5511811023622047
        },
        {
          "duration": 0.013516406250005275,
          "durationTicks": 10,
          "midi": 36,
          "name": "C2",
          "ticks": 31758,
          "time": 42.92540296875,
          "velocity": 0.8976377952755905
        },
        {
          "duration": 0.013516406249991064,
          "durationTicks": 10,
          "midi": 82,
          "name": "A#5",
          "ticks": 31852,
          "time": 43.0524571875,
          "velocity": 0.4881889763779528
        },
        {
          "duration": 0.010813125000005641,
          "durationTicks": 8,
          "midi": 38,
          "name": "D2",
          "ticks": 31952,
          "time": 43.18762125,
          "velocity": 0.9448818897637795
        },
        {
          "duration": 0.01351640624999817,
          "durationTicks": 10,
          "midi": 82,
          "name": "A#5",
          "ticks": 32140,
          "time": 43.4417296875,
          "velocity": 0.6141732283464567
        },
        {
          "duration": 0.013516406249991064,
          "durationTicks": 10,
          "midi": 82,
          "name": "A#5",
          "ticks": 32236,
          "time": 43.571487187500004,
          "velocity": 0.5275590551181102
        },
        {
          "duration": 0.010813124999998536,
          "durationTicks": 8,
          "midi": 36,
          "name": "C2",
          "ticks": 32336,
          "time": 43.70665125,
          "velocity": 0.8740157480314961
        },
        {
          "duration": 0.01351640624999817,
          "durationTicks": 10,
          "midi": 82,
          "name": "A#5",
          "ticks": 32524,
          "time": 43.9607596875,
          "velocity": 0.5511811023622047
        },
        {
          "duration": 0.013516406249991064,
          "durationTicks": 10,
          "midi": 82,
          "name": "A#5",
          "ticks": 32620,
          "time": 44.090517187500005,
          "velocity": 0.4881889763779528
        },
        {
          "duration": 0.01351640624999817,
          "durationTicks": 10,
          "midi": 38,
          "name": "D2",
          "ticks": 32716,
          "time": 44.2202746875,
          "velocity": 0.8267716535433071
        },
        {
          "duration": 0.013516406250005275,
          "durationTicks": 10,
          "midi": 36,
          "name": "C2",
          "ticks": 33006,
          "time": 44.61225046875,
          "velocity": 0.8976377952755905
        },
        {
          "duration": 0.013516406249991064,
          "durationTicks": 10,
          "midi": 36,
          "name": "C2",
          "ticks": 33292,
          "time": 44.9988196875,
          "velocity": 0.8267716535433071
        },
        {
          "duration": 0.010813125000005641,
          "durationTicks": 8,
          "midi": 38,
          "name": "D2",
          "ticks": 33488,
          "time": 45.263741249999995,
          "velocity": 0.8740157480314961
        },
        {
          "duration": 0.013516406250005275,
          "durationTicks": 10,
          "midi": 46,
          "name": "A#2",
          "ticks": 33866,
          "time": 45.77466140625,
          "velocity": 0.7401574803149606
        },
        {
          "duration": 0.013516406250005275,
          "durationTicks": 10,
          "midi": 36,
          "name": "C2",
          "ticks": 33870,
          "time": 45.78006796875,
          "velocity": 0.8267716535433071
        },
        {
          "duration": 0.013516406250005275,
          "durationTicks": 10,
          "midi": 82,
          "name": "A#5",
          "ticks": 34062,
          "time": 46.03958296875,
          "velocity": 0.5826771653543307
        },
        {
          "duration": 0.01351640624999817,
          "durationTicks": 10,
          "midi": 82,
          "name": "A#5",
          "ticks": 34156,
          "time": 46.1666371875,
          "velocity": 0.5826771653543307
        },
        {
          "duration": 0.010813125000005641,
          "durationTicks": 8,
          "midi": 38,
          "name": "D2",
          "ticks": 34256,
          "time": 46.30180125,
          "velocity": 0.9212598425196851
        },
        {
          "duration": 0.01351640624999817,
          "durationTicks": 10,
          "midi": 82,
          "name": "A#5",
          "ticks": 34442,
          "time": 46.55320640625,
          "velocity": 0.5826771653543307
        },
        {
          "duration": 0.013516406250005275,
          "durationTicks": 10,
          "midi": 82,
          "name": "A#5",
          "ticks": 34538,
          "time": 46.682963906249995,
          "velocity": 0.5275590551181102
        },
        {
          "duration": 0.010813125000005641,
          "durationTicks": 8,
          "midi": 36,
          "name": "C2",
          "ticks": 34544,
          "time": 46.691073749999994,
          "velocity": 0.8267716535433071
        },
        {
          "duration": 0.01351640624999817,
          "durationTicks": 10,
          "midi": 82,
          "name": "A#5",
          "ticks": 34826,
          "time": 47.07223640625,
          "velocity": 0.4645669291338583
        },
        {
          "duration": 0.01351640624999817,
          "durationTicks": 10,
          "midi": 36,
          "name": "C2",
          "ticks": 34826,
          "time": 47.07223640625,
          "velocity": 0.8503937007874016
        },
        {
          "duration": 0.013516406250005275,
          "durationTicks": 10,
          "midi": 82,
          "name": "A#5",
          "ticks": 34922,
          "time": 47.201993906249996,
          "velocity": 0.5826771653543307
        },
        {
          "duration": 0.013516406250005275,
          "durationTicks": 10,
          "midi": 38,
          "name": "D2",
          "ticks": 35022,
          "time": 47.33715796875,
          "velocity": 0.9212598425196851
        },
        {
          "duration": 0.01351640624999817,
          "durationTicks": 10,
          "midi": 82,
          "name": "A#5",
          "ticks": 35212,
          "time": 47.5939696875,
          "velocity": 0.5826771653543307
        },
        {
          "duration": 0.013516406249991064,
          "durationTicks": 10,
          "midi": 82,
          "name": "A#5",
          "ticks": 35308,
          "time": 47.7237271875,
          "velocity": 0.5275590551181102
        },
        {
          "duration": 0.013516406250005275,
          "durationTicks": 10,
          "midi": 36,
          "name": "C2",
          "ticks": 35406,
          "time": 47.85618796875,
          "velocity": 0.9212598425196851
        },
        {
          "duration": 0.013516406250005275,
          "durationTicks": 10,
          "midi": 82,
          "name": "A#5",
          "ticks": 35594,
          "time": 48.110296406249994,
          "velocity": 0.4094488188976378
        },
        {
          "duration": 0.013516406250005275,
          "durationTicks": 10,
          "midi": 82,
          "name": "A#5",
          "ticks": 35690,
          "time": 48.24005390625,
          "velocity": 0.4094488188976378
        },
        {
          "duration": 0.01351640624999817,
          "durationTicks": 10,
          "midi": 38,
          "name": "D2",
          "ticks": 35788,
          "time": 48.3725146875,
          "velocity": 0.8740157480314961
        },
        {
          "duration": 0.010813124999998536,
          "durationTicks": 8,
          "midi": 82,
          "name": "A#5",
          "ticks": 35980,
          "time": 48.6320296875,
          "velocity": 0.48031496062992124
        },
        {
          "duration": 0.01351640624999817,
          "durationTicks": 10,
          "midi": 82,
          "name": "A#5",
          "ticks": 36074,
          "time": 48.75908390625,
          "velocity": 0.5275590551181102
        },
        {
          "duration": 0.013516406249991064,
          "durationTicks": 10,
          "midi": 36,
          "name": "C2",
          "ticks": 36076,
          "time": 48.761787187500005,
          "velocity": 0.8740157480314961
        },
        {
          "duration": 0.013516406250005275,
          "durationTicks": 10,
          "midi": 82,
          "name": "A#5",
          "ticks": 36362,
          "time": 49.148356406249995,
          "velocity": 0.1968503937007874
        },
        {
          "duration": 0.01351640624999817,
          "durationTicks": 10,
          "midi": 36,
          "name": "C2",
          "ticks": 36364,
          "time": 49.1510596875,
          "velocity": 0.8740157480314961
        },
        {
          "duration": 0.01351640624999817,
          "durationTicks": 10,
          "midi": 82,
          "name": "A#5",
          "ticks": 36458,
          "time": 49.27811390625,
          "velocity": 0.5118110236220472
        },
        {
          "duration": 0.01351640624999817,
          "durationTicks": 10,
          "midi": 38,
          "name": "D2",
          "ticks": 36558,
          "time": 49.41327796875,
          "velocity": 0.8976377952755905
        },
        {
          "duration": 0.013516406250005275,
          "durationTicks": 10,
          "midi": 82,
          "name": "A#5",
          "ticks": 36746,
          "time": 49.667386406249996,
          "velocity": 0.5826771653543307
        },
        {
          "duration": 0.01351640624999817,
          "durationTicks": 10,
          "midi": 82,
          "name": "A#5",
          "ticks": 36842,
          "time": 49.79714390625,
          "velocity": 0.48031496062992124
        },
        {
          "duration": 0.01351640624999817,
          "durationTicks": 10,
          "midi": 36,
          "name": "C2",
          "ticks": 36942,
          "time": 49.93230796875,
          "velocity": 0.8503937007874016
        },
        {
          "duration": 0.010813124999998536,
          "durationTicks": 8,
          "midi": 82,
          "name": "A#5",
          "ticks": 37132,
          "time": 50.1891196875,
          "velocity": 0.5275590551181102
        },
        {
          "duration": 0.010813124999998536,
          "durationTicks": 8,
          "midi": 82,
          "name": "A#5",
          "ticks": 37228,
          "time": 50.3188771875,
          "velocity": 0.4881889763779528
        },
        {
          "duration": 0.013516406249991064,
          "durationTicks": 10,
          "midi": 38,
          "name": "D2",
          "ticks": 37324,
          "time": 50.448634687500004,
          "velocity": 0.8267716535433071
        },
        {
          "duration": 0.01081312499999143,
          "durationTicks": 8,
          "midi": 82,
          "name": "A#5",
          "ticks": 37516,
          "time": 50.708149687500004,
          "velocity": 0.5511811023622047
        },
        {
          "duration": 0.010813124999998536,
          "durationTicks": 8,
          "midi": 82,
          "name": "A#5",
          "ticks": 37612,
          "time": 50.8379071875,
          "velocity": 0.3858267716535433
        },
        {
          "duration": 0.01351640624999817,
          "durationTicks": 10,
          "midi": 36,
          "name": "C2",
          "ticks": 37612,
          "time": 50.8379071875,
          "velocity": 0.8976377952755905
        },
        {
          "duration": 0.013516406249991064,
          "durationTicks": 10,
          "midi": 82,
          "name": "A#5",
          "ticks": 37900,
          "time": 51.227179687500005,
          "velocity": 0.4094488188976378
        },
        {
          "duration": 0.013516406249991064,
          "durationTicks": 10,
          "midi": 36,
          "name": "C2",
          "ticks": 37900,
          "time": 51.227179687500005,
          "velocity": 0.8740157480314961
        },
        {
          "duration": 0.01351640624999817,
          "durationTicks": 10,
          "midi": 82,
          "name": "A#5",
          "ticks": 37996,
          "time": 51.3569371875,
          "velocity": 0.44881889763779526
        },
        {
          "duration": 0.013516406250005275,
          "durationTicks": 10,
          "midi": 38,
          "name": "D2",
          "ticks": 38094,
          "time": 51.48939796875,
          "velocity": 0.9212598425196851
        },
        {
          "duration": 0.01351640624999817,
          "durationTicks": 10,
          "midi": 82,
          "name": "A#5",
          "ticks": 38284,
          "time": 51.7462096875,
          "velocity": 0.5511811023622047
        },
        {
          "duration": 0.013516406249991064,
          "durationTicks": 10,
          "midi": 82,
          "name": "A#5",
          "ticks": 38380,
          "time": 51.8759671875,
          "velocity": 0.4881889763779528
        },
        {
          "duration": 0.01351640624999817,
          "durationTicks": 10,
          "midi": 36,
          "name": "C2",
          "ticks": 38476,
          "time": 52.0057246875,
          "velocity": 0.8976377952755905
        },
        {
          "duration": 0.010813124999998536,
          "durationTicks": 8,
          "midi": 82,
          "name": "A#5",
          "ticks": 38668,
          "time": 52.2652396875,
          "velocity": 0.5826771653543307
        },
        {
          "duration": 0.01351640624999817,
          "durationTicks": 10,
          "midi": 36,
          "name": "C2",
          "ticks": 38668,
          "time": 52.2652396875,
          "velocity": 0.7795275590551181
        },
        {
          "duration": 0.013516406249991064,
          "durationTicks": 10,
          "midi": 82,
          "name": "A#5",
          "ticks": 38764,
          "time": 52.3949971875,
          "velocity": 0.5511811023622047
        },
        {
          "duration": 0.01351640624999817,
          "durationTicks": 10,
          "midi": 38,
          "name": "D2",
          "ticks": 38860,
          "time": 52.5247546875,
          "velocity": 0.9212598425196851
        },
        {
          "duration": 0.010813124999998536,
          "durationTicks": 8,
          "midi": 82,
          "name": "A#5",
          "ticks": 39052,
          "time": 52.7842696875,
          "velocity": 0.4881889763779528
        },
        {
          "duration": 0.013516406249991064,
          "durationTicks": 10,
          "midi": 82,
          "name": "A#5",
          "ticks": 39148,
          "time": 52.914027187500004,
          "velocity": 0.5275590551181102
        },
        {
          "duration": 0.013516406249991064,
          "durationTicks": 10,
          "midi": 36,
          "name": "C2",
          "ticks": 39148,
          "time": 52.914027187500004,
          "velocity": 0.8267716535433071
        },
        {
          "duration": 0.013516406250005275,
          "durationTicks": 10,
          "midi": 82,
          "name": "A#5",
          "ticks": 39434,
          "time": 53.300596406249994,
          "velocity": 0.1732283464566929
        },
        {
          "duration": 0.01351640624999817,
          "durationTicks": 10,
          "midi": 36,
          "name": "C2",
          "ticks": 39436,
          "time": 53.3032996875,
          "velocity": 0.8976377952755905
        },
        {
          "duration": 0.01351640624999817,
          "durationTicks": 10,
          "midi": 82,
          "name": "A#5",
          "ticks": 39530,
          "time": 53.43035390625,
          "velocity": 0.4645669291338583
        },
        {
          "duration": 0.01351640624999817,
          "durationTicks": 10,
          "midi": 38,
          "name": "D2",
          "ticks": 39630,
          "time": 53.56551796875,
          "velocity": 0.9448818897637795
        },
        {
          "duration": 0.010813124999998536,
          "durationTicks": 8,
          "midi": 82,
          "name": "A#5",
          "ticks": 39820,
          "time": 53.8223296875,
          "velocity": 0.5826771653543307
        },
        {
          "duration": 0.010813124999998536,
          "durationTicks": 8,
          "midi": 82,
          "name": "A#5",
          "ticks": 39916,
          "time": 53.9520871875,
          "velocity": 0.44881889763779526
        },
        {
          "duration": 0.01351640624999817,
          "durationTicks": 10,
          "midi": 36,
          "name": "C2",
          "ticks": 40014,
          "time": 54.08454796875,
          "velocity": 0.8976377952755905
        },
        {
          "duration": 0.013516406249991064,
          "durationTicks": 10,
          "midi": 82,
          "name": "A#5",
          "ticks": 40204,
          "time": 54.3413596875,
          "velocity": 0.2755905511811024
        },
        {
          "duration": 0.01351640624999817,
          "durationTicks": 10,
          "midi": 82,
          "name": "A#5",
          "ticks": 40300,
          "time": 54.4711171875,
          "velocity": 0.4881889763779528
        },
        {
          "duration": 0.013516406249991064,
          "durationTicks": 10,
          "midi": 38,
          "name": "D2",
          "ticks": 40396,
          "time": 54.6008746875,
          "velocity": 0.8976377952755905
        },
        {
          "duration": 0.013516406249991064,
          "durationTicks": 10,
          "midi": 82,
          "name": "A#5",
          "ticks": 40588,
          "time": 54.8603896875,
          "velocity": 0.5984251968503937
        },
        {
          "duration": 0.01351640624999817,
          "durationTicks": 10,
          "midi": 82,
          "name": "A#5",
          "ticks": 40684,
          "time": 54.9901471875,
          "velocity": 0.48031496062992124
        },
        {
          "duration": 0.013516406250005275,
          "durationTicks": 10,
          "midi": 36,
          "name": "C2",
          "ticks": 40686,
          "time": 54.99285046875,
          "velocity": 0.8740157480314961
        },
        {
          "duration": 0.013516406250005275,
          "durationTicks": 10,
          "midi": 82,
          "name": "A#5",
          "ticks": 40970,
          "time": 55.37671640625,
          "velocity": 0.4094488188976378
        },
        {
          "duration": 0.013516406249991064,
          "durationTicks": 10,
          "midi": 36,
          "name": "C2",
          "ticks": 40972,
          "time": 55.379419687500004,
          "velocity": 0.8267716535433071
        },
        {
          "duration": 0.013516406250005275,
          "durationTicks": 10,
          "midi": 82,
          "name": "A#5",
          "ticks": 41066,
          "time": 55.506473906249994,
          "velocity": 0.48031496062992124
        },
        {
          "duration": 0.013516406250005275,
          "durationTicks": 10,
          "midi": 38,
          "name": "D2",
          "ticks": 41166,
          "time": 55.64163796875,
          "velocity": 0.8503937007874016
        },
        {
          "duration": 0.01081312499999143,
          "durationTicks": 8,
          "midi": 82,
          "name": "A#5",
          "ticks": 41356,
          "time": 55.898449687500005,
          "velocity": 0.5275590551181102
        },
        {
          "duration": 0.01351640624999817,
          "durationTicks": 10,
          "midi": 82,
          "name": "A#5",
          "ticks": 41452,
          "time": 56.0282071875,
          "velocity": 0.4645669291338583
        },
        {
          "duration": 0.013516406250005275,
          "durationTicks": 10,
          "midi": 36,
          "name": "C2",
          "ticks": 41550,
          "time": 56.16066796875,
          "velocity": 0.8267716535433071
        },
        {
          "duration": 0.01351640624999817,
          "durationTicks": 10,
          "midi": 82,
          "name": "A#5",
          "ticks": 41738,
          "time": 56.41477640625,
          "velocity": 0.3858267716535433
        },
        {
          "duration": 0.013516406250005275,
          "durationTicks": 10,
          "midi": 82,
          "name": "A#5",
          "ticks": 41834,
          "time": 56.544533906249995,
          "velocity": 0.44881889763779526
        },
        {
          "duration": 0.01351640624999817,
          "durationTicks": 10,
          "midi": 38,
          "name": "D2",
          "ticks": 41930,
          "time": 56.67429140625,
          "velocity": 0.8503937007874016
        },
        {
          "duration": 0.01351640624999817,
          "durationTicks": 10,
          "midi": 82,
          "name": "A#5",
          "ticks": 42122,
          "time": 56.93380640625,
          "velocity": 0.5826771653543307
        },
        {
          "duration": 0.013516406250005275,
          "durationTicks": 10,
          "midi": 82,
          "name": "A#5",
          "ticks": 42218,
          "time": 57.063563906249996,
          "velocity": 0.4094488188976378
        },
        {
          "duration": 0.010813124999998536,
          "durationTicks": 8,
          "midi": 36,
          "name": "C2",
          "ticks": 42220,
          "time": 57.0662671875,
          "velocity": 0.8740157480314961
        },
        {
          "duration": 0.01351640624999817,
          "durationTicks": 10,
          "midi": 82,
          "name": "A#5",
          "ticks": 42504,
          "time": 57.450133125,
          "velocity": 0.5118110236220472
        },
        {
          "duration": 0.010813124999998536,
          "durationTicks": 8,
          "midi": 36,
          "name": "C2",
          "ticks": 42508,
          "time": 57.4555396875,
          "velocity": 0.8740157480314961
        },
        {
          "duration": 0.013516406250005275,
          "durationTicks": 10,
          "midi": 82,
          "name": "A#5",
          "ticks": 42602,
          "time": 57.58259390625,
          "velocity": 0.2755905511811024
        },
        {
          "duration": 0.01351640624999817,
          "durationTicks": 10,
          "midi": 38,
          "name": "D2",
          "ticks": 42700,
          "time": 57.7150546875,
          "velocity": 0.9448818897637795
        },
        {
          "duration": 0.013516406250005275,
          "durationTicks": 10,
          "midi": 82,
          "name": "A#5",
          "ticks": 42890,
          "time": 57.971866406249994,
          "velocity": 0.5826771653543307
        },
        {
          "duration": 0.01351640624999817,
          "durationTicks": 10,
          "midi": 82,
          "name": "A#5",
          "ticks": 42986,
          "time": 58.10162390625,
          "velocity": 0.4094488188976378
        },
        {
          "duration": 0.01351640624999817,
          "durationTicks": 10,
          "midi": 36,
          "name": "C2",
          "ticks": 43086,
          "time": 58.23678796875,
          "velocity": 0.8740157480314961
        },
        {
          "duration": 0.013516406250005275,
          "durationTicks": 10,
          "midi": 82,
          "name": "A#5",
          "ticks": 43274,
          "time": 58.490896406249995,
          "velocity": 0.5118110236220472
        },
        {
          "duration": 0.01351640624999817,
          "durationTicks": 10,
          "midi": 82,
          "name": "A#5",
          "ticks": 43370,
          "time": 58.62065390625,
          "velocity": 0.48031496062992124
        },
        {
          "duration": 0.01351640624999817,
          "durationTicks": 10,
          "midi": 38,
          "name": "D2",
          "ticks": 43468,
          "time": 58.7531146875,
          "velocity": 0.8740157480314961
        },
        {
          "duration": 0.013516406250005275,
          "durationTicks": 10,
          "midi": 82,
          "name": "A#5",
          "ticks": 43658,
          "time": 59.009926406249996,
          "velocity": 0.5118110236220472
        },
        {
          "duration": 0.01351640624999817,
          "durationTicks": 10,
          "midi": 82,
          "name": "A#5",
          "ticks": 43754,
          "time": 59.13968390625,
          "velocity": 0.5984251968503937
        },
        {
          "duration": 0.010813125000005641,
          "durationTicks": 8,
          "midi": 36,
          "name": "C2",
          "ticks": 43760,
          "time": 59.14779375,
          "velocity": 0.8267716535433071
        },
        {
          "duration": 0.013516406250005275,
          "durationTicks": 10,
          "midi": 82,
          "name": "A#5",
          "ticks": 44042,
          "time": 59.528956406249996,
          "velocity": 0.5511811023622047
        },
        {
          "duration": 0.013516406250005275,
          "durationTicks": 10,
          "midi": 36,
          "name": "C2",
          "ticks": 44046,
          "time": 59.534362968749996,
          "velocity": 0.8976377952755905
        },
        {
          "duration": 0.01351640624999817,
          "durationTicks": 10,
          "midi": 82,
          "name": "A#5",
          "ticks": 44140,
          "time": 59.6614171875,
          "velocity": 0.4881889763779528
        },
        {
          "duration": 0.013516406250005275,
          "durationTicks": 10,
          "midi": 38,
          "name": "D2",
          "ticks": 44238,
          "time": 59.793877968749996,
          "velocity": 0.9448818897637795
        },
        {
          "duration": 0.013516406249991064,
          "durationTicks": 10,
          "midi": 82,
          "name": "A#5",
          "ticks": 44428,
          "time": 60.050689687500004,
          "velocity": 0.6141732283464567
        },
        {
          "duration": 0.01351640624999817,
          "durationTicks": 10,
          "midi": 82,
          "name": "A#5",
          "ticks": 44524,
          "time": 60.1804471875,
          "velocity": 0.5275590551181102
        },
        {
          "duration": 0.013516406250005275,
          "durationTicks": 10,
          "midi": 36,
          "name": "C2",
          "ticks": 44622,
          "time": 60.31290796875,
          "velocity": 0.8740157480314961
        },
        {
          "duration": 0.01081312499999143,
          "durationTicks": 8,
          "midi": 82,
          "name": "A#5",
          "ticks": 44812,
          "time": 60.569719687500005,
          "velocity": 0.5511811023622047
        },
        {
          "duration": 0.01351640624999817,
          "durationTicks": 10,
          "midi": 82,
          "name": "A#5",
          "ticks": 44908,
          "time": 60.6994771875,
          "velocity": 0.4881889763779528
        },
        {
          "duration": 0.01081312499999143,
          "durationTicks": 8,
          "midi": 38,
          "name": "D2",
          "ticks": 45004,
          "time": 60.829234687500005,
          "velocity": 0.8267716535433071
        },
        {
          "duration": 0.013516406249991064,
          "durationTicks": 10,
          "midi": 36,
          "name": "C2",
          "ticks": 45292,
          "time": 61.2185071875,
          "velocity": 0.8976377952755905
        },
        {
          "duration": 0.010813124999998536,
          "durationTicks": 8,
          "midi": 36,
          "name": "C2",
          "ticks": 45580,
          "time": 61.6077796875,
          "velocity": 0.8267716535433071
        },
        {
          "duration": 0.013516406250005275,
          "durationTicks": 10,
          "midi": 38,
          "name": "D2",
          "ticks": 45774,
          "time": 61.86999796875,
          "velocity": 0.8740157480314961
        },
        {
          "duration": 0.01351640624999817,
          "durationTicks": 10,
          "midi": 46,
          "name": "A#2",
          "ticks": 46152,
          "time": 62.380918125,
          "velocity": 0.7401574803149606
        },
        {
          "duration": 0.01351640624999817,
          "durationTicks": 10,
          "midi": 36,
          "name": "C2",
          "ticks": 46158,
          "time": 62.38902796875,
          "velocity": 0.8267716535433071
        },
        {
          "duration": 0.01351640624999817,
          "durationTicks": 10,
          "midi": 82,
          "name": "A#5",
          "ticks": 46348,
          "time": 62.6458396875,
          "velocity": 0.5511811023622047
        },
        {
          "duration": 0.013516406249991064,
          "durationTicks": 10,
          "midi": 82,
          "name": "A#5",
          "ticks": 46444,
          "time": 62.775597187500004,
          "velocity": 0.5826771653543307
        },
        {
          "duration": 0.013516406250005275,
          "durationTicks": 10,
          "midi": 44,
          "name": "G#2",
          "ticks": 46538,
          "time": 62.902651406249994,
          "velocity": 0.5354330708661418
        },
        {
          "duration": 0.01351640624999817,
          "durationTicks": 10,
          "midi": 38,
          "name": "D2",
          "ticks": 46540,
          "time": 62.9053546875,
          "velocity": 0.8976377952755905
        },
        {
          "duration": 0.01351640624999817,
          "durationTicks": 10,
          "midi": 42,
          "name": "F#2",
          "ticks": 46634,
          "time": 63.03240890625,
          "velocity": 0.6220472440944882
        },
        {
          "duration": 0.013516406250005275,
          "durationTicks": 10,
          "midi": 82,
          "name": "A#5",
          "ticks": 46730,
          "time": 63.162166406249995,
          "velocity": 0.5984251968503937
        },
        {
          "duration": 0.013516406250005275,
          "durationTicks": 10,
          "midi": 44,
          "name": "G#2",
          "ticks": 46730,
          "time": 63.162166406249995,
          "velocity": 0.5354330708661418
        },
        {
          "duration": 0.01351640624999817,
          "durationTicks": 10,
          "midi": 82,
          "name": "A#5",
          "ticks": 46826,
          "time": 63.29192390625,
          "velocity": 0.5511811023622047
        },
        {
          "duration": 0.010813124999998536,
          "durationTicks": 8,
          "midi": 46,
          "name": "A#2",
          "ticks": 46828,
          "time": 63.2946271875,
          "velocity": 0.5748031496062992
        },
        {
          "duration": 0.01351640624999817,
          "durationTicks": 10,
          "midi": 36,
          "name": "C2",
          "ticks": 46828,
          "time": 63.2946271875,
          "velocity": 0.8740157480314961
        },
        {
          "duration": 0.01351640624999817,
          "durationTicks": 10,
          "midi": 42,
          "name": "F#2",
          "ticks": 46920,
          "time": 63.418978125,
          "velocity": 0.5118110236220472
        },
        {
          "duration": 0.01351640624999817,
          "durationTicks": 10,
          "midi": 46,
          "name": "A#2",
          "ticks": 47020,
          "time": 63.5541421875,
          "velocity": 0.6929133858267716
        },
        {
          "duration": 0.013516406250005275,
          "durationTicks": 10,
          "midi": 82,
          "name": "A#5",
          "ticks": 47114,
          "time": 63.681196406249995,
          "velocity": 0.48031496062992124
        },
        {
          "duration": 0.013516406249991064,
          "durationTicks": 10,
          "midi": 42,
          "name": "F#2",
          "ticks": 47116,
          "time": 63.6838996875,
          "velocity": 0.44881889763779526
        },
        {
          "duration": 0.013516406249991064,
          "durationTicks": 10,
          "midi": 36,
          "name": "C2",
          "ticks": 47116,
          "time": 63.6838996875,
          "velocity": 0.8267716535433071
        },
        {
          "duration": 0.01351640624999817,
          "durationTicks": 10,
          "midi": 82,
          "name": "A#5",
          "ticks": 47210,
          "time": 63.81095390625,
          "velocity": 0.44881889763779526
        },
        {
          "duration": 0.01351640624999817,
          "durationTicks": 10,
          "midi": 44,
          "name": "G#2",
          "ticks": 47212,
          "time": 63.8136571875,
          "velocity": 0.5748031496062992
        },
        {
          "duration": 0.01351640624999817,
          "durationTicks": 10,
          "midi": 42,
          "name": "F#2",
          "ticks": 47310,
          "time": 63.94611796875,
          "velocity": 0.6929133858267716
        },
        {
          "duration": 0.01351640624999817,
          "durationTicks": 10,
          "midi": 38,
          "name": "D2",
          "ticks": 47310,
          "time": 63.94611796875,
          "velocity": 0.9212598425196851
        },
        {
          "duration": 0.013516406250005275,
          "durationTicks": 10,
          "midi": 44,
          "name": "G#2",
          "ticks": 47406,
          "time": 64.07587546875,
          "velocity": 0.49606299212598426
        },
        {
          "duration": 0.013516406250005275,
          "durationTicks": 10,
          "midi": 82,
          "name": "A#5",
          "ticks": 47498,
          "time": 64.20022640625,
          "velocity": 0.5826771653543307
        },
        {
          "duration": 0.013516406250005275,
          "durationTicks": 10,
          "midi": 42,
          "name": "F#2",
          "ticks": 47502,
          "time": 64.20563296875,
          "velocity": 0.5984251968503937
        },
        {
          "duration": 0.010813124999998536,
          "durationTicks": 8,
          "midi": 82,
          "name": "A#5",
          "ticks": 47596,
          "time": 64.3326871875,
          "velocity": 0.4645669291338583
        },
        {
          "duration": 0.013516406249991064,
          "durationTicks": 10,
          "midi": 44,
          "name": "G#2",
          "ticks": 47596,
          "time": 64.3326871875,
          "velocity": 0.5118110236220472
        },
        {
          "duration": 0.013516406250005275,
          "durationTicks": 10,
          "midi": 46,
          "name": "A#2",
          "ticks": 47692,
          "time": 64.4624446875,
          "velocity": 0.6377952755905512
        },
        {
          "duration": 0.010813125000012747,
          "durationTicks": 8,
          "midi": 36,
          "name": "C2",
          "ticks": 47696,
          "time": 64.46785125,
          "velocity": 0.8267716535433071
        },
        {
          "duration": 0.013516406250005275,
          "durationTicks": 10,
          "midi": 82,
          "name": "A#5",
          "ticks": 47882,
          "time": 64.71925640625,
          "velocity": 0.44881889763779526
        },
        {
          "duration": 0.013516406250005275,
          "durationTicks": 10,
          "midi": 82,
          "name": "A#5",
          "ticks": 47978,
          "time": 64.84901390625,
          "velocity": 0.5275590551181102
        },
        {
          "duration": 0.013516406250005275,
          "durationTicks": 10,
          "midi": 44,
          "name": "G#2",
          "ticks": 48076,
          "time": 64.9814746875,
          "velocity": 0.5748031496062992
        },
        {
          "duration": 0.013516406250005275,
          "durationTicks": 10,
          "midi": 38,
          "name": "D2",
          "ticks": 48076,
          "time": 64.9814746875,
          "velocity": 0.8740157480314961
        },
        {
          "duration": 0.013516406249991064,
          "durationTicks": 10,
          "midi": 42,
          "name": "F#2",
          "ticks": 48172,
          "time": 65.11123218750001,
          "velocity": 0.6220472440944882
        },
        {
          "duration": 0.013516406249991064,
          "durationTicks": 10,
          "midi": 82,
          "name": "A#5",
          "ticks": 48268,
          "time": 65.2409896875,
          "velocity": 0.5826771653543307
        },
        {
          "duration": 0.013516406249991064,
          "durationTicks": 10,
          "midi": 44,
          "name": "G#2",
          "ticks": 48268,
          "time": 65.2409896875,
          "velocity": 0.5511811023622047
        },
        {
          "duration": 0.010813124999998536,
          "durationTicks": 8,
          "midi": 82,
          "name": "A#5",
          "ticks": 48364,
          "time": 65.3707471875,
          "velocity": 0.5511811023622047
        },
        {
          "duration": 0.013516406249991064,
          "durationTicks": 10,
          "midi": 46,
          "name": "A#2",
          "ticks": 48364,
          "time": 65.3707471875,
          "velocity": 0.6377952755905512
        },
        {
          "duration": 0.013516406249991064,
          "durationTicks": 10,
          "midi": 36,
          "name": "C2",
          "ticks": 48364,
          "time": 65.3707471875,
          "velocity": 0.8740157480314961
        },
        {
          "duration": 0.013516406250005275,
          "durationTicks": 10,
          "midi": 42,
          "name": "F#2",
          "ticks": 48460,
          "time": 65.5005046875,
          "velocity": 0.4094488188976378
        },
        {
          "duration": 0.013516406250005275,
          "durationTicks": 10,
          "midi": 46,
          "name": "A#2",
          "ticks": 48558,
          "time": 65.63296546875,
          "velocity": 0.6220472440944882
        },
        {
          "duration": 0.013516406250005275,
          "durationTicks": 10,
          "midi": 36,
          "name": "C2",
          "ticks": 48650,
          "time": 65.75731640625,
          "velocity": 0.9448818897637795
        },
        {
          "duration": 0.010813124999998536,
          "durationTicks": 8,
          "midi": 82,
          "name": "A#5",
          "ticks": 48652,
          "time": 65.7600196875,
          "velocity": 0.6141732283464567
        },
        {
          "duration": 0.013516406250005275,
          "durationTicks": 10,
          "midi": 42,
          "name": "F#2",
          "ticks": 48654,
          "time": 65.76272296875,
          "velocity": 0.5354330708661418
        },
        {
          "duration": 0.013516406250005275,
          "durationTicks": 10,
          "midi": 82,
          "name": "A#5",
          "ticks": 48750,
          "time": 65.89248046875,
          "velocity": 0.3543307086614173
        },
        {
          "duration": 0.013516406250005275,
          "durationTicks": 10,
          "midi": 44,
          "name": "G#2",
          "ticks": 48750,
          "time": 65.89248046875,
          "velocity": 0.5669291338582677
        },
        {
          "duration": 0.013516406249991064,
          "durationTicks": 10,
          "midi": 38,
          "name": "D2",
          "ticks": 48846,
          "time": 66.02223796875,
          "velocity": 0.8740157480314961
        },
        {
          "duration": 0.010813124999998536,
          "durationTicks": 8,
          "midi": 42,
          "name": "F#2",
          "ticks": 48848,
          "time": 66.02494125,
          "velocity": 0.6692913385826772
        },
        {
          "duration": 0.010813125000012747,
          "durationTicks": 8,
          "midi": 44,
          "name": "G#2",
          "ticks": 48944,
          "time": 66.15469875,
          "velocity": 0.49606299212598426
        },
        {
          "duration": 0.010813125000012747,
          "durationTicks": 8,
          "midi": 82,
          "name": "A#5",
          "ticks": 49040,
          "time": 66.28445624999999,
          "velocity": 0.5826771653543307
        },
        {
          "duration": 0.013516406250005275,
          "durationTicks": 10,
          "midi": 42,
          "name": "F#2",
          "ticks": 49082,
          "time": 66.34122515624999,
          "velocity": 0.6220472440944882
        },
        {
          "duration": 0.013516406249991064,
          "durationTicks": 10,
          "midi": 82,
          "name": "A#5",
          "ticks": 49132,
          "time": 66.4088071875,
          "velocity": 0.5826771653543307
        },
        {
          "duration": 0.013516406250005275,
          "durationTicks": 10,
          "midi": 44,
          "name": "G#2",
          "ticks": 49134,
          "time": 66.41151046875,
          "velocity": 0.5354330708661418
        },
        {
          "duration": 0.013516406249991064,
          "durationTicks": 10,
          "midi": 46,
          "name": "A#2",
          "ticks": 49230,
          "time": 66.54126796875,
          "velocity": 0.6692913385826772
        },
        {
          "duration": 0.013516406249991064,
          "durationTicks": 10,
          "midi": 36,
          "name": "C2",
          "ticks": 49230,
          "time": 66.54126796875,
          "velocity": 0.8503937007874016
        },
        {
          "duration": 0.010813125000012747,
          "durationTicks": 8,
          "midi": 82,
          "name": "A#5",
          "ticks": 49420,
          "time": 66.79807968749999,
          "velocity": 0.48031496062992124
        },
        {
          "duration": 0.010813125000012747,
          "durationTicks": 8,
          "midi": 82,
          "name": "A#5",
          "ticks": 49516,
          "time": 66.92783718749999,
          "velocity": 0.5511811023622047
        },
        {
          "duration": 0.013516406250005275,
          "durationTicks": 10,
          "midi": 44,
          "name": "G#2",
          "ticks": 49612,
          "time": 67.0575946875,
          "velocity": 0.5748031496062992
        },
        {
          "duration": 0.010813124999998536,
          "durationTicks": 8,
          "midi": 38,
          "name": "D2",
          "ticks": 49612,
          "time": 67.0575946875,
          "velocity": 0.8740157480314961
        },
        {
          "duration": 0.013516406249991064,
          "durationTicks": 10,
          "midi": 42,
          "name": "F#2",
          "ticks": 49710,
          "time": 67.19005546875,
          "velocity": 0.5984251968503937
        },
        {
          "duration": 0.013516406249991064,
          "durationTicks": 10,
          "midi": 82,
          "name": "A#5",
          "ticks": 49802,
          "time": 67.31440640625,
          "velocity": 0.6062992125984252
        },
        {
          "duration": 0.013516406250005275,
          "durationTicks": 10,
          "midi": 44,
          "name": "G#2",
          "ticks": 49804,
          "time": 67.3171096875,
          "velocity": 0.5748031496062992
        },
        {
          "duration": 0.013516406250005275,
          "durationTicks": 10,
          "midi": 82,
          "name": "A#5",
          "ticks": 49898,
          "time": 67.44416390625,
          "velocity": 0.5748031496062992
        },
        {
          "duration": 0.013516406250019486,
          "durationTicks": 10,
          "midi": 46,
          "name": "A#2",
          "ticks": 49900,
          "time": 67.44686718749999,
          "velocity": 0.5826771653543307
        },
        {
          "duration": 0.013516406250019486,
          "durationTicks": 10,
          "midi": 36,
          "name": "C2",
          "ticks": 49900,
          "time": 67.44686718749999,
          "velocity": 0.9448818897637795
        },
        {
          "duration": 0.013516406250005275,
          "durationTicks": 10,
          "midi": 42,
          "name": "F#2",
          "ticks": 49996,
          "time": 67.5766246875,
          "velocity": 0.4251968503937008
        },
        {
          "duration": 0.013516406250005275,
          "durationTicks": 10,
          "midi": 46,
          "name": "A#2",
          "ticks": 50092,
          "time": 67.7063821875,
          "velocity": 0.6377952755905512
        },
        {
          "duration": 0.013516406250005275,
          "durationTicks": 10,
          "midi": 36,
          "name": "C2",
          "ticks": 50092,
          "time": 67.7063821875,
          "velocity": 0.6692913385826772
        },
        {
          "duration": 0.013516406249991064,
          "durationTicks": 10,
          "midi": 82,
          "name": "A#5",
          "ticks": 50186,
          "time": 67.83343640625,
          "velocity": 0.5984251968503937
        },
        {
          "duration": 0.010813124999998536,
          "durationTicks": 8,
          "midi": 36,
          "name": "C2",
          "ticks": 50188,
          "time": 67.8361396875,
          "velocity": 0.7401574803149606
        },
        {
          "duration": 0.013516406249991064,
          "durationTicks": 10,
          "midi": 42,
          "name": "F#2",
          "ticks": 50190,
          "time": 67.83884296875,
          "velocity": 0.5984251968503937
        },
        {
          "duration": 0.013516406250005275,
          "durationTicks": 10,
          "midi": 82,
          "name": "A#5",
          "ticks": 50282,
          "time": 67.96319390625,
          "velocity": 0.4881889763779528
        },
        {
          "duration": 0.013516406249991064,
          "durationTicks": 10,
          "midi": 44,
          "name": "G#2",
          "ticks": 50286,
          "time": 67.96860046875,
          "velocity": 0.5826771653543307
        },
        {
          "duration": 0.013516406250019486,
          "durationTicks": 10,
          "midi": 38,
          "name": "D2",
          "ticks": 50380,
          "time": 68.09565468749999,
          "velocity": 0.8267716535433071
        },
        {
          "duration": 0.013516406250005275,
          "durationTicks": 10,
          "midi": 42,
          "name": "F#2",
          "ticks": 50382,
          "time": 68.09835796875,
          "velocity": 0.6535433070866141
        },
        {
          "duration": 0.013516406249991064,
          "durationTicks": 10,
          "midi": 44,
          "name": "G#2",
          "ticks": 50478,
          "time": 68.22811546875,
          "velocity": 0.5118110236220472
        },
        {
          "duration": 0.010813124999998536,
          "durationTicks": 8,
          "midi": 82,
          "name": "A#5",
          "ticks": 50572,
          "time": 68.3551696875,
          "velocity": 0.6456692913385826
        },
        {
          "duration": 0.010813124999984325,
          "durationTicks": 8,
          "midi": 42,
          "name": "F#2",
          "ticks": 50576,
          "time": 68.36057625000001,
          "velocity": 0.6220472440944882
        },
        {
          "duration": 0.010813125000012747,
          "durationTicks": 8,
          "midi": 82,
          "name": "A#5",
          "ticks": 50668,
          "time": 68.48492718749999,
          "velocity": 0.44881889763779526
        },
        {
          "duration": 0.013516406249991064,
          "durationTicks": 10,
          "midi": 44,
          "name": "G#2",
          "ticks": 50670,
          "time": 68.48763046875,
          "velocity": 0.4881889763779528
        },
        {
          "duration": 0.013516406250019486,
          "durationTicks": 10,
          "midi": 36,
          "name": "C2",
          "ticks": 50764,
          "time": 68.61468468749999,
          "velocity": 0.8740157480314961
        },
        {
          "duration": 0.013516406250005275,
          "durationTicks": 10,
          "midi": 46,
          "name": "A#2",
          "ticks": 50766,
          "time": 68.61738796875,
          "velocity": 0.5905511811023622
        },
        {
          "duration": 0.010813124999998536,
          "durationTicks": 8,
          "midi": 82,
          "name": "A#5",
          "ticks": 50956,
          "time": 68.8741996875,
          "velocity": 0.5275590551181102
        },
        {
          "duration": 0.013516406250005275,
          "durationTicks": 10,
          "midi": 82,
          "name": "A#5",
          "ticks": 51050,
          "time": 69.00125390625,
          "velocity": 0.5275590551181102
        },
        {
          "duration": 0.013516406250019486,
          "durationTicks": 10,
          "midi": 44,
          "name": "G#2",
          "ticks": 51148,
          "time": 69.13371468749999,
          "velocity": 0.5905511811023622
        },
        {
          "duration": 0.013516406250019486,
          "durationTicks": 10,
          "midi": 38,
          "name": "D2",
          "ticks": 51148,
          "time": 69.13371468749999,
          "velocity": 0.8976377952755905
        },
        {
          "duration": 0.013516406250005275,
          "durationTicks": 10,
          "midi": 42,
          "name": "F#2",
          "ticks": 51246,
          "time": 69.26617546874999,
          "velocity": 0.5984251968503937
        },
        {
          "duration": 0.013516406250005275,
          "durationTicks": 10,
          "midi": 44,
          "name": "G#2",
          "ticks": 51340,
          "time": 69.3932296875,
          "velocity": 0.49606299212598426
        },
        {
          "duration": 0.013516406250005275,
          "durationTicks": 10,
          "midi": 46,
          "name": "A#2",
          "ticks": 51436,
          "time": 69.5229871875,
          "velocity": 0.5826771653543307
        },
        {
          "duration": 0.013516406250005275,
          "durationTicks": 10,
          "midi": 36,
          "name": "C2",
          "ticks": 51436,
          "time": 69.5229871875,
          "velocity": 0.8503937007874016
        },
        {
          "duration": 0.013516406250019486,
          "durationTicks": 10,
          "midi": 42,
          "name": "F#2",
          "ticks": 51532,
          "time": 69.65274468749999,
          "velocity": 0.5433070866141733
        },
        {
          "duration": 0.013516406250005275,
          "durationTicks": 10,
          "midi": 46,
          "name": "A#2",
          "ticks": 51628,
          "time": 69.7825021875,
          "velocity": 0.6692913385826772
        },
        {
          "duration": 0.013516406249991064,
          "durationTicks": 10,
          "midi": 42,
          "name": "F#2",
          "ticks": 51726,
          "time": 69.91496296875,
          "velocity": 0.5826771653543307
        },
        {
          "duration": 0.013516406250005275,
          "durationTicks": 10,
          "midi": 44,
          "name": "G#2",
          "ticks": 51820,
          "time": 70.0420171875,
          "velocity": 0.5984251968503937
        },
        {
          "duration": 0.013516406250019486,
          "durationTicks": 10,
          "midi": 42,
          "name": "F#2",
          "ticks": 51916,
          "time": 70.17177468749999,
          "velocity": 0.6535433070866141
        },
        {
          "duration": 0.013516406250005275,
          "durationTicks": 10,
          "midi": 44,
          "name": "G#2",
          "ticks": 52014,
          "time": 70.30423546875,
          "velocity": 0.5118110236220472
        },
        {
          "duration": 0.013516406249991064,
          "durationTicks": 10,
          "midi": 42,
          "name": "F#2",
          "ticks": 52110,
          "time": 70.43399296875,
          "velocity": 0.6377952755905512
        },
        {
          "duration": 0.013516406250005275,
          "durationTicks": 10,
          "midi": 44,
          "name": "G#2",
          "ticks": 52204,
          "time": 70.5610471875,
          "velocity": 0.5039370078740157
        },
        {
          "duration": 0.013516406250019486,
          "durationTicks": 10,
          "midi": 46,
          "name": "A#2",
          "ticks": 52300,
          "time": 70.69080468749999,
          "velocity": 0.6220472440944882
        },
        {
          "duration": 0.010813124999984325,
          "durationTicks": 8,
          "midi": 36,
          "name": "C2",
          "ticks": 52304,
          "time": 70.69621125,
          "velocity": 0.9212598425196851
        },
        {
          "duration": 0.013516406250005275,
          "durationTicks": 10,
          "midi": 82,
          "name": "A#5",
          "ticks": 52492,
          "time": 70.9503196875,
          "velocity": 0.5275590551181102
        },
        {
          "duration": 0.013516406250005275,
          "durationTicks": 10,
          "midi": 82,
          "name": "A#5",
          "ticks": 52588,
          "time": 71.0800771875,
          "velocity": 0.6141732283464567
        },
        {
          "duration": 0.013516406249991064,
          "durationTicks": 10,
          "midi": 44,
          "name": "G#2",
          "ticks": 52686,
          "time": 71.21253796875,
          "velocity": 0.6377952755905512
        },
        {
          "duration": 0.013516406249991064,
          "durationTicks": 10,
          "midi": 38,
          "name": "D2",
          "ticks": 52686,
          "time": 71.21253796875,
          "velocity": 0.8267716535433071
        },
        {
          "duration": 0.010813124999998536,
          "durationTicks": 8,
          "midi": 42,
          "name": "F#2",
          "ticks": 52784,
          "time": 71.34499875,
          "velocity": 0.6220472440944882
        },
        {
          "duration": 0.013516406250005275,
          "durationTicks": 10,
          "midi": 82,
          "name": "A#5",
          "ticks": 52876,
          "time": 71.4693496875,
          "velocity": 0.4881889763779528
        },
        {
          "duration": 0.013516406250005275,
          "durationTicks": 10,
          "midi": 44,
          "name": "G#2",
          "ticks": 52878,
          "time": 71.47205296874999,
          "velocity": 0.5669291338582677
        },
        {
          "duration": 0.013516406250005275,
          "durationTicks": 10,
          "midi": 82,
          "name": "A#5",
          "ticks": 52972,
          "time": 71.5991071875,
          "velocity": 0.5748031496062992
        },
        {
          "duration": 0.013516406249991064,
          "durationTicks": 10,
          "midi": 46,
          "name": "A#2",
          "ticks": 52974,
          "time": 71.60181046875,
          "velocity": 0.5905511811023622
        },
        {
          "duration": 0.013516406249991064,
          "durationTicks": 10,
          "midi": 36,
          "name": "C2",
          "ticks": 52974,
          "time": 71.60181046875,
          "velocity": 0.8740157480314961
        },
        {
          "duration": 0.013516406249991064,
          "durationTicks": 10,
          "midi": 42,
          "name": "F#2",
          "ticks": 53070,
          "time": 71.73156796875,
          "velocity": 0.5039370078740157
        },
        {
          "duration": 0.013516406249991064,
          "durationTicks": 10,
          "midi": 46,
          "name": "A#2",
          "ticks": 53166,
          "time": 71.86132546875,
          "velocity": 0.6692913385826772
        },
        {
          "duration": 0.010813124999998536,
          "durationTicks": 8,
          "midi": 82,
          "name": "A#5",
          "ticks": 53260,
          "time": 71.9883796875,
          "velocity": 0.5511811023622047
        },
        {
          "duration": 0.013516406250005275,
          "durationTicks": 10,
          "midi": 42,
          "name": "F#2",
          "ticks": 53262,
          "time": 71.99108296874999,
          "velocity": 0.5433070866141733
        },
        {
          "duration": 0.013516406250005275,
          "durationTicks": 10,
          "midi": 36,
          "name": "C2",
          "ticks": 53262,
          "time": 71.99108296874999,
          "velocity": 0.7795275590551181
        },
        {
          "duration": 0.013516406250005275,
          "durationTicks": 10,
          "midi": 82,
          "name": "A#5",
          "ticks": 53356,
          "time": 72.1181371875,
          "velocity": 0.4645669291338583
        },
        {
          "duration": 0.013516406249991064,
          "durationTicks": 10,
          "midi": 44,
          "name": "G#2",
          "ticks": 53358,
          "time": 72.12084046875,
          "velocity": 0.5984251968503937
        },
        {
          "duration": 0.013516406249991064,
          "durationTicks": 10,
          "midi": 42,
          "name": "F#2",
          "ticks": 53454,
          "time": 72.25059796875,
          "velocity": 0.6377952755905512
        },
        {
          "duration": 0.010813124999984325,
          "durationTicks": 8,
          "midi": 38,
          "name": "D2",
          "ticks": 53456,
          "time": 72.25330125,
          "velocity": 0.9212598425196851
        },
        {
          "duration": 0.013516406249991064,
          "durationTicks": 10,
          "midi": 44,
          "name": "G#2",
          "ticks": 53550,
          "time": 72.38035546875,
          "velocity": 0.49606299212598426
        },
        {
          "duration": 0.013516406250005275,
          "durationTicks": 10,
          "midi": 82,
          "name": "A#5",
          "ticks": 53644,
          "time": 72.5074096875,
          "velocity": 0.48031496062992124
        },
        {
          "duration": 0.013516406250005275,
          "durationTicks": 10,
          "midi": 42,
          "name": "F#2",
          "ticks": 53646,
          "time": 72.51011296875,
          "velocity": 0.6220472440944882
        },
        {
          "duration": 0.010813124999998536,
          "durationTicks": 8,
          "midi": 82,
          "name": "A#5",
          "ticks": 53740,
          "time": 72.6371671875,
          "velocity": 0.44881889763779526
        },
        {
          "duration": 0.013516406250005275,
          "durationTicks": 10,
          "midi": 44,
          "name": "G#2",
          "ticks": 53740,
          "time": 72.6371671875,
          "velocity": 0.5354330708661418
        },
        {
          "duration": 0.013516406250005275,
          "durationTicks": 10,
          "midi": 46,
          "name": "A#2",
          "ticks": 53836,
          "time": 72.7669246875,
          "velocity": 0.6377952755905512
        },
        {
          "duration": 0.010813124999984325,
          "durationTicks": 8,
          "midi": 36,
          "name": "C2",
          "ticks": 53840,
          "time": 72.77233125000001,
          "velocity": 0.8976377952755905
        },
        {
          "duration": 0.013516406249991064,
          "durationTicks": 10,
          "midi": 82,
          "name": "A#5",
          "ticks": 54026,
          "time": 73.02373640625001,
          "velocity": 0.5511811023622047
        },
        {
          "duration": 0.010813124999998536,
          "durationTicks": 8,
          "midi": 82,
          "name": "A#5",
          "ticks": 54124,
          "time": 73.1561971875,
          "velocity": 0.4094488188976378
        },
        {
          "duration": 0.013516406250005275,
          "durationTicks": 10,
          "midi": 44,
          "name": "G#2",
          "ticks": 54220,
          "time": 73.2859546875,
          "velocity": 0.6535433070866141
        },
        {
          "duration": 0.013516406250005275,
          "durationTicks": 10,
          "midi": 38,
          "name": "D2",
          "ticks": 54220,
          "time": 73.2859546875,
          "velocity": 0.8976377952755905
        },
        {
          "duration": 0.013516406250005275,
          "durationTicks": 10,
          "midi": 42,
          "name": "F#2",
          "ticks": 54316,
          "time": 73.41571218749999,
          "velocity": 0.6377952755905512
        },
        {
          "duration": 0.013516406249991064,
          "durationTicks": 10,
          "midi": 82,
          "name": "A#5",
          "ticks": 54410,
          "time": 73.54276640625001,
          "velocity": 0.6141732283464567
        },
        {
          "duration": 0.013516406250019486,
          "durationTicks": 10,
          "midi": 44,
          "name": "G#2",
          "ticks": 54412,
          "time": 73.54546968749999,
          "velocity": 0.5511811023622047
        },
        {
          "duration": 0.013516406249991064,
          "durationTicks": 10,
          "midi": 82,
          "name": "A#5",
          "ticks": 54506,
          "time": 73.67252390625,
          "velocity": 0.48031496062992124
        },
        {
          "duration": 0.013516406250005275,
          "durationTicks": 10,
          "midi": 46,
          "name": "A#2",
          "ticks": 54508,
          "time": 73.6752271875,
          "velocity": 0.5984251968503937
        },
        {
          "duration": 0.013516406249991064,
          "durationTicks": 10,
          "midi": 36,
          "name": "C2",
          "ticks": 54510,
          "time": 73.67793046875,
          "velocity": 0.8503937007874016
        },
        {
          "duration": 0.010813124999998536,
          "durationTicks": 8,
          "midi": 42,
          "name": "F#2",
          "ticks": 54604,
          "time": 73.8049846875,
          "velocity": 0.5039370078740157
        },
        {
          "duration": 0.013516406250005275,
          "durationTicks": 10,
          "midi": 46,
          "name": "A#2",
          "ticks": 54700,
          "time": 73.93474218749999,
          "velocity": 0.6692913385826772
        },
        {
          "duration": 0.013516406249991064,
          "durationTicks": 10,
          "midi": 82,
          "name": "A#5",
          "ticks": 54794,
          "time": 74.06179640625001,
          "velocity": 0.1968503937007874
        },
        {
          "duration": 0.013516406250019486,
          "durationTicks": 10,
          "midi": 42,
          "name": "F#2",
          "ticks": 54796,
          "time": 74.06449968749999,
          "velocity": 0.5984251968503937
        },
        {
          "duration": 0.013516406249991064,
          "durationTicks": 10,
          "midi": 36,
          "name": "C2",
          "ticks": 54798,
          "time": 74.06720296875,
          "velocity": 0.9448818897637795
        },
        {
          "duration": 0.013516406249991064,
          "durationTicks": 10,
          "midi": 82,
          "name": "A#5",
          "ticks": 54888,
          "time": 74.188850625,
          "velocity": 0.4881889763779528
        },
        {
          "duration": 0.013516406250005275,
          "durationTicks": 10,
          "midi": 44,
          "name": "G#2",
          "ticks": 54892,
          "time": 74.1942571875,
          "velocity": 0.5905511811023622
        },
        {
          "duration": 0.013516406250005275,
          "durationTicks": 10,
          "midi": 42,
          "name": "F#2",
          "ticks": 54988,
          "time": 74.3240146875,
          "velocity": 0.7401574803149606
        },
        {
          "duration": 0.013516406249991064,
          "durationTicks": 10,
          "midi": 38,
          "name": "D2",
          "ticks": 54990,
          "time": 74.32671796875,
          "velocity": 0.8267716535433071
        },
        {
          "duration": 0.013516406249991064,
          "durationTicks": 10,
          "midi": 44,
          "name": "G#2",
          "ticks": 55086,
          "time": 74.45647546875,
          "velocity": 0.5511811023622047
        },
        {
          "duration": 0.010813125000012747,
          "durationTicks": 8,
          "midi": 82,
          "name": "A#5",
          "ticks": 55180,
          "time": 74.58352968749999,
          "velocity": 0.6456692913385826
        },
        {
          "duration": 0.013516406249991064,
          "durationTicks": 10,
          "midi": 42,
          "name": "F#2",
          "ticks": 55182,
          "time": 74.58623296875,
          "velocity": 0.6929133858267716
        },
        {
          "duration": 0.010813124999998536,
          "durationTicks": 8,
          "midi": 82,
          "name": "A#5",
          "ticks": 55276,
          "time": 74.7132871875,
          "velocity": 0.48031496062992124
        },
        {
          "duration": 0.013516406250005275,
          "durationTicks": 10,
          "midi": 44,
          "name": "G#2",
          "ticks": 55276,
          "time": 74.7132871875,
          "velocity": 0.5748031496062992
        },
        {
          "duration": 0.013516406250005275,
          "durationTicks": 10,
          "midi": 46,
          "name": "A#2",
          "ticks": 55372,
          "time": 74.8430446875,
          "velocity": 0.6377952755905512
        },
        {
          "duration": 0.013516406249991064,
          "durationTicks": 10,
          "midi": 36,
          "name": "C2",
          "ticks": 55374,
          "time": 74.84574796875,
          "velocity": 0.8976377952755905
        },
        {
          "duration": 0.010813125000012747,
          "durationTicks": 8,
          "midi": 82,
          "name": "A#5",
          "ticks": 55564,
          "time": 75.10255968749999,
          "velocity": 0.48031496062992124
        },
        {
          "duration": 0.013516406250019486,
          "durationTicks": 10,
          "midi": 82,
          "name": "A#5",
          "ticks": 55660,
          "time": 75.23231718749999,
          "velocity": 0.44881889763779526
        },
        {
          "duration": 0.013516406250005275,
          "durationTicks": 10,
          "midi": 44,
          "name": "G#2",
          "ticks": 55756,
          "time": 75.3620746875,
          "velocity": 0.5826771653543307
        },
        {
          "duration": 0.013516406250005275,
          "durationTicks": 10,
          "midi": 38,
          "name": "D2",
          "ticks": 55756,
          "time": 75.3620746875,
          "velocity": 0.9212598425196851
        },
        {
          "duration": 0.013516406250005275,
          "durationTicks": 10,
          "midi": 42,
          "name": "F#2",
          "ticks": 55852,
          "time": 75.4918321875,
          "velocity": 0.6377952755905512
        },
        {
          "duration": 0.010813125000012747,
          "durationTicks": 8,
          "midi": 82,
          "name": "A#5",
          "ticks": 55948,
          "time": 75.62158968749999,
          "velocity": 0.6141732283464567
        },
        {
          "duration": 0.013516406250005275,
          "durationTicks": 10,
          "midi": 44,
          "name": "G#2",
          "ticks": 55948,
          "time": 75.62158968749999,
          "velocity": 0.5118110236220472
        },
        {
          "duration": 0.010813125000012747,
          "durationTicks": 8,
          "midi": 82,
          "name": "A#5",
          "ticks": 56044,
          "time": 75.75134718749999,
          "velocity": 0.5275590551181102
        },
        {
          "duration": 0.013516406250019486,
          "durationTicks": 10,
          "midi": 46,
          "name": "A#2",
          "ticks": 56044,
          "time": 75.75134718749999,
          "velocity": 0.5826771653543307
        },
        {
          "duration": 0.013516406250005275,
          "durationTicks": 10,
          "midi": 36,
          "name": "C2",
          "ticks": 56046,
          "time": 75.75405046875,
          "velocity": 0.9448818897637795
        },
        {
          "duration": 0.013516406250005275,
          "durationTicks": 10,
          "midi": 42,
          "name": "F#2",
          "ticks": 56140,
          "time": 75.8811046875,
          "velocity": 0.3937007874015748
        },
        {
          "duration": 0.013516406250005275,
          "durationTicks": 10,
          "midi": 46,
          "name": "A#2",
          "ticks": 56236,
          "time": 76.0108621875,
          "velocity": 0.6377952755905512
        },
        {
          "duration": 0.013516406250005275,
          "durationTicks": 10,
          "midi": 82,
          "name": "A#5",
          "ticks": 56330,
          "time": 76.13791640625,
          "velocity": 0.3543307086614173
        },
        {
          "duration": 0.013516406249991064,
          "durationTicks": 10,
          "midi": 42,
          "name": "F#2",
          "ticks": 56334,
          "time": 76.14332296875,
          "velocity": 0.3228346456692913
        },
        {
          "duration": 0.013516406249991064,
          "durationTicks": 10,
          "midi": 36,
          "name": "C2",
          "ticks": 56334,
          "time": 76.14332296875,
          "velocity": 0.8740157480314961
        },
        {
          "duration": 0.013516406249991064,
          "durationTicks": 10,
          "midi": 82,
          "name": "A#5",
          "ticks": 56424,
          "time": 76.264970625,
          "velocity": 0.4881889763779528
        },
        {
          "duration": 0.013516406250019486,
          "durationTicks": 10,
          "midi": 44,
          "name": "G#2",
          "ticks": 56428,
          "time": 76.27037718749999,
          "velocity": 0.5826771653543307
        },
        {
          "duration": 0.013516406250005275,
          "durationTicks": 10,
          "midi": 42,
          "name": "F#2",
          "ticks": 56524,
          "time": 76.4001346875,
          "velocity": 0.6692913385826772
        },
        {
          "duration": 0.013516406250005275,
          "durationTicks": 10,
          "midi": 38,
          "name": "D2",
          "ticks": 56526,
          "time": 76.40283796874999,
          "velocity": 0.8740157480314961
        },
        {
          "duration": 0.013516406250005275,
          "durationTicks": 10,
          "midi": 44,
          "name": "G#2",
          "ticks": 56620,
          "time": 76.5298921875,
          "velocity": 0.5039370078740157
        },
        {
          "duration": 0.013516406250005275,
          "durationTicks": 10,
          "midi": 82,
          "name": "A#5",
          "ticks": 56714,
          "time": 76.65694640625,
          "velocity": 0.6456692913385826
        },
        {
          "duration": 0.013516406249991064,
          "durationTicks": 10,
          "midi": 42,
          "name": "F#2",
          "ticks": 56718,
          "time": 76.66235296875,
          "velocity": 0.6377952755905512
        },
        {
          "duration": 0.013516406250005275,
          "durationTicks": 10,
          "midi": 82,
          "name": "A#5",
          "ticks": 56810,
          "time": 76.78670390625,
          "velocity": 0.5984251968503937
        },
        {
          "duration": 0.013516406250019486,
          "durationTicks": 10,
          "midi": 44,
          "name": "G#2",
          "ticks": 56812,
          "time": 76.78940718749999,
          "velocity": 0.4645669291338583
        },
        {
          "duration": 0.013516406250005275,
          "durationTicks": 10,
          "midi": 46,
          "name": "A#2",
          "ticks": 56908,
          "time": 76.9191646875,
          "velocity": 0.5984251968503937
        },
        {
          "duration": 0.013516406250005275,
          "durationTicks": 10,
          "midi": 36,
          "name": "C2",
          "ticks": 56910,
          "time": 76.92186796874999,
          "velocity": 0.8503937007874016
        },
        {
          "duration": 0.010813124999998536,
          "durationTicks": 8,
          "midi": 82,
          "name": "A#5",
          "ticks": 57100,
          "time": 77.1786796875,
          "velocity": 0.6141732283464567
        },
        {
          "duration": 0.010813125000012747,
          "durationTicks": 8,
          "midi": 82,
          "name": "A#5",
          "ticks": 57196,
          "time": 77.30843718749999,
          "velocity": 0.5826771653543307
        },
        {
          "duration": 0.013516406250005275,
          "durationTicks": 10,
          "midi": 44,
          "name": "G#2",
          "ticks": 57294,
          "time": 77.44089796875,
          "velocity": 0.5669291338582677
        },
        {
          "duration": 0.013516406250005275,
          "durationTicks": 10,
          "midi": 38,
          "name": "D2",
          "ticks": 57294,
          "time": 77.44089796875,
          "velocity": 0.8267716535433071
        },
        {
          "duration": 0.013516406249991064,
          "durationTicks": 10,
          "midi": 42,
          "name": "F#2",
          "ticks": 57390,
          "time": 77.57065546875,
          "velocity": 0.5511811023622047
        },
        {
          "duration": 0.013516406250005275,
          "durationTicks": 10,
          "midi": 44,
          "name": "G#2",
          "ticks": 57484,
          "time": 77.6977096875,
          "velocity": 0.5748031496062992
        },
        {
          "duration": 0.013516406250019486,
          "durationTicks": 10,
          "midi": 46,
          "name": "A#2",
          "ticks": 57580,
          "time": 77.82746718749999,
          "velocity": 0.6220472440944882
        },
        {
          "duration": 0.010813125000012747,
          "durationTicks": 8,
          "midi": 36,
          "name": "C2",
          "ticks": 57580,
          "time": 77.82746718749999,
          "velocity": 0.8740157480314961
        },
        {
          "duration": 0.013516406249991064,
          "durationTicks": 10,
          "midi": 42,
          "name": "F#2",
          "ticks": 57674,
          "time": 77.95452140625001,
          "velocity": 0.49606299212598426
        },
        {
          "duration": 0.06758203124999795,
          "durationTicks": 50,
          "midi": 38,
          "name": "D2",
          "ticks": 57680,
          "time": 77.96263125,
          "velocity": 1
        },
        {
          "duration": 0.062175468749984475,
          "durationTicks": 46,
          "midi": 38,
          "name": "D2",
          "ticks": 57774,
          "time": 78.08968546875,
          "velocity": 0.984251968503937
        },
        {
          "duration": 0.06487874999999121,
          "durationTicks": 48,
          "midi": 38,
          "name": "D2",
          "ticks": 57872,
          "time": 78.22214625000001,
          "velocity": 1
        },
        {
          "duration": 0.05947218750000616,
          "durationTicks": 44,
          "midi": 38,
          "name": "D2",
          "ticks": 57966,
          "time": 78.34920046875,
          "velocity": 1
        },
        {
          "duration": 0.07028531249999048,
          "durationTicks": 52,
          "midi": 38,
          "name": "D2",
          "ticks": 58064,
          "time": 78.48166125,
          "velocity": 1
        },
        {
          "duration": 0.062175468749998686,
          "durationTicks": 46,
          "midi": 38,
          "name": "D2",
          "ticks": 58158,
          "time": 78.60871546874999,
          "velocity": 1
        },
        {
          "duration": 0.06487874999999121,
          "durationTicks": 48,
          "midi": 38,
          "name": "D2",
          "ticks": 58256,
          "time": 78.74117625000001,
          "velocity": 1
        },
        {
          "duration": 0.010813125000012747,
          "durationTicks": 8,
          "midi": 52,
          "name": "E3",
          "ticks": 58444,
          "time": 78.99528468749999,
          "velocity": 1
        },
        {
          "duration": 0.010813125000012747,
          "durationTicks": 8,
          "midi": 57,
          "name": "A3",
          "ticks": 58444,
          "time": 78.99528468749999,
          "velocity": 1
        },
        {
          "duration": 0.013516406249991064,
          "durationTicks": 10,
          "midi": 36,
          "name": "C2",
          "ticks": 58446,
          "time": 78.99798796875,
          "velocity": 0.8267716535433071
        },
        {
          "duration": 0.013516406249991064,
          "durationTicks": 10,
          "midi": 82,
          "name": "A#5",
          "ticks": 58638,
          "time": 79.25750296875,
          "velocity": 0.5826771653543307
        },
        {
          "duration": 0.013516406250005275,
          "durationTicks": 10,
          "midi": 82,
          "name": "A#5",
          "ticks": 58732,
          "time": 79.3845571875,
          "velocity": 0.5826771653543307
        },
        {
          "duration": 0.013516406250005275,
          "durationTicks": 10,
          "midi": 44,
          "name": "G#2",
          "ticks": 58826,
          "time": 79.51161140625,
          "velocity": 0.5905511811023622
        },
        {
          "duration": 0.013516406249991064,
          "durationTicks": 10,
          "midi": 38,
          "name": "D2",
          "ticks": 58830,
          "time": 79.51701796875,
          "velocity": 0.9212598425196851
        },
        {
          "duration": 0.013516406250005275,
          "durationTicks": 10,
          "midi": 42,
          "name": "F#2",
          "ticks": 58924,
          "time": 79.6440721875,
          "velocity": 0.5354330708661418
        },
        {
          "duration": 0.013516406249991064,
          "durationTicks": 10,
          "midi": 82,
          "name": "A#5",
          "ticks": 59018,
          "time": 79.77112640625,
          "velocity": 0.5826771653543307
        },
        {
          "duration": 0.010813124999998536,
          "durationTicks": 8,
          "midi": 44,
          "name": "G#2",
          "ticks": 59020,
          "time": 79.7738296875,
          "velocity": 0.5826771653543307
        },
        {
          "duration": 0.013516406249991064,
          "durationTicks": 10,
          "midi": 82,
          "name": "A#5",
          "ticks": 59114,
          "time": 79.90088390625,
          "velocity": 0.5275590551181102
        },
        {
          "duration": 0.013516406250005275,
          "durationTicks": 10,
          "midi": 46,
          "name": "A#2",
          "ticks": 59116,
          "time": 79.9035871875,
          "velocity": 0.6377952755905512
        },
        {
          "duration": 0.010813124999984325,
          "durationTicks": 8,
          "midi": 36,
          "name": "C2",
          "ticks": 59120,
          "time": 79.90899375000001,
          "velocity": 0.8267716535433071
        },
        {
          "duration": 0.013516406250005275,
          "durationTicks": 10,
          "midi": 42,
          "name": "F#2",
          "ticks": 59210,
          "time": 80.03064140625,
          "velocity": 0.4881889763779528
        },
        {
          "duration": 0.07028531249999048,
          "durationTicks": 52,
          "midi": 38,
          "name": "D2",
          "ticks": 59214,
          "time": 80.03604796875,
          "velocity": 1
        },
        {
          "duration": 0.062175468749998686,
          "durationTicks": 46,
          "midi": 38,
          "name": "D2",
          "ticks": 59310,
          "time": 80.16580546875,
          "velocity": 0.984251968503937
        },
        {
          "duration": 0.06487874999999121,
          "durationTicks": 48,
          "midi": 38,
          "name": "D2",
          "ticks": 59406,
          "time": 80.29556296875,
          "velocity": 1
        },
        {
          "duration": 0.05947218750000616,
          "durationTicks": 44,
          "midi": 38,
          "name": "D2",
          "ticks": 59502,
          "time": 80.42532046875,
          "velocity": 1
        },
        {
          "duration": 0.07298859374999722,
          "durationTicks": 54,
          "midi": 38,
          "name": "D2",
          "ticks": 59598,
          "time": 80.55507796875,
          "velocity": 1
        },
        {
          "duration": 0.05947218750000616,
          "durationTicks": 44,
          "midi": 38,
          "name": "D2",
          "ticks": 59694,
          "time": 80.68483546875,
          "velocity": 1
        },
        {
          "duration": 0.06758203124999795,
          "durationTicks": 50,
          "midi": 38,
          "name": "D2",
          "ticks": 59790,
          "time": 80.81459296875,
          "velocity": 1
        },
        {
          "duration": 0.013516406250005275,
          "durationTicks": 10,
          "midi": 52,
          "name": "E3",
          "ticks": 59978,
          "time": 81.06870140625,
          "velocity": 1
        },
        {
          "duration": 0.013516406250005275,
          "durationTicks": 10,
          "midi": 57,
          "name": "A3",
          "ticks": 59978,
          "time": 81.06870140625,
          "velocity": 1
        },
        {
          "duration": 0.013516406250005275,
          "durationTicks": 10,
          "midi": 36,
          "name": "C2",
          "ticks": 59980,
          "time": 81.07140468749999,
          "velocity": 0.8267716535433071
        },
        {
          "duration": 0.013516406250005275,
          "durationTicks": 10,
          "midi": 82,
          "name": "A#5",
          "ticks": 60172,
          "time": 81.3309196875,
          "velocity": 0.5826771653543307
        },
        {
          "duration": 0.04865906250000762,
          "durationTicks": 36,
          "midi": 54,
          "name": "F#3",
          "ticks": 60176,
          "time": 81.33632625,
          "velocity": 0.9133858267716536
        },
        {
          "duration": 0.013516406250005275,
          "durationTicks": 10,
          "midi": 82,
          "name": "A#5",
          "ticks": 60268,
          "time": 81.4606771875,
          "velocity": 0.5826771653543307
        },
        {
          "duration": 0.0621754687500129,
          "durationTicks": 46,
          "midi": 54,
          "name": "F#3",
          "ticks": 60274,
          "time": 81.46878703124999,
          "velocity": 0.8818897637795275
        },
        {
          "duration": 0.013516406249991064,
          "durationTicks": 10,
          "midi": 44,
          "name": "G#2",
          "ticks": 60362,
          "time": 81.58773140625,
          "velocity": 0.5905511811023622
        },
        {
          "duration": 0.013516406249991064,
          "durationTicks": 10,
          "midi": 38,
          "name": "D2",
          "ticks": 60366,
          "time": 81.59313796875,
          "velocity": 0.9212598425196851
        },
        {
          "duration": 0.010813125000012747,
          "durationTicks": 8,
          "midi": 42,
          "name": "F#2",
          "ticks": 60460,
          "time": 81.72019218749999,
          "velocity": 0.5354330708661418
        },
        {
          "duration": 0.013516406249991064,
          "durationTicks": 10,
          "midi": 82,
          "name": "A#5",
          "ticks": 60554,
          "time": 81.84724640625001,
          "velocity": 0.5826771653543307
        },
        {
          "duration": 0.013516406249991064,
          "durationTicks": 10,
          "midi": 44,
          "name": "G#2",
          "ticks": 60554,
          "time": 81.84724640625001,
          "velocity": 0.5826771653543307
        },
        {
          "duration": 0.04325249999999414,
          "durationTicks": 32,
          "midi": 54,
          "name": "F#3",
          "ticks": 60560,
          "time": 81.85535625,
          "velocity": 0.9212598425196851
        },
        {
          "duration": 0.013516406249991064,
          "durationTicks": 10,
          "midi": 82,
          "name": "A#5",
          "ticks": 60648,
          "time": 81.974300625,
          "velocity": 0.5275590551181102
        },
        {
          "duration": 0.010813124999998536,
          "durationTicks": 8,
          "midi": 46,
          "name": "A#2",
          "ticks": 60652,
          "time": 81.9797071875,
          "velocity": 0.6377952755905512
        },
        {
          "duration": 0.062175468749984475,
          "durationTicks": 46,
          "midi": 54,
          "name": "F#3",
          "ticks": 60654,
          "time": 81.98241046875,
          "velocity": 0.8503937007874016
        },
        {
          "duration": 0.013516406249991064,
          "durationTicks": 10,
          "midi": 36,
          "name": "C2",
          "ticks": 60654,
          "time": 81.98241046875,
          "velocity": 0.8267716535433071
        },
        {
          "duration": 0.013516406249991064,
          "durationTicks": 10,
          "midi": 42,
          "name": "F#2",
          "ticks": 60746,
          "time": 82.10676140625,
          "velocity": 0.4881889763779528
        },
        {
          "duration": 0.010813125000012747,
          "durationTicks": 8,
          "midi": 46,
          "name": "A#2",
          "ticks": 60844,
          "time": 82.23922218749999,
          "velocity": 0.6929133858267716
        },
        {
          "duration": 0.013516406249991064,
          "durationTicks": 10,
          "midi": 36,
          "name": "C2",
          "ticks": 60936,
          "time": 82.363573125,
          "velocity": 0.8503937007874016
        },
        {
          "duration": 0.013516406249991064,
          "durationTicks": 10,
          "midi": 82,
          "name": "A#5",
          "ticks": 60938,
          "time": 82.36627640625001,
          "velocity": 0.4645669291338583
        },
        {
          "duration": 0.013516406250019486,
          "durationTicks": 10,
          "midi": 42,
          "name": "F#2",
          "ticks": 60940,
          "time": 82.36897968749999,
          "velocity": 0.5433070866141733
        },
        {
          "duration": 0.05136234375000015,
          "durationTicks": 38,
          "midi": 54,
          "name": "F#3",
          "ticks": 60944,
          "time": 82.37438625,
          "velocity": 0.9448818897637795
        },
        {
          "duration": 0.013516406249991064,
          "durationTicks": 10,
          "midi": 82,
          "name": "A#5",
          "ticks": 61034,
          "time": 82.49603390625,
          "velocity": 0.5826771653543307
        },
        {
          "duration": 0.013516406250005275,
          "durationTicks": 10,
          "midi": 44,
          "name": "G#2",
          "ticks": 61036,
          "time": 82.4987371875,
          "velocity": 0.5748031496062992
        },
        {
          "duration": 0.06487875000000543,
          "durationTicks": 48,
          "midi": 54,
          "name": "F#3",
          "ticks": 61040,
          "time": 82.50414375,
          "velocity": 0.8503937007874016
        },
        {
          "duration": 0.013516406250005275,
          "durationTicks": 10,
          "midi": 42,
          "name": "F#2",
          "ticks": 61132,
          "time": 82.6284946875,
          "velocity": 0.5748031496062992
        },
        {
          "duration": 0.013516406249991064,
          "durationTicks": 10,
          "midi": 38,
          "name": "D2",
          "ticks": 61134,
          "time": 82.63119796875,
          "velocity": 0.9212598425196851
        },
        {
          "duration": 0.013516406250005275,
          "durationTicks": 10,
          "midi": 44,
          "name": "G#2",
          "ticks": 61228,
          "time": 82.75825218749999,
          "velocity": 0.4645669291338583
        },
        {
          "duration": 0.010813125000012747,
          "durationTicks": 8,
          "midi": 82,
          "name": "A#5",
          "ticks": 61324,
          "time": 82.88800968749999,
          "velocity": 0.5826771653543307
        },
        {
          "duration": 0.013516406250005275,
          "durationTicks": 10,
          "midi": 42,
          "name": "F#2",
          "ticks": 61326,
          "time": 82.89071296875,
          "velocity": 0.5984251968503937
        },
        {
          "duration": 0.04325249999999414,
          "durationTicks": 32,
          "midi": 54,
          "name": "F#3",
          "ticks": 61328,
          "time": 82.89341625,
          "velocity": 0.9133858267716536
        },
        {
          "duration": 0.013516406249991064,
          "durationTicks": 10,
          "midi": 44,
          "name": "G#2",
          "ticks": 61418,
          "time": 83.01506390625,
          "velocity": 0.4094488188976378
        },
        {
          "duration": 0.010813124999998536,
          "durationTicks": 8,
          "midi": 82,
          "name": "A#5",
          "ticks": 61420,
          "time": 83.0177671875,
          "velocity": 0.5275590551181102
        },
        {
          "duration": 0.06487875000000543,
          "durationTicks": 48,
          "midi": 54,
          "name": "F#3",
          "ticks": 61424,
          "time": 83.02317375,
          "velocity": 0.8582677165354331
        },
        {
          "duration": 0.010813124999998536,
          "durationTicks": 8,
          "midi": 46,
          "name": "A#2",
          "ticks": 61516,
          "time": 83.1475246875,
          "velocity": 0.6692913385826772
        },
        {
          "duration": 0.013516406250005275,
          "durationTicks": 10,
          "midi": 36,
          "name": "C2",
          "ticks": 61516,
          "time": 83.1475246875,
          "velocity": 0.9212598425196851
        },
        {
          "duration": 0.013516406249991064,
          "durationTicks": 10,
          "midi": 82,
          "name": "A#5",
          "ticks": 61706,
          "time": 83.40433640625001,
          "velocity": 0.4094488188976378
        },
        {
          "duration": 0.043252500000008354,
          "durationTicks": 32,
          "midi": 54,
          "name": "F#3",
          "ticks": 61710,
          "time": 83.40974296875,
          "velocity": 0.8976377952755905
        },
        {
          "duration": 0.013516406249991064,
          "durationTicks": 10,
          "midi": 82,
          "name": "A#5",
          "ticks": 61802,
          "time": 83.53409390625,
          "velocity": 0.4094488188976378
        },
        {
          "duration": 0.07839515624999649,
          "durationTicks": 58,
          "midi": 54,
          "name": "F#3",
          "ticks": 61808,
          "time": 83.54220375,
          "velocity": 0.5748031496062992
        },
        {
          "duration": 0.013516406250005275,
          "durationTicks": 10,
          "midi": 44,
          "name": "G#2",
          "ticks": 61900,
          "time": 83.6665546875,
          "velocity": 0.5748031496062992
        },
        {
          "duration": 0.010813124999998536,
          "durationTicks": 8,
          "midi": 38,
          "name": "D2",
          "ticks": 61900,
          "time": 83.6665546875,
          "velocity": 0.8740157480314961
        },
        {
          "duration": 0.013516406249991064,
          "durationTicks": 10,
          "midi": 42,
          "name": "F#2",
          "ticks": 61998,
          "time": 83.79901546875,
          "velocity": 0.6220472440944882
        },
        {
          "duration": 0.013516406250005275,
          "durationTicks": 10,
          "midi": 82,
          "name": "A#5",
          "ticks": 62090,
          "time": 83.92336640625,
          "velocity": 0.48031496062992124
        },
        {
          "duration": 0.013516406250019486,
          "durationTicks": 10,
          "midi": 44,
          "name": "G#2",
          "ticks": 62092,
          "time": 83.92606968749999,
          "velocity": 0.5118110236220472
        },
        {
          "duration": 0.07569187500000396,
          "durationTicks": 56,
          "midi": 54,
          "name": "F#3",
          "ticks": 62094,
          "time": 83.92877296875,
          "velocity": 0.9448818897637795
        },
        {
          "duration": 0.013516406249991064,
          "durationTicks": 10,
          "midi": 82,
          "name": "A#5",
          "ticks": 62186,
          "time": 84.05312390625001,
          "velocity": 0.5275590551181102
        },
        {
          "duration": 0.013516406250005275,
          "durationTicks": 10,
          "midi": 46,
          "name": "A#2",
          "ticks": 62188,
          "time": 84.0558271875,
          "velocity": 0.6377952755905512
        },
        {
          "duration": 0.013516406250005275,
          "durationTicks": 10,
          "midi": 36,
          "name": "C2",
          "ticks": 62188,
          "time": 84.0558271875,
          "velocity": 0.8740157480314961
        },
        {
          "duration": 0.07839515624999649,
          "durationTicks": 58,
          "midi": 54,
          "name": "F#3",
          "ticks": 62190,
          "time": 84.05853046874999,
          "velocity": 0.8818897637795275
        },
        {
          "duration": 0.013516406249991064,
          "durationTicks": 10,
          "midi": 42,
          "name": "F#2",
          "ticks": 62286,
          "time": 84.18828796875,
          "velocity": 0.2283464566929134
        },
        {
          "duration": 0.013516406250005275,
          "durationTicks": 10,
          "midi": 46,
          "name": "A#2",
          "ticks": 62380,
          "time": 84.3153421875,
          "velocity": 0.6377952755905512
        },
        {
          "duration": 0.013516406249991064,
          "durationTicks": 10,
          "midi": 82,
          "name": "A#5",
          "ticks": 62472,
          "time": 84.439693125,
          "velocity": 0.1968503937007874
        },
        {
          "duration": 0.010813125000012747,
          "durationTicks": 8,
          "midi": 36,
          "name": "C2",
          "ticks": 62476,
          "time": 84.44509968749999,
          "velocity": 0.8740157480314961
        },
        {
          "duration": 0.07028531249999048,
          "durationTicks": 52,
          "midi": 54,
          "name": "F#3",
          "ticks": 62478,
          "time": 84.44780296875,
          "velocity": 0.8976377952755905
        },
        {
          "duration": 0.013516406249991064,
          "durationTicks": 10,
          "midi": 42,
          "name": "F#2",
          "ticks": 62478,
          "time": 84.44780296875,
          "velocity": 0.5826771653543307
        },
        {
          "duration": 0.013516406249991064,
          "durationTicks": 10,
          "midi": 82,
          "name": "A#5",
          "ticks": 62568,
          "time": 84.569450625,
          "velocity": 0.5118110236220472
        },
        {
          "duration": 0.06758203125001216,
          "durationTicks": 50,
          "midi": 54,
          "name": "F#3",
          "ticks": 62572,
          "time": 84.57485718749999,
          "velocity": 0.8188976377952756
        },
        {
          "duration": 0.013516406250005275,
          "durationTicks": 10,
          "midi": 44,
          "name": "G#2",
          "ticks": 62574,
          "time": 84.57756046875,
          "velocity": 0.5039370078740157
        },
        {
          "duration": 0.013516406250005275,
          "durationTicks": 10,
          "midi": 42,
          "name": "F#2",
          "ticks": 62668,
          "time": 84.7046146875,
          "velocity": 0.6692913385826772
        },
        {
          "duration": 0.013516406249991064,
          "durationTicks": 10,
          "midi": 38,
          "name": "D2",
          "ticks": 62670,
          "time": 84.70731796875,
          "velocity": 0.8976377952755905
        },
        {
          "duration": 0.013516406249991064,
          "durationTicks": 10,
          "midi": 44,
          "name": "G#2",
          "ticks": 62766,
          "time": 84.83707546875,
          "velocity": 0.4645669291338583
        },
        {
          "duration": 0.013516406250005275,
          "durationTicks": 10,
          "midi": 82,
          "name": "A#5",
          "ticks": 62858,
          "time": 84.96142640625,
          "velocity": 0.5826771653543307
        },
        {
          "duration": 0.07028531249999048,
          "durationTicks": 52,
          "midi": 54,
          "name": "F#3",
          "ticks": 62862,
          "time": 84.96683296875,
          "velocity": 0.9212598425196851
        },
        {
          "duration": 0.013516406249991064,
          "durationTicks": 10,
          "midi": 42,
          "name": "F#2",
          "ticks": 62862,
          "time": 84.96683296875,
          "velocity": 0.6377952755905512
        },
        {
          "duration": 0.013516406249991064,
          "durationTicks": 10,
          "midi": 82,
          "name": "A#5",
          "ticks": 62954,
          "time": 85.09118390625001,
          "velocity": 0.48031496062992124
        },
        {
          "duration": 0.010813125000012747,
          "durationTicks": 8,
          "midi": 44,
          "name": "G#2",
          "ticks": 62956,
          "time": 85.09388718749999,
          "velocity": 0.4645669291338583
        },
        {
          "duration": 0.062175468749998686,
          "durationTicks": 46,
          "midi": 54,
          "name": "F#3",
          "ticks": 62960,
          "time": 85.09929375,
          "velocity": 0.8031496062992126
        },
        {
          "duration": 0.010813124999998536,
          "durationTicks": 8,
          "midi": 46,
          "name": "A#2",
          "ticks": 63052,
          "time": 85.2236446875,
          "velocity": 0.6692913385826772
        },
        {
          "duration": 0.013516406249991064,
          "durationTicks": 10,
          "midi": 36,
          "name": "C2",
          "ticks": 63054,
          "time": 85.22634796875,
          "velocity": 0.8503937007874016
        },
        {
          "duration": 0.013516406250005275,
          "durationTicks": 10,
          "midi": 82,
          "name": "A#5",
          "ticks": 63242,
          "time": 85.48045640625,
          "velocity": 0.5275590551181102
        },
        {
          "duration": 0.062175468749998686,
          "durationTicks": 46,
          "midi": 54,
          "name": "F#3",
          "ticks": 63246,
          "time": 85.48586296875,
          "velocity": 0.9606299212598425
        },
        {
          "duration": 0.013516406249991064,
          "durationTicks": 10,
          "midi": 82,
          "name": "A#5",
          "ticks": 63338,
          "time": 85.61021390625001,
          "velocity": 0.4881889763779528
        },
        {
          "duration": 0.062175468749998686,
          "durationTicks": 46,
          "midi": 54,
          "name": "F#3",
          "ticks": 63342,
          "time": 85.61562046875,
          "velocity": 0.8188976377952756
        },
        {
          "duration": 0.010813124999998536,
          "durationTicks": 8,
          "midi": 44,
          "name": "G#2",
          "ticks": 63436,
          "time": 85.7426746875,
          "velocity": 0.5984251968503937
        },
        {
          "duration": 0.013516406250005275,
          "durationTicks": 10,
          "midi": 38,
          "name": "D2",
          "ticks": 63436,
          "time": 85.7426746875,
          "velocity": 0.8267716535433071
        },
        {
          "duration": 0.013516406250005275,
          "durationTicks": 10,
          "midi": 42,
          "name": "F#2",
          "ticks": 63532,
          "time": 85.8724321875,
          "velocity": 0.6220472440944882
        },
        {
          "duration": 0.013516406250005275,
          "durationTicks": 10,
          "midi": 82,
          "name": "A#5",
          "ticks": 63626,
          "time": 85.99948640625,
          "velocity": 0.5511811023622047
        },
        {
          "duration": 0.010813125000012747,
          "durationTicks": 8,
          "midi": 44,
          "name": "G#2",
          "ticks": 63628,
          "time": 86.00218968749999,
          "velocity": 0.5748031496062992
        },
        {
          "duration": 0.062175468749998686,
          "durationTicks": 46,
          "midi": 54,
          "name": "F#3",
          "ticks": 63630,
          "time": 86.00489296875,
          "velocity": 0.9606299212598425
        },
        {
          "duration": 0.013516406250005275,
          "durationTicks": 10,
          "midi": 82,
          "name": "A#5",
          "ticks": 63722,
          "time": 86.12924390625,
          "velocity": 0.3858267716535433
        },
        {
          "duration": 0.013516406250019486,
          "durationTicks": 10,
          "midi": 46,
          "name": "A#2",
          "ticks": 63724,
          "time": 86.13194718749999,
          "velocity": 0.6220472440944882
        },
        {
          "duration": 0.013516406250019486,
          "durationTicks": 10,
          "midi": 36,
          "name": "C2",
          "ticks": 63724,
          "time": 86.13194718749999,
          "velocity": 0.8976377952755905
        },
        {
          "duration": 0.06487875000000543,
          "durationTicks": 48,
          "midi": 54,
          "name": "F#3",
          "ticks": 63726,
          "time": 86.13465046875,
          "velocity": 0.8267716535433071
        },
        {
          "duration": 0.013516406250005275,
          "durationTicks": 10,
          "midi": 42,
          "name": "F#2",
          "ticks": 63820,
          "time": 86.2617046875,
          "velocity": 0.41732283464566927
        },
        {
          "duration": 0.013516406250005275,
          "durationTicks": 10,
          "midi": 46,
          "name": "A#2",
          "ticks": 63916,
          "time": 86.3914621875,
          "velocity": 0.6220472440944882
        },
        {
          "duration": 0.010813124999998536,
          "durationTicks": 8,
          "midi": 82,
          "name": "A#5",
          "ticks": 64012,
          "time": 86.5212196875,
          "velocity": 0.4094488188976378
        },
        {
          "duration": 0.010813124999998536,
          "durationTicks": 8,
          "midi": 36,
          "name": "C2",
          "ticks": 64012,
          "time": 86.5212196875,
          "velocity": 0.8740157480314961
        },
        {
          "duration": 0.013516406249991064,
          "durationTicks": 10,
          "midi": 42,
          "name": "F#2",
          "ticks": 64014,
          "time": 86.52392296875,
          "velocity": 0.5748031496062992
        },
        {
          "duration": 0.062175468749998686,
          "durationTicks": 46,
          "midi": 54,
          "name": "F#3",
          "ticks": 64016,
          "time": 86.52662625,
          "velocity": 0.984251968503937
        },
        {
          "duration": 0.010813125000012747,
          "durationTicks": 8,
          "midi": 82,
          "name": "A#5",
          "ticks": 64108,
          "time": 86.65097718749999,
          "velocity": 0.44881889763779526
        },
        {
          "duration": 0.013516406249991064,
          "durationTicks": 10,
          "midi": 44,
          "name": "G#2",
          "ticks": 64110,
          "time": 86.65368046875,
          "velocity": 0.5511811023622047
        },
        {
          "duration": 0.06487875000000543,
          "durationTicks": 48,
          "midi": 54,
          "name": "F#3",
          "ticks": 64112,
          "time": 86.65638375,
          "velocity": 0.8582677165354331
        },
        {
          "duration": 0.013516406250019486,
          "durationTicks": 10,
          "midi": 42,
          "name": "F#2",
          "ticks": 64204,
          "time": 86.78073468749999,
          "velocity": 0.7401574803149606
        },
        {
          "duration": 0.013516406250019486,
          "durationTicks": 10,
          "midi": 38,
          "name": "D2",
          "ticks": 64204,
          "time": 86.78073468749999,
          "velocity": 0.9212598425196851
        },
        {
          "duration": 0.013516406249991064,
          "durationTicks": 10,
          "midi": 44,
          "name": "G#2",
          "ticks": 64302,
          "time": 86.91319546875,
          "velocity": 0.5118110236220472
        },
        {
          "duration": 0.010813124999998536,
          "durationTicks": 8,
          "midi": 82,
          "name": "A#5",
          "ticks": 64396,
          "time": 87.0402496875,
          "velocity": 0.5511811023622047
        },
        {
          "duration": 0.013516406249991064,
          "durationTicks": 10,
          "midi": 42,
          "name": "F#2",
          "ticks": 64398,
          "time": 87.04295296875,
          "velocity": 0.6377952755905512
        },
        {
          "duration": 0.06758203124998374,
          "durationTicks": 50,
          "midi": 54,
          "name": "F#3",
          "ticks": 64400,
          "time": 87.04565625000001,
          "velocity": 0.984251968503937
        },
        {
          "duration": 0.010813125000012747,
          "durationTicks": 8,
          "midi": 82,
          "name": "A#5",
          "ticks": 64492,
          "time": 87.17000718749999,
          "velocity": 0.4881889763779528
        },
        {
          "duration": 0.013516406250019486,
          "durationTicks": 10,
          "midi": 44,
          "name": "G#2",
          "ticks": 64492,
          "time": 87.17000718749999,
          "velocity": 0.4566929133858268
        },
        {
          "duration": 0.07298859374999722,
          "durationTicks": 54,
          "midi": 54,
          "name": "F#3",
          "ticks": 64496,
          "time": 87.17541375,
          "velocity": 0.8267716535433071
        },
        {
          "duration": 0.013516406250019486,
          "durationTicks": 10,
          "midi": 46,
          "name": "A#2",
          "ticks": 64588,
          "time": 87.29976468749999,
          "velocity": 0.6535433070866141
        },
        {
          "duration": 0.013516406250019486,
          "durationTicks": 10,
          "midi": 36,
          "name": "C2",
          "ticks": 64588,
          "time": 87.29976468749999,
          "velocity": 0.8976377952755905
        },
        {
          "duration": 0.013516406249991064,
          "durationTicks": 10,
          "midi": 82,
          "name": "A#5",
          "ticks": 64778,
          "time": 87.55657640625,
          "velocity": 0.5826771653543307
        },
        {
          "duration": 0.013516406250005275,
          "durationTicks": 10,
          "midi": 36,
          "name": "C2",
          "ticks": 64780,
          "time": 87.5592796875,
          "velocity": 0.7795275590551181
        },
        {
          "duration": 0.06758203124998374,
          "durationTicks": 50,
          "midi": 54,
          "name": "F#3",
          "ticks": 64784,
          "time": 87.56468625000001,
          "velocity": 0.9212598425196851
        },
        {
          "duration": 0.010813125000012747,
          "durationTicks": 8,
          "midi": 82,
          "name": "A#5",
          "ticks": 64876,
          "time": 87.68903718749999,
          "velocity": 0.5511811023622047
        },
        {
          "duration": 0.07569187499998975,
          "durationTicks": 56,
          "midi": 54,
          "name": "F#3",
          "ticks": 64880,
          "time": 87.69444375,
          "velocity": 0.8110236220472441
        },
        {
          "duration": 0.013516406250019486,
          "durationTicks": 10,
          "midi": 44,
          "name": "G#2",
          "ticks": 64972,
          "time": 87.81879468749999,
          "velocity": 0.6220472440944882
        },
        {
          "duration": 0.013516406250019486,
          "durationTicks": 10,
          "midi": 38,
          "name": "D2",
          "ticks": 64972,
          "time": 87.81879468749999,
          "velocity": 0.9212598425196851
        },
        {
          "duration": 0.013516406250005275,
          "durationTicks": 10,
          "midi": 42,
          "name": "F#2",
          "ticks": 65070,
          "time": 87.95125546874999,
          "velocity": 0.5748031496062992
        },
        {
          "duration": 0.013516406249991064,
          "durationTicks": 10,
          "midi": 82,
          "name": "A#5",
          "ticks": 65162,
          "time": 88.07560640625,
          "velocity": 0.4881889763779528
        },
        {
          "duration": 0.013516406250005275,
          "durationTicks": 10,
          "midi": 44,
          "name": "G#2",
          "ticks": 65164,
          "time": 88.0783096875,
          "velocity": 0.5748031496062992
        },
        {
          "duration": 0.06758203124998374,
          "durationTicks": 50,
          "midi": 54,
          "name": "F#3",
          "ticks": 65168,
          "time": 88.08371625000001,
          "velocity": 0.9448818897637795
        },
        {
          "duration": 0.010813125000012747,
          "durationTicks": 8,
          "midi": 82,
          "name": "A#5",
          "ticks": 65260,
          "time": 88.20806718749999,
          "velocity": 0.5275590551181102
        },
        {
          "duration": 0.013516406250005275,
          "durationTicks": 10,
          "midi": 46,
          "name": "A#2",
          "ticks": 65260,
          "time": 88.20806718749999,
          "velocity": 0.5826771653543307
        },
        {
          "duration": 0.010813125000012747,
          "durationTicks": 8,
          "midi": 36,
          "name": "C2",
          "ticks": 65260,
          "time": 88.20806718749999,
          "velocity": 0.8267716535433071
        },
        {
          "duration": 0.08380171875000997,
          "durationTicks": 62,
          "midi": 54,
          "name": "F#3",
          "ticks": 65262,
          "time": 88.21077046875,
          "velocity": 0.8503937007874016
        },
        {
          "duration": 0.013516406250019486,
          "durationTicks": 10,
          "midi": 42,
          "name": "F#2",
          "ticks": 65356,
          "time": 88.33782468749999,
          "velocity": 0.3779527559055118
        },
        {
          "duration": 0.013516406250005275,
          "durationTicks": 10,
          "midi": 46,
          "name": "A#2",
          "ticks": 65452,
          "time": 88.4675821875,
          "velocity": 0.6377952755905512
        },
        {
          "duration": 0.013516406249991064,
          "durationTicks": 10,
          "midi": 82,
          "name": "A#5",
          "ticks": 65546,
          "time": 88.59463640625,
          "velocity": 0.1732283464566929
        },
        {
          "duration": 0.013516406250005275,
          "durationTicks": 10,
          "midi": 42,
          "name": "F#2",
          "ticks": 65548,
          "time": 88.5973396875,
          "velocity": 0.5511811023622047
        },
        {
          "duration": 0.010813124999998536,
          "durationTicks": 8,
          "midi": 36,
          "name": "C2",
          "ticks": 65548,
          "time": 88.5973396875,
          "velocity": 0.8976377952755905
        },
        {
          "duration": 0.06487874999999121,
          "durationTicks": 48,
          "midi": 54,
          "name": "F#3",
          "ticks": 65552,
          "time": 88.60274625000001,
          "velocity": 0.9212598425196851
        },
        {
          "duration": 0.013516406249991064,
          "durationTicks": 10,
          "midi": 82,
          "name": "A#5",
          "ticks": 65642,
          "time": 88.72439390625,
          "velocity": 0.4645669291338583
        },
        {
          "duration": 0.013516406250005275,
          "durationTicks": 10,
          "midi": 44,
          "name": "G#2",
          "ticks": 65644,
          "time": 88.7270971875,
          "velocity": 0.5748031496062992
        },
        {
          "duration": 0.07298859374999722,
          "durationTicks": 54,
          "midi": 54,
          "name": "F#3",
          "ticks": 65648,
          "time": 88.73250375,
          "velocity": 0.8267716535433071
        },
        {
          "duration": 0.010813125000012747,
          "durationTicks": 8,
          "midi": 42,
          "name": "F#2",
          "ticks": 65740,
          "time": 88.85685468749999,
          "velocity": 0.7401574803149606
        },
        {
          "duration": 0.013516406250019486,
          "durationTicks": 10,
          "midi": 38,
          "name": "D2",
          "ticks": 65740,
          "time": 88.85685468749999,
          "velocity": 0.9448818897637795
        },
        {
          "duration": 0.013516406250005275,
          "durationTicks": 10,
          "midi": 44,
          "name": "G#2",
          "ticks": 65836,
          "time": 88.9866121875,
          "velocity": 0.49606299212598426
        },
        {
          "duration": 0.013516406249991064,
          "durationTicks": 10,
          "midi": 82,
          "name": "A#5",
          "ticks": 65930,
          "time": 89.11366640625,
          "velocity": 0.5826771653543307
        },
        {
          "duration": 0.013516406249991064,
          "durationTicks": 10,
          "midi": 42,
          "name": "F#2",
          "ticks": 65934,
          "time": 89.11907296875,
          "velocity": 0.6377952755905512
        },
        {
          "duration": 0.06487875000000543,
          "durationTicks": 48,
          "midi": 54,
          "name": "F#3",
          "ticks": 65936,
          "time": 89.12177625,
          "velocity": 0.9291338582677166
        },
        {
          "duration": 0.013516406249991064,
          "durationTicks": 10,
          "midi": 82,
          "name": "A#5",
          "ticks": 66026,
          "time": 89.24342390625,
          "velocity": 0.44881889763779526
        },
        {
          "duration": 0.010813124999998536,
          "durationTicks": 8,
          "midi": 44,
          "name": "G#2",
          "ticks": 66028,
          "time": 89.2461271875,
          "velocity": 0.4566929133858268
        },
        {
          "duration": 0.08109843750000323,
          "durationTicks": 60,
          "midi": 54,
          "name": "F#3",
          "ticks": 66030,
          "time": 89.24883046875,
          "velocity": 0.8267716535433071
        },
        {
          "duration": 0.013516406250005275,
          "durationTicks": 10,
          "midi": 52,
          "name": "E3",
          "ticks": 66122,
          "time": 89.37318140625,
          "velocity": 0.9606299212598425
        },
        {
          "duration": 0.013516406250019486,
          "durationTicks": 10,
          "midi": 46,
          "name": "A#2",
          "ticks": 66124,
          "time": 89.37588468749999,
          "velocity": 0.6535433070866141
        },
        {
          "duration": 0.013516406249991064,
          "durationTicks": 10,
          "midi": 36,
          "name": "C2",
          "ticks": 66126,
          "time": 89.37858796875,
          "velocity": 0.8976377952755905
        },
        {
          "duration": 0.010813124999998536,
          "durationTicks": 8,
          "midi": 82,
          "name": "A#5",
          "ticks": 66316,
          "time": 89.6353996875,
          "velocity": 0.2755905511811024
        },
        {
          "duration": 0.06487874999999121,
          "durationTicks": 48,
          "midi": 54,
          "name": "F#3",
          "ticks": 66318,
          "time": 89.63810296875,
          "velocity": 0.889763779527559
        },
        {
          "duration": 0.013516406250005275,
          "durationTicks": 10,
          "midi": 82,
          "name": "A#5",
          "ticks": 66412,
          "time": 89.7651571875,
          "velocity": 0.4881889763779528
        },
        {
          "duration": 0.07569187500000396,
          "durationTicks": 56,
          "midi": 54,
          "name": "F#3",
          "ticks": 66414,
          "time": 89.76786046875,
          "velocity": 0.8267716535433071
        },
        {
          "duration": 0.013516406250005275,
          "durationTicks": 10,
          "midi": 44,
          "name": "G#2",
          "ticks": 66506,
          "time": 89.89221140625,
          "velocity": 0.5826771653543307
        },
        {
          "duration": 0.013516406250005275,
          "durationTicks": 10,
          "midi": 38,
          "name": "D2",
          "ticks": 66508,
          "time": 89.89491468749999,
          "velocity": 0.8976377952755905
        },
        {
          "duration": 0.010813125000012747,
          "durationTicks": 8,
          "midi": 42,
          "name": "F#2",
          "ticks": 66604,
          "time": 90.02467218749999,
          "velocity": 0.5984251968503937
        },
        {
          "duration": 0.013516406249991064,
          "durationTicks": 10,
          "midi": 44,
          "name": "G#2",
          "ticks": 66698,
          "time": 90.15172640625,
          "velocity": 0.5354330708661418
        },
        {
          "duration": 0.010813124999998536,
          "durationTicks": 8,
          "midi": 82,
          "name": "A#5",
          "ticks": 66700,
          "time": 90.1544296875,
          "velocity": 0.5984251968503937
        },
        {
          "duration": 0.06758203124999795,
          "durationTicks": 50,
          "midi": 54,
          "name": "F#3",
          "ticks": 66702,
          "time": 90.15713296875,
          "velocity": 0.8976377952755905
        },
        {
          "duration": 0.010813124999998536,
          "durationTicks": 8,
          "midi": 82,
          "name": "A#5",
          "ticks": 66796,
          "time": 90.2841871875,
          "velocity": 0.48031496062992124
        },
        {
          "duration": 0.010813124999998536,
          "durationTicks": 8,
          "midi": 46,
          "name": "A#2",
          "ticks": 66796,
          "time": 90.2841871875,
          "velocity": 0.5826771653543307
        },
        {
          "duration": 0.08380171874999576,
          "durationTicks": 62,
          "midi": 54,
          "name": "F#3",
          "ticks": 66798,
          "time": 90.28689046875,
          "velocity": 0.8110236220472441
        },
        {
          "duration": 0.013516406249991064,
          "durationTicks": 10,
          "midi": 36,
          "name": "C2",
          "ticks": 66798,
          "time": 90.28689046875,
          "velocity": 0.8740157480314961
        },
        {
          "duration": 0.013516406250005275,
          "durationTicks": 10,
          "midi": 42,
          "name": "F#2",
          "ticks": 66892,
          "time": 90.41394468749999,
          "velocity": 0.3779527559055118
        },
        {
          "duration": 0.010813125000012747,
          "durationTicks": 8,
          "midi": 46,
          "name": "A#2",
          "ticks": 66988,
          "time": 90.54370218749999,
          "velocity": 0.6220472440944882
        },
        {
          "duration": 0.013516406249991064,
          "durationTicks": 10,
          "midi": 82,
          "name": "A#5",
          "ticks": 67080,
          "time": 90.668053125,
          "velocity": 0.4094488188976378
        },
        {
          "duration": 0.010813124999998536,
          "durationTicks": 8,
          "midi": 36,
          "name": "C2",
          "ticks": 67084,
          "time": 90.6734596875,
          "velocity": 0.8267716535433071
        },
        {
          "duration": 0.06758203125001216,
          "durationTicks": 50,
          "midi": 54,
          "name": "F#3",
          "ticks": 67086,
          "time": 90.67616296874999,
          "velocity": 0.9133858267716536
        },
        {
          "duration": 0.013516406250005275,
          "durationTicks": 10,
          "midi": 42,
          "name": "F#2",
          "ticks": 67086,
          "time": 90.67616296874999,
          "velocity": 0.5118110236220472
        },
        {
          "duration": 0.013516406249991064,
          "durationTicks": 10,
          "midi": 82,
          "name": "A#5",
          "ticks": 67178,
          "time": 90.80051390625,
          "velocity": 0.48031496062992124
        },
        {
          "duration": 0.013516406250005275,
          "durationTicks": 10,
          "midi": 44,
          "name": "G#2",
          "ticks": 67180,
          "time": 90.8032171875,
          "velocity": 0.5511811023622047
        },
        {
          "duration": 0.07298859374999722,
          "durationTicks": 54,
          "midi": 54,
          "name": "F#3",
          "ticks": 67184,
          "time": 90.80862375000001,
          "velocity": 0.7874015748031497
        },
        {
          "duration": 0.013516406250005275,
          "durationTicks": 10,
          "midi": 42,
          "name": "F#2",
          "ticks": 67276,
          "time": 90.93297468749999,
          "velocity": 0.6377952755905512
        },
        {
          "duration": 0.013516406250005275,
          "durationTicks": 10,
          "midi": 38,
          "name": "D2",
          "ticks": 67276,
          "time": 90.93297468749999,
          "velocity": 0.8503937007874016
        },
        {
          "duration": 0.013516406250019486,
          "durationTicks": 10,
          "midi": 44,
          "name": "G#2",
          "ticks": 67372,
          "time": 91.06273218749999,
          "velocity": 0.44881889763779526
        },
        {
          "duration": 0.013516406249991064,
          "durationTicks": 10,
          "midi": 82,
          "name": "A#5",
          "ticks": 67466,
          "time": 91.18978640625001,
          "velocity": 0.5275590551181102
        },
        {
          "duration": 0.013516406250005275,
          "durationTicks": 10,
          "midi": 42,
          "name": "F#2",
          "ticks": 67470,
          "time": 91.19519296874999,
          "velocity": 0.6220472440944882
        },
        {
          "duration": 0.07028531250000469,
          "durationTicks": 52,
          "midi": 54,
          "name": "F#3",
          "ticks": 67472,
          "time": 91.19789625,
          "velocity": 0.9212598425196851
        },
        {
          "duration": 0.010813124999998536,
          "durationTicks": 8,
          "midi": 82,
          "name": "A#5",
          "ticks": 67564,
          "time": 91.3222471875,
          "velocity": 0.4645669291338583
        },
        {
          "duration": 0.010813124999998536,
          "durationTicks": 8,
          "midi": 44,
          "name": "G#2",
          "ticks": 67564,
          "time": 91.3222471875,
          "velocity": 0.5118110236220472
        },
        {
          "duration": 0.07839515624998228,
          "durationTicks": 58,
          "midi": 54,
          "name": "F#3",
          "ticks": 67568,
          "time": 91.32765375000001,
          "velocity": 0.7952755905511811
        },
        {
          "duration": 0.013516406250005275,
          "durationTicks": 10,
          "midi": 46,
          "name": "A#2",
          "ticks": 67660,
          "time": 91.4520046875,
          "velocity": 0.6377952755905512
        },
        {
          "duration": 0.013516406249991064,
          "durationTicks": 10,
          "midi": 36,
          "name": "C2",
          "ticks": 67662,
          "time": 91.45470796875,
          "velocity": 0.8267716535433071
        },
        {
          "duration": 0.013516406249991064,
          "durationTicks": 10,
          "midi": 82,
          "name": "A#5",
          "ticks": 67848,
          "time": 91.706113125,
          "velocity": 0.3858267716535433
        },
        {
          "duration": 0.07839515624999649,
          "durationTicks": 58,
          "midi": 54,
          "name": "F#3",
          "ticks": 67854,
          "time": 91.71422296875,
          "velocity": 0.8976377952755905
        },
        {
          "duration": 0.013516406249991064,
          "durationTicks": 10,
          "midi": 82,
          "name": "A#5",
          "ticks": 67944,
          "time": 91.835870625,
          "velocity": 0.44881889763779526
        },
        {
          "duration": 0.08650499999998829,
          "durationTicks": 64,
          "midi": 54,
          "name": "F#3",
          "ticks": 67950,
          "time": 91.84398046875,
          "velocity": 0.8110236220472441
        },
        {
          "duration": 0.013516406249991064,
          "durationTicks": 10,
          "midi": 38,
          "name": "D2",
          "ticks": 68042,
          "time": 91.96833140625,
          "velocity": 0.8503937007874016
        },
        {
          "duration": 0.013516406250005275,
          "durationTicks": 10,
          "midi": 44,
          "name": "G#2",
          "ticks": 68044,
          "time": 91.9710346875,
          "velocity": 0.5748031496062992
        },
        {
          "duration": 0.013516406250019486,
          "durationTicks": 10,
          "midi": 42,
          "name": "F#2",
          "ticks": 68140,
          "time": 92.10079218749999,
          "velocity": 0.5984251968503937
        },
        {
          "duration": 0.013516406249991064,
          "durationTicks": 10,
          "midi": 82,
          "name": "A#5",
          "ticks": 68232,
          "time": 92.225143125,
          "velocity": 0.5826771653543307
        },
        {
          "duration": 0.010813125000012747,
          "durationTicks": 8,
          "midi": 44,
          "name": "G#2",
          "ticks": 68236,
          "time": 92.23054968749999,
          "velocity": 0.49606299212598426
        },
        {
          "duration": 0.06758203125001216,
          "durationTicks": 50,
          "midi": 54,
          "name": "F#3",
          "ticks": 68238,
          "time": 92.23325296875,
          "velocity": 0.9133858267716536
        },
        {
          "duration": 0.013516406249991064,
          "durationTicks": 10,
          "midi": 82,
          "name": "A#5",
          "ticks": 68330,
          "time": 92.35760390625,
          "velocity": 0.4094488188976378
        },
        {
          "duration": 0.013516406249991064,
          "durationTicks": 10,
          "midi": 36,
          "name": "C2",
          "ticks": 68330,
          "time": 92.35760390625,
          "velocity": 0.8740157480314961
        },
        {
          "duration": 0.013516406250005275,
          "durationTicks": 10,
          "midi": 46,
          "name": "A#2",
          "ticks": 68332,
          "time": 92.3603071875,
          "velocity": 0.5748031496062992
        },
        {
          "duration": 0.08109843749998902,
          "durationTicks": 60,
          "midi": 54,
          "name": "F#3",
          "ticks": 68334,
          "time": 92.36301046875,
          "velocity": 0.8267716535433071
        },
        {
          "duration": 0.013516406250005275,
          "durationTicks": 10,
          "midi": 42,
          "name": "F#2",
          "ticks": 68428,
          "time": 92.4900646875,
          "velocity": 0.3779527559055118
        },
        {
          "duration": 0.013516406250005275,
          "durationTicks": 10,
          "midi": 46,
          "name": "A#2",
          "ticks": 68524,
          "time": 92.61982218749999,
          "velocity": 0.5984251968503937
        },
        {
          "duration": 0.013516406249991064,
          "durationTicks": 10,
          "midi": 82,
          "name": "A#5",
          "ticks": 68616,
          "time": 92.744173125,
          "velocity": 0.5118110236220472
        },
        {
          "duration": 0.013516406249991064,
          "durationTicks": 10,
          "midi": 36,
          "name": "C2",
          "ticks": 68618,
          "time": 92.74687640625001,
          "velocity": 0.8740157480314961
        },
        {
          "duration": 0.062175468749998686,
          "durationTicks": 46,
          "midi": 54,
          "name": "F#3",
          "ticks": 68622,
          "time": 92.75228296875,
          "velocity": 0.8976377952755905
        },
        {
          "duration": 0.013516406250005275,
          "durationTicks": 10,
          "midi": 42,
          "name": "F#2",
          "ticks": 68622,
          "time": 92.75228296875,
          "velocity": 0.4645669291338583
        },
        {
          "duration": 0.013516406249991064,
          "durationTicks": 10,
          "midi": 82,
          "name": "A#5",
          "ticks": 68712,
          "time": 92.873930625,
          "velocity": 0.2755905511811024
        },
        {
          "duration": 0.07839515624999649,
          "durationTicks": 58,
          "midi": 54,
          "name": "F#3",
          "ticks": 68718,
          "time": 92.88204046874999,
          "velocity": 0.7874015748031497
        },
        {
          "duration": 0.013516406250005275,
          "durationTicks": 10,
          "midi": 44,
          "name": "G#2",
          "ticks": 68718,
          "time": 92.88204046874999,
          "velocity": 0.5118110236220472
        },
        {
          "duration": 0.013516406250005275,
          "durationTicks": 10,
          "midi": 42,
          "name": "F#2",
          "ticks": 68812,
          "time": 93.0090946875,
          "velocity": 0.6535433070866141
        },
        {
          "duration": 0.010813124999998536,
          "durationTicks": 8,
          "midi": 38,
          "name": "D2",
          "ticks": 68812,
          "time": 93.0090946875,
          "velocity": 0.9448818897637795
        },
        {
          "duration": 0.013516406250005275,
          "durationTicks": 10,
          "midi": 44,
          "name": "G#2",
          "ticks": 68908,
          "time": 93.13885218749999,
          "velocity": 0.4881889763779528
        },
        {
          "duration": 0.013516406249991064,
          "durationTicks": 10,
          "midi": 82,
          "name": "A#5",
          "ticks": 69000,
          "time": 93.263203125,
          "velocity": 0.5826771653543307
        },
        {
          "duration": 0.013516406250019486,
          "durationTicks": 10,
          "midi": 42,
          "name": "F#2",
          "ticks": 69004,
          "time": 93.26860968749999,
          "velocity": 0.5984251968503937
        },
        {
          "duration": 0.06487875000000543,
          "durationTicks": 48,
          "midi": 54,
          "name": "F#3",
          "ticks": 69006,
          "time": 93.27131296875,
          "velocity": 0.9291338582677166
        },
        {
          "duration": 0.013516406249991064,
          "durationTicks": 10,
          "midi": 82,
          "name": "A#5",
          "ticks": 69096,
          "time": 93.392960625,
          "velocity": 0.4094488188976378
        },
        {
          "duration": 0.010813124999998536,
          "durationTicks": 8,
          "midi": 44,
          "name": "G#2",
          "ticks": 69100,
          "time": 93.3983671875,
          "velocity": 0.5039370078740157
        },
        {
          "duration": 0.08109843750000323,
          "durationTicks": 60,
          "midi": 54,
          "name": "F#3",
          "ticks": 69102,
          "time": 93.40107046874999,
          "velocity": 0.8267716535433071
        },
        {
          "duration": 0.010813124999998536,
          "durationTicks": 8,
          "midi": 46,
          "name": "A#2",
          "ticks": 69196,
          "time": 93.5281246875,
          "velocity": 0.5984251968503937
        },
        {
          "duration": 0.013516406250005275,
          "durationTicks": 10,
          "midi": 36,
          "name": "C2",
          "ticks": 69196,
          "time": 93.5281246875,
          "velocity": 0.8740157480314961
        },
        {
          "duration": 0.013516406249991064,
          "durationTicks": 10,
          "midi": 82,
          "name": "A#5",
          "ticks": 69384,
          "time": 93.782233125,
          "velocity": 0.5118110236220472
        },
        {
          "duration": 0.07298859374999722,
          "durationTicks": 54,
          "midi": 54,
          "name": "F#3",
          "ticks": 69390,
          "time": 93.79034296875,
          "velocity": 0.8976377952755905
        },
        {
          "duration": 0.013516406249991064,
          "durationTicks": 10,
          "midi": 82,
          "name": "A#5",
          "ticks": 69480,
          "time": 93.911990625,
          "velocity": 0.48031496062992124
        },
        {
          "duration": 0.07839515624999649,
          "durationTicks": 58,
          "midi": 54,
          "name": "F#3",
          "ticks": 69486,
          "time": 93.92010046875,
          "velocity": 0.8110236220472441
        },
        {
          "duration": 0.010813124999998536,
          "durationTicks": 8,
          "midi": 44,
          "name": "G#2",
          "ticks": 69580,
          "time": 94.0471546875,
          "velocity": 0.5826771653543307
        },
        {
          "duration": 0.013516406250005275,
          "durationTicks": 10,
          "midi": 38,
          "name": "D2",
          "ticks": 69580,
          "time": 94.0471546875,
          "velocity": 0.8740157480314961
        },
        {
          "duration": 0.013516406249991064,
          "durationTicks": 10,
          "midi": 42,
          "name": "F#2",
          "ticks": 69674,
          "time": 94.17420890625,
          "velocity": 0.5748031496062992
        },
        {
          "duration": 0.013516406249991064,
          "durationTicks": 10,
          "midi": 82,
          "name": "A#5",
          "ticks": 69768,
          "time": 94.301263125,
          "velocity": 0.5118110236220472
        },
        {
          "duration": 0.013516406250005275,
          "durationTicks": 10,
          "midi": 44,
          "name": "G#2",
          "ticks": 69770,
          "time": 94.30396640625,
          "velocity": 0.4881889763779528
        },
        {
          "duration": 0.06758203125001216,
          "durationTicks": 50,
          "midi": 54,
          "name": "F#3",
          "ticks": 69774,
          "time": 94.30937296875,
          "velocity": 0.9133858267716536
        },
        {
          "duration": 0.013516406249991064,
          "durationTicks": 10,
          "midi": 82,
          "name": "A#5",
          "ticks": 69866,
          "time": 94.43372390625001,
          "velocity": 0.5984251968503937
        },
        {
          "duration": 0.010813125000012747,
          "durationTicks": 8,
          "midi": 46,
          "name": "A#2",
          "ticks": 69868,
          "time": 94.43642718749999,
          "velocity": 0.5748031496062992
        },
        {
          "duration": 0.07569187500000396,
          "durationTicks": 56,
          "midi": 54,
          "name": "F#3",
          "ticks": 69870,
          "time": 94.43913046875,
          "velocity": 0.7874015748031497
        },
        {
          "duration": 0.013516406250005275,
          "durationTicks": 10,
          "midi": 36,
          "name": "C2",
          "ticks": 69870,
          "time": 94.43913046875,
          "velocity": 0.8267716535433071
        },
        {
          "duration": 0.013516406250005275,
          "durationTicks": 10,
          "midi": 46,
          "name": "A#2",
          "ticks": 70060,
          "time": 94.6959421875,
          "velocity": 0.6929133858267716
        },
        {
          "duration": 0.013516406250005275,
          "durationTicks": 10,
          "midi": 82,
          "name": "A#5",
          "ticks": 70152,
          "time": 94.82029312499999,
          "velocity": 0.5511811023622047
        },
        {
          "duration": 0.013516406250005275,
          "durationTicks": 10,
          "midi": 42,
          "name": "F#2",
          "ticks": 70154,
          "time": 94.82299640625,
          "velocity": 0.5984251968503937
        },
        {
          "duration": 0.013516406250005275,
          "durationTicks": 10,
          "midi": 36,
          "name": "C2",
          "ticks": 70156,
          "time": 94.82569968749999,
          "velocity": 0.8976377952755905
        },
        {
          "duration": 0.06487875000000543,
          "durationTicks": 48,
          "midi": 54,
          "name": "F#3",
          "ticks": 70158,
          "time": 94.82840296875,
          "velocity": 0.9133858267716536
        },
        {
          "duration": 0.010813125000012747,
          "durationTicks": 8,
          "midi": 82,
          "name": "A#5",
          "ticks": 70252,
          "time": 94.95545718749999,
          "velocity": 0.4881889763779528
        },
        {
          "duration": 0.07839515624999649,
          "durationTicks": 58,
          "midi": 54,
          "name": "F#3",
          "ticks": 70254,
          "time": 94.95816046875,
          "velocity": 0.8188976377952756
        },
        {
          "duration": 0.013516406250005275,
          "durationTicks": 10,
          "midi": 44,
          "name": "G#2",
          "ticks": 70254,
          "time": 94.95816046875,
          "velocity": 0.6220472440944882
        },
        {
          "duration": 0.013516406250005275,
          "durationTicks": 10,
          "midi": 42,
          "name": "F#2",
          "ticks": 70350,
          "time": 95.08791796874999,
          "velocity": 0.5826771653543307
        },
        {
          "duration": 0.013516406250005275,
          "durationTicks": 10,
          "midi": 38,
          "name": "D2",
          "ticks": 70350,
          "time": 95.08791796874999,
          "velocity": 0.9448818897637795
        },
        {
          "duration": 0.013516406250005275,
          "durationTicks": 10,
          "midi": 44,
          "name": "G#2",
          "ticks": 70444,
          "time": 95.2149721875,
          "velocity": 0.49606299212598426
        },
        {
          "duration": 0.010813125000012747,
          "durationTicks": 8,
          "midi": 82,
          "name": "A#5",
          "ticks": 70540,
          "time": 95.34472968749999,
          "velocity": 0.6141732283464567
        },
        {
          "duration": 0.013516406250005275,
          "durationTicks": 10,
          "midi": 42,
          "name": "F#2",
          "ticks": 70540,
          "time": 95.34472968749999,
          "velocity": 0.5984251968503937
        },
        {
          "duration": 0.06487875000000543,
          "durationTicks": 48,
          "midi": 54,
          "name": "F#3",
          "ticks": 70542,
          "time": 95.34743296875,
          "velocity": 0.9606299212598425
        },
        {
          "duration": 0.010813125000012747,
          "durationTicks": 8,
          "midi": 82,
          "name": "A#5",
          "ticks": 70636,
          "time": 95.47448718749999,
          "velocity": 0.5275590551181102
        },
        {
          "duration": 0.013516406250019486,
          "durationTicks": 10,
          "midi": 44,
          "name": "G#2",
          "ticks": 70636,
          "time": 95.47448718749999,
          "velocity": 0.4881889763779528
        },
        {
          "duration": 0.07028531249999048,
          "durationTicks": 52,
          "midi": 54,
          "name": "F#3",
          "ticks": 70640,
          "time": 95.47989375,
          "velocity": 0.8031496062992126
        },
        {
          "duration": 0.010813124999998536,
          "durationTicks": 8,
          "midi": 46,
          "name": "A#2",
          "ticks": 70732,
          "time": 95.6042446875,
          "velocity": 0.6535433070866141
        },
        {
          "duration": 0.013516406250005275,
          "durationTicks": 10,
          "midi": 36,
          "name": "C2",
          "ticks": 70734,
          "time": 95.60694796874999,
          "velocity": 0.8740157480314961
        },
        {
          "duration": 0.013516406249991064,
          "durationTicks": 10,
          "midi": 82,
          "name": "A#5",
          "ticks": 70922,
          "time": 95.86105640625,
          "velocity": 0.5511811023622047
        },
        {
          "duration": 0.013516406249991064,
          "durationTicks": 10,
          "midi": 50,
          "name": "D3",
          "ticks": 70928,
          "time": 95.86916625,
          "velocity": 1
        },
        {
          "duration": 0.06758203124998374,
          "durationTicks": 50,
          "midi": 54,
          "name": "F#3",
          "ticks": 70928,
          "time": 95.86916625,
          "velocity": 0.9133858267716536
        },
        {
          "duration": 0.010813125000012747,
          "durationTicks": 8,
          "midi": 82,
          "name": "A#5",
          "ticks": 71020,
          "time": 95.99351718749999,
          "velocity": 0.4881889763779528
        },
        {
          "duration": 0.010813125000012747,
          "durationTicks": 8,
          "midi": 50,
          "name": "D3",
          "ticks": 71020,
          "time": 95.99351718749999,
          "velocity": 1
        },
        {
          "duration": 0.07298859374999722,
          "durationTicks": 54,
          "midi": 54,
          "name": "F#3",
          "ticks": 71022,
          "time": 95.99622046875,
          "velocity": 0.8267716535433071
        },
        {
          "duration": 0.005406562499999268,
          "durationTicks": 4,
          "midi": 50,
          "name": "D3",
          "ticks": 71024,
          "time": 95.99892375,
          "velocity": 1
        },
        {
          "duration": 0.013516406249991064,
          "durationTicks": 10,
          "midi": 44,
          "name": "G#2",
          "ticks": 71114,
          "time": 96.12057140625001,
          "velocity": 0.5748031496062992
        },
        {
          "duration": 0.013516406249991064,
          "durationTicks": 10,
          "midi": 38,
          "name": "D2",
          "ticks": 71114,
          "time": 96.12057140625001,
          "velocity": 0.8267716535433071
        },
        {
          "duration": 0.013516406250005275,
          "durationTicks": 10,
          "midi": 50,
          "name": "D3",
          "ticks": 71120,
          "time": 96.12868125,
          "velocity": 1
        },
        {
          "duration": 0.013516406250005275,
          "durationTicks": 10,
          "midi": 48,
          "name": "C3",
          "ticks": 71120,
          "time": 96.12868125,
          "velocity": 0.9133858267716536
        },
        {
          "duration": 0.013516406249991064,
          "durationTicks": 10,
          "midi": 42,
          "name": "F#2",
          "ticks": 71208,
          "time": 96.247625625,
          "velocity": 0.5984251968503937
        },
        {
          "duration": 0.013516406249991064,
          "durationTicks": 10,
          "midi": 44,
          "name": "G#2",
          "ticks": 71214,
          "time": 96.25573546875,
          "velocity": 0.5748031496062992
        },
        {
          "duration": 0.013516406250005275,
          "durationTicks": 10,
          "midi": 48,
          "name": "C3",
          "ticks": 71216,
          "time": 96.25843875,
          "velocity": 1
        },
        {
          "duration": 0.013516406250005275,
          "durationTicks": 10,
          "midi": 42,
          "name": "F#2",
          "ticks": 71308,
          "time": 96.3827896875,
          "velocity": 0.5669291338582677
        },
        {
          "duration": 0.07028531249999048,
          "durationTicks": 52,
          "midi": 54,
          "name": "F#3",
          "ticks": 71312,
          "time": 96.38819625000001,
          "velocity": 0.8976377952755905
        },
        {
          "duration": 0.013516406250005275,
          "durationTicks": 10,
          "midi": 44,
          "name": "G#2",
          "ticks": 71402,
          "time": 96.50984390625,
          "velocity": 0.5118110236220472
        },
        {
          "duration": 0.013516406250019486,
          "durationTicks": 10,
          "midi": 36,
          "name": "C2",
          "ticks": 71404,
          "time": 96.51254718749999,
          "velocity": 0.8976377952755905
        },
        {
          "duration": 0.013516406249991064,
          "durationTicks": 10,
          "midi": 48,
          "name": "C3",
          "ticks": 71408,
          "time": 96.51795375,
          "velocity": 1
        },
        {
          "duration": 0.07839515624999649,
          "durationTicks": 58,
          "midi": 54,
          "name": "F#3",
          "ticks": 71408,
          "time": 96.51795375,
          "velocity": 0.7874015748031497
        },
        {
          "duration": 0.013516406250005275,
          "durationTicks": 10,
          "midi": 42,
          "name": "F#2",
          "ticks": 71494,
          "time": 96.63419484375,
          "velocity": 0.5984251968503937
        },
        {
          "duration": 0.013516406250019486,
          "durationTicks": 10,
          "midi": 44,
          "name": "G#2",
          "ticks": 71500,
          "time": 96.64230468749999,
          "velocity": 0.5039370078740157
        },
        {
          "duration": 0.013516406249991064,
          "durationTicks": 10,
          "midi": 48,
          "name": "C3",
          "ticks": 71504,
          "time": 96.64771125,
          "velocity": 0.9921259842519685
        },
        {
          "duration": 0.010813124999998536,
          "durationTicks": 8,
          "midi": 42,
          "name": "F#2",
          "ticks": 71596,
          "time": 96.7720621875,
          "velocity": 0.5511811023622047
        },
        {
          "duration": 0.010813124999998536,
          "durationTicks": 8,
          "midi": 48,
          "name": "C3",
          "ticks": 71600,
          "time": 96.77746875,
          "velocity": 1
        },
        {
          "duration": 0.013516406250019486,
          "durationTicks": 10,
          "midi": 44,
          "name": "G#2",
          "ticks": 71686,
          "time": 96.89370984374999,
          "velocity": 0.5039370078740157
        },
        {
          "duration": 0.013516406249991064,
          "durationTicks": 10,
          "midi": 36,
          "name": "C2",
          "ticks": 71690,
          "time": 96.89911640625,
          "velocity": 0.8267716535433071
        },
        {
          "duration": 0.013516406249991064,
          "durationTicks": 10,
          "midi": 45,
          "name": "A2",
          "ticks": 71694,
          "time": 96.90452296875,
          "velocity": 1
        },
        {
          "duration": 0.013516406249991064,
          "durationTicks": 10,
          "midi": 42,
          "name": "F#2",
          "ticks": 71694,
          "time": 96.90452296875,
          "velocity": 0.5826771653543307
        },
        {
          "duration": 0.062175468749984475,
          "durationTicks": 46,
          "midi": 54,
          "name": "F#3",
          "ticks": 71696,
          "time": 96.90722625000001,
          "velocity": 0.9212598425196851
        },
        {
          "duration": 0.010813125000012747,
          "durationTicks": 8,
          "midi": 44,
          "name": "G#2",
          "ticks": 71788,
          "time": 97.03157718749999,
          "velocity": 0.5511811023622047
        },
        {
          "duration": 0.013516406249991064,
          "durationTicks": 10,
          "midi": 45,
          "name": "A2",
          "ticks": 71790,
          "time": 97.03428046875,
          "velocity": 1
        },
        {
          "duration": 0.07839515624999649,
          "durationTicks": 58,
          "midi": 54,
          "name": "F#3",
          "ticks": 71792,
          "time": 97.03698375,
          "velocity": 0.7874015748031497
        },
        {
          "duration": 0.013516406249991064,
          "durationTicks": 10,
          "midi": 42,
          "name": "F#2",
          "ticks": 71880,
          "time": 97.155928125,
          "velocity": 0.5511811023622047
        },
        {
          "duration": 0.013516406250005275,
          "durationTicks": 10,
          "midi": 45,
          "name": "A2",
          "ticks": 71886,
          "time": 97.16403796875,
          "velocity": 1
        },
        {
          "duration": 0.013516406250005275,
          "durationTicks": 10,
          "midi": 38,
          "name": "D2",
          "ticks": 71886,
          "time": 97.16403796875,
          "velocity": 0.8740157480314961
        },
        {
          "duration": 0.013516406250019486,
          "durationTicks": 10,
          "midi": 44,
          "name": "G#2",
          "ticks": 71926,
          "time": 97.21810359374999,
          "velocity": 0.5511811023622047
        },
        {
          "duration": 0.010813124999998536,
          "durationTicks": 8,
          "midi": 42,
          "name": "F#2",
          "ticks": 71980,
          "time": 97.2910921875,
          "velocity": 0.5511811023622047
        },
        {
          "duration": 0.010813124999998536,
          "durationTicks": 8,
          "midi": 45,
          "name": "A2",
          "ticks": 71984,
          "time": 97.29649875,
          "velocity": 1
        },
        {
          "duration": 0.013516406249991064,
          "durationTicks": 10,
          "midi": 44,
          "name": "G#2",
          "ticks": 72072,
          "time": 97.415443125,
          "velocity": 0.5748031496062992
        },
        {
          "duration": 0.013516406249991064,
          "durationTicks": 10,
          "midi": 41,
          "name": "F2",
          "ticks": 72078,
          "time": 97.42355296875,
          "velocity": 1
        },
        {
          "duration": 0.06487874999999121,
          "durationTicks": 48,
          "midi": 54,
          "name": "F#3",
          "ticks": 72080,
          "time": 97.42625625000001,
          "velocity": 0.9448818897637795
        },
        {
          "duration": 0.010813124999998536,
          "durationTicks": 8,
          "midi": 42,
          "name": "F#2",
          "ticks": 72120,
          "time": 97.480321875,
          "velocity": 0.5984251968503937
        },
        {
          "duration": 0.013516406249991064,
          "durationTicks": 10,
          "midi": 46,
          "name": "A#2",
          "ticks": 72264,
          "time": 97.674958125,
          "velocity": 0.7401574803149606
        },
        {
          "duration": 0.013516406249991064,
          "durationTicks": 10,
          "midi": 59,
          "name": "B3",
          "ticks": 72266,
          "time": 97.67766140625001,
          "velocity": 1
        },
        {
          "duration": 0.013516406250005275,
          "durationTicks": 10,
          "midi": 36,
          "name": "C2",
          "ticks": 72270,
          "time": 97.68306796875,
          "velocity": 0.8267716535433071
        },
        {
          "duration": 0.013516406249991064,
          "durationTicks": 10,
          "midi": 59,
          "name": "B3",
          "ticks": 72458,
          "time": 97.93717640625,
          "velocity": 0.968503937007874
        },
        {
          "duration": 0.010813124999998536,
          "durationTicks": 8,
          "midi": 82,
          "name": "A#5",
          "ticks": 72460,
          "time": 97.9398796875,
          "velocity": 0.5511811023622047
        },
        {
          "duration": 0.06758203124998374,
          "durationTicks": 50,
          "midi": 54,
          "name": "F#3",
          "ticks": 72464,
          "time": 97.94528625000001,
          "velocity": 0.8976377952755905
        },
        {
          "duration": 0.013516406250005275,
          "durationTicks": 10,
          "midi": 82,
          "name": "A#5",
          "ticks": 72556,
          "time": 98.06963718749999,
          "velocity": 0.5826771653543307
        },
        {
          "duration": 0.07298859374999722,
          "durationTicks": 54,
          "midi": 54,
          "name": "F#3",
          "ticks": 72560,
          "time": 98.07504375,
          "velocity": 0.7952755905511811
        },
        {
          "duration": 0.013516406250005275,
          "durationTicks": 10,
          "midi": 52,
          "name": "E3",
          "ticks": 72650,
          "time": 98.19669140625,
          "velocity": 1
        },
        {
          "duration": 0.013516406250005275,
          "durationTicks": 10,
          "midi": 44,
          "name": "G#2",
          "ticks": 72650,
          "time": 98.19669140625,
          "velocity": 0.5354330708661418
        },
        {
          "duration": 0.010813125000012747,
          "durationTicks": 8,
          "midi": 57,
          "name": "A3",
          "ticks": 72652,
          "time": 98.19939468749999,
          "velocity": 1
        },
        {
          "duration": 0.010813125000012747,
          "durationTicks": 8,
          "midi": 38,
          "name": "D2",
          "ticks": 72652,
          "time": 98.19939468749999,
          "velocity": 0.8976377952755905
        },
        {
          "duration": 0.013516406249991064,
          "durationTicks": 10,
          "midi": 42,
          "name": "F#2",
          "ticks": 72744,
          "time": 98.323745625,
          "velocity": 0.6220472440944882
        },
        {
          "duration": 0.013516406249991064,
          "durationTicks": 10,
          "midi": 82,
          "name": "A#5",
          "ticks": 72842,
          "time": 98.45620640625,
          "velocity": 0.5984251968503937
        },
        {
          "duration": 0.013516406249991064,
          "durationTicks": 10,
          "midi": 44,
          "name": "G#2",
          "ticks": 72842,
          "time": 98.45620640625,
          "velocity": 0.5354330708661418
        },
        {
          "duration": 0.06758203124998374,
          "durationTicks": 50,
          "midi": 54,
          "name": "F#3",
          "ticks": 72848,
          "time": 98.46431625000001,
          "velocity": 0.9291338582677166
        },
        {
          "duration": 0.013516406249991064,
          "durationTicks": 10,
          "midi": 59,
          "name": "B3",
          "ticks": 72938,
          "time": 98.58596390625,
          "velocity": 1
        },
        {
          "duration": 0.013516406249991064,
          "durationTicks": 10,
          "midi": 82,
          "name": "A#5",
          "ticks": 72938,
          "time": 98.58596390625,
          "velocity": 0.5511811023622047
        },
        {
          "duration": 0.013516406249991064,
          "durationTicks": 10,
          "midi": 46,
          "name": "A#2",
          "ticks": 72938,
          "time": 98.58596390625,
          "velocity": 0.5748031496062992
        },
        {
          "duration": 0.013516406250005275,
          "durationTicks": 10,
          "midi": 36,
          "name": "C2",
          "ticks": 72940,
          "time": 98.5886671875,
          "velocity": 0.8740157480314961
        },
        {
          "duration": 0.07839515624999649,
          "durationTicks": 58,
          "midi": 54,
          "name": "F#3",
          "ticks": 72944,
          "time": 98.59407375,
          "velocity": 0.8503937007874016
        },
        {
          "duration": 0.013516406249991064,
          "durationTicks": 10,
          "midi": 42,
          "name": "F#2",
          "ticks": 73032,
          "time": 98.713018125,
          "velocity": 0.5118110236220472
        },
        {
          "duration": 0.010813125000012747,
          "durationTicks": 8,
          "midi": 59,
          "name": "B3",
          "ticks": 73132,
          "time": 98.84818218749999,
          "velocity": 0.8818897637795275
        },
        {
          "duration": 0.010813125000012747,
          "durationTicks": 8,
          "midi": 46,
          "name": "A#2",
          "ticks": 73132,
          "time": 98.84818218749999,
          "velocity": 0.6929133858267716
        },
        {
          "duration": 0.013516406249991064,
          "durationTicks": 10,
          "midi": 82,
          "name": "A#5",
          "ticks": 73224,
          "time": 98.972533125,
          "velocity": 0.48031496062992124
        },
        {
          "duration": 0.010813124999998536,
          "durationTicks": 8,
          "midi": 59,
          "name": "B3",
          "ticks": 73228,
          "time": 98.9779396875,
          "velocity": 0.9212598425196851
        },
        {
          "duration": 0.010813124999998536,
          "durationTicks": 8,
          "midi": 42,
          "name": "F#2",
          "ticks": 73228,
          "time": 98.9779396875,
          "velocity": 0.44881889763779526
        },
        {
          "duration": 0.013516406250005275,
          "durationTicks": 10,
          "midi": 36,
          "name": "C2",
          "ticks": 73228,
          "time": 98.9779396875,
          "velocity": 0.8267716535433071
        },
        {
          "duration": 0.06487874999999121,
          "durationTicks": 48,
          "midi": 54,
          "name": "F#3",
          "ticks": 73230,
          "time": 98.98064296875,
          "velocity": 0.889763779527559
        },
        {
          "duration": 0.013516406250005275,
          "durationTicks": 10,
          "midi": 82,
          "name": "A#5",
          "ticks": 73320,
          "time": 99.102290625,
          "velocity": 0.44881889763779526
        },
        {
          "duration": 0.013516406250005275,
          "durationTicks": 10,
          "midi": 44,
          "name": "G#2",
          "ticks": 73324,
          "time": 99.1076971875,
          "velocity": 0.5748031496062992
        },
        {
          "duration": 0.08380171874999576,
          "durationTicks": 62,
          "midi": 54,
          "name": "F#3",
          "ticks": 73326,
          "time": 99.11040046875,
          "velocity": 0.8503937007874016
        },
        {
          "duration": 0.013516406250005275,
          "durationTicks": 10,
          "midi": 59,
          "name": "B3",
          "ticks": 73418,
          "time": 99.23475140625,
          "velocity": 1
        },
        {
          "duration": 0.013516406250019486,
          "durationTicks": 10,
          "midi": 42,
          "name": "F#2",
          "ticks": 73420,
          "time": 99.23745468749999,
          "velocity": 0.6929133858267716
        },
        {
          "duration": 0.013516406250019486,
          "durationTicks": 10,
          "midi": 38,
          "name": "D2",
          "ticks": 73420,
          "time": 99.23745468749999,
          "velocity": 0.9212598425196851
        },
        {
          "duration": 0.013516406250019486,
          "durationTicks": 10,
          "midi": 44,
          "name": "G#2",
          "ticks": 73516,
          "time": 99.36721218749999,
          "velocity": 0.49606299212598426
        },
        {
          "duration": 0.013516406249991064,
          "durationTicks": 10,
          "midi": 59,
          "name": "B3",
          "ticks": 73610,
          "time": 99.49426640625,
          "velocity": 0.9212598425196851
        },
        {
          "duration": 0.013516406249991064,
          "durationTicks": 10,
          "midi": 82,
          "name": "A#5",
          "ticks": 73610,
          "time": 99.49426640625,
          "velocity": 0.5826771653543307
        },
        {
          "duration": 0.06758203124999795,
          "durationTicks": 50,
          "midi": 54,
          "name": "F#3",
          "ticks": 73614,
          "time": 99.49967296875,
          "velocity": 0.9606299212598425
        },
        {
          "duration": 0.013516406249991064,
          "durationTicks": 10,
          "midi": 42,
          "name": "F#2",
          "ticks": 73614,
          "time": 99.49967296875,
          "velocity": 0.5984251968503937
        },
        {
          "duration": 0.013516406249991064,
          "durationTicks": 10,
          "midi": 82,
          "name": "A#5",
          "ticks": 73706,
          "time": 99.62402390625,
          "velocity": 0.4645669291338583
        },
        {
          "duration": 0.013516406250005275,
          "durationTicks": 10,
          "midi": 44,
          "name": "G#2",
          "ticks": 73708,
          "time": 99.6267271875,
          "velocity": 0.5118110236220472
        },
        {
          "duration": 0.08109843749998902,
          "durationTicks": 60,
          "midi": 54,
          "name": "F#3",
          "ticks": 73712,
          "time": 99.63213375000001,
          "velocity": 0.8110236220472441
        },
        {
          "duration": 0.013516406250005275,
          "durationTicks": 10,
          "midi": 59,
          "name": "B3",
          "ticks": 73802,
          "time": 99.75378140625,
          "velocity": 0.8976377952755905
        },
        {
          "duration": 0.013516406250005275,
          "durationTicks": 10,
          "midi": 46,
          "name": "A#2",
          "ticks": 73804,
          "time": 99.75648468749999,
          "velocity": 0.6377952755905512
        },
        {
          "duration": 0.013516406249991064,
          "durationTicks": 10,
          "midi": 36,
          "name": "C2",
          "ticks": 73806,
          "time": 99.75918796875,
          "velocity": 0.8267716535433071
        },
        {
          "duration": 0.013516406249991064,
          "durationTicks": 10,
          "midi": 82,
          "name": "A#5",
          "ticks": 73992,
          "time": 100.010593125,
          "velocity": 0.44881889763779526
        },
        {
          "duration": 0.010813124999998536,
          "durationTicks": 8,
          "midi": 59,
          "name": "B3",
          "ticks": 73996,
          "time": 100.0159996875,
          "velocity": 0.8188976377952756
        },
        {
          "duration": 0.062175468749998686,
          "durationTicks": 46,
          "midi": 54,
          "name": "F#3",
          "ticks": 73998,
          "time": 100.01870296874999,
          "velocity": 0.8976377952755905
        },
        {
          "duration": 0.013516406249991064,
          "durationTicks": 10,
          "midi": 82,
          "name": "A#5",
          "ticks": 74088,
          "time": 100.140350625,
          "velocity": 0.5275590551181102
        },
        {
          "duration": 0.07839515624999649,
          "durationTicks": 58,
          "midi": 54,
          "name": "F#3",
          "ticks": 74094,
          "time": 100.14846046875,
          "velocity": 0.8110236220472441
        },
        {
          "duration": 0.013516406250005275,
          "durationTicks": 10,
          "midi": 59,
          "name": "B3",
          "ticks": 74186,
          "time": 100.27281140625,
          "velocity": 0.9212598425196851
        },
        {
          "duration": 0.013516406250005275,
          "durationTicks": 10,
          "midi": 44,
          "name": "G#2",
          "ticks": 74188,
          "time": 100.27551468749999,
          "velocity": 0.5748031496062992
        },
        {
          "duration": 0.010813125000012747,
          "durationTicks": 8,
          "midi": 38,
          "name": "D2",
          "ticks": 74188,
          "time": 100.27551468749999,
          "velocity": 0.8740157480314961
        },
        {
          "duration": 0.013516406250019486,
          "durationTicks": 10,
          "midi": 42,
          "name": "F#2",
          "ticks": 74284,
          "time": 100.40527218749999,
          "velocity": 0.6220472440944882
        },
        {
          "duration": 0.013516406249991064,
          "durationTicks": 10,
          "midi": 59,
          "name": "B3",
          "ticks": 74378,
          "time": 100.53232640625001,
          "velocity": 0.7086614173228346
        },
        {
          "duration": 0.010813124999998536,
          "durationTicks": 8,
          "midi": 82,
          "name": "A#5",
          "ticks": 74380,
          "time": 100.5350296875,
          "velocity": 0.5826771653543307
        },
        {
          "duration": 0.010813124999998536,
          "durationTicks": 8,
          "midi": 44,
          "name": "G#2",
          "ticks": 74380,
          "time": 100.5350296875,
          "velocity": 0.5511811023622047
        },
        {
          "duration": 0.06758203124999795,
          "durationTicks": 50,
          "midi": 54,
          "name": "F#3",
          "ticks": 74384,
          "time": 100.54043625,
          "velocity": 0.8976377952755905
        },
        {
          "duration": 0.013516406249991064,
          "durationTicks": 10,
          "midi": 59,
          "name": "B3",
          "ticks": 74474,
          "time": 100.66208390625,
          "velocity": 0.9133858267716536
        },
        {
          "duration": 0.013516406249991064,
          "durationTicks": 10,
          "midi": 82,
          "name": "A#5",
          "ticks": 74474,
          "time": 100.66208390625,
          "velocity": 0.5511811023622047
        },
        {
          "duration": 0.013516406250005275,
          "durationTicks": 10,
          "midi": 46,
          "name": "A#2",
          "ticks": 74476,
          "time": 100.6647871875,
          "velocity": 0.6377952755905512
        },
        {
          "duration": 0.010813124999998536,
          "durationTicks": 8,
          "midi": 36,
          "name": "C2",
          "ticks": 74476,
          "time": 100.6647871875,
          "velocity": 0.8740157480314961
        },
        {
          "duration": 0.08109843749998902,
          "durationTicks": 60,
          "midi": 54,
          "name": "F#3",
          "ticks": 74480,
          "time": 100.67019375000001,
          "velocity": 0.8110236220472441
        },
        {
          "duration": 0.013516406250005275,
          "durationTicks": 10,
          "midi": 42,
          "name": "F#2",
          "ticks": 74572,
          "time": 100.7945446875,
          "velocity": 0.4094488188976378
        },
        {
          "duration": 0.013516406250005275,
          "durationTicks": 10,
          "midi": 59,
          "name": "B3",
          "ticks": 74666,
          "time": 100.92159890625,
          "velocity": 0.984251968503937
        },
        {
          "duration": 0.013516406250019486,
          "durationTicks": 10,
          "midi": 46,
          "name": "A#2",
          "ticks": 74668,
          "time": 100.92430218749999,
          "velocity": 0.6220472440944882
        },
        {
          "duration": 0.013516406249991064,
          "durationTicks": 10,
          "midi": 36,
          "name": "C2",
          "ticks": 74760,
          "time": 101.048653125,
          "velocity": 0.9448818897637795
        },
        {
          "duration": 0.013516406249991064,
          "durationTicks": 10,
          "midi": 59,
          "name": "B3",
          "ticks": 74762,
          "time": 101.05135640625001,
          "velocity": 0.9133858267716536
        },
        {
          "duration": 0.013516406249991064,
          "durationTicks": 10,
          "midi": 82,
          "name": "A#5",
          "ticks": 74762,
          "time": 101.05135640625001,
          "velocity": 0.6141732283464567
        },
        {
          "duration": 0.013516406250019486,
          "durationTicks": 10,
          "midi": 42,
          "name": "F#2",
          "ticks": 74764,
          "time": 101.05405968749999,
          "velocity": 0.5354330708661418
        },
        {
          "duration": 0.06487875000000543,
          "durationTicks": 48,
          "midi": 54,
          "name": "F#3",
          "ticks": 74768,
          "time": 101.05946625,
          "velocity": 0.9133858267716536
        },
        {
          "duration": 0.013516406249991064,
          "durationTicks": 10,
          "midi": 82,
          "name": "A#5",
          "ticks": 74862,
          "time": 101.18652046875,
          "velocity": 0.3543307086614173
        },
        {
          "duration": 0.013516406249991064,
          "durationTicks": 10,
          "midi": 44,
          "name": "G#2",
          "ticks": 74862,
          "time": 101.18652046875,
          "velocity": 0.5669291338582677
        },
        {
          "duration": 0.07839515624999649,
          "durationTicks": 58,
          "midi": 54,
          "name": "F#3",
          "ticks": 74864,
          "time": 101.18922375,
          "velocity": 0.8110236220472441
        },
        {
          "duration": 0.013516406249991064,
          "durationTicks": 10,
          "midi": 59,
          "name": "B3",
          "ticks": 74954,
          "time": 101.31087140625,
          "velocity": 0.984251968503937
        },
        {
          "duration": 0.013516406250005275,
          "durationTicks": 10,
          "midi": 38,
          "name": "D2",
          "ticks": 74956,
          "time": 101.3135746875,
          "velocity": 0.8740157480314961
        },
        {
          "duration": 0.013516406249991064,
          "durationTicks": 10,
          "midi": 42,
          "name": "F#2",
          "ticks": 74958,
          "time": 101.31627796875,
          "velocity": 0.6692913385826772
        },
        {
          "duration": 0.013516406249991064,
          "durationTicks": 10,
          "midi": 44,
          "name": "G#2",
          "ticks": 75054,
          "time": 101.44603546875,
          "velocity": 0.49606299212598426
        },
        {
          "duration": 0.013516406249991064,
          "durationTicks": 10,
          "midi": 59,
          "name": "B3",
          "ticks": 75146,
          "time": 101.57038640625001,
          "velocity": 0.8976377952755905
        },
        {
          "duration": 0.06487875000000543,
          "durationTicks": 48,
          "midi": 54,
          "name": "F#3",
          "ticks": 75148,
          "time": 101.57308968749999,
          "velocity": 0.8818897637795275
        },
        {
          "duration": 0.013516406250005275,
          "durationTicks": 10,
          "midi": 82,
          "name": "A#5",
          "ticks": 75150,
          "time": 101.57579296875,
          "velocity": 0.5826771653543307
        },
        {
          "duration": 0.013516406250005275,
          "durationTicks": 10,
          "midi": 42,
          "name": "F#2",
          "ticks": 75192,
          "time": 101.632561875,
          "velocity": 0.6220472440944882
        },
        {
          "duration": 0.013516406249991064,
          "durationTicks": 10,
          "midi": 59,
          "name": "B3",
          "ticks": 75242,
          "time": 101.70014390625,
          "velocity": 0.9448818897637795
        },
        {
          "duration": 0.013516406250005275,
          "durationTicks": 10,
          "midi": 82,
          "name": "A#5",
          "ticks": 75244,
          "time": 101.7028471875,
          "velocity": 0.5826771653543307
        },
        {
          "duration": 0.013516406250005275,
          "durationTicks": 10,
          "midi": 44,
          "name": "G#2",
          "ticks": 75244,
          "time": 101.7028471875,
          "velocity": 0.5354330708661418
        },
        {
          "duration": 0.07298859374999722,
          "durationTicks": 54,
          "midi": 54,
          "name": "F#3",
          "ticks": 75246,
          "time": 101.70555046875,
          "velocity": 0.8031496062992126
        },
        {
          "duration": 0.013516406250005275,
          "durationTicks": 10,
          "midi": 46,
          "name": "A#2",
          "ticks": 75340,
          "time": 101.8326046875,
          "velocity": 0.6692913385826772
        },
        {
          "duration": 0.013516406250005275,
          "durationTicks": 10,
          "midi": 36,
          "name": "C2",
          "ticks": 75340,
          "time": 101.8326046875,
          "velocity": 0.8503937007874016
        },
        {
          "duration": 0.013516406249991064,
          "durationTicks": 10,
          "midi": 59,
          "name": "B3",
          "ticks": 75530,
          "time": 102.08941640625001,
          "velocity": 0.968503937007874
        },
        {
          "duration": 0.013516406249991064,
          "durationTicks": 10,
          "midi": 82,
          "name": "A#5",
          "ticks": 75530,
          "time": 102.08941640625001,
          "velocity": 0.48031496062992124
        },
        {
          "duration": 0.05947218750000616,
          "durationTicks": 44,
          "midi": 54,
          "name": "F#3",
          "ticks": 75534,
          "time": 102.09482296875,
          "velocity": 0.8818897637795275
        },
        {
          "duration": 0.013516406249991064,
          "durationTicks": 10,
          "midi": 82,
          "name": "A#5",
          "ticks": 75626,
          "time": 102.21917390625,
          "velocity": 0.5511811023622047
        },
        {
          "duration": 0.08109843749998902,
          "durationTicks": 60,
          "midi": 54,
          "name": "F#3",
          "ticks": 75628,
          "time": 102.2218771875,
          "velocity": 0.8031496062992126
        },
        {
          "duration": 0.013516406249991064,
          "durationTicks": 10,
          "midi": 59,
          "name": "B3",
          "ticks": 75722,
          "time": 102.34893140625,
          "velocity": 0.984251968503937
        },
        {
          "duration": 0.013516406249991064,
          "durationTicks": 10,
          "midi": 38,
          "name": "D2",
          "ticks": 75722,
          "time": 102.34893140625,
          "velocity": 0.8740157480314961
        },
        {
          "duration": 0.013516406250005275,
          "durationTicks": 10,
          "midi": 44,
          "name": "G#2",
          "ticks": 75724,
          "time": 102.3516346875,
          "velocity": 0.5748031496062992
        },
        {
          "duration": 0.013516406250005275,
          "durationTicks": 10,
          "midi": 59,
          "name": "B3",
          "ticks": 75818,
          "time": 102.47868890625,
          "velocity": 0.8582677165354331
        },
        {
          "duration": 0.013516406250005275,
          "durationTicks": 10,
          "midi": 42,
          "name": "F#2",
          "ticks": 75820,
          "time": 102.48139218749999,
          "velocity": 0.5984251968503937
        },
        {
          "duration": 0.013516406250005275,
          "durationTicks": 10,
          "midi": 82,
          "name": "A#5",
          "ticks": 75914,
          "time": 102.60844640625,
          "velocity": 0.6062992125984252
        },
        {
          "duration": 0.010813125000012747,
          "durationTicks": 8,
          "midi": 44,
          "name": "G#2",
          "ticks": 75916,
          "time": 102.61114968749999,
          "velocity": 0.5748031496062992
        },
        {
          "duration": 0.07298859374999722,
          "durationTicks": 54,
          "midi": 54,
          "name": "F#3",
          "ticks": 75918,
          "time": 102.61385296875,
          "velocity": 0.9133858267716536
        },
        {
          "duration": 0.013516406249991064,
          "durationTicks": 10,
          "midi": 82,
          "name": "A#5",
          "ticks": 76008,
          "time": 102.735500625,
          "velocity": 0.5748031496062992
        },
        {
          "duration": 0.013516406249991064,
          "durationTicks": 10,
          "midi": 59,
          "name": "B3",
          "ticks": 76010,
          "time": 102.73820390625,
          "velocity": 0.9133858267716536
        },
        {
          "duration": 0.010813124999998536,
          "durationTicks": 8,
          "midi": 46,
          "name": "A#2",
          "ticks": 76012,
          "time": 102.7409071875,
          "velocity": 0.5826771653543307
        },
        {
          "duration": 0.010813124999998536,
          "durationTicks": 8,
          "midi": 36,
          "name": "C2",
          "ticks": 76012,
          "time": 102.7409071875,
          "velocity": 0.9448818897637795
        },
        {
          "duration": 0.07839515624999649,
          "durationTicks": 58,
          "midi": 54,
          "name": "F#3",
          "ticks": 76016,
          "time": 102.74631375,
          "velocity": 0.7874015748031497
        },
        {
          "duration": 0.013516406250005275,
          "durationTicks": 10,
          "midi": 42,
          "name": "F#2",
          "ticks": 76108,
          "time": 102.8706646875,
          "velocity": 0.4251968503937008
        },
        {
          "duration": 0.013516406249991064,
          "durationTicks": 10,
          "midi": 59,
          "name": "B3",
          "ticks": 76202,
          "time": 102.99771890625,
          "velocity": 0.9133858267716536
        },
        {
          "duration": 0.013516406250005275,
          "durationTicks": 10,
          "midi": 46,
          "name": "A#2",
          "ticks": 76204,
          "time": 103.00042218749999,
          "velocity": 0.6377952755905512
        },
        {
          "duration": 0.010813124999998536,
          "durationTicks": 8,
          "midi": 36,
          "name": "C2",
          "ticks": 76204,
          "time": 103.00042218749999,
          "velocity": 0.6692913385826772
        },
        {
          "duration": 0.013516406250005275,
          "durationTicks": 10,
          "midi": 59,
          "name": "B3",
          "ticks": 76298,
          "time": 103.12747640625,
          "velocity": 0.9133858267716536
        },
        {
          "duration": 0.013516406250005275,
          "durationTicks": 10,
          "midi": 82,
          "name": "A#5",
          "ticks": 76298,
          "time": 103.12747640625,
          "velocity": 0.5984251968503937
        },
        {
          "duration": 0.013516406250005275,
          "durationTicks": 10,
          "midi": 36,
          "name": "C2",
          "ticks": 76298,
          "time": 103.12747640625,
          "velocity": 0.7401574803149606
        },
        {
          "duration": 0.0702853125000189,
          "durationTicks": 52,
          "midi": 54,
          "name": "F#3",
          "ticks": 76300,
          "time": 103.13017968749999,
          "velocity": 0.9133858267716536
        },
        {
          "duration": 0.013516406249991064,
          "durationTicks": 10,
          "midi": 42,
          "name": "F#2",
          "ticks": 76302,
          "time": 103.13288296875,
          "velocity": 0.5984251968503937
        },
        {
          "duration": 0.013516406249991064,
          "durationTicks": 10,
          "midi": 82,
          "name": "A#5",
          "ticks": 76392,
          "time": 103.254530625,
          "velocity": 0.4881889763779528
        },
        {
          "duration": 0.013516406250005275,
          "durationTicks": 10,
          "midi": 44,
          "name": "G#2",
          "ticks": 76396,
          "time": 103.2599371875,
          "velocity": 0.5826771653543307
        },
        {
          "duration": 0.08380171875000997,
          "durationTicks": 62,
          "midi": 54,
          "name": "F#3",
          "ticks": 76398,
          "time": 103.26264046874999,
          "velocity": 0.7716535433070866
        },
        {
          "duration": 0.013516406249991064,
          "durationTicks": 10,
          "midi": 59,
          "name": "B3",
          "ticks": 76490,
          "time": 103.38699140625,
          "velocity": 0.9291338582677166
        },
        {
          "duration": 0.013516406250005275,
          "durationTicks": 10,
          "midi": 42,
          "name": "F#2",
          "ticks": 76492,
          "time": 103.3896946875,
          "velocity": 0.6535433070866141
        },
        {
          "duration": 0.013516406250005275,
          "durationTicks": 10,
          "midi": 38,
          "name": "D2",
          "ticks": 76492,
          "time": 103.3896946875,
          "velocity": 0.8267716535433071
        },
        {
          "duration": 0.013516406249991064,
          "durationTicks": 10,
          "midi": 44,
          "name": "G#2",
          "ticks": 76590,
          "time": 103.52215546875,
          "velocity": 0.5118110236220472
        },
        {
          "duration": 0.013516406250005275,
          "durationTicks": 10,
          "midi": 59,
          "name": "B3",
          "ticks": 76682,
          "time": 103.64650640625,
          "velocity": 0.889763779527559
        },
        {
          "duration": 0.013516406250005275,
          "durationTicks": 10,
          "midi": 82,
          "name": "A#5",
          "ticks": 76682,
          "time": 103.64650640625,
          "velocity": 0.6456692913385826
        },
        {
          "duration": 0.06758203125001216,
          "durationTicks": 50,
          "midi": 54,
          "name": "F#3",
          "ticks": 76686,
          "time": 103.65191296875,
          "velocity": 0.9212598425196851
        },
        {
          "duration": 0.013516406249991064,
          "durationTicks": 10,
          "midi": 42,
          "name": "F#2",
          "ticks": 76686,
          "time": 103.65191296875,
          "velocity": 0.6220472440944882
        },
        {
          "duration": 0.013516406249991064,
          "durationTicks": 10,
          "midi": 82,
          "name": "A#5",
          "ticks": 76778,
          "time": 103.77626390625001,
          "velocity": 0.44881889763779526
        },
        {
          "duration": 0.013516406250019486,
          "durationTicks": 10,
          "midi": 44,
          "name": "G#2",
          "ticks": 76780,
          "time": 103.77896718749999,
          "velocity": 0.4881889763779528
        },
        {
          "duration": 0.0865050000000025,
          "durationTicks": 64,
          "midi": 54,
          "name": "F#3",
          "ticks": 76782,
          "time": 103.78167046875,
          "velocity": 0.8110236220472441
        },
        {
          "duration": 0.013516406249991064,
          "durationTicks": 10,
          "midi": 59,
          "name": "B3",
          "ticks": 76874,
          "time": 103.90602140625,
          "velocity": 0.9212598425196851
        },
        {
          "duration": 0.013516406250005275,
          "durationTicks": 10,
          "midi": 46,
          "name": "A#2",
          "ticks": 76876,
          "time": 103.9087246875,
          "velocity": 0.5905511811023622
        },
        {
          "duration": 0.013516406250005275,
          "durationTicks": 10,
          "midi": 36,
          "name": "C2",
          "ticks": 76876,
          "time": 103.9087246875,
          "velocity": 0.8740157480314961
        },
        {
          "duration": 0.013516406249991064,
          "durationTicks": 10,
          "midi": 50,
          "name": "D3",
          "ticks": 76878,
          "time": 103.91142796875,
          "velocity": 1
        },
        {
          "duration": 0.013516406249991064,
          "durationTicks": 10,
          "midi": 50,
          "name": "D3",
          "ticks": 76974,
          "time": 104.04118546875,
          "velocity": 1
        },
        {
          "duration": 0.013516406250005275,
          "durationTicks": 10,
          "midi": 59,
          "name": "B3",
          "ticks": 77066,
          "time": 104.16553640625,
          "velocity": 0.8818897637795275
        },
        {
          "duration": 0.013516406250005275,
          "durationTicks": 10,
          "midi": 82,
          "name": "A#5",
          "ticks": 77066,
          "time": 104.16553640625,
          "velocity": 0.5275590551181102
        },
        {
          "duration": 0.013516406249991064,
          "durationTicks": 10,
          "midi": 50,
          "name": "D3",
          "ticks": 77070,
          "time": 104.17094296875,
          "velocity": 1
        },
        {
          "duration": 0.062175468749998686,
          "durationTicks": 46,
          "midi": 54,
          "name": "F#3",
          "ticks": 77072,
          "time": 104.17364625,
          "velocity": 0.8976377952755905
        },
        {
          "duration": 0.013516406249991064,
          "durationTicks": 10,
          "midi": 82,
          "name": "A#5",
          "ticks": 77162,
          "time": 104.29529390625001,
          "velocity": 0.5275590551181102
        },
        {
          "duration": 0.013516406250005275,
          "durationTicks": 10,
          "midi": 50,
          "name": "D3",
          "ticks": 77166,
          "time": 104.30070046875,
          "velocity": 1
        },
        {
          "duration": 0.07569187499998975,
          "durationTicks": 56,
          "midi": 54,
          "name": "F#3",
          "ticks": 77168,
          "time": 104.30340375,
          "velocity": 0.8031496062992126
        },
        {
          "duration": 0.013516406249991064,
          "durationTicks": 10,
          "midi": 59,
          "name": "B3",
          "ticks": 77258,
          "time": 104.42505140625,
          "velocity": 0.9212598425196851
        },
        {
          "duration": 0.010813124999998536,
          "durationTicks": 8,
          "midi": 44,
          "name": "G#2",
          "ticks": 77260,
          "time": 104.4277546875,
          "velocity": 0.5905511811023622
        },
        {
          "duration": 0.010813124999998536,
          "durationTicks": 8,
          "midi": 38,
          "name": "D2",
          "ticks": 77260,
          "time": 104.4277546875,
          "velocity": 0.8976377952755905
        },
        {
          "duration": 0.013516406250005275,
          "durationTicks": 10,
          "midi": 42,
          "name": "F#2",
          "ticks": 77356,
          "time": 104.5575121875,
          "velocity": 0.5984251968503937
        },
        {
          "duration": 0.013516406250005275,
          "durationTicks": 10,
          "midi": 59,
          "name": "B3",
          "ticks": 77450,
          "time": 104.68456640625,
          "velocity": 0.8582677165354331
        },
        {
          "duration": 0.010813125000012747,
          "durationTicks": 8,
          "midi": 44,
          "name": "G#2",
          "ticks": 77452,
          "time": 104.68726968749999,
          "velocity": 0.49606299212598426
        },
        {
          "duration": 0.06487875000000543,
          "durationTicks": 48,
          "midi": 54,
          "name": "F#3",
          "ticks": 77454,
          "time": 104.68997296875,
          "velocity": 0.9133858267716536
        },
        {
          "duration": 0.013516406249991064,
          "durationTicks": 10,
          "midi": 59,
          "name": "B3",
          "ticks": 77546,
          "time": 104.81432390625001,
          "velocity": 0.9133858267716536
        },
        {
          "duration": 0.010813125000012747,
          "durationTicks": 8,
          "midi": 46,
          "name": "A#2",
          "ticks": 77548,
          "time": 104.81702718749999,
          "velocity": 0.5826771653543307
        },
        {
          "duration": 0.010813125000012747,
          "durationTicks": 8,
          "midi": 36,
          "name": "C2",
          "ticks": 77548,
          "time": 104.81702718749999,
          "velocity": 0.8503937007874016
        },
        {
          "duration": 0.07839515624999649,
          "durationTicks": 58,
          "midi": 54,
          "name": "F#3",
          "ticks": 77550,
          "time": 104.81973046875,
          "velocity": 0.8031496062992126
        },
        {
          "duration": 0.010813124999998536,
          "durationTicks": 8,
          "midi": 42,
          "name": "F#2",
          "ticks": 77644,
          "time": 104.9467846875,
          "velocity": 0.5433070866141733
        },
        {
          "duration": 0.013516406249991064,
          "durationTicks": 10,
          "midi": 59,
          "name": "B3",
          "ticks": 77738,
          "time": 105.07383890625,
          "velocity": 0.8818897637795275
        },
        {
          "duration": 0.013516406250005275,
          "durationTicks": 10,
          "midi": 46,
          "name": "A#2",
          "ticks": 77740,
          "time": 105.0765421875,
          "velocity": 0.6692913385826772
        },
        {
          "duration": 0.013516406249991064,
          "durationTicks": 10,
          "midi": 47,
          "name": "B2",
          "ticks": 77742,
          "time": 105.07924546875,
          "velocity": 1
        },
        {
          "duration": 0.013516406249991064,
          "durationTicks": 10,
          "midi": 45,
          "name": "A2",
          "ticks": 77742,
          "time": 105.07924546875,
          "velocity": 1
        },
        {
          "duration": 0.013516406250005275,
          "durationTicks": 10,
          "midi": 59,
          "name": "B3",
          "ticks": 77834,
          "time": 105.20359640625,
          "velocity": 0.8582677165354331
        },
        {
          "duration": 0.013516406250005275,
          "durationTicks": 10,
          "midi": 42,
          "name": "F#2",
          "ticks": 77836,
          "time": 105.20629968749999,
          "velocity": 0.5826771653543307
        },
        {
          "duration": 0.013516406249991064,
          "durationTicks": 10,
          "midi": 47,
          "name": "B2",
          "ticks": 77838,
          "time": 105.20900296875,
          "velocity": 1
        },
        {
          "duration": 0.07298859374999722,
          "durationTicks": 54,
          "midi": 54,
          "name": "F#3",
          "ticks": 77838,
          "time": 105.20900296875,
          "velocity": 0.9133858267716536
        },
        {
          "duration": 0.013516406250019486,
          "durationTicks": 10,
          "midi": 44,
          "name": "G#2",
          "ticks": 77932,
          "time": 105.33605718749999,
          "velocity": 0.5984251968503937
        },
        {
          "duration": 0.013516406249991064,
          "durationTicks": 10,
          "midi": 47,
          "name": "B2",
          "ticks": 77934,
          "time": 105.33876046875,
          "velocity": 1
        },
        {
          "duration": 0.07298859374999722,
          "durationTicks": 54,
          "midi": 54,
          "name": "F#3",
          "ticks": 77936,
          "time": 105.34146375,
          "velocity": 0.8110236220472441
        },
        {
          "duration": 0.013516406250005275,
          "durationTicks": 10,
          "midi": 42,
          "name": "F#2",
          "ticks": 78028,
          "time": 105.4658146875,
          "velocity": 0.6535433070866141
        },
        {
          "duration": 0.013516406250005275,
          "durationTicks": 10,
          "midi": 59,
          "name": "B3",
          "ticks": 78030,
          "time": 105.46851796874999,
          "velocity": 0.984251968503937
        },
        {
          "duration": 0.013516406250005275,
          "durationTicks": 10,
          "midi": 47,
          "name": "B2",
          "ticks": 78030,
          "time": 105.46851796874999,
          "velocity": 1
        },
        {
          "duration": 0.013516406250005275,
          "durationTicks": 10,
          "midi": 44,
          "name": "G#2",
          "ticks": 78124,
          "time": 105.5955721875,
          "velocity": 0.5118110236220472
        },
        {
          "duration": 0.013516406249991064,
          "durationTicks": 10,
          "midi": 45,
          "name": "A2",
          "ticks": 78126,
          "time": 105.59827546875,
          "velocity": 1
        },
        {
          "duration": 0.013516406249991064,
          "durationTicks": 10,
          "midi": 59,
          "name": "B3",
          "ticks": 78222,
          "time": 105.72803296875,
          "velocity": 0.8818897637795275
        },
        {
          "duration": 0.013516406249991064,
          "durationTicks": 10,
          "midi": 41,
          "name": "F2",
          "ticks": 78222,
          "time": 105.72803296875,
          "velocity": 1
        },
        {
          "duration": 0.013516406249991064,
          "durationTicks": 10,
          "midi": 42,
          "name": "F#2",
          "ticks": 78222,
          "time": 105.72803296875,
          "velocity": 0.6377952755905512
        },
        {
          "duration": 0.06487874999999121,
          "durationTicks": 48,
          "midi": 54,
          "name": "F#3",
          "ticks": 78224,
          "time": 105.73073625,
          "velocity": 0.9212598425196851
        },
        {
          "duration": 0.010813125000012747,
          "durationTicks": 8,
          "midi": 44,
          "name": "G#2",
          "ticks": 78316,
          "time": 105.85508718749999,
          "velocity": 0.5039370078740157
        },
        {
          "duration": 0.07569187500000396,
          "durationTicks": 56,
          "midi": 54,
          "name": "F#3",
          "ticks": 78318,
          "time": 105.85779046875,
          "velocity": 0.8031496062992126
        },
        {
          "duration": 0.013516406249991064,
          "durationTicks": 10,
          "midi": 57,
          "name": "A3",
          "ticks": 78410,
          "time": 105.98214140625001,
          "velocity": 1
        },
        {
          "duration": 0.010813125000012747,
          "durationTicks": 8,
          "midi": 46,
          "name": "A#2",
          "ticks": 78412,
          "time": 105.98484468749999,
          "velocity": 0.6220472440944882
        },
        {
          "duration": 0.013516406250005275,
          "durationTicks": 10,
          "midi": 59,
          "name": "B3",
          "ticks": 78414,
          "time": 105.98754796875,
          "velocity": 0.984251968503937
        },
        {
          "duration": 0.013516406250005275,
          "durationTicks": 10,
          "midi": 36,
          "name": "C2",
          "ticks": 78454,
          "time": 106.04161359375,
          "velocity": 0.9212598425196851
        },
        {
          "duration": 0.013516406250005275,
          "durationTicks": 10,
          "midi": 82,
          "name": "A#5",
          "ticks": 78604,
          "time": 106.2443596875,
          "velocity": 0.5275590551181102
        },
        {
          "duration": 0.013516406249991064,
          "durationTicks": 10,
          "midi": 59,
          "name": "B3",
          "ticks": 78606,
          "time": 106.24706296875,
          "velocity": 0.9448818897637795
        },
        {
          "duration": 0.059472187499991946,
          "durationTicks": 44,
          "midi": 54,
          "name": "F#3",
          "ticks": 78608,
          "time": 106.24976625000001,
          "velocity": 0.9212598425196851
        },
        {
          "duration": 0.013516406250019486,
          "durationTicks": 10,
          "midi": 82,
          "name": "A#5",
          "ticks": 78700,
          "time": 106.37411718749999,
          "velocity": 0.6141732283464567
        },
        {
          "duration": 0.07569187499998975,
          "durationTicks": 56,
          "midi": 54,
          "name": "F#3",
          "ticks": 78704,
          "time": 106.37952375,
          "velocity": 0.8188976377952756
        },
        {
          "duration": 0.013516406249991064,
          "durationTicks": 10,
          "midi": 52,
          "name": "E3",
          "ticks": 78794,
          "time": 106.50117140625001,
          "velocity": 1
        },
        {
          "duration": 0.013516406249991064,
          "durationTicks": 10,
          "midi": 57,
          "name": "A3",
          "ticks": 78794,
          "time": 106.50117140625001,
          "velocity": 0.968503937007874
        },
        {
          "duration": 0.013516406250005275,
          "durationTicks": 10,
          "midi": 44,
          "name": "G#2",
          "ticks": 78798,
          "time": 106.50657796875,
          "velocity": 0.6377952755905512
        },
        {
          "duration": 0.013516406250005275,
          "durationTicks": 10,
          "midi": 38,
          "name": "D2",
          "ticks": 78798,
          "time": 106.50657796875,
          "velocity": 0.8267716535433071
        },
        {
          "duration": 0.013516406249991064,
          "durationTicks": 10,
          "midi": 42,
          "name": "F#2",
          "ticks": 78894,
          "time": 106.63633546875,
          "velocity": 0.6220472440944882
        },
        {
          "duration": 0.010813124999998536,
          "durationTicks": 8,
          "midi": 82,
          "name": "A#5",
          "ticks": 78988,
          "time": 106.7633896875,
          "velocity": 0.4881889763779528
        },
        {
          "duration": 0.013516406250005275,
          "durationTicks": 10,
          "midi": 44,
          "name": "G#2",
          "ticks": 78988,
          "time": 106.7633896875,
          "velocity": 0.5669291338582677
        },
        {
          "duration": 0.06487874999999121,
          "durationTicks": 48,
          "midi": 54,
          "name": "F#3",
          "ticks": 78990,
          "time": 106.76609296875,
          "velocity": 0.9291338582677166
        },
        {
          "duration": 0.010813125000012747,
          "durationTicks": 8,
          "midi": 82,
          "name": "A#5",
          "ticks": 79084,
          "time": 106.89314718749999,
          "velocity": 0.5748031496062992
        },
        {
          "duration": 0.013516406250005275,
          "durationTicks": 10,
          "midi": 46,
          "name": "A#2",
          "ticks": 79084,
          "time": 106.89314718749999,
          "velocity": 0.5905511811023622
        },
        {
          "duration": 0.013516406249991064,
          "durationTicks": 10,
          "midi": 53,
          "name": "F3",
          "ticks": 79086,
          "time": 106.89585046875,
          "velocity": 0.7874015748031497
        },
        {
          "duration": 0.013516406249991064,
          "durationTicks": 10,
          "midi": 36,
          "name": "C2",
          "ticks": 79086,
          "time": 106.89585046875,
          "velocity": 0.8740157480314961
        },
        {
          "duration": 0.07839515624999649,
          "durationTicks": 58,
          "midi": 54,
          "name": "F#3",
          "ticks": 79088,
          "time": 106.89855375,
          "velocity": 0.8503937007874016
        },
        {
          "duration": 0.013516406250019486,
          "durationTicks": 10,
          "midi": 42,
          "name": "F#2",
          "ticks": 79180,
          "time": 107.02290468749999,
          "velocity": 0.5039370078740157
        },
        {
          "duration": 0.013516406250005275,
          "durationTicks": 10,
          "midi": 46,
          "name": "A#2",
          "ticks": 79276,
          "time": 107.1526621875,
          "velocity": 0.6692913385826772
        },
        {
          "duration": 0.013516406250005275,
          "durationTicks": 10,
          "midi": 53,
          "name": "F3",
          "ticks": 79278,
          "time": 107.15536546874999,
          "velocity": 0.8976377952755905
        },
        {
          "duration": 0.013516406249991064,
          "durationTicks": 10,
          "midi": 82,
          "name": "A#5",
          "ticks": 79370,
          "time": 107.27971640625,
          "velocity": 0.5511811023622047
        },
        {
          "duration": 0.013516406250005275,
          "durationTicks": 10,
          "midi": 36,
          "name": "C2",
          "ticks": 79372,
          "time": 107.2824196875,
          "velocity": 0.7795275590551181
        },
        {
          "duration": 0.013516406249991064,
          "durationTicks": 10,
          "midi": 53,
          "name": "F3",
          "ticks": 79374,
          "time": 107.28512296875,
          "velocity": 0.8976377952755905
        },
        {
          "duration": 0.013516406249991064,
          "durationTicks": 10,
          "midi": 42,
          "name": "F#2",
          "ticks": 79374,
          "time": 107.28512296875,
          "velocity": 0.5433070866141733
        },
        {
          "duration": 0.062175468749984475,
          "durationTicks": 46,
          "midi": 54,
          "name": "F#3",
          "ticks": 79376,
          "time": 107.28782625000001,
          "velocity": 0.9133858267716536
        },
        {
          "duration": 0.010813125000012747,
          "durationTicks": 8,
          "midi": 82,
          "name": "A#5",
          "ticks": 79468,
          "time": 107.41217718749999,
          "velocity": 0.4645669291338583
        },
        {
          "duration": 0.013516406250005275,
          "durationTicks": 10,
          "midi": 44,
          "name": "G#2",
          "ticks": 79468,
          "time": 107.41217718749999,
          "velocity": 0.5984251968503937
        },
        {
          "duration": 0.07298859374999722,
          "durationTicks": 54,
          "midi": 54,
          "name": "F#3",
          "ticks": 79472,
          "time": 107.41758375,
          "velocity": 0.8267716535433071
        },
        {
          "duration": 0.013516406249991064,
          "durationTicks": 10,
          "midi": 53,
          "name": "F3",
          "ticks": 79566,
          "time": 107.54463796875,
          "velocity": 0.984251968503937
        },
        {
          "duration": 0.013516406249991064,
          "durationTicks": 10,
          "midi": 42,
          "name": "F#2",
          "ticks": 79566,
          "time": 107.54463796875,
          "velocity": 0.6377952755905512
        },
        {
          "duration": 0.013516406249991064,
          "durationTicks": 10,
          "midi": 38,
          "name": "D2",
          "ticks": 79566,
          "time": 107.54463796875,
          "velocity": 0.9212598425196851
        },
        {
          "duration": 0.013516406250005275,
          "durationTicks": 10,
          "midi": 44,
          "name": "G#2",
          "ticks": 79662,
          "time": 107.67439546874999,
          "velocity": 0.49606299212598426
        },
        {
          "duration": 0.010813124999998536,
          "durationTicks": 8,
          "midi": 82,
          "name": "A#5",
          "ticks": 79756,
          "time": 107.8014496875,
          "velocity": 0.48031496062992124
        },
        {
          "duration": 0.013516406249991064,
          "durationTicks": 10,
          "midi": 42,
          "name": "F#2",
          "ticks": 79758,
          "time": 107.80415296875,
          "velocity": 0.6220472440944882
        },
        {
          "duration": 0.06487874999999121,
          "durationTicks": 48,
          "midi": 54,
          "name": "F#3",
          "ticks": 79760,
          "time": 107.80685625000001,
          "velocity": 0.9606299212598425
        },
        {
          "duration": 0.013516406249991064,
          "durationTicks": 10,
          "midi": 82,
          "name": "A#5",
          "ticks": 79850,
          "time": 107.92850390625,
          "velocity": 0.44881889763779526
        },
        {
          "duration": 0.013516406250005275,
          "durationTicks": 10,
          "midi": 44,
          "name": "G#2",
          "ticks": 79852,
          "time": 107.9312071875,
          "velocity": 0.5354330708661418
        },
        {
          "duration": 0.013516406249991064,
          "durationTicks": 10,
          "midi": 53,
          "name": "F3",
          "ticks": 79854,
          "time": 107.93391046875,
          "velocity": 0.9212598425196851
        },
        {
          "duration": 0.08109843750000323,
          "durationTicks": 60,
          "midi": 54,
          "name": "F#3",
          "ticks": 79856,
          "time": 107.93661375,
          "velocity": 0.8110236220472441
        },
        {
          "duration": 0.013516406250019486,
          "durationTicks": 10,
          "midi": 46,
          "name": "A#2",
          "ticks": 79948,
          "time": 108.06096468749999,
          "velocity": 0.6377952755905512
        },
        {
          "duration": 0.013516406249991064,
          "durationTicks": 10,
          "midi": 36,
          "name": "C2",
          "ticks": 79950,
          "time": 108.06366796875,
          "velocity": 0.8976377952755905
        },
        {
          "duration": 0.013516406249991064,
          "durationTicks": 10,
          "midi": 82,
          "name": "A#5",
          "ticks": 80138,
          "time": 108.31777640625,
          "velocity": 0.5511811023622047
        },
        {
          "duration": 0.013516406249991064,
          "durationTicks": 10,
          "midi": 53,
          "name": "F3",
          "ticks": 80142,
          "time": 108.32318296875,
          "velocity": 0.9448818897637795
        },
        {
          "duration": 0.06487874999999121,
          "durationTicks": 48,
          "midi": 54,
          "name": "F#3",
          "ticks": 80142,
          "time": 108.32318296875,
          "velocity": 0.9448818897637795
        },
        {
          "duration": 0.013516406249991064,
          "durationTicks": 10,
          "midi": 82,
          "name": "A#5",
          "ticks": 80234,
          "time": 108.44753390625,
          "velocity": 0.4094488188976378
        },
        {
          "duration": 0.08380171874999576,
          "durationTicks": 62,
          "midi": 54,
          "name": "F#3",
          "ticks": 80238,
          "time": 108.45294046875,
          "velocity": 0.8503937007874016
        },
        {
          "duration": 0.013516406250019486,
          "durationTicks": 10,
          "midi": 44,
          "name": "G#2",
          "ticks": 80332,
          "time": 108.57999468749999,
          "velocity": 0.6535433070866141
        },
        {
          "duration": 0.010813125000012747,
          "durationTicks": 8,
          "midi": 38,
          "name": "D2",
          "ticks": 80332,
          "time": 108.57999468749999,
          "velocity": 0.8976377952755905
        },
        {
          "duration": 0.013516406250019486,
          "durationTicks": 10,
          "midi": 42,
          "name": "F#2",
          "ticks": 80428,
          "time": 108.70975218749999,
          "velocity": 0.6377952755905512
        },
        {
          "duration": 0.013516406250005275,
          "durationTicks": 10,
          "midi": 53,
          "name": "F3",
          "ticks": 80430,
          "time": 108.71245546875,
          "velocity": 0.9212598425196851
        },
        {
          "duration": 0.013516406249991064,
          "durationTicks": 10,
          "midi": 82,
          "name": "A#5",
          "ticks": 80522,
          "time": 108.83680640625,
          "velocity": 0.6141732283464567
        },
        {
          "duration": 0.010813124999998536,
          "durationTicks": 8,
          "midi": 44,
          "name": "G#2",
          "ticks": 80524,
          "time": 108.8395096875,
          "velocity": 0.5511811023622047
        },
        {
          "duration": 0.07839515624998228,
          "durationTicks": 58,
          "midi": 54,
          "name": "F#3",
          "ticks": 80526,
          "time": 108.84221296875,
          "velocity": 0.9606299212598425
        },
        {
          "duration": 0.013516406249991064,
          "durationTicks": 10,
          "midi": 82,
          "name": "A#5",
          "ticks": 80616,
          "time": 108.963860625,
          "velocity": 0.48031496062992124
        },
        {
          "duration": 0.010813124999998536,
          "durationTicks": 8,
          "midi": 46,
          "name": "A#2",
          "ticks": 80620,
          "time": 108.9692671875,
          "velocity": 0.5984251968503937
        },
        {
          "duration": 0.013516406250005275,
          "durationTicks": 10,
          "midi": 36,
          "name": "C2",
          "ticks": 80620,
          "time": 108.9692671875,
          "velocity": 0.8503937007874016
        },
        {
          "duration": 0.013516406249991064,
          "durationTicks": 10,
          "midi": 53,
          "name": "F3",
          "ticks": 80622,
          "time": 108.97197046875,
          "velocity": 0.9606299212598425
        },
        {
          "duration": 0.08920828124999503,
          "durationTicks": 66,
          "midi": 54,
          "name": "F#3",
          "ticks": 80624,
          "time": 108.97467375000001,
          "velocity": 0.8110236220472441
        },
        {
          "duration": 0.013516406250005275,
          "durationTicks": 10,
          "midi": 42,
          "name": "F#2",
          "ticks": 80714,
          "time": 109.09632140625,
          "velocity": 0.5039370078740157
        },
        {
          "duration": 0.010813125000012747,
          "durationTicks": 8,
          "midi": 46,
          "name": "A#2",
          "ticks": 80812,
          "time": 109.22878218749999,
          "velocity": 0.6692913385826772
        },
        {
          "duration": 0.013516406250005275,
          "durationTicks": 10,
          "midi": 53,
          "name": "F3",
          "ticks": 80814,
          "time": 109.23148546875,
          "velocity": 0.9448818897637795
        },
        {
          "duration": 0.013516406249991064,
          "durationTicks": 10,
          "midi": 82,
          "name": "A#5",
          "ticks": 80906,
          "time": 109.35583640625,
          "velocity": 0.1968503937007874
        },
        {
          "duration": 0.010813124999998536,
          "durationTicks": 8,
          "midi": 42,
          "name": "F#2",
          "ticks": 80908,
          "time": 109.3585396875,
          "velocity": 0.5984251968503937
        },
        {
          "duration": 0.06487875000000543,
          "durationTicks": 48,
          "midi": 54,
          "name": "F#3",
          "ticks": 80910,
          "time": 109.36124296874999,
          "velocity": 0.9212598425196851
        },
        {
          "duration": 0.013516406250005275,
          "durationTicks": 10,
          "midi": 36,
          "name": "C2",
          "ticks": 80910,
          "time": 109.36124296874999,
          "velocity": 0.9448818897637795
        },
        {
          "duration": 0.010813125000012747,
          "durationTicks": 8,
          "midi": 82,
          "name": "A#5",
          "ticks": 81000,
          "time": 109.482890625,
          "velocity": 0.4881889763779528
        },
        {
          "duration": 0.010813124999998536,
          "durationTicks": 8,
          "midi": 44,
          "name": "G#2",
          "ticks": 81004,
          "time": 109.4882971875,
          "velocity": 0.5905511811023622
        },
        {
          "duration": 0.08109843749998902,
          "durationTicks": 60,
          "midi": 54,
          "name": "F#3",
          "ticks": 81008,
          "time": 109.49370375000001,
          "velocity": 0.8503937007874016
        },
        {
          "duration": 0.013516406250005275,
          "durationTicks": 10,
          "midi": 42,
          "name": "F#2",
          "ticks": 81100,
          "time": 109.61805468749999,
          "velocity": 0.7401574803149606
        },
        {
          "duration": 0.013516406249991064,
          "durationTicks": 10,
          "midi": 53,
          "name": "F3",
          "ticks": 81102,
          "time": 109.62075796875,
          "velocity": 0.984251968503937
        },
        {
          "duration": 0.013516406249991064,
          "durationTicks": 10,
          "midi": 38,
          "name": "D2",
          "ticks": 81102,
          "time": 109.62075796875,
          "velocity": 0.8267716535433071
        },
        {
          "duration": 0.013516406250019486,
          "durationTicks": 10,
          "midi": 44,
          "name": "G#2",
          "ticks": 81196,
          "time": 109.74781218749999,
          "velocity": 0.5511811023622047
        },
        {
          "duration": 0.013516406249991064,
          "durationTicks": 10,
          "midi": 82,
          "name": "A#5",
          "ticks": 81290,
          "time": 109.87486640625,
          "velocity": 0.6456692913385826
        },
        {
          "duration": 0.013516406250005275,
          "durationTicks": 10,
          "midi": 42,
          "name": "F#2",
          "ticks": 81292,
          "time": 109.8775696875,
          "velocity": 0.6929133858267716
        },
        {
          "duration": 0.013516406250005275,
          "durationTicks": 10,
          "midi": 53,
          "name": "F3",
          "ticks": 81294,
          "time": 109.88027296874999,
          "velocity": 0.905511811023622
        },
        {
          "duration": 0.062175468749998686,
          "durationTicks": 46,
          "midi": 54,
          "name": "F#3",
          "ticks": 81296,
          "time": 109.88297625,
          "velocity": 0.9212598425196851
        },
        {
          "duration": 0.013516406249991064,
          "durationTicks": 10,
          "midi": 82,
          "name": "A#5",
          "ticks": 81386,
          "time": 110.00462390625,
          "velocity": 0.48031496062992124
        },
        {
          "duration": 0.013516406250005275,
          "durationTicks": 10,
          "midi": 44,
          "name": "G#2",
          "ticks": 81388,
          "time": 110.0073271875,
          "velocity": 0.5748031496062992
        },
        {
          "duration": 0.013516406249991064,
          "durationTicks": 10,
          "midi": 53,
          "name": "F3",
          "ticks": 81390,
          "time": 110.01003046875,
          "velocity": 0.8818897637795275
        },
        {
          "duration": 0.07569187499998975,
          "durationTicks": 56,
          "midi": 54,
          "name": "F#3",
          "ticks": 81392,
          "time": 110.01273375000001,
          "velocity": 0.8503937007874016
        },
        {
          "duration": 0.013516406250005275,
          "durationTicks": 10,
          "midi": 46,
          "name": "A#2",
          "ticks": 81484,
          "time": 110.13708468749999,
          "velocity": 0.6377952755905512
        },
        {
          "duration": 0.013516406249991064,
          "durationTicks": 10,
          "midi": 36,
          "name": "C2",
          "ticks": 81486,
          "time": 110.13978796875,
          "velocity": 0.8976377952755905
        },
        {
          "duration": 0.013516406249991064,
          "durationTicks": 10,
          "midi": 82,
          "name": "A#5",
          "ticks": 81674,
          "time": 110.39389640625001,
          "velocity": 0.48031496062992124
        },
        {
          "duration": 0.013516406250005275,
          "durationTicks": 10,
          "midi": 53,
          "name": "F3",
          "ticks": 81678,
          "time": 110.39930296874999,
          "velocity": 0.968503937007874
        },
        {
          "duration": 0.062175468749998686,
          "durationTicks": 46,
          "midi": 54,
          "name": "F#3",
          "ticks": 81678,
          "time": 110.39930296874999,
          "velocity": 0.9606299212598425
        },
        {
          "duration": 0.010813124999998536,
          "durationTicks": 8,
          "midi": 82,
          "name": "A#5",
          "ticks": 81772,
          "time": 110.5263571875,
          "velocity": 0.44881889763779526
        },
        {
          "duration": 0.08109843749998902,
          "durationTicks": 60,
          "midi": 54,
          "name": "F#3",
          "ticks": 81774,
          "time": 110.52906046875,
          "velocity": 0.8818897637795275
        },
        {
          "duration": 0.013516406250005275,
          "durationTicks": 10,
          "midi": 44,
          "name": "G#2",
          "ticks": 81868,
          "time": 110.6561146875,
          "velocity": 0.5826771653543307
        },
        {
          "duration": 0.010813124999998536,
          "durationTicks": 8,
          "midi": 38,
          "name": "D2",
          "ticks": 81868,
          "time": 110.6561146875,
          "velocity": 0.9212598425196851
        },
        {
          "duration": 0.013516406250019486,
          "durationTicks": 10,
          "midi": 42,
          "name": "F#2",
          "ticks": 81964,
          "time": 110.78587218749999,
          "velocity": 0.6377952755905512
        },
        {
          "duration": 0.013516406249991064,
          "durationTicks": 10,
          "midi": 53,
          "name": "F3",
          "ticks": 81966,
          "time": 110.78857546875,
          "velocity": 0.8976377952755905
        },
        {
          "duration": 0.013516406249991064,
          "durationTicks": 10,
          "midi": 82,
          "name": "A#5",
          "ticks": 82058,
          "time": 110.91292640625001,
          "velocity": 0.6141732283464567
        },
        {
          "duration": 0.010813125000012747,
          "durationTicks": 8,
          "midi": 44,
          "name": "G#2",
          "ticks": 82060,
          "time": 110.91562968749999,
          "velocity": 0.5118110236220472
        },
        {
          "duration": 0.06487875000000543,
          "durationTicks": 48,
          "midi": 54,
          "name": "F#3",
          "ticks": 82064,
          "time": 110.92103625,
          "velocity": 0.984251968503937
        },
        {
          "duration": 0.013516406249991064,
          "durationTicks": 10,
          "midi": 82,
          "name": "A#5",
          "ticks": 82154,
          "time": 111.04268390625,
          "velocity": 0.5275590551181102
        },
        {
          "duration": 0.010813124999998536,
          "durationTicks": 8,
          "midi": 46,
          "name": "A#2",
          "ticks": 82156,
          "time": 111.0453871875,
          "velocity": 0.5826771653543307
        },
        {
          "duration": 0.013516406249991064,
          "durationTicks": 10,
          "midi": 53,
          "name": "F3",
          "ticks": 82158,
          "time": 111.04809046875,
          "velocity": 0.9606299212598425
        },
        {
          "duration": 0.013516406249991064,
          "durationTicks": 10,
          "midi": 36,
          "name": "C2",
          "ticks": 82158,
          "time": 111.04809046875,
          "velocity": 0.9448818897637795
        },
        {
          "duration": 0.07839515624999649,
          "durationTicks": 58,
          "midi": 54,
          "name": "F#3",
          "ticks": 82160,
          "time": 111.05079375,
          "velocity": 0.8818897637795275
        },
        {
          "duration": 0.013516406250005275,
          "durationTicks": 10,
          "midi": 42,
          "name": "F#2",
          "ticks": 82252,
          "time": 111.1751446875,
          "velocity": 0.3937007874015748
        },
        {
          "duration": 0.010813125000012747,
          "durationTicks": 8,
          "midi": 46,
          "name": "A#2",
          "ticks": 82348,
          "time": 111.30490218749999,
          "velocity": 0.6377952755905512
        },
        {
          "duration": 0.013516406249991064,
          "durationTicks": 10,
          "midi": 53,
          "name": "F3",
          "ticks": 82352,
          "time": 111.31030875,
          "velocity": 0.9212598425196851
        },
        {
          "duration": 0.013516406249991064,
          "durationTicks": 10,
          "midi": 82,
          "name": "A#5",
          "ticks": 82440,
          "time": 111.429253125,
          "velocity": 0.3543307086614173
        },
        {
          "duration": 0.013516406250019486,
          "durationTicks": 10,
          "midi": 42,
          "name": "F#2",
          "ticks": 82444,
          "time": 111.43465968749999,
          "velocity": 0.3228346456692913
        },
        {
          "duration": 0.013516406250019486,
          "durationTicks": 10,
          "midi": 36,
          "name": "C2",
          "ticks": 82444,
          "time": 111.43465968749999,
          "velocity": 0.8740157480314961
        },
        {
          "duration": 0.06758203125001216,
          "durationTicks": 50,
          "midi": 54,
          "name": "F#3",
          "ticks": 82446,
          "time": 111.43736296875,
          "velocity": 0.968503937007874
        },
        {
          "duration": 0.013516406249991064,
          "durationTicks": 10,
          "midi": 82,
          "name": "A#5",
          "ticks": 82536,
          "time": 111.559010625,
          "velocity": 0.4881889763779528
        },
        {
          "duration": 0.013516406250005275,
          "durationTicks": 10,
          "midi": 44,
          "name": "G#2",
          "ticks": 82540,
          "time": 111.5644171875,
          "velocity": 0.5826771653543307
        },
        {
          "duration": 0.08380171874999576,
          "durationTicks": 62,
          "midi": 54,
          "name": "F#3",
          "ticks": 82542,
          "time": 111.56712046875,
          "velocity": 0.8818897637795275
        },
        {
          "duration": 0.010813124999998536,
          "durationTicks": 8,
          "midi": 42,
          "name": "F#2",
          "ticks": 82636,
          "time": 111.6941746875,
          "velocity": 0.6692913385826772
        },
        {
          "duration": 0.013516406249991064,
          "durationTicks": 10,
          "midi": 53,
          "name": "F3",
          "ticks": 82638,
          "time": 111.69687796875,
          "velocity": 0.9606299212598425
        },
        {
          "duration": 0.013516406249991064,
          "durationTicks": 10,
          "midi": 38,
          "name": "D2",
          "ticks": 82638,
          "time": 111.69687796875,
          "velocity": 0.8740157480314961
        },
        {
          "duration": 0.013516406250005275,
          "durationTicks": 10,
          "midi": 44,
          "name": "G#2",
          "ticks": 82732,
          "time": 111.82393218749999,
          "velocity": 0.5039370078740157
        },
        {
          "duration": 0.013516406249991064,
          "durationTicks": 10,
          "midi": 82,
          "name": "A#5",
          "ticks": 82826,
          "time": 111.95098640625001,
          "velocity": 0.6456692913385826
        },
        {
          "duration": 0.013516406250019486,
          "durationTicks": 10,
          "midi": 42,
          "name": "F#2",
          "ticks": 82828,
          "time": 111.95368968749999,
          "velocity": 0.6377952755905512
        },
        {
          "duration": 0.013516406250005275,
          "durationTicks": 10,
          "midi": 53,
          "name": "F3",
          "ticks": 82830,
          "time": 111.95639296875,
          "velocity": 0.9448818897637795
        },
        {
          "duration": 0.062175468749998686,
          "durationTicks": 46,
          "midi": 54,
          "name": "F#3",
          "ticks": 82830,
          "time": 111.95639296875,
          "velocity": 0.9606299212598425
        },
        {
          "duration": 0.013516406249991064,
          "durationTicks": 10,
          "midi": 82,
          "name": "A#5",
          "ticks": 82922,
          "time": 112.08074390625,
          "velocity": 0.5984251968503937
        },
        {
          "duration": 0.013516406250005275,
          "durationTicks": 10,
          "midi": 44,
          "name": "G#2",
          "ticks": 82924,
          "time": 112.0834471875,
          "velocity": 0.4645669291338583
        },
        {
          "duration": 0.013516406250005275,
          "durationTicks": 10,
          "midi": 53,
          "name": "F3",
          "ticks": 82926,
          "time": 112.08615046874999,
          "velocity": 0.889763779527559
        },
        {
          "duration": 0.07839515624999649,
          "durationTicks": 58,
          "midi": 54,
          "name": "F#3",
          "ticks": 82928,
          "time": 112.08885375,
          "velocity": 0.8267716535433071
        },
        {
          "duration": 0.013516406250005275,
          "durationTicks": 10,
          "midi": 46,
          "name": "A#2",
          "ticks": 83020,
          "time": 112.2132046875,
          "velocity": 0.5984251968503937
        },
        {
          "duration": 0.013516406250005275,
          "durationTicks": 10,
          "midi": 36,
          "name": "C2",
          "ticks": 83020,
          "time": 112.2132046875,
          "velocity": 0.8503937007874016
        },
        {
          "duration": 0.013516406250005275,
          "durationTicks": 10,
          "midi": 82,
          "name": "A#5",
          "ticks": 83210,
          "time": 112.47001640625,
          "velocity": 0.6141732283464567
        },
        {
          "duration": 0.013516406249991064,
          "durationTicks": 10,
          "midi": 53,
          "name": "F3",
          "ticks": 83214,
          "time": 112.47542296875,
          "velocity": 0.984251968503937
        },
        {
          "duration": 0.062175468749998686,
          "durationTicks": 46,
          "midi": 54,
          "name": "F#3",
          "ticks": 83214,
          "time": 112.47542296875,
          "velocity": 0.9212598425196851
        },
        {
          "duration": 0.013516406249991064,
          "durationTicks": 10,
          "midi": 82,
          "name": "A#5",
          "ticks": 83306,
          "time": 112.59977390625001,
          "velocity": 0.5826771653543307
        },
        {
          "duration": 0.013516406250005275,
          "durationTicks": 10,
          "midi": 53,
          "name": "F3",
          "ticks": 83310,
          "time": 112.60518046874999,
          "velocity": 0.8818897637795275
        },
        {
          "duration": 0.08109843750000323,
          "durationTicks": 60,
          "midi": 54,
          "name": "F#3",
          "ticks": 83310,
          "time": 112.60518046874999,
          "velocity": 0.8188976377952756
        },
        {
          "duration": 0.013516406249991064,
          "durationTicks": 10,
          "midi": 38,
          "name": "D2",
          "ticks": 83402,
          "time": 112.72953140625,
          "velocity": 0.8267716535433071
        },
        {
          "duration": 0.013516406250005275,
          "durationTicks": 10,
          "midi": 44,
          "name": "G#2",
          "ticks": 83404,
          "time": 112.7322346875,
          "velocity": 0.5669291338582677
        },
        {
          "duration": 0.013516406249991064,
          "durationTicks": 10,
          "midi": 42,
          "name": "F#2",
          "ticks": 83502,
          "time": 112.86469546875,
          "velocity": 0.5511811023622047
        },
        {
          "duration": 0.013516406250005275,
          "durationTicks": 10,
          "midi": 82,
          "name": "A#5",
          "ticks": 83594,
          "time": 112.98904640625,
          "velocity": 0.7007874015748031
        },
        {
          "duration": 0.010813125000012747,
          "durationTicks": 8,
          "midi": 44,
          "name": "G#2",
          "ticks": 83596,
          "time": 112.99174968749999,
          "velocity": 0.5748031496062992
        },
        {
          "duration": 0.06487875000000543,
          "durationTicks": 48,
          "midi": 54,
          "name": "F#3",
          "ticks": 83600,
          "time": 112.99715625,
          "velocity": 0.9448818897637795
        },
        {
          "duration": 0.013516406249991064,
          "durationTicks": 10,
          "midi": 82,
          "name": "A#5",
          "ticks": 83690,
          "time": 113.11880390625001,
          "velocity": 0.5275590551181102
        },
        {
          "duration": 0.013516406249991064,
          "durationTicks": 10,
          "midi": 36,
          "name": "C2",
          "ticks": 83690,
          "time": 113.11880390625001,
          "velocity": 0.8740157480314961
        },
        {
          "duration": 0.013516406250019486,
          "durationTicks": 10,
          "midi": 46,
          "name": "A#2",
          "ticks": 83692,
          "time": 113.12150718749999,
          "velocity": 0.6220472440944882
        },
        {
          "duration": 0.07839515624999649,
          "durationTicks": 58,
          "midi": 54,
          "name": "F#3",
          "ticks": 83696,
          "time": 113.12691375,
          "velocity": 0.8031496062992126
        },
        {
          "duration": 0.013516406249991064,
          "durationTicks": 10,
          "midi": 42,
          "name": "F#2",
          "ticks": 83786,
          "time": 113.24856140625,
          "velocity": 0.49606299212598426
        },
        {
          "duration": 0.010813124999998536,
          "durationTicks": 8,
          "midi": 46,
          "name": "A#2",
          "ticks": 83884,
          "time": 113.3810221875,
          "velocity": 0.6220472440944882
        },
        {
          "duration": 0.010813125000012747,
          "durationTicks": 8,
          "midi": 42,
          "name": "F#2",
          "ticks": 83980,
          "time": 113.51077968749999,
          "velocity": 0.4881889763779528
        },
        {
          "duration": 0.010813125000012747,
          "durationTicks": 8,
          "midi": 36,
          "name": "C2",
          "ticks": 83980,
          "time": 113.51077968749999,
          "velocity": 0.8976377952755905
        },
        {
          "duration": 0.06758203125001216,
          "durationTicks": 50,
          "midi": 54,
          "name": "F#3",
          "ticks": 83982,
          "time": 113.51348296875,
          "velocity": 0.9448818897637795
        },
        {
          "duration": 0.013516406250019486,
          "durationTicks": 10,
          "midi": 44,
          "name": "G#2",
          "ticks": 84076,
          "time": 113.64053718749999,
          "velocity": 0.5826771653543307
        },
        {
          "duration": 0.08380171875000997,
          "durationTicks": 62,
          "midi": 54,
          "name": "F#3",
          "ticks": 84078,
          "time": 113.64324046875,
          "velocity": 0.8267716535433071
        },
        {
          "duration": 0.013516406250005275,
          "durationTicks": 10,
          "midi": 42,
          "name": "F#2",
          "ticks": 84172,
          "time": 113.7702946875,
          "velocity": 0.6535433070866141
        },
        {
          "duration": 0.013516406250005275,
          "durationTicks": 10,
          "midi": 38,
          "name": "D2",
          "ticks": 84172,
          "time": 113.7702946875,
          "velocity": 0.8740157480314961
        },
        {
          "duration": 0.013516406250005275,
          "durationTicks": 10,
          "midi": 44,
          "name": "G#2",
          "ticks": 84268,
          "time": 113.9000521875,
          "velocity": 0.5905511811023622
        },
        {
          "duration": 0.013516406250005275,
          "durationTicks": 10,
          "midi": 42,
          "name": "F#2",
          "ticks": 84364,
          "time": 114.02980968749999,
          "velocity": 0.5984251968503937
        },
        {
          "duration": 0.06487874999999121,
          "durationTicks": 48,
          "midi": 54,
          "name": "F#3",
          "ticks": 84368,
          "time": 114.03521625,
          "velocity": 0.9291338582677166
        },
        {
          "duration": 0.013516406250019486,
          "durationTicks": 10,
          "midi": 44,
          "name": "G#2",
          "ticks": 84460,
          "time": 114.15956718749999,
          "velocity": 0.5354330708661418
        },
        {
          "duration": 0.07569187499998975,
          "durationTicks": 56,
          "midi": 54,
          "name": "F#3",
          "ticks": 84464,
          "time": 114.16497375,
          "velocity": 0.8188976377952756
        },
        {
          "duration": 0.013516406249991064,
          "durationTicks": 10,
          "midi": 52,
          "name": "E3",
          "ticks": 84554,
          "time": 114.28662140625,
          "velocity": 1
        },
        {
          "duration": 0.013516406249991064,
          "durationTicks": 10,
          "midi": 57,
          "name": "A3",
          "ticks": 84554,
          "time": 114.28662140625,
          "velocity": 1
        },
        {
          "duration": 0.013516406250005275,
          "durationTicks": 10,
          "midi": 36,
          "name": "C2",
          "ticks": 84556,
          "time": 114.2893246875,
          "velocity": 0.8267716535433071
        },
        {
          "duration": 0.013516406250005275,
          "durationTicks": 10,
          "midi": 82,
          "name": "A#5",
          "ticks": 84748,
          "time": 114.54883968749999,
          "velocity": 0.5826771653543307
        },
        {
          "duration": 0.062175468749998686,
          "durationTicks": 46,
          "midi": 54,
          "name": "F#3",
          "ticks": 84752,
          "time": 114.55424625,
          "velocity": 0.9212598425196851
        },
        {
          "duration": 0.013516406250019486,
          "durationTicks": 10,
          "midi": 82,
          "name": "A#5",
          "ticks": 84844,
          "time": 114.67859718749999,
          "velocity": 0.5826771653543307
        },
        {
          "duration": 0.07839515624999649,
          "durationTicks": 58,
          "midi": 54,
          "name": "F#3",
          "ticks": 84848,
          "time": 114.68400375,
          "velocity": 0.8267716535433071
        },
        {
          "duration": 0.013516406249991064,
          "durationTicks": 10,
          "midi": 44,
          "name": "G#2",
          "ticks": 84938,
          "time": 114.80565140625,
          "velocity": 0.5905511811023622
        },
        {
          "duration": 0.013516406250005275,
          "durationTicks": 10,
          "midi": 38,
          "name": "D2",
          "ticks": 84942,
          "time": 114.81105796874999,
          "velocity": 0.9212598425196851
        },
        {
          "duration": 0.010813124999998536,
          "durationTicks": 8,
          "midi": 42,
          "name": "F#2",
          "ticks": 85036,
          "time": 114.9381121875,
          "velocity": 0.5354330708661418
        },
        {
          "duration": 0.013516406249991064,
          "durationTicks": 10,
          "midi": 82,
          "name": "A#5",
          "ticks": 85130,
          "time": 115.06516640625,
          "velocity": 0.5826771653543307
        },
        {
          "duration": 0.013516406249991064,
          "durationTicks": 10,
          "midi": 44,
          "name": "G#2",
          "ticks": 85130,
          "time": 115.06516640625,
          "velocity": 0.5826771653543307
        },
        {
          "duration": 0.062175468749998686,
          "durationTicks": 46,
          "midi": 54,
          "name": "F#3",
          "ticks": 85134,
          "time": 115.07057296875,
          "velocity": 0.9212598425196851
        },
        {
          "duration": 0.013516406249991064,
          "durationTicks": 10,
          "midi": 82,
          "name": "A#5",
          "ticks": 85224,
          "time": 115.192220625,
          "velocity": 0.5275590551181102
        },
        {
          "duration": 0.010813125000012747,
          "durationTicks": 8,
          "midi": 46,
          "name": "A#2",
          "ticks": 85228,
          "time": 115.19762718749999,
          "velocity": 0.6377952755905512
        },
        {
          "duration": 0.08109843750000323,
          "durationTicks": 60,
          "midi": 54,
          "name": "F#3",
          "ticks": 85230,
          "time": 115.20033046875,
          "velocity": 0.8503937007874016
        },
        {
          "duration": 0.013516406249991064,
          "durationTicks": 10,
          "midi": 36,
          "name": "C2",
          "ticks": 85230,
          "time": 115.20033046875,
          "velocity": 0.8267716535433071
        },
        {
          "duration": 0.013516406249991064,
          "durationTicks": 10,
          "midi": 42,
          "name": "F#2",
          "ticks": 85322,
          "time": 115.32468140625001,
          "velocity": 0.4881889763779528
        },
        {
          "duration": 0.010813124999998536,
          "durationTicks": 8,
          "midi": 46,
          "name": "A#2",
          "ticks": 85420,
          "time": 115.4571421875,
          "velocity": 0.6929133858267716
        },
        {
          "duration": 0.013516406250005275,
          "durationTicks": 10,
          "midi": 36,
          "name": "C2",
          "ticks": 85512,
          "time": 115.581493125,
          "velocity": 0.8503937007874016
        },
        {
          "duration": 0.013516406249991064,
          "durationTicks": 10,
          "midi": 82,
          "name": "A#5",
          "ticks": 85514,
          "time": 115.58419640625,
          "velocity": 0.4645669291338583
        },
        {
          "duration": 0.06487875000000543,
          "durationTicks": 48,
          "midi": 54,
          "name": "F#3",
          "ticks": 85516,
          "time": 115.5868996875,
          "velocity": 0.9212598425196851
        },
        {
          "duration": 0.013516406250005275,
          "durationTicks": 10,
          "midi": 42,
          "name": "F#2",
          "ticks": 85516,
          "time": 115.5868996875,
          "velocity": 0.5433070866141733
        },
        {
          "duration": 0.013516406250005275,
          "durationTicks": 10,
          "midi": 82,
          "name": "A#5",
          "ticks": 85610,
          "time": 115.71395390625,
          "velocity": 0.5826771653543307
        },
        {
          "duration": 0.013516406250019486,
          "durationTicks": 10,
          "midi": 44,
          "name": "G#2",
          "ticks": 85612,
          "time": 115.71665718749999,
          "velocity": 0.5748031496062992
        },
        {
          "duration": 0.08109843750000323,
          "durationTicks": 60,
          "midi": 54,
          "name": "F#3",
          "ticks": 85614,
          "time": 115.71936046875,
          "velocity": 0.8267716535433071
        },
        {
          "duration": 0.013516406250019486,
          "durationTicks": 10,
          "midi": 42,
          "name": "F#2",
          "ticks": 85708,
          "time": 115.84641468749999,
          "velocity": 0.5748031496062992
        },
        {
          "duration": 0.013516406250005275,
          "durationTicks": 10,
          "midi": 38,
          "name": "D2",
          "ticks": 85710,
          "time": 115.84911796875,
          "velocity": 0.9212598425196851
        },
        {
          "duration": 0.013516406250005275,
          "durationTicks": 10,
          "midi": 44,
          "name": "G#2",
          "ticks": 85804,
          "time": 115.9761721875,
          "velocity": 0.4645669291338583
        },
        {
          "duration": 0.010813124999998536,
          "durationTicks": 8,
          "midi": 82,
          "name": "A#5",
          "ticks": 85900,
          "time": 116.1059296875,
          "velocity": 0.5826771653543307
        },
        {
          "duration": 0.0621754687500129,
          "durationTicks": 46,
          "midi": 54,
          "name": "F#3",
          "ticks": 85900,
          "time": 116.1059296875,
          "velocity": 0.9133858267716536
        },
        {
          "duration": 0.013516406249991064,
          "durationTicks": 10,
          "midi": 42,
          "name": "F#2",
          "ticks": 85902,
          "time": 116.10863296875,
          "velocity": 0.5984251968503937
        },
        {
          "duration": 0.013516406250005275,
          "durationTicks": 10,
          "midi": 44,
          "name": "G#2",
          "ticks": 85994,
          "time": 116.23298390625,
          "velocity": 0.4094488188976378
        },
        {
          "duration": 0.010813125000012747,
          "durationTicks": 8,
          "midi": 82,
          "name": "A#5",
          "ticks": 85996,
          "time": 116.23568718749999,
          "velocity": 0.5275590551181102
        },
        {
          "duration": 0.08109843750000323,
          "durationTicks": 60,
          "midi": 54,
          "name": "F#3",
          "ticks": 85996,
          "time": 116.23568718749999,
          "velocity": 0.8267716535433071
        },
        {
          "duration": 0.010813125000012747,
          "durationTicks": 8,
          "midi": 46,
          "name": "A#2",
          "ticks": 86092,
          "time": 116.36544468749999,
          "velocity": 0.6692913385826772
        },
        {
          "duration": 0.013516406250019486,
          "durationTicks": 10,
          "midi": 36,
          "name": "C2",
          "ticks": 86092,
          "time": 116.36544468749999,
          "velocity": 0.9212598425196851
        },
        {
          "duration": 0.013516406249991064,
          "durationTicks": 10,
          "midi": 82,
          "name": "A#5",
          "ticks": 86282,
          "time": 116.62225640625,
          "velocity": 0.4094488188976378
        },
        {
          "duration": 0.06487874999999121,
          "durationTicks": 48,
          "midi": 54,
          "name": "F#3",
          "ticks": 86284,
          "time": 116.6249596875,
          "velocity": 0.8582677165354331
        },
        {
          "duration": 0.013516406250005275,
          "durationTicks": 10,
          "midi": 82,
          "name": "A#5",
          "ticks": 86378,
          "time": 116.75201390625,
          "velocity": 0.4094488188976378
        },
        {
          "duration": 0.07839515624999649,
          "durationTicks": 58,
          "midi": 54,
          "name": "F#3",
          "ticks": 86382,
          "time": 116.75742046875,
          "velocity": 0.8031496062992126
        },
        {
          "duration": 0.013516406250019486,
          "durationTicks": 10,
          "midi": 44,
          "name": "G#2",
          "ticks": 86476,
          "time": 116.88447468749999,
          "velocity": 0.5748031496062992
        },
        {
          "duration": 0.010813125000012747,
          "durationTicks": 8,
          "midi": 38,
          "name": "D2",
          "ticks": 86476,
          "time": 116.88447468749999,
          "velocity": 0.8740157480314961
        },
        {
          "duration": 0.013516406250005275,
          "durationTicks": 10,
          "midi": 42,
          "name": "F#2",
          "ticks": 86574,
          "time": 117.01693546874999,
          "velocity": 0.6220472440944882
        },
        {
          "duration": 0.013516406249991064,
          "durationTicks": 10,
          "midi": 82,
          "name": "A#5",
          "ticks": 86666,
          "time": 117.14128640625,
          "velocity": 0.48031496062992124
        },
        {
          "duration": 0.013516406250005275,
          "durationTicks": 10,
          "midi": 44,
          "name": "G#2",
          "ticks": 86668,
          "time": 117.1439896875,
          "velocity": 0.5118110236220472
        },
        {
          "duration": 0.06487874999999121,
          "durationTicks": 48,
          "midi": 54,
          "name": "F#3",
          "ticks": 86670,
          "time": 117.14669296875,
          "velocity": 0.8188976377952756
        },
        {
          "duration": 0.013516406249991064,
          "durationTicks": 10,
          "midi": 82,
          "name": "A#5",
          "ticks": 86762,
          "time": 117.27104390625,
          "velocity": 0.5275590551181102
        },
        {
          "duration": 0.08109843750000323,
          "durationTicks": 60,
          "midi": 54,
          "name": "F#3",
          "ticks": 86764,
          "time": 117.27374718749999,
          "velocity": 0.7716535433070866
        },
        {
          "duration": 0.013516406250005275,
          "durationTicks": 10,
          "midi": 46,
          "name": "A#2",
          "ticks": 86764,
          "time": 117.27374718749999,
          "velocity": 0.6377952755905512
        },
        {
          "duration": 0.013516406250005275,
          "durationTicks": 10,
          "midi": 36,
          "name": "C2",
          "ticks": 86764,
          "time": 117.27374718749999,
          "velocity": 0.8740157480314961
        },
        {
          "duration": 0.013516406249991064,
          "durationTicks": 10,
          "midi": 42,
          "name": "F#2",
          "ticks": 86862,
          "time": 117.40620796875,
          "velocity": 0.2283464566929134
        },
        {
          "duration": 0.013516406250005275,
          "durationTicks": 10,
          "midi": 46,
          "name": "A#2",
          "ticks": 86956,
          "time": 117.5332621875,
          "velocity": 0.6377952755905512
        },
        {
          "duration": 0.013516406249991064,
          "durationTicks": 10,
          "midi": 82,
          "name": "A#5",
          "ticks": 87048,
          "time": 117.657613125,
          "velocity": 0.1968503937007874
        },
        {
          "duration": 0.010813124999998536,
          "durationTicks": 8,
          "midi": 36,
          "name": "C2",
          "ticks": 87052,
          "time": 117.6630196875,
          "velocity": 0.8740157480314961
        },
        {
          "duration": 0.013516406249991064,
          "durationTicks": 10,
          "midi": 42,
          "name": "F#2",
          "ticks": 87054,
          "time": 117.66572296875,
          "velocity": 0.5826771653543307
        },
        {
          "duration": 0.06758203124999795,
          "durationTicks": 50,
          "midi": 54,
          "name": "F#3",
          "ticks": 87056,
          "time": 117.66842625,
          "velocity": 0.9448818897637795
        },
        {
          "duration": 0.013516406250005275,
          "durationTicks": 10,
          "midi": 82,
          "name": "A#5",
          "ticks": 87144,
          "time": 117.787370625,
          "velocity": 0.5118110236220472
        },
        {
          "duration": 0.013516406249991064,
          "durationTicks": 10,
          "midi": 44,
          "name": "G#2",
          "ticks": 87150,
          "time": 117.79548046875,
          "velocity": 0.5039370078740157
        },
        {
          "duration": 0.08109843749998902,
          "durationTicks": 60,
          "midi": 54,
          "name": "F#3",
          "ticks": 87152,
          "time": 117.79818375,
          "velocity": 0.8188976377952756
        },
        {
          "duration": 0.013516406250019486,
          "durationTicks": 10,
          "midi": 42,
          "name": "F#2",
          "ticks": 87244,
          "time": 117.92253468749999,
          "velocity": 0.6692913385826772
        },
        {
          "duration": 0.013516406249991064,
          "durationTicks": 10,
          "midi": 38,
          "name": "D2",
          "ticks": 87246,
          "time": 117.92523796875,
          "velocity": 0.8976377952755905
        },
        {
          "duration": 0.013516406250005275,
          "durationTicks": 10,
          "midi": 44,
          "name": "G#2",
          "ticks": 87342,
          "time": 118.05499546875,
          "velocity": 0.4645669291338583
        },
        {
          "duration": 0.013516406249991064,
          "durationTicks": 10,
          "midi": 82,
          "name": "A#5",
          "ticks": 87434,
          "time": 118.17934640625,
          "velocity": 0.5826771653543307
        },
        {
          "duration": 0.013516406249991064,
          "durationTicks": 10,
          "midi": 42,
          "name": "F#2",
          "ticks": 87438,
          "time": 118.18475296875,
          "velocity": 0.6377952755905512
        },
        {
          "duration": 0.06487875000000543,
          "durationTicks": 48,
          "midi": 54,
          "name": "F#3",
          "ticks": 87440,
          "time": 118.18745625,
          "velocity": 0.8582677165354331
        },
        {
          "duration": 0.013516406249991064,
          "durationTicks": 10,
          "midi": 82,
          "name": "A#5",
          "ticks": 87530,
          "time": 118.30910390625,
          "velocity": 0.48031496062992124
        },
        {
          "duration": 0.010813124999998536,
          "durationTicks": 8,
          "midi": 44,
          "name": "G#2",
          "ticks": 87532,
          "time": 118.3118071875,
          "velocity": 0.4645669291338583
        },
        {
          "duration": 0.07569187499998975,
          "durationTicks": 56,
          "midi": 54,
          "name": "F#3",
          "ticks": 87536,
          "time": 118.31721375000001,
          "velocity": 0.8503937007874016
        },
        {
          "duration": 0.010813125000012747,
          "durationTicks": 8,
          "midi": 46,
          "name": "A#2",
          "ticks": 87628,
          "time": 118.44156468749999,
          "velocity": 0.6692913385826772
        },
        {
          "duration": 0.013516406249991064,
          "durationTicks": 10,
          "midi": 36,
          "name": "C2",
          "ticks": 87630,
          "time": 118.44426796875,
          "velocity": 0.8503937007874016
        },
        {
          "duration": 0.013516406249991064,
          "durationTicks": 10,
          "midi": 82,
          "name": "A#5",
          "ticks": 87818,
          "time": 118.69837640625,
          "velocity": 0.5275590551181102
        },
        {
          "duration": 0.07028531250000469,
          "durationTicks": 52,
          "midi": 54,
          "name": "F#3",
          "ticks": 87824,
          "time": 118.70648625,
          "velocity": 0.9212598425196851
        },
        {
          "duration": 0.013516406249991064,
          "durationTicks": 10,
          "midi": 82,
          "name": "A#5",
          "ticks": 87914,
          "time": 118.82813390625,
          "velocity": 0.4881889763779528
        },
        {
          "duration": 0.08380171874998155,
          "durationTicks": 62,
          "midi": 54,
          "name": "F#3",
          "ticks": 87920,
          "time": 118.83624375000001,
          "velocity": 0.8031496062992126
        },
        {
          "duration": 0.010813125000012747,
          "durationTicks": 8,
          "midi": 44,
          "name": "G#2",
          "ticks": 88012,
          "time": 118.96059468749999,
          "velocity": 0.5984251968503937
        },
        {
          "duration": 0.013516406250005275,
          "durationTicks": 10,
          "midi": 38,
          "name": "D2",
          "ticks": 88012,
          "time": 118.96059468749999,
          "velocity": 0.8267716535433071
        },
        {
          "duration": 0.013516406250019486,
          "durationTicks": 10,
          "midi": 42,
          "name": "F#2",
          "ticks": 88108,
          "time": 119.09035218749999,
          "velocity": 0.6220472440944882
        },
        {
          "duration": 0.013516406249991064,
          "durationTicks": 10,
          "midi": 82,
          "name": "A#5",
          "ticks": 88202,
          "time": 119.21740640625,
          "velocity": 0.5511811023622047
        },
        {
          "duration": 0.06487874999999121,
          "durationTicks": 48,
          "midi": 54,
          "name": "F#3",
          "ticks": 88204,
          "time": 119.2201096875,
          "velocity": 0.9212598425196851
        },
        {
          "duration": 0.010813124999998536,
          "durationTicks": 8,
          "midi": 44,
          "name": "G#2",
          "ticks": 88204,
          "time": 119.2201096875,
          "velocity": 0.5748031496062992
        },
        {
          "duration": 0.013516406249991064,
          "durationTicks": 10,
          "midi": 82,
          "name": "A#5",
          "ticks": 88298,
          "time": 119.34716390625,
          "velocity": 0.3858267716535433
        },
        {
          "duration": 0.0865050000000025,
          "durationTicks": 64,
          "midi": 54,
          "name": "F#3",
          "ticks": 88300,
          "time": 119.3498671875,
          "velocity": 0.7874015748031497
        },
        {
          "duration": 0.013516406250005275,
          "durationTicks": 10,
          "midi": 46,
          "name": "A#2",
          "ticks": 88300,
          "time": 119.3498671875,
          "velocity": 0.6220472440944882
        },
        {
          "duration": 0.013516406250005275,
          "durationTicks": 10,
          "midi": 36,
          "name": "C2",
          "ticks": 88300,
          "time": 119.3498671875,
          "velocity": 0.8976377952755905
        },
        {
          "duration": 0.013516406250005275,
          "durationTicks": 10,
          "midi": 42,
          "name": "F#2",
          "ticks": 88396,
          "time": 119.47962468749999,
          "velocity": 0.41732283464566927
        },
        {
          "duration": 0.013516406250019486,
          "durationTicks": 10,
          "midi": 46,
          "name": "A#2",
          "ticks": 88492,
          "time": 119.60938218749999,
          "velocity": 0.6220472440944882
        },
        {
          "duration": 0.010813124999998536,
          "durationTicks": 8,
          "midi": 82,
          "name": "A#5",
          "ticks": 88588,
          "time": 119.7391396875,
          "velocity": 0.4094488188976378
        },
        {
          "duration": 0.06487874999999121,
          "durationTicks": 48,
          "midi": 54,
          "name": "F#3",
          "ticks": 88588,
          "time": 119.7391396875,
          "velocity": 0.889763779527559
        },
        {
          "duration": 0.010813124999998536,
          "durationTicks": 8,
          "midi": 36,
          "name": "C2",
          "ticks": 88588,
          "time": 119.7391396875,
          "velocity": 0.8740157480314961
        },
        {
          "duration": 0.013516406250005275,
          "durationTicks": 10,
          "midi": 42,
          "name": "F#2",
          "ticks": 88590,
          "time": 119.74184296874999,
          "velocity": 0.5748031496062992
        },
        {
          "duration": 0.010813124999998536,
          "durationTicks": 8,
          "midi": 82,
          "name": "A#5",
          "ticks": 88684,
          "time": 119.8688971875,
          "velocity": 0.44881889763779526
        },
        {
          "duration": 0.07569187500000396,
          "durationTicks": 56,
          "midi": 54,
          "name": "F#3",
          "ticks": 88684,
          "time": 119.8688971875,
          "velocity": 0.7716535433070866
        },
        {
          "duration": 0.013516406249991064,
          "durationTicks": 10,
          "midi": 44,
          "name": "G#2",
          "ticks": 88686,
          "time": 119.87160046875,
          "velocity": 0.5511811023622047
        },
        {
          "duration": 0.013516406250005275,
          "durationTicks": 10,
          "midi": 42,
          "name": "F#2",
          "ticks": 88780,
          "time": 119.9986546875,
          "velocity": 0.7401574803149606
        },
        {
          "duration": 0.013516406250005275,
          "durationTicks": 10,
          "midi": 38,
          "name": "D2",
          "ticks": 88780,
          "time": 119.9986546875,
          "velocity": 0.9212598425196851
        },
        {
          "duration": 0.013516406249991064,
          "durationTicks": 10,
          "midi": 44,
          "name": "G#2",
          "ticks": 88878,
          "time": 120.13111546875,
          "velocity": 0.5118110236220472
        },
        {
          "duration": 0.010813125000012747,
          "durationTicks": 8,
          "midi": 82,
          "name": "A#5",
          "ticks": 88972,
          "time": 120.25816968749999,
          "velocity": 0.5511811023622047
        },
        {
          "duration": 0.06758203125001216,
          "durationTicks": 50,
          "midi": 54,
          "name": "F#3",
          "ticks": 88974,
          "time": 120.26087296875,
          "velocity": 0.9133858267716536
        },
        {
          "duration": 0.013516406250005275,
          "durationTicks": 10,
          "midi": 42,
          "name": "F#2",
          "ticks": 88974,
          "time": 120.26087296875,
          "velocity": 0.6377952755905512
        },
        {
          "duration": 0.010813124999998536,
          "durationTicks": 8,
          "midi": 82,
          "name": "A#5",
          "ticks": 89068,
          "time": 120.3879271875,
          "velocity": 0.4881889763779528
        },
        {
          "duration": 0.013516406250005275,
          "durationTicks": 10,
          "midi": 44,
          "name": "G#2",
          "ticks": 89068,
          "time": 120.3879271875,
          "velocity": 0.4566929133858268
        },
        {
          "duration": 0.07298859375001143,
          "durationTicks": 54,
          "midi": 54,
          "name": "F#3",
          "ticks": 89072,
          "time": 120.39333375,
          "velocity": 0.8031496062992126
        },
        {
          "duration": 0.013516406250005275,
          "durationTicks": 10,
          "midi": 46,
          "name": "A#2",
          "ticks": 89164,
          "time": 120.5176846875,
          "velocity": 0.6535433070866141
        },
        {
          "duration": 0.013516406250005275,
          "durationTicks": 10,
          "midi": 36,
          "name": "C2",
          "ticks": 89164,
          "time": 120.5176846875,
          "velocity": 0.8976377952755905
        },
        {
          "duration": 0.013516406249991064,
          "durationTicks": 10,
          "midi": 82,
          "name": "A#5",
          "ticks": 89354,
          "time": 120.77449640625001,
          "velocity": 0.5826771653543307
        },
        {
          "duration": 0.013516406250019486,
          "durationTicks": 10,
          "midi": 36,
          "name": "C2",
          "ticks": 89356,
          "time": 120.77719968749999,
          "velocity": 0.7795275590551181
        },
        {
          "duration": 0.05947218750000616,
          "durationTicks": 44,
          "midi": 54,
          "name": "F#3",
          "ticks": 89358,
          "time": 120.77990296875,
          "velocity": 0.9212598425196851
        },
        {
          "duration": 0.010813124999998536,
          "durationTicks": 8,
          "midi": 82,
          "name": "A#5",
          "ticks": 89452,
          "time": 120.9069571875,
          "velocity": 0.5511811023622047
        },
        {
          "duration": 0.08380171874999576,
          "durationTicks": 62,
          "midi": 54,
          "name": "F#3",
          "ticks": 89452,
          "time": 120.9069571875,
          "velocity": 0.8031496062992126
        },
        {
          "duration": 0.013516406250005275,
          "durationTicks": 10,
          "midi": 44,
          "name": "G#2",
          "ticks": 89548,
          "time": 121.0367146875,
          "velocity": 0.6220472440944882
        },
        {
          "duration": 0.013516406250005275,
          "durationTicks": 10,
          "midi": 38,
          "name": "D2",
          "ticks": 89548,
          "time": 121.0367146875,
          "velocity": 0.9212598425196851
        },
        {
          "duration": 0.013516406249991064,
          "durationTicks": 10,
          "midi": 42,
          "name": "F#2",
          "ticks": 89646,
          "time": 121.16917546875,
          "velocity": 0.5748031496062992
        },
        {
          "duration": 0.013516406249991064,
          "durationTicks": 10,
          "midi": 82,
          "name": "A#5",
          "ticks": 89738,
          "time": 121.29352640625001,
          "velocity": 0.4881889763779528
        },
        {
          "duration": 0.013516406250019486,
          "durationTicks": 10,
          "midi": 44,
          "name": "G#2",
          "ticks": 89740,
          "time": 121.29622968749999,
          "velocity": 0.5748031496062992
        },
        {
          "duration": 0.05676890624999942,
          "durationTicks": 42,
          "midi": 54,
          "name": "F#3",
          "ticks": 89742,
          "time": 121.29893296875,
          "velocity": 0.9133858267716536
        },
        {
          "duration": 0.010813124999998536,
          "durationTicks": 8,
          "midi": 82,
          "name": "A#5",
          "ticks": 89836,
          "time": 121.4259871875,
          "velocity": 0.5275590551181102
        },
        {
          "duration": 0.08380171874999576,
          "durationTicks": 62,
          "midi": 54,
          "name": "F#3",
          "ticks": 89836,
          "time": 121.4259871875,
          "velocity": 0.8267716535433071
        },
        {
          "duration": 0.013516406250005275,
          "durationTicks": 10,
          "midi": 46,
          "name": "A#2",
          "ticks": 89836,
          "time": 121.4259871875,
          "velocity": 0.5826771653543307
        },
        {
          "duration": 0.010813124999998536,
          "durationTicks": 8,
          "midi": 36,
          "name": "C2",
          "ticks": 89836,
          "time": 121.4259871875,
          "velocity": 0.8267716535433071
        },
        {
          "duration": 0.013516406250005275,
          "durationTicks": 10,
          "midi": 42,
          "name": "F#2",
          "ticks": 89932,
          "time": 121.5557446875,
          "velocity": 0.3779527559055118
        },
        {
          "duration": 0.013516406250005275,
          "durationTicks": 10,
          "midi": 46,
          "name": "A#2",
          "ticks": 90028,
          "time": 121.68550218749999,
          "velocity": 0.6377952755905512
        },
        {
          "duration": 0.013516406250005275,
          "durationTicks": 10,
          "midi": 82,
          "name": "A#5",
          "ticks": 90122,
          "time": 121.81255640625,
          "velocity": 0.1732283464566929
        },
        {
          "duration": 0.013516406250019486,
          "durationTicks": 10,
          "midi": 42,
          "name": "F#2",
          "ticks": 90124,
          "time": 121.81525968749999,
          "velocity": 0.5511811023622047
        },
        {
          "duration": 0.010813125000012747,
          "durationTicks": 8,
          "midi": 36,
          "name": "C2",
          "ticks": 90124,
          "time": 121.81525968749999,
          "velocity": 0.8976377952755905
        },
        {
          "duration": 0.06487875000000543,
          "durationTicks": 48,
          "midi": 54,
          "name": "F#3",
          "ticks": 90128,
          "time": 121.82066625,
          "velocity": 0.9212598425196851
        },
        {
          "duration": 0.013516406249991064,
          "durationTicks": 10,
          "midi": 82,
          "name": "A#5",
          "ticks": 90218,
          "time": 121.94231390625,
          "velocity": 0.4645669291338583
        },
        {
          "duration": 0.013516406250005275,
          "durationTicks": 10,
          "midi": 44,
          "name": "G#2",
          "ticks": 90220,
          "time": 121.9450171875,
          "velocity": 0.5748031496062992
        },
        {
          "duration": 0.07839515624999649,
          "durationTicks": 58,
          "midi": 54,
          "name": "F#3",
          "ticks": 90224,
          "time": 121.95042375,
          "velocity": 0.7874015748031497
        },
        {
          "duration": 0.010813124999998536,
          "durationTicks": 8,
          "midi": 42,
          "name": "F#2",
          "ticks": 90316,
          "time": 122.0747746875,
          "velocity": 0.7401574803149606
        },
        {
          "duration": 0.013516406250005275,
          "durationTicks": 10,
          "midi": 38,
          "name": "D2",
          "ticks": 90316,
          "time": 122.0747746875,
          "velocity": 0.9448818897637795
        },
        {
          "duration": 0.013516406250005275,
          "durationTicks": 10,
          "midi": 44,
          "name": "G#2",
          "ticks": 90412,
          "time": 122.20453218749999,
          "velocity": 0.49606299212598426
        },
        {
          "duration": 0.013516406250005275,
          "durationTicks": 10,
          "midi": 82,
          "name": "A#5",
          "ticks": 90506,
          "time": 122.33158640625,
          "velocity": 0.5826771653543307
        },
        {
          "duration": 0.013516406249991064,
          "durationTicks": 10,
          "midi": 42,
          "name": "F#2",
          "ticks": 90510,
          "time": 122.33699296875,
          "velocity": 0.6377952755905512
        },
        {
          "duration": 0.05676890624999942,
          "durationTicks": 42,
          "midi": 54,
          "name": "F#3",
          "ticks": 90512,
          "time": 122.33969625,
          "velocity": 0.9133858267716536
        },
        {
          "duration": 0.013516406249991064,
          "durationTicks": 10,
          "midi": 82,
          "name": "A#5",
          "ticks": 90602,
          "time": 122.46134390625001,
          "velocity": 0.44881889763779526
        },
        {
          "duration": 0.010813125000012747,
          "durationTicks": 8,
          "midi": 44,
          "name": "G#2",
          "ticks": 90604,
          "time": 122.46404718749999,
          "velocity": 0.4566929133858268
        },
        {
          "duration": 0.07839515624999649,
          "durationTicks": 58,
          "midi": 54,
          "name": "F#3",
          "ticks": 90608,
          "time": 122.46945375,
          "velocity": 0.7874015748031497
        },
        {
          "duration": 0.013516406249991064,
          "durationTicks": 10,
          "midi": 52,
          "name": "E3",
          "ticks": 90698,
          "time": 122.59110140625,
          "velocity": 0.9606299212598425
        },
        {
          "duration": 0.013516406250005275,
          "durationTicks": 10,
          "midi": 46,
          "name": "A#2",
          "ticks": 90700,
          "time": 122.5938046875,
          "velocity": 0.6535433070866141
        },
        {
          "duration": 0.013516406249991064,
          "durationTicks": 10,
          "midi": 36,
          "name": "C2",
          "ticks": 90702,
          "time": 122.59650796875,
          "velocity": 0.8976377952755905
        },
        {
          "duration": 0.010813125000012747,
          "durationTicks": 8,
          "midi": 82,
          "name": "A#5",
          "ticks": 90892,
          "time": 122.85331968749999,
          "velocity": 0.2755905511811024
        },
        {
          "duration": 0.059472187499991946,
          "durationTicks": 44,
          "midi": 54,
          "name": "F#3",
          "ticks": 90896,
          "time": 122.85872625,
          "velocity": 0.8740157480314961
        },
        {
          "duration": 0.013516406250019486,
          "durationTicks": 10,
          "midi": 82,
          "name": "A#5",
          "ticks": 90988,
          "time": 122.98307718749999,
          "velocity": 0.4881889763779528
        },
        {
          "duration": 0.07028531250000469,
          "durationTicks": 52,
          "midi": 54,
          "name": "F#3",
          "ticks": 90992,
          "time": 122.98848375,
          "velocity": 0.6771653543307087
        },
        {
          "duration": 0.013516406249991064,
          "durationTicks": 10,
          "midi": 44,
          "name": "G#2",
          "ticks": 91082,
          "time": 123.11013140625,
          "velocity": 0.5826771653543307
        },
        {
          "duration": 0.013516406250005275,
          "durationTicks": 10,
          "midi": 38,
          "name": "D2",
          "ticks": 91084,
          "time": 123.1128346875,
          "velocity": 0.8976377952755905
        },
        {
          "duration": 0.010813124999998536,
          "durationTicks": 8,
          "midi": 42,
          "name": "F#2",
          "ticks": 91180,
          "time": 123.2425921875,
          "velocity": 0.5984251968503937
        },
        {
          "duration": 0.013516406250005275,
          "durationTicks": 10,
          "midi": 44,
          "name": "G#2",
          "ticks": 91274,
          "time": 123.36964640625,
          "velocity": 0.5354330708661418
        },
        {
          "duration": 0.010813125000012747,
          "durationTicks": 8,
          "midi": 82,
          "name": "A#5",
          "ticks": 91276,
          "time": 123.37234968749999,
          "velocity": 0.5984251968503937
        },
        {
          "duration": 0.06758203125001216,
          "durationTicks": 50,
          "midi": 54,
          "name": "F#3",
          "ticks": 91278,
          "time": 123.37505296875,
          "velocity": 0.8818897637795275
        },
        {
          "duration": 0.010813125000012747,
          "durationTicks": 8,
          "midi": 82,
          "name": "A#5",
          "ticks": 91372,
          "time": 123.50210718749999,
          "velocity": 0.48031496062992124
        },
        {
          "duration": 0.010813125000012747,
          "durationTicks": 8,
          "midi": 46,
          "name": "A#2",
          "ticks": 91372,
          "time": 123.50210718749999,
          "velocity": 0.5826771653543307
        },
        {
          "duration": 0.07298859374999722,
          "durationTicks": 54,
          "midi": 54,
          "name": "F#3",
          "ticks": 91374,
          "time": 123.50481046875,
          "velocity": 0.7480314960629921
        },
        {
          "duration": 0.013516406250005275,
          "durationTicks": 10,
          "midi": 36,
          "name": "C2",
          "ticks": 91374,
          "time": 123.50481046875,
          "velocity": 0.8740157480314961
        },
        {
          "duration": 0.013516406250005275,
          "durationTicks": 10,
          "midi": 42,
          "name": "F#2",
          "ticks": 91468,
          "time": 123.6318646875,
          "velocity": 0.3779527559055118
        },
        {
          "duration": 0.010813124999998536,
          "durationTicks": 8,
          "midi": 46,
          "name": "A#2",
          "ticks": 91564,
          "time": 123.7616221875,
          "velocity": 0.6220472440944882
        },
        {
          "duration": 0.013516406250005275,
          "durationTicks": 10,
          "midi": 82,
          "name": "A#5",
          "ticks": 91656,
          "time": 123.88597312499999,
          "velocity": 0.4094488188976378
        },
        {
          "duration": 0.010813125000012747,
          "durationTicks": 8,
          "midi": 36,
          "name": "C2",
          "ticks": 91660,
          "time": 123.89137968749999,
          "velocity": 0.8267716535433071
        },
        {
          "duration": 0.06487875000000543,
          "durationTicks": 48,
          "midi": 54,
          "name": "F#3",
          "ticks": 91662,
          "time": 123.89408296875,
          "velocity": 0.8582677165354331
        },
        {
          "duration": 0.013516406249991064,
          "durationTicks": 10,
          "midi": 42,
          "name": "F#2",
          "ticks": 91662,
          "time": 123.89408296875,
          "velocity": 0.5118110236220472
        },
        {
          "duration": 0.013516406250005275,
          "durationTicks": 10,
          "midi": 82,
          "name": "A#5",
          "ticks": 91754,
          "time": 124.01843390625,
          "velocity": 0.48031496062992124
        },
        {
          "duration": 0.013516406250019486,
          "durationTicks": 10,
          "midi": 44,
          "name": "G#2",
          "ticks": 91756,
          "time": 124.02113718749999,
          "velocity": 0.5511811023622047
        },
        {
          "duration": 0.07569187500000396,
          "durationTicks": 56,
          "midi": 54,
          "name": "F#3",
          "ticks": 91758,
          "time": 124.02384046875,
          "velocity": 0.7244094488188977
        },
        {
          "duration": 0.013516406250005275,
          "durationTicks": 10,
          "midi": 42,
          "name": "F#2",
          "ticks": 91852,
          "time": 124.1508946875,
          "velocity": 0.6377952755905512
        },
        {
          "duration": 0.013516406250005275,
          "durationTicks": 10,
          "midi": 38,
          "name": "D2",
          "ticks": 91852,
          "time": 124.1508946875,
          "velocity": 0.8503937007874016
        },
        {
          "duration": 0.013516406250005275,
          "durationTicks": 10,
          "midi": 44,
          "name": "G#2",
          "ticks": 91948,
          "time": 124.2806521875,
          "velocity": 0.44881889763779526
        },
        {
          "duration": 0.013516406249991064,
          "durationTicks": 10,
          "midi": 82,
          "name": "A#5",
          "ticks": 92042,
          "time": 124.40770640625,
          "velocity": 0.5275590551181102
        },
        {
          "duration": 0.013516406249991064,
          "durationTicks": 10,
          "midi": 42,
          "name": "F#2",
          "ticks": 92046,
          "time": 124.41311296875,
          "velocity": 0.6220472440944882
        },
        {
          "duration": 0.06487874999999121,
          "durationTicks": 48,
          "midi": 54,
          "name": "F#3",
          "ticks": 92048,
          "time": 124.41581625,
          "velocity": 0.984251968503937
        },
        {
          "duration": 0.010813125000012747,
          "durationTicks": 8,
          "midi": 82,
          "name": "A#5",
          "ticks": 92140,
          "time": 124.54016718749999,
          "velocity": 0.4645669291338583
        },
        {
          "duration": 0.010813125000012747,
          "durationTicks": 8,
          "midi": 44,
          "name": "G#2",
          "ticks": 92140,
          "time": 124.54016718749999,
          "velocity": 0.5118110236220472
        },
        {
          "duration": 0.09191156250000176,
          "durationTicks": 68,
          "midi": 54,
          "name": "F#3",
          "ticks": 92142,
          "time": 124.54287046875,
          "velocity": 0.8267716535433071
        },
        {
          "duration": 0.013516406250005275,
          "durationTicks": 10,
          "midi": 46,
          "name": "A#2",
          "ticks": 92236,
          "time": 124.6699246875,
          "velocity": 0.6377952755905512
        },
        {
          "duration": 0.013516406250005275,
          "durationTicks": 10,
          "midi": 36,
          "name": "C2",
          "ticks": 92238,
          "time": 124.67262796874999,
          "velocity": 0.8267716535433071
        },
        {
          "duration": 0.013516406250005275,
          "durationTicks": 10,
          "midi": 82,
          "name": "A#5",
          "ticks": 92424,
          "time": 124.924033125,
          "velocity": 0.3858267716535433
        },
        {
          "duration": 0.07028531249999048,
          "durationTicks": 52,
          "midi": 54,
          "name": "F#3",
          "ticks": 92430,
          "time": 124.93214296875,
          "velocity": 0.8503937007874016
        },
        {
          "duration": 0.013516406249991064,
          "durationTicks": 10,
          "midi": 82,
          "name": "A#5",
          "ticks": 92520,
          "time": 125.053790625,
          "velocity": 0.44881889763779526
        },
        {
          "duration": 0.07839515624999649,
          "durationTicks": 58,
          "midi": 54,
          "name": "F#3",
          "ticks": 92526,
          "time": 125.06190046875,
          "velocity": 0.7874015748031497
        },
        {
          "duration": 0.013516406249991064,
          "durationTicks": 10,
          "midi": 38,
          "name": "D2",
          "ticks": 92618,
          "time": 125.18625140625001,
          "velocity": 0.8503937007874016
        },
        {
          "duration": 0.013516406250019486,
          "durationTicks": 10,
          "midi": 44,
          "name": "G#2",
          "ticks": 92620,
          "time": 125.18895468749999,
          "velocity": 0.5748031496062992
        },
        {
          "duration": 0.013516406250005275,
          "durationTicks": 10,
          "midi": 42,
          "name": "F#2",
          "ticks": 92716,
          "time": 125.3187121875,
          "velocity": 0.5984251968503937
        },
        {
          "duration": 0.013516406250005275,
          "durationTicks": 10,
          "midi": 82,
          "name": "A#5",
          "ticks": 92808,
          "time": 125.443063125,
          "velocity": 0.5826771653543307
        },
        {
          "duration": 0.010813124999998536,
          "durationTicks": 8,
          "midi": 44,
          "name": "G#2",
          "ticks": 92812,
          "time": 125.4484696875,
          "velocity": 0.49606299212598426
        },
        {
          "duration": 0.04865906249999341,
          "durationTicks": 36,
          "midi": 54,
          "name": "F#3",
          "ticks": 92816,
          "time": 125.45387625000001,
          "velocity": 0.7716535433070866
        },
        {
          "duration": 0.013516406250005275,
          "durationTicks": 10,
          "midi": 82,
          "name": "A#5",
          "ticks": 92906,
          "time": 125.57552390625,
          "velocity": 0.4094488188976378
        },
        {
          "duration": 0.013516406250005275,
          "durationTicks": 10,
          "midi": 36,
          "name": "C2",
          "ticks": 92906,
          "time": 125.57552390625,
          "velocity": 0.8740157480314961
        },
        {
          "duration": 0.013516406250005275,
          "durationTicks": 10,
          "midi": 46,
          "name": "A#2",
          "ticks": 92908,
          "time": 125.57822718749999,
          "velocity": 0.5748031496062992
        },
        {
          "duration": 0.07569187500000396,
          "durationTicks": 56,
          "midi": 54,
          "name": "F#3",
          "ticks": 92910,
          "time": 125.58093046875,
          "velocity": 0.7086614173228346
        },
        {
          "duration": 0.013516406250019486,
          "durationTicks": 10,
          "midi": 42,
          "name": "F#2",
          "ticks": 93004,
          "time": 125.70798468749999,
          "velocity": 0.3779527559055118
        },
        {
          "duration": 0.013516406250005275,
          "durationTicks": 10,
          "midi": 46,
          "name": "A#2",
          "ticks": 93100,
          "time": 125.8377421875,
          "velocity": 0.5984251968503937
        },
        {
          "duration": 0.013516406249991064,
          "durationTicks": 10,
          "midi": 82,
          "name": "A#5",
          "ticks": 93192,
          "time": 125.962093125,
          "velocity": 0.5118110236220472
        },
        {
          "duration": 0.013516406249991064,
          "durationTicks": 10,
          "midi": 36,
          "name": "C2",
          "ticks": 93194,
          "time": 125.96479640625,
          "velocity": 0.8740157480314961
        },
        {
          "duration": 0.05947218750000616,
          "durationTicks": 44,
          "midi": 54,
          "name": "F#3",
          "ticks": 93198,
          "time": 125.97020296875,
          "velocity": 0.8582677165354331
        },
        {
          "duration": 0.013516406249991064,
          "durationTicks": 10,
          "midi": 42,
          "name": "F#2",
          "ticks": 93198,
          "time": 125.97020296875,
          "velocity": 0.4645669291338583
        },
        {
          "duration": 0.013516406250005275,
          "durationTicks": 10,
          "midi": 82,
          "name": "A#5",
          "ticks": 93288,
          "time": 126.09185062499999,
          "velocity": 0.2755905511811024
        },
        {
          "duration": 0.07569187500000396,
          "durationTicks": 56,
          "midi": 54,
          "name": "F#3",
          "ticks": 93294,
          "time": 126.09996046875,
          "velocity": 0.6771653543307087
        },
        {
          "duration": 0.013516406249991064,
          "durationTicks": 10,
          "midi": 44,
          "name": "G#2",
          "ticks": 93294,
          "time": 126.09996046875,
          "velocity": 0.5118110236220472
        },
        {
          "duration": 0.013516406250019486,
          "durationTicks": 10,
          "midi": 42,
          "name": "F#2",
          "ticks": 93388,
          "time": 126.22701468749999,
          "velocity": 0.6535433070866141
        },
        {
          "duration": 0.010813125000012747,
          "durationTicks": 8,
          "midi": 38,
          "name": "D2",
          "ticks": 93388,
          "time": 126.22701468749999,
          "velocity": 0.9448818897637795
        },
        {
          "duration": 0.013516406250005275,
          "durationTicks": 10,
          "midi": 44,
          "name": "G#2",
          "ticks": 93484,
          "time": 126.3567721875,
          "velocity": 0.4881889763779528
        },
        {
          "duration": 0.013516406249991064,
          "durationTicks": 10,
          "midi": 82,
          "name": "A#5",
          "ticks": 93576,
          "time": 126.481123125,
          "velocity": 0.5826771653543307
        },
        {
          "duration": 0.013516406250005275,
          "durationTicks": 10,
          "midi": 42,
          "name": "F#2",
          "ticks": 93580,
          "time": 126.4865296875,
          "velocity": 0.5984251968503937
        },
        {
          "duration": 0.062175468749984475,
          "durationTicks": 46,
          "midi": 54,
          "name": "F#3",
          "ticks": 93582,
          "time": 126.48923296875,
          "velocity": 0.8976377952755905
        },
        {
          "duration": 0.013516406250005275,
          "durationTicks": 10,
          "midi": 82,
          "name": "A#5",
          "ticks": 93672,
          "time": 126.610880625,
          "velocity": 0.4094488188976378
        },
        {
          "duration": 0.010813125000012747,
          "durationTicks": 8,
          "midi": 44,
          "name": "G#2",
          "ticks": 93676,
          "time": 126.61628718749999,
          "velocity": 0.5039370078740157
        },
        {
          "duration": 0.08109843750000323,
          "durationTicks": 60,
          "midi": 54,
          "name": "F#3",
          "ticks": 93678,
          "time": 126.61899046875,
          "velocity": 0.7480314960629921
        },
        {
          "duration": 0.010813125000012747,
          "durationTicks": 8,
          "midi": 46,
          "name": "A#2",
          "ticks": 93772,
          "time": 126.74604468749999,
          "velocity": 0.5984251968503937
        },
        {
          "duration": 0.013516406250019486,
          "durationTicks": 10,
          "midi": 36,
          "name": "C2",
          "ticks": 93772,
          "time": 126.74604468749999,
          "velocity": 0.8740157480314961
        },
        {
          "duration": 0.013516406249991064,
          "durationTicks": 10,
          "midi": 82,
          "name": "A#5",
          "ticks": 93960,
          "time": 127.000153125,
          "velocity": 0.5118110236220472
        },
        {
          "duration": 0.05676890624999942,
          "durationTicks": 42,
          "midi": 54,
          "name": "F#3",
          "ticks": 93966,
          "time": 127.00826296875,
          "velocity": 0.8976377952755905
        },
        {
          "duration": 0.013516406250005275,
          "durationTicks": 10,
          "midi": 82,
          "name": "A#5",
          "ticks": 94056,
          "time": 127.129910625,
          "velocity": 0.48031496062992124
        },
        {
          "duration": 0.07298859374999722,
          "durationTicks": 54,
          "midi": 54,
          "name": "F#3",
          "ticks": 94062,
          "time": 127.13802046875,
          "velocity": 0.7244094488188977
        },
        {
          "duration": 0.010813125000012747,
          "durationTicks": 8,
          "midi": 44,
          "name": "G#2",
          "ticks": 94156,
          "time": 127.26507468749999,
          "velocity": 0.5826771653543307
        },
        {
          "duration": 0.013516406250019486,
          "durationTicks": 10,
          "midi": 38,
          "name": "D2",
          "ticks": 94156,
          "time": 127.26507468749999,
          "velocity": 0.8740157480314961
        },
        {
          "duration": 0.013516406249991064,
          "durationTicks": 10,
          "midi": 42,
          "name": "F#2",
          "ticks": 94250,
          "time": 127.39212890625001,
          "velocity": 0.5748031496062992
        },
        {
          "duration": 0.013516406249991064,
          "durationTicks": 10,
          "midi": 82,
          "name": "A#5",
          "ticks": 94344,
          "time": 127.519183125,
          "velocity": 0.5118110236220472
        },
        {
          "duration": 0.013516406249991064,
          "durationTicks": 10,
          "midi": 44,
          "name": "G#2",
          "ticks": 94346,
          "time": 127.52188640625,
          "velocity": 0.4881889763779528
        },
        {
          "duration": 0.062175468749984475,
          "durationTicks": 46,
          "midi": 54,
          "name": "F#3",
          "ticks": 94350,
          "time": 127.52729296875,
          "velocity": 0.9212598425196851
        },
        {
          "duration": 0.013516406249991064,
          "durationTicks": 10,
          "midi": 82,
          "name": "A#5",
          "ticks": 94442,
          "time": 127.65164390625,
          "velocity": 0.5984251968503937
        },
        {
          "duration": 0.010813124999998536,
          "durationTicks": 8,
          "midi": 46,
          "name": "A#2",
          "ticks": 94444,
          "time": 127.6543471875,
          "velocity": 0.5748031496062992
        },
        {
          "duration": 0.08380171874999576,
          "durationTicks": 62,
          "midi": 54,
          "name": "F#3",
          "ticks": 94446,
          "time": 127.65705046875,
          "velocity": 0.8031496062992126
        },
        {
          "duration": 0.013516406249991064,
          "durationTicks": 10,
          "midi": 36,
          "name": "C2",
          "ticks": 94446,
          "time": 127.65705046875,
          "velocity": 0.8267716535433071
        },
        {
          "duration": 0.013516406250019486,
          "durationTicks": 10,
          "midi": 46,
          "name": "A#2",
          "ticks": 94636,
          "time": 127.91386218749999,
          "velocity": 0.6929133858267716
        },
        {
          "duration": 0.013516406250005275,
          "durationTicks": 10,
          "midi": 82,
          "name": "A#5",
          "ticks": 94728,
          "time": 128.038213125,
          "velocity": 0.5511811023622047
        },
        {
          "duration": 0.013516406250005275,
          "durationTicks": 10,
          "midi": 42,
          "name": "F#2",
          "ticks": 94730,
          "time": 128.04091640625,
          "velocity": 0.5984251968503937
        },
        {
          "duration": 0.013516406250005275,
          "durationTicks": 10,
          "midi": 36,
          "name": "C2",
          "ticks": 94732,
          "time": 128.04361968749998,
          "velocity": 0.8976377952755905
        },
        {
          "duration": 0.05947218750000616,
          "durationTicks": 44,
          "midi": 54,
          "name": "F#3",
          "ticks": 94734,
          "time": 128.04632296875,
          "velocity": 0.9291338582677166
        },
        {
          "duration": 0.010813124999998536,
          "durationTicks": 8,
          "midi": 82,
          "name": "A#5",
          "ticks": 94828,
          "time": 128.1733771875,
          "velocity": 0.4881889763779528
        },
        {
          "duration": 0.08380171875000997,
          "durationTicks": 62,
          "midi": 54,
          "name": "F#3",
          "ticks": 94830,
          "time": 128.17608046875,
          "velocity": 0.8031496062992126
        },
        {
          "duration": 0.013516406250005275,
          "durationTicks": 10,
          "midi": 44,
          "name": "G#2",
          "ticks": 94830,
          "time": 128.17608046875,
          "velocity": 0.6220472440944882
        },
        {
          "duration": 0.013516406250005275,
          "durationTicks": 10,
          "midi": 42,
          "name": "F#2",
          "ticks": 94926,
          "time": 128.30583796874998,
          "velocity": 0.5826771653543307
        },
        {
          "duration": 0.013516406250005275,
          "durationTicks": 10,
          "midi": 38,
          "name": "D2",
          "ticks": 94926,
          "time": 128.30583796874998,
          "velocity": 0.9448818897637795
        },
        {
          "duration": 0.013516406250005275,
          "durationTicks": 10,
          "midi": 44,
          "name": "G#2",
          "ticks": 95020,
          "time": 128.4328921875,
          "velocity": 0.49606299212598426
        },
        {
          "duration": 0.010813124999998536,
          "durationTicks": 8,
          "midi": 82,
          "name": "A#5",
          "ticks": 95116,
          "time": 128.5626496875,
          "velocity": 0.6141732283464567
        },
        {
          "duration": 0.013516406250005275,
          "durationTicks": 10,
          "midi": 42,
          "name": "F#2",
          "ticks": 95116,
          "time": 128.5626496875,
          "velocity": 0.5984251968503937
        },
        {
          "duration": 0.04595578124997246,
          "durationTicks": 34,
          "midi": 54,
          "name": "F#3",
          "ticks": 95120,
          "time": 128.56805625,
          "velocity": 0.8582677165354331
        },
        {
          "duration": 0.010813125000026957,
          "durationTicks": 8,
          "midi": 82,
          "name": "A#5",
          "ticks": 95212,
          "time": 128.69240718749998,
          "velocity": 0.5275590551181102
        },
        {
          "duration": 0.013516406250033697,
          "durationTicks": 10,
          "midi": 44,
          "name": "G#2",
          "ticks": 95212,
          "time": 128.69240718749998,
          "velocity": 0.4881889763779528
        },
        {
          "duration": 0.07298859375001143,
          "durationTicks": 54,
          "midi": 54,
          "name": "F#3",
          "ticks": 95214,
          "time": 128.69511046875,
          "velocity": 0.7007874015748031
        },
        {
          "duration": 0.010813124999998536,
          "durationTicks": 8,
          "midi": 46,
          "name": "A#2",
          "ticks": 95308,
          "time": 128.8221646875,
          "velocity": 0.6535433070866141
        },
        {
          "duration": 0.013516406250005275,
          "durationTicks": 10,
          "midi": 36,
          "name": "C2",
          "ticks": 95310,
          "time": 128.82486796875,
          "velocity": 0.8740157480314961
        },
        {
          "duration": 0.013516406249976853,
          "durationTicks": 10,
          "midi": 82,
          "name": "A#5",
          "ticks": 95498,
          "time": 129.07897640625,
          "velocity": 0.5511811023622047
        },
        {
          "duration": 0.0621754687500129,
          "durationTicks": 46,
          "midi": 54,
          "name": "F#3",
          "ticks": 95504,
          "time": 129.08708625,
          "velocity": 0.9212598425196851
        },
        {
          "duration": 0.010813124999970114,
          "durationTicks": 8,
          "midi": 50,
          "name": "D3",
          "ticks": 95516,
          "time": 129.1033059375,
          "velocity": 1
        },
        {
          "duration": 0.013516406250033697,
          "durationTicks": 10,
          "midi": 50,
          "name": "D3",
          "ticks": 95566,
          "time": 129.17088796874998,
          "velocity": 1
        },
        {
          "duration": 0.010813124999998536,
          "durationTicks": 8,
          "midi": 82,
          "name": "A#5",
          "ticks": 95596,
          "time": 129.2114371875,
          "velocity": 0.4881889763779528
        },
        {
          "duration": 0.08109843750000323,
          "durationTicks": 60,
          "midi": 54,
          "name": "F#3",
          "ticks": 95600,
          "time": 129.21684375,
          "velocity": 0.8818897637795275
        },
        {
          "duration": 0.013516406250005275,
          "durationTicks": 10,
          "midi": 50,
          "name": "D3",
          "ticks": 95620,
          "time": 129.2438765625,
          "velocity": 1
        },
        {
          "duration": 0.013516406250005275,
          "durationTicks": 10,
          "midi": 44,
          "name": "G#2",
          "ticks": 95690,
          "time": 129.33849140625,
          "velocity": 0.5748031496062992
        },
        {
          "duration": 0.013516406250005275,
          "durationTicks": 10,
          "midi": 38,
          "name": "D2",
          "ticks": 95690,
          "time": 129.33849140625,
          "velocity": 0.8267716535433071
        },
        {
          "duration": 0.013516406250005275,
          "durationTicks": 10,
          "midi": 50,
          "name": "D3",
          "ticks": 95708,
          "time": 129.3628209375,
          "velocity": 1
        },
        {
          "duration": 0.013516406250005275,
          "durationTicks": 10,
          "midi": 48,
          "name": "C3",
          "ticks": 95714,
          "time": 129.37093078125,
          "velocity": 0.9133858267716536
        },
        {
          "duration": 0.013516406249976853,
          "durationTicks": 10,
          "midi": 42,
          "name": "F#2",
          "ticks": 95784,
          "time": 129.465545625,
          "velocity": 0.5984251968503937
        },
        {
          "duration": 0.013516406250005275,
          "durationTicks": 10,
          "midi": 44,
          "name": "G#2",
          "ticks": 95790,
          "time": 129.47365546875,
          "velocity": 0.5748031496062992
        },
        {
          "duration": 0.013516406250005275,
          "durationTicks": 10,
          "midi": 48,
          "name": "C3",
          "ticks": 95818,
          "time": 129.51150140625,
          "velocity": 1
        },
        {
          "duration": 0.013516406250005275,
          "durationTicks": 10,
          "midi": 42,
          "name": "F#2",
          "ticks": 95884,
          "time": 129.6007096875,
          "velocity": 0.5669291338582677
        },
        {
          "duration": 0.05676890624999942,
          "durationTicks": 42,
          "midi": 54,
          "name": "F#3",
          "ticks": 95888,
          "time": 129.60611625,
          "velocity": 0.9212598425196851
        },
        {
          "duration": 0.013516406250005275,
          "durationTicks": 10,
          "midi": 44,
          "name": "G#2",
          "ticks": 95978,
          "time": 129.72776390625,
          "velocity": 0.5118110236220472
        },
        {
          "duration": 0.013516406250033697,
          "durationTicks": 10,
          "midi": 36,
          "name": "C2",
          "ticks": 95980,
          "time": 129.73046718749998,
          "velocity": 0.8976377952755905
        },
        {
          "duration": 0.06758203124999795,
          "durationTicks": 50,
          "midi": 54,
          "name": "F#3",
          "ticks": 95984,
          "time": 129.73587375,
          "velocity": 0.8976377952755905
        },
        {
          "duration": 0.013516406250005275,
          "durationTicks": 10,
          "midi": 48,
          "name": "C3",
          "ticks": 96002,
          "time": 129.76020328125,
          "velocity": 1
        },
        {
          "duration": 0.013516406250005275,
          "durationTicks": 10,
          "midi": 42,
          "name": "F#2",
          "ticks": 96070,
          "time": 129.85211484375,
          "velocity": 0.5984251968503937
        },
        {
          "duration": 0.013516406250005275,
          "durationTicks": 10,
          "midi": 44,
          "name": "G#2",
          "ticks": 96076,
          "time": 129.8602246875,
          "velocity": 0.5039370078740157
        },
        {
          "duration": 0.05136234375001436,
          "durationTicks": 38,
          "midi": 54,
          "name": "F#3",
          "ticks": 96082,
          "time": 129.86833453124999,
          "velocity": 1
        },
        {
          "duration": 0.010813124999998536,
          "durationTicks": 8,
          "midi": 48,
          "name": "C3",
          "ticks": 96104,
          "time": 129.898070625,
          "velocity": 0.9921259842519685
        },
        {
          "duration": 0.010813124999998536,
          "durationTicks": 8,
          "midi": 42,
          "name": "F#2",
          "ticks": 96172,
          "time": 129.9899821875,
          "velocity": 0.5511811023622047
        },
        {
          "duration": 0.05136234375001436,
          "durationTicks": 38,
          "midi": 54,
          "name": "F#3",
          "ticks": 96178,
          "time": 129.99809203125,
          "velocity": 0.968503937007874
        },
        {
          "duration": 0.013516406249976853,
          "durationTicks": 10,
          "midi": 48,
          "name": "C3",
          "ticks": 96182,
          "time": 130.00349859375,
          "velocity": 1
        },
        {
          "duration": 0.013516406250005275,
          "durationTicks": 10,
          "midi": 44,
          "name": "G#2",
          "ticks": 96262,
          "time": 130.11162984375,
          "velocity": 0.5039370078740157
        },
        {
          "duration": 0.013516406249976853,
          "durationTicks": 10,
          "midi": 45,
          "name": "A2",
          "ticks": 96266,
          "time": 130.11703640625,
          "velocity": 1
        },
        {
          "duration": 0.013516406249976853,
          "durationTicks": 10,
          "midi": 36,
          "name": "C2",
          "ticks": 96266,
          "time": 130.11703640625,
          "velocity": 0.8267716535433071
        },
        {
          "duration": 0.013516406250005275,
          "durationTicks": 10,
          "midi": 42,
          "name": "F#2",
          "ticks": 96270,
          "time": 130.12244296875,
          "velocity": 0.5826771653543307
        },
        {
          "duration": 0.05136234374998594,
          "durationTicks": 38,
          "midi": 54,
          "name": "F#3",
          "ticks": 96272,
          "time": 130.12514625,
          "velocity": 1
        },
        {
          "duration": 0.010813124999998536,
          "durationTicks": 8,
          "midi": 45,
          "name": "A2",
          "ticks": 96364,
          "time": 130.2494971875,
          "velocity": 1
        },
        {
          "duration": 0.010813124999998536,
          "durationTicks": 8,
          "midi": 44,
          "name": "G#2",
          "ticks": 96364,
          "time": 130.2494971875,
          "velocity": 0.5511811023622047
        },
        {
          "duration": 0.05676890624999942,
          "durationTicks": 42,
          "midi": 54,
          "name": "F#3",
          "ticks": 96370,
          "time": 130.25760703125,
          "velocity": 0.9606299212598425
        },
        {
          "duration": 0.013516406249976853,
          "durationTicks": 10,
          "midi": 45,
          "name": "A2",
          "ticks": 96450,
          "time": 130.36573828125,
          "velocity": 1
        },
        {
          "duration": 0.013516406250005275,
          "durationTicks": 10,
          "midi": 42,
          "name": "F#2",
          "ticks": 96456,
          "time": 130.373848125,
          "velocity": 0.5511811023622047
        },
        {
          "duration": 0.013516406250005275,
          "durationTicks": 10,
          "midi": 38,
          "name": "D2",
          "ticks": 96462,
          "time": 130.38195796875,
          "velocity": 0.8740157480314961
        },
        {
          "duration": 0.04595578125000088,
          "durationTicks": 34,
          "midi": 54,
          "name": "F#3",
          "ticks": 96466,
          "time": 130.38736453125,
          "velocity": 0.9606299212598425
        },
        {
          "duration": 0.013516406250033697,
          "durationTicks": 10,
          "midi": 44,
          "name": "G#2",
          "ticks": 96502,
          "time": 130.43602359374998,
          "velocity": 0.5511811023622047
        },
        {
          "duration": 0.010813124999998536,
          "durationTicks": 8,
          "midi": 42,
          "name": "F#2",
          "ticks": 96556,
          "time": 130.5090121875,
          "velocity": 0.5511811023622047
        },
        {
          "duration": 0.05406562499999268,
          "durationTicks": 40,
          "midi": 54,
          "name": "F#3",
          "ticks": 96560,
          "time": 130.51441875,
          "velocity": 0.9291338582677166
        },
        {
          "duration": 0.013516406249976853,
          "durationTicks": 10,
          "midi": 45,
          "name": "A2",
          "ticks": 96570,
          "time": 130.52793515625,
          "velocity": 1
        },
        {
          "duration": 0.013516406250005275,
          "durationTicks": 10,
          "midi": 41,
          "name": "F2",
          "ticks": 96648,
          "time": 130.633363125,
          "velocity": 1
        },
        {
          "duration": 0.013516406250005275,
          "durationTicks": 10,
          "midi": 44,
          "name": "G#2",
          "ticks": 96648,
          "time": 130.633363125,
          "velocity": 0.5748031496062992
        },
        {
          "duration": 0.05406562499999268,
          "durationTicks": 40,
          "midi": 54,
          "name": "F#3",
          "ticks": 96656,
          "time": 130.64417625000002,
          "velocity": 1
        },
        {
          "duration": 0.010813124999998536,
          "durationTicks": 8,
          "midi": 42,
          "name": "F#2",
          "ticks": 96696,
          "time": 130.698241875,
          "velocity": 0.5984251968503937
        },
        {
          "duration": 0.05406562499999268,
          "durationTicks": 40,
          "midi": 54,
          "name": "F#3",
          "ticks": 96750,
          "time": 130.77123046875,
          "velocity": 0.9606299212598425
        },
        {
          "duration": 0.013516406249976853,
          "durationTicks": 10,
          "midi": 46,
          "name": "A#2",
          "ticks": 96840,
          "time": 130.892878125,
          "velocity": 0.7401574803149606
        },
        {
          "duration": 0.013516406249976853,
          "durationTicks": 10,
          "midi": 59,
          "name": "B3",
          "ticks": 96842,
          "time": 130.89558140625002,
          "velocity": 1
        },
        {
          "duration": 0.013516406250005275,
          "durationTicks": 10,
          "midi": 36,
          "name": "C2",
          "ticks": 96846,
          "time": 130.90098796875,
          "velocity": 0.8267716535433071
        },
        {
          "duration": 0.013516406249976853,
          "durationTicks": 10,
          "midi": 59,
          "name": "B3",
          "ticks": 97034,
          "time": 131.15509640625,
          "velocity": 0.968503937007874
        },
        {
          "duration": 0.010813124999998536,
          "durationTicks": 8,
          "midi": 82,
          "name": "A#5",
          "ticks": 97036,
          "time": 131.1577996875,
          "velocity": 0.5511811023622047
        },
        {
          "duration": 0.05676890624999942,
          "durationTicks": 42,
          "midi": 54,
          "name": "F#3",
          "ticks": 97036,
          "time": 131.1577996875,
          "velocity": 0.9606299212598425
        },
        {
          "duration": 0.013516406250005275,
          "durationTicks": 10,
          "midi": 82,
          "name": "A#5",
          "ticks": 97132,
          "time": 131.2875571875,
          "velocity": 0.5826771653543307
        },
        {
          "duration": 0.06487874999999121,
          "durationTicks": 48,
          "midi": 54,
          "name": "F#3",
          "ticks": 97132,
          "time": 131.2875571875,
          "velocity": 0.8503937007874016
        },
        {
          "duration": 0.013516406250005275,
          "durationTicks": 10,
          "midi": 52,
          "name": "E3",
          "ticks": 97226,
          "time": 131.41461140625,
          "velocity": 1
        },
        {
          "duration": 0.013516406250005275,
          "durationTicks": 10,
          "midi": 44,
          "name": "G#2",
          "ticks": 97226,
          "time": 131.41461140625,
          "velocity": 0.5354330708661418
        },
        {
          "duration": 0.010813125000026957,
          "durationTicks": 8,
          "midi": 57,
          "name": "A3",
          "ticks": 97228,
          "time": 131.41731468749998,
          "velocity": 1
        },
        {
          "duration": 0.010813125000026957,
          "durationTicks": 8,
          "midi": 38,
          "name": "D2",
          "ticks": 97228,
          "time": 131.41731468749998,
          "velocity": 0.8976377952755905
        },
        {
          "duration": 0.013516406249976853,
          "durationTicks": 10,
          "midi": 42,
          "name": "F#2",
          "ticks": 97320,
          "time": 131.541665625,
          "velocity": 0.6220472440944882
        },
        {
          "duration": 0.013516406250005275,
          "durationTicks": 10,
          "midi": 82,
          "name": "A#5",
          "ticks": 97418,
          "time": 131.67412640625,
          "velocity": 0.5984251968503937
        },
        {
          "duration": 0.013516406250005275,
          "durationTicks": 10,
          "midi": 44,
          "name": "G#2",
          "ticks": 97418,
          "time": 131.67412640625,
          "velocity": 0.5354330708661418
        },
        {
          "duration": 0.04595578124997246,
          "durationTicks": 34,
          "midi": 54,
          "name": "F#3",
          "ticks": 97422,
          "time": 131.67953296875,
          "velocity": 0.9133858267716536
        },
        {
          "duration": 0.013516406249976853,
          "durationTicks": 10,
          "midi": 59,
          "name": "B3",
          "ticks": 97514,
          "time": 131.80388390625,
          "velocity": 1
        },
        {
          "duration": 0.013516406249976853,
          "durationTicks": 10,
          "midi": 82,
          "name": "A#5",
          "ticks": 97514,
          "time": 131.80388390625,
          "velocity": 0.5511811023622047
        },
        {
          "duration": 0.013516406249976853,
          "durationTicks": 10,
          "midi": 46,
          "name": "A#2",
          "ticks": 97514,
          "time": 131.80388390625,
          "velocity": 0.5748031496062992
        },
        {
          "duration": 0.07028531250000469,
          "durationTicks": 52,
          "midi": 54,
          "name": "F#3",
          "ticks": 97516,
          "time": 131.80658718749999,
          "velocity": 0.8267716535433071
        },
        {
          "duration": 0.013516406250005275,
          "durationTicks": 10,
          "midi": 36,
          "name": "C2",
          "ticks": 97516,
          "time": 131.80658718749999,
          "velocity": 0.8740157480314961
        },
        {
          "duration": 0.013516406249976853,
          "durationTicks": 10,
          "midi": 42,
          "name": "F#2",
          "ticks": 97608,
          "time": 131.930938125,
          "velocity": 0.5118110236220472
        },
        {
          "duration": 0.010813125000026957,
          "durationTicks": 8,
          "midi": 59,
          "name": "B3",
          "ticks": 97708,
          "time": 132.06610218749998,
          "velocity": 0.8818897637795275
        },
        {
          "duration": 0.010813125000026957,
          "durationTicks": 8,
          "midi": 46,
          "name": "A#2",
          "ticks": 97708,
          "time": 132.06610218749998,
          "velocity": 0.6929133858267716
        },
        {
          "duration": 0.013516406249976853,
          "durationTicks": 10,
          "midi": 82,
          "name": "A#5",
          "ticks": 97800,
          "time": 132.190453125,
          "velocity": 0.48031496062992124
        },
        {
          "duration": 0.010813124999998536,
          "durationTicks": 8,
          "midi": 59,
          "name": "B3",
          "ticks": 97804,
          "time": 132.1958596875,
          "velocity": 0.9212598425196851
        },
        {
          "duration": 0.010813124999998536,
          "durationTicks": 8,
          "midi": 42,
          "name": "F#2",
          "ticks": 97804,
          "time": 132.1958596875,
          "velocity": 0.44881889763779526
        },
        {
          "duration": 0.013516406250005275,
          "durationTicks": 10,
          "midi": 36,
          "name": "C2",
          "ticks": 97804,
          "time": 132.1958596875,
          "velocity": 0.8267716535433071
        },
        {
          "duration": 0.07028531250000469,
          "durationTicks": 52,
          "midi": 54,
          "name": "F#3",
          "ticks": 97806,
          "time": 132.19856296875,
          "velocity": 0.9291338582677166
        },
        {
          "duration": 0.013516406250005275,
          "durationTicks": 10,
          "midi": 82,
          "name": "A#5",
          "ticks": 97896,
          "time": 132.320210625,
          "velocity": 0.44881889763779526
        },
        {
          "duration": 0.013516406250005275,
          "durationTicks": 10,
          "midi": 44,
          "name": "G#2",
          "ticks": 97900,
          "time": 132.3256171875,
          "velocity": 0.5748031496062992
        },
        {
          "duration": 0.07569187499998975,
          "durationTicks": 56,
          "midi": 54,
          "name": "F#3",
          "ticks": 97904,
          "time": 132.33102375,
          "velocity": 0.7480314960629921
        },
        {
          "duration": 0.013516406250005275,
          "durationTicks": 10,
          "midi": 59,
          "name": "B3",
          "ticks": 97994,
          "time": 132.45267140625,
          "velocity": 1
        },
        {
          "duration": 0.013516406250033697,
          "durationTicks": 10,
          "midi": 42,
          "name": "F#2",
          "ticks": 97996,
          "time": 132.45537468749998,
          "velocity": 0.6929133858267716
        },
        {
          "duration": 0.013516406250033697,
          "durationTicks": 10,
          "midi": 38,
          "name": "D2",
          "ticks": 97996,
          "time": 132.45537468749998,
          "velocity": 0.9212598425196851
        },
        {
          "duration": 0.3243937500000129,
          "durationTicks": 240,
          "midi": 57,
          "name": "A3",
          "ticks": 98000,
          "time": 132.46078125,
          "velocity": 0.8976377952755905
        },
        {
          "duration": 0.013516406250005275,
          "durationTicks": 10,
          "midi": 44,
          "name": "G#2",
          "ticks": 98092,
          "time": 132.5851321875,
          "velocity": 0.49606299212598426
        },
        {
          "duration": 0.013516406250005275,
          "durationTicks": 10,
          "midi": 59,
          "name": "B3",
          "ticks": 98186,
          "time": 132.71218640625,
          "velocity": 0.9212598425196851
        },
        {
          "duration": 0.013516406250005275,
          "durationTicks": 10,
          "midi": 82,
          "name": "A#5",
          "ticks": 98186,
          "time": 132.71218640625,
          "velocity": 0.5826771653543307
        },
        {
          "duration": 0.013516406249976853,
          "durationTicks": 10,
          "midi": 42,
          "name": "F#2",
          "ticks": 98190,
          "time": 132.71759296875,
          "velocity": 0.5984251968503937
        },
        {
          "duration": 0.06487875000001964,
          "durationTicks": 48,
          "midi": 54,
          "name": "F#3",
          "ticks": 98192,
          "time": 132.72029625,
          "velocity": 0.9212598425196851
        },
        {
          "duration": 0.013516406249976853,
          "durationTicks": 10,
          "midi": 82,
          "name": "A#5",
          "ticks": 98282,
          "time": 132.84194390625,
          "velocity": 0.4645669291338583
        },
        {
          "duration": 0.013516406250005275,
          "durationTicks": 10,
          "midi": 44,
          "name": "G#2",
          "ticks": 98284,
          "time": 132.8446471875,
          "velocity": 0.5118110236220472
        },
        {
          "duration": 0.07298859374998301,
          "durationTicks": 54,
          "midi": 54,
          "name": "F#3",
          "ticks": 98288,
          "time": 132.85005375,
          "velocity": 0.7716535433070866
        },
        {
          "duration": 0.013516406250005275,
          "durationTicks": 10,
          "midi": 59,
          "name": "B3",
          "ticks": 98378,
          "time": 132.97170140625,
          "velocity": 0.8976377952755905
        },
        {
          "duration": 0.013516406249976853,
          "durationTicks": 10,
          "midi": 46,
          "name": "A#2",
          "ticks": 98380,
          "time": 132.9744046875,
          "velocity": 0.6377952755905512
        },
        {
          "duration": 0.013516406250005275,
          "durationTicks": 10,
          "midi": 36,
          "name": "C2",
          "ticks": 98382,
          "time": 132.97710796875,
          "velocity": 0.8267716535433071
        },
        {
          "duration": 0.013516406250005275,
          "durationTicks": 10,
          "midi": 82,
          "name": "A#5",
          "ticks": 98568,
          "time": 133.228513125,
          "velocity": 0.44881889763779526
        },
        {
          "duration": 0.010813124999970114,
          "durationTicks": 8,
          "midi": 59,
          "name": "B3",
          "ticks": 98572,
          "time": 133.23391968750002,
          "velocity": 0.8188976377952756
        },
        {
          "duration": 0.06758203125002638,
          "durationTicks": 50,
          "midi": 54,
          "name": "F#3",
          "ticks": 98576,
          "time": 133.23932624999998,
          "velocity": 0.9133858267716536
        },
        {
          "duration": 0.013516406250005275,
          "durationTicks": 10,
          "midi": 82,
          "name": "A#5",
          "ticks": 98664,
          "time": 133.358270625,
          "velocity": 0.5275590551181102
        },
        {
          "duration": 0.07569187500001817,
          "durationTicks": 56,
          "midi": 54,
          "name": "F#3",
          "ticks": 98672,
          "time": 133.36908375,
          "velocity": 0.8031496062992126
        },
        {
          "duration": 0.013516406250033697,
          "durationTicks": 10,
          "midi": 59,
          "name": "B3",
          "ticks": 98762,
          "time": 133.49073140624998,
          "velocity": 0.9212598425196851
        },
        {
          "duration": 0.013516406249976853,
          "durationTicks": 10,
          "midi": 44,
          "name": "G#2",
          "ticks": 98764,
          "time": 133.4934346875,
          "velocity": 0.5748031496062992
        },
        {
          "duration": 0.010813124999998536,
          "durationTicks": 8,
          "midi": 38,
          "name": "D2",
          "ticks": 98764,
          "time": 133.4934346875,
          "velocity": 0.8740157480314961
        },
        {
          "duration": 0.31358062499995754,
          "durationTicks": 232,
          "midi": 57,
          "name": "A3",
          "ticks": 98782,
          "time": 133.51776421875002,
          "velocity": 0.8976377952755905
        },
        {
          "duration": 0.013516406250005275,
          "durationTicks": 10,
          "midi": 42,
          "name": "F#2",
          "ticks": 98860,
          "time": 133.6231921875,
          "velocity": 0.6220472440944882
        },
        {
          "duration": 0.013516406250005275,
          "durationTicks": 10,
          "midi": 59,
          "name": "B3",
          "ticks": 98954,
          "time": 133.75024640625,
          "velocity": 0.7086614173228346
        },
        {
          "duration": 0.010813124999998536,
          "durationTicks": 8,
          "midi": 82,
          "name": "A#5",
          "ticks": 98956,
          "time": 133.7529496875,
          "velocity": 0.5826771653543307
        },
        {
          "duration": 0.010813124999998536,
          "durationTicks": 8,
          "midi": 44,
          "name": "G#2",
          "ticks": 98956,
          "time": 133.7529496875,
          "velocity": 0.5511811023622047
        },
        {
          "duration": 0.06487874999999121,
          "durationTicks": 48,
          "midi": 54,
          "name": "F#3",
          "ticks": 98960,
          "time": 133.75835625,
          "velocity": 0.9212598425196851
        },
        {
          "duration": 0.013516406250005275,
          "durationTicks": 10,
          "midi": 59,
          "name": "B3",
          "ticks": 99050,
          "time": 133.88000390624998,
          "velocity": 0.9133858267716536
        },
        {
          "duration": 0.013516406250005275,
          "durationTicks": 10,
          "midi": 82,
          "name": "A#5",
          "ticks": 99050,
          "time": 133.88000390624998,
          "velocity": 0.5511811023622047
        },
        {
          "duration": 0.013516406249976853,
          "durationTicks": 10,
          "midi": 46,
          "name": "A#2",
          "ticks": 99052,
          "time": 133.88270718750002,
          "velocity": 0.6377952755905512
        },
        {
          "duration": 0.010813124999970114,
          "durationTicks": 8,
          "midi": 36,
          "name": "C2",
          "ticks": 99052,
          "time": 133.88270718750002,
          "velocity": 0.8740157480314961
        },
        {
          "duration": 0.0756918750000466,
          "durationTicks": 56,
          "midi": 54,
          "name": "F#3",
          "ticks": 99056,
          "time": 133.88811374999997,
          "velocity": 0.7716535433070866
        },
        {
          "duration": 0.013516406249976853,
          "durationTicks": 10,
          "midi": 42,
          "name": "F#2",
          "ticks": 99148,
          "time": 134.0124646875,
          "velocity": 0.4094488188976378
        },
        {
          "duration": 0.013516406250033697,
          "durationTicks": 10,
          "midi": 59,
          "name": "B3",
          "ticks": 99242,
          "time": 134.13951890624998,
          "velocity": 0.984251968503937
        },
        {
          "duration": 0.013516406249976853,
          "durationTicks": 10,
          "midi": 46,
          "name": "A#2",
          "ticks": 99244,
          "time": 134.1422221875,
          "velocity": 0.6220472440944882
        },
        {
          "duration": 0.013516406250005275,
          "durationTicks": 10,
          "midi": 36,
          "name": "C2",
          "ticks": 99336,
          "time": 134.266573125,
          "velocity": 0.9448818897637795
        },
        {
          "duration": 0.013516406250005275,
          "durationTicks": 10,
          "midi": 59,
          "name": "B3",
          "ticks": 99338,
          "time": 134.26927640625,
          "velocity": 0.9133858267716536
        },
        {
          "duration": 0.013516406250005275,
          "durationTicks": 10,
          "midi": 82,
          "name": "A#5",
          "ticks": 99338,
          "time": 134.26927640625,
          "velocity": 0.6141732283464567
        },
        {
          "duration": 0.013516406249976853,
          "durationTicks": 10,
          "midi": 42,
          "name": "F#2",
          "ticks": 99340,
          "time": 134.27197968750002,
          "velocity": 0.5354330708661418
        },
        {
          "duration": 0.07298859375001143,
          "durationTicks": 54,
          "midi": 54,
          "name": "F#3",
          "ticks": 99342,
          "time": 134.27468296875,
          "velocity": 0.9212598425196851
        },
        {
          "duration": 0.013516406250005275,
          "durationTicks": 10,
          "midi": 82,
          "name": "A#5",
          "ticks": 99438,
          "time": 134.40444046875,
          "velocity": 0.3543307086614173
        },
        {
          "duration": 0.08380171874998155,
          "durationTicks": 62,
          "midi": 54,
          "name": "F#3",
          "ticks": 99438,
          "time": 134.40444046875,
          "velocity": 0.8188976377952756
        },
        {
          "duration": 0.013516406250005275,
          "durationTicks": 10,
          "midi": 44,
          "name": "G#2",
          "ticks": 99438,
          "time": 134.40444046875,
          "velocity": 0.5669291338582677
        },
        {
          "duration": 0.22977890625003283,
          "durationTicks": 170,
          "midi": 57,
          "name": "A3",
          "ticks": 99530,
          "time": 134.52879140624998,
          "velocity": 0.9133858267716536
        },
        {
          "duration": 0.013516406250005275,
          "durationTicks": 10,
          "midi": 59,
          "name": "B3",
          "ticks": 99530,
          "time": 134.52879140624998,
          "velocity": 0.984251968503937
        },
        {
          "duration": 0.013516406249976853,
          "durationTicks": 10,
          "midi": 38,
          "name": "D2",
          "ticks": 99532,
          "time": 134.53149468750001,
          "velocity": 0.8740157480314961
        },
        {
          "duration": 0.013516406250005275,
          "durationTicks": 10,
          "midi": 42,
          "name": "F#2",
          "ticks": 99534,
          "time": 134.53419796875,
          "velocity": 0.6692913385826772
        },
        {
          "duration": 0.013516406250005275,
          "durationTicks": 10,
          "midi": 44,
          "name": "G#2",
          "ticks": 99630,
          "time": 134.66395546875,
          "velocity": 0.49606299212598426
        },
        {
          "duration": 0.013516406250005275,
          "durationTicks": 10,
          "midi": 59,
          "name": "B3",
          "ticks": 99722,
          "time": 134.78830640625,
          "velocity": 0.8976377952755905
        },
        {
          "duration": 0.013516406250033697,
          "durationTicks": 10,
          "midi": 82,
          "name": "A#5",
          "ticks": 99726,
          "time": 134.79371296875,
          "velocity": 0.5826771653543307
        },
        {
          "duration": 0.06758203124999795,
          "durationTicks": 50,
          "midi": 54,
          "name": "F#3",
          "ticks": 99726,
          "time": 134.79371296875,
          "velocity": 0.8740157480314961
        },
        {
          "duration": 0.013516406250033697,
          "durationTicks": 10,
          "midi": 42,
          "name": "F#2",
          "ticks": 99768,
          "time": 134.85048187499999,
          "velocity": 0.6220472440944882
        },
        {
          "duration": 0.013516406250005275,
          "durationTicks": 10,
          "midi": 59,
          "name": "B3",
          "ticks": 99818,
          "time": 134.91806390624998,
          "velocity": 0.9448818897637795
        },
        {
          "duration": 0.013516406249976853,
          "durationTicks": 10,
          "midi": 82,
          "name": "A#5",
          "ticks": 99820,
          "time": 134.92076718750002,
          "velocity": 0.5826771653543307
        },
        {
          "duration": 0.013516406249976853,
          "durationTicks": 10,
          "midi": 44,
          "name": "G#2",
          "ticks": 99820,
          "time": 134.92076718750002,
          "velocity": 0.5354330708661418
        },
        {
          "duration": 0.08380171874998155,
          "durationTicks": 62,
          "midi": 54,
          "name": "F#3",
          "ticks": 99822,
          "time": 134.92347046875,
          "velocity": 0.8110236220472441
        },
        {
          "duration": 0.013516406249976853,
          "durationTicks": 10,
          "midi": 46,
          "name": "A#2",
          "ticks": 99916,
          "time": 135.0505246875,
          "velocity": 0.6692913385826772
        },
        {
          "duration": 0.013516406249976853,
          "durationTicks": 10,
          "midi": 36,
          "name": "C2",
          "ticks": 99916,
          "time": 135.0505246875,
          "velocity": 0.8503937007874016
        },
        {
          "duration": 0.013516406250005275,
          "durationTicks": 10,
          "midi": 59,
          "name": "B3",
          "ticks": 100106,
          "time": 135.30733640625,
          "velocity": 0.968503937007874
        },
        {
          "duration": 0.013516406250005275,
          "durationTicks": 10,
          "midi": 82,
          "name": "A#5",
          "ticks": 100106,
          "time": 135.30733640625,
          "velocity": 0.48031496062992124
        },
        {
          "duration": 0.06758203125002638,
          "durationTicks": 50,
          "midi": 54,
          "name": "F#3",
          "ticks": 100112,
          "time": 135.31544624999998,
          "velocity": 0.8976377952755905
        },
        {
          "duration": 0.013516406250005275,
          "durationTicks": 10,
          "midi": 82,
          "name": "A#5",
          "ticks": 100202,
          "time": 135.43709390625,
          "velocity": 0.5511811023622047
        },
        {
          "duration": 0.08109843750000323,
          "durationTicks": 60,
          "midi": 54,
          "name": "F#3",
          "ticks": 100208,
          "time": 135.44520375,
          "velocity": 0.7874015748031497
        },
        {
          "duration": 0.013516406250005275,
          "durationTicks": 10,
          "midi": 59,
          "name": "B3",
          "ticks": 100298,
          "time": 135.56685140624998,
          "velocity": 0.984251968503937
        },
        {
          "duration": 0.013516406250005275,
          "durationTicks": 10,
          "midi": 38,
          "name": "D2",
          "ticks": 100298,
          "time": 135.56685140624998,
          "velocity": 0.8740157480314961
        },
        {
          "duration": 0.013516406249976853,
          "durationTicks": 10,
          "midi": 44,
          "name": "G#2",
          "ticks": 100300,
          "time": 135.56955468750002,
          "velocity": 0.5748031496062992
        },
        {
          "duration": 0.20004281250001554,
          "durationTicks": 148,
          "midi": 57,
          "name": "A3",
          "ticks": 100308,
          "time": 135.5803678125,
          "velocity": 0.8976377952755905
        },
        {
          "duration": 0.013516406250005275,
          "durationTicks": 10,
          "midi": 59,
          "name": "B3",
          "ticks": 100394,
          "time": 135.69660890625,
          "velocity": 0.8582677165354331
        },
        {
          "duration": 0.013516406249976853,
          "durationTicks": 10,
          "midi": 42,
          "name": "F#2",
          "ticks": 100396,
          "time": 135.6993121875,
          "velocity": 0.5984251968503937
        },
        {
          "duration": 0.013516406250033697,
          "durationTicks": 10,
          "midi": 82,
          "name": "A#5",
          "ticks": 100490,
          "time": 135.82636640624997,
          "velocity": 0.6062992125984252
        },
        {
          "duration": 0.010813124999998536,
          "durationTicks": 8,
          "midi": 44,
          "name": "G#2",
          "ticks": 100492,
          "time": 135.8290696875,
          "velocity": 0.5748031496062992
        },
        {
          "duration": 0.0621754687500129,
          "durationTicks": 46,
          "midi": 54,
          "name": "F#3",
          "ticks": 100494,
          "time": 135.83177296875,
          "velocity": 0.8976377952755905
        },
        {
          "duration": 0.013516406250005275,
          "durationTicks": 10,
          "midi": 82,
          "name": "A#5",
          "ticks": 100584,
          "time": 135.953420625,
          "velocity": 0.5748031496062992
        },
        {
          "duration": 0.013516406250005275,
          "durationTicks": 10,
          "midi": 59,
          "name": "B3",
          "ticks": 100586,
          "time": 135.95612390624999,
          "velocity": 0.9133858267716536
        },
        {
          "duration": 0.010813124999970114,
          "durationTicks": 8,
          "midi": 46,
          "name": "A#2",
          "ticks": 100588,
          "time": 135.95882718750002,
          "velocity": 0.5826771653543307
        },
        {
          "duration": 0.010813124999970114,
          "durationTicks": 8,
          "midi": 36,
          "name": "C2",
          "ticks": 100588,
          "time": 135.95882718750002,
          "velocity": 0.9448818897637795
        },
        {
          "duration": 0.08380171874998155,
          "durationTicks": 62,
          "midi": 54,
          "name": "F#3",
          "ticks": 100590,
          "time": 135.96153046875,
          "velocity": 0.7480314960629921
        },
        {
          "duration": 0.013516406249976853,
          "durationTicks": 10,
          "midi": 42,
          "name": "F#2",
          "ticks": 100684,
          "time": 136.0885846875,
          "velocity": 0.4251968503937008
        },
        {
          "duration": 0.013516406250005275,
          "durationTicks": 10,
          "midi": 59,
          "name": "B3",
          "ticks": 100778,
          "time": 136.21563890624998,
          "velocity": 0.9133858267716536
        },
        {
          "duration": 0.013516406249976853,
          "durationTicks": 10,
          "midi": 46,
          "name": "A#2",
          "ticks": 100780,
          "time": 136.2183421875,
          "velocity": 0.6377952755905512
        },
        {
          "duration": 0.010813124999970114,
          "durationTicks": 8,
          "midi": 36,
          "name": "C2",
          "ticks": 100780,
          "time": 136.2183421875,
          "velocity": 0.6692913385826772
        },
        {
          "duration": 0.013516406250005275,
          "durationTicks": 10,
          "midi": 59,
          "name": "B3",
          "ticks": 100874,
          "time": 136.34539640625,
          "velocity": 0.9133858267716536
        },
        {
          "duration": 0.013516406250005275,
          "durationTicks": 10,
          "midi": 82,
          "name": "A#5",
          "ticks": 100874,
          "time": 136.34539640625,
          "velocity": 0.5984251968503937
        },
        {
          "duration": 0.013516406250005275,
          "durationTicks": 10,
          "midi": 36,
          "name": "C2",
          "ticks": 100874,
          "time": 136.34539640625,
          "velocity": 0.7401574803149606
        },
        {
          "duration": 0.013516406250005275,
          "durationTicks": 10,
          "midi": 42,
          "name": "F#2",
          "ticks": 100878,
          "time": 136.35080296875,
          "velocity": 0.5984251968503937
        },
        {
          "duration": 0.06487875000001964,
          "durationTicks": 48,
          "midi": 54,
          "name": "F#3",
          "ticks": 100880,
          "time": 136.35350624999998,
          "velocity": 0.9133858267716536
        },
        {
          "duration": 0.013516406250005275,
          "durationTicks": 10,
          "midi": 82,
          "name": "A#5",
          "ticks": 100968,
          "time": 136.472450625,
          "velocity": 0.4881889763779528
        },
        {
          "duration": 0.013516406249976853,
          "durationTicks": 10,
          "midi": 44,
          "name": "G#2",
          "ticks": 100972,
          "time": 136.4778571875,
          "velocity": 0.5826771653543307
        },
        {
          "duration": 0.07569187500001817,
          "durationTicks": 56,
          "midi": 54,
          "name": "F#3",
          "ticks": 100976,
          "time": 136.48326375,
          "velocity": 0.8267716535433071
        },
        {
          "duration": 0.09191156250003019,
          "durationTicks": 68,
          "midi": 57,
          "name": "A3",
          "ticks": 101048,
          "time": 136.58058187499998,
          "velocity": 0.9606299212598425
        },
        {
          "duration": 0.013516406250005275,
          "durationTicks": 10,
          "midi": 59,
          "name": "B3",
          "ticks": 101066,
          "time": 136.60491140624998,
          "velocity": 0.9291338582677166
        },
        {
          "duration": 0.013516406249976853,
          "durationTicks": 10,
          "midi": 42,
          "name": "F#2",
          "ticks": 101068,
          "time": 136.60761468750002,
          "velocity": 0.6535433070866141
        },
        {
          "duration": 0.013516406249976853,
          "durationTicks": 10,
          "midi": 38,
          "name": "D2",
          "ticks": 101068,
          "time": 136.60761468750002,
          "velocity": 0.8267716535433071
        },
        {
          "duration": 0.013516406250005275,
          "durationTicks": 10,
          "midi": 44,
          "name": "G#2",
          "ticks": 101166,
          "time": 136.74007546875,
          "velocity": 0.5118110236220472
        },
        {
          "duration": 0.013516406250033697,
          "durationTicks": 10,
          "midi": 59,
          "name": "B3",
          "ticks": 101258,
          "time": 136.86442640624998,
          "velocity": 0.889763779527559
        },
        {
          "duration": 0.013516406250033697,
          "durationTicks": 10,
          "midi": 82,
          "name": "A#5",
          "ticks": 101258,
          "time": 136.86442640624998,
          "velocity": 0.6456692913385826
        },
        {
          "duration": 0.06758203124999795,
          "durationTicks": 50,
          "midi": 54,
          "name": "F#3",
          "ticks": 101262,
          "time": 136.86983296875,
          "velocity": 0.9212598425196851
        },
        {
          "duration": 0.013516406250005275,
          "durationTicks": 10,
          "midi": 42,
          "name": "F#2",
          "ticks": 101262,
          "time": 136.86983296875,
          "velocity": 0.6220472440944882
        },
        {
          "duration": 0.013516406250005275,
          "durationTicks": 10,
          "midi": 82,
          "name": "A#5",
          "ticks": 101354,
          "time": 136.99418390625,
          "velocity": 0.44881889763779526
        },
        {
          "duration": 0.013516406250005275,
          "durationTicks": 10,
          "midi": 44,
          "name": "G#2",
          "ticks": 101356,
          "time": 136.9968871875,
          "velocity": 0.4881889763779528
        },
        {
          "duration": 0.07298859375001143,
          "durationTicks": 54,
          "midi": 54,
          "name": "F#3",
          "ticks": 101360,
          "time": 137.00229374999998,
          "velocity": 0.8031496062992126
        },
        {
          "duration": 0.013516406249976853,
          "durationTicks": 10,
          "midi": 36,
          "name": "C2",
          "ticks": 101452,
          "time": 137.1266446875,
          "velocity": 0.8740157480314961
        },
        {
          "duration": 0.013516406250005275,
          "durationTicks": 10,
          "midi": 50,
          "name": "D3",
          "ticks": 101468,
          "time": 137.1482709375,
          "velocity": 0.7874015748031497
        },
        {
          "duration": 0.013516406250033697,
          "durationTicks": 10,
          "midi": 40,
          "name": "E2",
          "ticks": 101556,
          "time": 137.26721531249999,
          "velocity": 0.7401574803149606
        },
        {
          "duration": 0.013516406250005275,
          "durationTicks": 10,
          "midi": 82,
          "name": "A#5",
          "ticks": 101642,
          "time": 137.38345640625,
          "velocity": 0.5275590551181102
        },
        {
          "duration": 0.013516406250005275,
          "durationTicks": 10,
          "midi": 50,
          "name": "D3",
          "ticks": 101664,
          "time": 137.4131925,
          "velocity": 0.7874015748031497
        },
        {
          "duration": 0.013516406250005275,
          "durationTicks": 10,
          "midi": 82,
          "name": "A#5",
          "ticks": 101738,
          "time": 137.51321390625,
          "velocity": 0.5275590551181102
        },
        {
          "duration": 0.013516406249976853,
          "durationTicks": 10,
          "midi": 40,
          "name": "E2",
          "ticks": 101758,
          "time": 137.54024671875,
          "velocity": 0.84251968503937
        },
        {
          "duration": 0.013516406250005275,
          "durationTicks": 10,
          "midi": 48,
          "name": "C3",
          "ticks": 101854,
          "time": 137.67000421875,
          "velocity": 0.952755905511811
        },
        {
          "duration": 0.013516406250033697,
          "durationTicks": 10,
          "midi": 48,
          "name": "C3",
          "ticks": 101952,
          "time": 137.80246499999998,
          "velocity": 0.7637795275590551
        },
        {
          "duration": 0.013516406250005275,
          "durationTicks": 10,
          "midi": 40,
          "name": "E2",
          "ticks": 102042,
          "time": 137.92411265625,
          "velocity": 0.8582677165354331
        },
        {
          "duration": 0.010813124999998536,
          "durationTicks": 8,
          "midi": 36,
          "name": "C2",
          "ticks": 102124,
          "time": 138.0349471875,
          "velocity": 0.8503937007874016
        },
        {
          "duration": 0.013516406250005275,
          "durationTicks": 10,
          "midi": 47,
          "name": "B2",
          "ticks": 102144,
          "time": 138.06198,
          "velocity": 1
        },
        {
          "duration": 0.013516406250005275,
          "durationTicks": 10,
          "midi": 40,
          "name": "E2",
          "ticks": 102248,
          "time": 138.202550625,
          "velocity": 0.7874015748031497
        },
        {
          "duration": 0.013516406249976853,
          "durationTicks": 10,
          "midi": 47,
          "name": "B2",
          "ticks": 102346,
          "time": 138.33501140625,
          "velocity": 1
        },
        {
          "duration": 0.013516406249976853,
          "durationTicks": 10,
          "midi": 40,
          "name": "E2",
          "ticks": 102448,
          "time": 138.47287875,
          "velocity": 0.84251968503937
        },
        {
          "duration": 0.010813124999970114,
          "durationTicks": 8,
          "midi": 45,
          "name": "A2",
          "ticks": 102544,
          "time": 138.60263625000002,
          "velocity": 0.952755905511811
        },
        {
          "duration": 0.013516406250033697,
          "durationTicks": 10,
          "midi": 45,
          "name": "A2",
          "ticks": 102636,
          "time": 138.7269871875,
          "velocity": 0.8031496062992126
        },
        {
          "duration": 0.010813124999998536,
          "durationTicks": 8,
          "midi": 40,
          "name": "E2",
          "ticks": 102736,
          "time": 138.86215125,
          "velocity": 0.7874015748031497
        },
        {
          "duration": 0.013516406250005275,
          "durationTicks": 10,
          "midi": 46,
          "name": "A#2",
          "ticks": 102806,
          "time": 138.95676609375,
          "velocity": 1
        },
        {
          "duration": 0.013516406250005275,
          "durationTicks": 10,
          "midi": 41,
          "name": "F2",
          "ticks": 102834,
          "time": 138.99461203125,
          "velocity": 1
        },
        {
          "duration": 0.062175468749984475,
          "durationTicks": 46,
          "midi": 54,
          "name": "F#3",
          "ticks": 102898,
          "time": 139.08111703125002,
          "velocity": 1
        },
        {
          "duration": 0.013516406250005275,
          "durationTicks": 10,
          "midi": 57,
          "name": "A3",
          "ticks": 102918,
          "time": 139.10814984375,
          "velocity": 1
        },
        {
          "duration": 0.013516406250005275,
          "durationTicks": 10,
          "midi": 40,
          "name": "E2",
          "ticks": 102936,
          "time": 139.132479375,
          "velocity": 0.84251968503937
        },
        {
          "duration": 0.27032812500002024,
          "durationTicks": 200,
          "midi": 42,
          "name": "F#2",
          "ticks": 102938,
          "time": 139.13518265624998,
          "velocity": 1
        }
      ]
    },
    {
      "channel": 0,
      "controlChanges": {},
      "pitchBends": [],
      "instrument": {
        "family": "piano",
        "number": 0,
        "name": "acoustic grand piano"
      },
      "name": "GS/RESET",
      "notes": [],
      "endOfTrackTicks": 6144
    }
  ]
}